<svg width="16" height="16" viewBox="0 0 16 16" fill="none" xmlns="http://www.w3.org/2000/svg">
<path fill-rule="evenodd" clip-rule="evenodd" d="M8 6.5C9.933 6.5 11.5 8.067 11.5 10C11.5 11.933 9.933 13.5 8 13.5C6.067 13.5 4.5 11.933 4.5 10C4.5 8.067 6.067 6.5 8 6.5ZM5.5 10C5.5 11.3807 6.61929 12.5 8 12.5C9.38071 12.5 10.5 11.3807 10.5 10C10.5 8.61929 9.38071 7.5 8 7.5C6.61929 7.5 5.5 8.61929 5.5 10Z" fill="#777B92"/>
<path fill-rule="evenodd" clip-rule="evenodd" d="M4.5 2C4.5 1.17157 5.17157 0.5 6 0.5H10C10.8284 0.5 11.5 1.17157 11.5 2V4.5H14C14.8284 4.5 15.5 5.17157 15.5 6V14C15.5 14.8284 14.8284 15.5 14 15.5H2C1.17157 15.5 0.5 14.8284 0.5 14V6C0.5 5.17157 1.17157 4.5 2 4.5H4.5V2ZM6 1.5C5.72386 1.5 5.5 1.72386 5.5 2V4.5H10.5V2C10.5 1.72386 10.2761 1.5 10 1.5H6ZM14 5.5H2C1.72386 5.5 1.5 5.72386 1.5 6V14C1.5 14.2761 1.72386 14.5 2 14.5H14C14.2761 14.5 14.5 14.2761 14.5 14V6C14.5 5.72386 14.2761 5.5 14 5.5Z" fill="#777B92"/>
</svg>
