<svg width="16" height="16" viewBox="0 0 16 16" fill="none" xmlns="http://www.w3.org/2000/svg">
<path fill-rule="evenodd" clip-rule="evenodd" d="M8.35355 5.64645C8.54882 5.84171 8.54882 6.15829 8.35355 6.35355L6.70711 8L8.35355 9.64645C8.54882 9.84171 8.54882 10.1583 8.35355 10.3536C8.15829 10.5488 7.84171 10.5488 7.64645 10.3536L6 8.70711L4.35355 10.3536C4.15829 10.5488 3.84171 10.5488 3.64645 10.3536C3.45118 10.1583 3.45118 9.84171 3.64645 9.64645L5.29289 8L3.64645 6.35355C3.45118 6.15829 3.45118 5.84171 3.64645 5.64645C3.84171 5.45118 4.15829 5.45118 4.35355 5.64645L6 7.29289L7.64645 5.64645C7.84171 5.45118 8.15829 5.45118 8.35355 5.64645Z" fill="#777B92"/>
<path fill-rule="evenodd" clip-rule="evenodd" d="M2 2.5H11C11.8284 2.5 12.5 3.17157 12.5 4V6.79291L14.6464 4.64646C14.7894 4.50346 15.0045 4.46068 15.1913 4.53807C15.3782 4.61547 15.5 4.79778 15.5 5.00001V11C15.5 11.2022 15.3782 11.3846 15.1913 11.462C15.0045 11.5393 14.7894 11.4966 14.6464 11.3536L12.5 9.20712V12C12.5 12.8284 11.8284 13.5 11 13.5H2C1.17157 13.5 0.5 12.8284 0.5 12V4C0.5 3.17157 1.17157 2.5 2 2.5ZM11.5 4C11.5 3.72386 11.2761 3.5 11 3.5H2C1.72386 3.5 1.5 3.72386 1.5 4V12C1.5 12.2761 1.72386 12.5 2 12.5H11C11.2761 12.5 11.5 12.2761 11.5 12V4ZM14.5 9.79291V6.20712L12.7071 8.00001L14.5 9.79291Z" fill="#777B92"/>
</svg>
