<svg width="16" height="16" viewBox="0 0 16 16" fill="none" xmlns="http://www.w3.org/2000/svg">
<path fill-rule="evenodd" clip-rule="evenodd" d="M10.3536 7.64645C10.5488 7.84171 10.5488 8.15829 10.3536 8.35355L8.70711 10L10.3536 11.6464C10.5488 11.8417 10.5488 12.1583 10.3536 12.3536C10.1583 12.5488 9.84171 12.5488 9.64645 12.3536L8 10.7071L6.35355 12.3536C6.15829 12.5488 5.84171 12.5488 5.64645 12.3536C5.45118 12.1583 5.45118 11.8417 5.64645 11.6464L7.29289 10L5.64645 8.35355C5.45118 8.15829 5.45118 7.84171 5.64645 7.64645C5.84171 7.45118 6.15829 7.45118 6.35355 7.64645L8 9.29289L9.64645 7.64645C9.84171 7.45118 10.1583 7.45118 10.3536 7.64645Z" fill="#777B92"/>
<path fill-rule="evenodd" clip-rule="evenodd" d="M14.0074 1.50002C14.8324 1.50399 15.5 2.17403 15.5 3V13C15.5 13.8284 14.8284 14.5 14 14.5H2C1.17157 14.5 0.5 13.8284 0.5 13V3C0.5 2.17157 1.17157 1.5 2 1.5H14L14.0074 1.50002ZM12 5.5H14.5V3C14.5 2.80044 14.3831 2.62819 14.214 2.548L12 5.5ZM14.5 6.5H1.5V13C1.5 13.2761 1.72386 13.5 2 13.5H14C14.2761 13.5 14.5 13.2761 14.5 13V6.5ZM10.75 5.5L13 2.5H10.25L8.00003 5.5H10.75ZM4.00003 5.5H6.75003L9.00003 2.5H6.25003L4.00003 5.5ZM2.75003 5.5L5.00003 2.5H2C1.72386 2.5 1.5 2.72386 1.5 3V5.5H2.75003Z" fill="#777B92"/>
</svg>
