<svg width="16" height="16" viewBox="0 0 16 16" fill="none" xmlns="http://www.w3.org/2000/svg">
<path fill-rule="evenodd" clip-rule="evenodd" d="M5 6C4.44772 6 4 5.55228 4 5C4 4.44772 4.44772 4 5 4C5.55228 4 6 4.44772 6 5C6 5.55228 5.55228 6 5 6Z" fill="#777B92"/>
<path fill-rule="evenodd" clip-rule="evenodd" d="M0.5 2C0.5 1.17157 1.17157 0.5 2 0.5H14C14.8284 0.5 15.5 1.17157 15.5 2V14C15.5 14.8284 14.8284 15.5 14 15.5H2C1.17157 15.5 0.5 14.8284 0.5 14V2ZM14.5 2C14.5 1.72386 14.2761 1.5 14 1.5H2C1.72386 1.5 1.5 1.72386 1.5 2V12.9777L8.99623 7.1473C9.59336 6.68286 10.4429 6.73575 10.9778 7.27067L14.5 10.7929V2ZM2 14.5H14C14.2761 14.5 14.5 14.2761 14.5 14V12.2071L10.2707 7.97777C10.0924 7.79947 9.80921 7.78184 9.61017 7.93665L1.54566 14.209C1.62482 14.3808 1.79849 14.5 2 14.5Z" fill="#777B92"/>
</svg>
