<svg width="16" height="16" viewBox="0 0 16 16" fill="none" xmlns="http://www.w3.org/2000/svg">
<path fill-rule="evenodd" clip-rule="evenodd" d="M0.5 1C0.5 0.723858 0.723858 0.5 1 0.5H15C15.2761 0.5 15.5 0.723858 15.5 1V4C15.5 4.27614 15.2761 4.5 15 4.5H1C0.723858 4.5 0.5 4.27614 0.5 4V1Z" fill="#777B92"/>
<path fill-rule="evenodd" clip-rule="evenodd" d="M1 5.5H15C15.2761 5.5 15.5 5.72386 15.5 6V10C15.5 10.2761 15.2761 10.5 15 10.5H1C0.723858 10.5 0.5 10.2761 0.5 10V6C0.5 5.72386 0.723858 5.5 1 5.5Z" fill="#777B92"/>
<path fill-rule="evenodd" clip-rule="evenodd" d="M1 11.5H15C15.2761 11.5 15.5 11.7239 15.5 12V15C15.5 15.2761 15.2761 15.5 15 15.5H1C0.723858 15.5 0.5 15.2761 0.5 15V12C0.5 11.7239 0.723858 11.5 1 11.5Z" fill="#777B92"/>
</svg>
