<svg width="16" height="16" viewBox="0 0 16 16" fill="none" xmlns="http://www.w3.org/2000/svg">
<path fill-rule="evenodd" clip-rule="evenodd" d="M0.5 4C0.5 3.72386 0.723858 3.5 1 3.5H15C15.2761 3.5 15.5 3.72386 15.5 4C15.5 4.27614 15.2761 4.5 15 4.5H1C0.723858 4.5 0.5 4.27614 0.5 4Z" fill="#777B92"/>
<path fill-rule="evenodd" clip-rule="evenodd" d="M3.35352 5.64593C3.5488 5.84117 3.54883 6.15776 3.35358 6.35304L2.20696 7.49985H15C15.2761 7.49985 15.5 7.72371 15.5 7.99985C15.5 8.27599 15.2761 8.49985 15 8.49985H2.20725L3.35352 9.64593C3.5488 9.84117 3.54883 10.1578 3.35358 10.353C3.15834 10.5483 2.84176 10.5483 2.64648 10.3531L0.646477 8.35343C0.5527 8.25967 0.500011 8.1325 0.5 7.99989C0.499989 7.86728 0.552656 7.7401 0.646417 7.64633L2.64642 5.64599C2.84166 5.45071 3.15824 5.45068 3.35352 5.64593Z" fill="#777B92"/>
<path fill-rule="evenodd" clip-rule="evenodd" d="M1 11.5H15C15.2761 11.5 15.5 11.7239 15.5 12C15.5 12.2761 15.2761 12.5 15 12.5H1C0.723858 12.5 0.5 12.2761 0.5 12C0.5 11.7239 0.723858 11.5 1 11.5Z" fill="#777B92"/>
</svg>
