<svg width="16" height="16" viewBox="0 0 16 16" fill="none" xmlns="http://www.w3.org/2000/svg">
<path fill-rule="evenodd" clip-rule="evenodd" d="M1 0.5H4C4.27614 0.5 4.5 0.723858 4.5 1V15C4.5 15.2761 4.27614 15.5 4 15.5H1C0.723858 15.5 0.5 15.2761 0.5 15V1C0.5 0.723858 0.723858 0.5 1 0.5Z" fill="#777B92"/>
<path fill-rule="evenodd" clip-rule="evenodd" d="M6 0.5H10C10.2761 0.5 10.5 0.723858 10.5 1V4C10.5 4.27614 10.2761 4.5 10 4.5H6C5.72386 4.5 5.5 4.27614 5.5 4V1C5.5 0.723858 5.72386 0.5 6 0.5Z" fill="#777B92"/>
<path fill-rule="evenodd" clip-rule="evenodd" d="M6 5.5H10C10.2761 5.5 10.5 5.72386 10.5 6V15C10.5 15.2761 10.2761 15.5 10 15.5H6C5.72386 15.5 5.5 15.2761 5.5 15V6C5.5 5.72386 5.72386 5.5 6 5.5Z" fill="#777B92"/>
<path fill-rule="evenodd" clip-rule="evenodd" d="M12 11.5H15C15.2761 11.5 15.5 11.7239 15.5 12V15C15.5 15.2761 15.2761 15.5 15 15.5H12C11.7239 15.5 11.5 15.2761 11.5 15V12C11.5 11.7239 11.7239 11.5 12 11.5Z" fill="#777B92"/>
<path fill-rule="evenodd" clip-rule="evenodd" d="M11.5 1C11.5 0.723858 11.7239 0.5 12 0.5H15C15.2761 0.5 15.5 0.723858 15.5 1V10C15.5 10.2761 15.2761 10.5 15 10.5H12C11.7239 10.5 11.5 10.2761 11.5 10V1Z" fill="#777B92"/>
</svg>
