<svg width="24" height="24" viewBox="0 0 24 24" fill="none" xmlns="http://www.w3.org/2000/svg">
<path fill-rule="evenodd" clip-rule="evenodd" d="M4 3C4.55228 3 5 3.44772 5 4V8.58579L7.29289 6.29289C7.64479 5.941 8.20188 5.90141 8.6 6.2L11.9062 8.67962L16.2929 4.29289C16.6834 3.90237 17.3166 3.90237 17.7071 4.29289C18.0976 4.68342 18.0976 5.31658 17.7071 5.70711L12.7071 10.7071C12.3552 11.059 11.7981 11.0986 11.4 10.8L8.09384 8.32038L5 11.4142V14.5858L7.29289 12.2929C7.64479 11.941 8.20188 11.9014 8.6 12.2L11.9062 14.6797L17.2929 9.29292C17.5789 9.00692 18.009 8.92137 18.3827 9.07615C18.7564 9.23093 19 9.59557 19 10V19H20C20.5523 19 21 19.4477 21 20C21 20.5523 20.5523 21 20 21H18.0079C18.0053 21 18.0026 21 18 21C17.9974 21 17.9947 21 17.9921 21H5C3.89543 21 3 20.1046 3 19V17.0002C3 17.0003 3 17.0001 3 17.0002V4C3 3.44772 3.44772 3 4 3ZM5 17.4142V19H17V12.4142L12.7071 16.7071C12.3552 17.059 11.7981 17.0986 11.4 16.8L8.09384 14.3204L5 17.4142Z" fill="#777B92"/>
</svg>
