<svg width="24" height="24" viewBox="0 0 24 24" fill="none" xmlns="http://www.w3.org/2000/svg">
<path fill-rule="evenodd" clip-rule="evenodd" d="M10.8944 1.32931L13.8944 2.82931C13.9303 2.84726 13.9655 2.8662 14 2.8861C14.0345 2.8662 14.0697 2.84726 14.1056 2.82931L17.1056 1.32931C17.6686 1.04778 18.3314 1.04778 18.8944 1.32931L21.8944 2.82931C22.572 3.16809 23 3.86062 23 4.61816V8.3821C23 9.13964 22.572 9.83217 21.8944 10.1709L19 11.6182V15.3821C19 16.1396 18.572 16.8322 17.8944 17.1709L14.8944 18.6709C14.3314 18.9525 13.6686 18.9525 13.1056 18.6709L10.1056 17.1709C9.428 16.8322 9 16.1396 9 15.3821V11.6182L6.10557 10.1709C5.428 9.83217 5 9.13964 5 8.3821V4.61816C5 3.86062 5.428 3.16809 6.10557 2.82931L9.10557 1.32931C9.66863 1.04778 10.3314 1.04778 10.8944 1.32931ZM17 11.6182L14 10.1182L11 11.6182V15.3821L14 16.8821L17 15.3821V11.6182ZM18 9.8821L21 8.3821V4.61816L18 3.11816L15 4.61816V8.3821L18 9.8821ZM13 8.3821V4.61816L10 3.11816L7 4.61816V8.3821L10 9.8821L13 8.3821Z" fill="#777B92"/>
<path fill-rule="evenodd" clip-rule="evenodd" d="M3 6V21H18C18.5523 21 19 21.4477 19 22C19 22.5523 18.5523 23 18 23H3C1.89543 23 1 22.1046 1 21V6C1 5.44772 1.44772 5 2 5C2.55228 5 3 5.44772 3 6Z" fill="#777B92"/>
</svg>
