<svg width="22" height="22" viewBox="0 0 22 22" fill="none" xmlns="http://www.w3.org/2000/svg">
<path fill-rule="evenodd" clip-rule="evenodd" d="M2.29289 2.29289C2.48043 2.10536 2.73478 2 3 2C3.26522 2 3.51957 2.10536 3.70711 2.29289C3.89464 2.48043 4 2.73478 4 3V7.58579L6.61327 4.97252L10.6133 7.97252L15.2929 3.29289C15.6834 2.90237 16.3166 2.90237 16.7071 3.29289C17.0976 3.68342 17.0976 4.31658 16.7071 4.70711L10.8009 10.6133L6.80094 7.61327L4 10.4142V13.5859L6.90624 10.6796L10.9062 13.6796L16.3145 8.58712C16.9526 7.98626 18 8.43771 18 9.31419L18.0001 18H19C19.5523 18 20 18.4477 20 19C20 19.5523 19.5523 20 19 20H3C2.73152 20 2.48776 19.8942 2.30812 19.722C2.303 19.7171 2.29792 19.7121 2.29289 19.7071C2.28786 19.7021 2.28289 19.697 2.27798 19.6919C2.1058 19.5122 2 19.2685 2 19V3C2 2.73478 2.10536 2.48043 2.29289 2.29289ZM4 18L16.0001 18V11.4142L11.0939 16.3204L7.09391 13.3204L4 16.4143V18Z" fill="#97A3BA"/>
</svg>
