<svg width="22" height="22" viewBox="0 0 22 22" fill="none" xmlns="http://www.w3.org/2000/svg">
<path fill-rule="evenodd" clip-rule="evenodd" d="M1.95501 16C1.44098 16 1.00528 15.61 1.00045 15.096C1.00015 15.064 1 15.032 1 15C1 9.47715 5.47715 5 11 5C16.5228 5 21 9.47715 21 15C21 15.032 20.9998 15.064 20.9995 15.096C20.9947 15.61 20.559 16 20.045 16H13.8293C13.9398 15.6872 14 15.3506 14 15C14 13.3431 12.6569 12 11 12C9.34315 12 8 13.3431 8 15C8 15.3506 8.06015 15.6872 8.17071 16H1.95501ZM6.10002 14C6.4977 12.0409 8.04087 10.4977 10 10.1V7.06189C6.38128 7.51314 3.51314 10.3813 3.06189 14H6.10002ZM12 7.06189C15.6187 7.51314 18.4869 10.3813 18.9381 14H15.9C15.5023 12.0409 13.9591 10.4977 12 10.1V7.06189Z" fill="#97A3BA"/>
</svg>
