<svg width="22" height="22" viewBox="0 0 22 22" fill="none" xmlns="http://www.w3.org/2000/svg">
<path d="M17.7303 4.54952C18.1132 4.17306 18.085 3.58814 17.6672 3.24305C17.2494 2.89797 16.6003 2.9234 16.2173 3.29986L11.8608 7.5823L7.27457 4.82722L3.30056 8.40813C2.89981 8.76924 2.89981 9.35472 3.30056 9.71583C3.70132 10.0769 4.35106 10.0769 4.75182 9.71583L7.53608 7.20698L12.1855 10L17.7303 4.54952Z" fill="#97A3BA"/>
<path d="M18 19C18.5523 19 19 18.5523 19 18C19 17.4477 18.5523 17 18 17H4C3.44772 17 3 17.4477 3 18C3 18.5523 3.44772 19 4 19H18Z" fill="#97A3BA"/>
</svg>
