<svg width="24" height="24" viewBox="0 0 24 24" fill="none" xmlns="http://www.w3.org/2000/svg">
<path fill-rule="evenodd" clip-rule="evenodd" d="M10.8944 3.32931L13.8944 4.82931C13.9303 4.84726 13.9655 4.8662 14 4.8861C14.0345 4.8662 14.0697 4.84726 14.1056 4.82931L17.1056 3.32931C17.6686 3.04778 18.3314 3.04778 18.8944 3.32931L21.8944 4.82931C22.572 5.16809 23 5.86062 23 6.61816V10.3821C23 11.1396 22.572 11.8322 21.8944 12.1709L19 13.6182V17.3821C19 18.1396 18.572 18.8322 17.8944 19.1709L14.8944 20.6709C14.3314 20.9525 13.6686 20.9525 13.1056 20.6709L10.1056 19.1709C10.0697 19.153 10.0345 19.1341 10 19.1142C9.96553 19.1341 9.93033 19.153 9.89443 19.1709L6.89443 20.6709C6.33137 20.9525 5.66863 20.9525 5.10557 20.6709L2.10557 19.1709C1.428 18.8322 1 18.1396 1 17.3821V13.6182C1 12.8606 1.428 12.1681 2.10557 11.8293L5 10.3821V6.61816C5 5.86062 5.428 5.16809 6.10557 4.82931L9.10557 3.32931C9.66863 3.04778 10.3314 3.04778 10.8944 3.32931ZM17 13.6182L14 12.1182L11 13.6182V17.3821L14 18.8821L17 17.3821V13.6182ZM18 11.8821L21 10.3821V6.61816L18 5.11816L15 6.61816V10.3821L18 11.8821ZM13 10.3821V6.61816L10 5.11816L7 6.61816V10.3821L10 11.8821L13 10.3821ZM9 13.6182L6 12.1182L3 13.6182V17.3821L6 18.8821L9 17.3821V13.6182Z" fill="#777B92"/>
</svg>
