<svg width="24" height="24" viewBox="0 0 24 24" fill="none" xmlns="http://www.w3.org/2000/svg">
<path fill-rule="evenodd" clip-rule="evenodd" d="M4 3C4.55228 3 5 3.44772 5 4V14.5858L7.29289 12.2929C7.64479 11.941 8.20188 11.9014 8.6 12.2L11.9062 14.6796L17.2929 9.29289C17.6834 8.90237 18.3166 8.90237 18.7071 9.29289C19.0976 9.68342 19.0976 10.3166 18.7071 10.7071L12.7071 16.7071C12.3552 17.059 11.7981 17.0986 11.4 16.8L8.09384 14.3204L5 17.4142V19H20C20.5523 19 21 19.4477 21 20C21 20.5523 20.5523 21 20 21H5C3.89543 21 3 20.1046 3 19V17.0002C3 17.0003 3 17.0001 3 17.0002V4C3 3.44772 3.44772 3 4 3Z" fill="#777B92"/>
<path fill-rule="evenodd" clip-rule="evenodd" d="M12 3C12.5523 3 13 3.44772 13 4V7.58579L14.2929 6.29289C14.6834 5.90237 15.3166 5.90237 15.7071 6.29289C16.0976 6.68342 16.0976 7.31658 15.7071 7.70711L12.7071 10.7071C12.3166 11.0976 11.6834 11.0976 11.2929 10.7071L8.29289 7.70711C7.90237 7.31658 7.90237 6.68342 8.29289 6.29289C8.68342 5.90237 9.31658 5.90237 9.70711 6.29289L11 7.58579V4C11 3.44772 11.4477 3 12 3Z" fill="#777B92"/>
</svg>
