<svg width="22" height="22" viewBox="0 0 22 22" fill="none" xmlns="http://www.w3.org/2000/svg">
<path d="M16.9911 2.00277C18.0991 2.00204 18.9983 2.90081 18.9952 4.00886C18.992 5.18667 18.9879 6.36448 18.9825 7.5423C18.9826 7.68068 18.955 7.8179 18.9015 7.94606C18.848 8.07422 18.7696 8.19077 18.6708 8.289C18.572 8.38723 18.4548 8.46519 18.3259 8.51838C18.197 8.57157 18.059 8.59895 17.9198 8.59892C17.7806 8.60003 17.6428 8.57372 17.5143 8.52153C17.3858 8.46934 17.2692 8.39229 17.1712 8.29482C17.0732 8.19735 16.9957 8.0814 16.9432 7.95366C16.8907 7.82591 16.8642 7.6889 16.8653 7.55052L16.8803 5.63077L4.7969 17.6901C4.59841 17.8874 4.32981 17.9989 4.05019 18C3.77058 18.0011 3.50284 17.8917 3.3059 17.6959C3.10895 17.5001 2.99892 17.2339 3.00001 16.9559C3.0011 16.6779 3.11322 16.4108 3.31172 16.2135L15.4325 4.11695L13.5093 4.09476C13.3644 4.10296 13.2196 4.08136 13.084 4.03131C12.9484 3.98127 12.8248 3.90386 12.721 3.80392C12.6172 3.70399 12.5355 3.58368 12.4809 3.45052C12.4262 3.31735 12.3999 3.1742 12.4036 3.03002C12.4072 2.88584 12.4408 2.74372 12.5021 2.61256C12.5634 2.4814 12.6512 2.36402 12.7599 2.26775C12.8687 2.17149 12.996 2.09841 13.1341 2.0531C13.2721 2.00778 13.4179 1.9912 13.5622 2.00439C14.2245 2.00374 14.8868 2.00355 15.5492 2.00336C16.0298 2.00322 16.5104 2.00308 16.9911 2.00277Z" fill="#97A3BA"/>
<path d="M17.2929 11.2928C17.4804 11.1053 17.7348 10.9999 18 10.9999C18.2652 10.9999 18.5196 11.1053 18.7071 11.2928C18.8946 11.4804 19 11.7347 19 11.9999V18.9999C19 19.2651 18.8946 19.5195 18.7071 19.707C18.5196 19.8946 18.2652 19.9999 18 19.9999C17.7348 19.9999 17.4804 19.8946 17.2929 19.707C17.1054 19.5195 17 19.2651 17 18.9999V11.9999C17 11.7347 17.1054 11.4804 17.2929 11.2928Z" fill="#97A3BA"/>
<path d="M13.2929 13.2928C13.4804 13.1053 13.7348 12.9999 14 12.9999C14.2652 12.9999 14.5196 13.1053 14.7071 13.2928C14.8946 13.4804 15 13.7347 15 13.9999V19C15 19.2652 14.8946 19.5195 14.7071 19.7071C14.5196 19.8946 14.2652 20 14 20C13.7348 20 13.4804 19.8946 13.2929 19.7071C13.1054 19.5195 13 19.2652 13 19V13.9999C13 13.7347 13.1054 13.4804 13.2929 13.2928Z" fill="#97A3BA"/>
<path d="M10 14.9999C9.73478 14.9999 9.48043 15.1053 9.29289 15.2928C9.10536 15.4804 9 15.7347 9 15.9999V19C9 19.2652 9.10536 19.5195 9.29289 19.7071C9.48043 19.8946 9.73478 20 10 20C10.2652 20 10.5196 19.8946 10.7071 19.7071C10.8946 19.5195 11 19.2652 11 19V15.9999C11 15.7347 10.8946 15.4804 10.7071 15.2928C10.5196 15.1053 10.2652 14.9999 10 14.9999Z" fill="#97A3BA"/>
</svg>
