<svg width="22" height="22" viewBox="0 0 22 22" fill="none" xmlns="http://www.w3.org/2000/svg">
<path d="M18 2C17.7348 2 17.4804 2.10536 17.2929 2.29289C17.1054 2.48043 17 2.73478 17 3V5C17 5.26522 17.1054 5.51957 17.2929 5.70711C17.4804 5.89465 17.7348 6 18 6C18.2652 6 18.5196 5.89465 18.7071 5.70711C18.8946 5.51957 19 5.26522 19 5V3C19 2.73478 18.8946 2.48043 18.7071 2.29289C18.5196 2.10536 18.2652 2 18 2Z" fill="#97A3BA"/>
<path d="M17.2929 8.2929C17.4804 8.10536 17.7348 8 18 8C18.2652 8 18.5196 8.10536 18.7071 8.2929C18.8946 8.48043 19 8.73479 19 9V13C19 13.2652 18.8946 13.5196 18.7071 13.7071C18.5196 13.8946 18.2652 14 18 14C17.7348 14 17.4804 13.8946 17.2929 13.7071C17.1054 13.5196 17 13.2652 17 13V9C17 8.73479 17.1054 8.48043 17.2929 8.2929Z" fill="#97A3BA"/>
<path d="M17.2929 16.2929C17.4804 16.1054 17.7348 16 18 16C18.2652 16 18.5196 16.1054 18.7071 16.2929C18.8946 16.4804 19 16.7348 19 17V19C19 19.2652 18.8946 19.5196 18.7071 19.7071C18.5196 19.8946 18.2652 20 18 20C17.7348 20 17.4804 19.8946 17.2929 19.7071C17.1054 19.5196 17 19.2652 17 19V17C17 16.7348 17.1054 16.4804 17.2929 16.2929Z" fill="#97A3BA"/>
<path d="M11 8C10.7348 8 10.4804 8.10536 10.2929 8.29289C10.1054 8.48043 10 8.73478 10 9L10 11C10 11.2652 10.1054 11.5196 10.2929 11.7071C10.4804 11.8946 10.7348 12 11 12C11.2652 12 11.5196 11.8946 11.7071 11.7071C11.8947 11.5196 12 11.2652 12 11L12 9C12 8.73478 11.8946 8.48043 11.7071 8.29289C11.5196 8.10536 11.2652 8 11 8Z" fill="#97A3BA"/>
<path d="M11 14C10.7348 14 10.4804 14.1054 10.2929 14.2929C10.1054 14.4804 10 14.7348 10 15V19C10 19.2652 10.1054 19.5196 10.2929 19.7071C10.4804 19.8946 10.7348 20 11 20C11.2652 20 11.5196 19.8946 11.7071 19.7071C11.8947 19.5196 12 19.2652 12 19V15C12 14.7348 11.8947 14.4804 11.7071 14.2929C11.5196 14.1054 11.2652 14 11 14Z" fill="#97A3BA"/>
<path d="M3.29289 12.2929C3.48043 12.1054 3.73478 12 4 12C4.26522 12 4.51957 12.1054 4.70711 12.2929C4.89464 12.4804 5 12.7348 5 13C5 13.2652 4.89464 13.5196 4.70711 13.7071C4.51957 13.8946 4.26522 14 4 14C3.73478 14 3.48043 13.8946 3.29289 13.7071C3.10536 13.5196 3 13.2652 3 13C3 12.7348 3.10536 12.4804 3.29289 12.2929Z" fill="#97A3BA"/>
<path d="M3.29289 16.2929C3.48043 16.1054 3.73478 16 4 16C4.26522 16 4.51957 16.1054 4.70711 16.2929C4.89464 16.4804 5 16.7348 5 17V19C5 19.2652 4.89464 19.5196 4.70711 19.7071C4.51957 19.8946 4.26522 20 4 20C3.73478 20 3.48043 19.8946 3.29289 19.7071C3.10536 19.5196 3 19.2652 3 19V17C3 16.7348 3.10536 16.4804 3.29289 16.2929Z" fill="#97A3BA"/>
</svg>
