<svg width="24" height="24" viewBox="0 0 24 24" fill="none" xmlns="http://www.w3.org/2000/svg">
<path fill-rule="evenodd" clip-rule="evenodd" d="M12 3C12.5523 3 13 3.44772 13 4V6C13 6.55228 12.5523 7 12 7C11.4477 7 11 6.55228 11 6V4C11 3.44772 11.4477 3 12 3Z" fill="#777B92"/>
<path fill-rule="evenodd" clip-rule="evenodd" d="M6 8L6 10C6 10.5523 5.55228 11 5 11C4.44772 11 4 10.5523 4 10V8C4 7.44772 4.44772 7 5 7C5.55228 7 6 7.44772 6 8Z" fill="#777B92"/>
<path fill-rule="evenodd" clip-rule="evenodd" d="M19 11C19.5523 11 20 11.4477 20 12V20C20 20.5523 19.5523 21 19 21C18.4477 21 18 20.5523 18 20V12C18 11.4477 18.4477 11 19 11Z" fill="#777B92"/>
<path fill-rule="evenodd" clip-rule="evenodd" d="M5 13C5.55228 13 6 13.4477 6 14L6 20C6 20.5523 5.55229 21 5 21C4.44772 21 4 20.5523 4 20V14C4 13.4477 4.44772 13 5 13Z" fill="#777B92"/>
<path fill-rule="evenodd" clip-rule="evenodd" d="M20 6V8C20 8.55228 19.5523 9 19 9C18.4477 9 18 8.55228 18 8V6C18 5.44772 18.4477 5 19 5C19.5523 5 20 5.44772 20 6Z" fill="#777B92"/>
<path fill-rule="evenodd" clip-rule="evenodd" d="M12 17C12.5523 17 13 17.4477 13 18V20C13 20.5523 12.5523 21 12 21C11.4477 21 11 20.5523 11 20V18C11 17.4477 11.4477 17 12 17Z" fill="#777B92"/>
<path fill-rule="evenodd" clip-rule="evenodd" d="M13 10V14C13 14.5523 12.5523 15 12 15C11.4477 15 11 14.5523 11 14V10C11 9.44772 11.4477 9 12 9C12.5523 9 13 9.44772 13 10Z" fill="#777B92"/>
</svg>
