<svg width="22" height="22" viewBox="0 0 22 22" fill="none" xmlns="http://www.w3.org/2000/svg">
<path d="M2.29289 2.29289C2.48043 2.10536 2.73478 2 3 2C3.26522 2 3.51957 2.10536 3.70711 2.29289C3.89464 2.48043 4 2.73478 4 3V18L7 18V15C7 14.7348 7.10536 14.4804 7.2929 14.2929C7.48043 14.1054 7.73479 14 8 14C8.26522 14 8.51957 14.1054 8.70711 14.2929C8.89465 14.4804 9 14.7348 9 15V18H17V13C17 12.7348 17.1054 12.4804 17.2929 12.2929C17.4804 12.1054 17.7348 12 18 12C18.2652 12 18.5196 12.1054 18.7071 12.2929C18.8946 12.4804 19 12.7348 19 13V18C19.5523 18 20 18.4477 20 19C20 19.5523 19.5523 20 19 20H3C2.73152 20 2.48776 19.8942 2.30812 19.722C2.303 19.7171 2.29792 19.7121 2.29289 19.7071C2.28786 19.7021 2.28289 19.697 2.27798 19.6919C2.1058 19.5122 2 19.2685 2 19V3C2 2.73478 2.10536 2.48043 2.29289 2.29289Z" fill="#97A3BA"/>
<path d="M13 4C12.7348 4 12.4804 4.10536 12.2929 4.29289C12.1054 4.48043 12 4.73478 12 5V7C12 7.26522 12.1054 7.51957 12.2929 7.70711C12.4804 7.89464 12.7348 8 13 8C13.2652 8 13.5196 7.89464 13.7071 7.70711C13.8946 7.51957 14 7.26522 14 7V5C14 4.73478 13.8946 4.48043 13.7071 4.29289C13.5196 4.10536 13.2652 4 13 4Z" fill="#97A3BA"/>
<path d="M13 10C12.7348 10 12.4804 10.1054 12.2929 10.2929C12.1054 10.4804 12 10.7348 12 11V15C12 15.2652 12.1054 15.5196 12.2929 15.7071C12.4804 15.8946 12.7348 16 13 16C13.2652 16 13.5196 15.8946 13.7071 15.7071C13.8946 15.5196 14 15.2652 14 15V11C14 10.7348 13.8946 10.4804 13.7071 10.2929C13.5196 10.1054 13.2652 10 13 10Z" fill="#97A3BA"/>
<path d="M18 6C17.7348 6 17.4804 6.10536 17.2929 6.29289C17.1054 6.48043 17 6.73478 17 7V9C17 9.26522 17.1054 9.51957 17.2929 9.70711C17.4804 9.89465 17.7348 10 18 10C18.2652 10 18.5196 9.89465 18.7071 9.70711C18.8946 9.51957 19 9.26522 19 9V7C19 6.73478 18.8946 6.48043 18.7071 6.29289C18.5196 6.10536 18.2652 6 18 6Z" fill="#97A3BA"/>
<path d="M7.29289 8.29289C7.48043 8.10536 7.73478 8 8 8C8.26522 8 8.51957 8.10536 8.70711 8.29289C8.89464 8.48043 9 8.73478 9 9L9 11C9 11.2652 8.89465 11.5196 8.70711 11.7071C8.51957 11.8946 8.26522 12 8 12C7.73479 12 7.48043 11.8946 7.2929 11.7071C7.10536 11.5196 7 11.2652 7 11L7 9C7 8.73478 7.10536 8.48043 7.29289 8.29289Z" fill="#97A3BA"/>
</svg>
