<svg width="24" height="24" viewBox="0 0 24 24" fill="none" xmlns="http://www.w3.org/2000/svg">
<path fill-rule="evenodd" clip-rule="evenodd" d="M20.0001 3C20.5524 3 21.0001 3.44772 21.0001 4V5.9907C21.0002 5.99648 21.0002 6.00226 21.0001 6.00803V11.9907C21.0002 11.9965 21.0002 12.0023 21.0001 12.008V19C21.0001 20.1046 20.1047 21 19.0001 21H5.00011C3.89554 21 3.00011 20.1046 3.00011 19V17.0155C2.99996 17.0058 2.99996 16.996 3.00011 16.9863V11.5352C3.00011 10.8665 3.33431 10.242 3.89071 9.87108L8.91886 6.51898C9.56195 6.09026 10.3945 6.07045 11.0573 6.4681L14.9184 8.78477L19.0001 5.51938V4C19.0001 3.44772 19.4478 3 20.0001 3ZM19.0001 8.08062L16.1678 10.3465C15.515 10.8687 14.6062 10.9299 13.8894 10.4998L10.0283 8.18308L5.00011 11.5352L5.00011 15.1315L8.91886 12.519C9.56195 12.0903 10.3945 12.0704 11.0573 12.4681L14.9184 14.7848L19.0001 11.5194V8.08062ZM19.0001 14.0806L16.1678 16.3465C15.515 16.8687 14.6062 16.9299 13.8894 16.4998L10.0283 14.1831L5.00011 17.5352V19H19.0001V14.0806Z" fill="#777B92"/>
</svg>
