<svg width="24" height="24" viewBox="0 0 24 24" fill="none" xmlns="http://www.w3.org/2000/svg">
<path fill-rule="evenodd" clip-rule="evenodd" d="M12 4.17126C12 3.0217 13.037 1.96381 14.3321 2.2733C17.9827 3.14572 20.854 6.01698 21.7264 9.66768C22.0359 10.9627 20.978 11.9997 19.8285 11.9997L14.0001 11.9999C12.8955 11.9999 12 11.1045 12 9.9999V4.17126ZM14 4.25148V9.9999L19.7482 9.99973C19.0251 7.18929 16.8104 4.97458 14 4.25148ZM9.94284 3.17856C10.1269 3.69928 9.85396 4.2706 9.33325 4.45465C6.22472 5.55336 4 8.518 4 11.9997C4 16.418 7.58172 19.9997 12 19.9997C15.4931 19.9997 18.4658 17.7603 19.5558 14.6358C19.7377 14.1143 20.3079 13.8391 20.8294 14.021C21.3508 14.2029 21.6261 14.7731 21.4442 15.2946C20.0827 19.1973 16.3699 21.9997 12 21.9997C6.47715 21.9997 2 17.5225 2 11.9997C2 7.64407 4.78413 3.94128 8.66675 2.56897C9.18747 2.38492 9.75879 2.65785 9.94284 3.17856Z" fill="#777B92"/>
</svg>
