<svg width="24" height="24" viewBox="0 0 24 24" fill="none" xmlns="http://www.w3.org/2000/svg">
<path fill-rule="evenodd" clip-rule="evenodd" d="M19.7443 5.66792L15.0044 10.9495C14.285 11.7511 13.0599 11.839 12.2334 11.1483L9.30772 8.70324L5.64129 11.7673C5.21751 12.1215 4.58686 12.0651 4.2327 11.6413C3.87854 11.2175 3.93498 10.5868 4.35876 10.2327L8.02519 7.1686C8.76764 6.54812 9.84779 6.54813 10.5902 7.1686L13.5159 9.61364L18.2558 4.3321C18.6247 3.92107 19.2569 3.88689 19.6679 4.25577C20.079 4.62464 20.1131 5.25689 19.7443 5.66792Z" fill="#777B92"/>
<path fill-rule="evenodd" clip-rule="evenodd" d="M4 18H20C20.5523 18 21 18.4477 21 19C21 19.5523 20.5523 20 20 20H4C3.44772 20 3 19.5523 3 19C3 18.4477 3.44772 18 4 18Z" fill="#777B92"/>
</svg>
