<svg width="22" height="22" viewBox="0 0 22 22" fill="none" xmlns="http://www.w3.org/2000/svg">
<path fill-rule="evenodd" clip-rule="evenodd" d="M18.3753 3.22101C19.0301 2.6972 20 3.16337 20 4.00188V18.0019C20 18.5542 19.5523 19.0019 19 19.0019H3C2.44772 19.0019 2 18.5542 2 18.0019V9.00188C2 8.66752 2.1671 8.35529 2.4453 8.16983L8.4453 4.16983C8.76684 3.95546 9.18312 3.94556 9.5145 4.14438L13.9183 6.78664L18.3753 3.22101ZM18 9.52129V6.0825L14.0817 9.21711L9.02815 6.18496L4 9.53706V13.1334L8.44512 10.17C8.76666 9.95565 9.18294 9.94574 9.51431 10.1446L13.9181 12.7868L18 9.52129ZM18 12.0825L14.6245 14.7829C14.2981 15.044 13.8437 15.0746 13.4853 14.8596L9.02797 12.1851L4 15.5371V17.0019H18V12.0825Z" fill="#97A3BA"/>
</svg>
