<svg width="22" height="22" viewBox="0 0 22 22" fill="none" xmlns="http://www.w3.org/2000/svg">
<path fill-rule="evenodd" clip-rule="evenodd" d="M11.2929 1.29289C11.4804 1.10536 11.7348 1 12 1C14.3869 1 16.6761 1.94821 18.364 3.63604C20.0518 5.32387 21 7.61305 21 10C21 10.2652 20.8946 10.5196 20.7071 10.7071C20.5196 10.8946 20.2652 11 20 11H12C11.7348 11 11.4804 10.8946 11.2929 10.7071C11.1054 10.5196 11 10.2652 11 10V2C11 1.73478 11.1054 1.48043 11.2929 1.29289ZM13 3.07V9H18.93C18.7144 7.50379 18.0202 6.11759 16.9513 5.04868C15.8824 3.97978 14.4962 3.28561 13 3.07Z" fill="#97A3BA"/>
<path d="M19.4326 13.0031C19.5642 12.9964 19.6958 13.0158 19.8198 13.0601C20.0685 13.1485 20.2722 13.3316 20.3865 13.5695C20.5007 13.8074 20.5163 14.0808 20.4298 14.3301C19.8671 15.9231 18.9099 17.3475 17.6476 18.4704C16.3854 19.5933 14.8592 20.3781 13.2115 20.7516C11.5639 21.1251 9.84847 21.075 8.22541 20.6061C6.60234 20.1372 5.12453 19.2647 3.92991 18.0701C2.73529 16.8754 1.8628 15.3976 1.39389 13.7746C0.924967 12.1515 0.874903 10.4361 1.24837 8.78843C1.62183 7.14078 2.40664 5.6146 3.52956 4.35234C4.65248 3.09009 6.07689 2.1329 7.66985 1.57012C7.92048 1.4826 8.19561 1.49823 8.43472 1.61356C8.67383 1.7289 8.85732 1.93449 8.94485 2.18512C9.03237 2.43575 9.01674 2.71088 8.90141 2.94999C8.78607 3.1891 8.58047 3.3726 8.32985 3.46012C7.05593 3.91077 5.91691 4.67677 5.01908 5.68664C4.12124 6.69652 3.49383 7.91736 3.19539 9.23527C2.89695 10.5532 2.93721 11.9252 3.3124 13.2234C3.68759 14.5215 4.38549 15.7035 5.34099 16.659C6.29649 17.6145 7.47845 18.3124 8.7766 18.6876C10.0747 19.0628 11.4468 19.103 12.7647 18.8046C14.0826 18.5061 15.3034 17.8787 16.3133 16.9809C17.3232 16.0831 18.0892 14.944 18.5398 13.6701C18.5835 13.5458 18.6514 13.4314 18.7395 13.3334C18.8275 13.2354 18.9341 13.1557 19.053 13.099C19.172 13.0424 19.301 13.0097 19.4326 13.0031Z" fill="#97A3BA"/>
</svg>
