<svg width="24" height="24" viewBox="0 0 24 24" fill="none" xmlns="http://www.w3.org/2000/svg">
<path fill-rule="evenodd" clip-rule="evenodd" d="M21 4V20C21 20.5523 20.5523 21 20 21C19.4477 21 19 20.5523 19 20V4C19 3.44772 19.4477 3 20 3C20.5523 3 21 3.44772 21 4Z" fill="#777B92"/>
<path fill-rule="evenodd" clip-rule="evenodd" d="M16 8L16 20C16 20.5523 15.5523 21 15 21C14.4477 21 14 20.5523 14 20L14 8C14 7.44772 14.4477 7 15 7C15.5523 7 16 7.44772 16 8Z" fill="#777B92"/>
<path fill-rule="evenodd" clip-rule="evenodd" d="M10 11C10.5523 11 11 11.4477 11 12L11 20C11 20.5523 10.5523 21 10 21C9.44772 21 9 20.5523 9 20L9 12C9 11.4477 9.44772 11 10 11Z" fill="#777B92"/>
<path fill-rule="evenodd" clip-rule="evenodd" d="M6 16L6 20C6 20.5523 5.55229 21 5 21C4.44772 21 4 20.5523 4 20V16C4 15.4477 4.44772 15 5 15C5.55228 15 6 15.4477 6 16Z" fill="#777B92"/>
</svg>
