<svg width="22" height="22" viewBox="0 0 22 22" fill="none" xmlns="http://www.w3.org/2000/svg">
<path d="M19.9998 10.9998C19.9998 10.7346 19.8944 10.4802 19.7069 10.2927C19.5194 10.1051 19.265 9.99978 18.9998 9.99978C18.7346 9.99978 18.4802 10.1051 18.2927 10.2927C18.1051 10.4802 17.9998 10.7346 17.9998 10.9998V13.2998L13.7598 8.29978C13.6067 8.12086 13.3954 8.00169 13.1631 7.96327C12.9307 7.92486 12.6923 7.96966 12.4898 8.08978L8.21978 10.6998L3.76978 5.35978C3.68574 5.25867 3.5826 5.17509 3.46625 5.11384C3.34991 5.05258 3.22264 5.01484 3.09171 5.00276C2.96078 4.99069 2.82875 5.00453 2.70317 5.04348C2.57758 5.08243 2.4609 5.14574 2.35978 5.22978C2.25867 5.31383 2.17509 5.41697 2.11384 5.53331C2.05258 5.64966 2.01484 5.77693 2.00276 5.90786C1.99069 6.03879 2.00453 6.17082 2.04348 6.2964C2.08243 6.42198 2.14574 6.53867 2.22978 6.63978L7.22978 12.6398C7.38203 12.8228 7.59457 12.9455 7.82921 12.9859C8.06384 13.0262 8.30517 12.9815 8.50978 12.8598L12.7898 10.2898L16.7898 14.9998H13.9998C13.7346 14.9998 13.4802 15.1051 13.2927 15.2927C13.1051 15.4802 12.9998 15.7346 12.9998 15.9998C12.9998 16.265 13.1051 16.5194 13.2927 16.7069C13.4802 16.8944 13.7346 16.9998 13.9998 16.9998H18.9998C19.1229 16.9968 19.2445 16.9731 19.3598 16.9298L19.4998 16.8498C19.5519 16.8235 19.6021 16.7934 19.6498 16.7598C19.7046 16.7103 19.7517 16.653 19.7898 16.5898C19.8233 16.5455 19.8534 16.4987 19.8798 16.4498C19.9043 16.3957 19.9211 16.3385 19.9298 16.2798C19.9703 16.1916 19.9941 16.0967 19.9998 15.9998V10.9998Z" fill="#97A3BA"/>
</svg>
