<svg width="24" height="24" viewBox="0 0 24 24" fill="none" xmlns="http://www.w3.org/2000/svg">
<path fill-rule="evenodd" clip-rule="evenodd" d="M3.35984 17.7682C2.93556 17.4147 2.87824 16.7841 3.2318 16.3598L7.68351 11.0178C8.31465 10.2604 9.40356 10.0759 10.2489 10.5832L13.7904 12.708L17.8258 8H15C14.4477 8 14 7.55229 14 7C14 6.44771 14.4477 6 15 6H20C20.5523 6 21 6.44771 21 7V12C21 12.5523 20.5523 13 20 13C19.4477 13 19 12.5523 19 12V9.70326L15.3089 14.0096C14.6741 14.7501 13.5977 14.9248 12.7614 14.423L9.21995 12.2981L4.76825 17.6402C4.41468 18.0645 3.78412 18.1218 3.35984 17.7682Z" fill="#777B92"/>
</svg>
