<svg width="22" height="22" viewBox="0 0 22 22" fill="none" xmlns="http://www.w3.org/2000/svg">
<path d="M19.9929 6C20.0024 5.93032 20.0024 5.85968 19.9929 5.79C19.9842 5.73129 19.9674 5.67407 19.9429 5.62C19.9165 5.57113 19.8864 5.52433 19.853 5.48C19.8149 5.41675 19.7678 5.35947 19.713 5.31L19.5931 5.24C19.5354 5.19696 19.4713 5.16321 19.4032 5.14H19.2033C19.1424 5.08099 19.0713 5.03356 18.9934 5H13.9959C13.7308 5 13.4765 5.10536 13.2891 5.29289C13.1017 5.48043 12.9963 5.73478 12.9963 6C12.9963 6.26522 13.1017 6.51957 13.2891 6.70711C13.4765 6.89464 13.7308 7 13.9959 7H16.8245L12.8264 11.71L8.50856 9.14C8.30404 9.0183 8.06283 8.97359 7.82832 9.01392C7.5938 9.05425 7.38135 9.17696 7.22919 9.36L2.23165 15.36C2.14749 15.461 2.08408 15.5777 2.04505 15.7033C2.00603 15.8289 1.99215 15.961 2.00422 16.092C2.01629 16.2229 2.05407 16.3503 2.11539 16.4666C2.17671 16.5829 2.26037 16.6861 2.36158 16.77C2.54141 16.9191 2.76773 17.0005 3.00127 17C3.14811 17.0002 3.29319 16.9681 3.42621 16.9059C3.55923 16.8437 3.67691 16.7529 3.77089 16.64L8.2187 11.3L12.4866 13.86C12.689 13.9801 12.9273 14.0249 13.1595 13.9865C13.3918 13.9481 13.603 13.8289 13.756 13.65L17.9939 8.7V11C17.9939 11.2652 18.0992 11.5196 18.2866 11.7071C18.4741 11.8946 18.7283 12 18.9934 12C19.2585 12 19.5127 11.8946 19.7002 11.7071C19.8876 11.5196 19.9929 11.2652 19.9929 11V6Z" fill="#97A3BA"/>
</svg>
