<svg width="22" height="22" viewBox="0 0 22 22" fill="none" xmlns="http://www.w3.org/2000/svg">
<path fill-rule="evenodd" clip-rule="evenodd" d="M13 3.97411L9 2L4 4.46763V9.40271L0 11.3768V17.5322L5 19.9998L9 18.0257L13 19.9998L18 17.5322V12.5971L22 10.623V4.46763L17 2L13 3.97411ZM14 5.6877V9.40271L17.0002 10.8834L20 9.4029V5.6877L17 4.20712L14 5.6877ZM12 5.6877L9 4.20712L6 5.6877V9.40271L9 10.8833L12 9.40271V5.6877ZM13 11.1165L10 12.5971V16.3121L13 17.7927L16 16.3121V12.5971L13 11.1165ZM8 12.5971V16.3121L5 17.7927L2 16.3121V12.5969L4.9998 11.1164L8 12.5971Z" fill="#97A3BA"/>
</svg>
