<svg width="22" height="22" viewBox="0 0 22 22" fill="none" xmlns="http://www.w3.org/2000/svg">
<path fill-rule="evenodd" clip-rule="evenodd" d="M7 8H4V3C4 2.73478 3.89464 2.48043 3.70711 2.29289C3.51957 2.10536 3.26522 2 3 2C2.73478 2 2.48043 2.10536 2.29289 2.29289C2.10536 2.48043 2 2.73478 2 3V19C2 19.2685 2.1058 19.5122 2.27798 19.6919L2.29289 19.7071L2.30812 19.722C2.48776 19.8942 2.73152 20 3 20H19C19.5523 20 20 19.5523 20 19C20 18.4477 19.5523 18 19 18V12C19 11.7271 18.8907 11.4798 18.7135 11.2994L18.7071 11.2929L18.7006 11.2865C18.5202 11.1093 18.2729 11 18 11H15V5C15 4.73478 14.8946 4.48043 14.7071 4.29289C14.5196 4.10536 14.2652 4 14 4H8C7.73478 4 7.48043 4.10536 7.29289 4.29289C7.10536 4.48043 7 4.73478 7 5V8ZM17 13H13V6H9V10H4V18H17V13Z" fill="#97A3BA"/>
</svg>
