<svg width="22" height="22" viewBox="0 0 22 22" fill="none" xmlns="http://www.w3.org/2000/svg">
<path fill-rule="evenodd" clip-rule="evenodd" d="M11 1C5.47715 1 1 5.47715 1 11C1 16.5228 5.47715 21 11 21C16.5228 21 21 16.5228 21 11C21 5.47715 16.5228 1 11 1ZM9.99995 3.0619C6.05366 3.55402 3 6.9204 3 11C3 11.9311 3.15907 12.8251 3.45152 13.6562L9.99995 10.382V3.0619ZM4.34715 15.4444C5.78228 17.5884 8.22629 19 11 19C13.6338 19 15.9703 17.7272 17.4281 15.7632L10.9724 12.1318L4.34715 15.4444ZM18.41 14.0208C18.7904 13.0887 19 12.0689 19 11C19 9.26608 18.4484 7.66099 17.511 6.35067L12.6884 10.8024L18.41 14.0208ZM16.1541 4.88137C15.0021 3.9099 13.5718 3.25789 11.9999 3.06189V8.71602L16.1541 4.88137Z" fill="#97A3BA"/>
</svg>
