<svg width="24" height="24" viewBox="0 0 24 24" fill="none" xmlns="http://www.w3.org/2000/svg">
<path fill-rule="evenodd" clip-rule="evenodd" d="M13 4C13 3.44772 13.4477 3 14 3H19C19.5523 3 20 3.44772 20 4V9C20 9.55228 19.5523 10 19 10C18.4477 10 18 9.55228 18 9V6.41421L5.70711 18.7071C5.31658 19.0976 4.68342 19.0976 4.29289 18.7071C3.90237 18.3166 3.90237 17.6834 4.29289 17.2929L16.5858 5H14C13.4477 5 13 4.55228 13 4Z" fill="#777B92"/>
<path fill-rule="evenodd" clip-rule="evenodd" d="M20 13V20C20 20.5523 19.5523 21 19 21C18.4477 21 18 20.5523 18 20V13C18 12.4477 18.4477 12 19 12C19.5523 12 20 12.4477 20 13Z" fill="#777B92"/>
<path fill-rule="evenodd" clip-rule="evenodd" d="M16 15V20C16 20.5523 15.5523 21 15 21C14.4477 21 14 20.5523 14 20V15C14 14.4477 14.4477 14 15 14C15.5523 14 16 14.4477 16 15Z" fill="#777B92"/>
<path fill-rule="evenodd" clip-rule="evenodd" d="M11 16C11.5523 16 12 16.4477 12 17V20C12 20.5523 11.5523 21 11 21C10.4477 21 10 20.5523 10 20V17C10 16.4477 10.4477 16 11 16Z" fill="#777B92"/>
</svg>
