<svg width="22" height="22" viewBox="0 0 22 22" fill="none" xmlns="http://www.w3.org/2000/svg">
<path d="M18.2929 2.29289C18.4804 2.10536 18.7348 2 19 2C19.2652 2 19.5196 2.10536 19.7071 2.29289C19.8946 2.48043 20 2.73478 20 3V19C20 19.2652 19.8946 19.5196 19.7071 19.7071C19.5196 19.8946 19.2652 20 19 20C18.7348 20 18.4804 19.8946 18.2929 19.7071C18.1054 19.5196 18 19.2652 18 19V3C18 2.73478 18.1054 2.48043 18.2929 2.29289Z" fill="#97A3BA"/>
<path d="M8.29289 10.2929C8.48043 10.1054 8.73478 10 9 10C9.26522 10 9.51957 10.1054 9.70711 10.2929C9.89464 10.4804 10 10.7348 10 11V19C10 19.2652 9.89464 19.5196 9.70711 19.7071C9.51957 19.8946 9.26522 20 9 20C8.73478 20 8.48043 19.8946 8.29289 19.7071C8.10536 19.5196 8 19.2652 8 19V11C8 10.7348 8.10536 10.4804 8.29289 10.2929Z" fill="#97A3BA"/>
<path d="M14 6C13.7348 6 13.4804 6.10536 13.2929 6.29289C13.1054 6.48043 13 6.73478 13 7V19C13 19.2652 13.1054 19.5196 13.2929 19.7071C13.4804 19.8946 13.7348 20 14 20C14.2652 20 14.5196 19.8946 14.7071 19.7071C14.8946 19.5196 15 19.2652 15 19V7C15 6.73478 14.8946 6.48043 14.7071 6.29289C14.5196 6.10536 14.2652 6 14 6Z" fill="#97A3BA"/>
<path d="M3.29289 14.2929C3.48043 14.1054 3.73478 14 4 14C4.26522 14 4.51957 14.1054 4.70711 14.2929C4.89464 14.4804 5 14.7348 5 15V19C5 19.2652 4.89464 19.5196 4.70711 19.7071C4.51957 19.8946 4.26522 20 4 20C3.73478 20 3.48043 19.8946 3.29289 19.7071C3.10536 19.5196 3 19.2652 3 19V15C3 14.7348 3.10536 14.4804 3.29289 14.2929Z" fill="#97A3BA"/>
</svg>
