<svg width="22" height="22" viewBox="0 0 22 22" fill="none" xmlns="http://www.w3.org/2000/svg">
<path d="M2.29289 2.29289C2.48043 2.10536 2.73478 2 3 2C3.26522 2 3.51957 2.10536 3.70711 2.29289C3.89464 2.48043 4 2.73478 4 3V10.5859L6.90624 7.6797L10.9062 10.6797L15.5859 6.00008C15.9764 5.60955 16.6096 5.60955 17.0001 6.00008C17.3906 6.3906 17.3906 7.02377 17.0001 7.41429L11.0939 13.3205L7.09391 10.3205L4 13.4144V18L19 18C19.5523 18 20 18.4477 20 19C20 19.5523 19.5523 20 19 20H3C2.73152 20 2.48776 19.8942 2.30812 19.722C2.303 19.7171 2.29792 19.7121 2.29289 19.7071C2.28786 19.7021 2.28289 19.697 2.27798 19.6919C2.1058 19.5122 2 19.2685 2 19V3C2 2.73478 2.10536 2.48043 2.29289 2.29289Z" fill="#97A3BA"/>
</svg>
