<svg width="22" height="22" viewBox="0 0 22 22" fill="none" xmlns="http://www.w3.org/2000/svg">
<path fill-rule="evenodd" clip-rule="evenodd" d="M9.5 8C11.433 8 13 6.433 13 4.5C13 2.567 11.433 1 9.5 1C7.567 1 6 2.567 6 4.5C6 6.433 7.567 8 9.5 8ZM9.5 6C10.3284 6 11 5.32843 11 4.5C11 3.67157 10.3284 3 9.5 3C8.67157 3 8 3.67157 8 4.5C8 5.32843 8.67157 6 9.5 6Z" fill="#97A3BA"/>
<path d="M2 3C1.73478 3 1.48043 3.10536 1.29289 3.29289C1.10536 3.48043 1 3.73478 1 4V20C1 20.2685 1.1058 20.5122 1.27798 20.6919L1.29289 20.7071L1.30812 20.722C1.48776 20.8942 1.73152 21 2 21H18C18.5523 21 19 20.5523 19 20C19 19.4477 18.5523 19 18 19H3V4C3 3.73478 2.89464 3.48043 2.70711 3.29289C2.51957 3.10536 2.26522 3 2 3Z" fill="#97A3BA"/>
<path fill-rule="evenodd" clip-rule="evenodd" d="M11 14C11 15.6569 9.65685 17 8 17C6.34315 17 5 15.6569 5 14C5 12.3431 6.34315 11 8 11C9.65685 11 11 12.3431 11 14ZM9 14C9 14.5523 8.55228 15 8 15C7.44772 15 7 14.5523 7 14C7 13.4477 7.44772 13 8 13C8.55228 13 9 13.4477 9 14Z" fill="#97A3BA"/>
<path fill-rule="evenodd" clip-rule="evenodd" d="M21 10C21 12.2091 19.2091 14 17 14C14.7909 14 13 12.2091 13 10C13 7.79086 14.7909 6 17 6C19.2091 6 21 7.79086 21 10ZM19 10C19 11.1046 18.1046 12 17 12C15.8954 12 15 11.1046 15 10C15 8.89543 15.8954 8 17 8C18.1046 8 19 8.89543 19 10Z" fill="#97A3BA"/>
</svg>
