<svg width="24" height="24" viewBox="0 0 24 24" fill="none" xmlns="http://www.w3.org/2000/svg">
<path fill-rule="evenodd" clip-rule="evenodd" d="M7 5.5C7 3.567 8.567 2 10.5 2C12.433 2 14 3.567 14 5.5C14 7.433 12.433 9 10.5 9C8.567 9 7 7.433 7 5.5ZM10.5 4C9.67157 4 9 4.67157 9 5.5C9 6.32843 9.67157 7 10.5 7C11.3284 7 12 6.32843 12 5.5C12 4.67157 11.3284 4 10.5 4Z" fill="#777B92"/>
<path fill-rule="evenodd" clip-rule="evenodd" d="M4 5V20H19C19.5523 20 20 20.4477 20 21C20 21.5523 19.5523 22 19 22H4C2.89543 22 2 21.1046 2 20V5C2 4.44772 2.44772 4 3 4C3.55228 4 4 4.44772 4 5Z" fill="#777B92"/>
<path fill-rule="evenodd" clip-rule="evenodd" d="M18 7C20.2091 7 22 8.79086 22 11C22 13.2091 20.2091 15 18 15C15.7909 15 14 13.2091 14 11C14 8.79086 15.7909 7 18 7ZM16 11C16 12.1046 16.8954 13 18 13C19.1046 13 20 12.1046 20 11C20 9.89543 19.1046 9 18 9C16.8954 9 16 9.89543 16 11Z" fill="#777B92"/>
<path fill-rule="evenodd" clip-rule="evenodd" d="M9 12C10.6569 12 12 13.3431 12 15C12 16.6569 10.6569 18 9 18C7.34315 18 6 16.6569 6 15C6 13.3431 7.34315 12 9 12ZM8 15C8 15.5523 8.44772 16 9 16C9.55228 16 10 15.5523 10 15C10 14.4477 9.55228 14 9 14C8.44772 14 8 14.4477 8 15Z" fill="#777B92"/>
</svg>
