<svg width="22" height="22" viewBox="0 0 22 22" fill="none" xmlns="http://www.w3.org/2000/svg">
<path fill-rule="evenodd" clip-rule="evenodd" d="M13 1.97411L9 0L4 2.46763V8.62297L8 10.5971V15.5322L13 17.9998L18 15.5322V10.5971L22 8.62297V2.46763L17 0L13 1.97411ZM14 3.6877V7.40271L17.0002 8.88339L20 7.4029V3.6877L17 2.20712L14 3.6877ZM12 3.6877L9 2.20712L6 3.6877V7.4029L8.9998 8.88339L12 7.40271V3.6877ZM13 9.1165L10 10.5971V14.3121L13 15.7927L16 14.3121V10.5971L13 9.1165Z" fill="#97A3BA"/>
<path d="M1 4C0.734784 4 0.480429 4.10536 0.292892 4.29289C0.105356 4.48043 0 4.73478 0 5V21C0 21.2685 0.105801 21.5122 0.277984 21.6919L0.292892 21.7071L0.308121 21.722C0.487757 21.8942 0.731523 22 1 22H17C17.5523 22 18 21.5523 18 21C18 20.4477 17.5523 20 17 20H2V5C2 4.73478 1.89464 4.48043 1.70711 4.29289C1.51957 4.10536 1.26522 4 1 4Z" fill="#97A3BA"/>
</svg>
