<svg width="22" height="22" viewBox="0 0 22 22" fill="none" xmlns="http://www.w3.org/2000/svg">
<path fill-rule="evenodd" clip-rule="evenodd" d="M9.5715 1.81631C9.66365 2.36987 9.29005 2.88771 8.75671 3.04936C5.43602 4.05584 3.01682 7.1624 3.01682 10.8368C3.01682 15.3272 6.62867 18.9674 11.0841 18.9674C14.1677 18.9674 16.8491 17.2234 18.2069 14.6581C18.4691 14.1629 19.0464 13.8958 19.5668 14.0959C20.0871 14.2959 20.3525 14.8863 20.1028 15.388C18.4468 18.7147 15.0313 21 11.0841 21C5.51481 21 1 16.4498 1 10.8368C1 6.15267 4.14325 2.21021 8.41989 1.03225C8.95711 0.884271 9.47935 1.26274 9.5715 1.81631ZM20.1214 9.98924C19.5668 10.0406 19.0823 9.62652 18.9624 9.07838C18.4148 6.57482 16.7209 4.50231 14.4629 3.45116C13.9573 3.2158 13.6594 2.65028 13.8276 2.11518C13.9957 1.58008 14.5653 1.27906 15.0766 1.50148C18.0892 2.81189 20.3423 5.55969 20.9833 8.89019C21.0894 9.44122 20.676 9.93788 20.1214 9.98924Z" fill="#97A3BA"/>
<path fill-rule="evenodd" clip-rule="evenodd" d="M11.0841 6.77146C9.79126 6.77146 8.63911 7.38457 7.90034 8.34004C7.55801 8.78279 6.97195 9.02884 6.4616 8.80411C5.95126 8.57938 5.71181 7.97392 6.01658 7.50412C7.09605 5.84015 8.96165 4.73881 11.0841 4.73881C14.4257 4.73881 17.1346 7.46895 17.1346 10.8368C17.1346 12.9759 16.0418 14.8561 14.3908 15.9441C13.9247 16.2512 13.3239 16.0099 13.1009 15.4955C12.878 14.9812 13.1221 14.3905 13.5614 14.0455C14.5094 13.301 15.1178 12.1398 15.1178 10.8368C15.1178 8.59156 13.3118 6.77146 11.0841 6.77146ZM6.04206 10.8368C6.59899 10.8368 7.03753 11.2988 7.17493 11.8428C7.53788 13.2797 8.66023 14.4108 10.0859 14.7766C10.6256 14.9151 11.0841 15.3571 11.0841 15.9184C11.0841 16.4797 10.6292 16.9436 10.0799 16.8511C7.54288 16.424 5.54038 14.4058 5.1166 11.8488C5.02484 11.2952 5.48513 10.8368 6.04206 10.8368Z" fill="#97A3BA"/>
</svg>
