<svg width="22" height="22" viewBox="0 0 22 22" fill="none" xmlns="http://www.w3.org/2000/svg">
<path d="M18 3C18 2.73478 17.8946 2.48043 17.7071 2.29289C17.5196 2.10536 17.2652 2 17 2L5 2C4.73478 2 4.48043 2.10536 4.29289 2.2929C4.10536 2.48043 4 2.73479 4 3C4 3.26522 4.10536 3.51957 4.29289 3.70711C4.48043 3.89465 4.73478 4 5 4L17 4C17.2652 4 17.5196 3.89464 17.7071 3.70711C17.8946 3.51957 18 3.26522 18 3Z" fill="#97A3BA"/>
<path d="M20 7C20 6.73479 19.8946 6.48043 19.7071 6.2929C19.5196 6.10536 19.2652 6 19 6L13 6C12.7348 6 12.4804 6.10536 12.2929 6.29289C12.1054 6.48043 12 6.73478 12 7C12 7.26522 12.1054 7.51957 12.2929 7.70711C12.4804 7.89464 12.7348 8 13 8L19 8C19.2652 8 19.5196 7.89465 19.7071 7.70711C19.8946 7.51957 20 7.26522 20 7Z" fill="#97A3BA"/>
<path d="M4 15C4 14.7348 4.10536 14.4804 4.29289 14.2929C4.48043 14.1054 4.73478 14 5 14L13 14C13.2653 14 13.5196 14.1054 13.7072 14.2929C13.8947 14.4804 14 14.7348 14 15C14 15.2652 13.8947 15.5196 13.7072 15.7071C13.5196 15.8946 13.2653 16 13 16L5 16C4.73478 16 4.48043 15.8946 4.29289 15.7071C4.10536 15.5196 4 15.2652 4 15Z" fill="#97A3BA"/>
<path d="M13.7071 10.2929C13.8946 10.4804 14 10.7348 14 11C14 11.2652 13.8946 11.5196 13.7071 11.7071C13.5196 11.8946 13.2652 12 13 12L9 12C8.73478 12 8.48043 11.8946 8.29289 11.7071C8.10536 11.5196 8 11.2652 8 11C8 10.7348 8.10536 10.4804 8.29289 10.2929C8.48043 10.1054 8.73478 10 9 10L13 10C13.2652 10 13.5196 10.1054 13.7071 10.2929Z" fill="#97A3BA"/>
<path d="M3 18C2.44772 18 2 18.4477 2 19C2 19.5523 2.44772 20 3 20H19C19.5523 20 20 19.5523 20 19C20 18.4477 19.5523 18 19 18L3 18Z" fill="#97A3BA"/>
</svg>
