<svg width="22" height="22" viewBox="0 0 22 22" fill="none" xmlns="http://www.w3.org/2000/svg">
<path fill-rule="evenodd" clip-rule="evenodd" d="M1 11C1 5.47715 5.47715 1 11 1C16.5228 1 21 5.47715 21 11C21 16.5228 16.5228 21 11 21C5.47715 21 1 16.5228 1 11ZM10 3.06189C6.05369 3.55399 3 6.92038 3 11C3 12.8488 3.62711 14.551 4.68021 15.9057L6.82846 13.7575C6.3049 12.967 6 12.0191 6 11C6 8.58104 7.71776 6.56329 10 6.10002V3.06189ZM8.2427 15.1717L6.09444 17.3199C7.44911 18.3729 9.15133 19 11 19C15.0796 19 18.446 15.9463 18.9381 12H15.9C15.4367 14.2822 13.419 16 11 16C9.98096 16 9.03312 15.6951 8.2427 15.1717ZM12 3.06189C15.6187 3.51314 18.4869 6.38128 18.9381 10H15.9C15.5023 8.04087 13.9591 6.4977 12 6.10002V3.06189ZM11 8C9.34315 8 8 9.34315 8 11C8 12.6569 9.34315 14 11 14C12.6569 14 14 12.6569 14 11C14 9.34315 12.6569 8 11 8Z" fill="#97A3BA"/>
</svg>
