<svg width="22" height="22" viewBox="0 0 22 22" fill="none" xmlns="http://www.w3.org/2000/svg">
<path fill-rule="evenodd" clip-rule="evenodd" d="M9.78327 1.39179C10.5083 0.869402 11.4906 0.869402 12.2157 1.39179L21.1483 7.8274C21.8772 8.35253 22.1787 9.28483 21.8937 10.1318L18.7081 19.5993C18.4266 20.4358 17.6364 21 16.7464 21H5.26232C4.37289 21 3.5831 20.4366 3.30116 19.6009L0.10678 10.1326C-0.179096 9.2853 0.122357 8.35214 0.851723 7.82666L9.78327 1.39179ZM18.7142 8.60662L11.9998 3.76915V10.656L18.7142 8.60662ZM9.99982 3.76867L3.50531 8.44774L9.99982 10.6126V3.76867ZM2.29355 10.152L5.03702 18.2837L9.36736 12.5099L2.29355 10.152ZM7.03616 18.9516H14.9635L10.9998 13.6667L7.03616 18.9516ZM16.9685 18.2915L19.6163 10.4224L12.6594 12.5461L16.9685 18.2915Z" fill="#97A3BA"/>
</svg>
