<svg width="22" height="22" viewBox="0 0 22 22" fill="none" xmlns="http://www.w3.org/2000/svg">
<path fill-rule="evenodd" clip-rule="evenodd" d="M12 6.5C12 9.53757 9.53757 12 6.5 12C3.46243 12 1 9.53757 1 6.5C1 3.46243 3.46243 1 6.5 1C9.53757 1 12 3.46243 12 6.5ZM10 6.5C10 8.433 8.433 10 6.5 10C4.567 10 3 8.433 3 6.5C3 4.567 4.567 3 6.5 3C8.433 3 10 4.567 10 6.5Z" fill="#97A3BA"/>
<path fill-rule="evenodd" clip-rule="evenodd" d="M20 17C20 19.2091 18.2091 21 16 21C13.7909 21 12 19.2091 12 17C12 14.7909 13.7909 13 16 13C18.2091 13 20 14.7909 20 17ZM18 17C18 18.1046 17.1046 19 16 19C14.8954 19 14 18.1046 14 17C14 15.8954 14.8954 15 16 15C17.1046 15 18 15.8954 18 17Z" fill="#97A3BA"/>
<path fill-rule="evenodd" clip-rule="evenodd" d="M16 12C17.6569 12 19 10.6569 19 9C19 7.34315 17.6569 6 16 6C14.3431 6 13 7.34315 13 9C13 10.6569 14.3431 12 16 12ZM16 10C16.5523 10 17 9.55228 17 9C17 8.44772 16.5523 8 16 8C15.4477 8 15 8.44772 15 9C15 9.55228 15.4477 10 16 10Z" fill="#97A3BA"/>
<path d="M20 6C20.5523 6 21 5.55228 21 5C21 4.44772 20.5523 4 20 4C19.4477 4 19 4.44772 19 5C19 5.55228 19.4477 6 20 6Z" fill="#97A3BA"/>
</svg>
