<svg width="24" height="24" viewBox="0 0 24 24" fill="none" xmlns="http://www.w3.org/2000/svg">
<path fill-rule="evenodd" clip-rule="evenodd" d="M4 3C4.55228 3 5 3.44772 5 4V5.51938L9.08178 8.7848L12.9429 6.46813C13.6056 6.07048 14.4382 6.09029 15.0813 6.51902L20.1094 9.87112C20.6658 10.2421 21 10.8665 21 11.5352V16.9864C21.0002 16.9961 21.0002 17.0058 21 17.0156V20C21 20.5523 20.5523 21 20 21L19.9914 21H5C3.89543 21 3 20.1046 3 19V4C3 3.44772 3.44772 3 4 3ZM19 17.5352L13.9719 14.1831L10.1108 16.4998C9.39392 16.9299 8.48518 16.8688 7.83239 16.3465L5 14.0806V19H19V17.5352ZM5 11.5194L9.08178 14.7848L12.9429 12.4681C13.6056 12.0705 14.4382 12.0903 15.0813 12.519L19 15.1315V11.5352L13.9719 8.18312L10.1108 10.4998C9.39392 10.9299 8.48518 10.8688 7.83239 10.3465L5 8.08063V11.5194Z" fill="#777B92"/>
</svg>
