<svg width="22" height="22" viewBox="0 0 22 22" fill="none" xmlns="http://www.w3.org/2000/svg">
<path fill-rule="evenodd" clip-rule="evenodd" d="M3.6247 3.22101C2.96993 2.6972 2 3.16337 2 4.00188V18.0019C2 18.5542 2.44772 19.0019 3 19.0019H19C19.5523 19.0019 20 18.5542 20 18.0019V9.00188C20 8.66752 19.8329 8.35529 19.5547 8.16983L13.5547 4.16983C13.2332 3.95546 12.8169 3.94556 12.4855 4.14438L8.08174 6.78664L3.6247 3.22101ZM4 9.52129V6.0825L7.91826 9.21711L12.9718 6.18496L18 9.53706V13.1334L13.5549 10.17C13.2333 9.95565 12.8171 9.94574 12.4857 10.1446L8.08192 12.7868L4 9.52129ZM4 12.0825L7.91844 15.2173L12.972 12.1851L18 15.5371V17.0019H4V12.0825Z" fill="#97A3BA"/>
</svg>
