<svg width="24" height="24" viewBox="0 0 24 24" fill="none" xmlns="http://www.w3.org/2000/svg">
<path fill-rule="evenodd" clip-rule="evenodd" d="M19 3C19.5523 3 20 3.44772 20 4V6C20 6.55228 19.5523 7 19 7C18.4477 7 18 6.55228 18 6V4C18 3.44772 18.4477 3 19 3Z" fill="#777B92"/>
<path fill-rule="evenodd" clip-rule="evenodd" d="M12 9C12.5523 9 13 9.44772 13 10V13C13 13.5523 12.5523 14 12 14C11.4477 14 11 13.5523 11 13V10C11 9.44772 11.4477 9 12 9Z" fill="#777B92"/>
<path fill-rule="evenodd" clip-rule="evenodd" d="M12 15C12.5523 15 13 15.4477 13 16V20C13 20.5523 12.5523 21 12 21C11.4477 21 11 20.5523 11 20V16C11 15.4477 11.4477 15 12 15Z" fill="#777B92"/>
<path fill-rule="evenodd" clip-rule="evenodd" d="M6 18L6 20C6 20.5523 5.55228 21 5 21C4.44772 21 4 20.5523 4 20V18C4 17.4477 4.44772 17 5 17C5.55228 17 6 17.4477 6 18Z" fill="#777B92"/>
<path fill-rule="evenodd" clip-rule="evenodd" d="M19 17C19.5523 17 20 17.4477 20 18V20C20 20.5523 19.5523 21 19 21C18.4477 21 18 20.5523 18 20V18C18 17.4477 18.4477 17 19 17Z" fill="#777B92"/>
<path fill-rule="evenodd" clip-rule="evenodd" d="M20 10V14C20 14.5523 19.5523 15 19 15C18.4477 15 18 14.5523 18 14V10C18 9.44772 18.4477 9 19 9C19.5523 9 20 9.44772 20 10Z" fill="#777B92"/>
<path fill-rule="evenodd" clip-rule="evenodd" d="M5 15C4.44772 15 4 14.5523 4 14C4 13.4477 4.44772 13 5 13C5.55228 13 6 13.4477 6 14C6 14.5523 5.55228 15 5 15Z" fill="#777B92"/>
</svg>
