<svg width="24" height="24" viewBox="0 0 24 24" fill="none" xmlns="http://www.w3.org/2000/svg">
<path fill-rule="evenodd" clip-rule="evenodd" d="M12.7857 2.38136C12.9111 2.43492 13.0322 2.50188 13.147 2.58224L21.945 8.74085C22.0714 8.8293 22.1849 8.93034 22.2849 9.04131C22.5968 9.1343 22.8573 9.37757 22.9578 9.71265C23.0554 10.0379 22.9795 10.374 22.7836 10.6215C22.7654 10.7698 22.7304 10.9178 22.6777 11.0628L19.1792 20.6835C19.1313 20.8153 19.0705 20.9398 18.9985 21.0557C18.9825 21.3401 18.8457 21.6157 18.6 21.8C18.3356 21.9983 18.005 22.0459 17.711 21.9574C17.5776 21.9854 17.4399 22 17.2997 22H6.70052C6.56029 22 6.42257 21.9854 6.28907 21.9574C5.99512 22.0459 5.66444 21.9983 5.40002 21.8C5.15425 21.6157 5.01748 21.3399 5.00154 21.0555C4.92961 20.9396 4.86883 20.8153 4.82093 20.6835L1.32248 11.0628C1.26977 10.9178 1.23476 10.7699 1.21664 10.6217C1.02057 10.3742 0.944581 10.038 1.04219 9.71265C1.14274 9.3775 1.40335 9.1342 1.71538 9.04125C1.81527 8.9303 1.92881 8.82929 2.05515 8.74085L10.8532 2.58224C10.9679 2.50193 11.0889 2.435 11.2142 2.38145C11.3973 2.14914 11.6813 2 12 2C12.3187 2 12.6026 2.1491 12.7857 2.38136ZM11 4.92075L4.2648 9.6354L11 11.656V4.92075ZM3.62057 11.5302L6.30851 18.922L10.3404 13.5461L3.62057 11.5302ZM7.99998 20H16.0001L12 14.6667L7.99998 20ZM17.6916 18.9221L20.3796 11.5301L13.6596 13.5461L17.6916 18.9221ZM19.7353 9.63537L13 4.92065V11.656L19.7353 9.63537Z" fill="#777B92"/>
</svg>
