<svg width="24" height="24" viewBox="0 0 24 24" fill="none" xmlns="http://www.w3.org/2000/svg">
<path fill-rule="evenodd" clip-rule="evenodd" d="M12 7C12 4.23858 14.2386 2 17 2C19.7614 2 22 4.23858 22 7C22 9.76142 19.7614 12 17 12C14.2386 12 12 9.76142 12 7ZM17 4C15.3431 4 14 5.34315 14 7C14 8.65685 15.3431 10 17 10C18.6569 10 20 8.65685 20 7C20 5.34315 18.6569 4 17 4Z" fill="#777B92"/>
<path fill-rule="evenodd" clip-rule="evenodd" d="M2 12C2 9.79086 3.79086 8 6 8C8.20914 8 10 9.79086 10 12C10 14.2091 8.20914 16 6 16C3.79086 16 2 14.2091 2 12ZM6 10C4.89543 10 4 10.8954 4 12C4 13.1046 4.89543 14 6 14C7.10457 14 8 13.1046 8 12C8 10.8954 7.10457 10 6 10Z" fill="#777B92"/>
<path fill-rule="evenodd" clip-rule="evenodd" d="M13 16C14.6569 16 16 17.3431 16 19C16 20.6569 14.6569 22 13 22C11.3431 22 10 20.6569 10 19C10 17.3431 11.3431 16 13 16ZM12 19C12 19.5523 12.4477 20 13 20C13.5523 20 14 19.5523 14 19C14 18.4477 13.5523 18 13 18C12.4477 18 12 18.4477 12 19Z" fill="#777B92"/>
</svg>
