<svg width="22" height="22" viewBox="0 0 22 22" fill="none" xmlns="http://www.w3.org/2000/svg">
<path d="M11 2C10.7348 2 10.4804 2.10536 10.2929 2.29289C10.1054 2.48043 10 2.73478 10 3V5C10 5.26522 10.1054 5.51957 10.2929 5.70711C10.4804 5.89464 10.7348 6 11 6C11.2652 6 11.5196 5.89464 11.7071 5.70711C11.8946 5.51957 12 5.26522 12 5V3C12 2.73478 11.8946 2.48043 11.7071 2.29289C11.5196 2.10536 11.2652 2 11 2Z" fill="#97A3BA"/>
<path d="M10.2929 8.29289C10.4804 8.10536 10.7348 8 11 8C11.2652 8 11.5196 8.10536 11.7071 8.29289C11.8946 8.48043 12 8.73478 12 9V13C12 13.2652 11.8946 13.5196 11.7071 13.7071C11.5196 13.8946 11.2652 14 11 14C10.7348 14 10.4804 13.8946 10.2929 13.7071C10.1054 13.5196 10 13.2652 10 13V9C10 8.73478 10.1054 8.48043 10.2929 8.29289Z" fill="#97A3BA"/>
<path d="M10.2929 16.2929C10.4804 16.1054 10.7348 16 11 16C11.2652 16 11.5196 16.1054 11.7071 16.2929C11.8946 16.4804 12 16.7348 12 17V19C12 19.2652 11.8946 19.5196 11.7071 19.7071C11.5196 19.8946 11.2652 20 11 20C10.7348 20 10.4804 19.8946 10.2929 19.7071C10.1054 19.5196 10 19.2652 10 19V17C10 16.7348 10.1054 16.4804 10.2929 16.2929Z" fill="#97A3BA"/>
<path d="M18 4C17.7348 4 17.4804 4.10536 17.2929 4.29289C17.1054 4.48043 17 4.73478 17 5V7C17 7.26522 17.1054 7.51957 17.2929 7.70711C17.4804 7.89465 17.7348 8 18 8C18.2652 8 18.5196 7.89465 18.7071 7.70711C18.8946 7.51957 19 7.26522 19 7V5C19 4.73478 18.8946 4.48043 18.7071 4.29289C18.5196 4.10536 18.2652 4 18 4Z" fill="#97A3BA"/>
<path d="M18 10C17.7348 10 17.4804 10.1054 17.2929 10.2929C17.1054 10.4804 17 10.7348 17 11V19C17 19.2652 17.1054 19.5196 17.2929 19.7071C17.4804 19.8946 17.7348 20 18 20C18.2652 20 18.5196 19.8946 18.7071 19.7071C18.8946 19.5196 19 19.2652 19 19V11C19 10.7348 18.8946 10.4804 18.7071 10.2929C18.5196 10.1054 18.2652 10 18 10Z" fill="#97A3BA"/>
<path d="M3.29289 6.29289C3.48043 6.10536 3.73478 6 4 6C4.26522 6 4.51957 6.10536 4.70711 6.29289C4.89464 6.48043 5 6.73478 5 7L5 9C5 9.26522 4.89465 9.51957 4.70711 9.70711C4.51957 9.89464 4.26522 10 4 10C3.73479 10 3.48043 9.89464 3.2929 9.70711C3.10536 9.51957 3 9.26522 3 9L3 7C3 6.73478 3.10536 6.48043 3.29289 6.29289Z" fill="#97A3BA"/>
<path d="M3.2929 12.2929C3.48043 12.1054 3.73479 12 4 12C4.26522 12 4.51957 12.1054 4.70711 12.2929C4.89465 12.4804 5 12.7348 5 13V19C5 19.2652 4.89465 19.5196 4.70711 19.7071C4.51957 19.8946 4.26522 20 4 20C3.73479 20 3.48043 19.8946 3.2929 19.7071C3.10536 19.5196 3 19.2652 3 19V13C3 12.7348 3.10536 12.4804 3.2929 12.2929Z" fill="#97A3BA"/>
</svg>
