<svg width="24" height="24" viewBox="0 0 24 24" fill="none" xmlns="http://www.w3.org/2000/svg">
<path fill-rule="evenodd" clip-rule="evenodd" d="M11.0363 2.99555C11.1548 3.53496 10.8136 4.06834 10.2742 4.18687C6.68523 4.97553 4 8.17559 4 12.0005C4 12.9372 4.16058 13.8343 4.45488 14.667C4.63891 15.1877 4.36597 15.759 3.84525 15.9431C3.32452 16.1271 2.75321 15.8542 2.56918 15.3334C2.20028 14.2896 2 13.1674 2 12.0005C2 7.21659 5.3582 3.21942 9.84497 2.23348C10.3844 2.11494 10.9178 2.45613 11.0363 2.99555ZM14.0572 3.17934C14.2412 2.65862 14.8125 2.38569 15.3332 2.56974C19.2159 3.94205 22 7.64484 22 12.0005C22 12.5527 21.5523 13.0005 21 13.0005C20.4477 13.0005 20 12.5527 20 12.0005C20 8.51878 17.7753 5.55413 14.6668 4.45542C14.146 4.27137 13.8731 3.70005 14.0572 3.17934ZM20.5096 15.1047C21.0042 15.3505 21.2059 15.9506 20.9601 16.4452C19.3251 19.7357 15.9279 22.0005 12 22.0005C9.61935 22.0005 7.43057 21.1673 5.71327 19.7776C5.28396 19.4301 5.21758 18.8004 5.56501 18.3711C5.91244 17.9418 6.54212 17.8754 6.97143 18.2229C8.34568 19.335 10.0938 20.0005 12 20.0005C15.1397 20.0005 17.8588 18.1919 19.1691 15.5552C19.4148 15.0606 20.015 14.8589 20.5096 15.1047Z" fill="#777B92"/>
</svg>
