<svg width="24" height="24" viewBox="0 0 24 24" fill="none" xmlns="http://www.w3.org/2000/svg">
<path fill-rule="evenodd" clip-rule="evenodd" d="M4 3C4.55228 3 5 3.44772 5 4V19H8V16C8 15.4477 8.44772 15 9 15C9.55228 15 10 15.4477 10 16V19H18V14C18 13.4477 18.4477 13 19 13C19.5523 13 20 13.4477 20 14V19C20.5523 19 21 19.4477 21 20C21 20.5523 20.5523 21 20 21H5C3.89543 21 3 20.1046 3 19V4C3 3.44772 3.44772 3 4 3Z" fill="#777B92"/>
<path fill-rule="evenodd" clip-rule="evenodd" d="M19 7C19.5523 7 20 7.44772 20 8V10C20 10.5523 19.5523 11 19 11C18.4477 11 18 10.5523 18 10V8C18 7.44772 18.4477 7 19 7Z" fill="#777B92"/>
<path fill-rule="evenodd" clip-rule="evenodd" d="M15 6V8C15 8.55228 14.5523 9 14 9C13.4477 9 13 8.55228 13 8V6C13 5.44772 13.4477 5 14 5C14.5523 5 15 5.44772 15 6Z" fill="#777B92"/>
<path fill-rule="evenodd" clip-rule="evenodd" d="M9 9C9.55228 9 10 9.44772 10 10V12C10 12.5523 9.55228 13 9 13C8.44772 13 8 12.5523 8 12V10C8 9.44772 8.44772 9 9 9Z" fill="#777B92"/>
<path fill-rule="evenodd" clip-rule="evenodd" d="M14 11C14.5523 11 15 11.4477 15 12V16C15 16.5523 14.5523 17 14 17C13.4477 17 13 16.5523 13 16V12C13 11.4477 13.4477 11 14 11Z" fill="#777B92"/>
</svg>
