<svg width="22" height="22" viewBox="0 0 22 22" fill="none" xmlns="http://www.w3.org/2000/svg">
<path fill-rule="evenodd" clip-rule="evenodd" d="M10.1913 1.87904C10.2416 2.43364 9.83288 2.91793 9.29227 3.03752C5.69611 3.83305 3.00449 7.05892 3.00449 10.9163C3.00449 11.8931 3.17661 12.8278 3.49165 13.6926C3.68214 14.2154 3.4962 14.8223 3.00449 15.0781C2.51278 15.3338 1.90295 15.1415 1.69936 14.6236C1.24788 13.4752 1 12.224 1 10.9163C1 6.00582 4.48806 1.91598 9.10794 1.01658C9.65138 0.910787 10.1409 1.32445 10.1913 1.87904ZM20.0426 10.9163C19.4891 10.9163 19.047 10.4629 18.9786 9.91026C18.6024 6.86832 16.5425 4.3508 13.7661 3.33374C13.246 3.14321 12.9044 2.60901 13.0269 2.06591C13.1494 1.52281 13.6888 1.17763 14.2136 1.35486C17.8806 2.59336 20.6011 5.90637 20.9955 9.90917C21.0501 10.4634 20.5962 10.9163 20.0426 10.9163ZM11.0224 18.9833C14.2609 18.9833 17.0529 17.051 18.318 14.2681C18.5482 13.7617 19.1048 13.4618 19.6331 13.628C20.1614 13.7942 20.4603 14.3627 20.2428 14.8748C18.7138 18.4753 15.1623 21 11.0224 21C8.53766 21 6.26301 20.0892 4.51227 18.5832C4.09155 18.2213 4.10814 17.5786 4.50786 17.1934C4.90757 16.8081 5.53855 16.8276 5.968 17.1789C7.34773 18.3078 9.10609 18.9833 11.0224 18.9833Z" fill="#97A3BA"/>
</svg>
