<svg width="22" height="22" viewBox="0 0 22 22" fill="none" xmlns="http://www.w3.org/2000/svg">
<path d="M2.29289 2.29289C2.48043 2.10536 2.73478 2 3 2C3.26522 2 3.51957 2.10536 3.70711 2.29289C3.89464 2.48043 4 2.73478 4 3V18L7 18L7 9C7 8.73478 7.10536 8.48043 7.29289 8.29289C7.48043 8.10536 7.73478 8 8 8C8.26522 8 8.51957 8.10536 8.70711 8.29289C8.89464 8.48043 9 8.73478 9 9L9 18H12V5C12 4.73478 12.1054 4.48043 12.2929 4.29289C12.4804 4.10536 12.7348 4 13 4C13.2652 4 13.5196 4.10536 13.7071 4.29289C13.8946 4.48043 14 4.73478 14 5V18H17V7C17 6.73478 17.1054 6.48043 17.2929 6.29289C17.4804 6.10536 17.7348 6 18 6C18.2652 6 18.5196 6.10536 18.7071 6.29289C18.8946 6.48043 19 6.73478 19 7V18C19.5523 18 20 18.4477 20 19C20 19.5523 19.5523 20 19 20H3C2.73152 20 2.48776 19.8942 2.30812 19.722C2.303 19.7171 2.29792 19.7121 2.29289 19.7071C2.28786 19.7021 2.28289 19.697 2.27798 19.6919C2.1058 19.5122 2 19.2685 2 19V3C2 2.73478 2.10536 2.48043 2.29289 2.29289Z" fill="#97A3BA"/>
</svg>
