<svg width="16" height="16" viewBox="0 0 16 16" fill="none" xmlns="http://www.w3.org/2000/svg">
<path fill-rule="evenodd" clip-rule="evenodd" d="M12.3557 0.648632L15.3536 3.64646C15.4473 3.74023 15.5 3.86741 15.5 4.00001V15C15.5 15.2022 15.3782 15.3846 15.1913 15.462C15.0045 15.5393 14.7894 15.4966 14.6464 15.3536L11.9531 12.6602L8.3 15.4C8.12222 15.5333 7.87778 15.5333 7.7 15.4L4.04692 12.6602L1.35355 15.3536C1.21055 15.4966 0.995495 15.5393 0.808658 15.462C0.621821 15.3846 0.5 15.2022 0.5 15V3.00001C0.5 2.83284 0.583551 2.67672 0.72265 2.58399L3.71635 0.58819C3.79694 0.532571 3.89467 0.5 4 0.5C4.08418 0.5 4.16351 0.520804 4.23311 0.557552L8 2.441L11.7669 0.557548C11.8365 0.520803 11.9158 0.5 12 0.5C12.1392 0.5 12.2651 0.556866 12.3557 0.648632ZM3.5 1.93427L1.5 3.26761V13.7929L3.5 11.7929V1.93427ZM4.5 11.75L7.5 14V3.30903L4.5 1.80903V11.75ZM11.5 1.80903L8.5 3.30903V14L11.5 11.75V1.80903ZM12.5 11.7929L14.5 13.7929V4.20712L12.5 2.20712V11.7929Z" fill="#777B92"/>
</svg>
