<svg width="16" height="16" viewBox="0 0 16 16" fill="none" xmlns="http://www.w3.org/2000/svg">
<path fill-rule="evenodd" clip-rule="evenodd" d="M8 3.5C8.27614 3.5 8.5 3.72386 8.5 4V5.5H10C10.2761 5.5 10.5 5.72386 10.5 6C10.5 6.27614 10.2761 6.5 10 6.5H8.5V8C8.5 8.27614 8.27614 8.5 8 8.5C7.72386 8.5 7.5 8.27614 7.5 8V6.5H6C5.72386 6.5 5.5 6.27614 5.5 6C5.5 5.72386 5.72386 5.5 6 5.5H7.5V4C7.5 3.72386 7.72386 3.5 8 3.5Z" fill="#777B92"/>
<path fill-rule="evenodd" clip-rule="evenodd" d="M7.66528 15.3714L7.66388 15.3702L7.66043 15.3671L7.64823 15.3559C7.63776 15.3464 7.6227 15.3325 7.60334 15.3145C7.56463 15.2785 7.50873 15.2259 7.43809 15.1578C7.29685 15.0216 7.09648 14.8232 6.85668 14.5714C6.37763 14.0684 5.73843 13.3494 5.09822 12.4851C3.83218 10.776 2.5 8.41636 2.5 6C2.5 2.96243 4.96243 0.5 8 0.5C11.0376 0.5 13.5 2.96243 13.5 6C13.5 8.41636 12.1678 10.776 10.9018 12.4851C10.2616 13.3494 9.62237 14.0684 9.14332 14.5714C8.90352 14.8232 8.70315 15.0216 8.56191 15.1578C8.49127 15.2259 8.43537 15.2785 8.39666 15.3145C8.3773 15.3325 8.36224 15.3464 8.35177 15.3559L8.33957 15.3671L8.33612 15.3702L8.33448 15.3716C8.33435 15.3718 8.33448 15.3716 8 15L8.33448 15.3716C8.14433 15.5428 7.85543 15.5426 7.66528 15.3714L8 15C7.66552 15.3716 7.66541 15.3715 7.66528 15.3714ZM3.5 6C3.5 8.08364 4.66782 10.224 5.90178 11.8899C6.51157 12.7131 7.12237 13.4004 7.58082 13.8817C7.74197 14.0509 7.88394 14.1943 8 14.3089C8.11605 14.1943 8.25803 14.0509 8.41918 13.8817C8.87763 13.4004 9.48843 12.7131 10.0982 11.8899C11.3322 10.224 12.5 8.08364 12.5 6C12.5 3.51472 10.4853 1.5 8 1.5C5.51472 1.5 3.5 3.51472 3.5 6Z" fill="#777B92"/>
</svg>
