<svg width="16" height="16" viewBox="0 0 16 16" fill="none" xmlns="http://www.w3.org/2000/svg">
<path d="M10.4744 6.15813L9.47436 9.15813C9.42459 9.30743 9.30743 9.42459 9.15813 9.47436L6.15813 10.4744C5.97846 10.5342 5.78038 10.4875 5.64646 10.3536C5.51254 10.2197 5.46578 10.0216 5.52567 9.8419L6.52567 6.8419C6.57544 6.6926 6.6926 6.57544 6.8419 6.52567L9.8419 5.52567C10.0216 5.46578 10.2197 5.51254 10.3536 5.64646C10.4875 5.78038 10.5342 5.97846 10.4744 6.15813ZM6.79058 9.20944L8.60473 8.60473L9.20944 6.79058L7.3953 7.3953L6.79058 9.20944Z" fill="#777B92"/>
<path d="M8 0.5C12.1421 0.5 15.5 3.85786 15.5 8C15.5 12.1421 12.1421 15.5 8 15.5C3.85786 15.5 0.5 12.1421 0.5 8C0.5 3.85786 3.85786 0.5 8 0.5ZM1.5 8C1.5 11.5899 4.41015 14.5 8 14.5C11.5899 14.5 14.5 11.5899 14.5 8C14.5 4.41015 11.5899 1.5 8 1.5C4.41015 1.5 1.5 4.41015 1.5 8Z" fill="#777B92"/>
</svg>
