<svg width="16" height="16" viewBox="0 0 16 16" fill="none" xmlns="http://www.w3.org/2000/svg">
<path fill-rule="evenodd" clip-rule="evenodd" d="M8 0.5C8.27614 0.5 8.5 0.723858 8.5 1V2.52242C11.1386 2.7602 13.2398 4.86143 13.4776 7.5H15C15.2761 7.5 15.5 7.72386 15.5 8C15.5 8.27614 15.2761 8.5 15 8.5H13.4776C13.2398 11.1386 11.1386 13.2398 8.5 13.4776V15C8.5 15.2761 8.27614 15.5 8 15.5C7.72386 15.5 7.5 15.2761 7.5 15V13.4776C4.86143 13.2398 2.7602 11.1386 2.52242 8.5H1C0.723858 8.5 0.5 8.27614 0.5 8C0.5 7.72386 0.723858 7.5 1 7.5H2.52242C2.7602 4.86143 4.86143 2.7602 7.5 2.52242V1C7.5 0.723858 7.72386 0.5 8 0.5ZM3.5 8C3.5 10.4853 5.51472 12.5 8 12.5C10.4853 12.5 12.5 10.4853 12.5 8C12.5 5.51472 10.4853 3.5 8 3.5C5.51472 3.5 3.5 5.51472 3.5 8Z" fill="#777B92"/>
</svg>
