<svg width="16" height="16" viewBox="0 0 16 16" fill="none" xmlns="http://www.w3.org/2000/svg">
<path fill-rule="evenodd" clip-rule="evenodd" d="M0.5 8C0.5 3.85786 3.85786 0.5 8 0.5C12.1421 0.5 15.5 3.85786 15.5 8C15.5 12.1421 12.1421 15.5 8 15.5C3.85786 15.5 0.5 12.1421 0.5 8ZM9.93024 2.79552C10.6406 3.99539 11.37 5.64504 11.4845 7.5H14.4811C14.2547 4.5239 12.0241 2.10801 9.13603 1.59894C9.37767 1.92543 9.65392 2.32881 9.93024 2.79552ZM10.4823 7.5C10.369 5.88701 9.72863 4.41782 9.06976 3.30499C8.70862 2.69503 8.34734 2.20127 8.07717 1.86101C8.05051 1.82743 8.02476 1.79537 8 1.76487C7.97524 1.79537 7.94949 1.82743 7.92283 1.86101C7.65266 2.20127 7.29138 2.69503 6.93025 3.30499C6.27137 4.41782 5.631 5.88701 5.51769 7.5H10.4823ZM5.51769 8.5C5.631 10.113 6.27137 11.5822 6.93025 12.695C7.29138 13.305 7.65266 13.7987 7.92283 14.139C7.94949 14.1726 7.97524 14.2046 8 14.2351C8.02476 14.2046 8.05051 14.1726 8.07717 14.139C8.34734 13.7987 8.70862 13.305 9.06976 12.695C9.72863 11.5822 10.369 10.113 10.4823 8.5H5.51769ZM4.51551 7.5C4.62998 5.64504 5.35935 3.99539 6.06975 2.79552C6.34608 2.32881 6.62233 1.92543 6.86397 1.59894C3.97589 2.10801 1.74534 4.5239 1.51894 7.5H4.51551ZM1.51894 8.5C1.74534 11.4761 3.97589 13.892 6.86397 14.4011C6.62233 14.0746 6.34608 13.6712 6.06975 13.2045C5.35935 12.0046 4.62998 10.355 4.51551 8.5H1.51894ZM14.4811 8.5H11.4845C11.37 10.355 10.6406 12.0046 9.93024 13.2045C9.65392 13.6712 9.37767 14.0746 9.13603 14.4011C12.0241 13.892 14.2547 11.4761 14.4811 8.5Z" fill="#777B92"/>
</svg>
