<svg width="16" height="16" viewBox="0 0 16 16" fill="none" xmlns="http://www.w3.org/2000/svg">
<path fill-rule="evenodd" clip-rule="evenodd" d="M5.30029 2.39942C5.07949 2.56526 4.76606 2.52072 4.60022 2.29992C4.43437 2.07913 4.47892 1.7657 4.69971 1.59985C5.61898 0.909357 6.76241 0.5 8 0.5C11.0376 0.5 13.5 2.96243 13.5 6C13.5 7.09974 13.2242 8.18259 12.8116 9.18958C12.7069 9.4451 12.4149 9.56737 12.1593 9.46267C11.9038 9.35797 11.7815 9.06595 11.8862 8.81042C12.2647 7.88674 12.5 6.93492 12.5 6C12.5 3.51472 10.4853 1.5 8 1.5C6.98638 1.5 6.05234 1.83453 5.30029 2.39942Z" fill="#777B92"/>
<path fill-rule="evenodd" clip-rule="evenodd" d="M3.5 6C3.5 8.08364 4.66782 10.224 5.90178 11.8899C6.51157 12.7131 7.12237 13.4004 7.58082 13.8817C7.74197 14.0509 7.88394 14.1943 8 14.3089C8.05974 14.2499 8.12635 14.1833 8.19892 14.1095C8.53136 13.7711 8.98744 13.2823 9.47931 12.6828C9.65448 12.4694 9.96953 12.4383 10.183 12.6135C10.3965 12.7886 10.4275 13.1037 10.2524 13.3172C9.73794 13.9441 9.26109 14.4553 8.91219 14.8103C8.73762 14.988 8.59475 15.1269 8.49479 15.2221C8.4448 15.2697 8.40552 15.3064 8.37834 15.3315L8.34682 15.3605L8.33819 15.3683L8.33494 15.3712C8.14479 15.5424 7.85543 15.5426 7.66528 15.3714L7.66388 15.3702L7.66043 15.3671L7.64823 15.3559C7.63776 15.3464 7.6227 15.3325 7.60334 15.3145C7.56463 15.2785 7.50873 15.2259 7.43809 15.1578C7.29685 15.0216 7.09648 14.8232 6.85668 14.5714C6.37763 14.0684 5.73843 13.3494 5.09822 12.4851C3.83218 10.776 2.5 8.41636 2.5 6C2.5 5.72386 2.72386 5.5 3 5.5C3.27614 5.5 3.5 5.72386 3.5 6ZM8 15C7.66552 15.3716 7.66528 15.3714 7.66528 15.3714L8 15ZM8.33494 15.3712C8.33494 15.3712 8.33448 15.3716 8 15L8.33494 15.3712Z" fill="#777B92"/>
<path fill-rule="evenodd" clip-rule="evenodd" d="M0.646447 0.646447C0.841709 0.451184 1.15829 0.451184 1.35355 0.646447L15.3536 14.6464C15.5488 14.8417 15.5488 15.1583 15.3536 15.3536C15.1583 15.5488 14.8417 15.5488 14.6464 15.3536L0.646447 1.35355C0.451184 1.15829 0.451184 0.841709 0.646447 0.646447Z" fill="#777B92"/>
<path fill-rule="evenodd" clip-rule="evenodd" d="M7.5 4C7.5 3.72386 7.72386 3.5 8 3.5C9.38071 3.5 10.5 4.61929 10.5 6C10.5 6.27614 10.2761 6.5 10 6.5C9.72386 6.5 9.5 6.27614 9.5 6C9.5 5.17157 8.82843 4.5 8 4.5C7.72386 4.5 7.5 4.27614 7.5 4Z" fill="#777B92"/>
</svg>
