<svg width="16" height="16" viewBox="0 0 16 16" fill="none" xmlns="http://www.w3.org/2000/svg">
<path fill-rule="evenodd" clip-rule="evenodd" d="M10.2591 9.87829C10.3706 9.43401 10.4491 8.9729 10.4823 8.5H5.51769C5.631 10.113 6.27137 11.5822 6.93025 12.695C7.29138 13.305 7.65266 13.7987 7.92283 14.139C7.94949 14.1726 7.97524 14.2046 8 14.2351C8.16209 14.0354 8.36646 13.7696 8.58827 13.4476C8.74494 13.2202 9.05629 13.1629 9.28368 13.3196C9.51108 13.4763 9.56841 13.7876 9.41173 14.015C9.31637 14.1534 9.2239 14.2823 9.13595 14.4012C9.38155 14.3579 9.62229 14.3009 9.85738 14.2309C10.122 14.1521 10.4005 14.3028 10.4792 14.5675C10.558 14.8322 10.4073 15.1106 10.1426 15.1893C9.46312 15.3916 8.74378 15.5 8 15.5C3.85786 15.5 0.5 12.1421 0.5 8C0.5 3.85786 3.85786 0.5 8 0.5C12.1421 0.5 15.5 3.85786 15.5 8C15.5 8.74378 15.3916 9.46312 15.1893 10.1426C15.1106 10.4073 14.8322 10.558 14.5675 10.4792C14.3028 10.4005 14.1521 10.122 14.2309 9.85738C14.3603 9.42258 14.4455 8.96844 14.4811 8.5H11.4845C11.4498 9.06243 11.3586 9.60539 11.229 10.1217C11.1618 10.3895 10.8901 10.5522 10.6223 10.485C10.3545 10.4177 10.1918 10.1461 10.2591 9.87829ZM9.13603 1.59894C9.37767 1.92543 9.65392 2.32881 9.93024 2.79552C10.6406 3.99539 11.37 5.64504 11.4845 7.5H14.4811C14.2547 4.5239 12.0241 2.10801 9.13603 1.59894ZM9.06976 3.30499C8.70862 2.69503 8.34734 2.20127 8.07717 1.86101C8.05051 1.82743 8.02476 1.79537 8 1.76487C7.97524 1.79537 7.94949 1.82743 7.92283 1.86101C7.65266 2.20127 7.29138 2.69503 6.93025 3.30499C6.27137 4.41782 5.631 5.88701 5.51769 7.5H10.4823C10.369 5.88701 9.72863 4.41782 9.06976 3.30499ZM6.06975 2.79552C6.34608 2.32881 6.62233 1.92543 6.86397 1.59894C3.97589 2.10801 1.74534 4.5239 1.51894 7.5H4.51551C4.62998 5.64504 5.35935 3.99539 6.06975 2.79552ZM1.51894 8.5C1.74534 11.4761 3.97589 13.892 6.86397 14.4011C6.62233 14.0746 6.34608 13.6712 6.06975 13.2045C5.35935 12.0046 4.62998 10.355 4.51551 8.5H1.51894Z" fill="#777B92"/>
<path fill-rule="evenodd" clip-rule="evenodd" d="M12.5 15L10 12H15L12.5 15Z" fill="#777B92"/>
</svg>
