<svg width="16" height="16" viewBox="0 0 16 16" fill="none" xmlns="http://www.w3.org/2000/svg">
<path fill-rule="evenodd" clip-rule="evenodd" d="M8 0.5C9.98409 0.5 11.8041 0.843691 13.1467 1.41911C13.8171 1.70643 14.3916 2.06141 14.8058 2.48105C15.222 2.90284 15.5 3.4167 15.5 4C15.5 4.5833 15.222 5.09716 14.8058 5.51895C14.6371 5.68989 14.4418 5.8501 14.2242 5.99938C14.5073 6.16797 14.7424 6.35534 14.9313 6.56178C15.3313 6.99875 15.5 7.49545 15.5 7.99998C15.5 8.27612 15.2761 8.49998 15 8.49998C14.7239 8.49998 14.5 8.27612 14.5 7.99998C14.5 7.73615 14.4187 7.48284 14.1937 7.23691C13.9938 7.01858 13.6654 6.79022 13.1416 6.58309C11.7994 7.15718 9.98157 7.5 8 7.5C6.01843 7.5 4.20056 7.15718 2.85842 6.58309C2.33463 6.79022 2.00617 7.01858 1.80635 7.23691C1.58127 7.48284 1.5 7.73615 1.5 7.99998C1.5 8.24511 1.6138 8.52045 1.90597 8.81649C2.20026 9.11469 2.65089 9.40616 3.24721 9.66172C4.43808 10.1721 6.1181 10.5 8 10.5C8.27614 10.5 8.5 10.7238 8.5 11C8.5 11.2761 8.27614 11.5 8 11.5C6.01845 11.5 4.20059 11.1572 2.85845 10.5831C2.33464 10.7902 2.00617 11.0186 1.80635 11.2369C1.58127 11.4828 1.5 11.7362 1.5 12C1.5 12.2451 1.6138 12.5205 1.90597 12.8165C2.20026 13.1147 2.65089 13.4062 3.24721 13.6617C4.43808 14.1721 6.1181 14.5 8 14.5C8.27614 14.5 8.5 14.7238 8.5 15C8.5 15.2761 8.27614 15.5 8 15.5C6.01591 15.5 4.19593 15.1563 2.85329 14.5809C2.18286 14.2935 1.60837 13.9386 1.19422 13.5189C0.777951 13.0971 0.5 12.5833 0.5 12C0.5 11.4954 0.668731 10.9988 1.06865 10.5618C1.25758 10.3553 1.4927 10.168 1.77582 9.99937C1.55825 9.85009 1.36293 9.68988 1.19422 9.51893C0.777951 9.09714 0.5 8.58327 0.5 7.99998C0.5 7.49545 0.668731 6.99875 1.06865 6.56178C1.25758 6.35534 1.49269 6.16797 1.7758 5.99938C1.55824 5.8501 1.36293 5.68989 1.19422 5.51895C0.777951 5.09716 0.5 4.5833 0.5 4C0.5 3.4167 0.777951 2.90284 1.19422 2.48105C1.60837 2.06141 2.18286 1.70643 2.85329 1.41911C4.19593 0.843691 6.01591 0.5 8 0.5ZM1.5 4C1.5 4.24513 1.6138 4.52048 1.90597 4.81652C2.20026 5.11471 2.65089 5.40618 3.24721 5.66175C4.43808 6.17212 6.1181 6.5 8 6.5C9.8819 6.5 11.5619 6.17212 12.7528 5.66175C13.3491 5.40618 13.7997 5.11471 14.094 4.81652C14.3862 4.52048 14.5 4.24513 14.5 4C14.5 3.75487 14.3862 3.47952 14.094 3.18348C13.7997 2.88529 13.3491 2.59382 12.7528 2.33825C11.5619 1.82788 9.8819 1.5 8 1.5C6.1181 1.5 4.43808 1.82788 3.24721 2.33825C2.65089 2.59382 2.20026 2.88529 1.90597 3.18348C1.6138 3.47952 1.5 3.75487 1.5 4Z" fill="#777B92"/>
<path fill-rule="evenodd" clip-rule="evenodd" d="M12 9.5C12.2761 9.5 12.5 9.72386 12.5 10V11.5H14C14.2761 11.5 14.5 11.7239 14.5 12C14.5 12.2761 14.2761 12.5 14 12.5H12.5V14C12.5 14.2761 12.2761 14.5 12 14.5C11.7239 14.5 11.5 14.2761 11.5 14V12.5H10C9.72386 12.5 9.5 12.2761 9.5 12C9.5 11.7239 9.72386 11.5 10 11.5H11.5V10C11.5 9.72386 11.7239 9.5 12 9.5Z" fill="#777B92"/>
</svg>
