<svg width="16" height="16" viewBox="0 0 16 16" fill="none" xmlns="http://www.w3.org/2000/svg">
<path fill-rule="evenodd" clip-rule="evenodd" d="M3 9C2.44772 9 2 8.55228 2 8C2 7.44772 2.44772 7 3 7C3.55228 7 4 7.44772 4 8C4 8.55228 3.55228 9 3 9Z" fill="#777B92"/>
<path fill-rule="evenodd" clip-rule="evenodd" d="M4 4C4 4.55228 3.55228 5 3 5C2.44772 5 2 4.55228 2 4C2 3.44772 2.44772 3 3 3C3.55228 3 4 3.44772 4 4Z" fill="#777B92"/>
<path fill-rule="evenodd" clip-rule="evenodd" d="M2 0.5H14C14.8284 0.5 15.5 1.17157 15.5 2V5C15.5 5.38418 15.3556 5.73462 15.1181 6C15.3556 6.26538 15.5 6.61582 15.5 7V9C15.5 9.82843 14.8284 10.5 14 10.5H13.9983C14.3154 10.7856 14.5076 11.2086 14.4492 11.6772C14.3432 12.527 13.9894 14.19 12.7242 15.1374C12.2946 15.4591 11.704 15.4591 11.2744 15.1374C10.0092 14.19 9.65539 12.527 9.54948 11.6772C9.49108 11.2086 9.68284 10.7856 10 10.5H2C1.72386 10.5 1.5 10.7239 1.5 11V14C1.5 14.2761 1.72386 14.5 2 14.5H9.5C9.77614 14.5 10 14.7239 10 15C10 15.2761 9.77614 15.5 9.5 15.5H2C1.17157 15.5 0.5 14.8284 0.5 14V11C0.5 10.6158 0.644429 10.2654 0.881951 10C0.644429 9.73463 0.5 9.38418 0.5 9V7C0.5 6.61582 0.644427 6.26538 0.881947 6C0.644427 5.73462 0.5 5.38418 0.5 5V2C0.5 1.17157 1.17157 0.5 2 0.5ZM14 9.5C14.2761 9.5 14.5 9.27614 14.5 9V7C14.5 6.72386 14.2761 6.5 14 6.5H2C1.72386 6.5 1.5 6.72386 1.5 7V9C1.5 9.27614 1.72386 9.5 2 9.5H14ZM14 5.5C14.2761 5.5 14.5 5.27614 14.5 5V2C14.5 1.72386 14.2761 1.5 14 1.5H2C1.72386 1.5 1.5 1.72386 1.5 2V5C1.5 5.27614 1.72386 5.5 2 5.5H14ZM12.2229 10.6707C12.0822 10.6003 11.9165 10.6003 11.7757 10.6707L10.7757 11.1707C10.5998 11.2586 10.5247 11.4161 10.5418 11.5536C10.6434 12.3686 10.9617 13.654 11.8738 14.337C11.9481 14.3926 12.0505 14.3926 12.1248 14.337C13.0369 13.654 13.3553 12.3686 13.4568 11.5536C13.474 11.4161 13.3988 11.2586 13.2229 11.1707L12.2229 10.6707Z" fill="#777B92"/>
<path fill-rule="evenodd" clip-rule="evenodd" d="M4 12C4 12.5523 3.55228 13 3 13C2.44772 13 2 12.5523 2 12C2 11.4477 2.44772 11 3 11C3.55228 11 4 11.4477 4 12Z" fill="#777B92"/>
</svg>
