<svg width="16" height="16" viewBox="0 0 16 16" fill="none" xmlns="http://www.w3.org/2000/svg">
<path fill-rule="evenodd" clip-rule="evenodd" d="M0.646447 0.646447C0.841709 0.451184 1.15829 0.451184 1.35355 0.646447L15.3536 14.6464C15.5488 14.8417 15.5488 15.1583 15.3536 15.3536C15.1583 15.5488 14.8417 15.5488 14.6464 15.3536L5.78573 6.49284L2.2693 7.99988L8.19696 10.5403C8.45077 10.6491 8.56835 10.943 8.45957 11.1968C8.35079 11.4507 8.05686 11.5682 7.80304 11.4595L5.66667 10.5439L2.2693 11.9999L8 14.4559L10.803 13.2546C11.0569 13.1458 11.3508 13.2634 11.4596 13.5172C11.5684 13.771 11.4508 14.065 11.197 14.1737L8.19696 15.4595C8.07119 15.5134 7.92881 15.5134 7.80304 15.4595L0.80304 12.4595C0.619198 12.3807 0.5 12.1999 0.5 11.9999C0.5 11.7999 0.619198 11.6191 0.80304 11.5403L4.39737 9.99988L0.80304 8.45946C0.619198 8.38067 0.5 8.1999 0.5 7.99988C0.5 7.79987 0.619198 7.6191 0.80304 7.54031L5.02416 5.73126L0.646447 1.35355C0.451184 1.15829 0.451184 0.841709 0.646447 0.646447Z" fill="#777B92"/>
<path fill-rule="evenodd" clip-rule="evenodd" d="M7.80317 0.540428C7.92894 0.486524 8.07131 0.486524 8.19709 0.540428L15.1971 3.54043C15.3809 3.61922 15.5001 3.79999 15.5001 4C15.5001 4.20001 15.3809 4.38078 15.1971 4.45957L11.6028 5.99997L15.197 7.54031C15.3808 7.6191 15.5 7.79987 15.5 7.99988C15.5 8.1999 15.3808 8.38067 15.197 8.45946L12.197 9.74517C11.9431 9.85395 11.6492 9.73637 11.5404 9.48256C11.4316 9.22874 11.5492 8.9348 11.803 8.82603L13.7307 7.99988L10.3335 6.54395L10.1971 6.60243C9.94327 6.71121 9.64933 6.59363 9.54056 6.33982C9.43178 6.086 9.54935 5.79206 9.80317 5.68328L10.1248 5.54545C10.1324 5.54195 10.1401 5.53863 10.148 5.53552L13.7308 4L8.00013 1.54398L5.19709 2.74529C4.94327 2.85406 4.64933 2.73649 4.54056 2.48267C4.43178 2.22886 4.54935 1.93492 4.80317 1.82614L7.80317 0.540428Z" fill="#777B92"/>
<path fill-rule="evenodd" clip-rule="evenodd" d="M0.540556 3.80304C0.649334 3.54923 0.943273 3.43165 1.19709 3.54043L3.19709 4.39757C3.4509 4.50635 3.56848 4.80029 3.4597 5.0541C3.35092 5.30792 3.05698 5.42549 2.80317 5.31672L0.803169 4.45957C0.549354 4.35079 0.431778 4.05686 0.540556 3.80304Z" fill="#777B92"/>
<path fill-rule="evenodd" clip-rule="evenodd" d="M13.1971 10.6834L15.1971 11.5405C15.4509 11.6493 15.5685 11.9432 15.4597 12.1971C15.3509 12.4509 15.057 12.5684 14.8032 12.4597L12.8032 11.6025C12.5494 11.4937 12.4318 11.1998 12.5406 10.946C12.6493 10.6922 12.9433 10.5746 13.1971 10.6834Z" fill="#777B92"/>
</svg>
