<svg width="16" height="16" viewBox="0 0 16 16" fill="none" xmlns="http://www.w3.org/2000/svg">
<path fill-rule="evenodd" clip-rule="evenodd" d="M0.5 2C0.5 1.17157 1.17157 0.5 2 0.5H7C7.82843 0.5 8.5 1.17157 8.5 2V5C8.5 5.82843 7.82843 6.5 7 6.5H2C1.17157 6.5 0.5 5.82843 0.5 5V2ZM2 1.5C1.72386 1.5 1.5 1.72386 1.5 2V5C1.5 5.27614 1.72386 5.5 2 5.5H7C7.27614 5.5 7.5 5.27614 7.5 5V2C7.5 1.72386 7.27614 1.5 7 1.5H2Z" fill="#777B92"/>
<path fill-rule="evenodd" clip-rule="evenodd" d="M7.5 11C7.5 10.1716 8.17157 9.5 9 9.5H14C14.8284 9.5 15.5 10.1716 15.5 11V14C15.5 14.8284 14.8284 15.5 14 15.5H9C8.17157 15.5 7.5 14.8284 7.5 14V11ZM9 10.5C8.72386 10.5 8.5 10.7239 8.5 11V14C8.5 14.2761 8.72386 14.5 9 14.5H14C14.2761 14.5 14.5 14.2761 14.5 14V11C14.5 10.7239 14.2761 10.5 14 10.5H9Z" fill="#777B92"/>
<path fill-rule="evenodd" clip-rule="evenodd" d="M2 10C1.44772 10 1 9.55228 1 9C1 8.44772 1.44772 8 2 8C2.55228 8 3 8.44772 3 9C3 9.55228 2.55228 10 2 10Z" fill="#777B92"/>
<path fill-rule="evenodd" clip-rule="evenodd" d="M3 12C3 12.5523 2.55228 13 2 13C1.44772 13 1 12.5523 1 12C1 11.4477 1.44772 11 2 11C2.55228 11 3 11.4477 3 12Z" fill="#777B92"/>
<path fill-rule="evenodd" clip-rule="evenodd" d="M5 13C4.44772 13 4 12.5523 4 12C4 11.4477 4.44772 11 5 11C5.55228 11 6 11.4477 6 12C6 12.5523 5.55228 13 5 13Z" fill="#777B92"/>
</svg>
