<svg width="16" height="16" viewBox="0 0 16 16" fill="none" xmlns="http://www.w3.org/2000/svg">
<path fill-rule="evenodd" clip-rule="evenodd" d="M12 1.5C12.2761 1.5 12.5 1.72386 12.5 2V3.5H14C14.2761 3.5 14.5 3.72386 14.5 4C14.5 4.27614 14.2761 4.5 14 4.5H12.5V6C12.5 6.27614 12.2761 6.5 12 6.5C11.7239 6.5 11.5 6.27614 11.5 6V4.5H10C9.72386 4.5 9.5 4.27614 9.5 4C9.5 3.72386 9.72386 3.5 10 3.5H11.5V2C11.5 1.72386 11.7239 1.5 12 1.5Z" fill="#777B92"/>
<path fill-rule="evenodd" clip-rule="evenodd" d="M5.67429 2.63485L6.34778 5.32919C6.47555 5.84034 6.32577 6.38104 5.95321 6.7536L5.64645 7.06037C5.59707 7.10975 5.5731 7.15437 5.56474 7.18096C5.56286 7.18693 5.56198 7.19128 5.56158 7.19403L5.56124 7.19717C5.75621 7.64477 6.30554 8.34769 6.97848 9.02064C7.65144 9.69361 8.35455 10.2431 8.80243 10.4383L8.8057 10.438C8.80847 10.4376 8.81284 10.4367 8.81883 10.4348C8.84548 10.4264 8.89017 10.4024 8.93958 10.353L9.24609 10.0465C9.61866 9.67394 10.1594 9.52416 10.6706 9.65196L13.3638 10.3253C14.0066 10.486 14.5586 11.0968 14.4352 11.8581C14.2994 12.6959 13.9423 13.3788 13.3275 13.8431C12.7218 14.3007 11.9268 14.4997 11 14.4997C5.72386 14.4997 1.5 10.2758 1.5 4.99963C1.5 4.07309 1.69896 3.27781 2.15645 2.67173C2.62076 2.05662 3.30385 1.69905 4.14225 1.56346C4.90337 1.44037 5.5137 1.99239 5.67429 2.63485ZM4.3019 2.55064C3.65892 2.65462 3.23097 2.90806 2.95459 3.2742C2.67139 3.64938 2.5 4.20559 2.5 4.99963C2.5 9.72357 6.27615 13.4997 11 13.4997C11.7942 13.4997 12.35 13.3283 12.7248 13.0452C13.0906 12.7689 13.3438 12.341 13.4481 11.6981C13.4715 11.5535 13.3688 11.3573 13.1213 11.2954L10.428 10.6221C10.2576 10.5795 10.0774 10.6294 9.9532 10.7536L9.64669 11.0601C9.38624 11.3206 8.91392 11.5777 8.403 11.3551C7.77499 11.0814 6.96231 10.4187 6.27136 9.72774C5.58044 9.0368 4.91777 8.22418 4.64435 7.5963C4.4219 7.0855 4.67913 6.61347 4.93934 6.35326L5.24611 6.04649C5.37029 5.92231 5.42022 5.74207 5.37763 5.57169L4.70414 2.87736C4.64229 2.62993 4.44629 2.52728 4.3019 2.55064Z" fill="#777B92"/>
</svg>
