<svg width="16" height="16" viewBox="0 0 16 16" fill="none" xmlns="http://www.w3.org/2000/svg">
<path fill-rule="evenodd" clip-rule="evenodd" d="M4 1.5C3.72386 1.5 3.5 1.27614 3.5 1C3.5 0.723858 3.72386 0.5 4 0.5L4.97777 0.5C4.98516 0.499676 4.99259 0.499512 5.00007 0.499512H11.0001C11.0075 0.499512 11.015 0.499676 11.0224 0.5L12 0.5C12.2761 0.5 12.5 0.723858 12.5 1C12.5 1.27614 12.2761 1.5 12 1.5H11.5001V6.6905L13.2236 7.5523C13.393 7.637 13.5 7.81013 13.5 7.99951L13.5 9.99984C13.5 10.276 13.2762 10.4998 13 10.4998L8.5 10.4999L8.5 15C8.5 15.2761 8.27614 15.5 8 15.5C7.72386 15.5 7.5 15.2761 7.5 15L7.5 10.4999L3.00001 10.5C2.8674 10.5 2.74022 10.4474 2.64645 10.3536C2.55268 10.2598 2.5 10.1326 2.5 10V7.99951C2.5 7.81012 2.607 7.63699 2.7764 7.5523L4.50007 6.69049V1.5H4ZM5.50007 6.99951C5.50007 7.1889 5.39306 7.36203 5.22367 7.44673L3.5 8.30853V9.50002L12.5 9.49985L12.5 8.30853L10.7765 7.44672C10.6071 7.36203 10.5001 7.1889 10.5001 6.99951V1.5L5.50007 1.5V6.99951Z" fill="#777B92"/>
</svg>
