<svg width="16" height="16" viewBox="0 0 16 16" fill="none" xmlns="http://www.w3.org/2000/svg">
<path fill-rule="evenodd" clip-rule="evenodd" d="M15.3647 0.657343C15.4929 0.794061 15.5338 0.990957 15.4708 1.16743L10.4709 15.1691C10.3978 15.3737 10.201 15.5077 9.98386 15.5007C9.76671 15.4936 9.57895 15.3472 9.51926 15.1383L7.58455 8.36681L0.802967 5.45903C0.608535 5.37566 0.487612 5.17895 0.50101 4.96782C0.514408 4.7567 0.659227 4.57685 0.862639 4.51873L14.8626 0.518522C15.0428 0.46704 15.2366 0.520626 15.3647 0.657343ZM2.48919 5.09399L8.19706 7.54139C8.33528 7.60065 8.43947 7.71897 8.48079 7.86356L10.0529 13.366L14.2019 1.74732L2.48919 5.09399Z" fill="#777B92"/>
</svg>
