<svg width="16" height="16" viewBox="0 0 16 16" fill="none" xmlns="http://www.w3.org/2000/svg">
<path fill-rule="evenodd" clip-rule="evenodd" d="M8.00002 0.5C8.1894 0.5 8.36253 0.607001 8.44723 0.776393L15.4472 14.7764C15.5458 14.9735 15.5037 15.2118 15.3436 15.3632C15.1836 15.5146 14.9433 15.5434 14.7519 15.4341L8.00002 11.5759L1.24809 15.4341C1.05678 15.5434 0.816472 15.5146 0.65641 15.3632C0.496348 15.2118 0.454268 14.9735 0.552804 14.7764L7.5528 0.776393C7.6375 0.607001 7.81063 0.5 8.00002 0.5ZM2.18575 13.7466L7.75195 10.5659C7.90566 10.478 8.09437 10.478 8.24809 10.5659L13.8143 13.7466L8.00002 2.11803L2.18575 13.7466Z" fill="#777B92"/>
</svg>
