<svg width="16" height="16" viewBox="0 0 16 16" fill="none" xmlns="http://www.w3.org/2000/svg">
<path fill-rule="evenodd" clip-rule="evenodd" d="M12 0.5C13.933 0.5 15.5 2.067 15.5 4C15.5 5.933 13.933 7.5 12 7.5C11.212 7.5 10.4849 7.23962 9.89993 6.8002C9.88593 6.81879 9.87048 6.83663 9.85355 6.85355L1.35355 15.3536C1.15829 15.5488 0.841709 15.5488 0.646447 15.3536C0.451184 15.1583 0.451184 14.8417 0.646447 14.6464L9.14645 6.14645C9.16337 6.12952 9.18121 6.11407 9.1998 6.10008C8.76038 5.5151 8.5 4.78796 8.5 4C8.5 2.067 10.067 0.5 12 0.5ZM9.5 4C9.5 5.38071 10.6193 6.5 12 6.5C13.3807 6.5 14.5 5.38071 14.5 4C14.5 2.61929 13.3807 1.5 12 1.5C10.6193 1.5 9.5 2.61929 9.5 4Z" fill="#777B92"/>
</svg>
