<svg width="16" height="16" viewBox="0 0 16 16" fill="none" xmlns="http://www.w3.org/2000/svg">
<path fill-rule="evenodd" clip-rule="evenodd" d="M8.14645 1.14645C8.34171 0.951184 8.65829 0.951184 8.85355 1.14645L9.83574 2.12863C9.8418 2.13413 9.84774 2.13978 9.85355 2.14559L13.8536 6.14559C13.8594 6.15148 13.8651 6.15747 13.8707 6.16356L14.8536 7.14645C15.0488 7.34171 15.0488 7.65829 14.8536 7.85355C14.6583 8.04882 14.3417 8.04881 14.1464 7.85355L13.4996 7.20668L10.0428 10.6635L10.4903 12.9011C10.5231 13.065 10.4718 13.2345 10.3536 13.3527L8.85355 14.8527C8.65829 15.048 8.34171 15.048 8.14645 14.8527L5.00024 11.7065L1.35355 15.3532C1.15829 15.5484 0.841709 15.5484 0.646447 15.3532C0.451185 15.1579 0.451184 14.8413 0.646447 14.6461L4.29314 10.9994L1.14645 7.8527C0.951184 7.65744 0.951184 7.34085 1.14645 7.14559L2.64645 5.64559C2.76466 5.52738 2.93413 5.47607 3.09806 5.50885L5.33566 5.95638L8.79247 2.49957L8.14645 1.85355C7.95118 1.65829 7.95118 1.34171 8.14645 1.14645ZM12.7925 6.49957L9.49957 3.20668L5.85355 6.8527C5.73534 6.97091 5.56587 7.02222 5.40194 6.98944L3.16434 6.54191L2.20711 7.49915L8.5 13.792L9.45723 12.8348L9.00971 10.5972C8.97692 10.4333 9.02823 10.2638 9.14645 10.1456L12.7925 6.49957Z" fill="#777B92"/>
</svg>
