<svg width="16" height="16" viewBox="0 0 16 16" fill="none" xmlns="http://www.w3.org/2000/svg">
<path fill-rule="evenodd" clip-rule="evenodd" d="M3.5 1C3.5 0.723858 3.72386 0.5 4 0.5H14C14.8284 0.5 15.5 1.17157 15.5 2V12C15.5 12.2761 15.2761 12.5 15 12.5C14.7239 12.5 14.5 12.2761 14.5 12V2C14.5 1.72386 14.2761 1.5 14 1.5H4C3.72386 1.5 3.5 1.27614 3.5 1Z" fill="#777B92"/>
<path fill-rule="evenodd" clip-rule="evenodd" d="M1 3.5C1.27614 3.5 1.5 3.72386 1.5 4V14.0657L3.47073 12.7519C3.71713 12.5877 4.00664 12.5 4.30278 12.5H10C10.2761 12.5 10.5 12.7239 10.5 13C10.5 13.2761 10.2761 13.5 10 13.5H4.30278C4.20406 13.5 4.10756 13.5292 4.02543 13.584L1.27735 15.416C1.12392 15.5183 0.92665 15.5278 0.764071 15.4408C0.601492 15.3538 0.5 15.1844 0.5 15V4C0.5 3.72386 0.723858 3.5 1 3.5Z" fill="#777B92"/>
<path fill-rule="evenodd" clip-rule="evenodd" d="M0.646447 0.646447C0.841709 0.451184 1.15829 0.451184 1.35355 0.646447L15.3536 14.6464C15.5488 14.8417 15.5488 15.1583 15.3536 15.3536C15.1583 15.5488 14.8417 15.5488 14.6464 15.3536L0.646447 1.35355C0.451184 1.15829 0.451184 0.841709 0.646447 0.646447Z" fill="#777B92"/>
<path fill-rule="evenodd" clip-rule="evenodd" d="M12 8C11.4477 8 11 7.55228 11 7C11 6.44772 11.4477 6 12 6C12.5523 6 13 6.44772 13 7C13 7.55228 12.5523 8 12 8Z" fill="#777B92"/>
</svg>
