<svg width="16" height="16" viewBox="0 0 16 16" fill="none" xmlns="http://www.w3.org/2000/svg">
<path fill-rule="evenodd" clip-rule="evenodd" d="M0.565888 1.24809C0.456572 1.05678 0.485366 0.816472 0.636783 0.65641C0.788199 0.496348 1.02654 0.454268 1.22362 0.552804L15.2236 7.5528C15.393 7.6375 15.5 7.81063 15.5 8.00002C15.5 8.1894 15.393 8.36254 15.2236 8.44723L1.22362 15.4472C1.02654 15.5458 0.788199 15.5037 0.636782 15.3436C0.485365 15.1836 0.456571 14.9433 0.565887 14.7519L4.42413 8.00002L0.565888 1.24809ZM5.29016 7.5H12.8819L2.25345 2.18575L5.29016 7.5ZM5.29018 8.5L2.25345 13.8143L12.882 8.5H5.29018Z" fill="#777B92"/>
</svg>
