<svg width="16" height="16" viewBox="0 0 16 16" fill="none" xmlns="http://www.w3.org/2000/svg">
<path d="M6.19134 1.53807C6.37818 1.61547 6.5 1.79778 6.5 2.00001V4.52775C6.75315 4.54938 7.09247 4.58794 7.49122 4.6567C8.3674 4.8078 9.54314 5.1069 10.7248 5.70186C11.9084 6.29774 13.1074 7.19543 14.0095 8.54546C14.9138 9.89881 15.5 11.6774 15.5 14C15.5 14.2354 15.3359 14.4389 15.1059 14.4887C14.8758 14.5385 14.6422 14.4212 14.5448 14.2069C13.3738 11.6306 11.2703 10.454 9.42309 9.91769C8.49846 9.64924 7.64602 9.54436 7.02462 9.50692C6.82281 9.49477 6.64608 9.48976 6.5 9.48851V12C6.5 12.2022 6.37818 12.3846 6.19134 12.462C6.0045 12.5393 5.78945 12.4966 5.64645 12.3536L0.646447 7.35357C0.451184 7.15831 0.451184 6.84172 0.646447 6.64646L5.64645 1.64646C5.78945 1.50346 6.0045 1.46068 6.19134 1.53807ZM6 9.00001C5.96165 8.50149 5.96189 8.50147 5.96215 8.50145L5.96454 8.50127L5.96981 8.50089L5.98734 8.49973C6.0021 8.49881 6.02296 8.4976 6.04959 8.49632C6.10283 8.49376 6.17922 8.49089 6.27616 8.48934C6.46994 8.48623 6.74641 8.48835 7.08475 8.50873C7.76023 8.54942 8.68904 8.66328 9.70191 8.95734C11.2338 9.4021 12.9762 10.2662 14.3098 11.9228C14.087 10.7839 13.6834 9.85738 13.178 9.10105C12.3926 7.92569 11.3416 7.13198 10.2752 6.59504C9.20686 6.05719 8.1326 5.78207 7.32128 5.64216C6.91679 5.5724 6.58081 5.53679 6.3479 5.51865C6.23153 5.50958 6.14113 5.5049 6.08107 5.5025C6.05104 5.5013 6.02862 5.50066 6.01434 5.50033L5.99911 5.50004L5.99653 5.5C5.72192 5.49789 5.5 5.27467 5.5 5.00001V3.20712L1.70711 7.00001L5.5 10.7929V9.00001C5.5 8.73875 5.70165 8.52149 5.96215 8.50145L6 9.00001Z" fill="#777B92"/>
</svg>
