<svg width="16" height="16" viewBox="0 0 16 16" fill="none" xmlns="http://www.w3.org/2000/svg">
<path fill-rule="evenodd" clip-rule="evenodd" d="M8 9C7.44772 9 7 8.55228 7 8C7 7.44772 7.44772 7 8 7C8.55228 7 9 7.44772 9 8C9 8.55228 8.55228 9 8 9Z" fill="#777B92"/>
<path fill-rule="evenodd" clip-rule="evenodd" d="M12 9C11.4477 9 11 8.55228 11 8C11 7.44772 11.4477 7 12 7C12.5523 7 13 7.44772 13 8C13 8.55228 12.5523 9 12 9Z" fill="#777B92"/>
<path fill-rule="evenodd" clip-rule="evenodd" d="M4 9C3.44772 9 3 8.55228 3 8C3 7.44772 3.44772 7 4 7C4.55228 7 5 7.44772 5 8C5 8.55228 4.55228 9 4 9Z" fill="#777B92"/>
<path fill-rule="evenodd" clip-rule="evenodd" d="M0.5 8C0.5 3.85786 3.85786 0.5 8 0.5C12.1421 0.5 15.5 3.85786 15.5 8C15.5 12.1421 12.1421 15.5 8 15.5C6.90737 15.5 5.86812 15.266 4.93067 14.8451L1.08312 15.4931C0.923594 15.5199 0.760927 15.4679 0.646535 15.3536C0.532143 15.2392 0.480163 15.0765 0.507026 14.917L1.15492 11.0693C0.733959 10.1319 0.5 9.09263 0.5 8ZM8 1.5C4.41015 1.5 1.5 4.41015 1.5 8C1.5 8.99782 1.72449 9.94182 2.12526 10.7855C2.16925 10.8781 2.18371 10.9819 2.16669 11.083L1.60979 14.3903L4.91696 13.8333C5.01806 13.8163 5.12194 13.8307 5.21455 13.8747C6.05818 14.2755 7.00218 14.5 8 14.5C11.5899 14.5 14.5 11.5899 14.5 8C14.5 4.41015 11.5899 1.5 8 1.5Z" fill="#777B92"/>
</svg>
