<svg width="16" height="16" viewBox="0 0 16 16" fill="none" xmlns="http://www.w3.org/2000/svg">
<path fill-rule="evenodd" clip-rule="evenodd" d="M11.4096 3.28677L4.40965 13.2868C4.31774 13.4181 4.16847 13.4973 4.00822 13.5C3.84798 13.5026 3.69619 13.4283 3.60003 13.3L0.600029 9.30004C0.434344 9.07913 0.479116 8.76573 0.700029 8.60004C0.920943 8.43436 1.23434 8.47913 1.40003 8.70004L3.98607 12.1481L10.5904 2.71331C10.7488 2.48709 11.0605 2.43207 11.2868 2.59043C11.513 2.74878 11.568 3.06055 11.4096 3.28677Z" fill="#777B92"/>
<path fill-rule="evenodd" clip-rule="evenodd" d="M15.4096 3.28677L8.40962 13.2868C8.32485 13.4079 8.19086 13.4852 8.04361 13.4981C7.89637 13.511 7.75096 13.4581 7.64645 13.3536L6.64645 12.3536C6.45118 12.1583 6.45118 11.8418 6.64645 11.6465C6.84171 11.4512 7.15829 11.4512 7.35355 11.6465L7.93215 12.2251L14.5904 2.71331C14.7487 2.48709 15.0605 2.43207 15.2867 2.59043C15.513 2.74878 15.568 3.06055 15.4096 3.28677Z" fill="#777B92"/>
</svg>
