<svg width="16" height="16" viewBox="0 0 16 16" fill="none" xmlns="http://www.w3.org/2000/svg">
<path fill-rule="evenodd" clip-rule="evenodd" d="M1.5 2V14C1.5 14.2761 1.72386 14.5 2 14.5H14C14.2761 14.5 14.5 14.2761 14.5 14V7C14.5 6.72386 14.7239 6.5 15 6.5C15.2761 6.5 15.5 6.72386 15.5 7V14C15.5 14.8284 14.8284 15.5 14 15.5H2C1.17157 15.5 0.5 14.8284 0.5 14V2C0.5 1.17157 1.17157 0.5 2 0.5H11C11.2761 0.5 11.5 0.723858 11.5 1C11.5 1.27614 11.2761 1.5 11 1.5H2C1.72386 1.5 1.5 1.72386 1.5 2Z" fill="#777B92"/>
<path fill-rule="evenodd" clip-rule="evenodd" d="M11.3536 4.64645C11.5488 4.84171 11.5488 5.15829 11.3536 5.35355L8.70711 8L11.3536 10.6464C11.5488 10.8417 11.5488 11.1583 11.3536 11.3536C11.1583 11.5488 10.8417 11.5488 10.6464 11.3536L8 8.70711L5.35355 11.3536C5.15829 11.5488 4.84171 11.5488 4.64645 11.3536C4.45118 11.1583 4.45118 10.8417 4.64645 10.6464L7.29289 8L4.64645 5.35355C4.45118 5.15829 4.45118 4.84171 4.64645 4.64645C4.84171 4.45118 5.15829 4.45118 5.35355 4.64645L8 7.29289L10.6464 4.64645C10.8417 4.45118 11.1583 4.45118 11.3536 4.64645Z" fill="#777B92"/>
</svg>
