<svg width="16" height="16" viewBox="0 0 16 16" fill="none" xmlns="http://www.w3.org/2000/svg">
<path fill-rule="evenodd" clip-rule="evenodd" d="M2.5 2C2.5 1.17157 3.17157 0.5 4 0.5H8.58579C8.98361 0.5 9.36514 0.658035 9.64645 0.93934L13.0607 4.35355C13.342 4.63486 13.5 5.01639 13.5 5.41421V9C13.5 9.27614 13.2761 9.5 13 9.5C12.7239 9.5 12.5 9.27614 12.5 9V5.5H10C9.17157 5.5 8.5 4.82843 8.5 4V1.5H4C3.72386 1.5 3.5 1.72386 3.5 2V9C3.5 9.27614 3.27614 9.5 3 9.5C2.72386 9.5 2.5 9.27614 2.5 9V2ZM9.5 2.20711V4C9.5 4.27614 9.72386 4.5 10 4.5H11.7929L9.5 2.20711Z" fill="#777B92"/>
<path fill-rule="evenodd" clip-rule="evenodd" d="M8 13C7.44772 13 7 12.5523 7 12C7 11.4477 7.44772 11 8 11C8.55228 11 9 11.4477 9 12C9 12.5523 8.55228 13 8 13Z" fill="#777B92"/>
<path fill-rule="evenodd" clip-rule="evenodd" d="M7.99954 8.5C10.6341 8.5 12.3652 10.3255 13.0518 11.2072C13.4177 11.6773 13.4177 12.3227 13.0518 12.7928C12.3652 13.6745 10.6341 15.5 7.99954 15.5C5.36496 15.5 3.63384 13.6745 2.94732 12.7928C2.58136 12.3227 2.58136 11.6773 2.94732 11.2072C3.63384 10.3255 5.36496 8.5 7.99954 8.5ZM3.73638 11.8216C3.65168 11.9304 3.65168 12.0696 3.73638 12.1784C4.37208 12.9949 5.84455 14.5 7.99954 14.5C10.1545 14.5 11.627 12.9949 12.2627 12.1784C12.3474 12.0696 12.3474 11.9304 12.2627 11.8216C11.627 11.0051 10.1545 9.5 7.99954 9.5C5.84455 9.5 4.37208 11.0051 3.73638 11.8216Z" fill="#777B92"/>
</svg>
