<svg width="16" height="16" viewBox="0 0 16 16" fill="none" xmlns="http://www.w3.org/2000/svg">
<path fill-rule="evenodd" clip-rule="evenodd" d="M2.5 2C2.5 1.17157 3.17157 0.5 4 0.5H8.58579C8.98361 0.5 9.36514 0.658035 9.64645 0.93934L13.0607 4.35355C13.342 4.63486 13.5 5.01639 13.5 5.41421V9C13.5 9.27614 13.2761 9.5 13 9.5C12.7239 9.5 12.5 9.27614 12.5 9V5.5H10C9.17157 5.5 8.5 4.82843 8.5 4V1.5H4C3.72386 1.5 3.5 1.72386 3.5 2V9C3.5 9.27614 3.27614 9.5 3 9.5C2.72386 9.5 2.5 9.27614 2.5 9V2ZM9.5 2.20711V4C9.5 4.27614 9.72386 4.5 10 4.5H11.7929L9.5 2.20711Z" fill="#777B92"/>
<path fill-rule="evenodd" clip-rule="evenodd" d="M3.05078 11.9975V11.3636H6.03729V11.9975H4.92401V15H4.16406V11.9975H3.05078Z" fill="#777B92"/>
<path fill-rule="evenodd" clip-rule="evenodd" d="M7.25 11.3636L7.98331 12.603H8.01172L8.74858 11.3636H9.61683L8.5071 13.1818L9.64169 15H8.75746L8.01172 13.7589H7.98331L7.23757 15H6.35689L7.49503 13.1818L6.3782 11.3636H7.25Z" fill="#777B92"/>
<path fill-rule="evenodd" clip-rule="evenodd" d="M9.96484 11.3636H12.9513V11.9975H11.8381V15H11.0781V11.9975H9.96484V11.3636Z" fill="#777B92"/>
</svg>
