<svg width="16" height="16" viewBox="0 0 16 16" fill="none" xmlns="http://www.w3.org/2000/svg">
<path fill-rule="evenodd" clip-rule="evenodd" d="M2.5 2C2.5 1.17157 3.17157 0.5 4 0.5H8.58579C8.98361 0.5 9.36514 0.658035 9.64645 0.93934L13.0607 4.35355C13.342 4.63486 13.5 5.01639 13.5 5.41421V14C13.5 14.8284 12.8284 15.5 12 15.5H10C9.72386 15.5 9.5 15.2761 9.5 15C9.5 14.7239 9.72386 14.5 10 14.5H12C12.2761 14.5 12.5 14.2761 12.5 14V5.5H10C9.17157 5.5 8.5 4.82843 8.5 4V1.5H4C3.72386 1.5 3.5 1.72386 3.5 2V8C3.5 8.27614 3.27614 8.5 3 8.5C2.72386 8.5 2.5 8.27614 2.5 8V2ZM9.5 2.20711V4C9.5 4.27614 9.72386 4.5 10 4.5H11.7929L9.5 2.20711Z" fill="#777B92"/>
<path fill-rule="evenodd" clip-rule="evenodd" d="M3 11.5C2.72386 11.5 2.5 11.2761 2.5 11C2.5 10.7239 2.72386 10.5 3 10.5H7C7.27614 10.5 7.5 10.7239 7.5 11V15C7.5 15.2761 7.27614 15.5 7 15.5C6.72386 15.5 6.5 15.2761 6.5 15V12.2071L3.35355 15.3536C3.15829 15.5488 2.84171 15.5488 2.64645 15.3536C2.45118 15.1583 2.45118 14.8417 2.64645 14.6464L5.79289 11.5H3Z" fill="#777B92"/>
</svg>
