<svg width="16" height="16" viewBox="0 0 16 16" fill="none" xmlns="http://www.w3.org/2000/svg">
<path fill-rule="evenodd" clip-rule="evenodd" d="M10.3536 8.35355L7.35355 11.3536C7.15829 11.5488 6.84171 11.5488 6.64645 11.3536L5.14645 9.85355C4.95118 9.65829 4.95118 9.34171 5.14645 9.14645C5.34171 8.95118 5.65829 8.95118 5.85355 9.14645L7 10.2929L9.64645 7.64645C9.84171 7.45118 10.1583 7.45118 10.3536 7.64645C10.5488 7.84171 10.5488 8.15829 10.3536 8.35355Z" fill="#777B92"/>
<path fill-rule="evenodd" clip-rule="evenodd" d="M7 2.5C9.32962 2.5 11.2458 4.27025 11.4767 6.53893C11.6476 6.51328 11.8223 6.5 12 6.5C13.933 6.5 15.5 8.067 15.5 10C15.5 11.933 13.933 13.5 12 13.5H3C1.61929 13.5 0.5 12.3807 0.5 11C0.5 9.70016 1.492 8.63202 2.76023 8.51135C2.59173 8.03869 2.5 7.52977 2.5 7C2.5 4.51472 4.51472 2.5 7 2.5ZM3.5 7C3.5 7.6702 3.68788 8.29499 4.0136 8.8263C4.12226 9.00355 4.10989 9.22954 3.98255 9.39388C3.8552 9.55822 3.63945 9.62661 3.44069 9.56564C3.30196 9.52309 3.15413 9.5 3 9.5C2.17157 9.5 1.5 10.1716 1.5 11C1.5 11.8284 2.17157 12.5 3 12.5H12C13.3807 12.5 14.5 11.3807 14.5 10C14.5 8.61929 13.3807 7.5 12 7.5C11.7058 7.5 11.4245 7.55062 11.1636 7.6432C11.007 7.69877 10.833 7.67293 10.6994 7.57423C10.5657 7.47553 10.4898 7.31687 10.4968 7.15086C10.4989 7.10087 10.5 7.05057 10.5 7C10.5 5.067 8.933 3.5 7 3.5C5.067 3.5 3.5 5.067 3.5 7Z" fill="#777B92"/>
</svg>
