<svg width="16" height="16" viewBox="0 0 16 16" fill="none" xmlns="http://www.w3.org/2000/svg">
<path fill-rule="evenodd" clip-rule="evenodd" d="M11.3536 8.35355L8.35355 11.3536C8.15829 11.5488 7.84171 11.5488 7.64645 11.3536L4.64645 8.35355C4.45118 8.15829 4.45118 7.84171 4.64645 7.64645C4.84171 7.45118 5.15829 7.45118 5.35355 7.64645L7.5 9.79289V1C7.5 0.723858 7.72386 0.5 8 0.5C8.27614 0.5 8.5 0.723858 8.5 1V9.79289L10.6464 7.64645C10.8417 7.45118 11.1583 7.45118 11.3536 7.64645C11.5488 7.84171 11.5488 8.15829 11.3536 8.35355Z" fill="#777B92"/>
<path fill-rule="evenodd" clip-rule="evenodd" d="M1.5 13V14.5H14.5V13C14.5 12.7239 14.7239 12.5 15 12.5C15.2761 12.5 15.5 12.7239 15.5 13V15C15.5 15.2761 15.2761 15.5 15 15.5H1C0.723858 15.5 0.5 15.2761 0.5 15V13C0.5 12.7239 0.723858 12.5 1 12.5C1.27614 12.5 1.5 12.7239 1.5 13Z" fill="#777B92"/>
</svg>
