<svg width="16" height="16" viewBox="0 0 16 16" fill="none" xmlns="http://www.w3.org/2000/svg">
<path fill-rule="evenodd" clip-rule="evenodd" d="M2 2.5C1.72386 2.5 1.5 2.72386 1.5 3V13C1.5 13.2761 1.72386 13.5 2 13.5H14C14.2761 13.5 14.5 13.2761 14.5 13V5C14.5 4.72386 14.2761 4.5 14 4.5H8.41421C8.01639 4.5 7.63486 4.34196 7.35355 4.06066L5.93934 2.64645C5.84557 2.55268 5.71839 2.5 5.58579 2.5H2ZM0.5 3C0.5 2.17157 1.17157 1.5 2 1.5H5.58579C5.98361 1.5 6.36514 1.65803 6.64645 1.93934L8.06066 3.35355C8.15443 3.44732 8.28161 3.5 8.41421 3.5H14C14.8284 3.5 15.5 4.17157 15.5 5V13C15.5 13.8284 14.8284 14.5 14 14.5H2C1.17157 14.5 0.5 13.8284 0.5 13V3Z" fill="#777B92"/>
</svg>
