<svg width="16" height="16" viewBox="0 0 16 16" fill="none" xmlns="http://www.w3.org/2000/svg">
<path fill-rule="evenodd" clip-rule="evenodd" d="M5 11C4.44772 11 4 10.5523 4 10C4 9.44772 4.44772 9 5 9C5.55228 9 6 9.44772 6 10C6 10.5523 5.55228 11 5 11Z" fill="#777B92"/>
<path fill-rule="evenodd" clip-rule="evenodd" d="M5 14C4.44772 14 4 13.5523 4 13C4 12.4477 4.44772 12 5 12C5.55228 12 6 12.4477 6 13C6 13.5523 5.55228 14 5 14Z" fill="#777B92"/>
<path fill-rule="evenodd" clip-rule="evenodd" d="M9 10C9 10.5523 8.55228 11 8 11C7.44772 11 7 10.5523 7 10C7 9.44772 7.44772 9 8 9C8.55228 9 9 9.44772 9 10Z" fill="#777B92"/>
<path fill-rule="evenodd" clip-rule="evenodd" d="M8 14C7.44772 14 7 13.5523 7 13C7 12.4477 7.44772 12 8 12C8.55228 12 9 12.4477 9 13C9 13.5523 8.55228 14 8 14Z" fill="#777B92"/>
<path fill-rule="evenodd" clip-rule="evenodd" d="M12 10C12 10.5523 11.5523 11 11 11C10.4477 11 10 10.5523 10 10C10 9.44772 10.4477 9 11 9C11.5523 9 12 9.44772 12 10Z" fill="#777B92"/>
<path fill-rule="evenodd" clip-rule="evenodd" d="M11 14C10.4477 14 10 13.5523 10 13C10 12.4477 10.4477 12 11 12C11.5523 12 12 12.4477 12 13C12 13.5523 11.5523 14 11 14Z" fill="#777B92"/>
<path fill-rule="evenodd" clip-rule="evenodd" d="M2.5 2C2.5 1.17157 3.17157 0.5 4 0.5H8.58579C8.98361 0.5 9.36514 0.658035 9.64645 0.93934L13.0607 4.35355C13.342 4.63486 13.5 5.01639 13.5 5.41421V14C13.5 14.8284 12.8284 15.5 12 15.5H4C3.17157 15.5 2.5 14.8284 2.5 14V2ZM4 1.5C3.72386 1.5 3.5 1.72386 3.5 2V14C3.5 14.2761 3.72386 14.5 4 14.5H12C12.2761 14.5 12.5 14.2761 12.5 14V5.5H10C9.17157 5.5 8.5 4.82843 8.5 4V1.5H4ZM9.5 2.20711V4C9.5 4.27614 9.72386 4.5 10 4.5H11.7929L9.5 2.20711Z" fill="#777B92"/>
</svg>
