<svg width="16" height="16" viewBox="0 0 16 16" fill="none" xmlns="http://www.w3.org/2000/svg">
<path fill-rule="evenodd" clip-rule="evenodd" d="M2.5 2C2.5 1.17157 3.17157 0.5 4 0.5H8.58579C8.98361 0.5 9.36514 0.658035 9.64645 0.93934L13.0607 4.35355C13.342 4.63486 13.5 5.01639 13.5 5.41421V9C13.5 9.27614 13.2761 9.5 13 9.5C12.7239 9.5 12.5 9.27614 12.5 9V5.5H10C9.17157 5.5 8.5 4.82843 8.5 4V1.5H4C3.72386 1.5 3.5 1.72386 3.5 2V9C3.5 9.27614 3.27614 9.5 3 9.5C2.72386 9.5 2.5 9.27614 2.5 9V2ZM9.5 2.20711V4C9.5 4.27614 9.72386 4.5 10 4.5H11.7929L9.5 2.20711Z" fill="#777B92"/>
<path fill-rule="evenodd" clip-rule="evenodd" d="M9.64142 13.1819C9.64142 13.5784 9.56626 13.9158 9.41593 14.1939C9.26678 14.4721 9.06377 14.6846 8.80691 14.8314C8.55004 14.977 8.26062 15.0498 7.93865 15.0498C7.6155 15.0498 7.32549 14.9764 7.06863 14.8296C6.81176 14.6828 6.60875 14.4703 6.45961 14.1922C6.31046 13.9128 6.23588 13.576 6.23588 13.1819C6.23588 12.7853 6.31046 12.448 6.45961 12.1698C6.60875 11.8916 6.81176 11.6797 7.06863 11.5341C7.32549 11.3874 7.6155 11.314 7.93865 11.314C8.26062 11.314 8.55004 11.3874 8.80691 11.5341C9.06377 11.6797 9.26678 11.8916 9.41593 12.1698C9.56626 12.448 9.64142 12.7853 9.64142 13.1819ZM8.86195 13.1819C8.86195 12.796 8.77791 12.5018 8.60982 12.2994C8.44173 12.0958 8.21801 11.994 7.93865 11.994C7.6593 11.994 7.43558 12.0958 7.26749 12.2994C7.0994 12.5018 7.01536 12.796 7.01536 13.1819C7.01536 13.5666 7.0994 13.8607 7.26749 14.0643C7.43558 14.2679 7.6593 14.3697 7.93865 14.3697C8.21801 14.3697 8.44173 14.2679 8.60982 14.0643C8.77791 13.8607 8.86195 13.5666 8.86195 13.1819Z" fill="#777B92"/>
<path fill-rule="evenodd" clip-rule="evenodd" d="M3.95117 15H2.66211V11.3637H3.96183C4.32759 11.3637 4.64246 11.4365 4.90643 11.5821C5.17158 11.7265 5.37518 11.9342 5.51722 12.2053C5.65927 12.4764 5.73029 12.8007 5.73029 13.1783C5.73029 13.5571 5.65868 13.8826 5.51545 14.1549C5.3734 14.4271 5.16921 14.6361 4.90288 14.7816C4.63772 14.9272 4.32049 15 3.95117 15ZM3.43093 14.3413H3.91921C4.2613 14.3413 4.52054 14.249 4.69691 14.0643C4.87447 13.8797 4.96325 13.5843 4.96325 13.1783C4.96325 12.7747 4.87447 12.4811 4.69691 12.2976C4.52054 12.1142 4.2619 12.0224 3.92099 12.0224H3.43093V14.3413Z" fill="#777B92"/>
<path fill-rule="evenodd" clip-rule="evenodd" d="M12.6417 12.6368C12.6121 12.4367 12.5269 12.2799 12.386 12.1662C12.2451 12.0514 12.0694 11.994 11.8587 11.994C11.5769 11.994 11.3509 12.0976 11.1804 12.3047C11.0111 12.5107 10.9265 12.8031 10.9265 13.1819C10.9265 13.5701 11.0117 13.8655 11.1822 14.0679C11.3538 14.2691 11.5775 14.3697 11.8533 14.3697C12.0581 14.3697 12.2315 14.3165 12.3736 14.2099C12.5156 14.1022 12.605 13.9513 12.6417 13.7571L13.4194 13.7607C13.3922 13.9832 13.3129 14.1928 13.1815 14.3892C13.0501 14.5857 12.8713 14.745 12.6452 14.8669C12.4203 14.9888 12.1522 15.0498 11.8409 15.0498C11.5166 15.0498 11.2266 14.9764 10.9709 14.8296C10.7164 14.6828 10.5152 14.4703 10.3672 14.1922C10.2204 13.914 10.147 13.5772 10.147 13.1819C10.147 12.7853 10.2216 12.448 10.3707 12.1698C10.5199 11.8916 10.7223 11.6797 10.978 11.5341C11.2337 11.3874 11.5213 11.314 11.8409 11.314C12.1214 11.314 12.3742 11.366 12.5991 11.4702C12.8252 11.5732 13.0098 11.7235 13.1531 11.9212C13.2975 12.1177 13.3862 12.3562 13.4194 12.6368H12.6417Z" fill="#777B92"/>
</svg>
