<svg width="16" height="16" viewBox="0 0 16 16" fill="none" xmlns="http://www.w3.org/2000/svg">
<path fill-rule="evenodd" clip-rule="evenodd" d="M2.5 2C2.5 1.17157 3.17157 0.5 4 0.5H8.58579C8.98361 0.5 9.36514 0.658035 9.64645 0.93934L13.0607 4.35355C13.342 4.63486 13.5 5.01639 13.5 5.41421V9C13.5 9.27614 13.2761 9.5 13 9.5C12.7239 9.5 12.5 9.27614 12.5 9V5.5H10C9.17157 5.5 8.5 4.82843 8.5 4V1.5H4C3.72386 1.5 3.5 1.72386 3.5 2V9C3.5 9.27614 3.27614 9.5 3 9.5C2.72386 9.5 2.5 9.27614 2.5 9V2ZM9.5 2.20711V4C9.5 4.27614 9.72386 4.5 10 4.5H11.7929L9.5 2.20711Z" fill="#777B92"/>
<path fill-rule="evenodd" clip-rule="evenodd" d="M11.6712 12.0757C11.5634 11.9964 11.4178 11.9567 11.2344 11.9567C11.0462 11.9567 10.9018 11.9952 10.8011 12.0721C10.7005 12.1491 10.6502 12.2461 10.6502 12.3633C10.6478 12.4935 10.7035 12.5924 10.8171 12.6598C10.9319 12.7261 11.0681 12.7776 11.2255 12.8143L11.5522 12.8924C11.7629 12.9398 11.9499 13.0084 12.1133 13.0984C12.2778 13.1884 12.4068 13.3044 12.5004 13.4464C12.5951 13.5873 12.6424 13.7589 12.6424 13.9613C12.6412 14.294 12.5163 14.5591 12.2678 14.7568C12.0204 14.9533 11.6747 15.0515 11.2308 15.0515C10.7893 15.0515 10.4371 14.9509 10.1744 14.7497C9.91158 14.5485 9.77545 14.2513 9.76598 13.8584H10.5099C10.523 14.0406 10.5946 14.178 10.7248 14.2703C10.8562 14.3614 11.0219 14.407 11.2219 14.407C11.4173 14.407 11.5729 14.3656 11.6889 14.2827C11.8061 14.1999 11.8653 14.0921 11.8665 13.9596C11.8653 13.8365 11.8114 13.7418 11.7049 13.6755C11.5984 13.6092 11.4463 13.5524 11.2486 13.505L10.8526 13.4056C10.546 13.3322 10.304 13.2156 10.1264 13.0558C9.94886 12.896 9.86068 12.6823 9.86186 12.4148C9.86068 12.1946 9.91927 12.0023 10.0376 11.8378C10.1572 11.672 10.3211 11.5436 10.5295 11.4525C10.7378 11.3601 10.9746 11.314 11.2397 11.314C11.5096 11.314 11.7451 11.3601 11.9464 11.4525C12.1488 11.5448 12.3062 11.6732 12.4187 11.8378C12.5311 12.0023 12.5891 12.1929 12.5927 12.4095H11.8558C11.8416 12.2663 11.7801 12.155 11.6712 12.0757Z" fill="#777B92"/>
<path fill-rule="evenodd" clip-rule="evenodd" d="M4.19292 11.3637L4.92623 12.603H4.95463L5.6915 11.3637H6.55975L5.45002 13.1819L6.58461 15H5.70037L4.95463 13.7589H4.92623L4.18049 15H3.2998L4.43794 13.1819L3.32111 11.3637H4.19292Z" fill="#777B92"/>
<path fill-rule="evenodd" clip-rule="evenodd" d="M7.04625 11.3637H7.81507V14.3662H9.37402V15H7.04625V11.3637Z" fill="#777B92"/>
</svg>
