<svg width="16" height="16" viewBox="0 0 16 16" fill="none" xmlns="http://www.w3.org/2000/svg">
<path fill-rule="evenodd" clip-rule="evenodd" d="M10.5896 2.63676C10.56 2.43672 10.4748 2.27987 10.3339 2.16624C10.193 2.05142 10.0173 1.99401 9.80655 1.99401C9.52483 1.99401 9.29874 2.09758 9.12828 2.30473C8.95901 2.5107 8.87438 2.80307 8.87438 3.18186C8.87438 3.57012 8.95961 3.86546 9.13006 4.06787C9.3017 4.2691 9.52542 4.36972 9.80123 4.36972C10.006 4.36972 10.1794 4.31645 10.3215 4.20992C10.4635 4.1022 10.5529 3.95128 10.5896 3.75715L11.3673 3.7607C11.3401 3.98324 11.2607 4.19275 11.1294 4.38925C10.998 4.58575 10.8192 4.74495 10.5931 4.86688C10.3682 4.9888 10.1001 5.04976 9.7888 5.04976C9.46446 5.04976 9.17445 4.97637 8.91877 4.82959C8.66427 4.68281 8.46304 4.47033 8.31507 4.19216C8.16829 3.91399 8.0949 3.57722 8.0949 3.18186C8.0949 2.78532 8.16948 2.44796 8.31863 2.16979C8.46777 1.89162 8.67019 1.67973 8.92587 1.53414C9.18155 1.38736 9.46919 1.31396 9.7888 1.31396C10.0693 1.31396 10.3221 1.36605 10.547 1.47021C10.7731 1.5732 10.9577 1.72353 11.1009 1.92121C11.2454 2.11771 11.3341 2.35622 11.3673 2.63676H10.5896Z" fill="#777B92"/>
<path fill-rule="evenodd" clip-rule="evenodd" d="M7.27326 5.00004H6.50444V2.09344H6.48313L5.65039 2.61546V1.93364L6.5506 1.36368H7.27326V5.00004Z" fill="#777B92"/>
<path fill-rule="evenodd" clip-rule="evenodd" d="M11.3536 12.3536L8.35355 15.3536C8.15829 15.5488 7.84171 15.5488 7.64645 15.3536L4.64645 12.3536C4.45118 12.1583 4.45118 11.8417 4.64645 11.6464C4.84171 11.4512 5.15829 11.4512 5.35355 11.6464L7.5 13.7929V8C7.5 7.72386 7.72386 7.5 8 7.5C8.27614 7.5 8.5 7.72386 8.5 8V13.7929L10.6464 11.6464C10.8417 11.4512 11.1583 11.4512 11.3536 11.6464C11.5488 11.8417 11.5488 12.1583 11.3536 12.3536Z" fill="#777B92"/>
</svg>
