<svg width="16" height="16" viewBox="0 0 16 16" fill="none" xmlns="http://www.w3.org/2000/svg">
<path fill-rule="evenodd" clip-rule="evenodd" d="M15.4709 1.16818L10.4709 15.1682C10.393 15.3862 10.1756 15.5223 9.94546 15.497C9.71531 15.4718 9.5326 15.2918 9.50388 15.062L8.55212 7.44792L0.938004 6.49615C0.708252 6.46743 0.528272 6.28473 0.503007 6.05457C0.477742 5.82441 0.613802 5.60702 0.831853 5.52914L14.8319 0.529143C15.0138 0.464155 15.2169 0.509831 15.3536 0.646461C15.4902 0.78309 15.5359 0.986216 15.4709 1.16818ZM8.81935 6.47354L13.0741 2.21876L3.14632 5.76441L8.81935 6.47354ZM9.52649 7.18062L10.2356 12.8537L13.7813 2.9258L9.52649 7.18062Z" fill="#777B92"/>
</svg>
