<svg width="16" height="16" viewBox="0 0 16 16" fill="none" xmlns="http://www.w3.org/2000/svg">
<path fill-rule="evenodd" clip-rule="evenodd" d="M6 8C6 8.55228 5.55228 9 5 9C4.44772 9 4 8.55228 4 8C4 7.44772 4.44772 7 5 7C5.55228 7 6 7.44772 6 8Z" fill="#777B92"/>
<path fill-rule="evenodd" clip-rule="evenodd" d="M8 9C7.44772 9 7 8.55228 7 8C7 7.44772 7.44772 7 8 7C8.55228 7 9 7.44772 9 8C9 8.55228 8.55228 9 8 9Z" fill="#777B92"/>
<path fill-rule="evenodd" clip-rule="evenodd" d="M11 9C10.4477 9 10 8.55228 10 8C10 7.44772 10.4477 7 11 7C11.5523 7 12 7.44772 12 8C12 8.55228 11.5523 9 11 9Z" fill="#777B92"/>
<path fill-rule="evenodd" clip-rule="evenodd" d="M5 3.5H11C13.4853 3.5 15.5 5.51472 15.5 8C15.5 10.4853 13.4853 12.5 11 12.5H5C2.51472 12.5 0.5 10.4853 0.5 8C0.5 5.51472 2.51472 3.5 5 3.5ZM1.5 8C1.5 9.933 3.067 11.5 5 11.5H11C12.933 11.5 14.5 9.933 14.5 8C14.5 6.067 12.933 4.5 11 4.5H5C3.067 4.5 1.5 6.067 1.5 8Z" fill="#777B92"/>
</svg>
