<svg width="16" height="16" viewBox="0 0 16 16" fill="none" xmlns="http://www.w3.org/2000/svg">
<path fill-rule="evenodd" clip-rule="evenodd" d="M0.5 8C0.5 3.85786 3.85786 0.5 8 0.5C12.1421 0.5 15.5 3.85786 15.5 8C15.5 12.1421 12.1421 15.5 8 15.5C3.85786 15.5 0.5 12.1421 0.5 8ZM8 1.5C4.41015 1.5 1.5 4.41015 1.5 8C1.5 8.88586 1.67721 9.73033 1.99812 10.4999C2.03822 10.4998 2.07898 10.5045 2.11967 10.5145L2.12075 10.5148L2.12702 10.5163L2.15546 10.5229C2.18129 10.5288 2.22052 10.5375 2.27152 10.5481C2.37363 10.5692 2.52242 10.5977 2.70497 10.6262C3.07172 10.6834 3.56671 10.7392 4.08906 10.7372C4.61521 10.7351 5.14378 10.6744 5.59025 10.5147C6.03192 10.3568 6.36537 10.1133 6.56289 9.75739C6.77271 9.3793 6.82314 8.97157 6.78456 8.51976C6.75056 8.12165 6.65223 7.72423 6.54655 7.2971C6.52832 7.22342 6.50987 7.14885 6.49149 7.07324C6.37402 6.58991 6.25336 6.04183 6.31144 5.52472C6.37447 4.96358 6.64372 4.45953 7.22797 4.08054C8.08395 3.52528 8.79915 2.81229 9.3042 2.23009C9.46465 2.04513 9.60267 1.8748 9.71601 1.72891C9.16935 1.57967 8.59398 1.5 8 1.5ZM10.6998 2.08549C10.6965 2.09005 10.6931 2.09467 10.6897 2.09932C10.5439 2.29734 10.3311 2.57244 10.0596 2.88538C9.51918 3.50832 8.73439 4.29532 7.77218 4.91949C7.44734 5.13021 7.33591 5.36281 7.30519 5.63634C7.26952 5.95391 7.34204 6.33854 7.4632 6.83707C7.47945 6.9039 7.49655 6.97272 7.51407 7.04323C7.61924 7.46645 7.73961 7.95082 7.78093 8.43467C7.83042 9.01411 7.77289 9.63787 7.43726 10.2426C7.08932 10.8696 6.52505 11.2425 5.92694 11.4564C5.33364 11.6685 4.6804 11.7349 4.09291 11.7372C3.52637 11.7393 2.99731 11.6818 2.6019 11.6221C3.76893 13.3579 5.75109 14.5 8 14.5C8.87709 14.5 9.71361 14.3263 10.477 14.0114C10.4603 13.9857 10.4429 13.9586 10.425 13.93C10.2813 13.7012 10.0988 13.376 9.94926 12.9953C9.65812 12.2539 9.447 11.1777 10.0838 10.2226C10.4908 9.61221 10.4999 9.00646 10.4999 8.3125L10.4999 8.25295C10.4993 7.60954 10.4985 6.79436 11.1464 6.14645C11.7526 5.54017 12.6225 5.26558 13.2769 5.13471C13.4627 5.09755 13.6379 5.07069 13.7942 5.05127C13.1289 3.74653 12.0358 2.69633 10.6998 2.08549ZM11.2718 13.3981C11.3103 13.4595 11.3455 13.5125 11.3754 13.556C13.2489 12.4154 14.5 10.3538 14.5 8C14.5 7.30795 14.3918 6.64116 14.1915 6.01561C14.0049 6.03056 13.7518 6.05952 13.473 6.11529C12.8773 6.23442 12.2472 6.45983 11.8535 6.85355C11.5215 7.18548 11.4999 7.58957 11.4999 8.3125L11.4999 8.34279C11.5001 9.01994 11.5002 9.90092 10.9158 10.7774C10.5525 11.3223 10.6312 11.9961 10.8801 12.6297C11.0005 12.9365 11.1505 13.2051 11.2718 13.3981Z" fill="#777B92"/>
</svg>
