<svg width="16" height="16" viewBox="0 0 16 16" fill="none" xmlns="http://www.w3.org/2000/svg">
<path fill-rule="evenodd" clip-rule="evenodd" d="M8.32009 2.91765C8.13467 2.76313 7.86533 2.76313 7.67991 2.91765L2.67991 7.08431C2.56591 7.17931 2.5 7.32003 2.5 7.46842V13C2.5 13.2762 2.72386 13.5 3 13.5H13C13.2761 13.5 13.5 13.2762 13.5 13V7.46842C13.5 7.32003 13.4341 7.17931 13.3201 7.08431L8.32009 2.91765ZM7.03972 2.14943C7.59599 1.68587 8.40401 1.68587 8.96028 2.14943L13.9603 6.31609C14.3023 6.60108 14.5 7.02326 14.5 7.46842V13C14.5 13.8285 13.8284 14.5 13 14.5H3C2.17157 14.5 1.5 13.8285 1.5 13V7.46842C1.5 7.02325 1.69773 6.60108 2.03972 6.31609L7.03972 2.14943Z" fill="#777B92"/>
</svg>
