<svg width="16" height="16" viewBox="0 0 16 16" fill="none" xmlns="http://www.w3.org/2000/svg">
<path d="M4.49998 1.5C5.58748 1.5 6.43635 1.77331 7.08984 2.20898C7.4613 2.45662 7.75999 2.75023 7.99997 3.06074C8.23997 2.75023 8.53869 2.45661 8.91016 2.20897C9.56367 1.77331 10.4125 1.5 11.5 1.5C12.6306 1.5 13.6435 1.92708 14.37 2.72616C15.0938 3.52238 15.5 4.65016 15.5 6C15.5 8.22369 14.1088 9.94165 12.5768 11.2648C11.8044 11.9319 10.9724 12.5188 10.2202 13.0345C10.0877 13.1254 9.95841 13.2135 9.8326 13.2993C9.23225 13.7087 8.7122 14.0633 8.31654 14.387C8.13235 14.5377 7.86748 14.5377 7.6833 14.387C7.28764 14.0632 6.76741 13.7085 6.16702 13.2991C6.04131 13.2134 5.91208 13.1253 5.77973 13.0345C5.02757 12.5188 4.19558 11.9319 3.42318 11.2648C1.89115 9.94165 0.5 8.22369 0.5 6C0.5 4.65016 0.906191 3.52238 1.63001 2.72617C2.35645 1.92708 3.36935 1.5 4.49998 1.5Z" fill="#777B92"/>
</svg>
