<svg width="16" height="16" viewBox="0 0 16 16" fill="none" xmlns="http://www.w3.org/2000/svg">
<path fill-rule="evenodd" clip-rule="evenodd" d="M2 2.5H14C14.8284 2.5 15.5 3.17157 15.5 4V12C15.5 12.8284 14.8284 13.5 14 13.5H2C1.17157 13.5 0.5 12.8284 0.5 12V4C0.5 3.17157 1.17157 2.5 2 2.5ZM1.5 4.10814V12C1.5 12.2761 1.72386 12.5 2 12.5H14C14.2761 12.5 14.5 12.2761 14.5 12V4.10821L8.85386 8.01707C8.34019 8.37269 7.6599 8.37269 7.14623 8.01707L1.5 4.10814ZM13.6217 3.5H2.37839L7.71544 7.19488C7.88666 7.31342 8.11343 7.31342 8.28465 7.19488L13.6217 3.5Z" fill="#777B92"/>
</svg>
