<svg width="16" height="16" viewBox="0 0 16 16" fill="none" xmlns="http://www.w3.org/2000/svg">
<path fill-rule="evenodd" clip-rule="evenodd" d="M8 3.5C7.17157 3.5 6.5 4.17157 6.5 5C6.5 5.27614 6.27614 5.5 6 5.5C5.72386 5.5 5.5 5.27614 5.5 5C5.5 3.61929 6.61929 2.5 8 2.5C9.38071 2.5 10.5 3.61929 10.5 5C10.5 5.94704 9.97322 6.77033 9.19906 7.19411C8.99085 7.30809 8.80533 7.44639 8.67735 7.59561C8.55156 7.74228 8.5 7.87597 8.5 8V9C8.5 9.27614 8.27614 9.5 8 9.5C7.72386 9.5 7.5 9.27614 7.5 9V8C7.5 7.57174 7.6857 7.2158 7.91828 6.9446C8.14868 6.67595 8.44264 6.46816 8.71888 6.31694C9.18543 6.06154 9.5 5.56715 9.5 5C9.5 4.17157 8.82843 3.5 8 3.5Z" fill="#777B92"/>
<path fill-rule="evenodd" clip-rule="evenodd" d="M8 11C7.72386 11 7.5 10.7761 7.5 10.5C7.5 10.2239 7.72386 10 8 10C8.27614 10 8.5 10.2239 8.5 10.5C8.5 10.7761 8.27614 11 8 11Z" fill="#777B92"/>
<path fill-rule="evenodd" clip-rule="evenodd" d="M0.5 2C0.5 1.17157 1.17157 0.5 2 0.5H14C14.8284 0.5 15.5 1.17157 15.5 2V12C15.5 12.8284 14.8284 13.5 14 13.5H4.30278C4.20406 13.5 4.10756 13.5292 4.02543 13.584L1.27735 15.416C1.12392 15.5183 0.92665 15.5278 0.764071 15.4408C0.601492 15.3538 0.5 15.1844 0.5 15V2ZM2 1.5C1.72386 1.5 1.5 1.72386 1.5 2V14.0657L3.47073 12.7519C3.71713 12.5877 4.00664 12.5 4.30278 12.5H14C14.2761 12.5 14.5 12.2761 14.5 12V2C14.5 1.72386 14.2761 1.5 14 1.5H2Z" fill="#777B92"/>
</svg>
