<svg width="16" height="16" viewBox="0 0 16 16" fill="none" xmlns="http://www.w3.org/2000/svg">
<path fill-rule="evenodd" clip-rule="evenodd" d="M9.80866 1.53807C9.9955 1.46068 10.2106 1.50346 10.3536 1.64646L15.3536 6.64646C15.5488 6.84172 15.5488 7.15831 15.3536 7.35357L10.3536 12.3536C10.2106 12.4966 9.9955 12.5393 9.80866 12.462C9.62182 12.3846 9.5 12.2022 9.5 12V9.48851C9.35392 9.48976 9.17719 9.49477 8.97538 9.50692C8.35398 9.54436 7.50154 9.64924 6.57691 9.91769C4.7297 10.454 2.62625 11.6306 1.45518 14.2069C1.35779 14.4212 1.12417 14.5385 0.89415 14.4887C0.664132 14.4389 0.5 14.2354 0.5 14C0.5 11.6774 1.08619 9.89881 1.99052 8.54546C2.89263 7.19543 4.09162 6.29774 5.27515 5.70186C6.45686 5.1069 7.6326 4.8078 8.50878 4.6567C8.90753 4.58794 9.24685 4.54938 9.5 4.52775V2.00001C9.5 1.79778 9.62182 1.61547 9.80866 1.53807ZM10.0035 5.5L10.0009 5.50004L9.98566 5.50033C9.97138 5.50066 9.94896 5.5013 9.91893 5.5025C9.85887 5.5049 9.76847 5.50958 9.6521 5.51865C9.41919 5.53679 9.08321 5.5724 8.67872 5.64216C7.8674 5.78207 6.79314 6.05719 5.72485 6.59504C4.65838 7.13198 3.60737 7.92569 2.82198 9.10105C2.31659 9.85738 1.91296 10.7839 1.69022 11.9228C3.02375 10.2662 4.76615 9.4021 6.29809 8.95734C7.31096 8.66328 8.23977 8.54942 8.91525 8.50873C9.25359 8.48835 9.53006 8.48623 9.72384 8.48934C9.82078 8.49089 9.89717 8.49376 9.95041 8.49632C9.97704 8.4976 9.9979 8.49881 10.0127 8.49973L10.0302 8.50089L10.0355 8.50127L10.0372 8.5014C10.0375 8.50142 10.0383 8.50149 10 9.00001L10.0383 8.50149C10.2988 8.52153 10.5 8.73875 10.5 9.00001V10.7929L14.2929 7.00001L10.5 3.20712V5.00001C10.5 5.27462 10.278 5.49781 10.0035 5.5C10.0035 5.5 10.0035 5.5 10.0035 5.5Z" fill="#777B92"/>
</svg>
