<svg width="16" height="16" viewBox="0 0 16 16" fill="none" xmlns="http://www.w3.org/2000/svg">
<path fill-rule="evenodd" clip-rule="evenodd" d="M8 4.5C8.27614 4.5 8.5 4.72386 8.5 5V6.5H10C10.2761 6.5 10.5 6.72386 10.5 7C10.5 7.27614 10.2761 7.5 10 7.5H8.5V9C8.5 9.27614 8.27614 9.5 8 9.5C7.72386 9.5 7.5 9.27614 7.5 9V7.5H6C5.72386 7.5 5.5 7.27614 5.5 7C5.5 6.72386 5.72386 6.5 6 6.5H7.5V5C7.5 4.72386 7.72386 4.5 8 4.5Z" fill="#777B92"/>
<path fill-rule="evenodd" clip-rule="evenodd" d="M2 0.5H14C14.8284 0.5 15.5 1.17157 15.5 2V12C15.5 12.8284 14.8284 13.5 14 13.5H4.30278C4.20406 13.5 4.10756 13.5292 4.02543 13.584L1.27735 15.416C1.12392 15.5183 0.92665 15.5278 0.764071 15.4408C0.601492 15.3538 0.5 15.1844 0.5 15V2C0.5 1.17157 1.17157 0.5 2 0.5ZM1.5 2V14.0657L3.47073 12.7519C3.71713 12.5877 4.00664 12.5 4.30278 12.5H14C14.2761 12.5 14.5 12.2761 14.5 12V2C14.5 1.72386 14.2761 1.5 14 1.5H2C1.72386 1.5 1.5 1.72386 1.5 2Z" fill="#777B92"/>
</svg>
