<svg width="16" height="16" viewBox="0 0 16 16" fill="none" xmlns="http://www.w3.org/2000/svg">
<path fill-rule="evenodd" clip-rule="evenodd" d="M8.74421 0.849369L14.7442 4.27794C15.2116 4.545 15.5 5.04202 15.5 5.58031V14C15.5 14.8284 14.8284 15.5 14 15.5H2C1.17157 15.5 0.5 14.8284 0.5 14V5.5803C0.5 5.04202 0.788429 4.545 1.25579 4.27794L7.25579 0.849369C7.71694 0.585855 8.28306 0.585855 8.74421 0.849369ZM7.75193 1.71761L1.82264 5.10578L7.76305 8.30445C7.91104 8.38414 8.08916 8.38414 8.23715 8.30445L14.1775 5.10583L8.24807 1.71761C8.09435 1.62977 7.90565 1.62977 7.75193 1.71761ZM1.5 6.0678V14C1.5 14.2761 1.72386 14.5 2 14.5H14C14.2761 14.5 14.5 14.2761 14.5 14V6.0679L8.71125 9.18493C8.26728 9.42398 7.73291 9.42398 7.28895 9.18493L1.5 6.0678Z" fill="#777B92"/>
</svg>
