<svg width="16" height="16" viewBox="0 0 16 16" fill="none" xmlns="http://www.w3.org/2000/svg">
<path fill-rule="evenodd" clip-rule="evenodd" d="M8 3.5C8.27614 3.5 8.5 3.72386 8.5 4V9.5C8.5 9.77614 8.27614 10 8 10C7.72386 10 7.5 9.77614 7.5 9.5V4C7.5 3.72386 7.72386 3.5 8 3.5Z" fill="#777B92"/>
<path fill-rule="evenodd" clip-rule="evenodd" d="M8 12C7.72386 12 7.5 11.7761 7.5 11.5C7.5 11.2239 7.72386 11 8 11C8.27614 11 8.5 11.2239 8.5 11.5C8.5 11.7761 8.27614 12 8 12Z" fill="#777B92"/>
<path fill-rule="evenodd" clip-rule="evenodd" d="M4.35355 0.93934C4.63486 0.658035 5.01639 0.5 5.41421 0.5H10.5858C10.9836 0.5 11.3651 0.658035 11.6464 0.93934L15.0607 4.35355C15.342 4.63486 15.5 5.01639 15.5 5.41421V10.5858C15.5 10.9836 15.342 11.3651 15.0607 11.6464L11.6464 15.0607C11.3651 15.342 10.9836 15.5 10.5858 15.5H5.41421C5.01639 15.5 4.63486 15.342 4.35355 15.0607L0.93934 11.6464C0.658035 11.3651 0.5 10.9836 0.5 10.5858V5.41421C0.5 5.01639 0.658035 4.63486 0.93934 4.35355L4.35355 0.93934ZM5.41421 1.5C5.28161 1.5 5.15443 1.55268 5.06066 1.64645L1.64645 5.06066C1.55268 5.15443 1.5 5.28161 1.5 5.41421V10.5858C1.5 10.7184 1.55268 10.8456 1.64645 10.9393L5.06066 14.3536C5.15443 14.4473 5.28161 14.5 5.41421 14.5H10.5858C10.7184 14.5 10.8456 14.4473 10.9393 14.3536L14.3536 10.9393C14.4473 10.8456 14.5 10.7184 14.5 10.5858V5.41421C14.5 5.28161 14.4473 5.15443 14.3536 5.06066L10.9393 1.64645C10.8456 1.55268 10.7184 1.5 10.5858 1.5H5.41421Z" fill="#777B92"/>
</svg>
