<svg width="16" height="16" viewBox="0 0 16 16" fill="none" xmlns="http://www.w3.org/2000/svg">
<path fill-rule="evenodd" clip-rule="evenodd" d="M8 8.5C8.27614 8.5 8.5 8.72386 8.5 9V10.5H10C10.2761 10.5 10.5 10.7239 10.5 11C10.5 11.2761 10.2761 11.5 10 11.5H8.5V13C8.5 13.2761 8.27614 13.5 8 13.5C7.72386 13.5 7.5 13.2761 7.5 13V11.5H6C5.72386 11.5 5.5 11.2761 5.5 11C5.5 10.7239 5.72386 10.5 6 10.5H7.5V9C7.5 8.72386 7.72386 8.5 8 8.5Z" fill="#777B92"/>
<path fill-rule="evenodd" clip-rule="evenodd" d="M8.44721 0.776393L15.4472 14.7764C15.5247 14.9314 15.5164 15.1155 15.4253 15.2629C15.3342 15.4103 15.1733 15.5 15 15.5H1C0.826712 15.5 0.665778 15.4103 0.574675 15.2629C0.483572 15.1155 0.47529 14.9314 0.552787 14.7764L7.55279 0.776393C7.63748 0.607001 7.81061 0.5 8 0.5C8.18939 0.5 8.36252 0.607001 8.44721 0.776393ZM8 2.11803L1.80902 14.5H14.191L8 2.11803Z" fill="#777B92"/>
</svg>
