<svg width="16" height="16" viewBox="0 0 16 16" fill="none" xmlns="http://www.w3.org/2000/svg">
<path fill-rule="evenodd" clip-rule="evenodd" d="M4.5 5C4.5 5.27614 4.27614 5.5 4 5.5C3.72386 5.5 3.5 5.27614 3.5 5C3.5 2.51472 5.51472 0.5 8 0.5C10.4853 0.5 12.5 2.51472 12.5 5C12.5 7.1016 11.0598 8.86556 9.11324 9.36112C8.72471 9.46003 8.5 9.74544 8.5 10V11.5C8.5 11.7761 8.27614 12 8 12C7.72386 12 7.5 11.7761 7.5 11.5V10C7.5 9.14999 8.18463 8.56563 8.86653 8.39203C10.3807 8.00656 11.5 6.63337 11.5 5C11.5 3.067 9.933 1.5 8 1.5C6.067 1.5 4.5 3.067 4.5 5Z" fill="#777B92"/>
<path fill-rule="evenodd" clip-rule="evenodd" d="M8 15C7.72386 15 7.5 14.7761 7.5 14.5C7.5 14.2239 7.72386 14 8 14C8.27614 14 8.5 14.2239 8.5 14.5C8.5 14.7761 8.27614 15 8 15Z" fill="#777B92"/>
</svg>
