<svg width="16" height="16" viewBox="0 0 16 16" fill="none" xmlns="http://www.w3.org/2000/svg">
<path fill-rule="evenodd" clip-rule="evenodd" d="M8 4C8.27614 4 8.5 4.22386 8.5 4.5V9.5C8.5 9.77614 8.27614 10 8 10C7.72386 10 7.5 9.77614 7.5 9.5V4.5C7.5 4.22386 7.72386 4 8 4Z" fill="#777B92"/>
<path fill-rule="evenodd" clip-rule="evenodd" d="M8 12C7.72386 12 7.5 11.7761 7.5 11.5C7.5 11.2239 7.72386 11 8 11C8.27614 11 8.5 11.2239 8.5 11.5C8.5 11.7761 8.27614 12 8 12Z" fill="#777B92"/>
<path fill-rule="evenodd" clip-rule="evenodd" d="M0.5 8C0.5 3.85786 3.85786 0.5 8 0.5C12.1421 0.5 15.5 3.85786 15.5 8C15.5 12.1421 12.1421 15.5 8 15.5C3.85786 15.5 0.5 12.1421 0.5 8ZM8 1.5C4.41015 1.5 1.5 4.41015 1.5 8C1.5 11.5899 4.41015 14.5 8 14.5C11.5899 14.5 14.5 11.5899 14.5 8C14.5 4.41015 11.5899 1.5 8 1.5Z" fill="#777B92"/>
</svg>
