<svg width="16" height="16" viewBox="0 0 16 16" fill="none" xmlns="http://www.w3.org/2000/svg">
<path fill-rule="evenodd" clip-rule="evenodd" d="M2.5 2.22094V10.0605C3.10686 9.79309 3.78867 9.74198 4.47774 9.79762C5.45541 9.87656 6.54104 10.1788 7.59854 10.4731C7.65206 10.488 7.70551 10.5029 7.75887 10.5177C8.8915 10.8325 9.99999 11.1302 11.0357 11.2042C11.9686 11.271 12.7967 11.1522 13.5 10.7304V2.84968C12.6983 3.18959 11.8307 3.26365 10.9643 3.20169C9.81251 3.11931 8.6085 2.79173 7.49113 2.48122C7.45212 2.47038 7.41323 2.45957 7.37446 2.44879C6.27783 2.14382 5.27652 1.86537 4.39726 1.79437C3.58562 1.72883 2.96379 1.84774 2.5 2.22094ZM2.5 11.2209V14.9991C2.5 15.2752 2.27614 15.4991 2 15.4991C1.72386 15.4991 1.5 15.2752 1.5 14.9991V1.99896C1.5 1.86635 1.55268 1.73917 1.64645 1.6454C2.41987 0.871982 3.44059 0.71387 4.47774 0.797616C5.45541 0.876558 6.54104 1.17876 7.59853 1.47312C7.65205 1.48802 7.70551 1.5029 7.75887 1.51773C8.8915 1.83248 9.99999 2.13016 11.0357 2.20423C12.0629 2.2777 12.9629 2.1263 13.7094 1.59313C13.8618 1.48427 14.0623 1.46971 14.2288 1.55541C14.3953 1.64112 14.5 1.8127 14.5 2V11C14.5 11.1615 14.422 11.313 14.2906 11.4069C13.2871 12.1237 12.1246 12.2847 10.9643 12.2017C9.81251 12.1193 8.6085 11.7917 7.49113 11.4812C7.45212 11.4704 7.41324 11.4596 7.37447 11.4488C6.27784 11.1438 5.27652 10.8654 4.39726 10.7944C3.58562 10.7288 2.96379 10.8477 2.5 11.2209Z" fill="#777B92"/>
</svg>
