<svg width="16" height="16" viewBox="0 0 16 16" fill="none" xmlns="http://www.w3.org/2000/svg">
<path fill-rule="evenodd" clip-rule="evenodd" d="M8 5C7.17157 5 6.5 5.67157 6.5 6.5C6.5 6.77614 6.27614 7 6 7C5.72386 7 5.5 6.77614 5.5 6.5C5.5 5.11929 6.61929 4 8 4C9.38071 4 10.5 5.11929 10.5 6.5C10.5 7.66786 9.69968 8.64753 8.6183 8.92283C8.57133 8.93479 8.53418 8.95907 8.5138 8.98105C8.50452 8.99107 8.50112 8.99793 8.50021 9.00007L8.5 9.5C8.5 9.77614 8.27614 10 8 10C7.72386 10 7.5 9.77614 7.5 9.5V9C7.5 8.42613 7.95729 8.05921 8.37159 7.95374C9.02056 7.78853 9.5 7.19963 9.5 6.5C9.5 5.67157 8.82843 5 8 5Z" fill="#777B92"/>
<path fill-rule="evenodd" clip-rule="evenodd" d="M8 12C7.72386 12 7.5 11.7761 7.5 11.5C7.5 11.2239 7.72386 11 8 11C8.27614 11 8.5 11.2239 8.5 11.5C8.5 11.7761 8.27614 12 8 12Z" fill="#777B92"/>
<path fill-rule="evenodd" clip-rule="evenodd" d="M0.833008 8.00001C0.833008 4.04197 4.04163 0.833344 7.99967 0.833344C11.9577 0.833344 15.1663 4.04197 15.1663 8.00001C15.1663 11.9581 11.9577 15.1667 7.99967 15.1667C4.04163 15.1667 0.833008 11.9581 0.833008 8.00001ZM7.99967 1.83334C4.59392 1.83334 1.83301 4.59425 1.83301 8.00001C1.83301 11.4058 4.59392 14.1667 7.99967 14.1667C11.4054 14.1667 14.1663 11.4058 14.1663 8.00001C14.1663 4.59425 11.4054 1.83334 7.99967 1.83334Z" fill="#777B92"/>
</svg>
