<svg width="16" height="16" viewBox="0 0 16 16" fill="none" xmlns="http://www.w3.org/2000/svg">
<path fill-rule="evenodd" clip-rule="evenodd" d="M5.44732 0.776396C5.57082 1.02339 5.47071 1.32372 5.22372 1.44722L3.22372 2.44722C2.97673 2.57071 2.67639 2.4706 2.5529 2.22361C2.4294 1.97662 2.52951 1.67628 2.7765 1.55279L4.7765 0.552789C5.02349 0.429294 5.32383 0.529407 5.44732 0.776396Z" fill="#777B92"/>
<path fill-rule="evenodd" clip-rule="evenodd" d="M10.5529 0.776396C10.6764 0.529407 10.9767 0.429294 11.2237 0.552789L13.2237 1.55279C13.4707 1.67628 13.5708 1.97662 13.4473 2.22361C13.3238 2.4706 13.0235 2.57071 12.7765 2.44722L10.7765 1.44722C10.5295 1.32372 10.4294 1.02339 10.5529 0.776396Z" fill="#777B92"/>
<path fill-rule="evenodd" clip-rule="evenodd" d="M13 13.5H10.45C10.2184 14.6411 9.20948 15.5 8 15.5C6.79052 15.5 5.78164 14.6411 5.55001 13.5H3C2.82671 13.5 2.66578 13.4103 2.57468 13.2629C2.48357 13.1155 2.47529 12.9314 2.55279 12.7764L3.44721 10.9875C3.48193 10.9181 3.5 10.8416 3.5 10.7639V7C3.5 4.51472 5.51472 2.5 8 2.5C10.4853 2.5 12.5 4.51472 12.5 7V10.7639C12.5 10.8416 12.5181 10.9181 12.5528 10.9875L13.4472 12.7764C13.5247 12.9314 13.5164 13.1155 13.4253 13.2629C13.3342 13.4103 13.1733 13.5 13 13.5ZM8 14.5C8.65311 14.5 9.20873 14.0826 9.41465 13.5L6.58535 13.5C6.79127 14.0826 7.34689 14.5 8 14.5Z" fill="#777B92"/>
</svg>
