<svg width="16" height="16" viewBox="0 0 16 16" fill="none" xmlns="http://www.w3.org/2000/svg">
<path fill-rule="evenodd" clip-rule="evenodd" d="M5.41421 0.5H10.5858C10.9836 0.5 11.3651 0.658035 11.6464 0.93934L15.0607 4.35355C15.342 4.63486 15.5 5.01639 15.5 5.41421V10.5858C15.5 10.9836 15.342 11.3651 15.0607 11.6464L11.6464 15.0607C11.3651 15.342 10.9836 15.5 10.5858 15.5H5.41421C5.01639 15.5 4.63486 15.342 4.35355 15.0607L0.93934 11.6464C0.658035 11.3651 0.5 10.9836 0.5 10.5858V5.41421C0.5 5.01639 0.658035 4.63486 0.93934 4.35355L4.35355 0.93934C4.63486 0.658035 5.01639 0.5 5.41421 0.5ZM8.5 4.5C8.5 4.22386 8.27614 4 8 4C7.72386 4 7.5 4.22386 7.5 4.5V9.5C7.5 9.77614 7.72386 10 8 10C8.27614 10 8.5 9.77614 8.5 9.5V4.5ZM8 12C8.27614 12 8.5 11.7761 8.5 11.5C8.5 11.2239 8.27614 11 8 11C7.72386 11 7.5 11.2239 7.5 11.5C7.5 11.7761 7.72386 12 8 12Z" fill="#777B92"/>
</svg>
