<svg width="16" height="16" viewBox="0 0 16 16" fill="none" xmlns="http://www.w3.org/2000/svg">
<path fill-rule="evenodd" clip-rule="evenodd" d="M8 7C8.27614 7 8.5 7.22386 8.5 7.5V10.5C8.5 10.7761 8.27614 11 8 11C7.72386 11 7.5 10.7761 7.5 10.5V7.5C7.5 7.22386 7.72386 7 8 7Z" fill="#777B92"/>
<path fill-rule="evenodd" clip-rule="evenodd" d="M8 6C7.72386 6 7.5 5.77614 7.5 5.5C7.5 5.22386 7.72386 5 8 5C8.27614 5 8.5 5.22386 8.5 5.5C8.5 5.77614 8.27614 6 8 6Z" fill="#777B92"/>
<path fill-rule="evenodd" clip-rule="evenodd" d="M2.5 8C2.5 4.96243 4.96243 2.5 8 2.5C11.0376 2.5 13.5 4.96243 13.5 8C13.5 11.0376 11.0376 13.5 8 13.5C4.96243 13.5 2.5 11.0376 2.5 8ZM8 3.5C5.51472 3.5 3.5 5.51472 3.5 8C3.5 10.4853 5.51472 12.5 8 12.5C10.4853 12.5 12.5 10.4853 12.5 8C12.5 5.51472 10.4853 3.5 8 3.5Z" fill="#777B92"/>
</svg>
