<svg width="16" height="16" viewBox="0 0 16 16" fill="none" xmlns="http://www.w3.org/2000/svg">
<path fill-rule="evenodd" clip-rule="evenodd" d="M2.5 6C2.5 2.96243 4.96243 0.5 8 0.5C11.0376 0.5 13.5 2.96243 13.5 6V10.7639C13.5 10.8416 13.5181 10.9181 13.5528 10.9875L14.4472 12.7764C14.5247 12.9314 14.5164 13.1155 14.4253 13.2629C14.3342 13.4103 14.1733 13.5 14 13.5H10.45C10.2184 14.6411 9.20948 15.5 8 15.5C6.79052 15.5 5.78164 14.6411 5.55001 13.5H2C1.82671 13.5 1.66578 13.4103 1.57468 13.2629C1.48357 13.1155 1.47529 12.9314 1.55279 12.7764L2.44721 10.9875C2.48193 10.9181 2.5 10.8416 2.5 10.7639V6ZM6.58535 13.5C6.79127 14.0826 7.34689 14.5 8 14.5C8.65311 14.5 9.20873 14.0826 9.41465 13.5L6.58535 13.5Z" fill="#777B92"/>
</svg>
