<svg width="16" height="16" viewBox="0 0 16 16" fill="none" xmlns="http://www.w3.org/2000/svg">
<path fill-rule="evenodd" clip-rule="evenodd" d="M6 2.5C6.20445 2.5 6.38831 2.62448 6.46424 2.8143L10 11.6537L11.5358 7.8143C11.6117 7.62448 11.7955 7.5 12 7.5H14C14.2761 7.5 14.5 7.72386 14.5 8C14.5 8.27614 14.2761 8.5 14 8.5H12.3385L10.4642 13.1857C10.3883 13.3755 10.2045 13.5 10 13.5C9.79555 13.5 9.61169 13.3755 9.53576 13.1857L6 4.34629L4.46424 8.1857C4.38831 8.37552 4.20445 8.5 4 8.5H2C1.72386 8.5 1.5 8.27614 1.5 8C1.5 7.72386 1.72386 7.5 2 7.5H3.66148L5.53576 2.8143C5.61169 2.62448 5.79555 2.5 6 2.5Z" fill="#777B92"/>
</svg>
