<svg width="16" height="16" viewBox="0 0 16 16" fill="none" xmlns="http://www.w3.org/2000/svg">
<path fill-rule="evenodd" clip-rule="evenodd" d="M4.39726 10.7953C3.58562 10.7298 2.96379 10.8487 2.5 11.2219V15C2.5 15.2761 2.27614 15.5 2 15.5C1.72386 15.5 1.5 15.2761 1.5 15V1.99987C1.5 1.86726 1.55268 1.74009 1.64645 1.64632C2.41987 0.872898 3.44059 0.714785 4.47774 0.798531C5.45541 0.877474 6.54104 1.17967 7.59853 1.47404L7.75887 1.51865C8.8915 1.8334 9.99999 2.13108 11.0357 2.20515C12.0629 2.27861 12.9629 2.12722 13.7094 1.59405C13.8618 1.48518 14.0623 1.47063 14.2288 1.55633C14.3953 1.64203 14.5 1.81362 14.5 2.00091V11.0009C14.5 11.1624 14.422 11.3139 14.2906 11.4078C13.2871 12.1246 12.1246 12.2856 10.9643 12.2026C9.81251 12.1202 8.6085 11.7926 7.49113 11.4821L7.37447 11.4497C6.27784 11.1447 5.27652 10.8663 4.39726 10.7953Z" fill="#777B92"/>
</svg>
