<svg width="24" height="24" viewBox="0 0 24 24" fill="none" xmlns="http://www.w3.org/2000/svg">
<path fill-rule="evenodd" clip-rule="evenodd" d="M21.6 5.20006C22.0418 5.53143 22.1314 6.15823 21.8 6.60006L12.8 18.6001C12.6111 18.8519 12.3148 19.0001 12 19.0001C11.6852 19.0001 11.3889 18.8519 11.2 18.6001L4 9.00006V11.0001C4 11.5523 3.55228 12.0001 3 12.0001C2.44772 12.0001 2 11.5523 2 11.0001V6.00006C2 5.44777 2.44772 5.00006 3 5.00006H8C8.55228 5.00006 9 5.44777 9 6.00006C9 6.55234 8.55228 7.00006 8 7.00006H5L12 16.3334L20.2 5.40006C20.5314 4.95823 21.1582 4.86869 21.6 5.20006Z" fill="#777B92"/>
</svg>
