<svg width="22" height="22" viewBox="0 0 22 22" fill="none" xmlns="http://www.w3.org/2000/svg">
<path d="M15.269 21C15.0033 21 14.7484 20.8946 14.5605 20.7069C14.3726 20.5192 14.2671 20.2646 14.2671 19.9991V17.3969C14.2982 17.0976 14.2661 16.795 14.1729 16.5089C14.0798 16.2227 13.9275 15.9592 13.726 15.7355C13.6013 15.6003 13.5162 15.4335 13.4802 15.2532C13.4441 15.073 13.4584 14.8863 13.5215 14.7136C13.5847 14.541 13.6942 14.389 13.8381 14.2744C13.982 14.1598 14.1546 14.0871 14.3372 14.064C16.7819 13.7738 19.0362 12.9931 19.0362 8.75948C19.037 7.96888 18.8034 7.19575 18.3649 6.53757C17.9603 5.93168 17.8126 5.19028 17.9541 4.4758C18.0444 4.00972 18.0444 3.53067 17.9541 3.06459C17.2039 3.31798 16.4975 3.68599 15.8601 4.15552C15.7396 4.24101 15.6017 4.29881 15.4562 4.32476C15.3106 4.35072 15.1612 4.34419 15.0185 4.30565C13.2104 3.79527 11.2961 3.79527 9.48794 4.30565C9.34525 4.34419 9.1958 4.35072 9.05029 4.32476C8.90479 4.29881 8.76684 4.24101 8.64633 4.15552C8.00503 3.68055 7.29116 3.31217 6.53228 3.06459C6.437 3.53018 6.437 4.01021 6.53228 4.4758C6.66362 5.19927 6.5092 5.94544 6.10146 6.55759C5.66488 7.22038 5.43157 7.99611 5.43017 8.78951C5.43017 12.6829 7.31378 13.7237 10.1392 14.0841C10.3241 14.107 10.4989 14.1809 10.644 14.2976C10.7891 14.4143 10.8988 14.5691 10.9608 14.7446C11.019 14.9149 11.0302 15.0978 10.9932 15.2739C10.9562 15.4501 10.8723 15.613 10.7503 15.7455C10.5555 15.9536 10.4059 16.1997 10.3111 16.4685C10.2162 16.7372 10.1782 17.0227 10.1993 17.3068V19.9991C10.1993 20.2646 10.0937 20.5192 9.90584 20.7069C9.71795 20.8946 9.4631 21 9.19738 21C8.93165 21 8.67681 20.8946 8.48892 20.7069C8.30102 20.5192 8.19546 20.2646 8.19546 19.9991V19.4286C7.21094 19.5418 6.2137 19.41 5.29249 19.045C4.37128 18.6801 3.55468 18.0933 2.91536 17.3369C2.58674 16.973 2.19246 16.6742 1.75314 16.4561C1.62551 16.4232 1.50562 16.3656 1.40029 16.2864C1.29497 16.2073 1.20628 16.1082 1.13929 15.9948C1.07231 15.8814 1.02833 15.756 1.00988 15.6256C0.991432 15.4953 0.998866 15.3625 1.03176 15.235C1.06465 15.1076 1.12236 14.9878 1.20159 14.8826C1.28082 14.7774 1.38002 14.6888 1.49353 14.6218C1.60703 14.5549 1.73262 14.511 1.86312 14.4926C1.99362 14.4741 2.12647 14.4816 2.2541 14.5144C3.02482 14.7949 3.71349 15.2627 4.25793 15.8756C5.25985 16.8765 6.26176 17.7572 8.1654 17.3969C8.13193 16.8595 8.2104 16.3211 8.39585 15.8155C6.3319 15.2951 3.38626 13.8138 3.38626 8.80952C3.38362 7.62414 3.73223 6.46448 4.38818 5.47666C4.51002 5.29431 4.55668 5.07201 4.51843 4.85613C4.31597 3.77577 4.4308 2.65997 4.84906 1.64337C4.90589 1.50781 4.99191 1.38643 5.101 1.28783C5.21009 1.18923 5.33958 1.11584 5.48027 1.07288C5.82092 0.972789 7.04326 0.772617 9.35769 2.27391C11.2312 1.82352 13.185 1.82352 15.0586 2.27391C17.373 0.772617 18.5954 0.962781 18.926 1.07288C19.0667 1.11584 19.1962 1.18923 19.3053 1.28783C19.4143 1.38643 19.5004 1.50781 19.5572 1.64337C19.9763 2.66328 20.0911 3.78251 19.8878 4.86614C19.8673 4.96377 19.8665 5.06451 19.8854 5.16246C19.9044 5.26042 19.9426 5.35362 19.998 5.43663C20.6559 6.42729 21.0046 7.5907 21 8.7795C21 13.8539 18.0744 15.3251 15.9904 15.7855C16.174 16.3226 16.2489 16.8907 16.2108 17.457V19.9991C16.2113 20.2545 16.114 20.5004 15.9389 20.6864C15.7638 20.8725 15.5242 20.9847 15.269 21Z" fill="#97A3BA"/>
</svg>
