<svg width="22" height="22" viewBox="0 0 22 22" fill="none" xmlns="http://www.w3.org/2000/svg">
<path d="M11 5C11.2652 5 11.5196 4.89464 11.7071 4.70711C11.8946 4.51957 12 4.26522 12 4V2C12 1.73478 11.8946 1.48043 11.7071 1.29289C11.5196 1.10536 11.2652 1 11 1C10.7348 1 10.4804 1.10536 10.2929 1.29289C10.1054 1.48043 10 1.73478 10 2V4C10 4.26522 10.1054 4.51957 10.2929 4.70711C10.4804 4.89464 10.7348 5 11 5Z" fill="#97A3BA"/>
<path d="M20 10H18C17.7348 10 17.4804 10.1054 17.2929 10.2929C17.1054 10.4804 17 10.7348 17 11C17 11.2652 17.1054 11.5196 17.2929 11.7071C17.4804 11.8946 17.7348 12 18 12H20C20.2652 12 20.5196 11.8946 20.7071 11.7071C20.8946 11.5196 21 11.2652 21 11C21 10.7348 20.8946 10.4804 20.7071 10.2929C20.5196 10.1054 20.2652 10 20 10Z" fill="#97A3BA"/>
<path d="M4.70711 10.2929C4.89464 10.4804 5 10.7348 5 11C5 11.2652 4.89464 11.5196 4.70711 11.7071C4.51957 11.8946 4.26522 12 4 12H2C1.73478 12 1.48043 11.8946 1.29289 11.7071C1.10536 11.5196 1 11.2652 1 11C1 10.7348 1.10536 10.4804 1.29289 10.2929C1.48043 10.1054 1.73478 10 2 10H4C4.26522 10 4.51957 10.1054 4.70711 10.2929Z" fill="#97A3BA"/>
<path d="M5.22023 4.00019C5.0253 3.81587 4.76512 3.71653 4.49695 3.72403C4.22877 3.73153 3.97456 3.84526 3.79023 4.04019C3.60591 4.23513 3.50657 4.4953 3.51407 4.76348C3.52157 5.03165 3.6353 5.28587 3.83023 5.47019L5.27023 6.86019C5.36687 6.9535 5.48131 7.02639 5.60673 7.07449C5.73215 7.1226 5.86598 7.14494 6.00023 7.14019C6.13494 7.13968 6.26815 7.11195 6.39187 7.05868C6.5156 7.00541 6.62728 6.92769 6.72023 6.83019C6.90648 6.64283 7.01102 6.38938 7.01102 6.12519C7.01102 5.86101 6.90648 5.60755 6.72023 5.42019L5.22023 4.00019Z" fill="#97A3BA"/>
<path d="M16.6896 6.85975C16.5042 7.03843 16.2571 7.13872 15.9996 7.13975C15.7484 7.12317 15.5128 7.01247 15.3396 6.82975C15.1534 6.64239 15.0488 6.38893 15.0488 6.12475C15.0488 5.86056 15.1534 5.60711 15.3396 5.41975L16.7796 3.99975C16.9774 3.84031 17.2285 3.76214 17.4819 3.78112C17.7352 3.80009 17.9719 3.91479 18.1437 4.10192C18.3156 4.28904 18.4097 4.53457 18.4071 4.78862C18.4045 5.04267 18.3053 5.2862 18.1296 5.46975L16.6896 6.85975Z" fill="#97A3BA"/>
<path d="M11 17C10.7348 17 10.4804 17.1054 10.2929 17.2929C10.1054 17.4804 10 17.7348 10 18V20C10 20.2652 10.1054 20.5196 10.2929 20.7071C10.4804 20.8946 10.7348 21 11 21C11.2652 21 11.5196 20.8946 11.7071 20.7071C11.8946 20.5196 12 20.2652 12 20V18C12 17.7348 11.8946 17.4804 11.7071 17.2929C11.5196 17.1054 11.2652 17 11 17Z" fill="#97A3BA"/>
<path d="M16.0172 14.8595C16.2826 14.8548 16.5389 14.9558 16.7299 15.1401L18.1899 16.5601C18.2836 16.6531 18.358 16.7637 18.4088 16.8855C18.4596 17.0074 18.4857 17.1381 18.4857 17.2701C18.4857 17.4021 18.4596 17.5328 18.4088 17.6547C18.358 17.7765 18.2836 17.8871 18.1899 17.9801C18.0961 18.0758 17.984 18.1516 17.8603 18.2032C17.7367 18.2547 17.6039 18.2809 17.4699 18.2801C17.2124 18.2791 16.9653 18.1788 16.7799 18.0001L15.3399 16.5801C15.1489 16.3958 15.039 16.1431 15.0343 15.8778C15.0296 15.6124 15.1306 15.356 15.3149 15.1651C15.4992 14.9741 15.7519 14.8642 16.0172 14.8595Z" fill="#97A3BA"/>
<path d="M5.26998 15.1399L3.82998 16.5299C3.73625 16.6228 3.66186 16.7334 3.61109 16.8553C3.56032 16.9772 3.53418 17.1079 3.53418 17.2399C3.53418 17.3719 3.56032 17.5026 3.61109 17.6244C3.66186 17.7463 3.73625 17.8569 3.82998 17.9499C3.92377 18.0456 4.03584 18.1214 4.15952 18.173C4.28321 18.2245 4.41599 18.2507 4.54998 18.2499C4.79649 18.252 5.03509 18.1629 5.21998 17.9999L6.65998 16.6099C6.85093 16.4255 6.96085 16.1729 6.96553 15.9076C6.97022 15.6422 6.8693 15.3858 6.68498 15.1949C6.50065 15.0039 6.24802 14.894 5.98266 14.8893C5.71729 14.8846 5.46093 14.9855 5.26998 15.1699V15.1399Z" fill="#97A3BA"/>
<path fill-rule="evenodd" clip-rule="evenodd" d="M8.77772 7.67412C9.43552 7.2346 10.2089 7 11 7C12.0609 7 13.0783 7.42143 13.8284 8.17157C14.5786 8.92172 15 9.93913 15 11C15 11.7911 14.7654 12.5645 14.3259 13.2223C13.8864 13.8801 13.2616 14.3928 12.5307 14.6955C11.7998 14.9983 10.9956 15.0775 10.2196 14.9231C9.44372 14.7688 8.73098 14.3878 8.17157 13.8284C7.61216 13.269 7.2312 12.5563 7.07686 11.7804C6.92252 11.0044 7.00173 10.2002 7.30448 9.46927C7.60723 8.73836 8.11993 8.11365 8.77772 7.67412ZM9.88886 12.6629C10.2178 12.8827 10.6044 13 11 13C11.5304 13 12.0391 12.7893 12.4142 12.4142C12.7893 12.0391 13 11.5304 13 11C13 10.6044 12.8827 10.2178 12.6629 9.88886C12.4432 9.55996 12.1308 9.30362 11.7654 9.15224C11.3999 9.00087 10.9978 8.96126 10.6098 9.03843C10.2219 9.1156 9.86549 9.30608 9.58579 9.58579C9.30608 9.86549 9.1156 10.2219 9.03843 10.6098C8.96126 10.9978 9.00087 11.3999 9.15224 11.7654C9.30362 12.1308 9.55996 12.4432 9.88886 12.6629Z" fill="#97A3BA"/>
</svg>
