<svg width="24" height="24" viewBox="0 0 24 24" fill="none" xmlns="http://www.w3.org/2000/svg">
<path fill-rule="evenodd" clip-rule="evenodd" d="M15 6C15 4.34315 16.3431 3 18 3C19.6569 3 21 4.34315 21 6C21 7.65685 19.6569 9 18 9C17.1811 9 16.4389 8.67191 15.8975 8.14L7.98078 11.6586C7.99348 11.7706 8 11.8845 8 12C8 12.1156 7.99346 12.2297 7.98073 12.3419L15.8972 15.8603C16.4385 15.3282 17.1809 15 18 15C19.6569 15 21 16.3431 21 18C21 19.6569 19.6569 21 18 21C16.3431 21 15 19.6569 15 18C15 17.8846 15.0065 17.7708 15.0192 17.6588L7.10232 14.1402C6.561 14.672 5.81881 15 5 15C3.34315 15 2 13.6569 2 12C2 10.3431 3.34315 9 5 9C5.81898 9 6.56132 9.32817 7.10267 9.86019L15.0192 6.34172C15.0065 6.22957 15 6.11555 15 6ZM18 5C17.4477 5 17 5.44772 17 6C17 6.55228 17.4477 7 18 7C18.5523 7 19 6.55228 19 6C19 5.44772 18.5523 5 18 5ZM5 11C4.44772 11 4 11.4477 4 12C4 12.5523 4.44772 13 5 13C5.55228 13 6 12.5523 6 12C6 11.4477 5.55228 11 5 11ZM17 18C17 18.5523 17.4477 19 18 19C18.5523 19 19 18.5523 19 18C19 17.4477 18.5523 17 18 17C17.4477 17 17 17.4477 17 18Z" fill="#777B92"/>
</svg>
