<svg width="22" height="22" viewBox="0 0 22 22" fill="none" xmlns="http://www.w3.org/2000/svg">
<path fill-rule="evenodd" clip-rule="evenodd" d="M11 2.00003C10.5602 1.9977 10.1096 2.14237 9.71963 2.46738L5.71963 5.80071C5.26365 6.1807 5 6.7436 5 7.33716V17.9998C5 19.1044 5.89543 19.9998 7 19.9998H16.3406C17.1407 19.9998 17.8637 19.523 18.1789 18.7877L20.8383 12.4512C20.945 12.2023 21 11.9343 21 11.6634V8.86878C21 7.76421 20.1046 6.86878 19 6.86878H13V4.00382C13 2.81583 12.0292 2.00547 11 2.00003ZM7 7.33716L11 4.00382V8.86878H19V11.6634L16.3406 17.9998H7L7 7.33716Z" fill="#97A3BA"/>
<path d="M2 6.00003C1.44772 6.00003 1 6.44774 1 7.00003V19C1 19.5523 1.44772 20 2 20C2.55228 20 3 19.5523 3 19V7.00003C3 6.44774 2.55228 6.00003 2 6.00003Z" fill="#97A3BA"/>
</svg>
