<svg width="24" height="24" viewBox="0 0 24 24" fill="none" xmlns="http://www.w3.org/2000/svg">
<path fill-rule="evenodd" clip-rule="evenodd" d="M6.6594 3H16C17.1046 3 18 3.89543 18 5V15.5316C18 16.1252 17.7364 16.6881 17.2804 17.0681L13.2804 20.4014C11.9777 21.4869 10 20.5606 10 18.865V16H4C2.89543 16 2 15.1046 2 14V11.2053C2 10.9344 2.05502 10.6664 2.16171 10.4174L4.82111 4.21216C5.13626 3.47679 5.85934 3 6.6594 3ZM6.6594 5L4 11.2053V14H10C11.1046 14 12 14.8954 12 16V18.865L16 15.5316V5H6.6594Z" fill="#777B92"/>
<path fill-rule="evenodd" clip-rule="evenodd" d="M22 4V16C22 16.5523 21.5523 17 21 17C20.4477 17 20 16.5523 20 16V4C20 3.44772 20.4477 3 21 3C21.5523 3 22 3.44772 22 4Z" fill="#777B92"/>
</svg>
