<svg width="22" height="22" viewBox="0 0 22 22" fill="none" xmlns="http://www.w3.org/2000/svg">
<path d="M11 1C9.02219 1 7.08879 1.58649 5.4443 2.6853C3.79981 3.78412 2.51809 5.3459 1.76121 7.17317C1.00433 9.00043 0.806299 11.0111 1.19215 12.9509C1.578 14.8907 2.53041 16.6725 3.92894 18.0711C5.32746 19.4696 7.10929 20.422 9.0491 20.8079C10.9889 21.1937 12.9996 20.9957 14.8268 20.2388C16.6541 19.4819 18.2159 18.2002 19.3147 16.5557C20.4135 14.9112 21 12.9778 21 11C21 9.68678 20.7413 8.38642 20.2388 7.17317C19.7363 5.95991 18.9997 4.85752 18.0711 3.92893C17.1425 3.00035 16.0401 2.26375 14.8268 1.7612C13.6136 1.25866 12.3132 1 11 1ZM11 3C11.6026 3.00394 12.2029 3.07436 12.79 3.21C12.6162 3.60239 12.3483 3.94587 12.01 4.21C11.79 4.38 11.55 4.52 11.31 4.67C10.5502 5.04408 9.90963 5.62234 9.46 6.34C8.96744 7.36657 8.75361 8.50466 8.84 9.64C8.84 11 8.84 11.8 7.89 12.51C6.52 13.58 4.43 12.98 3.13 12.44C3.04502 11.9647 3.00152 11.4829 3 11C3 8.87827 3.84286 6.84344 5.34315 5.34315C6.84344 3.84285 8.87827 3 11 3ZM4 14.8C4.65344 14.9699 5.32492 15.0605 6 15.07C7.1296 15.1011 8.23641 14.7486 9.14001 14.07C10.85 12.73 10.85 11.01 10.85 9.63C10.7742 8.83128 10.9014 8.02635 11.22 7.29C11.5094 6.89592 11.895 6.58261 12.34 6.38C12.6579 6.1942 12.9651 5.99054 13.26 5.77C13.8815 5.27912 14.364 4.63455 14.66 3.9C16.067 4.61986 17.2292 5.74032 18 7.12C16.57 7.32 14.54 7.79 14.14 9.65C14.0497 10.0944 14.0028 10.5465 14 11C14.0324 11.5069 13.9324 12.0134 13.71 12.47L13.61 12.64C12.96 13.72 12.23 14.95 13.22 16.64C13.34 16.85 13.47 17.05 13.6 17.25C13.8662 17.5574 14.0456 17.9302 14.12 18.33C13.1365 18.7635 12.0748 18.9915 11 19C9.56363 18.9928 8.15568 18.5991 6.92398 17.86C5.69228 17.121 4.68227 16.064 4 14.8ZM15.93 17.32C15.757 16.9207 15.5461 16.5389 15.3 16.18C15.19 16.02 15.08 15.86 14.98 15.69C14.59 15.01 14.73 14.69 15.36 13.69L15.46 13.52C15.8519 12.7721 16.0383 11.9335 16 11.09C15.999 10.7546 16.0291 10.4198 16.09 10.09C16.25 9.36 17.8 9.16 18.76 9.09C19.148 10.5985 19.0837 12.1878 18.5752 13.6601C18.0667 15.1324 17.1363 16.4225 15.9 17.37L15.93 17.32Z" fill="#97A3BA"/>
</svg>
