<svg width="22" height="22" viewBox="0 0 22 22" fill="none" xmlns="http://www.w3.org/2000/svg">
<path d="M16.593 19.9912C16.4327 19.9918 16.2747 19.9541 16.132 19.8812L11.0211 17.2125L5.91018 19.8812C5.74422 19.9683 5.5571 20.0071 5.3701 19.9934C5.1831 19.9796 5.00372 19.9138 4.85235 19.8035C4.70097 19.6931 4.58368 19.5426 4.51381 19.369C4.44393 19.1955 4.42428 19.0059 4.45707 18.8217L5.45921 13.1944L1.33039 9.19631C1.20157 9.0681 1.11019 8.90732 1.06605 8.73123C1.02192 8.55513 1.02669 8.37038 1.07986 8.19679C1.13794 8.01915 1.24478 7.8613 1.38827 7.74116C1.53175 7.62102 1.70612 7.5434 1.89159 7.51711L7.6038 6.6875L10.1192 1.55994C10.2012 1.39095 10.3294 1.24843 10.4889 1.14871C10.6484 1.04898 10.8328 0.996094 11.0211 0.996094C11.2094 0.996094 11.3938 1.04898 11.5533 1.14871C11.7128 1.24843 11.841 1.39095 11.923 1.55994L14.4685 6.67751L20.1807 7.50711C20.3661 7.53341 20.5405 7.61103 20.684 7.73117C20.8275 7.8513 20.9343 8.00915 20.9924 8.18679C21.0456 8.36038 21.0504 8.54514 21.0062 8.72123C20.9621 8.89732 20.8707 9.0581 20.7419 9.18632L16.6131 13.1844L17.6152 18.8117C17.651 18.9991 17.6322 19.1928 17.5612 19.3699C17.4902 19.547 17.3698 19.7002 17.2143 19.8113C17.0329 19.9381 16.8144 20.0014 16.593 19.9912ZM11.0211 15.0935C11.1817 15.0895 11.3407 15.1274 11.4821 15.2035L15.2602 17.2025L14.5386 12.9945C14.5106 12.8338 14.5225 12.6688 14.5731 12.5137C14.6238 12.3587 14.7117 12.2183 14.8292 12.1049L17.8357 9.17632L13.6267 8.55662C13.4723 8.52562 13.3275 8.45879 13.2039 8.36155C13.0802 8.2643 12.9813 8.13937 12.9151 7.99688L11.0211 4.24866L9.12705 7.99688C9.05455 8.14052 8.94836 8.26458 8.81751 8.35855C8.68667 8.45251 8.53502 8.5136 8.37545 8.53663L4.16645 9.15633L7.17288 12.0849C7.2904 12.1983 7.37833 12.3387 7.42899 12.4937C7.47965 12.6488 7.49149 12.8138 7.4635 12.9745L6.74196 17.1325L10.52 15.1335C10.6801 15.0741 10.8536 15.0603 11.0211 15.0935Z" fill="#97A3BA"/>
</svg>
