<svg width="22" height="22" viewBox="0 0 22 22" fill="none" xmlns="http://www.w3.org/2000/svg">
<path d="M16.593 19.9912C16.4327 19.9918 16.2747 19.9541 16.132 19.8812L11.0211 17.2125L5.91018 19.8812C5.74422 19.9683 5.5571 20.0071 5.3701 19.9934C5.1831 19.9796 5.00372 19.9138 4.85235 19.8035C4.70097 19.6931 4.58368 19.5426 4.51381 19.369C4.44393 19.1955 4.42428 19.0059 4.45707 18.8217L5.45921 13.1944L1.33039 9.19631C1.20157 9.0681 1.11019 8.90732 1.06605 8.73123C1.02192 8.55513 1.02669 8.37038 1.07986 8.19679C1.13794 8.01915 1.24478 7.8613 1.38827 7.74116C1.53175 7.62102 1.70612 7.5434 1.89159 7.51711L7.6038 6.6875L10.1192 1.55994C10.2012 1.39095 10.3294 1.24843 10.4889 1.14871C10.6484 1.04898 10.8328 0.996094 11.0211 0.996094C11.2094 0.996094 11.3938 1.04898 11.5533 1.14871C11.7128 1.24843 11.841 1.39095 11.923 1.55994L14.4685 6.67751L20.1807 7.50711C20.3661 7.53341 20.5405 7.61103 20.684 7.73117C20.8275 7.8513 20.9343 8.00915 20.9924 8.18679C21.0456 8.36038 21.0504 8.54514 21.0062 8.72123C20.9621 8.89732 20.8707 9.0581 20.7419 9.18632L16.6131 13.1844L17.6152 18.8117C17.651 18.9991 17.6322 19.1928 17.5612 19.3699C17.4902 19.547 17.3698 19.7002 17.2143 19.8113C17.0329 19.9381 16.8144 20.0014 16.593 19.9912Z" fill="#97A3BA"/>
</svg>
