<svg width="22" height="22" viewBox="0 0 22 22" fill="none" xmlns="http://www.w3.org/2000/svg">
<path d="M12 21H8C7.73478 21 7.48043 20.8946 7.29289 20.7071C7.10536 20.5195 7 20.2652 7 20V13.8H5C4.73478 13.8 4.48043 13.6946 4.29289 13.5071C4.10536 13.3195 4 13.0652 4 12.8V9.19995C4 8.93474 4.10536 8.68038 4.29289 8.49285C4.48043 8.30531 4.73478 8.19995 5 8.19995H7V6.49995C7.0701 4.97631 7.74062 3.5424 8.86497 2.51174C9.98932 1.48109 11.476 0.937544 13 0.999955H16C16.2652 0.999955 16.5196 1.10531 16.7071 1.29285C16.8946 1.48038 17 1.73474 17 1.99995V5.59995C17 5.86517 16.8946 6.11953 16.7071 6.30706C16.5196 6.4946 16.2652 6.59995 16 6.59995H13V8.19995H16C16.1544 8.19878 16.307 8.23339 16.4458 8.30105C16.5846 8.36871 16.7058 8.4676 16.8 8.58995C16.8931 8.71415 16.9561 8.85833 16.9839 9.01107C17.0116 9.16381 17.0035 9.32092 16.96 9.46995L15.96 13.07C15.8995 13.2863 15.768 13.4759 15.5866 13.6083C15.4052 13.7408 15.1844 13.8083 14.96 13.8H13V20C13 20.2652 12.8946 20.5195 12.7071 20.7071C12.5196 20.8946 12.2652 21 12 21ZM9 19H11V12.8C11 12.5347 11.1054 12.2804 11.2929 12.0928C11.4804 11.9053 11.7348 11.8 12 11.8H14.24L14.68 10.2H12C11.7348 10.2 11.4804 10.0946 11.2929 9.90706C11.1054 9.71952 11 9.46517 11 9.19995V6.49995C11.0257 5.98704 11.2477 5.50366 11.62 5.14995C11.9923 4.79624 12.4864 4.59931 13 4.59995H15V2.99995H13C12.0068 2.93944 11.0298 3.27299 10.281 3.92822C9.53214 4.58345 9.07186 5.50752 9 6.49995V9.19995C9 9.46517 8.89464 9.71952 8.70711 9.90706C8.51957 10.0946 8.26522 10.2 8 10.2H6V11.8H8C8.26522 11.8 8.51957 11.9053 8.70711 12.0928C8.89464 12.2804 9 12.5347 9 12.8V19Z" fill="#97A3BA"/>
</svg>
