<svg width="24" height="24" viewBox="0 0 24 24" fill="none" xmlns="http://www.w3.org/2000/svg">
<path fill-rule="evenodd" clip-rule="evenodd" d="M9 12C9 12.5523 8.55228 13 8 13C7.44772 13 7 12.5523 7 12C7 11.4477 7.44772 11 8 11C8.55228 11 9 11.4477 9 12Z" fill="#777B92"/>
<path fill-rule="evenodd" clip-rule="evenodd" d="M12 13C11.4477 13 11 12.5523 11 12C11 11.4477 11.4477 11 12 11C12.5523 11 13 11.4477 13 12C13 12.5523 12.5523 13 12 13Z" fill="#777B92"/>
<path fill-rule="evenodd" clip-rule="evenodd" d="M16 13C15.4477 13 15 12.5523 15 12C15 11.4477 15.4477 11 16 11C16.5523 11 17 11.4477 17 12C17 12.5523 16.5523 13 16 13Z" fill="#777B92"/>
<path fill-rule="evenodd" clip-rule="evenodd" d="M8 6H16C19.3137 6 22 8.68629 22 12C22 15.3137 19.3137 18 16 18H8C4.68629 18 2 15.3137 2 12C2 8.68629 4.68629 6 8 6ZM4 12C4 14.2091 5.79086 16 8 16H16C18.2091 16 20 14.2091 20 12C20 9.79086 18.2091 8 16 8H8C5.79086 8 4 9.79086 4 12Z" fill="#777B92"/>
</svg>
