<svg width="22" height="22" viewBox="0 0 22 22" fill="none" xmlns="http://www.w3.org/2000/svg">
<path d="M11.0004 20C10.8688 20.0008 10.7383 19.9756 10.6165 19.9258C10.4946 19.876 10.3838 19.8027 10.2904 19.71L2.52036 11.93C1.54572 10.9452 0.999023 9.61558 0.999023 8.23002C0.999023 6.84445 1.54572 5.51484 2.52036 4.53002C3.50262 3.55053 4.83319 3.00049 6.22036 3.00049C7.60753 3.00049 8.9381 3.55053 9.92036 4.53002L11.0004 5.61002L12.0804 4.53002C13.0626 3.55053 14.3932 3.00049 15.7804 3.00049C17.1675 3.00049 18.4981 3.55053 19.4804 4.53002C20.455 5.51484 21.0017 6.84445 21.0017 8.23002C21.0017 9.61558 20.455 10.9452 19.4804 11.93L11.7104 19.71C11.6169 19.8027 11.5061 19.876 11.3843 19.9258C11.2624 19.9756 11.132 20.0008 11.0004 20Z" fill="#97A3BA"/>
</svg>
