<svg width="22" height="22" viewBox="0 0 22 22" fill="none" xmlns="http://www.w3.org/2000/svg">
<path d="M7.50608 18.9913H7.42633C5.81971 18.9772 4.23632 18.6052 2.79081 17.902C2.52491 17.7768 2.30598 17.5696 2.16606 17.3106C2.02614 17.0517 1.97259 16.7546 2.01323 16.4629C2.05744 16.1693 2.19306 15.8972 2.40073 15.6854C2.6084 15.4736 2.8775 15.333 3.16962 15.2837C4.06544 15.1639 4.92722 14.8612 5.70171 14.3943C4.35707 13.3403 3.3219 11.9414 2.70589 10.3456C2.08988 8.74988 1.91599 7.01678 2.20264 5.33001C2.24151 5.06283 2.35613 4.81247 2.53286 4.60872C2.70959 4.40498 2.94099 4.25642 3.19953 4.18074C3.45106 4.10155 3.72025 4.09816 3.97368 4.171C4.22711 4.24385 4.45362 4.38971 4.62508 4.59048C5.20726 5.35577 5.93887 5.99415 6.77527 6.46665C7.61167 6.93915 8.53532 7.23588 9.48988 7.33873C9.53548 6.16133 10.0402 5.0489 10.8955 4.2407C11.3226 3.83073 11.8268 3.51007 12.3787 3.29741C12.9306 3.08474 13.5192 2.98431 14.1103 3.00199C14.7013 3.01966 15.2829 3.15507 15.8212 3.40034C16.3595 3.64561 16.8437 3.99582 17.2457 4.43058C17.3504 4.52339 17.4805 4.58253 17.6191 4.60035C17.7578 4.61817 17.8986 4.59384 18.0232 4.53051C18.2609 4.41813 18.5256 4.37583 18.7864 4.40854C19.0471 4.44124 19.2932 4.54762 19.496 4.71524C19.6987 4.88287 19.8497 5.10484 19.9314 5.35525C20.0131 5.60566 20.022 5.87419 19.9572 6.1295C19.7273 7.07901 19.2916 7.96613 18.6812 8.72785C18.5466 11.5708 17.2964 14.2451 15.203 16.1677C13.1096 18.0904 10.3429 19.1053 7.50608 18.9913ZM7.50608 16.9926H7.58583C8.74488 17.0326 9.90031 16.8415 10.9851 16.4304C12.07 16.0194 13.0626 15.3965 13.9055 14.598C14.7484 13.7995 15.4249 12.8412 15.8955 11.7786C16.3662 10.716 16.6218 9.57039 16.6475 8.40805C16.664 8.08951 16.795 7.78773 17.0164 7.55859C17.2595 7.25004 17.4669 6.91476 17.6345 6.55923C17.2753 6.55991 16.9201 6.4846 16.592 6.33822C16.2639 6.19185 15.9703 5.97769 15.7304 5.70977C15.4997 5.48047 15.2257 5.2996 14.9245 5.17777C14.6232 5.05593 14.3007 4.99557 13.9759 5.00022C13.6478 4.99171 13.3213 5.04825 13.0151 5.16658C12.7088 5.28492 12.4289 5.46272 12.1914 5.68978C11.871 5.99459 11.6361 6.37841 11.5101 6.80284C11.3842 7.22727 11.3716 7.67742 11.4737 8.10824L11.7329 9.24752L10.5665 9.32747C9.37135 9.42517 8.16927 9.26128 7.04354 8.84714C5.91781 8.433 4.89532 7.77851 4.04688 6.92899C4.0105 8.24456 4.33877 9.54446 4.99522 10.6842C5.65166 11.8239 6.61055 12.7588 7.76527 13.3849L8.71231 13.9246L8.08427 14.824C7.40509 15.7169 6.47449 16.3853 5.41262 16.7428C6.0938 16.9139 6.79387 16.9979 7.49611 16.9926H7.50608Z" fill="#97A3BA"/>
</svg>
