<svg width="22" height="22" viewBox="0 0 22 22" fill="none" xmlns="http://www.w3.org/2000/svg">
<path d="M20 16C20.5523 16 21 15.5523 21 15V3C21 2.44772 20.5523 2 20 2C19.4477 2 19 2.44772 19 3V15C19 15.5523 19.4477 16 20 16Z" fill="#97A3BA"/>
<path fill-rule="evenodd" clip-rule="evenodd" d="M11 20C11.4398 20.0023 11.8904 19.8577 12.2804 19.5326L16.2804 16.1993C16.7364 15.8193 17 15.2564 17 14.6629V4.0002C17 2.89563 16.1046 2.0002 15 2.0002H5.6594C4.85934 2.0002 4.13626 2.47699 3.82111 3.21236L1.16171 9.54878C1.05502 9.79773 1 10.0658 1 10.3366V13.1312C1 14.2358 1.89543 15.1312 3 15.1312H9V17.9962C9 19.1842 9.97075 19.9946 11 20ZM15 14.6629L11 17.9962V13.1312H3V10.3366L5.6594 4.0002H15V14.6629Z" fill="#97A3BA"/>
</svg>
