<svg width="22" height="22" viewBox="0 0 22 22" fill="none" xmlns="http://www.w3.org/2000/svg">
<path fill-rule="evenodd" clip-rule="evenodd" d="M10.3434 10.2713C10.1381 10.5334 9.84621 10.7137 9.52 10.78C9.72225 10.7851 9.92144 10.8305 10.1059 10.9136C10.2904 10.9967 10.4564 11.1158 10.5942 11.2639C10.7321 11.412 10.839 11.5861 10.9086 11.776C10.9783 11.966 11.0094 12.1679 11 12.37C11 13.53 10 14.2 8.7 14.25H6V7.75H8.7C9.87 7.75 10.64 8.35 10.64 9.35C10.6538 9.68259 10.5486 10.0092 10.3434 10.2713ZM8.41 8.67H7.26V10.41H8.11C8.98 10.41 9.36 10.05 9.36 9.52C9.36 8.99 9.01 8.67 8.41 8.67ZM7.26 13.24H8.22C9.24 13.24 9.66 12.92 9.66 12.3C9.66 11.68 9.24 11.3 8.49 11.3H7.26V13.24Z" fill="#97A3BA"/>
<path fill-rule="evenodd" clip-rule="evenodd" d="M13.7495 9.30025C13.4463 9.27499 13.1412 9.31562 12.8552 9.41933C12.5691 9.52305 12.3089 9.6874 12.0923 9.90113C11.8757 10.1148 11.708 10.3729 11.6005 10.6575C11.493 10.9422 11.4483 11.2467 11.4695 11.5503V12.0003C11.4449 12.3125 11.4888 12.6263 11.5981 12.9198C11.7075 13.2132 11.8796 13.4793 12.1025 13.6993C12.3253 13.9193 12.5936 14.088 12.8884 14.1935C13.1833 14.2991 13.4977 14.3389 13.8095 14.3103C14.3032 14.3689 14.8009 14.2416 15.2058 13.9532C15.6107 13.6648 15.8937 13.2359 15.9995 12.7503H14.7895C14.727 12.9583 14.5912 13.1366 14.4074 13.2524C14.2237 13.3682 14.0042 13.4136 13.7895 13.3803C13.6367 13.3841 13.4847 13.3551 13.344 13.2952C13.2033 13.2354 13.077 13.1461 12.9737 13.0333C12.8704 12.9205 12.7925 12.7869 12.7452 12.6415C12.6979 12.4961 12.6823 12.3422 12.6995 12.1903V12.0503H15.9995V11.5803C16.0231 11.2774 15.9813 10.973 15.877 10.6878C15.7727 10.4025 15.6082 10.143 15.3949 9.92675C15.1815 9.71055 14.9242 9.54272 14.6403 9.43463C14.3565 9.32654 14.0527 9.28071 13.7495 9.30025ZM12.7295 11.3003C12.717 11.1616 12.7336 11.0218 12.7782 10.8899C12.8228 10.758 12.8945 10.6368 12.9886 10.5342C13.0828 10.4316 13.1973 10.3498 13.3249 10.294C13.4525 10.2382 13.5903 10.2097 13.7295 10.2103C13.8688 10.2097 14.0066 10.2382 14.1342 10.294C14.2618 10.3498 14.3763 10.4316 14.4705 10.5342C14.5646 10.6368 14.6363 10.758 14.6809 10.8899C14.7255 11.0218 14.7421 11.1616 14.7295 11.3003H12.7295Z" fill="#97A3BA"/>
<path d="M12.25 8.2002H15.25V8.7002H12.25V8.2002Z" fill="#97A3BA"/>
<path fill-rule="evenodd" clip-rule="evenodd" d="M5.4443 2.6853C7.08879 1.58649 9.02219 1 11 1C12.3132 1 13.6136 1.25866 14.8268 1.7612C16.0401 2.26375 17.1425 3.00035 18.0711 3.92893C18.9997 4.85752 19.7363 5.95991 20.2388 7.17317C20.7413 8.38642 21 9.68678 21 11C21 12.9778 20.4135 14.9112 19.3147 16.5557C18.2159 18.2002 16.6541 19.4819 14.8268 20.2388C12.9996 20.9957 10.9889 21.1937 9.0491 20.8079C7.10929 20.422 5.32746 19.4696 3.92894 18.0711C2.53041 16.6725 1.578 14.8907 1.19215 12.9509C0.806299 11.0111 1.00433 9.00043 1.76121 7.17317C2.51809 5.3459 3.79981 3.78412 5.4443 2.6853ZM6.55544 17.6518C7.87104 18.5308 9.41775 19 11 19C13.1217 19 15.1566 18.1571 16.6569 16.6569C18.1572 15.1566 19 13.1217 19 11C19 9.41775 18.5308 7.87103 17.6518 6.55544C16.7727 5.23984 15.5233 4.21447 14.0615 3.60896C12.5997 3.00346 10.9911 2.84504 9.43928 3.15372C7.88743 3.4624 6.46197 4.22433 5.34315 5.34315C4.22433 6.46197 3.4624 7.88743 3.15372 9.43928C2.84504 10.9911 3.00347 12.5997 3.60897 14.0615C4.21447 15.5233 5.23985 16.7727 6.55544 17.6518Z" fill="#97A3BA"/>
</svg>
