<svg width="22" height="22" viewBox="0 0 22 22" fill="none" xmlns="http://www.w3.org/2000/svg">
<path d="M19.9997 3.01288C19.9893 2.92087 19.9691 2.83023 19.9396 2.74246V2.65232C19.8917 2.54086 19.8239 2.43905 19.7395 2.35186C19.6546 2.272 19.5564 2.2076 19.4493 2.16156H19.3593C19.2671 2.09107 19.1616 2.03996 19.0491 2.01133H18.9991C18.8996 1.99622 18.7984 1.99622 18.6989 2.01133L0.68816 8.02063C0.487973 8.08649 0.313668 8.21393 0.190098 8.38478C0.0665276 8.55563 0 8.76117 0 8.9721C0 9.18302 0.0665276 9.38856 0.190098 9.55941C0.313668 9.73027 0.487973 9.85771 0.68816 9.92357L9.22325 12.768L12.0649 21.3112C12.1307 21.5116 12.2581 21.686 12.4288 21.8097C12.5994 21.9334 12.8048 22 13.0155 22C13.2262 22 13.4316 21.9334 13.6023 21.8097C13.773 21.686 13.9003 21.5116 13.9661 21.3112L19.9697 3.2833C19.9919 3.19495 20.002 3.10397 19.9997 3.01288ZM15.2969 5.30643L9.72355 10.8851L4.15022 9.02218L15.2969 5.30643ZM12.9955 17.8759L11.1344 12.2972L16.7077 6.71861L12.9955 17.8759Z" fill="#97A3BA"/>
</svg>
