<svg width="22" height="22" viewBox="0 0 22 22" fill="none" xmlns="http://www.w3.org/2000/svg">
<path d="M10.9996 21H10.5696C8.05451 20.8561 5.68259 19.7833 3.9142 17.99C2.14581 16.1967 1.10709 13.8106 0.999625 11.2949C0.948669 9.59919 1.33041 7.91838 2.10891 6.41082C2.8874 4.90326 4.03701 3.61857 5.44948 2.67774C6.86194 1.73691 8.49076 1.17091 10.1825 1.03306C11.8743 0.895199 13.5733 1.19002 15.1196 1.88975C15.299 1.97416 15.4597 2.09375 15.5919 2.2414C15.7242 2.38906 15.8254 2.56178 15.8896 2.74931C15.9528 2.93919 15.9766 3.13996 15.9594 3.33933C15.9422 3.5387 15.8844 3.73246 15.7896 3.90872L14.4996 6.2875C14.329 6.6027 14.0469 6.84295 13.7085 6.96125C13.37 7.07955 12.9996 7.0674 12.6696 6.92718C11.8379 6.6005 10.9278 6.52871 10.0551 6.72096C9.18248 6.9132 8.38685 7.36077 7.76963 8.00663C7.35631 8.45297 7.03988 8.97998 6.84025 9.5545C6.64061 10.129 6.56209 10.7386 6.60963 11.3449C6.66922 11.9309 6.84704 12.4987 7.13236 13.0141C7.41767 13.5295 7.80455 13.9817 8.26963 14.3434C8.74582 14.7368 9.29764 15.0285 9.89103 15.2004C10.4844 15.3723 11.1068 15.4208 11.7196 15.3429C12.2414 15.2728 12.7436 15.0976 13.1957 14.8279C13.6477 14.5582 14.0403 14.1995 14.3496 13.7737H11.4496C11.0668 13.7737 10.6995 13.6224 10.4278 13.3527C10.1562 13.0831 10.0023 12.7171 9.99963 12.3344V9.65578C9.99963 9.27142 10.1524 8.90279 10.4243 8.631C10.6963 8.35921 11.0651 8.20652 11.4496 8.20652H19.5496C19.9317 8.2091 20.2975 8.36126 20.5686 8.63033C20.8397 8.89941 20.9944 9.26397 20.9996 9.64579V11.5248C20.8663 14.0845 19.7541 16.4952 17.893 18.2586C16.0319 20.0221 13.5641 21.0035 10.9996 21ZM10.9996 3.00918C9.92855 3.0087 8.86828 3.22319 7.88169 3.63994C6.89511 4.05669 6.00229 4.66721 5.2562 5.43529C4.51011 6.20338 3.92593 7.11338 3.5383 8.11135C3.15067 9.10932 2.96749 10.1749 2.99963 11.245C3.08563 13.2557 3.91604 15.1628 5.32967 16.596C6.7433 18.0292 8.6393 18.8864 10.6496 19.001C12.7603 19.0962 14.823 18.353 16.3874 16.9336C17.9518 15.5142 18.8909 13.5338 18.9996 11.4249V10.2055H11.9996V11.7847H17.3096L16.8996 13.084C16.576 14.187 15.9421 15.1737 15.0734 15.9268C14.2047 16.6799 13.1378 17.1676 11.9996 17.3319C11.1196 17.4595 10.2228 17.4075 9.36342 17.179C8.50405 16.9505 7.69993 16.5503 6.99963 16.0025C6.30961 15.4615 5.7396 14.7831 5.32575 14.0102C4.91191 13.2374 4.66325 12.387 4.59556 11.5131C4.52786 10.6391 4.6426 9.76066 4.93251 8.93338C5.22241 8.10609 5.68115 7.34803 6.27963 6.70729C7.11664 5.80561 8.19189 5.1591 9.38105 4.8425C10.5702 4.52591 11.8248 4.55215 12.9996 4.9182L13.7696 3.48893C12.8824 3.16478 11.9442 3.00229 10.9996 3.00918Z" fill="#97A3BA"/>
</svg>
