<svg width="24" height="24" viewBox="0 0 24 24" fill="none" xmlns="http://www.w3.org/2000/svg">
<path fill-rule="evenodd" clip-rule="evenodd" d="M12 2C12.3922 2 12.7481 2.2292 12.9104 2.5862L15.1659 7.54826L21.0767 8.00295C21.4661 8.0329 21.8024 8.28678 21.9379 8.65305C22.0734 9.01933 21.9833 9.43096 21.7071 9.70711L17.599 13.8152L18.9744 19.7751C19.0615 20.1525 18.9229 20.5461 18.6186 20.7857C18.3144 21.0252 17.8992 21.0676 17.5528 20.8944L12 18.118L6.44724 20.8944C6.10088 21.0676 5.68567 21.0252 5.38142 20.7857C5.07716 20.5461 4.93856 20.1525 5.02564 19.7751L6.40101 13.8152L2.29292 9.70711C2.01678 9.43096 1.92665 9.01933 2.06214 8.65305C2.19764 8.28678 2.53395 8.0329 2.92333 8.00295L8.83418 7.54826L11.0897 2.5862C11.2519 2.2292 11.6079 2 12 2ZM12 5.41661L10.4104 8.9138C10.2596 9.24562 9.94014 9.4691 9.57673 9.49705L5.24454 9.8303L8.20714 12.7929C8.45094 13.0367 8.55195 13.3889 8.47442 13.7249L7.45183 18.1561L11.5528 16.1056C11.8343 15.9648 12.1657 15.9648 12.4472 16.1056L16.5482 18.1561L15.5256 13.7249C15.4481 13.3889 15.5491 13.0367 15.7929 12.7929L18.7555 9.8303L14.4233 9.49705C14.0599 9.4691 13.7405 9.24562 13.5897 8.9138L12 5.41661Z" fill="#777B92"/>
</svg>
