<svg width="22" height="22" viewBox="0 0 22 22" fill="none" xmlns="http://www.w3.org/2000/svg">
<path d="M16.9995 14C16.2139 14.0006 15.4599 14.3094 14.8995 14.86L6.99955 11.34V11V10.67L14.8995 7.13999C15.3944 7.62501 16.0418 7.9238 16.7319 7.9856C17.4221 8.04741 18.1123 7.86843 18.6854 7.47906C19.2585 7.08969 19.6792 6.51393 19.876 5.84958C20.0728 5.18523 20.0336 4.47325 19.7649 3.83455C19.4963 3.19585 19.0149 2.66982 18.4025 2.3458C17.79 2.02179 17.0843 1.91975 16.4051 2.05704C15.726 2.19433 15.1153 2.56246 14.6768 3.09893C14.2383 3.63539 13.999 4.30711 13.9995 4.99999V5.33999L6.09955 8.85999C5.67791 8.44575 5.14329 8.16529 4.56281 8.05382C3.98233 7.94235 3.38186 8.00485 2.83677 8.23346C2.29169 8.46207 1.82628 8.84661 1.49898 9.3388C1.17168 9.831 0.99707 10.4089 0.99707 11C0.99707 11.5911 1.17168 12.169 1.49898 12.6612C1.82628 13.1534 2.29169 13.5379 2.83677 13.7665C3.38186 13.9951 3.98233 14.0576 4.56281 13.9462C5.14329 13.8347 5.67791 13.5542 6.09955 13.14L13.9995 16.67V17C13.9995 17.5933 14.1755 18.1734 14.5051 18.6667C14.8348 19.16 15.3033 19.5446 15.8515 19.7716C16.3997 19.9987 17.0029 20.0581 17.5848 19.9423C18.1668 19.8266 18.7013 19.5409 19.1209 19.1213C19.5404 18.7018 19.8261 18.1672 19.9419 17.5853C20.0577 17.0033 19.9982 16.4001 19.7712 15.8519C19.5441 15.3038 19.1596 14.8352 18.6663 14.5056C18.1729 14.1759 17.5929 14 16.9995 14ZM16.9995 3.99999C17.1973 3.99999 17.3907 4.05864 17.5551 4.16852C17.7196 4.2784 17.8477 4.43458 17.9234 4.61731C17.9991 4.80004 18.0189 5.0011 17.9803 5.19508C17.9417 5.38906 17.8465 5.56725 17.7067 5.7071C17.5668 5.84695 17.3886 5.94219 17.1946 5.98078C17.0007 6.01936 16.7996 5.99956 16.6169 5.92387C16.4341 5.84818 16.278 5.72001 16.1681 5.55556C16.0582 5.39111 15.9995 5.19777 15.9995 4.99999C15.9995 4.73478 16.1049 4.48042 16.2924 4.29289C16.48 4.10535 16.7343 3.99999 16.9995 3.99999ZM3.99955 12C3.80176 12 3.60842 11.9413 3.44397 11.8315C3.27953 11.7216 3.15135 11.5654 3.07567 11.3827C2.99998 11.2 2.98017 10.9989 3.01876 10.8049C3.05734 10.6109 3.15259 10.4327 3.29244 10.2929C3.43229 10.153 3.61047 10.0578 3.80445 10.0192C3.99844 9.98062 4.1995 10.0004 4.38223 10.0761C4.56495 10.1518 4.72113 10.28 4.83101 10.4444C4.9409 10.6089 4.99955 10.8022 4.99955 11C4.99955 11.2652 4.89419 11.5196 4.70665 11.7071C4.51912 11.8946 4.26476 12 3.99955 12ZM16.9995 18C16.8018 18 16.6084 17.9413 16.444 17.8315C16.2795 17.7216 16.1514 17.5654 16.0757 17.3827C16 17.1999 15.9802 16.9989 16.0188 16.8049C16.0573 16.6109 16.1526 16.4327 16.2924 16.2929C16.4323 16.153 16.6105 16.0578 16.8045 16.0192C16.9984 15.9806 17.1995 16.0004 17.3822 16.0761C17.565 16.1518 17.7211 16.28 17.831 16.4444C17.9409 16.6089 17.9995 16.8022 17.9995 17C17.9995 17.2652 17.8942 17.5196 17.7067 17.7071C17.5191 17.8946 17.2648 18 16.9995 18Z" fill="#97A3BA"/>
</svg>
