<svg width="22" height="22" viewBox="0 0 22 22" fill="none" xmlns="http://www.w3.org/2000/svg">
<path fill-rule="evenodd" clip-rule="evenodd" d="M2.33329 5.49441C2.82664 5.82405 3.40666 6 4 6C4.79565 6 5.55871 5.68393 6.12132 5.12132C6.68393 4.55871 7 3.79565 7 3C7 2.40666 6.82405 1.82664 6.49441 1.33329C6.16477 0.839943 5.69623 0.455426 5.14805 0.228363C4.59987 0.00129986 3.99667 -0.0581102 3.41473 0.0576455C2.83279 0.173401 2.29824 0.459123 1.87868 0.878681C1.45912 1.29824 1.1734 1.83279 1.05765 2.41473C0.94189 2.99667 1.0013 3.59987 1.22836 4.14805C1.45543 4.69623 1.83994 5.16477 2.33329 5.49441ZM3.44443 2.16853C3.60888 2.05865 3.80222 2 4 2C4.26522 2 4.51957 2.10536 4.70711 2.29289C4.89464 2.48043 5 2.73478 5 3C5 3.19778 4.94135 3.39112 4.83147 3.55557C4.72159 3.72002 4.56541 3.84819 4.38268 3.92388C4.19996 3.99957 3.99889 4.01937 3.80491 3.98079C3.61093 3.9422 3.43275 3.84696 3.29289 3.70711C3.15304 3.56726 3.0578 3.38907 3.01922 3.19509C2.98063 3.00111 3.00043 2.80004 3.07612 2.61732C3.15181 2.43459 3.27998 2.27841 3.44443 2.16853Z" fill="#97A3BA"/>
<path fill-rule="evenodd" clip-rule="evenodd" d="M5 21H3C2.46957 21 1.96086 20.7893 1.58579 20.4142C1.21071 20.0391 1 19.5304 1 19V9C1 8.46957 1.21071 7.96086 1.58579 7.58579C1.96086 7.21071 2.46957 7 3 7H5C5.53043 7 6.03914 7.21071 6.41421 7.58579C6.78929 7.96086 7 8.46957 7 9V19C7 19.5304 6.78929 20.0391 6.41421 20.4142C6.03914 20.7893 5.53043 21 5 21ZM3 9V19H5V9H3Z" fill="#97A3BA"/>
<path fill-rule="evenodd" clip-rule="evenodd" d="M19 21H17.33C16.7996 21 16.2909 20.7893 15.9158 20.4143C15.5407 20.0392 15.33 19.5305 15.33 19V13.63C15.3389 13.4194 15.2753 13.2121 15.1497 13.0429C15.0241 12.8736 14.8442 12.7525 14.64 12.7C14.5212 12.682 14.4 12.6896 14.2844 12.7223C14.1688 12.7551 14.0616 12.8123 13.97 12.89C13.8757 12.97 13.8 13.0697 13.7482 13.1819C13.6964 13.2942 13.6697 13.4164 13.67 13.54V19C13.67 19.5305 13.4593 20.0392 13.0842 20.4143C12.7091 20.7893 12.2004 21 11.67 21H10C9.46957 21 8.96086 20.7893 8.58579 20.4143C8.21071 20.0392 8 19.5305 8 19V13.54C8 11.8161 8.68482 10.1628 9.90381 8.94384C11.1228 7.72486 12.7761 7.04004 14.5 7.04004C16.2239 7.04004 17.8772 7.72486 19.0962 8.94384C20.3152 10.1628 21 11.8161 21 13.54V19C21 19.5305 20.7893 20.0392 20.4142 20.4143C20.0391 20.7893 19.5304 21 19 21ZM14.5 10.69C14.6565 10.6802 14.8135 10.6802 14.97 10.69C15.6414 10.8192 16.2458 11.1806 16.6774 11.7109C17.1089 12.2411 17.34 12.9064 17.33 13.59V19H19V13.54C19 12.3466 18.5259 11.202 17.682 10.3581C16.8381 9.51414 15.6935 9.04004 14.5 9.04004C13.3065 9.04004 12.1619 9.51414 11.318 10.3581C10.4741 11.202 10 12.3466 10 13.54V19H11.67V13.54C11.67 12.7876 11.9675 12.0657 12.4977 11.5318C13.0278 10.9979 13.7476 10.6953 14.5 10.69Z" fill="#97A3BA"/>
</svg>
