<svg width="22" height="22" viewBox="0 0 22 22" fill="none" xmlns="http://www.w3.org/2000/svg">
<path d="M15.9991 6.99878C16.5509 6.99878 16.9982 6.55134 16.9982 5.99939C16.9982 5.44744 16.5509 5 15.9991 5C15.4473 5 15 5.44744 15 5.99939C15 6.55134 15.4473 6.99878 15.9991 6.99878Z" fill="#97A3BA"/>
<path fill-rule="evenodd" clip-rule="evenodd" d="M11 15C13.2091 15 15 13.2091 15 11C15 8.79086 13.2091 7 11 7C8.79086 7 7 8.79086 7 11C7 13.2091 8.79086 15 11 15ZM13 11C13 12.1046 12.1046 13 11 13C9.89543 13 9 12.1046 9 11C9 9.89543 9.89543 9 11 9C12.1046 9 13 9.89543 13 11Z" fill="#97A3BA"/>
<path fill-rule="evenodd" clip-rule="evenodd" d="M2 5C2 3.34315 3.34315 2 5 2H17C18.6569 2 20 3.34315 20 5V17C20 18.6569 18.6569 20 17 20H5C3.34315 20 2 18.6569 2 17V5ZM5 4C4.44772 4 4 4.44772 4 5V17C4 17.5523 4.44772 18 5 18H17C17.5523 18 18 17.5523 18 17V5C18 4.44772 17.5523 4 17 4H5Z" fill="#97A3BA"/>
</svg>
