<svg width="22" height="22" viewBox="0 0 22 22" fill="none" xmlns="http://www.w3.org/2000/svg">
<path d="M7 7.02978C7.55228 7.02978 8 6.58207 8 6.02979C8 5.4775 7.55228 5.02979 7 5.02979C6.44772 5.02979 6 5.4775 6 6.02979C6 6.58207 6.44772 7.02978 7 7.02978Z" fill="#97A3BA"/>
<path d="M12 6.02979C12 6.58207 11.5523 7.02978 11 7.02978C10.4477 7.02978 10 6.58207 10 6.02979C10 5.4775 10.4477 5.02979 11 5.02979C11.5523 5.02979 12 5.4775 12 6.02979Z" fill="#97A3BA"/>
<path fill-rule="evenodd" clip-rule="evenodd" d="M17 2H5C4.20435 2 3.44129 2.31607 2.87868 2.87868C2.31607 3.44129 2 4.20435 2 5V17C2 17.7956 2.31607 18.5587 2.87868 19.1213C3.44129 19.6839 4.20435 20 5 20H17C17.7956 20 18.5587 19.6839 19.1213 19.1213C19.6839 18.5587 20 17.7956 20 17V5C20 4.20435 19.6839 3.44129 19.1213 2.87868C18.5587 2.31607 17.7956 2 17 2ZM18 17C18 17.2652 17.8946 17.5196 17.7071 17.7071C17.5196 17.8946 17.2652 18 17 18H5C4.73478 18 4.48043 17.8946 4.29289 17.7071C4.10536 17.5196 4 17.2652 4 17V10H18V17ZM4 8V5C4 4.73478 4.10536 4.48043 4.29289 4.29289C4.48043 4.10536 4.73478 4 5 4H17C17.2652 4 17.5196 4.10536 17.7071 4.29289C17.8946 4.48043 18 4.73478 18 5V8H4Z" fill="#97A3BA"/>
</svg>
