<svg width="24" height="24" viewBox="0 0 24 24" fill="none" xmlns="http://www.w3.org/2000/svg">
<path fill-rule="evenodd" clip-rule="evenodd" d="M12 2C12.5523 2 13 2.44772 13 3V5C13 5.55228 12.5523 6 12 6C11.4477 6 11 5.55228 11 5V3C11 2.44772 11.4477 2 12 2Z" fill="#777B92"/>
<path fill-rule="evenodd" clip-rule="evenodd" d="M8 12C8 9.79086 9.79086 8 12 8C14.2091 8 16 9.79086 16 12C16 14.2091 14.2091 16 12 16C9.79086 16 8 14.2091 8 12ZM12 10C10.8954 10 10 10.8954 10 12C10 13.1046 10.8954 14 12 14C13.1046 14 14 13.1046 14 12C14 10.8954 13.1046 10 12 10Z" fill="#777B92"/>
<path fill-rule="evenodd" clip-rule="evenodd" d="M13 19V21C13 21.5523 12.5523 22 12 22C11.4477 22 11 21.5523 11 21V19C11 18.4477 11.4477 18 12 18C12.5523 18 13 18.4477 13 19Z" fill="#777B92"/>
<path fill-rule="evenodd" clip-rule="evenodd" d="M2 12C2 11.4477 2.44772 11 3 11H5C5.55228 11 6 11.4477 6 12C6 12.5523 5.55228 13 5 13H3C2.44772 13 2 12.5523 2 12Z" fill="#777B92"/>
<path fill-rule="evenodd" clip-rule="evenodd" d="M19 11H21C21.5523 11 22 11.4477 22 12C22 12.5523 21.5523 13 21 13H19C18.4477 13 18 12.5523 18 12C18 11.4477 18.4477 11 19 11Z" fill="#777B92"/>
<path fill-rule="evenodd" clip-rule="evenodd" d="M19.2071 4.79289C19.5976 5.18342 19.5976 5.81658 19.2071 6.20711L17.7071 7.70711C17.3166 8.09763 16.6834 8.09763 16.2929 7.70711C15.9024 7.31658 15.9024 6.68342 16.2929 6.29289L17.7929 4.79289C18.1834 4.40237 18.8166 4.40237 19.2071 4.79289Z" fill="#777B92"/>
<path fill-rule="evenodd" clip-rule="evenodd" d="M6.20711 4.79289L7.70711 6.29289C8.09763 6.68342 8.09763 7.31658 7.70711 7.70711C7.31658 8.09763 6.68342 8.09763 6.29289 7.70711L4.79289 6.20711C4.40237 5.81658 4.40237 5.18342 4.79289 4.79289C5.18342 4.40237 5.81658 4.40237 6.20711 4.79289Z" fill="#777B92"/>
<path fill-rule="evenodd" clip-rule="evenodd" d="M16.2929 16.2929C16.6834 15.9024 17.3166 15.9024 17.7071 16.2929L19.2071 17.7929C19.5976 18.1834 19.5976 18.8166 19.2071 19.2071C18.8166 19.5976 18.1834 19.5976 17.7929 19.2071L16.2929 17.7071C15.9024 17.3166 15.9024 16.6834 16.2929 16.2929Z" fill="#777B92"/>
<path fill-rule="evenodd" clip-rule="evenodd" d="M7.70711 17.7071L6.20711 19.2071C5.81658 19.5976 5.18342 19.5976 4.79289 19.2071C4.40237 18.8166 4.40237 18.1834 4.79289 17.7929L6.29289 16.2929C6.68342 15.9024 7.31658 15.9024 7.70711 16.2929C8.09763 16.6834 8.09763 17.3166 7.70711 17.7071Z" fill="#777B92"/>
</svg>
