<svg width="24" height="24" viewBox="0 0 24 24" fill="none" xmlns="http://www.w3.org/2000/svg">
<path fill-rule="evenodd" clip-rule="evenodd" d="M20.9141 4.33139L14.9435 21.3314C14.794 21.7571 14.378 22.0299 13.928 21.9974C13.478 21.9649 13.1055 21.6351 13.0187 21.1924L11.3689 12.7758C11.3427 12.7544 11.3173 12.7315 11.2929 12.7071C11.2606 12.6748 11.231 12.6409 11.204 12.6056L2.8101 10.9818C2.36707 10.8961 2.03632 10.5243 2.00279 10.0743C1.96925 9.62434 2.24125 9.20763 2.66669 9.05722L19.6372 3.05722C20.0002 2.92891 20.4045 3.02029 20.677 3.29218C20.9494 3.56408 21.0416 3.96822 20.9141 4.33139ZM13.281 12.1332L14.2744 17.201L17.5555 7.85872L13.281 12.1332ZM16.1876 6.39817L6.80116 9.71678L11.8855 10.7003L16.1876 6.39817Z" fill="#777B92"/>
</svg>
