<svg width="22" height="22" viewBox="0 0 22 22" fill="none" xmlns="http://www.w3.org/2000/svg">
<path d="M11.2795 21H11.1793C9.8052 20.9895 8.44701 20.7049 7.18426 20.1629C5.9215 19.6208 4.77956 18.8322 3.82531 17.8432C2.05579 15.9503 1.04991 13.469 1.00181 10.878C0.953703 8.28701 1.86678 5.77002 3.56482 3.8128C4.65878 2.58649 6.03404 1.64419 7.57243 1.06686C7.75194 0.997766 7.94753 0.981816 8.13585 1.02091C8.32417 1.06001 8.49726 1.1525 8.63445 1.28733C8.76151 1.41694 8.85099 1.57862 8.89334 1.75513C8.93569 1.93164 8.92932 2.11634 8.87491 2.2895C8.32582 3.79369 8.21703 5.42333 8.56131 6.98719C8.90559 8.55105 9.68865 9.98425 10.8186 11.1186C11.9591 12.2454 13.3953 13.026 14.961 13.3701C16.5267 13.7142 18.1578 13.6076 19.6654 13.0628C19.8449 12.9996 20.0386 12.9889 20.2239 13.0318C20.4093 13.0746 20.5786 13.1694 20.7121 13.305C20.8455 13.4406 20.9376 13.6115 20.9776 13.7975C21.0176 13.9835 21.0038 14.1771 20.9378 14.3556C20.426 15.7223 19.6265 16.9629 18.5934 17.9935C17.6324 18.9519 16.4915 19.7108 15.2364 20.2268C13.9812 20.7427 12.6365 21.0055 11.2795 21ZM6.43026 3.88295C5.92698 4.23601 5.46636 4.64631 5.05765 5.1056C3.67957 6.68515 2.93704 8.72034 2.97406 10.8165C3.01109 12.9126 3.82503 14.9203 5.25803 16.4501C6.02802 17.2501 6.95052 17.8875 7.97099 18.3247C8.99146 18.7619 10.0892 18.99 11.1993 18.9957H11.2795C12.6082 18.9949 13.9176 18.6772 15.099 18.0689C16.2804 17.4606 17.2997 16.5793 18.0724 15.4981C16.4978 15.7022 14.8973 15.5425 13.3939 15.0315C11.8906 14.5204 10.5243 13.6714 9.40013 12.5498C8.27593 11.4283 7.42368 10.0638 6.90885 8.56142C6.39402 7.059 6.2303 5.45853 6.43026 3.88295Z" fill="#97A3BA"/>
</svg>
