<svg width="22" height="22" viewBox="0 0 22 22" fill="none" xmlns="http://www.w3.org/2000/svg">
<path d="M10.7852 16.9535H11.9809C11.9809 16.9535 12.3418 16.9155 12.5265 16.7239C12.696 16.5482 12.6905 16.2179 12.6905 16.2179C12.6905 16.2179 12.6674 14.6717 13.4117 14.4439C14.1456 14.2196 15.088 15.9385 16.0868 16.5992C16.842 17.0994 17.4162 16.9898 17.4162 16.9898L20.087 16.9541C20.087 16.9541 21.4844 16.8709 20.8216 15.812C20.7675 15.7254 20.4358 15.029 18.8354 13.597C17.1604 12.0988 17.3852 12.3407 19.4023 9.74906C20.6308 8.17065 21.1217 7.2072 20.9686 6.79429C20.8222 6.4013 19.9187 6.50497 19.9187 6.50497L16.9113 6.52312C16.9113 6.52312 16.6883 6.49384 16.523 6.58931C16.3614 6.68243 16.2575 6.9003 16.2575 6.9003C16.2575 6.9003 15.7812 8.12145 15.1469 9.16045C13.8078 11.3515 13.2726 11.4674 13.0538 11.331C12.5447 11.0135 12.6717 10.0565 12.6717 9.37656C12.6717 7.2523 13.0058 6.36675 12.021 6.13716C11.6941 6.06102 11.4535 6.01065 10.6175 6.00245C9.54454 5.99191 8.63622 6.00538 8.12222 6.24844C7.78016 6.41009 7.51587 6.7697 7.67688 6.79019C7.87555 6.81596 8.32576 6.90733 8.56453 7.22008C8.87257 7.6242 8.86224 8.53201 8.86224 8.53201C8.86224 8.53201 9.03965 11.0323 8.44849 11.3433C8.04324 11.5565 7.48732 11.1213 6.29345 9.13292C5.68102 8.11501 5.21927 6.98874 5.21927 6.98874C5.21927 6.98874 5.13057 6.77848 4.97139 6.66544C4.77879 6.52898 4.50964 6.48564 4.50964 6.48564L1.65165 6.50438C1.65165 6.50438 1.2227 6.5161 1.06534 6.6959C0.924996 6.85579 1.05441 7.1867 1.05441 7.1867C1.05441 7.1867 3.29147 12.2323 5.82502 14.7754C8.14774 17.1064 10.7852 16.9535 10.7852 16.9535Z" fill="#97A3BA"/>
</svg>
