<svg width="22" height="22" viewBox="0 0 22 22" fill="none" xmlns="http://www.w3.org/2000/svg">
<path d="M19.4201 9.18019L11.7101 1.30019C11.6172 1.20646 11.5066 1.13207 11.3847 1.0813C11.2628 1.03053 11.1321 1.00439 11.0001 1.00439C10.8681 1.00439 10.7374 1.03053 10.6155 1.0813C10.4937 1.13207 10.3831 1.20646 10.2901 1.30019L2.58012 9.19019C2.39355 9.37826 2.24621 9.60152 2.14664 9.847C2.04708 10.0925 1.99727 10.3553 2.00012 10.6202V19.0002C1.99934 19.5121 2.19489 20.0048 2.54649 20.3769C2.89809 20.749 3.37898 20.972 3.89012 21.0002H18.1101C18.6213 20.972 19.1021 20.749 19.4537 20.3769C19.8053 20.0048 20.0009 19.5121 20.0001 19.0002V10.6202C20.0009 10.0831 19.7929 9.56678 19.4201 9.18019ZM9.00012 19.0002V13.0002H13.0001V19.0002H9.00012ZM18.0001 19.0002H15.0001V12.0002C15.0001 11.735 14.8948 11.4806 14.7072 11.2931C14.5197 11.1055 14.2653 11.0002 14.0001 11.0002H8.00012C7.7349 11.0002 7.48055 11.1055 7.29301 11.2931C7.10547 11.4806 7.00012 11.735 7.00012 12.0002V19.0002H4.00012V10.5802L11.0001 3.43019L18.0001 10.6202V19.0002Z" fill="#97A3BA"/>
</svg>
