<svg width="24" height="24" viewBox="0 0 24 24" fill="none" xmlns="http://www.w3.org/2000/svg">
<path fill-rule="evenodd" clip-rule="evenodd" d="M6.99993 3C9.30366 3 10.9934 4.16993 11.9999 5.28401C13.0065 4.16998 14.6961 3 16.9999 3C20.2679 3 22.9999 5.41169 22.9998 8.97318C22.9997 12.4217 20.9848 14.9333 18.7613 16.768C17.6441 17.6897 16.4406 18.4695 15.3482 19.1348C14.9342 19.387 14.5455 19.6174 14.1833 19.8322C13.5606 20.2014 13.0159 20.5243 12.5545 20.8319C12.2186 21.0558 11.781 21.0558 11.4451 20.8319C10.9836 20.5242 10.4388 20.2012 9.81585 19.8318C9.45382 19.6172 9.06541 19.3868 8.65162 19.1348C7.55924 18.4695 6.35572 17.6897 5.2386 16.768C3.0151 14.9333 1.0001 12.4217 1 8.97318C0.999889 5.41169 3.73192 3 6.99993 3Z" fill="#777B92"/>
</svg>
