<svg width="22" height="22" viewBox="0 0 22 22" fill="none" xmlns="http://www.w3.org/2000/svg">
<path d="M11 12C11.5523 12 12 11.5523 12 11C12 10.4477 11.5523 10 11 10C10.4477 10 10 10.4477 10 11C10 11.5523 10.4477 12 11 12Z" fill="#97A3BA"/>
<path d="M16 11C16 11.5523 15.5523 12 15 12C14.4477 12 14 11.5523 14 11C14 10.4477 14.4477 10 15 10C15.5523 10 16 10.4477 16 11Z" fill="#97A3BA"/>
<path d="M7 12C7.55228 12 8 11.5523 8 11C8 10.4477 7.55228 10 7 10C6.44772 10 6 10.4477 6 11C6 11.5523 6.44772 12 7 12Z" fill="#97A3BA"/>
<path fill-rule="evenodd" clip-rule="evenodd" d="M1 11C1 7.68629 3.68629 5 7 5H15C18.3137 5 21 7.68629 21 11C21 14.3137 18.3137 17 15 17H7C3.68629 17 1 14.3137 1 11ZM7 7H15C17.2091 7 19 8.79086 19 11C19 13.2091 17.2091 15 15 15H7C4.79086 15 3 13.2091 3 11C3 8.79086 4.79086 7 7 7Z" fill="#97A3BA"/>
</svg>
