<svg width="22" height="22" viewBox="0 0 22 22" fill="none" xmlns="http://www.w3.org/2000/svg">
<path d="M11.0004 20C10.8688 20.0008 10.7383 19.9756 10.6165 19.9258C10.4946 19.876 10.3838 19.8027 10.2904 19.71L2.52036 11.93C1.54572 10.9452 0.999023 9.61558 0.999023 8.23002C0.999023 6.84445 1.54572 5.51484 2.52036 4.53002C3.50262 3.55053 4.83319 3.00049 6.22036 3.00049C7.60753 3.00049 8.9381 3.55053 9.92036 4.53002L11.0004 5.61002L12.0804 4.53002C13.0626 3.55053 14.3932 3.00049 15.7804 3.00049C17.1675 3.00049 18.4981 3.55053 19.4804 4.53002C20.455 5.51484 21.0017 6.84445 21.0017 8.23002C21.0017 9.61558 20.455 10.9452 19.4804 11.93L11.7104 19.71C11.6169 19.8027 11.5061 19.876 11.3843 19.9258C11.2624 19.9756 11.132 20.0008 11.0004 20ZM6.22036 5.00002C5.79704 4.9981 5.37754 5.0802 4.98617 5.24155C4.5948 5.40291 4.23933 5.64031 3.94036 5.94002C3.33642 6.54714 2.9974 7.36866 2.9974 8.22502C2.9974 9.08137 3.33642 9.9029 3.94036 10.51L11.0004 17.58L18.0604 10.51C18.6643 9.9029 19.0033 9.08137 19.0033 8.22502C19.0033 7.36866 18.6643 6.54714 18.0604 5.94002C17.444 5.35773 16.6283 5.03331 15.7804 5.03331C14.9325 5.03331 14.1167 5.35773 13.5004 5.94002L11.7104 7.74002C11.6174 7.83375 11.5068 7.90814 11.3849 7.95891C11.2631 8.00968 11.1324 8.03581 11.0004 8.03581C10.8683 8.03581 10.7376 8.00968 10.6158 7.95891C10.4939 7.90814 10.3833 7.83375 10.2904 7.74002L8.50036 5.94002C8.20139 5.64031 7.84592 5.40291 7.45455 5.24155C7.06318 5.0802 6.64368 4.9981 6.22036 5.00002Z" fill="#97A3BA"/>
</svg>
