<svg width="24" height="24" viewBox="0 0 24 24" fill="none" xmlns="http://www.w3.org/2000/svg">
<path fill-rule="evenodd" clip-rule="evenodd" d="M2 12C2 6.47715 6.47715 2 12 2C17.5228 2 22 6.47715 22 12C22 17.5228 17.5228 22 12 22C6.47715 22 2 17.5228 2 12ZM12 4C7.58172 4 4 7.58172 4 12C4 12.703 4.09067 13.3848 4.26096 14.0344C4.86088 14.1789 5.94982 14.3863 6.9973 14.3471C8.11467 14.3053 8.83236 14.0026 9.14256 13.4856C9.64433 12.6494 9.63706 11.7613 9.62771 10.6198C9.6264 10.4601 9.62505 10.2953 9.62505 10.1251C9.62505 9.48831 9.65234 8.74632 9.90081 8.04232C10.1649 7.29417 10.6588 6.63873 11.4856 6.14265C12.2554 5.68074 13.0418 4.83554 13.6018 4.1604C13.0843 4.05522 12.5486 4 12 4ZM15.6057 4.85673C15.0492 5.58069 13.8342 7.06585 12.5145 7.85763C12.0913 8.11155 11.8977 8.3936 11.7868 8.70796C11.6603 9.06646 11.6251 9.51197 11.6251 10.1251C11.6251 10.2606 11.6274 10.4052 11.6299 10.5575C11.648 11.6568 11.6726 13.1562 10.8575 14.5146C9.99801 15.9472 8.34667 16.2981 7.072 16.3457C6.42544 16.3699 5.78351 16.3206 5.21783 16.2449C6.63251 18.5004 9.14113 20 12 20C12.8115 20 13.5948 19.8792 14.3329 19.6545C14.2441 19.5299 14.1565 19.396 14.0735 19.2538C13.5272 18.3171 13.114 16.8481 14.1999 15.4001C14.7572 14.6568 14.8742 13.6998 15.006 12.5145C15.0663 11.9713 15.1365 11.3421 15.3105 10.7817C15.4912 10.1994 15.8133 9.5892 16.4452 9.16795C17.3221 8.58334 18.1945 8.29347 18.8455 8.14881C18.897 8.13736 18.9473 8.1268 18.9961 8.11705C18.2191 6.71998 17.0357 5.57997 15.6057 4.85673ZM15.8012 18.2462C15.9236 18.4561 16.0695 18.6465 16.2082 18.8051C18.4841 17.3947 20 14.8744 20 12C20 11.3166 19.9143 10.6532 19.7531 10.0201C19.6301 10.0345 19.4684 10.0592 19.2793 10.1012C18.8053 10.2065 18.1777 10.4167 17.5546 10.8321C17.4365 10.9108 17.3211 11.0506 17.2206 11.3746C17.1132 11.7204 17.0584 12.1537 16.9937 12.7355L16.9783 12.8753C16.8625 13.9323 16.7019 15.3972 15.7999 16.5999C15.386 17.1519 15.4727 17.6829 15.8012 18.2462Z" fill="#777B92"/>
</svg>
