<svg width="24" height="24" viewBox="0 0 24 24" fill="none" xmlns="http://www.w3.org/2000/svg">
<path fill-rule="evenodd" clip-rule="evenodd" d="M13.4142 2.99985L20.4142 9.99985C20.7893 10.3749 21 10.8836 21 11.4141V19.9998C21 21.1044 20.1046 21.9998 19 21.9998H15.0175C15.0117 22 15.0059 22 15 22C14.9941 22 14.9883 22 14.9825 21.9998H9.01754C9.0117 22 9.00586 22 9 22C8.99414 22 8.9883 22 8.98246 21.9998H5C3.89543 21.9998 3 21.1044 3 19.9998V11.4141C3 10.8836 3.21071 10.3749 3.58579 9.99985L10.5858 2.99985C11.3668 2.2188 12.6332 2.2188 13.4142 2.99985ZM16 19.9998H19V11.4141L12 4.41406L5 11.4141V19.9998H8V14C8 12.8954 8.89543 12 10 12H14C15.1046 12 16 12.8954 16 14V19.9998ZM10 19.9998H14V14H10V19.9998Z" fill="#777B92"/>
</svg>
