<svg width="24" height="24" viewBox="0 0 24 24" fill="none" xmlns="http://www.w3.org/2000/svg">
<path fill-rule="evenodd" clip-rule="evenodd" d="M14.7071 11.2929C15.0976 11.6834 15.0976 12.3166 14.7071 12.7071L13.4142 14L14.7071 15.2929C15.0976 15.6834 15.0976 16.3166 14.7071 16.7071C14.3166 17.0976 13.6834 17.0976 13.2929 16.7071L12 15.4142L10.7071 16.7071C10.3166 17.0976 9.68342 17.0976 9.29289 16.7071C8.90237 16.3166 8.90237 15.6834 9.29289 15.2929L10.5858 14L9.29289 12.7071C8.90237 12.3166 8.90237 11.6834 9.29289 11.2929C9.68342 10.9024 10.3166 10.9024 10.7071 11.2929L12 12.5858L13.2929 11.2929C13.6834 10.9024 14.3166 10.9024 14.7071 11.2929Z" fill="#777B92"/>
<path fill-rule="evenodd" clip-rule="evenodd" d="M8 4C8 2.89543 8.89543 2 10 2H14C15.1046 2 16 2.89543 16 4V6H21C21.5523 6 22 6.44772 22 7C22 7.55228 21.5523 8 21 8H20V20C20 21.1046 19.1046 22 18 22H6C4.89543 22 4 21.1046 4 20V8H3C2.44772 8 2 7.55228 2 7C2 6.44772 2.44772 6 3 6H8V4ZM6 8V20H18L18 8H6ZM14 4H10V6H14V4Z" fill="#777B92"/>
</svg>
