<svg width="24" height="24" viewBox="0 0 24 24" fill="none" xmlns="http://www.w3.org/2000/svg">
<path fill-rule="evenodd" clip-rule="evenodd" d="M12 7C12.5523 7 13 7.44772 13 8V13C13 13.5523 12.5523 14 12 14C11.4477 14 11 13.5523 11 13V8C11 7.44772 11.4477 7 12 7Z" fill="#777B92"/>
<path fill-rule="evenodd" clip-rule="evenodd" d="M13 16C13 16.5523 12.5523 17 12 17C11.4477 17 11 16.5523 11 16C11 15.4477 11.4477 15 12 15C12.5523 15 13 15.4477 13 16Z" fill="#777B92"/>
<path fill-rule="evenodd" clip-rule="evenodd" d="M13.8162 2.12493L14.1798 2.40146C14.3885 2.56025 14.6513 2.63066 14.9115 2.59753L15.3646 2.53982C16.7022 2.36948 17.9891 3.11247 18.5104 4.35602L18.6869 4.77728C18.7883 5.01918 18.9807 5.21155 19.2226 5.31295L19.6439 5.48953C20.8874 6.0108 21.6304 7.2977 21.4601 8.63528L21.4024 9.0884C21.3692 9.34858 21.4396 9.61137 21.5984 9.82013L21.875 10.1837C22.6913 11.2569 22.6913 12.7429 21.875 13.8161L21.5984 14.1796C21.4396 14.3884 21.3692 14.6512 21.4024 14.9114L21.4601 15.3645C21.6304 16.7021 20.8874 17.989 19.6439 18.5102L19.2226 18.6868C18.9807 18.7882 18.7883 18.9806 18.6869 19.2225L18.5104 19.6437C17.9891 20.8873 16.7022 21.6303 15.3646 21.4599L14.9115 21.4022C14.6513 21.3691 14.3885 21.4395 14.1798 21.5983L13.8162 21.8748C12.743 22.6912 11.257 22.6912 10.1838 21.8748L9.82025 21.5983C9.61149 21.4395 9.3487 21.3691 9.08852 21.4022L8.63541 21.4599C7.29782 21.6303 6.01093 20.8873 5.48965 19.6437L5.31307 19.2225C5.21167 18.9806 5.0193 18.7882 4.77741 18.6868L4.35615 18.5102C3.11259 17.989 2.3696 16.7021 2.53995 15.3645L2.59765 14.9114C2.63079 14.6512 2.56037 14.3884 2.40158 14.1796L2.12505 13.8161C1.30874 12.7429 1.30874 11.2569 2.12505 10.1837L2.40158 9.82013C2.56037 9.61137 2.63079 9.34858 2.59765 9.0884L2.53995 8.63528C2.3696 7.2977 3.11259 6.0108 4.35615 5.48953L4.77741 5.31295C5.0193 5.21155 5.21167 5.01918 5.31307 4.77729L5.48966 4.35602C6.01093 3.11247 7.29782 2.36948 8.63541 2.53982L9.08852 2.59753C9.3487 2.63066 9.61149 2.56025 9.82025 2.40146L10.1838 2.12493C11.257 1.30862 12.743 1.30862 13.8162 2.12493ZM11.3946 3.71677L11.0311 3.9933C10.4048 4.46967 9.61641 4.68091 8.83586 4.58151L8.38274 4.5238C7.93688 4.46702 7.50792 4.71468 7.33416 5.1292L7.15758 5.55046C6.85339 6.27614 6.27627 6.85326 5.55058 7.15745L5.12932 7.33404C4.7148 7.50779 4.46714 7.93676 4.52392 8.38262L4.58163 8.83574C4.68103 9.61629 4.46979 10.4047 3.99343 11.0309L3.7169 11.3945C3.44479 11.7522 3.44479 12.2475 3.7169 12.6053L3.99343 12.9688C4.46979 13.5951 4.68103 14.3835 4.58163 15.164L4.52392 15.6171C4.46714 16.063 4.7148 16.492 5.12932 16.6657L5.55058 16.8423C6.27627 17.1465 6.85339 17.7236 7.15758 18.4493L7.33416 18.8706C7.50792 19.2851 7.93688 19.5328 8.38274 19.476L8.83586 19.4183C9.61641 19.3189 10.4048 19.5301 11.0311 20.0065L11.3946 20.283C11.7523 20.5551 12.2477 20.5551 12.6054 20.283L12.969 20.0065C13.5952 19.5301 14.3836 19.3189 15.1642 19.4183L15.6173 19.476C16.0631 19.5328 16.4921 19.2851 16.6659 18.8706L16.8424 18.4493C17.1466 17.7236 17.7238 17.1465 18.4494 16.8423L18.8707 16.6657C19.2852 16.492 19.5329 16.063 19.4761 15.6171L19.4184 15.164C19.319 14.3835 19.5302 13.5951 20.0066 12.9688L20.2831 12.6053C20.5552 12.2475 20.5552 11.7522 20.2831 11.3945L20.0066 11.0309C19.5302 10.4047 19.319 9.61629 19.4184 8.83573L19.4761 8.38262C19.5329 7.93676 19.2852 7.50779 18.8707 7.33404L18.4494 7.15745C17.7237 6.85326 17.1466 6.27614 16.8424 5.55046L16.6659 5.1292C16.4921 4.71468 16.0631 4.46702 15.6173 4.5238L15.1642 4.58151C14.3836 4.68091 13.5952 4.46967 12.969 3.9933L12.6054 3.71677C12.2477 3.44467 11.7523 3.44467 11.3946 3.71677Z" fill="#777B92"/>
</svg>
