<svg width="24" height="24" viewBox="0 0 24 24" fill="none" xmlns="http://www.w3.org/2000/svg">
<path fill-rule="evenodd" clip-rule="evenodd" d="M6 12C6 14.392 7.39967 16.459 9.42909 17.4231C9.92795 17.6601 10.1402 18.2566 9.90326 18.7555C9.66628 19.2543 9.06977 19.4666 8.57091 19.2296C5.87043 17.9468 4 15.1928 4 12C4 7.58172 7.58172 4 12 4C16.4183 4 20 7.58172 20 12C20 15.1928 18.1296 17.9468 15.4291 19.2296C14.9302 19.4666 14.3337 19.2543 14.0967 18.7555C13.8598 18.2566 14.0721 17.6601 14.5709 17.4231C16.6003 16.459 18 14.392 18 12C18 8.68629 15.3137 6 12 6C8.68629 6 6 8.68629 6 12Z" fill="#777B92"/>
<path fill-rule="evenodd" clip-rule="evenodd" d="M12 9C10.8954 9 10 9.89543 10 11C10 11.5523 9.55228 12 9 12C8.44772 12 8 11.5523 8 11C8 8.79086 9.79086 7 12 7C14.2091 7 16 8.79086 16 11C16 12.8638 14.7252 14.4299 13 14.874V16C13 16.5523 12.5523 17 12 17C11.4477 17 11 16.5523 11 16V14C11 13.4477 11.4477 13 12 13C13.1046 13 14 12.1046 14 11C14 9.89543 13.1046 9 12 9Z" fill="#777B92"/>
<path fill-rule="evenodd" clip-rule="evenodd" d="M13 19C13 19.5523 12.5523 20 12 20C11.4477 20 11 19.5523 11 19C11 18.4477 11.4477 18 12 18C12.5523 18 13 18.4477 13 19Z" fill="#777B92"/>
</svg>
