<svg width="24" height="24" viewBox="0 0 24 24" fill="none" xmlns="http://www.w3.org/2000/svg">
<path fill-rule="evenodd" clip-rule="evenodd" d="M12 12C12.5523 12 13 12.4477 13 13V14H14C14.5523 14 15 14.4477 15 15C15 15.5523 14.5523 16 14 16H13V17C13 17.5523 12.5523 18 12 18C11.4477 18 11 17.5523 11 17V16H10C9.44771 16 9 15.5523 9 15C9 14.4477 9.44771 14 10 14H11V13C11 12.4477 11.4477 12 12 12Z" fill="#777B92"/>
<path fill-rule="evenodd" clip-rule="evenodd" d="M13.7308 2.99402L22.9964 18.9982C23.7683 20.3315 22.8062 22.0002 21.2655 22.0002H2.73444C1.19378 22.0002 0.231653 20.3315 1.00358 18.9982L10.2691 2.99402C11.0395 1.66346 12.9605 1.66344 13.7308 2.99402ZM12 3.9961L2.73444 20.0002L21.2655 20.0002L12 3.9961Z" fill="#777B92"/>
</svg>
