<svg width="24" height="24" viewBox="0 0 24 24" fill="none" xmlns="http://www.w3.org/2000/svg">
<path fill-rule="evenodd" clip-rule="evenodd" d="M6 5.47022V13.3069C6.64165 13.1305 7.31581 13.106 7.97256 13.16C9.17383 13.2588 10.491 13.6358 11.7185 13.9871C11.7791 14.0045 11.8396 14.0218 11.8997 14.0389C13.2294 14.4189 14.4745 14.7621 15.6207 14.847C16.552 14.9159 17.3385 14.8073 18 14.4549V6.60777C17.174 6.85768 16.3136 6.90382 15.473 6.84159C14.088 6.73904 12.6457 6.33228 11.3503 5.96217C11.3222 5.95415 11.2942 5.94615 11.2663 5.93816C9.95472 5.56334 8.80806 5.23565 7.80867 5.15347C7.00814 5.08764 6.43196 5.19094 6 5.47022ZM6 15.4701V20.0003C6 20.5526 5.55228 21.0003 5 21.0003C4.44772 21.0003 4 20.5526 4 20.0003V5.00037C4 4.73513 4.10537 4.48076 4.29294 4.29322C5.33714 3.24916 6.68817 3.05458 7.97258 3.1602C9.17377 3.25897 10.4908 3.63592 11.7183 3.98723C11.779 4.0046 11.8395 4.02191 11.8997 4.03912C13.2293 4.419 14.4745 4.76218 15.6207 4.84705C16.7473 4.93046 17.662 4.75396 18.4 4.2004C18.703 3.97312 19.1084 3.93654 19.4472 4.10593C19.786 4.27532 20 4.62159 20 5.00037V15.0003C20 15.3151 19.8518 15.6115 19.6 15.8003C18.338 16.7469 16.8777 16.9455 15.473 16.8415C14.088 16.7389 12.6456 16.3321 11.3503 15.962L11.2665 15.9381C9.95486 15.5632 8.80812 15.2354 7.80869 15.1533C7.00815 15.0875 6.43197 15.1908 6 15.4701Z" fill="#777B92"/>
</svg>
