<svg width="24" height="24" viewBox="0 0 24 24" fill="none" xmlns="http://www.w3.org/2000/svg">
<path fill-rule="evenodd" clip-rule="evenodd" d="M12.8945 2.32931L19.8945 5.82931C20.5643 6.16422 21.0191 6.86456 20.9866 7.65918C20.8695 10.5157 20.0023 12.9712 18.8726 14.9887C18.6027 15.4706 17.9933 15.6425 17.5115 15.3726C17.0296 15.1028 16.8577 14.4934 17.1275 14.0115C18.1269 12.2268 18.8793 10.0869 18.9868 7.61154L12 4.11816L9.44725 5.39456C8.95328 5.64155 8.3526 5.44132 8.10561 4.94734C7.85862 4.45337 8.05885 3.85269 8.55283 3.6057L11.1056 2.32931C11.6687 2.04778 12.3314 2.04778 12.8945 2.32931Z" fill="#777B92"/>
<path fill-rule="evenodd" clip-rule="evenodd" d="M5.03102 7.93359C5.46191 14.3947 10.2922 18.5229 12.0001 19.7826C12.4234 19.4705 13.0609 18.9656 13.7821 18.2769C14.1816 17.8955 14.8146 17.9101 15.196 18.3095C15.5774 18.709 15.5627 19.342 15.1633 19.7234C14.3228 20.5259 13.5813 21.1059 13.1022 21.4545C12.4439 21.9335 11.5606 21.9366 10.8991 21.4553C9.16086 20.1905 3.53537 15.5628 3.03546 8.06667C2.99871 7.51561 3.41564 7.0391 3.9667 7.00235C4.51776 6.9656 4.99427 7.38253 5.03102 7.93359Z" fill="#777B92"/>
<path fill-rule="evenodd" clip-rule="evenodd" d="M4.70711 3.29289L20.7071 19.2929C21.0976 19.6834 21.0976 20.3166 20.7071 20.7071C20.3166 21.0976 19.6834 21.0976 19.2929 20.7071L3.29289 4.70711C2.90237 4.31658 2.90237 3.68342 3.29289 3.29289C3.68342 2.90237 4.31658 2.90237 4.70711 3.29289Z" fill="#777B92"/>
</svg>
