<svg width="24" height="24" viewBox="0 0 24 24" fill="none" xmlns="http://www.w3.org/2000/svg">
<path fill-rule="evenodd" clip-rule="evenodd" d="M4 7C4 4.79086 5.79086 3 8 3C10.2091 3 12 4.79086 12 7C12 9.20914 10.2091 11 8 11C5.79086 11 4 9.20914 4 7ZM8 5C6.89543 5 6 5.89543 6 7C6 8.10457 6.89543 9 8 9C9.10457 9 10 8.10457 10 7C10 5.89543 9.10457 5 8 5Z" fill="#777B92"/>
<path fill-rule="evenodd" clip-rule="evenodd" d="M12 10C12 8.34315 13.3431 7 15 7C16.6569 7 18 8.34315 18 10C18 11.6569 16.6569 13 15 13C13.3431 13 12 11.6569 12 10ZM15 9C14.4477 9 14 9.44772 14 10C14 10.5523 14.4477 11 15 11C15.5523 11 16 10.5523 16 10C16 9.44772 15.5523 9 15 9Z" fill="#777B92"/>
<path fill-rule="evenodd" clip-rule="evenodd" d="M3 20C3 20.5523 2.55228 21 2 21C1.44772 21 1 20.5523 1 20C1 16.134 4.13401 13 8 13C9.54605 13 10.975 13.5012 12.1333 14.35C13.7105 13.7463 15.2041 13.9179 16.4053 14.5538C17.7137 15.2465 18.6499 16.4769 18.9701 17.7577C19.1041 18.2935 18.7783 18.8364 18.2425 18.9704C17.7067 19.1043 17.1638 18.7785 17.0298 18.2427C16.85 17.5234 16.2862 16.7537 15.4696 16.3214C14.9867 16.0658 14.4045 15.9223 13.7423 15.9957C14.535 17.1304 15 18.5109 15 20C15 20.5523 14.5523 21 14 21C13.4477 21 13 20.5523 13 20C13 17.2386 10.7614 15 8 15C5.23858 15 3 17.2386 3 20Z" fill="#777B92"/>
<path fill-rule="evenodd" clip-rule="evenodd" d="M19 5H22C22.5523 5 23 5.44772 23 6C23 6.55228 22.5523 7 22 7H19C18.4477 7 18 6.55228 18 6C18 5.44772 18.4477 5 19 5Z" fill="#777B92"/>
</svg>
