<svg width="16" height="16" viewBox="0 0 16 16" fill="none" xmlns="http://www.w3.org/2000/svg">
<path fill-rule="evenodd" clip-rule="evenodd" d="M5.35355 0.646447L7.35355 2.64645C7.54882 2.84171 7.54882 3.15829 7.35355 3.35355C7.15829 3.54882 6.84171 3.54882 6.64645 3.35355L5.5 2.20711V15C5.5 15.2761 5.27614 15.5 5 15.5C4.72386 15.5 4.5 15.2761 4.5 15V2.20711L3.35355 3.35355C3.15829 3.54882 2.84171 3.54882 2.64645 3.35355C2.45118 3.15829 2.45118 2.84171 2.64645 2.64645L4.64645 0.646447C4.84171 0.451184 5.15829 0.451184 5.35355 0.646447Z" fill="#777B92"/>
<path fill-rule="evenodd" clip-rule="evenodd" d="M9.70224 6.00009H8.54883L10.3063 0.90918H11.6934L13.4483 6.00009H12.2949L11.9171 4.83922H10.0801L9.70224 6.00009ZM10.3535 3.99902H11.6461L11.0197 2.07253H10.9799L10.3535 3.99902Z" fill="#777B92"/>
<path fill-rule="evenodd" clip-rule="evenodd" d="M9.5538 15.0001V14.3612L12.0943 10.7966H9.54883V9.90918H13.4466V10.548L10.9036 14.1127H13.4515V15.0001H9.5538Z" fill="#777B92"/>
</svg>
