<svg width="16" height="16" viewBox="0 0 16 16" fill="none" xmlns="http://www.w3.org/2000/svg">
<path fill-rule="evenodd" clip-rule="evenodd" d="M1.45321 2.78868C2.93364 5.96102 5.6299 7.4955 7.98946 7.50011C7.99297 7.50004 7.99648 7.5 8 7.5C8.00353 7.5 8.00705 7.50004 8.01056 7.50011C10.3702 7.4956 13.0666 5.96112 14.547 2.78868C14.6638 2.53844 14.9613 2.43025 15.2116 2.54703C15.4618 2.6638 15.57 2.96133 15.4532 3.21156C14.7253 4.77132 13.717 5.99332 12.575 6.86789L15.3536 9.64645C15.5488 9.84171 15.5488 10.1583 15.3536 10.3536C15.1583 10.5488 14.8417 10.5488 14.6464 10.3536L11.7308 7.43791C10.6958 8.04888 9.58732 8.39869 8.5 8.48109V13C8.5 13.2761 8.27614 13.5 8 13.5C7.72386 13.5 7.5 13.2761 7.5 13V8.48108C6.4127 8.39863 5.30424 8.0488 4.26929 7.43782L1.35355 10.3536C1.15829 10.5488 0.841709 10.5488 0.646447 10.3536C0.451184 10.1583 0.451184 9.84171 0.646447 9.64645L3.42511 6.86778C2.28315 5.99323 1.27489 4.77126 0.547028 3.21156C0.430251 2.96133 0.538441 2.6638 0.788677 2.54703C1.03891 2.43025 1.33643 2.53844 1.45321 2.78868Z" fill="#777B92"/>
</svg>
