<svg width="16" height="16" viewBox="0 0 16 16" fill="none" xmlns="http://www.w3.org/2000/svg">
<path fill-rule="evenodd" clip-rule="evenodd" d="M0.5 2C0.5 1.17157 1.17157 0.5 2 0.5H6C6.82843 0.5 7.5 1.17157 7.5 2V3.5H10C10.8284 3.5 11.5 4.17157 11.5 5V6.5H14C14.8284 6.5 15.5 7.17157 15.5 8V14C15.5 14.8284 14.8284 15.5 14 15.5H10C9.17157 15.5 8.5 14.8284 8.5 14V12.5H6C5.17157 12.5 4.5 11.8284 4.5 11V9.5H2C1.17157 9.5 0.5 8.82843 0.5 8V2ZM9.5 12.5V14C9.5 14.2761 9.72386 14.5 10 14.5H14C14.2761 14.5 14.5 14.2761 14.5 14V8C14.5 7.72386 14.2761 7.5 14 7.5H11.5V11C11.5 11.8284 10.8284 12.5 10 12.5H9.5ZM10.5 11V5C10.5 4.72386 10.2761 4.5 10 4.5H7.5V8C7.5 8.82843 6.82843 9.5 6 9.5H5.5V11C5.5 11.2761 5.72386 11.5 6 11.5H10C10.2761 11.5 10.5 11.2761 10.5 11ZM6.5 2C6.5 1.72386 6.27614 1.5 6 1.5H2C1.72386 1.5 1.5 1.72386 1.5 2V8C1.5 8.27614 1.72386 8.5 2 8.5H6C6.27614 8.5 6.5 8.27614 6.5 8V2Z" fill="#777B92"/>
</svg>
