<svg width="16" height="16" viewBox="0 0 16 16" fill="none" xmlns="http://www.w3.org/2000/svg">
<path fill-rule="evenodd" clip-rule="evenodd" d="M8 5.5C9.38071 5.5 10.5 6.61929 10.5 8C10.5 9.38071 9.38071 10.5 8 10.5C6.61929 10.5 5.5 9.38071 5.5 8C5.5 6.61929 6.61929 5.5 8 5.5ZM6.5 8C6.5 8.82843 7.17157 9.5 8 9.5C8.82843 9.5 9.5 8.82843 9.5 8C9.5 7.17157 8.82843 6.5 8 6.5C7.17157 6.5 6.5 7.17157 6.5 8Z" fill="#777B92"/>
<path fill-rule="evenodd" clip-rule="evenodd" d="M7.99927 2.5C10.6718 2.5 13.5651 4.14838 15.2357 7.34972C15.4481 7.7569 15.4481 8.2431 15.2357 8.65028C13.5651 11.8516 10.6718 13.5 7.99927 13.5C5.32673 13.5 2.43339 11.8516 0.762869 8.65027C0.5504 8.2431 0.550397 7.7569 0.762862 7.34973C2.43334 4.14837 5.32674 2.5 7.99927 2.5ZM1.64942 7.81234C1.58821 7.92965 1.58821 8.07034 1.64943 8.18765C3.16619 11.0944 5.73783 12.5 7.99927 12.5C10.2607 12.5 12.8323 11.0944 14.3491 8.18766C14.4103 8.07035 14.4103 7.92965 14.3491 7.81234C12.8323 4.90564 10.2607 3.5 7.99927 3.5C5.73783 3.5 3.16615 4.90565 1.64942 7.81234Z" fill="#777B92"/>
</svg>
