<svg width="16" height="16" viewBox="0 0 16 16" fill="none" xmlns="http://www.w3.org/2000/svg">
<path fill-rule="evenodd" clip-rule="evenodd" d="M5.35355 0.646447L7.35355 2.64645C7.54882 2.84171 7.54882 3.15829 7.35355 3.35355C7.15829 3.54882 6.84171 3.54882 6.64645 3.35355L5.5 2.20711V15C5.5 15.2761 5.27614 15.5 5 15.5C4.72386 15.5 4.5 15.2761 4.5 15V2.20711L3.35355 3.35355C3.15829 3.54882 2.84171 3.54882 2.64645 3.35355C2.45118 3.15829 2.45118 2.84171 2.64645 2.64645L4.64645 0.646447C4.84171 0.451184 5.15829 0.451184 5.35355 0.646447Z" fill="#777B92"/>
<path fill-rule="evenodd" clip-rule="evenodd" d="M8.61133 6.18164H13.3897V7.19585H11.6085V11.9998H10.3926V7.19585H8.61133V6.18164Z" fill="#777B92"/>
</svg>
