<svg width="22" height="22" viewBox="0 0 22 22" fill="none" xmlns="http://www.w3.org/2000/svg">
<path d="M18.1913 6.00021H17.8017C17.9214 5.68016 17.9856 5.342 17.9915 5.00031C17.9705 4.18698 17.629 3.41499 17.0414 2.85295C16.4537 2.29091 15.6678 1.98449 14.8553 2.00061C14.0568 2.01787 13.2776 2.24973 12.5994 2.67192C11.9211 3.09411 11.3687 3.6911 11 4.40037C10.6313 3.6911 10.0789 3.09411 9.40062 2.67192C8.72235 2.24973 7.94318 2.01787 7.14469 2.00061C6.33215 1.98449 5.54626 2.29091 4.95865 2.85295C4.37103 3.41499 4.02945 4.18698 4.0085 5.00031C4.0144 5.342 4.07858 5.68016 4.19827 6.00021H3.80875C3.54592 6.02519 3.29065 6.10209 3.0577 6.22644C2.82474 6.3508 2.61871 6.52015 2.45154 6.72471C2.28436 6.92926 2.15934 7.16497 2.08371 7.41819C2.00809 7.67142 1.98335 7.93714 2.01093 8.19999V11.7996C1.96427 12.2838 2.08862 12.7691 2.36234 13.171C2.63606 13.5729 3.04184 13.866 3.50911 13.9994V18.369C3.53994 18.8225 3.74587 19.2462 4.08329 19.5504C4.42071 19.8547 4.86314 20.0155 5.31691 19.9988H16.6831C17.1434 20.0151 17.5915 19.8488 17.93 19.5361C18.2686 19.2235 18.4701 18.7896 18.4909 18.329V13.9994C18.9582 13.866 19.3639 13.5729 19.6377 13.171C19.9114 12.7691 20.0357 12.2838 19.9891 11.7996V8.19999C20.0167 7.93714 19.9919 7.67142 19.9163 7.41819C19.8407 7.16497 19.7156 6.92926 19.5485 6.72471C19.3813 6.52015 19.1753 6.3508 18.9423 6.22644C18.7093 6.10209 18.4541 6.02519 18.1913 6.00021ZM17.9915 8.19999V11.7996C18.0035 11.8658 18.0035 11.9335 17.9915 11.9996H11.9988V8.00001H17.9915C18.0035 8.06613 18.0035 8.13387 17.9915 8.19999ZM14.8553 4.00041C15.1383 3.9839 15.4163 4.07954 15.6294 4.26665C15.8425 4.45376 15.9734 4.71731 15.9939 5.00031C15.9734 5.28331 15.8425 5.54685 15.6294 5.73397C15.4163 5.92108 15.1383 6.01672 14.8553 6.00021H12.3983C12.5731 5.46603 12.8976 4.99346 13.3333 4.63888C13.7689 4.28429 14.2973 4.06265 14.8553 4.00041ZM6.00607 5.00031C6.02659 4.71731 6.15754 4.45376 6.3706 4.26665C6.58367 4.07954 6.86174 3.9839 7.14469 4.00041C7.70093 4.06446 8.22713 4.28692 8.66087 4.64139C9.0946 4.99586 9.41766 5.46745 9.59171 6.00021H7.14469C6.86174 6.01672 6.58367 5.92108 6.3706 5.73397C6.15754 5.54685 6.02659 5.28331 6.00607 5.00031ZM4.0085 8.19999C3.99652 8.13387 3.99652 8.06613 4.0085 8.00001H10.0012V11.9996H4.0085C3.99652 11.9335 3.99652 11.8658 4.0085 11.7996V8.19999ZM5.50668 13.9994H10.0012V17.999H5.50668V13.9994ZM11.9988 17.999V13.9994H16.4933V17.999H11.9988Z" fill="#97A3BA"/>
</svg>
