<svg width="22" height="22" viewBox="0 0 22 22" fill="none" xmlns="http://www.w3.org/2000/svg">
<path fill-rule="evenodd" clip-rule="evenodd" d="M7.10283 5H7C7 2.79086 8.79086 1 11 1C13.2091 1 15 2.79086 15 5H14.8972C16.3968 5 17.6896 6.00173 17.991 7.39717L19.9345 16.3972C20.3362 18.2576 18.84 20 16.8407 20H5.15932C3.16 20 1.66379 18.2576 2.06554 16.3972L4.00905 7.39717C4.31039 6.00173 5.60322 5 7.10283 5ZM9 5C9 3.89543 9.89543 3 11 3C12.1046 3 13 3.89543 13 5H9ZM6.07157 7.79906C6.17202 7.33391 6.60296 7 7.10283 7H14.8972C15.397 7 15.828 7.33391 15.9284 7.79906L17.8719 16.7991C18.0059 17.4192 17.5071 18 16.8407 18H5.15932C4.49288 18 3.99414 17.4192 4.12806 16.7991L6.07157 7.79906Z" fill="#97A3BA"/>
</svg>
