<svg width="24" height="24" viewBox="0 0 24 24" fill="none" xmlns="http://www.w3.org/2000/svg">
<path fill-rule="evenodd" clip-rule="evenodd" d="M16.9 6H17.2044C18.1357 6 18.9438 6.64282 19.1532 7.55028L21.6916 18.5503C21.9809 19.8035 21.029 21 19.7429 21H4.25697C2.9708 21 2.01898 19.8035 2.30819 18.5503L4.84665 7.55028C5.05606 6.64282 5.86412 6 6.79543 6H7.10002C7.56329 3.71776 9.58104 2 12 2C14.419 2 16.4367 3.71776 16.9 6ZM9.17071 6H14.8293C14.4175 4.83481 13.3062 4 12 4C10.6938 4 9.58254 4.83481 9.17071 6ZM8.00131 8C8.00087 8 8.00044 8 8 8C7.99956 8 7.99913 8 7.99869 8H6.79543L4.25697 19H19.7429L17.2044 8H16.0005L8.00131 8Z" fill="#777B92"/>
</svg>
