<svg width="22" height="22" viewBox="0 0 22 22" fill="none" xmlns="http://www.w3.org/2000/svg">
<path fill-rule="evenodd" clip-rule="evenodd" d="M20.7057 5.99974C20.5273 5.70038 20.2717 5.45092 19.964 5.27567C19.6563 5.10043 19.3069 5.00539 18.95 4.99983H5.73021L5.13118 2.74003C5.07066 2.52189 4.93564 2.33001 4.7481 2.19565C4.56056 2.06129 4.33155 1.99237 4.09839 2.0001H2.0328C1.75888 2.0001 1.49619 2.10545 1.3025 2.29296C1.10881 2.48048 1 2.73482 1 3.00001C1 3.2652 1.10881 3.51953 1.3025 3.70705C1.49619 3.89457 1.75888 3.99992 2.0328 3.99992H3.31346L6.16398 14.259C6.2245 14.4771 6.35953 14.669 6.54707 14.8034C6.73461 14.9377 6.96361 15.0067 7.19678 14.9989H16.4919C16.6827 14.9984 16.8695 14.9467 17.0317 14.8496C17.194 14.7525 17.3253 14.6139 17.4111 14.449L20.7987 7.88957C20.9455 7.59161 21.0139 7.26309 20.9977 6.93334C20.9814 6.60358 20.8812 6.28284 20.7057 5.99974ZM15.8516 12.9991H7.9817L6.29824 6.99965H18.95L15.8516 12.9991Z" fill="#97A3BA"/>
<path d="M7.5 20C8.32843 20 9 19.3284 9 18.5C9 17.6716 8.32843 17 7.5 17C6.67157 17 6 17.6716 6 18.5C6 19.3284 6.67157 20 7.5 20Z" fill="#97A3BA"/>
<path d="M17 18.5C17 19.3284 16.3284 20 15.5 20C14.6716 20 14 19.3284 14 18.5C14 17.6716 14.6716 17 15.5 17C16.3284 17 17 17.6716 17 18.5Z" fill="#97A3BA"/>
</svg>
