<svg width="22" height="22" viewBox="0 0 22 22" fill="none" xmlns="http://www.w3.org/2000/svg">
<path d="M13.2929 10.2929C13.4804 10.1054 13.7348 10 14 10C14.2652 10 14.5196 10.1054 14.7071 10.2929C14.8946 10.4804 15 10.7348 15 11C15 12.0609 14.5786 13.0783 13.8284 13.8284C13.0783 14.5786 12.0609 15 11 15C9.93913 15 8.92172 14.5786 8.17157 13.8284C7.42143 13.0783 7 12.0609 7 11C7 10.7348 7.10536 10.4804 7.29289 10.2929C7.48043 10.1054 7.73478 10 8 10C8.26522 10 8.51957 10.1054 8.70711 10.2929C8.89464 10.4804 9 10.7348 9 11C9 11.5304 9.21071 12.0391 9.58579 12.4142C9.96086 12.7893 10.4696 13 11 13C11.5304 13 12.0391 12.7893 12.4142 12.4142C12.7893 12.0391 13 11.5304 13 11C13 10.7348 13.1054 10.4804 13.2929 10.2929Z" fill="#97A3BA"/>
<path fill-rule="evenodd" clip-rule="evenodd" d="M16.29 2.88L19.12 5.71C19.6828 6.27207 19.9993 7.03462 20 7.83V17C20 17.7956 19.6839 18.5587 19.1213 19.1213C18.5587 19.6839 17.7956 20 17 20H5C4.20435 20 3.44129 19.6839 2.87868 19.1213C2.31607 18.5587 2 17.7956 2 17V7.83C2.0007 7.03462 2.31723 6.27207 2.88 5.71L5.71 2.88C6.27207 2.31723 7.03462 2.0007 7.83 2H14.17C14.9654 2.0007 15.7279 2.31723 16.29 2.88ZM7.83 4C7.56523 4.00368 7.31163 4.10727 7.12 4.29L5.41 6H16.59L14.88 4.29C14.6884 4.10727 14.4348 4.00368 14.17 4H7.83ZM4.29289 17.7071C4.48043 17.8946 4.73478 18 5 18H17C17.2652 18 17.5196 17.8946 17.7071 17.7071C17.8946 17.5196 18 17.2652 18 17V8H4V17C4 17.2652 4.10536 17.5196 4.29289 17.7071Z" fill="#97A3BA"/>
</svg>
