<svg width="24" height="24" viewBox="0 0 24 24" fill="none" xmlns="http://www.w3.org/2000/svg">
<path fill-rule="evenodd" clip-rule="evenodd" d="M10 12C10 13.1046 10.8954 14 12 14C13.1046 14 14 13.1046 14 12C14 11.4477 14.4477 11 15 11C15.5523 11 16 11.4477 16 12C16 14.2091 14.2091 16 12 16C9.79086 16 8 14.2091 8 12C8 11.4477 8.44772 11 9 11C9.55228 11 10 11.4477 10 12Z" fill="#777B92"/>
<path fill-rule="evenodd" clip-rule="evenodd" d="M7 3.58579C7.37507 3.21071 7.88378 3 8.41421 3H15.5858C16.1162 3 16.6249 3.21071 17 3.58579L20.4142 7C20.7893 7.37507 21 7.88378 21 8.41421V19C21 20.1046 20.1046 21 19 21H5C3.89543 21 3 20.1046 3 19V8.41421C3 7.88378 3.21071 7.37507 3.58579 7L7 3.58579ZM15.5858 5L8.41421 5L6.41421 7H17.5858L15.5858 5ZM19 9H5V19H19V9Z" fill="#777B92"/>
</svg>
