<svg width="24" height="24" viewBox="0 0 24 24" fill="none" xmlns="http://www.w3.org/2000/svg">
<path fill-rule="evenodd" clip-rule="evenodd" d="M12 5.51353C12.0089 5.49903 12.0179 5.48452 12.027 5.47C12.7249 4.35337 13.9893 3 16 3H16.001L16.002 3L16.0043 3.00001L16.0094 3.00004L16.0219 3.00019C16.0312 3.00034 16.0425 3.0006 16.0558 3.00104C16.0822 3.00192 16.1164 3.00353 16.1572 3.00645C16.2384 3.01225 16.348 3.02338 16.4769 3.04486C16.7299 3.08702 17.0825 3.17322 17.4472 3.35557C17.8158 3.53989 18.2149 3.83206 18.5195 4.28905C18.8284 4.7523 19 5.32502 19 6V6.001L19 6.00205L19 6.0043L19 6.00939L18.9998 6.02186C18.9997 6.03119 18.9994 6.04254 18.9989 6.05578C18.9981 6.08222 18.9965 6.11638 18.9935 6.15718C18.9877 6.23846 18.9766 6.34803 18.9551 6.4769C18.9307 6.62349 18.8915 6.80354 18.8273 7H19C20.1046 7 21 7.89543 21 9V13C21 14.1046 20.1046 15 19 15V19C19 20.1046 18.1046 21 17 21H7C5.89543 21 5 20.1046 5 19V15C3.89543 15 3 14.1046 3 13V9C3 7.89543 3.89543 7 5 7H5.17265C5.1085 6.80354 5.06929 6.62349 5.04486 6.4769C5.02338 6.34803 5.01225 6.23846 5.00645 6.15718C5.00353 6.11638 5.00192 6.08222 5.00104 6.05578C5.0006 6.04254 5.00034 6.03119 5.00019 6.02186L5.00004 6.00939L5.00001 6.00451L5 6.00209L7.999 3L5 6.001L5 6C5 5.32502 5.17162 4.7523 5.48045 4.28905C5.78511 3.83206 6.18416 3.53989 6.55279 3.35557C6.9175 3.17322 7.27011 3.08702 7.5231 3.04486C7.65197 3.02338 7.76154 3.01225 7.84282 3.00645C7.88362 3.00353 7.91778 3.00192 7.94422 3.00104C7.95746 3.0006 7.96881 3.00034 7.97814 3.00019L7.99061 3.00004L7.99549 3.00001L7.99791 3L7.999 3H8C10.0107 3 11.2751 4.35337 11.973 5.47C11.9821 5.48452 11.9911 5.49903 12 5.51353ZM10.5418 7C10.4635 6.84592 10.3754 6.68741 10.277 6.53C9.7265 5.64919 8.99358 5.00376 8.00861 5.00002C8.0045 5.00018 7.99657 5.00056 7.98531 5.00136C7.95721 5.00337 7.91053 5.00787 7.8519 5.01764C7.72989 5.03798 7.5825 5.07678 7.44721 5.14443C7.31584 5.21011 7.21489 5.29294 7.14455 5.39845C7.07896 5.49683 7.00138 5.67186 7.00002 5.99144C7.00018 5.99556 7.00056 6.00347 7.00136 6.01469C7.00337 6.04279 7.00787 6.08947 7.01764 6.1481C7.03798 6.27011 7.07678 6.4175 7.14443 6.55279C7.21011 6.68416 7.29294 6.78511 7.39845 6.85545C7.4977 6.92162 7.67498 7 8 7H10.5418ZM5 9V13H11V9H5ZM16 7C16.325 7 16.5023 6.92162 16.6015 6.85545C16.7071 6.78511 16.7899 6.68416 16.8556 6.55279C16.9232 6.4175 16.962 6.27011 16.9823 6.1481C16.9921 6.08947 16.9966 6.04279 16.9986 6.01469C16.9994 6.00347 16.9998 5.99556 17 5.99144C16.9986 5.67186 16.921 5.49683 16.8554 5.39845C16.7851 5.29294 16.6841 5.21011 16.5528 5.14443C16.4175 5.07678 16.2701 5.03798 16.1481 5.01764C16.0895 5.00787 16.0428 5.00337 16.0147 5.00136C16.0034 5.00056 15.9955 5.00018 15.9914 5.00002C15.0064 5.00376 14.2735 5.64919 13.723 6.53C13.6246 6.68741 13.5365 6.84592 13.4582 7H16ZM13 9V13H19V9H13ZM13 19H17V15H13V19ZM11 15H7V19H11V15Z" fill="#777B92"/>
</svg>
