<svg width="24" height="24" viewBox="0 0 24 24" fill="none" xmlns="http://www.w3.org/2000/svg">
<path fill-rule="evenodd" clip-rule="evenodd" d="M13 7V8.58579L13.2929 8.29289C13.6834 7.90237 14.3166 7.90237 14.7071 8.29289C15.0976 8.68342 15.0976 9.31658 14.7071 9.70711L12.7071 11.7071C12.3166 12.0976 11.6834 12.0976 11.2929 11.7071L9.29289 9.70711C8.90237 9.31658 8.90237 8.68342 9.29289 8.29289C9.68342 7.90237 10.3166 7.90237 10.7071 8.29289L11 8.58579V7C11 6.44772 11.4477 6 12 6C12.5523 6 13 6.44772 13 7Z" fill="#777B92"/>
<path fill-rule="evenodd" clip-rule="evenodd" d="M7 2H17C18.1046 2 19 2.89543 19 4V14C19 15.1046 18.1046 16 17 16H7C5.89543 16 5 15.1046 5 14V4C5 2.89543 5.89543 2 7 2ZM7 4V14H17V4L7 4Z" fill="#777B92"/>
<path fill-rule="evenodd" clip-rule="evenodd" d="M3 20H21C21.5523 20 22 20.4477 22 21C22 21.5523 21.5523 22 21 22H3C2.44772 22 2 21.5523 2 21C2 20.4477 2.44772 20 3 20Z" fill="#777B92"/>
<path fill-rule="evenodd" clip-rule="evenodd" d="M13 18C13 18.5523 12.5523 19 12 19C11.4477 19 11 18.5523 11 18C11 17.4477 11.4477 17 12 17C12.5523 17 13 17.4477 13 18Z" fill="#777B92"/>
</svg>
