<svg width="24" height="24" viewBox="0 0 24 24" fill="none" xmlns="http://www.w3.org/2000/svg">
<path fill-rule="evenodd" clip-rule="evenodd" d="M10 2H14C15.1046 2 16 2.89543 16 4V7C16 8.10457 15.1046 9 14 9H10C8.89543 9 8 8.10457 8 7V4C8 2.89543 8.89543 2 10 2ZM10 4V7H14V4H10Z" fill="#777B92"/>
<path fill-rule="evenodd" clip-rule="evenodd" d="M15 15H19C20.1046 15 21 15.8954 21 17V20C21 21.1046 20.1046 22 19 22H15C13.8954 22 13 21.1046 13 20V17C13 15.8954 13.8954 15 15 15ZM15 17V20H19V17H15Z" fill="#777B92"/>
<path fill-rule="evenodd" clip-rule="evenodd" d="M3 17C3 15.8954 3.89543 15 5 15H9C10.1046 15 11 15.8954 11 17V20C11 21.1046 10.1046 22 9 22H5C3.89543 22 3 21.1046 3 20V17ZM9 17H5V20H9V17Z" fill="#777B92"/>
<path fill-rule="evenodd" clip-rule="evenodd" d="M3 11H21C21.5523 11 22 11.4477 22 12C22 12.5523 21.5523 13 21 13H3C2.44772 13 2 12.5523 2 12C2 11.4477 2.44772 11 3 11Z" fill="#777B92"/>
</svg>
