<svg width="16" height="16" viewBox="0 0 16 16" fill="none" xmlns="http://www.w3.org/2000/svg">
<path fill-rule="evenodd" clip-rule="evenodd" d="M5 0.5C5.27614 0.5 5.5 0.723858 5.5 1V13.7929L6.64645 12.6464C6.84171 12.4512 7.15829 12.4512 7.35355 12.6464C7.54882 12.8417 7.54882 13.1583 7.35355 13.3536L5.35355 15.3536C5.15829 15.5488 4.84171 15.5488 4.64645 15.3536L2.64645 13.3536C2.45118 13.1583 2.45118 12.8417 2.64645 12.6464C2.84171 12.4512 3.15829 12.4512 3.35355 12.6464L4.5 13.7929V1C4.5 0.723858 4.72386 0.5 5 0.5Z" fill="#777B92"/>
<path fill-rule="evenodd" clip-rule="evenodd" d="M9.70224 6.00009H8.54883L10.3063 0.90918H11.6934L13.4483 6.00009H12.2949L11.9171 4.83922H10.0801L9.70224 6.00009ZM10.3535 3.99902H11.6461L11.0197 2.07253H10.9799L10.3535 3.99902Z" fill="#777B92"/>
<path fill-rule="evenodd" clip-rule="evenodd" d="M13.3544 9.90918V15.0001H12.2781V13.1954H11.4925L10.5281 15.0001H9.33984L10.4212 13.0214C10.1312 12.8971 9.90826 12.7115 9.75249 12.4646C9.59837 12.2177 9.52131 11.9202 9.52131 11.5722C9.52131 11.0667 9.6804 10.6632 9.99858 10.3616C10.3184 10.06 10.7675 9.90918 11.3459 9.90918H13.3544ZM11.5472 12.3303H12.2781V10.7892H11.5522C10.9374 10.7892 10.63 11.0502 10.63 11.5722C10.63 12.0776 10.9357 12.3303 11.5472 12.3303Z" fill="#777B92"/>
</svg>
