<svg width="16" height="16" viewBox="0 0 16 16" fill="none" xmlns="http://www.w3.org/2000/svg">
<path fill-rule="evenodd" clip-rule="evenodd" d="M7.49029 1.09805L6.6099 5.49999H11C11.1844 5.49999 11.3538 5.60148 11.4408 5.76406C11.5278 5.92664 11.5183 6.12391 11.416 6.27734L5.41603 15.2773C5.2836 15.476 5.02922 15.5533 4.80866 15.4619C4.5881 15.3706 4.46289 15.136 4.50971 14.9019L5.3901 10.5H1C0.815603 10.5 0.646173 10.3985 0.559163 10.2359C0.472154 10.0733 0.48169 9.87607 0.583976 9.72264L6.58398 0.72264C6.7164 0.524002 6.97078 0.446691 7.19134 0.538051C7.4119 0.62941 7.53711 0.863951 7.49029 1.09805ZM6 9.49999C6.1498 9.49999 6.2917 9.56715 6.38667 9.683C6.48164 9.79884 6.51967 9.95116 6.49029 10.098L5.98597 12.6196L10.0657 6.49999H6C5.8502 6.49999 5.7083 6.43283 5.61333 6.31699C5.51836 6.20114 5.48033 6.04882 5.50971 5.90193L6.01403 3.38033L1.93426 9.49999H6Z" fill="#777B92"/>
<path fill-rule="evenodd" clip-rule="evenodd" d="M15.3536 1.35355L12.3536 4.35355C12.1583 4.54882 11.8417 4.54882 11.6464 4.35355L10.6464 3.35355C10.4512 3.15829 10.4512 2.84171 10.6464 2.64645C10.8417 2.45118 11.1583 2.45118 11.3536 2.64645L12 3.29289L14.6464 0.646447C14.8417 0.451184 15.1583 0.451184 15.3536 0.646447C15.5488 0.841709 15.5488 1.15829 15.3536 1.35355Z" fill="#777B92"/>
</svg>
