<svg width="22" height="22" viewBox="0 0 22 22" fill="none" xmlns="http://www.w3.org/2000/svg">
<path d="M17.4679 10.1137C17.5842 10.175 17.6873 10.2587 17.7712 10.36C17.8555 10.461 17.9189 10.5777 17.9579 10.7033C17.997 10.8289 18.0109 10.961 17.9988 11.092C17.9867 11.2229 17.9489 11.3503 17.8876 11.4666C17.8262 11.583 17.7425 11.6861 17.6412 11.77L11.6412 16.77L11.4912 16.86L11.3612 16.93C11.1296 17.0194 10.8729 17.0194 10.6412 16.93L10.5112 16.86L10.3612 16.77L4.36125 11.77C4.26013 11.686 4.17656 11.5828 4.1153 11.4665C4.05404 11.3501 4.0163 11.2229 4.00423 11.0919C3.99216 10.961 4.00599 10.829 4.04494 10.7034C4.0839 10.5778 4.1472 10.4611 4.23125 10.36C4.3153 10.2589 4.41844 10.1753 4.53478 10.1141C4.65112 10.0528 4.7784 10.0151 4.90933 10.003C5.04026 9.99091 5.17228 10.0047 5.29787 10.0437C5.42345 10.0826 5.54013 10.146 5.64125 10.23L10.0012 13.86V4C10.0012 3.73478 10.1066 3.48043 10.2941 3.29289C10.4817 3.10536 10.736 3 11.0012 3C11.2665 3 11.5208 3.10536 11.7084 3.29289C11.8959 3.48043 12.0012 3.73478 12.0012 4V13.86L16.3612 10.23C16.4623 10.1458 16.579 10.0824 16.7046 10.0433C16.8302 10.0043 16.9622 9.99039 17.0932 10.0025C17.2242 10.0145 17.3515 10.0523 17.4679 10.1137Z" fill="#7887A5"/>
<path d="M6 17C5.44772 17 5 17.4477 5 18C5 18.5523 5.44772 19 6 19H16C16.5523 19 17 18.5523 17 18C17 17.4477 16.5523 17 16 17H6Z" fill="#7887A5"/>
</svg>
