<svg width="22" height="22" viewBox="0 0 22 22" fill="none" xmlns="http://www.w3.org/2000/svg">
<path d="M18.9401 4.99573C18.9401 4.73165 18.835 4.47838 18.6478 4.29164C18.4606 4.10491 18.2068 4 17.9421 4C17.6774 4 17.4235 4.10491 17.2363 4.29164C17.0492 4.47838 16.944 4.73165 16.944 4.99573V9.97439C16.9448 10.1054 16.9196 10.2353 16.8699 10.3567C16.8203 10.478 16.7471 10.5883 16.6546 10.6814C16.5613 10.7736 16.4507 10.8467 16.3291 10.8962C16.2075 10.9458 16.0773 10.9709 15.946 10.9701H7.04342L9.72816 7.59459C9.80583 7.39416 9.81643 7.17405 9.75837 6.96711C9.70032 6.76018 9.57672 6.57754 9.40604 6.44646C9.23536 6.31539 9.02676 6.24292 8.8114 6.23988C8.59603 6.23684 8.38546 6.30339 8.21113 6.42959L4.21895 11.4082C4.07722 11.5849 4 11.8043 4 12.0306C4 12.2568 4.07722 12.4763 4.21895 12.6529L8.21113 17.6316C8.30506 17.7471 8.42375 17.8402 8.55846 17.9039C8.69318 17.9677 8.8405 18.0005 8.9896 18C9.21473 17.9987 9.4328 17.9215 9.60839 17.7809C9.71092 17.6988 9.79616 17.5972 9.85921 17.482C9.92226 17.3669 9.96188 17.2405 9.97579 17.11C9.9897 16.9795 9.97763 16.8476 9.94027 16.7218C9.90291 16.596 9.841 16.4788 9.7581 16.377L7.1033 13.0313H16.0059C16.8 13.0313 17.5615 12.7166 18.123 12.1564C18.6845 11.5962 19 10.8363 19 10.0441L18.9401 4.99573Z" fill="#97A3BA"/>
</svg>
