<svg width="22" height="22" viewBox="0 0 22 22" fill="none" xmlns="http://www.w3.org/2000/svg">
<path d="M16.5955 7.49622L14.7786 9.30627C14.5918 9.49233 14.4869 9.7447 14.4869 10.0078C14.4869 10.271 14.5918 10.5233 14.7786 10.7094C14.9653 10.8955 15.2187 11 15.4828 11C15.747 11 16.0003 10.8955 16.1871 10.7094L19.7083 7.20157C19.8951 7.0155 20.0001 6.76314 20.0001 6.5C20.0001 6.23686 19.8951 5.9845 19.7083 5.79843L16.1871 2.2906C16.0003 2.10453 15.747 2 15.4828 2C15.2187 2 14.9653 2.10453 14.7786 2.2906C14.5918 2.47667 14.4869 2.72903 14.4869 2.99217C14.4869 3.2553 14.5918 3.50766 14.7786 3.69373L16.5885 5.49676L11.0001 5.50385C10.7349 5.50385 10.4805 5.60881 10.293 5.79563C10.1054 5.98246 10.0001 6.23586 10.0001 6.50007C10.0001 6.76429 10.1054 7.01768 10.293 7.20451C10.4805 7.39134 10.7349 7.4963 11.0001 7.4963L16.5955 7.49622Z" fill="#97A3BA"/>
<path d="M5.40458 14.5038L7.22156 12.6937C7.40834 12.5077 7.51327 12.2553 7.51327 11.9922C7.51327 11.729 7.40834 11.4767 7.22156 11.2906C7.03478 11.1045 6.78145 11 6.5173 11C6.25316 11 5.99983 11.1045 5.81305 11.2906L2.29177 14.7984C2.10499 14.9845 2.00006 15.2369 2.00006 15.5C2.00006 15.7631 2.10499 16.0155 2.29177 16.2016L5.81305 19.7094C5.99983 19.8955 6.25316 20 6.5173 20C6.78145 20 7.03478 19.8955 7.22156 19.7094C7.40834 19.5233 7.51327 19.271 7.51327 19.0078C7.51327 18.7447 7.40834 18.4923 7.22156 18.3063L5.41162 16.5032L11 16.4962C11.2652 16.4962 11.5196 16.3912 11.7072 16.2044C11.8947 16.0175 12.0001 15.7641 12.0001 15.4999C12.0001 15.2357 11.8947 14.9823 11.7072 14.7955C11.5196 14.6087 11.2652 14.5037 11 14.5037L5.40458 14.5038Z" fill="#97A3BA"/>
</svg>
