<svg width="22" height="22" viewBox="0 0 22 22" fill="none" xmlns="http://www.w3.org/2000/svg">
<path d="M4 12H15.86L12.23 16.36C12.146 16.4611 12.0826 16.5778 12.0437 16.7034C12.0047 16.829 11.9909 16.961 12.003 17.0919C12.0274 17.3564 12.1558 17.6003 12.36 17.77C12.5642 17.9397 12.8275 18.0214 13.0919 17.997C13.3564 17.9726 13.6003 17.8442 13.77 17.64L18.77 11.64C18.8036 11.5923 18.8337 11.5421 18.86 11.49C18.86 11.44 18.91 11.41 18.93 11.36C18.9753 11.2453 18.9991 11.1233 19 11C18.9991 10.8767 18.9753 10.7547 18.93 10.64C18.93 10.59 18.88 10.56 18.86 10.51C18.8337 10.4579 18.8036 10.4077 18.77 10.36L13.77 4.36C13.676 4.24712 13.5582 4.15634 13.4252 4.09412C13.2921 4.0319 13.1469 3.99976 13 4C12.7663 3.99955 12.5399 4.08092 12.36 4.23C12.2587 4.31395 12.175 4.41705 12.1137 4.5334C12.0523 4.64975 12.0145 4.77705 12.0025 4.90803C11.9904 5.03901 12.0043 5.17108 12.0433 5.29668C12.0824 5.42229 12.1458 5.53895 12.23 5.64L15.86 10H4C3.73478 10 3.48043 10.1054 3.29289 10.2929C3.10536 10.4804 3 10.7348 3 11C3 11.2652 3.10536 11.5196 3.29289 11.7071C3.48043 11.8946 3.73478 12 4 12Z" fill="#97A3BA"/>
</svg>
