<svg width="22" height="22" viewBox="0 0 22 22" fill="none" xmlns="http://www.w3.org/2000/svg">
<path d="M17.77 12.36C17.6861 12.2587 17.583 12.175 17.4666 12.1137C17.3503 12.0523 17.223 12.0145 17.092 12.0025C16.961 11.9904 16.829 12.0043 16.7033 12.0433C16.5777 12.0824 16.4611 12.1458 16.36 12.23L12 15.86V4C12 3.73478 11.8947 3.48043 11.7071 3.29289C11.5196 3.10536 11.2652 3 11 3C10.7348 3 10.4805 3.10536 10.2929 3.29289C10.1054 3.48043 10 3.73478 10 4V15.86L5.64003 12.23C5.53891 12.146 5.42223 12.0826 5.29665 12.0437C5.17106 12.0047 5.03904 11.9909 4.90811 12.003C4.77717 12.0151 4.6499 12.0528 4.53356 12.1141C4.41721 12.1753 4.31407 12.2589 4.23003 12.36C4.14598 12.4611 4.08268 12.5778 4.04372 12.7034C4.00477 12.829 3.99094 12.961 4.00301 13.0919C4.01508 13.2229 4.05282 13.3501 4.11408 13.4665C4.17534 13.5828 4.25891 13.686 4.36003 13.77L10.36 18.77L10.51 18.86L10.64 18.93C10.8717 19.0194 11.1284 19.0194 11.36 18.93L11.49 18.86L11.64 18.77L17.64 13.77C17.7413 13.6861 17.825 13.583 17.8863 13.4666C17.9477 13.3503 17.9855 13.2229 17.9976 13.092C18.0096 12.961 17.9958 12.8289 17.9567 12.7033C17.9177 12.5777 17.8542 12.461 17.77 12.36V12.36Z" fill="#97A3BA"/>
</svg>
