<svg width="22" height="22" viewBox="0 0 22 22" fill="none" xmlns="http://www.w3.org/2000/svg">
<path d="M17.785 13.38C17.6199 13.174 17.3801 13.0415 17.1177 13.0115C16.8553 12.9816 16.5918 13.0565 16.3845 13.22L13.0033 15.92V7C13.0033 6.20435 12.6871 5.44129 12.1243 4.87868C11.5614 4.31607 10.7981 4 10.0022 4H5.00036C4.73505 4 4.4806 4.10536 4.293 4.29289C4.1054 4.48043 4 4.73478 4 5C4 5.26522 4.1054 5.51957 4.293 5.70711C4.4806 5.89464 4.73505 6 5.00036 6H10.0022C10.2675 6 10.5219 6.10536 10.7095 6.29289C10.8971 6.48043 11.0025 6.73478 11.0025 7V15.92L7.62131 13.22C7.41259 13.0813 7.15941 13.026 6.91184 13.065C6.66428 13.104 6.44037 13.2344 6.28443 13.4306C6.12848 13.6267 6.05186 13.8742 6.06971 14.1241C6.08757 14.3739 6.19861 14.608 6.38086 14.78L11.3827 18.78C11.5593 18.9195 11.7778 18.9954 12.0029 18.9954C12.228 18.9954 12.4465 18.9195 12.6231 18.78L17.6249 14.78C17.831 14.615 17.9635 14.3752 17.9935 14.113C18.0235 13.8507 17.9485 13.5872 17.785 13.38Z" fill="#97A3BA"/>
</svg>
