<svg width="22" height="22" viewBox="0 0 22 22" fill="none" xmlns="http://www.w3.org/2000/svg">
<path d="M19.2605 12.4411C19.0091 12.3627 18.7369 12.3869 18.5033 12.5085C18.2697 12.63 18.0936 12.8391 18.0133 13.09C17.542 14.5322 16.6231 15.7862 15.3903 16.6697C14.1575 17.5531 12.6752 18.0199 11.159 18.0021C9.28368 18.0235 7.4764 17.2997 6.13351 15.9896C4.79062 14.6795 4.02173 12.89 3.99543 11.0134C4.02173 9.13682 4.79062 7.34727 6.13351 6.03716C7.4764 4.72704 9.28368 4.0033 11.159 4.02463C12.8527 4.02054 14.4943 4.6105 15.7984 5.69195L13.6334 5.33253C13.5036 5.31116 13.3709 5.31568 13.2429 5.34581C13.1149 5.37594 12.9941 5.4311 12.8875 5.50811C12.7809 5.58512 12.6905 5.68247 12.6216 5.79455C12.5527 5.90663 12.5066 6.03123 12.486 6.16119C12.4647 6.29104 12.4692 6.42382 12.4993 6.55192C12.5294 6.68001 12.5845 6.80088 12.6615 6.90758C12.7384 7.01429 12.8357 7.10471 12.9477 7.17366C13.0597 7.24261 13.1842 7.28872 13.3141 7.30935L17.5444 8.00822H17.714C17.8297 8.00808 17.9445 7.98782 18.0533 7.94832C18.0898 7.93444 18.1236 7.91415 18.153 7.88841C18.2246 7.8618 18.2918 7.82479 18.3526 7.77859L18.4424 7.66877C18.4424 7.61885 18.5322 7.57891 18.5721 7.51901C18.612 7.4591 18.5721 7.41917 18.622 7.37923C18.6495 7.32109 18.6729 7.26103 18.6918 7.19952L19.4401 3.20595C19.465 3.07484 19.4638 2.9401 19.4367 2.80944C19.4095 2.67878 19.3569 2.55474 19.2819 2.44442C19.2069 2.33409 19.1108 2.23964 18.9993 2.16645C18.8878 2.09326 18.763 2.04277 18.6319 2.01786C18.5009 1.99295 18.3663 1.99411 18.2357 2.02127C18.1051 2.04843 17.9812 2.10105 17.8709 2.17615C17.6483 2.32781 17.4949 2.56177 17.4447 2.82656L17.1753 4.27423C15.5051 2.8258 13.3692 2.02828 11.159 2.02785C8.75447 2.00655 6.43967 2.94067 4.72257 4.62525C3.00547 6.30982 2.02633 8.60724 2 11.0134C2.02633 13.4195 3.00547 15.7169 4.72257 17.4015C6.43967 19.0861 8.75447 20.0202 11.159 19.9989C13.1077 20.0289 15.0145 19.432 16.5987 18.296C18.1829 17.1601 19.3608 15.5452 19.9589 13.6891C19.9967 13.5613 20.0086 13.4271 19.9938 13.2946C19.979 13.1622 19.9379 13.034 19.8728 12.9176C19.8077 12.8013 19.72 12.6992 19.6148 12.6174C19.5097 12.5355 19.3892 12.4756 19.2605 12.4411Z" fill="#97A3BA"/>
</svg>
