<svg width="22" height="22" viewBox="0 0 22 22" fill="none" xmlns="http://www.w3.org/2000/svg">
<path d="M16.9952 4H11.9714C11.172 4 10.4053 4.31607 9.83996 4.87868C9.27467 5.44129 8.9571 6.20435 8.9571 7V15.92L5.56098 13.22C5.35135 13.0813 5.09705 13.026 4.84839 13.065C4.59974 13.104 4.37485 13.2344 4.21821 13.4306C4.06158 13.6267 3.98462 13.8742 4.00256 14.1241C4.02049 14.3739 4.13202 14.608 4.31507 14.78L9.33891 18.78C9.5163 18.9195 9.73578 18.9954 9.96186 18.9954C10.188 18.9954 10.4074 18.9195 10.5848 18.78L15.6087 14.78C15.7245 14.7033 15.8231 14.6036 15.8982 14.487C15.9733 14.3704 16.0233 14.2396 16.045 14.1028C16.0666 13.966 16.0595 13.8263 16.024 13.6924C15.9886 13.5585 15.9256 13.4334 15.839 13.325C15.7524 13.2166 15.6442 13.1272 15.5211 13.0626C15.398 12.9981 15.2628 12.9596 15.124 12.9497C14.9853 12.9399 14.8459 12.9588 14.7149 13.0053C14.5838 13.0518 14.4639 13.1249 14.3627 13.22L10.9666 15.92V7C10.9666 6.73478 11.0725 6.48043 11.2609 6.29289C11.4494 6.10536 11.7049 6 11.9714 6H16.9952C17.2617 6 17.5173 5.89464 17.7057 5.70711C17.8941 5.51957 18 5.26522 18 5C18 4.73478 17.8941 4.48043 17.7057 4.29289C17.5173 4.10536 17.2617 4 16.9952 4Z" fill="#97A3BA"/>
</svg>
