<svg width="22" height="22" viewBox="0 0 22 22" fill="none" xmlns="http://www.w3.org/2000/svg">
<path d="M12.8409 20.2355C12.7741 20.2227 12.7099 20.1991 12.6507 20.1656C12.5952 20.1568 12.5413 20.14 12.4906 20.1157C12.4327 20.0746 12.379 20.0278 12.3304 19.976L12.2303 19.8962C12.184 19.8354 12.1469 19.7681 12.1202 19.6966C12.0944 19.6671 12.074 19.6333 12.0601 19.5968C12.019 19.4884 11.9987 19.3733 12.0001 19.2575L12.0001 19.0978L12.7108 14.8564C12.7318 14.7254 12.7786 14.5997 12.8483 14.4867C12.918 14.3736 13.0094 14.2754 13.1173 14.1975C13.2251 14.1197 13.3472 14.0638 13.4767 14.033C13.6062 14.0022 13.7405 13.9972 13.872 14.0181C14.0035 14.0391 14.1295 14.0857 14.2429 14.1552C14.3563 14.2247 14.4548 14.3158 14.5329 14.4233C14.611 14.5308 14.6671 14.6526 14.698 14.7817C14.7288 14.9108 14.7339 15.0447 14.7129 15.1758L14.4426 16.8224C15.5373 16.1912 16.4452 15.2828 17.0745 14.1893C17.7039 13.0957 18.0322 11.8558 18.0263 10.5951C18.051 9.1696 17.6426 7.77002 16.8547 6.58022C16.0668 5.39042 14.9363 4.46608 13.6117 3.92864C13.4891 3.87934 13.3774 3.8063 13.2833 3.71375C13.1891 3.62119 13.1143 3.51095 13.0631 3.38939C13.0119 3.26783 12.9854 3.13737 12.985 3.00553C12.9847 2.8737 13.0106 2.7431 13.0612 2.62129C13.1611 2.37679 13.3542 2.18175 13.5981 2.07887C13.842 1.976 14.1169 1.97367 14.3625 2.07241C15.9606 2.74553 17.336 3.85406 18.331 5.27085C19.3261 6.68765 19.9004 8.35535 19.9882 10.0827C20.076 11.81 19.6736 13.527 18.8273 15.0368C17.981 16.5466 16.725 17.7881 15.2034 18.6188L17.2054 18.988C17.4709 19.0357 17.7066 19.1865 17.8605 19.4073C18.0144 19.6282 18.0741 19.9009 18.0263 20.1656C17.9785 20.4303 17.8272 20.6652 17.6057 20.8187C17.3842 20.9721 17.1106 21.0316 16.8451 20.984L12.8409 20.2355Z" fill="#97A3BA"/>
<path d="M8.98842 18.9813C8.98942 19.1137 8.96403 19.245 8.91371 19.3676C8.81747 19.6111 8.62929 19.8071 8.38965 19.9136C8.15001 20.0201 7.87805 20.0285 7.63229 19.9369C6.03463 19.2622 4.6599 18.1518 3.66575 16.7331C2.6716 15.3145 2.09829 13.645 2.01155 11.9161C1.92481 10.1873 2.32815 8.46898 3.17533 6.95836C4.02252 5.44774 5.27923 4.20593 6.80137 3.37534L4.79914 3.00575C4.56593 2.9632 4.35541 2.83945 4.20508 2.65653C4.05475 2.47361 3.97437 2.24339 3.97823 2.00686L3.97823 1.82706C4.00178 1.69252 4.05273 1.56422 4.12793 1.45011C4.20313 1.33599 4.30099 1.23847 4.41546 1.16357C4.52992 1.08868 4.65856 1.038 4.79344 1.01468C4.9283 0.99135 5.06654 0.995867 5.19959 1.02795L9.20403 1.77712C9.26506 1.78821 9.32306 1.81203 9.37422 1.84704C9.44022 1.86261 9.50409 1.88609 9.56443 1.91696L9.66454 2.00686C9.73204 2.05889 9.7926 2.11931 9.84474 2.18666C9.9075 2.28547 9.95476 2.39326 9.9849 2.50631L9.9849 2.58622C10.005 2.69518 10.005 2.80689 9.9849 2.91585L9.29413 7.16113C9.27289 7.42605 9.14705 7.6717 8.94428 7.84405C8.74152 8.01639 8.47844 8.1013 8.21293 8.08011C7.94742 8.05891 7.70122 7.93335 7.5285 7.73104C7.35577 7.52872 7.27067 7.26623 7.29191 7.00131L7.29191 6.84149L7.56221 5.19332C6.46744 5.82514 5.55941 6.73435 4.93005 7.8289C4.30069 8.92346 3.97233 10.1645 3.97823 11.4264C3.95842 12.8418 4.36477 14.2306 5.14473 15.4131C5.92468 16.5956 7.04234 17.5173 8.35309 18.059C8.47663 18.1074 8.5893 18.1798 8.68454 18.272C8.77979 18.3643 8.8557 18.4745 8.90787 18.5962C8.96003 18.718 8.98742 18.8489 8.98842 18.9813Z" fill="#97A3BA"/>
</svg>
