<svg width="24" height="24" viewBox="0 0 24 24" fill="none" xmlns="http://www.w3.org/2000/svg">
<path fill-rule="evenodd" clip-rule="evenodd" d="M14 4H19C19.5523 4 20 4.44771 20 5L20 9.99992C20 10.5522 19.5523 10.9999 19 10.9999C18.4477 10.9999 18 10.5522 18 9.99992L18 7.4142L14.7071 10.7071C14.3166 11.0976 13.6834 11.0976 13.2929 10.7071C12.9024 10.3165 12.9024 9.68337 13.2929 9.29285L16.5858 6H14C13.4477 6 13 5.55228 13 5C13 4.44772 13.4477 4 14 4Z" fill="#777B92"/>
<path fill-rule="evenodd" clip-rule="evenodd" d="M10.7071 14.7071L7.41423 18H10C10.5523 18 11 18.4477 11 19C11 19.5522 10.5523 20 10 20H5C4.44772 20 4 19.5522 4 19L4 14C4 13.4478 4.44771 13 5 13C5.55228 13 6 13.4478 6 14L6 16.5858L9.29291 13.2929C9.68343 12.9024 10.3166 12.9024 10.7071 13.2929C11.0976 13.6834 11.0976 14.3166 10.7071 14.7071Z" fill="#777B92"/>
</svg>
