<svg width="24" height="24" viewBox="0 0 24 24" fill="none" xmlns="http://www.w3.org/2000/svg">
<path fill-rule="evenodd" clip-rule="evenodd" d="M6 5C6 4.44772 6.44772 4 7 4H17C17.5523 4 18 4.44772 18 5C18 5.55228 17.5523 6 17 6H7C6.44772 6 6 5.55228 6 5Z" fill="#777B92"/>
<path fill-rule="evenodd" clip-rule="evenodd" d="M13 19C13 19.5523 12.5523 20 12 20C11.4477 20 11 19.5523 11 19V12.4142L8.70711 14.7071C8.31658 15.0976 7.68342 15.0976 7.29289 14.7071C6.90237 14.3166 6.90237 13.6834 7.29289 13.2929L11.2929 9.29289C11.488 9.09781 11.7436 9.00018 11.9993 9H7C6.44772 9 6 8.55228 6 8C6 7.44772 6.44772 7 7 7H17C17.5523 7 18 7.44772 18 8C18 8.55228 17.5523 9 17 9H12.0007C12.2564 9.00018 12.512 9.09781 12.7071 9.29289L16.7071 13.2929C17.0976 13.6834 17.0976 14.3166 16.7071 14.7071C16.3166 15.0976 15.6834 15.0976 15.2929 14.7071L13 12.4142V19Z" fill="#777B92"/>
</svg>
