<svg width="22" height="22" viewBox="0 0 22 22" fill="none" xmlns="http://www.w3.org/2000/svg">
<path d="M20.2355 9.15906C20.2227 9.22587 20.1991 9.29013 20.1656 9.34926C20.1568 9.40479 20.14 9.45874 20.1157 9.50943C20.0746 9.56733 20.0278 9.62099 19.976 9.66959L19.8962 9.76969C19.8354 9.81602 19.7681 9.85312 19.6966 9.87981C19.6671 9.90561 19.6333 9.92595 19.5968 9.93987C19.4884 9.98096 19.3733 10.0013 19.2575 9.99993H19.0978L14.8564 9.2892C14.7254 9.26817 14.5997 9.22145 14.4867 9.15171C14.3736 9.08197 14.2754 8.99058 14.1975 8.88275C14.1197 8.77492 14.0638 8.65277 14.033 8.52327C14.0022 8.39377 13.9972 8.25946 14.0181 8.128C14.0391 7.99654 14.0857 7.87052 14.1552 7.75711C14.2247 7.64371 14.3158 7.54516 14.4233 7.46708C14.5308 7.38899 14.6526 7.33291 14.7817 7.30204C14.9108 7.27117 15.0447 7.2661 15.1758 7.28713L16.8224 7.55741C16.1912 6.46273 15.2828 5.55477 14.1893 4.92546C13.0957 4.29614 11.8558 3.96782 10.5951 3.97371C9.1696 3.94901 7.77002 4.35743 6.58022 5.14532C5.39042 5.93321 4.46608 7.06371 3.92864 8.38827C3.87934 8.51092 3.8063 8.62255 3.71375 8.71672C3.62119 8.81089 3.51095 8.88574 3.38939 8.93693C3.26783 8.98812 3.13737 9.01465 3.00553 9.01498C2.8737 9.0153 2.7431 8.98943 2.62129 8.93884C2.37679 8.83888 2.18175 8.6458 2.07887 8.40189C1.976 8.15798 1.97367 7.88312 2.07241 7.63749C2.74553 6.03942 3.85406 4.664 5.27085 3.66897C6.68765 2.67394 8.35535 2.09961 10.0827 2.01182C11.81 1.92404 13.527 2.32637 15.0368 3.17267C16.5466 4.01897 17.7881 5.27497 18.6188 6.79663L18.988 4.79456C19.0357 4.52907 19.1865 4.29344 19.4073 4.1395C19.6282 3.98556 19.9009 3.92593 20.1656 3.97371C20.4303 4.0215 20.6652 4.1728 20.8187 4.39432C20.9721 4.61584 21.0316 4.88944 20.984 5.15493L20.2355 9.15906Z" fill="#97A3BA"/>
<path d="M18.9813 13.0116C19.1137 13.0106 19.245 13.036 19.3676 13.0863C19.6111 13.1825 19.8071 13.3707 19.9136 13.6103C20.0201 13.85 20.0285 14.1219 19.9369 14.3677C19.2622 15.9654 18.1518 17.3401 16.7331 18.3342C15.3145 19.3284 13.645 19.9017 11.9161 19.9885C10.1873 20.0752 8.46898 19.6718 6.95836 18.8247C5.44774 17.9775 4.20593 16.7208 3.37534 15.1986L3.00575 17.2009C2.9632 17.4341 2.83945 17.6446 2.65653 17.7949C2.47361 17.9452 2.24339 18.0256 2.00686 18.0218H1.82706C1.69252 17.9982 1.56423 17.9473 1.45011 17.8721C1.33599 17.7969 1.23847 17.699 1.16357 17.5845C1.08868 17.4701 1.038 17.3414 1.01468 17.2066C0.99135 17.0717 0.995868 16.9335 1.02795 16.8004L1.77712 12.796C1.78821 12.7349 1.81204 12.6769 1.84704 12.6258C1.86261 12.5598 1.88609 12.4959 1.91696 12.4356L2.00686 12.3355C2.05889 12.268 2.11931 12.2074 2.18666 12.1553C2.28547 12.0925 2.39326 12.0452 2.50631 12.0151H2.58622C2.69518 11.995 2.80689 11.995 2.91585 12.0151L7.16113 12.7059C7.42605 12.7271 7.67171 12.853 7.84405 13.0557C8.01639 13.2585 8.1013 13.5216 8.08011 13.7871C8.05892 14.0526 7.93335 14.2988 7.73104 14.4715C7.52872 14.6442 7.26623 14.7293 7.00131 14.7081H6.84149L5.19332 14.4378C5.82514 15.5326 6.73435 16.4406 7.8289 17.0699C8.92346 17.6993 10.1645 18.0277 11.4264 18.0218C12.8418 18.0416 14.2306 17.6352 15.4131 16.8553C16.5956 16.0753 17.5173 14.9577 18.059 13.6469C18.1074 13.5234 18.1798 13.4107 18.272 13.3155C18.3643 13.2202 18.4745 13.1443 18.5962 13.0921C18.718 13.04 18.8489 13.0126 18.9813 13.0116Z" fill="#97A3BA"/>
</svg>
