<svg width="22" height="22" viewBox="0 0 22 22" fill="none" xmlns="http://www.w3.org/2000/svg">
<path d="M7.49622 5.40452L9.30627 7.2215C9.49233 7.40828 9.7447 7.51321 10.0078 7.51321C10.271 7.51321 10.5233 7.40828 10.7094 7.2215C10.8955 7.03472 11 6.78139 11 6.51724C11 6.2531 10.8955 5.99977 10.7094 5.81299L7.20157 2.29171C7.0155 2.10493 6.76314 2 6.5 2C6.23686 2 5.9845 2.10493 5.79843 2.29171L2.2906 5.81299C2.10453 5.99977 2 6.2531 2 6.51724C2 6.78139 2.10453 7.03472 2.2906 7.2215C2.47667 7.40828 2.72903 7.51321 2.99217 7.51321C3.2553 7.51321 3.50767 7.40828 3.69373 7.2215L5.49676 5.41156L5.50385 11C5.50385 11.2652 5.60881 11.5196 5.79564 11.7071C5.98246 11.8946 6.23586 12 6.50007 12C6.76429 12 7.01768 11.8946 7.20451 11.7071C7.39134 11.5196 7.4963 11.2652 7.4963 11L7.49622 5.40452Z" fill="#97A3BA"/>
<path d="M14.5038 16.5955L12.6937 14.7785C12.5077 14.5917 12.2553 14.4868 11.9922 14.4868C11.729 14.4868 11.4767 14.5917 11.2906 14.7785C11.1045 14.9653 11 15.2186 11 15.4828C11 15.7469 11.1045 16.0002 11.2906 16.187L14.7984 19.7083C14.9845 19.8951 15.2369 20 15.5 20C15.7631 20 16.0155 19.8951 16.2016 19.7083L19.7094 16.187C19.8955 16.0002 20 15.7469 20 15.4828C20 15.2186 19.8955 14.9653 19.7094 14.7785C19.5233 14.5917 19.271 14.4868 19.0078 14.4868C18.7447 14.4868 18.4923 14.5917 18.3063 14.7785L16.5032 16.5884L16.4962 11C16.4962 10.7348 16.3912 10.4804 16.2044 10.2929C16.0175 10.1054 15.7641 10 15.4999 10C15.2357 10 14.9823 10.1054 14.7955 10.2929C14.6087 10.4804 14.5037 10.7348 14.5037 11L14.5038 16.5955Z" fill="#97A3BA"/>
</svg>
