<svg width="22" height="22" viewBox="0 0 22 22" fill="none" xmlns="http://www.w3.org/2000/svg">
<path d="M18 9.99979H6.14L9.77 5.63979C9.93974 5.43557 10.0214 5.17229 9.99702 4.90786C9.97264 4.64344 9.84422 4.39953 9.64 4.22979C9.43578 4.06005 9.1725 3.97839 8.90808 4.00277C8.64365 4.02715 8.39974 4.15557 8.23 4.35979L3.23 10.3598C3.19636 10.4075 3.16628 10.4576 3.14 10.5098C3.14 10.5598 3.14 10.5898 3.07 10.6398C3.02467 10.7544 3.00094 10.8765 3 10.9998C3.00094 11.1231 3.02467 11.2451 3.07 11.3598C3.07 11.4098 3.07 11.4398 3.14 11.4898C3.16628 11.5419 3.19636 11.5921 3.23 11.6398L8.23 17.6398C8.32402 17.7527 8.44176 17.8435 8.57485 17.9057C8.70793 17.9679 8.85309 18 9 17.9998C9.23365 18.0002 9.46009 17.9189 9.64 17.7698C9.74126 17.6858 9.82496 17.5827 9.88631 17.4664C9.94766 17.35 9.98546 17.2227 9.99754 17.0918C10.0096 16.9608 9.99573 16.8287 9.95669 16.7031C9.91764 16.5775 9.8542 16.4608 9.77 16.3598L6.14 11.9998H18C18.2652 11.9998 18.5196 11.8944 18.7071 11.7069C18.8946 11.5194 19 11.265 19 10.9998C19 10.7346 18.8946 10.4802 18.7071 10.2927C18.5196 10.1051 18.2652 9.99979 18 9.99979Z" fill="#97A3BA"/>
</svg>
