<svg width="22" height="22" viewBox="0 0 22 22" fill="none" xmlns="http://www.w3.org/2000/svg">
<path d="M2.7395 12.4411C2.99089 12.3627 3.26306 12.3869 3.49668 12.5085C3.73029 12.63 3.90642 12.8391 3.98665 13.09C4.458 14.5322 5.37691 15.7862 6.60968 16.6697C7.84245 17.5531 9.32477 18.0199 10.841 18.0021C12.7163 18.0235 14.5236 17.2997 15.8665 15.9896C17.2094 14.6795 17.9783 12.89 18.0046 11.0134C17.9783 9.13682 17.2094 7.34727 15.8665 6.03716C14.5236 4.72704 12.7163 4.0033 10.841 4.02463C9.14726 4.02054 7.50568 4.6105 6.20158 5.69195L8.36662 5.33253C8.49638 5.31116 8.62908 5.31568 8.75708 5.34581C8.88509 5.37594 9.00588 5.4311 9.11251 5.50811C9.21914 5.58512 9.3095 5.68247 9.3784 5.79455C9.44731 5.90663 9.49339 6.03123 9.514 6.16119C9.53535 6.29104 9.53084 6.42382 9.50072 6.55192C9.47061 6.68001 9.41549 6.80088 9.33853 6.90758C9.26158 7.01429 9.1643 7.10471 9.05229 7.17366C8.94029 7.24261 8.81577 7.28872 8.68589 7.30935L4.45558 8.00822H4.28596C4.17027 8.00808 4.05549 7.98782 3.94674 7.94832C3.91019 7.93444 3.87641 7.91415 3.84697 7.88841C3.77543 7.8618 3.7082 7.82479 3.64743 7.77859L3.55763 7.66877C3.55763 7.61885 3.46784 7.57891 3.42793 7.51901C3.38802 7.45911 3.42793 7.41917 3.37804 7.37923C3.35047 7.32109 3.32713 7.26103 3.3082 7.19952L2.55991 3.20595C2.53502 3.07484 2.53618 2.9401 2.56332 2.80944C2.59046 2.67878 2.64305 2.55474 2.7181 2.44442C2.79314 2.33409 2.88916 2.23964 3.00068 2.16645C3.11221 2.09326 3.23704 2.04277 3.36807 2.01786C3.49909 1.99295 3.63373 1.99411 3.7643 2.02127C3.89488 2.04843 4.01883 2.10105 4.12908 2.17615C4.35174 2.32781 4.50507 2.56177 4.55535 2.82656L4.82473 4.27423C6.49492 2.8258 8.63084 2.02828 10.841 2.02785C13.2455 2.00655 15.5603 2.94067 17.2774 4.62525C18.9945 6.30982 19.9737 8.60724 20 11.0134C19.9737 13.4195 18.9945 15.7169 17.2774 17.4015C15.5603 19.0861 13.2455 20.0202 10.841 19.9989C8.89228 20.0289 6.98547 19.432 5.40128 18.296C3.81709 17.1601 2.63922 15.5452 2.0411 13.6891C2.00326 13.5613 1.99138 13.4271 2.00617 13.2946C2.02095 13.1622 2.06211 13.034 2.1272 12.9176C2.1923 12.8013 2.28001 12.6992 2.38517 12.6174C2.49034 12.5355 2.61082 12.4756 2.7395 12.4411Z" fill="#97A3BA"/>
</svg>
