<svg width="22" height="22" viewBox="0 0 22 22" fill="none" xmlns="http://www.w3.org/2000/svg">
<path d="M17.6249 8.2154L12.6231 4.2154C12.4465 4.07589 12.228 4 12.0029 4C11.7778 4 11.5593 4.07589 11.3827 4.2154L6.38086 8.2154C6.19861 8.38737 6.08757 8.62145 6.06971 8.87135C6.05186 9.12124 6.12848 9.36872 6.28443 9.56484C6.44037 9.76096 6.66428 9.89142 6.91184 9.93041C7.15941 9.9694 7.41259 9.91408 7.62131 9.7754L11.0025 7.0754V15.9954C11.0025 16.2606 10.8971 16.515 10.7095 16.7025C10.5219 16.89 10.2675 16.9954 10.0022 16.9954H5.00036C4.73505 16.9954 4.4806 17.1008 4.293 17.2883C4.1054 17.4758 4 17.7302 4 17.9954C4 18.2606 4.1054 18.515 4.293 18.7025C4.4806 18.89 4.73505 18.9954 5.00036 18.9954H10.0022C10.7981 18.9954 11.5614 18.6793 12.1243 18.1167C12.6871 17.5541 13.0033 16.791 13.0033 15.9954V7.0754L16.3845 9.7754C16.5605 9.91656 16.779 9.99409 17.0047 9.9954C17.155 9.99471 17.3031 9.96018 17.4382 9.8944C17.5733 9.82861 17.6918 9.73325 17.785 9.6154C17.9485 9.40817 18.0235 9.14469 17.9935 8.88243C17.9635 8.62017 17.831 8.38039 17.6249 8.2154V8.2154Z" fill="#97A3BA"/>
</svg>
