<svg width="22" height="22" viewBox="0 0 22 22" fill="none" xmlns="http://www.w3.org/2000/svg">
<path d="M18.78 11.38L14.78 6.38C14.608 6.19782 14.3739 6.08682 14.1241 6.06897C13.8742 6.05112 13.6267 6.12771 13.4306 6.2836C13.2344 6.43949 13.104 6.66332 13.065 6.91079C13.026 7.15827 13.0813 7.41136 13.22 7.62L15.92 11H7C6.73478 11 6.48043 10.8946 6.29289 10.7071C6.10536 10.5196 6 10.2652 6 10V5C6 4.73478 5.89464 4.48043 5.70711 4.29289C5.51957 4.10536 5.26522 4 5 4C4.73478 4 4.48043 4.10536 4.29289 4.29289C4.10536 4.48043 4 4.73478 4 5V10C4 10.7956 4.31607 11.5587 4.87868 12.1213C5.44129 12.6839 6.20435 13 7 13H15.92L13.22 16.38C13.0565 16.5872 12.9816 16.8507 13.0115 17.113C13.0415 17.3752 13.174 17.615 13.38 17.78C13.5559 17.9212 13.7744 17.9987 14 18C14.1502 17.9993 14.2983 17.9648 14.4334 17.899C14.5684 17.8332 14.6869 17.7379 14.78 17.62L18.78 12.62C18.9195 12.4435 18.9954 12.225 18.9954 12C18.9954 11.775 18.9195 11.5565 18.78 11.38V11.38Z" fill="#97A3BA"/>
</svg>
