<svg width="22" height="22" viewBox="0 0 22 22" fill="none" xmlns="http://www.w3.org/2000/svg">
<path d="M9.63998 17.7702C9.74124 17.6862 9.82494 17.5831 9.88629 17.4668C9.94764 17.3504 9.98544 17.2231 9.99751 17.0922C10.0096 16.9612 9.99571 16.8291 9.95666 16.7035C9.91762 16.5779 9.85418 16.4612 9.76998 16.3602L6.13998 12.0002L18 12.0002C18.2652 12.0002 18.5195 11.8948 18.7071 11.7073C18.8946 11.5198 19 11.2654 19 11.0002C19 10.735 18.8946 10.4806 18.7071 10.2931C18.5195 10.1055 18.2652 10.0002 18 10.0002L6.13998 10.0002L9.76998 5.64019C9.85402 5.53907 9.91733 5.42239 9.95628 5.29681C9.99523 5.17123 10.0091 5.0392 9.997 4.90827C9.98493 4.77734 9.94718 4.65007 9.88593 4.53372C9.82467 4.41738 9.74109 4.31424 9.63998 4.23019C9.53886 4.14615 9.42218 4.08284 9.29659 4.04389C9.17101 4.00494 9.03898 3.9911 8.90805 4.00317C8.77712 4.01524 8.64985 4.05298 8.53351 4.11424C8.41716 4.1755 8.31402 4.25908 8.22998 4.36019L3.22998 10.3602L3.13998 10.5102L3.06998 10.6402C2.98058 10.8719 2.98058 11.1285 3.06998 11.3602L3.13998 11.4902L3.22998 11.6402L8.22998 17.6402C8.31393 17.7415 8.41703 17.8252 8.53337 17.8865C8.64972 17.9479 8.77703 17.9857 8.90801 17.9977C9.03898 18.0098 9.17105 17.9959 9.29666 17.9569C9.42226 17.9178 9.53893 17.8544 9.63998 17.7702V17.7702Z" fill="#97A3BA"/>
</svg>
