<svg width="22" height="22" viewBox="0 0 22 22" fill="none" xmlns="http://www.w3.org/2000/svg">
<path d="M17.71 13.2902C17.5217 13.1019 17.2663 12.9961 17 12.9961C16.7337 12.9961 16.4783 13.1019 16.29 13.2902C16.1017 13.4785 15.9959 13.7339 15.9959 14.0002C15.9959 14.2665 16.1017 14.5219 16.29 14.7102L16.58 15.0002H15C13.9391 15.0002 12.9217 14.5788 12.1716 13.8286C11.4214 13.0785 11 12.0611 11 11.0002C11 9.93932 11.4214 8.9219 12.1716 8.17176C12.9217 7.42161 13.9391 7.00019 15 7.00019H16.59L16.29 7.29019C16.1963 7.38315 16.1219 7.49375 16.0711 7.61561C16.0203 7.73747 15.9942 7.86817 15.9942 8.00019C15.9942 8.1322 16.0203 8.2629 16.0711 8.38476C16.1219 8.50662 16.1963 8.61722 16.29 8.71019C16.3834 8.80287 16.4943 8.87619 16.6161 8.92596C16.7379 8.97572 16.8684 9.00095 17 9.00019C17.1316 9.00095 17.2621 8.97572 17.3839 8.92596C17.5057 8.87619 17.6166 8.80287 17.71 8.71019L19.71 6.71019C19.8027 6.61675 19.876 6.50593 19.9258 6.38409C19.9755 6.26225 20.0008 6.13179 20 6.00019C20.0008 5.86858 19.9755 5.73812 19.9258 5.61628C19.876 5.49444 19.8027 5.38363 19.71 5.29019L17.71 3.29019C17.6168 3.19695 17.5061 3.12299 17.3842 3.07253C17.2624 3.02207 17.1319 2.99609 17 2.99609C16.7337 2.99609 16.4783 3.10188 16.29 3.29019C16.1017 3.47849 15.9959 3.73388 15.9959 4.00019C15.9959 4.26649 16.1017 4.52188 16.29 4.71019L16.58 5.00019H15C14.0093 5.00091 13.0342 5.24695 12.1617 5.71634C11.2892 6.18573 10.5465 6.86386 10 7.69019C9.45345 6.86386 8.71079 6.18573 7.83832 5.71634C6.96585 5.24695 5.99072 5.00091 5 5.00019H3C2.73478 5.00019 2.48043 5.10554 2.29289 5.29308C2.10536 5.48062 2 5.73497 2 6.00019C2 6.2654 2.10536 6.51976 2.29289 6.70729C2.48043 6.89483 2.73478 7.00019 3 7.00019H5C6.06087 7.00019 7.07828 7.42161 7.82843 8.17176C8.57857 8.9219 9 9.93932 9 11.0002C9 12.0611 8.57857 13.0785 7.82843 13.8286C7.07828 14.5788 6.06087 15.0002 5 15.0002H3C2.73478 15.0002 2.48043 15.1055 2.29289 15.2931C2.10536 15.4806 2 15.735 2 16.0002C2 16.2654 2.10536 16.5198 2.29289 16.7073C2.48043 16.8948 2.73478 17.0002 3 17.0002H5C5.99072 16.9995 6.96585 16.7534 7.83832 16.284C8.71079 15.8146 9.45345 15.1365 10 14.3102C10.5465 15.1365 11.2892 15.8146 12.1617 16.284C13.0342 16.7534 14.0093 16.9995 15 17.0002H16.59L16.29 17.2902C16.1963 17.3831 16.1219 17.4937 16.0711 17.6156C16.0203 17.7375 15.9942 17.8682 15.9942 18.0002C15.9942 18.1322 16.0203 18.2629 16.0711 18.3848C16.1219 18.5066 16.1963 18.6172 16.29 18.7102C16.3834 18.8029 16.4943 18.8762 16.6161 18.926C16.7379 18.9757 16.8684 19.0009 17 19.0002C17.1316 19.0009 17.2621 18.9757 17.3839 18.926C17.5057 18.8762 17.6166 18.8029 17.71 18.7102L19.71 16.7102C19.8027 16.6167 19.876 16.5059 19.9258 16.3841C19.9755 16.2623 20.0008 16.1318 20 16.0002C20.0008 15.8686 19.9755 15.7381 19.9258 15.6163C19.876 15.4944 19.8027 15.3836 19.71 15.2902L17.71 13.2902Z" fill="#97A3BA"/>
</svg>
