<svg width="22" height="22" viewBox="0 0 22 22" fill="none" xmlns="http://www.w3.org/2000/svg">
<path d="M11.39 6.08C11.5092 6.12874 11.6179 6.20005 11.71 6.29L14.71 9.29C14.8037 9.38296 14.8781 9.49356 14.9289 9.61542C14.9797 9.73728 15.0058 9.86799 15.0058 10C15.0058 10.132 14.9797 10.2627 14.9289 10.3846C14.8781 10.5064 14.8037 10.617 14.71 10.71C14.617 10.8037 14.5064 10.8781 14.3846 10.9289C14.2627 10.9797 14.132 11.0058 14 11.0058C13.868 11.0058 13.7373 10.9797 13.6154 10.9289C13.4936 10.8781 13.383 10.8037 13.29 10.71L12 9.41V15C12 15.2652 11.8947 15.5196 11.7071 15.7071C11.5196 15.8946 11.2652 16 11 16C10.7348 16 10.4804 15.8946 10.2929 15.7071C10.1054 15.5196 10 15.2652 10 15V9.34L8.69001 10.57C8.49773 10.753 8.24062 10.8521 7.97526 10.8456C7.7099 10.839 7.45801 10.7273 7.27501 10.535C7.09201 10.3427 6.99289 10.0856 6.99945 9.82025C7.00602 9.55489 7.11773 9.303 7.31001 9.12L10.31 6.26C10.3509 6.22662 10.3944 6.19652 10.44 6.17C10.4973 6.12384 10.5614 6.08674 10.63 6.06C10.716 6.02486 10.8073 6.00457 10.9 6H11C11.1341 6.00026 11.2667 6.02746 11.39 6.08Z" fill="#97A3BA"/>
<path fill-rule="evenodd" clip-rule="evenodd" d="M5.4443 2.6853C7.08879 1.58649 9.02219 1 11 1C12.3132 1 13.6136 1.25866 14.8268 1.7612C16.0401 2.26375 17.1425 3.00035 18.0711 3.92893C18.9997 4.85752 19.7363 5.95991 20.2388 7.17317C20.7413 8.38642 21 9.68678 21 11C21 12.9778 20.4135 14.9112 19.3147 16.5557C18.2159 18.2002 16.6541 19.4819 14.8268 20.2388C12.9996 20.9957 10.9889 21.1937 9.0491 20.8079C7.10929 20.422 5.32746 19.4696 3.92894 18.0711C2.53041 16.6725 1.578 14.8907 1.19215 12.9509C0.806299 11.0111 1.00433 9.00043 1.76121 7.17317C2.51809 5.3459 3.79981 3.78412 5.4443 2.6853ZM6.55544 17.6518C7.87104 18.5308 9.41775 19 11 19C13.1217 19 15.1566 18.1571 16.6569 16.6569C18.1572 15.1566 19 13.1217 19 11C19 9.41775 18.5308 7.87103 17.6518 6.55544C16.7727 5.23984 15.5233 4.21447 14.0615 3.60896C12.5997 3.00346 10.9911 2.84504 9.43928 3.15372C7.88743 3.4624 6.46197 4.22433 5.34315 5.34315C4.22433 6.46197 3.4624 7.88743 3.15372 9.43928C2.84504 10.9911 3.00347 12.5997 3.60897 14.0615C4.21447 15.5233 5.23985 16.7727 6.55544 17.6518Z" fill="#97A3BA"/>
</svg>
