<svg width="40" height="40" viewBox="0 0 40 40" fill="none" xmlns="http://www.w3.org/2000/svg">
<path d="M39 18.9998H3.14L6.77 14.6398C6.93974 14.4356 7.0214 14.1723 6.99702 13.9079C6.97264 13.6434 6.84422 13.3995 6.64 13.2298C6.43578 13.06 6.1725 12.9784 5.90808 13.0028C5.64365 13.0271 5.39974 13.1556 5.23 13.3598L0.23 19.3598C0.196361 19.4075 0.166279 19.4576 0.14 19.5098C0.14 19.5598 0.14 19.5898 0.0700002 19.6398C0.0246737 19.7544 0.000941121 19.8765 0 19.9998C0.000941121 20.1231 0.0246737 20.2451 0.0700002 20.3598C0.0700002 20.4098 0.0699999 20.4398 0.14 20.4898C0.166279 20.5419 0.196361 20.5921 0.23 20.6398L5.23 26.6398C5.32402 26.7527 5.44176 26.8434 5.57485 26.9057C5.70793 26.9679 5.85309 27 6 26.9998C6.23365 27.0002 6.46009 26.9189 6.64 26.7698C6.74126 26.6858 6.82496 26.5827 6.88631 26.4664C6.94766 26.35 6.98546 26.2227 6.99754 26.0918C7.00961 25.9608 6.99573 25.8287 6.95669 25.7031C6.91764 25.5775 6.8542 25.4608 6.77 25.3598L3.14 20.9998H39C39.2652 20.9998 39.5196 20.8944 39.7071 20.7069C39.8946 20.5194 40 20.265 40 19.9998C40 19.7346 39.8946 19.4802 39.7071 19.2927C39.5196 19.1051 39.2652 18.9998 39 18.9998Z" fill="#97A3BA"/>
</svg>
