<svg width="24" height="24" viewBox="0 0 24 24" fill="none" xmlns="http://www.w3.org/2000/svg">
<path fill-rule="evenodd" clip-rule="evenodd" d="M17.7071 3.29289L20.7071 6.29289C21.0976 6.68342 21.0976 7.31658 20.7071 7.70711L17.7071 10.7071C17.3166 11.0976 16.6834 11.0976 16.2929 10.7071C15.9024 10.3166 15.9024 9.68342 16.2929 9.29289L17.5858 8H4C3.44772 8 3 7.55228 3 7C3 6.44772 3.44772 6 4 6H17.5858L16.2929 4.70711C15.9024 4.31658 15.9024 3.68342 16.2929 3.29289C16.6834 2.90237 17.3166 2.90237 17.7071 3.29289Z" fill="#777B92"/>
<path fill-rule="evenodd" clip-rule="evenodd" d="M7.70711 14.7071L6.41421 16H20C20.5523 16 21 16.4477 21 17C21 17.5523 20.5523 18 20 18H6.41421L7.70711 19.2929C8.09763 19.6834 8.09763 20.3166 7.70711 20.7071C7.31658 21.0976 6.68342 21.0976 6.29289 20.7071L3.29289 17.7071C2.90237 17.3166 2.90237 16.6834 3.29289 16.2929L6.29289 13.2929C6.68342 12.9024 7.31658 12.9024 7.70711 13.2929C8.09763 13.6834 8.09763 14.3166 7.70711 14.7071Z" fill="#777B92"/>
</svg>
