<svg width="22" height="22" viewBox="0 0 22 22" fill="none" xmlns="http://www.w3.org/2000/svg">
<path d="M17.2881 9.01493C17.1007 8.82746 16.9954 8.5732 16.9954 8.30808V6.41876L4.71452 18.7043C4.62163 18.798 4.51111 18.8724 4.38934 18.9231C4.26757 18.9739 4.13696 19 4.00505 19C3.87314 19 3.74253 18.9739 3.62076 18.9231C3.49899 18.8724 3.38847 18.798 3.29558 18.7043C3.20192 18.6114 3.12758 18.5008 3.07685 18.379C3.02612 18.2572 3 18.1265 3 17.9946C3 17.8626 3.02612 17.7319 3.07685 17.6101C3.12758 17.4883 3.20192 17.3778 3.29558 17.2848L9.5809 10.9971L3.75524 5.16921C3.59153 4.97798 3.50599 4.73199 3.5157 4.48041C3.52542 4.22883 3.62967 3.99017 3.80763 3.81214C3.9856 3.63411 4.22416 3.52982 4.47565 3.5201C4.72714 3.51038 4.97303 3.59596 5.16419 3.75972L10.9998 9.58761L15.5864 4.99928H13.6978C13.4328 4.99928 13.1787 4.89396 12.9913 4.70649C12.8039 4.51902 12.6986 4.26476 12.6986 3.99964C12.6986 3.73452 12.8039 3.48026 12.9913 3.29279C13.1787 3.10532 13.4328 3 13.6978 3H17.9946C18.2597 3 18.5138 3.10532 18.7012 3.29279C18.8886 3.48026 18.9939 3.73452 18.9939 3.99964V8.30808C18.9939 8.5732 18.8886 8.82746 18.7012 9.01493C18.5138 9.2024 18.2597 9.30771 17.9946 9.30771C17.7296 9.30771 17.4755 9.2024 17.2881 9.01493Z" fill="#97A3BA"/>
<path d="M17.2881 12.9693C17.4755 12.7818 17.7297 12.6765 17.9947 12.6765C18.2597 12.6765 18.5139 12.7818 18.7013 12.9693C18.8887 13.1567 18.994 13.411 18.994 13.6761V17.8846C19.0095 18.0248 18.9952 18.1667 18.9519 18.301C18.9087 18.4352 18.8376 18.5588 18.7432 18.6637C18.6488 18.7685 18.5333 18.8521 18.4043 18.9091C18.2753 18.966 18.1357 18.995 17.9947 18.9942H13.6879C13.4229 18.9942 13.1687 18.8889 12.9813 18.7014C12.7939 18.5139 12.6887 18.2597 12.6887 17.9945C12.6887 17.7294 12.7939 17.4752 12.9813 17.2877C13.1687 17.1002 13.4229 16.9949 13.6879 16.9949H15.5665L12.7986 14.2159C12.6104 14.0277 12.5047 13.7724 12.5047 13.5062C12.5047 13.24 12.6104 12.9847 12.7986 12.7964C12.9867 12.6082 13.2419 12.5024 13.508 12.5024C13.7741 12.5024 14.0294 12.6082 14.2175 12.7964L16.9955 15.5854V13.6761C16.9955 13.411 17.1007 13.1567 17.2881 12.9693Z" fill="#97A3BA"/>
</svg>
