<svg width="22" height="22" viewBox="0 0 22 22" fill="none" xmlns="http://www.w3.org/2000/svg">
<path d="M12.36 17.7702C12.2588 17.6862 12.1751 17.5831 12.1137 17.4668C12.0524 17.3504 12.0146 17.2231 12.0025 17.0922C11.9904 16.9612 12.0043 16.8291 12.0433 16.7035C12.0824 16.5779 12.1458 16.4612 12.23 16.3602L15.86 12.0002L4.00002 12.0002C3.73481 12.0002 3.48045 11.8948 3.29292 11.7073C3.10538 11.5198 3.00002 11.2654 3.00002 11.0002C3.00002 10.735 3.10538 10.4806 3.29292 10.2931C3.48045 10.1055 3.73481 10.0002 4.00002 10.0002L15.86 10.0002L12.23 5.64019C12.146 5.53907 12.0827 5.42239 12.0437 5.29681C12.0048 5.17123 11.9909 5.0392 12.003 4.90827C12.0151 4.77734 12.0528 4.65007 12.1141 4.53372C12.1753 4.41738 12.2589 4.31424 12.36 4.23019C12.4611 4.14615 12.5778 4.08284 12.7034 4.04389C12.829 4.00494 12.961 3.9911 13.0919 4.00317C13.2229 4.01524 13.3501 4.05298 13.4665 4.11424C13.5828 4.1755 13.686 4.25908 13.77 4.36019L18.77 10.3602L18.86 10.5102L18.93 10.6402C19.0194 10.8719 19.0194 11.1285 18.93 11.3602L18.86 11.4902L18.77 11.6402L13.77 17.6402C13.6861 17.7415 13.583 17.8252 13.4666 17.8865C13.3503 17.9479 13.223 17.9857 13.092 17.9977C12.961 18.0098 12.8289 17.9959 12.7033 17.9569C12.5777 17.9178 12.4611 17.8544 12.36 17.7702V17.7702Z" fill="#97A3BA"/>
</svg>
