<svg width="24" height="24" viewBox="0 0 24 24" fill="none" xmlns="http://www.w3.org/2000/svg">
<path fill-rule="evenodd" clip-rule="evenodd" d="M6 6C6 5.44772 6.44772 5 7 5H12C13.1054 5 14 5.89685 14 7.00062L14 15.5858L16.2929 13.2929C16.6834 12.9024 17.3166 12.9024 17.7071 13.2929C18.0976 13.6834 18.0976 14.3166 17.7071 14.7071L13.7071 18.7071C13.3166 19.0976 12.6834 19.0976 12.2929 18.7071L8.29289 14.7071C7.90237 14.3166 7.90237 13.6834 8.29289 13.2929C8.68342 12.9024 9.31658 12.9024 9.70711 13.2929L12 15.5858L12 7.00062L7 7C6.44772 7 6 6.55228 6 6Z" fill="#777B92"/>
</svg>
