<svg width="22" height="22" viewBox="0 0 22 22" fill="none" xmlns="http://www.w3.org/2000/svg">
<path d="M20 3C20.5523 3 21 3.44772 21 4V18C21 18.5523 20.5523 19 20 19C19.4477 19 19 18.5523 19 18V4C19 3.44772 19.4477 3 20 3Z" fill="#97A3BA"/>
<path d="M16.7071 11.707C16.8946 11.5195 17 11.2651 17 10.9999C17 10.7347 16.8946 10.4803 16.7071 10.2928L13.8702 7.49992C13.6826 7.31239 13.4283 7.20703 13.1631 7.20703C12.8978 7.20703 12.6435 7.31239 12.456 7.49992C12.2684 7.68746 12.1631 7.94181 12.1631 8.20703C12.1631 8.47225 12.2684 8.7266 12.456 8.91414L13.5746 9.98875L10.6894 9.99314L8.42537 9.98875L9.5 8.91415C9.68754 8.72662 9.79289 8.47226 9.79289 8.20705C9.79289 7.94183 9.68754 7.68748 9.5 7.49994C9.31247 7.3124 9.05811 7.20705 8.79289 7.20705C8.52768 7.20705 8.27333 7.3124 8.08579 7.49994L5.29289 10.2928C5.10535 10.4803 4.99999 10.7347 4.99999 10.9999C4.99999 11.2651 5.10535 11.5195 5.29289 11.707L8.08579 14.4999C8.27332 14.6875 8.52768 14.7928 8.79289 14.7928C9.05811 14.7928 9.31247 14.6875 9.5 14.4999C9.68754 14.3124 9.7929 14.058 9.7929 13.7928C9.7929 13.5276 9.68754 13.2732 9.5 13.0857L8.4183 12.004L13.5817 12.004L12.456 13.0857C12.2684 13.2732 12.1631 13.5276 12.1631 13.7928C12.1631 14.058 12.2684 14.3124 12.456 14.4999C12.6435 14.6875 12.8978 14.7928 13.1631 14.7928C13.4283 14.7928 13.6826 14.6875 13.8702 14.4999L16.7071 11.707Z" fill="#97A3BA"/>
<path d="M3 4C3 3.44772 2.55228 3 2 3C1.44772 3 1 3.44772 1 4L1 18C1 18.5523 1.44772 19 2 19C2.55228 19 3 18.5523 3 18L3 4Z" fill="#97A3BA"/>
</svg>
