<svg width="22" height="22" viewBox="0 0 22 22" fill="none" xmlns="http://www.w3.org/2000/svg">
<path fill-rule="evenodd" clip-rule="evenodd" d="M16.0051 7.00044H3.00039C2.73507 7.00044 2.48062 6.8951 2.29301 6.70759C2.1054 6.52008 2 6.26576 2 6.00058C2 5.73541 2.1054 5.48109 2.29301 5.29358C2.48062 5.10607 2.73507 5.00073 3.00039 5.00073H16.0851L14.5145 3.7909C14.3049 3.62782 14.1687 3.3882 14.1358 3.12475C14.103 2.8613 14.1762 2.5956 14.3394 2.38611C14.5026 2.17662 14.7423 2.04049 15.0059 2.00768C15.2695 1.97487 15.5354 2.04805 15.745 2.21114L19.6065 5.2107C19.7288 5.30401 19.828 5.42428 19.8962 5.56214C19.9645 5.70001 20 5.85176 20 6.00558C20 6.15941 19.9645 6.31115 19.8962 6.44902C19.828 6.58689 19.7288 6.70716 19.6065 6.80047L15.6049 9.80003C15.4317 9.92983 15.2211 10 15.0047 10C14.8494 10 14.6962 9.96386 14.5573 9.89444C14.4184 9.82503 14.2975 9.72424 14.2044 9.60006C14.1255 9.49502 14.0682 9.37549 14.0356 9.24829C14.003 9.1211 13.9958 8.98873 14.0143 8.85875C14.0329 8.72876 14.0769 8.60371 14.1439 8.49073C14.2108 8.37774 14.2993 8.27904 14.4044 8.20026L16.0051 7.00044ZM5.99494 15H18.9996C19.2649 15 19.5194 15.1054 19.707 15.2929C19.8946 15.4804 20 15.7348 20 16C20 16.2652 19.8946 16.5196 19.707 16.7071C19.5194 16.8946 19.2649 17 18.9996 17H5.91491L7.48552 18.21C7.69316 18.3735 7.82761 18.6126 7.85948 18.8749C7.89134 19.1373 7.81804 19.4015 7.65558 19.61C7.56239 19.731 7.44271 19.8291 7.30571 19.8967C7.16872 19.9643 7.01805 19.9996 6.86528 20C6.64424 19.9993 6.42966 19.9255 6.25504 19.79L2.39354 16.79C2.27119 16.6967 2.17202 16.5764 2.10377 16.4385C2.03551 16.3006 2 16.1488 2 15.995C2 15.8412 2.03551 15.6894 2.10377 15.5515C2.17202 15.4136 2.27119 15.2933 2.39354 15.2L6.39509 12.2C6.60735 12.0409 6.87415 11.9725 7.1368 12.0101C7.39946 12.0476 7.63645 12.1878 7.79564 12.4C7.95483 12.6122 8.02318 12.8789 7.98566 13.1414C7.94814 13.404 7.80782 13.6409 7.59556 13.8L5.99494 15Z" fill="#97A3BA"/>
</svg>
