<svg width="22" height="22" viewBox="0 0 22 22" fill="none" xmlns="http://www.w3.org/2000/svg">
<path d="M8.13526 17.9982C7.87047 17.9987 7.61386 17.9175 7.40997 17.7687C7.29522 17.6849 7.20036 17.5821 7.13083 17.466C7.0613 17.3499 7.01847 17.2229 7.00479 17.0922C6.9911 16.9615 7.00683 16.8297 7.05108 16.7044C7.09533 16.5791 7.16722 16.4626 7.26265 16.3618L12.3397 11.0137L7.44397 5.65557C7.34983 5.5535 7.27953 5.43607 7.23711 5.31001C7.19469 5.18395 7.18099 5.05175 7.19679 4.92101C7.21258 4.79027 7.25757 4.66357 7.32916 4.54819C7.40075 4.43281 7.49754 4.33103 7.61396 4.24869C7.73121 4.15785 7.86853 4.08934 8.01728 4.04744C8.16604 4.00554 8.32302 3.99117 8.47838 4.00522C8.63375 4.01928 8.78413 4.06145 8.9201 4.12911C9.05608 4.19676 9.1747 4.28843 9.26853 4.39835L14.7422 10.3851C14.9089 10.5636 15 10.7876 15 11.0187C15 11.2498 14.9089 11.4737 14.7422 11.6523L9.07587 17.639C8.96218 17.7597 8.81777 17.8552 8.65434 17.9176C8.49091 17.98 8.31308 18.0076 8.13526 17.9982Z" fill="#97A3BA"/>
</svg>
