<svg width="22" height="22" viewBox="0 0 22 22" fill="none" xmlns="http://www.w3.org/2000/svg">
<path d="M13.31 11.41L12 12.66V7C12 6.73478 11.8946 6.48043 11.7071 6.29289C11.5196 6.10536 11.2652 6 11 6C10.7348 6 10.4804 6.10536 10.2929 6.29289C10.1054 6.48043 10 6.73478 10 7V12.59L8.71 11.29C8.5217 11.1017 8.2663 10.9959 8 10.9959C7.7337 10.9959 7.47831 11.1017 7.29 11.29C7.1017 11.4783 6.99591 11.7337 6.99591 12C6.99591 12.2663 7.1017 12.5217 7.29 12.71L10.29 15.71C10.3851 15.801 10.4973 15.8724 10.62 15.92C10.7397 15.9729 10.8691 16.0002 11 16.0002C11.1309 16.0002 11.2603 15.9729 11.38 15.92C11.4388 15.8963 11.493 15.8625 11.54 15.82C11.5958 15.7962 11.6466 15.7623 11.69 15.72L14.69 12.86C14.8823 12.677 14.994 12.4251 15.0006 12.1597C15.0071 11.8944 14.908 11.6373 14.725 11.445C14.542 11.2527 14.2901 11.141 14.0248 11.1344C13.7594 11.1279 13.5023 11.227 13.31 11.41V11.41Z" fill="#97A3BA"/>
<path d="M11 1C9.02219 1 7.08879 1.58649 5.4443 2.6853C3.79981 3.78412 2.51809 5.3459 1.76121 7.17317C1.00433 9.00043 0.806299 11.0111 1.19215 12.9509C1.578 14.8907 2.53041 16.6725 3.92894 18.0711C5.32746 19.4696 7.10929 20.422 9.0491 20.8079C10.9889 21.1937 12.9996 20.9957 14.8268 20.2388C16.6541 19.4819 18.2159 18.2002 19.3147 16.5557C20.4135 14.9112 21 12.9778 21 11C21 9.68678 20.7413 8.38642 20.2388 7.17317C19.7363 5.95991 18.9997 4.85752 18.0711 3.92893C17.1425 3.00035 16.0401 2.26375 14.8268 1.7612C13.6136 1.25866 12.3132 1 11 1V1ZM11 19C9.41775 19 7.87104 18.5308 6.55544 17.6518C5.23985 16.7727 4.21447 15.5233 3.60897 14.0615C3.00347 12.5997 2.84504 10.9911 3.15372 9.43928C3.4624 7.88743 4.22433 6.46197 5.34315 5.34315C6.46197 4.22433 7.88743 3.4624 9.43928 3.15372C10.9911 2.84504 12.5997 3.00346 14.0615 3.60896C15.5233 4.21447 16.7727 5.23984 17.6518 6.55544C18.5308 7.87103 19 9.41775 19 11C19 13.1217 18.1572 15.1566 16.6569 16.6569C15.1566 18.1571 13.1217 19 11 19V19Z" fill="#97A3BA"/>
</svg>
