<svg width="22" height="22" viewBox="0 0 22 22" fill="none" xmlns="http://www.w3.org/2000/svg">
<path d="M4.00286 16.5852V4.58891C3.99891 4.12154 4.08704 3.65797 4.26223 3.22467C4.43742 2.79136 4.69623 2.39682 5.02389 2.06355C5.35155 1.73029 5.74164 1.46483 6.17189 1.28235C6.60213 1.09986 7.0641 1.00392 7.53142 1H10.0004C10.2655 1 10.5198 1.10532 10.7072 1.2928C10.8947 1.48028 11 1.73456 11 1.99969C11 2.26483 10.8947 2.51911 10.7072 2.70659C10.5198 2.89407 10.2655 2.99939 10.0004 2.99939H7.53142C7.32663 3.00329 7.12461 3.0475 6.93691 3.1295C6.74921 3.2115 6.5795 3.32968 6.43748 3.47729C6.29546 3.6249 6.1839 3.79904 6.10919 3.98977C6.03448 4.18051 5.99807 4.3841 6.00205 4.58891V16.5852L7.29152 15.2856C7.38444 15.1919 7.495 15.1176 7.61681 15.0668C7.73862 15.0161 7.86927 14.9899 8.00123 14.9899C8.13319 14.9899 8.26384 15.0161 8.38565 15.0668C8.50746 15.1176 8.61801 15.1919 8.71094 15.2856C8.80463 15.3786 8.87899 15.4891 8.92974 15.611C8.98049 15.7328 9.00661 15.8635 9.00661 15.9954C9.00661 16.1274 8.98049 16.2581 8.92974 16.3799C8.87899 16.5017 8.80463 16.6123 8.71094 16.7052L5.71216 19.7043C5.61924 19.798 5.50868 19.8724 5.38687 19.9231C5.26506 19.9739 5.13441 20 5.00245 20C4.8705 20 4.73984 19.9739 4.61803 19.9231C4.49623 19.8724 4.38567 19.798 4.29274 19.7043L1.29397 16.7052C1.10574 16.517 1 16.2616 1 15.9954C1 15.7292 1.10574 15.4739 1.29397 15.2856C1.4822 15.0974 1.73749 14.9916 2.00368 14.9916C2.26987 14.9916 2.52516 15.0974 2.71339 15.2856L4.00286 16.5852Z" fill="#97A3BA"/>
<path d="M12.9948 6.00458C12.9948 5.73836 13.1005 5.48304 13.2887 5.29479L16.2869 2.29571C16.3798 2.20201 16.4904 2.12764 16.6122 2.07688C16.734 2.02613 16.8646 2 16.9965 2C17.1285 2 17.2591 2.02613 17.3809 2.07688C17.5027 2.12764 17.6132 2.20201 17.7061 2.29571L20.7044 5.29479C20.798 5.38773 20.8724 5.49829 20.9231 5.62012C20.9739 5.74194 21 5.8726 21 6.00458C21 6.13655 20.9739 6.26721 20.9231 6.38904C20.8724 6.51086 20.798 6.62143 20.7044 6.71436C20.6115 6.80806 20.5009 6.88243 20.3791 6.93318C20.2574 6.98394 20.1267 7.01007 19.9948 7.01007C19.8629 7.01007 19.7322 6.98394 19.6104 6.93318C19.4886 6.88243 19.3781 6.80806 19.2852 6.71436L17.9959 5.41476V17.4111C17.9999 17.8785 17.9118 18.342 17.7366 18.7753C17.5615 19.2086 17.3027 19.6032 16.9751 19.9364C16.6475 20.2697 16.2575 20.5352 15.8273 20.7176C15.3971 20.9001 14.9352 20.9961 14.468 21H11.9994C11.7344 21 11.4802 20.8947 11.2927 20.7072C11.1053 20.5197 11 20.2654 11 20.0003C11 19.7352 11.1053 19.4809 11.2927 19.2934C11.4802 19.1059 11.7344 19.0006 11.9994 19.0006H14.468C14.6727 18.9967 14.8747 18.9525 15.0624 18.8705C15.2501 18.7885 15.4197 18.6703 15.5617 18.5227C15.7037 18.3751 15.8153 18.201 15.89 18.0102C15.9647 17.8195 16.0011 17.6159 15.9971 17.4111V5.41476L14.7079 6.71436C14.5197 6.90261 14.2644 7.00836 13.9983 7.00836C13.7321 7.00836 13.4769 6.90261 13.2887 6.71436C13.1005 6.52611 12.9948 6.2708 12.9948 6.00458Z" fill="#97A3BA"/>
</svg>
