<svg width="22" height="22" viewBox="0 0 22 22" fill="none" xmlns="http://www.w3.org/2000/svg">
<path d="M6.00458 9.00525C5.73836 9.00525 5.48304 8.89952 5.29479 8.71133L2.29571 5.71307C2.20201 5.62016 2.12764 5.50962 2.07688 5.38783C2.02613 5.26604 2 5.13541 2 5.00348C2 4.87154 2.02613 4.74091 2.07688 4.61912C2.12764 4.49733 2.20201 4.3868 2.29571 4.29389L5.29479 1.29563C5.38773 1.20195 5.49829 1.1276 5.62012 1.07686C5.74194 1.02612 5.8726 1 6.00458 1C6.13655 1 6.26721 1.02612 6.38904 1.07686C6.51086 1.1276 6.62143 1.20195 6.71436 1.29563C6.80806 1.38854 6.88243 1.49907 6.93318 1.62086C6.98394 1.74265 7.01007 1.87328 7.01007 2.00522C7.01007 2.13715 6.98394 2.26778 6.93318 2.38957C6.88243 2.51136 6.80806 2.62189 6.71436 2.7148L5.41476 4.00406H17.4111C17.8785 4.0001 18.342 4.08822 18.7753 4.26338C19.2086 4.43854 19.6032 4.69731 19.9364 5.02491C20.2697 5.35252 20.5352 5.74254 20.7176 6.17271C20.9001 6.60288 20.9961 7.06477 21 7.53201V10.0006C21 10.2656 20.8947 10.5198 20.7072 10.7073C20.5197 10.8947 20.2654 11 20.0003 11C19.7352 11 19.4809 10.8947 19.2934 10.7073C19.1059 10.5198 19.0006 10.2656 19.0006 10.0006V7.53201C18.9967 7.32726 18.9525 7.12528 18.8705 6.93761C18.7885 6.74994 18.6703 6.58026 18.5227 6.43826C18.3751 6.29626 18.201 6.18473 18.0102 6.11002C17.8195 6.03532 17.6159 5.99892 17.4111 6.0029H5.41476L6.71436 7.29215C6.90261 7.48034 7.00836 7.73559 7.00836 8.00174C7.00836 8.26789 6.90261 8.52313 6.71436 8.71133C6.52611 8.89952 6.2708 9.00525 6.00458 9.00525Z" fill="#97A3BA"/>
<path d="M16.5852 17.9971H4.58891C4.12154 18.0011 3.65797 17.913 3.22467 17.7378C2.79136 17.5626 2.39682 17.3038 2.06355 16.9761C1.73029 16.6484 1.46483 16.2584 1.28235 15.8281C1.09986 15.3979 1.00392 14.9359 1 14.4686V11.9996C1 11.7345 1.10532 11.4802 1.2928 11.2928C1.48028 11.1053 1.73456 11 1.99969 11C2.26483 11 2.51911 11.1053 2.70659 11.2928C2.89407 11.4802 2.99939 11.7345 2.99939 11.9996V14.4686C3.00329 14.6734 3.0475 14.8754 3.1295 15.0631C3.2115 15.2508 3.32968 15.4205 3.47729 15.5625C3.6249 15.7045 3.79904 15.8161 3.98977 15.8908C4.18051 15.9655 4.3841 16.0019 4.58891 15.998H16.5852L15.2856 14.7085C15.1919 14.6156 15.1176 14.505 15.0668 14.3832C15.0161 14.2614 14.9899 14.1307 14.9899 13.9988C14.9899 13.8668 15.0161 13.7362 15.0668 13.6144C15.1176 13.4925 15.1919 13.382 15.2856 13.2891C15.3786 13.1954 15.4891 13.121 15.611 13.0703C15.7328 13.0195 15.8635 12.9934 15.9954 12.9934C16.1274 12.9934 16.2581 13.0195 16.3799 13.0703C16.5017 13.121 16.6123 13.1954 16.7052 13.2891L19.7043 16.2878C19.798 16.3808 19.8724 16.4913 19.9231 16.6131C19.9739 16.7349 20 16.8656 20 16.9975C20 17.1295 19.9739 17.2602 19.9231 17.382C19.8724 17.5038 19.798 17.6143 19.7043 17.7073L16.7052 20.706C16.517 20.8943 16.2616 21 15.9954 21C15.7292 21 15.4739 20.8943 15.2856 20.706C15.0974 20.5178 14.9916 20.2625 14.9916 19.9963C14.9916 19.7301 15.0974 19.4748 15.2856 19.2866L16.5852 17.9971Z" fill="#97A3BA"/>
</svg>
