<svg width="24" height="24" viewBox="0 0 24 24" fill="none" xmlns="http://www.w3.org/2000/svg">
<path fill-rule="evenodd" clip-rule="evenodd" d="M14.2929 6.29289C14.6834 5.90237 15.3166 5.90237 15.7071 6.29289L19.7071 10.2929C20.0976 10.6834 20.0976 11.3166 19.7071 11.7071L15.7071 15.7071C15.3166 16.0976 14.6834 16.0976 14.2929 15.7071C13.9024 15.3166 13.9024 14.6834 14.2929 14.2929L16.5858 12L7 12L7 17C7 17.5523 6.55228 18 6 18C5.44772 18 5 17.5523 5 17L5 12C5 10.8954 5.89543 10 7 10H16.5858L14.2929 7.70711C13.9024 7.31658 13.9024 6.68342 14.2929 6.29289Z" fill="#777B92"/>
</svg>
