<svg width="22" height="22" viewBox="0 0 22 22" fill="none" xmlns="http://www.w3.org/2000/svg">
<path d="M15.9954 9.0425H7.0754L9.7754 5.67846C9.87045 5.57824 9.94355 5.45946 9.99007 5.32965C10.0366 5.19984 10.0555 5.06183 10.0457 4.92436C10.0358 4.78689 9.99734 4.65296 9.93275 4.53105C9.86817 4.40914 9.77884 4.30191 9.67044 4.21615C9.56204 4.13039 9.43693 4.06798 9.30302 4.03286C9.16912 3.99774 9.02935 3.99068 8.89256 4.01213C8.75578 4.03358 8.62496 4.08307 8.50839 4.15746C8.39183 4.23186 8.29205 4.32954 8.2154 4.44432L4.2154 9.42071C4.07589 9.59642 4 9.81383 4 10.0378C4 10.2617 4.07589 10.4791 4.2154 10.6549L8.2154 15.6312C8.30852 15.7485 8.427 15.8434 8.56204 15.9089C8.69707 15.9744 8.84519 16.0088 8.9954 16.0094C9.22096 16.0081 9.43946 15.931 9.6154 15.7905C9.82145 15.6263 9.9539 15.3876 9.98387 15.1266C10.0138 14.8656 9.93891 14.6033 9.7754 14.3971L7.0754 11.0331H15.9954C16.2606 11.0331 16.515 11.1379 16.7025 11.3246C16.89 11.5112 16.9954 11.7644 16.9954 12.0283V17.0047C16.9954 17.2687 17.1008 17.5218 17.2883 17.7085C17.4758 17.8951 17.7302 18 17.9954 18C18.2606 18 18.515 17.8951 18.7025 17.7085C18.89 17.5218 18.9954 17.2687 18.9954 17.0047V12.0283C18.9954 11.2364 18.6793 10.477 18.1167 9.91703C17.5541 9.35708 16.791 9.0425 15.9954 9.0425Z" fill="#97A3BA"/>
</svg>
