<svg width="22" height="22" viewBox="0 0 22 22" fill="none" xmlns="http://www.w3.org/2000/svg">
<path d="M16.7043 5.29566C16.6114 5.20197 16.5009 5.12761 16.3791 5.07687C16.2573 5.02613 16.1266 5 15.9947 5C15.8627 5 15.7321 5.02613 15.6103 5.07687C15.4885 5.12761 15.3779 5.20197 15.285 5.29566L6.99903 13.5916V8.00435C6.99903 7.73926 6.89373 7.48503 6.70628 7.29758C6.51884 7.11014 6.26461 7.00483 5.99952 7.00483C5.73443 7.00483 5.4802 7.11014 5.29275 7.29758C5.10531 7.48503 5 7.73926 5 8.00435V16.0005C5 16.2656 5.10531 16.5198 5.29275 16.7072C5.4802 16.8947 5.73443 17 5.99952 17H13.9957C14.2607 17 14.515 16.8947 14.7024 16.7072C14.8899 16.5198 14.9952 16.2656 14.9952 16.0005C14.9952 15.7354 14.8899 15.4812 14.7024 15.2937C14.515 15.1063 14.2607 15.001 13.9957 15.001H8.40835L16.7043 6.71497C16.798 6.62205 16.8724 6.5115 16.9231 6.3897C16.9739 6.2679 17 6.13726 17 6.00531C17 5.87336 16.9739 5.74272 16.9231 5.62092C16.8724 5.49912 16.798 5.38857 16.7043 5.29566V5.29566Z" fill="#97A3BA"/>
</svg>
