<svg width="22" height="22" viewBox="0 0 22 22" fill="none" xmlns="http://www.w3.org/2000/svg">
<path d="M3 2C3 1.44772 3.44772 1 4 1H18C18.5523 1 19 1.44772 19 2C19 2.55228 18.5523 3 18 3H4C3.44772 3 3 2.55228 3 2Z" fill="#97A3BA"/>
<path d="M11.7071 5.29289C11.5195 5.10536 11.2652 5 11 5C10.7348 5 10.4804 5.10536 10.2929 5.29289L7.49999 8.12984C7.31245 8.31737 7.20709 8.57173 7.20709 8.83694C7.20709 9.10216 7.31245 9.35651 7.49999 9.54405C7.68752 9.73159 7.94188 9.83694 8.20709 9.83694C8.47231 9.83694 8.72666 9.73159 8.9142 9.54405L9.98881 8.42538L9.9932 11.3106L9.98881 13.5746L8.91421 12.5C8.72668 12.3125 8.47232 12.2071 8.20711 12.2071C7.94189 12.2071 7.68754 12.3125 7.5 12.5C7.31246 12.6875 7.20711 12.9419 7.20711 13.2071C7.20711 13.4723 7.31246 13.7267 7.5 13.9142L10.2929 16.7071C10.4804 16.8947 10.7348 17 11 17C11.2652 17 11.5195 16.8947 11.7071 16.7071L14.5 13.9142C14.6875 13.7267 14.7929 13.4723 14.7929 13.2071C14.7929 12.9419 14.6875 12.6875 14.5 12.5C14.3125 12.3125 14.0581 12.2071 13.7929 12.2071C13.5277 12.2071 13.2733 12.3125 13.0858 12.5L12.0041 13.5817V8.41831L13.0858 9.54405C13.2733 9.73159 13.5277 9.83694 13.7929 9.83694C14.0581 9.83694 14.3124 9.73159 14.5 9.54405C14.6875 9.35651 14.7929 9.10216 14.7929 8.83694C14.7929 8.57173 14.6875 8.31737 14.5 8.12984L11.7071 5.29289Z" fill="#97A3BA"/>
<path d="M4 19C3.44772 19 3 19.4477 3 20C3 20.5523 3.44772 21 4 21H18C18.5523 21 19 20.5523 19 20C19 19.4477 18.5523 19 18 19H4Z" fill="#97A3BA"/>
</svg>
