<svg width="22" height="22" viewBox="0 0 22 22" fill="none" xmlns="http://www.w3.org/2000/svg">
<path d="M15.42 8.00019H18C18.2652 8.00019 18.5196 8.10554 18.7071 8.29308C18.8946 8.48062 19 8.73497 19 9.00019C19 9.2654 18.8946 9.51976 18.7071 9.70729C18.5196 9.89483 18.2652 10.0002 18 10.0002H13C12.7348 10.0002 12.4804 9.89483 12.2929 9.70729C12.1054 9.51976 12 9.2654 12 9.00019V4.00019C12 3.73497 12.1054 3.48062 12.2929 3.29308C12.4804 3.10554 12.7348 3.00019 13 3.00019C13.2652 3.00019 13.5196 3.10554 13.7071 3.29308C13.8946 3.48062 14 3.73497 14 4.00019V6.57019L17.29 3.29019C17.4783 3.10188 17.7337 2.99609 18 2.99609C18.2663 2.99609 18.5217 3.10188 18.71 3.29019C18.8983 3.47849 19.0041 3.73388 19.0041 4.00019C19.0041 4.26649 18.8983 4.52188 18.71 4.71019L15.42 8.00019Z" fill="#97A3BA"/>
<path d="M4.00497 12H9.00083C9.26582 12 9.51997 12.1053 9.70735 12.2927C9.89473 12.48 10 12.7342 10 12.9992V17.995C10 18.26 9.89473 18.5142 9.70735 18.7016C9.51997 18.8889 9.26582 18.9942 9.00083 18.9942C8.73583 18.9942 8.48169 18.8889 8.29431 18.7016C8.10693 18.5142 8.00166 18.26 8.00166 17.995V15.4172L4.71438 18.7044C4.62149 18.7981 4.51098 18.8724 4.38922 18.9232C4.26747 18.9739 4.13687 19 4.00497 19C3.87306 19 3.74247 18.9739 3.62071 18.9232C3.49895 18.8724 3.38844 18.7981 3.29555 18.7044C3.2019 18.6116 3.12757 18.5011 3.07684 18.3793C3.02612 18.2575 3 18.1269 3 17.995C3 17.8631 3.02612 17.7325 3.07684 17.6108C3.12757 17.489 3.2019 17.3785 3.29555 17.2856L6.57284 13.9983H4.00497C3.73997 13.9983 3.48583 13.8931 3.29844 13.7057C3.11106 13.5183 3.00579 13.2642 3.00579 12.9992C3.00579 12.7342 3.11106 12.48 3.29844 12.2927C3.48583 12.1053 3.73997 12 4.00497 12Z" fill="#97A3BA"/>
</svg>
