<svg width="22" height="22" viewBox="0 0 22 22" fill="none" xmlns="http://www.w3.org/2000/svg">
<path d="M13.6726 17.9998C13.5018 18.0003 13.3331 17.9673 13.1788 17.9033C13.0245 17.8393 12.8886 17.7458 12.781 17.6298L7.26003 11.6298C7.09191 11.4509 7 11.2264 7 10.9948C7 10.7632 7.09191 10.5387 7.26003 10.3598L12.9753 4.35979C13.1694 4.15557 13.4482 4.02715 13.7504 4.00277C14.0527 3.97839 14.3536 4.06005 14.5871 4.22979C14.8205 4.39953 14.9673 4.64344 14.9952 4.90786C15.023 5.17229 14.9297 5.43557 14.7357 5.63979L9.62617 10.9998L14.5642 16.3598C14.704 16.5066 14.7928 16.6853 14.8201 16.8749C14.8474 17.0644 14.812 17.2568 14.7182 17.4294C14.6244 17.6019 14.4761 17.7473 14.2908 17.8484C14.1055 17.9495 13.891 18.002 13.6726 17.9998Z" fill="#97A3BA"/>
</svg>
