<svg width="24" height="24" viewBox="0 0 24 24" fill="none" xmlns="http://www.w3.org/2000/svg">
<path fill-rule="evenodd" clip-rule="evenodd" d="M10.2929 5.29289C10.6834 4.90237 11.3166 4.90237 11.7071 5.29289L15.7071 9.29289C16.0976 9.68342 16.0976 10.3166 15.7071 10.7071C15.3166 11.0976 14.6834 11.0976 14.2929 10.7071L12 8.41421L12 16.9994L17 17C17.5523 17 18 17.4477 18 18C18 18.5523 17.5523 19 17 19H12C10.8946 19 10 18.1031 10 16.9994L10 8.41421L7.70711 10.7071C7.31658 11.0976 6.68342 11.0976 6.29289 10.7071C5.90237 10.3166 5.90237 9.68342 6.29289 9.29289L10.2929 5.29289Z" fill="#777B92"/>
</svg>
