<svg width="24" height="24" viewBox="0 0 24 24" fill="none" xmlns="http://www.w3.org/2000/svg">
<path fill-rule="evenodd" clip-rule="evenodd" d="M11 6H7C6.44772 6 6 5.55228 6 5C6 4.44772 6.44772 4 7 4H17C17.5523 4 18 4.44772 18 5C18 5.55228 17.5523 6 17 6H13V16.865L17.3598 13.2318C17.7841 12.8782 18.4147 12.9355 18.7682 13.3598C19.1218 13.7841 19.0645 14.4147 18.6402 14.7682L12.6402 19.7682C12.2693 20.0773 11.7307 20.0773 11.3598 19.7682L5.35981 14.7682C4.93553 14.4147 4.87821 13.7841 5.23177 13.3598C5.58534 12.9355 6.2159 12.8782 6.64018 13.2318L11 16.865V6Z" fill="#777B92"/>
</svg>
