<svg width="22" height="22" viewBox="0 0 22 22" fill="none" xmlns="http://www.w3.org/2000/svg">
<path d="M16 10.9099V10.9999C15.9997 11.1339 15.9725 11.2666 15.92 11.3899C15.8713 11.5091 15.7999 11.6177 15.71 11.7099L12.71 14.7099C12.617 14.8036 12.5064 14.878 12.3846 14.9288C12.2627 14.9795 12.132 15.0057 12 15.0057C11.868 15.0057 11.7373 14.9795 11.6154 14.9288C11.4936 14.878 11.383 14.8036 11.29 14.7099C11.1963 14.6169 11.1219 14.5063 11.0711 14.3845C11.0203 14.2626 10.9942 14.1319 10.9942 13.9999C10.9942 13.8679 11.0203 13.7372 11.0711 13.6153C11.1219 13.4935 11.1963 13.3828 11.29 13.2899L12.59 11.9999H7C6.73478 11.9999 6.48043 11.8945 6.29289 11.707C6.10536 11.5195 6 11.2651 6 10.9999C6 10.7347 6.10536 10.4803 6.29289 10.2928C6.48043 10.1052 6.73478 9.99989 7 9.99989H12.66L11.43 8.68989C11.247 8.4976 11.1479 8.2405 11.1544 7.97514C11.161 7.70977 11.2727 7.45788 11.465 7.27489C11.6573 7.09189 11.9144 6.99277 12.1797 6.99933C12.3111 7.00258 12.4406 7.03168 12.5608 7.08496C12.6809 7.13825 12.7894 7.21468 12.88 7.30989L15.74 10.3099C15.7734 10.3508 15.8035 10.3942 15.83 10.4399C15.8762 10.4972 15.9133 10.5613 15.94 10.6299C15.9752 10.7193 15.9954 10.8139 16 10.9099Z" fill="#97A3BA"/>
<path fill-rule="evenodd" clip-rule="evenodd" d="M5.4443 2.6853C7.08879 1.58649 9.02219 1 11 1C12.3132 1 13.6136 1.25866 14.8268 1.7612C16.0401 2.26375 17.1425 3.00035 18.0711 3.92893C18.9997 4.85752 19.7363 5.95991 20.2388 7.17317C20.7413 8.38642 21 9.68678 21 11C21 12.9778 20.4135 14.9112 19.3147 16.5557C18.2159 18.2002 16.6541 19.4819 14.8268 20.2388C12.9996 20.9957 10.9889 21.1937 9.0491 20.8079C7.10929 20.422 5.32746 19.4696 3.92894 18.0711C2.53041 16.6725 1.578 14.8907 1.19215 12.9509C0.806299 11.0111 1.00433 9.00043 1.76121 7.17317C2.51809 5.3459 3.79981 3.78412 5.4443 2.6853ZM6.55544 17.6518C7.87104 18.5308 9.41775 19 11 19C13.1217 19 15.1566 18.1571 16.6569 16.6569C18.1572 15.1566 19 13.1217 19 11C19 9.41775 18.5308 7.87103 17.6518 6.55544C16.7727 5.23984 15.5233 4.21447 14.0615 3.60896C12.5997 3.00346 10.9911 2.84504 9.43928 3.15372C7.88743 3.4624 6.46197 4.22433 5.34315 5.34315C4.22433 6.46197 3.4624 7.88743 3.15372 9.43928C2.84504 10.9911 3.00347 12.5997 3.60897 14.0615C4.21447 15.5233 5.23985 16.7727 6.55544 17.6518Z" fill="#97A3BA"/>
</svg>
