<svg width="22" height="22" viewBox="0 0 22 22" fill="none" xmlns="http://www.w3.org/2000/svg">
<path d="M16 7.00019C15.7348 7.00019 15.4804 7.10554 15.2929 7.29308C15.1054 7.48062 15 7.73497 15 8.00019V13.5902L6.71 5.29019C6.5217 5.10188 6.2663 4.99609 6 4.99609C5.7337 4.99609 5.47831 5.10188 5.29 5.29019C5.1017 5.47849 4.99591 5.73388 4.99591 6.00019C4.99591 6.26649 5.1017 6.52188 5.29 6.71019L13.59 15.0002H8C7.73479 15.0002 7.48043 15.1055 7.2929 15.2931C7.10536 15.4806 7 15.735 7 16.0002C7 16.2654 7.10536 16.5198 7.2929 16.7073C7.48043 16.8948 7.73479 17.0002 8 17.0002H16C16.2652 17.0002 16.5196 16.8948 16.7071 16.7073C16.8946 16.5198 17 16.2654 17 16.0002V8.00019C17 7.73497 16.8946 7.48062 16.7071 7.29308C16.5196 7.10554 16.2652 7.00019 16 7.00019Z" fill="#97A3BA"/>
</svg>
