<svg width="22" height="22" viewBox="0 0 22 22" fill="none" xmlns="http://www.w3.org/2000/svg">
<path d="M6 3C5.44772 3 5 3.44772 5 4C5 4.55228 5.44771 5 6 5H10.9997C10.8777 5.00003 10.7558 5.02238 10.64 5.06705L10.51 5.13705L10.36 5.22705L4.35999 10.227C4.25873 10.311 4.17503 10.4141 4.11368 10.5304C4.05233 10.6468 4.01453 10.7741 4.00245 10.9051C3.99038 11.0361 4.00426 11.1681 4.0433 11.2937C4.08235 11.4193 4.14579 11.536 4.22999 11.637C4.31394 11.7383 4.41704 11.822 4.53339 11.8834C4.64973 11.9447 4.77704 11.9825 4.90802 11.9946C5.039 12.0067 5.17107 11.9928 5.29667 11.9537C5.42228 11.9147 5.53894 11.8512 5.63999 11.767L9.99999 8.13705V17.9971C9.99999 18.2623 10.1053 18.5166 10.2929 18.7042C10.4804 18.8917 10.7348 18.9971 11 18.9971C11.2652 18.9971 11.5196 18.8917 11.7071 18.7042C11.8946 18.5166 12 18.2623 12 17.9971V8.13705L16.36 11.767C16.4611 11.8511 16.5778 11.9144 16.7034 11.9534C16.829 11.9923 16.961 12.0061 17.0919 11.9941C17.2228 11.982 17.3501 11.9443 17.4665 11.883C17.5828 11.8217 17.6859 11.7382 17.77 11.637C17.854 11.5359 17.9173 11.4192 17.9563 11.2937C17.9952 11.1681 18.0091 11.0361 17.997 10.9051C17.9849 10.7742 17.9472 10.6469 17.8859 10.5306C17.8247 10.4142 17.7411 10.3111 17.64 10.227L11.64 5.22705L11.49 5.13705L11.36 5.06705C11.2442 5.02238 11.1217 5.00003 10.9997 5H16C16.5523 5 17 4.55228 17 4C17 3.44772 16.5523 3 16 3H6Z" fill="#7887A5"/>
</svg>
