<svg width="22" height="22" viewBox="0 0 22 22" fill="none" xmlns="http://www.w3.org/2000/svg">
<path d="M9.34 9.99989H15C15.2652 9.99989 15.5196 10.1052 15.7071 10.2928C15.8946 10.4803 16 10.7347 16 10.9999C16 11.2651 15.8946 11.5195 15.7071 11.707C15.5196 11.8945 15.2652 11.9999 15 11.9999H9.41L10.71 13.2799C10.8037 13.3728 10.8781 13.4834 10.9289 13.6053C10.9797 13.7272 11.0058 13.8579 11.0058 13.9899C11.0058 14.1219 10.9797 14.2526 10.9289 14.3745C10.8781 14.4963 10.8037 14.6069 10.71 14.6999C10.617 14.7936 10.5064 14.868 10.3846 14.9188C10.2627 14.9695 10.132 14.9957 10 14.9957C9.86799 14.9957 9.73728 14.9695 9.61542 14.9188C9.49356 14.868 9.38296 14.7936 9.29 14.6999L6.29 11.6999C6.20005 11.6077 6.12874 11.4991 6.08 11.3799C6.02876 11.2597 6.00158 11.1306 6 10.9999L6.02 10.9099C6.02458 10.8139 6.04485 10.7193 6.08 10.6299C6.10674 10.5613 6.14384 10.4972 6.19 10.4399C6.21652 10.3942 6.24662 10.3508 6.28 10.3099L9.14 7.30989C9.323 7.1176 9.57489 7.00589 9.84025 6.99933C10.1056 6.99277 10.3627 7.09189 10.555 7.27489C10.7473 7.45788 10.859 7.70977 10.8656 7.97514C10.8721 8.2405 10.773 8.4976 10.59 8.68989L9.34 9.99989Z" fill="#97A3BA"/>
<path fill-rule="evenodd" clip-rule="evenodd" d="M5.4443 2.6853C7.08879 1.58649 9.02219 1 11 1C12.3132 1 13.6136 1.25866 14.8268 1.7612C16.0401 2.26375 17.1425 3.00035 18.0711 3.92893C18.9997 4.85752 19.7363 5.95991 20.2388 7.17317C20.7413 8.38642 21 9.68678 21 11C21 12.9778 20.4135 14.9112 19.3147 16.5557C18.2159 18.2002 16.6541 19.4819 14.8268 20.2388C12.9996 20.9957 10.9889 21.1937 9.0491 20.8079C7.10929 20.422 5.32746 19.4696 3.92894 18.0711C2.53041 16.6725 1.578 14.8907 1.19215 12.9509C0.806299 11.0111 1.00433 9.00043 1.76121 7.17317C2.51809 5.3459 3.79981 3.78412 5.4443 2.6853ZM6.55544 17.6518C7.87104 18.5308 9.41775 19 11 19C13.1217 19 15.1566 18.1571 16.6569 16.6569C18.1572 15.1566 19 13.1217 19 11C19 9.41775 18.5308 7.87103 17.6518 6.55544C16.7727 5.23984 15.5233 4.21447 14.0615 3.60896C12.5997 3.00346 10.9911 2.84504 9.43928 3.15372C7.88743 3.4624 6.46197 4.22433 5.34315 5.34315C4.22433 6.46197 3.4624 7.88743 3.15372 9.43928C2.84504 10.9911 3.00347 12.5997 3.60897 14.0615C4.21447 15.5233 5.23985 16.7727 6.55544 17.6518Z" fill="#97A3BA"/>
</svg>
