<svg width="22" height="22" viewBox="0 0 22 22" fill="none" xmlns="http://www.w3.org/2000/svg">
<path d="M13.4046 7.49622L15.2216 9.30627C15.4083 9.49233 15.5133 9.7447 15.5133 10.0078C15.5133 10.271 15.4083 10.5233 15.2216 10.7094C15.0348 10.8955 14.7815 11 14.5173 11C14.2532 11 13.9998 10.8955 13.813 10.7094L10.2918 7.20157C10.105 7.0155 10.0001 6.76314 10.0001 6.5C10.0001 6.23686 10.105 5.9845 10.2918 5.79843L13.813 2.2906C13.9998 2.10453 14.2532 2 14.5173 2C14.7815 2 15.0348 2.10453 15.2216 2.2906C15.4083 2.47667 15.5133 2.72903 15.5133 2.99217C15.5133 3.2553 15.4083 3.50766 15.2216 3.69373L13.4116 5.49676L19 5.50385C19.2652 5.50385 19.5196 5.60881 19.7072 5.79563C19.8947 5.98246 20.0001 6.23586 20.0001 6.50007C20.0001 6.76429 19.8947 7.01768 19.7072 7.20451C19.5196 7.39134 19.2652 7.4963 19 7.4963L13.4046 7.49622Z" fill="#97A3BA"/>
<path d="M8.59554 14.5038L6.77856 12.6937C6.59178 12.5077 6.48685 12.2553 6.48685 11.9922C6.48685 11.729 6.59178 11.4767 6.77856 11.2906C6.96534 11.1045 7.21867 11 7.48282 11C7.74696 11 8.00029 11.1045 8.18707 11.2906L11.7083 14.7984C11.8951 14.9845 12.0001 15.2369 12.0001 15.5C12.0001 15.7631 11.8951 16.0155 11.7083 16.2016L8.18707 19.7094C8.00029 19.8955 7.74697 20 7.48282 20C7.21867 20 6.96534 19.8955 6.77856 19.7094C6.59178 19.5233 6.48685 19.271 6.48685 19.0078C6.48685 18.7447 6.59178 18.4923 6.77856 18.3063L8.5885 16.5032L3.0001 16.4962C2.73487 16.4962 2.48051 16.3912 2.29297 16.2044C2.10542 16.0175 2.00006 15.7641 2.00006 15.4999C2.00006 15.2357 2.10542 14.9823 2.29297 14.7955C2.48051 14.6087 2.73488 14.5037 3.0001 14.5037L8.59554 14.5038Z" fill="#97A3BA"/>
</svg>
