<svg width="24" height="24" viewBox="0 0 24 24" fill="none" xmlns="http://www.w3.org/2000/svg">
<path fill-rule="evenodd" clip-rule="evenodd" d="M19 6C19.5523 6 20 6.44772 20 7V12C20 13.1046 19.1046 14 18 14H8.41421L10.7071 16.2929C11.0976 16.6834 11.0976 17.3166 10.7071 17.7071C10.3166 18.0976 9.68342 18.0976 9.29289 17.7071L5.29289 13.7071C4.90237 13.3166 4.90237 12.6834 5.29289 12.2929L9.29289 8.29289C9.68342 7.90237 10.3166 7.90237 10.7071 8.29289C11.0976 8.68342 11.0976 9.31658 10.7071 9.70711L8.41421 12H18V7C18 6.44772 18.4477 6 19 6Z" fill="#777B92"/>
</svg>
