<svg width="22" height="22" viewBox="0 0 22 22" fill="none" xmlns="http://www.w3.org/2000/svg">
<path d="M4.22999 9.63998C4.31394 9.74124 4.41704 9.82494 4.53339 9.88629C4.64973 9.94764 4.77704 9.98544 4.90802 9.99751C5.039 10.0096 5.17107 9.99571 5.29667 9.95666C5.42228 9.91762 5.53894 9.85418 5.63999 9.76998L9.99999 6.13998V18C9.99999 18.2652 10.1053 18.5195 10.2929 18.7071C10.4804 18.8946 10.7348 19 11 19C11.2652 19 11.5196 18.8946 11.7071 18.7071C11.8946 18.5195 12 18.2652 12 18V6.13998L16.36 9.76998C16.4611 9.85402 16.5778 9.91733 16.7034 9.95628C16.829 9.99523 16.961 10.0091 17.0919 9.997C17.2228 9.98493 17.3501 9.94718 17.4665 9.88593C17.5828 9.82467 17.6859 9.7411 17.77 9.63998C17.854 9.53886 17.9173 9.42218 17.9563 9.29659C17.9952 9.17101 18.0091 9.03898 17.997 8.90805C17.9849 8.77712 17.9472 8.64985 17.8859 8.53351C17.8247 8.41716 17.7411 8.31402 17.64 8.22998L11.64 3.22998L11.49 3.13998L11.36 3.06998C11.1283 2.98058 10.8717 2.98058 10.64 3.06998L10.51 3.13998L10.36 3.22998L4.35999 8.22998C4.25873 8.31393 4.17503 8.41703 4.11368 8.53337C4.05233 8.64972 4.01453 8.77703 4.00245 8.90801C3.99038 9.03898 4.00426 9.17105 4.0433 9.29666C4.08235 9.42226 4.14579 9.53893 4.22999 9.63998V9.63998Z" fill="#97A3BA"/>
</svg>
