<svg width="22" height="22" viewBox="0 0 22 22" fill="none" xmlns="http://www.w3.org/2000/svg">
<path d="M16.7175 15.285L8.38662 6.99903H13.9941C14.2607 6.99903 14.5163 6.89373 14.7047 6.70628C14.8932 6.51884 14.9991 6.26461 14.9991 5.99952C14.9991 5.73443 14.8932 5.4802 14.7047 5.29275C14.5163 5.10531 14.2607 5 13.9941 5H6.00493C5.73841 5 5.4828 5.10531 5.29434 5.29275C5.10588 5.4802 5 5.73443 5 5.99952V13.9957C5 14.2607 5.10588 14.515 5.29434 14.7024C5.4828 14.8899 5.73841 14.9952 6.00493 14.9952H5.95468C6.22121 14.9952 6.47682 14.8899 6.66528 14.7024C6.85374 14.515 6.95962 14.2607 6.95962 13.9957V8.44833L15.2603 16.7043C15.3538 16.798 15.4649 16.8724 15.5874 16.9231C15.7098 16.9739 15.8412 17 15.9738 17C16.1065 17 16.2379 16.9739 16.3603 16.9231C16.4828 16.8724 16.5939 16.798 16.6874 16.7043C16.7835 16.6134 16.8607 16.5045 16.9143 16.3837C16.9679 16.263 16.997 16.1329 16.9998 16.0009C17.0026 15.869 16.9791 15.7378 16.9306 15.6149C16.8822 15.492 16.8097 15.3799 16.7175 15.285V15.285Z" fill="#97A3BA"/>
</svg>
