<svg width="40" height="40" viewBox="0 0 40 40" fill="none" xmlns="http://www.w3.org/2000/svg">
<path d="M1 18.9998H36.86L33.23 14.6398C33.0603 14.4356 32.9786 14.1723 33.003 13.9079C33.0274 13.6434 33.1558 13.3995 33.36 13.2298C33.5642 13.06 33.8275 12.9784 34.0919 13.0028C34.3563 13.0271 34.6003 13.1556 34.77 13.3598L39.77 19.3598C39.8036 19.4075 39.8337 19.4576 39.86 19.5098C39.86 19.5598 39.86 19.5898 39.93 19.6398C39.9753 19.7544 39.9991 19.8765 40 19.9998C39.9991 20.1231 39.9753 20.2451 39.93 20.3598C39.93 20.4098 39.93 20.4398 39.86 20.4898C39.8337 20.5419 39.8036 20.5921 39.77 20.6398L34.77 26.6398C34.676 26.7527 34.5582 26.8434 34.4252 26.9057C34.2921 26.9679 34.1469 27 34 26.9998C33.7663 27.0002 33.5399 26.9189 33.36 26.7698C33.2587 26.6858 33.175 26.5827 33.1137 26.4664C33.0523 26.35 33.0145 26.2227 33.0025 26.0918C32.9904 25.9608 33.0043 25.8287 33.0433 25.7031C33.0824 25.5775 33.1458 25.4608 33.23 25.3598L36.86 20.9998H1C0.734783 20.9998 0.480431 20.8944 0.292892 20.7069C0.105354 20.5194 0 20.265 0 19.9998C0 19.7346 0.105354 19.4802 0.292892 19.2927C0.480431 19.1051 0.734783 18.9998 1 18.9998Z" fill="#97A3BA"/>
</svg>
