<svg width="24" height="24" viewBox="0 0 24 24" fill="none" xmlns="http://www.w3.org/2000/svg">
<path fill-rule="evenodd" clip-rule="evenodd" d="M17.7071 4.29289L20.7071 7.29289C21.0976 7.68342 21.0976 8.31658 20.7071 8.70711L17.7071 11.7071C17.3166 12.0976 16.6834 12.0976 16.2929 11.7071C15.9024 11.3166 15.9024 10.6834 16.2929 10.2929L17.5858 9H12C11.4477 9 11 8.55228 11 8C11 7.44772 11.4477 7 12 7H17.5858L16.2929 5.70711C15.9024 5.31658 15.9024 4.68342 16.2929 4.29289C16.6834 3.90237 17.3166 3.90237 17.7071 4.29289Z" fill="#777B92"/>
<path fill-rule="evenodd" clip-rule="evenodd" d="M7.70711 13.7071L6.41421 15H12C12.5523 15 13 15.4477 13 16C13 16.5523 12.5523 17 12 17H6.41421L7.70711 18.2929C8.09763 18.6834 8.09763 19.3166 7.70711 19.7071C7.31658 20.0976 6.68342 20.0976 6.29289 19.7071L3.29289 16.7071C2.90237 16.3166 2.90237 15.6834 3.29289 15.2929L6.29289 12.2929C6.68342 11.9024 7.31658 11.9024 7.70711 12.2929C8.09763 12.6834 8.09763 13.3166 7.70711 13.7071Z" fill="#777B92"/>
</svg>
