<svg width="24" height="24" viewBox="0 0 24 24" fill="none" xmlns="http://www.w3.org/2000/svg">
<path fill-rule="evenodd" clip-rule="evenodd" d="M12.2929 5.29289C12.6834 4.90237 13.3166 4.90237 13.7071 5.29289L17.7071 9.29289C18.0976 9.68342 18.0976 10.3166 17.7071 10.7071C17.3166 11.0976 16.6834 11.0976 16.2929 10.7071L14 8.41421L14 18C14 19.1046 13.1046 20 12 20H7C6.44772 20 6 19.5523 6 19C6 18.4477 6.44772 18 7 18H12L12 8.41421L9.70711 10.7071C9.31658 11.0976 8.68342 11.0976 8.29289 10.7071C7.90237 10.3166 7.90237 9.68342 8.29289 9.29289L12.2929 5.29289Z" fill="#777B92"/>
</svg>
