<svg width="22" height="22" viewBox="0 0 22 22" fill="none" xmlns="http://www.w3.org/2000/svg">
<path d="M4.53339 9.88336C4.41704 9.82201 4.31394 9.73831 4.22999 9.63705C4.14579 9.536 4.08235 9.41933 4.0433 9.29373C4.00426 9.16813 3.99038 9.03605 4.00245 8.90508C4.01453 8.7741 4.05233 8.64679 4.11368 8.53044C4.17503 8.4141 4.25873 8.311 4.35999 8.22705L10.36 3.22705L10.51 3.13705L10.64 3.06705C10.8717 2.97765 11.1283 2.97765 11.36 3.06705L11.49 3.13705L11.64 3.22705L17.64 8.22705C17.7411 8.31109 17.8247 8.41423 17.8859 8.53058C17.9472 8.64692 17.9849 8.77419 17.997 8.90512C18.0091 9.03605 17.9952 9.16808 17.9563 9.29366C17.9173 9.41925 17.854 9.53593 17.77 9.63705C17.6859 9.73817 17.5828 9.82174 17.4665 9.883C17.3501 9.94425 17.2228 9.982 17.0919 9.99407C16.961 10.0061 16.829 9.9923 16.7034 9.95335C16.5778 9.9144 16.4611 9.85109 16.36 9.76705L12 6.13705V17H16C16.5523 17 17 17.4477 17 18C17 18.5523 16.5523 19 16 19H6C5.44772 19 5 18.5523 5 18C5 17.4477 5.44772 17 6 17H9.99999V6.13705L5.63999 9.76705C5.53894 9.85125 5.42228 9.91469 5.29667 9.95373C5.17107 9.99278 5.039 10.0067 4.90802 9.99458C4.77704 9.98251 4.64973 9.94471 4.53339 9.88336Z" fill="#7887A5"/>
</svg>
