<svg width="24" height="24" viewBox="0 0 24 24" fill="none" xmlns="http://www.w3.org/2000/svg">
<path fill-rule="evenodd" clip-rule="evenodd" d="M5.04566 2.70155C5.21064 2.17448 5.77165 1.88095 6.29872 2.04593L10.2987 3.29796C10.81 3.45799 11.1043 3.99249 10.9662 4.5101L9.9662 8.25806C9.82382 8.79168 9.27582 9.10884 8.74221 8.96647C8.20859 8.82409 7.89142 8.27609 8.0338 7.74247L8.51852 5.92574C6.41574 7.13364 5 9.40242 5 12.0003C5 14.9364 6.80802 17.4526 9.37522 18.4918C9.88715 18.699 10.1342 19.282 9.92694 19.794C9.71971 20.3059 9.13672 20.5529 8.62479 20.3457C5.32832 19.0113 3 15.7789 3 12.0003C3 8.81051 4.65886 6.00966 7.16028 4.41129L5.70128 3.95461C5.17421 3.78963 4.88068 3.22862 5.04566 2.70155ZM14.0731 4.20657C14.2803 3.69463 14.8633 3.44762 15.3752 3.65485C18.6717 4.98922 21 8.22164 21 12.0003C21 15.19 19.3411 17.9909 16.8397 19.5892L18.2987 20.0459C18.8258 20.2109 19.1193 20.7719 18.9543 21.299C18.7894 21.8261 18.2284 22.1196 17.7013 21.9546L13.7013 20.7026C13.19 20.5425 12.8957 20.008 13.0338 19.4904L14.0338 15.7425C14.1762 15.2089 14.7242 14.8917 15.2578 15.0341C15.7914 15.1764 16.1086 15.7244 15.9662 16.2581L15.4815 18.0748C17.5843 16.8669 19 14.5981 19 12.0003C19 9.06414 17.192 6.54789 14.6248 5.50872C14.1129 5.3015 13.8658 4.7185 14.0731 4.20657Z" fill="#777B92"/>
</svg>
