<svg width="24" height="24" viewBox="0 0 24 24" fill="none" xmlns="http://www.w3.org/2000/svg">
<path fill-rule="evenodd" clip-rule="evenodd" d="M19.7071 5.70711L16.4142 8.99996H19C19.5523 8.99996 20 9.44768 20 9.99996C20 10.5522 19.5523 11 19 11H14C13.4477 11 13 10.5522 13 9.99996L13 5.00004C13 4.44776 13.4477 4.00004 14 4.00004C14.5523 4.00004 15 4.44776 15 5.00004L15 7.58576L18.2929 4.29289C18.6834 3.90237 19.3166 3.90237 19.7071 4.2929C20.0976 4.68342 20.0976 5.31659 19.7071 5.70711Z" fill="#777B92"/>
<path fill-rule="evenodd" clip-rule="evenodd" d="M5 13H10C10.5523 13 11 13.4477 11 14L11 18.9999C11 19.5522 10.5523 19.9999 10 19.9999C9.44772 19.9999 9.00001 19.5522 9.00001 18.9999L9.00001 16.4142L5.7071 19.7071C5.31658 20.0976 4.68341 20.0976 4.29289 19.7071C3.90237 19.3165 3.90237 18.6834 4.29289 18.2929L7.58577 15H5C4.44772 15 4 14.5523 4 14C4 13.4477 4.44772 13 5 13Z" fill="#777B92"/>
</svg>
