<svg width="22" height="22" viewBox="0 0 22 22" fill="none" xmlns="http://www.w3.org/2000/svg">
<path d="M18.78 9.33891L14.78 4.31507C14.608 4.13202 14.3739 4.02049 14.1241 4.00256C13.8742 3.98462 13.6267 4.06158 13.4306 4.21821C13.2344 4.37485 13.104 4.59974 13.065 4.84839C13.026 5.09705 13.0813 5.35135 13.22 5.56098L15.92 8.9571H7C6.20435 8.9571 5.44129 9.27467 4.87868 9.83996C4.31607 10.4053 4 11.172 4 11.9714V16.9952C4 17.2617 4.10536 17.5173 4.29289 17.7057C4.48043 17.8941 4.73478 18 5 18C5.26522 18 5.51957 17.8941 5.70711 17.7057C5.89464 17.5173 6 17.2617 6 16.9952V11.9714C6 11.7049 6.10536 11.4494 6.29289 11.2609C6.48043 11.0725 6.73478 10.9666 7 10.9666H15.92L13.22 14.3627C13.0565 14.571 12.9816 14.8357 13.0115 15.0992C13.0415 15.3627 13.174 15.6036 13.38 15.7694C13.5559 15.9113 13.7744 15.9892 14 15.9905C14.1502 15.9898 14.2983 15.9551 14.4334 15.889C14.5684 15.8229 14.6869 15.7271 14.78 15.6087L18.78 10.5848C18.9195 10.4074 18.9954 10.188 18.9954 9.96186C18.9954 9.73578 18.9195 9.5163 18.78 9.33891V9.33891Z" fill="#97A3BA"/>
</svg>
