<svg width="22" height="22" viewBox="0 0 22 22" fill="none" xmlns="http://www.w3.org/2000/svg">
<path d="M18.7071 3.29289C18.8946 3.48043 19 3.73478 19 4V9C19 9.26522 18.8946 9.51957 18.7071 9.70711C18.5196 9.89464 18.2652 10 18 10C17.7348 10 17.4804 9.89464 17.2929 9.70711C17.1054 9.51957 17 9.26522 17 9V6.42L13.71 9.71C13.617 9.80373 13.5064 9.87812 13.3846 9.92889C13.2627 9.97966 13.132 10.0058 13 10.0058C12.868 10.0058 12.7373 9.97966 12.6154 9.92889C12.4936 9.87812 12.383 9.80373 12.29 9.71C12.1963 9.61704 12.1219 9.50644 12.0711 9.38458C12.0203 9.26272 11.9942 9.13201 11.9942 9C11.9942 8.86799 12.0203 8.73728 12.0711 8.61542C12.1219 8.49356 12.1963 8.38296 12.29 8.29L15.57 5H13C12.7348 5 12.4804 4.89464 12.2929 4.70711C12.1054 4.51957 12 4.26522 12 4C12 3.73478 12.1054 3.48043 12.2929 3.29289C12.4804 3.10536 12.7348 3 13 3H18C18.2652 3 18.5196 3.10536 18.7071 3.29289Z" fill="#97A3BA"/>
<path d="M9.38458 12.071C9.50644 12.1218 9.61704 12.1962 9.71 12.2899C9.80373 12.3829 9.87812 12.4935 9.92889 12.6154C9.97966 12.7372 10.0058 12.8679 10.0058 12.9999C10.0058 13.132 9.97966 13.2627 9.92889 13.3845C9.87812 13.5064 9.80373 13.617 9.71 13.7099L6.42 16.9999H9C9.26522 16.9999 9.51957 17.1053 9.70711 17.2928C9.89464 17.4804 10 17.7347 10 17.9999C10 18.2652 9.89464 18.5195 9.70711 18.707C9.51957 18.8946 9.26522 18.9999 9 18.9999H4C3.73478 18.9999 3.48043 18.8946 3.29289 18.707C3.10536 18.5195 3 18.2652 3 17.9999V12.9999C3 12.7347 3.10536 12.4804 3.29289 12.2928C3.48043 12.1053 3.73478 11.9999 4 11.9999C4.26522 11.9999 4.51957 12.1053 4.70711 12.2928C4.89464 12.4804 5 12.7347 5 12.9999V15.5699L8.29 12.2899C8.38296 12.1962 8.49356 12.1218 8.61542 12.071C8.73728 12.0203 8.86799 11.9941 9 11.9941C9.13201 11.9941 9.26272 12.0203 9.38458 12.071Z" fill="#97A3BA"/>
</svg>
