<svg width="22" height="22" viewBox="0 0 22 22" fill="none" xmlns="http://www.w3.org/2000/svg">
<path d="M11 3C10.8814 3.00003 10.7627 3.02238 10.6501 3.06705L10.5237 3.13705L10.3779 3.22705L6.3518 6.45877C6.25333 6.54272 6.17193 6.64582 6.11227 6.76217C6.05261 6.87851 6.01585 7.00582 6.00411 7.1368C5.99236 7.26777 6.00586 7.39985 6.04383 7.52545C6.0818 7.65105 6.1435 7.76772 6.22538 7.86877C6.30702 7.97003 6.40728 8.05373 6.52043 8.11508C6.63357 8.17643 6.75738 8.21423 6.88475 8.22631C7.01212 8.23838 7.14056 8.2245 7.26271 8.18545C7.38485 8.14641 7.49831 8.08297 7.59658 7.99877L10.0278 6.13705V14H6C5.44772 14 5 14.4477 5 15C5 15.5523 5.44772 16 6 16H16C16.5523 16 17 15.5523 17 15C17 14.4477 16.5523 14 16 14H11.9727V6.13705L14.4039 8.04C14.5023 8.12405 14.6157 8.18735 14.7379 8.22631C14.86 8.26526 14.9884 8.27909 15.1157 8.26702C15.243 8.25495 15.3668 8.21721 15.4799 8.15595C15.5931 8.09469 15.6934 8.01112 15.7751 7.91C15.8568 7.80888 15.9184 7.6922 15.9563 7.56662C15.9942 7.44103 16.0076 7.30901 15.9959 7.17808C15.9841 7.04715 15.9474 6.91988 15.8879 6.80353C15.8283 6.68719 15.747 6.58405 15.6487 6.5L11.6226 3.22705L11.4768 3.13705L11.3503 3.06705C11.2378 3.02238 11.1186 3.00003 11 3Z" fill="#7887A5"/>
<path d="M5 18C5 17.4477 5.44772 17 6 17H16C16.5523 17 17 17.4477 17 18C17 18.5523 16.5523 19 16 19H6C5.44772 19 5 18.5523 5 18Z" fill="#7887A5"/>
</svg>
