<svg width="22" height="22" viewBox="0 0 22 22" fill="none" xmlns="http://www.w3.org/2000/svg">
<path d="M16.9952 16.9954H11.9714C11.7049 16.9954 11.4494 16.89 11.2609 16.7025C11.0725 16.515 10.9666 16.2606 10.9666 15.9954V7.0754L14.3627 9.7754C14.5395 9.91656 14.7591 9.99409 14.9857 9.9954C15.1366 9.99471 15.2854 9.96018 15.4211 9.8944C15.5568 9.82861 15.6758 9.73325 15.7694 9.6154C15.9337 9.40817 16.009 9.14469 15.9789 8.88243C15.9488 8.62017 15.8157 8.38039 15.6087 8.2154L10.5848 4.2154C10.4074 4.07589 10.188 4 9.96186 4C9.73578 4 9.5163 4.07589 9.33891 4.2154L4.31507 8.2154C4.13202 8.38737 4.02049 8.62145 4.00256 8.87135C3.98462 9.12124 4.06158 9.36872 4.21821 9.56484C4.37485 9.76096 4.59974 9.89142 4.84839 9.93041C5.09705 9.9694 5.35135 9.91408 5.56098 9.7754L8.9571 7.0754V15.9954C8.9571 16.791 9.27467 17.5541 9.83996 18.1167C10.4053 18.6793 11.172 18.9954 11.9714 18.9954H16.9952C17.2617 18.9954 17.5173 18.89 17.7057 18.7025C17.8941 18.515 18 18.2606 18 17.9954C18 17.7302 17.8941 17.4758 17.7057 17.2883C17.5173 17.1008 17.2617 16.9954 16.9952 16.9954Z" fill="#97A3BA"/>
</svg>
