<svg width="24" height="24" viewBox="0 0 24 24" fill="none" xmlns="http://www.w3.org/2000/svg">
<path fill-rule="evenodd" clip-rule="evenodd" d="M20.7071 5.29289C21.0976 5.68342 21.0976 6.31658 20.7071 6.70711L17.7071 9.70711C17.3166 10.0976 16.6834 10.0976 16.2929 9.70711L14.2929 7.70711C13.9024 7.31658 13.9024 6.68342 14.2929 6.29289C14.6834 5.90237 15.3166 5.90237 15.7071 6.29289L17 7.58579L19.2929 5.29289C19.6834 4.90237 20.3166 4.90237 20.7071 5.29289Z" fill="#777B92"/>
<path fill-rule="evenodd" clip-rule="evenodd" d="M8.70711 8.70711L6.41421 11H15C16.1046 11 17 11.8954 17 13V18C17 18.5523 16.5523 19 16 19C15.4477 19 15 18.5523 15 18V13H6.41421L8.70711 15.2929C9.09763 15.6834 9.09763 16.3166 8.70711 16.7071C8.31658 17.0976 7.68342 17.0976 7.29289 16.7071L3.29289 12.7071C2.90237 12.3166 2.90237 11.6834 3.29289 11.2929L7.29289 7.29289C7.68342 6.90237 8.31658 6.90237 8.70711 7.29289C9.09763 7.68342 9.09763 8.31658 8.70711 8.70711Z" fill="#777B92"/>
</svg>
