<svg width="22" height="22" viewBox="0 0 22 22" fill="none" xmlns="http://www.w3.org/2000/svg">
<path d="M5 5C5.55228 5 6 4.55228 6 4C6 3.44772 5.55228 3 5 3C4.44772 3 4 3.44772 4 4C4 4.55228 4.44772 5 5 5Z" fill="#97A3BA"/>
<path d="M18 4C18 4.55228 17.5523 5 17 5C16.4477 5 16 4.55228 16 4C16 3.44772 16.4477 3 17 3C17.5523 3 18 3.44772 18 4Z" fill="#97A3BA"/>
<path d="M10.2929 7.29289C10.6834 6.90237 11.3166 6.90237 11.7071 7.29289L16 11.5858C16.3905 11.9763 16.3905 12.6095 16 13C15.6095 13.3905 14.9763 13.3905 14.5858 13L12 10.4142V18C12 18.5523 11.5523 19 11 19C10.4477 19 9.99999 18.5523 9.99999 18V10.4142L7.4142 13C7.02367 13.3905 6.39051 13.3905 5.99999 13C5.60946 12.6095 5.60946 11.9763 5.99999 11.5858L10.2929 7.29289Z" fill="#97A3BA"/>
<path d="M13 5C13.5523 5 14 4.55228 14 4C14 3.44772 13.5523 3 13 3C12.4477 3 12 3.44772 12 4C12 4.55228 12.4477 5 13 5Z" fill="#97A3BA"/>
<path d="M10 4C10 4.55228 9.55228 5 9 5C8.44772 5 8 4.55228 8 4C8 3.44772 8.44772 3 9 3C9.55228 3 10 3.44772 10 4Z" fill="#97A3BA"/>
</svg>
