<svg width="22" height="22" viewBox="0 0 22 22" fill="none" xmlns="http://www.w3.org/2000/svg">
<path d="M11.0038 7.99999C11.1268 8.00053 11.2487 7.97494 11.3624 7.9247C11.4762 7.87446 11.5795 7.80056 11.6665 7.70726C11.7535 7.61396 11.8224 7.50311 11.8692 7.38111C11.916 7.2591 11.9399 7.12836 11.9394 6.99641L11.9422 3.42362L13.4094 4.99742C13.5841 5.18486 13.8211 5.29017 14.0682 5.29017C14.3153 5.29017 14.5523 5.18486 14.7271 4.99742C14.9018 4.80998 15 4.55576 15 4.29068C15 4.0256 14.9018 3.77138 14.7271 3.58394L11.6589 0.292744C11.4841 0.105303 11.2471 0 11 0C10.7529 0 10.5159 0.105303 10.3411 0.292744L7.27291 3.58395C7.09817 3.77139 7 4.02561 7 4.2907C7 4.55578 7.09817 4.81 7.27291 4.99744C7.44765 5.18488 7.68465 5.29018 7.93178 5.29018C8.1789 5.29018 8.4159 5.18488 8.59064 4.99744L10.0644 3.41655L10.0682 6.99641C10.0677 7.12836 10.0916 7.2591 10.1384 7.38111C10.1853 7.50311 10.2541 7.61396 10.3411 7.70726C10.4281 7.80056 10.5314 7.87446 10.6452 7.9247C10.7589 7.97494 10.8808 8.00053 11.0038 7.99999Z" fill="#97A3BA"/>
<path d="M11.0038 14C11.1268 13.9995 11.2487 14.0251 11.3624 14.0753C11.4762 14.1255 11.5795 14.1994 11.6665 14.2927C11.7535 14.386 11.8224 14.4969 11.8692 14.6189C11.916 14.7409 11.9399 14.8716 11.9394 15.0036L11.9422 18.5764L13.4094 17.0026C13.5841 16.8151 13.8211 16.7098 14.0682 16.7098C14.3153 16.7098 14.5523 16.8151 14.7271 17.0026C14.9018 17.19 15 17.4442 15 17.7093C15 17.9744 14.9018 18.2286 14.7271 18.4161L11.6589 21.7073C11.4841 21.8947 11.2471 22 11 22C10.7529 22 10.5159 21.8947 10.3411 21.7073L7.27291 18.416C7.09817 18.2286 7 17.9744 7 17.7093C7 17.4442 7.09817 17.19 7.27291 17.0026C7.44765 16.8151 7.68465 16.7098 7.93178 16.7098C8.1789 16.7098 8.4159 16.8151 8.59064 17.0026L10.0644 18.5834L10.0682 15.0036C10.0677 14.8716 10.0916 14.7409 10.1384 14.6189C10.1853 14.4969 10.2541 14.386 10.3411 14.2927C10.4281 14.1994 10.5314 14.1255 10.6452 14.0753C10.7589 14.0251 10.8808 13.9995 11.0038 14Z" fill="#97A3BA"/>
<path d="M14.0753 11.3624C14.0251 11.2487 13.9995 11.1268 14 11.0038C13.9995 10.8808 14.0251 10.7589 14.0753 10.6452C14.1255 10.5314 14.1994 10.4281 14.2927 10.3411C14.386 10.2541 14.4969 10.1853 14.6189 10.1384C14.7409 10.0916 14.8716 10.0677 15.0036 10.0682L18.5834 10.0644L17.0026 8.59064C16.8151 8.4159 16.7098 8.1789 16.7098 7.93177C16.7098 7.68465 16.8151 7.44765 17.0026 7.27291C17.19 7.09817 17.4442 7 17.7093 7C17.9744 7 18.2286 7.09817 18.416 7.27291L21.7073 10.3411C21.8947 10.5159 22 10.7529 22 11C22 11.2471 21.8947 11.4841 21.7073 11.6589L18.4161 14.7271C18.2286 14.9018 17.9744 15 17.7093 15C17.4442 15 17.19 14.9018 17.0026 14.7271C16.8151 14.5523 16.7098 14.3153 16.7098 14.0682C16.7098 13.8211 16.8151 13.5841 17.0026 13.4094L18.5764 11.9422L15.0036 11.9394C14.8716 11.9399 14.7409 11.916 14.6189 11.8692C14.4969 11.8224 14.386 11.7535 14.2927 11.6665C14.1994 11.5795 14.1255 11.4762 14.0753 11.3624Z" fill="#97A3BA"/>
<path d="M7.99999 11.0038C8.00053 11.1268 7.97494 11.2487 7.9247 11.3624C7.87446 11.4762 7.80056 11.5795 7.70726 11.6665C7.61396 11.7535 7.50311 11.8224 7.38111 11.8692C7.2591 11.916 7.12836 11.9399 6.99641 11.9394L3.42362 11.9422L4.99742 13.4094C5.18486 13.5841 5.29017 13.8211 5.29017 14.0682C5.29017 14.3153 5.18486 14.5523 4.99742 14.7271C4.80998 14.9018 4.55576 15 4.29068 15C4.0256 15 3.77138 14.9018 3.58394 14.7271L0.292743 11.6589C0.105303 11.4841 0 11.2471 0 11C0 10.7529 0.105303 10.5159 0.292743 10.3411L3.58395 7.27291C3.77139 7.09817 4.02561 7 4.2907 7C4.55578 7 4.81 7.09817 4.99744 7.27291C5.18488 7.44765 5.29018 7.68465 5.29018 7.93178C5.29018 8.1789 5.18488 8.4159 4.99744 8.59064L3.41655 10.0644L6.99641 10.0682C7.12836 10.0677 7.2591 10.0916 7.3811 10.1384C7.50311 10.1853 7.61396 10.2541 7.70726 10.3411C7.80056 10.4281 7.87446 10.5314 7.9247 10.6452C7.97494 10.7589 8.00053 10.8808 7.99999 11.0038Z" fill="#97A3BA"/>
</svg>
