<svg width="22" height="22" viewBox="0 0 22 22" fill="none" xmlns="http://www.w3.org/2000/svg">
<path d="M2.29265 2.29265C2.10527 2.48003 2 2.73418 2 2.99917V7.99503C2 8.26003 2.10527 8.51417 2.29265 8.70156C2.48003 8.88894 2.73418 8.99421 2.99917 8.99421C3.26417 8.99421 3.51831 8.88894 3.70569 8.70156C3.89308 8.51417 3.99834 8.26003 3.99834 7.99503V5.41717L7.28562 8.70445C7.37851 8.7981 7.48902 8.87243 7.61078 8.92316C7.73253 8.97388 7.86313 9 7.99503 9C8.12694 9 8.25753 8.97388 8.37929 8.92316C8.50105 8.87243 8.61156 8.7981 8.70445 8.70445C8.7981 8.61156 8.87243 8.50105 8.92316 8.37929C8.97388 8.25753 9 8.12694 9 7.99503C9 7.86313 8.97388 7.73253 8.92316 7.61078C8.87243 7.48902 8.7981 7.37851 8.70445 7.28562L5.42716 3.99834H7.99503C8.26003 3.99834 8.51417 3.89307 8.70156 3.70569C8.88894 3.51831 8.99421 3.26417 8.99421 2.99917C8.99421 2.73418 8.88894 2.48003 8.70156 2.29265C8.51417 2.10527 8.26003 2 7.99503 2H2.99917C2.73418 2 2.48003 2.10527 2.29265 2.29265Z" fill="#97A3BA"/>
<path d="M20 2.99917C20 2.73418 19.8947 2.48003 19.7073 2.29265C19.52 2.10527 19.2658 2 19.0008 2H14.005C13.74 2 13.4858 2.10527 13.2984 2.29265C13.1111 2.48003 13.0058 2.73418 13.0058 2.99917C13.0058 3.26417 13.1111 3.51831 13.2984 3.70569C13.4858 3.89307 13.74 3.99834 14.005 3.99834H16.5728L13.2956 7.28562C13.2019 7.37851 13.1276 7.48902 13.0768 7.61078C13.0261 7.73253 13 7.86313 13 7.99503C13 8.12694 13.0261 8.25753 13.0768 8.37929C13.1276 8.50105 13.2019 8.61156 13.2956 8.70445C13.3884 8.7981 13.4989 8.87243 13.6207 8.92316C13.7425 8.97388 13.8731 9 14.005 9C14.1369 9 14.2675 8.97388 14.3892 8.92316C14.511 8.87243 14.6215 8.7981 14.7144 8.70445L18.0017 5.41717V7.99503C18.0017 8.26003 18.1069 8.51417 18.2943 8.70156C18.4817 8.88894 18.7358 8.99421 19.0008 8.99421C19.2658 8.99421 19.52 8.88894 19.7073 8.70156C19.8947 8.51417 20 8.26003 20 7.99503V2.99917Z" fill="#97A3BA"/>
<path d="M20 19.0008C20 19.2658 19.8947 19.52 19.7073 19.7073C19.52 19.8947 19.2658 20 19.0008 20H14.005C13.74 20 13.4858 19.8947 13.2984 19.7073C13.1111 19.52 13.0058 19.2658 13.0058 19.0008C13.0058 18.7358 13.1111 18.4817 13.2984 18.2943C13.4858 18.1069 13.74 18.0017 14.005 18.0017H16.5728L13.2956 14.7144C13.2019 14.6215 13.1276 14.511 13.0768 14.3892C13.0261 14.2675 13 14.1369 13 14.005C13 13.8731 13.0261 13.7425 13.0768 13.6207C13.1276 13.4989 13.2019 13.3884 13.2956 13.2956C13.3884 13.2019 13.4989 13.1276 13.6207 13.0768C13.7425 13.0261 13.8731 13 14.005 13C14.1369 13 14.2675 13.0261 14.3892 13.0768C14.511 13.1276 14.6215 13.2019 14.7144 13.2956L18.0017 16.5828V14.005C18.0017 13.74 18.1069 13.4858 18.2943 13.2984C18.4817 13.1111 18.7358 13.0058 19.0008 13.0058C19.2658 13.0058 19.52 13.1111 19.7073 13.2984C19.8947 13.4858 20 13.74 20 14.005V19.0008Z" fill="#97A3BA"/>
<path d="M2 19.0008C2 19.2658 2.10527 19.52 2.29265 19.7073C2.48003 19.8947 2.73418 20 2.99917 20H7.99503C8.26003 20 8.51417 19.8947 8.70156 19.7073C8.88894 19.52 8.99421 19.2658 8.99421 19.0008C8.99421 18.7358 8.88894 18.4817 8.70156 18.2943C8.51417 18.1069 8.26003 18.0017 7.99503 18.0017H5.42716L8.70445 14.7144C8.7981 14.6215 8.87243 14.511 8.92316 14.3892C8.97388 14.2675 9 14.1369 9 14.005C9 13.8731 8.97388 13.7425 8.92316 13.6207C8.87243 13.4989 8.7981 13.3884 8.70445 13.2956C8.61156 13.2019 8.50105 13.1276 8.37929 13.0768C8.25753 13.0261 8.12694 13 7.99503 13C7.86313 13 7.73253 13.0261 7.61078 13.0768C7.48902 13.1276 7.37851 13.2019 7.28562 13.2956L3.99834 16.5828V14.005C3.99834 13.74 3.89308 13.4858 3.70569 13.2984C3.51831 13.1111 3.26417 13.0058 2.99917 13.0058C2.73418 13.0058 2.48003 13.1111 2.29265 13.2984C2.10527 13.4858 2 13.74 2 14.005V19.0008Z" fill="#97A3BA"/>
</svg>
