<svg width="24" height="24" viewBox="0 0 24 24" fill="none" xmlns="http://www.w3.org/2000/svg">
<path fill-rule="evenodd" clip-rule="evenodd" d="M4.7071 3.29289L8.00001 6.58576L8.00001 4.00004C8.00001 3.44776 8.44773 3.00004 9.00001 3.00004C9.5523 3.00004 10 3.44776 10 4.00004L10 8.99996C10 9.55225 9.55229 9.99996 9.00001 9.99996H4C3.44772 9.99996 3 9.55224 3 8.99996C3 8.44768 3.44772 7.99996 4 7.99996H6.58578L3.2929 4.70711C2.90237 4.31659 2.90237 3.68342 3.29289 3.2929C3.68341 2.90237 4.31658 2.90237 4.7071 3.29289Z" fill="#777B92"/>
<path fill-rule="evenodd" clip-rule="evenodd" d="M20.7071 4.70711L17.4142 7.99996H20C20.5523 7.99996 21 8.44768 21 8.99996C21 9.55224 20.5523 9.99996 20 9.99996H15C14.4477 9.99996 14 9.55225 14 8.99996L14 4.00004C14 3.44776 14.4477 3.00004 15 3.00004C15.5523 3.00004 16 3.44776 16 4.00004L16 6.58576L19.2929 3.29289C19.6834 2.90237 20.3166 2.90237 20.7071 3.2929C21.0976 3.68342 21.0976 4.31659 20.7071 4.70711Z" fill="#777B92"/>
<path fill-rule="evenodd" clip-rule="evenodd" d="M3 15C3 14.4477 3.44772 14 4 14H9.00001C9.55229 14 10 14.4477 10 15L10 19.9999C10 20.5522 9.5523 20.9999 9.00001 20.9999C8.44773 20.9999 8.00001 20.5522 8.00001 19.9999L8.00001 17.4142L4.7071 20.7071C4.31658 21.0976 3.68341 21.0976 3.29289 20.7071C2.90237 20.3165 2.90237 19.6834 3.2929 19.2929L6.58578 16H4C3.44772 16 3 15.5523 3 15Z" fill="#777B92"/>
<path fill-rule="evenodd" clip-rule="evenodd" d="M15 14H20C20.5523 14 21 14.4477 21 15C21 15.5523 20.5523 16 20 16H17.4142L20.7071 19.2929C21.0976 19.6834 21.0976 20.3165 20.7071 20.7071C20.3166 21.0976 19.6834 21.0976 19.2929 20.7071L16 17.4142L16 19.9999C16 20.5522 15.5523 20.9999 15 20.9999C14.4477 20.9999 14 20.5522 14 19.9999L14 15C14 14.4477 14.4477 14 15 14Z" fill="#777B92"/>
</svg>
