<svg width="24" height="24" viewBox="0 0 24 24" fill="none" xmlns="http://www.w3.org/2000/svg">
<path fill-rule="evenodd" clip-rule="evenodd" d="M12 22C11.6852 22 11.3889 21.8518 11.2 21.6L5.20001 13.6C4.97274 13.297 4.93619 12.8916 5.10558 12.5528C5.27497 12.214 5.62123 12 6.00001 12H8.00001V4C8.00001 2.89543 8.89544 2 10 2H14C15.1046 2 16 2.89543 16 4V12H18C18.3788 12 18.725 12.214 18.8944 12.5528C19.0638 12.8916 19.0273 13.297 18.8 13.6L12.8 21.6C12.6112 21.8518 12.3148 22 12 22ZM8.00001 14L12 19.3333L16 14H15C14.4477 14 14 13.5523 14 13V4H10V13C10 13.5523 9.55229 14 9.00001 14H8.00001Z" fill="#777B92"/>
</svg>
