<svg width="22" height="22" viewBox="0 0 22 22" fill="none" xmlns="http://www.w3.org/2000/svg">
<path d="M17.4666 12.1137C17.583 12.175 17.6861 12.2587 17.77 12.36C17.8542 12.461 17.9177 12.5777 17.9567 12.7033C17.9958 12.8289 18.0096 12.961 17.9976 13.092C17.9855 13.2229 17.9477 13.3503 17.8863 13.4666C17.825 13.583 17.7413 13.6861 17.64 13.77L11.64 18.77L11.49 18.86L11.36 18.93C11.1284 19.0194 10.8717 19.0194 10.64 18.93L10.51 18.86L10.36 18.77L4.36003 13.77C4.25891 13.686 4.17534 13.5828 4.11408 13.4665C4.05282 13.3501 4.01508 13.2229 4.00301 13.0919C3.99094 12.961 4.00477 12.829 4.04372 12.7034C4.08268 12.5778 4.14598 12.4611 4.23003 12.36C4.31407 12.2589 4.41721 12.1753 4.53356 12.1141C4.6499 12.0528 4.77717 12.0151 4.90811 12.003C5.03904 11.9909 5.17106 12.0047 5.29665 12.0437C5.42223 12.0826 5.53891 12.146 5.64003 12.23L10 15.86V5H6C5.44772 5 5 4.55228 5 4C5 3.44772 5.44772 3 6 3H16C16.5523 3 17 3.44772 17 4C17 4.55228 16.5523 5 16 5H12V15.86L16.36 12.23C16.4611 12.1458 16.5777 12.0824 16.7033 12.0433C16.829 12.0043 16.961 11.9904 17.092 12.0025C17.223 12.0145 17.3503 12.0523 17.4666 12.1137Z" fill="#7887A5"/>
</svg>
