<svg width="22" height="22" viewBox="0 0 22 22" fill="none" xmlns="http://www.w3.org/2000/svg">
<path d="M17 6.04949C17 5.7844 16.8947 5.53017 16.7072 5.34273C16.5198 5.15528 16.2656 5.04998 16.0005 5.04998L8.00435 5C7.73926 5 7.48503 5.10531 7.29758 5.29275C7.11014 5.4802 7.00483 5.73443 7.00483 5.99952C7.00483 6.26461 7.11014 6.51884 7.29758 6.70628C7.48503 6.89373 7.73926 6.99903 8.00435 6.99903H13.5617L5.29566 15.285C5.20197 15.3779 5.12761 15.4885 5.07687 15.6103C5.02613 15.7321 5 15.8627 5 15.9947C5 16.1266 5.02613 16.2573 5.07687 16.3791C5.12761 16.5009 5.20197 16.6114 5.29566 16.7043C5.38857 16.798 5.49912 16.8724 5.62092 16.9231C5.74272 16.9739 5.87336 17 6.00531 17C6.13726 17 6.2679 16.9739 6.3897 16.9231C6.5115 16.8724 6.62205 16.798 6.71497 16.7043L15.001 8.41835V13.9957C15.001 14.2607 15.1063 14.515 15.2937 14.7024C15.4812 14.8899 15.7354 14.9952 16.0005 14.9952C16.2656 14.9952 16.5198 14.8899 16.7072 14.7024C16.8947 14.515 17 14.2607 17 13.9957V6.04949Z" fill="#97A3BA"/>
</svg>
