<svg width="22" height="22" viewBox="0 0 22 22" fill="none" xmlns="http://www.w3.org/2000/svg">
<path d="M16.42 7.00019H19C19.2652 7.00019 19.5196 7.10554 19.7071 7.29308C19.8946 7.48062 20 7.73497 20 8.00019C20 8.2654 19.8946 8.51976 19.7071 8.70729C19.5196 8.89483 19.2652 9.00019 19 9.00019H14C13.7348 9.00019 13.4804 8.89483 13.2929 8.70729C13.1054 8.51976 13 8.2654 13 8.00019V3.00019C13 2.73497 13.1054 2.48062 13.2929 2.29308C13.4804 2.10554 13.7348 2.00019 14 2.00019C14.2652 2.00019 14.5196 2.10554 14.7071 2.29308C14.8946 2.48062 15 2.73497 15 3.00019V5.57019L18.29 2.29019C18.4783 2.10188 18.7337 1.99609 19 1.99609C19.2663 1.99609 19.5217 2.10188 19.71 2.29019C19.8983 2.47849 20.0041 2.73388 20.0041 3.00019C20.0041 3.26649 19.8983 3.52188 19.71 3.71019L16.42 7.00019Z" fill="#97A3BA"/>
<path d="M3.00497 13H8.00083C8.26582 13 8.51997 13.1053 8.70735 13.2927C8.89473 13.48 9 13.7342 9 13.9992V18.995C9 19.26 8.89473 19.5142 8.70735 19.7016C8.51997 19.8889 8.26582 19.9942 8.00083 19.9942C7.73583 19.9942 7.48169 19.8889 7.29431 19.7016C7.10693 19.5142 7.00166 19.26 7.00166 18.995V16.4172L3.71438 19.7044C3.62149 19.7981 3.51098 19.8724 3.38922 19.9232C3.26747 19.9739 3.13687 20 3.00497 20C2.87306 20 2.74247 19.9739 2.62071 19.9232C2.49895 19.8724 2.38844 19.7981 2.29555 19.7044C2.2019 19.6116 2.12757 19.5011 2.07684 19.3793C2.02612 19.2575 2 19.1269 2 18.995C2 18.8631 2.02612 18.7325 2.07684 18.6108C2.12757 18.489 2.2019 18.3785 2.29555 18.2856L5.57284 14.9983H3.00497C2.73997 14.9983 2.48583 14.8931 2.29844 14.7057C2.11106 14.5183 2.00579 14.2642 2.00579 13.9992C2.00579 13.7342 2.11106 13.48 2.29844 13.2927C2.48583 13.1053 2.73997 13 3.00497 13Z" fill="#97A3BA"/>
<path d="M15 18.9961V16.4161L18.29 19.7061C18.4783 19.8944 18.7337 20.0002 19 20.0002C19.2663 20.0002 19.5217 19.8944 19.71 19.7061C19.8983 19.5178 20.0041 19.2624 20.0041 18.9961C20.0041 18.7298 19.8983 18.4744 19.71 18.2861L16.43 14.9961H19C19.2652 14.9961 19.5196 14.8907 19.7071 14.7032C19.8946 14.5157 20 14.2613 20 13.9961C20 13.7309 19.8946 13.4765 19.7071 13.289C19.5196 13.1015 19.2652 12.9961 19 12.9961H14C13.7348 12.9961 13.4804 13.1015 13.2929 13.289C13.1054 13.4765 13 13.7309 13 13.9961V18.9961C13 19.2613 13.1054 19.5157 13.2929 19.7032C13.4804 19.8907 13.7348 19.9961 14 19.9961C14.2652 19.9961 14.5196 19.8907 14.7071 19.7032C14.8946 19.5157 15 19.2613 15 18.9961Z" fill="#97A3BA"/>
<path d="M9 3.00106L9 7.99692C9 8.26192 8.89473 8.51606 8.70735 8.70344C8.51997 8.89082 8.26582 8.99609 8.00083 8.99609L3.00497 8.99609C2.73997 8.99609 2.48582 8.89082 2.29844 8.70344C2.11106 8.51606 2.00579 8.26192 2.00579 7.99692C2.00579 7.73192 2.11106 7.47778 2.29844 7.2904C2.48582 7.10302 2.73997 6.99775 3.00497 6.99775L5.58283 6.99775L2.29555 3.71047C2.2019 3.61759 2.12757 3.50708 2.07684 3.38532C2.02612 3.26356 2 3.13296 2 3.00106C2 2.86916 2.02612 2.73856 2.07684 2.6168C2.12757 2.49504 2.2019 2.38453 2.29555 2.29165C2.38844 2.198 2.49895 2.12366 2.62071 2.07294C2.74247 2.02221 2.87306 1.99609 3.00497 1.99609C3.13687 1.99609 3.26747 2.02221 3.38922 2.07294C3.51098 2.12366 3.62149 2.198 3.71438 2.29165L7.00166 5.56893V3.00106C7.00166 2.73606 7.10693 2.48192 7.29431 2.29454C7.48169 2.10716 7.73583 2.00189 8.00083 2.00189C8.26582 2.00189 8.51997 2.10716 8.70735 2.29454C8.89473 2.48192 9 2.73606 9 3.00106Z" fill="#97A3BA"/>
</svg>
