<svg width="16" height="16" viewBox="0 0 16 16" fill="none" xmlns="http://www.w3.org/2000/svg">
<path fill-rule="evenodd" clip-rule="evenodd" d="M4.35355 2.64645L8 6.29289L11.6464 2.64645C11.8417 2.45118 12.1583 2.45118 12.3536 2.64645C12.5488 2.84171 12.5488 3.15829 12.3536 3.35355L8.35355 7.35355C8.15829 7.54882 7.84171 7.54882 7.64645 7.35355L3.64645 3.35355C3.45118 3.15829 3.45118 2.84171 3.64645 2.64645C3.84171 2.45118 4.15829 2.45118 4.35355 2.64645Z" fill="#777B92"/>
<path fill-rule="evenodd" clip-rule="evenodd" d="M4.35355 8.64645L8 12.2929L11.6464 8.64645C11.8417 8.45118 12.1583 8.45118 12.3536 8.64645C12.5488 8.84171 12.5488 9.15829 12.3536 9.35355L8.35355 13.3536C8.15829 13.5488 7.84171 13.5488 7.64645 13.3536L3.64645 9.35355C3.45118 9.15829 3.45118 8.84171 3.64645 8.64645C3.84171 8.45118 4.15829 8.45118 4.35355 8.64645Z" fill="#777B92"/>
</svg>
