<svg width="16" height="16" viewBox="0 0 16 16" fill="none" xmlns="http://www.w3.org/2000/svg">
<path fill-rule="evenodd" clip-rule="evenodd" d="M12.3536 2.35355L8.35355 6.35355C8.15829 6.54882 7.84171 6.54882 7.64645 6.35355L3.64645 2.35355C3.45118 2.15829 3.45118 1.84171 3.64645 1.64645C3.84171 1.45118 4.15829 1.45118 4.35355 1.64645L8 5.29289L11.6464 1.64645C11.8417 1.45118 12.1583 1.45118 12.3536 1.64645C12.5488 1.84171 12.5488 2.15829 12.3536 2.35355Z" fill="#777B92"/>
<path fill-rule="evenodd" clip-rule="evenodd" d="M12.3536 13.6464C12.5488 13.8417 12.5488 14.1583 12.3536 14.3536C12.1583 14.5488 11.8417 14.5488 11.6464 14.3536L8 10.7071L4.35355 14.3536C4.15829 14.5488 3.84171 14.5488 3.64645 14.3536C3.45118 14.1583 3.45118 13.8417 3.64645 13.6464L7.64645 9.64645C7.84171 9.45118 8.15829 9.45118 8.35355 9.64645L12.3536 13.6464Z" fill="#777B92"/>
</svg>
