<svg width="16" height="16" viewBox="0 0 16 16" fill="none" xmlns="http://www.w3.org/2000/svg">
<path fill-rule="evenodd" clip-rule="evenodd" d="M8 1C8.27614 1 8.5 1.22386 8.5 1.5V3C8.5 3.27614 8.27614 3.5 8 3.5C7.72386 3.5 7.5 3.27614 7.5 3V1.5C7.5 1.22386 7.72386 1 8 1Z" fill="#777B92"/>
<path fill-rule="evenodd" clip-rule="evenodd" d="M4.5 8C4.5 6.067 6.067 4.5 8 4.5C9.933 4.5 11.5 6.067 11.5 8V12C11.5 12.2761 11.2761 12.5 11 12.5H5C4.72386 12.5 4.5 12.2761 4.5 12V8ZM8 5.5C6.61929 5.5 5.5 6.61929 5.5 8V11.5H10.5V8C10.5 6.61929 9.38071 5.5 8 5.5Z" fill="#777B92"/>
<path fill-rule="evenodd" clip-rule="evenodd" d="M1.5 7.5H3C3.27614 7.5 3.5 7.72386 3.5 8C3.5 8.27614 3.27614 8.5 3 8.5H1.5C1.22386 8.5 1 8.27614 1 8C1 7.72386 1.22386 7.5 1.5 7.5Z" fill="#777B92"/>
<path fill-rule="evenodd" clip-rule="evenodd" d="M12.5 8C12.5 7.72386 12.7239 7.5 13 7.5H14.5C14.7761 7.5 15 7.72386 15 8C15 8.27614 14.7761 8.5 14.5 8.5H13C12.7239 8.5 12.5 8.27614 12.5 8Z" fill="#777B92"/>
<path fill-rule="evenodd" clip-rule="evenodd" d="M5 14.5H11C11.2761 14.5 11.5 14.7239 11.5 15C11.5 15.2761 11.2761 15.5 11 15.5H5C4.72386 15.5 4.5 15.2761 4.5 15C4.5 14.7239 4.72386 14.5 5 14.5Z" fill="#777B92"/>
<path fill-rule="evenodd" clip-rule="evenodd" d="M12.8536 3.14645C13.0488 3.34171 13.0488 3.65829 12.8536 3.85355L11.8536 4.85355C11.6583 5.04882 11.3417 5.04882 11.1464 4.85355C10.9512 4.65829 10.9512 4.34171 11.1464 4.14645L12.1464 3.14645C12.3417 2.95118 12.6583 2.95118 12.8536 3.14645Z" fill="#777B92"/>
<path fill-rule="evenodd" clip-rule="evenodd" d="M3.85355 3.14645L4.85355 4.14645C5.04882 4.34171 5.04882 4.65829 4.85355 4.85355C4.65829 5.04882 4.34171 5.04882 4.14645 4.85355L3.14645 3.85355C2.95118 3.65829 2.95118 3.34171 3.14645 3.14645C3.34171 2.95118 3.65829 2.95118 3.85355 3.14645Z" fill="#777B92"/>
</svg>
