<svg width="16" height="16" viewBox="0 0 16 16" fill="none" xmlns="http://www.w3.org/2000/svg">
<path fill-rule="evenodd" clip-rule="evenodd" d="M8.00011 0.5C8.27625 0.5 8.50011 0.723858 8.50011 1V7.19098L9.7765 6.55279C10.0235 6.42929 10.3238 6.5294 10.4473 6.77639C10.5708 7.02338 10.4707 7.32372 10.2237 7.44721L8.22372 8.44721C8.08295 8.5176 7.91727 8.5176 7.7765 8.44721L5.7765 7.44721C5.52951 7.32372 5.4294 7.02338 5.5529 6.77639C5.67639 6.5294 5.97673 6.42929 6.22372 6.55279L7.50011 7.19098V1C7.50011 0.723858 7.72397 0.5 8.00011 0.5Z" fill="#777B92"/>
<path fill-rule="evenodd" clip-rule="evenodd" d="M4.44721 6.77638C4.57071 7.02337 4.4706 7.32371 4.22361 7.4472L3.03828 8.03986L7.25725 10.5712C7.40785 10.6616 7.5 10.8244 7.5 11V15C7.5 15.1801 7.4031 15.3463 7.24635 15.4351C7.08959 15.5238 6.89722 15.5214 6.74275 15.4287L1.74275 12.4287C1.59215 12.3384 1.5 12.1756 1.5 12V7.99999C1.5 7.8106 1.607 7.63747 1.77639 7.55277L3.77639 6.55277C4.02338 6.42928 4.32372 6.52939 4.44721 6.77638ZM2.5 8.88308V11.7169L6.5 14.1169V11.2831L2.5 8.88308Z" fill="#777B92"/>
<path fill-rule="evenodd" clip-rule="evenodd" d="M12.2236 6.55277L14.2236 7.55277C14.393 7.63747 14.5 7.8106 14.5 7.99999V12C14.5 12.1756 14.4078 12.3384 14.2572 12.4287L9.25725 15.4287C9.10278 15.5214 8.91041 15.5238 8.75365 15.4351C8.5969 15.3463 8.5 15.1801 8.5 15V11C8.5 10.8244 8.59215 10.6616 8.74275 10.5712L12.9617 8.03986L11.7764 7.4472C11.5294 7.32371 11.4293 7.02337 11.5528 6.77638C11.6763 6.52939 11.9766 6.42928 12.2236 6.55277ZM9.5 11.2831V14.1169L13.5 11.7169V8.88308L9.5 11.2831Z" fill="#777B92"/>
</svg>
