<svg width="16" height="16" viewBox="0 0 16 16" fill="none" xmlns="http://www.w3.org/2000/svg">
<path fill-rule="evenodd" clip-rule="evenodd" d="M8 12C7.72386 12 7.5 11.7761 7.5 11.5C7.5 11.2239 7.72386 11 8 11C8.27614 11 8.5 11.2239 8.5 11.5C8.5 11.7761 8.27614 12 8 12Z" fill="#777B92"/>
<path fill-rule="evenodd" clip-rule="evenodd" d="M8 4.5C7.17157 4.5 6.5 5.17157 6.5 6C6.5 6.27614 6.27614 6.5 6 6.5C5.72386 6.5 5.5 6.27614 5.5 6C5.5 4.61929 6.61929 3.5 8 3.5C9.38071 3.5 10.5 4.61929 10.5 6C10.5 6.94704 9.97322 7.77033 9.19906 8.19411C8.99085 8.30809 8.80533 8.44639 8.67735 8.59561C8.55156 8.74228 8.5 8.87597 8.5 9V9.5C8.5 9.77614 8.27614 10 8 10C7.72386 10 7.5 9.77614 7.5 9.5V9C7.5 8.57174 7.6857 8.2158 7.91828 7.9446C8.14868 7.67595 8.44264 7.46816 8.71888 7.31694C9.18543 7.06154 9.5 6.56715 9.5 6C9.5 5.17157 8.82843 4.5 8 4.5Z" fill="#777B92"/>
<path fill-rule="evenodd" clip-rule="evenodd" d="M2 0.5H14C14.8284 0.5 15.5 1.17157 15.5 2V14C15.5 14.8284 14.8284 15.5 14 15.5H2C1.17157 15.5 0.5 14.8284 0.5 14V2C0.5 1.17157 1.17157 0.5 2 0.5ZM1.5 2V14C1.5 14.2761 1.72386 14.5 2 14.5H14C14.2761 14.5 14.5 14.2761 14.5 14V2C14.5 1.72386 14.2761 1.5 14 1.5H2C1.72386 1.5 1.5 1.72386 1.5 2Z" fill="#777B92"/>
</svg>
