<svg width="16" height="16" viewBox="0 0 16 16" fill="none" xmlns="http://www.w3.org/2000/svg">
<path fill-rule="evenodd" clip-rule="evenodd" d="M8 0.5C12.1421 0.5 15.5 3.85786 15.5 8C15.5 12.1421 12.1421 15.5 8 15.5C3.85786 15.5 0.5 12.1421 0.5 8C0.5 3.85786 3.85786 0.5 8 0.5ZM8.5 4.5C8.5 4.22386 8.27614 4 8 4C7.72386 4 7.5 4.22386 7.5 4.5V9.5C7.5 9.77614 7.72386 10 8 10C8.27614 10 8.5 9.77614 8.5 9.5V4.5ZM8 12C8.27614 12 8.5 11.7761 8.5 11.5C8.5 11.2239 8.27614 11 8 11C7.72386 11 7.5 11.2239 7.5 11.5C7.5 11.7761 7.72386 12 8 12Z" fill="#777B92"/>
</svg>
