<svg width="16" height="16" viewBox="0 0 16 16" fill="none" xmlns="http://www.w3.org/2000/svg">
<path fill-rule="evenodd" clip-rule="evenodd" d="M8 5C8.27614 5 8.5 5.22386 8.5 5.5V10.5C8.5 10.7761 8.27614 11 8 11C7.72386 11 7.5 10.7761 7.5 10.5V5.5C7.5 5.22386 7.72386 5 8 5Z" fill="#777B92"/>
<path fill-rule="evenodd" clip-rule="evenodd" d="M8.5 12.5C8.5 12.7761 8.27614 13 8 13C7.72386 13 7.5 12.7761 7.5 12.5C7.5 12.2239 7.72386 12 8 12C8.27614 12 8.5 12.2239 8.5 12.5Z" fill="#777B92"/>
<path fill-rule="evenodd" clip-rule="evenodd" d="M8.44721 0.776393L15.4472 14.7764C15.5247 14.9314 15.5164 15.1155 15.4253 15.2629C15.3342 15.4103 15.1733 15.5 15 15.5H1C0.826712 15.5 0.665778 15.4103 0.574675 15.2629C0.483572 15.1155 0.47529 14.9314 0.552787 14.7764L7.55279 0.776393C7.63748 0.607001 7.81061 0.5 8 0.5C8.18939 0.5 8.36252 0.607001 8.44721 0.776393ZM8 2.11803L1.80902 14.5H14.191L8 2.11803Z" fill="#777B92"/>
</svg>
