<svg width="16" height="16" viewBox="0 0 16 16" fill="none" xmlns="http://www.w3.org/2000/svg">
<path fill-rule="evenodd" clip-rule="evenodd" d="M3.5 4C3.5 2.067 5.067 0.5 7 0.5C8.933 0.5 10.5 2.067 10.5 4C10.5 5.933 8.933 7.5 7 7.5C5.067 7.5 3.5 5.933 3.5 4ZM7 1.5C5.61929 1.5 4.5 2.61929 4.5 4C4.5 5.38071 5.61929 6.5 7 6.5C8.38071 6.5 9.5 5.38071 9.5 4C9.5 2.61929 8.38071 1.5 7 1.5Z" fill="#777B92"/>
<path fill-rule="evenodd" clip-rule="evenodd" d="M14 0.5C14.8284 0.5 15.5 1.17157 15.5 2C15.5 2.82843 14.8284 3.5 14 3.5C13.7684 3.5 13.5491 3.44752 13.3533 3.35381L13.2071 3.5L13.3536 3.64645C13.5488 3.84171 13.5488 4.15829 13.3536 4.35355C13.1583 4.54882 12.8417 4.54882 12.6464 4.35355L12.5 4.20711L12.3536 4.35355C12.1583 4.54882 11.8417 4.54882 11.6464 4.35355C11.4512 4.15829 11.4512 3.84171 11.6464 3.64645L12.6462 2.64671C12.5525 2.45089 12.5 2.23157 12.5 2C12.5 1.17157 13.1716 0.5 14 0.5ZM13.5 2C13.5 2.27614 13.7239 2.5 14 2.5C14.2761 2.5 14.5 2.27614 14.5 2C14.5 1.72386 14.2761 1.5 14 1.5C13.7239 1.5 13.5 1.72386 13.5 2Z" fill="#777B92"/>
<path fill-rule="evenodd" clip-rule="evenodd" d="M1.5 15C1.5 15.2761 1.27614 15.5 1 15.5C0.723858 15.5 0.5 15.2761 0.5 15C0.5 11.4101 3.41015 8.5 7 8.5C10.5899 8.5 13.5 11.4101 13.5 15C13.5 15.2761 13.2761 15.5 13 15.5C12.7239 15.5 12.5 15.2761 12.5 15C12.5 11.9624 10.0376 9.5 7 9.5C3.96243 9.5 1.5 11.9624 1.5 15Z" fill="#777B92"/>
</svg>
