<svg width="16" height="16" viewBox="0 0 16 16" fill="none" xmlns="http://www.w3.org/2000/svg">
<path fill-rule="evenodd" clip-rule="evenodd" d="M3 2.5C3 1.39543 3.89543 0.5 5 0.5C6.10457 0.5 7 1.39543 7 2.5C7 3.60457 6.10457 4.5 5 4.5C3.89543 4.5 3 3.60457 3 2.5ZM5 1.5C4.44772 1.5 4 1.94772 4 2.5C4 3.05228 4.44772 3.5 5 3.5C5.55228 3.5 6 3.05228 6 2.5C6 1.94772 5.55228 1.5 5 1.5Z" fill="#777B92"/>
<path fill-rule="evenodd" clip-rule="evenodd" d="M13.3536 8.64645L14.3536 9.64645C14.5488 9.84171 14.5488 10.1583 14.3536 10.3536L13.3536 11.3536C13.1583 11.5488 12.8417 11.5488 12.6464 11.3536C12.4512 11.1583 12.4512 10.8417 12.6464 10.6464L12.7929 10.5H9C8.72386 10.5 8.5 10.2761 8.5 10C8.5 9.72386 8.72386 9.5 9 9.5H12.7929L12.6464 9.35355C12.4512 9.15829 12.4512 8.84171 12.6464 8.64645C12.8417 8.45118 13.1583 8.45118 13.3536 8.64645Z" fill="#777B92"/>
<path fill-rule="evenodd" clip-rule="evenodd" d="M8.35355 12.3536L8.20711 12.5H12C12.2761 12.5 12.5 12.7239 12.5 13C12.5 13.2761 12.2761 13.5 12 13.5H8.20711L8.35355 13.6464C8.54882 13.8417 8.54882 14.1583 8.35355 14.3536C8.15829 14.5488 7.84171 14.5488 7.64645 14.3536L6.64645 13.3536C6.45118 13.1583 6.45118 12.8417 6.64645 12.6464L7.64645 11.6464C7.84171 11.4512 8.15829 11.4512 8.35355 11.6464C8.54882 11.8417 8.54882 12.1583 8.35355 12.3536Z" fill="#777B92"/>
<path fill-rule="evenodd" clip-rule="evenodd" d="M3 5.5H7C7.82843 5.5 8.5 6.17157 8.5 7V8.25C8.5 8.52614 8.27614 8.75 8 8.75C7.72386 8.75 7.5 8.52614 7.5 8.25V7C7.5 6.72386 7.27614 6.5 7 6.5H3C2.72386 6.5 2.5 6.72386 2.5 7V9.25C2.5 9.38807 2.61193 9.5 2.75 9.5C3.44036 9.5 4 10.0596 4 10.75V14C4 14.2761 4.22386 14.5 4.5 14.5H5C5.27614 14.5 5.5 14.7239 5.5 15C5.5 15.2761 5.27614 15.5 5 15.5H4.5C3.67157 15.5 3 14.8284 3 14V10.75C3 10.6119 2.88807 10.5 2.75 10.5C2.05964 10.5 1.5 9.94036 1.5 9.25V7C1.5 6.17157 2.17157 5.5 3 5.5Z" fill="#777B92"/>
</svg>
