<svg width="16" height="16" viewBox="0 0 16 16" fill="none" xmlns="http://www.w3.org/2000/svg">
<g clip-path="url(#clip0_13649_20857)">
<path fill-rule="evenodd" clip-rule="evenodd" d="M8.00026 0.5C9.93325 0.5 11.5003 2.067 11.5003 4C11.5003 5.933 9.93325 7.5 8.00026 7.5C6.06726 7.5 4.50026 5.933 4.50026 4C4.50026 2.067 6.06726 0.5 8.00026 0.5ZM5.50026 4C5.50026 5.38071 6.61954 6.5 8.00026 6.5C9.38097 6.5 10.5003 5.38071 10.5003 4C10.5003 2.61929 9.38097 1.5 8.00026 1.5C6.61954 1.5 5.50026 2.61929 5.50026 4Z" fill="#777B92"/>
<path fill-rule="evenodd" clip-rule="evenodd" d="M2.50026 15C2.50026 15.2761 2.2764 15.5 2.00026 15.5C1.72411 15.5 1.50026 15.2761 1.50026 15C1.50026 13.2793 2.16885 11.7148 3.26041 10.5521C3.01208 10.5178 2.75829 10.5 2.50014 10.5C1.85641 10.5 1.23955 10.6104 0.666759 10.8128C0.406401 10.9049 0.12074 10.7684 0.0287162 10.508C-0.063307 10.2477 0.0731555 9.96202 0.333513 9.86999C1.01184 9.63024 1.74132 9.5 2.50014 9.5C3.06048 9.5 3.60496 9.57102 4.12477 9.70481C4.14947 9.71116 4.17326 9.71926 4.19605 9.72893C5.26553 8.95572 6.57968 8.5 8.00026 8.5C9.42084 8.5 10.735 8.95572 11.8045 9.72893C11.8273 9.71926 11.851 9.71116 11.8757 9.70481C12.3956 9.57102 12.94 9.5 13.5004 9.5C14.2592 9.5 14.9887 9.63024 15.667 9.86999C15.9274 9.96202 16.0638 10.2477 15.9718 10.508C15.8798 10.7684 15.5941 10.9049 15.3338 10.8128C14.761 10.6104 14.1441 10.5 13.5004 10.5C13.2422 10.5 12.9884 10.5178 12.7401 10.5521C13.8317 11.7148 14.5003 13.2793 14.5003 15C14.5003 15.2761 14.2764 15.5 14.0003 15.5C13.7241 15.5 13.5003 15.2761 13.5003 15C13.5003 11.9624 11.0378 9.5 8.00026 9.5C4.96269 9.5 2.50026 11.9624 2.50026 15Z" fill="#777B92"/>
<path fill-rule="evenodd" clip-rule="evenodd" d="M0.500257 6.5C0.500257 5.39543 1.39569 4.5 2.50026 4.5C3.60483 4.5 4.50026 5.39543 4.50026 6.5C4.50026 7.60457 3.60483 8.5 2.50026 8.5C1.39569 8.5 0.500257 7.60457 0.500257 6.5ZM2.50026 5.5C1.94797 5.5 1.50026 5.94772 1.50026 6.5C1.50026 7.05228 1.94797 7.5 2.50026 7.5C3.05254 7.5 3.50026 7.05228 3.50026 6.5C3.50026 5.94772 3.05254 5.5 2.50026 5.5Z" fill="#777B92"/>
<path fill-rule="evenodd" clip-rule="evenodd" d="M13.5003 4.5C14.6048 4.5 15.5003 5.39543 15.5003 6.5C15.5003 7.60457 14.6048 8.5 13.5003 8.5C12.3957 8.5 11.5003 7.60457 11.5003 6.5C11.5003 5.39543 12.3957 4.5 13.5003 4.5ZM12.5003 6.5C12.5003 7.05228 12.948 7.5 13.5003 7.5C14.0525 7.5 14.5003 7.05228 14.5003 6.5C14.5003 5.94772 14.0525 5.5 13.5003 5.5C12.948 5.5 12.5003 5.94772 12.5003 6.5Z" fill="#777B92"/>
</g>
<defs>
<clipPath id="clip0_13649_20857">
<rect width="16" height="16" fill="white"/>
</clipPath>
</defs>
</svg>
