<svg width="16" height="16" viewBox="0 0 16 16" fill="none" xmlns="http://www.w3.org/2000/svg">
<path fill-rule="evenodd" clip-rule="evenodd" d="M3.5 4C3.5 2.067 5.067 0.5 7 0.5C8.933 0.5 10.5 2.067 10.5 4C10.5 5.933 8.933 7.5 7 7.5C5.067 7.5 3.5 5.933 3.5 4ZM7 1.5C5.61929 1.5 4.5 2.61929 4.5 4C4.5 5.38071 5.61929 6.5 7 6.5C8.38071 6.5 9.5 5.38071 9.5 4C9.5 2.61929 8.38071 1.5 7 1.5Z" fill="#777B92"/>
<path fill-rule="evenodd" clip-rule="evenodd" d="M7 9.5C3.96243 9.5 1.5 11.9624 1.5 15C1.5 15.2761 1.27614 15.5 1 15.5C0.723858 15.5 0.5 15.2761 0.5 15C0.5 11.4101 3.41015 8.5 7 8.5C10.5899 8.5 13.5 11.4101 13.5 15C13.5 15.2761 13.2761 15.5 13 15.5C12.7239 15.5 12.5 15.2761 12.5 15C12.5 11.9624 10.0376 9.5 7 9.5Z" fill="#777B92"/>
<path fill-rule="evenodd" clip-rule="evenodd" d="M13.6463 4.35337L13.6443 4.35142L13.6408 4.34781L13.6295 4.33624C13.6202 4.32661 13.6073 4.3132 13.5915 4.29624C13.5599 4.26235 13.5161 4.21412 13.4641 4.15352C13.3607 4.03285 13.2227 3.86043 13.084 3.65235C12.8174 3.25245 12.5 2.65029 12.5 2C12.5 1.17157 13.1716 0.5 14 0.5C14.8284 0.5 15.5 1.17157 15.5 2C15.5 2.65029 15.1826 3.25245 14.916 3.65235C14.7773 3.86043 14.6393 4.03285 14.5359 4.15352C14.4839 4.21412 14.4401 4.26235 14.4085 4.29624C14.3927 4.3132 14.3798 4.32661 14.3705 4.33624L14.3592 4.34781L14.3557 4.35142L14.3544 4.35268L14.3536 4.35355C14.3535 4.35365 14.3536 4.35355 14 4L14.3536 4.35355C14.1583 4.54882 13.8415 4.54863 13.6463 4.35337L14 4C13.6464 4.35355 13.6464 4.35346 13.6463 4.35337ZM13.5 2C13.5 2.34971 13.6826 2.74755 13.916 3.09765C13.9441 3.1398 13.9723 3.18023 14 3.21872C14.0277 3.18023 14.0559 3.1398 14.084 3.09765C14.3174 2.74755 14.5 2.34971 14.5 2C14.5 1.72386 14.2761 1.5 14 1.5C13.7239 1.5 13.5 1.72386 13.5 2Z" fill="#777B92"/>
</svg>
