<svg width="16" height="16" viewBox="0 0 16 16" fill="none" xmlns="http://www.w3.org/2000/svg">
<path fill-rule="evenodd" clip-rule="evenodd" d="M14.3535 1.14645C14.5487 1.34171 14.5487 1.65829 14.3535 1.85355L14.1591 2.04788C14.2688 2.18127 14.3559 2.33393 14.4146 2.50001H14.5C14.7761 2.50001 15 2.72387 15 3.00001C15 3.27616 14.7761 3.50001 14.5 3.50001H14.4146C14.356 3.66607 14.2689 3.8187 14.1592 3.95208L14.3536 4.14647C14.5488 4.34173 14.5488 4.65832 14.3536 4.85358C14.1583 5.04884 13.8417 5.04884 13.6465 4.85358L13.2689 4.47598C13.1816 4.49177 13.0918 4.50001 13 4.50001C12.9082 4.50001 12.8183 4.49176 12.731 4.47597L12.3535 4.85355C12.1582 5.04882 11.8416 5.04882 11.6464 4.85355C11.4511 4.65829 11.4511 4.34171 11.6464 4.14645L11.8408 3.95202C11.7311 3.81866 11.644 3.66605 11.5854 3.50001H11.5C11.2239 3.50001 11 3.27615 11 3.00001C11 2.72387 11.2239 2.50001 11.5 2.50001H11.5854C11.644 2.33398 11.7311 2.18136 11.8408 2.048L11.6464 1.85358C11.4511 1.65832 11.4511 1.34173 11.6464 1.14647C11.8416 0.95121 12.1582 0.95121 12.3535 1.14647L12.731 1.52406C12.8183 1.50826 12.9082 1.50001 13 1.50001C13.0917 1.50001 13.1816 1.50825 13.2688 1.52403L13.6464 1.14645C13.8416 0.951184 14.1582 0.951184 14.3535 1.14645ZM13.5 3.00001C13.5 2.72387 13.2761 2.50001 13 2.50001C12.7239 2.50001 12.5 2.72387 12.5 3.00001C12.5 3.27615 12.7239 3.50001 13 3.50001C13.2761 3.50001 13.5 3.27615 13.5 3.00001Z" fill="#777B92"/>
<path fill-rule="evenodd" clip-rule="evenodd" d="M1.5 6.00001C1.5 4.06702 3.067 2.50001 5 2.50001C6.933 2.50001 8.5 4.06702 8.5 6.00001C8.5 7.93301 6.933 9.50001 5 9.50001C3.067 9.50001 1.5 7.93301 1.5 6.00001ZM5 3.50001C3.61929 3.50001 2.5 4.6193 2.5 6.00001C2.5 7.38072 3.61929 8.50001 5 8.50001C6.38071 8.50001 7.5 7.38072 7.5 6.00001C7.5 4.6193 6.38071 3.50001 5 3.50001Z" fill="#777B92"/>
<path fill-rule="evenodd" clip-rule="evenodd" d="M4.99956 11.5C3.37069 11.5 1.90772 12.2075 0.899916 13.3335C0.715753 13.5392 0.399655 13.5567 0.193892 13.3726C-0.0118717 13.1884 -0.0293821 12.8723 0.154781 12.6666C1.34426 11.3376 3.07443 10.5 4.99956 10.5C6.65923 10.5 8.17321 11.1219 9.32163 12.1451C9.94867 11.7372 10.6976 11.5 11.5006 11.5C13.5162 11.5 15.1828 12.9903 15.4602 14.9292C15.4993 15.2026 15.3094 15.4559 15.036 15.495C14.7626 15.5341 14.5093 15.3442 14.4702 15.0708C14.2623 13.6174 13.0116 12.5 11.5006 12.5C10.966 12.5 10.4648 12.6395 10.0306 12.8842C10.5021 13.4599 10.8767 14.1179 11.1296 14.8334C11.2216 15.0937 11.0851 15.3794 10.8248 15.4714C10.5644 15.5635 10.2788 15.427 10.1867 15.1666C9.43146 13.0298 7.39351 11.5 4.99956 11.5Z" fill="#777B92"/>
<path fill-rule="evenodd" clip-rule="evenodd" d="M11.5 6.50001C12.6046 6.50001 13.5 7.39544 13.5 8.50001C13.5 9.60458 12.6046 10.5 11.5 10.5C10.3954 10.5 9.5 9.60458 9.5 8.50001C9.5 7.39544 10.3954 6.50001 11.5 6.50001ZM10.5 8.50001C10.5 9.0523 10.9477 9.50001 11.5 9.50001C12.0523 9.50001 12.5 9.0523 12.5 8.50001C12.5 7.94773 12.0523 7.50001 11.5 7.50001C10.9477 7.50001 10.5 7.94773 10.5 8.50001Z" fill="#777B92"/>
</svg>
