<svg width="16" height="16" viewBox="0 0 16 16" fill="none" xmlns="http://www.w3.org/2000/svg">
<path fill-rule="evenodd" clip-rule="evenodd" d="M8.22279 1.67083C8.08203 1.60045 7.91634 1.60045 7.77558 1.67083L2.77558 4.17083C2.60139 4.25792 2.50579 4.42698 2.51423 4.59279C2.77603 9.73576 6.39422 13.1064 7.77868 14.211C7.91184 14.3172 8.08653 14.3172 8.21969 14.211C9.60415 13.1064 13.2223 9.73576 13.4841 4.59279C13.4926 4.42698 13.397 4.25792 13.2228 4.17083L8.22279 1.67083ZM7.32837 0.776401C7.75066 0.565255 8.24772 0.565256 8.67001 0.776401L13.67 3.2764C14.1734 3.52809 14.5129 4.05288 14.4829 4.64363C14.1985 10.2303 10.2883 13.8399 8.84335 14.9927C8.34536 15.39 7.65301 15.39 7.15502 14.9927C5.7101 13.8399 1.79991 10.2303 1.51552 4.64363C1.48545 4.05288 1.82499 3.52809 2.32837 3.2764L7.32837 0.776401Z" fill="#777B92"/>
</svg>
