<svg width="16" height="16" viewBox="0 0 16 16" fill="none" xmlns="http://www.w3.org/2000/svg">
<path fill-rule="evenodd" clip-rule="evenodd" d="M3.5 6.5C3.5 5.39543 4.39543 4.5 5.5 4.5C6.60457 4.5 7.5 5.39543 7.5 6.5C7.5 7.60457 6.60457 8.5 5.5 8.5C4.39543 8.5 3.5 7.60457 3.5 6.5ZM5.5 5.5C4.94772 5.5 4.5 5.94772 4.5 6.5C4.5 7.05228 4.94772 7.5 5.5 7.5C6.05228 7.5 6.5 7.05228 6.5 6.5C6.5 5.94772 6.05228 5.5 5.5 5.5Z" fill="#777B92"/>
<path fill-rule="evenodd" clip-rule="evenodd" d="M9.5 6C9.5 5.72386 9.72386 5.5 10 5.5L13 5.5C13.2761 5.5 13.5 5.72386 13.5 6C13.5 6.27614 13.2761 6.5 13 6.5L10 6.5C9.72386 6.5 9.5 6.27614 9.5 6Z" fill="#777B92"/>
<path fill-rule="evenodd" clip-rule="evenodd" d="M11 8.5H13C13.2761 8.5 13.5 8.72386 13.5 9C13.5 9.27614 13.2761 9.5 13 9.5H11C10.7239 9.5 10.5 9.27614 10.5 9C10.5 8.72386 10.7239 8.5 11 8.5Z" fill="#777B92"/>
<path fill-rule="evenodd" clip-rule="evenodd" d="M0.5 4C0.5 3.17157 1.17157 2.5 2 2.5H14C14.8284 2.5 15.5 3.17157 15.5 4V12C15.5 12.8284 14.8284 13.5 14 13.5H2C1.17157 13.5 0.5 12.8284 0.5 12V4ZM8.32921 12.5C7.91745 11.3349 6.80579 10.5 5.49978 10.5C4.19376 10.5 3.0821 11.3349 2.67034 12.5H8.32921ZM9.37364 12.5H14C14.2761 12.5 14.5 12.2761 14.5 12V4C14.5 3.72386 14.2761 3.5 14 3.5H2C1.72386 3.5 1.5 3.72386 1.5 4V12C1.5 12.1459 1.56249 12.2772 1.66216 12.3686C2.15036 10.7103 3.68337 9.5 5.49978 9.5C7.36382 9.5 8.92942 10.7747 9.37364 12.5Z" fill="#777B92"/>
</svg>
