<svg width="16" height="16" viewBox="0 0 16 16" fill="none" xmlns="http://www.w3.org/2000/svg">
<path fill-rule="evenodd" clip-rule="evenodd" d="M8.67082 0.776401L13.6708 3.2764C14.1741 3.52806 14.5137 4.05268 14.4837 4.6435C14.3469 7.33158 13.3692 9.56202 12.2371 11.2756C12.0849 11.506 11.7747 11.5694 11.5443 11.4172C11.3139 11.265 11.2505 10.9548 11.4027 10.7244C12.4618 9.12143 13.3593 7.06124 13.485 4.59267C13.4934 4.42693 13.3979 4.25796 13.2236 4.17083L8.22361 1.67083C8.08284 1.60045 7.91716 1.60045 7.77639 1.67083L5.22361 2.94722C4.97662 3.07072 4.67628 2.9706 4.55279 2.72361C4.42929 2.47663 4.5294 2.17629 4.77639 2.05279L7.32918 0.776401C7.75147 0.565256 8.24853 0.565256 8.67082 0.776401Z" fill="#777B92"/>
<path fill-rule="evenodd" clip-rule="evenodd" d="M2.5 4.00001C2.5 9.47701 6.34092 13.0632 7.7795 14.211C7.91181 14.3165 8.08775 14.3169 8.2217 14.21C8.40943 14.0602 8.64118 13.8663 8.90187 13.6298C9.10635 13.4442 9.42257 13.4595 9.60815 13.664C9.79373 13.8685 9.7784 14.1847 9.57392 14.3703C9.29621 14.6223 9.04822 14.8298 8.84546 14.9916C8.34833 15.3884 7.65467 15.3906 7.15584 14.9927C5.65777 13.7975 1.5 9.95303 1.5 4.00001C1.5 3.72387 1.72386 3.50001 2 3.50001C2.27614 3.50001 2.5 3.72387 2.5 4.00001Z" fill="#777B92"/>
<path fill-rule="evenodd" clip-rule="evenodd" d="M2.38412 1.67992L12.3841 13.6799C12.5609 13.8921 12.5322 14.2073 12.3201 14.3841C12.108 14.5609 11.7927 14.5322 11.6159 14.3201L1.6159 2.3201C1.43912 2.10797 1.46778 1.79268 1.67992 1.6159C1.89206 1.43912 2.20734 1.46778 2.38412 1.67992Z" fill="#777B92"/>
</svg>
