<svg width="16" height="16" viewBox="0 0 16 16" fill="none" xmlns="http://www.w3.org/2000/svg">
<path fill-rule="evenodd" clip-rule="evenodd" d="M1.5 6C1.5 4.067 3.067 2.5 5 2.5C6.933 2.5 8.5 4.067 8.5 6C8.5 7.933 6.933 9.5 5 9.5C3.067 9.5 1.5 7.933 1.5 6ZM5 3.5C3.61929 3.5 2.5 4.61929 2.5 6C2.5 7.38071 3.61929 8.5 5 8.5C6.38071 8.5 7.5 7.38071 7.5 6C7.5 4.61929 6.38071 3.5 5 3.5Z" fill="#777B92"/>
<path fill-rule="evenodd" clip-rule="evenodd" d="M4.99956 11.5C3.37069 11.5 1.90772 12.2075 0.899916 13.3335C0.715753 13.5392 0.399655 13.5567 0.193892 13.3726C-0.0118717 13.1884 -0.0293821 12.8723 0.154781 12.6665C1.34426 11.3376 3.07443 10.5 4.99956 10.5C6.65923 10.5 8.17321 11.1219 9.32163 12.1451C9.94867 11.7372 10.6976 11.5 11.5006 11.5C13.5162 11.5 15.1828 12.9903 15.4602 14.9292C15.4993 15.2026 15.3094 15.4559 15.036 15.495C14.7626 15.5341 14.5093 15.3442 14.4702 15.0708C14.2623 13.6174 13.0116 12.5 11.5006 12.5C10.966 12.5 10.4648 12.6395 10.0306 12.8842C10.5021 13.4599 10.8767 14.1179 11.1296 14.8334C11.2216 15.0937 11.0851 15.3794 10.8248 15.4714C10.5644 15.5634 10.2788 15.427 10.1867 15.1666C9.43146 13.0298 7.39351 11.5 4.99956 11.5Z" fill="#777B92"/>
<path fill-rule="evenodd" clip-rule="evenodd" d="M11.5 6.5C12.6046 6.5 13.5 7.39543 13.5 8.5C13.5 9.60457 12.6046 10.5 11.5 10.5C10.3954 10.5 9.5 9.60457 9.5 8.5C9.5 7.39543 10.3954 6.5 11.5 6.5ZM10.5 8.5C10.5 9.05228 10.9477 9.5 11.5 9.5C12.0523 9.5 12.5 9.05228 12.5 8.5C12.5 7.94772 12.0523 7.5 11.5 7.5C10.9477 7.5 10.5 7.94772 10.5 8.5Z" fill="#777B92"/>
<path fill-rule="evenodd" clip-rule="evenodd" d="M11 2.5H15C15.2761 2.5 15.5 2.72386 15.5 3C15.5 3.27614 15.2761 3.5 15 3.5L11 3.5C10.7239 3.5 10.5 3.27614 10.5 3C10.5 2.72386 10.7239 2.5 11 2.5Z" fill="#777B92"/>
</svg>
