<svg width="16" height="16" viewBox="0 0 16 16" fill="none" xmlns="http://www.w3.org/2000/svg">
<path fill-rule="evenodd" clip-rule="evenodd" d="M4.5 4C4.5 2.067 6.067 0.5 8 0.5C9.933 0.5 11.5 2.067 11.5 4C11.5 5.933 9.933 7.5 8 7.5C6.067 7.5 4.5 5.933 4.5 4ZM8 1.5C6.61929 1.5 5.5 2.61929 5.5 4C5.5 5.38071 6.61929 6.5 8 6.5C9.38071 6.5 10.5 5.38071 10.5 4C10.5 2.61929 9.38071 1.5 8 1.5Z" fill="#777B92"/>
<path fill-rule="evenodd" clip-rule="evenodd" d="M10 13H15L12.5 16L10 13Z" fill="#777B92"/>
<path fill-rule="evenodd" clip-rule="evenodd" d="M2.5 15C2.5 15.2761 2.27614 15.5 2 15.5C1.72386 15.5 1.5 15.2761 1.5 15C1.5 11.4101 4.41015 8.5 8 8.5C9.32825 8.5 10.5648 8.89894 11.5946 9.58363C11.8246 9.73653 11.8871 10.0469 11.7342 10.2768C11.5813 10.5068 11.2709 10.5693 11.041 10.4164C10.1701 9.83737 9.12523 9.5 8 9.5C4.96243 9.5 2.5 11.9624 2.5 15Z" fill="#777B92"/>
</svg>
