<svg width="16" height="16" viewBox="0 0 16 16" fill="none" xmlns="http://www.w3.org/2000/svg">
<g clip-path="url(#clip0_13649_20857)">
<path fill-rule="evenodd" clip-rule="evenodd" d="M8.00014 0.5C9.93313 0.5 11.5001 2.067 11.5001 4C11.5001 5.933 9.93313 7.5 8.00014 7.5C6.06714 7.5 4.50014 5.933 4.50014 4C4.50014 2.067 6.06714 0.5 8.00014 0.5ZM5.50014 4C5.50014 5.38071 6.61942 6.5 8.00014 6.5C9.38085 6.5 10.5001 5.38071 10.5001 4C10.5001 2.61929 9.38085 1.5 8.00014 1.5C6.61942 1.5 5.50014 2.61929 5.50014 4Z" fill="#777B92"/>
<path fill-rule="evenodd" clip-rule="evenodd" d="M2.50014 15C2.50014 15.2761 2.27628 15.5 2.00014 15.5C1.72399 15.5 1.50014 15.2761 1.50014 15C1.50014 13.2793 2.16873 11.7148 3.26031 10.552C3.01201 10.5177 2.75826 10.5 2.50014 10.5C1.85641 10.5 1.23955 10.6104 0.666759 10.8128C0.406401 10.9049 0.12074 10.7684 0.0287162 10.508C-0.0633069 10.2477 0.0731553 9.96202 0.333513 9.86999C1.01184 9.63024 1.74132 9.5 2.50014 9.5C3.06048 9.5 3.60496 9.57102 4.12477 9.70481C4.14944 9.71116 4.17321 9.71924 4.19597 9.7289C5.26545 8.9557 6.57958 8.5 8.00014 8.5C9.4207 8.5 10.7348 8.9557 11.8043 9.7289C11.8271 9.71924 11.8508 9.71116 11.8755 9.70481C12.3953 9.57102 12.9398 9.5 13.5001 9.5C14.259 9.5 14.9884 9.63024 15.6668 9.86999C15.9271 9.96202 16.0636 10.2477 15.9716 10.508C15.8795 10.7684 15.5939 10.9049 15.3335 10.8128C14.7607 10.6104 14.1439 10.5 13.5001 10.5C13.242 10.5 12.9883 10.5177 12.74 10.552C13.8315 11.7148 14.5001 13.2793 14.5001 15C14.5001 15.2761 14.2763 15.5 14.0001 15.5C13.724 15.5 13.5001 15.2761 13.5001 15C13.5001 11.9624 11.0377 9.5 8.00014 9.5C4.96257 9.5 2.50014 11.9624 2.50014 15Z" fill="#777B92"/>
<path fill-rule="evenodd" clip-rule="evenodd" d="M0.500136 6.5C0.500136 5.39543 1.39557 4.5 2.50014 4.5C3.60471 4.5 4.50014 5.39543 4.50014 6.5C4.50014 7.60457 3.60471 8.5 2.50014 8.5C1.39557 8.5 0.500136 7.60457 0.500136 6.5ZM2.50014 5.5C1.94785 5.5 1.50014 5.94772 1.50014 6.5C1.50014 7.05228 1.94785 7.5 2.50014 7.5C3.05242 7.5 3.50014 7.05228 3.50014 6.5C3.50014 5.94772 3.05242 5.5 2.50014 5.5Z" fill="#777B92"/>
<path fill-rule="evenodd" clip-rule="evenodd" d="M13.5001 4.5C14.6047 4.5 15.5001 5.39543 15.5001 6.5C15.5001 7.60457 14.6047 8.5 13.5001 8.5C12.3956 8.5 11.5001 7.60457 11.5001 6.5C11.5001 5.39543 12.3956 4.5 13.5001 4.5ZM12.5001 6.5C12.5001 7.05228 12.9479 7.5 13.5001 7.5C14.0524 7.5 14.5001 7.05228 14.5001 6.5C14.5001 5.94772 14.0524 5.5 13.5001 5.5C12.9479 5.5 12.5001 5.94772 12.5001 6.5Z" fill="#777B92"/>
</g>
<defs>
<clipPath id="clip0_13649_20857">
<rect width="16" height="16" fill="white"/>
</clipPath>
</defs>
</svg>
