<svg width="16" height="16" viewBox="0 0 16 16" fill="none" xmlns="http://www.w3.org/2000/svg">
<path fill-rule="evenodd" clip-rule="evenodd" d="M9.41364 1.5H13C13.2761 1.5 13.5 1.72386 13.5 2C13.5 2.27614 13.2761 2.5 13 2.5L11.4994 2.5V4.74957L14.9 7.30003C15.2777 7.58331 15.5 8.02789 15.5 8.50003V10C15.5 10.7527 14.9456 11.376 14.2228 11.4836C14.3989 11.7814 14.5 12.1289 14.5 12.5C14.5 13.6046 13.6046 14.5 12.5 14.5C11.3954 14.5 10.5 13.6046 10.5 12.5C10.5 12.1357 10.5974 11.7942 10.7676 11.5H5.23244C5.40261 11.7942 5.5 12.1357 5.5 12.5C5.5 13.6046 4.60457 14.5 3.5 14.5C2.39543 14.5 1.5 13.6046 1.5 12.5C1.5 12.1357 1.59739 11.7942 1.76757 11.5H1C0.723858 11.5 0.5 11.2761 0.5 11C0.5 10.7239 0.723858 10.5 1 10.5H1.80987L0.766041 7.78605C0.553244 7.23277 0.686238 6.60608 1.1054 6.18692L2.45001 4.8423C2.64225 4.65007 2.88312 4.51369 3.14687 4.44775L6.60944 3.58211C6.69736 3.56013 6.77765 3.51467 6.84173 3.45059L8.35298 1.93934C8.63428 1.65804 9.01581 1.5 9.41364 1.5ZM9.06008 2.64645L7.54883 4.1577C7.3566 4.34993 7.11573 4.48631 6.85198 4.55225L3.3894 5.41789C3.30149 5.43987 3.2212 5.48533 3.15712 5.54941L1.81251 6.89402C1.67279 7.03374 1.62845 7.24264 1.69939 7.42707L2.75801 10.1795C2.83228 10.3726 3.0178 10.5 3.22468 10.5H10.4994V2.5H9.41364C9.28103 2.5 9.15385 2.55268 9.06008 2.64645ZM11.4994 5.99958V10.5H12.4888L12.5 10.5L12.5112 10.5H14C14.2762 10.5 14.5 10.2762 14.5 10V8.50003C14.5 8.34265 14.4259 8.19446 14.3 8.10003L11.4994 5.99958ZM3.5 11.5C2.94772 11.5 2.5 11.9477 2.5 12.5C2.5 13.0523 2.94772 13.5 3.5 13.5C4.05228 13.5 4.5 13.0523 4.5 12.5C4.5 11.9477 4.05228 11.5 3.5 11.5ZM11.5 12.5C11.5 13.0523 11.9477 13.5 12.5 13.5C13.0523 13.5 13.5 13.0523 13.5 12.5C13.5 11.9503 13.0565 11.5043 12.5079 11.5H12.4921C11.9435 11.5043 11.5 11.9503 11.5 12.5Z" fill="#777B92"/>
</svg>
