<svg width="16" height="16" viewBox="0 0 16 16" fill="none" xmlns="http://www.w3.org/2000/svg">
<path fill-rule="evenodd" clip-rule="evenodd" d="M4.5 1.5H7.5C9.43099 1.5 11.0424 2.86828 11.4176 4.68818L14.9 7.30003C15.2777 7.58331 15.5 8.02789 15.5 8.50003V10C15.5 10.7527 14.9456 11.376 14.2228 11.4836C14.3989 11.7814 14.5 12.1289 14.5 12.5C14.5 13.6046 13.6046 14.5 12.5 14.5C11.3954 14.5 10.5 13.6046 10.5 12.5C10.5 12.1357 10.5974 11.7942 10.7676 11.5H5.23244C5.40261 11.7942 5.5 12.1357 5.5 12.5C5.5 13.6046 4.60457 14.5 3.5 14.5C2.39543 14.5 1.5 13.6046 1.5 12.5C1.5 12.1357 1.59739 11.7942 1.76756 11.5H1C0.723858 11.5 0.5 11.2761 0.5 11C0.5 10.7239 0.723858 10.5 1 10.5H1.5L1.5 8.14582C0.877637 7.44069 0.5 6.51445 0.5 5.5C0.5 3.29086 2.29086 1.5 4.5 1.5ZM2.5 10.5H10.5V8.14582C9.76706 8.97624 8.69469 9.5 7.5 9.5H4.5C3.77143 9.5 3.08835 9.30521 2.5 8.96487L2.5 10.5ZM11.5 10.5H12.489L12.5 10.5L12.511 10.5H14C14.2762 10.5 14.5 10.2762 14.5 10V8.50003C14.5 8.34265 14.4259 8.19446 14.3 8.10003L11.5 6V10.5ZM1.5 5.5C1.5 7.15685 2.84315 8.5 4.5 8.5H7.5C9.15685 8.5 10.5 7.15685 10.5 5.5C10.5 3.84315 9.15685 2.5 7.5 2.5H4.5C2.84315 2.5 1.5 3.84315 1.5 5.5ZM2.5 12.5C2.5 13.0523 2.94772 13.5 3.5 13.5C4.05228 13.5 4.5 13.0523 4.5 12.5C4.5 11.9477 4.05228 11.5 3.5 11.5C2.94772 11.5 2.5 11.9477 2.5 12.5ZM12.4922 11.5C11.9435 11.5042 11.5 11.9503 11.5 12.5C11.5 13.0523 11.9477 13.5 12.5 13.5C13.0523 13.5 13.5 13.0523 13.5 12.5C13.5 11.9503 13.0565 11.5042 12.5078 11.5H12.4922Z" fill="#777B92"/>
</svg>
