<svg width="16" height="16" viewBox="0 0 16 16" fill="none" xmlns="http://www.w3.org/2000/svg">
<path fill-rule="evenodd" clip-rule="evenodd" d="M2 0.5H6C6.82843 0.5 7.5 1.17157 7.5 2V4C7.5 4.82843 6.82843 5.5 6 5.5H2C1.17157 5.5 0.5 4.82843 0.5 4V2C0.5 1.17157 1.17157 0.5 2 0.5ZM1.5 2V4C1.5 4.27614 1.72386 4.5 2 4.5H6C6.27614 4.5 6.5 4.27614 6.5 4V2C6.5 1.72386 6.27614 1.5 6 1.5H2C1.72386 1.5 1.5 1.72386 1.5 2Z" fill="#777B92"/>
<path fill-rule="evenodd" clip-rule="evenodd" d="M2 6.5H6C6.82843 6.5 7.5 7.17157 7.5 8V14C7.5 14.8284 6.82843 15.5 6 15.5H2C1.17157 15.5 0.5 14.8284 0.5 14V8C0.5 7.17157 1.17157 6.5 2 6.5ZM1.5 8V14C1.5 14.2761 1.72386 14.5 2 14.5H6C6.27614 14.5 6.5 14.2761 6.5 14V8C6.5 7.72386 6.27614 7.5 6 7.5H2C1.72386 7.5 1.5 7.72386 1.5 8Z" fill="#777B92"/>
<path fill-rule="evenodd" clip-rule="evenodd" d="M8.5 2C8.5 1.17157 9.17157 0.5 10 0.5H14C14.8284 0.5 15.5 1.17157 15.5 2V7C15.5 7.82843 14.8284 8.5 14 8.5H10C9.17157 8.5 8.5 7.82843 8.5 7V2ZM10 1.5C9.72386 1.5 9.5 1.72386 9.5 2V7C9.5 7.27614 9.72386 7.5 10 7.5H14C14.2761 7.5 14.5 7.27614 14.5 7V2C14.5 1.72386 14.2761 1.5 14 1.5H10Z" fill="#777B92"/>
<path fill-rule="evenodd" clip-rule="evenodd" d="M10 9.5H14C14.8284 9.5 15.5 10.1716 15.5 11V14C15.5 14.8284 14.8284 15.5 14 15.5H10C9.17157 15.5 8.5 14.8284 8.5 14V11C8.5 10.1716 9.17157 9.5 10 9.5ZM9.5 11V14C9.5 14.2761 9.72386 14.5 10 14.5H14C14.2761 14.5 14.5 14.2761 14.5 14V11C14.5 10.7239 14.2761 10.5 14 10.5H10C9.72386 10.5 9.5 10.7239 9.5 11Z" fill="#777B92"/>
</svg>
