<svg width="16" height="16" viewBox="0 0 16 16" fill="none" xmlns="http://www.w3.org/2000/svg">
<path fill-rule="evenodd" clip-rule="evenodd" d="M12.1463 2.35315C11.3454 1.55209 10.1689 1.54846 9.36442 2.34236L9.35351 2.35361L3.35351 8.35361L3.34395 8.36292C2.18666 9.53079 2.20564 11.4483 3.37865 12.6213C4.55483 13.7975 6.4794 13.8132 7.6464 12.6462L7.65678 12.6361L13.6464 6.6465C13.8417 6.45124 14.1582 6.45124 14.3535 6.6465C14.5488 6.84176 14.5488 7.15835 14.3535 7.35361L8.35351 13.3536L8.34239 13.3644C6.77475 14.9198 4.22535 14.8823 2.67155 13.3285C1.11411 11.771 1.07967 9.21294 2.6464 7.64621L2.65678 7.63612L8.63445 1.65845L8.64643 1.64606C9.84165 0.450836 11.6583 0.45081 12.8535 1.64608C13.7008 2.49344 13.8749 3.42591 13.6501 4.29154C13.4385 5.10622 12.8872 5.81697 12.3659 6.34074C12.3619 6.34509 12.3577 6.34937 12.3535 6.35361L6.85351 11.8536C6.85184 11.8553 6.85017 11.8569 6.84849 11.8586C6.17206 12.5295 4.9448 12.652 4.1464 11.8536C3.34602 11.0532 3.47104 9.82181 4.1464 9.14645L4.15049 9.14241L9.6464 3.6465C9.84166 3.45124 10.1582 3.45124 10.3535 3.6465C10.5488 3.84176 10.5488 4.15835 10.3535 4.35361L4.85351 9.85361L4.85031 9.85678C4.52856 10.1821 4.48353 10.7765 4.85351 11.1465C5.2247 11.5177 5.82176 11.4711 6.1464 11.1465L6.15053 11.1424L11.6344 5.65852L11.6464 5.64612C12.1215 5.17102 12.5346 4.60822 12.6822 4.04018C12.8181 3.51661 12.7422 2.94907 12.1463 2.35315Z" fill="#777B92"/>
</svg>
