<svg width="16" height="16" viewBox="0 0 16 16" fill="none" xmlns="http://www.w3.org/2000/svg">
<path fill-rule="evenodd" clip-rule="evenodd" d="M1 0.5H15C15.2761 0.5 15.5 0.723858 15.5 1V4C15.5 4.27614 15.2761 4.5 15 4.5H1C0.723858 4.5 0.5 4.27614 0.5 4V1C0.5 0.723858 0.723858 0.5 1 0.5ZM1.5 3.5H14.5V1.5H1.5V3.5Z" fill="#777B92"/>
<path fill-rule="evenodd" clip-rule="evenodd" d="M1 11.5H15C15.2761 11.5 15.5 11.7239 15.5 12V15C15.5 15.2761 15.2761 15.5 15 15.5H1C0.723858 15.5 0.5 15.2761 0.5 15V12C0.5 11.7239 0.723858 11.5 1 11.5ZM1.5 14.5H14.5V12.5H1.5V14.5Z" fill="#777B92"/>
<path fill-rule="evenodd" clip-rule="evenodd" d="M12.9798 6.31319C13.175 6.11793 13.4916 6.11793 13.6869 6.31319L15.0202 7.64653C15.2155 7.84179 15.2155 8.15837 15.0202 8.35363C14.825 8.5489 14.5084 8.5489 14.3131 8.35363L13.8333 7.87385V9.33341C13.8333 9.60956 13.6095 9.83341 13.3333 9.83341C13.0572 9.83341 12.8333 9.60956 12.8333 9.33341V7.87385L12.3536 8.35363C12.1583 8.5489 11.8417 8.5489 11.6464 8.35363C11.4512 8.15837 11.4512 7.84179 11.6464 7.64653L12.9798 6.31319Z" fill="#777B92"/>
<path fill-rule="evenodd" clip-rule="evenodd" d="M2.68689 9.68681C2.49162 9.88207 2.17504 9.88207 1.97978 9.68681L0.646447 8.35347C0.451184 8.15821 0.451184 7.84163 0.646447 7.64637C0.841709 7.4511 1.15829 7.4511 1.35355 7.64637L1.83333 8.12615V6.66659C1.83333 6.39044 2.05719 6.16659 2.33333 6.16659C2.60948 6.16659 2.83333 6.39044 2.83333 6.66659V8.12615L3.31311 7.64637C3.50838 7.4511 3.82496 7.4511 4.02022 7.64637C4.21548 7.84163 4.21548 8.15821 4.02022 8.35347L2.68689 9.68681Z" fill="#777B92"/>
</svg>
