<svg width="16" height="16" viewBox="0 0 16 16" fill="none" xmlns="http://www.w3.org/2000/svg">
<path fill-rule="evenodd" clip-rule="evenodd" d="M11.5 6C11.5 6.008 11.4998 6.016 11.4994 6.02399C11.4967 6.08107 11.4842 6.13777 11.4621 6.19139C11.4377 6.25036 11.4015 6.30561 11.3536 6.35355L6.35355 11.3536C6.15829 11.5488 5.84171 11.5488 5.64645 11.3536L0.646447 6.35355C0.451184 6.15829 0.451184 5.84171 0.646447 5.64645L5.64645 0.646447C5.84171 0.451184 6.15829 0.451184 6.35355 0.646447M9.79289 5.5L6 1.70711L2.20711 5.5H9.79289ZM9.79289 6.5H2.20711L6 10.2929L9.79289 6.5Z" fill="#777B92"/>
<path fill-rule="evenodd" clip-rule="evenodd" d="M11.4621 5.80861C11.4377 5.74964 11.4015 5.69439 11.3536 5.64645L6.35355 0.646447" fill="#777B92"/>
<path d="M11.4621 5.80861C11.4861 5.86669 11.4996 5.9303 11.5 5.997L11.4621 5.80861Z" fill="#777B92"/>
<path fill-rule="evenodd" clip-rule="evenodd" d="M2 14.5H15C15.2761 14.5 15.5 14.7239 15.5 15C15.5 15.2761 15.2761 15.5 15 15.5H2C1.72386 15.5 1.5 15.2761 1.5 15C1.5 14.7239 1.72386 14.5 2 14.5Z" fill="#777B92"/>
<path d="M13.7353 6.55882L13.5 7L13.2647 6.55882C13.4118 6.48039 13.5882 6.48039 13.7353 6.55882Z" fill="#777B92"/>
<path fill-rule="evenodd" clip-rule="evenodd" d="M13.2647 6.55882C13.2649 6.55872 13.2647 6.55882 13.5 7C13.7353 6.55882 13.7351 6.55872 13.7353 6.55882L13.737 6.55974L13.7393 6.56096L13.7454 6.56434L13.7641 6.57478C13.7792 6.58339 13.7997 6.59531 13.8247 6.61056C13.8747 6.64102 13.9432 6.68497 14.0241 6.74252C14.1853 6.8571 14.3996 7.02847 14.6148 7.25803C15.044 7.7159 15.5 8.43218 15.5 9.4C15.5 10.5289 14.6345 11.5 13.5 11.5C12.3655 11.5 11.5 10.5289 11.5 9.4C11.5 8.43218 11.956 7.7159 12.3852 7.25803C12.6004 7.02847 12.8147 6.8571 12.9759 6.74252C13.0568 6.68497 13.1253 6.64102 13.1753 6.61056C13.2003 6.59531 13.2208 6.58339 13.2359 6.57478L13.2546 6.56434L13.2607 6.56096L13.263 6.55974L13.2647 6.55882ZM13.5 7.59788C13.3881 7.68156 13.2511 7.79655 13.1148 7.94197C12.794 8.2841 12.5 8.76782 12.5 9.4C12.5 10.0384 12.9776 10.5 13.5 10.5C14.0224 10.5 14.5 10.0384 14.5 9.4C14.5 8.76782 14.206 8.2841 13.8852 7.94197C13.7489 7.79655 13.6119 7.68156 13.5 7.59788Z" fill="#777B92"/>
</svg>
