<svg width="16" height="16" viewBox="0 0 16 16" fill="none" xmlns="http://www.w3.org/2000/svg">
<path fill-rule="evenodd" clip-rule="evenodd" d="M12.3563 8.35081L12.3536 8.35355L12.3508 8.35627L6.56766 14.1394C6.35826 14.3488 6.09156 14.4916 5.80117 14.5496L1.09807 15.4903C0.934136 15.523 0.764666 15.4717 0.646455 15.3535C0.528243 15.2353 0.476932 15.0658 0.509718 14.9019L1.45034 10.1988C1.50842 9.90842 1.65115 9.64172 1.86055 9.43232L9.93935 1.35352C10.5251 0.767739 11.4749 0.767737 12.0607 1.35352L14.6465 3.93931C15.2322 4.5251 15.2322 5.47484 14.6465 6.06063L12.3563 8.35081ZM11.3536 2.06063C11.1583 1.86537 10.8417 1.86537 10.6465 2.06063L8.7071 3.99999L12 7.29288L13.9393 5.35352C14.1346 5.15826 14.1346 4.84168 13.9393 4.64642L11.3536 2.06063ZM11.2929 7.99999L7.99999 4.7071L2.56766 10.1394C2.49786 10.2092 2.45028 10.2981 2.43092 10.3949L1.63739 14.3626L5.60505 13.5691C5.70185 13.5497 5.79075 13.5021 5.86055 13.4323L11.2929 7.99999Z" fill="#777B92"/>
<path fill-rule="evenodd" clip-rule="evenodd" d="M12.6464 10.6464C12.8417 10.4512 13.1583 10.4512 13.3536 10.6464L15.3536 12.6464C15.4473 12.7402 15.5 12.8674 15.5 13C15.5 13.1326 15.4473 13.2598 15.3536 13.3536L13.3536 15.3536C13.1583 15.5488 12.8417 15.5488 12.6464 15.3536C12.4512 15.1583 12.4512 14.8417 12.6464 14.6464L13.7929 13.5H10C9.72386 13.5 9.5 13.2761 9.5 13C9.5 12.7239 9.72386 12.5 10 12.5H13.7929L12.6464 11.3536C12.4512 11.1583 12.4512 10.8417 12.6464 10.6464Z" fill="#777B92"/>
</svg>
