<svg width="16" height="16" viewBox="0 0 16 16" fill="none" xmlns="http://www.w3.org/2000/svg">
<path fill-rule="evenodd" clip-rule="evenodd" d="M8.35355 6.35355C8.25978 6.44732 8.13261 6.5 8 6.5C7.86739 6.5 7.74021 6.44732 7.64645 6.35355L5.64645 4.35355C5.45118 4.15829 5.45118 3.84171 5.64645 3.64645C5.84171 3.45118 6.15829 3.45118 6.35355 3.64645L7.5 4.79289V1C7.5 0.723857 7.72386 0.5 8 0.5C8.27614 0.5 8.5 0.723857 8.5 1V4.79289L9.64645 3.64645C9.84171 3.45118 10.1583 3.45118 10.3536 3.64645C10.5488 3.84171 10.5488 4.15829 10.3536 4.35355L8.35355 6.35355Z" fill="#777B92"/>
<path fill-rule="evenodd" clip-rule="evenodd" d="M1 9.5H15C15.2761 9.5 15.5 9.72386 15.5 10V15C15.5 15.2761 15.2761 15.5 15 15.5H1C0.723858 15.5 0.5 15.2761 0.5 15V10C0.5 9.72386 0.723858 9.5 1 9.5ZM1.5 14.5H14.5V10.5H1.5V14.5Z" fill="#777B92"/>
</svg>
