<svg width="16" height="16" viewBox="0 0 16 16" fill="none" xmlns="http://www.w3.org/2000/svg">
<path fill-rule="evenodd" clip-rule="evenodd" d="M6 3C5.44772 3 5 2.55228 5 2C5 1.44772 5.44772 1 6 1C6.55228 1 7 1.44772 7 2C7 2.55228 6.55228 3 6 3Z" fill="#777B92"/>
<path fill-rule="evenodd" clip-rule="evenodd" d="M10 3C9.44772 3 9 2.55228 9 2C9 1.44772 9.44772 1 10 1C10.5523 1 11 1.44772 11 2C11 2.55228 10.5523 3 10 3Z" fill="#777B92"/>
<path fill-rule="evenodd" clip-rule="evenodd" d="M7 6C7 6.55228 6.55228 7 6 7C5.44772 7 5 6.55228 5 6C5 5.44772 5.44772 5 6 5C6.55228 5 7 5.44772 7 6Z" fill="#777B92"/>
<path fill-rule="evenodd" clip-rule="evenodd" d="M10 7C9.44772 7 9 6.55228 9 6C9 5.44772 9.44772 5 10 5C10.5523 5 11 5.44772 11 6C11 6.55228 10.5523 7 10 7Z" fill="#777B92"/>
<path fill-rule="evenodd" clip-rule="evenodd" d="M7 10C7 10.5523 6.55228 11 6 11C5.44772 11 5 10.5523 5 10C5 9.44772 5.44772 9 6 9C6.55228 9 7 9.44772 7 10Z" fill="#777B92"/>
<path fill-rule="evenodd" clip-rule="evenodd" d="M10 11C9.44772 11 9 10.5523 9 10C9 9.44772 9.44772 9 10 9C10.5523 9 11 9.44772 11 10C11 10.5523 10.5523 11 10 11Z" fill="#777B92"/>
<path fill-rule="evenodd" clip-rule="evenodd" d="M7 14C7 14.5523 6.55228 15 6 15C5.44772 15 5 14.5523 5 14C5 13.4477 5.44772 13 6 13C6.55228 13 7 13.4477 7 14Z" fill="#777B92"/>
<path fill-rule="evenodd" clip-rule="evenodd" d="M10 15C9.44772 15 9 14.5523 9 14C9 13.4477 9.44772 13 10 13C10.5523 13 11 13.4477 11 14C11 14.5523 10.5523 15 10 15Z" fill="#777B92"/>
</svg>
