<svg width="24" height="24" viewBox="0 0 24 24" fill="none" xmlns="http://www.w3.org/2000/svg">
<path fill-rule="evenodd" clip-rule="evenodd" d="M6 5C6 4.44772 6.44772 4 7 4H17C17.5523 4 18 4.44772 18 5C18 5.55228 17.5523 6 17 6H7C6.44772 6 6 5.55228 6 5Z" fill="#777B92"/>
<path fill-rule="evenodd" clip-rule="evenodd" d="M13 9V16.5858L15.2929 14.2929C15.6834 13.9024 16.3166 13.9024 16.7071 14.2929C17.0976 14.6834 17.0976 15.3166 16.7071 15.7071L12.7071 19.7071C12.3166 20.0976 11.6834 20.0976 11.2929 19.7071L7.29289 15.7071C6.90237 15.3166 6.90237 14.6834 7.29289 14.2929C7.68342 13.9024 8.31658 13.9024 8.70711 14.2929L11 16.5858V9H7C6.44772 9 6 8.55228 6 8C6 7.44772 6.44772 7 7 7H17C17.5523 7 18 7.44772 18 8C18 8.55228 17.5523 9 17 9H13Z" fill="#777B92"/>
</svg>
