<svg width="24" height="24" viewBox="0 0 24 24" fill="none" xmlns="http://www.w3.org/2000/svg">
<path fill-rule="evenodd" clip-rule="evenodd" d="M18.7071 4.29289L20.7071 6.29289C21.0976 6.68342 21.0976 7.31658 20.7071 7.70711L18.7071 9.70711C18.3166 10.0976 17.6834 10.0976 17.2929 9.70711C16.9024 9.31658 16.9024 8.68342 17.2929 8.29289L17.5858 8H16C13.7909 8 12 9.79086 12 12C12 14.2091 13.7909 16 16 16H17.5858L17.2929 15.7071C16.9024 15.3166 16.9024 14.6834 17.2929 14.2929C17.6834 13.9024 18.3166 13.9024 18.7071 14.2929L20.7071 16.2929C21.0976 16.6834 21.0976 17.3166 20.7071 17.7071L18.7071 19.7071C18.3166 20.0976 17.6834 20.0976 17.2929 19.7071C16.9024 19.3166 16.9024 18.6834 17.2929 18.2929L17.5858 18H16C13.913 18 12.0749 16.9345 11 15.3178C9.92508 16.9345 8.08697 18 6 18H3C2.44772 18 2 17.5523 2 17C2 16.4477 2.44772 16 3 16H6C8.20914 16 10 14.2091 10 12C10 9.79086 8.20914 8 6 8H3C2.44772 8 2 7.55228 2 7C2 6.44772 2.44772 6 3 6H6C8.08697 6 9.92508 7.06551 11 8.68221C12.0749 7.06551 13.913 6 16 6H17.5858L17.2929 5.70711C16.9024 5.31658 16.9024 4.68342 17.2929 4.29289C17.6834 3.90237 18.3166 3.90237 18.7071 4.29289Z" fill="#777B92"/>
</svg>
