<svg width="24" height="24" viewBox="0 0 24 24" fill="none" xmlns="http://www.w3.org/2000/svg">
<path fill-rule="evenodd" clip-rule="evenodd" d="M12 2C12.3148 2 12.6112 2.14819 12.8 2.4L18.8 10.4C19.0273 10.703 19.0638 11.1084 18.8944 11.4472C18.725 11.786 18.3788 12 18 12H16V20C16 21.1046 15.1046 22 14 22H10C8.89544 22 8.00001 21.1046 8.00001 20V12H6.00001C5.62123 12 5.27497 11.786 5.10558 11.4472C4.93619 11.1084 4.97274 10.703 5.20001 10.4L11.2 2.4C11.3889 2.14819 11.6852 2 12 2ZM8.00001 10H9.00001C9.55229 10 10 10.4477 10 11V20H14V11C14 10.4477 14.4477 10 15 10H16L12 4.66667L8.00001 10Z" fill="#777B92"/>
</svg>
