<svg width="24" height="24" viewBox="0 0 24 24" fill="none" xmlns="http://www.w3.org/2000/svg">
<path fill-rule="evenodd" clip-rule="evenodd" d="M13 5V14.5858L15.2929 12.2929C15.6834 11.9024 16.3166 11.9024 16.7071 12.2929C17.0976 12.6834 17.0976 13.3166 16.7071 13.7071L12.7071 17.7071C12.512 17.9022 12.2564 17.9998 12.0007 18H17C17.5523 18 18 18.4477 18 19C18 19.5523 17.5523 20 17 20H7C6.44772 20 6 19.5523 6 19C6 18.4477 6.44772 18 7 18H11.9993C11.7436 17.9998 11.488 17.9022 11.2929 17.7071L7.29289 13.7071C6.90237 13.3166 6.90237 12.6834 7.29289 12.2929C7.68342 11.9024 8.31658 11.9024 8.70711 12.2929L11 14.5858V5C11 4.44772 11.4477 4 12 4C12.5523 4 13 4.44772 13 5Z" fill="#777B92"/>
</svg>
