<svg width="16" height="16" viewBox="0 0 16 16" fill="none" xmlns="http://www.w3.org/2000/svg">
<path fill-rule="evenodd" clip-rule="evenodd" d="M0.5 1C0.5 0.723858 0.723858 0.5 1 0.5H4C4.27614 0.5 4.5 0.723858 4.5 1V7C4.5 7.27614 4.27614 7.5 4 7.5H1C0.723858 7.5 0.5 7.27614 0.5 7V1Z" fill="#777B92"/>
<path fill-rule="evenodd" clip-rule="evenodd" d="M5.5 1C5.5 0.723858 5.72386 0.5 6 0.5H10C10.2761 0.5 10.5 0.723858 10.5 1V7C10.5 7.27614 10.2761 7.5 10 7.5H6C5.72386 7.5 5.5 7.27614 5.5 7V1Z" fill="#777B92"/>
<path fill-rule="evenodd" clip-rule="evenodd" d="M12 0.5H15C15.2761 0.5 15.5 0.723858 15.5 1V7C15.5 7.27614 15.2761 7.5 15 7.5H12C11.7239 7.5 11.5 7.27614 11.5 7V1C11.5 0.723858 11.7239 0.5 12 0.5Z" fill="#777B92"/>
<path fill-rule="evenodd" clip-rule="evenodd" d="M12 8.5H15C15.2761 8.5 15.5 8.72386 15.5 9V15C15.5 15.2761 15.2761 15.5 15 15.5H12C11.7239 15.5 11.5 15.2761 11.5 15V9C11.5 8.72386 11.7239 8.5 12 8.5Z" fill="#777B92"/>
<path fill-rule="evenodd" clip-rule="evenodd" d="M6 8.5H10C10.2761 8.5 10.5 8.72386 10.5 9V15C10.5 15.2761 10.2761 15.5 10 15.5H6C5.72386 15.5 5.5 15.2761 5.5 15V9C5.5 8.72386 5.72386 8.5 6 8.5Z" fill="#777B92"/>
<path fill-rule="evenodd" clip-rule="evenodd" d="M1 8.5H4C4.27614 8.5 4.5 8.72386 4.5 9V15C4.5 15.2761 4.27614 15.5 4 15.5H1C0.723858 15.5 0.5 15.2761 0.5 15V9C0.5 8.72386 0.723858 8.5 1 8.5Z" fill="#777B92"/>
</svg>
