<svg width="16" height="16" viewBox="0 0 16 16" fill="none" xmlns="http://www.w3.org/2000/svg">
<path fill-rule="evenodd" clip-rule="evenodd" d="M6 4.5H10C10.1844 4.5 10.3538 4.60149 10.4408 4.76407C10.5278 4.92665 10.5183 5.12392 10.416 5.27735L6.93426 10.5H10C10.2761 10.5 10.5 10.7239 10.5 11C10.5 11.2761 10.2761 11.5 10 11.5H6C5.8156 11.5 5.64617 11.3985 5.55916 11.2359C5.47215 11.0734 5.48169 10.8761 5.58398 10.7227L9.06574 5.5H6C5.72386 5.5 5.5 5.27614 5.5 5C5.5 4.72386 5.72386 4.5 6 4.5Z" fill="#777B92"/>
<path fill-rule="evenodd" clip-rule="evenodd" d="M4.88889 0.5C5.76971 0.5 6.59787 0.739133 7.29437 1.18009C7.69373 1.43293 8.30627 1.43293 8.70563 1.18009C9.40213 0.739133 10.2303 0.5 11.1111 0.5C13.535 0.5 15.5 2.46497 15.5 4.88889C15.5 5.76971 15.2609 6.59787 14.8199 7.29437C14.5671 7.69373 14.5671 8.30627 14.8199 8.70563C15.2609 9.40213 15.5 10.2303 15.5 11.1111C15.5 13.535 13.535 15.5 11.1111 15.5C10.2303 15.5 9.40213 15.2609 8.70563 14.8199C8.30627 14.5671 7.69373 14.5671 7.29437 14.8199C6.59787 15.2609 5.76971 15.5 4.88889 15.5C2.46497 15.5 0.5 13.535 0.5 11.1111C0.5 10.2303 0.739133 9.40213 1.18009 8.70563C1.43293 8.30627 1.43293 7.69373 1.18009 7.29437C0.739133 6.59787 0.5 5.76971 0.5 4.88889C0.5 2.46497 2.46497 0.5 4.88889 0.5ZM1.5 4.88889C1.5 5.58763 1.68919 6.22905 2.025 6.75945C2.48463 7.48545 2.48463 8.51455 2.025 9.24055C1.68919 9.77095 1.5 10.4124 1.5 11.1111C1.5 12.9827 3.01726 14.5 4.88889 14.5C5.58763 14.5 6.22905 14.3108 6.75945 13.975C7.48545 13.5154 8.51455 13.5154 9.24055 13.975C9.77095 14.3108 10.4124 14.5 11.1111 14.5C12.9827 14.5 14.5 12.9827 14.5 11.1111C14.5 10.4124 14.3108 9.77095 13.975 9.24055C13.5154 8.51455 13.5154 7.48545 13.975 6.75945C14.3108 6.22905 14.5 5.58763 14.5 4.88889C14.5 3.01726 12.9827 1.5 11.1111 1.5C10.4124 1.5 9.77095 1.68919 9.24055 2.025C8.51455 2.48463 7.48545 2.48463 6.75945 2.025C6.22905 1.68919 5.58763 1.5 4.88889 1.5C3.01726 1.5 1.5 3.01726 1.5 4.88889Z" fill="#777B92"/>
</svg>
