<svg width="16" height="16" viewBox="0 0 16 16" fill="none" xmlns="http://www.w3.org/2000/svg">
<path fill-rule="evenodd" clip-rule="evenodd" d="M1 0.5H15C15.2761 0.5 15.5 0.723858 15.5 1V3C15.5 3.27614 15.2761 3.5 15 3.5H1C0.723858 3.5 0.5 3.27614 0.5 3V1C0.5 0.723858 0.723858 0.5 1 0.5Z" fill="#777B92"/>
<path fill-rule="evenodd" clip-rule="evenodd" d="M1 4.5H15C15.2761 4.5 15.5 4.72386 15.5 5V7C15.5 7.27614 15.2761 7.5 15 7.5H1C0.723858 7.5 0.5 7.27614 0.5 7V5C0.5 4.72386 0.723858 4.5 1 4.5Z" fill="#777B92"/>
<path fill-rule="evenodd" clip-rule="evenodd" d="M0.5 9C0.5 8.72386 0.723858 8.5 1 8.5H15C15.2761 8.5 15.5 8.72386 15.5 9V11C15.5 11.2761 15.2761 11.5 15 11.5H1C0.723858 11.5 0.5 11.2761 0.5 11V9Z" fill="#777B92"/>
<path fill-rule="evenodd" clip-rule="evenodd" d="M1 12.5H15C15.2761 12.5 15.5 12.7239 15.5 13V15C15.5 15.2761 15.2761 15.5 15 15.5H1C0.723858 15.5 0.5 15.2761 0.5 15V13C0.5 12.7239 0.723858 12.5 1 12.5Z" fill="#777B92"/>
</svg>
