<svg width="16" height="16" viewBox="0 0 16 16" fill="none" xmlns="http://www.w3.org/2000/svg">
<path fill-rule="evenodd" clip-rule="evenodd" d="M4.5 1V15C4.5 15.2761 4.27614 15.5 4 15.5C3.72386 15.5 3.5 15.2761 3.5 15V1C3.5 0.723858 3.72386 0.5 4 0.5C4.27614 0.5 4.5 0.723858 4.5 1Z" fill="#777B92"/>
<path fill-rule="evenodd" clip-rule="evenodd" d="M8 0.5C8.27614 0.5 8.5 0.723858 8.5 1V13.7929L9.64645 12.6464C9.84171 12.4512 10.1583 12.4512 10.3536 12.6464C10.5488 12.8417 10.5488 13.1583 10.3536 13.3536L8.35355 15.3536C8.15829 15.5488 7.84171 15.5488 7.64645 15.3536L5.64645 13.3536C5.45118 13.1583 5.45118 12.8417 5.64645 12.6464C5.84171 12.4512 6.15829 12.4512 6.35355 12.6464L7.5 13.7929V1C7.5 0.723858 7.72386 0.5 8 0.5Z" fill="#777B92"/>
<path fill-rule="evenodd" clip-rule="evenodd" d="M12 0.5C12.2761 0.5 12.5 0.723858 12.5 1V15C12.5 15.2761 12.2761 15.5 12 15.5C11.7239 15.5 11.5 15.2761 11.5 15V1C11.5 0.723858 11.7239 0.5 12 0.5Z" fill="#777B92"/>
</svg>
