<svg width="16" height="16" viewBox="0 0 16 16" fill="none" xmlns="http://www.w3.org/2000/svg">
<path fill-rule="evenodd" clip-rule="evenodd" d="M1 0.5H7C7.27614 0.5 7.5 0.723858 7.5 1V8C7.5 8.27614 7.27614 8.5 7 8.5H1C0.723858 8.5 0.5 8.27614 0.5 8V1C0.5 0.723858 0.723858 0.5 1 0.5Z" fill="#777B92"/>
<path fill-rule="evenodd" clip-rule="evenodd" d="M1 9.5H7C7.27614 9.5 7.5 9.72386 7.5 10V15C7.5 15.2761 7.27614 15.5 7 15.5H1C0.723858 15.5 0.5 15.2761 0.5 15V10C0.5 9.72386 0.723858 9.5 1 9.5Z" fill="#777B92"/>
<path fill-rule="evenodd" clip-rule="evenodd" d="M8.5 8C8.5 7.72386 8.72386 7.5 9 7.5H15C15.2761 7.5 15.5 7.72386 15.5 8V15C15.5 15.2761 15.2761 15.5 15 15.5H9C8.72386 15.5 8.5 15.2761 8.5 15V8Z" fill="#777B92"/>
<path fill-rule="evenodd" clip-rule="evenodd" d="M9 0.5H15C15.2761 0.5 15.5 0.723858 15.5 1V6C15.5 6.27614 15.2761 6.5 15 6.5H9C8.72386 6.5 8.5 6.27614 8.5 6V1C8.5 0.723858 8.72386 0.5 9 0.5Z" fill="#777B92"/>
</svg>
