<svg width="16" height="16" viewBox="0 0 16 16" fill="none" xmlns="http://www.w3.org/2000/svg">
<path fill-rule="evenodd" clip-rule="evenodd" d="M2 0.5H14C14.8284 0.5 15.5 1.17157 15.5 2V14C15.5 14.8284 14.8284 15.5 14 15.5H2C1.17157 15.5 0.5 14.8284 0.5 14V2C0.5 1.17157 1.17157 0.5 2 0.5ZM10.3536 6.35355C10.5488 6.15829 10.5488 5.84171 10.3536 5.64645C10.1583 5.45118 9.84171 5.45118 9.64645 5.64645L8 7.29289L6.35355 5.64645C6.15829 5.45118 5.84171 5.45118 5.64645 5.64645C5.45118 5.84171 5.45118 6.15829 5.64645 6.35355L7.29289 8L5.64645 9.64645C5.45118 9.84171 5.45118 10.1583 5.64645 10.3536C5.84171 10.5488 6.15829 10.5488 6.35355 10.3536L8 8.70711L9.64645 10.3536C9.84171 10.5488 10.1583 10.5488 10.3536 10.3536C10.5488 10.1583 10.5488 9.84171 10.3536 9.64645L8.70711 8L10.3536 6.35355Z" fill="#777B92"/>
</svg>
