<svg width="24" height="24" viewBox="0 0 24 24" fill="none" xmlns="http://www.w3.org/2000/svg">
<path fill-rule="evenodd" clip-rule="evenodd" d="M18.5 6.91421L17.7071 7.70711C17.3166 8.09763 16.6834 8.09763 16.2929 7.70711C15.9024 7.31658 15.9024 6.68342 16.2929 6.29289L17.0858 5.5L16.2929 4.70711C15.9024 4.31658 15.9024 3.68342 16.2929 3.29289C16.6834 2.90237 17.3166 2.90237 17.7071 3.29289L18.5 4.08579L19.2929 3.29289C19.6834 2.90237 20.3166 2.90237 20.7071 3.29289C21.0976 3.68342 21.0976 4.31658 20.7071 4.70711L19.9142 5.5L20.7071 6.29289C21.0976 6.68342 21.0976 7.31658 20.7071 7.70711C20.3166 8.09763 19.6834 8.09763 19.2929 7.70711L18.5 6.91421Z" fill="#777B92"/>
<path fill-rule="evenodd" clip-rule="evenodd" d="M5 3H13C13.5523 3 14 3.44772 14 4C14 4.55228 13.5523 5 13 5H9V19H15V11C15 10.4477 15.4477 10 16 10C16.5523 10 17 10.4477 17 11H19C19 10.4477 19.4477 10 20 10C20.5523 10 21 10.4477 21 11V19C21 20.1046 20.1046 21 19 21H5C3.89543 21 3 20.1046 3 19V5C3 3.89543 3.89543 3 5 3ZM7 15V13H5V15H7ZM5 17V19H7V17H5ZM19 13H17V15H19V13ZM19 17H17V19H19V17ZM7 11V9H5V11H7ZM7 7V5H5V7H7Z" fill="#777B92"/>
</svg>
