<svg width="24" height="24" viewBox="0 0 24 24" fill="none" xmlns="http://www.w3.org/2000/svg">
<path fill-rule="evenodd" clip-rule="evenodd" d="M12.7071 9.29289C13.0976 9.68342 13.0976 10.3166 12.7071 10.7071L11.4142 12L12.7071 13.2929C13.0976 13.6834 13.0976 14.3166 12.7071 14.7071C12.3166 15.0976 11.6834 15.0976 11.2929 14.7071L10 13.4142L8.70711 14.7071C8.31658 15.0976 7.68342 15.0976 7.29289 14.7071C6.90237 14.3166 6.90237 13.6834 7.29289 13.2929L8.58579 12L7.29289 10.7071C6.90237 10.3166 6.90237 9.68342 7.29289 9.29289C7.68342 8.90237 8.31658 8.90237 8.70711 9.29289L10 10.5858L11.2929 9.29289C11.6834 8.90237 12.3166 8.90237 12.7071 9.29289Z" fill="#777B92"/>
<path fill-rule="evenodd" clip-rule="evenodd" d="M4 5H16C17.1046 5 18 5.89543 18 7V9.14894L18.4382 8.60124C19.6192 7.12497 21.9999 7.96007 21.9999 9.85063V14.1491C21.9999 16.0396 19.6192 16.8747 18.4382 15.3985L18 14.8508V17C18 18.1046 17.1046 19 16 19H4C2.89543 19 2 18.1046 2 17V7C2 5.89543 2.89543 5 4 5ZM4 7V17L16 17V7L4 7ZM18.2805 11.9999L19.9999 9.85063L19.9999 14.1491L18.2805 11.9999Z" fill="#777B92"/>
</svg>
