<svg width="16" height="16" viewBox="0 0 16 16" fill="none" xmlns="http://www.w3.org/2000/svg">
<path fill-rule="evenodd" clip-rule="evenodd" d="M3.5 3C3.5 2.17157 4.17157 1.5 5 1.5H11C11.8284 1.5 12.5 2.17157 12.5 3V4.5H14C14.8284 4.5 15.5 5.17157 15.5 6V12C15.5 12.8284 14.8284 13.5 14 13.5H12.4146C12.2087 14.0826 11.6531 14.5 11 14.5H5C4.34689 14.5 3.79127 14.0826 3.58535 13.5H1.99998C1.1716 13.5 0.500025 12.8285 0.5 12.0001L0.50003 6.00006C0.500013 5.17162 1.17158 4.5 2.00005 4.5H3.5V3ZM4.5 4.5H11.5V3C11.5 2.72386 11.2761 2.5 11 2.5H5C4.72386 2.5 4.5 2.72386 4.5 3V4.5ZM4.50001 13.003C4.50162 13.2778 4.72486 13.5 5 13.5H11C11.2761 13.5 11.5 13.2761 11.5 13V12C11.5 11.7239 11.2761 11.5 11 11.5H5C4.72386 11.5 4.5 11.7239 4.5 12V12.9958L4.50002 13L4.50001 13.003ZM3.5 12.5V12C3.5 11.1716 4.17157 10.5 5 10.5H11C11.8284 10.5 12.5 11.1716 12.5 12V12.5H14C14.2762 12.5 14.5 12.2761 14.5 12V6C14.5 5.72386 14.2762 5.5 14 5.5H2.00005C1.7239 5.5 1.50002 5.72387 1.50003 6.00004L1.5 12.0001C1.50001 12.2762 1.72385 12.5 1.99998 12.5H3.5Z" fill="#777B92"/>
</svg>
