<svg width="16" height="16" viewBox="0 0 16 16" fill="none" xmlns="http://www.w3.org/2000/svg">
<path fill-rule="evenodd" clip-rule="evenodd" d="M2.5 2C2.5 1.17157 3.17157 0.5 4 0.5H12C12.8284 0.5 13.5 1.17157 13.5 2V3C13.5 3.27614 13.2761 3.5 13 3.5C12.7239 3.5 12.5 3.27614 12.5 3V2C12.5 1.72386 12.2761 1.5 12 1.5H4C3.72386 1.5 3.5 1.72386 3.5 2V14C3.5 14.2761 3.72386 14.5 4 14.5H12C12.2761 14.5 12.5 14.2761 12.5 14V13C12.5 12.7239 12.7239 12.5 13 12.5C13.2761 12.5 13.5 12.7239 13.5 13V14C13.5 14.8284 12.8284 15.5 12 15.5H4C3.17157 15.5 2.5 14.8284 2.5 14V2Z" fill="#777B92"/>
<path fill-rule="evenodd" clip-rule="evenodd" d="M11 8C11 8.55228 10.5523 9 10 9C9.44772 9 9 8.55228 9 8C9 7.44772 9.44772 7 10 7C10.5523 7 11 7.44772 11 8Z" fill="#777B92"/>
<path fill-rule="evenodd" clip-rule="evenodd" d="M10 4.5C11.933 4.5 13.5 6.067 13.5 8C13.5 9.933 11.933 11.5 10 11.5C9.72386 11.5 9.5 11.2761 9.5 11C9.5 10.7239 9.72386 10.5 10 10.5C11.3807 10.5 12.5 9.38071 12.5 8C12.5 6.61929 11.3807 5.5 10 5.5C9.72386 5.5 9.5 5.27614 9.5 5C9.5 4.72386 9.72386 4.5 10 4.5Z" fill="#777B92"/>
</svg>
