<svg width="16" height="16" viewBox="0 0 16 16" fill="none" xmlns="http://www.w3.org/2000/svg">
<path fill-rule="evenodd" clip-rule="evenodd" d="M7 6.5C7 6.77614 6.77614 7 6.5 7C6.22386 7 6 6.77614 6 6.5C6 6.22386 6.22386 6 6.5 6C6.77614 6 7 6.22386 7 6.5Z" fill="#777B92"/>
<path fill-rule="evenodd" clip-rule="evenodd" d="M9.5 7C9.22386 7 9 6.77614 9 6.5C9 6.22386 9.22386 6 9.5 6C9.77614 6 10 6.22386 10 6.5C10 6.77614 9.77614 7 9.5 7Z" fill="#777B92"/>
<path fill-rule="evenodd" clip-rule="evenodd" d="M3.64645 0.646447C3.84171 0.451184 4.15829 0.451184 4.35355 0.646447L6.35355 2.64645C6.39233 2.68523 6.42341 2.72879 6.44679 2.77525C6.93091 2.5972 7.45411 2.5 8 2.5C8.54589 2.5 9.06909 2.5972 9.55321 2.77525C9.57659 2.72879 9.60767 2.68523 9.64645 2.64645L11.6464 0.646447C11.8417 0.451184 12.1583 0.451184 12.3536 0.646447C12.5488 0.841709 12.5488 1.15829 12.3536 1.35355L10.4695 3.23756C11.6926 4.04197 12.5 5.42669 12.5 7V11C12.5 13.4853 10.4853 15.5 8 15.5C5.51472 15.5 3.5 13.4853 3.5 11V7C3.5 5.42669 4.3074 4.04197 5.53046 3.23756L3.64645 1.35355C3.45118 1.15829 3.45118 0.841709 3.64645 0.646447ZM11.5 10.5V7C11.5 5.067 9.933 3.5 8 3.5C6.067 3.5 4.5 5.067 4.5 7V10.5H11.5ZM11.4646 11.5H4.53544C4.77806 13.1961 6.23676 14.5 8 14.5C9.76324 14.5 11.2219 13.1961 11.4646 11.5Z" fill="#777B92"/>
</svg>
