<svg width="16" height="16" viewBox="0 0 16 16" fill="none" xmlns="http://www.w3.org/2000/svg">
<path fill-rule="evenodd" clip-rule="evenodd" d="M7 5.5C7 5.77614 6.77614 6 6.5 6C6.22386 6 6 5.77614 6 5.5C6 5.22386 6.22386 5 6.5 5C6.77614 5 7 5.22386 7 5.5Z" fill="#777B92"/>
<path fill-rule="evenodd" clip-rule="evenodd" d="M9.5 6C9.22386 6 9 5.77614 9 5.5C9 5.22386 9.22386 5 9.5 5C9.77614 5 10 5.22386 10 5.5C10 5.77614 9.77614 6 9.5 6Z" fill="#777B92"/>
<path fill-rule="evenodd" clip-rule="evenodd" d="M4.64645 0.646447C4.84171 0.451184 5.15829 0.451184 5.35355 0.646447L6.35355 1.64645C6.39233 1.68523 6.42341 1.72879 6.44679 1.77525C6.93091 1.5972 7.45411 1.5 8 1.5C8.54589 1.5 9.06909 1.5972 9.55321 1.77525C9.57659 1.72879 9.60767 1.68523 9.64645 1.64645L10.6464 0.646447C10.8417 0.451184 11.1583 0.451184 11.3536 0.646447C11.5488 0.841709 11.5488 1.15829 11.3536 1.35355L10.4695 2.23757C11.6926 3.04197 12.5 4.4267 12.5 6V12C12.5 12.8284 11.8284 13.5 11 13.5H5C4.17157 13.5 3.5 12.8284 3.5 12V6C3.5 4.42669 4.3074 3.04197 5.53046 2.23756L4.64645 1.35355C4.45118 1.15829 4.45118 0.841709 4.64645 0.646447ZM11.5 8.5V6C11.5 4.067 9.933 2.5 8 2.5C6.067 2.5 4.5 4.067 4.5 6V8.5H11.5ZM11.5 9.5H4.5V12C4.5 12.2761 4.72386 12.5 5 12.5H11C11.2761 12.5 11.5 12.2761 11.5 12V9.5Z" fill="#777B92"/>
<path fill-rule="evenodd" clip-rule="evenodd" d="M4.5 15C4.5 14.7239 4.72386 14.5 5 14.5H7C7.27614 14.5 7.5 14.7239 7.5 15C7.5 15.2761 7.27614 15.5 7 15.5H5C4.72386 15.5 4.5 15.2761 4.5 15Z" fill="#777B92"/>
<path fill-rule="evenodd" clip-rule="evenodd" d="M9 14.5H11C11.2761 14.5 11.5 14.7239 11.5 15C11.5 15.2761 11.2761 15.5 11 15.5H9C8.72386 15.5 8.5 15.2761 8.5 15C8.5 14.7239 8.72386 14.5 9 14.5Z" fill="#777B92"/>
<path fill-rule="evenodd" clip-rule="evenodd" d="M14 5.5C14.2761 5.5 14.5 5.72386 14.5 6V10C14.5 10.2761 14.2761 10.5 14 10.5C13.7239 10.5 13.5 10.2761 13.5 10V6C13.5 5.72386 13.7239 5.5 14 5.5Z" fill="#777B92"/>
<path fill-rule="evenodd" clip-rule="evenodd" d="M2.5 6V10C2.5 10.2761 2.27614 10.5 2 10.5C1.72386 10.5 1.5 10.2761 1.5 10V6C1.5 5.72386 1.72386 5.5 2 5.5C2.27614 5.5 2.5 5.72386 2.5 6Z" fill="#777B92"/>
</svg>
