<svg width="16" height="16" viewBox="0 0 16 16" fill="none" xmlns="http://www.w3.org/2000/svg">
<path fill-rule="evenodd" clip-rule="evenodd" d="M0.5 3C0.5 2.17157 1.17157 1.5 2 1.5H14C14.8284 1.5 15.5 2.17157 15.5 3V10C15.5 10.8284 14.8284 11.5 14 11.5H8.5V13.5H12C12.2761 13.5 12.5 13.7239 12.5 14C12.5 14.2761 12.2761 14.5 12 14.5H5C4.72386 14.5 4.5 14.2761 4.5 14C4.5 13.7239 4.72386 13.5 5 13.5H7.5V11.5H2C1.17157 11.5 0.5 10.8284 0.5 10V3ZM14 10.5C14.2761 10.5 14.5 10.2761 14.5 10V3C14.5 2.72386 14.2761 2.5 14 2.5H2C1.72386 2.5 1.5 2.72386 1.5 3V10C1.5 10.2761 1.72386 10.5 2 10.5H14Z" fill="#777B92"/>
</svg>
