<svg width="16" height="16" viewBox="0 0 16 16" fill="none" xmlns="http://www.w3.org/2000/svg">
<path fill-rule="evenodd" clip-rule="evenodd" d="M15.2867 2.59043C15.513 2.74878 15.568 3.06055 15.4096 3.28677L8.40962 13.2868C8.31605 13.4204 8.16316 13.5 8 13.5C7.83684 13.5 7.68395 13.4204 7.59038 13.2868L1.5 4.58623V6.00004C1.5 6.27619 1.27614 6.50004 1 6.50004C0.723858 6.50004 0.5 6.27619 0.5 6.00004V3.00004C0.5 2.83932 0.577261 2.6884 0.707645 2.59442C0.838029 2.50045 1.00564 2.47488 1.15811 2.5257L4.15811 3.5257C4.42009 3.61303 4.56167 3.89619 4.47434 4.15816C4.38702 4.42013 4.10386 4.56171 3.84189 4.47438L2.2773 3.95285L8 12.1281L14.5904 2.71331C14.7487 2.48709 15.0605 2.43207 15.2867 2.59043Z" fill="#777B92"/>
</svg>
