<svg width="16" height="16" viewBox="0 0 16 16" fill="none" xmlns="http://www.w3.org/2000/svg">
<path fill-rule="evenodd" clip-rule="evenodd" d="M3 1.5H13C13.8284 1.5 14.5 2.17157 14.5 3V8C14.5 8.65311 14.0826 9.20873 13.5 9.41465V10.5H15C15.2761 10.5 15.5 10.7239 15.5 11C15.5 11.2761 15.2761 11.5 15 11.5H14.2324C14.4026 11.7942 14.5 12.1357 14.5 12.5C14.5 13.6046 13.6046 14.5 12.5 14.5C11.3954 14.5 10.5 13.6046 10.5 12.5C10.5 12.1357 10.5974 11.7942 10.7676 11.5H5.23244C5.40261 11.7942 5.5 12.1357 5.5 12.5C5.5 13.6046 4.60457 14.5 3.5 14.5C2.39543 14.5 1.5 13.6046 1.5 12.5C1.5 12.1357 1.59739 11.7942 1.76756 11.5H1C0.723858 11.5 0.5 11.2761 0.5 11C0.5 10.7239 0.723858 10.5 1 10.5H2.5V9.41465C1.9174 9.20873 1.5 8.65311 1.5 8V3C1.5 2.17157 2.17157 1.5 3 1.5ZM3.5 10.5H12.5V9.5H3.5V10.5ZM3 8.5H13C13.2761 8.5 13.5 8.27614 13.5 8V3C13.5 2.72386 13.2761 2.5 13 2.5H3C2.72386 2.5 2.5 2.72386 2.5 3V8C2.5 8.27614 2.72386 8.5 3 8.5ZM2.5 12.5C2.5 13.0523 2.94772 13.5 3.5 13.5C4.05228 13.5 4.5 13.0523 4.5 12.5C4.5 11.9477 4.05228 11.5 3.5 11.5C2.94772 11.5 2.5 11.9477 2.5 12.5ZM12.5 11.5C11.9477 11.5 11.5 11.9477 11.5 12.5C11.5 13.0523 11.9477 13.5 12.5 13.5C13.0523 13.5 13.5 13.0523 13.5 12.5C13.5 11.9477 13.0523 11.5 12.5 11.5Z" fill="#777B92"/>
</svg>
