<svg width="16" height="16" viewBox="0 0 16 16" fill="none" xmlns="http://www.w3.org/2000/svg">
<path fill-rule="evenodd" clip-rule="evenodd" d="M2.32513 1.5H13.6737C14.6702 1.5 15.3897 2.45386 15.116 3.41208L13.6874 8.41208C13.5272 8.97281 13.0602 9.3819 12.5 9.47828V10.5H15C15.2761 10.5 15.5 10.7239 15.5 11C15.5 11.2761 15.2761 11.5 15 11.5H14.2324C14.4026 11.7942 14.5 12.1357 14.5 12.5C14.5 13.6046 13.6046 14.5 12.5 14.5C11.3954 14.5 10.5 13.6046 10.5 12.5C10.5 12.1357 10.5974 11.7942 10.7676 11.5H5.23244C5.40261 11.7942 5.5 12.1357 5.5 12.5C5.5 13.6046 4.60457 14.5 3.5 14.5C2.39543 14.5 1.5 13.6046 1.5 12.5C1.5 12.1357 1.59739 11.7942 1.76756 11.5H1C0.723858 11.5 0.5 11.2761 0.5 11C0.5 10.7239 0.723858 10.5 1 10.5H3.5V9.47849C2.93927 9.38249 2.47174 8.97321 2.31142 8.41208L0.882846 3.41208C0.609067 2.45386 1.32856 1.5 2.32513 1.5ZM12.2451 8.5C12.4683 8.5 12.6645 8.35201 12.7259 8.13736L14.1544 3.13736C14.2457 2.81795 14.0059 2.5 13.6737 2.5H2.32513C1.99294 2.5 1.75311 2.81795 1.84437 3.13736L3.27294 8.13736C3.33427 8.35201 3.53046 8.5 3.7537 8.5H12.2451ZM4.5 9.5V10.5H11.5V9.5H4.5ZM11.5 12.5C11.5 13.0523 11.9477 13.5 12.5 13.5C13.0523 13.5 13.5 13.0523 13.5 12.5C13.5 11.9477 13.0523 11.5 12.5 11.5C11.9477 11.5 11.5 11.9477 11.5 12.5ZM2.5 12.5C2.5 13.0523 2.94772 13.5 3.5 13.5C4.05228 13.5 4.5 13.0523 4.5 12.5C4.5 11.9477 4.05228 11.5 3.5 11.5C2.94772 11.5 2.5 11.9477 2.5 12.5Z" fill="#777B92"/>
</svg>
