<svg width="16" height="16" viewBox="0 0 16 16" fill="none" xmlns="http://www.w3.org/2000/svg">
<path fill-rule="evenodd" clip-rule="evenodd" d="M6.5 5V6.5H8C8.27614 6.5 8.5 6.72386 8.5 7C8.5 7.27614 8.27614 7.5 8 7.5H6.5V9C6.5 9.27614 6.27614 9.5 6 9.5C5.72386 9.5 5.5 9.27614 5.5 9V7.5H4C3.72386 7.5 3.5 7.27614 3.5 7C3.5 6.72386 3.72386 6.5 4 6.5H5.5V5C5.5 4.72386 5.72386 4.5 6 4.5C6.27614 4.5 6.5 4.72386 6.5 5Z" fill="#777B92"/>
<path fill-rule="evenodd" clip-rule="evenodd" d="M0.5 3C0.5 2.17157 1.17157 1.5 2 1.5H10C10.8284 1.5 11.5 2.17157 11.5 3V4.75001L14.9 7.30003C15.2777 7.58331 15.5 8.02789 15.5 8.50003V10C15.5 10.7527 14.9456 11.376 14.2228 11.4836C14.3989 11.7814 14.5 12.1289 14.5 12.5C14.5 13.6046 13.6046 14.5 12.5 14.5C11.3954 14.5 10.5 13.6046 10.5 12.5C10.5 12.1173 10.6075 11.7597 10.7939 11.4557C10.7388 11.4307 10.689 11.396 10.6467 11.3538C10.4509 11.4475 10.2316 11.5 10 11.5H5.23244C5.40261 11.7942 5.5 12.1357 5.5 12.5C5.5 13.6046 4.60457 14.5 3.5 14.5C2.39543 14.5 1.5 13.6046 1.5 12.5C1.5 12.1289 1.60107 11.7814 1.77718 11.4836C1.05442 11.3759 0.5 10.7527 0.5 10V3ZM12.511 10.5H14C14.2762 10.5 14.5 10.2762 14.5 10V8.50003C14.5 8.34265 14.4259 8.19446 14.3 8.10003L11.5 6.00001V10C11.5 10.1753 11.4699 10.3436 11.4146 10.5H12.489C12.4927 10.5 12.4963 10.5 12.5 10.5C12.5037 10.5 12.5073 10.5 12.511 10.5ZM12.4922 11.5C11.9435 11.5042 11.5 11.9503 11.5 12.5C11.5 13.0523 11.9477 13.5 12.5 13.5C13.0523 13.5 13.5 13.0523 13.5 12.5C13.5 11.9503 13.0565 11.5042 12.5078 11.5H12.4922ZM10 10.5C10.2761 10.5 10.5 10.2761 10.5 10V3C10.5 2.72386 10.2761 2.5 10 2.5H2C1.72386 2.5 1.5 2.72386 1.5 3V10C1.5 10.2761 1.72386 10.5 2 10.5H10ZM2.5 12.5C2.5 13.0523 2.94772 13.5 3.5 13.5C4.05228 13.5 4.5 13.0523 4.5 12.5C4.5 11.9477 4.05228 11.5 3.5 11.5C2.94772 11.5 2.5 11.9477 2.5 12.5Z" fill="#777B92"/>
</svg>
