<svg width="16" height="16" viewBox="0 0 16 16" fill="none" xmlns="http://www.w3.org/2000/svg">
<path fill-rule="evenodd" clip-rule="evenodd" d="M5.5 1.5H10.5C12.7091 1.5 14.5 3.29086 14.5 5.5C14.5 6.98105 13.6951 8.27409 12.4988 8.96555C12.4996 8.97693 12.5 8.98842 12.5 9V10.5H15C15.2761 10.5 15.5 10.7239 15.5 11C15.5 11.2761 15.2761 11.5 15 11.5H14.2324C14.4026 11.7942 14.5 12.1357 14.5 12.5C14.5 13.6046 13.6046 14.5 12.5 14.5C11.3954 14.5 10.5 13.6046 10.5 12.5C10.5 12.1357 10.5974 11.7942 10.7676 11.5H5.23244C5.40261 11.7942 5.5 12.1357 5.5 12.5C5.5 13.6046 4.60457 14.5 3.5 14.5C2.39543 14.5 1.5 13.6046 1.5 12.5C1.5 12.1357 1.59739 11.7942 1.76756 11.5H1C0.723858 11.5 0.5 11.2761 0.5 11C0.5 10.7239 0.723858 10.5 1 10.5H3.5V9C3.5 8.98842 3.50039 8.97693 3.50117 8.96555C2.30492 8.27409 1.5 6.98105 1.5 5.5C1.5 3.29086 3.29086 1.5 5.5 1.5ZM4.5 10.5H11.5V9.37398C11.1804 9.45625 10.8453 9.5 10.5 9.5H5.5C5.1547 9.5 4.81962 9.45625 4.5 9.37398V10.5ZM2.5 5.5C2.5 7.15685 3.84315 8.5 5.5 8.5H10.5C12.1569 8.5 13.5 7.15685 13.5 5.5C13.5 3.84315 12.1569 2.5 10.5 2.5H5.5C3.84315 2.5 2.5 3.84315 2.5 5.5ZM2.5 12.5C2.5 13.0523 2.94772 13.5 3.5 13.5C4.05228 13.5 4.5 13.0523 4.5 12.5C4.5 11.9477 4.05228 11.5 3.5 11.5C2.94772 11.5 2.5 11.9477 2.5 12.5ZM12.5 11.5C11.9477 11.5 11.5 11.9477 11.5 12.5C11.5 13.0523 11.9477 13.5 12.5 13.5C13.0523 13.5 13.5 13.0523 13.5 12.5C13.5 11.9477 13.0523 11.5 12.5 11.5Z" fill="#777B92"/>
</svg>
