<svg width="16" height="16" viewBox="0 0 16 16" fill="none" xmlns="http://www.w3.org/2000/svg">
<path fill-rule="evenodd" clip-rule="evenodd" d="M0.5 1C0.5 0.723858 0.723858 0.5 1 0.5H15C15.2761 0.5 15.5 0.723858 15.5 1V5C15.5 5.27614 15.2761 5.5 15 5.5H1C0.723858 5.5 0.5 5.27614 0.5 5V1ZM1.5 1.5V4.5H14.5V1.5H1.5Z" fill="#777B92"/>
<path fill-rule="evenodd" clip-rule="evenodd" d="M0.5 7C0.5 6.72386 0.723858 6.5 1 6.5H15C15.2761 6.5 15.5 6.72386 15.5 7V15C15.5 15.2761 15.2761 15.5 15 15.5H1C0.723858 15.5 0.5 15.2761 0.5 15V7ZM1.5 11.5V14.5H14.5V11.5H1.5ZM14.5 10.5V7.5H1.5V10.5H14.5Z" fill="#777B92"/>
</svg>
