<svg width="16" height="16" viewBox="0 0 16 16" fill="none" xmlns="http://www.w3.org/2000/svg">
<path fill-rule="evenodd" clip-rule="evenodd" d="M8.5 1V15C8.5 15.2761 8.27614 15.5 8 15.5C7.72386 15.5 7.5 15.2761 7.5 15V1C7.5 0.723858 7.72386 0.5 8 0.5C8.27614 0.5 8.5 0.723858 8.5 1Z" fill="#777B92"/>
<path fill-rule="evenodd" clip-rule="evenodd" d="M3.64645 5.64645C3.84171 5.45118 4.15829 5.45118 4.35355 5.64645L6.35355 7.64645C6.44732 7.74022 6.5 7.86739 6.5 8C6.5 8.13261 6.44732 8.25979 6.35355 8.35355L4.35355 10.3536C4.15829 10.5488 3.84171 10.5488 3.64645 10.3536C3.45118 10.1583 3.45118 9.84171 3.64645 9.64645L4.79289 8.5H1C0.723858 8.5 0.5 8.27614 0.5 8C0.5 7.72386 0.723858 7.5 1 7.5H4.79289L3.64645 6.35355C3.45118 6.15829 3.45118 5.84171 3.64645 5.64645Z" fill="#777B92"/>
<path fill-rule="evenodd" clip-rule="evenodd" d="M12.3536 5.64645C12.5488 5.84171 12.5488 6.15829 12.3536 6.35355L11.2071 7.5H15C15.2761 7.5 15.5 7.72386 15.5 8C15.5 8.27614 15.2761 8.5 15 8.5H11.2071L12.3536 9.64645C12.5488 9.84171 12.5488 10.1583 12.3536 10.3536C12.1583 10.5488 11.8417 10.5488 11.6464 10.3536L9.64645 8.35355C9.55268 8.25979 9.5 8.13261 9.5 8C9.5 7.86739 9.55268 7.74022 9.64645 7.64645L11.6464 5.64645C11.8417 5.45118 12.1583 5.45118 12.3536 5.64645Z" fill="#777B92"/>
</svg>
