<svg width="16" height="16" viewBox="0 0 16 16" fill="none" xmlns="http://www.w3.org/2000/svg">
<path fill-rule="evenodd" clip-rule="evenodd" d="M1.35355 0.646447L15.3536 14.6464C15.5488 14.8417 15.5488 15.1583 15.3536 15.3536C15.1583 15.5488 14.8417 15.5488 14.6464 15.3536L0.646447 1.35355C0.451184 1.15829 0.451184 0.841709 0.646447 0.646447C0.841709 0.451184 1.15829 0.451184 1.35355 0.646447Z" fill="#777B92"/>
<path fill-rule="evenodd" clip-rule="evenodd" d="M8.76628 0.893427C9.49931 1.37957 10.916 2.40172 12.1546 3.78664C13.3854 5.16271 14.5 6.96367 14.5 8.99997C14.5 9.75879 14.3698 10.4883 14.13 11.1666C14.038 11.427 13.7523 11.5634 13.492 11.4714C13.2316 11.3794 13.0951 11.0937 13.1872 10.8333C13.3896 10.2606 13.5 9.6437 13.5 8.99997C13.5 7.32636 12.5756 5.75725 11.4093 4.4533C10.2509 3.15819 8.91256 2.19037 8.21358 1.72681C8.08221 1.63969 7.91841 1.63924 7.78401 1.72841C7.29906 2.05015 6.50232 2.61727 5.67117 3.37047C5.46655 3.5559 5.15035 3.54035 4.96492 3.33572C4.77949 3.1311 4.79504 2.8149 4.99966 2.62947C5.87859 1.83297 6.71831 1.23538 7.23116 0.895127C7.6975 0.58573 8.29683 0.582094 8.76628 0.893427Z" fill="#777B92"/>
<path fill-rule="evenodd" clip-rule="evenodd" d="M3.42797 6.00498C2.86266 6.94078 2.5 7.95068 2.5 8.99997C2.5 12.0375 4.96243 14.5 8 14.5C9.12523 14.5 10.1701 14.1626 11.041 13.5836C11.2709 13.4307 11.5813 13.4932 11.7342 13.7231C11.8871 13.9531 11.8246 14.2634 11.5946 14.4163C10.5648 15.101 9.32825 15.5 8 15.5C4.41015 15.5 1.5 12.5898 1.5 8.99997C1.5 7.71692 1.94324 6.5288 2.57203 5.48791C2.71481 5.25155 3.02217 5.17569 3.25853 5.31847C3.4949 5.46126 3.57076 5.76862 3.42797 6.00498Z" fill="#777B92"/>
</svg>
