<svg width="16" height="16" viewBox="0 0 16 16" fill="none" xmlns="http://www.w3.org/2000/svg">
<path fill-rule="evenodd" clip-rule="evenodd" d="M10.3536 5.64645C10.5488 5.84171 10.5488 6.15829 10.3536 6.35355L8.70711 8L10.3536 9.64645C10.5488 9.84171 10.5488 10.1583 10.3536 10.3536C10.1583 10.5488 9.84171 10.5488 9.64645 10.3536L8 8.70711L6.35355 10.3536C6.15829 10.5488 5.84171 10.5488 5.64645 10.3536C5.45118 10.1583 5.45118 9.84171 5.64645 9.64645L7.29289 8L5.64645 6.35355C5.45118 6.15829 5.45118 5.84171 5.64645 5.64645C5.84171 5.45118 6.15829 5.45118 6.35355 5.64645L8 7.29289L9.64645 5.64645C9.84171 5.45118 10.1583 5.45118 10.3536 5.64645Z" fill="#777B92"/>
<path fill-rule="evenodd" clip-rule="evenodd" d="M0.5 2C0.5 1.17157 1.17157 0.5 2 0.5H14C14.8284 0.5 15.5 1.17157 15.5 2V14C15.5 14.8284 14.8284 15.5 14 15.5H2C1.17157 15.5 0.5 14.8284 0.5 14V2ZM2 1.5C1.72386 1.5 1.5 1.72386 1.5 2V14C1.5 14.2761 1.72386 14.5 2 14.5H14C14.2761 14.5 14.5 14.2761 14.5 14V2C14.5 1.72386 14.2761 1.5 14 1.5H2Z" fill="#777B92"/>
</svg>
