<svg width="16" height="16" viewBox="0 0 16 16" fill="none" xmlns="http://www.w3.org/2000/svg">
<path fill-rule="evenodd" clip-rule="evenodd" d="M8 0.5H9C9.27614 0.5 9.5 0.723858 9.5 1C9.5 1.27614 9.27614 1.5 9 1.5H8.5V14.5H9C9.27614 14.5 9.5 14.7239 9.5 15C9.5 15.2761 9.27614 15.5 9 15.5H8C3.85786 15.5 0.5 12.1421 0.5 8C0.5 3.85786 3.85786 0.5 8 0.5ZM1.5 8C1.5 11.4216 4.14378 14.2257 7.5 14.4811V1.51894C4.14378 1.77426 1.5 4.57839 1.5 8Z" fill="#777B92"/>
<path fill-rule="evenodd" clip-rule="evenodd" d="M12.291 1.5934C13.0881 2.16372 13.7712 2.89686 14.2996 3.74632C14.4455 3.9808 14.3736 4.28912 14.1391 4.43497C13.9047 4.58083 13.5963 4.50899 13.4505 4.27451C12.9897 3.53378 12.3965 2.89847 11.7091 2.40667C11.4845 2.24599 11.4327 1.93367 11.5934 1.7091C11.7541 1.48452 12.0664 1.43272 12.291 1.5934Z" fill="#777B92"/>
<path fill-rule="evenodd" clip-rule="evenodd" d="M15.3219 6.29282C15.4386 6.84249 15.5 7.41394 15.5 8.00004C15.5 8.58614 15.4386 9.15758 15.3219 9.70726C15.2645 9.97738 14.9991 10.1499 14.7289 10.0925C14.4588 10.0352 14.2863 9.76971 14.3437 9.49959C14.4459 9.01793 14.5 8.51609 14.5 8.00004C14.5 7.48399 14.4459 6.98214 14.3437 6.50049C14.2863 6.23037 14.4588 5.9649 14.7289 5.90755C14.9991 5.85021 15.2645 6.0227 15.3219 6.29282Z" fill="#777B92"/>
<path fill-rule="evenodd" clip-rule="evenodd" d="M14.2872 12.2737C13.7605 13.1147 13.0818 13.8408 12.291 14.4067C12.0664 14.5674 11.7541 14.5156 11.5934 14.291C11.4327 14.0664 11.4845 13.7541 11.7091 13.5934C12.3911 13.1055 12.9804 12.4762 13.4396 11.7429C13.5862 11.5089 13.8947 11.438 14.1288 11.5845C14.3628 11.7311 14.4337 12.0396 14.2872 12.2737Z" fill="#777B92"/>
</svg>
