<svg width="16" height="16" viewBox="0 0 16 16" fill="none" xmlns="http://www.w3.org/2000/svg">
<path fill-rule="evenodd" clip-rule="evenodd" d="M3 4C3 4.55228 2.55228 5 2 5C1.44772 5 1 4.55228 1 4C1 3.44772 1.44772 3 2 3C2.55228 3 3 3.44772 3 4Z" fill="#777B92"/>
<path fill-rule="evenodd" clip-rule="evenodd" d="M5 3.5H15C15.2761 3.5 15.5 3.72386 15.5 4C15.5 4.27614 15.2761 4.5 15 4.5H5C4.72386 4.5 4.5 4.27614 4.5 4C4.5 3.72386 4.72386 3.5 5 3.5Z" fill="#777B92"/>
<path fill-rule="evenodd" clip-rule="evenodd" d="M5 11.5H15C15.2761 11.5 15.5 11.7239 15.5 12C15.5 12.2761 15.2761 12.5 15 12.5H5C4.72386 12.5 4.5 12.2761 4.5 12C4.5 11.7239 4.72386 11.5 5 11.5Z" fill="#777B92"/>
<path fill-rule="evenodd" clip-rule="evenodd" d="M2 13C1.44772 13 1 12.5523 1 12C1 11.4477 1.44772 11 2 11C2.55228 11 3 11.4477 3 12C3 12.5523 2.55228 13 2 13Z" fill="#777B92"/>
</svg>
