<svg width="16" height="16" viewBox="0 0 16 16" fill="none" xmlns="http://www.w3.org/2000/svg">
<path fill-rule="evenodd" clip-rule="evenodd" d="M10 0.5H15C15.2761 0.5 15.5 0.723858 15.5 1V15C15.5 15.2761 15.2761 15.5 15 15.5H10C9.72386 15.5 9.5 15.2761 9.5 15V1C9.5 0.723858 9.72386 0.5 10 0.5ZM14.5 14.5V1.5H10.5V14.5H14.5Z" fill="#777B92"/>
<path fill-rule="evenodd" clip-rule="evenodd" d="M4.35355 5.64645L6.35355 7.64645C6.44732 7.74022 6.5 7.86739 6.5 8C6.5 8.13261 6.44732 8.25979 6.35355 8.35355L4.35355 10.3536C4.15829 10.5488 3.84171 10.5488 3.64645 10.3536C3.45118 10.1583 3.45118 9.84171 3.64645 9.64645L4.79289 8.5H1C0.723858 8.5 0.5 8.27614 0.5 8C0.5 7.72386 0.723858 7.5 1 7.5H4.79289L3.64645 6.35355C3.45118 6.15829 3.45118 5.84171 3.64645 5.64645C3.84171 5.45118 4.15829 5.45118 4.35355 5.64645Z" fill="#777B92"/>
</svg>
