<svg width="16" height="16" viewBox="0 0 16 16" fill="none" xmlns="http://www.w3.org/2000/svg">
<path fill-rule="evenodd" clip-rule="evenodd" d="M0.5 2C0.5 1.17157 1.17157 0.5 2 0.5H14C14.8284 0.5 15.5 1.17157 15.5 2V14C15.5 14.8284 14.8284 15.5 14 15.5H2C1.17157 15.5 0.5 14.8284 0.5 14V2ZM8.5 14.5H14C14.2761 14.5 14.5 14.2761 14.5 14V5.5H8.5V14.5ZM7.5 5.5H1.5V14C1.5 14.2761 1.72386 14.5 2 14.5H7.5V5.5ZM14.5 4.5V2C14.5 1.72386 14.2761 1.5 14 1.5H2C1.72386 1.5 1.5 1.72386 1.5 2V4.5H14.5Z" fill="#777B92"/>
</svg>
