<svg width="16" height="16" viewBox="0 0 16 16" fill="none" xmlns="http://www.w3.org/2000/svg">
<path fill-rule="evenodd" clip-rule="evenodd" d="M8.5 1C8.5 0.723858 8.72386 0.5 9 0.5H15C15.2761 0.5 15.5 0.723858 15.5 1V15C15.5 15.2761 15.2761 15.5 15 15.5H9C8.72386 15.5 8.5 15.2761 8.5 15V11.5H7C6.72386 11.5 6.5 11.2761 6.5 11V5C6.5 4.72386 6.72386 4.5 7 4.5H8.5V1ZM7.5 5.5V10.5H14.5V5.5H7.5ZM9.5 11.5V14.5H14.5V11.5H9.5ZM9.5 4.5H14.5V1.5H9.5V4.5Z" fill="#777B92"/>
<path fill-rule="evenodd" clip-rule="evenodd" d="M4.85355 6.14628C5.04882 6.34154 5.04882 6.65812 4.85355 6.85338L3.70711 7.99983L4.85355 9.14628C5.04882 9.34154 5.04882 9.65812 4.85355 9.85338C4.65829 10.0486 4.34171 10.0486 4.14645 9.85338L3 8.70694L1.85355 9.85338C1.65829 10.0486 1.34171 10.0486 1.14645 9.85338C0.951185 9.65812 0.951184 9.34154 1.14645 9.14628L2.29289 7.99983L1.14645 6.85338C0.951185 6.65812 0.951185 6.34154 1.14645 6.14628C1.34171 5.95102 1.65829 5.95102 1.85355 6.14628L3 7.29272L4.14645 6.14628C4.34171 5.95102 4.65829 5.95102 4.85355 6.14628Z" fill="#777B92"/>
</svg>
