<svg width="16" height="16" viewBox="0 0 16 16" fill="none" xmlns="http://www.w3.org/2000/svg">
<path fill-rule="evenodd" clip-rule="evenodd" d="M1.5 3C1.5 3.82843 2.17157 4.5 3 4.5C3.27614 4.5 3.5 4.72386 3.5 5C3.5 5.27614 3.27614 5.5 3 5.5C1.61929 5.5 0.5 4.38071 0.5 3C0.5 1.61929 1.61929 0.5 3 0.5H15C15.2761 0.5 15.5 0.723859 15.5 1C15.5 1.27614 15.2761 1.5 15 1.5L3 1.5C2.17157 1.5 1.5 2.17157 1.5 3Z" fill="#777B92"/>
<path fill-rule="evenodd" clip-rule="evenodd" d="M6.5 4L6.5 15C6.5 15.2761 6.27614 15.5 6 15.5C5.72386 15.5 5.5 15.2761 5.5 15L5.5 4C5.5 3.72386 5.72386 3.5 6 3.5C6.27614 3.5 6.5 3.72386 6.5 4Z" fill="#777B92"/>
<path fill-rule="evenodd" clip-rule="evenodd" d="M11.5 4L11.5 15C11.5 15.2761 11.2761 15.5 11 15.5C10.7239 15.5 10.5 15.2761 10.5 15L10.5 4C10.5 3.72386 10.7239 3.5 11 3.5C11.2761 3.5 11.5 3.72386 11.5 4Z" fill="#777B92"/>
</svg>
