<svg width="16" height="16" viewBox="0 0 16 16" fill="none" xmlns="http://www.w3.org/2000/svg">
<path fill-rule="evenodd" clip-rule="evenodd" d="M3.5 1C3.5 0.723858 3.72386 0.5 4 0.5H8C9.933 0.5 11.5 2.067 11.5 4C11.5 5.22482 10.8708 6.3027 9.91809 6.92809C11.4441 7.64816 12.5 9.20077 12.5 11C12.5 13.4853 10.4853 15.5 8 15.5H4C3.72386 15.5 3.5 15.2761 3.5 15V1ZM4.5 6.5H8C9.38071 6.5 10.5 5.38071 10.5 4C10.5 2.61929 9.38071 1.5 8 1.5H4.5V6.5ZM4.5 7.5V14.5H8C9.933 14.5 11.5 12.933 11.5 11C11.5 9.067 9.933 7.5 8 7.5H4.5Z" fill="#777B92"/>
</svg>
