<svg width="16" height="16" viewBox="0 0 16 16" fill="none" xmlns="http://www.w3.org/2000/svg">
<path fill-rule="evenodd" clip-rule="evenodd" d="M1 0.5H15C15.2761 0.5 15.5 0.723858 15.5 1C15.5 1.27614 15.2761 1.5 15 1.5H1C0.723858 1.5 0.5 1.27614 0.5 1C0.5 0.723858 0.723858 0.5 1 0.5Z" fill="#777B92"/>
<path fill-rule="evenodd" clip-rule="evenodd" d="M5.82489 10.4685L5.44732 11.2236C5.32383 11.4706 5.02349 11.5707 4.7765 11.4472C4.52951 11.3237 4.4294 11.0234 4.5529 10.7764L7.5529 4.77639C7.63759 4.607 7.81072 4.5 8.00011 4.5C8.1895 4.5 8.36263 4.607 8.44732 4.77639L11.4473 10.7764C11.5708 11.0234 11.4707 11.3237 11.2237 11.4472C10.9767 11.5707 10.6764 11.4706 10.5529 11.2236L10.1753 10.4684C10.1207 10.4888 10.0617 10.5 10 10.5H6C5.93839 10.5 5.87939 10.4889 5.82489 10.4685ZM6.30913 9.5H9.69109L8.00011 6.11803L6.30913 9.5Z" fill="#777B92"/>
<path fill-rule="evenodd" clip-rule="evenodd" d="M0.5 15C0.5 14.7239 0.723858 14.5 1 14.5H15C15.2761 14.5 15.5 14.7239 15.5 15C15.5 15.2761 15.2761 15.5 15 15.5H1C0.723858 15.5 0.5 15.2761 0.5 15Z" fill="#777B92"/>
</svg>
