<svg width="16" height="16" viewBox="0 0 16 16" fill="none" xmlns="http://www.w3.org/2000/svg">
<path fill-rule="evenodd" clip-rule="evenodd" d="M8.44732 0.776393L13.446 10.7737C13.447 10.7757 13.448 10.7777 13.449 10.7797L15.4473 14.7764C15.5708 15.0234 15.4707 15.3237 15.2237 15.4472C14.9767 15.5707 14.6764 15.4706 14.5529 15.2236L12.6911 11.5L3.30913 11.5L1.44732 15.2236C1.32383 15.4706 1.02349 15.5707 0.776503 15.4472C0.529513 15.3237 0.429401 15.0234 0.552896 14.7764L2.54627 10.7896C2.55032 10.7809 2.55461 10.7724 2.55913 10.7639L7.5529 0.776393C7.63759 0.607001 7.81072 0.5 8.00011 0.5C8.1895 0.5 8.36263 0.607001 8.44732 0.776393ZM12.1911 10.5L8.00011 2.11803L3.80913 10.5L12.1911 10.5Z" fill="#777B92"/>
</svg>
