<svg width="16" height="16" viewBox="0 0 16 16" fill="none" xmlns="http://www.w3.org/2000/svg">
<path fill-rule="evenodd" clip-rule="evenodd" d="M4.96804 11.2504C4.82977 11.4894 4.52391 11.5711 4.28488 11.4328C4.04585 11.2946 3.96416 10.9887 4.10244 10.7497C4.87975 9.40593 6.33385 8.50004 8.00011 8.50004C9.66638 8.50004 11.1205 9.40593 11.8978 10.7497C12.0361 10.9887 11.9544 11.2946 11.7153 11.4328C11.4763 11.5711 11.1705 11.4894 11.0322 11.2504C10.4263 10.2029 9.29498 9.50004 8.00011 9.50004C6.70525 9.50004 5.57396 10.2029 4.96804 11.2504Z" fill="#777B92"/>
<path fill-rule="evenodd" clip-rule="evenodd" d="M6 6C6 6.55228 5.55228 7 5 7C4.44772 7 4 6.55228 4 6C4 5.44772 4.44772 5 5 5C5.55228 5 6 5.44772 6 6Z" fill="#777B92"/>
<path fill-rule="evenodd" clip-rule="evenodd" d="M11 7C10.4477 7 10 6.55228 10 6C10 5.44772 10.4477 5 11 5C11.5523 5 12 5.44772 12 6C12 6.55228 11.5523 7 11 7Z" fill="#777B92"/>
<path fill-rule="evenodd" clip-rule="evenodd" d="M8 0.5C12.1421 0.5 15.5 3.85786 15.5 8C15.5 12.1421 12.1421 15.5 8 15.5C3.85786 15.5 0.5 12.1421 0.5 8C0.5 3.85786 3.85786 0.5 8 0.5ZM1.5 8C1.5 11.5899 4.41015 14.5 8 14.5C11.5899 14.5 14.5 11.5899 14.5 8C14.5 4.41015 11.5899 1.5 8 1.5C4.41015 1.5 1.5 4.41015 1.5 8Z" fill="#777B92"/>
</svg>
