<svg width="16" height="16" viewBox="0 0 16 16" fill="none" xmlns="http://www.w3.org/2000/svg">
<path fill-rule="evenodd" clip-rule="evenodd" d="M1 0.5H15C15.2761 0.5 15.5 0.723858 15.5 1V7C15.5 7.27614 15.2761 7.5 15 7.5H11.5V9C11.5 9.27614 11.2761 9.5 11 9.5H5C4.72386 9.5 4.5 9.27614 4.5 9V7.5H1C0.723858 7.5 0.5 7.27614 0.5 7V1C0.5 0.723858 0.723858 0.5 1 0.5ZM4.5 1.5H1.5V6.5H4.5V1.5ZM11.5 1.5V6.5H14.5V1.5H11.5ZM10.5 1.5H5.5V8.5H10.5V1.5Z" fill="#777B92"/>
<path fill-rule="evenodd" clip-rule="evenodd" d="M9.85355 11.1463C10.0488 11.3416 10.0488 11.6582 9.85355 11.8534L8.70711 12.9999L9.85355 14.1463C10.0488 14.3416 10.0488 14.6582 9.85355 14.8534C9.65829 15.0487 9.34171 15.0487 9.14645 14.8534L8 13.707L6.85355 14.8534C6.65829 15.0487 6.34171 15.0487 6.14645 14.8534C5.95118 14.6582 5.95118 14.3416 6.14645 14.1463L7.29289 12.9999L6.14645 11.8534C5.95118 11.6582 5.95118 11.3416 6.14645 11.1463C6.34171 10.9511 6.65829 10.9511 6.85355 11.1463L8 12.2928L9.14645 11.1463C9.34171 10.9511 9.65829 10.9511 9.85355 11.1463Z" fill="#777B92"/>
</svg>
