<svg width="16" height="16" viewBox="0 0 16 16" fill="none" xmlns="http://www.w3.org/2000/svg">
<path fill-rule="evenodd" clip-rule="evenodd" d="M1 0.5H15C15.2761 0.5 15.5 0.723858 15.5 1V7C15.5 7.27614 15.2761 7.5 15 7.5H11.5V9C11.5 9.27614 11.2761 9.5 11 9.5H5C4.72386 9.5 4.5 9.27614 4.5 9V7.5H1C0.723858 7.5 0.5 7.27614 0.5 7V1C0.5 0.723858 0.723858 0.5 1 0.5ZM4.5 1.5H1.5V6.5H4.5V1.5ZM11.5 1.5V6.5H14.5V1.5H11.5ZM10.5 1.5H5.5V8.5H10.5V1.5Z" fill="#777B92"/>
<path fill-rule="evenodd" clip-rule="evenodd" d="M8 10.5C8.27614 10.5 8.5 10.7239 8.5 11V12.5H10C10.2761 12.5 10.5 12.7239 10.5 13C10.5 13.2761 10.2761 13.5 10 13.5H8.5V15C8.5 15.2761 8.27614 15.5 8 15.5C7.72386 15.5 7.5 15.2761 7.5 15V13.5H6C5.72386 13.5 5.5 13.2761 5.5 13C5.5 12.7239 5.72386 12.5 6 12.5H7.5V11C7.5 10.7239 7.72386 10.5 8 10.5Z" fill="#777B92"/>
</svg>
