<svg width="16" height="16" viewBox="0 0 16 16" fill="none" xmlns="http://www.w3.org/2000/svg">
<path fill-rule="evenodd" clip-rule="evenodd" d="M1 0.5H15C15.2761 0.5 15.5 0.723858 15.5 1V9C15.5 9.27614 15.2761 9.5 15 9.5H5C4.72386 9.5 4.5 9.27614 4.5 9V7.5H1C0.723858 7.5 0.5 7.27614 0.5 7V1C0.5 0.723858 0.723858 0.5 1 0.5ZM14.5 8.5V1.5H10.5V8.5H14.5ZM9.5 8.5V1.5H5.5V8.5H9.5ZM4.5 1.5H1.5V6.5H4.5V1.5Z" fill="#777B92"/>
<path fill-rule="evenodd" clip-rule="evenodd" d="M8.35355 12.3536L8.20711 12.5H13C13.2761 12.5 13.5 12.7239 13.5 13C13.5 13.2761 13.2761 13.5 13 13.5H8.20711L8.35355 13.6464C8.54882 13.8417 8.54882 14.1583 8.35355 14.3536C8.15829 14.5488 7.84171 14.5488 7.64645 14.3536L6.64645 13.3536C6.55268 13.2598 6.5 13.1326 6.5 13C6.5 12.8674 6.55268 12.7402 6.64645 12.6464L7.64645 11.6464C7.84171 11.4512 8.15829 11.4512 8.35355 11.6464C8.54882 11.8417 8.54882 12.1583 8.35355 12.3536Z" fill="#777B92"/>
</svg>
