<svg width="16" height="16" viewBox="0 0 16 16" fill="none" xmlns="http://www.w3.org/2000/svg">
<path fill-rule="evenodd" clip-rule="evenodd" d="M1.5 1C1.5 0.723858 1.72386 0.5 2 0.5H3C3.27614 0.5 3.5 0.723858 3.5 1C3.5 1.27614 3.27614 1.5 3 1.5H2.5V6C2.5 6.07762 2.48193 6.15418 2.44721 6.22361L1.55902 8L2.44721 9.77639C2.48193 9.84582 2.5 9.92238 2.5 10V14.5H3C3.27614 14.5 3.5 14.7239 3.5 15C3.5 15.2761 3.27614 15.5 3 15.5H2C1.72386 15.5 1.5 15.2761 1.5 15V10.118L0.552786 8.22361C0.482405 8.08284 0.482405 7.91716 0.552786 7.77639L1.5 5.88197V1Z" fill="#777B92"/>
<path fill-rule="evenodd" clip-rule="evenodd" d="M9 12C9 12.5523 8.55228 13 8 13C7.44772 13 7 12.5523 7 12C7 11.4477 7.44772 11 8 11C8.55228 11 9 11.4477 9 12Z" fill="#777B92"/>
<path fill-rule="evenodd" clip-rule="evenodd" d="M5 0.5H6C6.27614 0.5 6.5 0.723858 6.5 1C6.5 1.27614 6.27614 1.5 6 1.5H5.5V6C5.5 6.07762 5.48193 6.15418 5.44721 6.22361L4.55902 8L5.44721 9.77639C5.48193 9.84582 5.5 9.92238 5.5 10V14.5H6C6.27614 14.5 6.5 14.7239 6.5 15C6.5 15.2761 6.27614 15.5 6 15.5H5C4.72386 15.5 4.5 15.2761 4.5 15V10.118L3.55279 8.22361C3.4824 8.08284 3.4824 7.91716 3.55279 7.77639L4.5 5.88197V1C4.5 0.723858 4.72386 0.5 5 0.5Z" fill="#777B92"/>
<path fill-rule="evenodd" clip-rule="evenodd" d="M12.5 1C12.5 0.723858 12.7239 0.5 13 0.5H14C14.2761 0.5 14.5 0.723858 14.5 1V5.88197L15.4472 7.77639C15.5176 7.91716 15.5176 8.08284 15.4472 8.22361L14.5 10.118V15C14.5 15.2761 14.2761 15.5 14 15.5H13C12.7239 15.5 12.5 15.2761 12.5 15C12.5 14.7239 12.7239 14.5 13 14.5H13.5V10C13.5 9.92238 13.5181 9.84582 13.5528 9.77639L14.441 8L13.5528 6.22361C13.5181 6.15418 13.5 6.07762 13.5 6V1.5H13C12.7239 1.5 12.5 1.27614 12.5 1Z" fill="#777B92"/>
<path fill-rule="evenodd" clip-rule="evenodd" d="M10 0.5H11C11.2761 0.5 11.5 0.723858 11.5 1V5.88197L12.4472 7.77639C12.5176 7.91716 12.5176 8.08284 12.4472 8.22361L11.5 10.118V15C11.5 15.2761 11.2761 15.5 11 15.5H10C9.72386 15.5 9.5 15.2761 9.5 15C9.5 14.7239 9.72386 14.5 10 14.5H10.5V10C10.5 9.92238 10.5181 9.84582 10.5528 9.77639L11.441 8L10.5528 6.22361C10.5181 6.15418 10.5 6.07762 10.5 6V1.5H10C9.72386 1.5 9.5 1.27614 9.5 1C9.5 0.723858 9.72386 0.5 10 0.5Z" fill="#777B92"/>
</svg>
