<svg width="16" height="16" viewBox="0 0 16 16" fill="none" xmlns="http://www.w3.org/2000/svg">
<path fill-rule="evenodd" clip-rule="evenodd" d="M2 1.5H14C14.2761 1.5 14.5 1.72386 14.5 2C14.5 2.27614 14.2761 2.5 14 2.5H2C1.72386 2.5 1.5 2.27614 1.5 2C1.5 1.72386 1.72386 1.5 2 1.5Z" fill="#777B92"/>
<path fill-rule="evenodd" clip-rule="evenodd" d="M2 5.5H14C14.2761 5.5 14.5 5.72386 14.5 6C14.5 6.27614 14.2761 6.5 14 6.5H2C1.72386 6.5 1.5 6.27614 1.5 6C1.5 5.72386 1.72386 5.5 2 5.5Z" fill="#777B92"/>
<path fill-rule="evenodd" clip-rule="evenodd" d="M1.5 10C1.5 9.72386 1.72386 9.5 2 9.5H14C14.2761 9.5 14.5 9.72386 14.5 10C14.5 10.2761 14.2761 10.5 14 10.5H2C1.72386 10.5 1.5 10.2761 1.5 10Z" fill="#777B92"/>
<path fill-rule="evenodd" clip-rule="evenodd" d="M2 13.5H14C14.2761 13.5 14.5 13.7239 14.5 14C14.5 14.2761 14.2761 14.5 14 14.5H2C1.72386 14.5 1.5 14.2761 1.5 14C1.5 13.7239 1.72386 13.5 2 13.5Z" fill="#777B92"/>
</svg>
