<svg width="16" height="16" viewBox="0 0 16 16" fill="none" xmlns="http://www.w3.org/2000/svg">
<path fill-rule="evenodd" clip-rule="evenodd" d="M6 3.5H8C8.27614 3.5 8.5 3.72386 8.5 4V6.69098L10.2236 7.55279C10.393 7.63748 10.5 7.81061 10.5 8C10.5 8.18939 10.393 8.36252 10.2236 8.44721L8.5 9.30902V12C8.5 12.2761 8.27614 12.5 8 12.5H6C5.72386 12.5 5.5 12.2761 5.5 12C5.5 11.7239 5.72386 11.5 6 11.5H7.5V9C7.5 8.81061 7.607 8.63748 7.77639 8.55279L8.88197 8L7.77639 7.44721C7.607 7.36252 7.5 7.18939 7.5 7V4.5H6C5.72386 4.5 5.5 4.27614 5.5 4C5.5 3.72386 5.72386 3.5 6 3.5Z" fill="#777B92"/>
<path fill-rule="evenodd" clip-rule="evenodd" d="M2 0.5H14C14.8284 0.5 15.5 1.17157 15.5 2V14C15.5 14.8284 14.8284 15.5 14 15.5H2C1.17157 15.5 0.5 14.8284 0.5 14V2C0.5 1.17157 1.17157 0.5 2 0.5ZM1.5 2V14C1.5 14.2761 1.72386 14.5 2 14.5H14C14.2761 14.5 14.5 14.2761 14.5 14V2C14.5 1.72386 14.2761 1.5 14 1.5H2C1.72386 1.5 1.5 1.72386 1.5 2Z" fill="#777B92"/>
</svg>
