<svg width="16" height="16" viewBox="0 0 16 16" fill="none" xmlns="http://www.w3.org/2000/svg">
<path fill-rule="evenodd" clip-rule="evenodd" d="M8.21358 1.72688C8.08066 1.63873 7.91934 1.63873 7.78642 1.72688C7.08744 2.19044 5.74906 3.15826 4.59071 4.45336C3.42445 5.75731 2.5 7.32643 2.5 9.00004C2.5 12.0376 4.96243 14.5 8 14.5C11.0376 14.5 13.5 12.0376 13.5 9.00004C13.5 7.32643 12.5756 5.75731 11.4093 4.45336C10.2509 3.15826 8.91256 2.19044 8.21358 1.72688ZM7.23372 0.893496C7.70162 0.58319 8.29838 0.583191 8.76628 0.893496C9.49931 1.37964 10.916 2.40178 12.1546 3.78671C13.3854 5.16278 14.5 6.96374 14.5 9.00004C14.5 12.5899 11.5899 15.5 8 15.5C4.41015 15.5 1.5 12.5899 1.5 9.00004C1.5 6.96374 2.61458 5.16278 3.84535 3.78671C5.08404 2.40178 6.50069 1.37964 7.23372 0.893496Z" fill="#777B92"/>
</svg>
