<svg width="16" height="16" viewBox="0 0 16 16" fill="none" xmlns="http://www.w3.org/2000/svg">
<path fill-rule="evenodd" clip-rule="evenodd" d="M2 1.5C1.72386 1.5 1.5 1.72386 1.5 2V14C1.5 14.2761 1.72386 14.5 2 14.5H4C4.27614 14.5 4.5 14.7239 4.5 15C4.5 15.2761 4.27614 15.5 4 15.5H2C1.17157 15.5 0.5 14.8284 0.5 14V2C0.5 1.17157 1.17157 0.5 2 0.5H4C4.27614 0.5 4.5 0.723858 4.5 1C4.5 1.27614 4.27614 1.5 4 1.5H2Z" fill="#777B92"/>
<path fill-rule="evenodd" clip-rule="evenodd" d="M11.5 1C11.5 0.723858 11.7239 0.5 12 0.5H14.25C15.0099 0.5 15.5 1.1907 15.5 1.875V14.125C15.5 14.8093 15.0099 15.5 14.25 15.5H12C11.7239 15.5 11.5 15.2761 11.5 15C11.5 14.7239 11.7239 14.5 12 14.5H14.25C14.2917 14.5 14.3465 14.4815 14.4007 14.4183C14.4558 14.3541 14.5 14.2519 14.5 14.125V1.875C14.5 1.74806 14.4558 1.64592 14.4007 1.58168C14.3465 1.51849 14.2917 1.5 14.25 1.5H12C11.7239 1.5 11.5 1.27614 11.5 1Z" fill="#777B92"/>
<path fill-rule="evenodd" clip-rule="evenodd" d="M8 10L5 7H11L8 10Z" fill="#777B92"/>
</svg>
