<svg width="16" height="16" viewBox="0 0 16 16" fill="none" xmlns="http://www.w3.org/2000/svg">
<path fill-rule="evenodd" clip-rule="evenodd" d="M8.5 1V10.7929L10.6464 8.64645C10.8417 8.45118 11.1583 8.45118 11.3536 8.64645C11.5488 8.84171 11.5488 9.15829 11.3536 9.35355L8.35355 12.3536C8.15829 12.5488 7.84171 12.5488 7.64645 12.3536L4.64645 9.35355C4.45118 9.15829 4.45118 8.84171 4.64645 8.64645C4.84171 8.45118 5.15829 8.45118 5.35355 8.64645L7.5 10.7929V1C7.5 0.723858 7.72386 0.5 8 0.5C8.27614 0.5 8.5 0.723858 8.5 1Z" fill="#777B92"/>
<path fill-rule="evenodd" clip-rule="evenodd" d="M2 14.5H14C14.2761 14.5 14.5 14.7239 14.5 15C14.5 15.2761 14.2761 15.5 14 15.5H2C1.72386 15.5 1.5 15.2761 1.5 15C1.5 14.7239 1.72386 14.5 2 14.5Z" fill="#777B92"/>
</svg>
