<svg width="16" height="16" viewBox="0 0 16 16" fill="none" xmlns="http://www.w3.org/2000/svg">
<path fill-rule="evenodd" clip-rule="evenodd" d="M8.5 1C8.5 0.723858 8.72386 0.5 9 0.5H15C15.2761 0.5 15.5 0.723858 15.5 1V15C15.5 15.2761 15.2761 15.5 15 15.5H7C6.72386 15.5 6.5 15.2761 6.5 15V6C6.5 5.72386 6.72386 5.5 7 5.5H8.5V1ZM7.5 6.5V9.5H14.5V6.5H7.5ZM14.5 10.5H7.5V14.5H14.5V10.5ZM9.5 5.5H14.5V1.5H9.5V5.5Z" fill="#777B92"/>
<path fill-rule="evenodd" clip-rule="evenodd" d="M3.35355 6.64706L4.35355 7.64706C4.54882 7.84232 4.54882 8.1589 4.35355 8.35416C4.15829 8.54943 3.84171 8.54943 3.64645 8.35416L3.5 8.20772L3.5 13.0013C3.5 13.2774 3.27614 13.5013 3 13.5013C2.72386 13.5013 2.5 13.2774 2.5 13.0013L2.5 8.20772L2.35355 8.35416C2.15829 8.54943 1.84171 8.54943 1.64645 8.35416C1.45118 8.1589 1.45118 7.84232 1.64645 7.64706L2.64645 6.64706C2.74021 6.55329 2.86739 6.50061 3 6.50061C3.13261 6.50061 3.25979 6.55329 3.35355 6.64706Z" fill="#777B92"/>
</svg>
