<svg width="16" height="16" viewBox="0 0 16 16" fill="none" xmlns="http://www.w3.org/2000/svg">
<path fill-rule="evenodd" clip-rule="evenodd" d="M4.5 1V3.5H11.2143C11.9244 3.5 12.5 4.07563 12.5 4.78571V11.5H15C15.2761 11.5 15.5 11.7239 15.5 12C15.5 12.2761 15.2761 12.5 15 12.5H12.5V15C12.5 15.2761 12.2761 15.5 12 15.5C11.7239 15.5 11.5 15.2761 11.5 15V12.5H5C4.17157 12.5 3.5 11.8284 3.5 11V4.5H1C0.723858 4.5 0.5 4.27614 0.5 4C0.5 3.72386 0.723858 3.5 1 3.5H3.5V1C3.5 0.723858 3.72386 0.5 4 0.5C4.27614 0.5 4.5 0.723858 4.5 1ZM4.5 4.5V11C4.5 11.2761 4.72386 11.5 5 11.5H11.5V4.78571C11.5 4.62792 11.3721 4.5 11.2143 4.5H4.5Z" fill="#777B92"/>
</svg>
