<svg width="16" height="16" viewBox="0 0 16 16" fill="none" xmlns="http://www.w3.org/2000/svg">
<path fill-rule="evenodd" clip-rule="evenodd" d="M9.2777 4.41574L9.2673 4.42306C9.25692 4.43044 9.23987 4.44281 9.21708 4.46017C9.17147 4.49492 9.10317 4.54944 9.01968 4.62366C8.85231 4.77243 8.62634 4.99816 8.4 5.29995C7.94844 5.90204 7.5 6.79937 7.5 7.99995C7.5 9.20054 7.94844 10.0979 8.4 10.7C8.62634 11.0017 8.85231 11.2275 9.01968 11.3762C9.10317 11.4505 9.17147 11.505 9.21708 11.5397C9.23987 11.5571 9.25692 11.5695 9.2673 11.5769L9.27771 11.5842C9.50698 11.7375 9.56907 12.0477 9.41603 12.2773C9.26285 12.5071 8.95241 12.5692 8.72265 12.416L8.72181 12.4154L8.72078 12.4147L8.71817 12.413L8.71081 12.4079L8.68778 12.3918C8.66886 12.3784 8.64294 12.3595 8.61104 12.3352C8.54728 12.2866 8.45933 12.2161 8.35532 12.1237C8.14769 11.9391 7.87366 11.6648 7.6 11.3C7.05156 10.5687 6.5 9.46604 6.5 7.99995C6.5 6.53387 7.05156 5.43121 7.6 4.69995C7.87366 4.33508 8.14769 4.06081 8.35532 3.87625C8.45933 3.7838 8.54728 3.71332 8.61104 3.66474C8.64294 3.64043 8.66886 3.62155 8.68778 3.6081L8.71081 3.59197L8.71817 3.58694L8.72078 3.58518L8.72181 3.58449C8.72181 3.58449 9.22265 3.1919 9.5 3.60793C9.77735 4.02395 9.2777 4.41574 9.2777 4.41574Z" fill="#777B92"/>
<path fill-rule="evenodd" clip-rule="evenodd" d="M2 0.5H14C14.8284 0.5 15.5 1.17157 15.5 2V14C15.5 14.8284 14.8284 15.5 14 15.5H2C1.17157 15.5 0.5 14.8284 0.5 14V2C0.5 1.17157 1.17157 0.5 2 0.5ZM1.5 2V14C1.5 14.2761 1.72386 14.5 2 14.5H14C14.2761 14.5 14.5 14.2761 14.5 14V2C14.5 1.72386 14.2761 1.5 14 1.5H2C1.72386 1.5 1.5 1.72386 1.5 2Z" fill="#777B92"/>
</svg>
