<svg width="16" height="16" viewBox="0 0 16 16" fill="none" xmlns="http://www.w3.org/2000/svg">
<path fill-rule="evenodd" clip-rule="evenodd" d="M2 0.5H8C8.82843 0.5 9.5 1.17157 9.5 2V6.5H14C14.8284 6.5 15.5 7.17157 15.5 8V14C15.5 14.8284 14.8284 15.5 14 15.5H8C7.17157 15.5 6.5 14.8284 6.5 14V9.5H2C1.17157 9.5 0.5 8.82843 0.5 8V2C0.5 1.17157 1.17157 0.5 2 0.5ZM8.5 6.5V2C8.5 1.72386 8.27614 1.5 8 1.5H2C1.72386 1.5 1.5 1.72386 1.5 2V8C1.5 8.27614 1.72386 8.5 2 8.5H6.5V8C6.5 7.17157 7.17157 6.5 8 6.5H8.5ZM7.5 14C7.5 14.2761 7.72386 14.5 8 14.5H14C14.2761 14.5 14.5 14.2761 14.5 14V8C14.5 7.72386 14.2761 7.5 14 7.5H8C7.72386 7.5 7.5 7.72386 7.5 8V14Z" fill="#777B92"/>
</svg>
