<svg width="16" height="16" viewBox="0 0 16 16" fill="none" xmlns="http://www.w3.org/2000/svg">
<path fill-rule="evenodd" clip-rule="evenodd" d="M4.96804 9.7496C5.57396 10.7971 6.70525 11.5 8.00011 11.5C9.29498 11.5 10.4263 10.7971 11.0322 9.7496C11.1705 9.51057 11.4763 9.42889 11.7153 9.56716C11.9544 9.70543 12.0361 10.0113 11.8978 10.2503C11.1205 11.5941 9.66638 12.5 8.00011 12.5C6.33385 12.5 4.87975 11.5941 4.10244 10.2503C3.96416 10.0113 4.04585 9.70543 4.28488 9.56716C4.52391 9.42889 4.82977 9.51057 4.96804 9.7496Z" fill="#777B92"/>
<path fill-rule="evenodd" clip-rule="evenodd" d="M6 6C6 6.55228 5.55228 7 5 7C4.44772 7 4 6.55228 4 6C4 5.44772 4.44772 5 5 5C5.55228 5 6 5.44772 6 6Z" fill="#777B92"/>
<path fill-rule="evenodd" clip-rule="evenodd" d="M11 7C10.4477 7 10 6.55228 10 6C10 5.44772 10.4477 5 11 5C11.5523 5 12 5.44772 12 6C12 6.55228 11.5523 7 11 7Z" fill="#777B92"/>
<path fill-rule="evenodd" clip-rule="evenodd" d="M8 0.5C12.1421 0.5 15.5 3.85786 15.5 8C15.5 12.1421 12.1421 15.5 8 15.5C3.85786 15.5 0.5 12.1421 0.5 8C0.5 3.85786 3.85786 0.5 8 0.5ZM1.5 8C1.5 11.5899 4.41015 14.5 8 14.5C11.5899 14.5 14.5 11.5899 14.5 8C14.5 4.41015 11.5899 1.5 8 1.5C4.41015 1.5 1.5 4.41015 1.5 8Z" fill="#777B92"/>
</svg>
