<svg width="16" height="16" viewBox="0 0 16 16" fill="none" xmlns="http://www.w3.org/2000/svg">
<path fill-rule="evenodd" clip-rule="evenodd" d="M1 0.5H14C14.2761 0.5 14.5 0.723858 14.5 1C14.5 1.27614 14.2761 1.5 14 1.5H1C0.723858 1.5 0.5 1.27614 0.5 1C0.5 0.723858 0.723858 0.5 1 0.5Z" fill="#777B92"/>
<path fill-rule="evenodd" clip-rule="evenodd" d="M0.5 7C0.5 6.72386 0.723858 6.5 1 6.5H12C13.933 6.5 15.5 8.067 15.5 10C15.5 11.933 13.933 13.5 12 13.5H10.2071L11.3536 14.6464C11.5488 14.8417 11.5488 15.1583 11.3536 15.3536C11.1583 15.5488 10.8417 15.5488 10.6464 15.3536L8.64645 13.3536C8.55268 13.2598 8.5 13.1326 8.5 13C8.5 12.8674 8.55268 12.7402 8.64645 12.6464L10.6464 10.6464C10.8417 10.4512 11.1583 10.4512 11.3536 10.6464C11.5488 10.8417 11.5488 11.1583 11.3536 11.3536L10.2071 12.5H12C13.3807 12.5 14.5 11.3807 14.5 10C14.5 8.61929 13.3807 7.5 12 7.5H1C0.723858 7.5 0.5 7.27614 0.5 7Z" fill="#777B92"/>
<path fill-rule="evenodd" clip-rule="evenodd" d="M0.5 13C0.5 12.7239 0.723858 12.5 1 12.5H5C5.27614 12.5 5.5 12.7239 5.5 13C5.5 13.2761 5.27614 13.5 5 13.5H1C0.723858 13.5 0.5 13.2761 0.5 13Z" fill="#777B92"/>
</svg>
