<svg width="16" height="16" viewBox="0 0 16 16" fill="none" xmlns="http://www.w3.org/2000/svg">
<path fill-rule="evenodd" clip-rule="evenodd" d="M0.5 3.5C0.5 1.84315 1.84315 0.5 3.5 0.5C5.15685 0.5 6.5 1.84315 6.5 3.5C6.5 5.15685 5.15685 6.5 3.5 6.5C1.84315 6.5 0.5 5.15685 0.5 3.5ZM3.5 1.5C2.39543 1.5 1.5 2.39543 1.5 3.5C1.5 4.60457 2.39543 5.5 3.5 5.5C4.60457 5.5 5.5 4.60457 5.5 3.5C5.5 2.39543 4.60457 1.5 3.5 1.5Z" fill="#777B92"/>
<path fill-rule="evenodd" clip-rule="evenodd" d="M15.3536 0.646447C15.5488 0.841709 15.5488 1.15829 15.3536 1.35355L1.35355 15.3536C1.15829 15.5488 0.841709 15.5488 0.646447 15.3536C0.451184 15.1583 0.451184 14.8417 0.646447 14.6464L14.6464 0.646447C14.8417 0.451184 15.1583 0.451184 15.3536 0.646447Z" fill="#777B92"/>
<path fill-rule="evenodd" clip-rule="evenodd" d="M12.5 9.5C14.1569 9.5 15.5 10.8431 15.5 12.5C15.5 14.1569 14.1569 15.5 12.5 15.5C10.8431 15.5 9.5 14.1569 9.5 12.5C9.5 10.8431 10.8431 9.5 12.5 9.5ZM10.5 12.5C10.5 13.6046 11.3954 14.5 12.5 14.5C13.6046 14.5 14.5 13.6046 14.5 12.5C14.5 11.3954 13.6046 10.5 12.5 10.5C11.3954 10.5 10.5 11.3954 10.5 12.5Z" fill="#777B92"/>
</svg>
