<svg width="16" height="16" viewBox="0 0 16 16" fill="none" xmlns="http://www.w3.org/2000/svg">
<path fill-rule="evenodd" clip-rule="evenodd" d="M0.646447 0.646447C0.740215 0.552678 0.867392 0.5 1 0.5H15C15.2761 0.5 15.5 0.723859 15.5 1V3C15.5 3.27614 15.2761 3.5 15 3.5C14.7239 3.5 14.5 3.27614 14.5 3V1.5L8.5 1.5V14.5H11C11.2761 14.5 11.5 14.7239 11.5 15C11.5 15.2761 11.2761 15.5 11 15.5H5C4.72386 15.5 4.5 15.2761 4.5 15C4.5 14.7239 4.72386 14.5 5 14.5H7.5V1.5L1.5 1.5L1.5 3C1.5 3.27614 1.27614 3.5 1 3.5C0.723858 3.5 0.5 3.27614 0.5 3V1C0.5 0.867392 0.552678 0.740215 0.646447 0.646447Z" fill="#777B92"/>
</svg>
