<svg width="16" height="16" viewBox="0 0 16 16" fill="none" xmlns="http://www.w3.org/2000/svg">
<path fill-rule="evenodd" clip-rule="evenodd" d="M8 1.5C7.17157 1.5 6.5 2.17157 6.5 3V7.5H8C8.27614 7.5 8.5 7.72386 8.5 8C8.5 8.27614 8.27614 8.5 8 8.5H6.5V13C6.5 14.3807 5.38071 15.5 4 15.5C2.61929 15.5 1.5 14.3807 1.5 13C1.5 12.7239 1.72386 12.5 2 12.5C2.27614 12.5 2.5 12.7239 2.5 13C2.5 13.8284 3.17157 14.5 4 14.5C4.82843 14.5 5.5 13.8284 5.5 13V8.5H4C3.72386 8.5 3.5 8.27614 3.5 8C3.5 7.72386 3.72386 7.5 4 7.5H5.5V3C5.5 1.61929 6.61929 0.5 8 0.5C9.38071 0.5 10.5 1.61929 10.5 3C10.5 3.27614 10.2761 3.5 10 3.5C9.72386 3.5 9.5 3.27614 9.5 3C9.5 2.17157 8.82843 1.5 8 1.5Z" fill="#777B92"/>
<path fill-rule="evenodd" clip-rule="evenodd" d="M14.3536 11.3536L12.7071 13L14.3536 14.6464C14.5488 14.8417 14.5488 15.1583 14.3536 15.3536C14.1583 15.5488 13.8417 15.5488 13.6464 15.3536L12 13.7071L10.3536 15.3536C10.1583 15.5488 9.84171 15.5488 9.64645 15.3536C9.45118 15.1583 9.45118 14.8417 9.64645 14.6464L11.2929 13L9.64645 11.3536C9.45118 11.1583 9.45118 10.8417 9.64645 10.6464C9.84171 10.4512 10.1583 10.4512 10.3536 10.6464L12 12.2929L13.6464 10.6464C13.8417 10.4512 14.1583 10.4512 14.3536 10.6464C14.5488 10.8417 14.5488 11.1583 14.3536 11.3536Z" fill="#777B92"/>
</svg>
