<svg width="16" height="16" viewBox="0 0 16 16" fill="none" xmlns="http://www.w3.org/2000/svg">
<path d="M7 1.5C5.61929 1.5 4.5 2.61929 4.5 4V11C4.5 12.933 6.067 14.5 8 14.5C9.933 14.5 11.5 12.933 11.5 11V3C11.5 2.72386 11.7239 2.5 12 2.5C12.2761 2.5 12.5 2.72386 12.5 3V11C12.5 13.4853 10.4853 15.5 8 15.5C5.51472 15.5 3.5 13.4853 3.5 11V4C3.5 2.067 5.067 0.5 7 0.5C8.933 0.5 10.5 2.067 10.5 4V11C10.5 12.3807 9.38071 13.5 8 13.5C6.61929 13.5 5.5 12.3807 5.5 11V4C5.5 3.72386 5.72386 3.5 6 3.5C6.27614 3.5 6.5 3.72386 6.5 4V11C6.5 11.8284 7.17157 12.5 8 12.5C8.82843 12.5 9.5 11.8284 9.5 11V4C9.5 2.61929 8.38071 1.5 7 1.5Z" fill="#777B92"/>
</svg>
