<svg width="16" height="16" viewBox="0 0 16 16" fill="none" xmlns="http://www.w3.org/2000/svg">
<path fill-rule="evenodd" clip-rule="evenodd" d="M11 3C10.4477 3 10 2.55228 10 2C10 1.44772 10.4477 1 11 1C11.5523 1 12 1.44772 12 2C12 2.55228 11.5523 3 11 3Z" fill="#777B92"/>
<path fill-rule="evenodd" clip-rule="evenodd" d="M11 6C10.4477 6 10 5.55228 10 5C10 4.44772 10.4477 4 11 4C11.5523 4 12 4.44772 12 5C12 5.55228 11.5523 6 11 6Z" fill="#777B92"/>
<path fill-rule="evenodd" clip-rule="evenodd" d="M12 8C12 8.55228 11.5523 9 11 9C10.4477 9 10 8.55228 10 8C10 7.44772 10.4477 7 11 7C11.5523 7 12 7.44772 12 8Z" fill="#777B92"/>
<path fill-rule="evenodd" clip-rule="evenodd" d="M14 3C13.4477 3 13 2.55228 13 2C13 1.44772 13.4477 1 14 1C14.5523 1 15 1.44772 15 2C15 2.55228 14.5523 3 14 3Z" fill="#777B92"/>
<path fill-rule="evenodd" clip-rule="evenodd" d="M15 5C15 5.55228 14.5523 6 14 6C13.4477 6 13 5.55228 13 5C13 4.44772 13.4477 4 14 4C14.5523 4 15 4.44772 15 5Z" fill="#777B92"/>
<path fill-rule="evenodd" clip-rule="evenodd" d="M14 9C13.4477 9 13 8.55228 13 8C13 7.44772 13.4477 7 14 7C14.5523 7 15 7.44772 15 8C15 8.55228 14.5523 9 14 9Z" fill="#777B92"/>
<path fill-rule="evenodd" clip-rule="evenodd" d="M0.5 11C0.5 10.7239 0.723858 10.5 1 10.5H9C9.27614 10.5 9.5 10.7239 9.5 11V15C9.5 15.2761 9.27614 15.5 9 15.5H1C0.723858 15.5 0.5 15.2761 0.5 15V11ZM1.5 11.5V14.5H8.5V11.5H1.5Z" fill="#777B92"/>
<path fill-rule="evenodd" clip-rule="evenodd" d="M7.35355 5.35355L5.35355 7.35355C5.15829 7.54882 4.84171 7.54882 4.64645 7.35355L2.64645 5.35355C2.45118 5.15829 2.45118 4.84171 2.64645 4.64645C2.84171 4.45118 3.15829 4.45118 3.35355 4.64645L4.5 5.79289V2C4.5 1.72386 4.72386 1.5 5 1.5C5.27614 1.5 5.5 1.72386 5.5 2V5.79289L6.64645 4.64645C6.84171 4.45118 7.15829 4.45118 7.35355 4.64645C7.54882 4.84171 7.54882 5.15829 7.35355 5.35355Z" fill="#777B92"/>
</svg>
