<svg width="16" height="16" viewBox="0 0 16 16" fill="none" xmlns="http://www.w3.org/2000/svg">
<path fill-rule="evenodd" clip-rule="evenodd" d="M14 3C13.4477 3 13 2.55229 13 2C13 1.44772 13.4477 1 14 1C14.5523 1 15 1.44772 15 2C15 2.55229 14.5523 3 14 3Z" fill="#777B92"/>
<path fill-rule="evenodd" clip-rule="evenodd" d="M12 8C12 8.55229 11.5523 9 11 9C10.4477 9 10 8.55229 10 8C10 7.44772 10.4477 7 11 7C11.5523 7 12 7.44772 12 8Z" fill="#777B92"/>
<path fill-rule="evenodd" clip-rule="evenodd" d="M11 3C10.4477 3 10 2.55229 10 2C10 1.44772 10.4477 1 11 1C11.5523 1 12 1.44772 12 2C12 2.55229 11.5523 3 11 3Z" fill="#777B92"/>
<path fill-rule="evenodd" clip-rule="evenodd" d="M6 14C6 14.5523 5.55229 15 5 15C4.44772 15 4 14.5523 4 14C4 13.4477 4.44772 13 5 13C5.55229 13 6 13.4477 6 14Z" fill="#777B92"/>
<path fill-rule="evenodd" clip-rule="evenodd" d="M6 2C6 2.55229 5.55229 3 5 3C4.44772 3 4 2.55229 4 2C4 1.44772 4.44772 1 5 1C5.55229 1 6 1.44772 6 2Z" fill="#777B92"/>
<path fill-rule="evenodd" clip-rule="evenodd" d="M3 2C3 2.55229 2.55229 3 2 3C1.44772 3 1 2.55229 1 2C1 1.44772 1.44772 1 2 1C2.55229 1 3 1.44772 3 2Z" fill="#777B92"/>
<path fill-rule="evenodd" clip-rule="evenodd" d="M5 9C4.44772 9 4 8.55229 4 8C4 7.44772 4.44771 7 5 7C5.55229 7 6 7.44772 6 8C6 8.55229 5.55229 9 5 9Z" fill="#777B92"/>
<path fill-rule="evenodd" clip-rule="evenodd" d="M11 15C10.4477 15 10 14.5523 10 14C10 13.4477 10.4477 13 11 13C11.5523 13 12 13.4477 12 14C12 14.5523 11.5523 15 11 15Z" fill="#777B92"/>
<path fill-rule="evenodd" clip-rule="evenodd" d="M8 1.5C8.27614 1.5 8.5 1.72386 8.5 2V14C8.5 14.2761 8.27614 14.5 8 14.5C7.72386 14.5 7.5 14.2761 7.5 14V2C7.5 1.72386 7.72386 1.5 8 1.5Z" fill="#777B92"/>
<path fill-rule="evenodd" clip-rule="evenodd" d="M15 5C15 5.55229 14.5523 6 14 6C13.4477 6 13 5.55229 13 5C13 4.44772 13.4477 4 14 4C14.5523 4 15 4.44772 15 5Z" fill="#777B92"/>
<path fill-rule="evenodd" clip-rule="evenodd" d="M2 6C1.44772 6 1 5.55229 1 5C1 4.44772 1.44772 4 2 4C2.55229 4 3 4.44772 3 5C3 5.55228 2.55229 6 2 6Z" fill="#777B92"/>
<path fill-rule="evenodd" clip-rule="evenodd" d="M15 8C15 8.55229 14.5523 9 14 9C13.4477 9 13 8.55229 13 8C13 7.44772 13.4477 7 14 7C14.5523 7 15 7.44772 15 8Z" fill="#777B92"/>
<path fill-rule="evenodd" clip-rule="evenodd" d="M2 9C1.44772 9 1 8.55229 1 8C1 7.44772 1.44771 7 2 7C2.55229 7 3 7.44772 3 8C3 8.55229 2.55229 9 2 9Z" fill="#777B92"/>
<path fill-rule="evenodd" clip-rule="evenodd" d="M15 11C15 11.5523 14.5523 12 14 12C13.4477 12 13 11.5523 13 11C13 10.4477 13.4477 10 14 10C14.5523 10 15 10.4477 15 11Z" fill="#777B92"/>
<path fill-rule="evenodd" clip-rule="evenodd" d="M2 12C1.44772 12 1 11.5523 1 11C1 10.4477 1.44771 10 2 10C2.55229 10 3 10.4477 3 11C3 11.5523 2.55229 12 2 12Z" fill="#777B92"/>
<path fill-rule="evenodd" clip-rule="evenodd" d="M15 14C15 14.5523 14.5523 15 14 15C13.4477 15 13 14.5523 13 14C13 13.4477 13.4477 13 14 13C14.5523 13 15 13.4477 15 14Z" fill="#777B92"/>
<path fill-rule="evenodd" clip-rule="evenodd" d="M2 15C1.44772 15 1 14.5523 1 14C1 13.4477 1.44772 13 2 13C2.55229 13 3 13.4477 3 14C3 14.5523 2.55229 15 2 15Z" fill="#777B92"/>
</svg>
