<svg width="16" height="16" viewBox="0 0 16 16" fill="none" xmlns="http://www.w3.org/2000/svg">
<path fill-rule="evenodd" clip-rule="evenodd" d="M11 0.5H15C15.2761 0.5 15.5 0.723858 15.5 1V9C15.5 9.27614 15.2761 9.5 15 9.5H11C10.7239 9.5 10.5 9.27614 10.5 9V1C10.5 0.723858 10.7239 0.5 11 0.5ZM11.5 8.5H14.5V1.5H11.5V8.5Z" fill="#777B92"/>
<path fill-rule="evenodd" clip-rule="evenodd" d="M5.35364 2.64555L7.35364 4.64648C7.44738 4.74027 7.50003 4.86746 7.5 5.00007C7.49997 5.13267 7.44726 5.25984 7.35347 5.35359L5.35347 7.35266C5.15816 7.54788 4.84158 7.5478 4.64636 7.35249C4.45115 7.15719 4.45122 6.8406 4.64653 6.64539L5.7925 5.49995H2C1.72386 5.49995 1.5 5.27609 1.5 4.99995C1.5 4.72381 1.72386 4.49995 2 4.49995H5.79329L4.64636 3.35249C4.45115 3.15719 4.45122 2.84061 4.64653 2.64539C4.84184 2.45017 5.15842 2.45024 5.35364 2.64555Z" fill="#777B92"/>
<path fill-rule="evenodd" clip-rule="evenodd" d="M8 12C7.44772 12 7 11.5523 7 11C7 10.4477 7.44772 10 8 10C8.55228 10 9 10.4477 9 11C9 11.5523 8.55228 12 8 12Z" fill="#777B92"/>
<path fill-rule="evenodd" clip-rule="evenodd" d="M9 14C9 14.5523 8.55228 15 8 15C7.44772 15 7 14.5523 7 14C7 13.4477 7.44772 13 8 13C8.55228 13 9 13.4477 9 14Z" fill="#777B92"/>
<path fill-rule="evenodd" clip-rule="evenodd" d="M5 12C4.44772 12 4 11.5523 4 11C4 10.4477 4.44772 10 5 10C5.55228 10 6 10.4477 6 11C6 11.5523 5.55228 12 5 12Z" fill="#777B92"/>
<path fill-rule="evenodd" clip-rule="evenodd" d="M6 14C6 14.5523 5.55228 15 5 15C4.44772 15 4 14.5523 4 14C4 13.4477 4.44772 13 5 13C5.55228 13 6 13.4477 6 14Z" fill="#777B92"/>
<path fill-rule="evenodd" clip-rule="evenodd" d="M2 12C1.44772 12 1 11.5523 1 11C1 10.4477 1.44772 10 2 10C2.55228 10 3 10.4477 3 11C3 11.5523 2.55228 12 2 12Z" fill="#777B92"/>
<path fill-rule="evenodd" clip-rule="evenodd" d="M3 14C3 14.5523 2.55228 15 2 15C1.44772 15 1 14.5523 1 14C1 13.4477 1.44772 13 2 13C2.55228 13 3 13.4477 3 14Z" fill="#777B92"/>
</svg>
