<svg width="16" height="16" viewBox="0 0 16 16" fill="none" xmlns="http://www.w3.org/2000/svg">
<path fill-rule="evenodd" clip-rule="evenodd" d="M3 2C3 2.55228 2.55228 3 2 3C1.44772 3 1 2.55228 1 2C1 1.44772 1.44772 1 2 1C2.55228 1 3 1.44772 3 2Z" fill="#777B92"/>
<path fill-rule="evenodd" clip-rule="evenodd" d="M6 2C6 2.55228 5.55228 3 5 3C4.44772 3 4 2.55228 4 2C4 1.44772 4.44772 1 5 1C5.55228 1 6 1.44772 6 2Z" fill="#777B92"/>
<path fill-rule="evenodd" clip-rule="evenodd" d="M5 15C4.44772 15 4 14.5523 4 14C4 13.4477 4.44772 13 5 13C5.55228 13 6 13.4477 6 14C6 14.5523 5.55228 15 5 15Z" fill="#777B92"/>
<path fill-rule="evenodd" clip-rule="evenodd" d="M3 14C3 14.5523 2.55228 15 2 15C1.44772 15 1 14.5523 1 14C1 13.4477 1.44772 13 2 13C2.55228 13 3 13.4477 3 14Z" fill="#777B92"/>
<path fill-rule="evenodd" clip-rule="evenodd" d="M8 3C7.44772 3 7 2.55228 7 2C7 1.44772 7.44772 1 8 1C8.55228 1 9 1.44772 9 2C9 2.55228 8.55228 3 8 3Z" fill="#777B92"/>
<path fill-rule="evenodd" clip-rule="evenodd" d="M9 14C9 14.5523 8.55228 15 8 15C7.44772 15 7 14.5523 7 14C7 13.4477 7.44772 13 8 13C8.55228 13 9 13.4477 9 14Z" fill="#777B92"/>
<path fill-rule="evenodd" clip-rule="evenodd" d="M8 6C7.44772 6 7 5.55228 7 5C7 4.44772 7.44772 4 8 4C8.55228 4 9 4.44772 9 5C9 5.55228 8.55228 6 8 6Z" fill="#777B92"/>
<path fill-rule="evenodd" clip-rule="evenodd" d="M9 8C9 8.55228 8.55228 9 8 9C7.44772 9 7 8.55228 7 8C7 7.44772 7.44772 7 8 7C8.55228 7 9 7.44772 9 8Z" fill="#777B92"/>
<path fill-rule="evenodd" clip-rule="evenodd" d="M8 12C7.44772 12 7 11.5523 7 11C7 10.4477 7.44772 10 8 10C8.55228 10 9 10.4477 9 11C9 11.5523 8.55228 12 8 12Z" fill="#777B92"/>
<path fill-rule="evenodd" clip-rule="evenodd" d="M6 8C6 8.55228 5.55228 9 5 9C4.44772 9 4 8.55228 4 8C4 7.44772 4.44772 7 5 7C5.55228 7 6 7.44772 6 8Z" fill="#777B92"/>
<path fill-rule="evenodd" clip-rule="evenodd" d="M11 3C10.4477 3 10 2.55228 10 2C10 1.44772 10.4477 1 11 1C11.5523 1 12 1.44772 12 2C12 2.55228 11.5523 3 11 3Z" fill="#777B92"/>
<path fill-rule="evenodd" clip-rule="evenodd" d="M12 14C12 14.5523 11.5523 15 11 15C10.4477 15 10 14.5523 10 14C10 13.4477 10.4477 13 11 13C11.5523 13 12 13.4477 12 14Z" fill="#777B92"/>
<path fill-rule="evenodd" clip-rule="evenodd" d="M14 15C13.4477 15 13 14.5523 13 14C13 13.4477 13.4477 13 14 13C14.5523 13 15 13.4477 15 14C15 14.5523 14.5523 15 14 15Z" fill="#777B92"/>
<path fill-rule="evenodd" clip-rule="evenodd" d="M12 8C12 8.55228 11.5523 9 11 9C10.4477 9 10 8.55228 10 8C10 7.44772 10.4477 7 11 7C11.5523 7 12 7.44772 12 8Z" fill="#777B92"/>
<path fill-rule="evenodd" clip-rule="evenodd" d="M14 3C13.4477 3 13 2.55228 13 2C13 1.44772 13.4477 1 14 1C14.5523 1 15 1.44772 15 2C15 2.55228 14.5523 3 14 3Z" fill="#777B92"/>
<path fill-rule="evenodd" clip-rule="evenodd" d="M15 5C15 5.55228 14.5523 6 14 6C13.4477 6 13 5.55228 13 5C13 4.44772 13.4477 4 14 4C14.5523 4 15 4.44772 15 5Z" fill="#777B92"/>
<path fill-rule="evenodd" clip-rule="evenodd" d="M2 6C1.44772 6 1 5.55228 1 5C1 4.44772 1.44772 4 2 4C2.55228 4 3 4.44772 3 5C3 5.55228 2.55228 6 2 6Z" fill="#777B92"/>
<path fill-rule="evenodd" clip-rule="evenodd" d="M15 8C15 8.55228 14.5523 9 14 9C13.4477 9 13 8.55228 13 8C13 7.44772 13.4477 7 14 7C14.5523 7 15 7.44772 15 8Z" fill="#777B92"/>
<path fill-rule="evenodd" clip-rule="evenodd" d="M2 9C1.44772 9 1 8.55228 1 8C1 7.44772 1.44772 7 2 7C2.55228 7 3 7.44772 3 8C3 8.55228 2.55228 9 2 9Z" fill="#777B92"/>
<path fill-rule="evenodd" clip-rule="evenodd" d="M15 11C15 11.5523 14.5523 12 14 12C13.4477 12 13 11.5523 13 11C13 10.4477 13.4477 10 14 10C14.5523 10 15 10.4477 15 11Z" fill="#777B92"/>
<path fill-rule="evenodd" clip-rule="evenodd" d="M2 12C1.44772 12 1 11.5523 1 11C1 10.4477 1.44772 10 2 10C2.55228 10 3 10.4477 3 11C3 11.5523 2.55228 12 2 12Z" fill="#777B92"/>
</svg>
