<svg width="16" height="16" viewBox="0 0 16 16" fill="none" xmlns="http://www.w3.org/2000/svg">
<path fill-rule="evenodd" clip-rule="evenodd" d="M1 1.5H15C15.2761 1.5 15.5 1.72386 15.5 2C15.5 2.27614 15.2761 2.5 15 2.5H1C0.723858 2.5 0.5 2.27614 0.5 2C0.5 1.72386 0.723858 1.5 1 1.5Z" fill="#777B92"/>
<path fill-rule="evenodd" clip-rule="evenodd" d="M1 13.5H15C15.2761 13.5 15.5 13.7239 15.5 14C15.5 14.2761 15.2761 14.5 15 14.5H1C0.723858 14.5 0.5 14.2761 0.5 14C0.5 13.7239 0.723858 13.5 1 13.5Z" fill="#777B92"/>
<path fill-rule="evenodd" clip-rule="evenodd" d="M3.5 6C3.5 5.72386 3.72386 5.5 4 5.5H12C12.2761 5.5 12.5 5.72386 12.5 6C12.5 6.27614 12.2761 6.5 12 6.5H4C3.72386 6.5 3.5 6.27614 3.5 6Z" fill="#777B92"/>
<path fill-rule="evenodd" clip-rule="evenodd" d="M4 9.5H12C12.2761 9.5 12.5 9.72386 12.5 10C12.5 10.2761 12.2761 10.5 12 10.5H4C3.72386 10.5 3.5 10.2761 3.5 10C3.5 9.72386 3.72386 9.5 4 9.5Z" fill="#777B92"/>
</svg>
