<svg width="16" height="16" viewBox="0 0 16 16" fill="none" xmlns="http://www.w3.org/2000/svg">
<g clip-path="url(#clip0_13649_20784)">
<path fill-rule="evenodd" clip-rule="evenodd" d="M8.5 15C8.5 15.2761 8.27614 15.5 8 15.5C7.72386 15.5 7.5 15.2761 7.5 15V5.20711L5.35355 7.35355C5.15829 7.54882 4.84171 7.54882 4.64645 7.35355C4.45118 7.15829 4.45118 6.84171 4.64645 6.64645L7.64645 3.64645C7.84171 3.45118 8.15829 3.45118 8.35355 3.64645L11.3536 6.64645C11.5488 6.84171 11.5488 7.15829 11.3536 7.35355C11.1583 7.54882 10.8417 7.54882 10.6464 7.35355L8.5 5.20711V15Z" fill="#777B92"/>
<path fill-rule="evenodd" clip-rule="evenodd" d="M2 0.5L14 0.5C14.2761 0.5 14.5 0.723858 14.5 1C14.5 1.27614 14.2761 1.5 14 1.5L2 1.5C1.72386 1.5 1.5 1.27614 1.5 1C1.5 0.723858 1.72386 0.5 2 0.5Z" fill="#777B92"/>
</g>
<defs>
<clipPath id="clip0_13649_20784">
<rect width="16" height="16" fill="white" transform="translate(16 16) rotate(-180)"/>
</clipPath>
</defs>
</svg>
