<svg width="16" height="16" viewBox="0 0 16 16" fill="none" xmlns="http://www.w3.org/2000/svg">
<path fill-rule="evenodd" clip-rule="evenodd" d="M1.5 1C1.5 0.723858 1.72386 0.5 2 0.5H4C4.27614 0.5 4.5 0.723858 4.5 1C4.5 1.27614 4.27614 1.5 4 1.5H2.5V6C2.5 6.07762 2.48193 6.15418 2.44721 6.22361L1.55902 8L2.44721 9.77639C2.48193 9.84582 2.5 9.92238 2.5 10V14.5H4C4.27614 14.5 4.5 14.7239 4.5 15C4.5 15.2761 4.27614 15.5 4 15.5H2C1.72386 15.5 1.5 15.2761 1.5 15V10.118L0.552786 8.22361C0.482405 8.08284 0.482405 7.91716 0.552786 7.77639L1.5 5.88197V1Z" fill="#777B92"/>
<path fill-rule="evenodd" clip-rule="evenodd" d="M6 12C6 12.5523 5.55228 13 5 13C4.44772 13 4 12.5523 4 12C4 11.4477 4.44772 11 5 11C5.55228 11 6 11.4477 6 12Z" fill="#777B92"/>
<path fill-rule="evenodd" clip-rule="evenodd" d="M9 12C9 12.5523 8.55228 13 8 13C7.44772 13 7 12.5523 7 12C7 11.4477 7.44772 11 8 11C8.55228 11 9 11.4477 9 12Z" fill="#777B92"/>
<path fill-rule="evenodd" clip-rule="evenodd" d="M11 13C10.4477 13 10 12.5523 10 12C10 11.4477 10.4477 11 11 11C11.5523 11 12 11.4477 12 12C12 12.5523 11.5523 13 11 13Z" fill="#777B92"/>
<path fill-rule="evenodd" clip-rule="evenodd" d="M12 0.5H14C14.2761 0.5 14.5 0.723858 14.5 1V5.88197L15.4472 7.77639C15.5176 7.91716 15.5176 8.08284 15.4472 8.22361L14.5 10.118V15C14.5 15.2761 14.2761 15.5 14 15.5H12C11.7239 15.5 11.5 15.2761 11.5 15C11.5 14.7239 11.7239 14.5 12 14.5H13.5V10C13.5 9.92238 13.5181 9.84582 13.5528 9.77639L14.441 8L13.5528 6.22361C13.5181 6.15418 13.5 6.07762 13.5 6V1.5H12C11.7239 1.5 11.5 1.27614 11.5 1C11.5 0.723858 11.7239 0.5 12 0.5Z" fill="#777B92"/>
</svg>
