<svg width="16" height="16" viewBox="0 0 16 16" fill="none" xmlns="http://www.w3.org/2000/svg">
<g clip-path="url(#clip0_389_13087)">
<path fill-rule="evenodd" clip-rule="evenodd" d="M8.5 1C8.5 0.723859 8.27614 0.500001 8 0.500001C7.72386 0.500001 7.5 0.723859 7.5 1V10.7929L5.35355 8.64645C5.15829 8.45119 4.84171 8.45119 4.64645 8.64645C4.45118 8.84171 4.45118 9.15829 4.64645 9.35356L7.64645 12.3536C7.84171 12.5488 8.15829 12.5488 8.35355 12.3536L11.3536 9.35356C11.5488 9.15829 11.5488 8.84171 11.3536 8.64645C11.1583 8.45119 10.8417 8.45119 10.6464 8.64645L8.5 10.7929V1ZM2 14.5C1.72386 14.5 1.5 14.7239 1.5 15C1.5 15.2761 1.72386 15.5 2 15.5H14C14.2761 15.5 14.5 15.2761 14.5 15C14.5 14.7239 14.2761 14.5 14 14.5H2Z" fill="currentColor"/>
</g>
<defs>
<clipPath id="clip0_389_13087">
<rect width="16" height="16" fill="white"/>
</clipPath>
</defs>
</svg>
