<svg width="16" height="16" viewBox="0 0 16 16" fill="none" xmlns="http://www.w3.org/2000/svg">
<path fill-rule="evenodd" clip-rule="evenodd" d="M1 1.5C0.723858 1.5 0.5 1.72386 0.5 2C0.5 2.27614 0.723858 2.5 1 2.5H15C15.2761 2.5 15.5 2.27614 15.5 2C15.5 1.72386 15.2761 1.5 15 1.5H1ZM7 5.5C6.72386 5.5 6.5 5.72386 6.5 6C6.5 6.27614 6.72386 6.5 7 6.5H15C15.2761 6.5 15.5 6.27614 15.5 6C15.5 5.72386 15.2761 5.5 15 5.5H7ZM6.5 10C6.5 9.72386 6.72386 9.5 7 9.5H15C15.2761 9.5 15.5 9.72386 15.5 10C15.5 10.2761 15.2761 10.5 15 10.5H7C6.72386 10.5 6.5 10.2761 6.5 10ZM1 13.5C0.723858 13.5 0.5 13.7239 0.5 14C0.5 14.2761 0.723858 14.5 1 14.5H15C15.2761 14.5 15.5 14.2761 15.5 14C15.5 13.7239 15.2761 13.5 15 13.5H1Z" fill="#6E778C"/>
</svg>
