<svg width="16" height="16" viewBox="0 0 16 16" fill="none" xmlns="http://www.w3.org/2000/svg">
<g clip-path="url(#clip0_418_11727)">
<path fill-rule="evenodd" clip-rule="evenodd" d="M0.5 1C0.5 0.723858 0.723858 0.5 1 0.5H15C15.2761 0.5 15.5 0.723858 15.5 1C15.5 1.27614 15.2761 1.5 15 1.5L1 1.5C0.723858 1.5 0.5 1.27614 0.5 1ZM0.5 15C0.5 14.7239 0.723858 14.5 1 14.5L15 14.5C15.2761 14.5 15.5 14.7239 15.5 15C15.5 15.2761 15.2761 15.5 15 15.5L1 15.5C0.723858 15.5 0.5 15.2761 0.5 15ZM8.35355 3.64645C8.25979 3.55268 8.13261 3.5 8 3.5C7.86739 3.5 7.74022 3.55268 7.64645 3.64645L5.64645 5.64645C5.45118 5.84171 5.45118 6.15829 5.64645 6.35355C5.84171 6.54882 6.15829 6.54882 6.35355 6.35355L7.5 5.20711V10.7929L6.35355 9.64645C6.15829 9.45118 5.84171 9.45118 5.64645 9.64645C5.45118 9.84171 5.45118 10.1583 5.64645 10.3536L7.64645 12.3536C7.74021 12.4473 7.86739 12.5 8 12.5C8.13261 12.5 8.25978 12.4473 8.35355 12.3536L10.3536 10.3536C10.5488 10.1583 10.5488 9.84171 10.3536 9.64645C10.1583 9.45118 9.84171 9.45118 9.64645 9.64645L8.5 10.7929V5.20711L9.64645 6.35355C9.84171 6.54882 10.1583 6.54882 10.3536 6.35355C10.5488 6.15829 10.5488 5.84171 10.3536 5.64645L8.35355 3.64645Z" fill="#6E778C"/>
</g>
<defs>
<clipPath id="clip0_418_11727">
<rect width="16" height="16" fill="white"/>
</clipPath>
</defs>
</svg>
