<svg width="16" height="16" viewBox="0 0 16 16" fill="none" xmlns="http://www.w3.org/2000/svg">
<g clip-path="url(#clip0_418_11716)">
<path fill-rule="evenodd" clip-rule="evenodd" d="M2 0.5C1.17157 0.5 0.5 1.17157 0.5 2V14C0.5 14.8284 1.17157 15.5 2 15.5H3C3.27614 15.5 3.5 15.2761 3.5 15C3.5 14.7239 3.27614 14.5 3 14.5H2C1.72386 14.5 1.5 14.2761 1.5 14V2C1.5 1.72386 1.72386 1.5 2 1.5H3C3.27614 1.5 3.5 1.27614 3.5 1C3.5 0.723858 3.27614 0.5 3 0.5H2ZM12.4 3.7C12.2343 3.47909 11.9209 3.43431 11.7 3.6C11.4791 3.76569 11.4343 4.07909 11.6 4.3L14 7.5H5C4.72386 7.5 4.5 7.72386 4.5 8C4.5 8.27614 4.72386 8.5 5 8.5H14L11.6 11.7C11.4343 11.9209 11.4791 12.2343 11.7 12.4C11.9209 12.5657 12.2343 12.5209 12.4 12.3L15.4 8.3C15.5333 8.12222 15.5333 7.87778 15.4 7.7L12.4 3.7Z" fill="currentColor"/>
</g>
<defs>
<clipPath id="clip0_418_11716">
<rect width="16" height="16" fill="white"/>
</clipPath>
</defs>
</svg>
