<svg width="16" height="16" viewBox="0 0 16 16" fill="none" xmlns="http://www.w3.org/2000/svg">
<path fill-rule="evenodd" clip-rule="evenodd" d="M8.5 1C8.5 0.723858 8.27614 0.5 8 0.5C7.72386 0.5 7.5 0.723858 7.5 1V12.7929L3.35355 8.64645C3.15829 8.45118 2.84171 8.45118 2.64645 8.64645C2.45118 8.84171 2.45118 9.15829 2.64645 9.35355L7.64645 14.3536C7.74395 14.4511 7.87171 14.4999 7.99951 14.5H3C2.72386 14.5 2.5 14.7239 2.5 15C2.5 15.2761 2.72386 15.5 3 15.5H13C13.2761 15.5 13.5 15.2761 13.5 15C13.5 14.7239 13.2761 14.5 13 14.5H8.00049C8.12829 14.4999 8.25605 14.4511 8.35355 14.3536L13.3536 9.35355C13.5488 9.15829 13.5488 8.84171 13.3536 8.64645C13.1583 8.45118 12.8417 8.45118 12.6464 8.64645L8.5 12.7929V1Z" fill="#6E778C"/>
</svg>
