<svg width="16" height="16" viewBox="0 0 16 16" fill="none" xmlns="http://www.w3.org/2000/svg">
<g clip-path="url(#clip0_389_13059)">
<path fill-rule="evenodd" clip-rule="evenodd" d="M2 0.5C1.17157 0.5 0.5 1.17157 0.5 2V5C0.5 5.38418 0.644427 5.73462 0.881947 6C0.644427 6.26538 0.5 6.61582 0.5 7V9C0.5 9.38418 0.644427 9.73462 0.881947 10C0.644427 10.2654 0.5 10.6158 0.5 11V14C0.5 14.8284 1.17157 15.5 2 15.5H9.5C9.77614 15.5 10 15.2761 10 15C10 14.7239 9.77614 14.5 9.5 14.5H2C1.72386 14.5 1.5 14.2761 1.5 14V11C1.5 10.7239 1.72386 10.5 2 10.5H10H14C14.8284 10.5 15.5 9.82843 15.5 9V7C15.5 6.61582 15.3556 6.26538 15.1181 6C15.3556 5.73462 15.5 5.38418 15.5 5V2C15.5 1.17157 14.8284 0.5 14 0.5H2ZM14 9.5H10H2C1.72386 9.5 1.5 9.27614 1.5 9V7C1.5 6.72386 1.72386 6.5 2 6.5H14C14.2761 6.5 14.5 6.72386 14.5 7V9C14.5 9.27614 14.2761 9.5 14 9.5ZM1.5 2C1.5 1.72386 1.72386 1.5 2 1.5H14C14.2761 1.5 14.5 1.72386 14.5 2V5C14.5 5.27614 14.2761 5.5 14 5.5H2C1.72386 5.5 1.5 5.27614 1.5 5V2ZM15.3737 12.3322C15.5572 12.1258 15.5386 11.8098 15.3322 11.6263C15.1258 11.4428 14.8098 11.4614 14.6263 11.6678L12.3333 14.2474L11.3737 13.1678C11.1902 12.9614 10.8742 12.9428 10.6678 13.1263C10.4614 13.3098 10.4428 13.6258 10.6263 13.8322L11.9596 15.3322C12.0545 15.4389 12.1905 15.5 12.3333 15.5C12.4762 15.5 12.6122 15.4389 12.707 15.3322L15.3737 12.3322Z" fill="#6E778C"/>
</g>
<defs>
<clipPath id="clip0_389_13059">
<rect width="16" height="16" fill="white"/>
</clipPath>
</defs>
</svg>
