<svg width="16" height="16" viewBox="0 0 16 16" fill="none" xmlns="http://www.w3.org/2000/svg">
<path fill-rule="evenodd" clip-rule="evenodd" d="M8 0.5C4.96243 0.5 2.5 2.96243 2.5 6V10.7639C2.5 10.8416 2.48193 10.9181 2.44721 10.9875L1.55279 12.7764C1.47529 12.9314 1.48357 13.1155 1.57468 13.2629C1.66578 13.4103 1.82671 13.5 2 13.5H5.55001C5.78164 14.6411 6.79052 15.5 8 15.5C9.20948 15.5 10.2184 14.6411 10.45 13.5H14C14.1733 13.5 14.3342 13.4103 14.4253 13.2629C14.5164 13.1155 14.5247 12.9314 14.4472 12.7764L13.5528 10.9875C13.5181 10.9181 13.5 10.8416 13.5 10.7639V6C13.5 2.96243 11.0376 0.5 8 0.5ZM9.99918 12.5C9.99945 12.5 9.99973 12.5 10 12.5C10.0003 12.5 10.0005 12.5 10.0008 12.5H13.191L12.6584 11.4347C12.5542 11.2265 12.5 10.9968 12.5 10.7639V6C12.5 3.51472 10.4853 1.5 8 1.5C5.51472 1.5 3.5 3.51472 3.5 6V10.7639C3.5 10.9968 3.44578 11.2265 3.34164 11.4348L2.80902 12.5H5.99945C5.99964 12.5 5.99982 12.5 6 12.5C6.00018 12.5 6.00037 12.5 6.00055 12.5L9.99918 12.5ZM6.58535 13.5L9.41465 13.5C9.20873 14.0826 8.65311 14.5 8 14.5C7.34689 14.5 6.79127 14.0826 6.58535 13.5ZM8.5 5C8.5 4.72386 8.27614 4.5 8 4.5C7.72386 4.5 7.5 4.72386 7.5 5V6.5H6C5.72386 6.5 5.5 6.72386 5.5 7C5.5 7.27614 5.72386 7.5 6 7.5H7.5V9C7.5 9.27614 7.72386 9.5 8 9.5C8.27614 9.5 8.5 9.27614 8.5 9V7.5H10C10.2761 7.5 10.5 7.27614 10.5 7C10.5 6.72386 10.2761 6.5 10 6.5H8.5V5Z" fill="#6E778C"/>
</svg>
