<svg width="16" height="16" viewBox="0 0 16 16" fill="none" xmlns="http://www.w3.org/2000/svg">
<g clip-path="url(#clip0_430_11248)">
<path fill-rule="evenodd" clip-rule="evenodd" d="M3 0.5C1.61929 0.5 0.5 1.61929 0.5 3V11C0.5 11.8284 1.17157 12.5 2 12.5H14C14.8284 12.5 15.5 11.8284 15.5 11V3C15.5 1.61929 14.3807 0.5 13 0.5H3ZM1.5 3C1.5 2.17157 2.17157 1.5 3 1.5H13C13.8284 1.5 14.5 2.17157 14.5 3V11C14.5 11.2761 14.2761 11.5 14 11.5H2C1.72386 11.5 1.5 11.2761 1.5 11V3ZM10 6.5C9.72386 6.5 9.5 6.72386 9.5 7V10C9.5 10.2761 9.72386 10.5 10 10.5H13C13.2761 10.5 13.5 10.2761 13.5 10V7C13.5 6.72386 13.2761 6.5 13 6.5H10ZM10.5 9.5V7.5H12.5V9.5H10.5ZM0.5 15C0.5 14.7239 0.723858 14.5 1 14.5H15C15.2761 14.5 15.5 14.7239 15.5 15C15.5 15.2761 15.2761 15.5 15 15.5H1C0.723858 15.5 0.5 15.2761 0.5 15ZM4.5 8C4.5 7.72386 4.27614 7.5 4 7.5C3.72386 7.5 3.5 7.72386 3.5 8V10C3.5 10.2761 3.72386 10.5 4 10.5C4.27614 10.5 4.5 10.2761 4.5 10V8ZM5 4C5 4.55228 4.55228 5 4 5C3.44772 5 3 4.55228 3 4C3 3.44772 3.44772 3 4 3C4.55228 3 5 3.44772 5 4ZM7 5C7.55228 5 8 4.55228 8 4C8 3.44772 7.55228 3 7 3C6.44772 3 6 3.44772 6 4C6 4.55228 6.44772 5 7 5Z" fill="#6E778C"/>
</g>
<defs>
<clipPath id="clip0_430_11248">
<rect width="16" height="16" fill="white"/>
</clipPath>
</defs>
</svg>
