<svg width="16" height="16" viewBox="0 0 16 16" fill="none" xmlns="http://www.w3.org/2000/svg">
<path fill-rule="evenodd" clip-rule="evenodd" d="M3 0.5C2.17157 0.5 1.5 1.17157 1.5 2V13.5382C1.5 14.5932 2.56037 15.3186 3.54367 14.9362L7.81878 13.2736C7.93534 13.2283 8.06466 13.2283 8.18122 13.2736L12.4563 14.9362C13.4396 15.3186 14.5 14.5932 14.5 13.5382V2C14.5 1.17157 13.8284 0.5 13 0.5H3ZM11.2236 3.44732C11.4706 3.32383 11.5707 3.02349 11.4472 2.7765C11.3237 2.52951 11.0234 2.4294 10.7764 2.5529L9.32918 3.2765C8.821 3.53059 8.5 4.04999 8.5 4.61814V6.99982C8.08217 6.68597 7.5628 6.5 7 6.5C5.61929 6.5 4.5 7.61929 4.5 9C4.5 10.3807 5.61929 11.5 7 11.5C8.38014 11.5 9.49906 10.3816 9.5 9.00173C9.50344 8.02815 9.5023 7.05451 9.50115 6.08089V6.0803V6.0791V6.07909V6.07908V6.07907C9.50057 5.59209 9.5 5.10511 9.5 4.61814C9.5 4.42876 9.607 4.25563 9.77639 4.17093L11.2236 3.44732ZM8.5 9C8.5 8.17157 7.82843 7.5 7 7.5C6.17157 7.5 5.5 8.17157 5.5 9C5.5 9.82843 6.17157 10.5 7 10.5C7.82843 10.5 8.5 9.82843 8.5 9Z" fill="#6E778C"/>
</svg>
