<svg width="16" height="16" viewBox="0 0 16 16" fill="none" xmlns="http://www.w3.org/2000/svg">
<g clip-path="url(#clip0_430_11354)">
<path fill-rule="evenodd" clip-rule="evenodd" d="M12.1913 0.538075C12.3782 0.615465 12.5 0.797783 12.5 1.00001L11.5 4.31424V2.20712L8.5 5.20712V14L8.60019 13.9249L8.5 14.2569V14.2804L8.6091 13.9182L11.5 11.75V4.51086C11.4999 4.50388 11.4999 4.4969 11.5 4.48994V4.32012L12.5 1.00001V3.691L14.7764 2.5528C14.9314 2.4753 15.1155 2.48359 15.2629 2.57469C15.4103 2.66579 15.5 2.82673 15.5 3.00001V13C15.5 13.2233 15.352 13.4194 15.1374 13.4808L8.14851 15.4776C8.12282 15.4856 8.09623 15.4915 8.06895 15.4953C8.01082 15.5035 7.95302 15.5011 7.89777 15.4896C7.88206 15.4863 7.86661 15.4823 7.85148 15.4776L0.862639 13.4808C0.647989 13.4194 0.5 13.2233 0.5 13V3.00001C0.5 2.84312 0.573645 2.69532 0.698902 2.60084C0.824159 2.50636 0.986502 2.47615 1.13736 2.51925L7.85448 4.43843L11.6464 0.646461C11.7894 0.503462 12.0045 0.460684 12.1913 0.538075ZM7.5 14.3371L7.5 5.37717L1.5 3.66288V12.6229L7.5 14.3371ZM8.6091 13.9182L8.60019 13.9249L11.5 4.31424V4.32012L8.6091 13.9182ZM14.5 3.80903L12.5 4.80903V12C12.5 12.1574 12.4259 12.3056 12.3 12.4L10.4662 13.7754L14.5 12.6229V3.80903Z" fill="#6E778C"/>
</g>
<defs>
<clipPath id="clip0_430_11354">
<rect width="16" height="16" fill="white"/>
</clipPath>
</defs>
</svg>
