<svg width="16" height="16" viewBox="0 0 16 16" fill="none" xmlns="http://www.w3.org/2000/svg">
<g clip-path="url(#clip0_430_11356)">
<path fill-rule="evenodd" clip-rule="evenodd" d="M1.13736 0.519242C0.986502 0.47614 0.824159 0.506348 0.698902 0.60083C0.573645 0.695312 0.5 0.843109 0.5 1V13C0.5 13.2232 0.647989 13.4194 0.862639 13.4808L7.85156 15.4776C7.89667 15.4916 7.94451 15.4994 7.9941 15.5L8 15.5L8.0059 15.5C8.05549 15.4994 8.10333 15.4916 8.14844 15.4776L15.1374 13.4808C15.352 13.4194 15.5 13.2232 15.5 13V7C15.5 6.72386 15.2761 6.5 15 6.5C14.7239 6.5 14.5 6.72386 14.5 7V12.6229L8.5 14.3371V3.01105C8.50259 2.89711 8.46583 2.78736 8.3992 2.69889C8.35549 2.64086 8.29894 2.59199 8.23223 2.55709C8.19908 2.53968 8.16374 2.52587 8.12673 2.51621L1.13736 0.519242ZM7.5 3.37716L1.5 1.66287V12.6229L7.5 14.3371V3.37716ZM13 0.500004C13.2761 0.500004 13.5 0.723862 13.5 1V2.5H15C15.2761 2.5 15.5 2.72386 15.5 3C15.5 3.27615 15.2761 3.5 15 3.5H13.5V5C13.5 5.27615 13.2761 5.5 13 5.5C12.7239 5.5 12.5 5.27615 12.5 5V3.5H11C10.7239 3.5 10.5 3.27615 10.5 3C10.5 2.72386 10.7239 2.5 11 2.5H12.5V1C12.5 0.723862 12.7239 0.500004 13 0.500004Z" fill="currentColor"/>
</g>
<defs>
<clipPath id="clip0_430_11356">
<rect width="16" height="16" fill="white"/>
</clipPath>
</defs>
</svg>
