<svg width="16" height="16" viewBox="0 0 16 16" fill="none" xmlns="http://www.w3.org/2000/svg">
<path fill-rule="evenodd" clip-rule="evenodd" d="M3 0.5C2.17157 0.5 1.5 1.17157 1.5 2V13.5382C1.5 14.5932 2.56037 15.3186 3.54367 14.9362L7.81878 13.2736C7.93534 13.2283 8.06466 13.2283 8.18122 13.2736L12.4563 14.9362C13.4396 15.3186 14.5 14.5932 14.5 13.5382V2C14.5 1.17157 13.8284 0.5 13 0.5H3ZM11.3536 4.64645C11.5488 4.84171 11.5488 5.15829 11.3536 5.35355L7.35355 9.35355C7.25979 9.44732 7.13261 9.5 7 9.5C6.86739 9.5 6.74021 9.44732 6.64645 9.35355L4.64645 7.35355C4.45118 7.15829 4.45118 6.84171 4.64645 6.64645C4.84171 6.45118 5.15829 6.45118 5.35355 6.64645L7 8.29289L10.6464 4.64645C10.8417 4.45118 11.1583 4.45118 11.3536 4.64645Z" fill="currentColor"/>
</svg>
