<svg width="16" height="16" viewBox="0 0 16 16" fill="none" xmlns="http://www.w3.org/2000/svg">
<g clip-path="url(#clip0_1185_9890)">
<path fill-rule="evenodd" clip-rule="evenodd" d="M0.698902 0.60083C0.824159 0.506348 0.986502 0.47614 1.13736 0.519242L8 2.48L14.8626 0.519242C15.0135 0.47614 15.1758 0.506348 15.3011 0.60083C15.4264 0.695312 15.5 0.843109 15.5 1V13C15.5 13.2232 15.352 13.4194 15.1374 13.4808L8.14844 15.4776C8.10333 15.4916 8.05549 15.4994 8.0059 15.5L8 15.5L7.9941 15.5C7.94451 15.4994 7.89667 15.4916 7.85156 15.4776L0.862639 13.4808C0.647989 13.4194 0.5 13.2232 0.5 13V1C0.5 0.843109 0.573645 0.695312 0.698902 0.60083ZM14.5 12.6229L8.5 14.3371V3.37716L14.5 1.66287V12.6229ZM1.5 1.66287L7.5 3.37716V14.3371L1.5 12.6229V1.66287ZM13.3536 7.35355C13.5488 7.15829 13.5488 6.84171 13.3536 6.64645C13.1583 6.45118 12.8417 6.45118 12.6464 6.64645L11 8.29289L10.3536 7.64645C10.1583 7.45119 9.84171 7.45119 9.64645 7.64645C9.45118 7.84171 9.45118 8.15829 9.64645 8.35355L10.6464 9.35355C10.7402 9.44732 10.8674 9.5 11 9.5C11.1326 9.5 11.2598 9.44732 11.3536 9.35355L13.3536 7.35355Z" fill="#6E778C"/>
</g>
<defs>
<clipPath id="clip0_1185_9890">
<rect width="16" height="16" fill="white"/>
</clipPath>
</defs>
</svg>
