<svg width="16" height="16" viewBox="0 0 16 16" fill="none" xmlns="http://www.w3.org/2000/svg">
<path fill-rule="evenodd" clip-rule="evenodd" d="M1.5 2C1.5 1.72386 1.72386 1.5 2 1.5L13 1.5C13.2761 1.5 13.5 1.27614 13.5 0.999999C13.5 0.723856 13.2761 0.499999 13 0.499999L2 0.499999C1.17157 0.499999 0.499999 1.17157 0.499999 2L0.5 13C0.5 13.2761 0.723858 13.5 1 13.5C1.27614 13.5 1.5 13.2761 1.5 13L1.5 2ZM5 15C5.55228 15 6 14.5523 6 14C6 13.4477 5.55228 13 5 13C4.44771 13 4 13.4477 4 14C4 14.5523 4.44771 15 5 15ZM8 15C8.55228 15 9 14.5523 9 14C9 13.4477 8.55229 13 8 13C7.44772 13 7 13.4477 7 14C7 14.5523 7.44772 15 8 15ZM12 14C12 14.5523 11.5523 15 11 15C10.4477 15 10 14.5523 10 14C10 13.4477 10.4477 13 11 13C11.5523 13 12 13.4477 12 14ZM15 5C15 5.55228 14.5523 6 14 6C13.4477 6 13 5.55228 13 5C13 4.44771 13.4477 4 14 4C14.5523 4 15 4.44772 15 5ZM14 9C14.5523 9 15 8.55228 15 8C15 7.44772 14.5523 7 14 7C13.4477 7 13 7.44772 13 8C13 8.55228 13.4477 9 14 9ZM15 11C15 11.5523 14.5523 12 14 12C13.4477 12 13 11.5523 13 11C13 10.4477 13.4477 10 14 10C14.5523 10 15 10.4477 15 11ZM14 15C14.5523 15 15 14.5523 15 14C15 13.4477 14.5523 13 14 13C13.4477 13 13 13.4477 13 14C13 14.5523 13.4477 15 14 15Z" fill="#6E778C"/>
</svg>
