<svg width="16" height="16" viewBox="0 0 16 16" fill="none" xmlns="http://www.w3.org/2000/svg">
<path fill-rule="evenodd" clip-rule="evenodd" d="M14 3C14.5523 3 15 2.55228 15 2C15 1.44772 14.5523 1 14 1C13.4477 1 13 1.44772 13 2C13 2.55228 13.4477 3 14 3ZM12 8C12 8.55229 11.5523 9 11 9C10.4477 9 10 8.55228 10 8C10 7.44772 10.4477 7 11 7C11.5523 7 12 7.44772 12 8ZM11 3C11.5523 3 12 2.55228 12 2C12 1.44772 11.5523 1 11 1C10.4477 1 10 1.44772 10 2C10 2.55228 10.4477 3 11 3ZM6 14C6 14.5523 5.55228 15 5 15C4.44772 15 4 14.5523 4 14C4 13.4477 4.44771 13 5 13C5.55228 13 6 13.4477 6 14ZM6 2C6 2.55228 5.55228 3 5 3C4.44771 3 4 2.55228 4 2C4 1.44772 4.44771 1 5 1C5.55228 1 6 1.44772 6 2ZM3 2C3 2.55228 2.55228 3 2 3C1.44771 3 0.999999 2.55228 0.999999 2C0.999999 1.44772 1.44771 0.999999 2 0.999999C2.55228 0.999999 3 1.44772 3 2ZM5 9C5.55228 9 6 8.55228 6 8C6 7.44772 5.55228 7 5 7C4.44771 7 4 7.44772 4 8C4 8.55228 4.44771 9 5 9ZM11 15C11.5523 15 12 14.5523 12 14C12 13.4477 11.5523 13 11 13C10.4477 13 10 13.4477 10 14C10 14.5523 10.4477 15 11 15ZM8 1.5C8.27614 1.5 8.5 1.72386 8.5 2L8.5 14C8.5 14.2761 8.27614 14.5 8 14.5C7.72386 14.5 7.5 14.2761 7.5 14L7.5 2C7.5 1.72386 7.72386 1.5 8 1.5ZM15 5C15 5.55228 14.5523 6 14 6C13.4477 6 13 5.55228 13 5C13 4.44772 13.4477 4 14 4C14.5523 4 15 4.44772 15 5ZM2 6C2.55228 6 3 5.55228 3 5C3 4.44771 2.55228 4 2 4C1.44771 4 0.999999 4.44772 0.999999 5C0.999999 5.55228 1.44771 6 2 6ZM15 8C15 8.55228 14.5523 9 14 9C13.4477 9 13 8.55228 13 8C13 7.44772 13.4477 7 14 7C14.5523 7 15 7.44772 15 8ZM2 9C2.55228 9 3 8.55228 3 8C3 7.44772 2.55228 7 2 7C1.44771 7 0.999999 7.44772 0.999999 8C0.999999 8.55228 1.44771 9 2 9ZM15 11C15 11.5523 14.5523 12 14 12C13.4477 12 13 11.5523 13 11C13 10.4477 13.4477 10 14 10C14.5523 10 15 10.4477 15 11ZM2 12C2.55228 12 3 11.5523 3 11C3 10.4477 2.55228 10 2 10C1.44771 10 0.999999 10.4477 0.999999 11C0.999999 11.5523 1.44771 12 2 12ZM15 14C15 14.5523 14.5523 15 14 15C13.4477 15 13 14.5523 13 14C13 13.4477 13.4477 13 14 13C14.5523 13 15 13.4477 15 14ZM2 15C2.55228 15 3 14.5523 3 14C3 13.4477 2.55228 13 2 13C1.44771 13 0.999999 13.4477 0.999999 14C0.999999 14.5523 1.44772 15 2 15Z" fill="#6E778C"/>
</svg>
