<svg width="16" height="16" viewBox="0 0 16 16" fill="none" xmlns="http://www.w3.org/2000/svg">
<g clip-path="url(#clip0_389_13040)">
<path fill-rule="evenodd" clip-rule="evenodd" d="M12.6464 2.06066C12.8417 1.8654 13.1583 1.8654 13.3535 2.06066L13.9393 2.64645C14.1346 2.84171 14.1346 3.15829 13.9393 3.35356L7.90042 9.39246C7.5749 8.86838 7.13161 8.42509 6.60751 8.09958L12.6464 2.06066ZM5.63132 7.66222C5.63622 7.65688 5.64126 7.65162 5.64643 7.64645L11.9393 1.35355C12.5251 0.767768 13.4749 0.767769 14.0606 1.35356L14.6464 1.93934C15.2322 2.52513 15.2322 3.47488 14.6464 4.06066L8.35354 10.3536C8.34837 10.3587 8.34312 10.3638 8.33779 10.3686C8.44337 10.7274 8.50003 11.1071 8.50003 11.5C8.50003 13.7091 6.70916 15.5 4.50003 15.5H4.49672H4.49341H4.49008H4.48674H4.48339H4.48002H4.47665H4.47326H4.46986H4.46644H4.46301H4.45958H4.45612H4.45266H4.44919H4.4457H4.4422H4.43869H4.43516H4.43163H4.42808H4.42452H4.42095H4.41737H4.41377H4.41016H4.40655H4.40292H4.39927H4.39562H4.39196H4.38828H4.38459H4.38089H4.37718H4.37346H4.36973H4.36598H4.36223H4.35846H4.35468H4.35089H4.34709H4.34328H4.33946H4.33563H4.33178H4.32793H4.32406H4.32018H4.3163H4.3124H4.30849H4.30457H4.30064H4.2967H4.29275H4.28878H4.28481H4.28083H4.27684H4.27283H4.26882H4.26479H4.26076H4.25671H4.25266H4.24859H4.24452H4.24043H4.23634H4.23223H4.22812H4.22399H4.21986H4.21571H4.21156H4.20739H4.20322H4.19904H4.19484H4.19064H4.18643H4.1822H4.17797H4.17373H4.16948H4.16522H4.16095H4.15667H4.15239H4.14809H4.14378H4.13947H4.13514H4.13081H4.12647H4.12212H4.11775H4.11339H4.10901H4.10462H4.10022H4.09582H4.09141H4.08698H4.08255H4.07811H4.07366H4.06921H4.06474H4.06027H4.05579H4.0513H4.0468H4.04229H4.03778H4.03325H4.02872H4.02418H4.01963H4.01508H4.01051H4.00594H4.00136H3.99677H3.99218H3.98757H3.98296H3.97834H3.97371H3.96908H3.96444H3.95979H3.95513H3.95046H3.94579H3.94111H3.93642H3.93173H3.92702H3.92231H3.9176H3.91287H3.90814H3.9034H3.89865H3.8939H3.88914H3.88437H3.8796H3.87482H3.87003H3.86524H3.86043H3.85563H3.85081H3.84599H3.84116H3.83632H3.83148H3.82663H3.82178H3.81692H3.81205H3.80718H3.80229H3.79741H3.79251H3.78761H3.78271H3.7778H3.77288H3.76795H3.76302H3.75809H3.75314H3.7482H3.74324H3.73828H3.73331H3.72834H3.72336H3.71838H3.71339H3.7084H3.7034H3.69839H3.69338H3.68836H3.68334H3.67831H3.67328H3.66824H3.6632H3.65815H3.65309H3.64803H3.64297H3.6379H3.63282H3.62774H3.62266H3.61757H3.61247H3.60737H3.60227H3.59716H3.59204H3.58692H3.5818H3.57667H3.57154H3.5664H3.56126H3.55611H3.55096H3.5458H3.54064H3.53548H3.53031H3.52514H3.51996H3.51478H3.50959H3.5044H3.49921H3.49401H3.48881H3.4836H3.47839H3.47318H3.46796H3.46274H3.45751H3.45228H3.44705H3.44181H3.43657H3.43133H3.42608H3.42083H3.41558H3.41032H3.40506H3.39979H3.39452H3.38925H3.38398H3.3787H3.37342H3.36813H3.36285H3.35756H3.35226H3.34697H3.34167H3.33636H3.33106H3.32575H3.32044H3.31513H3.30981H3.30449H3.29917H3.29384H3.28852H3.28319H3.27785H3.27252H3.26718H3.26184H3.2565H3.25116H3.24581H3.24046H3.23511H3.22976H3.2244H3.21905H3.21369H3.20833H3.20296H3.1976H3.19223H3.18686H3.18149H3.17612H3.17074H3.16537H3.15999H3.15461H3.14923H3.14385H3.13846H3.13308H3.12769H3.1223H3.11691H3.11152H3.10613H3.10074H3.09534H3.08995H3.08455H3.07915H3.07375H3.06835H3.06295H3.05755H3.05215H3.04674H3.04134H3.03593H3.03053H3.02512H3.01971H3.0143H3.00889H3.00348H2.99807H2.99266H2.98725H2.98184H2.97643H2.97102H2.9656H2.96019H2.95478H2.94936H2.94395H2.93854H2.93312H2.92771H2.9223H2.91688H2.91147H2.90606H2.90064H2.89523H2.88982H2.8844H2.87899H2.87358H2.86817H2.86276H2.85735H2.85194H2.84653H2.84112H2.83571H2.8303H2.82489H2.81949H2.81408H2.80868H2.80327H2.79787H2.79247H2.78707H2.78167H2.77627H2.77087H2.76547H2.76007H2.75468H2.74929H2.74389H2.7385H2.73311H2.72772H2.72234H2.71695H2.71157H2.70619H2.7008H2.69543H2.69005H2.68467H2.6793H2.67392H2.66855H2.66318H2.65782H2.65245H2.64709H2.64173H2.63637H2.63101H2.62565H2.6203H2.61495H2.6096H2.60426H2.59891H2.59357H2.58823H2.58289H2.57756H2.57223H2.5669H2.56157H2.55624H2.55092H2.5456H2.54029H2.53497H2.52966H2.52435H2.51905H2.51374H2.50844H2.50315H2.49785H2.49256H2.48727H2.48199H2.47671H2.47143H2.46615H2.46088H2.45561H2.45035H2.44509H2.43983H2.43457H2.42932H2.42408H2.41883H2.41359H2.40835H2.40312H2.39789H2.39266H2.38744H2.38222H2.37701H2.3718H2.36659H2.36139H2.35619H2.351H2.34581H2.34062H2.33544H2.33026H2.32509H2.31992H2.31475H2.30959H2.30444H2.29928H2.29414H2.28899H2.28386H2.27872H2.27359H2.26847H2.26335H2.25823H2.25312H2.24802H2.24292H2.23782H2.23273H2.22765H2.22257H2.21749H2.21242H2.20735H2.20229H2.19724H2.19219H2.18714H2.18211H2.17707H2.17204H2.16702H2.162H2.15699H2.15198H2.14698H2.14199H2.137H2.13201H2.12704H2.12206H2.1171H2.11214H2.10718H2.10223H2.09729H2.09235H2.08742H2.0825H2.07758H2.07266H2.06776H2.06286H2.05796H2.05308H2.04819H2.04332H2.03845H2.03359H2.02873H2.02388H2.01904H2.0142H2.00938H2.00455H1.99974C1.17136 15.5 0.499988 14.8288 0.5 14.0003L0.500026 11.5C0.500026 9.29086 2.29089 7.5 4.50003 7.5C4.89293 7.5 5.2726 7.55665 5.63132 7.66222ZM1.50003 11.5C1.50003 9.84315 2.84317 8.5 4.50003 8.5C6.15688 8.5 7.50003 9.84315 7.50003 11.5C7.50003 13.1569 6.15688 14.5 4.50003 14.5H4.49672H4.49341H4.49008H4.48674H4.48339H4.48002H4.47665H4.47326H4.46986H4.46644H4.46301H4.45958H4.45612H4.45266H4.44919H4.4457H4.4422H4.43869H4.43516H4.43163H4.42808H4.42452H4.42095H4.41737H4.41377H4.41016H4.40655H4.40292H4.39927H4.39562H4.39196H4.38828H4.38459H4.38089H4.37718H4.37346H4.36973H4.36598H4.36223H4.35846H4.35468H4.35089H4.34709H4.34328H4.33946H4.33563H4.33178H4.32793H4.32406H4.32018H4.3163H4.3124H4.30849H4.30457H4.30064H4.2967H4.29275H4.28878H4.28481H4.28083H4.27684H4.27283H4.26882H4.26479H4.26076H4.25671H4.25266H4.24859H4.24452H4.24043H4.23634H4.23223H4.22812H4.22399H4.21986H4.21571H4.21156H4.20739H4.20322H4.19904H4.19484H4.19064H4.18643H4.1822H4.17797H4.17373H4.16948H4.16522H4.16095H4.15667H4.15239H4.14809H4.14378H4.13947H4.13514H4.13081H4.12647H4.12212H4.11775H4.11339H4.10901H4.10462H4.10022H4.09582H4.09141H4.08698H4.08255H4.07811H4.07366H4.06921H4.06474H4.06027H4.05579H4.0513H4.0468H4.04229H4.03778H4.03325H4.02872H4.02418H4.01963H4.01508H4.01051H4.00594H4.00136H3.99677H3.99218H3.98757H3.98296H3.97834H3.97371H3.96908H3.96444H3.95979H3.95513H3.95046H3.94579H3.94111H3.93642H3.93173H3.92702H3.92231H3.9176H3.91287H3.90814H3.9034H3.89865H3.8939H3.88914H3.88437H3.8796H3.87482H3.87003H3.86524H3.86043H3.85563H3.85081H3.84599H3.84116H3.83632H3.83148H3.82663H3.82178H3.81692H3.81205H3.80718H3.80229H3.79741H3.79251H3.78761H3.78271H3.7778H3.77288H3.76795H3.76302H3.75809H3.75314H3.7482H3.74324H3.73828H3.73331H3.72834H3.72336H3.71838H3.71339H3.7084H3.7034H3.69839H3.69338H3.68836H3.68334H3.67831H3.67328H3.66824H3.6632H3.65815H3.65309H3.64803H3.64297H3.6379H3.63282H3.62774H3.62266H3.61757H3.61247H3.60737H3.60227H3.59716H3.59204H3.58692H3.5818H3.57667H3.57154H3.5664H3.56126H3.55611H3.55096H3.5458H3.54064H3.53548H3.53031H3.52514H3.51996H3.51478H3.50959H3.5044H3.49921H3.49401H3.48881H3.4836H3.47839H3.47318H3.46796H3.46274H3.45751H3.45228H3.44705H3.44181H3.43657H3.43133H3.42608H3.42083H3.41558H3.41032H3.40506H3.39979H3.39452H3.38925H3.38398H3.3787H3.37342H3.36813H3.36285H3.35756H3.35226H3.34697H3.34167H3.33636H3.33106H3.32575H3.32044H3.31513H3.30981H3.30449H3.29917H3.29384H3.28852H3.28319H3.27785H3.27252H3.26718H3.26184H3.2565H3.25116H3.24581H3.24046H3.23511H3.22976H3.2244H3.21905H3.21369H3.20833H3.20296H3.1976H3.19223H3.18686H3.18149H3.17612H3.17074H3.16537H3.15999H3.15461H3.14923H3.14385H3.13846H3.13308H3.12769H3.1223H3.11691H3.11152H3.10613H3.10074H3.09534H3.08995H3.08455H3.07915H3.07375H3.06835H3.06295H3.05755H3.05215H3.04674H3.04134H3.03593H3.03053H3.02512H3.01971H3.0143H3.00889H3.00348H2.99807H2.99266H2.98725H2.98184H2.97643H2.97102H2.9656H2.96019H2.95478H2.94936H2.94395H2.93854H2.93312H2.92771H2.9223H2.91688H2.91147H2.90606H2.90064H2.89523H2.88982H2.8844H2.87899H2.87358H2.86817H2.86276H2.85735H2.85194H2.84653H2.84112H2.83571H2.8303H2.82489H2.81949H2.81408H2.80868H2.80327H2.79787H2.79247H2.78707H2.78167H2.77627H2.77087H2.76547H2.76007H2.75468H2.74929H2.74389H2.7385H2.73311H2.72772H2.72234H2.71695H2.71157H2.70619H2.7008H2.69543H2.69005H2.68467H2.6793H2.67392H2.66855H2.66318H2.65782H2.65245H2.64709H2.64173H2.63637H2.63101H2.62565H2.6203H2.61495H2.6096H2.60426H2.59891H2.59357H2.58823H2.58289H2.57756H2.57223H2.5669H2.56157H2.55624H2.55092H2.5456H2.54029H2.53497H2.52966H2.52435H2.51905H2.51374H2.50844H2.50315H2.49785H2.49256H2.48727H2.48199H2.47671H2.47143H2.46615H2.46088H2.45561H2.45035H2.44509H2.43983H2.43457H2.42932H2.42408H2.41883H2.41359H2.40835H2.40312H2.39789H2.39266H2.38744H2.38222H2.37701H2.3718H2.36659H2.36139H2.35619H2.351H2.34581H2.34062H2.33544H2.33026H2.32509H2.31992H2.31475H2.30959H2.30444H2.29928H2.29414H2.28899H2.28386H2.27872H2.27359H2.26847H2.26335H2.25823H2.25312H2.24802H2.24292H2.23782H2.23273H2.22765H2.22257H2.21749H2.21242H2.20735H2.20229H2.19724H2.19219H2.18714H2.18211H2.17707H2.17204H2.16702H2.162H2.15699H2.15198H2.14698H2.14199H2.137H2.13201H2.12704H2.12206H2.1171H2.11214H2.10718H2.10223H2.09729H2.09235H2.08742H2.0825H2.07758H2.07266H2.06776H2.06286H2.05796H2.05308H2.04819H2.04332H2.03845H2.03359H2.02873H2.02388H2.01904H2.0142H2.00938H2.00455H1.99974C1.72353 14.5 1.5 14.2764 1.5 14.0004L1.50003 11.5Z" fill="currentColor"/>
</g>
<defs>
<clipPath id="clip0_389_13040">
<rect width="16" height="16" fill="white"/>
</clipPath>
</defs>
</svg>
