<svg width="16" height="16" viewBox="0 0 16 16" fill="none" xmlns="http://www.w3.org/2000/svg">
<g clip-path="url(#clip0_435_9011)">
<path fill-rule="evenodd" clip-rule="evenodd" d="M2 0.5C1.17157 0.5 0.5 1.17157 0.5 2V15C0.5 15.1844 0.601492 15.3538 0.764071 15.4408C0.92665 15.5278 1.12392 15.5183 1.27735 15.416L4.02543 13.584C4.10756 13.5292 4.20406 13.5 4.30278 13.5H14C14.8284 13.5 15.5 12.8284 15.5 12V2C15.5 1.17157 14.8284 0.5 14 0.5H2ZM1.5 2C1.5 1.72386 1.72386 1.5 2 1.5H14C14.2761 1.5 14.5 1.72386 14.5 2V12C14.5 12.2761 14.2761 12.5 14 12.5H4.30278C4.00664 12.5 3.71713 12.5877 3.47073 12.7519L1.5 14.0657V2ZM8 4.5C8.27614 4.5 8.5 4.72386 8.5 5V6.5H10C10.2761 6.5 10.5 6.72386 10.5 7C10.5 7.27614 10.2761 7.5 10 7.5H8.5V9C8.5 9.27614 8.27614 9.5 8 9.5C7.72386 9.5 7.5 9.27614 7.5 9V7.5H6C5.72386 7.5 5.5 7.27614 5.5 7C5.5 6.72386 5.72386 6.5 6 6.5H7.5V5C7.5 4.72386 7.72386 4.5 8 4.5Z" fill="currentColor"/>
</g>
<defs>
<clipPath id="clip0_435_9011">
<rect width="16" height="16" fill="white"/>
</clipPath>
</defs>
</svg>
