<svg width="16" height="16" viewBox="0 0 16 16" fill="none" xmlns="http://www.w3.org/2000/svg">
<g clip-path="url(#clip0_430_11179)">
<path fill-rule="evenodd" clip-rule="evenodd" d="M8.30323 2.06269C8.13678 1.87412 7.86322 1.87412 7.69677 2.06269C7.13598 2.698 6.32651 3.68664 5.66 4.78021C4.98407 5.88923 4.5 7.03476 4.5 8.00001C4.5 8.97904 4.90198 9.86418 5.54989 10.4994C5.51717 10.338 5.5 10.171 5.5 10C5.5 8.84971 6.06737 7.74756 6.58397 6.97266C6.8477 6.57707 7.11069 6.24841 7.30787 6.01836C7.40669 5.90307 7.48956 5.81187 7.54853 5.74869C7.57804 5.71708 7.6016 5.69244 7.61824 5.67524L7.63789 5.65509L7.6436 5.64931L7.64539 5.64751L7.64601 5.64689L7.64625 5.64665C7.64635 5.64655 7.64645 5.64645 8 6.00001C8.35355 5.64645 8.35365 5.64655 8.35375 5.64665L8.35399 5.64689L8.35461 5.64751L8.3564 5.64931L8.36211 5.65509L8.38176 5.67524C8.3984 5.69244 8.42196 5.71708 8.45147 5.74869C8.51044 5.81187 8.59331 5.90307 8.69213 6.01836C8.88931 6.24841 9.1523 6.57707 9.41603 6.97266C9.93263 7.74756 10.5 8.84971 10.5 10C10.5 10.171 10.4828 10.338 10.4501 10.4994C11.098 9.86418 11.5 8.97904 11.5 8.00001C11.5 7.03476 11.0159 5.88923 10.34 4.78021C9.67349 3.68664 8.86402 2.698 8.30323 2.06269ZM8 6.00001L7.64645 5.64645C7.84171 5.45119 8.15829 5.45119 8.35355 5.64645L8 6.00001ZM8 11.5C8.82843 11.5 9.5 10.8284 9.5 10C9.5 9.1503 9.06737 8.25245 8.58397 7.52736C8.37632 7.21588 8.16811 6.94926 8 6.74841C7.83189 6.94926 7.62368 7.21588 7.41603 7.52736C6.93263 8.25245 6.5 9.1503 6.5 10C6.5 10.8284 7.17157 11.5 8 11.5ZM8 12.5C5.51472 12.5 3.5 10.4853 3.5 8.00001C3.5 6.7501 4.10634 5.40789 4.8061 4.25977C5.51528 3.0962 6.36678 2.05831 6.94707 1.40091C7.5116 0.761381 8.4884 0.761382 9.05293 1.40091C9.63322 2.05831 10.4847 3.0962 11.1939 4.25977C11.8937 5.40789 12.5 6.7501 12.5 8.00001C12.5 10.4853 10.4853 12.5 8 12.5ZM1 11.5C1.27614 11.5 1.5 11.7239 1.5 12L1.5 14C1.5 14.2761 1.72386 14.5 2 14.5L14 14.5C14.2761 14.5 14.5 14.2761 14.5 14V12C14.5 11.7239 14.7239 11.5 15 11.5C15.2761 11.5 15.5 11.7239 15.5 12V14C15.5 14.8284 14.8284 15.5 14 15.5L2 15.5C1.17157 15.5 0.5 14.8284 0.5 14L0.5 12C0.5 11.7239 0.723858 11.5 1 11.5Z" fill="currentColor"/>
</g>
<defs>
<clipPath id="clip0_430_11179">
<rect width="16" height="16" fill="white"/>
</clipPath>
</defs>
</svg>
