<svg width="16" height="16" viewBox="0 0 16 16" fill="none" xmlns="http://www.w3.org/2000/svg">
<path fill-rule="evenodd" clip-rule="evenodd" d="M1.5 5.33332C1.5 4.87309 1.8731 4.49999 2.33333 4.49999H8.93106C9.17837 4.49999 9.41291 4.60984 9.57124 4.79984L10.7161 6.17366C11.0644 6.59165 11.5804 6.83332 12.1245 6.83332H13.6667C14.1269 6.83332 14.5 7.20642 14.5 7.66666V9.2452L13.8021 9.98187C13.4522 9.68149 12.9973 9.49999 12.5 9.49999C11.7597 9.49999 11.1134 9.90219 10.7676 10.5H5.23244C4.88663 9.90219 4.24028 9.49999 3.5 9.49999C3.0027 9.49999 2.54779 9.68149 2.1979 9.98187L1.5 9.2452V5.33332ZM1.61742 10.8232L0.637024 9.78831C0.549039 9.69543 0.5 9.57237 0.5 9.44443V5.33332C0.5 4.3208 1.32081 3.49999 2.33333 3.49999H8.93106C9.47515 3.49999 9.99114 3.74167 10.3395 4.15965L11.4843 5.53348C11.6426 5.72347 11.8772 5.83332 12.1245 5.83332H13.6667C14.6792 5.83332 15.5 6.65413 15.5 7.66666V9.44443C15.5 9.57237 15.451 9.69543 15.363 9.78831L14.3826 10.8232C14.4586 11.0346 14.5 11.2624 14.5 11.5C14.5 12.6046 13.6046 13.5 12.5 13.5C11.3954 13.5 10.5 12.6046 10.5 11.5H5.5C5.5 12.6046 4.60457 13.5 3.5 13.5C2.39543 13.5 1.5 12.6046 1.5 11.5C1.5 11.2624 1.54142 11.0346 1.61742 10.8232ZM2.5 11.5C2.5 10.9477 2.94772 10.5 3.5 10.5C4.05228 10.5 4.5 10.9477 4.5 11.5C4.5 12.0523 4.05228 12.5 3.5 12.5C2.94772 12.5 2.5 12.0523 2.5 11.5ZM11.5 11.5C11.5 10.9477 11.9477 10.5 12.5 10.5C13.0523 10.5 13.5 10.9477 13.5 11.5C13.5 12.0523 13.0523 12.5 12.5 12.5C11.9477 12.5 11.5 12.0523 11.5 11.5Z" fill="#6E778C"/>
</svg>
