<svg width="16" height="16" viewBox="0 0 16 16" fill="none" xmlns="http://www.w3.org/2000/svg">
<path fill-rule="evenodd" clip-rule="evenodd" d="M1.5 5.33333C1.5 4.8731 1.8731 4.5 2.33333 4.5H8.93106C9.17837 4.5 9.41291 4.60985 9.57124 4.79985L10.7161 6.17367C11.0644 6.59166 11.5804 6.83333 12.1245 6.83333H13.6667C14.1269 6.83333 14.5 7.20643 14.5 7.66667V9.24521L13.8021 9.98188C13.4522 9.6815 12.9973 9.5 12.5 9.5C11.7597 9.5 11.1134 9.9022 10.7676 10.5H5.23244C4.88663 9.9022 4.24028 9.5 3.5 9.5C3.0027 9.5 2.54779 9.6815 2.1979 9.98188L1.5 9.24521V5.33333ZM1.61742 10.8232L0.637024 9.78832C0.549039 9.69544 0.5 9.57238 0.5 9.44444V5.33333C0.5 4.32081 1.32081 3.5 2.33333 3.5H8.93106C9.47515 3.5 9.99114 3.74168 10.3395 4.15966L11.4843 5.53349C11.6426 5.72348 11.8772 5.83333 12.1245 5.83333H13.6667C14.6792 5.83333 15.5 6.65414 15.5 7.66667V9.44444C15.5 9.57238 15.451 9.69544 15.363 9.78832L14.3826 10.8232C14.4586 11.0346 14.5 11.2624 14.5 11.5C14.5 12.6046 13.6046 13.5 12.5 13.5C11.3954 13.5 10.5 12.6046 10.5 11.5H5.5C5.5 12.6046 4.60457 13.5 3.5 13.5C2.39543 13.5 1.5 12.6046 1.5 11.5C1.5 11.2624 1.54142 11.0346 1.61742 10.8232ZM2.5 11.5C2.5 10.9477 2.94772 10.5 3.5 10.5C4.05228 10.5 4.5 10.9477 4.5 11.5C4.5 12.0523 4.05228 12.5 3.5 12.5C2.94772 12.5 2.5 12.0523 2.5 11.5ZM11.5 11.5C11.5 10.9477 11.9477 10.5 12.5 10.5C13.0523 10.5 13.5 10.9477 13.5 11.5C13.5 12.0523 13.0523 12.5 12.5 12.5C11.9477 12.5 11.5 12.0523 11.5 11.5Z" fill="currentColor"/>
</svg>
