<svg width="16" height="16" viewBox="0 0 16 16" fill="none" xmlns="http://www.w3.org/2000/svg">
<path fill-rule="evenodd" clip-rule="evenodd" d="M3.08944 1.50806C2.84463 1.46355 2.60434 1.60582 2.52566 1.84188L0.52671 7.83873C0.524546 7.84509 0.5225 7.85153 0.520575 7.85804L0.517137 7.87021C0.483931 7.9936 0.499998 8.11898 0.553538 8.2251L3.55279 14.2236C3.63748 14.393 3.81061 14.5 4 14.5H13C13.2232 14.5 13.4194 14.352 13.4808 14.1374L15.4797 7.14103C15.5082 7.04431 15.5077 6.93851 15.4728 6.83737L14.4743 3.84188C14.4166 3.66868 14.2691 3.54072 14.0894 3.50806L3.08944 1.50806ZM13.6193 4.43897L14.3802 6.72165L7.96643 9.4704L1.63948 7.66269L3.33721 2.5695L13.6193 4.43897ZM8.97602 10.1257L12.7486 13.0599L14.2303 7.87384L8.97602 10.1257ZM11.6856 13.5L7.7695 10.4541L1.95553 8.79301L4.30902 13.5H11.6856Z" fill="#6E778C"/>
</svg>
