<svg width="16" height="16" viewBox="0 0 16 16" fill="none" xmlns="http://www.w3.org/2000/svg">
<g clip-path="url(#clip0_3291_111)">
<path fill-rule="evenodd" clip-rule="evenodd" d="M1.5 2C1.5 1.72386 1.72386 1.5 2 1.5H3.625H14C14.2761 1.5 14.5 1.72386 14.5 2V4.92969L12.2932 6.37411L10.5163 4.82329C10.4088 4.72951 10.2664 4.68608 10.1249 4.70393C9.98342 4.72178 9.85628 4.79921 9.77548 4.91674L8.19712 7.21253L6.5113 3.7796C6.42225 3.59826 6.23281 3.48832 6.03117 3.50098C5.82954 3.51364 5.65533 3.6464 5.58966 3.83746L3.52716 9.83746C3.43739 10.0986 3.57632 10.3831 3.83746 10.4728C4.0986 10.5626 4.38307 10.4237 4.47284 10.1625L6.14414 5.30058L7.6762 8.4204C7.75448 8.57981 7.91145 8.68574 8.08858 8.69867C8.26571 8.71161 8.43641 8.62961 8.53702 8.48326L10.2816 5.94574L11.9212 7.37671C12.0901 7.52406 12.3363 7.54108 12.5238 7.41835L14.5 6.12486V8.7C14.5 8.97614 14.7239 9.2 15 9.2C15.2761 9.2 15.5 8.97614 15.5 8.7V5.2071C15.5001 5.20206 15.5001 5.19701 15.5 5.19197V2C15.5 1.17157 14.8284 0.5 14 0.5H3.625H2C1.17157 0.5 0.5 1.17157 0.5 2V3.5V6.5V9.5V12.5V14C0.5 14.8284 1.17157 15.5 2 15.5H8.7C8.97614 15.5 9.2 15.2761 9.2 15C9.2 14.7239 8.97614 14.5 8.7 14.5H2C1.72386 14.5 1.5 14.2761 1.5 14V13H2.5C2.77614 13 3 12.7761 3 12.5C3 12.2239 2.77614 12 2.5 12H1.5V10H2.5C2.77614 10 3 9.77614 3 9.5C3 9.22386 2.77614 9 2.5 9H1.5V7H2.5C2.77614 7 3 6.77614 3 6.5C3 6.22386 2.77614 6 2.5 6H1.5V4H2.5C2.77614 4 3 3.77614 3 3.5C3 3.22386 2.77614 3 2.5 3H1.5V2ZM14.5 12C14.5 12.5095 14.3476 12.9835 14.0858 13.3787L15.3536 14.6464C15.5488 14.8417 15.5488 15.1583 15.3536 15.3536C15.1583 15.5488 14.8417 15.5488 14.6464 15.3536L13.3787 14.0858C12.9835 14.3476 12.5095 14.5 12 14.5C10.6193 14.5 9.5 13.3807 9.5 12C9.5 10.6193 10.6193 9.5 12 9.5C13.3807 9.5 14.5 10.6193 14.5 12ZM12 10.5C11.1716 10.5 10.5 11.1716 10.5 12C10.5 12.8284 11.1716 13.5 12 13.5C12.8284 13.5 13.5 12.8284 13.5 12C13.5 11.1716 12.8284 10.5 12 10.5Z" fill="currentColor"/>
</g>
<defs>
<clipPath id="clip0_3291_111">
<rect width="16" height="16" fill="white"/>
</clipPath>
</defs>
</svg>
