<svg width="16" height="16" viewBox="0 0 16 16" fill="none" xmlns="http://www.w3.org/2000/svg">
<path fill-rule="evenodd" clip-rule="evenodd" d="M14.0072 1.50002C14.8323 1.5039 15.5 2.17398 15.5 3V6V13C15.5 13.8284 14.8284 14.5 14 14.5H2C1.17157 14.5 0.5 13.8284 0.5 13V6V3C0.5 2.17157 1.17157 1.5 2 1.5H5.99495H6.00582H9.99495H10.0058H13.9949L14.0072 1.50002ZM12 5.5L14.214 2.54799C14.3831 2.62818 14.5 2.80043 14.5 3V5.5H12ZM10.9942 6.5H11.0051H14.5V13C14.5 13.2761 14.2761 13.5 14 13.5H2C1.72386 13.5 1.5 13.2761 1.5 13V6.5H2.99418H3.00505H6.99418H7.00505H10.9942ZM10.75 5.5H8L10.25 2.5H13L10.75 5.5ZM4 5.5H6.75L9 2.5H6.25L4 5.5ZM2.75 5.5H1.5V3C1.5 2.72386 1.72386 2.5 2 2.5H5L2.75 5.5ZM10.3536 7.64645C10.5488 7.84171 10.5488 8.15829 10.3536 8.35355L8.70711 10L10.3536 11.6464C10.5488 11.8417 10.5488 12.1583 10.3536 12.3536C10.1583 12.5488 9.84171 12.5488 9.64645 12.3536L8 10.7071L6.35355 12.3536C6.15829 12.5488 5.84171 12.5488 5.64645 12.3536C5.45118 12.1583 5.45118 11.8417 5.64645 11.6464L7.29289 10L5.64645 8.35355C5.45118 8.15829 5.45118 7.84171 5.64645 7.64645C5.84171 7.45118 6.15829 7.45118 6.35355 7.64645L8 9.29289L9.64645 7.64645C9.84171 7.45118 10.1583 7.45118 10.3536 7.64645Z" fill="currentColor"/>
</svg>
