<svg width="16" height="16" viewBox="0 0 16 16" fill="none" xmlns="http://www.w3.org/2000/svg">
<g clip-path="url(#clip0_430_11977)">
<path fill-rule="evenodd" clip-rule="evenodd" d="M12.7771 2.17022C12.7064 1.88766 12.4102 1.72504 12.1339 1.81715L11.5002 2.0284V5.30742L12.9636 4.81982C13.2115 4.73723 13.354 4.47768 13.2906 4.22419L12.7771 2.17022ZM10.5002 5.64062V2.36174L8.50018 3.02843V6.30701L10.5002 5.64062ZM5.50018 4.02846L7.50018 3.36177V6.6402L5.50018 7.30659V4.02846ZM4.50018 7.63979V4.3618L2.03698 5.18289C1.78911 5.26552 1.64664 5.52507 1.71004 5.77854L2.22336 7.83108C2.29401 8.11359 2.59019 8.27619 2.86647 8.18413L4.50018 7.63979ZM11.8177 0.86847C12.6466 0.592152 13.5353 1.08 13.7472 1.92768L14.2607 3.98166C14.4508 4.74213 14.0234 5.52075 13.2797 5.76855L5.08193 8.5H14.0002C14.8286 8.5 15.5002 9.17157 15.5002 10V14C15.5002 14.8284 14.8286 15.5 14.0002 15.5H3.00018C2.17175 15.5 1.50018 14.8284 1.50018 14V10C1.50018 9.6041 1.65356 9.24402 1.90413 8.97595C1.59169 8.77769 1.3508 8.4638 1.25323 8.0737L0.739914 6.02116C0.549739 5.26073 0.977121 4.48209 1.72074 4.23421L11.8177 0.86847ZM3.00018 9.5C2.72403 9.5 2.50018 9.72386 2.50018 10V14C2.50018 14.2761 2.72403 14.5 3.00018 14.5H14.0002C14.2763 14.5 14.5002 14.2761 14.5002 14V10C14.5002 9.72386 14.2763 9.5 14.0002 9.5H3.00018Z" fill="#6E778C"/>
</g>
<defs>
<clipPath id="clip0_430_11977">
<rect width="16" height="16" fill="white"/>
</clipPath>
</defs>
</svg>
