<svg width="16" height="16" viewBox="0 0 16 16" fill="none" xmlns="http://www.w3.org/2000/svg">
<path fill-rule="evenodd" clip-rule="evenodd" d="M12 0.5C12.2761 0.5 12.5 0.723858 12.5 1V2.5L14 2.5C14.2761 2.5 14.5 2.72386 14.5 3C14.5 3.27614 14.2761 3.5 14 3.5L12 3.5L4 3.5L2 3.5C1.72386 3.5 1.5 3.27614 1.5 3C1.5 2.72386 1.72386 2.5 2 2.5H3.5L3.5 1C3.5 0.723858 3.72386 0.5 4 0.5C4.27614 0.5 4.5 0.723858 4.5 1V2.5L11.5 2.5V1C11.5 0.723858 11.7239 0.5 12 0.5ZM2 14.5C1.72386 14.5 1.5 14.7239 1.5 15C1.5 15.2761 1.72386 15.5 2 15.5L14 15.5C14.2761 15.5 14.5 15.2761 14.5 15C14.5 14.7239 14.2761 14.5 14 14.5L2 14.5ZM2.5 6C2.5 5.72386 2.72386 5.5 3 5.5L7 5.5C7.27614 5.5 7.5 5.72386 7.5 6L7.5 12C7.5 12.2761 7.27614 12.5 7 12.5H3C2.72386 12.5 2.5 12.2761 2.5 12L2.5 6ZM3.5 11.5L3.5 7.47183L5.9169 11.5H3.5ZM6.5 6.5V10.5282L4.0831 6.5L6.5 6.5ZM9 5.5C8.72386 5.5 8.5 5.72386 8.5 6L8.5 12C8.5 12.2761 8.72386 12.5 9 12.5H13C13.2761 12.5 13.5 12.2761 13.5 12L13.5 6C13.5 5.72386 13.2761 5.5 13 5.5L9 5.5ZM9.5 7.47183L9.5 11.5H11.9169L9.5 7.47183ZM12.5 10.5282L12.5 6.5L10.0831 6.5L12.5 10.5282Z" fill="currentColor"/>
</svg>
