<svg width="16" height="16" viewBox="0 0 16 16" fill="none" xmlns="http://www.w3.org/2000/svg">
<g clip-path="url(#clip0_430_11244)">
<path fill-rule="evenodd" clip-rule="evenodd" d="M11.5 1.5C10.9477 1.5 10.5 1.94772 10.5 2.5C10.5 3.05228 10.9477 3.5 11.5 3.5C12.0523 3.5 12.5 3.05228 12.5 2.5C12.5 1.94772 12.0523 1.5 11.5 1.5ZM9.76756 1.5C10.1134 0.902199 10.7597 0.5 11.5 0.5C12.6046 0.5 13.5 1.39543 13.5 2.5C13.5 3.60457 12.6046 4.5 11.5 4.5V7.5H12C12.8284 7.5 13.5 8.17157 13.5 9V10C13.5 10.2761 13.2761 10.5 13 10.5C12.7239 10.5 12.5 10.2761 12.5 10V9C12.5 8.72386 12.2761 8.5 12 8.5H11H10C9.72386 8.5 9.5 8.72386 9.5 9V10C9.5 10.2761 9.27614 10.5 9 10.5C8.72386 10.5 8.5 10.2761 8.5 10V9C8.5 8.17157 9.17157 7.5 10 7.5H10.5V4.23244C9.9022 3.88663 9.5 3.24028 9.5 2.5H6.5C6.5 3.60457 5.60457 4.5 4.5 4.5C4.44649 4.5 4.39346 4.4979 4.34101 4.49377L2.73314 8.51344C3.72787 8.62893 4.5 9.47429 4.5 10.5C4.5 10.6141 4.49044 10.726 4.47209 10.8349C4.49017 10.8866 4.5 10.9421 4.5 11V15C4.5 15.2761 4.27614 15.5 4 15.5H1C0.723858 15.5 0.5 15.2761 0.5 15V11C0.5 10.9421 0.50983 10.8866 0.527911 10.8349C0.509556 10.726 0.5 10.6141 0.5 10.5C0.5 9.73122 0.933759 9.06375 1.56989 8.72898L3.39466 4.16706C2.85543 3.80881 2.5 3.19591 2.5 2.5C2.5 1.39543 3.39543 0.5 4.5 0.5C5.24028 0.5 5.88663 0.902199 6.23244 1.5H9.76756ZM10 11.5C9.17157 11.5 8.5 12.1716 8.5 13V14.5H7C6.72386 14.5 6.5 14.7239 6.5 15C6.5 15.2761 6.72386 15.5 7 15.5H9H13H15C15.2761 15.5 15.5 15.2761 15.5 15C15.5 14.7239 15.2761 14.5 15 14.5H13.5V13C13.5 12.1716 12.8284 11.5 12 11.5H10ZM12.5 13V14.5H9.5V13C9.5 12.7239 9.72386 12.5 10 12.5H12C12.2761 12.5 12.5 12.7239 12.5 13ZM3.5 14.5V12.2324C3.20583 12.4026 2.86429 12.5 2.5 12.5C2.13571 12.5 1.79417 12.4026 1.5 12.2324V14.5H3.5ZM3.5 2.5C3.5 1.94772 3.94772 1.5 4.5 1.5C5.05228 1.5 5.5 1.94772 5.5 2.5C5.5 3.05228 5.05228 3.5 4.5 3.5C3.94772 3.5 3.5 3.05228 3.5 2.5ZM2.5 9.5C1.94772 9.5 1.5 9.94771 1.5 10.5C1.5 11.0523 1.94772 11.5 2.5 11.5C3.05228 11.5 3.5 11.0523 3.5 10.5C3.5 9.94771 3.05228 9.5 2.5 9.5Z" fill="currentColor"/>
</g>
<defs>
<clipPath id="clip0_430_11244">
<rect width="16" height="16" fill="white"/>
</clipPath>
</defs>
</svg>
