<svg width="16" height="16" viewBox="0 0 16 16" fill="none" xmlns="http://www.w3.org/2000/svg">
<path fill-rule="evenodd" clip-rule="evenodd" d="M8.67082 0.776401C8.24853 0.565256 7.75147 0.565255 7.32918 0.776401L2.32918 3.2764C1.821 3.53049 1.5 4.04988 1.5 4.61804V11.382C1.5 11.9501 1.821 12.4695 2.32918 12.7236L7.32918 15.2236C7.75147 15.4348 8.24853 15.4348 8.67082 15.2236L13.6708 12.7236C14.179 12.4695 14.5 11.9501 14.5 11.382V4.61804C14.5 4.04988 14.179 3.53049 13.6708 3.2764L8.67082 0.776401ZM7.77639 1.67083C7.91716 1.60045 8.08284 1.60045 8.22361 1.67083L13.1247 4.12137L8 6.45078L2.87531 4.12137L7.77639 1.67083ZM2.5 5.04924V11.382C2.5 11.5714 2.607 11.7445 2.77639 11.8292L7.5 14.191V7.32196L2.5 5.04924ZM8.5 14.191L13.2236 11.8292C13.393 11.7445 13.5 11.5714 13.5 11.382V5.04924L8.5 7.32196V14.191Z" fill="#6E778C"/>
</svg>
