<svg width="16" height="16" viewBox="0 0 16 16" fill="none" xmlns="http://www.w3.org/2000/svg">
<path fill-rule="evenodd" clip-rule="evenodd" d="M8.67082 0.776386C8.24853 0.565241 7.75147 0.56524 7.32918 0.776386L2.32918 3.27639C1.821 3.53047 1.5 4.04987 1.5 4.61803V11.382C1.5 11.9501 1.821 12.4695 2.32918 12.7236L7.32918 15.2236C7.75147 15.4347 8.24853 15.4347 8.67082 15.2236L13.6708 12.7236C14.179 12.4695 14.5 11.9501 14.5 11.382V4.61803C14.5 4.04987 14.179 3.53047 13.6708 3.27639L8.67082 0.776386ZM7.77639 1.67081C7.91716 1.60043 8.08284 1.60043 8.22361 1.67081L13.1247 4.12136L8 6.45076L2.87531 4.12136L7.77639 1.67081ZM2.5 5.04922V11.382C2.5 11.5713 2.607 11.7445 2.77639 11.8292L7.5 14.191V7.32195L2.5 5.04922ZM8.5 14.191L13.2236 11.8292C13.393 11.7445 13.5 11.5713 13.5 11.382V5.04922L8.5 7.32195V14.191Z" fill="currentColor"/>
</svg>
