<svg width="16" height="16" viewBox="0 0 16 16" fill="none" xmlns="http://www.w3.org/2000/svg">
<g clip-path="url(#clip0_414_11656)">
<path fill-rule="evenodd" clip-rule="evenodd" d="M1.5 4C1.5 3.75487 1.6138 3.47952 1.90597 3.18348C2.20026 2.88529 2.65089 2.59382 3.24721 2.33825C4.43808 1.82788 6.1181 1.5 8 1.5C9.8819 1.5 11.5619 1.82788 12.7528 2.33825C13.3491 2.59382 13.7997 2.88529 14.094 3.18348C14.3862 3.47952 14.5 3.75487 14.5 4C14.5 4.24513 14.3862 4.52048 14.094 4.81652C13.7997 5.11471 13.3491 5.40618 12.7528 5.66175C11.5619 6.17212 9.8819 6.5 8 6.5C6.1181 6.5 4.43808 6.17212 3.24721 5.66175C2.65089 5.40618 2.20026 5.11471 1.90597 4.81652C1.6138 4.52048 1.5 4.24513 1.5 4ZM8 0.5C6.01591 0.5 4.19593 0.843691 2.85329 1.41911C2.18286 1.70643 1.60837 2.06141 1.19422 2.48105C0.77795 2.90284 0.5 3.4167 0.5 4C0.5 4.5833 0.77795 5.09716 1.19422 5.51895C1.36293 5.6899 1.55825 5.85011 1.77582 5.9994C1.4927 6.16799 1.25758 6.35536 1.06865 6.5618C0.668731 6.99878 0.5 7.49547 0.5 8C0.5 8.5833 0.77795 9.09716 1.19422 9.51895C1.36293 9.6899 1.55825 9.85011 1.77582 9.9994C1.4927 10.168 1.25758 10.3554 1.06865 10.5618C0.668731 10.9988 0.5 11.4955 0.5 12C0.5 12.5833 0.77795 13.0972 1.19422 13.519C1.60837 13.9386 2.18286 14.2936 2.85329 14.5809C4.19593 15.1563 6.01591 15.5 8 15.5C8.27614 15.5 8.5 15.2761 8.5 15C8.5 14.7239 8.27614 14.5 8 14.5C6.1181 14.5 4.43808 14.1721 3.24721 13.6617C2.65089 13.4062 2.20026 13.1147 1.90597 12.8165C1.6138 12.5205 1.5 12.2451 1.5 12C1.5 11.7362 1.58127 11.4829 1.80635 11.2369C2.00617 11.0186 2.33464 10.7902 2.85845 10.5831C4.20059 11.1572 6.01845 11.5 8 11.5C8.27614 11.5 8.5 11.2761 8.5 11C8.5 10.7239 8.27614 10.5 8 10.5C6.1181 10.5 4.43808 10.1721 3.24721 9.66175C2.65089 9.40618 2.20026 9.11471 1.90597 8.81652C1.6138 8.52048 1.5 8.24513 1.5 8C1.5 7.73618 1.58127 7.48287 1.80635 7.23694C2.00617 7.0186 2.33464 6.79024 2.85845 6.5831C4.20059 7.15719 6.01845 7.5 8 7.5C9.98155 7.5 11.7994 7.15719 13.1416 6.5831C13.6654 6.79024 13.9938 7.0186 14.1937 7.23694C14.4187 7.48287 14.5 7.73618 14.5 8C14.5 8.27614 14.7239 8.5 15 8.5C15.2761 8.5 15.5 8.27614 15.5 8C15.5 7.49547 15.3313 6.99878 14.9313 6.5618C14.7424 6.35536 14.5073 6.16799 14.2242 5.9994C14.4418 5.85011 14.6371 5.6899 14.8058 5.51895C15.222 5.09716 15.5 4.5833 15.5 4C15.5 3.4167 15.222 2.90284 14.8058 2.48105C14.3916 2.06141 13.8171 1.70643 13.1467 1.41911C11.8041 0.843691 9.98409 0.5 8 0.5ZM12 9.5C12.2761 9.5 12.5 9.72386 12.5 10V11.5H14C14.2761 11.5 14.5 11.7239 14.5 12C14.5 12.2761 14.2761 12.5 14 12.5H12.5V14C12.5 14.2761 12.2761 14.5 12 14.5C11.7239 14.5 11.5 14.2761 11.5 14V12.5H10C9.72386 12.5 9.5 12.2761 9.5 12C9.5 11.7239 9.72386 11.5 10 11.5H11.5V10C11.5 9.72386 11.7239 9.5 12 9.5Z" fill="#6E778C"/>
</g>
<defs>
<clipPath id="clip0_414_11656">
<rect width="16" height="16" fill="white"/>
</clipPath>
</defs>
</svg>
