<svg width="16" height="16" viewBox="0 0 16 16" fill="none" xmlns="http://www.w3.org/2000/svg">
<path fill-rule="evenodd" clip-rule="evenodd" d="M1.5 4C1.5 3.75487 1.6138 3.47952 1.90597 3.18348C2.20026 2.88529 2.65089 2.59382 3.24721 2.33825C4.43808 1.82788 6.1181 1.5 8 1.5C8.27614 1.5 8.5 1.27614 8.5 1C8.5 0.723858 8.27614 0.5 8 0.5C6.01591 0.5 4.19593 0.843691 2.85329 1.41911C2.18286 1.70643 1.60837 2.06141 1.19422 2.48105C0.77795 2.90284 0.5 3.4167 0.5 4C0.5 4.5833 0.77795 5.09716 1.19422 5.51895C1.36293 5.6899 1.55825 5.85011 1.77582 5.9994C1.4927 6.16799 1.25758 6.35536 1.06865 6.5618C0.668731 6.99878 0.5 7.49547 0.5 8C0.5 8.5833 0.77795 9.09716 1.19422 9.51895C1.36293 9.6899 1.55825 9.85011 1.77582 9.9994C1.4927 10.168 1.25758 10.3554 1.06865 10.5618C0.668731 10.9988 0.5 11.4955 0.5 12C0.5 12.5833 0.77795 13.0972 1.19422 13.519C1.60837 13.9386 2.18286 14.2936 2.85329 14.5809C4.19593 15.1563 6.01591 15.5 8 15.5C8.27614 15.5 8.5 15.2761 8.5 15C8.5 14.7239 8.27614 14.5 8 14.5C6.1181 14.5 4.43808 14.1721 3.24721 13.6617C2.65089 13.4062 2.20026 13.1147 1.90597 12.8165C1.6138 12.5205 1.5 12.2451 1.5 12C1.5 11.7362 1.58127 11.4829 1.80635 11.2369C2.00617 11.0186 2.33464 10.7902 2.85845 10.5831C4.20059 11.1572 6.01845 11.5 8 11.5C8.27614 11.5 8.5 11.2761 8.5 11C8.5 10.7239 8.27614 10.5 8 10.5C6.1181 10.5 4.43808 10.1721 3.24721 9.66175C2.65089 9.40618 2.20026 9.11471 1.90597 8.81652C1.6138 8.52048 1.5 8.24513 1.5 8C1.5 7.73618 1.58127 7.48287 1.80635 7.23694C2.00617 7.0186 2.33464 6.79024 2.85845 6.5831C4.20059 7.15719 6.01845 7.5 8 7.5C8.27614 7.5 8.5 7.27614 8.5 7C8.5 6.72386 8.27614 6.5 8 6.5C6.1181 6.5 4.43808 6.17212 3.24721 5.66175C2.65089 5.40618 2.20026 5.11471 1.90597 4.81652C1.6138 4.52048 1.5 4.24513 1.5 4ZM10.3636 12.3259V13.0859H12.8991C13.2554 13.0883 13.4336 13.2356 13.4336 13.528C13.4336 13.6618 13.3939 13.7695 13.3146 13.8512C13.2341 13.9317 13.1217 13.9731 12.9773 13.9755V14.7407C13.2188 14.7419 13.4188 14.6904 13.5774 14.5862C13.736 14.4821 13.8544 14.3412 13.9325 14.1637C14.0107 13.9849 14.0497 13.7861 14.0497 13.5671C14.0497 13.3209 14.003 13.1048 13.9094 12.919C13.8147 12.7331 13.6816 12.5881 13.5099 12.484C13.3371 12.3786 13.1335 12.3259 12.8991 12.3259H10.3636ZM11.0756 9.9023C11.1549 9.7934 11.2662 9.73184 11.4094 9.71764V8.98078C11.1928 8.98433 11.0022 9.04233 10.8377 9.15479C10.6732 9.26724 10.5447 9.42467 10.4524 9.62709C10.3601 9.82832 10.3139 10.0639 10.3139 10.3338C10.3139 10.5989 10.3601 10.8357 10.4524 11.044C10.5436 11.2523 10.672 11.4163 10.8377 11.5358C11.0022 11.6542 11.1946 11.7128 11.4148 11.7116C11.6823 11.7128 11.896 11.6246 12.0558 11.447C12.2156 11.2695 12.3321 11.0274 12.4055 10.7208L12.505 10.3249C12.5523 10.1272 12.6091 9.9751 12.6754 9.86856C12.7417 9.76203 12.8364 9.70817 12.9595 9.70699C13.0921 9.70817 13.1998 9.76736 13.2827 9.88454C13.3655 10.0005 13.407 10.1562 13.407 10.3515C13.407 10.5516 13.3614 10.7173 13.2702 10.8487C13.1779 10.9789 13.0406 11.0505 12.8583 11.0635V11.8075C13.2513 11.798 13.5484 11.6619 13.7496 11.3991C13.9509 11.1363 14.0515 10.7842 14.0515 10.3426C14.0515 9.89875 13.9532 9.5531 13.7567 9.30571C13.5591 9.05713 13.2939 8.93225 12.9613 8.93106C12.7589 8.93106 12.5872 8.97841 12.4464 9.07311C12.3043 9.16662 12.1883 9.29565 12.0984 9.46018C12.0084 9.62354 11.9397 9.81056 11.8924 10.0213L11.8143 10.348C11.7776 10.5054 11.7261 10.6415 11.6598 10.7563C11.5923 10.87 11.4935 10.9256 11.3633 10.9233C11.2461 10.9233 11.149 10.8729 11.0721 10.7723C10.9951 10.6717 10.9567 10.5273 10.9567 10.3391C10.9567 10.1556 10.9963 10.01 11.0756 9.9023ZM13.1939 5.29781C12.9157 5.14748 12.5784 5.07231 12.1818 5.07231C11.7853 5.07231 11.4479 5.14748 11.1697 5.29781C10.8916 5.44695 10.6797 5.64996 10.5341 5.90683C10.3873 6.16369 10.3139 6.45311 10.3139 6.77508C10.3139 7.09823 10.3873 7.38824 10.5341 7.64511C10.6797 7.90197 10.8916 8.10498 11.1697 8.25413C11.4479 8.40328 11.7853 8.47785 12.1818 8.47785C12.576 8.47785 12.9128 8.40328 13.1921 8.25413C13.4703 8.10498 13.6828 7.90197 13.8295 7.64511C13.9763 7.38824 14.0497 7.09823 14.0497 6.77508C14.0497 6.45311 13.9769 6.16369 13.8313 5.90683C13.6845 5.64996 13.4721 5.44695 13.1939 5.29781ZM11.2994 6.10392C11.5018 5.93583 11.7959 5.85178 12.1818 5.85178C12.5665 5.85178 12.8607 5.93583 13.0643 6.10392C13.2679 6.272 13.3697 6.49572 13.3697 6.77508C13.3697 7.05444 13.2679 7.27816 13.0643 7.44624C12.8607 7.61433 12.5665 7.69838 12.1818 7.69838C11.7959 7.69838 11.5018 7.61433 11.2994 7.44624C11.0958 7.27816 10.994 7.05444 10.994 6.77508C10.994 6.49572 11.0958 6.272 11.2994 6.10392ZM14 1.46125L10.3636 1.46125V2.22652L12.6506 2.22652V2.25848L10.3636 3.82808V4.5028L14 4.5028L14 3.73398L11.7113 3.73398V3.70734L14 2.12531V1.46125Z" fill="currentColor"/>
</svg>
