<svg width="16" height="16" viewBox="0 0 16 16" fill="none" xmlns="http://www.w3.org/2000/svg">
<g clip-path="url(#clip0_414_11887)">
<path fill-rule="evenodd" clip-rule="evenodd" d="M8.83187 0.953775C8.32802 0.617876 7.67162 0.617876 7.16777 0.953776L6.22439 1.58269C6.14226 1.63745 6.04576 1.66667 5.94704 1.66667H5.22058C4.57493 1.66667 4.00173 2.07981 3.79755 2.69233L3.60026 3.28421C3.55049 3.43351 3.43333 3.55067 3.28403 3.60044L2.69215 3.79773C2.07963 4.00191 1.66649 4.57511 1.66649 5.22076V5.94722C1.66649 6.04594 1.63727 6.14244 1.58251 6.22457L0.956514 7.16357C0.618413 7.67072 0.620817 8.33204 0.962594 8.83672L1.59571 9.7716C1.65276 9.85584 1.68275 9.95549 1.68168 10.0572L1.6742 10.766C1.66733 11.4174 2.08173 11.9988 2.69978 12.2048L3.28403 12.3996C3.43333 12.4493 3.55049 12.5665 3.60026 12.7158L3.79526 13.3008C4.0011 13.9183 4.58168 14.3326 5.23255 14.3264L6.1041 14.3181C6.21506 14.317 6.32323 14.3529 6.41155 14.4201L7.12994 14.9665C7.6391 15.3538 8.33783 15.3756 8.87009 15.0207L9.77525 14.4173C9.85738 14.3626 9.95388 14.3333 10.0526 14.3333H10.7791C11.4247 14.3333 11.9979 13.9202 12.2021 13.3077L12.3994 12.7158C12.4491 12.5665 12.5663 12.4493 12.7156 12.3996L13.3075 12.2023C13.92 11.9981 14.3332 11.4249 14.3332 10.7792V10.0528C14.3332 9.95406 14.3624 9.85756 14.4171 9.77542L15.0431 8.83643C15.3812 8.32928 15.3788 7.66796 15.037 7.16328L14.4039 6.22841C14.3469 6.14416 14.3169 6.04451 14.318 5.94277L14.3254 5.23404C14.3323 4.5826 13.9179 4.0012 13.2999 3.79519L12.7137 3.59981C12.5649 3.55022 12.4481 3.43371 12.398 3.2851L12.2004 2.69869C11.9967 2.09402 11.4328 1.68439 10.7948 1.67766L10.0521 1.66983C9.95519 1.66881 9.86067 1.63964 9.78003 1.58588L8.83187 0.953775ZM7.72247 1.78583C7.89042 1.67386 8.10922 1.67386 8.27717 1.78583L9.22533 2.41793C9.46725 2.57921 9.75082 2.66671 10.0416 2.66977L10.7842 2.67761C10.9969 2.67985 11.1849 2.81639 11.2528 3.01795L11.4503 3.60435C11.6005 4.05018 11.9512 4.39972 12.3975 4.54849L12.9836 4.74387C13.1896 4.81255 13.3278 5.00634 13.3255 5.22349L13.318 5.93222C13.3148 6.23745 13.4048 6.53639 13.5759 6.78914L14.209 7.72401C14.323 7.89224 14.3238 8.11268 14.2111 8.28173L13.5851 9.22073C13.4208 9.46713 13.3332 9.75664 13.3332 10.0528V10.7792C13.3332 10.9945 13.1954 11.1855 12.9913 11.2536L12.3994 11.4509C11.9515 11.6002 11.6 11.9517 11.4507 12.3996L11.2534 12.9914C11.1853 13.1956 10.9943 13.3333 10.7791 13.3333H10.0526C9.75646 13.3333 9.46695 13.421 9.22055 13.5853L8.31539 14.1887C8.13797 14.307 7.90506 14.2997 7.73534 14.1706L7.01695 13.6242C6.75198 13.4227 6.42749 13.315 6.09459 13.3181L5.22304 13.3264C5.00608 13.3285 4.81256 13.1904 4.74395 12.9846L4.54894 12.3996C4.39964 11.9517 4.04817 11.6002 3.60026 11.4509L3.01601 11.2561C2.80999 11.1875 2.67186 10.9937 2.67415 10.7765L2.68162 10.0678C2.68484 9.76255 2.59486 9.46361 2.4237 9.21086L1.79059 8.27599C1.67667 8.10776 1.67586 7.88732 1.78856 7.71827L2.41456 6.77927C2.57883 6.53287 2.66649 6.24336 2.66649 5.94722V5.22076C2.66649 5.00554 2.8042 4.81448 3.00837 4.74642L3.60026 4.54912C4.04817 4.39982 4.39964 4.04835 4.54894 3.60044L4.74624 3.00855C4.8143 2.80438 5.00536 2.66667 5.22058 2.66667H5.94704C6.24318 2.66667 6.53269 2.57901 6.7791 2.41474L7.72247 1.78583ZM7.99982 4C8.27596 4 8.49982 4.22386 8.49982 4.5V9.5C8.49982 9.77614 8.27596 10 7.99982 10C7.72368 10 7.49982 9.77614 7.49982 9.5V4.5C7.49982 4.22386 7.72368 4 7.99982 4ZM8.49982 11.5C8.49982 11.7761 8.27596 12 7.99982 12C7.72368 12 7.49982 11.7761 7.49982 11.5C7.49982 11.2239 7.72368 11 7.99982 11C8.27596 11 8.49982 11.2239 8.49982 11.5Z" fill="#6E778C"/>
</g>
<defs>
<clipPath id="clip0_414_11887">
<rect width="16" height="16" fill="white"/>
</clipPath>
</defs>
</svg>
