<svg width="16" height="16" viewBox="0 0 16 16" fill="none" xmlns="http://www.w3.org/2000/svg">
<g clip-path="url(#clip0_414_11882)">
<path fill-rule="evenodd" clip-rule="evenodd" d="M8.83187 0.953775C8.32802 0.617876 7.67162 0.617876 7.16777 0.953776L6.22439 1.58269C6.14226 1.63745 6.04576 1.66667 5.94704 1.66667H5.22058C4.57493 1.66667 4.00173 2.07981 3.79755 2.69233L3.60026 3.28421C3.55049 3.43351 3.43333 3.55067 3.28403 3.60044L2.69215 3.79773C2.07963 4.00191 1.66649 4.57511 1.66649 5.22076V5.94722C1.66649 6.04594 1.63727 6.14244 1.58251 6.22457L0.956514 7.16357C0.618413 7.67072 0.620817 8.33204 0.962594 8.83672L1.59571 9.7716C1.65276 9.85584 1.68275 9.95549 1.68168 10.0572L1.6742 10.766C1.66733 11.4174 2.08173 11.9988 2.69978 12.2048L3.28403 12.3996C3.43333 12.4493 3.55049 12.5665 3.60026 12.7158L3.79526 13.3008C4.0011 13.9183 4.58168 14.3326 5.23255 14.3264L6.1041 14.3181C6.21506 14.317 6.32323 14.3529 6.41155 14.4201L7.12994 14.9665C7.6391 15.3538 8.33783 15.3756 8.87009 15.0207L9.77525 14.4173C9.85738 14.3626 9.95388 14.3333 10.0526 14.3333H10.7791C11.4247 14.3333 11.9979 13.9202 12.2021 13.3077L12.3994 12.7158C12.4491 12.5665 12.5663 12.4493 12.7156 12.3996L13.3075 12.2023C13.92 11.9981 14.3332 11.4249 14.3332 10.7792V10.0528C14.3332 9.95406 14.3624 9.85756 14.4171 9.77542L15.0431 8.83643C15.3812 8.32928 15.3788 7.66796 15.037 7.16328L14.4039 6.22841C14.3469 6.14416 14.3169 6.04451 14.318 5.94277L14.3254 5.23404C14.3323 4.5826 13.9179 4.0012 13.2999 3.79519L12.7137 3.59981C12.5649 3.55022 12.4481 3.43371 12.398 3.2851L12.2004 2.69869C11.9967 2.09402 11.4328 1.68439 10.7948 1.67766L10.0521 1.66983C9.95519 1.66881 9.86067 1.63964 9.78003 1.58588L8.83187 0.953775ZM8.49982 4.49932C8.49982 4.22318 8.27597 3.99932 7.99982 3.99932C7.72368 3.99932 7.49982 4.22318 7.49982 4.49932V9.49932C7.49982 9.77546 7.72368 9.99932 7.99982 9.99932C8.27597 9.99932 8.49982 9.77546 8.49982 9.49932V4.49932ZM7.99982 11.9993C8.27597 11.9993 8.49982 11.7755 8.49982 11.4993C8.49982 11.2232 8.27597 10.9993 7.99982 10.9993C7.72368 10.9993 7.49982 11.2232 7.49982 11.4993C7.49982 11.7755 7.72368 11.9993 7.99982 11.9993Z" fill="#6E778C"/>
</g>
<defs>
<clipPath id="clip0_414_11882">
<rect width="16" height="16" fill="white"/>
</clipPath>
</defs>
</svg>
