<svg width="16" height="16" viewBox="0 0 16 16" fill="none" xmlns="http://www.w3.org/2000/svg">
<path fill-rule="evenodd" clip-rule="evenodd" d="M5.3534 2.93934C5.63471 2.65804 6.01624 2.5 6.41406 2.5H13.9998C14.8283 2.5 15.4998 3.17157 15.4998 4V12C15.4998 12.8284 14.8283 13.5 13.9998 13.5H6.41406C6.01624 13.5 5.63471 13.342 5.3534 13.0607L1.3534 9.06066C0.767615 8.47487 0.767617 7.52513 1.3534 6.93934L5.3534 2.93934ZM6.41406 3.5C6.28145 3.5 6.15428 3.55268 6.06051 3.64645L2.06051 7.64645C1.86525 7.84171 1.86525 8.15829 2.06051 8.35355L6.06051 12.3536C6.15428 12.4473 6.28145 12.5 6.41406 12.5H13.9998C14.276 12.5 14.4998 12.2761 14.4998 12V4C14.4998 3.72386 14.276 3.5 13.9998 3.5H6.41406ZM12.3534 5.64645C12.5487 5.84171 12.5487 6.15829 12.3534 6.35355L10.707 8L12.3534 9.64645C12.5487 9.84171 12.5487 10.1583 12.3534 10.3536C12.1581 10.5488 11.8416 10.5488 11.6463 10.3536L9.99985 8.70711L8.3534 10.3536C8.15814 10.5488 7.84156 10.5488 7.6463 10.3536C7.45103 10.1583 7.45103 9.84171 7.6463 9.64645L9.29274 8L7.6463 6.35355C7.45103 6.15829 7.45103 5.84171 7.6463 5.64645C7.84156 5.45118 8.15814 5.45118 8.3534 5.64645L9.99985 7.29289L11.6463 5.64645C11.8416 5.45118 12.1581 5.45118 12.3534 5.64645Z" fill="#6E778C"/>
</svg>
