<svg width="16" height="16" viewBox="0 0 16 16" fill="none" xmlns="http://www.w3.org/2000/svg">
<path fill-rule="evenodd" clip-rule="evenodd" d="M4 0.5C3.17157 0.5 2.5 1.17157 2.5 2V4V8V14C2.5 14.8284 3.17157 15.5 4 15.5H12C12.8284 15.5 13.5 14.8284 13.5 14V8V4V2C13.5 1.17157 12.8284 0.5 12 0.5H4ZM3.5 14V8.5H12.5V14C12.5 14.2761 12.2761 14.5 12 14.5H4C3.72386 14.5 3.5 14.2761 3.5 14ZM3.5 7.5H12.5V4.5H3.5V7.5ZM12.5 3.5V2C12.5 1.72386 12.2761 1.5 12 1.5H4C3.72386 1.5 3.5 1.72386 3.5 2V3.5H12.5ZM11.5 14C11.7761 14 12 13.7761 12 13.5C12 13.2239 11.7761 13 11.5 13C11.2239 13 11 13.2239 11 13.5C11 13.7761 11.2239 14 11.5 14Z" fill="#6E778C"/>
</svg>
