<svg width="16" height="16" viewBox="0 0 16 16" fill="none" xmlns="http://www.w3.org/2000/svg">
<path fill-rule="evenodd" clip-rule="evenodd" d="M8.21358 1.72684C8.08066 1.63869 7.91934 1.63869 7.78642 1.72684C7.08744 2.1904 5.74906 3.15822 4.59071 4.45333C3.42445 5.75728 2.5 7.32639 2.5 9C2.5 12.0376 4.96243 14.5 8 14.5C11.0376 14.5 13.5 12.0376 13.5 9C13.5 7.32639 12.5756 5.75728 11.4093 4.45333C10.2509 3.15823 8.91256 2.1904 8.21358 1.72684ZM7.23372 0.893458C7.70162 0.583151 8.29838 0.583153 8.76628 0.893458C9.49931 1.3796 10.916 2.40175 12.1546 3.78667C13.3854 5.16274 14.5 6.9637 14.5 9C14.5 12.5899 11.5899 15.5 8 15.5C4.41015 15.5 1.5 12.5899 1.5 9C1.5 6.9637 2.61458 5.16274 3.84535 3.78667C5.08404 2.40175 6.50069 1.3796 7.23372 0.893458Z" fill="currentColor"/>
</svg>
