<svg width="16" height="16" viewBox="0 0 16 16" fill="none" xmlns="http://www.w3.org/2000/svg">
<g clip-path="url(#clip0_434_9329)">
<path fill-rule="evenodd" clip-rule="evenodd" d="M7.49029 1.09806C7.53711 0.863959 7.4119 0.629418 7.19134 0.538058C6.97078 0.446699 6.7164 0.52401 6.58398 0.722648L0.583976 9.72265C0.48169 9.87608 0.472154 10.0733 0.559163 10.2359C0.646173 10.3985 0.815603 10.5 1 10.5H5.3901L4.50971 14.9019C4.46289 15.136 4.5881 15.3706 4.80866 15.4619C5.02922 15.5533 5.2836 15.476 5.41603 15.2773L11.416 6.27735C11.5183 6.12392 11.5278 5.92665 11.4408 5.76407C11.3538 5.60149 11.1844 5.5 11 5.5H6.6099L7.49029 1.09806ZM6 9.5H1.93426L6.01403 3.38034L5.50971 5.90194C5.48033 6.04883 5.51836 6.20115 5.61333 6.31699C5.7083 6.43284 5.8502 6.5 6 6.5H10.0657L5.98597 12.6197L6.49029 10.0981C6.51967 9.95117 6.48164 9.79885 6.38667 9.683C6.2917 9.56716 6.1498 9.5 6 9.5ZM15.3536 1.35355C15.5488 1.15829 15.5488 0.841707 15.3536 0.646445C15.1583 0.451183 14.8417 0.451183 14.6464 0.646445L12 3.29289L11.3536 2.64644C11.1583 2.45118 10.8417 2.45118 10.6464 2.64644C10.4512 2.84171 10.4512 3.15829 10.6464 3.35355L11.6464 4.35355C11.8417 4.54881 12.1583 4.54881 12.3536 4.35355L15.3536 1.35355Z" fill="#6E778C"/>
</g>
<defs>
<clipPath id="clip0_434_9329">
<rect width="16" height="16" fill="white"/>
</clipPath>
</defs>
</svg>
