<svg width="16" height="16" viewBox="0 0 16 16" fill="none" xmlns="http://www.w3.org/2000/svg">
<path fill-rule="evenodd" clip-rule="evenodd" d="M9.19134 0.538112C9.4119 0.629471 9.53711 0.864012 9.49029 1.09811L8.6099 5.50005H13C13.1844 5.50005 13.3538 5.60154 13.4408 5.76412C13.5278 5.9267 13.5183 6.12397 13.416 6.2774L7.41603 15.2774C7.2836 15.476 7.02922 15.5534 6.80866 15.462C6.5881 15.3706 6.46289 15.1361 6.50971 14.902L7.3901 10.5001H3C2.8156 10.5001 2.64617 10.3986 2.55916 10.236C2.47215 10.0734 2.48169 9.87613 2.58398 9.7227L8.58398 0.722702C8.7164 0.524063 8.97078 0.446752 9.19134 0.538112ZM3.93426 9.50005H8C8.1498 9.50005 8.2917 9.56721 8.38667 9.68306C8.48164 9.7989 8.51967 9.95122 8.49029 10.0981L7.98597 12.6197L12.0657 6.50005H8C7.8502 6.50005 7.7083 6.43289 7.61333 6.31705C7.51836 6.2012 7.48033 6.04888 7.50971 5.90199L8.01403 3.3804L3.93426 9.50005Z" fill="#6E778C"/>
</svg>
