<svg width="16" height="16" viewBox="0 0 16 16" fill="none" xmlns="http://www.w3.org/2000/svg">
<path fill-rule="evenodd" clip-rule="evenodd" d="M1.65016 7.81234C3.16688 4.90565 5.73856 3.5 8 3.5C10.2614 3.5 12.8331 4.90564 14.3498 7.81234C14.4111 7.92965 14.4111 8.07035 14.3498 8.18766C12.8331 11.0944 10.2614 12.5 8 12.5C5.73857 12.5 3.16693 11.0944 1.65016 8.18765C1.58895 8.07034 1.58894 7.92965 1.65016 7.81234ZM8 2.5C5.32747 2.5 2.43407 4.14837 0.763594 7.34973C0.55113 7.7569 0.551133 8.2431 0.763602 8.65027C2.43412 11.8516 5.32746 13.5 8 13.5C10.6725 13.5 13.5659 11.8516 15.2364 8.65028C15.4489 8.2431 15.4489 7.7569 15.2364 7.34972C13.5659 4.14838 10.6725 2.5 8 2.5ZM6.5 8C6.5 7.17157 7.17157 6.5 8 6.5C8.82843 6.5 9.5 7.17157 9.5 8C9.5 8.82843 8.82843 9.5 8 9.5C7.17157 9.5 6.5 8.82843 6.5 8ZM8 5.5C6.61929 5.5 5.5 6.61929 5.5 8C5.5 9.38071 6.61929 10.5 8 10.5C9.38071 10.5 10.5 9.38071 10.5 8C10.5 6.61929 9.38071 5.5 8 5.5Z" fill="currentColor"/>
</svg>
