<svg width="16" height="16" viewBox="0 0 16 16" fill="none" xmlns="http://www.w3.org/2000/svg">
<path fill-rule="evenodd" clip-rule="evenodd" d="M2.49987 2C2.49987 1.17157 3.17144 0.5 3.99987 0.5H8.58565C8.98348 0.5 9.36501 0.658035 9.64631 0.93934L13.0605 4.35355C13.3418 4.63486 13.4999 5.01639 13.4999 5.41421V9C13.4999 9.27614 13.276 9.5 12.9999 9.5C12.7237 9.5 12.4999 9.27614 12.4999 9V5.5H9.99987C9.17144 5.5 8.49987 4.82843 8.49987 4V1.5H3.99987C3.72372 1.5 3.49987 1.72386 3.49987 2V9C3.49987 9.27614 3.27601 9.5 2.99987 9.5C2.72372 9.5 2.49987 9.27614 2.49987 9V2ZM9.49987 2.20711L11.7928 4.5H9.99987C9.72372 4.5 9.49987 4.27614 9.49987 4V2.20711ZM1.62158 11.3636V15H2.3904V13.821H3.03671C3.31607 13.821 3.55399 13.7695 3.75049 13.6665C3.94817 13.5624 4.09909 13.4186 4.20326 13.2351C4.30743 13.0504 4.35951 12.8374 4.35951 12.5959C4.35951 12.3544 4.30802 12.1413 4.20503 11.9567C4.10323 11.7708 3.95527 11.6258 3.76114 11.5217C3.56701 11.4163 3.33205 11.3636 3.05624 11.3636H1.62158ZM2.91242 13.2049H2.3904V11.9922H2.90887C3.13141 11.9922 3.29653 12.0478 3.40425 12.1591C3.51315 12.2692 3.5676 12.4148 3.5676 12.5959C3.5676 12.7758 3.51315 12.9226 3.40425 13.0362C3.29653 13.1487 3.13259 13.2049 2.91242 13.2049ZM4.85889 11.3636V15H5.62771V13.821H6.27401C6.55337 13.821 6.7913 13.7695 6.98779 13.6665C7.18547 13.5624 7.3364 13.4186 7.44056 13.2351C7.54473 13.0504 7.59681 12.8374 7.59681 12.5959C7.59681 12.3544 7.54532 12.1413 7.44234 11.9567C7.34054 11.7708 7.19258 11.6258 6.99845 11.5217C6.80432 11.4163 6.56935 11.3636 6.29355 11.3636H4.85889ZM6.14972 13.2049H5.62771V11.9922H6.14617C6.36871 11.9922 6.53384 12.0478 6.64156 12.1591C6.75046 12.2692 6.80491 12.4148 6.80491 12.5959C6.80491 12.7758 6.75046 12.9226 6.64156 13.0362C6.53384 13.1487 6.3699 13.2049 6.14972 13.2049ZM7.9577 11.3636V11.9975H9.07098V15H9.83092V11.9975H10.9442V11.3636H7.9577ZM12.8902 12.603L12.1569 11.3636H11.2851L12.4019 13.1818L11.2638 15H12.1445L12.8902 13.7589H12.9186L13.6644 15H14.5486L13.414 13.1818L14.5237 11.3636H13.6555L12.9186 12.603H12.8902Z" fill="currentColor"/>
</svg>
