<svg width="16" height="16" viewBox="0 0 16 16" fill="none" xmlns="http://www.w3.org/2000/svg">
<path fill-rule="evenodd" clip-rule="evenodd" d="M2.50011 2C2.50011 1.17157 3.17168 0.5 4.00011 0.5H8.5859C8.98372 0.5 9.36525 0.658035 9.64656 0.93934L13.0608 4.35355C13.3421 4.63486 13.5001 5.01639 13.5001 5.41421V9C13.5001 9.27614 13.2763 9.5 13.0001 9.5C12.724 9.5 12.5001 9.27614 12.5001 9V5.5H10.0001C9.17168 5.5 8.50011 4.82843 8.50011 4V1.5H4.00011C3.72397 1.5 3.50011 1.72386 3.50011 2V9C3.50011 9.27614 3.27625 9.5 3.00011 9.5C2.72397 9.5 2.50011 9.27614 2.50011 9V2ZM9.50011 2.20711L11.793 4.5H10.0001C9.72397 4.5 9.50011 4.27614 9.50011 4V2.20711ZM1.62183 11.3636V15H2.39065V13.821H3.03695C3.31631 13.821 3.55424 13.7695 3.75073 13.6665C3.94841 13.5624 4.09934 13.4186 4.2035 13.2351C4.30767 13.0504 4.35975 12.8374 4.35975 12.5959C4.35975 12.3544 4.30826 12.1413 4.20528 11.9567C4.10348 11.7708 3.95551 11.6258 3.76139 11.5217C3.56726 11.4163 3.33229 11.3636 3.05649 11.3636H1.62183ZM2.91266 13.2049H2.39065V11.9922H2.90911C3.13165 11.9922 3.29678 12.0478 3.4045 12.1591C3.5134 12.2692 3.56785 12.4148 3.56785 12.5959C3.56785 12.7758 3.5134 12.9226 3.4045 13.0362C3.29678 13.1487 3.13283 13.2049 2.91266 13.2049ZM4.85913 11.3636V15H5.62795V13.821H6.27426C6.55361 13.821 6.79154 13.7695 6.98804 13.6665C7.18572 13.5624 7.33664 13.4186 7.44081 13.2351C7.54497 13.0504 7.59706 12.8374 7.59706 12.5959C7.59706 12.3544 7.54557 12.1413 7.44258 11.9567C7.34078 11.7708 7.19282 11.6258 6.99869 11.5217C6.80456 11.4163 6.56959 11.3636 6.29379 11.3636H4.85913ZM6.14997 13.2049H5.62795V11.9922H6.14642C6.36896 11.9922 6.53408 12.0478 6.6418 12.1591C6.7507 12.2692 6.80515 12.4148 6.80515 12.5959C6.80515 12.7758 6.7507 12.9226 6.6418 13.0362C6.53408 13.1487 6.37014 13.2049 6.14997 13.2049ZM7.95794 11.3636V11.9975H9.07122V15H9.83117V11.9975H10.9444V11.3636H7.95794ZM12.8905 12.603L12.1572 11.3636H11.2854L12.4022 13.1818L11.264 15H12.1447L12.8905 13.7589H12.9189L13.6646 15H14.5489L13.4143 13.1818L14.524 11.3636H13.6557L12.9189 12.603H12.8905Z" fill="currentColor"/>
</svg>
