<svg width="16" height="16" viewBox="0 0 16 16" fill="none" xmlns="http://www.w3.org/2000/svg">
<g clip-path="url(#clip0_382_12906)">
<path fill-rule="evenodd" clip-rule="evenodd" d="M3.47448 6.84188L1.47448 0.841884C1.38715 0.579913 1.10399 0.438333 0.842022 0.525657C0.58005 0.612981 0.43847 0.89614 0.525794 1.15811L2.52579 7.15811C2.61312 7.42008 2.89628 7.56166 3.15825 7.47434C3.42022 7.38702 3.5618 7.10386 3.47448 6.84188ZM4.69385 1.5H6.63976L8.30642 6.5H6.36052L4.69385 1.5ZM11.9889 6.5H9.36052L7.69385 1.5H12.0001C13.3808 1.5 14.5001 2.61929 14.5001 4C14.5001 5.37751 13.386 6.49481 12.0097 6.49998C12.0059 6.4999 12.002 6.49987 11.9982 6.49988C11.9951 6.49989 11.992 6.49993 11.9889 6.5ZM12.0001 0.499999H7.01181C7.00409 0.499818 6.99636 0.499817 6.98861 0.499999H4.00014C3.83941 0.499999 3.68849 0.577259 3.59451 0.707643C3.50054 0.838028 3.47497 1.00564 3.52579 1.15811L5.52579 7.15811C5.59385 7.36228 5.78492 7.5 6.00014 7.5H8.35975L6.51506 14.8787C6.47772 15.0281 6.51128 15.1863 6.60603 15.3077C6.70079 15.4291 6.84617 15.5 7.00014 15.5H10.0001C10.2296 15.5 10.4296 15.3438 10.4852 15.1213L12.3961 7.47785C14.1427 7.28121 15.5001 5.79913 15.5001 4C15.5001 2.067 13.9331 0.499999 12.0001 0.499999ZM9.39052 7.5H11.3597L10.3597 11.5H8.39052L9.39052 7.5ZM7.64052 14.5L8.14052 12.5H10.1097L9.60975 14.5H7.64052Z" fill="currentColor"/>
</g>
<defs>
<clipPath id="clip0_382_12906">
<rect width="16" height="16" fill="white"/>
</clipPath>
</defs>
</svg>
