<svg width="16" height="16" viewBox="0 0 16 16" fill="none" xmlns="http://www.w3.org/2000/svg">
<path fill-rule="evenodd" clip-rule="evenodd" d="M4.39726 10.7944C3.58562 10.7288 2.96379 10.8477 2.5 11.2209V14.9991C2.5 15.2752 2.27614 15.4991 2 15.4991C1.72386 15.4991 1.5 15.2752 1.5 14.9991V10.999V1.99896C1.5 1.86635 1.55268 1.73917 1.64645 1.64541C2.41987 0.871986 3.44059 0.713874 4.47774 0.797619C5.45541 0.876562 6.54104 1.17876 7.59853 1.47313L7.75887 1.51774C8.8915 1.83248 9.99999 2.13017 11.0357 2.20424C12.0629 2.2777 12.9629 2.1263 13.7094 1.59313C13.8618 1.48427 14.0623 1.46971 14.2288 1.55542C14.3953 1.64112 14.5 1.81271 14.5 2V11C14.5 11.1615 14.422 11.313 14.2906 11.4069C13.2871 12.1237 12.1246 12.2847 10.9643 12.2017C9.81251 12.1193 8.6085 11.7917 7.49113 11.4812L7.37447 11.4488L7.37446 11.4488C6.27783 11.1438 5.27652 10.8654 4.39726 10.7944Z" fill="#D44332"/>
</svg>
