<svg width="16" height="16" viewBox="0 0 16 16" fill="none" xmlns="http://www.w3.org/2000/svg">
<path fill-rule="evenodd" clip-rule="evenodd" d="M4.39726 10.7944C3.58562 10.7289 2.96379 10.8478 2.5 11.221V14.9991C2.5 15.2753 2.27614 15.4991 2 15.4991C1.72386 15.4991 1.5 15.2753 1.5 14.9991V10.999V1.99899C1.5 1.86638 1.55268 1.7392 1.64645 1.64543C2.41987 0.872013 3.44059 0.7139 4.47774 0.797646C5.45541 0.876589 6.54104 1.17879 7.59853 1.47315L7.75887 1.51776C8.8915 1.83251 9.99999 2.13019 11.0357 2.20426C12.0629 2.27773 12.9629 2.12633 13.7094 1.59316C13.8618 1.4843 14.0623 1.46974 14.2288 1.55544C14.3953 1.64115 14.5 1.81273 14.5 2.00003V11C14.5 11.1615 14.422 11.313 14.2906 11.4069C13.2871 12.1237 12.1246 12.2847 10.9643 12.2017C9.81251 12.1193 8.6085 11.7918 7.49113 11.4813L7.37447 11.4488L7.37446 11.4488C6.27783 11.1439 5.27652 10.8654 4.39726 10.7944Z" fill="#D44332"/>
</svg>
