<svg width="16" height="16" viewBox="0 0 16 16" fill="none" xmlns="http://www.w3.org/2000/svg">
<g clip-path="url(#clip0_435_9470)">
<path fill-rule="evenodd" clip-rule="evenodd" d="M11.6464 0.646447C11.8417 0.451184 12.1583 0.451184 12.3536 0.646447L15.3536 3.64645C15.5488 3.84171 15.5488 4.15829 15.3536 4.35355L13.3536 6.35355L10.8536 8.85355C10.7771 8.93005 10.6778 8.97968 10.5707 8.99497L7.07071 9.49498C6.91491 9.51723 6.75773 9.46484 6.64645 9.35355C6.53516 9.24227 6.48277 9.08509 6.50503 8.92929L7.00503 5.42929C7.02032 5.32219 7.06995 5.22295 7.14645 5.14645L9.6462 2.64669L9.64645 2.64645L9.64669 2.64621L11.6464 0.646447ZM14.2929 4L13 5.29289L10.7071 3L12 1.70711L14.2929 4ZM12.2929 6L10 3.70711L7.9714 5.7357L7.58926 8.41074L10.2643 8.0286L12.2929 6ZM2 0.5C1.17157 0.5 0.5 1.17157 0.5 2V14C0.5 14.8284 1.17157 15.5 2 15.5H5H11H14C14.8284 15.5 15.5 14.8284 15.5 14V8C15.5 7.72386 15.2761 7.5 15 7.5C14.7239 7.5 14.5 7.72386 14.5 8V14C14.5 14.2761 14.2761 14.5 14 14.5H11.5V12C11.5 11.1716 10.8284 10.5 10 10.5H6C5.17157 10.5 4.5 11.1716 4.5 12V14.5H2C1.72386 14.5 1.5 14.2761 1.5 14V2C1.5 1.72386 1.72386 1.5 2 1.5H4.5V4C4.5 4.27614 4.72386 4.5 5 4.5C5.27614 4.5 5.5 4.27614 5.5 4V1.5H8C8.27614 1.5 8.5 1.27614 8.5 1C8.5 0.723858 8.27614 0.5 8 0.5H5H2ZM5.5 14.5H10.5V12C10.5 11.7239 10.2761 11.5 10 11.5H6C5.72386 11.5 5.5 11.7239 5.5 12V14.5Z" fill="#6E778C"/>
</g>
<defs>
<clipPath id="clip0_435_9470">
<rect width="16" height="16" fill="white"/>
</clipPath>
</defs>
</svg>
