<svg width="16" height="16" viewBox="0 0 16 16" fill="none" xmlns="http://www.w3.org/2000/svg">
<g clip-path="url(#clip0_430_11250)">
<path fill-rule="evenodd" clip-rule="evenodd" d="M6.5 1C6.5 0.723858 6.27614 0.5 6 0.5C5.72386 0.5 5.5 0.723858 5.5 1V2.53544C3.80385 2.77806 2.5 4.23676 2.5 6V8.5H1C0.723858 8.5 0.5 8.72386 0.5 9C0.5 9.27614 0.723858 9.5 1 9.5H2.5V12C2.5 12.2761 2.72386 12.5 3 12.5C3.27614 12.5 3.5 12.2761 3.5 12V9.5H9.5V10C9.5 10.2761 9.72386 10.5 10 10.5C10.2761 10.5 10.5 10.2761 10.5 10V9.5H12.5V12C12.5 12.2761 12.7239 12.5 13 12.5C13.2761 12.5 13.5 12.2761 13.5 12V9.5H15C15.2761 9.5 15.5 9.27614 15.5 9C15.5 8.72386 15.2761 8.5 15 8.5H13.5V6C13.5 4.067 11.933 2.5 10 2.5H6.5V1ZM10.5 7V8.5H12.5V6C12.5 4.61929 11.3807 3.5 10 3.5H6C4.61929 3.5 3.5 4.61929 3.5 6V8.5H9.5V7C9.5 6.72386 9.72386 6.5 10 6.5C10.2761 6.5 10.5 6.72386 10.5 7ZM5.5 15C5.5 14.7239 5.72386 14.5 6 14.5H13C13.2761 14.5 13.5 14.7239 13.5 15C13.5 15.2761 13.2761 15.5 13 15.5H6C5.72386 15.5 5.5 15.2761 5.5 15ZM6 11.5C5.72386 11.5 5.5 11.7239 5.5 12C5.5 12.2761 5.72386 12.5 6 12.5H7C7.27614 12.5 7.5 12.2761 7.5 12C7.5 11.7239 7.27614 11.5 7 11.5H6ZM6 7C6.55228 7 7 6.55228 7 6C7 5.44772 6.55228 5 6 5C5.44772 5 5 5.44772 5 6C5 6.55228 5.44772 7 6 7Z" fill="#6E778C"/>
</g>
<defs>
<clipPath id="clip0_430_11250">
<rect width="16" height="16" fill="white"/>
</clipPath>
</defs>
</svg>
