<svg width="16" height="16" viewBox="0 0 16 16" fill="none" xmlns="http://www.w3.org/2000/svg">
<g clip-path="url(#clip0_381_12634)">
<path fill-rule="evenodd" clip-rule="evenodd" d="M3.46669 0.820517C3.38839 0.616951 3.18718 0.487622 2.96949 0.50094C2.75179 0.514257 2.56784 0.667147 2.51495 0.878739L1.51766 4.86787C1.51577 4.87481 1.51401 4.88182 1.51241 4.88888L0.514945 8.87874C0.469012 9.06247 0.530828 9.25638 0.674621 9.37963L7.67462 15.3796C7.86187 15.5401 8.13817 15.5401 8.32541 15.3796L15.3254 9.37963C15.4692 9.25638 15.531 9.06247 15.4851 8.87874L14.4876 4.88893C14.486 4.88183 14.4843 4.8748 14.4824 4.86782L13.4851 0.878739C13.4322 0.667147 13.2482 0.514257 13.0305 0.50094C12.8128 0.487622 12.6116 0.616951 12.5333 0.820517L11.1182 4.50001H4.88188L3.46669 0.820517ZM3.81046 4.50001L3.10134 2.65628L2.6404 4.50001H3.81046ZM2.3904 5.50001H4.19508L7.39677 13.8244L1.56004 8.82148L2.3904 5.50001ZM5.26649 5.50001H10.7335L8.00002 12.6072L5.26649 5.50001ZM11.805 5.50001L8.60327 13.8244L14.44 8.82148L13.6096 5.50001H11.805ZM13.3596 4.50001L12.8987 2.65628L12.1896 4.50001H13.3596Z" fill="#6E778C"/>
</g>
<defs>
<clipPath id="clip0_381_12634">
<rect width="16" height="16" fill="white"/>
</clipPath>
</defs>
</svg>
