<svg width="16" height="16" viewBox="0 0 16 16" fill="none" xmlns="http://www.w3.org/2000/svg">
<path fill-rule="evenodd" clip-rule="evenodd" d="M4.16795 1.95377C4.6718 1.61787 5.3282 1.61787 5.83205 1.95377L7.83205 3.2871C7.8915 3.32673 7.94756 3.37022 8 3.41712C8.05244 3.37022 8.1085 3.32673 8.16795 3.2871L10.1679 1.95377C10.6718 1.61787 11.3282 1.61787 11.8321 1.95377L13.8321 3.2871C14.2493 3.5653 14.5 4.03365 14.5 4.53518V6.46481C14.5 6.96634 14.2493 7.43469 13.8321 7.71288L11.8321 9.04622C11.7172 9.12279 11.5944 9.18191 11.4673 9.22357C11.4888 9.32498 11.5 9.42934 11.5 9.53518V11.4648C11.5 11.9663 11.2493 12.4347 10.8321 12.7129L8.83205 14.0462C8.3282 14.3821 7.6718 14.3821 7.16795 14.0462L5.16795 12.7129C4.75065 12.4347 4.5 11.9663 4.5 11.4648V9.53518C4.5 9.42934 4.51116 9.32498 4.5327 9.22357C4.4056 9.18191 4.28281 9.12279 4.16795 9.04622L2.16795 7.71288C1.75065 7.43469 1.5 6.96634 1.5 6.46481V4.53518C1.5 4.03365 1.75065 3.5653 2.16795 3.2871L4.16795 1.95377ZM5.27735 8.21417L7.16795 6.95377L7.27735 6.88083C7.41645 6.7881 7.5 6.63199 7.5 6.46481V4.53518C7.5 4.368 7.41645 4.21188 7.27735 4.11915L5.27735 2.78582C5.1094 2.67385 4.8906 2.67385 4.72265 2.78582L2.72265 4.11915C2.58355 4.21188 2.5 4.368 2.5 4.53518V6.46481C2.5 6.63199 2.58355 6.7881 2.72265 6.88083L4.72265 8.21417C4.8906 8.32613 5.1094 8.32613 5.27735 8.21417ZM5.83133 9.0467L5.72265 9.11915C5.58355 9.21188 5.5 9.368 5.5 9.53518V11.4648C5.5 11.632 5.58355 11.7881 5.72265 11.8808L7.72265 13.2142C7.8906 13.3261 8.1094 13.3261 8.27735 13.2142L10.2773 11.8808C10.4164 11.7881 10.5 11.632 10.5 11.4648V9.53518C10.5 9.368 10.4164 9.21188 10.2773 9.11915L10.1681 9.04633C10.1681 9.0463 10.168 9.04626 10.1679 9.04622L8.27735 7.78582C8.27725 7.78575 8.27714 7.78568 8.27704 7.78561C8.10913 7.67385 7.8905 7.67392 7.72265 7.78582L5.83205 9.04622C5.83181 9.04638 5.83157 9.04654 5.83133 9.0467ZM10.723 8.21438C10.8909 8.32613 11.1095 8.32607 11.2773 8.21417L13.2773 6.88083C13.4164 6.7881 13.5 6.63199 13.5 6.46481V4.53518C13.5 4.368 13.4164 4.21188 13.2773 4.11915L11.2774 2.78582C11.1094 2.67385 10.8906 2.67385 10.7227 2.78582L8.72265 4.11915C8.58355 4.21188 8.5 4.368 8.5 4.53518V6.46481C8.5 6.63199 8.58355 6.7881 8.72265 6.88083L8.83205 6.95377L10.7226 8.21417C10.7228 8.21424 10.7229 8.21431 10.723 8.21438Z" fill="#6E778C"/>
</svg>
