<svg width="16" height="16" viewBox="0 0 16 16" fill="none" xmlns="http://www.w3.org/2000/svg">
<g clip-path="url(#clip0_382_12919)">
<path fill-rule="evenodd" clip-rule="evenodd" d="M0.646451 0.646447C0.755554 0.537344 0.908918 0.484723 1.06202 0.503861L9.06202 1.50386C9.17237 1.51765 9.27496 1.56784 9.35359 1.64648L15.3536 7.64753C15.5488 7.8428 15.5488 8.15936 15.3535 8.35461L8.35352 15.3545C8.25975 15.4482 8.13256 15.5009 7.99995 15.5009C7.86734 15.5009 7.74016 15.4482 7.64639 15.3544L1.64642 9.35353C1.56782 9.27491 1.51765 9.17233 1.50387 9.06202L0.503865 1.06202C0.484727 0.908914 0.537347 0.75555 0.646451 0.646447ZM1.57588 1.57588L2.47487 8.76778L8.00001 14.2938L14.2929 8.00102L8.76773 2.47486L1.57588 1.57588ZM6.64645 4.64645C6.84171 4.45118 7.1583 4.45118 7.35356 4.64645L10.3536 7.64645C10.5488 7.84171 10.5488 8.15829 10.3536 8.35355C10.1583 8.54882 9.84171 8.54882 9.64645 8.35355L6.64645 5.35355C6.45119 5.15829 6.45119 4.84171 6.64645 4.64645ZM5.35356 6.64645C5.1583 6.45118 4.84171 6.45118 4.64645 6.64645C4.45119 6.84171 4.45119 7.15829 4.64645 7.35355L6.64645 9.35355C6.84171 9.54882 7.1583 9.54882 7.35356 9.35355C7.54882 9.15829 7.54882 8.84171 7.35356 8.64645L5.35356 6.64645Z" fill="currentColor"/>
</g>
<defs>
<clipPath id="clip0_382_12919">
<rect width="16" height="16" fill="white"/>
</clipPath>
</defs>
</svg>
