<svg width="16" height="16" viewBox="0 0 16 16" fill="none" xmlns="http://www.w3.org/2000/svg">
<path fill-rule="evenodd" clip-rule="evenodd" d="M8.70711 1.70711L13.2929 6.2929C13.6834 6.68342 13.6834 7.31658 13.2929 7.70711L12.7071 8.2929C12.3166 8.68342 11.6834 8.68342 11.2929 8.2929L6.70711 3.70711C6.31658 3.31658 6.31658 2.68342 6.70711 2.29289L7.29289 1.70711C7.68342 1.31658 8.31658 1.31658 8.70711 1.70711ZM2.35355 1.64645C2.15829 1.45119 1.84171 1.45119 1.64645 1.64645C1.45118 1.84171 1.45118 2.15829 1.64645 2.35356L13.6464 14.3536C13.8417 14.5488 14.1583 14.5488 14.3536 14.3536C14.5488 14.1583 14.5488 13.8417 14.3536 13.6464L2.35355 1.64645ZM8.79289 10.7929L4.20711 6.20711C3.81658 5.81658 3.18342 5.81658 2.79289 6.20711L2.70711 6.2929C2.31658 6.68342 2.31658 7.31658 2.70711 7.70711L7.29289 12.2929C7.68342 12.6834 8.31658 12.6834 8.70711 12.2929L8.79289 12.2071C9.18342 11.8166 9.18342 11.1834 8.79289 10.7929ZM2.35355 8.64645C2.15829 8.45119 1.84171 8.45119 1.64645 8.64645C1.45118 8.84171 1.45118 9.15829 1.64645 9.35356L6.93934 14.6464C7.52513 15.2322 8.47487 15.2322 9.06066 14.6464L10.3536 13.3536C10.5488 13.1583 10.5488 12.8417 10.3536 12.6464C10.1583 12.4512 9.84171 12.4512 9.64645 12.6464L8.35355 13.9393C8.15829 14.1346 7.84171 14.1346 7.64645 13.9393L2.35355 8.64645ZM14.3536 9.35356C14.5488 9.15829 14.5488 8.84171 14.3536 8.64645C14.1583 8.45119 13.8417 8.45119 13.6464 8.64645L12.6464 9.64645C12.4512 9.84171 12.4512 10.1583 12.6464 10.3536C12.8417 10.5488 13.1583 10.5488 13.3536 10.3536L14.3536 9.35356Z" fill="currentColor"/>
</svg>
