<svg width="16" height="16" viewBox="0 0 16 16" fill="none" xmlns="http://www.w3.org/2000/svg">
<path d="M11.4846 5.33594L10.4427 5.62997C10.3405 5.33594 10.1956 5.0696 10.0081 4.83096C9.82058 4.59233 9.57555 4.4027 9.27299 4.26207C8.9747 4.12145 8.60396 4.05114 8.16078 4.05114C7.49601 4.05114 6.95055 4.20881 6.52441 4.52415C6.09828 4.83949 5.88521 5.24645 5.88521 5.74503C5.88521 6.1669 6.0301 6.50994 6.31987 6.77415C6.6139 7.03409 7.06561 7.24077 7.67498 7.39418L9.15794 7.75852C9.98038 7.95881 10.5961 8.27628 11.0052 8.71094C11.4186 9.1456 11.6253 9.69105 11.6253 10.3473C11.6253 10.9013 11.4719 11.3935 11.165 11.8239C10.8582 12.2543 10.43 12.593 9.88024 12.8402C9.33478 13.0831 8.70197 13.2045 7.9818 13.2045C7.02299 13.2045 6.23251 12.9893 5.61035 12.5589C4.98819 12.1243 4.58975 11.4979 4.41504 10.6797L5.50808 10.4112C5.6487 10.995 5.92356 11.4361 6.33265 11.7344C6.74601 12.0327 7.28933 12.1818 7.96262 12.1818C8.71689 12.1818 9.31987 12.0135 9.77157 11.6768C10.2233 11.3359 10.4491 10.9098 10.4491 10.3984C10.4491 10.0021 10.317 9.66974 10.0528 9.40128C9.78862 9.12855 9.38805 8.92827 8.85112 8.80042L7.24672 8.4169C6.39444 8.21236 5.76376 7.88849 5.35467 7.44531C4.94558 7.00213 4.74103 6.45241 4.74103 5.79616C4.74103 5.25497 4.88805 4.77983 5.18208 4.37074C5.47612 3.95739 5.88095 3.63352 6.39657 3.39915C6.9122 3.16477 7.50027 3.04758 8.16078 3.04758C9.05993 3.04758 9.77797 3.25213 10.3149 3.66122C10.8561 4.06605 11.246 4.62429 11.4846 5.33594Z" fill="#6E778C"/>
</svg>
