<svg width="16" height="16" viewBox="0 0 16 16" fill="none" xmlns="http://www.w3.org/2000/svg">
<path d="M8.03977 14.2955C7.23438 14.2955 6.52912 14.0824 5.92401 13.6562C5.31889 13.2301 4.84588 12.6357 4.50497 11.8729C4.16832 11.1101 4 10.2216 4 9.20739C4 8.19744 4.16832 7.31321 4.50497 6.55469C4.84588 5.7919 5.32102 5.19957 5.9304 4.7777C6.53977 4.35156 7.24929 4.13849 8.05895 4.13849C8.65554 4.13849 9.15199 4.24503 9.5483 4.4581C9.9446 4.6669 10.2621 4.92685 10.5007 5.23793C10.7393 5.54901 10.9247 5.85156 11.0568 6.1456H11.1591V1H12.3033V14.0909H11.1911V12.2692H11.0568C10.9247 12.5675 10.7372 12.8743 10.4943 13.1896C10.2514 13.5007 9.92969 13.7628 9.52912 13.9759C9.13281 14.1889 8.63636 14.2955 8.03977 14.2955ZM8.17401 13.2536C8.80895 13.2536 9.35014 13.081 9.79759 12.7358C10.245 12.3864 10.5859 11.907 10.8203 11.2976C11.0589 10.684 11.1783 9.98083 11.1783 9.18821C11.1783 8.40412 11.0611 7.71165 10.8267 7.1108C10.5923 6.50568 10.2514 6.03267 9.80398 5.69176C9.35653 5.34659 8.81321 5.17401 8.17401 5.17401C7.51776 5.17401 6.96378 5.35298 6.51207 5.71094C6.06463 6.06463 5.72372 6.54403 5.48935 7.14915C5.25923 7.75426 5.14418 8.43395 5.14418 9.18821C5.14418 9.951 5.26136 10.6392 5.49574 11.2528C5.73011 11.8665 6.07102 12.3544 6.51847 12.7166C6.97017 13.0746 7.52202 13.2536 8.17401 13.2536Z" fill="#6E778C"/>
</svg>
