<svg width="16" height="16" viewBox="0 0 16 16" fill="none" xmlns="http://www.w3.org/2000/svg">
<path d="M11.4844 5.33596L10.4425 5.62999C10.3402 5.33596 10.1953 5.06962 10.0078 4.83099C9.82033 4.59235 9.57531 4.40272 9.27275 4.2621C8.97445 4.12147 8.60372 4.05116 8.16053 4.05116C7.49576 4.05116 6.95031 4.20883 6.52417 4.52417C6.09803 4.83951 5.88497 5.24647 5.88497 5.74505C5.88497 6.16692 6.02985 6.50997 6.31962 6.77417C6.61366 7.03411 7.06536 7.24079 7.67474 7.3942L9.15769 7.75854C9.98014 7.95883 10.5959 8.2763 11.005 8.71096C11.4183 9.14562 11.625 9.69107 11.625 10.3473C11.625 10.9013 11.4716 11.3935 11.1648 11.8239C10.858 12.2543 10.4297 12.5931 9.87999 12.8402C9.33454 13.0831 8.70173 13.2046 7.98156 13.2046C7.02275 13.2046 6.23227 12.9894 5.61011 12.559C4.98795 12.1243 4.58951 11.4979 4.41479 10.6797L5.50783 10.4112C5.64846 10.9951 5.92332 11.4361 6.33241 11.7344C6.74576 12.0327 7.28908 12.1818 7.96238 12.1818C8.71664 12.1818 9.31962 12.0135 9.77133 11.6769C10.223 11.336 10.4489 10.9098 10.4489 10.3985C10.4489 10.0022 10.3168 9.66977 10.0526 9.4013C9.78837 9.12857 9.38781 8.92829 8.85087 8.80045L7.24647 8.41692C6.3942 8.21238 5.76352 7.88852 5.35443 7.44533C4.94533 7.00215 4.74079 6.45244 4.74079 5.79619C4.74079 5.25499 4.88781 4.77985 5.18184 4.37076C5.47587 3.95741 5.8807 3.63354 6.39633 3.39917C6.91195 3.16479 7.50002 3.04761 8.16053 3.04761C9.05968 3.04761 9.77772 3.25215 10.3147 3.66124C10.8558 4.06607 11.2458 4.62431 11.4844 5.33596Z" fill="#6E778C"/>
</svg>
