<svg width="16" height="16" viewBox="0 0 16 16" fill="none" xmlns="http://www.w3.org/2000/svg">
<g clip-path="url(#clip0_389_13099)">
<path fill-rule="evenodd" clip-rule="evenodd" d="M1 0.5C0.723858 0.5 0.5 0.723858 0.5 1C0.5 1.27614 0.723858 1.5 1 1.5H15C15.2761 1.5 15.5 1.27614 15.5 1C15.5 0.723858 15.2761 0.5 15 0.5H1ZM5.8248 10.4684L5.44721 11.2236C5.32372 11.4706 5.02338 11.5707 4.77639 11.4472C4.5294 11.3237 4.42929 11.0234 4.55279 10.7764L7.55279 4.77639C7.63748 4.607 7.81061 4.5 8 4.5C8.18939 4.5 8.36252 4.607 8.44721 4.77639L11.4472 10.7764C11.5707 11.0234 11.4706 11.3237 11.2236 11.4472C10.9766 11.5707 10.6763 11.4706 10.5528 11.2236L10.1752 10.4684C10.1207 10.4888 10.0616 10.5 10 10.5H6C5.93836 10.5 5.87932 10.4888 5.8248 10.4684ZM6.30902 9.5H9.69098L8 6.11803L6.30902 9.5ZM0.5 15C0.5 14.7239 0.723858 14.5 1 14.5H15C15.2761 14.5 15.5 14.7239 15.5 15C15.5 15.2761 15.2761 15.5 15 15.5H1C0.723858 15.5 0.5 15.2761 0.5 15Z" fill="currentColor"/>
</g>
<defs>
<clipPath id="clip0_389_13099">
<rect width="16" height="16" fill="white"/>
</clipPath>
</defs>
</svg>
