<svg width="16" height="16" viewBox="0 0 16 16" fill="none" xmlns="http://www.w3.org/2000/svg">
<g clip-path="url(#clip0_389_13171)">
<path fill-rule="evenodd" clip-rule="evenodd" d="M5.5 1C5.5 0.723858 5.72386 0.5 6 0.5L15 0.5C15.2761 0.5 15.5 0.723858 15.5 1V4C15.5 4.27614 15.2761 4.5 15 4.5L6 4.5C5.72386 4.5 5.5 4.27614 5.5 4L5.5 1ZM1 5.5C0.723858 5.5 0.5 5.72386 0.5 6L0.5 10C0.5 10.2761 0.723858 10.5 1 10.5H4C4.27614 10.5 4.5 10.2761 4.5 10L4.5 6C4.5 5.72386 4.27614 5.5 4 5.5L1 5.5ZM6 5.5C5.72386 5.5 5.5 5.72386 5.5 6L5.5 10C5.5 10.2761 5.72386 10.5 6 10.5L15 10.5C15.2761 10.5 15.5 10.2761 15.5 10L15.5 6C15.5 5.72386 15.2761 5.5 15 5.5L6 5.5ZM1 0.5C0.723858 0.5 0.5 0.723858 0.5 1L0.5 4C0.5 4.27614 0.723858 4.5 1 4.5H4C4.27614 4.5 4.5 4.27614 4.5 4L4.5 1C4.5 0.723858 4.27614 0.5 4 0.5L1 0.5ZM5.5 12C5.5 11.7239 5.72386 11.5 6 11.5L15 11.5C15.2761 11.5 15.5 11.7239 15.5 12V15C15.5 15.2761 15.2761 15.5 15 15.5L6 15.5C5.72386 15.5 5.5 15.2761 5.5 15L5.5 12ZM1 11.5C0.723858 11.5 0.5 11.7239 0.5 12L0.5 15C0.5 15.2761 0.723858 15.5 1 15.5H4C4.27614 15.5 4.5 15.2761 4.5 15L4.5 12C4.5 11.7239 4.27614 11.5 4 11.5H1Z" fill="currentColor"/>
</g>
<defs>
<clipPath id="clip0_389_13171">
<rect width="16" height="16" fill="white"/>
</clipPath>
</defs>
</svg>
