<svg width="16" height="16" viewBox="0 0 16 16" fill="none" xmlns="http://www.w3.org/2000/svg">
<g clip-path="url(#clip0_430_10442)">
<path fill-rule="evenodd" clip-rule="evenodd" d="M15.3647 0.658061C15.4929 0.794778 15.5338 0.991674 15.4708 1.16815L10.4709 15.1698C10.3978 15.3744 10.201 15.5084 9.98386 15.5014C9.76671 15.4944 9.57895 15.3479 9.51926 15.139L7.58455 8.36752L0.802967 5.45974C0.608535 5.37638 0.487612 5.17967 0.50101 4.96854C0.514408 4.75741 0.659227 4.57757 0.862639 4.51945L14.8626 0.51924C15.0428 0.467758 15.2366 0.521343 15.3647 0.658061ZM2.4892 5.09471L8.19706 7.5421C8.33528 7.60137 8.43947 7.71969 8.48079 7.86428L10.0529 13.3667L14.2019 1.74803L2.4892 5.09471Z" fill="#6E778C"/>
</g>
<defs>
<clipPath id="clip0_430_10442">
<rect width="16" height="16" fill="white"/>
</clipPath>
</defs>
</svg>
