<svg width="16" height="16" viewBox="0 0 16 16" fill="none" xmlns="http://www.w3.org/2000/svg">
<path fill-rule="evenodd" clip-rule="evenodd" d="M8 1.5C5.51472 1.5 3.5 3.51472 3.5 6C3.5 7.47027 4.08147 8.9688 4.85734 10.3089C5.78902 9.79344 6.86076 9.5 7.99992 9.5C9.13913 9.5 10.2109 9.79347 11.1426 10.309C11.9185 8.96885 12.5 7.47029 12.5 6C12.5 3.51472 10.4853 1.5 8 1.5ZM4.26576 11.2768C4.24781 11.2498 4.23283 11.2217 4.22074 11.1929C3.28402 9.67403 2.5 7.85372 2.5 6C2.5 2.96243 4.96243 0.5 8 0.5C11.0376 0.5 13.5 2.96243 13.5 6C13.5 7.85403 12.7157 9.67465 11.7788 11.1937C11.7668 11.2222 11.7519 11.2501 11.7341 11.2768C11.7219 11.2951 11.7088 11.3124 11.6947 11.3285C11.4361 11.739 11.1675 12.1264 10.9018 12.4851C10.2616 13.3494 9.62237 14.0684 9.14332 14.5714C8.90352 14.8232 8.70315 15.0216 8.56191 15.1578C8.49127 15.2259 8.43537 15.2785 8.39666 15.3145C8.3773 15.3325 8.36224 15.3464 8.35177 15.3559L8.33957 15.3671L8.33612 15.3702L8.33507 15.3711L8.33472 15.3714C8.33459 15.3715 8.33448 15.3716 8 15C7.66552 15.3716 7.66541 15.3715 7.66528 15.3714L7.66493 15.3711L7.66388 15.3702L7.66043 15.3671L7.64823 15.3559C7.63776 15.3464 7.6227 15.3325 7.60334 15.3145C7.56463 15.2785 7.50873 15.2259 7.43809 15.1578C7.29685 15.0216 7.09648 14.8232 6.85668 14.5714C6.37763 14.0684 5.73843 13.3494 5.09822 12.4851C4.83264 12.1266 4.56415 11.7394 4.30566 11.3291C4.29142 11.3128 4.27808 11.2954 4.26576 11.2768ZM8 15L8.33448 15.3716C8.14433 15.5428 7.85567 15.5428 7.66552 15.3716L8 15ZM10.0982 11.8899C10.2721 11.6552 10.4446 11.411 10.6128 11.159C9.83584 10.7386 8.94629 10.5 7.99992 10.5C7.05361 10.5 6.1641 10.7386 5.38717 11.1589C5.55534 11.411 5.7279 11.6552 5.90178 11.8899C6.51157 12.7131 7.12237 13.4004 7.58082 13.8817C7.74197 14.0509 7.88394 14.1943 8 14.3089C8.11605 14.1943 8.25803 14.0509 8.41918 13.8817C8.87763 13.4004 9.48843 12.7131 10.0982 11.8899ZM6.5 6C6.5 5.17157 7.17157 4.5 8 4.5C8.82843 4.5 9.5 5.17157 9.5 6C9.5 6.82843 8.82843 7.5 8 7.5C7.17157 7.5 6.5 6.82843 6.5 6ZM8 3.5C6.61929 3.5 5.5 4.61929 5.5 6C5.5 7.38071 6.61929 8.5 8 8.5C9.38071 8.5 10.5 7.38071 10.5 6C10.5 4.61929 9.38071 3.5 8 3.5Z" fill="#6E778C"/>
</svg>
