<svg width="16" height="16" viewBox="0 0 16 16" fill="none" xmlns="http://www.w3.org/2000/svg">
<g clip-path="url(#clip0_430_10443)">
<path fill-rule="evenodd" clip-rule="evenodd" d="M11.7674 0.55728C11.8259 0.5265 11.8912 0.506962 11.9604 0.50154C11.9806 0.499948 12.0007 0.499582 12.0208 0.500424C12.1253 0.504803 12.2275 0.541867 12.3117 0.609039C12.3262 0.620618 12.3402 0.633091 12.3536 0.646445L15.3536 3.64645C15.4473 3.74021 15.5 3.86739 15.5 4V15C15.5 15.2022 15.3782 15.3845 15.1913 15.4619C15.0045 15.5393 14.7894 15.4966 14.6464 15.3536L11.9531 12.6602L8.3 15.4C8.12222 15.5333 7.87778 15.5333 7.7 15.4L4.04692 12.6602L1.35355 15.3536C1.21055 15.4966 0.995495 15.5393 0.808658 15.4619C0.621821 15.3845 0.5 15.2022 0.5 15V3C0.5 2.83282 0.583551 2.67671 0.72265 2.58397L3.71697 0.587763C3.79628 0.533204 3.89212 0.50094 3.99545 0.500018C3.99696 0.500005 3.99848 0.499999 4 0.499999M4.00997 0.500096C4.09024 0.501666 4.16588 0.522153 4.2326 0.557283L4.00997 0.500096ZM4.2326 0.557283L8 2.44098L11.7674 0.55728M3.5 1.93426L1.5 3.26759V13.7929L3.5 11.7929V1.93426ZM4.5 11.75V1.80902L7.5 3.30902V14L4.5 11.75ZM11.5 1.80902L8.5 3.30902V14L11.5 11.75V1.80902ZM12.5 11.7929L14.5 13.7929V4.20711L12.5 2.20711V11.7929Z" fill="#6E778C"/>
</g>
<defs>
<clipPath id="clip0_430_10443">
<rect width="16" height="16" fill="white"/>
</clipPath>
</defs>
</svg>
