<svg width="16" height="16" viewBox="0 0 16 16" fill="none" xmlns="http://www.w3.org/2000/svg">
<g clip-path="url(#clip0_435_8996)">
<path fill-rule="evenodd" clip-rule="evenodd" d="M0.565888 1.24809L4.42413 8.00002L0.565887 14.7519C0.456571 14.9433 0.485365 15.1836 0.636782 15.3436C0.788199 15.5037 1.02654 15.5458 1.22362 15.4472L15.2236 8.44723C15.393 8.36254 15.5 8.1894 15.5 8.00002C15.5 7.81063 15.393 7.6375 15.2236 7.5528L1.22362 0.552804C1.02654 0.454268 0.788199 0.496348 0.636783 0.65641C0.485366 0.816472 0.456572 1.05678 0.565888 1.24809ZM5.29017 7.50002L2.25345 2.18575L12.882 7.50002H5.29017ZM5.29017 8.50002L2.25345 13.8143L12.882 8.50002H5.29017Z" fill="currentColor"/>
</g>
<defs>
<clipPath id="clip0_435_8996">
<rect width="16" height="16" fill="white"/>
</clipPath>
</defs>
</svg>
