<svg width="16" height="16" viewBox="0 0 16 16" fill="none" xmlns="http://www.w3.org/2000/svg">
<path fill-rule="evenodd" clip-rule="evenodd" d="M0.5 3C0.5 2.72386 0.723858 2.5 1 2.5H8H10.3453C10.9973 2.5 11.6003 2.84634 11.9289 3.40957L12.8954 5.06648C12.9782 5.20841 13.1011 5.3227 13.2487 5.39498L14.4731 5.99469C15.1016 6.30252 15.5 6.94131 15.5 7.64114V11C15.5 11.2761 15.2761 11.5 15 11.5H14.5C14.5 12.6046 13.6046 13.5 12.5 13.5C11.3954 13.5 10.5 12.6046 10.5 11.5V11.5H10.4944H10.4815H10.4687H10.4558H10.443H10.4302H10.4174H10.4046H10.3918H10.3791H10.3664H10.3537H10.341H10.3284H10.3157H10.3031H10.2905H10.2779H10.2654H10.2528H10.2403H10.2278H10.2153H10.2028H10.1904H10.1779H10.1655H10.1531H10.1407H10.1284H10.116H10.1037H10.0914H10.0791H10.0668H10.0545H10.0423H10.0301H10.0178H10.0056H9.99346H9.9813H9.96915H9.95702H9.94491H9.93281H9.92073H9.90866H9.89661H9.88457H9.87255H9.86055H9.84856H9.83659H9.82463H9.81268H9.80075H9.78884H9.77694H9.76506H9.75319H9.74133H9.72949H9.71767H9.70585H9.69406H9.68227L9.6705 11.5H9.65875H9.64701H9.63528H9.62356H9.61186H9.60017H9.5885H9.57684H9.56519H9.55355H9.54193H9.53032H9.51873H9.50714H9.49557H9.48401H9.47247H9.46094H9.44941H9.4379H9.42641H9.41492H9.40345H9.39199H9.38054H9.3691H9.35767H9.34626H9.33485H9.32346H9.31208H9.30071H9.28935H9.278H9.26666H9.25533H9.24402H9.23271H9.22142H9.21013H9.19885H9.18759H9.17633H9.16509H9.15385H9.14263H9.13141H9.1202H9.10901H9.09782H9.08664H9.07547H9.06431H9.05316H9.04202H9.03089H9.01976H9.00865H8.99754H8.98644H8.97535H8.96427H8.9532H8.94213H8.93107H8.92002H8.90898H8.89795H8.88692H8.8759H8.86489H8.85388H8.84289H8.8319H8.82091H8.80994H8.79897H8.78801H8.77705H8.7661H8.75516H8.74423H8.7333H8.72237H8.71146H8.70055H8.68964H8.67874H8.66785H8.65696H8.64608H8.6352H8.62433H8.61347H8.60261H8.59175H8.5809H8.57006H8.55921H8.54838H8.53755H8.52672H8.5159H8.50508H8.49427H8.48346H8.47266H8.46186H8.45106H8.44027H8.42948H8.41869H8.40791H8.39713H8.38636H8.37559H8.36482H8.35405H8.34329H8.33253H8.32178H8.31102H8.30027H8.28952H8.27878H8.26803H8.25729H8.24655H8.23582H8.22508H8.21435H8.20362H8.19289H8.18216H8.17144H8.16071H8.14999H8.13927H8.12855H8.11783H8.10711H8.09639H8.08567H8.07496H8.06424H8.05353H8.04281H8.0321H8.02139H8.01067H8.00312C8.00208 11.5 8.00104 11.5 8 11.5C7.99896 11.5 7.99792 11.5 7.99688 11.5H7.98925H7.97853H7.96782H7.9571H7.94639H7.93568H7.92496H7.91424H7.90353H7.89281H7.88209H7.87137H7.86065H7.84993H7.83921H7.82848H7.81776H7.80703H7.7963H7.78557H7.77483H7.7641H7.75336H7.74262H7.73188H7.72114H7.71039H7.69965H7.6889H7.67814H7.66739H7.65663H7.64586H7.6351H7.62433H7.61356H7.60278H7.59201H7.58122H7.57044H7.55965H7.54886H7.53806H7.52726H7.51646H7.50565H7.49483H7.48402H7.4732H7.46237H7.45154H7.4407H7.42986H7.41902H7.40817H7.39731H7.38645H7.37559H7.36472H7.35384H7.34296H7.33207H7.32118H7.31028H7.29937H7.28846H7.27754H7.26662H7.25569H7.24476H7.23381H7.22287H7.21191H7.20095H7.18998H7.179H7.16802H7.15703H7.14603H7.13503H7.12402H7.113H7.10197H7.09094H7.0799H7.06885H7.05779H7.04672H7.03565H7.02457H7.01348H7.00238H6.99127H6.98015H6.96903H6.9579H6.94675H6.9356H6.92444H6.91328H6.9021H6.89091H6.87971H6.86851H6.85729H6.84606H6.83483H6.82358H6.81233H6.80106H6.78979H6.7785H6.76721H6.7559H6.74458H6.73326H6.72192H6.71057H6.69921H6.68784H6.67646H6.66506H6.65366H6.64225H6.63082H6.61938H6.60793H6.59647H6.585H6.57351H6.56201H6.5505H6.53898H6.52745H6.5159H6.50434H6.49277H6.48119H6.46959H6.45798H6.44636H6.43473H6.42308H6.41142H6.39974H6.38806H6.37636H6.36464H6.35291H6.34117H6.32942H6.31765H6.30586H6.29406H6.28225H6.27043H6.25859H6.24673H6.23486H6.22298H6.21108H6.19916H6.18724H6.17529H6.16333H6.15136H6.13937H6.12737H6.11535H6.10331H6.09126H6.07919H6.06711H6.05501H6.0429H6.03076H6.01862H6.00645H5.99427H5.98208H5.96987H5.95764H5.94539H5.93313H5.92085H5.90855H5.89624H5.8839H5.87156H5.85919H5.84681H5.8344H5.82199H5.80955H5.7971H5.78462H5.77213H5.75962H5.7471H5.73455H5.72199H5.70941H5.69681H5.68419H5.67155H5.65889H5.64622H5.63352H5.62081H5.60807H5.59532H5.58255H5.56976H5.55695H5.54412H5.53127H5.5184H5.50551H5.5V11.5C5.5 12.6046 4.60457 13.5 3.5 13.5C2.39543 13.5 1.5 12.6046 1.5 11.5H1C0.867392 11.5 0.740215 11.4473 0.646447 11.3536C0.552678 11.2598 0.5 11.1326 0.5 11V3ZM8.5 10.5H8.50508H8.5159H8.52672H8.53755H8.54838H8.55921H8.57006H8.5809H8.59175H8.60261H8.61347H8.62433H8.6352H8.64608H8.65696H8.66785H8.67874H8.68964H8.70055H8.71146H8.72237H8.7333H8.74423H8.75516H8.7661H8.77705H8.78801H8.79897H8.80994H8.82091H8.8319H8.84289H8.85388H8.86489H8.8759H8.88692H8.89795H8.90898H8.92002H8.93107H8.94213H8.9532H8.96427H8.97535H8.98644H8.99754H9.00865H9.01976H9.03089H9.04202H9.05316H9.06431H9.07547H9.08664H9.09782H9.10901H9.12021H9.13141H9.14263H9.15385H9.16509H9.17633H9.18759H9.19885H9.21013H9.22142H9.23271H9.24402H9.25533H9.26666H9.278H9.28935H9.30071H9.31208H9.32346H9.33485H9.34626H9.35767H9.3691H9.38054H9.39199H9.40345H9.41492H9.42641H9.43791H9.44941H9.46094H9.47247H9.48402H9.49557H9.50714H9.51873H9.53032H9.54193H9.55356H9.56519H9.57684H9.5885H9.60017H9.61186H9.62356H9.63528H9.64701H9.65875H9.6705H9.68227H9.69406H9.70585H9.71767H9.72949H9.74133H9.75319H9.76506H9.77694H9.78884H9.80075H9.81268H9.82463H9.83659H9.84856H9.86055H9.87255H9.88457H9.89661H9.90866H9.92073H9.93281H9.94491H9.95702H9.96915H9.9813H9.99346H10.0056H10.0178H10.0301H10.0423H10.0545H10.0668H10.0791H10.0914H10.1037H10.116H10.1284H10.1407H10.1531H10.1655H10.1779H10.1904H10.2028H10.2153H10.2278H10.2403H10.2528H10.2654H10.2779H10.2905H10.3031H10.3157H10.3284H10.341H10.3537H10.3664H10.3791H10.3918H10.4046H10.4174H10.4302H10.443H10.4558H10.4687H10.4815H10.4944H10.5073H10.5203H10.5332H10.5462H10.5592H10.5722H10.5852H10.5983H10.6113H10.6244H10.6376H10.6507H10.6638H10.677H10.6902H10.7035H10.7167H10.73H10.7432H10.7566H10.7676C11.1134 9.90219 11.7597 9.5 12.5 9.5C13.2642 9.5 13.9283 9.92861 14.265 10.5586C14.3351 10.5212 14.4151 10.5 14.5 10.5V7.64114C14.5 7.32304 14.3189 7.03268 14.0332 6.89275L12.8088 6.29304C12.4842 6.13403 12.2138 5.8826 12.0316 5.57035L11.0651 3.91344C10.9158 3.65743 10.6417 3.5 10.3453 3.5H8.5L8.5 10.5ZM7.5 3.5L7.5 10.5H7.49483H7.48402H7.4732H7.46237H7.45154H7.4407H7.42986H7.41902H7.40817H7.39731H7.38645H7.37559H7.36472H7.35384H7.34296L7.33207 10.5H7.32118H7.31028H7.29937H7.28846H7.27754H7.26662H7.25569H7.24476H7.23381H7.22287H7.21191H7.20095H7.18998H7.179H7.16802H7.15703H7.14603H7.13503H7.12402H7.113H7.10197H7.09094H7.0799H7.06885H7.05779H7.04672H7.03565H7.02457H7.01348H7.00238H6.99127H6.98015H6.96903H6.9579H6.94675H6.9356H6.92444H6.91328H6.9021H6.89091H6.87971H6.86851H6.85729H6.84606H6.83483H6.82358H6.81233H6.80106H6.78979H6.7785H6.76721H6.7559H6.74458H6.73326H6.72192H6.71057H6.69921H6.68784H6.67646H6.66506H6.65366H6.64225H6.63082H6.61938H6.60793H6.59647H6.585H6.57351H6.56201H6.5505H6.53898H6.52745H6.5159H6.50434H6.49277H6.48119H6.46959H6.45798H6.44636H6.43473H6.42308H6.41142H6.39974H6.38806H6.37636H6.36464H6.35291H6.34117H6.32942H6.31765H6.30586H6.29406H6.28225H6.27043H6.25859H6.24673H6.23486H6.22298H6.21108H6.19916H6.18724H6.17529H6.16333H6.15136H6.13937H6.12737H6.11535H6.10331H6.09126H6.07919H6.06711H6.05501H6.0429H6.03076H6.01862H6.00645H5.99427H5.98208H5.96987H5.95764H5.94539H5.93313H5.92085H5.90855H5.89624H5.8839H5.87156H5.85919H5.84681H5.8344H5.82199H5.80955H5.7971H5.78462H5.77213H5.75962H5.7471H5.73455H5.72199H5.70941H5.69681H5.68419H5.67155H5.65889H5.64622H5.63352H5.62081H5.60807H5.59532H5.58255H5.56976H5.55695H5.54412H5.53127H5.5184H5.50551H5.49259H5.47966H5.46671H5.45374H5.44075H5.42774H5.4147H5.40165H5.38858H5.37548H5.36237H5.34923H5.33607H5.32289H5.30969H5.29647H5.28322H5.26996H5.25667H5.24336H5.23243C4.88662 9.90219 4.24028 9.5 3.5 9.5C2.75972 9.5 2.11337 9.9022 1.76756 10.5H1.5V3.5H7.5ZM3.5 10.5C2.94772 10.5 2.5 10.9477 2.5 11.5C2.5 12.0523 2.94772 12.5 3.5 12.5C4.05228 12.5 4.5 12.0523 4.5 11.5C4.5 10.9477 4.05228 10.5 3.5 10.5ZM12.5 10.5C11.9477 10.5 11.5 10.9477 11.5 11.5C11.5 12.0523 11.9477 12.5 12.5 12.5C13.0523 12.5 13.5 12.0523 13.5 11.5C13.5 10.9477 13.0523 10.5 12.5 10.5Z" fill="currentColor"/>
</svg>
