<svg width="16" height="16" viewBox="0 0 16 16" fill="none" xmlns="http://www.w3.org/2000/svg">
<path fill-rule="evenodd" clip-rule="evenodd" d="M12.8787 1.79571C13.1943 1.71681 13.5 1.95549 13.5 2.28078V8.99982C13.0822 8.68597 12.5628 8.5 12 8.5C10.6193 8.5 9.5 9.61929 9.5 11C9.5 12.3807 10.6193 13.5 12 13.5C13.3807 13.5 14.5 12.3807 14.5 11V2.28078C14.5 1.30492 13.5829 0.588882 12.6362 0.825563L6.6362 2.32556C5.96845 2.4925 5.5 3.09247 5.5 3.78078V10.9998C5.08217 10.686 4.5628 10.5 4 10.5C2.61929 10.5 1.5 11.6193 1.5 13C1.5 14.3807 2.61929 15.5 4 15.5C5.38071 15.5 6.5 14.3807 6.5 13V3.78078C6.5 3.55134 6.65615 3.35135 6.87873 3.29571L12.8787 1.79571ZM5.5 13C5.5 12.1716 4.82843 11.5 4 11.5C3.17157 11.5 2.5 12.1716 2.5 13C2.5 13.8284 3.17157 14.5 4 14.5C4.82843 14.5 5.5 13.8284 5.5 13ZM13.5 11C13.5 10.1716 12.8284 9.5 12 9.5C11.1716 9.5 10.5 10.1716 10.5 11C10.5 11.8284 11.1716 12.5 12 12.5C12.8284 12.5 13.5 11.8284 13.5 11Z" fill="currentColor"/>
</svg>
