<svg width="16" height="16" viewBox="0 0 16 16" fill="none" xmlns="http://www.w3.org/2000/svg">
<g clip-path="url(#clip0_414_11664)">
<path fill-rule="evenodd" clip-rule="evenodd" d="M6 0.5C5.17157 0.5 4.5 1.17157 4.5 2V4C4.5 4.82843 5.17157 5.5 6 5.5H10C10.8284 5.5 11.5 4.82843 11.5 4V2C11.5 1.17157 10.8284 0.5 10 0.5H6ZM5.5 2C5.5 1.72386 5.72386 1.5 6 1.5H10C10.2761 1.5 10.5 1.72386 10.5 2V4C10.5 4.27614 10.2761 4.5 10 4.5H6C5.72386 4.5 5.5 4.27614 5.5 4V2ZM11 10.5C10.1716 10.5 9.5 11.1716 9.5 12V14C9.5 14.8284 10.1716 15.5 11 15.5H14C14.8284 15.5 15.5 14.8284 15.5 14V12C15.5 11.1716 14.8284 10.5 14 10.5H11ZM10.5 12C10.5 11.7239 10.7239 11.5 11 11.5H14C14.2761 11.5 14.5 11.7239 14.5 12V14C14.5 14.2761 14.2761 14.5 14 14.5H11C10.7239 14.5 10.5 14.2761 10.5 14V12ZM0.5 12C0.5 11.1716 1.17157 10.5 2 10.5H5C5.82843 10.5 6.5 11.1716 6.5 12V14C6.5 14.8284 5.82843 15.5 5 15.5H2C1.17157 15.5 0.5 14.8284 0.5 14V12ZM2 11.5C1.72386 11.5 1.5 11.7239 1.5 12V14C1.5 14.2761 1.72386 14.5 2 14.5H5C5.27614 14.5 5.5 14.2761 5.5 14V12C5.5 11.7239 5.27614 11.5 5 11.5H2ZM1 7.5C0.723858 7.5 0.5 7.72386 0.5 8C0.5 8.27614 0.723858 8.5 1 8.5H15C15.2761 8.5 15.5 8.27614 15.5 8C15.5 7.72386 15.2761 7.5 15 7.5H1Z" fill="currentColor"/>
</g>
<defs>
<clipPath id="clip0_414_11664">
<rect width="16" height="16" fill="white"/>
</clipPath>
</defs>
</svg>
