<svg width="16" height="16" viewBox="0 0 16 16" fill="none" xmlns="http://www.w3.org/2000/svg">
<g clip-path="url(#clip0_389_13057)">
<path fill-rule="evenodd" clip-rule="evenodd" d="M2 0.5C1.17157 0.5 0.5 1.17157 0.5 2V14C0.5 14.8284 1.17157 15.5 2 15.5H11H14C14.8284 15.5 15.5 14.8284 15.5 14V2C15.5 1.17157 14.8284 0.5 14 0.5H2ZM11.5 14.5V8C11.5 7.72386 11.2761 7.5 11 7.5C10.7239 7.5 10.5 7.72386 10.5 8V14.5H2C1.72386 14.5 1.5 14.2761 1.5 14V2C1.5 1.72386 1.72386 1.5 2 1.5H14C14.2761 1.5 14.5 1.72386 14.5 2V14C14.5 14.2761 14.2761 14.5 14 14.5H11.5Z" fill="currentColor"/>
</g>
<defs>
<clipPath id="clip0_389_13057">
<rect width="16" height="16" fill="white"/>
</clipPath>
</defs>
</svg>
