<svg width="16" height="16" viewBox="0 0 16 16" fill="none" xmlns="http://www.w3.org/2000/svg">
<g clip-path="url(#clip0_430_11234)">
<path fill-rule="evenodd" clip-rule="evenodd" d="M0.5 1C0.5 0.723858 0.723858 0.5 1 0.5L3 0.5L13 0.5L15 0.5C15.2761 0.5 15.5 0.723858 15.5 1C15.5 1.27614 15.2761 1.5 15 1.5L13.5 1.5V3.5H15C15.2761 3.5 15.5 3.72386 15.5 4C15.5 4.27614 15.2761 4.5 15 4.5H13.5L13.5 11.5H15C15.2761 11.5 15.5 11.7239 15.5 12C15.5 12.2761 15.2761 12.5 15 12.5H13.5V14.5H15C15.2761 14.5 15.5 14.7239 15.5 15C15.5 15.2761 15.2761 15.5 15 15.5H13L3 15.5H1C0.723858 15.5 0.5 15.2761 0.5 15C0.5 14.7239 0.723858 14.5 1 14.5H2.5L2.5 12.5H1C0.723858 12.5 0.5 12.2761 0.5 12C0.5 11.7239 0.723858 11.5 1 11.5H2.5L2.5 4.5H1C0.723858 4.5 0.5 4.27614 0.5 4C0.5 3.72386 0.723858 3.5 1 3.5L2.5 3.5L2.5 1.5L1 1.5C0.723858 1.5 0.5 1.27614 0.5 1ZM3.5 12L3.5 4L3.5 1.5L12.5 1.5V4L12.5 12V14.5L3.5 14.5L3.5 12ZM8 6L8.3 5.6C8.12222 5.46667 7.87778 5.46667 7.7 5.6L8 6ZM7.3737 7.26968C7.59893 7.01631 7.82561 6.80232 8 6.6488C8.17439 6.80232 8.40107 7.01631 8.6263 7.26968C9.11476 7.81921 9.5 8.44751 9.5 9C9.5 9.82843 8.82843 10.5 8 10.5C7.17157 10.5 6.5 9.82843 6.5 9C6.5 8.44751 6.88524 7.81921 7.3737 7.26968ZM8 6C7.7 5.6 7.6999 5.60008 7.69979 5.60016L7.69953 5.60035L7.69888 5.60084L7.69703 5.60224L7.69119 5.60667L7.67125 5.622C7.65442 5.63505 7.63062 5.65372 7.60087 5.67763C7.5414 5.72541 7.45786 5.79436 7.35825 5.88152C7.15973 6.05523 6.89379 6.30439 6.6263 6.60532C6.11476 7.18079 5.5 8.05249 5.5 9C5.5 10.3807 6.61929 11.5 8 11.5C9.38071 11.5 10.5 10.3807 10.5 9C10.5 8.05249 9.88524 7.18079 9.3737 6.60532C9.10621 6.30439 8.84027 6.05523 8.64175 5.88152C8.54214 5.79436 8.4586 5.72541 8.39913 5.67763C8.36938 5.65372 8.34558 5.63505 8.32875 5.622L8.30881 5.60667L8.30297 5.60224L8.30112 5.60084L8.30047 5.60035L8.30021 5.60016C8.3001 5.60008 8.3 5.6 8 6Z" fill="currentColor"/>
</g>
<defs>
<clipPath id="clip0_430_11234">
<rect width="16" height="16" fill="white"/>
</clipPath>
</defs>
</svg>
