<svg width="16" height="16" viewBox="0 0 16 16" fill="none" xmlns="http://www.w3.org/2000/svg">
<path fill-rule="evenodd" clip-rule="evenodd" d="M2.55556 2.49999C2.27941 2.49999 2.05556 2.72385 2.05556 2.99999V4.59999H1C0.723858 4.59999 0.5 4.82385 0.5 5.09999V9.99999C0.5 10.2761 0.723858 10.5 1 10.5H1.76756C1.59739 10.7942 1.5 11.1357 1.5 11.5C1.5 12.6046 2.39543 13.5 3.5 13.5C4.60457 13.5 5.5 12.6046 5.5 11.5C5.5 10.3954 4.60457 9.49999 3.5 9.49999C3.46268 9.49999 3.4256 9.50101 3.38878 9.50303C3.37058 9.50102 3.35208 9.49999 3.33333 9.49999H1.5V5.59999H2.55556C2.8317 5.59999 3.05556 5.37613 3.05556 5.09999V3.49999H5.39907L7.5 6.65138V8.49999H7C6.72386 8.49999 6.5 8.72385 6.5 8.99999V11C6.5 11.2761 6.72386 11.5 7 11.5H8.83694C9.39809 12.6815 10.603 13.5 12 13.5C13.933 13.5 15.5 11.933 15.5 9.99999C15.5 8.06699 13.933 6.49999 12 6.49999C10.603 6.49999 9.39824 7.31835 8.83695 8.49999H8.5V6.49999C8.5 6.40128 8.47078 6.30477 8.41602 6.22264L6.08269 2.72264C5.98996 2.58354 5.83384 2.49999 5.66667 2.49999H2.55556ZM12 8.49999H9.99969C10.4561 7.89234 11.1826 7.49999 12 7.49999C13.3807 7.49999 14.5 8.61928 14.5 9.99999C14.5 11.3807 13.3807 12.5 12 12.5C11.1826 12.5 10.4562 12.1077 9.99971 11.5H12C12.2761 11.5 12.5 11.2761 12.5 11V8.99999C12.5 8.72385 12.2761 8.49999 12 8.49999ZM2.5 11.5C2.5 10.9477 2.94772 10.5 3.5 10.5C4.05228 10.5 4.5 10.9477 4.5 11.5C4.5 12.0523 4.05228 12.5 3.5 12.5C2.94772 12.5 2.5 12.0523 2.5 11.5ZM11.5 9.49999H7.5V10.5H11.5V9.49999Z" fill="#6E778C"/>
</svg>
