<svg width="16" height="16" viewBox="0 0 16 16" fill="none" xmlns="http://www.w3.org/2000/svg">
<g clip-path="url(#clip0_415_11529)">
<path fill-rule="evenodd" clip-rule="evenodd" d="M5.35355 3.64643L7.5 5.79288L8.7929 4.49999L7.64644 3.35354C7.45118 3.15828 7.45118 2.84169 7.64644 2.64643L9.64644 0.646431C9.84171 0.451169 10.1583 0.451169 10.3536 0.646431L15.3536 5.64643C15.5488 5.84169 15.5488 6.15827 15.3536 6.35354L13.3536 8.35354C13.1583 8.5488 12.8417 8.5488 12.6464 8.35354L11.5 7.2071L10.2071 8.49999L13.3536 11.6464C13.4084 11.7013 13.4498 11.7682 13.4743 11.8419L14.4743 14.8419C14.5342 15.0215 14.4875 15.2196 14.3536 15.3535C14.2196 15.4875 14.0216 15.5342 13.8419 15.4743L10.8419 14.4743C10.7682 14.4498 10.7013 14.4084 10.6464 14.3535L7.50001 11.2071L3.35355 15.3536C3.15829 15.5488 2.84171 15.5488 2.64645 15.3536L0.646446 13.3536C0.451184 13.1583 0.451184 12.8417 0.646446 12.6464L4.7929 8.49999L2.64645 6.35354L0.646445 4.35354C0.451183 4.15828 0.451183 3.8417 0.646445 3.64643L2.64644 1.64643C2.84171 1.45117 3.15829 1.45117 3.35355 1.64643L5.35355 3.64643ZM5 4.70709L7.14425 6.85134L7.14645 6.85355L9.14645 8.85355L9.14864 8.85573L12.563 12.2701L13.2094 14.2094L11.2701 13.563L7.85355 10.1464L5.85355 8.14645L3.7071 5.99999L5 4.70709ZM3 5.29288L4.29289 3.99999L3 2.70709L1.7071 3.99999L3 5.29288ZM10.7929 6.5L9.5 5.20711L8.20711 6.5L9.5 7.79289L10.7929 6.5ZM8.7071 2.99999L9.85355 4.14644L11.8536 6.14644L13 7.29288L14.2929 5.99998L10 1.70709L8.7071 2.99999ZM6.79289 10.5L5.5 9.20711L1.70711 13L3 14.2929L6.79289 10.5Z" fill="currentColor"/>
</g>
<defs>
<clipPath id="clip0_415_11529">
<rect width="16" height="16" fill="white"/>
</clipPath>
</defs>
</svg>
