<svg width="16" height="16" viewBox="0 0 16 16" fill="none" xmlns="http://www.w3.org/2000/svg">
<g clip-path="url(#clip0_415_11558)">
<path fill-rule="evenodd" clip-rule="evenodd" d="M10.6465 2.06066C10.8417 1.8654 11.1583 1.8654 11.3536 2.06066L13.9393 4.64645C14.1346 4.84171 14.1346 5.15829 13.9393 5.35355L12 7.29289L8.70711 4L10.6465 2.06066ZM7.64645 3.64645L9.93935 1.35356C10.5251 0.767769 11.4749 0.767768 12.0607 1.35355L14.6465 3.93934C15.2322 4.52513 15.2322 5.47487 14.6465 6.06066L12.3536 8.35356L6.56766 14.1395C6.35826 14.3489 6.09156 14.4916 5.80117 14.5497L1.09807 15.4903C0.934136 15.5231 0.764666 15.4718 0.646455 15.3536C0.528243 15.2353 0.476932 15.0659 0.509718 14.9019L1.45034 10.1988C1.50842 9.90845 1.65115 9.64176 1.86055 9.43235L7.64645 3.64645ZM11.2929 8L5.86055 13.4324C5.79075 13.5022 5.70185 13.5497 5.60505 13.5691L1.63739 14.3626L2.43092 10.395C2.45028 10.2982 2.49786 10.2093 2.56766 10.1395L8.00001 4.70711L11.2929 8Z" fill="#6E778C"/>
</g>
<defs>
<clipPath id="clip0_415_11558">
<rect width="16" height="16" fill="white"/>
</clipPath>
</defs>
</svg>
