<svg width="16" height="16" viewBox="0 0 16 16" fill="none" xmlns="http://www.w3.org/2000/svg">
<path fill-rule="evenodd" clip-rule="evenodd" d="M7.14624 1.98297C7.65991 1.62736 8.3402 1.62736 8.85387 1.98297L14.168 5.662C14.7161 6.04147 14.948 6.73717 14.7372 7.36963L12.7023 13.4743C12.4981 14.0869 11.9249 14.5 11.2793 14.5H4.72081C4.07517 14.5 3.50196 14.0869 3.29779 13.4743L1.26288 7.36963C1.05207 6.73717 1.28397 6.04147 1.83209 5.662L7.14624 1.98297ZM8.28466 2.80517C8.11344 2.68663 7.88667 2.68663 7.71545 2.80517L2.4013 6.48419C2.21859 6.61068 2.14129 6.84258 2.21157 7.0534L4.24647 13.1581C4.31453 13.3623 4.5056 13.5 4.72081 13.5H11.2793C11.4945 13.5 11.6856 13.3623 11.7536 13.1581L13.7885 7.0534C13.8588 6.84258 13.7815 6.61068 13.5988 6.48419L8.28466 2.80517Z" fill="currentColor"/>
</svg>
