<svg width="16" height="16" viewBox="0 0 16 16" fill="none" xmlns="http://www.w3.org/2000/svg">
<g clip-path="url(#clip0_389_13125)">
<path fill-rule="evenodd" clip-rule="evenodd" d="M1.5 3C1.5 2.17157 2.17157 1.5 3 1.5L15 1.5C15.2761 1.5 15.5 1.27614 15.5 1C15.5 0.723859 15.2761 0.5 15 0.5H3C1.61929 0.5 0.5 1.61929 0.5 3C0.5 4.38071 1.61929 5.5 3 5.5C3.27614 5.5 3.5 5.27614 3.5 5C3.5 4.72386 3.27614 4.5 3 4.5C2.17157 4.5 1.5 3.82843 1.5 3ZM6.5 4C6.5 3.72386 6.27614 3.5 6 3.5C5.72386 3.5 5.5 3.72386 5.5 4L5.5 15C5.5 15.2761 5.72386 15.5 6 15.5C6.27614 15.5 6.5 15.2761 6.5 15L6.5 4ZM11.5 4C11.5 3.72386 11.2761 3.5 11 3.5C10.7239 3.5 10.5 3.72386 10.5 4L10.5 15C10.5 15.2761 10.7239 15.5 11 15.5C11.2761 15.5 11.5 15.2761 11.5 15L11.5 4Z" fill="#6E778C"/>
</g>
<defs>
<clipPath id="clip0_389_13125">
<rect width="16" height="16" fill="white"/>
</clipPath>
</defs>
</svg>
