<svg width="16" height="16" viewBox="0 0 16 16" fill="none" xmlns="http://www.w3.org/2000/svg">
<g clip-path="url(#clip0_382_12656)">
<path fill-rule="evenodd" clip-rule="evenodd" d="M8.5 1.51894V6.95969L12.6877 3.60957C12.7084 3.59297 12.7301 3.57829 12.7524 3.56551C11.6724 2.40856 10.1749 1.64636 8.5 1.51894ZM13.37 4.33645C13.3525 4.35564 13.3333 4.3737 13.3123 4.39043L8.92256 7.90226L14.0217 10.4518C14.3301 9.69522 14.5 8.86746 14.5 8C14.5 6.64109 14.083 5.37958 13.37 4.33645ZM13.5738 11.3459L8 8.55902L2.42618 11.3459C3.56307 13.2358 5.6339 14.5 8 14.5C10.3661 14.5 12.4369 13.2358 13.5738 11.3459ZM1.9783 10.4518L7.5 7.69098V1.51894C4.14378 1.77426 1.5 4.57838 1.5 8C1.5 8.86746 1.66992 9.69522 1.9783 10.4518ZM8 0.5C3.85786 0.5 0.5 3.85786 0.5 8C0.5 12.1421 3.85786 15.5 8 15.5C12.1421 15.5 15.5 12.1421 15.5 8C15.5 3.85786 12.1421 0.5 8 0.5Z" fill="currentColor"/>
</g>
<defs>
<clipPath id="clip0_382_12656">
<rect width="16" height="16" fill="white"/>
</clipPath>
</defs>
</svg>
