<svg width="16" height="16" viewBox="0 0 16 16" fill="none" xmlns="http://www.w3.org/2000/svg">
<g clip-path="url(#clip0_415_11553)">
<path fill-rule="evenodd" clip-rule="evenodd" d="M10.6465 2.06066C10.8417 1.8654 11.1583 1.8654 11.3536 2.06066L13.9393 4.64645C14.1346 4.84171 14.1346 5.15829 13.9393 5.35355L12 7.29289L8.70711 4L10.6465 2.06066ZM8 3.29289L6.35356 1.64645C6.1583 1.45119 5.84171 1.45119 5.64645 1.64645C5.45119 1.84171 5.45119 2.15829 5.64645 2.35356L7.2929 4L1.86055 9.43235C1.65114 9.64176 1.50841 9.90845 1.45034 10.1988L0.803889 13.4311C0.593973 14.4807 1.51935 15.406 2.56893 15.1961L5.80117 14.5497C6.09155 14.4916 6.35825 14.3489 6.56765 14.1395L12 8.70711L13.6465 10.3536C13.8417 10.5488 14.1583 10.5488 14.3536 10.3536C14.5488 10.1583 14.5488 9.84171 14.3536 9.64645L12.7071 8L14.6465 6.06066C15.2322 5.47487 15.2322 4.52513 14.6465 3.93934L12.0607 1.35355C11.4749 0.767768 10.5251 0.767769 9.93934 1.35356L8 3.29289ZM11.2929 8L5.86055 13.4324C5.79075 13.5022 5.70185 13.5497 5.60505 13.5691L2.37282 14.2155C2.02296 14.2855 1.7145 13.977 1.78447 13.6272L2.43092 10.395C2.45027 10.2982 2.49785 10.2093 2.56765 10.1395L8 4.70711L11.2929 8Z" fill="currentColor"/>
</g>
<defs>
<clipPath id="clip0_415_11553">
<rect width="16" height="16" fill="white"/>
</clipPath>
</defs>
</svg>
