<svg width="16" height="16" viewBox="0 0 16 16" fill="none" xmlns="http://www.w3.org/2000/svg">
<g clip-path="url(#clip0_3278_74)">
<path fill-rule="evenodd" clip-rule="evenodd" d="M7.7765 0.552786C7.91727 0.482405 8.08295 0.482405 8.22372 0.552786L13.8237 3.35279L15.2237 4.05279C15.4707 4.17628 15.5708 4.47662 15.4473 4.72361C15.3238 4.9706 15.0235 5.07071 14.7765 4.94721L14.1001 4.60902V15C14.1001 15.2761 13.8763 15.5 13.6001 15.5H2.40011C2.12397 15.5 1.90011 15.2761 1.90011 15V4.60902L1.22372 4.94721C0.976727 5.07071 0.676391 4.9706 0.552896 4.72361C0.429401 4.47662 0.529513 4.17628 0.776503 4.05279L2.1765 3.35279L7.7765 0.552786ZM2.90011 4.10902V14.5H13.1001V4.10902L8.00011 1.55902L2.90011 4.10902ZM8.00009 10.5C6.61938 10.5 5.50009 11.6193 5.50009 13C5.50009 13.2761 5.27623 13.5 5.00009 13.5C4.72395 13.5 4.50009 13.2761 4.50009 13C4.50009 11.067 6.06709 9.5 8.00009 9.5C9.93309 9.5 11.5001 11.067 11.5001 13C11.5001 13.2761 11.2762 13.5 11.0001 13.5C10.7239 13.5 10.5001 13.2761 10.5001 13C10.5001 11.6193 9.3808 10.5 8.00009 10.5ZM7.00009 6.5C7.00009 5.94772 7.44781 5.5 8.00009 5.5C8.55238 5.5 9.00009 5.94772 9.00009 6.5C9.00009 7.05228 8.55238 7.5 8.00009 7.5C7.44781 7.5 7.00009 7.05228 7.00009 6.5ZM8.00009 4.5C6.89552 4.5 6.00009 5.39543 6.00009 6.5C6.00009 7.60457 6.89552 8.5 8.00009 8.5C9.10466 8.5 10.0001 7.60457 10.0001 6.5C10.0001 5.39543 9.10466 4.5 8.00009 4.5Z" fill="currentColor"/>
</g>
<defs>
<clipPath id="clip0_3278_74">
<rect width="16" height="16" fill="white"/>
</clipPath>
</defs>
</svg>
