<svg width="16" height="16" viewBox="0 0 16 16" fill="none" xmlns="http://www.w3.org/2000/svg">
<path fill-rule="evenodd" clip-rule="evenodd" d="M3.5 3C3.5 2.72386 3.27614 2.5 3 2.5C2.72386 2.5 2.5 2.72386 2.5 3V13C2.5 13.2761 2.72386 13.5 3 13.5C3.27614 13.5 3.5 13.2761 3.5 13V3ZM7.32009 2.6159C7.17105 2.49169 6.96361 2.46492 6.78792 2.54721C6.61223 2.6295 6.5 2.806 6.5 3.00001V13C6.5 13.194 6.61223 13.3705 6.78792 13.4528C6.96361 13.5351 7.17105 13.5083 7.32009 13.3841L13.3201 8.38412C13.4341 8.28912 13.5 8.1484 13.5 8.00001C13.5 7.85162 13.4341 7.71089 13.3201 7.6159L7.32009 2.6159ZM7.5 11.9325V4.06753L12.219 8.00001L7.5 11.9325Z" fill="#6E778C"/>
</svg>
