<svg width="16" height="16" viewBox="0 0 16 16" fill="none" xmlns="http://www.w3.org/2000/svg">
<g clip-path="url(#clip0_430_11214)">
<path fill-rule="evenodd" clip-rule="evenodd" d="M10.7914 1.9715C10.6673 2.01528 10.5407 2.05954 10.4098 2.10282C12.0351 2.96777 13.1965 4.67908 13.4487 6.67977C13.4943 6.61639 13.5404 6.5507 13.5864 6.48295C14.0725 5.76727 14.5 4.89991 14.5 4.11111C14.5 2.11929 13.5896 1.5 13 1.5C12.1253 1.5 11.5418 1.70625 10.8621 1.94652L10.7914 1.9715ZM10.4586 1.0285C9.76798 1.27225 9.08158 1.5 8 1.5C7.08919 1.5 6.40792 1.27559 5.65811 1.02566L5.64172 1.02019C4.89598 0.771593 4.08126 0.5 3 0.5C1.58961 0.5 0.5 1.88071 0.5 4.11111C0.5 5.2112 1.07251 6.28829 1.58639 7.04483C1.84983 7.43266 2.11243 7.75718 2.30916 7.98487C2.40775 8.09899 2.49041 8.18949 2.54917 8.25221C2.5538 8.25715 2.55828 8.26193 2.56262 8.26652C2.66873 8.91646 2.90353 9.52804 3.21925 10.0862C3.19359 10.1036 3.16919 10.1237 3.14645 10.1464L0.646447 12.6464C0.451184 12.8417 0.451184 13.1583 0.646447 13.3536L2.64645 15.3536C2.84171 15.5488 3.15829 15.5488 3.35355 15.3536L5.85355 12.8536C5.87087 12.8362 5.88665 12.818 5.90089 12.7989C6.03062 12.8763 6.1602 12.9479 6.28884 13.0134C6.87299 13.3107 7.47436 13.5 8 13.5C8.52564 13.5 9.12701 13.3107 9.71115 13.0134C9.8398 12.9479 9.96939 12.8763 10.0991 12.7989C10.1117 12.8158 10.1255 12.832 10.1405 12.8475L12.5572 15.3475C12.7486 15.5456 13.0642 15.5515 13.2629 15.3607L15.3463 13.3607C15.4432 13.2676 15.4986 13.1395 15.5 13.0051C15.5013 12.8707 15.4486 12.7415 15.3536 12.6464L12.8536 10.1464C12.8308 10.1237 12.8064 10.1036 12.7808 10.0862C13.0965 9.52804 13.3313 8.91646 13.4374 8.26652L13.4508 8.25221C13.5096 8.18949 13.5922 8.09899 13.6908 7.98487C13.8876 7.75718 14.1502 7.43266 14.4136 7.04483C14.9275 6.28829 15.5 5.2112 15.5 4.11111C15.5 1.88071 14.4104 0.5 13 0.5C11.9515 0.5 11.2285 0.755979 10.5491 0.996505L10.4586 1.0285ZM2.55133 6.67977C2.80631 4.65695 3.9907 2.92994 5.64429 2.07443C5.54759 2.04292 5.45239 2.01118 5.35829 1.97981L5.34189 1.97434C4.59208 1.72441 3.91081 1.5 3 1.5C2.41039 1.5 1.5 2.11929 1.5 4.11111C1.5 4.89991 1.92749 5.76727 2.41361 6.48295C2.45963 6.5507 2.50569 6.61639 2.55133 6.67977ZM8 2.5C5.5585 2.5 3.5 4.69266 3.5 7.5C3.5 8.835 4.23714 10.0881 5.22042 11.0276C5.70781 11.4933 6.24113 11.8671 6.74241 12.1222C7.25201 12.3815 7.6923 12.5 8 12.5C8.3077 12.5 8.74799 12.3815 9.25759 12.1222C9.75887 11.8671 10.2922 11.4933 10.7796 11.0276C11.7629 10.0881 12.5 8.835 12.5 7.5C12.5 4.69266 10.4415 2.5 8 2.5ZM10.9283 12.2237L12.9299 14.2942L14.2856 12.9927L12.2183 10.9254C11.9856 11.2237 11.7329 11.4998 11.4704 11.7506C11.2947 11.9185 11.1132 12.0765 10.9283 12.2237ZM4.52958 11.7506C4.70483 11.918 4.88591 12.0757 5.07033 12.2226L3 14.2929L1.70711 13L3.78167 10.9254C4.0144 11.2237 4.26714 11.4998 4.52958 11.7506ZM7 6C7 6.55228 6.55228 7 6 7C5.44772 7 5 6.55228 5 6C5 5.44772 5.44772 5 6 5C6.55228 5 7 5.44772 7 6ZM11 9C11 9.55229 10.5523 10 10 10C9.44771 10 9 9.55229 9 9C9 8.44772 9.44771 8 10 8C10.5523 8 11 8.44772 11 9ZM10 7C10.5523 7 11 6.55228 11 6C11 5.44772 10.5523 5 10 5C9.44771 5 9 5.44772 9 6C9 6.55228 9.44771 7 10 7ZM7 9C7 9.55229 6.55228 10 6 10C5.44772 10 5 9.55229 5 9C5 8.44772 5.44772 8 6 8C6.55228 8 7 8.44772 7 9Z" fill="currentColor"/>
</g>
<defs>
<clipPath id="clip0_430_11214">
<rect width="16" height="16" fill="white"/>
</clipPath>
</defs>
</svg>
