<svg width="16" height="16" viewBox="0 0 16 16" fill="none" xmlns="http://www.w3.org/2000/svg">
<g clip-path="url(#clip0_430_11212)">
<path fill-rule="evenodd" clip-rule="evenodd" d="M3.34087 2.87133C2.16724 3.70964 1.5 4.82267 1.5 6C1.5 7.24429 2.4188 8.45287 3.82349 9.32145C4.48882 7.66756 6.10806 6.5 8 6.5C9.89194 6.5 11.5112 7.66756 12.1765 9.32145C13.5812 8.45287 14.5 7.24429 14.5 6C14.5 4.82267 13.8328 3.70964 12.6591 2.87133C11.4865 2.03371 9.8408 1.5 8 1.5C6.1592 1.5 4.51354 2.03371 3.34087 2.87133ZM0.5 6C0.5 7.8315 1.87988 9.36466 3.55068 10.3225C3.5173 10.5434 3.5 10.7697 3.5 11C3.5 11.9251 3.77914 12.785 4.25777 13.5H1C0.723858 13.5 0.5 13.7239 0.5 14C0.5 14.2761 0.723858 14.5 1 14.5H5C5.05047 14.5 5.09918 14.4925 5.14511 14.4786C5.92188 15.1169 6.91619 15.5 8 15.5C9.08381 15.5 10.0781 15.1169 10.8549 14.4786C10.9008 14.4925 10.9495 14.5 11 14.5H15C15.2761 14.5 15.5 14.2761 15.5 14C15.5 13.7239 15.2761 13.5 15 13.5H11.7422C12.2209 12.785 12.5 11.9251 12.5 11C12.5 10.7697 12.4827 10.5434 12.4493 10.3225C14.1201 9.36466 15.5 7.8315 15.5 6C15.5 4.4159 14.6002 3.02893 13.2404 2.0576C11.8795 1.08558 10.0252 0.5 8 0.5C5.97481 0.5 4.12046 1.08558 2.75963 2.0576C1.39976 3.02893 0.5 4.4159 0.5 6ZM4.5 11C4.5 9.067 6.067 7.5 8 7.5C9.933 7.5 11.5 9.067 11.5 11C11.5 12.933 9.933 14.5 8 14.5C6.067 14.5 4.5 12.933 4.5 11ZM8 10C8.55229 10 9 9.55229 9 9C9 8.44772 8.55229 8 8 8C7.44772 8 7 8.44772 7 9C7 9.55229 7.44772 10 8 10ZM8 14C8.55229 14 9 13.5523 9 13C9 12.4477 8.55229 12 8 12C7.44772 12 7 12.4477 7 13C7 13.5523 7.44772 14 8 14ZM11 11C11 11.5523 10.5523 12 10 12C9.44771 12 9 11.5523 9 11C9 10.4477 9.44771 10 10 10C10.5523 10 11 10.4477 11 11ZM6 12C6.55228 12 7 11.5523 7 11C7 10.4477 6.55228 10 6 10C5.44772 10 5 10.4477 5 11C5 11.5523 5.44772 12 6 12Z" fill="#6E778C"/>
</g>
<defs>
<clipPath id="clip0_430_11212">
<rect width="16" height="16" fill="white"/>
</clipPath>
</defs>
</svg>
