<svg width="16" height="16" viewBox="0 0 16 16" fill="none" xmlns="http://www.w3.org/2000/svg">
<g clip-path="url(#clip0_414_11675)">
<path fill-rule="evenodd" clip-rule="evenodd" d="M8.67089 0.77638C8.24861 0.565247 7.75158 0.565242 7.3293 0.776367L4.32922 2.2763C3.83169 2.52505 3.47028 3.05724 3.53517 3.67056C3.8589 6.73028 6.3139 8.5528 7.30347 9.17422C7.7326 9.4437 8.26759 9.4437 8.69672 9.17421C9.68626 8.55277 12.1411 6.73025 12.4648 3.67054C12.5297 3.05724 12.1683 2.52506 11.6708 2.2763L8.67089 0.77638ZM7.77649 1.67081C7.91725 1.60043 8.08293 1.60043 8.22368 1.67081L11.2236 3.17074C11.4037 3.26076 11.4852 3.42529 11.4704 3.56533C11.1983 6.13753 9.10512 7.73689 8.16489 8.32735C8.06091 8.39265 7.93927 8.39266 7.83528 8.32736C6.89501 7.73689 4.80177 6.13754 4.52962 3.56534C4.51481 3.4253 4.59634 3.26077 4.7764 3.17074L7.77649 1.67081ZM9 12C9 12.5523 8.55229 13 8 13C7.44772 13 7 12.5523 7 12C7 11.4477 7.44772 11 8 11C8.55229 11 9 11.4477 9 12ZM0.5 15C0.5 14.7239 0.723858 14.5 1 14.5H15C15.2761 14.5 15.5 14.7239 15.5 15C15.5 15.2761 15.2761 15.5 15 15.5H1C0.723858 15.5 0.5 15.2761 0.5 15Z" fill="currentColor"/>
</g>
<defs>
<clipPath id="clip0_414_11675">
<rect width="16" height="16" fill="white"/>
</clipPath>
</defs>
</svg>
