<svg width="16" height="16" viewBox="0 0 16 16" fill="none" xmlns="http://www.w3.org/2000/svg">
<g clip-path="url(#clip0_414_11682)">
<path fill-rule="evenodd" clip-rule="evenodd" d="M1.35355 0.646447C1.15829 0.451184 0.841709 0.451184 0.646447 0.646447C0.451184 0.841709 0.451184 1.15829 0.646447 1.35355L8.79289 9.5H2C1.72386 9.5 1.5 9.27614 1.5 9V7C1.5 6.72386 1.72386 6.5 2 6.5H3C3.27614 6.5 3.5 6.27614 3.5 6C3.5 5.72386 3.27614 5.5 3 5.5H2C1.72386 5.5 1.5 5.27614 1.5 5V3C1.5 2.72386 1.27614 2.5 1 2.5C0.723858 2.5 0.5 2.72386 0.5 3V5C0.5 5.38418 0.644427 5.73462 0.881947 6C0.644427 6.26538 0.5 6.61582 0.5 7V9C0.5 9.38418 0.644427 9.73462 0.881947 10C0.644427 10.2654 0.5 10.6158 0.5 11V14C0.5 14.8284 1.17157 15.5 2 15.5H12C12.2761 15.5 12.5 15.2761 12.5 15C12.5 14.7239 12.2761 14.5 12 14.5H2C1.72386 14.5 1.5 14.2761 1.5 14V11C1.5 10.7239 1.72386 10.5 2 10.5H9.79289L14.6464 15.3536C14.8417 15.5488 15.1583 15.5488 15.3536 15.3536C15.5488 15.1583 15.5488 14.8417 15.3536 14.6464L11.2071 10.5H14C14.8284 10.5 15.5 9.82843 15.5 9V7C15.5 6.61582 15.3556 6.26538 15.1181 6C15.3556 5.73462 15.5 5.38418 15.5 5V2C15.5 1.17157 14.8284 0.5 14 0.5H4C3.72386 0.5 3.5 0.723858 3.5 1C3.5 1.27614 3.72386 1.5 4 1.5H14C14.2761 1.5 14.5 1.72386 14.5 2V5C14.5 5.27614 14.2761 5.5 14 5.5H9C8.72386 5.5 8.5 5.72386 8.5 6C8.5 6.27614 8.72386 6.5 9 6.5H14C14.2761 6.5 14.5 6.72386 14.5 7V9C14.5 9.27614 14.2761 9.5 14 9.5H10.2071L1.35355 0.646447ZM4 9C4.55228 9 5 8.55229 5 8C5 7.44772 4.55228 7 4 7C3.44772 7 3 7.44772 3 8C3 8.55229 3.44772 9 4 9ZM5 12C5 12.5523 4.55228 13 4 13C3.44772 13 3 12.5523 3 12C3 11.4477 3.44772 11 4 11C4.55228 11 5 11.4477 5 12Z" fill="currentColor"/>
</g>
<defs>
<clipPath id="clip0_414_11682">
<rect width="16" height="16" fill="white"/>
</clipPath>
</defs>
</svg>
