<svg width="16" height="16" viewBox="0 0 16 16" fill="none" xmlns="http://www.w3.org/2000/svg">
<g clip-path="url(#clip0_435_8997)">
<path fill-rule="evenodd" clip-rule="evenodd" d="M13 1.5C12.1716 1.5 11.5 2.17157 11.5 3C11.5 3.82843 12.1716 4.5 13 4.5C13.8284 4.5 14.5 3.82843 14.5 3C14.5 2.17157 13.8284 1.5 13 1.5ZM10.5 3C10.5 1.61929 11.6193 0.5 13 0.5C14.3807 0.5 15.5 1.61929 15.5 3C15.5 4.38071 14.3807 5.5 13 5.5C12.2014 5.5 11.4903 5.12558 11.0326 4.54271L5.41506 7.35149C5.47046 7.55831 5.5 7.7757 5.5 8C5.5 8.2243 5.47046 8.44169 5.41506 8.64852L11.0326 11.4573C11.4903 10.8744 12.2014 10.5 13 10.5C14.3807 10.5 15.5 11.6193 15.5 13C15.5 14.3807 14.3807 15.5 13 15.5C11.6193 15.5 10.5 14.3807 10.5 13C10.5 12.7757 10.5295 12.5583 10.5849 12.3515L4.96738 9.54271C4.50969 10.1256 3.79857 10.5 3 10.5C1.61929 10.5 0.5 9.38071 0.5 8C0.5 6.61929 1.61929 5.5 3 5.5C3.79857 5.5 4.50969 5.87442 4.96738 6.45729L10.5849 3.64852C10.5295 3.44169 10.5 3.2243 10.5 3ZM3 6.5C2.17157 6.5 1.5 7.17157 1.5 8C1.5 8.82843 2.17157 9.5 3 9.5C3.82843 9.5 4.5 8.82843 4.5 8C4.5 7.17157 3.82843 6.5 3 6.5ZM11.5 13C11.5 12.1716 12.1716 11.5 13 11.5C13.8284 11.5 14.5 12.1716 14.5 13C14.5 13.8284 13.8284 14.5 13 14.5C12.1716 14.5 11.5 13.8284 11.5 13Z" fill="#6E778C"/>
</g>
<defs>
<clipPath id="clip0_435_8997">
<rect width="16" height="16" fill="white"/>
</clipPath>
</defs>
</svg>
