<svg width="16" height="16" viewBox="0 0 16 16" fill="none" xmlns="http://www.w3.org/2000/svg">
<path fill-rule="evenodd" clip-rule="evenodd" d="M7.77631 1.67083C7.91708 1.60045 8.08276 1.60045 8.22353 1.67083L13.2235 4.17083C13.3977 4.25792 13.4933 4.42698 13.4849 4.59279C13.2231 9.73576 9.60488 13.1064 8.22042 14.211C8.08727 14.3172 7.91257 14.3172 7.77941 14.211C6.39495 13.1064 2.77676 9.73576 2.51496 4.59279C2.50652 4.42698 2.60212 4.25792 2.77631 4.17083L7.77631 1.67083ZM8.67074 0.776401C8.24845 0.565256 7.75139 0.565255 7.3291 0.776401L2.3291 3.2764C1.82572 3.52809 1.48618 4.05288 1.51625 4.64363C1.80064 10.2303 5.71084 13.8399 7.15576 14.9927C7.65374 15.39 8.34609 15.39 8.84408 14.9927C10.289 13.8399 14.1992 10.2303 14.4836 4.64363C14.5137 4.05288 14.1741 3.52809 13.6707 3.2764L8.67074 0.776401ZM7.99992 4.50001C8.27606 4.50001 8.49992 4.72387 8.49992 5.00001V9.00001C8.49992 9.27615 8.27606 9.50001 7.99992 9.50001C7.72378 9.50001 7.49992 9.27615 7.49992 9.00001V5.00001C7.49992 4.72387 7.72378 4.50001 7.99992 4.50001ZM8.49992 10.5C8.49992 10.7761 8.27606 11 7.99992 11C7.72378 11 7.49992 10.7761 7.49992 10.5C7.49992 10.2239 7.72378 10 7.99992 10C8.27606 10 8.49992 10.2239 8.49992 10.5Z" fill="#6E778C"/>
</svg>
