<svg width="16" height="16" viewBox="0 0 16 16" fill="none" xmlns="http://www.w3.org/2000/svg">
<path fill-rule="evenodd" clip-rule="evenodd" d="M8.22377 1.67083C8.08301 1.60045 7.91732 1.60045 7.77656 1.67083L2.77656 4.17083C2.60236 4.25792 2.50676 4.42698 2.5152 4.59279C2.777 9.73576 6.3952 13.1064 7.77966 14.211C7.91282 14.3172 8.08751 14.3172 8.22067 14.211C9.60513 13.1064 13.2233 9.73576 13.4851 4.59279C13.4936 4.42698 13.398 4.25792 13.2238 4.17083L8.22377 1.67083ZM7.32934 0.776401C7.75163 0.565255 8.24869 0.565256 8.67098 0.776401L13.671 3.2764C14.1744 3.52809 14.5139 4.05288 14.4838 4.64363C14.1994 10.2303 10.2892 13.8399 8.84433 14.9927C8.34634 15.39 7.65399 15.39 7.156 14.9927C5.71108 13.8399 1.80088 10.2303 1.5165 4.64363C1.48643 4.05288 1.82597 3.52809 2.32934 3.2764L7.32934 0.776401Z" fill="currentColor"/>
</svg>
