<svg width="16" height="16" viewBox="0 0 16 16" fill="none" xmlns="http://www.w3.org/2000/svg">
<path fill-rule="evenodd" clip-rule="evenodd" d="M7.77656 1.67083C7.91732 1.60045 8.08301 1.60045 8.22377 1.67083L13.2238 4.17083C13.398 4.25792 13.4936 4.42698 13.4851 4.59279C13.2233 9.73576 9.60513 13.1064 8.22067 14.211C8.08751 14.3172 7.91282 14.3172 7.77966 14.211C6.3952 13.1064 2.777 9.73576 2.5152 4.59279C2.50676 4.42698 2.60236 4.25792 2.77656 4.17083L7.77656 1.67083ZM8.67098 0.776401C8.24869 0.565256 7.75163 0.565255 7.32934 0.776401L2.32934 3.2764C1.82597 3.52809 1.48643 4.05288 1.5165 4.64363C1.80088 10.2303 5.71108 13.8399 7.156 14.9927C7.65399 15.39 8.34634 15.39 8.84433 14.9927C10.2892 13.8399 14.1994 10.2303 14.4838 4.64363C14.5139 4.05288 14.1744 3.52809 13.671 3.2764L8.67098 0.776401ZM8.00016 4.50001C8.27631 4.50001 8.50016 4.72387 8.50016 5.00001V9.00001C8.50016 9.27615 8.27631 9.50001 8.00016 9.50001C7.72402 9.50001 7.50016 9.27615 7.50016 9.00001V5.00001C7.50016 4.72387 7.72402 4.50001 8.00016 4.50001ZM8.50016 10.5C8.50016 10.7761 8.27631 11 8.00016 11C7.72402 11 7.50016 10.7761 7.50016 10.5C7.50016 10.2239 7.72402 10 8.00016 10C8.27631 10 8.50016 10.2239 8.50016 10.5Z" fill="#6E778C"/>
</svg>
