<svg width="16" height="16" viewBox="0 0 16 16" fill="none" xmlns="http://www.w3.org/2000/svg">
<path fill-rule="evenodd" clip-rule="evenodd" d="M14.5 1C14.5 0.723858 14.2761 0.5 14 0.5C13.7239 0.5 13.5 0.723858 13.5 1V15C13.5 15.2761 13.7239 15.5 14 15.5C14.2761 15.5 14.5 15.2761 14.5 15V1ZM10.5 4C10.5 3.72386 10.2761 3.5 10 3.5C9.72386 3.5 9.5 3.72386 9.5 4V15C9.5 15.2761 9.72386 15.5 10 15.5C10.2761 15.5 10.5 15.2761 10.5 15V4ZM6 6.5C6.27614 6.5 6.5 6.72386 6.5 7L6.5 15C6.5 15.2761 6.27614 15.5 6 15.5C5.72386 15.5 5.5 15.2761 5.5 15L5.5 7C5.5 6.72386 5.72386 6.5 6 6.5ZM2.5 10C2.5 9.72386 2.27614 9.5 2 9.5C1.72386 9.5 1.5 9.72386 1.5 10V15C1.5 15.2761 1.72386 15.5 2 15.5C2.27614 15.5 2.5 15.2761 2.5 15L2.5 10Z" fill="#6E778C"/>
</svg>
