<svg width="16" height="16" viewBox="0 0 16 16" fill="none" xmlns="http://www.w3.org/2000/svg">
<g clip-path="url(#clip0_435_9481)">
<path fill-rule="evenodd" clip-rule="evenodd" d="M2 0.5C1.17157 0.5 0.5 1.17157 0.5 2V14C0.5 14.8284 1.17157 15.5 2 15.5H14C14.8284 15.5 15.5 14.8284 15.5 14V2C15.5 1.17157 14.8284 0.5 14 0.5H2ZM1.5 2C1.5 1.72386 1.72386 1.5 2 1.5H14C14.2761 1.5 14.5 1.72386 14.5 2V14C14.5 14.2761 14.2761 14.5 14 14.5H2C1.72386 14.5 1.5 14.2761 1.5 14V2ZM6 4.5C5.72386 4.5 5.5 4.72386 5.5 5V9V11C5.5 11.2761 5.72386 11.5 6 11.5C6.27614 11.5 6.5 11.2761 6.5 11V9.5H8C9.38071 9.5 10.5 8.38071 10.5 7C10.5 5.61929 9.38071 4.5 8 4.5H6ZM8 8.5H6.5V5.5H8C8.82843 5.5 9.5 6.17157 9.5 7C9.5 7.82843 8.82843 8.5 8 8.5Z" fill="#6E778C"/>
</g>
<defs>
<clipPath id="clip0_435_9481">
<rect width="16" height="16" fill="white"/>
</clipPath>
</defs>
</svg>
