<svg width="16" height="16" viewBox="0 0 16 16" fill="none" xmlns="http://www.w3.org/2000/svg">
<g clip-path="url(#clip0_435_9479)">
<path fill-rule="evenodd" clip-rule="evenodd" d="M2 0.5C1.17157 0.5 0.5 1.17157 0.5 2V14C0.5 14.8284 1.17157 15.5 2 15.5H14C14.8284 15.5 15.5 14.8284 15.5 14V2C15.5 1.17157 14.8284 0.5 14 0.5H2ZM1.5 2C1.5 1.72386 1.72386 1.5 2 1.5H14C14.2761 1.5 14.5 1.72386 14.5 2V14C14.5 14.2761 14.2761 14.5 14 14.5H2C1.72386 14.5 1.5 14.2761 1.5 14V2ZM4.47434 4.84189C4.38702 4.57991 4.10386 4.43833 3.84189 4.52566C3.57991 4.61298 3.43833 4.89614 3.52566 5.15811L5.52566 11.1581C5.58605 11.3393 5.74436 11.4702 5.93363 11.4956C6.12291 11.5209 6.3101 11.4362 6.41603 11.2773L8 8.90139L9.58397 11.2773C9.6899 11.4362 9.87709 11.5209 10.0664 11.4956C10.2556 11.4702 10.414 11.3393 10.4743 11.1581L12.4743 5.15811C12.5617 4.89614 12.4201 4.61298 12.1581 4.52566C11.8961 4.43833 11.613 4.57991 11.5257 4.84189L9.84894 9.87203L8.41603 7.72265C8.32329 7.58355 8.16718 7.5 8 7.5C7.83282 7.5 7.67671 7.58355 7.58397 7.72265L6.15106 9.87203L4.47434 4.84189Z" fill="#6E778C"/>
</g>
<defs>
<clipPath id="clip0_435_9479">
<rect width="16" height="16" fill="white"/>
</clipPath>
</defs>
</svg>
