<svg width="16" height="16" viewBox="0 0 16 16" fill="none" xmlns="http://www.w3.org/2000/svg">
<g clip-path="url(#clip0_414_11892)">
<path fill-rule="evenodd" clip-rule="evenodd" d="M2 0.5C1.17157 0.5 0.5 1.17157 0.5 2V14C0.5 14.8284 1.17157 15.5 2 15.5H14C14.8284 15.5 15.5 14.8284 15.5 14V2C15.5 1.17157 14.8284 0.5 14 0.5H2ZM8 4C8.27614 4 8.5 4.22386 8.5 4.5C8.5 4.77614 8.27614 5 8 5C7.72386 5 7.5 4.77614 7.5 4.5C7.5 4.22386 7.72386 4 8 4ZM8.5 11.5C8.5 11.7761 8.27614 12 8 12C7.72386 12 7.5 11.7761 7.5 11.5V6.5C7.5 6.22386 7.72386 6 8 6C8.27614 6 8.5 6.22386 8.5 6.5V11.5Z" fill="#6E778C"/>
</g>
<defs>
<clipPath id="clip0_414_11892">
<rect width="16" height="16" fill="white"/>
</clipPath>
</defs>
</svg>
