<svg width="16" height="16" viewBox="0 0 16 16" fill="none" xmlns="http://www.w3.org/2000/svg">
<path fill-rule="evenodd" clip-rule="evenodd" d="M5.5 1C5.5 0.723858 5.72386 0.5 6 0.5H10C10.2761 0.5 10.5 0.723858 10.5 1C10.5 1.27614 10.2761 1.5 10 1.5H6C5.72386 1.5 5.5 1.27614 5.5 1ZM2.5 9C2.5 5.96243 4.96243 3.5 8 3.5C11.0376 3.5 13.5 5.96243 13.5 9C13.5 12.0376 11.0376 14.5 8 14.5C4.96243 14.5 2.5 12.0376 2.5 9ZM8 2.5C4.41015 2.5 1.5 5.41015 1.5 9C1.5 12.5899 4.41015 15.5 8 15.5C11.5899 15.5 14.5 12.5899 14.5 9C14.5 7.64127 14.0831 6.37991 13.3702 5.33686L14.3536 4.35355C14.5488 4.15829 14.5488 3.84171 14.3536 3.64645C14.1583 3.45118 13.8417 3.45118 13.6464 3.64645L12.7403 4.55257C11.5545 3.28919 9.86943 2.5 8 2.5ZM8.5 6C8.5 5.72386 8.27614 5.5 8 5.5C7.72386 5.5 7.5 5.72386 7.5 6V9C7.5 9.27614 7.72386 9.5 8 9.5H11C11.2761 9.5 11.5 9.27614 11.5 9C11.5 8.72386 11.2761 8.5 11 8.5H8.5V6Z" fill="currentColor"/>
</svg>
