<svg width="16" height="16" viewBox="0 0 16 16" fill="none" xmlns="http://www.w3.org/2000/svg">
<path fill-rule="evenodd" clip-rule="evenodd" d="M1.63967 6.65335C1.54814 7.08783 1.5 7.53829 1.5 8V10C1.5 10.2761 1.72386 10.5 2 10.5C2.27614 10.5 2.5 10.2761 2.5 10V7C2.5 6.72386 2.27614 6.5 2 6.5C1.85845 6.5 1.73064 6.55882 1.63967 6.65335ZM1.99816 5.5L2 5.5C2.82843 5.5 3.5 6.17157 3.5 7V10C3.5 10.8284 2.82843 11.5 2 11.5C1.17157 11.5 0.5 10.8284 0.5 10V8V7C0.5 6.72128 0.576016 6.46032 0.708448 6.23672C1.50153 2.94538 4.46519 0.5 8 0.5C11.5348 0.5 14.4985 2.94538 15.2916 6.23672C15.424 6.46032 15.5 6.72128 15.5 7V8V10C15.5 10.8284 14.8284 11.5 14 11.5C13.8247 11.5 13.6564 11.4699 13.5 11.4146V12C13.5 13.3807 12.3807 14.5 11 14.5H10C9.72386 14.5 9.5 14.2761 9.5 14V13.5C9.5 13.2239 9.72386 13 10 13C10.2761 13 10.5 13.2239 10.5 13.5H11C11.8284 13.5 12.5 12.8284 12.5 12V10V7C12.5 6.17157 13.1716 5.5 14 5.5L14.0018 5.50001C13.0223 3.15105 10.704 1.5 8 1.5C5.29605 1.5 2.97772 3.15105 1.99816 5.5ZM13.5 10C13.5 10.2761 13.7239 10.5 14 10.5C14.2761 10.5 14.5 10.2761 14.5 10V8C14.5 7.53829 14.4519 7.08783 14.3603 6.65335C14.2694 6.55882 14.1416 6.5 14 6.5C13.7239 6.5 13.5 6.72386 13.5 7V10ZM4.77609 9.55294C5.02299 9.42928 5.3234 9.52918 5.44706 9.77609C5.9773 10.8348 6.94094 11.5 8 11.5C9.05906 11.5 10.0227 10.8348 10.5529 9.77609C10.6766 9.52918 10.977 9.42928 11.2239 9.55294C11.4708 9.6766 11.5707 9.97701 11.4471 10.2239C10.7796 11.5565 9.50478 12.5 8 12.5C6.49522 12.5 5.22035 11.5565 4.55294 10.2239C4.42928 9.97701 4.52918 9.6766 4.77609 9.55294ZM6 8C6.55228 8 7 7.55228 7 7C7 6.44772 6.55228 6 6 6C5.44772 6 5 6.44772 5 7C5 7.55228 5.44772 8 6 8ZM11 7C11 7.55228 10.5523 8 10 8C9.44771 8 9 7.55228 9 7C9 6.44772 9.44771 6 10 6C10.5523 6 11 6.44772 11 7Z" fill="#6E778C"/>
</svg>
