<svg width="16" height="16" viewBox="0 0 16 16" fill="none" xmlns="http://www.w3.org/2000/svg">
<g clip-path="url(#clip0_414_11469)">
<path fill-rule="evenodd" clip-rule="evenodd" d="M11.5 1C11.5 0.723858 11.7239 0.5 12 0.5H15C15.2761 0.5 15.5 0.723858 15.5 1V9C15.5 9.27614 15.2761 9.5 15 9.5H12C11.7239 9.5 11.5 9.27614 11.5 9V1ZM12.5 1.5V8.5H14.5V1.5H12.5ZM0.5 12C0.5 11.7239 0.723858 11.5 1 11.5H9C9.27614 11.5 9.5 11.7239 9.5 12V15C9.5 15.2761 9.27614 15.5 9 15.5H1C0.723858 15.5 0.5 15.2761 0.5 15V12ZM1.5 12.5V14.5H8.5V12.5H1.5ZM8.35355 1.64645C8.15829 1.45118 7.84171 1.45118 7.64645 1.64645C7.45118 1.84171 7.45118 2.15829 7.64645 2.35355L7.88769 2.5948C5.1892 3.06012 3.06012 5.1892 2.5948 7.88769L2.35355 7.64645C2.15829 7.45118 1.84171 7.45118 1.64645 7.64645C1.45118 7.84171 1.45118 8.15829 1.64645 8.35355L2.64645 9.35355C2.79863 9.50573 3.03111 9.54346 3.22361 9.44721L4.22361 8.94721C4.4706 8.82372 4.57071 8.52338 4.44721 8.27639C4.32372 8.0294 4.02338 7.92929 3.77639 8.05279L3.56389 8.15904C3.92663 5.79483 5.79483 3.92663 8.15904 3.56389L8.05279 3.77639C7.92929 4.02338 8.0294 4.32372 8.27639 4.44721C8.52338 4.57071 8.82372 4.4706 8.94721 4.22361L9.44721 3.22361C9.54346 3.03111 9.50573 2.79863 9.35355 2.64645L8.35355 1.64645Z" fill="#6E778C"/>
</g>
<defs>
<clipPath id="clip0_414_11469">
<rect width="16" height="16" fill="white"/>
</clipPath>
</defs>
</svg>
