<svg width="16" height="16" viewBox="0 0 16 16" fill="none" xmlns="http://www.w3.org/2000/svg">
<g clip-path="url(#clip0_430_11261)">
<path fill-rule="evenodd" clip-rule="evenodd" d="M6 0.5C2.96243 0.5 0.5 2.96243 0.5 6C0.5 8.14096 1.72329 9.9962 3.50904 10.9049C3.50311 10.9357 3.5 10.9675 3.5 11L3.5 14.5H1C0.723858 14.5 0.5 14.7239 0.5 15C0.5 15.2761 0.723858 15.5 1 15.5H4H12H15C15.2761 15.5 15.5 15.2761 15.5 15C15.5 14.7239 15.2761 14.5 15 14.5H12.5V11C12.5 10.9675 12.4969 10.9357 12.491 10.9049C14.2767 9.9962 15.5 8.14096 15.5 6C15.5 2.96243 13.0376 0.5 10 0.5H6ZM5.5 1.52746C3.25002 1.77619 1.5 3.68372 1.5 6C1.5 8.31628 3.25002 10.2238 5.5 10.4725V8V4V1.52746ZM6.5 3.5V1.5H9.5V3.5H6.5ZM6.5 4.5V7.5H9.5V4.5H6.5ZM6.5 8.5V10.5H9.5V8.5H6.5ZM6 11.5C5.47999 11.5 4.97683 11.4278 4.5 11.293V14.5H11.5V11.293C11.0232 11.4278 10.52 11.5 10 11.5H6ZM14.5 6C14.5 8.31628 12.75 10.2238 10.5 10.4725V8V4V1.52746C12.75 1.77619 14.5 3.68372 14.5 6Z" fill="currentColor"/>
</g>
<defs>
<clipPath id="clip0_430_11261">
<rect width="16" height="16" fill="white"/>
</clipPath>
</defs>
</svg>
