<svg width="16" height="16" viewBox="0 0 16 16" fill="none" xmlns="http://www.w3.org/2000/svg">
<g clip-path="url(#clip0_381_12623)">
<path fill-rule="evenodd" clip-rule="evenodd" d="M1.5 8C1.5 4.57839 4.14378 1.77426 7.5 1.51894V14.4811C4.14378 14.2257 1.5 11.4216 1.5 8ZM8 0.5C3.85786 0.5 0.5 3.85786 0.5 8C0.5 12.1421 3.85786 15.5 8 15.5H9C9.27614 15.5 9.5 15.2761 9.5 15C9.5 14.7239 9.27614 14.5 9 14.5H8.5V1.5H9C9.27614 1.5 9.5 1.27614 9.5 1C9.5 0.723858 9.27614 0.5 9 0.5H8ZM12.2909 1.59336C12.0664 1.43268 11.754 1.48448 11.5934 1.70906C11.4327 1.93364 11.4845 2.24595 11.7091 2.40664C12.3964 2.89843 12.9897 3.53374 13.4504 4.27447C13.5963 4.50895 13.9046 4.58079 14.1391 4.43494C14.3736 4.28908 14.4454 3.98076 14.2996 3.74628C13.7712 2.89682 13.088 2.16368 12.2909 1.59336ZM15.3218 6.29278C15.2645 6.02266 14.999 5.85017 14.7289 5.90752C14.4588 5.96486 14.2863 6.23033 14.3436 6.50045C14.4459 6.98211 14.5 7.48395 14.5 8C14.5 8.51605 14.4459 9.01789 14.3436 9.49955C14.2863 9.76967 14.4588 10.0351 14.7289 10.0925C14.999 10.1498 15.2645 9.97734 15.3218 9.70722C15.4385 9.15755 15.5 8.5861 15.5 8C15.5 7.4139 15.4385 6.84246 15.3218 6.29278ZM14.2871 12.2736C14.4337 12.0396 14.3628 11.731 14.1287 11.5845C13.8947 11.4379 13.5862 11.5088 13.4396 11.7429C12.9804 12.4762 12.391 13.1054 11.7091 13.5934C11.4845 13.754 11.4327 14.0664 11.5934 14.2909C11.754 14.5155 12.0664 14.5673 12.2909 14.4066C13.0818 13.8408 13.7605 13.1146 14.2871 12.2736Z" fill="currentColor"/>
</g>
<defs>
<clipPath id="clip0_381_12623">
<rect width="16" height="16" fill="white"/>
</clipPath>
</defs>
</svg>
