<svg width="16" height="16" viewBox="0 0 16 16" fill="none" xmlns="http://www.w3.org/2000/svg">
<g clip-path="url(#clip0_6095_10)">
<path fill-rule="evenodd" clip-rule="evenodd" d="M8 1.5C7.00218 1.5 6.05818 1.72449 5.21455 2.12526C4.96512 2.24375 4.66686 2.13761 4.54837 1.88818C4.42988 1.63875 4.53603 1.34049 4.78545 1.222C5.76033 0.758887 6.85063 0.5 8 0.5C12.1421 0.5 15.5 3.85786 15.5 8C15.5 9.14937 15.2411 10.2397 14.778 11.2145C14.6595 11.464 14.3613 11.5701 14.1118 11.4516C13.8624 11.3331 13.7562 11.0349 13.8747 10.7855C14.2755 9.94182 14.5 8.99782 14.5 8C14.5 4.41015 11.5899 1.5 8 1.5ZM1.88818 4.54837C2.13761 4.66686 2.24375 4.96512 2.12526 5.21455C1.72449 6.05818 1.5 7.00218 1.5 8C1.5 11.5899 4.41015 14.5 8 14.5C8.99782 14.5 9.94182 14.2755 10.7855 13.8747C11.0349 13.7562 11.3331 13.8624 11.4516 14.1118C11.5701 14.3613 11.464 14.6595 11.2145 14.778C10.2397 15.2411 9.14937 15.5 8 15.5C3.85786 15.5 0.5 12.1421 0.5 8C0.5 6.85063 0.758887 5.76033 1.222 4.78545C1.34049 4.53603 1.63875 4.42988 1.88818 4.54837ZM2.64645 2.64645C2.84171 2.45118 3.15829 2.45118 3.35355 2.64645L13.3536 12.6464C13.5488 12.8417 13.5488 13.1583 13.3536 13.3536C13.1583 13.5488 12.8417 13.5488 12.6464 13.3536L2.64645 3.35355C2.45118 3.15829 2.45118 2.84171 2.64645 2.64645ZM11.3536 6.35355C11.5488 6.15829 11.5488 5.84171 11.3536 5.64645C11.1583 5.45118 10.8417 5.45118 10.6464 5.64645L9.14645 7.14645C8.95118 7.34171 8.95118 7.65829 9.14645 7.85355C9.34171 8.04882 9.65829 8.04882 9.85355 7.85355L11.3536 6.35355ZM5.35355 7.64645C5.15829 7.45118 4.84171 7.45118 4.64645 7.64645C4.45118 7.84171 4.45118 8.15829 4.64645 8.35355L6.64645 10.3536C6.84171 10.5488 7.15829 10.5488 7.35355 10.3536L7.85355 9.85355C8.04882 9.65829 8.04882 9.34171 7.85355 9.14645C7.65829 8.95118 7.34171 8.95118 7.14645 9.14645L7 9.29289L5.35355 7.64645Z" fill="currentColor"/>
</g>
<defs>
<clipPath id="clip0_6095_10">
<rect width="16" height="16" fill="white"/>
</clipPath>
</defs>
</svg>
