<svg width="16" height="16" viewBox="0 0 16 16" fill="none" xmlns="http://www.w3.org/2000/svg">
<path fill-rule="evenodd" clip-rule="evenodd" d="M5 3.5C2.51472 3.5 0.5 5.51472 0.5 8C0.5 10.4853 2.51472 12.5 5 12.5H11C13.4853 12.5 15.5 10.4853 15.5 8C15.5 5.51472 13.4853 3.5 11 3.5H5ZM1.5 8C1.5 6.067 3.067 4.5 5 4.5H11C12.933 4.5 14.5 6.067 14.5 8C14.5 9.933 12.933 11.5 11 11.5H5C3.067 11.5 1.5 9.933 1.5 8ZM6 8C6 8.55228 5.55228 9 5 9C4.44772 9 4 8.55228 4 8C4 7.44772 4.44772 7 5 7C5.55228 7 6 7.44772 6 8ZM8 9C8.55229 9 9 8.55228 9 8C9 7.44772 8.55229 7 8 7C7.44772 7 7 7.44772 7 8C7 8.55228 7.44772 9 8 9ZM11 9C11.5523 9 12 8.55228 12 8C12 7.44772 11.5523 7 11 7C10.4477 7 10 7.44772 10 8C10 8.55228 10.4477 9 11 9Z" fill="#777B92"/>
</svg>
