<svg width="16" height="16" viewBox="0 0 16 16" fill="none" xmlns="http://www.w3.org/2000/svg">
<g clip-path="url(#clip0_6095_89)">
<path fill-rule="evenodd" clip-rule="evenodd" d="M8 0.5C8.27614 0.5 8.5 0.723858 8.5 1V1.51894C11.6912 1.7617 14.2383 4.3088 14.4811 7.5H15C15.2761 7.5 15.5 7.72386 15.5 8C15.5 8.27614 15.2761 8.5 15 8.5H14.4811C14.2383 11.6912 11.6912 14.2383 8.5 14.4811V15C8.5 15.2761 8.27614 15.5 8 15.5C7.72386 15.5 7.5 15.2761 7.5 15V14.4811C4.3088 14.2383 1.7617 11.6912 1.51894 8.5H1C0.723858 8.5 0.5 8.27614 0.5 8C0.5 7.72386 0.723858 7.5 1 7.5H1.51894C1.7617 4.3088 4.3088 1.7617 7.5 1.51894V1C7.5 0.723858 7.72386 0.5 8 0.5ZM2.5 8C2.5 11.0376 4.96243 13.5 8 13.5C11.0376 13.5 13.5 11.0376 13.5 8C13.5 4.96243 11.0376 2.5 8 2.5C4.96243 2.5 2.5 4.96243 2.5 8ZM10.424 6.265C10.5704 6.03083 10.4992 5.72236 10.265 5.576C10.0308 5.42965 9.72236 5.50083 9.576 5.735L7.46248 9.11664L6.4 7.7C6.23431 7.47909 5.92091 7.43431 5.7 7.6C5.47909 7.76569 5.43431 8.07909 5.6 8.3L7.1 10.3C7.19892 10.4319 7.3565 10.5065 7.52122 10.4995C7.68594 10.4926 7.83662 10.4048 7.924 10.265L10.424 6.265Z" fill="currentColor"/>
</g>
<defs>
<clipPath id="clip0_6095_89">
<rect width="16" height="16" fill="white"/>
</clipPath>
</defs>
</svg>
