<svg width="16" height="16" viewBox="0 0 16 16" fill="none" xmlns="http://www.w3.org/2000/svg">
<g clip-path="url(#clip0_6095_53)">
<path fill-rule="evenodd" clip-rule="evenodd" d="M1.5 2C1.5 1.72386 1.72386 1.5 2 1.5H8C8.27614 1.5 8.5 1.27614 8.5 1C8.5 0.723858 8.27614 0.5 8 0.5H2C1.17157 0.5 0.5 1.17157 0.5 2V14C0.5 14.8284 1.17157 15.5 2 15.5H14C14.8284 15.5 15.5 14.8284 15.5 14V8C15.5 7.72386 15.2761 7.5 15 7.5C14.7239 7.5 14.5 7.72386 14.5 8V14C14.5 14.2761 14.2761 14.5 14 14.5H2C1.72386 14.5 1.5 14.2761 1.5 14V2ZM13 0.5C13.2761 0.5 13.5 0.723858 13.5 1V2.5H15C15.2761 2.5 15.5 2.72386 15.5 3C15.5 3.27614 15.2761 3.5 15 3.5H13.5V5C13.5 5.27614 13.2761 5.5 13 5.5C12.7239 5.5 12.5 5.27614 12.5 5V3.5H11C10.7239 3.5 10.5 3.27614 10.5 3C10.5 2.72386 10.7239 2.5 11 2.5H12.5V1C12.5 0.723858 12.7239 0.5 13 0.5Z" fill="#777B92"/>
</g>
<defs>
<clipPath id="clip0_6095_53">
<rect width="16" height="16" fill="white"/>
</clipPath>
</defs>
</svg>
