<svg width="16" height="16" viewBox="0 0 16 16" fill="none" xmlns="http://www.w3.org/2000/svg">
<path fill-rule="evenodd" clip-rule="evenodd" d="M3.67703 0.5C3.06367 0.5 2.51211 0.873427 2.28432 1.44291L0.607285 5.6355C0.536414 5.81268 0.5 6.00175 0.5 6.19258V8C0.5 8.82843 1.17157 9.5 2 9.5H6C6.27614 9.5 6.5 9.72386 6.5 10V12.5858C6.5 13.9221 8.11571 14.5914 9.06066 13.6464L12.0607 10.6464C12.342 10.3651 12.5 9.98361 12.5 9.58579V2C12.5 1.17157 11.8284 0.5 11 0.5H3.67703ZM3.21279 1.8143C3.28873 1.62448 3.47258 1.5 3.67703 1.5H11C11.2761 1.5 11.5 1.72386 11.5 2V9.58579C11.5 9.71839 11.4473 9.84557 11.3536 9.93934L8.35355 12.9393C8.03857 13.2543 7.5 13.0312 7.5 12.5858V10C7.5 9.17157 6.82843 8.5 6 8.5H2C1.72386 8.5 1.5 8.27614 1.5 8V6.19258C1.5 6.12897 1.51214 6.06595 1.53576 6.00689L3.21279 1.8143ZM15.5 1C15.5 0.723858 15.2761 0.5 15 0.5C14.7239 0.5 14.5 0.723858 14.5 1V10C14.5 10.2761 14.7239 10.5 15 10.5C15.2761 10.5 15.5 10.2761 15.5 10V1Z" fill="#6E778C"/>
</svg>
