<svg width="16" height="16" viewBox="0 0 16 16" fill="none" xmlns="http://www.w3.org/2000/svg">
<path fill-rule="evenodd" clip-rule="evenodd" d="M9.5 3.41411C9.5 2.07775 7.88429 1.4085 6.93934 2.35345L3.93934 5.35345C3.65803 5.63475 3.5 6.01628 3.5 6.41411V13.9999C3.5 14.8283 4.17157 15.4999 5 15.4999H12.323C12.9363 15.4999 13.4879 15.1265 13.7157 14.557L15.3927 10.3644C15.4636 10.1872 15.5 9.99814 15.5 9.80731V7.9999C15.5 7.17147 14.8284 6.4999 14 6.4999H10C9.72386 6.4999 9.5 6.27604 9.5 5.9999V3.41411ZM7.64645 3.06056C7.96143 2.74557 8.5 2.96866 8.5 3.41411V5.9999C8.5 6.82832 9.17157 7.4999 10 7.4999H14C14.2761 7.4999 14.5 7.72375 14.5 7.9999V9.80731C14.5 9.87092 14.4879 9.93395 14.4642 9.99301L12.7872 14.1856C12.7113 14.3754 12.5274 14.4999 12.323 14.4999H5C4.72386 14.4999 4.5 14.276 4.5 13.9999V6.41411C4.5 6.2815 4.55268 6.15432 4.64645 6.06056L7.64645 3.06056ZM1.5 6C1.5 5.72385 1.27614 5.5 1 5.5C0.723858 5.5 0.5 5.72385 0.5 6V15C0.5 15.2761 0.723858 15.5 1 15.5C1.27614 15.5 1.5 15.2761 1.5 15V6Z" fill="#6E778C"/>
</svg>
