<svg width="16" height="16" viewBox="0 0 16 16" fill="none" xmlns="http://www.w3.org/2000/svg">
<path fill-rule="evenodd" clip-rule="evenodd" d="M1.5 2C1.5 1.72386 1.72386 1.5 2 1.5H7.83333C9.64795 1.5 11.57 2.04909 12.7659 3.58142C13.9037 5.03922 15 7.11162 15 9.5V12.5C15 12.7761 14.7761 13 14.5 13H13C12.8558 13 12.7187 12.9378 12.6237 12.8293L10.0201 9.85374C9.54542 9.3112 8.8596 9 8.1387 9H2C1.72386 9 1.5 8.77614 1.5 8.5C1.5 8.22386 1.72386 8 2 8H8.1387C9.14796 8 10.1081 8.43568 10.7727 9.19523L13.2269 12H14V9.5C14 8.6188 13.8281 7.7777 13.5495 6.99758C13.5332 6.99918 13.5167 7 13.5 7H11.5C11.3674 7 11.2402 6.94732 11.1464 6.85355L9.14645 4.85355C9.00345 4.71055 8.96067 4.4955 9.03806 4.30866C9.11545 4.12182 9.29777 4 9.5 4H11.8129C10.8662 2.94486 9.38735 2.5 7.83333 2.5H2C1.72386 2.5 1.5 2.27614 1.5 2ZM12.5487 4.99766C12.7535 5.31351 12.9474 5.64843 13.1228 6H11.7071L10.7071 5H12.5C12.5164 5 12.5327 4.99921 12.5487 4.99766ZM2.5 12C2.5 11.4477 2.94772 11 3.5 11C4.05228 11 4.5 11.4477 4.5 12C4.5 12.5523 4.05228 13 3.5 13C2.94772 13 2.5 12.5523 2.5 12ZM5.23244 11C5.40261 11.2942 5.5 11.6357 5.5 12C5.5 13.1046 4.60457 14 3.5 14C2.39543 14 1.5 13.1046 1.5 12C1.5 10.8954 2.39543 10 3.5 10H8.5C9.60457 10 10.5 10.8954 10.5 12C10.5 13.1046 9.60457 14 8.5 14C7.39543 14 6.5 13.1046 6.5 12C6.5 11.6357 6.59739 11.2942 6.76756 11H5.23244ZM8.5 11C7.94772 11 7.5 11.4477 7.5 12C7.5 12.5523 7.94772 13 8.5 13C9.05228 13 9.5 12.5523 9.5 12C9.5 11.4477 9.05228 11 8.5 11ZM2 4C1.72386 4 1.5 4.22386 1.5 4.5C1.5 4.77614 1.72386 5 2 5H5.25736C5.9204 5 6.55628 5.26339 7.02513 5.73223L8.64645 7.35355C8.84171 7.54882 9.15829 7.54882 9.35355 7.35355C9.54882 7.15829 9.54882 6.84171 9.35355 6.64645L7.73223 5.02513C7.07585 4.36875 6.18562 4 5.25736 4H2Z" fill="#6E778C"/>
</svg>
