<svg width="16" height="16" viewBox="0 0 16 16" fill="none" xmlns="http://www.w3.org/2000/svg">
<g clip-path="url(#clip0_4126_120)">
<path fill-rule="evenodd" clip-rule="evenodd" d="M6.5 2C6.5 1.72386 6.72386 1.5 7 1.5H9C9.27614 1.5 9.5 1.72386 9.5 2V3.5H6.5V2ZM5.5 3.5H3H1C0.723858 3.5 0.5 3.72386 0.5 4C0.5 4.27614 0.723858 4.5 1 4.5H2.5V14C2.5 14.8284 3.17157 15.5 4 15.5H10C10.2761 15.5 10.5 15.2761 10.5 15C10.5 14.7239 10.2761 14.5 10 14.5H4C3.72386 14.5 3.5 14.2761 3.5 14V4.5H6H10H12.5V10C12.5 10.2761 12.7239 10.5 13 10.5C13.2761 10.5 13.5 10.2761 13.5 10V4.5H15C15.2761 4.5 15.5 4.27614 15.5 4C15.5 3.72386 15.2761 3.5 15 3.5H13H10.5V2C10.5 1.17157 9.82843 0.5 9 0.5H7C6.17157 0.5 5.5 1.17157 5.5 2V3.5ZM10.5 8C10.5 7.72386 10.2761 7.5 10 7.5C9.72386 7.5 9.5 7.72386 9.5 8V10C9.5 10.2761 9.72386 10.5 10 10.5C10.2761 10.5 10.5 10.2761 10.5 10V8ZM6 7.5C6.27614 7.5 6.5 7.72386 6.5 8V11C6.5 11.2761 6.27614 11.5 6 11.5C5.72386 11.5 5.5 11.2761 5.5 11V8C5.5 7.72386 5.72386 7.5 6 7.5ZM12.5 15L10 12H15L12.5 15Z" fill="currentColor"/>
</g>
<defs>
<clipPath id="clip0_4126_120">
<rect width="16" height="16" fill="white"/>
</clipPath>
</defs>
</svg>
