<svg width="16" height="16" viewBox="0 0 16 16" fill="none" xmlns="http://www.w3.org/2000/svg">
<g clip-path="url(#clip0_414_11893)">
<path fill-rule="evenodd" clip-rule="evenodd" d="M8.44721 0.776393C8.36252 0.607001 8.18939 0.5 8 0.5C7.81061 0.5 7.63748 0.607001 7.55279 0.776393L0.552787 14.7764C0.47529 14.9314 0.483572 15.1155 0.574675 15.2629C0.665778 15.4103 0.826712 15.5 1 15.5H15C15.1733 15.5 15.3342 15.4103 15.4253 15.2629C15.5164 15.1155 15.5247 14.9314 15.4472 14.7764L8.44721 0.776393ZM8 5C8.27614 5 8.5 5.22386 8.5 5.5C8.5 5.77614 8.27614 6 8 6C7.72386 6 7.5 5.77614 7.5 5.5C7.5 5.22386 7.72386 5 8 5ZM8.5 12.5C8.5 12.7761 8.27614 13 8 13C7.72386 13 7.5 12.7761 7.5 12.5V7.5C7.5 7.22386 7.72386 7 8 7C8.27614 7 8.5 7.22386 8.5 7.5V12.5Z" fill="currentColor"/>
</g>
<defs>
<clipPath id="clip0_414_11893">
<rect width="16" height="16" fill="white"/>
</clipPath>
</defs>
</svg>
