<svg width="16" height="16" viewBox="0 0 16 16" fill="none" xmlns="http://www.w3.org/2000/svg">
<path fill-rule="evenodd" clip-rule="evenodd" d="M8.11539 2C8.11539 1.72386 8.33924 1.5 8.61539 1.5H10C10.2761 1.5 10.5 1.72386 10.5 2C10.5 2.27614 10.2761 2.5 10 2.5H9.11539V3.55556V9C9.11539 9.14145 9.05547 9.27628 8.9505 9.37108C8.84552 9.46588 8.7053 9.51178 8.56458 9.49741L0.949198 8.71964C0.694054 8.69358 0.5 8.47869 0.5 8.22222V4.33333C0.5 4.07686 0.694054 3.86198 0.949198 3.83592L8.11539 3.10402V2ZM8.11539 4.10922L1.5 4.78487V7.77069L8.11539 8.44633V4.10922ZM10.5 4C10.5 3.72386 10.7239 3.5 11 3.5H13C13.1519 3.5 13.2955 3.56904 13.3904 3.68765L15.3904 6.18765C15.4614 6.27631 15.5 6.38646 15.5 6.5V9C15.5 9.27614 15.2761 9.5 15 9.5H13H11C10.7239 9.5 10.5 9.27614 10.5 9V4ZM13 9.5C13.8284 9.5 14.5 10.1716 14.5 11C14.5 11.8284 13.8284 12.5 13 12.5C12.1716 12.5 11.5 11.8284 11.5 11C11.5 10.1716 12.1716 9.5 13 9.5ZM11.5 4.5V8.5H14.5V6.67539L12.7597 4.5H11.5ZM1.5 11C1.5 10.7239 1.72386 10.5 2 10.5C2.27614 10.5 2.5 10.7239 2.5 11C2.5 11.2761 2.27614 11.5 2 11.5C1.72386 11.5 1.5 11.2761 1.5 11ZM2 9.5C1.17157 9.5 0.5 10.1716 0.5 11C0.5 11.8284 1.17157 12.5 2 12.5C2.82843 12.5 3.5 11.8284 3.5 11C3.5 11.8284 4.17157 12.5 5 12.5C5.82843 12.5 6.5 11.8284 6.5 11C6.5 10.1716 5.82843 9.5 5 9.5C4.17157 9.5 3.5 10.1716 3.5 11C3.5 10.1716 2.82843 9.5 2 9.5ZM5 10.5C4.72386 10.5 4.5 10.7239 4.5 11C4.5 11.2761 4.72386 11.5 5 11.5C5.27614 11.5 5.5 11.2761 5.5 11C5.5 10.7239 5.27614 10.5 5 10.5ZM12.5 11C12.5 10.7239 12.7239 10.5 13 10.5C13.2761 10.5 13.5 10.7239 13.5 11C13.5 11.2761 13.2761 11.5 13 11.5C12.7239 11.5 12.5 11.2761 12.5 11Z" fill="#6E778C"/>
</svg>
