<svg width="16" height="16" viewBox="0 0 16 16" fill="none" xmlns="http://www.w3.org/2000/svg">
<path fill-rule="evenodd" clip-rule="evenodd" d="M0.5 4.33332C0.5 3.3208 1.32081 2.49999 2.33333 2.49999H7.66667C8.67919 2.49999 9.5 3.3208 9.5 4.33332V7.66666C9.5 7.96673 9.42791 8.24997 9.3001 8.49999H11.0714V3.99999C11.0714 3.72385 11.2953 3.49999 11.5714 3.49999H13.5455C13.6899 3.49999 13.8272 3.56242 13.9222 3.67122L15.3767 5.33789C15.4562 5.42897 15.5 5.54577 15.5 5.66666V8.99999C15.5 9.27613 15.2761 9.49999 15 9.49999H13H11.5714H7.66667H7H5H2.33333C1.32081 9.49999 0.5 8.67918 0.5 7.66666V4.33332ZM3.5 11C3.5 10.1716 4.17157 9.49999 5 9.49999C5.82843 9.49999 6.5 10.1716 6.5 11C6.5 11.8284 5.82843 12.5 5 12.5C4.17157 12.5 3.5 11.8284 3.5 11ZM3.5 11C3.5 11.8284 2.82843 12.5 2 12.5C1.17157 12.5 0.5 11.8284 0.5 11C0.5 10.1716 1.17157 9.49999 2 9.49999C2.82843 9.49999 3.5 10.1716 3.5 11ZM7 8.49999H7.66667C8.1269 8.49999 8.5 8.12689 8.5 7.66666V4.33332C8.5 3.87309 8.1269 3.49999 7.66667 3.49999H2.33333C1.8731 3.49999 1.5 3.87309 1.5 4.33332V7.66666C1.5 8.12689 1.8731 8.49999 2.33333 8.49999H7ZM13 9.49999C13.8284 9.49999 14.5 10.1716 14.5 11C14.5 11.8284 13.8284 12.5 13 12.5C12.1716 12.5 11.5 11.8284 11.5 11C11.5 10.1716 12.1716 9.49999 13 9.49999ZM2 10.5C1.72386 10.5 1.5 10.7238 1.5 11C1.5 11.2761 1.72386 11.5 2 11.5C2.27614 11.5 2.5 11.2761 2.5 11C2.5 10.7238 2.27614 10.5 2 10.5ZM5 10.5C4.72386 10.5 4.5 10.7238 4.5 11C4.5 11.2761 4.72386 11.5 5 11.5C5.27614 11.5 5.5 11.2761 5.5 11C5.5 10.7238 5.27614 10.5 5 10.5ZM12.5 11C12.5 10.7238 12.7239 10.5 13 10.5C13.2761 10.5 13.5 10.7238 13.5 11C13.5 11.2761 13.2761 11.5 13 11.5C12.7239 11.5 12.5 11.2761 12.5 11ZM14.5 8.49999H12.0714V4.49999H13.3182L14.5 5.85416V8.49999Z" fill="#6E778C"/>
</svg>
