<svg width="16" height="16" viewBox="0 0 16 16" fill="none" xmlns="http://www.w3.org/2000/svg">
<path fill-rule="evenodd" clip-rule="evenodd" d="M8 1.5C6.61929 1.5 5.5 2.61929 5.5 4C5.5 5.38071 6.61929 6.5 8 6.5C9.38071 6.5 10.5 5.38071 10.5 4C10.5 2.61929 9.38071 1.5 8 1.5ZM4.5 4C4.5 2.067 6.067 0.5 8 0.5C9.933 0.5 11.5 2.067 11.5 4C11.5 5.933 9.933 7.5 8 7.5C6.067 7.5 4.5 5.933 4.5 4ZM10 13L12.5 16L15 13H10ZM2.5 15C2.5 11.9624 4.96243 9.5 8 9.5C9.12523 9.5 10.1701 9.83737 11.041 10.4164C11.2709 10.5693 11.5813 10.5068 11.7342 10.2768C11.8871 10.0469 11.8246 9.73653 11.5946 9.58363C10.5648 8.89894 9.32825 8.5 8 8.5C4.41015 8.5 1.5 11.4101 1.5 15C1.5 15.2761 1.72386 15.5 2 15.5C2.27614 15.5 2.5 15.2761 2.5 15Z" fill="currentColor"/>
</svg>
