<svg width="16" height="16" viewBox="0 0 16 16" fill="none" xmlns="http://www.w3.org/2000/svg">
<path fill-rule="evenodd" clip-rule="evenodd" d="M0.5 4C0.5 3.17157 1.17157 2.5 2 2.5H14C14.8284 2.5 15.5 3.17157 15.5 4V12C15.5 12.8284 14.8284 13.5 14 13.5H8.9719H8.95588H2.04404H2.02801H2C1.17157 13.5 0.5 12.8284 0.5 12V4ZM8.32939 12.5C7.91763 11.3349 6.80597 10.5 5.49996 10.5C4.19394 10.5 3.08228 11.3349 2.67053 12.5H8.32939ZM9.37382 12.5C8.9296 10.7747 7.364 9.5 5.49996 9.5C3.68351 9.5 2.15046 10.7104 1.6623 12.3687C1.56255 12.2773 1.5 12.146 1.5 12V4C1.5 3.72386 1.72386 3.5 2 3.5H14C14.2761 3.5 14.5 3.72386 14.5 4V12C14.5 12.2761 14.2761 12.5 14 12.5H9.37382ZM5.5 5.5C4.94772 5.5 4.5 5.94772 4.5 6.5C4.5 7.05228 4.94772 7.5 5.5 7.5C6.05228 7.5 6.5 7.05228 6.5 6.5C6.5 5.94772 6.05228 5.5 5.5 5.5ZM3.5 6.5C3.5 5.39543 4.39543 4.5 5.5 4.5C6.60457 4.5 7.5 5.39543 7.5 6.5C7.5 7.60457 6.60457 8.5 5.5 8.5C4.39543 8.5 3.5 7.60457 3.5 6.5ZM9.5 6C9.5 5.72386 9.72386 5.5 10 5.5L13 5.5C13.2761 5.5 13.5 5.72386 13.5 6C13.5 6.27614 13.2761 6.5 13 6.5L10 6.5C9.72386 6.5 9.5 6.27614 9.5 6ZM11 8.5C10.7239 8.5 10.5 8.72386 10.5 9C10.5 9.27614 10.7239 9.5 11 9.5H13C13.2761 9.5 13.5 9.27614 13.5 9C13.5 8.72386 13.2761 8.5 13 8.5H11Z" fill="#6E778C"/>
</svg>
