<svg width="16" height="16" viewBox="0 0 16 16" fill="none" xmlns="http://www.w3.org/2000/svg">
<g clip-path="url(#clip0_430_10599)">
<path fill-rule="evenodd" clip-rule="evenodd" d="M13.7481 0.565878C13.5944 0.478041 13.4056 0.478041 13.2519 0.565878L11.7519 1.42302C11.5961 1.51204 11.5 1.67771 11.5 1.85714C11.5 2.98714 11.9245 3.87121 12.3404 4.4653C12.5485 4.76261 12.7569 4.99101 12.9149 5.14655C12.9941 5.2245 13.0612 5.28469 13.1102 5.32661C13.1346 5.34759 13.1546 5.36404 13.1693 5.3759L13.1873 5.39026L13.1932 5.39485L13.1954 5.3965L13.1963 5.39716L13.1966 5.39745C13.1968 5.39759 13.197 5.39772 13.5 5L13.197 5.39772C13.376 5.53409 13.624 5.53409 13.803 5.39772L13.5 5C13.803 5.39772 13.8032 5.39759 13.8034 5.39745L13.8037 5.39716L13.8046 5.3965L13.8068 5.39485L13.8127 5.39026L13.8307 5.3759C13.8454 5.36404 13.8654 5.34759 13.8898 5.32661C13.9388 5.28469 14.0059 5.2245 14.0851 5.14655C14.2431 4.99101 14.4515 4.76261 14.6596 4.4653C15.0755 3.87121 15.5 2.98714 15.5 1.85714C15.5 1.67771 15.4039 1.51204 15.2481 1.42302L13.7481 0.565878ZM13.1596 3.89184C13.2784 4.06152 13.397 4.20279 13.5 4.31385C13.603 4.20279 13.7216 4.06152 13.8404 3.89184C14.1374 3.4676 14.4275 2.87747 14.4884 2.14065L13.5 1.57588L12.5116 2.14065C12.5725 2.87747 12.8626 3.4676 13.1596 3.89184ZM7 1.5C5.61929 1.5 4.5 2.61929 4.5 4C4.5 5.38071 5.61929 6.5 7 6.5C8.38071 6.5 9.5 5.38071 9.5 4C9.5 2.61929 8.38071 1.5 7 1.5ZM3.5 4C3.5 2.067 5.067 0.5 7 0.5C8.933 0.5 10.5 2.067 10.5 4C10.5 5.933 8.933 7.5 7 7.5C5.067 7.5 3.5 5.933 3.5 4ZM7 9.5C3.96243 9.5 1.5 11.9624 1.5 15C1.5 15.2761 1.27614 15.5 1 15.5C0.723858 15.5 0.5 15.2761 0.5 15C0.5 11.4101 3.41015 8.5 7 8.5C10.5899 8.5 13.5 11.4101 13.5 15C13.5 15.2761 13.2761 15.5 13 15.5C12.7239 15.5 12.5 15.2761 12.5 15C12.5 11.9624 10.0376 9.5 7 9.5Z" fill="currentColor"/>
</g>
<defs>
<clipPath id="clip0_430_10599">
<rect width="16" height="16" fill="white"/>
</clipPath>
</defs>
</svg>
