<svg width="16" height="16" viewBox="0 0 16 16" fill="none" xmlns="http://www.w3.org/2000/svg">
<g clip-path="url(#clip0_6069_9859)">
<path fill-rule="evenodd" clip-rule="evenodd" d="M4.5 3.99998C4.5 2.61927 5.61929 1.49998 7 1.49998C8.38071 1.49998 9.5 2.61927 9.5 3.99998C9.5 5.38069 8.38071 6.49998 7 6.49998C5.61929 6.49998 4.5 5.38069 4.5 3.99998ZM7 0.499977C5.067 0.499977 3.5 2.06698 3.5 3.99998C3.5 5.93297 5.067 7.49998 7 7.49998C8.933 7.49998 10.5 5.93297 10.5 3.99998C10.5 2.06698 8.933 0.499977 7 0.499977ZM14.3536 2.35353C14.5488 2.15827 14.5488 1.84169 14.3536 1.64642C14.1583 1.45116 13.8417 1.45116 13.6464 1.64642L12.6464 2.64642C12.4512 2.84169 12.4512 3.15827 12.6464 3.35353C12.8417 3.54879 13.1583 3.54879 13.3536 3.35353L14.3536 2.35353ZM7 9.49998C3.96243 9.49998 1.5 11.9624 1.5 15C1.5 15.2761 1.27614 15.5 1 15.5C0.723858 15.5 0.5 15.2761 0.5 15C0.5 11.4101 3.41015 8.49998 7 8.49998C10.5899 8.49998 13.5 11.4101 13.5 15C13.5 15.2761 13.2761 15.5 13 15.5C12.7239 15.5 12.5 15.2761 12.5 15C12.5 11.9624 10.0376 9.49998 7 9.49998ZM15 1.49998C15.2761 1.49998 15.5 1.27612 15.5 0.999981C15.5 0.723838 15.2761 0.499981 15 0.499981C14.7239 0.499981 14.5 0.723838 14.5 0.999981C14.5 1.27612 14.7239 1.49998 15 1.49998Z" fill="#6E778C"/>
</g>
<defs>
<clipPath id="clip0_6069_9859">
<rect width="16" height="16" fill="white"/>
</clipPath>
</defs>
</svg>
