<svg width="16" height="16" viewBox="0 0 16 16" fill="none" xmlns="http://www.w3.org/2000/svg">
<g clip-path="url(#clip0_430_10604)">
<path fill-rule="evenodd" clip-rule="evenodd" d="M7 1.5C5.61929 1.5 4.5 2.61929 4.5 4C4.5 5.38071 5.61929 6.5 7 6.5C8.38071 6.5 9.5 5.38071 9.5 4C9.5 2.61929 8.38071 1.5 7 1.5ZM3.5 4C3.5 2.067 5.067 0.5 7 0.5C8.933 0.5 10.5 2.067 10.5 4C10.5 5.933 8.933 7.5 7 7.5C5.067 7.5 3.5 5.933 3.5 4ZM14 2.5C14 2.22386 13.7761 2 13.5 2C13.2239 2 13 2.22386 13 2.5V3.5H12C11.7239 3.5 11.5 3.72386 11.5 4C11.5 4.27614 11.7239 4.5 12 4.5H13V5.5C13 5.77614 13.2239 6 13.5 6C13.7761 6 14 5.77614 14 5.5V4.5H15C15.2761 4.5 15.5 4.27614 15.5 4C15.5 3.72386 15.2761 3.5 15 3.5H14V2.5ZM1.5 15C1.5 11.9624 3.96243 9.5 7 9.5C10.0376 9.5 12.5 11.9624 12.5 15C12.5 15.2761 12.7239 15.5 13 15.5C13.2761 15.5 13.5 15.2761 13.5 15C13.5 11.4101 10.5899 8.5 7 8.5C3.41015 8.5 0.5 11.4101 0.5 15C0.5 15.2761 0.723858 15.5 1 15.5C1.27614 15.5 1.5 15.2761 1.5 15Z" fill="#6E778C"/>
</g>
<defs>
<clipPath id="clip0_430_10604">
<rect width="16" height="16" fill="white"/>
</clipPath>
</defs>
</svg>
