<svg width="16" height="16" viewBox="0 0 16 16" fill="none" xmlns="http://www.w3.org/2000/svg">
<g clip-path="url(#clip0_389_13078)">
<path fill-rule="evenodd" clip-rule="evenodd" d="M6 2C6 1.17157 6.67157 0.5 7.5 0.5H8.5C9.32843 0.5 10 1.17157 10 2V3C10 3.39318 9.84872 3.75103 9.6012 4.01852L14.2953 11.5291C14.9823 11.6662 15.5 12.2726 15.5 13V14C15.5 14.8284 14.8284 15.5 14 15.5H13C12.3469 15.5 11.7913 15.0826 11.5854 14.5H4.41465C4.20873 15.0826 3.65311 15.5 3 15.5H2C1.17157 15.5 0.5 14.8284 0.5 14V13C0.5 12.2726 1.0177 11.6662 1.70472 11.5291L6.3988 4.01852C6.15128 3.75103 6 3.39318 6 3V2ZM4.5 13.5H11.5V13C11.5 12.1716 12.1716 11.5 13 11.5H13.0979L8.71346 4.48493C8.64373 4.49486 8.57247 4.5 8.5 4.5H7.5C7.42753 4.5 7.35627 4.49486 7.28654 4.48493L2.90212 11.5H3C3.82843 11.5 4.5 12.1716 4.5 13V13.5ZM3.5 14V13C3.5 12.7239 3.27614 12.5 3 12.5H2.0077L1.99395 12.5C1.7206 12.5033 1.5 12.7259 1.5 13V14C1.5 14.2761 1.72386 14.5 2 14.5H3C3.27614 14.5 3.5 14.2761 3.5 14ZM12.5 14C12.5 14.2761 12.7239 14.5 13 14.5H14C14.2761 14.5 14.5 14.2761 14.5 14V13C14.5 12.7259 14.2794 12.5033 14.006 12.5L13.9923 12.5H13C12.7239 12.5 12.5 12.7239 12.5 13V14ZM7.5 1.5C7.22386 1.5 7 1.72386 7 2V3C7 3.27614 7.22386 3.5 7.5 3.5H8.5C8.77614 3.5 9 3.27614 9 3V2C9 1.72386 8.77614 1.5 8.5 1.5H7.5Z" fill="currentColor"/>
</g>
<defs>
<clipPath id="clip0_389_13078">
<rect width="16" height="16" fill="white"/>
</clipPath>
</defs>
</svg>
