<svg width="16" height="16" viewBox="0 0 16 16" fill="none" xmlns="http://www.w3.org/2000/svg">
<path fill-rule="evenodd" clip-rule="evenodd" d="M2 2.5C1.17157 2.5 0.5 3.17157 0.5 4V12C0.5 12.8284 1.17157 13.5 2 13.5H11C11.8284 13.5 12.5 12.8284 12.5 12V9.20711L14.6464 11.3536C14.7894 11.4966 15.0045 11.5393 15.1913 11.4619C15.3782 11.3845 15.5 11.2022 15.5 11V5C15.5 4.79777 15.3782 4.61545 15.1913 4.53806C15.0045 4.46067 14.7894 4.50345 14.6464 4.64645L12.5 6.79289V4C12.5 3.17157 11.8284 2.5 11 2.5H2ZM11.5 8V4C11.5 3.72386 11.2761 3.5 11 3.5H2C1.72386 3.5 1.5 3.72386 1.5 4V12C1.5 12.2761 1.72386 12.5 2 12.5H11C11.2761 12.5 11.5 12.2761 11.5 12V8ZM14.5 9.79289L12.7071 8L14.5 6.20711V9.79289ZM8.35355 5.64645C8.54882 5.84171 8.54882 6.15829 8.35355 6.35355L6.70711 8L8.35355 9.64645C8.54882 9.84171 8.54882 10.1583 8.35355 10.3536C8.15829 10.5488 7.84171 10.5488 7.64645 10.3536L6 8.70711L4.35355 10.3536C4.15829 10.5488 3.84171 10.5488 3.64645 10.3536C3.45118 10.1583 3.45118 9.84171 3.64645 9.64645L5.29289 8L3.64645 6.35355C3.45118 6.15829 3.45118 5.84171 3.64645 5.64645C3.84171 5.45118 4.15829 5.45118 4.35355 5.64645L6 7.29289L7.64645 5.64645C7.84171 5.45118 8.15829 5.45118 8.35355 5.64645Z" fill="#6E778C"/>
</svg>
