<svg width="16" height="16" viewBox="0 0 16 16" fill="none" xmlns="http://www.w3.org/2000/svg">
<g clip-path="url(#clip0_430_11238)">
<path fill-rule="evenodd" clip-rule="evenodd" d="M9 0.5C7.067 0.5 5.5 2.067 5.5 4L5.5 5.5L1 5.5C0.723858 5.5 0.5 5.72386 0.5 6C0.5 6.27614 0.723858 6.5 1 6.5L5.5 6.5L5.5 14.5H3C2.72386 14.5 2.5 14.7239 2.5 15C2.5 15.2761 2.72386 15.5 3 15.5H6L12 15.5H15C15.2761 15.5 15.5 15.2761 15.5 15C15.5 14.7239 15.2761 14.5 15 14.5H12.5V9.5H14C14.8284 9.5 15.5 8.82843 15.5 8L15.5 6C15.5 5.17157 14.8284 4.5 14 4.5H12.5V4C12.5 2.067 10.933 0.5 9 0.5ZM14 8.5H12.5L12.5 5.5H14C14.2761 5.5 14.5 5.72386 14.5 6L14.5 8C14.5 8.27614 14.2761 8.5 14 8.5ZM11.5 4V5L11.5 9V14.5L6.5 14.5L6.5 6L6.5 4C6.5 2.61929 7.61929 1.5 9 1.5C10.3807 1.5 11.5 2.61929 11.5 4ZM2 10C2.55228 10 3 9.55229 3 9C3 8 2 7 2 7C2 7 1 8 1 9C1 9.55229 1.44772 10 2 10Z" fill="currentColor"/>
</g>
<defs>
<clipPath id="clip0_430_11238">
<rect width="16" height="16" fill="white"/>
</clipPath>
</defs>
</svg>
