<svg width="16" height="16" viewBox="0 0 16 16" fill="none" xmlns="http://www.w3.org/2000/svg">
<path fill-rule="evenodd" clip-rule="evenodd" d="M8.00004 1.5C5.54911 1.5 3.26435 2.20488 1.33563 3.42277C1.10214 3.57021 0.793335 3.50045 0.645899 3.26696C0.498463 3.03347 0.568222 2.72467 0.801711 2.57723C2.88553 1.26141 5.35463 0.5 8.00004 0.5C10.6455 0.5 13.1146 1.26141 15.1984 2.57723C15.4319 2.72467 15.5016 3.03347 15.3542 3.26696C15.2067 3.50045 14.8979 3.57021 14.6645 3.42277C12.7357 2.20488 10.451 1.5 8.00004 1.5ZM3.78166 7.79784C4.98339 6.97879 6.43506 6.5 8.00006 6.5C9.56507 6.5 11.0167 6.97879 12.2185 7.79784C12.4467 7.95336 12.7577 7.89446 12.9132 7.66628C13.0687 7.43809 13.0098 7.12704 12.7817 6.97152C11.4192 6.0429 9.77227 5.5 8.00006 5.5C6.22786 5.5 4.58095 6.0429 3.21847 6.97152C2.99029 7.12704 2.93138 7.43809 3.0869 7.66628C3.24242 7.89446 3.55348 7.95336 3.78166 7.79784ZM8.00006 15C8.55235 15 9.00006 14.5523 9.00006 14C9.00006 13.4477 8.55235 13 8.00006 13C7.44778 13 7.00006 13.4477 7.00006 14C7.00006 14.5523 7.44778 15 8.00006 15ZM5.68518 11.3749C6.30247 10.83 7.11215 10.5 8.00014 10.5C8.88812 10.5 9.6978 10.83 10.3151 11.3749C10.5221 11.5576 10.8381 11.5379 11.0208 11.3309C11.2036 11.1238 11.1839 10.8079 10.9768 10.6251C10.1839 9.92524 9.14105 9.5 8.00014 9.5C6.85923 9.5 5.81642 9.92524 5.02345 10.6251C4.81641 10.8079 4.79671 11.1238 4.97944 11.3309C5.16218 11.5379 5.47814 11.5576 5.68518 11.3749Z" fill="currentColor"/>
</svg>
