<svg width="16" height="16" viewBox="0 0 16 16" fill="none" xmlns="http://www.w3.org/2000/svg">
<path fill-rule="evenodd" clip-rule="evenodd" d="M7.99998 1.5C7.00643 1.5 6.04058 1.61582 5.11494 1.83447C4.8462 1.89795 4.57687 1.73155 4.51339 1.4628C4.44991 1.19406 4.61631 0.924731 4.88506 0.861249C5.88548 0.624934 6.92846 0.5 7.99998 0.5C10.6454 0.5 13.1145 1.26141 15.1983 2.57723C15.4318 2.72467 15.5016 3.03347 15.3541 3.26696C15.2067 3.50045 14.8979 3.57021 14.6644 3.42277C12.7357 2.20488 10.4509 1.5 7.99998 1.5ZM9 14C9 14.5523 8.55228 15 8 15C7.44772 15 7 14.5523 7 14C7 13.4477 7.44772 13 8 13C8.55228 13 9 13.4477 9 14ZM5.68511 11.3749C6.30241 10.83 7.11209 10.5 8.00007 10.5C8.27621 10.5 8.50007 10.2761 8.50007 10C8.50007 9.72386 8.27621 9.5 8.00007 9.5C6.85916 9.5 5.81635 9.92524 5.02338 10.6251C4.81635 10.8079 4.79665 11.1238 4.97938 11.3309C5.16211 11.5379 5.47808 11.5576 5.68511 11.3749ZM1.64645 1.64645C1.84171 1.45118 2.15829 1.45118 2.35355 1.64645L14.3536 13.6464C14.5488 13.8417 14.5488 14.1583 14.3536 14.3536C14.1583 14.5488 13.8417 14.5488 13.6464 14.3536L1.64645 2.35355C1.45118 2.15829 1.45118 1.84171 1.64645 1.64645ZM8 5.5C7.72386 5.5 7.5 5.72386 7.5 6C7.5 6.27614 7.72386 6.5 8 6.5C9.56501 6.5 11.0167 6.97879 12.2184 7.79784C12.4466 7.95336 12.7576 7.89446 12.9132 7.66628C13.0687 7.43809 13.0098 7.12704 12.7816 6.97152C11.4191 6.0429 9.7722 5.5 8 5.5ZM4.36659 7.4372C4.60805 7.30322 4.69518 6.99886 4.56119 6.7574C4.42721 6.51594 4.12285 6.42881 3.88139 6.5628C3.65376 6.68911 3.43256 6.82556 3.2184 6.97152C2.99022 7.12704 2.93132 7.43809 3.08684 7.66628C3.24236 7.89446 3.55341 7.95336 3.7816 7.79784C3.97061 7.66902 4.16579 7.54863 4.36659 7.4372Z" fill="currentColor"/>
</svg>
