<svg width="16" height="16" viewBox="0 0 16 16" fill="none" xmlns="http://www.w3.org/2000/svg">
<g clip-path="url(#clip0_397_11480)">
<path fill-rule="evenodd" clip-rule="evenodd" d="M0.5 2C0.5 1.17157 1.17157 0.5 2 0.5H14C14.8284 0.5 15.5 1.17157 15.5 2V5V14C15.5 14.8284 14.8284 15.5 14 15.5H8H2C1.17157 15.5 0.5 14.8284 0.5 14V5V2ZM8.5 14.5H14C14.2761 14.5 14.5 14.2761 14.5 14V5.5H8.5V14.5ZM7.5 5.5V14.5H2C1.72386 14.5 1.5 14.2761 1.5 14V5.5H7.5ZM8 4.5H14.5V2C14.5 1.72386 14.2761 1.5 14 1.5H2C1.72386 1.5 1.5 1.72386 1.5 2V4.5H8Z" fill="currentColor"/>
</g>
<defs>
<clipPath id="clip0_397_11480">
<rect width="16" height="16" fill="white"/>
</clipPath>
</defs>
</svg>
