<svg width="16" height="16" viewBox="0 0 16 16" fill="none" xmlns="http://www.w3.org/2000/svg">
<path d="M7.52149 9.52149L7.87504 9.16794C7.72248 9.01538 7.48927 8.97788 7.29658 9.07493L7.52149 9.52149ZM1.39769 3.64769L1.75125 3.29414C1.63517 3.17806 1.46951 3.12636 1.30801 3.1558C1.14651 3.18525 1.00976 3.29209 0.942115 3.44166L1.39769 3.64769ZM4.375 6.625L4.72855 6.27145H4.72855L4.375 6.625ZM6.625 4.375L6.97855 4.02145L6.625 4.375ZM3.64769 1.39769L3.44166 0.942115C3.29209 1.00976 3.18525 1.14651 3.1558 1.30801C3.12636 1.46951 3.17806 1.63517 3.29414 1.75125L3.64769 1.39769ZM9.52149 7.52149L9.07493 7.29658C8.97788 7.48927 9.01538 7.72248 9.16794 7.87504L9.52149 7.52149ZM5.5 10.5C6.30685 10.5 7.07042 10.3085 7.7464 9.96805L7.29658 9.07493C6.75695 9.34672 6.1471 9.5 5.5 9.5V10.5ZM0.5 5.5C0.5 8.26142 2.73858 10.5 5.5 10.5V9.5C3.29086 9.5 1.5 7.70914 1.5 5.5H0.5ZM0.942115 3.44166C0.657941 4.07003 0.5 4.76725 0.5 5.5H1.5C1.5 4.91214 1.62649 4.35518 1.85327 3.85372L0.942115 3.44166ZM4.72855 6.27145L1.75125 3.29414L1.04414 4.00125L4.02145 6.97855L4.72855 6.27145ZM6.27145 6.27145C5.84539 6.6975 5.15461 6.6975 4.72855 6.27145L4.02145 6.97855C4.83803 7.79514 6.16197 7.79514 6.97855 6.97855L6.27145 6.27145ZM6.27145 4.72855C6.69751 5.15461 6.69751 5.84539 6.27145 6.27145L6.97855 6.97855C7.79514 6.16197 7.79514 4.83803 6.97855 4.02145L6.27145 4.72855ZM3.29414 1.75125L6.27145 4.72855L6.97855 4.02145L4.00125 1.04414L3.29414 1.75125ZM5.5 0.5C4.76725 0.5 4.07003 0.657941 3.44166 0.942115L3.85372 1.85327C4.35518 1.62649 4.91214 1.5 5.5 1.5V0.5ZM10.5 5.5C10.5 2.73858 8.26142 0.5 5.5 0.5V1.5C7.70914 1.5 9.5 3.29086 9.5 5.5H10.5ZM9.96805 7.7464C10.3085 7.07042 10.5 6.30685 10.5 5.5H9.5C9.5 6.1471 9.34672 6.75695 9.07493 7.29658L9.96805 7.7464ZM9.16794 7.87504L13.6464 12.3536L14.3536 11.6464L9.87504 7.16794L9.16794 7.87504ZM13.6464 12.3536C14.0035 12.7106 14.0035 13.2894 13.6464 13.6464L14.3536 14.3536C15.1011 13.606 15.1011 12.394 14.3536 11.6464L13.6464 12.3536ZM13.6464 13.6464C13.2894 14.0035 12.7106 14.0035 12.3536 13.6464L11.6464 14.3536C12.394 15.1011 13.606 15.1011 14.3536 14.3536L13.6464 13.6464ZM12.3536 13.6464L7.87504 9.16794L7.16794 9.87504L11.6464 14.3536L12.3536 13.6464Z" fill="currentColor"/>
</svg>
