<svg width="16" height="16" viewBox="0 0 16 16" fill="none" xmlns="http://www.w3.org/2000/svg">
<path fill-rule="evenodd" clip-rule="evenodd" d="M12.8527 3.85356C13.048 3.6583 13.048 3.34172 12.8527 3.14645C12.6575 2.95119 12.3409 2.95118 12.1456 3.14644L7.99946 7.29247L3.8533 3.14644C3.65804 2.95118 3.34146 2.95119 3.1462 3.14645C2.95094 3.34172 2.95094 3.6583 3.14621 3.85356L7.29234 7.99956L3.14621 12.1456C2.95094 12.3408 2.95094 12.6574 3.1462 12.8527C3.34146 13.0479 3.65804 13.0479 3.8533 12.8527L7.99946 8.70666L12.1456 12.8527C12.3409 13.0479 12.6575 13.0479 12.8527 12.8527C13.048 12.6574 13.048 12.3408 12.8527 12.1456L8.70658 7.99956L12.8527 3.85356Z" fill="#6E778C"/>
</svg>
