<svg width="16" height="16" viewBox="0 0 16 16" fill="none" xmlns="http://www.w3.org/2000/svg">
<path fill-rule="evenodd" clip-rule="evenodd" d="M10.3536 1.35355L8.70711 3L13 7.29289L14.6464 5.64645C14.8417 5.45118 15.1583 5.45118 15.3536 5.64645C15.5488 5.84171 15.5488 6.15829 15.3536 6.35355L13.7071 8L15.3536 9.64645C15.5488 9.84171 15.5488 10.1583 15.3536 10.3536C15.1583 10.5488 14.8417 10.5488 14.6464 10.3536L13 8.70711L8.70711 13L10.3536 14.6464C10.5488 14.8417 10.5488 15.1583 10.3536 15.3536C10.1583 15.5488 9.84171 15.5488 9.64645 15.3536L8 13.7071L6.35355 15.3536C6.15829 15.5488 5.84171 15.5488 5.64645 15.3536C5.45118 15.1583 5.45118 14.8417 5.64645 14.6464L7.29289 13L3 8.70711L1.35355 10.3536C1.15829 10.5488 0.841709 10.5488 0.646447 10.3536C0.451184 10.1583 0.451184 9.84171 0.646447 9.64645L2.29289 8L0.646447 6.35355C0.451184 6.15829 0.451184 5.84171 0.646447 5.64645C0.841709 5.45118 1.15829 5.45118 1.35355 5.64645L3 7.29289L7.29289 3L5.64645 1.35355C5.45118 1.15829 5.45118 0.841709 5.64645 0.646447C5.84171 0.451184 6.15829 0.451184 6.35355 0.646447L8 2.29289L9.64645 0.646447C9.84171 0.451184 10.1583 0.451184 10.3536 0.646447C10.5488 0.841709 10.5488 1.15829 10.3536 1.35355ZM8 12.2929L12.2929 8L8 3.70711L3.70711 8L8 12.2929Z" fill="#777B92"/>
</svg>
