<svg width="16" height="16" viewBox="0 0 16 16" fill="none" xmlns="http://www.w3.org/2000/svg">
<path fill-rule="evenodd" clip-rule="evenodd" d="M9.5 2C9.5 2.65311 9.0826 3.20873 8.5 3.41465V5.55001C9.48543 5.75004 10.2604 6.52969 10.4535 7.51762C11.4195 7.59438 12.1788 7.91735 12.7647 8.3931C13.432 8.93497 13.8396 9.64647 14.0892 10.3281C14.3387 11.0096 14.4384 11.6829 14.477 12.18C14.4887 12.3313 14.4949 12.4677 14.4978 12.5846C15.0816 12.7899 15.5 13.3461 15.5 14C15.5 14.8284 14.8284 15.5 14 15.5C13.1716 15.5 12.5 14.8284 12.5 14C12.5 13.3478 12.9162 12.7929 13.4975 12.5862C13.4948 12.4905 13.4895 12.3798 13.48 12.2575C13.4458 11.8171 13.3583 11.2404 13.1501 10.6719C12.942 10.1035 12.6215 9.56503 12.1343 9.1694C11.731 8.84193 11.189 8.5921 10.4457 8.52069C10.2403 9.49042 9.47266 10.2526 8.5 10.45V12.5854C9.0826 12.7913 9.5 13.3469 9.5 14C9.5 14.8284 8.82843 15.5 8 15.5C7.17157 15.5 6.5 14.8284 6.5 14C6.5 13.3469 6.9174 12.7913 7.5 12.5854V10.45C6.52734 10.2526 5.75974 9.49042 5.5543 8.52069C4.811 8.5921 4.26896 8.84193 3.86569 9.1694C3.40659 9.54219 3.09555 10.0418 2.88707 10.5738C2.87429 10.6064 2.8619 10.6391 2.84988 10.6719C2.64173 11.2404 2.55422 11.8171 2.52002 12.2575C2.51051 12.3798 2.50521 12.4905 2.50249 12.5862C2.52255 12.5934 2.54241 12.6009 2.56206 12.6089C3.11201 12.8313 3.5 13.3703 3.5 14C3.5 14.8284 2.82843 15.5 2 15.5C1.17157 15.5 0.5 14.8284 0.5 14C0.5 13.3461 0.918446 12.7899 1.50218 12.5846C1.50508 12.4677 1.51127 12.3313 1.52302 12.18C1.56163 11.6829 1.66134 11.0096 1.91084 10.3281C2.1604 9.64647 2.56801 8.93497 3.23532 8.3931C3.82121 7.91735 4.58053 7.59438 5.5465 7.51761C5.73962 6.52969 6.51457 5.75004 7.5 5.55001V3.41465C6.9174 3.20873 6.5 2.65311 6.5 2C6.5 1.17157 7.17157 0.5 8 0.5C8.82843 0.5 9.5 1.17157 9.5 2ZM8 1.5C7.72386 1.5 7.5 1.72386 7.5 2C7.5 2.27614 7.72386 2.5 8 2.5C8.27614 2.5 8.5 2.27614 8.5 2C8.5 1.72386 8.27614 1.5 8 1.5ZM6.5 8C6.5 8.82843 7.17157 9.5 8 9.5C8.82843 9.5 9.5 8.82843 9.5 8C9.5 7.17157 8.82843 6.5 8 6.5C7.17157 6.5 6.5 7.17157 6.5 8ZM8 13.5C7.72386 13.5 7.5 13.7239 7.5 14C7.5 14.2761 7.72386 14.5 8 14.5C8.27614 14.5 8.5 14.2761 8.5 14C8.5 13.7239 8.27614 13.5 8 13.5ZM14 13.5C13.7239 13.5 13.5 13.7239 13.5 14C13.5 14.2761 13.7239 14.5 14 14.5C14.2761 14.5 14.5 14.2761 14.5 14C14.5 13.7239 14.2761 13.5 14 13.5ZM1.5 14C1.5 14.2761 1.72386 14.5 2 14.5C2.27614 14.5 2.5 14.2761 2.5 14C2.5 13.7239 2.27614 13.5 2 13.5C1.72386 13.5 1.5 13.7239 1.5 14Z" fill="#777B92"/>
</svg>
