<svg width="16" height="16" viewBox="0 0 16 16" fill="none" xmlns="http://www.w3.org/2000/svg">
<path fill-rule="evenodd" clip-rule="evenodd" d="M0.5 1C0.5 0.723858 0.723858 0.5 1 0.5H7C7.27614 0.5 7.5 0.723858 7.5 1V7C7.5 7.27614 7.27614 7.5 7 7.5H1C0.723858 7.5 0.5 7.27614 0.5 7V1ZM1.5 1.5V6.5H6.5V1.5H1.5Z" fill="#777B92"/>
<path fill-rule="evenodd" clip-rule="evenodd" d="M4.44721 8.77639L7.44721 14.7764C7.52471 14.9314 7.51643 15.1155 7.42533 15.2629C7.33422 15.4103 7.17329 15.5 7 15.5H1C0.826712 15.5 0.665778 15.4103 0.574675 15.2629C0.483572 15.1155 0.47529 14.9314 0.552787 14.7764L3.55279 8.77639C3.63748 8.607 3.81061 8.5 4 8.5C4.18939 8.5 4.36252 8.607 4.44721 8.77639ZM4 10.118L1.80902 14.5H6.19098L4 10.118Z" fill="#777B92"/>
<path fill-rule="evenodd" clip-rule="evenodd" d="M12 8.5C12.2761 8.5 12.5 8.72386 12.5 9V11.5H15C15.2761 11.5 15.5 11.7239 15.5 12C15.5 12.2761 15.2761 12.5 15 12.5H12.5V15C12.5 15.2761 12.2761 15.5 12 15.5C11.7239 15.5 11.5 15.2761 11.5 15V12.5H9C8.72386 12.5 8.5 12.2761 8.5 12C8.5 11.7239 8.72386 11.5 9 11.5H11.5V9C11.5 8.72386 11.7239 8.5 12 8.5Z" fill="#777B92"/>
<path fill-rule="evenodd" clip-rule="evenodd" d="M12 0.5C13.933 0.5 15.5 2.067 15.5 4C15.5 5.933 13.933 7.5 12 7.5C10.067 7.5 8.5 5.933 8.5 4C8.5 2.067 10.067 0.5 12 0.5ZM9.5 4C9.5 5.38071 10.6193 6.5 12 6.5C13.3807 6.5 14.5 5.38071 14.5 4C14.5 2.61929 13.3807 1.5 12 1.5C10.6193 1.5 9.5 2.61929 9.5 4Z" fill="#777B92"/>
</svg>
