<svg width="16" height="16" viewBox="0 0 16 16" fill="none" xmlns="http://www.w3.org/2000/svg">
<path fill-rule="evenodd" clip-rule="evenodd" d="M8.67082 0.776279L13.6708 3.27628C14.179 3.53037 14.5 4.04976 14.5 4.61792V11.3819C14.5 11.95 14.179 12.4694 13.6708 12.7235L8.67082 15.2235C8.24853 15.4346 7.75147 15.4346 7.32918 15.2235L2.32918 12.7235C1.821 12.4694 1.5 11.95 1.5 11.3819V4.61792C1.5 4.04976 1.821 3.53037 2.32918 3.27628L7.32918 0.776279C7.75147 0.565133 8.24853 0.565134 8.67082 0.776279ZM4 4.99989L8 6.99989L12 4.99989L8 2.99989L4 4.99989Z" fill="#777B92"/>
</svg>
