<svg width="16" height="16" viewBox="0 0 16 16" fill="none" xmlns="http://www.w3.org/2000/svg">
<path fill-rule="evenodd" clip-rule="evenodd" d="M0.5 1C0.5 0.723858 0.723858 0.5 1 0.5H7C7.27614 0.5 7.5 0.723858 7.5 1V7C7.5 7.27614 7.27614 7.5 7 7.5H1C0.723858 7.5 0.5 7.27614 0.5 7V1ZM1.5 1.5V6.5H6.5V1.5H1.5Z" fill="#777B92"/>
<path fill-rule="evenodd" clip-rule="evenodd" d="M7.5 9.20711V15C7.5 15.2761 7.27614 15.5 7 15.5H1C0.723858 15.5 0.5 15.2761 0.5 15V9C0.5 8.72386 0.723858 8.5 1 8.5H6.79289L8.5 6.79289V1C8.5 0.723858 8.72386 0.5 9 0.5H15C15.2761 0.5 15.5 0.723858 15.5 1V7C15.5 7.27614 15.2761 7.5 15 7.5H9.20711L7.5 9.20711ZM1.5 14.5H6.5V9.5H1.5V14.5ZM9.5 1.5V6.5H14.5V1.5H9.5Z" fill="#777B92"/>
<path fill-rule="evenodd" clip-rule="evenodd" d="M9 8.5H15C15.2761 8.5 15.5 8.72386 15.5 9V15C15.5 15.2761 15.2761 15.5 15 15.5H9C8.72386 15.5 8.5 15.2761 8.5 15V9C8.5 8.72386 8.72386 8.5 9 8.5ZM9.5 14.5H14.5V9.5H9.5V14.5Z" fill="#777B92"/>
</svg>
