<svg width="16" height="16" viewBox="0 0 16 16" fill="none" xmlns="http://www.w3.org/2000/svg">
<path fill-rule="evenodd" clip-rule="evenodd" d="M1 0.5H7C7.27614 0.5 7.5 0.723858 7.5 1V7C7.5 7.27614 7.27614 7.5 7 7.5H1C0.723858 7.5 0.5 7.27614 0.5 7V1C0.5 0.723858 0.723858 0.5 1 0.5Z" fill="#777B92"/>
<path fill-rule="evenodd" clip-rule="evenodd" d="M7.35355 9.35355L4.70711 12L7.35355 14.6464C7.54882 14.8417 7.54882 15.1583 7.35355 15.3536C7.15829 15.5488 6.84171 15.5488 6.64645 15.3536L4 12.7071L1.35355 15.3536C1.15829 15.5488 0.841709 15.5488 0.646447 15.3536C0.451184 15.1583 0.451184 14.8417 0.646447 14.6464L3.29289 12L0.646447 9.35355C0.451184 9.15829 0.451184 8.84171 0.646447 8.64645C0.841709 8.45118 1.15829 8.45118 1.35355 8.64645L4 11.2929L6.64645 8.64645C6.84171 8.45118 7.15829 8.45118 7.35355 8.64645C7.54882 8.84171 7.54882 9.15829 7.35355 9.35355Z" fill="#777B92"/>
<path fill-rule="evenodd" clip-rule="evenodd" d="M12 8.5C12.1894 8.5 12.3625 8.607 12.4472 8.77639L15.4472 14.7764C15.5247 14.9314 15.5164 15.1155 15.4253 15.2629C15.3342 15.4103 15.1733 15.5 15 15.5H9C8.82671 15.5 8.66578 15.4103 8.57468 15.2629C8.48357 15.1155 8.47529 14.9314 8.55279 14.7764L11.5528 8.77639C11.6375 8.607 11.8106 8.5 12 8.5Z" fill="#777B92"/>
<path fill-rule="evenodd" clip-rule="evenodd" d="M8.5 4C8.5 2.067 10.067 0.5 12 0.5C13.933 0.5 15.5 2.067 15.5 4C15.5 5.933 13.933 7.5 12 7.5C10.067 7.5 8.5 5.933 8.5 4Z" fill="#777B92"/>
</svg>
