<svg width="16" height="16" viewBox="0 0 16 16" fill="none" xmlns="http://www.w3.org/2000/svg">
<path d="M9.06051 1.35365L13.6463 5.93943C14.2321 6.52522 14.2321 7.47497 13.6463 8.06075L9.06051 12.6465C8.47472 13.2323 7.52498 13.2323 6.93919 12.6465L2.3534 8.06075C1.76762 7.47497 1.76762 6.52522 2.3534 5.93943L6.93919 1.35365C7.52498 0.76786 8.47472 0.76786 9.06051 1.35365ZM7.6463 2.06075L3.06051 6.64654C2.86525 6.8418 2.86525 7.15838 3.06051 7.35365L7.6463 11.9394C7.84156 12.1347 8.15814 12.1347 8.3534 11.9394L12.9392 7.35365C13.1345 7.15838 13.1345 6.8418 12.9392 6.64654L8.3534 2.06075C8.15814 1.86549 7.84156 1.86549 7.6463 2.06075Z" fill="#777B92"/>
<path d="M2.35355 8.64645L7.64645 13.9393C7.84171 14.1346 8.15829 14.1346 8.35355 13.9393L13.6464 8.64645C13.8417 8.45118 14.1583 8.45118 14.3536 8.64645C14.5488 8.84171 14.5488 9.15829 14.3536 9.35355L9.06066 14.6464C8.47487 15.2322 7.52513 15.2322 6.93934 14.6464L1.64645 9.35355C1.45118 9.15829 1.45118 8.84171 1.64645 8.64645C1.84171 8.45118 2.15829 8.45118 2.35355 8.64645Z" fill="#777B92"/>
</svg>
