<svg width="16" height="16" viewBox="0 0 16 16" fill="none" xmlns="http://www.w3.org/2000/svg">
<path fill-rule="evenodd" clip-rule="evenodd" d="M8.83205 0.953829L10.8321 2.28716C11.2493 2.56536 11.5 3.03371 11.5 3.53524V5.46487C11.5 5.9664 11.2493 6.43475 10.8321 6.71295L8.83205 8.04628C8.3282 8.38218 7.6718 8.38218 7.16795 8.04628L5.16795 6.71295C4.75065 6.43475 4.5 5.9664 4.5 5.46487V3.53524C4.5 3.03371 4.75065 2.56536 5.16795 2.28716L7.16795 0.953829C7.6718 0.617929 8.3282 0.617929 8.83205 0.953829ZM7.72265 1.78588L5.77688 3.08306L8.00008 4.41698L10.2232 3.08311L8.27735 1.78588C8.1094 1.67391 7.8906 1.67391 7.72265 1.78588ZM5.5 4.08313V5.46487C5.5 5.63205 5.58355 5.78816 5.72265 5.8809L7.50008 7.06585V5.28317L5.5 4.08313ZM8.50008 7.06574L10.2773 5.8809C10.4164 5.78816 10.5 5.63205 10.5 5.46487V4.08322L8.50008 5.28317V7.06574Z" fill="#777B92"/>
<path fill-rule="evenodd" clip-rule="evenodd" d="M4.83205 7.95383L6.83205 9.28716C7.24935 9.56536 7.5 10.0337 7.5 10.5352V12.4649C7.5 12.9664 7.24935 13.4347 6.83205 13.7129L4.83205 15.0463C4.3282 15.3822 3.6718 15.3822 3.16795 15.0463L1.16795 13.7129C0.750652 13.4347 0.5 12.9664 0.5 12.4649V10.5352C0.5 10.0337 0.750652 9.56536 1.16795 9.28716L3.16795 7.95383C3.6718 7.61793 4.3282 7.61793 4.83205 7.95383ZM3.72265 8.78588L1.77688 10.0831L4.00008 11.417L6.22319 10.0831L4.27735 8.78588C4.1094 8.67391 3.8906 8.67391 3.72265 8.78588ZM4.50008 12.2832V14.0657L6.27735 12.8809C6.41645 12.7882 6.5 12.632 6.5 12.4649V11.0832L4.50008 12.2832ZM3.50008 12.2832L1.5 11.0831V12.4649C1.5 12.632 1.58355 12.7882 1.72265 12.8809L3.50008 14.0658V12.2832Z" fill="#777B92"/>
<path fill-rule="evenodd" clip-rule="evenodd" d="M11.1679 7.95383C11.6718 7.61793 12.3282 7.61793 12.8321 7.95383L14.8321 9.28716C15.2493 9.56536 15.5 10.0337 15.5 10.5352V12.4649C15.5 12.9664 15.2493 13.4347 14.8321 13.7129L12.8321 15.0463C12.3282 15.3822 11.6718 15.3822 11.1679 15.0463L9.16795 13.7129C8.75065 13.4347 8.5 12.9664 8.5 12.4649V10.5352C8.5 10.0337 8.75065 9.56536 9.16795 9.28716L11.1679 7.95383ZM12.2774 8.78588C12.1094 8.67391 11.8906 8.67391 11.7227 8.78588L9.77688 10.0831L12.0001 11.417L14.2232 10.0831L12.2774 8.78588ZM14.5 11.0832L12.5001 12.2832V14.0657L14.2773 12.8809C14.4164 12.7882 14.5 12.632 14.5 12.4649V11.0832ZM11.5001 14.0658V12.2832L9.5 11.0831V12.4649C9.5 12.632 9.58355 12.7882 9.72265 12.8809L11.5001 14.0658Z" fill="#777B92"/>
</svg>
