<svg width="16" height="16" viewBox="0 0 16 16" fill="none" xmlns="http://www.w3.org/2000/svg">
<path fill-rule="evenodd" clip-rule="evenodd" d="M0.5 3C0.5 1.61929 1.61929 0.5 3 0.5C4.38071 0.5 5.5 1.61929 5.5 3C5.5 3.50954 5.34756 3.98348 5.0858 4.3787L6.50443 5.79732C7.67211 4.73723 9.07814 3.94805 10.5685 3.58387C10.5237 3.39655 10.5 3.20105 10.5 3C10.5 1.61929 11.6193 0.5 13 0.5C14.3807 0.5 15.5 1.61929 15.5 3C15.5 4.38071 14.3807 5.5 13 5.5C12.1863 5.5 11.4633 5.11122 11.0068 4.50927C9.48931 4.8336 8.05056 5.66679 6.9023 6.79702C6.88769 6.81676 6.87144 6.83567 6.85355 6.85355C6.83567 6.87144 6.81677 6.88768 6.79704 6.90229C5.66689 8.05058 4.83374 9.48937 4.50928 11.0068C5.11122 11.4633 5.5 12.1863 5.5 13C5.5 14.3807 4.38071 15.5 3 15.5C1.61929 15.5 0.5 14.3807 0.5 13C0.5 11.6193 1.61929 10.5 3 10.5C3.20106 10.5 3.39657 10.5237 3.5839 10.5686C3.94816 9.07825 4.7373 7.67218 5.79734 6.50444L4.3787 5.0858C3.98348 5.34756 3.50954 5.5 3 5.5C1.61929 5.5 0.5 4.38071 0.5 3ZM3 1.5C2.17157 1.5 1.5 2.17157 1.5 3C1.5 3.82843 2.17157 4.5 3 4.5C3.82843 4.5 4.5 3.82843 4.5 3C4.5 2.17157 3.82843 1.5 3 1.5ZM11.5 3C11.5 3.82843 12.1716 4.5 13 4.5C13.8284 4.5 14.5 3.82843 14.5 3C14.5 2.17157 13.8284 1.5 13 1.5C12.1716 1.5 11.5 2.17157 11.5 3ZM1.5 13C1.5 13.8284 2.17157 14.5 3 14.5C3.82843 14.5 4.5 13.8284 4.5 13C4.5 12.1716 3.82843 11.5 3 11.5C2.17157 11.5 1.5 12.1716 1.5 13Z" fill="#777B92"/>
<path fill-rule="evenodd" clip-rule="evenodd" d="M11 6.5C13.4853 6.5 15.5 8.51472 15.5 11C15.5 13.4853 13.4853 15.5 11 15.5C8.51472 15.5 6.5 13.4853 6.5 11C6.5 8.51472 8.51472 6.5 11 6.5ZM7.5 11C7.5 12.933 9.067 14.5 11 14.5C12.933 14.5 14.5 12.933 14.5 11C14.5 9.067 12.933 7.5 11 7.5C9.067 7.5 7.5 9.067 7.5 11Z" fill="#777B92"/>
</svg>
