<svg width="16" height="16" viewBox="0 0 16 16" fill="none" xmlns="http://www.w3.org/2000/svg">
<path fill-rule="evenodd" clip-rule="evenodd" d="M5 12C5 12.5523 4.55228 13 4 13C3.44772 13 3 12.5523 3 12C3 11.4477 3.44772 11 4 11C4.55228 11 5 11.4477 5 12Z" fill="#777B92"/>
<path fill-rule="evenodd" clip-rule="evenodd" d="M9.22475 9.44679C9.4028 9.93091 9.5 10.4541 9.5 11C9.5 13.4853 7.48528 15.5 5 15.5C2.51472 15.5 0.5 13.4853 0.5 11C0.5 8.51472 2.51472 6.5 5 6.5C5.54589 6.5 6.06909 6.5972 6.55321 6.77525C6.57659 6.72879 6.60767 6.68523 6.64645 6.64645L12.3536 0.93934C12.6349 0.658035 13.0164 0.5 13.4142 0.5H14C14.8284 0.5 15.5 1.17157 15.5 2V2.58579C15.5 2.98361 15.342 3.36514 15.0607 3.64645L14.2071 4.5L15.3536 5.64645C15.5488 5.84171 15.5488 6.15829 15.3536 6.35355C15.1583 6.54882 14.8417 6.54882 14.6464 6.35355L13.5 5.20711L12.7071 6L14.3536 7.64645C14.5488 7.84171 14.5488 8.15829 14.3536 8.35355C14.1583 8.54882 13.8417 8.54882 13.6464 8.35355L12 6.70711L9.35355 9.35355C9.31477 9.39233 9.27121 9.42341 9.22475 9.44679ZM13.4142 1.5C13.2816 1.5 13.1544 1.55268 13.0607 1.64645L7.46954 7.23757C7.98365 7.57569 8.42431 8.01635 8.76243 8.53046L14.3536 2.93934C14.4473 2.84557 14.5 2.71839 14.5 2.58579V2C14.5 1.72386 14.2761 1.5 14 1.5H13.4142ZM1.5 11C1.5 12.933 3.067 14.5 5 14.5C6.933 14.5 8.5 12.933 8.5 11C8.5 9.067 6.933 7.5 5 7.5C3.067 7.5 1.5 9.067 1.5 11Z" fill="#777B92"/>
</svg>
