<svg width="24" height="24" viewBox="0 0 24 24" fill="none" xmlns="http://www.w3.org/2000/svg">
<path fill-rule="evenodd" clip-rule="evenodd" d="M19 6C19.5523 6 20 6.44772 20 7V7.00977V7.01953V7.0293V7.03906V7.04883V7.05859V7.06836V7.07812V7.08789V7.09766V7.10742V7.11719V7.12695V7.13672V7.14648V7.15625V7.16602V7.17578V7.18555V7.19531V7.20508V7.21484V7.22461V7.23438V7.24414V7.25391V7.26367V7.27344V7.2832V7.29297V7.30273V7.3125V7.32227V7.33203V7.3418V7.35156V7.36133V7.37109V7.38086V7.39062V7.40039V7.41016V7.41992V7.42969V7.43945V7.44922V7.45898V7.46875V7.47852V7.48828V7.49805V7.50781V7.51758V7.52734V7.53711V7.54688V7.55664V7.56641V7.57617V7.58594V7.5957V7.60547V7.61523V7.625V7.63477V7.64453V7.6543V7.66406V7.67383V7.68359V7.69336V7.70312V7.71289V7.72266V7.73242V7.74219V7.75195V7.76172V7.77148V7.78125V7.79102V7.80078V7.81055V7.82031V7.83008V7.83984V7.84961V7.85938V7.86914V7.87891V7.88867V7.89844V7.9082V7.91797V7.92773V7.9375V7.94727V7.95703V7.9668V7.97656V7.98633V7.99609V8.00586V8.01562V8.02539V8.03516V8.04492V8.05469V8.06445V8.07422V8.08398V8.09375V8.10352V8.11328V8.12305V8.13281V8.14258V8.15234V8.16211V8.17188V8.18164V8.19141V8.20117V8.21094V8.2207V8.23047V8.24023V8.25V8.25977V8.26953V8.2793V8.28906V8.29883V8.30859V8.31836V8.32812V8.33789V8.34766V8.35742V8.36719V8.37695V8.38672V8.39648V8.40625V8.41602V8.42578V8.43555V8.44531V8.45508V8.46484V8.47461V8.48438V8.49414V8.50391V8.51367V8.52344V8.5332V8.54297V8.55273V8.5625V8.57227V8.58203V8.5918V8.60156V8.61133V8.62109V8.63086V8.64062V8.65039V8.66016V8.66992V8.67969V8.68945V8.69922V8.70898V8.71875V8.72852V8.73828V8.74805V8.75781V8.76758V8.77734V8.78711V8.79688V8.80664V8.81641V8.82617V8.83594V8.8457V8.85547V8.86523V8.875V8.88477V8.89453V8.9043V8.91406V8.92383V8.93359V8.94336V8.95312V8.96289V8.97266V8.98242V8.99219V9.00195V9.01172V9.02148V9.03125V9.04102V9.05078V9.06055V9.07031V9.08008V9.08984V9.09961V9.10938V9.11914V9.12891V9.13867V9.14844V9.1582V9.16797V9.17773V9.1875V9.19727V9.20703V9.2168V9.22656V9.23633V9.24609V9.25586V9.26562V9.27539V9.28516V9.29492V9.30469V9.31445V9.32422V9.33398V9.34375V9.35352V9.36328V9.37305V9.38281V9.39258V9.40234V9.41211V9.42188V9.43164V9.44141V9.45117V9.46094V9.4707V9.48047V9.49023V9.5V9.50977V9.51953V9.5293V9.53906V9.54883V9.55859V9.56836V9.57812V9.58789V9.59766V9.60742V9.61719V9.62695V9.63672V9.64648V9.65625V9.66602V9.67578V9.68555V9.69531V9.70508V9.71484V9.72461V9.73438V9.74414V9.75391V9.76367V9.77344V9.7832V9.79297V9.80273V9.8125V9.82227V9.83203V9.8418V9.85156V9.86133V9.87109V9.88086V9.89062V9.90039V9.91016V9.91992V9.92969V9.93945V9.94922V9.95898V9.96875V9.97852V9.98828V9.99805V10.0078V10.0176V10.0273V10.0371V10.0469V10.0566V10.0664V10.0762V10.0859V10.0957V10.1055V10.1152V10.125V10.1348V10.1445V10.1543V10.1641V10.1738V10.1836V10.1934V10.2031V10.2129V10.2227V10.2324V10.2422V10.252V10.2617V10.2715V10.2812V10.291V10.3008V10.3105V10.3203V10.3301V10.3398V10.3496V10.3594V10.3691V10.3789V10.3887V10.3984V10.4082V10.418V10.4277V10.4375V10.4473V10.457V10.4668V10.4766V10.4863V10.4961V10.5059V10.5156V10.5254V10.5352V10.5449V10.5547V10.5645V10.5742V10.584V10.5938V10.6035V10.6133V10.623V10.6328V10.6426V10.6523V10.6621V10.6719V10.6816V10.6914V10.7012V10.7109V10.7207V10.7305V10.7402V10.75V10.7598V10.7695V10.7793V10.7891V10.7988V10.8086V10.8184V10.8281V10.8379V10.8477V10.8574V10.8672V10.877V10.8867V10.8965V10.9062V10.916V10.9258V10.9355V10.9453V10.9551V10.9648V10.9746V10.9844V10.9941V11.0039V11.0137V11.0234V11.0332V11.043V11.0527V11.0625V11.0723V11.082V11.0918V11.1016V11.1113V11.1211V11.1309V11.1406V11.1504V11.1602V11.1699V11.1797V11.1895V11.1992V11.209V11.2188V11.2285V11.2383V11.248V11.2578V11.2676V11.2773V11.2871V11.2969V11.3066V11.3164V11.3262V11.3359V11.3457V11.3555V11.3652V11.375V11.3848V11.3945V11.4043V11.4141V11.4238V11.4336V11.4434V11.4531V11.4629V11.4727V11.4824V11.4922V11.502V11.5117V11.5215V11.5312V11.541V11.5508V11.5605V11.5703V11.5801V11.5898V11.5996V11.6094V11.6191V11.6289V11.6387V11.6484V11.6582V11.668V11.6777V11.6875V11.6973V11.707V11.7168V11.7266V11.7363V11.7461V11.7559V11.7656V11.7754V11.7852V11.7949V11.8047V11.8145V11.8242V11.834V11.8438V11.8535V11.8633V11.873V11.8828V11.8926V11.9023V11.9121V11.9219V11.9316V11.9414V11.9512V11.9609V11.9707V11.9805V11.9902V12C20 13.1046 19.1046 14 18 14H8.41421L10.7071 16.2929C11.0976 16.6834 11.0976 17.3166 10.7071 17.7071C10.3166 18.0976 9.68342 18.0976 9.29289 17.7071L5.29289 13.7071C4.90237 13.3166 4.90237 12.6834 5.29289 12.2929L9.29289 8.29289C9.68342 7.90237 10.3166 7.90237 10.7071 8.29289C11.0976 8.68342 11.0976 9.31658 10.7071 9.70711L8.41421 12H18V11.9902V11.9805V11.9707V11.9609V11.9512V11.9414V11.9316V11.9219V11.9121V11.9023V11.8926V11.8828V11.873V11.8633V11.8535V11.8438V11.834V11.8242V11.8145V11.8047V11.7949V11.7852V11.7754V11.7656V11.7559V11.7461V11.7363V11.7266V11.7168V11.707V11.6973V11.6875V11.6777V11.668V11.6582V11.6484V11.6387V11.6289V11.6191V11.6094V11.5996V11.5898V11.5801V11.5703V11.5605V11.5508V11.541V11.5312V11.5215V11.5117V11.502V11.4922V11.4824V11.4727V11.4629V11.4531V11.4434V11.4336V11.4238V11.4141V11.4043V11.3945V11.3848V11.375V11.3652V11.3555V11.3457V11.3359V11.3262V11.3164V11.3066V11.2969V11.2871V11.2773V11.2676V11.2578V11.248V11.2383V11.2285V11.2188V11.209V11.1992V11.1895V11.1797V11.1699V11.1602V11.1504V11.1406V11.1309V11.1211V11.1113V11.1016V11.0918V11.082V11.0723V11.0625V11.0527V11.043V11.0332V11.0234V11.0137V11.0039V10.9941V10.9844V10.9746V10.9648V10.9551V10.9453V10.9355V10.9258V10.916V10.9062V10.8965V10.8867V10.877V10.8672V10.8574V10.8477V10.8379V10.8281V10.8184V10.8086V10.7988V10.7891V10.7793V10.7695V10.7598V10.75V10.7402V10.7305V10.7207V10.7109V10.7012V10.6914V10.6816V10.6719V10.6621V10.6523V10.6426V10.6328V10.623V10.6133V10.6035V10.5938V10.584V10.5742V10.5645V10.5547V10.5449V10.5352V10.5254V10.5156V10.5059V10.4961V10.4863V10.4766V10.4668V10.457V10.4473V10.4375V10.4277V10.418V10.4082V10.3984V10.3887V10.3789V10.3691V10.3594V10.3496V10.3398V10.3301V10.3203V10.3105V10.3008V10.291V10.2812V10.2715V10.2617V10.252V10.2422V10.2324V10.2227V10.2129V10.2031V10.1934V10.1836V10.1738V10.1641V10.1543V10.1445V10.1348V10.125V10.1152V10.1055V10.0957V10.0859V10.0762V10.0664V10.0566V10.0469V10.0371V10.0273V10.0176V10.0078V9.99805V9.98828V9.97852V9.96875V9.95898V9.94922V9.93945V9.92969V9.91992V9.91016V9.90039V9.89062V9.88086V9.87109V9.86133V9.85156V9.8418V9.83203V9.82227V9.8125V9.80273V9.79297V9.7832V9.77344V9.76367V9.75391V9.74414V9.73438V9.72461V9.71484V9.70508V9.69531V9.68555V9.67578V9.66602V9.65625V9.64648V9.63672V9.62695V9.61719V9.60742V9.59766V9.58789V9.57812V9.56836V9.55859V9.54883V9.53906V9.5293V9.51953V9.50977V9.5V9.49023V9.48047V9.4707V9.46094V9.45117V9.44141V9.43164V9.42188V9.41211V9.40234V9.39258V9.38281V9.37305V9.36328V9.35352V9.34375V9.33398V9.32422V9.31445V9.30469V9.29492V9.28516V9.27539V9.26562V9.25586V9.24609V9.23633V9.22656V9.2168V9.20703V9.19727V9.1875V9.17773V9.16797V9.1582V9.14844V9.13867V9.12891V9.11914V9.10938V9.09961V9.08984V9.08008V9.07031V9.06055V9.05078V9.04102V9.03125V9.02148V9.01172V9.00195V8.99219V8.98242V8.97266V8.96289V8.95312V8.94336V8.93359V8.92383V8.91406V8.9043V8.89453V8.88477V8.875V8.86523V8.85547V8.8457V8.83594V8.82617V8.81641V8.80664V8.79688V8.78711V8.77734V8.76758V8.75781V8.74805V8.73828V8.72852V8.71875V8.70898V8.69922V8.68945V8.67969V8.66992V8.66016V8.65039V8.64062V8.63086V8.62109V8.61133V8.60156V8.5918V8.58203V8.57227V8.5625V8.55273V8.54297V8.5332V8.52344V8.51367V8.50391V8.49414V8.48438V8.47461V8.46484V8.45508V8.44531V8.43555V8.42578V8.41602V8.40625V8.39648V8.38672V8.37695V8.36719V8.35742V8.34766V8.33789V8.32812V8.31836V8.30859V8.29883V8.28906V8.2793V8.26953V8.25977V8.25V8.24023V8.23047V8.2207V8.21094V8.20117V8.19141V8.18164V8.17188V8.16211V8.15234V8.14258V8.13281V8.12305V8.11328V8.10352V8.09375V8.08398V8.07422V8.06445V8.05469V8.04492V8.03516V8.02539V8.01562V8.00586V7.99609V7.98633V7.97656V7.9668V7.95703V7.94727V7.9375V7.92773V7.91797V7.9082V7.89844V7.88867V7.87891V7.86914V7.85938V7.84961V7.83984V7.83008V7.82031V7.81055V7.80078V7.79102V7.78125V7.77148V7.76172V7.75195V7.74219V7.73242V7.72266V7.71289V7.70312V7.69336V7.68359V7.67383V7.66406V7.6543V7.64453V7.63477V7.625V7.61523V7.60547V7.5957V7.58594V7.57617V7.56641V7.55664V7.54688V7.53711V7.52734V7.51758V7.50781V7.49805V7.48828V7.47852V7.46875V7.45898V7.44922V7.43945V7.42969V7.41992V7.41016V7.40039V7.39062V7.38086V7.37109V7.36133V7.35156V7.3418V7.33203V7.32227V7.3125V7.30273V7.29297V7.2832V7.27344V7.26367V7.25391V7.24414V7.23438V7.22461V7.21484V7.20508V7.19531V7.18555V7.17578V7.16602V7.15625V7.14648V7.13672V7.12695V7.11719V7.10742V7.09766V7.08789V7.07812V7.06836V7.05859V7.04883V7.03906V7.0293V7.01953V7.00977V7C18 6.44772 18.4477 6 19 6Z" fill="#6E778C"/>
</svg>
