<svg width="24" height="24" viewBox="0 0 24 24" fill="none" xmlns="http://www.w3.org/2000/svg">
<path fill-rule="evenodd" clip-rule="evenodd" d="M11.9998 5C9.06365 5 6.54741 6.80802 5.50823 9.37522C5.30101 9.88715 4.71801 10.1342 4.20608 9.92694C3.69415 9.71971 3.44713 9.13672 3.65436 8.62478C4.98873 5.32832 8.22115 3 11.9998 3C15.1895 3 17.9904 4.65886 19.5888 7.16028L20.0454 5.70128C20.2104 5.17421 20.7714 4.88068 21.2985 5.04566C21.8256 5.21064 22.1191 5.77165 21.9541 6.29872L20.7021 10.2987C20.5421 10.81 20.0076 11.1043 19.49 10.9662L15.742 9.9662C15.2084 9.82382 14.8912 9.27582 15.0336 8.74221C15.176 8.20859 15.724 7.89142 16.2576 8.0338L18.0743 8.51853C16.8664 6.41574 14.5976 5 11.9998 5ZM3.29747 13.7013C3.4575 13.19 3.992 12.8957 4.50961 13.0338L8.25757 14.0338C8.79119 14.1762 9.10835 14.7242 8.96598 15.2578C8.8236 15.7914 8.2756 16.1086 7.74199 15.9662L5.92525 15.4815C7.13315 17.5843 9.40194 19 11.9998 19C14.9359 19 17.4522 17.192 18.4913 14.6248C18.6986 14.1129 19.2815 13.8658 19.7935 14.0731C20.3054 14.2803 20.5524 14.8633 20.3452 15.3752C19.0108 18.6717 15.7784 21 11.9998 21C8.81002 21 6.00917 19.3411 4.4108 16.8397L3.95412 18.2987C3.78914 18.8258 3.22813 19.1193 2.70106 18.9543C2.17399 18.7894 1.88046 18.2284 2.04544 17.7013L3.29747 13.7013Z" fill="#6E778C"/>
</svg>
