<svg width="24" height="24" viewBox="0 0 24 24" fill="none" xmlns="http://www.w3.org/2000/svg">
<path fill-rule="evenodd" clip-rule="evenodd" d="M13 15V7.41421L15.2929 9.70711C15.6834 10.0976 16.3166 10.0976 16.7071 9.70711C17.0976 9.31658 17.0976 8.68342 16.7071 8.29289L12.7071 4.29289C12.3166 3.90237 11.6834 3.90237 11.2929 4.29289L7.29289 8.29289C6.90237 8.68342 6.90237 9.31658 7.29289 9.70711C7.68342 10.0976 8.31658 10.0976 8.70711 9.70711L11 7.41421V15H7C6.44772 15 6 15.4477 6 16C6 16.5523 6.44772 17 7 17H12H17C17.5523 17 18 16.5523 18 16C18 15.4477 17.5523 15 17 15H13ZM6 19C6 18.4477 6.44772 18 7 18H17C17.5523 18 18 18.4477 18 19C18 19.5523 17.5523 20 17 20H7C6.44772 20 6 19.5523 6 19Z" fill="#6E778C"/>
</svg>
