<svg width="24" height="24" viewBox="0 0 24 24" fill="none" xmlns="http://www.w3.org/2000/svg">
<path fill-rule="evenodd" clip-rule="evenodd" d="M17.7071 4.29289C17.3166 3.90237 16.6834 3.90237 16.2929 4.29289C15.9024 4.68342 15.9024 5.31658 16.2929 5.70711L17.5858 7H12C11.4477 7 11 7.44772 11 8C11 8.55228 11.4477 9 12 9H17.5858L16.2929 10.2929C15.9024 10.6834 15.9024 11.3166 16.2929 11.7071C16.6834 12.0976 17.3166 12.0976 17.7071 11.7071L20.7071 8.70711C21.0976 8.31658 21.0976 7.68342 20.7071 7.29289L17.7071 4.29289ZM7.70711 13.7071C8.09763 13.3166 8.09763 12.6834 7.70711 12.2929C7.31658 11.9024 6.68342 11.9024 6.29289 12.2929L3.29289 15.2929C2.90237 15.6834 2.90237 16.3166 3.29289 16.7071L6.29289 19.7071C6.68342 20.0976 7.31658 20.0976 7.70711 19.7071C8.09763 19.3166 8.09763 18.6834 7.70711 18.2929L6.41421 17H12C12.5523 17 13 16.5523 13 16C13 15.4477 12.5523 15 12 15H6.41421L7.70711 13.7071Z" fill="#6E778C"/>
</svg>
