<svg width="24" height="24" viewBox="0 0 24 24" fill="none" xmlns="http://www.w3.org/2000/svg">
<path fill-rule="evenodd" clip-rule="evenodd" d="M7 4C7 3.44772 6.55228 3 6 3C5.44772 3 5 3.44772 5 4V17L3.8 15.4C3.46863 14.9582 2.84183 14.8686 2.4 15.2C1.95817 15.5314 1.86863 16.1582 2.2 16.6L5.2 20.6C5.38885 20.8518 5.68524 21 6 21C6.31476 21 6.61115 20.8518 6.8 20.6L9.8 16.6C10.1314 16.1582 10.0418 15.5314 9.6 15.2C9.15817 14.8686 8.53137 14.9582 8.2 15.4L7 17V4ZM13 16C12.4477 16 12 16.4477 12 17C12 17.5523 12.4477 18 13 18H21C21.5523 18 22 17.5523 22 17C22 16.4477 21.5523 16 21 16H13ZM12 12C12 11.4477 12.4477 11 13 11H18C18.5523 11 19 11.4477 19 12C19 12.5523 18.5523 13 18 13H13C12.4477 13 12 12.5523 12 12ZM13 6C12.4477 6 12 6.44772 12 7C12 7.55228 12.4477 8 13 8H15C15.5523 8 16 7.55228 16 7C16 6.44772 15.5523 6 15 6H13Z" fill="#6E778C"/>
</svg>
