<svg width="24" height="24" viewBox="0 0 24 24" fill="none" xmlns="http://www.w3.org/2000/svg">
<path fill-rule="evenodd" clip-rule="evenodd" d="M9.17087 6C9.5827 4.83481 10.6939 4 12.0002 4C13.3064 4 14.4176 4.83481 14.8295 6H9.17087ZM8.00147 8C8.00104 8 8.0006 8 8.00016 8C7.99972 8 7.99929 8 7.99885 8H6.79567L4.25721 19H19.7431L17.2046 8H16.0006C16.0005 8 16.0003 8 16.0002 8C16 8 15.9998 8 15.9997 8L8.00147 8ZM16.9001 6C16.4369 3.71776 14.4191 2 12.0002 2C9.5812 2 7.56345 3.71776 7.10018 6H6.79567C5.86436 6 5.05631 6.64282 4.84689 7.55028L2.30843 18.5503C2.01922 19.8035 2.97104 21 4.25721 21H19.7431C21.0293 21 21.9811 19.8035 21.6919 18.5503L19.1534 7.55028C18.944 6.64282 18.136 6 17.2046 6H16.9001Z" fill="#6E778C"/>
</svg>
