<svg width="24" height="24" viewBox="0 0 24 24" fill="none" xmlns="http://www.w3.org/2000/svg">
<path fill-rule="evenodd" clip-rule="evenodd" d="M6 2C4.89543 2 4 2.89543 4 4V19.6743C4 21.003 5.27181 21.9624 6.54944 21.5973L12 20.04L17.4506 21.5973C18.7282 21.9624 20 21.003 20 19.6743V4C20 2.89543 19.1046 2 18 2H6ZM15.7071 8.29289C16.0976 8.68342 16.0976 9.31658 15.7071 9.70711L11.7071 13.7071C11.3166 14.0976 10.6834 14.0976 10.2929 13.7071L8.29289 11.7071C7.90237 11.3166 7.90237 10.6834 8.29289 10.2929C8.68342 9.90237 9.31658 9.90237 9.70711 10.2929L11 11.5858L14.2929 8.29289C14.6834 7.90237 15.3166 7.90237 15.7071 8.29289Z" fill="#6E778C"/>
</svg>
