<svg width="24" height="24" viewBox="0 0 24 24" fill="none" xmlns="http://www.w3.org/2000/svg">
<path fill-rule="evenodd" clip-rule="evenodd" d="M3 6C3 4.34315 4.34315 3 6 3H18C19.6569 3 21 4.34315 21 6C21 6.8885 20.6137 7.68679 20 8.23611V19C20 20.1046 19.1046 21 18 21H6C4.89543 21 4 20.1046 4 19V8.23611C3.38625 7.68679 3 6.8885 3 6ZM6 9H18V19H6V9ZM19 6C19 5.44772 18.5523 5 18 5H6C5.44772 5 5 5.44772 5 6C5 6.55228 5.44772 7 6 7H18C18.5523 7 19 6.55228 19 6ZM10 12C9.44772 12 9 12.4477 9 13C9 13.5523 9.44772 14 10 14H14C14.5523 14 15 13.5523 15 13C15 12.4477 14.5523 12 14 12H10Z" fill="#6E778C"/>
</svg>
