<svg width="24" height="24" viewBox="0 0 24 24" fill="none" xmlns="http://www.w3.org/2000/svg">
<path fill-rule="evenodd" clip-rule="evenodd" d="M16.7809 7.62467C17.1259 7.19341 17.056 6.56412 16.6247 6.21911C16.1935 5.8741 15.5642 5.94402 15.2192 6.37528L8.00004 15.3992L4.78091 11.3753C4.4359 10.944 3.8066 10.8741 3.37534 11.2191C2.94408 11.5641 2.87416 12.1934 3.21917 12.6247L6.4383 16.6486C7.23895 17.6494 8.76112 17.6494 9.56177 16.6486L16.7809 7.62467ZM21.7809 7.62467C22.1259 7.19341 22.056 6.56412 21.6247 6.21911C21.1935 5.8741 20.5642 5.94402 20.2192 6.37528L12.9171 15.5028L12.7071 15.2929C12.3166 14.9023 11.6835 14.9023 11.2929 15.2929C10.9024 15.6834 10.9024 16.3166 11.2929 16.7071L11.5029 16.9171C12.3458 17.7599 13.7342 17.683 14.4789 16.7522L21.7809 7.62467Z" fill="#6E778C"/>
</svg>
