<svg width="24" height="24" viewBox="0 0 24 24" fill="none" xmlns="http://www.w3.org/2000/svg">
<path fill-rule="evenodd" clip-rule="evenodd" d="M8.70711 8.29289C8.31658 7.90237 7.68342 7.90237 7.29289 8.29289C6.90237 8.68342 6.90237 9.31658 7.29289 9.70711L9.58579 12L7.29289 14.2929C6.90237 14.6834 6.90237 15.3166 7.29289 15.7071C7.68342 16.0976 8.31658 16.0976 8.70711 15.7071L11.7071 12.7071C12.0976 12.3166 12.0976 11.6834 11.7071 11.2929L8.70711 8.29289ZM14.7071 8.29289C14.3166 7.90237 13.6834 7.90237 13.2929 8.29289C12.9024 8.68342 12.9024 9.31658 13.2929 9.70711L15.5858 12L13.2929 14.2929C12.9024 14.6834 12.9024 15.3166 13.2929 15.7071C13.6834 16.0976 14.3166 16.0976 14.7071 15.7071L17.7071 12.7071C18.0976 12.3166 18.0976 11.6834 17.7071 11.2929L14.7071 8.29289Z" fill="#6E778C"/>
</svg>
