<svg width="24" height="24" viewBox="0 0 24 24" fill="none" xmlns="http://www.w3.org/2000/svg">
<path fill-rule="evenodd" clip-rule="evenodd" d="M7.29289 5.29289C7.68342 4.90237 8.31658 4.90237 8.70711 5.29289L12 8.58579L15.2929 5.29289C15.6834 4.90237 16.3166 4.90237 16.7071 5.29289C17.0976 5.68342 17.0976 6.31658 16.7071 6.70711L12.7071 10.7071C12.3166 11.0976 11.6834 11.0976 11.2929 10.7071L7.29289 6.70711C6.90237 6.31658 6.90237 5.68342 7.29289 5.29289ZM7 14C7 13.4477 7.44772 13 8 13H16C16.5523 13 17 13.4477 17 14C17 14.5523 16.5523 15 16 15H8C7.44772 15 7 14.5523 7 14ZM8 17C7.44772 17 7 17.4477 7 18C7 18.5523 7.44772 19 8 19H16C16.5523 19 17 18.5523 17 18C17 17.4477 16.5523 17 16 17H8Z" fill="#6E778C"/>
</svg>
