<svg width="24" height="24" viewBox="0 0 24 24" fill="none" xmlns="http://www.w3.org/2000/svg">
<path fill-rule="evenodd" clip-rule="evenodd" d="M9 8C9 6.34315 10.3431 5 12 5C13.6569 5 15 6.34315 15 8C15 8.55228 15.4477 9 16 9C16.0153 9 16.0306 8.99965 16.0457 8.99897C16.064 8.99995 16.0824 9.00044 16.1009 9.00042H16.1009L16.101 9.00042H16.1013L16.1025 9.00042L16.1072 9.00042L16.1253 9.00041L16.1928 9.00036L16.4212 9.00021L17 9C18.6569 9 20 10.3431 20 12C20 13.1092 19.3986 14.079 18.4993 14.5993C18.0212 14.8758 17.8579 15.4875 18.1344 15.9656C18.411 16.4437 19.0227 16.607 19.5008 16.3305C20.9927 15.4675 22 13.852 22 12C22 9.23858 19.7615 7 17 7L16.9 7.00004C16.4367 4.71778 14.419 3 12 3C9.58104 3 7.56329 4.71776 7.10002 7H7.09979H7.09759H7.09538H7.09318H7.09098H7.08878H7.08659H7.0844H7.08221H7.08003H7.07785H7.07568H7.0735H7.07134H7.06917H7.06701H7.06485H7.0627H7.06055H7.0584H7.05626H7.05412H7.05199H7.04986H7.04773H7.04561H7.04349H7.04138H7.03927H7.03716H7.03506H7.03296H7.03087H7.02878H7.02669H7.02461H7.02254H7.02047H7.0184H7.01634H7.01428H7.01222H7.01018H7.00813H7.00609H7.00406H7.00203H7C4.23858 7 2 9.23858 2 12C2 13.852 3.00738 15.4675 4.49927 16.3305C4.97733 16.607 5.58906 16.4437 5.86561 15.9656C6.14215 15.4875 5.97879 14.8758 5.50073 14.5993C4.60141 14.079 4 13.1092 4 12C4 10.3431 5.34315 9 7 9H7.00203H7.00406H7.00609H7.00813H7.01018H7.01222H7.01428H7.01634H7.0184H7.02047H7.02254H7.02461H7.02669H7.02878H7.03087H7.03296H7.03506H7.03716H7.03927H7.04138H7.04349H7.04561H7.04773H7.04986H7.05199H7.05412H7.05626H7.0584H7.06055H7.0627H7.06485H7.06701H7.06917H7.07134H7.0735H7.07568H7.07785H7.08003H7.08221H7.0844H7.08659H7.08878H7.09098H7.09318H7.09538H7.09759H7.09979H7.10201H7.10422H7.10644H7.10866H7.11089H7.11312H7.11535H7.11758H7.11982H7.12206H7.1243H7.12654H7.12879H7.13104H7.1333H7.13555H7.13781H7.14007H7.14234H7.1446H7.14687H7.14914H7.15142H7.15369H7.15597H7.15825H7.16054H7.16282H7.16511H7.1674H7.16969H7.17199H7.17428H7.17658H7.17888H7.18118H7.18349H7.18579H7.1881H7.19041H7.19272H7.19504H7.19735H7.19967H7.20199H7.20431H7.20663H7.20895H7.21128H7.21361H7.21593H7.21826H7.22059H7.22293H7.22526H7.2276H7.22993H7.23227H7.23461H7.23695H7.23929H7.24163H7.24398H7.24632H7.24866H7.25101H7.25336H7.25571H7.25806H7.26041H7.26276H7.26511H7.26746H7.26981H7.27217H7.27452H7.27687H7.27923H7.28159H7.28394H7.2863H7.28866H7.29101H7.29337H7.29573H7.29809H7.30045H7.3028H7.30516H7.30752H7.30988H7.31224H7.3146H7.31696H7.31932H7.32168H7.32404H7.3264H7.32876H7.33112H7.33347H7.33583H7.33819H7.34055H7.34291H7.34526H7.34762H7.34998H7.35233H7.35469H7.35704H7.35939H7.36175H7.3641H7.36645H7.3688H7.37115H7.3735H7.37585H7.3782H7.38055H7.38289H7.38524H7.38758H7.38992H7.39227H7.39461H7.39695H7.39928H7.40162H7.40396H7.40629H7.40863H7.41096H7.41329H7.41562H7.41794H7.42027H7.4226H7.42492H7.42724H7.42956H7.43188H7.43419H7.43651H7.43882H7.44113H7.44344H7.44575H7.44806H7.45036H7.45266H7.45496H7.45726H7.45955H7.46185H7.46414H7.46643H7.46871H7.471H7.47328H7.47556H7.47784H7.48011H7.48239H7.48466H7.48693H7.48919H7.49145H7.49371H7.49597H7.49823H7.50048H7.50273H7.50498H7.50722H7.50946H7.5117H7.51394H7.51617H7.5184H7.52062H7.52285H7.52507H7.52729H7.5295H7.53171H7.53392H7.53612H7.53833H7.54052H7.54272H7.54491H7.5471H7.54928H7.55146H7.55364H7.55582H7.55799H7.56015H7.56232H7.56448H7.56663H7.56878H7.57093H7.57308H7.57522H7.57735H7.57949H7.58162H7.58374H7.58586H7.58798H7.59009H7.5922H7.59431H7.59641H7.5985H7.60059H7.60268H7.60476H7.60684H7.60892H7.61099H7.61305H7.61511H7.61717H7.61922H7.62127H7.62331H7.62535H7.62738H7.62941H7.63144H7.63346H7.63547H7.63748H7.63948H7.64148H7.64348H7.64547H7.64745H7.64943H7.6514H7.65337H7.65534H7.6573H7.65925H7.6612H7.66314H7.66508H7.66701H7.66894H7.67086H7.67277H7.67468H7.67659H7.67849H7.68038H7.68227H7.68415H7.68603H7.6879H7.68976H7.69162H7.69348H7.69532H7.69716H7.699H7.70083H7.70265H7.70447H7.70628H7.70809H7.70988H7.71168H7.71346H7.71524H7.71702H7.71878H7.72055H7.7223H7.72405H7.72579H7.72753H7.72925H7.73098H7.73269H7.7344H7.7361H7.7378H7.73949H7.74117H7.74284H7.74451H7.74617H7.74783H7.74947H7.75111H7.75275H7.75437H7.75599H7.75761H7.75921H7.76081H7.7624H7.76398H7.76556H7.76713H7.76869H7.77024H7.77179H7.77333H7.77486H7.77638H7.7779H7.77941H7.78091H7.7824H7.78389H7.78537H7.78684H7.7883H7.78975H7.7912H7.79264H7.79407H7.79549H7.79691H7.79831H7.79971H7.8011H7.80249H7.80386H7.80523H7.80658H7.80793H7.80927H7.81061H7.81193H7.81325H7.81455H7.81585H7.81714H7.81843H7.8197H7.82096H7.82222H7.82347H7.82471H7.82594H7.82716H7.82837H7.82957H7.83077H7.83195H7.83313H7.8343H7.83545H7.8366H7.83774H7.83887H7.84H7.84111H7.84221H7.84331H7.84439H7.84547H7.84653H7.84759H7.84864H7.84968H7.8507H7.85172H7.85273H7.85373H7.85472H7.8557H7.85667H7.85763H7.85858H7.85952H7.86045H7.86138H7.86229H7.86319H7.86408H7.86496H7.86583H7.86669H7.86755H7.86839H7.86922H7.87004H7.87085H7.87165H7.87244H7.87322H7.87398H7.87474H7.87549H7.87623H7.87696H7.87767H7.87838H7.87907H7.87976H7.88043H7.88109H7.88174H7.88239H7.88302H7.88364H7.88424H7.88484H7.88543H7.886H7.88657H7.88712H7.88766H7.8882H7.88872H7.88922H7.88972H7.89021H7.89068H7.89115H7.8916H7.89204H7.89247H7.89289H7.89329H7.89369H7.89407H7.89444H7.8948H7.89515H7.89548H7.89581H7.89612H7.89642H7.89671H7.89699H7.89725H7.89751H7.89775H7.89798H7.89819H7.8984H7.89859H7.89877H7.89894H7.8991H7.89924H7.89937H7.89949H7.8996H7.89969H7.89977H7.89984H7.8999H7.89994H7.89997H7.89999C7.91676 9 7.93343 8.99959 7.95 8.99877C7.96656 8.99959 7.98323 9 8 9C8.55228 9 9 8.55228 9 8ZM15.7071 14.2929L12.7071 11.2929C12.3166 10.9024 11.6834 10.9024 11.2929 11.2929L8.29289 14.2929C7.90237 14.6834 7.90237 15.3166 8.29289 15.7071C8.68342 16.0976 9.31658 16.0976 9.70711 15.7071L11 14.4142V20C11 20.5523 11.4477 21 12 21C12.5523 21 13 20.5523 13 20V14.4142L14.2929 15.7071C14.6834 16.0976 15.3166 16.0976 15.7071 15.7071C16.0976 15.3166 16.0976 14.6834 15.7071 14.2929Z" fill="#6E778C"/>
</svg>
