<svg width="24" height="24" viewBox="0 0 24 24" fill="none" xmlns="http://www.w3.org/2000/svg">
<path fill-rule="evenodd" clip-rule="evenodd" d="M3 3C1.89543 3 1 3.89543 1 5V17C1 18.1046 1.89543 19 3 19H14C14.5523 19 15 18.5523 15 18C15 17.4477 14.5523 17 14 17H3V10H19V12C19 12.5523 19.4477 13 20 13C20.5523 13 21 12.5523 21 12V5C21 3.89543 20.1046 3 19 3H3ZM19 8V5L3 5V8H19ZM5 14C5 13.4477 5.44772 13 6 13H10C10.5523 13 11 13.4477 11 14C11 14.5523 10.5523 15 10 15H6C5.44772 15 5 14.5523 5 14ZM14 13C13.4477 13 13 13.4477 13 14C13 14.5523 13.4477 15 14 15H16C16.5523 15 17 14.5523 17 14C17 13.4477 16.5523 13 16 13H14ZM17 18C17 17.4477 17.4477 17 18 17H19V16C19 15.4477 19.4477 15 20 15C20.5523 15 21 15.4477 21 16V17H22C22.5523 17 23 17.4477 23 18C23 18.5523 22.5523 19 22 19H21V20C21 20.5523 20.5523 21 20 21C19.4477 21 19 20.5523 19 20V19H18C17.4477 19 17 18.5523 17 18Z" fill="#6E778C"/>
</svg>
