<svg width="24" height="24" viewBox="0 0 24 24" fill="none" xmlns="http://www.w3.org/2000/svg">
<path fill-rule="evenodd" clip-rule="evenodd" d="M14.9091 18.0563V19.1202H18.4588C18.9576 19.1235 19.207 19.3298 19.207 19.7392C19.207 19.9264 19.1515 20.0772 19.0405 20.1916C18.9278 20.3043 18.7704 20.3623 18.5682 20.3656V21.437C18.9062 21.4386 19.1863 21.3665 19.4084 21.2207C19.6304 21.0749 19.7962 20.8777 19.9055 20.6291C20.0149 20.3788 20.0696 20.1004 20.0696 19.7939C20.0696 19.4492 20.0041 19.1467 19.8732 18.8865C19.7406 18.6264 19.5542 18.4234 19.3139 18.2775C19.072 18.13 18.7869 18.0563 18.4588 18.0563H14.9091ZM15.9059 14.6632C16.0169 14.5107 16.1727 14.4245 16.3732 14.4047V13.373C16.07 13.378 15.8031 13.4592 15.5728 13.6167C15.3424 13.7741 15.1626 13.9945 15.0334 14.2779C14.9041 14.5596 14.8395 14.8894 14.8395 15.2672C14.8395 15.6384 14.9041 15.9699 15.0334 16.2615C15.161 16.5532 15.3408 16.7827 15.5728 16.9501C15.8031 17.1158 16.0724 17.1979 16.3807 17.1962C16.7552 17.1979 17.0543 17.0744 17.2781 16.8258C17.5018 16.5772 17.665 16.2383 17.7678 15.8091L17.907 15.2548C17.9732 14.978 18.0528 14.7651 18.1456 14.6159C18.2384 14.4668 18.371 14.3914 18.5433 14.3897C18.7289 14.3914 18.8797 14.4743 18.9957 14.6383C19.1117 14.8007 19.1697 15.0186 19.1697 15.2921C19.1697 15.5721 19.1059 15.8042 18.9783 15.9881C18.8491 16.1704 18.6568 16.2707 18.4016 16.2889V17.3304C18.9518 17.3172 19.3678 17.1266 19.6495 16.7587C19.9312 16.3908 20.0721 15.8978 20.0721 15.2797C20.0721 14.6582 19.9345 14.1743 19.6594 13.8279C19.3827 13.4799 19.0115 13.3051 18.5458 13.3034C18.2624 13.3034 18.0221 13.3697 17.8249 13.5023C17.6261 13.6332 17.4637 13.8139 17.3377 14.0442C17.2118 14.2729 17.1156 14.5347 17.0494 14.8297L16.94 15.2871C16.8886 15.5075 16.8165 15.6981 16.7237 15.8588C16.6293 16.0179 16.4909 16.0958 16.3086 16.0925C16.1445 16.0925 16.0086 16.0221 15.9009 15.8812C15.7932 15.7404 15.7393 15.5382 15.7393 15.2747C15.7393 15.0178 15.7949 14.814 15.9059 14.6632ZM18.8714 8.21689C18.482 8.00642 18.0097 7.90119 17.4545 7.90119C16.8994 7.90119 16.4271 8.00642 16.0376 8.21689C15.6482 8.42569 15.3516 8.7099 15.1477 9.06951C14.9422 9.42913 14.8395 9.83431 14.8395 10.2851C14.8395 10.7375 14.9422 11.1435 15.1477 11.5031C15.3516 11.8627 15.6482 12.1469 16.0376 12.3557C16.4271 12.5645 16.8994 12.6689 17.4545 12.6689C18.0064 12.6689 18.4779 12.5645 18.869 12.3557C19.2584 12.1469 19.5559 11.8627 19.7614 11.5031C19.9669 11.1435 20.0696 10.7375 20.0696 10.2851C20.0696 9.83431 19.9677 9.42913 19.7638 9.06951C19.5584 8.7099 19.2609 8.42569 18.8714 8.21689ZM16.2191 9.34544C16.5025 9.11012 16.9143 8.99245 17.4545 8.99245C17.9931 8.99245 18.4049 9.11012 18.69 9.34544C18.975 9.58076 19.1175 9.89397 19.1175 10.2851C19.1175 10.6762 18.975 10.9894 18.69 11.2247C18.4049 11.46 17.9931 11.5777 17.4545 11.5777C16.9143 11.5777 16.5025 11.46 16.2191 11.2247C15.9341 10.9894 15.7915 10.6762 15.7915 10.2851C15.7915 9.89397 15.9341 9.58076 16.2191 9.34544ZM20 2.8457H14.9091V3.91708L18.1108 3.91708V3.96183L14.9091 6.15927V7.10387L20 7.10387V6.02752L16.7958 6.02752V5.99023L20 3.77539V2.8457ZM5 7.99996C5 7.47822 5.44895 6.73666 6.79036 6.06596C8.07196 5.42516 9.91244 4.99996 12 4.99996C12.5523 4.99996 13 4.55224 13 3.99996C13 3.44767 12.5523 2.99996 12 2.99996C9.66928 2.99996 7.50977 3.47019 5.89593 4.2771C4.34191 5.05411 3 6.31256 3 7.99996C3 8.75422 3.26812 9.42278 3.70347 10.0009C3.27354 10.5757 3 11.2476 3 12C3 12.7542 3.26812 13.4228 3.70347 14.0009C3.27354 14.5757 3 15.2476 3 16C3 17.6874 4.34191 18.9458 5.89593 19.7228C7.50977 20.5297 9.66928 21 12 21C12.5523 21 13 20.5522 13 20C13 19.4477 12.5523 19 12 19C9.91244 19 8.07196 18.5748 6.79036 17.934C5.44895 17.2633 5 16.5217 5 16C5 15.8039 5.05856 15.5803 5.20931 15.3374C5.43073 15.4768 5.6609 15.6053 5.89593 15.7228C7.50977 16.5297 9.66928 17 12 17C12.5523 17 13 16.5522 13 16C13 15.4477 12.5523 15 12 15C9.91244 15 8.07196 14.5748 6.79036 13.934C6.36061 13.7191 6.02247 13.4969 5.76134 13.2771C5.73693 13.2537 5.71158 13.2318 5.68541 13.2113C5.18831 12.768 5 12.3379 5 12C5 11.8039 5.05856 11.5803 5.20931 11.3374C5.43073 11.4768 5.6609 11.6053 5.89593 11.7228C7.50977 12.5297 9.66928 13 12 13C12.5523 13 13 12.5522 13 12C13 11.4477 12.5523 11 12 11C9.91244 11 8.07196 10.5748 6.79036 9.93396C6.36062 9.71908 6.02247 9.49694 5.76134 9.27708C5.73693 9.2537 5.71158 9.23177 5.68541 9.2113C5.18831 8.76796 5 8.33786 5 7.99996Z" fill="#6E778C"/>
</svg>
