<svg width="24" height="24" viewBox="0 0 24 24" fill="none" xmlns="http://www.w3.org/2000/svg">
<path fill-rule="evenodd" clip-rule="evenodd" d="M13.3487 1.06274C13.7834 1.22445 14.0498 1.66381 13.9923 2.12401L13.1328 8.99997H19C19.3688 8.99997 19.7077 9.20296 19.8817 9.52812C20.0557 9.85327 20.0366 10.2478 19.8321 10.5547L11.8321 22.5547C11.5748 22.9406 11.086 23.0989 10.6513 22.9372C10.2166 22.7755 9.9502 22.3361 10.0077 21.8759L10.8672 15H5C4.63121 15 4.29235 14.797 4.11833 14.4718C3.94431 14.1467 3.96338 13.7521 4.16795 13.4453L12.168 1.44527C12.4252 1.05939 12.914 0.90102 13.3487 1.06274ZM6.86852 13H12C12.2868 13 12.5599 13.1231 12.7497 13.3382C12.9395 13.5532 13.0279 13.8394 12.9923 14.124L12.5177 17.9207L17.1315 11H12C11.7132 11 11.4401 10.8768 11.2503 10.6618C11.0605 10.4467 10.9721 10.1606 11.0077 9.87594L11.4823 6.0793L6.86852 13Z" fill="#6E778C"/>
</svg>
