<svg width="24" height="24" viewBox="0 0 24 24" fill="none" xmlns="http://www.w3.org/2000/svg">
<path fill-rule="evenodd" clip-rule="evenodd" d="M4.70711 20.7071L20.7071 4.70711C21.0976 4.31658 21.0976 3.68342 20.7071 3.29289C20.3166 2.90237 19.6834 2.90237 19.2929 3.29289L3.29289 19.2929C2.90237 19.6834 2.90237 20.3166 3.29289 20.7071C3.68342 21.0976 4.31658 21.0976 4.70711 20.7071ZM5 3C3.89543 3 3 3.89543 3 5V15C3 15.5523 3.44772 16 4 16C4.55228 16 5 15.5523 5 15V5L8 5V9C8 9.55228 8.44772 10 9 10C9.55228 10 10 9.55228 10 9V5L14 5C14.5523 5 15 4.55228 15 4C15 3.44772 14.5523 3 14 3H9H5ZM21 19V10C21 9.44772 20.5523 9 20 9C19.4477 9 19 9.44772 19 10V19H16V17C16 15.8954 15.1046 15 14 15H13C12.4477 15 12 15.4477 12 16C12 16.5523 12.4477 17 13 17H14V19H9C8.44772 19 8 19.4477 8 20C8 20.5523 8.44772 21 9 21H15H19C20.1046 21 21 20.1046 21 19Z" fill="#6E778C"/>
</svg>
