<svg width="24" height="24" viewBox="0 0 24 24" fill="none" xmlns="http://www.w3.org/2000/svg">
<path fill-rule="evenodd" clip-rule="evenodd" d="M4 3C2.89543 3 2 3.89543 2 5V10C2 10.5523 2.44772 11 3 11C3.55228 11 4 10.5523 4 10V5H8.58579L11 7.41421C11.3751 7.78929 11.8838 8 12.4142 8H20V18H12C11.4477 18 11 18.4477 11 19C11 19.5523 11.4477 20 12 20H20C21.1046 20 22 19.1046 22 18V8C22 6.89543 21.1046 6 20 6H12.4142L10 3.58579C9.62493 3.21071 9.11622 3 8.58579 3H4ZM4 14C4 13.4477 3.55228 13 3 13C2.44772 13 2 13.4477 2 14V19C2 19.5523 2.44772 20 3 20H8C8.55228 20 9 19.5523 9 19C9 18.4477 8.55228 18 8 18H5.41421L8.70711 14.7071C9.09763 14.3166 9.09763 13.6834 8.70711 13.2929C8.31658 12.9024 7.68342 12.9024 7.29289 13.2929L4 16.5858V14Z" fill="#6E778C"/>
</svg>
