<svg width="24" height="24" viewBox="0 0 24 24" fill="none" xmlns="http://www.w3.org/2000/svg">
<path fill-rule="evenodd" clip-rule="evenodd" d="M11 2C9.89543 2 9 2.89543 9 4V4.62839L8.48882 4.07862C7.71719 3.24875 6.4109 3.2251 5.60973 4.02649L4.02579 5.61088C3.22485 6.41204 3.24859 7.71789 4.07814 8.4894L4.62714 9L4 9C2.89543 9 2 9.89543 2 11V13C2 14.1046 2.89543 15 4 15H4.62786L4.07821 15.5112C3.24861 16.2828 3.22494 17.5887 4.02603 18.3899L5.60989 19.9738C6.41103 20.775 7.71708 20.7514 8.48868 19.9217L9 19.3719V20C9 21.1046 9.89543 22 11 22H13C14.1046 22 15 21.1046 15 20V19.3412L15.5611 19.9343C16.3397 20.7571 17.6456 20.7697 18.4399 19.9621L19.9918 18.3841C20.7818 17.5809 20.7528 16.284 19.9277 15.5169L19.3717 15H20C21.1046 15 22 14.1046 22 13V11C22 9.89543 21.1046 9 20 9H19.3724L19.9278 8.48366C20.7528 7.71664 20.7818 6.41993 19.9921 5.61671L18.44 4.03824C17.6457 3.23038 16.3396 3.243 15.561 4.06605L15 4.65909V4C15 2.89543 14.1046 2 13 2H11ZM11 4L13 4V4.65909C13 6.4678 15.21 7.34747 16.4529 6.0335L17.0139 5.44046L18.566 7.01893L18.0106 7.53527C16.6798 8.77257 17.5553 11 19.3724 11H20V13H19.3717C17.5546 13 16.6791 15.2274 18.0099 16.4647L18.5659 16.9817L17.0139 18.5597L16.4528 17.9666C15.2098 16.6529 13 17.5326 13 19.3412V20H11V19.3719C11 17.5549 8.77286 16.6794 7.53547 18.0099L7.02414 18.5597L5.44028 16.9757L5.98993 16.4645C7.32039 15.2271 6.4448 13 4.62786 13H4V11H4.62714C6.4441 11 7.31968 8.7729 5.9892 7.53549L5.4402 7.02489L7.02414 5.4405L7.53532 5.99027C8.77264 7.32099 11 6.44547 11 4.62839V4ZM11 12C11 11.4477 11.4477 11 12 11C12.5523 11 13 11.4477 13 12C13 12.5523 12.5523 13 12 13C11.4477 13 11 12.5523 11 12ZM12 9C10.3431 9 9 10.3431 9 12C9 13.6569 10.3431 15 12 15C13.6569 15 15 13.6569 15 12C15 10.3431 13.6569 9 12 9Z" fill="#6E778C"/>
</svg>
