<svg width="24" height="24" viewBox="0 0 24 24" fill="none" xmlns="http://www.w3.org/2000/svg">
<path fill-rule="evenodd" clip-rule="evenodd" d="M8.41421 2C7.88378 2 7.37507 2.21071 7 2.58579L2.58579 7C2.21071 7.37507 2 7.88378 2 8.41421V15.5858C2 16.1162 2.21071 16.6249 2.58579 17L7 21.4142C7.37507 21.7893 7.88378 22 8.41421 22H15.5858C16.1162 22 16.6249 21.7893 17 21.4142L21.4142 17C21.7893 16.6249 22 16.1162 22 15.5858V8.41421C22 7.88378 21.7893 7.37507 21.4142 7L17 2.58579C16.6249 2.21071 16.1162 2 15.5858 2H8.41421ZM13 8C13 7.44772 12.5523 7 12 7C11.4477 7 11 7.44772 11 8V13C11 13.5523 11.4477 14 12 14C12.5523 14 13 13.5523 13 13V8ZM12 17C12.5523 17 13 16.5523 13 16C13 15.4477 12.5523 15 12 15C11.4477 15 11 15.4477 11 16C11 16.5523 11.4477 17 12 17Z" fill="#6E778C"/>
</svg>
