<svg width="24" height="24" viewBox="0 0 24 24" fill="none" xmlns="http://www.w3.org/2000/svg">
<path fill-rule="evenodd" clip-rule="evenodd" d="M4.00002 3C4.55231 3 5.00002 3.44772 5.00002 4V13.8611L7.02519 12.1686C7.76764 11.5481 8.84779 11.5481 9.59024 12.1686L12.5159 14.6136L17.2558 9.33209C17.6247 8.92106 18.2569 8.88688 18.6679 9.25576C19.079 9.62463 19.1131 10.2569 18.7443 10.6679L14.0044 15.9495C13.285 16.7511 12.0599 16.839 11.2334 16.1483L8.30772 13.7032L5.00002 16.4675V19H20C20.5523 19 21 19.4477 21 20C21 20.5523 20.5523 21 20 21H5.00002C3.89545 21 3.00002 20.1046 3.00002 19V16.0075C2.99999 16.0029 2.99999 15.9982 3.00002 15.9935V4C3.00002 3.44772 3.44774 3 4.00002 3ZM12 3C12.5523 3 13 3.44772 13 4V7.58579L14.2929 6.29289C14.6834 5.90237 15.3166 5.90237 15.7071 6.29289C16.0977 6.68342 16.0977 7.31658 15.7071 7.70711L12.7071 10.7071C12.3166 11.0976 11.6834 11.0976 11.2929 10.7071L8.29292 7.70711C7.90239 7.31658 7.90239 6.68342 8.29292 6.29289C8.68344 5.90237 9.31661 5.90237 9.70713 6.29289L11 7.58579V4C11 3.44772 11.4477 3 12 3Z" fill="#6E778C"/>
</svg>
