<svg width="24" height="24" viewBox="0 0 24 24" fill="none" xmlns="http://www.w3.org/2000/svg">
<path fill-rule="evenodd" clip-rule="evenodd" d="M6 2C6.55228 2 7 2.44772 7 3V6H10C10.5523 6 11 6.44772 11 7C11 7.55228 10.5523 8 10 8H7V12H10C10.5523 12 11 12.4477 11 13C11 13.5523 10.5523 14 10 14H7V18H15.5858L15.2929 17.7071C14.9024 17.3166 14.9024 16.6834 15.2929 16.2929C15.6834 15.9024 16.3166 15.9024 16.7071 16.2929L18.7071 18.2929C19.0976 18.6834 19.0976 19.3166 18.7071 19.7071L16.7071 21.7071C16.3166 22.0976 15.6834 22.0976 15.2929 21.7071C14.9024 21.3166 14.9024 20.6834 15.2929 20.2929L15.5858 20H7C5.89543 20 5 19.1046 5 18V13V7V3C5 2.44772 5.44772 2 6 2Z" fill="#6E778C"/>
</svg>
