<svg width="24" height="24" viewBox="0 0 24 24" fill="none" xmlns="http://www.w3.org/2000/svg">
<path fill-rule="evenodd" clip-rule="evenodd" d="M4 1C2.89543 1 2 1.89543 2 3V21C2 22.1046 2.89543 23 4 23H20C21.1046 23 22 22.1046 22 21V3C22 1.89543 21.1046 1 20 1H4ZM4 3L20 3V17H4V3ZM4 19V21H6V19H4ZM8 19V21H20V19H8ZM6 6C6 5.44772 6.44772 5 7 5H17C17.5523 5 18 5.44772 18 6C18 6.55228 17.5523 7 17 7H7C6.44772 7 6 6.55228 6 6ZM7 9C6.44772 9 6 9.44771 6 10C6 10.5523 6.44772 11 7 11H15C15.5523 11 16 10.5523 16 10C16 9.44771 15.5523 9 15 9H7ZM6 14C6 13.4477 6.44772 13 7 13H13C13.5523 13 14 13.4477 14 14C14 14.5523 13.5523 15 13 15H7C6.44772 15 6 14.5523 6 14Z" fill="#6E778C"/>
</svg>
