<svg width="24" height="24" viewBox="0 0 24 24" fill="none" xmlns="http://www.w3.org/2000/svg">
<path fill-rule="evenodd" clip-rule="evenodd" d="M8 6.5C8 5.11929 9.11929 4 10.5 4C11.8807 4 13 5.11929 13 6.5C13 6.50033 13 6.50066 13 6.50099V15.999C13 15.9993 13 15.9997 13 16C13 16.5523 12.5523 17 12 17C11.4478 17 11.0001 16.5524 11 16.0001V16V7C11 6.44772 10.5523 6 10 6C9.44772 6 9 6.44772 9 7L9 15.999L9 16C9 17.6569 10.3431 19 12 19C13.6569 19 15 17.6569 15 16V6.5C15 4.01472 12.9853 2 10.5 2C8.01472 2 6 4.01472 6 6.5V16C6 19.3137 8.68629 22 12 22C15.3137 22 18 19.3137 18 16V6C18 5.44772 17.5523 5 17 5C16.4477 5 16 5.44772 16 6V16C16 18.2091 14.2091 20 12 20C9.79086 20 8 18.2091 8 16V6.5Z" fill="#6E778C"/>
</svg>
