<svg width="24" height="24" viewBox="0 0 24 24" fill="none" xmlns="http://www.w3.org/2000/svg">
<path fill-rule="evenodd" clip-rule="evenodd" d="M5 5C4.44772 5 4 5.44772 4 6V8H3C2.73478 8 2.48043 8.10536 2.29289 8.29289C2.10536 8.48043 2 8.73478 2 9V15C2 15.5523 2.44772 16 3 16H3.05001C3.01722 16.1616 3 16.3288 3 16.5C3 17.8807 4.11929 19 5.5 19C6.88071 19 8 17.8807 8 16.5C8 15.1193 6.88071 14 5.5 14H4V10H5C5.55228 10 6 9.55228 6 9V7H8.43381L11 11.277V13H10C9.44772 13 9 13.4477 9 14V15C9 15.5523 9.44772 16 10 16H13.2561C13.8738 17.7478 15.5407 19 17.5 19C19.9853 19 22 16.9853 22 14.5C22 12.0147 19.9853 10 17.5 10C15.5407 10 13.8738 11.2522 13.2561 13H13V11C13 10.8188 12.9507 10.6409 12.8575 10.4855L9.85749 5.4855C9.67677 5.1843 9.35126 5 9 5H5ZM5.5 16C5.22386 16 5 16.2239 5 16.5C5 16.7761 5.22386 17 5.5 17C5.77614 17 6 16.7761 6 16.5C6 16.2239 5.77614 16 5.5 16ZM17.5 12C16.6821 12 15.9559 12.3928 15.4998 13H18C18.5523 13 19 13.4477 19 14V15C19 15.5523 18.5523 16 18 16H15.4998C15.9559 16.6072 16.6821 17 17.5 17C18.8807 17 20 15.8807 20 14.5C20 13.1193 18.8807 12 17.5 12Z" fill="#6E778C"/>
</svg>
