<svg width="24" height="24" viewBox="0 0 24 24" fill="none" xmlns="http://www.w3.org/2000/svg">
<path fill-rule="evenodd" clip-rule="evenodd" d="M7.95409 6.56484C8.83236 5.02786 11.1273 5.30557 11.6136 7.00767L14.3094 16.443L16.8438 12.0078C17.1999 11.3846 17.8626 11.0001 18.5803 11.0001H21C21.5523 11.0001 22 11.4478 22 12.0001C22 12.5523 21.5523 13.0001 21 13.0001H18.5803L16.0459 17.4353C15.1676 18.9723 12.8727 18.6945 12.3864 16.9924L9.69057 7.55712L7.15616 11.9923C6.80008 12.6155 6.13739 13.0001 5.41968 13.0001H3C2.44772 13.0001 2 12.5523 2 12.0001C2 11.4478 2.44772 11.0001 3 11.0001H5.41968L7.95409 6.56484Z" fill="#6E778C"/>
</svg>
