<svg width="24" height="24" viewBox="0 0 24 24" fill="none" xmlns="http://www.w3.org/2000/svg">
<path fill-rule="evenodd" clip-rule="evenodd" d="M15.5856 2C16.3667 1.21895 17.633 1.21895 18.4141 2L21.9998 5.58579C22.7809 6.36684 22.7809 7.63317 21.9998 8.41422L8.41406 22C7.63301 22.781 6.36669 22.7811 5.58564 22L1.99985 18.4142C1.2188 17.6332 1.2188 16.3668 1.99985 15.5858L15.5856 2ZM7.49985 12.9142L5.91406 14.5L7.70696 16.2929C8.09748 16.6834 8.09748 17.3166 7.70696 17.7071C7.31643 18.0976 6.68327 18.0976 6.29274 17.7071L4.49985 15.9142L3.41406 17L6.99985 20.5858L20.5856 7L16.9998 3.41422L11.9141 8.5L13.707 10.2929C14.0975 10.6834 14.0975 11.3166 13.707 11.7071C13.3164 12.0976 12.6833 12.0976 12.2927 11.7071L10.4998 9.91422L8.91406 11.5L9.70696 12.2929C10.0975 12.6834 10.0975 13.3166 9.70696 13.7071C9.31643 14.0976 8.68327 14.0976 8.29274 13.7071L7.49985 12.9142ZM17.9998 7C17.9998 7.55229 17.5521 8 16.9998 8C16.4476 8 15.9998 7.55229 15.9998 7C15.9998 6.44772 16.4476 6 16.9998 6C17.5521 6 17.9998 6.44772 17.9998 7Z" fill="#6E778C"/>
</svg>
