<svg width="24" height="24" viewBox="0 0 24 24" fill="none" xmlns="http://www.w3.org/2000/svg">
<path fill-rule="evenodd" clip-rule="evenodd" d="M18 5C17.4477 5 17 5.44772 17 6C17 6.55228 17.4477 7 18 7C18.5523 7 19 6.55228 19 6C19 5.44772 18.5523 5 18 5ZM15 6C15 4.34315 16.3431 3 18 3C19.6569 3 21 4.34315 21 6C21 7.65685 19.6569 9 18 9C17.1811 9 16.4388 8.67187 15.8974 8.13991L7.98077 11.6584C7.99347 11.7705 8 11.8845 8 12C8 12.1155 7.99347 12.2295 7.98077 12.3416L15.8974 15.8601C16.4388 15.3281 17.1811 15 18 15C19.6569 15 21 16.3431 21 18C21 19.6569 19.6569 21 18 21C16.3431 21 15 19.6569 15 18C15 17.8845 15.0065 17.7705 15.0192 17.6584L7.10257 14.1399C6.56122 14.6719 5.81893 15 5 15C3.34315 15 2 13.6569 2 12C2 10.3431 3.34315 9 5 9C5.81893 9 6.56122 9.32813 7.10257 9.86009L15.0192 6.34158C15.0065 6.22948 15 6.1155 15 6ZM5 11C4.44772 11 4 11.4477 4 12C4 12.5523 4.44772 13 5 13C5.55228 13 6 12.5523 6 12C6 11.4477 5.55228 11 5 11ZM17 18C17 17.4477 17.4477 17 18 17C18.5523 17 19 17.4477 19 18C19 18.5523 18.5523 19 18 19C17.4477 19 17 18.5523 17 18Z" fill="#6E778C"/>
</svg>
