<svg width="24" height="24" viewBox="0 0 24 24" fill="none" xmlns="http://www.w3.org/2000/svg">
<path fill-rule="evenodd" clip-rule="evenodd" d="M4 1C2.89543 1 2 1.89543 2 3V21C2 22.1046 2.89543 23 4 23H20C21.1046 23 22 22.1046 22 21V3C22 1.89543 21.1046 1 20 1H4ZM4 3L20 3V17H4V3ZM4 19V21H6V19H4ZM20 19V21H8V19H20ZM13 10C13 9.44771 13.4477 9 14 9H17C17.5523 9 18 9.44771 18 10C18 10.5523 17.5523 11 17 11H14C13.4477 11 13 10.5523 13 10ZM7 13C6.44772 13 6 13.4477 6 14C6 14.5523 6.44772 15 7 15H17C17.5523 15 18 14.5523 18 14C18 13.4477 17.5523 13 17 13H7ZM12.8 6.6C13.1314 6.15817 13.0418 5.53137 12.6 5.2C12.1582 4.86863 11.5314 4.95817 11.2 5.4L8.89181 8.47759L7.70711 7.29288C7.31659 6.90235 6.68342 6.90235 6.29289 7.29288C5.90237 7.6834 5.90237 8.31656 6.29289 8.70709L8.2929 10.7071C8.49788 10.9121 8.78173 11.018 9.07089 10.9975C9.36006 10.9769 9.62607 10.8319 9.80001 10.6L12.8 6.6Z" fill="#6E778C"/>
</svg>
