<svg width="24" height="24" viewBox="0 0 24 24" fill="none" xmlns="http://www.w3.org/2000/svg">
<path fill-rule="evenodd" clip-rule="evenodd" d="M6 4C6 2.89543 6.89543 2 8 2H20C21.1046 2 22 2.89543 22 4V16C22 17.1046 21.1046 18 20 18H19V19C19 20.1046 18.1046 21 17 21H5C3.89543 21 3 20.1046 3 19V7C3 5.89543 3.89543 5 5 5H6V4ZM6 7L5 7V19H17V18H8C6.89543 18 6 17.1046 6 16V7ZM18 16H8V6V4L20 4V16H18ZM18.3162 6.94868C18.8402 6.77404 19.1233 6.20772 18.9487 5.68377C18.774 5.15983 18.2077 4.87667 17.6838 5.05132L15.3675 5.82339C14.5509 6.09562 14 6.8599 14 7.72076V9.17071C13.6872 9.06015 13.3506 9 13 9C11.3431 9 10 10.3431 10 12C10 13.6569 11.3431 15 13 15C14.6569 15 16 13.6569 16 12V7.72076L18.3162 6.94868ZM14 12C14 11.4477 13.5523 11 13 11C12.4477 11 12 11.4477 12 12C12 12.5523 12.4477 13 13 13C13.5523 13 14 12.5523 14 12Z" fill="#6E778C"/>
</svg>
