<svg width="24" height="24" viewBox="0 0 24 24" fill="none" xmlns="http://www.w3.org/2000/svg">
<path fill-rule="evenodd" clip-rule="evenodd" d="M14 5.13505C14 3.43937 12.0223 2.51306 10.7196 3.59861L6.71963 6.93194C6.26365 7.31193 6 7.87482 6 8.46838V19C6 20.1046 6.89543 21 8 21H17.3406C18.1407 21 18.8637 20.5232 19.1789 19.7878L21.8383 13.5826C21.945 13.3336 22 13.0656 22 12.7947V10C22 8.89544 21.1046 8.00001 20 8.00001H14V5.13505ZM8 8.46838L12 5.13505V8.00001C12 9.10458 12.8954 10 14 10H20V12.7947L17.3406 19H8L8 8.46838ZM4 8.00001C4 7.44772 3.55228 7.00001 3 7.00001C2.44772 7.00001 2 7.44772 2 8.00001V20C2 20.5523 2.44772 21 3 21C3.55228 21 4 20.5523 4 20V8.00001Z" fill="#6E778C"/>
</svg>
