<svg width="24" height="24" viewBox="0 0 24 24" fill="none" xmlns="http://www.w3.org/2000/svg">
<path fill-rule="evenodd" clip-rule="evenodd" d="M6 10C4.89543 10 4 10.8954 4 12C4 13.1046 4.89543 14 6 14C7.10457 14 8 13.1046 8 12C8 10.8954 7.10457 10 6 10ZM9.46487 14C9.80521 13.4117 10 12.7286 10 12C10 9.79086 8.20914 8 6 8C3.79086 8 2 9.79086 2 12C2 14.2091 3.79086 16 6 16H18C20.2091 16 22 14.2091 22 12C22 9.79086 20.2091 8 18 8C15.7909 8 14 9.79086 14 12C14 12.7286 14.1948 13.4117 14.5351 14H9.46487ZM18 14C19.1046 14 20 13.1046 20 12C20 10.8954 19.1046 10 18 10C16.8954 10 16 10.8954 16 12C16 13.1046 16.8954 14 18 14Z" fill="#6E778C"/>
</svg>
