<svg width="24" height="24" viewBox="0 0 24 24" fill="none" xmlns="http://www.w3.org/2000/svg">
<path fill-rule="evenodd" clip-rule="evenodd" d="M12.9713 2.39524L20.9713 6.83968C21.6062 7.19242 22 7.86166 22 8.588V19.9996C22 21.1042 21.1046 21.9996 20 21.9996H4C2.89543 21.9996 2 21.1042 2 19.9996V8.588C2 7.86166 2.39378 7.19242 3.02871 6.83968L11.0287 2.39524C11.6328 2.05966 12.3672 2.05966 12.9713 2.39524ZM4.64186 8.23141L12.0001 13.7501L19.3582 8.23145L12 4.14355L4.64186 8.23141ZM4 10.25V19.9996H20V10.2501L13.2001 15.3501C12.4889 15.8834 11.5112 15.8834 10.8001 15.3501L4 10.25Z" fill="#777B92"/>
</svg>
