<svg width="24" height="24" viewBox="0 0 24 24" fill="none" xmlns="http://www.w3.org/2000/svg">
<path fill-rule="evenodd" clip-rule="evenodd" d="M8.61825 3C7.86071 3 7.16818 3.428 6.8294 4.10557L3.10579 11.5528C2.96602 11.8323 2.96947 12.146 3.08831 12.4105C3.0309 12.5968 3 12.7948 3 13V19C3 20.1046 3.89543 21 5 21H19C20.1046 21 21 20.1046 21 19V13C21 12.795 20.9692 12.5972 20.9119 12.411C21.031 12.1465 21.0345 11.8325 20.8946 11.5528L17.171 4.10557C16.8323 3.428 16.1397 3 15.3822 3H8.61825ZM18.3822 11H17C15.8954 11 15 11.8954 15 13V15H9V13C9 11.8954 8.10457 11 7 11H5.61825L8.61825 5H15.3822L18.3822 11ZM5 13H7V15C7 16.1046 7.89543 17 9 17H15C16.1046 17 17 16.1046 17 15V13H19V19H5V13Z" fill="#777B92"/>
</svg>
