<svg width="24" height="24" viewBox="0 0 24 24" fill="none" xmlns="http://www.w3.org/2000/svg">
<path fill-rule="evenodd" clip-rule="evenodd" d="M13 4C13 3.44772 12.5523 3 12 3C11.4477 3 11 3.44772 11 4V20C11 20.5523 11.4477 21 12 21C12.5523 21 13 20.5523 13 20V4ZM5.29289 9.29289C5.68342 8.90237 6.31658 8.90237 6.70711 9.29289L8.70711 11.2929C8.89464 11.4804 9 11.7348 9 12C9 12.2652 8.89464 12.5196 8.70711 12.7071L6.70711 14.7071C6.31658 15.0976 5.68342 15.0976 5.29289 14.7071C4.90237 14.3166 4.90237 13.6834 5.29289 13.2929L5.58579 13H2C1.44772 13 1 12.5523 1 12C1 11.4477 1.44772 11 2 11H5.58579L5.29289 10.7071C4.90237 10.3166 4.90237 9.68342 5.29289 9.29289ZM18.7071 9.29289C19.0976 9.68342 19.0976 10.3166 18.7071 10.7071L18.4142 11H22C22.5523 11 23 11.4477 23 12C23 12.5523 22.5523 13 22 13H18.4142L18.7071 13.2929C19.0976 13.6834 19.0976 14.3166 18.7071 14.7071C18.3166 15.0976 17.6834 15.0976 17.2929 14.7071L15.2929 12.7071C15.1054 12.5196 15 12.2652 15 12C15 11.7348 15.1054 11.4804 15.2929 11.2929L17.2929 9.29289C17.6834 8.90237 18.3166 8.90237 18.7071 9.29289Z" fill="#777B92"/>
</svg>
