<svg width="24" height="24" viewBox="0 0 24 24" fill="none" xmlns="http://www.w3.org/2000/svg">
<path fill-rule="evenodd" clip-rule="evenodd" d="M4 3C3.44772 3 3 3.44772 3 4V20C3 20.5523 3.44772 21 4 21H5C5.55228 21 6 20.5523 6 20V4C6 3.44772 5.55228 3 5 3H4ZM9 3C8.44772 3 8 3.44772 8 4V20C8 20.5523 8.44772 21 9 21H15C15.5523 21 16 20.5523 16 20V4C16 3.44772 15.5523 3 15 3H9ZM18 4C18 3.44772 18.4477 3 19 3H20C20.5523 3 21 3.44772 21 4V20C21 20.5523 20.5523 21 20 21H19C18.4477 21 18 20.5523 18 20V4Z" fill="#777B92"/>
</svg>
