<svg width="24" height="24" viewBox="0 0 24 24" fill="none" xmlns="http://www.w3.org/2000/svg">
<path fill-rule="evenodd" clip-rule="evenodd" d="M4 9C4.55228 9 5 8.55228 5 8C5 7.44771 4.55228 7 4 7C3.44772 7 3 7.44771 3 8C3 8.55228 3.44772 9 4 9ZM9 20C9 20.5523 8.55228 21 8 21C7.44771 21 7 20.5523 7 20C7 19.4477 7.44771 19 8 19C8.55228 19 9 19.4477 9 20ZM13 20C13 20.5523 12.5523 21 12 21C11.4477 21 11 20.5523 11 20C11 19.4477 11.4477 19 12 19C12.5523 19 13 19.4477 13 20ZM12 17C12.5523 17 13 16.5523 13 16C13 15.4477 12.5523 15 12 15C11.4477 15 11 15.4477 11 16C11 16.5523 11.4477 17 12 17ZM17 20C17 20.5523 16.5523 21 16 21C15.4477 21 15 20.5523 15 20C15 19.4477 15.4477 19 16 19C16.5523 19 17 19.4477 17 20ZM20 9C20.5523 9 21 8.55228 21 8C21 7.44771 20.5523 7 20 7C19.4477 7 19 7.44771 19 8C19 8.55228 19.4477 9 20 9ZM21 12C21 12.5523 20.5523 13 20 13C19.4477 13 19 12.5523 19 12C19 11.4477 19.4477 11 20 11C20.5523 11 21 11.4477 21 12ZM5 12C5 12.5523 4.55228 13 4 13C3.44772 13 3 12.5523 3 12C3 11.4477 3.44772 11 4 11C4.55228 11 5 11.4477 5 12ZM8 13C8.55228 13 9 12.5523 9 12C9 11.4477 8.55228 11 8 11C7.44771 11 7 11.4477 7 12C7 12.5523 7.44771 13 8 13ZM13 12C13 12.5523 12.5523 13 12 13C11.4477 13 11 12.5523 11 12C11 11.4477 11.4477 11 12 11C12.5523 11 13 11.4477 13 12ZM12 9C12.5523 9 13 8.55228 13 8C13 7.44771 12.5523 7 12 7C11.4477 7 11 7.44771 11 8C11 8.55228 11.4477 9 12 9ZM17 12C17 12.5523 16.5523 13 16 13C15.4477 13 15 12.5523 15 12C15 11.4477 15.4477 11 16 11C16.5523 11 17 11.4477 17 12ZM20 17C20.5523 17 21 16.5523 21 16C21 15.4477 20.5523 15 20 15C19.4477 15 19 15.4477 19 16C19 16.5523 19.4477 17 20 17ZM5 16C5 16.5523 4.55228 17 4 17C3.44772 17 3 16.5523 3 16C3 15.4477 3.44772 15 4 15C4.55228 15 5 15.4477 5 16ZM20 21C20.5523 21 21 20.5523 21 20C21 19.4477 20.5523 19 20 19C19.4477 19 19 19.4477 19 20C19 20.5523 19.4477 21 20 21ZM5 20C5 20.5523 4.55228 21 4 21C3.44772 21 3 20.5523 3 20C3 19.4477 3.44772 19 4 19C4.55228 19 5 19.4477 5 20ZM4 3C3.44772 3 3 3.44772 3 4C3 4.55228 3.44772 5 4 5L20 5C20.5523 5 21 4.55229 21 4C21 3.44771 20.5523 3 20 3L4 3Z" fill="#777B92"/>
</svg>
