<svg width="24" height="24" viewBox="0 0 24 24" fill="none" xmlns="http://www.w3.org/2000/svg">
<path fill-rule="evenodd" clip-rule="evenodd" d="M20 5C20.5523 5 21 4.55228 21 4C21 3.44772 20.5523 3 20 3C19.4477 3 19 3.44772 19 4C19 4.55228 19.4477 5 20 5ZM17 12C17 12.5523 16.5523 13 16 13C15.4477 13 15 12.5523 15 12C15 11.4477 15.4477 11 16 11C16.5523 11 17 11.4477 17 12ZM16 5C16.5523 5 17 4.55228 17 4C17 3.44772 16.5523 3 16 3C15.4477 3 15 3.44772 15 4C15 4.55228 15.4477 5 16 5ZM8 5C8.55228 5 9 4.55228 9 4C9 3.44772 8.55228 3 8 3C7.44771 3 7 3.44772 7 4C7 4.55228 7.44771 5 8 5ZM4 5C4.55228 5 5 4.55228 5 4C5 3.44772 4.55228 3 4 3C3.44772 3 3 3.44772 3 4C3 4.55228 3.44772 5 4 5ZM8 13C8.55228 13 9 12.5523 9 12C9 11.4477 8.55228 11 8 11C7.44771 11 7 11.4477 7 12C7 12.5523 7.44771 13 8 13ZM9 20C9 20.5523 8.55228 21 8 21C7.44771 21 7 20.5523 7 20C7 19.4477 7.44771 19 8 19C8.55228 19 9 19.4477 9 20ZM16 21C16.5523 21 17 20.5523 17 20C17 19.4477 16.5523 19 16 19C15.4477 19 15 19.4477 15 20C15 20.5523 15.4477 21 16 21ZM12 3C12.5523 3 13 3.44772 13 4L13 20C13 20.5523 12.5523 21 12 21C11.4477 21 11 20.5523 11 20L11 4C11 3.44772 11.4477 3 12 3ZM21 8C21 8.55228 20.5523 9 20 9C19.4477 9 19 8.55228 19 8C19 7.44771 19.4477 7 20 7C20.5523 7 21 7.44771 21 8ZM4 9C4.55228 9 5 8.55228 5 8C5 7.44772 4.55228 7 4 7C3.44772 7 3 7.44771 3 8C3 8.55228 3.44772 9 4 9ZM21 12C21 12.5523 20.5523 13 20 13C19.4477 13 19 12.5523 19 12C19 11.4477 19.4477 11 20 11C20.5523 11 21 11.4477 21 12ZM4 13C4.55228 13 5 12.5523 5 12C5 11.4477 4.55228 11 4 11C3.44772 11 3 11.4477 3 12C3 12.5523 3.44772 13 4 13ZM21 16C21 16.5523 20.5523 17 20 17C19.4477 17 19 16.5523 19 16C19 15.4477 19.4477 15 20 15C20.5523 15 21 15.4477 21 16ZM4 17C4.55228 17 5 16.5523 5 16C5 15.4477 4.55228 15 4 15C3.44772 15 3 15.4477 3 16C3 16.5523 3.44772 17 4 17ZM21 20C21 20.5523 20.5523 21 20 21C19.4477 21 19 20.5523 19 20C19 19.4477 19.4477 19 20 19C20.5523 19 21 19.4477 21 20ZM4 21C4.55228 21 5 20.5523 5 20C5 19.4477 4.55228 19 4 19C3.44772 19 3 19.4477 3 20C3 20.5523 3.44771 21 4 21Z" fill="#777B92"/>
</svg>
