<svg width="24" height="24" viewBox="0 0 24 24" fill="none" xmlns="http://www.w3.org/2000/svg">
<path fill-rule="evenodd" clip-rule="evenodd" d="M3 4C3 2.89543 3.89543 2 5 2H6C6.55228 2 7 2.44772 7 3C7 3.55228 6.55228 4 6 4H5V9.58579C5 10.1162 4.78929 10.6249 4.41421 11L3.41421 12L4.41421 13C4.78929 13.3751 5 13.8838 5 14.4142V20H6C6.55228 20 7 20.4477 7 21C7 21.5523 6.55228 22 6 22H5C3.89543 22 3 21.1046 3 20L3 14.4142L1.29289 12.7071C1.10536 12.5196 1 12.2652 1 12C1 11.7348 1.10536 11.4804 1.29289 11.2929L3 9.58579V4ZM9 18C9 18.5523 8.55228 19 8 19C7.44772 19 7 18.5523 7 18C7 17.4477 7.44772 17 8 17C8.55228 17 9 17.4477 9 18ZM13 18C13 18.5523 12.5523 19 12 19C11.4477 19 11 18.5523 11 18C11 17.4477 11.4477 17 12 17C12.5523 17 13 17.4477 13 18ZM16 19C16.5523 19 17 18.5523 17 18C17 17.4477 16.5523 17 16 17C15.4477 17 15 17.4477 15 18C15 18.5523 15.4477 19 16 19ZM18 2C17.4477 2 17 2.44772 17 3C17 3.55228 17.4477 4 18 4H19V9.58579C19 10.1162 19.2107 10.6249 19.5858 11L20.5858 12L19.5858 13C19.2107 13.3751 19 13.8838 19 14.4142V20H18C17.4477 20 17 20.4477 17 21C17 21.5523 17.4477 22 18 22H19C20.1046 22 21 21.1046 21 20V14.4142L22.7071 12.7071C22.8946 12.5196 23 12.2652 23 12C23 11.7348 22.8946 11.4804 22.7071 11.2929L21 9.58579V4C21 2.89543 20.1046 2 19 2H18Z" fill="#777B92"/>
</svg>
