<svg width="24" height="24" viewBox="0 0 24 24" fill="none" xmlns="http://www.w3.org/2000/svg">
<path fill-rule="evenodd" clip-rule="evenodd" d="M9 3C8.44772 3 8 3.44772 8 4V20C8 20.5523 8.44772 21 9 21H15C15.5523 21 16 20.5523 16 20V4C16 3.44772 15.5523 3 15 3H9ZM18 7C18 6.44772 18.4477 6 19 6H20C20.5523 6 21 6.44772 21 7V17C21 17.5523 20.5523 18 20 18H19C18.4477 18 18 17.5523 18 17V7ZM4 6C3.44772 6 3 6.44772 3 7V17C3 17.5523 3.44772 18 4 18H5C5.55228 18 6 17.5523 6 17V7C6 6.44772 5.55228 6 5 6H4Z" fill="#777B92"/>
</svg>
