<svg width="24" height="24" viewBox="0 0 24 24" fill="none" xmlns="http://www.w3.org/2000/svg">
<path fill-rule="evenodd" clip-rule="evenodd" d="M8.76827 6.64021C9.12183 6.21593 9.06451 5.58537 8.64023 5.2318C8.21596 4.87824 7.58539 4.93556 7.23183 5.35984L2.76532 10.7197C2.14724 11.4613 2.14724 12.5387 2.76532 13.2804L7.23183 18.6402C7.58539 19.0645 8.21596 19.1218 8.64023 18.7682C9.06451 18.4147 9.12183 17.7841 8.76827 17.3598L4.30176 12L8.76827 6.64021ZM16.7683 5.35984C16.4147 4.93556 15.7841 4.87824 15.3599 5.2318C14.9356 5.58537 14.8783 6.21593 15.2318 6.64021L19.6983 12L15.2318 17.3598C14.8783 17.7841 14.9356 18.4147 15.3599 18.7682C15.7841 19.1218 16.4147 19.0645 16.7683 18.6402L21.2348 13.2804C21.8529 12.5387 21.8529 11.4613 21.2348 10.7197L16.7683 5.35984Z" fill="#777B92"/>
</svg>
