<svg width="24" height="24" viewBox="0 0 24 24" fill="none" xmlns="http://www.w3.org/2000/svg">
<path fill-rule="evenodd" clip-rule="evenodd" d="M12.7071 2.29289C12.3166 1.90237 11.6834 1.90237 11.2929 2.29289L8.29289 5.29289C7.90237 5.68342 7.90237 6.31658 8.29289 6.70711L11.2929 9.70711C11.6834 10.0976 12.3166 10.0976 12.7071 9.70711L15.7071 6.70711C16.0976 6.31658 16.0976 5.68342 15.7071 5.29289L12.7071 2.29289ZM12 7.58579L10.4142 6L12 4.41421L13.5858 6L12 7.58579ZM15.7071 17.2929L12.7071 14.2929C12.3166 13.9024 11.6834 13.9024 11.2929 14.2929L8.29289 17.2929C7.90237 17.6834 7.90237 18.3166 8.29289 18.7071L11.2929 21.7071C11.6834 22.0976 12.3166 22.0976 12.7071 21.7071L15.7071 18.7071C16.0976 18.3166 16.0976 17.6834 15.7071 17.2929ZM12 19.5858L10.4142 18L12 16.4142L13.5858 18L12 19.5858ZM17.2929 8.29289C17.6834 7.90237 18.3166 7.90237 18.7071 8.29289L21.7071 11.2929C22.0976 11.6834 22.0976 12.3166 21.7071 12.7071L18.7071 15.7071C18.3166 16.0976 17.6834 16.0976 17.2929 15.7071L14.2929 12.7071C13.9024 12.3166 13.9024 11.6834 14.2929 11.2929L17.2929 8.29289ZM16.4142 12L18 13.5858L19.5858 12L18 10.4142L16.4142 12ZM6.70711 8.29289C6.31658 7.90237 5.68342 7.90237 5.29289 8.29289L2.29289 11.2929C1.90237 11.6834 1.90237 12.3166 2.29289 12.7071L5.29289 15.7071C5.68342 16.0976 6.31658 16.0976 6.70711 15.7071L9.70711 12.7071C10.0976 12.3166 10.0976 11.6834 9.70711 11.2929L6.70711 8.29289ZM6 13.5858L4.41421 12L6 10.4142L7.58579 12L6 13.5858Z" fill="#777B92"/>
</svg>
