<svg width="24" height="24" viewBox="0 0 24 24" fill="none" xmlns="http://www.w3.org/2000/svg">
<path fill-rule="evenodd" clip-rule="evenodd" d="M7.58564 4.00009C8.36669 3.21904 9.63302 3.21905 10.4141 4.00009L13.9999 7.58588C14.7809 8.36693 14.7809 9.63326 13.9998 10.4143L10.4141 14.0001C9.63301 14.7811 8.36668 14.7811 7.58564 14.0001L3.99985 10.4143C3.2188 9.63326 3.2188 8.36693 3.99985 7.58588L7.58564 4.00009ZM8.99985 5.41431L6.41406 8.00009H11.5856L8.99985 5.41431ZM8.99985 12.5859L6.41406 10.0001H11.5856L8.99985 12.5859ZM4.99985 19.0001C4.44756 19.0001 3.99985 19.4478 3.99985 20.0001C3.99985 20.5524 4.44756 21.0001 4.99985 21.0001H18.9998C19.5521 21.0001 19.9998 20.5524 19.9998 20.0001C19.9998 19.4478 19.5521 19.0001 18.9998 19.0001H4.99985ZM17.9998 14.0001C17.9998 14.5524 17.5521 15.0001 16.9998 15.0001C16.4476 15.0001 15.9998 14.5524 15.9998 14.0001C15.9998 13.6276 16.2147 13.0664 16.6613 12.5305C16.7915 12.3742 16.9201 12.2469 17.0337 12.1496C17.1379 12.2392 17.2561 12.3582 17.3763 12.507C17.7849 13.0128 17.9998 13.5829 17.9998 14.0001ZM17.3262 11.946C17.3262 11.9465 17.3197 11.9498 17.3069 11.9546C17.3199 11.948 17.3263 11.9455 17.3262 11.946ZM16.7777 11.9701C16.7705 11.9675 16.7668 11.9658 16.7668 11.9656C16.7668 11.9654 16.7704 11.9667 16.7777 11.9701ZM19.9998 14.0001C19.9998 15.6569 18.6567 17.0001 16.9998 17.0001C15.343 17.0001 13.9998 15.6569 13.9998 14.0001C13.9998 12.0001 15.9998 10.0001 16.9998 10.0001C18.1523 10.0001 19.9998 12.0001 19.9998 14.0001Z" fill="#777B92"/>
</svg>
