<svg width="24" height="24" viewBox="0 0 24 24" fill="none" xmlns="http://www.w3.org/2000/svg">
<path fill-rule="evenodd" clip-rule="evenodd" d="M11 5C10.4477 5 10 5.44772 10 6V10H13C13.5523 10 14 10.4477 14 11C14 11.5523 13.5523 12 13 12H10V18C10 19.6569 8.65685 21 7 21C5.34315 21 4 19.6569 4 18C4 17.4477 4.44772 17 5 17C5.55228 17 6 17.4477 6 18C6 18.5523 6.44772 19 7 19C7.55228 19 8 18.5523 8 18V12H6C5.44772 12 5 11.5523 5 11C5 10.4477 5.44772 10 6 10H8V6C8 4.34315 9.34315 3 11 3C12.6569 3 14 4.34315 14 6C14 6.55228 13.5523 7 13 7C12.4477 7 12 6.55228 12 6C12 5.44772 11.5523 5 11 5ZM19.7071 16.7071C20.0976 16.3166 20.0976 15.6834 19.7071 15.2929C19.3166 14.9024 18.6834 14.9024 18.2929 15.2929L17 16.5858L15.7071 15.2929C15.3166 14.9024 14.6834 14.9024 14.2929 15.2929C13.9024 15.6834 13.9024 16.3166 14.2929 16.7071L15.5858 18L14.2929 19.2929C13.9024 19.6834 13.9024 20.3166 14.2929 20.7071C14.6834 21.0976 15.3166 21.0976 15.7071 20.7071L17 19.4142L18.2929 20.7071C18.6834 21.0976 19.3166 21.0976 19.7071 20.7071C20.0976 20.3166 20.0976 19.6834 19.7071 19.2929L18.4142 18L19.7071 16.7071Z" fill="#777B92"/>
</svg>
