<svg width="24" height="24" viewBox="0 0 24 24" fill="none" xmlns="http://www.w3.org/2000/svg">
<path fill-rule="evenodd" clip-rule="evenodd" d="M4 3C3.44772 3 3 3.44772 3 4V5C3 5.55228 3.44772 6 4 6H20C20.5523 6 21 5.55228 21 5V4C21 3.44772 20.5523 3 20 3H4ZM4 8C3.44772 8 3 8.44772 3 9V10C3 10.5523 3.44772 11 4 11H20C20.5523 11 21 10.5523 21 10V9C21 8.44772 20.5523 8 20 8H4ZM3 14C3 13.4477 3.44772 13 4 13H20C20.5523 13 21 13.4477 21 14V15C21 15.5523 20.5523 16 20 16H4C3.44772 16 3 15.5523 3 15V14ZM4 18C3.44772 18 3 18.4477 3 19V20C3 20.5523 3.44772 21 4 21H20C20.5523 21 21 20.5523 21 20V19C21 18.4477 20.5523 18 20 18H4Z" fill="#777B92"/>
</svg>
