<svg width="24" height="24" viewBox="0 0 24 24" fill="none" xmlns="http://www.w3.org/2000/svg">
<path fill-rule="evenodd" clip-rule="evenodd" d="M16 2.99994H14.0178C14.0051 2.9997 13.9925 2.9997 13.98 2.99994H12C11.4477 2.99994 11 3.44765 11 3.99994C11 4.55222 11.4477 4.99994 12 4.99994H12.7951L10.1701 18.9999H9C8.44772 18.9999 8 19.4477 8 19.9999C8 20.5522 8.44772 20.9999 9 20.9999H10.9822C10.9949 21.0002 11.0075 21.0002 11.02 20.9999H13C13.5523 20.9999 14 20.5522 14 19.9999C14 19.4477 13.5523 18.9999 13 18.9999H12.2049L14.8299 4.99994H16C16.5523 4.99994 17 4.55222 17 3.99994C17 3.44765 16.5523 2.99994 16 2.99994Z" fill="#777B92"/>
</svg>
