<svg width="24" height="24" viewBox="0 0 24 24" fill="none" xmlns="http://www.w3.org/2000/svg">
<path fill-rule="evenodd" clip-rule="evenodd" d="M4 3C3.44772 3 3 3.44772 3 4C3 4.55228 3.44772 5 4 5H20C20.5523 5 21 4.55228 21 4C21 3.44772 20.5523 3 20 3H4ZM10.118 15L9.89443 15.4472C9.64744 15.9412 9.04676 16.1414 8.55279 15.8944C8.05881 15.6474 7.85858 15.0468 8.10557 14.5528L11.1056 8.55279C11.275 8.214 11.6212 8 12 8C12.3788 8 12.725 8.214 12.8944 8.55279L15.8944 14.5528C16.1414 15.0468 15.9412 15.6474 15.4472 15.8944C14.9532 16.1414 14.3526 15.9412 14.1056 15.4472L13.882 15H10.118ZM11.118 13H12.882L12 11.2361L11.118 13ZM3 20C3 19.4477 3.44772 19 4 19H20C20.5523 19 21 19.4477 21 20C21 20.5523 20.5523 21 20 21H4C3.44772 21 3 20.5523 3 20Z" fill="#777B92"/>
</svg>
