<svg width="24" height="24" viewBox="0 0 24 24" fill="none" xmlns="http://www.w3.org/2000/svg">
<path fill-rule="evenodd" clip-rule="evenodd" d="M2.00001 6C2.00001 5.44772 2.44772 5 3.00001 5H4.00001C4.55229 5 5.00001 5.44772 5.00001 6V10C5.00001 10.5523 4.55229 11 4.00001 11C3.44772 11 3.00001 10.5523 3.00001 10V7C2.44772 7 2.00001 6.55228 2.00001 6ZM9.00001 7C8.44772 7 8.00001 7.44772 8.00001 8C8.00001 8.55228 8.44772 9 9.00001 9H21C21.5523 9 22 8.55228 22 8C22 7.44772 21.5523 7 21 7H9.00001ZM9.00001 15C8.44772 15 8.00001 15.4477 8.00001 16C8.00001 16.5523 8.44772 17 9.00001 17H21C21.5523 17 22 16.5523 22 16C22 15.4477 21.5523 15 21 15H9.00001ZM3.00001 13C2.44772 13 2.00001 13.4477 2.00001 14C2.00001 14.5523 2.44772 15 3.00001 15H4.00001L2.20001 17.4C1.97274 17.703 1.93619 18.1084 2.10558 18.4472C2.27497 18.786 2.62123 19 3.00001 19H6.00001C6.55229 19 7.00001 18.5523 7.00001 18C7.00001 17.4477 6.55229 17 6.00001 17H5.00001L6.80001 14.6C7.02727 14.297 7.06383 13.8916 6.89443 13.5528C6.72504 13.214 6.37878 13 6.00001 13H3.00001Z" fill="#777B92"/>
</svg>
