<svg width="24" height="24" viewBox="0 0 24 24" fill="none" xmlns="http://www.w3.org/2000/svg">
<path fill-rule="evenodd" clip-rule="evenodd" d="M14 3L3 3L3 14L8 14C9.10457 14 10 14.8954 10 16L10 21L21 21L21 10L16 10C14.8954 10 14 9.10457 14 8L14 3ZM3 0.999997L14 0.999996C15.1046 0.999996 16 1.89543 16 3L16 8L21 8C22.1046 8 23 8.89543 23 10L23 21C23 22.1046 22.1046 23 21 23L10 23C8.89543 23 8 22.1046 8 21L8 16L3 16C1.89543 16 1 15.1046 1 14L1 3C1 1.89543 1.89543 0.999997 3 0.999997Z" fill="#777B92"/>
</svg>
