<svg width="24" height="24" viewBox="0 0 24 24" fill="none" xmlns="http://www.w3.org/2000/svg">
<path fill-rule="evenodd" clip-rule="evenodd" d="M16 8L21 8C22.1046 8 23 8.89543 23 10L23 21C23 22.1046 22.1046 23 21 23L10 23C8.89543 23 8 22.1046 8 21L8 16L3 16C1.89543 16 1 15.1046 1 14L1 3C1 1.89543 1.89543 1 3 1L14 0.999999C15.1046 0.999999 16 1.89543 16 3L16 8ZM10 16L10.5 16C11.0523 16 11.5 15.5523 11.5 15C11.5 14.4477 11.0523 14 10.5 14L10 14L10 13.5C10 12.9477 9.55228 12.5 9 12.5C8.44771 12.5 8 12.9477 8 13.5L8 14L3 14L3 3L14 3L14 8L13.5 8C12.9477 8 12.5 8.44771 12.5 9C12.5 9.55228 12.9477 10 13.5 10L14 10L14 10.5C14 11.0523 14.4477 11.5 15 11.5C15.5523 11.5 16 11.0523 16 10.5L16 10L21 10L21 21L10 21L10 16ZM13.5 16C12.9477 16 12.5 15.5523 12.5 15C12.5 14.4477 12.9477 14 13.5 14L14 14L14 13.5C14 12.9477 14.4477 12.5 15 12.5C15.5523 12.5 16 12.9477 16 13.5L16 14C16 15.1046 15.1046 16 14 16L13.5 16ZM11.5 9C11.5 8.44771 11.0523 8 10.5 8L10 8C8.89543 8 8 8.89543 8 10L8 10.5C8 11.0523 8.44772 11.5 9 11.5C9.55229 11.5 10 11.0523 10 10.5L10 10L10.5 10C11.0523 10 11.5 9.55228 11.5 9Z" fill="#777B92"/>
</svg>
