<svg width="24" height="24" viewBox="0 0 24 24" fill="none" xmlns="http://www.w3.org/2000/svg">
<path fill-rule="evenodd" clip-rule="evenodd" d="M12 4C12 2.89543 12.8954 2 14 2L20 2C21.1046 2 22 2.89543 22 4V9C22 9.14652 21.9685 9.28567 21.9119 9.41106C21.9692 9.59725 22 9.79502 22 10L22 14C22 14.205 21.9692 14.4028 21.9119 14.5889C21.9685 14.7143 22 14.8535 22 15V20C22 21.1046 21.1046 22 20 22H14C12.8954 22 12 21.1046 12 20L12 16C10.8954 16 10 15.1046 10 14L10 10C10 8.89543 10.8954 8 12 8L12 4ZM13 10H12V14H13L20 14L20 10L13 10ZM14 16L14 20H20V16L14 16ZM14 8L14 4L20 4V8L14 8ZM5 9C5.55228 9 6 9.44772 6 10V11H7C7.55228 11 8 11.4477 8 12C8 12.5523 7.55228 13 7 13H6V14C6 14.5523 5.55228 15 5 15C4.44772 15 4 14.5523 4 14V13H3C2.44772 13 2 12.5523 2 12C2 11.4477 2.44772 11 3 11H4L4 10C4 9.44772 4.44772 9 5 9Z" fill="#777B92"/>
</svg>
