<svg width="24" height="24" viewBox="0 0 24 24" fill="none" xmlns="http://www.w3.org/2000/svg">
<path fill-rule="evenodd" clip-rule="evenodd" d="M17 3C17 1.89543 17.8954 1 19 1H21C22.1046 1 23 1.89543 23 3V5C23 6.10457 22.1046 7 21 7H20.7208L18.3757 14.0352C19.3007 14.211 20 15.0238 20 16V18C20 19.1046 19.1046 20 18 20H16C14.8954 20 14 19.1046 14 18V16C14 15.8208 14.0236 15.6472 14.0677 15.482L8.51804 9.93226C8.35282 9.97644 8.17916 10 8 10H7.72076L5.37568 17.0352C6.30067 17.211 7 18.0238 7 19V21C7 22.1046 6.10457 23 5 23H3C1.89543 23 1 22.1046 1 21V19C1 17.8954 1.89543 17 3 17H3.27924L5.62432 9.96477C4.69933 9.78897 4 8.97616 4 8V6C4 4.89543 4.89543 4 6 4H8C9.10457 4 10 4.89543 10 6V8C10 8.17916 9.97644 8.35282 9.93226 8.51804L15.482 14.0677C15.6472 14.0236 15.8208 14 16 14H16.2792L18.6243 6.96477C17.6993 6.78897 17 5.97616 17 5V3ZM21 5H20.0231C20.0076 4.99964 19.9921 4.99964 19.9767 5H19V3H21V5ZM17.0233 16C17.0079 16.0004 16.9924 16.0004 16.9769 16H16V18H18V16H17.0233ZM7.02306 8C7.00756 7.99964 6.99208 7.99964 6.97666 8H6V6H8V8H7.02306ZM3.97691 19H3V21H5V19H4.02337C4.00793 19.0004 3.99243 19.0004 3.97691 19Z" fill="#777B92"/>
</svg>
