<svg width="24" height="24" viewBox="0 0 24 24" fill="none" xmlns="http://www.w3.org/2000/svg">
<path fill-rule="evenodd" clip-rule="evenodd" d="M15.5856 2.00009C16.3667 1.21905 17.633 1.21904 18.4141 2.00009L21.9998 5.58588C22.7809 6.36693 22.7809 7.63326 21.9998 8.41431L8.41406 22.0001C7.63301 22.7811 6.36669 22.7811 5.58564 22.0001L1.99985 18.4143C1.2188 17.6333 1.2188 16.3669 1.99985 15.5859L15.5856 2.00009ZM7.49985 12.9143L5.91406 14.5001L7.70696 16.293C8.09748 16.6835 8.09748 17.3167 7.70696 17.7072C7.31643 18.0977 6.68327 18.0977 6.29274 17.7072L4.49985 15.9143L3.41406 17.0001L6.99985 20.5859L20.5856 7.00009L16.9998 3.41431L11.9141 8.50009L13.707 10.293C14.0975 10.6835 14.0975 11.3167 13.707 11.7072C13.3164 12.0977 12.6833 12.0977 12.2927 11.7072L10.4998 9.91431L8.91406 11.5001L9.70696 12.293C10.0975 12.6835 10.0975 13.3167 9.70696 13.7072C9.31643 14.0977 8.68327 14.0977 8.29274 13.7072L7.49985 12.9143ZM17.9998 7.00009C17.9998 7.55238 17.5521 8.00009 16.9998 8.00009C16.4476 8.00009 15.9998 7.55238 15.9998 7.00009C15.9998 6.44781 16.4476 6.00009 16.9998 6.00009C17.5521 6.00009 17.9998 6.44781 17.9998 7.00009Z" fill="#777B92"/>
</svg>
