<svg width="24" height="24" viewBox="0 0 24 24" fill="none" xmlns="http://www.w3.org/2000/svg">
<path fill-rule="evenodd" clip-rule="evenodd" d="M5 3C3.89543 3 3 3.89543 3 5V19C3 20.1046 3.89543 21 5 21H19C20.1046 21 21 20.1046 21 19V5C21 3.89543 20.1046 3 19 3H5ZM5 5H19V19H5V5ZM13 7C11.8954 7 11 7.89543 11 9V10.382L9.55279 11.1056C9.214 11.275 9 11.6212 9 12C9 12.3788 9.214 12.725 9.55279 12.8944L11 13.618V15C11 16.1046 11.8954 17 13 17H14C14.5523 17 15 16.5523 15 16C15 15.4477 14.5523 15 14 15H13V13.618C13 12.9715 12.6882 12.3723 12.1757 12C12.6882 11.6277 13 11.0285 13 10.382V9H14C14.5523 9 15 8.55228 15 8C15 7.44772 14.5523 7 14 7H13Z" fill="#777B92"/>
</svg>
