<svg width="24" height="24" viewBox="0 0 24 24" fill="none" xmlns="http://www.w3.org/2000/svg">
<path fill-rule="evenodd" clip-rule="evenodd" d="M5 3C3.89543 3 3 3.89543 3 5V19C3 20.1046 3.89543 21 5 21H19C20.1046 21 21 20.1046 21 19V5C21 3.89543 20.1046 3 19 3H5ZM5 5H19V19H5V5ZM12.7096 9.70538L12.7171 9.697C13.0976 9.30573 13.0943 8.68007 12.7071 8.29289C12.3166 7.90237 11.6834 7.90237 11.2929 8.29289L12 9C11.2929 8.29289 11.2925 8.29324 11.2922 8.2936L11.2915 8.29432L11.2899 8.29585L11.2866 8.29922L11.2789 8.30713L11.2592 8.32778C11.2443 8.34368 11.2259 8.36387 11.2045 8.38837C11.1616 8.43735 11.1066 8.5037 11.0437 8.5875C10.9182 8.75496 10.7603 8.99328 10.6056 9.30279C10.2944 9.92507 10 10.8272 10 12C10 13.1728 10.2944 14.0749 10.6056 14.6972C10.7603 15.0067 10.9182 15.245 11.0437 15.4125C11.1066 15.4963 11.1616 15.5627 11.2045 15.6116C11.2259 15.6361 11.2443 15.6563 11.2592 15.6722L11.2789 15.6929L11.2866 15.7008L11.2899 15.7041L11.2915 15.7057L11.2922 15.7064C11.2925 15.7068 11.2929 15.7071 11.9999 15.0001L11.2929 15.7071C11.6834 16.0976 12.3166 16.0976 12.7071 15.7071C13.0943 15.3199 13.0976 14.6943 12.7171 14.303L12.7171 14.303L12.7096 14.2946C12.6978 14.2811 12.6747 14.2537 12.6438 14.2125C12.5818 14.13 12.4897 13.9933 12.3944 13.8028C12.2056 13.4251 12 12.8272 12 12C12 11.1728 12.2056 10.5749 12.3944 10.1972C12.4897 10.0067 12.5818 9.87004 12.6438 9.7875C12.6747 9.7463 12.6978 9.7189 12.7096 9.70538Z" fill="#777B92"/>
</svg>
