<svg width="24" height="24" viewBox="0 0 24 24" fill="none" xmlns="http://www.w3.org/2000/svg">
<path fill-rule="evenodd" clip-rule="evenodd" d="M9 1C7.89543 1 7 1.89543 7 3V5H2C1.44772 5 1 5.44772 1 6C1 6.55228 1.44772 7 2 7H7V9C7 10.1046 7.89543 11 9 11H15C16.1046 11 17 10.1046 17 9V7H22C22.5523 7 23 6.55228 23 6C23 5.44772 22.5523 5 22 5H17V3C17 1.89543 16.1046 1 15 1H9ZM9 9V6V3H15V6V9H9ZM11.0769 14.2154L8.16925 21.1938C7.79809 22.0846 8.77932 22.9324 9.60682 22.4359L11.4855 21.3087C11.8022 21.1187 12.1978 21.1187 12.5145 21.3087L14.3932 22.4359C15.2207 22.9324 16.2019 22.0846 15.8307 21.1938L12.9231 14.2154C12.5812 13.3949 11.4188 13.3949 11.0769 14.2154Z" fill="#777B92"/>
</svg>
