<svg width="24" height="24" viewBox="0 0 24 24" fill="none" xmlns="http://www.w3.org/2000/svg">
<path fill-rule="evenodd" clip-rule="evenodd" d="M12 5C8.13401 5 5 8.13401 5 12C5 14.8308 6.68098 17.2708 9.10015 18.3733C9.36311 17.5757 10.1143 17 11 17H13C13.8856 17 14.6368 17.5757 14.8998 18.3732C16.4348 17.6735 17.6735 16.4348 18.3732 14.8998C17.5757 14.6368 17 13.8856 17 13V11C17 10.1143 17.5757 9.36311 18.3733 9.10015C17.2708 6.68098 14.8308 5 12 5ZM15 20.4876C17.5578 19.5836 19.5836 17.5578 20.4876 15H21C22.1046 15 23 14.1046 23 13V11C23 9.89543 22.1046 9 21 9H20.4876C19.2521 5.50489 15.9197 3 12 3C7.02944 3 3 7.02944 3 12C3 15.9197 5.50489 19.2521 9 20.4876V21C9 22.1046 9.89543 23 11 23H13C14.1046 23 15 22.1046 15 21V20.4876ZM13 19.7254C12.9997 19.7399 12.9997 19.7545 13 19.7692V21H11V19.7691C11.0003 19.7545 11.0003 19.7399 11 19.7254V19H13V19.7254ZM19.7691 11C19.7545 11.0003 19.7399 11.0003 19.7254 11H19V13H19.7254C19.7399 12.9997 19.7545 12.9997 19.7692 13H21V11H19.7691Z" fill="#777B92"/>
</svg>
