<svg width="16" height="16" viewBox="0 0 16 16" fill="none" xmlns="http://www.w3.org/2000/svg">
<path fill-rule="evenodd" clip-rule="evenodd" d="M14.3536 2.64645L15.3536 3.64645C15.5488 3.84171 15.5488 4.15829 15.3536 4.35355L14.3536 5.35355C14.1583 5.54882 13.8417 5.54882 13.6464 5.35355C13.4512 5.15829 13.4512 4.84171 13.6464 4.64645L13.7929 4.5H12C10.067 4.5 8.5 6.067 8.5 8C8.5 9.933 10.067 11.5 12 11.5H13.7929L13.6464 11.3536C13.4512 11.1583 13.4512 10.8417 13.6464 10.6464C13.8417 10.4512 14.1583 10.4512 14.3536 10.6464L15.3536 11.6464C15.5488 11.8417 15.5488 12.1583 15.3536 12.3536L14.3536 13.3536C14.1583 13.5488 13.8417 13.5488 13.6464 13.3536C13.4512 13.1583 13.4512 12.8417 13.6464 12.6464L13.7929 12.5H12C10.2585 12.5 8.74811 11.5108 8 10.0636C7.25189 11.5108 5.74147 12.5 4 12.5H1C0.723858 12.5 0.5 12.2761 0.5 12C0.5 11.7239 0.723858 11.5 1 11.5H4C5.933 11.5 7.5 9.933 7.5 8C7.5 6.067 5.933 4.5 4 4.5H1C0.723858 4.5 0.5 4.27614 0.5 4C0.5 3.72386 0.723858 3.5 1 3.5H4C5.74147 3.5 7.25189 4.48922 8 5.9364C8.74811 4.48922 10.2585 3.5 12 3.5H13.7929L13.6464 3.35355C13.4512 3.15829 13.4512 2.84171 13.6464 2.64645C13.8417 2.45118 14.1583 2.45118 14.3536 2.64645Z" fill="#777B92"/>
</svg>
