<svg width="16" height="16" viewBox="0 0 16 16" fill="none" xmlns="http://www.w3.org/2000/svg">
<path fill-rule="evenodd" clip-rule="evenodd" d="M5.35355 2.64645C5.54882 2.84171 5.54882 3.15829 5.35355 3.35355L2.20711 6.5H14C14.8284 6.5 15.5 7.17157 15.5 8V13C15.5 13.2761 15.2761 13.5 15 13.5C14.7239 13.5 14.5 13.2761 14.5 13V8C14.5 7.72386 14.2761 7.5 14 7.5H2.20711L5.35355 10.6464C5.54882 10.8417 5.54882 11.1583 5.35355 11.3536C5.15829 11.5488 4.84171 11.5488 4.64645 11.3536L0.646447 7.35355C0.451184 7.15829 0.451184 6.84171 0.646447 6.64645L4.64645 2.64645C4.84171 2.45118 5.15829 2.45118 5.35355 2.64645Z" fill="#777B92"/>
</svg>
