<svg width="16" height="16" viewBox="0 0 16 16" fill="none" xmlns="http://www.w3.org/2000/svg">
<path fill-rule="evenodd" clip-rule="evenodd" d="M0.999999 2.5C1.27614 2.5 1.5 2.72386 1.5 3L1.5 8C1.5 8.27614 1.72386 8.5 2 8.5H13.7929L10.6464 5.35355C10.4512 5.15829 10.4512 4.84171 10.6464 4.64645C10.8417 4.45118 11.1583 4.45118 11.3536 4.64645L15.3536 8.64645C15.4473 8.74021 15.5 8.86739 15.5 9C15.5 9.13261 15.4473 9.25979 15.3536 9.35355L11.3536 13.3536C11.1583 13.5488 10.8417 13.5488 10.6464 13.3536C10.4512 13.1583 10.4512 12.8417 10.6464 12.6464L13.7929 9.5H2C1.17157 9.5 0.500001 8.82843 0.5 8L0.5 3C0.5 2.72386 0.723858 2.5 0.999999 2.5Z" fill="#777B92"/>
</svg>
