<svg width="16" height="16" viewBox="0 0 16 16" fill="none" xmlns="http://www.w3.org/2000/svg">
<path fill-rule="evenodd" clip-rule="evenodd" d="M15.3536 3.35355L12.3536 6.35355C12.1583 6.54882 11.8417 6.54882 11.6464 6.35355L10.6464 5.35355C10.4512 5.15829 10.4512 4.84171 10.6464 4.64645C10.8417 4.45118 11.1583 4.45118 11.3536 4.64645L12 5.29289L14.6464 2.64645C14.8417 2.45118 15.1583 2.45118 15.3536 2.64645C15.5488 2.84171 15.5488 3.15829 15.3536 3.35355Z" fill="#777B92"/>
<path fill-rule="evenodd" clip-rule="evenodd" d="M4.35355 5.35355L2.20711 7.5H10C10.8284 7.5 11.5 8.17157 11.5 9V13C11.5 13.2761 11.2761 13.5 11 13.5C10.7239 13.5 10.5 13.2761 10.5 13V9C10.5 8.72386 10.2761 8.5 10 8.5H2.20711L4.35355 10.6464C4.54882 10.8417 4.54882 11.1583 4.35355 11.3536C4.15829 11.5488 3.84171 11.5488 3.64645 11.3536L0.646447 8.35355C0.451184 8.15829 0.451184 7.84171 0.646447 7.64645L3.64645 4.64645C3.84171 4.45118 4.15829 4.45118 4.35355 4.64645C4.54882 4.84171 4.54882 5.15829 4.35355 5.35355Z" fill="#777B92"/>
</svg>
