<svg width="16" height="16" viewBox="0 0 16 16" fill="none" xmlns="http://www.w3.org/2000/svg">
<g clip-path="url(#clip0_13649_20582)">
<path d="M3.55279 0.776396C3.67628 0.529407 3.97662 0.429294 4.22361 0.552789L6.22361 1.55279C6.4706 1.67628 6.57071 1.97662 6.44721 2.22361L5.44721 4.22361C5.32372 4.4706 5.02338 4.57071 4.77639 4.44722C4.5294 4.32372 4.42929 4.02339 4.55279 3.7764L4.90466 3.07266C4.4567 3.39481 4.02852 3.82663 3.65848 4.35084C2.96357 5.33531 2.5 6.61074 2.5 8C2.5 9.38926 2.96357 10.6647 3.65848 11.6492C4.35803 12.6402 5.26539 13.301 6.12127 13.5149C6.38917 13.5819 6.55205 13.8534 6.48507 14.1213C6.4181 14.3892 6.14663 14.552 5.87873 14.4851C4.73461 14.199 3.64197 13.3598 2.84152 12.2258C2.03643 11.0853 1.5 9.61074 1.5 8C1.5 6.38926 2.03643 4.91469 2.84152 3.77416C3.38351 3.00634 4.05945 2.37366 4.79464 1.95634L3.77639 1.44722C3.5294 1.32372 3.42929 1.02339 3.55279 0.776396ZM9.55279 1.7764C9.67628 1.52941 9.97662 1.42929 10.2236 1.55279C12.3255 2.60372 14.5 4.74536 14.5 8C14.5 9.61074 13.9636 11.0853 13.1585 12.2258C12.6165 12.9937 11.9405 13.6263 11.2054 14.0437L12.2236 14.5528C12.4706 14.6763 12.5707 14.9766 12.4472 15.2236C12.3237 15.4706 12.0234 15.5707 11.7764 15.4472L9.77639 14.4472C9.5294 14.3237 9.42929 14.0234 9.55279 13.7764L10.5528 11.7764C10.6763 11.5294 10.9766 11.4293 11.2236 11.5528C11.4706 11.6763 11.5707 11.9766 11.4472 12.2236L11.0953 12.9273C11.5433 12.6052 11.9715 12.1734 12.3415 11.6492C13.0364 10.6647 13.5 9.38926 13.5 8C13.5 5.25465 11.6745 3.39629 9.77639 2.44722C9.5294 2.32372 9.42929 2.02339 9.55279 1.7764Z" fill="#777B92"/>
</g>
<defs>
<clipPath id="clip0_13649_20582">
<rect width="16" height="16" fill="white" transform="translate(0 16) rotate(-90)"/>
</clipPath>
</defs>
</svg>
