<svg width="16" height="16" viewBox="0 0 16 16" fill="none" xmlns="http://www.w3.org/2000/svg">
<path fill-rule="evenodd" clip-rule="evenodd" d="M6.5 1V6C6.5 6.27614 6.27614 6.5 6 6.5H1C0.723858 6.5 0.5 6.27614 0.5 6C0.5 5.72386 0.723858 5.5 1 5.5H4.79289L0.646447 1.35356C0.451184 1.15829 0.451184 0.841712 0.646447 0.646449C0.841709 0.451187 1.15829 0.451187 1.35355 0.646449L5.5 4.79289V1C5.5 0.723858 5.72385 0.5 6 0.5C6.27614 0.5 6.5 0.723858 6.5 1Z" fill="#777B92"/>
<path fill-rule="evenodd" clip-rule="evenodd" d="M10 0.5C10.2761 0.5 10.5 0.723858 10.5 1V4.79289L14.6464 0.646446C14.8417 0.451184 15.1583 0.451185 15.3536 0.646447C15.5488 0.841709 15.5488 1.15829 15.3535 1.35355L11.2071 5.49999H15C15.2761 5.49999 15.5 5.72385 15.5 5.99999C15.5 6.27613 15.2761 6.49999 15 6.49999H10C9.72386 6.49999 9.5 6.27613 9.5 5.99999V1C9.5 0.723858 9.72386 0.5 10 0.5Z" fill="#777B92"/>
<path fill-rule="evenodd" clip-rule="evenodd" d="M1 10.5C0.723858 10.5 0.5 10.2761 0.5 10C0.5 9.72386 0.723858 9.5 1 9.5H6C6.27614 9.5 6.5 9.72386 6.5 10L6.5 15C6.5 15.2761 6.27614 15.5 6 15.5C5.72386 15.5 5.5 15.2761 5.5 15L5.5 11.2071L1.35355 15.3536C1.15829 15.5488 0.841709 15.5488 0.646447 15.3536C0.451185 15.1583 0.451184 14.8417 0.646447 14.6464L4.79289 10.5H1Z" fill="#777B92"/>
<path fill-rule="evenodd" clip-rule="evenodd" d="M10 9.5H15C15.2761 9.5 15.5 9.72386 15.5 10C15.5 10.2761 15.2761 10.5 15 10.5H11.2071L15.3535 14.6464C15.5488 14.8417 15.5488 15.1583 15.3535 15.3536C15.1583 15.5488 14.8417 15.5488 14.6464 15.3536L10.5 11.2071V15C10.5 15.2761 10.2761 15.5 10 15.5C9.72386 15.5 9.5 15.2761 9.5 15V10C9.5 9.72386 9.72386 9.5 10 9.5Z" fill="#777B92"/>
</svg>
