<svg width="16" height="16" viewBox="0 0 16 16" fill="none" xmlns="http://www.w3.org/2000/svg">
<path fill-rule="evenodd" clip-rule="evenodd" d="M10.3536 1.35355L8.20711 3.5H15C15.2761 3.5 15.5 3.72386 15.5 4C15.5 4.27614 15.2761 4.5 15 4.5H8.20711L10.3536 6.64645C10.5488 6.84171 10.5488 7.15829 10.3536 7.35355C10.1583 7.54882 9.84171 7.54882 9.64645 7.35355L6.64645 4.35355C6.45118 4.15829 6.45118 3.84171 6.64645 3.64645L9.64645 0.646447C9.84171 0.451184 10.1583 0.451184 10.3536 0.646447C10.5488 0.841709 10.5488 1.15829 10.3536 1.35355Z" fill="#777B92"/>
<path fill-rule="evenodd" clip-rule="evenodd" d="M6.35355 8.64645L9.35355 11.6464C9.54882 11.8417 9.54882 12.1583 9.35355 12.3536L6.35355 15.3536C6.15829 15.5488 5.84171 15.5488 5.64645 15.3536C5.45118 15.1583 5.45118 14.8417 5.64645 14.6464L7.79289 12.5H1C0.723858 12.5 0.5 12.2761 0.5 12C0.5 11.7239 0.723858 11.5 1 11.5H7.79289L5.64645 9.35355C5.45118 9.15829 5.45118 8.84171 5.64645 8.64645C5.84171 8.45118 6.15829 8.45118 6.35355 8.64645Z" fill="#777B92"/>
</svg>
