<svg width="16" height="16" viewBox="0 0 16 16" fill="none" xmlns="http://www.w3.org/2000/svg">
<path fill-rule="evenodd" clip-rule="evenodd" d="M3.35355 1.35355L2.20711 2.5L14 2.5C14.8284 2.5 15.5 3.17157 15.5 4V7C15.5 7.27614 15.2761 7.5 15 7.5C14.7239 7.5 14.5 7.27614 14.5 7V4C14.5 3.72386 14.2761 3.5 14 3.5L2.20711 3.5L3.35355 4.64645C3.54882 4.84171 3.54882 5.15829 3.35355 5.35355C3.15829 5.54882 2.84171 5.54882 2.64645 5.35355L0.646447 3.35355C0.552678 3.25978 0.5 3.13261 0.5 3C0.5 2.86739 0.552678 2.74021 0.646447 2.64645L2.64645 0.646447C2.84171 0.451184 3.15829 0.451184 3.35355 0.646447C3.54882 0.841709 3.54882 1.15829 3.35355 1.35355Z" fill="#777B92"/>
<path fill-rule="evenodd" clip-rule="evenodd" d="M15.3536 13.3536L13.3536 15.3536C13.1583 15.5488 12.8417 15.5488 12.6464 15.3536C12.4512 15.1583 12.4512 14.8417 12.6464 14.6464L13.7929 13.5H2C1.17157 13.5 0.5 12.8284 0.5 12V9C0.5 8.72386 0.723858 8.5 1 8.5C1.27614 8.5 1.5 8.72386 1.5 9L1.5 12C1.5 12.2761 1.72386 12.5 2 12.5H13.7929L12.6464 11.3536C12.4512 11.1583 12.4512 10.8417 12.6464 10.6464C12.8417 10.4512 13.1583 10.4512 13.3536 10.6464L15.3536 12.6464C15.5488 12.8417 15.5488 13.1583 15.3536 13.3536Z" fill="#777B92"/>
</svg>
