<svg width="16" height="16" viewBox="0 0 16 16" fill="none" xmlns="http://www.w3.org/2000/svg">
<path fill-rule="evenodd" clip-rule="evenodd" d="M11.6464 0.646447C11.8417 0.451184 12.1583 0.451184 12.3536 0.646447L15.3536 3.64645C15.5488 3.84171 15.5488 4.15829 15.3536 4.35355L12.3536 7.35355C12.1583 7.54882 11.8417 7.54882 11.6464 7.35355C11.4512 7.15829 11.4512 6.84171 11.6464 6.64645L13.7929 4.5H7C6.72386 4.5 6.5 4.27614 6.5 4C6.5 3.72386 6.72386 3.5 7 3.5H13.7929L11.6464 1.35355C11.4512 1.15829 11.4512 0.841709 11.6464 0.646447Z" fill="#777B92"/>
<path fill-rule="evenodd" clip-rule="evenodd" d="M4.35355 8.64645C4.54882 8.84171 4.54882 9.15829 4.35355 9.35355L2.20711 11.5H9C9.27614 11.5 9.5 11.7239 9.5 12C9.5 12.2761 9.27614 12.5 9 12.5H2.20711L4.35355 14.6464C4.54882 14.8417 4.54882 15.1583 4.35355 15.3536C4.15829 15.5488 3.84171 15.5488 3.64645 15.3536L0.646447 12.3536C0.451184 12.1583 0.451184 11.8417 0.646447 11.6464L3.64645 8.64645C3.84171 8.45118 4.15829 8.45118 4.35355 8.64645Z" fill="#777B92"/>
</svg>
