<svg width="16" height="16" viewBox="0 0 16 16" fill="none" xmlns="http://www.w3.org/2000/svg">
<path fill-rule="evenodd" clip-rule="evenodd" d="M15.3536 1.35356L11.2071 5.49996H15C15.2761 5.49996 15.5 5.72382 15.5 5.99996C15.5 6.2761 15.2761 6.49996 15 6.49996H10C9.72386 6.49996 9.5 6.2761 9.5 5.99996L9.5 1.00004C9.5 0.723902 9.72386 0.500044 10 0.500044C10.2761 0.500044 10.5 0.723901 10.5 1.00004L10.5 4.79286L14.6465 0.646445C14.8417 0.451184 15.1583 0.451185 15.3536 0.646448C15.5488 0.841711 15.5488 1.15829 15.3536 1.35356Z" fill="#777B92"/>
<path fill-rule="evenodd" clip-rule="evenodd" d="M0.500002 10C0.500002 9.7239 0.72386 9.50005 1 9.50005H6.00001C6.27615 9.50005 6.50001 9.7239 6.50001 10L6.50001 15C6.50001 15.2761 6.27615 15.5 6.00001 15.5C5.72387 15.5 5.50001 15.2761 5.50001 15L5.50001 11.2071L1.35355 15.3536C1.15829 15.5488 0.841706 15.5488 0.646445 15.3536C0.451184 15.1583 0.451185 14.8417 0.646448 14.6465L4.79289 10.5H1C0.72386 10.5 0.500002 10.2762 0.500002 10Z" fill="#777B92"/>
</svg>
