<svg width="16" height="16" viewBox="0 0 16 16" fill="none" xmlns="http://www.w3.org/2000/svg">
<path fill-rule="evenodd" clip-rule="evenodd" d="M8.00001 15.5C7.85162 15.5 7.71089 15.4341 7.6159 15.3201L2.6159 9.32009C2.49169 9.17105 2.46492 8.96361 2.54721 8.78792C2.6295 8.61223 2.806 8.5 3.00001 8.5H5.50001V2C5.50001 1.17157 6.17158 0.5 7.00001 0.5H9.00001C9.82843 0.5 10.5 1.17157 10.5 2V8.5H13C13.194 8.5 13.3705 8.61223 13.4528 8.78792C13.5351 8.96361 13.5083 9.17105 13.3841 9.32009L8.38412 15.3201C8.28912 15.4341 8.1484 15.5 8.00001 15.5ZM4.06753 9.5L8.00001 14.219L11.9325 9.5H10C9.72386 9.5 9.50001 9.27614 9.50001 9V2C9.50001 1.72386 9.27615 1.5 9.00001 1.5H7.00001C6.72386 1.5 6.50001 1.72386 6.50001 2V9C6.50001 9.27614 6.27615 9.5 6.00001 9.5H4.06753Z" fill="#777B92"/>
</svg>
