<svg width="16" height="16" viewBox="0 0 16 16" fill="none" xmlns="http://www.w3.org/2000/svg">
<path fill-rule="evenodd" clip-rule="evenodd" d="M2.5 1C2.5 0.723858 2.72386 0.5 3 0.5H13C13.2761 0.5 13.5 0.723858 13.5 1C13.5 1.27614 13.2761 1.5 13 1.5H3C2.72386 1.5 2.5 1.27614 2.5 1Z" fill="#777B92"/>
<path fill-rule="evenodd" clip-rule="evenodd" d="M8 15.5C7.72386 15.5 7.5 15.2761 7.5 15V6.20711L3.35355 10.3536C3.15829 10.5488 2.84171 10.5488 2.64645 10.3536C2.45118 10.1583 2.45118 9.84171 2.64645 9.64645L7.64645 4.64645C7.74395 4.54894 7.87269 4.50012 8.00049 4.5H3C2.72386 4.5 2.5 4.27614 2.5 4C2.5 3.72386 2.72386 3.5 3 3.5H13C13.2761 3.5 13.5 3.72386 13.5 4C13.5 4.27614 13.2761 4.5 13 4.5H8.00049C8.12829 4.50012 8.25605 4.54894 8.35355 4.64645L13.3536 9.64645C13.5488 9.84171 13.5488 10.1583 13.3536 10.3536C13.1583 10.5488 12.8417 10.5488 12.6464 10.3536L8.5 6.20711V15C8.5 15.2761 8.27614 15.5 8 15.5Z" fill="#777B92"/>
</svg>
