<svg width="16" height="16" viewBox="0 0 16 16" fill="none" xmlns="http://www.w3.org/2000/svg">
<path fill-rule="evenodd" clip-rule="evenodd" d="M4.35355 0.646447L7.35355 3.64645C7.54882 3.84171 7.54882 4.15829 7.35355 4.35355C7.15829 4.54882 6.84171 4.54882 6.64645 4.35355L4.5 2.20711L4.5 9C4.5 9.27614 4.27614 9.5 4 9.5C3.72386 9.5 3.5 9.27614 3.5 9L3.5 2.20711L1.35355 4.35355C1.15829 4.54882 0.841709 4.54882 0.646447 4.35355C0.451184 4.15829 0.451184 3.84171 0.646447 3.64645L3.64645 0.646447C3.84171 0.451184 4.15829 0.451184 4.35355 0.646447Z" fill="#777B92"/>
<path fill-rule="evenodd" clip-rule="evenodd" d="M12.5 7V13.7929L14.6464 11.6464C14.8417 11.4512 15.1583 11.4512 15.3536 11.6464C15.5488 11.8417 15.5488 12.1583 15.3536 12.3536L12.3536 15.3536C12.2598 15.4473 12.1326 15.5 12 15.5C11.8674 15.5 11.7402 15.4473 11.6464 15.3536L8.64645 12.3536C8.45118 12.1583 8.45118 11.8417 8.64645 11.6464C8.84171 11.4512 9.15829 11.4512 9.35355 11.6464L11.5 13.7929V7C11.5 6.72386 11.7239 6.5 12 6.5C12.2761 6.5 12.5 6.72386 12.5 7Z" fill="#777B92"/>
</svg>
