<svg width="16" height="16" viewBox="0 0 16 16" fill="none" xmlns="http://www.w3.org/2000/svg">
<path fill-rule="evenodd" clip-rule="evenodd" d="M6.64645 0.646447C6.84171 0.451184 7.15829 0.451184 7.35355 0.646447L11.3536 4.64645C11.5488 4.84171 11.5488 5.15829 11.3536 5.35355C11.1583 5.54882 10.8417 5.54882 10.6464 5.35355L7.5 2.20711L7.5 13.9996C7.5 14.276 7.72409 14.5 8 14.5H13C13.2761 14.5 13.5 14.7239 13.5 15C13.5 15.2761 13.2761 15.5 13 15.5H8C7.17134 15.5 6.5 14.8278 6.5 13.9996L6.5 2.20711L3.35355 5.35355C3.15829 5.54882 2.84171 5.54882 2.64645 5.35355C2.45118 5.15829 2.45118 4.84171 2.64645 4.64645L6.64645 0.646447Z" fill="#777B92"/>
</svg>
