<svg width="16" height="16" viewBox="0 0 16 16" fill="none" xmlns="http://www.w3.org/2000/svg">
<path fill-rule="evenodd" clip-rule="evenodd" d="M1 0.5H6.00001C6.27615 0.5 6.50001 0.723858 6.50001 1C6.50001 1.27614 6.27615 1.5 6.00001 1.5H2.20712L6.35356 5.6464C6.54882 5.84167 6.54883 6.15825 6.35356 6.35351C6.1583 6.54877 5.84172 6.54878 5.64646 6.35352L1.5 2.2071L1.5 5.99992C1.5 6.27606 1.27614 6.49992 1 6.49992C0.723857 6.49992 0.5 6.27606 0.5 5.99992L0.500004 1C0.500004 0.723857 0.723862 0.5 1 0.5Z" fill="#777B92"/>
<path fill-rule="evenodd" clip-rule="evenodd" d="M9.5 1C9.5 0.723858 9.72386 0.5 10 0.5H15C15.2761 0.5 15.5 0.723857 15.5 1L15.5 5.99992C15.5 6.27606 15.2762 6.49992 15 6.49992C14.7239 6.49992 14.5 6.27606 14.5 5.99992L14.5 2.2071L10.3536 6.35352C10.1583 6.54878 9.84171 6.54877 9.64645 6.35351C9.45118 6.15825 9.45119 5.84167 9.64645 5.6464L13.7929 1.5H10C9.72386 1.5 9.5 1.27614 9.5 1Z" fill="#777B92"/>
<path fill-rule="evenodd" clip-rule="evenodd" d="M6.35356 9.64645C6.54883 9.84171 6.54882 10.1583 6.35356 10.3536L2.20712 14.5H6.00001C6.27615 14.5 6.50001 14.7238 6.50001 15C6.50001 15.2761 6.27615 15.5 6.00001 15.5H1C0.723862 15.5 0.500004 15.2761 0.500004 15L0.5 10C0.5 9.7239 0.723857 9.50004 1 9.50004C1.27614 9.50004 1.5 9.7239 1.5 10L1.5 13.7929L5.64646 9.64645C5.84172 9.45118 6.1583 9.45119 6.35356 9.64645Z" fill="#777B92"/>
<path fill-rule="evenodd" clip-rule="evenodd" d="M10.3536 9.64645L14.5 13.7929L14.5 10C14.5 9.7239 14.7239 9.50004 15 9.50004C15.2762 9.50004 15.5 9.7239 15.5 10L15.5 15C15.5 15.2761 15.2761 15.5 15 15.5H10C9.72386 15.5 9.5 15.2761 9.5 15C9.5 14.7238 9.72386 14.5 10 14.5H13.7929L9.64645 10.3536C9.45119 10.1583 9.45118 9.84171 9.64645 9.64645C9.84171 9.45119 10.1583 9.45118 10.3536 9.64645Z" fill="#777B92"/>
</svg>
