<svg width="16" height="16" viewBox="0 0 16 16" fill="none" xmlns="http://www.w3.org/2000/svg">
<path fill-rule="evenodd" clip-rule="evenodd" d="M14.3536 3.35355L9.35355 8.35355C9.15829 8.54882 8.84171 8.54882 8.64645 8.35355L5 4.70711L2.35355 7.35355C2.15829 7.54882 1.84171 7.54882 1.64645 7.35355C1.45118 7.15829 1.45118 6.84171 1.64645 6.64645L4.64645 3.64645C4.84171 3.45118 5.15829 3.45118 5.35355 3.64645L9 7.29289L13.6464 2.64645C13.8417 2.45118 14.1583 2.45118 14.3536 2.64645C14.5488 2.84171 14.5488 3.15829 14.3536 3.35355Z" fill="#777B92"/>
<path fill-rule="evenodd" clip-rule="evenodd" d="M1 12.5H15C15.2761 12.5 15.5 12.7239 15.5 13C15.5 13.2761 15.2761 13.5 15 13.5H1C0.723858 13.5 0.5 13.2761 0.5 13C0.5 12.7239 0.723858 12.5 1 12.5Z" fill="#777B92"/>
</svg>
