<svg width="16" height="16" viewBox="0 0 16 16" fill="none" xmlns="http://www.w3.org/2000/svg">
<path fill-rule="evenodd" clip-rule="evenodd" d="M8.5 4C8.5 2.067 10.067 0.5 12 0.5C13.933 0.5 15.5 2.067 15.5 4C15.5 5.933 13.933 7.5 12 7.5C10.067 7.5 8.5 5.933 8.5 4ZM12 1.5C10.6193 1.5 9.5 2.61929 9.5 4C9.5 5.38071 10.6193 6.5 12 6.5C13.3807 6.5 14.5 5.38071 14.5 4C14.5 2.61929 13.3807 1.5 12 1.5Z" fill="#777B92"/>
<path fill-rule="evenodd" clip-rule="evenodd" d="M0.5 7.5C0.5 5.84315 1.84315 4.5 3.5 4.5C5.15685 4.5 6.5 5.84315 6.5 7.5C6.5 9.15685 5.15685 10.5 3.5 10.5C1.84315 10.5 0.5 9.15685 0.5 7.5ZM3.5 5.5C2.39543 5.5 1.5 6.39543 1.5 7.5C1.5 8.60457 2.39543 9.5 3.5 9.5C4.60457 9.5 5.5 8.60457 5.5 7.5C5.5 6.39543 4.60457 5.5 3.5 5.5Z" fill="#777B92"/>
<path fill-rule="evenodd" clip-rule="evenodd" d="M8.5 11.5C9.60457 11.5 10.5 12.3954 10.5 13.5C10.5 14.6046 9.60457 15.5 8.5 15.5C7.39543 15.5 6.5 14.6046 6.5 13.5C6.5 12.3954 7.39543 11.5 8.5 11.5ZM7.5 13.5C7.5 14.0523 7.94772 14.5 8.5 14.5C9.05228 14.5 9.5 14.0523 9.5 13.5C9.5 12.9477 9.05228 12.5 8.5 12.5C7.94772 12.5 7.5 12.9477 7.5 13.5Z" fill="#777B92"/>
</svg>
