<svg width="16" height="16" viewBox="0 0 16 16" fill="none" xmlns="http://www.w3.org/2000/svg">
<path fill-rule="evenodd" clip-rule="evenodd" d="M1 0.5C1.27614 0.5 1.5 0.723858 1.5 1V5.79289L3.64645 3.64645C3.79863 3.49427 4.03111 3.45654 4.22361 3.55279L7.90127 5.39162L11.6464 1.64645C11.8417 1.45118 12.1583 1.45118 12.3536 1.64645C12.5488 1.84171 12.5488 2.15829 12.3536 2.35355L8.35355 6.35355C8.20137 6.50573 7.96889 6.54346 7.77639 6.44721L4.09873 4.60838L1.5 7.20711V10.7929L3.64645 8.64646C3.79863 8.49428 4.03111 8.45655 4.22361 8.5528L7.90127 10.3916L12.6464 5.64646C12.7894 5.50346 13.0045 5.46068 13.1913 5.53807C13.3782 5.61547 13.5 5.79778 13.5 6.00001V14.5H15C15.2761 14.5 15.5 14.7239 15.5 15C15.5 15.2761 15.2761 15.5 15 15.5H13.0038C13.0025 15.5 13.0013 15.5 13 15.5C12.9987 15.5 12.9975 15.5 12.9962 15.5H1C0.723858 15.5 0.5 15.2761 0.5 15V12.0001C0.5 12.0002 0.5 12 0.5 12.0001V1C0.5 0.723858 0.723858 0.5 1 0.5ZM1.5 12.2071V14.5H12.5V7.20712L8.35355 11.3536C8.20137 11.5057 7.96889 11.5435 7.77639 11.4472L4.09873 9.60839L1.5 12.2071Z" fill="#777B92"/>
</svg>
