<svg width="16" height="16" viewBox="0 0 16 16" fill="none" xmlns="http://www.w3.org/2000/svg">
<path fill-rule="evenodd" clip-rule="evenodd" d="M1.5 1V5.5H4.49992V3C4.49992 2.72386 4.72378 2.5 4.99992 2.5H9.99992C10.2761 2.5 10.4999 2.72386 10.4999 3V8.5H14C14.2761 8.5 14.5 8.72386 14.5 9V14.5H15C15.2761 14.5 15.5 14.7239 15.5 15C15.5 15.2761 15.2761 15.5 15 15.5H1C0.723858 15.5 0.5 15.2761 0.5 15V1C0.5 0.723858 0.723858 0.5 1 0.5C1.27614 0.5 1.5 0.723858 1.5 1ZM1.5 6.5V14.5H13.5V9.5H9.99992C9.72378 9.5 9.49992 9.27614 9.49992 9V3.5H5.49992V6C5.49992 6.27614 5.27606 6.5 4.99992 6.5H1.5Z" fill="#777B92"/>
</svg>
