<svg width="16" height="16" viewBox="0 0 16 16" fill="none" xmlns="http://www.w3.org/2000/svg">
<path fill-rule="evenodd" clip-rule="evenodd" d="M1.5 1V14.5H4.5L4.5 6C4.5 5.72386 4.72386 5.5 5 5.5C5.27614 5.5 5.5 5.72386 5.5 6L5.5 14.5H8.5V3C8.5 2.72386 8.72386 2.5 9 2.5C9.27614 2.5 9.5 2.72386 9.5 3V14.5H12.5L12.5 4C12.5 3.72386 12.7239 3.5 13 3.5C13.2761 3.5 13.5 3.72386 13.5 4L13.5 14.5H15C15.2761 14.5 15.5 14.7239 15.5 15C15.5 15.2761 15.2761 15.5 15 15.5H1C0.723858 15.5 0.5 15.2761 0.5 15V1C0.5 0.723858 0.723858 0.5 1 0.5C1.27614 0.5 1.5 0.723858 1.5 1Z" fill="#777B92"/>
</svg>
