<svg width="16" height="16" viewBox="0 0 16 16" fill="none" xmlns="http://www.w3.org/2000/svg">
<path fill-rule="evenodd" clip-rule="evenodd" d="M7.64645 0.646447C7.84171 0.451184 8.15829 0.451184 8.35355 0.646447L10.3536 2.64645C10.4473 2.74022 10.5 2.86739 10.5 3V4.84859L14.4161 10.7227C14.4708 10.8048 14.5001 10.9013 14.5001 11.0001V14.0001C14.5001 14.1894 14.3931 14.3626 14.2237 14.4473C14.0543 14.532 13.8516 14.5137 13.7001 14.4001L10.5 12V15C10.5 15.2761 10.2761 15.5 10 15.5H6C5.72386 15.5 5.5 15.2761 5.5 15V12.0001L2.3 14.4001C2.14849 14.5137 1.94579 14.532 1.77639 14.4473C1.607 14.3626 1.5 14.1894 1.5 14.0001V11.0001C1.5 10.9013 1.52922 10.8048 1.58397 10.7227L5.5 4.84867V3C5.5 2.86739 5.55268 2.74022 5.64645 2.64645L7.64645 0.646447ZM10.5 10.75L13.5001 13.0001V11.1514L10.5 6.65136V10.75ZM9.5 3.20711L8 1.70711L6.5 3.20711V14.5H9.5V3.20711ZM5.5 10.7501V6.65144L2.5 11.1514V13.0001L5.5 10.7501Z" fill="#777B92"/>
</svg>
