<svg width="16" height="16" viewBox="0 0 16 16" fill="none" xmlns="http://www.w3.org/2000/svg">
<path fill-rule="evenodd" clip-rule="evenodd" d="M8.64645 0.646447C8.84171 0.451184 9.15829 0.451184 9.35355 0.646447L13.3536 4.64645C13.5488 4.84171 13.5488 5.15829 13.3536 5.35355C13.1583 5.54882 12.8417 5.54882 12.6464 5.35355L9.5 2.20711L9.5 14C9.5 14.8284 8.82843 15.5 8 15.5H3C2.72386 15.5 2.5 15.2761 2.5 15C2.5 14.7239 2.72386 14.5 3 14.5H8C8.27614 14.5 8.5 14.2761 8.5 14L8.5 2.20711L5.35355 5.35355C5.15829 5.54882 4.84171 5.54882 4.64645 5.35355C4.45118 5.15829 4.45118 4.84171 4.64645 4.64645L8.64645 0.646447Z" fill="#777B92"/>
</svg>
