<svg width="16" height="16" viewBox="0 0 16 16" fill="none" xmlns="http://www.w3.org/2000/svg">
<path fill-rule="evenodd" clip-rule="evenodd" d="M0.5 8C0.5 3.86416 3.7176 0.5 8 0.5C9.5565 0.5 10.7683 0.759735 11.7978 1.30882C12.4365 1.64947 12.9882 2.0926 13.5 2.62682V1C13.5 0.723858 13.7239 0.5 14 0.5C14.2761 0.5 14.5 0.723858 14.5 1V4C14.5 4.27614 14.2761 4.5 14 4.5H11C10.7239 4.5 10.5 4.27614 10.5 4C10.5 3.72386 10.7239 3.5 11 3.5H12.9465C12.4392 2.93814 11.9199 2.50726 11.3272 2.19118C10.4817 1.74026 9.4435 1.5 8 1.5C4.2824 1.5 1.5 4.40385 1.5 8C1.5 11.5899 4.41015 14.5 8 14.5C11.5899 14.5 14.5 11.5899 14.5 8C14.5 7.72386 14.7239 7.5 15 7.5C15.2761 7.5 15.5 7.72386 15.5 8C15.5 12.1421 12.1421 15.5 8 15.5C3.85786 15.5 0.5 12.1421 0.5 8Z" fill="#777B92"/>
</svg>
