<svg width="16" height="16" viewBox="0 0 16 16" fill="none" xmlns="http://www.w3.org/2000/svg">
<path fill-rule="evenodd" clip-rule="evenodd" d="M8.5 6.20711V11C8.5 11.2761 8.27614 11.5 8 11.5C7.72386 11.5 7.5 11.2761 7.5 11V6.20711L6.35355 7.35355C6.15829 7.54882 5.84171 7.54882 5.64645 7.35355C5.45118 7.15829 5.45118 6.84171 5.64645 6.64645L7.64645 4.64645C7.84171 4.45118 8.15829 4.45118 8.35355 4.64645L10.3536 6.64645C10.5488 6.84171 10.5488 7.15829 10.3536 7.35355C10.1583 7.54882 9.84171 7.54882 9.64645 7.35355L8.5 6.20711Z" fill="#777B92"/>
<path fill-rule="evenodd" clip-rule="evenodd" d="M8 0.5C12.1421 0.5 15.5 3.85786 15.5 8C15.5 12.1421 12.1421 15.5 8 15.5C3.85786 15.5 0.5 12.1421 0.5 8C0.5 3.85786 3.85786 0.5 8 0.5ZM1.5 8C1.5 11.5899 4.41015 14.5 8 14.5C11.5899 14.5 14.5 11.5899 14.5 8C14.5 4.41015 11.5899 1.5 8 1.5C4.41015 1.5 1.5 4.41015 1.5 8Z" fill="#777B92"/>
</svg>
