<svg width="16" height="16" viewBox="0 0 16 16" fill="none" xmlns="http://www.w3.org/2000/svg">
<path fill-rule="evenodd" clip-rule="evenodd" d="M8 15.5C7.72386 15.5 7.5 15.2761 7.5 15V6.20711L4.35355 9.35355C4.15829 9.54882 3.84171 9.54882 3.64645 9.35355C3.45118 9.15829 3.45118 8.84171 3.64645 8.64645L7.64645 4.64645C7.84171 4.45118 8.15829 4.45118 8.35355 4.64645L12.3536 8.64645C12.5488 8.84171 12.5488 9.15829 12.3536 9.35355C12.1583 9.54882 11.8417 9.54882 11.6464 9.35355L8.5 6.20711V15C8.5 15.2761 8.27614 15.5 8 15.5Z" fill="#777B92"/>
<path fill-rule="evenodd" clip-rule="evenodd" d="M4 1.5C4 1.77614 3.77614 2 3.5 2C3.22386 2 3 1.77614 3 1.5C3 1.22386 3.22386 1 3.5 1C3.77614 1 4 1.22386 4 1.5Z" fill="#777B92"/>
<path fill-rule="evenodd" clip-rule="evenodd" d="M7 1.5C7 1.77614 6.77614 2 6.5 2C6.22386 2 6 1.77614 6 1.5C6 1.22386 6.22386 1 6.5 1C6.77614 1 7 1.22386 7 1.5Z" fill="#777B92"/>
<path fill-rule="evenodd" clip-rule="evenodd" d="M10 1.5C10 1.77614 9.77614 2 9.5 2C9.22386 2 9 1.77614 9 1.5C9 1.22386 9.22386 1 9.5 1C9.77614 1 10 1.22386 10 1.5Z" fill="#777B92"/>
<path fill-rule="evenodd" clip-rule="evenodd" d="M13 1.5C13 1.77614 12.7761 2 12.5 2C12.2239 2 12 1.77614 12 1.5C12 1.22386 12.2239 1 12.5 1C12.7761 1 13 1.22386 13 1.5Z" fill="#777B92"/>
</svg>
