<svg width="24" height="24" viewBox="0 0 24 24" fill="none" xmlns="http://www.w3.org/2000/svg">
<path fill-rule="evenodd" clip-rule="evenodd" d="M11.2929 2.29289C11.6834 1.90237 12.3166 1.90237 12.7071 2.29289L14.7071 4.29289C14.8946 4.48043 15 4.73478 15 5V7.66667L20.8 15.4C20.9298 15.5731 21 15.7836 21 16V20C21 20.388 20.7755 20.741 20.4242 20.9056C20.0728 21.0702 19.6579 21.0166 19.3598 20.7682L15 17.135V21C15 21.5523 14.5523 22 14 22H10C9.44772 22 9 21.5523 9 21V17.135L4.64018 20.7682C4.3421 21.0166 3.92723 21.0702 3.57584 20.9056C3.22446 20.741 3 20.388 3 20V16C3 15.7836 3.07018 15.5731 3.2 15.4L9 7.66667V5C9 4.73478 9.10536 4.48043 9.29289 4.29289L11.2929 2.29289ZM13 14.9924C13 14.9971 13 15.0018 13 15.0066V20H11V15.0065V14.9924V8.01164V7.9899V5.41421L12 4.41421L13 5.41421V7.98989C12.9999 7.99714 12.9999 8.00439 13 8.01164V14.9924ZM15 14.5316L19 17.865V16.3333L15 11V14.5316ZM9 14.5316V11L5 16.3333V17.865L9 14.5316Z" fill="#6E778C"/>
</svg>
