<svg width="24" height="24" viewBox="0 0 24 24" fill="none" xmlns="http://www.w3.org/2000/svg">
<path fill-rule="evenodd" clip-rule="evenodd" d="M6.83216 1.44528C7.13851 1.90481 7.01434 2.52568 6.55481 2.83203L3.55481 4.83203C3.09528 5.13839 2.47441 5.01421 2.16806 4.55468C1.8617 4.09516 1.98588 3.47429 2.44541 3.16793L5.44541 1.16793C5.90493 0.861581 6.5258 0.985755 6.83216 1.44528ZM18.5548 1.16793C18.0953 0.861581 17.4744 0.985755 17.1681 1.44528C16.8617 1.90481 16.9859 2.52568 17.4454 2.83203L20.4454 4.83203C20.9049 5.13839 21.5258 5.01421 21.8322 4.55468C22.1385 4.09516 22.0143 3.47429 21.5548 3.16793L18.5548 1.16793ZM4.00011 13C4.00011 8.58171 7.58183 4.99998 12.0001 4.99998C16.4184 4.99998 20.0001 8.58171 20.0001 13C20.0001 17.4183 16.4184 21 12.0001 21C7.58183 21 4.00011 17.4183 4.00011 13ZM12.0001 2.99998C6.47726 2.99998 2.00011 7.47714 2.00011 13C2.00011 18.5228 6.47726 23 12.0001 23C17.523 23 22.0001 18.5228 22.0001 13C22.0001 7.47714 17.523 2.99998 12.0001 2.99998ZM13.0001 8.99998C13.0001 8.4477 12.5524 7.99998 12.0001 7.99998C11.4478 7.99998 11.0001 8.4477 11.0001 8.99998V12C11.0001 13.1046 11.8955 14 13.0001 14H16.0001C16.5524 14 17.0001 13.5523 17.0001 13C17.0001 12.4477 16.5524 12 16.0001 12H13.0001V8.99998Z" fill="#6E778C"/>
</svg>
