<svg width="24" height="24" viewBox="0 0 24 24" fill="none" xmlns="http://www.w3.org/2000/svg">
<path fill-rule="evenodd" clip-rule="evenodd" d="M4 3C2.89543 3 2 3.89543 2 5V15C2 15.8316 2.50758 16.5447 3.22985 16.8463C3.08177 17.2015 3 17.5912 3 18C3 19.6569 4.34315 21 6 21C7.65685 21 9 19.6569 9 18C9 17.6494 8.93985 17.3128 8.82929 17H15C15.0584 17 15.1162 16.9975 15.1733 16.9926C15.0611 17.3075 15 17.6466 15 18C15 19.6569 16.3431 21 18 21C19.6569 21 21 19.6569 21 18C21 17.5912 20.9182 17.2015 20.7702 16.8463C21.4924 16.5447 22 15.8316 22 15V12.4806C22 11.8731 21.7238 11.2984 21.2494 10.9189L17 7.51938V5C17 3.89543 16.1046 3 15 3H4ZM18 15H20V12.4806L17 10.0806V15H18ZM18 17C17.4477 17 17 17.4477 17 18C17 18.5523 17.4477 19 18 19C18.5523 19 19 18.5523 19 18C19 17.4477 18.5523 17 18 17ZM5 18C5 17.4477 5.44772 17 6 17C6.55228 17 7 17.4477 7 18C7 18.5523 6.55228 19 6 19C5.44772 19 5 18.5523 5 18ZM15 15H6H4V5L15 5V7.99078V8.00795V15ZM9 7C9.55228 7 10 7.44772 10 8V9H11C11.5523 9 12 9.44772 12 10C12 10.5523 11.5523 11 11 11H10V12C10 12.5523 9.55228 13 9 13C8.44772 13 8 12.5523 8 12V11H7C6.44772 11 6 10.5523 6 10C6 9.44772 6.44772 9 7 9H8V8C8 7.44772 8.44772 7 9 7Z" fill="#6E778C"/>
</svg>
