<svg width="24" height="24" viewBox="0 0 24 24" fill="none" xmlns="http://www.w3.org/2000/svg">
<path fill-rule="evenodd" clip-rule="evenodd" d="M8.64023 5.23177C9.06451 5.58534 9.12183 6.2159 8.76827 6.64018L4.30176 12L8.76827 17.3598C9.12183 17.7841 9.06451 18.4147 8.64023 18.7682C8.21596 19.1218 7.58539 19.0645 7.23183 18.6402L2.76532 13.2804C2.14724 12.5387 2.14724 11.4613 2.76532 10.7196L7.23183 5.35981C7.58539 4.93553 8.21596 4.87821 8.64023 5.23177ZM12 6.99999C12.5523 6.99999 13 7.44771 13 7.99999V12.5858L14.2929 11.2929C14.6835 10.9024 15.3166 10.9024 15.7072 11.2929C16.0977 11.6834 16.0977 12.3166 15.7072 12.7071L12.7072 15.7071C12.3166 16.0976 11.6835 16.0976 11.2929 15.7071L8.29294 12.7071C7.90242 12.3166 7.90242 11.6834 8.29294 11.2929C8.68347 10.9024 9.31663 10.9024 9.70716 11.2929L11 12.5858V7.99999C11 7.44771 11.4478 6.99999 12 6.99999ZM16.7683 5.35981C16.4147 4.93553 15.7841 4.87821 15.3599 5.23177C14.9356 5.58534 14.8783 6.2159 15.2318 6.64018L19.6983 12L15.2318 17.3598C14.8783 17.7841 14.9356 18.4147 15.3599 18.7682C15.7841 19.1218 16.4147 19.0645 16.7683 18.6402L21.2348 13.2804C21.8529 12.5387 21.8529 11.4613 21.2348 10.7196L16.7683 5.35981Z" fill="#6E778C"/>
</svg>
