<svg width="24" height="24" viewBox="0 0 24 24" fill="none" xmlns="http://www.w3.org/2000/svg">
<path fill-rule="evenodd" clip-rule="evenodd" d="M5.04566 2.70129C5.21063 2.17422 5.77165 1.88069 6.29872 2.04567L10.2987 3.2977C10.81 3.45773 11.1043 3.99223 10.9662 4.50984L9.9662 8.2578C9.82382 8.79142 9.27582 9.10858 8.74221 8.96621C8.20859 8.82383 7.89142 8.27583 8.0338 7.74221L8.51852 5.92548C6.41574 7.13338 5 9.40217 5 12C5 14.9361 6.80802 17.4524 9.37522 18.4916C9.88715 18.6988 10.1342 19.2818 9.92694 19.7937C9.71971 20.3056 9.13672 20.5527 8.62478 20.3454C5.32832 19.0111 3 15.7786 3 12C3 8.81025 4.65886 6.0094 7.16028 4.41103L5.70128 3.95435C5.17421 3.78937 4.88068 3.22836 5.04566 2.70129ZM14.0731 4.20631C14.2803 3.69438 14.8633 3.44736 15.3752 3.65459C18.6717 4.98896 21 8.22138 21 12C21 15.1898 19.3411 17.9906 16.8397 19.589L18.2987 20.0457C18.8258 20.2106 19.1193 20.7717 18.9543 21.2987C18.7894 21.8258 18.2284 22.1193 17.7013 21.9543L13.7013 20.7023C13.19 20.5423 12.8957 20.0078 13.0338 19.4902L14.0338 15.7422C14.1762 15.2086 14.7242 14.8914 15.2578 15.0338C15.7914 15.1762 16.1086 15.7242 15.9662 16.2578L15.4815 18.0745C17.5843 16.8666 19 14.5978 19 12C19 9.06388 17.192 6.54764 14.6248 5.50846C14.1129 5.30124 13.8658 4.71824 14.0731 4.20631Z" fill="#6E778C"/>
</svg>
