<svg width="24" height="24" viewBox="0 0 24 24" fill="none" xmlns="http://www.w3.org/2000/svg">
<path fill-rule="evenodd" clip-rule="evenodd" d="M7 4C7 3.44772 6.55228 3 6 3C5.44772 3 5 3.44772 5 4L5 20C5 20.5523 5.44772 21 6 21C6.55228 21 7 20.5523 7 20L7 4ZM12 3C12.5523 3 13 3.44772 13 4L13 17.5858L14.2929 16.2929C14.6834 15.9024 15.3166 15.9024 15.7071 16.2929C16.0976 16.6834 16.0976 17.3166 15.7071 17.7071L12.7071 20.7071C12.3166 21.0976 11.6834 21.0976 11.2929 20.7071L8.29289 17.7071C7.90237 17.3166 7.90237 16.6834 8.29289 16.2929C8.68342 15.9024 9.31658 15.9024 9.70711 16.2929L11 17.5858L11 4C11 3.44772 11.4477 3 12 3ZM18 3C18.5523 3 19 3.44772 19 4L19 20C19 20.5523 18.5523 21 18 21C17.4477 21 17 20.5523 17 20L17 4C17 3.44772 17.4477 3 18 3Z" fill="#6E778C"/>
</svg>
