<svg width="24" height="24" viewBox="0 0 24 24" fill="none" xmlns="http://www.w3.org/2000/svg">
<path fill-rule="evenodd" clip-rule="evenodd" d="M12.7071 3.29289C12.3166 2.90237 11.6834 2.90237 11.2929 3.29289L8.29289 6.29289C7.90237 6.68342 7.90237 7.31658 8.29289 7.70711C8.68342 8.09763 9.31658 8.09763 9.70711 7.70711L11 6.41421V20C11 20.5523 11.4477 21 12 21C12.5523 21 13 20.5523 13 20V6.41421L14.2929 7.70711C14.6834 8.09763 15.3166 8.09763 15.7071 7.70711C16.0976 7.31658 16.0976 6.68342 15.7071 6.29289L12.7071 3.29289ZM6 3C6.55228 3 7 3.44772 7 4L7 20C7 20.5523 6.55228 21 6 21C5.44772 21 5 20.5523 5 20L5 4C5 3.44772 5.44772 3 6 3ZM17 20V4C17 3.44772 17.4477 3 18 3C18.5523 3 19 3.44772 19 4V20C19 20.5523 18.5523 21 18 21C17.4477 21 17 20.5523 17 20Z" fill="#6E778C"/>
</svg>
