<svg width="24" height="24" viewBox="0 0 24 24" fill="none" xmlns="http://www.w3.org/2000/svg">
<path fill-rule="evenodd" clip-rule="evenodd" d="M12.5528 5.10558C12.8916 4.93619 13.297 4.97274 13.6 5.20001L21.6 11.2C21.8518 11.3889 22 11.6852 22 12C22 12.3148 21.8518 12.6112 21.6 12.8L13.6 18.8C13.297 19.0273 12.8916 19.0638 12.5528 18.8944C12.214 18.725 12 18.3788 12 18V16L4 16C2.89543 16 2 15.1046 2 14V10C2 8.89544 2.89543 8.00001 4 8.00001L12 8.00001V6.00001C12 5.62123 12.214 5.27497 12.5528 5.10558ZM14 8.00001V9.00001C14 9.55229 13.5523 10 13 10L4 10V14L13 14C13.5523 14 14 14.4477 14 15V16L19.3333 12L14 8.00001Z" fill="#6E778C"/>
</svg>
