<svg width="24" height="24" viewBox="0 0 24 24" fill="none" xmlns="http://www.w3.org/2000/svg">
<path fill-rule="evenodd" clip-rule="evenodd" d="M11 5C11 5.03342 11.0016 5.06646 11.0048 5.09904C8.72019 5.56043 7 7.57933 7 10V11V16V17C7 19.7614 9.23858 22 12 22C14.7614 22 17 19.7614 17 17V10C17 7.57933 15.2798 5.56044 12.9952 5.09904C12.9984 5.06646 13 5.03342 13 5V4H14C14.5523 4 15 3.55228 15 3C15 2.44772 14.5523 2 14 2H12H10C9.44772 2 9 2.44772 9 3C9 3.55228 9.44772 4 10 4H11V5ZM9 17H11C11.5523 17 12 16.5523 12 16C12 15.4477 11.5523 15 11 15H9V12H11C11.5523 12 12 11.5523 12 11C12 10.4477 11.5523 10 11 10H9C9 8.34315 10.3431 7 12 7C13.6569 7 15 8.34315 15 10V17C15 18.6569 13.6569 20 12 20C10.3431 20 9 18.6569 9 17Z" fill="currentColor"/>
</svg>
