<svg width="24" height="24" viewBox="0 0 24 24" fill="none" xmlns="http://www.w3.org/2000/svg">
<path fill-rule="evenodd" clip-rule="evenodd" d="M4 2C2.89543 2 2 2.89543 2 4V20C2 21.1046 2.89543 22 4 22H20C21.1046 22 22 21.1046 22 20V4C22 2.89543 21.1046 2 20 2H4ZM4 4L20 4V20H4V4ZM17 13C17 12.4477 16.5523 12 16 12C15.4477 12 15 12.4477 15 13V16C15 16.5523 15.4477 17 16 17C16.5523 17 17 16.5523 17 16V13ZM12 7C12.5523 7 13 7.44772 13 8V16C13 16.5523 12.5523 17 12 17C11.4477 17 11 16.5523 11 16V8C11 7.44772 11.4477 7 12 7ZM9 11C9 10.4477 8.55228 10 8 10C7.44772 10 7 10.4477 7 11V16C7 16.5523 7.44772 17 8 17C8.55229 17 9 16.5523 9 16V11Z" fill="#6E778C"/>
</svg>
