<svg width="24" height="24" viewBox="0 0 24 24" fill="none" xmlns="http://www.w3.org/2000/svg">
<path fill-rule="evenodd" clip-rule="evenodd" d="M11.8682 5.49613C12.1423 5.01661 11.9757 4.40575 11.4961 4.13174C11.0166 3.85773 10.4058 4.02433 10.1318 4.50385L6.98669 10.0077C6.2248 11.341 7.18753 13 8.72318 13H11.2768L8.13176 18.5038C7.85775 18.9834 8.02434 19.5942 8.50386 19.8682C8.98338 20.1422 9.59423 19.9756 9.86824 19.4961L13.0133 13.9923C13.7752 12.659 12.8125 11 11.2768 11H8.72318L11.8682 5.49613ZM2 7.99999C2 6.89542 2.89543 5.99999 4 5.99999H7C7.55228 5.99999 8 6.4477 8 6.99999C8 7.55227 7.55228 7.99999 7 7.99999L4 7.99999V16H7C7.55228 16 8 16.4477 8 17C8 17.5523 7.55228 18 7 18H4C2.89543 18 2 17.1046 2 16V7.99999ZM12 6.99999C12 6.4477 12.4477 5.99999 13 5.99999H17C18.1046 5.99999 19 6.89542 19 7.99999V16C19 17.1046 18.1046 18 17 18H13C12.4477 18 12 17.5523 12 17C12 16.4477 12.4477 16 13 16H17V7.99999H13C12.4477 7.99999 12 7.55227 12 6.99999ZM22 8.99999C22.5523 8.99999 23 9.4477 23 9.99999V14C23 14.5523 22.5523 15 22 15C21.4477 15 21 14.5523 21 14V9.99999C21 9.4477 21.4477 8.99999 22 8.99999Z" fill="currentColor"/>
</svg>
