<svg width="24" height="24" viewBox="0 0 24 24" fill="none" xmlns="http://www.w3.org/2000/svg">
<path fill-rule="evenodd" clip-rule="evenodd" d="M4 2C2.34315 2 1 3.34315 1 5V7C1 7.76835 1.28885 8.46924 1.76389 9C1.28885 9.53076 1 10.2316 1 11V13C1 13.7684 1.28885 14.4692 1.7639 15C1.28885 15.5308 1 16.2316 1 17V19C1 20.6569 2.34315 22 4 22H13C13.5523 22 14 21.5523 14 21C14 20.4477 13.5523 20 13 20H4C3.44772 20 3 19.5523 3 19V17C3 16.4477 3.44772 16 4 16H13C13.5523 16 14 15.5523 14 15C14 14.4477 13.5523 14 13 14H4C3.44772 14 3 13.5523 3 13V11C3 10.4477 3.44772 10 4 10H18C18.5523 10 19 10.4477 19 11V12C19 12.5523 19.4477 13 20 13C20.5523 13 21 12.5523 21 12V11C21 10.2316 20.7111 9.53076 20.2361 9C20.7111 8.46925 21 7.76836 21 7V5C21 3.34315 19.6569 2 18 2H4ZM4 8H18C18.5523 8 19 7.55228 19 7V5C19 4.44772 18.5523 4 18 4H4C3.44772 4 3 4.44772 3 5V7C3 7.55228 3.44772 8 4 8ZM18.7071 19.7071L22.7071 15.7071C23.0976 15.3166 23.0976 14.6834 22.7071 14.2929C22.3166 13.9024 21.6834 13.9024 21.2929 14.2929L18 17.5858L16.7071 16.2929C16.3166 15.9024 15.6834 15.9024 15.2929 16.2929C14.9024 16.6834 14.9024 17.3166 15.2929 17.7071L17.2929 19.7071C17.6834 20.0976 18.3166 20.0976 18.7071 19.7071Z" fill="currentColor"/>
</svg>
