<svg width="24" height="24" viewBox="0 0 24 24" fill="none" xmlns="http://www.w3.org/2000/svg">
<path fill-rule="evenodd" clip-rule="evenodd" d="M5.00008 9C5.00008 5.13401 8.13409 2 12.0001 2C15.8661 2 19.0001 5.13401 19.0001 9V13.6972L19.7957 14.8906C20.6817 16.2197 19.729 18 18.1316 18H16.0001C16.0001 20.2091 14.2092 22 12.0001 22C9.79094 22 8.00008 20.2091 8.00008 18H5.8686C4.27121 18 3.31842 16.2197 4.2045 14.8906L5.00008 13.6972V9ZM10.0001 18C10.0001 19.1046 10.8955 20 12.0001 20C13.1046 20 14.0001 19.1046 14.0001 18H10.0001Z" fill="#6E778C"/>
</svg>
