<svg width="24" height="24" viewBox="0 0 24 24" fill="none" xmlns="http://www.w3.org/2000/svg">
<path fill-rule="evenodd" clip-rule="evenodd" d="M7 3H12.5C14.9853 3 17 5.01472 17 7.5C17 8.8438 16.411 10.05 15.477 10.8746C16.995 11.8536 18 13.5594 18 15.5C18 18.5376 15.5376 21 12.5 21H7C6.44772 21 6 20.5523 6 20V11V4C6 3.44772 6.44772 3 7 3ZM8 12V19H12.5C14.433 19 16 17.433 16 15.5C16 13.567 14.433 12 12.5 12C12.4137 12 12.3299 11.9891 12.25 11.9685C12.1701 11.9891 12.0863 12 12 12H8ZM12.25 10.0315C12.1701 10.0109 12.0863 10 12 10H8V5H12.5C13.8807 5 15 6.11929 15 7.5C15 8.88071 13.8807 10 12.5 10C12.4137 10 12.3299 10.0109 12.25 10.0315Z" fill="#6E778C"/>
</svg>
