<svg width="24" height="24" viewBox="0 0 24 24" fill="none" xmlns="http://www.w3.org/2000/svg">
<path fill-rule="evenodd" clip-rule="evenodd" d="M20 4C20 3.44772 19.5523 3 19 3C18.4477 3 18 3.44772 18 4V5H17C16.4477 5 16 5.44772 16 6C16 6.55228 16.4477 7 17 7H18V8C18 8.55228 18.4477 9 19 9C19.5523 9 20 8.55228 20 8V7H21C21.5523 7 22 6.55228 22 6C22 5.44772 21.5523 5 21 5H20V4ZM4.48507 3.34049C3.22278 3.02492 2 3.97963 2 5.28078V17.2192C2 18.137 2.62459 18.9369 3.51493 19.1595L10.5149 20.9095C10.5619 20.9213 10.6093 20.9313 10.6568 20.9396C10.7639 20.9787 10.8794 21 11 21C11.1206 21 11.2361 20.9787 11.3432 20.9396C11.3907 20.9313 11.4381 20.9213 11.4851 20.9095L18.4851 19.1595C19.3754 18.9369 20 18.137 20 17.2192V12C20 11.4477 19.5523 11 19 11C18.4477 11 18 11.4477 18 12V17.2192L12 18.7192V7H13C13.5523 7 14 6.55228 14 6C14 5.44772 13.5523 5 13 5L11.1231 5L4.48507 3.34049ZM10 6.78078L4 5.28078V17.2192L10 18.7192V6.78078Z" fill="#6E778C"/>
</svg>
