<svg width="24" height="24" viewBox="0 0 24 24" fill="none" xmlns="http://www.w3.org/2000/svg">
<path fill-rule="evenodd" clip-rule="evenodd" d="M6 2C4.89543 2 4 2.89543 4 4V19.6743C4 21.003 5.27181 21.9624 6.54944 21.5973L12 20.04L17.4506 21.5973C18.7282 21.9624 20 21.003 20 19.6743V4C20 2.89543 19.1046 2 18 2H6ZM14.7071 9.70711C15.0976 9.31658 15.0976 8.68342 14.7071 8.29289C14.3166 7.90237 13.6834 7.90237 13.2929 8.29289L12 9.58579L10.7071 8.29289C10.3166 7.90237 9.68342 7.90237 9.29289 8.29289C8.90237 8.68342 8.90237 9.31658 9.29289 9.70711L10.5858 11L9.29289 12.2929C8.90237 12.6834 8.90237 13.3166 9.29289 13.7071C9.68342 14.0976 10.3166 14.0976 10.7071 13.7071L12 12.4142L13.2929 13.7071C13.6834 14.0976 14.3166 14.0976 14.7071 13.7071C15.0976 13.3166 15.0976 12.6834 14.7071 12.2929L13.4142 11L14.7071 9.70711Z" fill="#6E778C"/>
</svg>
