<svg width="24" height="24" viewBox="0 0 24 24" fill="none" xmlns="http://www.w3.org/2000/svg">
<path fill-rule="evenodd" clip-rule="evenodd" d="M3 5.28077C3 3.97963 4.22278 3.02491 5.48507 3.34049L12.2222 5.02478C12.3032 5.04315 12.3804 5.07133 12.4526 5.10802C12.5857 5.17543 12.6995 5.27071 12.7882 5.38455C12.8772 5.49828 12.942 5.63174 12.9751 5.77727C12.9932 5.85618 13.0018 5.93793 13 6.02091V18.7192L19 17.2192V12C19 11.4477 19.4477 11 20 11C20.5523 11 21 11.4477 21 12V17.2192C21 18.137 20.3754 18.9369 19.4851 19.1595L12.4851 20.9095C12.4381 20.9213 12.3907 20.9313 12.3432 20.9396C12.2361 20.9787 12.1206 21 12 21C11.8794 21 11.7639 20.9787 11.6568 20.9396C11.6093 20.9313 11.5619 20.9213 11.5149 20.9095L4.51493 19.1595C3.62459 18.9369 3 18.137 3 17.2192V5.28077ZM11 18.7192V6.78077L5 5.28077V17.2192L11 18.7192ZM16.2929 4.29289C16.6834 3.90236 17.3166 3.90236 17.7071 4.29289C18.0976 4.68341 18.0976 5.31658 17.7071 5.7071L17.4142 5.99999H20C20.5523 5.99999 21 6.44771 21 6.99999C21 7.55228 20.5523 7.99999 20 7.99999H17.4142L17.7071 8.29289C18.0976 8.68341 18.0976 9.31658 17.7071 9.7071C17.3166 10.0976 16.6834 10.0976 16.2929 9.7071L14.2929 7.7071C13.9024 7.31658 13.9024 6.68341 14.2929 6.29289L16.2929 4.29289Z" fill="#6E778C"/>
</svg>
