<svg width="24" height="24" viewBox="0 0 24 24" fill="none" xmlns="http://www.w3.org/2000/svg">
<path fill-rule="evenodd" clip-rule="evenodd" d="M14.7506 3.51886C15.8969 2.60183 17.5262 3.20191 17.9145 4.49056L18.5149 4.34046C19.7772 4.02489 21 4.97961 21 6.28075V18.2192C21 19.1369 20.3754 19.9369 19.4851 20.1595L12.2643 21.9647C12.2182 21.9773 12.1707 21.9867 12.1222 21.9926C12.0057 22.0071 11.8903 22.0006 11.7803 21.9758C11.6944 21.9565 11.6127 21.9262 11.5367 21.8864C11.4269 21.8778 11.317 21.86 11.2082 21.8328L4.51493 20.1595C3.62459 19.9369 3 19.1369 3 18.2192V6.28075C3 4.97961 4.22278 4.02489 5.48507 4.34046L11.762 5.90971L14.7506 3.51886ZM13 18.5858L16 15.5858V5.77089C15.9997 5.7564 15.9997 5.74195 16 5.72754V5.0806L13.0114 7.47145C13.0076 7.47449 13.0038 7.47752 13 7.48053V18.5858ZM11 7.78075V19.7192L5 18.2192V6.28075L11 7.78075ZM19 6.28075L18 6.53075V15.5858C18 16.1162 17.7893 16.6249 17.4142 17L15.26 19.1542L19 18.2192V6.28075Z" fill="currentColor"/>
</svg>
