<svg width="24" height="24" viewBox="0 0 24 24" fill="none" xmlns="http://www.w3.org/2000/svg">
<path fill-rule="evenodd" clip-rule="evenodd" d="M2 5C2 3.89543 2.89543 3 4 3H20C21.1046 3 22 3.89543 22 5V17C22 18.1046 21.1046 19 20 19H8.27698L3.5145 21.8575C3.20557 22.0429 2.82081 22.0477 2.5073 21.8702C2.19379 21.6927 2 21.3603 2 21V5ZM20 5H4V19.2338L7.24799 17.285C7.55882 17.0985 7.9145 17 8.27698 17H20V5ZM12 8C12.5523 8 13 8.44772 13 9V10H14C14.5523 10 15 10.4477 15 11C15 11.5523 14.5523 12 14 12H13V13C13 13.5523 12.5523 14 12 14C11.4477 14 11 13.5523 11 13V12H10C9.44772 12 9 11.5523 9 11C9 10.4477 9.44772 10 10 10H11V9C11 8.44772 11.4477 8 12 8Z" fill="currentColor"/>
</svg>
