<svg width="24" height="24" viewBox="0 0 24 24" fill="none" xmlns="http://www.w3.org/2000/svg">
<path fill-rule="evenodd" clip-rule="evenodd" d="M4 2C2.89543 2 2 2.89543 2 4V7V18C2 19.1046 2.89543 20 4 20H7C7.55228 20 8 19.5523 8 19C8 18.4477 7.55228 18 7 18H4V8H18V9C18 9.55228 18.4477 10 19 10C19.5523 10 20 9.55228 20 9V7V4C20 2.89543 19.1046 2 18 2H4ZM18 6V4H4V6H18ZM8 11C8 11.5523 7.55228 12 7 12C6.44772 12 6 11.5523 6 11C6 10.4477 6.44772 10 7 10C7.55228 10 8 10.4477 8 11ZM11 12C11.5523 12 12 11.5523 12 11C12 10.4477 11.5523 10 11 10C10.4477 10 10 10.4477 10 11C10 11.5523 10.4477 12 11 12ZM8 15C8 15.5523 7.55228 16 7 16C6.44772 16 6 15.5523 6 15C6 14.4477 6.44772 14 7 14C7.55228 14 8 14.4477 8 15ZM16.4167 13C14.5163 13 13.0721 14.4614 13.0028 16.3569L13.1526 16.2176C13.557 15.8416 14.1898 15.8646 14.5658 16.2691C14.9419 16.6735 14.9189 17.3063 14.5144 17.6824L13.0625 19.0324C12.7777 19.2971 12.3653 19.3728 12.0051 19.2264L9.79035 18.3264C9.2787 18.1185 9.03248 17.5352 9.2404 17.0235C9.44833 16.5119 10.0317 16.2657 10.5433 16.4736L11.0025 16.6602C11.0009 16.607 11.0002 16.5536 11.0002 16.5C11.0002 13.494 13.302 11 16.4167 11C19.4829 11 22 13.4452 22 16.5C22 19.5548 19.4829 22 16.4167 22C15.8644 22 15.4167 21.5523 15.4167 21C15.4167 20.4477 15.8644 20 16.4167 20C18.4131 20 20 18.4158 20 16.5C20 14.5842 18.4131 13 16.4167 13Z" fill="#6E778C"/>
</svg>
