<svg width="24" height="24" viewBox="0 0 24 24" fill="none" xmlns="http://www.w3.org/2000/svg">
<path fill-rule="evenodd" clip-rule="evenodd" d="M5.01395 2.11238C3.99492 1.9925 3.05048 2.6632 2.82789 3.66482L1.10621 11.4124C1.09001 11.4853 1.07798 11.5587 1.07006 11.6323C1.0634 11.6492 1.05715 11.6663 1.05134 11.6838C0.941117 12.0144 1.01325 12.362 1.21319 12.6173C1.24168 12.6855 1.27406 12.7524 1.31027 12.8176L5.84012 20.9713C6.19285 21.6062 6.8621 22 7.58843 22H18.256C18.4052 22 18.5515 21.9835 18.6927 21.9519C19.0878 22.0795 19.537 21.9507 19.8 21.6C19.9395 21.414 20.0044 21.1953 19.9999 20.9795C20.0708 20.8532 20.1287 20.7178 20.1716 20.5747L22.8911 11.5099C22.9042 11.4663 22.9157 11.4224 22.9258 11.3782C23.0062 11.1814 23.0245 10.9585 22.966 10.7411C22.9616 10.6961 22.9557 10.6511 22.9482 10.6064L22.1099 5.57658C21.9636 4.69866 21.2547 4.02306 20.3708 3.91907L5.01395 2.11238ZM20.877 10.3443L20.1371 5.90537L4.78027 4.09868L3.17186 11.3365L10.9857 13.9411L20.877 10.3443ZM4.12268 13.7616L7.58843 20H16L10.5298 15.8974L4.12268 13.7616ZM18.4539 19.3404L20.4698 12.6205L13.078 15.3084L18.4539 19.3404Z" fill="#6E778C"/>
</svg>
