<svg width="24" height="24" viewBox="0 0 24 24" fill="none" xmlns="http://www.w3.org/2000/svg">
<path fill-rule="evenodd" clip-rule="evenodd" d="M12 3C7.02944 3 3 7.02944 3 12C3 16.9706 7.02944 21 12 21C16.9706 21 21 16.9706 21 12C21 7.02944 16.9706 3 12 3ZM1 12C1 5.92487 5.92487 1 12 1C18.0751 1 23 5.92487 23 12C23 18.0751 18.0751 23 12 23C5.92487 23 1 18.0751 1 12ZM12.0302 10C12.5824 10.0048 13.0263 10.4564 13.0215 11.0086L12.9784 16.0084C12.9736 16.5607 12.522 17.0045 11.9698 16.9998C11.4175 16.995 10.9737 16.5435 10.9784 15.9912L11.0216 10.9914C11.0263 10.4391 11.4779 9.99527 12.0302 10ZM12 9C12.5523 9 13 8.55228 13 8C13 7.44772 12.5523 7 12 7C11.4477 7 11 7.44772 11 8C11 8.55228 11.4477 9 12 9Z" fill="currentColor"/>
</svg>
