<svg width="24" height="24" viewBox="0 0 24 24" fill="none" xmlns="http://www.w3.org/2000/svg">
<path fill-rule="evenodd" clip-rule="evenodd" d="M12 1C5.92487 1 1 5.92487 1 12C1 18.0751 5.92487 23 12 23C18.0751 23 23 18.0751 23 12C23 5.92487 18.0751 1 12 1ZM10 10C10 8.89543 10.8954 8 12 8C13.1046 8 14 8.89543 14 10C14 10.8738 13.4391 11.6191 12.6547 11.8907C11.9238 12.1437 11 12.8475 11 14V15C11 15.5523 11.4477 16 12 16C12.5523 16 13 15.5523 13 15V14.0027C13.0026 13.9952 13.0114 13.9774 13.0372 13.9489C13.0903 13.8901 13.186 13.8232 13.3091 13.7806C14.874 13.2388 16 11.7522 16 10C16 7.79086 14.2091 6 12 6C9.79086 6 8 7.79086 8 10C8 10.5523 8.44772 11 9 11C9.55228 11 10 10.5523 10 10ZM12 19C12.5523 19 13 18.5523 13 18C13 17.4477 12.5523 17 12 17C11.4477 17 11 17.4477 11 18C11 18.5523 11.4477 19 12 19Z" fill="#6E778C"/>
</svg>
