<svg width="24" height="24" viewBox="0 0 24 24" fill="none" xmlns="http://www.w3.org/2000/svg">
<path fill-rule="evenodd" clip-rule="evenodd" d="M4 12C4 7.58172 7.58172 4 12 4C16.4183 4 20 7.58172 20 12C20 16.4183 16.4183 20 12 20C7.58172 20 4 16.4183 4 12ZM12 2C6.47715 2 2 6.47715 2 12C2 17.5228 6.47715 22 12 22C17.5228 22 22 17.5228 22 12C22 6.47715 17.5228 2 12 2ZM16.9487 7.68377C17.1233 8.20772 16.8402 8.77404 16.3162 8.94868L14 9.72076V14C14 15.6569 12.6569 17 11 17C9.34315 17 8 15.6569 8 14C8 12.3431 9.34315 11 11 11C11.3506 11 11.6872 11.0602 12 11.1707V9.72076C12 8.8599 12.5509 8.09562 13.3675 7.82339L15.6838 7.05132C16.2077 6.87667 16.774 7.15983 16.9487 7.68377ZM11 13C11.5523 13 12 13.4477 12 14C12 14.5523 11.5523 15 11 15C10.4477 15 10 14.5523 10 14C10 13.4477 10.4477 13 11 13Z" fill="#6E778C"/>
</svg>
