<svg width="24" height="24" viewBox="0 0 24 24" fill="none" xmlns="http://www.w3.org/2000/svg">
<path fill-rule="evenodd" clip-rule="evenodd" d="M18.7861 1.24504C19.8807 1.00182 20.9613 1.70578 21.1811 2.80526L21.7888 5.84399C22.0021 6.91086 21.3235 7.95256 20.2614 8.18854L12.1085 10H21.0001C21.5524 10 22.0001 10.4477 22.0001 11V21C22.0001 21.5523 21.5524 22 21.0001 22H3.00014C2.44786 22 2.00014 21.5523 2.00014 21V11C2.00014 10.9195 2.00966 10.8412 2.02764 10.7661C1.9317 10.5917 1.86037 10.3997 1.8192 10.1939L1.21156 7.15556C0.998194 6.08869 1.67679 5.04697 2.73888 4.81096L18.7861 1.24504ZM5.74185 6.19244L3.17272 6.76333L3.78037 9.80164L5.07766 9.5134L5.74185 6.19244ZM7.87632 5.71813L7.21212 9.03915L10.1009 8.3973L10.7651 5.07621L7.87632 5.71813ZM15.1241 7.28121L12.2353 7.92306L12.8996 4.6019L15.7883 3.95997L15.1241 7.28121ZM17.2586 6.80696L19.8276 6.23615L19.22 3.19742L17.9228 3.48566L17.2586 6.80696ZM4.00014 12V20H20.0001V12H4.00014Z" fill="#6E778C"/>
</svg>
