<svg width="24" height="24" viewBox="0 0 24 24" fill="none" xmlns="http://www.w3.org/2000/svg">
<path fill-rule="evenodd" clip-rule="evenodd" d="M18.7859 1.24502C19.8804 1.0018 20.961 1.70576 21.1809 2.80523L21.7885 5.84397C22.0019 6.91084 21.3232 7.95254 20.2612 8.18852L12.1082 10H20.9999C21.5522 10 21.9999 10.4477 21.9999 11V21C21.9999 21.5523 21.5522 22 20.9999 22H2.9999C2.44761 22 1.9999 21.5523 1.9999 21V11C1.9999 10.9195 2.00942 10.8411 2.0274 10.7661C1.93145 10.5916 1.86012 10.3997 1.81896 10.1938L1.21132 7.15553C0.99795 6.08867 1.67655 5.04694 2.73863 4.81093L18.7859 1.24502ZM5.74161 6.19242L3.17248 6.76331L3.78012 9.80162L5.07742 9.51337L5.74161 6.19242ZM7.87608 5.71811L7.21188 9.03913L10.1006 8.39728L10.7649 5.07618L7.87608 5.71811ZM15.1239 7.28119L12.2351 7.92303L12.8993 4.60187L15.7881 3.95995L15.1239 7.28119ZM17.2583 6.80694L19.8274 6.23613L19.2197 3.1974L17.9226 3.48564L17.2583 6.80694ZM3.9999 12V20H19.9999V12H3.9999Z" fill="#6E778C"/>
</svg>
