<svg width="24" height="24" viewBox="0 0 24 24" fill="none" xmlns="http://www.w3.org/2000/svg">
<path fill-rule="evenodd" clip-rule="evenodd" d="M4 12C4 7.58172 7.58172 4 12 4C12.5523 4 13 3.55228 13 3C13 2.44772 12.5523 2 12 2C6.47715 2 2 6.47715 2 12C2 17.5228 6.47715 22 12 22C17.5228 22 22 17.5228 22 12C22 11.2377 21.9145 10.4941 21.7522 9.77871C21.63 9.24012 21.0943 8.90258 20.5557 9.02479C20.0171 9.147 19.6796 9.68269 19.8018 10.2213C19.9314 10.7924 20 11.3876 20 12C20 16.4183 16.4183 20 12 20C7.58172 20 4 16.4183 4 12ZM18 3C18 2.44772 17.5523 2 17 2C16.4477 2 16 2.44772 16 3V4H15C14.4477 4 14 4.44772 14 5C14 5.55228 14.4477 6 15 6H16V7C16 7.55228 16.4477 8 17 8C17.5523 8 18 7.55228 18 7V6H19C19.5523 6 20 5.55228 20 5C20 4.44772 19.5523 4 19 4H18V3ZM13 8C13 7.44772 12.5523 7 12 7C11.4477 7 11 7.44772 11 8V11C11 12.1046 11.8954 13 13 13H16C16.5523 13 17 12.5523 17 12C17 11.4477 16.5523 11 16 11H13V8Z" fill="#6E778C"/>
</svg>
