<svg width="24" height="24" viewBox="0 0 24 24" fill="none" xmlns="http://www.w3.org/2000/svg">
<path fill-rule="evenodd" clip-rule="evenodd" d="M4 11C4 7.13401 7.13401 4 11 4C14.5266 4 17.4442 6.60796 17.9292 10.0005C17.9528 10.0002 17.9764 10 18 10C20.7614 10 23 12.2386 23 15C23 17.7614 20.7614 20 18 20H5C2.79086 20 1 18.2091 1 16C1 14.105 2.31771 12.5178 4.08682 12.1047C4.02964 11.7444 4 11.3754 4 11ZM5 14C3.89543 14 3 14.8954 3 16C3 17.1046 3.89543 18 5 18H18C19.6569 18 21 16.6569 21 15C21 13.3431 19.6569 12 18 12C17.7723 12 17.5516 12.0252 17.3402 12.0726C16.661 12.2248 16 11.7119 16 11C16 8.23858 13.7614 6 11 6C8.23858 6 6 8.23858 6 11C6 11.49 6.07019 11.9619 6.20043 12.4071C6.44422 13.2403 5.78716 14 5 14Z" fill="#6E778C"/>
</svg>
