<svg width="24" height="24" viewBox="0 0 24 24" fill="none" xmlns="http://www.w3.org/2000/svg">
<path fill-rule="evenodd" clip-rule="evenodd" d="M9 1C6.23858 1 4 3.23858 4 6V8C4 8.55228 4.44772 9 5 9C5.55228 9 6 8.55228 6 8V6C6 4.34315 7.34315 3 9 3C10.6569 3 12 4.34315 12 6V18C12 19.6569 10.6569 21 9 21C7.34315 21 6 19.6569 6 18V16C6 15.4477 5.55228 15 5 15C4.44772 15 4 15.4477 4 16V18C4 20.7614 6.23858 23 9 23C11.7614 23 14 20.7614 14 18V6C14 3.23858 11.7614 1 9 1ZM18.4453 8.16795C18.9048 7.8616 19.5257 7.98577 19.8321 8.4453L21.8321 11.4453C22.056 11.7812 22.056 12.2188 21.8321 12.5547L19.8321 15.5547C19.5257 16.0142 18.9048 16.1384 18.4453 15.8321C17.9858 15.5257 17.8616 14.9048 18.1679 14.4453L19.1315 13H16C15.4477 13 15 12.5523 15 12C15 11.4477 15.4477 11 16 11H19.1315L18.1679 9.5547C17.8616 9.09517 17.9858 8.4743 18.4453 8.16795ZM2 12C2 11.4477 2.44772 11 3 11H9C9.55228 11 10 11.4477 10 12C10 12.5523 9.55228 13 9 13H3C2.44772 13 2 12.5523 2 12Z" fill="currentColor"/>
</svg>
