<svg width="24" height="24" viewBox="0 0 24 24" fill="none" xmlns="http://www.w3.org/2000/svg">
<path fill-rule="evenodd" clip-rule="evenodd" d="M4.00018 2C2.89561 2 2.00018 2.89543 2.00018 4V6.98003C1.99994 6.99275 1.99994 7.00547 2.00018 7.01817L2.00018 17L2.00018 20C2.00018 21.1046 2.89561 22 4.00018 22L20.0002 22C21.1048 22 22.0002 21.1046 22.0002 20V17.02C22.0004 17.0073 22.0004 16.9945 22.0002 16.9818L22.0002 7.00095V7V6.99905V4C22.0002 2.89543 21.1048 2 20.0002 2L4.00018 2ZM4.00018 18V20L20.0002 20V18L4.00018 18ZM17.1411 16L4.00018 16L4.00018 8.69951L17.1411 16ZM20.0002 4V6L4.00018 6V4L20.0002 4ZM20.0002 8L6.85931 8L20.0002 15.3005L20.0002 8Z" fill="#6E778C"/>
</svg>
