<svg width="24" height="24" viewBox="0 0 24 24" fill="none" xmlns="http://www.w3.org/2000/svg">
<path fill-rule="evenodd" clip-rule="evenodd" d="M4.70711 3.29289C4.31658 2.90237 3.68342 2.90237 3.29289 3.29289C2.90237 3.68342 2.90237 4.31658 3.29289 4.70711L7.58579 9H4V7.5C4 6.94772 3.55228 6.5 3 6.5C2.44772 6.5 2 6.94772 2 7.5V18C2 19.1046 2.89543 20 4 20H15C15.5523 20 16 19.5523 16 19C16 18.4477 15.5523 18 15 18H4V11H9.58579L19.2929 20.7071C19.6834 21.0976 20.3166 21.0976 20.7071 20.7071C21.0976 20.3166 21.0976 19.6834 20.7071 19.2929L12.4142 11H20V16C20 16.5523 20.4477 17 21 17C21.5523 17 22 16.5523 22 16V6C22 4.89543 21.1046 4 20 4H9C8.44772 4 8 4.44772 8 5C8 5.55228 8.44772 6 9 6H20V9H10.4142L4.70711 3.29289ZM6 15C6 14.4477 6.44772 14 7 14H11C11.5523 14 12 14.4477 12 15C12 15.5523 11.5523 16 11 16H7C6.44772 16 6 15.5523 6 15Z" fill="#6E778C"/>
</svg>
