<svg width="23" height="24" viewBox="0 0 23 24" fill="none" xmlns="http://www.w3.org/2000/svg">
<path fill-rule="evenodd" clip-rule="evenodd" d="M11.1055 2.32919C11.6686 2.04766 12.3313 2.04766 12.8944 2.32919L19.8944 5.82919C20.0044 5.88421 20.1079 5.94856 20.204 6.021C20.4928 6.08139 20.7522 6.26841 20.8944 6.55279C21.0077 6.77931 21.0269 7.02827 20.9669 7.25527C20.9887 7.37365 21 7.49499 21 7.61804V16.382C21 17.1395 20.572 17.832 19.8944 18.1708L12.8944 21.6708C12.806 21.715 12.7151 21.7523 12.6225 21.7826C12.4517 21.9187 12.2353 22 12 22C11.7646 22 11.5482 21.9187 11.3774 21.7826C11.2849 21.7523 11.194 21.715 11.1055 21.6708L4.10555 18.1708C3.42798 17.832 2.99997 17.1395 2.99997 16.382V7.61804C2.99997 7.49499 3.01127 7.37365 3.03309 7.25527C2.97307 7.02827 2.99229 6.77931 3.10555 6.55279C3.24774 6.26841 3.50715 6.08139 3.79593 6.021C3.89205 5.94856 3.99551 5.88421 4.10555 5.82919L11.1055 2.32919ZM13 19.382L19 16.382V8.61804L13 11.618V19.382ZM11 11.618V19.382L4.99997 16.382V8.61804L11 11.618ZM12 4.11804L17.7639 7.00001L12 9.88197L6.23604 7.00001L12 4.11804Z" fill="#6E778C"/>
</svg>
