<svg width="24" height="24" viewBox="0 0 24 24" fill="none" xmlns="http://www.w3.org/2000/svg">
<path fill-rule="evenodd" clip-rule="evenodd" d="M13 2C13 1.44772 12.5523 1 12 1C11.4477 1 11 1.44772 11 2V3.0688C10.0786 3.19694 9.22161 3.49989 8.48493 3.94256C8.01154 4.22702 7.85839 4.84138 8.14285 5.31477C8.42731 5.78816 9.04167 5.94132 9.51507 5.65686C9.94316 5.39961 10.4461 5.20414 11 5.09576V9.58579L4.70711 3.29289C4.31658 2.90237 3.68342 2.90237 3.29289 3.29289C2.90237 3.68342 2.90237 4.31658 3.29289 4.70711L6.72398 8.13819C6.30594 8.25799 6 8.64307 6 9.09961C6 10.2887 6.49383 11.357 7.27106 12.1846C7.64915 12.5872 8.282 12.607 8.68458 12.2289C9.08716 11.8509 9.10702 11.218 8.72894 10.8154C8.33972 10.401 8.10146 9.93075 8.02605 9.44026L11 12.4142V18.9079C9.14863 18.5553 8 17.2485 8 16C8 15.4477 7.55228 15 7 15C6.44772 15 6 15.4477 6 16C6 18.6362 8.30792 20.5447 11 20.9289V22C11 22.5523 11.4477 23 12 23C12.5523 23 13 22.5523 13 22V20.9312C13.9214 20.8031 14.7784 20.5001 15.5151 20.0574C15.9885 19.773 16.1416 19.1586 15.8572 18.6852C15.5727 18.2118 14.9583 18.0587 14.4849 18.3431C14.0568 18.6004 13.5539 18.7959 13 18.9042V14.4142L19.2929 20.7071C19.6834 21.0976 20.3166 21.0976 20.7071 20.7071C21.0976 20.3166 21.0976 19.6834 20.7071 19.2929L17.276 15.8618C17.6941 15.742 18 15.3569 18 14.9004C18 13.7113 17.5062 12.643 16.7289 11.8154C16.3509 11.4128 15.718 11.393 15.3154 11.7711C14.9128 12.1491 14.893 12.782 15.2711 13.1846C15.6603 13.599 15.8985 14.0693 15.974 14.5597L13 11.5858V5.09213C14.8514 5.44474 16 6.7515 16 8C16 8.55228 16.4477 9 17 9C17.5523 9 18 8.55228 18 8C18 5.36382 15.6921 3.4553 13 3.07111V2Z" fill="#6E778C"/>
</svg>
