<svg width="24" height="24" viewBox="0 0 24 24" fill="none" xmlns="http://www.w3.org/2000/svg">
<path fill-rule="evenodd" clip-rule="evenodd" d="M11 4.06189C7.05369 4.55399 4 7.92038 4 12C4 13.8487 4.62708 15.551 5.68014 16.9056L7.8284 14.7574C7.30488 13.967 7 13.0191 7 12C7 9.58104 8.71776 7.56329 11 7.10002V4.06189ZM9.24261 16.1716L7.09436 18.3199C8.44904 19.3729 10.1513 20 12 20C16.0796 20 19.446 16.9463 19.9381 13H16.9C16.4367 15.2822 14.419 17 12 17C10.9809 17 10.033 16.6951 9.24261 16.1716ZM16.9 11H19.9381C19.4869 7.38128 16.6187 4.51314 13 4.06189V7.10002C14.9591 7.4977 16.5023 9.04087 16.9 11ZM12 22C17.5228 22 22 17.5228 22 12C22 6.47715 17.5228 2 12 2C6.47715 2 2 6.47715 2 12C2 17.5228 6.47715 22 12 22ZM12 9C13.6569 9 15 10.3431 15 12C15 13.6569 13.6569 15 12 15C10.3431 15 9 13.6569 9 12C9 10.3431 10.3431 9 12 9Z" fill="currentColor"/>
</svg>
