<svg width="24" height="24" viewBox="0 0 24 24" fill="none" xmlns="http://www.w3.org/2000/svg">
<path fill-rule="evenodd" clip-rule="evenodd" d="M12 5.17495C11.2217 5.6769 9.71073 6.73534 8.392 8.14043C7.02016 9.6021 6 11.2857 6 13C6 16.4352 8.6737 19 12 19C15.3263 19 18 16.4352 18 13C18 11.2857 16.9798 9.6021 15.608 8.14043C14.2893 6.73534 12.7783 5.6769 12 5.17495ZM10.976 3.45567C11.6028 3.05457 12.3972 3.05457 13.024 3.45567C13.849 3.98356 15.5552 5.16163 17.0663 6.77174C18.5555 8.35847 20 10.5186 20 13C20 17.5648 16.4057 21 12 21C7.59431 21 4 17.5648 4 13C4 10.5186 5.44447 8.35847 6.93368 6.77174C8.44484 5.16163 10.151 3.98356 10.976 3.45567Z" fill="currentColor"/>
</svg>
