<svg width="24" height="24" viewBox="0 0 24 24" fill="none" xmlns="http://www.w3.org/2000/svg">
<path fill-rule="evenodd" clip-rule="evenodd" d="M13.9701 1.75744C13.8741 1.37344 13.5607 1.0822 13.1707 1.01465C12.7807 0.947092 12.3875 1.11593 12.1679 1.44527L9.50128 5.44527C9.19493 5.9048 9.3191 6.52567 9.77863 6.83203C10.2382 7.13838 10.859 7.0142 11.1654 6.55468L12.5781 4.43557L14.0299 10.2425C14.1411 10.6877 14.5411 11 15 11H17.1315L16.1679 12.4453C15.8616 12.9048 15.9858 13.5257 16.4453 13.832C16.9048 14.1384 17.5257 14.0142 17.8321 13.5547L19.8321 10.5547C20.0366 10.2478 20.0557 9.85327 19.8817 9.52812C19.7077 9.20296 19.3688 8.99998 19 8.99998H15.7808L13.9701 1.75744ZM7.83205 11.5547C8.1384 11.0951 8.01423 10.4743 7.5547 10.1679C7.09517 9.86157 6.4743 9.98575 6.16795 10.4453L4.16795 13.4453C3.96338 13.7521 3.94431 14.1467 4.11833 14.4718C4.29234 14.797 4.6312 15 5 15H8.21922L10.0299 22.2425C10.1259 22.6265 10.4393 22.9177 10.8293 22.9853C11.2193 23.0529 11.6125 22.884 11.8321 22.5547L14.8321 18.0547C15.1384 17.5951 15.0142 16.9743 14.5547 16.6679C14.0952 16.3616 13.4743 16.4857 13.1679 16.9453L11.4219 19.5644L9.97014 13.7574C9.85885 13.3123 9.45887 13 9 13H6.86852L7.83205 11.5547ZM4.70711 3.29287C4.31658 2.90234 3.68342 2.90234 3.29289 3.29287C2.90237 3.68339 2.90237 4.31656 3.29289 4.70708L19.2929 20.7071C19.6834 21.0976 20.3166 21.0976 20.7071 20.7071C21.0976 20.3166 21.0976 19.6834 20.7071 19.2929L4.70711 3.29287Z" fill="currentColor"/>
</svg>
