<svg width="24" height="24" viewBox="0 0 24 24" fill="none" xmlns="http://www.w3.org/2000/svg">
<path fill-rule="evenodd" clip-rule="evenodd" d="M12 17C9.19983 17 6.00841 15.3706 4.13061 12C6.00835 8.62936 9.19982 7 12 7C14.8002 7 17.9916 8.62935 19.8694 12C17.9916 15.3706 14.8002 17 12 17ZM12 5C8.43323 5 4.57055 7.06239 2.35724 11.0739C2.03928 11.6502 2.03929 12.3498 2.35725 12.9261C4.57062 16.9376 8.43322 19 12 19C15.5668 19 19.4294 16.9376 21.6428 12.9261C21.9608 12.3498 21.9608 11.6502 21.6428 11.0739C19.4294 7.06239 15.5668 5 12 5ZM11 12C11 11.4477 11.4477 11 12 11C12.5523 11 13 11.4477 13 12C13 12.5523 12.5523 13 12 13C11.4477 13 11 12.5523 11 12ZM12 9C10.3432 9 9.00002 10.3431 9.00002 12C9.00002 13.6569 10.3432 15 12 15C13.6569 15 15 13.6569 15 12C15 10.3431 13.6569 9 12 9Z" fill="#6E778C"/>
</svg>
