<svg width="24" height="24" viewBox="0 0 24 24" fill="none" xmlns="http://www.w3.org/2000/svg">
<path fill-rule="evenodd" clip-rule="evenodd" d="M4 12C4 7.58172 7.58172 4 12 4C16.4183 4 20 7.58172 20 12C20 16.4183 16.4183 20 12 20C7.58172 20 4 16.4183 4 12ZM12 2C6.47715 2 2 6.47715 2 12C2 17.5228 6.47715 22 12 22C17.5228 22 22 17.5228 22 12C22 6.47715 17.5228 2 12 2ZM8.5 11C9.32843 11 10 10.3284 10 9.5C10 8.67157 9.32843 8 8.5 8C7.67157 8 7 8.67157 7 9.5C7 10.3284 7.67157 11 8.5 11ZM17 9.5C17 10.3284 16.3284 11 15.5 11C14.6716 11 14 10.3284 14 9.5C14 8.67157 14.6716 8 15.5 8C16.3284 8 17 8.67157 17 9.5ZM8.79954 14.3994C8.46783 13.9578 7.84096 13.8688 7.39939 14.2005C6.95781 14.5322 6.86875 15.159 7.20046 15.6006C8.29334 17.0555 10.0363 18 12 18C13.9636 18 15.707 17.0557 16.7999 15.6006C17.1316 15.159 17.0425 14.5321 16.6009 14.2004C16.1594 13.8687 15.5325 13.9578 15.2008 14.3994C14.4693 15.3732 13.308 16 12 16C10.6922 16 9.53108 15.3732 8.79954 14.3994Z" fill="#6E778C"/>
</svg>
