<svg width="24" height="24" viewBox="0 0 24 24" fill="none" xmlns="http://www.w3.org/2000/svg">
<path fill-rule="evenodd" clip-rule="evenodd" d="M19 2C19 2.55228 18.5523 3 18 3C17.4477 3 17 2.55228 17 2C17 1.44772 17.4477 1 18 1C18.5523 1 19 1.44772 19 2ZM13 3C13 3.55228 12.5523 4 12 4C11.4477 4 11 3.55228 11 3C11 2.44772 11.4477 2 12 2C12.5523 2 13 2.44772 13 3ZM8.99998 6C9.55227 6 9.99998 5.55228 9.99998 5C9.99998 4.44772 9.55227 4 8.99998 4C8.4477 4 7.99998 4.44772 7.99998 5C7.99998 5.55228 8.4477 6 8.99998 6ZM8.8084 7C7.86532 7 7.0504 7.6588 6.85279 8.58094L4.28136 20.5809C4.01457 21.826 4.96368 23 6.23697 23H15.763C17.0363 23 17.9854 21.826 17.7186 20.5809L15.1472 8.58094C14.9496 7.6588 14.1346 7 13.1916 7H8.8084ZM13.1916 9L13.6201 11H8.37983L8.8084 9H13.1916ZM7.9515 12.9988L7.3084 16H14.6916L14.0485 12.9988C14.0324 12.9996 14.0162 13 14 13H7.99998C7.98373 13 7.96757 12.9996 7.9515 12.9988ZM6.23697 21L6.88132 17.993C6.92023 17.9976 6.95983 18 6.99998 18H15C15.0401 18 15.0797 17.9976 15.1186 17.993L15.763 21H6.23697ZM15 6C15.5523 6 16 5.55228 16 5C16 4.44772 15.5523 4 15 4C14.4477 4 14 4.44772 14 5C14 5.55228 14.4477 6 15 6ZM19 7C19.5523 7 20 6.55228 20 6C20 5.44772 19.5523 5 19 5C18.4477 5 18 5.44772 18 6C18 6.55228 18.4477 7 19 7Z" fill="#6E778C"/>
</svg>
