<svg width="24" height="24" viewBox="0 0 24 24" fill="none" xmlns="http://www.w3.org/2000/svg">
<path fill-rule="evenodd" clip-rule="evenodd" d="M4 2C2.89543 2 2 2.89543 2 4V20C2 21.1046 2.89543 22 4 22H11C11.5523 22 12 21.5523 12 21C12 20.4477 11.5523 20 11 20H4V4L10 4V8C10 9.10457 10.8954 10 12 10H16V11C16 11.5523 16.4477 12 17 12C17.5523 12 18 11.5523 18 11V9.41421C18 9.3328 17.995 9.25191 17.9853 9.17192C17.995 9.11607 18 9.05862 18 9C18 8.66187 17.8322 8.36295 17.5753 8.18196C17.5256 8.11842 17.4718 8.05763 17.4142 8L12 2.58579C11.9424 2.52815 11.8816 2.4744 11.818 2.4247C11.6371 2.16782 11.3381 2 11 2C10.9414 2 10.8839 2.00504 10.8281 2.01472C10.7481 2.00496 10.6672 2 10.5858 2H4ZM12 5.41421V8H14.5858L12 5.41421ZM14 17C14 18.1046 14.8954 19 16 19C17.1046 19 18 18.1046 18 17C18 15.8954 17.1046 15 16 15C14.8954 15 14 15.8954 14 17ZM12 17C12 14.7909 13.7909 13 16 13C18.2091 13 20 14.7909 20 17C20 17.7418 19.7981 18.4365 19.4462 19.032L20.7071 20.2929C21.0976 20.6834 21.0976 21.3166 20.7071 21.7071C20.3166 22.0976 19.6834 22.0976 19.2929 21.7071L18.032 20.4462C17.4365 20.7981 16.7418 21 16 21C13.7909 21 12 19.2091 12 17Z" fill="currentColor"/>
</svg>
