<svg width="24" height="24" viewBox="0 0 24 24" fill="none" xmlns="http://www.w3.org/2000/svg">
<path fill-rule="evenodd" clip-rule="evenodd" d="M4.00018 4C4.00018 2.89543 4.89561 2 6.00018 2H12.586C12.6674 2 12.7483 2.00496 12.8283 2.01472C12.8841 2.00504 12.9416 2 13.0002 2C13.3383 2 13.6372 2.16782 13.8182 2.4247C13.8818 2.4744 13.9425 2.52815 14.0002 2.58579L19.4144 8C19.472 8.05763 19.5258 8.11842 19.5755 8.18196C19.8324 8.36295 20.0002 8.66188 20.0002 9C20.0002 9.05862 19.9951 9.11607 19.9855 9.17192C19.9952 9.25191 20.0002 9.3328 20.0002 9.41421V13C20.0002 13.5523 19.5525 14 19.0002 14C18.4479 14 18.0002 13.5523 18.0002 13V10H14.0002C12.8956 10 12.0002 9.10457 12.0002 8V4L6.00018 4V13C6.00018 13.5523 5.55246 14 5.00018 14C4.44789 14 4.00018 13.5523 4.00018 13V4ZM14.0002 5.41421V8H16.586L14.0002 5.41421ZM1.79492 22V16.1818H4.09038C4.53166 16.1818 4.90761 16.2661 5.21822 16.4347C5.52882 16.6013 5.76557 16.8333 5.92844 17.1307C6.09322 17.4261 6.1756 17.767 6.1756 18.1534C6.1756 18.5398 6.09227 18.8807 5.9256 19.1761C5.75894 19.4697 5.51746 19.6998 5.20117 19.8665C4.88678 20.0312 4.5061 20.1136 4.05913 20.1136H3.02504V22H1.79492ZM3.02504 19.1278H3.86026C4.21254 19.1278 4.47485 19.0379 4.64719 18.858C4.82144 18.6761 4.90856 18.4413 4.90856 18.1534C4.90856 17.8636 4.82144 17.6307 4.64719 17.4545C4.47485 17.2765 4.21064 17.1875 3.85458 17.1875H3.02504V19.1278ZM6.97461 22V16.1818H9.27006C9.71135 16.1818 10.0873 16.2661 10.3979 16.4347C10.7085 16.6013 10.9453 16.8333 11.1081 17.1307C11.2729 17.4261 11.3553 17.767 11.3553 18.1534C11.3553 18.5398 11.272 18.8807 11.1053 19.1761C10.9386 19.4697 10.6971 19.6998 10.3809 19.8665C10.0665 20.0312 9.68578 20.1136 9.23881 20.1136H8.20472V22H6.97461ZM8.20472 19.1278H9.03995C9.39222 19.1278 9.65453 19.0379 9.82688 18.858C10.0011 18.6761 10.0882 18.4413 10.0882 18.1534C10.0882 17.8636 10.0011 17.6307 9.82688 17.4545C9.65453 17.2765 9.39033 17.1875 9.03427 17.1875H8.20472V19.1278ZM11.9327 17.196V16.1818H16.7111V17.196H14.9299V22H13.714V17.196H11.9327ZM18.6515 16.1818L19.8248 18.1648H19.8702L21.0492 16.1818H22.4384L20.6628 19.0909L22.4782 22H21.0634L19.8702 20.0142H19.8248L18.6316 22H17.2225L19.0435 19.0909L17.2566 16.1818H18.6515Z" fill="currentColor"/>
</svg>
