<svg width="24" height="24" viewBox="0 0 24 24" fill="none" xmlns="http://www.w3.org/2000/svg">
<path fill-rule="evenodd" clip-rule="evenodd" d="M4.00011 4C4.00011 2.89543 4.89554 2 6.00011 2H12.5859C12.6673 2 12.7482 2.00496 12.8282 2.01472C12.884 2.00504 12.9415 2 13.0001 2C13.3382 2 13.6372 2.16782 13.8182 2.4247C13.8817 2.4744 13.9425 2.52815 14.0001 2.58579L19.4143 8C19.472 8.05763 19.5257 8.11842 19.5754 8.18196C19.8323 8.36295 20.0001 8.66188 20.0001 9C20.0001 9.05862 19.9951 9.11607 19.9854 9.17192C19.9951 9.25191 20.0001 9.3328 20.0001 9.41421V13C20.0001 13.5523 19.5524 14 19.0001 14C18.4478 14 18.0001 13.5523 18.0001 13V10H14.0001C12.8955 10 12.0001 9.10457 12.0001 8V4L6.00011 4V13C6.00011 13.5523 5.5524 14 5.00011 14C4.44783 14 4.00011 13.5523 4.00011 13V4ZM14.0001 5.41421V8H16.5859L14.0001 5.41421ZM3.04983 16.1818L4.22312 18.1648H4.26858L5.44755 16.1818H6.83676L5.06119 19.0909L6.87653 22H5.46176L4.26858 20.0142H4.22312L3.02994 22H1.62085L3.44187 19.0909L1.65494 16.1818H3.04983ZM7.61517 16.1818H8.84528V20.9858H11.3396V22H7.61517V16.1818ZM15.3105 17.8551C15.2878 17.6259 15.1893 17.4479 15.015 17.321C14.8427 17.1941 14.6097 17.1307 14.3162 17.1307C14.015 17.1307 13.784 17.1922 13.623 17.3153C13.462 17.4384 13.3815 17.5938 13.3815 17.7812C13.3777 17.9896 13.4667 18.1477 13.6485 18.2557C13.8323 18.3617 14.0501 18.4441 14.302 18.5028L14.8247 18.6278C15.1618 18.7036 15.461 18.8134 15.7224 18.9574C15.9857 19.1013 16.1921 19.2869 16.3417 19.5142C16.4932 19.7396 16.569 20.0142 16.569 20.3381C16.5671 20.8703 16.3673 21.2945 15.9696 21.6108C15.5737 21.9252 15.0207 22.0824 14.3105 22.0824C13.604 22.0824 13.0406 21.9214 12.6201 21.5994C12.1997 21.2775 11.9819 20.8021 11.9667 20.1733H13.1571C13.1779 20.465 13.2925 20.6847 13.5008 20.8324C13.711 20.9782 13.9762 21.0511 14.2963 21.0511C14.6088 21.0511 14.8578 20.9848 15.0434 20.8523C15.2309 20.7197 15.3256 20.5473 15.3275 20.3352C15.3256 20.1383 15.2395 19.9867 15.069 19.8807C14.8985 19.7746 14.6552 19.6837 14.3389 19.608L13.7054 19.4489C13.2148 19.3314 12.8275 19.1449 12.5434 18.8892C12.2593 18.6335 12.1182 18.2917 12.1201 17.8636C12.1182 17.5114 12.212 17.2036 12.4014 16.9403C12.5927 16.6752 12.855 16.4697 13.1883 16.3239C13.5217 16.1761 13.9004 16.1023 14.3247 16.1023C14.7565 16.1023 15.1334 16.1761 15.4554 16.3239C15.7792 16.4716 16.0311 16.6771 16.211 16.9403C16.391 17.2036 16.4838 17.5085 16.4895 17.8551H15.3105ZM18.5498 16.1818L19.7231 18.1648H19.7686L20.9476 16.1818H22.3368L20.5612 19.0909L22.3765 22H20.9618L19.7686 20.0142H19.7231L18.5299 22H17.1208L18.9419 19.0909L17.1549 16.1818H18.5498Z" fill="#6E778C"/>
</svg>
