<svg width="24" height="24" viewBox="0 0 24 24" fill="none" xmlns="http://www.w3.org/2000/svg">
<path fill-rule="evenodd" clip-rule="evenodd" d="M4 4C4 2.89543 4.89543 2 6 2H12.5858C12.6672 2 12.7481 2.00496 12.8281 2.01472C12.8839 2.00504 12.9414 2 13 2C13.3381 2 13.6371 2.16782 13.818 2.4247C13.8816 2.4744 13.9424 2.52815 14 2.58579L19.4142 8C19.4718 8.05763 19.5256 8.11842 19.5753 8.18196C19.8322 8.36295 20 8.66187 20 9C20 9.05862 19.995 9.11607 19.9853 9.17192C19.995 9.25191 20 9.3328 20 9.41421V20C20 21.1046 19.1046 22 18 22H6C4.89543 22 4 21.1046 4 20V4ZM6 4L12 4V8C12 9.10457 12.8954 10 14 10H18V20H6V4ZM14 5.41421L16.5858 8H14V5.41421ZM13 13C13 12.4477 12.5523 12 12 12C11.4477 12 11 12.4477 11 13V14.5858L10.7071 14.2929C10.3166 13.9024 9.68342 13.9024 9.29289 14.2929C8.90237 14.6834 8.90237 15.3166 9.29289 15.7071L11.2929 17.7071C11.6834 18.0976 12.3166 18.0976 12.7071 17.7071L14.7071 15.7071C15.0976 15.3166 15.0976 14.6834 14.7071 14.2929C14.3166 13.9024 13.6834 13.9024 13.2929 14.2929L13 14.5858V13Z" fill="currentColor"/>
</svg>
