<svg width="24" height="24" viewBox="0 0 24 24" fill="none" xmlns="http://www.w3.org/2000/svg">
<path fill-rule="evenodd" clip-rule="evenodd" d="M4 4C4 2.89543 4.89543 2 6 2H12.5858C12.6672 2 12.7481 2.00496 12.8281 2.01472C12.8839 2.00504 12.9414 2 13 2C13.3381 2 13.6371 2.16782 13.818 2.4247C13.8816 2.4744 13.9424 2.52815 14 2.58579L19.4142 8C19.4718 8.05763 19.5256 8.11842 19.5753 8.18196C19.8322 8.36295 20 8.66187 20 9C20 9.05862 19.995 9.11607 19.9853 9.17192C19.995 9.25191 20 9.3328 20 9.41421V13C20 13.5523 19.5523 14 19 14C18.4477 14 18 13.5523 18 13V10H14C12.8954 10 12 9.10457 12 8V4L6 4V13C6 13.5523 5.55228 14 5 14C4.44772 14 4 13.5523 4 13V4ZM14 5.41421V8H16.5858L14 5.41421ZM4.66584 22V16.1818H6.96129C7.40258 16.1818 7.77853 16.2661 8.08913 16.4347C8.39974 16.6013 8.63648 16.8333 8.79936 17.1307C8.96413 17.4261 9.04652 17.767 9.04652 18.1534C9.04652 18.5398 8.96319 18.8807 8.79652 19.1761C8.62985 19.4697 8.38838 19.6998 8.07209 19.8665C7.75769 20.0312 7.37701 20.1136 6.93004 20.1136H5.89595V22H4.66584ZM5.89595 19.1278H6.73118C7.08345 19.1278 7.34576 19.0379 7.51811 18.858C7.69235 18.6761 7.77947 18.4413 7.77947 18.1534C7.77947 17.8636 7.69235 17.6307 7.51811 17.4545C7.34576 17.2765 7.08156 17.1875 6.7255 17.1875H5.89595V19.1278ZM11.908 22H9.84553V16.1818H11.9251C12.5103 16.1818 13.0141 16.2983 13.4364 16.5312C13.8607 16.7623 14.1864 17.0947 14.4137 17.5284C14.641 17.9621 14.7546 18.4811 14.7546 19.0852C14.7546 19.6913 14.64 20.2121 14.4109 20.6477C14.1836 21.0833 13.8569 21.4176 13.4308 21.6506C13.0065 21.8835 12.4989 22 11.908 22ZM11.0756 20.946H11.8569C12.4042 20.946 12.819 20.7983 13.1012 20.5028C13.3853 20.2074 13.5273 19.7348 13.5273 19.0852C13.5273 18.4394 13.3853 17.9697 13.1012 17.6761C12.819 17.3826 12.4052 17.2358 11.8597 17.2358H11.0756V20.946ZM15.6658 22V16.1818H19.5181V17.196H16.896V18.5824H19.2624V19.5966H16.896V22H15.6658Z" fill="currentColor"/>
</svg>
