<svg width="24" height="24" viewBox="0 0 24 24" fill="none" xmlns="http://www.w3.org/2000/svg">
<path fill-rule="evenodd" clip-rule="evenodd" d="M3.99987 4C3.99987 2.89543 4.8953 2 5.99987 2H12.5857C12.6671 2 12.748 2.00496 12.8279 2.01472C12.8838 2.00504 12.9412 2 12.9999 2C13.338 2 13.6369 2.16782 13.8179 2.4247C13.8814 2.4744 13.9422 2.52815 13.9999 2.58579L19.4141 8C19.4717 8.05763 19.5255 8.11842 19.5752 8.18196C19.8321 8.36295 19.9999 8.66188 19.9999 9C19.9999 9.05862 19.9948 9.11607 19.9851 9.17192C19.9949 9.25191 19.9999 9.3328 19.9999 9.41421V13C19.9999 13.5523 19.5522 14 18.9999 14C18.4476 14 17.9999 13.5523 17.9999 13V10H13.9999C12.8953 10 11.9999 9.10457 11.9999 8V4L5.99987 4V13C5.99987 13.5523 5.55215 14 4.99987 14C4.44758 14 3.99987 13.5523 3.99987 13V4ZM13.9999 5.41421V8H16.5857L13.9999 5.41421ZM3.04958 16.1818L4.22288 18.1648H4.26833L5.44731 16.1818H6.83651L5.06095 19.0909L6.87629 22H5.46151L4.26833 20.0142H4.22288L3.0297 22H1.62061L3.44163 19.0909L1.6547 16.1818H3.04958ZM7.61492 16.1818H8.84504V20.9858H11.3394V22H7.61492V16.1818ZM15.3102 17.8551C15.2875 17.6259 15.189 17.4479 15.0148 17.321C14.8424 17.1941 14.6095 17.1307 14.3159 17.1307C14.0148 17.1307 13.7837 17.1922 13.6227 17.3153C13.4618 17.4384 13.3813 17.5938 13.3813 17.7812C13.3775 17.9896 13.4665 18.1477 13.6483 18.2557C13.832 18.3617 14.0498 18.4441 14.3017 18.5028L14.8244 18.6278C15.1616 18.7036 15.4608 18.8134 15.7222 18.9574C15.9854 19.1013 16.1919 19.2869 16.3415 19.5142C16.493 19.7396 16.5688 20.0142 16.5688 20.3381C16.5669 20.8703 16.3671 21.2945 15.9693 21.6108C15.5735 21.9252 15.0205 22.0824 14.3102 22.0824C13.6038 22.0824 13.0403 21.9214 12.6199 21.5994C12.1994 21.2775 11.9816 20.8021 11.9665 20.1733H13.1568C13.1777 20.465 13.2922 20.6847 13.5006 20.8324C13.7108 20.9782 13.976 21.0511 14.296 21.0511C14.6085 21.0511 14.8576 20.9848 15.0432 20.8523C15.2307 20.7197 15.3254 20.5473 15.3273 20.3352C15.3254 20.1383 15.2392 19.9867 15.0688 19.8807C14.8983 19.7746 14.6549 19.6837 14.3386 19.608L13.7051 19.4489C13.2146 19.3314 12.8273 19.1449 12.5432 18.8892C12.2591 18.6335 12.118 18.2917 12.1199 17.8636C12.118 17.5114 12.2118 17.2036 12.4011 16.9403C12.5924 16.6752 12.8547 16.4697 13.1881 16.3239C13.5214 16.1761 13.9002 16.1023 14.3244 16.1023C14.7563 16.1023 15.1332 16.1761 15.4551 16.3239C15.779 16.4716 16.0309 16.6771 16.2108 16.9403C16.3907 17.2036 16.4835 17.5085 16.4892 17.8551H15.3102ZM18.5496 16.1818L19.7229 18.1648H19.7683L20.9473 16.1818H22.3365L20.5609 19.0909L22.3763 22H20.9615L19.7683 20.0142H19.7229L18.5297 22H17.1206L18.9416 19.0909L17.1547 16.1818H18.5496Z" fill="#6E778C"/>
</svg>
