<svg width="24" height="24" viewBox="0 0 24 24" fill="none" xmlns="http://www.w3.org/2000/svg">
<path fill-rule="evenodd" clip-rule="evenodd" d="M18.5 6.91421L17.7071 7.70711C17.3166 8.09763 16.6834 8.09763 16.2929 7.70711C15.9024 7.31658 15.9024 6.68342 16.2929 6.29289L17.0858 5.5L16.2929 4.70711C15.9024 4.31658 15.9024 3.68342 16.2929 3.29289C16.6834 2.90237 17.3166 2.90237 17.7071 3.29289L18.5 4.08579L19.2929 3.29289C19.6834 2.90237 20.3166 2.90237 20.7071 3.29289C21.0976 3.68342 21.0976 4.31658 20.7071 4.70711L19.9142 5.5L20.7071 6.29289C21.0976 6.68342 21.0976 7.31658 20.7071 7.70711C20.3166 8.09763 19.6834 8.09763 19.2929 7.70711L18.5 6.91421ZM5 3C3.89543 3 3 3.89543 3 5V8V12V16V19C3 20.1046 3.89543 21 5 21H8H16H19C20.1046 21 21 20.1046 21 19V16V12V11C21 10.4477 20.5523 10 20 10C19.4477 10 19 10.4477 19 11H17C17 10.4477 16.5523 10 16 10C15.4477 10 15 10.4477 15 11V12V16V19H9V16V12V8V5H13C13.5523 5 14 4.55228 14 4C14 3.44772 13.5523 3 13 3H8H5ZM7 15V13H5V15H7ZM5 17H7V19H5V17ZM19 13V15H17V13H19ZM19 17H17V19H19V17ZM7 11V9H5V11H7ZM7 7V5H5V7H7Z" fill="#6E778C"/>
</svg>
