<svg width="24" height="24" viewBox="0 0 24 24" fill="none" xmlns="http://www.w3.org/2000/svg">
<path fill-rule="evenodd" clip-rule="evenodd" d="M8.39345 7.96251C9.69122 6.24499 11.1857 4.92549 12 4.26459C12.8143 4.92549 14.3088 6.24499 15.6065 7.96251C16.9498 9.74028 18 11.8355 18 14C18 15.2622 17.6307 16.4304 16.9847 17.3942C16.9948 17.2642 17 17.1327 17 17C17 12.7684 14.4243 9.86912 13.2508 8.76209C12.5423 8.09361 11.4577 8.09361 10.7492 8.76209C9.57571 9.86912 7 12.7684 7 17C7 17.1327 7.00517 17.2642 7.01531 17.3942C6.3693 16.4304 6 15.2622 6 14C6 11.8355 7.05016 9.74029 8.39345 7.96251ZM12 20C12.0016 20 12.0032 20 12.0049 20C13.6595 19.9974 15 18.6552 15 17C15 13.7239 13.0655 11.3738 12 10.3336C10.9345 11.3738 9 13.7239 9 17C9 18.6569 10.3431 20 12 20ZM11.996 22C7.43318 21.9979 4 18.4044 4 14C4 11.2087 5.33768 8.68913 6.79775 6.75679C8.26819 4.81075 9.94667 3.34945 10.8109 2.65406C11.5099 2.09171 12.4901 2.09171 13.189 2.65406C14.0533 3.34945 15.7318 4.81075 17.2022 6.75679C18.6623 8.68913 20 11.2087 20 14C20 18.4057 16.5648 22 12 22C11.9987 22 11.9973 22 11.996 22Z" fill="currentColor"/>
</svg>
