<svg width="24" height="24" viewBox="0 0 24 24" fill="none" xmlns="http://www.w3.org/2000/svg">
<path fill-rule="evenodd" clip-rule="evenodd" d="M5 2C3.89543 2 3 2.89543 3 4V17V20C3 21.1046 3.89543 22 5 22H19C20.1046 22 21 21.1046 21 20V17V4C21 2.89543 20.1046 2 19 2H5ZM19 16V4L5 4V16H19ZM5 18H19V20H5V18ZM8 8C8.55228 8 9 7.55228 9 7C9 6.44772 8.55228 6 8 6C7.44772 6 7 6.44772 7 7C7 7.55228 7.44772 8 8 8ZM9 10C9 10.5523 8.55228 11 8 11C7.44772 11 7 10.5523 7 10C7 9.44772 7.44772 9 8 9C8.55228 9 9 9.44772 9 10ZM8 14C8.55228 14 9 13.5523 9 13C9 12.4477 8.55228 12 8 12C7.44772 12 7 12.4477 7 13C7 13.5523 7.44772 14 8 14ZM11 7C11 6.44772 11.4477 6 12 6H16C16.5523 6 17 6.44772 17 7C17 7.55228 16.5523 8 16 8H12C11.4477 8 11 7.55228 11 7ZM12 9C11.4477 9 11 9.44772 11 10C11 10.5523 11.4477 11 12 11H16C16.5523 11 17 10.5523 17 10C17 9.44772 16.5523 9 16 9H12ZM11 13C11 12.4477 11.4477 12 12 12H16C16.5523 12 17 12.4477 17 13C17 13.5523 16.5523 14 16 14H12C11.4477 14 11 13.5523 11 13Z" fill="#6E778C"/>
</svg>
