<svg width="24" height="24" viewBox="0 0 24 24" fill="none" xmlns="http://www.w3.org/2000/svg">
<path fill-rule="evenodd" clip-rule="evenodd" d="M11 3C11 2.44772 10.5523 2 10 2C9.44772 2 9 2.44772 9 3V4H8C5.79086 4 4 5.79086 4 8V12H3C2.44772 12 2 12.4477 2 13C2 13.5523 2.44772 14 3 14H4V17C4 17.5523 4.44772 18 5 18C5.55228 18 6 17.5523 6 17V14H14V15C14 15.5523 14.4477 16 15 16C15.5523 16 16 15.5523 16 15V14H18V17C18 17.5523 18.4477 18 19 18C19.5523 18 20 17.5523 20 17V14H21C21.5523 14 22 13.5523 22 13C22 12.4477 21.5523 12 21 12H20V8C20 5.79086 18.2091 4 16 4H11V3ZM16 11V12H18V8C18 6.89543 17.1046 6 16 6H10H8C6.89543 6 6 6.89543 6 8V12H14V11C14 10.4477 14.4477 10 15 10C15.5523 10 16 10.4477 16 11ZM8 21C8 20.4477 8.44772 20 9 20H19C19.5523 20 20 20.4477 20 21C20 21.5523 19.5523 22 19 22H9C8.44772 22 8 21.5523 8 21ZM9 16C8.44772 16 8 16.4477 8 17C8 17.5523 8.44772 18 9 18H11C11.5523 18 12 17.5523 12 17C12 16.4477 11.5523 16 11 16H9ZM9 10C9.55228 10 10 9.55228 10 9C10 8.44772 9.55228 8 9 8C8.44772 8 8 8.44772 8 9C8 9.55228 8.44772 10 9 10Z" fill="#6E778C"/>
</svg>
