<svg width="24" height="24" viewBox="0 0 24 24" fill="none" xmlns="http://www.w3.org/2000/svg">
<path fill-rule="evenodd" clip-rule="evenodd" d="M10 5C10 4.44772 10.4478 4 11 4H13C13.5523 4 14 4.44772 14 5V5.56105C14 7.45386 15.7315 8.87367 17.5876 8.50294L18.4694 8.32682C18.9644 8.22796 19.4555 8.51346 19.6144 8.99252L19.9799 10.0939C20.1419 10.5822 19.907 11.1137 19.4369 11.3226L18.7638 11.6218C17.0635 12.3775 16.4541 14.4828 17.4878 16.0299L18.0082 16.8087C18.3257 17.284 18.181 17.9283 17.6907 18.2221L16.1833 19.1252C15.7132 19.4069 15.1039 19.2577 14.8171 18.7906L14.5567 18.3665C13.3858 16.4592 10.6143 16.4592 9.44338 18.3665L9.10696 18.9145C8.83562 19.3564 8.2714 19.5176 7.80752 19.2857L6.379 18.5714C5.85799 18.3109 5.66902 17.662 5.96872 17.1625L6.57478 16.1524C7.56222 14.5067 6.77174 12.3698 4.95099 11.7629L4.65701 11.6649C4.14426 11.494 3.86011 10.9466 4.01542 10.4289L4.43484 9.03078C4.58308 8.53664 5.0829 8.23638 5.58878 8.33755L6.4117 8.50213C8.26807 8.87341 10 7.45353 10 5.56039V5ZM11 2C9.34319 2 8.00005 3.34315 8.00005 5V5.56039C8.00005 6.19144 7.42272 6.66473 6.80393 6.54097L5.98102 6.37639C4.46337 6.07286 2.96392 6.97366 2.51919 8.45609L2.09976 9.85417C1.63384 11.4073 2.48629 13.0495 4.02456 13.5623L4.31853 13.6603C4.92545 13.8626 5.18894 14.5749 4.8598 15.1234L4.25374 16.1335C3.35464 17.632 3.92154 19.5788 5.48457 20.3603L6.9131 21.0746C8.30473 21.7704 9.99739 21.2868 10.8114 19.9608L11.1478 19.4128C11.5381 18.7771 12.462 18.7771 12.8523 19.4128L13.1127 19.837C13.9729 21.2383 15.8008 21.686 17.2113 20.8409L18.7186 19.9377C20.1896 19.0563 20.6238 17.1234 19.6711 15.6975L19.1508 14.9188C18.8062 14.4031 19.0093 13.7013 19.5761 13.4494L20.2492 13.1503C21.6595 12.5234 22.3641 10.9289 21.8781 9.46404L21.5127 8.36267C21.0358 6.92548 19.5626 6.06898 18.0777 6.36555L17.1959 6.54168C16.5772 6.66525 16 6.19199 16 5.56105V5C16 3.34315 14.6569 2 13 2H11ZM11 12C11 11.4477 11.4478 11 12 11C12.5523 11 13 11.4477 13 12C13 12.5523 12.5523 13 12 13C11.4478 13 11 12.5523 11 12ZM12 9C10.3432 9 9.00005 10.3431 9.00005 12C9.00005 13.6569 10.3432 15 12 15C13.6569 15 15 13.6569 15 12C15 10.3431 13.6569 9 12 9Z" fill="currentColor"/>
</svg>
