<svg width="24" height="24" viewBox="0 0 24 24" fill="none" xmlns="http://www.w3.org/2000/svg">
<path fill-rule="evenodd" clip-rule="evenodd" d="M10.8944 3.32919C10.3314 3.04766 9.66863 3.04766 9.10557 3.32919L6.10557 4.82919C5.428 5.16797 5 5.8605 5 6.61804V10.382L2.10557 11.8292C1.428 12.168 1 12.8605 1 13.618V17.382C1 18.1395 1.428 18.832 2.10557 19.1708L5.10557 20.6708C5.66863 20.9524 6.33137 20.9524 6.89443 20.6708L9.89443 19.1708C9.93033 19.1529 9.96553 19.1339 10 19.114C10.0345 19.1339 10.0697 19.1529 10.1056 19.1708L13.1056 20.6708C13.6686 20.9524 14.3314 20.9524 14.8944 20.6708L17.8944 19.1708C18.572 18.832 19 18.1395 19 17.382V13.618L21.8944 12.1708C22.572 11.832 23 11.1395 23 10.382V6.61804C23 5.8605 22.572 5.16797 21.8944 4.82919L18.8944 3.32919C18.3314 3.04766 17.6686 3.04766 17.1056 3.32919L14.1056 4.82919C14.0697 4.84714 14.0345 4.86608 14 4.88597C13.9655 4.86608 13.9303 4.84714 13.8944 4.82919L10.8944 3.32919ZM17 13.618L14.1056 12.1708L14 12.118L13.8944 12.1708L11 13.618V17.382L14 18.882L17 17.382V13.618ZM17.8961 11.83L18 11.882L21 10.382V6.61804L18 5.11804L15 6.61804V10.382L17.8944 11.8292C17.895 11.8295 17.8955 11.8297 17.8961 11.83ZM13 10.382V6.61804L10 5.11804L7 6.61804V10.382L9.89443 11.8292L9.8956 11.8298L10 11.882L10.1044 11.8298C10.1048 11.8296 10.1052 11.8294 10.1056 11.8292L13 10.382ZM9 13.618L6.10557 12.1708L6 12.118L3 13.618V17.382L6 18.882L9 17.382V13.618Z" fill="#6E778C"/>
</svg>
