<svg width="24" height="24" viewBox="0 0 24 24" fill="none" xmlns="http://www.w3.org/2000/svg">
<path fill-rule="evenodd" clip-rule="evenodd" d="M11.1056 2.32919C11.6686 2.04766 12.3314 2.04766 12.8944 2.32919L19.8944 5.82919C20.572 6.16797 21 6.8605 21 7.61804V16.382C21 17.1395 20.572 17.832 19.8944 18.1708L12.8944 21.6708C12.3314 21.9524 11.6686 21.9524 11.1056 21.6708L4.10557 18.1708C3.428 17.832 3 17.1395 3 16.382V7.61804C3 6.8605 3.428 6.16797 4.10557 5.82919L11.1056 2.32919ZM19 7.61804L12 4.11804L5 7.61804V16.382L12 19.882L19 16.382V7.61804Z" fill="#6E778C"/>
</svg>
