<svg width="24" height="24" viewBox="0 0 24 24" fill="none" xmlns="http://www.w3.org/2000/svg">
<path fill-rule="evenodd" clip-rule="evenodd" d="M16 3H14.0178C14.0051 2.99976 13.9925 2.99976 13.98 3H12C11.4477 3 11 3.44771 11 4C11 4.55228 11.4477 5 12 5H12.7951L10.1701 19H9C8.44772 19 8 19.4477 8 20C8 20.5523 8.44772 21 9 21H10.9822C10.9949 21.0002 11.0075 21.0002 11.02 21H13C13.5523 21 14 20.5523 14 20C14 19.4477 13.5523 19 13 19H12.2049L14.8299 5H16C16.5523 5 17 4.55228 17 4C17 3.44771 16.5523 3 16 3Z" fill="#6E778C"/>
</svg>
