<svg width="24" height="24" viewBox="0 0 24 24" fill="none" xmlns="http://www.w3.org/2000/svg">
<path fill-rule="evenodd" clip-rule="evenodd" d="M22.7071 3.29289C23.0976 3.68342 23.0976 4.31658 22.7071 4.70711L21.9142 5.5L22.7071 6.29289C23.0976 6.68342 23.0976 7.31658 22.7071 7.70711C22.3166 8.09763 21.6834 8.09763 21.2929 7.70711L20.5 6.91421L19.7071 7.70711C19.3166 8.09763 18.6834 8.09763 18.2929 7.70711C17.9024 7.31658 17.9024 6.68342 18.2929 6.29289L19.0858 5.5L18.2929 4.70711C17.9024 4.31658 17.9024 3.68342 18.2929 3.29289C18.6834 2.90237 19.3166 2.90237 19.7071 3.29289L20.5 4.08579L21.2929 3.29289C21.6834 2.90237 22.3166 2.90237 22.7071 3.29289ZM2 6C1.44772 6 1 6.44772 1 7C1 7.55228 1.44772 8 2 8H4C4.55228 8 5 7.55228 5 7C5 6.44772 4.55228 6 4 6H2ZM9 7C9 7.55228 8.55228 8 8 8C7.44772 8 7 7.55228 7 7C7 6.44772 7.44772 6 8 6C8.55228 6 9 6.44772 9 7ZM11 11C11 11.5523 10.5523 12 10 12C9.44771 12 9 11.5523 9 11C9 10.4477 9.44771 10 10 10C10.5523 10 11 10.4477 11 11ZM14 12C14.5523 12 15 11.5523 15 11C15 10.4477 14.5523 10 14 10C13.4477 10 13 10.4477 13 11C13 11.5523 13.4477 12 14 12ZM13 15C13 15.5523 12.5523 16 12 16C11.4477 16 11 15.5523 11 15C11 14.4477 11.4477 14 12 14C12.5523 14 13 14.4477 13 15ZM16 16C16.5523 16 17 15.5523 17 15C17 14.4477 16.5523 14 16 14C15.4477 14 15 14.4477 15 15C15 15.5523 15.4477 16 16 16ZM21 15C21 15.5523 20.5523 16 20 16C19.4477 16 19 15.5523 19 15C19 14.4477 19.4477 14 20 14C20.5523 14 21 14.4477 21 15ZM12 8C12.5523 8 13 7.55228 13 7C13 6.44772 12.5523 6 12 6C11.4477 6 11 6.44772 11 7C11 7.55228 11.4477 8 12 8ZM17 7C17 7.55228 16.5523 8 16 8C15.4477 8 15 7.55228 15 7C15 6.44772 15.4477 6 16 6C16.5523 6 17 6.44772 17 7ZM1 11C1 10.4477 1.44772 10 2 10H6C6.55228 10 7 10.4477 7 11C7 11.5523 6.55228 12 6 12H2C1.44772 12 1 11.5523 1 11ZM2 14C1.44772 14 1 14.4477 1 15C1 15.5523 1.44772 16 2 16H8C8.55228 16 9 15.5523 9 15C9 14.4477 8.55228 14 8 14H2ZM1 19C1 18.4477 1.44772 18 2 18H20C20.5523 18 21 18.4477 21 19C21 19.5523 20.5523 20 20 20H2C1.44772 20 1 19.5523 1 19ZM18 10C17.4477 10 17 10.4477 17 11C17 11.5523 17.4477 12 18 12H20C20.5523 12 21 11.5523 21 11C21 10.4477 20.5523 10 20 10H18Z" fill="currentColor"/>
</svg>
