<svg width="24" height="24" viewBox="0 0 24 24" fill="none" xmlns="http://www.w3.org/2000/svg">
<path fill-rule="evenodd" clip-rule="evenodd" d="M3.14438 5.35257C3.00285 4.07869 4.07928 3.00234 5.35314 3.14397L12.7621 3.96769C13.2134 4.01787 13.6342 4.22013 13.9553 4.54121L20.0001 10.5858C20.7812 11.3668 20.7812 12.6332 20.0002 13.4142L13.4144 20C12.6333 20.7811 11.367 20.7811 10.586 20.0001L4.54118 13.9555C4.22004 13.6344 4.01775 13.2135 3.9676 12.7621L3.14438 5.35257ZM5.13215 5.13172L5.95537 12.5413L12.0002 18.5858L18.5859 12L12.5411 5.95544L5.13215 5.13172ZM11.2931 8.29291C11.6836 7.90239 12.3167 7.90239 12.7073 8.29291L15.7073 11.2929C16.0978 11.6834 16.0978 12.3166 15.7073 12.7071C15.3167 13.0976 14.6836 13.0976 14.2931 12.7071L11.2931 9.70712C10.9025 9.3166 10.9025 8.68344 11.2931 8.29291ZM9.70727 11.2929C9.31675 10.9024 8.68358 10.9024 8.29306 11.2929C7.90253 11.6834 7.90253 12.3166 8.29306 12.7071L9.29306 13.7071C9.68358 14.0976 10.3167 14.0976 10.7073 13.7071C11.0978 13.3166 11.0978 12.6834 10.7073 12.2929L9.70727 11.2929Z" fill="currentColor"/>
</svg>
