<svg width="24" height="24" viewBox="0 0 24 24" fill="none" xmlns="http://www.w3.org/2000/svg">
<path fill-rule="evenodd" clip-rule="evenodd" d="M3.29293 3.29287C3.50775 3.07807 3.80857 2.97256 4.1105 3.00613L13.1105 4.00674C13.3362 4.03183 13.5466 4.13296 13.7071 4.2935L20.707 11.2932C20.8946 11.4807 20.9999 11.7351 20.9999 12.0003C20.9999 12.2655 20.8946 12.5199 20.7071 12.7074L12.7071 20.7074C12.3165 21.0979 11.6834 21.0979 11.2929 20.7074L4.29291 13.7077C4.13234 13.5472 4.0312 13.3367 4.00612 13.111L3.00612 4.11043C2.97258 3.80849 3.0781 3.50768 3.29293 3.29287ZM5.13193 5.13201L5.95515 12.5415L11.9999 18.5861L18.5857 12.0003L12.5409 5.95574L5.13193 5.13201ZM12 8.00001C12.5523 8.00001 13 8.44772 13 9.00001V12C13 12.5523 12.5523 13 12 13C11.4477 13 11 12.5523 11 12V9.00001C11 8.44772 11.4477 8.00001 12 8.00001ZM12 16C12.5523 16 13 15.5523 13 15C13 14.4477 12.5523 14 12 14C11.4477 14 11 14.4477 11 15C11 15.5523 11.4477 16 12 16Z" fill="#6E778C"/>
</svg>
