<svg width="24" height="24" viewBox="0 0 24 24" fill="none" xmlns="http://www.w3.org/2000/svg">
<path fill-rule="evenodd" clip-rule="evenodd" d="M10.5858 1.99997C11.3668 1.21892 12.6332 1.21892 13.4142 1.99997L19 7.58576C19.7811 8.36681 19.781 9.63314 19 10.4142L13.4142 16C12.6332 16.781 11.3668 16.781 10.5858 16L5 10.4142C4.21895 9.63313 4.21895 8.36681 5 7.58576L10.5858 1.99997ZM3.29289 12.2929C3.68342 11.9023 4.31658 11.9023 4.70711 12.2929L12 19.5858L19.2929 12.2929C19.6834 11.9023 20.3166 11.9023 20.7071 12.2929C21.0976 12.6834 21.0976 13.3166 20.7071 13.7071L13.4142 21C12.6332 21.781 11.3668 21.781 10.5858 21L3.29289 13.7071C2.90237 13.3166 2.90237 12.6834 3.29289 12.2929Z" fill="currentColor"/>
</svg>
