<svg width="24" height="24" viewBox="0 0 24 24" fill="none" xmlns="http://www.w3.org/2000/svg">
<path d="M5 17.0511V6.14205H7.03835V7.91761H7.1733C7.40057 7.31629 7.77225 6.84754 8.28835 6.51136C8.80445 6.17045 9.42235 6 10.142 6C10.8712 6 11.482 6.17045 11.9744 6.51136C12.4716 6.85227 12.8385 7.32102 13.0753 7.91761H13.1889C13.4541 7.33523 13.8684 6.87121 14.4318 6.52557C15 6.17519 15.6771 6 16.4631 6C17.4527 6 18.2599 6.3125 18.8849 6.9375C19.5147 7.55777 19.8295 8.49053 19.8295 9.7358V17.0511H17.706V9.93466C17.706 9.19602 17.5047 8.66098 17.1023 8.32955C16.7045 7.99811 16.224 7.83239 15.6605 7.83239C14.9692 7.83239 14.4318 8.04545 14.0483 8.47159C13.6648 8.89773 13.473 9.43987 13.473 10.098V17.0511H11.3565V9.79972C11.3565 9.20786 11.1719 8.73201 10.8026 8.37216C10.4332 8.01231 9.95265 7.83239 9.3608 7.83239C8.75947 7.83239 8.23627 8.06439 7.79119 8.52841C7.34612 8.99242 7.12358 9.59138 7.12358 10.3253V17.0511H5Z" fill="#6E778C"/>
</svg>
