<svg width="24" height="24" viewBox="0 0 24 24" fill="none" xmlns="http://www.w3.org/2000/svg">
<path fill-rule="evenodd" clip-rule="evenodd" d="M3.35984 6.2318C3.78412 5.87824 4.41468 5.93556 4.76825 6.35984L9.21995 11.7019L12.7614 9.57703C13.5977 9.07521 14.6741 9.24988 15.3089 9.99043L19 14.2968V12C19 11.4477 19.4477 11 20 11C20.5523 11 21 11.4477 21 12V17C21 17.5523 20.5523 18 20 18H15C14.4477 18 14 17.5523 14 17C14 16.4477 14.4477 16 15 16H17.8258L13.7904 11.292L10.2489 13.4169C9.40356 13.9241 8.31465 13.7396 7.68351 12.9823L3.2318 7.64021C2.87824 7.21593 2.93556 6.58537 3.35984 6.2318Z" fill="#6E778C"/>
</svg>
