<svg width="24" height="24" viewBox="0 0 24 24" fill="none" xmlns="http://www.w3.org/2000/svg">
<path fill-rule="evenodd" clip-rule="evenodd" d="M20.677 3.29218C20.9494 3.56408 21.0416 3.96822 20.9141 4.33139L14.9435 21.3314C14.794 21.7571 14.378 22.0299 13.928 21.9974C13.478 21.9649 13.1055 21.6351 13.0187 21.1924L11.3407 12.632L2.8101 10.9818C2.36707 10.8961 2.03632 10.5243 2.00279 10.0743C1.96925 9.62434 2.24125 9.20763 2.66669 9.05722L19.6372 3.05722C20.0002 2.92891 20.4045 3.02029 20.677 3.29218ZM6.80116 9.71678L12.3823 10.7964C12.7823 10.8738 13.0954 11.1861 13.1737 11.5858L14.2744 17.201L18.3351 5.63892L6.80116 9.71678Z" fill="#6E778C"/>
</svg>
