<svg width="24" height="24" viewBox="0 0 24 24" fill="none" xmlns="http://www.w3.org/2000/svg">
<path fill-rule="evenodd" clip-rule="evenodd" d="M14.9998 4C15.5521 4 15.9998 3.55228 15.9998 3C15.9998 2.44772 15.5521 2 14.9998 2C14.4476 2 13.9998 2.44772 13.9998 3C13.9998 3.55228 14.4476 4 14.9998 4ZM20.9998 6C20.9998 6.55228 20.5521 7 19.9998 7C19.4476 7 18.9998 6.55228 18.9998 6C18.9998 5.44772 19.4476 5 19.9998 5C20.5521 5 20.9998 5.44772 20.9998 6ZM15.4141 8C14.633 7.21895 13.3667 7.21895 12.5856 8L10.2927 10.2929L2.99985 17.5858C2.2188 18.3668 2.2188 19.6332 2.99985 20.4142L4.58563 22C5.36668 22.781 6.63301 22.781 7.41406 22L14.707 14.7071L16.9998 12.4142C17.7809 11.6332 17.7809 10.3668 16.9998 9.58579L15.4141 8ZM4.58563 22L5.99985 20.5858L4.41406 19L10.9998 12.4142L12.5856 14L5.99985 20.5858L4.58563 22ZM13.9998 12.5858L15.5856 11L13.9998 9.41421L12.4141 11L13.9998 12.5858ZM11.9998 6C11.9998 6.55228 11.5521 7 10.9998 7C10.4476 7 9.99985 6.55228 9.99985 6C9.99985 5.44772 10.4476 5 10.9998 5C11.5521 5 11.9998 5.44772 11.9998 6ZM18.9998 13C18.4476 13 17.9998 13.4477 17.9998 14C17.9998 14.5523 18.4476 15 18.9998 15C19.5521 15 19.9998 14.5523 19.9998 14C19.9998 13.4477 19.5521 13 18.9998 13Z" fill="#6E778C"/>
</svg>
