<svg width="24" height="24" viewBox="0 0 24 24" fill="none" xmlns="http://www.w3.org/2000/svg">
<path fill-rule="evenodd" clip-rule="evenodd" d="M8.61825 3C7.86071 3 7.16818 3.428 6.8294 4.10557L3.10579 11.5528C2.96597 11.8324 2.96947 12.1462 3.08844 12.4108C3.03109 12.597 3.00022 12.7949 3.00022 13V19C3.00022 20.1046 3.89565 21 5.00022 21H19.0002C20.1048 21 21.0002 20.1046 21.0002 19V13C21.0002 12.7949 20.9693 12.597 20.912 12.4108C21.031 12.1462 21.0345 11.8324 20.8946 11.5528L17.171 4.10557C16.8323 3.428 16.1397 3 15.3822 3H8.61825ZM18.3822 11L15.3822 5H8.61825L5.61825 11H7.00022C8.10479 11 9.00022 11.8954 9.00022 13V15H15.0002V13C15.0002 11.8954 15.8956 11 17.0002 11H18.3822ZM5.00022 13H7.00022V15C7.00022 16.1046 7.89565 17 9.00022 17H15.0002C16.1048 17 17.0002 16.1046 17.0002 15V13H19.0002V19H5.00022V13Z" fill="#6E778C"/>
</svg>
