<svg width="24" height="24" viewBox="0 0 24 24" fill="none" xmlns="http://www.w3.org/2000/svg">
<path fill-rule="evenodd" clip-rule="evenodd" d="M2 4C2 3.44772 2.44772 3 3 3H6C6.55229 3 7 3.44772 7 4V10C7 10.5523 6.55229 11 6 11H3C2.44772 11 2 10.5523 2 10V4ZM9 4C9 3.44772 9.44772 3 10 3H13C13.5523 3 14 3.44772 14 4V10C14 10.5523 13.5523 11 13 11H10C9.44772 11 9 10.5523 9 10V4ZM17 3C16.4477 3 16 3.44772 16 4V10C16 10.5523 16.4477 11 17 11H20C20.5523 11 21 10.5523 21 10V4C21 3.44772 20.5523 3 20 3H17ZM17 13C16.4477 13 16 13.4477 16 14V20C16 20.5523 16.4477 21 17 21H20C20.5523 21 21 20.5523 21 20V14C21 13.4477 20.5523 13 20 13H17ZM10 13C9.44772 13 9 13.4477 9 14V20C9 20.5523 9.44772 21 10 21H13C13.5523 21 14 20.5523 14 20V14C14 13.4477 13.5523 13 13 13H10ZM3 13C2.44772 13 2 13.4477 2 14V20C2 20.5523 2.44772 21 3 21H6C6.55229 21 7 20.5523 7 20V14C7 13.4477 6.55229 13 6 13H3Z" fill="currentColor"/>
</svg>
