<svg width="24" height="24" viewBox="0 0 24 24" fill="none" xmlns="http://www.w3.org/2000/svg">
<path fill-rule="evenodd" clip-rule="evenodd" d="M3 3C2.44772 3 2 3.44772 2 4V10C2 10.5523 2.44772 11 3 11H6C6.55228 11 7 10.5523 7 10V4C7 3.44772 6.55228 3 6 3H3ZM10 3C9.44772 3 9 3.44772 9 4V10C9 10.5523 9.44772 11 10 11H13C13.5523 11 14 10.5523 14 10V4C14 3.44772 13.5523 3 13 3H10ZM16 4C16 3.44772 16.4477 3 17 3H20C20.5523 3 21 3.44772 21 4V10C21 10.5523 20.5523 11 20 11H17C16.4477 11 16 10.5523 16 10V4ZM3 13C2.44772 13 2 13.4477 2 14V20C2 20.5523 2.44772 21 3 21H6C6.55228 21 7 20.5523 7 20V14C7 13.4477 6.55228 13 6 13H3ZM9 14C9 13.4477 9.44772 13 10 13H13C13.5523 13 14 13.4477 14 14V20C14 20.5523 13.5523 21 13 21H10C9.44772 21 9 20.5523 9 20V14ZM17 13C16.4477 13 16 13.4477 16 14V20C16 20.5523 16.4477 21 17 21H20C20.5523 21 21 20.5523 21 20V14C21 13.4477 20.5523 13 20 13H17Z" fill="#6E778C"/>
</svg>
