<svg width="24" height="24" viewBox="0 0 24 24" fill="none" xmlns="http://www.w3.org/2000/svg">
<path fill-rule="evenodd" clip-rule="evenodd" d="M10 8C8.89543 8 8 8.89543 8 10L8 14L3 14L3 3L14 3L14 8L10 8ZM15.0019 10L16 10C16.5523 10 17 9.55228 17 9C17 8.44771 16.5523 8 16 8L16 3C16 1.89543 15.1046 0.999999 14 0.999999L3 1C1.89543 1 1 1.89543 1 3L1 14C1 15.1046 1.89543 16 3 16L8 16L8 21C8 22.1046 8.89543 23 10 23L11 23C11.5523 23 12 22.5523 12 22C12 21.4477 11.5523 21 11 21L10 21L10 15L10 10L14.9981 10C14.9987 10 14.9994 10 15 10C15.0006 10 15.0013 10 15.0019 10ZM20 8C19.4477 8 19 8.44771 19 9C19 9.55228 19.4477 10 20 10L21 10L21 11C21 11.5523 21.4477 12 22 12C22.5523 12 23 11.5523 23 11L23 10C23 8.89543 22.1046 8 21 8L20 8ZM23 15C23 14.4477 22.5523 14 22 14C21.4477 14 21 14.4477 21 15L21 16C21 16.5523 21.4477 17 22 17C22.5523 17 23 16.5523 23 16L23 15ZM23 20C23 19.4477 22.5523 19 22 19C21.4477 19 21 19.4477 21 20L21 21L20 21C19.4477 21 19 21.4477 19 22C19 22.5523 19.4477 23 20 23L21 23C22.1046 23 23 22.1046 23 21L23 20ZM15 21C14.4477 21 14 21.4477 14 22C14 22.5523 14.4477 23 15 23L16 23C16.5523 23 17 22.5523 17 22C17 21.4477 16.5523 21 16 21L15 21Z" fill="#6E778C"/>
</svg>
