<svg width="24" height="24" viewBox="0 0 24 24" fill="none" xmlns="http://www.w3.org/2000/svg">
<path fill-rule="evenodd" clip-rule="evenodd" d="M3 1C2.44772 1 2 1.44772 2 2V4C2 4.55228 2.44772 5 3 5C3.55228 5 4 4.55228 4 4V3H6V4.10002C3.71776 4.56329 2 6.58104 2 9C2 10.1258 2.37209 11.1647 3 12.0005V14C3 18.9706 7.02944 23 12 23C16.9706 23 21 18.9706 21 14V12.0005C21.6279 11.1647 22 10.1258 22 9C22 6.58104 20.2822 4.56329 18 4.10002V3H20C20.5523 3 21 2.55228 21 2C21 1.44772 20.5523 1 20 1H3ZM8 4.10002V3H16V4.10002C13.7178 4.56329 12 6.58104 12 9C12 6.58104 10.2822 4.56329 8 4.10002ZM13.6459 12.7082L12 16L10.3541 12.7082C9.95186 13.0722 9.49015 13.3717 8.98526 13.5904C8.93987 14.4559 8.78117 15.2987 8.39443 16.0722C7.96971 16.9216 7.30694 17.615 6.37256 18.1639C7.64788 19.8846 9.69369 21 12 21C14.3063 21 16.3521 19.8846 17.6274 18.1639C16.6931 17.615 16.0303 16.9216 15.6056 16.0722C15.2188 15.2987 15.0601 14.4559 15.0147 13.5904C14.5099 13.3717 14.0481 13.0722 13.6459 12.7082ZM7 6C5.34315 6 4 7.34315 4 9C4 10.6569 5.34315 12 7 12C8.65685 12 10 10.6569 10 9C10 7.34315 8.65685 6 7 6ZM17.3944 15.1778C17.2278 14.8446 17.1186 14.4582 17.0582 13.9997C17.748 13.9918 18.4043 13.8442 19 13.584V14C19 14.8438 18.8507 15.6526 18.5771 16.4017C17.9707 16.0327 17.6162 15.6212 17.3944 15.1778ZM5 13.584C5.59574 13.8442 6.252 13.9918 6.94183 13.9997C6.88143 14.4582 6.77217 14.8446 6.60557 15.1778C6.38385 15.6212 6.02926 16.0327 5.42288 16.4017C5.14928 15.6526 5 14.8438 5 14V13.584ZM17 6C15.3431 6 14 7.34315 14 9C14 10.6569 15.3431 12 17 12C18.6569 12 20 10.6569 20 9C20 7.34315 18.6569 6 17 6ZM18 9C18 9.55229 17.5523 10 17 10C16.4477 10 16 9.55229 16 9C16 8.44772 16.4477 8 17 8C17.5523 8 18 8.44772 18 9ZM7 10C7.55228 10 8 9.55229 8 9C8 8.44772 7.55228 8 7 8C6.44772 8 6 8.44772 6 9C6 9.55229 6.44772 10 7 10Z" fill="#6E778C"/>
</svg>
