<svg width="24" height="24" viewBox="0 0 24 24" fill="none" xmlns="http://www.w3.org/2000/svg">
<path fill-rule="evenodd" clip-rule="evenodd" d="M13.5858 3C14.3668 2.21895 15.6332 2.21895 16.4142 3L19 5.58579L18.2929 6.29289L19 5.58579C19.781 6.36684 19.781 7.63316 19 8.41421L10.4551 16.9591C10.134 17.2802 9.71316 17.4825 9.2618 17.5326L6.35279 17.8558C5.07896 17.9974 4.00262 16.921 4.14416 15.6472L4.46738 12.7382C4.51753 12.2868 4.71981 11.866 5.04093 11.5449L11.2884 5.29739L11.2929 5.29286L11.2974 5.28837L13.5858 3ZM6.45515 12.9591L12 7.4142L14.5858 9.99999L9.04093 15.5449L6.13192 15.8681L6.45515 12.9591ZM17.5858 7L16 8.58577L13.4142 5.99999L15 4.41421L17.5858 7ZM5 20C4.44772 20 4 20.4477 4 21C4 21.5523 4.44772 22 5 22H19C19.5523 22 20 21.5523 20 21C20 20.4477 19.5523 20 19 20H5Z" fill="currentColor"/>
</svg>
