<svg width="24" height="24" viewBox="0 0 24 24" fill="none" xmlns="http://www.w3.org/2000/svg">
<path fill-rule="evenodd" clip-rule="evenodd" d="M12.5858 5C13.3668 4.21895 14.6332 4.21895 15.4142 5L18 7.58579L17.2929 8.29289L18 7.58579C18.781 8.36684 18.781 9.63316 18 10.4142L9.45515 18.9591C9.13402 19.2802 8.71316 19.4825 8.2618 19.5326L5.35279 19.8558C4.07896 19.9974 3.00262 18.921 3.14416 17.6472L3.46738 14.7382C3.51753 14.2868 3.71981 13.866 4.04093 13.5449L10.2871 7.29873L10.2929 7.29286L10.2987 7.28704L12.5858 5ZM5.45515 14.9591L11 9.41421L13.5858 12L8.04093 17.5449L5.13192 17.8681L5.45515 14.9591ZM16.5858 9L15 10.5858L12.4142 8L14 6.41421L16.5858 9ZM15.2997 17.6247C14.7759 16.9699 15.2421 16 16.0806 16H19.9194C20.7579 16 21.224 16.9699 20.7002 17.6247L18.7808 20.0239C18.3805 20.5243 17.6194 20.5243 17.2191 20.0239L15.2997 17.6247Z" fill="#6E778C"/>
</svg>
