<svg width="24" height="24" viewBox="0 0 24 24" fill="none" xmlns="http://www.w3.org/2000/svg">
<path fill-rule="evenodd" clip-rule="evenodd" d="M10.5 3C10.5 2.44772 10.9477 2 11.5 2C17.299 2 22 6.70101 22 12.5C22 13.0523 21.5523 13.5 21 13.5C20.4477 13.5 20 13.0523 20 12.5C20 7.80558 16.1944 4 11.5 4C10.9477 4 10.5 3.55228 10.5 3ZM12.0377 6.93487C12.1881 6.40343 12.7407 6.09447 13.2722 6.24478C15.4381 6.85739 17.1426 8.56188 17.7552 10.7278C17.9055 11.2593 17.5966 11.8119 17.0651 11.9623C16.5337 12.1126 15.981 11.8036 15.8307 11.2722C15.4072 9.77477 14.2252 8.5928 12.7278 8.16928C12.1964 8.01897 11.8874 7.46631 12.0377 6.93487ZM9.12566 3.67122C8.96864 2.72909 8.13002 1.95165 7.07461 2.03503C5.69857 2.14375 4.41584 2.52097 3.46741 3.36062C2.48677 4.22879 2 5.4687 2 7C2 15.5604 8.43959 22 17 22C18.3735 22 19.5641 21.4868 20.4398 20.554C21.3015 19.6361 21.8015 18.3752 21.9513 16.9508C22.0648 15.8718 21.2637 15.0304 20.3289 14.8746L16.0751 14.1654C15.0291 13.991 14.1073 14.6532 13.7886 15.5465C13.7379 15.6885 13.6868 15.8176 13.638 15.9265C13.4363 15.8599 13.1728 15.7423 12.8492 15.551C12.2998 15.2263 11.681 14.7517 11.0635 14.1786C9.85978 13.0613 8.77317 11.6753 8.23793 10.4993L8.78662 10.225C9.57193 9.83232 10.0093 8.9734 9.86498 8.10734L9.12566 3.67122ZM4.79315 4.8581C5.27979 4.42727 6.05047 4.13237 7.15869 4.03495L7.89219 8.43612L7.27028 8.74707C6.46551 9.14946 5.91276 10.1464 6.33877 11.1487C6.99785 12.6994 8.33139 14.3714 9.70294 15.6445C10.3959 16.2877 11.1287 16.8574 11.8316 17.2728C12.5042 17.6703 13.2707 18 14 18C14.4359 18 14.7391 17.7689 14.8899 17.6256C15.0514 17.4721 15.1713 17.2941 15.2564 17.1495C15.4296 16.8553 15.5698 16.5058 15.6723 16.2186C15.6846 16.1842 15.7072 16.1591 15.7277 16.1462C15.737 16.1403 15.7431 16.1387 15.7449 16.1383L15.7458 16.1381L15.7462 16.1382L19.9513 16.8392C19.8245 17.8895 19.4625 18.6729 18.9816 19.1851C18.4999 19.6983 17.8448 20 17 20C9.54416 20 4 14.4558 4 7C4 5.9143 4.32804 5.26986 4.79315 4.8581Z" fill="#6E778C"/>
</svg>
