<svg width="24" height="24" viewBox="0 0 24 24" fill="none" xmlns="http://www.w3.org/2000/svg">
<path fill-rule="evenodd" clip-rule="evenodd" d="M12.786 2.38133C12.6028 2.14909 12.319 2 12.0003 2C11.6816 2 11.3977 2.14909 11.2146 2.38133C11.0892 2.43489 10.9681 2.50185 10.8533 2.58219L2.05532 8.74081C1.92895 8.82927 1.81538 8.93031 1.71547 9.04129C1.40351 9.13428 1.14296 9.37756 1.04244 9.71265C0.944838 10.038 1.0208 10.3741 1.2168 10.6216C1.23493 10.7698 1.26993 10.9178 1.32266 11.0628L4.8211 20.6835C4.86902 20.8153 4.92982 20.9397 5.00178 21.0555C5.01775 21.34 5.15451 21.6157 5.40026 21.8C5.66471 21.9983 5.99541 22.0459 6.28938 21.9574C6.42283 21.9854 6.56051 22 6.70069 22H17.2998C17.44 22 17.5777 21.9854 17.7111 21.9574C18.0051 22.0459 18.3358 21.9983 18.6003 21.8C18.846 21.6157 18.9828 21.34 18.9987 21.0555C19.0707 20.9397 19.1315 20.8153 19.1794 20.6835L22.6779 11.0628C22.7306 10.9178 22.7656 10.7698 22.7837 10.6216C22.9797 10.3741 23.0557 10.038 22.9581 9.71265C22.8576 9.37756 22.597 9.13428 22.2851 9.04129C22.1851 8.93031 22.0716 8.82927 21.9452 8.74081L13.1472 2.58219C13.0324 2.50185 12.9113 2.43489 12.786 2.38133ZM11.0003 4.92066L4.26495 9.63538L11.0003 11.656V4.92066ZM3.62076 11.5302L6.30871 18.9221L10.3407 13.5461L3.62076 11.5302ZM8.00026 20H16.0003L12.0003 14.6667L8.00026 20ZM17.6918 18.9221L20.3798 11.5302L13.6599 13.5461L17.6918 18.9221ZM19.7356 9.63538L13.0003 4.92066V11.656L19.7356 9.63538Z" fill="#6E778C"/>
</svg>
