<svg width="24" height="24" viewBox="0 0 24 24" fill="none" xmlns="http://www.w3.org/2000/svg">
<path fill-rule="evenodd" clip-rule="evenodd" d="M13 4.06189V9.86496L17.3598 6.23178C17.3931 6.204 17.4277 6.17877 17.4634 6.15604C16.2627 5.03309 14.7157 4.27584 13 4.06189ZM18.734 7.67928C18.7051 7.7105 18.6738 7.74023 18.6402 7.76822L13.8148 11.7894L19.5485 14.6562C19.8409 13.8251 20 12.9311 20 12C20 10.4084 19.5352 8.92543 18.734 7.67928ZM18.6528 16.4445L12 13.118L5.34716 16.4445C6.78229 18.5884 9.2263 20 12 20C14.7737 20 17.2177 18.5884 18.6528 16.4445ZM4.45153 14.6562L11 11.382V4.06189C7.05369 4.55399 4 7.92038 4 12C4 12.9311 4.15907 13.8251 4.45153 14.6562ZM12 2C6.47715 2 2 6.47715 2 12C2 17.5228 6.47715 22 12 22C17.5228 22 22 17.5228 22 12C22 6.47715 17.5228 2 12 2Z" fill="#6E778C"/>
</svg>
