<svg width="24" height="24" viewBox="0 0 24 24" fill="none" xmlns="http://www.w3.org/2000/svg">
<path fill-rule="evenodd" clip-rule="evenodd" d="M16.414 5C15.633 4.21895 14.3666 4.21895 13.5856 5L11.9998 6.58579L10.7069 5.2929C10.3164 4.90237 9.68321 4.90237 9.29269 5.2929C8.90216 5.68342 8.90216 6.31658 9.29269 6.70711L10.5856 8L5.50678 13.0788C5.22758 13.358 5.03727 13.7136 4.95983 14.1008L4.31339 17.333C4.0335 18.7325 5.26734 19.9663 6.66678 19.6864L9.89901 19.04C10.2862 18.9625 10.6418 18.7722 10.921 18.493L15.9998 13.4142L17.2927 14.7071C17.6832 15.0976 18.3164 15.0976 18.7069 14.7071C19.0974 14.3166 19.0974 13.6834 18.7069 13.2929L17.414 12L18.9998 10.4142C19.7808 9.63316 19.7808 8.36684 18.9998 7.58579L16.414 5ZM15.9998 10.5858L17.5856 9L14.9998 6.41422L13.414 8L15.9998 10.5858ZM11.9998 9.41422L6.921 14.493L6.27455 17.7252L9.50678 17.0788L14.5856 12L11.9998 9.41422Z" fill="#6E778C"/>
</svg>
