<svg width="24" height="24" viewBox="0 0 24 24" fill="none" xmlns="http://www.w3.org/2000/svg">
<path fill-rule="evenodd" clip-rule="evenodd" d="M11 5C11 3.89543 11.8954 3 13 3H19C20.1046 3 21 3.89543 21 5V9C21 10.1046 20.1046 11 19 11H17V13.6816C17.1481 13.7672 17.2875 13.8733 17.4142 14L19 15.5858C19.781 16.3668 19.781 17.6332 19 18.4142L17.4142 20C16.6332 20.781 15.3668 20.781 14.5858 20L13 18.4142C12.8733 18.2875 12.7672 18.1481 12.6816 18H8.82929C8.41746 19.1652 7.30622 20 6 20C4.34315 20 3 18.6569 3 17C3 15.3431 4.34315 14 6 14C7.30622 14 8.41746 14.8348 8.82929 16H12.6816C12.7672 15.8519 12.8733 15.7125 13 15.5858L14.5858 14C14.7125 13.8733 14.8519 13.7672 15 13.6816V11H13C11.8954 11 11 10.1046 11 9V8H8.82929C8.41746 9.16519 7.30622 10 6 10C4.34315 10 3 8.65685 3 7C3 5.34315 4.34315 4 6 4C7.30622 4 8.41746 4.83481 8.82929 6H11V5ZM7 7C7 6.44772 6.55228 6 6 6C5.44772 6 5 6.44772 5 7C5 7.55228 5.44772 8 6 8C6.55228 8 7 7.55228 7 7ZM13 7V9H16H19V5H13V7ZM6 16C6.55228 16 7 16.4477 7 17C7 17.5523 6.55228 18 6 18C5.44772 18 5 17.5523 5 17C5 16.4477 5.44772 16 6 16ZM16 15.4142L14.4142 17L16 18.5858L17.5858 17L16 15.4142Z" fill="#6E778C"/>
</svg>
