<svg width="24" height="24" viewBox="0 0 24 24" fill="none" xmlns="http://www.w3.org/2000/svg">
<path fill-rule="evenodd" clip-rule="evenodd" d="M18 8.00003C18 6.35194 16.1185 5.41118 14.8 6.40003L9.46667 10.4C9.2776 10.5418 9.12204 10.7088 9 10.8919L9 7.00003C9 6.44775 8.55228 6.00003 8 6.00003C7.44772 6.00003 7 6.44775 7 7.00003V17C7 17.5523 7.44772 18 8 18C8.55228 18 9 17.5523 9 17V13.1081C9.12204 13.2913 9.2776 13.4582 9.46667 13.6L14.8 17.6C16.1185 18.5889 18 17.6481 18 16V8.00003ZM10.6667 12L16 8.00003V16L10.6667 12Z" fill="#6E778C"/>
</svg>
