<svg width="24" height="24" viewBox="0 0 24 24" fill="none" xmlns="http://www.w3.org/2000/svg">
<path fill-rule="evenodd" clip-rule="evenodd" d="M3 2C3.55228 2 4 2.44772 4 3V6H6V5C6 3.34315 7.34315 2 9 2H14H19C20.6569 2 22 3.34315 22 5V19C22 20.6569 20.6569 22 19 22H14H9C7.34315 22 6 20.6569 6 19V18H4V21C4 21.5523 3.55228 22 3 22C2.44772 22 2 21.5523 2 21V3C2 2.44772 2.44772 2 3 2ZM4 16H6V13H4V16ZM6 8V11H4V8H6ZM8 5C8 4.44772 8.44772 4 9 4H14H19C19.5523 4 20 4.44772 20 5V19C20 19.5523 19.5523 20 19 20H14H9C8.44772 20 8 19.5523 8 19V5ZM11 7C10.4477 7 10 7.44772 10 8C10 8.55228 10.4477 9 11 9H17C17.5523 9 18 8.55228 18 8C18 7.44772 17.5523 7 17 7H11ZM10 12C10 11.4477 10.4477 11 11 11H15C15.5523 11 16 11.4477 16 12C16 12.5523 15.5523 13 15 13H11C10.4477 13 10 12.5523 10 12ZM11 15C10.4477 15 10 15.4477 10 16C10 16.5523 10.4477 17 11 17H13C13.5523 17 14 16.5523 14 16C14 15.4477 13.5523 15 13 15H11Z" fill="#6E778C"/>
</svg>
