<svg width="24" height="24" viewBox="0 0 24 24" fill="none" xmlns="http://www.w3.org/2000/svg">
<path fill-rule="evenodd" clip-rule="evenodd" d="M5 4C5 2.89543 5.89543 2 7 2H17C18.1046 2 19 2.89543 19 4V14C19 15.1046 18.1046 16 17 16H7C5.89543 16 5 15.1046 5 14V4ZM17 4L7 4V14H17V4ZM2 21C2 20.4477 2.44772 20 3 20H21C21.5523 20 22 20.4477 22 21C22 21.5523 21.5523 22 21 22H3C2.44772 22 2 21.5523 2 21ZM12 19C12.5523 19 13 18.5523 13 18C13 17.4477 12.5523 17 12 17C11.4477 17 11 17.4477 11 18C11 18.5523 11.4477 19 12 19ZM14.7071 6.29289C15.0976 6.68342 15.0976 7.31658 14.7071 7.70711L13.4142 9L14.7071 10.2929C15.0976 10.6834 15.0976 11.3166 14.7071 11.7071C14.3166 12.0976 13.6834 12.0976 13.2929 11.7071L12 10.4142L10.7071 11.7071C10.3166 12.0976 9.68342 12.0976 9.29289 11.7071C8.90237 11.3166 8.90237 10.6834 9.29289 10.2929L10.5858 9L9.29289 7.70711C8.90237 7.31658 8.90237 6.68342 9.29289 6.29289C9.68342 5.90237 10.3166 5.90237 10.7071 6.29289L12 7.58579L13.2929 6.29289C13.6834 5.90237 14.3166 5.90237 14.7071 6.29289Z" fill="#6E778C"/>
</svg>
