<svg width="24" height="24" viewBox="0 0 24 24" fill="none" xmlns="http://www.w3.org/2000/svg">
<path fill-rule="evenodd" clip-rule="evenodd" d="M11.1056 2.32919C11.6687 2.04766 12.3314 2.04766 12.8945 2.32919L19.8945 5.82919C20.5664 6.16513 21.0191 6.86865 20.9865 7.66117C20.6683 15.3946 14.8703 20.1676 13.1019 21.4545C12.442 21.9348 11.5581 21.9348 10.8982 21.4545C9.12976 20.1676 3.33182 15.3946 3.01362 7.66117C2.98101 6.86865 3.43374 6.16513 4.10562 5.82919L11.1056 2.32919ZM18.9868 7.61142L12 4.11804L5.0133 7.61142C5.3023 14.2573 10.262 18.5005 12 19.7825C13.7381 18.5005 18.6978 14.2573 18.9868 7.61142ZM19 7.61804C19.0001 7.61809 19.0001 7.61809 19 7.61803L19 7.61804ZM5.00005 7.61804L5.00007 7.61803L5.00005 7.61804Z" fill="currentColor"/>
</svg>
