<svg width="24" height="24" viewBox="0 0 24 24" fill="none" xmlns="http://www.w3.org/2000/svg">
<path fill-rule="evenodd" clip-rule="evenodd" d="M11.1054 2.32919C11.6684 2.04766 12.3312 2.04766 12.8942 2.32919L19.8942 5.82919C20.5661 6.16513 21.0188 6.86865 20.9862 7.66117C20.668 15.3946 14.8701 20.1676 13.1017 21.4545C12.4418 21.9348 11.5578 21.9348 10.8979 21.4545C9.12951 20.1676 3.33157 15.3946 3.01337 7.66117C2.98076 6.86865 3.4335 6.16513 4.10538 5.82919L11.1054 2.32919ZM18.9866 7.61142L11.9998 4.11804L5.01306 7.61142C5.30206 14.2573 10.2617 18.5005 11.9998 19.7825C13.7379 18.5005 18.6976 14.2573 18.9866 7.61142ZM18.9998 7.61804C18.9999 7.61809 18.9999 7.61809 18.9998 7.61803L18.9998 7.61804ZM4.9998 7.61804L4.99983 7.61803L4.9998 7.61804Z" fill="#6E778C"/>
</svg>
