<svg width="24" height="24" viewBox="0 0 24 24" fill="none" xmlns="http://www.w3.org/2000/svg">
<path fill-rule="evenodd" clip-rule="evenodd" d="M12.8944 2.32919C12.3314 2.04766 11.6686 2.04766 11.1056 2.32919L8.55279 3.60558C8.05881 3.85257 7.85859 4.45324 8.10558 4.94722C8.35256 5.4412 8.95324 5.64142 9.44722 5.39444L12 4.11804L18.9868 7.61142C18.8792 10.0868 18.1269 12.2267 17.1275 14.0114C16.8576 14.4933 17.0295 15.1027 17.5114 15.3725C17.9933 15.6424 18.6027 15.4705 18.8725 14.9886C20.0023 12.9711 20.8694 10.5156 20.9865 7.65906C21.0191 6.86444 20.5642 6.1641 19.8944 5.82919L12.8944 2.32919ZM5.03099 7.93347C4.99424 7.38241 4.51772 6.96547 3.96666 7.00222C3.4156 7.03897 2.99867 7.51549 3.03542 8.06655C3.53533 15.5626 9.16082 20.1904 10.8991 21.4552C11.5605 21.9365 12.4439 21.9334 13.1022 21.4544C13.5812 21.1058 14.3228 20.5258 15.1633 19.7233C15.5627 19.3419 15.5773 18.7089 15.1959 18.3094C14.8145 17.91 14.1815 17.8954 13.7821 18.2768C13.0608 18.9655 12.4233 19.4704 12.0001 19.7825C10.2922 18.5228 5.46187 14.3945 5.03099 7.93347ZM4.70711 3.2929C4.31658 2.90238 3.68342 2.90238 3.29289 3.2929C2.90237 3.68343 2.90237 4.31659 3.29289 4.70711L19.2929 20.7071C19.6834 21.0976 20.3166 21.0976 20.7071 20.7071C21.0976 20.3166 21.0976 19.6834 20.7071 19.2929L4.70711 3.2929Z" fill="#6E778C"/>
</svg>
