<svg width="24" height="24" viewBox="0 0 24 24" fill="none" xmlns="http://www.w3.org/2000/svg">
<path fill-rule="evenodd" clip-rule="evenodd" d="M7 5C6.44772 5 6 5.44772 6 6C6 6.55228 6.44772 7 7 7C7.55228 7 8 6.55228 8 6C8 5.44772 7.55228 5 7 5ZM7 3C8.30622 3 9.41746 3.83481 9.82929 5L21 5C21.5523 5 22 5.44772 22 6C22 6.55229 21.5523 7 21 7L9.82929 7C9.41746 8.16519 8.30622 9 7 9C5.69378 9 4.58254 8.16519 4.17071 7H3C2.44772 7 2 6.55228 2 6C2 5.44772 2.44772 5 3 5L4.17071 5C4.58254 3.83481 5.69378 3 7 3ZM18 12C18 11.4477 18.4477 11 19 11C19.5523 11 20 11.4477 20 12C20 12.5523 19.5523 13 19 13C18.4477 13 18 12.5523 18 12ZM16.1707 13L3 13C2.44772 13 2 12.5523 2 12C2 11.4477 2.44772 11 3 11L16.1707 11C16.5825 9.83481 17.6938 9 19 9C20.6569 9 22 10.3431 22 12C22 13.6569 20.6569 15 19 15C17.6938 15 16.5825 14.1652 16.1707 13ZM10 18C10 17.4477 10.4477 17 11 17C11.5523 17 12 17.4477 12 18C12 18.5523 11.5523 19 11 19C10.4477 19 10 18.5523 10 18ZM11 21C9.69378 21 8.58254 20.1652 8.17071 19H3C2.44772 19 2 18.5523 2 18C2 17.4477 2.44772 17 3 17H8.17071C8.58254 15.8348 9.69378 15 11 15C12.3062 15 13.4175 15.8348 13.8293 17H21C21.5523 17 22 17.4477 22 18C22 18.5523 21.5523 19 21 19H13.8293C13.4175 20.1652 12.3062 21 11 21Z" fill="#6E778C"/>
</svg>
