<svg width="24" height="24" viewBox="0 0 24 24" fill="none" xmlns="http://www.w3.org/2000/svg">
<path fill-rule="evenodd" clip-rule="evenodd" d="M12.0145 1.64254C12.4881 1.92668 12.6416 2.54094 12.3575 3.01452L10.9929 5.28889L12 7.01539L14.6362 2.49616C14.9145 2.01911 15.5268 1.85797 16.0039 2.13625C16.4809 2.41453 16.6421 3.02685 16.3638 3.5039L13.741 8.00003H15.4338L16.6425 5.98553C16.9267 5.51195 17.5409 5.35839 18.0145 5.64254C18.4881 5.92668 18.6416 6.54094 18.3575 7.01452L17.7662 8.00003H19C19.5523 8.00003 20 8.44774 20 9.00003C20 9.55231 19.5523 10 19 10H17.7662L18.3575 10.9855C18.6416 11.4591 18.4881 12.0734 18.0145 12.3575C17.5409 12.6417 16.9267 12.4881 16.6425 12.0145L15.4338 10H13.741L16.3638 14.4962C16.6421 14.9732 16.4809 15.5855 16.0039 15.8638C15.5268 16.1421 14.9145 15.981 14.6362 15.5039L12 10.9847L11.0106 12.6808L12.3 14.4C12.6314 14.8419 12.5418 15.4687 12.1 15.8C11.6582 16.1314 11.0314 16.0419 10.7 15.6L9.91683 14.5558L9.36378 15.5039C9.0855 15.981 8.47318 16.1421 7.99613 15.8638C7.51908 15.5855 7.35794 14.9732 7.63622 14.4962L8.2173 13.5H7C6.44772 13.5 6 13.0523 6 12.5C6 11.9477 6.44772 11.5 7 11.5L9.38396 11.5L10.259 10L5 10C4.44772 10 4 9.55231 4 9.00003C4 8.44774 4.44772 8.00003 5 8.00003H10.259L9.16759 6.1291L6.64142 6.48998C6.09469 6.56808 5.58816 6.18818 5.51005 5.64145C5.43195 5.09472 5.81184 4.58818 6.35858 4.51008L8.07973 4.2642L7.63622 3.5039C7.35794 3.02685 7.51908 2.41453 7.99613 2.13625C8.47318 1.85797 9.0855 2.01911 9.36378 2.49616L9.84311 3.31787L10.6425 1.98553C10.9267 1.51195 11.5409 1.35839 12.0145 1.64254ZM4 17C4 16.4477 3.55228 16 3 16C2.44772 16 2 16.4477 2 17L2 20C2 21.1046 2.89543 22 4 22L20 22C21.1046 22 22 21.1046 22 20V17C22 16.4477 21.5523 16 21 16C20.4477 16 20 16.4477 20 17V20L4 20V17Z" fill="currentColor"/>
</svg>
