<svg width="24" height="24" viewBox="0 0 24 24" fill="none" xmlns="http://www.w3.org/2000/svg">
<path fill-rule="evenodd" clip-rule="evenodd" d="M5 3C3.89543 3 3 3.89543 3 5V19C3 20.1046 3.89543 21 5 21H19C20.1046 21 21 20.1046 21 19V5C21 3.89543 20.1046 3 19 3H5ZM5 5H19V19H5V5ZM11.2904 9.70538L11.2829 9.697C10.9024 9.30573 10.9057 8.68007 11.2929 8.29289C11.6834 7.90237 12.3166 7.90237 12.7071 8.29289L12 9C12.7071 8.29289 12.7075 8.29324 12.7078 8.2936L12.7085 8.29432L12.7101 8.29585L12.7134 8.29922L12.7211 8.30713L12.7408 8.32778C12.7557 8.34368 12.7741 8.36387 12.7955 8.38837C12.8384 8.43735 12.8934 8.5037 12.9563 8.5875C13.0818 8.75496 13.2397 8.99328 13.3944 9.30279C13.7056 9.92507 14 10.8272 14 12C14 13.1728 13.7056 14.0749 13.3944 14.6972C13.2397 15.0067 13.0818 15.245 12.9563 15.4125C12.8934 15.4963 12.8384 15.5627 12.7955 15.6116C12.7741 15.6361 12.7557 15.6563 12.7408 15.6722L12.7211 15.6929L12.7134 15.7008L12.7101 15.7041L12.7085 15.7057L12.7078 15.7064C12.7075 15.7068 12.7071 15.7071 12.0001 15.0001L12.7071 15.7071C12.3166 16.0976 11.6834 16.0976 11.2929 15.7071C10.9057 15.3199 10.9024 14.6943 11.2829 14.303L11.2829 14.303L11.2904 14.2946C11.3022 14.2811 11.3253 14.2537 11.3562 14.2125C11.4182 14.13 11.5103 13.9933 11.6056 13.8028C11.7944 13.4251 12 12.8272 12 12C12 11.1728 11.7944 10.5749 11.6056 10.1972C11.5103 10.0067 11.4182 9.87004 11.3562 9.7875C11.3253 9.7463 11.3022 9.7189 11.2904 9.70538Z" fill="#6E778C"/>
</svg>
