<svg width="24" height="24" viewBox="0 0 24 24" fill="none" xmlns="http://www.w3.org/2000/svg">
<path fill-rule="evenodd" clip-rule="evenodd" d="M17.8944 3.55279C17.725 3.214 17.3788 3 17 3C16.6212 3 16.275 3.214 16.1056 3.55279L13.1056 9.55279C12.9506 9.86277 12.9671 10.2309 13.1493 10.5257C13.3316 10.8205 13.6534 11 14 11H20C20.3466 11 20.6684 10.8205 20.8507 10.5257C21.0329 10.2309 21.0494 9.86277 20.8944 9.55279L17.8944 3.55279ZM5 13C4.56957 13 4.18743 13.2754 4.05132 13.6838L3.05132 16.6838C2.98289 16.889 2.98289 17.111 3.05132 17.3162L4.05132 20.3162C4.18743 20.7246 4.56957 21 5 21H9C9.43043 21 9.81257 20.7246 9.94868 20.3162L10.9487 17.3162C11.0171 17.111 11.0171 16.889 10.9487 16.6838L9.94868 13.6838C9.81257 13.2754 9.43043 13 9 13H5ZM3 4C3 3.44772 3.44772 3 4 3H10C10.5523 3 11 3.44772 11 4V10C11 10.5523 10.5523 11 10 11H4C3.44772 11 3 10.5523 3 10V4ZM17 13C14.7909 13 13 14.7909 13 17C13 19.2091 14.7909 21 17 21C19.2091 21 21 19.2091 21 17C21 14.7909 19.2091 13 17 13Z" fill="#6E778C"/>
</svg>
