<svg width="24" height="24" viewBox="0 0 24 24" fill="none" xmlns="http://www.w3.org/2000/svg">
<path fill-rule="evenodd" clip-rule="evenodd" d="M2 4C2 2.89543 2.89543 2 4 2H20C21.1046 2 22 2.89543 22 4V20C22 21.1046 21.1046 22 20 22H4C2.89543 22 2 21.1046 2 20V4ZM20 4L4 4V20H20V4ZM9.4453 8.16795C9.90483 7.8616 10.5257 7.98577 10.8321 8.4453L12 10.1972L13.1679 8.4453C13.4743 7.98577 14.0952 7.8616 14.5547 8.16795C15.0142 8.4743 15.1384 9.09517 14.8321 9.5547L13.2019 12L14.8321 14.4453C15.1384 14.9048 15.0142 15.5257 14.5547 15.8321C14.0952 16.1384 13.4743 16.0142 13.1679 15.5547L12 13.8028L10.8321 15.5547C10.5257 16.0142 9.90483 16.1384 9.4453 15.8321C8.98577 15.5257 8.8616 14.9048 9.16795 14.4453L10.7981 12L9.16795 9.5547C8.8616 9.09517 8.98577 8.4743 9.4453 8.16795Z" fill="#6E778C"/>
</svg>
