<svg width="24" height="24" viewBox="0 0 24 24" fill="none" xmlns="http://www.w3.org/2000/svg">
<path fill-rule="evenodd" clip-rule="evenodd" d="M11.9998 3C12.5521 3 12.9998 3.44772 12.9998 4V11.557L19.6487 9.06367C20.1658 8.86975 20.7422 9.13176 20.9361 9.64888C21.13 10.166 20.868 10.7424 20.3509 10.9363L13.6892 13.4345L18.759 19.3492C19.1185 19.7685 19.0699 20.3998 18.6506 20.7593C18.2312 21.1187 17.5999 21.0701 17.2405 20.6508L11.9998 14.5366L6.75904 20.6508C6.39962 21.0701 5.76832 21.1187 5.34899 20.7593C4.92967 20.3998 4.8811 19.7685 5.24053 19.3492L10.3103 13.4345L3.64866 10.9363C3.13154 10.7424 2.86953 10.166 3.06345 9.64888C3.25737 9.13176 3.83379 8.86975 4.35091 9.06367L10.9998 11.557V4C10.9998 3.44772 11.4475 3 11.9998 3Z" fill="#6E778C"/>
</svg>
