<svg width="24" height="24" viewBox="0 0 24 24" fill="none" xmlns="http://www.w3.org/2000/svg">
<path fill-rule="evenodd" clip-rule="evenodd" d="M12.0002 5C12.5524 5 13.0002 5.44772 13.0002 6V10.2338L16.4857 8.14251C16.9592 7.85836 17.5735 8.01192 17.8576 8.4855C18.1418 8.95908 17.9882 9.57334 17.5146 9.85749L13.9438 12L17.5146 14.1425C17.9882 14.4267 18.1418 15.0409 17.8576 15.5145C17.5735 15.9881 16.9592 16.1416 16.4857 15.8575L13.0002 13.7662V18C13.0002 18.5523 12.5524 19 12.0002 19C11.4479 19 11.0002 18.5523 11.0002 18V13.7662L7.51465 15.8575C7.04107 16.1416 6.42681 15.9881 6.14266 15.5145C5.85851 15.0409 6.01208 14.4267 6.48566 14.1425L10.0565 12L6.48566 9.85749C6.01208 9.57334 5.85851 8.95908 6.14266 8.4855C6.42681 8.01192 7.04107 7.85836 7.51465 8.14251L11.0002 10.2338V6C11.0002 5.44772 11.4479 5 12.0002 5Z" fill="#6E778C"/>
</svg>
