<svg width="24" height="24" viewBox="0 0 24 24" fill="none" xmlns="http://www.w3.org/2000/svg">
<path fill-rule="evenodd" clip-rule="evenodd" d="M3 5C3 3.89543 3.89543 3 5 3H19C20.1046 3 21 3.89543 21 5V9V11.5C21 12.0523 20.5523 12.5 20 12.5C19.4477 12.5 19 12.0523 19 11.5V10H16V12.5C16 13.0523 15.5523 13.5 15 13.5C14.4477 13.5 14 13.0523 14 12.5V10H10V19H12C12.5523 19 13 19.4477 13 20C13 20.5523 12.5523 21 12 21H9H5C3.89543 21 3 20.1046 3 19V9V5ZM15 8H9H5V5H19V8H15ZM8 19V10H5V19H8ZM17.6069 14.8683C17.9686 14.1127 19.0433 14.11 19.4088 14.8637L19.6575 15.3768C19.9014 15.4783 20.1291 15.611 20.3354 15.77L20.922 15.7266C21.7616 15.6645 22.2975 16.6044 21.8164 17.2953L21.4829 17.7743C21.4981 17.8967 21.506 18.0213 21.506 18.1478C21.506 18.2743 21.4981 18.399 21.4829 18.5214L21.8164 19.0004C22.2975 19.6913 21.7616 20.6311 20.922 20.569L20.3354 20.5257C20.1291 20.6847 19.9014 20.8174 19.6575 20.9189L19.4088 21.4319C19.0433 22.1857 17.9686 22.183 17.6069 21.4274L17.3658 20.9236C17.1179 20.8217 16.8867 20.6875 16.6773 20.5263L16.0956 20.5691C15.254 20.631 14.7189 19.687 15.2041 18.9967L15.5304 18.5325C15.5143 18.4066 15.506 18.2782 15.506 18.1478C15.506 18.0175 15.5143 17.8891 15.5304 17.7631L15.2041 17.299C14.7189 16.6087 15.254 15.6647 16.0956 15.7266L16.6773 15.7694C16.8867 15.6082 17.1179 15.474 17.3658 15.3721L17.6069 14.8683ZM18.506 17.1478C17.9537 17.1478 17.506 17.5955 17.506 18.1478C17.506 18.7001 17.9537 19.1478 18.506 19.1478C19.0583 19.1478 19.506 18.7001 19.506 18.1478C19.506 17.5955 19.0583 17.1478 18.506 17.1478Z" fill="#6E778C"/>
</svg>
