<svg width="24" height="24" viewBox="0 0 24 24" fill="none" xmlns="http://www.w3.org/2000/svg">
<path fill-rule="evenodd" clip-rule="evenodd" d="M7 4C7 2.89543 7.89543 2 9 2H15C16.1046 2 17 2.89543 17 4H19C20.1046 4 21 4.89543 21 6V13C21 13.5523 20.5523 14 20 14C19.4477 14 19 13.5523 19 13V6H17C17 7.10457 16.1046 8 15 8H9C7.89543 8 7 7.10457 7 6H5V20H11.5C12.0523 20 12.5 20.4477 12.5 21C12.5 21.5523 12.0523 22 11.5 22H5C3.89543 22 3 21.1046 3 20V6C3 4.89543 3.89543 4 5 4H7ZM15 4H9V6H15V4ZM8 16C7.44772 16 7 16.4477 7 17C7 17.5523 7.44772 18 8 18H11C11.5523 18 12 17.5523 12 17C12 16.4477 11.5523 16 11 16H8ZM7 13C7 12.4477 7.44772 12 8 12H15C15.5523 12 16 12.4477 16 13C16 13.5523 15.5523 14 15 14H8C7.44772 14 7 13.5523 7 13ZM17.7071 21.7071L21.7071 17.7071C22.0976 17.3166 22.0976 16.6834 21.7071 16.2929C21.3166 15.9024 20.6834 15.9024 20.2929 16.2929L17.0672 19.5186L15.7682 17.9598C15.4147 17.5355 14.7841 17.4782 14.3598 17.8318C13.9355 18.1853 13.8782 18.8159 14.2318 19.2402L16.2318 21.6402C16.4116 21.856 16.674 21.9862 16.9547 21.999C17.2354 22.0117 17.5084 21.9058 17.7071 21.7071Z" fill="#6E778C"/>
</svg>
