<svg width="24" height="24" viewBox="0 0 24 24" fill="none" xmlns="http://www.w3.org/2000/svg">
<path fill-rule="evenodd" clip-rule="evenodd" d="M2 3C2 1.89543 2.89543 1 4 1H20C21.1046 1 22 1.89543 22 3V21C22 22.1046 21.1046 23 20 23H4C2.89543 23 2 22.1046 2 21V3ZM20 3L4 3V17H20V3ZM4 21V19H6V21H4ZM8 21V19H20V21H8ZM11 5C10.4477 5 10 5.44772 10 6C10 6.55228 10.4477 7 11 7H17C17.5523 7 18 6.55228 18 6C18 5.44772 17.5523 5 17 5H11ZM10 10C10 9.44771 10.4477 9 11 9H17C17.5523 9 18 9.44771 18 10C18 10.5523 17.5523 11 17 11H11C10.4477 11 10 10.5523 10 10ZM11 13C10.4477 13 10 13.4477 10 14C10 14.5523 10.4477 15 11 15H17C17.5523 15 18 14.5523 18 14C18 13.4477 17.5523 13 17 13H11ZM7 7C7.55228 7 8 6.55228 8 6C8 5.44772 7.55228 5 7 5C6.44772 5 6 5.44772 6 6C6 6.55228 6.44772 7 7 7ZM8 10C8 10.5523 7.55228 11 7 11C6.44772 11 6 10.5523 6 10C6 9.44771 6.44772 9 7 9C7.55228 9 8 9.44771 8 10ZM7 15C7.55228 15 8 14.5523 8 14C8 13.4477 7.55228 13 7 13C6.44772 13 6 13.4477 6 14C6 14.5523 6.44772 15 7 15Z" fill="#6E778C"/>
</svg>
