<svg width="24" height="24" viewBox="0 0 24 24" fill="none" xmlns="http://www.w3.org/2000/svg">
<path fill-rule="evenodd" clip-rule="evenodd" d="M10.038 8.00002V2.18184H8.88175L7.44141 3.09377V4.18468L8.77379 3.34945H8.80788V8.00002H10.038ZM15.3441 4.21877H16.5884C16.5354 3.76991 16.3933 3.38828 16.1623 3.07389C15.9331 2.7576 15.6377 2.51707 15.2759 2.35229C14.9161 2.18563 14.5117 2.10229 14.0629 2.10229C13.5515 2.10229 13.0913 2.21972 12.6822 2.45457C12.2731 2.68752 11.9492 3.02654 11.7106 3.47161C11.4719 3.91669 11.3526 4.45646 11.3526 5.09093C11.3526 5.72351 11.4701 6.26233 11.7049 6.70741C11.9416 7.15248 12.2636 7.49245 12.6708 7.72729C13.0799 7.96214 13.5439 8.07957 14.0629 8.07957C14.561 8.07957 14.9899 7.98203 15.3498 7.78695C15.7115 7.59188 15.9975 7.33714 16.2077 7.02275C16.418 6.70836 16.5449 6.37313 16.5884 6.01707L15.3441 6.01139C15.2854 6.32199 15.1424 6.56347 14.9151 6.73582C14.6879 6.90627 14.4104 6.9915 14.0827 6.9915C13.6415 6.9915 13.2835 6.83051 13.0089 6.50854C12.7362 6.18468 12.5998 5.71214 12.5998 5.09093C12.5998 4.48487 12.7352 4.01707 13.006 3.68752C13.2788 3.35608 13.6405 3.19036 14.0913 3.19036C14.4284 3.19036 14.7096 3.28222 14.935 3.46593C15.1604 3.64775 15.2968 3.8987 15.3441 4.21877ZM15.7071 18.7071L12.7071 21.7071C12.3166 22.0977 11.6834 22.0977 11.2929 21.7071L8.29289 18.7071C7.90237 18.3166 7.90237 17.6834 8.29289 17.2929C8.68342 16.9024 9.31658 16.9024 9.70711 17.2929L11 18.5858V13C11 12.4477 11.4477 12 12 12C12.5523 12 13 12.4477 13 13V18.5858L14.2929 17.2929C14.6834 16.9024 15.3166 16.9024 15.7071 17.2929C16.0976 17.6834 16.0976 18.3166 15.7071 18.7071Z" fill="#777B92"/>
</svg>
