<svg width="24" height="24" viewBox="0 0 24 24" fill="none" xmlns="http://www.w3.org/2000/svg">
<path fill-rule="evenodd" clip-rule="evenodd" d="M5 3C3.89543 3 3 3.89543 3 5V19C3 20.1046 3.89543 21 5 21H19C20.1046 21 21 20.1046 21 19V5C21 3.89543 20.1046 3 19 3H5ZM5 5H19V19H5V5ZM16.7682 9.64018C17.1218 9.21591 17.0645 8.58534 16.6402 8.23178C16.2159 7.87821 15.5853 7.93554 15.2318 8.35982L10.9328 13.5186L8.70711 11.2929C8.31658 10.9024 7.68342 10.9024 7.29289 11.2929C6.90237 11.6834 6.90237 12.3166 7.29289 12.7071L9.51859 14.9328C10.3502 15.7644 11.7163 15.7024 12.4692 14.799L16.7682 9.64018Z" fill="currentColor"/>
</svg>
