<svg width="24" height="24" viewBox="0 0 24 24" fill="none" xmlns="http://www.w3.org/2000/svg">
<path fill-rule="evenodd" clip-rule="evenodd" d="M20.7071 5.29289C20.3166 4.90237 19.6834 4.90237 19.2929 5.29289L17 7.58579L15.7071 6.29289C15.3166 5.90237 14.6834 5.90237 14.2929 6.29289C13.9024 6.68342 13.9024 7.31658 14.2929 7.70711L16.2929 9.70711C16.6834 10.0976 17.3166 10.0976 17.7071 9.70711L20.7071 6.70711C21.0976 6.31658 21.0976 5.68342 20.7071 5.29289ZM8.70711 8.70711C9.09763 8.31658 9.09763 7.68342 8.70711 7.29289C8.31658 6.90237 7.68342 6.90237 7.29289 7.29289L3.29289 11.2929C2.90237 11.6834 2.90237 12.3166 3.29289 12.7071L7.29289 16.7071C7.68342 17.0976 8.31658 17.0976 8.70711 16.7071C9.09763 16.3166 9.09763 15.6834 8.70711 15.2929L6.41421 13H15V18C15 18.5523 15.4477 19 16 19C16.5523 19 17 18.5523 17 18V13C17 11.8954 16.1046 11 15 11H6.41421L8.70711 8.70711Z" fill="currentColor"/>
</svg>
