<svg width="24" height="24" viewBox="0 0 24 24" fill="none" xmlns="http://www.w3.org/2000/svg">
<path fill-rule="evenodd" clip-rule="evenodd" d="M13.7308 1.99378C12.9605 0.663201 11.0395 0.663213 10.2691 1.99378L1.00358 17.9979C0.231653 19.3313 1.19378 21 2.73444 21H21.2655C22.8062 21 23.7683 19.3312 22.9964 17.9979L13.7308 1.99378ZM13 9.00022C13 8.44793 12.5523 8.00022 12 8.00022C11.4477 8.00022 11 8.44793 11 9.00022V13.0002C11 13.5525 11.4477 14.0002 12 14.0002C12.5523 14.0002 13 13.5525 13 13.0002V9.00022ZM12 17.0002C12.5523 17.0002 13 16.5525 13 16.0002C13 15.4479 12.5523 15.0002 12 15.0002C11.4477 15.0002 11 15.4479 11 16.0002C11 16.5525 11.4477 17.0002 12 17.0002Z" fill="#6E778C"/>
</svg>
