<svg width="24" height="24" viewBox="0 0 24 24" fill="none" xmlns="http://www.w3.org/2000/svg">
<path fill-rule="evenodd" clip-rule="evenodd" d="M2 8C2 6.34315 3.34315 5 5 5H12C13.6569 5 15 6.34315 15 8V11C15 11.3506 14.9398 11.6872 14.8293 12H16V7C16 6.44772 16.4477 6 17 6H19C19.2652 6 19.5196 6.10536 19.7071 6.29289L21.7071 8.29289C21.8946 8.48043 22 8.73478 22 9V13C22 13.5523 21.5523 14 21 14H17H12H10H5C3.34315 14 2 12.6569 2 11V8ZM10 12H12C12.5523 12 13 11.5523 13 11V8C13 7.44772 12.5523 7 12 7H5C4.44772 7 4 7.44772 4 8V11C4 11.5523 4.44772 12 5 12H10ZM4.5 17C4.22386 17 4 17.2239 4 17.5C4 17.7761 4.22386 18 4.5 18C4.77614 18 5 17.7761 5 17.5C5 17.2239 4.77614 17 4.5 17ZM2 17.5C2 16.1193 3.11929 15 4.5 15C5.88071 15 7 16.1193 7 17.5C7 18.8807 5.88071 20 4.5 20C3.11929 20 2 18.8807 2 17.5ZM7 17.5C7 16.1193 8.11929 15 9.5 15C10.8807 15 12 16.1193 12 17.5C12 18.8807 10.8807 20 9.5 20C8.11929 20 7 18.8807 7 17.5ZM9.5 17C9.22386 17 9 17.2239 9 17.5C9 17.7761 9.22386 18 9.5 18C9.77614 18 10 17.7761 10 17.5C10 17.2239 9.77614 17 9.5 17ZM18 17.5C18 17.2239 18.2239 17 18.5 17C18.7761 17 19 17.2239 19 17.5C19 17.7761 18.7761 18 18.5 18C18.2239 18 18 17.7761 18 17.5ZM18.5 15C17.1193 15 16 16.1193 16 17.5C16 18.8807 17.1193 20 18.5 20C19.8807 20 21 18.8807 21 17.5C21 16.1193 19.8807 15 18.5 15ZM20 12H18V8H18.5858L20 9.41421V12Z" fill="currentColor"/>
</svg>
