<svg width="24" height="24" viewBox="0 0 24 24" fill="none" xmlns="http://www.w3.org/2000/svg">
<path fill-rule="evenodd" clip-rule="evenodd" d="M4.06168 11H11.9999H19.9381C19.4466 7.05414 16.0793 4 11.9999 4C7.92052 4 4.55314 7.05414 4.06168 11ZM19.9999 13H12.9999V19C12.9999 19.5523 13.4476 20 13.9999 20C14.5522 20 14.9999 19.5523 14.9999 19C14.9999 18.4477 15.4476 18 15.9999 18C16.5522 18 16.9999 18.4477 16.9999 19C16.9999 20.6569 15.6567 22 13.9999 22C12.343 22 10.9999 20.6569 10.9999 19V13H3.99989C2.92855 13 1.92662 12.1066 2.06068 10.8919C2.6127 5.89004 6.85133 2 11.9999 2C17.1485 2 21.3871 5.89004 21.9391 10.8919C22.0732 12.1066 21.0712 13 19.9999 13Z" fill="currentColor"/>
</svg>
