<svg width="24" height="24" viewBox="0 0 24 24" fill="none" xmlns="http://www.w3.org/2000/svg">
<path fill-rule="evenodd" clip-rule="evenodd" d="M3 3C1.89543 3 1 3.89543 1 5V19C1 20.1046 1.89543 21 3 21H4H14H21C22.1046 21 23 20.1046 23 19V5C23 3.89543 22.1046 3 21 3H3ZM14.917 19H21V5H3V19H3.08296C3.55904 16.1623 6.027 14 9 14C11.973 14 14.441 16.1623 14.917 19ZM5.12602 19C5.57006 17.2748 7.13616 16 9 16C10.8638 16 12.4299 17.2748 12.874 19H5.12602ZM9 9C8.44772 9 8 9.44772 8 10C8 10.5523 8.44772 11 9 11C9.55228 11 10 10.5523 10 10C10 9.44772 9.55228 9 9 9ZM6 10C6 8.34315 7.34315 7 9 7C10.6569 7 12 8.34315 12 10C12 11.6569 10.6569 13 9 13C7.34315 13 6 11.6569 6 10ZM14 10C14 9.44772 14.4477 9 15 9H18C18.5523 9 19 9.44772 19 10C19 10.5523 18.5523 11 18 11H15C14.4477 11 14 10.5523 14 10ZM16 13C15.4477 13 15 13.4477 15 14C15 14.5523 15.4477 15 16 15H18C18.5523 15 19 14.5523 19 14C19 13.4477 18.5523 13 18 13H16Z" fill="#6E778C"/>
</svg>
