<svg width="24" height="24" viewBox="0 0 24 24" fill="none" xmlns="http://www.w3.org/2000/svg">
<path fill-rule="evenodd" clip-rule="evenodd" d="M9 5C7.89543 5 7 5.89543 7 7C7 8.10457 7.89543 9 9 9C10.1046 9 11 8.10457 11 7C11 5.89543 10.1046 5 9 5ZM5 7C5 4.79086 6.79086 3 9 3C11.2091 3 13 4.79086 13 7C13 9.20914 11.2091 11 9 11C6.79086 11 5 9.20914 5 7ZM9 15C6.23858 15 4 17.2386 4 20C4 20.5523 3.55228 21 3 21C2.44772 21 2 20.5523 2 20C2 16.134 5.13401 13 9 13C12.866 13 16 16.134 16 20C16 20.5523 15.5523 21 15 21C14.4477 21 14 20.5523 14 20C14 17.2386 11.7614 15 9 15ZM19.9444 3.3715C19.3545 3.05544 18.6455 3.05544 18.0556 3.3715L17.0556 3.90721C16.4328 4.24083 15.9361 4.9488 16.0472 5.79874C16.2614 7.43807 17.1525 8.60176 17.7504 9.21963C18.4406 9.93281 19.5594 9.93281 20.2496 9.21963C20.8475 8.60177 21.7386 7.43807 21.9528 5.79874C22.0639 4.9488 21.5672 4.24083 20.9444 3.90721L19.9444 3.3715ZM19 7.62298C18.613 7.17238 18.1839 6.50024 18.0458 5.64564L19 5.13446L19.9542 5.64564C19.8161 6.50024 19.387 7.17238 19 7.62298Z" fill="currentColor"/>
</svg>
