<svg width="24" height="24" viewBox="0 0 24 24" fill="none" xmlns="http://www.w3.org/2000/svg">
<path fill-rule="evenodd" clip-rule="evenodd" d="M10 5C8.89543 5 8 5.89543 8 7C8 8.10457 8.89543 9 10 9C11.1046 9 12 8.10457 12 7C12 5.89543 11.1046 5 10 5ZM6 7C6 4.79086 7.79086 3 10 3C12.2091 3 14 4.79086 14 7C14 9.20914 12.2091 11 10 11C7.79086 11 6 9.20914 6 7ZM10 15C7.23858 15 5 17.2386 5 20C5 20.5523 4.55228 21 4 21C3.44772 21 3 20.5523 3 20C3 16.134 6.13401 13 10 13C13.866 13 17 16.134 17 20C17 20.5523 16.5523 21 16 21C15.4477 21 15 20.5523 15 20C15 17.2386 12.7614 15 10 15ZM17 6C16.4477 6 16 6.44772 16 7C16 7.55228 16.4477 8 17 8H21C21.5523 8 22 7.55228 22 7C22 6.44772 21.5523 6 21 6H17Z" fill="#6E778C"/>
</svg>
