<svg width="24" height="24" viewBox="0 0 24 24" fill="none" xmlns="http://www.w3.org/2000/svg">
<path fill-rule="evenodd" clip-rule="evenodd" d="M6 7C6 5.89543 6.89543 5 8 5C9.10457 5 10 5.89543 10 7C10 8.10457 9.10457 9 8 9C6.89543 9 6 8.10457 6 7ZM8 3C5.79086 3 4 4.79086 4 7C4 9.20914 5.79086 11 8 11C10.2091 11 12 9.20914 12 7C12 4.79086 10.2091 3 8 3ZM14 10C14 9.44772 14.4477 9 15 9C15.5523 9 16 9.44772 16 10C16 10.5523 15.5523 11 15 11C14.4477 11 14 10.5523 14 10ZM15 7C13.3431 7 12 8.34315 12 10C12 11.6569 13.3431 13 15 13C16.6569 13 18 11.6569 18 10C18 8.34315 16.6569 7 15 7ZM8 15C5.23858 15 3 17.2386 3 20C3 20.5523 2.55228 21 2 21C1.44772 21 1 20.5523 1 20C1 16.134 4.13401 13 8 13C9.54604 13 10.975 13.5012 12.1333 14.35C13.7105 13.7463 15.2041 13.9179 16.4054 14.5538C17.7138 15.2464 18.65 16.4768 18.9701 17.7577C19.1041 18.2935 18.7783 18.8364 18.2425 18.9703C17.7067 19.1043 17.1638 18.7785 17.0299 18.2427C16.85 17.5234 16.2862 16.7537 15.4696 16.3214C14.9867 16.0657 14.4045 15.9223 13.7423 15.9957C14.535 17.1303 15 18.5109 15 20C15 20.5523 14.5523 21 14 21C13.4477 21 13 20.5523 13 20C13 17.2386 10.7614 15 8 15ZM17 6C17 5.44772 17.4477 5 18 5H19V4C19 3.44772 19.4477 3 20 3C20.5523 3 21 3.44772 21 4V5H22C22.5523 5 23 5.44772 23 6C23 6.55228 22.5523 7 22 7H21V8C21 8.55228 20.5523 9 20 9C19.4477 9 19 8.55228 19 8V7H18C17.4477 7 17 6.55228 17 6Z" fill="#6E778C"/>
</svg>
