<svg width="24" height="24" viewBox="0 0 24 24" fill="none" xmlns="http://www.w3.org/2000/svg">
<path fill-rule="evenodd" clip-rule="evenodd" d="M12 4C7.58172 4 4 7.58172 4 12C4 13.8628 4.63669 15.5769 5.70434 16.9366C6.84005 14.6069 9.23126 13 11.9999 13C14.7686 13 17.1599 14.607 18.2955 16.9368C19.3633 15.5771 20 13.8629 20 12C20 7.58172 16.4183 4 12 4ZM16.7569 18.4327C16.7415 18.4007 16.7278 18.3675 16.7156 18.3332C16.0288 16.3899 14.1754 15 11.9999 15C9.82443 15 7.97102 16.3899 7.28415 18.3332C7.27205 18.3675 7.25828 18.4006 7.24297 18.4326C8.57259 19.4175 10.2183 20 12 20C13.7817 20 15.4273 19.4176 16.7569 18.4327ZM2 12C2 6.47715 6.47715 2 12 2C17.5228 2 22 6.47715 22 12C22 17.5228 17.5228 22 12 22C6.47715 22 2 17.5228 2 12ZM12 8C11.4477 8 11 8.44772 11 9C11 9.55228 11.4477 10 12 10C12.5523 10 13 9.55228 13 9C13 8.44772 12.5523 8 12 8ZM9 9C9 7.34315 10.3431 6 12 6C13.6569 6 15 7.34315 15 9C15 10.6569 13.6569 12 12 12C10.3431 12 9 10.6569 9 9Z" fill="#6E778C"/>
</svg>
