<svg width="24" height="24" viewBox="0 0 24 24" fill="none" xmlns="http://www.w3.org/2000/svg">
<path fill-rule="evenodd" clip-rule="evenodd" d="M17 5.94316C17 4.31642 15.1613 3.37017 13.8375 4.3157L8.67953 7.99997H5C3.89543 7.99997 3 8.8954 3 9.99997V15C3 16.1045 3.89543 17 5 17H8.73444L14.0077 20.0133C15.341 20.7752 17 19.8124 17 18.2768V5.94316ZM9.84201 9.62744L15 5.94316V18.2768L9.72671 15.2635C9.42452 15.0908 9.08249 15 8.73444 15H5V9.99997H8.67953C9.09638 9.99997 9.50281 9.86973 9.84201 9.62744ZM20.7071 8.29287C20.3166 7.90234 19.6834 7.90234 19.2929 8.29287C18.9057 8.68004 18.9024 9.3057 19.2829 9.69698L19.2904 9.70535C19.3022 9.71888 19.3253 9.74627 19.3563 9.78747C19.4182 9.87001 19.5103 10.0067 19.6056 10.1972C19.7944 10.5749 20 11.1727 20 12C20 12.8272 19.7944 13.425 19.6056 13.8028C19.5103 13.9933 19.4182 14.1299 19.3563 14.2125C19.3253 14.2537 19.3022 14.2811 19.2904 14.2946L19.2829 14.303C18.9024 14.6942 18.9057 15.3199 19.2929 15.7071C19.6834 16.0976 20.3166 16.0976 20.7071 15.7071L20 15C20.7071 15.7071 20.7075 15.7067 20.7078 15.7064L20.7085 15.7056L20.7101 15.7041L20.7134 15.7008L20.7211 15.6928L20.7408 15.6722C20.7557 15.6563 20.7741 15.6361 20.7955 15.6116C20.8384 15.5626 20.8934 15.4963 20.9562 15.4125C21.0818 15.245 21.2397 15.0067 21.3944 14.6972C21.7056 14.0749 22 13.1727 22 12C22 10.8272 21.7056 9.92505 21.3944 9.30276C21.2397 8.99325 21.0818 8.75493 20.9562 8.58747C20.8934 8.50367 20.8384 8.43732 20.7955 8.38834C20.7741 8.36384 20.7557 8.34365 20.7408 8.32775L20.7211 8.30711L20.7134 8.29919L20.7101 8.29583L20.7085 8.2943L20.7078 8.29357C20.7075 8.29322 20.7071 8.29287 20 8.99997L20.7071 8.29287Z" fill="#6E778C"/>
</svg>
