<svg width="24" height="24" viewBox="0 0 24 24" fill="none" xmlns="http://www.w3.org/2000/svg">
<path fill-rule="evenodd" clip-rule="evenodd" d="M15 5.94319C15 4.31644 13.1613 3.3702 11.8375 4.31572L6.67953 8H3C1.89543 8 1 8.89543 1 10V15C1 16.1046 1.89543 17 3 17H6.73444L12.0077 20.0133C13.341 20.7752 15 19.8125 15 18.2768V5.94319ZM7.84201 9.62747L13 5.94319V18.2768L7.72671 15.2635C7.42452 15.0908 7.08249 15 6.73444 15H3V10H6.67953C7.09638 10 7.50281 9.86975 7.84201 9.62747ZM18 11C17.4477 11 17 11.4477 17 12C17 12.5523 17.4477 13 18 13H22C22.5523 13 23 12.5523 23 12C23 11.4477 22.5523 11 22 11H18Z" fill="#6E778C"/>
</svg>
