<svg width="24" height="24" viewBox="0 0 24 24" fill="none" xmlns="http://www.w3.org/2000/svg">
<path fill-rule="evenodd" clip-rule="evenodd" d="M19.7063 5.70711C20.0969 5.31658 20.0969 4.68342 19.7063 4.29289C19.3158 3.90237 18.6826 3.90237 18.2921 4.29289L11.9996 10.5855L5.70698 4.29289C5.31646 3.90237 4.6833 3.90237 4.29277 4.29289C3.90225 4.68342 3.90225 5.31658 4.29277 5.70711L10.5853 11.9997L4.29277 18.2922C3.90225 18.6828 3.90225 19.3159 4.29277 19.7065C4.6833 20.097 5.31646 20.097 5.70698 19.7065L11.9996 13.4139L18.2921 19.7065C18.6826 20.097 19.3158 20.097 19.7063 19.7065C20.0969 19.3159 20.0969 18.6828 19.7063 18.2922L13.4138 11.9997L19.7063 5.70711Z" fill="currentColor"/>
</svg>
