<svg width="24" height="24" viewBox="0 0 24 24" fill="none" xmlns="http://www.w3.org/2000/svg">
<path fill-rule="evenodd" clip-rule="evenodd" d="M19.7065 5.70711C20.097 5.31658 20.097 4.68342 19.7065 4.29289C19.3159 3.90237 18.6828 3.90237 18.2922 4.29289L11.9997 10.5855L5.70711 4.29289C5.31658 3.90237 4.68342 3.90237 4.29289 4.29289C3.90237 4.68342 3.90237 5.31658 4.29289 5.70711L10.5855 11.9997L4.29289 18.2922C3.90237 18.6828 3.90237 19.3159 4.29289 19.7065C4.68342 20.097 5.31658 20.097 5.70711 19.7065L11.9997 13.4139L18.2922 19.7065C18.6828 20.097 19.3159 20.097 19.7065 19.7065C20.097 19.3159 20.097 18.6828 19.7065 18.2922L13.4139 11.9997L19.7065 5.70711Z" fill="#6E778C"/>
</svg>
