<svg width="24" height="24" viewBox="0 0 24 24" fill="none" xmlns="http://www.w3.org/2000/svg">
<path fill-rule="evenodd" clip-rule="evenodd" d="M13.189 2.65419C14.0533 3.34957 15.7318 4.81087 17.2022 6.75692C18.6623 8.68925 20 11.2088 20 14.0001C20 18.4058 16.5648 22.0001 12 22.0001C7.43521 22.0001 4 18.4058 4 14.0001C4 11.2088 5.33768 8.68925 6.79775 6.75692C8.26819 4.81087 9.94667 3.34957 10.8109 2.65419C11.5099 2.09183 12.4901 2.09183 13.189 2.65419ZM8.39345 7.96263C7.05016 9.74041 6 11.8356 6 14.0001C6 15.2623 6.3693 16.4305 7.01532 17.3944C7.00517 17.2643 7 17.1327 7 17C7 12.7684 9.57571 9.86914 10.7492 8.7621C11.4577 8.09362 12.5423 8.09362 13.2508 8.7621C14.4243 9.86914 17 12.7684 17 17C17 17.1327 16.9948 17.2643 16.9847 17.3944C17.6307 16.4305 18 15.2623 18 14.0001C18 11.8356 16.9498 9.74041 15.6065 7.96263C14.3088 6.24511 12.8143 4.92561 12 4.26471C11.1857 4.92561 9.69122 6.24511 8.39345 7.96263ZM9 17C9 18.6569 10.3431 20 12 20C13.6569 20 15 18.6569 15 17C15 13.7239 13.0655 11.3738 12 10.3336C10.9345 11.3738 9 13.7239 9 17Z" fill="#777B92"/>
</svg>
