<svg width="24" height="24" viewBox="0 0 24 24" fill="none" xmlns="http://www.w3.org/2000/svg">
<path fill-rule="evenodd" clip-rule="evenodd" d="M8 3H16C16.5523 3 17 3.44772 17 4V5.43504C19.4859 7.04935 21 9.85159 21 13V20C21 20.5523 20.5523 21 20 21H17C16.4477 21 16 20.5523 16 20V18H15V20C15 20.5523 14.5523 21 14 21H10C9.44772 21 9 20.5523 9 20V18H8V20C8 20.5523 7.55228 21 7 21H4C3.44772 21 3 20.5523 3 20V13C3 9.85159 4.51406 7.04935 7 5.43504V4C7 3.44772 7.44772 3 8 3ZM18 17V19H19V13C19 11.0256 18.2548 9.26172 17.0022 7.99999L17 8H7L6.99775 8C5.74523 9.26172 5 11.0256 5 13V19H6V17C6 16.4477 6.44772 16 7 16H10C10.5523 16 11 16.4477 11 17V19H13V17C13 16.4477 13.4477 16 14 16H17C17.5523 16 18 16.4477 18 17ZM15 6V5H9V6H15Z" fill="#777B92"/>
</svg>
