<svg width="24" height="24" viewBox="0 0 24 24" fill="none" xmlns="http://www.w3.org/2000/svg">
<path fill-rule="evenodd" clip-rule="evenodd" d="M13.1707 6H10.8293C10.4175 7.16519 9.30622 8 8 8C7.90729 8 7.81556 7.99579 7.72499 7.98756L6.29052 12.291C7.30148 12.7734 8 13.8052 8 15V20C8 21.1046 7.10457 22 6 22H4C2.89543 22 2 21.1046 2 20V15C2 13.603 2.95491 12.429 4.24762 12.0951L5.89888 7.14133C5.34413 6.59694 5 5.83866 5 5C5 3.34315 6.34315 2 8 2C9.30622 2 10.4175 2.83481 10.8293 4H13.1707C13.5825 2.83481 14.6938 2 16 2C17.6569 2 19 3.34315 19 5C19 6.30622 18.1652 7.41746 17 7.82929V11H18C19.1046 11 20 11.8954 20 13V14C20 14.5523 19.5523 15 19 15C18.4477 15 18 14.5523 18 14V13H14V14C14 14.5523 13.5523 15 13 15C12.4477 15 12 14.5523 12 14V13C12 11.8954 12.8954 11 14 11H15V7.82929C14.1476 7.52801 13.472 6.85241 13.1707 6ZM16 4C15.4477 4 15 4.44772 15 5C15 5.55228 15.4477 6 16 6C16.5523 6 17 5.55228 17 5C17 4.44772 16.5523 4 16 4ZM9 5C9 4.44772 8.55228 4 8 4C7.44772 4 7 4.44772 7 5C7 5.55228 7.44772 6 8 6C8.55228 6 9 5.55228 9 5ZM4 20H6V17.8293C5.68722 17.9398 5.35064 18 5 18C4.64936 18 4.31278 17.9398 4 17.8293V20ZM5 16C5.55228 16 6 15.5523 6 15C6 14.4555 5.56489 14.0127 5.02343 14.0003C5.00793 14.0006 4.99239 14.0006 4.97681 14.0003C4.43524 14.0126 4 14.4555 4 15C4 15.5523 4.44772 16 5 16Z" fill="#777B92"/>
<path fill-rule="evenodd" clip-rule="evenodd" d="M14 16H18C19.1046 16 20 16.8954 20 18V20H21C21.5523 20 22 20.4477 22 21C22 21.5523 21.5523 22 21 22H11C10.4477 22 10 21.5523 10 21C10 20.4477 10.4477 20 11 20H12V18C12 16.8954 12.8954 16 14 16ZM14 20H18V18H14V20Z" fill="#777B92"/>
</svg>
