<svg width="24" height="24" viewBox="0 0 24 24" fill="none" xmlns="http://www.w3.org/2000/svg">
<path fill-rule="evenodd" clip-rule="evenodd" d="M13 2C13 2.55228 12.5523 3 12 3C11.4477 3 11 2.55228 11 2C11 1.44772 11.4477 1 12 1C12.5523 1 13 1.44772 13 2Z" fill="#777B92"/>
<path fill-rule="evenodd" clip-rule="evenodd" d="M4 5H7C8.10457 5 9 5.89543 9 7V17C9 18.1046 8.10457 19 7 19H4C2.89543 19 2 18.1046 2 17V7C2 5.89543 2.89543 5 4 5ZM4 7V17H7V7H4Z" fill="#777B92"/>
<path fill-rule="evenodd" clip-rule="evenodd" d="M17 5H20C21.1046 5 22 5.89543 22 7V17C22 18.1046 21.1046 19 20 19H17C15.8954 19 15 18.1046 15 17V7C15 5.89543 15.8954 5 17 5ZM17 7V17H20V7H17Z" fill="#777B92"/>
<path fill-rule="evenodd" clip-rule="evenodd" d="M12 7C11.4477 7 11 6.55228 11 6C11 5.44772 11.4477 5 12 5C12.5523 5 13 5.44772 13 6C13 6.55228 12.5523 7 12 7Z" fill="#777B92"/>
<path fill-rule="evenodd" clip-rule="evenodd" d="M13 10C13 10.5523 12.5523 11 12 11C11.4477 11 11 10.5523 11 10C11 9.44772 11.4477 9 12 9C12.5523 9 13 9.44772 13 10Z" fill="#777B92"/>
<path fill-rule="evenodd" clip-rule="evenodd" d="M12 15C11.4477 15 11 14.5523 11 14C11 13.4477 11.4477 13 12 13C12.5523 13 13 13.4477 13 14C13 14.5523 12.5523 15 12 15Z" fill="#777B92"/>
<path fill-rule="evenodd" clip-rule="evenodd" d="M13 18C13 18.5523 12.5523 19 12 19C11.4477 19 11 18.5523 11 18C11 17.4477 11.4477 17 12 17C12.5523 17 13 17.4477 13 18Z" fill="#777B92"/>
<path fill-rule="evenodd" clip-rule="evenodd" d="M12 23C11.4477 23 11 22.5523 11 22C11 21.4477 11.4477 21 12 21C12.5523 21 13 21.4477 13 22C13 22.5523 12.5523 23 12 23Z" fill="#777B92"/>
</svg>
