<svg width="24" height="24" viewBox="0 0 24 24" fill="none" xmlns="http://www.w3.org/2000/svg">
<path fill-rule="evenodd" clip-rule="evenodd" d="M19 2C19 2.55228 18.5523 3 18 3C17.4477 3 17 2.55228 17 2C17 1.44772 17.4477 1 18 1C18.5523 1 19 1.44772 19 2Z" fill="#777B92"/>
<path fill-rule="evenodd" clip-rule="evenodd" d="M13 3C13 3.55228 12.5523 4 12 4C11.4477 4 11 3.55228 11 3C11 2.44772 11.4477 2 12 2C12.5523 2 13 2.44772 13 3Z" fill="#777B92"/>
<path fill-rule="evenodd" clip-rule="evenodd" d="M9 6C8.44772 6 8 5.55228 8 5C8 4.44772 8.44772 4 9 4C9.55229 4 10 4.44772 10 5C10 5.55228 9.55229 6 9 6Z" fill="#777B92"/>
<path fill-rule="evenodd" clip-rule="evenodd" d="M8.80843 7H13.1916C14.1347 7 14.9496 7.6588 15.1472 8.58094L17.7186 20.5809C17.9854 21.826 17.0363 23 15.763 23H6.237C4.96371 23 4.0146 21.826 4.2814 20.5809L6.85282 8.58094C7.05043 7.6588 7.86535 7 8.80843 7ZM8.80843 9L8.37986 11H13.6202L13.1916 9H8.80843ZM7.95153 12.9988L7.30843 16H14.6916L14.0485 12.9988C14.0324 12.9996 14.0163 13 14 13H8C7.98375 13 7.96759 12.9996 7.95153 12.9988ZM6.237 21H15.763L15.1187 17.993C15.0798 17.9976 15.0402 18 15 18H7C6.95985 18 6.92026 17.9976 6.88135 17.993L6.237 21Z" fill="#777B92"/>
<path fill-rule="evenodd" clip-rule="evenodd" d="M15 6C14.4477 6 14 5.55228 14 5C14 4.44772 14.4477 4 15 4C15.5523 4 16 4.44772 16 5C16 5.55228 15.5523 6 15 6Z" fill="#777B92"/>
<path fill-rule="evenodd" clip-rule="evenodd" d="M19 7C18.4477 7 18 6.55228 18 6C18 5.44772 18.4477 5 19 5C19.5523 5 20 5.44772 20 6C20 6.55228 19.5523 7 19 7Z" fill="#777B92"/>
</svg>
