<svg width="24" height="24" viewBox="0 0 24 24" fill="none" xmlns="http://www.w3.org/2000/svg">
<path fill-rule="evenodd" clip-rule="evenodd" d="M12 5C11.4477 5 11 4.55228 11 4C11 3.44772 11.4477 3 12 3C12.5523 3 13 3.44772 13 4C13 4.55228 12.5523 5 12 5Z" fill="#777B92"/>
<path fill-rule="evenodd" clip-rule="evenodd" d="M3 8C3 7.44772 3.44772 7 4 7L20 7C20.5523 7 21 7.44772 21 8C21 8.55229 20.5523 9 20 9L4 9C3.44772 9 3 8.55228 3 8Z" fill="#777B92"/>
<path fill-rule="evenodd" clip-rule="evenodd" d="M3 16C3 15.4477 3.44772 15 4 15L20 15C20.5523 15 21 15.4477 21 16C21 16.5523 20.5523 17 20 17L4 17C3.44772 17 3 16.5523 3 16Z" fill="#777B92"/>
<path fill-rule="evenodd" clip-rule="evenodd" d="M13 12C13 12.5523 12.5523 13 12 13C11.4477 13 11 12.5523 11 12C11 11.4477 11.4477 11 12 11C12.5523 11 13 11.4477 13 12Z" fill="#777B92"/>
<path fill-rule="evenodd" clip-rule="evenodd" d="M12 21C11.4477 21 11 20.5523 11 20C11 19.4477 11.4477 19 12 19C12.5523 19 13 19.4477 13 20C13 20.5523 12.5523 21 12 21Z" fill="#777B92"/>
<path fill-rule="evenodd" clip-rule="evenodd" d="M17 12C17 12.5523 16.5523 13 16 13C15.4477 13 15 12.5523 15 12C15 11.4477 15.4477 11 16 11C16.5523 11 17 11.4477 17 12Z" fill="#777B92"/>
<path fill-rule="evenodd" clip-rule="evenodd" d="M16 21C15.4477 21 15 20.5523 15 20C15 19.4477 15.4477 19 16 19C16.5523 19 17 19.4477 17 20C17 20.5523 16.5523 21 16 21Z" fill="#777B92"/>
<path fill-rule="evenodd" clip-rule="evenodd" d="M21 12C21 12.5523 20.5523 13 20 13C19.4477 13 19 12.5523 19 12C19 11.4477 19.4477 11 20 11C20.5523 11 21 11.4477 21 12Z" fill="#777B92"/>
<path fill-rule="evenodd" clip-rule="evenodd" d="M8 13C7.44772 13 7 12.5523 7 12C7 11.4477 7.44772 11 8 11C8.55228 11 9 11.4477 9 12C9 12.5523 8.55228 13 8 13Z" fill="#777B92"/>
<path fill-rule="evenodd" clip-rule="evenodd" d="M9 20C9 20.5523 8.55228 21 8 21C7.44772 21 7 20.5523 7 20C7 19.4477 7.44772 19 8 19C8.55228 19 9 19.4477 9 20Z" fill="#777B92"/>
<path fill-rule="evenodd" clip-rule="evenodd" d="M4 13C3.44772 13 3 12.5523 3 12C3 11.4477 3.44772 11 4 11C4.55228 11 5 11.4477 5 12C5 12.5523 4.55228 13 4 13Z" fill="#777B92"/>
</svg>
