<svg width="24" height="24" viewBox="0 0 24 24" fill="none" xmlns="http://www.w3.org/2000/svg">
<path fill-rule="evenodd" clip-rule="evenodd" d="M5 4C5 3.44772 5.44772 3 6 3H18C18.5523 3 19 3.44772 19 4C19 4.55228 18.5523 5 18 5H6C5.44772 5 5 4.55228 5 4ZM13 8C13 7.44772 13.4477 7 14 7L20 7C20.5523 7 21 7.44772 21 8C21 8.55229 20.5523 9 20 9L14 9C13.4477 9 13 8.55228 13 8ZM10 11C9.44772 11 9 11.4477 9 12C9 12.5523 9.44772 13 10 13H14C14.5523 13 15 12.5523 15 12C15 11.4477 14.5523 11 14 11H10ZM5 16C5 15.4477 5.44772 15 6 15L14 15C14.5523 15 15 15.4477 15 16C15 16.5523 14.5523 17 14 17L6 17C5.44772 17 5 16.5523 5 16ZM4 19C3.44772 19 3 19.4477 3 20C3 20.5523 3.44772 21 4 21L20 21C20.5523 21 21 20.5523 21 20C21 19.4477 20.5523 19 20 19L4 19Z" fill="currentColor"/>
</svg>
