<svg width="24" height="24" viewBox="0 0 24 24" fill="none" xmlns="http://www.w3.org/2000/svg">
<path fill-rule="evenodd" clip-rule="evenodd" d="M1 8.97318C0.999889 5.41169 3.73192 3 6.99993 3C9.30366 3 10.9934 4.16993 11.9999 5.28401C13.0065 4.16998 14.6961 3 16.9999 3C20.2679 3 22.9999 5.41169 22.9998 8.97318C22.9997 12.4217 20.9848 14.9333 18.7613 16.768C17.6441 17.6897 16.4406 18.4695 15.3482 19.1348C14.9342 19.387 14.5456 19.6174 14.1834 19.8321C13.5606 20.2014 13.0159 20.5243 12.5545 20.8319C12.2186 21.0558 11.781 21.0558 11.4451 20.8319C10.9836 20.5242 10.4388 20.2012 9.81589 19.8318C9.45385 19.6172 9.06542 19.3869 8.65162 19.1348C7.55924 18.4695 6.35572 17.6897 5.2386 16.768C3.0151 14.9333 1.0001 12.4217 1 8.97318ZM6.99993 5C4.76301 5 2.99993 6.58831 3 8.97312C3.00007 11.5514 4.48507 13.5533 6.51148 15.2253C7.51932 16.0569 8.62823 16.7788 9.69201 17.4267C10.051 17.6454 10.4138 17.8607 10.7668 18.0702C11.2012 18.328 11.6207 18.5769 11.9998 18.8124C12.3788 18.577 12.7982 18.3282 13.2325 18.0705C13.5856 17.8609 13.9486 17.6455 14.3078 17.4267C15.3716 16.7788 16.4805 16.0569 17.4884 15.2253C19.5148 13.5533 20.9997 11.5515 20.9998 8.97312C20.9999 6.58831 19.2368 5 16.9999 5C14.7455 5 13.2882 6.65966 12.8943 7.44728C12.7249 7.78605 12.3786 8.00003 11.9998 8C11.6211 7.99997 11.2748 7.78594 11.1054 7.44715C10.7118 6.65973 9.2544 5 6.99993 5Z" fill="currentColor"/>
</svg>
