<svg width="24" height="24" viewBox="0 0 24 24" fill="none" xmlns="http://www.w3.org/2000/svg">
<path fill-rule="evenodd" clip-rule="evenodd" d="M12 2C12.5523 2 13 2.44772 13 3V9.13148L14.4453 8.16795C14.9048 7.8616 15.5257 7.98577 15.8321 8.4453C16.1384 8.90483 16.0142 9.5257 15.5547 9.83205L12.5547 11.8321C12.2188 12.056 11.7812 12.056 11.4453 11.8321L8.4453 9.83205C7.98577 9.5257 7.8616 8.90483 8.16795 8.4453C8.4743 7.98577 9.09517 7.8616 9.5547 8.16795L11 9.13148V3C11 2.44772 11.4477 2 12 2ZM6.83205 8.4453C7.1384 8.90483 7.01423 9.5257 6.5547 9.83205L4.90099 10.9345L9.99228 13.8438C10.6154 14.1999 11 14.8626 11 15.5803V19.2768C11 20.8125 9.34104 21.7752 8.00772 21.0133L3.00772 18.1562C2.38457 17.8001 2 17.1374 2 16.4197V11C2 10.6656 2.1671 10.3534 2.4453 10.1679L5.4453 8.16795C5.90483 7.8616 6.5257 7.98577 6.83205 8.4453ZM4 12.7232L9 15.5803V19.2768L4 16.4197V12.7232ZM18.5547 8.16795C18.0952 7.8616 17.4743 7.98577 17.1679 8.4453C16.8616 8.90483 16.9858 9.5257 17.4453 9.83205L19.099 10.9345L14.0077 13.8438C13.3846 14.1999 13 14.8626 13 15.5803V19.2768C13 20.8125 14.659 21.7752 15.9923 21.0133L20.9923 18.1562C21.6154 17.8001 22 17.1374 22 16.4197V11C22 10.6656 21.8329 10.3534 21.5547 10.1679L18.5547 8.16795ZM15 15.5803L20 12.7232V16.4197L15 19.2768V15.5803Z" fill="currentColor"/>
</svg>
