<svg width="24" height="24" viewBox="0 0 24 24" fill="none" xmlns="http://www.w3.org/2000/svg">
<path fill-rule="evenodd" clip-rule="evenodd" d="M8.98557 6.87415C7.85076 8.10631 7 9.7506 7 11.5C7 15.2907 9.41115 17.9733 11.9618 17.9998L11.9796 17.9998C11.9864 17.9996 11.9932 17.9996 12 17.9996C12.0162 17.9996 12.0324 17.9996 12.0485 17.9997C14.5953 17.966 17 15.2856 17 11.5C17 9.7506 16.1492 8.10631 15.0144 6.87415C14.4517 6.26317 13.8421 5.77974 13.2806 5.45505C12.699 5.11869 12.2523 5 12 5C11.7477 5 11.301 5.11869 10.7194 5.45505C10.1579 5.77974 9.54828 6.26317 8.98557 6.87415ZM12.0557 19.9997C12.0371 19.9999 12.0186 20 12 20L11.9561 19.9998C10.9019 20.0053 10.0476 20.2066 9.0349 20.4453L8.91653 20.4731C7.83857 20.7268 6.6207 20.9997 4.99999 20.9997C4.00414 20.9997 3.20548 20.6592 2.60126 20.1221C2.01768 19.6034 1.6608 18.9432 1.43867 18.3508C1.21498 17.7543 1.10751 17.1721 1.0546 16.7488C1.02781 16.5345 1.01422 16.3544 1.00729 16.2251C1.00382 16.1603 1.002 16.1078 1.00104 16.0696C1.00057 16.0505 1.00031 16.035 1.00016 16.0233L1.00003 16.0086L1.00001 16.0034L1 16.0014V16.0005C1 16.0001 1 15.9997 2 15.9997C1 15.9997 1 15.9994 1 15.999V15.9981L1.00001 15.9956L1.00003 15.9876L1.00023 15.9604C1.00044 15.9374 1.00085 15.9046 1.00165 15.8629C1.00324 15.7793 1.00638 15.6595 1.01256 15.5086C1.0249 15.2072 1.04945 14.7805 1.09833 14.2714C1.19558 13.2584 1.39141 11.8941 1.79026 10.5314C2.18509 9.18246 2.80319 7.74917 3.79644 6.67313C4.81459 5.57012 6.21368 4.86394 8.02832 4.99887C8.57308 4.48462 9.1497 4.05245 9.71812 3.72372C10.449 3.30104 11.2523 3 12 3C12.7477 3 13.551 3.30104 14.2819 3.72372C14.8503 4.05247 15.427 4.48466 15.9718 4.99894C17.8657 4.86589 19.3252 5.50258 20.39 6.57696C21.4272 7.62358 22.0354 9.02756 22.4017 10.3594C22.7712 11.7028 22.9182 13.0611 22.9751 14.1011C23.0037 14.6242 23.0098 15.0736 23.0088 15.4088C23.0083 15.5765 23.006 15.7155 23.0038 15.8199L23.001 15.9477L23.0002 15.9866C23.0001 15.9917 23 15.995 23 15.9971C23 15.9992 23 15.9999 23 15.9997L23 16.0089C23.0001 16.2859 23.0003 17.4414 22.5535 18.5586C22.3229 19.1351 21.9538 19.7522 21.3573 20.2272C20.746 20.714 19.9599 20.9996 19 20.9996C17.3793 20.9996 16.1614 20.7266 15.0835 20.473L14.9651 20.4451C13.9561 20.2073 13.1044 20.0066 12.0557 19.9997ZM17.7397 7.18948C18.2298 7.3655 18.631 7.64336 18.9694 7.98482C19.6665 8.68818 20.1521 9.72163 20.4733 10.8897C21.0613 13.0279 21.0146 15.2738 21.0021 15.8745C21.0009 15.9315 21 15.9737 21 15.9996C21 16.2406 20.9944 17.0711 20.6965 17.8158C20.5521 18.1768 20.3587 18.4658 20.1115 18.6626C19.8791 18.8477 19.5401 18.9996 19 18.9996C17.7631 18.9996 16.8054 18.817 15.8658 18.6016C17.797 17.0433 19 14.3637 19 11.5C19 9.90166 18.4872 8.4314 17.7397 7.18948ZM5 11.5C5 14.3638 6.2031 17.0435 8.13433 18.6017C7.19466 18.8171 6.23692 18.9997 4.99999 18.9997C4.49585 18.9997 4.16951 18.8402 3.92999 18.6273C3.66982 18.3961 3.46419 18.0562 3.31133 17.6486C3.16002 17.2451 3.07999 16.8274 3.03915 16.5007C3.01906 16.34 3.00922 16.2075 3.00443 16.1181C3.00204 16.0735 3.00093 16.0401 3.00042 16.0197L3.00002 15.9991L3.00001 15.9977L2.99999 15.9967L3.00001 15.9966L3.00014 15.9788C3.00029 15.9622 3.00062 15.936 3.00128 15.901C3.00262 15.831 3.00534 15.7257 3.01088 15.5905C3.02197 15.3196 3.0443 14.9299 3.08917 14.4625C3.17942 13.5224 3.35859 12.293 3.70974 11.0932C4.06491 9.87973 4.57181 8.78179 5.26606 8.02968C5.54016 7.73273 5.84433 7.48736 6.18948 7.30896C5.48063 8.52528 5 9.95262 5 11.5ZM13 11C13 11.5523 12.5523 12 12 12C11.4477 12 11 11.5523 11 11C11 10.4477 11.4477 10 12 10C12.5523 10 13 10.4477 13 11ZM12 16C12.5523 16 13 15.5523 13 15C13 14.4477 12.5523 14 12 14C11.4477 14 11 14.4477 11 15C11 15.5523 11.4477 16 12 16ZM15 13C15 13.5523 14.5523 14 14 14C13.4477 14 13 13.5523 13 13C13 12.4477 13.4477 12 14 12C14.5523 12 15 12.4477 15 13ZM10 14C10.5523 14 11 13.5523 11 13C11 12.4477 10.5523 12 10 12C9.44771 12 9 12.4477 9 13C9 13.5523 9.44771 14 10 14Z" fill="currentColor"/>
</svg>
