<svg width="24" height="24" viewBox="0 0 24 24" fill="none" xmlns="http://www.w3.org/2000/svg">
<path fill-rule="evenodd" clip-rule="evenodd" d="M9.35292 2.93843C9.6362 3.22171 9.72307 3.6467 9.57369 4.01842C9.20396 4.93845 9 5.94404 9 6.99972C9 11.418 12.5817 14.9997 17 14.9997C18.0557 14.9997 19.0613 14.7958 19.9813 14.426C20.353 14.2767 20.778 14.3635 21.0613 14.6468C21.3446 14.9301 21.4314 15.3551 21.2821 15.7268C19.8051 19.402 16.2071 21.9997 12 21.9997C6.47715 21.9997 2 17.5226 2 11.9997C2 7.79261 4.59771 4.19462 8.27293 2.71766C8.64465 2.56828 9.06964 2.65515 9.35292 2.93843ZM7.08558 5.68644C5.20699 7.15096 4 9.43509 4 11.9997C4 16.418 7.58172 19.9997 12 19.9997C14.5646 19.9997 16.8488 18.7927 18.3133 16.9141C17.8833 16.9706 17.4449 16.9997 17 16.9997C11.4772 16.9997 7 12.5226 7 6.99972C7 6.55482 7.02911 6.11643 7.08558 5.68644Z" fill="currentColor"/>
</svg>
