<svg width="16" height="16" viewBox="0 0 16 16" fill="none" xmlns="http://www.w3.org/2000/svg">
<path fill-rule="evenodd" clip-rule="evenodd" d="M6 0.5C7.933 0.5 9.5 2.067 9.5 4V12C9.5 13.933 7.933 15.5 6 15.5C4.067 15.5 2.5 13.933 2.5 12V11C2.5 10.7239 2.72386 10.5 3 10.5C3.27614 10.5 3.5 10.7239 3.5 11V12C3.5 13.3807 4.61929 14.5 6 14.5C7.38071 14.5 8.5 13.3807 8.5 12V4C8.5 2.61929 7.38071 1.5 6 1.5C4.61929 1.5 3.5 2.61929 3.5 4V5C3.5 5.27614 3.27614 5.5 3 5.5C2.72386 5.5 2.5 5.27614 2.5 5V4C2.5 2.067 4.067 0.5 6 0.5Z" fill="#777B92"/>
<path fill-rule="evenodd" clip-rule="evenodd" d="M12.6464 5.64645C12.8417 5.45118 13.1583 5.45118 13.3536 5.64645L15.3536 7.64645C15.4473 7.74022 15.5 7.86739 15.5 8C15.5 8.13261 15.4473 8.25979 15.3536 8.35355L13.3536 10.3536C13.1583 10.5488 12.8417 10.5488 12.6464 10.3536C12.4512 10.1583 12.4512 9.84171 12.6464 9.64645L13.7929 8.5H11C10.7239 8.5 10.5 8.27614 10.5 8C10.5 7.72386 10.7239 7.5 11 7.5H13.7929L12.6464 6.35355C12.4512 6.15829 12.4512 5.84171 12.6464 5.64645Z" fill="#777B92"/>
<path fill-rule="evenodd" clip-rule="evenodd" d="M0.5 8C0.5 7.72386 0.723858 7.5 1 7.5H5C5.27614 7.5 5.5 7.72386 5.5 8C5.5 8.27614 5.27614 8.5 5 8.5H1C0.723858 8.5 0.5 8.27614 0.5 8Z" fill="#777B92"/>
</svg>
