<svg width="16" height="16" viewBox="0 0 16 16" fill="none" xmlns="http://www.w3.org/2000/svg">
<path fill-rule="evenodd" clip-rule="evenodd" d="M1 0.5H7C7.27614 0.5 7.5 0.723858 7.5 1V7C7.5 7.27614 7.27614 7.5 7 7.5H1C0.723858 7.5 0.5 7.27614 0.5 7V1C0.5 0.723858 0.723858 0.5 1 0.5Z" fill="#777B92"/>
<path fill-rule="evenodd" clip-rule="evenodd" d="M1 8.5H7C7.27614 8.5 7.5 8.72386 7.5 9V15C7.5 15.2761 7.27614 15.5 7 15.5H1C0.723858 15.5 0.5 15.2761 0.5 15V9C0.5 8.72386 0.723858 8.5 1 8.5Z" fill="#777B92"/>
<path fill-rule="evenodd" clip-rule="evenodd" d="M8.5 15V9C8.5 8.72386 8.72386 8.5 9 8.5H15C15.2761 8.5 15.5 8.72386 15.5 9V15C15.5 15.2761 15.2761 15.5 15 15.5H9C8.72386 15.5 8.5 15.2761 8.5 15Z" fill="#777B92"/>
<path fill-rule="evenodd" clip-rule="evenodd" d="M12.3536 0.646447L15.3536 3.64645C15.5488 3.84171 15.5488 4.15829 15.3536 4.35355L12.3536 7.35355C12.1583 7.54882 11.8417 7.54882 11.6464 7.35355L8.64645 4.35355C8.45118 4.15829 8.45118 3.84171 8.64645 3.64645L11.6464 0.646447C11.8417 0.451184 12.1583 0.451184 12.3536 0.646447Z" fill="#777B92"/>
</svg>
