<svg width="16" height="16" viewBox="0 0 16 16" fill="none" xmlns="http://www.w3.org/2000/svg">
<path fill-rule="evenodd" clip-rule="evenodd" d="M2 0.5H6C6.82843 0.5 7.5 1.17157 7.5 2V6C7.5 6.82843 6.82843 7.5 6 7.5H2C1.17157 7.5 0.5 6.82843 0.5 6V2C0.5 1.17157 1.17157 0.5 2 0.5ZM1.5 2V6C1.5 6.27614 1.72386 6.5 2 6.5H6C6.27614 6.5 6.5 6.27614 6.5 6V2C6.5 1.72386 6.27614 1.5 6 1.5H2C1.72386 1.5 1.5 1.72386 1.5 2Z" fill="#777B92"/>
<path fill-rule="evenodd" clip-rule="evenodd" d="M10 8.5H14C14.8284 8.5 15.5 9.17157 15.5 10V14C15.5 14.8284 14.8284 15.5 14 15.5H10C9.17157 15.5 8.5 14.8284 8.5 14V10C8.5 9.17157 9.17157 8.5 10 8.5ZM9.5 10V14C9.5 14.2761 9.72386 14.5 10 14.5H14C14.2761 14.5 14.5 14.2761 14.5 14V10C14.5 9.72386 14.2761 9.5 14 9.5H10C9.72386 9.5 9.5 9.72386 9.5 10Z" fill="#777B92"/>
<path fill-rule="evenodd" clip-rule="evenodd" d="M11 6C11 6.55228 10.5523 7 10 7C9.44772 7 9 6.55228 9 6C9 5.44772 9.44772 5 10 5C10.5523 5 11 5.44772 11 6Z" fill="#777B92"/>
<path fill-rule="evenodd" clip-rule="evenodd" d="M6 11C5.44772 11 5 10.5523 5 10C5 9.44772 5.44772 9 6 9C6.55228 9 7 9.44772 7 10C7 10.5523 6.55228 11 6 11Z" fill="#777B92"/>
</svg>
