<svg width="16" height="16" viewBox="0 0 16 16" fill="none" xmlns="http://www.w3.org/2000/svg">
<path fill-rule="evenodd" clip-rule="evenodd" d="M9.5 2C9.5 2.65311 9.0826 3.20873 8.5 3.41465V5.55001C9.47956 5.74885 10.2512 6.52043 10.45 7.5H12.5854C12.7913 6.9174 13.3469 6.5 14 6.5C14.8284 6.5 15.5 7.17157 15.5 8C15.5 8.82843 14.8284 9.5 14 9.5C13.3469 9.5 12.7913 9.0826 12.5854 8.5H10.45C10.2512 9.47956 9.47956 10.2512 8.5 10.45V12.5854C9.0826 12.7913 9.5 13.3469 9.5 14C9.5 14.8284 8.82843 15.5 8 15.5C7.17157 15.5 6.5 14.8284 6.5 14C6.5 13.3469 6.9174 12.7913 7.5 12.5854V10.45C6.52043 10.2512 5.74885 9.47956 5.55001 8.5H3.41465C3.20873 9.0826 2.65311 9.5 2 9.5C1.17157 9.5 0.5 8.82843 0.5 8C0.5 7.17157 1.17157 6.5 2 6.5C2.65311 6.5 3.20873 6.9174 3.41465 7.5H5.55001C5.74885 6.52043 6.52043 5.74885 7.5 5.55001V3.41465C6.9174 3.20873 6.5 2.65311 6.5 2C6.5 1.17157 7.17157 0.5 8 0.5C8.82843 0.5 9.5 1.17157 9.5 2ZM8 1.5C7.72386 1.5 7.5 1.72386 7.5 2C7.5 2.27614 7.72386 2.5 8 2.5C8.27614 2.5 8.5 2.27614 8.5 2C8.5 1.72386 8.27614 1.5 8 1.5ZM2.5 8C2.5 7.72386 2.27614 7.5 2 7.5C1.72386 7.5 1.5 7.72386 1.5 8C1.5 8.27614 1.72386 8.5 2 8.5C2.27614 8.5 2.5 8.27614 2.5 8ZM6.5 8C6.5 8.82843 7.17157 9.5 8 9.5C8.82843 9.5 9.5 8.82843 9.5 8C9.5 7.17157 8.82843 6.5 8 6.5C7.17157 6.5 6.5 7.17157 6.5 8ZM14 8.5C14.2761 8.5 14.5 8.27614 14.5 8C14.5 7.72386 14.2761 7.5 14 7.5C13.7239 7.5 13.5 7.72386 13.5 8C13.5 8.27614 13.7239 8.5 14 8.5ZM8 13.5C7.72386 13.5 7.5 13.7239 7.5 14C7.5 14.2761 7.72386 14.5 8 14.5C8.27614 14.5 8.5 14.2761 8.5 14C8.5 13.7239 8.27614 13.5 8 13.5Z" fill="#777B92"/>
</svg>
