<svg width="16" height="16" viewBox="0 0 16 16" fill="none" xmlns="http://www.w3.org/2000/svg">
<path d="M8.67082 0.776279L13.6708 3.27628C14.179 3.53037 14.5 4.04976 14.5 4.61792V11.3819C14.5 11.95 14.179 12.4694 13.6708 12.7235L8.67082 15.2235C8.24853 15.4346 7.75147 15.4346 7.32918 15.2235L2.32918 12.7235C1.821 12.4694 1.5 11.95 1.5 11.3819V4.61792C1.5 4.04976 1.821 3.53037 2.32918 3.27628L7.32918 0.776279C7.75147 0.565133 8.24853 0.565134 8.67082 0.776279ZM7.77639 1.67071L2.87537 4.12122L8.00012 6.45065L13.1247 4.12127L8.22361 1.67071C8.08284 1.60032 7.91716 1.60032 7.77639 1.67071ZM2.5 5.04905V11.3819C2.5 11.5712 2.607 11.7444 2.77639 11.8291L7.50012 14.1909V7.32183L2.5 5.04905ZM8.50012 14.1908L13.2236 11.8291C13.393 11.7444 13.5 11.5712 13.5 11.3819V5.04916L8.50012 7.32183V14.1908Z" fill="#777B92"/>
</svg>
