<svg width="16" height="16" viewBox="0 0 16 16" fill="none" xmlns="http://www.w3.org/2000/svg">
<path fill-rule="evenodd" clip-rule="evenodd" d="M8.70696 1.7072L13.2927 6.29299C13.6833 6.68351 13.6833 7.31668 13.2927 7.7072L12.707 8.29299C12.3164 8.68351 11.6833 8.68351 11.2927 8.29299L6.70696 3.7072C6.31643 3.31668 6.31643 2.68351 6.70696 2.29299L7.29274 1.7072C7.68327 1.31668 8.31643 1.31668 8.70696 1.7072Z" fill="#777B92"/>
<path fill-rule="evenodd" clip-rule="evenodd" d="M2.35355 1.64645L14.3536 13.6464C14.5488 13.8417 14.5488 14.1583 14.3536 14.3536C14.1583 14.5488 13.8417 14.5488 13.6464 14.3536L1.64645 2.35355C1.45118 2.15829 1.45118 1.84171 1.64645 1.64645C1.84171 1.45118 2.15829 1.45118 2.35355 1.64645Z" fill="#777B92"/>
<path fill-rule="evenodd" clip-rule="evenodd" d="M8.79274 10.793C9.18327 11.1835 9.18327 11.8167 8.79274 12.2072L8.70696 12.293C8.31643 12.6835 7.68327 12.6835 7.29274 12.293L2.70696 7.7072C2.31643 7.31668 2.31643 6.68351 2.70696 6.29299L2.79274 6.2072C3.18327 5.81668 3.81643 5.81668 4.20696 6.2072L8.79274 10.793Z" fill="#777B92"/>
<path fill-rule="evenodd" clip-rule="evenodd" d="M2.35355 8.64645L7.64645 13.9393C7.84171 14.1346 8.15829 14.1346 8.35355 13.9393L9.64645 12.6464C9.84171 12.4512 10.1583 12.4512 10.3536 12.6464C10.5488 12.8417 10.5488 13.1583 10.3536 13.3536L9.06066 14.6464C8.47487 15.2322 7.52513 15.2322 6.93934 14.6464L1.64645 9.35355C1.45118 9.15829 1.45118 8.84171 1.64645 8.64645C1.84171 8.45118 2.15829 8.45118 2.35355 8.64645Z" fill="#777B92"/>
<path fill-rule="evenodd" clip-rule="evenodd" d="M14.3536 9.35355L13.3536 10.3536C13.1583 10.5488 12.8417 10.5488 12.6464 10.3536C12.4512 10.1583 12.4512 9.84171 12.6464 9.64645L13.6464 8.64645C13.8417 8.45118 14.1583 8.45118 14.3536 8.64645C14.5488 8.84171 14.5488 9.15829 14.3536 9.35355Z" fill="#777B92"/>
</svg>
