<svg width="16" height="16" viewBox="0 0 16 16" fill="none" xmlns="http://www.w3.org/2000/svg">
<path fill-rule="evenodd" clip-rule="evenodd" d="M8 0.5C8.18939 0.5 8.36252 0.607001 8.44721 0.776393L11.4472 6.77639C11.5247 6.93139 11.5164 7.11546 11.4253 7.26287C11.3342 7.41027 11.1733 7.5 11 7.5H5C4.82671 7.5 4.66578 7.41027 4.57468 7.26287C4.48357 7.11546 4.47529 6.93139 4.55279 6.77639L7.55279 0.776393C7.63748 0.607001 7.81061 0.5 8 0.5ZM5.80902 6.5H10.191L8 2.11803L5.80902 6.5Z" fill="#777B92"/>
<path fill-rule="evenodd" clip-rule="evenodd" d="M0.5 9C0.5 8.72386 0.723858 8.5 1 8.5H7C7.27614 8.5 7.5 8.72386 7.5 9V15C7.5 15.2761 7.27614 15.5 7 15.5H1C0.723858 15.5 0.5 15.2761 0.5 15V9ZM1.5 9.5V14.5H6.5V9.5H1.5Z" fill="#777B92"/>
<path fill-rule="evenodd" clip-rule="evenodd" d="M12 8.5C13.933 8.5 15.5 10.067 15.5 12C15.5 13.933 13.933 15.5 12 15.5C10.067 15.5 8.5 13.933 8.5 12C8.5 10.067 10.067 8.5 12 8.5ZM9.5 12C9.5 13.3807 10.6193 14.5 12 14.5C13.3807 14.5 14.5 13.3807 14.5 12C14.5 10.6193 13.3807 9.5 12 9.5C10.6193 9.5 9.5 10.6193 9.5 12Z" fill="#777B92"/>
</svg>
