<svg width="22" height="22" viewBox="0 0 22 22" fill="none" xmlns="http://www.w3.org/2000/svg">
<path d="M19.7189 18.9996C19.4905 19.0062 19.2667 18.9345 19.0847 18.7962C18.9028 18.658 18.7737 18.4616 18.7189 18.2398C18.2687 16.4564 17.2772 14.8561 15.8805 13.6587C14.4839 12.4612 12.7507 11.7254 10.9189 11.5521V12.6718C10.9188 13.0219 10.8153 13.3643 10.6214 13.6559C10.4275 13.9475 10.1518 14.1755 9.82895 14.3112C9.4788 14.4721 9.08962 14.5284 8.70819 14.4735C8.32677 14.4185 7.96936 14.2545 7.67895 14.0013L2.61895 9.59282C2.42491 9.42766 2.26908 9.22233 2.16221 8.99105C2.05535 8.75977 2 8.50805 2 8.25329C2 7.99852 2.05535 7.7468 2.16221 7.51552C2.26908 7.28424 2.42491 7.07892 2.61895 6.91375L7.67895 2.49527C7.97318 2.23767 8.33651 2.07197 8.72398 2.01867C9.11145 1.96536 9.50605 2.0268 9.85895 2.19538C10.1818 2.33111 10.4575 2.55907 10.6514 2.8507C10.8453 3.14232 10.9488 3.48465 10.9489 3.83481V5.00441C13.6652 5.21434 16.204 6.43439 18.0645 8.42379C19.925 10.4132 20.972 13.0274 20.9989 15.7507C20.9976 16.5899 20.8935 17.4259 20.6889 18.2398C20.6342 18.4616 20.5051 18.658 20.3232 18.7962C20.1412 18.9345 19.9174 19.0062 19.6889 18.9996H19.7189ZM9.94895 9.50285C11.6457 9.49025 13.3226 9.86772 14.8502 10.6061C16.3778 11.3445 17.7152 12.4241 18.7589 13.7614C18.258 11.8123 17.1179 10.0874 15.5208 8.86236C13.9237 7.63732 11.9619 6.9829 9.94895 7.00372C9.68373 7.00372 9.42938 6.8984 9.24184 6.71093C9.05431 6.52345 8.94895 6.26919 8.94895 6.00406V4.08473L4.12895 8.25329L8.94895 12.4618V10.4625C8.95928 10.2044 9.06919 9.96028 9.25562 9.78137C9.44204 9.60246 9.69052 9.50265 9.94895 9.50285Z" fill="#97A3BA"/>
</svg>
