<svg width="22" height="22" viewBox="0 0 22 22" fill="none" xmlns="http://www.w3.org/2000/svg">
<path d="M18 1H4C3.20435 1 2.44129 1.31607 1.87868 1.87868C1.31607 2.44129 1 3.20435 1 4V19C1.00031 19.1772 1.04769 19.3511 1.1373 19.504C1.22691 19.6569 1.35553 19.7832 1.51 19.87C1.65946 19.9547 1.82821 19.9995 2 20C2.17948 19.9999 2.35564 19.9516 2.51 19.86L7 17.14C7.16597 17.0412 7.35699 16.9926 7.55 17H18C18.7956 17 19.5587 16.6839 20.1213 16.1213C20.6839 15.5587 21 14.7956 21 14V4C21 3.20435 20.6839 2.44129 20.1213 1.87868C19.5587 1.31607 18.7956 1 18 1ZM19 14C19 14.2652 18.8946 14.5196 18.7071 14.7071C18.5196 14.8946 18.2652 15 18 15H7.55C7.00382 14.9996 6.46789 15.1482 6 15.43L3 17.23V4C3 3.73478 3.10536 3.48043 3.29289 3.29289C3.48043 3.10536 3.73478 3 4 3H18C18.2652 3 18.5196 3.10536 18.7071 3.29289C18.8946 3.48043 19 3.73478 19 4V14Z" fill="#97A3BA"/>
</svg>
