<svg width="24" height="24" viewBox="0 0 24 24" fill="none" xmlns="http://www.w3.org/2000/svg">
<path fill-rule="evenodd" clip-rule="evenodd" d="M16 12C15.4477 12 15 11.5523 15 11C15 10.4477 15.4477 10 16 10C16.5523 10 17 10.4477 17 11C17 11.5523 16.5523 12 16 12Z" fill="#777B92"/>
<path fill-rule="evenodd" clip-rule="evenodd" d="M13 11C13 11.5523 12.5523 12 12 12C11.4477 12 11 11.5523 11 11C11 10.4477 11.4477 10 12 10C12.5523 10 13 10.4477 13 11Z" fill="#777B92"/>
<path fill-rule="evenodd" clip-rule="evenodd" d="M8 12C7.44772 12 7 11.5523 7 11C7 10.4477 7.44772 10 8 10C8.55228 10 9 10.4477 9 11C9 11.5523 8.55228 12 8 12Z" fill="#777B92"/>
<path fill-rule="evenodd" clip-rule="evenodd" d="M4 3C2.89543 3 2 3.89543 2 5V21C2 21.3603 2.19379 21.6927 2.5073 21.8702C2.82081 22.0477 3.20556 22.0429 3.5145 21.8575L8.27698 19H20C21.1046 19 22 18.1046 22 17V5C22 3.89543 21.1046 3 20 3H4ZM4 5H20V17H8.27698C7.9145 17 7.55882 17.0985 7.24799 17.285L4 19.2338V5Z" fill="#777B92"/>
</svg>
