<svg width="22" height="22" viewBox="0 0 22 22" fill="none" xmlns="http://www.w3.org/2000/svg">
<path d="M12 13C12 13.5523 11.5523 14 11 14C10.4477 14 10 13.5523 10 13C10 12.4477 10.4477 12 11 12C11.5523 12 12 12.4477 12 13Z" fill="#97A3BA"/>
<path d="M10.1223 6.52051C10.2921 6.21034 10.6215 6 11.0001 6C11.5523 6 12.0001 6.44772 12.0001 7C12.0001 7.55228 11.5523 8 11.0001 8C10.4478 8 10.0001 8.44772 10.0001 9V10C10.0001 10.5523 10.4478 11 11.0001 11C11.5523 11 12.0001 10.5523 12.0001 10V9.82929C13.1652 9.41746 14.0001 8.30622 14.0001 7C14.0001 5.34315 12.6569 4 11.0001 4C9.68708 4 8.57111 4.84347 8.16442 6.01811C7.98374 6.54 8.44777 7 9.00005 7H9.50005C9.7762 7 9.98969 6.76274 10.1223 6.52051Z" fill="#97A3BA"/>
<path fill-rule="evenodd" clip-rule="evenodd" d="M1 19V4C1 3.20435 1.31607 2.44129 1.87868 1.87868C2.44129 1.31607 3.20435 1 4 1H18C18.7956 1 19.5587 1.31607 20.1213 1.87868C20.6839 2.44129 21 3.20435 21 4V14C21 14.7956 20.6839 15.5587 20.1213 16.1213C19.5587 16.6839 18.7956 17 18 17H7.55C7.35699 16.9926 7.16597 17.0412 7 17.14L2.51 19.86C2.35564 19.9516 2.17948 19.9999 2 20C1.82821 19.9995 1.65946 19.9547 1.51 19.87C1.35553 19.7832 1.22691 19.6569 1.1373 19.504C1.04769 19.3511 1.00031 19.1772 1 19ZM2.00128 18.999L2.61885 18.6249L2 18.9962L2 18.9983L2.00128 18.999ZM3 4C3 3.73478 3.10536 3.48043 3.29289 3.29289C3.48043 3.10536 3.73478 3 4 3H18C18.2652 3 18.5196 3.10536 18.7071 3.29289C18.8946 3.48043 19 3.73478 19 4V14C19 14.2652 18.8946 14.5196 18.7071 14.7071C18.5196 14.8946 18.2652 15 18 15H7.55C7.00382 14.9996 6.46789 15.1482 6 15.43L3 17.23V4Z" fill="#97A3BA"/>
</svg>
