<svg width="22" height="22" viewBox="0 0 22 22" fill="none" xmlns="http://www.w3.org/2000/svg">
<path d="M7 12C7.55228 12 8 11.5523 8 11C8 10.4477 7.55228 10 7 10C6.44772 10 6 10.4477 6 11C6 11.5523 6.44772 12 7 12Z" fill="#97A3BA"/>
<path d="M12 11C12 11.5523 11.5523 12 11 12C10.4477 12 10 11.5523 10 11C10 10.4477 10.4477 10 11 10C11.5523 10 12 10.4477 12 11Z" fill="#97A3BA"/>
<path d="M16 11C16 11.5523 15.5523 12 15 12C14.4477 12 14 11.5523 14 11C14 10.4477 14.4477 10 15 10C15.5523 10 16 10.4477 16 11Z" fill="#97A3BA"/>
<path fill-rule="evenodd" clip-rule="evenodd" d="M11.9182 1.04708C14.2242 1.27231 16.3794 2.29622 18.0124 3.94228L18.0621 3.96221C19.7057 5.5976 20.7281 7.75605 20.953 10.0654C21.1779 12.3748 20.5912 14.6904 19.2941 16.6131C17.9969 18.5357 16.0707 19.9448 13.8473 20.5975C11.624 21.2502 9.24296 21.1056 7.11468 20.1886C6.91377 20.1038 6.69423 20.0729 6.47774 20.0989L2.21819 20.9561H2.01915C1.88484 20.9595 1.75123 20.9357 1.62637 20.886C1.50151 20.8363 1.38799 20.7619 1.29264 20.6671C1.17633 20.55 1.09088 20.4058 1.04398 20.2475C0.997077 20.0892 0.990187 19.9217 1.02393 19.76L1.89972 15.544C1.9369 15.3272 1.90559 15.1042 1.81015 14.9061C0.894526 12.7746 0.750136 10.39 1.40188 8.16335C2.05362 5.9367 3.46065 4.00755 5.38039 2.70849C7.30014 1.40942 9.61229 0.821854 11.9182 1.04708ZM17.4884 15.5808C18.1822 14.5952 18.6438 13.4648 18.8384 12.2748C19.0431 11.0256 18.9479 9.74561 18.5607 8.54062C18.1734 7.33563 17.5053 6.24028 16.6115 5.34518C15.7178 4.45009 14.6241 3.78096 13.4209 3.39315C12.2177 3.00535 10.9396 2.91 9.6923 3.11501C8.50403 3.30988 7.37536 3.77214 6.39125 4.467C5.40714 5.16185 4.59321 6.0712 4.01073 7.12662C3.42825 8.18203 3.09238 9.35601 3.0284 10.5602C2.96442 11.7644 3.174 12.9675 3.64136 14.0788C3.89051 14.6454 3.96334 15.2741 3.85036 15.8829L3.28308 18.6936L6.0896 18.1254C6.2737 18.0936 6.4601 18.0769 6.64693 18.0756C7.0746 18.079 7.49739 18.1671 7.89095 18.3348C9.00065 18.8028 10.2019 19.0127 11.4043 18.9486C12.6067 18.8846 13.7789 18.5482 14.8328 17.9648C15.8866 17.3815 16.7946 16.5663 17.4884 15.5808Z" fill="#97A3BA"/>
</svg>
