<svg width="22" height="22" viewBox="0 0 22 22" fill="none" xmlns="http://www.w3.org/2000/svg">
<path d="M17.3909 15.9933L18.6902 17.2819C18.7801 17.3718 18.8501 17.4917 18.92 17.6115C18.97 17.7314 19 17.8613 19 17.9911C19 18.121 18.97 18.2508 18.92 18.3707C18.8701 18.5006 18.7901 18.6104 18.7002 18.7003C18.6002 18.7902 18.4903 18.8701 18.3703 18.9201C18.2504 18.97 18.1205 19 17.9906 19C17.8606 19 17.7307 18.97 17.6108 18.9201C17.4808 18.8701 17.3709 18.7902 17.281 18.7003L14.5825 15.9933L5.27762 6.70366L3.5286 5.00555L1.28984 2.71809C1.10994 2.5283 1 2.27858 1 2.00888C1 1.73918 1.09994 1.48946 1.28984 1.29967C1.38978 1.19978 1.49972 1.12986 1.61966 1.07991C1.73959 1.02997 1.86952 1 1.99944 1C2.12937 1 2.2593 1.02997 2.37923 1.07991C2.50916 1.12986 2.6191 1.20977 2.70905 1.29967L5.88729 4.47614L15.392 13.9956L17.3909 15.9933Z" fill="#97A3BA"/>
<path d="M20.6396 16.4231C20.5021 16.6774 20.3275 16.9124 20.12 17.12C20.1 17.14 20.0775 17.1575 20.055 17.175C20.0325 17.1925 20.01 17.21 19.99 17.23C19.91 17.11 19.82 16.99 19.72 16.89L18.6 15.78C18.64 15.76 18.68 15.74 18.71 15.71C18.7627 15.6544 18.8094 15.5936 18.8491 15.5286C18.945 15.3718 19 15.1909 19 15V5C19 4.73 18.9 4.47 18.71 4.29C18.52 4.11 18.27 4 18 4H6.82997L5.43997 2.6L4.83997 2H18C18.8 2 19.56 2.32 20.12 2.88C20.68 3.44 21 4.2 21 5V15C21 15.5035 20.8732 15.9911 20.6396 16.4231Z" fill="#97A3BA"/>
<path fill-rule="evenodd" clip-rule="evenodd" d="M7.55 18C7.36 17.99 7.17 18.04 7 18.14L2.51 20.86C2.36 20.95 2.18 21 2 21C1.83 21 1.66 20.95 1.51 20.87C1.36 20.78 1.23 20.65 1.14 20.5C1.05 20.35 1 20.18 1 20V5.00002C1 4.66002 1.07 4.33002 1.18 4.02002L3 5.88002V18.23L6 16.43C6.47 16.15 7 16 7.55 16H13.17L15.17 18H7.55ZM2.61894 19.6248L2.00573 19.9963L2.00369 19.994L2.61894 19.6248Z" fill="#97A3BA"/>
<path d="M15 11C15.55 11 16 10.55 16 10C16 9.45 15.55 9 15 9C14.45 9 14 9.45 14 10C14 10.55 14.45 11 15 11Z" fill="#97A3BA"/>
</svg>
