<svg width="22" height="22" viewBox="0 0 22 22" fill="none" xmlns="http://www.w3.org/2000/svg">
<path d="M11.9799 1.04571C9.61012 0.819144 7.2367 1.43983 5.2847 2.79662C3.3327 4.15341 1.92961 6.15767 1.3267 8.45049C0.723801 10.7433 0.960461 13.1749 1.9943 15.3098C3.02814 17.4448 4.79164 19.1436 6.96898 20.1021C8.22996 20.6697 9.59403 20.9753 10.9777 21C13.1805 21.0002 15.322 20.2778 17.071 18.9447C17.2821 18.7845 17.4207 18.5474 17.4564 18.2855C17.4921 18.0236 17.422 17.7584 17.2614 17.5479C17.1817 17.4424 17.0816 17.3538 16.9672 17.2871C16.8527 17.2203 16.7261 17.1769 16.5947 17.1593C16.4632 17.1416 16.3296 17.1502 16.2015 17.1843C16.0734 17.2185 15.9533 17.2776 15.8484 17.3583C14.809 18.14 13.5939 18.6577 12.3084 18.8667C11.0228 19.0758 9.70544 18.9698 8.47026 18.5581C7.23507 18.1463 6.11925 17.4412 5.21935 16.5036C4.31945 15.566 3.66256 14.4243 3.30552 13.1772C2.94847 11.9301 2.90203 10.6151 3.1702 9.34613C3.43838 8.07713 4.01309 6.89229 4.84463 5.89411C5.67616 4.89594 6.73947 4.1145 7.94256 3.6174C9.14564 3.1203 10.4523 2.92251 11.7494 3.04114C13.7625 3.2731 15.6177 4.24004 16.9561 5.75493C18.2945 7.26982 19.0211 9.22502 18.9952 11.2424V11.9208C18.9941 12.15 18.9465 12.3766 18.8555 12.5871C18.7644 12.7977 18.6316 12.9877 18.4651 13.146C18.2986 13.3044 18.1018 13.4276 17.8864 13.5085C17.671 13.5894 17.4414 13.6263 17.2113 13.6169C16.7525 13.5668 16.3299 13.3453 16.0286 12.9973C15.7273 12.6492 15.5698 12.2003 15.5878 11.7412V7.43108C15.5878 7.16647 15.4822 6.9127 15.2943 6.72559C15.1063 6.53848 14.8514 6.43337 14.5856 6.43337C14.3409 6.4313 14.1039 6.51843 13.9193 6.67833C13.7347 6.83822 13.6152 7.05984 13.5834 7.30138C12.6507 6.42696 11.417 5.9414 10.1359 5.94449C9.26517 5.95099 8.41061 6.17927 7.65359 6.6076C6.89656 7.03592 6.26227 7.65004 5.81112 8.39147C5.35996 9.13289 5.10695 9.97695 5.07618 10.8433C5.04541 11.7096 5.23791 12.5693 5.63534 13.3406C6.03278 14.1119 6.62192 14.7691 7.34666 15.2496C8.07141 15.7301 8.90764 16.0179 9.77572 16.0856C10.6438 16.1533 11.5149 15.9986 12.3059 15.6364C13.097 15.2741 13.7817 14.7163 14.295 14.016C14.5859 14.464 14.9733 14.8419 15.4293 15.1222C15.8852 15.4024 16.3981 15.5781 16.9307 15.6364C17.4634 15.6947 18.0024 15.6341 18.5085 15.4591C19.0147 15.2841 19.4754 14.999 19.8571 14.6246C20.2245 14.2767 20.5156 13.8569 20.7122 13.3916C20.9088 12.9263 21.0067 12.4255 20.9996 11.9208V11.2424C21.022 8.73507 20.1139 6.30781 18.4493 4.42607C16.7848 2.54434 14.4811 1.3406 11.9799 1.04571ZM10.1559 14.1058C9.54345 14.1058 8.94472 13.925 8.43546 13.5862C7.92621 13.2475 7.52929 12.766 7.2949 12.2026C7.06051 11.6393 6.99919 11.0194 7.11868 10.4214C7.23816 9.82337 7.5331 9.27404 7.96619 8.84289C8.39928 8.41173 8.95107 8.11811 9.55178 7.99915C10.1525 7.8802 10.7752 7.94125 11.341 8.17459C11.9069 8.40793 12.3905 8.80308 12.7308 9.31007C13.0711 9.81705 13.2527 10.4131 13.2527 11.0229C13.25 11.8397 12.9229 12.6223 12.3428 13.1999C11.7626 13.7775 10.9764 14.1032 10.1559 14.1058Z" fill="#97A3BA"/>
</svg>
