<svg width="24" height="24" viewBox="0 0 24 24" fill="none" xmlns="http://www.w3.org/2000/svg">
<path d="M4.44723 3.10561L20.4472 11.1056C20.786 11.275 21 11.6213 21 12C21 12.3788 20.786 12.7251 20.4472 12.8945L4.44722 20.8945C4.04655 21.0948 3.56152 21.0042 3.26014 20.6728C2.95877 20.3414 2.91459 19.8499 3.15201 19.47L7.82076 12L3.15201 4.53004C2.91459 4.15016 2.95877 3.65873 3.26014 3.32729C3.56152 2.99585 4.04655 2.90527 4.44723 3.10561ZM9.55423 11H15.7639L6.73168 6.48391L9.55423 11ZM9.55428 13L6.73167 17.5162L15.764 13H9.55428Z" fill="#777B92"/>
</svg>
