<svg width="24" height="24" viewBox="0 0 24 24" fill="none" xmlns="http://www.w3.org/2000/svg">
<path fill-rule="evenodd" clip-rule="evenodd" d="M12.4472 3.10558C12.786 3.27497 13 3.62123 13 4.00001V6.25623C13.9928 6.59899 15.7917 7.37766 17.5261 8.9413C19.8512 11.0375 22 14.4939 22 20C22 20.4835 21.6541 20.8977 21.1784 20.984C20.7027 21.0702 20.2334 20.8038 20.0637 20.3511C18.656 16.5973 16.601 15.0674 15.0036 14.4285C14.2213 14.1156 13.5165 14.0036 13 13.9713L13 16C13 16.3788 12.786 16.725 12.4472 16.8944C12.1084 17.0638 11.703 17.0273 11.4 16.8L3.4 10.8C3.14819 10.6112 3 10.3148 3 10C3 9.68525 3.14819 9.38886 3.4 9.20001L11.4 3.20001C11.703 2.97274 12.1084 2.93619 12.4472 3.10558ZM12 13C11.8356 12.0136 11.837 12.0134 11.837 12.0134L11.8385 12.0131L11.842 12.0126L11.8507 12.0112L11.8748 12.0076C11.8937 12.0049 11.9185 12.0015 11.9488 11.9979C12.0093 11.9906 12.0921 11.9821 12.1949 11.975C12.4002 11.9609 12.6866 11.9522 13.0356 11.9701C13.7326 12.0058 14.688 12.1482 15.7464 12.5715C16.8773 13.0239 18.0889 13.7823 19.2151 15.0161C18.4867 12.9416 17.3435 11.4695 16.1869 10.4267C14.2291 8.66172 12.1708 8.07525 11.8245 7.98649C11.2881 7.84899 11 7.37107 11 6.91979V6.00001L5.66667 10L11 14V13C11 12.5112 11.3534 12.094 11.8356 12.0136L12 13Z" fill="#777B92"/>
</svg>
