<svg width="22" height="22" viewBox="0 0 22 22" fill="none" xmlns="http://www.w3.org/2000/svg">
<path d="M12 12C12 12.5523 11.5523 13 11 13C10.4477 13 10 12.5523 10 12C10 11.4477 10.4477 11 11 11C11.5523 11 12 11.4477 12 12Z" fill="#97A3BA"/>
<path d="M11 5C10.4477 5 10 5.44772 10 6V9C10 9.55228 10.4477 10 11 10C11.5523 10 12 9.55228 12 9V6C12 5.44772 11.5523 5 11 5Z" fill="#97A3BA"/>
<path fill-rule="evenodd" clip-rule="evenodd" d="M1 19V4C1 3.20435 1.31607 2.44129 1.87868 1.87868C2.44129 1.31607 3.20435 1 4 1H18C18.7956 1 19.5587 1.31607 20.1213 1.87868C20.6839 2.44129 21 3.20435 21 4V14C21 14.7956 20.6839 15.5587 20.1213 16.1213C19.5587 16.6839 18.7956 17 18 17H7.55C7.35699 16.9926 7.16597 17.0412 7 17.14L2.51 19.86C2.35564 19.9516 2.17948 19.9999 2 20C1.82821 19.9995 1.65946 19.9547 1.51 19.87C1.35553 19.7832 1.22691 19.6569 1.1373 19.504C1.04769 19.3511 1.00031 19.1772 1 19ZM2.00128 18.999L2.61885 18.6249L2 18.9962L2 18.9983L2.00128 18.999ZM3 4C3 3.73478 3.10536 3.48043 3.29289 3.29289C3.48043 3.10536 3.73478 3 4 3H18C18.2652 3 18.5196 3.10536 18.7071 3.29289C18.8946 3.48043 19 3.73478 19 4V14C19 14.2652 18.8946 14.5196 18.7071 14.7071C18.5196 14.8946 18.2652 15 18 15H7.55C7.00382 14.9996 6.46789 15.1482 6 15.43L3 17.23V4Z" fill="#97A3BA"/>
</svg>
