<svg width="22" height="22" viewBox="0 0 22 22" fill="none" xmlns="http://www.w3.org/2000/svg">
<path d="M20.7157 11.2206C20.7735 11.1482 20.8235 11.0699 20.8649 10.987L20.9288 10.9233C20.9739 10.8105 20.998 10.6906 21 10.5693C20.9964 10.4528 20.9724 10.3379 20.9292 10.2296L20.8653 10.1659C20.8499 10.0509 20.8113 9.94017 20.7518 9.84041L20.7163 9.80504C20.6565 9.72402 20.5847 9.65247 20.5034 9.59281L3.46559 1.10735C3.27688 1.01237 3.06285 0.979238 2.85401 1.01267C2.64517 1.0461 2.45219 1.14438 2.30258 1.29352C2.15296 1.44265 2.05436 1.63501 2.02082 1.84318C1.98728 2.05134 2.02052 2.26469 2.1158 2.4528L6.15231 10.4985L2.10812 18.5481C2.01266 18.7363 1.97922 18.9496 2.01256 19.1578C2.0459 19.3659 2.14432 19.5582 2.29379 19.7072C2.44326 19.8561 2.63615 19.9543 2.84495 19.9875C3.05376 20.0207 3.26782 19.9874 3.45663 19.8922L20.5026 11.3906C20.581 11.3439 20.6527 11.2867 20.7157 11.2206ZM15.753 9.5172L7.84276 9.52095L5.21088 4.26328L15.753 9.5172ZM5.20491 16.7771L7.84181 11.5169L15.7521 11.5132L5.20491 16.7771Z" fill="#97A3BA"/>
</svg>
