<svg width="22" height="22" viewBox="0 0 22 22" fill="none" xmlns="http://www.w3.org/2000/svg">
<path d="M3.27995 18.9996C3.50839 19.0062 3.73221 18.9345 3.91416 18.7962C4.09611 18.658 4.2252 18.4616 4.27995 18.2398C4.73022 16.4564 5.72174 14.8561 7.11835 13.6587C8.51497 12.4612 10.2482 11.7254 12.08 11.5521V12.6718C12.0801 13.0219 12.1836 13.3643 12.3775 13.6559C12.5714 13.9475 12.8471 14.1755 13.17 14.3112C13.5201 14.4721 13.9093 14.5284 14.2907 14.4735C14.6721 14.4185 15.0295 14.2545 15.32 14.0013L20.38 9.59282C20.574 9.42766 20.7298 9.22233 20.8367 8.99105C20.9436 8.75977 20.9989 8.50805 20.9989 8.25329C20.9989 7.99852 20.9436 7.7468 20.8367 7.51552C20.7298 7.28424 20.574 7.07892 20.38 6.91375L15.32 2.49527C15.0257 2.23767 14.6624 2.07197 14.2749 2.01867C13.8875 1.96536 13.4929 2.0268 13.14 2.19538C12.8171 2.33111 12.5414 2.55907 12.3475 2.8507C12.1536 3.14232 12.0501 3.48465 12.05 3.83481V5.00441C9.33374 5.21434 6.79489 6.43439 4.93439 8.42379C3.07388 10.4132 2.02687 13.0274 1.99995 15.7507C2.00132 16.5899 2.10543 17.4259 2.30995 18.2398C2.3647 18.4616 2.4938 18.658 2.67575 18.7962C2.8577 18.9345 3.08152 19.0062 3.30995 18.9996H3.27995ZM13.05 9.50285C11.3532 9.49025 9.67626 9.86772 8.14867 10.6061C6.62108 11.3445 5.28374 12.4241 4.23995 13.7614C4.74088 11.8123 5.88101 10.0874 7.47809 8.86236C9.07517 7.63732 11.037 6.9829 13.05 7.00372C13.3152 7.00372 13.5695 6.8984 13.7571 6.71093C13.9446 6.52345 14.05 6.26919 14.05 6.00406V4.08473L18.87 8.25329L14.05 12.4618V10.4625C14.0396 10.2044 13.9297 9.96028 13.7433 9.78137C13.5569 9.60246 13.3084 9.50265 13.05 9.50285Z" fill="#97A3BA"/>
</svg>
