<svg width="24" height="24" viewBox="0 0 24 24" fill="none" xmlns="http://www.w3.org/2000/svg">
<path fill-rule="evenodd" clip-rule="evenodd" d="M9 12C9 12.5523 8.55228 13 8 13C7.44772 13 7 12.5523 7 12C7 11.4477 7.44772 11 8 11C8.55228 11 9 11.4477 9 12Z" fill="#777B92"/>
<path fill-rule="evenodd" clip-rule="evenodd" d="M12 13C11.4477 13 11 12.5523 11 12C11 11.4477 11.4477 11 12 11C12.5523 11 13 11.4477 13 12C13 12.5523 12.5523 13 12 13Z" fill="#777B92"/>
<path fill-rule="evenodd" clip-rule="evenodd" d="M16 13C15.4477 13 15 12.5523 15 12C15 11.4477 15.4477 11 16 11C16.5523 11 17 11.4477 17 12C17 12.5523 16.5523 13 16 13Z" fill="#777B92"/>
<path fill-rule="evenodd" clip-rule="evenodd" d="M12.0001 2C17.5229 2 22.0001 6.47715 22.0001 12C22.0001 17.5228 17.5229 22 12.0001 22C10.5376 22 9.146 21.6854 7.89133 21.1194C7.86857 21.1091 7.85571 21.1091 7.85368 21.1092L3.18393 21.9829C2.8596 22.0436 2.52622 21.9404 2.29291 21.7071C2.05959 21.4738 1.95639 21.1404 2.01707 20.8161L2.89083 16.1464C2.8909 16.1443 2.89095 16.1315 2.88069 16.1087C2.3146 14.854 2.00005 13.4624 2.00005 12C2.00005 6.47715 6.4772 2 12.0001 2ZM4.00005 12C4.00005 13.1732 4.25197 14.2849 4.70372 15.2862C4.86907 15.6527 4.93799 16.0798 4.85693 16.513L4.25154 19.7485L7.48703 19.1431C7.92022 19.0621 8.34738 19.131 8.71385 19.2963C9.71511 19.7481 10.8268 20 12.0001 20C16.4183 20 20.0001 16.4183 20.0001 12C20.0001 7.58172 16.4183 4 12.0001 4C7.58177 4 4.00005 7.58172 4.00005 12Z" fill="#777B92"/>
</svg>
