<svg width="22" height="22" viewBox="0 0 22 22" fill="none" xmlns="http://www.w3.org/2000/svg">
<path d="M19.79 10.34L16.45 3.66001C16.2006 3.16036 15.8166 2.74026 15.3414 2.44698C14.8661 2.15371 14.3185 1.99891 13.76 2.00001H8.24002C7.68157 1.99891 7.1339 2.15371 6.65865 2.44698C6.18341 2.74026 5.79946 3.16036 5.55002 3.66001L2.21002 10.34C2.07071 10.6195 1.99879 10.9277 2.00002 11.24V17C2.00002 17.7957 2.31609 18.5587 2.8787 19.1213C3.4413 19.6839 4.20437 20 5.00002 20H17C17.7957 20 18.5587 19.6839 19.1213 19.1213C19.6839 18.5587 20 17.7957 20 17V11.24C20.0012 10.9277 19.9293 10.6195 19.79 10.34ZM7.34002 4.55001C7.42388 4.38357 7.55258 4.24388 7.71161 4.1467C7.87063 4.04952 8.05365 3.99871 8.24002 4.00001H13.76C13.9464 3.99871 14.1294 4.04952 14.2884 4.1467C14.4474 4.24388 14.5762 4.38357 14.66 4.55001L17.38 10H15C14.7348 10 14.4804 10.1054 14.2929 10.2929C14.1054 10.4804 14 10.7348 14 11V14H8.00002V11C8.00002 10.7348 7.89466 10.4804 7.70712 10.2929C7.51959 10.1054 7.26523 10 7.00002 10H4.62002L7.34002 4.55001ZM17 18H5.00002C4.7348 18 4.48045 17.8946 4.29291 17.7071C4.10537 17.5196 4.00002 17.2652 4.00002 17V12H6.00002V15C6.00002 15.2652 6.10537 15.5196 6.29291 15.7071C6.48044 15.8946 6.7348 16 7.00002 16H15C15.2652 16 15.5196 15.8946 15.7071 15.7071C15.8947 15.5196 16 15.2652 16 15V12H18V17C18 17.2652 17.8947 17.5196 17.7071 17.7071C17.5196 17.8946 17.2652 18 17 18Z" fill="#97A3BA"/>
</svg>
