<svg width="22" height="22" viewBox="0 0 22 22" fill="none" xmlns="http://www.w3.org/2000/svg">
<path fill-rule="evenodd" clip-rule="evenodd" d="M11.5547 1.16795C11.2188 0.944017 10.7812 0.944017 10.4453 1.16795L1.45028 7.16464C1.17091 7.3484 1 7.6616 1 8V19C1 20.1046 1.89543 21 3 21H19C20.1046 21 21 20.1046 21 19V8C21 7.66273 20.8302 7.35049 20.5525 7.16648L11.5547 1.16795ZM18.1972 8L11 3.20185L3.80278 8L11 12.7982L18.1972 8ZM3 19V9.86852L10.4453 14.8321C10.7812 15.056 11.2188 15.056 11.5547 14.8321L19 9.86852V19H3Z" fill="#97A3BA"/>
</svg>
