<svg width="24" height="24" viewBox="0 0 24 24" fill="none" xmlns="http://www.w3.org/2000/svg">
<path fill-rule="evenodd" clip-rule="evenodd" d="M16.6228 4.21759C16.7153 4.2479 16.8061 4.28514 16.8944 4.32931L19.8944 5.82931C20.572 6.16809 21 6.86062 21 7.61816V17.3821C21 18.8689 19.4354 19.8359 18.1056 19.1709L16 18.1182L12.8944 19.6709C12.8059 19.7152 12.7149 19.7525 12.6223 19.7828C12.4515 19.9188 12.2352 20 12 20C11.7648 20 11.5485 19.9188 11.3777 19.7828C11.2851 19.7525 11.1941 19.7152 11.1056 19.6709L8 18.1182L5.89443 19.171C4.56462 19.8359 3 18.8689 3 17.3821V7.61816C3 6.86062 3.428 6.16809 4.10557 5.82931L7.10557 4.32931C7.19391 4.28514 7.2847 4.2479 7.37717 4.21759C7.54803 4.0814 7.76451 4 8 4C8.23549 4 8.45197 4.0814 8.62283 4.21759C8.7153 4.2479 8.80609 4.28514 8.89443 4.32931L12 5.8821L15.1056 4.32931C15.1939 4.28514 15.2847 4.2479 15.3772 4.21759C15.548 4.0814 15.7645 4 16 4C16.2355 4 16.452 4.0814 16.6228 4.21759ZM7 6.61816L5 7.61816V17.3821L7 16.3821V6.61816ZM9 16.3821L11 17.3821V7.61816L9 6.61816V16.3821ZM15 16.3821V6.61816L13 7.61816V17.3821L15 16.3821ZM17 16.3821L19 17.3821V7.61816L17 6.61816V16.3821Z" fill="#777B92"/>
</svg>
