<svg width="24" height="24" viewBox="0 0 24 24" fill="none" xmlns="http://www.w3.org/2000/svg">
<path fill-rule="evenodd" clip-rule="evenodd" d="M16 4C18.2091 4 20 5.79086 20 8C20 10.2091 18.2091 12 16 12C15.2582 12 14.5635 11.7981 13.968 11.4462L5.70711 19.7071C5.31658 20.0976 4.68342 20.0976 4.29289 19.7071C3.90237 19.3166 3.90237 18.6834 4.29289 18.2929L12.5538 10.032C12.2019 9.43645 12 8.74181 12 8C12 5.79086 13.7909 4 16 4ZM14 8C14 9.10457 14.8954 10 16 10C17.1046 10 18 9.10457 18 8C18 6.89543 17.1046 6 16 6C14.8954 6 14 6.89543 14 8Z" fill="#777B92"/>
</svg>
