<svg width="24" height="24" viewBox="0 0 24 24" fill="none" xmlns="http://www.w3.org/2000/svg">
<path d="M16 5.00001V10.586L17.9999 12.5858C19.2599 13.8457 18.3676 16 16.5858 16L13.0001 16.0001L13.0001 21C13.0001 21.5523 12.5523 22 12.0001 22C11.4478 22 11.0001 21.5523 11.0001 21L11.0001 16.0001L7.41444 16.0002C5.63259 16.0002 4.74024 13.8459 6.00024 12.5859L8.00005 10.5862L8.00012 5.00003L7.00005 5C6.44777 5 6.00005 4.55228 6.00005 4C6.00005 3.44772 6.44777 3 7.00005 3H10.0001L10.0108 3.00006L13.9952 3.00001L14.0001 3H17.0001C17.5523 3 18.0001 3.44772 18.0001 4C18.0001 4.55229 17.5523 5 17.0001 5L16 5.00001ZM12.0153 14.0001L16.5857 14L14.5858 12.0003C14.2107 11.6252 14 11.1165 14 10.586V5.00001L10.0001 5.00006L10.0001 10.5863C10 11.1167 9.78932 11.6254 9.41422 12.0005L7.41441 14.0002L11.9848 14.0001C11.9899 14 11.995 14 12.0001 14C12.0051 14 12.0102 14 12.0153 14.0001Z" fill="#777B92"/>
</svg>
