<svg width="24" height="24" viewBox="0 0 24 24" fill="none" xmlns="http://www.w3.org/2000/svg">
<path fill-rule="evenodd" clip-rule="evenodd" d="M11.1056 2.32931C11.6686 2.04778 12.3314 2.04778 12.8944 2.32931L19.8944 5.82931C20.0045 5.88436 20.1081 5.94876 20.2042 6.02126C20.4929 6.08169 20.7522 6.26869 20.8944 6.55301C21.0076 6.77949 21.0269 7.02841 20.9669 7.25539C20.9887 7.37377 21 7.49511 21 7.61816V16.3821C21 17.1396 20.572 17.8322 19.8944 18.1709L12.8944 21.6709C12.8059 21.7152 12.7149 21.7525 12.6223 21.7828C12.4515 21.9188 12.2352 22 12 22C11.7648 22 11.5485 21.9188 11.3777 21.7828C11.2851 21.7525 11.1941 21.7152 11.1056 21.6709L4.10557 18.1709C3.428 17.8322 3 17.1396 3 16.3821V7.61816C3 7.49515 3.01129 7.37385 3.03309 7.2555C2.97307 7.02849 2.99228 6.77953 3.10555 6.55301C3.24772 6.26867 3.50707 6.08166 3.79581 6.02124C3.89196 5.94875 3.99547 5.88436 4.10557 5.82931L11.1056 2.32931ZM13 19.3821L19 16.3821V8.61824L13 11.6182V19.3821ZM11 11.6183L5 8.61827V16.3821L11 19.3821V11.6183ZM12 4.11816L6.23597 7.00018L12 9.88218L17.764 7.00017L12 4.11816Z" fill="#777B92"/>
</svg>
