<svg width="24" height="24" viewBox="0 0 24 24" fill="none" xmlns="http://www.w3.org/2000/svg">
<path fill-rule="evenodd" clip-rule="evenodd" d="M15 4C15 5.30622 14.1652 6.41746 13 6.82929V9.17071C13.8638 9.476 14.546 10.1656 14.8411 11.0341C16.6964 11.1885 18.1938 11.8638 19.2586 13.0055C20.29 14.1115 20.8284 15.5618 20.9648 17.1585C22.1483 17.5602 23 18.6807 23 20C23 21.6569 21.6569 23 20 23C18.3431 23 17 21.6569 17 20C17 18.7093 17.8151 17.6089 18.9587 17.1856C18.8338 15.9973 18.4291 15.0485 17.7959 14.3695C17.1547 13.682 16.1945 13.1804 14.8149 13.0398C14.5069 13.8734 13.8391 14.5327 13 14.8293V17.1707C14.1652 17.5825 15 18.6938 15 20C15 21.6569 13.6569 23 12 23C10.3431 23 9 21.6569 9 20C9 18.6938 9.83481 17.5825 11 17.1707V14.8293C10.1602 14.5325 9.49201 13.8723 9.18432 13.0377C8.15349 13.1372 7.40847 13.4237 6.8646 13.7765C6.18567 14.2169 5.7521 14.8048 5.47166 15.4167C5.18786 16.0359 5.06647 16.6694 5.01884 17.1593C5.01827 17.1651 5.01771 17.171 5.01717 17.1768C6.17338 17.5935 7 18.7002 7 20C7 21.6569 5.65685 23 4 23C2.34315 23 1 21.6569 1 20C1 18.6896 1.84017 17.5754 3.01122 17.1668C3.01586 17.1023 3.02147 17.0352 3.02823 16.9657C3.08998 16.3306 3.24984 15.4641 3.65353 14.5833C4.0606 13.6952 4.72078 12.7831 5.77622 12.0985C6.6604 11.525 7.77441 11.142 9.15948 11.0323C9.45497 10.1647 10.1368 9.47579 11 9.17071V6.82929C9.83481 6.41746 9 5.30622 9 4C9 2.34315 10.3431 1 12 1C13.6569 1 15 2.34315 15 4ZM12 3C11.4477 3 11 3.44772 11 4C11 4.55228 11.4477 5 12 5C12.5523 5 13 4.55228 13 4C13 3.44772 12.5523 3 12 3ZM11 12.0099C11.0053 12.5576 11.451 13 12 13C12.5523 13 13 12.5523 13 12C13 11.4477 12.5523 11 12 11C11.451 11 11.0053 11.4424 11 11.9901C11.0001 11.9934 11.0001 11.9967 11.0001 12C11.0001 12.0033 11.0001 12.0066 11 12.0099ZM3.99223 19C3.44352 19.0042 3 19.4503 3 20C3 20.5523 3.44772 21 4 21C4.55228 21 5 20.5523 5 20C5 19.45 4.55605 19.0038 4.00697 19C4.00205 19.0001 3.99713 19.0001 3.99223 19ZM19 20C19 20.5523 19.4477 21 20 21C20.5523 21 21 20.5523 21 20C21 19.4477 20.5523 19 20 19C19.4477 19 19 19.4477 19 20ZM12 19C11.4477 19 11 19.4477 11 20C11 20.5523 11.4477 21 12 21C12.5523 21 13 20.5523 13 20C13 19.4477 12.5523 19 12 19Z" fill="#777B92"/>
</svg>
