<svg width="16" height="16" viewBox="0 0 16 16" fill="none" xmlns="http://www.w3.org/2000/svg">
<path fill-rule="evenodd" clip-rule="evenodd" d="M6.00829 1.84139C6.08752 1.08752 6.72515 0.5 7.5 0.5H8.5C9.27485 0.5 9.91247 1.08751 9.99171 1.84137C10.0495 1.84046 10.1085 1.84963 10.1662 1.87002C12.0134 2.52293 13.4766 3.98616 14.1296 5.83341C14.15 5.89124 14.1592 5.95032 14.1582 6.00824C14.9123 6.08728 15.5 6.72501 15.5 7.5V8.5C15.5 9.27499 14.9123 9.91272 14.1582 9.99176C14.1592 10.0497 14.15 10.1088 14.1296 10.1667C13.4766 12.0139 12.0134 13.4771 10.1662 14.13C10.1085 14.1504 10.0495 14.1596 9.9917 14.1587C9.91244 14.9125 9.27483 15.5 8.5 15.5H7.5C6.72517 15.5 6.08755 14.9125 6.00829 14.1587C5.95019 14.1597 5.89093 14.1505 5.83292 14.13C3.98567 13.4771 2.52245 12.0139 1.86954 10.1667C1.84908 10.1088 1.83991 10.0496 1.84089 9.99166C1.08726 9.9122 0.5 9.27468 0.5 8.5V7.5C0.5 6.72532 1.08726 6.0878 1.84089 6.00834C1.83992 5.95038 1.84909 5.89127 1.86954 5.83341C2.52245 3.98616 3.98567 2.52293 5.83292 1.87002C5.89093 1.84952 5.95019 1.84036 6.00829 1.84139ZM6 2.87465C4.57125 3.43251 3.43234 4.57131 2.87436 6H3C3.82843 6 4.5 6.67157 4.5 7.5V8.5C4.5 9.32843 3.82843 10 3 10H2.87433C3.4323 11.4287 4.57123 12.5676 6 13.1254V13C6 12.1716 6.67157 11.5 7.5 11.5H8.5C9.32843 11.5 10 12.1716 10 13V13.1251C11.4283 12.5671 12.5669 11.4284 13.1248 10H13C12.1716 10 11.5 9.32843 11.5 8.5V7.5C11.5 6.67157 12.1716 6 13 6H13.1247C12.5669 4.57162 11.4283 3.43299 10 2.87501V3C10 3.82843 9.32843 4.5 8.5 4.5H7.5C6.67157 4.5 6 3.82843 6 3V2.87465ZM7.5 1.5C7.22386 1.5 7 1.72386 7 2V3C7 3.27614 7.22386 3.5 7.5 3.5H8.5C8.77614 3.5 9 3.27614 9 3V2C9 1.72386 8.77614 1.5 8.5 1.5H7.5ZM13 7C12.7239 7 12.5 7.22386 12.5 7.5V8.5C12.5 8.77614 12.7239 9 13 9H14C14.2761 9 14.5 8.77614 14.5 8.5V7.5C14.5 7.22386 14.2761 7 14 7H13ZM7 13V14C7 14.2761 7.22386 14.5 7.5 14.5H8.5C8.77614 14.5 9 14.2761 9 14V13C9 12.7239 8.77614 12.5 8.5 12.5H7.5C7.22386 12.5 7 12.7239 7 13ZM2 7C1.72386 7 1.5 7.22386 1.5 7.5V8.5C1.5 8.77614 1.72386 9 2 9H3C3.27614 9 3.5 8.77614 3.5 8.5V7.5C3.5 7.22386 3.27614 7 3 7H2Z" fill="#777B92"/>
</svg>
