<svg width="16" height="16" viewBox="0 0 16 16" fill="none" xmlns="http://www.w3.org/2000/svg">
<g clip-path="url(#clip0_13656_9983)">
<path fill-rule="evenodd" clip-rule="evenodd" d="M5.5 7C5.5 6.17157 6.17157 5.5 7 5.5V6.5C6.72386 6.5 6.5 6.72386 6.5 7L5.5 7Z" fill="#777B92"/>
<path fill-rule="evenodd" clip-rule="evenodd" d="M9 10.5V9.5C9.27614 9.5 9.5 9.27614 9.5 9H10.5C10.5 9.82843 9.82843 10.5 9 10.5Z" fill="#777B92"/>
<path fill-rule="evenodd" clip-rule="evenodd" d="M0.5 2C0.5 1.17157 1.17157 0.5 2 0.5L9 0.5C9.82843 0.5 10.5 1.17157 10.5 2V5C10.5 5.27614 10.7239 5.5 11 5.5L14 5.5C14.8284 5.5 15.5 6.17157 15.5 7L15.5 14C15.5 14.8284 14.8284 15.5 14 15.5H7C6.17157 15.5 5.5 14.8284 5.5 14V11C5.5 10.7239 5.27614 10.5 5 10.5H2C1.17157 10.5 0.5 9.82843 0.5 9L0.5 2ZM2 1.5C1.72386 1.5 1.5 1.72386 1.5 2L1.5 9C1.5 9.27614 1.72386 9.5 2 9.5H5C5.23118 9.5 5.45014 9.5523 5.64571 9.64571C5.5523 9.45014 5.5 9.23118 5.5 9H6.5C6.5 9.27614 6.72386 9.5 7 9.5L7 10.5C6.76882 10.5 6.54986 10.4477 6.35429 10.3543C6.4477 10.5499 6.5 10.7688 6.5 11V14C6.5 14.2761 6.72386 14.5 7 14.5H14C14.2761 14.5 14.5 14.2761 14.5 14V7C14.5 6.72386 14.2761 6.5 14 6.5L11 6.5C10.7688 6.5 10.5499 6.4477 10.3543 6.35429C10.4477 6.54986 10.5 6.76882 10.5 7H9.5C9.5 6.72386 9.27614 6.5 9 6.5V5.5C9.23118 5.5 9.45014 5.5523 9.64571 5.64571C9.5523 5.45014 9.5 5.23118 9.5 5V2C9.5 1.72386 9.27614 1.5 9 1.5L2 1.5Z" fill="#777B92"/>
</g>
<defs>
<clipPath id="clip0_13656_9983">
<rect width="16" height="16" fill="white" transform="translate(16 16) rotate(-180)"/>
</clipPath>
</defs>
</svg>
