<svg width="16" height="16" viewBox="0 0 16 16" fill="none" xmlns="http://www.w3.org/2000/svg">
<path fill-rule="evenodd" clip-rule="evenodd" d="M3.00001 0.5H12C12.2761 0.5 12.5 0.723858 12.5 1C12.5 1.27614 12.2761 1.5 12 1.5H3.00001C2.171 1.5 1.50001 2.17036 1.50001 2.9982L1.5 12C1.5 12.2761 1.27614 12.5 1 12.5C0.723858 12.5 0.5 12.2761 0.5 12L0.500008 2.9982C0.500009 1.61691 1.61988 0.5 3.00001 0.5Z" fill="#777B92"/>
<path fill-rule="evenodd" clip-rule="evenodd" d="M5 3.5H14C14.8284 3.5 15.5 4.17157 15.5 5V14C15.5 14.8284 14.8284 15.5 14 15.5H5C4.17157 15.5 3.5 14.8284 3.5 14V5C3.5 4.17157 4.17157 3.5 5 3.5ZM4.5 5V14C4.5 14.2761 4.72386 14.5 5 14.5H14C14.2761 14.5 14.5 14.2761 14.5 14V5C14.5 4.72386 14.2761 4.5 14 4.5H5C4.72386 4.5 4.5 4.72386 4.5 5Z" fill="#777B92"/>
</svg>
