<svg width="16" height="16" viewBox="0 0 16 16" fill="none" xmlns="http://www.w3.org/2000/svg">
<path fill-rule="evenodd" clip-rule="evenodd" d="M4.69971 1.59985C5.61899 0.909357 6.76241 0.5 8 0.5C11.0376 0.5 13.5 2.96243 13.5 6V10C13.5 10.2761 13.2761 10.5 13 10.5C12.7239 10.5 12.5 10.2761 12.5 10V6C12.5 3.51472 10.4853 1.5 8 1.5C6.98638 1.5 6.05234 1.83453 5.30029 2.39942C5.0795 2.56526 4.76606 2.52072 4.60022 2.29992C4.43437 2.07913 4.47892 1.7657 4.69971 1.59985Z" fill="#777B92"/>
<path fill-rule="evenodd" clip-rule="evenodd" d="M3 5.5C3.27614 5.5 3.5 5.72386 3.5 6V10.7639C3.5 10.9968 3.44578 11.2265 3.34164 11.4348L2.80902 12.5H10C10.2761 12.5 10.5 12.7239 10.5 13L10.5 13.0011C10.4994 14.3813 9.38034 15.5 8 15.5C6.79052 15.5 5.78164 14.6411 5.55001 13.5H2C1.82671 13.5 1.66578 13.4103 1.57468 13.2629C1.48357 13.1155 1.47529 12.9314 1.55279 12.7764L2.44721 10.9875C2.48193 10.9181 2.5 10.8416 2.5 10.7639V6C2.5 5.72386 2.72386 5.5 3 5.5ZM8 14.5C8.65311 14.5 9.20873 14.0826 9.41465 13.5H6.58535C6.79127 14.0826 7.34689 14.5 8 14.5Z" fill="#777B92"/>
<path fill-rule="evenodd" clip-rule="evenodd" d="M2.35355 1.64645L14.3536 13.6464C14.5488 13.8417 14.5488 14.1583 14.3536 14.3536C14.1583 14.5488 13.8417 14.5488 13.6464 14.3536L1.64645 2.35355C1.45118 2.15829 1.45118 1.84171 1.64645 1.64645C1.84171 1.45118 2.15829 1.45118 2.35355 1.64645Z" fill="#777B92"/>
</svg>
