<svg width="16" height="16" viewBox="0 0 16 16" fill="none" xmlns="http://www.w3.org/2000/svg">
<path fill-rule="evenodd" clip-rule="evenodd" d="M8 0.5C12.1421 0.5 15.5 3.85786 15.5 8C15.5 12.1421 12.1421 15.5 8 15.5C3.85786 15.5 0.5 12.1421 0.5 8C0.5 3.85786 3.85786 0.5 8 0.5ZM8 5C8.82843 5 9.5 5.67157 9.5 6.5C9.5 7.19963 9.02056 7.78853 8.37159 7.95374C7.95729 8.05921 7.5 8.42613 7.5 9V9.5C7.5 9.77614 7.72386 10 8 10C8.27614 10 8.5 9.77614 8.5 9.5L8.50021 9.00007C8.50112 8.99793 8.50452 8.99107 8.5138 8.98105C8.53418 8.95907 8.57133 8.93479 8.6183 8.92283C9.69968 8.64753 10.5 7.66786 10.5 6.5C10.5 5.11929 9.38071 4 8 4C6.61929 4 5.5 5.11929 5.5 6.5C5.5 6.77614 5.72386 7 6 7C6.27614 7 6.5 6.77614 6.5 6.5C6.5 5.67157 7.17157 5 8 5ZM8.5 11.5C8.5 11.2239 8.27614 11 8 11C7.72386 11 7.5 11.2239 7.5 11.5C7.5 11.7761 7.72386 12 8 12C8.27614 12 8.5 11.7761 8.5 11.5Z" fill="#777B92"/>
</svg>
