<svg width="16" height="16" viewBox="0 0 16 16" fill="none" xmlns="http://www.w3.org/2000/svg">
<path fill-rule="evenodd" clip-rule="evenodd" d="M9.85355 9.14646C10.0488 9.34172 10.0488 9.65831 9.85355 9.85357L8.70711 11L9.85355 12.1465C10.0488 12.3417 10.0488 12.6583 9.85355 12.8536C9.65829 13.0488 9.34171 13.0488 9.14645 12.8536L8 11.7071L6.85355 12.8536C6.65829 13.0488 6.34171 13.0488 6.14645 12.8536C5.95118 12.6583 5.95118 12.3417 6.14645 12.1465L7.29289 11L6.14645 9.85357C5.95118 9.65831 5.95118 9.34172 6.14645 9.14646C6.34171 8.9512 6.65829 8.9512 6.85355 9.14646L8 10.2929L9.14645 9.14646C9.34171 8.9512 9.65829 8.9512 9.85355 9.14646Z" fill="#777B92"/>
<path fill-rule="evenodd" clip-rule="evenodd" d="M8.44721 0.776393L15.4472 14.7764C15.5247 14.9314 15.5164 15.1155 15.4253 15.2629C15.3342 15.4103 15.1733 15.5 15 15.5H1C0.826712 15.5 0.665778 15.4103 0.574675 15.2629C0.483572 15.1155 0.47529 14.9314 0.552787 14.7764L7.55279 0.776393C7.63748 0.607001 7.81061 0.5 8 0.5C8.18939 0.5 8.36252 0.607001 8.44721 0.776393ZM8 2.11803L1.80902 14.5H14.191L8 2.11803Z" fill="#777B92"/>
</svg>
