<svg width="16" height="16" viewBox="0 0 16 16" fill="none" xmlns="http://www.w3.org/2000/svg">
<path fill-rule="evenodd" clip-rule="evenodd" d="M8.83236 0.953768L9.78052 1.58587C9.86116 1.63963 9.95568 1.6688 10.0526 1.66982L10.7953 1.67765C11.4333 1.68438 11.9972 2.09401 12.2009 2.69869L12.3985 3.28509C12.4485 3.4337 12.5654 3.55021 12.7142 3.5998L13.3004 3.79518C13.9184 4.0012 14.3328 4.58259 14.3259 5.23403L14.3184 5.94276C14.3174 6.0445 14.3474 6.14415 14.4044 6.2284L15.0375 7.16327C15.3793 7.66795 15.3817 8.32927 15.0436 8.83642L14.4176 9.77542C14.3629 9.85755 14.3336 9.95405 14.3336 10.0528V10.7792C14.3336 11.4249 13.9205 11.9981 13.308 12.2023L12.7161 12.3996C12.5668 12.4493 12.4496 12.5665 12.3999 12.7158L12.2026 13.3077C11.9984 13.9202 11.4252 14.3333 10.7795 14.3333H10.0531C9.95437 14.3333 9.85787 14.3625 9.77573 14.4173L8.87058 15.0207C8.33832 15.3756 7.63958 15.3538 7.13043 14.9665L6.41204 14.4201C6.32372 14.3529 6.21555 14.317 6.10459 14.3181L5.23304 14.3264C4.58217 14.3326 4.00158 13.9183 3.79575 13.3008L3.60075 12.7158C3.55098 12.5665 3.43382 12.4493 3.28452 12.3996L2.70027 12.2048C2.08222 11.9988 1.66782 11.4174 1.67469 10.766L1.68217 10.0572C1.68324 9.95548 1.65325 9.85583 1.59619 9.77159L0.963082 8.83671C0.621305 8.33203 0.618901 7.67072 0.957003 7.16356L1.583 6.22457C1.63776 6.14243 1.66698 6.04593 1.66698 5.94722V5.22075C1.66698 4.57511 2.08012 4.0019 2.69263 3.79773L3.28452 3.60043C3.43382 3.55066 3.55098 3.43351 3.60075 3.2842L3.79804 2.69232C4.00221 2.0798 4.57542 1.66666 5.22107 1.66666H5.94753C6.04625 1.66666 6.14275 1.63744 6.22488 1.58268L7.16826 0.953768C7.67211 0.617869 8.32851 0.617868 8.83236 0.953768ZM8.50031 4.49999C8.50031 4.22385 8.27645 3.99999 8.00031 3.99999C7.72417 3.99999 7.50031 4.22385 7.50031 4.49999V9.49999C7.50031 9.77614 7.72417 9.99999 8.00031 9.99999C8.27645 9.99999 8.50031 9.77614 8.50031 9.49999V4.49999ZM8.00031 12C8.27645 12 8.50031 11.7761 8.50031 11.5C8.50031 11.2239 8.27645 11 8.00031 11C7.72417 11 7.50031 11.2239 7.50031 11.5C7.50031 11.7761 7.72417 12 8.00031 12Z" fill="#777B92"/>
</svg>
