<svg width="16" height="16" viewBox="0 0 16 16" fill="none" xmlns="http://www.w3.org/2000/svg">
<path fill-rule="evenodd" clip-rule="evenodd" d="M11.3539 6.35422L7.35386 10.3542C7.1586 10.5495 6.84201 10.5495 6.64675 10.3542L4.64675 8.35422C4.45149 8.15896 4.45149 7.84238 4.64675 7.64712C4.84201 7.45186 5.1586 7.45186 5.35386 7.64712L7.00031 9.29356L10.6468 5.64712C10.842 5.45186 11.1586 5.45186 11.3539 5.64712C11.5491 5.84238 11.5491 6.15896 11.3539 6.35422Z" fill="#777B92"/>
<path fill-rule="evenodd" clip-rule="evenodd" d="M8.83236 0.953768L9.78052 1.58587C9.86116 1.63963 9.95568 1.6688 10.0526 1.66982L10.7953 1.67765C11.4333 1.68438 11.9972 2.09401 12.2009 2.69869L12.3985 3.28509C12.4485 3.4337 12.5654 3.55021 12.7142 3.5998L13.3004 3.79518C13.9184 4.0012 14.3328 4.58259 14.3259 5.23403L14.3184 5.94276C14.3174 6.0445 14.3474 6.14415 14.4044 6.2284L15.0375 7.16327C15.3793 7.66795 15.3817 8.32927 15.0436 8.83642L14.4176 9.77542C14.3629 9.85755 14.3336 9.95405 14.3336 10.0528V10.7792C14.3336 11.4249 13.9205 11.9981 13.308 12.2023L12.7161 12.3996C12.5668 12.4493 12.4496 12.5665 12.3999 12.7158L12.2026 13.3077C11.9984 13.9202 11.4252 14.3333 10.7795 14.3333H10.0531C9.95437 14.3333 9.85787 14.3625 9.77573 14.4173L8.87058 15.0207C8.33832 15.3756 7.63958 15.3538 7.13043 14.9665L6.41204 14.4201C6.32372 14.3529 6.21555 14.317 6.10459 14.3181L5.23304 14.3264C4.58217 14.3326 4.00158 13.9183 3.79575 13.3008L3.60075 12.7158C3.55098 12.5665 3.43382 12.4493 3.28452 12.3996L2.70027 12.2048C2.08222 11.9988 1.66782 11.4174 1.67469 10.766L1.68217 10.0572C1.68324 9.95548 1.65325 9.85583 1.59619 9.77159L0.963082 8.83671C0.621305 8.33203 0.618901 7.67072 0.957003 7.16356L1.583 6.22457C1.63776 6.14243 1.66698 6.04593 1.66698 5.94722V5.22075C1.66698 4.57511 2.08012 4.0019 2.69263 3.79773L3.28452 3.60043C3.43382 3.55066 3.55098 3.43351 3.60075 3.2842L3.79804 2.69232C4.00221 2.0798 4.57542 1.66666 5.22107 1.66666H5.94753C6.04625 1.66666 6.14275 1.63744 6.22488 1.58268L7.16826 0.953768C7.67211 0.617869 8.32851 0.617868 8.83236 0.953768ZM7.72296 1.78582L6.77958 2.41473C6.53318 2.579 6.24367 2.66666 5.94753 2.66666H5.22107C5.00585 2.66666 4.81478 2.80437 4.74673 3.00855L4.54943 3.60043C4.40013 4.04834 4.04866 4.39981 3.60075 4.54911L3.00886 4.74641C2.80469 4.81447 2.66698 5.00554 2.66698 5.22075V5.94722C2.66698 6.24335 2.57932 6.53287 2.41505 6.77927L1.78905 7.71826C1.67635 7.88732 1.67715 8.10775 1.79108 8.27598L2.42419 9.21085C2.59535 9.4636 2.68533 9.76254 2.68211 10.0678L2.67464 10.7765C2.67234 10.9936 2.81048 11.1874 3.01649 11.2561L3.60075 11.4509C4.04866 11.6002 4.40013 11.9516 4.54943 12.3996L4.74443 12.9846C4.81305 13.1904 5.00657 13.3285 5.22353 13.3264L6.09508 13.3181C6.42798 13.315 6.75247 13.4226 7.01744 13.6242L7.73583 14.1706C7.90555 14.2997 8.13846 14.307 8.31588 14.1887L9.22103 13.5852C9.46743 13.421 9.75695 13.3333 10.0531 13.3333H10.7795C10.9948 13.3333 11.1858 13.1956 11.2539 12.9914L11.4512 12.3996C11.6005 11.9516 11.952 11.6002 12.3999 11.4509L12.9918 11.2536C13.1959 11.1855 13.3336 10.9944 13.3336 10.7792V10.0528C13.3336 9.75663 13.4213 9.46712 13.5856 9.22072L14.2116 8.28172C14.3243 8.11267 14.3235 7.89223 14.2095 7.724L13.5764 6.78913C13.4053 6.53639 13.3153 6.23744 13.3185 5.93221L13.326 5.22348C13.3283 5.00634 13.1901 4.81254 12.9841 4.74387L12.398 4.54848C11.9517 4.39971 11.601 4.05018 11.4508 3.60435L11.2533 3.01794C11.1854 2.81638 10.9974 2.67984 10.7847 2.6776L10.042 2.66976C9.75131 2.6667 9.46774 2.5792 9.22582 2.41792L8.27766 1.78582C8.10971 1.67385 7.89091 1.67385 7.72296 1.78582Z" fill="#777B92"/>
</svg>
