<svg width="16" height="16" viewBox="0 0 16 16" fill="none" xmlns="http://www.w3.org/2000/svg">
<path fill-rule="evenodd" clip-rule="evenodd" d="M1.5 8C1.5 11.5899 4.41015 14.5 8 14.5C11.5899 14.5 14.5 11.5899 14.5 8C14.5 7.35383 14.4059 6.73054 14.2309 6.14262C14.1521 5.87796 14.3028 5.59954 14.5675 5.52077C14.8322 5.442 15.1106 5.59271 15.1893 5.85738C15.3916 6.53688 15.5 7.25622 15.5 8C15.5 12.1421 12.1421 15.5 8 15.5C3.85786 15.5 0.5 12.1421 0.5 8C0.5 3.85786 3.85786 0.5 8 0.5C9.14937 0.5 10.2397 0.758887 11.2145 1.222C11.464 1.34049 11.5701 1.63875 11.4516 1.88818C11.3331 2.13761 11.0349 2.24375 10.7855 2.12526C9.94182 1.72449 8.99782 1.5 8 1.5C4.41015 1.5 1.5 4.41015 1.5 8Z" fill="#777B92"/>
<path fill-rule="evenodd" clip-rule="evenodd" d="M14.3536 3.35355L7.35355 10.3536C7.15829 10.5488 6.84171 10.5488 6.64645 10.3536L4.64645 8.35355C4.45118 8.15829 4.45118 7.84171 4.64645 7.64645C4.84171 7.45118 5.15829 7.45118 5.35355 7.64645L7 9.29289L13.6464 2.64645C13.8417 2.45118 14.1583 2.45118 14.3536 2.64645C14.5488 2.84171 14.5488 3.15829 14.3536 3.35355Z" fill="#777B92"/>
</svg>
