<svg width="16" height="16" viewBox="0 0 16 16" fill="none" xmlns="http://www.w3.org/2000/svg">
<path fill-rule="evenodd" clip-rule="evenodd" d="M6.5 2C6.5 1.17157 7.17157 0.5 8 0.5H14C14.8284 0.5 15.5 1.17157 15.5 2V6C15.5 6.82843 14.8284 7.5 14 7.5H11.5V8.99978C11.7047 9.07198 11.8968 9.18994 12.0605 9.35365L13.6463 10.9394C14.2321 11.5252 14.2321 12.475 13.6463 13.0608L12.0605 14.6465C11.4747 15.2323 10.525 15.2323 9.93919 14.6465L8.3534 13.0608C8.18963 12.897 8.07165 12.7048 7.99945 12.5H5.44999C5.21836 13.6411 4.20948 14.5 3 14.5C1.61929 14.5 0.5 13.3807 0.5 12C0.5 10.6193 1.61929 9.5 3 9.5C4.20948 9.5 5.21836 10.3589 5.44999 11.5H7.99951C8.07172 11.2953 8.18968 11.1032 8.3534 10.9394L9.93919 9.35365C10.103 9.18986 10.2952 9.07187 10.5 8.99967V7.5H8C7.17157 7.5 6.5 6.82843 6.5 6V4.5H5.44999C5.21836 5.64112 4.20948 6.5 3 6.5C1.61929 6.5 0.5 5.38071 0.5 4C0.5 2.61929 1.61929 1.5 3 1.5C4.20948 1.5 5.21836 2.35888 5.44999 3.5H6.5V2ZM4.5 4C4.5 3.17157 3.82843 2.5 3 2.5C2.17157 2.5 1.5 3.17157 1.5 4C1.5 4.82843 2.17157 5.5 3 5.5C3.82843 5.5 4.5 4.82843 4.5 4ZM7.5 6C7.5 6.27614 7.72386 6.5 8 6.5H14C14.2761 6.5 14.5 6.27614 14.5 6V2C14.5 1.72386 14.2761 1.5 14 1.5H8C7.72386 1.5 7.5 1.72386 7.5 2V6ZM3 10.5C2.17157 10.5 1.5 11.1716 1.5 12C1.5 12.8284 2.17157 13.5 3 13.5C3.82843 13.5 4.5 12.8284 4.5 12C4.5 11.1716 3.82843 10.5 3 10.5ZM12.9392 11.6465L11.3534 10.0608C11.1581 9.86549 10.8416 9.86549 10.6463 10.0608L9.06051 11.6465C8.86525 11.8418 8.86525 12.1584 9.06051 12.3536L10.6463 13.9394C10.8416 14.1347 11.1581 14.1347 11.3534 13.9394L12.9392 12.3536C13.1345 12.1584 13.1345 11.8418 12.9392 11.6465Z" fill="#777B92"/>
</svg>
