<svg width="16" height="16" viewBox="0 0 16 16" fill="none" xmlns="http://www.w3.org/2000/svg">
<path fill-rule="evenodd" clip-rule="evenodd" d="M8 4.5C9.933 4.5 11.5 6.067 11.5 8C11.5 9.933 9.933 11.5 8 11.5C6.067 11.5 4.5 9.933 4.5 8C4.5 6.067 6.067 4.5 8 4.5ZM5.5 8C5.5 9.38071 6.61929 10.5 8 10.5C9.38071 10.5 10.5 9.38071 10.5 8C10.5 6.61929 9.38071 5.5 8 5.5C6.61929 5.5 5.5 6.61929 5.5 8Z" fill="#777B92"/>
<path fill-rule="evenodd" clip-rule="evenodd" d="M8 0.5C12.1421 0.5 15.5 3.85786 15.5 8C15.5 12.1421 12.1421 15.5 8 15.5C3.85786 15.5 0.5 12.1421 0.5 8C0.5 3.85786 3.85786 0.5 8 0.5ZM1.5 8C1.5 11.5899 4.41015 14.5 8 14.5C11.5899 14.5 14.5 11.5899 14.5 8C14.5 4.41015 11.5899 1.5 8 1.5C4.41015 1.5 1.5 4.41015 1.5 8Z" fill="#777B92"/>
</svg>
