<svg width="16" height="16" viewBox="0 0 16 16" fill="none" xmlns="http://www.w3.org/2000/svg">
<path fill-rule="evenodd" clip-rule="evenodd" d="M5.21455 2.12526C4.96512 2.24375 4.66686 2.13761 4.54837 1.88818C4.42988 1.63875 4.53603 1.34049 4.78545 1.222C5.76033 0.758887 6.85063 0.5 8 0.5C9.14937 0.5 10.2397 0.758887 11.2145 1.222C11.464 1.34049 11.5701 1.63875 11.4516 1.88818C11.3331 2.13761 11.0349 2.24375 10.7855 2.12526C9.94182 1.72449 8.99782 1.5 8 1.5C7.00218 1.5 6.05818 1.72449 5.21455 2.12526Z" fill="#777B92"/>
<path fill-rule="evenodd" clip-rule="evenodd" d="M2.12526 5.21455C1.72449 6.05818 1.5 7.00218 1.5 8C1.5 11.5899 4.41015 14.5 8 14.5C8.99782 14.5 9.94182 14.2755 10.7855 13.8747C11.0349 13.7562 11.3331 13.8624 11.4516 14.1118C11.5701 14.3613 11.464 14.6595 11.2145 14.778C10.2397 15.2411 9.14937 15.5 8 15.5C3.85786 15.5 0.5 12.1421 0.5 8C0.5 6.85063 0.758887 5.76033 1.222 4.78545C1.34049 4.53603 1.63875 4.42988 1.88818 4.54837C2.13761 4.66686 2.24375 4.96512 2.12526 5.21455Z" fill="#777B92"/>
<path fill-rule="evenodd" clip-rule="evenodd" d="M15.1893 5.85738C15.3916 6.53688 15.5 7.25622 15.5 8C15.5 9.14937 15.2411 10.2397 14.778 11.2145C14.6595 11.464 14.3613 11.5701 14.1118 11.4516C13.8624 11.3331 13.7562 11.0349 13.8747 10.7855C14.2755 9.94182 14.5 8.99782 14.5 8C14.5 7.35383 14.4059 6.73054 14.2309 6.14262C14.1521 5.87796 14.3028 5.59954 14.5675 5.52077C14.8322 5.442 15.1106 5.59271 15.1893 5.85738Z" fill="#777B92"/>
<path fill-rule="evenodd" clip-rule="evenodd" d="M2.64645 2.64645C2.84171 2.45118 3.15829 2.45118 3.35355 2.64645L13.3536 12.6464C13.5488 12.8417 13.5488 13.1583 13.3536 13.3536C13.1583 13.5488 12.8417 13.5488 12.6464 13.3536L2.64645 3.35355C2.45118 3.15829 2.45118 2.84171 2.64645 2.64645Z" fill="#777B92"/>
<path fill-rule="evenodd" clip-rule="evenodd" d="M14.3536 2.64645C14.5488 2.84171 14.5488 3.15829 14.3536 3.35355L9.85355 7.85355C9.65829 8.04882 9.34171 8.04882 9.14645 7.85355C8.95118 7.65829 8.95118 7.34171 9.14645 7.14645L13.6464 2.64645C13.8417 2.45118 14.1583 2.45118 14.3536 2.64645Z" fill="#777B92"/>
<path fill-rule="evenodd" clip-rule="evenodd" d="M4.64645 7.64645C4.84171 7.45118 5.15829 7.45118 5.35355 7.64645L7 9.29289L7.14645 9.14645C7.34171 8.95118 7.65829 8.95118 7.85355 9.14645C8.04882 9.34171 8.04882 9.65829 7.85355 9.85355L7.35355 10.3536C7.15829 10.5488 6.84171 10.5488 6.64645 10.3536L4.64645 8.35355C4.45118 8.15829 4.45118 7.84171 4.64645 7.64645Z" fill="#777B92"/>
</svg>
