<svg width="16" height="16" viewBox="0 0 16 16" fill="none" xmlns="http://www.w3.org/2000/svg">
<path fill-rule="evenodd" clip-rule="evenodd" d="M9.27456 0.90598L9.43692 1.02109C9.67174 1.18758 9.95844 1.2644 10.245 1.23763L10.4432 1.21912C11.3751 1.13208 12.2603 1.64315 12.6508 2.49368L12.7339 2.67455C12.854 2.93614 13.0639 3.14602 13.3254 3.26614L13.5063 3.34919C14.3569 3.73974 14.8679 4.62493 14.7809 5.55679L14.7624 5.75496C14.7356 6.04156 14.8124 6.32826 14.9789 6.56308L15.094 6.72545C15.6353 7.48894 15.6353 8.51106 15.094 9.27456L14.9789 9.43692C14.8124 9.67174 14.7356 9.95844 14.7624 10.245L14.7809 10.4432C14.8679 11.3751 14.3569 12.2603 13.5063 12.6508L13.3255 12.7339C13.0639 12.854 12.854 13.0639 12.7339 13.3254L12.6508 13.5063C12.2603 14.3569 11.3751 14.8679 10.4432 14.7809L10.245 14.7624C9.95844 14.7356 9.67174 14.8124 9.43692 14.9789L9.27455 15.094C8.51106 15.6353 7.48894 15.6353 6.72545 15.094L6.56308 14.9789C6.32826 14.8124 6.04156 14.7356 5.75496 14.7624L5.55679 14.7809C4.62493 14.8679 3.73974 14.3569 3.34919 13.5063L3.26614 13.3254C3.14602 13.0639 2.93614 12.854 2.67455 12.7339L2.49368 12.6508C1.64314 12.2603 1.13208 11.3751 1.21912 10.4432L1.23763 10.245C1.2644 9.95844 1.18758 9.67174 1.02109 9.43692L0.90598 9.27456C0.364673 8.51106 0.364674 7.48894 0.90598 6.72544L1.02109 6.56308C1.18758 6.32826 1.2644 6.04156 1.23763 5.75496L1.21912 5.55679C1.13208 4.62493 1.64315 3.73974 2.49368 3.34919L2.67455 3.26614C2.93614 3.14602 3.14602 2.93614 3.26614 2.67455L3.34919 2.49368C3.73974 1.64314 4.62493 1.13208 5.55679 1.21912L5.75496 1.23763C6.04156 1.2644 6.32826 1.18758 6.56308 1.02109L6.72545 0.90598C7.48894 0.364673 8.51106 0.364674 9.27456 0.90598ZM11.3536 5.64645C11.1583 5.45118 10.8417 5.45118 10.6464 5.64645L7 9.29289L5.35355 7.64645C5.15829 7.45118 4.84171 7.45118 4.64645 7.64645C4.45118 7.84171 4.45118 8.15829 4.64645 8.35355L6.64645 10.3536C6.84171 10.5488 7.15829 10.5488 7.35355 10.3536L11.3536 6.35355C11.5488 6.15829 11.5488 5.84171 11.3536 5.64645Z" fill="#777B92"/>
</svg>
