<svg width="16" height="16" viewBox="0 0 16 16" fill="none" xmlns="http://www.w3.org/2000/svg">
<path fill-rule="evenodd" clip-rule="evenodd" d="M8.35355 1.64645L12.3536 5.64645C12.5488 5.84171 12.5488 6.15829 12.3536 6.35355C12.1583 6.54882 11.8417 6.54882 11.6464 6.35355L8 2.70711L4.35355 6.35355C4.15829 6.54882 3.84171 6.54882 3.64645 6.35355C3.45118 6.15829 3.45118 5.84171 3.64645 5.64645L7.64645 1.64645C7.84171 1.45118 8.15829 1.45118 8.35355 1.64645Z" fill="#777B92"/>
<path fill-rule="evenodd" clip-rule="evenodd" d="M12.3536 10.3536L8.35355 14.3536C8.15829 14.5488 7.84171 14.5488 7.64645 14.3536L3.64645 10.3536C3.45118 10.1583 3.45118 9.84171 3.64645 9.64645C3.84171 9.45118 4.15829 9.45118 4.35355 9.64645L8 13.2929L11.6464 9.64645C11.8417 9.45118 12.1583 9.45118 12.3536 9.64645C12.5488 9.84171 12.5488 10.1583 12.3536 10.3536Z" fill="#777B92"/>
</svg>
