<svg width="16" height="16" viewBox="0 0 16 16" fill="none" xmlns="http://www.w3.org/2000/svg">
<path fill-rule="evenodd" clip-rule="evenodd" d="M7.35355 6.35355L5.70711 8L7.35355 9.64645C7.54882 9.84171 7.54882 10.1583 7.35355 10.3536C7.15829 10.5488 6.84171 10.5488 6.64645 10.3536L4.64645 8.35355C4.45118 8.15829 4.45118 7.84171 4.64645 7.64645L6.64645 5.64645C6.84171 5.45118 7.15829 5.45118 7.35355 5.64645C7.54882 5.84171 7.54882 6.15829 7.35355 6.35355Z" fill="#777B92"/>
<path fill-rule="evenodd" clip-rule="evenodd" d="M11.3536 6.35355L9.70711 8L11.3536 9.64645C11.5488 9.84171 11.5488 10.1583 11.3536 10.3536C11.1583 10.5488 10.8417 10.5488 10.6464 10.3536L8.64645 8.35355C8.45118 8.15829 8.45118 7.84171 8.64645 7.64645L10.6464 5.64645C10.8417 5.45118 11.1583 5.45118 11.3536 5.64645C11.5488 5.84171 11.5488 6.15829 11.3536 6.35355Z" fill="#777B92"/>
</svg>
