<svg width="16" height="16" viewBox="0 0 16 16" fill="none" xmlns="http://www.w3.org/2000/svg">
<path fill-rule="evenodd" clip-rule="evenodd" d="M5.35355 5.64645L7.35355 7.64645C7.54882 7.84171 7.54882 8.15829 7.35355 8.35355L5.35355 10.3536C5.15829 10.5488 4.84171 10.5488 4.64645 10.3536C4.45118 10.1583 4.45118 9.84171 4.64645 9.64645L6.29289 8L4.64645 6.35355C4.45118 6.15829 4.45118 5.84171 4.64645 5.64645C4.84171 5.45118 5.15829 5.45118 5.35355 5.64645Z" fill="#777B92"/>
<path fill-rule="evenodd" clip-rule="evenodd" d="M9.35355 5.64645L11.3536 7.64645C11.5488 7.84171 11.5488 8.15829 11.3536 8.35355L9.35355 10.3536C9.15829 10.5488 8.84171 10.5488 8.64645 10.3536C8.45118 10.1583 8.45118 9.84171 8.64645 9.64645L10.2929 8L8.64645 6.35355C8.45118 6.15829 8.45118 5.84171 8.64645 5.64645C8.84171 5.45118 9.15829 5.45118 9.35355 5.64645Z" fill="#777B92"/>
</svg>
