<svg width="16" height="16" viewBox="0 0 16 16" fill="none" xmlns="http://www.w3.org/2000/svg">
<path fill-rule="evenodd" clip-rule="evenodd" d="M7.35355 4.64645L10.3536 7.64645C10.5488 7.84171 10.5488 8.15829 10.3536 8.35355L7.35355 11.3536C7.15829 11.5488 6.84171 11.5488 6.64645 11.3536C6.45118 11.1583 6.45118 10.8417 6.64645 10.6464L9.29289 8L6.64645 5.35355C6.45118 5.15829 6.45118 4.84171 6.64645 4.64645C6.84171 4.45118 7.15829 4.45118 7.35355 4.64645Z" fill="#777B92"/>
<path fill-rule="evenodd" clip-rule="evenodd" d="M8 0.5C12.1421 0.5 15.5 3.85786 15.5 8C15.5 12.1421 12.1421 15.5 8 15.5C3.85786 15.5 0.5 12.1421 0.5 8C0.5 3.85786 3.85786 0.5 8 0.5ZM1.5 8C1.5 11.5899 4.41015 14.5 8 14.5C11.5899 14.5 14.5 11.5899 14.5 8C14.5 4.41015 11.5899 1.5 8 1.5C4.41015 1.5 1.5 4.41015 1.5 8Z" fill="#777B92"/>
</svg>
