<svg width="16" height="16" viewBox="0 0 16 16" fill="none" xmlns="http://www.w3.org/2000/svg">
<path fill-rule="evenodd" clip-rule="evenodd" d="M3.64645 2.64645C3.84171 2.45118 4.15829 2.45118 4.35355 2.64645L8 6.29289L11.6464 2.64645C11.8417 2.45118 12.1583 2.45118 12.3536 2.64645C12.5488 2.84171 12.5488 3.15829 12.3536 3.35355L8.35355 7.35355C8.15829 7.54882 7.84171 7.54882 7.64645 7.35355L3.64645 3.35355C3.45118 3.15829 3.45118 2.84171 3.64645 2.64645Z" fill="#777B92"/>
<path fill-rule="evenodd" clip-rule="evenodd" d="M3.5 12C3.5 11.7239 3.72386 11.5 4 11.5H12C12.2761 11.5 12.5 11.7239 12.5 12C12.5 12.2761 12.2761 12.5 12 12.5H4C3.72386 12.5 3.5 12.2761 3.5 12Z" fill="#777B92"/>
<path fill-rule="evenodd" clip-rule="evenodd" d="M4 14.5H12C12.2761 14.5 12.5 14.7239 12.5 15C12.5 15.2761 12.2761 15.5 12 15.5H4C3.72386 15.5 3.5 15.2761 3.5 15C3.5 14.7239 3.72386 14.5 4 14.5Z" fill="#777B92"/>
</svg>
