<svg width="16" height="16" viewBox="0 0 16 16" fill="none" xmlns="http://www.w3.org/2000/svg">
<path fill-rule="evenodd" clip-rule="evenodd" d="M14.3536 4.35355L10.7071 8L14.3536 11.6464C14.5488 11.8417 14.5488 12.1583 14.3536 12.3536C14.1583 12.5488 13.8417 12.5488 13.6464 12.3536L9.64645 8.35355C9.45118 8.15829 9.45118 7.84171 9.64645 7.64645L13.6464 3.64645C13.8417 3.45118 14.1583 3.45118 14.3536 3.64645C14.5488 3.84171 14.5488 4.15829 14.3536 4.35355Z" fill="#777B92"/>
<path fill-rule="evenodd" clip-rule="evenodd" d="M2.35355 3.64645L6.35355 7.64645C6.54882 7.84171 6.54882 8.15829 6.35355 8.35355L2.35355 12.3536C2.15829 12.5488 1.84171 12.5488 1.64645 12.3536C1.45118 12.1583 1.45118 11.8417 1.64645 11.6464L5.29289 8L1.64645 4.35355C1.45119 4.15829 1.45119 3.84171 1.64645 3.64645C1.84171 3.45118 2.15829 3.45118 2.35355 3.64645Z" fill="#777B92"/>
</svg>
