<svg width="16" height="16" viewBox="0 0 16 16" fill="none" xmlns="http://www.w3.org/2000/svg">
<path fill-rule="evenodd" clip-rule="evenodd" d="M7.35355 4.35355L3.70711 8L7.35355 11.6464C7.54881 11.8417 7.54881 12.1583 7.35355 12.3536C7.15829 12.5488 6.84171 12.5488 6.64645 12.3536L2.64645 8.35355C2.45118 8.15829 2.45118 7.84171 2.64645 7.64645L6.64645 3.64645C6.84171 3.45118 7.15829 3.45118 7.35355 3.64645C7.54882 3.84171 7.54882 4.15829 7.35355 4.35355Z" fill="#777B92"/>
<path fill-rule="evenodd" clip-rule="evenodd" d="M13.3536 4.35355L9.70711 8L13.3536 11.6464C13.5488 11.8417 13.5488 12.1583 13.3536 12.3536C13.1583 12.5488 12.8417 12.5488 12.6464 12.3536L8.64645 8.35355C8.45118 8.15829 8.45118 7.84171 8.64645 7.64645L12.6464 3.64645C12.8417 3.45118 13.1583 3.45118 13.3536 3.64645C13.5488 3.84171 13.5488 4.15829 13.3536 4.35355Z" fill="#777B92"/>
</svg>
