<svg width="16" height="16" viewBox="0 0 16 16" fill="none" xmlns="http://www.w3.org/2000/svg">
<path fill-rule="evenodd" clip-rule="evenodd" d="M6.35355 4.35355L2.70711 8L6.35355 11.6464C6.54882 11.8417 6.54882 12.1583 6.35355 12.3536C6.15829 12.5488 5.84171 12.5488 5.64645 12.3536L1.64645 8.35355C1.45118 8.15829 1.45118 7.84171 1.64645 7.64645L5.64645 3.64645C5.84171 3.45118 6.15829 3.45118 6.35355 3.64645C6.54882 3.84171 6.54882 4.15829 6.35355 4.35355Z" fill="#777B92"/>
<path fill-rule="evenodd" clip-rule="evenodd" d="M10.3536 3.64645L14.3536 7.64645C14.5488 7.84171 14.5488 8.15829 14.3536 8.35355L10.3536 12.3536C10.1583 12.5488 9.84171 12.5488 9.64645 12.3536C9.45118 12.1583 9.45118 11.8417 9.64645 11.6464L13.2929 8L9.64645 4.35355C9.45118 4.15829 9.45118 3.84171 9.64645 3.64645C9.84171 3.45118 10.1583 3.45118 10.3536 3.64645Z" fill="#777B92"/>
</svg>
