<svg width="16" height="16" viewBox="0 0 16 16" fill="none" xmlns="http://www.w3.org/2000/svg">
<path fill-rule="evenodd" clip-rule="evenodd" d="M4.35355 7.35355C4.15829 7.54882 3.84171 7.54882 3.64645 7.35355C3.45118 7.15829 3.45118 6.84171 3.64645 6.64645L7.64645 2.64645C7.84171 2.45118 8.15829 2.45118 8.35355 2.64645L12.3536 6.64645C12.5488 6.84171 12.5488 7.15829 12.3536 7.35355C12.1583 7.54882 11.8417 7.54882 11.6464 7.35355L8 3.70711L4.35355 7.35355Z" fill="#777B92"/>
<path fill-rule="evenodd" clip-rule="evenodd" d="M4.35355 13.3536C4.15829 13.5488 3.84171 13.5488 3.64645 13.3536C3.45118 13.1583 3.45118 12.8417 3.64645 12.6464L7.64645 8.64645C7.84171 8.45118 8.15829 8.45118 8.35355 8.64645L12.3536 12.6464C12.5488 12.8417 12.5488 13.1583 12.3536 13.3536C12.1583 13.5488 11.8417 13.5488 11.6464 13.3536L8 9.70711L4.35355 13.3536Z" fill="#777B92"/>
</svg>
