<svg width="16" height="16" viewBox="0 0 16 16" fill="none" xmlns="http://www.w3.org/2000/svg">
<path fill-rule="evenodd" clip-rule="evenodd" d="M2.32009 2.6159L7.5 6.93249V3.00001C7.5 2.806 7.61223 2.6295 7.78792 2.54721C7.96361 2.46492 8.17105 2.49169 8.32009 2.6159L14.3201 7.6159C14.4341 7.71089 14.5 7.85162 14.5 8.00001C14.5 8.1484 14.4341 8.28912 14.3201 8.38412L8.32009 13.3841C8.17105 13.5083 7.96361 13.5351 7.78792 13.4528C7.61223 13.3705 7.5 13.194 7.5 13V9.06753L2.32009 13.3841C2.17105 13.5083 1.96361 13.5351 1.78792 13.4528C1.61223 13.3705 1.5 13.194 1.5 13V3.00001C1.5 2.806 1.61223 2.6295 1.78792 2.54721C1.96361 2.46492 2.17105 2.49169 2.32009 2.6159ZM8.5 11.9325L13.219 8.00001L8.5 4.06753V11.9325ZM2.5 11.9325L7.21898 8.00001L2.5 4.06753V11.9325Z" fill="#777B92"/>
</svg>
