<svg width="16" height="16" viewBox="0 0 16 16" fill="none" xmlns="http://www.w3.org/2000/svg">
<path fill-rule="evenodd" clip-rule="evenodd" d="M11.5 3V13C11.5 13.2761 11.2761 13.5 11 13.5C10.7239 13.5 10.5 13.2761 10.5 13V9.06753L5.32009 13.3841C5.17105 13.5083 4.96361 13.5351 4.78792 13.4528C4.61223 13.3705 4.5 13.194 4.5 13V3.00001C4.5 2.806 4.61223 2.6295 4.78792 2.54721C4.96361 2.46492 5.17105 2.49169 5.32009 2.6159L10.5 6.93249V3C10.5 2.72386 10.7239 2.5 11 2.5C11.2761 2.5 11.5 2.72386 11.5 3ZM5.5 11.9325L10.219 8.00001L5.5 4.06753V11.9325Z" fill="#777B92"/>
</svg>
