<svg width="16" height="16" viewBox="0 0 16 16" fill="none" xmlns="http://www.w3.org/2000/svg">
<path fill-rule="evenodd" clip-rule="evenodd" d="M8.5 3.00001V6.93249L13.6799 2.6159C13.8289 2.49169 14.0364 2.46492 14.2121 2.54721C14.3878 2.6295 14.5 2.806 14.5 3.00001V13C14.5 13.194 14.3878 13.3705 14.2121 13.4528C14.0364 13.5351 13.8289 13.5083 13.6799 13.3841L8.5 9.06753V13C8.5 13.194 8.38777 13.3705 8.21208 13.4528C8.03639 13.5351 7.82895 13.5083 7.67991 13.3841L1.67991 8.38412C1.56591 8.28912 1.5 8.1484 1.5 8.00001C1.5 7.85162 1.56591 7.71089 1.67991 7.6159L7.67991 2.6159C7.82895 2.49169 8.03639 2.46492 8.21208 2.54721C8.38777 2.6295 8.5 2.806 8.5 3.00001ZM7.5 4.06753L2.78102 8.00001L7.5 11.9325V4.06753ZM13.5 11.9325V4.06753L8.78102 8.00001L13.5 11.9325Z" fill="#777B92"/>
</svg>
