<svg width="16" height="16" viewBox="0 0 16 16" fill="none" xmlns="http://www.w3.org/2000/svg">
<path fill-rule="evenodd" clip-rule="evenodd" d="M6.44949 10.5H9.55051C8.90223 9.86474 8.5 8.97934 8.5 8C8.5 6.067 10.067 4.5 12 4.5C13.933 4.5 15.5 6.067 15.5 8C15.5 9.933 13.933 11.5 12 11.5H4C2.067 11.5 0.5 9.933 0.5 8C0.5 6.067 2.067 4.5 4 4.5C5.933 4.5 7.5 6.067 7.5 8C7.5 8.97934 7.09777 9.86474 6.44949 10.5ZM4 5.5C2.61929 5.5 1.5 6.61929 1.5 8C1.5 9.38071 2.61929 10.5 4 10.5C5.38071 10.5 6.5 9.38071 6.5 8C6.5 6.61929 5.38071 5.5 4 5.5ZM12 10.5C13.3807 10.5 14.5 9.38071 14.5 8C14.5 6.61929 13.3807 5.5 12 5.5C10.6193 5.5 9.5 6.61929 9.5 8C9.5 9.38071 10.6193 10.5 12 10.5Z" fill="#777B92"/>
</svg>
