<svg width="16" height="16" viewBox="0 0 16 16" fill="none" xmlns="http://www.w3.org/2000/svg">
<path fill-rule="evenodd" clip-rule="evenodd" d="M0.5 4C0.5 3.17157 1.17157 2.5 2 2.5H14C14.8284 2.5 15.5 3.17157 15.5 4V8C15.5 8.27614 15.2761 8.5 15 8.5C14.7239 8.5 14.5 8.27614 14.5 8V4.10821L8.85386 8.01707C8.34019 8.37269 7.6599 8.37269 7.14623 8.01707L1.5 4.10814V12C1.5 12.2761 1.72386 12.5 2 12.5H10C10.2761 12.5 10.5 12.7239 10.5 13C10.5 13.2761 10.2761 13.5 10 13.5H2C1.17157 13.5 0.5 12.8284 0.5 12V4ZM2.37839 3.5L7.71544 7.19488C7.88666 7.31342 8.11343 7.31342 8.28465 7.19488L13.6217 3.5H2.37839Z" fill="#777B92"/>
<path fill-rule="evenodd" clip-rule="evenodd" d="M12.5 13L10 10H15L12.5 13Z" fill="#777B92"/>
</svg>
