<svg width="16" height="16" viewBox="0 0 16 16" fill="none" xmlns="http://www.w3.org/2000/svg">
<path fill-rule="evenodd" clip-rule="evenodd" d="M1.5 8C1.5 11.5899 4.41015 14.5 8 14.5C9.66509 14.5 11.1829 13.8746 12.3332 12.845C12.539 12.6609 12.8551 12.6784 13.0392 12.8841C13.2234 13.0899 13.2059 13.406 13.0001 13.5901C11.6736 14.7775 9.92057 15.5 8 15.5C3.85786 15.5 0.5 12.1421 0.5 8C0.5 3.85786 3.85786 0.5 8 0.5C12.1421 0.5 15.5 3.85786 15.5 8C15.5 9.38071 14.3807 10.5 13 10.5C12.2399 10.5 11.559 10.1608 11.1005 9.62543C10.515 10.7399 9.34627 11.5 8 11.5C6.067 11.5 4.5 9.933 4.5 8C4.5 6.067 6.067 4.5 8 4.5C8.97934 4.5 9.86474 4.90223 10.5 5.55051V5C10.5 4.72386 10.7239 4.5 11 4.5C11.2761 4.5 11.5 4.72386 11.5 5V8C11.5 8.82843 12.1716 9.5 13 9.5C13.8284 9.5 14.5 8.82843 14.5 8C14.5 4.41015 11.5899 1.5 8 1.5C4.41015 1.5 1.5 4.41015 1.5 8ZM10.5 8C10.5 6.61929 9.38071 5.5 8 5.5C6.61929 5.5 5.5 6.61929 5.5 8C5.5 9.38071 6.61929 10.5 8 10.5C9.38071 10.5 10.5 9.38071 10.5 8Z" fill="#777B92"/>
</svg>
