<svg width="22" height="23" viewBox="0 0 22 23" fill="none" xmlns="http://www.w3.org/2000/svg">
<path fill-rule="evenodd" clip-rule="evenodd" d="M19.9823 18.8552L11.0294 3.02786C11.0195 3.0104 11.0127 3.00343 11.0115 3.00218C11.0112 3.0019 11.0116 3.00235 11.0115 3.00218C11.0102 3.00173 11.0059 3 11 3C10.9941 3 10.9905 3.00106 10.9892 3.00152C10.9891 3.00168 10.9895 3.00123 10.9892 3.00152C10.988 3.00276 10.9805 3.0104 10.9706 3.02786L2.0177 18.8552C2.00782 18.8727 2.00406 18.8845 2.0024 18.8911C2.00064 18.8981 1.99989 18.9048 2.00001 18.912C2.00029 18.9279 2.00519 18.95 2.0177 18.9721C2.02656 18.9878 2.03504 18.9962 2.03915 18.9997C2.04105 18.9999 2.04368 19 2.04712 19H19.9529C19.9563 19 19.9589 18.9999 19.9609 18.9997C19.965 18.9962 19.9734 18.9878 19.9823 18.9721C19.9948 18.95 19.9997 18.9279 20 18.912C20.0001 18.9048 19.9994 18.8981 19.9976 18.8911C19.9959 18.8845 19.9922 18.8727 19.9823 18.8552ZM12.7702 2.04316C11.9835 0.652279 10.0165 0.652281 9.22978 2.04316L0.276903 17.8705C-0.509861 19.2614 0.473596 21 2.04712 21H19.9529C21.5264 21 22.5099 19.2614 21.7231 17.8705L12.7702 2.04316Z" fill="#97A3BA"/>
<path d="M15.9257 16.6014L12.9702 12.1467C13.5177 11.2762 13.5308 10.13 12.9137 9.19994C12.2642 8.22089 11.0824 7.81756 10.0238 8.07668L11.4203 10.1816L9.96736 11.1713L8.53034 9.05838C7.85343 9.94591 7.8164 11.215 8.46597 12.194C9.08305 13.1241 10.1355 13.5445 11.1377 13.3593L14.0932 17.814C14.2232 18.0098 14.4659 18.0577 14.6596 17.9257L15.7736 17.167C16.0077 17.043 16.0636 16.7562 15.9257 16.6014Z" fill="#97A3BA"/>
</svg>
