<svg width="22" height="23" viewBox="0 0 22 23" fill="none" xmlns="http://www.w3.org/2000/svg">
<path d="M11.6338 10.1239V8.79288C11.6296 7.79546 11.2304 6.84033 10.5237 6.13653C9.81691 5.43273 8.8601 5.03759 7.86268 5.0376H6.5V6.40027C6.49999 7.3977 6.89513 8.35451 7.59893 9.06128C8.30273 9.76805 9.25786 10.1672 10.2553 10.1714H10.3662V13.5939C9.68174 12.9825 8.79632 12.6441 7.87852 12.6432H6.5V14.0218C6.49999 15.0192 6.89513 15.976 7.59893 16.6828C8.30273 17.3895 9.25786 17.7887 10.2553 17.7929H10.3662V18.8703H7.87852V20.1379H14.1215V18.8703H11.6338V14.2911H11.7447C12.7394 14.2869 13.6921 13.89 14.3955 13.1866C15.0988 12.4833 15.4958 11.5305 15.5 10.5358V9.15732H14.1373C13.212 9.15864 12.32 9.50302 11.6338 10.1239V10.1239ZM7.76761 6.40027V6.28936H7.87852C8.53975 6.29354 9.17246 6.55915 9.63854 7.0282C10.1046 7.49725 10.3662 8.13164 10.3662 8.79288V8.90379H10.2553C9.59406 8.89961 8.96134 8.634 8.49526 8.16495C8.02918 7.6959 7.76759 7.06151 7.76761 6.40027V6.40027ZM10.2553 16.5253C9.59406 16.5211 8.96134 16.2555 8.49526 15.7864C8.02918 15.3174 7.76759 14.683 7.76761 14.0218V13.9108H7.87852C8.53975 13.915 9.17246 14.1806 9.63854 14.6497C10.1046 15.1187 10.3662 15.7531 10.3662 16.4144V16.5253H10.2553ZM14.2324 10.5358C14.2282 11.1943 13.9648 11.8247 13.4992 12.2903C13.0335 12.7559 12.4032 13.0194 11.7447 13.0235H11.6338V12.9126C11.638 12.2514 11.9036 11.6187 12.3726 11.1526C12.8417 10.6865 13.4761 10.4249 14.1373 10.4249H14.2482L14.2324 10.5358Z" fill="#97A3BA"/>
<path d="M17 2.58789H5C4.20435 2.58789 3.44129 2.90396 2.87868 3.46657C2.31607 4.02918 2 4.79224 2 5.58789V17.5879C2 18.3835 2.31607 19.1466 2.87868 19.7092C3.44129 20.2718 4.20435 20.5879 5 20.5879H17C17.7956 20.5879 18.5587 20.2718 19.1213 19.7092C19.6839 19.1466 20 18.3835 20 17.5879V5.58789C20 4.79224 19.6839 4.02918 19.1213 3.46657C18.5587 2.90396 17.7956 2.58789 17 2.58789ZM18 17.5879C18 17.8531 17.8946 18.1075 17.7071 18.295C17.5196 18.4825 17.2652 18.5879 17 18.5879H5C4.73478 18.5879 4.48043 18.4825 4.29289 18.295C4.10536 18.1075 4 17.8531 4 17.5879V5.58789C4 5.32267 4.10536 5.06832 4.29289 4.88078C4.48043 4.69325 4.73478 4.58789 5 4.58789H17C17.2652 4.58789 17.5196 4.69325 17.7071 4.88078C17.8946 5.06832 18 5.32267 18 5.58789V17.5879Z" fill="#97A3BA"/>
</svg>
