<svg width="22" height="23" viewBox="0 0 22 23" fill="none" xmlns="http://www.w3.org/2000/svg">
<path d="M18.9999 4.58789C18.9999 4.32267 18.8946 4.06832 18.707 3.88078C18.5195 3.69325 18.2652 3.58789 17.9999 3.58789H12.9999C12.7347 3.58789 12.4804 3.69325 12.2928 3.88078C12.1053 4.06832 11.9999 4.32267 11.9999 4.58789C11.9999 4.85311 12.1053 5.10746 12.2928 5.295C12.4804 5.48253 12.7347 5.58789 12.9999 5.58789H15.5699L12.2899 8.87789C12.1962 8.97085 12.1218 9.08145 12.071 9.20331C12.0203 9.32517 11.9941 9.45588 11.9941 9.58789C11.9941 9.7199 12.0203 9.85061 12.071 9.97247C12.1218 10.0943 12.1962 10.2049 12.2899 10.2979C12.3829 10.3916 12.4935 10.466 12.6154 10.5168C12.7372 10.5676 12.8679 10.5937 12.9999 10.5937C13.132 10.5937 13.2627 10.5676 13.3845 10.5168C13.5064 10.466 13.617 10.3916 13.7099 10.2979L16.9999 7.00789V9.58789C16.9999 9.85311 17.1053 10.1075 17.2928 10.295C17.4804 10.4825 17.7347 10.5879 17.9999 10.5879C18.2652 10.5879 18.5195 10.4825 18.707 10.295C18.8946 10.1075 18.9999 9.85311 18.9999 9.58789V4.58789Z" fill="#97A3BA"/>
<path d="M9.71 12.8778C9.61704 12.7841 9.50644 12.7097 9.38458 12.6589C9.26272 12.6082 9.13201 12.582 9 12.582C8.86799 12.582 8.73728 12.6082 8.61542 12.6589C8.49356 12.7097 8.38296 12.7841 8.29 12.8778L5 16.1578V13.5878C5 13.3226 4.89464 13.0683 4.70711 12.8807C4.51957 12.6932 4.26522 12.5878 4 12.5878C3.73478 12.5878 3.48043 12.6932 3.29289 12.8807C3.10536 13.0683 3 13.3226 3 13.5878V18.5878C3 18.853 3.10536 19.1074 3.29289 19.2949C3.48043 19.4825 3.73478 19.5878 4 19.5878H9C9.26522 19.5878 9.51957 19.4825 9.70711 19.2949C9.89464 19.1074 10 18.853 10 18.5878C10 18.3226 9.89464 18.0683 9.70711 17.8807C9.51957 17.6932 9.26522 17.5878 9 17.5878H6.42L9.71 14.2978C9.80373 14.2049 9.87812 14.0943 9.92889 13.9724C9.97966 13.8505 10.0058 13.7198 10.0058 13.5878C10.0058 13.4558 9.97966 13.3251 9.92889 13.2033C9.87812 13.0814 9.80373 12.9708 9.71 12.8778V12.8778Z" fill="#97A3BA"/>
<path d="M18 19.5878C18.2652 19.5878 18.5196 19.4825 18.7071 19.2949C18.8946 19.1074 19 18.853 19 18.5878L19 13.5878C19 13.3226 18.8946 13.0683 18.7071 12.8807C18.5196 12.6932 18.2652 12.5878 18 12.5878C17.7348 12.5878 17.4804 12.6932 17.2929 12.8807C17.1054 13.0683 17 13.3226 17 13.5878L17 16.1578L13.71 12.8778C13.617 12.7841 13.5064 12.7097 13.3846 12.6589C13.2627 12.6082 13.132 12.582 13 12.582C12.868 12.582 12.7373 12.6082 12.6154 12.6589C12.4936 12.7097 12.383 12.7841 12.29 12.8778C12.1963 12.9708 12.1219 13.0814 12.0711 13.2033C12.0203 13.3251 11.9942 13.4558 11.9942 13.5878C11.9942 13.7198 12.0203 13.8505 12.0711 13.9724C12.1219 14.0943 12.1963 14.2049 12.29 14.2978L15.58 17.5878L13 17.5878C12.7348 17.5878 12.4804 17.6932 12.2929 17.8807C12.1054 18.0683 12 18.3226 12 18.5878C12 18.853 12.1054 19.1074 12.2929 19.2949C12.4804 19.4825 12.7348 19.5878 13 19.5878L18 19.5878Z" fill="#97A3BA"/>
<path d="M9.71006 10.2979C9.80379 10.2049 9.87818 10.0943 9.92895 9.97247C9.97972 9.85061 10.0059 9.7199 10.0059 9.58789C10.0059 9.45588 9.97972 9.32517 9.92895 9.20331C9.87818 9.08145 9.80379 8.97085 9.71006 8.87789L6.43006 5.58789L9.00006 5.58789C9.26528 5.58789 9.51963 5.48253 9.70717 5.295C9.8947 5.10746 10.0001 4.85311 10.0001 4.58789C10.0001 4.32267 9.8947 4.06832 9.70717 3.88078C9.51963 3.69325 9.26528 3.58789 9.00006 3.58789L4.00006 3.58789C3.73484 3.58789 3.48049 3.69325 3.29295 3.88078C3.10542 4.06832 3.00006 4.32267 3.00006 4.58789L3.00006 9.58789C3.00006 9.85311 3.10542 10.1075 3.29295 10.295C3.48049 10.4825 3.73484 10.5879 4.00006 10.5879C4.26528 10.5879 4.51963 10.4825 4.70717 10.295C4.8947 10.1075 5.00006 9.85311 5.00006 9.58789L5.00006 7.00789L8.29006 10.2979C8.38302 10.3916 8.49362 10.466 8.61548 10.5168C8.73734 10.5676 8.86805 10.5937 9.00006 10.5937C9.13207 10.5937 9.26278 10.5676 9.38464 10.5168C9.5065 10.466 9.6171 10.3916 9.71006 10.2979V10.2979Z" fill="#97A3BA"/>
</svg>
