<svg width="22" height="22" viewBox="0 0 22 22" fill="none" xmlns="http://www.w3.org/2000/svg">
<path d="M11.0003 1C11.5526 1 12.0003 1.44772 12.0003 2V8.13148L13.4456 7.16795C13.9051 6.8616 14.526 6.98577 14.8324 7.4453C15.1387 7.90483 15.0145 8.5257 14.555 8.83205L11.555 10.8321C11.2191 11.056 10.7815 11.056 10.4456 10.8321L7.44562 8.83205C6.98609 8.5257 6.86192 7.90483 7.16827 7.4453C7.47462 6.98577 8.09549 6.8616 8.55502 7.16795L10.0003 8.13148V2C10.0003 1.44772 10.448 1 11.0003 1Z" fill="#7887A5"/>
<path fill-rule="evenodd" clip-rule="evenodd" d="M17.555 7.16806L20.5479 9.16334C20.5692 9.17723 20.5898 9.19186 20.6097 9.20718C20.8695 9.40643 21.0066 9.71241 21.0002 10.0216V16C21.0002 16.3589 20.8079 16.6902 20.4964 16.8682L13.4964 20.8682C13.1868 21.0451 12.8066 21.0438 12.4983 20.8649C12.19 20.686 12.0002 20.3565 12.0002 20V14C12.0002 13.6411 12.1925 13.3098 12.5041 13.1318L18.0992 9.93454L16.4456 8.83216C15.9861 8.5258 15.8619 7.90493 16.1683 7.44541C16.4746 6.98588 17.0955 6.8617 17.555 7.16806ZM19.0002 11.7232V15.4197L14.0002 18.2768V14.5803L19.0002 11.7232Z" fill="#7887A5"/>
<path fill-rule="evenodd" clip-rule="evenodd" d="M1.45246 9.16335L4.44541 7.16806C4.90493 6.8617 5.5258 6.98588 5.83216 7.44541C6.13851 7.90493 6.01434 8.5258 5.55481 8.83216L3.90123 9.93454L9.49635 13.1318C9.80793 13.3098 10.0002 13.6411 10.0002 14V20C10.0002 20.3565 9.81045 20.686 9.50214 20.8649C9.19382 21.0438 8.81358 21.0451 8.50407 20.8682L1.50407 16.8682C1.1925 16.6902 1.00021 16.3589 1.00021 16V10.0217C0.993837 9.71246 1.13091 9.40644 1.39073 9.20718C1.41066 9.19186 1.43125 9.17724 1.45246 9.16335ZM3.00021 15.4197V11.7232L8.00021 14.5803V18.2768L3.00021 15.4197Z" fill="#7887A5"/>
</svg>
