<svg width="22" height="22" viewBox="0 0 22 22" fill="none" xmlns="http://www.w3.org/2000/svg">
<path d="M13.7071 10.2929C14.0976 10.6834 14.0976 11.3166 13.7071 11.7071L12.4142 13L13.7071 14.2929C14.0976 14.6834 14.0976 15.3166 13.7071 15.7071C13.3166 16.0976 12.6834 16.0976 12.2929 15.7071L11 14.4142L9.70711 15.7071C9.31658 16.0976 8.68342 16.0976 8.29289 15.7071C7.90237 15.3166 7.90237 14.6834 8.29289 14.2929L9.58579 13L8.29289 11.7071C7.90237 11.3166 7.90237 10.6834 8.29289 10.2929C8.68342 9.90237 9.31658 9.90237 9.70711 10.2929L11 11.5858L12.2929 10.2929C12.6834 9.90237 13.3166 9.90237 13.7071 10.2929Z" fill="#7887A5"/>
<path fill-rule="evenodd" clip-rule="evenodd" d="M21.5607 15.3026L13.886 2.58262C13.5756 2.09744 13.1481 1.69815 12.6427 1.42156C12.1373 1.14498 11.5704 1 10.9942 1C10.418 1 9.85106 1.14498 9.34568 1.42156C8.8403 1.69815 8.41273 2.09744 8.1024 2.58262L0.427668 15.3026C0.156555 15.7543 0.00919932 16.2693 0.000416937 16.7959C-0.00836545 17.3225 0.121735 17.8422 0.377637 18.3026C0.673499 18.8209 1.10174 19.2514 1.6186 19.55C2.13546 19.8487 2.72241 20.0049 3.31945 20.0026H18.6689C19.262 20.0089 19.8463 19.8588 20.3628 19.5674C20.8793 19.2759 21.3098 18.8534 21.6107 18.3426C21.8741 17.8774 22.0084 17.3503 21.9996 16.8158C21.9908 16.2814 21.8393 15.7589 21.5607 15.3026ZM19.8596 17.3526C19.7394 17.5592 19.5649 17.729 19.355 17.8436C19.1451 17.9581 18.9078 18.0131 18.6689 18.0026H3.31945C3.08052 18.0131 2.84327 17.9581 2.63339 17.8436C2.4235 17.729 2.24898 17.5592 2.12872 17.3526C2.04089 17.2006 1.99466 17.0282 1.99466 16.8526C1.99466 16.6771 2.04089 16.5046 2.12872 16.3526L9.81345 3.62262C9.95154 3.44033 10.13 3.29249 10.3349 3.1907C10.5397 3.08891 10.7654 3.03593 10.9942 3.03593C11.223 3.03593 11.4486 3.08891 11.6535 3.1907C11.8583 3.29249 12.0368 3.44033 12.1749 3.62262L19.8496 16.3426C19.9408 16.4949 19.9898 16.6688 19.9916 16.8463C19.9934 17.0238 19.9478 17.1985 19.8596 17.3526Z" fill="#7887A5"/>
</svg>
