<svg width="22" height="23" viewBox="0 0 22 23" fill="none" xmlns="http://www.w3.org/2000/svg">
<path d="M11 1.58789C8.89206 1.58779 6.86926 2.41965 5.37124 3.90268C3.87323 5.38571 3.02108 7.40005 3 9.50789C3 14.9879 10.05 21.0879 10.35 21.3479C10.5311 21.5028 10.7616 21.588 11 21.588C11.2384 21.588 11.4689 21.5028 11.65 21.3479C12 21.0879 19 14.9879 19 9.50789C18.9789 7.40005 18.1268 5.38571 16.6288 3.90268C15.1307 2.41965 13.1079 1.58779 11 1.58789ZM11 19.2379C9.33 17.6479 5 13.2379 5 9.50789C5 7.91659 5.63214 6.39047 6.75736 5.26525C7.88258 4.14003 9.4087 3.50789 11 3.50789C12.5913 3.50789 14.1174 4.14003 15.2426 5.26525C16.3679 6.39047 17 7.91659 17 9.50789C17 13.2079 12.67 17.6479 11 19.2379Z" fill="#97A3BA"/>
<path d="M11 5.58789C10.3078 5.58789 9.63108 5.79316 9.05551 6.17775C8.47993 6.56233 8.03133 7.10896 7.76642 7.7485C7.50152 8.38804 7.4322 9.09177 7.56725 9.77071C7.7023 10.4496 8.03564 11.0733 8.52513 11.5628C9.01461 12.0522 9.63825 12.3856 10.3172 12.5206C10.9961 12.6557 11.6999 12.5864 12.3394 12.3215C12.9789 12.0566 13.5256 11.608 13.9101 11.0324C14.2947 10.4568 14.5 9.78013 14.5 9.08789C14.5 8.15963 14.1313 7.26939 13.4749 6.61302C12.8185 5.95664 11.9283 5.58789 11 5.58789V5.58789ZM11 10.5879C10.7033 10.5879 10.4133 10.4999 10.1666 10.3351C9.91997 10.1703 9.72771 9.936 9.61418 9.66192C9.50065 9.38783 9.47095 9.08623 9.52882 8.79525C9.5867 8.50428 9.72956 8.23701 9.93934 8.02723C10.1491 7.81745 10.4164 7.67459 10.7074 7.61671C10.9983 7.55883 11.2999 7.58854 11.574 7.70207C11.8481 7.8156 12.0824 8.00786 12.2472 8.25454C12.412 8.50121 12.5 8.79122 12.5 9.08789C12.5 9.48572 12.342 9.86725 12.0607 10.1486C11.7794 10.4299 11.3978 10.5879 11 10.5879Z" fill="#97A3BA"/>
</svg>
