<svg width="22" height="23" viewBox="0 0 22 23" fill="none" xmlns="http://www.w3.org/2000/svg">
<path d="M11 1.58789C8.89206 1.58779 6.86926 2.41965 5.37124 3.90268C3.87323 5.38571 3.02108 7.40005 3 9.50789C3 14.9879 10.05 21.0879 10.35 21.3479C10.5311 21.5028 10.7616 21.588 11 21.588C11.2384 21.588 11.4689 21.5028 11.65 21.3479C12 21.0879 19 14.9879 19 9.50789C18.9789 7.40005 18.1268 5.38571 16.6288 3.90268C15.1307 2.41965 13.1079 1.58779 11 1.58789ZM11 19.2379C9.33 17.6479 5 13.2379 5 9.50789C5 7.91659 5.63214 6.39047 6.75736 5.26525C7.88258 4.14003 9.4087 3.50789 11 3.50789C12.5913 3.50789 14.1174 4.14003 15.2426 5.26525C16.3679 6.39047 17 7.91659 17 9.50789C17 13.2079 12.67 17.6479 11 19.2379Z" fill="#97A3BA"/>
<rect x="10" y="6.46582" width="2" height="5" rx="1" fill="#97A3BA"/>
<circle cx="11" cy="13.4658" r="1" fill="#97A3BA"/>
</svg>
