<svg width="22" height="24" viewBox="0 0 22 24" fill="none" xmlns="http://www.w3.org/2000/svg">
<path fill-rule="evenodd" clip-rule="evenodd" d="M5.47075 4.09271L5.01332 11.4361L8.03206 9.67169L10.991 21.8812L13.4203 18.0318L17.928 17.8266L8.9627 9.12775L11.9814 7.36336L5.47075 4.09271ZM4.42487 2.25882C3.87666 2.57924 3.49905 3.16866 3.46741 3.87096L3.00195 11.3431L3.00148 11.3555C2.94458 12.8445 4.53838 14.067 5.95972 13.2362L6.71594 12.7942L9.051 22.4295C9.25224 23.2599 9.89075 23.8072 10.5984 23.9577C11.3123 24.1096 12.1379 23.8586 12.6101 23.1011L14.5544 20.0203L18.1619 19.8561C19.0461 19.8209 19.6737 19.2226 19.9007 18.5207C20.1257 17.825 19.9768 16.9916 19.3671 16.4L12.292 9.53515L13.0482 9.09316C14.4695 8.26241 14.2206 6.25385 12.9185 5.55926L12.9076 5.55348L6.28271 2.22546C5.66614 1.90207 4.97311 1.93838 4.42487 2.25882Z" fill="#97A3BA"/>
</svg>
