<svg width="24" height="24" viewBox="0 0 24 24" fill="none" xmlns="http://www.w3.org/2000/svg">
<path fill-rule="evenodd" clip-rule="evenodd" d="M10 7C9.44772 7 9 6.55228 9 6C9 5.44772 9.44772 5 10 5C10.5523 5 11 5.44772 11 6C11 6.55228 10.5523 7 10 7Z" fill="#777B92"/>
<path fill-rule="evenodd" clip-rule="evenodd" d="M14 7C13.4477 7 13 6.55228 13 6C13 5.44772 13.4477 5 14 5C14.5523 5 15 5.44772 15 6C15 6.55228 14.5523 7 14 7Z" fill="#777B92"/>
<path fill-rule="evenodd" clip-rule="evenodd" d="M11 10C11 10.5523 10.5523 11 10 11C9.44772 11 9 10.5523 9 10C9 9.44772 9.44772 9 10 9C10.5523 9 11 9.44772 11 10Z" fill="#777B92"/>
<path fill-rule="evenodd" clip-rule="evenodd" d="M14 11C13.4477 11 13 10.5523 13 10C13 9.44772 13.4477 9 14 9C14.5523 9 15 9.44772 15 10C15 10.5523 14.5523 11 14 11Z" fill="#777B92"/>
<path fill-rule="evenodd" clip-rule="evenodd" d="M11 14C11 14.5523 10.5523 15 10 15C9.44772 15 9 14.5523 9 14C9 13.4477 9.44772 13 10 13C10.5523 13 11 13.4477 11 14Z" fill="#777B92"/>
<path fill-rule="evenodd" clip-rule="evenodd" d="M14 15C13.4477 15 13 14.5523 13 14C13 13.4477 13.4477 13 14 13C14.5523 13 15 13.4477 15 14C15 14.5523 14.5523 15 14 15Z" fill="#777B92"/>
<path fill-rule="evenodd" clip-rule="evenodd" d="M11 18C11 18.5523 10.5523 19 10 19C9.44772 19 9 18.5523 9 18C9 17.4477 9.44772 17 10 17C10.5523 17 11 17.4477 11 18Z" fill="#777B92"/>
<path fill-rule="evenodd" clip-rule="evenodd" d="M14 19C13.4477 19 13 18.5523 13 18C13 17.4477 13.4477 17 14 17C14.5523 17 15 17.4477 15 18C15 18.5523 14.5523 19 14 19Z" fill="#777B92"/>
</svg>
