<svg width="24" height="24" viewBox="0 0 24 24" fill="none" xmlns="http://www.w3.org/2000/svg">
<path fill-rule="evenodd" clip-rule="evenodd" d="M9 3V5C9 5.55228 8.55228 6 8 6C7.44772 6 7 5.55228 7 5V3C7 2.44772 7.44772 2 8 2C8.55228 2 9 2.44772 9 3Z" fill="#777B92"/>
<path fill-rule="evenodd" clip-rule="evenodd" d="M3.70711 2.29289L5.70711 4.29289C6.09763 4.68342 6.09763 5.31658 5.70711 5.70711C5.31658 6.09763 4.68342 6.09763 4.29289 5.70711L2.29289 3.70711C1.90237 3.31658 1.90237 2.68342 2.29289 2.29289C2.68342 1.90237 3.31658 1.90237 3.70711 2.29289Z" fill="#777B92"/>
<path fill-rule="evenodd" clip-rule="evenodd" d="M13.2071 5.20666L11.7071 6.70666C11.3166 7.09718 10.6834 7.09718 10.2929 6.70666C9.90237 6.31614 9.90237 5.68297 10.2929 5.29245L11.7929 3.79244C14.1164 1.46892 17.8836 1.46893 20.2071 3.79245C22.5306 6.11597 22.5306 9.88314 20.2071 12.2067L18.7071 13.7067C18.3166 14.0972 17.6834 14.0972 17.2929 13.7067C16.9024 13.3161 16.9024 12.683 17.2929 12.2924L18.7929 10.7924C20.3354 9.24997 20.3354 6.74913 18.7929 5.20666C17.2504 3.66419 14.7496 3.66419 13.2071 5.20666Z" fill="#777B92"/>
<path fill-rule="evenodd" clip-rule="evenodd" d="M6.70715 11.7071L5.20715 13.2071C3.66467 14.7496 3.66468 17.2504 5.20715 18.7929C6.74962 20.3354 9.25046 20.3354 10.7929 18.7929L12.2929 17.2929C12.6835 16.9024 13.3166 16.9024 13.7071 17.2929C14.0977 17.6834 14.0977 18.3166 13.7071 18.7071L12.2071 20.2071C9.88363 22.5306 6.11646 22.5306 3.79293 20.2071C1.46941 17.8836 1.46941 14.1164 3.79293 11.7929L5.29293 10.2929C5.68346 9.90237 6.31662 9.90237 6.70715 10.2929C7.09767 10.6834 7.09767 11.3166 6.70715 11.7071Z" fill="#777B92"/>
<path fill-rule="evenodd" clip-rule="evenodd" d="M19.7071 18.2929L21.7071 20.2929C22.0976 20.6834 22.0976 21.3166 21.7071 21.7071C21.3166 22.0976 20.6834 22.0976 20.2929 21.7071L18.2929 19.7071C17.9024 19.3166 17.9024 18.6834 18.2929 18.2929C18.6834 17.9024 19.3166 17.9024 19.7071 18.2929Z" fill="#777B92"/>
<path fill-rule="evenodd" clip-rule="evenodd" d="M18 16C18 15.4477 18.4477 15 19 15H21C21.5523 15 22 15.4477 22 16C22 16.5523 21.5523 17 21 17H19C18.4477 17 18 16.5523 18 16Z" fill="#777B92"/>
<path fill-rule="evenodd" clip-rule="evenodd" d="M3 7H5C5.55228 7 6 7.44772 6 8C6 8.55228 5.55228 9 5 9H3C2.44772 9 2 8.55228 2 8C2 7.44772 2.44772 7 3 7Z" fill="#777B92"/>
<path fill-rule="evenodd" clip-rule="evenodd" d="M16 18C16.5523 18 17 18.4477 17 19V21C17 21.5523 16.5523 22 16 22C15.4477 22 15 21.5523 15 21V19C15 18.4477 15.4477 18 16 18Z" fill="#777B92"/>
</svg>
