<svg width="24" height="24" viewBox="0 0 24 24" fill="none" xmlns="http://www.w3.org/2000/svg">
<path fill-rule="evenodd" clip-rule="evenodd" d="M4 2H9C10.1046 2 11 2.89543 11 4V6C11 7.10457 10.1046 8 9 8H4C2.89543 8 2 7.10457 2 6V4C2 2.89543 2.89543 2 4 2ZM4 4V6H9V4H4Z" fill="#777B92"/>
<path fill-rule="evenodd" clip-rule="evenodd" d="M4 10H9C10.1046 10 11 10.8954 11 12V20C11 21.1046 10.1046 22 9 22H4C2.89543 22 2 21.1046 2 20V12C2 10.8954 2.89543 10 4 10ZM4 12V20H9V12H4Z" fill="#777B92"/>
<path fill-rule="evenodd" clip-rule="evenodd" d="M13 4C13 2.89543 13.8954 2 15 2H20C21.1046 2 22 2.89543 22 4V10C22 11.1046 21.1046 12 20 12H15C13.8954 12 13 11.1046 13 10V4ZM20 4H15V10H20V4Z" fill="#777B92"/>
<path fill-rule="evenodd" clip-rule="evenodd" d="M15 14H20C21.1046 14 22 14.8954 22 16V20C22 21.1046 21.1046 22 20 22H15C13.8954 22 13 21.1046 13 20V16C13 14.8954 13.8954 14 15 14ZM15 16V20H20V16H15Z" fill="#777B92"/>
</svg>
