<svg width="24" height="24" viewBox="0 0 24 24" fill="none" xmlns="http://www.w3.org/2000/svg">
<path fill-rule="evenodd" clip-rule="evenodd" d="M5 3H19C20.1046 3 21 3.89543 21 5V11C21 11.5523 20.5523 12 20 12C19.4477 12 19 11.5523 19 11V10H16V11C16 11.5523 15.5523 12 15 12C14.4477 12 14 11.5523 14 11V10H10V19H12C12.5523 19 13 19.4477 13 20C13 20.5523 12.5523 21 12 21H5C3.89543 21 3 20.1046 3 19V5C3 3.89543 3.89543 3 5 3ZM19 8V5H5V8H19ZM8 10H5V19H8V10Z" fill="#777B92"/>
<path fill-rule="evenodd" clip-rule="evenodd" d="M14 17C14 14.7909 15.7909 13 18 13C20.2091 13 22 14.7909 22 17C22 17.7418 21.7981 18.4365 21.4462 19.032L22.7071 20.2929C23.0976 20.6834 23.0976 21.3166 22.7071 21.7071C22.3166 22.0976 21.6834 22.0976 21.2929 21.7071L20.032 20.4462C19.4365 20.7981 18.7418 21 18 21C15.7909 21 14 19.2091 14 17ZM18 15C16.8954 15 16 15.8954 16 17C16 18.1046 16.8954 19 18 19C19.1046 19 20 18.1046 20 17C20 15.8954 19.1046 15 18 15Z" fill="#777B92"/>
</svg>
