<svg width="24" height="24" viewBox="0 0 24 24" fill="none" xmlns="http://www.w3.org/2000/svg">
<path fill-rule="evenodd" clip-rule="evenodd" d="M15.3512 3.06394C15.8683 3.25786 16.1303 3.83427 15.9364 4.35139L9.93636 20.3514C9.74244 20.8685 9.16602 21.1305 8.6489 20.9366C8.13178 20.7427 7.86978 20.1663 8.0637 19.6491L14.0637 3.64915C14.2576 3.13203 14.834 2.87002 15.3512 3.06394Z" fill="#777B92"/>
<path fill-rule="evenodd" clip-rule="evenodd" d="M6.51444 6.14266C6.98802 6.42681 7.14159 7.04107 6.85744 7.51465L4.16614 12.0002L6.85744 16.4857C7.14159 16.9592 6.98802 17.5735 6.51444 17.8576C6.04086 18.1418 5.4266 17.9882 5.14245 17.5146L2.45115 13.0291C2.07113 12.3958 2.07113 11.6045 2.45115 10.9712L5.14245 6.48566C5.4266 6.01208 6.04086 5.85851 6.51444 6.14266Z" fill="#777B92"/>
<path fill-rule="evenodd" clip-rule="evenodd" d="M18.8575 6.48566L21.5488 10.9712C21.9288 11.6045 21.9288 12.3958 21.5488 13.0291L18.8575 17.5146C18.5734 17.9882 17.9591 18.1418 17.4855 17.8576C17.012 17.5735 16.8584 16.9592 17.1425 16.4857L19.8338 12.0002L17.1425 7.51465C16.8584 7.04107 17.012 6.42681 17.4855 6.14266C17.9591 5.85851 18.5734 6.01208 18.8575 6.48566Z" fill="#777B92"/>
</svg>
