<svg width="24" height="24" viewBox="0 0 24 24" fill="none" xmlns="http://www.w3.org/2000/svg">
<path fill-rule="evenodd" clip-rule="evenodd" d="M3 1H13C14.1046 1 15 1.89543 15 3V5C15 6.10457 14.1046 7 13 7H3C1.89543 7 1 6.10457 1 5V3C1 1.89543 1.89543 1 3 1ZM3 3V5H13V3H3Z" fill="#777B92"/>
<path fill-rule="evenodd" clip-rule="evenodd" d="M19 1H21C22.1046 1 23 1.89543 23 3V5C23 6.10457 22.1046 7 21 7H19C17.8954 7 17 6.10457 17 5V3C17 1.89543 17.8954 1 19 1ZM19 3V5H21V3H19Z" fill="#777B92"/>
<path fill-rule="evenodd" clip-rule="evenodd" d="M1 11C1 9.89543 1.89543 9 3 9H13C14.1046 9 15 9.89543 15 11V13C15 14.1046 14.1046 15 13 15H3C1.89543 15 1 14.1046 1 13V11ZM13 11H3V13H13V11Z" fill="#777B92"/>
<path fill-rule="evenodd" clip-rule="evenodd" d="M19 9H21C22.1046 9 23 9.89543 23 11V13C23 14.1046 22.1046 15 21 15H19C17.8954 15 17 14.1046 17 13V11C17 9.89543 17.8954 9 19 9ZM19 11V13H21V11H19Z" fill="#777B92"/>
<path fill-rule="evenodd" clip-rule="evenodd" d="M1 19C1 17.8954 1.89543 17 3 17H13C14.1046 17 15 17.8954 15 19V21C15 22.1046 14.1046 23 13 23H3C1.89543 23 1 22.1046 1 21V19ZM13 19H3V21H13V19Z" fill="#777B92"/>
<path fill-rule="evenodd" clip-rule="evenodd" d="M19 17H21C22.1046 17 23 17.8954 23 19V21C23 22.1046 22.1046 23 21 23H19C17.8954 23 17 22.1046 17 21V19C17 17.8954 17.8954 17 19 17ZM19 19V21H21V19H19Z" fill="#777B92"/>
</svg>
