<svg width="24" height="24" viewBox="0 0 24 24" fill="none" xmlns="http://www.w3.org/2000/svg">
<path fill-rule="evenodd" clip-rule="evenodd" d="M4 2H9C9.14652 2 9.28567 2.03151 9.41106 2.08812C9.59725 2.03084 9.79502 2 10 2H20C21.1046 2 22 2.89543 22 4V12C22 13.1046 21.1046 14 20 14H10C8.89543 14 8 13.1046 8 12H4C2.89543 12 2 11.1046 2 10V4C2 2.89543 2.89543 2 4 2ZM20 12V4H16V12H20ZM14 12V4H10V12H14ZM8 4L4 4V10H8V4Z" fill="#777B92"/>
<path fill-rule="evenodd" clip-rule="evenodd" d="M14.7071 17.7071L14.4142 18H18C18.5523 18 19 18.4477 19 19C19 19.5523 18.5523 20 18 20H14.4142L14.7071 20.2929C15.0976 20.6834 15.0976 21.3166 14.7071 21.7071C14.3166 22.0976 13.6834 22.0976 13.2929 21.7071L11.2929 19.7071C11.1054 19.5196 11 19.2652 11 19C11 18.7348 11.1054 18.4804 11.2929 18.2929L13.2929 16.2929C13.6834 15.9024 14.3166 15.9024 14.7071 16.2929C15.0976 16.6834 15.0976 17.3166 14.7071 17.7071Z" fill="#777B92"/>
</svg>
