<svg width="24" height="24" viewBox="0 0 24 24" fill="none" xmlns="http://www.w3.org/2000/svg">
<path fill-rule="evenodd" clip-rule="evenodd" d="M2 5C2 3.89543 2.89543 3 4 3H7C7.55228 3 8 3.44772 8 4C8 4.55228 7.55228 5 7 5H4V19H7C7.55228 19 8 19.4477 8 20C8 20.5523 7.55228 21 7 21H4C2.89543 21 2 20.1046 2 19V5Z" fill="#777B92"/>
<path fill-rule="evenodd" clip-rule="evenodd" d="M16 4C16 3.44772 16.4477 3 17 3H20C21.1046 3 22 3.89543 22 5V19C22 20.1046 21.1046 21 20 21H17C16.4477 21 16 20.5523 16 20C16 19.4477 16.4477 19 17 19H20V5H17C16.4477 5 16 4.55228 16 4Z" fill="#777B92"/>
<path fill-rule="evenodd" clip-rule="evenodd" d="M10.0806 10H13.9194C14.7579 10 15.224 10.9699 14.7002 11.6247L12.7809 14.0239C12.3805 14.5243 11.6194 14.5243 11.2191 14.0239L9.29974 11.6247C8.77593 10.9699 9.24211 10 10.0806 10Z" fill="#777B92"/>
</svg>
