<svg width="24" height="24" viewBox="0 0 24 24" fill="none" xmlns="http://www.w3.org/2000/svg">
<path fill-rule="evenodd" clip-rule="evenodd" d="M10 7H11C12.1046 7 13 7.89543 13 9V10.382L14.4472 11.1056C14.786 11.275 15 11.6212 15 12C15 12.3788 14.786 12.725 14.4472 12.8944L13 13.618V15C13 16.1046 12.1046 17 11 17H10C9.44772 17 9 16.5523 9 16C9 15.4477 9.44772 15 10 15H11V13.618C11 12.9715 11.3118 12.3723 11.8243 12C11.3118 11.6277 11 11.0285 11 10.382V9H10C9.44772 9 9 8.55228 9 8C9 7.44772 9.44772 7 10 7Z" fill="#777B92"/>
<path fill-rule="evenodd" clip-rule="evenodd" d="M5 3H19C20.1046 3 21 3.89543 21 5V19C21 20.1046 20.1046 21 19 21H5C3.89543 21 3 20.1046 3 19V5C3 3.89543 3.89543 3 5 3ZM5 5V19H19V5H5Z" fill="#777B92"/>
</svg>
