<svg width="16" height="16" viewBox="0 0 16 16" fill="none" xmlns="http://www.w3.org/2000/svg">
<path fill-rule="evenodd" clip-rule="evenodd" d="M15.2237 3.55279C15.4707 3.67628 15.5708 3.97662 15.4473 4.22361L14.4473 6.22361C14.3238 6.4706 14.0235 6.57071 13.7765 6.44721L11.7765 5.44721C11.5295 5.32372 11.4294 5.02338 11.5529 4.77639C11.6764 4.5294 11.9767 4.42929 12.2237 4.55279L12.9275 4.90466C12.6053 4.4567 12.1735 4.02852 11.6493 3.65848C10.6648 2.96357 9.38937 2.5 8.00011 2.5C6.61085 2.5 5.33542 2.96356 4.35095 3.65848C3.35993 4.35803 2.69915 5.26539 2.48518 6.12127C2.41821 6.38916 2.14674 6.55205 1.87884 6.48507C1.61094 6.4181 1.44806 6.14663 1.51504 5.87873C1.80107 4.73461 2.64029 3.64197 3.77427 2.84152C4.9148 2.03643 6.38937 1.5 8.00011 1.5C9.61085 1.5 11.0854 2.03644 12.226 2.84152C12.9938 3.38351 13.6265 4.05945 14.0438 4.79464L14.5529 3.77639C14.6764 3.5294 14.9767 3.42929 15.2237 3.55279ZM14.2237 9.55279C14.4707 9.67628 14.5708 9.97662 14.4473 10.2236C13.3964 12.3255 11.2548 14.5 8.00011 14.5C6.38937 14.5 4.9148 13.9636 3.77427 13.1585C3.00645 12.6165 2.37376 11.9405 1.95644 11.2054L1.44732 12.2236C1.32383 12.4706 1.02349 12.5707 0.776502 12.4472C0.529513 12.3237 0.429401 12.0234 0.552896 11.7764L1.5529 9.77639C1.67639 9.5294 1.97673 9.42929 2.22372 9.55279L4.22372 10.5528C4.47071 10.6763 4.57082 10.9766 4.44732 11.2236C4.32383 11.4706 4.02349 11.5707 3.7765 11.4472L3.07276 11.0953C3.39492 11.5433 3.82673 11.9715 4.35095 12.3415C5.33542 13.0364 6.61085 13.5 8.00011 13.5C10.7455 13.5 12.6038 11.6745 13.5529 9.77639C13.6764 9.5294 13.9767 9.42929 14.2237 9.55279Z" fill="#777B92"/>
</svg>
