<svg width="16" height="16" viewBox="0 0 16 16" fill="none" xmlns="http://www.w3.org/2000/svg">
<path fill-rule="evenodd" clip-rule="evenodd" d="M9.5 1C9.5 0.723858 9.72386 0.5 10 0.5H15C15.2761 0.5 15.5 0.723857 15.5 1L15.5 5.99992C15.5 6.27606 15.2762 6.49992 15 6.49992C14.7239 6.49992 14.5 6.27606 14.5 5.99992L14.5 2.2071L10.3536 6.35352C10.1583 6.54878 9.84171 6.54877 9.64645 6.35351C9.45118 6.15825 9.45119 5.84167 9.64645 5.6464L13.7929 1.5H10C9.72386 1.5 9.5 1.27614 9.5 1Z" fill="#777B92"/>
<path fill-rule="evenodd" clip-rule="evenodd" d="M6.35356 10.3536L2.20712 14.5H6.00001C6.27615 14.5 6.50001 14.7238 6.50001 15C6.50001 15.2761 6.27615 15.5 6.00001 15.5H1C0.723861 15.5 0.500004 15.2761 0.500004 15L0.5 10C0.5 9.7239 0.723857 9.50004 1 9.50004C1.27614 9.50004 1.5 9.7239 1.5 10L1.5 13.7929L5.64646 9.64645C5.84172 9.45118 6.1583 9.45119 6.35356 9.64645C6.54883 9.84171 6.54882 10.1583 6.35356 10.3536Z" fill="#777B92"/>
</svg>
