<svg width="16" height="16" viewBox="0 0 16 16" fill="none" xmlns="http://www.w3.org/2000/svg">
<path fill-rule="evenodd" clip-rule="evenodd" d="M2.5 1C2.5 0.723858 2.72386 0.5 3 0.5H8C8.82866 0.5 9.5 1.17216 9.5 2.00036L9.5 13.7929L12.6464 10.6464C12.8417 10.4512 13.1583 10.4512 13.3536 10.6464C13.5488 10.8417 13.5488 11.1583 13.3536 11.3536L9.35355 15.3536C9.15829 15.5488 8.84171 15.5488 8.64645 15.3536L4.64645 11.3536C4.45118 11.1583 4.45118 10.8417 4.64645 10.6464C4.84171 10.4512 5.15829 10.4512 5.35355 10.6464L8.5 13.7929L8.5 2.00036C8.5 1.72398 8.27591 1.5 8 1.5H3C2.72386 1.5 2.5 1.27614 2.5 1Z" fill="#777B92"/>
</svg>
