<svg width="16" height="16" viewBox="0 0 16 16" fill="none" xmlns="http://www.w3.org/2000/svg">
<path fill-rule="evenodd" clip-rule="evenodd" d="M15 2.5C15.2761 2.5 15.5 2.72386 15.5 3V8C15.5 8.82843 14.8284 9.5 14 9.5H2.20711L5.35355 12.6464C5.54882 12.8417 5.54882 13.1583 5.35355 13.3536C5.15829 13.5488 4.84171 13.5488 4.64645 13.3536L0.646447 9.35355C0.451184 9.15829 0.451184 8.84171 0.646447 8.64645L4.64645 4.64645C4.84171 4.45118 5.15829 4.45118 5.35355 4.64645C5.54882 4.84171 5.54882 5.15829 5.35355 5.35355L2.20711 8.5H14C14.2761 8.5 14.5 8.27614 14.5 8V3C14.5 2.72386 14.7239 2.5 15 2.5Z" fill="#777B92"/>
</svg>
