<svg width="16" height="16" viewBox="0 0 16 16" fill="none" xmlns="http://www.w3.org/2000/svg">
<path fill-rule="evenodd" clip-rule="evenodd" d="M13.5 1C13.5 1.27614 13.2761 1.5 13 1.5L8 1.5C7.72409 1.5 7.5 1.72398 7.5 2.00036L7.5 13.7929L10.6464 10.6464C10.8417 10.4512 11.1583 10.4512 11.3536 10.6464C11.5488 10.8417 11.5488 11.1583 11.3536 11.3536L7.35355 15.3536C7.15829 15.5488 6.84171 15.5488 6.64645 15.3536L2.64645 11.3536C2.45118 11.1583 2.45118 10.8417 2.64645 10.6464C2.84171 10.4512 3.15829 10.4512 3.35355 10.6464L6.5 13.7929L6.5 2.00036C6.5 1.17216 7.17134 0.500001 8 0.5L13 0.5C13.2761 0.5 13.5 0.723858 13.5 1Z" fill="#777B92"/>
</svg>
