<svg width="16" height="16" viewBox="0 0 16 16" fill="none" xmlns="http://www.w3.org/2000/svg">
<path fill-rule="evenodd" clip-rule="evenodd" d="M3 0.5H13C13.2761 0.5 13.5 0.723858 13.5 1C13.5 1.27614 13.2761 1.5 13 1.5H7.99951C8.12731 1.50012 8.25605 1.54894 8.35355 1.64645L13.3536 6.64645C13.5488 6.84171 13.5488 7.15829 13.3536 7.35355C13.1583 7.54882 12.8417 7.54882 12.6464 7.35355L8.5 3.20711V15C8.5 15.2761 8.27614 15.5 8 15.5C7.72386 15.5 7.5 15.2761 7.5 15V3.20711L3.35355 7.35355C3.15829 7.54882 2.84171 7.54882 2.64645 7.35355C2.45118 7.15829 2.45118 6.84171 2.64645 6.64645L7.64645 1.64645C7.74395 1.54894 7.87171 1.50012 7.99951 1.5H3C2.72386 1.5 2.5 1.27614 2.5 1C2.5 0.723858 2.72386 0.5 3 0.5Z" fill="#777B92"/>
</svg>
