<svg width="16" height="16" viewBox="0 0 16 16" fill="none" xmlns="http://www.w3.org/2000/svg">
<path fill-rule="evenodd" clip-rule="evenodd" d="M10 0.5H15C15.2761 0.5 15.5 0.723858 15.5 1V6C15.5 6.27614 15.2761 6.5 15 6.5C14.7239 6.5 14.5 6.27614 14.5 6V2.20711L8.35355 8.35355C8.15829 8.54882 7.84171 8.54882 7.64645 8.35355C7.45118 8.15829 7.45118 7.84171 7.64645 7.64645L13.7929 1.5H10C9.72386 1.5 9.5 1.27614 9.5 1C9.5 0.723858 9.72386 0.5 10 0.5Z" fill="#777B92"/>
<path fill-rule="evenodd" clip-rule="evenodd" d="M6.13663 12.6368H5.35893C5.32934 12.4367 5.24411 12.2799 5.10325 12.1662C4.96239 12.0514 4.78661 11.994 4.57591 11.994C4.29418 11.994 4.06809 12.0976 3.89764 12.3047C3.72837 12.5107 3.64373 12.8031 3.64373 13.1819C3.64373 13.5701 3.72896 13.8655 3.89941 14.0679C4.07105 14.2691 4.29477 14.3697 4.57058 14.3697C4.77536 14.3697 4.94877 14.3165 5.09082 14.2099C5.23287 14.1022 5.32224 13.9513 5.35893 13.7571L6.13663 13.7607C6.1094 13.9832 6.0301 14.1928 5.8987 14.3892C5.76731 14.5857 5.58857 14.745 5.36248 14.8669C5.13758 14.9888 4.86947 15.0498 4.55815 15.0498C4.23381 15.0498 3.9438 14.9764 3.68812 14.8296C3.43362 14.6828 3.23239 14.4703 3.08443 14.1922C2.93765 13.914 2.86426 13.5772 2.86426 13.1819C2.86426 12.7853 2.93883 12.448 3.08798 12.1698C3.23713 11.8916 3.43954 11.6797 3.69522 11.5341C3.95091 11.3874 4.23855 11.314 4.55815 11.314C4.83869 11.314 5.09141 11.366 5.31632 11.4702C5.54241 11.5732 5.72707 11.7235 5.87029 11.9212C6.01471 12.1177 6.10349 12.3562 6.13663 12.6368Z" fill="#777B92"/>
<path fill-rule="evenodd" clip-rule="evenodd" d="M8.6606 12.4095C8.6464 12.2663 8.58484 12.155 8.47594 12.0757C8.36822 11.9964 8.22263 11.9567 8.03915 11.9567C7.85094 11.9567 7.70653 11.9952 7.60591 12.0721C7.5053 12.1491 7.45499 12.2461 7.45499 12.3633C7.45262 12.4935 7.50826 12.5924 7.62189 12.6598C7.73671 12.7261 7.87284 12.7776 8.03027 12.8143L8.35698 12.8924C8.56768 12.9398 8.75471 13.0084 8.91806 13.0984C9.08259 13.1884 9.21162 13.3044 9.30513 13.4464C9.39983 13.5873 9.44718 13.7589 9.44718 13.9613C9.44599 14.294 9.32111 14.5591 9.07253 14.7568C8.82514 14.9533 8.47949 15.0515 8.0356 15.0515C7.59408 15.0515 7.24192 14.9509 6.97914 14.7497C6.71635 14.5485 6.58023 14.2513 6.57076 13.8584H7.31472C7.32774 14.0406 7.39935 14.178 7.52956 14.2703C7.66096 14.3614 7.82667 14.407 8.02672 14.407C8.22203 14.407 8.37769 14.3656 8.4937 14.2827C8.61088 14.1999 8.67007 14.0921 8.67125 13.9596C8.67007 13.8365 8.61621 13.7418 8.50968 13.6755C8.40314 13.6092 8.25104 13.5524 8.05336 13.505L7.6574 13.4056C7.35082 13.3322 7.10875 13.2156 6.9312 13.0558C6.75364 12.896 6.66545 12.6823 6.66664 12.4148C6.66545 12.1946 6.72405 12.0023 6.84242 11.8378C6.96197 11.672 7.12592 11.5436 7.33425 11.4525C7.54258 11.3601 7.77933 11.314 8.04448 11.314C8.31436 11.314 8.54992 11.3601 8.75115 11.4525C8.95357 11.5448 9.111 11.6732 9.22346 11.8378C9.33591 12.0023 9.39391 12.1929 9.39746 12.4095H8.6606Z" fill="#777B92"/>
<path fill-rule="evenodd" clip-rule="evenodd" d="M11.5002 14.1265H11.5339L12.4146 11.3637H13.2669L12.0133 15H11.0225L9.76722 11.3637H10.6213L11.5002 14.1265Z" fill="#777B92"/>
</svg>
