<svg width="16" height="16" viewBox="0 0 16 16" fill="none" xmlns="http://www.w3.org/2000/svg">
<path fill-rule="evenodd" clip-rule="evenodd" d="M10 0.5H15C15.2761 0.5 15.5 0.723858 15.5 1V6C15.5 6.27614 15.2761 6.5 15 6.5C14.7239 6.5 14.5 6.27614 14.5 6V2.20711L8.35355 8.35355C8.15829 8.54882 7.84171 8.54882 7.64645 8.35355C7.45118 8.15829 7.45118 7.84171 7.64645 7.64645L13.7929 1.5H10C9.72386 1.5 9.5 1.27614 9.5 1C9.5 0.723858 9.72386 0.5 10 0.5Z" fill="#777B92"/>
<path fill-rule="evenodd" clip-rule="evenodd" d="M9.56872 12.4095C9.55451 12.2663 9.49296 12.155 9.38406 12.0757C9.27634 11.9964 9.13074 11.9567 8.94727 11.9567C8.75906 11.9567 8.61464 11.9952 8.51403 12.0721C8.41341 12.1491 8.3631 12.2461 8.3631 12.3633C8.36074 12.4935 8.41637 12.5924 8.53001 12.6598C8.64483 12.7261 8.78095 12.7776 8.93839 12.8143L9.26509 12.8924C9.47579 12.9398 9.66282 13.0084 9.82617 13.0984C9.99071 13.1884 10.1197 13.3044 10.2132 13.4464C10.3079 13.5873 10.3553 13.7589 10.3553 13.9613C10.3541 14.294 10.2292 14.5591 9.98065 14.7568C9.73325 14.9533 9.38761 15.0515 8.94372 15.0515C8.50219 15.0515 8.15004 14.9509 7.88725 14.7497C7.62447 14.5485 7.48834 14.2513 7.47887 13.8584H8.22283C8.23585 14.0406 8.30747 14.178 8.43768 14.2703C8.56907 14.3614 8.73479 14.407 8.93484 14.407C9.13015 14.407 9.28581 14.3656 9.40181 14.2827C9.519 14.1999 9.57819 14.0921 9.57937 13.9596C9.57819 13.8365 9.52433 13.7418 9.41779 13.6755C9.31126 13.6092 9.15915 13.5524 8.96147 13.505L8.56552 13.4056C8.25894 13.3322 8.01687 13.2156 7.83931 13.0558C7.66175 12.896 7.57357 12.6823 7.57475 12.4148C7.57357 12.1946 7.63216 12.0023 7.75053 11.8378C7.87009 11.672 8.03403 11.5436 8.24236 11.4525C8.4507 11.3601 8.68744 11.314 8.95259 11.314C9.22248 11.314 9.45804 11.3601 9.65927 11.4525C9.86168 11.5448 10.0191 11.6732 10.1316 11.8378C10.244 12.0023 10.302 12.1929 10.3056 12.4095H9.56872Z" fill="#777B92"/>
<path fill-rule="evenodd" clip-rule="evenodd" d="M2.63912 12.603H2.66753L3.40439 11.3637H4.27264L3.16291 13.1819L4.2975 15H3.41326L2.66753 13.7589H2.63912L1.89338 15H1.0127L2.15083 13.1819L1.034 11.3637H1.90581L2.63912 12.603Z" fill="#777B92"/>
<path fill-rule="evenodd" clip-rule="evenodd" d="M5.52797 11.3637V14.3662H7.08691V15H4.75914V11.3637H5.52797Z" fill="#777B92"/>
<path fill-rule="evenodd" clip-rule="evenodd" d="M12.3266 12.603H12.355L13.0919 11.3637H13.9601L12.8504 13.1819L13.985 15H13.1008L12.355 13.7589H12.3266L11.5809 15H10.7002L11.8383 13.1819L10.7215 11.3637H11.5933L12.3266 12.603Z" fill="#777B92"/>
</svg>
