<svg width="16" height="16" viewBox="0 0 16 16" fill="none" xmlns="http://www.w3.org/2000/svg">
<path fill-rule="evenodd" clip-rule="evenodd" d="M9.99987 0.5H14.9999C15.276 0.5 15.4999 0.723858 15.4999 1V6C15.4999 6.27614 15.276 6.5 14.9999 6.5C14.7237 6.5 14.4999 6.27614 14.4999 6V2.20711L8.35342 8.35355C8.15816 8.54882 7.84158 8.54882 7.64631 8.35355C7.45105 8.15829 7.45105 7.84171 7.64631 7.64645L13.7928 1.5H9.99987C9.72372 1.5 9.49987 1.27614 9.49987 1C9.49987 0.723858 9.72372 0.5 9.99987 0.5Z" fill="#777B92"/>
<path fill-rule="evenodd" clip-rule="evenodd" d="M5.01847 12.0756C4.91075 11.9963 4.76515 11.9567 4.58168 11.9567C4.39347 11.9567 4.24905 11.9951 4.14844 12.0721C4.04782 12.149 3.99751 12.2461 3.99751 12.3633C3.99515 12.4935 4.05078 12.5923 4.16442 12.6598C4.27924 12.7261 4.41536 12.7776 4.5728 12.8143L4.8995 12.8924C5.1102 12.9397 5.29723 13.0084 5.46058 13.0984C5.62512 13.1883 5.75414 13.3043 5.84766 13.4464C5.94235 13.5872 5.9897 13.7589 5.9897 13.9613C5.98852 14.2939 5.86364 14.5591 5.61506 14.7567C5.36766 14.9532 5.02202 15.0515 4.57813 15.0515C4.1366 15.0515 3.78445 14.9509 3.52166 14.7496C3.25888 14.5484 3.12275 14.2513 3.11328 13.8583H3.85724C3.87027 14.0406 3.94188 14.1779 4.07209 14.2702C4.20348 14.3614 4.3692 14.407 4.56925 14.407C4.76456 14.407 4.92022 14.3655 5.03622 14.2827C5.15341 14.1998 5.21259 14.0921 5.21378 13.9595C5.21259 13.8364 5.15874 13.7417 5.0522 13.6754C4.94567 13.6091 4.79356 13.5523 4.59588 13.505L4.19993 13.4055C3.89335 13.3321 3.65128 13.2156 3.47372 13.0558C3.29616 12.896 3.20798 12.6823 3.20916 12.4148C3.20798 12.1946 3.26657 12.0022 3.38494 11.8377C3.5045 11.672 3.66844 11.5436 3.87678 11.4524C4.08511 11.3601 4.32185 11.3139 4.587 11.3139C4.85689 11.3139 5.09245 11.3601 5.29368 11.4524C5.49609 11.5447 5.65353 11.6732 5.76598 11.8377C5.87843 12.0022 5.93643 12.1928 5.93999 12.4094H5.20312C5.18892 12.2662 5.12737 12.1549 5.01847 12.0756Z" fill="#777B92"/>
<path fill-rule="evenodd" clip-rule="evenodd" d="M6.22674 15L7.48207 11.3636H8.47283L9.72639 15H8.90252L8.63264 14.1708H7.32049L7.0506 15H6.22674ZM8.4391 13.5707L7.99165 12.1946H7.96325L7.5158 13.5707H8.4391Z" fill="#777B92"/>
<path fill-rule="evenodd" clip-rule="evenodd" d="M10.1641 11.3636H11.5987C11.8745 11.3636 12.1095 11.4163 12.3036 11.5217C12.4978 11.6258 12.6457 11.7708 12.7475 11.9567C12.8505 12.1413 12.902 12.3544 12.902 12.5959C12.902 12.8374 12.8499 13.0504 12.7457 13.2351C12.6416 13.4186 12.4906 13.5624 12.293 13.6665C12.0965 13.7695 11.8585 13.821 11.5792 13.821H10.9329V15H10.1641V11.3636ZM11.4549 13.2049C11.6751 13.2049 11.839 13.1487 11.9467 13.0362C12.0556 12.9226 12.1101 12.7758 12.1101 12.5959C12.1101 12.4148 12.0556 12.2692 11.9467 12.1591C11.839 12.0478 11.6739 11.9922 11.4513 11.9922H10.9329V13.2049H11.4549Z" fill="#777B92"/>
</svg>
