<svg width="16" height="16" viewBox="0 0 16 16" fill="none" xmlns="http://www.w3.org/2000/svg">
<path fill-rule="evenodd" clip-rule="evenodd" d="M6 3.5H8C8.27614 3.5 8.5 3.72386 8.5 4C8.5 4.27614 8.27614 4.5 8 4.5H6C5.72386 4.5 5.5 4.27614 5.5 4C5.5 3.72386 5.72386 3.5 6 3.5Z" fill="#777B92"/>
<path fill-rule="evenodd" clip-rule="evenodd" d="M5.5 7C5.5 6.72386 5.72386 6.5 6 6.5H8C8.27614 6.5 8.5 6.72386 8.5 7C8.5 7.27614 8.27614 7.5 8 7.5H6C5.72386 7.5 5.5 7.27614 5.5 7Z" fill="#777B92"/>
<path fill-rule="evenodd" clip-rule="evenodd" d="M4 0.5H12C12.8284 0.5 13.5 1.17157 13.5 2V14C13.5 14.8284 12.8284 15.5 12 15.5H4C3.17157 15.5 2.5 14.8284 2.5 14V2C2.5 1.17157 3.17157 0.5 4 0.5ZM10.5 1.5H4C3.72386 1.5 3.5 1.72386 3.5 2V14C3.5 14.2761 3.72386 14.5 4 14.5H10.5V1.5ZM11.5 14.5H12C12.2761 14.5 12.5 14.2761 12.5 14V2C12.5 1.72386 12.2761 1.5 12 1.5H11.5V14.5Z" fill="#777B92"/>
</svg>
