<svg width="16" height="16" viewBox="0 0 16 16" fill="none" xmlns="http://www.w3.org/2000/svg">
<path fill-rule="evenodd" clip-rule="evenodd" d="M5.5 11C5.5 10.7239 5.72386 10.5 6 10.5H8.79289L8.14645 9.85355C7.95118 9.65829 7.95118 9.34171 8.14645 9.14645C8.34171 8.95118 8.65829 8.95118 8.85355 9.14645L10.3536 10.6464C10.5488 10.8417 10.5488 11.1583 10.3536 11.3536L8.85355 12.8536C8.65829 13.0488 8.34171 13.0488 8.14645 12.8536C7.95118 12.6583 7.95118 12.3417 8.14645 12.1464L8.79289 11.5L6 11.5C5.72386 11.5 5.5 11.2761 5.5 11Z" fill="#777B92"/>
<path fill-rule="evenodd" clip-rule="evenodd" d="M2.5 2C2.5 1.17157 3.17157 0.5 4 0.5H8.58579C8.98361 0.5 9.36514 0.658035 9.64645 0.93934L13.0607 4.35355C13.342 4.63486 13.5 5.01639 13.5 5.41421V14C13.5 14.8284 12.8284 15.5 12 15.5H4C3.17157 15.5 2.5 14.8284 2.5 14V2ZM4 1.5C3.72386 1.5 3.5 1.72386 3.5 2V14C3.5 14.2761 3.72386 14.5 4 14.5H12C12.2761 14.5 12.5 14.2761 12.5 14V5.5H10C9.17157 5.5 8.5 4.82843 8.5 4V1.5H4ZM9.5 2.20711V4C9.5 4.27614 9.72386 4.5 10 4.5H11.7929L9.5 2.20711Z" fill="#777B92"/>
</svg>
