<svg width="16" height="16" viewBox="0 0 16 16" fill="none" xmlns="http://www.w3.org/2000/svg">
<path fill-rule="evenodd" clip-rule="evenodd" d="M1.5 2V14C1.5 14.2761 1.72386 14.5 2 14.5H14C14.2761 14.5 14.5 14.2761 14.5 14V4C14.5 3.72386 14.7239 3.5 15 3.5C15.2761 3.5 15.5 3.72386 15.5 4V14C15.5 14.8284 14.8284 15.5 14 15.5H2C1.17157 15.5 0.5 14.8284 0.5 14V2C0.5 1.17157 1.17157 0.5 2 0.5H7C7.27614 0.5 7.5 0.723858 7.5 1C7.5 1.27614 7.27614 1.5 7 1.5H2C1.72386 1.5 1.5 1.72386 1.5 2Z" fill="#777B92"/>
<path fill-rule="evenodd" clip-rule="evenodd" d="M4.64645 8.35355C4.45118 8.15829 4.45118 7.84171 4.64645 7.64645C4.84171 7.45118 5.15829 7.45118 5.35355 7.64645L6.54523 8.83812C6.67183 7.2271 7.08762 5.40981 8.08042 3.87805C9.34374 1.92893 11.5056 0.5 15 0.5C15.2761 0.5 15.5 0.723858 15.5 1C15.5 1.27614 15.2761 1.5 15 1.5C11.8277 1.5 9.98959 2.77107 8.91958 4.42195C8.00841 5.82774 7.6296 7.54934 7.529 9.0995L9.24275 8.07125C9.47954 7.92918 9.78667 8.00596 9.92875 8.24275C10.0708 8.47954 9.99404 8.78667 9.75725 8.92875L7.25725 10.4287C7.06051 10.5468 6.80868 10.5158 6.64645 10.3536L4.64645 8.35355Z" fill="#777B92"/>
</svg>
