<svg width="16" height="16" viewBox="0 0 16 16" fill="none" xmlns="http://www.w3.org/2000/svg">
<path fill-rule="evenodd" clip-rule="evenodd" d="M1 14.5C0.875589 14.5 0.761791 14.4546 0.674296 14.3794C0.65862 14.3659 0.643788 14.3515 0.629891 14.3362C0.549187 14.2474 0.5 14.1294 0.5 14C0.5 14 0.5 14 0.5 14V3C0.5 2.17157 1.17157 1.5 2 1.5H5.58579C5.98361 1.5 6.36514 1.65803 6.64645 1.93934L8.06066 3.35355C8.15443 3.44732 8.28161 3.5 8.41421 3.5H12C12.8284 3.5 13.5 4.17157 13.5 5V6.5H15C15.1569 6.5 15.3047 6.57365 15.3992 6.6989C15.4937 6.82416 15.5239 6.9865 15.4808 7.13736L13.4808 14.1374C13.4194 14.352 13.2232 14.5 13 14.5H1ZM1.5 3V10.43L2.51924 6.86264C2.58057 6.64799 2.77676 6.5 3 6.5H12.5V5C12.5 4.72386 12.2761 4.5 12 4.5H8.41421C8.01639 4.5 7.63486 4.34196 7.35355 4.06066L5.93934 2.64645C5.84557 2.55268 5.71839 2.5 5.58579 2.5H2C1.72386 2.5 1.5 2.72386 1.5 3ZM3.37716 7.5L1.66287 13.5H12.6229L14.3371 7.5H3.37716Z" fill="#777B92"/>
</svg>
