<svg width="16" height="16" viewBox="0 0 16 16" fill="none" xmlns="http://www.w3.org/2000/svg">
<path fill-rule="evenodd" clip-rule="evenodd" d="M3 0.5H7C7.27614 0.5 7.5 0.723858 7.5 1C7.5 1.27614 7.27614 1.5 7 1.5H3.5V4.5H9C9.27614 4.5 9.5 4.72386 9.5 5C9.5 5.27614 9.27614 5.5 9 5.5H3.5V9.5H11C11.2761 9.5 11.5 9.72386 11.5 10C11.5 10.2761 11.2761 10.5 11 10.5H3.5V14.5H13C13.2761 14.5 13.5 14.7239 13.5 15C13.5 15.2761 13.2761 15.5 13 15.5H3C2.72386 15.5 2.5 15.2761 2.5 15V1C2.5 0.723858 2.72386 0.5 3 0.5Z" fill="#777B92"/>
</svg>
