<svg width="16" height="16" viewBox="0 0 16 16" fill="none" xmlns="http://www.w3.org/2000/svg">
<path fill-rule="evenodd" clip-rule="evenodd" d="M3 0.5H13C13.8284 0.5 14.5 1.17157 14.5 2V14C14.5 14.8284 13.8284 15.5 13 15.5H3C2.17157 15.5 1.5 14.8284 1.5 14V2C1.5 1.17157 2.17157 0.5 3 0.5ZM13.5 11.5V9.5H10.5V11.5H13.5ZM10.5 12.5V14.5H13C13.2761 14.5 13.5 14.2761 13.5 14V12.5H10.5ZM9.5 1.5H6.5V14.5H9.5V1.5ZM13.5 2C13.5 1.72386 13.2761 1.5 13 1.5H10.5V8.5H13.5V2ZM2.5 4.5V14C2.5 14.2761 2.72386 14.5 3 14.5H5.5V4.5H2.5ZM5.5 3.5V1.5H3C2.72386 1.5 2.5 1.72386 2.5 2V3.5H5.5Z" fill="#777B92"/>
</svg>
