<svg width="16" height="16" viewBox="0 0 16 16" fill="none" xmlns="http://www.w3.org/2000/svg">
<path fill-rule="evenodd" clip-rule="evenodd" d="M3 0.5C3.27614 0.5 3.5 0.723858 3.5 1V3.5H6C6.27614 3.5 6.5 3.72386 6.5 4C6.5 4.27614 6.27614 4.5 6 4.5H3.5V8.5H6C6.27614 8.5 6.5 8.72386 6.5 9C6.5 9.27614 6.27614 9.5 6 9.5H3.5V12.5H11.7929L10.6464 11.3536C10.4512 11.1583 10.4512 10.8417 10.6464 10.6464C10.8417 10.4512 11.1583 10.4512 11.3536 10.6464L13.3536 12.6464C13.5488 12.8417 13.5488 13.1583 13.3536 13.3536L11.3536 15.3536C11.1583 15.5488 10.8417 15.5488 10.6464 15.3536C10.4512 15.1583 10.4512 14.8417 10.6464 14.6464L11.7929 13.5H3C2.72386 13.5 2.5 13.2761 2.5 13V1C2.5 0.723858 2.72386 0.5 3 0.5Z" fill="#777B92"/>
</svg>
