<svg width="16" height="16" viewBox="0 0 16 16" fill="none" xmlns="http://www.w3.org/2000/svg">
<path fill-rule="evenodd" clip-rule="evenodd" d="M2 2.5C1.72386 2.5 1.5 2.72386 1.5 3V13C1.5 13.2761 1.72386 13.5 2 13.5H9C9.27614 13.5 9.5 13.7239 9.5 14C9.5 14.2761 9.27614 14.5 9 14.5H2C1.17157 14.5 0.5 13.8284 0.5 13V3C0.5 2.17157 1.17157 1.5 2 1.5H4.58579C4.98361 1.5 5.36514 1.65803 5.64645 1.93934L7.06066 3.35355C7.15443 3.44732 7.28161 3.5 7.41421 3.5H12C12.8284 3.5 13.5 4.17157 13.5 5V12.7929L14.6464 11.6464C14.8417 11.4512 15.1583 11.4512 15.3536 11.6464C15.5488 11.8417 15.5488 12.1583 15.3536 12.3536L13.3536 14.3536C13.1583 14.5488 12.8417 14.5488 12.6464 14.3536L10.6464 12.3536C10.4512 12.1583 10.4512 11.8417 10.6464 11.6464C10.8417 11.4512 11.1583 11.4512 11.3536 11.6464L12.5 12.7929V5C12.5 4.72386 12.2761 4.5 12 4.5H7.41421C7.01639 4.5 6.63486 4.34196 6.35355 4.06066L4.93934 2.64645C4.84557 2.55268 4.7184 2.5 4.58579 2.5H2Z" fill="#777B92"/>
</svg>
