<svg width="16" height="16" viewBox="0 0 16 16" fill="none" xmlns="http://www.w3.org/2000/svg">
<path fill-rule="evenodd" clip-rule="evenodd" d="M2.5 2C2.5 1.17157 3.17157 0.5 4 0.5H8.58579C8.98361 0.5 9.36514 0.658035 9.64645 0.93934L13.0607 4.35355C13.342 4.63486 13.5 5.01639 13.5 5.41421V9C13.5 9.27614 13.2761 9.5 13 9.5C12.7239 9.5 12.5 9.27614 12.5 9V5.5H10C9.17157 5.5 8.5 4.82843 8.5 4V1.5H4C3.72386 1.5 3.5 1.72386 3.5 2V9C3.5 9.27614 3.27614 9.5 3 9.5C2.72386 9.5 2.5 9.27614 2.5 9V2ZM9.5 2.20711V4C9.5 4.27614 9.72386 4.5 10 4.5H11.7929L9.5 2.20711Z" fill="#777B92"/>
<path fill-rule="evenodd" clip-rule="evenodd" d="M7.66788 14.1939C7.51873 14.4721 7.31573 14.6846 7.05886 14.8314C6.80199 14.977 6.51258 15.0498 6.19061 15.0498C5.86745 15.0498 5.57744 14.9764 5.32058 14.8296C5.06371 14.6828 4.86071 14.4703 4.71156 14.1922C4.56241 13.9128 4.48784 13.576 4.48784 13.1819C4.48784 12.7853 4.56241 12.448 4.71156 12.1698C4.86071 11.8916 5.06371 11.6797 5.32058 11.5341C5.57744 11.3874 5.86745 11.314 6.19061 11.314C6.51258 11.314 6.80199 11.3874 7.05886 11.5341C7.31573 11.6797 7.51873 11.8916 7.66788 12.1698C7.81821 12.448 7.89338 12.7853 7.89338 13.1819C7.89338 13.5784 7.81821 13.9158 7.66788 14.1939ZM6.86177 12.2994C6.69369 12.0958 6.46996 11.994 6.19061 11.994C5.91125 11.994 5.68753 12.0958 5.51944 12.2994C5.35136 12.5018 5.26731 12.796 5.26731 13.1819C5.26731 13.5666 5.35136 13.8607 5.51944 14.0643C5.68753 14.2679 5.91125 14.3697 6.19061 14.3697C6.46996 14.3697 6.69369 14.2679 6.86177 14.0643C7.02986 13.8607 7.1139 13.5666 7.1139 13.1819C7.1139 12.796 7.02986 12.5018 6.86177 12.2994Z" fill="#777B92"/>
<path fill-rule="evenodd" clip-rule="evenodd" d="M0.914062 15V11.3637H2.21378C2.57955 11.3637 2.89441 11.4365 3.15838 11.5821C3.42353 11.7265 3.62713 11.9342 3.76918 12.2053C3.91122 12.4764 3.98224 12.8007 3.98224 13.1783C3.98224 13.5571 3.91063 13.8826 3.7674 14.1549C3.62536 14.4271 3.42116 14.6361 3.15483 14.7816C2.88968 14.9272 2.57244 15 2.20313 15H0.914062ZM2.17116 14.3413C2.51326 14.3413 2.77249 14.249 2.94886 14.0643C3.12642 13.8797 3.2152 13.5843 3.2152 13.1783C3.2152 12.7747 3.12642 12.4811 2.94886 12.2976C2.77249 12.1142 2.51385 12.0224 2.17294 12.0224H1.68288V14.3413H2.17116Z" fill="#777B92"/>
<path fill-rule="evenodd" clip-rule="evenodd" d="M11.6713 12.6368H10.8936C10.8641 12.4367 10.7788 12.2799 10.638 12.1662C10.4971 12.0514 10.3213 11.994 10.1106 11.994C9.82889 11.994 9.60281 12.0976 9.43235 12.3047C9.26308 12.5107 9.17844 12.8031 9.17844 13.1819C9.17844 13.5701 9.26367 13.8655 9.43413 14.0679C9.60576 14.2691 9.82949 14.3697 10.1053 14.3697C10.3101 14.3697 10.4835 14.3165 10.6255 14.2099C10.7676 14.1022 10.8569 13.9513 10.8936 13.7571L11.6713 13.7607C11.6441 13.9832 11.5648 14.1928 11.4334 14.3892C11.302 14.5857 11.1233 14.745 10.8972 14.8669C10.6723 14.9888 10.4042 15.0498 10.0929 15.0498C9.76853 15.0498 9.47852 14.9764 9.22283 14.8296C8.96834 14.6828 8.76711 14.4703 8.61914 14.1922C8.47236 13.914 8.39897 13.5772 8.39897 13.1819C8.39897 12.7853 8.47354 12.448 8.62269 12.1698C8.77184 11.8916 8.97425 11.6797 9.22994 11.5341C9.48562 11.3874 9.77326 11.314 10.0929 11.314C10.3734 11.314 10.6261 11.366 10.851 11.4702C11.0771 11.5732 11.2618 11.7235 11.405 11.9212C11.5494 12.1177 11.6382 12.3562 11.6713 12.6368Z" fill="#777B92"/>
<path fill-rule="evenodd" clip-rule="evenodd" d="M13.5987 12.603H13.6271L14.364 11.3637H15.2322L14.1225 13.1819L15.2571 15H14.3729L13.6271 13.7589H13.5987L12.853 15H11.9723L13.1104 13.1819L11.9936 11.3637H12.8654L13.5987 12.603Z" fill="#777B92"/>
</svg>
