<svg width="16" height="16" viewBox="0 0 16 16" fill="none" xmlns="http://www.w3.org/2000/svg">
<path d="M2 0.5H6C6.82843 0.5 7.5 1.17157 7.5 2V2.5H11C11.8284 2.5 12.5 3.17157 12.5 4V9.5H14C14.8284 9.5 15.5 10.1716 15.5 11V14C15.5 14.8284 14.8284 15.5 14 15.5H10C9.17157 15.5 8.5 14.8284 8.5 14V13.5H5C4.17157 13.5 3.5 12.8284 3.5 12V6.5H2C1.17157 6.5 0.5 5.82843 0.5 5V2C0.5 1.17157 1.17157 0.5 2 0.5ZM8.5 12.5V11C8.5 10.1716 9.17157 9.5 10 9.5H11.5V4C11.5 3.72386 11.2761 3.5 11 3.5H7.5V5C7.5 5.82843 6.82843 6.5 6 6.5H4.5V12C4.5 12.2761 4.72386 12.5 5 12.5H8.5ZM9.5 14C9.5 14.2761 9.72386 14.5 10 14.5H14C14.2761 14.5 14.5 14.2761 14.5 14V11C14.5 10.7239 14.2761 10.5 14 10.5H10C9.72386 10.5 9.5 10.7239 9.5 11V14ZM6 5.5C6.27614 5.5 6.5 5.27614 6.5 5V2C6.5 1.72386 6.27614 1.5 6 1.5H2C1.72386 1.5 1.5 1.72386 1.5 2V5C1.5 5.27614 1.72386 5.5 2 5.5H6Z" fill="#777B92"/>
</svg>
