<svg width="16" height="16" viewBox="0 0 16 16" fill="none" xmlns="http://www.w3.org/2000/svg">
<path fill-rule="evenodd" clip-rule="evenodd" d="M6 4.5H10C10.2761 4.5 10.5 4.72386 10.5 5C10.5 5.27614 10.2761 5.5 10 5.5H6C5.72386 5.5 5.5 5.27614 5.5 5C5.5 4.72386 5.72386 4.5 6 4.5Z" fill="#777B92"/>
<path fill-rule="evenodd" clip-rule="evenodd" d="M5.5 8C5.5 7.72386 5.72386 7.5 6 7.5H10C10.2761 7.5 10.5 7.72386 10.5 8C10.5 8.27614 10.2761 8.5 10 8.5H6C5.72386 8.5 5.5 8.27614 5.5 8Z" fill="#777B92"/>
<path fill-rule="evenodd" clip-rule="evenodd" d="M6 10.5H10C10.2761 10.5 10.5 10.7239 10.5 11C10.5 11.2761 10.2761 11.5 10 11.5H6C5.72386 11.5 5.5 11.2761 5.5 11C5.5 10.7239 5.72386 10.5 6 10.5Z" fill="#777B92"/>
<path fill-rule="evenodd" clip-rule="evenodd" d="M4 0.5H12C12.8284 0.5 13.5 1.17157 13.5 2V14C13.5 14.8284 12.8284 15.5 12 15.5H4C3.17157 15.5 2.5 14.8284 2.5 14V2C2.5 1.17157 3.17157 0.5 4 0.5ZM3.5 2V14C3.5 14.2761 3.72386 14.5 4 14.5H12C12.2761 14.5 12.5 14.2761 12.5 14V2C12.5 1.72386 12.2761 1.5 12 1.5H4C3.72386 1.5 3.5 1.72386 3.5 2Z" fill="#777B92"/>
</svg>
