<svg width="16" height="16" viewBox="0 0 16 16" fill="none" xmlns="http://www.w3.org/2000/svg">
<path fill-rule="evenodd" clip-rule="evenodd" d="M8.35355 0.646447L11.3536 3.64645C11.5488 3.84171 11.5488 4.15829 11.3536 4.35355C11.1583 4.54882 10.8417 4.54882 10.6464 4.35355L8.5 2.20711V11C8.5 11.2761 8.27614 11.5 8 11.5C7.72386 11.5 7.5 11.2761 7.5 11V2.20711L5.35355 4.35355C5.15829 4.54882 4.84171 4.54882 4.64645 4.35355C4.45118 4.15829 4.45118 3.84171 4.64645 3.64645L7.64645 0.646447C7.84171 0.451184 8.15829 0.451184 8.35355 0.646447Z" fill="#777B92"/>
<path fill-rule="evenodd" clip-rule="evenodd" d="M1.5 13V14.5H14.5V13C14.5 12.7239 14.7239 12.5 15 12.5C15.2761 12.5 15.5 12.7239 15.5 13V15C15.5 15.2761 15.2761 15.5 15 15.5H1C0.723858 15.5 0.5 15.2761 0.5 15V13C0.5 12.7239 0.723858 12.5 1 12.5C1.27614 12.5 1.5 12.7239 1.5 13Z" fill="#777B92"/>
</svg>
