<svg width="16" height="16" viewBox="0 0 16 16" fill="none" xmlns="http://www.w3.org/2000/svg">
<path fill-rule="evenodd" clip-rule="evenodd" d="M1.5 2V14C1.5 14.2761 1.72386 14.5 2 14.5H14C14.2761 14.5 14.5 14.2761 14.5 14V8C14.5 7.72386 14.7239 7.5 15 7.5C15.2761 7.5 15.5 7.72386 15.5 8V14C15.5 14.8284 14.8284 15.5 14 15.5H2C1.17157 15.5 0.5 14.8284 0.5 14V2C0.5 1.17157 1.17157 0.5 2 0.5H9C9.27614 0.5 9.5 0.723858 9.5 1C9.5 1.27614 9.27614 1.5 9 1.5H2C1.72386 1.5 1.5 1.72386 1.5 2Z" fill="#777B92"/>
<path fill-rule="evenodd" clip-rule="evenodd" d="M13.3536 0.646447L15.3536 2.64645C15.5158 2.80868 15.5468 3.06051 15.4287 3.25725L13.9287 5.75725C13.7867 5.99404 13.4795 6.07082 13.2428 5.92875C13.006 5.78667 12.9292 5.47954 13.0713 5.24275L14.0995 3.529C12.5493 3.6296 10.8277 4.00841 9.42195 4.91958C7.77107 5.98959 6.5 7.82773 6.5 11C6.5 11.2761 6.27614 11.5 6 11.5C5.72386 11.5 5.5 11.2761 5.5 11C5.5 7.5056 6.92893 5.34374 8.87805 4.08042C10.4098 3.08762 12.2271 2.67183 13.8381 2.54523L12.6464 1.35355C12.4512 1.15829 12.4512 0.841709 12.6464 0.646447C12.8417 0.451184 13.1583 0.451184 13.3536 0.646447Z" fill="#777B92"/>
</svg>
