<svg width="16" height="16" viewBox="0 0 16 16" fill="none" xmlns="http://www.w3.org/2000/svg">
<path fill-rule="evenodd" clip-rule="evenodd" d="M2.5 2C2.5 1.17157 3.17157 0.5 4 0.5H8.58579C8.98361 0.5 9.36514 0.658035 9.64645 0.93934L13.0607 4.35355C13.342 4.63486 13.5 5.01639 13.5 5.41421V9C13.5 9.27614 13.2761 9.5 13 9.5C12.7239 9.5 12.5 9.27614 12.5 9V5.5H10C9.17157 5.5 8.5 4.82843 8.5 4V1.5H4C3.72386 1.5 3.5 1.72386 3.5 2V9C3.5 9.27614 3.27614 9.5 3 9.5C2.72386 9.5 2.5 9.27614 2.5 9V2ZM9.5 2.20711V4C9.5 4.27614 9.72386 4.5 10 4.5H11.7929L9.5 2.20711Z" fill="#777B92"/>
<path fill-rule="evenodd" clip-rule="evenodd" d="M1.62207 11.3636H3.05673C3.33253 11.3636 3.5675 11.4163 3.76163 11.5217C3.95576 11.6258 4.10372 11.7708 4.20552 11.9567C4.30851 12.1413 4.36 12.3544 4.36 12.5959C4.36 12.8374 4.30791 13.0504 4.20375 13.2351C4.09958 13.4186 3.94866 13.5624 3.75098 13.6666C3.55448 13.7695 3.31655 13.821 3.0372 13.821H2.39089V15H1.62207V11.3636ZM2.91291 13.2049C3.13308 13.2049 3.29702 13.1487 3.40474 13.0362C3.51364 12.9226 3.56809 12.7758 3.56809 12.5959C3.56809 12.4148 3.51364 12.2692 3.40474 12.1591C3.29702 12.0478 3.1319 11.9922 2.90936 11.9922H2.39089V13.2049H2.91291Z" fill="#777B92"/>
<path fill-rule="evenodd" clip-rule="evenodd" d="M4.85938 11.3636H6.29403C6.56984 11.3636 6.80481 11.4163 6.99893 11.5217C7.19306 11.6258 7.34103 11.7708 7.44283 11.9567C7.54581 12.1413 7.5973 12.3544 7.5973 12.5959C7.5973 12.8374 7.54522 13.0504 7.44105 13.2351C7.33688 13.4186 7.18596 13.5624 6.98828 13.6666C6.79179 13.7695 6.55386 13.821 6.2745 13.821H5.6282V15H4.85938V11.3636ZM6.15021 13.2049C6.37038 13.2049 6.53433 13.1487 6.64205 13.0362C6.75095 12.9226 6.8054 12.7758 6.8054 12.5959C6.8054 12.4148 6.75095 12.2692 6.64205 12.1591C6.53433 12.0478 6.3692 11.9922 6.14666 11.9922H5.6282V13.2049H6.15021Z" fill="#777B92"/>
<path fill-rule="evenodd" clip-rule="evenodd" d="M7.95819 11.9975V11.3636H10.9447V11.9975H9.83141V15H9.07147V11.9975H7.95819Z" fill="#777B92"/>
<path fill-rule="evenodd" clip-rule="evenodd" d="M12.8907 12.603H12.9191L13.656 11.3636H14.5242L13.4145 13.1818L14.5491 15H13.6649L12.9191 13.7589H12.8907L12.145 15H11.2643L12.4024 13.1818L11.2856 11.3636H12.1574L12.8907 12.603Z" fill="#777B92"/>
</svg>
