<svg width="16" height="16" viewBox="0 0 16 16" fill="none" xmlns="http://www.w3.org/2000/svg">
<path fill-rule="evenodd" clip-rule="evenodd" d="M8.5 1V3C8.5 3.27614 8.27614 3.5 8 3.5C7.72386 3.5 7.5 3.27614 7.5 3V1C7.5 0.723858 7.72386 0.5 8 0.5C8.27614 0.5 8.5 0.723858 8.5 1Z" fill="#777B92"/>
<path fill-rule="evenodd" clip-rule="evenodd" d="M8.5 15C8.5 15.2761 8.27614 15.5 8 15.5C7.72386 15.5 7.5 15.2761 7.5 15V13C7.5 12.7239 7.72386 12.5 8 12.5C8.27614 12.5 8.5 12.7239 8.5 13V15Z" fill="#777B92"/>
<path fill-rule="evenodd" clip-rule="evenodd" d="M13 7.5H15C15.2761 7.5 15.5 7.72386 15.5 8C15.5 8.27614 15.2761 8.5 15 8.5H13C12.7239 8.5 12.5 8.27614 12.5 8C12.5 7.72386 12.7239 7.5 13 7.5Z" fill="#777B92"/>
<path fill-rule="evenodd" clip-rule="evenodd" d="M1 7.5H3C3.27614 7.5 3.5 7.72386 3.5 8C3.5 8.27614 3.27614 8.5 3 8.5H1C0.723858 8.5 0.5 8.27614 0.5 8C0.5 7.72386 0.723858 7.5 1 7.5Z" fill="#777B92"/>
<path fill-rule="evenodd" clip-rule="evenodd" d="M2.64645 2.64645C2.84171 2.45118 3.15829 2.45118 3.35355 2.64645L4.35355 3.64645C4.54882 3.84171 4.54882 4.15829 4.35355 4.35355C4.15829 4.54882 3.84171 4.54882 3.64645 4.35355L2.64645 3.35355C2.45118 3.15829 2.45118 2.84171 2.64645 2.64645Z" fill="#777B92"/>
<path fill-rule="evenodd" clip-rule="evenodd" d="M4.35355 12.3536L3.35355 13.3536C3.15829 13.5488 2.84171 13.5488 2.64645 13.3536C2.45118 13.1583 2.45118 12.8417 2.64645 12.6464L3.64645 11.6464C3.84171 11.4512 4.15829 11.4512 4.35355 11.6464C4.54882 11.8417 4.54882 12.1583 4.35355 12.3536Z" fill="#777B92"/>
<path fill-rule="evenodd" clip-rule="evenodd" d="M13.3536 3.35355L12.3536 4.35355C12.1583 4.54882 11.8417 4.54882 11.6464 4.35355C11.4512 4.15829 11.4512 3.84171 11.6464 3.64645L12.6464 2.64645C12.8417 2.45118 13.1583 2.45118 13.3536 2.64645C13.5488 2.84171 13.5488 3.15829 13.3536 3.35355Z" fill="#777B92"/>
<path fill-rule="evenodd" clip-rule="evenodd" d="M12.3536 11.6464L13.3536 12.6464C13.5488 12.8417 13.5488 13.1583 13.3536 13.3536C13.1583 13.5488 12.8417 13.5488 12.6464 13.3536L11.6464 12.3536C11.4512 12.1583 11.4512 11.8417 11.6464 11.6464C11.8417 11.4512 12.1583 11.4512 12.3536 11.6464Z" fill="#777B92"/>
</svg>
