<svg width="16" height="16" viewBox="0 0 16 16" fill="none" xmlns="http://www.w3.org/2000/svg">
<path fill-rule="evenodd" clip-rule="evenodd" d="M3.41602 5.00001V1.36365H4.85067C5.12648 1.36365 5.36145 1.41632 5.55558 1.52167C5.7497 1.62584 5.89767 1.77084 5.99947 1.95669C6.10245 2.14135 6.15394 2.35441 6.15394 2.59589C6.15394 2.83737 6.10186 3.05044 5.99769 3.2351C5.89353 3.41857 5.7426 3.56239 5.54492 3.66656C5.34843 3.76954 5.1105 3.82103 4.83114 3.82103H4.18484V5.00001H3.41602ZM4.18484 3.20491H4.70685C4.92702 3.20491 5.09097 3.14869 5.19869 3.03623C5.30759 2.9226 5.36204 2.77582 5.36204 2.59589C5.36204 2.41478 5.30759 2.26919 5.19869 2.1591C5.09097 2.04783 4.92584 1.9922 4.7033 1.9922H4.18484V3.20491Z" fill="#777B92"/>
<path fill-rule="evenodd" clip-rule="evenodd" d="M7.94238 5.00001H6.65332V1.36365H7.95304C8.3188 1.36365 8.63367 1.43645 8.89764 1.58204C9.16279 1.72646 9.36639 1.9342 9.50843 2.20527C9.65048 2.47634 9.7215 2.80067 9.7215 3.17828C9.7215 3.55707 9.64989 3.88259 9.50666 4.15484C9.36461 4.42709 9.16042 4.63602 8.89409 4.78162C8.62894 4.92721 8.3117 5.00001 7.94238 5.00001ZM7.42214 4.34128H7.91042C8.25252 4.34128 8.51175 4.24895 8.68812 4.06429C8.86568 3.87963 8.95446 3.58429 8.95446 3.17828C8.95446 2.77463 8.86568 2.48107 8.68812 2.2976C8.51175 2.11412 8.25311 2.02238 7.9122 2.02238H7.42214V4.34128Z" fill="#777B92"/>
<path fill-rule="evenodd" clip-rule="evenodd" d="M10.291 1.36365H12.6987V1.99753H11.0598V2.864H12.5389V3.49788H11.0598V5.00001H10.291V1.36365Z" fill="#777B92"/>
<path fill-rule="evenodd" clip-rule="evenodd" d="M11.3536 12.3536L8.35355 15.3536C8.15829 15.5488 7.84171 15.5488 7.64645 15.3536L4.64645 12.3536C4.45118 12.1583 4.45118 11.8417 4.64645 11.6464C4.84171 11.4512 5.15829 11.4512 5.35355 11.6464L7.5 13.7929V8C7.5 7.72386 7.72386 7.5 8 7.5C8.27614 7.5 8.5 7.72386 8.5 8V13.7929L10.6464 11.6464C10.8417 11.4512 11.1583 11.4512 11.3536 11.6464C11.5488 11.8417 11.5488 12.1583 11.3536 12.3536Z" fill="#777B92"/>
</svg>
