<svg width="16" height="16" viewBox="0 0 16 16" fill="none" xmlns="http://www.w3.org/2000/svg">
<path fill-rule="evenodd" clip-rule="evenodd" d="M6.63663 2.63676H5.85893C5.82934 2.43672 5.74411 2.27987 5.60325 2.16624C5.46239 2.05142 5.28661 1.99401 5.07591 1.99401C4.79418 1.99401 4.56809 2.09758 4.39764 2.30473C4.22837 2.5107 4.14373 2.80307 4.14373 3.18186C4.14373 3.57012 4.22896 3.86546 4.39941 4.06787C4.57105 4.2691 4.79477 4.36972 5.07058 4.36972C5.27536 4.36972 5.44877 4.31645 5.59082 4.20992C5.73287 4.1022 5.82224 3.95128 5.85893 3.75715L6.63663 3.7607C6.6094 3.98324 6.5301 4.19275 6.3987 4.38925C6.26731 4.58575 6.08857 4.74495 5.86248 4.86688C5.63758 4.9888 5.36947 5.04976 5.05815 5.04976C4.73381 5.04976 4.4438 4.97637 4.18812 4.82959C3.93362 4.68281 3.73239 4.47033 3.58443 4.19216C3.43765 3.91399 3.36426 3.57722 3.36426 3.18186C3.36426 2.78532 3.43883 2.44796 3.58798 2.16979C3.73713 1.89162 3.93954 1.67973 4.19522 1.53414C4.45091 1.38736 4.73855 1.31396 5.05815 1.31396C5.33869 1.31396 5.59141 1.36605 5.81632 1.47021C6.04241 1.5732 6.22707 1.72353 6.37029 1.92121C6.51471 2.11771 6.60349 2.35622 6.63663 2.63676Z" fill="#777B92"/>
<path fill-rule="evenodd" clip-rule="evenodd" d="M9.1606 2.40949C9.1464 2.26626 9.08484 2.15499 8.97594 2.07568C8.86822 1.99637 8.72263 1.95672 8.53915 1.95672C8.35094 1.95672 8.20653 1.99519 8.10591 2.07213C8.0053 2.14907 7.95499 2.24614 7.95499 2.36333C7.95262 2.49353 8.00826 2.59237 8.12189 2.65985C8.23671 2.72613 8.37284 2.77762 8.53027 2.81432L8.85698 2.89245C9.06768 2.93979 9.25471 3.00845 9.41806 3.09841C9.58259 3.18837 9.71162 3.30438 9.80513 3.44642C9.89983 3.58728 9.94718 3.75892 9.94718 3.96134C9.94599 4.29396 9.82111 4.55911 9.57253 4.75679C9.32514 4.95329 8.97949 5.05154 8.5356 5.05154C8.09408 5.05154 7.74192 4.95092 7.47914 4.74969C7.21635 4.54846 7.08023 4.25135 7.07076 3.85835H7.81472C7.82774 4.04065 7.89935 4.17796 8.02956 4.27029C8.16096 4.36143 8.32667 4.407 8.52672 4.407C8.72203 4.407 8.87769 4.36557 8.9937 4.28272C9.11088 4.19986 9.17007 4.09214 9.17125 3.95956C9.17007 3.83646 9.11621 3.74176 9.00968 3.67547C8.90314 3.60918 8.75104 3.55236 8.55336 3.50502L8.1574 3.40558C7.85082 3.33219 7.60875 3.2156 7.4312 3.0558C7.25364 2.896 7.16545 2.68234 7.16664 2.41482C7.16545 2.19465 7.22405 2.00229 7.34242 1.83776C7.46197 1.67204 7.62592 1.54361 7.83425 1.45246C8.04258 1.36013 8.27933 1.31396 8.54448 1.31396C8.81436 1.31396 9.04992 1.36013 9.25115 1.45246C9.45357 1.54479 9.611 1.67322 9.72346 1.83776C9.83591 2.00229 9.89391 2.19287 9.89746 2.40949H9.1606Z" fill="#777B92"/>
<path fill-rule="evenodd" clip-rule="evenodd" d="M12.0002 4.12647H12.0339L12.9146 1.36368H13.7669L12.5133 5.00004H11.5225L10.2672 1.36368H11.1213L12.0002 4.12647Z" fill="#777B92"/>
<path fill-rule="evenodd" clip-rule="evenodd" d="M11.3536 12.3536L8.35355 15.3536C8.15829 15.5488 7.84171 15.5488 7.64645 15.3536L4.64645 12.3536C4.45118 12.1583 4.45118 11.8417 4.64645 11.6464C4.84171 11.4512 5.15829 11.4512 5.35355 11.6464L7.5 13.7929V8C7.5 7.72386 7.72386 7.5 8 7.5C8.27614 7.5 8.5 7.72386 8.5 8V13.7929L10.6464 11.6464C10.8417 11.4512 11.1583 11.4512 11.3536 11.6464C11.5488 11.8417 11.5488 12.1583 11.3536 12.3536Z" fill="#777B92"/>
</svg>
