<svg width="16" height="16" viewBox="0 0 16 16" fill="none" xmlns="http://www.w3.org/2000/svg">
<path fill-rule="evenodd" clip-rule="evenodd" d="M7.78348 0.549353C7.95671 0.466093 8.16234 0.489502 8.31242 0.60957L13.3124 4.60957C13.4403 4.71184 13.5099 4.87022 13.4989 5.03356C13.488 5.1969 13.3977 5.34452 13.2573 5.42875L9.14363 7.89697L13.2726 10.5808C13.4072 10.6683 13.4916 10.8151 13.4995 10.9754C13.5074 11.1358 13.4378 11.2902 13.3124 11.3904L8.31242 15.3904C8.16234 15.5105 7.95671 15.5339 7.78348 15.4507C7.61025 15.3674 7.50008 15.1922 7.50008 15V8.8831L3.25732 11.4288C3.02053 11.5708 2.7134 11.494 2.57133 11.2573C2.42926 11.0205 2.50604 10.7133 2.74283 10.5713L7.25652 7.86304L2.72758 4.91923C2.49605 4.76873 2.43036 4.45904 2.58085 4.22751C2.73135 3.99598 3.04104 3.93029 3.27257 4.08078L7.50008 6.82866V1C7.50008 0.807802 7.61025 0.632613 7.78348 0.549353ZM8.50008 8.67135V13.9597L12.1472 11.042L8.50008 8.67135ZM8.50008 7.11691L12.1262 4.94123L8.50008 2.04032V7.11691Z" fill="#777B92"/>
</svg>
