<svg width="16" height="16" viewBox="0 0 16 16" fill="none" xmlns="http://www.w3.org/2000/svg">
<path fill-rule="evenodd" clip-rule="evenodd" d="M2 0.5H14C14.8284 0.5 15.5 1.17157 15.5 2V14C15.5 14.8284 14.8284 15.5 14 15.5H11.5C11.2239 15.5 11 15.2761 11 15C11 14.7239 11.2239 14.5 11.5 14.5H14C14.2761 14.5 14.5 14.2761 14.5 14V2C14.5 1.72386 14.2761 1.5 14 1.5H2C1.72386 1.5 1.5 1.72386 1.5 2V4.5C1.5 4.77614 1.27614 5 1 5C0.723858 5 0.5 4.77614 0.5 4.5V2C0.5 1.17157 1.17157 0.5 2 0.5Z" fill="#777B92"/>
<path fill-rule="evenodd" clip-rule="evenodd" d="M2 15C1.44772 15 1 14.5523 1 14C1 13.4477 1.44772 13 2 13C2.55228 13 3 13.4477 3 14C3 14.5523 2.55228 15 2 15Z" fill="#777B92"/>
<path fill-rule="evenodd" clip-rule="evenodd" d="M1.5 11C1.5 10.7239 1.72386 10.5 2 10.5C3.933 10.5 5.5 12.067 5.5 14C5.5 14.2761 5.27614 14.5 5 14.5C4.72386 14.5 4.5 14.2761 4.5 14C4.5 12.6193 3.38071 11.5 2 11.5C1.72386 11.5 1.5 11.2761 1.5 11Z" fill="#777B92"/>
<path fill-rule="evenodd" clip-rule="evenodd" d="M2 7.5C5.58985 7.5 8.5 10.4101 8.5 14C8.5 14.2761 8.27614 14.5 8 14.5C7.72386 14.5 7.5 14.2761 7.5 14C7.5 10.9624 5.03757 8.5 2 8.5C1.72386 8.5 1.5 8.27614 1.5 8C1.5 7.72386 1.72386 7.5 2 7.5Z" fill="#777B92"/>
</svg>
