<svg width="16" height="16" viewBox="0 0 16 16" fill="none" xmlns="http://www.w3.org/2000/svg">
<path fill-rule="evenodd" clip-rule="evenodd" d="M10.424 6.26507L7.92403 10.2651C7.83665 10.4049 7.68597 10.4926 7.52125 10.4996C7.35653 10.5066 7.19895 10.432 7.10003 10.3001L5.60003 8.30007C5.43434 8.07915 5.47912 7.76575 5.70003 7.60007C5.92094 7.43438 6.23434 7.47915 6.40003 7.70007L7.46251 9.1167L9.57603 5.73507C9.72239 5.5009 10.0309 5.42971 10.265 5.57607C10.4992 5.72242 10.5704 6.0309 10.424 6.26507Z" fill="#777B92"/>
<path fill-rule="evenodd" clip-rule="evenodd" d="M8 0.5C8.27614 0.5 8.5 0.723858 8.5 1V1.51894C11.6912 1.7617 14.2383 4.3088 14.4811 7.5H15C15.2761 7.5 15.5 7.72386 15.5 8C15.5 8.27614 15.2761 8.5 15 8.5H14.4811C14.2383 11.6912 11.6912 14.2383 8.5 14.4811V15C8.5 15.2761 8.27614 15.5 8 15.5C7.72386 15.5 7.5 15.2761 7.5 15V14.4811C4.3088 14.2383 1.7617 11.6912 1.51894 8.5H1C0.723858 8.5 0.5 8.27614 0.5 8C0.5 7.72386 0.723858 7.5 1 7.5H1.51894C1.7617 4.3088 4.3088 1.7617 7.5 1.51894V1C7.5 0.723858 7.72386 0.5 8 0.5ZM2.5 8C2.5 11.0376 4.96243 13.5 8 13.5C11.0376 13.5 13.5 11.0376 13.5 8C13.5 4.96243 11.0376 2.5 8 2.5C4.96243 2.5 2.5 4.96243 2.5 8Z" fill="#777B92"/>
</svg>
