<svg width="16" height="16" viewBox="0 0 16 16" fill="none" xmlns="http://www.w3.org/2000/svg">
<path fill-rule="evenodd" clip-rule="evenodd" d="M5.63122 7.66219C5.63616 7.65681 5.64123 7.65151 5.64645 7.6463L11.9393 1.3534C12.5251 0.767615 13.4749 0.767617 14.0607 1.3534L14.6464 1.93919C15.2322 2.52498 15.2322 3.47472 14.6464 4.06051L8.35355 10.3534C8.34837 10.3586 8.3431 10.3636 8.33775 10.3685C8.44336 10.7273 8.50003 11.107 8.50003 11.5C8.50003 13.7091 6.70916 15.5 4.50003 15.5H1.99974C1.17136 15.5 0.499988 14.8288 0.5 14.0003L0.500026 11.5C0.500026 9.29086 2.29089 7.5 4.50003 7.5C4.89289 7.5 5.27253 7.55664 5.63122 7.66219ZM12.6464 2.06051L6.60743 8.09953C7.13153 8.42502 7.57484 8.8683 7.90037 9.39238L13.9393 3.3534C14.1346 3.15814 14.1346 2.84156 13.9393 2.6463L13.3536 2.06051C13.1583 1.86525 12.8417 1.86525 12.6464 2.06051ZM1.50003 11.5L1.5 14.0004C1.5 14.2764 1.72353 14.5 1.99974 14.5H4.50003C6.15688 14.5 7.50003 13.1569 7.50003 11.5C7.50003 9.84315 6.15688 8.5 4.50003 8.5C2.84317 8.5 1.50003 9.84315 1.50003 11.5Z" fill="#777B92"/>
</svg>
