<svg width="16" height="16" viewBox="0 0 16 16" fill="none" xmlns="http://www.w3.org/2000/svg">
<path fill-rule="evenodd" clip-rule="evenodd" d="M6.5 8.83681V2C6.5 1.17157 7.17157 0.5 8 0.5C8.82843 0.5 9.5 1.17157 9.5 2V8.83681C10.682 9.3983 11.5 10.603 11.5 11.9998C11.5 13.9328 9.933 15.4998 8 15.4998C6.067 15.4998 4.5 13.9328 4.5 11.9998C4.5 10.603 5.31804 9.3983 6.5 8.83681ZM7.5 2V9C7.5 9.02907 7.49752 9.05757 7.49276 9.08528C7.53389 9.3213 7.40005 9.55946 7.16662 9.64197C6.19496 9.9854 5.5 10.9121 5.5 11.9998C5.5 13.3806 6.61929 14.4998 8 14.4998C9.38071 14.4998 10.5 13.3806 10.5 11.9998C10.5 10.9121 9.80504 9.9854 8.83338 9.64197C8.59995 9.55946 8.46611 9.3213 8.50724 9.08528C8.50248 9.05756 8.5 9.02907 8.5 9V2C8.5 1.72386 8.27614 1.5 8 1.5C7.72386 1.5 7.5 1.72386 7.5 2Z" fill="#777B92"/>
</svg>
