<svg width="16" height="16" viewBox="0 0 16 16" fill="none" xmlns="http://www.w3.org/2000/svg">
<path fill-rule="evenodd" clip-rule="evenodd" d="M5 0.5C7.48528 0.5 9.5 2.51472 9.5 5C9.5 7.48528 7.48528 9.5 5 9.5C2.51472 9.5 0.5 7.48528 0.5 5C0.5 2.51472 2.51472 0.5 5 0.5ZM1.5 5C1.5 6.933 3.067 8.5 5 8.5C6.933 8.5 8.5 6.933 8.5 5C8.5 3.067 6.933 1.5 5 1.5C3.067 1.5 1.5 3.067 1.5 5Z" fill="#777B92"/>
<path d="M10 8.5H14C14.8284 8.5 15.5 9.17157 15.5 10V14C15.5 14.8284 14.8284 15.5 14 15.5H10C9.17157 15.5 8.5 14.8284 8.5 14V10C8.5 9.17157 9.17157 8.5 10 8.5ZM9.5 10V14C9.5 14.2761 9.72386 14.5 10 14.5H14C14.2761 14.5 14.5 14.2761 14.5 14V10C14.5 9.72386 14.2761 9.5 14 9.5H10C9.72386 9.5 9.5 9.72386 9.5 10Z" fill="#777B92"/>
</svg>
