<svg width="16" height="16" viewBox="0 0 16 16" fill="none" xmlns="http://www.w3.org/2000/svg">
<path fill-rule="evenodd" clip-rule="evenodd" d="M2 0.5H11C11.8284 0.5 12.5 1.17157 12.5 2V11C12.5 11.8284 11.8284 12.5 11 12.5H2C1.17157 12.5 0.5 11.8284 0.5 11V2C0.5 1.17157 1.17157 0.5 2 0.5ZM1.5 2V11C1.5 11.2761 1.72386 11.5 2 11.5H11C11.2761 11.5 11.5 11.2761 11.5 11V2C11.5 1.72386 11.2761 1.5 11 1.5H2C1.72386 1.5 1.5 1.72386 1.5 2Z" fill="#777B92"/>
<path fill-rule="evenodd" clip-rule="evenodd" d="M15.5 4V14C15.5 14.8284 14.8284 15.5 14 15.5H4C3.72386 15.5 3.5 15.2761 3.5 15C3.5 14.7239 3.72386 14.5 4 14.5H14C14.2761 14.5 14.5 14.2761 14.5 14V4C14.5 3.72386 14.7239 3.5 15 3.5C15.2761 3.5 15.5 3.72386 15.5 4Z" fill="#777B92"/>
</svg>
