<svg width="16" height="16" viewBox="0 0 16 16" fill="none" xmlns="http://www.w3.org/2000/svg">
<path fill-rule="evenodd" clip-rule="evenodd" d="M7.146 1.98302C7.65966 1.6274 8.33996 1.62741 8.85363 1.98302L14.1678 5.66205C14.7159 6.04152 14.9478 6.73722 14.737 7.36967L12.7021 13.4744C12.4979 14.0869 11.9247 14.5 11.2791 14.5H4.72057C4.07493 14.5 3.50172 14.0869 3.29755 13.4744L1.26264 7.36967C1.05182 6.73722 1.28372 6.04152 1.83185 5.66204L7.146 1.98302ZM8.28442 2.80521C8.11319 2.68667 7.88643 2.68667 7.71521 2.80521L2.40106 6.48424C2.21835 6.61073 2.14105 6.84263 2.21132 7.05345L4.24623 13.1582C4.31429 13.3623 4.50536 13.5 4.72057 13.5H11.2791C11.4943 13.5 11.6853 13.3623 11.7534 13.1582L13.7883 7.05345C13.8586 6.84263 13.7813 6.61073 13.5986 6.48424L8.28442 2.80521Z" fill="#777B92"/>
</svg>
