<svg width="16" height="16" viewBox="0 0 16 16" fill="none" xmlns="http://www.w3.org/2000/svg">
<path fill-rule="evenodd" clip-rule="evenodd" d="M10.3536 1.35355L8.70711 3L11.3536 5.64645C11.5488 5.84171 11.5488 6.15829 11.3536 6.35355C11.1583 6.54882 10.8417 6.54882 10.6464 6.35355L5.64645 1.35355C5.45118 1.15829 5.45118 0.841709 5.64645 0.646447C5.84171 0.451184 6.15829 0.451184 6.35355 0.646447L8 2.29289L9.64645 0.646447C9.84171 0.451184 10.1583 0.451184 10.3536 0.646447C10.5488 0.841709 10.5488 1.15829 10.3536 1.35355Z" fill="#777B92"/>
<path fill-rule="evenodd" clip-rule="evenodd" d="M6.35355 5.35355L3.35331 8.3538L1.35355 10.3536C1.15829 10.5488 0.841709 10.5488 0.646447 10.3536C0.451184 10.1583 0.451184 9.84171 0.646447 9.64645L2.29289 8L0.646447 6.35355C0.451184 6.15829 0.451184 5.84171 0.646447 5.64645C0.841709 5.45118 1.15829 5.45118 1.35355 5.64645L3 7.29289L5.64645 4.64645C5.84171 4.45118 6.15829 4.45118 6.35355 4.64645C6.54882 4.84171 6.54882 5.15829 6.35355 5.35355Z" fill="#777B92"/>
<path fill-rule="evenodd" clip-rule="evenodd" d="M15.3536 5.64645C15.5488 5.84171 15.5488 6.15829 15.3536 6.35355L13.7071 8L15.3536 9.64645C15.5488 9.84171 15.5488 10.1583 15.3536 10.3536C15.1583 10.5488 14.8417 10.5488 14.6464 10.3536L13 8.70711L10.3536 11.3536C10.1583 11.5488 9.84171 11.5488 9.64645 11.3536C9.45118 11.1583 9.45118 10.8417 9.64645 10.6464L14.6464 5.64645C14.8417 5.45118 15.1583 5.45118 15.3536 5.64645Z" fill="#777B92"/>
<path fill-rule="evenodd" clip-rule="evenodd" d="M5.64645 14.6464L7.29289 13L4.64645 10.3536C4.45118 10.1583 4.45118 9.84171 4.64645 9.64645C4.84171 9.45118 5.15829 9.45118 5.35355 9.64645L10.3536 14.6464C10.5488 14.8417 10.5488 15.1583 10.3536 15.3536C10.1583 15.5488 9.84171 15.5488 9.64645 15.3536L8 13.7071L6.35355 15.3536C6.15829 15.5488 5.84171 15.5488 5.64645 15.3536C5.45118 15.1583 5.45118 14.8417 5.64645 14.6464Z" fill="#777B92"/>
</svg>
