<svg width="16" height="16" viewBox="0 0 16 16" fill="none" xmlns="http://www.w3.org/2000/svg">
<path fill-rule="evenodd" clip-rule="evenodd" d="M5.5 8C5.5 9.38071 6.61929 10.5 8 10.5C9.38071 10.5 10.5 9.38071 10.5 8C10.5 7.72386 10.7239 7.5 11 7.5C11.2761 7.5 11.5 7.72386 11.5 8C11.5 9.933 9.933 11.5 8 11.5C6.067 11.5 4.5 9.933 4.5 8C4.5 7.72386 4.72386 7.5 5 7.5C5.27614 7.5 5.5 7.72386 5.5 8Z" fill="#777B92"/>
<path fill-rule="evenodd" clip-rule="evenodd" d="M0.5 4.41421C0.5 4.01639 0.658035 3.63486 0.93934 3.35355L3.35355 0.93934C3.63486 0.658035 4.01639 0.5 4.41421 0.5H11.5858C11.9836 0.5 12.3651 0.658035 12.6464 0.93934L15.0607 3.35355C15.342 3.63486 15.5 4.01639 15.5 4.41421V14C15.5 14.8284 14.8284 15.5 14 15.5H2C1.17157 15.5 0.5 14.8284 0.5 14V4.41421ZM4.41421 1.5C4.28161 1.5 4.15443 1.55268 4.06066 1.64645L2.20711 3.5H13.7929L11.9393 1.64645C11.8456 1.55268 11.7184 1.5 11.5858 1.5H4.41421ZM14.5 14V5C14.5 4.72386 14.2761 4.5 14 4.5H2C1.72386 4.5 1.5 4.72386 1.5 5V14C1.5 14.2761 1.72386 14.5 2 14.5H14C14.2761 14.5 14.5 14.2761 14.5 14Z" fill="#777B92"/>
</svg>
