<svg width="24" height="24" viewBox="0 0 24 24" fill="none" xmlns="http://www.w3.org/2000/svg">
<path fill-rule="evenodd" clip-rule="evenodd" d="M19 2V3H20C20.5523 3 21 3.44772 21 4C21 4.55228 20.5523 5 20 5H19V6C19 6.55228 18.5523 7 18 7C17.4477 7 17 6.55228 17 6V5H16C15.4477 5 15 4.55228 15 4C15 3.44772 15.4477 3 16 3H17V2C17 1.44772 17.4477 1 18 1C18.5523 1 19 1.44772 19 2Z" fill="#777B92"/>
<path fill-rule="evenodd" clip-rule="evenodd" d="M12 4C8.68629 4 6 6.68629 6 10C6 11.7032 6.99521 13.6852 8.34596 15.5452C9.64352 17.3321 11.1499 18.8465 12 19.6481C12.8501 18.8465 14.3565 17.3321 15.654 15.5452C17.0048 13.6852 18 11.7032 18 10C18 9.708 17.9792 9.42144 17.9392 9.1416C17.861 8.59488 18.2408 8.08828 18.7875 8.01008C19.3342 7.93187 19.8408 8.31168 19.919 8.8584C19.9724 9.23176 20 9.61296 20 10C20 12.3688 18.6738 14.7905 17.2723 16.7204C15.8438 18.6877 14.2016 20.3247 13.3182 21.1539C12.5738 21.8525 11.4262 21.8525 10.6818 21.1539C9.79835 20.3247 8.15624 18.6877 6.72765 16.7204C5.32618 14.7905 4 12.3688 4 10C4 5.58172 7.58172 2 12 2C12.387 2 12.7682 2.02756 13.1416 2.08096C13.6883 2.15917 14.0681 2.66577 13.9899 3.21249C13.9117 3.75921 13.4051 4.13902 12.8584 4.06081C12.5786 4.02078 12.292 4 12 4Z" fill="#777B92"/>
<path fill-rule="evenodd" clip-rule="evenodd" d="M12 7C13.6569 7 15 8.34315 15 10C15 11.6569 13.6569 13 12 13C10.3431 13 9 11.6569 9 10C9 8.34315 10.3431 7 12 7ZM11 10C11 10.5523 11.4477 11 12 11C12.5523 11 13 10.5523 13 10C13 9.44772 12.5523 9 12 9C11.4477 9 11 9.44772 11 10Z" fill="#777B92"/>
</svg>
