<svg width="24" height="24" viewBox="0 0 24 24" fill="none" xmlns="http://www.w3.org/2000/svg">
<path fill-rule="evenodd" clip-rule="evenodd" d="M12 9C13.6569 9 15 10.3431 15 12C15 13.6569 13.6569 15 12 15C10.3431 15 9 13.6569 9 12C9 10.3431 10.3431 9 12 9ZM11 12C11 12.5523 11.4477 13 12 13C12.5523 13 13 12.5523 13 12C13 11.4477 12.5523 11 12 11C11.4477 11 11 11.4477 11 12Z" fill="#777B92"/>
<path fill-rule="evenodd" clip-rule="evenodd" d="M12 1C12.5523 1 13 1.44772 13 2V3.05493C17.1716 3.51608 20.4839 6.82838 20.9451 11H22C22.5523 11 23 11.4477 23 12C23 12.5523 22.5523 13 22 13H20.9451C20.4839 17.1716 17.1716 20.4839 13 20.9451V22C13 22.5523 12.5523 23 12 23C11.4477 23 11 22.5523 11 22V20.9451C6.82838 20.4839 3.51608 17.1716 3.05493 13H2C1.44772 13 1 12.5523 1 12C1 11.4477 1.44772 11 2 11H3.05493C3.51608 6.82838 6.82838 3.51608 11 3.05493V2C11 1.44772 11.4477 1 12 1ZM5 12C5 15.866 8.13401 19 12 19C15.866 19 19 15.866 19 12C19 8.13401 15.866 5 12 5C8.13401 5 5 8.13401 5 12Z" fill="#777B92"/>
</svg>
