<svg width="16" height="16" viewBox="0 0 16 16" fill="none" xmlns="http://www.w3.org/2000/svg">
<path fill-rule="evenodd" clip-rule="evenodd" d="M2 0.5H14C14.8284 0.5 15.5 1.17157 15.5 2V14C15.5 14.8284 14.8284 15.5 14 15.5H2C1.17157 15.5 0.5 14.8284 0.5 14V2C0.5 1.17157 1.17157 0.5 2 0.5ZM1.5 2V11.5H3.5L3.5 1.5H2C1.72386 1.5 1.5 1.72386 1.5 2ZM4.5 11.5L10.7929 11.5L4.5 5.20711L4.5 11.5ZM4.5 3.5L14.5 3.5V2C14.5 1.72386 14.2761 1.5 14 1.5L4.5 1.5V3.5ZM1.5 12.5L1.5 14C1.5 14.2761 1.72386 14.5 2 14.5H11.5V12.5L1.5 12.5ZM5.20711 4.5L11.5 10.7929L11.5 4.5L5.20711 4.5ZM14 14.5C14.2761 14.5 14.5 14.2761 14.5 14V4.5H12.5L12.5 14.5H14Z" fill="#777B92"/>
</svg>
