<svg width="16" height="16" viewBox="0 0 16 16" fill="none" xmlns="http://www.w3.org/2000/svg">
<path fill-rule="evenodd" clip-rule="evenodd" d="M0.5 1C0.5 0.723858 0.723858 0.5 1 0.5H7C7.27614 0.5 7.5 0.723858 7.5 1C7.5 1.27614 7.27614 1.5 7 1.5H6.5V5C6.5 5.27614 6.72386 5.5 7 5.5H10C12.4853 5.5 14.5 7.51472 14.5 10V14.5H15C15.2761 14.5 15.5 14.7239 15.5 15C15.5 15.2761 15.2761 15.5 15 15.5H9C8.72386 15.5 8.5 15.2761 8.5 15C8.5 14.7239 8.72386 14.5 9 14.5H9.5V11C9.5 10.7239 9.27614 10.5 9 10.5H6C3.51472 10.5 1.5 8.48528 1.5 6V1.5H1C0.723858 1.5 0.5 1.27614 0.5 1ZM2.5 4.5V6C2.5 7.933 4.067 9.5 6 9.5H9C9.82843 9.5 10.5 10.1716 10.5 11V11.5H13.5V10C13.5 8.067 11.933 6.5 10 6.5H7C6.17157 6.5 5.5 5.82843 5.5 5V4.5H2.5ZM5.5 3.5V1.5H2.5V3.5H5.5ZM13.5 12.5H10.5V14.5H13.5V12.5Z" fill="#777B92"/>
</svg>
