<svg width="16" height="16" viewBox="0 0 16 16" fill="none" xmlns="http://www.w3.org/2000/svg">
<path fill-rule="evenodd" clip-rule="evenodd" d="M9 7C9 7.55228 8.55228 8 8 8C7.44772 8 7 7.55228 7 7C7 6.44772 7.44772 6 8 6C8.55228 6 9 6.44772 9 7Z" fill="#777B92"/>
<path fill-rule="evenodd" clip-rule="evenodd" d="M9 11C9 11.5523 8.55228 12 8 12C7.44772 12 7 11.5523 7 11C7 10.4477 7.44772 10 8 10C8.55228 10 9 10.4477 9 11Z" fill="#777B92"/>
<path fill-rule="evenodd" clip-rule="evenodd" d="M10 10C9.44772 10 9 9.55228 9 9C9 8.44772 9.44772 8 10 8C10.5523 8 11 8.44772 11 9C11 9.55228 10.5523 10 10 10Z" fill="#777B92"/>
<path fill-rule="evenodd" clip-rule="evenodd" d="M7 9C7 9.55228 6.55228 10 6 10C5.44772 10 5 9.55228 5 9C5 8.44772 5.44772 8 6 8C6.55228 8 7 8.44772 7 9Z" fill="#777B92"/>
<path fill-rule="evenodd" clip-rule="evenodd" d="M13.3013 5.60092C13.3165 5.61239 13.3311 5.62485 13.3452 5.63829C14.4629 6.70497 14.9865 8.3726 15.241 9.69276C15.3706 10.3652 15.4351 10.9743 15.4674 11.4152C15.4836 11.6361 15.4917 11.8157 15.4958 11.9412C15.4979 12.004 15.4989 12.0532 15.4995 12.0874L15.4999 12.1272L15.5 12.1383L15.5 12.1425C15.5 12.1427 15.5 12.1432 15 12.1432C15.5 12.1432 15.5 12.1434 15.5 12.1436L15.5 12.1452L15.5 12.1482L15.4999 12.1573L15.4993 12.1875C15.4987 12.2128 15.4975 12.2482 15.4952 12.2922C15.4906 12.3801 15.4815 12.5034 15.4635 12.6504C15.4278 12.9419 15.3555 13.3395 15.2068 13.7442C15.059 14.1466 14.8253 14.5839 14.45 14.9243C14.064 15.2744 13.5509 15.5003 12.9 15.5003C11.6182 15.5003 10.7691 15.2299 10.0394 14.9715L9.88181 14.9155C9.23418 14.6846 8.71652 14.5 8 14.5C7.24854 14.5 6.6431 14.7038 5.92203 14.9465L5.84055 14.9739C5.08824 15.2268 4.2359 15.5 3.1 15.5C2.44909 15.5 1.93604 15.2741 1.55002 14.9239C1.17473 14.5835 0.941046 14.1462 0.793188 13.7439C0.644453 13.3392 0.572233 12.9416 0.536522 12.6501C0.518508 12.503 0.509404 12.3797 0.504789 12.2918C0.502478 12.2478 0.501282 12.2124 0.500663 12.1872L0.500099 12.157L0.500016 12.1478L0.500003 12.1448L0.5 12.1437C0.5 12.1435 0.5 12.1429 1 12.1429C0.5 12.1429 0.5 12.1427 0.5 12.1426V12.1412L0.500011 12.1379L0.500075 12.1269L0.500548 12.0871C0.501079 12.0529 0.502122 12.0036 0.504173 11.9409C0.508274 11.8154 0.516415 11.6358 0.532585 11.4149C0.564871 10.974 0.62944 10.365 0.759036 9.69258C1.01346 8.3725 1.53714 6.70496 2.65479 5.63829C2.66888 5.62485 2.68354 5.61239 2.6987 5.60092C3.43002 2.25925 6.03147 0.5 8 0.5C9.96853 0.5 12.57 2.25925 13.3013 5.60092ZM3.5 7.5C3.5 9.1942 4.02879 10.7097 4.86078 11.7913C5.69235 12.8724 6.80655 13.5 8 13.5C9.19345 13.5 10.3076 12.8724 11.1392 11.7913C11.9712 10.7097 12.5 9.1942 12.5 7.5C12.5 3.40437 9.68693 1.5 8 1.5C6.31307 1.5 3.5 3.40437 3.5 7.5ZM2.50008 7.53793C2.13178 8.26037 1.89246 9.09579 1.74096 9.88184C1.62056 10.5066 1.56013 11.0753 1.52991 11.488C1.51484 11.6939 1.50735 11.86 1.50364 11.9735C1.50178 12.0303 1.50087 12.0738 1.50043 12.1026L1.50005 12.1344L1.5 12.1416L1.5 12.143L1.50003 12.1451L1.50036 12.1627C1.50077 12.1793 1.50162 12.2053 1.50341 12.2394C1.507 12.3077 1.5143 12.4077 1.5291 12.5285C1.55902 12.7727 1.61805 13.0894 1.73181 13.399C1.84645 13.7109 2.00652 13.9879 2.22185 14.1832C2.42646 14.3688 2.7009 14.5 3.1 14.5C4.06409 14.5 4.78675 14.2732 5.52194 14.0261L5.6377 13.987C5.696 13.9674 5.75466 13.9476 5.81373 13.9278C5.14867 13.562 4.5574 13.0371 4.06815 12.401C3.09703 11.1386 2.5079 9.41878 2.50008 7.53793ZM10.1482 13.9485C10.1664 13.955 10.1845 13.9615 10.2027 13.968C10.2597 13.9885 10.3165 14.0088 10.3731 14.0289C11.0559 14.2706 11.7818 14.5003 12.9 14.5003C13.2991 14.5003 13.5735 14.3692 13.7781 14.1836C13.9935 13.9883 14.1535 13.7113 14.2682 13.3993C14.382 13.0897 14.441 12.773 14.4709 12.5288C14.4857 12.408 14.493 12.3081 14.4966 12.2398C14.4984 12.2057 14.4992 12.1796 14.4996 12.163L14.5 12.1455L14.5 12.1429L14.5 12.1348L14.4996 12.1029C14.4991 12.0742 14.4982 12.0306 14.4964 11.9739C14.4926 11.8603 14.4852 11.6942 14.4701 11.4883C14.4399 11.0756 14.3794 10.5068 14.259 9.882C14.1075 9.0959 13.8682 8.26043 13.4999 7.53797C13.4921 9.41881 12.903 11.1386 11.9318 12.401C11.4333 13.0492 10.8288 13.5819 10.1482 13.9485Z" fill="#777B92"/>
</svg>
