<svg width="16" height="16" viewBox="0 0 16 16" fill="none" xmlns="http://www.w3.org/2000/svg">
<path fill-rule="evenodd" clip-rule="evenodd" d="M5.5 8C5.5 7.72386 5.72386 7.5 6 7.5H10C10.2761 7.5 10.5 7.72386 10.5 8C10.5 8.27614 10.2761 8.5 10 8.5H6C5.72386 8.5 5.5 8.27614 5.5 8Z" fill="#777B92"/>
<path fill-rule="evenodd" clip-rule="evenodd" d="M8.5 1V3.5H10C11.933 3.5 13.5 5.067 13.5 7V11.5H15C15.2761 11.5 15.5 11.7239 15.5 12C15.5 12.2761 15.2761 12.5 15 12.5H11.5V15C11.5 15.2761 11.2761 15.5 11 15.5C10.7239 15.5 10.5 15.2761 10.5 15V12.5H5.5V15C5.5 15.2761 5.27614 15.5 5 15.5C4.72386 15.5 4.5 15.2761 4.5 15V12.5H1C0.723858 12.5 0.5 12.2761 0.5 12C0.5 11.7239 0.723858 11.5 1 11.5H2.5V7C2.5 5.067 4.067 3.5 6 3.5H7.5V1C7.5 0.723858 7.72386 0.5 8 0.5C8.27614 0.5 8.5 0.723858 8.5 1ZM12.5 11.5V7C12.5 5.61929 11.3807 4.5 10 4.5H6C4.61929 4.5 3.5 5.61929 3.5 7V11.5H12.5Z" fill="#777B92"/>
</svg>
