<svg width="16" height="16" viewBox="0 0 16 16" fill="none" xmlns="http://www.w3.org/2000/svg">
<path fill-rule="evenodd" clip-rule="evenodd" d="M9 0.5C10.933 0.5 12.5 2.067 12.5 4V4.5H14C14.8284 4.5 15.5 5.17157 15.5 6V8C15.5 8.82843 14.8284 9.5 14 9.5H12.5V14.5H15C15.2761 14.5 15.5 14.7239 15.5 15C15.5 15.2761 15.2761 15.5 15 15.5H3C2.72386 15.5 2.5 15.2761 2.5 15C2.5 14.7239 2.72386 14.5 3 14.5H5.5V6.5L1 6.5C0.723858 6.5 0.5 6.27614 0.5 6C0.5 5.72386 0.723858 5.5 1 5.5L5.5 5.5V4C5.5 2.067 7.067 0.5 9 0.5ZM14 8.5C14.2761 8.5 14.5 8.27614 14.5 8V6C14.5 5.72386 14.2761 5.5 14 5.5H12.5V8.5H14ZM11.5 4C11.5 2.61929 10.3807 1.5 9 1.5C7.61929 1.5 6.5 2.61929 6.5 4V14.5H11.5V4Z" fill="#777B92"/>
<path fill-rule="evenodd" clip-rule="evenodd" d="M2 10C1.44772 10 1 9.55228 1 9C1 8 2 7 2 7C2 7 3 8 3 9C3 9.55228 2.55228 10 2 10Z" fill="#777B92"/>
</svg>
