<svg width="16" height="16" viewBox="0 0 16 16" fill="none" xmlns="http://www.w3.org/2000/svg">
<path fill-rule="evenodd" clip-rule="evenodd" d="M8 10C7.44772 10 7 9.55228 7 9C7 8.44772 7.44772 8 8 8C8.55228 8 9 8.44772 9 9C9 9.55228 8.55228 10 8 10Z" fill="#777B92"/>
<path fill-rule="evenodd" clip-rule="evenodd" d="M8 14C7.44772 14 7 13.5523 7 13C7 12.4477 7.44772 12 8 12C8.55228 12 9 12.4477 9 13C9 13.5523 8.55228 14 8 14Z" fill="#777B92"/>
<path fill-rule="evenodd" clip-rule="evenodd" d="M11 11C11 11.5523 10.5523 12 10 12C9.44772 12 9 11.5523 9 11C9 10.4477 9.44772 10 10 10C10.5523 10 11 10.4477 11 11Z" fill="#777B92"/>
<path fill-rule="evenodd" clip-rule="evenodd" d="M6 12C5.44772 12 5 11.5523 5 11C5 10.4477 5.44772 10 6 10C6.55228 10 7 10.4477 7 11C7 11.5523 6.55228 12 6 12Z" fill="#777B92"/>
<path fill-rule="evenodd" clip-rule="evenodd" d="M0.5 6C0.5 4.4159 1.39976 3.02893 2.75963 2.0576C4.12046 1.08558 5.97481 0.5 8 0.5C10.0252 0.5 11.8795 1.08558 13.2404 2.0576C14.6002 3.02893 15.5 4.4159 15.5 6C15.5 7.8315 14.1201 9.36466 12.4493 10.3225C12.4827 10.5434 12.5 10.7697 12.5 11C12.5 11.169 12.4907 11.3358 12.4725 11.5H14C14.8284 11.5 15.5 12.1716 15.5 13V14C15.5 14.8284 14.8284 15.5 14 15.5H2C1.17157 15.5 0.5 14.8284 0.5 14V13C0.5 12.1716 1.17157 11.5 2 11.5H3.52746C3.50932 11.3358 3.5 11.169 3.5 11C3.5 10.7697 3.5173 10.5434 3.55068 10.3225C1.87988 9.36466 0.5 7.8315 0.5 6ZM3.34087 2.87133C2.16724 3.70964 1.5 4.82267 1.5 6C1.5 7.24429 2.4188 8.45287 3.82349 9.32145C4.48882 7.66756 6.10806 6.5 8 6.5C9.89194 6.5 11.5112 7.66756 12.1765 9.32145C13.5812 8.45287 14.5 7.24429 14.5 6C14.5 4.82267 13.8328 3.70964 12.6591 2.87133C11.4865 2.03371 9.8408 1.5 8 1.5C6.1592 1.5 4.51354 2.03371 3.34087 2.87133ZM5.17133 14.5C4.53115 13.982 4.03593 13.2918 3.75606 12.5H2C1.72386 12.5 1.5 12.7239 1.5 13V14C1.5 14.2761 1.72386 14.5 2 14.5H5.17133ZM8 14.5C9.933 14.5 11.5 12.933 11.5 11C11.5 9.067 9.933 7.5 8 7.5C6.067 7.5 4.5 9.067 4.5 11C4.5 12.933 6.067 14.5 8 14.5ZM14 14.5C14.2761 14.5 14.5 14.2761 14.5 14V13C14.5 12.7239 14.2761 12.5 14 12.5H12.2439C11.9641 13.2918 11.4689 13.982 10.8287 14.5H14Z" fill="#777B92"/>
</svg>
