<svg width="16" height="16" viewBox="0 0 16 16" fill="none" xmlns="http://www.w3.org/2000/svg">
<path fill-rule="evenodd" clip-rule="evenodd" d="M3.08944 1.50812L14.0894 3.50812C14.2691 3.54078 14.4166 3.66874 14.4743 3.84194L15.4699 6.82874C15.5085 6.93431 15.5092 7.04539 15.4782 7.14625L13.4847 14.1236C13.4709 14.1776 13.4479 14.23 13.4154 14.2784C13.3976 14.305 13.3774 14.3296 13.3551 14.3521C13.2634 14.4445 13.1368 14.5001 13 14.5001H4C3.81061 14.5001 3.63748 14.3931 3.55279 14.2237L0.552787 8.22366C0.521072 8.16023 0.503526 8.09145 0.50048 8.02195C0.500191 8.01538 0.500032 8.00879 0.500005 8.00219C0.499773 7.94823 0.508273 7.8941 0.525659 7.84194L2.52566 1.84194C2.60434 1.60588 2.84463 1.46361 3.08944 1.50812ZM14.3801 6.72161L13.6193 4.43903L3.33721 2.56956L1.63954 7.66257L7.96656 9.47029L14.3801 6.72161ZM1.9554 8.79283L4.30902 13.5001H11.575L7.7662 10.4531L1.9554 8.79283ZM12.7257 13.14L14.2304 7.87377L8.96409 10.1307L12.7257 13.14Z" fill="#777B92"/>
</svg>
