<svg width="16" height="16" viewBox="0 0 16 16" fill="none" xmlns="http://www.w3.org/2000/svg">
<path fill-rule="evenodd" clip-rule="evenodd" d="M10 6C9.44772 6 9 5.55228 9 5C9 4.44772 9.44772 4 10 4C10.5523 4 11 4.44772 11 5C11 5.55228 10.5523 6 10 6Z" fill="#777B92"/>
<path fill-rule="evenodd" clip-rule="evenodd" d="M15.5 8C15.5 12.1421 12.1421 15.5 8 15.5C3.85786 15.5 0.5 12.1421 0.5 8C0.5 3.85786 3.85786 0.5 8 0.5C12.1421 0.5 15.5 3.85786 15.5 8ZM8 1.5C4.41015 1.5 1.5 4.41015 1.5 8C1.5 11.4216 4.14378 14.2257 7.5 14.4811L7.5 9.47811C6.39883 9.38013 5.44861 8.95572 4.74645 8.25355C3.94006 7.44716 3.5 6.31362 3.5 5C3.5 4.72386 3.72386 4.5 4 4.5C5.31362 4.5 6.44716 4.94006 7.25355 5.74645C8.05994 6.55284 8.5 7.68638 8.5 9V9.01668C8.57788 8.92297 8.66006 8.83283 8.74645 8.74645C9.55284 7.94006 10.6864 7.5 12 7.5C12.2761 7.5 12.5 7.72386 12.5 8C12.5 9.31362 12.0599 10.4472 11.2536 11.2536C10.5514 11.9557 9.60117 12.3801 8.5 12.4781V14.4811C11.8562 14.2257 14.5 11.4216 14.5 8C14.5 4.41015 11.5899 1.5 8 1.5ZM10.5464 10.5464C11.0401 10.0528 11.3721 9.37055 11.47 8.53004C10.6294 8.6279 9.94717 8.95994 9.45355 9.45355C8.95994 9.94717 8.6279 10.6294 8.53004 11.47C9.37055 11.3721 10.0528 11.0401 10.5464 10.5464ZM4.53004 5.53004C4.6279 6.37055 4.95994 7.05283 5.45355 7.54645C5.94717 8.04006 6.62945 8.3721 7.46996 8.46996C7.3721 7.62945 7.04006 6.94717 6.54645 6.45355C6.05283 5.95994 5.37055 5.6279 4.53004 5.53004Z" fill="#777B92"/>
</svg>
