<svg width="16" height="16" viewBox="0 0 16 16" fill="none" xmlns="http://www.w3.org/2000/svg">
<path fill-rule="evenodd" clip-rule="evenodd" d="M8.00001 0.5C9.60714 0.5 10.7432 1.03608 11.3536 1.64645C11.4981 1.79102 11.5401 2.00904 11.4596 2.19696L9.95959 5.69696C9.90326 5.82839 9.79335 5.92942 9.65765 5.9745C9.52194 6.01958 9.37343 6.00441 9.24965 5.9328C8.81999 5.68425 8.40589 5.5 8.00001 5.5C7.59414 5.5 7.18004 5.68425 6.75038 5.9328C6.6266 6.00441 6.47809 6.01958 6.34238 5.9745C6.20668 5.92942 6.09677 5.82839 6.04044 5.69696L4.54044 2.19696C4.4599 2.00904 4.50189 1.79102 4.64646 1.64645C5.25683 1.03608 6.39289 0.5 8.00001 0.5ZM6.74666 4.8062C7.11384 4.637 7.53977 4.5 8.00001 4.5C8.46026 4.5 8.88619 4.637 9.25337 4.8062L10.3948 2.14277C9.9346 1.8143 9.14648 1.5 8.00001 1.5C6.85355 1.5 6.06543 1.8143 5.60519 2.14277L6.74666 4.8062Z" fill="#777B92"/>
<path fill-rule="evenodd" clip-rule="evenodd" d="M8 9C7.44772 9 7 8.55228 7 8C7 7.44772 7.44772 7 8 7C8.55228 7 9 7.44772 9 8C9 8.55228 8.55228 9 8 9Z" fill="#777B92"/>
<path fill-rule="evenodd" clip-rule="evenodd" d="M10.5 8C10.5 7.72386 10.7239 7.5 11 7.5H14.5C14.7762 7.5 15 7.72386 15 8C15 9.33716 14.7457 10.493 14.2007 11.4861C13.6548 12.4806 12.8356 13.279 11.7581 13.9283C11.6343 14.0029 11.4842 14.0202 11.3466 13.9759C11.209 13.9315 11.0974 13.8298 11.0404 13.697L9.54044 10.197C9.4599 10.009 9.50189 9.79102 9.64646 9.64645C10.1412 9.1517 10.5 8.78016 10.5 8ZM11.4611 8.5C11.341 9.24013 10.9622 9.72371 10.5919 10.1117L11.7249 12.7554C12.4315 12.2511 12.9572 11.6734 13.324 11.005C13.7075 10.3062 13.9307 9.48376 13.9863 8.5H11.4611Z" fill="#777B92"/>
<path fill-rule="evenodd" clip-rule="evenodd" d="M1.5 7.5H5C5.27614 7.5 5.5 7.72386 5.5 8C5.5 8.78016 5.85881 9.1517 6.35355 9.64645C6.49812 9.79102 6.54011 10.009 6.45957 10.197L4.95957 13.697C4.90263 13.8298 4.79097 13.9315 4.65339 13.9759C4.5158 14.0202 4.36576 14.0029 4.24195 13.9283C3.16438 13.279 2.34517 12.4806 1.79936 11.4861C1.25432 10.493 1 9.33716 1 8C1 7.72386 1.22386 7.5 1.5 7.5ZM2.67602 11.005C3.04285 11.6734 3.56853 12.2511 4.27515 12.7554L5.40814 10.1117C5.03778 9.72371 4.65897 9.24013 4.53892 8.5H2.01375C2.06927 9.48376 2.2925 10.3062 2.67602 11.005Z" fill="#777B92"/>
</svg>
