<svg width="16" height="16" viewBox="0 0 16 16" fill="none" xmlns="http://www.w3.org/2000/svg">
<path fill-rule="evenodd" clip-rule="evenodd" d="M4 5C3.44772 5 3 4.55228 3 4C3 3.44772 3.44772 3 4 3C4.55228 3 5 3.44772 5 4C5 4.55228 4.55228 5 4 5Z" fill="#777B92"/>
<path fill-rule="evenodd" clip-rule="evenodd" d="M5 7C5 7.55228 4.55228 8 4 8C3.44772 8 3 7.55228 3 7C3 6.44772 3.44772 6 4 6C4.55228 6 5 6.44772 5 7Z" fill="#777B92"/>
<path fill-rule="evenodd" clip-rule="evenodd" d="M4 11C3.44772 11 3 10.5523 3 10C3 9.44772 3.44772 9 4 9C4.55228 9 5 9.44772 5 10C5 10.5523 4.55228 11 4 11Z" fill="#777B92"/>
<path fill-rule="evenodd" clip-rule="evenodd" d="M6.5 4C6.5 3.72386 6.72386 3.5 7 3.5H12C12.2761 3.5 12.5 3.72386 12.5 4C12.5 4.27614 12.2761 4.5 12 4.5H7C6.72386 4.5 6.5 4.27614 6.5 4Z" fill="#777B92"/>
<path fill-rule="evenodd" clip-rule="evenodd" d="M7 6.5H12C12.2761 6.5 12.5 6.72386 12.5 7C12.5 7.27614 12.2761 7.5 12 7.5H7C6.72386 7.5 6.5 7.27614 6.5 7C6.5 6.72386 6.72386 6.5 7 6.5Z" fill="#777B92"/>
<path fill-rule="evenodd" clip-rule="evenodd" d="M6.5 10C6.5 9.72386 6.72386 9.5 7 9.5H12C12.2761 9.5 12.5 9.72386 12.5 10C12.5 10.2761 12.2761 10.5 12 10.5H7C6.72386 10.5 6.5 10.2761 6.5 10Z" fill="#777B92"/>
<path fill-rule="evenodd" clip-rule="evenodd" d="M2 0.5H14C14.8284 0.5 15.5 1.17157 15.5 2V14C15.5 14.8284 14.8284 15.5 14 15.5H2C1.17157 15.5 0.5 14.8284 0.5 14V2C0.5 1.17157 1.17157 0.5 2 0.5ZM14.5 12.5V2C14.5 1.72386 14.2761 1.5 14 1.5H2C1.72386 1.5 1.5 1.72386 1.5 2V12.5H14.5ZM1.5 13.5V14C1.5 14.2761 1.72386 14.5 2 14.5H14C14.2761 14.5 14.5 14.2761 14.5 14V13.5H1.5Z" fill="#777B92"/>
</svg>
