<svg width="24" height="24" viewBox="0 0 24 24" fill="none" xmlns="http://www.w3.org/2000/svg">
<path fill-rule="evenodd" clip-rule="evenodd" d="M6.55481 2.83203C7.01434 2.52568 7.13851 1.90481 6.83216 1.44528C6.5258 0.985755 5.90493 0.861581 5.44541 1.16793L2.44541 3.16793C1.98588 3.47429 1.8617 4.09516 2.16806 4.55468C2.47441 5.01421 3.09528 5.13839 3.55481 4.83203L6.55481 2.83203ZM17.1681 1.44528C17.4744 0.985755 18.0953 0.861581 18.5548 1.16793L21.5548 3.16793C22.0143 3.47429 22.1385 4.09516 21.8322 4.55468C21.5258 5.01421 20.9049 5.13839 20.4454 4.83203L17.4454 2.83203C16.9859 2.52568 16.8617 1.90481 17.1681 1.44528ZM12.0001 4.99998C7.58183 4.99998 4.00011 8.58171 4.00011 13C4.00011 17.4183 7.58183 21 12.0001 21C16.4184 21 20.0001 17.4183 20.0001 13C20.0001 8.58171 16.4184 4.99998 12.0001 4.99998ZM2.00011 13C2.00011 7.47714 6.47726 2.99998 12.0001 2.99998C17.523 2.99998 22.0001 7.47714 22.0001 13C22.0001 18.5228 17.523 23 12.0001 23C6.47726 23 2.00011 18.5228 2.00011 13ZM12.0001 9.99998C12.5524 9.99998 13.0001 10.4477 13.0001 11V12H14.0001C14.5524 12 15.0001 12.4477 15.0001 13C15.0001 13.5523 14.5524 14 14.0001 14H13.0001V15C13.0001 15.5523 12.5524 16 12.0001 16C11.4478 16 11.0001 15.5523 11.0001 15V14H10.0001C9.44782 14 9.00011 13.5523 9.00011 13C9.00011 12.4477 9.44782 12 10.0001 12H11.0001V11C11.0001 10.4477 11.4478 9.99998 12.0001 9.99998Z" fill="#6E778C"/>
</svg>
