<svg width="24" height="24" viewBox="0 0 24 24" fill="none" xmlns="http://www.w3.org/2000/svg">
<path fill-rule="evenodd" clip-rule="evenodd" d="M4 3C4 2.44772 4.44772 2 5 2H19C19.5523 2 20 2.44772 20 3C20 3.55229 19.5523 4 19 4L5 4C4.44772 4 4 3.55228 4 3ZM4 21C4 20.4477 4.44772 20 5 20H19C19.5523 20 20 20.4477 20 21C20 21.5523 19.5523 22 19 22H5C4.44772 22 4 21.5523 4 21ZM12.7071 6.29289C12.5196 6.10536 12.2652 6 12 6C11.7348 6 11.4804 6.10536 11.2929 6.29289L8.29289 9.29289C7.90237 9.68342 7.90237 10.3166 8.29289 10.7071C8.68342 11.0976 9.31658 11.0976 9.70711 10.7071L11 9.41421V14.5858L9.70711 13.2929C9.31658 12.9024 8.68342 12.9024 8.29289 13.2929C7.90237 13.6834 7.90237 14.3166 8.29289 14.7071L11.2929 17.7071C11.4804 17.8946 11.7348 18 12 18C12.2652 18 12.5196 17.8946 12.7071 17.7071L15.7071 14.7071C16.0976 14.3166 16.0976 13.6834 15.7071 13.2929C15.3166 12.9024 14.6834 12.9024 14.2929 13.2929L13 14.5858V9.41421L14.2929 10.7071C14.6834 11.0976 15.3166 11.0976 15.7071 10.7071C16.0976 10.3166 16.0976 9.68342 15.7071 9.29289L12.7071 6.29289Z" fill="#6E778C"/>
</svg>
