<svg width="24" height="24" viewBox="0 0 24 24" fill="none" xmlns="http://www.w3.org/2000/svg">
<path fill-rule="evenodd" clip-rule="evenodd" d="M4 3C4 2.44772 3.55228 2 3 2C2.44772 2 2 2.44772 2 3V21C2 21.5523 2.44772 22 3 22C3.55228 22 4 21.5523 4 21V3ZM21 2C21.5523 2 22 2.44772 22 3V21C22 21.5523 21.5523 22 21 22C20.4477 22 20 21.5523 20 21V3C20 2.44772 20.4477 2 21 2ZM14.2929 7.70711C13.9024 7.31658 13.9024 6.68342 14.2929 6.29289C14.6834 5.90237 15.3166 5.90237 15.7071 6.29289L17.7071 8.29289C17.8946 8.48043 18 8.73478 18 9C18 9.26522 17.8946 9.51957 17.7071 9.70711L15.7071 11.7071C15.3166 12.0976 14.6834 12.0976 14.2929 11.7071C13.9024 11.3166 13.9024 10.6834 14.2929 10.2929L14.5858 10H11C10.4477 10 10 9.55229 10 9C10 8.44772 10.4477 8 11 8H14.5858L14.2929 7.70711ZM9.70711 13.7071C10.0976 13.3166 10.0976 12.6834 9.70711 12.2929C9.31658 11.9024 8.68342 11.9024 8.29289 12.2929L6.29289 14.2929C6.10536 14.4804 6 14.7348 6 15C6 15.2652 6.10536 15.5196 6.29289 15.7071L8.29289 17.7071C8.68342 18.0976 9.31658 18.0976 9.70711 17.7071C10.0976 17.3166 10.0976 16.6834 9.70711 16.2929L9.41421 16H13C13.5523 16 14 15.5523 14 15C14 14.4477 13.5523 14 13 14H9.41421L9.70711 13.7071Z" fill="#6E778C"/>
</svg>
