<svg width="24" height="24" viewBox="0 0 24 24" fill="none" xmlns="http://www.w3.org/2000/svg">
<path fill-rule="evenodd" clip-rule="evenodd" d="M3 6C3 5.44772 3.44772 5 4 5L20 5C20.5523 5 21 5.44772 21 6C21 6.55228 20.5523 7 20 7L4 7C3.44772 7 3 6.55228 3 6ZM16.2929 8.29289C16.6834 7.90237 17.3166 7.90237 17.7071 8.29289L20.7071 11.2929C21.0976 11.6834 21.0976 12.3166 20.7071 12.7071L17.7071 15.7071C17.3166 16.0976 16.6834 16.0976 16.2929 15.7071C15.9024 15.3166 15.9024 14.6834 16.2929 14.2929L17.5858 13L4 13C3.44772 13 3 12.5523 3 12C3 11.4477 3.44772 11 4 11L17.5858 11L16.2929 9.70711C15.9024 9.31658 15.9024 8.68342 16.2929 8.29289ZM4 17C3.44772 17 3 17.4477 3 18C3 18.5523 3.44772 19 4 19H20C20.5523 19 21 18.5523 21 18C21 17.4477 20.5523 17 20 17H4Z" fill="#6E778C"/>
</svg>
