<svg width="24" height="24" viewBox="0 0 24 24" fill="none" xmlns="http://www.w3.org/2000/svg">
<path fill-rule="evenodd" clip-rule="evenodd" d="M21.5547 5.16804C22.0142 5.47439 22.1384 6.09526 21.8321 6.55479L13.8321 18.5548C13.657 18.8173 13.3684 18.9818 13.0533 18.9987C12.7383 19.0155 12.4338 18.8827 12.2318 18.6403L4 8.76214V11.0001C4 11.5524 3.55228 12.0001 3 12.0001C2.44772 12.0001 2 11.5524 2 11.0001V6.00009C2 5.7005 2.13432 5.41669 2.36601 5.22675C2.5977 5.03681 2.90234 4.96075 3.19612 5.01951L8.19612 6.01951C8.73768 6.12782 9.08889 6.65465 8.98058 7.19621C8.87227 7.73777 8.34544 8.08898 7.80388 7.98067L5.58185 7.53626L12.9108 16.3311L20.1679 5.44539C20.4743 4.98586 21.0952 4.86169 21.5547 5.16804Z" fill="#6E778C"/>
</svg>
