<svg width="24" height="24" viewBox="0 0 24 24" fill="none" xmlns="http://www.w3.org/2000/svg">
<path fill-rule="evenodd" clip-rule="evenodd" d="M5 4C4.44772 4 4 4.44771 4 5L4 9.99992C4 10.5522 4.44771 10.9999 5 10.9999C5.55228 10.9999 6 10.5522 6 9.99992L6 7.4142L9.29291 10.7071C9.68343 11.0976 10.3166 11.0976 10.7071 10.7071C11.0976 10.3165 11.0976 9.68337 10.7071 9.29285L7.41423 6H10C10.5523 6 11 5.55228 11 5C11 4.44772 10.5523 4 10 4H5ZM14 4C13.4477 4 13 4.44772 13 5C13 5.55228 13.4477 6 14 6H16.5857L13.2929 9.29285C12.9023 9.68337 12.9023 10.3165 13.2929 10.7071C13.6834 11.0976 14.3165 11.0976 14.7071 10.7071L18 7.4142L18 9.99992C18 10.5522 18.4477 10.9999 19 10.9999C19.5523 10.9999 20 10.5522 20 9.99992L20 5C20 4.44771 19.5523 4 19 4H14ZM10.7071 13.2929C11.0976 13.6834 11.0976 14.3166 10.7071 14.7071L7.41423 18H10C10.5523 18 11 18.4477 11 19C11 19.5522 10.5523 20 10 20H5C4.44772 20 4 19.5522 4 19L4 14C4 13.4478 4.44771 13 5 13C5.55228 13 6 13.4478 6 14L6 16.5858L9.29291 13.2929C9.68343 12.9024 10.3166 12.9024 10.7071 13.2929ZM14.7071 13.2929C14.3166 12.9024 13.6834 12.9024 13.2929 13.2929C12.9024 13.6834 12.9024 14.3166 13.2929 14.7071L16.5858 18H14C13.4477 18 13 18.4477 13 19C13 19.5522 13.4477 20 14 20H19C19.5523 20 20 19.5522 20 19L20 14C20 13.4478 19.5523 13 19 13C18.4477 13 18 13.4478 18 14L18 16.5858L14.7071 13.2929Z" fill="#6E778C"/>
</svg>
