<svg width="24" height="24" viewBox="0 0 24 24" fill="none" xmlns="http://www.w3.org/2000/svg">
<path fill-rule="evenodd" clip-rule="evenodd" d="M12 22C12.3148 22 12.6111 21.8518 12.8 21.6L18.8 13.6C19.0273 13.297 19.0638 12.8916 18.8944 12.5528C18.725 12.214 18.3788 12 18 12H16V4C16 2.89543 15.1046 2 14 2H9.99999C8.89542 2 7.99999 2.89543 7.99999 4V12H5.99999C5.62122 12 5.27496 12.214 5.10557 12.5528C4.93618 12.8916 4.97273 13.297 5.19999 13.6L11.2 21.6C11.3888 21.8518 11.6852 22 12 22ZM7.99999 14H8.99999C9.55228 14 9.99999 13.5523 9.99999 13V4H14L14 13C14 13.5523 14.4477 14 15 14H16L12 19.3333L7.99999 14Z" fill="#6E778C"/>
</svg>
