<svg width="24" height="24" viewBox="0 0 24 24" fill="none" xmlns="http://www.w3.org/2000/svg">
<path fill-rule="evenodd" clip-rule="evenodd" d="M15.7071 5.70711C16.0976 5.31658 16.0976 4.68342 15.7071 4.29289C15.3166 3.90237 14.6834 3.90237 14.2929 4.29289L11.2929 7.29289C10.9024 7.68342 10.9024 8.31658 11.2929 8.70711L14.2929 11.7071C14.6834 12.0976 15.3166 12.0976 15.7071 11.7071C16.0976 11.3166 16.0976 10.6834 15.7071 10.2929L14.4142 9H20C20.5523 9 21 8.55228 21 8C21 7.44772 20.5523 7 20 7H14.4142L15.7071 5.70711ZM9.70711 12.2929C9.31658 11.9024 8.68342 11.9024 8.29289 12.2929C7.90237 12.6834 7.90237 13.3166 8.29289 13.7071L9.58579 15H4C3.44772 15 3 15.4477 3 16C3 16.5523 3.44772 17 4 17H9.58579L8.29289 18.2929C7.90237 18.6834 7.90237 19.3166 8.29289 19.7071C8.68342 20.0976 9.31658 20.0976 9.70711 19.7071L12.7071 16.7071C13.0976 16.3166 13.0976 15.6834 12.7071 15.2929L9.70711 12.2929Z" fill="#6E778C"/>
</svg>
