<svg width="24" height="24" viewBox="0 0 24 24" fill="none" xmlns="http://www.w3.org/2000/svg">
<path fill-rule="evenodd" clip-rule="evenodd" d="M19.7071 5.70711C20.0976 5.31659 20.0976 4.68342 19.7071 4.2929C19.3166 3.90237 18.6834 3.90237 18.2929 4.29289L15 7.58576L15 5.00004C15 4.44776 14.5523 4.00004 14 4.00004C13.4477 4.00004 13 4.44776 13 5.00004L13 9.99996C13 10.5522 13.4477 11 14 11H19C19.5523 11 20 10.5522 20 9.99996C20 9.44768 19.5523 8.99996 19 8.99996H16.4142L19.7071 5.70711ZM5 13C4.44772 13 4 13.4477 4 14C4 14.5523 4.44772 15 5 15H7.58578L4.2929 18.2929C3.90237 18.6834 3.90237 19.3165 4.29289 19.7071C4.68341 20.0976 5.31658 20.0976 5.7071 19.7071L9.00001 16.4142L9.00001 18.9999C9.00001 19.5522 9.44773 19.9999 10 19.9999C10.5523 19.9999 11 19.5522 11 18.9999L11 14C11 13.4477 10.5523 13 10 13H5Z" fill="#6E778C"/>
</svg>
