<svg width="24" height="24" viewBox="0 0 24 24" fill="none" xmlns="http://www.w3.org/2000/svg">
<path fill-rule="evenodd" clip-rule="evenodd" d="M6 5C6 4.44772 6.44772 4 7 4H17C17.5523 4 18 4.44772 18 5C18 5.55228 17.5523 6 17 6H7C6.44772 6 6 5.55228 6 5ZM13 19V12.4142L15.2929 14.7071C15.6834 15.0976 16.3166 15.0976 16.7071 14.7071C17.0976 14.3166 17.0976 13.6834 16.7071 13.2929L12.7071 9.29289C12.512 9.09781 12.2564 9.00018 12.0007 9H17C17.5523 9 18 8.55228 18 8C18 7.44772 17.5523 7 17 7H7C6.44772 7 6 7.44772 6 8C6 8.55228 6.44772 9 7 9H11.9993C11.7436 9.00018 11.488 9.09781 11.2929 9.29289L7.29289 13.2929C6.90237 13.6834 6.90237 14.3166 7.29289 14.7071C7.68342 15.0976 8.31658 15.0976 8.70711 14.7071L11 12.4142V19C11 19.5523 11.4477 20 12 20C12.5523 20 13 19.5523 13 19Z" fill="#6E778C"/>
</svg>
