<svg width="24" height="24" viewBox="0 0 24 24" fill="none" xmlns="http://www.w3.org/2000/svg">
<path fill-rule="evenodd" clip-rule="evenodd" d="M4 6C2.89543 6 2 6.89543 2 8V16C2 17.1046 2.89543 18 4 18H7C7.55228 18 8 17.5523 8 17C8 16.4477 7.55228 16 7 16H4V8L7 8C7.55228 8 8 7.55228 8 7C8 6.44772 7.55228 6 7 6H4ZM15 6C14.4477 6 14 6.44772 14 7C14 7.55228 14.4477 8 15 8H17V16H15C14.4477 16 14 16.4477 14 17C14 17.5523 14.4477 18 15 18H17C18.1046 18 19 17.1046 19 16V8C19 6.89543 18.1046 6 17 6H15ZM12 7C12 6.44772 11.5523 6 11 6C10.4477 6 10 6.44772 10 7V13C10 13.5523 10.4477 14 11 14C11.5523 14 12 13.5523 12 13V7ZM22 9C22.5523 9 23 9.44772 23 10V14C23 14.5523 22.5523 15 22 15C21.4477 15 21 14.5523 21 14V10C21 9.44772 21.4477 9 22 9ZM11 18C11.5523 18 12 17.5523 12 17C12 16.4477 11.5523 16 11 16C10.4477 16 10 16.4477 10 17C10 17.5523 10.4477 18 11 18Z" fill="#6E778C"/>
</svg>
