<svg width="24" height="24" viewBox="0 0 24 24" fill="none" xmlns="http://www.w3.org/2000/svg">
<path fill-rule="evenodd" clip-rule="evenodd" d="M12.0001 2C8.13409 2 5.00008 5.13401 5.00008 9V13.6972L4.2045 14.8906C3.31842 16.2197 4.27121 18 5.8686 18H8.00008C8.00008 20.2091 9.79094 22 12.0001 22C14.2092 22 16.0001 20.2091 16.0001 18H18.1316C19.729 18 20.6817 16.2197 19.7957 14.8906L19.0001 13.6972V9C19.0001 5.13401 15.8661 2 12.0001 2ZM14.0001 18H10.0001C10.0001 19.1046 10.8955 20 12.0001 20C13.1046 20 14.0001 19.1046 14.0001 18ZM7.00008 9C7.00008 6.23858 9.23866 4 12.0001 4C14.7615 4 17.0001 6.23858 17.0001 9V13.6972C17.0001 14.0921 17.117 14.4781 17.336 14.8066L18.1316 16L5.8686 16L6.66418 14.8066C6.8832 14.4781 7.00008 14.0921 7.00008 13.6972V9ZM13.0001 8C13.0001 7.44772 12.5524 7 12.0001 7C11.4478 7 11.0001 7.44772 11.0001 8V9H10.0001C9.4478 9 9.00008 9.44772 9.00008 10C9.00008 10.5523 9.4478 11 10.0001 11H11.0001V12C11.0001 12.5523 11.4478 13 12.0001 13C12.5524 13 13.0001 12.5523 13.0001 12V11H14.0001C14.5524 11 15.0001 10.5523 15.0001 10C15.0001 9.44772 14.5524 9 14.0001 9H13.0001V8Z" fill="#6E778C"/>
</svg>
