<svg width="24" height="24" viewBox="0 0 24 24" fill="none" xmlns="http://www.w3.org/2000/svg">
<path fill-rule="evenodd" clip-rule="evenodd" d="M10 3C10 2.44772 9.55228 2 9 2C8.44772 2 8 2.44772 8 3V4H7C6.44772 4 6 4.44772 6 5V11V19C6 19.5523 6.44772 20 7 20H8V21C8 21.5523 8.44772 22 9 22C9.55228 22 10 21.5523 10 21V20H12V21C12 21.5523 12.4477 22 13 22C13.5523 22 14 21.5523 14 21V19.9C16.2822 19.4367 18 17.419 18 15C18 13.2759 17.1274 11.7557 15.7998 10.8568C16.5405 10.1308 17 9.11907 17 8C17 6.13616 15.7252 4.57006 14 4.12602V3C14 2.44772 13.5523 2 13 2C12.4477 2 12 2.44772 12 3V4H10V3ZM13 10C14.1046 10 15 9.10457 15 8C15 6.89543 14.1046 6 13 6H9H8V10H12.5H13ZM12.5 12H8V18H9H12.5C14.547 18 16 16.5494 16 15C16 13.4506 14.547 12 12.5 12Z" fill="#6E778C"/>
</svg>
