<svg width="24" height="24" viewBox="0 0 24 24" fill="none" xmlns="http://www.w3.org/2000/svg">
<path fill-rule="evenodd" clip-rule="evenodd" d="M11.5073 3.1298C11.8208 2.95229 12.2056 2.95715 12.5145 3.14251L17.5145 6.14251C17.7785 6.30094 17.9549 6.57219 17.9925 6.87782C18.0301 7.18344 17.9248 7.48936 17.7071 7.70711L13.4142 12L17.7071 16.2929C17.9248 16.5106 18.0301 16.8166 17.9925 17.1222C17.9549 17.4278 17.7785 17.6991 17.5145 17.8575L12.5145 20.8575C12.2056 21.0429 11.8208 21.0477 11.5073 20.8702C11.1938 20.6927 11 20.3603 11 20V14.4142L7.70711 17.7071C7.31658 18.0976 6.68342 18.0976 6.29289 17.7071C5.90237 17.3166 5.90237 16.6834 6.29289 16.2929L10.5858 12L6.29289 7.70711C5.90237 7.31658 5.90237 6.68342 6.29289 6.29289C6.68342 5.90237 7.31658 5.90237 7.70711 6.29289L11 9.58579V4C11 3.63973 11.1938 3.30731 11.5073 3.1298ZM13 14.4142L15.3872 16.8015L13 18.2338V14.4142ZM13 9.58579V5.76619L15.3872 7.19854L13 9.58579Z" fill="#6E778C"/>
</svg>
