<svg width="24" height="24" viewBox="0 0 24 24" fill="none" xmlns="http://www.w3.org/2000/svg">
<path fill-rule="evenodd" clip-rule="evenodd" d="M7.61803 2C7.49517 2 7.37401 2.01126 7.2558 2.03302C7.17415 2.01147 7.08842 2 7 2C6.51753 2 6.11486 2.34168 6.02077 2.79626C5.94842 2.89229 5.88414 2.99565 5.82918 3.10557L2.21115 10.3416C2.07229 10.6194 2 10.9256 2 11.2361V14C2 15.1046 2.89543 16 4 16H6V18C6 18.205 6.03084 18.4028 6.08812 18.5889C6.03151 18.7143 6 18.8535 6 19V21C6 21.5523 6.44772 22 7 22C7.55228 22 8 21.5523 8 21V20H11V21C11 21.5523 11.4477 22 12 22C12.5523 22 13 21.5523 13 21V20H16V21C16 21.5523 16.4477 22 17 22C17.5523 22 18 21.5523 18 21V19C18 18.8535 17.9685 18.7143 17.9119 18.5889C17.9692 18.4028 18 18.205 18 18V16H20C21.1046 16 22 15.1046 22 14V8C22 6.89543 21.1046 6 20 6H18V4C18 2.89543 17.1046 2 16 2H7.61803ZM8 4V6H16V4H8ZM4 11.2361L6 7.23607V14H4V11.2361ZM8 15C8 15.1465 7.96849 15.2857 7.91188 15.4111C7.96916 15.5972 8 15.795 8 16V18H12H16V15V8H8V15ZM18 14V8H20V14H18Z" fill="#6E778C"/>
</svg>
