<svg width="24" height="24" viewBox="0 0 24 24" fill="none" xmlns="http://www.w3.org/2000/svg">
<path fill-rule="evenodd" clip-rule="evenodd" d="M14.7506 3.51892C15.8969 2.60189 17.5262 3.20197 17.9145 4.49062L18.5149 4.34053C19.7772 4.02495 21 4.97967 21 6.28081V18.2193C21 19.137 20.3754 19.937 19.4851 20.1595L12.2643 21.9647C12.2182 21.9773 12.1707 21.9867 12.1222 21.9926C12.0057 22.0071 11.8903 22.0007 11.7803 21.9758C11.6944 21.9566 11.6127 21.9263 11.5367 21.8865C11.4269 21.8778 11.317 21.8601 11.2082 21.8329L4.51493 20.1595C3.62459 19.937 3 19.137 3 18.2193V6.28081C3 4.97967 4.22278 4.02495 5.48507 4.34053L11.762 5.90977L14.7506 3.51892ZM13 18.5858L16 15.5858V5.77095C15.9997 5.75646 15.9997 5.74201 16 5.7276V5.08066L13.0114 7.47151C13.0076 7.47455 13.0038 7.47758 13 7.48059V18.5858ZM11 7.78081V19.7193L5 18.2193V6.28081L11 7.78081ZM19 6.28081L18 6.53081V15.5858C18 16.1163 17.7893 16.625 17.4142 17L15.26 19.1543L19 18.2193V6.28081Z" fill="#6E778C"/>
</svg>
