<svg width="24" height="24" viewBox="0 0 24 24" fill="none" xmlns="http://www.w3.org/2000/svg">
<path fill-rule="evenodd" clip-rule="evenodd" d="M18.5149 3.34049C19.7772 3.02491 21 3.97963 21 5.28077V17.2192C21 18.137 20.3754 18.9369 19.4851 19.1595L12.4851 20.9095C12.4381 20.9213 12.3907 20.9313 12.3432 20.9396C12.2361 20.9787 12.1206 21 12 21C11.8794 21 11.7639 20.9787 11.6568 20.9396C11.6093 20.9313 11.5619 20.9213 11.5149 20.9095L4.51493 19.1595C3.62459 18.9369 3 18.137 3 17.2192V5.28077C3 3.97963 4.22278 3.02491 5.48507 3.34049L12 4.96922L18.5149 3.34049ZM19 17.2192L13 18.7192V6.78077L19 5.28077V17.2192ZM5 5.28077L11 6.78077V18.7192L5 17.2192V5.28077ZM18.2071 10.2929C17.8166 9.90237 17.1834 9.90237 16.7929 10.2929L15.5 11.5858L15.2071 11.2929C14.8166 10.9024 14.1834 10.9024 13.7929 11.2929C13.4024 11.6834 13.4024 12.3166 13.7929 12.7071L14.7929 13.7071C15.1834 14.0976 15.8166 14.0976 16.2071 13.7071L18.2071 11.7071C18.5976 11.3166 18.5976 10.6834 18.2071 10.2929Z" fill="#6E778C"/>
</svg>
