<svg width="24" height="24" viewBox="0 0 24 24" fill="none" xmlns="http://www.w3.org/2000/svg">
<path fill-rule="evenodd" clip-rule="evenodd" d="M6 2C4.89543 2 4 2.89543 4 4V19.6743C4 21.003 5.27181 21.9624 6.54944 21.5973L12 20.04L17.4506 21.5973C18.7282 21.9624 20 21.003 20 19.6743V4C20 2.89543 19.1046 2 18 2H6ZM13 9C13 8.44772 12.5523 8 12 8C11.4477 8 11 8.44772 11 9V10H10C9.44772 10 9 10.4477 9 11C9 11.5523 9.44772 12 10 12H11V13C11 13.5523 11.4477 14 12 14C12.5523 14 13 13.5523 13 13V12H14C14.5523 12 15 11.5523 15 11C15 10.4477 14.5523 10 14 10H13V9Z" fill="#6E778C"/>
</svg>
