<svg width="24" height="24" viewBox="0 0 24 24" fill="none" xmlns="http://www.w3.org/2000/svg">
<path fill-rule="evenodd" clip-rule="evenodd" d="M4.00005 12C4.00005 7.58172 7.58177 4 12.0001 4C16.4183 4 20.0001 7.58172 20.0001 12C20.0001 16.4183 16.4183 20 12.0001 20C10.8268 20 9.71511 19.7481 8.71385 19.2963C8.34738 19.131 7.92022 19.0621 7.48703 19.1431L4.25154 19.7485L4.85693 16.513C4.93799 16.0798 4.86907 15.6527 4.70372 15.2862C4.25197 14.2849 4.00005 13.1732 4.00005 12ZM12.0001 2C6.4772 2 2.00005 6.47715 2.00005 12C2.00005 13.4624 2.3146 14.854 2.88069 16.1087C2.89095 16.1315 2.8909 16.1443 2.89083 16.1464L2.01707 20.8161C1.95639 21.1404 2.05959 21.4738 2.29291 21.7071C2.52622 21.9404 2.8596 22.0436 3.18393 21.9829L7.85368 21.1092C7.85571 21.1091 7.86857 21.1091 7.89133 21.1194C9.146 21.6854 10.5376 22 12.0001 22C17.5229 22 22.0001 17.5228 22.0001 12C22.0001 6.47715 17.5229 2 12.0001 2ZM9.00001 12C9.00001 12.5523 8.5523 13 8.00001 13C7.44773 13 7.00001 12.5523 7.00001 12C7.00001 11.4477 7.44773 11 8.00001 11C8.5523 11 9.00001 11.4477 9.00001 12ZM12 13C12.5523 13 13 12.5523 13 12C13 11.4477 12.5523 11 12 11C11.4477 11 11 11.4477 11 12C11 12.5523 11.4477 13 12 13ZM16 13C16.5523 13 17 12.5523 17 12C17 11.4477 16.5523 11 16 11C15.4477 11 15 11.4477 15 12C15 12.5523 15.4477 13 16 13Z" fill="#6E778C"/>
</svg>
