<svg width="24" height="24" viewBox="0 0 24 24" fill="none" xmlns="http://www.w3.org/2000/svg">
<path fill-rule="evenodd" clip-rule="evenodd" d="M12 4.33939C11.3662 4.94289 10.3824 5.98135 9.54729 7.29695C8.67013 8.67875 8 10.2981 8 12C8 12.3163 8.0367 12.6239 8.10608 12.919C8.52207 10.8096 10.0569 9.29829 10.8276 8.64456C11.5086 8.06684 12.4914 8.06684 13.1724 8.64456C13.9431 9.29829 15.4779 10.8096 15.8939 12.919C15.9633 12.6239 16 12.3163 16 12C16 10.2981 15.3299 8.67875 14.4527 7.29695C13.6176 5.98135 12.6338 4.94289 12 4.33939ZM18 12C18 15.3137 15.3137 18 12 18C8.68629 18 6 15.3137 6 12C6 9.78126 6.86699 7.78746 7.85877 6.22508C8.854 4.65728 10.0184 3.45516 10.7176 2.79958C11.4434 2.11897 12.5566 2.11897 13.2824 2.79958C13.9816 3.45516 15.146 4.65728 16.1412 6.22508C17.133 7.78745 18 9.78126 18 12ZM14 14C14 15.1046 13.1046 16 12 16C10.8954 16 10 15.1046 10 14C10 12.3551 11.1762 11.0038 12 10.2749C12.8238 11.0038 14 12.3551 14 14ZM4 17C4 16.4477 3.55228 16 3 16C2.44772 16 2 16.4477 2 17L2 20C2 21.1046 2.89543 22 4 22L20 22C21.1046 22 22 21.1046 22 20V17C22 16.4477 21.5523 16 21 16C20.4477 16 20 16.4477 20 17V20L4 20V17Z" fill="#6E778C"/>
</svg>
