<svg width="24" height="24" viewBox="0 0 24 24" fill="none" xmlns="http://www.w3.org/2000/svg">
<path fill-rule="evenodd" clip-rule="evenodd" d="M4 2C2.89543 2 2 2.89543 2 4V7V18C2 19.1046 2.89543 20 4 20H10C10.5523 20 11 19.5523 11 19C11 18.4477 10.5523 18 10 18H4V8H18V9C18 9.55228 18.4477 10 19 10C19.5523 10 20 9.55228 20 9V7V4C20 2.89543 19.1046 2 18 2H4ZM18 6V4H4V6H18ZM8 11C8 11.5523 7.55228 12 7 12C6.44772 12 6 11.5523 6 11C6 10.4477 6.44772 10 7 10C7.55228 10 8 10.4477 8 11ZM7 16C7.55228 16 8 15.5523 8 15C8 14.4477 7.55228 14 7 14C6.44772 14 6 14.4477 6 15C6 15.5523 6.44772 16 7 16ZM12 11C12 11.5523 11.5523 12 11 12C10.4477 12 10 11.5523 10 11C10 10.4477 10.4477 10 11 10C11.5523 10 12 10.4477 12 11ZM11 16C11.5523 16 12 15.5523 12 15C12 14.4477 11.5523 14 11 14C10.4477 14 10 14.4477 10 15C10 15.5523 10.4477 16 11 16ZM20 21.4142L19.7071 21.7071C19.3166 22.0976 18.6834 22.0976 18.2929 21.7071C17.9024 21.3166 17.9024 20.6834 18.2929 20.2929L18.5858 20L18.2929 19.7071C17.9024 19.3166 17.9024 18.6834 18.2929 18.2929C18.6834 17.9024 19.3166 17.9024 19.7071 18.2929L20 18.5858L20.2929 18.2929C20.6834 17.9024 21.3166 17.9024 21.7071 18.2929C22.0976 18.6834 22.0976 19.3166 21.7071 19.7071L21.4142 20L21.7071 20.2929C22.0976 20.6834 22.0976 21.3166 21.7071 21.7071C21.3166 22.0976 20.6834 22.0976 20.2929 21.7071L20 21.4142ZM15 15V13.5C15 13.5 15 13.4999 15 13.4999C15 12.1192 16.1193 10.9999 17.5 10.9999C18.5573 10.9999 19.459 11.6559 19.8248 12.5795C20.0282 13.0929 19.7768 13.6741 19.2634 13.8775C18.7499 14.0808 18.1688 13.8295 17.9654 13.316C17.8914 13.1292 17.7096 12.9999 17.5 12.9999C17.2239 12.9999 17 13.2237 17 13.4999C17 13.4999 17 13.5 17 13.5V15H17.5C18.0523 15 18.5 15.4477 18.5 16C18.5 16.5523 18.0523 17 17.5 17H17V19.4778L17.0002 19.5001C17.0002 20.8808 15.881 22.0001 14.5002 22.0001C13.4535 22.0001 12.5593 21.3571 12.1866 20.4483C11.9771 19.9373 12.2214 19.3532 12.7324 19.1436C13.2434 18.9341 13.8275 19.1785 14.0371 19.6895C14.1125 19.8735 14.2928 20.0001 14.5002 20.0001C14.7764 20.0001 15.0002 19.7763 15.0002 19.5001V19.5H15V17H14.5C13.9477 17 13.5 16.5523 13.5 16C13.5 15.4477 13.9477 15 14.5 15H15Z" fill="#6E778C"/>
</svg>
