<svg width="24" height="24" viewBox="0 0 24 24" fill="none" xmlns="http://www.w3.org/2000/svg">
<path fill-rule="evenodd" clip-rule="evenodd" d="M8 4C6.89543 4 6 4.89543 6 6C6 7.10457 6.89543 8 8 8C9.10457 8 10 7.10457 10 6C10 4.89543 9.10457 4 8 4ZM15.8293 8H16C17.1046 8 18 8.89543 18 10V12.1492L18.4383 11.6014C19.6193 10.1251 22 10.9602 22 12.8508V17.1492C22 19.0398 19.6193 19.8749 18.4383 18.3986L18 17.8508V20C18 21.1046 17.1046 22 16 22H4C2.89543 22 2 21.1046 2 20V10C2 8.89543 2.89543 8 4 8H4.53513C4.19479 7.41165 4 6.72857 4 6C4 3.79086 5.79086 2 8 2C9.61221 2 11.0016 2.9538 11.6348 4.32791C12.0443 4.11827 12.5083 4 13 4C14.6569 4 16 5.34315 16 7C16 7.35064 15.9398 7.68722 15.8293 8ZM13 8C12.4477 8 12 7.55228 12 7C12 6.44772 12.4477 6 13 6C13.5523 6 14 6.44772 14 7C14 7.55228 13.5523 8 13 8ZM4 20V10H8H13H16V20H4ZM18.2806 15L20 12.8508V17.1492L18.2806 15ZM12.7071 12.2929C13.0976 12.6834 13.0976 13.3166 12.7071 13.7071L11.4142 15L12.7071 16.2929C13.0976 16.6834 13.0976 17.3166 12.7071 17.7071C12.3166 18.0976 11.6834 18.0976 11.2929 17.7071L10 16.4142L8.70711 17.7071C8.31658 18.0976 7.68342 18.0976 7.29289 17.7071C6.90237 17.3166 6.90237 16.6834 7.29289 16.2929L8.58579 15L7.29289 13.7071C6.90237 13.3166 6.90237 12.6834 7.29289 12.2929C7.68342 11.9024 8.31658 11.9024 8.70711 12.2929L10 13.5858L11.2929 12.2929C11.6834 11.9024 12.3166 11.9024 12.7071 12.2929Z" fill="#6E778C"/>
</svg>
