<svg width="24" height="24" viewBox="0 0 24 24" fill="none" xmlns="http://www.w3.org/2000/svg">
<path fill-rule="evenodd" clip-rule="evenodd" d="M8 5C8 3.89543 8.89543 3 10 3H14C15.1046 3 16 3.89543 16 5V7H20C21.1046 7 22 7.89543 22 9V19C22 20.1046 21.1046 21 20 21H4C2.89543 21 2 20.1046 2 19V9C2 7.89543 2.89543 7 4 7H8V5ZM14 5V7H10V5H14ZM4 9H9H15H20V19H4V9ZM10 14C10 12.8954 10.8954 12 12 12C13.1046 12 14 12.8954 14 14C14 15.1046 13.1046 16 12 16C10.8954 16 10 15.1046 10 14ZM12 10C9.79086 10 8 11.7909 8 14C8 16.2091 9.79086 18 12 18C14.2091 18 16 16.2091 16 14C16 11.7909 14.2091 10 12 10Z" fill="#6E778C"/>
</svg>
