<svg width="24" height="24" viewBox="0 0 24 24" fill="none" xmlns="http://www.w3.org/2000/svg">
<path fill-rule="evenodd" clip-rule="evenodd" d="M4 9C4 8.44772 4.44772 8 5 8H13.0633C13.36 8 13.6415 8.13182 13.8315 8.35982L15.1321 9.92055C15.7021 10.6045 16.5464 11 17.4367 11H19C19.5523 11 20 11.4477 20 12V13.5858L19.4136 14.1722C19.1306 14.061 18.8224 14 18.5 14C17.6821 14 16.9559 14.3928 16.4998 15H9C8.8459 15 8.69994 15.0349 8.56957 15.0971C8.11986 14.435 7.36072 14 6.49999 14C5.91517 14 5.37726 14.2008 4.95144 14.5372L4 13.5858V9ZM4.00139 16.4156L2.29289 14.7071C2.10536 14.5196 2 14.2652 2 14V9C2 7.34315 3.34315 6 5 6H13.0633C13.9536 6 14.7979 6.39547 15.3679 7.07945L16.6685 8.64018C16.8585 8.86818 17.14 9 17.4367 9H19C20.6569 9 22 10.3431 22 12V14C22 14.2652 21.8946 14.5196 21.7071 14.7071L20.8278 15.5864C20.9389 15.8694 21 16.1776 21 16.5C21 17.8807 19.8807 19 18.5 19C17.2905 19 16.2816 18.1411 16.05 17H9C8.98331 17 8.96672 16.9996 8.95023 16.9988C8.71906 18.1405 7.7099 19 6.49999 19C5.11928 19 3.99999 17.8807 3.99999 16.5C3.99999 16.4718 4.00046 16.4436 4.00139 16.4156ZM5.99999 16.5C5.99999 16.2239 6.22385 16 6.49999 16C6.77613 16 6.99999 16.2239 6.99999 16.5C6.99999 16.7761 6.77613 17 6.49999 17C6.22385 17 5.99999 16.7761 5.99999 16.5ZM18 16.5C18 16.2239 18.2238 16 18.5 16C18.7761 16 19 16.2239 19 16.5C19 16.7761 18.7761 17 18.5 17C18.2238 17 18 16.7761 18 16.5Z" fill="#6E778C"/>
</svg>
