<svg width="24" height="24" viewBox="0 0 24 24" fill="none" xmlns="http://www.w3.org/2000/svg">
<path fill-rule="evenodd" clip-rule="evenodd" d="M10.7071 9.70711C11.0976 9.31658 11.0976 8.68342 10.7071 8.29289C10.3166 7.90237 9.68342 7.90237 9.29289 8.29289L6.29289 11.2929C5.90237 11.6834 5.90237 12.3166 6.29289 12.7071L9.29289 15.7071C9.68342 16.0976 10.3166 16.0976 10.7071 15.7071C11.0976 15.3166 11.0976 14.6834 10.7071 14.2929L8.41421 12L10.7071 9.70711ZM16.7071 9.70711C17.0976 9.31658 17.0976 8.68342 16.7071 8.29289C16.3166 7.90237 15.6834 7.90237 15.2929 8.29289L12.2929 11.2929C11.9024 11.6834 11.9024 12.3166 12.2929 12.7071L15.2929 15.7071C15.6834 16.0976 16.3166 16.0976 16.7071 15.7071C17.0976 15.3166 17.0976 14.6834 16.7071 14.2929L14.4142 12L16.7071 9.70711Z" fill="#6E778C"/>
</svg>
