<svg width="24" height="24" viewBox="0 0 24 24" fill="none" xmlns="http://www.w3.org/2000/svg">
<path fill-rule="evenodd" clip-rule="evenodd" d="M4 12C4 7.58172 7.58172 4 12 4C13.646 4 15.1731 4.49602 16.4437 5.34656C16.9027 5.65377 17.5238 5.53076 17.831 5.07181C18.1382 4.61285 18.0152 3.99175 17.5563 3.68454C15.9667 2.62053 14.0543 2 12 2C6.47715 2 2 6.47715 2 12C2 17.5228 6.47715 22 12 22C16.7603 22 20.7416 18.6747 21.7522 14.2213C21.8744 13.6827 21.5369 13.147 20.9983 13.0248C20.4597 12.9026 19.924 13.2401 19.8018 13.7787C18.9934 17.3412 15.806 20 12 20C7.58172 20 4 16.4183 4 12ZM13 8C13 7.44772 12.5523 7 12 7C11.4477 7 11 7.44772 11 8V11C11 12.1046 11.8954 13 13 13H16C16.5523 13 17 12.5523 17 12C17 11.4477 16.5523 11 16 11H13V8ZM21 2C21.5523 2 22 2.44772 22 3V7C22 7.55228 21.5523 8 21 8C20.4477 8 20 7.55228 20 7V3C20 2.44772 20.4477 2 21 2ZM21 11C21.5523 11 22 10.5523 22 10C22 9.44772 21.5523 9 21 9C20.4477 9 20 9.44772 20 10C20 10.5523 20.4477 11 21 11Z" fill="#6E778C"/>
</svg>
