<svg width="24" height="24" viewBox="0 0 24 24" fill="none" xmlns="http://www.w3.org/2000/svg">
<path fill-rule="evenodd" clip-rule="evenodd" d="M19.7071 5.29289C19.3166 4.90237 18.6834 4.90237 18.2929 5.29289L16.2929 7.29289C15.9024 7.68342 15.9024 8.31658 16.2929 8.70711C16.6834 9.09763 17.3166 9.09763 17.7071 8.70711L18 8.41421V18C18 18.5523 18.4477 19 19 19C19.5523 19 20 18.5523 20 18V8.41421L20.2929 8.70711C20.6834 9.09763 21.3166 9.09763 21.7071 8.70711C22.0976 8.31658 22.0976 7.68342 21.7071 7.29289L19.7071 5.29289ZM9 7C6.23858 7 4 9.23858 4 12C4 14.7614 6.23858 17 9 17C11.7614 17 14 14.7614 14 12C14 9.23858 11.7614 7 9 7ZM2 12C2 8.13401 5.13401 5 9 5C12.866 5 16 8.13401 16 12C16 15.866 12.866 19 9 19C5.13401 19 2 15.866 2 12ZM9 9C9.55228 9 10 9.44772 10 10V11H11C11.5523 11 12 11.4477 12 12C12 12.5523 11.5523 13 11 13H10C8.89543 13 8 12.1046 8 11V10C8 9.44772 8.44772 9 9 9Z" fill="#6E778C"/>
</svg>
