<svg width="24" height="24" viewBox="0 0 24 24" fill="none" xmlns="http://www.w3.org/2000/svg">
<path fill-rule="evenodd" clip-rule="evenodd" d="M18 2C18.5523 2 19 2.44772 19 3V4H20C20.5523 4 21 4.44772 21 5C21 5.55229 20.5523 6 20 6L18 6L6 6H4C3.44772 6 3 5.55228 3 5C3 4.44772 3.44772 4 4 4H5V3C5 2.44772 5.44772 2 6 2C6.55228 2 7 2.44772 7 3V4L17 4V3C17 2.44772 17.4477 2 18 2ZM4 8C3.44772 8 3 8.44772 3 9L3 17C3 17.5523 3.44772 18 4 18H10C10.5523 18 11 17.5523 11 17L11 9C11 8.44772 10.5523 8 10 8L4 8ZM5 16V11.9205L7.91395 16H5ZM9 14.0795L6.08605 10H9L9 14.0795ZM14 8C13.4477 8 13 8.44772 13 9L13 17C13 17.5523 13.4477 18 14 18H20C20.5523 18 21 17.5523 21 17L21 9C21 8.44772 20.5523 8 20 8H14ZM15 11.9205V16H17.914L15 11.9205ZM19 14.0795V10H16.086L19 14.0795ZM3 21C3 20.4477 3.44772 20 4 20L20 20C20.5523 20 21 20.4477 21 21C21 21.5523 20.5523 22 20 22L4 22C3.44772 22 3 21.5523 3 21Z" fill="#6E778C"/>
</svg>
