<svg width="24" height="24" viewBox="0 0 24 24" fill="none" xmlns="http://www.w3.org/2000/svg">
<path fill-rule="evenodd" clip-rule="evenodd" d="M12 4C12 2.89543 12.8954 2 14 2H20C21.1046 2 22 2.89543 22 4V9C22 9.14652 21.9685 9.28567 21.9119 9.41106C21.9692 9.59725 22 9.79502 22 10V15V20C22 21.1046 21.1046 22 20 22H12C10.8954 22 10 21.1046 10 20V15V10C10 8.89543 10.8954 8 12 8V4ZM13 10H12V14H20V10H13ZM20 16H12V20H20V16ZM14 8V4H20V8H14ZM5.70711 11.2929C5.31658 10.9024 4.68342 10.9024 4.29289 11.2929L2.29289 13.2929C1.90237 13.6834 1.90237 14.3166 2.29289 14.7071C2.68342 15.0976 3.31658 15.0976 3.70711 14.7071L4 14.4142L4 18C4 18.5523 4.44771 19 5 19C5.55228 19 6 18.5523 6 18L6 14.4142L6.29289 14.7071C6.68342 15.0976 7.31658 15.0976 7.70711 14.7071C8.09763 14.3166 8.09763 13.6834 7.70711 13.2929L5.70711 11.2929Z" fill="#6E778C"/>
</svg>
