<svg width="24" height="24" viewBox="0 0 24 24" fill="none" xmlns="http://www.w3.org/2000/svg">
<path fill-rule="evenodd" clip-rule="evenodd" d="M4 4C2.89543 4 2 4.89543 2 6V18C2 19.1046 2.89543 20 4 20H20C21.1046 20 22 19.1046 22 18V6C22 4.89543 21.1046 4 20 4H4ZM4 6L20 6V9H4V6ZM4 11V18H20V11H4ZM6 15C6 14.4477 6.44772 14 7 14H11C11.5523 14 12 14.4477 12 15C12 15.5523 11.5523 16 11 16H7C6.44772 16 6 15.5523 6 15ZM15 14C14.4477 14 14 14.4477 14 15C14 15.5523 14.4477 16 15 16H17C17.5523 16 18 15.5523 18 15C18 14.4477 17.5523 14 17 14H15Z" fill="#6E778C"/>
</svg>
