<svg width="24" height="24" viewBox="0 0 24 24" fill="none" xmlns="http://www.w3.org/2000/svg">
<path fill-rule="evenodd" clip-rule="evenodd" d="M11.3292 3.7764C11.7515 3.56526 12.2485 3.56526 12.6708 3.7764L15.6708 5.2764C16.179 5.53049 16.5 6.04988 16.5 6.61804V9.38197C16.5 9.95013 16.179 10.4695 15.6708 10.7236L12.6708 12.2236C12.2485 12.4348 11.7515 12.4348 11.3292 12.2236L8.32918 10.7236C7.821 10.4695 7.5 9.95013 7.5 9.38197V6.61804C7.5 6.04988 7.821 5.53049 8.32918 5.2764L11.3292 3.7764ZM12.2236 4.67083C12.0828 4.60045 11.9172 4.60045 11.7764 4.67083L8.88016 6.11895L12 7.45602L15.1198 6.11895L12.2236 4.67083ZM15.5 7.04399L12.5 8.32971V11.191L15.2236 9.82919C15.393 9.74449 15.5 9.57136 15.5 9.38197V7.04399ZM11.5 11.191V8.32971L8.5 7.04399V9.38197C8.5 9.57136 8.607 9.74449 8.77639 9.82919L11.5 11.191ZM6.32918 11.7764C6.75147 11.5653 7.24853 11.5653 7.67082 11.7764L10.6708 13.2764C11.179 13.5305 11.5 14.0499 11.5 14.618V17.382C11.5 17.9501 11.179 18.4695 10.6708 18.7236L7.67082 20.2236C7.24853 20.4348 6.75147 20.4348 6.32918 20.2236L3.32918 18.7236C2.821 18.4695 2.5 17.9501 2.5 17.382V14.618C2.5 14.0499 2.821 13.5305 3.32918 13.2764L6.32918 11.7764ZM7.22361 12.6708C7.08284 12.6004 6.91716 12.6004 6.77639 12.6708L3.88015 14.1189L7 15.456L10.1198 14.1189L7.22361 12.6708ZM3.5 17.382V15.044L6.5 16.3297V19.191L3.77639 17.8292C3.607 17.7445 3.5 17.5714 3.5 17.382ZM10.2236 17.8292L7.5 19.191V16.3297L10.5 15.044V17.382C10.5 17.5714 10.393 17.7445 10.2236 17.8292ZM17.6708 11.7764C17.2485 11.5653 16.7515 11.5653 16.3292 11.7764L13.3292 13.2764C12.821 13.5305 12.5 14.0499 12.5 14.618V17.382C12.5 17.9501 12.821 18.4695 13.3292 18.7236L16.3292 20.2236C16.7515 20.4348 17.2485 20.4348 17.6708 20.2236L20.6708 18.7236C21.179 18.4695 21.5 17.9501 21.5 17.382V14.618C21.5 14.0499 21.179 13.5305 20.6708 13.2764L17.6708 11.7764ZM16.7764 12.6708C16.9172 12.6004 17.0828 12.6004 17.2236 12.6708L20.1198 14.1189L17 15.456L13.8802 14.1189L16.7764 12.6708ZM13.5 15.044V17.382C13.5 17.5714 13.607 17.7445 13.7764 17.8292L16.5 19.191V16.3297L13.5 15.044ZM17.5 19.191L20.2236 17.8292C20.393 17.7445 20.5 17.5714 20.5 17.382V15.044L17.5 16.3297V19.191Z" fill="#6E778C"/>
</svg>
