<svg width="24" height="24" viewBox="0 0 24 24" fill="none" xmlns="http://www.w3.org/2000/svg">
<path fill-rule="evenodd" clip-rule="evenodd" d="M4 3C3.44772 3 3 3.44772 3 4V12C3 12.5523 3.44772 13 4 13H10C10.5523 13 11 12.5523 11 12V4C11 3.44772 10.5523 3 10 3H4ZM4 15C3.44772 15 3 15.4477 3 16V20C3 20.5523 3.44772 21 4 21H10C10.5523 21 11 20.5523 11 20V16C11 15.4477 10.5523 15 10 15H4ZM13 12C13 11.4477 13.4477 11 14 11H20C20.5523 11 21 11.4477 21 12V20C21 20.5523 20.5523 21 20 21H14C13.4477 21 13 20.5523 13 20V12ZM14 3C13.4477 3 13 3.44772 13 4V8C13 8.55228 13.4477 9 14 9H20C20.5523 9 21 8.55228 21 8V4C21 3.44772 20.5523 3 20 3H14Z" fill="#6E778C"/>
</svg>
