<svg width="24" height="24" viewBox="0 0 24 24" fill="none" xmlns="http://www.w3.org/2000/svg">
<path fill-rule="evenodd" clip-rule="evenodd" d="M12 1C12.5523 1 13 1.44772 13 2V3.07111C15.6921 3.4553 18 5.36382 18 8C18 8.55228 17.5523 9 17 9C16.4477 9 16 8.55228 16 8C16 6.7515 14.8514 5.44474 13 5.09213V11.0711C15.6921 11.4553 18 13.3638 18 16C18 18.6362 15.6921 20.5447 13 20.9289V22C13 22.5523 12.5523 23 12 23C11.4477 23 11 22.5523 11 22V20.9289C8.30792 20.5447 6 18.6362 6 16C6 15.4477 6.44772 15 7 15C7.55228 15 8 15.4477 8 16C8 17.2485 9.14863 18.5553 11 18.9079V12.9289C8.30792 12.5447 6 10.6362 6 8C6 5.36382 8.30792 3.4553 11 3.07111V2C11 1.44772 11.4477 1 12 1ZM13 18.9079C14.8514 18.5553 16 17.2485 16 16C16 14.7515 14.8514 13.4447 13 13.0921V18.9079ZM8 8C8 6.7515 9.14863 5.44474 11 5.09213V10.9079C9.14863 10.5553 8 9.2485 8 8Z" fill="#6E778C"/>
</svg>
