<svg width="24" height="24" viewBox="0 0 24 24" fill="none" xmlns="http://www.w3.org/2000/svg">
<path fill-rule="evenodd" clip-rule="evenodd" d="M13.9701 1.7575C13.8741 1.3735 13.5607 1.08226 13.1707 1.01471C12.7807 0.947153 12.3875 1.116 12.1679 1.44534L9.50128 5.44534C9.19493 5.90486 9.3191 6.52573 9.77863 6.83209C10.2382 7.13844 10.859 7.01427 11.1654 6.55474L12.5781 4.43563L14.0299 10.2426C14.1411 10.6877 14.5411 11 15 11H17.1315L16.1679 12.4453C15.8616 12.9049 15.9858 13.5257 16.4453 13.8321C16.9048 14.1384 17.5257 14.0143 17.8321 13.5547L19.8321 10.5547C20.0366 10.2479 20.0557 9.85334 19.8817 9.52818C19.7077 9.20302 19.3688 9.00004 19 9.00004H15.7808L13.9701 1.7575ZM7.83205 11.5547C8.1384 11.0952 8.01423 10.4743 7.5547 10.168C7.09517 9.86163 6.4743 9.98581 6.16795 10.4453L4.16795 13.4453C3.96338 13.7522 3.94431 14.1467 4.11833 14.4719C4.29234 14.7971 4.6312 15 5 15H8.21922L10.0299 22.2426C10.1259 22.6266 10.4393 22.9178 10.8293 22.9854C11.2193 23.0529 11.6125 22.8841 11.8321 22.5547L14.8321 18.0547C15.1384 17.5952 15.0142 16.9743 14.5547 16.668C14.0952 16.3616 13.4743 16.4858 13.1679 16.9453L11.4219 19.5644L9.97014 13.7575C9.85885 13.3123 9.45887 13 9 13H6.86852L7.83205 11.5547ZM4.70711 3.29293C4.31658 2.9024 3.68342 2.9024 3.29289 3.29293C2.90237 3.68345 2.90237 4.31662 3.29289 4.70714L19.2929 20.7071C19.6834 21.0977 20.3166 21.0977 20.7071 20.7071C21.0976 20.3166 21.0976 19.6835 20.7071 19.2929L4.70711 3.29293Z" fill="#6E778C"/>
</svg>
