<svg width="24" height="24" viewBox="0 0 24 24" fill="none" xmlns="http://www.w3.org/2000/svg">
<path fill-rule="evenodd" clip-rule="evenodd" d="M21 3C21 2.44772 20.5523 2 20 2C19.4477 2 19 2.44772 19 3V4H9C7.89543 4 7 4.89543 7 6H5V3C5 2.44772 4.55228 2 4 2C3.44772 2 3 2.44772 3 3L3 6.99943L3 7L3 7.00057L3 14.999L3 15L3 15.001L3 20H2C1.44772 20 1 20.4477 1 21C1 21.5523 1.44772 22 2 22H4H16H20H22C22.5523 22 23 21.5523 23 21C23 20.4477 22.5523 20 22 20H21V5V3ZM19 6H9V7V8H15C16.1046 8 17 8.89543 17 10L19 10V6ZM17 12C17 13.1046 16.1046 14 15 14H9V15V16H15C16.1046 16 17 16.8954 17 18V20H19V12H17ZM15 20V18H9C7.89543 18 7 17.1046 7 16H5L5 20H15ZM7 14C7 12.8954 7.89543 12 9 12H15V11V10H9C7.89543 10 7 9.10457 7 8H5V14H7Z" fill="#6E778C"/>
</svg>
