<svg width="24" height="24" viewBox="0 0 24 24" fill="none" xmlns="http://www.w3.org/2000/svg">
<path fill-rule="evenodd" clip-rule="evenodd" d="M4 4C4 2.89543 4.89543 2 6 2H18C19.1046 2 20 2.89543 20 4V20C20 21.1046 19.1046 22 18 22H6C4.89543 22 4 21.1046 4 20V4ZM18 4L6 4V20H18V4ZM11 13C10.4477 13 10 13.4477 10 14C10 14.5523 10.4477 15 11 15C11.5523 15 12 14.5523 12 14C12 13.4477 11.5523 13 11 13ZM12 11.1707C11.6872 11.0602 11.3506 11 11 11C9.34315 11 8 12.3431 8 14C8 15.6569 9.34315 17 11 17C12.6569 17 14 15.6569 14 14V9.72076L16.3162 8.94868C16.8402 8.77404 17.1233 8.20772 16.9487 7.68377C16.774 7.15983 16.2077 6.87667 15.6838 7.05132L13.3675 7.82339C12.5509 8.09562 12 8.8599 12 9.72076V11.1707Z" fill="#6E778C"/>
</svg>
