<svg width="24" height="24" viewBox="0 0 24 24" fill="none" xmlns="http://www.w3.org/2000/svg">
<path fill-rule="evenodd" clip-rule="evenodd" d="M4 4C4 2.89543 4.89543 2 6 2H12.5858C12.6672 2 12.7481 2.00496 12.8281 2.01472C12.8839 2.00504 12.9414 2 13 2C13.3381 2 13.6371 2.16782 13.818 2.4247C13.8816 2.4744 13.9424 2.52816 14 2.58579L19.4142 8C19.4718 8.05763 19.5256 8.11842 19.5753 8.18195C19.8322 8.36294 20 8.66187 20 9C20 9.05862 19.995 9.11607 19.9853 9.17192C19.995 9.25191 20 9.3328 20 9.41421V20C20 21.1046 19.1046 22 18 22H14C13.4477 22 13 21.5523 13 21C13 20.4477 13.4477 20 14 20H18V10H14C12.8954 10 12 9.10457 12 8V4H6V12C6 12.5523 5.55228 13 5 13C4.44772 13 4 12.5523 4 12V4ZM14 8V5.41421L16.5858 8H14ZM11 21C11 20.4477 10.5523 20 10 20H7.41423L10.7071 16.7071C11.0976 16.3166 11.0976 15.6834 10.7071 15.2929C10.3166 14.9024 9.68344 14.9024 9.29291 15.2929L6.00002 18.5858L6.00002 16C6.00002 15.4477 5.5523 15 5.00002 15C4.44773 15 4.00002 15.4477 4.00002 16L4.00002 21C4.00002 21.5523 4.44773 22 5.00002 22H10C10.5523 22 11 21.5523 11 21Z" fill="#6E778C"/>
</svg>
