<svg width="24" height="24" viewBox="0 0 24 24" fill="none" xmlns="http://www.w3.org/2000/svg">
<path fill-rule="evenodd" clip-rule="evenodd" d="M4.95134 5.97129C4.21075 4.63823 5.17468 3 6.69965 3H17.3006C18.8256 3 19.7895 4.63822 19.0489 5.97129L15.0001 13.2591V18C15.0001 19.6481 13.1186 20.5889 11.8001 19.6L9.80014 18.1C9.29653 17.7223 9.00014 17.1295 9.00014 16.5V13.2591L4.95134 5.97129ZM6.69965 5L6.69965 5L10.7485 12.2878C10.9135 12.585 11.0001 12.9192 11.0001 13.2591V16.5L13.0001 18V13.2591C13.0001 12.9192 13.0868 12.585 13.2518 12.2878L17.3006 5H6.69965Z" fill="#6E778C"/>
</svg>
