<svg width="24" height="24" viewBox="0 0 24 24" fill="none" xmlns="http://www.w3.org/2000/svg">
<path fill-rule="evenodd" clip-rule="evenodd" d="M2.7577 2.02985C3.2935 1.8959 3.83643 2.22166 3.97038 2.75746L5.97038 10.7575C6.10433 11.2933 5.77857 11.8362 5.24277 11.9701C4.70698 12.1041 4.16404 11.7783 4.03009 11.2425L2.03009 3.24253C1.89615 2.70673 2.22191 2.1638 2.7577 2.02985ZM11.7195 9.99999L10.2195 3.99999H8.28101L9.78101 9.99999H11.7195ZM10.9793 1.99999H8.28101C6.97987 1.99999 6.02515 3.22277 6.34073 4.48506L7.84073 10.4851C8.06331 11.3754 8.86328 12 9.78101 12H10.7804L9.25888 19.6078C9.01136 20.8453 9.95795 22 11.22 22H14.1804C15.1338 22 15.9546 21.3271 16.1416 20.3922L17.8339 11.9308C20.1985 11.5339 22.0002 9.47738 22.0002 6.99999C22.0002 4.23857 19.7617 1.99999 17.0002 1.99999H11.0227C11.0083 1.99968 10.9938 1.99968 10.9793 1.99999ZM12.281 3.99999L17.0002 3.99999C18.6571 3.99999 20.0002 5.34314 20.0002 6.99999C20.0002 8.65144 18.6658 9.99123 17.0164 9.99995C17.0041 9.99974 16.9918 9.99975 16.9796 9.99999H13.781L12.281 3.99999ZM12.9778 12C12.9922 12.0003 13.0067 12.0003 13.0212 12H15.7804L14.9804 16H12.02L12.82 12H12.9778ZM14.5804 18H11.62L11.22 20H14.1804L14.5804 18Z" fill="#6E778C"/>
</svg>
