<svg width="24" height="24" viewBox="0 0 24 24" fill="none" xmlns="http://www.w3.org/2000/svg">
<path fill-rule="evenodd" clip-rule="evenodd" d="M2 5C2 3.89543 2.89543 3 4 3H8.58579C9.11622 3 9.62493 3.21071 10 3.58579L12.4142 6H20C21.1046 6 22 6.89543 22 8V18C22 19.1046 21.1046 20 20 20H4C2.89543 20 2 19.1046 2 18V5ZM8.58579 5H4V18H20V8H12.4142C11.8838 8 11.3751 7.78929 11 7.41421L8.58579 5ZM14.7071 10.2929C15.0976 10.6834 15.0976 11.3166 14.7071 11.7071L13.4142 13L14.7071 14.2929C15.0976 14.6834 15.0976 15.3166 14.7071 15.7071C14.3166 16.0976 13.6834 16.0976 13.2929 15.7071L12 14.4142L10.7071 15.7071C10.3166 16.0976 9.68342 16.0976 9.29289 15.7071C8.90237 15.3166 8.90237 14.6834 9.29289 14.2929L10.5858 13L9.29289 11.7071C8.90237 11.3166 8.90237 10.6834 9.29289 10.2929C9.68342 9.90237 10.3166 9.90237 10.7071 10.2929L12 11.5858L13.2929 10.2929C13.6834 9.90237 14.3166 9.90237 14.7071 10.2929Z" fill="#6E778C"/>
</svg>
