<svg width="24" height="24" viewBox="0 0 24 24" fill="none" xmlns="http://www.w3.org/2000/svg">
<path fill-rule="evenodd" clip-rule="evenodd" d="M4 1C2.89543 1 2 1.89543 2 3V16C2 17.1046 2.89543 18 4 18H11V20H5C4.44772 20 4 20.4477 4 21C4 21.5523 4.44772 22 5 22H12H19C19.5523 22 20 21.5523 20 21C20 20.4477 19.5523 20 19 20H13V18H20C21.1046 18 22 17.1046 22 16V6C22 4.89543 21.1046 4 20 4H12.4142L10 1.58579C9.62493 1.21071 9.11622 1 8.58579 1H4ZM20 16H12H4V3H8.58579L11 5.41421C11.3751 5.78929 11.8838 6 12.4142 6H20V16ZM10 10C9.44772 10 9 10.4477 9 11C9 11.5523 9.44772 12 10 12H14C14.5523 12 15 11.5523 15 11C15 10.4477 14.5523 10 14 10H10Z" fill="#6E778C"/>
</svg>
