<svg width="24" height="24" viewBox="0 0 24 24" fill="none" xmlns="http://www.w3.org/2000/svg">
<path fill-rule="evenodd" clip-rule="evenodd" d="M10.0002 5C10.0002 4.44772 10.4479 4 11.0002 4H13.0002C13.5525 4 14.0002 4.44772 14.0002 5V5.56105C14.0002 7.45386 15.7316 8.87367 17.5877 8.50294L18.4696 8.32682C18.9645 8.22796 19.4556 8.51346 19.6145 8.99252L19.98 10.0939C20.142 10.5822 19.9071 11.1137 19.437 11.3226L18.7639 11.6218C17.0636 12.3775 16.4542 14.4828 17.488 16.0299L18.0083 16.8087C18.3259 17.284 18.1811 17.9283 17.6908 18.2221L16.1834 19.1252C15.7133 19.4069 15.104 19.2577 14.8172 18.7906L14.5568 18.3665C13.386 16.4592 10.6144 16.4592 9.4435 18.3665L9.10708 18.9145C8.83574 19.3564 8.27153 19.5176 7.80764 19.2857L6.37912 18.5714C5.85811 18.3109 5.66915 17.662 5.96885 17.1625L6.5749 16.1524C7.56235 14.5067 6.77186 12.3698 4.95111 11.7629L4.65714 11.6649C4.14438 11.494 3.86023 10.9466 4.01554 10.4289L4.43496 9.03078C4.58321 8.53664 5.08302 8.23638 5.58891 8.33755L6.41182 8.50213C8.26819 8.87341 10.0002 7.45353 10.0002 5.56039V5ZM11.0002 2C9.34331 2 8.00017 3.34315 8.00017 5V5.56039C8.00017 6.19144 7.42284 6.66473 6.80405 6.54097L5.98114 6.37639C4.4635 6.07286 2.96404 6.97366 2.51931 8.45609L2.09989 9.85417C1.63396 11.4073 2.48642 13.0495 4.02468 13.5623L4.31865 13.6603C4.92557 13.8626 5.18907 14.5749 4.85992 15.1234L4.25386 16.1335C3.35476 17.632 3.92166 19.5788 5.4847 20.3603L6.91322 21.0746C8.30486 21.7704 9.99751 21.2868 10.8115 19.9608L11.1479 19.4128C11.5382 18.7771 12.4621 18.7771 12.8524 19.4128L13.1128 19.837C13.973 21.2383 15.8009 21.686 17.2114 20.8409L18.7188 19.9377C20.1898 19.0563 20.6239 17.1234 19.6712 15.6975L19.1509 14.9188C18.8063 14.4031 19.0094 13.7013 19.5762 13.4494L20.2493 13.1503C21.6596 12.5234 22.3643 10.9289 21.8782 9.46404L21.5128 8.36267C21.0359 6.92548 19.5628 6.06898 18.0779 6.36555L17.196 6.54168C16.5773 6.66525 16.0002 6.19199 16.0002 5.56105V5C16.0002 3.34315 14.657 2 13.0002 2H11.0002ZM11.0002 12C11.0002 11.4477 11.4479 11 12.0002 11C12.5525 11 13.0002 11.4477 13.0002 12C13.0002 12.5523 12.5525 13 12.0002 13C11.4479 13 11.0002 12.5523 11.0002 12ZM12.0002 9C10.3433 9 9.00017 10.3431 9.00017 12C9.00017 13.6569 10.3433 15 12.0002 15C13.657 15 15.0002 13.6569 15.0002 12C15.0002 10.3431 13.657 9 12.0002 9Z" fill="#6E778C"/>
</svg>
