<svg width="24" height="24" viewBox="0 0 24 24" fill="none" xmlns="http://www.w3.org/2000/svg">
<path fill-rule="evenodd" clip-rule="evenodd" d="M14.7071 4.70711C15.0976 4.31658 15.0976 3.68342 14.7071 3.29289C14.3166 2.90237 13.6834 2.90237 13.2929 3.29289L12 4.58579L10.7071 3.29289C10.3166 2.90237 9.68342 2.90237 9.29289 3.29289C8.90237 3.68342 8.90237 4.31658 9.29289 4.70711L10.5858 6L6 10.5858L4.70711 9.29289C4.31658 8.90237 3.68342 8.90237 3.29289 9.29289C2.90237 9.68342 2.90237 10.3166 3.29289 10.7071L4.58579 12L3.29289 13.2929C2.90237 13.6834 2.90237 14.3166 3.29289 14.7071C3.68342 15.0976 4.31658 15.0976 4.70711 14.7071L6 13.4142L10.5858 18L9.29289 19.2929C8.90237 19.6834 8.90237 20.3166 9.29289 20.7071C9.68342 21.0976 10.3166 21.0976 10.7071 20.7071L12 19.4142L13.2929 20.7071C13.6834 21.0976 14.3166 21.0976 14.7071 20.7071C15.0976 20.3166 15.0976 19.6834 14.7071 19.2929L13.4142 18L18 13.4142L19.2929 14.7071C19.6834 15.0976 20.3166 15.0976 20.7071 14.7071C21.0976 14.3166 21.0976 13.6834 20.7071 13.2929L19.4142 12L20.7071 10.7071C21.0976 10.3166 21.0976 9.68342 20.7071 9.29289C20.3166 8.90237 19.6834 8.90237 19.2929 9.29289L18 10.5858L13.4142 6L14.7071 4.70711ZM12 16.5858L16.5858 12L12 7.41421L7.41421 12L12 16.5858Z" fill="#6E778C"/>
</svg>
