<svg width="24" height="24" viewBox="0 0 24 24" fill="none" xmlns="http://www.w3.org/2000/svg">
<path fill-rule="evenodd" clip-rule="evenodd" d="M6.00022 5C5.44793 5 5.00022 5.44772 5.00022 6C5.00022 6.55228 5.44793 7 6.00022 7L20.0002 7C20.5525 7 21.0002 6.55229 21.0002 6C21.0002 5.44772 20.5525 5 20.0002 5H6.00022ZM1.55301 8.10557C2.04698 7.85858 2.64766 8.05881 2.89465 8.55279L3.61825 10H8.00022L8.60022 9.2C9.16678 8.44458 10.0559 8 11.0002 8H17.0002C17.5525 8 18.0002 8.44772 18.0002 9V10H19.2642C21.4943 10 22.9448 12.3469 21.9474 14.3416L20.8946 16.4472C20.7253 16.786 20.379 17 20.0002 17H17.5002H11.5002H11.0002C10.8128 17 10.6292 16.9473 10.4702 16.848L3.40282 12.4309L2.89465 13.4472C2.64766 13.9412 2.04698 14.1414 1.55301 13.8944C1.05903 13.6474 0.858803 13.0468 1.10579 12.5528L1.88219 11L1.10579 9.44721C0.858803 8.95324 1.05903 8.35256 1.55301 8.10557ZM11.5002 17C12.3287 17 13.0002 17.6716 13.0002 18.5C13.0002 19.3284 12.3287 20 11.5002 20C10.6718 20 10.0002 19.3284 10.0002 18.5C10.0002 17.6716 10.6718 17 11.5002 17ZM17.5002 17C18.3287 17 19.0002 17.6716 19.0002 18.5C19.0002 19.3284 18.3287 20 17.5002 20C16.6718 20 16.0002 19.3284 16.0002 18.5C16.0002 17.6716 16.6718 17 17.5002 17ZM16.0002 10H11.0002C10.6855 10 10.3891 10.1482 10.2002 10.4L9.30022 11.6C9.11136 11.8518 8.81498 12 8.50022 12H6.48701L11.287 15H19.3822L20.1586 13.4472C20.491 12.7823 20.0075 12 19.2642 12H17.0002C16.4479 12 16.0002 11.5523 16.0002 11V10Z" fill="#6E778C"/>
</svg>
