<svg width="24" height="24" viewBox="0 0 24 24" fill="none" xmlns="http://www.w3.org/2000/svg">
<path fill-rule="evenodd" clip-rule="evenodd" d="M7 2.58579C7.37507 2.21071 7.88378 2 8.41421 2H15.5858C16.1162 2 16.6249 2.21071 17 2.58579L21.4142 7C21.7893 7.37507 22 7.88378 22 8.41421V15.5858C22 16.1162 21.7893 16.6249 21.4142 17L17 21.4142C16.6249 21.7893 16.1162 22 15.5858 22H8.41421C7.88378 22 7.37507 21.7893 7 21.4142L2.58579 17C2.21071 16.6249 2 16.1162 2 15.5858V8.41421C2 7.88378 2.21071 7.37507 2.58579 7L7 2.58579ZM15.5858 4L8.41421 4L4 8.41421V15.5858L8.41421 20H15.5858L20 15.5858V8.41421L15.5858 4ZM12 7C12.5523 7 13 7.44772 13 8V13C13 13.5523 12.5523 14 12 14C11.4477 14 11 13.5523 11 13V8C11 7.44772 11.4477 7 12 7ZM12 17C12.5523 17 13 16.5523 13 16C13 15.4477 12.5523 15 12 15C11.4477 15 11 15.4477 11 16C11 16.5523 11.4477 17 12 17Z" fill="#6E778C"/>
</svg>
