<svg width="24" height="24" viewBox="0 0 24 24" fill="none" xmlns="http://www.w3.org/2000/svg">
<path fill-rule="evenodd" clip-rule="evenodd" d="M13.4142 3C12.6332 2.21895 11.3668 2.21895 10.5858 3L3.58579 10C3.21071 10.3751 3 10.8838 3 11.4142V20C3 21.1046 3.89543 22 5 22H9H15H19C20.1046 22 21 21.1046 21 20V11.4142C21 10.8838 20.7893 10.3751 20.4142 10L13.4142 3ZM16 20H19V11.4142L12 4.41421L5 11.4142V20H8V14C8 12.8954 8.89543 12 10 12H14C15.1046 12 16 12.8954 16 14V20ZM10 20V14H14V20H10Z" fill="#6E778C"/>
</svg>
