<svg width="24" height="24" viewBox="0 0 24 24" fill="none" xmlns="http://www.w3.org/2000/svg">
<path fill-rule="evenodd" clip-rule="evenodd" d="M3.14438 5.35251C3.00285 4.07863 4.07928 3.00228 5.35314 3.14391L12.7621 3.96763C13.2134 4.01781 13.6342 4.22006 13.9553 4.54115L20.0001 10.5857C20.7812 11.3668 20.7812 12.6331 20.0002 13.4142L13.4144 20C12.6333 20.781 11.367 20.781 10.586 20L4.54118 13.9554C4.22004 13.6343 4.01775 13.2134 3.9676 12.762L3.14438 5.35251ZM5.13215 5.13166L5.95537 12.5412L12.0002 18.5858L18.5859 12L12.5411 5.95538L5.13215 5.13166ZM11.2931 8.29285C11.6836 7.90233 12.3167 7.90233 12.7073 8.29285L15.7073 11.2929C16.0978 11.6834 16.0978 12.3165 15.7073 12.7071C15.3167 13.0976 14.6836 13.0976 14.2931 12.7071L11.2931 9.70706C10.9025 9.31654 10.9025 8.68337 11.2931 8.29285ZM9.70727 11.2929C9.31675 10.9023 8.68358 10.9023 8.29306 11.2929C7.90253 11.6834 7.90253 12.3165 8.29306 12.7071L9.29306 13.7071C9.68358 14.0976 10.3167 14.0976 10.7073 13.7071C11.0978 13.3165 11.0978 12.6834 10.7073 12.2929L9.70727 11.2929Z" fill="#6E778C"/>
</svg>
