<svg width="24" height="24" viewBox="0 0 24 24" fill="none" xmlns="http://www.w3.org/2000/svg">
<path fill-rule="evenodd" clip-rule="evenodd" d="M4.1105 3.00613C3.80857 2.97256 3.50775 3.07807 3.29293 3.29287C3.0781 3.50768 2.97258 3.80849 3.00612 4.11043L4.00612 13.111C4.0312 13.3367 4.13234 13.5472 4.29291 13.7077L11.2929 20.7074C11.6834 21.0979 12.3165 21.0979 12.7071 20.7074L20.7071 12.7074C20.8946 12.5199 20.9999 12.2655 20.9999 12.0003C20.9999 11.7351 20.8946 11.4807 20.707 11.2932L13.7071 4.2935C13.5466 4.13296 13.3362 4.03183 13.1105 4.00674L4.1105 3.00613ZM5.95515 12.5415L5.13193 5.13201L12.5409 5.95574L18.5857 12.0003L11.9999 18.5861L5.95515 12.5415ZM8.50001 10C9.32843 10 10 9.32843 10 8.50001C10 7.67158 9.32843 7.00001 8.50001 7.00001C7.67158 7.00001 7.00001 7.67158 7.00001 8.50001C7.00001 9.32843 7.67158 10 8.50001 10Z" fill="#6E778C"/>
</svg>
