<svg width="24" height="24" viewBox="0 0 24 24" fill="none" xmlns="http://www.w3.org/2000/svg">
<path d="M20.9999 11.35C20.9885 11.1641 20.9253 10.985 20.8175 10.8331C20.7097 10.6811 20.5616 10.5623 20.3899 10.49L18.2399 9.56999L20.4999 8.26999C20.6602 8.17784 20.7917 8.04307 20.88 7.88067C20.9683 7.71826 21.0098 7.53457 20.9999 7.34999C20.9885 7.16405 20.9253 6.98502 20.8175 6.83307C20.7097 6.68112 20.5616 6.56229 20.3899 6.48999L12.3899 3.07999C12.2666 3.02774 12.1339 3.00081 11.9999 3.00081C11.866 3.00081 11.7333 3.02774 11.6099 3.07999L3.60995 6.48999C3.43826 6.56229 3.29018 6.68112 3.1824 6.83307C3.07462 6.98502 3.01143 7.16405 2.99995 7.34999C2.99012 7.53457 3.03165 7.71826 3.11991 7.88067C3.20817 8.04307 3.33972 8.17784 3.49995 8.26999L5.75995 9.56999L3.60995 10.49C3.43826 10.5623 3.29018 10.6811 3.1824 10.8331C3.07462 10.985 3.01143 11.1641 2.99995 11.35C2.99012 11.5346 3.03165 11.7183 3.11991 11.8807C3.20817 12.0431 3.33972 12.1778 3.49995 12.27L5.75995 13.57L3.60995 14.49C3.43826 14.5623 3.29018 14.6811 3.1824 14.8331C3.07462 14.985 3.01143 15.1641 2.99995 15.35C2.99012 15.5346 3.03165 15.7183 3.11991 15.8807C3.20817 16.0431 3.33972 16.1778 3.49995 16.27L11.4999 20.87C11.652 20.9578 11.8244 21.004 11.9999 21.004C12.1755 21.004 12.3479 20.9578 12.4999 20.87L20.4999 16.27C20.6602 16.1778 20.7917 16.0431 20.88 15.8807C20.9683 15.7183 21.0098 15.5346 20.9999 15.35C20.9885 15.1641 20.9253 14.985 20.8175 14.8331C20.7097 14.6811 20.5616 14.5623 20.3899 14.49L18.2399 13.57L20.4999 12.27C20.6602 12.1778 20.7917 12.0431 20.88 11.8807C20.9683 11.7183 21.0098 11.5346 20.9999 11.35ZM11.9999 5.08999L17.7599 7.53999L11.9999 10.85L6.23995 7.53999L11.9999 5.08999ZM11.4999 12.87C11.652 12.9578 11.8244 13.004 11.9999 13.004C12.1755 13.004 12.3479 12.9578 12.4999 12.87L16.0699 10.87L17.7599 11.59L11.9999 14.85L6.23995 11.54L7.92995 10.82L11.4999 12.87ZM17.7599 15.54L11.9999 18.85L6.23995 15.54L7.92995 14.82L11.4999 16.87C11.652 16.9578 11.8244 17.004 11.9999 17.004C12.1755 17.004 12.3479 16.9578 12.4999 16.87L16.0699 14.82L17.7599 15.54Z" fill="#6E778C"/>
</svg>
