<svg width="24" height="24" viewBox="0 0 24 24" fill="none" xmlns="http://www.w3.org/2000/svg">
<path fill-rule="evenodd" clip-rule="evenodd" d="M6 10C6 6.68629 8.68629 4 12 4C15.3137 4 18 6.68629 18 10C18 11.3927 17.3346 12.9718 16.3535 14.5182C15.1589 13.5685 13.6454 13 12 13C10.3546 13 8.84112 13.5685 7.64655 14.5182C6.66543 12.9718 6 11.3927 6 10ZM8.80397 16.1546C9.98372 17.6734 11.2484 18.9393 12 19.6481C12.7516 18.9393 14.0163 17.6734 15.196 16.1546C14.3289 15.4328 13.2154 15 12 15C10.7846 15 9.67107 15.4328 8.80397 16.1546ZM12 2C7.58172 2 4 5.58172 4 10C4 12.3688 5.32618 14.7905 6.72765 16.7204C8.15624 18.6877 9.79835 20.3247 10.6818 21.1539C11.4262 21.8525 12.5738 21.8525 13.3182 21.1539C14.2016 20.3247 15.8438 18.6877 17.2723 16.7204C18.6738 14.7905 20 12.3688 20 10C20 5.58172 16.4183 2 12 2ZM11 9C11 8.44772 11.4477 8 12 8C12.5523 8 13 8.44772 13 9C13 9.55228 12.5523 10 12 10C11.4477 10 11 9.55228 11 9ZM12 6C10.3431 6 9 7.34315 9 9C9 10.6569 10.3431 12 12 12C13.6569 12 15 10.6569 15 9C15 7.34315 13.6569 6 12 6Z" fill="#6E778C"/>
</svg>
