<svg width="24" height="24" viewBox="0 0 24 24" fill="none" xmlns="http://www.w3.org/2000/svg">
<path fill-rule="evenodd" clip-rule="evenodd" d="M8 4C5.79086 4 4 5.79086 4 8C4 8.92676 4.31395 9.77739 4.84192 10.4553C5.53255 11.342 5.53255 12.658 4.84192 13.5447C4.31395 14.2226 4 15.0732 4 16C4 18.2091 5.79086 20 8 20C8.92676 20 9.77739 19.6861 10.4553 19.1581C11.342 18.4675 12.658 18.4675 13.5447 19.1581C14.2226 19.6861 15.0732 20 16 20C18.2091 20 20 18.2091 20 16C20 15.0732 19.6861 14.2226 19.1581 13.5447C18.4675 12.658 18.4675 11.342 19.1581 10.4553C19.6861 9.77739 20 8.92676 20 8C20 5.79086 18.2091 4 16 4C15.0732 4 14.2226 4.31395 13.5447 4.84192C12.658 5.53255 11.342 5.53255 10.4553 4.84192C9.77739 4.31395 8.92676 4 8 4ZM2 8C2 4.68629 4.68629 2 8 2C9.38751 2 10.6675 2.4722 11.6842 3.26404C11.8483 3.39184 12.1517 3.39184 12.3158 3.26404C13.3325 2.4722 14.6125 2 16 2C19.3137 2 22 4.68629 22 8C22 9.38751 21.5278 10.6675 20.736 11.6842C20.6082 11.8483 20.6082 12.1517 20.736 12.3158C21.5278 13.3325 22 14.6125 22 16C22 19.3137 19.3137 22 16 22C14.6125 22 13.3325 21.5278 12.3158 20.736C12.1517 20.6082 11.8483 20.6082 11.6842 20.736C10.6675 21.5278 9.38751 22 8 22C4.68629 22 2 19.3137 2 16C2 14.6125 2.4722 13.3325 3.26404 12.3158C3.39184 12.1517 3.39184 11.8483 3.26404 11.6842C2.4722 10.6675 2 9.38751 2 8Z" fill="#6E778C"/>
</svg>
