<svg width="24" height="24" viewBox="0 0 24 24" fill="none" xmlns="http://www.w3.org/2000/svg">
<path fill-rule="evenodd" clip-rule="evenodd" d="M11 5C9.34315 5 8 6.34315 8 8C8 9.65685 9.34315 11 11 11C12.6569 11 14 9.65685 14 8C14 6.34315 12.6569 5 11 5ZM6 8C6 5.23858 8.23858 3 11 3C13.7614 3 16 5.23858 16 8C16 9.01908 15.6951 9.96696 15.1716 10.7574L16.7071 12.2929C17.0976 12.6834 17.0976 13.3166 16.7071 13.7071C16.3166 14.0976 15.6834 14.0976 15.2929 13.7071L13.7574 12.1716C12.967 12.6951 12.0191 13 11 13C8.23858 13 6 10.7614 6 8ZM6 18C6 17.4477 5.55228 17 5 17C4.44772 17 4 17.4477 4 18V19C4 20.1046 4.89543 21 6 21H18C19.1046 21 20 20.1046 20 19V18C20 17.4477 19.5523 17 19 17C18.4477 17 18 17.4477 18 18V19H6V18Z" fill="#6E778C"/>
</svg>
