<svg width="24" height="24" viewBox="0 0 24 24" fill="none" xmlns="http://www.w3.org/2000/svg">
<path fill-rule="evenodd" clip-rule="evenodd" d="M16.6226 4.21737C16.4517 4.08131 16.2354 4 16 4C15.7646 4 15.5483 4.08131 15.3774 4.21737C15.2849 4.2477 15.194 4.28497 15.1056 4.32918L12 5.88197L8.89443 4.32918C8.806 4.28497 8.71512 4.2477 8.62255 4.21737C8.45173 4.08131 8.23536 4 8 4C7.76464 4 7.54827 4.08131 7.37745 4.21737C7.28488 4.2477 7.194 4.28497 7.10557 4.32918L4.10557 5.82918C3.428 6.16796 3 6.86049 3 7.61803V17.382C3 18.8687 4.56462 19.8357 5.89443 19.1708L8 18.118L11.1056 19.6708C11.194 19.715 11.2849 19.7523 11.3774 19.7826C11.5483 19.9187 11.7646 20 12 20C12.2354 20 12.4517 19.9187 12.6226 19.7826C12.7151 19.7523 12.806 19.715 12.8944 19.6708L16 18.118L18.1056 19.1708C19.4354 19.8357 21 18.8687 21 17.382V7.61803C21 6.86049 20.572 6.16796 19.8944 5.82918L16.8944 4.32918C16.806 4.28497 16.7151 4.2477 16.6226 4.21737ZM7 6.61803L5 7.61803V17.382L7 16.382V6.61803ZM9 16.382L11 17.382V7.61803L9 6.61803V16.382ZM15 16.382L13 17.382V7.61803L15 6.61803V16.382ZM17 16.382V6.61803L19 7.61803V17.382L17 16.382Z" fill="#6E778C"/>
</svg>
