<svg width="24" height="24" viewBox="0 0 24 24" fill="none" xmlns="http://www.w3.org/2000/svg">
<path fill-rule="evenodd" clip-rule="evenodd" d="M20.5257 3.14935C20.8205 3.33156 21 3.65342 21 4V17C21 17.3788 20.786 17.725 20.4472 17.8944L14.4472 20.8944C14.1414 21.0473 13.7787 21.0334 13.4855 20.8575L9 18.1662L4.5145 20.8575C4.20557 21.0429 3.82081 21.0477 3.5073 20.8702C3.19379 20.6927 3 20.3603 3 20V7C3 6.64874 3.1843 6.32323 3.4855 6.14251L8.4855 3.14251C8.80219 2.9525 9.19781 2.9525 9.5145 3.14251L14.0438 5.86008L19.5528 3.10557C19.8628 2.95058 20.2309 2.96714 20.5257 3.14935ZM19 5.61804L15 7.61803V18.382L19 16.382V5.61804ZM10 5.76619L13 7.56619V18.2338L10 16.4338V5.76619ZM8 5.76619L5 7.56619V18.2338L8 16.4338V5.76619Z" fill="#6E778C"/>
</svg>
