<svg width="24" height="24" viewBox="0 0 24 24" fill="none" xmlns="http://www.w3.org/2000/svg">
<path fill-rule="evenodd" clip-rule="evenodd" d="M8 4C8 3.44772 8.44772 3 9 3H15C15.5523 3 16 3.44772 16 4V8H20C20.5523 8 21 8.44772 21 9V15C21 15.5523 20.5523 16 20 16H16V20C16 20.5523 15.5523 21 15 21H9C8.44772 21 8 20.5523 8 20V16H4C3.44772 16 3 15.5523 3 15V9C3 8.44772 3.44772 8 4 8H8V4ZM10 5V9C10 9.55228 9.55228 10 9 10H5V14H9C9.55228 14 10 14.4477 10 15V19H14V15C14 14.4477 14.4477 14 15 14H19V10H15C14.4477 10 14 9.55228 14 9V5H10Z" fill="#6E778C"/>
</svg>
