<svg width="24" height="24" viewBox="0 0 24 24" fill="none" xmlns="http://www.w3.org/2000/svg">
<path fill-rule="evenodd" clip-rule="evenodd" d="M4.44723 3.10555C4.04655 2.90521 3.56152 2.99579 3.26014 3.32723C2.95877 3.65867 2.91459 4.1501 3.15201 4.52998L7.82076 12L3.15201 19.47C2.91459 19.8499 2.95877 20.3413 3.26014 20.6727C3.56152 21.0042 4.04655 21.0947 4.44722 20.8944L20.4472 12.8944C20.786 12.725 21 12.3788 21 12C21 11.6212 20.786 11.2749 20.4472 11.1056L4.44723 3.10555ZM9.55426 11L6.73168 6.48385L15.7639 11H9.55426ZM9.55426 13L6.73167 17.5161L15.7639 13H9.55426Z" fill="#6E778C"/>
</svg>
