<svg width="24" height="24" viewBox="0 0 24 24" fill="none" xmlns="http://www.w3.org/2000/svg">
<path fill-rule="evenodd" clip-rule="evenodd" d="M20 5.24662C20 3.96712 18.8152 3.01668 17.5661 3.29424L10.5661 4.8498C9.65106 5.05315 9 5.86477 9 6.80217V14.3368C8.54537 14.1208 8.0368 14 7.5 14C5.567 14 4 15.567 4 17.5C4 19.433 5.567 21 7.5 21C9.07206 21 10.402 19.9636 10.8439 18.5367C10.9427 18.3816 11 18.1975 11 18V17.5V6.80217L18 5.24662V12.3368C17.5454 12.1208 17.0368 12 16.5 12C14.567 12 13 13.567 13 15.5C13 17.433 14.567 19 16.5 19C18.433 19 20 17.433 20 15.5C20 15.3899 19.9949 15.2811 19.985 15.1736C19.9949 15.1172 20 15.0592 20 15V5.24662ZM9 17.5C9 16.6716 8.32843 16 7.5 16C6.67157 16 6 16.6716 6 17.5C6 18.3284 6.67157 19 7.5 19C8.32843 19 9 18.3284 9 17.5ZM16.5 14C15.6716 14 15 14.6716 15 15.5C15 16.3284 15.6716 17 16.5 17C17.3284 17 18 16.3284 18 15.5C18 14.6716 17.3284 14 16.5 14Z" fill="#6E778C"/>
</svg>
