<svg width="24" height="24" viewBox="0 0 24 24" fill="none" xmlns="http://www.w3.org/2000/svg">
<path fill-rule="evenodd" clip-rule="evenodd" d="M10 8C8.89543 8 8 8.89543 8 10L8 11C8 11.5523 8.44772 12 9 12C9.55229 12 10 11.5523 10 11L10 10L11 10C11.5523 10 12 9.55228 12 9C12 8.44771 11.5523 8 11 8L10 8ZM14 8C13.4477 8 13 8.44771 13 9C13 9.55228 13.4477 10 14 10C14 10.5523 14.4477 11 15 11C15.5523 11 16 10.5523 16 10C16.5523 10 17 9.55228 17 9C17 8.44771 16.5523 8 16 8C16 7.44772 15.5523 7 15 7C14.4477 7 14 7.44771 14 8ZM20 8C19.4477 8 19 8.44771 19 9C19 9.55228 19.4477 10 20 10L21 10L21 11C21 11.5523 21.4477 12 22 12C22.5523 12 23 11.5523 23 11L23 10C23 8.89543 22.1046 8 21 8L20 8ZM10 14C10 13.4477 9.55229 13 9 13C8.44772 13 8 13.4477 8 14C7.44772 14 7 14.4477 7 15C7 15.5523 7.44772 16 8 16C8 16.5523 8.44772 17 9 17C9.55228 17 10 16.5523 10 16C10.5523 16 11 15.5523 11 15C11 14.4477 10.5523 14 10 14ZM23 15C23 14.4477 22.5523 14 22 14C21.4477 14 21 14.4477 21 15L21 16C21 16.5523 21.4477 17 22 17C22.5523 17 23 16.5523 23 16L23 15ZM10 20C10 19.4477 9.55228 19 9 19C8.44772 19 8 19.4477 8 20L8 21C8 22.1046 8.89543 23 10 23L11 23C11.5523 23 12 22.5523 12 22C12 21.4477 11.5523 21 11 21L10 21L10 20ZM23 20C23 19.4477 22.5523 19 22 19C21.4477 19 21 19.4477 21 20L21 21L20 21C19.4477 21 19 21.4477 19 22C19 22.5523 19.4477 23 20 23L21 23C22.1046 23 23 22.1046 23 21L23 20ZM15 21C14.4477 21 14 21.4477 14 22C14 22.5523 14.4477 23 15 23L16 23C16.5523 23 17 22.5523 17 22C17 21.4477 16.5523 21 16 21L15 21ZM3 1C1.89543 1 1 1.89543 1 3L1 4C1 4.55228 1.44772 5 2 5C2.55228 5 3 4.55228 3 4L3 3L4 3C4.55228 3 5 2.55228 5 2C5 1.44772 4.55228 1 4 1L3 1ZM8 1C7.44771 1 7 1.44771 7 2C7 2.55228 7.44772 3 8 3L9 3C9.55229 3 10 2.55229 10 2C10 1.44771 9.55228 1 9 1L8 1ZM13 0.999999C12.4477 1 12 1.44771 12 2C12 2.55229 12.4477 3 13 3L14 3L14 4C14 4.55229 14.4477 5 15 5C15.5523 5 16 4.55229 16 4L16 3C16 1.89543 15.1046 0.999999 14 0.999999L13 0.999999ZM3 8C3 7.44771 2.55229 7 2 7C1.44772 7 0.999999 7.44772 0.999999 8L0.999999 9C0.999999 9.55229 1.44771 10 2 10C2.55229 10 3 9.55228 3 9L3 8ZM3 13C3 12.4477 2.55229 12 2 12C1.44771 12 0.999999 12.4477 1 13L1 14C1 15.1046 1.89543 16 3 16L4 16C4.55228 16 5 15.5523 5 15C5 14.4477 4.55229 14 4 14L3 14L3 13ZM16 13C16 12.4477 15.5523 12 15 12C14.4477 12 14 12.4477 14 13L14 14L13 14C12.4477 14 12 14.4477 12 15C12 15.5523 12.4477 16 13 16L14 16C15.1046 16 16 15.1046 16 14L16 13Z" fill="#6E778C"/>
</svg>
