<svg width="24" height="24" viewBox="0 0 24 24" fill="none" xmlns="http://www.w3.org/2000/svg">
<path fill-rule="evenodd" clip-rule="evenodd" d="M12 3C11.4477 3 11 3.44772 11 4C11 4.55228 11.4477 5 12 5C12.5523 5 13 4.55228 13 4C13 3.44772 12.5523 3 12 3ZM15 4C15 5.30622 14.1652 6.41746 13 6.82929V9.17071C13.8524 9.47199 14.528 10.1476 14.8293 11H17.1707C17.5825 9.83481 18.6938 9 20 9C21.6569 9 23 10.3431 23 12C23 13.6569 21.6569 15 20 15C18.6938 15 17.5825 14.1652 17.1707 13H14.8293C14.528 13.8524 13.8524 14.528 13 14.8293V17.1707C14.1652 17.5825 15 18.6938 15 20C15 21.6569 13.6569 23 12 23C10.3431 23 9 21.6569 9 20C9 18.6938 9.83481 17.5825 11 17.1707V14.8293C10.1476 14.528 9.47199 13.8524 9.17071 13H6.82929C6.41746 14.1652 5.30622 15 4 15C2.34315 15 1 13.6569 1 12C1 10.3431 2.34315 9 4 9C5.30622 9 6.41746 9.83481 6.82929 11H9.17071C9.47199 10.1476 10.1476 9.47199 11 9.17071V6.82929C9.83481 6.41746 9 5.30622 9 4C9 2.34315 10.3431 1 12 1C13.6569 1 15 2.34315 15 4ZM5 12C5 11.4477 4.55228 11 4 11C3.44772 11 3 11.4477 3 12C3 12.5523 3.44772 13 4 13C4.55228 13 5 12.5523 5 12ZM11 12C11 12.5523 11.4477 13 12 13C12.5523 13 13 12.5523 13 12C13 11.4477 12.5523 11 12 11C11.4477 11 11 11.4477 11 12ZM20 13C19.4477 13 19 12.5523 19 12C19 11.4477 19.4477 11 20 11C20.5523 11 21 11.4477 21 12C21 12.5523 20.5523 13 20 13ZM12 19C11.4477 19 11 19.4477 11 20C11 20.5523 11.4477 21 12 21C12.5523 21 13 20.5523 13 20C13 19.4477 12.5523 19 12 19Z" fill="#6E778C"/>
</svg>
