<svg width="24" height="24" viewBox="0 0 24 24" fill="none" xmlns="http://www.w3.org/2000/svg">
<path fill-rule="evenodd" clip-rule="evenodd" d="M13.586 5C14.3671 4.21895 15.6334 4.21895 16.4144 5L19.0002 7.58579C19.7813 8.36684 19.7813 9.63317 19.0002 10.4142L16.7073 12.7071L10.4554 18.9591C10.1342 19.2802 9.71339 19.4825 9.26202 19.5326L6.35301 19.8558C5.07918 19.9974 4.00284 18.921 4.14438 17.6472L4.4676 14.7382C4.51776 14.2868 4.72003 13.866 5.04116 13.5449L11.2931 7.2929L11.2932 7.29285L13.586 5ZM17.586 9L16.0002 10.5858L13.4144 8L15.0002 6.41422L17.586 9ZM14.586 12L12.0002 9.41422L6.45537 14.9591L6.13215 17.8681L9.04116 17.5449L14.586 12ZM20.0002 18.9194C20.0002 19.7579 19.0303 20.2241 18.3755 19.7002L15.9763 17.7809C15.4759 17.3805 15.4759 16.6195 15.9763 16.2191L18.3755 14.2998C19.0303 13.7759 20.0002 14.2421 20.0002 15.0806V18.9194Z" fill="#6E778C"/>
</svg>
