<svg width="24" height="24" viewBox="0 0 24 24" fill="none" xmlns="http://www.w3.org/2000/svg">
<path fill-rule="evenodd" clip-rule="evenodd" d="M9.12566 3.67125C8.96864 2.72913 8.13002 1.95168 7.07461 2.03507C5.69857 2.14379 4.41584 2.52101 3.46741 3.36066C2.48677 4.22883 2 5.46873 2 7.00004C2 9.75204 2.66624 12.2966 3.868 14.4819C4.13413 14.9658 4.74218 15.1424 5.22611 14.8763C5.71005 14.6101 5.88661 14.0021 5.62048 13.5182C4.58613 11.6373 4 9.42566 4 7.00004C4 5.91433 4.32804 5.2699 4.79315 4.85813C5.27979 4.4273 6.05047 4.13241 7.15869 4.03498L7.89219 8.43616L7.27028 8.74711C6.46432 9.15009 5.91345 10.1485 6.33918 11.1497C6.53597 11.6125 6.78974 12.0794 7.07955 12.5359C7.37551 13.0022 7.99344 13.1403 8.45973 12.8443C8.92601 12.5484 9.06408 11.9304 8.76811 11.4641C8.55492 11.1283 8.37662 10.804 8.23794 10.4993L8.78662 10.225C9.57193 9.83236 10.0093 8.97343 9.86498 8.10737L9.12566 3.67125ZM16.0751 14.1655C15.0291 13.9911 14.1073 14.6532 13.7886 15.5465C13.738 15.6885 13.6868 15.8176 13.638 15.9265C13.5565 15.8996 13.4634 15.864 13.3585 15.8173C13.0468 15.6784 12.6842 15.4661 12.289 15.1852C11.8389 14.8652 11.2146 14.9708 10.8946 15.4209C10.5746 15.8711 10.6802 16.4954 11.1303 16.8154C11.6003 17.1494 12.0794 17.437 12.5448 17.6442C12.9994 17.8467 13.5015 18 14 18C14.4359 18 14.7391 17.7689 14.8899 17.6257C15.0514 17.4721 15.1713 17.2941 15.2564 17.1495C15.4296 16.8553 15.5698 16.5058 15.6723 16.2186C15.6846 16.1842 15.7072 16.1592 15.7277 16.1462C15.737 16.1404 15.7431 16.1387 15.7449 16.1383L15.7458 16.1382L15.7462 16.1382L19.9513 16.8393C19.8245 17.8895 19.4625 18.6729 18.9816 19.1851C18.4999 19.6983 17.8448 20 17 20C14.3955 20 12.0373 19.3243 10.07 18.1428C9.59658 17.8584 8.98225 18.0117 8.6979 18.4852C8.41355 18.9586 8.56685 19.573 9.0403 19.8573C11.3285 21.2316 14.0444 22 17 22C18.3735 22 19.5641 21.4868 20.4398 20.554C21.3015 19.6361 21.8015 18.3753 21.9513 16.9508C22.0648 15.8718 21.2637 15.0304 20.3289 14.8746L16.0751 14.1655ZM19.7071 5.70714C20.0976 5.31662 20.0976 4.68345 19.7071 4.29293C19.3166 3.9024 18.6834 3.9024 18.2929 4.29293L4.29289 18.2929C3.90237 18.6835 3.90237 19.3166 4.29289 19.7071C4.68342 20.0977 5.31658 20.0977 5.70711 19.7071L19.7071 5.70714Z" fill="#6E778C"/>
</svg>
