<svg width="24" height="24" viewBox="0 0 24 24" fill="none" xmlns="http://www.w3.org/2000/svg">
<path fill-rule="evenodd" clip-rule="evenodd" d="M4.70711 3.29289C4.31658 2.90237 3.68342 2.90237 3.29289 3.29289C2.90237 3.68342 2.90237 4.31658 3.29289 4.70711L19.2929 20.7071C19.6834 21.0976 20.3166 21.0976 20.7071 20.7071C21.0976 20.3166 21.0976 19.6834 20.7071 19.2929L4.70711 3.29289ZM4 8C4 7.44771 3.55228 7 3 7C2.44772 7 2 7.44771 2 8V9V15V16C2 16.5523 2.44772 17 3 17C3.55228 17 4 16.5523 4 16H10C10.5523 16 11 15.5523 11 15C11 14.4477 10.5523 14 10 14H4V10H4.92857C5.48086 10 5.92857 9.55228 5.92857 9C5.92857 8.44771 5.48086 8 4.92857 8H4ZM22 8C22 7.44771 21.5523 7 21 7C20.4477 7 20 7.44771 20 8H14C13.4477 8 13 8.44771 13 9C13 9.55228 13.4477 10 14 10H20V14H19.0714C18.5191 14 18.0714 14.4477 18.0714 15C18.0714 15.5523 18.5191 16 19.0714 16H20C20 16.5523 20.4477 17 21 17C21.5523 17 22 16.5523 22 16V15V9V8Z" fill="#6E778C"/>
</svg>
