<svg width="24" height="24" viewBox="0 0 24 24" fill="none" xmlns="http://www.w3.org/2000/svg">
<path fill-rule="evenodd" clip-rule="evenodd" d="M19 2C17.8954 2 17 2.89543 17 4V8H14V6C14 4.89543 13.1046 4 12 4H3C1.89543 4 1 4.89543 1 6V9V13V16C1 17.1046 1.89543 18 3 18H5V20H2C1.44772 20 1 20.4477 1 21C1 21.5523 1.44772 22 2 22H6H9H15C15.5523 22 16 21.5523 16 21C16 20.4477 15.5523 20 15 20H10V18H12C13.1046 18 14 17.1046 14 16V14H17V15C17 15.5523 17.4477 16 18 16C18.5523 16 19 15.5523 19 15V13V9V4L21 4V15C21 15.5523 21.4477 16 22 16C22.5523 16 23 15.5523 23 15V4C23 2.89543 22.1046 2 21 2H19ZM7 20V18H8V20H7ZM9 16H6H3V14H12V16H9ZM3 12H12V10H3V12ZM17 12H14V10H17V12ZM12 8V6L3 6V8H12ZM18.0806 18H21.9194C22.7579 18 23.2241 18.9699 22.7002 19.6247L20.7809 22.0239C20.3805 22.5243 19.6195 22.5243 19.2191 22.0239L17.2998 19.6247C16.7759 18.9699 17.2421 18 18.0806 18Z" fill="#6E778C"/>
</svg>
