<svg width="24" height="24" viewBox="0 0 24 24" fill="none" xmlns="http://www.w3.org/2000/svg">
<path fill-rule="evenodd" clip-rule="evenodd" d="M12.2 6.39954C10.8815 5.41069 9 6.35145 9 7.99954V15.9995C9 17.6476 10.8815 18.5884 12.2 17.5995L17.5333 13.5995C18.6 12.7995 18.6 11.1995 17.5333 10.3995L12.2 6.39954ZM11 7.99954L16.3333 11.9995L11 15.9995V7.99954ZM7 7.0041C7 6.45181 6.55228 6.0041 6 6.0041C5.44772 6.0041 5 6.45181 5 7.0041V17.0041C5 17.5564 5.44772 18.0041 6 18.0041C6.55228 18.0041 7 17.5564 7 17.0041V7.0041Z" fill="#6E778C"/>
</svg>
