<svg width="24" height="24" viewBox="0 0 24 24" fill="none" xmlns="http://www.w3.org/2000/svg">
<path fill-rule="evenodd" clip-rule="evenodd" d="M13.029 2.45115C12.3956 2.07114 11.6044 2.07113 10.971 2.45113L6.97104 4.85101C6.37448 5.20893 5.98262 5.87041 6.01198 6.6072C6.24792 12.5278 9.88044 15.0152 11.1692 15.7072C11.6909 15.9873 12.3091 15.9873 12.8308 15.7072C14.1196 15.0152 17.752 12.5277 17.9878 6.60714C18.0171 5.87038 17.6253 5.20895 17.0288 4.85103L13.029 2.45115ZM12 13.8814C10.9679 13.295 8.21266 11.3068 8.01169 6.55901L12 4.16614L15.9881 6.559C15.7873 11.3068 13.0321 13.295 12 13.8814ZM13 18C13 18.5522 12.5523 19 12 19C11.4477 19 11 18.5522 11 18C11 17.4477 11.4477 17 12 17C12.5523 17 13 17.4477 13 18ZM2 21C2 20.4477 2.44772 20 3 20H21C21.5523 20 22 20.4477 22 21C22 21.5522 21.5523 22 21 22H3C2.44772 22 2 21.5522 2 21Z" fill="#6E778C"/>
</svg>
