<svg width="24" height="24" viewBox="0 0 24 24" fill="none" xmlns="http://www.w3.org/2000/svg">
<path fill-rule="evenodd" clip-rule="evenodd" d="M4.70711 3.29289C4.31658 2.90237 3.68342 2.90237 3.29289 3.29289C2.90237 3.68342 2.90237 4.31658 3.29289 4.70711L19.2929 20.7071C19.6834 21.0976 20.3166 21.0976 20.7071 20.7071C21.0976 20.3166 21.0976 19.6834 20.7071 19.2929L4.70711 3.29289ZM21 15V4C21 3.44772 20.5523 3 20 3C19.4477 3 19 3.44772 19 4V15C19 15.5523 19.4477 16 20 16C20.5523 16 21 15.5523 21 15ZM16 7C16 6.44772 15.5523 6 15 6C14.4477 6 14 6.44772 14 7V11C14 11.5523 14.4477 12 15 12C15.5523 12 16 11.5523 16 11V7ZM15 18C15.5523 18 16 18.4477 16 19V20C16 20.5523 15.5523 21 15 21C14.4477 21 14 20.5523 14 20V19C14 18.4477 14.4477 18 15 18ZM11 14C11 13.4477 10.5523 13 10 13C9.44772 13 9 13.4477 9 14L9 20C9 20.5523 9.44772 21 10 21C10.5523 21 11 20.5523 11 20V14ZM5 12C5.55228 12 6 12.4477 6 13L6 20C6 20.5523 5.55229 21 5 21C4.44772 21 4 20.5523 4 20L4 13C4 12.4477 4.44772 12 5 12Z" fill="#6E778C"/>
</svg>
