<svg width="24" height="24" viewBox="0 0 24 24" fill="none" xmlns="http://www.w3.org/2000/svg">
<path fill-rule="evenodd" clip-rule="evenodd" d="M12.0145 1.64251C12.4881 1.92665 12.6416 2.54091 12.3575 3.01449L10.9929 5.28886L12 7.01536L14.6362 2.49613C14.9145 2.01908 15.5268 1.85794 16.0039 2.13622C16.4809 2.4145 16.6421 3.02682 16.3638 3.50387L13.741 8H15.4338L16.6425 5.9855C16.9267 5.51192 17.5409 5.35836 18.0145 5.64251C18.4881 5.92665 18.6416 6.54091 18.3575 7.01449L17.7662 8H19C19.5523 8 20 8.44771 20 9C20 9.55228 19.5523 10 19 10H17.7662L18.3575 10.9855C18.6416 11.4591 18.4881 12.0733 18.0145 12.3575C17.5409 12.6416 16.9267 12.4881 16.6425 12.0145L15.4338 10H13.741L16.3638 14.4961C16.6421 14.9732 16.4809 15.5855 16.0039 15.8638C15.5268 16.1421 14.9145 15.9809 14.6362 15.5039L12 10.9846L11.0106 12.6808L12.3 14.4C12.6314 14.8418 12.5418 15.4686 12.1 15.8C11.6582 16.1314 11.0314 16.0418 10.7 15.6L9.91683 14.5558L9.36378 15.5039C9.0855 15.9809 8.47318 16.1421 7.99613 15.8638C7.51908 15.5855 7.35794 14.9732 7.63622 14.4961L8.2173 13.5H7C6.44772 13.5 6 13.0523 6 12.5C6 11.9477 6.44772 11.5 7 11.5L9.38396 11.5L10.259 10L5 10C4.44772 10 4 9.55228 4 9C4 8.44771 4.44772 8 5 8L10.259 8L9.16759 6.12907L6.64142 6.48995C6.09469 6.56805 5.58816 6.18815 5.51005 5.64142C5.43195 5.09469 5.81184 4.58815 6.35858 4.51005L8.07973 4.26417L7.63622 3.50387C7.35794 3.02682 7.51908 2.4145 7.99613 2.13622C8.47318 1.85794 9.0855 2.01908 9.36378 2.49613L9.84311 3.31783L10.6425 1.9855C10.9267 1.51192 11.5409 1.35836 12.0145 1.64251ZM4 17C4 16.4477 3.55228 16 3 16C2.44772 16 2 16.4477 2 17L2 20C2 21.1046 2.89543 22 4 22L20 22C21.1046 22 22 21.1046 22 20V17C22 16.4477 21.5523 16 21 16C20.4477 16 20 16.4477 20 17V20L4 20V17Z" fill="#6E778C"/>
</svg>
