<svg width="24" height="24" viewBox="0 0 24 24" fill="none" xmlns="http://www.w3.org/2000/svg">
<path fill-rule="evenodd" clip-rule="evenodd" d="M4 2C2.89543 2 2 2.89543 2 4V20C2 21.1046 2.89543 22 4 22H20C21.1046 22 22 21.1046 22 20V4C22 2.89543 21.1046 2 20 2H4ZM4 4L20 4V20H4V4ZM8.94868 8.68377C8.77404 8.15983 8.20772 7.87667 7.68377 8.05132C7.15983 8.22596 6.87667 8.79228 7.05132 9.31623L9.05132 15.3162C9.17209 15.6786 9.48871 15.9405 9.86727 15.9912C10.2458 16.0418 10.6202 15.8725 10.8321 15.5547L12 13.8028L13.1679 15.5547C13.3798 15.8725 13.7542 16.0418 14.1327 15.9912C14.5113 15.9405 14.8279 15.6786 14.9487 15.3162L16.9487 9.31623C17.1233 8.79228 16.8402 8.22596 16.3162 8.05132C15.7923 7.87667 15.226 8.15983 15.0513 8.68377L13.6979 12.7441L12.8321 11.4453C12.6466 11.1671 12.3344 11 12 11C11.6656 11 11.3534 11.1671 11.1679 11.4453L10.3021 12.7441L8.94868 8.68377Z" fill="#6E778C"/>
</svg>
