<svg width="24" height="24" viewBox="0 0 24 24" fill="none" xmlns="http://www.w3.org/2000/svg">
<path fill-rule="evenodd" clip-rule="evenodd" d="M4 3C3.44772 3 3 3.44772 3 4V10C3 10.5523 3.44772 11 4 11H10C10.5523 11 11 10.5523 11 10V4C11 3.44772 10.5523 3 10 3H4ZM17.8944 13.5528C17.725 13.214 17.3788 13 17 13C16.6212 13 16.275 13.214 16.1056 13.5528L13.1056 19.5528C12.9506 19.8628 12.9671 20.2309 13.1493 20.5257C13.3316 20.8205 13.6534 21 14 21H20C20.3466 21 20.6684 20.8205 20.8507 20.5257C21.0329 20.2309 21.0494 19.8628 20.8944 19.5528L17.8944 13.5528ZM13 7C13 4.79086 14.7909 3 17 3C19.2091 3 21 4.79086 21 7C21 9.20914 19.2091 11 17 11C14.7909 11 13 9.20914 13 7ZM10.7071 14.7071C11.0976 14.3166 11.0976 13.6834 10.7071 13.2929C10.3166 12.9024 9.68342 12.9024 9.29289 13.2929L7 15.5858L4.70711 13.2929C4.31658 12.9024 3.68342 12.9024 3.29289 13.2929C2.90237 13.6834 2.90237 14.3166 3.29289 14.7071L5.58579 17L3.29289 19.2929C2.90237 19.6834 2.90237 20.3166 3.29289 20.7071C3.68342 21.0976 4.31658 21.0976 4.70711 20.7071L7 18.4142L9.29289 20.7071C9.68342 21.0976 10.3166 21.0976 10.7071 20.7071C11.0976 20.3166 11.0976 19.6834 10.7071 19.2929L8.41421 17L10.7071 14.7071Z" fill="#6E778C"/>
</svg>
