<svg width="24" height="24" viewBox="0 0 24 24" fill="none" xmlns="http://www.w3.org/2000/svg">
<path fill-rule="evenodd" clip-rule="evenodd" d="M7.5 3C4.46243 3 2 5.46243 2 8.5C2 10.2208 2.79026 11.757 4.02765 12.7655C4.00958 12.8407 4 12.9192 4 13V15H3C2.44772 15 2 15.4477 2 16C2 16.5523 2.44772 17 3 17H3.17071C3.06015 17.3128 3 17.6494 3 18C3 19.6569 4.34315 21 6 21C7.65685 21 9 19.6569 9 18C9 17.6494 8.93985 17.3128 8.82929 17H15.1707C15.0602 17.3128 15 17.6494 15 18C15 19.6569 16.3431 21 18 21C19.6569 21 21 19.6569 21 18C21 17.6494 20.9398 17.3128 20.8293 17H21C21.5523 17 22 16.5523 22 16C22 15.4477 21.5523 15 21 15H20V13C20 12.9192 19.9904 12.8407 19.9724 12.7655C21.2097 11.757 22 10.2208 22 8.5C22 5.46243 19.5376 3 16.5 3H7.5ZM6 15H18V13.793C17.5232 13.9278 17.02 14 16.5 14H7.5C6.97999 14 6.47683 13.9278 6 13.793V15ZM16.5 5C18.433 5 20 6.567 20 8.5C20 10.433 18.433 12 16.5 12H7.5C5.567 12 4 10.433 4 8.5C4 6.567 5.567 5 7.5 5H16.5ZM5 18C5 17.4477 5.44772 17 6 17C6.55228 17 7 17.4477 7 18C7 18.5523 6.55228 19 6 19C5.44772 19 5 18.5523 5 18ZM18 17C17.4477 17 17 17.4477 17 18C17 18.5523 17.4477 19 18 19C18.5523 19 19 18.5523 19 18C19 17.4477 18.5523 17 18 17Z" fill="#6E778C"/>
</svg>
