<svg width="24" height="24" viewBox="0 0 24 24" fill="none" xmlns="http://www.w3.org/2000/svg">
<path fill-rule="evenodd" clip-rule="evenodd" d="M20.9444 1.3715C20.3545 1.05545 19.6455 1.05545 19.0556 1.3715L18.0556 1.90721C17.4328 2.24084 16.9361 2.94881 17.0472 3.79875C17.2614 5.43807 18.1525 6.60177 18.7504 7.21964C19.4406 7.93281 20.5594 7.93281 21.2496 7.21964C21.8475 6.60177 22.7386 5.43807 22.9528 3.79875C23.0639 2.94881 22.5672 2.24084 21.9444 1.90721L20.9444 1.3715ZM20 5.62298C19.613 5.17239 19.1839 4.50025 19.0458 3.64564L20 3.13446L20.9542 3.64564C20.8161 4.50025 20.387 5.17239 20 5.62298ZM8 5C6.89543 5 6 5.89544 6 7C6 8.10457 6.89543 9 8 9C9.10457 9 10 8.10457 10 7C10 5.89544 9.10457 5 8 5ZM4 7C4 4.79087 5.79086 3 8 3C10.2091 3 12 4.79087 12 7C12 9.20914 10.2091 11 8 11C5.79086 11 4 9.20914 4 7ZM15 9C14.4477 9 14 9.44772 14 10C14 10.5523 14.4477 11 15 11C15.5523 11 16 10.5523 16 10C16 9.44772 15.5523 9 15 9ZM12 10C12 8.34315 13.3431 7 15 7C16.6569 7 18 8.34315 18 10C18 11.6569 16.6569 13 15 13C13.3431 13 12 11.6569 12 10ZM3 20C3 17.2386 5.23858 15 8 15C10.7614 15 13 17.2386 13 20C13 20.5523 13.4477 21 14 21C14.5523 21 15 20.5523 15 20C15 18.5109 14.535 17.1303 13.7423 15.9957C14.4045 15.9223 14.9867 16.0657 15.4696 16.3214C16.2862 16.7537 16.85 17.5234 17.0299 18.2427C17.1638 18.7785 17.7067 19.1043 18.2425 18.9703C18.7783 18.8364 19.1041 18.2935 18.9701 17.7577C18.65 16.4768 17.7138 15.2464 16.4054 14.5538C15.2041 13.9179 13.7105 13.7463 12.1333 14.35C10.975 13.5012 9.54604 13 8 13C4.13401 13 1 16.134 1 20C1 20.5523 1.44772 21 2 21C2.55228 21 3 20.5523 3 20Z" fill="#6E778C"/>
</svg>
