<svg width="24" height="24" viewBox="0 0 24 24" fill="none" xmlns="http://www.w3.org/2000/svg">
<path fill-rule="evenodd" clip-rule="evenodd" d="M3 1C1.89543 1 1 1.89543 1 3V5C1 6.10457 1.89543 7 3 7H3.15287L4.82086 17.0079C3.80022 17.0985 3 17.9558 3 19V21C3 22.1046 3.89543 23 5 23H7C8.10457 23 9 22.1046 9 21H17C17 22.1046 17.8954 23 19 23H21C22.1046 23 23 22.1046 23 21V19C23 17.8954 22.1046 17 21 17V9C22.1046 9 23 8.10457 23 7V5C23 3.89543 22.1046 3 21 3H19C17.8954 3 17 3.89543 17 5V6.5L13.5605 9.07961C13.3827 9.02779 13.1946 9 13 9H11C10.8208 9 10.6472 9.02356 10.482 9.06774L6.93226 5.51804C6.97644 5.35282 7 5.17916 7 5V3C7 1.89543 6.10457 1 5 1H3ZM14.9468 10.5399C14.9816 10.6876 15 10.8417 15 11V13C15 14.1046 14.1046 15 13 15H11C9.89543 15 9 14.1046 9 13V11C9 10.8208 9.02356 10.6472 9.06774 10.482L5.51804 6.93226C5.4085 6.96155 5.29525 6.98178 5.17914 6.99209L6.84713 17H7C8.10457 17 9 17.8954 9 19H17C17 17.8954 17.8954 17 19 17V9C18.4905 9 18.0255 8.80947 17.6723 8.49577L14.9468 10.5399ZM19.0001 7H20H21V5H19V6.98838C19 6.99225 19.0001 6.99613 19.0001 7ZM7 19V20V21H5V19H5.98118C5.99289 19.0002 6.00464 19.0002 6.01642 19H7ZM19 21V20V19H20H21V21H19ZM3.98356 5C3.99535 4.99979 4.00711 4.99979 4.01884 5H5V3H3V5H3.98356ZM13 11H11V13H13V11Z" fill="#6E778C"/>
</svg>
