<svg width="24" height="24" viewBox="0 0 24 24" fill="none" xmlns="http://www.w3.org/2000/svg">
<path fill-rule="evenodd" clip-rule="evenodd" d="M9 3C9 1.89543 9.89543 1 11 1H13C14.1046 1 15 1.89543 15 3V3.51232C17.5578 4.41634 19.5836 6.4422 20.4876 9H21C22.1046 9 23 9.89543 23 11V13C23 14.1046 22.1046 15 21 15H20.4876C19.5835 17.5577 17.5577 19.5835 15 20.4875V21C15 22.1046 14.1046 23 13 23H11C9.89543 23 9 22.1046 9 21V20.4875C6.44226 19.5835 4.41644 17.5577 3.51242 15H3C1.89543 15 1 14.1046 1 13V11C1 9.89543 1.89543 9 3 9H3.51236C4.41636 6.44219 6.4422 4.41633 9 3.51231V3ZM4.23483 11C4.24679 11.0002 4.25873 11.0002 4.27063 11H5V13H4.278C4.26121 12.9996 4.24436 12.9996 4.22746 13H3V11H4.23483ZM5.6268 14.8998C6.42435 14.6368 7 13.8856 7 13V11C7 10.1143 6.42432 9.36313 5.62673 9.10017C6.32645 7.56516 7.56516 6.32644 9.10015 5.6267C9.36311 6.4243 10.1143 7 11 7H13C13.8857 7 14.6369 6.4243 14.8998 5.6267C16.4348 6.32644 17.6735 7.56516 18.3733 9.10017C17.5757 9.36314 17 10.1143 17 11V13C17 13.8856 17.5756 14.6368 18.3732 14.8998C17.6735 16.4348 16.4348 17.6734 14.8998 18.3732C14.6368 17.5756 13.8856 17 13 17H11C10.1144 17 9.3632 17.5756 9.1002 18.3732C7.56523 17.6735 6.32653 16.4348 5.6268 14.8998ZM13 3V4.23024C12.9997 4.24523 12.9997 4.26017 13 4.27506V5H11V4.27455C11.0003 4.26 11.0003 4.2454 11 4.23076V3H13ZM13 19.725V19H11V19.7256C11.0003 19.7399 11.0003 19.7543 11 19.7688V21H13V19.7693C12.9997 19.7545 12.9997 19.7398 13 19.725ZM19.7651 11C19.7532 11.0002 19.7413 11.0002 19.7294 11H19V13H19.722C19.7388 12.9996 19.7556 12.9996 19.7725 13H21V11H19.7651Z" fill="#6E778C"/>
</svg>
