<svg width="24" height="24" viewBox="0 0 24 24" fill="none" xmlns="http://www.w3.org/2000/svg">
<path fill-rule="evenodd" clip-rule="evenodd" d="M12.8375 4.31572C14.1613 3.3702 16 4.31644 16 5.94319V18.2768C16 19.8125 14.341 20.7752 13.0077 20.0133L7.73444 17H4C2.89543 17 2 16.1046 2 15V10C2 8.89543 2.89543 8 4 8H7.67953L12.8375 4.31572ZM14 5.94319L8.84201 9.62747C8.50281 9.86975 8.09638 10 7.67953 10H4V15H7.73444C8.08249 15 8.42452 15.0908 8.72671 15.2635L14 18.2768V5.94319ZM18.2929 10.2929C18.6834 9.90237 19.3166 9.90237 19.7071 10.2929L20.5 11.0858L21.2929 10.2929C21.6834 9.90237 22.3166 9.90237 22.7071 10.2929C23.0976 10.6834 23.0976 11.3166 22.7071 11.7071L21.9142 12.5L22.7071 13.2929C23.0976 13.6834 23.0976 14.3166 22.7071 14.7071C22.3166 15.0976 21.6834 15.0976 21.2929 14.7071L20.5 13.9142L19.7071 14.7071C19.3166 15.0976 18.6834 15.0976 18.2929 14.7071C17.9024 14.3166 17.9024 13.6834 18.2929 13.2929L19.0858 12.5L18.2929 11.7071C17.9024 11.3166 17.9024 10.6834 18.2929 10.2929Z" fill="#6E778C"/>
</svg>
