<svg width="24" height="24" viewBox="0 0 24 24" fill="none" xmlns="http://www.w3.org/2000/svg">
<path fill-rule="evenodd" clip-rule="evenodd" d="M4.70711 3.29289C4.31658 2.90237 3.68342 2.90237 3.29289 3.29289C2.90237 3.68342 2.90237 4.31658 3.29289 4.70711L18.2929 19.7071C18.6834 20.0976 19.3166 20.0976 19.7071 19.7071C20.0976 19.3166 20.0976 18.6834 19.7071 18.2929L4.70711 3.29289ZM21.1925 9.80761C18.1809 6.79603 14.0601 5.5702 10.1421 6.13261C9.59541 6.21109 9.08862 5.83153 9.01015 5.28485C8.93167 4.73817 9.31123 4.23138 9.85791 4.15291C14.3726 3.50483 19.1308 4.9175 22.6067 8.3934C22.9972 8.78392 22.9972 9.41709 22.6067 9.80761C22.2162 10.1981 21.583 10.1981 21.1925 9.80761ZM4.1225 7.38033C4.46473 7.8138 4.39077 8.44263 3.9573 8.78487C3.55947 9.09896 3.17546 9.43984 2.80769 9.80761C2.41717 10.1981 1.784 10.1981 1.39348 9.80761C1.00295 9.41709 1.00295 8.78392 1.39348 8.3934C1.81658 7.9703 2.25899 7.57751 2.71797 7.21513C3.15144 6.8729 3.78027 6.94686 4.1225 7.38033ZM14.2213 9.24842C13.6827 9.12621 13.147 9.46376 13.0248 10.0024C12.9026 10.541 13.2401 11.0766 13.7787 11.1988C15.1994 11.5212 16.5488 12.235 17.6568 13.3429C18.0473 13.7335 18.6805 13.7335 19.071 13.3429C19.4615 12.9524 19.4615 12.3192 19.071 11.9287C17.6885 10.5462 15.9991 9.65181 14.2213 9.24842ZM7.55634 12.3453C8.01526 12.0381 8.13821 11.417 7.83096 10.958C7.5237 10.4991 6.90259 10.3762 6.44366 10.6834C5.9083 11.0419 5.40051 11.4571 4.92888 11.9287C4.53836 12.3192 4.53836 12.9524 4.92888 13.3429C5.3194 13.7335 5.95257 13.7335 6.34309 13.3429C6.72202 12.964 7.12873 12.6316 7.55634 12.3453ZM11.9685 14.8769C12.106 15.4118 11.7839 15.9569 11.2491 16.0945C10.7477 16.2234 10.2733 16.4837 9.87874 16.8783C9.48821 17.2688 8.85505 17.2688 8.46452 16.8783C8.074 16.4878 8.074 15.8546 8.46452 15.4641C9.11902 14.8096 9.91249 14.3731 10.7509 14.1575C11.2858 14.0199 11.8309 14.342 11.9685 14.8769ZM13 19C13 19.5523 12.5523 20 12 20C11.4477 20 11 19.5523 11 19C11 18.4477 11.4477 18 12 18C12.5523 18 13 18.4477 13 19Z" fill="#6E778C"/>
</svg>
