<svg width="24" height="24" viewBox="0 0 24 24" fill="none" xmlns="http://www.w3.org/2000/svg">
<path fill-rule="evenodd" clip-rule="evenodd" d="M4 5H20C20.5523 5 21 5.44772 21 6C21 6.55228 20.5523 7 20 7H4C3.44772 7 3 6.55228 3 6C3 5.44772 3.44772 5 4 5Z" fill="#777B92"/>
<path fill-rule="evenodd" clip-rule="evenodd" d="M12 9H20C20.5523 9 21 9.44772 21 10C21 10.5523 20.5523 11 20 11H12C11.4477 11 11 10.5523 11 10C11 9.44772 11.4477 9 12 9Z" fill="#777B92"/>
<path fill-rule="evenodd" clip-rule="evenodd" d="M11 14C11 13.4477 11.4477 13 12 13H20C20.5523 13 21 13.4477 21 14C21 14.5523 20.5523 15 20 15H12C11.4477 15 11 14.5523 11 14Z" fill="#777B92"/>
<path fill-rule="evenodd" clip-rule="evenodd" d="M4 17H20C20.5523 17 21 17.4477 21 18C21 18.5523 20.5523 19 20 19H4C3.44772 19 3 18.5523 3 18C3 17.4477 3.44772 17 4 17Z" fill="#777B92"/>
</svg>
