<svg width="24" height="24" viewBox="0 0 24 24" fill="none" xmlns="http://www.w3.org/2000/svg">
<path fill-rule="evenodd" clip-rule="evenodd" d="M2 6C2 5.44772 2.44772 5 3 5H4C4.55228 5 5 5.44772 5 6V10C5 10.5523 4.55228 11 4 11C3.44772 11 3 10.5523 3 10V7C2.44772 7 2 6.55228 2 6Z" fill="#777B92"/>
<path fill-rule="evenodd" clip-rule="evenodd" d="M9 7H21C21.5523 7 22 7.44772 22 8C22 8.55228 21.5523 9 21 9H9C8.44772 9 8 8.55228 8 8C8 7.44772 8.44772 7 9 7Z" fill="#777B92"/>
<path fill-rule="evenodd" clip-rule="evenodd" d="M9 15H21C21.5523 15 22 15.4477 22 16C22 16.5523 21.5523 17 21 17H9C8.44772 17 8 16.5523 8 16C8 15.4477 8.44772 15 9 15Z" fill="#777B92"/>
<path fill-rule="evenodd" clip-rule="evenodd" d="M3.00001 13H6.00001C6.37878 13 6.72504 13.214 6.89443 13.5528C7.06383 13.8916 7.02727 14.297 6.80001 14.6L5.00001 17H6.00001C6.55229 17 7.00001 17.4477 7.00001 18C7.00001 18.5523 6.55229 19 6.00001 19H3.00001C2.62123 19 2.27497 18.786 2.10558 18.4472C1.93619 18.1084 1.97274 17.703 2.20001 17.4L4.00001 15H3.00001C2.44772 15 2.00001 14.5523 2.00001 14C2.00001 13.4477 2.44772 13 3.00001 13Z" fill="#777B92"/>
</svg>
