<svg width="24" height="24" viewBox="0 0 24 24" fill="none" xmlns="http://www.w3.org/2000/svg">
<path fill-rule="evenodd" clip-rule="evenodd" d="M13 4V20C13.5523 20 14 20.4477 14 21C14 21.5523 13.5523 22 13 22H12C11.8412 22 11.691 21.963 11.5577 21.8971C11.3506 21.9487 11.1273 21.9653 10.8919 21.9393C5.89004 21.3873 2 17.1487 2 12.0001C2 6.85157 5.89004 2.61295 10.8919 2.06092C11.1271 2.03496 11.3503 2.0516 11.5573 2.10309C11.6907 2.03709 11.841 2 12 2H13C13.5523 2 14 2.44772 14 3C14 3.55228 13.5523 4 13 4ZM4 12.0001C4 16.0795 7.05414 19.4469 11 19.9383V4.06193C7.05414 4.55339 4 7.92077 4 12.0001Z" fill="#777B92"/>
<path fill-rule="evenodd" clip-rule="evenodd" d="M17.5562 3.68472C18.6554 4.42047 19.6003 5.36823 20.3327 6.46981C20.6385 6.92972 20.5136 7.55043 20.0537 7.85622C19.5938 8.16201 18.973 8.03707 18.6672 7.57716C18.0808 6.69513 17.3238 5.93587 16.4437 5.34674C15.9848 5.03952 15.8618 4.41842 16.169 3.95947C16.4762 3.50052 17.0973 3.37751 17.5562 3.68472Z" fill="#777B92"/>
<path fill-rule="evenodd" clip-rule="evenodd" d="M21.7522 9.77881C21.9145 10.4942 22 11.2378 22 12.0002C22 12.7626 21.9145 13.5062 21.7522 14.2216C21.6299 14.7601 21.0942 15.0977 20.5557 14.9755C20.0171 14.8532 19.6795 14.3176 19.8017 13.779C19.9313 13.2078 20 12.6126 20 12.0002C20 11.3877 19.9313 10.7925 19.8017 10.2214C19.6795 9.68281 20.0171 9.14712 20.5557 9.0249C21.0942 8.90268 21.6299 9.24022 21.7522 9.77881Z" fill="#777B92"/>
<path fill-rule="evenodd" clip-rule="evenodd" d="M20.3155 17.5564C19.5855 18.6469 18.6468 19.5856 17.5562 20.3156C17.0973 20.6229 16.4762 20.4998 16.169 20.0409C15.8618 19.5819 15.9848 18.9608 16.4437 18.6536C17.317 18.0691 18.069 17.3171 18.6535 16.4439C18.9607 15.9849 19.5818 15.8619 20.0407 16.1691C20.4997 16.4763 20.6227 17.0974 20.3155 17.5564Z" fill="#777B92"/>
</svg>
