<svg width="24" height="24" viewBox="0 0 24 24" fill="none" xmlns="http://www.w3.org/2000/svg">
<path fill-rule="evenodd" clip-rule="evenodd" d="M15 3H19C20.1046 3 21 3.89543 21 5V19C21 20.1046 20.1046 21 19 21H15C13.8954 21 13 20.1046 13 19V5C13 3.89543 13.8954 3 15 3ZM15 5V19H19V5H15Z" fill="#777B92"/>
<path fill-rule="evenodd" clip-rule="evenodd" d="M8.70711 9.29289L10.7071 11.2929C10.8946 11.4804 11 11.7348 11 12C11 12.2652 10.8946 12.5196 10.7071 12.7071L8.70711 14.7071C8.31658 15.0976 7.68342 15.0976 7.29289 14.7071C6.90237 14.3166 6.90237 13.6834 7.29289 13.2929L7.58579 13H4C3.44772 13 3 12.5523 3 12C3 11.4477 3.44772 11 4 11H7.58579L7.29289 10.7071C6.90237 10.3166 6.90237 9.68342 7.29289 9.29289C7.68342 8.90237 8.31658 8.90237 8.70711 9.29289Z" fill="#777B92"/>
</svg>
