<svg width="24" height="24" viewBox="0 0 24 24" fill="none" xmlns="http://www.w3.org/2000/svg">
<path fill-rule="evenodd" clip-rule="evenodd" d="M5 8C5 8.55228 4.55228 9 4 9C3.44772 9 3 8.55228 3 8C3 7.44772 3.44772 7 4 7C4.55228 7 5 7.44772 5 8Z" fill="#777B92"/>
<path fill-rule="evenodd" clip-rule="evenodd" d="M8 7H20C20.5523 7 21 7.44772 21 8C21 8.55228 20.5523 9 20 9H8C7.44772 9 7 8.55228 7 8C7 7.44772 7.44772 7 8 7Z" fill="#777B92"/>
<path fill-rule="evenodd" clip-rule="evenodd" d="M8 15H20C20.5523 15 21 15.4477 21 16C21 16.5523 20.5523 17 20 17H8C7.44772 17 7 16.5523 7 16C7 15.4477 7.44772 15 8 15Z" fill="#777B92"/>
<path fill-rule="evenodd" clip-rule="evenodd" d="M4 17C3.44772 17 3 16.5523 3 16C3 15.4477 3.44772 15 4 15C4.55228 15 5 15.4477 5 16C5 16.5523 4.55228 17 4 17Z" fill="#777B92"/>
</svg>
