<svg width="24" height="24" viewBox="0 0 24 24" fill="none" xmlns="http://www.w3.org/2000/svg">
<path fill-rule="evenodd" clip-rule="evenodd" d="M4 3H20C20.5523 3 21 3.44772 21 4C21 4.55228 20.5523 5 20 5H4C3.44772 5 3 4.55228 3 4C3 3.44772 3.44772 3 4 3Z" fill="#777B92"/>
<path fill-rule="evenodd" clip-rule="evenodd" d="M10.118 15L9.8944 15.4472C9.64741 15.9412 9.04674 16.1414 8.55276 15.8944C8.05878 15.6474 7.85856 15.0468 8.10555 14.5528L11.1055 8.55279C11.2749 8.214 11.6212 8 12 8C12.3787 8 12.725 8.214 12.8944 8.55279L15.8944 14.5528C16.1414 15.0468 15.9412 15.6474 15.4472 15.8944C14.9532 16.1414 14.3525 15.9412 14.1055 15.4472L13.8819 15H10.118ZM11.118 13H12.8819L12 11.2361L11.118 13Z" fill="#777B92"/>
<path fill-rule="evenodd" clip-rule="evenodd" d="M3 20C3 19.4477 3.44772 19 4 19H20C20.5523 19 21 19.4477 21 20C21 20.5523 20.5523 21 20 21H4C3.44772 21 3 20.5523 3 20Z" fill="#777B92"/>
</svg>
