<svg width="24" height="24" viewBox="0 0 24 24" fill="none" xmlns="http://www.w3.org/2000/svg">
<path fill-rule="evenodd" clip-rule="evenodd" d="M17 3H19C20.1046 3 21 3.89543 21 5V13C21 14.1046 20.1046 15 19 15H17C15.8954 15 15 14.1046 15 13V5C15 3.89543 15.8954 3 17 3ZM17 5V13H19V5L17 5Z" fill="#777B92"/>
<path fill-rule="evenodd" clip-rule="evenodd" d="M8.70711 6.29289L10.7071 8.29289C10.8946 8.48043 11 8.73478 11 9C11 9.26522 10.8946 9.51957 10.7071 9.70711L8.70711 11.7071C8.31658 12.0976 7.68342 12.0976 7.29289 11.7071C6.90237 11.3166 6.90237 10.6834 7.29289 10.2929L7.58579 10H4C3.44772 10 3 9.55229 3 9C3 8.44772 3.44772 8 4 8H7.58579L7.29289 7.70711C6.90237 7.31658 6.90237 6.68342 7.29289 6.29289C7.68342 5.90237 8.31658 5.90237 8.70711 6.29289Z" fill="#777B92"/>
<path fill-rule="evenodd" clip-rule="evenodd" d="M12 17C11.4477 17 11 16.5523 11 16C11 15.4477 11.4477 15 12 15C12.5523 15 13 15.4477 13 16C13 16.5523 12.5523 17 12 17Z" fill="#777B92"/>
<path fill-rule="evenodd" clip-rule="evenodd" d="M13 20C13 20.5523 12.5523 21 12 21C11.4477 21 11 20.5523 11 20C11 19.4477 11.4477 19 12 19C12.5523 19 13 19.4477 13 20Z" fill="#777B92"/>
<path fill-rule="evenodd" clip-rule="evenodd" d="M8 17C7.44772 17 7 16.5523 7 16C7 15.4477 7.44772 15 8 15C8.55228 15 9 15.4477 9 16C9 16.5523 8.55228 17 8 17Z" fill="#777B92"/>
<path fill-rule="evenodd" clip-rule="evenodd" d="M9 20C9 20.5523 8.55228 21 8 21C7.44772 21 7 20.5523 7 20C7 19.4477 7.44772 19 8 19C8.55228 19 9 19.4477 9 20Z" fill="#777B92"/>
<path fill-rule="evenodd" clip-rule="evenodd" d="M4 17C3.44772 17 3 16.5523 3 16C3 15.4477 3.44772 15 4 15C4.55228 15 5 15.4477 5 16C5 16.5523 4.55228 17 4 17Z" fill="#777B92"/>
<path fill-rule="evenodd" clip-rule="evenodd" d="M5 20C5 20.5523 4.55228 21 4 21C3.44772 21 3 20.5523 3 20C3 19.4477 3.44772 19 4 19C4.55228 19 5 19.4477 5 20Z" fill="#777B92"/>
</svg>
