<svg width="24" height="24" viewBox="0 0 24 24" fill="none" xmlns="http://www.w3.org/2000/svg">
<path fill-rule="evenodd" clip-rule="evenodd" d="M10 12C10 12.5523 9.55228 13 9 13C8.44772 13 8 12.5523 8 12C8 11.4477 8.44772 11 9 11C9.55228 11 10 11.4477 10 12Z" fill="#777B92"/>
<path fill-rule="evenodd" clip-rule="evenodd" d="M9 16C8.44772 16 8 15.5523 8 15C8 14.4477 8.44772 14 9 14C9.55228 14 10 14.4477 10 15C10 15.5523 9.55228 16 9 16Z" fill="#777B92"/>
<path fill-rule="evenodd" clip-rule="evenodd" d="M13 12C13 12.5523 12.5523 13 12 13C11.4477 13 11 12.5523 11 12C11 11.4477 11.4477 11 12 11C12.5523 11 13 11.4477 13 12Z" fill="#777B92"/>
<path fill-rule="evenodd" clip-rule="evenodd" d="M12 16C11.4477 16 11 15.5523 11 15C11 14.4477 11.4477 14 12 14C12.5523 14 13 14.4477 13 15C13 15.5523 12.5523 16 12 16Z" fill="#777B92"/>
<path fill-rule="evenodd" clip-rule="evenodd" d="M16 12C16 12.5523 15.5523 13 15 13C14.4477 13 14 12.5523 14 12C14 11.4477 14.4477 11 15 11C15.5523 11 16 11.4477 16 12Z" fill="#777B92"/>
<path fill-rule="evenodd" clip-rule="evenodd" d="M15 16C14.4477 16 14 15.5523 14 15C14 14.4477 14.4477 14 15 14C15.5523 14 16 14.4477 16 15C16 15.5523 15.5523 16 15 16Z" fill="#777B92"/>
<path fill-rule="evenodd" clip-rule="evenodd" d="M2 5C2 3.89543 2.89543 3 4 3H8.58579C9.11622 3 9.62493 3.21071 10 3.58579L12.4142 6H20C21.1046 6 22 6.89543 22 8V18C22 19.1046 21.1046 20 20 20H4C2.89543 20 2 19.1046 2 18V5ZM8.58579 5H4V18H20V8H12.4142C11.8838 8 11.3751 7.78929 11 7.41421L8.58579 5Z" fill="#777B92"/>
</svg>
