<svg width="24" height="24" viewBox="0 0 24 24" fill="none" xmlns="http://www.w3.org/2000/svg">
<path fill-rule="evenodd" clip-rule="evenodd" d="M4 12C4 7.58172 7.58172 4 12 4C16.4183 4 20 7.58172 20 12C20 13.1046 19.1046 14 18 14C16.8954 14 16 13.1046 16 12V8C16 7.44772 15.5523 7 15 7C14.4478 7 14.0002 7.44752 14 7.99963C13.1643 7.37194 12.1256 7 11 7C8.23858 7 6 9.23858 6 12C6 14.7614 8.23858 17 11 17C12.7241 17 14.2443 16.1274 15.1432 14.7998C15.8692 15.5405 16.8809 16 18 16C20.2091 16 22 14.2091 22 12C22 6.47715 17.5228 2 12 2C6.47715 2 2 6.47715 2 12C2 17.5228 6.47715 22 12 22C14.5605 22 16.8984 21.0363 18.6669 19.4535C19.0784 19.0851 19.1135 18.4529 18.7451 18.0414C18.3768 17.6299 17.7446 17.5949 17.3331 17.9632C15.9171 19.2306 14.0496 20 12 20C7.58172 20 4 16.4183 4 12ZM14 12C14 10.3431 12.6569 9 11 9C9.34315 9 8 10.3431 8 12C8 13.6569 9.34315 15 11 15C12.6569 15 14 13.6569 14 12Z" fill="#777B92"/>
</svg>
