<svg width="24" height="24" viewBox="0 0 24 24" fill="none" xmlns="http://www.w3.org/2000/svg">
<path fill-rule="evenodd" clip-rule="evenodd" d="M6.99993 3C3.73192 3 0.999889 5.41169 1 8.97318C1.0001 12.4217 3.0151 14.9333 5.2386 16.768C6.35572 17.6897 7.55924 18.4695 8.65162 19.1348C9.06532 19.3868 9.45365 19.6171 9.81561 19.8317L9.81589 19.8318C10.4388 20.2012 10.9836 20.5242 11.4451 20.8319C11.781 21.0558 12.2186 21.0558 12.5545 20.8319C13.0159 20.5243 13.5606 20.2014 14.1833 19.8322L14.1834 19.8321C14.5456 19.6174 14.9342 19.387 15.3482 19.1348C16.4406 18.4695 17.6441 17.6897 18.7613 16.768C20.9848 14.9333 22.9997 12.4217 22.9998 8.97318C22.9999 5.41169 20.2679 3 16.9999 3C14.6961 3 13.0065 4.16998 11.9999 5.28401C10.9934 4.16993 9.30366 3 6.99993 3Z" fill="#777B92"/>
</svg>
