<svg width="24" height="24" viewBox="0 0 24 24" fill="none" xmlns="http://www.w3.org/2000/svg">
<path fill-rule="evenodd" clip-rule="evenodd" d="M8.61801 3C7.86046 3 7.16794 3.428 6.82915 4.10557L3.10555 11.5528C2.96573 11.8324 2.96922 12.1462 3.08819 12.4108C3.03085 12.597 2.99997 12.7949 2.99997 13V19C2.99997 20.1046 3.89541 21 4.99997 21H19C20.1045 21 21 20.1046 21 19V13C21 12.7949 20.9691 12.597 20.9118 12.4108C21.0307 12.1462 21.0342 11.8324 20.8944 11.5528L17.1708 4.10557C16.832 3.428 16.1395 3 15.3819 3H8.61801ZM18.3819 11L15.3819 5H8.61801L5.61801 11H6.99998C8.10454 11 8.99998 11.8954 8.99998 13V15H15V13C15 11.8954 15.8954 11 17 11H18.3819ZM4.99997 13H6.99998V15C6.99998 16.1046 7.89541 17 8.99998 17H15C16.1045 17 17 16.1046 17 15V13H19V19H4.99997V13Z" fill="#777B92"/>
</svg>
