<svg width="24" height="24" viewBox="0 0 24 24" fill="none" xmlns="http://www.w3.org/2000/svg">
<path fill-rule="evenodd" clip-rule="evenodd" d="M9.12566 3.67113C8.96864 2.72901 8.13002 1.95156 7.07461 2.03495C5.69857 2.14367 4.41584 2.52089 3.46741 3.36054C2.48677 4.22871 2 5.46861 2 6.99991C2 15.5603 8.43959 21.9999 17 21.9999C18.3735 21.9999 19.5641 21.4867 20.4398 20.5539C21.3015 19.636 21.8015 18.3751 21.9513 16.9507C22.0648 15.8717 21.2637 15.0303 20.3289 14.8745L16.0751 14.1653C15.0291 13.991 14.1073 14.6531 13.7886 15.5464C13.7379 15.6884 13.6868 15.8175 13.638 15.9264C13.4363 15.8598 13.1728 15.7422 12.8492 15.5509C12.2998 15.2262 11.681 14.7517 11.0635 14.1785C9.85978 13.0612 8.77317 11.6752 8.23793 10.4992L8.78662 10.2249C9.57193 9.83223 10.0093 8.97331 9.86498 8.10725L9.12566 3.67113ZM4.79315 4.85801C5.27979 4.42718 6.05047 4.13229 7.15869 4.03486L7.89219 8.43603L7.27028 8.74699C6.46551 9.14938 5.91276 10.1463 6.33877 11.1486C6.99785 12.6993 8.33139 14.3713 9.70294 15.6444C10.3959 16.2876 11.1287 16.8573 11.8316 17.2727C12.5042 17.6702 13.2707 17.9999 14 17.9999C14.4359 17.9999 14.7391 17.7688 14.8899 17.6255C15.0514 17.472 15.1713 17.294 15.2564 17.1494C15.4296 16.8552 15.5698 16.5057 15.6723 16.2185C15.6846 16.1841 15.7072 16.159 15.7277 16.1461C15.737 16.1402 15.7431 16.1386 15.7449 16.1382L15.7458 16.138L15.7462 16.1381L19.9513 16.8391C19.8245 17.8894 19.4625 18.6728 18.9816 19.185C18.4999 19.6982 17.8448 19.9999 17 19.9999C9.54416 19.9999 4 14.4558 4 6.99991C4 5.91421 4.32804 5.26978 4.79315 4.85801ZM16 5.06046C15.4477 5.06046 15 5.50818 15 6.06046C15 6.61274 15.4477 7.06046 16 7.06046H20C20.5523 7.06046 21 6.61274 21 6.06046C21 5.50818 20.5523 5.06046 20 5.06046H16Z" fill="#777B92"/>
</svg>
