<svg width="24" height="24" viewBox="0 0 24 24" fill="none" xmlns="http://www.w3.org/2000/svg">
<path fill-rule="evenodd" clip-rule="evenodd" d="M12.5528 3.10558C12.8916 2.93619 13.297 2.97274 13.6 3.20001L21.6 9.20001C21.8518 9.38886 22 9.68525 22 10C22 10.3148 21.8518 10.6112 21.6 10.8L13.6 16.8C13.297 17.0273 12.8916 17.0638 12.5528 16.8944C12.214 16.725 12 16.3788 12 16V13.9713C11.4835 14.0036 10.7787 14.1156 9.99639 14.4285C8.39903 15.0674 6.34401 16.5973 4.93633 20.3511C4.76657 20.8038 4.29728 21.0702 3.82158 20.984C3.34587 20.8977 3 20.4835 3 20C3 14.4939 5.14881 11.0375 7.47391 8.9413C9.20829 7.37766 11.0072 6.59899 12 6.25623V4.00001C12 3.62123 12.214 3.27497 12.5528 3.10558ZM13 13L13.1644 12.0136C13.6466 12.094 14 12.5112 14 13V14L19.3333 10L14 6.00001V6.91979C14 7.37107 13.7119 7.84899 13.1755 7.98649C12.8292 8.07525 10.7709 8.66172 8.81311 10.4267C7.65652 11.4695 6.51332 12.9416 5.7849 15.0161C6.91114 13.7823 8.12272 13.0239 9.25361 12.5715C10.312 12.1482 11.2674 12.0058 11.9644 11.9701C12.3134 11.9522 12.5998 11.9609 12.8051 11.975C12.9079 11.9821 12.9907 11.9906 13.0512 11.9979C13.0815 12.0015 13.1063 12.0049 13.1252 12.0076L13.1493 12.0112L13.158 12.0126L13.1615 12.0131L13.163 12.0134C13.1637 12.0135 13.1644 12.0136 13 13Z" fill="#777B92"/>
</svg>
