<svg width="24" height="24" viewBox="0 0 24 24" fill="none" xmlns="http://www.w3.org/2000/svg">
<path fill-rule="evenodd" clip-rule="evenodd" d="M6.79036 6.066C5.44895 6.73671 5 7.47826 5 8C5 8.3379 5.18831 8.76801 5.68541 9.21135C5.71158 9.23181 5.73693 9.25374 5.76134 9.27712C6.02247 9.49698 6.36061 9.71913 6.79036 9.934C8.07196 10.5748 9.91244 11 12 11C14.0876 11 15.928 10.5748 17.2096 9.934C18.5511 9.26329 19 8.52174 19 8C19 7.47826 18.5511 6.73671 17.2096 6.066C15.928 5.4252 14.0876 5 12 5C9.91244 5 8.07196 5.4252 6.79036 6.066ZM3 8C3 8.75426 3.26812 9.42282 3.70347 10.001C3.27354 10.5758 3 11.2476 3 12C3 12.7543 3.26812 13.4228 3.70347 14.001C3.27354 14.5758 3 15.2476 3 16C3 17.6874 4.34191 18.9458 5.89593 19.7229C7.50977 20.5298 9.66928 21 12 21C12.5523 21 13 20.5523 13 20C13 19.4477 12.5523 19 12 19C9.91244 19 8.07196 18.5748 6.79036 17.934C5.44895 17.2633 5 16.5217 5 16C5 15.804 5.05856 15.5804 5.20931 15.3375C5.43073 15.4768 5.6609 15.6053 5.89593 15.7229C7.50977 16.5298 9.66928 17 12 17C12.5523 17 13 16.5523 13 16C13 15.4477 12.5523 15 12 15C9.91244 15 8.07196 14.5748 6.79036 13.934C6.36061 13.7191 6.02247 13.497 5.76134 13.2771C5.73693 13.2537 5.71158 13.2318 5.68541 13.2113C5.18831 12.768 5 12.3379 5 12C5 11.804 5.05856 11.5804 5.20931 11.3375C5.43073 11.4768 5.6609 11.6053 5.89593 11.7229C7.50977 12.5298 9.66928 13 12 13C14.3307 13 16.4902 12.5298 18.1041 11.7229C19.6581 10.9458 21 9.6874 21 8C21 6.3126 19.6581 5.05416 18.1041 4.27715C16.4902 3.47023 14.3307 3 12 3C9.66928 3 7.50977 3.47023 5.89593 4.27715C4.34191 5.05416 3 6.3126 3 8ZM15.2929 15.2929C15.6834 14.9024 16.3166 14.9024 16.7071 15.2929L18 16.5858L19.2929 15.2929C19.6834 14.9024 20.3166 14.9024 20.7071 15.2929C21.0976 15.6834 21.0976 16.3166 20.7071 16.7071L19.4142 18L20.7071 19.2929C21.0976 19.6834 21.0976 20.3166 20.7071 20.7071C20.3166 21.0976 19.6834 21.0976 19.2929 20.7071L18 19.4142L16.7071 20.7071C16.3166 21.0976 15.6834 21.0976 15.2929 20.7071C14.9024 20.3166 14.9024 19.6834 15.2929 19.2929L16.5858 18L15.2929 16.7071C14.9024 16.3166 14.9024 15.6834 15.2929 15.2929Z" fill="#777B92"/>
</svg>
