<svg width="24" height="24" viewBox="0 0 24 24" fill="none" xmlns="http://www.w3.org/2000/svg">
<path fill-rule="evenodd" clip-rule="evenodd" d="M5 3C3.89543 3 3 3.89543 3 5V9C3 10.1046 3.89543 11 5 11H11C12.1046 11 13 10.1046 13 9V5C13 3.89543 12.1046 3 11 3H5ZM5 5H11V9H5V5ZM13 13C11.8954 13 11 13.8954 11 15V19C11 20.1046 11.8954 21 13 21H19C20.1046 21 21 20.1046 21 19V15C21 13.8954 20.1046 13 19 13H13ZM13 15H19V19H13V15ZM3.29289 13.2929C3.68342 12.9024 4.31658 12.9024 4.70711 13.2929L6 14.5858L7.29289 13.2929C7.68342 12.9024 8.31658 12.9024 8.70711 13.2929C9.09763 13.6834 9.09763 14.3166 8.70711 14.7071L7.41421 16L8.70711 17.2929C9.09763 17.6834 9.09763 18.3166 8.70711 18.7071C8.31658 19.0976 7.68342 19.0976 7.29289 18.7071L6 17.4142L4.70711 18.7071C4.31658 19.0976 3.68342 19.0976 3.29289 18.7071C2.90237 18.3166 2.90237 17.6834 3.29289 17.2929L4.58579 16L3.29289 14.7071C2.90237 14.3166 2.90237 13.6834 3.29289 13.2929Z" fill="#777B92"/>
</svg>
