<svg width="24" height="24" viewBox="0 0 24 24" fill="none" xmlns="http://www.w3.org/2000/svg">
<path fill-rule="evenodd" clip-rule="evenodd" d="M3 5C3 3.89543 3.89543 3 5 3H11C12.1046 3 13 3.89543 13 5V9C13 10.1046 12.1046 11 11 11H5C3.89543 11 3 10.1046 3 9V5ZM11 5H5V9H11V5ZM11 15C11 13.8954 11.8954 13 13 13H19C20.1046 13 21 13.8954 21 15V19C21 20.1046 20.1046 21 19 21H13C11.8954 21 11 20.1046 11 19V15ZM19 15H13V19H19V15ZM5 14C5 13.4477 4.55228 13 4 13C3.44772 13 3 13.4477 3 14V17C3 18.1046 3.89543 19 5 19H8C8.55228 19 9 18.5523 9 18C9 17.4477 8.55228 17 8 17H5V14Z" fill="#777B92"/>
</svg>
