<svg width="24" height="24" viewBox="0 0 24 24" fill="none" xmlns="http://www.w3.org/2000/svg">
<path fill-rule="evenodd" clip-rule="evenodd" d="M8 4C8 2.89543 8.89543 2 10 2H14C15.1046 2 16 2.89543 16 4V7C16 8.10457 15.1046 9 14 9H10C8.89543 9 8 8.10457 8 7V4ZM14 4H10V7H14V4ZM2 17C2 15.8954 2.89543 15 4 15H8C9.10457 15 10 15.8954 10 17V20C10 21.1046 9.10457 22 8 22H4C2.89543 22 2 21.1046 2 20V17ZM8 17H4V20H8V17ZM16 15C14.8954 15 14 15.8954 14 17V20C14 21.1046 14.8954 22 16 22H20C21.1046 22 22 21.1046 22 20V17C22 15.8954 21.1046 15 20 15H16ZM16 17H20V20H16V17ZM14.2929 10.2929C14.6834 9.90237 15.3166 9.90237 15.7071 10.2929L17.7071 12.2929C18.0976 12.6834 18.0976 13.3166 17.7071 13.7071C17.3166 14.0976 16.6834 14.0976 16.2929 13.7071L14.2929 11.7071C13.9024 11.3166 13.9024 10.6834 14.2929 10.2929ZM8.29289 10.2929C8.68342 9.90237 9.31658 9.90237 9.70711 10.2929C10.0976 10.6834 10.0976 11.3166 9.70711 11.7071L7.70711 13.7071C7.31658 14.0976 6.68342 14.0976 6.29289 13.7071C5.90237 13.3166 5.90237 12.6834 6.29289 12.2929L8.29289 10.2929Z" fill="#777B92"/>
</svg>
