<svg width="24" height="24" viewBox="0 0 24 24" fill="none" xmlns="http://www.w3.org/2000/svg">
<path fill-rule="evenodd" clip-rule="evenodd" d="M7 2C5.89543 2 5 2.89543 5 4V14C5 15.1046 5.89543 16 7 16H17C18.1046 16 19 15.1046 19 14V4C19 2.89543 18.1046 2 17 2H7ZM7 4L17 4V14H7V4ZM3 20C2.44772 20 2 20.4477 2 21C2 21.5523 2.44772 22 3 22H21C21.5523 22 22 21.5523 22 21C22 20.4477 21.5523 20 21 20H3ZM13 18C13 18.5523 12.5523 19 12 19C11.4477 19 11 18.5523 11 18C11 17.4477 11.4477 17 12 17C12.5523 17 13 17.4477 13 18ZM13 9.41421V11C13 11.5523 12.5523 12 12 12C11.4477 12 11 11.5523 11 11V9.41421L10.7071 9.70711C10.3166 10.0976 9.68342 10.0976 9.29289 9.70711C8.90237 9.31658 8.90237 8.68342 9.29289 8.29289L11.2929 6.29289C11.6834 5.90237 12.3166 5.90237 12.7071 6.29289L14.7071 8.29289C15.0976 8.68342 15.0976 9.31658 14.7071 9.70711C14.3166 10.0976 13.6834 10.0976 13.2929 9.70711L13 9.41421Z" fill="#777B92"/>
</svg>
