<svg width="16" height="16" viewBox="0 0 16 16" fill="none" xmlns="http://www.w3.org/2000/svg">
<g clip-path="url(#clip0_13649_20327)">
<path fill-rule="evenodd" clip-rule="evenodd" d="M9 9C8.44772 9 8 8.55228 8 8C8 7.44772 8.44772 7 9 7C9.55228 7 10 7.44772 10 8C10 8.55228 9.55228 9 9 9Z" fill="#777B92"/>
<path fill-rule="evenodd" clip-rule="evenodd" d="M13.5 13C13.5 13.8284 12.8284 14.5 12 14.5H2C1.17157 14.5 0.5 13.8284 0.500001 13L0.5 3C0.5 2.17157 1.17157 1.5 2 1.5L12 1.5C12.8284 1.5 13.5 2.17157 13.5 3V3.5H14C14.8284 3.5 15.5 4.17157 15.5 5V11C15.5 11.8284 14.8284 12.5 14 12.5H13.5V13ZM7 4.5C6.72386 4.5 6.5 4.72386 6.5 5L6.5 11C6.5 11.2761 6.72386 11.5 7 11.5H14C14.2761 11.5 14.5 11.2761 14.5 11V5C14.5 4.72386 14.2761 4.5 14 4.5H7ZM12.5 13V12.5H7C6.17157 12.5 5.5 11.8284 5.5 11L5.5 5C5.5 4.17157 6.17157 3.5 7 3.5L12.5 3.5V3C12.5 2.72386 12.2761 2.5 12 2.5H2C1.72386 2.5 1.5 2.72386 1.5 3L1.5 13C1.5 13.2761 1.72386 13.5 2 13.5H12C12.2761 13.5 12.5 13.2761 12.5 13Z" fill="#777B92"/>
</g>
<defs>
<clipPath id="clip0_13649_20327">
<rect width="16" height="16" fill="white" transform="translate(16) rotate(90)"/>
</clipPath>
</defs>
</svg>
