<svg width="24" height="24" viewBox="0 0 24 24" fill="none" xmlns="http://www.w3.org/2000/svg">
<path fill-rule="evenodd" clip-rule="evenodd" d="M4.70711 3.29289L20.7071 19.2929C21.0976 19.6834 21.0976 20.3166 20.7071 20.7071C20.3166 21.0976 19.6834 21.0976 19.2929 20.7071L3.29289 4.70711C2.90237 4.31658 2.90237 3.68342 3.29289 3.29289C3.68342 2.90237 4.31658 2.90237 4.70711 3.29289Z" fill="#777B92"/>
<path fill-rule="evenodd" clip-rule="evenodd" d="M16.5661 3.29453C17.8152 3.01697 19 3.96741 19 5.24691V15.0003C19 15.5526 18.5523 16.0003 18 16.0003C17.4477 16.0003 17 15.5526 17 15.0003V14.0004C16.4479 14.0005 16.0002 13.553 16 13.0009C15.9998 12.4486 16.4473 12.0007 16.9996 12.0004L17 5.24691L10.2169 6.75425C9.6778 6.87406 9.14362 6.53413 9.02381 5.995C8.90401 5.45586 9.24394 4.92169 9.78307 4.80188L16.5661 3.29453Z" fill="#777B92"/>
<path fill-rule="evenodd" clip-rule="evenodd" d="M9 12.0003C9.55228 12.0003 10 12.448 10 13.0003V18.0003C10 18.1979 9.94267 18.3822 9.84374 18.5373C9.40169 19.9638 8.07185 21 6.5 21C4.567 21 3 19.433 3 17.5C3 15.567 4.567 14 6.5 14C7.0368 14 7.54537 14.1208 8 14.3368V13.0003C8 12.448 8.44772 12.0003 9 12.0003ZM6.5 16C5.67157 16 5 16.6716 5 17.5C5 18.3284 5.67157 19 6.5 19C7.32843 19 8 18.3284 8 17.5C8 16.6716 7.32843 16 6.5 16Z" fill="#777B92"/>
<path fill-rule="evenodd" clip-rule="evenodd" d="M14 17C14 17.1748 14.0975 17.4332 14.3321 17.6679C14.5668 17.9025 14.8252 18 15 18C15.5523 18 16 18.4477 16 19C16 19.5523 15.5523 20 15 20C14.1748 20 13.4332 19.5975 12.9179 19.0821C12.4025 18.5668 12 17.8252 12 17C12 16.4477 12.4477 16 13 16C13.5523 16 14 16.4477 14 17Z" fill="#777B92"/>
</svg>
