<svg width="24" height="24" viewBox="0 0 24 24" fill="none" xmlns="http://www.w3.org/2000/svg">
<path fill-rule="evenodd" clip-rule="evenodd" d="M10 3C12.2091 3 14 4.79086 14 7C14 9.20914 12.2091 11 10 11C7.79086 11 6 9.20914 6 7C6 4.79086 7.79086 3 10 3ZM8 7C8 5.89543 8.89543 5 10 5C11.1046 5 12 5.89543 12 7C12 8.10457 11.1046 9 10 9C8.89543 9 8 8.10457 8 7Z" fill="#777B92"/>
<path fill-rule="evenodd" clip-rule="evenodd" d="M16 15.1707V13.721C16 12.8602 16.5509 12.0959 17.3675 11.8237L19.6838 11.0516C20.2077 10.8769 20.774 11.1601 20.9487 11.684C21.1233 12.208 20.8402 12.7743 20.3162 12.949L18 13.721V18.0003C18 18.0013 18 18.0024 18 18.0035C17.9981 19.6587 16.6557 21 15 21C13.3431 21 12 19.6569 12 18C12 16.3431 13.3431 15 15 15C15.3506 15 15.6872 15.0602 16 15.1707ZM14 18C14 17.4477 14.4477 17 15 17C15.5523 17 16 17.4477 16 18C16 18.5523 15.5523 19 15 19C14.4477 19 14 18.5523 14 18Z" fill="#777B92"/>
<path fill-rule="evenodd" clip-rule="evenodd" d="M10 15C7.23858 15 5 17.2386 5 20C5 20.5523 4.55228 21 4 21C3.44772 21 3 20.5523 3 20C3 16.134 6.13401 13 10 13C10.3964 13 10.7858 13.033 11.1655 13.0967C11.7101 13.1881 12.0776 13.7037 11.9862 14.2484C11.8948 14.7931 11.3792 15.1606 10.8345 15.0692C10.5638 15.0238 10.285 15 10 15Z" fill="#777B92"/>
</svg>
