<svg width="16" height="16" viewBox="0 0 16 16" fill="none" xmlns="http://www.w3.org/2000/svg">
<path fill-rule="evenodd" clip-rule="evenodd" d="M12 0.5C12.2761 0.5 12.5 0.723858 12.5 1V2.5H14C14.2761 2.5 14.5 2.72386 14.5 3C14.5 3.27614 14.2761 3.5 14 3.5H12.5V5C12.5 5.27614 12.2761 5.5 12 5.5C11.7239 5.5 11.5 5.27614 11.5 5V3.5H10C9.72386 3.5 9.5 3.27614 9.5 3C9.5 2.72386 9.72386 2.5 10 2.5H11.5V1C11.5 0.723858 11.7239 0.5 12 0.5Z" fill="#777B92"/>
<path fill-rule="evenodd" clip-rule="evenodd" d="M2 3.5H2.21922C2.90753 3.5 3.5075 3.96845 3.67444 4.6362L4.14055 6.50064L10.7801 6.5001C11.7267 6.50002 12.4367 7.36604 12.251 8.29427L11.6511 11.2942C11.5108 11.9953 10.8952 12.5 10.1802 12.5H5.78078C5.09248 12.5 4.4925 12.0316 4.32556 11.3638L2.70429 4.87873C2.64865 4.65615 2.44866 4.5 2.21922 4.5H2C1.72386 4.5 1.5 4.27614 1.5 4C1.5 3.72386 1.72386 3.5 2 3.5ZM5.29571 11.1213C5.35135 11.3439 5.55134 11.5 5.78078 11.5H10.1802C10.4185 11.5 10.6237 11.3318 10.6705 11.0981L11.2705 8.09816C11.3323 7.78875 11.0957 7.50007 10.7801 7.5001L4.39054 7.50062L5.29571 11.1213Z" fill="#777B92"/>
<path fill-rule="evenodd" clip-rule="evenodd" d="M12 14C12 14.5523 11.5523 15 11 15C10.4477 15 10 14.5523 10 14C10 13.4477 10.4477 13 11 13C11.5523 13 12 13.4477 12 14Z" fill="#777B92"/>
<path fill-rule="evenodd" clip-rule="evenodd" d="M5 15C4.44772 15 4 14.5523 4 14C4 13.4477 4.44772 13 5 13C5.55229 13 6 13.4477 6 14C6 14.5523 5.55229 15 5 15Z" fill="#777B92"/>
</svg>
