<svg width="16" height="16" viewBox="0 0 16 16" fill="none" xmlns="http://www.w3.org/2000/svg">
<path d="M8.5 5V6.5H10C10.2761 6.5 10.5 6.72386 10.5 7C10.5 7.27614 10.2761 7.5 10 7.5H8.5V9C8.5 9.27614 8.27614 9.5 8 9.5C7.72386 9.5 7.5 9.27614 7.5 9V7.5H6C5.72386 7.5 5.5 7.27614 5.5 7C5.5 6.72386 5.72386 6.5 6 6.5H7.5V5C7.5 4.72386 7.72386 4.5 8 4.5C8.27614 4.5 8.5 4.72386 8.5 5Z" fill="#777B92"/>
<path fill-rule="evenodd" clip-rule="evenodd" d="M8 0.5C11.0376 0.5 13.5 2.96243 13.5 6V10.7639C13.5 10.8416 13.5181 10.9181 13.5528 10.9875L14.4472 12.7764C14.5247 12.9314 14.5164 13.1155 14.4253 13.2629C14.3342 13.4103 14.1733 13.5 14 13.5H10.45C10.2184 14.6411 9.20948 15.5 8 15.5C6.79052 15.5 5.78164 14.6411 5.55001 13.5H2C1.82671 13.5 1.66578 13.4103 1.57468 13.2629C1.48357 13.1155 1.47529 12.9314 1.55279 12.7764L2.44721 10.9875C2.48193 10.9181 2.5 10.8416 2.5 10.7639V6C2.5 2.96243 4.96243 0.5 8 0.5ZM9.99918 12.5C9.99891 12.5 9.99945 12.5 9.99918 12.5C9.99945 12.5 10.0005 12.5 10.0008 12.5H13.191L12.6584 11.4347C12.5542 11.2265 12.5 10.9968 12.5 10.7639V6C12.5 3.51472 10.4853 1.5 8 1.5C5.51472 1.5 3.5 3.51472 3.5 6V10.7639C3.5 10.9968 3.44578 11.2265 3.34164 11.4348L2.80902 12.5H5.99945C5.99927 12.5 5.99963 12.5 5.99945 12.5C5.99964 12.5 6.00036 12.5 6.00055 12.5L9.99918 12.5ZM6.58535 13.5C6.79127 14.0826 7.34689 14.5 8 14.5C8.65311 14.5 9.20873 14.0826 9.41465 13.5L6.58535 13.5Z" fill="#777B92"/>
</svg>
