<svg width="16" height="16" viewBox="0 0 16 16" fill="none" xmlns="http://www.w3.org/2000/svg">
<path fill-rule="evenodd" clip-rule="evenodd" d="M1.35355 1.64645L13.3536 13.6464C13.5488 13.8417 13.5488 14.1583 13.3536 14.3536C13.1583 14.5488 12.8417 14.5488 12.6464 14.3536L0.646447 2.35355C0.451184 2.15829 0.451184 1.84171 0.646447 1.64645C0.841709 1.45118 1.15829 1.45118 1.35355 1.64645Z" fill="#777B92"/>
<path fill-rule="evenodd" clip-rule="evenodd" d="M4.5 3C4.5 2.72386 4.72386 2.5 5 2.5H11C11.8284 2.5 12.5 3.17157 12.5 4V6.79289L14.6464 4.64645C14.7894 4.50345 15.0045 4.46067 15.1913 4.53806C15.3782 4.61545 15.5 4.79777 15.5 5V11C15.5 11.2022 15.3782 11.3845 15.1913 11.4619C15.0045 11.5393 14.7894 11.4966 14.6464 11.3536L12.5 9.20711V10C12.5 10.2761 12.2761 10.5 12 10.5C11.7239 10.5 11.5 10.2761 11.5 10V4C11.5 3.72386 11.2761 3.5 11 3.5H5C4.72386 3.5 4.5 3.27614 4.5 3ZM12.7071 8L14.5 9.79289V6.20711L12.7071 8Z" fill="#777B92"/>
<path fill-rule="evenodd" clip-rule="evenodd" d="M1 4.5C1.27614 4.5 1.5 4.72386 1.5 5V12C1.5 12.2761 1.72386 12.5 2 12.5H9C9.27614 12.5 9.5 12.7239 9.5 13C9.5 13.2761 9.27614 13.5 9 13.5H2C1.17157 13.5 0.5 12.8284 0.5 12V5C0.5 4.72386 0.723858 4.5 1 4.5Z" fill="#777B92"/>
</svg>
