<svg width="16" height="16" viewBox="0 0 16 16" fill="none" xmlns="http://www.w3.org/2000/svg">
<path fill-rule="evenodd" clip-rule="evenodd" d="M5.18271 8.46556C5.16659 8.47189 5.15007 8.4774 5.13319 8.48206L5.07936 8.49999H14C14.8284 8.49999 15.5 9.17157 15.5 9.99999V14C15.5 14.8284 14.8284 15.5 14 15.5H3C2.17157 15.5 1.5 14.8284 1.5 14V9.99999C1.5 9.60394 1.6535 9.24374 1.90425 8.97563C1.59152 8.77739 1.35037 8.46335 1.25275 8.073L0.739426 6.02046C0.54925 5.26003 0.976633 4.48139 1.72025 4.23351L11.8172 0.867768C12.6461 0.59145 13.5348 1.0793 13.7467 1.92698L14.2602 3.98095C14.4504 4.74143 14.0229 5.52005 13.2792 5.76784L8.1743 7.46877C8.16365 7.47274 8.15282 7.47634 8.14185 7.47959L5.18271 8.46556ZM12.7766 2.16952C12.706 1.88696 12.4097 1.72434 12.1334 1.81645L11.5 2.02759V5.30662L12.9631 4.81912C13.211 4.73652 13.3535 4.47698 13.2901 4.22349L12.7766 2.16952ZM10.5 5.63981V2.36094L8.5 3.02762V6.3062L10.5 5.63981ZM5.5 4.02765V7.30579L7.5 6.6394V3.36097L5.5 4.02765ZM4.5 7.63899V4.361L2.03649 5.18219C1.78862 5.26482 1.64616 5.52436 1.70955 5.77784L2.22287 7.83038C2.29352 8.11289 2.5897 8.27549 2.86598 8.18343L4.5 7.63899ZM3 9.49999C2.72386 9.49999 2.5 9.72385 2.5 9.99999V14C2.5 14.2761 2.72386 14.5 3 14.5H14C14.2761 14.5 14.5 14.2761 14.5 14V9.99999C14.5 9.72385 14.2761 9.49999 14 9.49999H3Z" fill="#777B92"/>
</svg>
