<svg width="16" height="16" viewBox="0 0 16 16" fill="none" xmlns="http://www.w3.org/2000/svg">
<path fill-rule="evenodd" clip-rule="evenodd" d="M9.35355 5.35355L7.70711 7L9.35355 8.64645C9.54882 8.84171 9.54882 9.15829 9.35355 9.35355C9.15829 9.54882 8.84171 9.54882 8.64645 9.35355L7 7.70711L5.35355 9.35355C5.15829 9.54882 4.84171 9.54882 4.64645 9.35355C4.45118 9.15829 4.45118 8.84171 4.64645 8.64645L6.29289 7L4.64645 5.35355C4.45118 5.15829 4.45118 4.84171 4.64645 4.64645C4.84171 4.45118 5.15829 4.45118 5.35355 4.64645L7 6.29289L8.64645 4.64645C8.84171 4.45118 9.15829 4.45118 9.35355 4.64645C9.54882 4.84171 9.54882 5.15829 9.35355 5.35355Z" fill="#777B92"/>
<path fill-rule="evenodd" clip-rule="evenodd" d="M0.5 7C0.5 3.41015 3.41015 0.5 7 0.5C10.5899 0.5 13.5 3.41015 13.5 7C13.5 8.61495 12.911 10.0923 11.9362 11.2291L15.3536 14.6464C15.5488 14.8417 15.5488 15.1583 15.3536 15.3536C15.1583 15.5488 14.8417 15.5488 14.6464 15.3536L11.2291 11.9362C10.0923 12.911 8.61495 13.5 7 13.5C3.41015 13.5 0.5 10.5899 0.5 7ZM7 1.5C3.96243 1.5 1.5 3.96243 1.5 7C1.5 10.0376 3.96243 12.5 7 12.5C10.0376 12.5 12.5 10.0376 12.5 7C12.5 3.96243 10.0376 1.5 7 1.5Z" fill="#777B92"/>
</svg>
