<svg width="16" height="16" viewBox="0 0 16 16" fill="none" xmlns="http://www.w3.org/2000/svg">
<path fill-rule="evenodd" clip-rule="evenodd" d="M5 0.5C5.27614 0.5 5.5 0.723858 5.5 1V13.7929L6.64645 12.6464C6.84171 12.4512 7.15829 12.4512 7.35355 12.6464C7.54882 12.8417 7.54882 13.1583 7.35355 13.3536L5.35355 15.3536C5.15829 15.5488 4.84171 15.5488 4.64645 15.3536L2.64645 13.3536C2.45118 13.1583 2.45118 12.8417 2.64645 12.6464C2.84171 12.4512 3.15829 12.4512 3.35355 12.6464L4.5 13.7929V1C4.5 0.723858 4.72386 0.5 5 0.5Z" fill="#777B92"/>
<path fill-rule="evenodd" clip-rule="evenodd" d="M11.4991 6.11173C11.0716 6.11007 10.7037 6.00484 10.3954 5.79603C10.0889 5.58722 9.85271 5.28479 9.68699 4.88872C9.52293 4.49265 9.44173 4.0162 9.44338 3.45938C9.44504 2.62581 9.62816 1.98116 9.99274 1.52543C10.359 1.06805 10.8611 0.839355 11.4991 0.839355C11.925 0.839355 12.2913 0.942102 12.5979 1.14759C12.9061 1.35309 13.1431 1.65138 13.3088 2.04248C13.4745 2.43192 13.5565 2.90422 13.5549 3.45938C13.5532 4.29793 13.3701 4.95003 13.0055 5.41571C12.6409 5.87972 12.1388 6.11173 11.4991 6.11173ZM11.4991 5.21933C11.7908 5.21933 12.0236 5.07267 12.1976 4.77934C12.3717 4.48602 12.4578 4.04603 12.4562 3.45938C12.4562 2.88102 12.3692 2.44684 12.1952 2.15683C12.0212 1.86682 11.7891 1.72181 11.4991 1.72181C11.2091 1.72181 10.9771 1.86682 10.8031 2.15683C10.6291 2.44684 10.5413 2.88102 10.5396 3.45938C10.538 4.04603 10.6241 4.48602 10.7981 4.77934C10.9738 5.07267 11.2075 5.21933 11.4991 5.21933Z" fill="#777B92"/>
<path fill-rule="evenodd" clip-rule="evenodd" d="M12.2003 9.95648C12.4439 10.0427 12.661 10.1827 12.8516 10.3766C13.0438 10.5705 13.1963 10.8273 13.309 11.1472C13.4217 11.4654 13.478 11.8573 13.478 12.323C13.478 12.898 13.3927 13.391 13.222 13.802C13.0513 14.2113 12.811 14.5254 12.5011 14.7441C12.1929 14.9612 11.8283 15.0698 11.4073 15.0698C11.0676 15.0698 10.7677 15.0043 10.5075 14.8734C10.2473 14.7408 10.0377 14.561 9.87858 14.334C9.72115 14.1053 9.62586 13.8484 9.59271 13.5634H10.6542C10.6956 13.749 10.7826 13.8932 10.9152 13.9959C11.0477 14.097 11.2118 14.1475 11.4073 14.1475C11.7388 14.1475 11.9907 14.0034 12.163 13.715C12.3354 13.425 12.4224 13.0281 12.424 12.5243H12.3892C12.2765 12.748 12.1042 12.9237 11.8722 13.0513C11.6418 13.1789 11.3866 13.2427 11.1066 13.2427C10.8066 13.2427 10.5381 13.1723 10.3012 13.0314C10.0642 12.8889 9.87775 12.6942 9.74186 12.4472C9.60763 12.2003 9.54134 11.9178 9.543 11.5996C9.54134 11.2549 9.62006 10.9491 9.77915 10.6823C9.93824 10.4139 10.1603 10.2034 10.4453 10.0509C10.732 9.89848 11.0651 9.82308 11.4446 9.82473C11.7065 9.82473 11.9584 9.86865 12.2003 9.95648ZM10.8306 10.9284C10.6666 11.1008 10.5854 11.3146 10.587 11.5698C10.5854 11.8217 10.6649 12.0338 10.8257 12.2061C10.9881 12.3768 11.1936 12.4622 11.4421 12.4622C11.6062 12.4622 11.7537 12.4216 11.8846 12.3404C12.0172 12.2592 12.1216 12.1506 12.1978 12.0147C12.2757 11.8788 12.3155 11.7289 12.3171 11.5648C12.3155 11.4007 12.2765 11.2516 12.2003 11.1173C12.1257 10.9815 12.0238 10.8729 11.8946 10.7917C11.7653 10.7105 11.6178 10.6699 11.4521 10.6699C11.2019 10.6699 10.9947 10.7561 10.8306 10.9284Z" fill="#777B92"/>
</svg>
