<svg width="16" height="16" viewBox="0 0 16 16" fill="none" xmlns="http://www.w3.org/2000/svg">
<path fill-rule="evenodd" clip-rule="evenodd" d="M4.5 1V13.7929L5.64645 12.6464C5.84171 12.4512 6.15829 12.4512 6.35355 12.6464C6.54882 12.8417 6.54882 13.1583 6.35355 13.3536L4.35355 15.3536C4.15829 15.5488 3.84171 15.5488 3.64645 15.3536L1.64645 13.3536C1.45118 13.1583 1.45118 12.8417 1.64645 12.6464C1.84171 12.4512 2.15829 12.4512 2.35355 12.6464L3.5 13.7929V1C3.5 0.723858 3.72386 0.5 4 0.5C4.27614 0.5 4.5 0.723858 4.5 1Z" fill="#777B92"/>
<path fill-rule="evenodd" clip-rule="evenodd" d="M7 0.5H15C15.2761 0.5 15.5 0.723858 15.5 1C15.5 1.27614 15.2761 1.5 15 1.5H7C6.72386 1.5 6.5 1.27614 6.5 1C6.5 0.723858 6.72386 0.5 7 0.5Z" fill="#777B92"/>
<path fill-rule="evenodd" clip-rule="evenodd" d="M7 4.5H13C13.2761 4.5 13.5 4.72386 13.5 5C13.5 5.27614 13.2761 5.5 13 5.5H7C6.72386 5.5 6.5 5.27614 6.5 5C6.5 4.72386 6.72386 4.5 7 4.5Z" fill="#777B92"/>
<path fill-rule="evenodd" clip-rule="evenodd" d="M6.5 9C6.5 8.72386 6.72386 8.5 7 8.5H11C11.2761 8.5 11.5 8.72386 11.5 9C11.5 9.27614 11.2761 9.5 11 9.5H7C6.72386 9.5 6.5 9.27614 6.5 9Z" fill="#777B92"/>
</svg>
