<svg width="16" height="16" viewBox="0 0 16 16" fill="none" xmlns="http://www.w3.org/2000/svg">
<path fill-rule="evenodd" clip-rule="evenodd" d="M1.5 8C1.5 11.5899 4.41015 14.5 8 14.5C11.5899 14.5 14.5 11.5899 14.5 8C14.5 7.72386 14.7239 7.5 15 7.5C15.2761 7.5 15.5 7.72386 15.5 8C15.5 12.1421 12.1421 15.5 8 15.5C3.85786 15.5 0.5 12.1421 0.5 8C0.5 3.85786 3.85786 0.5 8 0.5C8.27614 0.5 8.5 0.723858 8.5 1C8.5 1.27614 8.27614 1.5 8 1.5C4.41015 1.5 1.5 4.41015 1.5 8Z" fill="#777B92"/>
<path fill-rule="evenodd" clip-rule="evenodd" d="M11.8536 4.85355C11.6583 5.04882 11.3417 5.04882 11.1464 4.85355C10.9512 4.65829 10.9512 4.34171 11.1464 4.14645L12.2929 3L11.1464 1.85355C10.9512 1.65829 10.9512 1.34171 11.1464 1.14645C11.3417 0.951184 11.6583 0.951184 11.8536 1.14645L13 2.29289L14.1464 1.14645C14.3417 0.951184 14.6583 0.951184 14.8536 1.14645C15.0488 1.34171 15.0488 1.65829 14.8536 1.85355L13.7071 3L14.8536 4.14645C15.0488 4.34171 15.0488 4.65829 14.8536 4.85355C14.6583 5.04882 14.3417 5.04882 14.1464 4.85355L13 3.70711L11.8536 4.85355Z" fill="#777B92"/>
<path fill-rule="evenodd" clip-rule="evenodd" d="M8.5 5V7.5H11C11.2761 7.5 11.5 7.72386 11.5 8C11.5 8.27614 11.2761 8.5 11 8.5H8C7.72386 8.5 7.5 8.27614 7.5 8V5C7.5 4.72386 7.72386 4.5 8 4.5C8.27614 4.5 8.5 4.72386 8.5 5Z" fill="#777B92"/>
</svg>
