<svg width="16" height="16" viewBox="0 0 16 16" fill="none" xmlns="http://www.w3.org/2000/svg">
<path fill-rule="evenodd" clip-rule="evenodd" d="M3.01493 0.878728C3.0819 0.610831 3.35337 0.447951 3.62127 0.514925C3.88916 0.581899 4.05205 0.853367 3.98507 1.12126L3.82943 1.74383C3.9235 1.68499 4.02273 1.62542 4.12693 1.56587C5.05246 1.037 6.38811 0.499996 8 0.499996C12.1421 0.499996 15.5 3.85786 15.5 8C15.5 12.1421 12.1421 15.5 8 15.5C3.85786 15.5 0.5 12.1421 0.5 8C0.5 7.72385 0.723858 7.5 1 7.5C1.27614 7.5 1.5 7.72385 1.5 8C1.5 11.5898 4.41015 14.5 8 14.5C11.5899 14.5 14.5 11.5898 14.5 8C14.5 4.41015 11.5899 1.5 8 1.5C6.61189 1.5 5.44754 1.96299 4.62307 2.43412C4.58461 2.4561 4.54692 2.47807 4.51002 2.5H5C5.27614 2.5 5.5 2.72385 5.5 3C5.5 3.27614 5.27614 3.5 5 3.5H3C2.84603 3.5 2.70065 3.42906 2.6059 3.3077C2.51114 3.18634 2.47759 3.0281 2.51493 2.87873L3.01493 0.878728Z" fill="#777B92"/>
<path fill-rule="evenodd" clip-rule="evenodd" d="M8.5 5V7.5H11C11.2761 7.5 11.5 7.72386 11.5 8C11.5 8.27614 11.2761 8.5 11 8.5H8C7.72386 8.5 7.5 8.27614 7.5 8V5C7.5 4.72386 7.72386 4.5 8 4.5C8.27614 4.5 8.5 4.72386 8.5 5Z" fill="#777B92"/>
</svg>
