<svg width="16" height="16" viewBox="0 0 16 16" fill="none" xmlns="http://www.w3.org/2000/svg">
<path fill-rule="evenodd" clip-rule="evenodd" d="M6 5.5C6.27614 5.5 6.5 5.72386 6.5 6V7.5H8C8.27614 7.5 8.5 7.72386 8.5 8C8.5 8.27614 8.27614 8.5 8 8.5H6C5.72386 8.5 5.5 8.27614 5.5 8V6C5.5 5.72386 5.72386 5.5 6 5.5Z" fill="#777B92"/>
<path fill-rule="evenodd" clip-rule="evenodd" d="M0.5 8C0.5 4.96243 2.96243 2.5 6 2.5C9.03757 2.5 11.5 4.96243 11.5 8C11.5 11.0376 9.03757 13.5 6 13.5C2.96243 13.5 0.5 11.0376 0.5 8ZM6 3.5C3.51472 3.5 1.5 5.51472 1.5 8C1.5 10.4853 3.51472 12.5 6 12.5C8.48528 12.5 10.5 10.4853 10.5 8C10.5 5.51472 8.48528 3.5 6 3.5Z" fill="#777B92"/>
<path fill-rule="evenodd" clip-rule="evenodd" d="M15.3536 12.3536L14.3536 13.3536C14.1583 13.5488 13.8417 13.5488 13.6464 13.3536L12.6464 12.3536C12.4512 12.1583 12.4512 11.8417 12.6464 11.6464C12.8417 11.4512 13.1583 11.4512 13.3536 11.6464L13.5 11.7929V3C13.5 2.72386 13.7239 2.5 14 2.5C14.2761 2.5 14.5 2.72386 14.5 3V11.7929L14.6464 11.6464C14.8417 11.4512 15.1583 11.4512 15.3536 11.6464C15.5488 11.8417 15.5488 12.1583 15.3536 12.3536Z" fill="#777B92"/>
</svg>
