<svg width="16" height="16" viewBox="0 0 16 16" fill="none" xmlns="http://www.w3.org/2000/svg">
<path fill-rule="evenodd" clip-rule="evenodd" d="M4.5 1L4.5 7.17133C5.32498 6.15183 6.58637 5.5 8 5.5C10.4853 5.5 12.5 7.51472 12.5 10V15C12.5 15.2761 12.2761 15.5 12 15.5C11.7239 15.5 11.5 15.2761 11.5 15V10C11.5 8.067 9.933 6.5 8 6.5C6.06756 6.5 4.50089 8.06611 4.5 9.99834L4.5 15C4.5 15.2761 4.27614 15.5 4 15.5C3.72386 15.5 3.5 15.2761 3.5 15V1C3.5 0.723858 3.72386 0.5 4 0.5C4.27614 0.5 4.5 0.723858 4.5 1Z" fill="#777B92"/>
</svg>
