<svg width="16" height="16" viewBox="0 0 16 16" fill="none" xmlns="http://www.w3.org/2000/svg">
<path fill-rule="evenodd" clip-rule="evenodd" d="M14.3536 2.64645L15.3536 3.64645C15.5488 3.84171 15.5488 4.15829 15.3536 4.35355C15.1583 4.54882 14.8417 4.54882 14.6464 4.35355L14.5 4.20711V13C14.5 13.2761 14.2761 13.5 14 13.5C13.7239 13.5 13.5 13.2761 13.5 13V4.20711L13.3536 4.35355C13.1583 4.54882 12.8417 4.54882 12.6464 4.35355C12.4512 4.15829 12.4512 3.84171 12.6464 3.64645L13.6464 2.64645C13.8417 2.45118 14.1583 2.45118 14.3536 2.64645Z" fill="#777B92"/>
<path fill-rule="evenodd" clip-rule="evenodd" d="M6 5.5C6.27614 5.5 6.5 5.72386 6.5 6V7.5H8C8.27614 7.5 8.5 7.72386 8.5 8C8.5 8.27614 8.27614 8.5 8 8.5H6C5.72386 8.5 5.5 8.27614 5.5 8V6C5.5 5.72386 5.72386 5.5 6 5.5Z" fill="#777B92"/>
<path fill-rule="evenodd" clip-rule="evenodd" d="M0.5 8C0.5 4.96243 2.96243 2.5 6 2.5C9.03757 2.5 11.5 4.96243 11.5 8C11.5 11.0376 9.03757 13.5 6 13.5C2.96243 13.5 0.5 11.0376 0.5 8ZM6 3.5C3.51472 3.5 1.5 5.51472 1.5 8C1.5 10.4853 3.51472 12.5 6 12.5C8.48528 12.5 10.5 10.4853 10.5 8C10.5 5.51472 8.48528 3.5 6 3.5Z" fill="#777B92"/>
</svg>
