<svg width="16" height="16" viewBox="0 0 16 16" fill="none" xmlns="http://www.w3.org/2000/svg">
<path fill-rule="evenodd" clip-rule="evenodd" d="M8 6.5C7.17157 6.5 6.5 7.17157 6.5 8C6.5 8.27614 6.27614 8.5 6 8.5C5.72386 8.5 5.5 8.27614 5.5 8C5.5 6.61929 6.61929 5.5 8 5.5C9.38071 5.5 10.5 6.61929 10.5 8C10.5 9.16786 9.69968 10.1475 8.6183 10.4228C8.57133 10.4348 8.53418 10.4591 8.5138 10.4811C8.50452 10.4911 8.50112 10.4979 8.50021 10.5001L8.5 11C8.5 11.2761 8.27614 11.5 8 11.5C7.72386 11.5 7.5 11.2761 7.5 11V10.5C7.5 9.92613 7.95729 9.55921 8.37159 9.45374C9.02056 9.28853 9.5 8.69963 9.5 8C9.5 7.17157 8.82843 6.5 8 6.5Z" fill="#777B92"/>
<path fill-rule="evenodd" clip-rule="evenodd" d="M8 13C7.72386 13 7.5 12.7761 7.5 12.5C7.5 12.2239 7.72386 12 8 12C8.27614 12 8.5 12.2239 8.5 12.5C8.5 12.7761 8.27614 13 8 13Z" fill="#777B92"/>
<path fill-rule="evenodd" clip-rule="evenodd" d="M11 0.5C11.2761 0.5 11.5 0.723858 11.5 1V2.5H13C13.8284 2.5 14.5 3.17157 14.5 4V14C14.5 14.8284 13.8284 15.5 13 15.5H3C2.17157 15.5 1.5 14.8284 1.5 14V4C1.5 3.17157 2.17157 2.5 3 2.5H4.5V1C4.5 0.723858 4.72386 0.5 5 0.5C5.27614 0.5 5.5 0.723858 5.5 1V2.5H10.5V1C10.5 0.723858 10.7239 0.5 11 0.5ZM4.5 3.5H3C2.72386 3.5 2.5 3.72386 2.5 4V14C2.5 14.2761 2.72386 14.5 3 14.5H13C13.2761 14.5 13.5 14.2761 13.5 14V4C13.5 3.72386 13.2761 3.5 13 3.5H11.5V4C11.5 4.27614 11.2761 4.5 11 4.5C10.7239 4.5 10.5 4.27614 10.5 4V3.5H5.5V4C5.5 4.27614 5.27614 4.5 5 4.5C4.72386 4.5 4.5 4.27614 4.5 4V3.5Z" fill="#777B92"/>
</svg>
