<svg width="16" height="16" viewBox="0 0 16 16" fill="none" xmlns="http://www.w3.org/2000/svg">
<path fill-rule="evenodd" clip-rule="evenodd" d="M1.5 8C1.5 11.5899 4.41015 14.5 8 14.5C11.5899 14.5 14.5 11.5899 14.5 8C14.5 7.72386 14.7239 7.5 15 7.5C15.2761 7.5 15.5 7.72386 15.5 8C15.5 12.1421 12.1421 15.5 8 15.5C3.85786 15.5 0.5 12.1421 0.5 8C0.5 3.85786 3.85786 0.5 8 0.5C8.27614 0.5 8.5 0.723858 8.5 1C8.5 1.27614 8.27614 1.5 8 1.5C4.41015 1.5 1.5 4.41015 1.5 8Z" fill="#777B92"/>
<path fill-rule="evenodd" clip-rule="evenodd" d="M8 5.5C8.27614 5.5 8.5 5.72386 8.5 6V7.5H10C10.2761 7.5 10.5 7.72386 10.5 8C10.5 8.27614 10.2761 8.5 10 8.5H8.5V10C8.5 10.2761 8.27614 10.5 8 10.5C7.72386 10.5 7.5 10.2761 7.5 10V8.5H6C5.72386 8.5 5.5 8.27614 5.5 8C5.5 7.72386 5.72386 7.5 6 7.5H7.5V6C7.5 5.72386 7.72386 5.5 8 5.5Z" fill="#777B92"/>
</svg>
