<svg width="16" height="16" viewBox="0 0 16 16" fill="none" xmlns="http://www.w3.org/2000/svg">
<path fill-rule="evenodd" clip-rule="evenodd" d="M10.5529 0.776381C10.6764 0.529391 10.9767 0.429279 11.2237 0.552774L13.2237 1.55277C13.4707 1.67627 13.5708 1.97661 13.4473 2.22359C13.3238 2.47058 13.0235 2.5707 12.7765 2.4472L10.7765 1.4472C10.5295 1.32371 10.4294 1.02337 10.5529 0.776381Z" fill="#777B92"/>
<path fill-rule="evenodd" clip-rule="evenodd" d="M8.5 6V8.5H11C11.2761 8.5 11.5 8.72386 11.5 9C11.5 9.27614 11.2761 9.5 11 9.5H8C7.72386 9.5 7.5 9.27614 7.5 9V6C7.5 5.72386 7.72386 5.5 8 5.5C8.27614 5.5 8.5 5.72386 8.5 6Z" fill="#777B92"/>
<path fill-rule="evenodd" clip-rule="evenodd" d="M8 2.5C11.5899 2.5 14.5 5.41015 14.5 9C14.5 12.5899 11.5899 15.5 8 15.5C4.41015 15.5 1.5 12.5899 1.5 9C1.5 5.41015 4.41015 2.5 8 2.5ZM2.5 9C2.5 12.0376 4.96243 14.5 8 14.5C11.0376 14.5 13.5 12.0376 13.5 9C13.5 5.96243 11.0376 3.5 8 3.5C4.96243 3.5 2.5 5.96243 2.5 9Z" fill="#777B92"/>
<path fill-rule="evenodd" clip-rule="evenodd" d="M5.22372 1.4472L3.22372 2.4472C2.97673 2.5707 2.67639 2.47058 2.5529 2.22359C2.4294 1.97661 2.52951 1.67627 2.7765 1.55277L4.7765 0.552774C5.02349 0.429279 5.32383 0.529391 5.44732 0.776381C5.57082 1.02337 5.47071 1.32371 5.22372 1.4472Z" fill="#777B92"/>
</svg>
