<svg width="16" height="16" viewBox="0 0 16 16" fill="none" xmlns="http://www.w3.org/2000/svg">
<path fill-rule="evenodd" clip-rule="evenodd" d="M12.9851 0.878728L13.4851 2.87873C13.5224 3.0281 13.4889 3.18634 13.3941 3.3077C13.2993 3.42906 13.154 3.5 13 3.5H11C10.7239 3.5 10.5 3.27614 10.5 3C10.5 2.72385 10.7239 2.5 11 2.5H11.49C11.4531 2.47807 11.4154 2.4561 11.3769 2.43412C10.5525 1.96299 9.38811 1.5 8 1.5C4.41015 1.5 1.5 4.41015 1.5 8C1.5 11.5898 4.41015 14.5 8 14.5C8.99782 14.5 9.94182 14.2755 10.7855 13.8747C11.0349 13.7562 11.3331 13.8624 11.4516 14.1118C11.5701 14.3612 11.464 14.6595 11.2145 14.778C10.2397 15.2411 9.14937 15.5 8 15.5C3.85786 15.5 0.5 12.1421 0.5 8C0.5 3.85786 3.85786 0.499996 8 0.499996C9.61189 0.499996 10.9475 1.037 11.8731 1.56587C11.9773 1.62542 12.0765 1.68499 12.1706 1.74383L12.0149 1.12126C11.948 0.853367 12.1108 0.581899 12.3787 0.514925C12.6466 0.447951 12.9181 0.610831 12.9851 0.878728Z" fill="#777B92"/>
<path fill-rule="evenodd" clip-rule="evenodd" d="M8 4.5C8.27614 4.5 8.5 4.72386 8.5 5V7.5H11C11.2761 7.5 11.5 7.72386 11.5 8C11.5 8.27614 11.2761 8.5 11 8.5H8C7.72386 8.5 7.5 8.27614 7.5 8V5C7.5 4.72386 7.72386 4.5 8 4.5Z" fill="#777B92"/>
<path fill-rule="evenodd" clip-rule="evenodd" d="M15 10V15L12 12.5L15 10Z" fill="#777B92"/>
</svg>
