<svg width="16" height="16" viewBox="0 0 16 16" fill="none" xmlns="http://www.w3.org/2000/svg">
<path fill-rule="evenodd" clip-rule="evenodd" d="M6.15603 5.00181C5.70253 5.30415 5.5 5.66691 5.5 6C5.5 6.36494 5.69375 6.63411 6.17088 6.88593C6.66867 7.14866 7.35274 7.3228 8.12127 7.51493C8.1339 7.51809 8.14656 7.52125 8.15925 7.52442C8.88087 7.70477 9.67951 7.90437 10.2959 8.22968C10.9437 8.57161 11.5 9.11494 11.5 10C11.5 10.7715 11.031 11.4087 10.3987 11.8302C9.76289 12.2541 8.91337 12.5 8 12.5C7.08663 12.5 6.23711 12.2541 5.60133 11.8302C4.96904 11.4087 4.5 10.7715 4.5 10C4.5 9.72386 4.72386 9.5 5 9.5C5.27614 9.5 5.5 9.72386 5.5 10C5.5 10.3331 5.70253 10.6959 6.15603 10.9982C6.60604 11.2982 7.25652 11.5 8 11.5C8.74348 11.5 9.39396 11.2982 9.84397 10.9982C10.2975 10.6959 10.5 10.3331 10.5 10C10.5 9.63506 10.3063 9.36589 9.82912 9.11407C9.33133 8.85134 8.64726 8.6772 7.87873 8.48507C7.8661 8.48191 7.85343 8.47875 7.84075 8.47558C7.11913 8.29522 6.32049 8.09562 5.70412 7.77032C5.05625 7.42839 4.5 6.88506 4.5 6C4.5 5.22852 4.96904 4.59128 5.60133 4.16976C6.23711 3.74591 7.08663 3.5 8 3.5C8.91337 3.5 9.76289 3.74591 10.3987 4.16976C11.031 4.59128 11.5 5.22852 11.5 6C11.5 6.27614 11.2761 6.5 11 6.5C10.7239 6.5 10.5 6.27614 10.5 6C10.5 5.66691 10.2975 5.30415 9.84397 5.00181C9.39396 4.70181 8.74348 4.5 8 4.5C7.25652 4.5 6.60604 4.70181 6.15603 5.00181Z" fill="#777B92"/>
</svg>
