<svg width="16" height="16" viewBox="0 0 16 16" fill="none" xmlns="http://www.w3.org/2000/svg">
<path fill-rule="evenodd" clip-rule="evenodd" d="M8 6.5C8.27614 6.5 8.5 6.72386 8.5 7V8.5H10C10.2761 8.5 10.5 8.72386 10.5 9C10.5 9.27614 10.2761 9.5 10 9.5H8.5V11C8.5 11.2761 8.27614 11.5 8 11.5C7.72386 11.5 7.5 11.2761 7.5 11V9.5H6C5.72386 9.5 5.5 9.27614 5.5 9C5.5 8.72386 5.72386 8.5 6 8.5H7.5V7C7.5 6.72386 7.72386 6.5 8 6.5Z" fill="#777B92"/>
<path fill-rule="evenodd" clip-rule="evenodd" d="M4 0.5H8.51938C8.97505 0.5 9.40602 0.707134 9.69068 1.06296L13.1713 5.41374C13.3841 5.67971 13.5 6.01017 13.5 6.35078V14C13.5 14.8284 12.8284 15.5 12 15.5H4C3.17157 15.5 2.5 14.8284 2.5 14V2C2.5 1.17157 3.17157 0.5 4 0.5ZM3.5 2V14C3.5 14.2761 3.72386 14.5 4 14.5H12C12.2761 14.5 12.5 14.2761 12.5 14V6.5H10C9.17157 6.5 8.5 5.82843 8.5 5V1.5H4C3.72386 1.5 3.5 1.72386 3.5 2ZM11.9597 5.5L9.5 2.42539V5C9.5 5.27614 9.72386 5.5 10 5.5H11.9597Z" fill="#777B92"/>
</svg>
