<svg width="16" height="16" viewBox="0 0 16 16" fill="none" xmlns="http://www.w3.org/2000/svg">
<path fill-rule="evenodd" clip-rule="evenodd" d="M9.5 6V7.5H11C11.2761 7.5 11.5 7.72386 11.5 8C11.5 8.27614 11.2761 8.5 11 8.5H9.5V10C9.5 10.2761 9.27614 10.5 9 10.5C8.72386 10.5 8.5 10.2761 8.5 10V8.5H7C6.72386 8.5 6.5 8.27614 6.5 8C6.5 7.72386 6.72386 7.5 7 7.5H8.5V6C8.5 5.72386 8.72386 5.5 9 5.5C9.27614 5.5 9.5 5.72386 9.5 6Z" fill="#777B92"/>
<path fill-rule="evenodd" clip-rule="evenodd" d="M2.5 8C2.5 4.41015 5.41015 1.5 9 1.5C12.5899 1.5 15.5 4.41015 15.5 8C15.5 11.5899 12.5899 14.5 9 14.5C5.41015 14.5 2.5 11.5899 2.5 8ZM9 2.5C5.96243 2.5 3.5 4.96243 3.5 8C3.5 11.0376 5.96243 13.5 9 13.5C12.0376 13.5 14.5 11.0376 14.5 8C14.5 4.96243 12.0376 2.5 9 2.5Z" fill="#777B92"/>
<path fill-rule="evenodd" clip-rule="evenodd" d="M3.35356 3.35368C2.21854 4.48869 1.625 6.22436 1.625 8.00012C1.625 9.77588 2.21856 11.5116 3.3536 12.6466C3.54886 12.8418 3.54886 13.1584 3.3536 13.3537C3.15834 13.5489 2.84176 13.5489 2.6465 13.3537C1.28148 11.9887 0.625005 9.97437 0.625 8.00012C0.624995 6.02588 1.28146 4.01155 2.64646 2.64657C2.84172 2.45131 3.1583 2.45131 3.35356 2.64657C3.54883 2.84183 3.54883 3.15842 3.35356 3.35368Z" fill="#777B92"/>
</svg>
