<svg width="16" height="16" viewBox="0 0 16 16" fill="none" xmlns="http://www.w3.org/2000/svg">
<path fill-rule="evenodd" clip-rule="evenodd" d="M9 5.5C9.27614 5.5 9.5 5.72386 9.5 6V7.5H11C11.2761 7.5 11.5 7.72386 11.5 8C11.5 8.27614 11.2761 8.5 11 8.5H9.5V10C9.5 10.2761 9.27614 10.5 9 10.5C8.72386 10.5 8.5 10.2761 8.5 10V8.5H7C6.72386 8.5 6.5 8.27614 6.5 8C6.5 7.72386 6.72386 7.5 7 7.5H8.5V6C8.5 5.72386 8.72386 5.5 9 5.5Z" fill="#777B92"/>
<path fill-rule="evenodd" clip-rule="evenodd" d="M6.41406 2.5H13.9998C14.8283 2.5 15.4998 3.17157 15.4998 4V12C15.4998 12.8284 14.8283 13.5 13.9998 13.5H6.41406C6.01624 13.5 5.63471 13.342 5.3534 13.0607L1.3534 9.06066C0.767615 8.47487 0.767617 7.52513 1.3534 6.93934L5.3534 2.93934C5.63471 2.65804 6.01624 2.5 6.41406 2.5ZM6.06051 3.64645L2.06051 7.64645C1.86525 7.84171 1.86525 8.15829 2.06051 8.35355L6.06051 12.3536C6.15428 12.4473 6.28145 12.5 6.41406 12.5H13.9998C14.276 12.5 14.4998 12.2761 14.4998 12V4C14.4998 3.72386 14.276 3.5 13.9998 3.5H6.41406C6.28145 3.5 6.15428 3.55268 6.06051 3.64645Z" fill="#777B92"/>
</svg>
