<svg width="16" height="16" viewBox="0 0 16 16" fill="none" xmlns="http://www.w3.org/2000/svg">
<g clip-path="url(#clip0_13649_20790)">
<path fill-rule="evenodd" clip-rule="evenodd" d="M5.5 7C5.5 6.72386 5.72386 6.5 6 6.5L7.5 6.5V5C7.5 4.72386 7.72386 4.5 8 4.5C8.27614 4.5 8.5 4.72386 8.5 5V6.5H10C10.2761 6.5 10.5 6.72386 10.5 7C10.5 7.27614 10.2761 7.5 10 7.5H8.5V9C8.5 9.27614 8.27614 9.5 8 9.5C7.72386 9.5 7.5 9.27614 7.5 9V7.5L6 7.5C5.72386 7.5 5.5 7.27614 5.5 7Z" fill="#777B92"/>
<path fill-rule="evenodd" clip-rule="evenodd" d="M12 0.5C12.8284 0.5 13.5 1.17157 13.5 2V9.58579C13.5 9.98361 13.342 10.3651 13.0607 10.6464L9.06066 14.6464C8.47488 15.2322 7.52513 15.2322 6.93934 14.6464L2.93934 10.6464C2.65804 10.3651 2.5 9.98361 2.5 9.58579L2.5 2C2.5 1.17157 3.17157 0.5 4 0.5L12 0.5ZM3.5 2L3.5 9.58579C3.5 9.7184 3.55268 9.84557 3.64645 9.93934L7.64645 13.9393C7.84171 14.1346 8.15829 14.1346 8.35355 13.9393L12.3536 9.93934C12.4473 9.84557 12.5 9.7184 12.5 9.58579V2C12.5 1.72386 12.2761 1.5 12 1.5L4 1.5C3.72386 1.5 3.5 1.72386 3.5 2Z" fill="#777B92"/>
</g>
<defs>
<clipPath id="clip0_13649_20790">
<rect width="16" height="16" fill="white" transform="translate(0 16) rotate(-90)"/>
</clipPath>
</defs>
</svg>
