<svg width="16" height="16" viewBox="0 0 16 16" fill="none" xmlns="http://www.w3.org/2000/svg">
<path fill-rule="evenodd" clip-rule="evenodd" d="M0.5 2.5C0.5 1.39543 1.39543 0.5 2.5 0.5C3.60457 0.5 4.5 1.39543 4.5 2.5C4.5 2.88272 4.3925 3.24033 4.20605 3.54428C4.25952 3.56845 4.30961 3.6025 4.35355 3.64645L8 7.29289L14.6464 0.646447C14.8417 0.451184 15.1583 0.451184 15.3536 0.646447C15.5488 0.841709 15.5488 1.15829 15.3536 1.35355L4.35355 12.3536C4.30961 12.3975 4.25952 12.4315 4.20605 12.4557C4.3925 12.7597 4.5 13.1173 4.5 13.5C4.5 14.6046 3.60457 15.5 2.5 15.5C1.39543 15.5 0.5 14.6046 0.5 13.5C0.5 12.3954 1.39543 11.5 2.5 11.5C2.88272 11.5 3.24033 11.6075 3.54429 11.794C3.56845 11.7405 3.6025 11.6904 3.64645 11.6464L7.29289 8L3.64645 4.35355C3.6025 4.30961 3.56845 4.25952 3.54428 4.20605C3.24033 4.3925 2.88272 4.5 2.5 4.5C1.39543 4.5 0.5 3.60457 0.5 2.5ZM2.5 1.5C1.94772 1.5 1.5 1.94772 1.5 2.5C1.5 3.05228 1.94772 3.5 2.5 3.5C3.05228 3.5 3.5 3.05228 3.5 2.5C3.5 1.94772 3.05228 1.5 2.5 1.5ZM2.5 12.5C1.94772 12.5 1.5 12.9477 1.5 13.5C1.5 14.0523 1.94772 14.5 2.5 14.5C3.05228 14.5 3.5 14.0523 3.5 13.5C3.5 12.9477 3.05228 12.5 2.5 12.5Z" fill="#777B92"/>
<path fill-rule="evenodd" clip-rule="evenodd" d="M9.64645 9.64645C9.84171 9.45118 10.1583 9.45118 10.3536 9.64645L15.3536 14.6464C15.5488 14.8417 15.5488 15.1583 15.3536 15.3536C15.1583 15.5488 14.8417 15.5488 14.6464 15.3536L9.64645 10.3536C9.45118 10.1583 9.45118 9.84171 9.64645 9.64645Z" fill="#777B92"/>
</svg>
