<svg width="16" height="16" viewBox="0 0 16 16" fill="none" xmlns="http://www.w3.org/2000/svg">
<path fill-rule="evenodd" clip-rule="evenodd" d="M15 8.5H8.5V13C8.5 13.8284 9.17157 14.5 10 14.5C10.8284 14.5 11.5 13.8284 11.5 13C11.5 12.7239 11.7239 12.5 12 12.5C12.2761 12.5 12.5 12.7239 12.5 13C12.5 14.3807 11.3807 15.5 10 15.5C8.61929 15.5 7.5 14.3807 7.5 13V8.5H1C0.723858 8.5 0.5 8.27614 0.5 8C0.5 3.85786 3.85786 0.5 8 0.5C12.1421 0.5 15.5 3.85786 15.5 8C15.5 8.27614 15.2761 8.5 15 8.5ZM1.51894 7.5H14.4811C14.2257 4.14378 11.4216 1.5 8 1.5C4.57839 1.5 1.77426 4.14378 1.51894 7.5Z" fill="#777B92"/>
</svg>
