<svg width="16" height="16" viewBox="0 0 16 16" fill="none" xmlns="http://www.w3.org/2000/svg">
<path fill-rule="evenodd" clip-rule="evenodd" d="M0.5 2C0.5 1.17157 1.17157 0.5 2 0.5H9.58579C9.98361 0.5 10.3651 0.658035 10.6464 0.93934L15.0607 5.35355C15.342 5.63486 15.5 6.01639 15.5 6.41421V14C15.5 14.8284 14.8284 15.5 14 15.5H2C1.17157 15.5 0.5 14.8284 0.5 14V2ZM5.5 14.5H10.5V12C10.5 11.7239 10.2761 11.5 10 11.5H6C5.72386 11.5 5.5 11.7239 5.5 12V14.5ZM11.5 14.5H14C14.2761 14.5 14.5 14.2761 14.5 14V6.41421C14.5 6.28161 14.4473 6.15443 14.3536 6.06066L9.93934 1.64645C9.84557 1.55268 9.7184 1.5 9.58579 1.5H5.5V5C5.5 5.27614 5.72386 5.5 6 5.5H9C9.27614 5.5 9.5 5.72386 9.5 6C9.5 6.27614 9.27614 6.5 9 6.5H6C5.17157 6.5 4.5 5.82843 4.5 5V1.5H2C1.72386 1.5 1.5 1.72386 1.5 2V14C1.5 14.2761 1.72386 14.5 2 14.5H4.5V12C4.5 11.1716 5.17157 10.5 6 10.5H10C10.8284 10.5 11.5 11.1716 11.5 12V14.5Z" fill="#777B92"/>
</svg>
