<svg width="16" height="16" viewBox="0 0 16 16" fill="none" xmlns="http://www.w3.org/2000/svg">
<path fill-rule="evenodd" clip-rule="evenodd" d="M15.3536 0.646447C15.5488 0.841709 15.5488 1.15829 15.3536 1.35355L14.2071 2.5L15.3536 3.64645C15.5488 3.84171 15.5488 4.15829 15.3536 4.35355C15.1583 4.54882 14.8417 4.54882 14.6464 4.35355L13.5 3.20711L12.3536 4.35355C12.1583 4.54882 11.8417 4.54882 11.6464 4.35355C11.4512 4.15829 11.4512 3.84171 11.6464 3.64645L12.7929 2.5L11.6464 1.35355C11.4512 1.15829 11.4512 0.841709 11.6464 0.646447C11.8417 0.451184 12.1583 0.451184 12.3536 0.646447L13.5 1.79289L14.6464 0.646447C14.8417 0.451184 15.1583 0.451184 15.3536 0.646447Z" fill="#777B92"/>
<path fill-rule="evenodd" clip-rule="evenodd" d="M0.5 6C0.5 5.17157 1.17157 4.5 2 4.5H7.58579C7.98361 4.5 8.36514 4.65804 8.64645 4.93934L11.0607 7.35355C11.342 7.63486 11.5 8.01639 11.5 8.41421V14C11.5 14.8284 10.8284 15.5 10 15.5H2C1.17157 15.5 0.5 14.8284 0.5 14V6ZM7.5 14.5V13C7.5 12.7239 7.27614 12.5 7 12.5H5C4.72386 12.5 4.5 12.7239 4.5 13V14.5H7.5ZM8.5 14.5H10C10.2761 14.5 10.5 14.2761 10.5 14V8.41421C10.5 8.28161 10.4473 8.15443 10.3536 8.06066L7.93934 5.64645C7.84557 5.55268 7.71839 5.5 7.58579 5.5H4.5V7C4.5 7.27614 4.72386 7.5 5 7.5H6C6.27614 7.5 6.5 7.72386 6.5 8C6.5 8.27614 6.27614 8.5 6 8.5H5C4.17157 8.5 3.5 7.82843 3.5 7V5.5H2C1.72386 5.5 1.5 5.72386 1.5 6V14C1.5 14.2761 1.72386 14.5 2 14.5H3.5V13C3.5 12.1716 4.17157 11.5 5 11.5H7C7.82843 11.5 8.5 12.1716 8.5 13V14.5Z" fill="#777B92"/>
</svg>
