<svg width="16" height="16" viewBox="0 0 16 16" fill="none" xmlns="http://www.w3.org/2000/svg">
<path fill-rule="evenodd" clip-rule="evenodd" d="M13 4C13 4.55228 12.5523 5 12 5C11.4477 5 11 4.55228 11 4C11 3.44772 11.4477 3 12 3C12.5523 3 13 3.44772 13 4Z" fill="#777B92"/>
<path fill-rule="evenodd" clip-rule="evenodd" d="M11.6464 0.646447C11.8417 0.451184 12.1583 0.451184 12.3536 0.646447L15.3536 3.64645C15.5488 3.84171 15.5488 4.15829 15.3536 4.35355L4.35355 15.3536C4.15829 15.5488 3.84171 15.5488 3.64645 15.3536L0.646447 12.3536C0.451184 12.1583 0.451184 11.8417 0.646447 11.6464L11.6464 0.646447ZM5 8.70711L3.70711 10L4.85355 11.1464C5.04882 11.3417 5.04882 11.6583 4.85355 11.8536C4.65829 12.0488 4.34171 12.0488 4.14645 11.8536L3 10.7071L1.70711 12L4 14.2929L14.2929 4L12 1.70711L7.70711 6L8.85355 7.14645C9.04882 7.34171 9.04882 7.65829 8.85355 7.85355C8.65829 8.04882 8.34171 8.04882 8.14645 7.85355L7 6.70711L5.70711 8L6.85355 9.14645C7.04882 9.34171 7.04882 9.65829 6.85355 9.85355C6.65829 10.0488 6.34171 10.0488 6.14645 9.85355L5 8.70711Z" fill="#777B92"/>
</svg>
