<svg width="24" height="24" viewBox="0 0 24 24" fill="none" xmlns="http://www.w3.org/2000/svg">
<path fill-rule="evenodd" clip-rule="evenodd" d="M4 12C4 16.4183 7.58172 20 12 20C14.0496 20 15.9171 19.2306 17.3331 17.9632C17.7446 17.5949 18.3768 17.6299 18.7451 18.0414C19.1135 18.4529 19.0784 19.0851 18.6669 19.4535C16.8984 21.0363 14.5605 22 12 22C6.47715 22 2 17.5228 2 12C2 6.47715 6.47715 2 12 2C17.5228 2 22 6.47715 22 12C22 14.2091 20.2091 16 18 16C16.8809 16 15.8692 15.5405 15.1432 14.7998C14.2443 16.1274 12.7241 17 11 17C8.23858 17 6 14.7614 6 12C6 9.23858 8.23858 7 11 7C12.1256 7 13.1643 7.37194 14 7.99963C14.0002 7.44752 14.4478 7 15 7C15.5523 7 16 7.44772 16 8V12C16 13.1046 16.8954 14 18 14C19.1046 14 20 13.1046 20 12C20 7.58172 16.4183 4 12 4C7.58172 4 4 7.58172 4 12ZM14 12C14 10.3431 12.6569 9 11 9C9.34315 9 8 10.3431 8 12C8 13.6569 9.34315 15 11 15C12.6569 15 14 13.6569 14 12Z" fill="#777B92"/>
</svg>
