<svg width="24" height="24" viewBox="0 0 24 24" fill="none" xmlns="http://www.w3.org/2000/svg">
<path fill-rule="evenodd" clip-rule="evenodd" d="M8 19C7.44772 19 7 18.5523 7 18C7 17.4477 7.44772 17 8 17C8.55228 17 9 17.4477 9 18C9 18.5523 8.55228 19 8 19Z" fill="#777B92"/>
<path fill-rule="evenodd" clip-rule="evenodd" d="M9 12C9 12.5523 8.55228 13 8 13C7.44772 13 7 12.5523 7 12C7 11.4477 7.44772 11 8 11C8.55228 11 9 11.4477 9 12Z" fill="#777B92"/>
<path fill-rule="evenodd" clip-rule="evenodd" d="M8 7C7.44772 7 7 6.55228 7 6C7 5.44772 7.44772 5 8 5C8.55228 5 9 5.44772 9 6C9 6.55228 8.55228 7 8 7Z" fill="#777B92"/>
<path fill-rule="evenodd" clip-rule="evenodd" d="M5 2H19C20.1046 2 21 2.89543 21 4V20C21 21.1046 20.1046 22 19 22H5C3.89543 22 3 21.1046 3 20V4C3 2.89543 3.89543 2 5 2ZM5 20H19V16H5V20ZM5 14H19V10H5V14ZM19 8V4L5 4V8H19Z" fill="#777B92"/>
</svg>
