<svg width="24" height="24" viewBox="0 0 24 24" fill="none" xmlns="http://www.w3.org/2000/svg">
<path fill-rule="evenodd" clip-rule="evenodd" d="M4 2H8C9.10457 2 10 2.89543 10 4V5H14V4C14 2.89543 14.8954 2 16 2H20C21.1046 2 22 2.89543 22 4V8C22 9.10457 21.1046 10 20 10H19V14H20C21.1046 14 22 14.8954 22 16V20C22 21.1046 21.1046 22 20 22H16C14.8954 22 14 21.1046 14 20H10C10 21.1046 9.10457 22 8 22H4C2.89543 22 2 21.1046 2 20V16C2 14.8954 2.89543 14 4 14H5V10H4C2.89543 10 2 9.10457 2 8V4C2 2.89543 2.89543 2 4 2ZM14 18V16C14 14.8954 14.8954 14 16 14H17V10H16C14.8954 10 14 9.10457 14 8V7H10V8C10 9.10457 9.10457 10 8 10H7V14H8C9.10457 14 10 14.8954 10 16V18H14ZM16 20H20V16H16V20ZM8 16H4V20H8V16ZM8 4H4V8H8V4ZM16 8H20V4H16V8Z" fill="#777B92"/>
</svg>
