<svg width="24" height="24" viewBox="0 0 24 24" fill="none" xmlns="http://www.w3.org/2000/svg">
<path fill-rule="evenodd" clip-rule="evenodd" d="M9 6C9 6.55228 8.55228 7 8 7C7.44772 7 7 6.55228 7 6C7 5.44772 7.44772 5 8 5C8.55228 5 9 5.44772 9 6Z" fill="#777B92"/>
<path fill-rule="evenodd" clip-rule="evenodd" d="M3 4C3 2.89543 3.89543 2 5 2H19C20.1046 2 21 2.89543 21 4V13C21 13.5523 20.5523 14 20 14C19.4477 14 19 13.5523 19 13V10H5V14H13C13.5523 14 14 14.4477 14 15C14 15.5523 13.5523 16 13 16H5V20H14C14.5523 20 15 20.4477 15 21C15 21.5523 14.5523 22 14 22H5C3.89543 22 3 21.1046 3 20V4ZM19 8V4L5 4V8H19Z" fill="#777B92"/>
<path fill-rule="evenodd" clip-rule="evenodd" d="M8 13C7.44772 13 7 12.5523 7 12C7 11.4477 7.44772 11 8 11C8.55228 11 9 11.4477 9 12C9 12.5523 8.55228 13 8 13Z" fill="#777B92"/>
<path fill-rule="evenodd" clip-rule="evenodd" d="M9 18C9 18.5523 8.55228 19 8 19C7.44772 19 7 18.5523 7 18C7 17.4477 7.44772 17 8 17C8.55228 17 9 17.4477 9 18Z" fill="#777B92"/>
<path fill-rule="evenodd" clip-rule="evenodd" d="M18.8945 15.3293L19.8945 15.8293C20.5607 16.1624 21.0419 16.8787 20.958 17.7153C20.905 18.2435 20.7798 19.0489 20.4694 19.8162C20.1653 20.5679 19.6143 21.4486 18.6106 21.8512C18.2194 22.0082 17.7809 22.0081 17.3896 21.8512C16.3859 21.4486 15.8349 20.5679 15.5308 19.8162C15.2204 19.0489 15.0952 18.2435 15.0422 17.7153C14.9583 16.8787 15.4395 16.1624 16.1057 15.8293L17.1057 15.3293C17.6687 15.0478 18.3315 15.0478 18.8945 15.3293ZM18.0001 17.1182L17.0409 17.5978C17.089 18.029 17.1887 18.5813 17.3849 19.0661C17.5643 19.5098 17.7769 19.7839 18.0001 19.9258C18.2233 19.7839 18.4359 19.5098 18.6154 19.0661C18.8115 18.5813 18.9112 18.029 18.9593 17.5978L18.0001 17.1182Z" fill="#777B92"/>
</svg>
