<svg width="24" height="24" viewBox="0 0 24 24" fill="none" xmlns="http://www.w3.org/2000/svg">
<path fill-rule="evenodd" clip-rule="evenodd" d="M20.0001 2.73535V3.77939L17.0619 5.80531V5.83763L20.0001 5.83763V7.06809H14.9092V6.00915L17.8424 4.00559V3.96333L14.9092 3.96334V2.73535H20.0001Z" fill="#777B92"/>
<path fill-rule="evenodd" clip-rule="evenodd" d="M17.4547 7.78649C18.0148 7.78649 18.4896 7.89421 18.879 8.10964C19.2685 8.32508 19.5643 8.61674 19.7664 8.98464C19.9686 9.35088 20.0697 9.76187 20.0697 10.2176C20.0697 10.675 19.9686 11.0876 19.7664 11.4555C19.5626 11.8218 19.266 12.1118 18.8765 12.3256C18.4871 12.5393 18.0131 12.6462 17.4547 12.6462C16.8929 12.6462 16.4181 12.5393 16.0303 12.3256C15.6409 12.1118 15.345 11.8218 15.1429 11.4555C14.9407 11.0876 14.8396 10.675 14.8396 10.2176C14.8396 9.76187 14.9407 9.35088 15.1429 8.98464C15.345 8.61674 15.6409 8.32508 16.0303 8.10964C16.4181 7.89421 16.8929 7.78649 17.4547 7.78649ZM17.4547 9.0443C16.9558 9.0443 16.5755 9.14788 16.3137 9.35503C16.0502 9.56218 15.9184 9.8497 15.9184 10.2176C15.9184 10.5838 16.0502 10.8714 16.3137 11.0802C16.5755 11.2873 16.9558 11.3909 17.4547 11.3909C17.9535 11.3909 18.3346 11.2873 18.5981 11.0802C18.86 10.8714 18.9909 10.5838 18.9909 10.2176C18.9909 9.8497 18.86 9.56218 18.5981 9.35503C18.3346 9.14788 17.9535 9.0443 17.4547 9.0443Z" fill="#777B92"/>
<path fill-rule="evenodd" clip-rule="evenodd" d="M16.0104 14.6821C15.9077 14.8113 15.8563 14.9961 15.8563 15.2364C15.8563 15.4751 15.9019 15.654 15.993 15.7733C16.0825 15.8927 16.1968 15.9532 16.336 15.9548C16.4869 15.9598 16.6053 15.8943 16.6915 15.7584C16.776 15.6225 16.8432 15.4394 16.8929 15.2091L16.9923 14.7716C17.1033 14.2694 17.2848 13.885 17.5367 13.6182C17.7886 13.3497 18.1175 13.2146 18.5235 13.213C19.0075 13.2146 19.3853 13.3936 19.6571 13.7499C19.9289 14.1062 20.0647 14.6017 20.0647 15.2364C20.0647 15.8761 19.9206 16.3882 19.6322 16.7726C19.3422 17.1555 18.8997 17.351 18.3048 17.3593V16.181C18.5501 16.1678 18.7357 16.0774 18.8616 15.9101C18.9859 15.7427 19.0481 15.5231 19.0481 15.2513C19.0481 15.0044 18.9992 14.8113 18.9014 14.6721C18.8036 14.5329 18.6768 14.4625 18.5211 14.4608C18.3785 14.4625 18.265 14.5288 18.1805 14.6597C18.0943 14.7906 18.0189 14.9961 17.9543 15.2762L17.83 15.8082C17.7289 16.2473 17.5657 16.5945 17.3403 16.8497C17.1133 17.1033 16.8067 17.2292 16.4206 17.2275C16.104 17.2292 15.8273 17.1447 15.5903 16.974C15.3533 16.8033 15.1694 16.568 15.0385 16.268C14.9059 15.9664 14.8396 15.6217 14.8396 15.2339C14.8396 14.8395 14.9067 14.4973 15.0409 14.2073C15.1735 13.9156 15.36 13.6894 15.6003 13.5287C15.8389 13.3679 16.1173 13.2859 16.4355 13.2826V14.4608C16.2532 14.4774 16.1115 14.5512 16.0104 14.6821Z" fill="#777B92"/>
<path fill-rule="evenodd" clip-rule="evenodd" d="M14.9092 17.9851H18.4291C18.7589 17.9851 19.0472 18.063 19.2941 18.2188C19.5394 18.3745 19.73 18.59 19.8659 18.8651C20.0018 19.1402 20.0697 19.4575 20.0697 19.8171C20.0697 20.1336 20.0142 20.422 19.9032 20.6822C19.7921 20.9424 19.6198 21.1495 19.3861 21.3036C19.1525 21.4561 18.8533 21.5315 18.4887 21.5298V20.3043C18.686 20.2977 18.8376 20.2455 18.9436 20.1477C19.0481 20.05 19.1003 19.9165 19.1003 19.7475C19.1003 19.3846 18.8765 19.2015 18.4291 19.1982H14.9092V17.9851Z" fill="#777B92"/>
<path fill-rule="evenodd" clip-rule="evenodd" d="M5 7.99958C5 8.33753 5.18836 8.7677 5.68559 9.2111C5.71165 9.23148 5.73689 9.25331 5.7612 9.27659C6.02235 9.49649 6.36054 9.71867 6.79036 9.93358C8.07196 10.5744 9.91244 10.9996 12 10.9996C12.5523 10.9996 13 11.4473 13 11.9996C13 12.5519 12.5523 12.9996 12 12.9996C9.66928 12.9996 7.50977 12.5294 5.89593 11.7224C5.66091 11.6049 5.43073 11.4764 5.20932 11.337C5.05857 11.58 5 11.8036 5 11.9996C5 12.3375 5.18831 12.7676 5.68541 13.2109C5.71158 13.2314 5.73693 13.2533 5.76134 13.2767C6.02247 13.4966 6.36061 13.7187 6.79036 13.9336C8.07196 14.5744 9.91244 14.9996 12 14.9996C12.5523 14.9996 13 15.4473 13 15.9996C13 16.5519 12.5523 16.9996 12 16.9996C9.66928 16.9996 7.50977 16.5294 5.89593 15.7225C5.6609 15.6049 5.43073 15.4764 5.20931 15.3371C5.05856 15.58 5 15.8036 5 15.9996C5 16.5213 5.44895 17.2629 6.79036 17.9336C8.07196 18.5744 9.91244 18.9996 12 18.9996C12.5523 18.9996 13 19.4473 13 19.9996C13 20.5519 12.5523 20.9996 12 20.9996C9.66928 20.9996 7.50977 20.5294 5.89593 19.7225C4.34191 18.9454 3 17.687 3 15.9996C3 15.2472 3.27354 14.5754 3.70347 14.0006C3.26812 13.4224 3 12.7539 3 11.9996C3 11.2472 3.27354 10.5754 3.70347 10.0006C3.26813 9.42241 3 8.75385 3 7.99958C3 6.31219 4.34191 5.05374 5.89593 4.27673C7.50977 3.46981 9.66928 2.99958 12 2.99958C12.5523 2.99958 13 3.4473 13 3.99958C13 4.55187 12.5523 4.99958 12 4.99958C9.91244 4.99958 8.07196 5.42479 6.79036 6.06558C5.44895 6.73629 5 7.47784 5 7.99958Z" fill="#777B92"/>
</svg>
