<svg width="16" height="16" viewBox="0 0 16 16" fill="none" xmlns="http://www.w3.org/2000/svg">
<path fill-rule="evenodd" clip-rule="evenodd" d="M13.5001 2.28078C13.5001 1.9555 13.1944 1.71682 12.8789 1.79571L6.12139 3.48508C5.85349 3.55205 5.58202 3.38917 5.51505 3.12127C5.44807 2.85338 5.61095 2.58191 5.87885 2.51494L12.6363 0.82557C13.583 0.58889 14.5001 1.30493 14.5001 2.28078V11C14.5001 11.2761 14.2763 11.5 14.0001 11.5C13.9882 11.5 13.9764 11.4996 13.9648 11.4988C13.7051 11.4807 13.5 11.2643 13.5 11C13.5 10.1716 12.8284 9.5 12 9.5C11.7239 9.5 11.5 9.27614 11.5 9C11.5 8.72386 11.7239 8.5 12 8.5C12.5629 8.5 13.0823 8.68601 13.5001 8.99991V2.28078Z" fill="#777B92"/>
<path fill-rule="evenodd" clip-rule="evenodd" d="M6.00012 8.50001C6.27626 8.50001 6.50012 8.72387 6.50012 9.00001V13L6.49997 13.0123C6.49335 14.3873 5.37661 15.5 4 15.5C2.61929 15.5 1.5 14.3807 1.5 13C1.5 11.6193 2.61929 10.5 4 10.5C4.56286 10.5 5.08227 10.686 5.50012 10.9999V9.00001C5.50012 8.72387 5.72398 8.50001 6.00012 8.50001ZM2.5 13C2.5 13.8284 3.17157 14.5 4 14.5C4.82843 14.5 5.5 13.8284 5.5 13C5.5 12.1716 4.82843 11.5 4 11.5C3.17157 11.5 2.5 12.1716 2.5 13Z" fill="#777B92"/>
<path fill-rule="evenodd" clip-rule="evenodd" d="M2.35355 1.64645L14.3536 13.6464C14.5488 13.8417 14.5488 14.1583 14.3536 14.3536C14.1583 14.5488 13.8417 14.5488 13.6464 14.3536L1.64645 2.35355C1.45118 2.15829 1.45118 1.84171 1.64645 1.64645C1.84171 1.45118 2.15829 1.45118 2.35355 1.64645Z" fill="#777B92"/>
</svg>
