<svg width="16" height="16" viewBox="0 0 16 16" fill="none" xmlns="http://www.w3.org/2000/svg">
<path fill-rule="evenodd" clip-rule="evenodd" d="M8 0.5C9.38071 0.5 10.5 1.61929 10.5 3V7C10.5 7.27614 10.2761 7.5 10 7.5C9.72386 7.5 9.5 7.27614 9.5 7V3C9.5 2.17157 8.82843 1.5 8 1.5C7.17157 1.5 6.5 2.17157 6.5 3V4C6.5 4.27614 6.27614 4.5 6 4.5C5.72386 4.5 5.5 4.27614 5.5 4V3C5.5 1.61929 6.61929 0.5 8 0.5Z" fill="#777B92"/>
<path fill-rule="evenodd" clip-rule="evenodd" d="M7.5 12.4725C5.25002 12.2238 3.5 10.3163 3.5 8C3.5 7.72386 3.72386 7.5 4 7.5C4.27614 7.5 4.5 7.72386 4.5 8C4.5 9.933 6.067 11.5 8 11.5C8.30291 11.5 8.59612 11.4616 8.87537 11.3898C9.1428 11.3209 9.41539 11.4819 9.48422 11.7494C9.55305 12.0168 9.39206 12.2894 9.12463 12.3582C8.92145 12.4105 8.71287 12.4489 8.5 12.4725V14.5H10C10.2761 14.5 10.5 14.7239 10.5 15C10.5 15.2761 10.2761 15.5 10 15.5H6C5.72386 15.5 5.5 15.2761 5.5 15C5.5 14.7239 5.72386 14.5 6 14.5H7.5V12.4725Z" fill="#777B92"/>
<path fill-rule="evenodd" clip-rule="evenodd" d="M12.5 8C12.5 8.38769 12.4509 8.76464 12.3582 9.12463C12.2894 9.39206 12.0168 9.55305 11.7494 9.48422C11.4819 9.41539 11.3209 9.1428 11.3898 8.87537C11.4616 8.59612 11.5 8.30291 11.5 8C11.5 7.72386 11.7239 7.5 12 7.5C12.2761 7.5 12.5 7.72386 12.5 8Z" fill="#777B92"/>
<path fill-rule="evenodd" clip-rule="evenodd" d="M1.64645 1.64645C1.84171 1.45118 2.15829 1.45118 2.35355 1.64645L14.3536 13.6464C14.5488 13.8417 14.5488 14.1583 14.3536 14.3536C14.1583 14.5488 13.8417 14.5488 13.6464 14.3536L1.64645 2.35355C1.45118 2.15829 1.45118 1.84171 1.64645 1.64645Z" fill="#777B92"/>
<path fill-rule="evenodd" clip-rule="evenodd" d="M6.5 8C6.5 8.25332 6.58011 8.64443 6.80577 8.95785C7.01307 9.24577 7.36296 9.5 8 9.5C8.27614 9.5 8.5 9.72386 8.5 10C8.5 10.2761 8.27614 10.5 8 10.5C7.03704 10.5 6.38693 10.0876 5.99423 9.54215C5.61989 9.02223 5.5 8.41334 5.5 8C5.5 7.72386 5.72386 7.5 6 7.5C6.27614 7.5 6.5 7.72386 6.5 8Z" fill="#777B92"/>
</svg>
