<svg width="22" height="22" viewBox="0 0 22 22" fill="none" xmlns="http://www.w3.org/2000/svg">
<path d="M14 10H15C15.2652 10 15.5196 10.1054 15.7071 10.2929C15.8946 10.4804 16 10.7348 16 11C16 11.2652 15.8946 11.5196 15.7071 11.7071C15.5196 11.8946 15.2652 12 15 12H14V13C14 13.2652 13.8946 13.5196 13.7071 13.7071C13.5196 13.8946 13.2652 14 13 14C12.7348 14 12.4804 13.8946 12.2929 13.7071C12.1054 13.5196 12 13.2652 12 13V12H11C10.7348 12 10.4804 11.8946 10.2929 11.7071C10.1054 11.5196 10 11.2652 10 11C10 10.7348 10.1054 10.4804 10.2929 10.2929C10.4804 10.1054 10.7348 10 11 10H12V9C12 8.73478 12.1054 8.48043 12.2929 8.29289C12.4804 8.10536 12.7348 8 13 8C13.2652 8 13.5196 8.10536 13.7071 8.29289C13.8946 8.48043 14 8.73478 14 9V10Z" fill="#97A3BA"/>
<path fill-rule="evenodd" clip-rule="evenodd" d="M9.16919 3C8.62754 3 8.10807 3.21071 7.72507 3.58579L1.59818 9.58579C0.800607 10.3668 0.80061 11.6332 1.59818 12.4142L7.72507 18.4142C8.10807 18.7893 8.62754 19 9.16919 19H18.9577C20.0856 19 21 18.1046 21 17V5C21 3.89543 20.0856 3 18.9577 3H9.16919ZM9.16919 5H18.9577V17L9.16919 17L3.0423 11L9.16919 5Z" fill="#97A3BA"/>
</svg>
