<svg width="22" height="22" viewBox="0 0 22 22" fill="none" xmlns="http://www.w3.org/2000/svg">
<path d="M2.74334 3.80614C2.26481 4.12956 1.60562 4.03963 1.24068 3.60114C0.84493 3.12563 0.948695 2.4296 1.46763 2.07887L4.25666 0.193859C4.73519 -0.129558 5.39438 -0.0396275 5.75932 0.398858C6.15507 0.874372 6.05131 1.5704 5.53237 1.92113L2.74334 3.80614Z" fill="#97A3BA"/>
<path d="M20.7593 3.60114C20.3944 4.03963 19.7352 4.12956 19.2567 3.80614L16.4676 1.92113C15.9487 1.5704 15.8449 0.874372 16.2407 0.398858C16.6056 -0.0396275 17.2648 -0.129558 17.7433 0.193859L20.5324 2.07887C21.0513 2.4296 21.1551 3.12563 20.7593 3.60114Z" fill="#97A3BA"/>
<path d="M12 11H13C13.2652 11 13.5196 11.1054 13.7071 11.2929C13.8946 11.4804 14 11.7348 14 12C14 12.2652 13.8946 12.5196 13.7071 12.7071C13.5196 12.8946 13.2652 13 13 13H12V14C12 14.2652 11.8946 14.5196 11.7071 14.7071C11.5196 14.8946 11.2652 15 11 15C10.7348 15 10.4804 14.8946 10.2929 14.7071C10.1054 14.5196 10 14.2652 10 14V13H9C8.73478 13 8.48043 12.8946 8.29289 12.7071C8.10536 12.5196 8 12.2652 8 12C8 11.7348 8.10536 11.4804 8.29289 11.2929C8.48043 11.1054 8.73478 11 9 11H10V10C10 9.73478 10.1054 9.48043 10.2929 9.29289C10.4804 9.10536 10.7348 9 11 9C11.2652 9 11.5196 9.10536 11.7071 9.29289C11.8946 9.48043 12 9.73478 12 10V11Z" fill="#97A3BA"/>
<path fill-rule="evenodd" clip-rule="evenodd" d="M5.4443 3.6853C7.08879 2.58649 9.02219 2 11 2C12.3132 2 13.6136 2.25866 14.8268 2.7612C16.0401 3.26375 17.1425 4.00035 18.0711 4.92893C18.9997 5.85752 19.7363 6.95991 20.2388 8.17317C20.7413 9.38642 21 10.6868 21 12C21 13.9778 20.4135 15.9112 19.3147 17.5557C18.2159 19.2002 16.6541 20.4819 14.8268 21.2388C12.9996 21.9957 10.9889 22.1937 9.0491 21.8079C7.10929 21.422 5.32746 20.4696 3.92894 19.0711C2.53041 17.6725 1.578 15.8907 1.19215 13.9509C0.8063 12.0111 1.00433 10.0004 1.76121 8.17317C2.51809 6.3459 3.79981 4.78412 5.4443 3.6853ZM6.55544 18.6518C7.87104 19.5308 9.41775 20 11 20C13.1217 20 15.1566 19.1571 16.6569 17.6569C18.1572 16.1566 19 14.1217 19 12C19 10.4177 18.5308 8.87103 17.6518 7.55544C16.7727 6.23984 15.5233 5.21447 14.0615 4.60896C12.5997 4.00346 10.9911 3.84504 9.43928 4.15372C7.88743 4.4624 6.46197 5.22433 5.34315 6.34315C4.22433 7.46197 3.4624 8.88743 3.15372 10.4393C2.84504 11.9911 3.00347 13.5997 3.60897 15.0615C4.21447 16.5233 5.23985 17.7727 6.55544 18.6518Z" fill="#97A3BA"/>
</svg>
