<svg width="24" height="24" viewBox="0 0 24 24" fill="none" xmlns="http://www.w3.org/2000/svg">
<path fill-rule="evenodd" clip-rule="evenodd" d="M14 9C14.5523 9 15 9.44772 15 10V11H16C16.5523 11 17 11.4477 17 12C17 12.5523 16.5523 13 16 13H15V14C15 14.5523 14.5523 15 14 15C13.4477 15 13 14.5523 13 14V13H12C11.4477 13 11 12.5523 11 12C11 11.4477 11.4477 11 12 11H13V10C13 9.44772 13.4477 9 14 9Z" fill="#777B92"/>
<path fill-rule="evenodd" clip-rule="evenodd" d="M10.4142 4H20C21.1045 4 22 4.89543 22 6V18C22 19.1046 21.1045 20 20 20H10.4142C9.88375 20 9.37504 19.7893 8.99997 19.4142L2.99997 13.4142C2.21892 12.6332 2.21892 11.3668 2.99997 10.5858L8.99997 4.58579C9.37505 4.21071 9.88375 4 10.4142 4ZM10.4142 6L4.41418 12L10.4142 18H20V6L10.4142 6Z" fill="#777B92"/>
</svg>
