<svg width="22" height="22" viewBox="0 0 22 22" fill="none" xmlns="http://www.w3.org/2000/svg">
<path d="M12 8H13C13.2652 8 13.5196 8.10536 13.7071 8.29289C13.8946 8.48043 14 8.73478 14 9C14 9.26522 13.8946 9.51957 13.7071 9.70711C13.5196 9.89464 13.2652 10 13 10H12V11C12 11.2652 11.8946 11.5196 11.7071 11.7071C11.5196 11.8946 11.2652 12 11 12C10.7348 12 10.4804 11.8946 10.2929 11.7071C10.1054 11.5196 10 11.2652 10 11V10H9C8.73478 10 8.48043 9.89464 8.29289 9.70711C8.10536 9.51957 8 9.26522 8 9C8 8.73478 8.10536 8.48043 8.29289 8.29289C8.48043 8.10536 8.73478 8 9 8H10V7C10 6.73478 10.1054 6.48043 10.2929 6.29289C10.4804 6.10536 10.7348 6 11 6C11.2652 6 11.5196 6.10536 11.7071 6.29289C11.8946 6.48043 12 6.73478 12 7V8Z" fill="#97A3BA"/>
<path fill-rule="evenodd" clip-rule="evenodd" d="M17.7269 12.3977L19.5287 14.2077C19.755 14.4376 19.9085 14.729 19.97 15.0455C20.0314 15.362 19.9981 15.6896 19.8742 15.9873C19.7503 16.2851 19.5413 16.5397 19.2733 16.7194C19.0053 16.8991 18.6903 16.9959 18.3675 16.9977H15.0041V17.3377C14.9573 18.3529 14.5096 19.3082 13.7591 19.9942C13.0086 20.6803 12.0164 21.0411 11 20.9977C9.98361 21.0411 8.99144 20.6803 8.2409 19.9942C7.49036 19.3082 7.04266 18.3529 6.9959 17.3377V16.9977H3.63247C3.30972 16.9959 2.99466 16.8991 2.72669 16.7194C2.45872 16.5397 2.24971 16.2851 2.1258 15.9873C2.00189 15.6896 1.96858 15.362 2.03003 15.0455C2.09147 14.729 2.24495 14.4376 2.47128 14.2077L4.27312 12.3977V7.7277C4.27487 6.76931 4.4812 5.82231 4.87835 4.94989C5.27549 4.07747 5.85432 3.2997 6.5762 2.66846C7.29808 2.03722 8.14643 1.56703 9.06463 1.28927C9.98282 1.01151 10.9498 0.932564 11.9009 1.0577C13.5398 1.30863 15.0325 2.14346 16.1033 3.40803C17.1742 4.67261 17.7508 6.28152 17.7269 7.9377V12.3977ZM12.3344 18.569C12.7074 18.2598 12.9465 17.8187 13.002 17.3377V16.9977H8.99795V17.3377C9.05347 17.8187 9.29261 18.2598 9.66556 18.569C10.0385 18.8782 10.5165 19.0318 11 18.9977C11.4835 19.0318 11.9615 18.8782 12.3344 18.569ZM5.68456 13.8177L4.50336 14.9977H17.4966L16.3054 13.8177C16.1199 13.6308 15.9731 13.4092 15.8734 13.1655C15.7738 12.9218 15.7233 12.6609 15.7248 12.3977V7.8977C15.7496 6.72633 15.35 5.58544 14.5996 4.68508C13.8491 3.78471 12.7983 3.18547 11.6407 2.9977C10.969 2.91013 10.2864 2.96941 9.63995 3.17143C8.99352 3.37345 8.39876 3.71338 7.89683 4.1677C7.38803 4.61125 6.98009 5.15839 6.7004 5.77241C6.4207 6.38642 6.27571 7.0531 6.27517 7.7277V12.3977C6.27538 12.6616 6.2233 12.923 6.12193 13.1667C6.02057 13.4104 5.87192 13.6316 5.68456 13.8177Z" fill="#97A3BA"/>
</svg>
