<svg width="24" height="24" viewBox="0 0 24 24" fill="none" xmlns="http://www.w3.org/2000/svg">
<path fill-rule="evenodd" clip-rule="evenodd" d="M12 11C12.5523 11 13 11.4477 13 12V13H14C14.5523 13 15 13.4477 15 14C15 14.5523 14.5523 15 14 15H13V16C13 16.5523 12.5523 17 12 17C11.4477 17 11 16.5523 11 16V15H10C9.44772 15 9 14.5523 9 14C9 13.4477 9.44772 13 10 13H11V12C11 11.4477 11.4477 11 12 11Z" fill="#777B92"/>
<path fill-rule="evenodd" clip-rule="evenodd" d="M6 2H12.5858C13.1162 2 13.6249 2.21071 14 2.58579L19.4142 8C19.7893 8.37507 20 8.88378 20 9.41421V20C20 21.1046 19.1046 22 18 22H6C4.89543 22 4 21.1046 4 20V4C4 2.89543 4.89543 2 6 2ZM12 4H6V20H18V10H14C12.8954 10 12 9.10457 12 8V4ZM16.5858 8L14 5.41421V8H16.5858Z" fill="#777B92"/>
</svg>
