<svg width="22" height="22" viewBox="0 0 22 22" fill="none" xmlns="http://www.w3.org/2000/svg">
<path d="M18 2H19C19.2652 2 19.5196 2.10536 19.7071 2.29289C19.8946 2.48043 20 2.73478 20 3C20 3.26522 19.8946 3.51957 19.7071 3.70711C19.5196 3.89464 19.2652 4 19 4H18V5C18 5.26522 17.8946 5.51957 17.7071 5.70711C17.5196 5.89464 17.2652 6 17 6C16.7348 6 16.4804 5.89464 16.2929 5.70711C16.1054 5.51957 16 5.26522 16 5V4H15C14.7348 4 14.4804 3.89464 14.2929 3.70711C14.1054 3.51957 14 3.26522 14 3C14 2.73478 14.1054 2.48043 14.2929 2.29289C14.4804 2.10536 14.7348 2 15 2H16V1C16 0.734784 16.1054 0.48043 16.2929 0.292893C16.4804 0.105357 16.7348 0 17 0C17.2652 0 17.5196 0.105357 17.7071 0.292893C17.8946 0.48043 18 0.734784 18 1V2Z" fill="#97A3BA"/>
<path d="M12 1.8917C12 1.41798 11.6472 1.01212 11.1736 1.00187C11.1158 1.00062 11.0579 0.999997 11 1C8.89206 0.999895 6.86926 1.83176 5.37124 3.31479C3.87323 4.79782 3.02108 6.81216 3 8.92C3 14.3904 10.0253 20.4787 10.3484 20.7586L10.35 20.76C10.5311 20.9149 10.7616 21.0001 11 21.0001C11.2384 21.0001 11.4689 20.9149 11.65 20.76C12 20.5 19 14.4 19 8.92L18.9992 8.86191C18.9907 8.36797 18.5672 8 18.0732 8H17.8527C17.3673 8 17 8.43456 17 8.92C17 12.62 12.67 17.06 11 18.65C9.33 17.06 5 12.65 5 8.92C5 7.3287 5.63214 5.80258 6.75736 4.67736C7.88258 3.55214 9.4087 2.92 11 2.92C11.5255 2.92 12 2.5247 12 1.99921V1.8917Z" fill="#97A3BA"/>
<path fill-rule="evenodd" clip-rule="evenodd" d="M11 5C10.3078 5 9.63108 5.20527 9.05551 5.58986C8.47993 5.97444 8.03133 6.52107 7.76642 7.16061C7.50152 7.80015 7.4322 8.50388 7.56725 9.18282C7.7023 9.86175 8.03564 10.4854 8.52513 10.9749C9.01461 11.4644 9.63825 11.7977 10.3172 11.9327C10.9961 12.0678 11.6999 11.9985 12.3394 11.7336C12.9789 11.4687 13.5256 11.0201 13.9101 10.4445C14.2947 9.86892 14.5 9.19223 14.5 8.5C14.5 7.57174 14.1313 6.6815 13.4749 6.02513C12.8185 5.36875 11.9283 5 11 5ZM11 10C10.7033 10 10.4133 9.91203 10.1666 9.7472C9.91997 9.58238 9.72771 9.34811 9.61418 9.07403C9.50065 8.79994 9.47095 8.49834 9.52882 8.20736C9.5867 7.91639 9.72956 7.64912 9.93934 7.43934C10.1491 7.22956 10.4164 7.0867 10.7074 7.02882C10.9983 6.97094 11.2999 7.00065 11.574 7.11418C11.8481 7.22771 12.0824 7.41997 12.2472 7.66665C12.412 7.91332 12.5 8.20333 12.5 8.5C12.5 8.89783 12.342 9.27936 12.0607 9.56066C11.7794 9.84196 11.3978 10 11 10Z" fill="#97A3BA"/>
</svg>
