<svg width="24" height="24" viewBox="0 0 24 24" fill="none" xmlns="http://www.w3.org/2000/svg">
<path fill-rule="evenodd" clip-rule="evenodd" d="M19 1C19.5523 1 20 1.44772 20 2V3H21C21.5523 3 22 3.44772 22 4C22 4.55228 21.5523 5 21 5H20V6C20 6.55228 19.5523 7 19 7C18.4477 7 18 6.55228 18 6V5H17C16.4477 5 16 4.55228 16 4C16 3.44772 16.4477 3 17 3H18V2C18 1.44772 18.4477 1 19 1Z" fill="#777B92"/>
<path fill-rule="evenodd" clip-rule="evenodd" d="M4 3H13C13.5523 3 14 3.44772 14 4C14 4.55228 13.5523 5 13 5H4V19H18V10C18 9.44772 18.4477 9 19 9C19.5523 9 20 9.44772 20 10V19C20 20.1046 19.1046 21 18 21H4C2.89543 21 2 20.1046 2 19V5C2 3.89543 2.89543 3 4 3Z" fill="#777B92"/>
</svg>
