<svg width="22" height="22" viewBox="0 0 22 22" fill="none" xmlns="http://www.w3.org/2000/svg">
<path d="M12 9H13C13.2652 9 13.5196 9.10536 13.7071 9.29289C13.8946 9.48043 14 9.73478 14 10C14 10.2652 13.8946 10.5196 13.7071 10.7071C13.5196 10.8946 13.2652 11 13 11H12V12C12 12.2652 11.8946 12.5196 11.7071 12.7071C11.5196 12.8946 11.2652 13 11 13C10.7348 13 10.4804 12.8946 10.2929 12.7071C10.1054 12.5196 10 12.2652 10 12V11H9C8.73478 11 8.48043 10.8946 8.29289 10.7071C8.10536 10.5196 8 10.2652 8 10C8 9.73478 8.10536 9.48043 8.29289 9.29289C8.48043 9.10536 8.73478 9 9 9H10V8C10 7.73478 10.1054 7.48043 10.2929 7.29289C10.4804 7.10536 10.7348 7 11 7C11.2652 7 11.5196 7.10536 11.7071 7.29289C11.8946 7.48043 12 7.73478 12 8V9Z" fill="#97A3BA"/>
<path fill-rule="evenodd" clip-rule="evenodd" d="M6 1C4.34315 1 3 2.34175 3 3.99688V19.0004C3 20.382 4.37019 21.3466 5.67267 20.8819L11 18.9813L16.3273 20.8819C17.6298 21.3466 19 20.382 19 19.0004V3.99688C19 2.34175 17.6569 1 16 1H6ZM5 3.99688C5 3.44517 5.44772 2.99792 6 2.99792H16C16.5523 2.99792 17 3.44517 17 3.99688V19.0004L11.6727 17.0998C11.2377 16.9446 10.7623 16.9446 10.3273 17.0998L5 19.0004V3.99688Z" fill="#97A3BA"/>
</svg>
