<svg width="22" height="22" viewBox="0 0 22 22" fill="none" xmlns="http://www.w3.org/2000/svg">
<path d="M15 8H14V7C14 6.73478 13.8946 6.48043 13.7071 6.29289C13.5196 6.10536 13.2652 6 13 6C12.7348 6 12.4804 6.10536 12.2929 6.29289C12.1054 6.48043 12 6.73478 12 7V8H11C10.7348 8 10.4804 8.10536 10.2929 8.29289C10.1054 8.48043 10 8.73478 10 9C10 9.26522 10.1054 9.51957 10.2929 9.70711C10.4804 9.89464 10.7348 10 11 10H12V11C12 11.2652 12.1054 11.5196 12.2929 11.7071C12.4804 11.8946 12.7348 12 13 12C13.2652 12 13.5196 11.8946 13.7071 11.7071C13.8946 11.5196 14 11.2652 14 11V10H15C15.2652 10 15.5196 9.89464 15.7071 9.70711C15.8946 9.51957 16 9.26522 16 9C16 8.73478 15.8946 8.48043 15.7071 8.29289C15.5196 8.10536 15.2652 8 15 8Z" fill="#97A3BA"/>
<path fill-rule="evenodd" clip-rule="evenodd" d="M8 1C6.34315 1 5 2.34315 5 4C3.34315 4 2 5.34315 2 7V17C2 18.6569 3.34315 20 5 20H15C16.6569 20 18 18.6569 18 17C19.6569 17 21 15.6569 21 14V4C21 2.34315 19.6569 1 18 1H8ZM16 17H8C6.34315 17 5 15.6569 5 14V6C4.44772 6 4 6.44772 4 7V17C4 17.5523 4.44772 18 5 18H15C15.5523 18 16 17.5523 16 17ZM7 4C7 3.44772 7.44772 3 8 3H18C18.5523 3 19 3.44772 19 4V14C19 14.5523 18.5523 15 18 15H8C7.44772 15 7 14.5523 7 14V4Z" fill="#97A3BA"/>
</svg>
