<svg width="24" height="24" viewBox="0 0 24 24" fill="none" xmlns="http://www.w3.org/2000/svg">
<path fill-rule="evenodd" clip-rule="evenodd" d="M7.27929 1.94483C8.24977 1.97752 8.96697 2.71893 9.11072 3.58146L9.86498 8.10721C10.0093 8.97327 9.57193 9.83219 8.78662 10.2248L8.25823 10.489C8.96882 12.0387 10.6296 14.3897 13.5207 15.7226L13.7753 15.2135C14.1679 14.4282 15.0269 13.9908 15.8929 14.1351L20.5813 14.9165C21.2625 15.0301 21.9776 15.5312 22.1358 16.3901C22.6677 19.2776 20.3973 21.9999 17.5 21.9999C8.93959 21.9999 2 15.0603 2 6.49987C2 4.94065 2.53226 3.70303 3.58478 2.90419C4.59178 2.13991 5.91846 1.899 7.27929 1.94483ZM4 6.49987C4 13.9557 10.0442 19.9999 17.5 19.9999C19.0976 19.9999 20.4081 18.4982 20.1891 16.8788L15.5641 16.1079L15.293 16.6502C14.8478 17.5406 13.7584 18.0259 12.7621 17.5748C9.20107 15.9627 7.20961 13.07 6.38022 11.1892C5.93945 10.1897 6.46085 9.15166 7.30509 8.72955L7.89219 8.43599L7.14317 3.94169C6.05113 3.91464 5.27733 4.13041 4.79391 4.4973C4.34593 4.83731 4 5.4194 4 6.49987Z" fill="#777B92"/>
<path fill-rule="evenodd" clip-rule="evenodd" d="M18 3C18.5523 3 19 3.44772 19 4V5H20C20.5523 5 21 5.44772 21 6C21 6.55228 20.5523 7 20 7H19V8C19 8.55228 18.5523 9 18 9C17.4477 9 17 8.55228 17 8V7H16C15.4477 7 15 6.55228 15 6C15 5.44772 15.4477 5 16 5H17V4C17 3.44772 17.4477 3 18 3Z" fill="#777B92"/>
</svg>
