<svg width="24" height="24" viewBox="0 0 24 24" fill="none" xmlns="http://www.w3.org/2000/svg">
<path fill-rule="evenodd" clip-rule="evenodd" d="M11 4C11.5523 4 12 4.44772 12 5V11H18C18.5523 11 19 11.4477 19 12C19 12.5523 18.5523 13 18 13H12V19C12 19.5523 11.5523 20 11 20C10.4477 20 10 19.5523 10 19V13H4C3.44772 13 3 12.5523 3 12C3 11.4477 3.44772 11 4 11H10V5C10 4.44772 10.4477 4 11 4Z" fill="#777B92"/>
<path fill-rule="evenodd" clip-rule="evenodd" d="M16.0806 16H19.9194C20.7579 16 21.224 16.9699 20.7002 17.6247L18.7809 20.0239C18.3805 20.5243 17.6194 20.5243 17.2191 20.0239L15.2997 17.6247C14.7759 16.9699 15.2421 16 16.0806 16Z" fill="#777B92"/>
</svg>
