<svg width="24" height="24" viewBox="0 0 24 24" fill="none" xmlns="http://www.w3.org/2000/svg">
<path fill-rule="evenodd" clip-rule="evenodd" d="M15 8V9H16C16.5523 9 17 9.44772 17 10C17 10.5523 16.5523 11 16 11H15V12C15 12.5523 14.5523 13 14 13C13.4477 13 13 12.5523 13 12V11H12C11.4477 11 11 10.5523 11 10C11 9.44772 11.4477 9 12 9H13V8C13 7.44772 13.4477 7 14 7C14.5523 7 15 7.44772 15 8Z" fill="#777B92"/>
<path fill-rule="evenodd" clip-rule="evenodd" d="M6 4C6 2.89543 6.89543 2 8 2H20C21.1046 2 22 2.89543 22 4V16C22 17.1046 21.1046 18 20 18H19V19C19 20.1046 18.1046 21 17 21H5C3.89543 21 3 20.1046 3 19V7C3 5.89543 3.89543 5 5 5H6V4ZM6 7L5 7V19H17V18H8C6.89543 18 6 17.1046 6 16V7ZM8 16H20V4L8 4V16Z" fill="#777B92"/>
</svg>
