<svg width="22" height="22" viewBox="0 0 22 22" fill="none" xmlns="http://www.w3.org/2000/svg">
<path d="M20 3H21C21.2652 3 21.5196 3.10536 21.7071 3.29289C21.8946 3.48043 22 3.73478 22 4C22 4.26522 21.8946 4.51957 21.7071 4.70711C21.5196 4.89464 21.2652 5 21 5H20V6C20 6.26522 19.8946 6.51957 19.7071 6.70711C19.5196 6.89464 19.2652 7 19 7C18.7348 7 18.4804 6.89464 18.2929 6.70711C18.1054 6.51957 18 6.26522 18 6V5H17C16.7348 5 16.4804 4.89464 16.2929 4.70711C16.1054 4.51957 16 4.26522 16 4C16 3.73478 16.1054 3.48043 16.2929 3.29289C16.4804 3.10536 16.7348 3 17 3H18V2C18 1.73478 18.1054 1.48043 18.2929 1.29289C18.4804 1.10536 18.7348 1 19 1C19.2652 1 19.5196 1.10536 19.7071 1.29289C19.8946 1.48043 20 1.73478 20 2V3Z" fill="#97A3BA"/>
<path fill-rule="evenodd" clip-rule="evenodd" d="M1 5H2.2362L5.03524 15.2631C5.15389 15.6982 5.54905 16 6 16H15C15.4 16 15.7616 15.7616 15.9191 15.3939L18.9191 8.39392C19.2019 7.73405 18.7179 7 18 7H4.8547L3.7638 3H1C0.447716 3 0 3.44772 0 4C0 4.55228 0.447715 5 1 5ZM6.7638 14L5.40016 9H16.4835L14.3406 14H6.7638Z" fill="#97A3BA"/>
<path d="M7 19.5C7 20.3284 6.32843 21 5.5 21C4.67157 21 4 20.3284 4 19.5C4 18.6716 4.67157 18 5.5 18C6.32843 18 7 18.6716 7 19.5Z" fill="#97A3BA"/>
<path d="M15.5 21C16.3284 21 17 20.3284 17 19.5C17 18.6716 16.3284 18 15.5 18C14.6716 18 14 18.6716 14 19.5C14 20.3284 14.6716 21 15.5 21Z" fill="#97A3BA"/>
</svg>
