<svg width="22" height="22" viewBox="0 0 22 22" fill="none" xmlns="http://www.w3.org/2000/svg">
<path fill-rule="evenodd" clip-rule="evenodd" d="M13 4C9.13401 4 6 7.13401 6 11C6 14.866 9.13401 18 13 18C16.866 18 20 14.866 20 11C20 7.13401 16.866 4 13 4ZM4 11C4 6.02944 8.02944 2 13 2C17.9706 2 22 6.02944 22 11C22 15.9706 17.9706 20 13 20C8.02944 20 4 15.9706 4 11ZM15 10H14V9C14 8.73478 13.8946 8.48043 13.7071 8.29289C13.5196 8.10536 13.2652 8 13 8C12.7348 8 12.4804 8.10536 12.2929 8.29289C12.1054 8.48043 12 8.73478 12 9V10H11C10.7348 10 10.4804 10.1054 10.2929 10.2929C10.1054 10.4804 10 10.7348 10 11C10 11.2652 10.1054 11.5196 10.2929 11.7071C10.4804 11.8946 10.7348 12 11 12H12V13C12 13.2652 12.1054 13.5196 12.2929 13.7071C12.4804 13.8946 12.7348 14 13 14C13.2652 14 13.5196 13.8946 13.7071 13.7071C13.8946 13.5196 14 13.2652 14 13V12H15C15.2652 12 15.5196 11.8946 15.7071 11.7071C15.8946 11.5196 16 11.2652 16 11C16 10.7348 15.8946 10.4804 15.7071 10.2929C15.5196 10.1054 15.2652 10 15 10ZM0 11C0 7.66464 1.58803 4.72574 4 3V5.76356C2.76281 7.11307 2 8.96131 2 11C2 13.0387 2.76281 14.8869 4 16.2364V19C1.58803 17.2743 0 14.3354 0 11Z" fill="#97A3BA"/>
</svg>
