<svg width="24" height="24" viewBox="0 0 24 24" fill="none" xmlns="http://www.w3.org/2000/svg">
<path fill-rule="evenodd" clip-rule="evenodd" d="M12 9C12.5523 9 13 9.44772 13 10V11H14C14.5523 11 15 11.4477 15 12C15 12.5523 14.5523 13 14 13H13V14C13 14.5523 12.5523 15 12 15C11.4477 15 11 14.5523 11 14V13H10C9.44772 13 9 12.5523 9 12C9 11.4477 9.44772 11 10 11H11V10C11 9.44772 11.4477 9 12 9Z" fill="#777B92"/>
<path fill-rule="evenodd" clip-rule="evenodd" d="M5 3H19C20.1046 3 21 3.89543 21 5V19C21 20.1046 20.1046 21 19 21H5C3.89543 21 3 20.1046 3 19V5C3 3.89543 3.89543 3 5 3ZM5 5V19H19V5H5Z" fill="#777B92"/>
</svg>
