<svg width="24" height="24" viewBox="0 0 24 24" fill="none" xmlns="http://www.w3.org/2000/svg">
<path fill-rule="evenodd" clip-rule="evenodd" d="M6.55468 2.83216L3.55468 4.83216C3.09516 5.13851 2.47429 5.01434 2.16793 4.55481C1.86158 4.09528 1.98576 3.47441 2.44528 3.16806L5.44528 1.16806C5.90481 0.861704 6.52568 0.985877 6.83203 1.44541C7.13839 1.90493 7.01421 2.5258 6.55468 2.83216Z" fill="#777B92"/>
<path fill-rule="evenodd" clip-rule="evenodd" d="M17.1679 1.44541C17.4743 0.985877 18.0952 0.861704 18.5547 1.16806L21.5547 3.16806C22.0142 3.47441 22.1384 4.09528 21.832 4.55481C21.5257 5.01434 20.9048 5.13851 20.4453 4.83216L17.4453 2.83216C16.9858 2.5258 16.8616 1.90493 17.1679 1.44541Z" fill="#777B92"/>
<path fill-rule="evenodd" clip-rule="evenodd" d="M12 10C12.5523 10 13 10.4477 13 11V12H14C14.5523 12 15 12.4477 15 13C15 13.5523 14.5523 14 14 14H13V15C13 15.5523 12.5523 16 12 16C11.4477 16 11 15.5523 11 15V14H10C9.44772 14 9 13.5523 9 13C9 12.4477 9.44772 12 10 12H11V11C11 10.4477 11.4477 10 12 10Z" fill="#777B92"/>
<path fill-rule="evenodd" clip-rule="evenodd" d="M2 13C2 7.47715 6.47715 3 12 3C17.5228 3 22 7.47715 22 13C22 18.5228 17.5228 23 12 23C6.47715 23 2 18.5228 2 13ZM12 5C7.58172 5 4 8.58172 4 13C4 17.4183 7.58172 21 12 21C16.4183 21 20 17.4183 20 13C20 8.58172 16.4183 5 12 5Z" fill="#777B92"/>
</svg>
