<svg width="24" height="24" viewBox="0 0 24 24" fill="none" xmlns="http://www.w3.org/2000/svg">
<path fill-rule="evenodd" clip-rule="evenodd" d="M4 5H16C17.1046 5 18 5.89543 18 7V9.14894L18.4382 8.60124C19.6192 7.12497 21.9999 7.96007 21.9999 9.85063V14.1491C21.9999 16.0396 19.6192 16.8747 18.4382 15.3985L18 14.8508V17C18 18.1046 17.1046 19 16 19H4C2.89543 19 2 18.1046 2 17V7C2 5.89543 2.89543 5 4 5ZM4 7V17L16 17V7L4 7ZM18.2805 11.9999L19.9999 14.1491L19.9999 9.85063L18.2805 11.9999Z" fill="#777B92"/>
</svg>
