<svg width="24" height="24" viewBox="0 0 24 24" fill="none" xmlns="http://www.w3.org/2000/svg">
<path fill-rule="evenodd" clip-rule="evenodd" d="M15 11C15.5523 11 16 11.4477 16 12V16C16 16.5523 15.5523 17 15 17C14.4477 17 14 16.5523 14 16V12C14 11.4477 14.4477 11 15 11Z" fill="#777B92"/>
<path fill-rule="evenodd" clip-rule="evenodd" d="M10 12V16C10 16.5523 9.55228 17 9 17C8.44772 17 8 16.5523 8 16V12C8 11.4477 8.44772 11 9 11C9.55228 11 10 11.4477 10 12Z" fill="#777B92"/>
<path fill-rule="evenodd" clip-rule="evenodd" d="M8 4C8 2.89543 8.89543 2 10 2H14C15.1046 2 16 2.89543 16 4V6H21C21.5523 6 22 6.44772 22 7C22 7.55228 21.5523 8 21 8H20V20C20 21.1046 19.1046 22 18 22H6C4.89543 22 4 21.1046 4 20V8H3C2.44772 8 2 7.55228 2 7C2 6.44772 2.44772 6 3 6H8V4ZM6 8V20H18L18 8H6ZM14 4H10V6H14V4Z" fill="#777B92"/>
</svg>
