<svg width="16" height="16" viewBox="0 0 16 16" fill="none" xmlns="http://www.w3.org/2000/svg">
<path fill-rule="evenodd" clip-rule="evenodd" d="M8 3.5C9.38071 3.5 10.5 4.61929 10.5 6C10.5 7.38071 9.38071 8.5 8 8.5C6.61929 8.5 5.5 7.38071 5.5 6C5.5 4.61929 6.61929 3.5 8 3.5ZM6.5 6C6.5 6.82843 7.17157 7.5 8 7.5C8.82843 7.5 9.5 6.82843 9.5 6C9.5 5.17157 8.82843 4.5 8 4.5C7.17157 4.5 6.5 5.17157 6.5 6Z" fill="#777B92"/>
<path fill-rule="evenodd" clip-rule="evenodd" d="M4.2663 11.2768C4.24893 11.2507 4.23434 11.2235 4.22246 11.1957C3.28498 9.67627 2.5 7.85486 2.5 6C2.5 2.96243 4.96243 0.5 8 0.5C11.0376 0.5 13.5 2.96243 13.5 6C13.5 7.85293 12.7167 9.67247 11.7805 11.1909C11.7682 11.2205 11.753 11.2492 11.7346 11.2768C11.7219 11.296 11.7081 11.3139 11.6933 11.3307C11.4352 11.7404 11.167 12.127 10.9018 12.4851C10.2616 13.3494 9.62237 14.0684 9.14332 14.5714C8.90352 14.8232 8.70315 15.0216 8.56191 15.1578C8.49127 15.2259 8.43537 15.2785 8.39666 15.3145C8.3773 15.3325 8.36224 15.3464 8.35177 15.3559L8.33957 15.3671L8.33612 15.3702L8.33507 15.3711C8.33494 15.3712 8.33448 15.3716 8 15C7.66552 15.3716 7.66541 15.3715 7.66528 15.3714L7.66388 15.3702L7.66043 15.3671L7.64823 15.3559C7.63776 15.3464 7.6227 15.3325 7.60334 15.3145C7.56463 15.2785 7.50873 15.2259 7.43809 15.1578C7.29685 15.0216 7.09648 14.8232 6.85668 14.5714C6.37763 14.0684 5.73843 13.3494 5.09822 12.4851C4.83215 12.1259 4.56315 11.738 4.30422 11.3268C4.29072 11.3112 4.27805 11.2945 4.2663 11.2768ZM8 1.5C5.51472 1.5 3.5 3.51472 3.5 6C3.5 7.47035 4.08153 8.96897 4.85747 10.3091C5.78925 9.79353 6.86114 9.5 8.00047 9.5C9.13951 9.5 10.2111 9.79338 11.1428 10.3088C11.9186 8.96868 12.5 7.47021 12.5 6C12.5 3.51472 10.4853 1.5 8 1.5ZM10.0982 11.8899C10.2721 11.6551 10.4447 11.4109 10.6129 11.1587C9.83608 10.7386 8.94667 10.5 8.00047 10.5C7.05399 10.5 6.16433 10.7387 5.38731 11.1591C5.55544 11.4111 5.72795 11.6552 5.90178 11.8899C6.51157 12.7131 7.12237 13.4004 7.58082 13.8817C7.74197 14.0509 7.88394 14.1943 8 14.3089C8.11605 14.1943 8.25803 14.0509 8.41918 13.8817C8.87763 13.4004 9.48843 12.7131 10.0982 11.8899Z" fill="#777B92"/>
<path d="M8 15L8.33507 15.3711C8.14492 15.5423 7.85543 15.5426 7.66528 15.3714L8 15Z" fill="#777B92"/>
</svg>
