<svg width="16" height="16" viewBox="0 0 16 16" fill="none" xmlns="http://www.w3.org/2000/svg">
<path fill-rule="evenodd" clip-rule="evenodd" d="M11.3536 6.35355L7.35355 10.3536C7.15829 10.5488 6.84171 10.5488 6.64645 10.3536L4.64645 8.35355C4.45118 8.15829 4.45118 7.84171 4.64645 7.64645C4.84171 7.45118 5.15829 7.45118 5.35355 7.64645L7 9.29289L10.6464 5.64645C10.8417 5.45118 11.1583 5.45118 11.3536 5.64645C11.5488 5.84171 11.5488 6.15829 11.3536 6.35355Z" fill="#777B92"/>
<path fill-rule="evenodd" clip-rule="evenodd" d="M8 0.5C12.1421 0.5 15.5 3.85786 15.5 8C15.5 12.1421 12.1421 15.5 8 15.5C3.85786 15.5 0.5 12.1421 0.5 8C0.5 3.85786 3.85786 0.5 8 0.5ZM1.5 8C1.5 11.5899 4.41015 14.5 8 14.5C11.5899 14.5 14.5 11.5899 14.5 8C14.5 4.41015 11.5899 1.5 8 1.5C4.41015 1.5 1.5 4.41015 1.5 8Z" fill="#777B92"/>
</svg>
