<svg width="24" height="24" viewBox="0 0 24 24" fill="none" xmlns="http://www.w3.org/2000/svg">
<path fill-rule="evenodd" clip-rule="evenodd" d="M3 5.28126C3 3.98012 4.22278 3.0254 5.48507 3.34097L12.2069 5.02142C12.6044 5.10504 12.915 5.42479 12.9851 5.82712C12.9963 5.89057 13.0014 5.9556 13 6.0214V18.7197L19 17.2197V12.0005C19 11.4482 19.4477 11.0005 20 11.0005C20.5523 11.0005 21 11.4482 21 12.0005V17.2197C21 18.1374 20.3754 18.9374 19.4851 19.16L12.4851 20.91C12.4372 20.922 12.389 20.9321 12.3406 20.9405C12.2343 20.979 12.1196 21 12 21C11.8804 21 11.7657 20.979 11.6594 20.9405C11.611 20.9321 11.5628 20.922 11.5149 20.91L4.51493 19.16C3.62459 18.9374 3 18.1374 3 17.2197V5.28126ZM11 18.7197V6.78126L5 5.28126V17.2197L11 18.7197Z" fill="#777B92"/>
<path fill-rule="evenodd" clip-rule="evenodd" d="M17.7071 4.29289C18.0976 4.68342 18.0976 5.31658 17.7071 5.70711L17.4142 6H20C20.5523 6 21 6.44772 21 7C21 7.55228 20.5523 8 20 8H17.4142L17.7071 8.29289C18.0976 8.68342 18.0976 9.31658 17.7071 9.70711C17.3166 10.0976 16.6834 10.0976 16.2929 9.70711L14.2929 7.70711C13.9024 7.31658 13.9024 6.68342 14.2929 6.29289L16.2929 4.29289C16.6834 3.90237 17.3166 3.90237 17.7071 4.29289Z" fill="#777B92"/>
</svg>
