<svg width="24" height="24" viewBox="0 0 24 24" fill="none" xmlns="http://www.w3.org/2000/svg">
<path fill-rule="evenodd" clip-rule="evenodd" d="M14.7506 3.51917C15.897 2.60209 17.5263 3.20227 17.9146 4.49105L18.5149 4.34097C19.7772 4.0254 21 4.98012 21 6.28126V18.2197C21 19.1374 20.3754 19.9374 19.4851 20.16L12.2425 21.9706C11.9951 22.0325 11.7462 21.9963 11.5368 21.8867C11.4269 21.8781 11.3171 21.8603 11.2082 21.8331L4.51493 20.1598C3.62459 19.9372 3 19.1372 3 18.2195V6.28105C3 4.97991 4.22278 4.0252 5.48507 4.34077L11.762 5.91001L14.7506 3.51917ZM16 5.77139C15.9997 5.75691 15.9997 5.74247 16 5.72807V5.0809L13.0114 7.47175C13.0076 7.47479 13.0038 7.47782 13 7.48083V18.5861L16 15.5861V5.77139ZM11 19.7195V7.78105L5 6.28105V18.2195L11 19.7195ZM19 6.28126L18 6.53126V15.5861C18 16.1165 17.7893 16.6252 17.4142 17.0003L15.2597 19.1548L19 18.2197V6.28126Z" fill="#777B92"/>
</svg>
