<svg width="24" height="24" viewBox="0 0 24 24" fill="none" xmlns="http://www.w3.org/2000/svg">
<path fill-rule="evenodd" clip-rule="evenodd" d="M5 4V19H8L8 10C8 9.44772 8.44772 9 9 9C9.55228 9 10 9.44772 10 10L10 19H13V6C13 5.44772 13.4477 5 14 5C14.5523 5 15 5.44772 15 6V19H18L18 8C18 7.44772 18.4477 7 19 7C19.5523 7 20 7.44772 20 8V19C20.5523 19 21 19.4477 21 20C21 20.5523 20.5523 21 20 21H5C3.89543 21 3 20.1046 3 19V4C3 3.44772 3.44772 3 4 3C4.55228 3 5 3.44772 5 4Z" fill="#777B92"/>
</svg>
