<svg width="24" height="24" viewBox="0 0 24 24" fill="none" xmlns="http://www.w3.org/2000/svg">
<path fill-rule="evenodd" clip-rule="evenodd" d="M5 4C5 3.44772 5.44772 3 6 3H18C18.5523 3 19 3.44772 19 4C19 4.55228 18.5523 5 18 5H6C5.44772 5 5 4.55228 5 4Z" fill="#777B92"/>
<path fill-rule="evenodd" clip-rule="evenodd" d="M13 8C13 7.44772 13.4477 7 14 7L20 7C20.5523 7 21 7.44772 21 8C21 8.55229 20.5523 9 20 9L14 9C13.4477 9 13 8.55228 13 8Z" fill="#777B92"/>
<path fill-rule="evenodd" clip-rule="evenodd" d="M10 11H14C14.5523 11 15 11.4477 15 12C15 12.5523 14.5523 13 14 13H10C9.44772 13 9 12.5523 9 12C9 11.4477 9.44772 11 10 11Z" fill="#777B92"/>
<path fill-rule="evenodd" clip-rule="evenodd" d="M5 16C5 15.4477 5.44772 15 6 15L14 15C14.5523 15 15 15.4477 15 16C15 16.5523 14.5523 17 14 17L6 17C5.44772 17 5 16.5523 5 16Z" fill="#777B92"/>
<path fill-rule="evenodd" clip-rule="evenodd" d="M4 19L20 19C20.5523 19 21 19.4477 21 20C21 20.5523 20.5523 21 20 21L4 21C3.44772 21 3 20.5523 3 20C3 19.4477 3.44772 19 4 19Z" fill="#777B92"/>
</svg>
