<svg width="24" height="24" viewBox="0 0 24 24" fill="none" xmlns="http://www.w3.org/2000/svg">
<path fill-rule="evenodd" clip-rule="evenodd" d="M13.029 2.45103L17.0288 4.85091C17.6254 5.20882 18.0172 5.87026 17.9879 6.60702C17.7521 12.5276 14.1196 15.0151 12.8309 15.7071C12.3092 15.9872 11.6909 15.9872 11.1693 15.7071C9.8805 15.0151 6.24798 12.5276 6.01204 6.60708C5.98268 5.87028 6.37454 5.20881 6.9711 4.85089L10.9711 2.45101C11.6045 2.07101 12.3957 2.07102 13.029 2.45103ZM12.0001 13.8813C13.0322 13.2949 15.7873 11.3067 15.9882 6.55888L12 4.16602L8.01175 6.55888C8.21272 11.3067 10.9679 13.2949 12.0001 13.8813Z" fill="#777B92"/>
<path fill-rule="evenodd" clip-rule="evenodd" d="M13 18C13 18.5523 12.5523 19 12 19C11.4477 19 11 18.5523 11 18C11 17.4477 11.4477 17 12 17C12.5523 17 13 17.4477 13 18Z" fill="#777B92"/>
<path fill-rule="evenodd" clip-rule="evenodd" d="M2 21C2 20.4477 2.44772 20 3 20H21C21.5523 20 22 20.4477 22 21C22 21.5523 21.5523 22 21 22H3C2.44772 22 2 21.5523 2 21Z" fill="#777B92"/>
</svg>
