<svg width="24" height="24" viewBox="0 0 24 24" fill="none" xmlns="http://www.w3.org/2000/svg">
<path fill-rule="evenodd" clip-rule="evenodd" d="M3 8C3 6.3126 4.34191 5.05416 5.89593 4.27715C7.50977 3.47023 9.66928 3 12 3C14.3307 3 16.4902 3.47023 18.1041 4.27715C19.6581 5.05416 21 6.3126 21 8C21 9.6874 19.6581 10.9458 18.1041 11.7229C16.4902 12.5298 14.3307 13 12 13C9.66928 13 7.50977 12.5298 5.89593 11.7229C5.66091 11.6053 5.43073 11.4768 5.20932 11.3375C5.05857 11.5804 5 11.804 5 12C5 12.3379 5.18831 12.768 5.68541 13.2114C5.71158 13.2318 5.73693 13.2538 5.76134 13.2771C6.02247 13.497 6.36061 13.7191 6.79036 13.934C8.07196 14.5748 9.91244 15 12 15C12.5523 15 13 15.4477 13 16C13 16.5523 12.5523 17 12 17C9.66928 17 7.50977 16.5298 5.89593 15.7229C5.6609 15.6054 5.43073 15.4768 5.20931 15.3375C5.05856 15.5804 5 15.804 5 16C5 16.5218 5.44895 17.2633 6.79036 17.934C8.07196 18.5748 9.91244 19 12 19C12.5523 19 13 19.4477 13 20C13 20.5523 12.5523 21 12 21C9.66928 21 7.50977 20.5298 5.89593 19.7229C4.34191 18.9459 3 17.6874 3 16C3 15.2477 3.27354 14.5758 3.70347 14.001C3.26812 13.4228 3 12.7543 3 12C3 11.2477 3.27354 10.5758 3.70347 10.001C3.26813 9.42283 3 8.75427 3 8ZM6.79036 6.066C5.44895 6.73671 5 7.47826 5 8C5 8.33795 5.18836 8.76811 5.6856 9.21152C5.71165 9.2319 5.73689 9.25373 5.76119 9.277C6.02234 9.4969 6.36054 9.71909 6.79036 9.934C8.07196 10.5748 9.91244 11 12 11C14.0876 11 15.928 10.5748 17.2096 9.934C18.5511 9.26329 19 8.52174 19 8C19 7.47826 18.5511 6.73671 17.2096 6.066C15.928 5.4252 14.0876 5 12 5C9.91244 5 8.07196 5.4252 6.79036 6.066Z" fill="#777B92"/>
<path fill-rule="evenodd" clip-rule="evenodd" d="M15 17C15 16.4477 15.4477 16 16 16H17V15C17 14.4477 17.4477 14 18 14C18.5523 14 19 14.4477 19 15V16H20C20.5523 16 21 16.4477 21 17C21 17.5523 20.5523 18 20 18H19V19C19 19.5523 18.5523 20 18 20C17.4477 20 17 19.5523 17 19V18H16C15.4477 18 15 17.5523 15 17Z" fill="#777B92"/>
</svg>
