<svg width="24" height="24" viewBox="0 0 24 24" fill="none" xmlns="http://www.w3.org/2000/svg">
<path fill-rule="evenodd" clip-rule="evenodd" d="M9 8C9 8.55228 8.55228 9 8 9C7.98323 9 7.96656 8.99959 7.95 8.99877C7.93343 8.99959 7.91676 9 7.89999 9H7C5.34315 9 4 10.3431 4 12C4 13.1092 4.60141 14.079 5.50073 14.5993C5.97879 14.8758 6.14215 15.4875 5.86561 15.9656C5.58906 16.4437 4.97733 16.607 4.49927 16.3305C3.00738 15.4675 2 13.852 2 12C2 9.23858 4.23858 7 7 7H7.10002C7.56329 4.71776 9.58104 3 12 3C14.419 3 16.4367 4.71778 16.9 7.00005L17 7C19.7615 7 22 9.23858 22 12C22 13.852 20.9927 15.4675 19.5008 16.3305C19.0227 16.607 18.411 16.4437 18.1344 15.9656C17.8579 15.4875 18.0212 14.8758 18.4993 14.5993C19.3986 14.079 20 13.1092 20 12C20 10.3431 18.6569 9 17 9L16.1009 9.00042C16.0824 9.00044 16.064 8.99995 16.0457 8.99897C16.0306 8.99966 16.0153 9 16 9C15.4477 9 15 8.55228 15 8C15 6.34315 13.6569 5 12 5C10.3431 5 9 6.34315 9 8Z" fill="#777B92"/>
<path fill-rule="evenodd" clip-rule="evenodd" d="M13 12V17.5858L14.2929 16.2929C14.6834 15.9024 15.3166 15.9024 15.7071 16.2929C16.0976 16.6834 16.0976 17.3166 15.7071 17.7071L12.7071 20.7071C12.3166 21.0976 11.6834 21.0976 11.2929 20.7071L8.29289 17.7071C7.90237 17.3166 7.90237 16.6834 8.29289 16.2929C8.68342 15.9024 9.31658 15.9024 9.70711 16.2929L11 17.5858V12C11 11.4477 11.4477 11 12 11C12.5523 11 13 11.4477 13 12Z" fill="#777B92"/>
</svg>
