<svg width="16" height="16" viewBox="0 0 16 16" fill="none" xmlns="http://www.w3.org/2000/svg">
<path fill-rule="evenodd" clip-rule="evenodd" d="M13.1581 1.47434L10.8419 2.24642C10.6377 2.31447 10.5 2.50554 10.5 2.72076V11.5C10.5 13.7091 8.70914 15.5 6.5 15.5C4.29086 15.5 2.5 13.7091 2.5 11.5C2.5 9.29086 4.29086 7.5 6.5 7.5C7.69469 7.5 8.76706 8.02376 9.5 8.85418V2.72076C9.5 2.07511 9.91315 1.5019 10.5257 1.29773L12.8419 0.525657C13.1039 0.438333 13.387 0.579913 13.4743 0.841884C13.5617 1.10386 13.4201 1.38702 13.1581 1.47434ZM3.5 11.5C3.5 9.84315 4.84315 8.5 6.5 8.5C8.15685 8.5 9.5 9.84315 9.5 11.5C9.5 13.1569 8.15685 14.5 6.5 14.5C4.84315 14.5 3.5 13.1569 3.5 11.5Z" fill="#777B92"/>
</svg>
