<svg width="24" height="24" viewBox="0 0 24 24" fill="none" xmlns="http://www.w3.org/2000/svg">
<path fill-rule="evenodd" clip-rule="evenodd" d="M12.8944 2.32907C12.3314 2.04754 11.6686 2.04754 11.1056 2.32907L4.10557 5.82907C3.428 6.16785 3 6.86038 3 7.61792V16.3819C3 17.1394 3.428 17.8319 4.10557 18.1707L11.1056 21.6707C11.6686 21.9522 12.3314 21.9522 12.8944 21.6707L19.8944 18.1707C20.572 17.8319 21 17.1394 21 16.3819V7.61792C21 6.86038 20.572 6.16785 19.8944 5.82907L12.8944 2.32907ZM18 12C18 15.3137 15.3137 18 12 18C8.68629 18 6 15.3137 6 12C6 8.68631 8.68629 6.00002 12 6.00002C15.3137 6.00002 18 8.68631 18 12Z" fill="#777B92"/>
</svg>
