<svg width="24" height="24" viewBox="0 0 24 24" fill="none" xmlns="http://www.w3.org/2000/svg">
<path fill-rule="evenodd" clip-rule="evenodd" d="M11.1056 2.32907C11.6686 2.04754 12.3314 2.04754 12.8944 2.32907L19.8944 5.82907C20.572 6.16785 21 6.86038 21 7.61792V16.3819C21 17.1394 20.572 17.8319 19.8944 18.1707L12.8944 21.6707C12.3314 21.9522 11.6686 21.9522 11.1056 21.6707L4.10557 18.1707C3.428 17.8319 3 17.1394 3 16.3819V7.61792C3 6.86038 3.428 6.16785 4.10557 5.82907L11.1056 2.32907ZM19 7.61792L12 4.11792L5 7.61792V16.3819L12 19.8819L19 16.3819V7.61792Z" fill="#777B92"/>
</svg>
