<svg width="24" height="24" viewBox="0 0 24 24" fill="none" xmlns="http://www.w3.org/2000/svg">
<path fill-rule="evenodd" clip-rule="evenodd" d="M16.7929 2.29289C17.1834 1.90237 17.8166 1.90237 18.2071 2.29289L21.7071 5.79289C22.0976 6.18342 22.0976 6.81658 21.7071 7.20711L18.2071 10.7071C17.8166 11.0976 17.1834 11.0976 16.7929 10.7071L13.2929 7.20711C12.9024 6.81658 12.9024 6.18342 13.2929 5.79289L16.7929 2.29289ZM3 2C2.44772 2 2 2.44772 2 3V10C2 10.5523 2.44772 11 3 11H10C10.5523 11 11 10.5523 11 10V3C11 2.44772 10.5523 2 10 2H3ZM2 14C2 13.4477 2.44772 13 3 13H10C10.5523 13 11 13.4477 11 14V21C11 21.5523 10.5523 22 10 22H3C2.44772 22 2 21.5523 2 21V14ZM22 14V21C22 21.5523 21.5523 22 21 22H14C13.4477 22 13 21.5523 13 21V14C13 13.4477 13.4477 13 14 13H21C21.5523 13 22 13.4477 22 14Z" fill="#777B92"/>
</svg>
