<svg width="24" height="24" viewBox="0 0 24 24" fill="none" xmlns="http://www.w3.org/2000/svg">
<path fill-rule="evenodd" clip-rule="evenodd" d="M14.7071 4.70711C15.0976 4.31658 15.0976 3.68342 14.7071 3.29289C14.3166 2.90237 13.6834 2.90237 13.2929 3.29289L12 4.58579L10.7071 3.29289C10.3166 2.90237 9.68342 2.90237 9.29289 3.29289C8.90237 3.68342 8.90237 4.31658 9.29289 4.70711L11.2929 6.70711L14.2929 9.70711C14.6834 10.0976 15.3166 10.0976 15.7071 9.70711C16.0976 9.31658 16.0976 8.68342 15.7071 8.29289L13.4142 6L14.7071 4.70711ZM9.70711 9.70711C10.0976 9.31658 10.0976 8.68342 9.70711 8.29289C9.31658 7.90237 8.68342 7.90237 8.29289 8.29289L6 10.5858L4.70711 9.29289C4.31658 8.90237 3.68342 8.90237 3.29289 9.29289C2.90237 9.68342 2.90237 10.3166 3.29289 10.7071L4.58579 12L3.29289 13.2929C2.90237 13.6834 2.90237 14.3166 3.29289 14.7071C3.68342 15.0976 4.31658 15.0976 4.70711 14.7071L6.70711 12.7071L9.70711 9.70711ZM19.4142 12L20.7071 10.7071C21.0976 10.3166 21.0976 9.68342 20.7071 9.29289C20.3166 8.90237 19.6834 8.90237 19.2929 9.29289L17.2929 11.2929L14.2929 14.2929C13.9024 14.6834 13.9024 15.3166 14.2929 15.7071C14.6834 16.0976 15.3166 16.0976 15.7071 15.7071L18 13.4142L19.2929 14.7071C19.6834 15.0976 20.3166 15.0976 20.7071 14.7071C21.0976 14.3166 21.0976 13.6834 20.7071 13.2929L19.4142 12ZM8.70711 13.2929C8.31658 12.9024 7.68342 12.9024 7.29289 13.2929C6.90237 13.6834 6.90237 14.3166 7.29289 14.7071L10.5858 18L9.29289 19.2929C8.90237 19.6834 8.90237 20.3166 9.29289 20.7071C9.68342 21.0976 10.3166 21.0976 10.7071 20.7071L12 19.4142L13.2929 20.7071C13.6834 21.0976 14.3166 21.0976 14.7071 20.7071C15.0976 20.3166 15.0976 19.6834 14.7071 19.2929L12.7071 17.2929L8.70711 13.2929Z" fill="#777B92"/>
</svg>
