<svg width="24" height="24" viewBox="0 0 24 24" fill="none" xmlns="http://www.w3.org/2000/svg">
<path fill-rule="evenodd" clip-rule="evenodd" d="M19 2L20 4H22L20.5 6L21 8L19 7L17 8L17.5 6L16 4H18L19 2Z" fill="#777B92"/>
<path fill-rule="evenodd" clip-rule="evenodd" d="M4 7H10.7108C11.2412 7 11.7499 7.21071 12.125 7.58579L16.4142 11.875C16.7893 12.2501 17 12.7588 17 13.2892V20C17 21.1046 16.1046 22 15 22H4C2.89543 22 2 21.1046 2 20V9C2 7.89543 2.89543 7 4 7ZM11 20V18H8V20H11ZM13 18V20H15V13.2892L10.7108 9H8V11H9C9.55228 11 10 11.4477 10 12C10 12.5523 9.55228 13 9 13H8C6.89543 13 6 12.1046 6 11V9H4V20H6V18C6 16.8954 6.89543 16 8 16H11C12.1046 16 13 16.8954 13 18Z" fill="#777B92"/>
</svg>
