<svg width="22" height="22" viewBox="0 0 22 22" fill="none" xmlns="http://www.w3.org/2000/svg">
<path d="M14 3C14.5523 3 15 2.55228 15 2C15 1.44772 14.5523 1 14 1C13.4477 1 13 1.44772 13 2C13 2.55228 13.4477 3 14 3Z" fill="#97A3BA"/>
<path d="M11 6C11 6.55228 10.5523 7 10 7C9.44772 7 9 6.55228 9 6C9 5.44772 9.44772 5 10 5C10.5523 5 11 5.44772 11 6Z" fill="#97A3BA"/>
<path fill-rule="evenodd" clip-rule="evenodd" d="M15.041 6.57379C14.2759 5.80874 13.0355 5.80874 12.2705 6.57379L2.57379 16.2705C1.80874 17.0355 1.80874 18.2759 2.57379 19.041L3.95903 20.4262C4.72408 21.1913 5.96447 21.1913 6.72951 20.4262L16.4262 10.7295C17.1913 9.96447 17.1913 8.72408 16.4262 7.95903L15.041 6.57379ZM15.041 9.34427L13.6557 7.95903L12.4791 9.13563L13.8644 10.5209L15.041 9.34427ZM12.4502 11.9351L11.0649 10.5498L3.95903 17.6557L5.34427 19.041L12.4502 11.9351Z" fill="#97A3BA"/>
<path d="M20 5C20 5.55228 19.5523 6 19 6C18.4477 6 18 5.55228 18 5C18 4.44772 18.4477 4 19 4C19.5523 4 20 4.44772 20 5Z" fill="#97A3BA"/>
<path d="M18 14C18.5523 14 19 13.5523 19 13C19 12.4477 18.5523 12 18 12C17.4477 12 17 12.4477 17 13C17 13.5523 17.4477 14 18 14Z" fill="#97A3BA"/>
</svg>
