<svg width="22" height="22" viewBox="0 0 22 22" fill="none" xmlns="http://www.w3.org/2000/svg">
<path d="M18.4042 6.31715L15.6642 3.57221C15.3157 3.21856 14.8442 3.01374 14.3483 3.00067C13.8524 2.98759 13.3708 3.16728 13.0042 3.50209L11.0042 5.50569L9.7142 4.26346C9.62096 4.17005 9.51027 4.09596 9.38845 4.04541C9.26663 3.99485 9.13606 3.96884 9.0042 3.96884C8.7379 3.96884 8.48251 4.07481 8.2942 4.26346C8.20096 4.35686 8.127 4.46775 8.07654 4.5898C8.02608 4.71184 8.00011 4.84264 8.00011 4.97474C8.00011 5.24152 8.1059 5.49738 8.2942 5.68602L9.5342 6.97834L4.0042 12.5183C3.68097 12.8449 3.47971 13.2729 3.4342 13.7305L3.0042 17.908C2.99073 18.0547 3.00974 18.2027 3.05986 18.3412C3.10999 18.4797 3.19001 18.6055 3.2942 18.7095C3.38764 18.8023 3.49846 18.8758 3.6203 18.9256C3.74213 18.9755 3.8726 19.0007 4.0042 19H4.0942L8.2642 18.6193C8.721 18.5737 9.14824 18.3721 9.4742 18.0483L15.0542 12.4582L16.2942 13.7004C16.3872 13.7943 16.4978 13.8689 16.6196 13.9197C16.7415 13.9706 16.8722 13.9968 17.0042 13.9968C17.1362 13.9968 17.2669 13.9706 17.3888 13.9197C17.5106 13.8689 17.6212 13.7943 17.7142 13.7004C17.8079 13.6073 17.8823 13.4965 17.9331 13.3744C17.9839 13.2524 18.01 13.1214 18.01 12.9892C18.01 12.8569 17.9839 12.726 17.9331 12.6039C17.8823 12.4818 17.8079 12.371 17.7142 12.2779L16.4742 11.0356L18.4742 9.03204C18.8235 8.66234 19.0123 8.169 18.9992 7.66011C18.9861 7.15122 18.7721 6.66829 18.4042 6.31715ZM8.0842 16.6157L5.0842 16.8962L5.3542 13.8908L11.0042 8.3408L13.6942 11.0457L8.0842 16.6157ZM15.0842 9.60307L12.3642 6.97834L14.2742 4.97474L17.0042 7.70966L15.0842 9.60307Z" fill="#97A3BA"/>
</svg>
