<svg width="22" height="22" viewBox="0 0 22 22" fill="none" xmlns="http://www.w3.org/2000/svg">
<path d="M18 6H15V4.5C15 3.83696 14.7366 3.20107 14.2678 2.73223C13.7989 2.26339 13.163 2 12.5 2H9.5C8.83696 2 8.20107 2.26339 7.73223 2.73223C7.26339 3.20107 7 3.83696 7 4.5V6H4C3.20435 6 2.44129 6.31607 1.87868 6.87868C1.31607 7.44129 1 8.20435 1 9V17C1 17.7956 1.31607 18.5587 1.87868 19.1213C2.44129 19.6839 3.20435 20 4 20H18C18.7956 20 19.5587 19.6839 20.1213 19.1213C20.6839 18.5587 21 17.7956 21 17V9C21 8.20435 20.6839 7.44129 20.1213 6.87868C19.5587 6.31607 18.7956 6 18 6ZM14 8V18H8V8H14ZM9 4.5C9 4.36739 9.05268 4.24021 9.14645 4.14645C9.24021 4.05268 9.36739 4 9.5 4H12.5C12.6326 4 12.7598 4.05268 12.8536 4.14645C12.9473 4.24021 13 4.36739 13 4.5V6H9V4.5ZM3 17V9C3 8.73478 3.10536 8.48043 3.29289 8.29289C3.48043 8.10536 3.73478 8 4 8H6V18H4C3.73478 18 3.48043 17.8946 3.29289 17.7071C3.10536 17.5196 3 17.2652 3 17ZM19 17C19 17.2652 18.8946 17.5196 18.7071 17.7071C18.5196 17.8946 18.2652 18 18 18H16V8H18C18.2652 8 18.5196 8.10536 18.7071 8.29289C18.8946 8.48043 19 8.73478 19 9V17Z" fill="#97A3BA"/>
</svg>
