<svg width="22" height="22" viewBox="0 0 22 22" fill="none" xmlns="http://www.w3.org/2000/svg">
<path d="M4 7C4.55228 7 5 6.55228 5 6C5 5.44772 4.55228 5 4 5H2C1.44772 5 1 5.44772 1 6C1 6.55228 1.44772 7 2 7H4Z" fill="#97A3BA"/>
<path d="M6 11C6.55228 11 7 10.5523 7 10C7 9.44772 6.55228 9 6 9H2C1.44772 9 1 9.44772 1 10C1 10.5523 1.44772 11 2 11H6Z" fill="#97A3BA"/>
<path d="M8 15C8.55229 15 9 14.5523 9 14C9 13.4477 8.55229 13 8 13H2C1.44772 13 1 13.4477 1 14C1 14.5523 1.44772 15 2 15H8Z" fill="#97A3BA"/>
<path d="M20 19C20.5523 19 21 18.5523 21 18C21 17.4477 20.5523 17 20 17H2C1.44772 17 1 17.4477 1 18C1 18.5523 1.44772 19 2 19H20Z" fill="#97A3BA"/>
<path d="M13 14C13 14.5523 12.5523 15 12 15C11.4477 15 11 14.5523 11 14C11 13.4477 11.4477 13 12 13C12.5523 13 13 13.4477 13 14Z" fill="#97A3BA"/>
<path d="M16 15C16.5523 15 17 14.5523 17 14C17 13.4477 16.5523 13 16 13C15.4477 13 15 13.4477 15 14C15 14.5523 15.4477 15 16 15Z" fill="#97A3BA"/>
<path d="M21 14C21 14.5523 20.5523 15 20 15C19.4477 15 19 14.5523 19 14C19 13.4477 19.4477 13 20 13C20.5523 13 21 13.4477 21 14Z" fill="#97A3BA"/>
<path d="M11 10C11 10.5523 10.5523 11 10 11C9.44771 11 9 10.5523 9 10C9 9.44772 9.44771 9 10 9C10.5523 9 11 9.44772 11 10Z" fill="#97A3BA"/>
<path d="M9 6C9 6.55228 8.55228 7 8 7C7.44772 7 7 6.55228 7 6C7 5.44772 7.44772 5 8 5C8.55228 5 9 5.44772 9 6Z" fill="#97A3BA"/>
<path d="M12 7C12.5523 7 13 6.55228 13 6C13 5.44772 12.5523 5 12 5C11.4477 5 11 5.44772 11 6C11 6.55228 11.4477 7 12 7Z" fill="#97A3BA"/>
<path d="M17 6C17 6.55228 16.5523 7 16 7C15.4477 7 15 6.55228 15 6C15 5.44772 15.4477 5 16 5C16.5523 5 17 5.44772 17 6Z" fill="#97A3BA"/>
<path d="M20 7C20.5523 7 21 6.55228 21 6C21 5.44772 20.5523 5 20 5C19.4477 5 19 5.44772 19 6C19 6.55228 19.4477 7 20 7Z" fill="#97A3BA"/>
<path d="M15 10C15 10.5523 14.5523 11 14 11C13.4477 11 13 10.5523 13 10C13 9.44772 13.4477 9 14 9C14.5523 9 15 9.44772 15 10Z" fill="#97A3BA"/>
<path d="M20 11C20.5523 11 21 10.5523 21 10C21 9.44772 20.5523 9 20 9H18C17.4477 9 17 9.44772 17 10C17 10.5523 17.4477 11 18 11H20Z" fill="#97A3BA"/>
</svg>
