<svg width="22" height="22" viewBox="0 0 22 22" fill="none" xmlns="http://www.w3.org/2000/svg">
<path d="M16.5596 6.83037C16.9434 6.44655 16.9434 5.82427 16.5596 5.44046C16.1758 5.05665 15.5535 5.05665 15.1697 5.44046C14.7859 5.82427 14.7859 6.44655 15.1697 6.83037C15.5535 7.21418 16.1758 7.21418 16.5596 6.83037Z" fill="#97A3BA"/>
<path fill-rule="evenodd" clip-rule="evenodd" d="M0.575717 17.2546C-0.191906 16.4869 -0.191906 15.2424 0.575717 14.4748L14.4748 0.575717C15.2424 -0.191905 16.4869 -0.191906 17.2546 0.575717L21.4243 4.74543C22.1919 5.51305 22.1919 6.75762 21.4243 7.52524L7.52524 21.4243C6.75762 22.1919 5.51305 22.1919 4.74543 21.4243L0.575717 17.2546ZM6.13533 11.695L4.74531 13.085L6.83028 15.1699C7.21409 15.5537 7.21409 16.176 6.83028 16.5598C6.44646 16.9437 5.82418 16.9437 5.44037 16.5598L3.35552 14.475L1.96562 15.8647L6.13533 20.0344L20.0344 6.13533L15.8647 1.96562L10.3051 7.52518L12.3899 9.60995C12.7737 9.99376 12.7737 10.616 12.3899 10.9999C12.0061 11.3837 11.3838 11.3837 11 10.9999L8.91523 8.91509L7.52523 10.3051L8.91514 11.695C9.29895 12.0788 9.29895 12.7011 8.91514 13.0849C8.53132 13.4687 7.90904 13.4687 7.52523 13.0849L6.13533 11.695Z" fill="#97A3BA"/>
</svg>
