<svg width="22" height="22" viewBox="0 0 22 22" fill="none" xmlns="http://www.w3.org/2000/svg">
<path fill-rule="evenodd" clip-rule="evenodd" d="M19.9983 4C19.9983 4.2663 19.8925 4.5217 19.7043 4.71L8.70805 15.74C8.89509 16.1339 8.99402 16.5639 8.99795 17C8.99795 17.5933 8.82207 18.1734 8.49254 18.6667C8.163 19.1601 7.69463 19.5446 7.14664 19.7716C6.59865 19.9987 5.99565 20.0581 5.41391 19.9424C4.83216 19.8266 4.2978 19.5409 3.87838 19.1213C3.45897 18.7018 3.17334 18.1672 3.05763 17.5853C2.94191 17.0033 3.0013 16.4001 3.22828 15.852C3.45527 15.3038 3.83966 14.8352 4.33284 14.5056C4.82601 14.1759 5.40584 14 5.99898 14C6.45256 13.9996 6.90031 14.1022 7.30853 14.3L10.5974 11L7.28854 7.7C6.88639 7.89486 6.44581 7.99735 5.99898 8C5.40584 8 4.82601 7.82405 4.33284 7.49441C3.83966 7.16477 3.45527 6.69623 3.22828 6.14805C3.0013 5.59987 2.94191 4.99667 3.05763 4.41473C3.17334 3.83279 3.45897 3.29824 3.87838 2.87868C4.2978 2.45912 4.83216 2.1734 5.41391 2.05765C5.99565 1.94189 6.59865 2.0013 7.14664 2.22836C7.69463 2.45543 8.163 2.83994 8.49254 3.33329C8.82207 3.82664 8.99795 4.40666 8.99795 5C8.99843 5.44622 8.89939 5.88692 8.70805 6.29L12.0069 9.6L18.2848 3.29C18.473 3.1017 18.7283 2.99591 18.9945 2.99591C19.2608 2.99591 19.5161 3.1017 19.7043 3.29C19.8925 3.4783 19.9983 3.7337 19.9983 4ZM5.4436 5.83147C5.60799 5.94135 5.80126 6 5.99898 6C6.2641 6 6.51837 5.89464 6.70584 5.70711C6.89332 5.51957 6.99864 5.26522 6.99864 5C6.99864 4.80222 6.94001 4.60888 6.83016 4.44443C6.72032 4.27998 6.56419 4.15181 6.38153 4.07612C6.19887 4.00043 5.99787 3.98063 5.80395 4.01922C5.61004 4.0578 5.43192 4.15304 5.29211 4.29289C5.15231 4.43275 5.0571 4.61093 5.01853 4.80491C4.97996 4.99889 4.99975 5.19996 5.07541 5.38268C5.15108 5.56541 5.2792 5.72159 5.4436 5.83147ZM5.4436 17.8315C5.60799 17.9414 5.80126 18 5.99898 18C6.2641 18 6.51837 17.8946 6.70584 17.7071C6.89332 17.5196 6.99864 17.2652 6.99864 17C6.99864 16.8022 6.94001 16.6089 6.83016 16.4444C6.72032 16.28 6.56419 16.1518 6.38153 16.0761C6.19887 16.0004 5.99787 15.9806 5.80395 16.0192C5.61004 16.0578 5.43192 16.153 5.29211 16.2929C5.15231 16.4327 5.0571 16.6109 5.01853 16.8049C4.97996 16.9989 4.99975 17.2 5.07541 17.3827C5.15108 17.5654 5.2792 17.7216 5.4436 17.8315Z" fill="#97A3BA"/>
<path d="M13.9963 11.9961C14.2625 11.9961 14.5178 12.1019 14.7061 12.2902L19.7044 17.2902C19.798 17.3831 19.8724 17.4937 19.9232 17.6156C19.9739 17.7375 20.0001 17.8682 20.0001 18.0002C20.0001 18.1322 19.9739 18.2629 19.9232 18.3848C19.8724 18.5066 19.798 18.6172 19.7044 18.7102C19.6114 18.8039 19.5009 18.8783 19.379 18.9291C19.2572 18.9798 19.1266 19.006 18.9946 19.006C18.8626 19.006 18.732 18.9798 18.6102 18.9291C18.4883 18.8783 18.3778 18.8039 18.2848 18.7102L13.2865 13.7102C13.0983 13.5219 12.9926 13.2665 12.9926 13.0002C12.9926 12.7339 13.0983 12.4785 13.2865 12.2902C13.4748 12.1019 13.7301 11.9961 13.9963 11.9961Z" fill="#97A3BA"/>
</svg>
