<svg width="24" height="24" viewBox="0 0 24 24" fill="none" xmlns="http://www.w3.org/2000/svg">
<path fill-rule="evenodd" clip-rule="evenodd" d="M18.7071 3.29289L20 4.58579L21.2929 3.29289C21.6834 2.90237 22.3166 2.90237 22.7071 3.29289C23.0976 3.68342 23.0976 4.31658 22.7071 4.70711L20.7071 6.70711C20.3166 7.09763 19.6834 7.09763 19.2929 6.70711L17.2929 4.70711C16.9024 4.31658 16.9024 3.68342 17.2929 3.29289C17.6834 2.90237 18.3166 2.90237 18.7071 3.29289Z" fill="#777B92"/>
<path fill-rule="evenodd" clip-rule="evenodd" d="M1 7C1 6.44772 1.44772 6 2 6H4C4.55228 6 5 6.44772 5 7C5 7.55228 4.55228 8 4 8H2C1.44772 8 1 7.55228 1 7Z" fill="#777B92"/>
<path fill-rule="evenodd" clip-rule="evenodd" d="M8 8C7.44772 8 7 7.55228 7 7C7 6.44772 7.44772 6 8 6C8.55228 6 9 6.44772 9 7C9 7.55228 8.55228 8 8 8Z" fill="#777B92"/>
<path fill-rule="evenodd" clip-rule="evenodd" d="M10 12C9.44772 12 9 11.5523 9 11C9 10.4477 9.44772 10 10 10C10.5523 10 11 10.4477 11 11C11 11.5523 10.5523 12 10 12Z" fill="#777B92"/>
<path fill-rule="evenodd" clip-rule="evenodd" d="M13 15C13 15.5523 12.5523 16 12 16C11.4477 16 11 15.5523 11 15C11 14.4477 11.4477 14 12 14C12.5523 14 13 14.4477 13 15Z" fill="#777B92"/>
<path fill-rule="evenodd" clip-rule="evenodd" d="M16 16C15.4477 16 15 15.5523 15 15C15 14.4477 15.4477 14 16 14C16.5523 14 17 14.4477 17 15C17 15.5523 16.5523 16 16 16Z" fill="#777B92"/>
<path fill-rule="evenodd" clip-rule="evenodd" d="M14 12C13.4477 12 13 11.5523 13 11C13 10.4477 13.4477 10 14 10C14.5523 10 15 10.4477 15 11C15 11.5523 14.5523 12 14 12Z" fill="#777B92"/>
<path fill-rule="evenodd" clip-rule="evenodd" d="M21 15C21 15.5523 20.5523 16 20 16C19.4477 16 19 15.5523 19 15C19 14.4477 19.4477 14 20 14C20.5523 14 21 14.4477 21 15Z" fill="#777B92"/>
<path fill-rule="evenodd" clip-rule="evenodd" d="M13 7C13 7.55228 12.5523 8 12 8C11.4477 8 11 7.55228 11 7C11 6.44772 11.4477 6 12 6C12.5523 6 13 6.44772 13 7Z" fill="#777B92"/>
<path fill-rule="evenodd" clip-rule="evenodd" d="M16 8C15.4477 8 15 7.55228 15 7C15 6.44772 15.4477 6 16 6C16.5523 6 17 6.44772 17 7C17 7.55228 16.5523 8 16 8Z" fill="#777B92"/>
<path fill-rule="evenodd" clip-rule="evenodd" d="M2 10H6C6.55228 10 7 10.4477 7 11C7 11.5523 6.55228 12 6 12H2C1.44772 12 1 11.5523 1 11C1 10.4477 1.44772 10 2 10Z" fill="#777B92"/>
<path fill-rule="evenodd" clip-rule="evenodd" d="M20 12H18C17.4477 12 17 11.5523 17 11C17 10.4477 17.4477 10 18 10H20C20.5523 10 21 10.4477 21 11C21 11.5523 20.5523 12 20 12Z" fill="#777B92"/>
<path fill-rule="evenodd" clip-rule="evenodd" d="M2 14H8C8.55228 14 9 14.4477 9 15C9 15.5523 8.55228 16 8 16H2C1.44772 16 1 15.5523 1 15C1 14.4477 1.44772 14 2 14Z" fill="#777B92"/>
<path fill-rule="evenodd" clip-rule="evenodd" d="M1 19C1 18.4477 1.44772 18 2 18H20C20.5523 18 21 18.4477 21 19C21 19.5523 20.5523 20 20 20H2C1.44772 20 1 19.5523 1 19Z" fill="#777B92"/>
</svg>
