<svg width="24" height="24" viewBox="0 0 24 24" fill="none" xmlns="http://www.w3.org/2000/svg">
<path fill-rule="evenodd" clip-rule="evenodd" d="M9 13V5C9 3.34315 10.3431 2 12 2C13.6569 2 15 3.34315 15 5V13C16.213 13.9111 17 15.3633 17 17.0002C17 19.7616 14.7614 22.0002 12 22.0002C9.23858 22.0002 7 19.7616 7 17.0002C7 15.3633 7.78702 13.9111 9 13ZM11 5V13.5C11 13.5041 11 13.5083 10.9999 13.5124C11.0077 13.8654 10.8279 14.2117 10.5007 14.4009C9.60141 14.9212 9 15.891 9 17.0002C9 18.657 10.3431 20.0002 12 20.0002C13.6569 20.0002 15 18.657 15 17.0002C15 15.891 14.3986 14.9212 13.4993 14.4009C13.1721 14.2117 12.9923 13.8654 13.0001 13.5124C13 13.5083 13 13.5041 13 13.5V5C13 4.44772 12.5523 4 12 4C11.4477 4 11 4.44772 11 5Z" fill="#777B92"/>
</svg>
