<svg width="24" height="24" viewBox="0 0 24 24" fill="none" xmlns="http://www.w3.org/2000/svg">
<path fill-rule="evenodd" clip-rule="evenodd" d="M18 7C18 7.55228 17.5523 8 17 8C16.4477 8 16 7.55228 16 7C16 6.44772 16.4477 6 17 6C17.5523 6 18 6.44772 18 7Z" fill="#777B92"/>
<path fill-rule="evenodd" clip-rule="evenodd" d="M15.5858 1.99985C16.3668 1.2188 17.6331 1.2188 18.4142 1.99985L22 5.58564C22.781 6.36668 22.781 7.63302 22 8.41406L8.41418 21.9998C7.63314 22.7809 6.36681 22.7809 5.58576 21.9998L1.99997 18.4141C1.21892 17.633 1.21892 16.3667 1.99997 15.5856L15.5858 1.99985ZM7.49991 12.9141L5.91412 14.4999L7.70711 16.2929C8.09763 16.6834 8.09763 17.3166 7.70711 17.7071C7.31658 18.0976 6.68342 18.0976 6.29289 17.7071L4.49991 15.9141L3.41418 16.9998L6.99997 20.5856L20.5858 6.99985L17 3.41406L11.9141 8.49991L13.7071 10.2929C14.0976 10.6834 14.0976 11.3166 13.7071 11.7071C13.3166 12.0976 12.6834 12.0976 12.2929 11.7071L10.4999 9.91412L8.91412 11.4999L9.70711 12.2929C10.0976 12.6834 10.0976 13.3166 9.70711 13.7071C9.31658 14.0976 8.68342 14.0976 8.29289 13.7071L7.49991 12.9141Z" fill="#777B92"/>
</svg>
