<svg width="24" height="24" viewBox="0 0 24 24" fill="none" xmlns="http://www.w3.org/2000/svg">
<path fill-rule="evenodd" clip-rule="evenodd" d="M15 4C14.4477 4 14 3.55228 14 3C14 2.44772 14.4477 2 15 2C15.5523 2 16 2.44772 16 3C16 3.55228 15.5523 4 15 4Z" fill="#777B92"/>
<path fill-rule="evenodd" clip-rule="evenodd" d="M21 6C21 6.55228 20.5523 7 20 7C19.4477 7 19 6.55228 19 6C19 5.44772 19.4477 5 20 5C20.5523 5 21 5.44772 21 6Z" fill="#777B92"/>
<path fill-rule="evenodd" clip-rule="evenodd" d="M15.4142 7.99985L17 9.58564C17.781 10.3667 17.781 11.633 17 12.4141L14.7185 14.6955L14.7071 14.7071L14.6955 14.7185L7.41418 21.9998C6.63314 22.7809 5.3668 22.7809 4.58576 21.9998L2.99997 20.4141C2.21892 19.633 2.21892 18.3667 2.99997 17.5856L12.5858 7.99985C13.3668 7.2188 14.6331 7.2188 15.4142 7.99985ZM13.9999 12.5857L15.5858 10.9998L14 9.41406L12.4141 10.9999L13.9999 12.5857ZM10.9999 12.4141L4.41418 18.9998L5.99997 20.5856L12.5857 13.9999L10.9999 12.4141Z" fill="#777B92"/>
<path fill-rule="evenodd" clip-rule="evenodd" d="M12 6C12 6.55228 11.5523 7 11 7C10.4477 7 10 6.55228 10 6C10 5.44772 10.4477 5 11 5C11.5523 5 12 5.44772 12 6Z" fill="#777B92"/>
<path fill-rule="evenodd" clip-rule="evenodd" d="M19 15C18.4477 15 18 14.5523 18 14C18 13.4477 18.4477 13 19 13C19.5523 13 20 13.4477 20 14C20 14.5523 19.5523 15 19 15Z" fill="#777B92"/>
</svg>
