<svg width="22" height="22" viewBox="0 0 22 22" fill="none" xmlns="http://www.w3.org/2000/svg">
<path d="M16.2668 2.24889C15.9111 2.58075 15.9111 3.1188 16.2668 3.45066L19 6L21.7332 3.45066C22.0889 3.1188 22.0889 2.58075 21.7332 2.24889C21.3774 1.91704 20.8005 1.91704 20.4447 2.24889L19 3.59646L17.5553 2.2489C17.1995 1.91704 16.6226 1.91704 16.2668 2.24889Z" fill="#97A3BA"/>
<path d="M3 7C3.55228 7 4 6.55228 4 6C4 5.44772 3.55228 5 3 5H1C0.447715 5 0 5.44772 0 6C0 6.55228 0.447715 7 1 7H3Z" fill="#97A3BA"/>
<path d="M5 11C5.55228 11 6 10.5523 6 10C6 9.44772 5.55228 9 5 9H1C0.447715 9 0 9.44772 0 10C0 10.5523 0.447715 11 1 11H5Z" fill="#97A3BA"/>
<path d="M7 15C7.55229 15 8 14.5523 8 14C8 13.4477 7.55229 13 7 13H1C0.447715 13 0 13.4477 0 14C0 14.5523 0.447715 15 1 15H7Z" fill="#97A3BA"/>
<path d="M19 19C19.5523 19 20 18.5523 20 18C20 17.4477 19.5523 17 19 17H1C0.447716 17 0 17.4477 0 18C0 18.5523 0.447715 19 1 19H19Z" fill="#97A3BA"/>
<path d="M12 14C12 14.5523 11.5523 15 11 15C10.4477 15 10 14.5523 10 14C10 13.4477 10.4477 13 11 13C11.5523 13 12 13.4477 12 14Z" fill="#97A3BA"/>
<path d="M15 15C15.5523 15 16 14.5523 16 14C16 13.4477 15.5523 13 15 13C14.4477 13 14 13.4477 14 14C14 14.5523 14.4477 15 15 15Z" fill="#97A3BA"/>
<path d="M20 14C20 14.5523 19.5523 15 19 15C18.4477 15 18 14.5523 18 14C18 13.4477 18.4477 13 19 13C19.5523 13 20 13.4477 20 14Z" fill="#97A3BA"/>
<path d="M10 10C10 10.5523 9.55228 11 9 11C8.44771 11 8 10.5523 8 10C8 9.44772 8.44771 9 9 9C9.55228 9 10 9.44772 10 10Z" fill="#97A3BA"/>
<path d="M8 6C8 6.55228 7.55228 7 7 7C6.44772 7 6 6.55228 6 6C6 5.44772 6.44772 5 7 5C7.55228 5 8 5.44772 8 6Z" fill="#97A3BA"/>
<path d="M11 7C11.5523 7 12 6.55228 12 6C12 5.44772 11.5523 5 11 5C10.4477 5 10 5.44772 10 6C10 6.55228 10.4477 7 11 7Z" fill="#97A3BA"/>
<path d="M16 6C16 6.55228 15.5523 7 15 7C14.4477 7 14 6.55228 14 6C14 5.44772 14.4477 5 15 5C15.5523 5 16 5.44772 16 6Z" fill="#97A3BA"/>
<path d="M13 11C13.5523 11 14 10.5523 14 10C14 9.44772 13.5523 9 13 9C12.4477 9 12 9.44772 12 10C12 10.5523 12.4477 11 13 11Z" fill="#97A3BA"/>
<path d="M20 10C20 10.5523 19.5523 11 19 11H17C16.4477 11 16 10.5523 16 10C16 9.44772 16.4477 9 17 9H19C19.5523 9 20 9.44772 20 10Z" fill="#97A3BA"/>
</svg>
