<svg width="24" height="24" viewBox="0 0 24 24" fill="none" xmlns="http://www.w3.org/2000/svg">
<path fill-rule="evenodd" clip-rule="evenodd" d="M20.7071 4.70711L14.8163 10.5979C15.4553 11.7424 15.4458 13.1734 14.7237 14.3287L10.848 20.5299C10.6865 20.7883 10.416 20.9589 10.1132 20.9934C9.81038 21.0279 9.50839 20.9224 9.2929 20.707L5.80344 17.2175C5.7999 17.2141 5.79639 17.2106 5.79289 17.2071C5.7894 17.2036 5.78593 17.2001 5.7825 17.1966L3.2929 14.707C3.07741 14.4915 2.97195 14.1895 3.00643 13.8867C3.04091 13.5839 3.21158 13.3134 3.47001 13.1519L9.67113 9.27615C10.8265 8.55405 12.2576 8.54458 13.4021 9.18369L19.2929 3.29289C19.6834 2.90237 20.3166 2.90237 20.7071 3.29289C21.0976 3.68342 21.0976 4.31658 20.7071 4.70711ZM7.91429 16.4999L9.81824 18.4039L11.8073 15.2215L8.7784 12.1926L5.59598 14.1816L6.50008 15.0857L7.29289 14.2929C7.68342 13.9024 8.31658 13.9024 8.70711 14.2929C9.09763 14.6834 9.09763 15.3166 8.70711 15.7071L7.91429 16.4999ZM12.7847 11.1988C12.2356 10.6572 11.3859 10.5629 10.7311 10.9722L10.519 11.1048L12.8951 13.4809L13.0277 13.2687C13.4369 12.6139 13.3426 11.7643 12.8012 11.2153L12.7929 11.2071L12.7847 11.1988Z" fill="#777B92"/>
</svg>
