<svg width="22" height="22" viewBox="0 0 22 22" fill="none" xmlns="http://www.w3.org/2000/svg">
<path d="M11.7071 4.70711C11.5196 4.89464 11.2652 5 11 5C10.7348 5 10.4804 4.89464 10.2929 4.70711C10.1054 4.51957 10 4.26522 10 4V2C10 1.73478 10.1054 1.48043 10.2929 1.29289C10.4804 1.10536 10.7348 1 11 1C11.2652 1 11.5196 1.10536 11.7071 1.29289C11.8946 1.48043 12 1.73478 12 2V4C12 4.26522 11.8946 4.51957 11.7071 4.70711Z" fill="#97A3BA"/>
<path fill-rule="evenodd" clip-rule="evenodd" d="M8.07645 6.94379C8.92778 6.33019 9.95059 6 11 6C12.0494 6 13.0722 6.33019 13.9236 6.94379C14.7749 7.55739 15.4116 8.4233 15.7434 9.41886C16.0753 10.4144 16.0855 11.4892 15.7726 12.4908C15.4597 13.4925 14.8395 14.3704 14 15V19C14 19.5304 13.7893 20.0391 13.4142 20.4142C13.0391 20.7893 12.5304 21 12 21H10C9.46957 21 8.96086 20.7893 8.58579 20.4142C8.21071 20.0391 8 19.5304 8 19V15C7.16047 14.3704 6.54033 13.4925 6.22743 12.4908C5.91453 11.4892 5.92473 10.4144 6.25658 9.41886C6.58844 8.4233 7.22512 7.55739 8.07645 6.94379ZM12.133 13.9577C12.2208 13.805 12.3474 13.6781 12.5 13.59C12.9549 13.3274 13.3328 12.9499 13.5961 12.4954C13.8593 12.0409 13.9986 11.5252 14 11C14 10.2044 13.6839 9.44129 13.1213 8.87868C12.5587 8.31607 11.7956 8 11 8C10.2044 8 9.44129 8.31607 8.87868 8.87868C8.31607 9.44129 8 10.2044 8 11C8.00142 11.5252 8.14071 12.0409 8.40394 12.4954C8.66717 12.9499 9.04513 13.3274 9.5 13.59C9.6526 13.6781 9.77922 13.805 9.86702 13.9577C9.95482 14.1105 10.0007 14.2838 10 14.46V19H12V14.46C11.9993 14.2838 12.0452 14.1105 12.133 13.9577Z" fill="#97A3BA"/>
<path d="M20 10H18C17.7348 10 17.4804 10.1054 17.2929 10.2929C17.1054 10.4804 17 10.7348 17 11C17 11.2652 17.1054 11.5196 17.2929 11.7071C17.4804 11.8946 17.7348 12 18 12H20C20.2652 12 20.5196 11.8946 20.7071 11.7071C20.8946 11.5196 21 11.2652 21 11C21 10.7348 20.8946 10.4804 20.7071 10.2929C20.5196 10.1054 20.2652 10 20 10Z" fill="#97A3BA"/>
<path d="M2 10H4C4.26522 10 4.51957 10.1054 4.70711 10.2929C4.89464 10.4804 5 10.7348 5 11C5 11.2652 4.89464 11.5196 4.70711 11.7071C4.51957 11.8946 4.26522 12 4 12H2C1.73478 12 1.48043 11.8946 1.29289 11.7071C1.10536 11.5196 1 11.2652 1 11C1 10.7348 1.10536 10.4804 1.29289 10.2929C1.48043 10.1054 1.73478 10 2 10Z" fill="#97A3BA"/>
<path d="M6.65999 5.42019L5.21999 4.00019C5.02505 3.81587 4.76488 3.71653 4.4967 3.72403C4.22852 3.73153 3.97431 3.84526 3.78999 4.04019C3.60566 4.23513 3.50632 4.4953 3.51382 4.76348C3.52133 5.03165 3.63505 5.28587 3.82999 5.47019L5.26999 6.86019C5.36662 6.9535 5.48107 7.02639 5.60649 7.07449C5.73191 7.1226 5.86574 7.14494 5.99999 7.14019C6.13469 7.13968 6.2679 7.11195 6.39163 7.05868C6.51535 7.00541 6.62704 6.92769 6.71999 6.83019C6.89849 6.63501 6.9924 6.37706 6.98115 6.1128C6.96991 5.84854 6.85442 5.5995 6.65999 5.42019Z" fill="#97A3BA"/>
<path d="M17.485 3.75928C17.7492 3.75928 18.0026 3.86382 18.19 4.05007C18.2837 4.14303 18.3581 4.25363 18.4089 4.37549C18.4596 4.49735 18.4858 4.62806 18.4858 4.76007C18.4858 4.89208 18.4596 5.02279 18.4089 5.14465C18.3581 5.26651 18.2837 5.37711 18.19 5.47007L16.75 6.86007C16.5646 7.03875 16.3175 7.13904 16.06 7.14007C15.9253 7.13956 15.7921 7.11183 15.6683 7.05856C15.5446 7.00529 15.4329 6.92757 15.34 6.83007C15.1537 6.64271 15.0492 6.38926 15.0492 6.12507C15.0492 5.86088 15.1537 5.60743 15.34 5.42007L16.78 4.05007C16.9674 3.86382 17.2208 3.75928 17.485 3.75928Z" fill="#97A3BA"/>
</svg>
