<svg width="22" height="22" viewBox="0 0 22 22" fill="none" xmlns="http://www.w3.org/2000/svg">
<path d="M19 12.18H14.94L17.24 9.71C17.4263 9.52264 17.5308 9.26919 17.5308 9.005C17.5308 8.74081 17.4263 8.48736 17.24 8.3L13.05 4.44C12.9565 4.34936 12.8449 4.27938 12.7226 4.23459C12.6003 4.1898 12.47 4.1712 12.34 4.18C12.2087 4.18316 12.0793 4.21217 11.9592 4.26536C11.8391 4.31855 11.7306 4.39488 11.64 4.49L9.82 6.49V3C9.82 2.73478 9.71464 2.48043 9.52711 2.29289C9.33957 2.10536 9.08522 2 8.82 2H3C2.73478 2 2.48043 2.10536 2.29289 2.29289C2.10536 2.48043 2 2.73478 2 3V16.09C2 17.127 2.41195 18.1215 3.14521 18.8548C3.87848 19.5881 4.873 20 5.91 20H19C19.2652 20 19.5196 19.8946 19.7071 19.7071C19.8946 19.5196 20 19.2652 20 19V13.18C20 12.9148 19.8946 12.6604 19.7071 12.4729C19.5196 12.2854 19.2652 12.18 19 12.18ZM12.42 6.59L15.09 9.08L9.82 14.74V9.38L12.42 6.59ZM7.82 9V12H4V9H7.82ZM7.82 4V7H4V4H7.82ZM4 16.09V14H7.82V16.09C7.82 16.5966 7.61877 17.0824 7.26057 17.4406C6.90238 17.7988 6.41656 18 5.91 18C5.40344 18 4.91762 17.7988 4.55943 17.4406C4.20123 17.0824 4 16.5966 4 16.09ZM18 18H9.51L13.07 14.18H18V18Z" fill="#97A3BA"/>
</svg>
