<svg width="22" height="22" viewBox="0 0 22 22" fill="none" xmlns="http://www.w3.org/2000/svg">
<path d="M11 7C11.8284 7 12.5 6.32843 12.5 5.5C12.5 4.67157 11.8284 4 11 4C10.1716 4 9.5 4.67157 9.5 5.5C9.5 6.32843 10.1716 7 11 7Z" fill="#97A3BA"/>
<path d="M13.6549 6.83572C13.7861 6.56969 13.9932 6.34852 14.25 6.20016C14.4207 6.10156 14.6091 6.03757 14.8046 6.01185C15 5.98613 15.1986 5.99918 15.389 6.05026C15.5794 6.10134 15.7578 6.18945 15.9142 6.30954C16.0705 6.42963 16.2016 6.57936 16.3 6.75016C16.4481 7.00716 16.5166 7.30228 16.497 7.59823C16.4774 7.89418 16.3705 8.17768 16.1898 8.41288C16.0091 8.64808 15.7627 8.82443 15.4818 8.91964C15.2009 9.01485 14.8981 9.02464 14.6116 8.94779C14.3251 8.87093 14.0679 8.71087 13.8724 8.48784C13.6768 8.26481 13.5518 7.98881 13.5131 7.69475C13.4744 7.40068 13.5238 7.10175 13.6549 6.83572Z" fill="#97A3BA"/>
<path d="M7.74996 6.19982C7.49297 6.05174 7.19784 5.98318 6.90189 6.0028C6.60594 6.02241 6.32245 6.12933 6.08724 6.31003C5.85204 6.49073 5.67569 6.7371 5.58048 7.01801C5.48527 7.29891 5.47548 7.60174 5.55233 7.88821C5.62919 8.17468 5.78925 8.43193 6.01228 8.62745C6.23532 8.82297 6.51131 8.94799 6.80537 8.98669C7.09944 9.02539 7.39838 8.97604 7.6644 8.84489C7.93043 8.71373 8.1516 8.50665 8.29996 8.24982C8.39856 8.07913 8.46255 7.89068 8.48827 7.69524C8.514 7.4998 8.50094 7.30121 8.44986 7.11082C8.39878 6.92043 8.31068 6.74198 8.19058 6.58566C8.07049 6.42934 7.92076 6.29823 7.74996 6.19982Z" fill="#97A3BA"/>
<path d="M4.61059 10.9362C4.72276 10.6613 4.91396 10.4259 5.16 10.2598C5.3225 10.1485 5.50546 10.0705 5.6983 10.0303C5.89113 9.99016 6.09002 9.98864 6.28345 10.0258C6.47688 10.063 6.66101 10.1382 6.8252 10.247C6.98939 10.3558 7.13037 10.4961 7.24 10.6598C7.40686 10.9053 7.49712 11.1948 7.49935 11.4917C7.50157 11.7886 7.41566 12.0794 7.25249 12.3274C7.08933 12.5754 6.85624 12.7694 6.58274 12.8849C6.30925 13.0003 6.00764 13.032 5.71612 12.9759C5.4246 12.9199 5.15626 12.7786 4.9451 12.5699C4.73393 12.3613 4.58942 12.0946 4.52988 11.8038C4.47033 11.513 4.49842 11.211 4.61059 10.9362Z" fill="#97A3BA"/>
<path fill-rule="evenodd" clip-rule="evenodd" d="M18.5502 4.08089C17.5535 3.08539 16.3692 2.30017 15.0668 1.7713C13.7643 1.24244 12.3699 0.980591 10.9655 1.00112C8.3291 0.99449 5.79804 2.04162 3.92915 3.91216C2.06026 5.78269 1.00662 8.32341 1.00003 10.9754C0.99344 13.6273 2.03443 16.1733 3.894 18.0532C5.75357 19.9331 8.2794 20.993 10.9158 20.9996C11.4839 21.0093 12.0391 20.829 12.4943 20.487C12.9495 20.1449 13.2789 19.6605 13.4308 19.1098C13.5276 18.712 13.5266 18.2966 13.4279 17.8993C13.3292 17.5021 13.1357 17.135 12.8642 16.8299C12.8014 16.7581 12.7605 16.6696 12.7462 16.575C12.7319 16.4805 12.7449 16.3837 12.7836 16.2964C12.8223 16.209 12.8851 16.1346 12.9646 16.0821C13.0441 16.0296 13.1369 16.0011 13.232 16H14.8722C16.4159 16.0073 17.9052 15.4268 19.0411 14.3751C20.1769 13.3235 20.8752 11.8785 20.9956 10.3304C21.0326 9.17612 20.8348 8.02639 20.4143 6.95173C19.9938 5.87708 19.3595 4.90016 18.5502 4.08089ZM14.912 14.0001H13.2717C12.7927 13.9974 12.3232 14.1346 11.9202 14.3949C11.5171 14.6553 11.1978 15.0278 11.001 15.4671C10.8042 15.9064 10.7384 16.3937 10.8115 16.8699C10.8846 17.3461 11.0935 17.7907 11.4129 18.1498C11.475 18.213 11.519 18.2919 11.54 18.3782C11.561 18.4645 11.5583 18.5549 11.5321 18.6398C11.4824 18.8498 11.2538 18.9798 10.9456 18.9998C9.8167 18.9852 8.70379 18.729 7.68092 18.2482C6.65805 17.7675 5.74869 17.0731 5.0133 16.2114C4.27792 15.3496 3.73339 14.3402 3.41591 13.2504C3.09844 12.1605 3.01532 11.0151 3.17206 9.89046C3.45554 8.00054 4.39432 6.27236 5.82237 5.01156C7.25042 3.75075 9.07573 3.03857 10.9755 3.00097H11.055C12.1791 2.98617 13.2948 3.19796 14.3363 3.62387C15.3777 4.04977 16.3238 4.68116 17.1188 5.48079C17.7391 6.10514 18.2264 6.85004 18.5512 7.67007C18.8759 8.49009 19.0312 9.36806 19.0075 10.2504C18.9046 11.2734 18.4295 12.2221 17.6736 12.9142C16.9176 13.6063 15.9341 13.993 14.912 14.0001Z" fill="#97A3BA"/>
</svg>
