<svg width="22" height="22" viewBox="0 0 22 22" fill="none" xmlns="http://www.w3.org/2000/svg">
<path fill-rule="evenodd" clip-rule="evenodd" d="M20.7076 2.70711C21.0981 2.31658 21.0981 1.68342 20.7076 1.29289C20.3171 0.902369 19.6839 0.902369 19.2934 1.29289L13.889 6.69726C12.3626 5.73362 10.3654 5.75604 8.84387 6.84288L1.41877 12.1465C1.17957 12.3174 1.02766 12.5848 1.00341 12.8778C0.979166 13.1707 1.08504 13.4595 1.2929 13.6674L8.3325 20.707C8.54035 20.9148 8.82914 21.0207 9.12209 20.9965C9.41504 20.9722 9.68248 20.8203 9.85334 20.5811L15.157 13.156C16.2436 11.6347 16.2662 9.6379 15.3031 8.11162L20.7076 2.70711ZM7.74715 14.2276C8.13767 13.8371 8.13767 13.2039 7.74715 12.8134C7.35662 12.4229 6.72346 12.4229 6.33293 12.8134L4.80014 14.3462L3.54182 13.0879L8.28544 9.69957C8.28791 9.70209 8.29039 9.7046 8.29289 9.70711L12.3003 13.7145L8.912 18.458L6.21436 15.7604L7.74715 14.2276ZM13.4788 12.0646L13.5295 11.9935C14.2471 10.9889 14.1332 9.61266 13.2602 8.73965C12.3872 7.86664 11.011 7.75274 10.0063 8.47035L9.93531 8.52109L13.4788 12.0646Z" fill="#7887A5"/>
</svg>
