<svg width="22" height="22" viewBox="0 0 22 22" fill="none" xmlns="http://www.w3.org/2000/svg">
<path d="M11 1C9.68678 1 8.38642 1.25866 7.17317 1.7612C5.95991 2.26375 4.85752 3.00035 3.92893 3.92893C2.05357 5.8043 1 8.34784 1 11C1 11.2652 1.10536 11.5196 1.29289 11.7071C1.48043 11.8946 1.73478 12 2 12H10V18C10 18.7956 10.3161 19.5587 10.8787 20.1213C11.4413 20.6839 12.2044 21 13 21C13.7956 21 14.5587 20.6839 15.1213 20.1213C15.6839 19.5587 16 18.7956 16 18C16 17.7348 15.8946 17.4804 15.7071 17.2929C15.5196 17.1054 15.2652 17 15 17C14.7348 17 14.4804 17.1054 14.2929 17.2929C14.1054 17.4804 14 17.7348 14 18C14 18.2652 13.8946 18.5196 13.7071 18.7071C13.5196 18.8946 13.2652 19 13 19C12.7348 19 12.4804 18.8946 12.2929 18.7071C12.1054 18.5196 12 18.2652 12 18V12H20C20.2652 12 20.5196 11.8946 20.7071 11.7071C20.8946 11.5196 21 11.2652 21 11C21 9.68678 20.7413 8.38642 20.2388 7.17317C19.7362 5.95991 18.9997 4.85752 18.0711 3.92893C17.1425 3.00035 16.0401 2.26375 14.8268 1.7612C13.6136 1.25866 12.3132 1 11 1ZM3.06 10C3.29867 8.06227 4.23769 6.27871 5.70017 4.98531C7.16265 3.69191 9.04763 2.97796 11 2.97796C12.9524 2.97796 14.8373 3.69191 16.2998 4.98531C17.7623 6.27871 18.7013 8.06227 18.94 10H3.06Z" fill="#97A3BA"/>
</svg>
