<svg width="22" height="22" viewBox="0 0 22 22" fill="none" xmlns="http://www.w3.org/2000/svg">
<path d="M9.91994 12.3898L13.41 7.77982H13.4C13.5618 7.56764 13.8012 7.42843 14.0656 7.3928C14.3301 7.35716 14.5978 7.42804 14.81 7.58982C15.0222 7.7516 15.1614 7.99104 15.197 8.25547C15.2327 8.51989 15.1618 8.78764 15 8.99982L10.7199 14.6098C10.6268 14.7308 10.5071 14.8289 10.3702 14.8965C10.2333 14.9641 10.0827 14.9995 9.92994 14.9998C9.77805 15.0006 9.62797 14.9668 9.49109 14.901C9.3542 14.8352 9.23412 14.739 9.13995 14.6198L6.70994 11.5098C6.54684 11.3003 6.47364 11.0346 6.50646 10.7711C6.53928 10.5076 6.67542 10.2679 6.88494 10.1048C7.09447 9.94171 7.3602 9.86852 7.62369 9.90134C7.88718 9.93416 8.12684 10.0703 8.28994 10.2798L9.91994 12.3898Z" fill="#97A3BA"/>
<path fill-rule="evenodd" clip-rule="evenodd" d="M12 19.9451C16.1716 19.4839 19.4839 16.1716 19.9451 12H21C21.5523 12 22 11.5523 22 11C22 10.4477 21.5523 10 21 10H19.9451C19.4839 5.82838 16.1716 2.51608 12 2.05493V1C12 0.447715 11.5523 0 11 0C10.4477 0 10 0.447715 10 1V2.05493C5.82838 2.51608 2.51608 5.82838 2.05493 10H1C0.447715 10 0 10.4477 0 11C0 11.5523 0.447715 12 1 12H2.05493C2.51608 16.1716 5.82838 19.4839 10 19.9451V21C10 21.5523 10.4477 22 11 22C11.5523 22 12 21.5523 12 21V19.9451ZM4 11C4 7.13401 7.13401 4 11 4C14.866 4 18 7.13401 18 11C18 14.866 14.866 18 11 18C7.13401 18 4 14.866 4 11Z" fill="#97A3BA"/>
</svg>
