<svg width="22" height="22" viewBox="0 0 22 22" fill="none" xmlns="http://www.w3.org/2000/svg">
<path d="M11 21C9.95059 21 8.92778 20.6698 8.07645 20.0562C7.22512 19.4426 6.58844 18.5767 6.25658 17.5811C5.92473 16.5856 5.91453 15.5108 6.22743 14.5092C6.54033 13.5075 7.16047 12.6296 8 12V4C8 3.20435 8.31607 2.44129 8.87868 1.87868C9.44129 1.31607 10.2044 1 11 1C11.7956 1 12.5587 1.31607 13.1213 1.87868C13.6839 2.44129 14 3.20435 14 4V12C14.8395 12.6296 15.4597 13.5075 15.7726 14.5092C16.0855 15.5108 16.0753 16.5856 15.7434 17.5811C15.4116 18.5767 14.7749 19.4426 13.9236 20.0562C13.0722 20.6698 12.0494 21 11 21ZM11 3C10.7348 3 10.4804 3.10536 10.2929 3.29289C10.1054 3.48043 10 3.73478 10 4V12.54C10.0007 12.7162 9.95482 12.8895 9.86702 13.0423C9.77922 13.195 9.6526 13.3219 9.5 13.41C9.04513 13.6726 8.66717 14.0501 8.40394 14.5046C8.1407 14.9591 8.00142 15.4748 8 16C8 16.7956 8.31607 17.5587 8.87868 18.1213C9.44129 18.6839 10.2044 19 11 19C11.7956 19 12.5587 18.6839 13.1213 18.1213C13.6839 17.5587 14 16.7956 14 16C13.9986 15.4748 13.8593 14.9591 13.5961 14.5046C13.3328 14.0501 12.9549 13.6726 12.5 13.41C12.3474 13.3219 12.2208 13.195 12.133 13.0423C12.0452 12.8895 11.9993 12.7162 12 12.54V4C12.0021 3.87117 11.9774 3.74332 11.9275 3.62454C11.8776 3.50576 11.8035 3.39865 11.71 3.31C11.6182 3.2137 11.5082 3.13668 11.3862 3.08345C11.2643 3.03022 11.133 3.00185 11 3Z" fill="#97A3BA"/>
</svg>
