<svg width="22" height="22" viewBox="0 0 22 22" fill="none" xmlns="http://www.w3.org/2000/svg">
<path fill-rule="evenodd" clip-rule="evenodd" d="M16.6394 1.28435C16.2639 0.905218 15.6552 0.905218 15.2797 1.28435C14.9042 1.66347 14.9042 2.27816 15.2797 2.65729L16.5398 3.92972L10.8294 9.69585L8.45303 7.29628C8.07759 6.91717 7.4689 6.91715 7.09343 7.29621L3.17974 11.2478C1.07596 13.3721 0.140441 17.3983 1.99449 19.9958C4.56687 21.8679 8.55418 20.9233 10.658 18.799L14.5716 14.8475C14.947 14.4683 14.947 13.8537 14.5716 13.4745L12.1891 11.0688L17.8995 5.30267L19.3587 6.77612C19.7342 7.15525 20.3429 7.15525 20.7184 6.77612C21.0939 6.397 21.0939 5.78231 20.7184 5.40318L16.6394 1.28435ZM12.5319 14.1609L10.8294 12.4417L8.31228 14.9834C7.93681 15.3626 7.32807 15.3626 6.9526 14.9834C6.57714 14.6043 6.57714 13.9896 6.9526 13.6105L9.46974 11.0688L7.77305 9.35555L4.53941 12.6207C2.98297 14.1924 2.54212 16.5544 3.39818 18.5784C5.40266 19.4428 7.74184 18.9977 9.29828 17.4261L12.5319 14.1609Z" fill="#97A3BA"/>
</svg>
