<svg width="24" height="24" viewBox="0 0 24 24" fill="none" xmlns="http://www.w3.org/2000/svg">
<path fill-rule="evenodd" clip-rule="evenodd" d="M7.83859 12.3224C6.70517 11.2309 6 9.69779 6 8C6 4.68629 8.68629 2 12 2C15.3137 2 18 4.68629 18 8C18 9.69776 17.2949 11.2308 16.1615 12.3223L18.9487 20.684C19.0766 21.0677 18.9608 21.4907 18.6552 21.7557C18.3497 22.0207 17.9146 22.0756 17.5528 21.8947L12 19.1183L6.44726 21.8947C6.08549 22.0756 5.65039 22.0207 5.34484 21.7557C5.03929 21.4907 4.92346 21.0677 5.05136 20.684L7.83859 12.3224ZM8 8C8 9.30088 8.62099 10.4567 9.58271 11.1872C9.59492 11.196 9.6069 11.205 9.61864 11.2142C10.2839 11.7079 11.1079 12 12 12C12.8929 12 13.7175 11.7074 14.3831 11.2129C14.3938 11.2045 14.4047 11.1963 14.4158 11.1884C15.3784 10.4579 16 9.30154 16 8C16 5.79086 14.2091 4 12 4C9.79086 4 8 5.79086 8 8ZM9.55988 13.483L7.71217 19.0262L11.5528 17.1058C11.8344 16.9651 12.1657 16.9651 12.4473 17.1058L16.2879 19.0262L14.4402 13.483C13.6947 13.8153 12.8689 14 12 14C11.1311 14 10.3054 13.8153 9.55988 13.483Z" fill="#777B92"/>
</svg>
