<svg width="22" height="22" viewBox="0 0 22 22" fill="none" xmlns="http://www.w3.org/2000/svg">
<path d="M15.62 6.92322C15.4984 6.87253 15.388 6.79826 15.2952 6.70469C15.2017 6.61188 15.1274 6.50146 15.0768 6.3798C15.0261 6.25814 15 6.12765 15 5.99586C15 5.86406 15.0261 5.73357 15.0768 5.61191C15.1274 5.49025 15.2017 5.37984 15.2952 5.28702L16.5927 3.99915L15.2952 2.71127C15.1073 2.52328 15.0017 2.2683 15.0017 2.00244C15.0017 1.73658 15.1073 1.4816 15.2952 1.29361C15.4832 1.10561 15.7381 1 16.0039 1C16.2696 1 16.5245 1.10561 16.7125 1.29361L18 2.59147L19.2875 1.29361C19.4755 1.10561 19.7304 1 19.9961 1C20.2619 1 20.5168 1.10561 20.7048 1.29361C20.8927 1.4816 20.9983 1.73658 20.9983 2.00244C20.9983 2.2683 20.8927 2.52328 20.7048 2.71127L19.4073 3.99915L20.7048 5.28702C20.7983 5.37984 20.8726 5.49025 20.9232 5.61191C20.9739 5.73357 21 5.86406 21 5.99586C21 6.12765 20.9739 6.25814 20.9232 6.3798C20.8726 6.50146 20.7983 6.61188 20.7048 6.70469C20.612 6.79826 20.5016 6.87253 20.38 6.92322C20.2584 6.9739 20.1279 7 19.9961 7C19.8644 7 19.7339 6.9739 19.6123 6.92322C19.4907 6.87253 19.3803 6.79826 19.2875 6.70469L18 5.40683L16.7125 6.70469C16.6197 6.79826 16.5093 6.87253 16.3877 6.92322C16.2661 6.9739 16.1356 7 16.0039 7C15.8721 7 15.7416 6.9739 15.62 6.92322Z" fill="#97A3BA"/>
<path fill-rule="evenodd" clip-rule="evenodd" d="M4 6C2.34315 6 1 7.34315 1 9V18C1 19.6569 2.34315 21 4 21H13C14.6569 21 16 19.6569 16 18V12.1618C16 11.3661 15.6839 10.6031 15.1213 10.0404L11.9596 6.87868C11.397 6.31607 10.6339 6 9.83824 6H4ZM3 9C3 8.44772 3.44772 8 4 8H5V10C5 11.1046 5.89543 12 7 12H8C8.55228 12 9 11.5523 9 11C9 10.4477 8.55228 10 8 10H7V8H9.83824C10.1035 8 10.3578 8.10536 10.5453 8.29289L13.7071 11.4547C13.8946 11.6422 14 11.8965 14 12.1618V18C14 18.5523 13.5523 19 13 19H12V17C12 15.8954 11.1046 15 10 15H7C5.89543 15 5 15.8954 5 17V19H4C3.44772 19 3 18.5523 3 18V9ZM7 17H10V19H7V17Z" fill="#97A3BA"/>
</svg>
