<svg width="22" height="22" viewBox="0 0 22 22" fill="none" xmlns="http://www.w3.org/2000/svg">
<path fill-rule="evenodd" clip-rule="evenodd" d="M11.0764 20.0562C11.9278 20.6698 12.9506 21 14 21C15.0494 21 16.0722 20.6698 16.9236 20.0562C17.7749 19.4426 18.4116 18.5767 18.7434 17.5811C19.0753 16.5856 19.0855 15.5108 18.7726 14.5092C18.4597 13.5075 17.8395 12.6296 17 12V4C17 3.20435 16.6839 2.44129 16.1213 1.87868C15.5587 1.31607 14.7956 1 14 1C13.2044 1 12.4413 1.31607 11.8787 1.87868C11.3161 2.44129 11 3.20435 11 4V12C10.1605 12.6296 9.54033 13.5075 9.22743 14.5092C8.91453 15.5108 8.92473 16.5856 9.25658 17.5811C9.58844 18.5767 10.2251 19.4426 11.0764 20.0562ZM13.2929 3.29289C13.4804 3.10536 13.7348 3 14 3C14.133 3.00185 14.2643 3.03022 14.3862 3.08345C14.5082 3.13668 14.6182 3.2137 14.71 3.31C14.8035 3.39865 14.8776 3.50576 14.9275 3.62454C14.9774 3.74332 15.0021 3.87117 15 4V12.54C14.9993 12.7162 15.0452 12.8895 15.133 13.0423C15.2208 13.195 15.3474 13.3219 15.5 13.41C15.9549 13.6726 16.3328 14.0501 16.5961 14.5046C16.8593 14.9591 16.9986 15.4748 17 16C17 16.7956 16.6839 17.5587 16.1213 18.1213C15.5587 18.6839 14.7956 19 14 19C13.2044 19 12.4413 18.6839 11.8787 18.1213C11.3161 17.5587 11 16.7956 11 16C11.0014 15.4748 11.1407 14.9591 11.4039 14.5046C11.6672 14.0501 12.0451 13.6726 12.5 13.41C12.6526 13.3219 12.7792 13.195 12.867 13.0423C12.9548 12.8895 13.0007 12.7162 13 12.54V4C13 3.73478 13.1054 3.48043 13.2929 3.29289Z" fill="#97A3BA"/>
<path d="M4 4H8C8.55228 4 9 4.44772 9 5C9 5.55228 8.55228 6 8 6H4C3.44772 6 3 5.55228 3 5C3 4.44772 3.44772 4 4 4Z" fill="#97A3BA"/>
</svg>
