<svg width="24" height="24" viewBox="0 0 24 24" fill="none" xmlns="http://www.w3.org/2000/svg">
<path fill-rule="evenodd" clip-rule="evenodd" d="M16.4143 4.99985L19 7.58564C19.7811 8.36668 19.7811 9.63301 19 10.4141L17.4142 11.9999L18.7071 13.2929C19.0976 13.6834 19.0976 14.3166 18.7071 14.7071C18.3166 15.0976 17.6834 15.0976 17.2929 14.7071L15.9999 13.4142L10.9212 18.4929C10.642 18.7721 10.2864 18.9624 9.89926 19.0398L6.66703 19.6863C5.26758 19.9661 4.03374 18.7323 4.31363 17.3329L4.96008 14.1006C5.03751 13.7134 5.22782 13.3578 5.50703 13.0786L10.5857 7.99994L9.29289 6.70711C8.90237 6.31658 8.90237 5.68342 9.29289 5.29289C9.68342 4.90237 10.3166 4.90237 10.7071 5.29289L11.9999 6.58573L13.5858 4.99985C14.3669 4.2188 15.6332 4.2188 16.4143 4.99985ZM15.9999 10.5857L17.5858 8.99985L15 6.41406L13.4142 7.99994L15.9999 10.5857ZM11.9999 9.41416L6.92124 14.4929L6.27479 17.7251L9.50703 17.0786L14.5857 11.9999L11.9999 9.41416Z" fill="#777B92"/>
</svg>
