<svg width="24" height="24" viewBox="0 0 24 24" fill="none" xmlns="http://www.w3.org/2000/svg">
<path fill-rule="evenodd" clip-rule="evenodd" d="M9 12.5C9 13.3284 8.32843 14 7.5 14C6.67157 14 6 13.3284 6 12.5C6 11.6716 6.67157 11 7.5 11C8.32843 11 9 11.6716 9 12.5Z" fill="#777B92"/>
<path fill-rule="evenodd" clip-rule="evenodd" d="M8.5 10C7.67157 10 7 9.32843 7 8.5C7 7.67157 7.67157 7 8.5 7C9.32843 7 10 7.67157 10 8.5C10 9.32843 9.32843 10 8.5 10Z" fill="#777B92"/>
<path fill-rule="evenodd" clip-rule="evenodd" d="M14 6.5C14 7.32843 13.3284 8 12.5 8C11.6716 8 11 7.32843 11 6.5C11 5.67157 11.6716 5 12.5 5C13.3284 5 14 5.67157 14 6.5Z" fill="#777B92"/>
<path fill-rule="evenodd" clip-rule="evenodd" d="M16.5 10C15.6716 10 15 9.32843 15 8.5C15 7.67157 15.6716 7 16.5 7C17.3284 7 18 7.67157 18 8.5C18 9.32843 17.3284 10 16.5 10Z" fill="#777B92"/>
<path fill-rule="evenodd" clip-rule="evenodd" d="M2 12C2 6.47715 6.47715 2 12 2C17.4462 2 22 5.90346 22 11.5V11.5011C22 11.788 22 12.4415 21.6785 13.2455C21.3554 14.0537 20.7355 14.9484 19.6 15.8C18.9987 16.251 18.4306 16.5061 17.8749 16.626C17.3271 16.7441 16.8475 16.7175 16.472 16.6834C16.4081 16.6776 16.3479 16.6719 16.291 16.6666C15.6712 16.6082 15.4358 16.5861 15.0795 16.8158C14.8839 16.9705 14.7877 17.1696 14.7527 17.515C14.7214 17.8231 14.745 18.1227 14.7748 18.5007C14.7869 18.6536 14.7999 18.8194 14.8108 19.0038C14.8409 19.5166 14.8678 20.3316 14.4094 20.997C13.8919 21.7482 13.0083 22 12 22C6.47715 22 2 17.5228 2 12ZM12 4C7.58172 4 4 7.58172 4 12C4 16.4183 7.58172 20 12 20C12.3624 20 12.5666 19.9535 12.6718 19.9132C12.7211 19.8942 12.7443 19.8783 12.7524 19.8721C12.7594 19.8668 12.7612 19.8642 12.7623 19.8625C12.7883 19.8248 12.8466 19.6709 12.8142 19.1212C12.8088 19.0294 12.8003 18.9226 12.7908 18.8051C12.7569 18.3816 12.7117 17.8182 12.7629 17.3131C12.836 16.5923 13.1094 15.793 13.9 15.2C13.9148 15.1889 13.9299 15.1782 13.9453 15.1679C14.9349 14.5082 15.8551 14.6069 16.4665 14.6725C16.5323 14.6796 16.5946 14.6863 16.653 14.6916C16.965 14.72 17.2042 14.7246 17.4532 14.6709C17.6944 14.6189 18.0013 14.499 18.4 14.2C19.2645 13.5516 19.6446 12.9453 19.8215 12.503C19.9996 12.0575 20 11.7116 20 11.5C20 7.15541 16.495 4 12 4Z" fill="#777B92"/>
</svg>
