<svg width="22" height="22" viewBox="0 0 22 22" fill="none" xmlns="http://www.w3.org/2000/svg">
<path d="M17.9683 19.75L15.6688 10.75C16.5189 9.68737 16.9794 8.36329 16.9728 7C16.9728 5.4087 16.3435 3.88258 15.2234 2.75736C14.1033 1.63214 12.5841 1 11.0001 1C9.416 1 7.89681 1.63214 6.7767 2.75736C5.6566 3.88258 5.02733 5.4087 5.02733 7C5.0246 8.37381 5.496 9.7061 6.36124 10.77L4.03187 19.75C3.98233 19.9419 3.9907 20.1443 4.05592 20.3315C4.12114 20.5186 4.24028 20.6821 4.39818 20.801C4.55609 20.92 4.74563 20.9891 4.94274 20.9996C5.13984 21.0101 5.3356 20.9615 5.50515 20.86L10.8109 17.73L16.4651 20.87C16.6179 20.9626 16.7945 21.0078 16.9728 21C17.1274 21.005 17.281 20.9737 17.4214 20.9086C17.5618 20.8435 17.6853 20.7465 17.7819 20.6252C17.8785 20.5039 17.9456 20.3616 17.978 20.2097C18.0103 20.0578 18.007 19.9004 17.9683 19.75ZM11.0001 3C11.7876 3 12.5574 3.2346 13.2122 3.67412C13.8671 4.11365 14.3774 4.73836 14.6788 5.46927C14.9802 6.20017 15.059 7.00444 14.9054 7.78036C14.7517 8.55629 14.3725 9.26902 13.8156 9.82843C13.2588 10.3878 12.5493 10.7688 11.7769 10.9231C11.0045 11.0775 10.2039 10.9983 9.47629 10.6955C8.7487 10.3928 8.12683 9.88008 7.6893 9.22228C7.25177 8.56448 7.01824 7.79113 7.01824 7C7.01824 5.93913 7.43775 4.92172 8.18449 4.17157C8.93123 3.42143 9.94402 3 11.0001 3ZM11.3087 15.71C11.1573 15.6222 10.9857 15.576 10.8109 15.576C10.6362 15.576 10.4645 15.6222 10.3132 15.71L6.58024 17.91L8.0137 12.21C8.91022 12.7276 9.92619 13 10.9602 13C11.9943 13 13.0103 12.7276 13.9068 12.21L15.4298 18L11.3087 15.71Z" fill="#97A3BA"/>
</svg>
