<svg width="24" height="24" viewBox="0 0 24 24" fill="none" xmlns="http://www.w3.org/2000/svg">
<path fill-rule="evenodd" clip-rule="evenodd" d="M3 6H5C5.55228 6 6 6.44772 6 7C6 7.55228 5.55228 8 5 8H3C2.44772 8 2 7.55228 2 7C2 6.44772 2.44772 6 3 6Z" fill="#777B92"/>
<path fill-rule="evenodd" clip-rule="evenodd" d="M9 8C8.44772 8 8 7.55228 8 7C8 6.44772 8.44772 6 9 6C9.55228 6 10 6.44772 10 7C10 7.55228 9.55228 8 9 8Z" fill="#777B92"/>
<path fill-rule="evenodd" clip-rule="evenodd" d="M11 12C10.4477 12 10 11.5523 10 11C10 10.4477 10.4477 10 11 10C11.5523 10 12 10.4477 12 11C12 11.5523 11.5523 12 11 12Z" fill="#777B92"/>
<path fill-rule="evenodd" clip-rule="evenodd" d="M14 15C14 15.5523 13.5523 16 13 16C12.4477 16 12 15.5523 12 15C12 14.4477 12.4477 14 13 14C13.5523 14 14 14.4477 14 15Z" fill="#777B92"/>
<path fill-rule="evenodd" clip-rule="evenodd" d="M17 16C16.4477 16 16 15.5523 16 15C16 14.4477 16.4477 14 17 14C17.5523 14 18 14.4477 18 15C18 15.5523 17.5523 16 17 16Z" fill="#777B92"/>
<path fill-rule="evenodd" clip-rule="evenodd" d="M22 15C22 15.5523 21.5523 16 21 16C20.4477 16 20 15.5523 20 15C20 14.4477 20.4477 14 21 14C21.5523 14 22 14.4477 22 15Z" fill="#777B92"/>
<path fill-rule="evenodd" clip-rule="evenodd" d="M15 12C14.4477 12 14 11.5523 14 11C14 10.4477 14.4477 10 15 10C15.5523 10 16 10.4477 16 11C16 11.5523 15.5523 12 15 12Z" fill="#777B92"/>
<path fill-rule="evenodd" clip-rule="evenodd" d="M14 7C14 7.55228 13.5523 8 13 8C12.4477 8 12 7.55228 12 7C12 6.44772 12.4477 6 13 6C13.5523 6 14 6.44772 14 7Z" fill="#777B92"/>
<path fill-rule="evenodd" clip-rule="evenodd" d="M17 8C16.4477 8 16 7.55228 16 7C16 6.44772 16.4477 6 17 6C17.5523 6 18 6.44772 18 7C18 7.55228 17.5523 8 17 8Z" fill="#777B92"/>
<path fill-rule="evenodd" clip-rule="evenodd" d="M22 7C22 7.55228 21.5523 8 21 8C20.4477 8 20 7.55228 20 7C20 6.44772 20.4477 6 21 6C21.5523 6 22 6.44772 22 7Z" fill="#777B92"/>
<path fill-rule="evenodd" clip-rule="evenodd" d="M2 11C2 10.4477 2.44772 10 3 10H7C7.55228 10 8 10.4477 8 11C8 11.5523 7.55228 12 7 12H3C2.44772 12 2 11.5523 2 11Z" fill="#777B92"/>
<path fill-rule="evenodd" clip-rule="evenodd" d="M19 10H21C21.5523 10 22 10.4477 22 11C22 11.5523 21.5523 12 21 12H19C18.4477 12 18 11.5523 18 11C18 10.4477 18.4477 10 19 10Z" fill="#777B92"/>
<path fill-rule="evenodd" clip-rule="evenodd" d="M2 15C2 14.4477 2.44772 14 3 14H9C9.55228 14 10 14.4477 10 15C10 15.5523 9.55228 16 9 16H3C2.44772 16 2 15.5523 2 15Z" fill="#777B92"/>
<path fill-rule="evenodd" clip-rule="evenodd" d="M3 18H21C21.5523 18 22 18.4477 22 19C22 19.5523 21.5523 20 21 20H3C2.44772 20 2 19.5523 2 19C2 18.4477 2.44772 18 3 18Z" fill="#777B92"/>
</svg>
