<svg width="24" height="24" viewBox="0 0 24 24" fill="none" xmlns="http://www.w3.org/2000/svg">
<path fill-rule="evenodd" clip-rule="evenodd" d="M18.4142 4.99985L19 5.58564C19.781 6.36669 19.781 7.63301 19 8.41406L12.8932 14.5209C12.9631 14.8361 13 15.1637 13 15.5C13 17.9853 10.9853 20 8.50003 20H5.99974C4.89528 20 3.99998 19.105 4 18.0003L4.00003 15.5C4.00003 13.0147 6.01474 11 8.50003 11C8.83619 11 9.16375 11.0369 9.47887 11.1068L15.5858 4.99985C16.3668 4.2188 17.6332 4.2188 18.4142 4.99985ZM11.9614 12.6242L17.5858 6.99985L17 6.41406L11.3756 12.0385C11.5883 12.2154 11.7845 12.4115 11.9614 12.6242ZM6.00003 15.5L6 18H8.50003C9.88074 18 11 16.8807 11 15.5C11 14.1193 9.88074 13 8.50003 13C7.11931 13 6.00003 14.1193 6.00003 15.5Z" fill="#777B92"/>
</svg>
