<svg width="22" height="22" viewBox="0 0 22 22" fill="none" xmlns="http://www.w3.org/2000/svg">
<path fill-rule="evenodd" clip-rule="evenodd" d="M8 0C8.55228 0 9 0.447715 9 1C9 1.55228 8.55228 2 8 2H7V4C7 4.55228 6.55228 5 6 5C5.44772 5 5 4.55228 5 4V2H3C2.73478 2 2.48043 2.10536 2.29289 2.29289C2.10536 2.48043 2 2.73478 2 3V15C2 15.2652 2.10536 15.5196 2.29289 15.7071C2.48043 15.8946 2.73478 16 3 16H5V13C5 12.7348 5.10536 12.4804 5.29289 12.2929C5.48043 12.1054 5.73478 12 6 12H12C12.2652 12 12.5196 12.1054 12.7071 12.2929C12.8946 12.4804 13 12.7348 13 13V16H15C15.2652 16 15.5196 15.8946 15.7071 15.7071C15.8946 15.5196 16 15.2652 16 15V10C16 9.44772 16.4477 9 17 9C17.5523 9 18 9.44772 18 10V15C18 15.7956 17.6839 16.5587 17.1213 17.1213C16.5587 17.6839 15.7956 18 15 18H3C2.20435 18 1.44129 17.6839 0.87868 17.1213C0.316071 16.5587 0 15.7956 0 15V3C0 2.20435 0.316071 1.44129 0.87868 0.87868C1.44129 0.316071 2.20435 0 3 0H8ZM7 14H11V16H7V14Z" fill="#7887A5"/>
<path fill-rule="evenodd" clip-rule="evenodd" d="M12.3868 9.59977L9.71175 9.98192C8.71658 10.1241 7.87782 9.24304 8.0147 8.28487L8.39685 5.60982C8.44275 5.28853 8.59162 4.99079 8.82111 4.7613L12.9962 0.586252C13.7772 -0.194798 15.0435 -0.194796 15.8246 0.586252L17.4104 2.17204C18.1914 2.95309 18.1914 4.21942 17.4104 5.00047L13.2353 9.17551C13.0058 9.405 12.7081 9.55387 12.3868 9.59977ZM10.0889 7.90774L11.939 7.64344L12.9962 6.58619L11.4104 5.0004L10.3532 6.05766L10.0889 7.90774ZM12.8246 3.58619L14.4104 5.17198L15.9962 3.58625L14.4104 2.00047L12.8246 3.58619Z" fill="#7887A5"/>
</svg>
