<svg width="24" height="24" viewBox="0 0 24 24" fill="none" xmlns="http://www.w3.org/2000/svg">
<path fill-rule="evenodd" clip-rule="evenodd" d="M16.2929 2.29289C16.6834 1.90237 17.3166 1.90237 17.7071 2.29289L21.7071 6.29289C22.0976 6.68342 22.0976 7.31658 21.7071 7.70711C21.3166 8.09763 20.6834 8.09763 20.2929 7.70711L19 6.41421L13.4142 12L15.7071 14.2929C16.0528 14.6386 16.0979 15.1835 15.8138 15.5813L15 15C15.8138 15.5813 15.814 15.5809 15.8138 15.5813L15.8127 15.5827L15.8112 15.5848L15.8069 15.5908L15.7926 15.6104C15.7807 15.6267 15.7639 15.6495 15.7424 15.6781C15.6994 15.7355 15.6375 15.8166 15.5575 15.9176C15.3977 16.1194 15.1654 16.4014 14.8683 16.7315C14.2762 17.3893 13.4162 18.2504 12.35 19.05C10.2444 20.6292 7.14364 22.102 3.6838 20.9487C3.3852 20.8492 3.15088 20.6148 3.05135 20.3162C1.89808 16.8564 3.37083 13.7556 4.95003 11.65C5.74965 10.5839 6.61069 9.7238 7.26856 9.13172C7.59867 8.83462 7.88063 8.6023 8.08244 8.44253C8.18343 8.36259 8.26457 8.30063 8.3219 8.25763C8.35057 8.23613 8.3733 8.21935 8.38961 8.20742L8.40919 8.19318L8.41526 8.1888L8.41734 8.18731C8.41768 8.18707 8.41878 8.18628 9.00002 9.00001L8.41878 8.18628C8.81657 7.90215 9.36147 7.94724 9.70713 8.29291L12 10.5858L17.5858 5L16.2929 3.70711C15.9024 3.31658 15.9024 2.68342 16.2929 2.29289ZM10.5858 12L8.92492 10.3391C8.82669 10.423 8.71997 10.5162 8.60649 10.6183C8.01436 11.1512 7.25041 11.9162 6.55003 12.85C5.22118 14.6218 4.23659 16.8352 4.80749 19.1926C7.1648 19.7635 9.37822 18.7789 11.15 17.45C12.0839 16.7496 12.8488 15.9857 13.3817 15.3935C13.4839 15.2801 13.5771 15.1734 13.6609 15.0751L12 13.4142L9.70711 15.7071C9.31658 16.0976 8.68342 16.0976 8.29289 15.7071C7.90237 15.3166 7.90237 14.6834 8.29289 14.2929L10.5858 12Z" fill="#777B92"/>
</svg>
