<svg width="22" height="22" viewBox="0 0 22 22" fill="none" xmlns="http://www.w3.org/2000/svg">
<path d="M21.4833 2.06397C21.5847 2.10619 21.6767 2.16807 21.754 2.24602C21.8319 2.32334 21.8938 2.41533 21.936 2.51669C21.9783 2.61804 22 2.72675 22 2.83655C22 2.94635 21.9783 3.05506 21.936 3.15641C21.8938 3.25776 21.8319 3.34975 21.754 3.42707L20.6727 4.5L21.754 5.57293C21.8319 5.65025 21.8938 5.74224 21.936 5.84359C21.9783 5.94494 22 6.05365 22 6.16345C22 6.27325 21.9783 6.38196 21.936 6.48331C21.8938 6.58467 21.8319 6.67666 21.754 6.75398C21.6767 6.83193 21.5847 6.89381 21.4833 6.93603C21.382 6.97826 21.2732 7 21.1635 7C21.0537 7 20.9449 6.97826 20.8436 6.93603C20.7422 6.89381 20.6502 6.83193 20.5729 6.75398L19.5 5.67273L18.4271 6.75398C18.3498 6.83193 18.2578 6.89381 18.1564 6.93603C18.0551 6.97826 17.9463 7 17.8365 7C17.7268 7 17.618 6.97826 17.5167 6.93603C17.4153 6.89381 17.3233 6.83193 17.246 6.75398C17.1681 6.67666 17.1062 6.58467 17.064 6.48331C17.0217 6.38196 17 6.27325 17 6.16345C17 6.05365 17.0217 5.94494 17.064 5.84359C17.1062 5.74224 17.1681 5.65025 17.246 5.57293L18.3273 4.5L17.246 3.42707C17.0894 3.27046 17.0014 3.05804 17.0014 2.83655C17.0014 2.61506 17.0894 2.40264 17.246 2.24602C17.4026 2.08941 17.6151 2.00142 17.8365 2.00142C18.058 2.00142 18.2705 2.08941 18.4271 2.24602L19.5 3.32727L20.5729 2.24602C20.6502 2.16807 20.7422 2.10619 20.8436 2.06397C20.9449 2.02174 21.0537 2 21.1635 2C21.2732 2 21.382 2.02174 21.4833 2.06397Z" fill="#97A3BA"/>
<path d="M3 7C3.55228 7 4 6.55228 4 6C4 5.44772 3.55228 5 3 5H1C0.447715 5 0 5.44772 0 6C0 6.55228 0.447715 7 1 7H3Z" fill="#97A3BA"/>
<path d="M5 11C5.55228 11 6 10.5523 6 10C6 9.44772 5.55228 9 5 9H1C0.447715 9 0 9.44772 0 10C0 10.5523 0.447715 11 1 11H5Z" fill="#97A3BA"/>
<path d="M7 15C7.55229 15 8 14.5523 8 14C8 13.4477 7.55229 13 7 13H1C0.447715 13 0 13.4477 0 14C0 14.5523 0.447715 15 1 15H7Z" fill="#97A3BA"/>
<path d="M19 19C19.5523 19 20 18.5523 20 18C20 17.4477 19.5523 17 19 17H1C0.447716 17 0 17.4477 0 18C0 18.5523 0.447715 19 1 19H19Z" fill="#97A3BA"/>
<path d="M12 14C12 14.5523 11.5523 15 11 15C10.4477 15 10 14.5523 10 14C10 13.4477 10.4477 13 11 13C11.5523 13 12 13.4477 12 14Z" fill="#97A3BA"/>
<path d="M15 15C15.5523 15 16 14.5523 16 14C16 13.4477 15.5523 13 15 13C14.4477 13 14 13.4477 14 14C14 14.5523 14.4477 15 15 15Z" fill="#97A3BA"/>
<path d="M20 14C20 14.5523 19.5523 15 19 15C18.4477 15 18 14.5523 18 14C18 13.4477 18.4477 13 19 13C19.5523 13 20 13.4477 20 14Z" fill="#97A3BA"/>
<path d="M10 10C10 10.5523 9.55228 11 9 11C8.44771 11 8 10.5523 8 10C8 9.44772 8.44771 9 9 9C9.55228 9 10 9.44772 10 10Z" fill="#97A3BA"/>
<path d="M8 6C8 6.55228 7.55228 7 7 7C6.44772 7 6 6.55228 6 6C6 5.44772 6.44772 5 7 5C7.55228 5 8 5.44772 8 6Z" fill="#97A3BA"/>
<path d="M11 7C11.5523 7 12 6.55228 12 6C12 5.44772 11.5523 5 11 5C10.4477 5 10 5.44772 10 6C10 6.55228 10.4477 7 11 7Z" fill="#97A3BA"/>
<path d="M16 6C16 6.55228 15.5523 7 15 7C14.4477 7 14 6.55228 14 6C14 5.44772 14.4477 5 15 5C15.5523 5 16 5.44772 16 6Z" fill="#97A3BA"/>
<path d="M13 11C13.5523 11 14 10.5523 14 10C14 9.44772 13.5523 9 13 9C12.4477 9 12 9.44772 12 10C12 10.5523 12.4477 11 13 11Z" fill="#97A3BA"/>
<path d="M20 10C20 10.5523 19.5523 11 19 11H17C16.4477 11 16 10.5523 16 10C16 9.44772 16.4477 9 17 9H19C19.5523 9 20 9.44772 20 10Z" fill="#97A3BA"/>
</svg>
