<svg width="22" height="22" viewBox="0 0 22 22" fill="none" xmlns="http://www.w3.org/2000/svg">
<path d="M19.0003 5.80842C19.0052 5.43642 18.9352 5.06725 18.7943 4.72303C18.6534 4.37881 18.4445 4.06661 18.1803 3.80515C17.6423 3.28847 16.9257 3 16.1803 3C15.4349 3 14.7184 3.28847 14.1803 3.80515L7.58032 10.4159H7.36032C6.22777 10.4464 5.15015 10.9113 4.34995 11.7147C3.54976 12.5181 3.08811 13.5985 3.06032 14.733L3.00032 17.9983C2.99689 18.1335 3.02081 18.268 3.07065 18.3937C3.12049 18.5193 3.19521 18.6336 3.29032 18.7295C3.485 18.9053 3.73826 19.0017 4.00032 19L7.26032 18.9399C8.39294 18.912 9.47165 18.4496 10.2737 17.6481C11.0758 16.8466 11.5399 15.7672 11.5703 14.6328V14.4025L18.1803 7.79166C18.443 7.53324 18.651 7.22442 18.7919 6.88367C18.9328 6.54292 19.0037 6.17722 19.0003 5.80842ZM7.25032 16.9366L5.00032 16.9967V14.7631C5.01082 14.1325 5.2683 13.5313 5.71726 13.0891C6.16621 12.6469 6.77067 12.3991 7.40032 12.3992C7.68606 12.3991 7.96895 12.4561 8.23244 12.5669C8.49593 12.6776 8.73474 12.8398 8.93492 13.044C9.1351 13.2483 9.29263 13.4904 9.39829 13.7563C9.50396 14.0223 9.55564 14.3066 9.55032 14.5928C9.53561 15.2029 9.28977 15.7846 8.86265 16.2199C8.43553 16.6551 7.85912 16.9114 7.25032 16.9366ZM16.7703 6.36934L10.9003 12.2489C10.7467 12.0199 10.5727 11.8054 10.3803 11.6079C10.1858 11.4123 9.97126 11.2378 9.74032 11.087L15.6103 5.21745C15.7666 5.06805 15.9743 4.98469 16.1903 4.98469C16.4063 4.98469 16.6141 5.06805 16.7703 5.21745C16.8463 5.29544 16.9059 5.38796 16.9454 5.48949C16.9849 5.59103 17.0036 5.69949 17.0003 5.80842C17.0007 5.91247 16.9806 6.01557 16.9411 6.11182C16.9016 6.20807 16.8436 6.29558 16.7703 6.36934Z" fill="#97A3BA"/>
</svg>
