<svg width="24" height="24" viewBox="0 0 24 24" fill="none" xmlns="http://www.w3.org/2000/svg">
<path fill-rule="evenodd" clip-rule="evenodd" d="M6.83216 1.44541C7.13851 1.90493 7.01434 2.5258 6.55481 2.83216L3.55481 4.83216C3.09528 5.13851 2.47441 5.01434 2.16806 4.55481C1.8617 4.09528 1.98588 3.47441 2.44541 3.16806L5.44541 1.16806C5.90493 0.861704 6.5258 0.985877 6.83216 1.44541ZM18.5548 1.16806C18.0953 0.861704 17.4744 0.985877 17.1681 1.44541C16.8617 1.90493 16.9859 2.5258 17.4454 2.83216L20.4454 4.83216C20.9049 5.13851 21.5258 5.01434 21.8322 4.55481C22.1385 4.09528 22.0143 3.47441 21.5548 3.16806L18.5548 1.16806ZM4.00011 13.0001C4.00011 8.58183 7.58183 5.00011 12.0001 5.00011C16.4184 5.00011 20.0001 8.58183 20.0001 13.0001C20.0001 17.4184 16.4184 21.0001 12.0001 21.0001C7.58183 21.0001 4.00011 17.4184 4.00011 13.0001ZM12.0001 3.00011C6.47726 3.00011 2.00011 7.47726 2.00011 13.0001C2.00011 18.523 6.47726 23.0001 12.0001 23.0001C17.523 23.0001 22.0001 18.523 22.0001 13.0001C22.0001 7.47726 17.523 3.00011 12.0001 3.00011ZM13.0001 9.00011C13.0001 8.44782 12.5524 8.00011 12.0001 8.00011C11.4478 8.00011 11.0001 8.44782 11.0001 9.00011V12.0001C11.0001 13.1047 11.8955 14.0001 13.0001 14.0001H16.0001C16.5524 14.0001 17.0001 13.5524 17.0001 13.0001C17.0001 12.4478 16.5524 12.0001 16.0001 12.0001H13.0001V9.00011Z" fill="#777B92"/>
</svg>
