<svg width="24" height="24" viewBox="0 0 24 24" fill="none" xmlns="http://www.w3.org/2000/svg">
<path fill-rule="evenodd" clip-rule="evenodd" d="M6.55481 2.83216C7.01434 2.5258 7.13851 1.90493 6.83216 1.44541C6.5258 0.985877 5.90493 0.861704 5.44541 1.16806L2.44541 3.16806C1.98588 3.47441 1.8617 4.09528 2.16806 4.55481C2.47441 5.01434 3.09528 5.13851 3.55481 4.83216L6.55481 2.83216ZM17.1681 1.44541C17.4744 0.985877 18.0953 0.861704 18.5548 1.16806L21.5548 3.16806C22.0143 3.47441 22.1385 4.09528 21.8322 4.55481C21.5258 5.01434 20.9049 5.13851 20.4454 4.83216L17.4454 2.83216C16.9859 2.5258 16.8617 1.90493 17.1681 1.44541ZM12.0001 5.00011C7.58183 5.00011 4.00011 8.58183 4.00011 13.0001C4.00011 17.4184 7.58183 21.0001 12.0001 21.0001C16.4184 21.0001 20.0001 17.4184 20.0001 13.0001C20.0001 8.58183 16.4184 5.00011 12.0001 5.00011ZM2.00011 13.0001C2.00011 7.47726 6.47726 3.00011 12.0001 3.00011C17.523 3.00011 22.0001 7.47726 22.0001 13.0001C22.0001 18.523 17.523 23.0001 12.0001 23.0001C6.47726 23.0001 2.00011 18.523 2.00011 13.0001ZM12.0001 10.0001C12.5524 10.0001 13.0001 10.4478 13.0001 11.0001V12.0001H14.0001C14.5524 12.0001 15.0001 12.4478 15.0001 13.0001C15.0001 13.5524 14.5524 14.0001 14.0001 14.0001H13.0001V15.0001C13.0001 15.5524 12.5524 16.0001 12.0001 16.0001C11.4478 16.0001 11.0001 15.5524 11.0001 15.0001V14.0001H10.0001C9.44782 14.0001 9.00011 13.5524 9.00011 13.0001C9.00011 12.4478 9.44782 12.0001 10.0001 12.0001H11.0001V11.0001C11.0001 10.4478 11.4478 10.0001 12.0001 10.0001Z" fill="#777B92"/>
</svg>
