<svg width="24" height="24" viewBox="0 0 24 24" fill="none" xmlns="http://www.w3.org/2000/svg">
<path fill-rule="evenodd" clip-rule="evenodd" d="M17 3C17 2.44772 16.5523 2 16 2C15.4477 2 15 2.44772 15 3V4H9V3C9 2.44772 8.55228 2 8 2C7.44772 2 7 2.44772 7 3V4H5C3.89543 4 3 4.89543 3 6V20C3 21.1046 3.89543 22 5 22H19C20.1046 22 21 21.1046 21 20V6C21 4.89543 20.1046 4 19 4H17V3ZM7 7V6H5V20H19V6H17V7C17 7.55228 16.5523 8 16 8C15.4477 8 15 7.55228 15 7V6H9V7C9 7.55228 8.55228 8 8 8C7.44772 8 7 7.55228 7 7ZM15.7071 12.7071C16.0976 12.3166 16.0976 11.6834 15.7071 11.2929C15.3166 10.9024 14.6834 10.9024 14.2929 11.2929L11.0672 14.5186L9.76822 12.9598C9.41466 12.5355 8.78409 12.4782 8.35982 12.8318C7.93554 13.1853 7.87821 13.8159 8.23178 14.2402L9.53076 15.799C10.2837 16.7024 11.6498 16.7644 12.4814 15.9328L15.7071 12.7071Z" fill="#777B92"/>
</svg>
