<svg width="24" height="24" viewBox="0 0 24 24" fill="none" xmlns="http://www.w3.org/2000/svg">
<path fill-rule="evenodd" clip-rule="evenodd" d="M12 2C6.47715 2 2 6.47715 2 12C2 17.5228 6.47715 22 12 22C17.5228 22 22 17.5228 22 12C22 11.4477 21.5523 11 21 11C20.4477 11 20 11.4477 20 12C20 16.4183 16.4183 20 12 20C7.58172 20 4 16.4183 4 12C4 7.58172 7.58172 4 12 4C14.0285 4 15.8809 4.75451 17.2918 6H17C16.4477 6 16 6.44772 16 7C16 7.55228 16.4477 8 17 8H19.4845C19.9714 8 20.3875 7.64927 20.47 7.16937L20.9856 4.16937C21.0791 3.62506 20.7137 3.10799 20.1694 3.01445C19.6251 2.92091 19.108 3.28633 19.0144 3.83063L18.8608 4.72483C17.0708 3.03639 14.6566 2 12 2ZM13 8C13 7.44772 12.5523 7 12 7C11.4477 7 11 7.44772 11 8V12C11 12.5523 11.4477 13 12 13H16C16.5523 13 17 12.5523 17 12C17 11.4477 16.5523 11 16 11H13V8Z" fill="#777B92"/>
</svg>
