<svg width="24" height="24" viewBox="0 0 24 24" fill="none" xmlns="http://www.w3.org/2000/svg">
<path d="M16.6577 8.8054L14.733 9.14631C14.6098 8.78172 14.3802 8.44792 14.044 8.14489C13.7126 7.83712 13.2154 7.68324 12.5526 7.68324C11.9512 7.68324 11.447 7.81818 11.0398 8.08807C10.6373 8.35322 10.4384 8.6965 10.4432 9.1179C10.4384 9.48721 10.571 9.78314 10.8409 10.0057C11.1155 10.2235 11.5535 10.4034 12.1548 10.5455L13.8878 10.9432C15.8764 11.4025 16.8707 12.3873 16.8707 13.8977C16.8707 14.5559 16.6813 15.1383 16.3026 15.6449C15.9285 16.1515 15.4053 16.5492 14.733 16.8381C14.0653 17.1269 13.2912 17.2713 12.4105 17.2713C11.1842 17.2713 10.1875 17.0109 9.42045 16.4901C8.65341 15.9645 8.17992 15.2187 8 14.2528L10.0526 13.9403C10.3082 15.0199 11.0895 15.5597 12.3963 15.5597C13.0923 15.5597 13.6487 15.4152 14.0653 15.1264C14.482 14.8329 14.6903 14.4754 14.6903 14.054C14.6903 13.358 14.1766 12.8963 13.1491 12.669L11.3026 12.2642C10.2798 12.0369 9.52699 11.6676 9.04403 11.1562C8.56108 10.6449 8.3196 10.0033 8.3196 9.23153C8.3196 8.58759 8.49953 8.02415 8.85938 7.54119C9.21922 7.0535 9.71638 6.67472 10.3509 6.40483C10.9853 6.13494 11.7121 6 12.5312 6C13.7102 6 14.6383 6.25568 15.3153 6.76705C15.9924 7.27841 16.4399 7.95786 16.6577 8.8054Z" fill="#777B92"/>
</svg>
