<svg width="24" height="24" viewBox="0 0 24 24" fill="none" xmlns="http://www.w3.org/2000/svg">
<path d="M9.12358 13.0682V19.5455H7V5H9.09517V10.4119H9.23011C9.4858 9.82008 9.87642 9.35369 10.402 9.01278C10.9276 8.66714 11.6141 8.49432 12.4616 8.49432C13.5838 8.49432 14.4858 8.83996 15.1676 9.53125C15.8542 10.2225 16.1974 11.2476 16.1974 12.6065V19.5455H14.0739V12.8622C14.0739 12.062 13.8679 11.4418 13.456 11.0014C13.044 10.5563 12.4711 10.3338 11.7372 10.3338C10.9796 10.3338 10.3546 10.5729 9.86222 11.0511C9.36979 11.5246 9.12358 12.197 9.12358 13.0682Z" fill="#777B92"/>
</svg>
