<svg width="24" height="24" viewBox="0 0 24 24" fill="none" xmlns="http://www.w3.org/2000/svg">
<path d="M11.5597 19.7585C10.679 19.7585 9.89536 19.5336 9.20881 19.0838C8.52225 18.634 7.98248 17.9877 7.58949 17.1449C7.1965 16.2973 7 15.2865 7 14.1122C7 12.9332 7.1965 11.9247 7.58949 11.0866C7.98722 10.2486 8.53172 9.60701 9.22301 9.16193C9.9143 8.71686 10.6979 8.49432 11.5739 8.49432C12.2509 8.49432 12.7955 8.60795 13.2074 8.83523C13.6241 9.05776 13.946 9.31818 14.1733 9.61648C14.4053 9.91477 14.5852 10.1776 14.7131 10.4048H14.8409V5H16.9645V19.5455H14.8906V17.848H14.7131C14.5852 18.08 14.4006 18.3452 14.1591 18.6435C13.9223 18.9418 13.5956 19.2022 13.179 19.4247C12.7623 19.6473 12.2225 19.7585 11.5597 19.7585ZM12.0284 17.9474C12.947 17.9474 13.6501 17.5923 14.1378 16.8821C14.6302 16.1671 14.8764 15.2367 14.8764 14.0909C14.8764 12.9498 14.6326 12.0336 14.1449 11.3423C13.6619 10.6463 12.9564 10.2983 12.0284 10.2983C11.3892 10.2983 10.8565 10.464 10.4304 10.7955C10.0043 11.1269 9.68229 11.5791 9.46449 12.152C9.25142 12.7202 9.14489 13.3665 9.14489 14.0909C9.14489 14.8201 9.25379 15.4759 9.47159 16.0582C9.68939 16.6406 10.0114 17.1023 10.4375 17.4432C10.8684 17.7794 11.3987 17.9474 12.0284 17.9474Z" fill="#777B92"/>
</svg>
