<svg width="24" height="24" viewBox="0 0 24 24" fill="none" xmlns="http://www.w3.org/2000/svg">
<path fill-rule="evenodd" clip-rule="evenodd" d="M7.8 3.4L10.8 7.4C11.1314 7.84183 11.0418 8.46863 10.6 8.8C10.1582 9.13137 9.53137 9.04183 9.2 8.6L8 7L8 20C8 20.5523 7.55228 21 7 21C6.44771 21 6 20.5523 6 20L6 7L4.8 8.6C4.46863 9.04183 3.84183 9.13137 3.4 8.8C2.95817 8.46863 2.86863 7.84183 3.2 7.4L6.2 3.4C6.38885 3.14819 6.68524 3 7 3C7.31475 3 7.61114 3.14819 7.8 3.4Z" fill="#777B92"/>
<path fill-rule="evenodd" clip-rule="evenodd" d="M18 4L18 17L19.2 15.4C19.5314 14.9582 20.1582 14.8686 20.6 15.2C21.0418 15.5314 21.1314 16.1582 20.8 16.6L17.8 20.6C17.6111 20.8518 17.3148 21 17 21C16.6852 21 16.3889 20.8518 16.2 20.6L13.2 16.6C12.8686 16.1582 12.9582 15.5314 13.4 15.2C13.8418 14.8686 14.4686 14.9582 14.8 15.4L16 17L16 4C16 3.44772 16.4477 3 17 3C17.5523 3 18 3.44772 18 4Z" fill="#777B92"/>
</svg>
