<svg width="24" height="24" viewBox="0 0 24 24" fill="none" xmlns="http://www.w3.org/2000/svg">
<path fill-rule="evenodd" clip-rule="evenodd" d="M10.7071 6.29289C11.0976 6.68342 11.0976 7.31658 10.7071 7.70711L8.41421 10H18C19.1046 10 20 10.8954 20 12V17C20 17.5523 19.5523 18 19 18C18.4477 18 18 17.5523 18 17V12H8.41421L10.7071 14.2929C11.0976 14.6834 11.0976 15.3166 10.7071 15.7071C10.3166 16.0976 9.68342 16.0976 9.29289 15.7071L5.29289 11.7071C4.90237 11.3166 4.90237 10.6834 5.29289 10.2929L9.29289 6.29289C9.68342 5.90237 10.3166 5.90237 10.7071 6.29289Z" fill="#777B92"/>
</svg>
