<svg width="24" height="24" viewBox="0 0 24 24" fill="none" xmlns="http://www.w3.org/2000/svg">
<path fill-rule="evenodd" clip-rule="evenodd" d="M15.7071 5.70711L14.4142 7H20C20.5523 7 21 7.44772 21 8C21 8.55228 20.5523 9 20 9H14.4142L15.7071 10.2929C16.0976 10.6834 16.0976 11.3166 15.7071 11.7071C15.3166 12.0976 14.6834 12.0976 14.2929 11.7071L11.2929 8.70711C10.9024 8.31658 10.9024 7.68342 11.2929 7.29289L14.2929 4.29289C14.6834 3.90237 15.3166 3.90237 15.7071 4.29289C16.0976 4.68342 16.0976 5.31658 15.7071 5.70711Z" fill="#777B92"/>
<path fill-rule="evenodd" clip-rule="evenodd" d="M9.70711 12.2929L12.7071 15.2929C13.0976 15.6834 13.0976 16.3166 12.7071 16.7071L9.70711 19.7071C9.31658 20.0976 8.68342 20.0976 8.29289 19.7071C7.90237 19.3166 7.90237 18.6834 8.29289 18.2929L9.58579 17H4C3.44772 17 3 16.5523 3 16C3 15.4477 3.44772 15 4 15H9.58579L8.29289 13.7071C7.90237 13.3166 7.90237 12.6834 8.29289 12.2929C8.68342 11.9024 9.31658 11.9024 9.70711 12.2929Z" fill="#777B92"/>
</svg>
