<svg width="24" height="24" viewBox="0 0 24 24" fill="none" xmlns="http://www.w3.org/2000/svg">
<path fill-rule="evenodd" clip-rule="evenodd" d="M7 4H17C17.5523 4 18 4.44772 18 5C18 5.55228 17.5523 6 17 6H12.0007C12.2564 6.00018 12.512 6.09781 12.7071 6.29289L16.7071 10.2929C17.0976 10.6834 17.0976 11.3166 16.7071 11.7071C16.3166 12.0976 15.6834 12.0976 15.2929 11.7071L13 9.41421V19C13 19.5523 12.5523 20 12 20C11.4477 20 11 19.5523 11 19V9.41421L8.70711 11.7071C8.31658 12.0976 7.68342 12.0976 7.29289 11.7071C6.90237 11.3166 6.90237 10.6834 7.29289 10.2929L11.2929 6.29289C11.488 6.09781 11.7436 6.00018 11.9993 6H7C6.44772 6 6 5.55228 6 5C6 4.44772 6.44772 4 7 4Z" fill="#777B92"/>
</svg>
