<svg width="24" height="24" viewBox="0 0 24 24" fill="none" xmlns="http://www.w3.org/2000/svg">
<path fill-rule="evenodd" clip-rule="evenodd" d="M11.4472 5.10558C11.786 5.27497 12 5.62123 12 6.00001V8.00001L20 8.00001C21.1046 8.00001 22 8.89544 22 10V14C22 15.1046 21.1046 16 20 16H12L12 18C12 18.3788 11.786 18.725 11.4472 18.8944C11.1084 19.0638 10.703 19.0273 10.4 18.8L2.4 12.8C2.14819 12.6112 2 12.3148 2 12C2 11.6852 2.14819 11.3889 2.4 11.2L10.4 5.20001C10.703 4.97274 11.1084 4.93619 11.4472 5.10558ZM4.66667 12L10 16V15C10 14.4477 10.4477 14 11 14H20V10L11 10C10.4477 10 10 9.55229 10 9.00001V8.00001L4.66667 12Z" fill="#777B92"/>
</svg>
