<svg width="24" height="24" viewBox="0 0 24 24" fill="none" xmlns="http://www.w3.org/2000/svg">
<path fill-rule="evenodd" clip-rule="evenodd" d="M12 5C9.06386 5 6.54762 6.80802 5.50845 9.37522C5.30122 9.88715 4.71823 10.1342 4.20629 9.92694C3.69436 9.71971 3.44735 9.13672 3.65457 8.62478C4.98895 5.32832 8.22137 3 12 3C15.1898 3 17.9906 4.65886 19.589 7.16028L20.0457 5.70128C20.2106 5.17421 20.7716 4.88068 21.2987 5.04566C21.8258 5.21064 22.1193 5.77165 21.9543 6.29872L20.7023 10.2987C20.5423 10.81 20.0078 11.1043 19.4902 10.9662L15.7422 9.9662C15.2086 9.82382 14.8914 9.27582 15.0338 8.74221C15.1762 8.20859 15.7242 7.89142 16.2578 8.0338L18.0745 8.51853C16.8666 6.41574 14.5978 5 12 5ZM3.29769 13.7013C3.45771 13.19 3.99221 12.8957 4.50982 13.0338L8.25779 14.0338C8.7914 14.1762 9.10857 14.7242 8.96619 15.2578C8.82382 15.7914 8.27582 16.1086 7.7422 15.9662L5.92547 15.4815C7.13337 17.5843 9.40215 19 12 19C14.9361 19 17.4524 17.192 18.4915 14.6248C18.6988 14.1129 19.2818 13.8658 19.7937 14.0731C20.3056 14.2803 20.5526 14.8633 20.3454 15.3752C19.011 18.6717 15.7786 21 12 21C8.81023 21 6.00938 19.3411 4.41101 16.8397L3.95433 18.2987C3.78936 18.8258 3.22834 19.1193 2.70128 18.9543C2.17421 18.7894 1.88067 18.2284 2.04565 17.7013L3.29769 13.7013Z" fill="#777B92"/>
</svg>
