<svg width="24" height="24" viewBox="0 0 24 24" fill="none" xmlns="http://www.w3.org/2000/svg">
<path fill-rule="evenodd" clip-rule="evenodd" d="M13 15H17C17.5523 15 18 15.4477 18 16C18 16.5523 17.5523 17 17 17H7C6.44772 17 6 16.5523 6 16C6 15.4477 6.44772 15 7 15H11V7.41421L8.70711 9.70711C8.31658 10.0976 7.68342 10.0976 7.29289 9.70711C6.90237 9.31658 6.90237 8.68342 7.29289 8.29289L11.2929 4.29289C11.6834 3.90237 12.3166 3.90237 12.7071 4.29289L16.7071 8.29289C17.0976 8.68342 17.0976 9.31658 16.7071 9.70711C16.3166 10.0976 15.6834 10.0976 15.2929 9.70711L13 7.41421V15Z" fill="#777B92"/>
<path fill-rule="evenodd" clip-rule="evenodd" d="M6 19C6 18.4477 6.44772 18 7 18H17C17.5523 18 18 18.4477 18 19C18 19.5523 17.5523 20 17 20H7C6.44772 20 6 19.5523 6 19Z" fill="#777B92"/>
</svg>
