<svg width="22" height="22" viewBox="0 0 22 22" fill="none" xmlns="http://www.w3.org/2000/svg">
<path fill-rule="evenodd" clip-rule="evenodd" d="M0 4C0 2.89543 0.895431 2 2 2H4C5.10457 2 6 2.89543 6 4L16 4C16 2.89543 16.8954 2 18 2H20C21.1046 2 22 2.89543 22 4V6C22 7.10457 21.1046 8 20 8V14C21.1046 14 22 14.8954 22 16V18C22 19.1046 21.1046 20 20 20H18C16.8954 20 16 19.1046 16 18H6C6 19.1046 5.10457 20 4 20H2C0.89543 20 0 19.1046 0 18V16C0 14.8954 0.895431 14 2 14L2 8C0.895431 8 0 7.10457 0 6V4ZM4 14C5.10457 14 6 14.8954 6 16H16C16 14.8954 16.8954 14 18 14V8C16.8954 8 16 7.10457 16 6L6 6C6 7.10457 5.10457 8 4 8V14ZM4 4H2V6H4V4ZM18 16H20V18H18V16ZM20 6V4H18V6L20 6ZM4 16L4 18H2L2 16H4Z" fill="#97A3BA"/>
</svg>
