<svg width="24" height="24" viewBox="0 0 24 24" fill="none" xmlns="http://www.w3.org/2000/svg">
<path fill-rule="evenodd" clip-rule="evenodd" d="M3 1H5C6.10457 1 7 1.89543 7 3V5C7 5.17916 6.97644 5.35282 6.93226 5.51804L10.482 9.06774C10.6472 9.02356 10.8208 9 11 9H13C13.1946 9 13.3827 9.02779 13.5606 9.07963L17 6.50006V5C17 3.89543 17.8954 3 19 3H21C22.1046 3 23 3.89543 23 5V7C23 8.10457 22.1046 9 21 9V17C22.1046 17 23 17.8954 23 19V21C23 22.1046 22.1046 23 21 23H19C17.8954 23 17 22.1046 17 21H9C9 22.1046 8.10457 23 7 23H5C3.89543 23 3 22.1046 3 21V19C3 17.9558 3.80021 17.0985 4.82084 17.0079L3.15285 7H3C1.89543 7 1 6.10457 1 5V3C1 1.89543 1.89543 1 3 1ZM14.9468 10.5399C14.9816 10.6876 15 10.8417 15 11V13C15 14.1046 14.1046 15 13 15H11C9.89543 15 9 14.1046 9 13V11C9 10.8208 9.02356 10.6472 9.06774 10.482L5.51804 6.93226C5.40849 6.96155 5.29523 6.98178 5.17912 6.99209L6.8471 17H7C8.10457 17 9 17.8954 9 19H17C17 17.8954 17.8954 17 19 17V9C18.4905 9 18.0255 8.80948 17.6723 8.4958L14.9468 10.5399ZM19.0001 7H21V5H19V6.98867C19 6.99244 19.0001 6.99622 19.0001 7ZM7 19H6.02375C6.00705 19.0004 5.99042 19.0004 5.97386 19H5V21H7V19ZM19 21H21V19H19V21ZM3 5H5V3H3V5ZM13 11H11V13H13V11Z" fill="#777B92"/>
</svg>
