<svg width="24" height="24" viewBox="0 0 24 24" fill="none" xmlns="http://www.w3.org/2000/svg">
<path fill-rule="evenodd" clip-rule="evenodd" d="M13.5 16C12.9477 16 12.5 15.5523 12.5 15C12.5 14.4477 12.9477 14 13.5 14H14V13.5C14 12.9477 14.4477 12.5 15 12.5C15.5523 12.5 16 12.9477 16 13.5V14C16 15.1046 15.1046 16 14 16H13.5Z" fill="#777B92"/>
<path fill-rule="evenodd" clip-rule="evenodd" d="M11.5 9C11.5 9.55229 11.0523 10 10.5 10H10V10.5C10 11.0523 9.55229 11.5 9 11.5C8.44772 11.5 8 11.0523 8 10.5V10C8 8.89543 8.89543 8 10 8H10.5C11.0523 8 11.5 8.44771 11.5 9Z" fill="#777B92"/>
<path fill-rule="evenodd" clip-rule="evenodd" d="M16 8L21 8C22.1046 8 23 8.89543 23 10L23 21C23 22.1046 22.1046 23 21 23H10C8.89543 23 8 22.1046 8 21L8 16L3 16C1.89543 16 1 15.1046 1 14L1 3C1 1.89543 1.89543 1 3 1L14 1C15.1046 1 16 1.89543 16 3L16 8ZM10 16L10 21H21V10L16 10L16 10.5C16 11.0523 15.5523 11.5 15 11.5C14.4477 11.5 14 11.0523 14 10.5V10H13.5C12.9477 10 12.5 9.55229 12.5 9C12.5 8.44771 12.9477 8 13.5 8H14L14 3L3 3L3 14L8 14V13.5C8 12.9477 8.44772 12.5 9 12.5C9.55229 12.5 10 12.9477 10 13.5V14H10.5C11.0523 14 11.5 14.4477 11.5 15C11.5 15.5523 11.0523 16 10.5 16H10Z" fill="#777B92"/>
</svg>
