<svg width="22" height="22" viewBox="0 0 22 22" fill="none" xmlns="http://www.w3.org/2000/svg">
<path d="M19 22H18V20H19C19.5523 20 20 19.5523 20 19V18H22V19C22 20.6569 20.6569 22 19 22Z" fill="#97A3BA"/>
<path d="M16 22V20L13 20V22L16 22Z" fill="#97A3BA"/>
<path d="M10 20H11V22H10C8.34315 22 7 20.6569 7 19V18H9V19C9 19.5523 9.44772 20 10 20Z" fill="#97A3BA"/>
<path fill-rule="evenodd" clip-rule="evenodd" d="M7 16H9L9 10C9 9.44772 9.44772 9 10 9L16 9V7H15L15 3C15 1.34315 13.6569 2.839e-06 12 2.69415e-06L3 0C1.34315 -1.44847e-07 2.839e-06 1.34315 2.69415e-06 3L0 12C-1.44847e-07 13.6569 1.34315 15 3 15L7 15V16ZM2 3C2 2.44772 2.44772 2 3 2L12 2C12.5523 2 13 2.44772 13 3L13 7L10 7C8.34315 7 7 8.34315 7 10L7 13L3 13C2.44772 13 2 12.5523 2 12L2 3Z" fill="#97A3BA"/>
<path d="M20 16H22V13H20V16Z" fill="#97A3BA"/>
<path d="M20 11H22V10C22 8.34315 20.6569 7 19 7H18V9H19C19.5523 9 20 9.44772 20 10V11Z" fill="#97A3BA"/>
</svg>
