<svg width="22" height="22" viewBox="0 0 22 22" fill="none" xmlns="http://www.w3.org/2000/svg">
<path d="M3 0H4V2H3C2.44772 2 2 2.44772 2 3V4H0V3C0 1.34315 1.34315 0 3 0Z" fill="#97A3BA"/>
<path d="M6 0V2H9V0H6Z" fill="#97A3BA"/>
<path d="M12 2H11V0H12C13.6569 0 15 1.34315 15 3V4H13V3C13 2.44772 12.5523 2 12 2Z" fill="#97A3BA"/>
<path fill-rule="evenodd" clip-rule="evenodd" d="M15 6H13L13 12C13 12.5523 12.5523 13 12 13L6 13V15H7L7 19C7 20.6569 8.34315 22 10 22L19 22C20.6569 22 22 20.6569 22 19L22 10C22 8.34315 20.6569 7 19 7L15 7V6ZM20 19C20 19.5523 19.5523 20 19 20L10 20C9.44772 20 9 19.5523 9 19L9 15L12 15C13.6569 15 15 13.6569 15 12L15 9L19 9C19.5523 9 20 9.44771 20 10L20 19Z" fill="#97A3BA"/>
<path d="M2 6H0V9H2V6Z" fill="#97A3BA"/>
<path d="M2 11H0V12C0 13.6569 1.34315 15 3 15H4V13H3C2.44772 13 2 12.5523 2 12V11Z" fill="#97A3BA"/>
</svg>
