<svg width="24" height="24" viewBox="0 0 24 24" fill="none" xmlns="http://www.w3.org/2000/svg">
<path fill-rule="evenodd" clip-rule="evenodd" d="M9 3C9 1.89543 9.89543 1 11 1H13C14.1046 1 15 1.89543 15 3V3.51255C17.5577 4.41654 19.5835 6.44231 20.4876 9H21C22.1046 9 23 9.89543 23 11V13C23 14.1046 22.1046 15 21 15H20.4877C19.5837 17.5578 17.5578 19.5837 15 20.4878V21C15 22.1046 14.1046 23 13 23H11C9.89543 23 9 22.1046 9 21V20.4878C6.44218 19.5837 4.41633 17.5578 3.51234 15H3C1.89543 15 1 14.1046 1 13V11C1 9.89543 1.89543 9 3 9H3.51246C4.4165 6.44231 6.44229 4.41655 9 3.51256V3ZM4.22443 11H3V13H4.24011C4.24855 12.9999 4.25697 12.9999 4.26538 13H5V11H4.28105C4.26225 11.0005 4.24337 11.0005 4.22443 11ZM5.62671 14.8998C6.32642 16.4349 7.56513 17.6736 9.10013 18.3734C9.36307 17.5757 10.1143 17 11 17H13C13.8857 17 14.6369 17.5757 14.8999 18.3734C16.4349 17.6736 17.6736 16.4349 18.3733 14.8998C17.5757 14.6369 17 13.8857 17 13V11C17 10.1144 17.5756 9.36319 18.3732 9.1002C17.6734 7.56526 16.4347 6.32661 14.8998 5.62691C14.6368 6.4244 13.8856 7 13 7H11C10.1144 7 9.36324 6.4244 9.10022 5.62691C7.56527 6.32662 6.32658 7.56527 5.62684 9.1002C6.42437 9.3632 7 10.1144 7 11V13C7 13.8857 6.42431 14.6369 5.62671 14.8998ZM13 3H11V4.2304C11.0003 4.24544 11.0003 4.26044 11 4.27539V5H13V4.27475C12.9997 4.26022 12.9997 4.24565 13 4.23104V3ZM13 19.7258V19H11V19.7253C11.0003 19.74 11.0003 19.7548 11 19.7696V21H13V19.769C12.9997 19.7546 12.9997 19.7402 13 19.7258ZM19.7755 11C19.7566 11.0005 19.7378 11.0005 19.719 11H19V13H19.7346C19.743 12.9999 19.7515 12.9999 19.7599 13H21V11H19.7755Z" fill="#777B92"/>
</svg>
