<svg width="24" height="24" viewBox="0 0 24 24" fill="none" xmlns="http://www.w3.org/2000/svg">
<path fill-rule="evenodd" clip-rule="evenodd" d="M3 1H4C4.55228 1 5 1.44772 5 2C5 2.55228 4.55228 3 4 3H3V4C3 4.55228 2.55228 5 2 5C1.44772 5 1 4.55228 1 4V3C1 1.89543 1.89543 1 3 1Z" fill="#777B92"/>
<path fill-rule="evenodd" clip-rule="evenodd" d="M8 1H9C9.55228 1 10 1.44772 10 2C10 2.55228 9.55228 3 9 3H8C7.44772 3 7 2.55228 7 2C7 1.44772 7.44772 1 8 1Z" fill="#777B92"/>
<path fill-rule="evenodd" clip-rule="evenodd" d="M13 1H14C15.1046 1 16 1.89543 16 3V8H21C22.1046 8 23 8.89543 23 10V21C23 22.1046 22.1046 23 21 23H10C8.89543 23 8 22.1046 8 21V16C7.44772 16 7 15.5523 7 15C7 14.4477 7.44772 14 8 14H14V3H13C12.4477 3 12 2.55228 12 2C12 1.44772 12.4477 1 13 1ZM16 10V14C16 15.1046 15.1046 16 14 16H10V21H21V10H16Z" fill="#777B92"/>
<path fill-rule="evenodd" clip-rule="evenodd" d="M3 8V9C3 9.55228 2.55228 10 2 10C1.44772 10 1 9.55228 1 9V8C1 7.44772 1.44772 7 2 7C2.55228 7 3 7.44772 3 8Z" fill="#777B92"/>
<path fill-rule="evenodd" clip-rule="evenodd" d="M3 13V14H4C4.55228 14 5 14.4477 5 15C5 15.5523 4.55228 16 4 16H3C1.89543 16 1 15.1046 1 14V13C1 12.4477 1.44772 12 2 12C2.55228 12 3 12.4477 3 13Z" fill="#777B92"/>
</svg>
