<svg width="22" height="22" viewBox="0 0 22 22" fill="none" xmlns="http://www.w3.org/2000/svg">
<path fill-rule="evenodd" clip-rule="evenodd" d="M19.4879 14C18.584 16.5572 16.5572 18.584 14 19.4879V20C14 21.1046 13.1046 22 12 22H10C8.89543 22 8 21.1046 8 20V19.4879C4.50442 18.2524 2 14.9187 2 11C2 6.02944 6.02944 2 11 2C14.9187 2 18.2524 4.50442 19.4879 8H20C21.1046 8 22 8.89543 22 10V12C22 13.1046 21.1046 14 20 14H19.4879ZM4 11C4 7.13401 7.13401 4 11 4C13.8317 4 16.2707 5.68138 17.373 8.10025C16.5756 8.36329 16 9.11443 16 10V12C16 12.8856 16.5756 13.6367 17.373 13.8998C16.6733 15.4351 15.4351 16.6733 13.8998 17.373C13.6367 16.5756 12.8856 16 12 16H10C9.11443 16 8.36329 16.5756 8.10025 17.373C5.68138 16.2707 4 13.8317 4 11ZM10 18V20H12V18H10ZM18 10H20V12H18V10Z" fill="#97A3BA"/>
</svg>
