<svg width="22" height="22" viewBox="0 0 22 22" fill="none" xmlns="http://www.w3.org/2000/svg">
<path fill-rule="evenodd" clip-rule="evenodd" d="M19.4879 8C18.2524 4.50442 14.9187 2 11 2C6.02944 2 2 6.02944 2 11C2 15.9706 6.02944 20 11 20C14.9187 20 18.2524 17.4956 19.4879 14H20C21.1046 14 22 13.1046 22 12V10C22 8.89543 21.1046 8 20 8H19.4879ZM11 4C7.13401 4 4 7.13401 4 11C4 14.866 7.13401 18 11 18C13.8317 18 16.2707 16.3186 17.373 13.8998C16.5756 13.6367 16 12.8856 16 12V10C16 9.11443 16.5756 8.36329 17.373 8.10025C16.2707 5.68138 13.8317 4 11 4ZM18 10H20V12H18V10Z" fill="#97A3BA"/>
</svg>
