<svg width="22" height="22" viewBox="0 0 22 22" fill="none" xmlns="http://www.w3.org/2000/svg">
<path fill-rule="evenodd" clip-rule="evenodd" d="M2 0C0.895431 0 0 0.895431 0 2V4C0 5.10457 0.895431 6 2 6H2.36719L3.62166 16.0357C2.69799 16.2126 2 17.0248 2 18V20C2 21.1046 2.89543 22 4 22H6C7.10451 22 7.99991 21.1047 8 20.0002H16C16.0001 21.1047 16.8955 22 18 22H20C21.1046 22 22 21.1046 22 20V18C22 16.8954 21.1046 16 20 16V8C21.1046 8 22 7.10457 22 6V4C22 2.89543 21.1046 2 20 2H18C16.8954 2 16 2.89543 16 4V6L12.9869 8.26003C12.6957 8.09452 12.3589 8 12 8H10C9.82079 8 9.64709 8.02357 9.48182 8.06778L5.93222 4.51818C5.97643 4.35291 6 4.17921 6 4V2C6 0.895431 5.10457 0 4 0H2ZM8 18.0002H16C16 16.8956 16.8954 16 18 16V8C17.6412 8 17.3044 7.9055 17.0133 7.74004L14 10.0001V12C14 13.1046 13.1046 14 12 14H10C8.89543 14 8 13.1046 8 12V10C8 9.82089 8.02354 9.64728 8.06771 9.48209L4.51791 5.93229C4.472 5.94457 4.42544 5.95525 4.37829 5.96427L5.63276 16H6C7.10457 16 8 16.8956 8 18.0002ZM2 2H4V4H2V2ZM20 18H18V20H20V18ZM20 4V6H18V4L20 4ZM12 12V10H10V12H12ZM6 18V20H4V18H6Z" fill="#97A3BA"/>
</svg>
