<svg width="22" height="22" viewBox="0 0 22 22" fill="none" xmlns="http://www.w3.org/2000/svg">
<path fill-rule="evenodd" clip-rule="evenodd" d="M3 0C1.34315 0 0 1.34315 0 3V12C0 13.6569 1.34315 15 3 15H7V19C7 20.6569 8.34315 22 10 22H19C20.6569 22 22 20.6569 22 19V10C22 8.34315 20.6569 7 19 7H15V3C15 1.34315 13.6569 0 12 0H3ZM13 7V3C13 2.44772 12.5523 2 12 2H3C2.44772 2 2 2.44772 2 3V12C2 12.5523 2.44772 13 3 13H7V10C7 8.34315 8.34315 7 10 7H13ZM9 13V10C9 9.44772 9.44772 9 10 9H13V12C13 12.5523 12.5523 13 12 13H9ZM9 15H12C13.6569 15 15 13.6569 15 12V9H19C19.5523 9 20 9.44772 20 10V19C20 19.5523 19.5523 20 19 20H10C9.44772 20 9 19.5523 9 19V15Z" fill="#97A3BA"/>
</svg>
