<svg width="22" height="22" viewBox="0 0 22 22" fill="none" xmlns="http://www.w3.org/2000/svg">
<path d="M10 9C9.44772 9 9 9.44772 9 10L7 10C7 8.34315 8.34315 7 10 7V9Z" fill="#97A3BA"/>
<path d="M12 13V15C13.6569 15 15 13.6569 15 12L13 12C13 12.5523 12.5523 13 12 13Z" fill="#97A3BA"/>
<path fill-rule="evenodd" clip-rule="evenodd" d="M7 15V19C7 20.6569 8.34315 22 10 22L19 22C20.6569 22 22 20.6569 22 19V10C22 8.34315 20.6569 7 19 7L15 7V3C15 1.34315 13.6569 2.839e-06 12 2.69415e-06L3 0C1.34315 -1.44847e-07 2.839e-06 1.34315 2.69415e-06 3L0 12C-1.44847e-07 13.6569 1.34315 15 3 15H7ZM19 20C19.5523 20 20 19.5523 20 19V10C20 9.44772 19.5523 9 19 9H15V10H13V9H12V7H13L13 3C13 2.44772 12.5523 2 12 2L3 2C2.44772 2 2 2.44772 2 3L2 12C2 12.5523 2.44772 13 3 13L7 13V12L9 12V13H10V15H9L9 19C9 19.5523 9.44772 20 10 20L19 20Z" fill="#97A3BA"/>
</svg>
