<svg width="22" height="22" viewBox="0 0 22 22" fill="none" xmlns="http://www.w3.org/2000/svg">
<path fill-rule="evenodd" clip-rule="evenodd" d="M14 4C14.5523 4 15 3.55228 15 3C15 2.44772 14.5523 2 14 2C13.4477 2 13 2.44772 13 3C13 3.08958 13.0118 3.17642 13.0339 3.25903L10.283 6.00986C10.1895 6.00332 10.0952 6 10 6C7.79086 6 6 7.79086 6 10C6 10.0952 6.00332 10.1895 6.00986 10.283L3.25903 13.0339C3.17642 13.0118 3.08958 13 3 13C2.44772 13 2 13.4477 2 14C2 14.5523 2.44772 15 3 15C3.55228 15 4 14.5523 4 14C4 13.9104 3.98822 13.8236 3.96613 13.741L6.26706 11.4401C6.39736 11.7776 6.57212 12.093 6.78415 12.3791C5.1881 14.8981 4.20031 17.8406 4.02731 21C3.99712 21.5515 4.44772 22 5.00001 22C5.55229 22 5.99676 21.5511 6.03076 20.9998C6.19632 18.3156 7.02367 15.8105 8.35165 13.6457C8.85428 13.8733 9.41234 14 10 14C12.2091 14 14 12.2091 14 10C14 9.41234 13.8733 8.85428 13.6457 8.35165C15.8105 7.02367 18.3156 6.19631 20.9998 6.03076C21.5511 5.99676 22 5.55229 22 5.00001C22 4.44772 21.5515 3.99712 21.0001 4.02731C17.8406 4.20031 14.8981 5.1881 12.3791 6.78415C12.093 6.57212 11.7776 6.39736 11.4401 6.26706L13.741 3.96613C13.8236 3.98822 13.9104 4 14 4ZM12 10C12 11.1046 11.1046 12 10 12C8.89543 12 8 11.1046 8 10C8 8.89543 8.89543 8 10 8C11.1046 8 12 8.89543 12 10Z" fill="#97A3BA"/>
</svg>
