<svg width="22" height="22" viewBox="0 0 22 22" fill="none" xmlns="http://www.w3.org/2000/svg">
<path fill-rule="evenodd" clip-rule="evenodd" d="M15 7L19 7C20.6569 7 22 8.34315 22 10V19C22 20.6569 20.6569 22 19 22L10 22C8.34315 22 7 20.6569 7 19V15L3 15C1.34315 15 -1.44847e-07 13.6569 0 12L2.69415e-06 3C2.839e-06 1.34315 1.34315 -1.44847e-07 3 0L12 2.69415e-06C13.6569 2.839e-06 15 1.34315 15 3V7ZM20 19C20 19.5523 19.5523 20 19 20L10 20C9.44772 20 9 19.5523 9 19L9 14C9 13.4477 8.55229 13 8 13L3 13C2.44772 13 2 12.5523 2 12L2 3C2 2.44772 2.44772 2 3 2L12 2C12.5523 2 13 2.44772 13 3L13 8C13 8.55229 13.4477 9 14 9L19 9C19.5523 9 20 9.44772 20 10V19Z" fill="#97A3BA"/>
</svg>
