<svg width="22" height="22" viewBox="0 0 22 22" fill="none" xmlns="http://www.w3.org/2000/svg">
<path fill-rule="evenodd" clip-rule="evenodd" d="M16 2C16 0.895431 16.8954 0 18 0H20C21.1046 0 22 0.895431 22 2V4C22 5.10457 21.1046 6 20 6H19.334L17.6903 13.1223C18.4547 13.4035 19 14.1381 19 15V17C19 18.1046 18.1046 19 17 19H15C13.8954 19 13 18.1046 13 17V15C13 14.8208 13.0236 14.647 13.0678 14.4817L7.51826 8.9322C7.35297 8.97642 7.17924 9 7 9H6.33396L4.69034 16.1223C5.45475 16.4035 6 17.1381 6 18V20C6 21.1046 5.10457 22 4 22H2C0.895431 22 0 21.1046 0 20V18C0 16.8954 0.895431 16 2 16H2.66601L4.30963 8.87765C3.54524 8.59651 3 7.86193 3 7L3 5C3 3.89543 3.89543 3 5 3L7 3C8.10457 3 9 3.89543 9 5V7C9 7.17908 8.97646 7.35266 8.93231 7.51783L14.4822 13.0677C14.6473 13.0235 14.8209 13 15 13H15.666L17.3096 5.87765C16.5452 5.59651 16 4.86193 16 4V2ZM20 2H18V4H20V2ZM2 20V18H4V20H2ZM7 5V7H5V5H7ZM17 17V15H15V17H17Z" fill="#97A3BA"/>
</svg>
