<svg width="24" height="24" viewBox="0 0 24 24" fill="none" xmlns="http://www.w3.org/2000/svg">
<path fill-rule="evenodd" clip-rule="evenodd" d="M15.0019 10L15 10L14.9981 10L10 10V21H11C11.5523 21 12 21.4477 12 22C12 22.5523 11.5523 23 11 23H10C8.89543 23 8 22.1046 8 21L8 16H3C1.89543 16 1 15.1046 1 14L1 3C1 1.89543 1.89543 1 3 1L14 1C15.1046 1 16 1.89543 16 3L16 8C16.5523 8 17 8.44772 17 9C17 9.55228 16.5523 10 16 10H15.0019ZM10 8L14 8L14 3L3 3L3 14L8 14L8 10C8 8.89543 8.89543 8 10 8Z" fill="#777B92"/>
<path fill-rule="evenodd" clip-rule="evenodd" d="M20 8H21C22.1046 8 23 8.89543 23 10V11C23 11.5523 22.5523 12 22 12C21.4477 12 21 11.5523 21 11V10H20C19.4477 10 19 9.55228 19 9C19 8.44771 19.4477 8 20 8Z" fill="#777B92"/>
<path fill-rule="evenodd" clip-rule="evenodd" d="M23 15V16C23 16.5523 22.5523 17 22 17C21.4477 17 21 16.5523 21 16V15C21 14.4477 21.4477 14 22 14C22.5523 14 23 14.4477 23 15Z" fill="#777B92"/>
<path fill-rule="evenodd" clip-rule="evenodd" d="M23 20V21C23 22.1046 22.1046 23 21 23H20C19.4477 23 19 22.5523 19 22C19 21.4477 19.4477 21 20 21H21V20C21 19.4477 21.4477 19 22 19C22.5523 19 23 19.4477 23 20Z" fill="#777B92"/>
<path fill-rule="evenodd" clip-rule="evenodd" d="M15 21H16C16.5523 21 17 21.4477 17 22C17 22.5523 16.5523 23 16 23H15C14.4477 23 14 22.5523 14 22C14 21.4477 14.4477 21 15 21Z" fill="#777B92"/>
</svg>
