<svg width="22" height="22" viewBox="0 0 22 22" fill="none" xmlns="http://www.w3.org/2000/svg">
<path fill-rule="evenodd" clip-rule="evenodd" d="M16 2C16 0.895431 16.8954 0 18 0H20C21.1046 0 22 0.895431 22 2V4C22 5.10457 21.1046 6 20 6H18C17.8209 6 17.6472 5.97645 17.482 5.93228L5.93228 17.482C5.97645 17.6472 6 17.8209 6 18V20C6 21.1046 5.10457 22 4 22H2C0.895431 22 0 21.1046 0 20V18C0 16.8954 0.895431 16 2 16H4C4.17918 16 4.35287 16.0236 4.51811 16.0678L16.0678 4.51811C16.0236 4.35287 16 4.17918 16 4V2ZM20 2H18V4H20V2ZM4 18H2V20H4V18Z" fill="#97A3BA"/>
</svg>
