<svg width="22" height="22" viewBox="0 0 22 22" fill="none" xmlns="http://www.w3.org/2000/svg">
<path fill-rule="evenodd" clip-rule="evenodd" d="M8.00001 21.0005C6.34315 21.0005 5.00001 19.6573 5.00001 18.0005V8.00049C5.00001 6.34363 6.34315 5.00049 8.00001 5.00049H18C19.6569 5.00049 21 6.34363 21 8.00049V18.0005C21 19.6573 19.6569 21.0005 18 21.0005H8.00001ZM7.00001 18.0005C7.00001 18.5528 7.44772 19.0005 8.00001 19.0005H18C18.5523 19.0005 19 18.5528 19 18.0005V8.00049C19 7.4482 18.5523 7.00049 18 7.00049H8.00001C7.44772 7.00049 7.00001 7.4482 7.00001 8.00049V18.0005Z" fill="#97A3BA"/>
<path d="M3 17.0005C1.83481 16.5886 1 15.4774 1 14.1712V4.00028C1 2.34343 2.34315 1.00028 4 1.00028H14.1707C15.4769 1.00028 16.5882 1.83509 17 3.00028H4C3.44772 3.00028 3 3.448 3 4.00028V17.0005Z" fill="#97A3BA"/>
</svg>
