<svg width="24" height="24" viewBox="0 0 24 24" fill="none" xmlns="http://www.w3.org/2000/svg">
<path fill-rule="evenodd" clip-rule="evenodd" d="M9 1H15C16.1046 1 17 1.89543 17 3V5H22C22.5523 5 23 5.44772 23 6C23 6.55228 22.5523 7 22 7H17V9C17 10.1046 16.1046 11 15 11H9C7.89543 11 7 10.1046 7 9V7H2C1.44772 7 1 6.55228 1 6C1 5.44772 1.44772 5 2 5H7V3C7 1.89543 7.89543 1 9 1ZM9 9H15V3H9V9Z" fill="#777B92"/>
<path fill-rule="evenodd" clip-rule="evenodd" d="M11.0769 14.215C11.4188 13.3945 12.5812 13.3945 12.9231 14.215L15.8307 21.1934C16.2019 22.0842 15.2207 22.932 14.3932 22.4355L12.5145 21.3083C12.1978 21.1183 11.8022 21.1183 11.4855 21.3083L9.60682 22.4355C8.77931 22.932 7.79808 22.0842 8.16925 21.1934L11.0769 14.215Z" fill="#777B92"/>
</svg>
