<svg width="22" height="22" viewBox="0 0 22 22" fill="none" xmlns="http://www.w3.org/2000/svg">
<path fill-rule="evenodd" clip-rule="evenodd" d="M0 2C0 0.895431 0.895431 0 2 0H4C5.10457 0 6 0.895431 6 2L16 2C16 0.89543 16.8954 0 18 0H20C21.1046 0 22 0.895431 22 2V4C22 5.10457 21.1046 6 20 6V16C21.1046 16 22 16.8954 22 18V20C22 21.1046 21.1046 22 20 22H18C16.8954 22 16 21.1046 16 20H6C6 21.1046 5.10457 22 4 22H2C0.89543 22 0 21.1046 0 20V18C0 16.8954 0.895431 16 2 16L2 6C0.895431 6 0 5.10457 0 4V2ZM4 16C5.10457 16 6 16.8954 6 18H16C16 16.8954 16.8954 16 18 16V6C16.8954 6 16 5.10457 16 4L6 4C6 5.10457 5.10457 6 4 6V16ZM4 2H2V4H4V2ZM18 18H20V20H18V18ZM20 4V2H18V4L20 4ZM4 18L4 20H2L2 18H4Z" fill="#97A3BA"/>
</svg>
