<svg width="24" height="24" viewBox="0 0 24 24" fill="none" xmlns="http://www.w3.org/2000/svg">
<path fill-rule="evenodd" clip-rule="evenodd" d="M9 3C9 1.89543 9.89543 1 11 1H13C14.1046 1 15 1.89543 15 3V5C15 5.58232 14.7511 6.10652 14.3539 6.47203L19.6179 17H21C22.1046 17 23 17.8954 23 19V21C23 22.1046 22.1046 23 21 23H19C17.8954 23 17 22.1046 17 21H7C7 22.1046 6.10457 23 5 23H3C1.89543 23 1 22.1046 1 21V19C1 17.8954 1.89543 17 3 17H4.38208L9.64606 6.47204C9.24887 6.10653 9 5.58233 9 5V3ZM7 19H17C17 18.4177 17.2488 17.8936 17.6459 17.5281L12.3819 7H11.6181L6.3541 17.5281C6.75119 17.8936 7 18.4177 7 19ZM5 21V19.0004C4.98991 19.0004 4.97981 19.0003 4.9697 19H3V21H5ZM19 21H21V19H19.0303C19.0202 19.0003 19.0101 19.0004 19 19.0004V21ZM12.9991 5L13 3H11L11.0009 5H12.9991Z" fill="#777B92"/>
</svg>
