<svg width="22" height="22" viewBox="0 0 22 22" fill="none" xmlns="http://www.w3.org/2000/svg">
<path d="M18 22H19C20.6569 22 22 20.6569 22 19V18L20 18V19C20 19.5523 19.5523 20 19 20H18V22Z" fill="#97A3BA"/>
<path d="M16 20V22H13V20H16Z" fill="#97A3BA"/>
<path d="M11 20H10C9.44771 20 9 19.5523 9 19V18H7V19C7 20.6569 8.34314 22 10 22H11V20Z" fill="#97A3BA"/>
<path d="M9 16H7V15H6V13H7V12H9V13H10L10 15H9V16Z" fill="#97A3BA"/>
<path d="M22 16L20 16V13H22V16Z" fill="#97A3BA"/>
<path d="M22 11H20V10C20 9.44772 19.5523 9 19 9H18V7H19C20.6569 7 22 8.34315 22 10V11Z" fill="#97A3BA"/>
<path d="M16 7V9H15L15 10H13V9H12V7H13V6L15 6V7H16Z" fill="#97A3BA"/>
<path d="M1.7325e-06 11H2V12C2 12.5523 2.44772 13 3 13H4V15H3C1.34315 15 1.50023e-06 13.6569 1.64508e-06 12L1.7325e-06 11Z" fill="#97A3BA"/>
<path d="M2.62268e-07 6H2L2 9H0L2.62268e-07 6Z" fill="#97A3BA"/>
<path d="M4 1.29539e-06L3 1.20797e-06C1.34315 1.06312e-06 6.69384e-07 1.34315 5.24537e-07 3L4.37114e-07 4H2V3C2 2.44772 2.44772 2 3 2H4L4 1.29539e-06Z" fill="#97A3BA"/>
<path d="M6 2L6 1.47023e-06L9 1.7325e-06V2L6 2Z" fill="#97A3BA"/>
<path d="M11 2H12C12.5523 2 13 2.44772 13 3L13 4L15 4V3C15 1.34315 13.6569 2.32269e-07 12 8.74224e-08L11 0V2Z" fill="#97A3BA"/>
<path d="M10 9C9.44771 9 9 9.44772 9 10H7C7 8.34315 8.34315 7 10 7V9Z" fill="#97A3BA"/>
<path d="M12 13L12 15C13.6569 15 15 13.6569 15 12L13 12C13 12.5523 12.5523 13 12 13Z" fill="#97A3BA"/>
</svg>
