<svg width="22" height="22" viewBox="0 0 22 22" fill="none" xmlns="http://www.w3.org/2000/svg">
<path fill-rule="evenodd" clip-rule="evenodd" d="M9 0C7.34315 0 6 1.34315 6 3V4H1C0.447715 4 0 4.44772 0 5C0 5.55228 0.447715 6 1 6H6V7C6 8.65685 7.34315 10 9 10H13C14.6569 10 16 8.65685 16 7V6H21C21.5523 6 22 5.55228 22 5C22 4.44772 21.5523 4 21 4H16V3C16 1.34315 14.6569 0 13 0H9ZM8 3C8 2.44772 8.44772 2 9 2H13C13.5523 2 14 2.44772 14 3V7C14 7.55228 13.5523 8 13 8H9C8.44772 8 8 7.55228 8 7V3Z" fill="#97A3BA"/>
<path d="M10.4731 12.3672C10.6634 11.8776 11.3366 11.8776 11.5269 12.3672L14.9575 21.1966C15.1546 21.7039 14.6277 22.1873 14.1608 21.9274L11 20.1685L7.83918 21.9274C7.37229 22.1873 6.84537 21.7039 7.04248 21.1966L10.4731 12.3672Z" fill="#97A3BA"/>
</svg>
