<svg width="22" height="22" viewBox="0 0 22 22" fill="none" xmlns="http://www.w3.org/2000/svg">
<path fill-rule="evenodd" clip-rule="evenodd" d="M8 2C8 0.895431 8.89543 0 10 0H12C13.1046 0 14 0.895431 14 2V2.51224C16.5572 3.41608 18.584 5.44282 19.4878 8H20C21.1046 8 22 8.89543 22 10V12C22 13.1046 21.1046 14 20 14H19.4879C18.5841 16.5573 16.5573 18.5841 14 19.488V20C14 21.1046 13.1046 22 12 22H10C8.89543 22 8 21.1046 8 20V19.488C5.44272 18.5841 3.41591 16.5573 2.51208 14H2C0.89543 14 0 13.1046 0 12V10C0 8.89543 0.895431 8 2 8H2.51217C3.41604 5.44282 5.44281 3.41609 8 2.51225V2ZM4.62704 8.10027C5.42446 8.36332 6 9.11445 6 10V12C6 12.8856 5.42441 13.6367 4.62693 13.8998C5.32663 15.4351 6.56485 16.6734 8.10021 17.3731C8.36322 16.5756 9.11439 16 10 16H12C12.8856 16 13.6368 16.5756 13.8998 17.3731C15.4352 16.6734 16.6734 15.4352 17.3731 13.8998C16.5756 13.6367 16 12.8856 16 12V10C16 9.11445 16.5755 8.36332 17.373 8.10026C16.6732 6.56496 15.435 5.32678 13.8997 4.62709C13.6366 5.42449 12.8855 6 12 6H10C9.11447 6 8.36336 5.42449 8.10028 4.6271C6.56497 5.32679 5.32676 6.56497 4.62704 8.10027ZM12 2H10V4H12V2ZM10 18H12V20H10V18ZM20 12V10H18V12H20ZM4 10L4 12H2L2 10H4Z" fill="#97A3BA"/>
</svg>
