<svg width="22" height="22" viewBox="0 0 22 22" fill="none" xmlns="http://www.w3.org/2000/svg">
<path fill-rule="evenodd" clip-rule="evenodd" d="M2 2C2 0.895431 2.89543 0 4 0H6C7.10457 0 8 0.895431 8 2H11C15.9706 2 20 6.02944 20 11V14C21.1046 14 22 14.8954 22 16V18C22 19.1046 21.1046 20 20 20V21C20 21.5523 19.5523 22 19 22C18.4477 22 18 21.5523 18 21V20C16.8954 20 16 19.1046 16 18V16C16 14.8954 16.8954 14 18 14V11C18 7.13401 14.866 4 11 4H8C8 5.10457 7.10457 6 6 6H4C2.89543 6 2 5.10457 2 4H1C0.447715 4 0 3.55228 0 3C0 2.44772 0.447715 2 1 2H2ZM6 2H4V4H6V2ZM18 16H20V18H18V16Z" fill="#97A3BA"/>
</svg>
