<svg width="22" height="22" viewBox="0 0 22 22" fill="none" xmlns="http://www.w3.org/2000/svg">
<path fill-rule="evenodd" clip-rule="evenodd" d="M10 0C8.89543 0 8 0.895431 8 2V4C8 4.58235 8.24889 5.10657 8.64611 5.47208L3.38214 16H2C0.895431 16 0 16.8954 0 18V20C0 21.1046 0.895431 22 2 22H4C5.10452 22 5.99992 21.1046 6 20.0001L16 20.0003C16.0002 21.1048 16.8955 22 18 22H20C21.1046 22 22 21.1046 22 20V18C22 16.8954 21.1046 16 20 16H18.6179L13.3539 5.47208C13.7511 5.10657 14 4.58235 14 4V2C14 0.895431 13.1046 0 12 0H10ZM16.6459 16.5281L11.3818 6H10.6182L5.35414 16.5281C5.75121 16.8937 6 17.4178 6 18L16 18.0004C16 17.4181 16.2488 16.8936 16.6459 16.5281ZM10 2H12V4H10V2ZM4 18H2V20H4V18ZM20 18V20H18V18H20Z" fill="#97A3BA"/>
</svg>
