<svg width="400" height="90" viewBox="0 0 400 90" fill="none" xmlns="http://www.w3.org/2000/svg">
<path d="M113.846 82.1242V6.87576H144.93C150.564 6.87576 155.426 7.97803 159.517 10.1826C163.632 12.3626 166.804 15.4122 169.033 19.3314C171.262 23.2261 172.376 27.7577 172.376 32.9261C172.376 38.1191 171.237 42.6629 168.959 46.5576C166.681 50.4278 163.448 53.4284 159.259 55.5595C155.095 57.6905 150.135 58.7561 144.379 58.7561H132.033V82.1242H113.846ZM132.033 44.4265H140.998C145.089 44.4265 148.2 43.3855 150.331 41.3034C152.462 39.1968 153.528 36.4044 153.528 32.9261C153.528 29.4234 152.462 26.6554 150.331 24.6223C148.2 22.5648 145.089 21.536 140.998 21.536H132.033V44.4265Z" fill="gray"/>
<path d="M181.342 82.1242V25.6879H198.794V35.9758H199.382C200.411 32.2525 202.089 29.4846 204.416 27.672C206.743 25.8349 209.449 24.9163 212.536 24.9163C214.251 24.9163 215.928 25.1367 217.57 25.5777V41.1932C216.712 40.8992 215.585 40.6665 214.189 40.4951C212.818 40.3236 211.593 40.2379 210.515 40.2379C207.306 40.2379 204.636 41.2789 202.505 43.361C200.374 45.4186 199.309 48.1253 199.309 51.4811V82.1242H181.342Z" fill="gray"/>
<path d="M224.891 82.1242V25.6879H242.858V82.1242H224.891ZM233.892 19.111C231.369 19.111 229.202 18.2782 227.389 16.6125C225.576 14.9223 224.67 12.8893 224.67 10.5133C224.67 8.13725 225.576 6.11642 227.389 4.45076C229.202 2.7851 231.369 1.95227 233.892 1.95227C236.44 1.95227 238.608 2.7851 240.396 4.45076C242.208 6.11642 243.115 8.13725 243.115 10.5133C243.115 12.8893 242.208 14.9223 240.396 16.6125C238.608 18.2782 236.44 19.111 233.892 19.111Z" fill="gray"/>
<path d="M254.441 82.1242V71.8731L280.601 40.0174V39.65H255.359V25.6879H302.022V36.9311L277.772 67.7947V68.1621H302.904V82.1242H254.441Z" fill="gray"/>
<path d="M314.514 82.1242V25.6879H331.6V36.0492H332.224C333.4 32.6199 335.384 29.9133 338.177 27.9292C340.993 25.9451 344.325 24.953 348.171 24.953C352.09 24.953 355.446 25.9573 358.238 27.9659C361.03 29.9745 362.806 32.6689 363.566 36.0492H364.153C365.207 32.6934 367.264 30.0112 370.326 28.0027C373.388 25.9696 377.001 24.953 381.165 24.953C386.505 24.953 390.841 26.6554 394.172 30.0602C397.503 33.465 399.169 38.1558 399.169 44.1326V82.1242H381.202V48.2477C381.202 45.4308 380.467 43.2875 378.997 41.8178C377.552 40.3236 375.691 39.5765 373.413 39.5765C370.939 39.5765 368.991 40.3849 367.571 42.0015C366.174 43.5937 365.476 45.737 365.476 48.4314V82.1242H348.207V48.064C348.207 45.4431 347.497 43.3732 346.076 41.8545C344.656 40.3359 342.782 39.5765 340.455 39.5765C338.103 39.5765 336.18 40.4093 334.686 42.075C333.216 43.7162 332.482 45.933 332.482 48.7254V82.1242H314.514Z" fill="gray"/>
<path d="M41.5163 0L82.4573 72.2867L41.5163 89.4637L0.575317 72.2867L41.5163 0Z" fill="gray"/>
</svg>
