<svg width="16" height="16" viewBox="0 0 16 16" fill="none" xmlns="http://www.w3.org/2000/svg">
<path fill-rule="evenodd" clip-rule="evenodd" d="M2 0.5H3C3.82843 0.5 4.5 1.17157 4.5 2V3C4.5 3.23154 4.44754 3.45082 4.35386 3.64662C4.37663 3.66946 4.39751 3.69485 4.41608 3.7227L6.36224 6.64194C6.55578 6.55089 6.77195 6.5 7 6.5H8C8.23157 6.5 8.45089 6.55248 8.64671 6.64619L11.5 3.79289V3C11.5 2.17157 12.1716 1.5 13 1.5H14C14.8284 1.5 15.5 2.17157 15.5 3V4C15.5 4.65311 15.0826 5.20873 14.5 5.41465V11.5854C15.0826 11.7913 15.5 12.3469 15.5 13V14C15.5 14.8284 14.8284 15.5 14 15.5H13C12.3469 15.5 11.7913 15.0826 11.5854 14.5H5.41465C5.20873 15.0826 4.65311 15.5 4 15.5H3C2.17157 15.5 1.5 14.8284 1.5 14V13C1.5 12.3669 1.89217 11.8255 2.44682 11.6053L1.55007 4.43135C0.94147 4.24024 0.5 3.67167 0.5 3V2C0.5 1.17157 1.17157 0.5 2 0.5ZM9.35381 7.35329C9.44752 7.54911 9.5 7.76843 9.5 8V9C9.5 9.82843 8.82843 10.5 8 10.5H7C6.17157 10.5 5.5 9.82843 5.5 9V8C5.5 7.76846 5.55246 7.54918 5.64614 7.35338C5.62341 7.33057 5.60257 7.30521 5.58403 7.2774L3.63779 4.35805C3.44424 4.4491 3.22806 4.5 3 4.5H2.56644L3.44144 11.5H4C4.82843 11.5 5.5 12.1716 5.5 13V13.5H11.5V13C11.5 12.1716 12.1716 11.5 13 11.5H13.5V5.5H13C12.5111 5.5 12.0768 5.26611 11.803 4.90412L9.35381 7.35329ZM12.5 4C12.5 4.27614 12.7239 4.5 13 4.5H14C14.2761 4.5 14.5 4.27614 14.5 4V3C14.5 2.72386 14.2761 2.5 14 2.5H13C12.7239 2.5 12.5 2.72386 12.5 3V4ZM4.5 13C4.5 12.7239 4.27614 12.5 4 12.5H3.00967L2.99244 12.5001C2.71978 12.5041 2.5 12.7264 2.5 13V14C2.5 14.2761 2.72386 14.5 3 14.5H4C4.27614 14.5 4.5 14.2761 4.5 14V13ZM13 14.5H14C14.2761 14.5 14.5 14.2761 14.5 14V13C14.5 12.7239 14.2761 12.5 14 12.5H13C12.7239 12.5 12.5 12.7239 12.5 13V14C12.5 14.2761 12.7239 14.5 13 14.5ZM2.00044 3.5H3C3.27614 3.5 3.5 3.27614 3.5 3V2C3.5 1.72386 3.27614 1.5 3 1.5H2C1.72386 1.5 1.5 1.72386 1.5 2V3C1.5 3.27614 1.7243 3.5 2.00044 3.5ZM7 7.5C6.72386 7.5 6.5 7.72386 6.5 8V9C6.5 9.27614 6.72386 9.5 7 9.5H8C8.27614 9.5 8.5 9.27614 8.5 9V8C8.5 7.72386 8.27614 7.5 8 7.5H7Z" fill="#777B92"/>
</svg>
