<svg width="24" height="24" viewBox="0 0 24 24" fill="none" xmlns="http://www.w3.org/2000/svg">
<path fill-rule="evenodd" clip-rule="evenodd" d="M5 4C5 4.55228 4.55228 5 4 5C3.44772 5 3 4.55228 3 4C3 3.44772 3.44772 3 4 3C4.55228 3 5 3.44772 5 4Z" fill="#777B92"/>
<path fill-rule="evenodd" clip-rule="evenodd" d="M3 20C3 19.4477 3.44772 19 4 19H20C20.5523 19 21 19.4477 21 20C21 20.5523 20.5523 21 20 21H4C3.44772 21 3 20.5523 3 20Z" fill="#777B92"/>
<path fill-rule="evenodd" clip-rule="evenodd" d="M8 5C7.44772 5 7 4.55228 7 4C7 3.44772 7.44772 3 8 3C8.55228 3 9 3.44772 9 4C9 4.55228 8.55228 5 8 5Z" fill="#777B92"/>
<path fill-rule="evenodd" clip-rule="evenodd" d="M13 4C13 4.55228 12.5523 5 12 5C11.4477 5 11 4.55228 11 4C11 3.44772 11.4477 3 12 3C12.5523 3 13 3.44772 13 4Z" fill="#777B92"/>
<path fill-rule="evenodd" clip-rule="evenodd" d="M12 9C11.4477 9 11 8.55228 11 8C11 7.44772 11.4477 7 12 7C12.5523 7 13 7.44772 13 8C13 8.55228 12.5523 9 12 9Z" fill="#777B92"/>
<path fill-rule="evenodd" clip-rule="evenodd" d="M13 12C13 12.5523 12.5523 13 12 13C11.4477 13 11 12.5523 11 12C11 11.4477 11.4477 11 12 11C12.5523 11 13 11.4477 13 12Z" fill="#777B92"/>
<path fill-rule="evenodd" clip-rule="evenodd" d="M12 17C11.4477 17 11 16.5523 11 16C11 15.4477 11.4477 15 12 15C12.5523 15 13 15.4477 13 16C13 16.5523 12.5523 17 12 17Z" fill="#777B92"/>
<path fill-rule="evenodd" clip-rule="evenodd" d="M9 12C9 12.5523 8.55228 13 8 13C7.44772 13 7 12.5523 7 12C7 11.4477 7.44772 11 8 11C8.55228 11 9 11.4477 9 12Z" fill="#777B92"/>
<path fill-rule="evenodd" clip-rule="evenodd" d="M16 5C15.4477 5 15 4.55228 15 4C15 3.44772 15.4477 3 16 3C16.5523 3 17 3.44772 17 4C17 4.55228 16.5523 5 16 5Z" fill="#777B92"/>
<path fill-rule="evenodd" clip-rule="evenodd" d="M17 12C17 12.5523 16.5523 13 16 13C15.4477 13 15 12.5523 15 12C15 11.4477 15.4477 11 16 11C16.5523 11 17 11.4477 17 12Z" fill="#777B92"/>
<path fill-rule="evenodd" clip-rule="evenodd" d="M20 5C19.4477 5 19 4.55228 19 4C19 3.44772 19.4477 3 20 3C20.5523 3 21 3.44772 21 4C21 4.55228 20.5523 5 20 5Z" fill="#777B92"/>
<path fill-rule="evenodd" clip-rule="evenodd" d="M21 8C21 8.55228 20.5523 9 20 9C19.4477 9 19 8.55228 19 8C19 7.44772 19.4477 7 20 7C20.5523 7 21 7.44772 21 8Z" fill="#777B92"/>
<path fill-rule="evenodd" clip-rule="evenodd" d="M4 9C3.44772 9 3 8.55228 3 8C3 7.44772 3.44772 7 4 7C4.55228 7 5 7.44772 5 8C5 8.55228 4.55228 9 4 9Z" fill="#777B92"/>
<path fill-rule="evenodd" clip-rule="evenodd" d="M21 12C21 12.5523 20.5523 13 20 13C19.4477 13 19 12.5523 19 12C19 11.4477 19.4477 11 20 11C20.5523 11 21 11.4477 21 12Z" fill="#777B92"/>
<path fill-rule="evenodd" clip-rule="evenodd" d="M4 13C3.44772 13 3 12.5523 3 12C3 11.4477 3.44772 11 4 11C4.55228 11 5 11.4477 5 12C5 12.5523 4.55228 13 4 13Z" fill="#777B92"/>
<path fill-rule="evenodd" clip-rule="evenodd" d="M21 16C21 16.5523 20.5523 17 20 17C19.4477 17 19 16.5523 19 16C19 15.4477 19.4477 15 20 15C20.5523 15 21 15.4477 21 16Z" fill="#777B92"/>
<path fill-rule="evenodd" clip-rule="evenodd" d="M4 17C3.44772 17 3 16.5523 3 16C3 15.4477 3.44772 15 4 15C4.55228 15 5 15.4477 5 16C5 16.5523 4.55228 17 4 17Z" fill="#777B92"/>
</svg>
