<svg width="24" height="24" viewBox="0 0 24 24" fill="none" xmlns="http://www.w3.org/2000/svg">
<path fill-rule="evenodd" clip-rule="evenodd" d="M8.5 11C7.67157 11 7 10.3284 7 9.5C7 8.67157 7.67157 8 8.5 8C9.32843 8 10 8.67157 10 9.5C10 10.3284 9.32843 11 8.5 11Z" fill="#777B92"/>
<path fill-rule="evenodd" clip-rule="evenodd" d="M17 9.5C17 10.3284 16.3284 11 15.5 11C14.6716 11 14 10.3284 14 9.5C14 8.67157 14.6716 8 15.5 8C16.3284 8 17 8.67157 17 9.5Z" fill="#777B92"/>
<path fill-rule="evenodd" clip-rule="evenodd" d="M8.7996 14.3994C9.53114 15.3733 10.6922 16.0001 12.0001 16.0001C13.3081 16.0001 14.4694 15.3733 15.2009 14.3995C15.5325 13.9579 16.1594 13.8688 16.601 14.2005C17.0426 14.5322 17.1317 15.159 16.8 15.6006C15.707 17.0557 13.9637 18.0001 12.0001 18.0001C10.0364 18.0001 8.2934 17.0555 7.20052 15.6007C6.86881 15.1591 6.95787 14.5322 7.39945 14.2005C7.84102 13.8688 8.46789 13.9579 8.7996 14.3994Z" fill="#777B92"/>
<path fill-rule="evenodd" clip-rule="evenodd" d="M12 2C17.5228 2 22 6.47715 22 12C22 17.5228 17.5228 22 12 22C6.47715 22 2 17.5228 2 12C2 6.47715 6.47715 2 12 2ZM4 12C4 16.4183 7.58172 20 12 20C16.4183 20 20 16.4183 20 12C20 7.58172 16.4183 4 12 4C7.58172 4 4 7.58172 4 12Z" fill="#777B92"/>
</svg>
