<svg width="24" height="24" viewBox="0 0 24 24" fill="none" xmlns="http://www.w3.org/2000/svg">
<path fill-rule="evenodd" clip-rule="evenodd" d="M2 3C2 1.89543 2.89543 1 4 1H20C21.1046 1 22 1.89543 22 3V6C22 7.10457 21.1046 8 20 8H4C2.89543 8 2 7.10457 2 6V3ZM20 3H4V6H20V3Z" fill="#777B92"/>
<path fill-rule="evenodd" clip-rule="evenodd" d="M2 13C2 11.8954 2.89543 11 4 11H20C21.1046 11 22 11.8954 22 13V21C22 22.1046 21.1046 23 20 23H4C2.89543 23 2 22.1046 2 21V13ZM4 18V21H20V18H4ZM20 16V13H4V16H20Z" fill="#777B92"/>
</svg>
