<svg width="24" height="24" viewBox="0 0 24 24" fill="none" xmlns="http://www.w3.org/2000/svg">
<path fill-rule="evenodd" clip-rule="evenodd" d="M13.8323 5.69348L19.9162 19.5994C20.1375 20.1054 19.9068 20.695 19.4008 20.9164C18.8948 21.1377 18.3052 20.907 18.0839 20.401L16.1533 15.9883C16.1033 15.996 16.0521 16 16 16H8C7.94788 16 7.8967 15.996 7.84673 15.9883L5.91617 20.401C5.6948 20.907 5.10517 21.1377 4.59919 20.9164C4.09321 20.695 3.86249 20.1054 4.08385 19.5994L10.1677 5.69348C10.8667 4.09566 13.1333 4.09566 13.8323 5.69348ZM15.2834 14L12 6.49512L8.71662 14H15.2834Z" fill="#777B92"/>
</svg>
