<svg width="24" height="24" viewBox="0 0 24 24" fill="none" xmlns="http://www.w3.org/2000/svg">
<path fill-rule="evenodd" clip-rule="evenodd" d="M5 4H18C18.5523 4 19 4.44772 19 5C19 5.55228 18.5523 6 18 6H5C4.44772 6 4 5.55228 4 5C4 4.44772 4.44772 4 5 4Z" fill="#777B92"/>
<path fill-rule="evenodd" clip-rule="evenodd" d="M4 11C4 10.4477 4.44772 10 5 10H16C18.2091 10 20 11.7909 20 14C20 16.2091 18.2091 18 16 18H15.4142L15.7071 18.2929C16.0976 18.6834 16.0976 19.3166 15.7071 19.7071C15.3166 20.0976 14.6834 20.0976 14.2929 19.7071L12.2929 17.7071C12.1054 17.5196 12 17.2652 12 17C12 16.7348 12.1054 16.4804 12.2929 16.2929L14.2929 14.2929C14.6834 13.9024 15.3166 13.9024 15.7071 14.2929C16.0976 14.6834 16.0976 15.3166 15.7071 15.7071L15.4142 16H16C17.1046 16 18 15.1046 18 14C18 12.8954 17.1046 12 16 12H5C4.44772 12 4 11.5523 4 11Z" fill="#777B92"/>
<path fill-rule="evenodd" clip-rule="evenodd" d="M4 17C4 16.4477 4.44772 16 5 16H9C9.55228 16 10 16.4477 10 17C10 17.5523 9.55228 18 9 18H5C4.44772 18 4 17.5523 4 17Z" fill="#777B92"/>
</svg>
