<svg width="24" height="24" viewBox="0 0 24 24" fill="none" xmlns="http://www.w3.org/2000/svg">
<path fill-rule="evenodd" clip-rule="evenodd" d="M18.7929 5.20666C17.2504 3.66419 14.7496 3.66419 13.2071 5.20666L11.7071 6.70666C11.3166 7.09718 10.6834 7.09718 10.2929 6.70666C9.90237 6.31614 9.90237 5.68297 10.2929 5.29245L11.7929 3.79244C14.1164 1.46892 17.8836 1.46893 20.2071 3.79245C22.5306 6.11597 22.5306 9.88314 20.2071 12.2067L18.7071 13.7067C18.3166 14.0972 17.6834 14.0972 17.2929 13.7067C16.9024 13.3161 16.9024 12.683 17.2929 12.2924L18.7929 10.7924C20.3354 9.24997 20.3354 6.74913 18.7929 5.20666Z" fill="#777B92"/>
<path fill-rule="evenodd" clip-rule="evenodd" d="M6.70715 10.2929C7.09767 10.6834 7.09767 11.3166 6.70715 11.7071L5.20715 13.2071C3.66467 14.7496 3.66468 17.2504 5.20715 18.7929C6.74962 20.3354 9.25046 20.3354 10.7929 18.7929L12.2929 17.2929C12.6835 16.9024 13.3166 16.9024 13.7071 17.2929C14.0977 17.6834 14.0977 18.3166 13.7071 18.7071L12.2071 20.2071C9.88363 22.5306 6.11646 22.5306 3.79293 20.2071C1.46941 17.8836 1.46941 14.1164 3.79293 11.7929L5.29293 10.2929C5.68346 9.90237 6.31662 9.90237 6.70715 10.2929Z" fill="#777B92"/>
<path fill-rule="evenodd" clip-rule="evenodd" d="M10 11H14C14.5523 11 15 11.4477 15 12C15 12.5523 14.5523 13 14 13H10C9.44772 13 9 12.5523 9 12C9 11.4477 9.44772 11 10 11Z" fill="#777B92"/>
</svg>
