<svg width="24" height="24" viewBox="0 0 24 24" fill="none" xmlns="http://www.w3.org/2000/svg">
<path fill-rule="evenodd" clip-rule="evenodd" d="M8.19908 5.98031C7.39139 6.56772 7 7.29419 7 8C7 8.70581 7.39139 9.43228 8.19908 10.0197C9.0058 10.6064 10.1696 11 11.5 11H20C20.5523 11 21 11.4477 21 12C21 12.5523 20.5523 13 20 13H16.7139C17.4938 13.8043 18 14.8329 18 16C18 17.5033 17.1602 18.7769 15.9773 19.6372C14.7934 20.4982 13.2072 21 11.5 21C9.79282 21 8.20663 20.4982 7.02274 19.6372C5.83983 18.7769 5 17.5033 5 16C5 15.4477 5.44772 15 6 15C6.55228 15 7 15.4477 7 16C7 16.7058 7.39139 17.4323 8.19908 18.0197C9.0058 18.6064 10.1696 19 11.5 19C12.8304 19 13.9942 18.6064 14.8009 18.0197C15.6086 17.4323 16 16.7058 16 16C16 15.2942 15.6086 14.5677 14.8009 13.9803C13.9942 13.3936 12.8304 13 11.5 13H4C3.44772 13 3 12.5523 3 12C3 11.4477 3.44772 11 4 11H6.28612C5.50619 10.1957 5 9.16712 5 8C5 6.49667 5.83983 5.22314 7.02274 4.36284C8.20663 3.50182 9.79282 3 11.5 3C13.2072 3 14.7934 3.50182 15.9773 4.36284C17.1602 5.22314 18 6.49667 18 8C18 8.55228 17.5523 9 17 9C16.4477 9 16 8.55228 16 8C16 7.29419 15.6086 6.56772 14.8009 5.98031C13.9942 5.39361 12.8304 5 11.5 5C10.1696 5 9.0058 5.39361 8.19908 5.98031Z" fill="#777B92"/>
</svg>
