<svg width="24" height="24" viewBox="0 0 24 24" fill="none" xmlns="http://www.w3.org/2000/svg">
<path fill-rule="evenodd" clip-rule="evenodd" d="M4 1H20C21.1046 1 22 1.89543 22 3V5C22 6.10457 21.1046 7 20 7H4C2.89543 7 2 6.10457 2 5V3C2 1.89543 2.89543 1 4 1ZM4 3V5H20V3H4Z" fill="#777B92"/>
<path fill-rule="evenodd" clip-rule="evenodd" d="M4 17H20C21.1046 17 22 17.8954 22 19V21C22 22.1046 21.1046 23 20 23H4C2.89543 23 2 22.1046 2 21V19C2 17.8954 2.89543 17 4 17ZM4 19V21H20V19H4Z" fill="#777B92"/>
<path fill-rule="evenodd" clip-rule="evenodd" d="M18.2929 9.29289C18.6834 8.90237 19.3166 8.90237 19.7071 9.29289L21.7071 11.2929C22.0976 11.6834 22.0976 12.3166 21.7071 12.7071C21.3166 13.0976 20.6834 13.0976 20.2929 12.7071L20 12.4142V14C20 14.5523 19.5523 15 19 15C18.4477 15 18 14.5523 18 14V12.4142L17.7071 12.7071C17.3166 13.0976 16.6834 13.0976 16.2929 12.7071C15.9024 12.3166 15.9024 11.6834 16.2929 11.2929L18.2929 9.29289Z" fill="#777B92"/>
<path fill-rule="evenodd" clip-rule="evenodd" d="M7.70711 12.7071L5.70711 14.7071C5.31658 15.0976 4.68342 15.0976 4.29289 14.7071L2.29289 12.7071C1.90237 12.3166 1.90237 11.6834 2.29289 11.2929C2.68342 10.9024 3.31658 10.9024 3.70711 11.2929L4 11.5858V10C4 9.44772 4.44772 9 5 9C5.55228 9 6 9.44772 6 10V11.5858L6.29289 11.2929C6.68342 10.9024 7.31658 10.9024 7.70711 11.2929C8.09763 11.6834 8.09763 12.3166 7.70711 12.7071Z" fill="#777B92"/>
</svg>
