<svg width="24" height="24" viewBox="0 0 24 24" fill="none" xmlns="http://www.w3.org/2000/svg">
<path fill-rule="evenodd" clip-rule="evenodd" d="M6 10C6 6.68629 8.68629 4 12 4C15.3137 4 18 6.68629 18 10C18 11.7032 17.0048 13.6852 15.654 15.5452C14.3565 17.3321 12.8501 18.8465 12 19.6481C11.1499 18.8465 9.64352 17.3321 8.34596 15.5452C6.99521 13.6852 6 11.7032 6 10ZM12 2C7.58172 2 4 5.58172 4 10C4 12.3688 5.32618 14.7905 6.72765 16.7204C8.15624 18.6877 9.79835 20.3247 10.6818 21.1539C11.4262 21.8525 12.5738 21.8525 13.3182 21.1539C14.2016 20.3247 15.8438 18.6877 17.2723 16.7204C18.6738 14.7905 20 12.3688 20 10C20 5.58172 16.4183 2 12 2ZM11 10C11 9.44772 11.4477 9 12 9C12.5523 9 13 9.44772 13 10C13 10.5523 12.5523 11 12 11C11.4477 11 11 10.5523 11 10ZM12 7C10.3431 7 9 8.34315 9 10C9 11.6569 10.3431 13 12 13C13.6569 13 15 11.6569 15 10C15 8.34315 13.6569 7 12 7Z" fill="#777B92"/>
</svg>
