<svg width="24" height="24" viewBox="0 0 24 24" fill="none" xmlns="http://www.w3.org/2000/svg">
<path fill-rule="evenodd" clip-rule="evenodd" d="M4 12C4 7.58172 7.58172 4 12 4C12.6164 4 13.2164 4.0697 13.7928 4.20166C13.4256 4.82589 12.9624 5.19821 12.4453 5.54295C12.3413 5.61226 12.2258 5.68491 12.1024 5.76246C11.497 6.14307 10.7035 6.64193 10.1679 7.4453C9.80257 7.99338 9.64479 8.59632 9.57099 9.15903C9.49993 9.70086 9.49997 10.2719 9.5 10.7802L9.5 10.8125C9.5 11.9181 9.48255 12.7988 9.10557 13.5528C8.8406 14.0827 8.16655 14.4635 7.04525 14.5532C6.1342 14.6261 5.12744 14.4817 4.31439 14.2282C4.1097 13.5209 4 12.7732 4 12ZM5.38195 16.496C6.82159 18.611 9.24859 20 12 20C12.8327 20 13.6357 19.8728 14.3906 19.6367C13.8251 18.817 13.5 17.9369 13.5 17C13.5 16.1568 13.976 15.5126 14.2734 15.1101L14.3136 15.0556C14.6563 14.5897 14.9098 14.2376 15.0299 13.7575C15.2662 12.812 15.3264 12.2846 15.3565 11.921C15.3608 11.8681 15.3646 11.8135 15.3686 11.7572C15.3901 11.4506 15.4151 11.0923 15.5513 10.6838C15.8562 9.76901 16.5796 9.09979 17.3562 8.67342C17.8524 8.40101 18.4101 8.20424 18.9845 8.09612C18.2226 6.73594 17.0749 5.62108 15.6896 4.89975C15.0959 6.0668 14.2918 6.71567 13.5547 7.20705C13.3632 7.33469 13.1907 7.44522 13.0342 7.54545L13.0341 7.54549C12.4666 7.90895 12.1105 8.13698 11.8321 8.5547C11.6974 8.75662 11.6052 9.02868 11.554 9.4191C11.5016 9.81888 11.5 10.2663 11.5 10.8125L11.5 10.8936C11.5005 11.9038 11.5011 13.2339 10.8944 14.4472C10.1594 15.9173 8.58345 16.4365 7.20475 16.5468C6.6047 16.5948 5.98411 16.5723 5.38195 16.496ZM19.7504 10.0094C19.2462 10.0472 18.7381 10.1964 18.3188 10.4266C17.8204 10.7002 17.5438 11.031 17.4487 11.3162C17.3974 11.4702 17.3907 11.5565 17.3692 11.8378C17.3639 11.9072 17.3577 11.9886 17.3497 12.0857C17.311 12.5532 17.2338 13.188 16.9701 14.2425C16.7507 15.1202 16.2848 15.7522 15.9646 16.1866L15.9248 16.2405C15.5544 16.7442 15.5 16.8824 15.5 17C15.5 17.515 15.7039 18.107 16.2457 18.7817C18.5008 17.3669 20 14.8585 20 12C20 11.3128 19.9134 10.6458 19.7504 10.0094ZM12 2C6.47715 2 2 6.47715 2 12C2 17.5228 6.47715 22 12 22C17.5228 22 22 17.5228 22 12C22 6.47715 17.5228 2 12 2Z" fill="#777B92"/>
</svg>
