<svg width="24" height="24" viewBox="0 0 24 24" fill="none" xmlns="http://www.w3.org/2000/svg">
<path fill-rule="evenodd" clip-rule="evenodd" d="M1 5C1 3.89543 1.89543 3 3 3H5C6.10457 3 7 3.89543 7 5H17C17 3.89543 17.8954 3 19 3H21C22.1046 3 23 3.89543 23 5V7C23 8.10457 22.1046 9 21 9V15C22.1046 15 23 15.8954 23 17V19C23 20.1046 22.1046 21 21 21H19C17.8954 21 17 20.1046 17 19H7C7 20.1046 6.10457 21 5 21H3C1.89543 21 1 20.1046 1 19V17C1 15.8954 1.89543 15 3 15V9C1.89543 9 1 8.10457 1 7V5ZM5 9V15C6.10457 15 7 15.8954 7 17H17C17 15.8954 17.8954 15 19 15V9C17.8954 9 17 8.10457 17 7H7C7 8.10457 6.10457 9 5 9ZM5 7V5H3V7H5ZM3 17V19H5V17H3ZM19 17V19H21V17H19ZM21 7V5H19V7H21Z" fill="#777B92"/>
</svg>
