<svg width="24" height="24" viewBox="0 0 24 24" fill="none" xmlns="http://www.w3.org/2000/svg">
<path fill-rule="evenodd" clip-rule="evenodd" d="M10 8L11 8C11.5523 8 12 8.44771 12 9C12 9.55228 11.5523 10 11 10H10V11C10 11.5523 9.55229 12 9 12C8.44772 12 8 11.5523 8 11V10C8 8.89543 8.89543 8 10 8Z" fill="#777B92"/>
<path fill-rule="evenodd" clip-rule="evenodd" d="M14 8C14 7.44772 14.4477 7 15 7C15.5523 7 16 7.44772 16 8C16.5523 8 17 8.44772 17 9C17 9.55228 16.5523 10 16 10C16 10.5523 15.5523 11 15 11C14.4477 11 14 10.5523 14 10C13.4477 10 13 9.55228 13 9C13 8.44771 13.4477 8 14 8Z" fill="#777B92"/>
<path fill-rule="evenodd" clip-rule="evenodd" d="M20 8H21C22.1046 8 23 8.89543 23 10V11C23 11.5523 22.5523 12 22 12C21.4477 12 21 11.5523 21 11V10H20C19.4477 10 19 9.55228 19 9C19 8.44771 19.4477 8 20 8Z" fill="#777B92"/>
<path fill-rule="evenodd" clip-rule="evenodd" d="M10 14C10.5523 14 11 14.4477 11 15C11 15.5523 10.5523 16 10 16C10 16.5523 9.55229 17 9 17C8.44772 17 8 16.5523 8 16C7.44772 16 7 15.5523 7 15C7 14.4477 7.44772 14 8 14C8 13.4477 8.44772 13 9 13C9.55229 13 10 13.4477 10 14Z" fill="#777B92"/>
<path fill-rule="evenodd" clip-rule="evenodd" d="M23 15V16C23 16.5523 22.5523 17 22 17C21.4477 17 21 16.5523 21 16V15C21 14.4477 21.4477 14 22 14C22.5523 14 23 14.4477 23 15Z" fill="#777B92"/>
<path fill-rule="evenodd" clip-rule="evenodd" d="M10 20V21H11C11.5523 21 12 21.4477 12 22C12 22.5523 11.5523 23 11 23H10C8.89543 23 8 22.1046 8 21V20C8 19.4477 8.44772 19 9 19C9.55229 19 10 19.4477 10 20Z" fill="#777B92"/>
<path fill-rule="evenodd" clip-rule="evenodd" d="M23 20V21C23 22.1046 22.1046 23 21 23H20C19.4477 23 19 22.5523 19 22C19 21.4477 19.4477 21 20 21H21V20C21 19.4477 21.4477 19 22 19C22.5523 19 23 19.4477 23 20Z" fill="#777B92"/>
<path fill-rule="evenodd" clip-rule="evenodd" d="M15 21H16C16.5523 21 17 21.4477 17 22C17 22.5523 16.5523 23 16 23H15C14.4477 23 14 22.5523 14 22C14 21.4477 14.4477 21 15 21Z" fill="#777B92"/>
<path fill-rule="evenodd" clip-rule="evenodd" d="M3 1L4 1C4.55228 1 5 1.44772 5 2C5 2.55229 4.55228 3 4 3L3 3V4C3 4.55229 2.55228 5 2 5C1.44772 5 1 4.55229 1 4L1 3C1 1.89543 1.89543 1 3 1Z" fill="#777B92"/>
<path fill-rule="evenodd" clip-rule="evenodd" d="M8 1L9 1C9.55229 1 10 1.44772 10 2C10 2.55229 9.55229 3 9 3L8 3C7.44772 3 7 2.55229 7 2C7 1.44772 7.44772 1 8 1Z" fill="#777B92"/>
<path fill-rule="evenodd" clip-rule="evenodd" d="M13 1L14 1C15.1046 1 16 1.89543 16 3V4C16 4.55229 15.5523 5 15 5C14.4477 5 14 4.55229 14 4L14 3H13C12.4477 3 12 2.55229 12 2C12 1.44772 12.4477 1 13 1Z" fill="#777B92"/>
<path fill-rule="evenodd" clip-rule="evenodd" d="M3 8V9C3 9.55229 2.55229 10 2 10C1.44772 10 1 9.55229 1 9L1 8C1 7.44772 1.44772 7 2 7C2.55229 7 3 7.44772 3 8Z" fill="#777B92"/>
<path fill-rule="evenodd" clip-rule="evenodd" d="M3 13L3 14H4C4.55229 14 5 14.4477 5 15C5 15.5523 4.55229 16 4 16H3C1.89543 16 1 15.1046 1 14L1 13C1 12.4477 1.44772 12 2 12C2.55229 12 3 12.4477 3 13Z" fill="#777B92"/>
<path fill-rule="evenodd" clip-rule="evenodd" d="M16 13V14C16 15.1046 15.1046 16 14 16H13C12.4477 16 12 15.5523 12 15C12 14.4477 12.4477 14 13 14H14V13C14 12.4477 14.4477 12 15 12C15.5523 12 16 12.4477 16 13Z" fill="#777B92"/>
</svg>
