<svg width="24" height="24" viewBox="0 0 24 24" fill="none" xmlns="http://www.w3.org/2000/svg">
<path fill-rule="evenodd" clip-rule="evenodd" d="M4 4C4 2.89543 4.89543 2 6 2H12.5858C12.6672 2 12.7481 2.00496 12.8281 2.01472C12.8839 2.00504 12.9414 2 13 2C13.3381 2 13.6371 2.16782 13.818 2.4247C13.8816 2.4744 13.9424 2.52815 14 2.58579L19.4142 8C19.4718 8.05763 19.5256 8.11842 19.5753 8.18196C19.8322 8.36295 20 8.66187 20 9C20 9.05862 19.995 9.11607 19.9853 9.17192C19.995 9.25191 20 9.3328 20 9.41421V14C20 14.5523 19.5523 15 19 15C18.4477 15 18 14.5523 18 14V10H14C12.8954 10 12 9.10457 12 8V4L6 4V14C6 14.5523 5.55228 15 5 15C4.44772 15 4 14.5523 4 14V4ZM14 5.41421V8H16.5858L14 5.41421Z" fill="#777B92"/>
<path fill-rule="evenodd" clip-rule="evenodd" d="M17.3823 19.6641C16.7104 19.4507 16.225 19.1867 15.9263 18.8721C15.6277 18.5521 15.4783 18.1627 15.4783 17.7041C15.4783 17.2027 15.6517 16.8081 15.9984 16.5201C16.3504 16.2267 16.8517 16.0801 17.5023 16.0801C17.993 16.0801 18.4383 16.1361 18.8383 16.2481C18.9663 16.2854 19.0677 16.3627 19.1424 16.4801C19.2224 16.5921 19.2624 16.7174 19.2624 16.8561V17.0881C19.2624 17.1947 19.217 17.2774 19.1263 17.3361C19.0357 17.3947 18.9397 17.4054 18.8383 17.3681C18.385 17.2081 17.9663 17.1281 17.5823 17.1281C17.0917 17.1281 16.8463 17.3201 16.8463 17.7041C16.8463 18.0294 17.0597 18.2614 17.4864 18.4001C18.2224 18.6241 18.7317 18.8854 19.0143 19.1841C19.3024 19.4827 19.4464 19.8747 19.4464 20.3601C19.4464 21.5067 18.7237 22.0801 17.2783 22.0801C16.8197 22.0801 16.4037 22.0081 16.0303 21.8641C15.9023 21.8161 15.801 21.7334 15.7263 21.6161C15.657 21.4934 15.6223 21.3601 15.6223 21.2161V20.9601C15.6223 20.8641 15.665 20.7921 15.7503 20.7441C15.8357 20.6907 15.921 20.6854 16.0063 20.7281C16.3957 20.9201 16.793 21.0161 17.1983 21.0161C17.481 21.0161 17.6943 20.9627 17.8383 20.8561C17.9877 20.7441 18.0624 20.5867 18.0624 20.3841C18.0624 20.2081 18.0117 20.0641 17.9103 19.9521C17.809 19.8401 17.633 19.7441 17.3823 19.6641Z" fill="#777B92"/>
<path fill-rule="evenodd" clip-rule="evenodd" d="M5.62047 21.8641C5.56714 21.7734 5.56447 21.6827 5.61247 21.5921L6.86847 19.1041C6.88447 19.0614 6.88447 19.0187 6.86847 18.9761L5.65247 16.5681C5.60447 16.4774 5.60714 16.3867 5.66047 16.2961C5.71381 16.2054 5.79381 16.1601 5.90047 16.1601H6.48447C6.62314 16.1601 6.74847 16.1974 6.86047 16.2721C6.97781 16.3467 7.06314 16.4481 7.11647 16.5761L7.81247 18.2481C7.81247 18.2534 7.81514 18.2561 7.82047 18.2561C7.82581 18.2561 7.82847 18.2534 7.82847 18.2481L8.52447 16.5761C8.57781 16.4481 8.66047 16.3467 8.77247 16.2721C8.88981 16.1974 9.01781 16.1601 9.15648 16.1601H9.70847C9.80981 16.1601 9.88714 16.2054 9.94047 16.2961C9.99914 16.3867 10.0045 16.4774 9.95647 16.5681L8.74047 18.9761C8.72447 19.0187 8.72447 19.0614 8.74047 19.1041L9.99647 21.5921C10.0445 21.6827 10.0391 21.7734 9.98047 21.8641C9.92714 21.9547 9.84981 22.0001 9.74847 22.0001H9.13247C8.99381 22.0001 8.86847 21.9627 8.75647 21.8881C8.64447 21.8081 8.56181 21.7041 8.50847 21.5761L7.79647 19.8321C7.79647 19.8267 7.79381 19.8241 7.78847 19.8241C7.78314 19.8241 7.78047 19.8267 7.78047 19.8321L7.06847 21.5761C7.01514 21.7041 6.92981 21.8081 6.81247 21.8881C6.70047 21.9627 6.57781 22.0001 6.44447 22.0001H5.86047C5.75381 22.0001 5.67381 21.9547 5.62047 21.8641Z" fill="#777B92"/>
<path fill-rule="evenodd" clip-rule="evenodd" d="M11.08 21.8641C10.9893 21.7734 10.944 21.6667 10.944 21.5441V16.6161C10.944 16.4934 10.9893 16.3867 11.08 16.2961C11.1706 16.2054 11.2773 16.1601 11.4 16.1601H11.896C12.0186 16.1601 12.1226 16.2054 12.208 16.2961C12.2986 16.3867 12.344 16.4934 12.344 16.6161V20.8081C12.344 20.8507 12.368 20.8721 12.416 20.8721H14.36C14.4826 20.8721 14.5893 20.9174 14.68 21.0081C14.7706 21.0987 14.816 21.2054 14.816 21.3281V21.5441C14.816 21.6667 14.7706 21.7734 14.68 21.8641C14.5893 21.9547 14.4826 22.0001 14.36 22.0001H11.4C11.2773 22.0001 11.1706 21.9547 11.08 21.8641Z" fill="#777B92"/>
</svg>
