<svg width="24" height="24" viewBox="0 0 24 24" fill="none" xmlns="http://www.w3.org/2000/svg">
<path fill-rule="evenodd" clip-rule="evenodd" d="M4 4C4 2.89543 4.89543 2 6 2H12.5858C12.6672 2 12.7481 2.00496 12.8281 2.01472C12.8839 2.00504 12.9414 2 13 2C13.3381 2 13.6371 2.16782 13.818 2.4247C13.8816 2.4744 13.9424 2.52815 14 2.58579L19.4142 8C19.4718 8.05763 19.5256 8.11842 19.5753 8.18196C19.8322 8.36295 20 8.66187 20 9C20 9.05862 19.995 9.11607 19.9853 9.17192C19.995 9.25191 20 9.3328 20 9.41421V14C20 14.5523 19.5523 15 19 15C18.4477 15 18 14.5523 18 14V10H14C12.8954 10 12 9.10457 12 8V4L6 4V14C6 14.5523 5.55228 15 5 15C4.44772 15 4 14.5523 4 14V4ZM14 5.41421V8H16.5858L14 5.41421Z" fill="#777B92"/>
<path fill-rule="evenodd" clip-rule="evenodd" d="M4.80958 17.1522C4.71892 17.0615 4.67358 16.9548 4.67358 16.8322V16.6162C4.67358 16.4935 4.71892 16.3868 4.80958 16.2962C4.90025 16.2055 5.00692 16.1602 5.12958 16.1602H8.69758C8.82025 16.1602 8.92692 16.2055 9.01758 16.2962C9.10825 16.3868 9.15358 16.4935 9.15358 16.6162V16.8322C9.15358 16.9548 9.10825 17.0615 9.01758 17.1522C8.92692 17.2428 8.82025 17.2882 8.69758 17.2882H7.67358C7.63092 17.2882 7.60958 17.3095 7.60958 17.3522V21.5442C7.60958 21.6668 7.56425 21.7735 7.47358 21.8642C7.38292 21.9548 7.27625 22.0002 7.15358 22.0002H6.67358C6.55092 22.0002 6.44425 21.9548 6.35358 21.8642C6.26292 21.7735 6.21758 21.6668 6.21758 21.5442V17.3522C6.21758 17.3095 6.19625 17.2882 6.15358 17.2882H5.12958C5.00692 17.2882 4.90025 17.2428 4.80958 17.1522Z" fill="#777B92"/>
<path fill-rule="evenodd" clip-rule="evenodd" d="M9.87821 21.8642C9.82488 21.7735 9.82221 21.6828 9.87021 21.5922L11.1262 19.1042C11.1422 19.0615 11.1422 19.0188 11.1262 18.9762L9.91021 16.5682C9.86221 16.4775 9.86488 16.3868 9.91821 16.2962C9.97154 16.2055 10.0515 16.1602 10.1582 16.1602H10.7422C10.8809 16.1602 11.0062 16.1975 11.1182 16.2722C11.2355 16.3468 11.3209 16.4482 11.3742 16.5762L12.0702 18.2482C12.0702 18.2535 12.0729 18.2562 12.0782 18.2562C12.0835 18.2562 12.0862 18.2535 12.0862 18.2482L12.7822 16.5762C12.8355 16.4482 12.9182 16.3468 13.0302 16.2722C13.1475 16.1975 13.2755 16.1602 13.4142 16.1602H13.9662C14.0675 16.1602 14.1449 16.2055 14.1982 16.2962C14.2569 16.3868 14.2622 16.4775 14.2142 16.5682L12.9982 18.9762C12.9822 19.0188 12.9822 19.0615 12.9982 19.1042L14.2542 21.5922C14.3022 21.6828 14.2969 21.7735 14.2382 21.8642C14.1849 21.9548 14.1075 22.0002 14.0062 22.0002H13.3902C13.2515 22.0002 13.1262 21.9628 13.0142 21.8882C12.9022 21.8082 12.8195 21.7042 12.7662 21.5762L12.0542 19.8322C12.0542 19.8268 12.0515 19.8242 12.0462 19.8242C12.0409 19.8242 12.0382 19.8268 12.0382 19.8322L11.3262 21.5762C11.2729 21.7042 11.1875 21.8082 11.0702 21.8882C10.9582 21.9628 10.8355 22.0002 10.7022 22.0002H10.1182C10.0115 22.0002 9.93154 21.9548 9.87821 21.8642Z" fill="#777B92"/>
<path fill-rule="evenodd" clip-rule="evenodd" d="M15.3015 17.2882C15.1788 17.2882 15.0721 17.2428 14.9815 17.1522C14.8908 17.0615 14.8455 16.9548 14.8455 16.8322V16.6162C14.8455 16.4935 14.8908 16.3868 14.9815 16.2962C15.0721 16.2055 15.1788 16.1602 15.3015 16.1602H18.8695C18.9921 16.1602 19.0988 16.2055 19.1895 16.2962C19.2801 16.3868 19.3255 16.4935 19.3255 16.6162V16.8322C19.3255 16.9548 19.2801 17.0615 19.1895 17.1522C19.0988 17.2428 18.9921 17.2882 18.8695 17.2882H17.8455C17.8028 17.2882 17.7815 17.3095 17.7815 17.3522V21.5442C17.7815 21.6668 17.7361 21.7735 17.6455 21.8642C17.5548 21.9548 17.4481 22.0002 17.3255 22.0002H16.8455C16.7228 22.0002 16.6161 21.9548 16.5255 21.8642C16.4348 21.7735 16.3895 21.6668 16.3895 21.5442V17.3522C16.3895 17.3095 16.3681 17.2882 16.3255 17.2882H15.3015Z" fill="#777B92"/>
</svg>
