<svg width="24" height="24" viewBox="0 0 24 24" fill="none" xmlns="http://www.w3.org/2000/svg">
<path d="M4 3H8.58579C9.11622 3 9.62493 3.21071 10 3.58579L12.4142 6H20C21.1046 6 22 6.89543 22 8V18C22 19.1046 21.1046 20 20 20H12C11.4477 20 11 19.5523 11 19C11 18.4477 11.4477 18 12 18H20V8H12.4142C11.8838 8 11.3751 7.78929 11 7.41421L8.58579 5H4V10C4 10.5523 3.55228 11 3 11C2.44772 11 2 10.5523 2 10V5C2 3.89543 2.89543 3 4 3Z" fill="#777B92"/>
<path d="M2 14C2 13.4477 2.44772 13 3 13H8C8.55228 13 9 13.4477 9 14V19C9 19.5523 8.55228 20 8 20C7.44772 20 7 19.5523 7 19V16.4142L3.70711 19.7071C3.31658 20.0976 2.68342 20.0976 2.29289 19.7071C1.90237 19.3166 1.90237 18.6834 2.29289 18.2929L5.58579 15H3C2.44772 15 2 14.5523 2 14Z" fill="#777B92"/>
</svg>
