<svg width="24" height="24" viewBox="0 0 24 24" fill="none" xmlns="http://www.w3.org/2000/svg">
<path fill-rule="evenodd" clip-rule="evenodd" d="M15.7071 12.7071L12.7071 15.7071C12.3166 16.0976 11.6834 16.0976 11.2929 15.7071L8.29289 12.7071C7.90237 12.3166 7.90237 11.6834 8.29289 11.2929C8.68342 10.9024 9.31658 10.9024 9.70711 11.2929L11 12.5858V5C11 4.44771 11.4477 4 12 4C12.5523 4 13 4.44771 13 5V12.5858L14.2929 11.2929C14.6834 10.9024 15.3166 10.9024 15.7071 11.2929C16.0976 11.6834 16.0976 12.3166 15.7071 12.7071Z" fill="#777B92"/>
<path fill-rule="evenodd" clip-rule="evenodd" d="M6 17V18H18V17C18 16.4477 18.4477 16 19 16C19.5523 16 20 16.4477 20 17V18C20 19.1046 19.1046 20 18 20H6C4.89543 20 4 19.1046 4 18V17C4 16.4477 4.44772 16 5 16C5.55228 16 6 16.4477 6 17Z" fill="#777B92"/>
</svg>
