<svg width="24" height="24" viewBox="0 0 24 24" fill="none" xmlns="http://www.w3.org/2000/svg">
<path fill-rule="evenodd" clip-rule="evenodd" d="M6.51821 9C5.3154 9 4.42733 8.67347 3.85399 8.02041C3.28466 7.36735 3 6.35217 3 4.97488C3 2.32496 4.19078 1 6.57234 1C6.89709 1 7.23388 1.03349 7.58269 1.10047C7.93151 1.16745 8.22219 1.26164 8.45473 1.38305C8.69128 1.50026 8.80956 1.63213 8.80956 1.77865C8.80956 1.88331 8.76946 2.02145 8.68928 2.19309C8.60909 2.36054 8.51286 2.50916 8.4006 2.63893C8.29235 2.76871 8.19612 2.83359 8.11193 2.83359C8.09188 2.83359 8.03776 2.81266 7.94955 2.7708C7.7571 2.68707 7.55463 2.618 7.34213 2.56358C7.13365 2.50497 6.86702 2.47567 6.54227 2.47567C5.9128 2.47567 5.44571 2.68498 5.141 3.10361C4.84029 3.51805 4.68994 4.146 4.68994 4.98744C4.68994 5.82889 4.8423 6.46311 5.14701 6.89011C5.45172 7.31711 5.90879 7.53061 6.51821 7.53061C6.83495 7.53061 7.10959 7.49712 7.34213 7.43014C7.57868 7.36316 7.80922 7.27734 8.03375 7.17268C8.04577 7.1685 8.08186 7.15385 8.142 7.12873C8.20214 7.09942 8.24624 7.08477 8.27431 7.08477C8.37855 7.08477 8.47878 7.14966 8.57501 7.27944C8.67123 7.40502 8.74942 7.54945 8.80956 7.71272C8.8697 7.87179 8.89977 7.98692 8.89977 8.05808C8.89977 8.26321 8.76746 8.43694 8.50284 8.57928C8.24223 8.72161 7.92549 8.82836 7.55262 8.89953C7.18376 8.96651 6.83896 9 6.51821 9Z" fill="#777B92"/>
<path fill-rule="evenodd" clip-rule="evenodd" d="M11.8948 9C11.3896 9 10.9445 8.94767 10.5596 8.84301C10.1788 8.73417 9.88607 8.6023 9.68159 8.44741C9.48112 8.29252 9.38089 8.146 9.38089 8.00785C9.38089 7.89901 9.41898 7.76504 9.49516 7.60597C9.57534 7.44689 9.66956 7.31083 9.77781 7.1978C9.88607 7.08059 9.97628 7.02198 10.0484 7.02198C10.0925 7.02198 10.1868 7.06175 10.3311 7.14129C10.5476 7.2585 10.7521 7.35269 10.9445 7.42386C11.141 7.49503 11.3655 7.53061 11.6181 7.53061C11.8988 7.53061 12.1353 7.4741 12.3278 7.36107C12.5242 7.24385 12.6225 7.04082 12.6225 6.75196C12.6225 6.58451 12.5723 6.44008 12.4721 6.31868C12.3719 6.19728 12.2436 6.09471 12.0872 6.01099C11.9308 5.92726 11.7183 5.82889 11.4497 5.71586L10.9746 5.50235C10.6859 5.35583 10.4374 5.19466 10.2289 5.01884C10.0244 4.84301 9.856 4.61068 9.72369 4.32182C9.59539 4.03297 9.53124 3.67923 9.53124 3.2606C9.53124 2.74987 9.65152 2.32496 9.89208 1.98587C10.1326 1.64678 10.4454 1.3977 10.8303 1.23862C11.2152 1.07954 11.6281 1 12.0692 1C12.43 1 12.7568 1.03977 13.0494 1.11931C13.3421 1.19466 13.5707 1.29304 13.735 1.41444C13.9034 1.53585 13.9876 1.65725 13.9876 1.77865C13.9876 1.87912 13.9556 2.0089 13.8914 2.16797C13.8313 2.32287 13.7551 2.45892 13.6629 2.57614C13.5707 2.69335 13.4845 2.75196 13.4043 2.75196C13.3682 2.75196 13.304 2.73103 13.2118 2.68917C13.0635 2.62637 12.9131 2.57614 12.7608 2.53846C12.6124 2.4966 12.43 2.47567 12.2135 2.47567C11.8406 2.47567 11.582 2.53846 11.4377 2.66405C11.2934 2.78545 11.2212 2.92988 11.2212 3.09733C11.2212 3.2899 11.2693 3.45107 11.3655 3.58085C11.4658 3.71062 11.59 3.81737 11.7384 3.9011C11.8907 3.98482 12.1012 4.08111 12.3699 4.18995C12.7748 4.36996 13.1056 4.5416 13.3622 4.70487C13.6188 4.86395 13.8393 5.09419 14.0237 5.3956C14.2122 5.69702 14.3064 6.08216 14.3064 6.55102C14.3064 7.12454 14.1901 7.5955 13.9576 7.96389C13.729 8.3281 13.4323 8.59184 13.0675 8.7551C12.7066 8.91837 12.3157 9 11.8948 9Z" fill="#777B92"/>
<path fill-rule="evenodd" clip-rule="evenodd" d="M17.5058 8.92465C17.3334 8.92465 17.1971 8.9079 17.0969 8.87441C16.9967 8.83673 16.9345 8.77603 16.9105 8.69231L14.6011 1.51491C14.569 1.41444 14.553 1.34746 14.553 1.31397C14.553 1.14652 14.7715 1.06279 15.2085 1.06279H15.5573C15.9141 1.06279 16.1246 1.17373 16.1888 1.3956L17.6321 6.22449L17.7524 6.61381H17.7945L17.9148 6.22449L19.3943 1.3956C19.4664 1.17373 19.6789 1.06279 20.0317 1.06279H20.3565C20.7855 1.06279 21 1.14652 21 1.31397C21 1.38932 20.988 1.45631 20.9639 1.51491L18.6545 8.69231C18.6305 8.77603 18.5663 8.83673 18.4621 8.87441C18.3618 8.9079 18.2275 8.92465 18.0591 8.92465H17.5058Z" fill="#777B92"/>
<path fill-rule="evenodd" clip-rule="evenodd" d="M15.7071 19.7071L12.7071 22.7071C12.3166 23.0976 11.6834 23.0976 11.2929 22.7071L8.29289 19.7071C7.90237 19.3166 7.90237 18.6834 8.29289 18.2929C8.68342 17.9024 9.31658 17.9024 9.70711 18.2929L11 19.5858V14C11 13.4477 11.4477 13 12 13C12.5523 13 13 13.4477 13 14V19.5858L14.2929 18.2929C14.6834 17.9024 15.3166 17.9024 15.7071 18.2929C16.0976 18.6834 16.0976 19.3166 15.7071 19.7071Z" fill="#777B92"/>
</svg>
