<svg width="24" height="24" viewBox="0 0 24 24" fill="none" xmlns="http://www.w3.org/2000/svg">
<path fill-rule="evenodd" clip-rule="evenodd" d="M11 8H13C14.6569 8 16 9.34315 16 11C16 12.6569 14.6569 14 13 14H11V15C11 15.5523 10.5523 16 10 16C9.44772 16 9 15.5523 9 15V10C9 8.89543 9.89543 8 11 8ZM13 12C13.5523 12 14 11.5523 14 11C14 10.4477 13.5523 10 13 10H11V12H13Z" fill="#777B92"/>
<path fill-rule="evenodd" clip-rule="evenodd" d="M4 2H20C21.1046 2 22 2.89543 22 4V20C22 21.1046 21.1046 22 20 22H4C2.89543 22 2 21.1046 2 20V4C2 2.89543 2.89543 2 4 2ZM4 4V20H20V4L4 4Z" fill="#777B92"/>
</svg>
