<svg width="16" height="16" viewBox="0 0 16 16" fill="none" xmlns="http://www.w3.org/2000/svg">
<path fill-rule="evenodd" clip-rule="evenodd" d="M8 0.5C8.27614 0.5 8.5 0.723858 8.5 1V3C8.5 3.27614 8.27614 3.5 8 3.5C7.72386 3.5 7.5 3.27614 7.5 3V1C7.5 0.723858 7.72386 0.5 8 0.5Z" fill="#777B92"/>
<path fill-rule="evenodd" clip-rule="evenodd" d="M5.5 8C5.5 6.61929 6.61929 5.5 8 5.5C9.38071 5.5 10.5 6.61929 10.5 8C10.5 9.38071 9.38071 10.5 8 10.5C6.61929 10.5 5.5 9.38071 5.5 8ZM8 6.5C7.17157 6.5 6.5 7.17157 6.5 8C6.5 8.82843 7.17157 9.5 8 9.5C8.82843 9.5 9.5 8.82843 9.5 8C9.5 7.17157 8.82843 6.5 8 6.5Z" fill="#777B92"/>
<path fill-rule="evenodd" clip-rule="evenodd" d="M8.5 13V15C8.5 15.2761 8.27614 15.5 8 15.5C7.72386 15.5 7.5 15.2761 7.5 15V13C7.5 12.7239 7.72386 12.5 8 12.5C8.27614 12.5 8.5 12.7239 8.5 13Z" fill="#777B92"/>
<path fill-rule="evenodd" clip-rule="evenodd" d="M0.5 8C0.5 7.72386 0.723858 7.5 1 7.5H3C3.27614 7.5 3.5 7.72386 3.5 8C3.5 8.27614 3.27614 8.5 3 8.5H1C0.723858 8.5 0.5 8.27614 0.5 8Z" fill="#777B92"/>
<path fill-rule="evenodd" clip-rule="evenodd" d="M13 7.5H15C15.2761 7.5 15.5 7.72386 15.5 8C15.5 8.27614 15.2761 8.5 15 8.5H13C12.7239 8.5 12.5 8.27614 12.5 8C12.5 7.72386 12.7239 7.5 13 7.5Z" fill="#777B92"/>
<path fill-rule="evenodd" clip-rule="evenodd" d="M13.8536 2.14645C14.0488 2.34171 14.0488 2.65829 13.8536 2.85355L12.3536 4.35355C12.1583 4.54882 11.8417 4.54882 11.6464 4.35355C11.4512 4.15829 11.4512 3.84171 11.6464 3.64645L13.1464 2.14645C13.3417 1.95118 13.6583 1.95118 13.8536 2.14645Z" fill="#777B92"/>
<path fill-rule="evenodd" clip-rule="evenodd" d="M2.85355 2.14645L4.35355 3.64645C4.54882 3.84171 4.54882 4.15829 4.35355 4.35355C4.15829 4.54882 3.84171 4.54882 3.64645 4.35355L2.14645 2.85355C1.95118 2.65829 1.95118 2.34171 2.14645 2.14645C2.34171 1.95118 2.65829 1.95118 2.85355 2.14645Z" fill="#777B92"/>
<path fill-rule="evenodd" clip-rule="evenodd" d="M11.6464 11.6464C11.8417 11.4512 12.1583 11.4512 12.3536 11.6464L13.8536 13.1464C14.0488 13.3417 14.0488 13.6583 13.8536 13.8536C13.6583 14.0488 13.3417 14.0488 13.1464 13.8536L11.6464 12.3536C11.4512 12.1583 11.4512 11.8417 11.6464 11.6464Z" fill="#777B92"/>
<path fill-rule="evenodd" clip-rule="evenodd" d="M4.35355 12.3536L2.85355 13.8536C2.65829 14.0488 2.34171 14.0488 2.14645 13.8536C1.95118 13.6583 1.95118 13.3417 2.14645 13.1464L3.64645 11.6464C3.84171 11.4512 4.15829 11.4512 4.35355 11.6464C4.54882 11.8417 4.54882 12.1583 4.35355 12.3536Z" fill="#777B92"/>
</svg>
