<svg width="16" height="16" viewBox="0 0 16 16" fill="none" xmlns="http://www.w3.org/2000/svg">
<path fill-rule="evenodd" clip-rule="evenodd" d="M9.5 3.41414V5.99993C9.5 6.27607 9.72386 6.49993 10 6.49993H14C14.8284 6.49993 15.5 7.1715 15.5 7.99993V9.80734C15.5 9.99817 15.4636 10.1873 15.3927 10.3644L13.7157 14.557C13.4879 15.1265 12.9363 15.4999 12.323 15.4999H5C4.17157 15.4999 3.5 14.8284 3.5 13.9999V6.41414C3.5 6.01632 3.65803 5.63478 3.93934 5.35348L6.93934 2.35348C7.88429 1.40853 9.5 2.07778 9.5 3.41414ZM7.64645 3.06059L4.64645 6.06059C4.55268 6.15435 4.5 6.28153 4.5 6.41414V13.9999C4.5 14.2761 4.72386 14.4999 5 14.4999H12.323C12.5274 14.4999 12.7113 14.3755 12.7872 14.1856L14.4642 9.99304C14.4879 9.93398 14.5 9.87095 14.5 9.80734V7.99993C14.5 7.72378 14.2761 7.49993 14 7.49993H10C9.17157 7.49993 8.5 6.82835 8.5 5.99993V3.41414C8.5 2.96869 7.96143 2.7456 7.64645 3.06059Z" fill="#777B92"/>
<path fill-rule="evenodd" clip-rule="evenodd" d="M1.5 6V15C1.5 15.2761 1.27614 15.5 1 15.5C0.723858 15.5 0.5 15.2761 0.5 15V6C0.5 5.72386 0.723858 5.5 1 5.5C1.27614 5.5 1.5 5.72386 1.5 6Z" fill="#777B92"/>
</svg>
