<svg width="16" height="16" viewBox="0 0 16 16" fill="none" xmlns="http://www.w3.org/2000/svg">
<path fill-rule="evenodd" clip-rule="evenodd" d="M3.67703 0.5H11C11.8284 0.5 12.5 1.17157 12.5 2V9.58579C12.5 9.98361 12.342 10.3651 12.0607 10.6464L9.06066 13.6464C8.11571 14.5914 6.5 13.9221 6.5 12.5858V10C6.5 9.72386 6.27614 9.5 6 9.5H2C1.17157 9.5 0.5 8.82843 0.5 8V6.19258C0.5 6.00175 0.536414 5.81268 0.607285 5.6355L2.28432 1.44291C2.51211 0.873427 3.06367 0.5 3.67703 0.5ZM3.21279 1.8143L1.53576 6.00689C1.51214 6.06595 1.5 6.12897 1.5 6.19258V8C1.5 8.27614 1.72386 8.5 2 8.5H6C6.82843 8.5 7.5 9.17157 7.5 10V12.5858C7.5 13.0312 8.03857 13.2543 8.35355 12.9393L11.3536 9.93934C11.4473 9.84557 11.5 9.71839 11.5 9.58579V2C11.5 1.72386 11.2761 1.5 11 1.5H3.67703C3.47258 1.5 3.28873 1.62448 3.21279 1.8143Z" fill="#777B92"/>
<path fill-rule="evenodd" clip-rule="evenodd" d="M15.5 1V10C15.5 10.2761 15.2761 10.5 15 10.5C14.7239 10.5 14.5 10.2761 14.5 10V1C14.5 0.723858 14.7239 0.5 15 0.5C15.2761 0.5 15.5 0.723858 15.5 1Z" fill="#777B92"/>
</svg>
