<svg width="22" height="22" viewBox="0 0 22 22" fill="none" xmlns="http://www.w3.org/2000/svg">
<path d="M12.4086 10.9991L16.7045 6.71268C16.8926 6.52453 16.9983 6.26935 16.9983 6.00326C16.9983 5.73718 16.8926 5.482 16.7045 5.29385C16.5164 5.1057 16.2612 5 15.9952 5C15.7291 5 15.474 5.1057 15.2859 5.29385L11 9.59031L6.71414 5.29385C6.52602 5.1057 6.27087 5 6.00483 5C5.73878 5 5.48363 5.1057 5.29551 5.29385C5.10739 5.482 5.0017 5.73718 5.0017 6.00326C5.0017 6.26935 5.10739 6.52453 5.29551 6.71268L9.59136 10.9991L5.29551 15.2856C5.20187 15.3785 5.12755 15.489 5.07683 15.6108C5.02611 15.7325 5 15.8631 5 15.995C5 16.1269 5.02611 16.2575 5.07683 16.3793C5.12755 16.501 5.20187 16.6116 5.29551 16.7044C5.38839 16.7981 5.49888 16.8724 5.62062 16.9232C5.74236 16.9739 5.87294 17 6.00483 17C6.13671 17 6.26729 16.9739 6.38903 16.9232C6.51077 16.8724 6.62127 16.7981 6.71414 16.7044L11 12.408L15.2859 16.7044C15.3787 16.7981 15.4892 16.8724 15.611 16.9232C15.7327 16.9739 15.8633 17 15.9952 17C16.1271 17 16.2576 16.9739 16.3794 16.9232C16.5011 16.8724 16.6116 16.7981 16.7045 16.7044C16.7981 16.6116 16.8724 16.501 16.9232 16.3793C16.9739 16.2575 17 16.1269 17 15.995C17 15.8631 16.9739 15.7325 16.9232 15.6108C16.8724 15.489 16.7981 15.3785 16.7045 15.2856L12.4086 10.9991Z" fill="#97A3BA"/>
</svg>
