<svg width="22" height="22" viewBox="0 0 22 22" fill="none" xmlns="http://www.w3.org/2000/svg">
<path d="M11 1C9.02219 1 7.08879 1.58649 5.4443 2.6853C3.79981 3.78412 2.51809 5.3459 1.76121 7.17317C1.00433 9.00043 0.806299 11.0111 1.19215 12.9509C1.578 14.8907 2.53041 16.6725 3.92894 18.0711C5.32746 19.4696 7.10929 20.422 9.0491 20.8079C10.9889 21.1937 12.9996 20.9957 14.8268 20.2388C16.6541 19.4819 18.2159 18.2002 19.3147 16.5557C20.4135 14.9112 21 12.9778 21 11C21 9.68678 20.7413 8.38642 20.2388 7.17317C19.7363 5.95991 18.9997 4.85752 18.0711 3.92893C17.1425 3.00035 16.0401 2.26375 14.8268 1.7612C13.6136 1.25866 12.3132 1 11 1ZM19 11C19.0022 12.7767 18.407 14.5025 17.31 15.9L6.1 4.69C7.49755 3.59302 9.22335 2.99779 11 3C13.1217 3 15.1566 3.84285 16.6569 5.34315C18.1572 6.84344 19 8.87827 19 11ZM3 11C2.9978 9.22334 3.59302 7.49755 4.69 6.1L15.9 17.31C14.5025 18.407 12.7767 19.0022 11 19C8.87827 19 6.84344 18.1571 5.34315 16.6569C3.84286 15.1566 3 13.1217 3 11Z" fill="#97A3BA"/>
</svg>
