<svg width="24" height="24" viewBox="0 0 24 24" fill="none" xmlns="http://www.w3.org/2000/svg">
<path fill-rule="evenodd" clip-rule="evenodd" d="M14.7071 7.29289C15.0976 7.68342 15.0976 8.31658 14.7071 8.70711L13.4142 10L14.7071 11.2929C15.0976 11.6834 15.0976 12.3166 14.7071 12.7071C14.3166 13.0976 13.6834 13.0976 13.2929 12.7071L12 11.4142L10.7071 12.7071C10.3166 13.0976 9.68342 13.0976 9.29289 12.7071C8.90237 12.3166 8.90237 11.6834 9.29289 11.2929L10.5858 10L9.29289 8.70711C8.90237 8.31658 8.90237 7.68342 9.29289 7.29289C9.68342 6.90237 10.3166 6.90237 10.7071 7.29289L12 8.58579L13.2929 7.29289C13.6834 6.90237 14.3166 6.90237 14.7071 7.29289Z" fill="#777B92"/>
<path fill-rule="evenodd" clip-rule="evenodd" d="M4 4C4 2.89543 4.89543 2 6 2L18 2C19.1046 2 20 2.89543 20 4V14.5401C20 15.1239 19.7449 15.6786 19.3016 16.0586L13.3016 21.2014C12.5526 21.8434 11.4474 21.8434 10.6984 21.2014L4.69842 16.0586C4.25513 15.6786 4 15.1239 4 14.5401L4 4ZM18 14.5401V4L6 4L6 14.5401L12 19.6829L18 14.5401Z" fill="#777B92"/>
</svg>
