<svg width="22" height="22" viewBox="0 0 22 22" fill="none" xmlns="http://www.w3.org/2000/svg">
<path fill-rule="evenodd" clip-rule="evenodd" d="M5.4443 2.6853C7.08879 1.58649 9.02219 1 11 1C12.3132 1 13.6136 1.25866 14.8268 1.7612C16.0401 2.26375 17.1425 3.00035 18.0711 3.92893C18.9997 4.85752 19.7363 5.95991 20.2388 7.17317C20.7413 8.38642 21 9.68678 21 11C21 12.9778 20.4135 14.9112 19.3147 16.5557C18.2159 18.2002 16.6541 19.4819 14.8268 20.2388C12.9996 20.9957 10.9889 21.1937 9.0491 20.8079C7.10929 20.422 5.32746 19.4696 3.92894 18.0711C2.53041 16.6725 1.578 14.8907 1.19215 12.9509C0.806299 11.0111 1.00433 9.00043 1.76121 7.17317C2.51809 5.3459 3.79981 3.78412 5.4443 2.6853ZM13.38 8.07676C13.5016 8.12743 13.612 8.20168 13.7048 8.29523C13.7983 8.38801 13.8726 8.4984 13.9232 8.62002C13.9739 8.74165 14 8.8721 14 9.00386C14 9.13562 13.9739 9.26607 13.9232 9.38769C13.8726 9.50932 13.7983 9.61971 13.7048 9.71249L12.4073 11L13.7048 12.2875C13.7983 12.3803 13.8726 12.4907 13.9232 12.6123C13.9739 12.7339 14 12.8644 14 12.9961C14 13.1279 13.9739 13.2584 13.9232 13.38C13.8726 13.5016 13.7983 13.612 13.7048 13.7048C13.612 13.7983 13.5016 13.8726 13.38 13.9232C13.2584 13.9739 13.1279 14 12.9961 14C12.8644 14 12.7339 13.9739 12.6123 13.9232C12.4907 13.8726 12.3803 13.7983 12.2875 13.7048L11 12.4073L9.71249 13.7048C9.61971 13.7983 9.50932 13.8726 9.38769 13.9232C9.26607 13.9739 9.13562 14 9.00386 14C8.8721 14 8.74165 13.9739 8.62002 13.9232C8.4984 13.8726 8.38801 13.7983 8.29523 13.7048C8.20168 13.612 8.12743 13.5016 8.07676 13.38C8.02609 13.2584 8 13.1279 8 12.9961C8 12.8644 8.02609 12.7339 8.07676 12.6123C8.12743 12.4907 8.20168 12.3803 8.29523 12.2875L9.59272 11L8.29523 9.71249C8.10729 9.52455 8.0017 9.26965 8.0017 9.00386C8.0017 8.73807 8.10729 8.48317 8.29523 8.29523C8.48317 8.10729 8.73807 8.0017 9.00386 8.0017C9.26965 8.0017 9.52455 8.10729 9.71249 8.29523L11 9.59272L12.2875 8.29523C12.3803 8.20168 12.4907 8.12743 12.6123 8.07676C12.7339 8.02609 12.8644 8 12.9961 8C13.1279 8 13.2584 8.02609 13.38 8.07676Z" fill="#97A3BA"/>
</svg>
