<svg width="22" height="22" viewBox="0 0 22 22" fill="none" xmlns="http://www.w3.org/2000/svg">
<path fill-rule="evenodd" clip-rule="evenodd" d="M5 2H17C17.7956 2 18.5587 2.31607 19.1213 2.87868C19.6839 3.44129 20 4.20435 20 5V17C20 17.7956 19.6839 18.5587 19.1213 19.1213C18.5587 19.6839 17.7956 20 17 20H5C4.20435 20 3.44129 19.6839 2.87868 19.1213C2.31607 18.5587 2 17.7956 2 17V5C2 4.20435 2.31607 3.44129 2.87868 2.87868C3.44129 2.31607 4.20435 2 5 2ZM13.38 8.07676C13.5016 8.12743 13.612 8.20168 13.7048 8.29523C13.7983 8.38801 13.8726 8.4984 13.9232 8.62002C13.9739 8.74165 14 8.8721 14 9.00386C14 9.13562 13.9739 9.26607 13.9232 9.38769C13.8726 9.50932 13.7983 9.6197 13.7048 9.71249L12.4073 11L13.7048 12.2875C13.7983 12.3803 13.8726 12.4907 13.9232 12.6123C13.9739 12.7339 14 12.8644 14 12.9961C14 13.1279 13.9739 13.2584 13.9232 13.38C13.8726 13.5016 13.7983 13.612 13.7048 13.7048C13.612 13.7983 13.5016 13.8726 13.38 13.9232C13.2584 13.9739 13.1279 14 12.9961 14C12.8644 14 12.7339 13.9739 12.6123 13.9232C12.4907 13.8726 12.3803 13.7983 12.2875 13.7048L11 12.4073L9.71249 13.7048C9.6197 13.7983 9.50932 13.8726 9.38769 13.9232C9.26607 13.9739 9.13562 14 9.00386 14C8.8721 14 8.74165 13.9739 8.62002 13.9232C8.4984 13.8726 8.38801 13.7983 8.29523 13.7048C8.20168 13.612 8.12743 13.5016 8.07676 13.38C8.02609 13.2584 8 13.1279 8 12.9961C8 12.8644 8.02609 12.7339 8.07676 12.6123C8.12743 12.4907 8.20168 12.3803 8.29523 12.2875L9.59272 11L8.29523 9.71249C8.10729 9.52455 8.0017 9.26965 8.0017 9.00386C8.0017 8.73807 8.10729 8.48317 8.29523 8.29523C8.48317 8.10729 8.73807 8.0017 9.00386 8.0017C9.26965 8.0017 9.52455 8.10729 9.71249 8.29523L11 9.59272L12.2875 8.29523C12.3803 8.20168 12.4907 8.12743 12.6123 8.07676C12.7339 8.02609 12.8644 8 12.9961 8C13.1279 8 13.2584 8.02609 13.38 8.07676Z" fill="#97A3BA"/>
</svg>
