<svg width="22" height="22" viewBox="0 0 22 22" fill="none" xmlns="http://www.w3.org/2000/svg">
<path d="M9.00083 14H4.00497C3.73997 14 3.48583 14.1053 3.29844 14.2927C3.11106 14.48 3.00579 14.7342 3.00579 14.9992C3.00579 15.2642 3.11106 15.5183 3.29844 15.7057C3.48583 15.8931 3.73997 15.9983 4.00497 15.9983H6.57284L3.29555 19.2856C3.2019 19.3785 3.12757 19.489 3.07684 19.6108C3.02612 19.7325 3 19.8631 3 19.995C3 20.1269 3.02612 20.2575 3.07684 20.3793C3.12757 20.5011 3.2019 20.6116 3.29555 20.7044C3.38844 20.7981 3.49895 20.8724 3.62071 20.9232C3.74247 20.9739 3.87306 21 4.00497 21C4.13687 21 4.26747 20.9739 4.38922 20.9232C4.51098 20.8724 4.62149 20.7981 4.71438 20.7044L8.00166 17.4172V19.995C8.00166 20.26 8.10693 20.5142 8.29431 20.7016C8.48169 20.8889 8.73583 20.9942 9.00083 20.9942C9.26582 20.9942 9.51997 20.8889 9.70735 20.7016C9.89473 20.5142 10 20.26 10 19.995V14.9992C10 14.7342 9.89473 14.48 9.70735 14.2927C9.51997 14.1053 9.26582 14 9.00083 14Z" fill="#7887A5"/>
<path fill-rule="evenodd" clip-rule="evenodd" d="M13.3 1.33018L18.74 7.33018C18.9067 7.51358 18.9994 7.75234 19 8.00018V18.5002C18.9961 18.8324 18.9268 19.1607 18.796 19.4661C18.6652 19.7716 18.4755 20.0483 18.2378 20.2804C18.0001 20.5126 17.719 20.6956 17.4105 20.8191C17.102 20.9426 16.7723 21.0041 16.44 21.0002H13C12.4477 21.0002 12 20.5525 12 20.0002V20.0002C12 19.4479 12.4477 19.0002 13 19.0002H16.44C16.5096 19.0042 16.5794 18.9945 16.6452 18.9715C16.7111 18.9486 16.7718 18.9129 16.8238 18.8664C16.8758 18.82 16.9182 18.7637 16.9484 18.7009C16.9786 18.638 16.9962 18.5698 17 18.5002V10.0002H12.71C11.9735 9.97923 11.2752 9.6678 10.7675 9.13385C10.2598 8.59991 9.98386 7.8868 10 7.15018V3.00018H5.56C5.49037 2.99613 5.42063 3.00586 5.35477 3.02881C5.28892 3.05176 5.22824 3.08749 5.17621 3.13394C5.12419 3.18039 5.08184 3.23665 5.0516 3.2995C5.02137 3.36234 5.00383 3.43054 5 3.50018V11C5 11.5523 4.55228 12 4 12V12C3.44772 12 3 11.5523 3 11V3.50018C3.00392 3.16793 3.07324 2.8397 3.20402 2.53425C3.33479 2.22879 3.52446 1.95209 3.76218 1.71993C3.9999 1.48778 4.28103 1.30473 4.5895 1.18124C4.89797 1.05774 5.22775 0.996217 5.56 1.00018H12.56C12.6995 1.00051 12.8375 1.03004 12.9649 1.08688C13.0924 1.14371 13.2065 1.22659 13.3 1.33018ZM12.71 8.00018H16.65L12.11 3.00018H12V7.15018C11.9833 7.35666 12.0483 7.56144 12.1811 7.72043C12.3139 7.87942 12.5038 7.97988 12.71 8.00018Z" fill="#7887A5"/>
</svg>
