<svg width="24" height="24" viewBox="0 0 24 24" fill="none" xmlns="http://www.w3.org/2000/svg">
<path fill-rule="evenodd" clip-rule="evenodd" d="M7 11H15C15.5523 11 16 11.4477 16 12C16 12.5523 15.5523 13 15 13H7C6.44772 13 6 12.5523 6 12C6 11.4477 6.44772 11 7 11Z" fill="#777B92"/>
<path fill-rule="evenodd" clip-rule="evenodd" d="M6 18C6 17.4477 6.44772 17 7 17H11C11.5523 17 12 17.4477 12 18C12 18.5523 11.5523 19 11 19H7C6.44772 19 6 18.5523 6 18Z" fill="#777B92"/>
<path fill-rule="evenodd" clip-rule="evenodd" d="M5 2H18.6126C19.9777 2 20.9416 3.33739 20.5099 4.63246L20.0541 6L20.5099 7.36754C20.6037 7.64868 20.6316 7.93181 20.6039 8.20282C20.9364 8.45451 21.088 8.89896 20.9488 9.3165L20.0542 12.0003L20.9488 14.684C21.088 15.1016 20.9364 15.546 20.604 15.7977C20.6316 16.0685 20.6036 16.3515 20.5099 16.6325L20.0541 18L20.5099 19.3675C20.9416 20.6626 19.9777 22 18.6126 22H5C3.89543 22 3 21.1046 3 20V16C3 15.6357 3.09739 15.2942 3.26757 15C3.09739 14.7058 3 14.3643 3 14V10C3 9.63571 3.09739 9.29417 3.26757 9C3.09739 8.70583 3 8.36429 3 8V4C3 2.89543 3.89543 2 5 2ZM18.6126 10H5V14H18.6126L18.1568 12.6327C18.02 12.2222 18.02 11.7783 18.1568 11.3678L18.6126 10ZM5 8H18.6126L18.1567 6.63246C18.0199 6.22192 18.0199 5.77808 18.1567 5.36754L18.6126 4H5V8ZM5 20H18.6126L18.1567 18.6325C18.0199 18.2219 18.0199 17.7781 18.1567 17.3675L18.6126 16H5V20Z" fill="#777B92"/>
</svg>
