<svg width="24" height="24" viewBox="0 0 24 24" fill="none" xmlns="http://www.w3.org/2000/svg">
<path fill-rule="evenodd" clip-rule="evenodd" d="M4 4C4 2.89543 4.89543 2 6 2H12.5858C12.6672 2 12.7481 2.00496 12.8281 2.01472C12.8839 2.00504 12.9414 2 13 2C13.3381 2 13.6371 2.16782 13.818 2.4247C13.8816 2.4744 13.9424 2.52815 14 2.58579L19.4142 8C19.4718 8.05763 19.5256 8.11842 19.5753 8.18196C19.8322 8.36295 20 8.66188 20 9C20 9.05862 19.995 9.11607 19.9853 9.17192C19.995 9.25191 20 9.3328 20 9.41421V14C20 14.5523 19.5523 15 19 15C18.4477 15 18 14.5523 18 14V10H14C12.8954 10 12 9.10457 12 8V4L6 4V14C6 14.5523 5.55228 15 5 15C4.44772 15 4 14.5523 4 14V4ZM14 5.41421V8H16.5858L14 5.41421Z" fill="#777B92"/>
<path fill-rule="evenodd" clip-rule="evenodd" d="M3.32563 22.0001C3.20296 22.0001 3.0963 21.9547 3.00563 21.8641C2.91496 21.7734 2.86963 21.6667 2.86963 21.5441V16.6561C2.86963 16.5281 2.9123 16.4134 2.99763 16.3121C3.08296 16.2107 3.18963 16.1547 3.31763 16.1441C3.77096 16.1014 4.2083 16.0801 4.62963 16.0801C6.3363 16.0801 7.18963 16.7147 7.18963 17.9841C7.18963 18.6721 6.98963 19.1947 6.58963 19.5521C6.19496 19.9041 5.61363 20.0801 4.84563 20.0801C4.64296 20.0801 4.45363 20.0721 4.27763 20.0561C4.22963 20.0561 4.20563 20.0774 4.20563 20.1201V21.5441C4.20563 21.6667 4.1603 21.7734 4.06963 21.8641C3.97896 21.9547 3.8723 22.0001 3.74963 22.0001H3.32563ZM4.20563 17.2321V18.9761C4.20563 19.0134 4.22963 19.0374 4.27763 19.0481C4.45896 19.0694 4.60296 19.0801 4.70963 19.0801C5.09363 19.0801 5.38963 18.9921 5.59763 18.8161C5.81096 18.6347 5.91763 18.3841 5.91763 18.0641C5.91763 17.4294 5.51496 17.1121 4.70963 17.1121C4.5763 17.1121 4.42963 17.1254 4.26963 17.1521C4.22696 17.1627 4.20563 17.1894 4.20563 17.2321Z" fill="#777B92"/>
<path fill-rule="evenodd" clip-rule="evenodd" d="M8.45844 22.0001C8.33577 22.0001 8.22911 21.9547 8.13844 21.8641C8.04777 21.7734 8.00244 21.6667 8.00244 21.5441V16.6561C8.00244 16.5281 8.04511 16.4134 8.13044 16.3121C8.21578 16.2107 8.32244 16.1547 8.45044 16.1441C8.90377 16.1014 9.34111 16.0801 9.76244 16.0801C11.4691 16.0801 12.3224 16.7147 12.3224 17.9841C12.3224 18.6721 12.1224 19.1947 11.7224 19.5521C11.3278 19.9041 10.7464 20.0801 9.97844 20.0801C9.77577 20.0801 9.58644 20.0721 9.41044 20.0561C9.36244 20.0561 9.33844 20.0774 9.33844 20.1201V21.5441C9.33844 21.6667 9.29311 21.7734 9.20244 21.8641C9.11177 21.9547 9.00511 22.0001 8.88244 22.0001H8.45844ZM9.33844 17.2321V18.9761C9.33844 19.0134 9.36244 19.0374 9.41044 19.0481C9.59177 19.0694 9.73577 19.0801 9.84244 19.0801C10.2264 19.0801 10.5224 18.9921 10.7304 18.8161C10.9438 18.6347 11.0504 18.3841 11.0504 18.0641C11.0504 17.4294 10.6478 17.1121 9.84244 17.1121C9.70911 17.1121 9.56244 17.1254 9.40244 17.1521C9.35978 17.1627 9.33844 17.1894 9.33844 17.2321Z" fill="#777B92"/>
<path fill-rule="evenodd" clip-rule="evenodd" d="M12.9541 17.1521C12.8634 17.0614 12.8181 16.9547 12.8181 16.8321V16.6161C12.8181 16.4934 12.8634 16.3867 12.9541 16.2961C13.0447 16.2054 13.1514 16.1601 13.2741 16.1601H16.8421C16.9647 16.1601 17.0714 16.2054 17.1621 16.2961C17.2527 16.3867 17.2981 16.4934 17.2981 16.6161V16.8321C17.2981 16.9547 17.2527 17.0614 17.1621 17.1521C17.0714 17.2427 16.9647 17.2881 16.8421 17.2881H15.8181C15.7754 17.2881 15.7541 17.3094 15.7541 17.3521V21.5441C15.7541 21.6667 15.7087 21.7734 15.6181 21.8641C15.5274 21.9547 15.4207 22.0001 15.2981 22.0001H14.8181C14.6954 22.0001 14.5887 21.9547 14.4981 21.8641C14.4074 21.7734 14.3621 21.6667 14.3621 21.5441V17.3521C14.3621 17.3094 14.3407 17.2881 14.2981 17.2881H13.2741C13.1514 17.2881 13.0447 17.2427 12.9541 17.1521Z" fill="#777B92"/>
<path fill-rule="evenodd" clip-rule="evenodd" d="M18.2627 22.0001C18.156 22.0001 18.076 21.9547 18.0227 21.8641C17.9694 21.7734 17.9667 21.6827 18.0147 21.5921L19.2707 19.1041C19.2867 19.0614 19.2867 19.0187 19.2707 18.9761L18.0547 16.5681C18.0067 16.4774 18.0094 16.3867 18.0627 16.2961C18.116 16.2054 18.196 16.1601 18.3027 16.1601H18.8867C19.0254 16.1601 19.1507 16.1974 19.2627 16.2721C19.38 16.3467 19.4654 16.4481 19.5187 16.5761L20.2147 18.2481C20.2147 18.2534 20.2174 18.2561 20.2227 18.2561C20.228 18.2561 20.2307 18.2534 20.2307 18.2481L20.9267 16.5761C20.98 16.4481 21.0627 16.3467 21.1747 16.2721C21.292 16.1974 21.42 16.1601 21.5587 16.1601H22.1107C22.212 16.1601 22.2894 16.2054 22.3427 16.2961C22.4014 16.3867 22.4067 16.4774 22.3587 16.5681L21.1427 18.9761C21.1267 19.0187 21.1267 19.0614 21.1427 19.1041L22.3987 21.5921C22.4467 21.6827 22.4414 21.7734 22.3827 21.8641C22.3294 21.9547 22.252 22.0001 22.1507 22.0001H21.5347C21.396 22.0001 21.2707 21.9627 21.1587 21.8881C21.0467 21.8081 20.964 21.7041 20.9107 21.5761L20.1987 19.8321C20.1987 19.8267 20.196 19.8241 20.1907 19.8241C20.1854 19.8241 20.1827 19.8267 20.1827 19.8321L19.4707 21.5761C19.4174 21.7041 19.332 21.8081 19.2147 21.8881C19.1027 21.9627 18.98 22.0001 18.8467 22.0001H18.2627Z" fill="#777B92"/>
</svg>
