<svg width="24" height="24" viewBox="0 0 24 24" fill="none" xmlns="http://www.w3.org/2000/svg">
<path fill-rule="evenodd" clip-rule="evenodd" d="M4 4C4 2.89543 4.89543 2 6 2H12.5858C12.6672 2 12.7481 2.00496 12.8281 2.01472C12.8839 2.00504 12.9414 2 13 2C13.3381 2 13.6371 2.16782 13.818 2.4247C13.8816 2.4744 13.9424 2.52815 14 2.58579L19.4142 8C19.4718 8.05763 19.5256 8.11842 19.5753 8.18196C19.8322 8.36295 20 8.66187 20 9C20 9.05862 19.995 9.11607 19.9853 9.17192C19.995 9.25191 20 9.3328 20 9.41421V14C20 14.5523 19.5523 15 19 15C18.4477 15 18 14.5523 18 14V10H14C12.8954 10 12 9.10457 12 8V4L6 4V14C6 14.5523 5.55228 15 5 15C4.44772 15 4 14.5523 4 14V4ZM14 5.41421V8H16.5858L14 5.41421Z" fill="#777B92"/>
<path fill-rule="evenodd" clip-rule="evenodd" d="M5.02125 21.8641C4.93059 21.7734 4.88525 21.6667 4.88525 21.5441V16.6561C4.88525 16.5281 4.92792 16.4134 5.01325 16.3121C5.09859 16.2107 5.20525 16.1547 5.33325 16.1441C5.78659 16.1014 6.22392 16.0801 6.64525 16.0801C8.35192 16.0801 9.20525 16.7147 9.20525 17.9841C9.20525 18.6721 9.00525 19.1947 8.60525 19.5521C8.21059 19.9041 7.62925 20.0801 6.86125 20.0801C6.65859 20.0801 6.46925 20.0721 6.29325 20.0561C6.24525 20.0561 6.22125 20.0774 6.22125 20.1201V21.5441C6.22125 21.6667 6.17592 21.7734 6.08525 21.8641C5.99459 21.9547 5.88792 22.0001 5.76525 22.0001H5.34125C5.21859 22.0001 5.11192 21.9547 5.02125 21.8641ZM6.22125 18.9761V17.2321C6.22125 17.1894 6.24259 17.1627 6.28525 17.1521C6.44525 17.1254 6.59192 17.1121 6.72525 17.1121C7.53059 17.1121 7.93325 17.4294 7.93325 18.0641C7.93325 18.3841 7.82659 18.6347 7.61325 18.8161C7.40525 18.9921 7.10925 19.0801 6.72525 19.0801C6.61859 19.0801 6.47459 19.0694 6.29325 19.0481C6.24525 19.0374 6.22125 19.0134 6.22125 18.9761Z" fill="#777B92"/>
<path fill-rule="evenodd" clip-rule="evenodd" d="M10.1541 21.8641C10.0634 21.7734 10.0181 21.6667 10.0181 21.5441V16.6561C10.0181 16.5281 10.0607 16.4134 10.1461 16.3121C10.2314 16.2107 10.3381 16.1547 10.4661 16.1441C10.9194 16.1014 11.3567 16.0801 11.7781 16.0801C13.4847 16.0801 14.3381 16.7147 14.3381 17.9841C14.3381 18.6721 14.1381 19.1947 13.7381 19.5521C13.3434 19.9041 12.7621 20.0801 11.9941 20.0801C11.7914 20.0801 11.6021 20.0721 11.4261 20.0561C11.3781 20.0561 11.3541 20.0774 11.3541 20.1201V21.5441C11.3541 21.6667 11.3087 21.7734 11.2181 21.8641C11.1274 21.9547 11.0207 22.0001 10.8981 22.0001H10.4741C10.3514 22.0001 10.2447 21.9547 10.1541 21.8641ZM11.3541 18.9761V17.2321C11.3541 17.1894 11.3754 17.1627 11.4181 17.1521C11.5781 17.1254 11.7247 17.1121 11.8581 17.1121C12.6634 17.1121 13.0661 17.4294 13.0661 18.0641C13.0661 18.3841 12.9594 18.6347 12.7461 18.8161C12.5381 18.9921 12.2421 19.0801 11.8581 19.0801C11.7514 19.0801 11.6074 19.0694 11.4261 19.0481C11.3781 19.0374 11.3541 19.0134 11.3541 18.9761Z" fill="#777B92"/>
<path fill-rule="evenodd" clip-rule="evenodd" d="M15.2897 17.2881C15.167 17.2881 15.0604 17.2427 14.9697 17.1521C14.879 17.0614 14.8337 16.9547 14.8337 16.8321V16.6161C14.8337 16.4934 14.879 16.3867 14.9697 16.2961C15.0604 16.2054 15.167 16.1601 15.2897 16.1601H18.8577C18.9804 16.1601 19.087 16.2054 19.1777 16.2961C19.2684 16.3867 19.3137 16.4934 19.3137 16.6161V16.8321C19.3137 16.9547 19.2684 17.0614 19.1777 17.1521C19.087 17.2427 18.9804 17.2881 18.8577 17.2881H17.8337C17.791 17.2881 17.7697 17.3094 17.7697 17.3521V21.5441C17.7697 21.6667 17.7244 21.7734 17.6337 21.8641C17.543 21.9547 17.4364 22.0001 17.3137 22.0001H16.8337C16.711 22.0001 16.6044 21.9547 16.5137 21.8641C16.423 21.7734 16.3777 21.6667 16.3777 21.5441V17.3521C16.3777 17.3094 16.3564 17.2881 16.3137 17.2881H15.2897Z" fill="#777B92"/>
</svg>
