<svg width="24" height="24" viewBox="0 0 24 24" fill="none" xmlns="http://www.w3.org/2000/svg">
<path fill-rule="evenodd" clip-rule="evenodd" d="M10 10H14C14.5523 10 15 10.4477 15 11C15 11.5523 14.5523 12 14 12H10C9.44772 12 9 11.5523 9 11C9 10.4477 9.44772 10 10 10Z" fill="#777B92"/>
<path fill-rule="evenodd" clip-rule="evenodd" d="M4 1H8.58579C9.11622 1 9.62493 1.21071 10 1.58579L12.4142 4H20C21.1046 4 22 4.89543 22 6V16C22 17.1046 21.1046 18 20 18H13V20H19C19.5523 20 20 20.4477 20 21C20 21.5523 19.5523 22 19 22H5C4.44772 22 4 21.5523 4 21C4 20.4477 4.44772 20 5 20H11V18H4C2.89543 18 2 17.1046 2 16V3C2 1.89543 2.89543 1 4 1ZM20 16H4V3H8.58579L11 5.41421C11.3751 5.78929 11.8838 6 12.4142 6H20V16Z" fill="#777B92"/>
</svg>
