<svg width="14" height="20" viewBox="0 0 14 20" fill="none" xmlns="http://www.w3.org/2000/svg">
<path fill-rule="evenodd" clip-rule="evenodd" d="M1 0C1.55228 0 2 0.447715 2 1V4H5C5.55228 4 6 4.44772 6 5C6 5.55228 5.55228 6 5 6H2V10H5C5.55228 10 6 10.4477 6 11C6 11.5523 5.55228 12 5 12H2V16H11L10.7 15.6C10.3686 15.1582 10.4582 14.5314 10.9 14.2C11.3418 13.8686 11.9686 13.9582 12.3 14.4L13.8 16.4C14.0667 16.7556 14.0667 17.2444 13.8 17.6L12.3 19.6C11.9686 20.0418 11.3418 20.1314 10.9 19.8C10.4582 19.4686 10.3686 18.8418 10.7 18.4L11 18H1C0.734784 18 0.48043 17.8946 0.292893 17.7071C0.105357 17.5196 0 17.2652 0 17V1C0 0.447715 0.447715 0 1 0Z" fill="#7887A5"/>
</svg>
