<svg width="24" height="24" viewBox="0 0 24 24" fill="none" xmlns="http://www.w3.org/2000/svg">
<path fill-rule="evenodd" clip-rule="evenodd" d="M6 2H12.5858C12.6672 2 12.7481 2.00496 12.8281 2.01472C12.8839 2.00504 12.9414 2 13 2C13.3381 2 13.6371 2.16782 13.818 2.4247C13.8816 2.4744 13.9424 2.52815 14 2.58579L19.4142 8C19.4718 8.05763 19.5256 8.11842 19.5753 8.18196C19.8322 8.36295 20 8.66187 20 9C20 9.05862 19.995 9.11607 19.9853 9.17192C19.995 9.25191 20 9.3328 20 9.41421V14C20 14.5523 19.5523 15 19 15C18.4477 15 18 14.5523 18 14V10H14C12.8954 10 12 9.10457 12 8V4L6 4V14C6 14.5523 5.55228 15 5 15C4.44772 15 4 14.5523 4 14V4C4 2.89543 4.89543 2 6 2ZM14 5.41421V8H16.5858L14 5.41421Z" fill="#777B92"/>
<path fill-rule="evenodd" clip-rule="evenodd" d="M7 17C7 15.8954 7.89543 15 9 15H13C14.1046 15 15 15.8954 15 17V20C15 21.1046 14.1046 22 13 22H9C7.89543 22 7 21.1046 7 20V17ZM13 17H9V20H13V17Z" fill="#777B92"/>
<path fill-rule="evenodd" clip-rule="evenodd" d="M18 17V20C18 20.5523 17.5523 21 17 21C16.4477 21 16 20.5523 16 20V17C16 16.4477 16.4477 16 17 16C17.5523 16 18 16.4477 18 17Z" fill="#777B92"/>
</svg>
