<svg width="24" height="24" viewBox="0 0 24 24" fill="none" xmlns="http://www.w3.org/2000/svg">
<path fill-rule="evenodd" clip-rule="evenodd" d="M14.8 11.6001L11.8 15.6001C11.6261 15.832 11.3601 15.977 11.0709 15.9975C10.7817 16.0181 10.4979 15.9121 10.2929 15.7072L8.29289 13.7072C7.90237 13.3166 7.90237 12.6835 8.29289 12.293C8.68342 11.9024 9.31658 11.9024 9.70711 12.293L10.8918 13.4777L13.2 10.4001C13.5314 9.95823 14.1582 9.86869 14.6 10.2001C15.0418 10.5314 15.1314 11.1582 14.8 11.6001Z" fill="#777B92"/>
<path fill-rule="evenodd" clip-rule="evenodd" d="M11 4C14.5266 4 17.4442 6.60796 17.9292 10.0005C17.9528 10.0002 17.9764 10 18 10C20.7614 10 23 12.2386 23 15C23 17.7614 20.7614 20 18 20H5C2.79086 20 1 18.2091 1 16C1 14.105 2.31771 12.5178 4.08682 12.1047C4.02964 11.7444 4 11.3754 4 11C4 7.13401 7.13401 4 11 4ZM6 11C6 11.49 6.07019 11.9619 6.20043 12.4071C6.44422 13.2403 5.78716 14 5 14C3.89543 14 3 14.8954 3 16C3 17.1046 3.89543 18 5 18H18C19.6569 18 21 16.6569 21 15C21 13.3431 19.6569 12 18 12C17.7723 12 17.5516 12.0252 17.3402 12.0726C16.661 12.2248 16 11.7119 16 11C16 8.23858 13.7614 6 11 6C8.23858 6 6 8.23858 6 11Z" fill="#777B92"/>
</svg>
