<svg width="24" height="22" viewBox="0 0 24 22" fill="none" xmlns="http://www.w3.org/2000/svg">
<path d="M17 0C16.4477 0 16 0.447715 16 1C16 1.55228 16.4477 2 17 2H20.5858L15.2929 7.29289C14.9024 7.68342 14.9024 8.31658 15.2929 8.70711C15.6834 9.09763 16.3166 9.09763 16.7071 8.70711L22 3.41421V7C22 7.55228 22.4477 8 23 8C23.5523 8 24 7.55228 24 7V1C24 0.447715 23.5523 0 23 0H17Z" fill="#7887A5"/>
<path d="M7.4742 21.7991C7.54403 21.8702 7.65494 21.9058 7.80693 21.9058H11.0127C11.4168 21.9058 11.7443 21.5783 11.7443 21.1743C11.7443 20.7702 11.4168 20.4427 11.0127 20.4427H9.05777V14.8442C9.05777 14.3779 8.67982 14 8.21361 14C7.74739 14 7.36945 14.3779 7.36945 14.8442V21.46C7.36945 21.6149 7.40437 21.7279 7.4742 21.7991Z" fill="#7887A5"/>
<path d="M0 21.7111C0 21.8535 0.227985 21.9246 0.683954 21.9246H1.10295C1.29602 21.9246 1.43979 21.9142 1.53427 21.8932C1.63286 21.8681 1.71091 21.8074 1.76842 21.7111L3.28421 19.3124L4.74454 21.7111C4.78973 21.7949 4.86573 21.8514 4.97253 21.8807C5.07933 21.91 5.22105 21.9246 5.39769 21.9246H5.82285C6.28293 21.9246 6.51297 21.8535 6.51297 21.7111C6.51297 21.6316 6.4801 21.5395 6.41438 21.4349L4.22696 17.8556L6.2973 14.5589C6.36714 14.45 6.40205 14.3558 6.40205 14.2763C6.40205 14.134 6.17202 14.0628 5.71194 14.0628H5.28678C5.11014 14.0628 4.96842 14.0774 4.86162 14.1068C4.75892 14.1361 4.67677 14.1926 4.61515 14.2763L3.3027 16.3548L2.05186 14.2763C1.9697 14.134 1.75199 14.0628 1.39872 14.0628H0.948909C0.71887 14.0628 0.544288 14.0837 0.42516 14.1256C0.310141 14.1633 0.252632 14.2135 0.252632 14.2763C0.252632 14.3349 0.287548 14.4291 0.357381 14.5589L2.36611 17.8305L0.10475 21.4349C0.0349166 21.5479 0 21.64 0 21.7111Z" fill="#7887A5"/>
<path d="M14.7266 22C14.209 22 13.753 21.9477 13.3587 21.843C12.9684 21.7342 12.6686 21.6023 12.4591 21.4474C12.2537 21.2925 12.151 21.146 12.151 21.0078C12.151 20.899 12.19 20.765 12.268 20.606C12.3502 20.4469 12.4467 20.3108 12.5576 20.1978C12.6685 20.0806 12.761 20.022 12.8349 20.022C12.8801 20.022 12.9766 20.0617 13.1245 20.1413C13.3463 20.2585 13.5558 20.3527 13.753 20.4239C13.9543 20.495 14.1843 20.5306 14.4431 20.5306C14.7307 20.5306 14.973 20.4741 15.1702 20.3611C15.3715 20.2439 15.4721 20.0408 15.4721 19.752C15.4721 19.5845 15.4208 19.4401 15.3181 19.3187C15.2154 19.1973 15.084 19.0947 14.9237 19.011C14.7635 18.9273 14.5458 18.8289 14.2706 18.7159L13.7838 18.5024C13.4881 18.3558 13.2334 18.1947 13.0198 18.0188C12.8103 17.843 12.6377 17.6107 12.5022 17.3218C12.3707 17.033 12.305 16.6792 12.305 16.2606C12.305 15.7499 12.4282 15.325 12.6747 14.9859C12.9212 14.6468 13.2416 14.3977 13.6359 14.2386C14.0303 14.0795 14.4534 14 14.9053 14C15.275 14 15.6098 14.0398 15.9096 14.1193C16.2095 14.1947 16.4436 14.293 16.6121 14.4144C16.7846 14.5358 16.8709 14.6572 16.8709 14.7787C16.8709 14.8791 16.838 15.0089 16.7723 15.168C16.7107 15.3229 16.6326 15.4589 16.5381 15.5761C16.4436 15.6934 16.3553 15.752 16.2732 15.752C16.2362 15.752 16.1705 15.731 16.076 15.6892C15.924 15.6264 15.77 15.5761 15.6139 15.5385C15.4619 15.4966 15.275 15.4757 15.0531 15.4757C14.6711 15.4757 14.4062 15.5385 14.2583 15.6641C14.1104 15.7855 14.0365 15.9299 14.0365 16.0973C14.0365 16.2899 14.0858 16.4511 14.1843 16.5808C14.287 16.7106 14.4144 16.8174 14.5664 16.9011C14.7225 16.9848 14.9381 17.0811 15.2134 17.19C15.6282 17.37 15.9671 17.5416 16.23 17.7049C16.4929 17.8639 16.7189 18.0942 16.9078 18.3956C17.1009 18.697 17.1974 19.0822 17.1974 19.551C17.1974 20.1245 17.0783 20.5955 16.8401 20.9639C16.6059 21.3281 16.3019 21.5918 15.9281 21.7551C15.5584 21.9184 15.1579 22 14.7266 22Z" fill="#7887A5"/>
<path d="M17.487 21.7111C17.487 21.8535 17.715 21.9246 18.171 21.9246H18.59C18.7831 21.9246 18.9268 21.9142 19.0213 21.8932C19.1199 21.8681 19.1979 21.8074 19.2555 21.7111L20.7712 19.3124L22.2316 21.7111C22.2768 21.7949 22.3528 21.8514 22.4596 21.8807C22.5664 21.91 22.7081 21.9246 22.8847 21.9246H23.3099C23.77 21.9246 24 21.8535 24 21.7111C24 21.6316 23.9671 21.5395 23.9014 21.4349L21.714 17.8556L23.7843 14.5589C23.8542 14.45 23.8891 14.3558 23.8891 14.2763C23.8891 14.134 23.6591 14.0628 23.199 14.0628H22.7738C22.5972 14.0628 22.4555 14.0774 22.3487 14.1068C22.246 14.1361 22.1638 14.1926 22.1022 14.2763L20.7897 16.3548L19.5389 14.2763C19.4567 14.134 19.239 14.0628 18.8858 14.0628H18.4359C18.2059 14.0628 18.0313 14.0837 17.9122 14.1256C17.7972 14.1633 17.7397 14.2135 17.7397 14.2763C17.7397 14.3349 17.7746 14.4291 17.8444 14.5589L19.8531 17.8305L17.5918 21.4349C17.522 21.5479 17.487 21.64 17.487 21.7111Z" fill="#7887A5"/>
</svg>
