<svg width="24" height="24" viewBox="0 0 24 24" fill="none" xmlns="http://www.w3.org/2000/svg">
<path fill-rule="evenodd" clip-rule="evenodd" d="M6 2H12.5858C12.6672 2 12.7481 2.00496 12.8281 2.01472C12.8839 2.00504 12.9414 2 13 2C13.3381 2 13.6371 2.16782 13.818 2.4247C13.8816 2.4744 13.9424 2.52815 14 2.58579L19.4142 8C19.4718 8.05763 19.5256 8.11842 19.5753 8.18196C19.8322 8.36295 20 8.66187 20 9C20 9.05862 19.995 9.11607 19.9853 9.17192C19.995 9.25191 20 9.3328 20 9.41421V12C20 12.5523 19.5523 13 19 13C18.4477 13 18 12.5523 18 12V10H14C12.8954 10 12 9.10457 12 8V4H6V12C6 12.5523 5.55228 13 5 13C4.44772 13 4 12.5523 4 12V4C4 2.89543 4.89543 2 6 2ZM14 5.41421V8H16.5858L14 5.41421Z" fill="#777B92"/>
<path fill-rule="evenodd" clip-rule="evenodd" d="M14 17C14 18.1046 13.1046 19 12 19C10.8954 19 10 18.1046 10 17C10 15.8954 10.8954 15 12 15C13.1046 15 14 15.8954 14 17Z" fill="#777B92"/>
<path fill-rule="evenodd" clip-rule="evenodd" d="M12 12C15.9754 12 18.5236 14.7349 19.4207 15.8765C19.942 16.5398 19.942 17.4602 19.4207 18.1235C18.5236 19.2651 15.9754 22 12 22C8.02453 22 5.47636 19.2651 4.57919 18.1235C4.05791 17.4602 4.05791 16.5398 4.57919 15.8765C5.47636 14.7349 8.02453 12 12 12ZM12 20C14.9148 20 16.908 18.0453 17.7584 17C16.908 15.9547 14.9148 14 12 14C9.08509 14 7.09197 15.9547 6.24155 17C7.09197 18.0453 9.08509 20 12 20Z" fill="#777B92"/>
</svg>
