<svg width="22" height="22" viewBox="0 0 22 22" fill="none" xmlns="http://www.w3.org/2000/svg">
<path fill-rule="evenodd" clip-rule="evenodd" d="M5.35335 12.6292L3.54155 13.0523C2.65718 13.2589 2 14.0551 2 15C2 16.1046 2.89543 17 4 17H17C18.6569 17 20 15.6569 20 14C20 12.3431 18.6569 11 17 11L16.9569 11.0003L15.1982 11.0247L14.9493 9.28355C14.6031 6.86218 12.5173 5 10 5C7.23858 5 5 7.23858 5 10C5 10.2706 5.02132 10.5349 5.06201 10.7916L5.35335 12.6292ZM16.9292 9.00049C16.4442 5.60796 13.5266 3 10 3C6.13401 3 3 6.13401 3 10C3 10.3759 3.02963 10.7449 3.08668 11.1047C1.31764 11.5179 0 13.1051 0 15C0 17.2091 1.79086 19 4 19H17C19.7614 19 22 16.7614 22 14C22 11.2386 19.7614 9 17 9C16.9764 9 16.9527 9.00017 16.9292 9.00049Z" fill="#97A3BA"/>
</svg>
