<svg width="22" height="22" viewBox="0 0 22 22" fill="none" xmlns="http://www.w3.org/2000/svg">
<path d="M9.4223 12.5284L11.4264 9.37503C11.4264 9.37503 11.5971 9.06735 12.0009 9.00854C12.2325 8.97479 12.4671 9.04191 12.653 9.19511C12.8389 9.34831 12.9609 9.57505 12.9921 9.82545C13.0233 10.0759 12.9612 10.3294 12.8195 10.5303L10.1232 14.6307C10.0416 14.7453 9.93677 14.8381 9.81679 14.9022C9.69681 14.9662 9.56486 14.9996 9.43106 15C9.29798 15.0008 9.16648 14.9688 9.04655 14.9064C8.92663 14.8441 8.82142 14.753 8.73891 14.6401L7.18501 12.4283C7.04211 12.2299 6.97798 11.9783 7.00673 11.7287C7.03548 11.4792 7.15477 11.2523 7.33834 11.0978C7.5219 10.9434 7.75473 10.8741 7.98558 10.9051C8.21643 10.9362 8.42641 11.0651 8.56931 11.2635L9.4223 12.5284Z" fill="#97A3BA"/>
<path fill-rule="evenodd" clip-rule="evenodd" d="M10 3C13.5266 3 16.4442 5.60796 16.9292 9.00049C16.9527 9.00017 16.9764 9 17 9C19.7614 9 22 11.2386 22 14C22 16.7614 19.7614 19 17 19H4C1.79086 19 0 17.2091 0 15C0 13.1051 1.31764 11.5179 3.08668 11.1047C3.02963 10.7449 3 10.3759 3 10C3 6.13401 6.13401 3 10 3ZM3.54155 13.0523L5.35335 12.6292L5.06201 10.7916C5.02132 10.5349 5 10.2706 5 10C5 7.23858 7.23858 5 10 5C12.5173 5 14.6031 6.86218 14.9493 9.28355L15.1982 11.0247L16.9569 11.0003L17 11C18.6569 11 20 12.3431 20 14C20 15.6569 18.6569 17 17 17H4C2.89543 17 2 16.1046 2 15C2 14.0551 2.65718 13.2589 3.54155 13.0523Z" fill="#97A3BA"/>
</svg>
