<svg width="22" height="22" viewBox="0 0 22 22" fill="none" xmlns="http://www.w3.org/2000/svg">
<path d="M13.6868 11.7787L12.9612 12.5L13.6868 13.2213C13.8845 13.4139 13.9972 13.6767 13.9999 13.9519C14.0027 14.2271 13.8955 14.4921 13.7017 14.6886C13.5079 14.8852 13.2436 14.9972 12.9667 14.9999C12.6899 15.0027 12.4233 14.8961 12.2256 14.7035L11.5 13.9822L10.7744 14.6738C10.5806 14.8664 10.3178 14.9746 10.0438 14.9746C9.76978 14.9746 9.50698 14.8664 9.31321 14.6738C9.11945 14.4812 9.0106 14.22 9.0106 13.9476C9.0106 13.6752 9.11945 13.4139 9.31321 13.2213L10.0388 12.5L9.31321 11.7787C9.1155 11.5861 9.00285 11.3233 9.00005 11.0481C8.99726 10.7729 9.10454 10.5079 9.2983 10.3114C9.49207 10.1148 9.75644 10.0028 10.0333 10.0001C10.3101 9.99727 10.5767 10.1039 10.7744 10.2965L11.5 11.0178L12.2256 10.3262C12.4194 10.1336 12.6822 10.0254 12.9562 10.0254C13.2302 10.0254 13.493 10.1336 13.6868 10.3262C13.8806 10.5188 13.9894 10.78 13.9894 11.0524C13.9894 11.3248 13.8806 11.5861 13.6868 11.7787Z" fill="#97A3BA"/>
<path fill-rule="evenodd" clip-rule="evenodd" d="M11.5 5.55019H18.5C19.1534 5.54217 19.7833 5.79338 20.2519 6.24883C20.7205 6.70427 20.9895 7.32683 21 7.98019V16.5702C20.9895 17.2235 20.7205 17.8461 20.2519 18.3015C19.7833 18.757 19.1534 19.0082 18.5 19.0002H3.5C2.84661 19.0082 2.21666 18.757 1.7481 18.3015C1.27953 17.8461 1.01053 17.2235 1 16.5702V4.43019C1.01053 3.77683 1.27953 3.15427 1.7481 2.69883C2.21666 2.24338 2.84661 1.99216 3.5 2.00019H8.1C8.24771 2.00116 8.39336 2.03485 8.5265 2.09882C8.65964 2.1628 8.77695 2.25547 8.87 2.37019L11.5 5.55019ZM18.9529 16.7266C18.9802 16.6715 18.9962 16.6115 19 16.5502V7.98019C18.9962 7.91882 18.9802 7.85884 18.9529 7.80378C18.9255 7.74871 18.8874 7.69969 18.8408 7.6596C18.7942 7.61952 18.74 7.58918 18.6815 7.57039C18.6229 7.55159 18.5612 7.54473 18.5 7.55019H11C10.8523 7.54921 10.7066 7.51552 10.5735 7.45155C10.4404 7.38757 10.3231 7.2949 10.23 7.18019L7.63 4.00019H3.5C3.43876 3.99472 3.37706 4.00159 3.31852 4.02039C3.25998 4.03918 3.20581 4.06952 3.1592 4.1096C3.11259 4.14969 3.07448 4.19871 3.04714 4.25378C3.0198 4.30884 3.00377 4.36882 3 4.43019V16.5502C3.00377 16.6115 3.0198 16.6715 3.04714 16.7266C3.07448 16.7817 3.11259 16.8307 3.1592 16.8708C3.20581 16.9109 3.25998 16.9412 3.31852 16.96C3.37706 16.9788 3.43876 16.9856 3.5 16.9802H18.5C18.5612 16.9856 18.6229 16.9788 18.6815 16.96C18.74 16.9412 18.7942 16.9109 18.8408 16.8708C18.8874 16.8307 18.9255 16.7817 18.9529 16.7266Z" fill="#97A3BA"/>
</svg>
