<svg width="24" height="24" viewBox="0 0 24 24" fill="none" xmlns="http://www.w3.org/2000/svg">
<path fill-rule="evenodd" clip-rule="evenodd" d="M4 2H10.5858C10.6672 2 10.7481 2.00496 10.8281 2.01472C10.8839 2.00504 10.9414 2 11 2C11.3381 2 11.6371 2.16782 11.818 2.4247C11.8816 2.4744 11.9424 2.52815 12 2.58579L17.4142 8C17.4718 8.05763 17.5256 8.11842 17.5753 8.18196C17.8322 8.36295 18 8.66187 18 9C18 9.05862 17.995 9.11607 17.9853 9.17192C17.995 9.25191 18 9.3328 18 9.41421V11C18 11.5523 17.5523 12 17 12C16.4477 12 16 11.5523 16 11V10H12C10.8954 10 10 9.10457 10 8V4L4 4V20H11C11.5523 20 12 20.4477 12 21C12 21.5523 11.5523 22 11 22H4C2.89543 22 2 21.1046 2 20V4C2 2.89543 2.89543 2 4 2ZM12 5.41421V8H14.5858L12 5.41421Z" fill="#777B92"/>
<path fill-rule="evenodd" clip-rule="evenodd" d="M12 17C12 14.7909 13.7909 13 16 13C18.2091 13 20 14.7909 20 17C20 17.7418 19.7981 18.4365 19.4462 19.032L20.7071 20.2929C21.0976 20.6834 21.0976 21.3166 20.7071 21.7071C20.3166 22.0976 19.6834 22.0976 19.2929 21.7071L18.032 20.4462C17.4365 20.7981 16.7418 21 16 21C13.7909 21 12 19.2091 12 17ZM14 17C14 18.1046 14.8954 19 16 19C17.1046 19 18 18.1046 18 17C18 15.8954 17.1046 15 16 15C14.8954 15 14 15.8954 14 17Z" fill="#777B92"/>
</svg>
