<svg width="22" height="22" viewBox="0 0 22 22" fill="none" xmlns="http://www.w3.org/2000/svg">
<path d="M3 10C3 9.44772 3.44772 9 4 9H12C12.5523 9 13 9.44772 13 10C13 10.5523 12.5523 11 12 11H4C3.44772 11 3 10.5523 3 10Z" fill="#7887A5"/>
<path d="M4 15C3.44772 15 3 15.4477 3 16C3 16.5523 3.44772 17 4 17H8C8.55228 17 9 16.5523 9 16C9 15.4477 8.55228 15 8 15H4Z" fill="#7887A5"/>
<path fill-rule="evenodd" clip-rule="evenodd" d="M3 0C1.34315 0 0 1.34315 0 3V5C0 5.76836 0.288855 6.46925 0.763896 7C0.288855 7.53076 0 8.23164 0 9V11C0 11.7684 0.288854 12.4692 0.763894 13C0.288854 13.5308 0 14.2316 0 15V17C0 18.6569 1.34315 20 3 20H17C17.3249 20 17.6296 19.8421 17.817 19.5766C18.0044 19.3111 18.0511 18.9712 17.9422 18.665L16.9947 16L17.9406 13.3395C17.9779 13.2362 17.9979 13.1275 17.9998 13.018C18.0002 12.9964 17.9999 12.9748 17.9989 12.9531C17.9955 12.8813 17.9844 12.8095 17.9653 12.739C17.9582 12.7125 17.9499 12.6863 17.9406 12.6605L16.9947 10L17.9406 7.33952C17.9779 7.23616 17.9979 7.12748 17.9998 7.01798C18.0002 6.99638 17.9999 6.97475 17.9989 6.95312C17.9955 6.88128 17.9844 6.80947 17.9653 6.73896C17.9582 6.71249 17.9499 6.6863 17.9406 6.66043L16.9947 4L17.9422 1.33501C18.0511 1.02884 18.0044 0.688862 17.817 0.423376C17.6296 0.157889 17.3249 0 17 0H3ZM15.5831 6L15.1102 4.67002C14.9561 4.23663 14.9561 3.76337 15.1102 3.32998L15.5831 2H3C2.44772 2 2 2.44772 2 3V5C2 5.55228 2.44772 6 3 6H15.5831ZM15.5831 8H3C2.44772 8 2 8.44772 2 9V11C2 11.5523 2.44772 12 3 12H15.5831L15.1102 10.67C14.9561 10.2366 14.9561 9.76337 15.1102 9.32998L15.5831 8ZM3 14H15.5831L15.1102 15.33C14.9561 15.7634 14.9561 16.2366 15.1102 16.67L15.5831 18H3C2.44772 18 2 17.5523 2 17V15C2 14.4477 2.44772 14 3 14Z" fill="#7887A5"/>
</svg>
