<svg width="24" height="24" viewBox="0 0 24 24" fill="none" xmlns="http://www.w3.org/2000/svg">
<path d="M17.7071 3.29289L20.7071 6.29289C21.0976 6.68342 21.0976 7.31658 20.7071 7.70711L17.7071 10.7071C17.3166 11.0976 16.6834 11.0976 16.2929 10.7071C15.9024 10.3166 15.9024 9.68342 16.2929 9.29289L17.4036 8.18215C16.2147 8.36681 15.0382 8.7179 14.03 9.348C12.3628 10.39 11 12.2942 11 16C11 16.5523 10.5523 17 10 17C9.44772 17 9 16.5523 9 16C9 11.7058 10.6372 9.11003 12.97 7.652C14.4491 6.72755 16.1409 6.30422 17.7087 6.12292L16.2929 4.70711C15.9024 4.31658 15.9024 3.68342 16.2929 3.29289C16.6834 2.90237 17.3166 2.90237 17.7071 3.29289Z" fill="#777B92"/>
<path fill-rule="evenodd" clip-rule="evenodd" d="M5 3H12C12.5523 3 13 3.44772 13 4C13 4.55228 12.5523 5 12 5H5V19H19V13C19 12.4477 19.4477 12 20 12C20.5523 12 21 12.4477 21 13V19C21 20.1046 20.1046 21 19 21H5C3.89543 21 3 20.1046 3 19V5C3 3.89543 3.89543 3 5 3Z" fill="#777B92"/>
</svg>
