<svg width="24" height="24" viewBox="0 0 24 24" fill="none" xmlns="http://www.w3.org/2000/svg">
<path fill-rule="evenodd" clip-rule="evenodd" d="M5 2H11.5858C11.6672 2 11.7481 2.00496 11.8281 2.01472C11.8839 2.00504 11.9414 2 12 2C12.3381 2 12.6371 2.16782 12.818 2.4247C12.8816 2.4744 12.9424 2.52815 13 2.58579L18.4142 8C18.4718 8.05763 18.5256 8.11842 18.5753 8.18196C18.8322 8.36295 19 8.66187 19 9C19 9.05862 18.995 9.11607 18.9853 9.17192C18.995 9.25191 19 9.3328 19 9.41421V11C19 11.5523 18.5523 12 18 12C17.4477 12 17 11.5523 17 11V10H13C11.8954 10 11 9.10457 11 8V4L5 4V20H12C12.5523 20 13 20.4477 13 21C13 21.5523 12.5523 22 12 22H5C3.89543 22 3 21.1046 3 20V4C3 2.89543 3.89543 2 5 2ZM13 5.41421V8H15.5858L13 5.41421Z" fill="#777B92"/>
<path fill-rule="evenodd" clip-rule="evenodd" d="M11.1986 14.4611C11.0101 13.1412 12.1414 12.0098 13.4614 12.1984L15.3114 12.4627C15.7398 12.5239 16.1368 12.7224 16.4428 13.0284L20 16.5855C20.7811 17.3666 20.781 18.6329 20 19.414L18.4142 20.9998C17.6332 21.7808 16.3668 21.7808 15.5858 20.9998L12.0286 17.4426C11.7226 17.1366 11.5241 16.7396 11.4629 16.3112L11.1986 14.4611ZM15.0286 14.4426L13.1785 14.1783L13.4428 16.0284L14.5001 17.0857L16.0859 15.4999L15.0286 14.4426ZM17.5001 16.9141L15.9143 18.4999L17 19.5855L18.5858 17.9998L17.5001 16.9141Z" fill="#777B92"/>
</svg>
