<svg width="24" height="24" viewBox="0 0 24 24" fill="none" xmlns="http://www.w3.org/2000/svg">
<path fill-rule="evenodd" clip-rule="evenodd" d="M3 3H7.58579C8.11622 3 8.62493 3.21071 9 3.58579L11.4142 6H18C19.1046 6 20 6.89543 20 8V10H21C22.6481 10 23.5888 11.8815 22.6 13.2L18.1 19.2C17.7223 19.7036 17.1295 20 16.5 20C11.6666 20 6.83332 20 2 20C1.44772 20 1 19.5523 1 19C1 14.3339 1 9.66659 1 5C1 3.89543 1.89543 3 3 3ZM18 10V8H11.4142C10.8838 8 10.3751 7.78929 10 7.41421L7.58579 5H3V14.6666L5.89997 10.8C6.27768 10.2964 6.87045 10 7.49997 10H18ZM3 18L16.5 18L21 12H7.49997L3 18Z" fill="#777B92"/>
</svg>
