<svg width="22" height="22" viewBox="0 0 22 22" fill="none" xmlns="http://www.w3.org/2000/svg">
<path fill-rule="evenodd" clip-rule="evenodd" d="M3 1C1.89543 1 1 1.89543 1 3V7C1 8.10457 1.89543 9 3 9H5V16C5 17.1046 5.89543 18 7 18H11V19C11 20.1046 11.8954 21 13 21H19C20.1046 21 21 20.1046 21 19V15C21 13.8954 20.1046 13 19 13H16V6C16 4.89543 15.1046 4 14 4H11V3C11 1.89543 10.1046 1 9 1H3ZM11 16V15C11 13.8954 11.8954 13 13 13H14V6H11V7C11 8.10457 10.1046 9 9 9H7V16H11ZM3 3H9V7H3V3ZM19 15V19H13V15H19Z" fill="#97A3BA"/>
</svg>
