<svg width="22" height="22" viewBox="0 0 22 22" fill="none" xmlns="http://www.w3.org/2000/svg">
<path d="M8.29289 12.2929C8.48043 12.1054 8.73478 12 9 12H13C13.2652 12 13.5196 12.1054 13.7071 12.2929C13.8946 12.4804 14 12.7348 14 13C14 13.2652 13.8946 13.5196 13.7071 13.7071C13.5196 13.8946 13.2652 14 13 14H9C8.73478 14 8.48043 13.8946 8.29289 13.7071C8.10536 13.5196 8 13.2652 8 13C8 12.7348 8.10536 12.4804 8.29289 12.2929Z" fill="#97A3BA"/>
<path fill-rule="evenodd" clip-rule="evenodd" d="M13.3 1.33018L18.74 7.33018C18.9067 7.51358 18.9994 7.75234 19 8.00018V18.5002C18.9961 18.8324 18.9268 19.1607 18.796 19.4661C18.6652 19.7716 18.4755 20.0483 18.2378 20.2804C18.0001 20.5126 17.719 20.6956 17.4105 20.8191C17.102 20.9426 16.7723 21.0041 16.44 21.0002H5.56C5.22775 21.0041 4.89797 20.9426 4.5895 20.8191C4.28103 20.6956 3.9999 20.5126 3.76218 20.2804C3.52446 20.0483 3.33479 19.7716 3.20402 19.4661C3.07324 19.1607 3.00392 18.8324 3 18.5002V3.50018C3.00392 3.16793 3.07324 2.8397 3.20402 2.53425C3.33479 2.22879 3.52446 1.95209 3.76218 1.71993C3.9999 1.48778 4.28103 1.30473 4.5895 1.18124C4.89797 1.05774 5.22775 0.996217 5.56 1.00018H12.56C12.6995 1.00051 12.8375 1.03004 12.9649 1.08688C13.0924 1.14371 13.2065 1.22659 13.3 1.33018ZM15.74 7.00018L13 4.00018V6.15018C12.9918 6.25477 13.0046 6.35994 13.0375 6.45955C13.0704 6.55916 13.1229 6.65122 13.1918 6.73034C13.2607 6.80947 13.3446 6.87408 13.4387 6.92041C13.5329 6.96674 13.6353 6.99386 13.74 7.00018H15.74ZM5.56 19.0002H16.44C16.5096 19.0042 16.5794 18.9945 16.6452 18.9715C16.7111 18.9486 16.7718 18.9129 16.8238 18.8664C16.8758 18.82 16.9182 18.7637 16.9484 18.7009C16.9786 18.638 16.9962 18.5698 17 18.5002V9.00018H13.71C12.9735 8.97923 12.2752 8.6678 11.7675 8.13385C11.2598 7.59991 10.9839 6.8868 11 6.15018V3.00018H5.56C5.49037 2.99613 5.42063 3.00586 5.35477 3.02881C5.28892 3.05176 5.22824 3.08749 5.17621 3.13394C5.12419 3.18039 5.08184 3.23665 5.0516 3.2995C5.02137 3.36234 5.00383 3.43054 5 3.50018V18.5002C5.00383 18.5698 5.02137 18.638 5.0516 18.7009C5.08184 18.7637 5.12419 18.82 5.17621 18.8664C5.22824 18.9129 5.28892 18.9486 5.35477 18.9715C5.42063 18.9945 5.49037 19.0042 5.56 19.0002Z" fill="#97A3BA"/>
</svg>
