<svg width="22" height="22" viewBox="0 0 22 22" fill="none" xmlns="http://www.w3.org/2000/svg">
<path fill-rule="evenodd" clip-rule="evenodd" d="M3.56 19H10.85C11.42 19.85 12.2 20.53 13.11 21H3.56C3.23 21 2.9 20.94 2.59 20.82C2.28 20.7 2 20.51 1.76 20.28C1.52 20.05 1.33 19.78 1.2 19.47C1.07 19.16 1 18.83 1 18.5V3.5C1 3.17 1.07 2.84 1.2 2.53C1.33 2.23 1.52 1.95 1.76 1.72C2 1.49 2.28 1.3 2.59 1.18C2.9 1.06 3.23 1 3.56 1H10.56C10.7 1 10.84 1.03 10.96 1.09C11.09 1.14 11.21 1.23 11.3 1.33L16.74 7.33C16.91 7.51 17 7.75 17 8V10H10.71C9.97 9.98 9.28 9.67 8.77 9.13C8.26 8.6 7.98 7.89 8 7.15V3H3.56C3.49 3 3.42 3.01 3.35 3.02C3.28 3.05 3.22 3.08 3.17 3.13C3.12 3.18 3.08 3.24 3.05 3.3C3.02 3.36 3 3.43 3 3.5V18.5C3 18.57 3.02 18.64 3.05 18.69C3.08 18.76 3.12 18.81 3.17 18.86C3.22 18.91 3.28 18.95 3.35 18.97C3.42 18.99 3.49 19 3.56 19ZM10.11 3H10V7.15C9.98 7.36 10.05 7.56 10.18 7.72C10.31 7.88 10.5 7.98 10.71 8H14.65L10.11 3Z" fill="#97A3BA"/>
<path fill-rule="evenodd" clip-rule="evenodd" d="M15.8301 19.6099C14.7601 19.6099 13.7601 19.1899 13.0001 18.4399C12.2401 17.6899 11.8301 16.6799 11.8301 15.6099C11.8301 14.5399 12.2501 13.5399 13.0001 12.7799C13.7501 12.0199 14.7601 11.6099 15.8301 11.6099C16.9001 11.6099 17.9001 12.0299 18.6601 12.7799C19.4201 13.5299 19.8301 14.5399 19.8301 15.6099C19.8301 16.3769 19.6143 17.1079 19.2158 17.7403L20.6939 19.2184C21.102 19.6266 21.102 20.2858 20.6939 20.6939C20.2858 21.102 19.6266 21.102 19.2184 20.6939L17.6801 19.1555C17.1131 19.4515 16.481 19.6099 15.8301 19.6099ZM15.8301 13.6099C15.3001 13.6099 14.7901 13.8199 14.4201 14.1999C14.0501 14.5799 13.8301 15.0799 13.8301 15.6099C13.8301 16.1399 14.0401 16.6499 14.4201 17.0199C15.1801 17.7799 16.4901 17.7799 17.2501 17.0199C17.6301 16.6399 17.8401 16.1399 17.8401 15.6099C17.8401 15.0799 17.6301 14.5699 17.2501 14.1999C16.8701 13.8299 16.3601 13.6099 15.8301 13.6099Z" fill="#97A3BA"/>
</svg>
