<svg width="22" height="22" viewBox="0 0 22 22" fill="none" xmlns="http://www.w3.org/2000/svg">
<path d="M5 5H17V6C17 6.55228 17.4477 7 18 7C18.5523 7 19 6.55228 19 6V4C19 3.44772 18.5523 3 18 3H4C3.44771 3 3 3.44772 3 4V6C3 6.55228 3.44772 7 4 7C4.55228 7 5 6.55228 5 6V5Z" fill="#97A3BA"/>
<path d="M7 11.9999C6.84476 11.9999 6.69164 11.9638 6.55279 11.8943C6.41393 11.8249 6.29315 11.7241 6.2 11.5999C6.12121 11.4949 6.06388 11.3753 6.03129 11.2481C5.99869 11.1209 5.99148 10.9885 6.01005 10.8585C6.02862 10.7285 6.07262 10.6034 6.13953 10.4904C6.20643 10.3774 6.29494 10.2787 6.4 10.1999L10.4 7.19992C10.5713 7.07477 10.7779 7.00732 10.99 7.00732C11.2021 7.00732 11.4087 7.07477 11.58 7.19992L15.58 10.0199C15.7956 10.1729 15.9419 10.4049 15.9868 10.6654C16.0318 10.9259 15.9718 11.1935 15.82 11.4099C15.7442 11.5181 15.6478 11.6101 15.5362 11.6808C15.4246 11.7515 15.3002 11.7994 15.17 11.8217C15.0399 11.844 14.9066 11.8403 14.7778 11.8108C14.6491 11.7813 14.5275 11.7267 14.42 11.6499L11.9984 9.94347C11.9995 9.96225 12 9.9811 12 10V18C12 18.2652 11.8946 18.5196 11.7071 18.7071C11.5196 18.8946 11.2652 19 11 19C10.7348 19 10.4804 18.8946 10.2929 18.7071C10.1054 18.5196 10 18.2652 10 18V10C10 9.99761 10 9.99523 10 9.99284L7.6 11.7999C7.4269 11.9297 7.21637 11.9999 7 11.9999Z" fill="#97A3BA"/>
</svg>
