<svg width="24" height="24" viewBox="0 0 24 24" fill="none" xmlns="http://www.w3.org/2000/svg">
<path fill-rule="evenodd" clip-rule="evenodd" d="M3.83086 8.98075C3.37199 8.98075 3 8.60286 3 8.1367V1.44908C3 1.29083 3.03437 1.17749 3.1031 1.10906C3.17183 1.03635 3.281 1 3.43059 1H5.69879C6.36995 1 6.96429 1.17322 7.48181 1.51965C7.99933 1.86608 8.25809 2.52473 8.25809 3.49559C8.25809 4.16279 8.10849 4.68244 7.8093 5.05453C7.51011 5.42235 7.17251 5.67041 6.7965 5.79872C6.42453 5.92703 6.09299 5.99118 5.80189 5.99118H4.66173V8.1367C4.66173 8.60286 4.28974 8.98075 3.83086 8.98075ZM5.61995 4.48356C5.87871 4.48356 6.09906 4.41085 6.281 4.26544C6.46698 4.12002 6.55997 3.86341 6.55997 3.49559C6.55997 3.1235 6.46698 2.8626 6.281 2.71291C6.09501 2.56322 5.87466 2.48837 5.61995 2.48837H4.66173V4.48356H5.61995Z" fill="#777B92"/>
<path fill-rule="evenodd" clip-rule="evenodd" d="M9.58019 8.98075C9.43059 8.98075 9.32143 8.9444 9.2527 8.87169C9.18396 8.79898 9.1496 8.68351 9.1496 8.52526V1.44908C9.1496 1.29083 9.18396 1.17749 9.2527 1.10906C9.32143 1.03635 9.43059 1 9.58019 1H11.9939C12.7338 1 13.3605 1.15397 13.874 1.46191C14.3915 1.76557 14.7817 2.21465 15.0445 2.80914C15.3113 3.40364 15.4447 4.12858 15.4447 4.98396C15.4447 5.84362 15.3113 6.5707 15.0445 7.1652C14.7817 7.75969 14.3915 8.21091 13.874 8.51885C13.3605 8.82678 12.7338 8.98075 11.9939 8.98075H9.58019ZM11.9939 7.48597C12.5681 7.48597 13.0027 7.27426 13.2978 6.85084C13.593 6.42315 13.7406 5.80086 13.7406 4.98396C13.7406 4.17134 13.593 3.55333 13.2978 3.12991C13.0027 2.70222 12.5681 2.48837 11.9939 2.48837H10.8235V7.48597H11.9939Z" fill="#777B92"/>
<path fill-rule="evenodd" clip-rule="evenodd" d="M17.4764 9C17.0175 9 16.6456 8.62211 16.6456 8.15595V1.44908C16.6456 1.29083 16.6799 1.17749 16.7487 1.10906C16.8174 1.03635 16.9265 1 17.0761 1H20.2685C20.673 1 21 1.33318 21 1.74419C21 2.15519 20.672 2.48837 20.2674 2.48837H18.3073V4.15638H20.2643C20.6706 4.15638 21 4.49099 21 4.90377C21 5.31654 20.6706 5.65116 20.2643 5.65116H18.3073V8.15595C18.3073 8.6221 17.9353 9 17.4764 9Z" fill="#777B92"/>
<path fill-rule="evenodd" clip-rule="evenodd" d="M15.7071 19.7071L12.7071 22.7071C12.3166 23.0976 11.6834 23.0976 11.2929 22.7071L8.29289 19.7071C7.90237 19.3166 7.90237 18.6834 8.29289 18.2929C8.68342 17.9024 9.31658 17.9024 9.70711 18.2929L11 19.5858V14C11 13.4477 11.4477 13 12 13C12.5523 13 13 13.4477 13 14V19.5858L14.2929 18.2929C14.6834 17.9024 15.3166 17.9024 15.7071 18.2929C16.0976 18.6834 16.0976 19.3166 15.7071 19.7071Z" fill="#777B92"/>
</svg>
