<svg width="22" height="22" viewBox="0 0 22 22" fill="none" xmlns="http://www.w3.org/2000/svg">
<path d="M12.5782 10.6132L10.5253 9.16795C10.2072 8.94402 9.79281 8.94402 9.47472 9.16795L7.42178 10.6132C6.98663 10.9196 6.86904 11.5405 7.15914 12C7.44924 12.4595 8.03718 12.5837 8.47233 12.2774L9.05305 11.8685V14C9.05305 14.5523 9.47701 15 10 15C10.523 15 10.947 14.5523 10.947 14V11.8685L11.5277 12.2773C11.9628 12.5837 12.5508 12.4595 12.8409 12C13.131 11.5405 13.0134 10.9196 12.5782 10.6132Z" fill="#97A3BA"/>
<path fill-rule="evenodd" clip-rule="evenodd" d="M10 3C13.5266 3 16.4442 5.60796 16.9292 9.00049C16.9527 9.00017 16.9764 9 17 9C19.7614 9 22 11.2386 22 14C22 16.7614 19.7614 19 17 19H4C1.79086 19 0 17.2091 0 15C0 13.1051 1.31764 11.5179 3.08668 11.1047C3.02963 10.7449 3 10.3759 3 10C3 6.13401 6.13401 3 10 3ZM3.54155 13.0523L5.35335 12.6292L5.06201 10.7916C5.02132 10.5349 5 10.2706 5 10C5 7.23858 7.23858 5 10 5C12.5173 5 14.6031 6.86218 14.9493 9.28355L15.1982 11.0247L16.9569 11.0003L17 11C18.6569 11 20 12.3431 20 14C20 15.6569 18.6569 17 17 17H4C2.89543 17 2 16.1046 2 15C2 14.0551 2.65718 13.2589 3.54155 13.0523Z" fill="#97A3BA"/>
</svg>
