<svg width="22" height="22" viewBox="0 0 22 22" fill="none" xmlns="http://www.w3.org/2000/svg">
<path d="M15 12C15.5523 12 16 11.5523 16 11C16 10.4477 15.5523 10 15 10H7C6.44772 10 6 10.4477 6 11C6 11.5523 6.44772 12 7 12H15Z" fill="#97A3BA"/>
<path d="M16 7C16 7.55228 15.5523 8 15 8H7C6.44772 8 6 7.55228 6 7C6 6.44772 6.44772 6 7 6H15C15.5523 6 16 6.44772 16 7Z" fill="#97A3BA"/>
<path d="M15 16C15.5523 16 16 15.5523 16 15C16 14.4477 15.5523 14 15 14H7C6.44772 14 6 14.4477 6 15C6 15.5523 6.44772 16 7 16H15Z" fill="#97A3BA"/>
<path fill-rule="evenodd" clip-rule="evenodd" d="M4 1C2.34315 1 1 2.34315 1 4V18C1 19.6569 2.34315 21 4 21H18C19.6569 21 21 19.6569 21 18V4C21 2.34315 19.6569 1 18 1H4ZM3 4C3 3.44772 3.44772 3 4 3H18C18.5523 3 19 3.44772 19 4V18C19 18.5523 18.5523 19 18 19H4C3.44772 19 3 18.5523 3 18V4Z" fill="#97A3BA"/>
</svg>
