<svg width="22" height="22" viewBox="0 0 22 22" fill="none" xmlns="http://www.w3.org/2000/svg">
<path d="M18.74 7.33018L13.3 1.33018C13.2065 1.22659 13.0924 1.14371 12.9649 1.08688C12.8375 1.03004 12.6995 1.00051 12.56 1.00018H5.56C5.22775 0.996217 4.89797 1.05774 4.5895 1.18124C4.28103 1.30473 3.9999 1.48778 3.76218 1.71993C3.52446 1.95209 3.33479 2.22879 3.20402 2.53425C3.07324 2.8397 3.00392 3.16793 3 3.50018V18.5002C3.00392 18.8324 3.07324 19.1607 3.20402 19.4661C3.33479 19.7716 3.52446 20.0483 3.76218 20.2804C3.9999 20.5126 4.28103 20.6956 4.5895 20.8191C4.89797 20.9426 5.22775 21.0041 5.56 21.0002H16.44C16.7723 21.0041 17.102 20.9426 17.4105 20.8191C17.719 20.6956 18.0001 20.5126 18.2378 20.2804C18.4755 20.0483 18.6652 19.7716 18.796 19.4661C18.9268 19.1607 18.9961 18.8324 19 18.5002V8.00018C18.9994 7.75234 18.9067 7.51358 18.74 7.33018ZM16.65 8.00018H12.71C12.5038 7.97988 12.3139 7.87942 12.1811 7.72043C12.0483 7.56144 11.9833 7.35666 12 7.15018V3.00018H12.11L16.65 8.00018ZM16.44 19.0002H5.56C5.49037 19.0042 5.42063 18.9945 5.35477 18.9715C5.28892 18.9486 5.22824 18.9129 5.17621 18.8664C5.12419 18.82 5.08184 18.7637 5.0516 18.7009C5.02137 18.638 5.00383 18.5698 5 18.5002V3.50018C5.00383 3.43054 5.02137 3.36234 5.0516 3.2995C5.08184 3.23665 5.12419 3.18039 5.17621 3.13394C5.22824 3.08749 5.28892 3.05176 5.35477 3.02881C5.42063 3.00586 5.49037 2.99613 5.56 3.00018H10V7.15018C9.98386 7.8868 10.2598 8.59991 10.7675 9.13385C11.2752 9.6678 11.9735 9.97923 12.71 10.0002H17V18.5002C16.9962 18.5698 16.9786 18.638 16.9484 18.7009C16.9182 18.7637 16.8758 18.82 16.8238 18.8664C16.7718 18.9129 16.7111 18.9486 16.6452 18.9715C16.5794 18.9945 16.5096 19.0042 16.44 19.0002Z" fill="#97A3BA"/>
</svg>
