<svg width="24" height="24" viewBox="0 0 24 24" fill="none" xmlns="http://www.w3.org/2000/svg">
<path fill-rule="evenodd" clip-rule="evenodd" d="M15 1H20C20.5523 1 21 1.44772 21 2V7C21 7.55228 20.5523 8 20 8C19.4477 8 19 7.55228 19 7V4.41421L14.7071 8.70711C14.3166 9.09763 13.6834 9.09763 13.2929 8.70711C12.9024 8.31658 12.9024 7.68342 13.2929 7.29289L17.5858 3H15C14.4477 3 14 2.55228 14 2C14 1.44772 14.4477 1 15 1Z" fill="#777B92"/>
<path fill-rule="evenodd" clip-rule="evenodd" d="M3.83086 22.9808C3.37199 22.9808 3 22.6029 3 22.1367V15.4491C3 15.2908 3.03437 15.1775 3.1031 15.1091C3.17183 15.0364 3.281 15 3.43059 15H5.69879C6.36995 15 6.96429 15.1732 7.48181 15.5196C7.99933 15.8661 8.25809 16.5247 8.25809 17.4956C8.25809 18.1628 8.10849 18.6824 7.8093 19.0545C7.51011 19.4223 7.17251 19.6704 6.7965 19.7987C6.42453 19.927 6.09299 19.9912 5.80189 19.9912H4.66173V22.1367C4.66173 22.6029 4.28974 22.9808 3.83086 22.9808ZM5.61995 18.4836C5.87871 18.4836 6.09906 18.4109 6.281 18.2654C6.46698 18.12 6.55997 17.8634 6.55997 17.4956C6.55997 17.1235 6.46698 16.8626 6.281 16.7129C6.09501 16.5632 5.87466 16.4884 5.61995 16.4884H4.66173V18.4836H5.61995Z" fill="#777B92"/>
<path fill-rule="evenodd" clip-rule="evenodd" d="M9.58019 22.9808C9.43059 22.9808 9.32143 22.9444 9.2527 22.8717C9.18396 22.799 9.1496 22.6835 9.1496 22.5253V15.4491C9.1496 15.2908 9.18396 15.1775 9.2527 15.1091C9.32143 15.0364 9.43059 15 9.58019 15H11.9939C12.7338 15 13.3605 15.154 13.874 15.4619C14.3915 15.7656 14.7817 16.2146 15.0445 16.8091C15.3113 17.4036 15.4447 18.1286 15.4447 18.984C15.4447 19.8436 15.3113 20.5707 15.0445 21.1652C14.7817 21.7597 14.3915 22.2109 13.874 22.5188C13.3605 22.8268 12.7338 22.9808 11.9939 22.9808H9.58019ZM11.9939 21.486C12.5681 21.486 13.0027 21.2743 13.2978 20.8508C13.593 20.4231 13.7406 19.8009 13.7406 18.984C13.7406 18.1713 13.593 17.5533 13.2978 17.1299C13.0027 16.7022 12.5681 16.4884 11.9939 16.4884H10.8235V21.486H11.9939Z" fill="#777B92"/>
<path fill-rule="evenodd" clip-rule="evenodd" d="M17.4764 23C17.0175 23 16.6456 22.6221 16.6456 22.1559V15.4491C16.6456 15.2908 16.6799 15.1775 16.7487 15.1091C16.8174 15.0364 16.9265 15 17.0761 15H20.2685C20.673 15 21 15.3332 21 15.7442C21 16.1552 20.672 16.4884 20.2674 16.4884H18.3073V18.1564H20.2643C20.6706 18.1564 21 18.491 21 18.9038C21 19.3165 20.6706 19.6512 20.2643 19.6512H18.3073V22.1559C18.3073 22.6221 17.9353 23 17.4764 23Z" fill="#777B92"/>
</svg>
