<svg width="24" height="24" viewBox="0 0 24 24" fill="none" xmlns="http://www.w3.org/2000/svg">
<path fill-rule="evenodd" clip-rule="evenodd" d="M4 4C4 2.89543 4.89543 2 6 2H12.5858C12.6672 2 12.7481 2.00496 12.8281 2.01472C12.8839 2.00504 12.9414 2 13 2C13.3381 2 13.6371 2.16782 13.818 2.4247C13.8816 2.4744 13.9424 2.52815 14 2.58579L19.4142 8C19.4718 8.05763 19.5256 8.11842 19.5753 8.18196C19.8322 8.36295 20 8.66188 20 9C20 9.05862 19.995 9.11607 19.9853 9.17192C19.995 9.25191 20 9.3328 20 9.41421V14C20 14.5523 19.5523 15 19 15C18.4477 15 18 14.5523 18 14V10H14C12.8954 10 12 9.10457 12 8V4L6 4V14C6 14.5523 5.55228 15 5 15C4.44772 15 4 14.5523 4 14V4ZM14 5.41421V8H16.5858L14 5.41421Z" fill="#777B92"/>
<path fill-rule="evenodd" clip-rule="evenodd" d="M2.09107 22.0161C1.96307 22.0054 1.8564 21.9521 1.77107 21.8561C1.68573 21.7547 1.64307 21.6374 1.64307 21.5041V16.6561C1.64307 16.5227 1.68573 16.4081 1.77107 16.3121C1.8564 16.2107 1.96307 16.1547 2.09107 16.1441C2.50707 16.1014 2.91773 16.0801 3.32307 16.0801C4.27773 16.0801 5.01373 16.3334 5.53107 16.8401C6.0484 17.3467 6.30707 18.0667 6.30707 19.0001C6.30707 20.0134 6.0484 20.7814 5.53107 21.3041C5.01373 21.8214 4.27773 22.0801 3.32307 22.0801C2.91773 22.0801 2.50707 22.0587 2.09107 22.0161ZM2.97107 17.2641V20.8961C2.97107 20.9441 2.99507 20.9734 3.04307 20.9841C3.14973 21.0054 3.27773 21.0161 3.42707 21.0161C3.96573 21.0161 4.36307 20.8587 4.61907 20.5441C4.8804 20.2294 5.01107 19.7147 5.01107 19.0001C5.01107 18.3601 4.8804 17.8907 4.61907 17.5921C4.35773 17.2934 3.9604 17.1441 3.42707 17.1441C3.27773 17.1441 3.14973 17.1547 3.04307 17.1761C2.99507 17.1867 2.97107 17.2161 2.97107 17.2641Z" fill="#777B92"/>
<path fill-rule="evenodd" clip-rule="evenodd" d="M11.6206 21.2881C11.13 21.8161 10.4633 22.0801 9.62063 22.0801C8.77796 22.0801 8.1113 21.8161 7.62063 21.2881C7.12996 20.7547 6.88463 20.0187 6.88463 19.0801C6.88463 18.1414 7.12996 17.4081 7.62063 16.8801C8.1113 16.3467 8.77796 16.0801 9.62063 16.0801C10.4633 16.0801 11.13 16.3467 11.6206 16.8801C12.1113 17.4081 12.3566 18.1414 12.3566 19.0801C12.3566 20.0187 12.1113 20.7547 11.6206 21.2881ZM10.9646 19.0801C10.9646 17.8267 10.5166 17.2001 9.62063 17.2001C8.72463 17.2001 8.27663 17.8267 8.27663 19.0801C8.27663 20.3334 8.72463 20.9601 9.62063 20.9601C10.5166 20.9601 10.9646 20.3334 10.9646 19.0801Z" fill="#777B92"/>
<path fill-rule="evenodd" clip-rule="evenodd" d="M13.6835 21.3041C13.1822 20.7867 12.9315 20.0454 12.9315 19.0801C12.9315 18.1307 13.1742 17.3947 13.6595 16.8721C14.1448 16.3441 14.8222 16.0801 15.6915 16.0801C16.1075 16.0801 16.4702 16.1094 16.7795 16.1681C16.9075 16.1894 17.0115 16.2534 17.0915 16.3601C17.1715 16.4667 17.2115 16.5867 17.2115 16.7201V16.9761C17.2115 17.0881 17.1662 17.1761 17.0755 17.2401C16.9848 17.3041 16.8862 17.3227 16.7795 17.2961C16.4755 17.2161 16.1662 17.1761 15.8515 17.1761C15.3715 17.1761 14.9955 17.3387 14.7235 17.6641C14.4568 17.9894 14.3235 18.4614 14.3235 19.0801C14.3235 19.6881 14.4675 20.1601 14.7555 20.4961C15.0435 20.8321 15.4275 21.0001 15.9075 21.0001C16.2275 21.0001 16.5395 20.9601 16.8435 20.8801C16.9502 20.8534 17.0488 20.8721 17.1395 20.9361C17.2355 21.0001 17.2835 21.0881 17.2835 21.2001V21.4401C17.2835 21.5734 17.2408 21.6934 17.1555 21.8001C17.0755 21.9067 16.9715 21.9707 16.8435 21.9921C16.5288 22.0507 16.1635 22.0801 15.7475 22.0801C14.8728 22.0801 14.1848 21.8214 13.6835 21.3041Z" fill="#777B92"/>
<path fill-rule="evenodd" clip-rule="evenodd" d="M18.4893 22.0001C18.3826 22.0001 18.3026 21.9547 18.2493 21.8641C18.1959 21.7734 18.1933 21.6827 18.2413 21.5921L19.4973 19.1041C19.5133 19.0614 19.5133 19.0187 19.4973 18.9761L18.2813 16.5681C18.2333 16.4774 18.2359 16.3867 18.2893 16.2961C18.3426 16.2054 18.4226 16.1601 18.5293 16.1601H19.1133C19.2519 16.1601 19.3773 16.1974 19.4893 16.2721C19.6066 16.3467 19.6919 16.4481 19.7453 16.5761L20.4413 18.2481C20.4413 18.2534 20.4439 18.2561 20.4493 18.2561C20.4546 18.2561 20.4573 18.2534 20.4573 18.2481L21.1533 16.5761C21.2066 16.4481 21.2893 16.3467 21.4013 16.2721C21.5186 16.1974 21.6466 16.1601 21.7853 16.1601H22.3373C22.4386 16.1601 22.5159 16.2054 22.5693 16.2961C22.6279 16.3867 22.6333 16.4774 22.5853 16.5681L21.3693 18.9761C21.3533 19.0187 21.3533 19.0614 21.3693 19.1041L22.6253 21.5921C22.6733 21.6827 22.6679 21.7734 22.6093 21.8641C22.5559 21.9547 22.4786 22.0001 22.3773 22.0001H21.7613C21.6226 22.0001 21.4973 21.9627 21.3853 21.8881C21.2733 21.8081 21.1906 21.7041 21.1373 21.5761L20.4253 19.8321C20.4253 19.8267 20.4226 19.8241 20.4173 19.8241C20.4119 19.8241 20.4093 19.8267 20.4093 19.8321L19.6973 21.5761C19.6439 21.7041 19.5586 21.8081 19.4413 21.8881C19.3293 21.9627 19.2066 22.0001 19.0733 22.0001H18.4893Z" fill="#777B92"/>
</svg>
