<svg width="18" height="22" viewBox="0 0 18 22" fill="none" xmlns="http://www.w3.org/2000/svg">
<path d="M11 0C10.4477 0 10 0.447715 10 1C10 1.55228 10.4477 2 11 2H14.5858L9.29289 7.29289C8.90237 7.68342 8.90237 8.31658 9.29289 8.70711C9.68342 9.09763 10.3166 9.09763 10.7071 8.70711L16 3.41421V7C16 7.55228 16.4477 8 17 8C17.5523 8 18 7.55228 18 7V1C18 0.447715 17.5523 0 17 0H11Z" fill="#7887A5"/>
<path fill-rule="evenodd" clip-rule="evenodd" d="M0.830863 21.9808C0.37199 21.9808 0 21.6029 0 21.1367V14.4491C0 14.2908 0.0343666 14.1775 0.1031 14.1091C0.171833 14.0364 0.280997 14 0.430593 14H2.69879C3.36995 14 3.96429 14.1732 4.48181 14.5196C4.99933 14.8661 5.25809 15.5247 5.25809 16.4956C5.25809 17.1628 5.10849 17.6824 4.8093 18.0545C4.51011 18.4223 4.17251 18.6704 3.7965 18.7987C3.42453 18.927 3.09299 18.9912 2.80189 18.9912H1.66173V21.1367C1.66173 21.6029 1.28974 21.9808 0.830863 21.9808ZM2.61995 17.4836C2.87871 17.4836 3.09906 17.4109 3.281 17.2654C3.46698 17.12 3.55997 16.8634 3.55997 16.4956C3.55997 16.1235 3.46698 15.8626 3.281 15.7129C3.09501 15.5632 2.87466 15.4884 2.61995 15.4884H1.66173V17.4836H2.61995Z" fill="#7887A5"/>
<path fill-rule="evenodd" clip-rule="evenodd" d="M6.58019 21.9808C6.43059 21.9808 6.32143 21.9444 6.2527 21.8717C6.18396 21.799 6.1496 21.6835 6.1496 21.5253V14.4491C6.1496 14.2908 6.18396 14.1775 6.2527 14.1091C6.32143 14.0364 6.43059 14 6.58019 14H8.99394C9.73383 14 10.3605 14.154 10.874 14.4619C11.3915 14.7656 11.7817 15.2146 12.0445 15.8091C12.3113 16.4036 12.4447 17.1286 12.4447 17.984C12.4447 18.8436 12.3113 19.5707 12.0445 20.1652C11.7817 20.7597 11.3915 21.2109 10.874 21.5188C10.3605 21.8268 9.73383 21.9808 8.99394 21.9808H6.58019ZM8.99394 20.486C9.56806 20.486 10.0027 20.2743 10.2978 19.8508C10.593 19.4231 10.7406 18.8009 10.7406 17.984C10.7406 17.1713 10.593 16.5533 10.2978 16.1299C10.0027 15.7022 9.56806 15.4884 8.99394 15.4884H7.82345V20.486H8.99394Z" fill="#7887A5"/>
<path d="M13.6456 21.1559C13.6456 21.6221 14.0175 22 14.4764 22C14.9353 22 15.3073 21.6221 15.3073 21.1559V18.6512H17.2643C17.6706 18.6512 18 18.3165 18 17.9038C18 17.491 17.6706 17.1564 17.2643 17.1564H15.3073V15.4884H17.2674C17.672 15.4884 18 15.1552 18 14.7442C18 14.3332 17.673 14 17.2685 14H14.0761C13.9265 14 13.8174 14.0364 13.7487 14.1091C13.6799 14.1775 13.6456 14.2908 13.6456 14.4491V21.1559Z" fill="#7887A5"/>
</svg>
