<svg width="24" height="24" viewBox="0 0 24 24" fill="none" xmlns="http://www.w3.org/2000/svg">
<path fill-rule="evenodd" clip-rule="evenodd" d="M17 8C16.4477 8 16 7.55228 16 7C16 6.44772 16.4477 6 17 6C17.5523 6 18 6.44772 18 7C18 7.55228 17.5523 8 17 8Z" fill="#777B92"/>
<path fill-rule="evenodd" clip-rule="evenodd" d="M15.5859 1.99985C16.3669 1.2188 17.6333 1.2188 18.4143 1.99985L22.0001 5.58564C22.7811 6.36669 22.7811 7.63301 22.0001 8.41406L8.41431 21.9998C7.63326 22.7809 6.36693 22.7809 5.58588 21.9998L2.00009 18.4141C1.21904 17.633 1.21905 16.3667 2.00009 15.5856L15.5859 1.99985ZM17.0001 3.41406L12.4142 7.99997L13.7071 9.29289C14.0976 9.68342 14.0976 10.3166 13.7071 10.7071C13.3166 11.0976 12.6834 11.0976 12.2929 10.7071L11 9.41418L9.41418 11L9.70711 11.2929C10.0976 11.6834 10.0976 12.3166 9.70711 12.7071C9.31658 13.0976 8.68342 13.0976 8.29289 12.7071L7.99997 12.4142L6.41418 14L7.70711 15.2929C8.09763 15.6834 8.09763 16.3166 7.70711 16.7071C7.31658 17.0976 6.68342 17.0976 6.29289 16.7071L4.99997 15.4142L3.41431 16.9998L7.00009 20.5856L20.5859 6.99985L17.0001 3.41406Z" fill="#777B92"/>
</svg>
