<svg width="22" height="22" viewBox="0 0 22 22" fill="none" xmlns="http://www.w3.org/2000/svg">
<path d="M18.5 19.0002H3.5C2.84661 19.0082 2.21666 18.757 1.7481 18.3015C1.27953 17.8461 1.01053 17.2235 1 16.5702V4.43019C1.01053 3.77683 1.27953 3.15427 1.7481 2.69883C2.21666 2.24338 2.84661 1.99216 3.5 2.00019H8.1C8.24771 2.00116 8.39336 2.03485 8.5265 2.09882C8.65964 2.1628 8.77695 2.25547 8.87 2.37019L11.47 5.55019H18.47C18.796 5.54222 19.1204 5.59891 19.4244 5.71697C19.7285 5.83503 20.0061 6.01213 20.2413 6.23805C20.4765 6.46396 20.6647 6.73423 20.7949 7.03324C20.9251 7.33225 20.9948 7.65409 21 7.98019V16.5702C20.9895 17.2235 20.7205 17.8461 20.2519 18.3015C19.7833 18.757 19.1534 19.0082 18.5 19.0002ZM3 12.2602V16.5702C3.00377 16.6315 3.0198 16.6915 3.04714 16.7466C3.07448 16.8017 3.11259 16.8507 3.1592 16.8908C3.20581 16.9309 3.25998 16.9612 3.31852 16.98C3.37706 16.9988 3.43876 17.0056 3.5 17.0002H18.5C18.5612 17.0056 18.6229 16.9988 18.6815 16.98C18.74 16.9612 18.7942 16.9309 18.8408 16.8908C18.8874 16.8507 18.9255 16.8017 18.9529 16.7466C18.9802 16.6915 18.9962 16.6315 19 16.5702V7.98019C18.9962 7.91882 18.9802 7.85884 18.9529 7.80378C18.9255 7.74871 18.8874 7.69969 18.8408 7.6596C18.7942 7.61952 18.74 7.58918 18.6815 7.57039C18.6229 7.55159 18.5612 7.54473 18.5 7.55019H11C10.8523 7.54921 10.7066 7.51552 10.5735 7.45155C10.4404 7.38757 10.3231 7.2949 10.23 7.18019L7.63 4.00019H3.5C3.43876 3.99472 3.37706 4.00159 3.31852 4.02039C3.25998 4.03918 3.20581 4.06952 3.1592 4.1096C3.11259 4.14969 3.07448 4.19871 3.04714 4.25378C3.0198 4.30884 3.00377 4.36882 3 4.43019V12.2602Z" fill="#97A3BA"/>
</svg>
