<svg width="22" height="22" viewBox="0 0 22 22" fill="none" xmlns="http://www.w3.org/2000/svg">
<path d="M6.54076 7.0803C6.08803 7.29567 5.87831 7.87765 6.07234 8.38018L8.39657 14.4C8.69566 15.1747 9.67443 15.2066 10.014 14.4528L11 12.2638L11.986 14.4527C12.3256 15.2066 13.3043 15.1747 13.6034 14.4L15.9277 8.38018C16.1217 7.87765 15.912 7.29567 15.4592 7.0803C15.0065 6.86493 14.4822 7.09772 14.2882 7.60025L12.7214 11.6582L11.7977 9.60746C11.469 8.87781 10.531 8.87781 10.2023 9.60746L9.27857 11.6582L7.71181 7.60025C7.51779 7.09772 6.99349 6.86493 6.54076 7.0803Z" fill="#97A3BA"/>
<path fill-rule="evenodd" clip-rule="evenodd" d="M4 1C2.34315 1 1 2.34315 1 4V18C1 19.6569 2.34315 21 4 21H18C19.6569 21 21 19.6569 21 18V4C21 2.34315 19.6569 1 18 1H4ZM3 4C3 3.44772 3.44772 3 4 3H18C18.5523 3 19 3.44772 19 4V18C19 18.5523 18.5523 19 18 19H4C3.44772 19 3 18.5523 3 18V4Z" fill="#97A3BA"/>
</svg>
