<svg width="24" height="24" viewBox="0 0 24 24" fill="none" xmlns="http://www.w3.org/2000/svg">
<path fill-rule="evenodd" clip-rule="evenodd" d="M12.949 8.03353C12.3788 7.37943 12.0936 6.36264 12.0936 4.98316C12.0936 2.32902 13.2863 1.00195 15.6717 1.00195C15.9969 1.00195 16.3343 1.0355 16.6836 1.10258C17.033 1.16967 17.3241 1.26401 17.5571 1.38561C17.794 1.50301 17.9124 1.63509 17.9124 1.78184C17.9124 1.88667 17.8723 2.02503 17.792 2.19694C17.7117 2.36466 17.6153 2.51351 17.5028 2.64349C17.3944 2.77348 17.298 2.83847 17.2137 2.83847C17.1936 2.83847 17.1394 2.8175 17.0511 2.77557C16.8583 2.69171 16.6555 2.62253 16.4427 2.56802C16.2339 2.50932 15.9668 2.47997 15.6415 2.47997C15.0111 2.47997 14.5432 2.68962 14.238 3.10891C13.9369 3.52401 13.7863 4.15296 13.7863 4.99574C13.7863 5.83852 13.9389 6.47376 14.2441 6.90144C14.5493 7.32912 15.0071 7.54296 15.6175 7.54296C15.9347 7.54296 16.2098 7.50942 16.4427 7.44233C16.6796 7.37524 16.9105 7.28929 17.1354 7.18446C17.1475 7.18027 17.1836 7.16559 17.2438 7.14044C17.3041 7.11108 17.3482 7.09641 17.3763 7.09641C17.4808 7.09641 17.5811 7.1614 17.6775 7.29138C17.7739 7.41717 17.8522 7.56183 17.9124 7.72535C17.9727 7.88468 18.0028 7.99999 18.0028 8.07127C18.0028 8.27673 17.8703 8.45073 17.6052 8.59329C17.3442 8.73585 17.027 8.84277 16.6535 8.91405C16.2841 8.98114 15.9387 9.01468 15.6175 9.01468C14.4127 9.01468 13.5232 8.68764 12.949 8.03353Z" fill="#777B92"/>
<path fill-rule="evenodd" clip-rule="evenodd" d="M6.99512 3.02637C6.44283 3.02637 5.99512 2.57865 5.99512 2.02637C5.99512 1.47408 6.44283 1.02637 6.99512 1.02637C7.00667 1.02637 7.01817 1.02656 7.02963 1.02695L7.04421 1.02681H9.56217C9.71416 1.02681 9.82507 1.06239 9.89491 1.13356C9.96474 1.20473 9.99966 1.31776 9.99966 1.47265L9.99895 8.17049C9.99895 8.63671 9.45091 9.01465 8.9847 9.01465C8.51848 9.01465 7.9858 8.6367 7.9858 8.17049V3.02621H7.0435C7.03834 3.02621 7.03319 3.02609 7.02806 3.02584C7.01712 3.02619 7.00614 3.02637 6.99512 3.02637Z" fill="#777B92"/>
<path fill-rule="evenodd" clip-rule="evenodd" d="M15.7071 19.7071L12.7071 22.7071C12.3166 23.0976 11.6834 23.0976 11.2929 22.7071L8.29289 19.7071C7.90237 19.3166 7.90237 18.6834 8.29289 18.2929C8.68342 17.9024 9.31658 17.9024 9.70711 18.2929L11 19.5858V14C11 13.4477 11.4477 13 12 13C12.5523 13 13 13.4477 13 14V19.5858L14.2929 18.2929C14.6834 17.9024 15.3166 17.9024 15.7071 18.2929C16.0976 18.6834 16.0976 19.3166 15.7071 19.7071Z" fill="#777B92"/>
</svg>
