<svg width="18" height="22" viewBox="0 0 18 22" fill="none" xmlns="http://www.w3.org/2000/svg">
<path d="M11 0C10.4477 0 10 0.447715 10 1C10 1.55228 10.4477 2 11 2H14.5858L9.29289 7.29289C8.90237 7.68342 8.90237 8.31658 9.29289 8.70711C9.68342 9.09763 10.3166 9.09763 10.7071 8.70711L16 3.41421V7C16 7.55228 16.4477 8 17 8C17.5523 8 18 7.55228 18 7V1C18 0.447715 17.5523 0 17 0H11Z" fill="#7887A5"/>
<path d="M3.51821 22C2.3154 22 1.42733 21.6735 0.853993 21.0204C0.284664 20.3673 0 19.3522 0 17.9749C0 15.325 1.19078 14 3.57234 14C3.89709 14 4.23388 14.0335 4.58269 14.1005C4.93151 14.1675 5.22219 14.2616 5.45473 14.383C5.69128 14.5003 5.80956 14.6321 5.80956 14.7787C5.80956 14.8833 5.76946 15.0215 5.68928 15.1931C5.60909 15.3605 5.51286 15.5092 5.4006 15.6389C5.29235 15.7687 5.19612 15.8336 5.11193 15.8336C5.09188 15.8336 5.03776 15.8127 4.94955 15.7708C4.7571 15.6871 4.55463 15.618 4.34213 15.5636C4.13365 15.505 3.86702 15.4757 3.54227 15.4757C2.9128 15.4757 2.44571 15.685 2.141 16.1036C1.84029 16.5181 1.68994 17.146 1.68994 17.9874C1.68994 18.8289 1.8423 19.4631 2.14701 19.8901C2.45172 20.3171 2.90879 20.5306 3.51821 20.5306C3.83495 20.5306 4.10959 20.4971 4.34213 20.4301C4.57868 20.3632 4.80922 20.2773 5.03375 20.1727C5.04577 20.1685 5.08186 20.1538 5.142 20.1287C5.20214 20.0994 5.24624 20.0848 5.27431 20.0848C5.37855 20.0848 5.47878 20.1497 5.57501 20.2794C5.67123 20.405 5.74942 20.5494 5.80956 20.7127C5.8697 20.8718 5.89977 20.9869 5.89977 21.0581C5.89977 21.2632 5.76746 21.4369 5.50284 21.5793C5.24223 21.7216 4.92549 21.8284 4.55262 21.8995C4.18376 21.9665 3.83896 22 3.51821 22Z" fill="#7887A5"/>
<path d="M8.89476 22C8.38958 22 7.94454 21.9477 7.55964 21.843C7.17875 21.7342 6.88607 21.6023 6.68159 21.4474C6.48112 21.2925 6.38089 21.146 6.38089 21.0078C6.38089 20.899 6.41898 20.765 6.49516 20.606C6.57534 20.4469 6.66956 20.3108 6.77781 20.1978C6.88607 20.0806 6.97628 20.022 7.04845 20.022C7.09255 20.022 7.18677 20.0617 7.33111 20.1413C7.54761 20.2585 7.75209 20.3527 7.94454 20.4239C8.141 20.495 8.36552 20.5306 8.61811 20.5306C8.89876 20.5306 9.13532 20.4741 9.32776 20.3611C9.52422 20.2439 9.62245 20.0408 9.62245 19.752C9.62245 19.5845 9.57234 19.4401 9.4721 19.3187C9.37187 19.1973 9.24357 19.0947 9.0872 19.011C8.93084 18.9273 8.71834 18.8289 8.44972 18.7159L7.97461 18.5024C7.68593 18.3558 7.43735 18.1947 7.22887 18.0188C7.02439 17.843 6.856 17.6107 6.72369 17.3218C6.59539 17.033 6.53124 16.6792 6.53124 16.2606C6.53124 15.7499 6.65152 15.325 6.89208 14.9859C7.13264 14.6468 7.44537 14.3977 7.83027 14.2386C8.21517 14.0795 8.62813 14 9.06916 14C9.43 14 9.75677 14.0398 10.0494 14.1193C10.3421 14.1947 10.5707 14.293 10.735 14.4144C10.9034 14.5358 10.9876 14.6572 10.9876 14.7787C10.9876 14.8791 10.9556 15.0089 10.8914 15.168C10.8313 15.3229 10.7551 15.4589 10.6629 15.5761C10.5707 15.6934 10.4845 15.752 10.4043 15.752C10.3682 15.752 10.304 15.731 10.2118 15.6892C10.0635 15.6264 9.91313 15.5761 9.76078 15.5385C9.61243 15.4966 9.43 15.4757 9.2135 15.4757C8.84063 15.4757 8.58203 15.5385 8.43769 15.6641C8.29335 15.7855 8.22118 15.9299 8.22118 16.0973C8.22118 16.2899 8.26929 16.4511 8.36552 16.5808C8.46575 16.7106 8.59004 16.8174 8.73839 16.9011C8.89075 16.9848 9.10124 17.0811 9.36986 17.19C9.77481 17.37 10.1056 17.5416 10.3622 17.7049C10.6188 17.8639 10.8393 18.0942 11.0237 18.3956C11.2122 18.697 11.3064 19.0822 11.3064 19.551C11.3064 20.1245 11.1901 20.5955 10.9576 20.9639C10.729 21.3281 10.4323 21.5918 10.0675 21.7551C9.70665 21.9184 9.31574 22 8.89476 22Z" fill="#7887A5"/>
<path d="M14.0969 21.8744C14.1971 21.9079 14.3334 21.9246 14.5058 21.9246H15.0591C15.2275 21.9246 15.3618 21.9079 15.4621 21.8744C15.5663 21.8367 15.6305 21.776 15.6545 21.6923L17.9639 14.5149C17.988 14.4563 18 14.3893 18 14.314C18 14.1465 17.7855 14.0628 17.3565 14.0628H17.0317C16.6789 14.0628 16.4664 14.1737 16.3943 14.3956L14.9148 19.2245L14.7945 19.6138H14.7524L14.6321 19.2245L13.1888 14.3956C13.1246 14.1737 12.9141 14.0628 12.5573 14.0628H12.2085C11.7715 14.0628 11.553 14.1465 11.553 14.314C11.553 14.3475 11.569 14.4144 11.6011 14.5149L13.9105 21.6923C13.9345 21.776 13.9967 21.8367 14.0969 21.8744Z" fill="#7887A5"/>
</svg>
