<svg width="24" height="24" viewBox="0 0 24 24" fill="none" xmlns="http://www.w3.org/2000/svg">
<g clip-path="url(#clip0_7259_23)">
<path fill-rule="evenodd" clip-rule="evenodd" d="M18 1H23C23.5523 1 24 1.44772 24 2V7C24 7.55228 23.5523 8 23 8C22.4477 8 22 7.55228 22 7V4.41421L17.7071 8.70711C17.3166 9.09763 16.6834 9.09763 16.2929 8.70711C15.9024 8.31658 15.9024 7.68342 16.2929 7.29289L20.5858 3H18C17.4477 3 17 2.55228 17 2C17 1.44772 17.4477 1 18 1Z" fill="#777B92"/>
<path fill-rule="evenodd" clip-rule="evenodd" d="M7.80693 22.9058C7.65494 22.9058 7.54403 22.8702 7.4742 22.7991C7.40437 22.7279 7.36945 22.6149 7.36945 22.46V15.8442C7.36945 15.3779 7.74739 15 8.21361 15C8.67982 15 9.05777 15.3779 9.05777 15.8442V21.4427H11.0127C11.4168 21.4427 11.7443 21.7702 11.7443 22.1743C11.7443 22.5783 11.4168 22.9058 11.0127 22.9058H7.80693Z" fill="#777B92"/>
<path fill-rule="evenodd" clip-rule="evenodd" d="M0.683954 22.9246C0.227985 22.9246 0 22.8535 0 22.7111C0 22.64 0.0349166 22.5479 0.10475 22.4349L2.36611 18.8305L0.357381 15.5589C0.287548 15.4291 0.252632 15.3349 0.252632 15.2763C0.252632 15.2135 0.310141 15.1633 0.42516 15.1256C0.544288 15.0837 0.71887 15.0628 0.948909 15.0628H1.39872C1.75199 15.0628 1.9697 15.134 2.05186 15.2763L3.3027 17.3548L4.61515 15.2763C4.67677 15.1926 4.75892 15.1361 4.86162 15.1068C4.96842 15.0774 5.11014 15.0628 5.28678 15.0628H5.71194C6.17202 15.0628 6.40205 15.134 6.40205 15.2763C6.40205 15.3558 6.36714 15.45 6.2973 15.5589L4.22696 18.8556L6.41438 22.4349C6.4801 22.5395 6.51297 22.6316 6.51297 22.7111C6.51297 22.8535 6.28293 22.9246 5.82285 22.9246H5.39769C5.22105 22.9246 5.07933 22.91 4.97253 22.8807C4.86573 22.8514 4.78973 22.7949 4.74454 22.7111L3.28421 20.3124L1.76842 22.7111C1.71091 22.8074 1.63286 22.8681 1.53427 22.8932C1.43979 22.9142 1.29602 22.9246 1.10295 22.9246H0.683954Z" fill="#777B92"/>
<path fill-rule="evenodd" clip-rule="evenodd" d="M14.7266 23C14.209 23 13.753 22.9477 13.3587 22.843C12.9684 22.7342 12.6686 22.6023 12.4591 22.4474C12.2537 22.2925 12.151 22.146 12.151 22.0078C12.151 21.899 12.19 21.765 12.268 21.606C12.3502 21.4469 12.4467 21.3108 12.5576 21.1978C12.6685 21.0806 12.761 21.022 12.8349 21.022C12.8801 21.022 12.9766 21.0617 13.1245 21.1413C13.3463 21.2585 13.5558 21.3527 13.753 21.4239C13.9543 21.495 14.1843 21.5306 14.4431 21.5306C14.7307 21.5306 14.973 21.4741 15.1702 21.3611C15.3715 21.2439 15.4721 21.0408 15.4721 20.752C15.4721 20.5845 15.4208 20.4401 15.3181 20.3187C15.2154 20.1973 15.084 20.0947 14.9237 20.011C14.7635 19.9273 14.5458 19.8289 14.2706 19.7159L13.7838 19.5024C13.4881 19.3558 13.2334 19.1947 13.0198 19.0188C12.8103 18.843 12.6377 18.6107 12.5022 18.3218C12.3707 18.033 12.305 17.6792 12.305 17.2606C12.305 16.7499 12.4282 16.325 12.6747 15.9859C12.9212 15.6468 13.2416 15.3977 13.6359 15.2386C14.0303 15.0795 14.4534 15 14.9053 15C15.275 15 15.6098 15.0398 15.9096 15.1193C16.2095 15.1947 16.4436 15.293 16.6121 15.4144C16.7846 15.5358 16.8709 15.6572 16.8709 15.7787C16.8709 15.8791 16.838 16.0089 16.7723 16.168C16.7107 16.3229 16.6326 16.4589 16.5381 16.5761C16.4436 16.6934 16.3553 16.752 16.2732 16.752C16.2362 16.752 16.1705 16.731 16.076 16.6892C15.924 16.6264 15.77 16.5761 15.6139 16.5385C15.4619 16.4966 15.275 16.4757 15.0531 16.4757C14.6711 16.4757 14.4062 16.5385 14.2583 16.6641C14.1104 16.7855 14.0365 16.9299 14.0365 17.0973C14.0365 17.2899 14.0858 17.4511 14.1843 17.5808C14.287 17.7106 14.4144 17.8174 14.5664 17.9011C14.7225 17.9848 14.9381 18.0811 15.2134 18.19C15.6282 18.37 15.9671 18.5416 16.23 18.7049C16.4929 18.8639 16.7189 19.0942 16.9078 19.3956C17.1009 19.697 17.1974 20.0822 17.1974 20.551C17.1974 21.1245 17.0783 21.5955 16.8401 21.9639C16.6059 22.3281 16.3019 22.5918 15.9281 22.7551C15.5584 22.9184 15.1579 23 14.7266 23Z" fill="#777B92"/>
<path fill-rule="evenodd" clip-rule="evenodd" d="M18.171 22.9246C17.715 22.9246 17.487 22.8535 17.487 22.7111C17.487 22.64 17.522 22.5479 17.5918 22.4349L19.8531 18.8305L17.8444 15.5589C17.7746 15.4291 17.7397 15.3349 17.7397 15.2763C17.7397 15.2135 17.7972 15.1633 17.9122 15.1256C18.0313 15.0837 18.2059 15.0628 18.4359 15.0628H18.8858C19.239 15.0628 19.4567 15.134 19.5389 15.2763L20.7897 17.3548L22.1022 15.2763C22.1638 15.1926 22.246 15.1361 22.3487 15.1068C22.4555 15.0774 22.5972 15.0628 22.7738 15.0628H23.199C23.6591 15.0628 23.8891 15.134 23.8891 15.2763C23.8891 15.3558 23.8542 15.45 23.7843 15.5589L21.714 18.8556L23.9014 22.4349C23.9671 22.5395 24 22.6316 24 22.7111C24 22.8535 23.77 22.9246 23.3099 22.9246H22.8847C22.7081 22.9246 22.5664 22.91 22.4596 22.8807C22.3528 22.8514 22.2768 22.7949 22.2316 22.7111L20.7712 20.3124L19.2555 22.7111C19.1979 22.8074 19.1199 22.8681 19.0213 22.8932C18.9268 22.9142 18.7831 22.9246 18.59 22.9246H18.171Z" fill="#777B92"/>
</g>
<defs>
<clipPath id="clip0_7259_23">
<rect width="24" height="24" fill="white"/>
</clipPath>
</defs>
</svg>
