<svg width="22" height="22" viewBox="0 0 22 22" fill="none" xmlns="http://www.w3.org/2000/svg">
<path d="M10.0019 12.0622C10.0006 12.0416 10 12.0208 10 12V4C10 3.73478 10.1054 3.48043 10.2929 3.29289C10.4804 3.10536 10.7348 3 11 3C11.2652 3 11.5196 3.10536 11.7071 3.29289C11.8946 3.48043 12 3.73478 12 4V12C12 12.0025 12 12.0049 12 12.0074L14.4004 10.2C14.6126 10.0409 14.8793 9.97255 15.1419 10.0101C15.4044 10.0476 15.6413 10.1878 15.8004 10.4C15.9596 10.6122 16.0279 10.8789 15.9904 11.1414C15.9529 11.404 15.8126 11.6409 15.6004 11.8L11.6004 14.8C11.4273 14.9298 11.2168 15 11.0004 15C10.7931 15.0016 10.5904 14.9387 10.4204 14.82L6.42044 12C6.20485 11.8471 6.05858 11.615 6.01361 11.3545C5.96864 11.0941 6.02862 10.8264 6.18044 10.61C6.25623 10.5019 6.35268 10.4098 6.46424 10.3391C6.57581 10.2684 6.70026 10.2206 6.83042 10.1982C6.96059 10.1759 7.09388 10.1796 7.22261 10.2091C7.35134 10.2386 7.47296 10.2933 7.58044 10.37L10.0019 12.0622Z" fill="#97A3BA"/>
<path d="M3 18C3 18.5523 3.44772 19 4 19H18C18.5523 19 19 18.5523 19 18V16C19 15.4477 18.5523 15 18 15C17.4477 15 17 15.4477 17 16V17H5V16C5 15.4477 4.55228 15 4 15C3.44772 15 3 15.4477 3 16V18Z" fill="#97A3BA"/>
</svg>
