<svg width="24" height="24" viewBox="0 0 24 24" fill="none" xmlns="http://www.w3.org/2000/svg">
<path fill-rule="evenodd" clip-rule="evenodd" d="M15 2H20C20.5523 2 21 2.44772 21 3V8C21 8.55228 20.5523 9 20 9C19.4477 9 19 8.55228 19 8V5.41421L13.7071 10.7071C13.3166 11.0976 12.6834 11.0976 12.2929 10.7071C11.9024 10.3166 11.9024 9.68342 12.2929 9.29289L17.5858 4H15C14.4477 4 14 3.55228 14 3C14 2.44772 14.4477 2 15 2Z" fill="#777B92"/>
<path fill-rule="evenodd" clip-rule="evenodd" d="M15.2399 17.8554C15.2171 17.6262 15.1186 17.4482 14.9444 17.3213C14.7721 17.1944 14.5391 17.1309 14.2455 17.1309C13.9444 17.1309 13.7133 17.1925 13.5524 17.3156C13.3914 17.4387 13.3109 17.594 13.3109 17.7815C13.3071 17.9899 13.3961 18.148 13.5779 18.2559C13.7616 18.362 13.9794 18.4444 14.2313 18.5031L14.7541 18.6281C15.0912 18.7039 15.3904 18.8137 15.6518 18.9577C15.915 19.1016 16.1215 19.2872 16.2711 19.5145C16.4226 19.7398 16.4984 20.0145 16.4984 20.3383C16.4965 20.8705 16.2967 21.2948 15.8989 21.6111C15.5031 21.9255 14.9501 22.0827 14.2399 22.0827C13.5334 22.0827 12.97 21.9217 12.5495 21.5997C12.1291 21.2777 11.9113 20.8023 11.8961 20.1736H13.0864C13.1073 20.4652 13.2219 20.6849 13.4302 20.8327C13.6404 20.9785 13.9056 21.0514 14.2256 21.0514C14.5381 21.0514 14.7872 20.9851 14.9728 20.8525C15.1603 20.72 15.255 20.5476 15.2569 20.3355C15.255 20.1385 15.1688 19.987 14.9984 19.8809C14.8279 19.7749 14.5846 19.684 14.2683 19.6082L13.6347 19.4491C13.1442 19.3317 12.7569 19.1452 12.4728 18.8895C12.1887 18.6338 12.0476 18.2919 12.0495 17.8639C12.0476 17.5116 12.1414 17.2039 12.3308 16.9406C12.5221 16.6755 12.7844 16.47 13.1177 16.3241C13.451 16.1764 13.8298 16.1025 14.2541 16.1025C14.6859 16.1025 15.0628 16.1764 15.3847 16.3241C15.7086 16.4719 15.9605 16.6774 16.1404 16.9406C16.3203 17.2039 16.4131 17.5088 16.4188 17.8554H15.2399Z" fill="#777B92"/>
<path fill-rule="evenodd" clip-rule="evenodd" d="M3.8325 18.165H3.87795L5.05693 16.1821H6.44613L4.67057 19.0912L6.48591 22.0003H5.07113L3.87795 20.0145H3.8325L2.63932 22.0003H1.23022L3.05125 19.0912L1.26432 16.1821H2.6592L3.8325 18.165Z" fill="#777B92"/>
<path fill-rule="evenodd" clip-rule="evenodd" d="M8.61466 16.1821V20.9861H11.109V22.0003H7.38454V16.1821H8.61466Z" fill="#777B92"/>
<path fill-rule="evenodd" clip-rule="evenodd" d="M19.8125 18.165H19.858L21.0369 16.1821H22.4261L20.6506 19.0912L22.4659 22.0003H21.0511L19.858 20.0145H19.8125L18.6193 22.0003H17.2102L19.0312 19.0912L17.2443 16.1821H18.6392L19.8125 18.165Z" fill="#777B92"/>
</svg>
