<svg width="22" height="22" viewBox="0 0 22 22" fill="none" xmlns="http://www.w3.org/2000/svg">
<path d="M9 13C9 13.5523 8.5523 14 8 14C7.4477 14 7 13.5523 7 13C7 12.4477 7.4477 12 8 12C8.5523 12 9 12.4477 9 13Z" fill="#7887A5"/>
<path d="M9 16C9 16.5523 8.5523 17 8 17C7.4477 17 7 16.5523 7 16C7 15.4477 7.4477 15 8 15C8.5523 15 9 15.4477 9 16Z" fill="#7887A5"/>
<path d="M11 14C11.5523 14 12 13.5523 12 13C12 12.4477 11.5523 12 11 12C10.4477 12 10 12.4477 10 13C10 13.5523 10.4477 14 11 14Z" fill="#7887A5"/>
<path d="M12 16C12 16.5523 11.5523 17 11 17C10.4477 17 10 16.5523 10 16C10 15.4477 10.4477 15 11 15C11.5523 15 12 15.4477 12 16Z" fill="#7887A5"/>
<path d="M14 14C14.5523 14 15 13.5523 15 13C15 12.4477 14.5523 12 14 12C13.4477 12 13 12.4477 13 13C13 13.5523 13.4477 14 14 14Z" fill="#7887A5"/>
<path d="M15 16C15 16.5523 14.5523 17 14 17C13.4477 17 13 16.5523 13 16C13 15.4477 13.4477 15 14 15C14.5523 15 15 15.4477 15 16Z" fill="#7887A5"/>
<path fill-rule="evenodd" clip-rule="evenodd" d="M18.74 7.33018L13.3 1.33018C13.2065 1.22658 13.0924 1.14368 12.9649 1.08688C12.8375 1.02998 12.6995 1.00048 12.56 1.00018H5.56C5.2277 0.996202 4.898 1.05768 4.5895 1.18118C4.281 1.30468 3.9999 1.48778 3.7622 1.71988C3.5245 1.95208 3.3348 2.22878 3.204 2.53418C3.0732 2.83968 3.0039 3.16788 3 3.50018V18.5002C3.0039 18.8324 3.0732 19.1607 3.204 19.4661C3.3348 19.7716 3.5245 20.0483 3.7622 20.2804C3.9999 20.5126 4.281 20.6956 4.5895 20.8191C4.898 20.9426 5.2277 21.0041 5.56 21.0002H16.44C16.7723 21.0041 17.102 20.9426 17.4105 20.8191C17.719 20.6956 18.0001 20.5126 18.2378 20.2804C18.4755 20.0483 18.6652 19.7716 18.796 19.4661C18.9268 19.1607 18.9961 18.8324 19 18.5002V8.00018C18.9994 7.75228 18.9067 7.51358 18.74 7.33018ZM13 4.00018L15.74 7.00018H13.74C13.6353 6.99388 13.5329 6.96668 13.4387 6.92038C13.3446 6.87408 13.2607 6.80948 13.1918 6.73028C13.1229 6.65118 13.0704 6.55918 13.0375 6.45958C13.0046 6.35988 12.9918 6.25478 13 6.15018V4.00018ZM16.44 19.0002H5.56C5.4904 19.0042 5.4206 18.9945 5.3548 18.9715C5.2889 18.9486 5.2282 18.9129 5.1762 18.8664C5.1242 18.82 5.0818 18.7637 5.0516 18.7009C5.0214 18.638 5.0038 18.5698 5 18.5002V3.50018C5.0038 3.43048 5.0214 3.36228 5.0516 3.29948C5.0818 3.23658 5.1242 3.18038 5.1762 3.13388C5.2282 3.08748 5.2889 3.05178 5.3548 3.02878C5.4206 3.00588 5.4904 2.99608 5.56 3.00018H11V6.15018C10.9839 6.88678 11.2598 7.59988 11.7675 8.13388C12.2752 8.66778 12.9735 8.97918 13.71 9.00018H17V18.5002C16.9962 18.5698 16.9786 18.638 16.9484 18.7009C16.9182 18.7637 16.8758 18.82 16.8238 18.8664C16.7718 18.9129 16.7111 18.9486 16.6452 18.9715C16.5794 18.9945 16.5096 19.0042 16.44 19.0002Z" fill="#7887A5"/>
</svg>
