<svg width="22" height="22" viewBox="0 0 22 22" fill="none" xmlns="http://www.w3.org/2000/svg">
<path d="M8.29289 11.2929C8.48043 11.1054 8.73478 11 9 11H13C13.2652 11 13.5196 11.1054 13.7071 11.2929C13.8946 11.4804 14 11.7348 14 12C14 12.2652 13.8946 12.5196 13.7071 12.7071C13.5196 12.8946 13.2652 13 13 13H9C8.73478 13 8.48043 12.8946 8.29289 12.7071C8.10536 12.5196 8 12.2652 8 12C8 11.7348 8.10536 11.4804 8.29289 11.2929Z" fill="#97A3BA"/>
<path fill-rule="evenodd" clip-rule="evenodd" d="M11.5 5.55019H18.5C19.1534 5.54217 19.7833 5.79338 20.2519 6.24883C20.7205 6.70427 20.9895 7.32683 21 7.98019V16.5702C20.9895 17.2235 20.7205 17.8461 20.2519 18.3015C19.7833 18.757 19.1534 19.0082 18.5 19.0002H3.5C2.84661 19.0082 2.21666 18.757 1.7481 18.3015C1.27953 17.8461 1.01053 17.2235 1 16.5702V4.43019C1.01053 3.77683 1.27953 3.15427 1.7481 2.69883C2.21666 2.24338 2.84661 1.99216 3.5 2.00019H8.1C8.24771 2.00116 8.39336 2.03485 8.5265 2.09882C8.65964 2.1628 8.77695 2.25547 8.87 2.37019L11.5 5.55019ZM18.9529 16.7266C18.9802 16.6715 18.9962 16.6115 19 16.5502V7.98019C18.9962 7.91882 18.9802 7.85884 18.9529 7.80378C18.9255 7.74871 18.8874 7.69969 18.8408 7.6596C18.7942 7.61952 18.74 7.58918 18.6815 7.57039C18.6229 7.55159 18.5612 7.54473 18.5 7.55019H11C10.8523 7.54921 10.7066 7.51552 10.5735 7.45155C10.4404 7.38757 10.3231 7.2949 10.23 7.18019L7.63 4.00019H3.5C3.43876 3.99472 3.37706 4.00159 3.31852 4.02039C3.25998 4.03918 3.20581 4.06952 3.1592 4.1096C3.11259 4.14969 3.07448 4.19871 3.04714 4.25378C3.0198 4.30884 3.00377 4.36882 3 4.43019V16.5502C3.00377 16.6115 3.0198 16.6715 3.04714 16.7266C3.07448 16.7817 3.11259 16.8307 3.1592 16.8708C3.20581 16.9109 3.25998 16.9412 3.31852 16.96C3.37706 16.9788 3.43876 16.9856 3.5 16.9802H18.5C18.5612 16.9856 18.6229 16.9788 18.6815 16.96C18.74 16.9412 18.7942 16.9109 18.8408 16.8708C18.8874 16.8307 18.9255 16.7817 18.9529 16.7266Z" fill="#97A3BA"/>
</svg>
