<svg width="22" height="22" viewBox="0 0 22 22" fill="none" xmlns="http://www.w3.org/2000/svg">
<path fill-rule="evenodd" clip-rule="evenodd" d="M10 13V14C10 14.5523 9.55228 15 9 15C8.44772 15 8 14.5523 8 14V8C8 7.44772 8.44772 7 9 7H12C13.6569 7 15 8.34315 15 10C15 11.6569 13.6569 13 12 13H10ZM10 11H12C12.5523 11 13 10.5523 13 10C13 9.44772 12.5523 9 12 9H10V11Z" fill="#97A3BA"/>
<path fill-rule="evenodd" clip-rule="evenodd" d="M1 4C1 2.34315 2.34315 1 4 1H18C19.6569 1 21 2.34315 21 4V18C21 19.6569 19.6569 21 18 21H4C2.34315 21 1 19.6569 1 18V4ZM4 3C3.44772 3 3 3.44772 3 4V18C3 18.5523 3.44772 19 4 19H18C18.5523 19 19 18.5523 19 18V4C19 3.44772 18.5523 3 18 3H4Z" fill="#97A3BA"/>
</svg>
