<svg width="24" height="24" viewBox="0 0 24 24" fill="none" xmlns="http://www.w3.org/2000/svg">
<path fill-rule="evenodd" clip-rule="evenodd" d="M15.2399 3.85538C15.2171 3.62621 15.1186 3.44818 14.9444 3.32129C14.7721 3.1944 14.5391 3.13095 14.2455 3.13095C13.9444 3.13095 13.7133 3.1925 13.5524 3.31561C13.3914 3.43871 13.3109 3.59402 13.3109 3.78152C13.3071 3.98985 13.3961 4.14799 13.5779 4.25595C13.7616 4.36201 13.9794 4.4444 14.2313 4.50311L14.7541 4.62811C15.0912 4.70387 15.3904 4.81371 15.6518 4.95765C15.915 5.10159 16.1215 5.2872 16.2711 5.51447C16.4226 5.73985 16.4984 6.01447 16.4984 6.33833C16.4965 6.87053 16.2967 7.29477 15.8989 7.61106C15.5031 7.92546 14.9501 8.08265 14.2399 8.08265C13.5334 8.08265 12.97 7.92167 12.5495 7.5997C12.1291 7.27773 11.9113 6.80235 11.8961 6.17356H13.0864C13.1073 6.46523 13.2219 6.68493 13.4302 6.83265C13.6404 6.97849 13.9056 7.0514 14.2256 7.0514C14.5381 7.0514 14.7872 6.98512 14.9728 6.85254C15.1603 6.71996 15.255 6.54761 15.2569 6.33549C15.255 6.13852 15.1688 5.98701 14.9984 5.88095C14.8279 5.77489 14.5846 5.68398 14.2683 5.60822L13.6347 5.44913C13.1442 5.33171 12.7569 5.14515 12.4728 4.88947C12.1887 4.63379 12.0476 4.29193 12.0495 3.8639C12.0476 3.51163 12.1414 3.20386 12.3308 2.94061C12.5221 2.67546 12.7844 2.46996 13.1177 2.32413C13.451 2.1764 13.8298 2.10254 14.2541 2.10254C14.6859 2.10254 15.0628 2.1764 15.3847 2.32413C15.7086 2.47186 15.9605 2.67735 16.1404 2.94061C16.3203 3.20386 16.4131 3.50879 16.4188 3.85538H15.2399Z" fill="#777B92"/>
<path fill-rule="evenodd" clip-rule="evenodd" d="M3.8325 4.16504H3.87795L5.05693 2.18208H6.44613L4.67057 5.09118L6.48591 8.00027H5.07113L3.87795 6.01447H3.8325L2.63932 8.00027H1.23022L3.05125 5.09118L1.26432 2.18208H2.6592L3.8325 4.16504Z" fill="#777B92"/>
<path fill-rule="evenodd" clip-rule="evenodd" d="M8.61466 2.18208V6.98606H11.109V8.00027H7.38454V2.18208H8.61466Z" fill="#777B92"/>
<path fill-rule="evenodd" clip-rule="evenodd" d="M19.8125 4.16504H19.858L21.0369 2.18208H22.4261L20.6506 5.09118L22.4659 8.00027H21.0511L19.858 6.01447H19.8125L18.6193 8.00027H17.2102L19.0312 5.09118L17.2443 2.18208H18.6392L19.8125 4.16504Z" fill="#777B92"/>
<path fill-rule="evenodd" clip-rule="evenodd" d="M13 12V18.5858L14.2929 17.2929C14.6834 16.9024 15.3166 16.9024 15.7071 17.2929C16.0976 17.6834 16.0976 18.3166 15.7071 18.7071L12.7071 21.7071C12.3166 22.0976 11.6834 22.0976 11.2929 21.7071L8.29289 18.7071C7.90237 18.3166 7.90237 17.6834 8.29289 17.2929C8.68342 16.9024 9.31658 16.9024 9.70711 17.2929L11 18.5858V12C11 11.4477 11.4477 11 12 11C12.5523 11 13 11.4477 13 12Z" fill="#777B92"/>
</svg>
