<svg width="24" height="24" viewBox="0 0 24 24" fill="none" xmlns="http://www.w3.org/2000/svg">
<path fill-rule="evenodd" clip-rule="evenodd" d="M9 6H11C11.5523 6 12 6.44772 12 7C12 7.55228 11.5523 8 11 8H9C8.44772 8 8 7.55228 8 7C8 6.44772 8.44772 6 9 6Z" fill="#777B92"/>
<path fill-rule="evenodd" clip-rule="evenodd" d="M8 11C8 10.4477 8.44772 10 9 10H11C11.5523 10 12 10.4477 12 11C12 11.5523 11.5523 12 11 12H9C8.44772 12 8 11.5523 8 11Z" fill="#777B92"/>
<path fill-rule="evenodd" clip-rule="evenodd" d="M6 2H18C19.1046 2 20 2.89543 20 4V20C20 21.1046 19.1046 22 18 22H6C4.89543 22 4 21.1046 4 20V4C4 2.89543 4.89543 2 6 2ZM14 4L6 4V20H14V4ZM16 20H18V4H16V20Z" fill="#777B92"/>
</svg>
