<svg width="22" height="22" viewBox="0 0 22 22" fill="none" xmlns="http://www.w3.org/2000/svg">
<path d="M8.35299 14.8095C7.96315 14.4939 7.88414 13.8969 8.17652 13.4762L9.89708 11L8.17652 8.52384C7.88414 8.10306 7.96315 7.50612 8.35299 7.19053C8.74283 6.87494 9.29588 6.96022 9.58826 7.381L11 9.41272L12.4117 7.381C12.7041 6.96022 13.2572 6.87494 13.647 7.19053C14.0369 7.50612 14.1159 8.10306 13.8235 8.52384L12.1029 11L13.8235 13.4762C14.1159 13.8969 14.0369 14.4939 13.647 14.8095C13.2572 15.1251 12.7041 15.0398 12.4117 14.619L11 12.5873L9.58826 14.619C9.29588 15.0398 8.74283 15.1251 8.35299 14.8095Z" fill="#97A3BA"/>
<path fill-rule="evenodd" clip-rule="evenodd" d="M1 4C1 2.34315 2.34315 1 4 1H18C19.6569 1 21 2.34315 21 4V18C21 19.6569 19.6569 21 18 21H4C2.34315 21 1 19.6569 1 18V4ZM4 3C3.44772 3 3 3.44772 3 4V18C3 18.5523 3.44772 19 4 19H18C18.5523 19 19 18.5523 19 18V4C19 3.44772 18.5523 3 18 3H4Z" fill="#97A3BA"/>
</svg>
