<svg width="22" height="22" viewBox="0 0 22 22" fill="none" xmlns="http://www.w3.org/2000/svg">
<path d="M10.2929 1.29289C10.4804 1.10536 10.7348 1 11 1C11.2652 1 11.5196 1.10536 11.7071 1.29289C11.8946 1.48043 12 1.73478 12 2V4C12 4.26522 11.8946 4.51957 11.7071 4.70711C11.5196 4.89464 11.2652 5 11 5C10.7348 5 10.4804 4.89464 10.2929 4.70711C10.1054 4.51957 10 4.26522 10 4V2C10 1.73478 10.1054 1.48043 10.2929 1.29289Z" fill="#97A3BA"/>
<path d="M18 10H20C20.2652 10 20.5196 10.1054 20.7071 10.2929C20.8946 10.4804 21 10.7348 21 11C21 11.2652 20.8946 11.5196 20.7071 11.7071C20.5196 11.8946 20.2652 12 20 12H18C17.7348 12 17.4804 11.8946 17.2929 11.7071C17.1054 11.5196 17 11.2652 17 11C17 10.7348 17.1054 10.4804 17.2929 10.2929C17.4804 10.1054 17.7348 10 18 10Z" fill="#97A3BA"/>
<path d="M5 11C5 10.7348 4.89464 10.4804 4.70711 10.2929C4.51957 10.1054 4.26522 10 4 10H2C1.73478 10 1.48043 10.1054 1.29289 10.2929C1.10536 10.4804 1 10.7348 1 11C1 11.2652 1.10536 11.5196 1.29289 11.7071C1.48043 11.8946 1.73478 12 2 12H4C4.26522 12 4.51957 11.8946 4.70711 11.7071C4.89464 11.5196 5 11.2652 5 11Z" fill="#97A3BA"/>
<path d="M4.49695 3.72403C4.76512 3.71653 5.0253 3.81587 5.22023 4.00019L6.72023 5.42019C6.90648 5.60755 7.01102 5.86101 7.01102 6.12519C7.01102 6.38938 6.90648 6.64283 6.72023 6.83019C6.62728 6.92769 6.5156 7.00541 6.39187 7.05868C6.26815 7.11195 6.13494 7.13968 6.00023 7.14019C5.86598 7.14494 5.73215 7.1226 5.60673 7.07449C5.48131 7.02639 5.36687 6.9535 5.27023 6.86019L3.83023 5.47019C3.6353 5.28587 3.52157 5.03165 3.51407 4.76348C3.50657 4.4953 3.60591 4.23513 3.79023 4.04019C3.97456 3.84526 4.22877 3.73153 4.49695 3.72403Z" fill="#97A3BA"/>
<path d="M15.9996 7.14024C16.2571 7.13921 16.5042 7.03892 16.6896 6.86024L18.1296 5.47024C18.3053 5.28669 18.4045 5.04316 18.4071 4.7891C18.4097 4.53505 18.3156 4.28953 18.1437 4.10241C17.9719 3.91528 17.7352 3.80058 17.4819 3.7816C17.2285 3.76263 16.9774 3.8408 16.7796 4.00024L15.3396 5.42024C15.1534 5.6076 15.0488 5.86105 15.0488 6.12524C15.0488 6.38942 15.1534 6.64287 15.3396 6.83024C15.5128 7.01295 15.7484 7.12365 15.9996 7.14024Z" fill="#97A3BA"/>
<path d="M10.2929 17.2929C10.4804 17.1054 10.7348 17 11 17C11.2652 17 11.5196 17.1054 11.7071 17.2929C11.8946 17.4804 12 17.7348 12 18V20C12 20.2652 11.8946 20.5196 11.7071 20.7071C11.5196 20.8946 11.2652 21 11 21C10.7348 21 10.4804 20.8946 10.2929 20.7071C10.1054 20.5196 10 20.2652 10 20V18C10 17.7348 10.1054 17.4804 10.2929 17.2929Z" fill="#97A3BA"/>
<path d="M16.7299 15.1401C16.5389 14.9558 16.2826 14.8548 16.0172 14.8595C15.7519 14.8642 15.4992 14.9741 15.3149 15.1651C15.1306 15.356 15.0296 15.6124 15.0343 15.8778C15.039 16.1431 15.1489 16.3958 15.3399 16.5801L16.7799 18.0001C16.9653 18.1788 17.2124 18.2791 17.4699 18.2801C17.6039 18.2809 17.7367 18.2547 17.8603 18.2032C17.984 18.1516 18.0961 18.0758 18.1899 17.9801C18.2836 17.8871 18.358 17.7765 18.4088 17.6547C18.4596 17.5328 18.4857 17.4021 18.4857 17.2701C18.4857 17.1381 18.4596 17.0074 18.4088 16.8855C18.358 16.7637 18.2836 16.6531 18.1899 16.5601L16.7299 15.1401Z" fill="#97A3BA"/>
<path d="M3.82998 16.5299L5.26998 15.1399V15.1699C5.46093 14.9855 5.71729 14.8846 5.98266 14.8893C6.24802 14.894 6.50065 15.0039 6.68498 15.1949C6.8693 15.3858 6.97022 15.6422 6.96553 15.9076C6.96085 16.1729 6.85093 16.4255 6.65998 16.6099L5.21998 17.9999C5.03509 18.1629 4.79649 18.252 4.54998 18.2499C4.41599 18.2507 4.28321 18.2245 4.15952 18.173C4.03584 18.1214 3.92377 18.0456 3.82998 17.9499C3.73625 17.8569 3.66186 17.7463 3.61109 17.6244C3.56032 17.5026 3.53418 17.3719 3.53418 17.2399C3.53418 17.1079 3.56032 16.9772 3.61109 16.8553C3.66186 16.7334 3.73625 16.6228 3.82998 16.5299Z" fill="#97A3BA"/>
</svg>
