<svg width="22" height="22" viewBox="0 0 22 22" fill="none" xmlns="http://www.w3.org/2000/svg">
<path fill-rule="evenodd" clip-rule="evenodd" d="M5.56 3.0056L11 3V6.15C10.9839 6.8866 11.2598 7.5997 11.7675 8.1337C12.2752 8.6676 12.9735 8.9791 13.71 9H17V11.8137C17.7782 12.316 18.446 12.8684 19 13.3961V8C18.9994 7.7522 18.9067 7.5134 18.74 7.33L13.3 1.33C13.2065 1.2264 13.0924 1.1435 12.9649 1.0867C12.8375 1.0299 12.6995 1.0003 12.56 1L5.56 1.0002C5.2277 0.99621 4.898 1.0579 4.5895 1.1817C4.281 1.3056 3.9999 1.4891 3.7622 1.7219C3.5245 1.9547 3.3348 2.2321 3.204 2.5384C3.0732 2.8447 3.0039 3.1738 3 3.507V13.3683C3.5565 12.8327 4.2232 12.2798 5 11.7807V3.507C5.0038 3.4371 5.0214 3.3688 5.0516 3.3057C5.0818 3.2427 5.1242 3.1863 5.1762 3.1397C5.2282 3.0932 5.2889 3.0573 5.3548 3.0343C5.4206 3.0113 5.4904 3.0015 5.56 3.0056ZM15.74 7L13 4V6.15C12.9918 6.2546 13.0046 6.3598 13.0375 6.4594C13.0704 6.559 13.1229 6.651 13.1918 6.7302C13.2607 6.8093 13.3446 6.8739 13.4387 6.9202C13.5329 6.9666 13.6353 6.9937 13.74 7H15.74Z" fill="#7887A5"/>
<path d="M13 16C13 17.1046 12.1046 18 11 18C9.8954 18 9 17.1046 9 16C9 14.8954 9.8954 14 11 14C12.1046 14 13 14.8954 13 16Z" fill="#7887A5"/>
<path fill-rule="evenodd" clip-rule="evenodd" d="M11.2159 21H11.016C6.3059 21 3.6109 17.1369 3.1071 16.3586C3.037 16.25 3 16.1269 3 16.0015C3 15.8762 3.037 15.753 3.1071 15.6445C3.8029 14.5734 6.3618 11.103 10.7841 11.003C15.5662 10.8745 18.3811 14.8519 18.8929 15.6445C18.9631 15.753 19 15.8762 19 16.0015C19 16.1269 18.9631 16.25 18.8929 16.3586C18.2051 17.4297 15.6382 20.9 11.2159 21ZM10.8293 13.0025C8.131 13.0635 6.2736 14.8069 5.3183 15.9982C6.251 17.1459 8.1968 19 11.016 19H11.1918C13.8788 18.9304 15.7343 17.1918 16.6815 16.0094C16.3344 15.5852 15.837 15.0503 15.201 14.5485C14.0833 13.6666 12.6285 12.9542 10.8378 13.0023L10.8293 13.0025Z" fill="#7887A5"/>
</svg>
