<svg width="22" height="22" viewBox="0 0 22 22" fill="none" xmlns="http://www.w3.org/2000/svg">
<path d="M12 9H13C13.2652 9 13.5196 9.10536 13.7071 9.29289C13.8946 9.48043 14 9.73478 14 10C14 10.2652 13.8946 10.5196 13.7071 10.7071C13.5196 10.8946 13.2652 11 13 11H12V12C12 12.2652 11.8946 12.5196 11.7071 12.7071C11.5196 12.8946 11.2652 13 11 13C10.7348 13 10.4804 12.8946 10.2929 12.7071C10.1054 12.5196 10 12.2652 10 12V11H9C8.73478 11 8.48043 10.8946 8.29289 10.7071C8.10536 10.5196 8 10.2652 8 10C8 9.73478 8.10536 9.48043 8.29289 9.29289C8.48043 9.10536 8.73478 9 9 9H10V8C10 7.73478 10.1054 7.48043 10.2929 7.29289C10.4804 7.10536 10.7348 7 11 7C11.2652 7 11.5196 7.10536 11.7071 7.29289C11.8946 7.48043 12 7.73478 12 8V9Z" fill="#97A3BA"/>
<path fill-rule="evenodd" clip-rule="evenodd" d="M11.5 3.55019H18.5C19.1534 3.54217 19.7833 3.79338 20.2519 4.24883C20.7205 4.70427 20.9895 5.32683 21 5.98019V14.5702C20.9895 15.2235 20.7205 15.8461 20.2519 16.3015C19.7833 16.757 19.1534 17.0082 18.5 17.0002H12V19H18C18.5523 19 19 19.4477 19 20C19 20.5523 18.5523 21 18 21H4C3.44772 21 3 20.5523 3 20C3 19.4477 3.44772 19 4 19H10V17.0002H3.5C2.84661 17.0082 2.21666 16.757 1.7481 16.3015C1.27953 15.8461 1.01053 15.2235 1 14.5702V2.43019C1.01053 1.77683 1.27953 1.15427 1.7481 0.698826C2.21666 0.243381 2.84661 -0.00783506 3.5 0.000186355H8.1C8.24771 0.00116314 8.39336 0.0348494 8.5265 0.0988242C8.65964 0.162799 8.77695 0.255473 8.87 0.370186L11.5 3.55019ZM18.9529 14.7266C18.9802 14.6715 18.9962 14.6115 19 14.5502V5.98019C18.9962 5.91882 18.9802 5.85884 18.9529 5.80378C18.9255 5.74871 18.8874 5.69969 18.8408 5.6596C18.7942 5.61952 18.74 5.58918 18.6815 5.57039C18.6229 5.55159 18.5612 5.54473 18.5 5.55019H11C10.8523 5.54921 10.7066 5.51552 10.5735 5.45155C10.4404 5.38757 10.3231 5.2949 10.23 5.18019L7.63 2.00019H3.5C3.43876 1.99472 3.37706 2.00159 3.31852 2.02039C3.25998 2.03918 3.20581 2.06952 3.1592 2.1096C3.11259 2.14969 3.07448 2.19871 3.04714 2.25378C3.0198 2.30884 3.00377 2.36882 3 2.43019V14.5502C3.00377 14.6115 3.0198 14.6715 3.04714 14.7266C3.07448 14.7817 3.11259 14.8307 3.1592 14.8708C3.20581 14.9109 3.25998 14.9412 3.31852 14.96C3.37706 14.9788 3.43876 14.9856 3.5 14.9802H18.5C18.5612 14.9856 18.6229 14.9788 18.6815 14.96C18.74 14.9412 18.7942 14.9109 18.8408 14.8708C18.8874 14.8307 18.9255 14.7817 18.9529 14.7266Z" fill="#97A3BA"/>
</svg>
