<svg width="24" height="24" viewBox="0 0 24 24" fill="none" xmlns="http://www.w3.org/2000/svg">
<path d="M9 7H15C15.5523 7 16 7.44772 16 8C16 8.55228 15.5523 9 15 9H9C8.44772 9 8 8.55228 8 8C8 7.44772 8.44772 7 9 7Z" fill="#777B92"/>
<path d="M8 12C8 11.4477 8.44772 11 9 11H15C15.5523 11 16 11.4477 16 12C16 12.5523 15.5523 13 15 13H9C8.44772 13 8 12.5523 8 12Z" fill="#777B92"/>
<path d="M9 15H15C15.5523 15 16 15.4477 16 16C16 16.5523 15.5523 17 15 17H9C8.44772 17 8 16.5523 8 16C8 15.4477 8.44772 15 9 15Z" fill="#777B92"/>
<path fill-rule="evenodd" clip-rule="evenodd" d="M6 2H18C19.1046 2 20 2.89543 20 4V20C20 21.1046 19.1046 22 18 22H6C4.89543 22 4 21.1046 4 20V4C4 2.89543 4.89543 2 6 2ZM6 4V20H18V4L6 4Z" fill="#777B92"/>
</svg>
