<svg width="24" height="24" viewBox="0 0 24 24" fill="none" xmlns="http://www.w3.org/2000/svg">
<g clip-path="url(#clip0_12626_1333)">
<path fill-rule="evenodd" clip-rule="evenodd" d="M4 3H8.58579C9.11622 3 9.62493 3.21071 10 3.58579L12.4142 6H19C20.1046 6 21 6.89543 21 8V10H22C23.6481 10 24.5888 11.8815 23.6 13.2L19.1 19.2C18.7223 19.7036 18.1295 20 17.5 20H3.99997C3.79012 20 3.59176 19.9695 3.40737 19.9135C3.28294 19.9691 3.14508 20 3 20C2.44772 20 2 19.5523 2 19V18.112C1.99515 18.0324 1.99508 17.9523 2 17.8721V5C2 3.89543 2.89543 3 4 3ZM19 10V8H12.4142C11.8838 8 11.3751 7.78929 11 7.41421L8.58579 5H4V14.6666L6.89997 10.8C7.27768 10.2964 7.87045 10 8.49997 10H19ZM4 18L17.5 18L22 12H8.49997L4 18Z" fill="#777B92"/>
</g>
<defs>
<clipPath id="clip0_12626_1333">
<rect width="24" height="24" fill="white"/>
</clipPath>
</defs>
</svg>
