<svg width="24" height="24" viewBox="0 0 24 24" fill="none" xmlns="http://www.w3.org/2000/svg">
<path fill-rule="evenodd" clip-rule="evenodd" d="M8.94871 8.68404L10.3021 12.7443L11.168 11.4456C11.3534 11.1674 11.6657 11.0003 12 11.0003C12.3344 11.0003 12.6466 11.1674 12.8321 11.4456L13.6979 12.7443L15.0513 8.68404C15.226 8.1601 15.7923 7.87694 16.3163 8.05159C16.8402 8.22624 17.1234 8.79256 16.9487 9.3165L14.9487 15.3165C14.8279 15.6788 14.5113 15.9407 14.1328 15.9914C13.7542 16.0421 13.3798 15.8728 13.168 15.555L12 13.803L10.8321 15.555C10.6202 15.8728 10.2458 16.0421 9.86729 15.9914C9.48874 15.9407 9.17212 15.6788 9.05134 15.3165L7.05134 9.3165C6.8767 8.79256 7.15986 8.22624 7.6838 8.05159C8.20774 7.87694 8.77406 8.1601 8.94871 8.68404Z" fill="#777B92"/>
<path fill-rule="evenodd" clip-rule="evenodd" d="M4 2H20C21.1046 2 22 2.89543 22 4V20C22 21.1046 21.1046 22 20 22H4C2.89543 22 2 21.1046 2 20V4C2 2.89543 2.89543 2 4 2ZM4 4V20H20V4L4 4Z" fill="#777B92"/>
</svg>
