<svg width="24" height="24" viewBox="0 0 24 24" fill="none" xmlns="http://www.w3.org/2000/svg">
<g clip-path="url(#clip0_7237_1)">
<path fill-rule="evenodd" clip-rule="evenodd" d="M7.80693 8.90581C7.65494 8.90581 7.54403 8.87022 7.4742 8.79906C7.40437 8.72789 7.36945 8.61486 7.36945 8.45997V1.84416C7.36945 1.37794 7.74739 1 8.21361 1C8.67982 1 9.05777 1.37794 9.05777 1.84416V7.4427H11.0127C11.4168 7.4427 11.7443 7.77023 11.7443 8.17425C11.7443 8.57828 11.4168 8.90581 11.0127 8.90581H7.80693Z" fill="#777B92"/>
<path fill-rule="evenodd" clip-rule="evenodd" d="M0.683954 8.92465C0.227985 8.92465 0 8.85348 0 8.71115C0 8.63998 0.0349166 8.54788 0.10475 8.43485L2.36611 4.83046L0.357381 1.55887C0.287548 1.42909 0.252632 1.3349 0.252632 1.2763C0.252632 1.2135 0.310141 1.16327 0.42516 1.12559C0.544288 1.08373 0.71887 1.06279 0.948909 1.06279H1.39872C1.75199 1.06279 1.9697 1.13396 2.05186 1.2763L3.3027 3.35479L4.61515 1.2763C4.67677 1.19257 4.75892 1.13605 4.86162 1.10675C4.96842 1.07745 5.11014 1.06279 5.28678 1.06279H5.71194C6.17202 1.06279 6.40205 1.13396 6.40205 1.2763C6.40205 1.35583 6.36714 1.45003 6.2973 1.55887L4.22696 4.85557L6.41438 8.43485C6.4801 8.53951 6.51297 8.63161 6.51297 8.71115C6.51297 8.85348 6.28293 8.92465 5.82285 8.92465H5.39769C5.22105 8.92465 5.07933 8.90999 4.97253 8.88069C4.86573 8.85139 4.78973 8.79487 4.74454 8.71115L3.28421 6.3124L1.76842 8.71115C1.71091 8.80743 1.63286 8.86813 1.53427 8.89325C1.43979 8.91418 1.29602 8.92465 1.10295 8.92465H0.683954Z" fill="#777B92"/>
<path fill-rule="evenodd" clip-rule="evenodd" d="M14.7266 9C14.209 9 13.753 8.94767 13.3587 8.84301C12.9684 8.73417 12.6686 8.6023 12.4591 8.44741C12.2537 8.29252 12.151 8.146 12.151 8.00785C12.151 7.89901 12.19 7.76504 12.268 7.60597C12.3502 7.44689 12.4467 7.31083 12.5576 7.1978C12.6685 7.08059 12.761 7.02198 12.8349 7.02198C12.8801 7.02198 12.9766 7.06175 13.1245 7.14129C13.3463 7.2585 13.5558 7.35269 13.753 7.42386C13.9543 7.49503 14.1843 7.53061 14.4431 7.53061C14.7307 7.53061 14.973 7.4741 15.1702 7.36107C15.3715 7.24385 15.4721 7.04082 15.4721 6.75196C15.4721 6.58451 15.4208 6.44008 15.3181 6.31868C15.2154 6.19728 15.084 6.09471 14.9237 6.01099C14.7635 5.92726 14.5458 5.82889 14.2706 5.71586L13.7838 5.50235C13.4881 5.35583 13.2334 5.19466 13.0198 5.01884C12.8103 4.84301 12.6377 4.61068 12.5022 4.32182C12.3707 4.03297 12.305 3.67923 12.305 3.2606C12.305 2.74987 12.4282 2.32496 12.6747 1.98587C12.9212 1.64678 13.2416 1.3977 13.6359 1.23862C14.0303 1.07954 14.4534 1 14.9053 1C15.275 1 15.6098 1.03977 15.9096 1.11931C16.2095 1.19466 16.4436 1.29304 16.6121 1.41444C16.7846 1.53585 16.8709 1.65725 16.8709 1.77865C16.8709 1.87912 16.838 2.0089 16.7723 2.16797C16.7107 2.32287 16.6326 2.45892 16.5381 2.57614C16.4436 2.69335 16.3553 2.75196 16.2732 2.75196C16.2362 2.75196 16.1705 2.73103 16.076 2.68917C15.924 2.62637 15.77 2.57614 15.6139 2.53846C15.4619 2.4966 15.275 2.47567 15.0531 2.47567C14.6711 2.47567 14.4062 2.53846 14.2583 2.66405C14.1104 2.78545 14.0365 2.92988 14.0365 3.09733C14.0365 3.2899 14.0858 3.45107 14.1843 3.58085C14.287 3.71062 14.4144 3.81737 14.5664 3.9011C14.7225 3.98482 14.9381 4.08111 15.2134 4.18995C15.6282 4.36996 15.9671 4.5416 16.23 4.70487C16.4929 4.86395 16.7189 5.09419 16.9078 5.3956C17.1009 5.69702 17.1974 6.08216 17.1974 6.55102C17.1974 7.12454 17.0783 7.5955 16.8401 7.96389C16.6059 8.3281 16.3019 8.59184 15.9281 8.7551C15.5584 8.91837 15.1579 9 14.7266 9Z" fill="#777B92"/>
<path fill-rule="evenodd" clip-rule="evenodd" d="M18.171 8.92465C17.715 8.92465 17.487 8.85348 17.487 8.71115C17.487 8.63998 17.522 8.54788 17.5918 8.43485L19.8531 4.83046L17.8444 1.55887C17.7746 1.42909 17.7397 1.3349 17.7397 1.2763C17.7397 1.2135 17.7972 1.16327 17.9122 1.12559C18.0313 1.08373 18.2059 1.06279 18.4359 1.06279H18.8858C19.239 1.06279 19.4567 1.13396 19.5389 1.2763L20.7897 3.35479L22.1022 1.2763C22.1638 1.19257 22.246 1.13605 22.3487 1.10675C22.4555 1.07745 22.5972 1.06279 22.7738 1.06279H23.199C23.6591 1.06279 23.8891 1.13396 23.8891 1.2763C23.8891 1.35583 23.8542 1.45003 23.7843 1.55887L21.714 4.85557L23.9014 8.43485C23.9671 8.53951 24 8.63161 24 8.71115C24 8.85348 23.77 8.92465 23.3099 8.92465H22.8847C22.7081 8.92465 22.5664 8.90999 22.4596 8.88069C22.3528 8.85139 22.2768 8.79487 22.2316 8.71115L20.7712 6.3124L19.2555 8.71115C19.1979 8.80743 19.1199 8.86813 19.0213 8.89325C18.9268 8.91418 18.7831 8.92465 18.59 8.92465H18.171Z" fill="#777B92"/>
<path fill-rule="evenodd" clip-rule="evenodd" d="M15.7071 19.7071L12.7071 22.7071C12.3166 23.0976 11.6834 23.0976 11.2929 22.7071L8.29289 19.7071C7.90237 19.3166 7.90237 18.6834 8.29289 18.2929C8.68342 17.9024 9.31658 17.9024 9.70711 18.2929L11 19.5858V14C11 13.4477 11.4477 13 12 13C12.5523 13 13 13.4477 13 14V19.5858L14.2929 18.2929C14.6834 17.9024 15.3166 17.9024 15.7071 18.2929C16.0976 18.6834 16.0976 19.3166 15.7071 19.7071Z" fill="#777B92"/>
</g>
<defs>
<clipPath id="clip0_7237_1">
<rect width="24" height="24" fill="white"/>
</clipPath>
</defs>
</svg>
