<svg width="16" height="16" viewBox="0 0 16 16" fill="none" xmlns="http://www.w3.org/2000/svg">
<path fill-rule="evenodd" clip-rule="evenodd" d="M3.5 4C3.5 2.067 5.067 0.5 7 0.5C8.933 0.5 10.5 2.067 10.5 4C10.5 5.933 8.933 7.5 7 7.5C5.067 7.5 3.5 5.933 3.5 4ZM7 1.5C5.61929 1.5 4.5 2.61929 4.5 4C4.5 5.38071 5.61929 6.5 7 6.5C8.38071 6.5 9.5 5.38071 9.5 4C9.5 2.61929 8.38071 1.5 7 1.5Z" fill="#777B92"/>
<path fill-rule="evenodd" clip-rule="evenodd" d="M15.3536 0.646447C15.5488 0.841709 15.5488 1.15829 15.3536 1.35355L13.3536 3.35355C13.2598 3.44732 13.1326 3.5 13 3.5C12.8674 3.5 12.7402 3.44732 12.6464 3.35355L11.6464 2.35355C11.4512 2.15829 11.4512 1.84171 11.6464 1.64645C11.8417 1.45118 12.1583 1.45118 12.3536 1.64645L13 2.29289L14.6464 0.646447C14.8417 0.451185 15.1583 0.451185 15.3536 0.646447Z" fill="#777B92"/>
<path fill-rule="evenodd" clip-rule="evenodd" d="M1.5 15C1.5 15.2761 1.27614 15.5 1 15.5C0.723858 15.5 0.5 15.2761 0.5 15C0.5 11.4101 3.41015 8.5 7 8.5C10.5899 8.5 13.5 11.4101 13.5 15C13.5 15.2761 13.2761 15.5 13 15.5C12.7239 15.5 12.5 15.2761 12.5 15C12.5 11.9624 10.0376 9.5 7 9.5C3.96243 9.5 1.5 11.9624 1.5 15Z" fill="#777B92"/>
</svg>
