<svg width="16" height="16" viewBox="0 0 16 16" fill="none" xmlns="http://www.w3.org/2000/svg">
<path fill-rule="evenodd" clip-rule="evenodd" d="M8 4.5C8.27614 4.5 8.5 4.72386 8.5 5V9C8.5 9.27614 8.27614 9.5 8 9.5C7.72386 9.5 7.5 9.27614 7.5 9V5C7.5 4.72386 7.72386 4.5 8 4.5Z" fill="#777B92"/>
<path fill-rule="evenodd" clip-rule="evenodd" d="M8.5 10.5C8.5 10.7761 8.27614 11 8 11C7.72386 11 7.5 10.7761 7.5 10.5C7.5 10.2239 7.72386 10 8 10C8.27614 10 8.5 10.2239 8.5 10.5Z" fill="#777B92"/>
<path fill-rule="evenodd" clip-rule="evenodd" d="M8.67001 0.776401L13.67 3.2764C14.1734 3.52809 14.5129 4.05288 14.4829 4.64363C14.1985 10.2303 10.2883 13.8399 8.84335 14.9927C8.34536 15.39 7.65301 15.39 7.15502 14.9927C5.7101 13.8399 1.79991 10.2303 1.51552 4.64363C1.48545 4.05288 1.82499 3.52809 2.32837 3.2764L7.32837 0.776401C7.75066 0.565255 8.24772 0.565256 8.67001 0.776401ZM7.77558 1.67083L2.77558 4.17083C2.60139 4.25792 2.50579 4.42698 2.51423 4.59279C2.77603 9.73576 6.39422 13.1064 7.77868 14.211C7.91184 14.3172 8.08653 14.3172 8.21969 14.211C9.60415 13.1064 13.2223 9.73576 13.4841 4.59279C13.4926 4.42698 13.397 4.25792 13.2228 4.17083L8.22279 1.67083C8.08203 1.60045 7.91634 1.60045 7.77558 1.67083Z" fill="#777B92"/>
</svg>
