<svg width="16" height="16" viewBox="0 0 16 16" fill="none" xmlns="http://www.w3.org/2000/svg">
<path fill-rule="evenodd" clip-rule="evenodd" d="M5.5 5C5.5 3.61929 6.61929 2.5 8 2.5C9.38071 2.5 10.5 3.61929 10.5 5C10.5 6.38071 9.38071 7.5 8 7.5C6.61929 7.5 5.5 6.38071 5.5 5ZM8 3.5C7.17157 3.5 6.5 4.17157 6.5 5C6.5 5.82843 7.17157 6.5 8 6.5C8.82843 6.5 9.5 5.82843 9.5 5C9.5 4.17157 8.82843 3.5 8 3.5Z" fill="#777B92"/>
<path fill-rule="evenodd" clip-rule="evenodd" d="M13.2661 13.3402C13.2552 13.352 13.2438 13.3632 13.2317 13.3739C11.8805 14.6896 10.0349 15.5 8 15.5C5.96789 15.5 4.12454 14.6918 2.77383 13.3793C2.75744 13.3652 2.74202 13.3501 2.72766 13.3341C1.35224 11.9745 0.5 10.0868 0.5 8C0.5 3.85786 3.85786 0.5 8 0.5C12.1421 0.5 15.5 3.85786 15.5 8C15.5 10.0899 14.6452 11.9802 13.2661 13.3402ZM8 1.5C4.41015 1.5 1.5 4.41015 1.5 8C1.5 9.508 2.01353 10.8961 2.87525 11.9988C3.67565 9.95081 5.66781 8.5 7.99969 8.5C10.3318 8.5 12.3241 9.95106 13.1243 11.9994C13.9863 10.8965 14.5 9.50824 14.5 8C14.5 4.41015 11.5899 1.5 8 1.5ZM12.3469 12.8327C11.833 10.9133 10.0809 9.5 7.99969 9.5C5.91867 9.5 4.16667 10.913 3.65257 12.8322C4.80421 13.869 6.32842 14.5 8 14.5C9.67134 14.5 11.1953 13.8692 12.3469 12.8327Z" fill="#777B92"/>
</svg>
