<svg width="16" height="16" viewBox="0 0 16 16" fill="none" xmlns="http://www.w3.org/2000/svg">
<path fill-rule="evenodd" clip-rule="evenodd" d="M10 0.5C10.8284 0.5 11.5 1.17157 11.5 2V3.5H12C12.2761 3.5 12.5 3.72386 12.5 4C12.5 4.27614 12.2761 4.5 12 4.5H11.4646C11.2219 6.19615 9.76324 7.5 8 7.5C6.23676 7.5 4.77806 6.19615 4.53544 4.5H4C3.72386 4.5 3.5 4.27614 3.5 4C3.5 3.72386 3.72386 3.5 4 3.5H4.5V1.99986C4.5 1.17134 5.17166 0.5 6 0.5H10ZM5.5 1.99986V3.5H10.5V2C10.5 1.72386 10.2761 1.5 10 1.5H9.5V2C9.5 2.27614 9.27614 2.5 9 2.5C8.72386 2.5 8.5 2.27614 8.5 2V1.5H7.5V2C7.5 2.27614 7.27614 2.5 7 2.5C6.72386 2.5 6.5 2.27614 6.5 2V1.5H6C5.72377 1.5 5.5 1.72381 5.5 1.99986ZM5.55001 4.5C5.78164 5.64112 6.79052 6.5 8 6.5C9.20948 6.5 10.2184 5.64112 10.45 4.5H5.55001Z" fill="#777B92"/>
<path fill-rule="evenodd" clip-rule="evenodd" d="M8 9.5C4.96243 9.5 2.5 11.9624 2.5 15C2.5 15.2761 2.27614 15.5 2 15.5C1.72386 15.5 1.5 15.2761 1.5 15C1.5 11.4101 4.41015 8.5 8 8.5C11.5899 8.5 14.5 11.4101 14.5 15C14.5 15.2761 14.2761 15.5 14 15.5C13.7239 15.5 13.5 15.2761 13.5 15C13.5 11.9624 11.0376 9.5 8 9.5Z" fill="#777B92"/>
</svg>
