<svg width="16" height="16" viewBox="0 0 16 16" fill="none" xmlns="http://www.w3.org/2000/svg">
<path fill-rule="evenodd" clip-rule="evenodd" d="M4.5 5C4.5 3.61929 5.61929 2.5 7 2.5C8.38071 2.5 9.5 3.61929 9.5 5C9.5 6.38071 8.38071 7.5 7 7.5C5.61929 7.5 4.5 6.38071 4.5 5ZM7 3.5C6.17157 3.5 5.5 4.17157 5.5 5C5.5 5.82843 6.17157 6.5 7 6.5C7.82843 6.5 8.5 5.82843 8.5 5C8.5 4.17157 7.82843 3.5 7 3.5Z" fill="#777B92"/>
<path fill-rule="evenodd" clip-rule="evenodd" d="M0.5 7C0.5 3.41015 3.41015 0.5 7 0.5C10.5899 0.5 13.5 3.41015 13.5 7C13.5 8.61495 12.911 10.0923 11.9362 11.2291L15.3536 14.6464C15.5488 14.8417 15.5488 15.1583 15.3536 15.3536C15.1583 15.5488 14.8417 15.5488 14.6464 15.3536L11.2291 11.9362C10.0923 12.911 8.61495 13.5 7 13.5C3.41015 13.5 0.5 10.5899 0.5 7ZM7 1.5C3.96243 1.5 1.5 3.96243 1.5 7C1.5 8.32975 1.9719 9.54928 2.75737 10.5003C3.76546 9.27942 5.29197 8.5 7.0004 8.5C8.70859 8.5 10.2349 9.27921 11.243 10.4998C12.0283 9.54887 12.5 8.32952 12.5 7C12.5 3.96243 10.0376 1.5 7 1.5ZM7 12.5C8.3458 12.5 9.5787 12.0166 10.5346 11.2141C9.7097 10.1692 8.43327 9.5 7.0004 9.5C5.56734 9.5 4.29076 10.1694 3.46591 11.2145C4.42171 12.0168 5.65443 12.5 7 12.5Z" fill="#777B92"/>
</svg>
