<svg width="16" height="16" viewBox="0 0 16 16" fill="none" xmlns="http://www.w3.org/2000/svg">
<path fill-rule="evenodd" clip-rule="evenodd" d="M13.2519 0.565878C13.4056 0.478041 13.5944 0.478041 13.7481 0.565878L15.2481 1.42302C15.4039 1.51204 15.5 1.67771 15.5 1.85714C15.5 2.98714 15.0755 3.87121 14.6596 4.4653C14.4515 4.76261 14.2431 4.99101 14.0851 5.14655C14.0059 5.2245 13.9388 5.28469 13.8898 5.32661C13.8654 5.34759 13.8454 5.36404 13.8307 5.3759L13.8127 5.39026L13.8068 5.39485L13.8046 5.3965L13.8037 5.39716L13.5 5L13.1966 5.39745L13.1954 5.3965L13.1932 5.39485L13.1873 5.39026L13.1693 5.3759C13.1546 5.36404 13.1346 5.34759 13.1102 5.32661C13.0612 5.28469 12.9941 5.2245 12.9149 5.14655C12.7569 4.99101 12.5485 4.76261 12.3404 4.4653C11.9245 3.87121 11.5 2.98714 11.5 1.85714C11.5 1.67771 11.5961 1.51204 11.7519 1.42302L13.2519 0.565878ZM13.5 4.31385C13.603 4.20279 13.7216 4.06152 13.8404 3.89184C14.1374 3.4676 14.4275 2.87747 14.4884 2.14065L13.5 1.57588L12.5116 2.14065C12.5725 2.87747 12.8626 3.4676 13.1596 3.89184C13.2784 4.06152 13.397 4.20279 13.5 4.31385Z" fill="#777B92"/>
<path d="M13.1966 5.39745C13.1966 5.39745 13.197 5.39772 13.5 5C13.803 5.39772 13.8037 5.39716 13.8037 5.39716C13.6247 5.53354 13.3756 5.53383 13.1966 5.39745Z" fill="#777B92"/>
<path fill-rule="evenodd" clip-rule="evenodd" d="M1.5 6C1.5 4.067 3.067 2.5 5 2.5C6.933 2.5 8.5 4.067 8.5 6C8.5 7.933 6.933 9.5 5 9.5C3.067 9.5 1.5 7.933 1.5 6ZM5 3.5C3.61929 3.5 2.5 4.61929 2.5 6C2.5 7.38071 3.61929 8.5 5 8.5C6.38071 8.5 7.5 7.38071 7.5 6C7.5 4.61929 6.38071 3.5 5 3.5Z" fill="#777B92"/>
<path d="M0.899916 13.3335C0.715753 13.5392 0.399655 13.5567 0.193892 13.3726C-0.0118717 13.1884 -0.0293821 12.8723 0.154781 12.6665C1.34426 11.3376 3.07443 10.5 4.99956 10.5C6.65923 10.5 8.17321 11.1219 9.32163 12.1451C9.94867 11.7372 10.6976 11.5 11.5006 11.5C13.5162 11.5 15.1828 12.9903 15.4602 14.9292C15.4993 15.2026 15.3094 15.4559 15.036 15.495C14.7626 15.5341 14.5093 15.3442 14.4702 15.0708C14.2623 13.6174 13.0116 12.5 11.5006 12.5C10.966 12.5 10.4648 12.6395 10.0306 12.8842C10.5021 13.4599 10.8767 14.1179 11.1296 14.8334C11.2216 15.0937 11.0851 15.3794 10.8248 15.4714C10.5644 15.5634 10.2788 15.427 10.1867 15.1666C9.43146 13.0298 7.39351 11.5 4.99956 11.5C3.37069 11.5 1.90772 12.2075 0.899916 13.3335Z" fill="#777B92"/>
<path fill-rule="evenodd" clip-rule="evenodd" d="M9.5 8.5C9.5 7.39543 10.3954 6.5 11.5 6.5C12.6046 6.5 13.5 7.39543 13.5 8.5C13.5 9.60457 12.6046 10.5 11.5 10.5C10.3954 10.5 9.5 9.60457 9.5 8.5ZM11.5 7.5C10.9477 7.5 10.5 7.94772 10.5 8.5C10.5 9.05228 10.9477 9.5 11.5 9.5C12.0523 9.5 12.5 9.05228 12.5 8.5C12.5 7.94772 12.0523 7.5 11.5 7.5Z" fill="#777B92"/>
</svg>
