<svg width="16" height="16" viewBox="0 0 16 16" fill="none" xmlns="http://www.w3.org/2000/svg">
<path fill-rule="evenodd" clip-rule="evenodd" d="M8 0.5C9.933 0.5 11.5 2.067 11.5 4C11.5 5.933 9.933 7.5 8 7.5C6.067 7.5 4.5 5.933 4.5 4C4.5 2.067 6.067 0.5 8 0.5ZM5.5 4C5.5 5.38071 6.61929 6.5 8 6.5C9.38071 6.5 10.5 5.38071 10.5 4C10.5 2.61929 9.38071 1.5 8 1.5C6.61929 1.5 5.5 2.61929 5.5 4Z" fill="#777B92"/>
<path fill-rule="evenodd" clip-rule="evenodd" d="M2.5 15C2.5 15.2761 2.27614 15.5 2 15.5C1.72386 15.5 1.5 15.2761 1.5 15C1.5 11.4101 4.41015 8.5 8 8.5C11.5899 8.5 14.5 11.4101 14.5 15C14.5 15.2761 14.2761 15.5 14 15.5C13.7239 15.5 13.5 15.2761 13.5 15C13.5 11.9624 11.0376 9.5 8 9.5C4.96243 9.5 2.5 11.9624 2.5 15Z" fill="#777B92"/>
</svg>
