<svg width="16" height="16" viewBox="0 0 16 16" fill="none" xmlns="http://www.w3.org/2000/svg">
<path fill-rule="evenodd" clip-rule="evenodd" d="M4 0.5H9.58579C9.98361 0.5 10.3651 0.658035 10.6464 0.93934L15.0607 5.35355C15.342 5.63486 15.5 6.01639 15.5 6.41421V14C15.5 14.2316 15.4475 14.4509 15.3538 14.6467C15.5488 14.842 15.5487 15.1584 15.3536 15.3536C15.1584 15.5487 14.842 15.5488 14.6467 15.3538C14.4509 15.4475 14.2316 15.5 14 15.5H2C1.17157 15.5 0.5 14.8284 0.5 14V4.5C0.5 4.22386 0.723858 4 1 4C1.27614 4 1.5 4.22386 1.5 4.5V14C1.5 14.2761 1.72386 14.5 2 14.5H4.5V12C4.5 11.1716 5.17157 10.5 6 10.5H8C8.27614 10.5 8.5 10.7239 8.5 11C8.5 11.2761 8.27614 11.5 8 11.5H6C5.72386 11.5 5.5 11.7239 5.5 12V14.5H10.5V13.5C10.5 13.2239 10.7239 13 11 13C11.2761 13 11.5 13.2239 11.5 13.5V14.5H13.7929L0.646447 1.35355C0.451184 1.15829 0.451184 0.841709 0.646447 0.646447C0.841709 0.451184 1.15829 0.451184 1.35355 0.646447L14.5 13.7929V6.41421C14.5 6.28161 14.4473 6.15443 14.3536 6.06066L9.93934 1.64645C9.84557 1.55268 9.71839 1.5 9.58579 1.5H5.5V2.5C5.5 2.77614 5.27614 3 5 3C4.72386 3 4.5 2.77614 4.5 2.5V1.5H4C3.72386 1.5 3.5 1.27614 3.5 1C3.5 0.723858 3.72386 0.5 4 0.5Z" fill="#777B92"/>
<path fill-rule="evenodd" clip-rule="evenodd" d="M8 5.5H9C9.27614 5.5 9.5 5.72386 9.5 6C9.5 6.27614 9.27614 6.5 9 6.5H8C7.72386 6.5 7.5 6.27614 7.5 6C7.5 5.72386 7.72386 5.5 8 5.5Z" fill="#777B92"/>
</svg>
