<svg width="16" height="16" viewBox="0 0 16 16" fill="none" xmlns="http://www.w3.org/2000/svg">
<path fill-rule="evenodd" clip-rule="evenodd" d="M7.99952 3.29274L9.93886 1.3534C10.5246 0.767617 11.4744 0.767615 12.0602 1.3534L14.646 3.93919C15.2317 4.52498 15.2318 5.47472 14.646 6.06051L12.7066 7.99985L14.3531 9.6463C14.5483 9.84156 14.5483 10.1581 14.3531 10.3534C14.1578 10.5487 13.8412 10.5487 13.646 10.3534L11.9995 8.70696L6.56716 14.1393C6.35776 14.3487 6.09106 14.4914 5.80068 14.5495L2.56845 15.196C1.51886 15.4059 0.593484 14.4805 0.8034 13.4309L1.44985 10.1987C1.50792 9.9083 1.65066 9.6416 1.86006 9.4322L7.29241 3.99985L5.64596 2.3534C5.4507 2.15814 5.4507 1.84156 5.64596 1.6463C5.84123 1.45103 6.15781 1.45103 6.35307 1.6463L7.99952 3.29274ZM10.646 2.06051L8.70662 3.99985L11.9995 7.29274L13.9389 5.3534C14.1341 5.15814 14.1341 4.84156 13.9389 4.6463L11.3531 2.06051C11.1578 1.86525 10.8412 1.86525 10.646 2.06051ZM11.2924 7.99985L7.99952 4.70696L2.56716 10.1393C2.49736 10.2091 2.44979 10.298 2.43043 10.3948L1.78398 13.627C1.71401 13.9769 2.02247 14.2854 2.37233 14.2154L5.60456 13.5689C5.70136 13.5496 5.79026 13.502 5.86006 13.4322L11.2924 7.99985Z" fill="#777B92"/>
</svg>
