<svg width="16" height="16" viewBox="0 0 16 16" fill="none" xmlns="http://www.w3.org/2000/svg">
<path fill-rule="evenodd" clip-rule="evenodd" d="M13.3536 3.35355C13.2598 3.44732 13.1326 3.5 13 3.5C12.8674 3.5 12.7402 3.44732 12.6464 3.35355L11.6464 2.35355C11.4512 2.15829 11.4512 1.84171 11.6464 1.64645C11.8417 1.45118 12.1583 1.45118 12.3536 1.64645L13 2.29289L14.6464 0.646447C14.8417 0.451184 15.1583 0.451184 15.3536 0.646447C15.5488 0.841709 15.5488 1.15829 15.3536 1.35355L13.3536 3.35355Z" fill="#777B92"/>
<path fill-rule="evenodd" clip-rule="evenodd" d="M6 2C6 2.55228 5.55228 3 5 3C4.44772 3 4 2.55228 4 2C4 1.44772 4.44772 1 5 1C5.55228 1 6 1.44772 6 2Z" fill="#777B92"/>
<path fill-rule="evenodd" clip-rule="evenodd" d="M8 6C8 6.55228 7.55228 7 7 7C6.44772 7 6 6.55228 6 6C6 5.44772 6.44772 5 7 5C7.55228 5 8 5.44772 8 6Z" fill="#777B92"/>
<path fill-rule="evenodd" clip-rule="evenodd" d="M10 7C9.44772 7 9 6.55228 9 6C9 5.44772 9.44772 5 10 5C10.5523 5 11 5.44772 11 6C11 6.55228 10.5523 7 10 7Z" fill="#777B92"/>
<path fill-rule="evenodd" clip-rule="evenodd" d="M9 10C9 10.5523 8.55228 11 8 11C7.44772 11 7 10.5523 7 10C7 9.44772 7.44772 9 8 9C8.55228 9 9 9.44772 9 10Z" fill="#777B92"/>
<path fill-rule="evenodd" clip-rule="evenodd" d="M11 11C10.4477 11 10 10.5523 10 10C10 9.44772 10.4477 9 11 9C11.5523 9 12 9.44772 12 10C12 10.5523 11.5523 11 11 11Z" fill="#777B92"/>
<path fill-rule="evenodd" clip-rule="evenodd" d="M15 10C15 10.5523 14.5523 11 14 11C13.4477 11 13 10.5523 13 10C13 9.44772 13.4477 9 14 9C14.5523 9 15 9.44772 15 10Z" fill="#777B92"/>
<path fill-rule="evenodd" clip-rule="evenodd" d="M8 3C7.44772 3 7 2.55228 7 2C7 1.44772 7.44772 1 8 1C8.55228 1 9 1.44772 9 2C9 2.55228 8.55228 3 8 3Z" fill="#777B92"/>
<path fill-rule="evenodd" clip-rule="evenodd" d="M0.5 2C0.5 1.72386 0.723858 1.5 1 1.5H2C2.27614 1.5 2.5 1.72386 2.5 2C2.5 2.27614 2.27614 2.5 2 2.5H1C0.723858 2.5 0.5 2.27614 0.5 2Z" fill="#777B92"/>
<path fill-rule="evenodd" clip-rule="evenodd" d="M1 5.5H4C4.27614 5.5 4.5 5.72386 4.5 6C4.5 6.27614 4.27614 6.5 4 6.5H1C0.723858 6.5 0.5 6.27614 0.5 6C0.5 5.72386 0.723858 5.5 1 5.5Z" fill="#777B92"/>
<path fill-rule="evenodd" clip-rule="evenodd" d="M0.5 10C0.5 9.72386 0.723858 9.5 1 9.5H5C5.27614 9.5 5.5 9.72386 5.5 10C5.5 10.2761 5.27614 10.5 5 10.5H1C0.723858 10.5 0.5 10.2761 0.5 10Z" fill="#777B92"/>
<path fill-rule="evenodd" clip-rule="evenodd" d="M1 13.5H15C15.2761 13.5 15.5 13.7239 15.5 14C15.5 14.2761 15.2761 14.5 15 14.5H1C0.723858 14.5 0.5 14.2761 0.5 14C0.5 13.7239 0.723858 13.5 1 13.5Z" fill="#777B92"/>
<path fill-rule="evenodd" clip-rule="evenodd" d="M12.5 7C12.5 6.72386 12.7239 6.5 13 6.5H15C15.2761 6.5 15.5 6.72386 15.5 7C15.5 7.27614 15.2761 7.5 15 7.5H13C12.7239 7.5 12.5 7.27614 12.5 7Z" fill="#777B92"/>
</svg>
