<svg width="16" height="16" viewBox="0 0 16 16" fill="none" xmlns="http://www.w3.org/2000/svg">
<path fill-rule="evenodd" clip-rule="evenodd" d="M14 3C13.4477 3 13 2.55228 13 2C13 1.44772 13.4477 1 14 1C14.5523 1 15 1.44772 15 2C15 2.55228 14.5523 3 14 3Z" fill="#777B92"/>
<path fill-rule="evenodd" clip-rule="evenodd" d="M11.6463 4.93919C12.2321 5.52497 12.2321 6.47472 11.6463 7.06051L10.3638 8.34296L10.3536 8.35355L10.343 8.36384L4.06051 14.6463C3.47472 15.2321 2.52498 15.2321 1.93919 14.6463L1.3534 14.0605C0.767617 13.4747 0.767615 12.525 1.3534 11.9392L8.93919 4.3534C9.52497 3.76762 10.4747 3.76762 11.0605 4.3534L11.6463 4.93919ZM7.99985 6.70696L2.06051 12.6463C1.86525 12.8416 1.86525 13.1581 2.06051 13.3534L2.6463 13.9392C2.84156 14.1345 3.15814 14.1345 3.3534 13.9392L9.29274 7.99985L7.99985 6.70696ZM9.99985 7.29274L10.9392 6.3534C11.1345 6.15814 11.1345 5.84156 10.9392 5.6463L10.3534 5.06051C10.1581 4.86525 9.84156 4.86525 9.6463 5.06051L8.70696 5.99985L9.99985 7.29274Z" fill="#777B92"/>
<path fill-rule="evenodd" clip-rule="evenodd" d="M8 2C8 2.55228 7.55228 3 7 3C6.44772 3 6 2.55228 6 2C6 1.44772 6.44772 1 7 1C7.55228 1 8 1.44772 8 2Z" fill="#777B92"/>
<path fill-rule="evenodd" clip-rule="evenodd" d="M13 9C13 8.44772 13.4477 8 14 8C14.5523 8 15 8.44772 15 9C15 9.55228 14.5523 10 14 10C13.4477 10 13 9.55228 13 9Z" fill="#777B92"/>
</svg>
