<svg width="16" height="16" viewBox="0 0 16 16" fill="none" xmlns="http://www.w3.org/2000/svg">
<path fill-rule="evenodd" clip-rule="evenodd" d="M11.5 8.83632C12.682 9.39781 13.5 10.6025 13.5 11.9994C13.5 13.9323 11.933 15.4994 10 15.4994C8.067 15.4994 6.5 13.9323 6.5 11.9994C6.5 10.6025 7.31804 9.39781 8.5 8.83632V2C8.5 1.17157 9.17157 0.5 10 0.5C10.8284 0.5 11.5 1.17157 11.5 2V8.83632ZM10 1.5C9.72386 1.5 9.5 1.72386 9.5 2V9C9.5 9.02899 9.49753 9.0574 9.4928 9.08503C9.5338 9.32098 9.39997 9.559 9.16662 9.64148C8.19495 9.98491 7.5 10.9116 7.5 11.9994C7.5 13.3801 8.61929 14.4994 10 14.4994C11.3807 14.4994 12.5 13.3801 12.5 11.9994C12.5 10.9116 11.805 9.98491 10.8334 9.64148C10.6 9.559 10.4662 9.32098 10.5072 9.08503C10.5025 9.0574 10.5 9.02899 10.5 9V2C10.5 1.72386 10.2761 1.5 10 1.5Z" fill="#777B92"/>
<path fill-rule="evenodd" clip-rule="evenodd" d="M2.5 2C2.5 1.72386 2.72386 1.5 3 1.5H7C7.27614 1.5 7.5 1.72386 7.5 2C7.5 2.27614 7.27614 2.5 7 2.5H3C2.72386 2.5 2.5 2.27614 2.5 2Z" fill="#777B92"/>
</svg>
