<svg width="16" height="16" viewBox="0 0 16 16" fill="none" xmlns="http://www.w3.org/2000/svg">
<path d="M12 1L13 3H15L13.5 5L14 7L12 6L10 7L10.5 5L9 3H11L12 1Z" fill="#777B92"/>
<path fill-rule="evenodd" clip-rule="evenodd" d="M2 5.5H6.88579C7.28361 5.5 7.66514 5.65804 7.94645 5.93934L10.0607 8.05355C10.342 8.33486 10.5 8.71639 10.5 9.11421V14C10.5 14.8284 9.82843 15.5 9 15.5H2C1.17157 15.5 0.5 14.8284 0.5 14V7C0.5 6.17157 1.17157 5.5 2 5.5ZM6.5 14.5V13C6.5 12.7239 6.27614 12.5 6 12.5H5C4.72386 12.5 4.5 12.7239 4.5 13V14.5H6.5ZM7.5 13V14.5H9C9.27614 14.5 9.5 14.2761 9.5 14V9.11421C9.5 8.98161 9.44732 8.85443 9.35355 8.76066L7.23934 6.64645C7.14557 6.55268 7.01839 6.5 6.88579 6.5H4.5V8C4.5 8.27614 4.72386 8.5 5 8.5H6C6.27614 8.5 6.5 8.72386 6.5 9C6.5 9.27614 6.27614 9.5 6 9.5H5C4.17157 9.5 3.5 8.82843 3.5 8V6.5H2C1.72386 6.5 1.5 6.72386 1.5 7V14C1.5 14.2761 1.72386 14.5 2 14.5H3.5V13C3.5 12.1716 4.17157 11.5 5 11.5H6C6.82843 11.5 7.5 12.1716 7.5 13Z" fill="#777B92"/>
</svg>
