<svg width="16" height="16" viewBox="0 0 16 16" fill="none" xmlns="http://www.w3.org/2000/svg">
<path fill-rule="evenodd" clip-rule="evenodd" d="M8 0.5C8.27614 0.5 8.5 0.723858 8.5 1V2C8.5 2.27614 8.27614 2.5 8 2.5C7.72386 2.5 7.5 2.27614 7.5 2V1C7.5 0.723858 7.72386 0.5 8 0.5Z" fill="#777B92"/>
<path fill-rule="evenodd" clip-rule="evenodd" d="M10.5 11.7422V14C10.5 14.8284 9.82843 15.5 9 15.5H7C6.17157 15.5 5.5 14.8284 5.5 14V11.7422C4.2949 10.9355 3.5 9.56086 3.5 8C3.5 5.51472 5.51472 3.5 8 3.5C10.4853 3.5 12.5 5.51472 12.5 8C12.5 9.56086 11.7051 10.9355 10.5 11.7422ZM6.49974 11.4838C6.49991 11.4892 6.5 11.4946 6.5 11.5V14C6.5 14.2761 6.72386 14.5 7 14.5H9C9.27614 14.5 9.5 14.2761 9.5 14V11.5C9.5 11.4946 9.50009 11.4892 9.50026 11.4838C9.49363 11.3047 9.58374 11.128 9.74964 11.0321C10.7971 10.4261 11.5 9.29486 11.5 8C11.5 6.067 9.933 4.5 8 4.5C6.067 4.5 4.5 6.067 4.5 8C4.5 9.29486 5.20291 10.4261 6.25036 11.0321C6.41626 11.128 6.50637 11.3047 6.49974 11.4838Z" fill="#777B92"/>
<path fill-rule="evenodd" clip-rule="evenodd" d="M14 7.5H15C15.2761 7.5 15.5 7.72386 15.5 8C15.5 8.27614 15.2761 8.5 15 8.5H14C13.7239 8.5 13.5 8.27614 13.5 8C13.5 7.72386 13.7239 7.5 14 7.5Z" fill="#777B92"/>
<path fill-rule="evenodd" clip-rule="evenodd" d="M0.5 8C0.5 7.72386 0.723858 7.5 1 7.5H2C2.27614 7.5 2.5 7.72386 2.5 8C2.5 8.27614 2.27614 8.5 2 8.5H1C0.723858 8.5 0.5 8.27614 0.5 8Z" fill="#777B92"/>
<path fill-rule="evenodd" clip-rule="evenodd" d="M2.85355 2.14645L3.85355 3.14645C4.04882 3.34171 4.04882 3.65829 3.85355 3.85355C3.65829 4.04882 3.34171 4.04882 3.14645 3.85355L2.14645 2.85355C1.95118 2.65829 1.95118 2.34171 2.14645 2.14645C2.34171 1.95118 2.65829 1.95118 2.85355 2.14645Z" fill="#777B92"/>
<path fill-rule="evenodd" clip-rule="evenodd" d="M13.8536 2.14645C14.0488 2.34171 14.0488 2.65829 13.8536 2.85355L12.8536 3.85355C12.6583 4.04882 12.3417 4.04882 12.1464 3.85355C11.9512 3.65829 11.9512 3.34171 12.1464 3.14645L13.1464 2.14645C13.3417 1.95118 13.6583 1.95118 13.8536 2.14645Z" fill="#777B92"/>
</svg>
