<svg width="16" height="16" viewBox="0 0 16 16" fill="none" xmlns="http://www.w3.org/2000/svg">
<path fill-rule="evenodd" clip-rule="evenodd" d="M8 0.5C10.4853 0.5 12.5 2.51472 12.5 5C12.5 6.34007 11.9142 7.54334 10.9848 8.36771L13.4667 14.8206C13.5381 15.0062 13.4927 15.2164 13.3512 15.356C13.2097 15.4957 12.9989 15.5382 12.8143 15.4644L8.00002 13.5387L3.18571 15.4644C3.00113 15.5382 2.79034 15.4957 2.64883 15.356C2.50732 15.2164 2.46198 15.0062 2.53334 14.8206L5.01523 8.36773C4.08577 7.54336 3.5 6.34009 3.5 5C3.5 2.51472 5.51472 0.5 8 0.5ZM4.5 5C4.5 6.933 6.067 8.5 8 8.5C9.933 8.5 11.5 6.933 11.5 5C11.5 3.067 9.933 1.5 8 1.5C6.067 1.5 4.5 3.067 4.5 5ZM10.1408 8.95911C9.50419 9.3041 8.77497 9.5 8 9.5C7.22504 9.5 6.49583 9.3041 5.85919 8.95913L3.8779 14.1105L7.81432 12.5359C7.93353 12.4882 8.0665 12.4882 8.18571 12.5359L12.1221 14.1105L10.1408 8.95911Z" fill="#777B92"/>
</svg>
