<svg width="16" height="16" viewBox="0 0 16 16" fill="none" xmlns="http://www.w3.org/2000/svg">
<path fill-rule="evenodd" clip-rule="evenodd" d="M0.5 1C0.5 0.723858 0.723858 0.5 1 0.5H6C6.27614 0.5 6.5 0.723858 6.5 1V5.79289L9.64645 2.64645C9.84171 2.45118 10.1583 2.45118 10.3536 2.64645L13.3536 5.64645C13.5488 5.84171 13.5488 6.15829 13.3536 6.35355L9.20613 10.501H15C15.2761 10.501 15.5 10.7248 15.5 11.001V15.0002C15.5 15.2764 15.2761 15.5002 15 15.5002H3.5C3.49445 15.5002 3.48892 15.5001 3.48341 15.5C1.83419 15.491 0.5 14.1513 0.5 12.5V1ZM5.73591 14.5002H14.5V11.501H8.5C8.41497 11.501 8.3349 11.4798 8.26479 11.4423L6.38634 13.3208C6.26046 13.7643 6.0351 14.166 5.73591 14.5002ZM5.5 9.5V5.5H1.5V9.5H5.5ZM10 3.70711L6.5 7.20711V11.7929L12.2929 6L10 3.70711ZM1.5 10.5V12.5C1.5 13.6046 2.39543 14.5 3.5 14.5C4.60457 14.5 5.5 13.6046 5.5 12.5V10.5H1.5ZM5.5 1.5H1.5V4.5H5.5V1.5Z" fill="#777B92"/>
</svg>
