<svg width="16" height="16" viewBox="0 0 16 16" fill="none" xmlns="http://www.w3.org/2000/svg">
<path fill-rule="evenodd" clip-rule="evenodd" d="M5 8C5 8.55228 4.55228 9 4 9C3.44772 9 3 8.55228 3 8C3 7.44772 3.44772 7 4 7C4.55228 7 5 7.44772 5 8Z" fill="#777B92"/>
<path fill-rule="evenodd" clip-rule="evenodd" d="M5 6C4.44772 6 4 5.55228 4 5C4 4.44772 4.44772 4 5 4C5.55228 4 6 4.44772 6 5C6 5.55228 5.55228 6 5 6Z" fill="#777B92"/>
<path fill-rule="evenodd" clip-rule="evenodd" d="M9 4C9 4.55228 8.55228 5 8 5C7.44772 5 7 4.55228 7 4C7 3.44772 7.44772 3 8 3C8.55228 3 9 3.44772 9 4Z" fill="#777B92"/>
<path fill-rule="evenodd" clip-rule="evenodd" d="M11 6C10.4477 6 10 5.55228 10 5C10 4.44772 10.4477 4 11 4C11.5523 4 12 4.44772 12 5C12 5.55228 11.5523 6 11 6Z" fill="#777B92"/>
<path fill-rule="evenodd" clip-rule="evenodd" d="M0.5 8C0.5 3.72386 3.72386 0.5 8 0.5C12.2761 0.5 15.5 3.72386 15.5 8C15.5 9.06297 15.2634 9.8187 14.772 10.3101C14.2837 10.7984 13.6394 10.9276 13.0662 10.9663C12.7778 10.9858 12.4813 10.9836 12.2069 10.9814L12.2022 10.9814C11.9193 10.9792 11.6592 10.9774 11.4132 10.9936C10.9137 11.0265 10.5773 11.1298 10.3536 11.3536C10.2434 11.4638 10.1684 11.672 10.1478 12.0726C10.138 12.2632 10.1411 12.4685 10.1454 12.6957L10.146 12.7252C10.15 12.9378 10.1544 13.169 10.1454 13.3948C10.1273 13.853 10.0533 14.3989 9.71108 14.8276C9.34665 15.2841 8.77136 15.5 8 15.5C3.86416 15.5 0.5 12.2824 0.5 8ZM8 1.5C4.27614 1.5 1.5 4.27614 1.5 8C1.5 11.7176 4.40385 14.5 8 14.5C8.58975 14.5 8.82002 14.3409 8.92954 14.2037C9.06133 14.0386 9.12969 13.772 9.14623 13.3552C9.154 13.1594 9.15013 12.9545 9.14595 12.733L9.1456 12.7145C9.14141 12.4924 9.1372 12.2524 9.1491 12.0212C9.17189 11.578 9.25665 11.0362 9.64645 10.6464C10.1327 10.1602 10.7764 10.0334 11.3474 9.99575C11.632 9.97698 11.9249 9.97924 12.1964 9.98134L12.2099 9.98144C12.4925 9.98362 12.7527 9.98526 12.9988 9.96862C13.4982 9.93487 13.8376 9.83034 14.0649 9.603C14.2891 9.3788 14.5 8.93703 14.5 8C14.5 4.27614 11.7239 1.5 8 1.5Z" fill="#777B92"/>
</svg>
