<svg width="16" height="16" viewBox="0 0 16 16" fill="none" xmlns="http://www.w3.org/2000/svg">
<path fill-rule="evenodd" clip-rule="evenodd" d="M5.5 3.5V2C5.5 1.17157 6.17157 0.5 7 0.5H9C9.82843 0.5 10.5 1.17157 10.5 2V3.5H14C14.8284 3.5 15.5 4.17157 15.5 5V14C15.5 14.8284 14.8284 15.5 14 15.5H2C1.17157 15.5 0.5 14.8284 0.5 14V5C0.5 4.17157 1.17157 3.5 2 3.5H5.5ZM6.5 2V3.5H9.5V2C9.5 1.72386 9.27614 1.5 9 1.5H7C6.72386 1.5 6.5 1.72386 6.5 2ZM5.5 4.5V14.5H10.5V4.5H5.5ZM4.5 14.5V4.5H2C1.72386 4.5 1.5 4.72386 1.5 5V14C1.5 14.2761 1.72386 14.5 2 14.5H4.5ZM11.5 14.5H14C14.2761 14.5 14.5 14.2761 14.5 14V5C14.5 4.72386 14.2761 4.5 14 4.5H11.5V14.5Z" fill="#777B92"/>
</svg>
