<svg width="24" height="24" viewBox="0 0 24 24" fill="none" xmlns="http://www.w3.org/2000/svg">
<path fill-rule="evenodd" clip-rule="evenodd" d="M16.7809 7.62473L9.56174 16.6486C8.76109 17.6495 7.23892 17.6495 6.43827 16.6486L3.21914 12.6247C2.87413 12.1935 2.94405 11.5642 3.37531 11.2192C3.80657 10.8742 4.43587 10.9441 4.78088 11.3753L8.00001 15.3993L15.2191 6.37534C15.5641 5.94408 16.1934 5.87416 16.6247 6.21917C17.056 6.56418 17.1259 7.19347 16.7809 7.62473Z" fill="#777B92"/>
<path fill-rule="evenodd" clip-rule="evenodd" d="M21.7809 7.62473L14.4788 16.7523C13.7342 17.6831 12.3458 17.76 11.5029 16.9171L11.2929 16.7071C10.9024 16.3166 10.9024 15.6835 11.2929 15.2929C11.6834 14.9024 12.3166 14.9024 12.7071 15.2929L12.9171 15.5029L20.2191 6.37534C20.5641 5.94408 21.1934 5.87416 21.6247 6.21917C22.056 6.56418 22.1259 7.19347 21.7809 7.62473Z" fill="#777B92"/>
</svg>
