<svg width="24" height="24" viewBox="0 0 24 24" fill="none" xmlns="http://www.w3.org/2000/svg">
<path fill-rule="evenodd" clip-rule="evenodd" d="M15 9C16.6569 9 18 10.3431 18 12C18 13.6569 16.6569 15 15 15C13.3431 15 12 13.6569 12 12C12 10.3431 13.3431 9 15 9ZM14 12C14 12.5523 14.4477 13 15 13C15.5523 13 16 12.5523 16 12C16 11.4477 15.5523 11 15 11C14.4477 11 14 11.4477 14 12Z" fill="#777B92"/>
<path fill-rule="evenodd" clip-rule="evenodd" d="M9 5H15C18.866 5 22 8.13401 22 12C22 15.866 18.866 19 15 19H9C5.13401 19 2 15.866 2 12C2 8.13401 5.13401 5 9 5ZM4 12C4 14.7614 6.23858 17 9 17H15C17.7614 17 20 14.7614 20 12C20 9.23858 17.7614 7 15 7H9C6.23858 7 4 9.23858 4 12Z" fill="#777B92"/>
</svg>
