<svg width="24" height="24" viewBox="0 0 24 24" fill="none" xmlns="http://www.w3.org/2000/svg">
<path fill-rule="evenodd" clip-rule="evenodd" d="M12 4C10.6759 4 9.42964 4.32091 8.33201 4.88832C7.84141 5.14194 7.23809 4.94982 6.98447 4.45922C6.73085 3.96861 6.92297 3.36529 7.41358 3.11168C8.78843 2.40095 10.3489 2 12 2C17.5228 2 22 6.47715 22 12C22 13.6511 21.599 15.2116 20.8883 16.5864C20.6347 17.077 20.0314 17.2691 19.5408 17.0155C19.0502 16.7619 18.8581 16.1586 19.1117 15.668C19.6791 14.5704 20 13.3241 20 12C20 7.58172 16.4183 4 12 4Z" fill="#777B92"/>
<path fill-rule="evenodd" clip-rule="evenodd" d="M4.45922 6.98447C4.94982 7.23809 5.14194 7.84141 4.88832 8.33201C4.32091 9.42964 4 10.6759 4 12C4 16.4183 7.58172 20 12 20C13.279 20 14.4852 19.7006 15.555 19.169C16.0495 18.9232 16.6497 19.1249 16.8955 19.6194C17.1413 20.114 16.9396 20.7142 16.445 20.96C15.1049 21.626 13.5947 22 12 22C6.47715 22 2 17.5228 2 12C2 10.3489 2.40095 8.78843 3.11168 7.41358C3.36529 6.92297 3.96861 6.73085 4.45922 6.98447Z" fill="#777B92"/>
<path fill-rule="evenodd" clip-rule="evenodd" d="M16.6402 8.2318C17.0645 8.58537 17.1218 9.21593 16.7682 9.64021L15.7682 10.8402C15.4147 11.2645 14.7841 11.3218 14.3598 10.9682C13.9355 10.6147 13.8782 9.98412 14.2318 9.55984L15.2318 8.35984C15.5853 7.93556 16.2159 7.87824 16.6402 8.2318Z" fill="#777B92"/>
<path fill-rule="evenodd" clip-rule="evenodd" d="M7.29289 11.2929C7.68342 10.9024 8.31658 10.9024 8.70711 11.2929L11.7071 14.2929C12.0976 14.6834 12.0976 15.3166 11.7071 15.7071C11.3166 16.0977 10.6834 16.0977 10.2929 15.7071L7.29289 12.7071C6.90237 12.3166 6.90237 11.6834 7.29289 11.2929Z" fill="#777B92"/>
<path fill-rule="evenodd" clip-rule="evenodd" d="M5.70711 4.29289L19.7071 18.2929C20.0976 18.6834 20.0976 19.3166 19.7071 19.7071C19.3166 20.0976 18.6834 20.0976 18.2929 19.7071L4.29289 5.70711C3.90237 5.31658 3.90237 4.68342 4.29289 4.29289C4.68342 3.90237 5.31658 3.90237 5.70711 4.29289Z" fill="#777B92"/>
</svg>
