<svg width="16" height="16" viewBox="0 0 16 16" fill="none" xmlns="http://www.w3.org/2000/svg">
<path fill-rule="evenodd" clip-rule="evenodd" d="M11 5.5C12.3807 5.5 13.5 6.61929 13.5 8C13.5 9.38071 12.3807 10.5 11 10.5C9.61929 10.5 8.5 9.38071 8.5 8C8.5 6.61929 9.61929 5.5 11 5.5ZM9.5 8C9.5 8.82843 10.1716 9.5 11 9.5C11.8284 9.5 12.5 8.82843 12.5 8C12.5 7.17157 11.8284 6.5 11 6.5C10.1716 6.5 9.5 7.17157 9.5 8Z" fill="#777B92"/>
<path fill-rule="evenodd" clip-rule="evenodd" d="M6 2.5H10C13.0376 2.5 15.5 4.96243 15.5 8C15.5 11.0376 13.0376 13.5 10 13.5H6C2.96243 13.5 0.5 11.0376 0.5 8C0.5 4.96243 2.96243 2.5 6 2.5ZM1.5 8C1.5 10.4853 3.51472 12.5 6 12.5H10C12.4853 12.5 14.5 10.4853 14.5 8C14.5 5.51472 12.4853 3.5 10 3.5H6C3.51472 3.5 1.5 5.51472 1.5 8Z" fill="#777B92"/>
</svg>
