<svg width="16" height="16" viewBox="0 0 16 16" fill="none" xmlns="http://www.w3.org/2000/svg">
<path fill-rule="evenodd" clip-rule="evenodd" d="M13.6464 1.64645C13.8417 1.45118 14.1583 1.45118 14.3536 1.64645C14.5488 1.84171 14.5488 2.15829 14.3536 2.35355L2.35355 14.3536C2.15829 14.5488 1.84171 14.5488 1.64645 14.3536C1.45118 14.1583 1.45118 13.8417 1.64645 13.6464L13.6464 1.64645Z" fill="#777B92"/>
<path fill-rule="evenodd" clip-rule="evenodd" d="M5.67429 2.63581L6.34778 5.33015C6.47555 5.8413 6.32577 6.382 5.95321 6.75456L5.64645 7.06133C5.59764 7.11013 5.57365 7.15478 5.56521 7.18178C5.56216 7.19152 5.56168 7.19708 5.56161 7.19897C5.62258 7.33872 5.72337 7.51369 5.86305 7.71609C6.01989 7.94337 5.96279 8.25476 5.73551 8.4116C5.50823 8.56845 5.19684 8.51135 5.04 8.28407C4.87943 8.05138 4.74076 7.81824 4.64503 7.59884C4.42254 7.08887 4.67816 6.6154 4.93934 6.35422L5.24611 6.04746C5.37029 5.92327 5.42022 5.74303 5.37763 5.57265L4.70414 2.87832C4.64229 2.63089 4.44629 2.52825 4.3019 2.5516C3.65892 2.65558 3.23097 2.90902 2.95459 3.27516C2.67139 3.65034 2.5 4.20655 2.5 5.00059C2.5 6.75564 3.02066 8.37746 3.91565 9.72388C4.06852 9.95385 4.00601 10.2642 3.77604 10.4171C3.54607 10.5699 3.23572 10.5074 3.08286 10.2775C2.08105 8.77035 1.5 6.95658 1.5 5.00059C1.5 4.07405 1.69896 3.27877 2.15645 2.67269C2.62076 2.05758 3.30385 1.70001 4.14225 1.56442C4.90337 1.44133 5.5137 1.99335 5.67429 2.63581ZM5.56161 7.19897C5.5616 7.19897 5.56161 7.19898 5.56161 7.19897C5.56119 7.19802 5.56145 7.19825 5.56161 7.19897Z" fill="#777B92"/>
<path fill-rule="evenodd" clip-rule="evenodd" d="M9.9532 10.7546L9.64669 11.0611C9.38527 11.3225 8.91151 11.578 8.40142 11.3554C8.18196 11.2596 7.94874 11.1208 7.71598 10.9601C7.48871 10.8033 7.43164 10.4919 7.5885 10.2646C7.74537 10.0373 8.05676 9.98028 8.28403 10.1371C8.48653 10.2769 8.66169 10.3778 8.80158 10.4389C8.80342 10.4389 8.80904 10.4384 8.81897 10.4353C8.84604 10.4268 8.89074 10.4028 8.93958 10.354L9.24609 10.0475C9.61866 9.6749 10.1594 9.52513 10.6706 9.65292L13.3638 10.3262C14.0066 10.4869 14.5586 11.0978 14.4352 11.8591C14.2994 12.6969 13.9423 13.3798 13.3275 13.8441C12.7218 14.3017 11.9268 14.5007 11 14.5007C9.04404 14.5007 7.2303 13.9196 5.72321 12.9178C5.49324 12.765 5.43074 12.4546 5.5836 12.2246C5.73647 11.9947 6.04682 11.9322 6.27679 12.085C7.62319 12.98 9.24499 13.5007 11 13.5007C11.7942 13.5007 12.35 13.3292 12.7248 13.0461C13.0906 12.7698 13.3438 12.342 13.4481 11.699C13.4715 11.5544 13.3688 11.3582 13.1213 11.2964L10.428 10.6231C10.2576 10.5805 10.0774 10.6304 9.9532 10.7546Z" fill="#777B92"/>
</svg>
