<svg width="24" height="24" viewBox="0 0 24 24" fill="none" xmlns="http://www.w3.org/2000/svg">
<g clip-path="url(#clip0_501_190)">
<path fill-rule="evenodd" clip-rule="evenodd" d="M8.5 3C7.67157 3 7 3.67157 7 4.5C7 5.32843 7.67157 6 8.5 6C9.32843 6 10 5.32843 10 4.5C10 3.67157 9.32843 3 8.5 3ZM5 4.5C5 2.567 6.567 1 8.5 1C10.433 1 12 2.567 12 4.5C12 6.433 10.433 8 8.5 8C6.567 8 5 6.433 5 4.5ZM19.7071 13.2929C19.3166 12.9024 18.6834 12.9024 18.2929 13.2929C17.9024 13.6834 17.9024 14.3166 18.2929 14.7071L18.5858 15H14C13.4477 15 13 15.4477 13 16C13 16.5523 13.4477 17 14 17H18.5858L18.2929 17.2929C17.9024 17.6834 17.9024 18.3166 18.2929 18.7071C18.6834 19.0976 19.3166 19.0976 19.7071 18.7071L21.7071 16.7071C22.0976 16.3166 22.0976 15.6834 21.7071 15.2929L19.7071 13.2929ZM13.7071 19.7071C14.0976 19.3166 14.0976 18.6834 13.7071 18.2929C13.3166 17.9024 12.6834 17.9024 12.2929 18.2929L10.2929 20.2929C9.90237 20.6834 9.90237 21.3166 10.2929 21.7071L12.2929 23.7071C12.6834 24.0976 13.3166 24.0976 13.7071 23.7071C14.0976 23.3166 14.0976 22.6834 13.7071 22.2929L13.4142 22H18C18.5523 22 19 21.5523 19 21C19 20.4477 18.5523 20 18 20H13.4142L13.7071 19.7071ZM5 9C3.89543 9 3 9.89543 3 11V16C3 17.1046 3.89543 18 5 18V22C5 23.1046 5.89543 24 7 24H9C9.55228 24 10 23.5523 10 23C10 22.4477 9.55228 22 9 22H7V18C7 16.8954 6.10457 16 5 16V11H12V13C12 13.5523 12.4477 14 13 14C13.5523 14 14 13.5523 14 13V11C14 9.89543 13.1046 9 12 9H5Z" fill="#777B92"/>
</g>
<defs>
<clipPath id="clip0_501_190">
<rect width="24" height="24" fill="white"/>
</clipPath>
</defs>
</svg>
