<svg width="24" height="24" viewBox="0 0 24 24" fill="none" xmlns="http://www.w3.org/2000/svg">
<path fill-rule="evenodd" clip-rule="evenodd" d="M10 7C10 5.89543 10.8954 5 12 5C13.1046 5 14 5.89543 14 7C14 8.10457 13.1046 9 12 9C10.8954 9 10 8.10457 10 7ZM12 3C9.79086 3 8 4.79086 8 7C8 9.20914 9.79086 11 12 11C14.2091 11 16 9.20914 16 7C16 4.79086 14.2091 3 12 3ZM7 20C7 17.2386 9.23858 15 12 15C14.7614 15 17 17.2386 17 20C17 20.5523 17.4477 21 18 21C18.5523 21 19 20.5523 19 20C19 16.134 15.866 13 12 13C8.13401 13 5 16.134 5 20C5 20.5523 5.44772 21 6 21C6.55228 21 7 20.5523 7 20Z" fill="#777B92"/>
</svg>
