<svg width="24" height="24" viewBox="0 0 24 24" fill="none" xmlns="http://www.w3.org/2000/svg">
<path fill-rule="evenodd" clip-rule="evenodd" d="M9 5C7.89543 5 7 5.89543 7 7C7 8.10457 7.89543 9 9 9C10.1046 9 11 8.10457 11 7C11 5.89543 10.1046 5 9 5ZM5 7C5 4.79086 6.79086 3 9 3C11.2091 3 13 4.79086 13 7C13 9.20914 11.2091 11 9 11C6.79086 11 5 9.20914 5 7ZM19 5C18.4477 5 18 5.44772 18 6C18 6.80888 18.4846 7.72159 19 8.43736C19.5154 7.72159 20 6.80888 20 6C20 5.44772 19.5523 5 19 5ZM16 6C16 4.34315 17.3431 3 19 3C20.6569 3 22 4.34315 22 6C22 7.59241 21.0457 9.06062 20.4433 9.84818C19.7075 10.8101 18.2925 10.8101 17.5567 9.84818C16.9543 9.06062 16 7.59241 16 6ZM4 20C4 17.2386 6.23858 15 9 15C11.7614 15 14 17.2386 14 20C14 20.5523 14.4477 21 15 21C15.5523 21 16 20.5523 16 20C16 16.134 12.866 13 9 13C5.13401 13 2 16.134 2 20C2 20.5523 2.44772 21 3 21C3.55228 21 4 20.5523 4 20Z" fill="#777B92"/>
</svg>
