<svg width="16" height="16" viewBox="0 0 16 16" fill="none" xmlns="http://www.w3.org/2000/svg">
<path fill-rule="evenodd" clip-rule="evenodd" d="M8.35355 6.64645L10.3536 8.64645C10.5488 8.84171 10.5488 9.15829 10.3536 9.35355C10.1583 9.54882 9.84171 9.54882 9.64645 9.35355L8.5 8.20711V12C8.5 12.2761 8.27614 12.5 8 12.5C7.72386 12.5 7.5 12.2761 7.5 12V8.20711L6.35355 9.35355C6.15829 9.54882 5.84171 9.54882 5.64645 9.35355C5.45118 9.15829 5.45118 8.84171 5.64645 8.64645L7.64645 6.64645C7.84171 6.45118 8.15829 6.45118 8.35355 6.64645Z" fill="#777B92"/>
<path fill-rule="evenodd" clip-rule="evenodd" d="M5.5 3.5V2C5.5 1.17157 6.17157 0.5 7 0.5H9C9.82843 0.5 10.5 1.17157 10.5 2V3.5H15C15.2761 3.5 15.5 3.72386 15.5 4C15.5 4.27614 15.2761 4.5 15 4.5H13.5V14C13.5 14.8284 12.8284 15.5 12 15.5H4C3.17157 15.5 2.5 14.8284 2.5 14V4.5H1C0.723858 4.5 0.5 4.27614 0.5 4C0.5 3.72386 0.723858 3.5 1 3.5H5.5ZM6.5 2V3.5H9.5V2C9.5 1.72386 9.27614 1.5 9 1.5H7C6.72386 1.5 6.5 1.72386 6.5 2ZM3.5 14C3.5 14.2761 3.72386 14.5 4 14.5H12C12.2761 14.5 12.5 14.2761 12.5 14V4.5H3.5V14Z" fill="#777B92"/>
</svg>
