<svg width="16" height="16" viewBox="0 0 16 16" fill="none" xmlns="http://www.w3.org/2000/svg">
<path fill-rule="evenodd" clip-rule="evenodd" d="M12.3536 5.64645C12.5488 5.84171 12.5488 6.15829 12.3536 6.35355L10.7071 8L12.3536 9.64645C12.5488 9.84171 12.5488 10.1583 12.3536 10.3536C12.1583 10.5488 11.8417 10.5488 11.6464 10.3536L10 8.70711L8.35355 10.3536C8.15829 10.5488 7.84171 10.5488 7.64645 10.3536C7.45118 10.1583 7.45118 9.84171 7.64645 9.64645L9.29289 8L7.64645 6.35355C7.45118 6.15829 7.45118 5.84171 7.64645 5.64645C7.84171 5.45118 8.15829 5.45118 8.35355 5.64645L10 7.29289L11.6464 5.64645C11.8417 5.45118 12.1583 5.45118 12.3536 5.64645Z" fill="#777B92"/>
<path fill-rule="evenodd" clip-rule="evenodd" d="M6.57268 1.5H14.2039C14.9539 1.5 15.5 2.14305 15.5 2.85714V13.1429C15.5 13.857 14.9539 14.5 14.2039 14.5L6.57268 14.5C6.21652 14.5 5.88313 14.3473 5.6434 14.0892L0.866813 8.94636C0.377728 8.41977 0.37773 7.58023 0.866813 7.05364L5.6434 1.91078C5.88313 1.65267 6.21652 1.5 6.57268 1.5ZM6.37612 2.59132L1.59953 7.73417C1.46682 7.87706 1.46682 8.12294 1.59953 8.26582L6.37612 13.4087C6.43498 13.4721 6.50657 13.5 6.57268 13.5L14.2039 13.5C14.3333 13.5 14.5 13.3755 14.5 13.1429V2.85714C14.5 2.62447 14.3333 2.5 14.2039 2.5L6.57268 2.5C6.50657 2.5 6.43498 2.52794 6.37612 2.59132Z" fill="#777B92"/>
</svg>
