<svg width="22" height="22" viewBox="0 0 22 22" fill="none" xmlns="http://www.w3.org/2000/svg">
<path d="M9.92019 12.3902L13.7002 7.39018H13.6902C13.852 7.178 14.0914 7.03879 14.3558 7.00316C14.6203 6.96752 14.888 7.03839 15.1002 7.20018C15.3124 7.36196 15.4516 7.6014 15.4872 7.86583C15.5228 8.13025 15.452 8.398 15.2902 8.61018L10.7202 14.6102C10.627 14.7312 10.5074 14.8293 10.3705 14.8969C10.2335 14.9645 10.0829 14.9998 9.93019 15.0002C9.7783 15.001 9.62821 14.9672 9.49133 14.9014C9.35445 14.8355 9.23436 14.7394 9.14019 14.6202L6.71019 11.5102C6.54708 11.3007 6.47389 11.0349 6.5067 10.7714C6.53952 10.5079 6.67567 10.2683 6.88519 10.1052C7.09471 9.94207 7.36044 9.86887 7.62393 9.90169C7.88742 9.93451 8.12708 10.0707 8.29019 10.2802L9.92019 12.3902Z" fill="#97A3BA"/>
<path fill-rule="evenodd" clip-rule="evenodd" d="M5 2H17C17.7956 2 18.5587 2.31607 19.1213 2.87868C19.6839 3.44129 20 4.20435 20 5V17C20 17.7956 19.6839 18.5587 19.1213 19.1213C18.5587 19.6839 17.7956 20 17 20H5C4.20435 20 3.44129 19.6839 2.87868 19.1213C2.31607 18.5587 2 17.7956 2 17V5C2 4.20435 2.31607 3.44129 2.87868 2.87868C3.44129 2.31607 4.20435 2 5 2ZM17.7071 17.7071C17.8946 17.5196 18 17.2652 18 17V5C18 4.73478 17.8946 4.48043 17.7071 4.29289C17.5196 4.10536 17.2652 4 17 4H5C4.73478 4 4.48043 4.10536 4.29289 4.29289C4.10536 4.48043 4 4.73478 4 5V17C4 17.2652 4.10536 17.5196 4.29289 17.7071C4.48043 17.8946 4.73478 18 5 18H17C17.2652 18 17.5196 17.8946 17.7071 17.7071Z" fill="#97A3BA"/>
</svg>
