<svg width="22" height="22" viewBox="0 0 22 22" fill="none" xmlns="http://www.w3.org/2000/svg">
<path fill-rule="evenodd" clip-rule="evenodd" d="M6.33329 8.50559C6.82664 8.17595 7.40666 8 8 8C8.79565 8 9.55871 8.31607 10.1213 8.87868C10.6839 9.44129 11 10.2044 11 11C11 11.5933 10.8241 12.1734 10.4944 12.6667C10.1648 13.1601 9.69623 13.5446 9.14805 13.7716C8.59987 13.9987 7.99667 14.0581 7.41473 13.9424C6.83279 13.8266 6.29824 13.5409 5.87868 13.1213C5.45912 12.7018 5.1734 12.1672 5.05765 11.5853C4.94189 11.0033 5.0013 10.4001 5.22836 9.85195C5.45543 9.30377 5.83994 8.83524 6.33329 8.50559ZM7.44443 11.8315C7.60888 11.9414 7.80222 12 8 12C8.26522 12 8.51957 11.8946 8.70711 11.7071C8.89464 11.5196 9 11.2652 9 11C9 10.8022 8.94135 10.6089 8.83147 10.4444C8.72159 10.28 8.56541 10.1518 8.38268 10.0761C8.19996 10.0004 7.99889 9.98063 7.80491 10.0192C7.61093 10.0578 7.43275 10.153 7.29289 10.2929C7.15304 10.4327 7.0578 10.6109 7.01922 10.8049C6.98063 10.9989 7.00043 11.2 7.07612 11.3827C7.15181 11.5654 7.27998 11.7216 7.44443 11.8315Z" fill="#97A3BA"/>
<path fill-rule="evenodd" clip-rule="evenodd" d="M8 4H14C15.8565 4 17.637 4.7375 18.9497 6.05025C20.2625 7.36301 21 9.14348 21 11C21 12.8565 20.2625 14.637 18.9497 15.9497C17.637 17.2625 15.8565 18 14 18H8C6.14348 18 4.36301 17.2625 3.05025 15.9497C1.7375 14.637 1 12.8565 1 11C1 9.14348 1.7375 7.36301 3.05025 6.05025C4.36301 4.7375 6.14348 4 8 4ZM8 16H14C15.3261 16 16.5979 15.4732 17.5355 14.5355C18.4732 13.5979 19 12.3261 19 11C19 9.67392 18.4732 8.40215 17.5355 7.46447C16.5979 6.52678 15.3261 6 14 6H8C6.67392 6 5.40215 6.52678 4.46447 7.46447C3.52678 8.40215 3 9.67392 3 11C3 12.3261 3.52678 13.5979 4.46447 14.5355C5.40215 15.4732 6.67392 16 8 16Z" fill="#97A3BA"/>
</svg>
