<svg width="22" height="22" viewBox="0 0 22 22" fill="none" xmlns="http://www.w3.org/2000/svg">
<path d="M18.2929 11.1229C18.4804 10.9354 18.7348 10.83 19 10.83C19.2652 10.83 19.5196 10.9354 19.7071 11.1229C19.8946 11.3104 20 11.5648 20 11.83V17.4C19.9974 18.0888 19.7226 18.7485 19.2356 19.2356C18.7485 19.7226 18.0888 19.9974 17.4 20H4.6C3.91125 19.9974 3.25146 19.7226 2.76443 19.2356C2.27741 18.7485 2.00263 18.0888 2 17.4V4.6C2.00263 3.91125 2.27741 3.25146 2.76443 2.76443C3.25146 2.27741 3.91125 2.00263 4.6 2H14.17C14.4352 2 14.6896 2.10536 14.8771 2.29289C15.0646 2.48043 15.17 2.73478 15.17 3C15.17 3.26522 15.0646 3.51957 14.8771 3.70711C14.6896 3.89464 14.4352 4 14.17 4H4.6C4.44087 4 4.28826 4.06321 4.17574 4.17574C4.06321 4.28826 4 4.44087 4 4.6V17.4C4 17.5591 4.06321 17.7117 4.17574 17.8243C4.28826 17.9368 4.44087 18 4.6 18H17.4C17.5591 18 17.7117 17.9368 17.8243 17.8243C17.9368 17.7117 18 17.5591 18 17.4V11.83C18 11.5648 18.1054 11.3104 18.2929 11.1229Z" fill="#97A3BA"/>
<path d="M9.03543 9.74349C9.28778 9.73949 9.5323 9.83105 9.71996 9.99982L11.23 11.5798L17.28 5.31982C17.3719 5.22526 17.4815 5.14974 17.6026 5.09757C17.7238 5.04539 17.854 5.01758 17.9858 5.01572C18.1177 5.01387 18.2486 5.038 18.3711 5.08674C18.4937 5.13549 18.6054 5.20789 18.7 5.29982C18.7945 5.39174 18.87 5.50139 18.9222 5.6225C18.9744 5.74361 19.0022 5.87382 19.004 6.00567C19.0059 6.13753 18.9818 6.26847 18.933 6.391C18.8843 6.51353 18.8119 6.62526 18.72 6.71982L11.94 13.7198C11.8462 13.8155 11.7341 13.8914 11.6104 13.9429C11.4867 13.9944 11.3539 14.0206 11.22 14.0198C11.0853 14.0193 10.952 13.9916 10.8283 13.9383C10.7046 13.885 10.5929 13.8073 10.5 13.7098L8.27996 11.3798C8.11933 11.1852 8.03825 10.937 8.05297 10.685C8.0677 10.4331 8.17715 10.196 8.35936 10.0214C8.54158 9.84675 8.78308 9.74748 9.03543 9.74349Z" fill="#97A3BA"/>
</svg>
