<svg width="22" height="22" viewBox="0 0 22 22" fill="none" xmlns="http://www.w3.org/2000/svg">
<path fill-rule="evenodd" clip-rule="evenodd" d="M9.73784 1.02664C10.473 0.428619 11.5269 0.428619 12.262 1.02664L12.725 1.40324C13.1671 1.76289 13.7417 1.91684 14.3044 1.82643L14.8936 1.73176C15.8292 1.58143 16.742 2.10839 17.0796 2.99386L17.2922 3.55148C17.4953 4.084 17.9159 4.5046 18.4484 4.70766L19.006 4.92028C19.8915 5.25792 20.4185 6.17064 20.2681 7.10631L20.1735 7.69552C20.083 8.25823 20.237 8.83278 20.5967 9.2749L20.9732 9.73784C21.5713 10.473 21.5713 11.5269 20.9732 12.262L20.5967 12.725C20.237 13.1671 20.083 13.7417 20.1735 14.3044L20.2681 14.8936C20.4185 15.8292 19.8915 16.742 19.006 17.0796L18.4484 17.2922C17.9159 17.4953 17.4953 17.9159 17.2922 18.4484L17.0796 19.006C16.742 19.8915 15.8292 20.4185 14.8936 20.2681L14.3044 20.1735C13.7417 20.083 13.1671 20.237 12.725 20.5967L12.262 20.9732C11.5269 21.5713 10.473 21.5713 9.73784 20.9732L9.2749 20.5967C8.83278 20.237 8.25823 20.083 7.69552 20.1735L7.10631 20.2681C6.17064 20.4185 5.25792 19.8915 4.92028 19.006L4.70766 18.4484C4.5046 17.9159 4.084 17.4953 3.55148 17.2922L2.99386 17.0796C2.10839 16.742 1.58143 15.8292 1.73176 14.8936L1.82643 14.3044C1.91684 13.7417 1.76289 13.1671 1.40324 12.725L1.02664 12.262C0.428619 11.5269 0.428619 10.473 1.02664 9.73784L1.40324 9.2749C1.76289 8.83278 1.91684 8.25823 1.82643 7.69552L1.73176 7.10631C1.58143 6.17064 2.10839 5.25792 2.99386 4.92028L3.55148 4.70766C4.084 4.5046 4.5046 4.084 4.70766 3.55148L4.92028 2.99386C5.25792 2.10839 6.17064 1.58143 7.10631 1.73176L7.69552 1.82643C8.25823 1.91684 8.83278 1.76289 9.2749 1.40324L9.73784 1.02664ZM9.92019 12.3902L13.7002 7.39018H13.6902C13.852 7.178 14.0914 7.03879 14.3558 7.00316C14.6203 6.96752 14.888 7.03839 15.1002 7.20018C15.3124 7.36196 15.4516 7.6014 15.4872 7.86583C15.5228 8.13025 15.452 8.398 15.2902 8.61018L10.7202 14.6102C10.627 14.7312 10.5074 14.8293 10.3705 14.8969C10.2335 14.9645 10.0829 14.9998 9.93019 15.0002C9.7783 15.001 9.62821 14.9672 9.49133 14.9014C9.35445 14.8355 9.23436 14.7394 9.14019 14.6202L6.71019 11.5102C6.54708 11.3007 6.47389 11.0349 6.5067 10.7714C6.53952 10.5079 6.67567 10.2683 6.88519 10.1052C7.09471 9.94207 7.36044 9.86887 7.62393 9.90169C7.88742 9.93451 8.12708 10.0707 8.29019 10.2802L9.92019 12.3902Z" fill="#97A3BA"/>
</svg>
