<svg width="22" height="22" viewBox="0 0 22 22" fill="none" xmlns="http://www.w3.org/2000/svg">
<path fill-rule="evenodd" clip-rule="evenodd" d="M8.22215 6.84265C9.0444 6.29324 10.0111 6 11 6C12.3261 6 13.5979 6.52678 14.5355 7.46447C15.4732 8.40215 16 9.67392 16 11C16 11.9889 15.7068 12.9556 15.1574 13.7779C14.6079 14.6001 13.827 15.241 12.9134 15.6194C11.9998 15.9978 10.9945 16.0969 10.0246 15.9039C9.05465 15.711 8.16373 15.2348 7.46447 14.5355C6.76521 13.8363 6.289 12.9454 6.09608 11.9755C5.90315 11.0055 6.00217 10.0002 6.3806 9.08658C6.75904 8.17295 7.39991 7.39206 8.22215 6.84265ZM9.33329 13.4944C9.82664 13.8241 10.4067 14 11 14C11.7957 14 12.5587 13.6839 13.1213 13.1213C13.6839 12.5587 14 11.7956 14 11C14 10.4067 13.8241 9.82664 13.4944 9.33329C13.1648 8.83994 12.6962 8.45542 12.1481 8.22836C11.5999 8.0013 10.9967 7.94189 10.4147 8.05764C9.83279 8.1734 9.29824 8.45912 8.87868 8.87868C8.45912 9.29824 8.1734 9.83279 8.05765 10.4147C7.94189 10.9967 8.0013 11.5999 8.22836 12.1481C8.45543 12.6962 8.83994 13.1648 9.33329 13.4944Z" fill="#97A3BA"/>
<path fill-rule="evenodd" clip-rule="evenodd" d="M5.4443 2.6853C7.08879 1.58649 9.02219 1 11 1C12.3132 1 13.6136 1.25866 14.8268 1.7612C16.0401 2.26375 17.1425 3.00035 18.0711 3.92893C18.9997 4.85752 19.7363 5.95991 20.2388 7.17317C20.7413 8.38642 21 9.68678 21 11C21 12.9778 20.4135 14.9112 19.3147 16.5557C18.2159 18.2002 16.6541 19.4819 14.8268 20.2388C12.9996 20.9957 10.9889 21.1937 9.0491 20.8079C7.10929 20.422 5.32746 19.4696 3.92894 18.0711C2.53041 16.6725 1.578 14.8907 1.19215 12.9509C0.806299 11.0111 1.00433 9.00043 1.76121 7.17317C2.51809 5.3459 3.79981 3.78412 5.4443 2.6853ZM6.55544 17.6518C7.87104 18.5308 9.41775 19 11 19C13.1217 19 15.1566 18.1571 16.6569 16.6569C18.1572 15.1566 19 13.1217 19 11C19 9.41775 18.5308 7.87103 17.6518 6.55544C16.7727 5.23984 15.5233 4.21447 14.0615 3.60896C12.5997 3.00346 10.9911 2.84504 9.43928 3.15372C7.88743 3.4624 6.46197 4.22433 5.34315 5.34315C4.22433 6.46197 3.4624 7.88743 3.15372 9.43928C2.84504 10.9911 3.00347 12.5997 3.60897 14.0615C4.21447 15.5233 5.23985 16.7727 6.55544 17.6518Z" fill="#97A3BA"/>
</svg>
