<svg width="22" height="22" viewBox="0 0 22 22" fill="none" xmlns="http://www.w3.org/2000/svg">
<path d="M19.2884 10.2929C19.4765 10.1054 19.7315 10 19.9974 10C20.2633 10 20.5183 10.1054 20.7063 10.2929C20.8944 10.4804 21 10.7348 21 11C21 13.6522 19.9437 16.1957 18.0634 18.0711C16.1832 19.9464 13.633 21 10.974 21C8.34077 20.9939 5.81726 19.9475 3.95573 18.09C2.55129 16.6968 1.5921 14.9198 1.19921 12.9834C0.806311 11.0469 0.997316 9.0378 1.74812 7.20953C2.49892 5.38126 3.77587 3.81578 5.41783 2.71065C7.05978 1.60552 8.99315 1.01026 10.974 1C11.7741 1.00331 12.5713 1.09724 13.3501 1.28C13.485 1.30383 13.6134 1.35495 13.7277 1.43021C13.842 1.50547 13.9395 1.60327 14.0144 1.71759C14.0894 1.83191 14.14 1.96032 14.1632 2.0949C14.1865 2.22948 14.1818 2.36739 14.1496 2.50011C14.1174 2.63284 14.0582 2.75757 13.9758 2.86662C13.8934 2.97567 13.7894 3.06673 13.6704 3.13418C13.5513 3.20163 13.4197 3.24404 13.2835 3.2588C13.1474 3.27356 13.0097 3.26035 12.8789 3.22C12.2538 3.07777 11.6151 3.004 10.974 3C9.91667 2.99661 8.86933 3.20358 7.89322 3.60881C6.9171 4.01404 6.03183 4.60938 5.2892 5.36C4.17246 6.48048 3.41336 7.90569 3.10762 9.45589C2.80188 11.0061 2.96319 12.6119 3.57121 14.0708C4.17924 15.5297 5.20674 16.7763 6.52417 17.6535C7.84159 18.5308 9.38993 18.9993 10.974 19C13.1012 19 15.1413 18.1571 16.6455 16.6569C18.1497 15.1566 18.9948 13.1217 18.9948 11C18.9948 10.7348 19.1004 10.4804 19.2884 10.2929Z" fill="#97A3BA"/>
<path d="M7.94794 9.9959C8.21424 9.9959 8.46964 10.1017 8.65794 10.29L10.9479 12.54L17.1679 5.33999C17.3464 5.15416 17.5898 5.0444 17.8472 5.0336C18.1047 5.02279 18.3563 5.11178 18.5498 5.282C18.7432 5.45223 18.8635 5.69055 18.8855 5.94728C18.9075 6.204 18.8296 6.45932 18.6679 6.65999L11.6679 14.66C11.5776 14.763 11.4671 14.8463 11.3432 14.9047C11.2194 14.9632 11.0848 14.9957 10.9479 15C10.8163 15.0008 10.6859 14.9755 10.564 14.9258C10.4422 14.876 10.3314 14.8027 10.2379 14.71L7.23794 11.71C7.04964 11.5217 6.94385 11.2663 6.94385 11C6.94385 10.7337 7.04964 10.4783 7.23794 10.29C7.42624 10.1017 7.68164 9.9959 7.94794 9.9959Z" fill="#97A3BA"/>
</svg>
