<svg width="22" height="22" viewBox="0 0 22 22" fill="none" xmlns="http://www.w3.org/2000/svg">
<path d="M5.4931 2.6604L6.9231 4.0914C7.2344 3.9091 7.5585 3.7478 7.8932 3.6088C8.8693 3.2036 9.9167 2.9966 10.974 3C11.6151 3.004 12.2538 3.0778 12.8789 3.22C13.0097 3.2604 13.1474 3.2736 13.2835 3.2588C13.4197 3.244 13.5513 3.2016 13.6704 3.1342C13.7894 3.0667 13.8934 2.9757 13.9758 2.8666C14.0582 2.7576 14.1174 2.6328 14.1496 2.5001C14.1818 2.3674 14.1865 2.2295 14.1632 2.0949C14.14 1.9603 14.0894 1.8319 14.0144 1.7176C13.9395 1.6033 13.842 1.5055 13.7277 1.4302C13.6134 1.355 13.485 1.3038 13.3501 1.28C12.5713 1.0972 11.7741 1.0033 10.974 1C9.0234 1.0101 7.1188 1.5875 5.4931 2.6604Z" fill="#7887A5"/>
<path d="M12.7218 9.8941L14.1134 11.2865L18.5 6.82C18.6616 6.6193 18.7396 6.364 18.7175 6.1073C18.6955 5.8506 18.5753 5.6122 18.3818 5.442C18.1884 5.2718 17.9367 5.1828 17.6793 5.1936C17.4218 5.2044 17.1785 5.3142 17 5.5L12.7218 9.8941Z" fill="#7887A5"/>
<path d="M2.6487 5.50591C2.2959 6.04101 1.9938 6.6112 1.7481 7.2095C0.997323 9.0378 0.806312 11.0469 1.1992 12.9834C1.5921 14.9198 2.5513 16.6968 3.9557 18.09C5.8173 19.9475 8.3408 20.9939 10.974 21C12.957 21 14.8795 20.414 16.5087 19.3382L15.06 17.8841C13.8332 18.6085 12.4238 19 10.974 19C9.3899 18.9993 7.8416 18.5308 6.5242 17.6535C5.2067 16.7763 4.1792 15.5297 3.5712 14.0708C2.9632 12.6119 2.8019 11.0061 3.1076 9.4559C3.2833 8.5653 3.6085 7.71601 4.0653 6.94201L3.8268 6.71031L2.6487 5.50591Z" fill="#7887A5"/>
<path d="M7.7141 10.79C7.5258 10.6017 7.2704 10.4959 7.0041 10.4959C6.7378 10.4959 6.4824 10.6017 6.2941 10.79C6.1058 10.9783 6 11.2337 6 11.5C6 11.7663 6.1058 12.0217 6.2941 12.21L9.2941 15.21C9.3875 15.3027 9.4983 15.376 9.6202 15.4258C9.742 15.4755 9.8725 15.5008 10.0041 15.5C10.141 15.4957 10.2755 15.4632 10.3994 15.4048C10.5232 15.3463 10.6338 15.263 10.7241 15.16L11.3579 14.4356L7.7141 10.79Z" fill="#7887A5"/>
<path d="M17.8848 15.0606L19.1094 16.286L19.1122 16.2887L19.3386 16.5134C20.4142 14.8899 21 12.9751 21 11C21 10.7348 20.8944 10.4804 20.7063 10.2929C20.5183 10.1054 20.2633 10 19.9974 10C19.7315 10 19.4765 10.1054 19.2884 10.2929C19.1004 10.4804 18.9948 10.7348 18.9948 11C18.9948 12.4402 18.6054 13.8404 17.8848 15.0606Z" fill="#7887A5"/>
<path d="M18.4051 16.9959L19.7044 18.2851C19.798 18.3781 19.8724 18.4886 19.9231 18.6104C19.9739 18.7322 20 18.8628 20 18.9948C20 19.1267 19.9739 19.2573 19.9231 19.3791C19.8724 19.5009 19.798 19.6115 19.7044 19.7044C19.6115 19.798 19.5009 19.8724 19.3791 19.9231C19.2573 19.9739 19.1267 20 18.9948 20C18.8628 20 18.7322 19.9739 18.6104 19.9231C18.4886 19.8724 18.3781 19.798 18.2851 19.7044L15.5866 16.9959L6.2817 7.701L4.5327 6.0019L2.2939 3.7132C2.1057 3.525 2 3.2697 2 3.0035C2 2.7374 2.1057 2.4821 2.2939 2.2939C2.3871 2.2007 2.4977 2.1268 2.6195 2.0764C2.7413 2.026 2.8718 2 3.0035 2C3.1353 2 3.2658 2.026 3.3876 2.0764C3.5093 2.1268 3.62 2.2007 3.7132 2.2939L18.4051 16.9959Z" fill="#7887A5"/>
</svg>
