<svg width="24" height="24" viewBox="0 0 24 24" fill="none" xmlns="http://www.w3.org/2000/svg">
<path fill-rule="evenodd" clip-rule="evenodd" d="M9 9C10.6569 9 12 10.3431 12 12C12 13.6569 10.6569 15 9 15C7.34315 15 6 13.6569 6 12C6 10.3431 7.34315 9 9 9ZM8 12C8 12.5523 8.44772 13 9 13C9.55228 13 10 12.5523 10 12C10 11.4477 9.55228 11 9 11C8.44772 11 8 11.4477 8 12Z" fill="#777B92"/>
<path fill-rule="evenodd" clip-rule="evenodd" d="M9 5H15C18.866 5 22 8.13401 22 12C22 15.866 18.866 19 15 19H9C5.13401 19 2 15.866 2 12C2 8.13401 5.13401 5 9 5ZM4 12C4 14.7614 6.23858 17 9 17H15C17.7614 17 20 14.7614 20 12C20 9.23858 17.7614 7 15 7H9C6.23858 7 4 9.23858 4 12Z" fill="#777B92"/>
</svg>
