<svg width="22" height="22" viewBox="0 0 22 22" fill="none" xmlns="http://www.w3.org/2000/svg">
<path d="M15.6066 5.21586C15.5033 5.13394 15.3849 5.07333 15.2581 5.03751C15.1313 5.0017 14.9988 4.99139 14.868 5.00719C14.7372 5.02298 14.6109 5.06457 14.4962 5.12955C14.3816 5.19453 14.2809 5.28161 14.2 5.38578L7.21691 14.3813L3.79518 10.2034C3.71492 10.0963 3.61402 10.0065 3.49845 9.93932C3.38289 9.8721 3.25502 9.82883 3.12245 9.81207C2.98987 9.79531 2.85529 9.80541 2.72668 9.84177C2.59807 9.87813 2.47807 9.94 2.37379 10.0237C2.26951 10.1074 2.18308 10.2113 2.11963 10.3291C2.05618 10.447 2.01701 10.5764 2.00443 10.7096C1.99185 10.8429 2.00613 10.9774 2.04642 11.105C2.0867 11.2327 2.15217 11.3509 2.23895 11.4528L6.39888 16.6302C6.49278 16.7461 6.61141 16.8396 6.74606 16.9036C6.88071 16.9676 7.02797 17.0005 7.177 17C7.3352 17.0071 7.4928 16.9763 7.63678 16.9103C7.78076 16.8442 7.90698 16.7448 8.005 16.6202L15.8161 6.62516C15.8957 6.51924 15.9535 6.3985 15.9861 6.26997C16.0187 6.14145 16.0255 6.00771 16.006 5.87654C15.9865 5.74538 15.9411 5.61941 15.8726 5.50599C15.804 5.39256 15.7136 5.29393 15.6066 5.21586Z" fill="#97A3BA"/>
<path d="M20.5945 5.21586C20.4913 5.13394 20.3728 5.07333 20.2461 5.03751C20.1193 5.0017 19.9867 4.99139 19.8559 5.00719C19.7251 5.02298 19.5988 5.06457 19.4841 5.12955C19.3695 5.19453 19.2688 5.28161 19.188 5.38578L12.2048 14.3813L11.5963 13.6317L10.3394 15.2509L11.4367 16.6202C11.5306 16.7362 11.6492 16.8296 11.7839 16.8936C11.9185 16.9576 12.0658 16.9905 12.2148 16.99C12.3647 16.9893 12.5124 16.9548 12.6471 16.8891C12.7818 16.8233 12.9 16.728 12.9929 16.6102L20.804 6.61516C20.8821 6.50955 20.9386 6.38955 20.9704 6.26202C21.0021 6.1345 21.0084 6.00195 20.989 5.87198C20.9695 5.742 20.9247 5.61715 20.857 5.50456C20.7893 5.39198 20.7001 5.29387 20.5945 5.21586Z" fill="#97A3BA"/>
<path d="M9.0028 10.4435L7.71591 12.0627L7.22709 11.413C7.14423 11.3108 7.08235 11.1931 7.045 11.0668C7.00766 10.9406 6.9956 10.8081 7.0095 10.6772C7.02341 10.5462 7.06301 10.4193 7.12603 10.3037C7.18905 10.1881 7.27425 10.0862 7.37673 10.0037C7.4824 9.92021 7.60384 9.85901 7.73374 9.82378C7.86363 9.78856 7.9993 9.78002 8.13257 9.7987C8.26585 9.81737 8.39397 9.86287 8.50923 9.93245C8.6245 10.002 8.72452 10.0943 8.80328 10.2036L9.0028 10.4435Z" fill="#97A3BA"/>
</svg>
