<svg width="22" height="22" viewBox="0 0 22 22" fill="none" xmlns="http://www.w3.org/2000/svg">
<path d="M8.84617 17C8.7094 16.9996 8.57418 16.971 8.44892 16.9162C8.32366 16.8613 8.21102 16.7813 8.11802 16.6812L3.27037 11.53C3.08916 11.3371 2.99209 11.0802 3.00051 10.8158C3.00892 10.5514 3.12214 10.3012 3.31526 10.1201C3.50838 9.93913 3.76557 9.84216 4.03026 9.85057C4.29495 9.85898 4.54545 9.97208 4.72666 10.165L8.83619 14.539L17.2248 5.37249C17.3099 5.2666 17.4158 5.17922 17.536 5.1157C17.6562 5.05218 17.7881 5.01387 17.9236 5.00312C18.0592 4.99238 18.1955 5.00942 18.3242 5.05321C18.4528 5.097 18.5712 5.16661 18.672 5.25776C18.7728 5.34891 18.8539 5.45968 18.9102 5.58327C18.9666 5.70685 18.9971 5.84065 18.9998 5.97643C19.0025 6.11221 18.9774 6.24711 18.926 6.37285C18.8747 6.49859 18.7981 6.61251 18.7011 6.70762L9.58429 16.6712C9.49216 16.7732 9.37992 16.855 9.25462 16.9116C9.12931 16.9682 8.99364 16.9983 8.85614 17H8.84617Z" fill="#97A3BA"/>
</svg>
