<svg width="22" height="22" viewBox="0 0 22 22" fill="none" xmlns="http://www.w3.org/2000/svg">
<path d="M11 21C9.02219 21 7.08879 20.4135 5.4443 19.3147C3.79981 18.2159 2.51809 16.6541 1.76121 14.8268C1.00433 12.9996 0.806299 10.9889 1.19215 9.0491C1.578 7.10929 2.53041 5.32746 3.92894 3.92894C5.32746 2.53041 7.10929 1.578 9.0491 1.19215C10.9889 0.806299 12.9996 1.00433 14.8268 1.76121C16.6541 2.51809 18.2159 3.79981 19.3147 5.4443C20.4135 7.08879 21 9.02219 21 11C21 13.6522 19.9464 16.1957 18.0711 18.0711C16.1957 19.9464 13.6522 21 11 21ZM11 3C9.41775 3 7.87104 3.4692 6.55544 4.34825C5.23985 5.2273 4.21447 6.47673 3.60897 7.93854C3.00347 9.40035 2.84504 11.0089 3.15372 12.5607C3.4624 14.1126 4.22433 15.538 5.34315 16.6569C6.46197 17.7757 7.88743 18.5376 9.43928 18.8463C10.9911 19.155 12.5997 18.9965 14.0615 18.391C15.5233 17.7855 16.7727 16.7602 17.6518 15.4446C18.5308 14.129 19 12.5823 19 11C19 8.87827 18.1572 6.84344 16.6569 5.34315C15.1566 3.84286 13.1217 3 11 3Z" fill="#97A3BA"/>
</svg>
