<svg width="24" height="24" viewBox="0 0 24 24" fill="none" xmlns="http://www.w3.org/2000/svg">
<path fill-rule="evenodd" clip-rule="evenodd" d="M16.7682 9.64021L12.4692 14.799C11.7163 15.7025 10.3502 15.7644 9.51859 14.9328L7.29289 12.7071C6.90237 12.3166 6.90237 11.6834 7.29289 11.2929C7.68342 10.9024 8.31658 10.9024 8.70711 11.2929L10.9328 13.5186L15.2318 8.35984C15.5853 7.93556 16.2159 7.87824 16.6402 8.2318C17.0645 8.58537 17.1218 9.21593 16.7682 9.64021Z" fill="#777B92"/>
<path fill-rule="evenodd" clip-rule="evenodd" d="M12 2C17.5228 2 22 6.47715 22 12C22 17.5228 17.5228 22 12 22C6.47715 22 2 17.5228 2 12C2 6.47715 6.47715 2 12 2ZM4 12C4 16.4183 7.58172 20 12 20C16.4183 20 20 16.4183 20 12C20 7.58172 16.4183 4 12 4C7.58172 4 4 7.58172 4 12Z" fill="#777B92"/>
</svg>
