<svg width="22" height="22" viewBox="0 0 22 22" fill="none" xmlns="http://www.w3.org/2000/svg">
<path fill-rule="evenodd" clip-rule="evenodd" d="M12.3333 8.50559C12.8266 8.17595 13.4067 8 14 8C14.7957 8 15.5587 8.31607 16.1213 8.87868C16.6839 9.44129 17 10.2044 17 11C17 11.5933 16.8241 12.1734 16.4944 12.6667C16.1648 13.1601 15.6962 13.5446 15.1481 13.7716C14.5999 13.9987 13.9967 14.0581 13.4147 13.9424C12.8328 13.8266 12.2982 13.5409 11.8787 13.1213C11.4591 12.7018 11.1734 12.1672 11.0576 11.5853C10.9419 11.0033 11.0013 10.4001 11.2284 9.85195C11.4554 9.30377 11.8399 8.83524 12.3333 8.50559ZM13.4444 11.8315C13.6089 11.9414 13.8022 12 14 12C14.2652 12 14.5196 11.8946 14.7071 11.7071C14.8946 11.5196 15 11.2652 15 11C15 10.8022 14.9414 10.6089 14.8315 10.4444C14.7216 10.28 14.5654 10.1518 14.3827 10.0761C14.2 10.0004 13.9989 9.98063 13.8049 10.0192C13.6109 10.0578 13.4327 10.153 13.2929 10.2929C13.153 10.4327 13.0578 10.6109 13.0192 10.8049C12.9806 10.9989 13.0004 11.2 13.0761 11.3827C13.1518 11.5654 13.28 11.7216 13.4444 11.8315Z" fill="#97A3BA"/>
<path fill-rule="evenodd" clip-rule="evenodd" d="M8 4H14C15.8565 4 17.637 4.7375 18.9497 6.05025C20.2625 7.36301 21 9.14348 21 11C21 12.8565 20.2625 14.637 18.9497 15.9497C17.637 17.2625 15.8565 18 14 18H8C6.14348 18 4.36301 17.2625 3.05025 15.9497C1.7375 14.637 1 12.8565 1 11C1 9.14348 1.7375 7.36301 3.05025 6.05025C4.36301 4.7375 6.14348 4 8 4ZM4.46447 14.5355C5.40215 15.4732 6.67392 16 8 16H14C15.3261 16 16.5979 15.4732 17.5355 14.5355C18.4732 13.5979 19 12.3261 19 11C19 9.67392 18.4732 8.40215 17.5355 7.46447C16.5979 6.52678 15.3261 6 14 6H8C6.67392 6 5.40215 6.52678 4.46447 7.46447C3.52678 8.40215 3 9.67392 3 11C3 12.3261 3.52678 13.5979 4.46447 14.5355Z" fill="#97A3BA"/>
</svg>
