<svg width="24" height="24" viewBox="0 0 24 24" fill="none" xmlns="http://www.w3.org/2000/svg">
<path fill-rule="evenodd" clip-rule="evenodd" d="M2 12C2 6.47715 6.47715 2 12 2C17.5228 2 22 6.47715 22 12C22 17.5228 17.5228 22 12 22C6.47715 22 2 17.5228 2 12ZM4.06189 11H7.04793C7.30771 8.27235 8.57448 5.90997 9.63992 4.35382C6.68118 5.26601 4.4549 7.84834 4.06189 11ZM19.9381 11C19.5451 7.84834 17.3188 5.26601 14.3601 4.35382C15.4255 5.90997 16.6923 8.27235 16.9521 11H19.9381ZM16.9767 13C16.8735 15.2039 16.432 17.2177 15.7422 18.7696C15.6819 18.9054 15.6192 19.0387 15.5541 19.1692C17.905 18.0015 19.6 15.7114 19.9381 13H16.9767ZM14.941 11C14.614 8.20016 13.0038 5.78179 12 4.5238C10.9962 5.78179 9.386 8.20016 9.05904 11H14.941ZM9.02569 13C9.12742 14.9663 9.52397 16.6942 10.0854 17.9574C10.4134 18.6953 10.778 19.2306 11.1324 19.5679C11.4816 19.9002 11.7731 19.9995 12 19.9995C12.2269 19.9995 12.5184 19.9002 12.8676 19.5679C13.222 19.2306 13.5866 18.6953 13.9146 17.9574C14.476 16.6942 14.8726 14.9663 14.9743 13H9.02569ZM7.0233 13H4.06189C4.4 15.7114 6.09499 18.0015 8.44591 19.1692C8.38083 19.0387 8.31812 18.9054 8.25776 18.7696C7.56803 17.2177 7.12649 15.2039 7.0233 13Z" fill="#777B92"/>
</svg>
