<svg width="22" height="22" viewBox="0 0 22 22" fill="none" xmlns="http://www.w3.org/2000/svg">
<path d="M21 11C21 9.68678 20.7413 8.38642 20.2388 7.17317C19.7362 5.95991 18.9997 4.85752 18.0711 3.92893C17.1425 3.00035 16.0401 2.26375 14.8268 1.7612C13.6136 1.25866 12.3132 1 11 1C8.34784 1 5.8043 2.05357 3.92893 3.92893C2.05357 5.8043 1 8.34784 1 11C1 13.6522 2.05357 16.1957 3.92893 18.0711C5.8043 19.9464 8.34784 21 11 21C13.6522 21 16.1957 19.9464 18.0711 18.0711C19.9464 16.1957 21 13.6522 21 11ZM18.93 10H16C15.8351 7.64814 15.0293 5.38635 13.67 3.46C15.0665 3.95597 16.2977 4.83007 17.2265 5.98484C18.1553 7.13962 18.745 8.52967 18.93 10ZM8.08 12H14C13.7441 14.4706 12.6911 16.7908 11 18.61C9.31007 16.7984 8.28119 14.4693 8.08 12ZM8.08 10C8.31289 7.54183 9.33759 5.22572 11 3.4C12.7047 5.20612 13.7601 7.52804 14 10H8.08ZM8.44 3.43C7.07355 5.36702 6.2548 7.63672 6.07 10H3.07C3.2589 8.5115 3.86261 7.10612 4.81217 5.94437C5.76172 4.78262 7.01886 3.91133 8.44 3.43ZM3.07 12H6.07C6.23469 14.3613 7.04788 16.6313 8.42 18.56C7.00397 18.0763 5.75199 17.2052 4.80627 16.0456C3.86055 14.886 3.25902 13.4844 3.07 12ZM13.62 18.55C14.9884 16.6207 15.8107 14.3577 16 12H18.95C18.7609 13.4802 18.1615 14.8781 17.2196 16.0356C16.2778 17.193 15.0309 18.064 13.62 18.55Z" fill="#97A3BA"/>
</svg>
