<svg width="22" height="22" viewBox="0 0 22 22" fill="none" xmlns="http://www.w3.org/2000/svg">
<path fill-rule="evenodd" clip-rule="evenodd" d="M12.0001 19.9451C16.1717 19.4839 19.484 16.1716 19.9451 12H21.0001C21.5523 12 22.0001 11.5523 22.0001 11C22.0001 10.4477 21.5523 10 21.0001 10H19.9451C19.484 5.82838 16.1717 2.51608 12.0001 2.05493V1C12.0001 0.447715 11.5523 0 11.0001 0C10.4478 0 10.0001 0.447715 10.0001 1V2.05493C5.82844 2.51608 2.51614 5.82838 2.05499 10H1.00006C0.447776 10 6.10352e-05 10.4477 6.10352e-05 11C6.10352e-05 11.5523 0.447776 12 1.00006 12H2.05499C2.51614 16.1716 5.82844 19.4839 10.0001 19.9451V21C10.0001 21.5523 10.4478 22 11.0001 22C11.5523 22 12.0001 21.5523 12.0001 21V19.9451ZM4.00006 11C4.00006 7.13401 7.13407 4 11.0001 4C14.8661 4 18.0001 7.13401 18.0001 11C18.0001 14.866 14.8661 18 11.0001 18C7.13407 18 4.00006 14.866 4.00006 11Z" fill="#97A3BA"/>
</svg>
