<svg width="22" height="22" viewBox="0 0 22 22" fill="none" xmlns="http://www.w3.org/2000/svg">
<path d="M17.3416 14.0836C18.3048 12.4356 19 10.647 19 8.92C18.9789 6.81216 18.1268 4.79782 16.6288 3.31479C15.1307 1.83176 13.1079 0.999895 11 1C9.17727 0.999909 7.41819 1.62188 6.00703 2.74903L7.38743 4.12943C8.42222 3.34906 9.68899 2.92 11 2.92C12.5913 2.92 14.1174 3.55214 15.2426 4.67736C16.3679 5.80258 17 7.3287 17 8.92C17 10.1164 16.5472 11.3903 15.8781 12.6201L17.3416 14.0836Z" fill="#97A3BA"/>
<path d="M14.5822 17.8395C13.1071 19.52 11.7964 20.6512 11.65 20.76C11.4689 20.9149 11.2384 21.0001 11 21.0001C10.7616 21.0001 10.5311 20.9149 10.35 20.76L10.3484 20.7586C10.0253 20.4787 3 14.3904 3 8.92C3.00788 8.13247 3.13176 7.35799 3.362 6.61939L5.0331 8.29048C5.01114 8.49865 5 8.70875 5 8.92C5 12.65 9.33 17.06 11 18.65C11.5263 18.1489 12.3168 17.3648 13.1526 16.41L14.5822 17.8395Z" fill="#97A3BA"/>
<path d="M19.7044 18.2851L3.71315 2.29393C3.61996 2.20074 3.50933 2.12682 3.38758 2.07639C3.26582 2.02596 3.13533 2 3.00354 2C2.87175 2 2.74126 2.02596 2.6195 2.07639C2.49775 2.12682 2.38712 2.20074 2.29393 2.29393C2.10573 2.48213 2 2.73738 2 3.00354C2 3.2697 2.10573 3.52495 2.29393 3.71315L18.2851 19.7044C18.3781 19.798 18.4886 19.8724 18.6104 19.9231C18.7322 19.9739 18.8628 20 18.9948 20C19.1267 20 19.2573 19.9739 19.3791 19.9231C19.5009 19.8724 19.6115 19.798 19.7044 19.7044C19.798 19.6115 19.8724 19.5009 19.9231 19.3791C19.9739 19.2573 20 19.1267 20 18.9948C20 18.8628 19.9739 18.7322 19.9231 18.6104C19.8724 18.4886 19.798 18.3781 19.7044 18.2851Z" fill="#97A3BA"/>
<path d="M13.9101 10.4445C13.8825 10.4859 13.854 10.5266 13.8247 10.5667L12.3696 9.11164C12.4547 8.92099 12.5 8.71283 12.5 8.5C12.5 8.20333 12.412 7.91332 12.2472 7.66665C12.0824 7.41997 11.8481 7.22771 11.574 7.11418C11.2999 7.00065 10.9983 6.97094 10.7073 7.02882C10.597 7.05077 10.49 7.08495 10.3883 7.13037L8.93329 5.67532C8.97335 5.64601 9.01408 5.61751 9.05548 5.58986C9.63105 5.20527 10.3077 5 11 5C11.9282 5 12.8185 5.36875 13.4748 6.02513C14.1312 6.6815 14.5 7.57174 14.5 8.5C14.5 9.19223 14.2947 9.86892 13.9101 10.4445Z" fill="#97A3BA"/>
</svg>
