<svg width="24" height="24" viewBox="0 0 24 24" fill="none" xmlns="http://www.w3.org/2000/svg">
<path fill-rule="evenodd" clip-rule="evenodd" d="M15.3162 11.214L14.6068 13.3423C14.4077 13.9395 13.9391 14.4082 13.3418 14.6072L11.2136 15.3167C9.65004 15.8378 8.16256 14.3504 8.68373 12.7869L9.39316 10.6586C9.59223 10.0613 10.0609 9.59272 10.6581 9.39365L12.7864 8.68422C14.3499 8.16304 15.8374 9.65052 15.3162 11.214ZM11.2905 11.291L10.5811 13.4193L12.7094 12.7099L13.4188 10.5816L11.2905 11.291Z" fill="#777B92"/>
<path fill-rule="evenodd" clip-rule="evenodd" d="M12 2C17.5228 2 22 6.47715 22 12C22 17.5228 17.5228 22 12 22C6.47715 22 2 17.5228 2 12C2 6.47715 6.47715 2 12 2ZM4 12C4 16.4183 7.58172 20 12 20C16.4183 20 20 16.4183 20 12C20 7.58172 16.4183 4 12 4C7.58172 4 4 7.58172 4 12Z" fill="#777B92"/>
</svg>
