<svg width="24" height="24" viewBox="0 0 24 24" fill="none" xmlns="http://www.w3.org/2000/svg">
<path fill-rule="evenodd" clip-rule="evenodd" d="M11 8C11 7.44772 11.4477 7 12 7C13.6569 7 15 8.34315 15 10C15 10.5523 14.5523 11 14 11C13.4477 11 13 10.5523 13 10C13 9.44772 12.5523 9 12 9C11.4477 9 11 8.55228 11 8Z" fill="#777B92"/>
<path fill-rule="evenodd" clip-rule="evenodd" d="M4.89854 6.31276L3.29289 4.70711C2.90237 4.31658 2.90237 3.68342 3.29289 3.29289C3.68342 2.90237 4.31658 2.90237 4.70711 3.29289L6.05779 4.64358C7.52196 3.02032 9.64183 2 12 2C16.4183 2 20 5.58172 20 10C20 12.1664 18.8909 14.3769 17.6293 16.2151L20.7071 19.2929C21.0976 19.6834 21.0976 20.3166 20.7071 20.7071C20.3166 21.0976 19.6834 21.0976 19.2929 20.7071L16.4179 17.8321C15.2311 19.2965 14.0291 20.4867 13.3182 21.1539C12.5738 21.8525 11.4262 21.8525 10.6818 21.1539C9.79835 20.3247 8.15624 18.6877 6.72765 16.7204C5.32618 14.7905 4 12.3688 4 10C4 8.67019 4.32446 7.41616 4.89854 6.31276ZM6.40761 7.82182C6.14442 8.49704 6 9.23165 6 10C6 11.7032 6.99521 13.6852 8.34596 15.5452C9.64352 17.3321 11.1499 18.8465 12 19.6481C12.7092 18.9794 13.875 17.8147 14.9953 16.4096L6.40761 7.82182ZM7.47453 6.06031L16.1882 14.774C17.2591 13.1467 18 11.4695 18 10C18 6.68629 15.3137 4 12 4C10.1941 4 8.57449 4.79786 7.47453 6.06031Z" fill="#777B92"/>
</svg>
