<svg width="22" height="22" viewBox="0 0 22 22" fill="none" xmlns="http://www.w3.org/2000/svg">
<path d="M19.0019 19.9999C18.8052 20.0022 18.6127 19.9427 18.4516 19.8299L10.9971 14.8983L3.54266 19.8299C3.35893 19.9483 3.14149 20.0032 2.92356 19.9864C2.70563 19.9696 2.49921 19.8819 2.33584 19.7367C2.17247 19.5915 2.06115 19.3969 2.01888 19.1825C1.97662 18.9681 2.00574 18.7458 2.10179 18.5495L10.1066 2.54422C10.1906 2.38036 10.3181 2.24285 10.4753 2.14683C10.6324 2.05081 10.813 2 10.9971 2C11.1813 2 11.3619 2.05081 11.519 2.14683C11.6761 2.24285 11.8037 2.38036 11.8877 2.54422L19.8925 18.5495C19.9922 18.7468 20.0238 18.9717 19.9821 19.1889C19.9405 19.4061 19.828 19.6033 19.6623 19.7499C19.4799 19.9107 19.2452 19.9996 19.0019 19.9999ZM10.9971 12.6975C11.1933 12.6991 11.3847 12.7582 11.5475 12.8676L16.4304 16.0987L10.9971 5.2351L5.56387 16.0987L10.4468 12.8676C10.6096 12.7582 10.801 12.6991 10.9971 12.6975Z" fill="#97A3BA"/>
</svg>
