<svg width="22" height="22" viewBox="0 0 22 22" fill="none" xmlns="http://www.w3.org/2000/svg">
<path fill-rule="evenodd" clip-rule="evenodd" d="M14 11C14 12.6569 12.6569 14 11 14C9.34315 14 8 12.6569 8 11C8 9.34315 9.34315 8 11 8C12.6569 8 14 9.34315 14 11ZM12 11C12 11.5523 11.5523 12 11 12C10.4477 12 10 11.5523 10 11C10 10.4477 10.4477 10 11 10C11.5523 10 12 10.4477 12 11Z" fill="#97A3BA"/>
<path fill-rule="evenodd" clip-rule="evenodd" d="M19.9451 12C19.484 16.1716 16.1717 19.4839 12.0001 19.9451V21C12.0001 21.5523 11.5523 22 11.0001 22C10.4478 22 10.0001 21.5523 10.0001 21V19.9451C5.82844 19.4839 2.51614 16.1716 2.05499 12H1.00006C0.447776 12 6.10352e-05 11.5523 6.10352e-05 11C6.10352e-05 10.4477 0.447776 10 1.00006 10H2.05499C2.51614 5.82838 5.82844 2.51608 10.0001 2.05493V1C10.0001 0.447715 10.4478 0 11.0001 0C11.5523 0 12.0001 0.447715 12.0001 1V2.05493C16.1717 2.51608 19.484 5.82838 19.9451 10H21.0001C21.5523 10 22.0001 10.4477 22.0001 11C22.0001 11.5523 21.5523 12 21.0001 12H19.9451ZM11.0001 4C7.13407 4 4.00006 7.13401 4.00006 11C4.00006 14.866 7.13407 18 11.0001 18C14.8661 18 18.0001 14.866 18.0001 11C18.0001 7.13401 14.8661 4 11.0001 4Z" fill="#97A3BA"/>
</svg>
