<svg width="22" height="22" viewBox="0 0 22 22" fill="none" xmlns="http://www.w3.org/2000/svg">
<path fill-rule="evenodd" clip-rule="evenodd" d="M20 2.99982C20 2.25644 19.2177 1.77295 18.5528 2.1054L13.0436 4.85998L8.5159 2.14335L8.50364 2.13608C8.43802 2.09783 8.36909 2.06762 8.29825 2.04549C8.10398 1.98478 7.89567 1.9849 7.70175 2.04549C7.63091 2.06762 7.56198 2.09783 7.49636 2.13608L7.4841 2.14335L2.4855 5.14251C2.1843 5.32323 2 5.64874 2 6V19C2 19.3603 2.19379 19.6927 2.5073 19.8702C2.82081 20.0477 3.20556 20.0429 3.5145 19.8575L8 17.1662L12.4855 19.8575C12.5226 19.8798 12.5608 19.8994 12.5999 19.9165C12.8327 20.0188 13.1058 20.0342 13.3666 19.9304C13.3993 19.9175 13.4314 19.9029 13.4629 19.8864L19.4472 16.8943C19.786 16.7249 20 16.3786 20 15.9998V2.99982ZM14 17.3818L18 15.3818V4.61786L14 6.61786V17.3818ZM12 17.2338V6.56619L9 4.76619V15.4338L12 17.2338ZM7 4.76619V15.4338L4 17.2338V6.56619L7 4.76619Z" fill="#97A3BA"/>
</svg>
