<svg width="22" height="22" viewBox="0 0 22 22" fill="none" xmlns="http://www.w3.org/2000/svg">
<path fill-rule="evenodd" clip-rule="evenodd" d="M9.05551 5.58986C9.63108 5.20527 10.3078 5 11 5C11.9283 5 12.8185 5.36875 13.4749 6.02513C14.1313 6.6815 14.5 7.57174 14.5 8.5C14.5 9.19223 14.2947 9.86892 13.9101 10.4445C13.5256 11.0201 12.9789 11.4687 12.3394 11.7336C11.6999 11.9985 10.9961 12.0678 10.3172 11.9327C9.63825 11.7977 9.01461 11.4644 8.52513 10.9749C8.03564 10.4854 7.7023 9.86175 7.56725 9.18282C7.4322 8.50388 7.50152 7.80015 7.76642 7.16061C8.03133 6.52107 8.47993 5.97444 9.05551 5.58986ZM10.1666 9.7472C10.4133 9.91203 10.7033 10 11 10C11.3978 10 11.7794 9.84196 12.0607 9.56066C12.342 9.27936 12.5 8.89782 12.5 8.5C12.5 8.20333 12.412 7.91332 12.2472 7.66665C12.0824 7.41997 11.8481 7.22771 11.574 7.11418C11.2999 7.00065 10.9983 6.97094 10.7074 7.02882C10.4164 7.0867 10.1491 7.22956 9.93934 7.43934C9.72956 7.64912 9.5867 7.91639 9.52882 8.20736C9.47095 8.49834 9.50065 8.79994 9.61418 9.07403C9.72771 9.34811 9.91997 9.58238 10.1666 9.7472Z" fill="#97A3BA"/>
<path fill-rule="evenodd" clip-rule="evenodd" d="M5.37124 3.31479C6.86926 1.83176 8.89206 0.999895 11 1C13.1079 0.999895 15.1307 1.83176 16.6288 3.31479C18.1268 4.79782 18.9789 6.81216 19 8.92C19 14.4 12 20.5 11.65 20.76C11.4689 20.9149 11.2384 21.0001 11 21.0001C10.7616 21.0001 10.5311 20.9149 10.35 20.76L10.3484 20.7586C10.0254 20.4787 3 14.3904 3 8.92C3.02108 6.81216 3.87323 4.79782 5.37124 3.31479ZM5 8.92C5 12.65 9.33 17.06 11 18.65C12.67 17.06 17 12.62 17 8.92C17 7.3287 16.3679 5.80258 15.2426 4.67736C14.1174 3.55214 12.5913 2.92 11 2.92C9.4087 2.92 7.88258 3.55214 6.75736 4.67736C5.63214 5.80258 5 7.3287 5 8.92Z" fill="#97A3BA"/>
</svg>
