<svg width="22" height="22" viewBox="0 0 22 22" fill="none" xmlns="http://www.w3.org/2000/svg">
<path fill-rule="evenodd" clip-rule="evenodd" d="M8.00002 8C8.00002 6.34315 9.34316 5 11 5C12.6569 5 14 6.34315 14 8C14 9.65685 12.6569 11 11 11C9.34316 11 8.00002 9.65685 8.00002 8ZM11 7C10.4477 7 10 7.44772 10 8C10 8.55228 10.4477 9 11 9C11.5523 9 12 8.55228 12 8C12 7.44772 11.5523 7 11 7Z" fill="#97A3BA"/>
<path fill-rule="evenodd" clip-rule="evenodd" d="M5.37124 3.31479C6.86926 1.83176 8.89206 0.999895 11 1C13.1079 0.999895 15.1307 1.83176 16.6288 3.31479C18.1268 4.79782 18.9789 6.81216 19 8.92C19 14.4 12 20.5 11.65 20.76C11.4689 20.9149 11.2384 21.0001 11 21.0001C10.7616 21.0001 10.5311 20.9149 10.35 20.76L10.3484 20.7586C10.0254 20.4787 3 14.3904 3 8.92C3.02108 6.81216 3.87323 4.79782 5.37124 3.31479ZM7.96131 15.3575C9.09679 16.7859 10.2893 17.9733 11 18.65C11.7099 17.9741 12.9005 16.7832 14.0348 15.3531C13.2931 14.5233 12.2084 14 11 14C9.78948 14 8.70306 14.5252 7.96131 15.3575ZM6.76237 13.7032C7.85642 12.6493 9.35149 12 11 12C12.646 12 14.139 12.6473 15.2325 13.6983C16.2393 12.1517 17 10.4709 17 8.92C17 7.3287 16.3679 5.80258 15.2426 4.67736C14.1174 3.55214 12.5913 2.92 11 2.92C9.4087 2.92 7.88258 3.55214 6.75736 4.67736C5.63214 5.80258 5 7.3287 5 8.92C5 10.4808 5.75817 12.1607 6.76237 13.7032Z" fill="#97A3BA"/>
</svg>
