<svg width="24" height="24" viewBox="0 0 24 24" fill="none" xmlns="http://www.w3.org/2000/svg">
<path fill-rule="evenodd" clip-rule="evenodd" d="M14.7071 3.29289L15.7071 4.29289C15.8106 4.39643 15.8867 4.51702 15.9354 4.64562C16.1076 4.73678 16.2693 4.85486 16.4143 4.99985L19.0001 7.58564C19.1451 7.73064 19.2632 7.89238 19.3544 8.06463C19.483 8.11326 19.6036 8.18935 19.7071 8.29289L20.7071 9.29289C21.0976 9.68342 21.0976 10.3166 20.7071 10.7071C20.3166 11.0976 19.6834 11.0976 19.2929 10.7071L19 10.4142L15.0001 14.4141V16.5856C15.0001 17.1161 14.7894 17.6248 14.4143 17.9998C13.6333 18.7809 12.3669 18.7809 11.5859 17.9999L9.50012 15.9141L5.70711 19.7071C5.31658 20.0976 4.68342 20.0976 4.29289 19.7071C3.90237 19.3166 3.90237 18.6834 4.29289 18.2929L8.08591 14.4999L6.00009 12.4141C5.21904 11.633 5.21904 10.3667 6.00009 9.58564C6.37517 9.21056 6.88387 8.99985 7.41431 8.99985H9.58588L13.5858 4.99997L13.2929 4.70711C12.9024 4.31658 12.9024 3.68342 13.2929 3.29289C13.6834 2.90237 14.3166 2.90237 14.7071 3.29289ZM11.0001 10.4141C10.625 10.7891 10.1163 10.9998 9.58588 10.9998H7.41431L13.0001 16.5856L13.0001 14.4141C13.0001 13.8836 13.2108 13.3749 13.5859 12.9998L17.5859 8.99985L15.0001 6.41406L11.0001 10.4141Z" fill="#777B92"/>
</svg>
