<svg width="24" height="24" viewBox="0 0 24 24" fill="none" xmlns="http://www.w3.org/2000/svg">
<path fill-rule="evenodd" clip-rule="evenodd" d="M11 2C16.5228 2 21 6.47715 21 12C21 12.7623 20.9145 13.5059 20.7522 14.2213C20.63 14.7599 20.0943 15.0974 19.5557 14.9752C19.0171 14.853 18.6796 14.3173 18.8018 13.7787C18.8596 13.5237 18.9053 13.264 18.9382 13H15.9767C15.8735 15.2039 15.432 17.2177 14.7422 18.7696C14.6818 18.9056 14.6191 19.039 14.5539 19.1695L14.555 19.169C15.0495 18.9232 15.6497 19.1249 15.8955 19.6194C16.1413 20.114 15.9396 20.7142 15.445 20.96C14.1049 21.626 12.5947 22 11 22C5.47715 22 1 17.5228 1 12C1 6.47715 5.47715 2 11 2ZM8.63992 4.35382C5.68118 5.26601 3.4549 7.84834 3.06189 11H6.04793C6.30771 8.27235 7.57448 5.90997 8.63992 4.35382ZM18.9381 11C18.5451 7.84834 16.3188 5.26601 13.3601 4.35382C14.4255 5.90997 15.6923 8.27235 15.9521 11H18.9381ZM11 4.5238C9.99616 5.78179 8.386 8.20016 8.05904 11H13.941C13.614 8.20016 12.0038 5.78179 11 4.5238ZM12.9146 17.9574C13.476 16.6942 13.8726 14.9663 13.9743 13H8.02569C8.12742 14.9663 8.52397 16.6942 9.08538 17.9574C9.41337 18.6953 9.77801 19.2306 10.1324 19.5679C10.4816 19.9002 10.7731 19.9995 11 19.9995C11.2269 19.9995 11.5184 19.9002 11.8676 19.5679C12.222 19.2306 12.5866 18.6953 12.9146 17.9574ZM7.25776 18.7696C6.56803 17.2177 6.12649 15.2039 6.0233 13H3.06189C3.4 15.7114 5.09499 18.0015 7.44591 19.1692C7.38083 19.0387 7.31812 18.9054 7.25776 18.7696Z" fill="#777B92"/>
<path fill-rule="evenodd" clip-rule="evenodd" d="M17.9812 17.0001H22.0188C23.1428 16.9877 23.2593 18.0001 22.5816 18.6589L20.781 20.6573C20.5071 20.9914 20.025 20.9992 20.0009 20.9994H19.9991C19.975 20.9992 19.493 20.9914 19.219 20.6573L17.4185 18.6589C16.7407 18.0001 16.8572 16.9877 17.9812 17.0001Z" fill="#777B92"/>
</svg>
