<svg width="22" height="22" viewBox="0 0 22 22" fill="none" xmlns="http://www.w3.org/2000/svg">
<g clip-path="url(#clip0)">
<path fill-rule="evenodd" clip-rule="evenodd" d="M14.0958 18.0132C14.1854 18.2956 14.2935 18.6364 14.5545 18.9L15.0495 19.5C13.4653 20.5 11.6832 21 9.90099 21C7.22772 21 4.75247 20 2.87129 18.1C1.08911 16.2 0 13.7 0 11C0 8.3 1.08911 5.8 2.87129 3.9C4.75247 2.1 7.22772 1 9.90099 1C11.1881 1 12.4752 1.3 13.8614 1.9C15.0495 2.4 16.0396 3.2 17.0297 4.1C18.0198 5 18.7129 6.1 19.2079 7.3C19.703 8.5 20 9.8 20 11.1C20 12.1 19.802 13.1 19.5049 14.1H17.4257C17.6238 13.5 17.8218 12.8 17.9208 12.1H14.9505C14.7525 14.4 13.9604 16.7 12.5743 18.6C13.0693 18.4 13.5644 18.2 14.0594 17.9C14.0714 17.9364 14.0834 17.9743 14.0958 18.0132ZM17.7228 10C17.5248 8.5 16.9307 7.2 16.0396 6C15.1485 4.8 13.9604 4 12.5743 3.5C13.8614 5.4 14.6535 7.6 14.8515 10H17.7228ZM7.0297 10H12.8713C12.6733 7.5 11.5842 5.2 9.90099 3.4C8.31683 5.2 7.22772 7.5 7.0297 10ZM7.32673 3.4C5.94059 3.9 4.65347 4.7 3.76238 5.9C2.87129 7.1 2.27723 8.5 1.9802 10H4.95049C5.14851 7.6 5.94059 5.3 7.32673 3.4ZM2.07921 12C2.27723 13.4 2.87129 14.8 3.76238 16C4.75248 17.2 5.94059 18.1 7.32673 18.6C6.0396 16.6 5.24752 14.4 5.04951 12H2.07921ZM12.8713 12H7.0297C7.22772 14.5 8.21782 16.8 9.90099 18.6C11.5842 16.8 12.5743 14.5 12.8713 12Z" fill="#97A3BA"/>
<path d="M21.0188 16.0001H16.9812C15.8572 15.9877 15.7407 17.0001 16.4185 17.6589L18.219 19.6573C18.5 20 19 19.9994 19 19.9994C19 19.9994 19.5 20 19.781 19.6573L21.5816 17.6589C22.2593 17.0001 22.1428 15.9877 21.0188 16.0001Z" fill="#97A3BA"/>
</g>
<defs>
<clipPath id="clip0">
<rect width="22" height="22" fill="white"/>
</clipPath>
</defs>
</svg>
