<svg width="24" height="24" viewBox="0 0 24 24" fill="none" xmlns="http://www.w3.org/2000/svg">
<path fill-rule="evenodd" clip-rule="evenodd" d="M12 3C12.3788 3 12.7251 3.214 12.8945 3.55279L20.8945 19.5528C21.0948 19.9535 21.0042 20.4385 20.6728 20.7399C20.3414 21.0412 19.8499 21.0854 19.47 20.848L12 16.1792L4.53004 20.848C4.15016 21.0854 3.65873 21.0412 3.32729 20.7399C2.99585 20.4385 2.90527 19.9535 3.10561 19.5528L11.1056 3.55279C11.275 3.214 11.6213 3 12 3ZM6.48391 17.2683L11.47 14.152C11.7943 13.9493 12.2058 13.9493 12.53 14.152L17.5162 17.2683L12 6.23607L6.48391 17.2683Z" fill="#777B92"/>
</svg>
