<svg width="22" height="22" viewBox="0 0 22 22" fill="none" xmlns="http://www.w3.org/2000/svg">
<path d="M9 8C8.44772 8 8 8.44772 8 9C8 9.55228 8.44772 10 9 10H13C13.5523 10 14 9.55228 14 9C14 8.44772 13.5523 8 13 8H9Z" fill="#97A3BA"/>
<path fill-rule="evenodd" clip-rule="evenodd" d="M5.37124 3.31479C6.86926 1.83176 8.89206 0.999895 11 1C13.1079 0.999895 15.1307 1.83176 16.6288 3.31479C18.1268 4.79782 18.9789 6.81216 19 8.92C19 14.4 12 20.5 11.65 20.76C11.4689 20.9149 11.2384 21.0001 11 21.0001C10.7616 21.0001 10.5311 20.9149 10.35 20.76L10.3484 20.7586C10.0254 20.4787 3 14.3904 3 8.92C3.02108 6.81216 3.87323 4.79782 5.37124 3.31479ZM5 8.92C5 12.65 9.33 17.06 11 18.65C12.67 17.06 17 12.62 17 8.92C17 7.3287 16.3679 5.80258 15.2426 4.67736C14.1174 3.55214 12.5913 2.92 11 2.92C9.4087 2.92 7.88258 3.55214 6.75736 4.67736C5.63214 5.80258 5 7.3287 5 8.92Z" fill="#97A3BA"/>
</svg>
