<svg width="24" height="24" viewBox="0 0 24 24" fill="none" xmlns="http://www.w3.org/2000/svg">
<path fill-rule="evenodd" clip-rule="evenodd" d="M12 6C13.6569 6 15 7.34315 15 9C15 10.6569 13.6569 12 12 12C10.3431 12 9 10.6569 9 9C9 7.34315 10.3431 6 12 6ZM11 9C11 9.55228 11.4477 10 12 10C12.5523 10 13 9.55228 13 9C13 8.44772 12.5523 8 12 8C11.4477 8 11 8.44772 11 9Z" fill="#777B92"/>
<path fill-rule="evenodd" clip-rule="evenodd" d="M12 2C16.4183 2 20 5.58172 20 10C20 12.3688 18.6738 14.7905 17.2723 16.7204C15.8438 18.6877 14.2016 20.3247 13.3182 21.1539C12.5738 21.8525 11.4262 21.8525 10.6818 21.1539C9.79835 20.3247 8.15624 18.6877 6.72765 16.7204C5.32618 14.7905 4 12.3688 4 10C4 5.58172 7.58172 2 12 2ZM6 10C6 11.3927 6.66543 12.9718 7.64655 14.5182C8.84113 13.5685 10.3546 13 12 13C13.6455 13 15.1589 13.5685 16.3535 14.5182C17.3346 12.9718 18 11.3927 18 10C18 6.68629 15.3137 4 12 4C8.68629 4 6 6.68629 6 10ZM8.80397 16.1546C9.98372 17.6734 11.2484 18.9393 12 19.6481C12.7516 18.9393 14.0163 17.6734 15.196 16.1546C14.3289 15.4328 13.2154 15 12 15C10.7846 15 9.67108 15.4328 8.80397 16.1546Z" fill="#777B92"/>
</svg>
