<svg width="22" height="22" viewBox="0 0 22 22" fill="none" xmlns="http://www.w3.org/2000/svg">
<path fill-rule="evenodd" clip-rule="evenodd" d="M14.1686 7.02487C14.3648 7.06947 14.5431 7.17225 14.68 7.31978C14.8208 7.46124 14.916 7.64159 14.9534 7.83762C14.9908 8.03366 14.9687 8.2364 14.89 8.41978L13.14 12.6798C13.0897 12.8035 13.0151 12.916 12.9206 13.0104C12.8262 13.1049 12.7137 13.1795 12.59 13.2298L8.37998 14.9298C8.25907 14.9776 8.12999 15.0014 7.99998 14.9998C7.86032 14.9829 7.72579 14.9368 7.60517 14.8645C7.48455 14.7921 7.38055 14.6951 7.29998 14.5798H7.24998C7.13337 14.4444 7.05516 14.2802 7.02351 14.1043C6.99185 13.9285 7.0079 13.7473 7.06998 13.5798L8.81998 9.31978C8.87027 9.19601 8.94485 9.08358 9.03931 8.98911C9.13378 8.89465 9.24621 8.82007 9.36998 8.76978L13.58 7.06978C13.7672 6.99592 13.9723 6.98026 14.1686 7.02487ZM10.51 10.4698L9.79998 12.2098L11.49 11.5298L12.2 9.78978L10.51 10.4698Z" fill="#97A3BA"/>
<path fill-rule="evenodd" clip-rule="evenodd" d="M5.4443 2.6853C7.08879 1.58649 9.02219 1 11 1C12.3132 1 13.6136 1.25866 14.8268 1.7612C16.0401 2.26375 17.1425 3.00035 18.0711 3.92893C18.9997 4.85752 19.7363 5.95991 20.2388 7.17317C20.7413 8.38642 21 9.68678 21 11C21 12.9778 20.4135 14.9112 19.3147 16.5557C18.2159 18.2002 16.6541 19.4819 14.8268 20.2388C12.9996 20.9957 10.9889 21.1937 9.0491 20.8079C7.10929 20.422 5.32746 19.4696 3.92894 18.0711C2.53041 16.6725 1.578 14.8907 1.19215 12.9509C0.806299 11.0111 1.00433 9.00043 1.76121 7.17317C2.51809 5.3459 3.79981 3.78412 5.4443 2.6853ZM6.55544 17.6518C7.87104 18.5308 9.41775 19 11 19C13.1217 19 15.1566 18.1571 16.6569 16.6569C18.1572 15.1566 19 13.1217 19 11C19 9.41775 18.5308 7.87103 17.6518 6.55544C16.7727 5.23984 15.5233 4.21447 14.0615 3.60896C12.5997 3.00346 10.9911 2.84504 9.43928 3.15372C7.88743 3.4624 6.46197 4.22433 5.34315 5.34315C4.22433 6.46197 3.4624 7.88743 3.15372 9.43928C2.84504 10.9911 3.00347 12.5997 3.60897 14.0615C4.21447 15.5233 5.23985 16.7727 6.55544 17.6518Z" fill="#97A3BA"/>
</svg>
