<svg width="22" height="22" viewBox="0 0 22 22" fill="none" xmlns="http://www.w3.org/2000/svg">
<path d="M19.4101 4.89L15.4106 3.09H14.5907L11.0011 4.7L7.24155 3H6.64163L2.64212 4.8C2.44263 4.87645 2.27287 5.01479 2.15771 5.19474C2.04255 5.3747 1.98805 5.58681 2.00219 5.8V18C2.00247 18.1673 2.04473 18.3319 2.12508 18.4786C2.20544 18.6254 2.32133 18.7496 2.46214 18.84C2.62307 18.944 2.81048 18.9995 3.00207 19C3.14355 18.9993 3.28328 18.9687 3.41202 18.91L7.00158 17.3L10.5911 18.91H10.6411C10.7538 18.9627 10.8767 18.99 11.0011 18.99C11.1255 18.99 11.2484 18.9627 11.3611 18.91H11.411L15.0006 17.3L18.5902 18.91C18.7189 18.9687 18.8586 18.9993 19.0001 19C19.1917 18.9995 19.3791 18.944 19.5401 18.84C19.6809 18.7496 19.7968 18.6254 19.8771 18.4786C19.9575 18.3319 19.9997 18.1673 20 18V5.8C19.9996 5.60764 19.9437 5.41948 19.8391 5.25807C19.7345 5.09667 19.5855 4.96887 19.4101 4.89ZM4.00195 6.44L6.00171 5.55V15.55L4.00195 16.44V6.44ZM8.00146 5.55L10.0012 6.44V16.44L8.00146 15.55V5.55ZM12.001 6.44L14.0007 5.55V15.55L12.001 16.44V6.44ZM18.0002 16.44L16.0005 15.55V5.55L18.0002 6.44V16.44Z" fill="#97A3BA"/>
</svg>
