<svg width="22" height="22" viewBox="0 0 22 22" fill="none" xmlns="http://www.w3.org/2000/svg">
<path fill-rule="evenodd" clip-rule="evenodd" d="M12.8086 10.6301C14.3821 11.5637 16.4457 11.3539 17.7989 10.0007C19.4004 8.39917 19.4004 5.80263 17.7989 4.20113C16.1974 2.59962 13.6009 2.59962 11.9994 4.20113C10.6464 5.55424 10.4365 7.61768 11.3699 9.19113C11.3368 9.21693 11.3049 9.24503 11.2745 9.27545L3.30028 17.2498C2.89991 17.6502 2.89991 18.2993 3.30028 18.6997C3.70064 19.1001 4.34977 19.1001 4.75014 18.6997L12.7244 10.7253C12.7548 10.6949 12.7829 10.6631 12.8086 10.6301ZM16.349 8.55079C15.5483 9.35154 14.25 9.35154 13.4493 8.55079C12.6486 7.75004 12.6486 6.45176 13.4493 5.65101C14.25 4.85026 15.5483 4.85026 16.349 5.65101C17.1498 6.45176 17.1498 7.75004 16.349 8.55079Z" fill="#97A3BA"/>
</svg>
