<svg width="22" height="22" viewBox="0 0 22 22" fill="none" xmlns="http://www.w3.org/2000/svg">
<path d="M13.632 19.9986H13.5722C13.3529 19.9854 13.1442 19.8999 12.9784 19.7554C12.8126 19.611 12.6992 19.4156 12.6556 19.1998L10.9719 11.0121L2.80222 9.32469C2.58649 9.28175 2.391 9.16847 2.24624 9.00252C2.10147 8.83657 2.01557 8.62728 2.00192 8.40728C1.98827 8.18728 2.04765 7.96893 2.17078 7.78629C2.29392 7.60365 2.4739 7.46697 2.68266 7.39758L18.6235 2.07558C18.8024 2.00154 18.999 1.98134 19.1892 2.01746C19.3794 2.05357 19.555 2.14444 19.6945 2.27896C19.834 2.41347 19.9313 2.5858 19.9747 2.77489C20.018 2.96398 20.0055 3.16162 19.9386 3.34368L14.6283 19.3197C14.559 19.5263 14.4241 19.7046 14.2442 19.8272C14.0643 19.9498 13.8493 20.01 13.632 19.9986ZM6.85716 8.1165L12.028 9.17491C12.2212 9.21228 12.3992 9.3062 12.5392 9.44481C12.6793 9.58342 12.7753 9.76051 12.815 9.95374L13.8611 15.136L17.3681 4.60178L6.85716 8.1165Z" fill="#97A3BA"/>
</svg>
