<svg width="22" height="22" viewBox="0 0 22 22" fill="none" xmlns="http://www.w3.org/2000/svg">
<path d="M12 8H13C13.2652 8 13.5196 8.10536 13.7071 8.29289C13.8946 8.48043 14 8.73478 14 9C14 9.26522 13.8946 9.51957 13.7071 9.70711C13.5196 9.89464 13.2652 10 13 10H12V11C12 11.2652 11.8946 11.5196 11.7071 11.7071C11.5196 11.8946 11.2652 12 11 12C10.7348 12 10.4804 11.8946 10.2929 11.7071C10.1054 11.5196 10 11.2652 10 11V10H9C8.73478 10 8.48043 9.89464 8.29289 9.70711C8.10536 9.51957 8 9.26522 8 9C8 8.73478 8.10536 8.48043 8.29289 8.29289C8.48043 8.10536 8.73478 8 9 8H10V7C10 6.73478 10.1054 6.48043 10.2929 6.29289C10.4804 6.10536 10.7348 6 11 6C11.2652 6 11.5196 6.10536 11.7071 6.29289C11.8946 6.48043 12 6.73478 12 7V8Z" fill="#97A3BA"/>
<path fill-rule="evenodd" clip-rule="evenodd" d="M5.37124 3.31479C6.86926 1.83176 8.89206 0.999895 11 1C13.1079 0.999895 15.1307 1.83176 16.6288 3.31479C18.1268 4.79782 18.9789 6.81216 19 8.92C19 14.4 12 20.5 11.65 20.76C11.4689 20.9149 11.2384 21.0001 11 21.0001C10.7616 21.0001 10.5311 20.9149 10.35 20.76L10.3484 20.7586C10.0254 20.4787 3 14.3904 3 8.92C3.02108 6.81216 3.87323 4.79782 5.37124 3.31479ZM5 8.92C5 12.65 9.33 17.06 11 18.65C12.67 17.06 17 12.62 17 8.92C17 7.3287 16.3679 5.80258 15.2426 4.67736C14.1174 3.55214 12.5913 2.92 11 2.92C9.4087 2.92 7.88258 3.55214 6.75736 4.67736C5.63214 5.80258 5 7.3287 5 8.92Z" fill="#97A3BA"/>
</svg>
