<svg width="22" height="22" viewBox="0 0 22 22" fill="none" xmlns="http://www.w3.org/2000/svg">
<path fill-rule="evenodd" clip-rule="evenodd" d="M14.2388 2.28362C13.8607 1.90546 13.2476 1.90546 12.8694 2.28362C12.4913 2.66176 12.4913 3.27484 12.8694 3.653L8.36018 8.16227L5.6213 8.16235L3.96833 9.81512C3.59018 10.1933 3.59018 10.8064 3.96833 11.1845L6.70711 13.9234L3.28361 17.347C2.90546 17.7251 2.90546 18.3382 3.28361 18.7164C3.66176 19.0945 4.27486 19.0945 4.65301 18.7164L8.07651 15.2928L10.8153 18.0317C11.1935 18.4098 11.8066 18.4098 12.1847 18.0317L13.8377 16.3789L13.8378 13.64L18.3469 9.1307C18.7251 9.50885 19.3382 9.5089 19.7164 9.13074C20.0945 8.75259 20.0945 8.13947 19.7164 7.76132L14.2388 2.28362ZM11.5001 15.9777L11.9011 15.5767L11.9012 12.8378L16.9775 7.76127L14.2388 5.02242L9.16238 10.0989L6.4235 10.099L6.02254 10.5L11.5001 15.9777Z" fill="#97A3BA"/>
</svg>
