<svg width="24" height="24" viewBox="0 0 24 24" fill="none" xmlns="http://www.w3.org/2000/svg">
<path fill-rule="evenodd" clip-rule="evenodd" d="M10 9H14C14.5523 9 15 9.44772 15 10C15 10.5523 14.5523 11 14 11H10C9.44772 11 9 10.5523 9 10C9 9.44772 9.44772 9 10 9Z" fill="#777B92"/>
<path fill-rule="evenodd" clip-rule="evenodd" d="M12 2C16.4183 2 20 5.58172 20 10C20 12.3688 18.6738 14.7905 17.2723 16.7204C15.8438 18.6877 14.2016 20.3247 13.3182 21.1539C12.5738 21.8525 11.4262 21.8525 10.6818 21.1539C9.79835 20.3247 8.15624 18.6877 6.72765 16.7204C5.32618 14.7905 4 12.3688 4 10C4 5.58172 7.58172 2 12 2ZM6 10C6 11.7032 6.99521 13.6852 8.34596 15.5452C9.64352 17.3321 11.1499 18.8465 12 19.6481C12.8501 18.8465 14.3565 17.3321 15.654 15.5452C17.0048 13.6852 18 11.7032 18 10C18 6.68629 15.3137 4 12 4C8.68629 4 6 6.68629 6 10Z" fill="#777B92"/>
</svg>
