<svg width="22" height="22" viewBox="0 0 22 22" fill="none" xmlns="http://www.w3.org/2000/svg">
<path fill-rule="evenodd" clip-rule="evenodd" d="M7 1C6.44772 1 6 1.44772 6 2C6 2.55228 6.44772 3 7 3L7 9.58568L5 11.5858V14C5 14.5523 5.44772 15 6 15H10L10 20C10 20.5523 10.4477 21 11 21C11.5523 21 12 20.5523 12 20V15H16C16.5523 15 17 14.5523 17 14V11.5858L15 9.58568V3C15.5523 3 16 2.55228 16 2C16 1.44772 15.5523 1 15 1H7ZM15 13V12.4142L13 10.4141V3H9V10.4141L7 12.4142V13H15Z" fill="#97A3BA"/>
</svg>
