<svg width="16" height="16" viewBox="0 0 16 16" fill="none" xmlns="http://www.w3.org/2000/svg">
<path fill-rule="evenodd" clip-rule="evenodd" d="M8.5 7.99982V5.61804C8.5 5.04988 8.821 4.53048 9.32918 4.2764L10.7764 3.55279C11.0234 3.42929 11.3237 3.52941 11.4472 3.7764C11.5707 4.02339 11.4706 4.32372 11.2236 4.44722L9.77639 5.17082C9.607 5.25552 9.5 5.42865 9.5 5.61804V10C9.5 11.3807 8.38071 12.5 7 12.5C5.61929 12.5 4.5 11.3807 4.5 10C4.5 8.61929 5.61929 7.5 7 7.5C7.5628 7.5 8.08217 7.68597 8.5 7.99982ZM7 8.5C6.17157 8.5 5.5 9.17157 5.5 10C5.5 10.8284 6.17157 11.5 7 11.5C7.82843 11.5 8.5 10.8284 8.5 10C8.5 9.17157 7.82843 8.5 7 8.5Z" fill="#777B92"/>
<path fill-rule="evenodd" clip-rule="evenodd" d="M1.5 2C1.5 1.17157 2.17157 0.5 3 0.5H13C13.8284 0.5 14.5 1.17157 14.5 2V14C14.5 14.8284 13.8284 15.5 13 15.5H3C2.17157 15.5 1.5 14.8284 1.5 14V2ZM3 1.5C2.72386 1.5 2.5 1.72386 2.5 2V14C2.5 14.2761 2.72386 14.5 3 14.5H13C13.2761 14.5 13.5 14.2761 13.5 14V2C13.5 1.72386 13.2761 1.5 13 1.5H3Z" fill="#777B92"/>
</svg>
