<svg width="24" height="24" viewBox="0 0 24 24" fill="none" xmlns="http://www.w3.org/2000/svg">
<path fill-rule="evenodd" clip-rule="evenodd" d="M4 12C4 16.4183 7.58172 20 12 20C16.4183 20 20 16.4183 20 12C20 11.3876 19.9314 10.7924 19.8018 10.2213C19.6796 9.68269 20.0171 9.147 20.5557 9.02479C21.0943 8.90258 21.63 9.24012 21.7522 9.77871C21.9145 10.4941 22 11.2377 22 12C22 17.5228 17.5228 22 12 22C6.47715 22 2 17.5228 2 12C2 6.47715 6.47715 2 12 2C12.5523 2 13 2.44772 13 3C13 3.55228 12.5523 4 12 4C7.58172 4 4 7.58172 4 12Z" fill="#777B92"/>
<path d="M9 11H15C15.5523 11 16 11.4477 16 12C16 12.5523 15.5523 13 15 13H9C8.44772 13 8 12.5523 8 12C8 11.4477 8.44772 11 9 11Z" fill="#777B92"/>
</svg>
