<svg width="24" height="24" viewBox="0 0 24 24" fill="none" xmlns="http://www.w3.org/2000/svg">
<path fill-rule="evenodd" clip-rule="evenodd" d="M9.7016 8.58023C9.14622 8.92734 9.00003 9.27885 9.00003 9.5C9.00003 9.71919 9.07109 9.93549 9.55586 10.2104C10.0928 10.515 10.9545 10.7711 12.1961 11.0194C13.4545 11.2711 14.5928 11.5746 15.4309 12.0499C16.3211 12.5548 17 13.3385 17 14.5C17 15.6596 16.2508 16.5581 15.3585 17.1158C14.452 17.6823 13.262 18 12 18C10.8923 18 9.829 17.7556 8.96463 17.3216C8.12099 16.898 7.34764 16.2286 7.04893 15.3089C6.87833 14.7836 7.16585 14.2195 7.69113 14.0489C8.2164 13.8783 8.78052 14.1658 8.95112 14.6911C9.02303 14.9125 9.28209 15.2431 9.86201 15.5342C10.4212 15.815 11.1726 16 12 16C12.9472 16 13.7572 15.7581 14.2985 15.4198C14.8538 15.0727 15 14.7212 15 14.5C15 14.2808 14.929 14.0645 14.4442 13.7896C13.9072 13.485 13.0455 13.2289 11.8039 12.9806C10.5455 12.7289 9.40721 12.4254 8.5692 11.9501C7.67897 11.4452 7.00003 10.6615 7.00003 9.5C7.00003 8.34044 7.74927 7.44194 8.6416 6.88423C9.54803 6.31772 10.738 6 12 6C13.1078 6 14.1711 6.24442 15.0354 6.67839C15.8791 7.10196 16.6524 7.77139 16.9511 8.6911C17.1217 9.21638 16.8342 9.78049 16.3089 9.95109C15.7837 10.1217 15.2195 9.83417 15.0489 9.3089C14.977 9.08748 14.718 8.75692 14.138 8.46577C13.5789 8.18502 12.8275 8 12 8C11.0529 8 10.2429 8.24193 9.7016 8.58023Z" fill="#777B92"/>
</svg>
