<svg width="24" height="24" viewBox="0 0 24 24" fill="none" xmlns="http://www.w3.org/2000/svg">
<path fill-rule="evenodd" clip-rule="evenodd" d="M4 12C4 16.4183 7.58172 20 12 20C15.806 20 18.9934 17.3412 19.8018 13.7787C19.924 13.2401 20.4597 12.9026 20.9983 13.0248C21.5369 13.147 21.8744 13.6827 21.7522 14.2213C20.7416 18.6747 16.7603 22 12 22C6.47715 22 2 17.5228 2 12C2 6.47715 6.47715 2 12 2C14.0543 2 15.9667 2.62053 17.5563 3.68454C18.0152 3.99175 18.1382 4.61285 17.831 5.07181C17.5238 5.53076 16.9027 5.65377 16.4437 5.34656C15.1731 4.49602 13.646 4 12 4C7.58172 4 4 7.58172 4 12Z" fill="#777B92"/>
<path fill-rule="evenodd" clip-rule="evenodd" d="M13 8V11H16C16.5523 11 17 11.4477 17 12C17 12.5523 16.5523 13 16 13H13C11.8954 13 11 12.1046 11 11V8C11 7.44772 11.4477 7 12 7C12.5523 7 13 7.44772 13 8Z" fill="#777B92"/>
<path fill-rule="evenodd" clip-rule="evenodd" d="M21 2C21.5523 2 22 2.44772 22 3V7C22 7.55228 21.5523 8 21 8C20.4477 8 20 7.55228 20 7V3C20 2.44772 20.4477 2 21 2Z" fill="#777B92"/>
<path fill-rule="evenodd" clip-rule="evenodd" d="M21 11C20.4477 11 20 10.5523 20 10C20 9.44772 20.4477 9 21 9C21.5523 9 22 9.44772 22 10C22 10.5523 21.5523 11 21 11Z" fill="#777B92"/>
</svg>
