<svg width="24" height="24" viewBox="0 0 24 24" fill="none" xmlns="http://www.w3.org/2000/svg">
<path fill-rule="evenodd" clip-rule="evenodd" d="M12 5C12.5523 5 13 5.44772 13 6V10.234L16.4855 8.14266C16.9591 7.85851 17.5734 8.01208 17.8575 8.48566C18.1417 8.95924 17.9881 9.5735 17.5145 9.85764L13.9439 12L17.5145 14.1424C17.9881 14.4265 18.1417 15.0408 17.8575 15.5143C17.5734 15.9879 16.9591 16.1415 16.4855 15.8573L13 13.766V18C13 18.5523 12.5523 19 12 19C11.4477 19 11 18.5523 11 18V13.7664L7.51452 15.8576C7.04094 16.1418 6.42668 15.9882 6.14254 15.5146C5.85839 15.0411 6.01195 14.4268 6.48553 14.1427L10.0566 12L6.48553 9.85734C6.01195 9.57319 5.85839 8.95893 6.14254 8.48535C6.42668 8.01177 7.04094 7.85821 7.51452 8.14236L11 10.2336V6C11 5.44772 11.4477 5 12 5Z" fill="#777B92"/>
</svg>
