<svg width="24" height="24" viewBox="0 0 24 24" fill="none" xmlns="http://www.w3.org/2000/svg">
<path fill-rule="evenodd" clip-rule="evenodd" d="M2 12C2 6.47715 6.47715 2 12 2C14.6566 2 17.0708 3.03639 18.8608 4.72483L19.0144 3.83063C19.108 3.28633 19.6251 2.92091 20.1694 3.01445C20.7137 3.10799 21.0791 3.62506 20.9856 4.16937L20.47 7.16937C20.3875 7.64927 19.9714 8 19.4845 8H17C16.4477 8 16 7.55228 16 7C16 6.44772 16.4477 6 17 6H17.2918C15.8809 4.75451 14.0285 4 12 4C7.58172 4 4 7.58172 4 12C4 16.4183 7.58172 20 12 20C12.6124 20 13.2076 19.9314 13.7787 19.8018C14.3173 19.6796 14.853 20.0171 14.9752 20.5557C15.0974 21.0943 14.7599 21.63 14.2213 21.7522C13.5059 21.9145 12.7623 22 12 22C6.47715 22 2 17.5228 2 12Z" fill="#777B92"/>
<path fill-rule="evenodd" clip-rule="evenodd" d="M12 7C12.5523 7 13 7.44772 13 8V11H16C16.5523 11 17 11.4477 17 12C17 12.5523 16.5523 13 16 13H12C11.4477 13 11 12.5523 11 12V8C11 7.44772 11.4477 7 12 7Z" fill="#777B92"/>
<path fill-rule="evenodd" clip-rule="evenodd" d="M22 20.9197C22 21.7582 21.0301 22.2244 20.3753 21.7006L17.9761 19.7812C17.4757 19.3809 17.4757 18.6198 17.9761 18.2195L20.3753 16.3001C21.0301 15.7763 22 16.2425 22 17.081V20.9197Z" fill="#777B92"/>
</svg>
