<svg width="24" height="24" viewBox="0 0 24 24" fill="none" xmlns="http://www.w3.org/2000/svg">
<path fill-rule="evenodd" clip-rule="evenodd" d="M13.0188 10.0001C14.1428 9.98772 14.2593 11.0001 13.5816 11.6589L11.781 13.6573C11.5071 13.9914 11.025 13.9992 11.0009 13.9994H10.9991C10.975 13.9992 10.493 13.9914 10.219 13.6573L8.41847 11.6589C7.7407 11.0001 7.85725 9.98772 8.98123 10.0001H13.0188Z" fill="#777B92"/>
<path fill-rule="evenodd" clip-rule="evenodd" d="M3 11C3 6.58172 6.58172 3 11 3C15.4183 3 19 6.58172 19 11C19 12.8487 18.3729 14.551 17.3199 15.9056L20.7071 19.2929C21.0976 19.6834 21.0976 20.3166 20.7071 20.7071C20.3166 21.0976 19.6834 21.0976 19.2929 20.7071L15.9056 17.3199C14.551 18.3729 12.8487 19 11 19C6.58172 19 3 15.4183 3 11ZM11 5C7.68629 5 5 7.68629 5 11C5 14.3137 7.68629 17 11 17C14.3137 17 17 14.3137 17 11C17 7.68629 14.3137 5 11 5Z" fill="#777B92"/>
</svg>
