<svg width="24" height="24" viewBox="0 0 24 24" fill="none" xmlns="http://www.w3.org/2000/svg">
<path fill-rule="evenodd" clip-rule="evenodd" d="M8 4C8.55228 4 9 4.44772 9 5V16.5858L9.29289 16.2929C9.68342 15.9024 10.3166 15.9024 10.7071 16.2929C11.0976 16.6834 11.0976 17.3166 10.7071 17.7071L8.70711 19.7071C8.31658 20.0976 7.68342 20.0976 7.29289 19.7071L5.29289 17.7071C4.90237 17.3166 4.90237 16.6834 5.29289 16.2929C5.68342 15.9024 6.31658 15.9024 6.70711 16.2929L7 16.5858V5C7 4.44772 7.44772 4 8 4Z" fill="#777B92"/>
<path fill-rule="evenodd" clip-rule="evenodd" d="M15.9989 10.1281C15.5102 10.1262 15.0898 10.0059 14.7375 9.76731C14.3871 9.52868 14.1172 9.18303 13.9279 8.73038C13.7404 8.27773 13.6475 7.73322 13.6494 7.09686C13.6513 6.14421 13.8606 5.40746 14.2773 4.88663C14.6958 4.3639 15.2697 4.10254 15.9989 4.10254C16.4856 4.10254 16.9042 4.21996 17.2546 4.45481C17.6068 4.68966 17.8777 5.03057 18.0671 5.47754C18.2565 5.92261 18.3502 6.46239 18.3483 7.09686C18.3464 8.05519 18.1371 8.80046 17.7205 9.33265C17.3038 9.86296 16.7299 10.1281 15.9989 10.1281ZM15.9989 9.10822C16.3322 9.10822 16.5983 8.94061 16.7972 8.60538C16.996 8.27015 17.0945 7.76731 17.0926 7.09686C17.0926 6.43587 16.9932 5.93966 16.7943 5.60822C16.5955 5.27678 16.3303 5.11106 15.9989 5.11106C15.6674 5.11106 15.4023 5.27678 15.2034 5.60822C15.0046 5.93966 14.9042 6.43587 14.9023 7.09686C14.9004 7.76731 14.9989 8.27015 15.1977 8.60538C15.3985 8.94061 15.6655 9.10822 15.9989 9.10822Z" fill="#777B92"/>
<path fill-rule="evenodd" clip-rule="evenodd" d="M16.7997 14.2356C17.0781 14.334 17.3262 14.4941 17.544 14.7157C17.7637 14.9373 17.9379 15.2308 18.0667 15.5964C18.1955 15.96 18.2599 16.4079 18.2599 16.9401C18.2599 17.5973 18.1624 18.1607 17.9673 18.6304C17.7722 19.0982 17.4976 19.4572 17.1434 19.7072C16.7911 19.9553 16.3745 20.0793 15.8934 20.0793C15.5052 20.0793 15.1624 20.0045 14.865 19.8549C14.5677 19.7034 14.3281 19.4979 14.1463 19.2384C13.9663 18.977 13.8574 18.6835 13.8195 18.3577H15.0326C15.08 18.5698 15.1794 18.7346 15.3309 18.852C15.4824 18.9676 15.6699 19.0253 15.8934 19.0253C16.2722 19.0253 16.5601 18.8606 16.757 18.531C16.954 18.1996 17.0534 17.746 17.0553 17.1702H17.0156C16.8868 17.4259 16.6898 17.6267 16.4247 17.7725C16.1614 17.9183 15.8697 17.9912 15.5497 17.9912C15.2069 17.9912 14.9 17.9107 14.6292 17.7498C14.3584 17.5869 14.1453 17.3643 13.99 17.0822C13.8366 16.8 13.7608 16.477 13.7627 16.1134C13.7608 15.7195 13.8508 15.37 14.0326 15.0651C14.2144 14.7583 14.4682 14.5178 14.794 14.3435C15.1216 14.1693 15.5023 14.0831 15.936 14.085C16.2353 14.085 16.5231 14.1352 16.7997 14.2356ZM15.2343 15.3464C15.0468 15.5433 14.954 15.7876 14.9559 16.0793C14.954 16.3672 15.0449 16.6096 15.2286 16.8066C15.4142 17.0017 15.6491 17.0992 15.9332 17.0992C16.1207 17.0992 16.2892 17.0528 16.4389 16.96C16.5904 16.8672 16.7097 16.7431 16.7968 16.5878C16.8858 16.4325 16.9313 16.2611 16.9332 16.0736C16.9313 15.8861 16.8868 15.7157 16.7997 15.5623C16.7144 15.407 16.598 15.2829 16.4502 15.1901C16.3025 15.0973 16.1339 15.0509 15.9445 15.0509C15.6586 15.0509 15.4218 15.1494 15.2343 15.3464Z" fill="#777B92"/>
</svg>
