<svg width="24" height="24" viewBox="0 0 24 24" fill="none" xmlns="http://www.w3.org/2000/svg">
<path fill-rule="evenodd" clip-rule="evenodd" d="M8 4C8.55228 4 9 4.44772 9 5V16.5858L9.29289 16.2929C9.68342 15.9024 10.3166 15.9024 10.7071 16.2929C11.0976 16.6834 11.0976 17.3166 10.7071 17.7071L8.70711 19.7071C8.31658 20.0976 7.68342 20.0976 7.29289 19.7071L5.29289 17.7071C4.90237 17.3166 4.90237 16.6834 5.29289 16.2929C5.68342 15.9024 6.31658 15.9024 6.70711 16.2929L7 16.5858V5C7 4.44772 7.44772 4 8 4Z" fill="#777B92"/>
<path fill-rule="evenodd" clip-rule="evenodd" d="M14.5164 9.99982H13.1982L15.2068 4.18164H16.792L18.7977 9.99982H17.4795L17.0477 8.67312H14.9482L14.5164 9.99982ZM15.2607 7.71289H16.738L16.0221 5.51119H15.9767L15.2607 7.71289Z" fill="#777B92"/>
<path fill-rule="evenodd" clip-rule="evenodd" d="M13.7752 19.2697L16.6786 15.1958H13.7695V14.1816H18.2241V14.9118L15.3178 18.9856H18.2298V19.9998H13.7752V19.2697Z" fill="#777B92"/>
</svg>
