<svg width="24" height="24" viewBox="0 0 24 24" fill="none" xmlns="http://www.w3.org/2000/svg">
<path fill-rule="evenodd" clip-rule="evenodd" d="M7 5V16.5858L7.29289 16.2929C7.68342 15.9024 8.31658 15.9024 8.70711 16.2929C9.09763 16.6834 9.09763 17.3166 8.70711 17.7071L6.70711 19.7071C6.31658 20.0976 5.68342 20.0976 5.29289 19.7071L3.29289 17.7071C2.90237 17.3166 2.90237 16.6834 3.29289 16.2929C3.68342 15.9024 4.31658 15.9024 4.70711 16.2929L5 16.5858V5C5 4.44772 5.44772 4 6 4C6.55228 4 7 4.44772 7 5Z" fill="#777B92"/>
<path fill-rule="evenodd" clip-rule="evenodd" d="M11 4H20C20.5523 4 21 4.44772 21 5C21 5.55228 20.5523 6 20 6H11C10.4477 6 10 5.55228 10 5C10 4.44772 10.4477 4 11 4Z" fill="#777B92"/>
<path fill-rule="evenodd" clip-rule="evenodd" d="M11 8H16C16.5523 8 17 8.44772 17 9C17 9.55228 16.5523 10 16 10H11C10.4477 10 10 9.55228 10 9C10 8.44772 10.4477 8 11 8Z" fill="#777B92"/>
<path fill-rule="evenodd" clip-rule="evenodd" d="M10 13C10 12.4477 10.4477 12 11 12H13C13.5523 12 14 12.4477 14 13C14 13.5523 13.5523 14 13 14H11C10.4477 14 10 13.5523 10 13Z" fill="#777B92"/>
</svg>
