<svg width="24" height="24" viewBox="0 0 24 24" fill="none" xmlns="http://www.w3.org/2000/svg">
<path fill-rule="evenodd" clip-rule="evenodd" d="M3.99993 4C3.99993 2.89543 4.89536 2 5.99993 2H12.5857C12.6671 2 12.748 2.00496 12.828 2.01472C12.8839 2.00504 12.9413 2 12.9999 2C13.3381 2 13.637 2.16782 13.818 2.4247C13.8815 2.4744 13.9423 2.52815 13.9999 2.58579L19.4141 8C19.4718 8.05763 19.5255 8.11842 19.5752 8.18196C19.8321 8.36295 19.9999 8.66187 19.9999 9C19.9999 9.05862 19.9949 9.11607 19.9852 9.17192C19.995 9.25191 19.9999 9.3328 19.9999 9.41421V13C19.9999 13.5523 19.5522 14 18.9999 14C18.4476 14 17.9999 13.5523 17.9999 13V10H13.9999C12.8954 10 11.9999 9.10457 11.9999 8V4L5.99993 4V13C5.99993 13.5523 5.55222 14 4.99993 14C4.44765 14 3.99993 13.5523 3.99993 13V4ZM13.9999 5.41421V8H16.5857L13.9999 5.41421ZM6.02124 22H3.95874V16.1818H6.03829C6.62351 16.1818 7.1273 16.2983 7.54965 16.5312C7.97389 16.7623 8.29965 17.0947 8.52692 17.5284C8.7542 17.9621 8.86783 18.4811 8.86783 19.0852C8.86783 19.6913 8.75325 20.2121 8.52408 20.6477C8.29681 21.0833 7.9701 21.4176 7.54397 21.6506C7.11973 21.8835 6.61215 22 6.02124 22ZM5.18885 20.946H5.9701C6.51745 20.946 6.93223 20.7983 7.21442 20.5028C7.49851 20.2074 7.64056 19.7348 7.64056 19.0852C7.64056 18.4394 7.49851 17.9697 7.21442 17.6761C6.93223 17.3826 6.5184 17.2358 5.97294 17.2358H5.18885V20.946ZM15.1256 19.0909C15.1256 19.7254 15.0054 20.2652 14.7648 20.7102C14.5262 21.1553 14.2014 21.4953 13.7904 21.7301C13.3794 21.9631 12.9164 22.0795 12.4012 22.0795C11.8842 22.0795 11.4202 21.9621 11.0092 21.7273C10.5982 21.4924 10.2734 21.1525 10.0347 20.7074C9.7961 20.2604 9.67678 19.7216 9.67678 19.0909C9.67678 18.4564 9.7961 17.9167 10.0347 17.4716C10.2734 17.0265 10.5982 16.6875 11.0092 16.4545C11.4202 16.2197 11.8842 16.1023 12.4012 16.1023C12.9164 16.1023 13.3794 16.2197 13.7904 16.4545C14.2014 16.6875 14.5262 17.0265 14.7648 17.4716C15.0054 17.9167 15.1256 18.4564 15.1256 19.0909ZM13.8785 19.0909C13.8785 18.4735 13.744 18.0028 13.4751 17.679C13.2061 17.3532 12.8482 17.1903 12.4012 17.1903C11.9542 17.1903 11.5963 17.3532 11.3273 17.679C11.0584 18.0028 10.9239 18.4735 10.9239 19.0909C10.9239 19.7064 11.0584 20.1771 11.3273 20.5028C11.5963 20.8286 11.9542 20.9915 12.4012 20.9915C12.8482 20.9915 13.2061 20.8286 13.4751 20.5028C13.744 20.1771 13.8785 19.7064 13.8785 19.0909ZM21.1704 18.2188H19.9261C19.8787 17.8987 19.7424 17.6477 19.517 17.4659C19.2916 17.2822 19.0104 17.1903 18.6732 17.1903C18.2225 17.1903 17.8607 17.3561 17.588 17.6875C17.3172 18.017 17.1818 18.4848 17.1818 19.0909C17.1818 19.7121 17.3181 20.1847 17.5908 20.5085C17.8655 20.8305 18.2234 20.9915 18.6647 20.9915C18.9924 20.9915 19.2698 20.9062 19.4971 20.7358C19.7244 20.5634 19.8674 20.322 19.9261 20.0114L21.1704 20.017C21.1268 20.3731 20.9999 20.7083 20.7897 21.0227C20.5795 21.3371 20.2935 21.5919 19.9318 21.7869C19.5719 21.982 19.1429 22.0795 18.6448 22.0795C18.1259 22.0795 17.6619 21.9621 17.2528 21.7273C16.8456 21.4924 16.5236 21.1525 16.2869 20.7074C16.052 20.2623 15.9346 19.7235 15.9346 19.0909C15.9346 18.4564 16.0539 17.9167 16.2925 17.4716C16.5312 17.0265 16.855 16.6875 17.2641 16.4545C17.6732 16.2197 18.1335 16.1023 18.6448 16.1023C19.0937 16.1023 19.498 16.1856 19.8579 16.3523C20.2196 16.517 20.5151 16.7576 20.7443 17.0739C20.9753 17.3883 21.1174 17.7699 21.1704 18.2188Z" fill="#777B92"/>
</svg>
