<svg width="24" height="24" viewBox="0 0 24 24" fill="none" xmlns="http://www.w3.org/2000/svg">
<path fill-rule="evenodd" clip-rule="evenodd" d="M4 4C4 2.89543 4.89543 2 6 2H12.5858C12.6672 2 12.7481 2.00496 12.8281 2.01472C12.8839 2.00504 12.9414 2 13 2C13.3381 2 13.6371 2.16782 13.818 2.4247C13.8816 2.4744 13.9424 2.52815 14 2.58579L19.4142 8C19.4718 8.05763 19.5256 8.11842 19.5753 8.18196C19.8322 8.36295 20 8.66187 20 9C20 9.05862 19.995 9.11607 19.9853 9.17192C19.995 9.25191 20 9.3328 20 9.41421V20C20 21.1046 19.1046 22 18 22H14C13.4477 22 13 21.5523 13 21C13 20.4477 13.4477 20 14 20H18V10H14C12.8954 10 12 9.10457 12 8V4H6V12C6 12.5523 5.55228 13 5 13C4.44772 13 4 12.5523 4 12V4ZM14 8V5.41421L16.5858 8H14ZM4 16C4 16.5523 4.44772 17 5 17H7.58579L4.29289 20.2929C3.90237 20.6834 3.90237 21.3166 4.29289 21.7071C4.68342 22.0976 5.31658 22.0976 5.70711 21.7071L9 18.4142V21C9 21.5523 9.44772 22 10 22C10.5523 22 11 21.5523 11 21V16C11 15.4477 10.5523 15 10 15H5C4.44772 15 4 15.4477 4 16Z" fill="#777B92"/>
</svg>
