<svg width="24" height="24" viewBox="0 0 24 24" fill="none" xmlns="http://www.w3.org/2000/svg">
<path fill-rule="evenodd" clip-rule="evenodd" d="M4 4C4 2.89543 4.89543 2 6 2H12.5858C12.6672 2 12.7481 2.00496 12.8281 2.01472C12.8839 2.00504 12.9414 2 13 2C13.3381 2 13.6371 2.16782 13.818 2.4247C13.8816 2.4744 13.9424 2.52815 14 2.58579L19.4142 8C19.4718 8.05763 19.5256 8.11842 19.5753 8.18196C19.8322 8.36295 20 8.66187 20 9C20 9.05862 19.995 9.11607 19.9853 9.17192C19.995 9.25191 20 9.3328 20 9.41421V14C20 14.5523 19.5523 15 19 15C18.4477 15 18 14.5523 18 14V10H14C12.8954 10 12 9.10457 12 8V4L6 4V14C6 14.5523 5.55228 15 5 15C4.44772 15 4 14.5523 4 14V4ZM14 8V5.41421L16.5858 8H14ZM9.39392 14.0809C9.08496 13.9484 8.73013 13.9801 8.44951 14.1652C8.16888 14.3502 8 14.6639 8 15V21C8 21.3361 8.16888 21.6498 8.44951 21.8348C8.73013 22.0199 9.08496 22.0516 9.39392 21.9191L16.3939 18.9191C16.7616 18.7616 17 18.4 17 18C17 17.6 16.7616 17.2384 16.3939 17.0809L9.39392 14.0809ZM13.4614 18L10 19.4835V16.5165L13.4614 18Z" fill="#777B92"/>
</svg>
