<svg width="24" height="24" viewBox="0 0 24 24" fill="none" xmlns="http://www.w3.org/2000/svg">
<path fill-rule="evenodd" clip-rule="evenodd" d="M6 2C4.89543 2 4 2.89543 4 4V20C4 21.1046 4.89543 22 6 22H18C19.1046 22 20 21.1046 20 20V9.41421C20 9.3328 19.995 9.25191 19.9853 9.17192C19.995 9.11607 20 9.05862 20 9C20 8.66187 19.8322 8.36295 19.5753 8.18196C19.5256 8.11842 19.4718 8.05763 19.4142 8L14 2.58579C13.9424 2.52815 13.8816 2.4744 13.818 2.4247C13.6371 2.16782 13.3381 2 13 2C12.9414 2 12.8839 2.00504 12.8281 2.01472C12.7481 2.00496 12.6672 2 12.5858 2H6ZM12 4L6 4V20H18V10H14C12.8954 10 12 9.10457 12 8V4ZM16.5858 8L14 5.41421V8H16.5858ZM12 11C12.5523 11 13 11.4477 13 12V14C13 14.5523 12.5523 15 12 15C11.4477 15 11 14.5523 11 14V12C11 11.4477 11.4477 11 12 11ZM12 18C12.5523 18 13 17.5523 13 17C13 16.4477 12.5523 16 12 16C11.4477 16 11 16.4477 11 17C11 17.5523 11.4477 18 12 18Z" fill="#777B92"/>
</svg>
