<svg width="24" height="24" viewBox="0 0 24 24" fill="none" xmlns="http://www.w3.org/2000/svg">
<path fill-rule="evenodd" clip-rule="evenodd" d="M4 4C4 2.89543 4.89543 2 6 2H12.5858C12.6672 2 12.7481 2.00496 12.8281 2.01472C12.8839 2.00504 12.9414 2 13 2C13.3381 2 13.6371 2.16782 13.818 2.4247C13.8816 2.4744 13.9424 2.52815 14 2.58579L19.4142 8C19.4718 8.05763 19.5256 8.11842 19.5753 8.18196C19.8322 8.36295 20 8.66187 20 9C20 9.05862 19.995 9.11607 19.9853 9.17192C19.995 9.25191 20 9.3328 20 9.41421V13C20 13.5523 19.5523 14 19 14C18.4477 14 18 13.5523 18 13V10H14C12.8954 10 12 9.10457 12 8V4L6 4V13C6 13.5523 5.55228 14 5 14C4.44772 14 4 13.5523 4 13V4ZM14 5.41421V8H16.5858L14 5.41421ZM4.58097 17.196V16.1818H9.35938V17.196H7.57812V22H6.36222V17.196H4.58097ZM11.2997 16.1818L12.473 18.1648H12.5185L13.6974 16.1818H15.0866L13.3111 19.0909L15.1264 22H13.7116L12.5185 20.0142H12.473L11.2798 22H9.87074L11.6918 19.0909L9.90483 16.1818H11.2997ZM15.6435 17.196V16.1818H20.4219V17.196H18.6406V22H17.4247V17.196H15.6435Z" fill="#777B92"/>
</svg>
