<svg width="24" height="24" viewBox="0 0 24 24" fill="none" xmlns="http://www.w3.org/2000/svg">
<path fill-rule="evenodd" clip-rule="evenodd" d="M6.00011 2C4.89554 2 4.00011 2.89543 4.00011 4V18.9863C3.99996 18.996 3.99996 19.0058 4.00011 19.0155V20C4.00011 21.1046 4.89554 22 6.00011 22H18.0001C19.1047 22 20.0001 21.1046 20.0001 20V17.0091C20.0002 17.0035 20.0002 16.9978 20.0001 16.9921V9.41421C20.0001 9.3328 19.9951 9.25191 19.9854 9.17192C19.9951 9.11607 20.0001 9.05862 20.0001 9C20.0001 8.66187 19.8323 8.36294 19.5754 8.18195C19.5257 8.11842 19.472 8.05763 19.4143 8L14.0001 2.58579C13.9425 2.52815 13.8817 2.4744 13.8181 2.4247C13.6372 2.16781 13.3382 2 13.0001 2C12.9415 2 12.884 2.00504 12.8282 2.01472C12.7482 2.00496 12.6673 2 12.5859 2H6.00011ZM18.0001 14.9194V10H14.0001C12.8955 10 12.0001 9.10457 12.0001 8V4L6.00011 4V17.1315L12.837 12.5736C13.5617 12.0904 14.5157 12.1318 15.1958 12.6759L18.0001 14.9194ZM6.00011 19.5352V20H18.0001V17.4806L13.9464 14.2377L6.00011 19.5352ZM16.5859 8L14.0001 5.41421V8H16.5859ZM10.0001 11.5C10.0001 12.3284 9.32853 13 8.50011 13C7.67168 13 7.00011 12.3284 7.00011 11.5C7.00011 10.6716 7.67168 10 8.50011 10C9.32853 10 10.0001 10.6716 10.0001 11.5Z" fill="#777B92"/>
</svg>
