<svg width="24" height="24" viewBox="0 0 24 24" fill="none" xmlns="http://www.w3.org/2000/svg">
<path fill-rule="evenodd" clip-rule="evenodd" d="M3.99993 4C3.99993 2.89543 4.89536 2 5.99993 2H12.5857C12.6671 2 12.748 2.00496 12.828 2.01472C12.8839 2.00504 12.9413 2 12.9999 2C13.3381 2 13.637 2.16782 13.818 2.4247C13.8815 2.4744 13.9423 2.52815 13.9999 2.58579L19.4141 8C19.4718 8.05763 19.5255 8.11842 19.5752 8.18195C19.8321 8.36294 19.9999 8.66187 19.9999 9C19.9999 9.05862 19.9949 9.11607 19.9852 9.17192C19.995 9.25191 19.9999 9.3328 19.9999 9.41421V13C19.9999 13.5523 19.5522 14 18.9999 14C18.4476 14 17.9999 13.5523 17.9999 13V10H13.9999C12.8954 10 11.9999 9.10457 11.9999 8V4L5.99993 4V13C5.99993 13.5523 5.55222 14 4.99993 14C4.44765 14 3.99993 13.5523 3.99993 13V4ZM13.9999 5.41421V8H16.5857L13.9999 5.41421ZM2.72437 22H0.661865V16.1818H2.74141C3.32664 16.1818 3.83043 16.2983 4.25277 16.5312C4.67702 16.7623 5.00277 17.0947 5.23005 17.5284C5.45732 17.9621 5.57096 18.4811 5.57096 19.0852C5.57096 19.6913 5.45637 20.2121 5.22721 20.6477C4.99993 21.0833 4.67323 21.4176 4.24709 21.6506C3.82285 21.8835 3.31527 22 2.72437 22ZM1.89198 20.946H2.67323C3.22058 20.946 3.63535 20.7983 3.91755 20.5028C4.20164 20.2074 4.34368 19.7348 4.34368 19.0852C4.34368 18.4394 4.20164 17.9697 3.91755 17.6761C3.63535 17.3826 3.22152 17.2358 2.67607 17.2358H1.89198V20.946ZM11.8288 19.0909C11.8288 19.7254 11.7085 20.2652 11.468 20.7102C11.2293 21.1553 10.9045 21.4953 10.4935 21.7301C10.0826 21.9631 9.61949 22.0795 9.10434 22.0795C8.58729 22.0795 8.12328 21.9621 7.71229 21.7273C7.30131 21.4924 6.9765 21.1525 6.73786 20.7074C6.49922 20.2604 6.37991 19.7216 6.37991 19.0909C6.37991 18.4564 6.49922 17.9167 6.73786 17.4716C6.9765 17.0265 7.30131 16.6875 7.71229 16.4545C8.12328 16.2197 8.58729 16.1023 9.10434 16.1023C9.61949 16.1023 10.0826 16.2197 10.4935 16.4545C10.9045 16.6875 11.2293 17.0265 11.468 17.4716C11.7085 17.9167 11.8288 18.4564 11.8288 19.0909ZM10.5816 19.0909C10.5816 18.4735 10.4471 18.0028 10.1782 17.679C9.90926 17.3532 9.55131 17.1903 9.10434 17.1903C8.65737 17.1903 8.29941 17.3532 8.03047 17.679C7.76153 18.0028 7.62706 18.4735 7.62706 19.0909C7.62706 19.7064 7.76153 20.1771 8.03047 20.5028C8.29941 20.8286 8.65737 20.9915 9.10434 20.9915C9.55131 20.9915 9.90926 20.8286 10.1782 20.5028C10.4471 20.1771 10.5816 19.7064 10.5816 19.0909ZM17.8735 18.2188H16.6292C16.5818 17.8987 16.4455 17.6477 16.2201 17.4659C15.9947 17.2822 15.7135 17.1903 15.3764 17.1903C14.9256 17.1903 14.5639 17.3561 14.2911 17.6875C14.0203 18.017 13.8849 18.4848 13.8849 19.0909C13.8849 19.7121 14.0212 20.1847 14.294 20.5085C14.5686 20.8305 14.9265 20.9915 15.3678 20.9915C15.6955 20.9915 15.9729 20.9062 16.2002 20.7358C16.4275 20.5634 16.5705 20.322 16.6292 20.0114L17.8735 20.017C17.83 20.3731 17.7031 20.7083 17.4928 21.0227C17.2826 21.3371 16.9966 21.5919 16.6349 21.7869C16.275 21.982 15.8461 22.0795 15.3479 22.0795C14.829 22.0795 14.365 21.9621 13.9559 21.7273C13.5487 21.4924 13.2267 21.1525 12.99 20.7074C12.7551 20.2623 12.6377 19.7235 12.6377 19.0909C12.6377 18.4564 12.757 17.9167 12.9957 17.4716C13.2343 17.0265 13.5582 16.6875 13.9673 16.4545C14.3764 16.2197 14.8366 16.1023 15.3479 16.1023C15.7968 16.1023 16.2012 16.1856 16.561 16.3523C16.9228 16.517 17.2182 16.7576 17.4474 17.0739C17.6784 17.3883 17.8205 17.7699 17.8735 18.2188ZM19.784 16.1818L20.9573 18.1648H21.0028L22.1818 16.1818H23.571L21.7954 19.0909L23.6107 22H22.196L21.0028 20.0142H20.9573L19.7641 22H18.355L20.1761 19.0909L18.3891 16.1818H19.784Z" fill="#777B92"/>
</svg>
