<svg width="24" height="24" viewBox="0 0 24 24" fill="none" xmlns="http://www.w3.org/2000/svg">
<path fill-rule="evenodd" clip-rule="evenodd" d="M12 3C11.4477 3 11 3.44772 11 4C11 4.55228 11.4477 5 12 5C12.5523 5 13 4.55228 13 4C13 3.44772 12.5523 3 12 3ZM15 4C15 5.30622 14.1652 6.41746 13 6.82929V9.17071C13.8518 9.47178 14.527 10.1466 14.8286 10.9982C15.9533 11.0694 17.2654 11.426 18.4015 12.254C19.7539 13.2397 20.7689 14.8307 20.9654 17.1587C22.1486 17.5606 23 18.6809 23 20C23 21.6569 21.6569 23 20 23C18.3431 23 17 21.6569 17 20C17 18.709 17.8155 17.6084 18.9594 17.1854C18.7824 15.4801 18.0489 14.4719 17.2235 13.8703C16.481 13.3291 15.5998 13.0717 14.8281 13.0034C14.5262 13.8542 13.8513 14.5284 13 14.8293V17.1707C14.1652 17.5825 15 18.6938 15 20C15 21.6569 13.6569 23 12 23C10.3431 23 9 21.6569 9 20C9 18.6938 9.83481 17.5825 11 17.1707V14.8293C10.1602 14.5325 9.49201 13.8723 9.18432 13.0377C8.15349 13.1372 7.40847 13.4237 6.8646 13.7765C6.18567 14.2169 5.7521 14.8048 5.47166 15.4167C5.18786 16.0359 5.06647 16.6694 5.01884 17.1593L5.01717 17.1768C6.17338 17.5935 7 18.7002 7 20C7 21.6569 5.65685 23 4 23C2.34315 23 1 21.6569 1 20C1 18.6896 1.84017 17.5754 3.01122 17.1668C3.01586 17.1023 3.02147 17.0352 3.02823 16.9657C3.08998 16.3306 3.24984 15.4641 3.65353 14.5833C4.0606 13.6952 4.72078 12.7831 5.77622 12.0985C6.6604 11.525 7.77441 11.142 9.15948 11.0323C9.45497 10.1647 10.1368 9.47579 11 9.17071V6.82929C9.83481 6.41746 9 5.30622 9 4C9 2.34315 10.3431 1 12 1C13.6569 1 15 2.34315 15 4ZM12 13C11.451 13 11.0053 12.5576 11 12.0098L11.0001 12L11 11.9902C11.0053 11.4424 11.451 11 12 11C12.5523 11 13 11.4477 13 12C13 12.5523 12.5523 13 12 13ZM4.00697 19L3.99223 19C3.44352 19.0042 3 19.4503 3 20C3 20.5523 3.44772 21 4 21C4.55228 21 5 20.5523 5 20C5 19.45 4.55605 19.0038 4.00697 19ZM12 19C11.4477 19 11 19.4477 11 20C11 20.5523 11.4477 21 12 21C12.5523 21 13 20.5523 13 20C13 19.4477 12.5523 19 12 19ZM20 19C19.4477 19 19 19.4477 19 20C19 20.5523 19.4477 21 20 21C20.5523 21 21 20.5523 21 20C21 19.4477 20.5523 19 20 19Z" fill="#777B92"/>
</svg>
