<svg width="24" height="24" viewBox="0 0 24 24" fill="none" xmlns="http://www.w3.org/2000/svg">
<path fill-rule="evenodd" clip-rule="evenodd" d="M10.7176 2.79952C11.4434 2.11891 12.5566 2.11891 13.2824 2.79952C13.9816 3.4551 15.146 4.65722 16.1412 6.22502C17.133 7.78739 18 9.7812 18 11.9999C18 15.3136 15.3137 17.9999 12 17.9999C8.68629 17.9999 6 15.3136 6 11.9999C6 9.7812 6.86699 7.78739 7.85877 6.22502C8.854 4.65722 10.0184 3.4551 10.7176 2.79952ZM12 4.33933C11.3662 4.94283 10.3824 5.98129 9.54729 7.29689C8.67013 8.67869 8 10.2981 8 11.9999C8 12.3162 8.03669 12.6238 8.10605 12.9188C8.52199 10.8093 10.0569 9.29797 10.8276 8.64423C11.5086 8.06651 12.4914 8.06651 13.1724 8.64423C13.9431 9.29797 15.478 10.8093 15.8939 12.9188C15.9633 12.6238 16 12.3162 16 11.9999C16 10.2981 15.3299 8.67869 14.4527 7.29689C13.6176 5.98129 12.6338 4.94283 12 4.33933ZM12 10.2745C11.1762 11.0035 10 12.3548 10 13.9997C10 15.1042 10.8954 15.9997 12 15.9997C13.1046 15.9997 14 15.1042 14 13.9997C14 12.3548 12.8238 11.0035 12 10.2745Z" fill="#777B92"/>
<path fill-rule="evenodd" clip-rule="evenodd" d="M4 17V20H20V17C20 16.4477 20.4477 16 21 16C21.5523 16 22 16.4477 22 17V20C22 21.1046 21.1046 22 20 22H4C2.89543 22 2 21.1046 2 20V17C2 16.4477 2.44772 16 3 16C3.55228 16 4 16.4477 4 17Z" fill="#777B92"/>
</svg>
