<svg width="24" height="24" viewBox="0 0 24 24" fill="none" xmlns="http://www.w3.org/2000/svg">
<path fill-rule="evenodd" clip-rule="evenodd" d="M18 2C18.5523 2 19 2.44772 19 3V4H20C20.5523 4 21 4.44772 21 5C21 5.55229 20.5523 6 20 6L4 6C3.44772 6 3 5.55228 3 5C3 4.44772 3.44772 4 4 4H5V3C5 2.44772 5.44772 2 6 2C6.55228 2 7 2.44772 7 3V4L17 4V3C17 2.44772 17.4477 2 18 2Z" fill="#777B92"/>
<path fill-rule="evenodd" clip-rule="evenodd" d="M4 8H10C10.5523 8 11 8.44772 11 9V17C11 17.5523 10.5523 18 10 18H4C3.44772 18 3 17.5523 3 17L3 9C3 8.44772 3.44772 8 4 8ZM5 16H7.9139L5 11.9205V16ZM9 14.0796V10H6.08599L9 14.0796Z" fill="#777B92"/>
<path fill-rule="evenodd" clip-rule="evenodd" d="M14 8H20C20.5523 8 21 8.44772 21 9V17C21 17.5523 20.5523 18 20 18H14C13.4477 18 13 17.5523 13 17V9C13 8.44772 13.4477 8 14 8ZM15 11.9205V16H17.9139L15 11.9205ZM19 14.0796V10H16.086L19 14.0796Z" fill="#777B92"/>
<path fill-rule="evenodd" clip-rule="evenodd" d="M3 21C3 20.4477 3.44772 20 4 20L20 20C20.5523 20 21 20.4477 21 21C21 21.5523 20.5523 22 20 22L4 22C3.44772 22 3 21.5523 3 21Z" fill="#777B92"/>
</svg>
