<svg width="24" height="24" viewBox="0 0 24 24" fill="none" xmlns="http://www.w3.org/2000/svg">
<path fill-rule="evenodd" clip-rule="evenodd" d="M4 2H20C21.1046 2 22 2.89543 22 4V16.982C22.0001 16.9888 22.0002 16.9955 22.0002 17.0023C22.0002 17.0082 22.0001 17.0142 22 17.0201V20C22 21.1046 21.1046 22 20 22H4C2.89543 22 2 21.1046 2 20V16.9996C2 16.9997 2 16.9994 2 16.9996V7.0184C1.99976 7.00567 1.99976 6.99292 2 6.98016V4C2 2.89543 2.89543 2 4 2ZM4 18V20H20V18H4ZM17.1405 16L4 8.6997V16L17.1405 16ZM20 4L4 4V6H20V4ZM20 8H6.8588L20 15.3007V8Z" fill="#777B92"/>
</svg>
