<svg width="24" height="24" viewBox="0 0 24 24" fill="none" xmlns="http://www.w3.org/2000/svg">
<path fill-rule="evenodd" clip-rule="evenodd" d="M12.0145 1.64266C12.4881 1.92681 12.6416 2.54107 12.3575 3.01465L10.9929 5.28902L12 7.01553L14.6362 2.49629C14.9145 2.01924 15.5268 1.8581 16.0039 2.13638C16.4809 2.41466 16.6421 3.02698 16.3638 3.50403L13.7411 8H15.4339L16.6425 5.98566C16.9267 5.51207 17.5409 5.35851 18.0145 5.64266C18.4881 5.92681 18.6416 6.54107 18.3575 7.01465L17.7663 8H19C19.5523 8 20 8.44772 20 9C20 9.55229 19.5523 10 19 10H17.7661L18.3575 10.9857C18.6416 11.4592 18.4881 12.0735 18.0145 12.3576C17.5409 12.6418 16.9267 12.4882 16.6425 12.0146L15.4337 10H13.7409L16.3638 14.4963C16.6421 14.9733 16.4809 15.5857 16.0039 15.8639C15.5268 16.1422 14.9145 15.9811 14.6362 15.504L12 10.9848L11.0106 12.6809L12.3 14.4001C12.6314 14.8419 12.5418 15.4687 12.1 15.8001C11.6582 16.1314 11.0314 16.0419 10.7 15.6001L9.91687 14.5559L9.36378 15.504C9.0855 15.9811 8.47318 16.1422 7.99613 15.8639C7.51908 15.5857 7.35794 14.9733 7.63622 14.4963L8.21739 13.5H7C6.44772 13.5 6 13.0523 6 12.5C6 11.9477 6.44772 11.5 7 11.5H9.38406L10.2591 10H5C4.44772 10 4 9.55229 4 9C4 8.44772 4.44772 8 5 8H10.2589L9.16757 6.1292L6.64142 6.49008C6.09469 6.56818 5.58815 6.18828 5.51005 5.64155C5.43194 5.09481 5.81184 4.58828 6.35858 4.51018L8.07971 4.2643L7.63622 3.50403C7.35794 3.02698 7.51908 2.41466 7.99613 2.13638C8.47318 1.8581 9.0855 2.01924 9.36378 2.49629L9.84311 3.31799L10.6425 1.98566C10.9267 1.51208 11.5409 1.35851 12.0145 1.64266Z" fill="#777B92"/>
<path fill-rule="evenodd" clip-rule="evenodd" d="M4 17V20H20V17C20 16.4477 20.4477 16 21 16C21.5523 16 22 16.4477 22 17V20C22 21.1046 21.1046 22 20 22H4C2.89543 22 2 21.1046 2 20V17C2 16.4477 2.44772 16 3 16C3.55228 16 4 16.4477 4 17Z" fill="#777B92"/>
</svg>
