<svg width="24" height="24" viewBox="0 0 24 24" fill="none" xmlns="http://www.w3.org/2000/svg">
<path fill-rule="evenodd" clip-rule="evenodd" d="M4 3C4 2.44772 4.44772 2 5 2H6C7.10457 2 8 2.89543 8 4V14C9.48056 14 10.7733 14.8044 11.4649 16H19C19.5523 16 20 16.4477 20 17C20 17.5523 19.5523 18 19 18H12C12 20.2091 10.2091 22 8 22C5.79086 22 4 20.2091 4 18C4 16.5194 4.8044 15.2267 6 14.5351V4H5C4.44772 4 4 3.55228 4 3ZM8 16C6.89543 16 6 16.8954 6 18C6 19.1046 6.89543 20 8 20C9.10457 20 10 19.1046 10 18C10 16.8954 9.10457 16 8 16Z" fill="#777B92"/>
<path fill-rule="evenodd" clip-rule="evenodd" d="M10.9989 4L17 4C17.5523 4 18 4.44772 18 5V12.9886C18.0002 13.0108 17.9997 13.0329 17.9985 13.0549C17.9912 13.1901 17.957 13.3182 17.9012 13.4339C17.8359 13.5699 17.7387 13.693 17.6115 13.7913C17.5635 13.8285 17.5121 13.8613 17.4577 13.8893C17.3086 13.9663 17.1462 14.0025 16.9854 14H11C10.4477 14 10 13.5523 10 13V5.01189C9.99977 4.99069 10.0002 4.9695 10.0013 4.94836C10.0154 4.67149 10.1421 4.42435 10.3365 4.25182C10.4779 4.12636 10.655 4.04035 10.8508 4.01106C10.9 4.00368 10.9495 4.00002 10.9989 4ZM12 8.00006V12H15L12 8.00006ZM16 10.0001V6H13L16 10.0001Z" fill="#777B92"/>
</svg>
