<svg width="24" height="24" viewBox="0 0 24 24" fill="none" xmlns="http://www.w3.org/2000/svg">
<path fill-rule="evenodd" clip-rule="evenodd" d="M8 12C8 11.4477 8.44772 11 9 11H15C15.5523 11 16 11.4477 16 12C16 12.5523 15.5523 13 15 13H9C8.44772 13 8 12.5523 8 12Z" fill="#777B92"/>
<path fill-rule="evenodd" clip-rule="evenodd" d="M13 3V6H15C17.7614 6 20 8.23858 20 11V16H21C21.5523 16 22 16.4477 22 17C22 17.5523 21.5523 18 21 18H19C18.8535 18 18.7143 17.9685 18.5889 17.9119C18.4028 17.9692 18.205 18 18 18H17V21C17 21.5523 16.5523 22 16 22C15.4477 22 15 21.5523 15 21V18H9V21C9 21.5523 8.55228 22 8 22C7.44772 22 7 21.5523 7 21V18H6C5.79502 18 5.59725 17.9692 5.41106 17.9119C5.28567 17.9685 5.14652 18 5 18H3C2.44772 18 2 17.5523 2 17C2 16.4477 2.44772 16 3 16H4V11C4 8.23858 6.23858 6 9 6H11V3C11 2.44772 11.4477 2 12 2C12.5523 2 13 2.44772 13 3ZM18 16V11C18 9.34315 16.6569 8 15 8H9C7.34315 8 6 9.34315 6 11V16H18Z" fill="#777B92"/>
</svg>
