<svg width="22" height="22" viewBox="0 0 22 22" fill="none" xmlns="http://www.w3.org/2000/svg">
<path fill-rule="evenodd" clip-rule="evenodd" d="M2 19C1.44772 19 1 19.4477 1 20C1 20.5523 1.44772 21 2 21L20 21C20.5523 21 21 20.5523 21 20C21 19.4477 20.5523 19 20 19H19.883C19.8828 18.9271 19.8788 18.8534 19.8705 18.7791L18.0927 2.77914C17.9802 1.76627 17.1241 1 16.105 1L13 1C11.8954 1 11 1.89543 11 3L11 6L9 6V4C9 3.44772 8.55229 3 8 3C7.44772 3 7 3.44772 7 4V6L6 6C4.89543 6 4 6.89543 4 8L4 12.1707C2.83481 12.5825 2 13.6938 2 15L2 19ZM13 8V10H16.8827L16.6605 8L13 8ZM16.4383 6L13 6L13 3L16.105 3L16.4383 6ZM17.105 12H13V19L17.8827 19L17.105 12ZM11 8L6 8L6 12H11V8ZM11 14H5C4.44812 14.0005 4 14.448 4 15L4 19H6V18C6 17.4477 6.44772 17 7 17C7.55229 17 8 17.4477 8 18V19H11V14Z" fill="#97A3BA"/>
</svg>
