<svg width="24" height="24" viewBox="0 0 24 24" fill="none" xmlns="http://www.w3.org/2000/svg">
<path fill-rule="evenodd" clip-rule="evenodd" d="M8 3C8 2.44772 8.44772 2 9 2H15C15.5523 2 16 2.44772 16 3C16 3.55228 15.5523 4 15 4V6.29676C17.94 7.5085 20 10.4418 20 13.8523C20 13.8889 19.9998 13.9254 19.9993 13.9619C19.9998 13.9746 20 13.9872 20 14C20 14.0264 19.999 14.0526 19.997 14.0785C19.8795 18.4552 16.363 22.0003 12 22.0003C7.63702 22.0003 4.12052 18.4552 4.00303 14.0785C4.00102 14.0526 4 14.0264 4 14C4 13.9872 4.00024 13.9746 4.00071 13.9619C4.00024 13.9254 4 13.8889 4 13.8523C4 10.4418 6.06001 7.5085 9 6.29676V4C8.44772 4 8 3.55228 8 3ZM10.9739 7.22799C10.8987 7.54823 10.6673 7.82307 10.3391 7.94104C10.3219 7.94723 10.3045 7.95296 10.287 7.95822C8.07389 8.63244 6.38329 10.5877 6.05712 13H17.9429C17.6167 10.5877 15.9261 8.63246 13.7131 7.95823C13.4737 7.88665 13.272 7.72782 13.1448 7.51864C13.0909 7.42988 13.0504 7.33206 13.0261 7.22799C13.0071 7.14688 12.998 7.06285 13 6.97772V4H11V6.97771C11.002 7.06284 10.9929 7.14687 10.9739 7.22799ZM6.10407 15C6.62995 17.8598 9.08462 20.0003 12 20.0003C14.9154 20.0003 17.3701 17.8598 17.8959 15H6.10407Z" fill="#777B92"/>
</svg>
