<svg width="22" height="22" viewBox="0 0 22 22" fill="none" xmlns="http://www.w3.org/2000/svg">
<path fill-rule="evenodd" clip-rule="evenodd" d="M7.06021 0.658257C7.20392 0.263068 7.5795 0 8.00001 0H15C15.3565 0 15.686 0.189758 15.8649 0.498073C16.0438 0.806388 16.0451 1.18664 15.8682 1.49614L12.7232 7H18C18.3623 7 18.6962 7.19594 18.873 7.5122C19.0497 7.82845 19.0415 8.21556 18.8517 8.5241L10.8517 21.5241C10.6064 21.9227 10.1175 22.0978 9.67487 21.9457C9.23229 21.7935 8.95444 21.3547 9.00612 20.8896L9.88274 13H4.00001C3.67379 13 3.36809 12.8409 3.18094 12.5737C2.99379 12.3065 2.94873 11.9648 3.06021 11.6583L7.06021 0.658257ZM8.70043 2L5.42771 11H11C11.2844 11 11.5554 11.1211 11.7451 11.3331C11.9348 11.545 12.0253 11.8277 11.9939 12.1104L11.4866 16.6763L16.2104 9H11C10.6435 9 10.314 8.81024 10.1351 8.50193C9.95617 8.19361 9.9549 7.81336 10.1318 7.50386L13.2768 2H8.70043Z" fill="#97A3BA"/>
</svg>
