<svg width="24" height="24" viewBox="0 0 24 24" fill="none" xmlns="http://www.w3.org/2000/svg">
<path fill-rule="evenodd" clip-rule="evenodd" d="M11 5V4H10C9.44772 4 9 3.55228 9 3C9 2.44772 9.44772 2 10 2H14C14.5523 2 15 2.44772 15 3C15 3.55228 14.5523 4 14 4H13V5C13 5.03342 12.9984 5.06646 12.9952 5.09904C15.2798 5.56044 17 7.57933 17 10V17C17 19.7614 14.7614 22 12 22C9.23858 22 7 19.7614 7 17V10C7 7.57933 8.72019 5.56043 11.0048 5.09904C11.0016 5.06646 11 5.03342 11 5ZM9 17C9 18.6569 10.3431 20 12 20C13.6569 20 15 18.6569 15 17V10C15 8.34315 13.6569 7 12 7C10.3431 7 9 8.34315 9 10H11C11.5523 10 12 10.4477 12 11C12 11.5523 11.5523 12 11 12H9V15H11C11.5523 15 12 15.4477 12 16C12 16.5523 11.5523 17 11 17H9Z" fill="#777B92"/>
</svg>
