<svg width="22" height="22" viewBox="0 0 22 22" fill="none" xmlns="http://www.w3.org/2000/svg">
<path fill-rule="evenodd" clip-rule="evenodd" d="M1 20C1 19.4477 1.44772 19 2 19H5L5 4C5 2.34315 6.34315 1 8 1L16 1C17.6569 1 19 2.34315 19 4V19H20C20.5523 19 21 19.4477 21 20C21 20.5523 20.5523 21 20 21L2 21C1.44772 21 1 20.5523 1 20ZM17 19L7 19L7 13H17L17 19ZM8 3C7.44772 3 7 3.44772 7 4V5L17 5V4C17 3.44772 16.5523 3 16 3L8 3ZM17 7H7V11H17L17 7Z" fill="#97A3BA"/>
<path d="M2 5C1.44772 5 1 5.44772 1 6L1 16C1 16.5523 1.44772 17 2 17C2.55229 17 3 16.5523 3 16L3 6C3 5.44772 2.55229 5 2 5Z" fill="#97A3BA"/>
</svg>
