<svg width="24" height="24" viewBox="0 0 24 24" fill="none" xmlns="http://www.w3.org/2000/svg">
<path fill-rule="evenodd" clip-rule="evenodd" d="M6 2H16C17.1046 2 18 2.89543 18 4V20H21C21.5523 20 22 20.4477 22 21C22 21.5523 21.5523 22 21 22H17C16.8535 22 16.7143 21.9685 16.5889 21.9119C16.4028 21.9692 16.205 22 16 22H6C5.79502 22 5.59725 21.9692 5.41106 21.9119C5.28567 21.9685 5.14652 22 5 22H3C2.44772 22 2 21.5523 2 21C2 20.4477 2.44772 20 3 20H4V4C4 2.89543 4.89543 2 6 2ZM16 6V4L6 4V6L16 6ZM6 8V12L16 12V8L6 8ZM6 20H16V14L6 14V20Z" fill="#777B92"/>
<path fill-rule="evenodd" clip-rule="evenodd" d="M22 7V17C22 17.5523 21.5523 18 21 18C20.4477 18 20 17.5523 20 17V7C20 6.44772 20.4477 6 21 6C21.5523 6 22 6.44772 22 7Z" fill="#777B92"/>
</svg>
