<svg width="24" height="24" viewBox="0 0 24 24" fill="none" xmlns="http://www.w3.org/2000/svg">
<path fill-rule="evenodd" clip-rule="evenodd" d="M4 9.85714L5 9.85714C4 9.85714 4 9.85624 4 9.85532L4.00001 9.85341L4.00003 9.8493L4.00013 9.83995L4.00064 9.81682C4.00115 9.79947 4.00203 9.77826 4.00353 9.75344C4.00653 9.70385 4.01202 9.63962 4.02197 9.56285C4.04184 9.40956 4.07976 9.20445 4.1522 8.96495C4.29765 8.48407 4.58246 7.86488 5.13444 7.25658C5.7598 6.56741 6.67584 5.94627 8 5.53097V5C8 4.44771 8.44772 4 9 4C9.55229 4 10 4.44771 10 5V5.11345C10.6068 5.03988 11.2717 5 12 5C15.6806 5 17.7421 6.0185 18.8656 7.25658C19.4175 7.86489 19.7024 8.48407 19.8478 8.96495C19.9202 9.20445 19.9582 9.40956 19.978 9.56285C19.988 9.63962 19.9935 9.70385 19.9965 9.75344C19.998 9.77826 19.9988 9.79947 19.9994 9.81682L19.9999 9.83995L20 9.8493L20 9.85341L20 9.85532C20 9.85624 20 9.85714 19.004 9.85714H20V17H21C21.5523 17 22 17.4477 22 18C22 18.5523 21.5523 19 21 19H3C2.44772 19 2 18.5523 2 18C2 17.4477 2.44772 17 3 17H4V9.85714ZM18 17L17.9999 14.0355C17.9964 14.0144 17.986 13.9642 17.9586 13.8937C17.906 13.7583 17.7808 13.522 17.4742 13.2593C16.854 12.7276 15.3804 12 12 12C11.2412 12 10.5785 12.0367 10 12.0995V17H18ZM18 11.1966V9.87238C17.9995 9.86433 17.9981 9.84642 17.9946 9.81996C17.9872 9.76231 17.9704 9.66608 17.9335 9.54398C17.8602 9.30164 17.7075 8.95654 17.3844 8.60056C16.7579 7.91008 15.3195 7 12 7C11.2387 7 10.5763 7.04787 10 7.12998V10.0894C10.6058 10.0314 11.2705 10 12 10C14.9079 10 16.7875 10.4985 18 11.1966ZM8 10.4212V7.66006C7.32189 7.95219 6.89054 8.29752 6.61556 8.60056C6.29254 8.95654 6.13985 9.30164 6.06655 9.54398C6.02962 9.66609 6.01285 9.76231 6.00537 9.81996C6.00195 9.84642 6.00053 9.86433 6 9.87238V11.1966C6.52946 10.8918 7.1861 10.625 8 10.4212ZM6.00007 14.0355L6 17H8V12.4994C7.26618 12.7353 6.80778 13.0176 6.52579 13.2593C6.21924 13.522 6.09403 13.7583 6.04138 13.8937C6.01395 13.9642 6.00359 14.0144 6.00007 14.0355Z" fill="#777B92"/>
</svg>
