<svg width="22" height="22" viewBox="0 0 22 22" fill="none" xmlns="http://www.w3.org/2000/svg">
<path fill-rule="evenodd" clip-rule="evenodd" d="M13.5225 2C13.5225 2.55228 13.0747 3 12.5225 3L6.52246 3C5.97018 3 5.52246 2.55228 5.52246 2C5.52246 1.44772 5.97018 1 6.52246 1L12.5225 1C13.0747 1 13.5225 1.44772 13.5225 2Z" fill="#97A3BA"/>
<path fill-rule="evenodd" clip-rule="evenodd" d="M22 2C22 2.55228 21.5523 3 21 3L15 3C14.4477 3 14 2.55228 14 2C14 1.44772 14.4477 1 15 1L21 1C21.5523 1 22 1.44772 22 2Z" fill="#97A3BA"/>
<path fill-rule="evenodd" clip-rule="evenodd" d="M17 3L17 18C17 18.5523 17.4477 19 18 19C18.5523 19 19 18.5523 19 18L19 3L21 3L21 18C21 19.6569 19.6569 21 18 21C16.3431 21 15 19.6569 15 18L15 3L17 3Z" fill="#97A3BA"/>
<path fill-rule="evenodd" clip-rule="evenodd" d="M14 10.2626L12.5224 7.72964L12.5224 3L10.5224 3L10.5224 8.27033L14 14.2319L14 10.2626ZM14 19L4.00452 19C3.23273 19 2.75186 18.1628 3.14074 17.4961L8.52245 8.27033L8.52245 2.99998L6.52245 2.99998L6.52245 7.72964L1.41318 16.4884C0.246535 18.4884 1.68915 21 4.00452 21L14 21L14 19Z" fill="#97A3BA"/>
</svg>
