<svg width="24" height="24" viewBox="0 0 24 24" fill="none" xmlns="http://www.w3.org/2000/svg">
<path fill-rule="evenodd" clip-rule="evenodd" d="M14 2H17.105C18.1241 2 18.9802 2.76627 19.0927 3.77914L20.895 20H21C21.5523 20 22 20.4477 22 21C22 21.5523 21.5523 22 21 22H20.0119C20.0031 22.0001 19.9944 22.0001 19.9857 22L3 22C2.44772 22 2 21.5523 2 21C2 20.4477 2.44772 20 3 20V15C3 13.8954 3.89543 13 5 13V9C5 7.89543 5.89543 7 7 7H8V5C8 4.44772 8.44772 4 9 4C9.55228 4 10 4.44772 10 5V7H12V4C12 2.89543 12.8954 2 14 2ZM18.8827 20L18.1044 12.9946C18.0701 12.9982 18.0352 13 18 13H14V20H18.8827ZM12 20V15H5V20H7V19C7 18.4477 7.44772 18 8 18C8.55228 18 9 18.4477 9 19V20H12ZM17.8827 11L17.6605 9H14V11H17.8827ZM12 9H7V13H12V9ZM17.4383 7L17.105 4L14 4V7H17.4383Z" fill="#777B92"/>
</svg>
