<svg width="22" height="22" viewBox="0 0 22 22" fill="none" xmlns="http://www.w3.org/2000/svg">
<path fill-rule="evenodd" clip-rule="evenodd" d="M5 6C5 3.23858 7.23858 1 10 1C12.7614 1 15 3.23858 15 6V7L20 7C20.5523 7 21 7.44771 21 8C21 8.55228 20.5523 9 20 9L15 9V19H18C18.5523 19 19 19.4477 19 20C19 20.5523 18.5523 21 18 21H4C3.44772 21 3 20.5523 3 20C3 19.4477 3.44772 19 4 19H5L5 12H3C1.89543 12 1 11.1046 1 10L1 8C1 6.89543 1.89543 6 3 6H5ZM5 8H3L3 10L5 10V8ZM13 6L13 19H7L7 6C7 4.34314 8.34315 3 10 3C11.6569 3 13 4.34315 13 6Z" fill="#97A3BA"/>
<path d="M19.5 14C20.3284 14 21 13.2837 21 12.4C21 11.5163 19.5 10 19.5 10C19.5 10 18 11.5163 18 12.4C18 13.2837 18.6716 14 19.5 14Z" fill="#97A3BA"/>
</svg>
