<svg width="24" height="24" viewBox="0 0 24 24" fill="none" xmlns="http://www.w3.org/2000/svg">
<path fill-rule="evenodd" clip-rule="evenodd" d="M14.1163 4.86824L14.3828 7L21 7C21.5523 7 22 7.44772 22 8C22 8.55229 21.5523 9 21 9L20 9V19H21C21.5523 19 22 19.4477 22 20C22 20.5523 21.5523 21 21 21H15.0133C15.0036 21.0001 14.9939 21.0001 14.9841 21H9.01585C9.00614 21.0001 8.99641 21.0001 8.98666 21H3C2.44772 21 2 20.5523 2 20C2 19.4477 2.44772 19 3 19H4V12C3.44772 12 3 11.5523 3 11V5C3 4.44772 3.44772 4 4 4H6C6.55228 4 7 4.44772 7 5V7H9.61722L9.88369 4.86824C10.0171 3.80094 10.9244 3 12 3C13.0756 3 13.9829 3.80094 14.1163 4.86824ZM11.8682 5.11631L11.6328 7H12.3672L12.1318 5.11631C12.1235 5.04986 12.067 5 12 5C11.933 5 11.8765 5.04986 11.8682 5.11631ZM18 19V9L14.6328 9L15.8828 19H18ZM8.11722 19L9.36722 9H7V11C7 11.5523 6.55228 12 6 12V19H8.11722ZM10.1328 19H13.8672L13.6172 17H10.3828L10.1328 19ZM10.8836 12.9933L10.6328 15H13.3672L13.1164 12.9933C13.0782 12.9977 13.0394 13 13 13H11C10.9606 13 10.9218 12.9977 10.8836 12.9933ZM11.1328 11H12.8672L12.6172 9L11.3828 9L11.1328 11Z" fill="#777B92"/>
</svg>
