<svg width="24" height="24" viewBox="0 0 24 24" fill="none" xmlns="http://www.w3.org/2000/svg">
<g clip-path="url(#clip0_151_383)">
<path fill-rule="evenodd" clip-rule="evenodd" d="M6 3C6 2.44772 6.44772 2 7 2H13C13.5523 2 14 2.44772 14 3C14 3.55228 13.5523 4 13 4V8.72982L18.9865 18.9924C19.7643 20.3257 18.8025 22.0002 17.259 22.0002H2.74103C1.19745 22.0002 0.23571 20.3257 1.01348 18.9924L7 8.72981V4C6.44772 4 6 3.55228 6 3ZM8.95507 9.29727C8.93123 9.37395 8.89841 9.44668 8.85783 9.51422L2.74103 20.0002H17.259L11.142 9.51389C11.1024 9.44789 11.0701 9.37694 11.0465 9.30219C11.0132 9.19743 10.9981 9.0896 11 8.9829V4H9V8.98321C9.00188 9.08814 8.98725 9.19415 8.95507 9.29727Z" fill="#777B92"/>
<path fill-rule="evenodd" clip-rule="evenodd" d="M15 3C15 2.44772 15.4477 2 16 2H22C22.5523 2 23 2.44772 23 3C23 3.55228 22.5523 4 22 4V17C22 17.5523 21.5523 18 21 18C20.4477 18 20 17.5523 20 17V4H18V10C18 10.5523 17.5523 11 17 11C16.4477 11 16 10.5523 16 10V4C15.4477 4 15 3.55228 15 3Z" fill="#777B92"/>
</g>
<defs>
<clipPath id="clip0_151_383">
<rect width="24" height="24" fill="white"/>
</clipPath>
</defs>
</svg>
