<svg width="24" height="24" viewBox="0 0 24 24" fill="none" xmlns="http://www.w3.org/2000/svg">
<path fill-rule="evenodd" clip-rule="evenodd" d="M4 2H18C19.6569 2 21 3.34315 21 5V7C21 7.76836 20.7111 8.46925 20.2361 9C20.7111 9.53076 21 10.2316 21 11V12C21 12.5523 20.5523 13 20 13C19.4477 13 19 12.5523 19 12V11C19 10.4477 18.5523 10 18 10H4C3.44772 10 3 10.4477 3 11V13C3 13.5523 3.44772 14 4 14H13C13.5523 14 14 14.4477 14 15C14 15.5523 13.5523 16 13 16H4C3.44772 16 3 16.4477 3 17V19C3 19.5523 3.44772 20 4 20H13C13.5523 20 14 20.4477 14 21C14 21.5523 13.5523 22 13 22H4C2.34315 22 1 20.6569 1 19V17C1 16.2316 1.28885 15.5308 1.7639 15C1.28885 14.4692 1 13.7684 1 13V11C1 10.2316 1.28885 9.53076 1.76389 9C1.28885 8.46924 1 7.76835 1 7V5C1 3.34315 2.34315 2 4 2ZM4 8H18C18.5523 8 19 7.55228 19 7V5C19 4.44772 18.5523 4 18 4H4C3.44772 4 3 4.44772 3 5V7C3 7.55228 3.44772 8 4 8Z" fill="#777B92"/>
<path fill-rule="evenodd" clip-rule="evenodd" d="M18.7071 19.7071C18.3166 20.0976 17.6834 20.0976 17.2929 19.7071L15.2929 17.7071C14.9024 17.3166 14.9024 16.6834 15.2929 16.2929C15.6834 15.9024 16.3166 15.9024 16.7071 16.2929L18 17.5858L21.2929 14.2929C21.6834 13.9024 22.3166 13.9024 22.7071 14.2929C23.0976 14.6834 23.0976 15.3166 22.7071 15.7071L18.7071 19.7071Z" fill="#777B92"/>
</svg>
