<svg width="22" height="22" viewBox="0 0 22 22" fill="none" xmlns="http://www.w3.org/2000/svg">
<path fill-rule="evenodd" clip-rule="evenodd" d="M11 7C10.7353 7 10.5285 7.09216 10.4075 7.15973C10.2794 7.23127 10.1745 7.31642 10.0954 7.38887C9.93738 7.53347 9.79325 7.70984 9.66912 7.87973C9.41612 8.226 9.15443 8.67289 8.92079 9.13317C8.68541 9.59692 8.46339 10.1041 8.29769 10.5805C8.14148 11.0296 8 11.5489 8 12C8 13.6569 9.34315 15 11 15C12.6569 15 14 13.6569 14 12C14 11.5489 13.8585 11.0296 13.7023 10.5805C13.5366 10.1041 13.3146 9.59692 13.0792 9.13317C12.8456 8.67289 12.5839 8.226 12.3309 7.87973C12.2068 7.70984 12.0626 7.53347 11.9046 7.38887C11.8255 7.31642 11.7206 7.23127 11.5925 7.15973C11.4715 7.09216 11.2647 7 11 7ZM10 12C10 11.8988 10.046 11.642 10.1867 11.2375C10.3179 10.8604 10.5021 10.4366 10.7042 10.0384C10.8036 9.84249 10.9038 9.65982 11 9.49726C11.0962 9.65982 11.1964 9.84249 11.2958 10.0384C11.4979 10.4366 11.6821 10.8604 11.8133 11.2375C11.954 11.642 12 11.8988 12 12C12 12.5523 11.5523 13 11 13C10.4477 13 10 12.5523 10 12Z" fill="#97A3BA"/>
<path fill-rule="evenodd" clip-rule="evenodd" d="M3 19L3 17H2C1.44772 17 1 16.5523 1 16C1 15.4477 1.44772 15 2 15H3L3 7H2C1.44772 7 1 6.55229 1 6C1 5.44772 1.44772 5 2 5H3L3 3L2 3C1.44772 3 1 2.55228 1 2C1 1.44772 1.44772 1 2 1L20 1C20.5523 1 21 1.44772 21 2C21 2.55228 20.5523 3 20 3L19 3V5H20C20.5523 5 21 5.44771 21 6C21 6.55228 20.5523 7 20 7H19V15L20 15C20.5523 15 21 15.4477 21 16C21 16.5523 20.5523 17 20 17H19V19H20C20.5523 19 21 19.4477 21 20C21 20.5523 20.5523 21 20 21L2 21C1.44772 21 1 20.5523 1 20C1 19.4477 1.44772 19 2 19H3ZM5 19L5 3L17 3V19H5Z" fill="#97A3BA"/>
</svg>
