<svg width="24" height="24" viewBox="0 0 24 24" fill="none" xmlns="http://www.w3.org/2000/svg">
<g clip-path="url(#clip0_151_383)">
<path fill-rule="evenodd" clip-rule="evenodd" d="M7 2H13C13.5523 2 14 2.44772 14 3C14 3.55228 13.5523 4 13 4L13 8.72965L18.9865 18.9923C19.7643 20.3256 18.8025 22 17.259 22H2.74103C1.19745 22 0.23571 20.3256 1.01348 18.9923L7 8.72965L7 4C6.44772 4 6 3.55228 6 3C6 2.44772 6.44772 2 7 2ZM9 8.72965C9 9.08376 8.90598 9.43152 8.72756 9.73739L2.74103 20H17.259L11.2724 9.73739C11.094 9.43152 11 9.08376 11 8.72965V4H9V8.72965Z" fill="#777B92"/>
<path fill-rule="evenodd" clip-rule="evenodd" d="M16 2H22C22.5523 2 23 2.44772 23 3C23 3.55228 22.5523 4 22 4V17C22 17.5523 21.5523 18 21 18C20.4477 18 20 17.5523 20 17V4H18V10C18 10.5523 17.5523 11 17 11C16.4477 11 16 10.5523 16 10V4C15.4477 4 15 3.55228 15 3C15 2.44772 15.4477 2 16 2Z" fill="#777B92"/>
</g>
<defs>
<clipPath id="clip0_151_383">
<rect width="24" height="24" fill="white"/>
</clipPath>
</defs>
</svg>
