<svg width="24" height="24" viewBox="0 0 24 24" fill="none" xmlns="http://www.w3.org/2000/svg">
<path fill-rule="evenodd" clip-rule="evenodd" d="M9 6C9 6.55228 8.55228 7 8 7C7.98323 7 7.96656 6.99959 7.95 6.99877C7.93343 6.99959 7.91676 7 7.89999 7H7C5.34315 7 4 8.34315 4 10C4 11.1092 4.60141 12.079 5.50073 12.5993C5.97879 12.8758 6.14215 13.4875 5.86561 13.9656C5.58906 14.4437 4.97733 14.607 4.49927 14.3305C3.00738 13.4675 2 11.852 2 10C2 7.23858 4.23858 5 7 5H7.10002C7.56329 2.71776 9.58104 1 12 1C14.419 1 16.4367 2.71778 16.9 5.00005L17 5C19.7615 5 22 7.23858 22 10C22 11.852 20.9927 13.4675 19.5008 14.3305C19.0227 14.607 18.411 14.4437 18.1344 13.9656C17.8579 13.4875 18.0212 12.8758 18.4993 12.5993C19.3986 12.079 20 11.1092 20 10C20 8.34315 18.6569 7 17 7L16.1009 7.00042C16.0824 7.00044 16.064 6.99995 16.0457 6.99897C16.0306 6.99966 16.0153 7 16 7C15.4477 7 15 6.55228 15 6C15 4.34315 13.6569 3 12 3C10.3431 3 9 4.34315 9 6Z" fill="#777B92"/>
<path fill-rule="evenodd" clip-rule="evenodd" d="M10 10C10.5523 10 11 10.4477 11 11V22C11 22.5523 10.5523 23 10 23C9.44772 23 9 22.5523 9 22V11C9 10.4477 9.44772 10 10 10Z" fill="#777B92"/>
<path fill-rule="evenodd" clip-rule="evenodd" d="M14 13C14.5523 13 15 13.4477 15 14V21C15 21.5523 14.5523 22 14 22C13.4477 22 13 21.5523 13 21V14C13 13.4477 13.4477 13 14 13Z" fill="#777B92"/>
</svg>
