<svg width="22" height="22" viewBox="0 0 22 22" fill="none" xmlns="http://www.w3.org/2000/svg">
<path fill-rule="evenodd" clip-rule="evenodd" d="M15 2C15 2.55228 14.5523 3 14 3L8 3C7.44772 3 7 2.55228 7 2C7 1.44772 7.44772 1 8 1L14 1C14.5523 1 15 1.44772 15 2Z" fill="#97A3BA"/>
<path d="M11 19C14.3137 19 17 16.3137 17 13C17 10.027 14.8377 7.55904 12 7.08296V3L14 3V5.58152C16.9318 6.76829 19 9.64262 19 13C19 17.4183 15.4183 21 11 21C6.58172 21 3 17.4183 3 13C3 9.64262 5.06817 6.76829 8 5.58152L8 3L10 3L10 7.08296C7.16229 7.55904 5 10.027 5 13C5 16.3137 7.68629 19 11 19Z" fill="#97A3BA"/>
<path fill-rule="evenodd" clip-rule="evenodd" d="M11.0593 13.9995C8.83732 14.2464 6.45628 14.511 3.80371 13.9805L4.19594 12.0194C6.5231 12.4848 8.62595 12.2576 10.8894 12.0061L10.9403 12.0004C13.1623 11.7535 15.5434 11.4889 18.1959 12.0194L17.8037 13.9805C15.4766 13.5151 13.3737 13.7423 11.1103 13.9938L11.0593 13.9995Z" fill="#97A3BA"/>
</svg>
