<svg width="24" height="24" viewBox="0 0 24 24" fill="none" xmlns="http://www.w3.org/2000/svg">
<path fill-rule="evenodd" clip-rule="evenodd" d="M21 3V20H22C22.5523 20 23 20.4477 23 21C23 21.5523 22.5523 22 22 22H2C1.44772 22 1 21.5523 1 21C1 20.4477 1.44772 20 2 20H3L3 15L3 3C3 2.44772 3.44772 2 4 2C4.55228 2 5 2.44772 5 3V6H7C7 4.89543 7.89543 4 9 4H19V3C19 2.44772 19.4477 2 20 2C20.5523 2 21 2.44772 21 3ZM19 6H9V8H15C16.1046 8 17 8.89543 17 10L19 10V6ZM17 12C17 13.1046 16.1046 14 15 14H9V16H15C16.1046 16 17 16.8954 17 18V20H19V12H17ZM15 20V18H9C7.89543 18 7 17.1046 7 16H5L5 20H15ZM7 14C7 12.8954 7.89543 12 9 12H15V10H9C7.89543 10 7 9.10457 7 8H5V14H7Z" fill="#777B92"/>
</svg>
