<svg width="26" height="26" viewBox="0 0 26 26" fill="none" xmlns="http://www.w3.org/2000/svg">
<path d="M16 12C16 12.5523 15.5523 13 15 13C14.4477 13 14 12.5523 14 12C14 11.4477 14.4477 11 15 11C15.5523 11 16 11.4477 16 12Z" fill="#7887A5"/>
<path d="M16 16C16 16.5523 15.5523 17 15 17C14.4477 17 14 16.5523 14 16C14 15.4477 14.4477 15 15 15C15.5523 15 16 15.4477 16 16Z" fill="#7887A5"/>
<path d="M11 17C11.5523 17 12 16.5523 12 16C12 15.4477 11.5523 15 11 15C10.4477 15 10 15.4477 10 16C10 16.5523 10.4477 17 11 17Z" fill="#7887A5"/>
<path d="M12 12C12 12.5523 11.5523 13 11 13C10.4477 13 10 12.5523 10 12C10 11.4477 10.4477 11 11 11C11.5523 11 12 11.4477 12 12Z" fill="#7887A5"/>
<path fill-rule="evenodd" clip-rule="evenodd" d="M5.0017 13.0795C4.99964 13.0533 4.99858 13.0267 4.99858 13C4.99858 11.7455 4.59742 10.9198 4.13168 10.1071C4.08188 10.0202 4.02881 9.93019 3.97387 9.83699C3.54438 9.10839 3 8.18488 3 7.03279C3 5.4794 3.26399 4.20894 4.12593 3.50623C5.03676 2.76365 6.18328 2.98732 6.98899 3.24209C7.5594 3.42245 8.2178 3.71064 8.83888 3.98249C9.12245 4.10661 9.39825 4.22733 9.65433 4.33282C10.5555 4.70404 11.3362 4.94877 12 4.94877C12.1273 4.94877 12.249 4.97255 12.361 5.01591C12.5697 5.0053 12.7828 4.99996 13 4.99996C13.2172 4.99996 13.4303 5.0053 13.639 5.01591C13.751 4.97255 13.8727 4.94877 14 4.94877C14.6638 4.94877 15.4445 4.70404 16.3457 4.33282C16.6017 4.22734 16.8775 4.10664 17.161 3.98254C17.7821 3.71069 18.4406 3.42245 19.011 3.24209C19.8167 2.98732 20.9632 2.76365 21.8741 3.50623C22.736 4.20894 23 5.4794 23 7.03279C23 8.18488 22.4556 9.10839 22.0261 9.83699C21.9712 9.93019 21.9181 10.0202 21.8683 10.1071C21.4026 10.9198 21.0014 11.7455 21.0014 13C21.0014 13.0267 21.0004 13.0533 20.9983 13.0795C20.9717 14.161 20.6351 15.1663 20.1244 16.0664L22.4397 18.3817C23.1868 19.1287 23.1868 20.34 22.4397 21.087L21.087 22.4397C20.34 23.1868 19.1287 23.1868 18.3817 22.4397L15.9754 20.0334C15.7707 20.1478 15.5675 20.2528 15.3675 20.3481C14.5621 20.7316 13.7167 21 13 21C12.2833 21 11.4379 20.7316 10.6325 20.3481C10.4325 20.2528 10.2293 20.1478 10.0246 20.0334L7.61832 22.4397C6.87126 23.1868 5.66003 23.1868 4.91297 22.4397L3.5603 21.087C2.81324 20.34 2.81324 19.1287 3.5603 18.3817L5.87556 16.0664C5.36485 15.1663 5.02831 14.161 5.0017 13.0795ZM7.89682 5.75458C7.34161 5.51076 6.85713 5.298 6.38601 5.14903C5.62922 4.90973 5.43199 5.02187 5.3897 5.05635C5.29851 5.1307 5 5.52589 5 7.03279C5 7.61032 5.25098 8.04507 5.71353 8.84627L5.79586 8.989C6.07498 8.39162 6.43386 7.83645 6.88224 7.33905C7.34979 6.82039 7.89908 6.38173 8.52887 6.02942C8.30715 5.93478 8.09735 5.84264 7.89682 5.75458ZM18.1032 5.75457C17.9027 5.84264 17.6929 5.93477 17.4711 6.02942C18.1009 6.38173 18.6502 6.82039 19.1178 7.33905C19.5661 7.83645 19.925 8.39162 20.2041 8.989L20.2865 8.84627C20.749 8.04507 21 7.61032 21 7.03279C21 5.52589 20.7015 5.1307 20.6103 5.05635C20.568 5.02187 20.3708 4.90973 19.614 5.14903C19.1429 5.298 18.6584 5.51075 18.1032 5.75457ZM8.36776 8.67817C7.45984 9.68535 7 11.1497 7 12.9411C7 14.4645 7.99519 15.9762 9.39835 17.1711C10.0831 17.7543 10.8224 18.2233 11.4925 18.5424C12.1871 18.8732 12.7167 19 13 19C13.2833 19 13.8129 18.8732 14.5075 18.5424C15.1776 18.2233 15.9169 17.7543 16.6016 17.1711C18.0048 15.9762 19 14.4645 19 12.9411C19 11.1497 18.5402 9.68535 17.6322 8.67817C16.7411 7.68963 15.2904 6.99996 13 6.99996C10.7096 6.99996 9.25888 7.68963 8.36776 8.67817ZM6.26564 20.964L5.03605 19.7344L6.94198 17.8284L8.17157 19.058L6.26564 20.964ZM19.7344 20.964L20.964 19.7344L19.058 17.8284L17.8284 19.058L19.7344 20.964Z" fill="#7887A5"/>
</svg>
