<svg width="22" height="22" viewBox="0 0 22 22" fill="none" xmlns="http://www.w3.org/2000/svg">
<path fill-rule="evenodd" clip-rule="evenodd" d="M7.99999 7.72965L7.99999 3L9.99999 3L9.99999 8.27035L4.61828 17.4961C4.2294 18.1628 4.71027 19 5.48206 19L16.5179 19C17.2897 19 17.7706 18.1628 17.3817 17.4961L12 8.27035L12 3.00002L14 3.00002L14 7.72965L19.1093 16.4884C20.2759 18.4884 18.8333 21 16.5179 21L5.48206 21C3.16669 21 1.72407 18.4884 2.89072 16.4884L7.99999 7.72965Z" fill="#97A3BA"/>
<path fill-rule="evenodd" clip-rule="evenodd" d="M15 2C15 2.55228 14.5523 3 14 3L8 3C7.44772 3 7 2.55228 7 2C7 1.44772 7.44772 1 8 1L14 1C14.5523 1 15 1.44772 15 2Z" fill="#97A3BA"/>
</svg>
