<svg width="24" height="24" viewBox="0 0 24 24" fill="none" xmlns="http://www.w3.org/2000/svg">
<path fill-rule="evenodd" clip-rule="evenodd" d="M3 2H13C13.5523 2 14 2.44772 14 3C14 3.55228 13.5523 4 13 4H12V18C12 20.2091 10.2091 22 8 22C5.79086 22 4 20.2091 4 18V4H3C2.44772 4 2 3.55228 2 3C2 2.44772 2.44772 2 3 2ZM10 4H6V8H10V4ZM6 18C6 19.1046 6.89543 20 8 20C9.10457 20 10 19.1046 10 18V10H6V18Z" fill="#777B92"/>
<path fill-rule="evenodd" clip-rule="evenodd" d="M21.7071 8.29289C22.0976 8.68342 22.0976 9.31658 21.7071 9.70711L19.4142 12L21.7071 14.2929C22.0976 14.6834 22.0976 15.3166 21.7071 15.7071C21.3166 16.0976 20.6834 16.0976 20.2929 15.7071L18 13.4142L15.7071 15.7071C15.3166 16.0976 14.6834 16.0976 14.2929 15.7071C13.9024 15.3166 13.9024 14.6834 14.2929 14.2929L16.5858 12L14.2929 9.70711C13.9024 9.31658 13.9024 8.68342 14.2929 8.29289C14.6834 7.90237 15.3166 7.90237 15.7071 8.29289L18 10.5858L20.2929 8.29289C20.6834 7.90237 21.3166 7.90237 21.7071 8.29289Z" fill="#777B92"/>
</svg>
