<svg width="26" height="26" viewBox="0 0 26 26" fill="none" xmlns="http://www.w3.org/2000/svg">
<path d="M14 18C14 18.5523 13.5523 19 13 19C12.4477 19 12 18.5523 12 18C12 17.4477 12.4477 17 13 17C13.5523 17 14 17.4477 14 18Z" fill="#7887A5"/>
<path d="M13 15C13.5523 15 14 14.5523 14 14C14 13.4477 13.5523 13 13 13C12.4477 13 12 13.4477 12 14C12 14.5523 12.4477 15 13 15Z" fill="#7887A5"/>
<path d="M11 17C10.4477 17 10 16.5523 10 16C10 15.4477 10.4477 15 11 15C11.5523 15 12 15.4477 12 16C12 16.5523 11.5523 17 11 17Z" fill="#7887A5"/>
<path d="M14 16C14 16.5523 14.4477 17 15 17C15.5523 17 16 16.5523 16 16C16 15.4477 15.5523 15 15 15C14.4477 15 14 15.4477 14 16Z" fill="#7887A5"/>
<path fill-rule="evenodd" clip-rule="evenodd" d="M6.05568 16.8871C5.47665 16.7409 4.98064 16.4576 4.57199 16.0641C3.98139 15.4953 3.63237 14.7546 3.41718 14.0373C2.99969 12.6457 2.99989 11.0258 3 10.0484L3.00001 10C3.00001 7.59967 4.23577 5.8003 6.11281 4.64781C7.94994 3.51982 10.4008 3 13 3C15.613 3 18.0647 3.51948 19.8991 4.64834C21.7744 5.80238 23 7.60253 23 10L23 10.0484C23.0001 11.0258 23.0003 12.6457 22.5828 14.0373C22.3676 14.7546 22.0186 15.4953 21.428 16.0641C21.0194 16.4576 20.5234 16.7409 19.9443 16.8871C19.8498 17.6345 19.6374 18.3452 19.3264 19H22C22.5523 19 23 19.4477 23 20C23 20.5523 22.5523 21 22 21H18C17.9675 21 17.9354 20.9984 17.9037 20.9954C16.6407 22.2353 14.9097 23 13 23C11.0903 23 9.35929 22.2353 8.09634 20.9954C8.06464 20.9984 8.0325 21 8 21H4C3.44772 21 3 20.5523 3 20C3 19.4477 3.44772 19 4 19H6.67363C6.36259 18.3452 6.1502 17.6345 6.05568 16.8871ZM5.00001 10C5.00001 8.40033 5.77896 7.1997 7.15928 6.35219C8.57951 5.48018 10.6286 5 13 5C15.387 5 17.4353 5.48052 18.8509 6.35166C20.2256 7.19762 21 8.39747 21 10C21 11.0283 20.9927 12.3775 20.6672 13.4627C20.5074 13.9954 20.2939 14.3797 20.0407 14.6234C19.9939 14.6686 19.9435 14.711 19.8887 14.7501C19.2994 11.4805 16.4394 9 13 9C9.56065 9 6.70064 11.4805 6.11128 14.7501C6.05648 14.711 6.00613 14.6685 5.95928 14.6234C5.70613 14.3797 5.49265 13.9954 5.33284 13.4627C5.00729 12.3775 5.00001 11.0283 5.00001 10ZM8 16.0037L8.00001 16L8 15.9968C8.00175 13.2368 10.2397 11 13 11C15.7614 11 18 13.2386 18 16C18 18.7614 15.7614 21 13 21C10.2398 21 8.00201 18.7634 8 16.0037Z" fill="#7887A5"/>
</svg>
