<svg width="22" height="22" viewBox="0 0 22 22" fill="none" xmlns="http://www.w3.org/2000/svg">
<path d="M5 6C5.55228 6 6 5.55228 6 5C6 4.44772 5.55228 4 5 4C4.44772 4 4 4.44772 4 5C4 5.55228 4.44772 6 5 6Z" fill="#A3ADC2"/>
<path d="M6 8C6 8.55229 5.55228 9 5 9C4.44772 9 4 8.55229 4 8C4 7.44772 4.44772 7 5 7C5.55228 7 6 7.44772 6 8Z" fill="#A3ADC2"/>
<path d="M5 12C5.55228 12 6 11.5523 6 11C6 10.4477 5.55228 10 5 10C4.44772 10 4 10.4477 4 11C4 11.5523 4.44772 12 5 12Z" fill="#A3ADC2"/>
<path d="M9 7C8.44772 7 8 7.44772 8 8C8 8.55228 8.44771 9 9 9H13C13.5523 9 14 8.55229 14 8C14 7.44772 13.5523 7 13 7L9 7Z" fill="#A3ADC2"/>
<path d="M8 5C8 4.44772 8.44772 4 9 4L13 4C13.5523 4 14 4.44772 14 5C14 5.55229 13.5523 6 13 6L9 6C8.44771 6 8 5.55228 8 5Z" fill="#A3ADC2"/>
<path d="M9 10C8.44772 10 8 10.4477 8 11C8 11.5523 8.44771 12 9 12H13C13.5523 12 14 11.5523 14 11C14 10.4477 13.5523 10 13 10H9Z" fill="#A3ADC2"/>
<path fill-rule="evenodd" clip-rule="evenodd" d="M3 0C1.34315 0 0 1.34315 0 3V17C0 18.6569 1.34315 20 3 20H15C16.6569 20 18 18.6569 18 17V3C18 1.34315 16.6569 0 15 0H3ZM2 17V16H16V17C16 17.5523 15.5523 18 15 18H3C2.44772 18 2 17.5523 2 17ZM2 3V14H16V3C16 2.44772 15.5523 2 15 2H3C2.44772 2 2 2.44772 2 3Z" fill="#A3ADC2"/>
</svg>
