<svg width="24" height="24" viewBox="0 0 24 24" fill="none" xmlns="http://www.w3.org/2000/svg">
<path fill-rule="evenodd" clip-rule="evenodd" d="M15 8H17C18.1046 8 19 8.89543 19 10V12C19 13.1046 18.1046 14 17 14H15C13.8954 14 13 13.1046 13 12V10C13 8.89543 13.8954 8 15 8ZM15 10V12H17V10H15Z" fill="#777B92"/>
<path fill-rule="evenodd" clip-rule="evenodd" d="M7 11V13C7 13.5523 6.55228 14 6 14C5.44772 14 5 13.5523 5 13V11C5 10.4477 5.44772 10 6 10C6.55228 10 7 10.4477 7 11Z" fill="#777B92"/>
<path fill-rule="evenodd" clip-rule="evenodd" d="M7 7C7 7.55228 6.55228 8 6 8C5.44772 8 5 7.55228 5 7C5 6.44772 5.44772 6 6 6C6.55228 6 7 6.44772 7 7Z" fill="#777B92"/>
<path fill-rule="evenodd" clip-rule="evenodd" d="M10 8C9.44772 8 9 7.55228 9 7C9 6.44772 9.44772 6 10 6C10.5523 6 11 6.44772 11 7C11 7.55228 10.5523 8 10 8Z" fill="#777B92"/>
<path fill-rule="evenodd" clip-rule="evenodd" d="M3 2H21C22.1046 2 23 2.89543 23 4V16C23 17.1046 22.1046 18 21 18H3C1.89543 18 1 17.1046 1 16V4C1 2.89543 1.89543 2 3 2ZM3 4V16H21V4L3 4Z" fill="#777B92"/>
<path fill-rule="evenodd" clip-rule="evenodd" d="M1 21C1 20.4477 1.44772 20 2 20H22C22.5523 20 23 20.4477 23 21C23 21.5523 22.5523 22 22 22H2C1.44772 22 1 21.5523 1 21Z" fill="#777B92"/>
</svg>
