<svg width="24" height="24" viewBox="0 0 24 24" fill="none" xmlns="http://www.w3.org/2000/svg">
<path fill-rule="evenodd" clip-rule="evenodd" d="M15 2C15.5523 2 16 2.44772 16 3C16 3.55228 15.5523 3.99999 15 4V8.72965L20.9865 18.9923C21.7643 20.3256 20.8026 22 19.259 22H4.74105C3.19747 22 2.23573 20.3256 3.01349 18.9923L9.00001 8.72965V4C8.44773 4 8 3.55228 8 3C8 2.44772 8.44772 2 9 2H15ZM11 4V8.72965C11 9.08376 10.906 9.43152 10.7276 9.73739L4.74105 20H19.259L13.2725 9.73739C13.094 9.43152 13 9.08376 13 8.72965V4H11Z" fill="#777B92"/>
</svg>
