<svg width="24" height="24" viewBox="0 0 24 24" fill="none" xmlns="http://www.w3.org/2000/svg">
<path fill-rule="evenodd" clip-rule="evenodd" d="M14.6374 11.6999C14.9262 12.1774 15.251 12.7487 15.5068 13.2948C15.7382 13.7889 16 14.4362 16 14.9999C16 16.6567 14.6569 17.9999 13 17.9999C11.3431 17.9999 10 16.6567 10 14.9999C10 14.4362 10.2618 13.7889 10.4932 13.2948C10.749 12.7487 11.0738 12.1774 11.3626 11.6999C12.1137 10.4581 13.8863 10.4581 14.6374 11.6999ZM12.3044 14.1432C12.1978 14.3707 12.1163 14.5707 12.0631 14.7356C12.0368 14.8172 12.0199 14.8823 12.0101 14.9317C12.0007 14.979 12 14.9999 12 14.9999C12 15.5522 12.4477 15.9999 13 15.9999C13.5523 15.9999 14 15.5522 14 14.9999C13.9998 14.997 13.9986 14.9755 13.9899 14.9317C13.9801 14.8823 13.9632 14.8172 13.9369 14.7356C13.8837 14.5707 13.8022 14.3707 13.6956 14.1432C13.5018 13.7293 13.249 13.2754 13 12.858C12.751 13.2754 12.4982 13.7293 12.3044 14.1432Z" fill="#777B92"/>
<path fill-rule="evenodd" clip-rule="evenodd" d="M12 3C12 2.44772 12.4477 2 13 2H17C17.5523 2 18 2.44772 18 3C18 3.55228 17.5523 4 17 4H16V5H18C19.1046 5 20 5.89543 20 7V20C20 21.1046 19.1046 22 18 22H6C4.89543 22 4 21.1046 4 20V13.3699C4 12.8925 4.17078 12.4308 4.48149 12.0683L4.9219 11.5545C4.34695 10.8622 4 9.97117 4 9C4 6.79086 5.79086 5 8 5C8.75308 5 9.45868 5.20882 10.0606 5.57109C10.4327 5.20663 10.9345 5 11.4599 5H14V4H13C12.4477 4 12 3.55228 12 3ZM8.71367 7.1308C8.4922 7.04621 8.25178 7 8 7C6.89543 7 6 7.89543 6 9C6 9.3607 6.09502 9.69872 6.26211 9.99095L8.71367 7.1308ZM11.4599 7L6 13.3699V20H18V7L11.4599 7Z" fill="#777B92"/>
</svg>
