<svg width="24" height="24" viewBox="0 0 24 24" fill="none" xmlns="http://www.w3.org/2000/svg">
<path fill-rule="evenodd" clip-rule="evenodd" d="M11 11C11 11.5523 10.5523 12 10 12C9.44772 12 9 11.5523 9 11C9 10.4477 9.44772 10 10 10C10.5523 10 11 10.4477 11 11Z" fill="#777B92"/>
<path fill-rule="evenodd" clip-rule="evenodd" d="M15 15C15 15.5523 14.5523 16 14 16C13.4477 16 13 15.5523 13 15C13 14.4477 13.4477 14 14 14C14.5523 14 15 14.4477 15 15Z" fill="#777B92"/>
<path fill-rule="evenodd" clip-rule="evenodd" d="M14 12C13.4477 12 13 11.5523 13 11C13 10.4477 13.4477 10 14 10C14.5523 10 15 10.4477 15 11C15 11.5523 14.5523 12 14 12Z" fill="#777B92"/>
<path fill-rule="evenodd" clip-rule="evenodd" d="M11 15C11 15.5523 10.5523 16 10 16C9.44772 16 9 15.5523 9 15C9 14.4477 9.44772 14 10 14C10.5523 14 11 14.4477 11 15Z" fill="#777B92"/>
<path fill-rule="evenodd" clip-rule="evenodd" d="M5 2C6.7365 2 7.91456 2.58915 8.91557 3.08975L8.94721 3.10557C9.93938 3.60165 10.7548 4 12 4C13.2452 4 14.0606 3.60165 15.0528 3.10557L15.0844 3.08975C16.0854 2.58915 17.2635 2 19 2C20.0308 2 20.7991 2.75167 21.2529 3.58365C21.7272 4.45321 22 5.62793 22 7C22 8.49152 21.4123 9.91435 20.8824 10.9081C20.6113 11.4164 20.3408 11.839 20.1372 12.1358C20.0832 12.2146 20.0336 12.2849 19.9898 12.3459C19.9366 13.2485 19.6781 14.0972 19.2881 14.8739L21.7071 17.2929C22.0976 17.6834 22.0976 18.3166 21.7071 18.7071L18.7071 21.7071C18.3166 22.0976 17.6834 22.0976 17.2929 21.7071L14.798 19.2122C14.6978 19.2629 14.5977 19.3114 14.498 19.3575C13.6593 19.7455 12.7814 20 12 20C11.2186 20 10.3407 19.7455 9.50198 19.3575C9.4023 19.3114 9.30224 19.2629 9.20197 19.2122L6.70711 21.7071C6.31658 22.0976 5.68342 22.0976 5.29289 21.7071L2.29289 18.7071C1.90237 18.3166 1.90237 17.6834 2.29289 17.2929L4.71189 14.8739C4.32185 14.0972 4.06342 13.2485 4.0102 12.3459C3.96635 12.2849 3.91681 12.2146 3.86277 12.1358C3.65921 11.839 3.38873 11.4164 3.11765 10.9081C2.58765 9.91435 2 8.49152 2 7C2 5.62793 2.2728 4.45321 2.7471 3.58365C3.20091 2.75167 3.96924 2 5 2ZM8.19074 4.96338C8.15507 4.94558 8.11964 4.92786 8.08443 4.91025L8.05279 4.89443C7.06062 4.39835 6.24517 4 5 4L4.99587 4.00055C4.9926 4.00115 4.98619 4.00264 4.97645 4.00627C4.95685 4.01359 4.92194 4.03033 4.87406 4.06704C4.77529 4.14277 4.64032 4.28941 4.5029 4.54135C4.2272 5.04679 4 5.87207 4 7C4 7.72606 4.21373 8.48772 4.50884 9.18625C5.18943 7.37514 6.508 5.87625 8.19074 4.96338ZM15.9156 4.91025L15.8093 4.96338C17.492 5.87625 18.8106 7.37514 19.4912 9.18625C19.7863 8.48773 20 7.72606 20 7C20 5.87207 19.7728 5.04679 19.4971 4.54135C19.3597 4.28941 19.2247 4.14277 19.1259 4.06704C19.0781 4.03033 19.0432 4.01359 19.0236 4.00627C19.0138 4.00264 19.0074 4.00115 19.0041 4.00055L19.0008 4.00005L15.9156 4.91025ZM15.7192 16.1948C17.0624 15.0281 17.9971 13.5326 18 12.0071L18 11.9915C17.9954 8.6817 15.3109 6 12 6C8.68629 6 6 8.68629 6 12C6 13.528 6.93552 15.0263 8.28078 16.1948C8.94067 16.768 9.66368 17.2286 10.3418 17.5423C11.0343 17.8628 11.6147 18 12 18C12.3853 18 12.9657 17.8628 13.6582 17.5423C14.3363 17.2286 15.0593 16.768 15.7192 16.1948ZM16.5295 18.1152L18 19.5858L19.5858 18L18.1551 16.5693C17.8038 16.9843 17.4227 17.3643 17.0308 17.7047C16.8668 17.8471 16.6994 17.9841 16.5295 18.1152ZM6.96922 17.7047C6.57732 17.3643 6.19622 16.9843 5.84491 16.5693L4.41421 18L6 19.5858L7.47055 18.1152C7.30059 17.9841 7.13316 17.8471 6.96922 17.7047Z" fill="#777B92"/>
</svg>
