<svg width="24" height="24" viewBox="0 0 24 24" fill="none" xmlns="http://www.w3.org/2000/svg">
<path fill-rule="evenodd" clip-rule="evenodd" d="M1 5C1 3.34315 2.34315 2 4 2H8C9.65685 2 11 3.34315 11 5V6H13V5C13 3.34315 14.3431 2 16 2H20C21.6569 2 23 3.34315 23 5V21C23 22.1046 22.1046 23 21 23H15C13.8954 23 13 22.1046 13 21V19H11V21C11 22.1046 10.1046 23 9 23H3C1.89543 23 1 22.1046 1 21V5ZM13 8H11V12H13V8ZM9 5C9 4.44772 8.55228 4 8 4H4C3.44772 4 3 4.44772 3 5V17H9V5ZM13 14H11V17H13V14ZM15 17H21V5C21 4.44772 20.5523 4 20 4H16C15.4477 4 15 4.44772 15 5V17ZM3 19V21H9V19H3ZM15 19V21H21V19H15Z" fill="#777B92"/>
</svg>
