<svg width="24" height="24" viewBox="0 0 24 24" fill="none" xmlns="http://www.w3.org/2000/svg">
<path fill-rule="evenodd" clip-rule="evenodd" d="M12 2L8 2L7 2C6.44771 2 6 2.44772 6 3C6 3.55228 6.44771 4 7 4L7 8.72965L1.01348 18.9923C0.23571 20.3256 1.19745 22 2.74103 22L17.259 22C18.8025 22 19.7643 20.3256 18.9865 18.9923L13 8.72965V4C13.5523 4 14 3.55228 14 3C14 2.44772 13.5523 2 13 2L12 2ZM9 8.72965V4L11 4V8.72965C11 9.08376 11.094 9.43152 11.2724 9.73739L17.259 20L2.74103 20L8.72756 9.73739C8.90598 9.43152 9 9.08376 9 8.72965ZM16 2C15.4477 2 15 2.44772 15 3C15 3.55228 15.4477 4 16 4L16 10C16 10.5523 16.4477 11 17 11C17.5523 11 18 10.5523 18 10V4L20 4L20 17C20 17.5523 20.4477 18 21 18C21.5523 18 22 17.5523 22 17L22 4C22.5523 4 23 3.55228 23 3C23 2.44772 22.5523 2 22 2L21 2L17 2L16 2Z" fill="#777B92"/>
</svg>
