<svg width="26" height="26" viewBox="0 0 26 26" fill="none" xmlns="http://www.w3.org/2000/svg">
<path d="M14 15C14 15.5523 13.5523 16 13 16C12.4477 16 12 15.5523 12 15C12 14.4477 12.4477 14 13 14C13.5523 14 14 14.4477 14 15Z" fill="#7887A5"/>
<path fill-rule="evenodd" clip-rule="evenodd" d="M17 15C17 17.2091 15.2091 19 13 19C10.7909 19 9 17.2091 9 15C9 12.7909 10.7909 11 13 11C15.2091 11 17 12.7909 17 15ZM15 15C15 16.1046 14.1046 17 13 17C11.8954 17 11 16.1046 11 15C11 13.8954 11.8954 13 13 13C14.1046 13 15 13.8954 15 15Z" fill="#7887A5"/>
<path fill-rule="evenodd" clip-rule="evenodd" d="M23 8.00039C23 23 15 23 13 23C11 23 3 23 3 8.00039C3 2.99955 13 3 13 3C13 3 23 3 23 8.00039ZM12.9993 5H13.0006L13.0126 5.00009C13.0259 5.0002 13.0483 5.00043 13.079 5.00094C13.1404 5.00197 13.2351 5.00409 13.3583 5.00849C13.6051 5.01731 13.9638 5.03517 14.3964 5.07122C15.2705 5.14407 16.4053 5.28791 17.5149 5.56533C17.6806 5.60676 17.8425 5.65038 18 5.69612V7H8V5.69594C8.15752 5.65021 8.31935 5.6066 8.48507 5.56517C9.59462 5.28778 10.7294 5.14398 11.6035 5.07116C12.0362 5.03512 12.3948 5.01728 12.6416 5.00848C12.7648 5.00408 12.8595 5.00196 12.9209 5.00094C12.9516 5.00043 12.974 5.00019 12.9874 5.00009L12.9993 5ZM6 6.54492C5.91645 6.5985 5.83723 6.65329 5.76258 6.70929C5.1891 7.13945 5 7.53576 5 8.00039C5 15.1735 6.90786 18.2365 8.53035 19.5886C10.1978 20.9781 12.0574 21 13 21C13.9426 21 15.8022 20.9781 17.4697 19.5886C19.0921 18.2366 21 15.1735 21 8.00039C21 7.53594 20.811 7.13967 20.2374 6.7095C20.1628 6.6535 20.0836 6.5987 20 6.54512V8C20 8.55228 19.5523 9 19 9H7C6.44772 9 6 8.55228 6 8L6 6.54492Z" fill="#7887A5"/>
</svg>
