<svg width="24" height="24" viewBox="0 0 24 24" fill="none" xmlns="http://www.w3.org/2000/svg">
<path fill-rule="evenodd" clip-rule="evenodd" d="M13 2C15.7614 2 18 4.23858 18 7H20C21.1046 7 22 7.89543 22 9V11C22 12.1046 21.1046 13 20 13H18V20H19C19.5523 20 20 20.4477 20 21C20 21.5523 19.5523 22 19 22H17C16.8535 22 16.7143 21.9685 16.5889 21.9119C16.4028 21.9692 16.205 22 16 22H10C9.79502 22 9.59725 21.9692 9.41106 21.9119C9.28567 21.9685 9.14652 22 9 22H5C4.44772 22 4 21.5523 4 21C4 20.4477 4.44772 20 5 20H8V10L3 10C2.44772 10 2 9.55228 2 9C2 8.44772 2.44772 8 3 8L8 8V7C8 4.23858 10.2386 2 13 2ZM20 11V9H18V11H20ZM16 7C16 5.34315 14.6569 4 13 4C11.3431 4 10 5.34315 10 7V20H16V7Z" fill="#777B92"/>
<path fill-rule="evenodd" clip-rule="evenodd" d="M3.5 15C2.67157 15 2 14.3284 2 13.5C2 12.6716 3.5 11 3.5 11C3.5 11 5 12.6716 5 13.5C5 14.3284 4.32843 15 3.5 15Z" fill="#777B92"/>
</svg>
