<svg width="26" height="26" viewBox="0 0 26 26" fill="none" xmlns="http://www.w3.org/2000/svg">
<path d="M14 12C14 12.5523 13.5523 13 13 13C12.4477 13 12 12.5523 12 12C12 11.4477 12.4477 11 13 11C13.5523 11 14 11.4477 14 12Z" fill="#7887A5"/>
<path d="M14 16C14 16.5523 13.5523 17 13 17C12.4477 17 12 16.5523 12 16C12 15.4477 12.4477 15 13 15C13.5523 15 14 15.4477 14 16Z" fill="#7887A5"/>
<path d="M14 14C14 14.5523 14.4477 15 15 15C15.5523 15 16 14.5523 16 14C16 13.4477 15.5523 13 15 13C14.4477 13 14 13.4477 14 14Z" fill="#7887A5"/>
<path d="M11 15C10.4477 15 10 14.5523 10 14C10 13.4477 10.4477 13 11 13C11.5523 13 12 13.4477 12 14C12 14.5523 11.5523 15 11 15Z" fill="#7887A5"/>
<path fill-rule="evenodd" clip-rule="evenodd" d="M13 21C13.3875 21 13.7657 20.9701 14.1326 20.9112C14.8301 20.9316 15.6098 21.1077 16.4696 21.3342C16.6127 21.3719 16.7595 21.4115 16.9089 21.4518L16.9109 21.4523C17.6571 21.6535 18.4663 21.8717 19.1918 21.9582C20.0624 22.0621 21.1162 22.0197 21.9227 21.2705C22.7085 20.5405 22.9975 19.3785 22.9975 17.9274C22.9975 17.6607 22.9981 17.3936 22.9987 17.1268L22.9987 17.1252C23.0049 14.5126 23.0111 11.9246 22.4252 9.95756C22.0919 8.83837 21.5426 7.8201 20.6148 7.09007C19.6817 6.35595 18.4783 6.0013 17.0071 6C15.7493 4.77752 14.2832 4 13 4C11.7168 4 10.2507 4.77752 8.99291 6C7.52172 6.0013 6.31825 6.35595 5.38525 7.09007C4.45743 7.8201 3.90812 8.83837 3.57479 9.95756C2.98895 11.9246 2.99508 14.5126 3.00126 17.1252C3.0019 17.3924 3.00253 17.6603 3.00253 17.9274C3.00253 19.3785 3.29154 20.5405 4.07733 21.2705C4.88381 22.0197 5.93764 22.0621 6.80821 21.9582C7.53366 21.8717 8.34209 21.6537 9.08831 21.4525C9.23835 21.4121 9.38661 21.3721 9.53044 21.3342C10.3902 21.1077 11.1699 20.9316 11.8674 20.9112C12.2343 20.9701 12.6125 21 13 21ZM18 12.5C18 14.7878 17.3565 16.4179 16.4803 17.4419C15.6227 18.4443 14.4349 19 13 19C11.5651 19 10.3773 18.4443 9.51966 17.4419C8.64348 16.4179 8 14.7878 8 12.5C8 10.9741 8.73959 9.29535 9.88931 7.96272C11.0933 6.56717 12.3392 6 13 6C13.6608 6 14.9067 6.56717 16.1107 7.96272C17.2604 9.29535 18 10.9741 18 12.5ZM20 12.5C20 15.6486 18.9462 18.0507 17.255 19.4852L17.4846 19.5468C18.2293 19.7467 18.863 19.9168 19.43 19.9845C20.1215 20.067 20.4111 19.954 20.5575 19.818C20.7246 19.6628 20.998 19.2097 20.998 17.9274C20.998 17.681 20.9983 17.4379 20.9986 17.1982C21.0024 14.4765 21.0056 12.1926 20.508 10.522C20.2477 9.64811 19.8754 9.04346 19.3739 8.64885C19.209 8.51908 19.0178 8.40235 18.7935 8.30441C19.5309 9.58915 20 11.0446 20 12.5ZM8.74498 19.4852C8.66729 19.506 8.59078 19.5266 8.5154 19.5468C7.77072 19.7467 7.13701 19.9168 6.56998 19.9845C5.87845 20.067 5.58887 19.954 5.44247 19.818C5.27538 19.6628 5.00202 19.2097 5.00202 17.9274C5.00202 17.6812 5.00169 17.4383 5.00136 17.1988C4.99758 14.4771 4.99442 12.1926 5.492 10.522C5.75226 9.64811 6.12459 9.04346 6.62611 8.64885C6.79104 8.51908 6.98225 8.40235 7.20648 8.30441C6.4691 9.58915 6 11.0446 6 12.5C6 15.6486 7.05378 18.0507 8.74498 19.4852Z" fill="#7887A5"/>
</svg>
