<svg width="22" height="22" viewBox="0 0 22 22" fill="none" xmlns="http://www.w3.org/2000/svg">
<path fill-rule="evenodd" clip-rule="evenodd" d="M13.5225 2C13.5225 2.55228 13.0747 3 12.5225 3L6.52246 3C5.97018 3 5.52246 2.55228 5.52246 2C5.52246 1.44772 5.97018 1 6.52246 1L12.5225 1C13.0747 1 13.5225 1.44772 13.5225 2Z" fill="#97A3BA"/>
<path fill-rule="evenodd" clip-rule="evenodd" d="M22 2C22 2.55228 21.5523 3 21 3L15 3C14.4477 3 14 2.55228 14 2C14 1.44772 14.4477 1 15 1L21 1C21.5523 1 22 1.44772 22 2Z" fill="#97A3BA"/>
<path fill-rule="evenodd" clip-rule="evenodd" d="M6.52245 7.72965V3H8.52245V8.27035L3.14074 17.4961C2.75186 18.1628 3.23273 19 4.00452 19H15.0404C15.8122 19 16.293 18.1628 15.9042 17.4961L10.5224 8.27035V3.00002H12.5224V7.72965L17.6317 16.4884C18.7984 18.4884 17.3557 21 15.0404 21H4.00452C1.68915 21 0.246533 18.4884 1.41318 16.4884L6.52245 7.72965Z" fill="#97A3BA"/>
<path fill-rule="evenodd" clip-rule="evenodd" d="M18.7259 20.9116C20.032 20.587 21 19.4066 21 18L21 3.00004L19 3.00004L19 15.2351L19.4425 15.9846C20.4571 17.7033 20.0091 19.7054 18.7259 20.9116ZM17 11.8473L15 8.45946L15 3.00004L17 3.00004L17 11.8473Z" fill="#97A3BA"/>
</svg>
