<svg width="22" height="22" viewBox="0 0 22 22" fill="none" xmlns="http://www.w3.org/2000/svg">
<path fill-rule="evenodd" clip-rule="evenodd" d="M5 20C5 19.4477 5.44771 19 6 19L10 19L10 13.8773C9.88234 13.9201 9.75747 13.9485 9.62748 13.9603C9.1477 14.0042 8.28362 14.0442 7.34667 13.8911C6.42142 13.7399 5.31164 13.3817 4.46497 12.535C3.61831 11.6884 3.26009 10.5786 3.10888 9.65333C2.95577 8.71638 2.99583 7.85229 3.03965 7.37252C3.10456 6.66199 3.662 6.10456 4.37252 6.03965C4.8523 5.99583 5.71638 5.95577 6.65333 6.10888C7.57858 6.26009 8.68836 6.61831 9.53503 7.46497C9.71006 7.64001 9.86423 7.8263 10 8.01987L10 4C10 3.44772 10.4477 3 11 3C11.3139 3 11.5941 3.14466 11.7774 3.37097C11.9603 3.0511 12.1862 2.74377 12.465 2.46497C13.3116 1.61831 14.4214 1.26009 15.3467 1.10888C16.2836 0.955767 17.1477 0.995829 17.6275 1.03965C18.338 1.10456 18.8954 1.66199 18.9603 2.37252C19.0042 2.8523 19.0442 3.71638 18.8911 4.65333C18.7399 5.57858 18.3817 6.68836 17.535 7.53502C16.6884 8.38169 15.5786 8.73991 14.6533 8.89112C13.7164 9.04423 12.8523 9.00417 12.3725 8.96035C12.2425 8.94847 12.1177 8.92011 12 8.87735L12 12.0199C12.1358 11.8263 12.2899 11.64 12.465 11.465C13.3116 10.6183 14.4214 10.2601 15.3467 10.1089C16.2836 9.95577 17.1477 9.99583 17.6275 10.0397C18.338 10.1046 18.8954 10.662 18.9603 11.3725C19.0042 11.8523 19.0442 12.7164 18.8911 13.6533C18.7399 14.5786 18.3817 15.6884 17.535 16.535C16.6884 17.3817 15.5786 17.7399 14.6533 17.8911C13.7164 18.0442 12.8523 18.0042 12.3725 17.9603C12.2425 17.9485 12.1177 17.9201 12 17.8773L12 19L16 19C16.5523 19 17 19.4477 17 20C17 20.5523 16.5523 21 16 21L6 21C5.44771 21 5 20.5523 5 20ZM15.6771 12.1307C16.1371 12.0555 16.5855 12.0418 16.9488 12.0512C16.9582 12.4145 16.9445 12.8629 16.8693 13.3229C16.7527 14.0369 16.5065 14.6664 16.0864 15.0864C15.6664 15.5065 15.0369 15.7527 14.3229 15.8693C13.8629 15.9445 13.4145 15.9582 13.0512 15.9488C13.0418 15.5855 13.0555 15.1371 13.1307 14.6771C13.2473 13.9631 13.4935 13.3336 13.9136 12.9136C14.3336 12.4935 14.9631 12.2473 15.6771 12.1307ZM16.9488 3.05124C16.5855 3.04181 16.1371 3.05549 15.6771 3.13067C14.9631 3.24735 14.3336 3.49348 13.9136 3.91356C13.4935 4.33364 13.2473 4.96312 13.1307 5.67707C13.0555 6.13711 13.0418 6.58547 13.0512 6.94876C13.4145 6.95819 13.8629 6.94451 14.3229 6.86933C15.0369 6.75265 15.6664 6.50652 16.0864 6.08644C16.5065 5.66636 16.7527 5.03688 16.8693 4.32293C16.9445 3.86289 16.9582 3.41453 16.9488 3.05124ZM6.32293 8.13067C5.86289 8.05549 5.41453 8.04181 5.05124 8.05124C5.04181 8.41453 5.05549 8.86289 5.13067 9.32293C5.24735 10.0369 5.49348 10.6664 5.91356 11.0864C6.33364 11.5065 6.96312 11.7527 7.67707 11.8693C8.13711 11.9445 8.58547 11.9582 8.94876 11.9488C8.95819 11.5855 8.94451 11.1371 8.86933 10.6771C8.75265 9.96312 8.50652 9.33364 8.08644 8.91356C7.66636 8.49348 7.03688 8.24735 6.32293 8.13067Z" fill="#97A3BA"/>
</svg>
