<svg width="24" height="24" viewBox="0 0 24 24" fill="none" xmlns="http://www.w3.org/2000/svg">
<path fill-rule="evenodd" clip-rule="evenodd" d="M8.70692 7.29271L10 8.58579L11.5858 7.00002L10.2929 5.70713C10.0656 5.47984 9.96142 5.15714 10.0129 4.83985C10.0644 4.52255 10.2653 4.24935 10.5528 4.1056L14.5528 2.1056C14.9378 1.91311 15.4027 1.98856 15.7071 2.29292L21.7071 8.29292C22.0976 8.68344 22.0976 9.31661 21.7071 9.70713L18.7071 12.7071C18.3166 13.0977 17.6834 13.0977 17.2929 12.7071L16 11.4142L14.4142 13L16.7071 15.2929C16.8353 15.4211 16.9262 15.5816 16.9701 15.7575L17.9701 19.7575C18.0553 20.0982 17.9555 20.4587 17.7071 20.7071C17.4587 20.9555 17.0982 21.0553 16.7575 20.9701L12.7575 19.9701C12.5816 19.9262 12.4211 19.8353 12.2929 19.7071L10 17.4142L6.70711 20.7071C6.31658 21.0976 5.68342 21.0976 5.29289 20.7071L2.29289 17.7071C1.90237 17.3166 1.90237 16.6834 2.29289 16.2929L5.58579 13L4.2935 11.7077C4.2933 11.7075 4.29249 11.7067 4.29228 11.7065C4.29249 11.7067 4.29208 11.7063 4.29228 11.7065L1.29289 8.70711C0.902369 8.31658 0.902369 7.68342 1.29289 7.29289L4.29289 4.29289C4.68342 3.90237 5.31658 3.90237 5.70711 4.29289L8.70692 7.29271ZM8 9.41421L6.41421 11L13.5112 18.097L15.6256 18.6256L15.097 16.5112L9.29289 10.7071L8 9.41421ZM5 9.58579L6.58579 8L5 6.41421L3.41421 8L5 9.58579ZM14.5858 10L13 8.41423L11.4142 10L13 11.5858L14.5858 10ZM13.7119 6.29769L16.7023 9.28809L16.7071 9.29289L16.7119 9.29773L18 10.5858L19.5858 9.00003L14.8025 4.21679L12.6882 5.27398L13.7023 6.28813L13.7071 6.29289L13.7119 6.29769ZM8.58579 16L7 14.4142L4.41421 17L6 18.5858L8.58579 16Z" fill="#777B92"/>
</svg>
