<svg width="24" height="24" viewBox="0 0 24 24" fill="none" xmlns="http://www.w3.org/2000/svg">
<path fill-rule="evenodd" clip-rule="evenodd" d="M5.01392 2.11247L20.3708 3.91916C21.2547 4.02316 21.9636 4.69875 22.1099 5.57667L22.9482 10.6065C22.9557 10.6514 22.9616 10.6964 22.966 10.7415C23.0245 10.959 23.0062 11.1819 22.9256 11.3787C22.9156 11.4228 22.9041 11.4666 22.8911 11.51L20.1716 20.5748C20.1287 20.7179 20.0707 20.8533 19.9998 20.9796C20.0044 21.1954 19.9395 21.4142 19.8 21.6003C19.5369 21.9511 19.0875 22.0798 18.6923 21.9521C18.5512 21.9836 18.4051 22.0001 18.256 22.0001H7.5884C6.86207 22.0001 6.19282 21.6063 5.84009 20.9714L1.31024 12.8176C1.2741 12.7526 1.24178 12.6859 1.21332 12.6178C1.01326 12.3625 0.941055 12.0148 1.05131 11.684C1.05712 11.6666 1.06335 11.6495 1.07 11.6326C1.07792 11.559 1.08996 11.4855 1.10618 11.4125L2.82786 3.66492C3.05045 2.66329 3.99489 1.99259 5.01392 2.11247ZM20.877 10.3446L20.1371 5.90547L4.78024 4.09878L3.17179 11.3368L10.9857 13.9414L20.877 10.3446ZM4.12277 13.762L7.5884 20.0001H15.9997L10.5298 15.8976L4.12277 13.762ZM18.4538 19.3406L20.4698 12.6208L13.0779 15.3087L18.4538 19.3406Z" fill="#777B92"/>
</svg>
