<svg width="22" height="22" viewBox="0 0 22 22" fill="none" xmlns="http://www.w3.org/2000/svg">
<path fill-rule="evenodd" clip-rule="evenodd" d="M10 9C9.73532 9 9.52851 9.09216 9.40752 9.15973C9.27944 9.23127 9.17455 9.31642 9.09538 9.38887C8.93738 9.53347 8.79325 9.70984 8.66912 9.87973C8.41612 10.226 8.15443 10.6729 7.92079 11.1332C7.68541 11.5969 7.46339 12.1041 7.29769 12.5805C7.14148 13.0296 7 13.5489 7 14C7 15.6569 8.34315 17 10 17C11.6569 17 13 15.6569 13 14C13 13.5489 12.8585 13.0296 12.7023 12.5805C12.5366 12.1041 12.3146 11.5969 12.0792 11.1332C11.8456 10.6729 11.5839 10.226 11.3309 9.87973C11.2068 9.70984 11.0626 9.53347 10.9046 9.38887C10.8255 9.31642 10.7206 9.23127 10.5925 9.15973C10.4715 9.09216 10.2647 9 10 9ZM9 14C9 13.8988 9.04602 13.642 9.18669 13.2375C9.31786 12.8604 9.5021 12.4366 9.70421 12.0384C9.80365 11.8425 9.90385 11.6598 10 11.4973C10.0962 11.6598 10.1964 11.8425 10.2958 12.0384C10.4979 12.4366 10.6821 12.8604 10.8133 13.2375C10.954 13.642 11 13.8988 11 14C11 14.5523 10.5523 15 10 15C9.44772 15 9 14.5523 9 14Z" fill="#97A3BA"/>
<path fill-rule="evenodd" clip-rule="evenodd" d="M3 7C3 5.34314 4.34315 4 6 4H7V3H6C5.44772 3 5 2.55228 5 2C5 1.44772 5.44772 1 6 1L10 1C10.5523 1 11 1.44771 11 2C11 2.55228 10.5523 3 10 3H9V4L11.1309 4C11.7529 4 12.3541 4.19312 12.855 4.54488C14.4224 3.64233 16.459 3.86104 17.799 5.20101C19.1943 6.59629 19.3738 8.74693 18.3376 10.3366C18.7649 10.8678 19 11.5308 19 12.2169L19 18C19 19.6569 17.6569 21 16 21H6C4.34315 21 3 19.6569 3 18L3 7ZM6 6C5.44772 6 5 6.44771 5 7V18C5 18.5523 5.44772 19 6 19H16C16.5523 19 17 18.5523 17 18V12.2169C17 11.9636 16.9039 11.7198 16.7311 11.5346L11.862 6.31768C11.6728 6.11505 11.4081 6 11.1309 6L6 6ZM16.8507 8.73156C17.0793 8.02258 16.9122 7.21371 16.3492 6.65076C15.822 6.12351 15.079 5.94346 14.4044 6.1106L16.8507 8.73156Z" fill="#97A3BA"/>
</svg>
