<svg width="24" height="24" viewBox="0 0 24 24" fill="none" xmlns="http://www.w3.org/2000/svg">
<path fill-rule="evenodd" clip-rule="evenodd" d="M9 10C8.44772 10 8 9.55228 8 9C8 8.44772 8.44772 8 9 8C9.55228 8 10 8.44772 10 9C10 9.55228 9.55228 10 9 10Z" fill="#777B92"/>
<path fill-rule="evenodd" clip-rule="evenodd" d="M11 3V4H16C18.2091 4 20 5.79086 20 8V12H21C21.5523 12 22 12.4477 22 13C22 13.5523 21.5523 14 21 14H20V17C20 17.5523 19.5523 18 19 18C18.4477 18 18 17.5523 18 17V14H16V15C16 15.5523 15.5523 16 15 16C14.4477 16 14 15.5523 14 15V14H6V17C6 17.5523 5.55228 18 5 18C4.44772 18 4 17.5523 4 17V14H3C2.44772 14 2 13.5523 2 13C2 12.4477 2.44772 12 3 12H4V8C4 5.79086 5.79086 4 8 4H9V3C9 2.44772 9.44772 2 10 2C10.5523 2 11 2.44772 11 3ZM16 11V12H18V8C18 6.89543 17.1046 6 16 6H8C6.89543 6 6 6.89543 6 8V12H14V11C14 10.4477 14.4477 10 15 10C15.5523 10 16 10.4477 16 11Z" fill="#777B92"/>
<path fill-rule="evenodd" clip-rule="evenodd" d="M8 21C8 20.4477 8.44772 20 9 20H19C19.5523 20 20 20.4477 20 21C20 21.5523 19.5523 22 19 22H9C8.44772 22 8 21.5523 8 21Z" fill="#777B92"/>
<path fill-rule="evenodd" clip-rule="evenodd" d="M9 16H11C11.5523 16 12 16.4477 12 17C12 17.5523 11.5523 18 11 18H9C8.44772 18 8 17.5523 8 17C8 16.4477 8.44772 16 9 16Z" fill="#777B92"/>
</svg>
