<svg width="24" height="24" viewBox="0 0 24 24" fill="none" xmlns="http://www.w3.org/2000/svg">
<path fill-rule="evenodd" clip-rule="evenodd" d="M8.5 2H15.5C19.6421 2 23 5.35786 23 9.5C23 12.378 21.3789 14.8775 19 16.135V20H22C22.5523 20 23 20.4477 23 21C23 21.5523 22.5523 22 22 22H2C1.44772 22 1 21.5523 1 21C1 20.4477 1.44772 20 2 20H5L5 16.135C2.6211 14.8775 1 12.378 1 9.5C1 5.35786 4.35786 2 8.5 2ZM8 4.02242C5.19675 4.27504 3 6.63098 3 9.5C3 12.369 5.19675 14.725 8 14.9776V4.02242ZM10 6H14V4H10V6ZM10 8V11H14V8H10ZM10 13V15H14V13H10ZM8.5 17C7.9863 17 7.48466 16.9484 7 16.85L7 20H17V16.85C16.5153 16.9484 16.0137 17 15.5 17H8.5ZM21 9.5C21 6.63098 18.8033 4.27504 16 4.02242V14.9776C18.8033 14.725 21 12.369 21 9.5Z" fill="#777B92"/>
</svg>
