<svg width="24" height="24" viewBox="0 0 24 24" fill="none" xmlns="http://www.w3.org/2000/svg">
<path fill-rule="evenodd" clip-rule="evenodd" d="M13.6374 9.6999C13.9262 10.1774 14.251 10.7487 14.5068 11.2948C14.7382 11.7889 15 12.4362 15 12.9999C15 14.6567 13.6569 15.9999 12 15.9999C10.3431 15.9999 9 14.6567 9 12.9999C9 12.4362 9.26176 11.7889 9.49319 11.2948C9.749 10.7487 10.0738 10.1774 10.3626 9.6999C11.1137 8.45811 12.8863 8.45811 13.6374 9.6999ZM11.3044 12.1432C11.1978 12.3707 11.1163 12.5707 11.0631 12.7356C11.0368 12.8172 11.0199 12.8823 11.0101 12.9317C11.0014 12.9755 11.0002 12.9969 11 12.9999C11 12.9999 11 13.0001 11 12.9999C11 13.5522 11.4477 13.9999 12 13.9999C12.5523 13.9999 13 13.5522 13 12.9999C13 13.0002 13 12.9999 13 12.9999C12.9998 12.997 12.9986 12.9755 12.9899 12.9317C12.9801 12.8823 12.9632 12.8172 12.9369 12.7356C12.8837 12.5707 12.8022 12.3707 12.6956 12.1432C12.5018 11.7293 12.249 11.2754 12 10.858C11.751 11.2754 11.4982 11.7293 11.3044 12.1432Z" fill="#777B92"/>
<path fill-rule="evenodd" clip-rule="evenodd" d="M2 3C2 2.44772 2.44772 2 3 2H5C5.14652 2 5.28567 2.03151 5.41106 2.08812C5.59725 2.03084 5.79502 2 6 2H18C18.205 2 18.4028 2.03084 18.5889 2.08812C18.7143 2.03151 18.8535 2 19 2H21C21.5523 2 22 2.44772 22 3C22 3.55228 21.5523 4 21 4H20V6H21C21.5523 6 22 6.44772 22 7C22 7.55228 21.5523 8 21 8H20V16H21C21.5523 16 22 16.4477 22 17C22 17.5523 21.5523 18 21 18H20V20H21C21.5523 20 22 20.4477 22 21C22 21.5523 21.5523 22 21 22H19C18.8535 22 18.7143 21.9685 18.5889 21.9119C18.4028 21.9692 18.205 22 18 22H6C5.79502 22 5.59725 21.9692 5.41106 21.9119C5.28567 21.9685 5.14652 22 5 22H3C2.44772 22 2 21.5523 2 21C2 20.4477 2.44772 20 3 20H4V18H3C2.44772 18 2 17.5523 2 17C2 16.4477 2.44772 16 3 16H4V8H3C2.44772 8 2 7.55228 2 7C2 6.44772 2.44772 6 3 6H4V4L3 4C2.44772 4 2 3.55228 2 3ZM6 4V20H18V4L6 4Z" fill="#777B92"/>
</svg>
