<svg width="26" height="26" viewBox="0 0 26 26" fill="none" xmlns="http://www.w3.org/2000/svg">
<path d="M14 18C14 18.5523 13.5523 19 13 19C12.4477 19 12 18.5523 12 18C12 17.4477 12.4477 17 13 17C13.5523 17 14 17.4477 14 18Z" fill="#7887A5"/>
<path fill-rule="evenodd" clip-rule="evenodd" d="M6 13C4.34315 13 3 11.6569 3 10V6C3 4.34315 4.34315 3 6 3H20C21.6569 3 23 4.34315 23 6V10C23 11.6569 21.6569 13 20 13H19.2462C19.0009 13 18.7566 12.9699 18.5186 12.9104L18 12.7808V15H21C22.1046 15 23 15.8954 23 17V19C23 20.1046 22.1046 21 21 21H17.0004C16.0882 22.2144 14.6358 23 13 23C11.3642 23 9.91184 22.2144 8.99963 21H5C3.89543 21 3 20.1046 3 19V17C3 15.8954 3.89543 15 5 15H8V12.7808L7.4814 12.9104C7.24343 12.9699 6.99907 13 6.75379 13H6ZM10 12.2808V13.9996C10.8357 13.3719 11.8744 13 13 13C14.1256 13 15.1643 13.3719 16 13.9996V12.2808L14.9963 12.0299C14.917 12.01 14.8356 12 14.7538 12H11.2462C11.1644 12 11.083 12.01 11.0037 12.0299L10 12.2808ZM5 10C5 10.5523 5.44772 11 6 11H6.75379C6.83555 11 6.917 10.99 6.99632 10.9701L10.5186 10.0896C10.7566 10.0301 11.0009 10 11.2462 10H14.7538C14.9991 10 15.2434 10.0301 15.4814 10.0896L19.0037 10.9701C19.083 10.99 19.1644 11 19.2462 11H20C20.5523 11 21 10.5523 21 10V6C21 5.44772 20.5523 5 20 5L6 5C5.44771 5 5 5.44772 5 6L5 10ZM13 21C14.6569 21 16 19.6569 16 18C16 16.3431 14.6569 15 13 15C11.3431 15 10 16.3431 10 18C10 19.6569 11.3431 21 13 21ZM8 17H5L5 19H8V17ZM18 19H21V17H18V19Z" fill="#7887A5"/>
</svg>
