<svg width="24" height="24" viewBox="0 0 24 24" fill="none" xmlns="http://www.w3.org/2000/svg">
<path fill-rule="evenodd" clip-rule="evenodd" d="M14 4C12.3233 4 10.7016 4.83291 9.89443 6.44721C9.64744 6.94119 9.04677 7.14142 8.55279 6.89443C8.05881 6.64744 7.85859 6.04676 8.10558 5.55279C9.29843 3.16709 11.6767 2 14 2C17.866 2 21 5.13401 21 9L21 9.00323C20.9982 14.3044 16.5228 18.5025 11 18.9588V20H15C15.5523 20 16 20.4477 16 21C16 21.5523 15.5523 22 15 22L5 22C4.44772 22 4 21.5523 4 21C4 20.9989 4 20.9978 4.00001 20.9968C4.00145 19.6806 4.8858 18.6597 5.94997 18.0212C6.79467 17.5144 7.85112 17.1777 9 17.0535V15.9291C5.98777 15.4984 3.59531 13.1503 3.09592 10.1606C2.8842 8.89307 3.94999 8 5 8H15C16.05 8 17.1158 8.89307 16.9041 10.1606C16.4047 13.1503 14.0122 15.4984 11 15.9291V16.9517C15.5793 16.5059 19 13.0332 19 9L19 8.99474C18.9972 6.23573 16.7597 4 14 4ZM9 19.0684C8.19417 19.181 7.49883 19.4243 6.97896 19.7362C6.83367 19.8233 6.7078 19.9117 6.59931 20H9V19.0684ZM10 14C12.4184 14 14.4374 12.2821 14.9002 10H5.09982C5.56257 12.2821 7.58159 14 10 14ZM4.9994 10C4.99892 10 4.9994 10 4.9994 10V10Z" fill="#777B92"/>
</svg>
