<svg width="30" height="29" viewBox="0 0 30 29" fill="none" xmlns="http://www.w3.org/2000/svg">
<path fill-rule="evenodd" clip-rule="evenodd" d="M12.7428 10.9147L11.8786 11.4C10.747 12.0353 9.41164 12.0299 8.32017 11.4944L7.47804 11.0812L5.38292 14.6204C4.83739 15.5419 5.13618 16.8525 6.29744 17.3026C8.72138 18.242 11.5045 18.2608 14.0249 17.1852C15.1428 16.7081 15.4153 15.4292 14.881 14.5265L12.7428 10.9147ZM7.14495 15.5367L8.30402 13.5787C9.47599 13.9335 10.7636 13.9243 11.9675 13.4977L13.1211 15.4464C11.1739 16.2459 9.03358 16.2379 7.14495 15.5367Z" fill="#97A3BA"/>
<path d="M10.0005 10.0844C11.0504 10.0844 11.9015 9.25492 11.9015 8.23172C11.9015 7.20852 11.0504 6.37905 10.0005 6.37905C8.9506 6.37905 8.09948 7.20852 8.09948 8.23172C8.09948 9.25492 8.9506 10.0844 10.0005 10.0844Z" fill="#97A3BA"/>
<path fill-rule="evenodd" clip-rule="evenodd" d="M4.05857 0.356667C5.04194 -0.347567 6.31469 0.0621796 6.84931 0.96529L8.98636 4.57527L8.12489 5.06211C6.8606 5.7766 6.1898 7.1052 6.27269 8.44168L6.33665 9.47301H1.94623C0.901007 9.47301 -0.0840292 8.64362 0.00569374 7.48618C0.220084 4.72057 1.64626 2.08423 4.05857 0.356667ZM5.15105 1.98928C3.30596 3.34945 2.2011 5.38423 2.00498 7.52771H4.31391C4.48821 6.16143 5.17501 4.86588 6.30531 3.93911L5.15105 1.98928Z" fill="#97A3BA"/>
<path fill-rule="evenodd" clip-rule="evenodd" d="M16.2117 0.554004C15.2298 -0.197686 13.9193 0.208957 13.3754 1.12829L11.2732 4.68193L12.0513 5.18747C12.5486 5.51055 12.9612 5.90637 13.2497 6.39846L13.2527 6.4036C13.6327 7.04253 13.785 7.75111 13.7469 8.4487L13.691 9.47301L18.0516 9.47301C19.1002 9.47301 20.083 8.64016 19.9944 7.48402C19.8863 6.07181 19.4674 4.6592 18.6879 3.34583C18.0342 2.23729 17.1881 1.30142 16.2117 0.554004ZM13.9026 4.13196L15.0716 2.15595C15.8119 2.74034 16.455 3.46307 16.9578 4.31614L16.9594 4.31877C17.5632 5.33571 17.8968 6.42733 17.9955 7.52771L15.7032 7.52771C15.6116 6.81359 15.3788 6.10007 14.9812 5.43073C14.6826 4.92203 14.3119 4.49338 13.9026 4.13196Z" fill="#97A3BA"/>
</svg>
