<svg width="24" height="24" viewBox="0 0 24 24" fill="none" xmlns="http://www.w3.org/2000/svg">
<path fill-rule="evenodd" clip-rule="evenodd" d="M12.8321 1.4453C13.2612 2.08909 13.932 2.76863 14.7804 3.56986C14.9505 3.73058 15.1274 3.89582 15.309 4.06537C16.0029 4.71363 16.7649 5.4254 17.4811 6.19268C19.3017 8.14342 21 10.6288 21 14C21 18.9706 16.9706 23 12 23C7.02944 23 3 18.9706 3 14C3 10.6288 4.69826 8.14342 6.51894 6.19268C7.23508 5.4254 7.9971 4.71359 8.6911 4.06532C8.8726 3.89578 9.04946 3.73058 9.21963 3.56986C10.068 2.76863 10.7388 2.08909 11.1679 1.4453C11.3534 1.1671 11.6656 1 12 1C12.3344 1 12.6466 1.1671 12.8321 1.4453ZM18.9354 13C18.6533 10.8484 17.4788 9.12146 16.0189 7.55732C15.3544 6.84529 14.6578 6.19435 13.9697 5.55141C13.7813 5.37538 13.5934 5.1998 13.4071 5.02389C12.9184 4.56227 12.4329 4.09117 12 3.60905C11.5671 4.09117 11.0816 4.56227 10.5929 5.02389C10.4066 5.19985 10.2188 5.37532 10.0303 5.55139C9.34226 6.19434 8.64562 6.84529 7.98106 7.55732C6.30174 9.35658 5 11.3712 5 14C5 17.5265 7.60771 20.4439 11 20.9291V17C11 16.4477 11.4477 16 12 16H14V14C14 13.4477 14.4477 13 15 13H18.9354ZM13 20.9291C16.0657 20.4906 18.4906 18.0657 18.9291 15H16V17C16 17.5523 15.5523 18 15 18H13V20.9291Z" fill="#777B92"/>
</svg>
