<svg width="24" height="24" viewBox="0 0 24 24" fill="none" xmlns="http://www.w3.org/2000/svg">
<path fill-rule="evenodd" clip-rule="evenodd" d="M16.9903 3.1286C17.4716 3.39937 17.6423 4.00908 17.3716 4.49044L15.9599 7H19C19.5523 7 20 7.44772 20 8C20 8.55228 19.5523 9 19 9H15C14.9462 9 14.8934 8.99575 14.8419 8.98758L13.7099 11H21C21.5523 11 22 11.4477 22 12C22 12.5523 21.5523 13 21 13H13.7097L14.8417 15.0125C14.8933 15.0043 14.9461 15 15 15H19C19.5523 15 20 15.4477 20 16C20 16.5523 19.5523 17 19 17H15.9597L17.3716 19.5099C17.6423 19.9913 17.4716 20.601 16.9903 20.8718C16.5089 21.1425 15.8992 20.9718 15.6284 20.4904L14.3684 18.2503L12.832 20.5548C12.5257 21.0143 11.9048 21.1385 11.4453 20.8322C10.9858 20.5258 10.8616 19.9049 11.1679 19.4454L13.1679 16.4454C13.2008 16.3962 13.2372 16.3508 13.2766 16.3094L12 14.0399L8.37157 20.4904C8.10081 20.9718 7.49109 21.1425 7.00973 20.8718C6.52838 20.601 6.35766 19.9913 6.62842 19.5099L10.2902 13H7.61815L5.89443 16.4474C5.64744 16.9414 5.04677 17.1416 4.55279 16.8946C4.05881 16.6477 3.85859 16.047 4.10558 15.553L5.38208 13H3C2.44772 13 2 12.5523 2 12C2 11.4477 2.44772 11 3 11H5.38186L4.10558 8.44743C3.85859 7.95345 4.05881 7.35278 4.55279 7.10579C5.04677 6.8588 5.64744 7.05903 5.89443 7.55301L7.61793 11H10.29L6.62842 4.49044C6.35766 4.00908 6.52838 3.39937 7.00973 3.1286C7.49109 2.85784 8.10081 3.02856 8.37157 3.50992L12 9.96045L12.9858 8.20789L11.1056 4.44743C10.8586 3.95345 11.0588 3.35278 11.5528 3.10579C12.0468 2.8588 12.6474 3.05903 12.8944 3.55301L14.1696 6.10336L15.6284 3.50992C15.8992 3.02856 16.5089 2.85784 16.9903 3.1286Z" fill="#777B92"/>
</svg>
