<svg width="24" height="24" viewBox="0 0 24 24" fill="none" xmlns="http://www.w3.org/2000/svg">
<path fill-rule="evenodd" clip-rule="evenodd" d="M6 2C4.89543 2 4 2.89543 4 4V12C4 13.1046 4.89543 14 6 14H18C19.1046 14 20 13.1046 20 12V4C20 2.89543 19.1046 2 18 2H6ZM6 4L18 4V12H6V4ZM15 20H19C19.5523 20 20 19.5523 20 19C20 18.4477 19.5523 18 19 18H15C14.4477 18 14 18.4477 14 19C14 19.5523 14.4477 20 15 20ZM8.29289 17.7071C7.90237 17.3166 7.90237 16.6834 8.29289 16.2929C8.68342 15.9024 9.31658 15.9024 9.70711 16.2929L11.7071 18.2929C12.0976 18.6834 12.0976 19.3166 11.7071 19.7071L9.70711 21.7071C9.31658 22.0976 8.68342 22.0976 8.29289 21.7071C7.90237 21.3166 7.90237 20.6834 8.29289 20.2929L8.58579 20H5C4.44772 20 4 19.5523 4 19C4 18.4477 4.44772 18 5 18H8.58579L8.29289 17.7071ZM11 8C11 7.44772 11.4477 7 12 7C12.5523 7 13 7.44772 13 8C13 8.55228 12.5523 9 12 9C11.4477 9 11 8.55228 11 8ZM12 5C10.3431 5 9 6.34315 9 8C9 9.65685 10.3431 11 12 11C13.6569 11 15 9.65685 15 8C15 6.34315 13.6569 5 12 5Z" fill="#777B92"/>
</svg>
