<svg width="24" height="24" viewBox="0 0 24 24" fill="none" xmlns="http://www.w3.org/2000/svg">
<path fill-rule="evenodd" clip-rule="evenodd" d="M18.7859 1.2451C19.8804 1.00188 20.961 1.70584 21.1809 2.80532L21.7885 5.84405C22.0019 6.91092 21.3232 7.95262 20.2612 8.18861L12.1082 10.0001H20.9999C21.5522 10.0001 21.9999 10.4478 21.9999 11.0001V21.0001C21.9999 21.5524 21.5522 22.0001 20.9999 22.0001H2.9999C2.44761 22.0001 1.9999 21.5524 1.9999 21.0001V11.0001C1.9999 10.9195 2.00942 10.8412 2.0274 10.7662C1.93145 10.5917 1.86012 10.3997 1.81896 10.1939L1.21132 7.15562C0.99795 6.08875 1.67655 5.04703 2.73863 4.81102L18.7859 1.2451ZM5.74161 6.1925L3.17248 6.7634L3.78012 9.8017L5.07742 9.51346L5.74161 6.1925ZM7.87608 5.71819L7.21188 9.03921L10.1006 8.39736L10.7649 5.07627L7.87608 5.71819ZM15.1239 7.28127L12.2351 7.92312L12.8993 4.60196L15.7881 3.96003L15.1239 7.28127ZM17.2583 6.80702L19.8274 6.23622L19.2197 3.19748L17.9226 3.48572L17.2583 6.80702ZM3.9999 12.0001V20.0001H19.9999V12.0001H3.9999Z" fill="#777B92"/>
</svg>
