<svg width="24" height="24" viewBox="0 0 24 24" fill="none" xmlns="http://www.w3.org/2000/svg">
<path fill-rule="evenodd" clip-rule="evenodd" d="M10.2 6.39997C8.88153 5.41111 7 6.35188 7 7.99997V16C7 17.6481 8.88153 18.5888 10.2 17.6L15.5333 13.6C15.7224 13.4582 15.878 13.2912 16 13.1081V17C16 17.5523 16.4477 18 17 18C17.5523 18 18 17.5523 18 17V6.99997C18 6.44768 17.5523 5.99997 17 5.99997C16.4477 5.99997 16 6.44768 16 6.99997V10.8919C15.878 10.7087 15.7224 10.5418 15.5333 10.4L10.2 6.39997ZM9 7.99997L14.3333 12L9 16V7.99997Z" fill="#777B92"/>
</svg>
