<svg width="24" height="24" viewBox="0 0 24 24" fill="none" xmlns="http://www.w3.org/2000/svg">
<path fill-rule="evenodd" clip-rule="evenodd" d="M6.82915 4.10557C7.16794 3.428 7.86046 3 8.61801 3H15.3819C16.1395 3 16.832 3.428 17.1708 4.10557L20.8944 11.5528C21.0342 11.8324 21.0307 12.1462 20.9118 12.4108C20.9691 12.597 21 12.7949 21 13V19C21 20.1046 20.1045 21 19 21H4.99997C3.89541 21 2.99997 20.1046 2.99997 19V13C2.99997 12.7949 3.03085 12.597 3.08819 12.4108C2.96922 12.1462 2.96573 11.8324 3.10555 11.5528L6.82915 4.10557ZM15.3819 5L18.3819 11H5.61801L8.61801 5H15.3819ZM4.99997 13H19V19H4.99997V13ZM12 15C11.4477 15 11 15.4477 11 16C11 16.5523 11.4477 17 12 17H16C16.5523 17 17 16.5523 17 16C17 15.4477 16.5523 15 16 15H12ZM7.99998 17C8.55226 17 8.99998 16.5523 8.99998 16C8.99998 15.4477 8.55226 15 7.99998 15C7.44769 15 6.99998 15.4477 6.99998 16C6.99998 16.5523 7.44769 17 7.99998 17Z" fill="#777B92"/>
</svg>
