<svg width="24" height="24" viewBox="0 0 24 24" fill="none" xmlns="http://www.w3.org/2000/svg">
<path fill-rule="evenodd" clip-rule="evenodd" d="M4 12C4 11.0345 4.96911 10 6.5 10C7.24706 10 7.89594 10.2633 8.34162 10.6531C8.75732 11.0167 9.38907 10.9745 9.75269 10.5588C10.1163 10.1431 10.0741 9.51136 9.65838 9.14775C8.83355 8.42626 7.71163 8 6.5 8C4.16489 8 2 9.65179 2 12C2 14.3482 4.16489 16 6.5 16C9.19026 16 11.2187 14.1991 12.8519 12.7474L12.9809 12.6327C13.7927 11.9106 14.5208 11.2629 15.2708 10.7765C16.0459 10.2737 16.7624 10 17.5 10C19.0309 10 20 11.0345 20 12C20 12.9655 19.0309 14 17.5 14C16.7529 14 16.1041 13.7367 15.6584 13.3469C15.2427 12.9833 14.6109 13.0255 14.2473 13.4412C13.8837 13.8569 13.9259 14.4886 14.3416 14.8523C15.1665 15.5737 16.2884 16 17.5 16C19.8351 16 22 14.3482 22 12C22 9.65179 19.8351 8 17.5 8C16.2376 8 15.1416 8.47631 14.1824 9.09854C13.2996 9.67115 12.4639 10.4151 11.6864 11.1073L11.5231 11.2526C9.78127 12.8009 8.30974 14 6.5 14C4.96911 14 4 12.9655 4 12Z" fill="#777B92"/>
</svg>
