<svg width="24" height="24" viewBox="0 0 24 24" fill="none" xmlns="http://www.w3.org/2000/svg">
<path fill-rule="evenodd" clip-rule="evenodd" d="M4.70711 3.29289C4.31658 2.90237 3.68342 2.90237 3.29289 3.29289C2.90237 3.68342 2.90237 4.31658 3.29289 4.70711L19.2929 20.7071C19.6834 21.0976 20.3166 21.0976 20.7071 20.7071C21.0976 20.3166 21.0976 19.6834 20.7071 19.2929L4.70711 3.29289ZM7 4C7 3.44772 7.44772 3 8 3H19C20.1046 3 21 3.89543 21 5V15C21 15.5523 20.5523 16 20 16C19.4477 16 19 15.5523 19 15V5H8C7.44772 5 7 4.55228 7 4ZM3 15V8C3 7.44772 3.44772 7 4 7C4.55228 7 5 7.44772 5 8V15H12C12.5523 15 13 15.4477 13 16C13 16.5523 12.5523 17 12 17H5C3.89543 17 3 16.1046 3 15ZM2 20C2 19.4477 2.44772 19 3 19H16C16.5523 19 17 19.4477 17 20C17 20.5523 16.5523 21 16 21H3C2.44772 21 2 20.5523 2 20Z" fill="#777B92"/>
</svg>
