<svg width="24" height="24" viewBox="0 0 24 24" fill="none" xmlns="http://www.w3.org/2000/svg">
<path fill-rule="evenodd" clip-rule="evenodd" d="M8.22788 4.66675C8.77651 3.11451 10.2568 2 12 2C14.2091 2 16 3.79086 16 6V11C16 11.5523 15.5523 12 15 12C14.4477 12 14 11.5523 14 11V6C14 4.89543 13.1046 4 12 4C11.1308 4 10.3886 4.5551 10.1136 5.33325C9.92951 5.85396 9.35819 6.12689 8.83747 5.94284C8.31675 5.75879 8.04383 5.18747 8.22788 4.66675ZM12.8345 15.9308C12.5638 15.9762 12.285 16 12 16C9.23858 16 7 13.7614 7 11C7 10.4477 6.55228 10 6 10C5.44772 10 5 10.4477 5 11C5 14.5265 7.60771 17.4439 11 17.9291V20H9C8.44772 20 8 20.4477 8 21C8 21.5523 8.44772 22 9 22H12H15C15.5523 22 16 21.5523 16 21C16 20.4477 15.5523 20 15 20H13V17.929C13.0554 17.9211 13.1105 17.9125 13.1655 17.9033C13.7101 17.8119 14.0776 17.2963 13.9862 16.7516C13.8948 16.2069 13.3792 15.8394 12.8345 15.9308ZM18 10C18.5523 10 19 10.4477 19 11C19 11.8164 18.8598 12.6021 18.6014 13.3332C18.4174 13.854 17.8461 14.1269 17.3253 13.9428C16.8046 13.7588 16.5317 13.1875 16.7157 12.6668C16.8995 12.1467 17 11.5862 17 11C17 10.4477 17.4477 10 18 10ZM4.70711 3.29289C4.31658 2.90237 3.68342 2.90237 3.29289 3.29289C2.90237 3.68342 2.90237 4.31658 3.29289 4.70711L19.2929 20.7071C19.6834 21.0976 20.3166 21.0976 20.7071 20.7071C21.0976 20.3166 21.0976 19.6834 20.7071 19.2929L4.70711 3.29289Z" fill="#777B92"/>
</svg>
