<svg width="24" height="24" viewBox="0 0 24 24" fill="none" xmlns="http://www.w3.org/2000/svg">
<path fill-rule="evenodd" clip-rule="evenodd" d="M4 5C2.89543 5 2 5.89543 2 7V17C2 18.1046 2.89543 19 4 19H16C17.1046 19 18 18.1046 18 17V14.8508L18.4383 15.3986C19.6193 16.8749 22 16.0398 22 14.1492V9.85078C22 7.96022 19.6193 7.12512 18.4383 8.60139L18 9.14922V7C18 5.89543 17.1046 5 16 5H4ZM4 7L16 7V17L4 17V7ZM18.2806 12L20 9.85078V14.1492L18.2806 12ZM12.7071 9.29289C13.0976 9.68342 13.0976 10.3166 12.7071 10.7071L11.4142 12L12.7071 13.2929C13.0976 13.6834 13.0976 14.3166 12.7071 14.7071C12.3166 15.0976 11.6834 15.0976 11.2929 14.7071L10 13.4142L8.70711 14.7071C8.31658 15.0976 7.68342 15.0976 7.29289 14.7071C6.90237 14.3166 6.90237 13.6834 7.29289 13.2929L8.58579 12L7.29289 10.7071C6.90237 10.3166 6.90237 9.68342 7.29289 9.29289C7.68342 8.90237 8.31658 8.90237 8.70711 9.29289L10 10.5858L11.2929 9.29289C11.6834 8.90237 12.3166 8.90237 12.7071 9.29289Z" fill="#777B92"/>
</svg>
