<svg width="24" height="24" viewBox="0 0 24 24" fill="none" xmlns="http://www.w3.org/2000/svg">
<path fill-rule="evenodd" clip-rule="evenodd" d="M12.8375 4.31576C14.1613 3.37023 16 4.31648 16 5.94322V18.2769C16 19.8125 14.341 20.7752 13.0077 20.0133L7.73444 17H4C2.89543 17 2 16.1046 2 15V10C2 8.89546 2.89543 8.00003 4 8.00003H7.67953L12.8375 4.31576ZM14 5.94322L8.84201 9.6275C8.50281 9.86979 8.09638 10 7.67953 10H4V15H7.73444C8.08249 15 8.42452 15.0909 8.72671 15.2635L14 18.2769V5.94322ZM18.2179 5.37686C18.5621 4.94493 19.1912 4.87378 19.6232 5.21795C21.6734 6.85162 23 9.27261 23 12C23 14.7275 21.6734 17.1485 19.6232 18.7821C19.1912 19.1263 18.5621 19.0551 18.2179 18.6232C17.8737 18.1913 17.9449 17.5621 18.3768 17.218C20.006 15.9198 21 14.0514 21 12C21 9.94869 20.006 8.08023 18.3768 6.78212C17.9449 6.43795 17.8737 5.80879 18.2179 5.37686ZM18.7891 8.38578C18.4499 7.94997 17.8216 7.87168 17.3857 8.21093C16.9499 8.55017 16.8716 9.17848 17.2109 9.61429C17.6941 10.2351 18 11.0683 18 12C18 12.9318 17.6941 13.765 17.2109 14.3858C16.8716 14.8216 16.9499 15.4499 17.3857 15.7891C17.8216 16.1284 18.4499 16.0501 18.7891 15.6143C19.5506 14.636 20 13.3687 20 12C20 10.6313 19.5506 9.36406 18.7891 8.38578Z" fill="#777B92"/>
</svg>
