<svg width="16" height="16" viewBox="0 0 16 16" fill="none" xmlns="http://www.w3.org/2000/svg">
<path fill-rule="evenodd" clip-rule="evenodd" d="M8 15.5C4.41015 15.5 1.5 12.5899 1.5 9C1.5 6.7944 2.99783 4.67093 4.45151 3.15405C5.19069 2.38272 5.94603 1.73963 6.55242 1.28686C6.85516 1.06081 7.12628 0.878084 7.3442 0.749266C7.45242 0.685292 7.55494 0.630197 7.64623 0.589401C7.71259 0.559751 7.8511 0.5 8 0.5C8.1489 0.5 8.28741 0.559751 8.35377 0.589401C8.44506 0.630197 8.54758 0.685292 8.6558 0.749266C8.87372 0.878084 9.14484 1.06081 9.44758 1.28686C10.054 1.73963 10.8093 2.38272 11.5485 3.15405C13.0022 4.67093 14.5 6.7944 14.5 9C14.5 12.5899 11.5899 15.5 8 15.5ZM2.5 9C2.5 10.8601 3.42338 12.5045 4.83677 13.4999C4.62083 13.0453 4.5 12.5368 4.5 12C4.5 10.3581 5.18366 9.00241 5.91934 8.06609C6.28783 7.59711 6.67662 7.22371 7.01546 6.96306C7.18437 6.83313 7.34788 6.72581 7.49651 6.64837C7.62423 6.58183 7.80936 6.5 8 6.5C8.19064 6.5 8.37577 6.58183 8.50349 6.64837C8.65212 6.72581 8.81563 6.83313 8.98454 6.96306C9.32338 7.22371 9.71217 7.59711 10.0807 8.06609C10.8163 9.00241 11.5 10.3581 11.5 12C11.5 12.5368 11.3792 13.0453 11.1632 13.4999C12.5766 12.5045 13.5 10.8601 13.5 9C13.5 7.2056 12.2478 5.32907 10.8265 3.84595C10.1282 3.11728 9.41478 2.51037 8.84929 2.08814C8.56609 1.87669 8.3255 1.71567 8.14693 1.61011C8.08813 1.57535 8.03919 1.54847 8 1.5285C7.96081 1.54847 7.91187 1.57535 7.85307 1.61011C7.6745 1.71567 7.43391 1.87669 7.15071 2.08814C6.58522 2.51037 5.87181 3.11728 5.17349 3.84595C3.75217 5.32907 2.5 7.2056 2.5 9ZM8 14.5C9.38071 14.5 10.5 13.3807 10.5 12C10.5 10.6419 9.93366 9.49759 9.29434 8.68391C8.97533 8.27789 8.64537 7.96379 8.37483 7.75569C8.23905 7.65124 8.12522 7.57888 8.04143 7.53522C8.02521 7.52677 8.01144 7.52009 8 7.51484C7.98856 7.52009 7.97479 7.52677 7.95857 7.53522C7.87478 7.57888 7.76095 7.65124 7.62517 7.75569C7.35463 7.96379 7.02467 8.27789 6.70566 8.68391C6.06634 9.49759 5.5 10.6419 5.5 12C5.5 13.3807 6.61929 14.5 8 14.5Z" fill="#777B92"/>
</svg>
