<svg width="16" height="16" viewBox="0 0 16 16" fill="none" xmlns="http://www.w3.org/2000/svg">
<path fill-rule="evenodd" clip-rule="evenodd" d="M1.5 1C1.5 0.723858 1.72386 0.5 2 0.5H3C3.82843 0.5 4.5 1.17157 4.5 2V9.5C6.15685 9.5 7.5 10.8431 7.5 12.5L14 12.5C14.2761 12.5 14.5 12.7239 14.5 13C14.5 13.2761 14.2761 13.5 14 13.5L7.32929 13.5C6.91746 14.6652 5.80622 15.5 4.5 15.5C2.84315 15.5 1.5 14.1569 1.5 12.5C1.5 11.1938 2.33481 10.0825 3.5 9.67071V2C3.5 1.72386 3.27614 1.5 3 1.5H2C1.72386 1.5 1.5 1.27614 1.5 1ZM4.5 10.5C3.39543 10.5 2.5 11.3954 2.5 12.5C2.5 13.6046 3.39543 14.5 4.5 14.5C5.60457 14.5 6.5 13.6046 6.5 12.5C6.5 11.3954 5.60457 10.5 4.5 10.5Z" fill="#777B92"/>
<path fill-rule="evenodd" clip-rule="evenodd" d="M7.99928 1.5C7.99952 1.5 7.99904 1.5 7.99928 1.5L13 1.5C13.2761 1.5 13.5 1.72386 13.5 2V8.99082C13.5004 9.01227 13.4994 9.0337 13.497 9.05497C13.4915 9.10555 13.4784 9.15386 13.4589 9.19876C13.4241 9.2795 13.3674 9.35206 13.2907 9.40691C13.2 9.47166 13.0951 9.50181 12.9917 9.5H8C7.72386 9.5 7.5 9.27614 7.5 9V2C7.5 1.90565 7.52613 1.8174 7.57156 1.7421C7.59474 1.70355 7.62341 1.66772 7.65736 1.63585C7.73251 1.56512 7.82954 1.51739 7.93722 1.5039C7.95786 1.50131 7.97859 1.50001 7.99928 1.5ZM8.5 3.56022V8.5H12.0284L8.5 3.56022ZM12.5 7.43975V2.5H8.97161L12.5 7.43975Z" fill="#777B92"/>
</svg>
