<svg width="16" height="16" viewBox="0 0 16 16" fill="none" xmlns="http://www.w3.org/2000/svg">
<path fill-rule="evenodd" clip-rule="evenodd" d="M8 4C8.27614 4 8.5 4.22386 8.5 4.5V8.5C8.5 8.77614 8.27614 9 8 9C7.72386 9 7.5 8.77614 7.5 8.5V4.5C7.5 4.22386 7.72386 4 8 4Z" fill="#777B92"/>
<path fill-rule="evenodd" clip-rule="evenodd" d="M8 11C7.72386 11 7.5 10.7761 7.5 10.5C7.5 10.2239 7.72386 10 8 10C8.27614 10 8.5 10.2239 8.5 10.5C8.5 10.7761 8.27614 11 8 11Z" fill="#777B92"/>
<path fill-rule="evenodd" clip-rule="evenodd" d="M2.5 6C2.5 2.96243 4.96243 0.5 8 0.5C11.0376 0.5 13.5 2.96243 13.5 6C13.5 8.08952 12.6822 9.98972 11.7191 11.507C10.7542 13.0269 9.62186 14.1968 8.94044 14.8357C8.40692 15.3359 7.59308 15.3359 7.05956 14.8357C6.37814 14.1968 5.24576 13.0269 4.2809 11.507C3.31777 9.98972 2.5 8.08952 2.5 6ZM8 1.5C5.51472 1.5 3.5 3.51472 3.5 6C3.5 7.83109 4.21935 9.54408 5.12516 10.971C6.02926 12.3953 7.09765 13.5006 7.74356 14.1062C7.8924 14.2458 8.10759 14.2458 8.25644 14.1062C8.90235 13.5006 9.97074 12.3953 10.8748 10.971C11.7807 9.54408 12.5 7.83109 12.5 6C12.5 3.51472 10.4853 1.5 8 1.5Z" fill="#777B92"/>
</svg>
