<svg width="16" height="16" viewBox="0 0 16 16" fill="none" xmlns="http://www.w3.org/2000/svg">
<path fill-rule="evenodd" clip-rule="evenodd" d="M2 0.5H14C14.8284 0.5 15.5 1.17157 15.5 2V5C15.5 5.38418 15.3556 5.73462 15.1181 6C15.3556 6.26538 15.5 6.61582 15.5 7V9C15.5 9.82843 14.8284 10.5 14 10.5H2C1.72386 10.5 1.5 10.7239 1.5 11V14C1.5 14.2761 1.72386 14.5 2 14.5H9.5C9.77614 14.5 10 14.7239 10 15C10 15.2761 9.77614 15.5 9.5 15.5H2C1.17157 15.5 0.5 14.8284 0.5 14V11C0.5 10.6158 0.644427 10.2654 0.881947 10C0.644427 9.73462 0.5 9.38418 0.5 9V7C0.5 6.61582 0.644427 6.26538 0.881947 6C0.644427 5.73462 0.5 5.38418 0.5 5V2C0.5 1.17157 1.17157 0.5 2 0.5ZM14 9.5C14.2761 9.5 14.5 9.27614 14.5 9V7C14.5 6.72386 14.2761 6.5 14 6.5H2C1.72386 6.5 1.5 6.72386 1.5 7V9C1.5 9.27614 1.72386 9.5 2 9.5H14ZM1.5 2V5C1.5 5.27614 1.72386 5.5 2 5.5H14C14.2761 5.5 14.5 5.27614 14.5 5V2C14.5 1.72386 14.2761 1.5 14 1.5H2C1.72386 1.5 1.5 1.72386 1.5 2Z" fill="#777B92"/>
<path fill-rule="evenodd" clip-rule="evenodd" d="M15.3737 12.3322L12.707 15.3322C12.6122 15.4389 12.4762 15.5 12.3333 15.5C12.1905 15.5 12.0545 15.4389 11.9596 15.3322L10.6263 13.8322C10.4428 13.6258 10.4614 13.3098 10.6678 13.1263C10.8742 12.9428 11.1903 12.9614 11.3737 13.1678L12.3333 14.2474L14.6263 11.6678C14.8098 11.4614 15.1258 11.4428 15.3322 11.6263C15.5386 11.8098 15.5572 12.1258 15.3737 12.3322Z" fill="#777B92"/>
</svg>
