<svg width="16" height="16" viewBox="0 0 16 16" fill="none" xmlns="http://www.w3.org/2000/svg">
<path fill-rule="evenodd" clip-rule="evenodd" d="M5.5 4C5.5 4.02909 5.49752 4.0576 5.49275 4.08533C5.50699 4.16708 5.50104 4.25352 5.47142 4.33733C5.3794 4.59769 5.09374 4.73415 4.83338 4.64213C4.57337 4.55023 4.29309 4.5 4 4.5C2.61929 4.5 1.5 5.61929 1.5 7C1.5 8.38071 2.61929 9.5 4 9.5C4.27614 9.5 4.5 9.72386 4.5 10C4.5 10.2761 4.27614 10.5 4 10.5C2.067 10.5 0.5 8.933 0.5 7C0.5 5.067 2.067 3.5 4 3.5C4.17997 3.5 4.35697 3.51362 4.52997 3.53993C4.75522 1.82436 6.22295 0.5 8 0.5C9.77706 0.5 11.2448 1.82437 11.47 3.53996C11.6431 3.51363 11.8201 3.5 12.0001 3.5C13.9331 3.5 15.5001 5.067 15.5001 7C15.5001 8.933 13.9331 10.5 12.0001 10.5C11.724 10.5 11.5001 10.2761 11.5001 10C11.5001 9.72386 11.724 9.5 12.0001 9.5C13.3808 9.5 14.5001 8.38071 14.5001 7C14.5001 5.61929 13.3808 4.5 12.0001 4.5C11.707 4.5 11.4268 4.55023 11.1668 4.64213C10.9064 4.73415 10.6207 4.59769 10.5287 4.33733C10.4991 4.25365 10.4932 4.16736 10.5073 4.08572C10.5025 4.05787 10.5 4.02923 10.5 4C10.5 2.61929 9.38071 1.5 8 1.5C6.61929 1.5 5.5 2.61929 5.5 4Z" fill="#777B92"/>
<path fill-rule="evenodd" clip-rule="evenodd" d="M7 6.5C7.27614 6.5 7.5 6.72386 7.5 7V15C7.5 15.2761 7.27614 15.5 7 15.5C6.72386 15.5 6.5 15.2761 6.5 15V7C6.5 6.72386 6.72386 6.5 7 6.5Z" fill="#777B92"/>
<path fill-rule="evenodd" clip-rule="evenodd" d="M9 9.5C9.27614 9.5 9.5 9.72386 9.5 10V15C9.5 15.2761 9.27614 15.5 9 15.5C8.72386 15.5 8.5 15.2761 8.5 15V10C8.5 9.72386 8.72386 9.5 9 9.5Z" fill="#777B92"/>
</svg>
