<svg width="16" height="16" viewBox="0 0 16 16" fill="none" xmlns="http://www.w3.org/2000/svg">
<path fill-rule="evenodd" clip-rule="evenodd" d="M3.46669 0.820517L4.88188 4.5H11.1182L12.5333 0.820517C12.6116 0.616951 12.8128 0.487622 13.0305 0.50094C13.2482 0.514257 13.4322 0.667147 13.4851 0.878739L14.4825 4.86849C14.4843 4.87502 14.4859 4.8816 14.4875 4.88823L15.4851 8.87874C15.531 9.06247 15.4692 9.25638 15.3254 9.37963L8.32541 15.3796C8.13817 15.5401 7.86187 15.5401 7.67462 15.3796L0.674621 9.37963C0.530828 9.25638 0.469013 9.06247 0.514945 8.87874L1.51222 4.88964C1.51393 4.88206 1.51581 4.87455 1.51785 4.8671L2.51495 0.878739C2.56784 0.667147 2.75179 0.514257 2.96949 0.50094C3.18718 0.487622 3.38839 0.616951 3.46669 0.820517ZM3.81046 4.5L3.10134 2.65628L2.64041 4.5H3.81046ZM2.39041 5.5L1.56004 8.82148L7.39677 13.8244L4.19508 5.5H2.39041ZM5.26649 5.5L8.00002 12.6072L10.7335 5.5H5.26649ZM11.805 5.5L8.60327 13.8244L14.44 8.82148L13.6096 5.5H11.805ZM13.3596 4.5L12.8987 2.65628L12.1896 4.5H13.3596Z" fill="#777B92"/>
</svg>
