<svg width="16" height="16" viewBox="0 0 16 16" fill="none" xmlns="http://www.w3.org/2000/svg">
<path fill-rule="evenodd" clip-rule="evenodd" d="M5 0.5H9C9.27614 0.5 9.5 0.723858 9.5 1V5.5H12C12.2761 5.5 12.5 5.72386 12.5 6V8.5H15C15.2761 8.5 15.5 8.72386 15.5 9V12C15.5 12.2761 15.2761 12.5 15 12.5H12.5V15C12.5 15.2761 12.2761 15.5 12 15.5H1C0.723858 15.5 0.5 15.2761 0.5 15V11C0.5 10.7239 0.723858 10.5 1 10.5H3.4C3.43425 10.5 3.46769 10.5034 3.5 10.51V9.5H2C1.72386 9.5 1.5 9.27614 1.5 9C1.5 8.72386 1.72386 8.5 2 8.5H3.5V6C3.5 5.72386 3.72386 5.5 4 5.5H4.5V4C4.5 3.72386 4.72386 3.5 5 3.5C5.27614 3.5 5.5 3.72386 5.5 4V5.5H8.5V1.5H5C4.72386 1.5 4.5 1.27614 4.5 1C4.5 0.723858 4.72386 0.5 5 0.5ZM4.5 6.5V10.5H11.5V6.5H4.5ZM14.5 11.5V9.5H12.5V11.5H14.5ZM4.5 11.5V14.5H11.5V11.5H4.5ZM3.5 14.5V11.49C3.46769 11.4966 3.43425 11.5 3.4 11.5H1.5V14.5H3.5Z" fill="#777B92"/>
<path fill-rule="evenodd" clip-rule="evenodd" d="M12 4C11.4477 4 11 3.55228 11 3C11 2.44772 11.4477 2 12 2C12.5523 2 13 2.44772 13 3C13 3.55228 12.5523 4 12 4Z" fill="#777B92"/>
</svg>
