<svg width="16" height="16" viewBox="0 0 16 16" fill="none" xmlns="http://www.w3.org/2000/svg">
<path d="M8 10C7.44772 10 7 9.55228 7 9C7 8.44772 7.44772 8 8 8C8.55228 8 9 8.44772 9 9C9 9.55228 8.55228 10 8 10Z" fill="#777B92"/>
<path d="M8 5.5C9.933 5.5 11.5 7.067 11.5 9C11.5 10.933 9.933 12.5 8 12.5C6.067 12.5 4.5 10.933 4.5 9C4.5 7.067 6.067 5.5 8 5.5ZM5.5 9C5.5 10.3807 6.61929 11.5 8 11.5C9.38071 11.5 10.5 10.3807 10.5 9C10.5 7.61929 9.38071 6.5 8 6.5C6.61929 6.5 5.5 7.61929 5.5 9Z" fill="#777B92"/>
<path d="M0.5 2.86667C0.5 1.55959 1.55959 0.5 2.86667 0.5H13.1333C14.4404 0.5 15.5 1.55959 15.5 2.86667V8C15.5 12.1421 12.1421 15.5 8 15.5C3.85786 15.5 0.5 12.1421 0.5 8V2.86667ZM12.5 1.5H3.5V3.5H12.5V1.5ZM2.5 1.54975C1.92327 1.70998 1.5 2.23889 1.5 2.86667V8C1.5 11.5899 4.41015 14.5 8 14.5C11.5899 14.5 14.5 11.5899 14.5 8V2.86667C14.5 2.23889 14.0767 1.70998 13.5 1.54975V4C13.5 4.27614 13.2761 4.5 13 4.5H3C2.72386 4.5 2.5 4.27614 2.5 4V1.54975Z" fill="#777B92"/>
</svg>
