<svg width="16" height="16" viewBox="0 0 16 16" fill="none" xmlns="http://www.w3.org/2000/svg">
<path fill-rule="evenodd" clip-rule="evenodd" d="M10.3536 4.35355L8.35355 6.35355C8.15829 6.54882 7.84171 6.54882 7.64645 6.35355C7.45118 6.15829 7.45118 5.84171 7.64645 5.64645L9.64645 3.64645C9.84171 3.45118 10.1583 3.45118 10.3536 3.64645C10.5488 3.84171 10.5488 4.15829 10.3536 4.35355Z" fill="#777B92"/>
<path fill-rule="evenodd" clip-rule="evenodd" d="M13.5 6C13.5 8.86902 11.3033 11.225 8.5 11.4776V14.5H15C15.2761 14.5 15.5 14.7239 15.5 15C15.5 15.2761 15.2761 15.5 15 15.5H1C0.723858 15.5 0.5 15.2761 0.5 15C0.5 14.7239 0.723858 14.5 1 14.5H7.5V11.4776C4.69675 11.225 2.5 8.86902 2.5 6C2.5 2.96243 4.96243 0.5 8 0.5C11.0376 0.5 13.5 2.96243 13.5 6ZM3.5 6C3.5 8.48528 5.51472 10.5 8 10.5C10.4853 10.5 12.5 8.48528 12.5 6C12.5 3.51472 10.4853 1.5 8 1.5C5.51472 1.5 3.5 3.51472 3.5 6Z" fill="#777B92"/>
</svg>
