<svg width="16" height="16" viewBox="0 0 16 16" fill="none" xmlns="http://www.w3.org/2000/svg">
<path fill-rule="evenodd" clip-rule="evenodd" d="M8 10C7.44772 10 7 9.55228 7 9C7 8.44772 7.44772 8 8 8C8.55228 8 9 8.44772 9 9C9 9.55228 8.55228 10 8 10Z" fill="#777B92"/>
<path fill-rule="evenodd" clip-rule="evenodd" d="M8 14C7.44772 14 7 13.5523 7 13C7 12.4477 7.44772 12 8 12C8.55228 12 9 12.4477 9 13C9 13.5523 8.55228 14 8 14Z" fill="#777B92"/>
<path fill-rule="evenodd" clip-rule="evenodd" d="M11 11C11 11.5523 10.5523 12 10 12C9.44772 12 9 11.5523 9 11C9 10.4477 9.44772 10 10 10C10.5523 10 11 10.4477 11 11Z" fill="#777B92"/>
<path fill-rule="evenodd" clip-rule="evenodd" d="M6 12C5.44772 12 5 11.5523 5 11C5 10.4477 5.44772 10 6 10C6.55228 10 7 10.4477 7 11C7 11.5523 6.55228 12 6 12Z" fill="#777B92"/>
<path fill-rule="evenodd" clip-rule="evenodd" d="M0.5 6C0.5 4.4159 1.39976 3.02893 2.75963 2.0576C4.12046 1.08558 5.97481 0.5 8 0.5C10.0252 0.5 11.8795 1.08558 13.2404 2.0576C14.6002 3.02893 15.5 4.4159 15.5 6C15.5 7.8315 14.1201 9.36466 12.4493 10.3225C12.4827 10.5434 12.5 10.7697 12.5 11C12.5 11.9251 12.2209 12.785 11.7422 13.5H15C15.2761 13.5 15.5 13.7239 15.5 14C15.5 14.2761 15.2761 14.5 15 14.5H11C10.9495 14.5 10.9008 14.4925 10.8549 14.4786C10.0781 15.1169 9.08381 15.5 8 15.5C6.91619 15.5 5.92188 15.1169 5.14511 14.4786C5.09918 14.4925 5.05047 14.5 5 14.5H1C0.723858 14.5 0.5 14.2761 0.5 14C0.5 13.7239 0.723858 13.5 1 13.5H4.25777C3.77914 12.785 3.5 11.9251 3.5 11C3.5 10.7697 3.5173 10.5434 3.55068 10.3225C1.87988 9.36466 0.5 7.8315 0.5 6ZM3.34087 2.87133C2.16724 3.70964 1.5 4.82267 1.5 6C1.5 7.24429 2.4188 8.45287 3.82349 9.32145C4.48882 7.66756 6.10806 6.5 8 6.5C9.89194 6.5 11.5112 7.66756 12.1765 9.32145C13.5812 8.45287 14.5 7.24429 14.5 6C14.5 4.82267 13.8328 3.70964 12.6591 2.87133C11.4865 2.03371 9.8408 1.5 8 1.5C6.1592 1.5 4.51354 2.03371 3.34087 2.87133ZM4.5 11C4.5 12.933 6.067 14.5 8 14.5C9.933 14.5 11.5 12.933 11.5 11C11.5 9.067 9.933 7.5 8 7.5C6.067 7.5 4.5 9.067 4.5 11Z" fill="#777B92"/>
</svg>
