<svg width="16" height="16" viewBox="0 0 16 16" fill="none" xmlns="http://www.w3.org/2000/svg">
<path fill-rule="evenodd" clip-rule="evenodd" d="M9.23723 2.60737L9.44752 4.5L14 4.5C14.2761 4.5 14.5 4.72386 14.5 5C14.5 5.27614 14.2761 5.5 14 5.5L13 5.5V13.5H15C15.2761 13.5 15.5 13.7239 15.5 14C15.5 14.2761 15.2761 14.5 15 14.5H1C0.723858 14.5 0.5 14.2761 0.5 14C0.5 13.7239 0.723858 13.5 1 13.5H2.5V7.5H2C1.72386 7.5 1.5 7.27614 1.5 7V3C1.5 2.72386 1.72386 2.5 2 2.5H4C4.27614 2.5 4.5 2.72386 4.5 3V4.5L6.55248 4.5L6.76277 2.60737C6.83282 1.97694 7.36569 1.5 8 1.5C8.63431 1.5 9.16718 1.97694 9.23723 2.60737ZM7.75665 2.71781L7.55863 4.5L8.44137 4.5L8.24335 2.7178C8.22957 2.59381 8.12476 2.5 8 2.5C7.87524 2.5 7.77043 2.59381 7.75665 2.71781ZM12 13.5V5.5L9.55863 5.5L10.4475 13.5H12ZM5.55248 13.5L6.44137 5.5L4.5 5.5V7C4.5 7.27614 4.27614 7.5 4 7.5H3.5V13.5H5.55248ZM3.5 6.5V3.5H2.5V6.5H3.5ZM6.55863 13.5H9.44137L9.2747 12H6.7253L6.55863 13.5ZM7.05863 9L6.83641 11H9.16359L8.94137 9H7.05863ZM7.16974 8H8.83026L8.55248 5.5L7.44752 5.5L7.16974 8Z" fill="#777B92"/>
</svg>
