<svg width="16" height="16" viewBox="0 0 16 16" fill="none" xmlns="http://www.w3.org/2000/svg">
<path fill-rule="evenodd" clip-rule="evenodd" d="M6 7C5.44772 7 5 6.55228 5 6C5 5.44772 5.44772 5 6 5C6.55228 5 7 5.44772 7 6C7 6.55228 6.55228 7 6 7Z" fill="#777B92"/>
<path fill-rule="evenodd" clip-rule="evenodd" d="M6.5 1V2.5H10C11.933 2.5 13.5 4.067 13.5 6V8.5H15C15.2761 8.5 15.5 8.72386 15.5 9C15.5 9.27614 15.2761 9.5 15 9.5H13.5V12C13.5 12.2761 13.2761 12.5 13 12.5C12.7239 12.5 12.5 12.2761 12.5 12V9.5H10.5V10C10.5 10.2761 10.2761 10.5 10 10.5C9.72386 10.5 9.5 10.2761 9.5 10V9.5H3.5V12C3.5 12.2761 3.27614 12.5 3 12.5C2.72386 12.5 2.5 12.2761 2.5 12V9.5H1C0.723858 9.5 0.5 9.27614 0.5 9C0.5 8.72386 0.723858 8.5 1 8.5H2.5V6C2.5 4.23676 3.80385 2.77806 5.5 2.53544V1C5.5 0.723858 5.72386 0.5 6 0.5C6.27614 0.5 6.5 0.723858 6.5 1ZM10.5 7V8.5H12.5V6C12.5 4.61929 11.3807 3.5 10 3.5H6C4.61929 3.5 3.5 4.61929 3.5 6V8.5H9.5V7C9.5 6.72386 9.72386 6.5 10 6.5C10.2761 6.5 10.5 6.72386 10.5 7Z" fill="#777B92"/>
<path fill-rule="evenodd" clip-rule="evenodd" d="M5.5 15C5.5 14.7239 5.72386 14.5 6 14.5H13C13.2761 14.5 13.5 14.7239 13.5 15C13.5 15.2761 13.2761 15.5 13 15.5H6C5.72386 15.5 5.5 15.2761 5.5 15Z" fill="#777B92"/>
<path fill-rule="evenodd" clip-rule="evenodd" d="M6 11.5H7C7.27614 11.5 7.5 11.7239 7.5 12C7.5 12.2761 7.27614 12.5 7 12.5H6C5.72386 12.5 5.5 12.2761 5.5 12C5.5 11.7239 5.72386 11.5 6 11.5Z" fill="#777B92"/>
</svg>
