<svg width="16" height="16" viewBox="0 0 16 16" fill="none" xmlns="http://www.w3.org/2000/svg">
<path fill-rule="evenodd" clip-rule="evenodd" d="M2.50006 2.33333C2.50006 1.32081 3.32087 0.5 4.33339 0.5H11.6667C12.6792 0.5 13.5001 1.32081 13.5001 2.33333V9.99071C13.5002 9.99721 13.5002 10.0037 13.5001 10.0102V13.6667C13.5001 14.6792 12.6792 15.5 11.6667 15.5H4.33339C3.32087 15.5 2.50006 14.6792 2.50006 13.6667V8.00695C2.49998 8.002 2.49998 7.99704 2.50006 7.99208V2.33333ZM3.50006 8.88307V13.6667C3.50006 14.1269 3.87315 14.5 4.33339 14.5H11.6667C12.127 14.5 12.5001 14.1269 12.5001 13.6667V10.2831L11.0762 9.42874C10.2086 8.90822 9.12485 8.90822 8.25732 9.42874C7.07312 10.1393 5.5937 10.1393 4.40949 9.42874L3.50006 8.88307ZM12.5001 9.11688V5.3001C12.25 5.42791 11.9668 5.5 11.6667 5.5H4.33339C4.03331 5.5 3.75008 5.42791 3.50006 5.3001V7.71688L4.92399 8.57124C5.79151 9.09176 6.8753 9.09176 7.74283 8.57124C8.92704 7.86072 10.4064 7.86072 11.5907 8.57124L12.5001 9.11688ZM12.5001 2.33333C12.5001 1.8731 12.127 1.5 11.6667 1.5H4.33339C3.87315 1.5 3.50006 1.8731 3.50006 2.33333V3.66667C3.50006 4.1269 3.87315 4.5 4.33339 4.5H11.6667C12.127 4.5 12.5001 4.1269 12.5001 3.66667V2.33333Z" fill="#777B92"/>
</svg>
