<svg width="16" height="16" viewBox="0 0 16 16" fill="none" xmlns="http://www.w3.org/2000/svg">
<path fill-rule="evenodd" clip-rule="evenodd" d="M9 0.5H11C11.2761 0.5 11.5 0.723858 11.5 1C11.5 1.27614 11.2761 1.5 11 1.5H10.5V4.5H10.9997C11.2565 4.5 11.4716 4.69465 11.4972 4.95025L11.7521 7.5H14C14.8284 7.5 15.5 8.17157 15.5 9V13C15.5 13.8284 14.8284 14.5 14 14.5H12.3095C12.1046 15.0783 11.553 15.5 10.8947 15.5H9.10464C8.44627 15.5 7.89467 15.0783 7.68984 14.5H6C5.17157 14.5 4.5 13.8284 4.5 13V11.5H2C1.17157 11.5 0.5 10.8284 0.5 10V8C0.5 7.72386 0.723858 7.5 1 7.5C1.27614 7.5 1.5 7.72386 1.5 8L1.5 10C1.5 10.2761 1.72386 10.5 2 10.5H4.5V9C4.5 8.17157 5.17157 7.5 6 7.5H8.24716L8.50213 4.95025C8.52769 4.69465 8.74277 4.5 8.99965 4.5H9.5V1.5H9C8.72386 1.5 8.5 1.27614 8.5 1C8.5 0.723858 8.72386 0.5 9 0.5ZM11.8521 8.5L12.3521 13.5H14C14.2761 13.5 14.5 13.2761 14.5 13V9C14.5 8.72386 14.2761 8.5 14 8.5H11.8521ZM6 8.5C5.72386 8.5 5.5 8.72386 5.5 9V10.5H7.94716L8.14716 8.5H6ZM5.5 13C5.5 13.2761 5.72386 13.5 6 13.5H7.64716L7.84716 11.5H5.5V13ZM9.45214 5.5L8.60712 13.9502C8.57769 14.2446 8.80883 14.5 9.10464 14.5H10.8947C11.1905 14.5 11.4216 14.2446 11.3922 13.9502L10.5472 5.5H9.45214Z" fill="#777B92"/>
<path fill-rule="evenodd" clip-rule="evenodd" d="M4 6C4 6.55228 3.55228 7 3 7C2.44772 7 2 6.55228 2 6C2 5.44772 2.44772 5 3 5C3.55228 5 4 5.44772 4 6Z" fill="#777B92"/>
<path fill-rule="evenodd" clip-rule="evenodd" d="M6 4C5.44772 4 5 3.55228 5 3C5 2.44772 5.44772 2 6 2C6.55228 2 7 2.44772 7 3C7 3.55228 6.55228 4 6 4Z" fill="#777B92"/>
</svg>
