<svg width="16" height="16" viewBox="0 0 16 16" fill="none" xmlns="http://www.w3.org/2000/svg">
<path fill-rule="evenodd" clip-rule="evenodd" d="M0.5 13C0.223858 13 0 12.7761 0 12.5C0 12.2239 0.223858 12 0.5 12H1.5V5.89286L2 5.89286C1.5 5.89286 1.5 5.89181 1.5 5.89181L1.5 5.89069L1.50002 5.88825L1.50009 5.88253L1.50046 5.86784C1.50084 5.85662 1.5015 5.84258 1.50266 5.82588C1.50496 5.79251 1.50924 5.74847 1.51712 5.69528C1.53287 5.58897 1.56312 5.44548 1.62119 5.27749C1.73803 4.93949 1.96561 4.50821 2.40293 4.08651C2.93576 3.57271 3.75249 3.09784 5 2.80411V1.5C5 1.22386 5.22386 1 5.5 1C5.77614 1 6 1.22386 6 1.5V2.62249C6.5885 2.54388 7.25201 2.5 8 2.5C11.0726 2.5 12.7197 3.24048 13.5971 4.08651C14.0344 4.50821 14.262 4.93949 14.3788 5.27749C14.4369 5.44549 14.4671 5.58897 14.4829 5.69528C14.4908 5.74847 14.495 5.79251 14.4973 5.82588C14.4985 5.84258 14.4992 5.85663 14.4995 5.86784L14.4999 5.88253L14.5 5.88825L14.5 5.89069L14.5 5.89181C14.5 5.89181 14.5 5.89286 14.0021 5.89286H14.5V12H15.5C15.7761 12 16 12.2239 16 12.5C16 12.7761 15.7761 13 15.5 13H0.5ZM2.5 7.04679C3.03382 6.55226 3.82676 6.10074 5 5.81488V3.83504C4.03214 4.09524 3.44837 4.4676 3.09707 4.80635C2.78439 5.10786 2.63697 5.3998 2.56631 5.6042C2.53063 5.70742 2.51401 5.78994 2.50632 5.84183C2.50248 5.86774 2.5009 5.88585 2.50027 5.89485L2.5 5.89926V7.04679ZM2.5 9.00611V12H5L5 6.84811C4.03636 7.11747 3.45458 7.50252 3.10355 7.85355C2.78964 8.16747 2.64022 8.47297 2.56809 8.68936C2.53174 8.79843 2.51466 8.88605 2.50669 8.9418C2.50272 8.96964 2.50104 8.98935 2.50036 8.99957L2.5 9.00611ZM6 6.63704L6 12H13.5V9.0061L13.4996 8.99957C13.499 8.98935 13.4973 8.96964 13.4933 8.9418C13.4853 8.88604 13.4683 8.79843 13.4319 8.68936C13.3598 8.47297 13.2104 8.16747 12.8964 7.85355C12.2733 7.23039 10.9229 6.5 8 6.5C7.22912 6.5 6.56762 6.5508 6 6.63704ZM13.5 7.04679V5.89926L13.4997 5.89485C13.4991 5.88585 13.4975 5.86774 13.4937 5.84183C13.486 5.78994 13.4694 5.70742 13.4337 5.6042C13.363 5.3998 13.2156 5.10786 12.9029 4.80635C12.2803 4.20595 10.9274 3.5 8 3.5C7.22935 3.5 6.56782 3.54892 6 3.63197V5.62687C6.58862 5.54546 7.25215 5.5 8 5.5C10.9599 5.5 12.599 6.21212 13.5 7.04679Z" fill="#777B92"/>
</svg>
