<svg width="16" height="16" viewBox="0 0 16 16" fill="none" xmlns="http://www.w3.org/2000/svg">
<path fill-rule="evenodd" clip-rule="evenodd" d="M4 0.5H11C11.8284 0.5 12.5 1.17157 12.5 2V14.5H15C15.2761 14.5 15.5 14.7239 15.5 15C15.5 15.2761 15.2761 15.5 15 15.5H1C0.723858 15.5 0.5 15.2761 0.5 15C0.5 14.7239 0.723858 14.5 1 14.5H2.5V2C2.5 1.17157 3.17157 0.5 4 0.5ZM11.5 3.5V2C11.5 1.72386 11.2761 1.5 11 1.5H4C3.72386 1.5 3.5 1.72386 3.5 2V3.5L11.5 3.5ZM3.5 4.5V8.5L11.5 8.5V4.5L3.5 4.5ZM3.5 14.5H11.5V9.5L3.5 9.5V14.5Z" fill="#777B92"/>
<path fill-rule="evenodd" clip-rule="evenodd" d="M14.5 4V12C14.5 12.2761 14.2761 12.5 14 12.5C13.7239 12.5 13.5 12.2761 13.5 12V4C13.5 3.72386 13.7239 3.5 14 3.5C14.2761 3.5 14.5 3.72386 14.5 4Z" fill="#777B92"/>
</svg>
