<svg width="16" height="16" viewBox="0 0 16 16" fill="none" xmlns="http://www.w3.org/2000/svg">
<path fill-rule="evenodd" clip-rule="evenodd" d="M2.65043 2.64251C2.65022 2.64271 2.65063 2.64231 2.65043 2.64251C4.00863 1.3101 5.96301 0.5 8 0.5C8.27614 0.5 8.5 0.723858 8.5 1V5.55001C8.81919 5.6148 9.11629 5.7404 9.37869 5.9142L12.6464 2.64645C12.8417 2.45118 13.1583 2.45118 13.3536 2.64645C13.3597 2.65256 13.3656 2.65879 13.3713 2.66513C13.3778 2.67101 13.3841 2.67709 13.3903 2.68337C14.7262 4.03708 15.4881 5.92894 15.4999 7.95254C15.4999 7.96049 15.4998 7.96841 15.4994 7.97627C15.4998 7.98414 15.5 7.99205 15.5 8C15.5 8.27614 15.2761 8.5 15 8.5H10.45C10.3852 8.81919 10.2596 9.11629 10.0858 9.37869L13.3028 12.5957C13.3113 12.6042 13.3195 12.613 13.3273 12.622C13.3353 12.6289 13.3431 12.6361 13.3508 12.6437C13.5476 12.8374 13.55 13.154 13.3563 13.3508C11.9846 14.7443 10.0749 15.5 8 15.5C7.72386 15.5 7.5 15.2761 7.5 15V10.45C7.18081 10.3852 6.88371 10.2596 6.6213 10.0858L3.41605 13.2911C3.40552 13.3016 3.39463 13.3116 3.38343 13.3209C3.37433 13.3318 3.3647 13.3424 3.35453 13.3526C3.15981 13.5484 2.84323 13.5493 2.64743 13.3545C1.27188 11.9866 0.5 10.0639 0.5 8C0.5 7.72386 0.723858 7.5 1 7.5H5.55001C5.6148 7.18081 5.7404 6.88371 5.9142 6.6213L2.64706 3.35417C2.64727 3.35438 2.64686 3.35397 2.64706 3.35417M3.72563 3.01852L6.6213 5.9142C6.88371 5.7404 7.18081 5.6148 7.5 5.55001V1.51865C6.0845 1.62418 4.74773 2.17204 3.72563 3.01852ZM5.9142 9.37869C5.7404 9.11629 5.6148 8.81919 5.55001 8.5H1.51729C1.61736 9.94018 2.14823 11.2593 3.01392 12.279L5.9142 9.37869ZM9.37869 10.0858C9.11629 10.2596 8.81919 10.3852 8.5 10.45V14.4833C9.95063 14.3855 11.2623 13.8618 12.2809 12.988L9.37869 10.0858ZM10.0858 6.6213C10.2596 6.88371 10.3852 7.18081 10.45 7.5H14.4825C14.3817 6.06337 13.8483 4.74168 12.9854 3.72168L10.0858 6.6213ZM8 9.5C8.82843 9.5 9.5 8.82843 9.5 8C9.5 7.17157 8.82843 6.5 8 6.5C7.17157 6.5 6.5 7.17157 6.5 8C6.5 8.82843 7.17157 9.5 8 9.5Z" fill="#777B92"/>
<path d="M2.64706 3.35417C2.64595 3.35306 2.64422 3.35132 2.64312 3.35019C2.45082 3.15422 2.45268 2.84014 2.64645 2.64645" fill="#777B92"/>
</svg>
