<svg width="16" height="16" viewBox="0 0 16 16" fill="none" xmlns="http://www.w3.org/2000/svg">
<path fill-rule="evenodd" clip-rule="evenodd" d="M10 6.5H13C13.2761 6.5 13.5 6.72386 13.5 7V10C13.5 10.2761 13.2761 10.5 13 10.5H10C9.72386 10.5 9.5 10.2761 9.5 10V7C9.5 6.72386 9.72386 6.5 10 6.5ZM10.5 9.5H12.5V7.5H10.5V9.5Z" fill="#777B92"/>
<path fill-rule="evenodd" clip-rule="evenodd" d="M4.5 8V10C4.5 10.2761 4.27614 10.5 4 10.5C3.72386 10.5 3.5 10.2761 3.5 10V8C3.5 7.72386 3.72386 7.5 4 7.5C4.27614 7.5 4.5 7.72386 4.5 8Z" fill="#777B92"/>
<path fill-rule="evenodd" clip-rule="evenodd" d="M5 4C5 4.55228 4.55228 5 4 5C3.44772 5 3 4.55228 3 4C3 3.44772 3.44772 3 4 3C4.55228 3 5 3.44772 5 4Z" fill="#777B92"/>
<path fill-rule="evenodd" clip-rule="evenodd" d="M7 5C6.44772 5 6 4.55228 6 4C6 3.44772 6.44772 3 7 3C7.55228 3 8 3.44772 8 4C8 4.55228 7.55228 5 7 5Z" fill="#777B92"/>
<path fill-rule="evenodd" clip-rule="evenodd" d="M3 0.5H13C14.3807 0.5 15.5 1.61929 15.5 3V11C15.5 11.8284 14.8284 12.5 14 12.5H2C1.17157 12.5 0.5 11.8284 0.5 11V3C0.5 1.61929 1.61929 0.5 3 0.5ZM1.5 3V11C1.5 11.2761 1.72386 11.5 2 11.5H14C14.2761 11.5 14.5 11.2761 14.5 11V3C14.5 2.17157 13.8284 1.5 13 1.5H3C2.17157 1.5 1.5 2.17157 1.5 3Z" fill="#777B92"/>
<path fill-rule="evenodd" clip-rule="evenodd" d="M0.5 15C0.5 14.7239 0.723858 14.5 1 14.5H15C15.2761 14.5 15.5 14.7239 15.5 15C15.5 15.2761 15.2761 15.5 15 15.5H1C0.723858 15.5 0.5 15.2761 0.5 15Z" fill="#777B92"/>
</svg>
