<svg width="16" height="16" viewBox="0 0 16 16" fill="none" xmlns="http://www.w3.org/2000/svg">
<path fill-rule="evenodd" clip-rule="evenodd" d="M4.5 1C4.5 0.723858 4.72386 0.5 5 0.5H11C11.2761 0.5 11.5 0.723858 11.5 1C11.5 1.27614 11.2761 1.5 11 1.5H10.5V5.18327C12.2723 6.08154 13.5 7.85335 13.5 10.0001C13.5 13.0377 11.0376 15.5001 8 15.5001C4.96243 15.5001 2.5 13.0377 2.5 10.0001C2.5 7.85335 3.7277 6.08154 5.5 5.18327V1.5H5C4.72386 1.5 4.5 1.27614 4.5 1ZM6.5 1.5V5.48866C6.50203 5.57861 6.47957 5.66699 6.43629 5.74442C6.38726 5.83214 6.3115 5.90582 6.21436 5.95185C6.2087 5.95454 6.20297 5.95713 6.19719 5.95961C4.74698 6.5944 3.70762 7.89447 3.52774 9.5H12.4723C12.2924 7.89448 11.253 6.59441 9.80282 5.95962C9.79703 5.95713 9.79131 5.95454 9.78564 5.95185C9.63316 5.8796 9.53338 5.73922 9.50692 5.58336C9.50164 5.55227 9.49928 5.52056 9.5 5.48865V1.5H6.5ZM3.52745 10.5C3.77613 12.75 5.68369 14.5001 8 14.5001C10.3163 14.5001 12.2239 12.75 12.4725 10.5H3.52745Z" fill="#777B92"/>
</svg>
