<svg width="16" height="16" viewBox="0 0 16 16" fill="none" xmlns="http://www.w3.org/2000/svg">
<path fill-rule="evenodd" clip-rule="evenodd" d="M7.5 5.79289L8.79289 4.5L7.64645 3.35355C7.45118 3.15829 7.45118 2.84171 7.64645 2.64645L9.64645 0.646446C9.84171 0.451185 10.1583 0.451185 10.3536 0.646446L15.3536 5.64645C15.5488 5.84171 15.5488 6.15829 15.3536 6.35355L13.3536 8.35355C13.1583 8.54882 12.8417 8.54882 12.6464 8.35355L11.5 7.20711L10.2071 8.5L13.3536 11.6464C13.4084 11.7013 13.4498 11.7682 13.4743 11.8419L14.4743 14.8419C14.5342 15.0216 14.4875 15.2196 14.3536 15.3536C14.2196 15.4875 14.0216 15.5342 13.8419 15.4743L10.8419 14.4743C10.7682 14.4498 10.7013 14.4084 10.6464 14.3536L7.5 11.2071L3.35355 15.3536C3.15829 15.5488 2.84171 15.5488 2.64645 15.3536L0.646447 13.3536C0.451184 13.1583 0.451184 12.8417 0.646447 12.6464L4.79289 8.5L2.64645 6.35355C2.64647 6.35358 2.64642 6.35353 2.64645 6.35355L0.646447 4.35355C0.451185 4.15829 0.451185 3.84171 0.646447 3.64645L2.64645 1.64645C2.84171 1.45118 3.15829 1.45118 3.35355 1.64645L7.5 5.79289ZM5 4.70711L3.70711 6L11.2701 13.563L13.2094 14.2094L12.563 12.2701L5 4.70711ZM3 5.29289L4.29289 4L3 2.70711L1.70711 4L3 5.29289ZM10.7929 6.5L9.5 5.20711L8.20711 6.5L9.5 7.79289L10.7929 6.5ZM8.70711 3L13 7.29289L14.2929 6L10 1.70711L8.70711 3ZM6.79289 10.5L5.5 9.20711L1.70711 13L3 14.2929L6.79289 10.5Z" fill="#777B92"/>
</svg>
