<svg width="16" height="16" viewBox="0 0 16 16" fill="none" xmlns="http://www.w3.org/2000/svg">
<path fill-rule="evenodd" clip-rule="evenodd" d="M3.5 7C3.5 6.72386 3.72386 6.5 4 6.5H12C12.2761 6.5 12.5 6.72386 12.5 7C12.5 7.27614 12.2761 7.5 12 7.5H4C3.72386 7.5 3.5 7.27614 3.5 7Z" fill="#777B92"/>
<path fill-rule="evenodd" clip-rule="evenodd" d="M13.5 1.5H13C12.7239 1.5 12.5 1.27614 12.5 1C12.5 0.723858 12.7239 0.5 13 0.5H15C15.2761 0.5 15.5 0.723858 15.5 1C15.5 1.27614 15.2761 1.5 15 1.5H14.5V3.5H15C15.2761 3.5 15.5 3.72386 15.5 4V11C15.5 11.8284 14.8284 12.5 14 12.5H2C1.17157 12.5 0.5 11.8284 0.5 11V2C0.5 1.17157 1.17157 0.5 2 0.5H4C4.82843 0.5 5.5 1.17157 5.5 2V3.4C5.5 3.43425 5.49656 3.46769 5.49 3.5H7.5V2C7.5 1.72386 7.72386 1.5 8 1.5C8.27614 1.5 8.5 1.72386 8.5 2V3.5H10.5V2C10.5 1.72386 10.7239 1.5 11 1.5C11.2761 1.5 11.5 1.72386 11.5 2V3.5H13.5V1.5ZM1.5 3.5H4.51C4.50344 3.46769 4.5 3.43425 4.5 3.4V2C4.5 1.72386 4.27614 1.5 4 1.5H2C1.72386 1.5 1.5 1.72386 1.5 2V3.5ZM14.5 4.5H1.5V11C1.5 11.2761 1.72386 11.5 2 11.5H14C14.2761 11.5 14.5 11.2761 14.5 11V4.5Z" fill="#777B92"/>
<path fill-rule="evenodd" clip-rule="evenodd" d="M1 14.5H15C15.2761 14.5 15.5 14.7239 15.5 15C15.5 15.2761 15.2761 15.5 15 15.5H1C0.723858 15.5 0.5 15.2761 0.5 15C0.5 14.7239 0.723858 14.5 1 14.5Z" fill="#777B92"/>
</svg>
