<svg width="16" height="16" viewBox="0 0 16 16" fill="none" xmlns="http://www.w3.org/2000/svg">
<path fill-rule="evenodd" clip-rule="evenodd" d="M10 0.5H11.1327C11.8792 0.5 12.5121 1.04889 12.6176 1.78787L14.4336 14.5H15C15.2761 14.5 15.5 14.7239 15.5 15C15.5 15.2761 15.2761 15.5 15 15.5H14.0073C14.002 15.5001 13.9967 15.5001 13.9914 15.5L1 15.5C0.723858 15.5 0.5 15.2761 0.5 15C0.5 14.7239 0.723858 14.5 1 14.5H1.5V11C1.5 10.3469 1.9174 9.79127 2.5 9.58535V6C2.5 5.17157 3.17157 4.5 4 4.5H5.5V3C5.5 2.72386 5.72386 2.5 6 2.5C6.27614 2.5 6.5 2.72386 6.5 3V4.5H8.5V2C8.5 1.17157 9.17157 0.5 10 0.5ZM13.4235 14.5L12.5664 8.5H9.5V14.5H13.4235ZM8.5 14.5V10.5H3C2.72386 10.5 2.5 10.7239 2.5 11V14.5H4.5V13C4.5 12.7239 4.72386 12.5 5 12.5C5.27614 12.5 5.5 12.7239 5.5 13V14.5L8.5 14.5ZM12.4235 7.5L12.1378 5.5H9.5V7.5H12.4235ZM8.5 5.5H4C3.72386 5.5 3.5 5.72386 3.5 6V9.5H8.5V5.5ZM11.9949 4.5L11.6277 1.92929C11.5925 1.68296 11.3815 1.5 11.1327 1.5H10C9.72386 1.5 9.5 1.72386 9.5 2V4.5H11.9949Z" fill="#777B92"/>
</svg>
