<svg width="16" height="16" viewBox="0 0 16 16" fill="none" xmlns="http://www.w3.org/2000/svg">
<path fill-rule="evenodd" clip-rule="evenodd" d="M4.61803 0.5H11C11.8284 0.5 12.5 1.17157 12.5 2V3.5H14C14.8284 3.5 15.5 4.17157 15.5 5V9C15.5 9.82843 14.8284 10.5 14 10.5H12.5V15C12.5 15.2761 12.2761 15.5 12 15.5C11.7239 15.5 11.5 15.2761 11.5 15V13.5H8.5V15C8.5 15.2761 8.27614 15.5 8 15.5C7.72386 15.5 7.5 15.2761 7.5 15V13.5H4.5V15C4.5 15.2761 4.27614 15.5 4 15.5C3.72386 15.5 3.5 15.2761 3.5 15V10.5H1C0.723858 10.5 0.5 10.2761 0.5 10V7.23607C0.5 7.0032 0.554218 6.77353 0.658359 6.56525L3.27639 1.32918C3.53048 0.821003 4.04988 0.5 4.61803 0.5ZM1.5 9.5H3.5V3.11803L1.55279 7.01246C1.51807 7.08189 1.5 7.15845 1.5 7.23607V9.5ZM4.5 4.5V12.5H11.5V4.5H4.5ZM4.5 1.51411V3.5H11.5V2C11.5 1.72386 11.2761 1.5 11 1.5H4.61803C4.57772 1.5 4.53814 1.50485 4.5 1.51411ZM12.5 9.5H14C14.2761 9.5 14.5 9.27614 14.5 9V5C14.5 4.72386 14.2761 4.5 14 4.5H12.5V9.5Z" fill="#777B92"/>
</svg>
