<svg width="16" height="16" viewBox="0 0 16 16" fill="none" xmlns="http://www.w3.org/2000/svg">
<path fill-rule="evenodd" clip-rule="evenodd" d="M4.5 0.999268C4.5 0.723125 4.72386 0.499268 5 0.499268H11C11.2761 0.499268 11.5 0.723125 11.5 0.999268V4.49927H15C15.2761 4.49927 15.5 4.72313 15.5 4.99927V10.9993C15.5 11.2754 15.2761 11.4993 15 11.4993H11.5V15.0001C11.5 15.2762 11.2761 15.5001 11 15.5001H5C4.72386 15.5001 4.5 15.2762 4.5 15.0001V11.4993H1C0.723858 11.4993 0.5 11.2754 0.5 10.9993V4.99927C0.5 4.72313 0.723858 4.49927 1 4.49927H4.5V0.999268ZM5.5 1.49927V4.99927C5.5 5.27541 5.27614 5.49927 5 5.49927H1.5V10.4993H5C5.27614 10.4993 5.5 10.7231 5.5 10.9993V14.5001H10.5V10.9993C10.5 10.7231 10.7239 10.4993 11 10.4993H14.5V5.49927H11C10.7239 5.49927 10.5 5.27541 10.5 4.99927V1.49927H5.5Z" fill="#777B92"/>
</svg>
