<svg width="16" height="16" viewBox="0 0 16 16" fill="none" xmlns="http://www.w3.org/2000/svg">
<path fill-rule="evenodd" clip-rule="evenodd" d="M0.5 3C0.5 1.61929 1.61929 0.5 3 0.5H5C6.38071 0.5 7.5 1.61929 7.5 3V3.5H8.5V3C8.5 1.61929 9.61929 0.5 11 0.5H13C14.3807 0.5 15.5 1.61929 15.5 3V14C15.5 14.8284 14.8284 15.5 14 15.5H10C9.17157 15.5 8.5 14.8284 8.5 14V12.5H7.5V14C7.5 14.8284 6.82843 15.5 6 15.5H2C1.17157 15.5 0.5 14.8284 0.5 14V3ZM8.5 4.5H7.5V7.5H8.5V4.5ZM6.5 3C6.5 2.17157 5.82843 1.5 5 1.5H3C2.17157 1.5 1.5 2.17157 1.5 3V11.5H6.5V3ZM8.5 8.5H7.5V11.5H8.5V8.5ZM9.5 11.5H14.5V3C14.5 2.17157 13.8284 1.5 13 1.5H11C10.1716 1.5 9.5 2.17157 9.5 3V11.5ZM1.5 12.5V14C1.5 14.2761 1.72386 14.5 2 14.5H6C6.27614 14.5 6.5 14.2761 6.5 14V12.5H1.5ZM9.5 12.5V14C9.5 14.2761 9.72386 14.5 10 14.5H14C14.2761 14.5 14.5 14.2761 14.5 14V12.5H9.5Z" fill="#777B92"/>
</svg>
