<svg width="16" height="16" viewBox="0 0 16 16" fill="none" xmlns="http://www.w3.org/2000/svg">
<path fill-rule="evenodd" clip-rule="evenodd" d="M5.49991 1.5H5C4.72386 1.5 4.5 1.27614 4.5 1C4.5 0.723858 4.72386 0.5 5 0.5H11C11.2761 0.5 11.5 0.723858 11.5 1C11.5 1.27614 11.2761 1.5 11 1.5H10.4999V5.87044L14.6116 13.2715C15.1671 14.2713 14.4441 15.5 13.3004 15.5H2.69942C1.5557 15.5 0.832745 14.2713 1.38819 13.2715L5.49991 5.87044V1.5ZM6.49991 1.5V6C6.49991 6.08497 6.47825 6.16854 6.43699 6.24282L2.26234 13.7572C2.0772 14.0904 2.31818 14.5 2.69942 14.5H13.3004C13.6816 14.5 13.9226 14.0904 13.7375 13.7572L9.56283 6.24282C9.52156 6.16854 9.49991 6.08497 9.49991 6V1.5H6.49991Z" fill="#777B92"/>
</svg>
