<svg width="16" height="16" viewBox="0 0 16 16" fill="none" xmlns="http://www.w3.org/2000/svg">
<path fill-rule="evenodd" clip-rule="evenodd" d="M7.23954 3.25952C7.18201 3.41397 7.05207 3.53015 6.89217 3.57009C6.73227 3.61004 6.56295 3.56862 6.43955 3.45937C6.23341 3.27688 5.96352 3.16667 5.66667 3.16667C5.02234 3.16667 4.5 3.689 4.5 4.33333C4.5 4.97767 5.02234 5.5 5.66667 5.5C6.167 5.5 6.59497 5.18481 6.76047 4.74048C6.81799 4.58603 6.94793 4.46985 7.10783 4.42991C7.26773 4.38996 7.43705 4.43138 7.56045 4.54063C7.76659 4.72312 8.03648 4.83333 8.33333 4.83333C8.42037 4.83333 8.50462 4.82389 8.58531 4.80616C8.85503 4.7469 9.12171 4.91751 9.18096 5.18722C9.24022 5.45693 9.06961 5.72361 8.7999 5.78286C8.64918 5.81598 8.49299 5.83333 8.33333 5.83333C8.00178 5.83333 7.68724 5.75863 7.40603 5.62529C7.01139 6.15581 6.37959 6.5 5.66667 6.5C4.47005 6.5 3.5 5.52995 3.5 4.33333C3.5 3.13672 4.47005 2.16667 5.66667 2.16667C5.99822 2.16667 6.31276 2.24137 6.59397 2.37471C6.98861 1.84419 7.62041 1.5 8.33333 1.5C9.23493 1.5 10.0072 2.05033 10.3338 2.83333C11.5302 2.83358 12.5 3.80354 12.5 5C12.5 5.27614 12.2761 5.5 12 5.5C11.7239 5.5 11.5 5.27614 11.5 5C11.5 4.35567 10.9777 3.83333 10.3333 3.83333C10.2463 3.83333 10.1621 3.84278 10.0814 3.86051C9.94846 3.88971 9.80941 3.86348 9.69628 3.78789C9.58315 3.7123 9.50571 3.59387 9.48182 3.45992C9.38453 2.91425 8.9068 2.5 8.33333 2.5C7.833 2.5 7.40503 2.81519 7.23954 3.25952Z" fill="#777B92"/>
<path fill-rule="evenodd" clip-rule="evenodd" d="M2.83334 8C2.83334 7.72386 3.05719 7.5 3.33334 7.5H4.11111C4.38726 7.5 4.61111 7.72386 4.61111 8C4.61111 8.27614 4.38726 8.5 4.11111 8.5H3.83334V9.55556C3.83334 9.62327 3.81958 9.69028 3.79291 9.75251L1.75827 14.5H3.67398L5.9 9.45024V8C5.9 7.72386 6.12386 7.5 6.4 7.5H8C8.27614 7.5 8.5 7.72386 8.5 8C8.5 8.27614 8.27614 8.5 8 8.5H6.9V9.55556C6.9 9.625 6.88553 9.69369 6.85752 9.75724L4.76683 14.5H7.67031L9.83334 9.45293V8C9.83334 7.72386 10.0572 7.5 10.3333 7.5H12.6667C12.9428 7.5 13.1667 7.72386 13.1667 8V9.45293L15.4553 14.793C15.4702 14.8257 15.4817 14.8603 15.4893 14.8964C15.502 14.9565 15.5033 15.0173 15.4943 15.0759C15.4833 15.1477 15.4571 15.2144 15.4191 15.2728C15.3796 15.3336 15.3265 15.3864 15.2619 15.426C15.2139 15.4556 15.1605 15.4773 15.1036 15.4893C15.0654 15.4974 15.027 15.5009 14.9889 15.5H8.01106C8.00355 15.5002 7.99602 15.5002 7.98848 15.5H4.01091C4.00347 15.5002 3.99602 15.5002 3.98856 15.5H1C0.83193 15.5 0.675103 15.4156 0.582581 15.2752C0.490059 15.1349 0.474223 14.9575 0.540429 14.803L2.83334 9.45293V8ZM14.2417 14.5L12.2071 9.75251C12.1804 9.69028 12.1667 9.62327 12.1667 9.55556V8.5H10.8333V9.55556C10.8333 9.62327 10.8196 9.69028 10.7929 9.75251L8.75827 14.5H14.2417Z" fill="#777B92"/>
</svg>
