<svg width="16" height="16" viewBox="0 0 16 16" fill="none" xmlns="http://www.w3.org/2000/svg">
<path fill-rule="evenodd" clip-rule="evenodd" d="M12.2774 1.58403C12.5072 1.7372 12.5693 2.04764 12.4161 2.2774L10.9343 4.5H13C13.2761 4.5 13.5 4.72386 13.5 5C13.5 5.27614 13.2761 5.5 13 5.5H10.2677L8.93435 7.5H15C15.2761 7.5 15.5 7.72386 15.5 8C15.5 8.27614 15.2761 8.5 15 8.5H8.93428L10.2676 10.5H13C13.2761 10.5 13.5 10.7239 13.5 11C13.5 11.2761 13.2761 11.5 13 11.5H10.9343L12.4161 13.7227C12.5693 13.9525 12.5072 14.2629 12.2774 14.4161C12.0476 14.5693 11.7372 14.5072 11.584 14.2774L10.0001 11.9014L8.41608 14.2774C8.2629 14.5072 7.95247 14.5693 7.7227 14.4161C7.49294 14.2629 7.43085 13.9525 7.58403 13.7227L9.39913 11.0001L8.00005 8.90144L4.41608 14.2774C4.2629 14.5072 3.95247 14.5693 3.7227 14.4161C3.49294 14.2629 3.43085 13.9525 3.58403 13.7227L7.06583 8.5H4.26768L2.41608 11.2774C2.2629 11.5072 1.95247 11.5693 1.7227 11.4161C1.49294 11.2629 1.43085 10.9525 1.58403 10.7227L3.06583 8.5H1C0.723858 8.5 0.5 8.27614 0.5 8C0.5 7.72386 0.723858 7.5 1 7.5H3.06576L1.58403 5.2774C1.43085 5.04764 1.49294 4.7372 1.7227 4.58403C1.95247 4.43085 2.2629 4.49294 2.41608 4.7227L4.26761 7.5H7.06576L3.58403 2.2774C3.43085 2.04764 3.49294 1.7372 3.7227 1.58403C3.95247 1.43085 4.2629 1.49294 4.41608 1.7227L8.00005 7.09867L9.39913 5.00005L7.58403 2.2774C7.43085 2.04764 7.49294 1.7372 7.7227 1.58403C7.95247 1.43085 8.2629 1.49294 8.41608 1.7227L10.0001 4.09867L11.584 1.7227C11.7372 1.49294 12.0476 1.43085 12.2774 1.58403Z" fill="#777B92"/>
</svg>
