<svg width="22" height="22" viewBox="0 0 22 22" fill="none" xmlns="http://www.w3.org/2000/svg">
<path d="M16.3693 21.0001C12.2947 20.9948 8.38854 19.3706 5.50738 16.4837C2.62623 13.5968 1.00528 9.68282 1 5.60011C1 4.38012 1.48367 3.21009 2.34462 2.34742C3.20556 1.48476 4.37326 1.00011 5.59082 1.00011C5.84864 0.998146 6.10604 1.02159 6.35928 1.07011C6.6041 1.10641 6.84478 1.1667 7.07784 1.25011C7.24176 1.30774 7.38783 1.40725 7.5016 1.53879C7.61538 1.67033 7.69291 1.82934 7.72655 2.00011L9.09381 8.00011C9.13066 8.16298 9.12623 8.33249 9.0809 8.4932C9.03557 8.6539 8.95081 8.80067 8.83433 8.92011C8.70459 9.06011 8.69461 9.07011 7.46706 9.71011C8.45009 11.871 10.1748 13.6063 12.3273 14.6001C12.976 13.3601 12.986 13.3501 13.1257 13.2201C13.245 13.1034 13.3914 13.0185 13.5518 12.9731C13.7122 12.9276 13.8814 12.9232 14.0439 12.9601L20.0319 14.3301C20.1969 14.3685 20.3494 14.4483 20.4751 14.562C20.6008 14.6757 20.6956 14.8196 20.7505 14.9801C20.8347 15.2175 20.8982 15.4617 20.9401 15.7101C20.9803 15.9614 21.0003 16.2156 21 16.4701C20.9816 17.6849 20.4843 18.8431 19.6167 19.6918C18.7491 20.5405 17.5817 21.0108 16.3693 21.0001ZM5.59082 3.00011C4.90344 3.00275 4.24497 3.27752 3.75891 3.76455C3.27286 4.25157 2.99864 4.91136 2.99601 5.60011C2.99865 9.1532 4.40846 12.56 6.91586 15.0724C9.42326 17.5848 12.8233 18.9975 16.3693 19.0001C17.0566 18.9975 17.7151 18.7227 18.2012 18.2357C18.6872 17.7487 18.9614 17.0889 18.9641 16.4001V16.0701L14.3333 15.0001L14.0439 15.5501C13.5948 16.4201 13.2655 17.0501 12.4271 16.7101C10.7733 16.117 9.27215 15.1621 8.03267 13.915C6.79318 12.6678 5.84653 11.1597 5.26148 9.50011C4.90219 8.72011 5.58084 8.36011 6.43912 7.91011L6.98802 7.64011L5.92016 3.00011H5.59082Z" fill="#97A3BA"/>
</svg>
