<svg width="22" height="22" viewBox="0 0 22 22" fill="none" xmlns="http://www.w3.org/2000/svg">
<path fill-rule="evenodd" clip-rule="evenodd" d="M0 4.97178C0 4.32236 0.631787 3.85574 1.26142 4.04012L6.95541 5.70753C7.47569 5.85989 7.77257 6.40052 7.61851 6.91506C7.46446 7.4296 6.9178 7.7232 6.39752 7.57085L3.87018 6.83075L11.8012 16.0562L20.2372 5.15297C20.5669 4.7268 21.1836 4.64568 21.6145 4.97178C22.0454 5.29788 22.1275 5.90771 21.7977 6.33388L13.3617 17.2371C12.6005 18.2209 11.1155 18.2587 10.3042 17.315L1.96496 7.61466V9.82998C1.96496 10.3666 1.52509 10.8016 0.982478 10.8016C0.43987 10.8016 0 10.3666 0 9.82998V4.97178Z" fill="#97A3BA"/>
</svg>
