<svg width="24" height="24" viewBox="0 0 24 24" fill="none" xmlns="http://www.w3.org/2000/svg">
<path fill-rule="evenodd" clip-rule="evenodd" d="M9.12566 3.67162L9.86498 8.10774C10.0093 8.9738 9.57193 9.83272 8.78662 10.2254L8.23793 10.4997C8.77317 11.6757 9.85978 13.0617 11.0635 14.179C11.681 14.7521 12.2998 15.2267 12.8492 15.5514C13.1728 15.7427 13.4363 15.8603 13.638 15.9269C13.6868 15.818 13.7379 15.6889 13.7886 15.5469C14.1073 14.6536 15.0291 13.9914 16.0751 14.1658L20.3289 14.875C21.2637 15.0308 22.0648 15.8722 21.9513 16.9512C21.8015 18.3756 21.3015 19.6365 20.4398 20.5544C19.5641 21.4872 18.3735 22.0004 17 22.0004C8.43959 22.0004 2 15.5608 2 7.0004C2 5.4691 2.48677 4.2292 3.46741 3.36102C4.41584 2.52137 5.69857 2.14415 7.07461 2.03544C8.13002 1.95205 8.96864 2.72949 9.12566 3.67162ZM4.79315 4.8585C4.32804 5.27027 4 5.9147 4 7.0004C4 14.4562 9.54416 20.0004 17 20.0004C17.8448 20.0004 18.4999 19.6987 18.9816 19.1855C19.4625 18.6733 19.8245 17.8899 19.9513 16.8396L15.7462 16.1386L15.7449 16.1387C15.7431 16.1391 15.737 16.1407 15.7277 16.1466C15.7072 16.1595 15.6846 16.1846 15.6723 16.219C15.5698 16.5062 15.4296 16.8557 15.2564 17.1499C15.1713 17.2945 15.0514 17.4725 14.8899 17.626C14.7391 17.7693 14.4359 18.0004 14 18.0004C13.2707 18.0004 12.5042 17.6707 11.8316 17.2732C11.1287 16.8578 10.3959 16.2881 9.70294 15.6449C8.33139 14.3718 6.99785 12.6998 6.33877 11.1491C5.91276 10.1468 6.46551 9.14987 7.27028 8.74748L7.89219 8.43652L7.15869 4.03535C6.05047 4.13278 5.27979 4.42767 4.79315 4.8585Z" fill="#777B92"/>
<path fill-rule="evenodd" clip-rule="evenodd" d="M16 3C16.5523 3 17 3.44772 17 4V8C17 8.55228 16.5523 9 16 9C15.4477 9 15 8.55228 15 8V4C15 3.44772 15.4477 3 16 3Z" fill="#777B92"/>
<path fill-rule="evenodd" clip-rule="evenodd" d="M20 3C20.5523 3 21 3.44772 21 4V8C21 8.55228 20.5523 9 20 9C19.4477 9 19 8.55228 19 8V4C19 3.44772 19.4477 3 20 3Z" fill="#777B92"/>
</svg>
