<svg width="22" height="22" viewBox="0 0 22 22" fill="none" xmlns="http://www.w3.org/2000/svg">
<path fill-rule="evenodd" clip-rule="evenodd" d="M20.75 14.91C20.8344 15.1474 20.898 15.3916 20.94 15.64C20.9802 15.8913 21.0003 16.1455 21 16.4C21 17.0041 20.881 17.6022 20.6498 18.1603C20.4187 18.7184 20.0798 19.2255 19.6527 19.6527C19.2255 20.0798 18.7184 20.4187 18.1603 20.6498C17.6022 20.881 17.0041 21 16.4 21C12.3173 20.9947 8.40331 19.3705 5.5164 16.4836C2.62949 13.5967 1.00529 9.68271 1 5.6C1 4.38 1.48464 3.20998 2.34731 2.34731C3.20998 1.48464 4.38 1 5.6 1C5.85933 1.0079 6.11725 1.0414 6.37 1.1C6.61531 1.1363 6.85647 1.19659 7.09 1.28C7.25053 1.335 7.39443 1.42995 7.50814 1.55591C7.62186 1.68187 7.70165 1.8347 7.74 2L9.11 7.93C9.14693 8.09286 9.14248 8.26238 9.09706 8.42308C9.05165 8.58379 8.96671 8.73056 8.85 8.85C8.72722 8.99167 8.71148 8.99954 7.63167 9.53919C7.5682 9.57091 7.50106 9.60447 7.43 9.64C8.4241 11.798 10.1541 13.5315 12.31 14.53C12.96 13.29 12.97 13.28 13.11 13.15C13.2294 13.0333 13.3762 12.9484 13.5369 12.9029C13.6976 12.8575 13.8671 12.8531 14.03 12.89L20.03 14.26C20.1953 14.2984 20.3481 14.3781 20.4741 14.4919C20.6 14.6056 20.695 14.7495 20.75 14.91ZM6.92769 15.0723C9.44011 17.5847 12.8469 18.9974 16.4 19C17.0888 18.9974 17.7485 18.7226 18.2356 18.2356C18.7226 17.7485 18.9974 17.0888 19 16.4V16.07L14.37 15.01L14.08 15.56C13.63 16.43 13.3 17.06 12.46 16.72C10.8029 16.1269 9.2987 15.172 8.05674 13.9249C6.81477 12.6777 5.86622 11.1696 5.28 9.51C4.95 8.71 5.58 8.38 6.45 7.93L7 7.64L5.93 3H5.6C4.91125 3.00263 4.25146 3.27741 3.76443 3.76443C3.27741 4.25146 3.00263 4.91125 3 5.6C3.00265 9.15309 4.41528 12.5599 6.92769 15.0723Z" fill="#97A3BA"/>
<path d="M15 4C14.4477 4 14 4.44772 14 5C14 5.55228 14.4477 6 15 6H19C19.5523 6 20 5.55228 20 5C20 4.44772 19.5523 4 19 4H15Z" fill="#97A3BA"/>
</svg>
