<svg width="24" height="24" viewBox="0 0 24 24" fill="none" xmlns="http://www.w3.org/2000/svg">
<path fill-rule="evenodd" clip-rule="evenodd" d="M9.12566 3.67162L9.86498 8.10774C10.0093 8.9738 9.57193 9.83272 8.78662 10.2254L8.23794 10.4997C8.37662 10.8043 8.55492 11.1286 8.76811 11.4645C9.06408 11.9308 8.92601 12.5487 8.45973 12.8447C7.99344 13.1407 7.37551 13.0026 7.07955 12.5363C6.78974 12.0797 6.53597 11.6129 6.33918 11.1501C5.91345 10.1488 6.46432 9.15046 7.27028 8.74748L7.89219 8.43652L7.15869 4.03535C6.05047 4.13278 5.27979 4.42767 4.79315 4.8585C4.32804 5.27027 4 5.9147 4 7.0004C4 9.42603 4.58613 11.6377 5.62048 13.5185C5.88661 14.0025 5.71005 14.6105 5.22611 14.8766C4.74218 15.1428 4.13413 14.9662 3.868 14.4823C2.66624 12.297 2 9.7524 2 7.0004C2 5.4691 2.48677 4.2292 3.46741 3.36102C4.41584 2.52137 5.69857 2.14415 7.07461 2.03544C8.13002 1.95205 8.96864 2.72949 9.12566 3.67162Z" fill="#777B92"/>
<path fill-rule="evenodd" clip-rule="evenodd" d="M16.0751 14.1658L20.3289 14.875C21.2637 15.0308 22.0648 15.8722 21.9513 16.9512C21.8015 18.3756 21.3015 19.6365 20.4398 20.5544C19.5641 21.4872 18.3735 22.0004 17 22.0004C14.0444 22.0004 11.3285 21.2319 9.0403 19.8577C8.56685 19.5733 8.41355 18.959 8.6979 18.4855C8.98225 18.0121 9.59658 17.8588 10.07 18.1431C12.0373 19.3247 14.3955 20.0004 17 20.0004C17.8448 20.0004 18.4999 19.6987 18.9816 19.1855C19.4625 18.6733 19.8245 17.8899 19.9513 16.8396L15.7462 16.1386L15.7449 16.1387C15.7431 16.1391 15.737 16.1407 15.7277 16.1466C15.7072 16.1595 15.6846 16.1846 15.6723 16.219C15.5698 16.5062 15.4296 16.8557 15.2564 17.1499C15.1713 17.2945 15.0514 17.4725 14.8899 17.626C14.7391 17.7693 14.4359 18.0004 14 18.0004C13.5015 18.0004 12.9994 17.8471 12.5448 17.6446C12.0794 17.4373 11.6003 17.1498 11.1303 16.8157C10.6802 16.4958 10.5746 15.8715 10.8946 15.4213C11.2146 14.9711 11.8389 14.8656 12.289 15.1856C12.6842 15.4665 13.0468 15.6788 13.3585 15.8176C13.4634 15.8644 13.5565 15.9 13.638 15.9269C13.6868 15.8179 13.738 15.6889 13.7886 15.5469C14.1073 14.6536 15.0291 13.9914 16.0751 14.1658Z" fill="#777B92"/>
<path fill-rule="evenodd" clip-rule="evenodd" d="M19.7071 5.70711L5.70711 19.7071C5.31658 20.0976 4.68342 20.0976 4.29289 19.7071C3.90237 19.3166 3.90237 18.6834 4.29289 18.2929L18.2929 4.29289C18.6834 3.90237 19.3166 3.90237 19.7071 4.29289C20.0976 4.68342 20.0976 5.31658 19.7071 5.70711Z" fill="#777B92"/>
</svg>
