<svg width="22" height="22" viewBox="0 0 22 22" fill="none" xmlns="http://www.w3.org/2000/svg">
<path fill-rule="evenodd" clip-rule="evenodd" d="M20.94 15.64C20.898 15.3916 20.8344 15.1474 20.75 14.91C20.695 14.7495 20.6 14.6056 20.4741 14.4919C20.3481 14.3781 20.1953 14.2984 20.03 14.26L14.03 12.89C13.8671 12.8531 13.6976 12.8575 13.5369 12.9029C13.3762 12.9484 13.2294 13.0333 13.11 13.15C12.97 13.28 12.96 13.29 12.31 14.53C10.1541 13.5315 8.4241 11.798 7.43 9.64L7.63167 9.53919C8.71148 8.99954 8.72722 8.99167 8.85 8.85C8.96671 8.73056 9.05165 8.58379 9.09706 8.42308C9.14248 8.26238 9.14693 8.09286 9.11 7.93L7.74 2C7.70165 1.8347 7.62186 1.68187 7.50814 1.55591C7.39443 1.42995 7.25053 1.335 7.09 1.28C6.85647 1.19659 6.61531 1.1363 6.37 1.1C6.11725 1.0414 5.85933 1.0079 5.6 1C4.38 1 3.20998 1.48464 2.34731 2.34731C1.48464 3.20998 1 4.38 1 5.6C1.00529 9.68271 2.62949 13.5967 5.5164 16.4836C8.40331 19.3705 12.3173 20.9947 16.4 21C17.0041 21 17.6022 20.881 18.1603 20.6498C18.7184 20.4187 19.2255 20.0798 19.6527 19.6527C20.0798 19.2255 20.4187 18.7184 20.6498 18.1603C20.881 17.6022 21 17.0041 21 16.4C21.0003 16.1455 20.9802 15.8913 20.94 15.64ZM16.4 19C12.8469 18.9974 9.44011 17.5847 6.92769 15.0723C4.41528 12.5599 3.00265 9.15309 3 5.6C3.00263 4.91125 3.27741 4.25146 3.76443 3.76443C4.25146 3.27741 4.91125 3.00263 5.6 3H5.93L7 7.64L6.45 7.93C5.58 8.38 4.95 8.71 5.28 9.51C5.86622 11.1696 6.81477 12.6777 8.05674 13.9249C9.2987 15.172 10.8029 16.1269 12.46 16.72C13.3 17.06 13.63 16.43 14.08 15.56L14.37 15.01L19 16.07V16.4C18.9974 17.0888 18.7226 17.7485 18.2356 18.2356C17.7485 18.7226 17.0888 18.9974 16.4 19Z" fill="#97A3BA"/>
<path d="M15 2C15.5523 2 16 2.44772 16 3V7C16 7.55228 15.5523 8 15 8C14.4477 8 14 7.55228 14 7V3C14 2.44772 14.4477 2 15 2Z" fill="#97A3BA"/>
<path d="M20 3C20 2.44772 19.5523 2 19 2C18.4477 2 18 2.44772 18 3V7C18 7.55228 18.4477 8 19 8C19.5523 8 20 7.55228 20 7V3Z" fill="#97A3BA"/>
</svg>
