<svg width="22" height="22" viewBox="0 0 22 22" fill="none" xmlns="http://www.w3.org/2000/svg">
<path d="M5.7 13.63C3.94813 11.3195 2.99993 8.49953 3 5.6C3.00263 4.91125 3.27741 4.25146 3.76443 3.76443C4.25146 3.27741 4.91125 3.00263 5.6 3H5.93L7 7.64L6.45 7.93C5.58 8.38 4.95 8.71 5.28 9.51C5.65338 10.5816 6.18238 11.5924 6.85 12.51L8.28 11.09C7.97649 10.6384 7.709 10.1636 7.48 9.67L7.7025 9.54885C8.71178 8.99938 8.72836 8.99035 8.85 8.85C8.96671 8.73056 9.05165 8.58379 9.09706 8.42308C9.14248 8.26238 9.14693 8.09286 9.11 7.93L7.74 2C7.70165 1.8347 7.62186 1.68187 7.50814 1.55591C7.39443 1.42995 7.25053 1.335 7.09 1.28C6.85647 1.19659 6.61531 1.1363 6.37 1.1C6.11725 1.0414 5.85933 1.0079 5.6 1C4.38 1 3.20998 1.48464 2.34731 2.34731C1.48464 3.20998 1 4.38 1 5.6C1.00087 9.03038 2.15227 12.3613 4.27 15.06L5.7 13.63Z" fill="#97A3BA"/>
<path d="M18.74 3.25989C18.6573 3.17704 18.5591 3.11131 18.451 3.06647C18.3429 3.02162 18.227 2.99854 18.11 2.99854C17.993 2.99854 17.8771 3.02162 17.769 3.06647C17.6609 3.11131 17.5627 3.17704 17.48 3.25989L3.26 17.4799C3.095 17.6483 3.00179 17.8741 3 18.1099C2.99973 18.2861 3.05179 18.4584 3.14956 18.6051C3.24734 18.7517 3.38644 18.8659 3.54923 18.9334C3.71202 19.0009 3.89118 19.0185 4.064 18.9841C4.23682 18.9496 4.39553 18.8646 4.52 18.7399L18.74 4.51989C18.8228 4.43722 18.8886 4.33902 18.9334 4.23092C18.9783 4.12281 19.0014 4.00692 19.0014 3.88989C19.0014 3.77285 18.9783 3.65696 18.9334 3.54886C18.8886 3.44075 18.8228 3.34256 18.74 3.25989Z" fill="#97A3BA"/>
<path d="M20.7499 14.91C20.8343 15.1473 20.8979 15.3916 20.9399 15.64C20.9802 15.8913 21.0002 16.1455 20.9999 16.4C20.9999 17.0041 20.881 17.6022 20.6498 18.1603C20.4186 18.7184 20.0798 19.2255 19.6526 19.6527C19.2255 20.0798 18.7184 20.4187 18.1603 20.6498C17.6022 20.881 17.004 21 16.3999 21C12.9696 20.9991 9.6386 19.8477 6.93994 17.73L8.39994 16.3C10.7022 18.0457 13.5107 18.9935 16.3999 19C17.0887 18.9974 17.7485 18.7226 18.2355 18.2356C18.7225 17.7485 18.9973 17.0887 18.9999 16.4V16.07L14.3199 15.01L14.0299 15.56C13.5799 16.43 13.2499 17.06 12.4099 16.72C11.3596 16.345 10.3693 15.8196 9.46994 15.16L10.8999 13.73C11.3494 14.0313 11.8207 14.2988 12.3099 14.53C12.9599 13.29 12.9699 13.28 13.1099 13.15C13.2294 13.0333 13.3762 12.9483 13.5369 12.9029C13.6976 12.8575 13.8671 12.8531 14.0299 12.89L20.0299 14.26C20.1952 14.2983 20.3481 14.3781 20.474 14.4918C20.6 14.6056 20.6949 14.7495 20.7499 14.91Z" fill="#97A3BA"/>
</svg>
