<svg width="24" height="24" viewBox="0 0 24 24" fill="none" xmlns="http://www.w3.org/2000/svg">
<path fill-rule="evenodd" clip-rule="evenodd" d="M6.70711 3.70711L5.41421 5L20 5C21.1046 5 22 5.89543 22 7V11C22 11.5523 21.5523 12 21 12C20.4477 12 20 11.5523 20 11V7L5.41421 7L6.70711 8.29289C7.09763 8.68342 7.09763 9.31658 6.70711 9.70711C6.31658 10.0976 5.68342 10.0976 5.29289 9.70711L2.29289 6.70711C2.10536 6.51957 2 6.26522 2 6C2 5.73478 2.10536 5.48043 2.29289 5.29289L5.29289 2.29289C5.68342 1.90237 6.31658 1.90237 6.70711 2.29289C7.09763 2.68342 7.09763 3.31658 6.70711 3.70711Z" fill="#777B92"/>
<path fill-rule="evenodd" clip-rule="evenodd" d="M21.7071 18.7071L18.7071 21.7071C18.3166 22.0976 17.6834 22.0976 17.2929 21.7071C16.9024 21.3166 16.9024 20.6834 17.2929 20.2929L18.5858 19L4 19C2.89543 19 2 18.1046 2 17V13C2 12.4477 2.44772 12 3 12C3.55228 12 4 12.4477 4 13L4 17H18.5858L17.2929 15.7071C16.9024 15.3166 16.9024 14.6834 17.2929 14.2929C17.6834 13.9024 18.3166 13.9024 18.7071 14.2929L21.7071 17.2929C22.0976 17.6834 22.0976 18.3166 21.7071 18.7071Z" fill="#777B92"/>
</svg>
