<svg width="24" height="24" viewBox="0 0 24 24" fill="none" xmlns="http://www.w3.org/2000/svg">
<path fill-rule="evenodd" clip-rule="evenodd" d="M7 2H11C11.5523 2 12 2.44772 12 3C12 3.55228 11.5523 4 11 4H7L7 18.5858L8.29289 17.2929C8.68342 16.9024 9.31658 16.9024 9.70711 17.2929C10.0976 17.6834 10.0976 18.3166 9.70711 18.7071L6.70711 21.7071C6.31658 22.0976 5.68342 22.0976 5.29289 21.7071L2.29289 18.7071C1.90237 18.3166 1.90237 17.6834 2.29289 17.2929C2.68342 16.9024 3.31658 16.9024 3.70711 17.2929L5 18.5858L5 3.99969C5 2.89472 5.89583 2 7 2Z" fill="#777B92"/>
<path fill-rule="evenodd" clip-rule="evenodd" d="M18.7071 2.29289L21.7071 5.29289C22.0976 5.68342 22.0976 6.31658 21.7071 6.70711C21.3166 7.09763 20.6834 7.09763 20.2929 6.70711L19 5.41421V20C19 21.1046 18.1046 22 17 22H13C12.4477 22 12 21.5523 12 21C12 20.4477 12.4477 20 13 20H17L17 5.41421L15.7071 6.70711C15.3166 7.09763 14.6834 7.09763 14.2929 6.70711C13.9024 6.31658 13.9024 5.68342 14.2929 5.29289L17.2929 2.29289C17.6834 1.90237 18.3166 1.90237 18.7071 2.29289Z" fill="#777B92"/>
</svg>
