<svg width="24" height="24" viewBox="0 0 24 24" fill="none" xmlns="http://www.w3.org/2000/svg">
<path fill-rule="evenodd" clip-rule="evenodd" d="M13 2V12C13 12.5523 12.5523 13 12 13C11.4477 13 11 12.5523 11 12V2C11 1.44772 11.4477 1 12 1C12.5523 1 13 1.44772 13 2Z" fill="#777B92"/>
<path fill-rule="evenodd" clip-rule="evenodd" d="M8.44503 4.83128C5.80844 6.14156 4 8.86063 4 12.0002C4 16.4185 7.58172 20.0002 12 20.0002C16.4183 20.0002 20 16.4185 20 12.0002C20 8.86063 18.1916 6.14156 15.555 4.83128C15.0604 4.5855 14.8587 3.98531 15.1045 3.49074C15.3503 2.99616 15.9505 2.79447 16.445 3.04025C19.7353 4.67538 22 8.07243 22 12.0002C22 17.5231 17.5228 22.0002 12 22.0002C6.47715 22.0002 2 17.5231 2 12.0002C2 8.07243 4.26468 4.67538 7.55497 3.04025C8.04955 2.79447 8.64973 2.99616 8.89551 3.49074C9.1413 3.98531 8.93961 4.5855 8.44503 4.83128Z" fill="#777B92"/>
</svg>
