<svg width="24" height="24" viewBox="0 0 24 24" fill="none" xmlns="http://www.w3.org/2000/svg">
<path fill-rule="evenodd" clip-rule="evenodd" d="M8.12853 3.16727C9.2378 2.42972 10.5702 2 12 2C15.866 2 19 5.13401 19 9V13.5858L20.7071 15.2929C21.0976 15.6834 21.0976 16.3166 20.7071 16.7071C20.3166 17.0976 19.6834 17.0976 19.2929 16.7071L17.5858 15C17.2107 14.6249 17 14.1162 17 13.5858V9C17 6.23858 14.7614 4 12 4C10.9763 4 10.0272 4.30658 9.23588 4.83273C8.77597 5.13852 8.15526 5.01358 7.84947 4.55367C7.54369 4.09377 7.66862 3.47305 8.12853 3.16727ZM6 9C6.55228 9 7 9.44772 7 10V13.6972C7 14.0921 6.88312 14.4781 6.6641 14.8066L5.86852 16H12C12.5523 16 13 16.4477 13 17C13 17.5523 12.5523 18 12 18H10C10 19.1046 10.8954 20 12 20C12.5922 20 13.1233 19.7439 13.491 19.3331C13.8593 18.9216 14.4915 18.8865 14.903 19.2549C15.3145 19.6232 15.3496 20.2554 14.9812 20.6669C14.2502 21.4836 13.1848 22 12 22C9.79086 22 8 20.2091 8 18H5.86852C4.27113 18 3.31834 16.2197 4.20442 14.8906L5 13.6972V10C5 9.44772 5.44772 9 6 9ZM4.70711 3.29289C4.31658 2.90237 3.68342 2.90237 3.29289 3.29289C2.90237 3.68342 2.90237 4.31658 3.29289 4.70711L19.2929 20.7071C19.6834 21.0976 20.3166 21.0976 20.7071 20.7071C21.0976 20.3166 21.0976 19.6834 20.7071 19.2929L4.70711 3.29289Z" fill="#777B92"/>
</svg>
