<svg width="24" height="24" viewBox="0 0 24 24" fill="none" xmlns="http://www.w3.org/2000/svg">
<path fill-rule="evenodd" clip-rule="evenodd" d="M12 1C5.92487 1 1 5.92487 1 12C1 18.0751 5.92487 23 12 23C18.0751 23 23 18.0751 23 12C23 5.92487 18.0751 1 12 1ZM12 9C12.5523 9 13 8.55228 13 8C13 7.44772 12.5523 7 12 7C11.4477 7 11 7.44772 11 8C11 8.55228 11.4477 9 12 9ZM13.0215 11.0084C13.0263 10.4562 12.5824 10.0046 12.0302 9.99984C11.4779 9.99507 11.0263 10.4389 11.0216 10.9912L10.9784 15.991C10.9737 16.5433 11.4175 16.9948 11.9698 16.9996C12.522 17.0043 12.9736 16.5605 12.9784 16.0082L13.0215 11.0084Z" fill="#777B92"/>
</svg>
