<svg width="24" height="24" viewBox="0 0 24 24" fill="none" xmlns="http://www.w3.org/2000/svg">
<path fill-rule="evenodd" clip-rule="evenodd" d="M13.8161 2.12505C12.7429 1.30874 11.2569 1.30874 10.1837 2.12505L9.82013 2.40158C9.61137 2.56037 9.34858 2.63079 9.0884 2.59765L8.63528 2.53995C7.2977 2.3696 6.0108 3.11259 5.48953 4.35615L5.31295 4.77741C5.21155 5.0193 5.01918 5.21167 4.77729 5.31307L4.35602 5.48965C3.11247 6.01093 2.36948 7.29782 2.53982 8.63541L2.59753 9.08852C2.63066 9.3487 2.56025 9.61149 2.40146 9.82025L2.12493 10.1838C1.30862 11.257 1.30862 12.743 2.12493 13.8162L2.40146 14.1798C2.56025 14.3885 2.63066 14.6513 2.59753 14.9115L2.53982 15.3646C2.36948 16.7022 3.11247 17.9891 4.35602 18.5104L4.77728 18.6869C5.01918 18.7883 5.21155 18.9807 5.31295 19.2226L5.48953 19.6439C6.0108 20.8874 7.2977 21.6304 8.63528 21.4601L9.0884 21.4024C9.34858 21.3692 9.61137 21.4396 9.82013 21.5984L10.1837 21.875C11.2569 22.6913 12.7429 22.6913 13.8161 21.875L14.1796 21.5984C14.3884 21.4396 14.6512 21.3692 14.9114 21.4024L15.3645 21.4601C16.7021 21.6304 17.989 20.8874 18.5102 19.6439L18.6868 19.2226C18.7882 18.9807 18.9806 18.7883 19.2225 18.6869L19.6437 18.5104C20.8873 17.9891 21.6303 16.7022 21.4599 15.3646L21.4022 14.9115C21.3691 14.6513 21.4395 14.3885 21.5983 14.1798L21.8748 13.8162C22.6912 12.743 22.6912 11.257 21.8748 10.1838L21.5983 9.82025C21.4395 9.61149 21.3691 9.3487 21.4022 9.08852L21.4599 8.63541C21.6303 7.29782 20.8873 6.01093 19.6437 5.48965L19.2225 5.31307C18.9806 5.21167 18.7882 5.0193 18.6868 4.77741L18.5102 4.35615C17.989 3.11259 16.7021 2.3696 15.3645 2.53995L14.9114 2.59765C14.6512 2.63079 14.3884 2.56037 14.1796 2.40158L13.8161 2.12505ZM11.3945 3.7169C11.7522 3.44479 12.2475 3.44479 12.6053 3.7169L12.9688 3.99343C13.5951 4.46979 14.3835 4.68103 15.164 4.58163L15.6171 4.52392C16.063 4.46714 16.492 4.7148 16.6657 5.12932L16.8423 5.55058C17.1465 6.27626 17.7236 6.85339 18.4493 7.15758L18.8706 7.33416C19.2851 7.50792 19.5328 7.93688 19.476 8.38274L19.4183 8.83586C19.3189 9.61641 19.5301 10.4048 20.0065 11.0311L20.283 11.3946C20.5551 11.7523 20.5551 12.2477 20.283 12.6054L20.0065 12.969C19.5301 13.5952 19.3189 14.3836 19.4183 15.1642L19.476 15.6173C19.5328 16.0631 19.2851 16.4921 18.8706 16.6659L18.4493 16.8424C17.7236 17.1466 17.1465 17.7237 16.8423 18.4494L16.6657 18.8707C16.492 19.2852 16.063 19.5329 15.6171 19.4761L15.164 19.4184C14.3835 19.319 13.5951 19.5302 12.9688 20.0066L12.6053 20.2831C12.2475 20.5552 11.7522 20.5552 11.3945 20.2831L11.0309 20.0066C10.4047 19.5302 9.61629 19.319 8.83573 19.4184L8.38262 19.4761C7.93676 19.5329 7.50779 19.2852 7.33404 18.8707L7.15745 18.4494C6.85326 17.7237 6.27614 17.1466 5.55046 16.8424L5.1292 16.6659C4.71468 16.4921 4.46702 16.0631 4.5238 15.6173L4.58151 15.1642C4.68091 14.3836 4.46967 13.5952 3.9933 12.969L3.71677 12.6054C3.44467 12.2477 3.44467 11.7523 3.71677 11.3946L3.9933 11.0311C4.46967 10.4048 4.68091 9.61641 4.58151 8.83586L4.5238 8.38274C4.46702 7.93688 4.71468 7.50792 5.1292 7.33416L5.55046 7.15758C6.27614 6.85339 6.85326 6.27627 7.15745 5.55058L7.33404 5.12932C7.50779 4.7148 7.93676 4.46714 8.38262 4.52392L8.83574 4.58163C9.61629 4.68103 10.4047 4.46979 11.0309 3.99343L11.3945 3.7169ZM11.9999 7.00001C12.5522 7.00001 12.9999 7.44772 12.9999 8.00001V13C12.9999 13.5523 12.5522 14 11.9999 14C11.4476 14 10.9999 13.5523 10.9999 13V8.00001C10.9999 7.44772 11.4476 7.00001 11.9999 7.00001ZM12.9999 16C12.9999 16.5523 12.5522 17 11.9999 17C11.4476 17 10.9999 16.5523 10.9999 16C10.9999 15.4477 11.4476 15 11.9999 15C12.5522 15 12.9999 15.4477 12.9999 16Z" fill="#777B92"/>
</svg>
