<svg width="24" height="24" viewBox="0 0 24 24" fill="none" xmlns="http://www.w3.org/2000/svg">
<path fill-rule="evenodd" clip-rule="evenodd" d="M13.8161 2.12505C12.7429 1.30874 11.2569 1.30874 10.1837 2.12505L9.82013 2.40158C9.61137 2.56037 9.34858 2.63079 9.0884 2.59765L8.63528 2.53995C7.2977 2.3696 6.0108 3.11259 5.48953 4.35615L5.31295 4.77741C5.21155 5.0193 5.01918 5.21167 4.77729 5.31307L4.35602 5.48965C3.11247 6.01093 2.36948 7.29782 2.53982 8.63541L2.59753 9.08852C2.63066 9.3487 2.56025 9.61149 2.40146 9.82025L2.12493 10.1838C1.30862 11.257 1.30862 12.743 2.12493 13.8162L2.40146 14.1798C2.56025 14.3885 2.63066 14.6513 2.59753 14.9115L2.53982 15.3646C2.36948 16.7022 3.11247 17.9891 4.35602 18.5104L4.77728 18.6869C5.01918 18.7883 5.21155 18.9807 5.31295 19.2226L5.48953 19.6439C6.0108 20.8874 7.2977 21.6304 8.63528 21.4601L9.0884 21.4024C9.34858 21.3692 9.61137 21.4396 9.82013 21.5984L10.1837 21.875C11.2569 22.6913 12.7429 22.6913 13.8161 21.875L14.1796 21.5984C14.3884 21.4396 14.6512 21.3692 14.9114 21.4024L15.3645 21.4601C16.7021 21.6304 17.989 20.8874 18.5102 19.6439L18.6868 19.2226C18.7882 18.9807 18.9806 18.7883 19.2225 18.6869L19.6437 18.5104C20.8873 17.9891 21.6303 16.7022 21.4599 15.3646L21.4022 14.9115C21.3691 14.6513 21.4395 14.3885 21.5983 14.1798L21.8748 13.8162C22.6912 12.743 22.6912 11.257 21.8748 10.1838L21.5983 9.82025C21.4395 9.61149 21.3691 9.3487 21.4022 9.08852L21.4599 8.63541C21.6303 7.29782 20.8873 6.01093 19.6437 5.48965L19.2225 5.31307C18.9806 5.21167 18.7882 5.0193 18.6868 4.77741L18.5102 4.35615C17.989 3.11259 16.7021 2.3696 15.3645 2.53995L14.9114 2.59765C14.6512 2.63079 14.3884 2.56037 14.1796 2.40158L13.8161 2.12505ZM16.6401 8.2317C17.0644 8.58526 17.1217 9.21582 16.7681 9.6401L11.7681 15.6401C11.5882 15.8559 11.3259 15.9862 11.0452 15.9989C10.7645 16.0116 10.4915 15.9057 10.2928 15.707L7.29279 12.707C6.90226 12.3165 6.90226 11.6833 7.29279 11.2928C7.68331 10.9023 8.31647 10.9023 8.707 11.2928L10.9327 13.5185L15.2317 8.35973C15.5852 7.93546 16.2158 7.87813 16.6401 8.2317Z" fill="#777B92"/>
</svg>
