<svg width="24" height="24" viewBox="0 0 24 24" fill="none" xmlns="http://www.w3.org/2000/svg">
<path fill-rule="evenodd" clip-rule="evenodd" d="M6 3C6 2.44772 6.44772 2 7 2H19C20.1046 2 21 2.89543 21 4V9V15C21 15.5523 20.5523 16 20 16C19.4477 16 19 15.5523 19 15V10H13C12.4477 10 12 9.55228 12 9C12 8.44772 12.4477 8 13 8H19V4H7C6.44772 4 6 3.55228 6 3ZM3 14V8C3 7.44772 3.44772 7 4 7C4.55228 7 5 7.44772 5 8V14H11C11.5523 14 12 14.4477 12 15C12 15.5523 11.5523 16 11 16H5C3.89543 16 3 15.1046 3 14ZM12 19C12.5523 19 13 18.5523 13 18C13 17.4477 12.5523 17 12 17C11.4477 17 11 17.4477 11 18C11 18.5523 11.4477 19 12 19ZM3 20C2.44772 20 2 20.4477 2 21C2 21.5523 2.44772 22 3 22H17C17.5523 22 18 21.5523 18 21C18 20.4477 17.5523 20 17 20H3ZM9 12C9 12.5523 8.55228 13 8 13C7.44772 13 7 12.5523 7 12C7 11.4477 7.44772 11 8 11C8.55228 11 9 11.4477 9 12ZM4.70711 3.29289C4.31658 2.90237 3.68342 2.90237 3.29289 3.29289C2.90237 3.68342 2.90237 4.31658 3.29289 4.70711L19.2929 20.7071C19.6834 21.0976 20.3166 21.0976 20.7071 20.7071C21.0976 20.3166 21.0976 19.6834 20.7071 19.2929L4.70711 3.29289Z" fill="#777B92"/>
</svg>
