<svg width="24" height="24" viewBox="0 0 24 24" fill="none" xmlns="http://www.w3.org/2000/svg">
<path fill-rule="evenodd" clip-rule="evenodd" d="M7 4C6.44772 4 6 4.44772 6 5C6 5.55228 6.44772 6 7 6C7.55228 6 8 5.55228 8 5C8 4.44772 7.55228 4 7 4ZM4 5C4 3.34315 5.34315 2 7 2C8.65685 2 10 3.34315 10 5C10 6.65685 8.65685 8 7 8C5.34315 8 4 6.65685 4 5ZM7 11C4.79086 11 3 12.7909 3 15C3 15.5523 2.55228 16 2 16C1.44772 16 1 15.5523 1 15C1 11.6863 3.68629 9 7 9C9.08697 9 10.9251 10.0655 12 11.6822C13.0749 10.0655 14.913 9 17 9C20.3137 9 23 11.6863 23 15C23 15.5523 22.5523 16 22 16C21.4477 16 21 15.5523 21 15C21 12.7909 19.2091 11 17 11C14.7909 11 13 12.7909 13 15C13 15.5523 12.5523 16 12 16C11.4477 16 11 15.5523 11 15C11 12.7909 9.20914 11 7 11ZM17 4C16.4477 4 16 4.44772 16 5C16 5.55228 16.4477 6 17 6C17.5523 6 18 5.55228 18 5C18 4.44772 17.5523 4 17 4ZM14 5C14 3.34315 15.3431 2 17 2C18.6569 2 20 3.34315 20 5C20 6.65685 18.6569 8 17 8C15.3431 8 14 6.65685 14 5ZM19.7071 17.2929L16.7071 14.2929C16.3166 13.9024 15.6834 13.9024 15.2929 14.2929C14.9024 14.6834 14.9024 15.3166 15.2929 15.7071L16.5858 17H6C5.44772 17 5 17.4477 5 18C5 18.5523 5.44772 19 6 19H16.5858L15.2929 20.2929C14.9024 20.6834 14.9024 21.3166 15.2929 21.7071C15.6834 22.0976 16.3166 22.0976 16.7071 21.7071L19.7071 18.7071C20.0976 18.3166 20.0976 17.6834 19.7071 17.2929Z" fill="#777B92"/>
</svg>
