<svg width="24" height="24" viewBox="0 0 24 24" fill="none" xmlns="http://www.w3.org/2000/svg">
<path fill-rule="evenodd" clip-rule="evenodd" d="M20.9444 1.37144C20.3545 1.05539 19.6455 1.05539 19.0556 1.37144L18.0556 1.90715C17.4328 2.24077 16.9361 2.94875 17.0472 3.79868C17.2614 5.43801 18.1525 6.60171 18.7504 7.21957C19.4406 7.93275 20.5594 7.93275 21.2496 7.21957C21.8475 6.60171 22.7386 5.43801 22.9528 3.79868C23.0639 2.94875 22.5672 2.24077 21.9444 1.90715L20.9444 1.37144ZM20 5.62292C19.613 5.17233 19.1839 4.50019 19.0458 3.64558L20 3.1344L20.9542 3.64558C20.8161 4.50019 20.387 5.17233 20 5.62292ZM8 4.99994C6.89543 4.99994 6 5.89537 6 6.99994C6 8.10451 6.89543 8.99994 8 8.99994C9.10457 8.99994 10 8.10451 10 6.99994C10 5.89537 9.10457 4.99994 8 4.99994ZM4 6.99994C4 4.7908 5.79086 2.99994 8 2.99994C10.2091 2.99994 12 4.7908 12 6.99994C12 9.20908 10.2091 10.9999 8 10.9999C5.79086 10.9999 4 9.20908 4 6.99994ZM15 8.99994C14.4477 8.99994 14 9.44766 14 9.99994C14 10.5522 14.4477 10.9999 15 10.9999C15.5523 10.9999 16 10.5522 16 9.99994C16 9.44766 15.5523 8.99994 15 8.99994ZM12 9.99994C12 8.34309 13.3431 6.99994 15 6.99994C16.6569 6.99994 18 8.34309 18 9.99994C18 11.6568 16.6569 12.9999 15 12.9999C13.3431 12.9999 12 11.6568 12 9.99994ZM3 19.9999C3 17.2385 5.23858 14.9999 8 14.9999C10.7614 14.9999 13 17.2385 13 19.9999C13 20.5522 13.4477 20.9999 14 20.9999C14.5523 20.9999 15 20.5522 15 19.9999C15 18.5108 14.535 17.1303 13.7423 15.9956C14.4045 15.9222 14.9867 16.0657 15.4696 16.3213C16.2862 16.7536 16.85 17.5233 17.0299 18.2426C17.1638 18.7784 17.7067 19.1042 18.2425 18.9703C18.7783 18.8363 19.1041 18.2934 18.9701 17.7576C18.65 16.4768 17.7138 15.2464 16.4054 14.5537C15.2041 13.9178 13.7105 13.7462 12.1333 14.3499C10.975 13.5012 9.54604 12.9999 8 12.9999C4.13401 12.9999 1 16.134 1 19.9999C1 20.5522 1.44772 20.9999 2 20.9999C2.55228 20.9999 3 20.5522 3 19.9999Z" fill="#777B92"/>
</svg>
