<svg width="24" height="24" viewBox="0 0 24 24" fill="none" xmlns="http://www.w3.org/2000/svg">
<path fill-rule="evenodd" clip-rule="evenodd" d="M8 7C8 5.89543 8.89543 5 10 5C11.1046 5 12 5.89543 12 7C12 8.10457 11.1046 9 10 9C8.89543 9 8 8.10457 8 7ZM10 3C7.79086 3 6 4.79086 6 7C6 9.20914 7.79086 11 10 11C12.2091 11 14 9.20914 14 7C14 4.79086 12.2091 3 10 3ZM5 20C5 17.2386 7.23858 15 10 15C12.7614 15 15 17.2386 15 20C15 20.5523 15.4477 21 16 21C16.5523 21 17 20.5523 17 20C17 16.134 13.866 13 10 13C6.13401 13 3 16.134 3 20C3 20.5523 3.44772 21 4 21C4.55228 21 5 20.5523 5 20ZM16 7C16 6.44772 16.4477 6 17 6H18V5C18 4.44772 18.4477 4 19 4C19.5523 4 20 4.44772 20 5V6H21C21.5523 6 22 6.44772 22 7C22 7.55228 21.5523 8 21 8H20V9C20 9.55228 19.5523 10 19 10C18.4477 10 18 9.55228 18 9V8H17C16.4477 8 16 7.55228 16 7Z" fill="#777B92"/>
</svg>
