<svg width="24" height="24" viewBox="0 0 24 24" fill="none" xmlns="http://www.w3.org/2000/svg">
<path fill-rule="evenodd" clip-rule="evenodd" d="M9.99999 7C9.99999 5.89543 10.8954 5 12 5C13.1046 5 14 5.89543 14 7C14 8.10457 13.1046 9 12 9C10.8954 9 9.99999 8.10457 9.99999 7ZM12 3C9.79085 3 7.99999 4.79086 7.99999 7C7.99999 9.20914 9.79085 11 12 11C14.2091 11 16 9.20914 16 7C16 4.79086 14.2091 3 12 3ZM18 10C18 9.44772 18.4477 9 19 9C19.5523 9 20 9.44772 20 10C20 10.5523 19.5523 11 19 11C18.4477 11 18 10.5523 18 10ZM19 7C17.3431 7 16 8.34315 16 10C16 11.6569 17.3431 13 19 13C20.6568 13 22 11.6569 22 10C22 8.34315 20.6568 7 19 7ZM4.99999 9C4.44771 9 3.99999 9.44772 3.99999 10C3.99999 10.5523 4.44771 11 4.99999 11C5.55228 11 5.99999 10.5523 5.99999 10C5.99999 9.44772 5.55228 9 4.99999 9ZM1.99999 10C1.99999 8.34315 3.34314 7 4.99999 7C6.65685 7 7.99999 8.34315 7.99999 10C7.99999 11.6569 6.65685 13 4.99999 13C3.34314 13 1.99999 11.6569 1.99999 10ZM6.99999 20C6.99999 17.2386 9.23857 15 12 15C14.7614 15 17 17.2386 17 20C17 20.5523 17.4477 21 18 21C18.5523 21 19 20.5523 19 20C19 18.5109 18.535 17.1303 17.7423 15.9957C18.4045 15.9223 18.9867 16.0657 19.4696 16.3214C20.2862 16.7537 20.85 17.5234 21.0298 18.2427C21.1638 18.7785 21.7067 19.1043 22.2425 18.9703C22.7783 18.8364 23.1041 18.2935 22.9701 17.7577C22.65 16.4768 21.7137 15.2464 20.4054 14.5538C19.2041 13.9179 17.7105 13.7463 16.1333 14.35C14.975 13.5012 13.546 13 12 13C10.4539 13 9.02494 13.5012 7.86664 14.35C6.28946 13.7463 4.79587 13.9179 3.59463 14.5538C2.28624 15.2465 1.35003 16.4769 1.02984 17.7577C0.895907 18.2935 1.22168 18.8364 1.75748 18.9704C2.29328 19.1043 2.8362 18.7785 2.97014 18.2427C3.14996 17.5234 3.71374 16.7537 4.53035 16.3214C5.01331 16.0658 5.59549 15.9223 6.25766 15.9957C5.46497 17.1304 4.99999 18.5109 4.99999 20C4.99999 20.5523 5.44771 21 5.99999 21C6.55228 21 6.99999 20.5523 6.99999 20Z" fill="#777B92"/>
</svg>
