<svg width="24" height="24" viewBox="0 0 24 24" fill="none" xmlns="http://www.w3.org/2000/svg">
<path fill-rule="evenodd" clip-rule="evenodd" d="M8 7C8 5.89543 8.89543 5 10 5C11.1046 5 12 5.89543 12 7C12 8.10457 11.1046 9 10 9C8.89543 9 8 8.10457 8 7ZM10 3C7.79086 3 6 4.79086 6 7C6 9.20914 7.79086 11 10 11C12.2091 11 14 9.20914 14 7C14 4.79086 12.2091 3 10 3ZM5 20C5 17.2386 7.23858 15 10 15C12.7614 15 15 17.2386 15 20C15 20.5523 15.4477 21 16 21C16.5523 21 17 20.5523 17 20C17 16.134 13.866 13 10 13C6.13401 13 3 16.134 3 20C3 20.5523 3.44772 21 4 21C4.55228 21 5 20.5523 5 20ZM16.2929 5.29289C16.6834 4.90237 17.3166 4.90237 17.7071 5.29289L18.5 6.08579L19.2929 5.29289C19.6834 4.90237 20.3166 4.90237 20.7071 5.29289C21.0976 5.68342 21.0976 6.31658 20.7071 6.70711L19.9142 7.5L20.7071 8.29289C21.0976 8.68342 21.0976 9.31658 20.7071 9.70711C20.3166 10.0976 19.6834 10.0976 19.2929 9.70711L18.5 8.91421L17.7071 9.70711C17.3166 10.0976 16.6834 10.0976 16.2929 9.70711C15.9024 9.31658 15.9024 8.68342 16.2929 8.29289L17.0858 7.5L16.2929 6.70711C15.9024 6.31658 15.9024 5.68342 16.2929 5.29289Z" fill="#777B92"/>
</svg>
