<svg width="24" height="24" viewBox="0 0 24 24" fill="none" xmlns="http://www.w3.org/2000/svg">
<path fill-rule="evenodd" clip-rule="evenodd" d="M9 5C7.89543 5 7 5.89543 7 7C7 8.10457 7.89543 9 9 9C10.1046 9 11 8.10457 11 7C11 5.89543 10.1046 5 9 5ZM5 7C5 4.79086 6.79086 3 9 3C11.2091 3 13 4.79086 13 7C13 9.20914 11.2091 11 9 11C6.79086 11 5 9.20914 5 7ZM9 15C6.23858 15 4 17.2386 4 20C4 20.5523 3.55228 21 3 21C2.44772 21 2 20.5523 2 20C2 16.134 5.13401 13 9 13C12.866 13 16 16.134 16 20C16 20.5523 15.5523 21 15 21C14.4477 21 14 20.5523 14 20C14 17.2386 11.7614 15 9 15ZM18.3533 6.35381L16.7071 8L17.3536 8.64645C17.5488 8.84171 17.5488 9.15829 17.3536 9.35355C17.1583 9.54882 16.8417 9.54882 16.6464 9.35355L16 8.70711L15.8536 8.85355C15.6583 9.04882 15.3417 9.04882 15.1464 8.85355C14.9512 8.65829 14.9512 8.34171 15.1464 8.14645L15.6464 7.64645L17.6462 5.64671C17.5525 5.45089 17.5 5.23157 17.5 5C17.5 4.17157 18.1716 3.5 19 3.5C19.8284 3.5 20.5 4.17157 20.5 5C20.5 5.82843 19.8284 6.5 19 6.5C18.7684 6.5 18.5491 6.44752 18.3533 6.35381ZM18.5 5C18.5 4.72386 18.7239 4.5 19 4.5C19.2761 4.5 19.5 4.72386 19.5 5C19.5 5.27614 19.2761 5.5 19 5.5C18.7239 5.5 18.5 5.27614 18.5 5Z" fill="#777B92"/>
</svg>
