<svg width="16" height="16" viewBox="0 0 16 16" fill="none" xmlns="http://www.w3.org/2000/svg">
<path fill-rule="evenodd" clip-rule="evenodd" d="M3 0.5H13C13.2761 0.5 13.5 0.723858 13.5 1C13.5 1.27614 13.2761 1.5 13 1.5H12.5V4.44575C12.5 4.96294 12.2336 5.44364 11.795 5.71775L8.9434 7.5L11.795 9.28225C12.2336 9.55636 12.5 10.0371 12.5 10.5542V14.5H13C13.2761 14.5 13.5 14.7239 13.5 15C13.5 15.2761 13.2761 15.5 13 15.5H3C2.72386 15.5 2.5 15.2761 2.5 15C2.5 14.7239 2.72386 14.5 3 14.5H3.5V10.5542C3.5 10.0371 3.76643 9.55636 4.205 9.28225L7.0566 7.5L4.205 5.71775C3.76643 5.44364 3.5 4.96294 3.5 4.44575V1.5H3C2.72386 1.5 2.5 1.27614 2.5 1C2.5 0.723858 2.72386 0.5 3 0.5ZM4.5 1.5V4.44575C4.5 4.61815 4.58881 4.77838 4.735 4.86975L8 6.91038L11.265 4.86975C11.4112 4.77838 11.5 4.61815 11.5 4.44575V1.5H4.5ZM8 8.08962L4.735 10.1302C4.58881 10.2216 4.5 10.3819 4.5 10.5542V14.5H11.5V10.5542C11.5 10.3819 11.4112 10.2216 11.265 10.1302L8 8.08962Z" fill="#777B92"/>
</svg>
