<svg width="16" height="16" viewBox="0 0 16 16" fill="none" xmlns="http://www.w3.org/2000/svg">
<path d="M4.7512 2.43474C3.93859 3.00357 3.5 3.74144 3.5 4.5C3.5 5.25856 3.93859 5.99643 4.7512 6.56526C5.56223 7.13298 6.70929 7.5 8 7.5H15C15.2761 7.5 15.5 7.72386 15.5 8C15.5 8.27614 15.2761 8.5 15 8.5H11.65C11.7085 8.53759 11.766 8.5761 11.8223 8.61551C12.8193 9.31343 13.5 10.3256 13.5 11.5C13.5 12.6744 12.8193 13.6866 11.8223 14.3845C10.8237 15.0835 9.47072 15.5 8 15.5C6.52928 15.5 5.17635 15.0835 4.17773 14.3845C3.1807 13.6866 2.5 12.6744 2.5 11.5C2.5 11.2239 2.72386 11 3 11C3.27614 11 3.5 11.2239 3.5 11.5C3.5 12.2586 3.93859 12.9964 4.7512 13.5653C5.56223 14.133 6.70929 14.5 8 14.5C9.2907 14.5 10.4378 14.133 11.2488 13.5653C12.0614 12.9964 12.5 12.2586 12.5 11.5C12.5 10.7414 12.0614 10.0036 11.2488 9.43474C10.4378 8.86702 9.2907 8.5 8 8.5H1C0.723858 8.5 0.5 8.27614 0.5 8C0.5 7.72386 0.723858 7.5 1 7.5H4.34997C4.29146 7.46241 4.23403 7.4239 4.17773 7.38449C3.1807 6.68657 2.5 5.67444 2.5 4.5C2.5 3.32556 3.1807 2.31343 4.17773 1.61551C5.17635 0.916482 6.52928 0.5 8 0.5C9.47072 0.5 10.8237 0.916482 11.8223 1.61551C12.8193 2.31343 13.5 3.32556 13.5 4.5C13.5 4.77614 13.2761 5 13 5C12.7239 5 12.5 4.77614 12.5 4.5C12.5 3.74144 12.0614 3.00357 11.2488 2.43474C10.4378 1.86702 9.2907 1.5 8 1.5C6.70929 1.5 5.56223 1.86702 4.7512 2.43474Z" fill="#777B92"/>
</svg>
