<svg width="16" height="16" viewBox="0 0 16 16" fill="none" xmlns="http://www.w3.org/2000/svg">
<path fill-rule="evenodd" clip-rule="evenodd" d="M11 0.5C11.2761 0.5 11.5 0.723858 11.5 1V4.5H15C15.2761 4.5 15.5 4.72386 15.5 5C15.5 5.27614 15.2761 5.5 15 5.5H11.5V10.5H15C15.2761 10.5 15.5 10.7239 15.5 11C15.5 11.2761 15.2761 11.5 15 11.5H11.5V15C11.5 15.2761 11.2761 15.5 11 15.5C10.7239 15.5 10.5 15.2761 10.5 15V11.5H5.5V15C5.5 15.2761 5.27614 15.5 5 15.5C4.72386 15.5 4.5 15.2761 4.5 15V11.5H1C0.723858 11.5 0.5 11.2761 0.5 11C0.5 10.7239 0.723858 10.5 1 10.5H4.5V5.5H1C0.723858 5.5 0.5 5.27614 0.5 5C0.5 4.72386 0.723858 4.5 1 4.5H4.5V1C4.5 0.723858 4.72386 0.5 5 0.5C5.27614 0.5 5.5 0.723858 5.5 1V4.5H10.5V1C10.5 0.723858 10.7239 0.5 11 0.5ZM5.5 5.5V10.5H10.5V5.5H5.5Z" fill="#777B92"/>
</svg>
