<svg width="16" height="16" viewBox="0 0 16 16" fill="none" xmlns="http://www.w3.org/2000/svg">
<path fill-rule="evenodd" clip-rule="evenodd" d="M7.64645 0.646447C7.84171 0.451184 8.15829 0.451184 8.35355 0.646447L10.3536 2.64645C10.5488 2.84171 10.5488 3.15829 10.3536 3.35355C10.1583 3.54882 9.84171 3.54882 9.64645 3.35355L8.5 2.20711V6C8.5 6.27614 8.27614 6.5 8 6.5C7.72386 6.5 7.5 6.27614 7.5 6V2.20711L6.35355 3.35355C6.15829 3.54882 5.84171 3.54882 5.64645 3.35355C5.45118 3.15829 5.45118 2.84171 5.64645 2.64645L7.64645 0.646447Z" fill="#777B92"/>
<path fill-rule="evenodd" clip-rule="evenodd" d="M0.5 8C0.5 7.72386 0.723858 7.5 1 7.5H15C15.2761 7.5 15.5 7.72386 15.5 8C15.5 8.27614 15.2761 8.5 15 8.5H1C0.723858 8.5 0.5 8.27614 0.5 8Z" fill="#777B92"/>
<path fill-rule="evenodd" clip-rule="evenodd" d="M8.5 13.7929L9.64645 12.6464C9.84171 12.4512 10.1583 12.4512 10.3536 12.6464C10.5488 12.8417 10.5488 13.1583 10.3536 13.3536L8.35355 15.3536C8.15829 15.5488 7.84171 15.5488 7.64645 15.3536L5.64645 13.3536C5.45118 13.1583 5.45118 12.8417 5.64645 12.6464C5.84171 12.4512 6.15829 12.4512 6.35355 12.6464L7.5 13.7929V10C7.5 9.72386 7.72386 9.5 8 9.5C8.27614 9.5 8.5 9.72386 8.5 10V13.7929Z" fill="#777B92"/>
</svg>
