<svg width="16" height="16" viewBox="0 0 16 16" fill="none" xmlns="http://www.w3.org/2000/svg">
<path fill-rule="evenodd" clip-rule="evenodd" d="M8.5 1C8.5 0.723858 8.72386 0.5 9 0.5H15C15.2761 0.5 15.5 0.723858 15.5 1V15C15.5 15.2761 15.2761 15.5 15 15.5H9C8.72386 15.5 8.5 15.2761 8.5 15V11.5H7C6.72386 11.5 6.5 11.2761 6.5 11V5C6.5 4.72386 6.72386 4.5 7 4.5H8.5V1ZM7.5 5.5V10.5H14.5V5.5H7.5ZM9.5 11.5V14.5H14.5V11.5H9.5ZM9.5 4.5H14.5V1.5H9.5V4.5Z" fill="#777B92"/>
<path fill-rule="evenodd" clip-rule="evenodd" d="M3 5.5C3.27614 5.5 3.5 5.72386 3.5 6V7.5H5C5.27614 7.5 5.5 7.72386 5.5 8C5.5 8.27614 5.27614 8.5 5 8.5H3.5V10C3.5 10.2761 3.27614 10.5 3 10.5C2.72386 10.5 2.5 10.2761 2.5 10V8.5H1C0.723858 8.5 0.5 8.27614 0.5 8C0.5 7.72386 0.723858 7.5 1 7.5H2.5V6C2.5 5.72386 2.72386 5.5 3 5.5Z" fill="#777B92"/>
</svg>
