<svg width="16" height="16" viewBox="0 0 16 16" fill="none" xmlns="http://www.w3.org/2000/svg">
<path fill-rule="evenodd" clip-rule="evenodd" d="M6.45531 0.793099L11.4553 11.7931C11.5696 12.0445 11.4584 12.3409 11.207 12.4552C10.9556 12.5695 10.6592 12.4583 10.5449 12.2069L9.27661 9.41658C9.19739 9.46929 9.10228 9.5 9 9.5H3C2.8978 9.5 2.80276 9.46934 2.72358 9.41671L1.45531 12.2069C1.34104 12.4583 1.04461 12.5695 0.793221 12.4552C0.54183 12.3409 0.430671 12.0445 0.544939 11.7931L5.54494 0.793099C5.62607 0.614601 5.80405 0.5 6.00012 0.5C6.19619 0.5 6.37417 0.614601 6.45531 0.793099ZM8.85998 8.5L6.00012 2.2083L3.14026 8.5H8.85998Z" fill="#777B92"/>
<path fill-rule="evenodd" clip-rule="evenodd" d="M15.5 11.993C15.5 11.9953 15.5 11.9976 15.5 12C15.5 12.9475 14.8853 13.8192 14.3737 14.3947C14.3419 14.4305 14.31 14.4657 14.2783 14.5H15C15.2762 14.5 15.5 14.7239 15.5 15C15.5 15.2761 15.2762 15.5 15 15.5H13C12.7848 15.5 12.5937 15.3623 12.5257 15.1581C12.4577 14.9541 12.5278 14.7294 12.6997 14.6002C12.6998 14.6002 12.7 14.6 13 15L12.6997 14.6002L12.7027 14.598L12.7162 14.5876C12.7287 14.5779 12.7478 14.5629 12.7728 14.5429C12.8227 14.5028 12.8954 14.4428 12.9833 14.3659C13.1598 14.2115 13.3938 13.9919 13.6263 13.7303C14.1134 13.1824 14.4978 12.5561 14.5 12.0048C14.5 12.0032 14.5 12.0016 14.5 12C14.5 11.7239 14.2761 11.5 14 11.5C13.7239 11.5 13.5 11.7239 13.5 12C13.5 12.2761 13.2761 12.5 13 12.5C12.7239 12.5 12.5 12.2761 12.5 12C12.5 11.1716 13.1716 10.5 14 10.5C14.8261 10.5 15.4962 11.1678 15.5 11.993Z" fill="#777B92"/>
</svg>
