<svg width="16" height="16" viewBox="0 0 16 16" fill="none" xmlns="http://www.w3.org/2000/svg">
<path fill-rule="evenodd" clip-rule="evenodd" d="M0.5 1C0.5 0.723858 0.723858 0.5 1 0.5H4C4.27614 0.5 4.5 0.723858 4.5 1C4.5 1.27614 4.27614 1.5 4 1.5H1.5V14.5H4C4.27614 14.5 4.5 14.7239 4.5 15C4.5 15.2761 4.27614 15.5 4 15.5H1C0.723858 15.5 0.5 15.2761 0.5 15V1Z" fill="#777B92"/>
<path fill-rule="evenodd" clip-rule="evenodd" d="M6.35355 5.64645C6.54882 5.84171 6.54882 6.15829 6.35355 6.35355L5.20711 7.5H10.7929L9.64645 6.35355C9.45118 6.15829 9.45118 5.84171 9.64645 5.64645C9.84171 5.45118 10.1583 5.45118 10.3536 5.64645L12.3536 7.64645C12.4473 7.74022 12.5 7.86739 12.5 8C12.5 8.13261 12.4473 8.25979 12.3536 8.35355L10.3536 10.3536C10.1583 10.5488 9.84171 10.5488 9.64645 10.3536C9.45118 10.1583 9.45118 9.84171 9.64645 9.64645L10.7929 8.5H5.20711L6.35355 9.64645C6.54882 9.84171 6.54882 10.1583 6.35355 10.3536C6.15829 10.5488 5.84171 10.5488 5.64645 10.3536L3.64645 8.35355C3.55268 8.25979 3.5 8.13261 3.5 8C3.5 7.86739 3.55268 7.74022 3.64645 7.64645L5.64645 5.64645C5.84171 5.45118 6.15829 5.45118 6.35355 5.64645Z" fill="#777B92"/>
<path fill-rule="evenodd" clip-rule="evenodd" d="M12 0.5H15C15.2761 0.5 15.5 0.723858 15.5 1V15C15.5 15.2761 15.2761 15.5 15 15.5H12C11.7239 15.5 11.5 15.2761 11.5 15C11.5 14.7239 11.7239 14.5 12 14.5H14.5V1.5H12C11.7239 1.5 11.5 1.27614 11.5 1C11.5 0.723858 11.7239 0.5 12 0.5Z" fill="#777B92"/>
</svg>
