<svg width="16" height="16" viewBox="0 0 16 16" fill="none" xmlns="http://www.w3.org/2000/svg">
<path fill-rule="evenodd" clip-rule="evenodd" d="M8 0.5C8.27614 0.5 8.5 0.723858 8.5 1V4.79289L9.64645 3.64645C9.84171 3.45118 10.1583 3.45118 10.3536 3.64645C10.5488 3.84171 10.5488 4.15829 10.3536 4.35355L8.35355 6.35355C8.15829 6.54882 7.84171 6.54882 7.64645 6.35355L5.64645 4.35355C5.45118 4.15829 5.45118 3.84171 5.64645 3.64645C5.84171 3.45118 6.15829 3.45118 6.35355 3.64645L7.5 4.79289V1C7.5 0.723858 7.72386 0.5 8 0.5Z" fill="#777B92"/>
<path fill-rule="evenodd" clip-rule="evenodd" d="M1.5 8C1.5 7.72386 1.72386 7.5 2 7.5H14C14.2761 7.5 14.5 7.72386 14.5 8C14.5 8.27614 14.2761 8.5 14 8.5H2C1.72386 8.5 1.5 8.27614 1.5 8Z" fill="#777B92"/>
<path fill-rule="evenodd" clip-rule="evenodd" d="M8.5 11.2071V15C8.5 15.2761 8.27614 15.5 8 15.5C7.72386 15.5 7.5 15.2761 7.5 15V11.2071L6.35355 12.3536C6.15829 12.5488 5.84171 12.5488 5.64645 12.3536C5.45118 12.1583 5.45118 11.8417 5.64645 11.6464L7.64645 9.64645C7.84171 9.45118 8.15829 9.45118 8.35355 9.64645L10.3536 11.6464C10.5488 11.8417 10.5488 12.1583 10.3536 12.3536C10.1583 12.5488 9.84171 12.5488 9.64645 12.3536L8.5 11.2071Z" fill="#777B92"/>
</svg>
