<svg width="16" height="16" viewBox="0 0 16 16" fill="none" xmlns="http://www.w3.org/2000/svg">
<path fill-rule="evenodd" clip-rule="evenodd" d="M6.7223 4.41577C6.7223 4.41577 6.25178 4.08086 6.52913 3.66484C6.80648 3.24881 7.27819 3.58452 7.27819 3.58452L7.27922 3.58521L7.28183 3.58697L7.28919 3.592L7.31222 3.60813C7.33114 3.62158 7.35706 3.64046 7.38896 3.66477C7.45272 3.71335 7.54067 3.78382 7.64468 3.87628C7.85231 4.06084 8.12634 4.33511 8.4 4.69998C8.94844 5.43123 9.5 6.5339 9.5 7.99998C9.5 9.46606 8.94844 10.5687 8.4 11.3C8.12634 11.6649 7.85231 11.9391 7.64468 12.1237C7.54067 12.2161 7.45272 12.2866 7.38896 12.3352C7.35706 12.3595 7.33114 12.3784 7.31222 12.3918L7.28919 12.408L7.28183 12.413L7.27922 12.4148L7.27819 12.4154L7.27735 12.416C7.04759 12.5692 6.73715 12.5071 6.58397 12.2773C6.43093 12.0478 6.49302 11.7375 6.72229 11.5842L6.7327 11.5769C6.74308 11.5695 6.76013 11.5571 6.78292 11.5398C6.82853 11.505 6.89683 11.4505 6.98032 11.3763C7.14769 11.2275 7.37366 11.0018 7.6 10.7C8.05156 10.0979 8.5 9.20057 8.5 7.99998C8.5 6.7994 8.05156 5.90206 7.6 5.29998C7.37366 4.99819 7.14769 4.77246 6.98032 4.62369C6.89683 4.54947 6.82853 4.49495 6.78292 4.4602C6.76013 4.44284 6.74308 4.43046 6.7327 4.42308L6.7223 4.41577Z" fill="#777B92"/>
<path fill-rule="evenodd" clip-rule="evenodd" d="M2 0.5H14C14.8284 0.5 15.5 1.17157 15.5 2V14C15.5 14.8284 14.8284 15.5 14 15.5H2C1.17157 15.5 0.5 14.8284 0.5 14V2C0.5 1.17157 1.17157 0.5 2 0.5ZM1.5 2V14C1.5 14.2761 1.72386 14.5 2 14.5H14C14.2761 14.5 14.5 14.2761 14.5 14V2C14.5 1.72386 14.2761 1.5 14 1.5H2C1.72386 1.5 1.5 1.72386 1.5 2Z" fill="#777B92"/>
</svg>
