<svg width="16" height="16" viewBox="0 0 16 16" fill="none" xmlns="http://www.w3.org/2000/svg">
<path fill-rule="evenodd" clip-rule="evenodd" d="M4.5 1V7C4.5 8.933 6.067 10.5 8 10.5C9.933 10.5 11.5 8.933 11.5 7V1C11.5 0.723858 11.7239 0.5 12 0.5C12.2761 0.5 12.5 0.723858 12.5 1V7C12.5 9.48528 10.4853 11.5 8 11.5C5.51472 11.5 3.5 9.48528 3.5 7V1C3.5 0.723858 3.72386 0.5 4 0.5C4.27614 0.5 4.5 0.723858 4.5 1Z" fill="#777B92"/>
<path fill-rule="evenodd" clip-rule="evenodd" d="M2 14.5H14C14.2761 14.5 14.5 14.7239 14.5 15C14.5 15.2761 14.2761 15.5 14 15.5H2C1.72386 15.5 1.5 15.2761 1.5 15C1.5 14.7239 1.72386 14.5 2 14.5Z" fill="#777B92"/>
</svg>
