<svg width="16" height="16" viewBox="0 0 16 16" fill="none" xmlns="http://www.w3.org/2000/svg">
<path fill-rule="evenodd" clip-rule="evenodd" d="M2.37964 15.3254C2.19993 15.5351 1.88428 15.5593 1.67461 15.3796C1.46495 15.1999 1.44067 14.8843 1.62038 14.6746L7.37964 7.95547C7.45731 7.86485 7.50001 7.74943 7.50001 7.63008V2.20711L5.35356 4.35355C5.1583 4.54882 4.84172 4.54882 4.64646 4.35355C4.45119 4.15829 4.45119 3.84171 4.64646 3.64645L7.64646 0.646446C7.84172 0.451185 8.1583 0.451185 8.35356 0.646446L11.3536 3.64645C11.5488 3.84171 11.5488 4.15829 11.3536 4.35355C11.1583 4.54882 10.8417 4.54882 10.6465 4.35355L8.50001 2.20711V7.63008C8.50001 7.98814 8.37192 8.3344 8.13889 8.60626L2.37964 15.3254Z" fill="#777B92"/>
<path fill-rule="evenodd" clip-rule="evenodd" d="M13.6095 15.3123L9.60955 10.3123C9.43704 10.0967 9.472 9.78206 9.68763 9.60956C9.90326 9.43705 10.2179 9.47201 10.3904 9.68764L14.3904 14.6876C14.5629 14.9033 14.528 15.2179 14.3123 15.3904C14.0967 15.5629 13.7821 15.528 13.6095 15.3123Z" fill="#777B92"/>
</svg>
