<svg width="16" height="16" viewBox="0 0 16 16" fill="none" xmlns="http://www.w3.org/2000/svg">
<path fill-rule="evenodd" clip-rule="evenodd" d="M10.3536 3.64645L12.3536 5.64645C12.5488 5.84171 12.5488 6.15829 12.3536 6.35355L6.85356 11.8536C6.78376 11.9234 6.69486 11.9709 6.59807 11.9903L4.09807 12.4903C3.93414 12.5231 3.76467 12.4718 3.64645 12.3536C3.52824 12.2353 3.47693 12.0659 3.50972 11.9019L4.00972 9.40194C4.02908 9.30515 4.07665 9.21625 4.14645 9.14645L7.64475 5.64815L7.64645 5.64645L7.64815 5.64475L9.64645 3.64645C9.84172 3.45118 10.1583 3.45118 10.3536 3.64645ZM10 7.2929L11.2929 6L10 4.70711L8.70711 6L10 7.2929ZM8 6.70711L4.96061 9.74651L4.63739 11.3626L6.2535 11.0394L9.2929 8L8 6.70711Z" fill="#777B92"/>
</svg>
