<svg width="16" height="16" viewBox="0 0 16 16" fill="none" xmlns="http://www.w3.org/2000/svg">
<path fill-rule="evenodd" clip-rule="evenodd" d="M11.5 1C11.5 0.723858 11.7239 0.5 12 0.5H15C15.2761 0.5 15.5 0.723858 15.5 1V9C15.5 9.27614 15.2761 9.5 15 9.5H12C11.7239 9.5 11.5 9.27614 11.5 9V1ZM12.5 1.5V8.5H14.5V1.5H12.5Z" fill="#777B92"/>
<path fill-rule="evenodd" clip-rule="evenodd" d="M0.5 12C0.5 11.7239 0.723858 11.5 1 11.5H9C9.27614 11.5 9.5 11.7239 9.5 12V15C9.5 15.2761 9.27614 15.5 9 15.5H1C0.723858 15.5 0.5 15.2761 0.5 15V12ZM1.5 12.5V14.5H8.5V12.5H1.5Z" fill="#777B92"/>
<path fill-rule="evenodd" clip-rule="evenodd" d="M8.35355 1.64645L9.35355 2.64645C9.50573 2.79863 9.54346 3.03111 9.44721 3.22361L8.94721 4.22361C8.82372 4.4706 8.52338 4.57071 8.27639 4.44721C8.0294 4.32372 7.92929 4.02338 8.05279 3.77639L8.15904 3.56389C5.79483 3.92663 3.92663 5.79483 3.56389 8.15904L3.77639 8.05279C4.02338 7.92929 4.32372 8.0294 4.44721 8.27639C4.57071 8.52338 4.4706 8.82372 4.22361 8.94721L3.22361 9.44721C3.03111 9.54346 2.79863 9.50573 2.64645 9.35355L1.64645 8.35355C1.45118 8.15829 1.45118 7.84171 1.64645 7.64645C1.84171 7.45118 2.15829 7.45118 2.35355 7.64645L2.5948 7.88769C3.06012 5.1892 5.1892 3.06012 7.88769 2.5948L7.64645 2.35355C7.45118 2.15829 7.45118 1.84171 7.64645 1.64645C7.84171 1.45118 8.15829 1.45118 8.35355 1.64645Z" fill="#777B92"/>
</svg>
