<svg width="16" height="16" viewBox="0 0 16 16" fill="none" xmlns="http://www.w3.org/2000/svg">
<path fill-rule="evenodd" clip-rule="evenodd" d="M11 0.5C11.2761 0.5 11.5 0.723858 11.5 1C11.5 1.27614 11.2761 1.5 11 1.5H9.40431L6.61859 14.5H8C8.27614 14.5 8.5 14.7239 8.5 15C8.5 15.2761 8.27614 15.5 8 15.5H6.00976C6.00367 15.5001 5.99756 15.5001 5.99143 15.5H4C3.72386 15.5 3.5 15.2761 3.5 15C3.5 14.7239 3.72386 14.5 4 14.5H5.59589L8.38161 1.5H7C6.72386 1.5 6.5 1.27614 6.5 1C6.5 0.723858 6.72386 0.5 7 0.5H8.9886C8.99592 0.499838 9.00326 0.499837 9.01063 0.5H11Z" fill="#777B92"/>
</svg>
