<svg width="16" height="16" viewBox="0 0 16 16" fill="none" xmlns="http://www.w3.org/2000/svg">
<path d="M2.55542 0.771209C2.64112 0.604674 2.81271 0.5 3 0.5H13C13.2761 0.5 13.5 0.723858 13.5 1C13.5 1.27614 13.2761 1.5 13 1.5H3.9716L8.40687 7.70938C8.53105 7.88323 8.53105 8.11677 8.40687 8.29062L3.9716 14.5H13C13.2761 14.5 13.5 14.7239 13.5 15C13.5 15.2761 13.2761 15.5 13 15.5H3C2.81271 15.5 2.64112 15.3953 2.55542 15.2288C2.46972 15.0623 2.48427 14.8618 2.59314 14.7094L7.38555 8L2.59314 1.29062C2.48427 1.13821 2.46972 0.937745 2.55542 0.771209Z" fill="#777B92"/>
</svg>
