<svg width="16" height="16" viewBox="0 0 16 16" fill="none" xmlns="http://www.w3.org/2000/svg">
<path fill-rule="evenodd" clip-rule="evenodd" d="M1.5 7C1.5 10.0376 3.96243 12.5 7 12.5C9.03515 12.5 10.8128 11.3949 11.7645 9.74964C11.9028 9.51061 12.2086 9.42893 12.4477 9.5672C12.6867 9.70547 12.7684 10.0113 12.6301 10.2504C12.4289 10.5982 12.1963 10.9258 11.9362 11.2291L15.3536 14.6464C15.5488 14.8417 15.5488 15.1583 15.3536 15.3536C15.1583 15.5488 14.8417 15.5488 14.6464 15.3536L11.2291 11.9362C10.0926 12.9107 8.61523 13.5 7 13.5C3.41015 13.5 0.5 10.5899 0.5 7C0.5 3.41015 3.41015 0.5 7 0.5C7.27614 0.5 7.5 0.723858 7.5 1C7.5 1.27614 7.27614 1.5 7 1.5C3.96243 1.5 1.5 3.96243 1.5 7Z" fill="#777B92"/>
<path fill-rule="evenodd" clip-rule="evenodd" d="M10.5 1V2.5H12.5V1C12.5 0.723858 12.7239 0.5 13 0.5C13.2761 0.5 13.5 0.723858 13.5 1V2.5H15C15.2761 2.5 15.5 2.72386 15.5 3C15.5 3.27614 15.2761 3.5 15 3.5H13.5V5.5H15C15.2761 5.5 15.5 5.72386 15.5 6C15.5 6.27614 15.2761 6.5 15 6.5H13.5V8C13.5 8.27614 13.2761 8.5 13 8.5C12.7239 8.5 12.5 8.27614 12.5 8V6.5H10.5V8C10.5 8.27614 10.2761 8.5 10 8.5C9.72386 8.5 9.5 8.27614 9.5 8V6.5H8C7.72386 6.5 7.5 6.27614 7.5 6C7.5 5.72386 7.72386 5.5 8 5.5H9.5V3.5H8C7.72386 3.5 7.5 3.27614 7.5 3C7.5 2.72386 7.72386 2.5 8 2.5H9.5V1C9.5 0.723858 9.72386 0.5 10 0.5C10.2761 0.5 10.5 0.723858 10.5 1ZM12.5 5.5V3.5H10.5V5.5H12.5Z" fill="#777B92"/>
</svg>
