<svg width="16" height="16" viewBox="0 0 16 16" fill="none" xmlns="http://www.w3.org/2000/svg">
<path fill-rule="evenodd" clip-rule="evenodd" d="M10.5 3.41465V4.58535C10.9262 4.736 11.264 5.07379 11.4146 5.5H12.5854C12.7913 4.9174 13.3469 4.5 14 4.5C14.8284 4.5 15.5 5.17157 15.5 6C15.5 6.82843 14.8284 7.5 14 7.5C13.3469 7.5 12.7913 7.0826 12.5854 6.5H11.4146C11.264 6.92621 10.9262 7.264 10.5 7.41465V8.58535C11.0826 8.79127 11.5 9.34689 11.5 10C11.5 10.8284 10.8284 11.5 10 11.5C9.17157 11.5 8.5 10.8284 8.5 10C8.5 9.34689 8.9174 8.79127 9.5 8.58535V7.41465C9.07379 7.264 8.736 6.92621 8.58535 6.5H7.41465C7.20873 7.0826 6.65311 7.5 6 7.5C5.17157 7.5 4.5 6.82843 4.5 6C4.5 5.17157 5.17157 4.5 6 4.5C6.65311 4.5 7.20873 4.9174 7.41465 5.5H8.58535C8.736 5.07379 9.07379 4.736 9.5 4.58535V3.41465C8.9174 3.20873 8.5 2.65311 8.5 2C8.5 1.17157 9.17157 0.5 10 0.5C10.8284 0.5 11.5 1.17157 11.5 2C11.5 2.65311 11.0826 3.20873 10.5 3.41465ZM10 1.5C9.72386 1.5 9.5 1.72386 9.5 2C9.5 2.27614 9.72386 2.5 10 2.5C10.2761 2.5 10.5 2.27614 10.5 2C10.5 1.72386 10.2761 1.5 10 1.5ZM6 5.5C5.72386 5.5 5.5 5.72386 5.5 6C5.5 6.27614 5.72386 6.5 6 6.5C6.27614 6.5 6.5 6.27614 6.5 6C6.5 5.72386 6.27614 5.5 6 5.5ZM10 6.5C10.2761 6.5 10.5 6.27614 10.5 6C10.5 5.72386 10.2761 5.5 10 5.5C9.72386 5.5 9.5 5.72386 9.5 6C9.5 6.27614 9.72386 6.5 10 6.5ZM13.5 6C13.5 6.27614 13.7239 6.5 14 6.5C14.2761 6.5 14.5 6.27614 14.5 6C14.5 5.72386 14.2761 5.5 14 5.5C13.7239 5.5 13.5 5.72386 13.5 6ZM9.5 10C9.5 10.2761 9.72386 10.5 10 10.5C10.2761 10.5 10.5 10.2761 10.5 10C10.5 9.72386 10.2761 9.5 10 9.5C9.72386 9.5 9.5 9.72386 9.5 10Z" fill="#777B92"/>
<path fill-rule="evenodd" clip-rule="evenodd" d="M13.688 12.9808L15.3536 14.6464C15.5488 14.8417 15.5488 15.1583 15.3536 15.3536C15.1583 15.5488 14.8417 15.5488 14.6464 15.3536L12.9738 13.6809C11.6361 14.8264 9.89064 15.5 8 15.5C3.85786 15.5 0.5 12.1421 0.5 7.99998C0.5 4.2323 3.1755 1.04183 6.92929 0.505577C7.20266 0.466525 7.45592 0.656474 7.49497 0.929841C7.53403 1.20321 7.34408 1.45647 7.07071 1.49553C3.8245 1.95927 1.5 4.71471 1.5 7.99998C1.5 11.5898 4.41015 14.5 8 14.5C11.2854 14.5 14.0413 12.1759 14.505 8.92984C14.5441 8.65647 14.7973 8.46652 15.0707 8.50558C15.3441 8.54463 15.534 8.7979 15.495 9.07126C15.2788 10.5847 14.631 11.9228 13.688 12.9808Z" fill="#777B92"/>
</svg>
