<svg width="16" height="16" viewBox="0 0 16 16" fill="none" xmlns="http://www.w3.org/2000/svg">
<path fill-rule="evenodd" clip-rule="evenodd" d="M1.5 2V14C1.5 14.2761 1.72386 14.5 2 14.5H14C14.2761 14.5 14.5 14.2761 14.5 14V8C14.5 7.72386 14.7239 7.5 15 7.5C15.2761 7.5 15.5 7.72386 15.5 8V14C15.5 14.8284 14.8284 15.5 14 15.5H2C1.17157 15.5 0.5 14.8284 0.5 14V2C0.5 1.17157 1.17157 0.5 2 0.5H8C8.27614 0.5 8.5 0.723858 8.5 1C8.5 1.27614 8.27614 1.5 8 1.5H2C1.72386 1.5 1.5 1.72386 1.5 2Z" fill="#777B92"/>
<path fill-rule="evenodd" clip-rule="evenodd" d="M11 0.5H15C15.2761 0.5 15.5 0.723858 15.5 1V5C15.5 5.27614 15.2761 5.5 15 5.5C14.7239 5.5 14.5 5.27614 14.5 5V2.20711L8.35355 8.35355C8.15829 8.54882 7.84171 8.54882 7.64645 8.35355C7.45118 8.15829 7.45118 7.84171 7.64645 7.64645L13.7929 1.5H11C10.7239 1.5 10.5 1.27614 10.5 1C10.5 0.723858 10.7239 0.5 11 0.5Z" fill="#777B92"/>
</svg>
