<svg width="16" height="16" viewBox="0 0 16 16" fill="none" xmlns="http://www.w3.org/2000/svg">
<path fill-rule="evenodd" clip-rule="evenodd" d="M4 12C4 12.5523 3.55228 13 3 13C2.44772 13 2 12.5523 2 12C2 11.4477 2.44772 11 3 11C3.55228 11 4 11.4477 4 12Z" fill="#777B92"/>
<path fill-rule="evenodd" clip-rule="evenodd" d="M3 9C2.44772 9 2 8.55228 2 8C2 7.44772 2.44772 7 3 7C3.55228 7 4 7.44772 4 8C4 8.55228 3.55228 9 3 9Z" fill="#777B92"/>
<path fill-rule="evenodd" clip-rule="evenodd" d="M3 5C2.44772 5 2 4.55228 2 4C2 3.44772 2.44772 3 3 3C3.55228 3 4 3.44772 4 4C4 4.55228 3.55228 5 3 5Z" fill="#777B92"/>
<path fill-rule="evenodd" clip-rule="evenodd" d="M2 0.5H14C14.8284 0.5 15.5 1.17157 15.5 2V5C15.5 5.38418 15.3556 5.73462 15.1181 6C15.3556 6.26538 15.5 6.61582 15.5 7V9C15.5 9.38418 15.3556 9.73462 15.1181 10C15.3556 10.2654 15.5 10.6158 15.5 11V14C15.5 14.8284 14.8284 15.5 14 15.5H2C1.17157 15.5 0.5 14.8284 0.5 14V11C0.5 10.6158 0.644427 10.2654 0.881947 10C0.644427 9.73462 0.5 9.38418 0.5 9V7C0.5 6.61582 0.644427 6.26538 0.881947 6C0.644427 5.73462 0.5 5.38418 0.5 5V2C0.5 1.17157 1.17157 0.5 2 0.5ZM14 10.5H2C1.72386 10.5 1.5 10.7239 1.5 11V14C1.5 14.2761 1.72386 14.5 2 14.5H14C14.2761 14.5 14.5 14.2761 14.5 14V11C14.5 10.7239 14.2761 10.5 14 10.5ZM2 9.5H14C14.2761 9.5 14.5 9.27614 14.5 9V7C14.5 6.72386 14.2761 6.5 14 6.5H2C1.72386 6.5 1.5 6.72386 1.5 7V9C1.5 9.27614 1.72386 9.5 2 9.5ZM1.5 2V5C1.5 5.27614 1.72386 5.5 2 5.5H14C14.2761 5.5 14.5 5.27614 14.5 5V2C14.5 1.72386 14.2761 1.5 14 1.5H2C1.72386 1.5 1.5 1.72386 1.5 2Z" fill="#777B92"/>
</svg>
