<svg width="16" height="16" viewBox="0 0 16 16" fill="none" xmlns="http://www.w3.org/2000/svg">
<path fill-rule="evenodd" clip-rule="evenodd" d="M1.5 4C1.5 4.24513 1.6138 4.52048 1.90597 4.81652C2.20026 5.11471 2.65089 5.40618 3.24721 5.66175C4.43808 6.17212 6.1181 6.5 8 6.5C8.27614 6.5 8.5 6.72386 8.5 7C8.5 7.27614 8.27614 7.5 8 7.5C6.01843 7.5 4.20056 7.15718 2.85842 6.58309C2.33463 6.79022 2.00617 7.01858 1.80635 7.23691C1.58127 7.48284 1.5 7.73615 1.5 7.99998C1.5 8.24511 1.6138 8.52045 1.90597 8.81649C2.20026 9.11469 2.65089 9.40616 3.24721 9.66172C4.43808 10.1721 6.1181 10.5 8 10.5C8.27614 10.5 8.5 10.7238 8.5 11C8.5 11.2761 8.27614 11.5 8 11.5C6.01845 11.5 4.20059 11.1572 2.85845 10.5831C2.33464 10.7902 2.00617 11.0186 1.80635 11.2369C1.58127 11.4828 1.5 11.7362 1.5 12C1.5 12.2451 1.6138 12.5205 1.90597 12.8165C2.20026 13.1147 2.65089 13.4062 3.24721 13.6617C4.43808 14.1721 6.1181 14.5 8 14.5C8.27614 14.5 8.5 14.7238 8.5 15C8.5 15.2761 8.27614 15.5 8 15.5C6.01591 15.5 4.19593 15.1563 2.85329 14.5809C2.18286 14.2935 1.60837 13.9386 1.19422 13.5189C0.777951 13.0971 0.5 12.5833 0.5 12C0.5 11.4954 0.668731 10.9988 1.06865 10.5618C1.25758 10.3553 1.4927 10.168 1.77582 9.99937C1.55825 9.85009 1.36293 9.68988 1.19422 9.51893C0.777951 9.09714 0.5 8.58327 0.5 7.99998C0.5 7.49545 0.668731 6.99875 1.06865 6.56178C1.25758 6.35534 1.49269 6.16797 1.7758 5.99938C1.55824 5.8501 1.36293 5.68989 1.19422 5.51895C0.777951 5.09716 0.5 4.5833 0.5 4C0.5 3.4167 0.777951 2.90284 1.19422 2.48105C1.60837 2.06141 2.18286 1.70643 2.85329 1.41911C4.19593 0.843691 6.01591 0.5 8 0.5C8.27614 0.5 8.5 0.723858 8.5 1C8.5 1.27614 8.27614 1.5 8 1.5C6.1181 1.5 4.43808 1.82788 3.24721 2.33825C2.65089 2.59382 2.20026 2.88529 1.90597 3.18348C1.6138 3.47952 1.5 3.75487 1.5 4Z" fill="#777B92"/>
<path fill-rule="evenodd" clip-rule="evenodd" d="M14.0005 1.46123V2.12529L11.7118 3.70732V3.73396L14.0005 3.73396V4.50278H10.3642L10.3642 3.82806L12.6511 2.25846V2.2265L10.3642 2.2265V1.46123L14.0005 1.46123Z" fill="#777B92"/>
<path fill-rule="evenodd" clip-rule="evenodd" d="M12.1824 5.07229C12.5789 5.07229 12.9163 5.14746 13.1944 5.29779C13.4726 5.44693 13.6851 5.64994 13.8319 5.90681C13.9775 6.16367 14.0502 6.45309 14.0502 6.77506C14.0502 7.09821 13.9769 7.38822 13.8301 7.64509C13.6833 7.90195 13.4708 8.10496 13.1926 8.25411C12.9133 8.40326 12.5765 8.47783 12.1824 8.47783C11.7858 8.47783 11.4484 8.40326 11.1703 8.25411C10.8921 8.10496 10.6802 7.90195 10.5346 7.64509C10.3878 7.38822 10.3145 7.09821 10.3145 6.77506C10.3145 6.45309 10.3878 6.16367 10.5346 5.90681C10.6802 5.64994 10.8921 5.44693 11.1703 5.29779C11.4484 5.14746 11.7858 5.07229 12.1824 5.07229ZM12.1824 5.85176C11.7965 5.85176 11.5023 5.93581 11.2999 6.1039C11.0963 6.27198 10.9945 6.4957 10.9945 6.77506C10.9945 7.05442 11.0963 7.27814 11.2999 7.44622C11.5023 7.61431 11.7965 7.69836 12.1824 7.69836C12.5671 7.69836 12.8612 7.61431 13.0648 7.44622C13.2684 7.27814 13.3702 7.05442 13.3702 6.77506C13.3702 6.4957 13.2684 6.27198 13.0648 6.1039C12.8612 5.93581 12.5671 5.85176 12.1824 5.85176Z" fill="#777B92"/>
<path fill-rule="evenodd" clip-rule="evenodd" d="M11.0762 9.90228C10.9969 10.01 10.9572 10.1556 10.9572 10.3391C10.9572 10.5273 10.9957 10.6717 11.0726 10.7723C11.1496 10.8729 11.2466 10.9232 11.3638 10.9232C11.494 10.9256 11.5929 10.87 11.6603 10.7563C11.7266 10.6415 11.7781 10.5054 11.8148 10.3479L11.8929 10.0212C11.9403 9.81054 12.0089 9.62352 12.0989 9.46016C12.1889 9.29563 12.3049 9.1666 12.4469 9.07309C12.5878 8.97839 12.7594 8.93104 12.9618 8.93104C13.2944 8.93223 13.5596 9.05711 13.7573 9.30569C13.9538 9.55308 14.052 9.89873 14.052 10.3426C14.052 10.7841 13.9514 11.1363 13.7502 11.3991C13.5489 11.6619 13.2518 11.798 12.8588 11.8075V11.0635C13.0411 11.0505 13.1784 10.9789 13.2708 10.8487C13.3619 10.7173 13.4075 10.5515 13.4075 10.3515C13.4075 10.1562 13.3661 10.0005 13.2832 9.88452C13.2003 9.76734 13.0926 9.70815 12.96 9.70697C12.8369 9.70815 12.7422 9.76201 12.676 9.86854C12.6097 9.97508 12.5529 10.1272 12.5055 10.3249L12.4061 10.7208C12.3327 11.0274 12.2161 11.2695 12.0563 11.447C11.8965 11.6246 11.6828 11.7128 11.4153 11.7116C11.1951 11.7128 11.0028 11.6542 10.8382 11.5358C10.6725 11.4162 10.5441 11.2523 10.4529 11.044C10.3606 10.8356 10.3145 10.5989 10.3145 10.3337C10.3145 10.0639 10.3606 9.8283 10.4529 9.62707C10.5453 9.42465 10.6737 9.26722 10.8382 9.15477C11.0028 9.04231 11.1934 8.98431 11.41 8.98076V9.71762C11.2667 9.73182 11.1555 9.79338 11.0762 9.90228Z" fill="#777B92"/>
<path fill-rule="evenodd" clip-rule="evenodd" d="M10.3642 12.3259H12.8997C13.1341 12.3259 13.3377 12.3786 13.5105 12.484C13.6821 12.5881 13.8153 12.7331 13.91 12.919C14.0035 13.1048 14.0502 13.3208 14.0502 13.5671C14.0502 13.786 14.0112 13.9849 13.9331 14.1636C13.8549 14.3412 13.7366 14.4821 13.5779 14.5862C13.4193 14.6904 13.2193 14.7419 12.9778 14.7407V13.9754C13.1222 13.9731 13.2347 13.9316 13.3152 13.8511C13.3945 13.7695 13.4341 13.6617 13.4341 13.528C13.4341 13.2356 13.256 13.0882 12.8997 13.0859H10.3642V12.3259Z" fill="#777B92"/>
</svg>
