<svg width="16" height="16" viewBox="0 0 16 16" fill="none" xmlns="http://www.w3.org/2000/svg">
<path fill-rule="evenodd" clip-rule="evenodd" d="M5.64645 2.64645C5.84171 2.45118 6.15829 2.45118 6.35355 2.64645L8 4.29289L9.64645 2.64645C9.84171 2.45118 10.1583 2.45118 10.3536 2.64645C10.5488 2.84171 10.5488 3.15829 10.3536 3.35355L8.70711 5L10.3536 6.64645C10.5488 6.84171 10.5488 7.15829 10.3536 7.35355C10.1583 7.54882 9.84171 7.54882 9.64645 7.35355L8 5.70711L6.35355 7.35355C6.15829 7.54882 5.84171 7.54882 5.64645 7.35355C5.45118 7.15829 5.45118 6.84171 5.64645 6.64645L7.29289 5L5.64645 3.35355C5.45118 3.15829 5.45118 2.84171 5.64645 2.64645Z" fill="#777B92"/>
<path fill-rule="evenodd" clip-rule="evenodd" d="M2.5 2C2.5 1.17157 3.17157 0.5 4 0.5H12C12.8284 0.5 13.5 1.17157 13.5 2V8C13.5 8.82843 12.8284 9.5 12 9.5H4C3.17157 9.5 2.5 8.82843 2.5 8V2ZM4 1.5C3.72386 1.5 3.5 1.72386 3.5 2V8C3.5 8.27614 3.72386 8.5 4 8.5H12C12.2761 8.5 12.5 8.27614 12.5 8V2C12.5 1.72386 12.2761 1.5 12 1.5H4Z" fill="#777B92"/>
<path fill-rule="evenodd" clip-rule="evenodd" d="M0.5 15C0.5 14.7239 0.723858 14.5 1 14.5H15C15.2761 14.5 15.5 14.7239 15.5 15C15.5 15.2761 15.2761 15.5 15 15.5H1C0.723858 15.5 0.5 15.2761 0.5 15Z" fill="#777B92"/>
<path fill-rule="evenodd" clip-rule="evenodd" d="M7 12C7 11.4477 7.44772 11 8 11C8.55228 11 9 11.4477 9 12C9 12.5523 8.55228 13 8 13C7.44772 13 7 12.5523 7 12Z" fill="#777B92"/>
</svg>
