<svg width="16" height="16" viewBox="0 0 16 16" fill="none" xmlns="http://www.w3.org/2000/svg">
<path fill-rule="evenodd" clip-rule="evenodd" d="M0.5 2C0.5 1.17157 1.17157 0.5 2 0.5H7C7.82843 0.5 8.5 1.17157 8.5 2V5C8.5 5.82843 7.82843 6.5 7 6.5H2C1.17157 6.5 0.5 5.82843 0.5 5V2ZM2 1.5C1.72386 1.5 1.5 1.72386 1.5 2V5C1.5 5.27614 1.72386 5.5 2 5.5H7C7.27614 5.5 7.5 5.27614 7.5 5V2C7.5 1.72386 7.27614 1.5 7 1.5H2Z" fill="#777B92"/>
<path fill-rule="evenodd" clip-rule="evenodd" d="M7.5 11C7.5 10.1716 8.17157 9.5 9 9.5H14C14.8284 9.5 15.5 10.1716 15.5 11V14C15.5 14.8284 14.8284 15.5 14 15.5H9C8.17157 15.5 7.5 14.8284 7.5 14V11ZM9 10.5C8.72386 10.5 8.5 10.7239 8.5 11V14C8.5 14.2761 8.72386 14.5 9 14.5H14C14.2761 14.5 14.5 14.2761 14.5 14V11C14.5 10.7239 14.2761 10.5 14 10.5H9Z" fill="#777B92"/>
<path fill-rule="evenodd" clip-rule="evenodd" d="M1.5 10V12.5H4C4.27614 12.5 4.5 12.7239 4.5 13C4.5 13.2761 4.27614 13.5 4 13.5H1C0.723858 13.5 0.5 13.2761 0.5 13V10C0.5 9.72386 0.723858 9.5 1 9.5C1.27614 9.5 1.5 9.72386 1.5 10Z" fill="#777B92"/>
</svg>
