<svg width="16" height="16" viewBox="0 0 16 16" fill="none" xmlns="http://www.w3.org/2000/svg">
<path fill-rule="evenodd" clip-rule="evenodd" d="M8.5 3C8.5 2.72386 8.27614 2.5 8 2.5C7.72386 2.5 7.5 2.72386 7.5 3V4.5H6C5.72386 4.5 5.5 4.72386 5.5 5C5.5 5.27614 5.72386 5.5 6 5.5H7.5V7C7.5 7.27614 7.72386 7.5 8 7.5C8.27614 7.5 8.5 7.27614 8.5 7V5.5H10C10.2761 5.5 10.5 5.27614 10.5 5C10.5 4.72386 10.2761 4.5 10 4.5H8.5V3Z" fill="#777B92"/>
<path fill-rule="evenodd" clip-rule="evenodd" d="M2.5 2C2.5 1.17157 3.17157 0.5 4 0.5H12C12.8284 0.5 13.5 1.17157 13.5 2V8C13.5 8.82843 12.8284 9.5 12 9.5H4C3.17157 9.5 2.5 8.82843 2.5 8V2ZM4 1.5C3.72386 1.5 3.5 1.72386 3.5 2V8C3.5 8.27614 3.72386 8.5 4 8.5H12C12.2761 8.5 12.5 8.27614 12.5 8V2C12.5 1.72386 12.2761 1.5 12 1.5H4Z" fill="#777B92"/>
<path fill-rule="evenodd" clip-rule="evenodd" d="M0.5 15C0.5 14.7239 0.723858 14.5 1 14.5H15C15.2761 14.5 15.5 14.7239 15.5 15C15.5 15.2761 15.2761 15.5 15 15.5H1C0.723858 15.5 0.5 15.2761 0.5 15Z" fill="#777B92"/>
<path fill-rule="evenodd" clip-rule="evenodd" d="M8 13C7.44772 13 7 12.5523 7 12C7 11.4477 7.44772 11 8 11C8.55228 11 9 11.4477 9 12C9 12.5523 8.55228 13 8 13Z" fill="#777B92"/>
</svg>
