<svg width="16" height="16" viewBox="0 0 16 16" fill="none" xmlns="http://www.w3.org/2000/svg">
<path fill-rule="evenodd" clip-rule="evenodd" d="M8.6706 0.776273L11.6705 2.2762C12.168 2.52495 12.5294 3.05713 12.4645 3.67044C12.1408 6.73015 9.68597 8.55266 8.69643 9.1741C8.2673 9.44359 7.73232 9.4436 7.30318 9.17412C6.31361 8.55269 3.85861 6.73018 3.53489 3.67045C3.46999 3.05714 3.8314 2.52495 4.32893 2.2762L7.32901 0.776261C7.75129 0.565135 8.24833 0.56514 8.6706 0.776273ZM7.7762 1.6707L4.77612 3.17064C4.59605 3.26066 4.51452 3.42519 4.52933 3.56524C4.80148 6.13743 6.89472 7.73679 7.83499 8.32725C7.93898 8.39255 8.06062 8.39255 8.1646 8.32725C9.10483 7.73678 11.198 6.13742 11.4701 3.56523C11.4849 3.42518 11.4034 3.26066 11.2233 3.17063L8.2234 1.6707C8.08264 1.60033 7.91696 1.60033 7.7762 1.6707Z" fill="#777B92"/>
<path fill-rule="evenodd" clip-rule="evenodd" d="M9 12C9 12.5523 8.55228 13 8 13C7.44772 13 7 12.5523 7 12C7 11.4477 7.44772 11 8 11C8.55228 11 9 11.4477 9 12Z" fill="#777B92"/>
<path fill-rule="evenodd" clip-rule="evenodd" d="M0.5 15C0.5 14.7239 0.723858 14.5 1 14.5H15C15.2761 14.5 15.5 14.7239 15.5 15C15.5 15.2761 15.2761 15.5 15 15.5H1C0.723858 15.5 0.5 15.2761 0.5 15Z" fill="#777B92"/>
</svg>
