<svg width="16" height="16" viewBox="0 0 16 16" fill="none" xmlns="http://www.w3.org/2000/svg">
<path fill-rule="evenodd" clip-rule="evenodd" d="M1.5 8V10.2639C2.03076 9.78885 2.73165 9.5 3.5 9.5C5.15685 9.5 6.5 10.8431 6.5 12.5C6.5 14.1569 5.15685 15.5 3.5 15.5C1.84315 15.5 0.5 14.1569 0.5 12.5C0.5 12.3794 0.507113 12.2605 0.520943 12.1437C0.507319 12.0982 0.5 12.0499 0.5 12V8C0.5 3.85786 3.85786 0.5 8 0.5C12.1421 0.5 15.5 3.85786 15.5 8V12C15.5 12.0499 15.4927 12.0982 15.4791 12.1437C15.4929 12.2605 15.5 12.3794 15.5 12.5C15.5 14.1569 14.1569 15.5 12.5 15.5C10.8431 15.5 9.5 14.1569 9.5 12.5C9.5 10.8431 10.8431 9.5 12.5 9.5C13.2684 9.5 13.9692 9.78885 14.5 10.2639V8C14.5 4.41015 11.5899 1.5 8 1.5C4.41015 1.5 1.5 4.41015 1.5 8ZM3.5 10.5C2.39543 10.5 1.5 11.3954 1.5 12.5C1.5 13.6046 2.39543 14.5 3.5 14.5C4.60457 14.5 5.5 13.6046 5.5 12.5C5.5 11.3954 4.60457 10.5 3.5 10.5ZM12.5 10.5C11.3954 10.5 10.5 11.3954 10.5 12.5C10.5 13.6046 11.3954 14.5 12.5 14.5C13.6046 14.5 14.5 13.6046 14.5 12.5C14.5 11.3954 13.6046 10.5 12.5 10.5Z" fill="#777B92"/>
</svg>
