<svg width="16" height="16" viewBox="0 0 16 16" fill="none" xmlns="http://www.w3.org/2000/svg">
<path fill-rule="evenodd" clip-rule="evenodd" d="M5 1.5H11C11.8284 1.5 12.5 2.17157 12.5 3V4.5H14C14.8288 4.5 15.5 5.17259 15.5 6.00062V9C15.5 9.27614 15.2762 9.5 15 9.5C14.7239 9.5 14.5 9.27614 14.5 9V6.00062C14.5 5.72407 14.2758 5.5 14 5.5H2.00005C1.7239 5.5 1.50002 5.72387 1.50003 6.00004L1.5 12.0001C1.50001 12.2762 1.72385 12.5 1.99998 12.5H3.5V12C3.5 11.1716 4.17157 10.5 5 10.5H8C8.27614 10.5 8.5 10.7239 8.5 11C8.5 11.2761 8.27614 11.5 8 11.5H5C4.72386 11.5 4.5 11.7239 4.5 12V12.9958L4.50002 13L4.50001 13.003C4.50162 13.2778 4.72486 13.5 5 13.5H10C10.2761 13.5 10.5 13.7239 10.5 14C10.5 14.2761 10.2761 14.5 10 14.5H5C4.34689 14.5 3.79127 14.0826 3.58535 13.5H1.99998C1.1716 13.5 0.500025 12.8285 0.5 12.0001L0.50003 6.00006C0.500013 5.17162 1.17158 4.5 2.00005 4.5H3.5V3C3.5 2.17157 4.17157 1.5 5 1.5ZM11.5 4.5V3C11.5 2.72386 11.2761 2.5 11 2.5H5C4.72386 2.5 4.5 2.72386 4.5 3V4.5H11.5Z" fill="#777B92"/>
<path fill-rule="evenodd" clip-rule="evenodd" d="M12.5 14L10 11H15L12.5 14Z" fill="#777B92"/>
</svg>
