<svg width="16" height="16" viewBox="0 0 16 16" fill="none" xmlns="http://www.w3.org/2000/svg">
<path fill-rule="evenodd" clip-rule="evenodd" d="M11.5 14C11.2239 14 11 13.7761 11 13.5C11 13.2239 11.2239 13 11.5 13C11.7761 13 12 13.2239 12 13.5C12 13.7761 11.7761 14 11.5 14Z" fill="#777B92"/>
<path fill-rule="evenodd" clip-rule="evenodd" d="M4 0.5H12C12.8284 0.5 13.5 1.17157 13.5 2V14C13.5 14.8284 12.8284 15.5 12 15.5H4C3.17157 15.5 2.5 14.8284 2.5 14V2C2.5 1.17157 3.17157 0.5 4 0.5ZM3.5 14C3.5 14.2761 3.72386 14.5 4 14.5H12C12.2761 14.5 12.5 14.2761 12.5 14V8.5H3.5V14ZM3.5 7.5H12.5V4.5H3.5V7.5ZM12.5 3.5V2C12.5 1.72386 12.2761 1.5 12 1.5H4C3.72386 1.5 3.5 1.72386 3.5 2V3.5H12.5Z" fill="#777B92"/>
</svg>
