<svg width="24" height="24" viewBox="0 0 24 24" fill="none" xmlns="http://www.w3.org/2000/svg">
<path fill-rule="evenodd" clip-rule="evenodd" d="M12 4C7.58172 4 4 7.58172 4 12C4 16.4183 7.58172 20 12 20C16.4183 20 20 16.4183 20 12C20 11.3876 19.9314 10.7924 19.8018 10.2213C19.6796 9.68269 20.0171 9.147 20.5557 9.02479C21.0943 8.90258 21.63 9.24012 21.7522 9.77871C21.9145 10.4941 22 11.2377 22 12C22 17.5228 17.5228 22 12 22C6.47715 22 2 17.5228 2 12C2 6.47715 6.47715 2 12 2C12.5523 2 13 2.44772 13 3C13 3.55228 12.5523 4 12 4Z" fill="#777B92"/>
<path fill-rule="evenodd" clip-rule="evenodd" d="M17 2C17.5523 2 18 2.44772 18 3V4H19C19.5523 4 20 4.44772 20 5C20 5.55228 19.5523 6 19 6H18V7C18 7.55228 17.5523 8 17 8C16.4477 8 16 7.55228 16 7V6H15C14.4477 6 14 5.55228 14 5C14 4.44772 14.4477 4 15 4H16V3C16 2.44772 16.4477 2 17 2Z" fill="#777B92"/>
<path fill-rule="evenodd" clip-rule="evenodd" d="M13 11V16C13 16.5523 12.5523 17 12 17C11.4477 17 11 16.5523 11 16V11C11 10.4477 11.4477 10 12 10C12.5523 10 13 10.4477 13 11Z" fill="#777B92"/>
<path fill-rule="evenodd" clip-rule="evenodd" d="M12 9C11.4477 9 11 8.55228 11 8C11 7.44772 11.4477 7 12 7C12.5523 7 13 7.44772 13 8C13 8.55228 12.5523 9 12 9Z" fill="#777B92"/>
</svg>
