<svg width="24" height="24" viewBox="0 0 24 24" fill="none" xmlns="http://www.w3.org/2000/svg">
<path fill-rule="evenodd" clip-rule="evenodd" d="M5 2H19C19.5523 2 20 2.44772 20 3C20 3.55228 19.5523 4 19 4H18V7.47934C18 8.13197 17.6816 8.74355 17.1469 9.11781L13.7438 11.5L17.1469 13.8822C17.6816 14.2564 18 14.868 18 15.5207V20H19C19.5523 20 20 20.4477 20 21C20 21.5523 19.5523 22 19 22H5C4.44772 22 4 21.5523 4 21C4 20.4477 4.44772 20 5 20H6V15.5207C6 14.868 6.31842 14.2564 6.85308 13.8822L10.2562 11.5L6.85308 9.11781C6.31842 8.74355 6 8.13197 6 7.47934V4H5C4.44772 4 4 3.55228 4 3C4 2.44772 4.44772 2 5 2ZM8 4V7.47934L12 10.2793L16 7.47934V4H8ZM12 12.7207L8 15.5207V20H16V15.5207L12 12.7207Z" fill="#777B92"/>
</svg>
