<svg width="24" height="24" viewBox="0 0 24 24" fill="none" xmlns="http://www.w3.org/2000/svg">
<path d="M17 5L17 19C17 19.5523 16.5523 20 16 20C15.4477 20 15 19.5523 15 19V18.9055C14.1776 19.5876 13.1479 20 12 20C9.1311 20 7 17.4236 7 14.5C7 11.5764 9.1311 9 12 9C13.1479 9 14.1776 9.41244 15 10.0945V5C15 4.44772 15.4477 4 16 4C16.5523 4 17 4.44772 17 5ZM15 14.5C15 12.453 13.5494 11 12 11C10.4506 11 9 12.453 9 14.5C9 16.547 10.4506 18 12 18C13.5494 18 15 16.547 15 14.5Z" fill="#777B92"/>
</svg>
