<svg width="24" height="24" viewBox="0 0 24 24" fill="none" xmlns="http://www.w3.org/2000/svg">
<path fill-rule="evenodd" clip-rule="evenodd" d="M10.8944 3.32907C10.3314 3.04754 9.66863 3.04754 9.10557 3.32907L6.10557 4.82907C5.428 5.16785 5 5.86038 5 6.61792V10.3819L2.10557 11.8291C1.428 12.1678 1 12.8604 1 13.6179V17.3819C1 18.1394 1.428 18.8319 2.10557 19.1707L5.10557 20.6707C5.66863 20.9522 6.33137 20.9522 6.89443 20.6707L9.89443 19.1707C9.93033 19.1528 9.96553 19.1338 10 19.1139C10.0345 19.1338 10.0697 19.1528 10.1056 19.1707L13.1056 20.6707C13.6686 20.9522 14.3314 20.9522 14.8944 20.6707L17.8944 19.1707C18.572 18.8319 19 18.1394 19 17.3819V13.6179L21.8944 12.1707C22.572 11.8319 23 11.1394 23 10.3819V6.61792C23 5.86038 22.572 5.16785 21.8944 4.82907L18.8944 3.32907C18.3314 3.04754 17.6686 3.04754 17.1056 3.32907L14.1056 4.82907C14.0697 4.84702 14.0345 4.86596 14 4.88585C13.9655 4.86596 13.9303 4.84702 13.8944 4.82907L10.8944 3.32907ZM17 13.6179L14.1056 12.1707L14 12.1179L13.8944 12.1707L11 13.6179V17.3819L14 18.8819L17 17.3819V13.6179ZM17.8961 11.8299L18 11.8819L21 10.3819V6.61792L18 5.11792L15 6.61792V10.3819L17.8944 11.8291C17.895 11.8293 17.8955 11.8296 17.8961 11.8299ZM13 10.3819V6.61792L10 5.11792L7 6.61792V10.3819L9.89443 11.8291L9.8956 11.8297L10 11.8819L10.1044 11.8297C10.1048 11.8295 10.1052 11.8293 10.1056 11.8291L13 10.3819ZM9 13.6179L6.10557 12.1707L6 12.1179L3 13.6179V17.3819L6 18.8819L9 17.3819V13.6179Z" fill="currentColor"/>
</svg>
