<svg width="24" height="24" viewBox="0 0 24 24" fill="none" xmlns="http://www.w3.org/2000/svg">
<path fill-rule="evenodd" clip-rule="evenodd" d="M10.8944 1.32907C10.3314 1.04754 9.66863 1.04754 9.10557 1.32907L6.10557 2.82907C5.428 3.16785 5 3.86038 5 4.61792V8.38185C5 9.1394 5.428 9.83192 6.10557 10.1707L9 11.6179V15.3819C9 16.1394 9.428 16.8319 10.1056 17.1707L13.1056 18.6707C13.6686 18.9522 14.3314 18.9522 14.8944 18.6707L17.8944 17.1707C18.572 16.8319 19 16.1394 19 15.3819V11.6179L21.8944 10.1707C22.572 9.83192 23 9.1394 23 8.38185V4.61792C23 3.86038 22.572 3.16785 21.8944 2.82907L18.8944 1.32907C18.3314 1.04754 17.6686 1.04754 17.1056 1.32907L14.1056 2.82907C14.0697 2.84702 14.0345 2.86596 14 2.88585C13.9655 2.86596 13.9303 2.84702 13.8944 2.82907L10.8944 1.32907ZM17 11.6179L14.1056 10.1707L14 10.1179L13.8944 10.1707L11 11.6179V15.3819L14 16.8819L17 15.3819V11.6179ZM17.8961 9.82989L18 9.88185L21 8.38185V4.61792L18 3.11792L15 4.61792V8.38185L17.8944 9.82907C17.895 9.82934 17.8955 9.82962 17.8961 9.82989ZM13 8.38185V4.61792L10 3.11792L7 4.61792V8.38185L10 9.88185L10.1044 9.82965C10.1048 9.82946 10.1052 9.82926 10.1056 9.82907L13 8.38185ZM3 5.99989C3 5.4476 2.55228 4.99989 2 4.99989C1.44772 4.99989 1 5.4476 1 5.99989V20.9999C1 22.1045 1.89543 22.9999 3 22.9999H18C18.5523 22.9999 19 22.5522 19 21.9999C19 21.4476 18.5523 20.9999 18 20.9999H3V5.99989Z" fill="currentColor"/>
</svg>
