<svg width="24" height="24" viewBox="0 0 24 24" fill="none" xmlns="http://www.w3.org/2000/svg">
<path fill-rule="evenodd" clip-rule="evenodd" d="M3.29289 3.29289C3.68342 2.90237 4.31658 2.90237 4.70711 3.29289L20.7071 19.2929C21.0976 19.6834 21.0976 20.3166 20.7071 20.7071C20.3166 21.0976 19.6834 21.0976 19.2929 20.7071L3.29289 4.70711C2.90237 4.31658 2.90237 3.68342 3.29289 3.29289ZM8 5C8 4.44772 8.44772 4 9 4H20C21.1046 4 22 4.89543 22 6V16C22 16.5523 21.5523 17 21 17C20.4477 17 20 16.5523 20 16V6H9C8.44772 6 8 5.55228 8 5ZM3 7C3.55228 7 4 7.44772 4 8V20.2338L7.24799 18.285C7.55882 18.0985 7.9145 18 8.27698 18H14C14.5523 18 15 18.4477 15 19C15 19.5523 14.5523 20 14 20H8.27698L5.02899 21.9488C3.69595 22.7486 2 21.7884 2 20.2338V8C2 7.44772 2.44772 7 3 7ZM16 13C16.5523 13 17 12.5523 17 12C17 11.4477 16.5523 11 16 11C15.4477 11 15 11.4477 15 12C15 12.5523 15.4477 13 16 13Z" fill="currentColor"/>
</svg>
