<svg width="24" height="24" viewBox="0 0 24 24" fill="none" xmlns="http://www.w3.org/2000/svg">
<path fill-rule="evenodd" clip-rule="evenodd" d="M14 5.13493C14 3.43925 12.0223 2.51294 10.7196 3.59848L6.71963 6.93182C6.26365 7.3118 6 7.8747 6 8.46826V18.9999C6 20.1045 6.89543 20.9999 8 20.9999H17.3406C18.1407 20.9999 18.8637 20.5231 19.1789 19.7877L21.8383 13.5825C21.945 13.3335 22 13.0655 22 12.7946V9.99988C22 8.89531 21.1046 7.99988 20 7.99988H14V5.13493ZM8 8.46826L12 5.13493V7.99988C12 9.10445 12.8954 9.99988 14 9.99988H20V12.7946L17.3406 18.9999H8L8 8.46826ZM4 7.99988C4 7.4476 3.55228 6.99988 3 6.99988C2.44772 6.99988 2 7.4476 2 7.99988V19.9999C2 20.5522 2.44772 20.9999 3 20.9999C3.55228 20.9999 4 20.5522 4 19.9999V7.99988Z" fill="currentColor"/>
</svg>
