<svg width="24" height="24" viewBox="0 0 24 24" fill="none" xmlns="http://www.w3.org/2000/svg">
<path fill-rule="evenodd" clip-rule="evenodd" d="M6.6594 3C5.85934 3 5.13626 3.47679 4.82111 4.21216L2.16171 10.4174C2.05502 10.6664 2 10.9344 2 11.2053V14C2 15.1046 2.89543 16 4 16H10V18.865C10 20.5606 11.9777 21.4869 13.2804 20.4014L17.2804 17.0681C17.7364 16.6881 18 16.1252 18 15.5316V5C18 3.89543 17.1046 3 16 3H6.6594ZM6.6594 5H16V15.5316L12 18.865V16C12 14.8954 11.1046 14 10 14H4V11.2053L6.6594 5ZM22 4C22 3.44772 21.5523 3 21 3C20.4477 3 20 3.44772 20 4V16C20 16.5523 20.4477 17 21 17C21.5523 17 22 16.5523 22 16V4Z" fill="currentColor"/>
</svg>
