<svg width="24" height="24" viewBox="0 0 24 24" fill="none" xmlns="http://www.w3.org/2000/svg">
<path fill-rule="evenodd" clip-rule="evenodd" d="M9.12566 3.67113C8.96864 2.72901 8.13002 1.95156 7.07461 2.03495C5.69857 2.14367 4.41584 2.52089 3.46741 3.36054C2.48677 4.22871 2 5.46861 2 6.99991C2 9.75192 2.66624 12.2965 3.868 14.4818C4.13413 14.9657 4.74218 15.1423 5.22611 14.8762C5.71005 14.61 5.88661 14.002 5.62048 13.518C4.58613 11.6372 4 9.42554 4 6.99991C4 5.91421 4.32804 5.26978 4.79315 4.85801C5.27979 4.42718 6.05047 4.13229 7.15869 4.03486L7.89219 8.43603L7.27028 8.74699C6.46432 9.14997 5.91345 10.1484 6.33918 11.1496C6.53597 11.6124 6.78974 12.0792 7.07955 12.5358C7.37551 13.0021 7.99344 13.1402 8.45973 12.8442C8.92601 12.5482 9.06408 11.9303 8.76811 11.464C8.55492 11.1281 8.37662 10.8039 8.23794 10.4992L8.78662 10.2249C9.57193 9.83223 10.0093 8.97331 9.86498 8.10725L9.12566 3.67113ZM16.0751 14.1653C15.0291 13.991 14.1073 14.6531 13.7886 15.5464C13.738 15.6884 13.6868 15.8174 13.638 15.9264C13.5565 15.8995 13.4634 15.8639 13.3585 15.8171C13.0468 15.6783 12.6842 15.466 12.289 15.1851C11.8389 14.8651 11.2146 14.9707 10.8946 15.4208C10.5746 15.871 10.6802 16.4953 11.1303 16.8152C11.6003 17.1493 12.0794 17.4368 12.5448 17.6441C12.9994 17.8466 13.5015 17.9999 14 17.9999C14.4359 17.9999 14.7391 17.7688 14.8899 17.6255C15.0514 17.472 15.1713 17.294 15.2564 17.1494C15.4296 16.8552 15.5698 16.5057 15.6723 16.2185C15.6846 16.1841 15.7072 16.159 15.7277 16.1461C15.737 16.1402 15.7431 16.1386 15.7449 16.1382L15.7458 16.138L15.7462 16.1381L19.9513 16.8391C19.8245 17.8894 19.4625 18.6728 18.9816 19.185C18.4999 19.6982 17.8448 19.9999 17 19.9999C14.3955 19.9999 12.0373 19.3242 10.07 18.1426C9.59658 17.8583 8.98225 18.0116 8.6979 18.485C8.41355 18.9585 8.56685 19.5728 9.0403 19.8572C11.3285 21.2314 14.0444 21.9999 17 21.9999C18.3735 21.9999 19.5641 21.4867 20.4398 20.5539C21.3015 19.636 21.8015 18.3751 21.9513 16.9507C22.0648 15.8717 21.2637 15.0303 20.3289 14.8745L16.0751 14.1653ZM19.7071 5.70702C20.0976 5.3165 20.0976 4.68333 19.7071 4.29281C19.3166 3.90228 18.6834 3.90228 18.2929 4.29281L4.29289 18.2928C3.90237 18.6833 3.90237 19.3165 4.29289 19.707C4.68342 20.0975 5.31658 20.0975 5.70711 19.707L19.7071 5.70702Z" fill="currentColor"/>
</svg>
