<svg width="24" height="24" viewBox="0 0 24 24" fill="none" xmlns="http://www.w3.org/2000/svg">
<path fill-rule="evenodd" clip-rule="evenodd" d="M10 2C8.89543 2 8 2.89543 8 4V7C8 8.10457 8.89543 9 10 9H14C15.1046 9 16 8.10457 16 7V4C16 2.89543 15.1046 2 14 2H10ZM10 4H14V7H10V4ZM15 15C13.8954 15 13 15.8954 13 17V20C13 21.1046 13.8954 22 15 22H19C20.1046 22 21 21.1046 21 20V17C21 15.8954 20.1046 15 19 15H15ZM15 17H19V20H15V17ZM3 17C3 15.8954 3.89543 15 5 15H9C10.1046 15 11 15.8954 11 17V20C11 21.1046 10.1046 22 9 22H5C3.89543 22 3 21.1046 3 20V17ZM9 17H5V20H9V17ZM3 11C2.44772 11 2 11.4477 2 12C2 12.5523 2.44772 13 3 13H21C21.5523 13 22 12.5523 22 12C22 11.4477 21.5523 11 21 11H3Z" fill="currentColor"/>
</svg>
