<svg width="24" height="24" viewBox="0 0 24 24" fill="none" xmlns="http://www.w3.org/2000/svg">
<path fill-rule="evenodd" clip-rule="evenodd" d="M8 2C8 1.44772 8.44772 1 9 1H14C14.5523 1 15 1.44772 15 2C15 2.55228 14.5523 3 14 3H9C8.44772 3 8 2.55228 8 2ZM6 13C6 9.68629 8.68629 7 12 7C15.3137 7 18 9.68629 18 13C18 16.3137 15.3137 19 12 19C8.68629 19 6 16.3137 6 13ZM12 5C7.58172 5 4 8.58172 4 13C4 17.4183 7.58172 21 12 21C16.4183 21 20 17.4183 20 13C20 11.1513 19.3729 9.44904 18.3199 8.09436L19.7071 6.70711C20.0976 6.31658 20.0976 5.68342 19.7071 5.29289C19.3166 4.90237 18.6834 4.90237 18.2929 5.29289L16.9056 6.68014C15.551 5.62708 13.8487 5 12 5ZM12 11C12 10.4477 11.5523 10 11 10C10.4477 10 10 10.4477 10 11V13C10 14.1046 10.8954 15 12 15H14C14.5523 15 15 14.5523 15 14C15 13.4477 14.5523 13 14 13H12V11Z" fill="currentColor"/>
</svg>
