<svg width="24" height="24" viewBox="0 0 24 24" fill="none" xmlns="http://www.w3.org/2000/svg">
<path d="M14.9588 7.61364V9.31818H12.7216V15.3196C12.7216 15.9351 12.8518 16.3329 13.1122 16.5128C13.3774 16.688 13.6828 16.7756 14.0284 16.7756C14.1989 16.7756 14.348 16.7637 14.4759 16.7401C14.6037 16.7164 14.7031 16.6974 14.7741 16.6832L15.1577 18.4375C15.0346 18.4848 14.857 18.5322 14.625 18.5795C14.3977 18.6316 14.116 18.66 13.7798 18.6648C13.2211 18.6742 12.6979 18.5748 12.2102 18.3665C11.7273 18.1581 11.3366 17.8362 11.0384 17.4006C10.7448 16.965 10.598 16.4181 10.598 15.7599V9.31818H9V7.61364H10.598V5H12.7216V7.61364H14.9588Z" fill="currentColor"/>
</svg>
