<svg width="24" height="24" viewBox="0 0 24 24" fill="none" xmlns="http://www.w3.org/2000/svg">
<g clip-path="url(#clip0_501_397)">
<path fill-rule="evenodd" clip-rule="evenodd" d="M3.99997 3C2.8954 3 1.99997 3.89543 1.99997 5V17.8726C1.99509 17.9525 1.99516 18.0323 1.99997 18.1115V19C1.99997 19.5523 2.44768 20 2.99997 20C3.14505 20 3.28292 19.9691 3.40735 19.9135C3.59174 19.9695 3.79012 20 3.99997 20H17.5C18.1295 20 18.7223 19.7036 19.1 19.2L23.6 13.2C24.5888 11.8815 23.6481 10 22 10H21V8C21 6.89543 20.1045 6 19 6H12.4142L9.99997 3.58579C9.6249 3.21071 9.11619 3 8.58576 3H3.99997ZM19 10V8H12.4142C11.8837 8 11.375 7.78929 11 7.41421L8.58576 5H3.99997V14.6667L6.89997 10.8C7.27768 10.2964 7.87045 10 8.49997 10H19ZM3.99997 18L8.49997 12H20H22L17.5 18H3.99997Z" fill="currentColor"/>
</g>
<defs>
<clipPath id="clip0_501_397">
<rect width="24" height="24" fill="white"/>
</clipPath>
</defs>
</svg>
