<svg width="24" height="24" viewBox="0 0 24 24" fill="none" xmlns="http://www.w3.org/2000/svg">
<path fill-rule="evenodd" clip-rule="evenodd" d="M21.7071 2.29289C22.0976 2.68342 22.0976 3.31658 21.7071 3.70711L20.4142 5L21.7071 6.29289C22.0976 6.68342 22.0976 7.31658 21.7071 7.70711C21.3166 8.09763 20.6834 8.09763 20.2929 7.70711L19 6.41421L17.7071 7.70711C17.3166 8.09763 16.6834 8.09763 16.2929 7.70711C15.9024 7.31658 15.9024 6.68342 16.2929 6.29289L17.5858 5L16.2929 3.70711C15.9024 3.31658 15.9024 2.68342 16.2929 2.29289C16.6834 1.90237 17.3166 1.90237 17.7071 2.29289L19 3.58579L20.2929 2.29289C20.6834 1.90237 21.3166 1.90237 21.7071 2.29289ZM2 9C2 7.89543 2.89543 7 4 7H7H10.7108C11.2412 7 11.7499 7.21071 12.125 7.58579L16.4142 11.875C16.7893 12.2501 17 12.7588 17 13.2892V20C17 21.1046 16.1046 22 15 22H12H7H4C2.89543 22 2 21.1046 2 20V9ZM8 20H11V18H8V20ZM13 20V18C13 16.8954 12.1046 16 11 16H8C6.89543 16 6 16.8954 6 18V20H4V9H6V11C6 12.1046 6.89543 13 8 13H9C9.55228 13 10 12.5523 10 12C10 11.4477 9.55228 11 9 11H8V9H10.7108L15 13.2892V20H13Z" fill="currentColor"/>
</svg>
