<svg width="24" height="24" viewBox="0 0 24 24" fill="none" xmlns="http://www.w3.org/2000/svg">
<path fill-rule="evenodd" clip-rule="evenodd" d="M2 4C2 2.89543 2.89543 2 4 2H9C9.14652 2 9.28567 2.03151 9.41106 2.08812C9.59725 2.03084 9.79502 2 10 2H14C14.205 2 14.4028 2.03084 14.5889 2.08812C14.7143 2.03151 14.8535 2 15 2H20C21.1046 2 22 2.89543 22 4V10C22 11.1046 21.1046 12 20 12H16C16 13.1046 15.1046 14 14 14H10C8.89543 14 8 13.1046 8 12H4C2.89543 12 2 11.1046 2 10V4ZM10 11V12H14V11V4L10 4V11ZM16 10H20V4H16V10ZM8 10H4V4L8 4V10ZM12 16C12.5523 16 13 16.4477 13 17V18H14C14.5523 18 15 18.4477 15 19C15 19.5523 14.5523 20 14 20H13V21C13 21.5523 12.5523 22 12 22C11.4477 22 11 21.5523 11 21V20H10C9.44772 20 9 19.5523 9 19C9 18.4477 9.44772 18 10 18H11V17C11 16.4477 11.4477 16 12 16Z" fill="currentColor"/>
</svg>
