<svg width="24" height="24" viewBox="0 0 24 24" fill="none" xmlns="http://www.w3.org/2000/svg">
<path fill-rule="evenodd" clip-rule="evenodd" d="M4 3C3.44772 3 3 3.44772 3 4L3 7C3 7.55228 3.44772 8 4 8L20 8C20.5523 8 21 7.55228 21 7V4C21 3.44772 20.5523 3 20 3L4 3ZM4 10C3.44772 10 3 10.4477 3 11L3 14C3 14.5523 3.44772 15 4 15L20 15C20.5523 15 21 14.5523 21 14V11C21 10.4477 20.5523 10 20 10L4 10ZM3 18C3 17.4477 3.44772 17 4 17L20 17C20.5523 17 21 17.4477 21 18V21C21 21.5523 20.5523 22 20 22L4 22C3.44772 22 3 21.5523 3 21L3 18Z" fill="currentColor"/>
</svg>
