<svg width="24" height="24" viewBox="0 0 24 24" fill="none" xmlns="http://www.w3.org/2000/svg">
<path fill-rule="evenodd" clip-rule="evenodd" d="M14.7071 8.70711L12.7071 10.7071C12.3166 11.0976 11.6834 11.0976 11.2929 10.7071L9.29289 8.70711C8.90237 8.31658 8.90237 7.68342 9.29289 7.29289C9.68342 6.90237 10.3166 6.90237 10.7071 7.29289L11 7.58579L11 4C11 3.44772 11.4477 3 12 3C12.5523 3 13 3.44772 13 4V7.58579L13.2929 7.29289C13.6834 6.90237 14.3166 6.90237 14.7071 7.29289C15.0976 7.68342 15.0976 8.31658 14.7071 8.70711ZM5 13C3.89543 13 3 13.8954 3 15V19C3 20.1046 3.89543 21 5 21H19C20.1046 21 21 20.1046 21 19V15C21 13.8954 20.1046 13 19 13H5ZM5 19V15H19V19H5Z" fill="currentColor"/>
</svg>
