<svg width="24" height="24" viewBox="0 0 24 24" fill="none" xmlns="http://www.w3.org/2000/svg">
<path fill-rule="evenodd" clip-rule="evenodd" d="M3 6C3 5.44772 3.44772 5 4 5H20C20.5523 5 21 5.44772 21 6C21 6.55228 20.5523 7 20 7H4C3.44772 7 3 6.55228 3 6ZM6.70711 9.29289C7.09763 9.68342 7.09763 10.3166 6.70711 10.7071L6.41421 11H10C10.5523 11 11 11.4477 11 12C11 12.5523 10.5523 13 10 13H6.41421L6.70711 13.2929C7.09763 13.6834 7.09763 14.3166 6.70711 14.7071C6.31658 15.0976 5.68342 15.0976 5.29289 14.7071L3.29289 12.7071C3.10536 12.5196 3 12.2652 3 12C3 11.7348 3.10536 11.4804 3.29289 11.2929L5.29289 9.29289C5.68342 8.90237 6.31658 8.90237 6.70711 9.29289ZM20 19C20.5523 19 21 18.5523 21 18C21 17.4477 20.5523 17 20 17H4C3.44772 17 3 17.4477 3 18C3 18.5523 3.44772 19 4 19H20ZM12 14C12 13.4477 12.4477 13 13 13H20C20.5523 13 21 13.4477 21 14C21 14.5523 20.5523 15 20 15H13C12.4477 15 12 14.5523 12 14ZM13 9C12.4477 9 12 9.44772 12 10C12 10.5523 12.4477 11 13 11H20C20.5523 11 21 10.5523 21 10C21 9.44772 20.5523 9 20 9H13Z" fill="currentColor"/>
</svg>
