<svg width="24" height="24" viewBox="0 0 24 24" fill="none" xmlns="http://www.w3.org/2000/svg">
<path fill-rule="evenodd" clip-rule="evenodd" d="M18.4142 5.00009C17.6332 4.21905 16.3668 4.21904 15.5858 5.00009L9.47898 11.1069C9.16383 11.037 8.83623 11.0001 8.50003 11.0001C6.01474 11.0001 4.00003 13.0148 4.00003 15.5001L4 18.0004C3.99998 19.1051 4.89528 20.0001 5.99974 20.0001H6.00455H6.00938H6.0142H6.01904H6.02388H6.02873H6.03359H6.03845H6.04332H6.04819H6.05308H6.05796H6.06286H6.06776H6.07266H6.07758H6.0825H6.08742H6.09235H6.09729H6.10223H6.10718H6.11214H6.1171H6.12206H6.12704H6.13201H6.137H6.14199H6.14698H6.15198H6.15699H6.162H6.16702H6.17204H6.17707H6.18211H6.18714H6.19219H6.19724H6.20229H6.20735H6.21242H6.21749H6.22257H6.22765H6.23273H6.23782H6.24292H6.24802H6.25312H6.25823H6.26335H6.26847H6.27359H6.27872H6.28386H6.28899H6.29414H6.29928H6.30444H6.30959H6.31475H6.31992H6.32509H6.33026H6.33544H6.34062H6.34581H6.351H6.35619H6.36139H6.36659H6.3718H6.37701H6.38222H6.38744H6.39266H6.39789H6.40312H6.40835H6.41359H6.41883H6.42408H6.42932H6.43457H6.43983H6.44509H6.45035H6.45561H6.46088H6.46616H6.47143H6.47671H6.48199H6.48727H6.49256H6.49785H6.50315H6.50844H6.51374H6.51905H6.52435H6.52966H6.53497H6.54029H6.5456H6.55092H6.55624H6.56157H6.5669H6.57223H6.57756H6.58289H6.58823H6.59357H6.59891H6.60426H6.6096H6.61495H6.6203H6.62565H6.63101H6.63637H6.64173H6.64709H6.65245H6.65782H6.66318H6.66855H6.67392H6.6793H6.68467H6.69005H6.69543H6.7008H6.70619H6.71157H6.71695H6.72234H6.72772H6.73311H6.7385H6.74389H6.74929H6.75468H6.76008H6.76547H6.77087H6.77627H6.78167H6.78707H6.79247H6.79787H6.80327H6.80868H6.81408H6.81949H6.82489H6.8303H6.83571H6.84112H6.84653H6.85194H6.85735H6.86276H6.86817H6.87358H6.87899H6.8844H6.88982H6.89523H6.90064H6.90606H6.91147H6.91688H6.9223H6.92771H6.93312H6.93854H6.94395H6.94936H6.95478H6.96019H6.9656H6.97102H6.97643H6.98184H6.98725H6.99266H6.99807H7.00348H7.00889H7.0143H7.01971H7.02512H7.03053H7.03593H7.04134H7.04674H7.05215H7.05755H7.06295H7.06835H7.07375H7.07915H7.08455H7.08995H7.09534H7.10074H7.10613H7.11152H7.11691H7.1223H7.12769H7.13308H7.13847H7.14385H7.14923H7.15461H7.15999H7.16537H7.17075H7.17612H7.18149H7.18686H7.19223H7.1976H7.20296H7.20833H7.21369H7.21905H7.2244H7.22976H7.23511H7.24046H7.24581H7.25116H7.2565H7.26184H7.26718H7.27252H7.27785H7.28319H7.28852H7.29384H7.29917H7.30449H7.30981H7.31513H7.32044H7.32575H7.33106H7.33636H7.34167H7.34697H7.35226H7.35756H7.36285H7.36813H7.37342H7.3787H7.38398H7.38925H7.39452H7.39979H7.40506H7.41032H7.41558H7.42083H7.42608H7.43133H7.43657H7.44181H7.44705H7.45228H7.45751H7.46274H7.46796H7.47318H7.47839H7.4836H7.48881H7.49401H7.49921H7.5044H7.50959H7.51478H7.51996H7.52514H7.53031H7.53548H7.54064H7.5458H7.55096H7.55611H7.56126H7.5664H7.57154H7.57667H7.5818H7.58692H7.59204H7.59716H7.60227H7.60737H7.61247H7.61757H7.62266H7.62774H7.63282H7.6379H7.64297H7.64803H7.65309H7.65815H7.6632H7.66824H7.67328H7.67831H7.68334H7.68836H7.69338H7.69839H7.7034H7.7084H7.71339H7.71838H7.72337H7.72834H7.73331H7.73828H7.74324H7.7482H7.75314H7.75809H7.76302H7.76795H7.77288H7.7778H7.78271H7.78761H7.79251H7.79741H7.80229H7.80718H7.81205H7.81692H7.82178H7.82663H7.83148H7.83632H7.84116H7.84599H7.85081H7.85563H7.86043H7.86524H7.87003H7.87482H7.8796H7.88437H7.88914H7.8939H7.89866H7.9034H7.90814H7.91287H7.9176H7.92231H7.92702H7.93173H7.93642H7.94111H7.94579H7.95046H7.95513H7.95979H7.96444H7.96908H7.97371H7.97834H7.98296H7.98757H7.99218H7.99677H8.00136H8.00594H8.01051H8.01508H8.01963H8.02418H8.02872H8.03325H8.03778H8.04229H8.0468H8.0513H8.05579H8.06027H8.06474H8.06921H8.07366H8.07811H8.08255H8.08698H8.09141H8.09582H8.10022H8.10462H8.10901H8.11339H8.11775H8.12212H8.12647H8.13081H8.13514H8.13947H8.14378H8.14809H8.15239H8.15667H8.16095H8.16522H8.16948H8.17373H8.17797H8.1822H8.18643H8.19064H8.19484H8.19904H8.20322H8.20739H8.21156H8.21571H8.21986H8.22399H8.22812H8.23223H8.23634H8.24043H8.24452H8.24859H8.25266H8.25671H8.26076H8.26479H8.26882H8.27283H8.27684H8.28083H8.28481H8.28878H8.29275H8.2967H8.30064H8.30457H8.30849H8.3124H8.3163H8.32018H8.32406H8.32793H8.33178H8.33563H8.33946H8.34328H8.34709H8.35089H8.35468H8.35846H8.36223H8.36598H8.36973H8.37346H8.37718H8.38089H8.38459H8.38828H8.39196H8.39562H8.39927H8.40292H8.40655H8.41016H8.41377H8.41737H8.42095H8.42452H8.42808H8.43163H8.43516H8.43869H8.4422H8.4457H8.44919H8.45266H8.45612H8.45958H8.46301H8.46644H8.46986H8.47326H8.47665H8.48002H8.48339H8.48674H8.49008H8.49341H8.49672H8.50003C10.9853 20.0001 13 17.9854 13 15.5001C13 15.1639 12.9631 14.8362 12.8932 14.5211L19 8.41431C19.781 7.63326 19.781 6.36693 19 5.58588L18.4142 5.00009ZM11.9615 12.6244L17.5858 7.00009L17 6.41431L11.3757 12.0386C11.5884 12.2155 11.7845 12.4117 11.9615 12.6244ZM6.00003 15.5001C6.00003 14.1194 7.11931 13.0001 8.50003 13.0001C9.88074 13.0001 11 14.1194 11 15.5001C11 16.8808 9.88074 18.0001 8.50003 18.0001H8.49672H8.49341H8.49008H8.48674H8.48339H8.48002H8.47665H8.47326H8.46986H8.46644H8.46301H8.45958H8.45612H8.45266H8.44919H8.4457H8.4422H8.43869H8.43516H8.43163H8.42808H8.42452H8.42095H8.41737H8.41377H8.41016H8.40655H8.40292H8.39927H8.39562H8.39196H8.38828H8.38459H8.38089H8.37718H8.37346H8.36973H8.36598H8.36223H8.35846H8.35468H8.35089H8.34709H8.34328H8.33946H8.33563H8.33178H8.32793H8.32406H8.32018H8.3163H8.3124H8.30849H8.30457H8.30064H8.2967H8.29275H8.28878H8.28481H8.28083H8.27684H8.27283H8.26882H8.26479H8.26076H8.25671H8.25266H8.24859H8.24452H8.24043H8.23634H8.23223H8.22812H8.22399H8.21986H8.21571H8.21156H8.20739H8.20322H8.19904H8.19484H8.19064H8.18643H8.1822H8.17797H8.17373H8.16948H8.16522H8.16095H8.15667H8.15239H8.14809H8.14378H8.13947H8.13514H8.13081H8.12647H8.12212H8.11775H8.11339H8.10901H8.10462H8.10022H8.09582H8.09141H8.08698H8.08255H8.07811H8.07366H8.06921H8.06474H8.06027H8.05579H8.0513H8.0468H8.04229H8.03778H8.03325H8.02872H8.02418H8.01963H8.01508H8.01051H8.00594H8.00136H7.99677H7.99218H7.98757H7.98296H7.97834H7.97371H7.96908H7.96444H7.95979H7.95513H7.95046H7.94579H7.94111H7.93642H7.93173H7.92702H7.92231H7.9176H7.91287H7.90814H7.9034H7.89866H7.8939H7.88914H7.88437H7.8796H7.87482H7.87003H7.86524H7.86043H7.85563H7.85081H7.84599H7.84116H7.83632H7.83148H7.82663H7.82178H7.81692H7.81205H7.80718H7.80229H7.79741H7.79251H7.78761H7.78271H7.7778H7.77288H7.76795H7.76302H7.75809H7.75314H7.7482H7.74324H7.73828H7.73331H7.72834H7.72337H7.71838H7.71339H7.7084H7.7034H7.69839H7.69338H7.68836H7.68334H7.67831H7.67328H7.66824H7.6632H7.65815H7.65309H7.64803H7.64297H7.6379H7.63282H7.62774H7.62266H7.61757H7.61247H7.60737H7.60227H7.59716H7.59204H7.58692H7.5818H7.57667H7.57154H7.5664H7.56126H7.55611H7.55096H7.5458H7.54064H7.53548H7.53031H7.52514H7.51996H7.51478H7.50959H7.5044H7.49921H7.49401H7.48881H7.4836H7.47839H7.47318H7.46796H7.46274H7.45751H7.45228H7.44705H7.44181H7.43657H7.43133H7.42608H7.42083H7.41558H7.41032H7.40506H7.39979H7.39452H7.38925H7.38398H7.3787H7.37342H7.36813H7.36285H7.35756H7.35226H7.34697H7.34167H7.33636H7.33106H7.32575H7.32044H7.31513H7.30981H7.30449H7.29917H7.29384H7.28852H7.28319H7.27785H7.27252H7.26718H7.26184H7.2565H7.25116H7.24581H7.24046H7.23511H7.22976H7.2244H7.21905H7.21369H7.20833H7.20296H7.1976H7.19223H7.18686H7.18149H7.17612H7.17075H7.16537H7.15999H7.15461H7.14923H7.14385H7.13847H7.13308H7.12769H7.1223H7.11691H7.11152H7.10613H7.10074H7.09534H7.08995H7.08455H7.07915H7.07375H7.06835H7.06295H7.05755H7.05215H7.04674H7.04134H7.03593H7.03053H7.02512H7.01971H7.0143H7.00889H7.00348H6.99807H6.99266H6.98725H6.98184H6.97643H6.97102H6.9656H6.96019H6.95478H6.94936H6.94395H6.93854H6.93312H6.92771H6.9223H6.91688H6.91147H6.90606H6.90064H6.89523H6.88982H6.8844H6.87899H6.87358H6.86817H6.86276H6.85735H6.85194H6.84653H6.84112H6.83571H6.8303H6.82489H6.81949H6.81408H6.80868H6.80327H6.79787H6.79247H6.78707H6.78167H6.77627H6.77087H6.76547H6.76008H6.75468H6.74929H6.74389H6.7385H6.73311H6.72772H6.72234H6.71695H6.71157H6.70619H6.7008H6.69543H6.69005H6.68467H6.6793H6.67392H6.66855H6.66318H6.65782H6.65245H6.64709H6.64173H6.63637H6.63101H6.62565H6.6203H6.61495H6.6096H6.60426H6.59891H6.59357H6.58823H6.58289H6.57756H6.57223H6.5669H6.56157H6.55624H6.55092H6.5456H6.54029H6.53497H6.52966H6.52435H6.51905H6.51374H6.50844H6.50315H6.49785H6.49256H6.48727H6.48199H6.47671H6.47143H6.46616H6.46088H6.45561H6.45035H6.44509H6.43983H6.43457H6.42932H6.42408H6.41883H6.41359H6.40835H6.40312H6.39789H6.39266H6.38744H6.38222H6.37701H6.3718H6.36659H6.36139H6.35619H6.351H6.34581H6.34062H6.33544H6.33026H6.32509H6.31992H6.31475H6.30959H6.30444H6.29928H6.29414H6.28899H6.28386H6.27872H6.27359H6.26847H6.26335H6.25823H6.25312H6.24802H6.24292H6.23782H6.23273H6.22765H6.22257H6.21749H6.21242H6.20735H6.20229H6.19724H6.19219H6.18714H6.18211H6.17707H6.17204H6.16702H6.162H6.15699H6.15198H6.14698H6.14199H6.137H6.13201H6.12704H6.12206H6.1171H6.11214H6.10718H6.10223H6.09729H6.09235H6.08742H6.0825H6.07758H6.07266H6.06776H6.06286H6.05796H6.05308H6.04819H6.04332H6.03845H6.03359H6.02873H6.02388H6.01904H6.0142H6.00938H6.00455H6L6.00003 15.5001Z" fill="currentColor"/>
</svg>
