<svg width="24" height="24" viewBox="0 0 24 24" fill="none" xmlns="http://www.w3.org/2000/svg">
<path fill-rule="evenodd" clip-rule="evenodd" d="M3 7C3 6.44772 3.44772 6 4 6H20C20.5523 6 21 6.44772 21 7C21 7.55228 20.5523 8 20 8H4C3.44772 8 3 7.55228 3 7ZM3 12C3 11.4477 3.44772 11 4 11H14C14.5523 11 15 11.4477 15 12C15 12.5523 14.5523 13 14 13H4C3.44772 13 3 12.5523 3 12ZM4 16C3.44772 16 3 16.4477 3 17C3 17.5523 3.44772 18 4 18H11C11.5523 18 12 17.5523 12 17C12 16.4477 11.5523 16 11 16H4Z" fill="currentColor"/>
</svg>
