<svg width="24" height="24" viewBox="0 0 24 24" fill="none" xmlns="http://www.w3.org/2000/svg">
<path fill-rule="evenodd" clip-rule="evenodd" d="M13 4C13 3.44772 13.4477 3 14 3H16C16.5523 3 17 3.44772 17 4C17 4.55228 16.5523 5 16 5H15V6V13C15 13.281 14.8818 13.549 14.6743 13.7384C14.4669 13.9279 14.1893 14.0213 13.9095 13.9959L2.90946 12.9959C2.39439 12.9491 2 12.5172 2 12V7C2 6.4828 2.39439 6.05093 2.90946 6.00411L13 5.08679V4ZM13 7.09503L4 7.91321V11.0868L13 11.905V7.09503ZM16 7C16 6.44772 16.4477 6 17 6H19C19.3344 6 19.6466 6.1671 19.8321 6.4453L21.8321 9.4453C21.9416 9.60957 22 9.80258 22 10V13C22 13.5523 21.5523 14 21 14H17C16.4477 14 16 13.5523 16 13V7ZM18 8V12H20V10.3028L18.4648 8H18ZM4 17.5C4 17.2239 4.22386 17 4.5 17C4.77614 17 5 17.2239 5 17.5C5 17.7761 4.77614 18 4.5 18C4.22386 18 4 17.7761 4 17.5ZM4.5 15C3.11929 15 2 16.1193 2 17.5C2 18.8807 3.11929 20 4.5 20C5.88071 20 7 18.8807 7 17.5C7 18.8807 8.11929 20 9.5 20C10.8807 20 12 18.8807 12 17.5C12 16.1193 10.8807 15 9.5 15C8.11929 15 7 16.1193 7 17.5C7 16.1193 5.88071 15 4.5 15ZM9.5 17C9.22386 17 9 17.2239 9 17.5C9 17.7761 9.22386 18 9.5 18C9.77614 18 10 17.7761 10 17.5C10 17.2239 9.77614 17 9.5 17ZM18 17.5C18 17.2239 18.2239 17 18.5 17C18.7761 17 19 17.2239 19 17.5C19 17.7761 18.7761 18 18.5 18C18.2239 18 18 17.7761 18 17.5ZM18.5 15C17.1193 15 16 16.1193 16 17.5C16 18.8807 17.1193 20 18.5 20C19.8807 20 21 18.8807 21 17.5C21 16.1193 19.8807 15 18.5 15Z" fill="currentColor"/>
</svg>
