<svg width="24" height="24" viewBox="0 0 24 24" fill="none" xmlns="http://www.w3.org/2000/svg">
<path fill-rule="evenodd" clip-rule="evenodd" d="M6.5 5C4.01472 5 2 7.01472 2 9.5C2 10.4361 2.28581 11.3054 2.77492 12.0254C2.33103 12.1275 2 12.5251 2 13C2 13.5523 2.44772 14 3 14H6.5H17.5H21C21.5523 14 22 13.5523 22 13C22 12.5251 21.669 12.1275 21.2251 12.0254C21.7142 11.3054 22 10.4361 22 9.5C22 7.01472 19.9853 5 17.5 5H16H8H6.5ZM17.5 12C18.8807 12 20 10.8807 20 9.5C20 8.11929 18.8807 7 17.5 7H17V9C17 9.55228 16.5523 10 16 10C15.4477 10 15 9.55228 15 9V7H9V9C9 9.55228 8.55228 10 8 10C7.44772 10 7 9.55228 7 9V7H6.5C5.11929 7 4 8.11929 4 9.5C4 10.8807 5.11929 12 6.5 12H17.5ZM3 17.5C3 17.2239 3.22386 17 3.5 17C3.77614 17 4 17.2239 4 17.5C4 17.7761 3.77614 18 3.5 18C3.22386 18 3 17.7761 3 17.5ZM3.5 15C2.11929 15 1 16.1193 1 17.5C1 18.8807 2.11929 20 3.5 20C4.3178 20 5.04389 19.6073 5.5 19.0002C5.95612 19.6073 6.6822 20 7.5 20C8.88071 20 10 18.8807 10 17.5C10 16.1193 8.88071 15 7.5 15C6.6822 15 5.95612 15.3927 5.5 15.9998C5.04389 15.3927 4.3178 15 3.5 15ZM16.5 17C16.2239 17 16 17.2239 16 17.5C16 17.7761 16.2239 18 16.5 18C16.7761 18 17 17.7761 17 17.5C17 17.2239 16.7761 17 16.5 17ZM14 17.5C14 16.1193 15.1193 15 16.5 15C17.3178 15 18.0439 15.3927 18.5 15.9998C18.9561 15.3927 19.6822 15 20.5 15C21.8807 15 23 16.1193 23 17.5C23 18.8807 21.8807 20 20.5 20C19.6822 20 18.9561 19.6073 18.5 19.0002C18.0439 19.6073 17.3178 20 16.5 20C15.1193 20 14 18.8807 14 17.5ZM7 17.5C7 17.2239 7.22386 17 7.5 17C7.77614 17 8 17.2239 8 17.5C8 17.7761 7.77614 18 7.5 18C7.22386 18 7 17.7761 7 17.5ZM20.5 17C20.2239 17 20 17.2239 20 17.5C20 17.7761 20.2239 18 20.5 18C20.7761 18 21 17.7761 21 17.5C21 17.2239 20.7761 17 20.5 17Z" fill="currentColor"/>
</svg>
