<svg width="24" height="24" viewBox="0 0 24 24" fill="none" xmlns="http://www.w3.org/2000/svg">
<path fill-rule="evenodd" clip-rule="evenodd" d="M11.8375 4.31576C13.1613 3.37023 15 4.31648 15 5.94322V18.2769C15 19.8125 13.341 20.7752 12.0077 20.0133L6.73444 17H3C1.89543 17 1 16.1046 1 15V10C1 8.89546 1.89543 8.00003 3 8.00003H6.67953L11.8375 4.31576ZM13 5.94322L7.84201 9.6275C7.50281 9.86979 7.09638 10 6.67953 10H3V15H6.73444C7.08249 15 7.42452 15.0909 7.72671 15.2635L13 18.2769V5.94322ZM20 9.00003C20.5523 9.00003 21 9.44775 21 10V11H22C22.5523 11 23 11.4477 23 12C23 12.5523 22.5523 13 22 13H21V14C21 14.5523 20.5523 15 20 15C19.4477 15 19 14.5523 19 14V13H18C17.4477 13 17 12.5523 17 12C17 11.4477 17.4477 11 18 11H19V10C19 9.44775 19.4477 9.00003 20 9.00003Z" fill="currentColor"/>
</svg>
