<svg width="24" height="24" viewBox="0 0 24 24" fill="none" xmlns="http://www.w3.org/2000/svg">
<path fill-rule="evenodd" clip-rule="evenodd" d="M13.9799 3.99997H9.02166C9.00772 3.99968 8.99379 3.99968 8.97988 3.99997H4C2.89543 3.99997 2 4.89541 2 5.99998V11V20C2 21.1045 2.89543 22 4 22H20C21.1046 22 22 21.1045 22 20V11V5.99998C22 4.8954 21.1046 3.99997 20 3.99997H19.0217C19.0077 3.99968 18.9938 3.99968 18.9799 3.99997H14.0217C14.0077 3.99968 13.9938 3.99968 13.9799 3.99997ZM14.618 5.99998H17.382L15.382 9.99998H12.618L14.618 5.99998ZM19.618 5.99998L17.618 9.99998H20V5.99998H19.618ZM16.0201 12C16.0062 12.0003 15.9923 12.0003 15.9783 12H11.0201C11.0062 12.0003 10.9923 12.0003 10.9783 12H6.02012C6.00621 12.0003 5.99228 12.0003 5.97833 12H4V20H20V12H16.0201ZM12.382 5.99998H9.61803L7.61803 9.99998H10.382L12.382 5.99998ZM4 9.99998H5.38197L7.38197 5.99998H4V9.99998ZM14.7071 14.7071C15.0976 14.3166 15.0976 13.6834 14.7071 13.2929C14.3166 12.9023 13.6834 12.9023 13.2929 13.2929L12 14.5858L10.7071 13.2929C10.3166 12.9023 9.68342 12.9023 9.29289 13.2929C8.90237 13.6834 8.90237 14.3166 9.29289 14.7071L10.5858 16L9.29289 17.2929C8.90237 17.6834 8.90237 18.3166 9.29289 18.7071C9.68342 19.0976 10.3166 19.0976 10.7071 18.7071L12 17.4142L13.2929 18.7071C13.6834 19.0976 14.3166 19.0976 14.7071 18.7071C15.0976 18.3166 15.0976 17.6834 14.7071 17.2929L13.4142 16L14.7071 14.7071Z" fill="currentColor"/>
</svg>
