<svg width="24" height="24" viewBox="0 0 24 24" fill="none" xmlns="http://www.w3.org/2000/svg">
<path fill-rule="evenodd" clip-rule="evenodd" d="M18 7.99997C18 6.35188 16.1185 5.41111 14.8 6.39997L9.46667 10.4C9.2776 10.5418 9.12204 10.7087 9 10.8919L9 6.99997C9 6.44768 8.55228 5.99997 8 5.99997C7.44772 5.99997 7 6.44768 7 6.99997V17C7 17.5523 7.44772 18 8 18C8.55228 18 9 17.5523 9 17V13.1081C9.12204 13.2912 9.2776 13.4582 9.46667 13.6L14.8 17.6C16.1185 18.5888 18 17.6481 18 16V7.99997ZM10.6667 12L16 7.99997V16L10.6667 12Z" fill="currentColor"/>
</svg>
