<svg width="24" height="24" viewBox="0 0 24 24" fill="none" xmlns="http://www.w3.org/2000/svg">
<path fill-rule="evenodd" clip-rule="evenodd" d="M10 2C10.5523 2 11 2.44772 11 3V6H16C17.1046 6 18 6.89543 18 8V13V20C18 21.1046 17.1046 22 16 22H8C6.89543 22 6 21.1046 6 20V8C6 6.89543 6.89543 6 8 6H9V3C9 2.44772 9.44772 2 10 2ZM16 12V8H10L8 8V12H16ZM8 14H16V20H8V14ZM15 17C15 17.5523 14.5523 18 14 18C13.4477 18 13 17.5523 13 17C13 16.4477 13.4477 16 14 16C14.5523 16 15 16.4477 15 17ZM10 18C10.5523 18 11 17.5523 11 17C11 16.4477 10.5523 16 10 16C9.44772 16 9 16.4477 9 17C9 17.5523 9.44772 18 10 18Z" fill="currentColor"/>
</svg>
