<svg width="24" height="24" viewBox="0 0 24 24" fill="none" xmlns="http://www.w3.org/2000/svg">
<path fill-rule="evenodd" clip-rule="evenodd" d="M13.7308 2.99378C12.9605 1.6632 11.0395 1.66321 10.2691 2.99378L1.00358 18.9979C0.231653 20.3313 1.19378 22 2.73444 22H21.2655C22.8062 22 23.7683 20.3312 22.9964 18.9979L13.7308 2.99378ZM12 3.99585L21.2655 20L2.73444 20L12 3.99585ZM14.7071 12.2929C15.0976 12.6834 15.0976 13.3166 14.7071 13.7071L13.4142 15L14.7071 16.2929C15.0976 16.6834 15.0976 17.3166 14.7071 17.7071C14.3166 18.0976 13.6834 18.0976 13.2929 17.7071L12 16.4142L10.7071 17.7071C10.3166 18.0976 9.68341 18.0976 9.29288 17.7071C8.90236 17.3166 8.90236 16.6834 9.29288 16.2929L10.5858 15L9.29288 13.7071C8.90236 13.3166 8.90236 12.6834 9.29288 12.2929C9.68341 11.9024 10.3166 11.9024 10.7071 12.2929L12 13.5858L13.2929 12.2929C13.6834 11.9024 14.3166 11.9024 14.7071 12.2929Z" fill="currentColor"/>
</svg>
