<svg width="24" height="24" viewBox="0 0 24 24" fill="none" xmlns="http://www.w3.org/2000/svg">
<path fill-rule="evenodd" clip-rule="evenodd" d="M8.00004 8C8.00004 5.79086 9.7909 4 12 4C14.2092 4 16 5.79086 16 8C16 9.29866 15.3812 10.4528 14.4222 11.1835C14.4067 11.1945 14.3916 11.2058 14.3769 11.2176C13.7123 11.7093 12.8901 12 12 12C11.1099 12 10.2877 11.7093 9.62323 11.2176C9.60848 11.2058 9.59335 11.1945 9.57785 11.1835C8.61893 10.4528 8.00004 9.29866 8.00004 8ZM7.83853 12.3223C6.70517 11.2308 6.00004 9.69774 6.00004 8C6.00004 4.68629 8.68633 2 12 2C15.3138 2 18 4.68629 18 8C18 9.69774 17.2949 11.2308 16.1616 12.3223L18.9487 20.6838C19.0766 21.0675 18.9608 21.4904 18.6552 21.7555C18.3497 22.0205 17.9146 22.0753 17.5528 21.8944L12 19.118L6.44726 21.8944C6.08549 22.0753 5.65039 22.0205 5.34484 21.7555C5.03929 21.4904 4.92346 21.0675 5.05136 20.6838L7.83853 12.3223ZM9.55981 13.483L7.71217 19.0259L11.5528 17.1056C11.8344 16.9648 12.1657 16.9648 12.4473 17.1056L16.2879 19.0259L14.4403 13.483C13.6948 13.8153 12.869 14 12 14C11.1311 14 10.3053 13.8153 9.55981 13.483Z" fill="currentColor"/>
</svg>
