<svg width="24" height="24" viewBox="0 0 24 24" fill="none" xmlns="http://www.w3.org/2000/svg">
<path fill-rule="evenodd" clip-rule="evenodd" d="M11.8682 5.49631C12.1423 5.01679 11.9757 4.40594 11.4961 4.13193C11.0166 3.85792 10.4058 4.02451 10.1318 4.50403L6.98669 10.0079C6.2248 11.3412 7.18753 13.0002 8.72318 13.0002H11.2768L8.13176 18.504C7.85775 18.9835 8.02434 19.5944 8.50386 19.8684C8.98338 20.1424 9.59423 19.9758 9.86824 19.4963L13.0133 13.9924C13.7752 12.6591 12.8125 11.0002 11.2768 11.0002H8.72318L11.8682 5.49631ZM2 8.00017C2 6.8956 2.89543 6.00017 4 6.00017H7C7.55228 6.00017 8 6.44789 8 7.00017C8 7.55246 7.55228 8.00017 7 8.00017L4 8.00017V16.0002H7C7.55228 16.0002 8 16.4479 8 17.0002C8 17.5525 7.55228 18.0002 7 18.0002H4C2.89543 18.0002 2 17.1047 2 16.0002V8.00017ZM12 7.00017C12 6.44789 12.4477 6.00017 13 6.00017H17C18.1046 6.00017 19 6.8956 19 8.00017V16.0002C19 17.1047 18.1046 18.0002 17 18.0002H13C12.4477 18.0002 12 17.5525 12 17.0002C12 16.4479 12.4477 16.0002 13 16.0002H17V8.00017H13C12.4477 8.00017 12 7.55246 12 7.00017ZM22 9.00017C22.5523 9.00017 23 9.44789 23 10.0002V14.0002C23 14.5525 22.5523 15.0002 22 15.0002C21.4477 15.0002 21 14.5525 21 14.0002V10.0002C21 9.44789 21.4477 9.00017 22 9.00017Z" fill="currentColor"/>
</svg>
