<svg width="24" height="24" viewBox="0 0 24 24" fill="none" xmlns="http://www.w3.org/2000/svg">
<path fill-rule="evenodd" clip-rule="evenodd" d="M12.9923 2.12413C13.0498 1.66393 12.7834 1.22458 12.3487 1.06286C11.914 0.901142 11.4252 1.05951 11.168 1.4454L3.16795 13.4454C2.96338 13.7523 2.94431 14.1468 3.11833 14.472C3.29235 14.7971 3.63121 15.0001 4 15.0001H9.86722L9.00772 21.8761C8.9502 22.3363 9.21664 22.7756 9.65131 22.9373C10.086 23.099 10.5748 22.9407 10.8321 22.5548L18.8321 10.5548C19.0366 10.2479 19.0557 9.85339 18.8817 9.52824C18.7077 9.20308 18.3688 9.0001 18 9.0001H12.1328L12.9923 2.12413ZM11 13.0001H5.86852L10.4823 6.07942L10.0077 9.87606C9.97215 10.1607 10.0605 10.4469 10.2503 10.6619C10.4401 10.8769 10.7132 11.0001 11 11.0001H16.1315L11.5177 17.9208L11.9923 14.1241C12.0279 13.8395 11.9395 13.5533 11.7497 13.3383C11.5599 13.1233 11.2868 13.0001 11 13.0001ZM20.7071 1.29299C20.3166 0.902464 19.6834 0.902464 19.2929 1.29299L17 3.58588L15.7071 2.29299C15.3166 1.90246 14.6834 1.90246 14.2929 2.29299C13.9024 2.68351 13.9024 3.31668 14.2929 3.7072L15.5858 5.0001C16.3668 5.78115 17.6332 5.78114 18.4142 5.0001L20.7071 2.7072C21.0976 2.31668 21.0976 1.68351 20.7071 1.29299Z" fill="currentColor"/>
</svg>
