<svg width="24" height="24" viewBox="0 0 24 24" fill="none" xmlns="http://www.w3.org/2000/svg">
<path fill-rule="evenodd" clip-rule="evenodd" d="M8 3C8 2.44772 8.44772 2 9 2H10L14 2H15C15.5523 2 16 2.44772 16 3C16 3.55228 15.5523 4 15 4V6.2965C17.94 7.50824 20 10.4416 20 13.852C20 13.8887 19.9998 13.9253 19.9993 13.9618C19.9998 13.9745 20 13.9872 20 14C20 14.0265 19.999 14.0527 19.997 14.0786C19.8793 18.4552 16.3628 22 12 22C7.63716 22 4.12074 18.4552 4.00304 14.0786C4.00103 14.0527 4 14.0265 4 14C4 13.9872 4.00024 13.9745 4.00071 13.9618C4.00024 13.9253 4 13.8887 4 13.852C4 10.4416 6.06001 7.50824 9 6.2965V4C8.44772 4 8 3.55228 8 3ZM10.9804 7.19791C10.995 7.12609 11.0017 7.05219 11 6.97745V4H13V6.97746C12.9983 7.0522 13.005 7.12609 13.0196 7.19791C13.049 7.34466 13.1106 7.47979 13.1967 7.59566C13.327 7.77105 13.5133 7.9023 13.7292 7.9629C15.9344 8.64172 17.6176 10.5935 17.9429 13L6.05708 13C6.38238 10.5935 8.06559 8.64171 10.2708 7.96289C10.3422 7.94285 10.4104 7.91506 10.4744 7.88051C10.7317 7.74162 10.9211 7.49329 10.9804 7.19791ZM6.10412 15C6.6301 17.8596 9.08471 20 12 20C14.9153 20 17.3699 17.8596 17.8959 15L6.10412 15Z" fill="currentColor"/>
</svg>
