<svg width="24" height="24" viewBox="0 0 24 24" fill="none" xmlns="http://www.w3.org/2000/svg">
<path fill-rule="evenodd" clip-rule="evenodd" d="M4.99997 5C4.99997 3.34315 6.34312 2 7.99998 2H16C17.6568 2 19 3.34315 19 5V14.9799C19.0003 14.9938 19.0003 15.0077 19 15.0217V19C19 20.6569 17.6568 22 16 22H7.99998C6.34312 22 4.99997 20.6569 4.99997 19V13.0201C4.99968 13.0062 4.99968 12.9923 4.99997 12.9783V5ZM6.99998 14.618V19C6.99998 19.5523 7.44769 20 7.99998 20H16C16.5523 20 17 19.5523 17 19V15.618L15.5528 14.8944C14.5753 14.4057 13.4247 14.4057 12.4472 14.8944C10.9066 15.6647 9.09332 15.6647 7.55276 14.8944L6.99998 14.618ZM17 13.382L16.4472 13.1056C14.9066 12.3353 13.0933 12.3353 11.5528 13.1056C10.5753 13.5943 9.42469 13.5943 8.44719 13.1056L6.99998 12.382V7.82929C7.31275 7.93985 7.64934 8 7.99998 8H16C16.3506 8 16.6872 7.93985 17 7.82929V13.382ZM16 4C16.5523 4 17 4.44772 17 5C17 5.55228 16.5523 6 16 6H7.99998C7.44769 6 6.99998 5.55228 6.99998 5C6.99998 4.44772 7.44769 4 7.99998 4H16Z" fill="currentColor"/>
</svg>
