<svg width="24" height="24" viewBox="0 0 24 24" fill="none" xmlns="http://www.w3.org/2000/svg">
<path fill-rule="evenodd" clip-rule="evenodd" d="M4 2C2.89543 2 2 2.89543 2 4V7L2 17L2 20C2 21.1046 2.89543 22 4 22H8H12H16L20 22C21.1046 22 22 21.1046 22 20V17L22 7V4C22 2.89543 21.1046 2 20 2L16 2L12 2L8 2L4 2ZM4 18V20H7V18H4ZM7 16H4L4 8L7 8L7 16ZM9 17L9 20H11L11 4H9V7L9 17ZM20 8V16H17L17 8H20ZM20 18H17V20H20V18ZM15 17L15 17.0012V20H13L13 4H15V6.9994V7V7.0006L15 16.9988L15 17ZM7 6H4V4H7L7 6ZM20 4V6H17V4L20 4Z" fill="currentColor"/>
</svg>
