<svg width="24" height="24" viewBox="0 0 24 24" fill="none" xmlns="http://www.w3.org/2000/svg">
<path fill-rule="evenodd" clip-rule="evenodd" d="M2 3C2 2.44772 2.44772 2 3 2L5 2C5.14652 2 5.28567 2.03151 5.41106 2.08812C5.59725 2.03084 5.79502 2 6 2L18 2C18.205 2 18.4028 2.03084 18.5889 2.08812C18.7143 2.03151 18.8535 2 19 2L21 2C21.5523 2 22 2.44772 22 3C22 3.55228 21.5523 4 21 4H20V6H21C21.5523 6 22 6.44772 22 7C22 7.55228 21.5523 8 21 8L20 8V16H21C21.5523 16 22 16.4477 22 17C22 17.5523 21.5523 18 21 18H20V20H21C21.5523 20 22 20.4477 22 21C22 21.5523 21.5523 22 21 22H19C18.8535 22 18.7143 21.9685 18.5889 21.9119C18.4028 21.9692 18.205 22 18 22L6 22C5.79502 22 5.59725 21.9692 5.41106 21.9119C5.28567 21.9685 5.14652 22 5 22H3C2.44772 22 2 21.5523 2 21C2 20.4477 2.44772 20 3 20H4V18H3C2.44772 18 2 17.5523 2 17C2 16.4477 2.44772 16 3 16H4L4 8H3C2.44772 8 2 7.55228 2 7C2 6.44772 2.44772 6 3 6H4V4L3 4C2.44772 4 2 3.55228 2 3ZM6 17L6 7L6 4L18 4V7L18 17V20L6 20V17ZM11.3044 12.1433C11.4982 11.7294 11.751 11.2755 12 10.8582C12.249 11.2755 12.5018 11.7294 12.6956 12.1433C12.8022 12.3708 12.8837 12.5709 12.9369 12.7357C12.9632 12.8173 12.9801 12.8824 12.9899 12.9319C12.9986 12.9756 12.9998 12.9971 13 13.0001C13 13.0003 13 13.0004 13 13.0004L13 13C13 13.5523 12.5523 14 12 14C11.4477 14 11 13.5523 11 13L11 13.0004C11 13.0004 11 13.0003 11 13.0001C11.0002 12.9971 11.0014 12.9756 11.0101 12.9319C11.0199 12.8824 11.0368 12.8173 11.0631 12.7357C11.1163 12.5709 11.1978 12.3708 11.3044 12.1433ZM13.6374 9.70001C12.8863 8.45822 11.1137 8.45822 10.3626 9.70001C10.0738 10.1775 9.749 10.7488 9.49319 11.2949C9.26176 11.789 9 12.4363 9 13C9 14.6569 10.3431 16 12 16C13.6569 16 15 14.6569 15 13C15 12.4363 14.7382 11.789 14.5068 11.2949C14.251 10.7488 13.9262 10.1775 13.6374 9.70001Z" fill="currentColor"/>
</svg>
