<svg width="24" height="24" viewBox="0 0 24 24" fill="none" xmlns="http://www.w3.org/2000/svg">
<path fill-rule="evenodd" clip-rule="evenodd" d="M12.0145 1.64241C12.4881 1.92656 12.6416 2.54082 12.3575 3.0144L10.9929 5.28877L12 7.01527L14.6362 2.49604C14.9145 2.01898 15.5268 1.85785 16.0039 2.13613C16.4809 2.41441 16.6421 3.02673 16.3638 3.50378L13.741 7.99991H15.4338L16.6425 5.98541C16.9267 5.51183 17.5409 5.35827 18.0145 5.64241C18.4881 5.92656 18.6416 6.54082 18.3575 7.0144L17.7662 7.99991H19C19.5523 7.99991 20 8.44762 20 8.99991C20 9.55219 19.5523 9.99991 19 9.99991H17.7662L18.3575 10.9854C18.6416 11.459 18.4881 12.0733 18.0145 12.3574C17.5409 12.6415 16.9267 12.488 16.6425 12.0144L15.4338 9.99991H13.741L16.3638 14.496C16.6421 14.9731 16.4809 15.5854 16.0039 15.8637C15.5268 16.142 14.9145 15.9808 14.6362 15.5038L12 10.9845L11.0106 12.6807L12.3 14.3999C12.6314 14.8417 12.5418 15.4685 12.1 15.7999C11.6582 16.1313 11.0314 16.0417 10.7 15.5999L9.91683 14.5557L9.36378 15.5038C9.0855 15.9808 8.47318 16.142 7.99613 15.8637C7.51908 15.5854 7.35794 14.9731 7.63622 14.496L8.2173 13.4999H7C6.44772 13.4999 6 13.0522 6 12.4999C6 11.9476 6.44772 11.4999 7 11.4999L9.38396 11.4999L10.259 9.99991L5 9.99991C4.44772 9.99991 4 9.55219 4 8.99991C4 8.44762 4.44772 7.99991 5 7.99991L10.259 7.99991L9.16759 6.12898L6.64142 6.48986C6.09469 6.56796 5.58816 6.18806 5.51005 5.64133C5.43195 5.09459 5.81184 4.58806 6.35858 4.50996L8.07973 4.26408L7.63622 3.50378C7.35794 3.02673 7.51908 2.41441 7.99613 2.13613C8.47318 1.85785 9.0855 2.01898 9.36378 2.49604L9.84311 3.31774L10.6425 1.98541C10.9267 1.51183 11.5409 1.35827 12.0145 1.64241ZM4 16.9999C4 16.4476 3.55228 15.9999 3 15.9999C2.44772 15.9999 2 16.4476 2 16.9999L2 19.9999C2 21.1045 2.89543 21.9999 4 21.9999L20 21.9999C21.1046 21.9999 22 21.1045 22 19.9999V16.9999C22 16.4476 21.5523 15.9999 21 15.9999C20.4477 15.9999 20 16.4476 20 16.9999V19.9999L4 19.9999V16.9999Z" fill="currentColor"/>
</svg>
