<svg width="24" height="24" viewBox="0 0 24 24" fill="none" xmlns="http://www.w3.org/2000/svg">
<path fill-rule="evenodd" clip-rule="evenodd" d="M11.3292 3.77628C11.7515 3.56513 12.2485 3.56513 12.6708 3.77628L15.6708 5.27628C16.179 5.53037 16.5 6.04976 16.5 6.61792V9.38185C16.5 9.95001 16.179 10.4694 15.6708 10.7235L12.6708 12.2235C12.2485 12.4346 11.7515 12.4346 11.3292 12.2235L8.32918 10.7235C7.821 10.4694 7.5 9.95001 7.5 9.38185V6.61792C7.5 6.04976 7.821 5.53037 8.32918 5.27628L11.3292 3.77628ZM12.2236 4.67071C12.0828 4.60032 11.9172 4.60032 11.7764 4.67071L8.88016 6.11883L12 7.4559L15.1198 6.11883L12.2236 4.67071ZM15.5 7.04387L12.5 8.32958V11.1909L15.2236 9.82907C15.393 9.74437 15.5 9.57124 15.5 9.38185V7.04387ZM11.5 11.1909V8.32958L8.5 7.04387V9.38185C8.5 9.57124 8.607 9.74437 8.77639 9.82907L11.5 11.1909ZM6.32918 11.7763C6.75147 11.5651 7.24853 11.5651 7.67082 11.7763L10.6708 13.2763C11.179 13.5304 11.5 14.0498 11.5 14.6179V17.3819C11.5 17.95 11.179 18.4694 10.6708 18.7235L7.67082 20.2235C7.24853 20.4346 6.75147 20.4346 6.32918 20.2235L3.32918 18.7235C2.821 18.4694 2.5 17.95 2.5 17.3819V14.6179C2.5 14.0498 2.821 13.5304 3.32918 13.2763L6.32918 11.7763ZM7.22361 12.6707C7.08284 12.6003 6.91716 12.6003 6.77639 12.6707L3.88015 14.1188L7 15.4559L10.1198 14.1188L7.22361 12.6707ZM3.5 17.3819V15.0439L6.5 16.3296V19.1909L3.77639 17.8291C3.607 17.7444 3.5 17.5712 3.5 17.3819ZM10.2236 17.8291L7.5 19.1909V16.3296L10.5 15.0439V17.3819C10.5 17.5712 10.393 17.7444 10.2236 17.8291ZM17.6708 11.7763C17.2485 11.5651 16.7515 11.5651 16.3292 11.7763L13.3292 13.2763C12.821 13.5304 12.5 14.0498 12.5 14.6179V17.3819C12.5 17.95 12.821 18.4694 13.3292 18.7235L16.3292 20.2235C16.7515 20.4346 17.2485 20.4346 17.6708 20.2235L20.6708 18.7235C21.179 18.4694 21.5 17.95 21.5 17.3819V14.6179C21.5 14.0498 21.179 13.5304 20.6708 13.2763L17.6708 11.7763ZM16.7764 12.6707C16.9172 12.6003 17.0828 12.6003 17.2236 12.6707L20.1198 14.1188L17 15.4559L13.8802 14.1188L16.7764 12.6707ZM13.5 15.0439V17.3819C13.5 17.5712 13.607 17.7444 13.7764 17.8291L16.5 19.1909V16.3296L13.5 15.0439ZM17.5 19.1909L20.2236 17.8291C20.393 17.7444 20.5 17.5712 20.5 17.3819V15.0439L17.5 16.3296V19.1909Z" fill="currentColor"/>
</svg>
