<svg width="24" height="24" viewBox="0 0 24 24" fill="none" xmlns="http://www.w3.org/2000/svg">
<path fill-rule="evenodd" clip-rule="evenodd" d="M8.00001 2L12 2L13 2C13.5523 2 14 2.44772 14 3C14 3.55228 13.5523 4 13 4V8.69722L14.8321 11.4453C15.1384 11.9048 15.0142 12.5257 14.5547 12.8321C14.0952 13.1384 13.4743 13.0142 13.168 12.5547L11.3359 9.80662C11.1169 9.47809 11 9.09207 11 8.69722V4L9.00001 4V8.72965C9.00001 9.08376 8.906 9.43152 8.72757 9.73739L2.74105 20H14C14.5523 20 15 20.4477 15 21C15 21.5523 14.5523 22 14 22H2.74105C1.19747 22 0.235725 20.3256 1.01349 18.9923L7.00001 8.72965L7.00001 4C6.44773 4 6.00001 3.55228 6.00001 3C6.00001 2.44772 6.44773 2 7.00001 2L8.00001 2ZM15 3C15 2.44772 15.4477 2 16 2L17 2L21 2L22 2C22.5523 2 23 2.44772 23 3C23 3.55228 22.5523 4 22 4L22 19C22 20.6569 20.6569 22 19 22C17.3432 22 16 20.6569 16 19L16 4C15.4477 4 15 3.55228 15 3ZM18 4L18 19C18 19.5523 18.4477 20 19 20C19.5523 20 20 19.5523 20 19L20 4L18 4Z" fill="currentColor"/>
</svg>
