<svg width="24" height="24" viewBox="0 0 24 24" fill="none" xmlns="http://www.w3.org/2000/svg">
<path fill-rule="evenodd" clip-rule="evenodd" d="M8.2929 5.29289C7.90238 5.68341 7.90238 6.31658 8.2929 6.7071C8.68342 7.09763 9.31659 7.09763 9.70711 6.7071L11 5.41421V9C11 9.55228 11.4477 10 12 10C12.5523 10 13 9.55228 13 9V5.41421L14.2929 6.7071C14.6834 7.09763 15.3166 7.09763 15.7071 6.7071C16.0976 6.31658 16.0976 5.68341 15.7071 5.29289L12.7071 2.29289C12.3166 1.90237 11.6834 1.90237 11.2929 2.29289L8.2929 5.29289ZM16 17.85C16 15.8069 15.006 13.2191 12.6432 11.2343C12.2713 10.9219 11.7287 10.9219 11.3568 11.2343C8.99397 13.2191 8.00001 15.8069 8.00001 17.85C8.00001 20.0954 9.74545 22 12 22C14.2546 22 16 20.0954 16 17.85ZM10 17.85C10 16.5867 10.5573 14.8619 12 13.3656C13.4427 14.8619 14 16.5867 14 17.85C14 19.084 13.0592 20 12 20C10.9409 20 10 19.084 10 17.85ZM5.70711 16.7071C5.31658 17.0976 4.68342 17.0976 4.2929 16.7071L1.29289 13.7071C1.10536 13.5196 1 13.2652 1 13C1 12.7348 1.10536 12.4804 1.29289 12.2929L4.29289 9.29289C4.68342 8.90237 5.31658 8.90237 5.70711 9.29289C6.09763 9.68342 6.09763 10.3166 5.70711 10.7071L4.41421 12H7.00001C7.55229 12 8.00001 12.4477 8.00001 13C8.00001 13.5523 7.55229 14 7.00001 14H4.41421L5.70711 15.2929C6.09763 15.6834 6.09763 16.3166 5.70711 16.7071ZM19.7071 9.29289C19.3166 8.90237 18.6834 8.90237 18.2929 9.29289C17.9024 9.68342 17.9024 10.3166 18.2929 10.7071L19.5858 12H17C16.4477 12 16 12.4477 16 13C16 13.5523 16.4477 14 17 14H19.5858L18.2929 15.2929C17.9024 15.6834 17.9024 16.3166 18.2929 16.7071C18.6834 17.0976 19.3166 17.0976 19.7071 16.7071L22.7071 13.7071C23.0976 13.3166 23.0976 12.6834 22.7071 12.2929L19.7071 9.29289Z" fill="currentColor"/>
</svg>
