<svg width="24" height="24" viewBox="0 0 24 24" fill="none" xmlns="http://www.w3.org/2000/svg">
<path fill-rule="evenodd" clip-rule="evenodd" d="M11.3568 2.2343C11.7287 1.9219 12.2713 1.9219 12.6432 2.2343C13.8984 3.2887 14.9474 4.42926 15.8077 5.60777C16.1333 6.05385 16.0357 6.67944 15.5896 7.00506C15.1435 7.33069 14.5179 7.23304 14.1923 6.78695C13.5766 5.94356 12.8492 5.11758 12 4.33246C8.41008 7.6512 7 11.6972 7 14.7C7 17.6736 9.28399 20 12 20C14.716 20 17 17.6736 17 14.7C17 14.1477 17.4477 13.7 18 13.7C18.5523 13.7 19 14.1477 19 14.7C19 18.6851 15.9114 22 12 22C8.08859 22 5 18.6851 5 14.7C5 10.9172 6.85111 6.01909 11.3568 2.2343ZM10 14C10.5523 14 11 14.4477 11 15C11 15.5523 11.4477 16 12 16C12.5523 16 13 16.4477 13 17C13 17.5523 12.5523 18 12 18C10.3431 18 9 16.6569 9 15C9 14.4477 9.44772 14 10 14ZM20.7071 7.70711C21.0976 7.31658 21.0976 6.68342 20.7071 6.29289C20.3166 5.90237 19.6834 5.90237 19.2929 6.29289L15 10.5858L13.7071 9.29289C13.3166 8.90237 12.6834 8.90237 12.2929 9.29289C11.9024 9.68342 11.9024 10.3166 12.2929 10.7071L14.2929 12.7071C14.6834 13.0976 15.3166 13.0976 15.7071 12.7071L20.7071 7.70711Z" fill="currentColor"/>
</svg>
