<svg width="24" height="24" viewBox="0 0 24 24" fill="none" xmlns="http://www.w3.org/2000/svg">
<path fill-rule="evenodd" clip-rule="evenodd" d="M12.586 5.00009C13.3671 4.21905 14.6334 4.21904 15.4144 5.00009L18.0002 7.58588C18.7813 8.36693 18.7813 9.63326 18.0002 10.4143L15.7073 12.7072L9.45537 18.9592C9.13424 19.2803 8.71339 19.4826 8.26202 19.5327L5.35301 19.8559C4.07918 19.9975 3.00284 18.9211 3.14438 17.6473L3.4676 14.7383C3.51776 14.2869 3.72003 13.8661 4.04116 13.5449L10.2931 7.29299L10.2932 7.29294L12.586 5.00009ZM16.586 9.00009L15.0002 10.5859L12.4144 8.00009L14.0002 6.41431L16.586 9.00009ZM13.586 12.0001L11.0002 9.41431L5.45537 14.9592L5.13215 17.8682L8.04116 17.5449L13.586 12.0001ZM15.3 17.6248C14.7762 16.97 15.2423 16.0001 16.0808 16.0001H19.9196C20.7581 16.0001 21.2243 16.97 20.7005 17.6248L18.7811 20.024C18.3808 20.5244 17.6197 20.5244 17.2194 20.024L15.3 17.6248Z" fill="currentColor"/>
</svg>
