<svg width="24" height="24" viewBox="0 0 24 24" fill="none" xmlns="http://www.w3.org/2000/svg">
<path fill-rule="evenodd" clip-rule="evenodd" d="M8.70711 7.29287L5.70711 4.29287C5.31658 3.90235 4.68342 3.90235 4.29289 4.29287L1.29289 7.29287C0.902369 7.6834 0.902369 8.31656 1.29289 8.70709L4.29253 11.7067C4.29265 11.7068 4.29277 11.707 4.29289 11.7071C4.29302 11.7072 4.29314 11.7073 4.29326 11.7075L5.58579 13L2.29289 16.2929C1.90237 16.6834 1.90237 17.3166 2.29289 17.7071L5.29289 20.7071C5.68342 21.0976 6.31658 21.0976 6.70711 20.7071L10 17.4142L12.2929 19.7071C12.4211 19.8352 12.5816 19.9262 12.7575 19.9701L16.7575 20.9701C17.0982 21.0553 17.4587 20.9555 17.7071 20.7071C17.9555 20.4587 18.0553 20.0982 17.9701 19.7574L16.9701 15.7574C16.9262 15.5816 16.8353 15.421 16.7071 15.2929L14.4142 13L16 11.4142L17.2929 12.7071C17.6834 13.0976 18.3166 13.0976 18.7071 12.7071L21.7071 9.70709C22.0976 9.31656 22.0976 8.6834 21.7071 8.29287L15.7071 2.29287C15.4027 1.98851 14.9378 1.91306 14.5528 2.10555L10.5528 4.10555C10.2653 4.24931 10.0644 4.5225 10.0129 4.8398C9.96142 5.15709 10.0656 5.47979 10.2929 5.70709L11.5858 6.99998L10 8.58577L8.70711 7.29287ZM8 9.41419L9.29289 10.7071L12.2929 13.7071L15.097 16.5112L15.6256 18.6256L13.5112 18.097L10.7076 15.2934L10.7071 15.2929L10.7066 15.2924L7.70711 12.2929L6.41421 11L8 9.41419ZM5 9.58577L6.58579 7.99998L5 6.41419L3.41421 7.99998L5 9.58577ZM14.5858 9.99998L13 11.5858L11.4142 9.99998L13 8.41419L14.5858 9.99998ZM13.7071 6.29287L16.7071 9.29287L18 10.5858L19.5858 8.99998L14.8025 4.21674L12.6882 5.27393L13.7071 6.29287ZM8.58579 16L6 18.5858L4.41421 17L7 14.4142L8.58579 16Z" fill="currentColor"/>
</svg>
