<svg width="24" height="24" viewBox="0 0 24 24" fill="none" xmlns="http://www.w3.org/2000/svg">
<path fill-rule="evenodd" clip-rule="evenodd" d="M11.1054 2.32907C11.6684 2.04754 12.3312 2.04754 12.8942 2.32907L19.8942 5.82907C20.5661 6.16501 21.0188 6.86853 20.9862 7.66105C20.668 15.3945 14.8701 20.1674 13.1017 21.4544C12.4418 21.9346 11.5578 21.9346 10.8979 21.4544C9.12951 20.1674 3.33157 15.3944 3.01337 7.66105C2.98076 6.86853 3.4335 6.16501 4.10538 5.82907L11.1054 2.32907ZM18.9866 7.61129L11.9998 4.11792L5.01306 7.61129C5.30206 14.2571 10.2617 18.5004 11.9998 19.7823C13.7379 18.5004 18.6976 14.2571 18.9866 7.61129ZM18.9998 7.61792C18.9999 7.61797 18.9999 7.61797 18.9998 7.61791ZM4.9998 7.61792L4.99983 7.61791Z" fill="currentColor"/>
</svg>
