<svg width="24" height="24" viewBox="0 0 24 24" fill="none" xmlns="http://www.w3.org/2000/svg">
<path fill-rule="evenodd" clip-rule="evenodd" d="M4 2C2.89543 2 2 2.89543 2 4V6C2 7.10457 2.89543 8 4 8H9C10.1046 8 11 7.10457 11 6V4C11 2.89543 10.1046 2 9 2H4ZM4 4H9V6H4V4ZM4 10C2.89543 10 2 10.8954 2 12V20C2 21.1046 2.89543 22 4 22H9C10.1046 22 11 21.1046 11 20V12C11 10.8954 10.1046 10 9 10H4ZM4 12H9V20H4V12ZM13 4C13 2.89543 13.8954 2 15 2H20C21.1046 2 22 2.89543 22 4V10C22 11.1046 21.1046 12 20 12H15C13.8954 12 13 11.1046 13 10V4ZM20 4H15V10H20V4ZM15 14C13.8954 14 13 14.8954 13 16V20C13 21.1046 13.8954 22 15 22H20C21.1046 22 22 21.1046 22 20V16C22 14.8954 21.1046 14 20 14H15ZM15 16H20V20H15V16Z" fill="currentColor"/>
</svg>
