<svg width="24" height="24" viewBox="0 0 24 24" fill="none" xmlns="http://www.w3.org/2000/svg">
<path fill-rule="evenodd" clip-rule="evenodd" d="M20.9444 1.37156C20.3545 1.05551 19.6455 1.05551 19.0556 1.37156L18.0556 1.90728C17.4328 2.2409 16.9361 2.94887 17.0472 3.79881C17.2614 5.43813 18.1525 6.60183 18.7504 7.2197C19.4406 7.93287 20.5594 7.93287 21.2496 7.2197C21.8475 6.60183 22.7386 5.43813 22.9528 3.79881C23.0639 2.94887 22.5672 2.2409 21.9444 1.90728L20.9444 1.37156ZM20 5.62304C19.613 5.17245 19.1839 4.50031 19.0458 3.6457L20 3.13452L20.9542 3.6457C20.8161 4.50031 20.387 5.17245 20 5.62304ZM8 5.00007C6.89543 5.00007 6 5.8955 6 7.00007C6 8.10464 6.89543 9.00007 8 9.00007C9.10457 9.00007 10 8.10464 10 7.00007C10 5.8955 9.10457 5.00007 8 5.00007ZM4 7.00007C4 4.79093 5.79086 3.00007 8 3.00007C10.2091 3.00007 12 4.79093 12 7.00007C12 9.2092 10.2091 11.0001 8 11.0001C5.79086 11.0001 4 9.2092 4 7.00007ZM15 9.00007C14.4477 9.00007 14 9.44778 14 10.0001C14 10.5524 14.4477 11.0001 15 11.0001C15.5523 11.0001 16 10.5524 16 10.0001C16 9.44778 15.5523 9.00007 15 9.00007ZM12 10.0001C12 8.34321 13.3431 7.00007 15 7.00007C16.6569 7.00007 18 8.34321 18 10.0001C18 11.6569 16.6569 13.0001 15 13.0001C13.3431 13.0001 12 11.6569 12 10.0001ZM3 20.0001C3 17.2386 5.23858 15.0001 8 15.0001C10.7614 15.0001 13 17.2386 13 20.0001C13 20.5524 13.4477 21.0001 14 21.0001C14.5523 21.0001 15 20.5524 15 20.0001C15 18.5109 14.535 17.1304 13.7423 15.9958C14.4045 15.9224 14.9867 16.0658 15.4696 16.3215C16.2862 16.7537 16.85 17.5234 17.0299 18.2428C17.1638 18.7786 17.7067 19.1043 18.2425 18.9704C18.7783 18.8365 19.1041 18.2935 18.9701 17.7577C18.65 16.4769 17.7138 15.2465 16.4054 14.5539C15.2041 13.9179 13.7105 13.7464 12.1333 14.3501C10.975 13.5013 9.54604 13.0001 8 13.0001C4.13401 13.0001 1 16.1341 1 20.0001C1 20.5524 1.44772 21.0001 2 21.0001C2.55228 21.0001 3 20.5524 3 20.0001Z" fill="currentColor"/>
</svg>
