<svg width="24" height="24" viewBox="0 0 24 24" fill="none" xmlns="http://www.w3.org/2000/svg">
<path fill-rule="evenodd" clip-rule="evenodd" d="M15.7071 13.7071L11.7071 17.7071C11.5085 17.9058 11.2354 18.0117 10.9547 17.999C10.674 17.9862 10.4117 17.856 10.2318 17.6402L8.2318 15.2402C7.87824 14.8159 7.93556 14.1853 8.35984 13.8318C8.78412 13.4782 9.41468 13.5355 9.76825 13.9598L11.0672 15.5186L14.2929 12.2929C14.6834 11.9024 15.3166 11.9024 15.7071 12.2929C16.0977 12.6834 16.0977 13.3166 15.7071 13.7071Z" fill="#777B92"/>
<path fill-rule="evenodd" clip-rule="evenodd" d="M4 4C4 2.89543 4.89543 2 6 2H12.5858C12.6672 2 12.7481 2.00496 12.8281 2.01472C12.8839 2.00504 12.9414 2 13 2C13.3381 2 13.6371 2.16782 13.818 2.4247C13.8816 2.4744 13.9424 2.52815 14 2.58579L19.4142 8C19.4718 8.05763 19.5256 8.11842 19.5753 8.18196C19.8322 8.36295 20 8.66187 20 9C20 9.05862 19.995 9.11607 19.9853 9.17192C19.995 9.25191 20 9.3328 20 9.41421V20C20 21.1046 19.1046 22 18 22H6C4.89543 22 4 21.1046 4 20V4ZM6 4V20H18V10H14C12.8954 10 12 9.10457 12 8V4L6 4ZM14 5.41421V8H16.5858L14 5.41421Z" fill="#777B92"/>
</svg>
