<svg width="24" height="24" viewBox="0 0 24 24" fill="none" xmlns="http://www.w3.org/2000/svg">
<path fill-rule="evenodd" clip-rule="evenodd" d="M4 4C4 2.89543 4.89543 2 6 2H12.5858C12.6672 2 12.7481 2.00496 12.8281 2.01472C12.8839 2.00504 12.9414 2 13 2C13.3381 2 13.6371 2.16782 13.818 2.4247C13.8816 2.4744 13.9424 2.52815 14 2.58579L19.4142 8C19.4718 8.05763 19.5256 8.11842 19.5753 8.18196C19.8322 8.36295 20 8.66188 20 9C20 9.05862 19.995 9.11607 19.9853 9.17192C19.995 9.25191 20 9.3328 20 9.41421V14C20 14.5523 19.5523 15 19 15C18.4477 15 18 14.5523 18 14V10H14C12.8954 10 12 9.10457 12 8V4L6 4V14C6 14.5523 5.55228 15 5 15C4.44772 15 4 14.5523 4 14V4ZM14 5.41421V8H16.5858L14 5.41421Z" fill="#777B92"/>
<path fill-rule="evenodd" clip-rule="evenodd" d="M12.9537 18.8721C12.655 18.5521 12.5057 18.1627 12.5057 17.7041C12.5057 17.2027 12.679 16.8081 13.0257 16.5201C13.3777 16.2267 13.879 16.0801 14.5297 16.0801C15.0204 16.0801 15.4657 16.1361 15.8657 16.2481C15.9937 16.2854 16.095 16.3627 16.1697 16.4801C16.2497 16.5921 16.2897 16.7174 16.2897 16.8561V17.0881C16.2897 17.1947 16.2444 17.2774 16.1537 17.3361C16.063 17.3947 15.967 17.4054 15.8657 17.3681C15.4124 17.2081 14.9937 17.1281 14.6097 17.1281C14.119 17.1281 13.8737 17.3201 13.8737 17.7041C13.8737 18.0294 14.087 18.2614 14.5137 18.4001C15.2497 18.6241 15.759 18.8854 16.0417 19.1841C16.3297 19.4827 16.4737 19.8747 16.4737 20.3601C16.4737 21.5067 15.751 22.0801 14.3057 22.0801C13.847 22.0801 13.431 22.0081 13.0577 21.8641C12.9297 21.8161 12.8284 21.7334 12.7537 21.6161C12.6844 21.4934 12.6497 21.3601 12.6497 21.2161V20.9601C12.6497 20.8641 12.6924 20.7921 12.7777 20.7441C12.863 20.6907 12.9484 20.6854 13.0337 20.7281C13.423 20.9201 13.8204 21.0161 14.2257 21.0161C14.5084 21.0161 14.7217 20.9627 14.8657 20.8561C15.015 20.7441 15.0897 20.5867 15.0897 20.3841C15.0897 20.2081 15.039 20.0641 14.9377 19.9521C14.8364 19.8401 14.6604 19.7441 14.4097 19.6641C13.7377 19.4507 13.2524 19.1867 12.9537 18.8721Z" fill="#777B92"/>
<path fill-rule="evenodd" clip-rule="evenodd" d="M2.88782 22.0001C2.78115 22.0001 2.70115 21.9547 2.64782 21.8641C2.59448 21.7734 2.59182 21.6827 2.63982 21.5921L3.89582 19.1041C3.91182 19.0614 3.91182 19.0187 3.89582 18.9761L2.67982 16.5681C2.63182 16.4774 2.63448 16.3867 2.68782 16.2961C2.74115 16.2054 2.82115 16.1601 2.92782 16.1601H3.51182C3.65048 16.1601 3.77582 16.1974 3.88782 16.2721C4.00515 16.3467 4.09048 16.4481 4.14382 16.5761L4.83982 18.2481C4.83982 18.2534 4.84248 18.2561 4.84782 18.2561C4.85315 18.2561 4.85582 18.2534 4.85582 18.2481L5.55182 16.5761C5.60515 16.4481 5.68782 16.3467 5.79982 16.2721C5.91715 16.1974 6.04515 16.1601 6.18382 16.1601H6.73582C6.83715 16.1601 6.91448 16.2054 6.96782 16.2961C7.02648 16.3867 7.03182 16.4774 6.98382 16.5681L5.76782 18.9761C5.75182 19.0187 5.75182 19.0614 5.76782 19.1041L7.02382 21.5921C7.07182 21.6827 7.06648 21.7734 7.00782 21.8641C6.95448 21.9547 6.87715 22.0001 6.77582 22.0001H6.15982C6.02115 22.0001 5.89582 21.9627 5.78382 21.8881C5.67182 21.8081 5.58915 21.7041 5.53582 21.5761L4.82382 19.8321C4.82382 19.8267 4.82115 19.8241 4.81582 19.8241C4.81049 19.8241 4.80782 19.8267 4.80782 19.8321L4.09582 21.5761C4.04248 21.7041 3.95715 21.8081 3.83982 21.8881C3.72782 21.9627 3.60515 22.0001 3.47182 22.0001H2.88782Z" fill="#777B92"/>
<path fill-rule="evenodd" clip-rule="evenodd" d="M8.42732 22.0001C8.30465 22.0001 8.19798 21.9547 8.10732 21.8641C8.01665 21.7734 7.97132 21.6667 7.97132 21.5441V16.6161C7.97132 16.4934 8.01665 16.3867 8.10732 16.2961C8.19798 16.2054 8.30465 16.1601 8.42732 16.1601H8.92332C9.04598 16.1601 9.14998 16.2054 9.23532 16.2961C9.32598 16.3867 9.37132 16.4934 9.37132 16.6161V20.8081C9.37132 20.8507 9.39532 20.8721 9.44332 20.8721H11.3873C11.51 20.8721 11.6167 20.9174 11.7073 21.0081C11.798 21.0987 11.8433 21.2054 11.8433 21.3281V21.5441C11.8433 21.6667 11.798 21.7734 11.7073 21.8641C11.6167 21.9547 11.51 22.0001 11.3873 22.0001H8.42732Z" fill="#777B92"/>
<path fill-rule="evenodd" clip-rule="evenodd" d="M17.3488 22.0001C17.2421 22.0001 17.1621 21.9547 17.1088 21.8641C17.0554 21.7734 17.0528 21.6827 17.1008 21.5921L18.3568 19.1041C18.3728 19.0614 18.3728 19.0187 18.3568 18.9761L17.1408 16.5681C17.0928 16.4774 17.0954 16.3867 17.1488 16.2961C17.2021 16.2054 17.2821 16.1601 17.3888 16.1601H17.9728C18.1114 16.1601 18.2368 16.1974 18.3488 16.2721C18.4661 16.3467 18.5514 16.4481 18.6048 16.5761L19.3008 18.2481C19.3008 18.2534 19.3034 18.2561 19.3088 18.2561C19.3141 18.2561 19.3168 18.2534 19.3168 18.2481L20.0128 16.5761C20.0661 16.4481 20.1488 16.3467 20.2608 16.2721C20.3781 16.1974 20.5061 16.1601 20.6448 16.1601H21.1968C21.2981 16.1601 21.3754 16.2054 21.4288 16.2961C21.4874 16.3867 21.4928 16.4774 21.4448 16.5681L20.2288 18.9761C20.2128 19.0187 20.2128 19.0614 20.2288 19.1041L21.4848 21.5921C21.5328 21.6827 21.5274 21.7734 21.4688 21.8641C21.4154 21.9547 21.3381 22.0001 21.2368 22.0001H20.6208C20.4821 22.0001 20.3568 21.9627 20.2448 21.8881C20.1328 21.8081 20.0501 21.7041 19.9968 21.5761L19.2848 19.8321C19.2848 19.8267 19.2821 19.8241 19.2768 19.8241C19.2714 19.8241 19.2688 19.8267 19.2688 19.8321L18.5568 21.5761C18.5034 21.7041 18.4181 21.8081 18.3008 21.8881C18.1888 21.9627 18.0661 22.0001 17.9328 22.0001H17.3488Z" fill="#777B92"/>
</svg>
