<svg width="24" height="24" viewBox="0 0 24 24" fill="none" xmlns="http://www.w3.org/2000/svg">
<path fill-rule="evenodd" clip-rule="evenodd" d="M4 4C4 2.89543 4.89543 2 6 2H12.5858C12.6672 2 12.7481 2.00496 12.8281 2.01472C12.8839 2.00504 12.9414 2 13 2C13.3381 2 13.6371 2.16782 13.818 2.4247C13.8816 2.4744 13.9424 2.52815 14 2.58579L19.4142 8C19.4718 8.05763 19.5256 8.11842 19.5753 8.18196C19.8322 8.36295 20 8.66187 20 9C20 9.05862 19.995 9.11607 19.9853 9.17192C19.995 9.25191 20 9.3328 20 9.41421V14C20 14.5523 19.5523 15 19 15C18.4477 15 18 14.5523 18 14V10H14C12.8954 10 12 9.10457 12 8V4L6 4V14C6 14.5523 5.55228 15 5 15C4.44772 15 4 14.5523 4 14V4ZM14 5.41421V8H16.5858L14 5.41421Z" fill="#777B92"/>
<path fill-rule="evenodd" clip-rule="evenodd" d="M5.04079 21.8641C4.95012 21.7734 4.90479 21.6667 4.90479 21.5441V16.6561C4.90479 16.5281 4.94745 16.4134 5.03279 16.3121C5.11812 16.2107 5.22479 16.1547 5.35279 16.1441C5.80612 16.1014 6.24345 16.0801 6.66479 16.0801C8.37145 16.0801 9.22479 16.7147 9.22479 17.9841C9.22479 18.6721 9.02479 19.1947 8.62479 19.5521C8.23012 19.9041 7.64879 20.0801 6.88079 20.0801C6.67812 20.0801 6.48879 20.0721 6.31279 20.0561C6.26479 20.0561 6.24079 20.0774 6.24079 20.1201V21.5441C6.24079 21.6667 6.19545 21.7734 6.10479 21.8641C6.01412 21.9547 5.90745 22.0001 5.78479 22.0001H5.36079C5.23812 22.0001 5.13145 21.9547 5.04079 21.8641ZM6.24079 18.9761V17.2321C6.24079 17.1894 6.26212 17.1627 6.30479 17.1521C6.46479 17.1254 6.61145 17.1121 6.74479 17.1121C7.55012 17.1121 7.95279 17.4294 7.95279 18.0641C7.95279 18.3841 7.84612 18.6347 7.63279 18.8161C7.42479 18.9921 7.12879 19.0801 6.74479 19.0801C6.63812 19.0801 6.49412 19.0694 6.31279 19.0481C6.26479 19.0374 6.24079 19.0134 6.24079 18.9761Z" fill="#777B92"/>
<path fill-rule="evenodd" clip-rule="evenodd" d="M10.1656 21.8561C10.0803 21.7547 10.0376 21.6374 10.0376 21.5041V16.6561C10.0376 16.5227 10.0803 16.4081 10.1656 16.3121C10.2509 16.2107 10.3576 16.1547 10.4856 16.1441C10.9016 16.1014 11.3123 16.0801 11.7176 16.0801C12.6723 16.0801 13.4083 16.3334 13.9256 16.8401C14.4429 17.3467 14.7016 18.0667 14.7016 19.0001C14.7016 20.0134 14.4429 20.7814 13.9256 21.3041C13.4083 21.8214 12.6723 22.0801 11.7176 22.0801C11.3123 22.0801 10.9016 22.0587 10.4856 22.0161C10.3576 22.0054 10.2509 21.9521 10.1656 21.8561ZM11.4376 20.9841C11.3896 20.9734 11.3656 20.9441 11.3656 20.8961V17.2641C11.3656 17.2161 11.3896 17.1867 11.4376 17.1761C11.5443 17.1547 11.6723 17.1441 11.8216 17.1441C12.3549 17.1441 12.7523 17.2934 13.0136 17.5921C13.2749 17.8907 13.4056 18.3601 13.4056 19.0001C13.4056 19.7147 13.2749 20.2294 13.0136 20.5441C12.7576 20.8587 12.3603 21.0161 11.8216 21.0161C11.6723 21.0161 11.5443 21.0054 11.4376 20.9841Z" fill="#777B92"/>
<path fill-rule="evenodd" clip-rule="evenodd" d="M16.017 22.0001C15.8944 22.0001 15.7877 21.9547 15.697 21.8641C15.6064 21.7734 15.561 21.6667 15.561 21.5441V16.6161C15.561 16.4934 15.6064 16.3867 15.697 16.2961C15.7877 16.2054 15.8944 16.1601 16.017 16.1601H18.761C18.8837 16.1601 18.9904 16.2054 19.081 16.2961C19.1717 16.3867 19.217 16.4934 19.217 16.6161V16.8001C19.217 16.9227 19.1717 17.0294 19.081 17.1201C18.9904 17.2107 18.8837 17.2561 18.761 17.2561H16.993C16.945 17.2561 16.921 17.2774 16.921 17.3201V18.5121C16.921 18.5601 16.945 18.5841 16.993 18.5841H18.601C18.7237 18.5841 18.8304 18.6294 18.921 18.7201C19.0117 18.8054 19.057 18.9094 19.057 19.0321V19.1601C19.057 19.2827 19.0117 19.3894 18.921 19.4801C18.8304 19.5654 18.7237 19.6081 18.601 19.6081H16.993C16.945 19.6081 16.921 19.6321 16.921 19.6801V21.5441C16.921 21.6667 16.8757 21.7734 16.785 21.8641C16.6997 21.9547 16.5957 22.0001 16.473 22.0001H16.017Z" fill="#777B92"/>
</svg>
