<svg width="24" height="24" viewBox="0 0 24 24" fill="none" xmlns="http://www.w3.org/2000/svg">
<path fill-rule="evenodd" clip-rule="evenodd" d="M5 3H12C12.5523 3 13 3.44772 13 4C13 4.55228 12.5523 5 12 5H5V19H19V11C19 10.4477 19.4477 10 20 10C20.5523 10 21 10.4477 21 11V19C21 20.1046 20.1046 21 19 21H5C3.89543 21 3 20.1046 3 19V5C3 3.89543 3.89543 3 5 3Z" fill="#777B92"/>
<path fill-rule="evenodd" clip-rule="evenodd" d="M12.1822 13.4036L13.2929 12.2929C13.6834 11.9024 14.3166 11.9024 14.7071 12.2929C15.0976 12.6834 15.0976 13.3166 14.7071 13.7071L11.7071 16.7071C11.3166 17.0976 10.6834 17.0976 10.2929 16.7071L7.29289 13.7071C6.90237 13.3166 6.90237 12.6834 7.29289 12.2929C7.68342 11.9024 8.31658 11.9024 8.70711 12.2929L10.1229 13.7087C10.3042 12.1409 10.7275 10.4491 11.652 8.97C13.11 6.63715 15.7058 5 20 5C20.5523 5 21 5.44772 21 6C21 6.55228 20.5523 7 20 7C16.2942 7 14.39 8.36285 13.348 10.03C12.7179 11.0382 12.3668 12.2147 12.1822 13.4036Z" fill="#777B92"/>
</svg>
