<svg width="16" height="16" viewBox="0 0 16 16" fill="none" xmlns="http://www.w3.org/2000/svg">
<path fill-rule="evenodd" clip-rule="evenodd" d="M9.44732 0.776503L9.94905 1.77996L10.5713 0.742828C10.7134 0.506038 11.0205 0.429255 11.2573 0.571329C11.4941 0.713403 11.5709 1.02053 11.4288 1.25732L10.6832 2.5H12C12.2761 2.5 12.5 2.72386 12.5 3C12.5 3.27614 12.2761 3.5 12 3.5H10.0832L8.88322 5.5H14C14.2761 5.5 14.5 5.72386 14.5 6C14.5 6.27614 14.2761 6.5 14 6.5H8.88313L10.0831 8.5H12C12.2761 8.5 12.5 8.72386 12.5 9C12.5 9.27614 12.2761 9.5 12 9.5H10.6831L11.4288 10.7428C11.5709 10.9796 11.4941 11.2867 11.2573 11.4288C11.0205 11.5709 10.7134 11.4941 10.5713 11.2573L9.94907 10.2202L9.44732 11.2237C9.32383 11.4707 9.02349 11.5708 8.7765 11.4473C8.52951 11.3238 8.4294 11.0235 8.5529 10.7765L9.33923 9.20383L8.00008 6.9719L5.42882 11.2573C5.28675 11.4941 4.97962 11.5709 4.74283 11.4288C4.50604 11.2867 4.42926 10.9796 4.57133 10.7428L7.11703 6.5H5.25005L3.90003 8.30003C3.73434 8.52094 3.42094 8.56571 3.20003 8.40003C2.97912 8.23434 2.93434 7.92094 3.10003 7.70003L4.00005 6.5H2C1.72386 6.5 1.5 6.27614 1.5 6C1.5 5.72386 1.72386 5.5 2 5.5H4.00001L3.10003 4.30003C2.93434 4.07912 2.97912 3.76571 3.20003 3.60003C3.42094 3.43434 3.73434 3.47912 3.90003 3.70003L5.25001 5.5H7.11694L4.57133 1.25732C4.42926 1.02053 4.50604 0.713403 4.74283 0.571329C4.97962 0.429255 5.28675 0.506038 5.42882 0.742828L8.00008 5.02825L9.33921 2.79635L8.5529 1.22372C8.4294 0.976727 8.52951 0.676391 8.7765 0.552896C9.02349 0.429401 9.32383 0.529513 9.44732 0.776503Z" fill="#777B92"/>
<path fill-rule="evenodd" clip-rule="evenodd" d="M1.5 12V14C1.5 14.2761 1.72386 14.5 2 14.5H14C14.2761 14.5 14.5 14.2761 14.5 14V12C14.5 11.7239 14.7239 11.5 15 11.5C15.2761 11.5 15.5 11.7239 15.5 12V14C15.5 14.8284 14.8284 15.5 14 15.5H2C1.17157 15.5 0.5 14.8284 0.5 14V12C0.5 11.7239 0.723858 11.5 1 11.5C1.27614 11.5 1.5 11.7239 1.5 12Z" fill="#777B92"/>
</svg>
