<svg width="16" height="16" viewBox="0 0 16 16" fill="none" xmlns="http://www.w3.org/2000/svg">
<path d="M8.35355 5.64645C8.35355 5.64645 8.35355 5.64645 8 6C7.64645 5.64645 7.64645 5.64645 7.64645 5.64645C7.84171 5.45118 8.15829 5.45118 8.35355 5.64645Z" fill="#777B92"/>
<path fill-rule="evenodd" clip-rule="evenodd" d="M8.03654 12.4997C8.02438 12.4999 8.0122 12.5 8 12.5C7.9878 12.5 7.97562 12.4999 7.96346 12.4997C5.495 12.4801 3.5 10.473 3.5 7.99988C3.5 6.74998 4.10634 5.40776 4.8061 4.25965C5.51528 3.09607 6.36678 2.05819 6.94707 1.40079C7.5116 0.761259 8.4884 0.76126 9.05293 1.40079C9.63322 2.05819 10.4847 3.09607 11.1939 4.25965C11.8937 5.40776 12.5 6.74998 12.5 7.99988C12.5 10.473 10.505 12.4801 8.03654 12.4997ZM8.30323 2.06257C8.13678 1.874 7.86322 1.874 7.69677 2.06257C7.13598 2.69788 6.32651 3.68652 5.66 4.78008C4.98407 5.88911 4.5 7.03464 4.5 7.99988C4.5 8.9789 4.90196 9.86403 5.54986 10.4992C5.51716 10.3379 5.5 10.171 5.5 10C5.5 8.84971 6.06737 7.74755 6.58397 6.97265C6.8477 6.57707 7.11069 6.2484 7.30787 6.01835C7.40669 5.90307 7.48956 5.81187 7.54853 5.74868C7.57804 5.71708 7.6016 5.69243 7.61824 5.67524L7.63789 5.65508L7.6436 5.6493L7.64539 5.64751L7.64645 5.64645L8 6L8.35355 5.64645L8.35461 5.64751L8.3564 5.6493L8.36211 5.65508L8.38176 5.67524C8.3984 5.69243 8.42196 5.71708 8.45147 5.74868C8.51044 5.81187 8.59331 5.90307 8.69213 6.01835C8.88931 6.2484 9.1523 6.57707 9.41603 6.97265C9.93263 7.74755 10.5 8.84971 10.5 10C10.5 10.171 10.4828 10.3379 10.4501 10.4992C11.098 9.86403 11.5 8.9789 11.5 7.99988C11.5 7.03464 11.0159 5.88911 10.34 4.78008C9.67349 3.68652 8.86402 2.69788 8.30323 2.06257ZM8.02497 11.4998C8.84188 11.4865 9.5 10.8201 9.5 10C9.5 9.15029 9.06737 8.25245 8.58397 7.52735C8.37632 7.21587 8.16811 6.94925 8 6.7484C7.83189 6.94925 7.62368 7.21587 7.41603 7.52735C6.93263 8.25245 6.5 9.15029 6.5 10C6.5 10.8201 7.15812 11.4865 7.97504 11.4998C7.98335 11.4999 7.99167 11.4999 8 11.4999C8.00833 11.4999 8.01665 11.4999 8.02497 11.4998Z" fill="#777B92"/>
<path fill-rule="evenodd" clip-rule="evenodd" d="M0.5 15C0.5 14.7239 0.723858 14.5 1 14.5H15C15.2761 14.5 15.5 14.7239 15.5 15C15.5 15.2761 15.2761 15.5 15 15.5H1C0.723858 15.5 0.5 15.2761 0.5 15Z" fill="#777B92"/>
</svg>
