<svg width="16" height="16" viewBox="0 0 16 16" fill="none" xmlns="http://www.w3.org/2000/svg">
<path fill-rule="evenodd" clip-rule="evenodd" d="M14.5 1L14.5 14.5H15C15.2761 14.5 15.5 14.7239 15.5 15C15.5 15.2761 15.2761 15.5 15 15.5H1C0.723858 15.5 0.5 15.2761 0.5 15C0.5 14.7239 0.723858 14.5 1 14.5H1.5L1.5 1C1.5 0.723858 1.72386 0.5 2 0.5C2.27614 0.5 2.5 0.723858 2.5 1V3.5L4.58535 3.5C4.79127 2.9174 5.34689 2.5 6 2.5H13.5V1C13.5 0.723858 13.7239 0.5 14 0.5C14.2761 0.5 14.5 0.723858 14.5 1ZM13.5 3.5H6C5.72386 3.5 5.5 3.72386 5.5 4V5C5.5 5.27614 5.72386 5.5 6 5.5H10C10.6531 5.5 11.2087 5.9174 11.4146 6.5L13.5 6.5V3.5ZM11.5 7.5V8C11.5 8.82843 10.8284 9.5 10 9.5H6C5.72386 9.5 5.5 9.72386 5.5 10V11C5.5 11.2761 5.72386 11.5 6 11.5H9C9.82843 11.5 10.5 12.1716 10.5 13V14.5H13.5L13.5 7.5L11.5 7.5ZM4.58535 9.5C4.79127 8.9174 5.34689 8.5 6 8.5H10C10.2761 8.5 10.5 8.27614 10.5 8V7C10.5 6.72386 10.2761 6.5 10 6.5H6C5.17157 6.5 4.5 5.82843 4.5 5V4.5H2.5V9.5H4.58535ZM4.5 10.5H2.5L2.5 14.5H9.5V13C9.5 12.7239 9.27614 12.5 9 12.5H6C5.17157 12.5 4.5 11.8284 4.5 11V10.5Z" fill="#777B92"/>
</svg>
