<svg width="16" height="16" viewBox="0 0 16 16" fill="none" xmlns="http://www.w3.org/2000/svg">
<path fill-rule="evenodd" clip-rule="evenodd" d="M1.5 1C1.5 0.723858 1.72386 0.5 2 0.5H6C6.27614 0.5 6.5 0.723858 6.5 1V5C6.5 5.27614 6.72386 5.5 7 5.5H10C12.4853 5.5 14.5 7.51472 14.5 10V15C14.5 15.2761 14.2761 15.5 14 15.5H10C9.72386 15.5 9.5 15.2761 9.5 15V11C9.5 10.7239 9.27614 10.5 9 10.5H6C3.51472 10.5 1.5 8.48528 1.5 6V1ZM2.5 1.5V6C2.5 7.933 4.067 9.5 6 9.5H9C9.82843 9.5 10.5 10.1716 10.5 11V14.5H13.5V10C13.5 8.067 11.933 6.5 10 6.5H7C6.17157 6.5 5.5 5.82843 5.5 5V1.5H2.5Z" fill="#777B92"/>
</svg>
