<svg width="16" height="16" viewBox="0 0 16 16" fill="none" xmlns="http://www.w3.org/2000/svg">
<path fill-rule="evenodd" clip-rule="evenodd" d="M8 13C7.44772 13 7 12.5523 7 12C7 11.4477 7.44772 11 8 11C8.55228 11 9 11.4477 9 12C9 12.5523 8.55228 13 8 13Z" fill="#777B92"/>
<path fill-rule="evenodd" clip-rule="evenodd" d="M0.5 3C0.5 1.61929 1.61929 0.5 3 0.5H13C14.3807 0.5 15.5 1.61929 15.5 3V6C15.5 7.36184 14.3817 8.55395 12.9513 8.41145C12.3569 8.35223 11.8918 8.26761 11.5 8.1741V10.5H14C14.8284 10.5 15.5 11.1716 15.5 12C15.5 12.8284 14.8284 13.5 14 13.5H11.1632C10.6015 14.6825 9.3962 15.5 8 15.5C6.6038 15.5 5.39855 14.6825 4.83682 13.5H2C1.17157 13.5 0.5 12.8284 0.5 12C0.5 11.1716 1.17157 10.5 2 10.5H4.5V8.1741C4.10823 8.26761 3.64315 8.35223 3.04866 8.41145C1.61827 8.55395 0.5 7.36184 0.5 6V3ZM5.48804 7.89078C5.49587 7.92593 5.5 7.96248 5.5 8V9.55051C6.13526 8.90223 7.02066 8.5 8 8.5C8.97934 8.5 9.86474 8.90223 10.5 9.55051V8C10.5 7.96248 10.5041 7.92593 10.512 7.89078C10.4613 7.87481 10.4111 7.85904 10.3612 7.84355C9.75864 7.6566 9.16777 7.5 8 7.5C6.83223 7.5 6.24136 7.6566 5.63884 7.84355C5.58892 7.85904 5.53874 7.87481 5.48804 7.89078ZM3 1.5C2.17157 1.5 1.5 2.17157 1.5 3V6C1.5 6.8473 2.18166 7.49288 2.94953 7.41638C3.99646 7.31208 4.58048 7.12815 5.15448 6.94739C5.21707 6.92768 5.27955 6.908 5.3425 6.88847C6.01728 6.67909 6.70963 6.5 8 6.5C9.29037 6.5 9.98272 6.67909 10.6575 6.88847C10.7204 6.908 10.7829 6.92768 10.8455 6.94739C11.4195 7.12815 12.0035 7.31208 13.0505 7.41638C13.8183 7.49288 14.5 6.8473 14.5 6V3C14.5 2.17157 13.8284 1.5 13 1.5H3ZM8 9.5C6.61929 9.5 5.5 10.6193 5.5 12C5.5 13.3807 6.61929 14.5 8 14.5C9.38071 14.5 10.5 13.3807 10.5 12C10.5 10.6193 9.38071 9.5 8 9.5ZM4.53544 11.5H2C1.72386 11.5 1.5 11.7239 1.5 12C1.5 12.2761 1.72386 12.5 2 12.5H4.53544C4.51209 12.3367 4.5 12.1698 4.5 12C4.5 11.8302 4.51209 11.6633 4.53544 11.5ZM11.5 12C11.5 12.1698 11.4879 12.3367 11.4646 12.5H14C14.2761 12.5 14.5 12.2761 14.5 12C14.5 11.7239 14.2761 11.5 14 11.5H11.4646C11.4879 11.6633 11.5 11.8302 11.5 12Z" fill="#777B92"/>
</svg>
