<svg width="16" height="16" viewBox="0 0 16 16" fill="none" xmlns="http://www.w3.org/2000/svg">
<path fill-rule="evenodd" clip-rule="evenodd" d="M4 7C3.44772 7 3 6.55228 3 6C3 5.44772 3.44772 5 4 5C4.55228 5 5 5.44772 5 6C5 6.55228 4.55228 7 4 7Z" fill="#777B92"/>
<path fill-rule="evenodd" clip-rule="evenodd" d="M13 6C13 6.55228 12.5523 7 12 7C11.4477 7 11 6.55228 11 6C11 5.44772 11.4477 5 12 5C12.5523 5 13 5.44772 13 6Z" fill="#777B92"/>
<path fill-rule="evenodd" clip-rule="evenodd" d="M2 0.5H14C14.2761 0.5 14.5 0.723858 14.5 1C14.5 1.27614 14.2761 1.5 14 1.5H12.5V2.53544C14.1961 2.77806 15.5 4.23676 15.5 6C15.5 6.95483 15.1177 7.82036 14.4977 8.45183C14.4992 8.46768 14.5 8.48375 14.5 8.5V9C14.5 12.5899 11.5899 15.5 8 15.5C4.41015 15.5 1.5 12.5899 1.5 9V8.5C1.5 8.48375 1.50078 8.46768 1.50229 8.45183C0.882348 7.82036 0.5 6.95483 0.5 6C0.5 4.23676 1.80385 2.77806 3.5 2.53544V1.5H2.5V2C2.5 2.27614 2.27614 2.5 2 2.5C1.72386 2.5 1.5 2.27614 1.5 2V1C1.5 0.723858 1.72386 0.5 2 0.5ZM4.5 2.53544C6.19615 2.77806 7.5 4.23676 7.5 6C7.5 6.26963 7.46951 6.53215 7.41179 6.78428L8 6L8.58821 6.78428C8.53049 6.53215 8.5 6.26963 8.5 6C8.5 4.23676 9.80385 2.77806 11.5 2.53544V1.5H4.5V2.53544ZM6.64571 8.29142C6.32907 8.6567 5.93805 8.95574 5.4962 9.16499C5.44865 10.1774 4.96195 11.615 3.59537 12.2944C4.59854 13.6335 6.19807 14.5 8 14.5C9.82261 14.5 11.4382 13.6135 12.4389 12.2481C11.9666 11.9269 11.5368 11.4566 11.209 10.9648C10.8426 10.4153 10.5535 9.76361 10.5067 9.16634C10.0636 8.95703 9.67161 8.65749 9.35429 8.29142L8 11L6.64571 8.29142ZM4 3.5C2.61929 3.5 1.5 4.61929 1.5 6C1.5 7.38071 2.61929 8.5 4 8.5C5.38071 8.5 6.5 7.38071 6.5 6C6.5 4.61929 5.38071 3.5 4 3.5ZM13.4976 9.16433C13.0436 9.37958 12.5359 9.5 12 9.5C11.8585 9.5 11.719 9.4916 11.5819 9.47529C11.6693 9.76117 11.825 10.0862 12.041 10.4101C12.3101 10.8137 12.6367 11.1614 12.9554 11.3892C13.282 10.713 13.4742 9.95987 13.4976 9.16433ZM4 9.5C3.46415 9.5 2.95642 9.37958 2.50241 9.16433C2.5263 9.97869 2.72723 10.7486 3.06802 11.437C3.92338 11.0482 4.33953 10.2156 4.46111 9.4699C4.31022 9.48975 4.15631 9.5 4 9.5ZM12 3.5C10.6193 3.5 9.5 4.61929 9.5 6C9.5 7.38071 10.6193 8.5 12 8.5C13.3807 8.5 14.5 7.38071 14.5 6C14.5 4.61929 13.3807 3.5 12 3.5Z" fill="#777B92"/>
</svg>
