<svg width="16" height="16" viewBox="0 0 16 16" fill="none" xmlns="http://www.w3.org/2000/svg">
<path fill-rule="evenodd" clip-rule="evenodd" d="M6 5C5.44772 5 5 4.55228 5 4C5 3.44772 5.44772 3 6 3C6.55228 3 7 3.44772 7 4C7 4.55228 6.55228 5 6 5Z" fill="#777B92"/>
<path fill-rule="evenodd" clip-rule="evenodd" d="M11 4C11 4.55228 10.5523 5 10 5C9.44772 5 9 4.55228 9 4C9 3.44772 9.44772 3 10 3C10.5523 3 11 3.44772 11 4Z" fill="#777B92"/>
<path fill-rule="evenodd" clip-rule="evenodd" d="M3 0.5H12C12.8284 0.5 13.5 1.17157 13.5 2V2.5H14C14.8284 2.5 15.5 3.17157 15.5 4V6C15.5 6.82843 14.8284 7.5 14 7.5H13.5V8C13.5 8.82843 12.8284 9.5 12 9.5H9.5V11.5H10C10.8284 11.5 11.5 12.1716 11.5 13V14C11.5 14.8284 10.8284 15.5 10 15.5H5C4.17157 15.5 3.5 14.8284 3.5 14V13C3.5 12.1716 4.17157 11.5 5 11.5H5.5V9.5H3C1.61929 9.5 0.5 8.38071 0.5 7V3C0.5 1.61929 1.61929 0.5 3 0.5ZM12.5 2C12.5 1.72386 12.2761 1.5 12 1.5H3.5L3.5 8.5H12C12.2761 8.5 12.5 8.27614 12.5 8V2ZM13.5 6.5H14C14.2761 6.5 14.5 6.27614 14.5 6V4C14.5 3.72386 14.2761 3.5 14 3.5H13.5V6.5ZM2.5 8.41465L2.5 1.58535C1.9174 1.79127 1.5 2.34689 1.5 3V7C1.5 7.65311 1.9174 8.20873 2.5 8.41465ZM6.5 11.5H8.5V9.5H6.5V11.5ZM5 12.5C4.72386 12.5 4.5 12.7239 4.5 13V14C4.5 14.2761 4.72386 14.5 5 14.5H10C10.2761 14.5 10.5 14.2761 10.5 14V13C10.5 12.7239 10.2761 12.5 10 12.5H5Z" fill="#777B92"/>
</svg>
