<svg width="16" height="16" viewBox="0 0 16 16" fill="none" xmlns="http://www.w3.org/2000/svg">
<path fill-rule="evenodd" clip-rule="evenodd" d="M7.7 6.6C7.87778 6.46667 8.12222 6.46667 8.3 6.6L8.30112 6.60084L8.30297 6.60224L8.30881 6.60667L8.32875 6.622C8.34558 6.63505 8.36938 6.65372 8.39913 6.67763C8.4586 6.72541 8.54214 6.79436 8.64175 6.88152C8.84027 7.05523 9.10621 7.30439 9.3737 7.60532C9.88524 8.18079 10.5 9.05249 10.5 10C10.5 11.3807 9.38071 12.5 8 12.5C6.61929 12.5 5.5 11.3807 5.5 10C5.5 9.05249 6.11476 8.18079 6.6263 7.60532C6.89379 7.30439 7.15973 7.05523 7.35825 6.88152C7.45786 6.79436 7.5414 6.72541 7.60087 6.67763C7.63062 6.65372 7.65442 6.63505 7.67125 6.622L7.69119 6.60667L7.69703 6.60224L7.69888 6.60084L7.7 6.6ZM8 7L8.3 6.6C8.3 6.6 8.3 6.6 8 7ZM7.7 6.6L8 7C7.7 6.6 7.7 6.6 7.7 6.6ZM8 7.6488C7.82561 7.80232 7.59893 8.01631 7.3737 8.26968C6.88524 8.81921 6.5 9.44751 6.5 10C6.5 10.8284 7.17157 11.5 8 11.5C8.82843 11.5 9.5 10.8284 9.5 10C9.5 9.44751 9.11476 8.81921 8.6263 8.26968C8.40107 8.01631 8.17439 7.80232 8 7.6488Z" fill="#777B92"/>
<path fill-rule="evenodd" clip-rule="evenodd" d="M7.5 1C7.5 0.723858 7.72386 0.5 8 0.5H12C12.2761 0.5 12.5 0.723858 12.5 1C12.5 1.27614 12.2761 1.5 12 1.5H10.5V2.5H12C12.8284 2.5 13.5 3.17157 13.5 4V14C13.5 14.8284 12.8284 15.5 12 15.5H4C3.17157 15.5 2.5 14.8284 2.5 14V7.41421C2.5 7.02826 2.64874 6.65764 2.91449 6.379C2.65274 5.98376 2.5 5.50938 2.5 5C2.5 3.61929 3.61929 2.5 5 2.5C5.50944 2.5 5.98378 2.65275 6.379 2.91449C6.65764 2.64874 7.02826 2.5 7.41421 2.5H9.5V1.5H8C7.72386 1.5 7.5 1.27614 7.5 1ZM5.6468 3.64609C5.45101 3.55236 5.23179 3.5 5 3.5C4.17157 3.5 3.5 4.17157 3.5 5C3.5 5.23182 3.55236 5.45103 3.64609 5.6468L5.6468 3.64609ZM7.41421 3.5C7.28161 3.5 7.15443 3.55268 7.06066 3.64645L3.64645 7.06066C3.55268 7.15443 3.5 7.28161 3.5 7.41421V14C3.5 14.2761 3.72386 14.5 4 14.5H12C12.2761 14.5 12.5 14.2761 12.5 14V4C12.5 3.72386 12.2761 3.5 12 3.5H7.41421Z" fill="#777B92"/>
</svg>
