<svg width="16" height="16" viewBox="0 0 16 16" fill="none" xmlns="http://www.w3.org/2000/svg">
<path fill-rule="evenodd" clip-rule="evenodd" d="M8.47434 0.841886C8.504 0.930859 8.58937 1.07232 8.7726 1.27541C8.94994 1.47197 9.18727 1.69232 9.4759 1.94247C9.67723 2.11695 9.90707 2.30852 10.1525 2.51311C10.5849 2.8735 11.0658 3.2743 11.5246 3.69326C12.97 5.0129 14.5 6.76796 14.5 9C14.5 12.5899 11.5899 15.5 8 15.5C4.41015 15.5 1.5 12.5899 1.5 9C1.5 6.76796 3.03005 5.0129 4.47537 3.69326C4.93423 3.2743 5.41508 2.87351 5.84747 2.51311C6.09293 2.30852 6.32277 2.11695 6.5241 1.94247C6.81273 1.69232 7.05006 1.47197 7.2274 1.27541C7.41063 1.07232 7.496 0.930859 7.52566 0.841886C7.59372 0.637715 7.78478 0.5 8 0.5C8.21522 0.5 8.40628 0.637715 8.47434 0.841886ZM13.4674 8.5C13.2647 6.94773 12.1433 5.61222 10.8504 4.43174C10.4023 4.02263 9.9631 3.65697 9.54654 3.31014C9.29546 3.1011 9.05259 2.89889 8.82097 2.69816C8.52367 2.4405 8.24928 2.18819 8.03013 1.94529L8 1.91156L7.96987 1.94529C7.75072 2.18819 7.47633 2.4405 7.17903 2.69816C6.9474 2.8989 6.70455 3.1011 6.45347 3.31014C6.03691 3.65696 5.59771 4.02263 5.14963 4.43174C3.71995 5.7371 2.5 7.23204 2.5 9C2.5 11.869 4.69675 14.225 7.5 14.4776V11C7.5 10.7239 7.72386 10.5 8 10.5H9.5V9C9.5 8.72386 9.72386 8.5 10 8.5H13.4674ZM8.5 14.4776C11.1386 14.2398 13.2398 12.1386 13.4776 9.5H10.5V11C10.5 11.2761 10.2761 11.5 10 11.5H8.5V14.4776Z" fill="#777B92"/>
</svg>
