<svg width="16" height="16" viewBox="0 0 16 16" fill="none" xmlns="http://www.w3.org/2000/svg">
<path fill-rule="evenodd" clip-rule="evenodd" d="M7.5 1.51894C4.14378 1.77426 1.5 4.57838 1.5 8C1.5 11.5899 4.41015 14.5 8 14.5C11.5899 14.5 14.5 11.5899 14.5 8C14.5 6.00659 13.1445 4.16299 11.5 2.93763V4.5C11.5 4.77614 11.2761 5 11 5C10.7239 5 10.5 4.77614 10.5 4.5V2C10.5 1.72386 10.7239 1.5 11 1.5H14C14.2761 1.5 14.5 1.72386 14.5 2C14.5 2.27614 14.2761 2.5 14 2.5H12.5569C14.1585 3.84143 15.5 5.78383 15.5 8C15.5 12.1421 12.1421 15.5 8 15.5C3.85786 15.5 0.5 12.1421 0.5 8C0.5 3.85786 3.85786 0.5 8 0.5C8.27614 0.5 8.5 0.723858 8.5 1V5.55001C9.64112 5.78164 10.5 6.79052 10.5 8C10.5 9.38071 9.38071 10.5 8 10.5C6.61929 10.5 5.5 9.38071 5.5 8C5.5 6.79052 6.35888 5.78164 7.5 5.55001V1.51894ZM8 6.5C7.17157 6.5 6.5 7.17157 6.5 8C6.5 8.82843 7.17157 9.5 8 9.5C8.82843 9.5 9.5 8.82843 9.5 8C9.5 7.17157 8.82843 6.5 8 6.5Z" fill="#777B92"/>
</svg>
