<svg width="16" height="16" viewBox="0 0 16 16" fill="none" xmlns="http://www.w3.org/2000/svg">
<path fill-rule="evenodd" clip-rule="evenodd" d="M11 5C10.4477 5 10 4.55228 10 4C10 3.44772 10.4477 3 11 3C11.5523 3 12 3.44772 12 4C12 4.55228 11.5523 5 11 5Z" fill="#777B92"/>
<path fill-rule="evenodd" clip-rule="evenodd" d="M0.5 2C0.5 1.17157 1.17157 0.5 2 0.5H14C14.8284 0.5 15.5 1.17157 15.5 2V14C15.5 14.8284 14.8284 15.5 14 15.5H2C1.17157 15.5 0.5 14.8284 0.5 14V2ZM14.5 14V2C14.5 1.72386 14.2761 1.5 14 1.5H2C1.72386 1.5 1.5 1.72386 1.5 2V14C1.5 14.2761 1.72386 14.5 2 14.5H7.5L7.5 9.48229C6.10054 9.38184 4.89989 8.857 4.02145 7.97855C3.04006 6.99716 2.5 5.61362 2.5 4C2.5 3.72386 2.72386 3.5 3 3.5C4.61362 3.5 5.99716 4.04006 6.97855 5.02145C7.88824 5.93113 8.41873 7.18635 8.49139 8.65006C8.65028 8.42566 8.82722 8.21567 9.02145 8.02145C10.0028 7.04006 11.3864 6.5 13 6.5C13.2761 6.5 13.5 6.72386 13.5 7C13.5 8.61362 12.9599 9.99716 11.9786 10.9786C11.1001 11.857 9.89946 12.3818 8.5 12.4823V14.5H14C14.2761 14.5 14.5 14.2761 14.5 14ZM3.52261 4.52261C3.62373 5.66849 4.05904 6.60193 4.72855 7.27145C5.39807 7.94096 6.33151 8.37627 7.47739 8.47739C7.37627 7.33151 6.94096 6.39807 6.27145 5.72855C5.60193 5.05904 4.66849 4.62373 3.52261 4.52261ZM11.2714 10.2714C11.941 9.60193 12.3763 8.66849 12.4774 7.52261C11.3315 7.62373 10.3981 8.05904 9.72855 8.72855C9.05904 9.39807 8.62373 10.3315 8.52261 11.4774C9.66849 11.3763 10.6019 10.941 11.2714 10.2714Z" fill="#777B92"/>
</svg>
