<svg width="16" height="16" viewBox="0 0 16 16" fill="none" xmlns="http://www.w3.org/2000/svg">
<path fill-rule="evenodd" clip-rule="evenodd" d="M6 0.5H10C13.0376 0.5 15.5 2.96243 15.5 6C15.5 8.14096 14.2767 9.9962 12.491 10.9049C12.4969 10.9357 12.5 10.9675 12.5 11V14.5H15C15.2761 14.5 15.5 14.7239 15.5 15C15.5 15.2761 15.2761 15.5 15 15.5H1C0.723858 15.5 0.5 15.2761 0.5 15C0.5 14.7239 0.723858 14.5 1 14.5H3.5L3.5 11C3.5 10.9675 3.50311 10.9357 3.50904 10.9049C1.72329 9.9962 0.5 8.14096 0.5 6C0.5 2.96243 2.96243 0.5 6 0.5ZM5.5 1.52746C3.25002 1.77619 1.5 3.68372 1.5 6C1.5 8.31628 3.25002 10.2238 5.5 10.4725V1.52746ZM6.5 3.5H9.5V1.5H6.5V3.5ZM6.5 4.5V7.5H9.5V4.5H6.5ZM6.5 8.5V10.5H9.5V8.5H6.5ZM6 11.5C5.47999 11.5 4.97683 11.4278 4.5 11.293L4.5 14.5H11.5V11.293C11.0232 11.4278 10.52 11.5 10 11.5H6ZM14.5 6C14.5 3.68372 12.75 1.77619 10.5 1.52746V10.4725C12.75 10.2238 14.5 8.31628 14.5 6Z" fill="#777B92"/>
</svg>
