<svg width="16" height="16" viewBox="0 0 16 16" fill="none" xmlns="http://www.w3.org/2000/svg">
<path fill-rule="evenodd" clip-rule="evenodd" d="M7.5 1.5H6C5.72386 1.5 5.5 1.27614 5.5 1C5.5 0.723858 5.72386 0.5 6 0.5H10C10.2761 0.5 10.5 0.723858 10.5 1C10.5 1.27614 10.2761 1.5 10 1.5H8.5V5.5H11C11.2761 5.5 11.5 5.72386 11.5 6C11.5 6.27614 11.2761 6.5 11 6.5H10.5V9.5H14.5V9C14.5 8.72386 14.7239 8.5 15 8.5C15.2761 8.5 15.5 8.72386 15.5 9V15C15.5 15.2761 15.2761 15.5 15 15.5C14.7239 15.5 14.5 15.2761 14.5 15V14.5H1.5V15C1.5 15.2761 1.27614 15.5 1 15.5C0.723858 15.5 0.5 15.2761 0.5 15V9C0.5 8.72386 0.723858 8.5 1 8.5C1.27614 8.5 1.5 8.72386 1.5 9V9.5H5.5V6.5H5C4.72386 6.5 4.5 6.27614 4.5 6C4.5 5.72386 4.72386 5.5 5 5.5H7.5L7.5 1.5ZM6.5 9.5H9.5V6.5H6.5V9.5ZM1.5 10.5V13.5H14.5V10.5H1.5Z" fill="#777B92"/>
</svg>
