<svg width="22" height="22" viewBox="0 0 22 22" fill="none" xmlns="http://www.w3.org/2000/svg">
<path d="M15.9932 14.5872L5.40848 4.00299L3.70933 2.29393C3.61614 2.20074 3.5055 2.12682 3.38374 2.07639C3.26198 2.02596 3.13148 2 2.99968 2C2.86789 2 2.73739 2.02596 2.61563 2.07639C2.49387 2.12682 2.38323 2.20074 2.29004 2.29393C2.10183 2.48213 1.99609 2.73738 1.99609 3.00354C1.99609 3.2697 2.10183 3.52495 2.29004 3.71315L2.82977 4.24286L15.3835 16.796L18.282 19.7044C18.375 19.798 18.4855 19.8724 18.6073 19.9231C18.7291 19.9739 18.8597 20 18.9917 20C19.1236 20 19.2543 19.9739 19.3761 19.9231C19.4979 19.8724 19.6084 19.798 19.7013 19.7044C19.795 19.6115 19.8694 19.5009 19.9201 19.3791C19.9709 19.2573 19.997 19.1267 19.997 18.9948C19.997 18.8628 19.9709 18.7322 19.9201 18.6104C19.8694 18.4886 19.795 18.3781 19.7013 18.2851L15.9932 14.5872Z" fill="#97A3BA"/>
<path d="M12.994 15.9966H3.9985C3.73342 15.9966 3.47919 15.8913 3.29175 15.7039C3.1043 15.5164 2.999 15.2622 2.999 14.9971V7.00153C3.00206 6.84976 3.03965 6.70068 3.10892 6.5656C3.1782 6.43053 3.27733 6.313 3.3988 6.22195L1.9995 4.80273C1.68954 5.0799 1.44062 5.41851 1.26855 5.79704C1.09648 6.17557 1.00503 6.58576 1 7.00153V14.9971C1 15.7923 1.31591 16.555 1.87824 17.1173C2.44057 17.6796 3.20325 17.9955 3.9985 17.9955H12.994C13.5858 17.9965 14.1641 17.8189 14.6532 17.4858L13.1339 15.9966C13.0874 16.0013 13.0405 16.0013 12.994 15.9966Z" fill="#97A3BA"/>
<path fill-rule="evenodd" clip-rule="evenodd" d="M19.021 6.02386C19.3497 5.97055 19.6869 6.01502 19.9906 6.15175C20.2872 6.26943 20.5419 6.47318 20.7218 6.73679C20.9017 7.00039 20.9986 7.3118 21.0001 7.63094V14.3672C20.9994 14.6852 20.904 14.9958 20.7259 15.2593C20.5479 15.5228 20.2954 15.7272 20.0006 15.8464C19.7839 15.9447 19.5488 15.9958 19.3109 15.9963C19.1061 15.9955 18.903 15.9583 18.7112 15.8864L13.9936 11.169V7.00128C13.9936 6.73621 13.8883 6.482 13.7008 6.29456C13.5134 6.10713 13.2591 6.00183 12.9941 6.00183H8.82615L6.82715 4.00293H12.9941C13.7893 4.00293 14.552 4.31883 15.1143 4.88113C15.6767 5.44343 15.9926 6.20607 15.9926 7.00128V8.45049L18.1415 6.45158C18.3864 6.2259 18.6922 6.07716 19.021 6.02386ZM16.1825 10.9991L18.9911 13.5977V8.40051L16.1825 10.9991Z" fill="#97A3BA"/>
</svg>
