<svg width="22" height="23" viewBox="0 0 22 23" fill="none" xmlns="http://www.w3.org/2000/svg">
<path fill-rule="evenodd" clip-rule="evenodd" d="M1.00409 10L21.001 6.538L20.0291 1.64782C19.8343 0.563465 18.7812 -0.160579 17.6768 0.030622L1.67925 2.80022C0.574857 2.99142 -0.162571 4.02546 0.0321645 5.10981L1.00409 10ZM2.65118 7.6904L2.03185 4.76361L5.45082 4.1717L4.27229 7.40975L2.65118 7.6904ZM6.53969 7.0172L9.21785 6.55354L10.377 3.31884L7.71823 3.77915L6.53969 7.0172ZM12.6387 2.92729L11.4795 6.16199L14.3261 5.66916L15.3527 2.45742L12.6387 2.92729ZM17.5749 2.0727L16.5483 5.28443L18.6487 4.92081L18.0294 1.99402L17.5749 2.0727Z" fill="#97A3BA"/>
<path fill-rule="evenodd" clip-rule="evenodd" d="M1.00409 10H1L1 20C1 21.1046 1.89543 22 3 22H19C20.1046 22 21 21.1046 21 20L21 10H1.00409ZM3 12V20H19V12H3Z" fill="#97A3BA"/>
</svg>
