<svg width="22" height="22" viewBox="0 0 22 22" fill="none" xmlns="http://www.w3.org/2000/svg">
<path d="M19.9905 6.15C19.6868 6.0132 19.3497 5.9687 19.0209 6.02204C18.6922 6.07537 18.3863 6.22419 18.1414 6.45L15.9925 8.45V7C15.9925 6.20435 15.6766 5.44129 15.1143 4.87868C14.5519 4.31607 13.7893 4 12.994 4H3.9985C3.20325 4 2.44057 4.31607 1.87824 4.87868C1.31591 5.44129 1 6.20435 1 7V15C1 15.7956 1.31591 16.5587 1.87824 17.1213C2.44057 17.6839 3.20325 18 3.9985 18H12.994C13.7893 18 14.5519 17.6839 15.1143 17.1213C15.6766 16.5587 15.9925 15.7956 15.9925 15V13.55L18.1514 15.55C18.4693 15.8378 18.8821 15.9981 19.3108 16C19.5488 15.9994 19.7838 15.9483 20.0005 15.85C20.2953 15.7307 20.5478 15.5262 20.7259 15.2625C20.9039 14.9989 20.9994 14.6882 21 14.37V7.63C20.9986 7.31069 20.9016 6.99911 20.7217 6.73536C20.5418 6.47161 20.2872 6.26774 19.9905 6.15ZM13.9935 15C13.9935 15.2652 13.8882 15.5196 13.7008 15.7071C13.5133 15.8946 13.2591 16 12.994 16H3.9985C3.73342 16 3.47919 15.8946 3.29175 15.7071C3.1043 15.5196 2.999 15.2652 2.999 15V7C2.999 6.73478 3.1043 6.48043 3.29175 6.29289C3.47919 6.10536 3.73342 6 3.9985 6H12.994C13.2591 6 13.5133 6.10536 13.7008 6.29289C13.8882 6.48043 13.9935 6.73478 13.9935 7V15ZM18.991 13.6L16.1824 11L18.991 8.4V13.6Z" fill="#97A3BA"/>
</svg>
