<svg width="22" height="22" viewBox="0 0 22 22" fill="none" xmlns="http://www.w3.org/2000/svg">
<path fill-rule="evenodd" clip-rule="evenodd" d="M4.74 2H12.5997C12.2881 2.60964 12.0868 3.28509 12.0224 4H8V18H14V8.74284C15.7264 10.1686 17.9308 10.4581 20 9.40029V17.26C20 17.9867 19.7113 18.6836 19.1975 19.1975C18.6836 19.7113 17.9867 20 17.26 20H4.74C4.01331 20 3.31638 19.7113 2.80253 19.1975C2.28868 18.6836 2 17.9867 2 17.26V4.74C2 4.01331 2.28868 3.31638 2.80253 2.80253C3.31638 2.28868 4.01331 2 4.74 2ZM6 10H4V8H6V10ZM4 12H6V14H4V12ZM16 12H18V14H16V12ZM4.74 4H6V6H4V4.74C4 4.64282 4.01914 4.5466 4.05633 4.45681C4.09352 4.36703 4.14803 4.28546 4.21674 4.21674C4.28546 4.14803 4.36703 4.09352 4.45681 4.05633C4.5466 4.01914 4.64282 4 4.74 4ZM4 17.26V16H6V18H4.74C4.64282 18 4.5466 17.9809 4.45681 17.9437C4.36703 17.9065 4.28546 17.852 4.21674 17.7833C4.14803 17.7145 4.09352 17.633 4.05633 17.5432C4.01914 17.4534 4 17.3572 4 17.26ZM17.26 18H16V16H18V17.26C18 17.4563 17.922 17.6445 17.7833 17.7833C17.6445 17.922 17.4563 18 17.26 18Z" fill="#97A3BA"/>
<path d="M16.0438 6.9704C15.7706 6.9704 15.5083 6.86392 15.3132 6.67382C15.122 6.47988 15.0149 6.21914 15.0149 5.94757C15.0149 5.676 15.122 5.41525 15.3132 5.22131L16.0388 4.5L15.3132 3.77869C15.1155 3.58607 15.0028 3.32327 15.0001 3.04809C14.9973 2.77291 15.1045 2.5079 15.2983 2.31136C15.4921 2.11481 15.7564 2.00283 16.0333 2.00005C16.3101 1.99727 16.5767 2.10392 16.7744 2.29654L17.5 3.01785L18.2256 2.32618C18.3216 2.23081 18.4355 2.15515 18.5608 2.10354C18.6862 2.05192 18.8205 2.02535 18.9562 2.02535C19.0919 2.02535 19.2262 2.05192 19.3516 2.10354C19.4769 2.15515 19.5908 2.23081 19.6868 2.32618C19.7827 2.42155 19.8588 2.53478 19.9108 2.65939C19.9627 2.784 19.9894 2.91756 19.9894 3.05243C19.9894 3.18731 19.9627 3.32087 19.9108 3.44548C19.8588 3.57009 19.7827 3.68331 19.6868 3.77869L18.9612 4.5L19.6868 5.22131C19.8845 5.41393 19.9972 5.67673 19.9999 5.95191C20.0027 6.22709 19.8955 6.4921 19.7017 6.68864C19.5079 6.88519 19.2436 6.99717 18.9667 6.99995C18.6899 7.00273 18.4233 6.89608 18.2256 6.70346L17.5 5.98215L16.7744 6.67382C16.5793 6.86392 16.317 6.9704 16.0438 6.9704Z" fill="#97A3BA"/>
</svg>
