<svg width="22" height="22" viewBox="0 0 22 22" fill="none" xmlns="http://www.w3.org/2000/svg">
<path fill-rule="evenodd" clip-rule="evenodd" d="M14.613 7.47488C14.7927 7.59021 14.9609 7.72528 15.1143 7.87868C15.6766 8.44129 15.9925 9.20435 15.9925 10V11.45L18.1414 9.45C18.3863 9.22419 18.6922 9.07537 19.0209 9.02204C19.3497 8.9687 19.6868 9.0132 19.9905 9.15C20.2872 9.26775 20.5418 9.47161 20.7217 9.73536C20.9016 9.99911 20.9986 10.3107 21 10.63V17.37C20.9994 17.6882 20.9039 17.9989 20.7259 18.2625C20.5478 18.5262 20.2953 18.7307 20.0005 18.85C19.7838 18.9483 19.5488 18.9994 19.3108 19C18.8821 18.9981 18.4693 18.8378 18.1514 18.55L15.9925 16.55V18C15.9925 18.7956 15.6766 19.5587 15.1143 20.1213C14.5519 20.6839 13.7893 21 12.994 21H3.9985C3.20325 21 2.44057 20.6839 1.87824 20.1213C1.31591 19.5587 1 18.7956 1 18V10C1 9.20435 1.31591 8.44129 1.87824 7.87868C2.33483 7.42186 2.92351 7.12758 3.55447 7.03307C3.20218 6.43731 3 5.74226 3 5C3 2.79086 4.79086 1 7 1C8.61221 1 10.0016 1.9538 10.6348 3.32791C11.0443 3.11827 11.5083 3 12 3C13.6569 3 15 4.34315 15 6C15 6.53609 14.8594 7.03934 14.613 7.47488ZM7 3C5.89543 3 5 3.89543 5 5C5 6.10457 5.89543 7 7 7C8.10457 7 9 6.10457 9 5C9 3.89543 8.10457 3 7 3ZM12 7C11.4477 7 11 6.55228 11 6C11 5.44772 11.4477 5 12 5C12.5523 5 13 5.44772 13 6C13 6.55228 12.5523 7 12 7ZM3.9985 9H12.994C13.2591 9 13.5133 9.10536 13.7008 9.29289C13.8882 9.48043 13.9935 9.73478 13.9935 10V18C13.9935 18.2652 13.8882 18.5196 13.7008 18.7071C13.5133 18.8946 13.2591 19 12.994 19H3.9985C3.73342 19 3.47919 18.8946 3.29175 18.7071C3.1043 18.5196 2.999 18.2652 2.999 18V10C2.999 9.73478 3.1043 9.48043 3.29175 9.29289C3.47919 9.10536 3.73342 9 3.9985 9ZM18.991 16.6L16.1824 14L18.991 11.4V16.6Z" fill="#97A3BA"/>
</svg>
