<svg width="22" height="22" viewBox="0 0 22 22" fill="none" xmlns="http://www.w3.org/2000/svg">
<path d="M17.26 2H4.74C4.01331 2 3.31638 2.28868 2.80253 2.80253C2.28868 3.31638 2 4.01331 2 4.74V17.26C2 17.9867 2.28868 18.6836 2.80253 19.1975C3.31638 19.7113 4.01331 20 4.74 20H17.26C17.9867 20 18.6836 19.7113 19.1975 19.1975C19.7113 18.6836 20 17.9867 20 17.26V4.74C20 4.01331 19.7113 3.31638 19.1975 2.80253C18.6836 2.28868 17.9867 2 17.26 2ZM6 10H4V8H6V10ZM4 12H6V14H4V12ZM8 4H14V18H8V4ZM18 10H16V8H18V10ZM16 12H18V14H16V12ZM18 4.74V6H16V4H17.26C17.3572 4 17.4534 4.01914 17.5432 4.05633C17.633 4.09352 17.7145 4.14803 17.7833 4.21674C17.852 4.28546 17.9065 4.36703 17.9437 4.45681C17.9809 4.5466 18 4.64282 18 4.74ZM4.74 4H6V6H4V4.74C4 4.64282 4.01914 4.5466 4.05633 4.45681C4.09352 4.36703 4.14803 4.28546 4.21674 4.21674C4.28546 4.14803 4.36703 4.09352 4.45681 4.05633C4.5466 4.01914 4.64282 4 4.74 4ZM4 17.26V16H6V18H4.74C4.64282 18 4.5466 17.9809 4.45681 17.9437C4.36703 17.9065 4.28546 17.852 4.21674 17.7833C4.14803 17.7145 4.09352 17.633 4.05633 17.5432C4.01914 17.4534 4 17.3572 4 17.26ZM18 17.26C18 17.4563 17.922 17.6445 17.7833 17.7833C17.6445 17.922 17.4563 18 17.26 18H16V16H18V17.26Z" fill="#97A3BA"/>
</svg>
