<svg width="22" height="22" viewBox="0 0 22 22" fill="none" xmlns="http://www.w3.org/2000/svg">
<path d="M7.0438 16.4704C6.77061 16.4704 6.50831 16.3639 6.31321 16.1738C6.12198 15.9799 6.01487 15.7191 6.01487 15.4476C6.01487 15.176 6.12198 14.9153 6.31321 14.7213L7.03883 14L6.31321 13.2787C6.1155 13.0861 6.00285 12.8233 6.00005 12.5481C5.99726 12.2729 6.10454 12.0079 6.2983 11.8114C6.49207 11.6148 6.75644 11.5028 7.03326 11.5001C7.31008 11.4973 7.57667 11.6039 7.77439 11.7965L8.5 12.5178L9.22562 11.8262C9.32156 11.7308 9.43546 11.6552 9.56081 11.6035C9.68616 11.5519 9.82052 11.5254 9.9562 11.5254C10.0919 11.5254 10.2262 11.5519 10.3516 11.6035C10.4769 11.6552 10.5908 11.7308 10.6868 11.8262C10.7827 11.9216 10.8588 12.0348 10.9108 12.1594C10.9627 12.284 10.9894 12.4176 10.9894 12.5524C10.9894 12.6873 10.9627 12.8209 10.9108 12.9455C10.8588 13.0701 10.7827 13.1833 10.6868 13.2787L9.96117 14L10.6868 14.7213C10.8845 14.9139 10.9972 15.1767 10.9999 15.4519C11.0027 15.7271 10.8955 15.9921 10.7017 16.1886C10.5079 16.3852 10.2436 16.4972 9.96674 16.4999C9.68993 16.5027 9.42333 16.3961 9.22562 16.2035L8.5 15.4822L7.77439 16.1738C7.57929 16.3639 7.31699 16.4704 7.0438 16.4704Z" fill="#97A3BA"/>
<path fill-rule="evenodd" clip-rule="evenodd" d="M14.613 7.47488C14.7927 7.59021 14.9609 7.72528 15.1143 7.87868C15.6766 8.44129 15.9925 9.20435 15.9925 10V11.45L18.1414 9.45C18.3863 9.22419 18.6922 9.07537 19.0209 9.02204C19.3497 8.9687 19.6868 9.0132 19.9905 9.15C20.2872 9.26775 20.5418 9.47161 20.7217 9.73536C20.9016 9.99911 20.9986 10.3107 21 10.63V17.37C20.9994 17.6882 20.9039 17.9989 20.7259 18.2625C20.5478 18.5262 20.2953 18.7307 20.0005 18.85C19.7838 18.9483 19.5488 18.9994 19.3108 19C18.8821 18.9981 18.4693 18.8378 18.1514 18.55L15.9925 16.55V18C15.9925 18.7956 15.6766 19.5587 15.1143 20.1213C14.5519 20.6839 13.7893 21 12.994 21H3.9985C3.20325 21 2.44057 20.6839 1.87824 20.1213C1.31591 19.5587 1 18.7956 1 18V10C1 9.20435 1.31591 8.44129 1.87824 7.87868C2.33483 7.42186 2.92351 7.12758 3.55447 7.03307C3.20218 6.43731 3 5.74226 3 5C3 2.79086 4.79086 1 7 1C8.61221 1 10.0016 1.9538 10.6348 3.32791C11.0443 3.11827 11.5083 3 12 3C13.6569 3 15 4.34315 15 6C15 6.53609 14.8594 7.03934 14.613 7.47488ZM7 3C5.89543 3 5 3.89543 5 5C5 6.10457 5.89543 7 7 7C8.10457 7 9 6.10457 9 5C9 3.89543 8.10457 3 7 3ZM12 7C11.4477 7 11 6.55228 11 6C11 5.44772 11.4477 5 12 5C12.5523 5 13 5.44772 13 6C13 6.55228 12.5523 7 12 7ZM3.9985 9H12.994C13.2591 9 13.5133 9.10536 13.7008 9.29289C13.8882 9.48043 13.9935 9.73478 13.9935 10V18C13.9935 18.2652 13.8882 18.5196 13.7008 18.7071C13.5133 18.8946 13.2591 19 12.994 19H3.9985C3.73342 19 3.47919 18.8946 3.29175 18.7071C3.1043 18.5196 2.999 18.2652 2.999 18V10C2.999 9.73478 3.1043 9.48043 3.29175 9.29289C3.47919 9.10536 3.73342 9 3.9985 9ZM16.1824 14L18.991 16.6V11.4L16.1824 14Z" fill="#97A3BA"/>
</svg>
