<svg width="22" height="22" viewBox="0 0 22 22" fill="none" xmlns="http://www.w3.org/2000/svg">
<path fill-rule="evenodd" clip-rule="evenodd" d="M9.05551 10.0899C9.63108 9.70527 10.3078 9.5 11 9.5C11.9283 9.5 12.8185 9.86875 13.4749 10.5251C14.1313 11.1815 14.5 12.0717 14.5 13C14.5 13.6922 14.2947 14.3689 13.9101 14.9445C13.5256 15.5201 12.9789 15.9687 12.3394 16.2336C11.6999 16.4985 10.9961 16.5678 10.3172 16.4327C9.63825 16.2977 9.01461 15.9644 8.52513 15.4749C8.03564 14.9854 7.7023 14.3617 7.56725 13.6828C7.4322 13.0039 7.50152 12.3001 7.76642 11.6606C8.03133 11.0211 8.47993 10.4744 9.05551 10.0899ZM10.1666 14.2472C10.4133 14.412 10.7033 14.5 11 14.5C11.3978 14.5 11.7794 14.342 12.0607 14.0607C12.342 13.7794 12.5 13.3978 12.5 13C12.5 12.7033 12.412 12.4133 12.2472 12.1666C12.0824 11.92 11.8481 11.7277 11.574 11.6142C11.2999 11.5006 10.9983 11.4709 10.7074 11.5288C10.4164 11.5867 10.1491 11.7296 9.93934 11.9393C9.72956 12.1491 9.5867 12.4164 9.52882 12.7074C9.47095 12.9983 9.50065 13.2999 9.61418 13.574C9.72771 13.8481 9.91997 14.0824 10.1666 14.2472Z" fill="#97A3BA"/>
<path fill-rule="evenodd" clip-rule="evenodd" d="M15 6H18C18.7956 6 19.5587 6.31607 20.1213 6.87868C20.6839 7.44129 21 8.20435 21 9V17C21 17.7956 20.6839 18.5587 20.1213 19.1213C19.5587 19.6839 18.7956 20 18 20H4C3.20435 20 2.44129 19.6839 1.87868 19.1213C1.31607 18.5587 1 17.7956 1 17V9C1 8.20435 1.31607 7.44129 1.87868 6.87868C2.44129 6.31607 3.20435 6 4 6H7V4.5C7 3.83696 7.26339 3.20107 7.73223 2.73223C8.20107 2.26339 8.83696 2 9.5 2H12.5C13.163 2 13.7989 2.26339 14.2678 2.73223C14.7366 3.20107 15 3.83696 15 4.5V6ZM9.14645 4.14645C9.05268 4.24021 9 4.36739 9 4.5V6H13V4.5C13 4.36739 12.9473 4.24021 12.8536 4.14645C12.7598 4.05268 12.6326 4 12.5 4H9.5C9.36739 4 9.24021 4.05268 9.14645 4.14645ZM18.7071 17.7071C18.8946 17.5196 19 17.2652 19 17V9C19 8.73478 18.8946 8.48043 18.7071 8.29289C18.5196 8.10536 18.2652 8 18 8H4C3.73478 8 3.48043 8.10536 3.29289 8.29289C3.10536 8.48043 3 8.73478 3 9V17C3 17.2652 3.10536 17.5196 3.29289 17.7071C3.48043 17.8946 3.73478 18 4 18H18C18.2652 18 18.5196 17.8946 18.7071 17.7071Z" fill="#97A3BA"/>
</svg>
