<svg width="24" height="24" viewBox="0 0 24 24" fill="none" xmlns="http://www.w3.org/2000/svg">
<path fill-rule="evenodd" clip-rule="evenodd" d="M4.70711 3.29289L20.7071 19.2929C21.0976 19.6834 21.0976 20.3166 20.7071 20.7071C20.3166 21.0976 19.6834 21.0976 19.2929 20.7071L3.29289 4.70711C2.90237 4.31658 2.90237 3.68342 3.29289 3.29289C3.68342 2.90237 4.31658 2.90237 4.70711 3.29289Z" fill="#777B92"/>
<path fill-rule="evenodd" clip-rule="evenodd" d="M9 6C9 5.44772 9.44772 5 10 5H16C17.1046 5 18 5.89543 18 7V9.14894L18.4382 8.60124C19.6192 7.12497 21.9999 7.96007 21.9999 9.85063V14.1491C21.9999 16.0396 19.6192 16.8747 18.4382 15.3985L16.7188 13.2492C16.6181 13.1234 16.5347 12.9884 16.4687 12.8474C16.1872 12.6705 16 12.3571 16 12V7H10C9.44772 7 9 6.55228 9 6ZM19.9999 9.85063L18.2805 11.9999L19.9999 14.1491L19.9999 9.85063Z" fill="#777B92"/>
<path fill-rule="evenodd" clip-rule="evenodd" d="M3 7C3.55228 7 4 7.44772 4 8V17H14C14.5523 17 15 17.4477 15 18C15 18.5523 14.5523 19 14 19H4C2.89543 19 2 18.1046 2 17V8C2 7.44772 2.44772 7 3 7Z" fill="#777B92"/>
</svg>
