<svg width="24" height="24" viewBox="0 0 24 24" fill="none" xmlns="http://www.w3.org/2000/svg">
<path fill-rule="evenodd" clip-rule="evenodd" d="M18.7859 1.24535C19.8804 1.00212 20.961 1.70608 21.1809 2.80556L21.7885 5.8443C22.0019 6.91116 21.3232 7.95287 20.2612 8.18885L12.1096 10H21C21.5523 10 22 10.4477 22 11V21C22 21.5523 21.5523 22 21 22H3.00002C2.44773 22 2.00002 21.5523 2.00002 21V11C2.00002 10.9196 2.00951 10.8414 2.02743 10.7665C1.93147 10.592 1.86013 10.4 1.81896 10.1942L1.21132 7.15586C0.99795 6.089 1.67655 5.04727 2.73863 4.81126L18.7859 1.24535ZM5.74166 6.19273L3.17248 6.76364L3.78012 9.80194L5.07747 9.51369L5.74166 6.19273ZM7.87613 5.71843L7.21193 9.03944L10.1007 8.3976L10.7649 5.0765L7.87613 5.71843ZM15.1239 7.28151L15.7882 3.96027L12.8994 4.60219L12.2351 7.92335L15.1239 7.28151ZM17.2584 6.80726L19.8274 6.23646L19.2197 3.19772L17.9226 3.48596L17.2584 6.80726ZM4.00002 12V20H20V12H4.00002Z" fill="#777B92"/>
</svg>
