<svg width="22" height="22" viewBox="0 0 22 22" fill="none" xmlns="http://www.w3.org/2000/svg">
<path d="M9.5438 17.4704C9.27061 17.4704 9.00831 17.3639 8.81321 17.1738C8.62198 16.9799 8.51487 16.7191 8.51487 16.4476C8.51487 16.176 8.62198 15.9153 8.81321 15.7213L9.53883 15L8.81321 14.2787C8.6155 14.0861 8.50285 13.8233 8.50005 13.5481C8.49726 13.2729 8.60454 13.0079 8.7983 12.8114C8.99207 12.6148 9.25644 12.5028 9.53326 12.5001C9.81008 12.4973 10.0767 12.6039 10.2744 12.7965L11 13.5178L11.7256 12.8262C11.8216 12.7308 11.9355 12.6552 12.0608 12.6035C12.1862 12.5519 12.3205 12.5254 12.4562 12.5254C12.5919 12.5254 12.7262 12.5519 12.8516 12.6035C12.9769 12.6552 13.0908 12.7308 13.1868 12.8262C13.2827 12.9216 13.3588 13.0348 13.4108 13.1594C13.4627 13.284 13.4894 13.4176 13.4894 13.5524C13.4894 13.6873 13.4627 13.8209 13.4108 13.9455C13.3588 14.0701 13.2827 14.1833 13.1868 14.2787L12.4612 15L13.1868 15.7213C13.3845 15.9139 13.4972 16.1767 13.4999 16.4519C13.5027 16.7271 13.3955 16.9921 13.2017 17.1886C13.0079 17.3852 12.7436 17.4972 12.4667 17.4999C12.1899 17.5027 11.9233 17.3961 11.7256 17.2035L11 16.4822L10.2744 17.1738C10.0793 17.3639 9.81699 17.4704 9.5438 17.4704Z" fill="#97A3BA"/>
<path fill-rule="evenodd" clip-rule="evenodd" d="M21 5C21 3.89543 20.1046 3 19 3H3C1.89543 3 1 3.89543 1 5V19C1 20.1046 1.89543 21 3 21H19C20.1046 21 21 20.1046 21 19V5ZM3 11H19V19H3V11ZM3 9V5H6.38184L4.38184 9H3ZM6.6179 9H9.38184L11.3818 5H8.6179L6.6179 9ZM11.6179 9L13.6179 5H16.3818L14.3818 9H11.6179ZM16.6179 9H19V5H18.6179L16.6179 9Z" fill="#97A3BA"/>
</svg>
