<svg width="24" height="24" viewBox="0 0 24 24" fill="none" xmlns="http://www.w3.org/2000/svg">
<path fill-rule="evenodd" clip-rule="evenodd" d="M14.7071 14.7071L13.4142 16L14.7071 17.2929C15.0976 17.6834 15.0976 18.3166 14.7071 18.7071C14.3166 19.0976 13.6834 19.0976 13.2929 18.7071L12 17.4142L10.7071 18.7071C10.3166 19.0976 9.68342 19.0976 9.29289 18.7071C8.90237 18.3166 8.90237 17.6834 9.29289 17.2929L10.5858 16L9.29289 14.7071C8.90237 14.3166 8.90237 13.6834 9.29289 13.2929C9.68342 12.9024 10.3166 12.9024 10.7071 13.2929L12 14.5858L13.2929 13.2929C13.6834 12.9024 14.3166 12.9024 14.7071 13.2929C15.0976 13.6834 15.0976 14.3166 14.7071 14.7071Z" fill="#777B92"/>
<path fill-rule="evenodd" clip-rule="evenodd" d="M20 4C21.1046 4 22 4.89543 22 6V20C22 21.1046 21.1046 22 20 22H4C2.89543 22 2 21.1046 2 20V6C2 4.89543 2.89543 4 4 4H20ZM19.6181 6L17.6181 10H20V6H19.6181ZM16.0288 12C16.0091 12.0006 15.9894 12.0006 15.9697 12H11.0288C11.0091 12.0006 10.9894 12.0006 10.9697 12H6.02875C6.0091 12.0006 5.98939 12.0006 5.96966 12H4V20H20V12H16.0288ZM12.6181 10H15.3821L17.382 6H14.6181L12.6181 10ZM10.3821 10L12.3821 6H9.61812L7.61812 10H10.3821ZM4 10H5.38205L7.38205 6H4V10Z" fill="#777B92"/>
</svg>
