<svg width="22" height="22" viewBox="0 0 22 22" fill="none" xmlns="http://www.w3.org/2000/svg">
<path d="M7.0438 13.4704C6.77061 13.4704 6.50831 13.3639 6.31321 13.1738C6.12198 12.9799 6.01487 12.7191 6.01487 12.4476C6.01487 12.176 6.12198 11.9153 6.31321 11.7213L7.03883 11L6.31321 10.2787C6.1155 10.0861 6.00285 9.82327 6.00005 9.54809C5.99726 9.27291 6.10454 9.0079 6.2983 8.81136C6.49207 8.61481 6.75644 8.50283 7.03326 8.50005C7.31008 8.49727 7.57667 8.60392 7.77439 8.79654L8.5 9.51785L9.22562 8.82618C9.32156 8.73081 9.43546 8.65515 9.56081 8.60354C9.68616 8.55192 9.82052 8.52535 9.9562 8.52535C10.0919 8.52535 10.2262 8.55192 10.3516 8.60354C10.4769 8.65515 10.5908 8.73081 10.6868 8.82618C10.7827 8.92155 10.8588 9.03478 10.9108 9.15939C10.9627 9.284 10.9894 9.41755 10.9894 9.55243C10.9894 9.68731 10.9627 9.82087 10.9108 9.94548C10.8588 10.0701 10.7827 10.1833 10.6868 10.2787L9.96117 11L10.6868 11.7213C10.8845 11.9139 10.9972 12.1767 10.9999 12.4519C11.0027 12.7271 10.8955 12.9921 10.7017 13.1886C10.5079 13.3852 10.2436 13.4972 9.96674 13.4999C9.68993 13.5027 9.42333 13.3961 9.22562 13.2035L8.5 12.4822L7.77439 13.1738C7.57929 13.3639 7.31699 13.4704 7.0438 13.4704Z" fill="#97A3BA"/>
<path fill-rule="evenodd" clip-rule="evenodd" d="M19.0209 6.02204C19.3497 5.9687 19.6868 6.0132 19.9905 6.15C20.2872 6.26774 20.5418 6.47161 20.7217 6.73536C20.9016 6.99911 20.9986 7.31069 21 7.63V14.37C20.9994 14.6882 20.9039 14.9989 20.7259 15.2625C20.5478 15.5262 20.2953 15.7307 20.0005 15.85C19.7838 15.9483 19.5488 15.9994 19.3108 16C18.8821 15.9981 18.4693 15.8378 18.1514 15.55L15.9925 13.55V15C15.9925 15.7956 15.6766 16.5587 15.1143 17.1213C14.5519 17.6839 13.7893 18 12.994 18H3.9985C3.20325 18 2.44057 17.6839 1.87824 17.1213C1.31591 16.5587 1 15.7956 1 15V7C1 6.20435 1.31591 5.44129 1.87824 4.87868C2.44057 4.31607 3.20325 4 3.9985 4H12.994C13.7893 4 14.5519 4.31607 15.1143 4.87868C15.6766 5.44129 15.9925 6.20435 15.9925 7V8.45L18.1414 6.45C18.3863 6.22419 18.6922 6.07537 19.0209 6.02204ZM13.7008 15.7071C13.8882 15.5196 13.9935 15.2652 13.9935 15V7C13.9935 6.73478 13.8882 6.48043 13.7008 6.29289C13.5133 6.10536 13.2591 6 12.994 6H3.9985C3.73342 6 3.47919 6.10536 3.29175 6.29289C3.1043 6.48043 2.999 6.73478 2.999 7V15C2.999 15.2652 3.1043 15.5196 3.29175 15.7071C3.47919 15.8946 3.73342 16 3.9985 16H12.994C13.2591 16 13.5133 15.8946 13.7008 15.7071ZM16.1824 11L18.991 13.6V8.4L16.1824 11Z" fill="#97A3BA"/>
</svg>
