<svg width="24" height="24" viewBox="0 0 24 24" fill="none" xmlns="http://www.w3.org/2000/svg">
<path fill-rule="evenodd" clip-rule="evenodd" d="M21 4V20C21 20.5523 20.5523 21 20 21C19.4477 21 19 20.5523 19 20V4C19 3.44772 19.4477 3 20 3C20.5523 3 21 3.44772 21 4Z" fill="#777B92"/>
<path fill-rule="evenodd" clip-rule="evenodd" d="M16 7V20C16 20.5523 15.5523 21 15 21C14.4477 21 14 20.5523 14 20V7C14 6.44772 14.4477 6 15 6C15.5523 6 16 6.44772 16 7Z" fill="#777B92"/>
<path fill-rule="evenodd" clip-rule="evenodd" d="M10 9C10.5523 9 11 9.44772 11 10V20C11 20.5523 10.5523 21 10 21C9.44772 21 9 20.5523 9 20V10C9 9.44772 9.44772 9 10 9Z" fill="#777B92"/>
<path fill-rule="evenodd" clip-rule="evenodd" d="M6 13L6 20C6 20.5523 5.55229 21 5 21C4.44772 21 4 20.5523 4 20V13C4 12.4477 4.44772 12 5 12C5.55228 12 6 12.4477 6 13Z" fill="#777B92"/>
</svg>
