<svg width="60" height="17" viewBox="0 0 60 17" fill="none" xmlns="http://www.w3.org/2000/svg">
<path d="M0.977273 13V11.8295L7.09659 2.875H0.926136V1.36364H9.24432V2.53409L3.125 11.4886H9.29545V13H0.977273ZM12.4347 16.25C12.1809 16.25 11.9498 16.2311 11.7415 16.1932C11.5331 16.1553 11.3778 16.1117 11.2756 16.0625L11.6847 14.6705C12.1506 14.7992 12.5407 14.8087 12.8551 14.6989C13.1733 14.5928 13.4403 14.2576 13.6562 13.6932L13.8665 13.1136L10.6733 4.27273H12.4915L14.7017 11.0455H14.7926L17.0028 4.27273L18.8381 4.28977L15.2301 14.1648C14.9801 14.839 14.6259 15.3542 14.1676 15.7102C13.7131 16.0701 13.1354 16.25 12.4347 16.25ZM24.5923 4.27273V5.63636H22.7116V13H21.0071V5.63636H19.6605V4.27273H21.0071V3.26136C21.0071 2.71591 21.1264 2.26326 21.3651 1.90341C21.6075 1.53977 21.9257 1.26894 22.3196 1.09091C22.7135 0.90909 23.1397 0.818181 23.598 0.818181C23.9427 0.818181 24.2363 0.84659 24.4787 0.903409C24.7211 0.956439 24.901 1.00568 25.0185 1.05114L24.6207 2.42614C24.5412 2.39962 24.4389 2.37121 24.3139 2.34091C24.1889 2.31061 24.0374 2.29545 23.8594 2.29545C23.4465 2.29545 23.151 2.39773 22.973 2.60227C22.7988 2.80682 22.7116 3.10227 22.7116 3.48864V4.27273H24.5923ZM26.3452 13V4.27273H27.9872V5.65909H28.0781C28.2372 5.18939 28.5175 4.82008 28.919 4.55114C29.3243 4.27841 29.7827 4.14205 30.294 4.14205C30.4039 4.14205 30.5308 4.14583 30.6747 4.15341C30.8187 4.16098 30.9323 4.17045 31.0156 4.18182V5.80682C30.9474 5.78788 30.8262 5.76705 30.652 5.74432C30.4815 5.7178 30.3073 5.70455 30.1293 5.70455C29.527 5.70455 29.0289 5.89015 28.6349 6.26136C28.241 6.62879 28.044 7.09848 28.044 7.67045V13H26.3452ZM34.9474 13.1932C34.3944 13.1932 33.8944 13.0909 33.4474 12.8864C33.0043 12.6818 32.652 12.3826 32.3906 11.9886C32.1293 11.5909 31.9986 11.1061 31.9986 10.5341C31.9986 10.0379 32.0933 9.63068 32.2827 9.3125C32.4759 8.99432 32.7315 8.74242 33.0497 8.55682C33.3717 8.37121 33.7315 8.23295 34.1293 8.14205C34.527 8.04735 34.9323 7.97538 35.3452 7.92614C35.8679 7.86553 36.2902 7.81629 36.6122 7.77841C36.938 7.73674 37.1747 7.67045 37.3224 7.57955C37.474 7.48864 37.5497 7.34091 37.5497 7.13636V7.09659C37.5497 6.60038 37.4096 6.21591 37.1293 5.94318C36.8527 5.67045 36.4399 5.53409 35.8906 5.53409C35.3187 5.53409 34.8679 5.65909 34.5384 5.90909C34.2126 6.15909 33.9872 6.43939 33.8622 6.75L32.2656 6.38636C32.5497 5.59091 33.0232 5.02083 33.6861 4.67614C34.3527 4.33144 35.08 4.15909 35.8679 4.15909C36.2164 4.15909 36.5857 4.20076 36.9759 4.28409C37.366 4.36364 37.7334 4.51326 38.0781 4.73295C38.4266 4.94886 38.7088 5.25568 38.9247 5.65341C39.1444 6.05114 39.2543 6.56818 39.2543 7.20455V13H37.5952V11.8068H37.527C37.3641 12.1326 37.0743 12.4451 36.6577 12.7443C36.241 13.0436 35.6709 13.1932 34.9474 13.1932ZM35.3168 11.8295C35.7902 11.8295 36.1937 11.7367 36.527 11.5511C36.8603 11.3655 37.1141 11.1231 37.2884 10.8239C37.4664 10.5208 37.5554 10.197 37.5554 9.85227V8.72727C37.4759 8.80682 37.3016 8.87689 37.0327 8.9375C36.7637 8.99811 36.4796 9.04924 36.1804 9.09091C35.8812 9.13258 35.6387 9.16667 35.4531 9.19318C34.9607 9.25758 34.5384 9.38826 34.1861 9.58523C33.8376 9.77841 33.6634 10.1023 33.6634 10.5568C33.6634 10.9773 33.8187 11.2955 34.1293 11.5114C34.4399 11.7235 34.8357 11.8295 35.3168 11.8295ZM53.3707 1.36364H55.1321V9.01705C55.1321 9.83144 54.9408 10.553 54.5582 11.1818C54.1757 11.8106 53.6378 12.303 52.9446 12.6591C52.2514 13.0152 51.4389 13.1932 50.5071 13.1932C49.5791 13.1932 48.7685 13.0152 48.0753 12.6591C47.3821 12.303 46.8442 11.8106 46.4616 11.1818C46.0791 10.553 45.8878 9.83144 45.8878 9.01705V1.36364H47.6435V8.875C47.6435 9.66288 47.8991 10.3125 48.4105 10.8239C48.9257 11.3352 49.6245 11.5909 50.5071 11.5909C51.3935 11.5909 52.0923 11.3352 52.6037 10.8239C53.1151 10.3125 53.3707 9.66288 53.3707 8.875V1.36364ZM59.4403 1.36364V13H57.6847V1.36364H59.4403Z" fill="#393b40"/>
</svg>
