<svg width="16" height="16" viewBox="0 0 16 16" fill="none" xmlns="http://www.w3.org/2000/svg">
<path fill-rule="evenodd" clip-rule="evenodd" d="M1.58535 1.5C1.79127 0.917404 2.34689 0.5 3 0.5H4C4.65311 0.5 5.20873 0.917404 5.41465 1.5H8C11.5899 1.5 14.5 4.41015 14.5 8V10.5854C15.0826 10.7913 15.5 11.3469 15.5 12V13C15.5 13.6531 15.0826 14.2087 14.5 14.4146V15C14.5 15.2761 14.2761 15.5 14 15.5C13.7239 15.5 13.5 15.2761 13.5 15V14.5H13C12.1716 14.5 11.5 13.8284 11.5 13V12C11.5 11.1716 12.1716 10.5 13 10.5H13.5V8C13.5 4.96243 11.0376 2.5 8 2.5H5.5V3C5.5 3.82843 4.82843 4.5 4 4.5H3C2.17157 4.5 1.5 3.82843 1.5 3V2.5H1C0.723858 2.5 0.5 2.27614 0.5 2C0.5 1.72386 0.723858 1.5 1 1.5H1.58535ZM4 1.5H3C2.72386 1.5 2.5 1.72386 2.5 2V3C2.5 3.27614 2.72386 3.5 3 3.5H4C4.27614 3.5 4.5 3.27614 4.5 3V2C4.5 1.72386 4.27614 1.5 4 1.5ZM12.5 12V13C12.5 13.2761 12.7239 13.5 13 13.5H14C14.2761 13.5 14.5 13.2761 14.5 13V12C14.5 11.7239 14.2761 11.5 14 11.5H13C12.7239 11.5 12.5 11.7239 12.5 12Z" fill="#777B92"/>
</svg>
