<svg width="16" height="16" viewBox="0 0 16 16" fill="none" xmlns="http://www.w3.org/2000/svg">
<path fill-rule="evenodd" clip-rule="evenodd" d="M2 0.5H9C9.82843 0.5 10.5 1.17157 10.5 2V5.5H14C14.8284 5.5 15.5 6.17157 15.5 7V14C15.5 14.8284 14.8284 15.5 14 15.5H7C6.17157 15.5 5.5 14.8284 5.5 14V10.5H2C1.17157 10.5 0.5 9.82843 0.5 9V2C0.5 1.17157 1.17157 0.5 2 0.5ZM9.5 5.5V2C9.5 1.72386 9.27614 1.5 9 1.5H2C1.72386 1.5 1.5 1.72386 1.5 2V9C1.5 9.27614 1.72386 9.5 2 9.5H5.5V7C5.5 6.17157 6.17157 5.5 7 5.5H9.5ZM6.5 9.5H9C9.27614 9.5 9.5 9.27614 9.5 9V6.5H7C6.72386 6.5 6.5 6.72386 6.5 7V9.5ZM6.5 10.5V14C6.5 14.2761 6.72386 14.5 7 14.5H14C14.2761 14.5 14.5 14.2761 14.5 14V7C14.5 6.72386 14.2761 6.5 14 6.5H10.5V9C10.5 9.82843 9.82843 10.5 9 10.5H6.5Z" fill="#777B92"/>
</svg>
