<svg width="16" height="16" viewBox="0 0 16 16" fill="none" xmlns="http://www.w3.org/2000/svg">
<g clip-path="url(#clip0_13656_9940)">
<path fill-rule="evenodd" clip-rule="evenodd" d="M9 1.5L2 1.5C1.72386 1.5 1.5 1.72386 1.5 2L1.5 9C1.5 9.27614 1.72386 9.5 2 9.5H5C5.82843 9.5 6.5 10.1716 6.5 11L6.5 14C6.5 14.2761 6.72386 14.5 7 14.5H14C14.2761 14.5 14.5 14.2761 14.5 14L14.5 7C14.5 6.72386 14.2761 6.5 14 6.5L11 6.5C10.1716 6.5 9.5 5.82843 9.5 5V2C9.5 1.72386 9.27614 1.5 9 1.5ZM2 0.5L9 0.5C9.82843 0.5 10.5 1.17157 10.5 2V5C10.5 5.27614 10.7239 5.5 11 5.5L14 5.5C14.8284 5.5 15.5 6.17157 15.5 7L15.5 14C15.5 14.8284 14.8284 15.5 14 15.5H7C6.17157 15.5 5.5 14.8284 5.5 14L5.5 11C5.5 10.7239 5.27614 10.5 5 10.5H2C1.17157 10.5 0.5 9.82843 0.5 9L0.5 2C0.5 1.17157 1.17157 0.5 2 0.5Z" fill="#777B92"/>
</g>
<defs>
<clipPath id="clip0_13656_9940">
<rect width="16" height="16" fill="white" transform="translate(16 16) rotate(-180)"/>
</clipPath>
</defs>
</svg>
