<svg width="16" height="16" viewBox="0 0 16 16" fill="none" xmlns="http://www.w3.org/2000/svg">
<path fill-rule="evenodd" clip-rule="evenodd" d="M6.00829 14.1587C5.95034 14.1596 5.89123 14.1505 5.83338 14.13C3.30947 13.2379 1.5 10.8309 1.5 8C1.5 4.41015 4.41015 1.5 8 1.5C10.8309 1.5 13.2379 3.30947 14.13 5.83338C14.1505 5.89123 14.1596 5.95034 14.1587 6.00829C14.9125 6.08754 15.5 6.72516 15.5 7.5V8.5C15.5 9.27484 14.9125 9.91246 14.1587 9.99171C14.1596 10.0497 14.1505 10.1088 14.13 10.1666C13.4771 12.0139 12.0139 13.4771 10.1666 14.13C10.1088 14.1505 10.0497 14.1596 9.99171 14.1587C9.91246 14.9125 9.27484 15.5 8.5 15.5H7.5C6.72516 15.5 6.08754 14.9125 6.00829 14.1587ZM2.5 8C2.5 10.3313 3.95069 12.3249 6 13.1252V13C6 12.1716 6.67157 11.5 7.5 11.5H8.5C9.32843 11.5 10 12.1716 10 13V13.1252C11.4285 12.5673 12.5673 11.4285 13.1252 10H13C12.1716 10 11.5 9.32843 11.5 8.5V7.5C11.5 6.67157 12.1716 6 13 6H13.1252C12.3249 3.95069 10.3313 2.5 8 2.5C4.96243 2.5 2.5 4.96243 2.5 8ZM13 7C12.7239 7 12.5 7.22386 12.5 7.5V8.5C12.5 8.77614 12.7239 9 13 9H14C14.2761 9 14.5 8.77614 14.5 8.5V7.5C14.5 7.22386 14.2761 7 14 7H13ZM7.5 12.5C7.22386 12.5 7 12.7239 7 13V14C7 14.2761 7.22386 14.5 7.5 14.5H8.5C8.77614 14.5 9 14.2761 9 14V13C9 12.7239 8.77614 12.5 8.5 12.5H7.5Z" fill="#777B92"/>
</svg>
