<svg width="16" height="16" viewBox="0 0 16 16" fill="none" xmlns="http://www.w3.org/2000/svg">
<path fill-rule="evenodd" clip-rule="evenodd" d="M6 0.5H10C10.8284 0.5 11.5 1.17157 11.5 2V3.5H15C15.2761 3.5 15.5 3.72386 15.5 4C15.5 4.27614 15.2761 4.5 15 4.5H11.5V6C11.5 6.82843 10.8284 7.5 10 7.5H6C5.17157 7.5 4.5 6.82843 4.5 6V4.5H1C0.723858 4.5 0.5 4.27614 0.5 4C0.5 3.72386 0.723858 3.5 1 3.5H4.5V2C4.5 1.17157 5.17157 0.5 6 0.5ZM5.5 6C5.5 6.27614 5.72386 6.5 6 6.5H10C10.2761 6.5 10.5 6.27614 10.5 6V2C10.5 1.72386 10.2761 1.5 10 1.5H6C5.72386 1.5 5.5 1.72386 5.5 2V6Z" fill="#777B92"/>
<path fill-rule="evenodd" clip-rule="evenodd" d="M8 9L11 15L8 13.5L5 15L8 9Z" fill="#777B92"/>
</svg>
