<svg width="16" height="16" viewBox="0 0 16 16" fill="none" xmlns="http://www.w3.org/2000/svg">
<path fill-rule="evenodd" clip-rule="evenodd" d="M0.5 2C0.5 1.17157 1.17157 0.5 2 0.5H3C3.65311 0.5 4.20873 0.917404 4.41465 1.5H11.5854C11.7913 0.917404 12.3469 0.5 13 0.5H14C14.8284 0.5 15.5 1.17157 15.5 2V3C15.5 3.65311 15.0826 4.20873 14.5 4.41465V11.5854C15.0826 11.7913 15.5 12.3469 15.5 13V14C15.5 14.8284 14.8284 15.5 14 15.5H13C12.3469 15.5 11.7913 15.0826 11.5854 14.5H4.41465C4.20873 15.0826 3.65311 15.5 3 15.5H2C1.17157 15.5 0.5 14.8284 0.5 14V13C0.5 12.3469 0.917404 11.7913 1.5 11.5854V4.41465C0.917404 4.20873 0.5 3.65311 0.5 3V2ZM2.5 4.5V11.5H3C3.82843 11.5 4.5 12.1716 4.5 13V13.5H11.5V13C11.5 12.1716 12.1716 11.5 13 11.5H13.5V4.5H13C12.1716 4.5 11.5 3.82843 11.5 3V2.5H4.5V3C4.5 3.82843 3.82843 4.5 3 4.5H2.5ZM2 3.5H3C3.27614 3.5 3.5 3.27614 3.5 3V2C3.5 1.72386 3.27614 1.5 3 1.5H2C1.72386 1.5 1.5 1.72386 1.5 2V3C1.5 3.27614 1.72386 3.5 2 3.5ZM2 12.5C1.72386 12.5 1.5 12.7239 1.5 13V14C1.5 14.2761 1.72386 14.5 2 14.5H3C3.27614 14.5 3.5 14.2761 3.5 14V13C3.5 12.7239 3.27614 12.5 3 12.5H2ZM12.5 13V14C12.5 14.2761 12.7239 14.5 13 14.5H14C14.2761 14.5 14.5 14.2761 14.5 14V13C14.5 12.7239 14.2761 12.5 14 12.5H13C12.7239 12.5 12.5 12.7239 12.5 13ZM14.5 3V2C14.5 1.72386 14.2761 1.5 14 1.5H13C12.7239 1.5 12.5 1.72386 12.5 2V3C12.5 3.27614 12.7239 3.5 13 3.5H14C14.2761 3.5 14.5 3.27614 14.5 3Z" fill="#777B92"/>
</svg>
