<svg width="16" height="16" viewBox="0 0 16 16" fill="none" xmlns="http://www.w3.org/2000/svg">
<path fill-rule="evenodd" clip-rule="evenodd" d="M11.5 2C11.5 1.17157 12.1716 0.5 13 0.5H14C14.8284 0.5 15.5 1.17157 15.5 2V3C15.5 3.69842 15.0227 4.28536 14.3764 4.45237L12.6454 9.64555C13.1508 9.88681 13.5 10.4026 13.5 11V12C13.5 12.8284 12.8284 13.5 12 13.5H11C10.1716 13.5 9.5 12.8284 9.5 12V11C9.5 10.7684 9.55248 10.5491 9.64618 10.3533L5.64671 6.35381C5.45089 6.44752 5.23157 6.5 5 6.5H4.36056L2.69389 11.5H3C3.82843 11.5 4.5 12.1716 4.5 13V14C4.5 14.8284 3.82843 15.5 3 15.5H2C1.17157 15.5 0.5 14.8284 0.5 14V13C0.5 12.3014 0.977527 11.7144 1.62396 11.5475L3.35493 6.3546C2.84935 6.11341 2.5 5.5975 2.5 5V4C2.5 3.17157 3.17157 2.5 4 2.5H5C5.82843 2.5 6.5 3.17157 6.5 4V5C6.5 5.23157 6.44752 5.45089 6.35381 5.64671L10.3533 9.64618C10.5491 9.55248 10.7684 9.5 11 9.5H11.6398L13.3065 4.5H13C12.1716 4.5 11.5 3.82843 11.5 3V2ZM12.0118 10.5001C12.0025 10.5004 11.9932 10.5003 11.9838 10.5H11C10.7239 10.5 10.5 10.7239 10.5 11V12C10.5 12.2761 10.7239 12.5 11 12.5H12C12.2761 12.5 12.5 12.2761 12.5 12V11C12.5 10.7278 12.2825 10.5064 12.0118 10.5001ZM13 1.5C12.7239 1.5 12.5 1.72386 12.5 2V3C12.5 3.27614 12.7239 3.5 13 3.5H14C14.2761 3.5 14.5 3.27614 14.5 3V2C14.5 1.72386 14.2761 1.5 14 1.5H13ZM1.98842 12.5001C1.71763 12.5063 1.5 12.7277 1.5 13V14C1.5 14.2761 1.72386 14.5 2 14.5H3C3.27614 14.5 3.5 14.2761 3.5 14V13C3.5 12.7239 3.27614 12.5 3 12.5H2.01662C2.00725 12.5003 1.99785 12.5004 1.98842 12.5001ZM4.00035 5.5H5C5.27614 5.5 5.5 5.27614 5.5 5V4C5.5 3.72386 5.27614 3.5 5 3.5H4C3.72386 3.5 3.5 3.72386 3.5 4V5C3.5 5.27614 3.72421 5.5 4.00035 5.5Z" fill="#777B92"/>
</svg>
