<svg width="16" height="16" viewBox="0 0 16 16" fill="none" xmlns="http://www.w3.org/2000/svg">
<path fill-rule="evenodd" clip-rule="evenodd" d="M14.1587 9.99171C14.1596 10.0497 14.1505 10.1088 14.13 10.1666C13.2379 12.6905 10.8309 14.5 8 14.5C4.41015 14.5 1.5 11.5899 1.5 8C1.5 4.41015 4.41015 1.5 8 1.5C10.8309 1.5 13.2379 3.30947 14.13 5.83338C14.1505 5.89123 14.1596 5.95034 14.1587 6.00829C14.9125 6.08754 15.5 6.72516 15.5 7.5V8.5C15.5 9.27484 14.9125 9.91246 14.1587 9.99171ZM2.5 8C2.5 11.0376 4.96243 13.5 8 13.5C10.3313 13.5 12.3249 12.0493 13.1252 10H13C12.1716 10 11.5 9.32843 11.5 8.5V7.5C11.5 6.67157 12.1716 6 13 6H13.1252C12.3249 3.95069 10.3313 2.5 8 2.5C4.96243 2.5 2.5 4.96243 2.5 8ZM12.5 7.5V8.5C12.5 8.77614 12.7239 9 13 9H14C14.2761 9 14.5 8.77614 14.5 8.5V7.5C14.5 7.22386 14.2761 7 14 7H13C12.7239 7 12.5 7.22386 12.5 7.5Z" fill="#777B92"/>
</svg>
