<svg width="16" height="16" viewBox="0 0 16 16" fill="none" xmlns="http://www.w3.org/2000/svg">
<g clip-path="url(#clip0_13656_9983)">
<path fill-rule="evenodd" clip-rule="evenodd" d="M6.5 7H5.5C5.5 6.17157 6.17157 5.5 7 5.5V6.5C6.72386 6.5 6.5 6.72386 6.5 7Z" fill="#777B92"/>
<path fill-rule="evenodd" clip-rule="evenodd" d="M9 9.5C9.27614 9.5 9.5 9.27614 9.5 9H10.5C10.5 9.82843 9.82843 10.5 9 10.5V9.5Z" fill="#777B92"/>
<path fill-rule="evenodd" clip-rule="evenodd" d="M5.5 10.5H1.69231C1.03381 10.5 0.5 9.96619 0.5 9.30769L0.5 1.69231C0.5 1.03381 1.03382 0.5 1.69231 0.5L9.30769 0.5C9.96619 0.5 10.5 1.03382 10.5 1.69231V5.5L14 5.5C14.8284 5.5 15.5 6.17157 15.5 7L15.5 14C15.5 14.8284 14.8284 15.5 14 15.5H7C6.17157 15.5 5.5 14.8284 5.5 14L5.5 10.5ZM9 6.5V5.5C9.17532 5.5 9.34361 5.53008 9.5 5.58535V1.69231C9.5 1.5861 9.4139 1.5 9.30769 1.5L1.69231 1.5C1.5861 1.5 1.5 1.5861 1.5 1.69231L1.5 9.30769C1.5 9.4139 1.5861 9.5 1.69231 9.5L5.58535 9.5C5.53008 9.34361 5.5 9.17532 5.5 9H6.5C6.5 9.23654 6.66425 9.43471 6.88491 9.48669L9.11464 6.51321C9.07783 6.50457 9.03945 6.5 9 6.5ZM6.5 10.4146L6.5 14C6.5 14.2761 6.72386 14.5 7 14.5H14C14.2761 14.5 14.5 14.2761 14.5 14V7C14.5 6.72386 14.2761 6.5 14 6.5L10.4146 6.5C10.4699 6.65639 10.5 6.82468 10.5 7H9.5C9.5 6.76334 9.33549 6.56505 9.11464 6.51321L6.88491 9.48669C6.9217 9.49531 6.96059 9.5 7 9.5L7 10.5C6.82468 10.5 6.65639 10.4699 6.5 10.4146Z" fill="#777B92"/>
</g>
<defs>
<clipPath id="clip0_13656_9983">
<rect width="16" height="16" fill="white" transform="translate(16 16) rotate(-180)"/>
</clipPath>
</defs>
</svg>
