<svg width="16" height="16" viewBox="0 0 16 16" fill="none" xmlns="http://www.w3.org/2000/svg">
<g clip-path="url(#clip0_13656_9928)">
<path fill-rule="evenodd" clip-rule="evenodd" d="M13 6.50006C12.7239 6.50008 12.5 6.27624 12.5 6.00009C12.5 5.72395 12.7238 5.50008 13 5.50006L13.9999 5.5C14.8284 5.49995 15.5 6.17152 15.5 6.99999L15.5 7.99994C15.5 8.27608 15.2761 8.49994 15 8.49994C14.7239 8.49994 14.5 8.27608 14.5 7.99994V6.99999C14.5 6.72384 14.2761 6.49998 14 6.5L13 6.50006Z" fill="#777B92"/>
<path fill-rule="evenodd" clip-rule="evenodd" d="M10.5 5.50006H10.8462C11.1223 5.50006 11.3462 5.72392 11.3462 6.00006C11.3462 6.27621 11.1223 6.50006 10.8462 6.50006H7C6.72379 6.50006 6.50001 6.72388 6.5 6.99995L6.5 14.0033C6.5 14.2773 6.72177 14.5001 6.99999 14.5001H8C8.27614 14.5001 8.5 14.7239 8.5 15.0001C8.5 15.2762 8.27614 15.5001 8 15.5001H6.99999C6.17366 15.5001 5.5 14.8338 5.5 14.0033L5.5 10.5H1.69231C1.03381 10.5 0.5 9.96619 0.5 9.30769L0.5 1.69231C0.5 1.03381 1.03382 0.5 1.69231 0.5L9.30769 0.5C9.96619 0.5 10.5 1.03382 10.5 1.69231V5.50006ZM7 5.50006H9.5V1.69231C9.5 1.5861 9.4139 1.5 9.30769 1.5L1.69231 1.5C1.5861 1.5 1.5 1.5861 1.5 1.69231L1.5 9.30769C1.5 9.4139 1.5861 9.5 1.69231 9.5H5.5L5.5 6.99995C5.50001 6.17145 6.17165 5.50006 7 5.50006Z" fill="#777B92"/>
<path fill-rule="evenodd" clip-rule="evenodd" d="M15.5 9.99994V10.9999C15.5 11.2761 15.2761 11.4999 15 11.4999C14.7239 11.4999 14.5 11.2761 14.5 10.9999V9.99994C14.5 9.7238 14.7239 9.49994 15 9.49994C15.2761 9.49994 15.5 9.7238 15.5 9.99994Z" fill="#777B92"/>
<path fill-rule="evenodd" clip-rule="evenodd" d="M15.5 12.9999V14.0001C15.5 14.8285 14.8284 15.5001 14 15.5001H13C12.7239 15.5001 12.5 15.2762 12.5 15.0001C12.5 14.7239 12.7239 14.5001 13 14.5001H14C14.2761 14.5001 14.5 14.2762 14.5 14.0001V12.9999C14.5 12.7238 14.7239 12.4999 15 12.4999C15.2761 12.4999 15.5 12.7238 15.5 12.9999Z" fill="#777B92"/>
<path fill-rule="evenodd" clip-rule="evenodd" d="M10 14.5001H11C11.2761 14.5001 11.5 14.7239 11.5 15.0001C11.5 15.2762 11.2761 15.5001 11 15.5001H10C9.72386 15.5001 9.5 15.2762 9.5 15.0001C9.5 14.7239 9.72386 14.5001 10 14.5001Z" fill="#777B92"/>
</g>
<defs>
<clipPath id="clip0_13656_9928">
<rect width="16" height="16" fill="white" transform="translate(16 16) rotate(-180)"/>
</clipPath>
</defs>
</svg>
