<svg width="16" height="16" viewBox="0 0 16 16" fill="none" xmlns="http://www.w3.org/2000/svg">
<path fill-rule="evenodd" clip-rule="evenodd" d="M0.5 4C0.5 3.17157 1.17157 2.5 2 2.5H3C3.65311 2.5 4.20873 2.9174 4.41465 3.5H11.5854C11.7913 2.9174 12.3469 2.5 13 2.5H14C14.8284 2.5 15.5 3.17157 15.5 4V5C15.5 5.65311 15.0826 6.20873 14.5 6.41465V9.58535C15.0826 9.79127 15.5 10.3469 15.5 11V12C15.5 12.8284 14.8284 13.5 14 13.5H13C12.3469 13.5 11.7913 13.0826 11.5854 12.5H4.41465C4.20873 13.0826 3.65311 13.5 3 13.5H2C1.17157 13.5 0.5 12.8284 0.5 12V11C0.5 10.3469 0.917404 9.79127 1.5 9.58535V6.41465C0.917404 6.20873 0.5 5.65311 0.5 5V4ZM2.5 6.5V9.5H3C3.82843 9.5 4.5 10.1716 4.5 11V11.5H11.5V11C11.5 10.1716 12.1716 9.5 13 9.5H13.5V6.5H13C12.1716 6.5 11.5 5.82843 11.5 5V4.5H4.5V5C4.5 5.82843 3.82843 6.5 3 6.5H2.5ZM2 5.5H3C3.27614 5.5 3.5 5.27614 3.5 5V4C3.5 3.72386 3.27614 3.5 3 3.5H2C1.72386 3.5 1.5 3.72386 1.5 4V5C1.5 5.27614 1.72386 5.5 2 5.5ZM2 10.5C1.72386 10.5 1.5 10.7239 1.5 11V12C1.5 12.2761 1.72386 12.5 2 12.5H3C3.27614 12.5 3.5 12.2761 3.5 12V11C3.5 10.7239 3.27614 10.5 3 10.5H2ZM12.5 11V12C12.5 12.2761 12.7239 12.5 13 12.5H14C14.2761 12.5 14.5 12.2761 14.5 12V11C14.5 10.7239 14.2761 10.5 14 10.5H13C12.7239 10.5 12.5 10.7239 12.5 11ZM14.5 5V4C14.5 3.72386 14.2761 3.5 14 3.5H13C12.7239 3.5 12.5 3.72386 12.5 4V5C12.5 5.27614 12.7239 5.5 13 5.5H14C14.2761 5.5 14.5 5.27614 14.5 5Z" fill="#777B92"/>
</svg>
