<svg width="16" height="16" viewBox="0 0 16 16" fill="none" xmlns="http://www.w3.org/2000/svg">
<g clip-path="url(#clip0_13656_9939)">
<path fill-rule="evenodd" clip-rule="evenodd" d="M7 5.5L9.5 5.5V5C9.5 4.72386 9.72386 4.5 10 4.5C10.2761 4.5 10.5 4.72386 10.5 5V5.5H11C11.2761 5.5 11.5 5.72386 11.5 6C11.5 6.27614 11.2761 6.5 11 6.5H10.5L10.5 9C10.5 9.82843 9.82843 10.5 9 10.5L6.5 10.5V11C6.5 11.2761 6.27614 11.5 6 11.5C5.72386 11.5 5.5 11.2761 5.5 11V10.5H5C4.72386 10.5 4.5 10.2761 4.5 10C4.5 9.72386 4.72386 9.5 5 9.5H5.5L5.5 7C5.5 6.17157 6.17157 5.5 7 5.5ZM9.5 6.5L7 6.5C6.72386 6.5 6.5 6.72386 6.5 7L6.5 9.5L9 9.5C9.27614 9.5 9.5 9.27614 9.5 9L9.5 6.5Z" fill="#777B92"/>
<path fill-rule="evenodd" clip-rule="evenodd" d="M13 5.5H14C14.8284 5.5 15.5 6.17157 15.5 7V8C15.5 8.27614 15.2761 8.5 15 8.5C14.7239 8.5 14.5 8.27614 14.5 8V7C14.5 6.72386 14.2761 6.5 14 6.5H13C12.7239 6.5 12.5 6.27614 12.5 6C12.5 5.72386 12.7239 5.5 13 5.5Z" fill="#777B92"/>
<path fill-rule="evenodd" clip-rule="evenodd" d="M15.5 10L15.5 11C15.5 11.2761 15.2761 11.5 15 11.5C14.7239 11.5 14.5 11.2761 14.5 11V10C14.5 9.72386 14.7239 9.5 15 9.5C15.2761 9.5 15.5 9.72386 15.5 10Z" fill="#777B92"/>
<path fill-rule="evenodd" clip-rule="evenodd" d="M6.5 13L6.5 14C6.5 14.2761 6.72386 14.5 7 14.5H8C8.27614 14.5 8.5 14.7239 8.5 15C8.5 15.2761 8.27614 15.5 8 15.5H7C6.17157 15.5 5.5 14.8284 5.5 14L5.5 13C5.5 12.7239 5.72386 12.5 6 12.5C6.27614 12.5 6.5 12.7239 6.5 13Z" fill="#777B92"/>
<path fill-rule="evenodd" clip-rule="evenodd" d="M15.5 13V14C15.5 14.8284 14.8284 15.5 14 15.5H13C12.7239 15.5 12.5 15.2761 12.5 15C12.5 14.7239 12.7239 14.5 13 14.5H14C14.2761 14.5 14.5 14.2761 14.5 14V13C14.5 12.7239 14.7239 12.5 15 12.5C15.2761 12.5 15.5 12.7239 15.5 13Z" fill="#777B92"/>
<path fill-rule="evenodd" clip-rule="evenodd" d="M10 14.5H11C11.2761 14.5 11.5 14.7239 11.5 15C11.5 15.2761 11.2761 15.5 11 15.5H10C9.72386 15.5 9.5 15.2761 9.5 15C9.5 14.7239 9.72386 14.5 10 14.5Z" fill="#777B92"/>
<path fill-rule="evenodd" clip-rule="evenodd" d="M2 0.500001L3 0.500001C3.27614 0.500001 3.5 0.723858 3.5 1C3.5 1.27614 3.27614 1.5 3 1.5L2 1.5C1.72386 1.5 1.5 1.72386 1.5 2L1.5 3C1.5 3.27614 1.27614 3.5 1 3.5C0.723858 3.5 0.5 3.27614 0.5 3L0.5 2C0.5 1.17157 1.17157 0.500001 2 0.500001Z" fill="#777B92"/>
<path fill-rule="evenodd" clip-rule="evenodd" d="M5 0.500001L6 0.5C6.27614 0.5 6.5 0.723858 6.5 1C6.5 1.27614 6.27614 1.5 6 1.5L5 1.5C4.72386 1.5 4.5 1.27614 4.5 1C4.5 0.723858 4.72386 0.500001 5 0.500001Z" fill="#777B92"/>
<path fill-rule="evenodd" clip-rule="evenodd" d="M8 0.5L9 0.5C9.82843 0.5 10.5 1.17157 10.5 2V3C10.5 3.27614 10.2761 3.5 10 3.5C9.72386 3.5 9.5 3.27614 9.5 3V2C9.5 1.72386 9.27614 1.5 9 1.5L8 1.5C7.72386 1.5 7.5 1.27614 7.5 1C7.5 0.723858 7.72386 0.5 8 0.5Z" fill="#777B92"/>
<path fill-rule="evenodd" clip-rule="evenodd" d="M1.5 5L1.5 6C1.5 6.27614 1.27614 6.5 1 6.5C0.723858 6.5 0.500001 6.27614 0.500001 6L0.5 5C0.5 4.72386 0.723858 4.5 1 4.5C1.27614 4.5 1.5 4.72386 1.5 5Z" fill="#777B92"/>
<path fill-rule="evenodd" clip-rule="evenodd" d="M1.5 8L1.5 9C1.5 9.27614 1.72386 9.5 2 9.5H3C3.27614 9.5 3.5 9.72386 3.5 10C3.5 10.2761 3.27614 10.5 3 10.5H2C1.17157 10.5 0.500001 9.82843 0.500001 9L0.500001 8C0.500001 7.72386 0.723858 7.5 1 7.5C1.27614 7.5 1.5 7.72386 1.5 8Z" fill="#777B92"/>
</g>
<defs>
<clipPath id="clip0_13656_9939">
<rect width="16" height="16" fill="white" transform="translate(16 16) rotate(-180)"/>
</clipPath>
</defs>
</svg>
