<svg width="22" height="22" viewBox="0 0 22 22" fill="none" xmlns="http://www.w3.org/2000/svg">
<path d="M8.50444 14.0852C8.50444 14.0852 5.196 13.7539 5.196 9.36459C5.196 5.96906 7.82579 3.98144 7.82579 3.98144C7.82579 3.98144 8.9286 5.14089 9.77692 5.55498C10.6252 6.05188 10.9646 1 10.9646 1C10.9646 1 17.0725 4.22989 17.0725 9.11614C17.0725 14.168 13.6792 14.0024 13.6792 14.0024C13.6792 14.0024 15.2062 12.0148 15.2062 9.69586C15.2062 7.21133 11.8977 4.14707 11.8977 4.14707C11.8977 4.14707 11.4736 7.79105 10.1162 8.28796C8.75894 7.5426 7.99545 6.38315 7.99545 6.38315C7.99545 6.38315 4.85667 11.1866 8.50444 14.0852Z" fill="#97A3BA"/>
<path fill-rule="evenodd" clip-rule="evenodd" d="M15.9514 17.9739H6.04864L6.04864 19H15.9514V17.9739ZM6.04864 15.9739C4.91721 15.9739 4 16.8693 4 17.9739V19C4 20.1046 4.91721 21 6.04864 21H15.9514C17.0828 21 18 20.1046 18 19V17.9739C18 16.8693 17.0828 15.9739 15.9514 15.9739H6.04864Z" fill="#97A3BA"/>
<path d="M11.3038 14.3331C9.60719 14.2503 8.16505 13.1737 8.16505 11.6829C8.16505 10.1922 8.75887 9.52968 8.75887 9.52968C8.75887 9.52968 9.18303 10.3579 9.69203 10.7719C10.201 11.186 11.219 11.4345 11.728 10.8548C12.237 10.3579 12.4066 8.94995 12.4066 8.94995C12.4066 8.94995 13.5943 9.86095 13.4246 11.4345C13.3398 13.0908 12.6611 14.3331 11.3038 14.3331Z" fill="#97A3BA"/>
</svg>
