<svg width="22" height="22" viewBox="0 0 22 22" fill="none" xmlns="http://www.w3.org/2000/svg">
<path d="M18.6294 20.1673C19.4701 19.7096 18.6901 18.5125 18.1625 17.6948L12.9833 9.66665C12.7699 9.33589 12.7719 8.90924 12.9397 8.55144C13.7965 6.72466 13.7041 4.48834 12.5116 2.63986C11.3994 0.915878 9.55787 0.00331217 7.70577 1.38867e-06C7.03092 -0.00120495 6.72611 0.783802 7.10092 1.36478L8.27498 3.18465C8.85141 4.07814 8.62277 5.28581 7.7632 5.88794C6.90327 6.49032 5.73483 6.26046 5.14828 5.37351L3.89114 3.47256C3.51793 2.90821 2.72015 2.89342 2.45838 3.52138C1.70933 5.31826 1.8711 7.48188 2.99681 9.22681C4.18727 11.0721 6.13507 12.0054 8.07856 11.8721C8.46549 11.8456 8.85179 12.0067 9.06716 12.3405L15.0348 21.5908C15.3128 22.0215 15.832 22.1269 16.2464 21.8366L18.6294 20.1673Z" fill="#97A3BA"/>
</svg>
