<svg width="22" height="22" viewBox="0 0 22 22" fill="none" xmlns="http://www.w3.org/2000/svg">
<path d="M7.01429 20.6281C7.01429 20.6281 2 20.1312 2 13.5471C2 8.45371 5.98571 5.47223 5.98571 5.47223C5.98571 5.47223 7.65714 7.21142 8.94286 7.83257C10.2286 8.57794 10.7429 1 10.7429 1C10.7429 1 20 5.84491 20 13.1744C20 20.7523 14.8571 20.5039 14.8571 20.5039C14.8571 20.5039 17.1714 17.5224 17.1714 14.044C17.1714 10.3171 12.1571 5.72068 12.1571 5.72068C12.1571 5.72068 11.5143 11.1867 9.45714 11.9321C7.4 10.8141 6.24286 9.07485 6.24286 9.07485C6.24286 9.07485 1.48571 16.2801 7.01429 20.6281V20.6281Z" fill="#97A3BA"/>
<path d="M11.257 20.9999C8.68559 20.8757 6.49988 19.2607 6.49988 17.0246C6.49988 14.7885 7.39988 13.7946 7.39988 13.7946C7.39988 13.7946 8.04274 15.0369 8.81416 15.6581C9.58559 16.2792 11.1284 16.6519 11.8999 15.7823C12.6713 15.0369 12.9284 12.925 12.9284 12.925C12.9284 12.925 14.7284 14.2916 14.4713 16.6519C14.3427 19.1365 13.3142 20.9999 11.257 20.9999Z" fill="#97A3BA"/>
</svg>
