<svg width="16" height="12" viewBox="0 0 16 12" fill="none" xmlns="http://www.w3.org/2000/svg">
<g clip-path="url(#clip0_14655_23312)">
<mask id="mask0_14655_23312" style="mask-type:alpha" maskUnits="userSpaceOnUse" x="0" y="0" width="16" height="12">
<rect width="16" height="12" fill="white"/>
</mask>
<g mask="url(#mask0_14655_23312)">
<path fill-rule="evenodd" clip-rule="evenodd" d="M4 0H12V12H4V0Z" fill="#FFD018"/>
<path fill-rule="evenodd" clip-rule="evenodd" d="M0 0H4V12H0V0Z" fill="#2E42A5"/>
<path fill-rule="evenodd" clip-rule="evenodd" d="M12 0H16V12H12V0Z" fill="#E31D1C"/>
<path fill-rule="evenodd" clip-rule="evenodd" d="M4.90002 3.60712C4.90002 3.05206 5.35208 2.6032 5.90712 2.60714L10.3017 2.63832C10.8512 2.64222 11.2947 3.08878 11.2947 3.6383V7.64537C11.2947 7.64537 10.8505 9.64537 8.14899 9.64537C5.44743 9.64537 4.90002 7.6 4.90002 7.6V3.60712Z" fill="#BF9937"/>
<path fill-rule="evenodd" clip-rule="evenodd" d="M5.15002 4.2C5.56424 4.2 5.90002 3.86421 5.90002 3.45C5.90002 3.03578 5.56424 2.7 5.15002 2.7C4.73581 2.7 4.40002 3.03578 4.40002 3.45C4.40002 3.86421 4.73581 4.2 5.15002 4.2Z" fill="#BF9937"/>
<path fill-rule="evenodd" clip-rule="evenodd" d="M5.15002 6.39999C5.56424 6.39999 5.90002 6.06421 5.90002 5.64999C5.90002 5.23578 5.56424 4.89999 5.15002 4.89999C4.73581 4.89999 4.40002 5.23578 4.40002 5.64999C4.40002 6.06421 4.73581 6.39999 5.15002 6.39999Z" fill="#BF9937"/>
<path fill-rule="evenodd" clip-rule="evenodd" d="M5.15002 8.2C5.56424 8.2 5.90002 7.86421 5.90002 7.45C5.90002 7.03578 5.56424 6.7 5.15002 6.7C4.73581 6.7 4.40002 7.03578 4.40002 7.45C4.40002 7.86421 4.73581 8.2 5.15002 8.2Z" fill="#BF9937"/>
<path fill-rule="evenodd" clip-rule="evenodd" d="M10.85 4.2C11.2643 4.2 11.6 3.86421 11.6 3.45C11.6 3.03578 11.2643 2.7 10.85 2.7C10.4358 2.7 10.1 3.03578 10.1 3.45C10.1 3.86421 10.4358 4.2 10.85 4.2Z" fill="#BF9937"/>
<path fill-rule="evenodd" clip-rule="evenodd" d="M10.85 6.39999C11.2643 6.39999 11.6 6.06421 11.6 5.64999C11.6 5.23578 11.2643 4.89999 10.85 4.89999C10.4358 4.89999 10.1 5.23578 10.1 5.64999C10.1 6.06421 10.4358 6.39999 10.85 6.39999Z" fill="#BF9937"/>
<path fill-rule="evenodd" clip-rule="evenodd" d="M10.85 8.2C11.2643 8.2 11.6 7.86421 11.6 7.45C11.6 7.03578 11.2643 6.7 10.85 6.7C10.4358 6.7 10.1 7.03578 10.1 7.45C10.1 7.86421 10.4358 8.2 10.85 8.2Z" fill="#BF9937"/>
<path d="M5.91187 8.33517L5.96441 8.20811C6.56826 8.46695 7.25543 8.59655 8.02636 8.59655C8.7969 8.59655 9.46558 8.46708 10.0328 8.20872L10.0881 8.33456C9.50246 8.60132 8.81505 8.73441 8.02636 8.73441C7.23806 8.73441 6.53308 8.60145 5.91187 8.33517Z" fill="#805440"/>
<path fill-rule="evenodd" clip-rule="evenodd" d="M6.11493 3.8092H7.97648H8.02356H9.88511V7.32411C9.88511 7.32411 9.88445 7.63434 9.55646 7.76998C9.22848 7.90562 8.84269 7.85708 8.84269 7.85708C8.84269 7.85708 8.47356 7.77771 8.27867 7.85708C8.15921 7.90572 8.07266 7.92979 8.02356 7.94114V7.95039C8.02356 7.95039 8.01558 7.94935 8.00002 7.94623C7.98446 7.94935 7.97648 7.95039 7.97648 7.95039V7.94114C7.92737 7.92979 7.84083 7.90572 7.72137 7.85708C7.52648 7.77771 7.15735 7.85708 7.15735 7.85708C7.15735 7.85708 6.77156 7.90562 6.44358 7.76998C6.11559 7.63434 6.11493 7.32411 6.11493 7.32411V3.8092Z" fill="#BF9937"/>
<mask id="mask1_14655_23312" style="mask-type:alpha" maskUnits="userSpaceOnUse" x="6" y="3" width="4" height="5">
<path fill-rule="evenodd" clip-rule="evenodd" d="M6.11493 3.8092H7.97648H8.02356H9.88511V7.32411C9.88511 7.32411 9.88445 7.63434 9.55646 7.76998C9.22848 7.90562 8.84269 7.85708 8.84269 7.85708C8.84269 7.85708 8.47356 7.77771 8.27867 7.85708C8.15921 7.90572 8.07266 7.92979 8.02356 7.94114V7.95039C8.02356 7.95039 8.01558 7.94935 8.00002 7.94623C7.98446 7.94935 7.97648 7.95039 7.97648 7.95039V7.94114C7.92737 7.92979 7.84083 7.90572 7.72137 7.85708C7.52648 7.77771 7.15735 7.85708 7.15735 7.85708C7.15735 7.85708 6.77156 7.90562 6.44358 7.76998C6.11559 7.63434 6.11493 7.32411 6.11493 7.32411V3.8092Z" fill="white"/>
</mask>
<g mask="url(#mask1_14655_23312)">
<rect x="6.06226" y="3.76509" width="1.82812" height="1.95" fill="#D00F3A"/>
<path fill-rule="evenodd" clip-rule="evenodd" d="M8.09351 3.76509H9.98934V5.71509H8.09351V3.76509Z" fill="#FEDF00"/>
<path fill-rule="evenodd" clip-rule="evenodd" d="M8.09351 5.93176H9.92163V7.95398H8.09351V5.93176Z" fill="#FEDF00"/>
<rect x="6.06226" y="5.93176" width="1.82812" height="2.02222" fill="#FEDF00"/>
<path fill-rule="evenodd" clip-rule="evenodd" d="M9.06226 7.26509C9.3384 7.26509 9.56226 7.04123 9.56226 6.76509C9.56226 6.48895 9.3384 6.26509 9.06226 6.26509C8.78611 6.26509 8.56226 6.48895 8.56226 6.76509C8.56226 7.04123 8.78611 7.26509 9.06226 7.26509Z" fill="#D00F3A"/>
<path fill-rule="evenodd" clip-rule="evenodd" d="M7.01506 5.21772V4.10432L7.48577 4.63681L7.24398 5.21772C7.15487 5.18669 7.12366 5.25244 7.16958 5.36954C7.19694 5.43932 7.21854 5.48957 7.23962 5.5284C7.15946 5.44712 7.12605 5.3963 7.12605 5.34169C7.12605 5.29751 7.12194 5.26713 7.11123 5.24715C7.10619 5.23774 7.06391 5.22868 7.03677 5.22287C7.02621 5.2206 7.01795 5.21883 7.01506 5.21772ZM6.79513 5.21772L6.55334 4.63681L7.01262 4.10842V5.22182C7.00962 5.22297 7.00182 5.22448 6.99208 5.22637C6.96825 5.231 6.93285 5.23787 6.92788 5.24715C6.91717 5.26713 6.91306 5.29751 6.91306 5.34169C6.91306 5.3963 6.87965 5.44712 6.79949 5.5284C6.82056 5.48957 6.84217 5.43932 6.86953 5.36954C6.91545 5.25244 6.88424 5.18669 6.79513 5.21772Z" fill="#FEDF00"/>
<rect x="8.50458" y="4.28963" width="1" height="1" fill="#D00F3A"/>
<path fill-rule="evenodd" clip-rule="evenodd" d="M6.56226 6.38033H7.56226V7.38033H6.56226V6.38033Z" fill="#D00F3A"/>
</g>
</g>
<rect width="16" height="12" fill="url(#paint0_linear_14655_23312)" style="mix-blend-mode:overlay"/>
</g>
<defs>
<linearGradient id="paint0_linear_14655_23312" x1="8" y1="0" x2="8" y2="12" gradientUnits="userSpaceOnUse">
<stop stop-color="white" stop-opacity="0.7"/>
<stop offset="1" stop-opacity="0.3"/>
</linearGradient>
<clipPath id="clip0_14655_23312">
<rect width="16" height="12" rx="1" fill="white"/>
</clipPath>
</defs>
</svg>
