<svg width="16" height="12" viewBox="0 0 16 12" fill="none" xmlns="http://www.w3.org/2000/svg">
<g clip-path="url(#clip0_14655_23314)">
<mask id="mask0_14655_23314" style="mask-type:alpha" maskUnits="userSpaceOnUse" x="0" y="0" width="16" height="12">
<rect width="16" height="12" fill="white"/>
</mask>
<g mask="url(#mask0_14655_23314)">
<path fill-rule="evenodd" clip-rule="evenodd" d="M0 0V12H16V0H0Z" fill="#2E42A5"/>
<mask id="mask1_14655_23314" style="mask-type:alpha" maskUnits="userSpaceOnUse" x="0" y="0" width="16" height="12">
<path fill-rule="evenodd" clip-rule="evenodd" d="M0 0V12H16V0H0Z" fill="white"/>
</mask>
<g mask="url(#mask1_14655_23314)">
<path d="M12.3701 10.5623C11.7672 10.5623 11.3617 10.424 11.0788 10.1956C10.7946 9.96596 10.6022 9.61951 10.4769 9.14021C10.3511 8.65898 10.2985 8.06521 10.2789 7.36595C10.2651 6.87487 10.2677 6.34279 10.2704 5.77007C10.2712 5.60639 10.272 5.43939 10.2724 5.26907H14.5278C14.603 6.63979 14.6222 7.95179 14.3512 8.93554C14.2093 9.45078 13.9933 9.85346 13.684 10.1273C13.3792 10.3971 12.9607 10.5623 12.3701 10.5623Z" fill="white" stroke="#E6E617" stroke-width="0.5"/>
<path fill-rule="evenodd" clip-rule="evenodd" d="M10.2418 8.96726C10.2418 9.99832 11.0952 11.0164 12.3581 11.0164C13.6209 11.0164 14.5899 10.078 14.7053 8.93219L10.2418 8.96726Z" fill="#82E5FF"/>
<path fill-rule="evenodd" clip-rule="evenodd" d="M10.867 7.1C10.867 7.87413 11.5154 8.5 12.313 8.5C13.1107 8.5 13.759 7.87413 13.759 7.1C13.759 6.32587 13.1107 5.7 12.313 5.7C11.5154 5.7 10.867 6.32587 10.867 7.1ZM13.159 7.1C13.159 7.55103 12.7803 7.91666 12.313 7.91666C11.8458 7.91666 11.467 7.55103 11.467 7.1C11.467 6.64896 11.8458 6.28333 12.313 6.28333C12.7803 6.28333 13.159 6.64896 13.159 7.1Z" fill="#E18600"/>
<path fill-rule="evenodd" clip-rule="evenodd" d="M12.069 5.50497C12.069 5.50497 11.5428 5.73702 11.657 6.17325C11.7712 6.60949 11.9002 6.67164 11.9002 6.67164C11.9002 6.67164 12.0861 5.72724 12.8366 5.72724L12.069 5.50497Z" fill="#E18600"/>
<path fill-rule="evenodd" clip-rule="evenodd" d="M11.1264 7.86201C11.1264 7.86201 11.5591 8.24087 11.9062 7.95301C12.2533 7.66514 12.2551 7.52191 12.2551 7.52191C12.2551 7.52191 11.3206 7.75257 11.0035 7.07239L11.1264 7.86201Z" fill="#E18600"/>
<path fill-rule="evenodd" clip-rule="evenodd" d="M13.7293 7.80446C13.7293 7.80446 13.7514 7.22977 13.3093 7.14118C12.8671 7.0526 12.7547 7.14135 12.7547 7.14135C12.7547 7.14135 13.522 7.72241 13.193 8.39695L13.7293 7.80446Z" fill="#E18600"/>
<mask id="mask2_14655_23314" style="mask-type:alpha" maskUnits="userSpaceOnUse" x="0" y="0" width="9" height="7">
<rect width="9" height="7" fill="white"/>
</mask>
<g mask="url(#mask2_14655_23314)">
<path d="M-1.00214 6.49991L0.978339 7.36852L9.04494 0.944376L10.0896 -0.34639L7.97176 -0.636702L4.68159 2.13164L2.03334 3.99686L-1.00214 6.49991Z" fill="#F7FCFF"/>
<path d="M-0.731018 7.10847L0.277943 7.61253L9.71445 -0.466324H8.29775L-0.731018 7.10847Z" fill="#F50100"/>
<path d="M10.0021 6.49991L8.02166 7.36852L-0.0449371 0.944376L-1.08959 -0.34639L1.02824 -0.636702L4.31841 2.13164L6.96666 3.99686L10.0021 6.49991Z" fill="#F7FCFF"/>
<path d="M9.93457 6.93667L8.92561 7.44073L4.90745 3.98176L3.71615 3.59529L-1.1901 -0.341973H0.226597L5.13009 3.50184L6.43256 3.96525L9.93457 6.93667Z" fill="#F50100"/>
<mask id="path-16-outside-1_14655_23314" maskUnits="userSpaceOnUse" x="-1" y="-1" width="11" height="9" fill="black">
<rect fill="white" x="-1" y="-1" width="11" height="9"/>
<path fill-rule="evenodd" clip-rule="evenodd" d="M4.99226 0H3.99226V3H0V4H3.99226V7H4.99226V4H9V3H4.99226V0Z"/>
</mask>
<path fill-rule="evenodd" clip-rule="evenodd" d="M4.99226 0H3.99226V3H0V4H3.99226V7H4.99226V4H9V3H4.99226V0Z" fill="#F50100"/>
<path d="M3.99226 0V-0.75H3.24226V0H3.99226ZM4.99226 0H5.74226V-0.75H4.99226V0ZM3.99226 3V3.75H4.74226V3H3.99226ZM0 3V2.25H-0.75V3H0ZM0 4H-0.75V4.75H0V4ZM3.99226 4H4.74226V3.25H3.99226V4ZM3.99226 7H3.24226V7.75H3.99226V7ZM4.99226 7V7.75H5.74226V7H4.99226ZM4.99226 4V3.25H4.24226V4H4.99226ZM9 4V4.75H9.75V4H9ZM9 3H9.75V2.25H9V3ZM4.99226 3H4.24226V3.75H4.99226V3ZM3.99226 0.75H4.99226V-0.75H3.99226V0.75ZM4.74226 3V0H3.24226V3H4.74226ZM0 3.75H3.99226V2.25H0V3.75ZM0.75 4V3H-0.75V4H0.75ZM3.99226 3.25H0V4.75H3.99226V3.25ZM4.74226 7V4H3.24226V7H4.74226ZM4.99226 6.25H3.99226V7.75H4.99226V6.25ZM4.24226 4V7H5.74226V4H4.24226ZM9 3.25H4.99226V4.75H9V3.25ZM8.25 3V4H9.75V3H8.25ZM4.99226 3.75H9V2.25H4.99226V3.75ZM4.24226 0V3H5.74226V0H4.24226Z" fill="#F7FCFF" mask="url(#path-16-outside-1_14655_23314)"/>
</g>
</g>
</g>
<rect width="16" height="12" fill="url(#paint0_linear_14655_23314)" style="mix-blend-mode:overlay"/>
</g>
<defs>
<linearGradient id="paint0_linear_14655_23314" x1="8" y1="0" x2="8" y2="12" gradientUnits="userSpaceOnUse">
<stop stop-color="white" stop-opacity="0.7"/>
<stop offset="1" stop-opacity="0.3"/>
</linearGradient>
<clipPath id="clip0_14655_23314">
<rect width="16" height="12" rx="1" fill="white"/>
</clipPath>
</defs>
</svg>
