<svg width="16" height="12" viewBox="0 0 16 12" fill="none" xmlns="http://www.w3.org/2000/svg">
<g clip-path="url(#clip0_14655_23317)">
<mask id="mask0_14655_23317" style="mask-type:alpha" maskUnits="userSpaceOnUse" x="0" y="0" width="16" height="12">
<rect width="16" height="12" fill="white"/>
</mask>
<g mask="url(#mask0_14655_23317)">
<path fill-rule="evenodd" clip-rule="evenodd" d="M0 0V12H16V0H0Z" fill="#E31D1C"/>
<mask id="mask1_14655_23317" style="mask-type:alpha" maskUnits="userSpaceOnUse" x="0" y="0" width="16" height="12">
<path fill-rule="evenodd" clip-rule="evenodd" d="M0 0V12H16V0H0Z" fill="white"/>
</mask>
<g mask="url(#mask1_14655_23317)">
<path fill-rule="evenodd" clip-rule="evenodd" d="M0 4V8H16V4H0Z" fill="#272727"/>
<path fill-rule="evenodd" clip-rule="evenodd" d="M3.00421 6.01292L1.80612 7.21101L2.60804 8.01292L3.80612 6.81484L5.00421 8.01292L5.80612 7.21101L4.60804 6.01292L5.80612 4.81484L5.00421 4.01292L3.80612 5.21101L2.60804 4.01292L1.80612 4.81484L3.00421 6.01292Z" fill="#F7FCFF"/>
<path fill-rule="evenodd" clip-rule="evenodd" d="M7.08807 5.94818L5.88998 7.14627L6.6919 7.94818L7.88998 6.7501L9.08807 7.94818L9.88998 7.14627L8.6919 5.94818L9.88998 4.7501L9.08807 3.94818L7.88998 5.14627L6.6919 3.94818L5.88998 4.7501L7.08807 5.94818Z" fill="#F7FCFF"/>
<path fill-rule="evenodd" clip-rule="evenodd" d="M11.1367 5.96199L9.9386 7.16008L10.7405 7.96199L11.9386 6.76391L13.1367 7.96199L13.9386 7.16008L12.7405 5.96199L13.9386 4.76391L13.1367 3.96199L11.9386 5.16008L10.7405 3.96199L9.9386 4.76391L11.1367 5.96199Z" fill="#F7FCFF"/>
</g>
</g>
<rect width="16" height="12" fill="url(#paint0_linear_14655_23317)" style="mix-blend-mode:overlay"/>
</g>
<defs>
<linearGradient id="paint0_linear_14655_23317" x1="8" y1="0" x2="8" y2="12" gradientUnits="userSpaceOnUse">
<stop stop-color="white" stop-opacity="0.7"/>
<stop offset="1" stop-opacity="0.3"/>
</linearGradient>
<clipPath id="clip0_14655_23317">
<rect width="16" height="12" rx="1" fill="white"/>
</clipPath>
</defs>
</svg>
