<svg width="16" height="12" viewBox="0 0 16 12" fill="none" xmlns="http://www.w3.org/2000/svg">
<g clip-path="url(#clip0_14655_23330)">
<mask id="mask0_14655_23330" style="mask-type:alpha" maskUnits="userSpaceOnUse" x="0" y="0" width="16" height="12">
<rect width="16" height="12" fill="white"/>
</mask>
<g mask="url(#mask0_14655_23330)">
<path fill-rule="evenodd" clip-rule="evenodd" d="M0 0V12H16V0H0Z" fill="#F7FCFF"/>
<mask id="mask1_14655_23330" style="mask-type:alpha" maskUnits="userSpaceOnUse" x="0" y="0" width="16" height="12">
<path fill-rule="evenodd" clip-rule="evenodd" d="M0 0V12H16V0H0Z" fill="white"/>
</mask>
<g mask="url(#mask1_14655_23330)">
<path fill-rule="evenodd" clip-rule="evenodd" d="M0 0V4H16V0H0Z" fill="#58A5FF"/>
<path fill-rule="evenodd" clip-rule="evenodd" d="M0 8V12H16V8H0Z" fill="#58A5FF"/>
<path fill-rule="evenodd" clip-rule="evenodd" d="M8.27631 7.24359C8.27631 7.24359 7.76536 8.30294 7.31629 8.52014C7.51013 8.03426 7.58147 7.04289 7.58147 7.04289C7.58147 7.04289 6.41552 7.50516 6.00628 7.42091C6.49837 7.07704 7.18141 6.44013 7.18141 6.44013C7.18141 6.44013 5.6723 5.94676 5.70932 5.73679C6.39056 5.85899 7.32742 5.72577 7.32742 5.72577C7.32742 5.72577 6.26872 4.45615 6.37609 4.36174C6.53746 4.5186 7.80624 5.18136 7.80624 5.18136C7.80624 5.18136 7.89829 4.05176 8.17134 3.67091C8.20409 3.93974 8.58734 5.15693 8.58734 5.15693C8.58734 5.15693 9.35778 4.38604 9.7854 4.38604C9.59757 4.61892 9.15283 5.64189 9.15283 5.64189C9.15283 5.64189 10.2612 5.62445 10.6826 5.8319C10.1722 5.90451 9.27787 6.35346 9.27787 6.35346C9.27787 6.35346 10.4426 7.23698 10.3364 7.42091C9.71106 7.115 8.98809 7.01255 8.98809 7.01255C8.98809 7.01255 9.18792 8.24208 9.02639 8.52014C8.86885 8.11083 8.27631 7.24359 8.27631 7.24359Z" fill="#FFD018" stroke="#F19900" stroke-opacity="0.98" stroke-width="0.25"/>
<path fill-rule="evenodd" clip-rule="evenodd" d="M8.20935 6.67091C8.48549 6.67091 8.70935 6.44705 8.70935 6.17091C8.70935 5.89476 8.48549 5.67091 8.20935 5.67091C7.93321 5.67091 7.70935 5.89476 7.70935 6.17091C7.70935 6.44705 7.93321 6.67091 8.20935 6.67091Z" fill="#FFD018" stroke="#F19900" stroke-opacity="0.98" stroke-width="0.25"/>
</g>
</g>
<rect width="16" height="12" fill="url(#paint0_linear_14655_23330)" style="mix-blend-mode:overlay"/>
</g>
<defs>
<linearGradient id="paint0_linear_14655_23330" x1="8" y1="0" x2="8" y2="12" gradientUnits="userSpaceOnUse">
<stop stop-color="white" stop-opacity="0.7"/>
<stop offset="1" stop-opacity="0.3"/>
</linearGradient>
<clipPath id="clip0_14655_23330">
<rect width="16" height="12" rx="1" fill="white"/>
</clipPath>
</defs>
</svg>
