<svg width="16" height="12" viewBox="0 0 16 12" fill="none" xmlns="http://www.w3.org/2000/svg">
<g clip-path="url(#clip0_14655_23449)">
<mask id="mask0_14655_23449" style="mask-type:alpha" maskUnits="userSpaceOnUse" x="0" y="0" width="16" height="12">
<rect width="16" height="12" fill="white"/>
</mask>
<g mask="url(#mask0_14655_23449)">
<path fill-rule="evenodd" clip-rule="evenodd" d="M0 0H16V12H0V0Z" fill="#F7FCFF"/>
<path d="M0 -0.5H-0.5V0V5.6535L-1.424 6L-0.5 6.3465V12V12.5H0H16L16.1756 11.5318L1.424 6L16.1756 0.468165L16 -0.5H0Z" fill="#3547A0" stroke="#E31D1C"/>
<path fill-rule="evenodd" clip-rule="evenodd" d="M14.0448 3.01363C14.0448 3.01363 10.0132 4.06042 10.0132 4.22149C10.0132 4.38256 9.65044 4.8929 9.72472 5.02613C9.799 5.15935 9.99191 5.3359 10.1503 5.24763C10.3087 5.15935 10.685 4.80463 10.5587 5.02613C10.4325 5.24763 11.2377 5.50516 10.8982 5.99434C10.8982 5.99434 11.306 5.75925 11.1086 7.09616L12.0795 7.37285C12.0795 7.37285 13.1637 7.08858 12.6688 6.27503H13.2435C13.2435 6.27503 13.0054 5.22078 13.3573 5.02613C13.7092 4.83147 12.9986 4.68351 12.9986 4.68351C14.501 3.82825 14.0448 3.01363 14.0448 3.01363Z" fill="#C44800"/>
<path fill-rule="evenodd" clip-rule="evenodd" d="M13.3774 7.48524L10.9437 7.07394L10.6249 6.64728L9.24326 6.92548L10.4562 7.61259L10.8639 7.39315L13.3774 7.79444V7.48524Z" fill="#FFC221"/>
<path fill-rule="evenodd" clip-rule="evenodd" d="M13.7512 7.85941V7.6183L11.0225 7.45227C11.0225 7.45227 10.858 7.3 10.4522 7.3C10.0463 7.3 10 7.6183 10 7.6183C10 7.6183 10.2327 8.08219 10.6839 8.08219C11.1352 8.08219 11.8369 8.19057 12.0269 8.41369C12.217 8.63681 13.0045 8.29907 13.0045 8.29907C13.0045 8.29907 12.668 7.72026 12.2362 7.90123C11.8045 8.08219 11.0225 7.81357 11.0225 7.71594C11.0225 7.6183 13.7512 7.85941 13.7512 7.85941Z" fill="#FFC221"/>
<path fill-rule="evenodd" clip-rule="evenodd" d="M9.14273 5.90711C9.14273 5.90711 8.87821 6.47404 8.97425 6.68842C9.39674 7.12961 10.1648 6.42679 10.1648 6.42679L9.14273 5.90711Z" fill="#FFC221"/>
<path fill-rule="evenodd" clip-rule="evenodd" d="M13.3138 6.17755C13.5945 6.03318 13.7377 5.76579 13.7377 5.41701C13.7377 5.14852 13.6738 4.9364 13.5324 4.80082V4.61778L13.2847 4.6155C11.0653 4.59513 9.8158 4.81475 9.45366 5.36416C9.08742 5.91977 9.11938 6.39438 9.61785 6.62474L9.83837 6.61944C10.9158 6.05727 12.0122 5.9177 13.1391 6.19784L13.3138 6.17755ZM9.66239 5.50175C9.95481 5.05811 11.1615 4.84603 13.2824 4.86549V4.92854C13.4192 4.9942 13.4877 5.15702 13.4877 5.41701C13.4877 5.677 13.3916 5.8564 13.1994 5.95523C12.0126 5.66018 10.8537 5.80771 9.72272 6.3978C9.39008 6.24407 9.36997 5.94539 9.66239 5.50175Z" fill="#979797"/>
<path d="M13.2824 4.86549C11.1615 4.84602 9.95481 5.05811 9.66239 5.50174C9.36997 5.94538 9.39008 6.24406 9.72272 6.39779C10.8537 5.8077 12.0126 5.66018 13.1994 5.95522C13.3916 5.8564 13.4877 5.67699 13.4877 5.417C13.4877 5.15702 13.4192 4.99419 13.2824 4.92854V4.86549Z" fill="#F7FCFF"/>
</g>
<rect width="16" height="12" fill="url(#paint0_linear_14655_23449)" style="mix-blend-mode:overlay"/>
</g>
<defs>
<linearGradient id="paint0_linear_14655_23449" x1="8" y1="0" x2="8" y2="12" gradientUnits="userSpaceOnUse">
<stop stop-color="white" stop-opacity="0.7"/>
<stop offset="1" stop-opacity="0.3"/>
</linearGradient>
<clipPath id="clip0_14655_23449">
<rect width="16" height="12" rx="1" fill="white"/>
</clipPath>
</defs>
</svg>
