<svg width="16" height="12" viewBox="0 0 16 12" fill="none" xmlns="http://www.w3.org/2000/svg">
<g clip-path="url(#clip0_14655_23319)">
<mask id="mask0_14655_23319" style="mask-type:alpha" maskUnits="userSpaceOnUse" x="0" y="0" width="16" height="12">
<rect width="16" height="12" fill="white"/>
</mask>
<g mask="url(#mask0_14655_23319)">
<path fill-rule="evenodd" clip-rule="evenodd" d="M0 0V12H16V0H0Z" fill="#5BA3DA"/>
<mask id="mask1_14655_23319" style="mask-type:alpha" maskUnits="userSpaceOnUse" x="0" y="0" width="16" height="12">
<path fill-rule="evenodd" clip-rule="evenodd" d="M0 0V12H16V0H0Z" fill="white"/>
</mask>
<g mask="url(#mask1_14655_23319)">
<path fill-rule="evenodd" clip-rule="evenodd" d="M2.78027 4.28985L0.242218 3.53562L2.83663 2.79649L3.47 0.43644L4.20122 2.8686L6.60051 3.51046L4.19413 4.23356L3.47595 6.55787L2.78027 4.28985Z" fill="#EF2929"/>
<path fill-rule="evenodd" clip-rule="evenodd" d="M2.78027 4.28985L0.242218 3.53562L2.83663 2.79649L3.47 0.43644L4.20122 2.8686L6.60051 3.51046L4.19413 4.23356L3.47595 6.55787L2.78027 4.28985Z" fill="#FF0000"/>
<path fill-rule="evenodd" clip-rule="evenodd" d="M16.0001 7H6.10352e-05V8.00006H16.0001V7ZM16.0001 9.00004H6.10352e-05V10.0001H16.0001V9.00004Z" fill="#FAD615"/>
</g>
</g>
<rect width="16" height="12" fill="url(#paint0_linear_14655_23319)" style="mix-blend-mode:overlay"/>
</g>
<defs>
<linearGradient id="paint0_linear_14655_23319" x1="8" y1="0" x2="8" y2="12" gradientUnits="userSpaceOnUse">
<stop stop-color="white" stop-opacity="0.7"/>
<stop offset="1" stop-opacity="0.3"/>
</linearGradient>
<clipPath id="clip0_14655_23319">
<rect width="16" height="12" rx="1" fill="white"/>
</clipPath>
</defs>
</svg>
