<svg width="16" height="12" viewBox="0 0 16 12" fill="none" xmlns="http://www.w3.org/2000/svg">
<g clip-path="url(#clip0_14655_23322)">
<mask id="mask0_14655_23322" style="mask-type:alpha" maskUnits="userSpaceOnUse" x="0" y="0" width="17" height="12">
<rect width="17" height="12" fill="white"/>
</mask>
<g mask="url(#mask0_14655_23322)">
<path fill-rule="evenodd" clip-rule="evenodd" d="M0 0H16V12H0V0Z" fill="#2E42A5"/>
<path fill-rule="evenodd" clip-rule="evenodd" d="M5 0H15V12L5 0Z" fill="#FECA00"/>
<path fill-rule="evenodd" clip-rule="evenodd" d="M3.55402 1.39689L2.96624 1.70591L3.07849 1.0514L2.60297 0.587872L3.26013 0.49238L3.55402 -0.103111L3.84792 0.49238L4.50508 0.587872L4.02955 1.0514L4.14181 1.70591L3.55402 1.39689Z" fill="#F7FCFF"/>
<path fill-rule="evenodd" clip-rule="evenodd" d="M5.29737 3.53696L4.70958 3.84597L4.82184 3.19147L4.34631 2.72794L5.00348 2.63245L5.29737 2.03696L5.59126 2.63245L6.24843 2.72794L5.7729 3.19147L5.88516 3.84597L5.29737 3.53696Z" fill="#F7FCFF"/>
<path fill-rule="evenodd" clip-rule="evenodd" d="M6.93171 5.61922L6.34392 5.92824L6.45618 5.27373L5.98065 4.81021L6.63782 4.71472L6.93171 4.11922L7.2256 4.71472L7.88276 4.81021L7.40724 5.27373L7.51949 5.92824L6.93171 5.61922Z" fill="#F7FCFF"/>
<path fill-rule="evenodd" clip-rule="evenodd" d="M8.53269 7.61462L7.94491 7.92364L8.05716 7.26913L7.58163 6.80561L8.2388 6.71012L8.53269 6.11462L8.82658 6.71012L9.48375 6.80561L9.00822 7.26913L9.12048 7.92364L8.53269 7.61462Z" fill="#F7FCFF"/>
<path fill-rule="evenodd" clip-rule="evenodd" d="M10.2572 9.66839L9.66942 9.97741L9.78168 9.3229L9.30615 8.85937L9.96332 8.76388L10.2572 8.16839L10.5511 8.76388L11.2083 8.85937L10.7327 9.3229L10.845 9.97741L10.2572 9.66839Z" fill="#F7FCFF"/>
<path fill-rule="evenodd" clip-rule="evenodd" d="M12.1634 11.6555L11.5756 11.9645L11.6879 11.31L11.2124 10.8465L11.8695 10.751L12.1634 10.1555L12.4573 10.751L13.1145 10.8465L12.639 11.31L12.7512 11.9645L12.1634 11.6555Z" fill="#F7FCFF"/>
</g>
<rect width="16" height="12" fill="url(#paint0_linear_14655_23322)" style="mix-blend-mode:overlay"/>
</g>
<defs>
<linearGradient id="paint0_linear_14655_23322" x1="8" y1="0" x2="8" y2="12" gradientUnits="userSpaceOnUse">
<stop stop-color="white" stop-opacity="0.7"/>
<stop offset="1" stop-opacity="0.3"/>
</linearGradient>
<clipPath id="clip0_14655_23322">
<rect width="16" height="12" rx="1" fill="white"/>
</clipPath>
</defs>
</svg>
