<svg width="16" height="12" viewBox="0 0 16 12" fill="none" xmlns="http://www.w3.org/2000/svg">
<g clip-path="url(#clip0_14655_23428)">
<mask id="mask0_14655_23428" style="mask-type:alpha" maskUnits="userSpaceOnUse" x="0" y="0" width="16" height="12">
<rect width="16" height="12" fill="white"/>
</mask>
<g mask="url(#mask0_14655_23428)">
<path fill-rule="evenodd" clip-rule="evenodd" d="M0 0H16V12H0V0Z" fill="#73BE4A"/>
<path fill-rule="evenodd" clip-rule="evenodd" d="M0 0V8H16V0H0Z" fill="#AF0100"/>
<rect width="3" height="12" fill="#F7FCFF"/>
<path fill-rule="evenodd" clip-rule="evenodd" d="M0.499974 -3.8147e-06C0.776138 -3.8147e-06 0.99997 0.223871 0.99997 0.500006C0.99997 0.776141 0.776138 1.00002 0.499974 1.00002C0.223873 1.00002 -1.52588e-05 0.776141 -1.52588e-05 0.500006C-1.52588e-05 0.223871 0.223873 -3.8147e-06 0.499974 -3.8147e-06ZM2.50001 -3.8147e-06C2.77611 -3.8147e-06 3 0.223871 3 0.500006C3 0.776141 2.77611 1.00002 2.50001 1.00002C2.22385 1.00002 2.00002 0.776141 2.00002 0.500006C2.00002 0.223871 2.22385 -3.8147e-06 2.50001 -3.8147e-06ZM0.99997 2.50002C0.99997 2.22384 0.776138 2.00001 0.499974 2.00001C0.223873 2.00001 -1.52588e-05 2.22384 -1.52588e-05 2.50002C-1.52588e-05 2.77615 0.223873 2.99998 0.499974 2.99998C0.776138 2.99998 0.99997 2.77615 0.99997 2.50002ZM2.50001 2.00001C2.77611 2.00001 3 2.22384 3 2.50002C3 2.77615 2.77611 2.99998 2.50001 2.99998C2.22385 2.99998 2.00002 2.77615 2.00002 2.50002C2.00002 2.22384 2.22385 2.00001 2.50001 2.00001ZM2.50001 9.00001C2.77611 9.00001 3 9.22384 3 9.50002C3 9.77614 2.77611 9.99999 2.50001 9.99999C2.22385 9.99999 2.00002 9.77614 2.00002 9.50002C2.00002 9.22384 2.22385 9.00001 2.50001 9.00001ZM0.99997 9.50002C0.99997 9.22384 0.776138 9.00001 0.499974 9.00001C0.223873 9.00001 -1.52588e-05 9.22384 -1.52588e-05 9.50002C-1.52588e-05 9.77614 0.223873 9.99999 0.499974 9.99999C0.776138 9.99999 0.99997 9.77614 0.99997 9.50002ZM0.499974 11C0.776138 11 0.99997 11.2239 0.99997 11.5C0.99997 11.7762 0.776138 12 0.499974 12C0.223873 12 -1.52588e-05 11.7762 -1.52588e-05 11.5C-1.52588e-05 11.2239 0.223873 11 0.499974 11ZM3 11.5C3 11.2239 2.77611 11 2.50001 11C2.22385 11 2.00002 11.2239 2.00002 11.5C2.00002 11.7762 2.22385 12 2.50001 12C2.77611 12 3 11.7762 3 11.5ZM1.49996 9.99999C1.77612 9.99999 2.00002 10.2239 2.00002 10.5C2.00002 10.7761 1.77612 11 1.49996 11C1.22386 11 0.99997 10.7761 0.99997 10.5C0.99997 10.2239 1.22386 9.99999 1.49996 9.99999ZM2.00002 1.5C2.00002 1.22386 1.77612 1.00002 1.49996 1.00002C1.22386 1.00002 0.99997 1.22386 0.99997 1.5C0.99997 1.77613 1.22386 2.00001 1.49996 2.00001C1.77612 2.00001 2.00002 1.77613 2.00002 1.5ZM2.05497 6.01934L3 7V7.99998L3.02188 8.04642L1.54553 6.56887L0.218812 7.99998H0.000110745V7L0.991268 6.01415L0.000110745 5.02219V4.00002H0.10901L1.53184 5.47648L2.96159 4.05439L3 4.00002V4.99996L2.05497 6.01934ZM1.49996 2.99998C1.77612 2.99998 2.00002 3.22387 2.00002 3.49999C2.00002 3.77613 1.77612 4.00002 1.49996 4.00002C1.22386 4.00002 0.99997 3.77613 0.99997 3.49999C0.99997 3.22387 1.22386 2.99998 1.49996 2.99998ZM2.00002 8.49999C2.00002 8.22387 1.77612 7.99998 1.49996 7.99998C1.22386 7.99998 0.99997 8.22387 0.99997 8.49999C0.99997 8.77612 1.22386 9.00001 1.49996 9.00001C1.77612 9.00001 2.00002 8.77612 2.00002 8.49999Z" fill="#D0181A"/>
<path opacity="0.4" fill-rule="evenodd" clip-rule="evenodd" d="M-1.52588e-05 -3.8147e-06H0.99997V1.00002H-1.52588e-05V-3.8147e-06ZM0.99997 2.00001H-1.52588e-05V2.99998H0.99997V2.00001ZM-1.52588e-05 4.00002H0.99997V4.99999H-1.52588e-05V4.00002ZM0.99997 7H-1.52588e-05V7.99998H0.99997V7ZM-1.52588e-05 9.00001H0.99997V9.99999H-1.52588e-05V9.00001ZM0.99997 11H-1.52588e-05V12H0.99997V11ZM3 11H2.00002V12H3V11ZM3 -3.8147e-06H2.00002V1.00002H3V-3.8147e-06Z" fill="#8F181A"/>
</g>
<rect width="16" height="12" fill="url(#paint0_linear_14655_23428)" style="mix-blend-mode:overlay"/>
</g>
<defs>
<linearGradient id="paint0_linear_14655_23428" x1="8" y1="0" x2="8" y2="12" gradientUnits="userSpaceOnUse">
<stop stop-color="white" stop-opacity="0.7"/>
<stop offset="1" stop-opacity="0.3"/>
</linearGradient>
<clipPath id="clip0_14655_23428">
<rect width="16" height="12" rx="1" fill="white"/>
</clipPath>
</defs>
</svg>
