<svg width="16" height="12" viewBox="0 0 16 12" fill="none" xmlns="http://www.w3.org/2000/svg">
<g clip-path="url(#clip0_14655_23478)">
<mask id="mask0_14655_23478" style="mask-type:alpha" maskUnits="userSpaceOnUse" x="0" y="0" width="16" height="12">
<rect width="16" height="12" fill="white"/>
</mask>
<g mask="url(#mask0_14655_23478)">
<path fill-rule="evenodd" clip-rule="evenodd" d="M0 0H16V3H0V0Z" fill="#3D58DB"/>
<path fill-rule="evenodd" clip-rule="evenodd" d="M0 3H16V6H0V3Z" fill="#F7FCFF"/>
<path fill-rule="evenodd" clip-rule="evenodd" d="M0 6H16V9H0V6Z" fill="#73BE4A"/>
<path fill-rule="evenodd" clip-rule="evenodd" d="M0 9H16V12H0V9Z" fill="#FFD018"/>
<path fill-rule="evenodd" clip-rule="evenodd" d="M2.26473 2.70805L1.05246 3.54891L1.43983 2.10873L0.549896 1.18874L1.75491 1.13899L2.26473 -0.285133L2.77455 1.13899H3.97752L3.08964 2.10873L3.5343 3.4639L2.26473 2.70805Z" fill="#FECA00"/>
<path fill-rule="evenodd" clip-rule="evenodd" d="M6 0H10V12H6V0Z" fill="#E11C1B"/>
</g>
<rect width="16" height="12" fill="url(#paint0_linear_14655_23478)" style="mix-blend-mode:overlay"/>
</g>
<defs>
<linearGradient id="paint0_linear_14655_23478" x1="8" y1="0" x2="8" y2="12" gradientUnits="userSpaceOnUse">
<stop stop-color="white" stop-opacity="0.7"/>
<stop offset="1" stop-opacity="0.3"/>
</linearGradient>
<clipPath id="clip0_14655_23478">
<rect width="16" height="12" rx="1" fill="white"/>
</clipPath>
</defs>
</svg>
