<svg width="16" height="12" viewBox="0 0 16 12" fill="none" xmlns="http://www.w3.org/2000/svg">
<g clip-path="url(#clip0_14655_23348)">
<mask id="mask0_14655_23348" style="mask-type:alpha" maskUnits="userSpaceOnUse" x="0" y="0" width="16" height="12">
<rect width="16" height="12" fill="white"/>
</mask>
<g mask="url(#mask0_14655_23348)">
<path fill-rule="evenodd" clip-rule="evenodd" d="M0 0V12H16V0H0Z" fill="#73BE4A"/>
<mask id="mask1_14655_23348" style="mask-type:alpha" maskUnits="userSpaceOnUse" x="0" y="0" width="16" height="12">
<path fill-rule="evenodd" clip-rule="evenodd" d="M0 0V12H16V0H0Z" fill="white"/>
</mask>
<g mask="url(#mask1_14655_23348)">
<path fill-rule="evenodd" clip-rule="evenodd" d="M0 -1V6H16V-1H0Z" fill="#6699FF"/>
</g>
<path fill-rule="evenodd" clip-rule="evenodd" d="M0 0V12L9 6L0 0Z" fill="white"/>
<mask id="mask2_14655_23348" style="mask-type:alpha" maskUnits="userSpaceOnUse" x="0" y="0" width="9" height="12">
<path fill-rule="evenodd" clip-rule="evenodd" d="M0 0V12L9 6L0 0Z" fill="white"/>
</mask>
<g mask="url(#mask2_14655_23348)">
<path fill-rule="evenodd" clip-rule="evenodd" d="M3.5012 6.94712L2.25408 7.7L2.53854 6.23083L1.5 5.1313L2.90624 5.07185L3.5012 3.7L4.09615 5.07185H5.5L4.46385 6.23083L4.77579 7.7L3.5012 6.94712Z" fill="#E31D1C"/>
</g>
</g>
<rect width="16" height="12" fill="url(#paint0_linear_14655_23348)" style="mix-blend-mode:overlay"/>
</g>
<defs>
<linearGradient id="paint0_linear_14655_23348" x1="8" y1="0" x2="8" y2="12" gradientUnits="userSpaceOnUse">
<stop stop-color="white" stop-opacity="0.7"/>
<stop offset="1" stop-opacity="0.3"/>
</linearGradient>
<clipPath id="clip0_14655_23348">
<rect width="16" height="12" rx="1" fill="white"/>
</clipPath>
</defs>
</svg>
