<svg width="16" height="12" viewBox="0 0 16 12" fill="none" xmlns="http://www.w3.org/2000/svg">
<g clip-path="url(#clip0_14655_23559)">
<mask id="mask0_14655_23559" style="mask-type:alpha" maskUnits="userSpaceOnUse" x="0" y="0" width="16" height="12">
<rect width="16" height="12" fill="white"/>
</mask>
<g mask="url(#mask0_14655_23559)">
<path fill-rule="evenodd" clip-rule="evenodd" d="M8 0H16V12H8V0Z" fill="#F7FCFF"/>
<path fill-rule="evenodd" clip-rule="evenodd" d="M0 0H8V12H0V0Z" fill="#36A400"/>
<path fill-rule="evenodd" clip-rule="evenodd" d="M7.99998 7.99895C6.76988 7.76774 6.49392 6.69932 6.49392 5.90434C6.49392 5.10937 6.95034 4.13485 7.99998 3.95079C9.04963 3.76672 10.5021 4.5031 10.5021 4.5031C10.5021 4.5031 9.16302 3.00886 7.76133 3.00886C6.35964 3.00886 5.02057 4.06063 5.02057 5.90434C5.02057 7.74805 5.98115 8.95918 7.76133 8.95918C9.54151 8.95918 10.4205 7.08025 10.4205 7.08025C10.4205 7.08025 9.23009 8.23016 7.99998 7.99895ZM8.4678 5.27837L7.56876 5.27186L8.44439 5.89584L8.13802 6.90329L9.04963 6.35293L10.0805 6.92896L9.53679 5.90434L10.368 5.27186L9.51672 5.27087L9.01454 4.38557L8.4678 5.27837Z" fill="#FF0000"/>
</g>
<rect width="16" height="12" fill="url(#paint0_linear_14655_23559)" style="mix-blend-mode:overlay"/>
</g>
<defs>
<linearGradient id="paint0_linear_14655_23559" x1="8" y1="0" x2="8" y2="12" gradientUnits="userSpaceOnUse">
<stop stop-color="white" stop-opacity="0.7"/>
<stop offset="1" stop-opacity="0.3"/>
</linearGradient>
<clipPath id="clip0_14655_23559">
<rect width="16" height="12" rx="1" fill="white"/>
</clipPath>
</defs>
</svg>
