<svg width="16" height="12" viewBox="0 0 16 12" fill="none" xmlns="http://www.w3.org/2000/svg">
<g clip-path="url(#clip0_14655_23350)">
<mask id="mask0_14655_23350" style="mask-type:alpha" maskUnits="userSpaceOnUse" x="0" y="0" width="16" height="12">
<rect width="16" height="12" fill="white"/>
</mask>
<g mask="url(#mask0_14655_23350)">
<path fill-rule="evenodd" clip-rule="evenodd" d="M0 0V12H16V0H0Z" fill="#2E42A5"/>
<mask id="mask1_14655_23350" style="mask-type:alpha" maskUnits="userSpaceOnUse" x="0" y="0" width="16" height="12">
<path fill-rule="evenodd" clip-rule="evenodd" d="M0 0V12H16V0H0Z" fill="white"/>
</mask>
<g mask="url(#mask1_14655_23350)">
<path fill-rule="evenodd" clip-rule="evenodd" d="M0 0V6H16V0H0Z" fill="#FECA00"/>
<path fill-rule="evenodd" clip-rule="evenodd" d="M0 9V12H16V9H0Z" fill="#E31D1C"/>
<path fill-rule="evenodd" clip-rule="evenodd" d="M4.60638 2.89597C4.54617 2.76017 6.86168 2.07298 7.03518 2.07298C7.20868 2.07298 7.42814 2.48447 7.42814 2.48447L8.83633 2.59838C8.83633 2.59838 8.66997 2.07298 8.83633 2.07298C9.00269 2.07298 11.5521 2.95856 11.5521 2.95856C11.5521 2.95856 8.36509 3.34273 8.36509 3.42923C8.36509 3.51573 8.57386 3.99061 8.57386 3.99061L7.98448 4.18374C7.98448 4.18374 8.01909 3.61145 7.92299 3.61145C7.82689 3.61145 7.54161 4.29594 7.54161 4.29594L7.26185 3.42923C7.26185 3.42923 4.66659 3.03177 4.60638 2.89597Z" fill="#7B2900"/>
<path d="M4.61632 5.00898L5.2467 5.15972C4.58715 7.91788 5.19677 9.24062 7.07392 9.36354L7.03157 10.0103C4.67917 9.85626 3.87464 8.11062 4.61632 5.00898Z" fill="#FECA00"/>
<path d="M5.00022 4.63719L5.64058 4.7374C5.1889 7.62376 5.55062 8.92887 6.56445 8.89316L6.58727 9.54091C4.9675 9.59795 4.49225 7.88324 5.00022 4.63719Z" fill="#07138E"/>
<path d="M5.64836 4.37248L6.28871 4.47269C5.83703 7.35905 6.19875 8.66416 7.21259 8.62845L7.2354 9.2762C5.61564 9.33324 5.14039 7.61853 5.64836 4.37248Z" fill="#E10001"/>
<path d="M6.85108 9.63672L7.49618 9.57399C7.54929 10.1202 7.50907 10.5912 7.37069 10.9866L6.75891 10.7726C6.86336 10.4741 6.89569 10.0955 6.85108 9.63672Z" fill="#07138E"/>
<path d="M10.7499 5.08435C10.7499 5.08435 11.783 9.73074 8.59973 9.65032" stroke="#FECA00" stroke-width="0.648148"/>
<path d="M10.6812 4.63719L10.0409 4.7374C10.4926 7.62376 10.1308 8.92887 9.117 8.89316L9.09419 9.54091C10.714 9.59795 11.1892 7.88324 10.6812 4.63719Z" fill="#07138E"/>
<path d="M10.0331 4.37248L9.39272 4.47269C9.8444 7.35905 9.48267 8.66416 8.46884 8.62845L8.44603 9.2762C10.0658 9.33324 10.541 7.61853 10.0331 4.37248Z" fill="#E10001"/>
<path d="M8.70429 9.64031L8.05993 9.5704C8.00581 10.0692 8.04699 10.5013 8.18906 10.8651L8.79282 10.6294C8.69206 10.3713 8.66069 10.0422 8.70429 9.64031Z" fill="#07138E"/>
<path fill-rule="evenodd" clip-rule="evenodd" d="M6.93332 8.75H8.87776V9.67647H6.93332V8.75Z" fill="#908F89"/>
<path d="M7.90553 9C8.45376 9 8.92729 8.69098 9.25417 8.23709C9.58131 7.78283 9.7759 7.16787 9.7759 6.5C9.7759 5.83213 9.58131 5.21717 9.25417 4.76291C8.92729 4.30902 8.45376 4 7.90553 4C7.3573 4 6.88376 4.30902 6.55688 4.76291C6.22974 5.21717 6.03516 5.83213 6.03516 6.5C6.03516 7.16787 6.22974 7.78283 6.55688 8.23709C6.88376 8.69098 7.3573 9 7.90553 9Z" stroke="#FEE901" stroke-width="0.5"/>
<mask id="mask2_14655_23350" style="mask-type:alpha" maskUnits="userSpaceOnUse" x="5" y="3" width="6" height="7">
<path d="M7.90553 9C8.45376 9 8.92729 8.69098 9.25417 8.23709C9.58131 7.78283 9.7759 7.16787 9.7759 6.5C9.7759 5.83213 9.58131 5.21717 9.25417 4.76291C8.92729 4.30902 8.45376 4 7.90553 4C7.3573 4 6.88376 4.30902 6.55688 4.76291C6.22974 5.21717 6.03516 5.83213 6.03516 6.5C6.03516 7.16787 6.22974 7.78283 6.55688 8.23709C6.88376 8.69098 7.3573 9 7.90553 9Z" fill="white" stroke="white" stroke-width="0.5"/>
</mask>
<g mask="url(#mask2_14655_23350)">
<path fill-rule="evenodd" clip-rule="evenodd" d="M9.07905 7.70251C9.07905 7.70251 8.29131 7.27385 8.06522 7.12105C7.83914 6.96825 7.96965 6.62736 7.58026 6.71847C7.19086 6.80958 6.87803 6.96825 6.87803 7.40324C6.87803 7.83823 6.57231 8.09648 6.46812 7.79928C6.36393 7.50208 5.874 6.11234 6.46812 6.11234C7.06224 6.11234 8.45096 6.42401 8.85976 6.42401C9.26855 6.42401 9.50653 6.63612 9.50653 7.01968C9.50653 7.53559 9.07905 7.70251 9.07905 7.70251Z" fill="#8DDD61"/>
<path fill-rule="evenodd" clip-rule="evenodd" d="M7.90553 5.44118C8.08451 5.44118 8.2296 5.29303 8.2296 5.11029C8.2296 4.92755 8.08451 4.77941 7.90553 4.77941C7.72654 4.77941 7.58145 4.92755 7.58145 5.11029C7.58145 5.29303 7.72654 5.44118 7.90553 5.44118Z" fill="#FEE901"/>
<path fill-rule="evenodd" clip-rule="evenodd" d="M6.8347 5.47026C6.8347 5.47026 7.21168 5.37908 7.73257 5.7301C8.25346 6.08113 9.51637 6.28101 9.51637 6.00556C9.51637 5.7301 9.51637 6.54213 9.51637 6.54213C9.51637 6.54213 6.71411 6.36765 6.56419 6.54213C6.41427 6.71661 6.39931 5.56777 6.56419 5.47026C6.72907 5.37275 6.8347 5.47026 6.8347 5.47026Z" fill="#F7FCFF"/>
</g>
</g>
</g>
<rect width="16" height="12" fill="url(#paint0_linear_14655_23350)" style="mix-blend-mode:overlay"/>
</g>
<defs>
<linearGradient id="paint0_linear_14655_23350" x1="8" y1="0" x2="8" y2="12" gradientUnits="userSpaceOnUse">
<stop stop-color="white" stop-opacity="0.7"/>
<stop offset="1" stop-opacity="0.3"/>
</linearGradient>
<clipPath id="clip0_14655_23350">
<rect width="16" height="12" rx="1" fill="white"/>
</clipPath>
</defs>
</svg>
