<svg width="16" height="12" viewBox="0 0 16 12" fill="none" xmlns="http://www.w3.org/2000/svg">
<g clip-path="url(#clip0_14655_23379)">
<mask id="mask0_14655_23379" style="mask-type:alpha" maskUnits="userSpaceOnUse" x="0" y="0" width="16" height="12">
<rect width="16" height="12" fill="white"/>
</mask>
<g mask="url(#mask0_14655_23379)">
<path fill-rule="evenodd" clip-rule="evenodd" d="M0 0V12H16V0H0Z" fill="#F7FCFF"/>
<mask id="mask1_14655_23379" style="mask-type:alpha" maskUnits="userSpaceOnUse" x="0" y="0" width="16" height="12">
<path fill-rule="evenodd" clip-rule="evenodd" d="M0 0V12H16V0H0Z" fill="white"/>
</mask>
<g mask="url(#mask1_14655_23379)">
<path fill-rule="evenodd" clip-rule="evenodd" d="M0 0V4H16V0H0Z" fill="#BF2714"/>
<path fill-rule="evenodd" clip-rule="evenodd" d="M0 8V12H16V8H0Z" fill="#272727"/>
<path d="M6.13017 5.11012L6.62964 5.13302L6.50427 7.86792L6.00479 7.84502L6.13017 5.11012Z" fill="#C09302"/>
<path d="M6.65205 5.27988L7.15125 5.3081L7.02588 7.52576L6.52667 7.49754L6.65205 5.27988Z" fill="#C09302"/>
<path d="M7.17423 5.44595L7.67256 5.48684L7.54718 7.01485L7.04886 6.97396L7.17423 5.44595Z" fill="#C09302"/>
<path d="M9.86983 5.11012L9.37036 5.13302L9.49573 7.86792L9.99521 7.84502L9.86983 5.11012Z" fill="#C09302"/>
<path d="M9.34795 5.27988L8.84875 5.3081L8.97412 7.52576L9.47333 7.49754L9.34795 5.27988Z" fill="#C09302"/>
<path d="M8.82577 5.44595L8.32744 5.48684L8.45282 7.01485L8.95114 6.97396L8.82577 5.44595Z" fill="#C09302"/>
<path d="M7.98667 7.66335L7.4993 7.55168L7.70559 6.65133L8.19296 6.76299L7.98667 7.66335Z" fill="#C09302"/>
<path d="M8.35977 7.66335L8.84714 7.55168L8.64085 6.65133L8.15348 6.76299L8.35977 7.66335Z" fill="#C09302"/>
<path d="M8.23608 7.6551H7.73608V6.77113H8.23608V7.6551Z" fill="#C09302"/>
<path d="M7.31738 5.45663L7.81723 5.46889L7.78803 6.65934L7.28818 6.64708L7.31738 5.45663Z" fill="#C09302"/>
<path d="M8.18695 5.45663L8.6868 5.46889L8.65759 6.65934L8.15775 6.64708L8.18695 5.45663Z" fill="#C09302"/>
<path d="M6.66898 7.96143L6.79883 7.47858C7.32935 7.62126 7.73671 7.69182 8.01448 7.69182C8.29226 7.69182 8.69961 7.62126 9.23014 7.47858L9.35999 7.96143C8.7908 8.1145 8.34443 8.19182 8.01448 8.19182C7.68453 8.19182 7.23817 8.1145 6.66898 7.96143Z" fill="#C09302"/>
<path d="M6.14117 5.11136C6.10783 4.78106 6.30115 4.55747 6.62878 4.58598C6.73651 4.59536 6.85751 4.62723 7.01867 4.68191C7.06575 4.69806 7.06575 4.69806 7.11151 4.71426C7.33306 4.79306 7.39322 4.81331 7.4057 4.81598C7.35661 4.80486 7.5012 4.54348 7.53436 4.49942C7.53829 4.5274 7.52164 4.52342 7.48168 4.51542L7.03066 4.42515L7.35171 4.09578C7.46394 3.98065 7.61338 3.92355 7.78392 3.92355C7.80161 3.92355 7.8181 3.92273 7.87228 3.9194C7.91235 3.91696 7.91235 3.91696 7.9574 3.9151C8.26938 3.90499 8.49311 3.99321 8.49311 4.31404C8.49311 4.42882 8.50761 4.61339 8.53154 4.75342C8.53959 4.80052 8.55514 4.84461 8.50928 4.86397C8.51117 4.84726 8.62045 4.80414 8.79037 4.73308L8.81077 4.72455C9.30448 4.51848 9.36217 4.49936 9.52132 4.59608C9.62738 4.66054 9.72836 4.77648 9.84151 4.94933L9.42317 5.22318C9.35019 5.11169 9.29207 5.04404 9.26439 5.02514C9.32729 5.06884 9.11544 5.13919 9.00336 5.18597L8.98328 5.19436C8.59889 5.35512 8.54822 5.3743 8.4383 5.3743C8.13921 5.3743 8.03181 5.06792 8.00241 4.62914C7.91013 4.93293 7.63479 5.31631 7.40791 5.31631C7.30858 5.31631 7.35634 5.33202 6.94396 5.18535C6.90075 5.17006 6.90075 5.17006 6.85803 5.1554C6.73309 5.11301 6.64297 5.08924 6.58611 5.08416C6.58846 5.08148 6.59683 5.07247 6.60622 5.06443L6.14117 5.11136Z" fill="#C09302"/>
</g>
</g>
<rect width="16" height="12" fill="url(#paint0_linear_14655_23379)" style="mix-blend-mode:overlay"/>
</g>
<defs>
<linearGradient id="paint0_linear_14655_23379" x1="8" y1="0" x2="8" y2="12" gradientUnits="userSpaceOnUse">
<stop stop-color="white" stop-opacity="0.7"/>
<stop offset="1" stop-opacity="0.3"/>
</linearGradient>
<clipPath id="clip0_14655_23379">
<rect width="16" height="12" rx="1" fill="white"/>
</clipPath>
</defs>
</svg>
