<svg width="16" height="12" viewBox="0 0 16 12" fill="none" xmlns="http://www.w3.org/2000/svg">
<g clip-path="url(#clip0_14655_23354)">
<mask id="mask0_14655_23354" style="mask-type:alpha" maskUnits="userSpaceOnUse" x="0" y="0" width="16" height="12">
<rect width="16" height="12" fill="white"/>
</mask>
<g mask="url(#mask0_14655_23354)">
<path fill-rule="evenodd" clip-rule="evenodd" d="M0 0V12H16V0H0Z" fill="#FFB400"/>
<mask id="mask1_14655_23354" style="mask-type:alpha" maskUnits="userSpaceOnUse" x="0" y="0" width="16" height="12">
<path fill-rule="evenodd" clip-rule="evenodd" d="M0 0V12H16V0H0Z" fill="white"/>
</mask>
<g mask="url(#mask1_14655_23354)">
<path fill-rule="evenodd" clip-rule="evenodd" d="M0 0V3H16V0H0Z" fill="#C51918"/>
<path fill-rule="evenodd" clip-rule="evenodd" d="M0 9V12H16V9H0Z" fill="#C51918"/>
<rect x="2.50403" y="5.136" width="0.56" height="2.912" fill="#F1F9FF"/>
<path fill-rule="evenodd" clip-rule="evenodd" d="M3.28803 4.632H2.28003V4.912H2.44803V5.136H3.12003V4.912H3.28803V4.632Z" fill="#C88A02"/>
<path fill-rule="evenodd" clip-rule="evenodd" d="M3.12003 8.216H3.28803V8.496H2.28003V8.216H2.44803V7.992H3.12003V8.216Z" fill="#C88A02"/>
<path fill-rule="evenodd" clip-rule="evenodd" d="M2.78403 4.68801C2.90589 4.68801 2.91828 4.64212 2.99018 4.57358C3.04601 4.52036 3.17603 4.45436 3.17603 4.38001C3.17603 4.2099 3.00052 4.07201 2.78403 4.07201C2.56753 4.07201 2.39203 4.2099 2.39203 4.38001C2.39203 4.46284 2.48157 4.51823 2.54927 4.57358C2.6206 4.6319 2.67296 4.68801 2.78403 4.68801Z" fill="#AD1619"/>
<path fill-rule="evenodd" clip-rule="evenodd" d="M2.28003 8.496H3.28803V8.944C3.28803 8.944 3.16203 8.888 3.03603 8.888C2.91003 8.888 2.78403 8.944 2.78403 8.944C2.78403 8.944 2.65803 8.888 2.53203 8.888C2.40603 8.888 2.28003 8.944 2.28003 8.944V8.496Z" fill="#005BBF"/>
<mask id="mask2_14655_23354" style="mask-type:alpha" maskUnits="userSpaceOnUse" x="2" y="8" width="2" height="1">
<path fill-rule="evenodd" clip-rule="evenodd" d="M2.28003 8.496H3.28803V8.944C3.28803 8.944 3.16203 8.888 3.03603 8.888C2.91003 8.888 2.78403 8.944 2.78403 8.944C2.78403 8.944 2.65803 8.888 2.53203 8.888C2.40603 8.888 2.28003 8.944 2.28003 8.944V8.496Z" fill="white"/>
</mask>
<g mask="url(#mask2_14655_23354)">
</g>
<rect x="7.992" y="5.136" width="0.56" height="2.912" fill="#F1F9FF"/>
<path fill-rule="evenodd" clip-rule="evenodd" d="M8.77601 4.632H7.76801V4.912H7.93601V5.136H8.60801V4.912H8.77601V4.632Z" fill="#C88A02"/>
<path fill-rule="evenodd" clip-rule="evenodd" d="M8.60801 8.216H8.77601V8.496H7.76801V8.216H7.93601V7.992H8.60801V8.216Z" fill="#C88A02"/>
<path fill-rule="evenodd" clip-rule="evenodd" d="M8.272 4.68801C8.39387 4.68801 8.40626 4.64212 8.47815 4.57358C8.53398 4.52036 8.664 4.45436 8.664 4.38001C8.664 4.2099 8.4885 4.07201 8.272 4.07201C8.05551 4.07201 7.88 4.2099 7.88 4.38001C7.88 4.46284 7.96954 4.51823 8.03725 4.57358C8.10857 4.6319 8.16093 4.68801 8.272 4.68801Z" fill="#AD1619"/>
<path fill-rule="evenodd" clip-rule="evenodd" d="M7.76801 8.496H8.77601V8.944C8.77601 8.944 8.65001 8.888 8.52401 8.888C8.39801 8.888 8.27201 8.944 8.27201 8.944C8.27201 8.944 8.14601 8.888 8.02001 8.888C7.89401 8.888 7.76801 8.944 7.76801 8.944V8.496Z" fill="#005BBF"/>
<mask id="mask3_14655_23354" style="mask-type:alpha" maskUnits="userSpaceOnUse" x="7" y="8" width="2" height="1">
<path fill-rule="evenodd" clip-rule="evenodd" d="M7.76801 8.496H8.77601V8.944C8.77601 8.944 8.65001 8.888 8.52401 8.888C8.39801 8.888 8.27201 8.944 8.27201 8.944C8.27201 8.944 8.14601 8.888 8.02001 8.888C7.89401 8.888 7.76801 8.944 7.76801 8.944V8.496Z" fill="white"/>
</mask>
<g mask="url(#mask3_14655_23354)">
</g>
<path fill-rule="evenodd" clip-rule="evenodd" d="M2.494 7.83997C2.59496 7.71757 2.65142 7.60621 2.65142 7.48794C2.65142 7.41337 2.62923 7.34896 2.59035 7.29634L2.59692 7.29339C2.59632 7.29366 2.70768 7.24512 2.74645 7.22653C2.81853 7.19197 2.88203 7.15536 2.94394 7.11034C2.98346 7.08159 3.03642 7.05029 3.11715 7.00693L3.2135 6.95571C3.25274 6.93477 3.28196 6.91873 3.3091 6.90298C3.39369 6.85392 3.44958 6.81337 3.49233 6.75915C3.59359 6.63075 3.57257 6.45669 3.43067 6.36008C3.36115 6.31275 3.26734 6.28559 3.12983 6.26421L2.93315 6.23372C2.86734 6.22339 2.80863 6.21375 2.75627 6.2046C3.10055 6.14731 3.59217 6.16837 3.80842 6.28002L4.01395 5.88195C3.57328 5.65442 2.56921 5.67766 2.19415 5.93595C1.91905 6.12541 1.95596 6.41179 2.24219 6.53511C2.36179 6.58664 2.51771 6.62083 2.80623 6.66718C2.75788 6.69523 2.71779 6.72086 2.68044 6.74802C2.64257 6.77556 2.60198 6.79896 2.55276 6.82256C2.52922 6.83385 2.45952 6.86445 2.42756 6.87848L2.42754 6.87849L2.42754 6.8785L2.41148 6.88557C2.17834 6.99158 2.06519 7.13823 2.099 7.40296L2.1173 7.54627L2.15014 7.55635L2.494 7.83997ZM2.20581 7.46963L2.2051 7.47169L2.20564 7.47023L2.20581 7.46963ZM8.353 7.48794C8.353 7.60621 8.40946 7.71757 8.51042 7.83997L8.85429 7.55635L8.88712 7.54627L8.90542 7.40296C8.93923 7.13823 8.82608 6.99158 8.59294 6.88557L8.57688 6.87849C8.54493 6.86447 8.47521 6.83385 8.45166 6.82256C8.40244 6.79896 8.36186 6.77556 8.32398 6.74802C8.28663 6.72086 8.24654 6.69523 8.19819 6.66718C8.48672 6.62083 8.64263 6.58664 8.76223 6.53511C9.04846 6.41179 9.08537 6.12541 8.81027 5.93595C8.43521 5.67766 7.43114 5.65442 6.99047 5.88195L7.196 6.28002C7.41225 6.16837 7.90387 6.14731 8.24815 6.2046C8.1958 6.21375 8.13708 6.22339 8.07127 6.23372L7.87459 6.26421C7.73708 6.28559 7.64327 6.31275 7.57375 6.36008C7.43185 6.45669 7.41083 6.63075 7.51209 6.75915C7.55484 6.81337 7.61074 6.85392 7.69532 6.90298C7.72246 6.91873 7.75168 6.93477 7.79092 6.95571L7.88727 7.00693C7.968 7.05029 8.02096 7.08159 8.06048 7.11034C8.1224 7.15536 8.18589 7.19197 8.25797 7.22653C8.29674 7.24512 8.4081 7.29366 8.4075 7.29339L8.41407 7.29634C8.37519 7.34896 8.353 7.41337 8.353 7.48794Z" fill="#AD1619"/>
<path d="M2.96171 6.20001L3.127 6.23421V6.48058C2.95095 6.62104 2.50403 6.85779 2.50403 6.85779V6.20001H2.96171Z" fill="#F1F9FF"/>
<path d="M8.15731 6.20001L7.99202 6.23421V6.48058C8.16807 6.62104 8.61499 6.85779 8.61499 6.85779V6.20001H8.15731Z" fill="#F1F9FF"/>
<path fill-rule="evenodd" clip-rule="evenodd" d="M7.38801 3.60298V3.52099C7.09997 3.31427 6.79833 3.21091 6.4831 3.21091C6.18088 3.07717 5.87499 3.02526 5.5654 3.05517C5.56549 3.05421 5.56553 3.05373 5.56553 3.05373C5.10004 3.00818 4.63093 3.21091 4.63093 3.21091C4.15807 3.21091 3.72601 3.52099 3.72601 3.52099V3.60298L4.29083 4.17025C4.29083 4.17025 4.44975 4.71605 5.56264 4.58799C5.56303 4.58886 5.56323 4.58931 5.56323 4.58931C5.56323 4.58931 6.30041 4.56919 6.3522 4.55196C6.37276 4.54512 6.39407 4.5389 6.41585 4.53254C6.56024 4.49038 6.72508 4.44226 6.82319 4.17025L7.38801 3.60298ZM5.56287 3.0845C5.56054 3.11201 5.55685 3.15681 5.55248 3.21408C5.55802 3.17304 5.56174 3.12998 5.56287 3.0845Z" fill="#AD1619"/>
<path fill-rule="evenodd" clip-rule="evenodd" d="M3.75989 3.69922L3.79826 3.65843L4.31111 4.14093C4.40846 4.11476 4.93687 3.9801 5.52711 3.97348V3.97322L5.54957 3.97329L5.57202 3.97322V3.97348C6.22597 3.98082 6.80402 4.14532 6.80402 4.14532C6.80402 4.14532 6.79783 4.19839 6.78278 4.26079C6.79871 4.22813 6.81758 4.19183 6.8394 4.15177L6.8448 4.14476L7.36172 3.65843L7.40009 3.69922L6.88644 4.18248C6.8115 4.32049 6.77376 4.41158 6.77376 4.44943C6.77376 4.50716 6.62357 4.54142 6.33044 4.57662C6.1008 4.60419 5.82978 4.62269 5.60809 4.62546V4.62582L5.57999 4.62573L5.55189 4.62582V4.62546C5.3302 4.62269 5.05918 4.60419 4.82954 4.57662C4.53641 4.54142 4.38622 4.50716 4.38622 4.44943C4.38622 4.44227 4.38487 4.4332 4.38217 4.42227C4.35261 4.38463 4.33183 4.32305 4.318 4.2675C4.30502 4.24153 4.2902 4.21316 4.27354 4.18248L3.75989 3.69922ZM6.62653 4.45052C6.66576 4.46888 6.69721 4.45057 6.72208 4.41541C6.71993 4.42512 6.71858 4.4339 6.71804 4.44176C6.71476 4.44391 6.70972 4.4465 6.70311 4.44928C6.68466 4.45703 6.65649 4.46529 6.61985 4.47365C6.54781 4.49009 6.44528 4.50642 6.32376 4.52101C6.08647 4.54951 5.80431 4.56825 5.57999 4.56973C5.35567 4.56825 5.07351 4.54951 4.83622 4.52101C4.7147 4.50642 4.61217 4.49009 4.54014 4.47365C4.50942 4.46665 4.48465 4.45971 4.46658 4.45308L4.47261 4.45052C4.59495 4.39328 5.40389 4.33956 5.54957 4.33029C5.69525 4.33956 6.50419 4.39328 6.62653 4.45052ZM6.7808 4.44026L6.77995 4.44124L6.78046 4.44053L6.7808 4.44026Z" fill="#C88A02"/>
<path fill-rule="evenodd" clip-rule="evenodd" d="M5.55612 2.67354C5.64891 2.67354 5.72412 2.59832 5.72412 2.50554C5.72412 2.41276 5.64891 2.33754 5.55612 2.33754C5.46334 2.33754 5.38812 2.41276 5.38812 2.50554C5.38812 2.59832 5.46334 2.67354 5.55612 2.67354Z" fill="#005BBF"/>
<path fill-rule="evenodd" clip-rule="evenodd" d="M5.49343 2.0383H5.6101V2.112H5.68633V2.22867H5.6101V2.462H5.68633V2.57867H5.41602V2.462H5.49343V2.22867H5.41602V2.112H5.49343V2.0383Z" fill="#C88A02"/>
<rect x="5.47198" y="2.672" width="0.224" height="0.728" fill="#C88A02"/>
<path d="M3.85388 3.64843L3.54626 3.63686C3.6914 2.79807 4.40619 2.38708 5.5484 2.38708C6.69209 2.38708 7.40435 2.79985 7.53857 3.64176L7.12253 3.6854C7.05721 3.2757 6.37098 2.90493 5.55441 2.90493C4.73636 2.90493 3.92531 3.23561 3.85388 3.64843Z" fill="#C88A02"/>
<path opacity="0.3" fill-rule="evenodd" clip-rule="evenodd" d="M3.73602 4.632H7.37602V7.90242C7.37602 7.90242 7.10564 9 5.55602 9C4.00641 9 3.73602 7.87348 3.73602 7.87348V4.632Z" fill="#E1E5E8"/>
<mask id="mask4_14655_23354" style="mask-type:alpha" maskUnits="userSpaceOnUse" x="3" y="4" width="5" height="5">
<path fill-rule="evenodd" clip-rule="evenodd" d="M3.73602 4.632H7.37602V7.90242C7.37602 7.90242 7.10564 9 5.55602 9C4.00641 9 3.73602 7.87348 3.73602 7.87348V4.632Z" fill="white"/>
</mask>
<g mask="url(#mask4_14655_23354)">
<rect x="3.73602" y="6.64801" width="1.848" height="2.184" fill="#FFC034"/>
<rect x="3.73602" y="4.576" width="1.848" height="2.128" fill="#AD1619"/>
<rect x="5.52802" y="6.59201" width="1.848" height="2.128" fill="#AD1619"/>
<rect x="5.52802" y="4.632" width="1.96" height="2.072" fill="#F1F9FF"/>
<path fill-rule="evenodd" clip-rule="evenodd" d="M6.74139 8.72135C6.74139 8.72135 5.55529 8.8146 5.55529 8.04962C5.55529 8.04962 5.54398 8.72135 4.30548 8.72135V9.32526H6.74139V8.72135Z" fill="#F1F9FF"/>
<path fill-rule="evenodd" clip-rule="evenodd" d="M5.55605 7.096C5.78801 7.096 5.97605 6.89542 5.97605 6.648C5.97605 6.40057 5.78801 6.2 5.55605 6.2C5.32409 6.2 5.13605 6.40057 5.13605 6.648C5.13605 6.89542 5.32409 7.096 5.55605 7.096Z" fill="#005BBF" stroke="#AD1619" stroke-width="0.583333"/>
</g>
<path fill-rule="evenodd" clip-rule="evenodd" d="M4.5 6C4.77614 6 5 5.77614 5 5.5C5 5.22386 4.77614 5 4.5 5C4.22386 5 4 5.22386 4 5.5C4 5.77614 4.22386 6 4.5 6Z" fill="#C88A02"/>
<path fill-rule="evenodd" clip-rule="evenodd" d="M6.5 6C6.77614 6 7 5.77614 7 5.5C7 5.22386 6.77614 5 6.5 5C6.22386 5 6 5.22386 6 5.5C6 5.77614 6.22386 6 6.5 6Z" fill="#C37C9C"/>
<path fill-rule="evenodd" clip-rule="evenodd" d="M6.5 8C6.77614 8 7 7.77614 7 7.5C7 7.22386 6.77614 7 6.5 7C6.22386 7 6 7.22386 6 7.5C6 7.77614 6.22386 8 6.5 8Z" fill="#FFC034"/>
<path d="M4.5 8C4.77614 8 5 7.77614 5 7.5C5 7.22386 4.77614 7 4.5 7C4.22386 7 4 7.22386 4 7.5C4 7.77614 4.22386 8 4.5 8Z" fill="#AD1619"/>
</g>
</g>
<rect width="16" height="12" fill="url(#paint0_linear_14655_23354)" style="mix-blend-mode:overlay"/>
</g>
<defs>
<linearGradient id="paint0_linear_14655_23354" x1="8" y1="0" x2="8" y2="12" gradientUnits="userSpaceOnUse">
<stop stop-color="white" stop-opacity="0.7"/>
<stop offset="1" stop-opacity="0.3"/>
</linearGradient>
<clipPath id="clip0_14655_23354">
<rect width="16" height="12" rx="1" fill="white"/>
</clipPath>
</defs>
</svg>
