<svg width="16" height="12" viewBox="0 0 16 12" fill="none" xmlns="http://www.w3.org/2000/svg">
<g clip-path="url(#clip0_14655_23389)">
<mask id="mask0_14655_23389" style="mask-type:alpha" maskUnits="userSpaceOnUse" x="0" y="0" width="16" height="12">
<rect width="16" height="12" fill="white"/>
</mask>
<g mask="url(#mask0_14655_23389)">
<path fill-rule="evenodd" clip-rule="evenodd" d="M0 0V12H16V0H0Z" fill="#67BFE5"/>
<mask id="mask1_14655_23389" style="mask-type:alpha" maskUnits="userSpaceOnUse" x="0" y="0" width="16" height="12">
<path fill-rule="evenodd" clip-rule="evenodd" d="M0 0V12H16V0H0Z" fill="white"/>
</mask>
<g mask="url(#mask1_14655_23389)">
<mask id="mask2_14655_23389" style="mask-type:alpha" maskUnits="userSpaceOnUse" x="0" y="0" width="9" height="7">
<rect width="9" height="7" fill="white"/>
</mask>
<g mask="url(#mask2_14655_23389)">
<path d="M-1.00214 6.49991L0.978339 7.36852L9.04494 0.944376L10.0896 -0.34639L7.97176 -0.636702L4.68159 2.13164L2.03334 3.99686L-1.00214 6.49991Z" fill="#F7FCFF"/>
<path d="M-0.731018 7.10847L0.277943 7.61253L9.71445 -0.466324H8.29775L-0.731018 7.10847Z" fill="#F50100"/>
<path d="M10.0021 6.49991L8.02166 7.36852L-0.0449371 0.944376L-1.08959 -0.34639L1.02824 -0.636702L4.31841 2.13164L6.96666 3.99686L10.0021 6.49991Z" fill="#F7FCFF"/>
<path d="M9.93457 6.93667L8.92561 7.44073L4.90745 3.98176L3.71615 3.59529L-1.1901 -0.341973H0.226597L5.13009 3.50184L6.43256 3.96525L9.93457 6.93667Z" fill="#F50100"/>
<mask id="path-10-outside-1_14655_23389" maskUnits="userSpaceOnUse" x="-1" y="-1" width="11" height="9" fill="black">
<rect fill="white" x="-1" y="-1" width="11" height="9"/>
<path fill-rule="evenodd" clip-rule="evenodd" d="M4.99226 0H3.99226V3H0V4H3.99226V7H4.99226V4H9V3H4.99226V0Z"/>
</mask>
<path fill-rule="evenodd" clip-rule="evenodd" d="M4.99226 0H3.99226V3H0V4H3.99226V7H4.99226V4H9V3H4.99226V0Z" fill="#F50100"/>
<path d="M3.99226 0V-0.75H3.24226V0H3.99226ZM4.99226 0H5.74226V-0.75H4.99226V0ZM3.99226 3V3.75H4.74226V3H3.99226ZM0 3V2.25H-0.75V3H0ZM0 4H-0.75V4.75H0V4ZM3.99226 4H4.74226V3.25H3.99226V4ZM3.99226 7H3.24226V7.75H3.99226V7ZM4.99226 7V7.75H5.74226V7H4.99226ZM4.99226 4V3.25H4.24226V4H4.99226ZM9 4V4.75H9.75V4H9ZM9 3H9.75V2.25H9V3ZM4.99226 3H4.24226V3.75H4.99226V3ZM3.99226 0.75H4.99226V-0.75H3.99226V0.75ZM4.74226 3V0H3.24226V3H4.74226ZM0 3.75H3.99226V2.25H0V3.75ZM0.75 4V3H-0.75V4H0.75ZM3.99226 3.25H0V4.75H3.99226V3.25ZM4.74226 7V4H3.24226V7H4.74226ZM4.99226 6.25H3.99226V7.75H4.99226V6.25ZM4.24226 4V7H5.74226V4H4.24226ZM9 3.25H4.99226V4.75H9V3.25ZM8.25 3V4H9.75V3H8.25ZM4.99226 3.75H9V2.25H4.99226V3.75ZM4.24226 0V3H5.74226V0H4.24226Z" fill="#F7FCFF" mask="url(#path-10-outside-1_14655_23389)"/>
</g>
<path fill-rule="evenodd" clip-rule="evenodd" d="M10 5H14.8276V9.16667C14.8276 9.16667 14.4228 11 12.4138 11C10.4048 11 10 9.16667 10 9.16667V5Z" fill="#F7FCFF"/>
<mask id="mask3_14655_23389" style="mask-type:alpha" maskUnits="userSpaceOnUse" x="10" y="5" width="5" height="6">
<path fill-rule="evenodd" clip-rule="evenodd" d="M10 5H14.8276V9.16667C14.8276 9.16667 14.4228 11 12.4138 11C10.4048 11 10 9.16667 10 9.16667V5Z" fill="white"/>
</mask>
<g mask="url(#mask3_14655_23389)">
<rect x="10" y="5" width="4.82759" height="1.5" fill="#C3352C"/>
<rect x="12.069" y="6.33333" width="0.689655" height="4.66667" fill="#C3352C"/>
<path fill-rule="evenodd" clip-rule="evenodd" d="M10 8.16667H14.8276V8.83334H10V8.16667Z" fill="#C3352C"/>
<path fill-rule="evenodd" clip-rule="evenodd" d="M11.2703 10.3685C11.5606 10.7789 11.7971 10.939 11.9643 10.6972C12.0818 10.5273 12.0939 10.3573 11.9265 10.3241C11.8294 10.2007 11.7609 10.1044 11.7217 10.0373L11.7274 10.032C11.7743 9.9863 11.7761 9.92544 11.7668 9.90274C11.7633 9.87168 11.7866 9.82948 11.9374 9.71415C12.0741 9.60968 12.1347 9.51133 12.0451 9.40299C11.998 9.34606 11.9557 9.33465 11.8223 9.31404L11.7813 9.30767C11.7418 9.30133 11.7131 9.29504 11.695 9.2896L11.6022 9.11179C11.4084 9.10586 11.257 9.14002 11.0913 9.20997C11.02 9.2401 10.9719 9.26058 10.9398 9.27424C10.8909 9.29504 10.8792 9.30006 10.8788 9.29932C10.8787 9.29908 10.8797 9.29826 10.8811 9.29718C10.8849 9.29415 10.8913 9.28907 10.882 9.28907C10.8471 9.28907 10.8092 9.28514 10.7043 9.27181L10.6837 9.2692C10.3819 9.2313 10.3063 9.23248 10.2574 9.37298C10.183 9.58671 10.6235 9.97851 10.8574 10.0256C10.9745 10.0492 11.1147 10.1613 11.2703 10.3685ZM11.5984 10.0743C11.6268 10.0743 11.6487 10.0731 11.6679 10.0679L11.6738 10.0551C11.6581 10.0658 11.6345 10.0743 11.5984 10.0743ZM10.4971 9.48408C10.4909 9.47684 10.4892 9.46749 10.4935 9.45516C10.4926 9.4577 10.4955 9.46318 10.5013 9.47097C10.5071 9.47864 10.5158 9.48854 10.5269 9.50007C10.5135 9.49623 10.5031 9.49117 10.4971 9.48408ZM10.9067 9.7805C10.8229 9.76362 10.6097 9.58627 10.5269 9.50007C10.5486 9.5063 10.5782 9.50932 10.61 9.51257C10.6239 9.514 10.6382 9.51546 10.6525 9.51725L10.6728 9.51981C10.7907 9.53479 10.8319 9.53907 10.882 9.53907C10.9109 9.53907 10.905 9.54904 10.9013 9.55509C10.9002 9.55696 10.8993 9.55846 10.8997 9.55917C10.9014 9.56202 10.9242 9.55235 11.0382 9.50398L11.0382 9.50398L11.1886 9.44028C11.2771 9.4029 11.3579 9.37869 11.4466 9.3678C11.4564 9.40967 11.4808 9.44753 11.5205 9.47833C11.5737 9.51962 11.6338 9.53698 11.7373 9.5538C11.6087 9.65958 11.5442 9.74808 11.5238 9.83439C11.4082 9.87097 11.4187 10.0013 11.4881 10.1315C11.5364 10.2224 11.6278 10.351 11.7638 10.5212L11.8615 10.5682C11.8327 10.5682 11.8166 10.555 11.8043 10.545C11.7889 10.5323 11.7797 10.5247 11.7587 10.555C11.7573 10.5571 11.6663 10.4955 11.4723 10.2213C11.2813 9.96678 11.096 9.8186 10.9067 9.7805ZM11.5164 9.9303C11.5181 9.92885 11.518 9.9269 11.5178 9.92495L11.5178 9.92489L11.5164 9.9303ZM11.5963 9.82433L11.5888 9.82443L11.5923 9.82469C11.5937 9.82447 11.595 9.82437 11.5963 9.82433ZM11.5984 9.8243C11.5977 9.8243 11.597 9.82431 11.5963 9.82433L11.5984 9.8243Z" fill="#979797"/>
<path d="M10.8275 8.05509C10.8275 8.05509 10.589 7.72508 10.589 7.60744" stroke="#964C36" stroke-width="0.5"/>
<path d="M10.6794 7.77141C10.6794 7.77141 10.3744 7.64115 10.3744 7.77141" stroke="#2A8E51" stroke-width="0.5"/>
<path d="M10.6744 7.63443C10.6744 7.63443 10.4599 7.36153 10.2986 7.36153C10.1373 7.36153 10.1412 7.49798 10.1412 7.49798" stroke="#2A8E51" stroke-width="0.5"/>
<path d="M10.552 7.36098C10.552 7.36098 10.4562 6.9146 10.3029 6.9146C10.1496 6.9146 10.1496 7.13779 10.1496 7.13779" stroke="#2A8E51" stroke-width="0.5"/>
<path d="M10.5907 7.36011C10.5907 7.36011 10.548 6.97755 10.7454 6.97755" stroke="#2A8E51" stroke-width="0.5"/>
<path d="M11.1306 7.99056C11.1306 7.99056 11.0193 7.59886 11.0595 7.48831" stroke="#964C36" stroke-width="0.5"/>
<path d="M11.0884 7.67331C11.0884 7.67331 10.8463 7.4466 10.8018 7.569" stroke="#2A8E51" stroke-width="0.5"/>
<path d="M11.1305 7.54289C11.1305 7.54289 11.0223 7.21307 10.8707 7.15791C10.7192 7.10275 10.6761 7.23229 10.6761 7.23229" stroke="#2A8E51" stroke-width="0.5"/>
<path d="M11.109 7.24407C11.109 7.24407 11.1717 6.79187 11.0277 6.73943C10.8836 6.687 10.8073 6.89673 10.8073 6.89673" stroke="#2A8E51" stroke-width="0.5"/>
<path d="M11.1457 7.25649C11.1457 7.25649 11.2364 6.8824 11.4219 6.94992" stroke="#2A8E51" stroke-width="0.5"/>
<path d="M11.376 8.13006C11.376 8.13006 11.5342 7.75484 11.5077 7.64021" stroke="#964C36" stroke-width="0.35"/>
<path d="M11.4565 7.82033C11.4565 7.82033 11.7244 7.6248 11.7537 7.75172" stroke="#2A8E51" stroke-width="0.35"/>
<path d="M11.4306 7.68574C11.4306 7.68574 11.5782 7.37157 11.7353 7.33528C11.8925 7.299 11.9194 7.43283 11.9194 7.43283" stroke="#2A8E51" stroke-width="0.35"/>
<path d="M11.4883 7.39175C11.4883 7.39175 11.4812 6.93528 11.6306 6.90079C11.78 6.8663 11.8302 7.08377 11.8302 7.08377" stroke="#2A8E51" stroke-width="0.35"/>
<path d="M11.4504 7.39962C11.4504 7.39962 11.4059 7.01726 11.2136 7.06167" stroke="#2A8E51" stroke-width="0.35"/>
<path d="M13.349 7.90092C13.349 7.90092 13.47 7.34419 13.8143 7.34419C14.1586 7.34419 14.3127 7.9324 14.3127 7.9324" stroke="#2A8E51" stroke-width="0.35"/>
<path d="M13.0647 7.52083C13.0647 7.52083 13.2501 7.19199 13.862 7.21888C14.4739 7.24576 14.5855 7.52083 14.5855 7.52083" stroke="#2A8E51" stroke-width="0.35"/>
<path d="M12.941 7.10266C12.941 7.10266 13.2772 6.68631 13.7482 7.03922L13.9078 7.10266C13.9078 7.10266 14.0679 6.63083 14.841 7.10266" stroke="#2A8E51" stroke-width="0.35"/>
<path d="M13.8693 8.01848C13.8693 8.01848 13.8938 7.49884 13.9762 7.35611" stroke="#964C36" stroke-width="0.5"/>
<path d="M14.5494 9.15695C14.5494 9.15695 14.2403 9.0116 14.1479 9.15695C14.0554 9.30231 12.9414 10.6379 12.9414 10.6379" stroke="#964C36" stroke-width="0.5"/>
<path fill-rule="evenodd" clip-rule="evenodd" d="M13.4822 9.2976L14.1726 9.78022C14.1726 9.78022 14.4903 9.55355 14.3315 9.42557C14.1726 9.2976 13.7397 9.07196 13.7397 9.07196L13.4822 9.2976Z" fill="#FFF203"/>
<path fill-rule="evenodd" clip-rule="evenodd" d="M13.4583 9.32227C13.4583 9.32227 13.2984 9.48971 13.2984 9.61768C13.2984 9.74566 13.1495 10.0887 13.1495 10.0887C13.1495 10.0887 13.5657 10.3449 13.6522 10.1817C13.7386 10.0185 14.2999 10.1162 14.2009 9.86696C14.1019 9.61768 13.4583 9.32227 13.4583 9.32227Z" fill="#00A651"/>
<path fill-rule="evenodd" clip-rule="evenodd" d="M10.5282 5.59115C10.5282 5.59115 10.8968 5.40198 11.0793 5.59115C11.2618 5.78032 11.4113 5.57548 11.4113 5.46137C11.4113 5.34725 11.7011 4.95552 11.7011 5.27333C11.7011 5.59115 11.6109 5.77059 11.8655 5.77059C12.1202 5.77059 13.2671 5.33158 13.5421 5.46137C13.8171 5.59115 14.0276 5.55887 13.9577 5.37265C13.8878 5.18643 13.7081 5.07005 13.3621 5.17169C13.0161 5.27333 13.0978 5.37265 12.7988 5.37265C12.4998 5.37265 12.167 5.27333 12.167 5.27333C12.167 5.27333 12.2604 5.10634 12.6018 5.22512C12.9432 5.34391 13.4141 5.07801 13.5421 5.07801C13.6702 5.07801 14.0226 5.07005 14.0576 5.17169C14.0925 5.27333 14.3053 5.36661 14.1431 5.46137C13.9809 5.55612 13.7134 5.61548 13.8974 5.73689C14.0815 5.85829 14.5047 5.83489 14.5251 5.96118C14.5455 6.08746 14.7461 6.27605 14.6656 6.27605C14.5851 6.27605 14.4396 6.4539 14.3041 6.39975C14.1686 6.34559 14.1527 6.29804 14.2826 6.25417C14.4125 6.2103 14.4113 6.02581 14.3041 6.02581C14.197 6.02581 14.2493 6.09045 14.0053 6.02581C13.7613 5.96118 13.4385 5.88932 13.4579 6.02581C13.4773 6.16231 13.6361 6.37182 13.3431 6.39975C13.05 6.42767 12.9129 6.53978 12.8558 6.4495C12.7988 6.35922 12.5949 6.23892 12.7552 6.20034C12.9155 6.16177 13.0687 6.33146 13.1265 6.30375C13.1842 6.27605 13.3151 6.26062 13.2055 6.14322C13.0959 6.02581 12.9151 5.9567 13.0827 5.86882C13.2502 5.78094 13.118 5.77914 12.7988 5.96118C12.4796 6.14322 12.302 6.29792 12.0217 6.27605C11.7415 6.25417 11.6365 6.28368 11.5464 6.25417C11.4564 6.22466 11.0177 6.58021 10.8913 6.48998C10.765 6.39975 10.3572 6.36513 10.4306 6.25417C10.504 6.14322 10.6026 6.08609 10.7124 6.14322C10.8221 6.20034 10.9312 6.25747 11.0053 6.20034C11.0793 6.14322 11.2931 5.9472 11.2393 5.90801C11.1855 5.86882 11.2376 5.73689 10.9331 5.73689C10.6286 5.73689 10.5215 5.88392 10.4492 5.79128C10.377 5.69863 10.5282 5.59115 10.5282 5.59115Z" fill="#FFD100"/>
</g>
</g>
</g>
<rect width="16" height="12" fill="url(#paint0_linear_14655_23389)" style="mix-blend-mode:overlay"/>
</g>
<defs>
<linearGradient id="paint0_linear_14655_23389" x1="8" y1="0" x2="8" y2="12" gradientUnits="userSpaceOnUse">
<stop stop-color="white" stop-opacity="0.7"/>
<stop offset="1" stop-opacity="0.3"/>
</linearGradient>
<clipPath id="clip0_14655_23389">
<rect width="16" height="12" rx="1" fill="white"/>
</clipPath>
</defs>
</svg>
