<svg width="16" height="12" viewBox="0 0 16 12" fill="none" xmlns="http://www.w3.org/2000/svg">
<g clip-path="url(#clip0_14655_23489)">
<mask id="mask0_14655_23489" style="mask-type:alpha" maskUnits="userSpaceOnUse" x="0" y="0" width="16" height="12">
<rect width="16" height="12" fill="white"/>
</mask>
<g mask="url(#mask0_14655_23489)">
<path fill-rule="evenodd" clip-rule="evenodd" d="M0 0V12H16V0H0Z" fill="#2E42A5"/>
<mask id="mask1_14655_23489" style="mask-type:alpha" maskUnits="userSpaceOnUse" x="0" y="0" width="16" height="12">
<path fill-rule="evenodd" clip-rule="evenodd" d="M0 0V12H16V0H0Z" fill="white"/>
</mask>
<g mask="url(#mask1_14655_23489)">
<mask id="mask2_14655_23489" style="mask-type:alpha" maskUnits="userSpaceOnUse" x="0" y="0" width="16" height="12">
<rect width="16" height="12" fill="white"/>
</mask>
<g mask="url(#mask2_14655_23489)">
<path d="M-1.78156 11.1427L1.73929 12.6317L16.0799 1.61893L17.9371 -0.593806L14.172 -1.09148L8.32284 3.65425L3.61484 6.85177L-1.78156 11.1427Z" fill="white"/>
<path d="M-1.29956 12.186L0.494147 13.0501L17.2702 -0.799406H14.7516L-1.29956 12.186Z" fill="#F50100"/>
<path d="M17.7816 11.1427L14.2607 12.6317L-0.0798779 1.61893L-1.93704 -0.593806L1.82799 -1.09148L7.67719 3.65425L12.3852 6.85177L17.7816 11.1427Z" fill="white"/>
<path d="M17.6614 11.8914L15.8677 12.7556L8.72433 6.82588L6.60646 6.16337L-2.11576 -0.586231H0.402819L9.12014 6.00316L11.4356 6.79758L17.6614 11.8914Z" fill="#F50100"/>
<mask id="path-10-inside-1_14655_23489" fill="white">
<path fill-rule="evenodd" clip-rule="evenodd" d="M9.88888 -1H6.11111V4H-0.986237V8H6.11111V13H9.88888V8H17.0138V4H9.88888V-1Z"/>
</mask>
<path fill-rule="evenodd" clip-rule="evenodd" d="M9.88888 -1H6.11111V4H-0.986237V8H6.11111V13H9.88888V8H17.0138V4H9.88888V-1Z" fill="#F50100"/>
<path d="M6.11111 -1V-2H5.11111V-1H6.11111ZM9.88888 -1H10.8889V-2H9.88888V-1ZM6.11111 4V5H7.11111V4H6.11111ZM-0.986237 4V3H-1.98624V4H-0.986237ZM-0.986237 8H-1.98624V9H-0.986237V8ZM6.11111 8H7.11111V7H6.11111V8ZM6.11111 13H5.11111V14H6.11111V13ZM9.88888 13V14H10.8889V13H9.88888ZM9.88888 8V7H8.88888V8H9.88888ZM17.0138 8V9H18.0138V8H17.0138ZM17.0138 4H18.0138V3H17.0138V4ZM9.88888 4H8.88888V5H9.88888V4ZM6.11111 0H9.88888V-2H6.11111V0ZM7.11111 4V-1H5.11111V4H7.11111ZM-0.986237 5H6.11111V3H-0.986237V5ZM0.0137634 8V4H-1.98624V8H0.0137634ZM6.11111 7H-0.986237V9H6.11111V7ZM7.11111 13V8H5.11111V13H7.11111ZM9.88888 12H6.11111V14H9.88888V12ZM8.88888 8V13H10.8889V8H8.88888ZM17.0138 7H9.88888V9H17.0138V7ZM16.0138 4V8H18.0138V4H16.0138ZM9.88888 5H17.0138V3H9.88888V5ZM8.88888 -1V4H10.8889V-1H8.88888Z" fill="white" mask="url(#path-10-inside-1_14655_23489)"/>
</g>
</g>
</g>
<rect width="16" height="12" fill="url(#paint0_linear_14655_23489)" style="mix-blend-mode:overlay"/>
</g>
<defs>
<linearGradient id="paint0_linear_14655_23489" x1="8" y1="0" x2="8" y2="12" gradientUnits="userSpaceOnUse">
<stop stop-color="white" stop-opacity="0.7"/>
<stop offset="1" stop-opacity="0.3"/>
</linearGradient>
<clipPath id="clip0_14655_23489">
<rect width="16" height="12" rx="1" fill="white"/>
</clipPath>
</defs>
</svg>
