<svg width="16" height="12" viewBox="0 0 16 12" fill="none" xmlns="http://www.w3.org/2000/svg">
<g clip-path="url(#clip0_14655_23358)">
<mask id="mask0_14655_23358" style="mask-type:alpha" maskUnits="userSpaceOnUse" x="0" y="0" width="16" height="12">
<rect width="16" height="12" fill="white"/>
</mask>
<g mask="url(#mask0_14655_23358)">
<path fill-rule="evenodd" clip-rule="evenodd" d="M0 0H16V11C16 11.5523 15.5523 12 15 12H1C0.447715 12 0 11.5523 0 11V0Z" fill="#C51918"/>
<path fill-rule="evenodd" clip-rule="evenodd" d="M3 3H13V9H3V3Z" fill="#FECA00"/>
<mask id="mask1_14655_23358" style="mask-type:alpha" maskUnits="userSpaceOnUse" x="3" y="3" width="10" height="6">
<path fill-rule="evenodd" clip-rule="evenodd" d="M3 3H13V9H3V3Z" fill="white"/>
</mask>
<g mask="url(#mask1_14655_23358)">
<path fill-rule="evenodd" clip-rule="evenodd" d="M3 3L8 6L3 9V3Z" fill="#23875F"/>
<path fill-rule="evenodd" clip-rule="evenodd" d="M13 3L8 6L13 9V3Z" fill="#23875F"/>
<mask id="mask2_14655_23358" style="mask-type:alpha" maskUnits="userSpaceOnUse" x="8" y="3" width="5" height="6">
<path fill-rule="evenodd" clip-rule="evenodd" d="M13 3L8 6L13 9V3Z" fill="white"/>
</mask>
<g mask="url(#mask2_14655_23358)">
</g>
<path fill-rule="evenodd" clip-rule="evenodd" d="M8 8C9.10457 8 10 7.10457 10 6C10 4.89543 9.10457 4 8 4C6.89543 4 6 4.89543 6 6C6 7.10457 6.89543 8 8 8Z" fill="#C51918"/>
<path fill-rule="evenodd" clip-rule="evenodd" d="M7.96473 6.65664L6.92927 7.37486L7.26014 6.14472L6.5 5.35891L7.52927 5.31642L7.96473 4.10001L8.40019 5.31642H9.42771L8.66932 6.14472L9.04913 7.30225L7.96473 6.65664Z" fill="#FECA00"/>
</g>
<path fill-rule="evenodd" clip-rule="evenodd" d="M4.38836 2.22102L4.95425 1.87012L5.54688 2.18554L5.33931 1.62001L5.75377 1.21533H5.19223L4.95425 0.621017L4.71627 1.21533L4.15377 1.23608L4.56918 1.62001L4.38836 2.22102ZM7.38836 2.22102L7.95425 1.87012L8.54688 2.18554L8.33931 1.62001L8.75377 1.21533H8.19223L7.95425 0.621017L7.71627 1.21533L7.15377 1.23608L7.56918 1.62001L7.38836 2.22102ZM10.9542 1.87012L10.3884 2.22102L10.5692 1.62001L10.1538 1.23608L10.7163 1.21533L10.9542 0.621017L11.1922 1.21533H11.7538L11.3393 1.62001L11.5469 2.18554L10.9542 1.87012ZM4.38789 11.0836L4.95377 10.7327L5.5464 11.0481L5.33883 10.4826L5.75329 10.0779H5.19175L4.95377 9.48358L4.71579 10.0779L4.15329 10.0986L4.56871 10.4826L4.38789 11.0836ZM7.95377 10.7327L7.38789 11.0836L7.56871 10.4826L7.15329 10.0986L7.71579 10.0779L7.95377 9.48358L8.19175 10.0779H8.75329L8.33883 10.4826L8.5464 11.0481L7.95377 10.7327ZM10.3879 11.0836L10.9538 10.7327L11.5464 11.0481L11.3388 10.4826L11.7533 10.0779H11.1917L10.9538 9.48358L10.7158 10.0779L10.1533 10.0986L10.5687 10.4826L10.3879 11.0836Z" fill="#FECA00"/>
<path fill-rule="evenodd" clip-rule="evenodd" d="M4.31734 6.386C4.31734 6.386 4.58662 6.62572 4.73328 6.70734C4.78385 6.51568 4.67102 6.08146 4.67102 6.08146C4.63936 5.97766 4.29211 5.79156 4.29211 5.79156C4.29211 5.79156 4.19458 6.11924 4.31734 6.386Z" fill="#C51918"/>
<path fill-rule="evenodd" clip-rule="evenodd" d="M4.59787 6.96509C4.59787 6.96509 3.90625 6.64206 3.83597 6.18516C3.76568 5.72826 3.91474 4.99988 3.91474 4.99988C3.91474 4.99988 5.03784 5.25546 5.11425 5.80306C5.19066 6.35067 4.93699 6.69468 4.93699 6.69468C4.93699 6.69468 4.67721 6.02714 4.43208 5.95309C4.43208 5.95309 4.43208 6.61467 4.59787 6.96509Z" fill="#FECA00"/>
</g>
<rect width="16" height="12" fill="url(#paint0_linear_14655_23358)" style="mix-blend-mode:overlay"/>
</g>
<defs>
<linearGradient id="paint0_linear_14655_23358" x1="8" y1="0" x2="8" y2="12" gradientUnits="userSpaceOnUse">
<stop stop-color="white" stop-opacity="0.7"/>
<stop offset="1" stop-opacity="0.3"/>
</linearGradient>
<clipPath id="clip0_14655_23358">
<rect width="16" height="12" rx="1" fill="white"/>
</clipPath>
</defs>
</svg>
