<svg width="16" height="12" viewBox="0 0 16 12" fill="none" xmlns="http://www.w3.org/2000/svg">
<g clip-path="url(#clip0_14655_23372)">
<mask id="mask0_14655_23372" style="mask-type:alpha" maskUnits="userSpaceOnUse" x="0" y="0" width="16" height="12">
<rect width="16" height="12" fill="white"/>
</mask>
<g mask="url(#mask0_14655_23372)">
<path fill-rule="evenodd" clip-rule="evenodd" d="M0 0H16V12H0V0Z" fill="#C51918"/>
<path fill-rule="evenodd" clip-rule="evenodd" d="M2 2H14V10H2V2Z" fill="#4564F9"/>
<path d="M2.5 2.5H13.5V9.5H2.5V2.5Z" stroke="#CBDAFF" stroke-opacity="0.1"/>
<mask id="mask1_14655_23372" style="mask-type:alpha" maskUnits="userSpaceOnUse" x="2" y="2" width="12" height="8">
<path fill-rule="evenodd" clip-rule="evenodd" d="M2 2H14V10H2V2Z" fill="white"/>
<path d="M2.5 2.5H13.5V9.5H2.5V2.5Z" stroke="white"/>
</mask>
<g mask="url(#mask1_14655_23372)">
<path fill-rule="evenodd" clip-rule="evenodd" d="M8 1.99996C8 1.99996 11 3.44772 11 5.85882C11 8.26991 8 9.99996 8 9.99996C8 9.99996 5 8.20212 5 5.85882C5 3.51551 8 1.99996 8 1.99996Z" fill="#CCE0E5"/>
<path d="M8 1.99996L8.3151 1.34702L7.99266 1.19141L7.67309 1.35285L8 1.99996ZM8 1.99996C8.3151 1.34702 8.31532 1.34712 8.31555 1.34724L8.31607 1.34749L8.31732 1.34809L8.32064 1.34971L8.33052 1.35458L8.36276 1.37079C8.38961 1.38447 8.42698 1.40389 8.47339 1.42895C8.5661 1.47901 8.69543 1.55188 8.84924 1.64671C9.15534 1.83544 9.56619 2.11589 9.98031 2.48216C10.7866 3.19529 11.725 4.34222 11.725 5.85882C11.725 7.36187 10.8004 8.57545 10.0071 9.35173C9.59807 9.75194 9.19183 10.0675 8.88872 10.2829C8.73651 10.3911 8.60863 10.4752 8.51715 10.5332C8.47137 10.5622 8.43458 10.5848 8.40829 10.6007L8.37685 10.6194L8.36735 10.625L8.36422 10.6268L8.36307 10.6275L8.36259 10.6278C8.36238 10.6279 8.36219 10.628 8 9.99996M8 1.99996C7.67309 1.35285 7.67288 1.35295 7.67266 1.35307L7.67216 1.35332L7.67096 1.35393L7.66773 1.35558L7.65804 1.36057L7.62619 1.37729C7.5996 1.39141 7.5625 1.41149 7.51639 1.43736C7.42425 1.48904 7.29557 1.56417 7.14245 1.66145C6.83769 1.85508 6.42861 2.14128 6.01627 2.51062C5.21743 3.22617 4.275 4.37321 4.275 5.85882C4.275 7.33047 5.2032 8.54462 5.98997 9.32339C6.3974 9.72668 6.80209 10.0479 7.10399 10.2682C7.25557 10.3787 7.38287 10.465 7.47382 10.5246C7.51933 10.5544 7.55587 10.5776 7.58192 10.5939L7.613 10.6132L7.62232 10.6188L7.62537 10.6207L7.62648 10.6213L7.62694 10.6216C7.62713 10.6217 7.62732 10.6218 8 9.99996M8 9.99996L8.36219 10.628L7.99294 10.841L7.62732 10.6218L8 9.99996Z" stroke="#C1C9F1" stroke-opacity="0.1482" stroke-width="1.45"/>
<path d="M8.20001 3.01839L8.54327 2.3798L8.19202 2.191L7.84448 2.38655L8.20001 3.01839ZM8.20001 3.01839C8.54327 2.3798 8.54349 2.37992 8.54373 2.38005L8.54423 2.38032L8.54538 2.38094L8.54822 2.38249L8.5561 2.3868L8.58024 2.40033C8.59994 2.4115 8.62674 2.42702 8.65963 2.4468C8.72532 2.48631 8.81583 2.54315 8.92293 2.6167C9.13584 2.76291 9.4211 2.9798 9.70881 3.26324C10.2707 3.81676 10.925 4.7085 10.925 5.88382C10.925 7.04724 10.2819 7.98595 9.73423 8.58288C9.45202 8.89047 9.17186 9.1329 8.96247 9.29864C8.85723 9.38194 8.76842 9.44701 8.7042 9.49236C8.67205 9.51507 8.64596 9.53291 8.62692 9.54571L8.60375 9.56112L8.59634 9.56596L8.59372 9.56766L8.59268 9.56832L8.59224 9.56861C8.59203 9.56874 8.59184 9.56887 8.20001 8.95887M8.20001 3.01839C7.84448 2.38655 7.84427 2.38667 7.84405 2.3868L7.84357 2.38707L7.84248 2.38769L7.83973 2.38924L7.83207 2.39364L7.80836 2.4075C7.78896 2.41898 7.76247 2.43496 7.7299 2.45531C7.66485 2.49595 7.57505 2.55437 7.4687 2.62963C7.25728 2.77925 6.97386 3.0001 6.68795 3.28535C6.13296 3.83907 5.47501 4.7307 5.47501 5.88382C5.47501 7.0246 6.12129 7.96369 6.663 8.56094C6.94367 8.87038 7.22226 9.11671 7.43033 9.28577C7.53491 9.37074 7.6231 9.43734 7.68674 9.48378C7.7186 9.50702 7.74442 9.5253 7.76319 9.53837L7.78597 9.55408L7.79319 9.55897L7.79572 9.56067L7.7967 9.56134L7.79713 9.56162C7.79732 9.56175 7.79751 9.56187 8.20001 8.95887M8.20001 8.95887L8.59184 9.56887L8.19238 9.82545L7.79751 9.56187L8.20001 8.95887Z" fill="#CCE0E5"/>
<path d="M8.20001 3.01839L8.54327 2.3798L8.19202 2.191L7.84448 2.38655L8.20001 3.01839ZM8.20001 3.01839C8.54327 2.3798 8.54349 2.37992 8.54373 2.38005L8.54423 2.38032L8.54538 2.38094L8.54822 2.38249L8.5561 2.3868L8.58024 2.40033C8.59994 2.4115 8.62674 2.42702 8.65963 2.4468C8.72532 2.48631 8.81583 2.54315 8.92293 2.6167C9.13584 2.76291 9.4211 2.9798 9.70881 3.26324C10.2707 3.81676 10.925 4.7085 10.925 5.88382C10.925 7.04724 10.2819 7.98595 9.73423 8.58288C9.45202 8.89047 9.17186 9.1329 8.96247 9.29864C8.85723 9.38194 8.76842 9.44701 8.7042 9.49236C8.67205 9.51507 8.64596 9.53291 8.62692 9.54571L8.60375 9.56112L8.59634 9.56596L8.59372 9.56766L8.59268 9.56832L8.59224 9.56861C8.59203 9.56874 8.59184 9.56887 8.20001 8.95887M8.20001 3.01839C7.84448 2.38655 7.84427 2.38667 7.84405 2.3868L7.84357 2.38707L7.84248 2.38769L7.83973 2.38924L7.83207 2.39364L7.80836 2.4075C7.78896 2.41898 7.76247 2.43496 7.7299 2.45531C7.66485 2.49595 7.57505 2.55437 7.4687 2.62963C7.25728 2.77925 6.97386 3.0001 6.68795 3.28535C6.13296 3.83907 5.47501 4.7307 5.47501 5.88382C5.47501 7.0246 6.12129 7.96369 6.663 8.56094C6.94367 8.87038 7.22226 9.11671 7.43033 9.28577C7.53491 9.37074 7.6231 9.43734 7.68674 9.48378C7.7186 9.50702 7.74442 9.5253 7.76319 9.53837L7.78597 9.55408L7.79319 9.55897L7.79572 9.56067L7.7967 9.56134L7.79713 9.56162C7.79732 9.56175 7.79751 9.56187 8.20001 8.95887M8.20001 8.95887L8.59184 9.56887L8.19238 9.82545L7.79751 9.56187L8.20001 8.95887Z" stroke="#C1C9F1" stroke-opacity="0.748217" stroke-width="1.45"/>
<path d="M8.20001 3.01839L8.54327 2.3798L8.19202 2.191L7.84448 2.38655L8.20001 3.01839ZM8.20001 3.01839C8.54327 2.3798 8.54349 2.37992 8.54373 2.38005L8.54423 2.38032L8.54538 2.38094L8.54822 2.38249L8.5561 2.3868L8.58024 2.40033C8.59994 2.4115 8.62674 2.42702 8.65963 2.4468C8.72532 2.48631 8.81583 2.54315 8.92293 2.6167C9.13584 2.76291 9.4211 2.9798 9.70881 3.26324C10.2707 3.81676 10.925 4.7085 10.925 5.88382C10.925 7.04724 10.2819 7.98595 9.73423 8.58288C9.45202 8.89047 9.17186 9.1329 8.96247 9.29864C8.85723 9.38194 8.76842 9.44701 8.7042 9.49236C8.67205 9.51507 8.64596 9.53291 8.62692 9.54571L8.60375 9.56112L8.59634 9.56596L8.59372 9.56766L8.59268 9.56832L8.59224 9.56861C8.59203 9.56874 8.59184 9.56887 8.20001 8.95887M8.20001 3.01839C7.84448 2.38655 7.84427 2.38667 7.84405 2.3868L7.84357 2.38707L7.84248 2.38769L7.83973 2.38924L7.83207 2.39364L7.80836 2.4075C7.78896 2.41898 7.76247 2.43496 7.7299 2.45531C7.66485 2.49595 7.57505 2.55437 7.4687 2.62963C7.25728 2.77925 6.97386 3.0001 6.68795 3.28535C6.13296 3.83907 5.47501 4.7307 5.47501 5.88382C5.47501 7.0246 6.12129 7.96369 6.663 8.56094C6.94367 8.87038 7.22226 9.11671 7.43033 9.28577C7.53491 9.37074 7.6231 9.43734 7.68674 9.48378C7.7186 9.50702 7.74442 9.5253 7.76319 9.53837L7.78597 9.55408L7.79319 9.55897L7.79572 9.56067L7.7967 9.56134L7.79713 9.56162C7.79732 9.56175 7.79751 9.56187 8.20001 8.95887M8.20001 8.95887L8.59184 9.56887L8.19238 9.82545L7.79751 9.56187L8.20001 8.95887Z" stroke="#C51918" stroke-width="1.45"/>
<mask id="mask2_14655_23372" style="mask-type:alpha" maskUnits="userSpaceOnUse" x="6" y="3" width="5" height="6">
<path d="M8.6658 7.6026C8.50626 7.77648 8.34563 7.92528 8.20601 8.04396C8.06399 7.92082 7.89993 7.76639 7.73702 7.58678C7.27874 7.08152 6.92501 6.48308 6.92501 5.88382C6.92501 5.29691 7.26707 4.75582 7.71207 4.31183C7.88498 4.13932 8.05951 3.99574 8.20643 3.8859C8.35094 3.99139 8.52186 4.12936 8.69122 4.2962C9.12933 4.72779 9.47501 5.26876 9.47501 5.88382C9.47501 6.51078 9.11812 7.10959 8.6658 7.6026Z" fill="white"/>
<path d="M8.6658 7.6026C8.50626 7.77648 8.34563 7.92528 8.20601 8.04396C8.06399 7.92082 7.89993 7.76639 7.73702 7.58678C7.27874 7.08152 6.92501 6.48308 6.92501 5.88382C6.92501 5.29691 7.26707 4.75582 7.71207 4.31183C7.88498 4.13932 8.05951 3.99574 8.20643 3.8859C8.35094 3.99139 8.52186 4.12936 8.69122 4.2962C9.12933 4.72779 9.47501 5.26876 9.47501 5.88382C9.47501 6.51078 9.11812 7.10959 8.6658 7.6026Z" stroke="white" stroke-width="1.45"/>
</mask>
<g mask="url(#mask2_14655_23372)">
<rect x="6.46667" y="7" width="3.73333" height="0.75" fill="#91CBCB"/>
<path fill-rule="evenodd" clip-rule="evenodd" d="M6.80087 7.59897C6.80087 7.59897 9.4479 7.59991 9.69118 7.50857C9.93447 7.41723 9.23445 9.26235 8.34003 9.26235C7.44561 9.26235 6.80087 7.59897 6.80087 7.59897Z" fill="#FDF9A1"/>
<path d="M9.29682 7.37756L8.82131 7.74346C8.07187 6.76953 7.7575 5.762 7.89167 4.73373L8.48663 4.81136C8.37425 5.67262 8.63982 6.52374 9.29682 7.37756Z" fill="#A68861"/>
<path fill-rule="evenodd" clip-rule="evenodd" d="M8.19681 4.81837L7.74315 5.34994C7.72613 5.36989 7.69379 5.35351 7.6998 5.32799L7.85585 4.6652H7.14619C7.11911 4.6652 7.11135 4.62818 7.13615 4.61731L7.74255 4.35146L7.31214 3.78402C7.29689 3.76392 7.31763 3.73645 7.34114 3.74561L8.01797 4.00946L8.17248 3.38774C8.17877 3.36243 8.21476 3.36246 8.22101 3.38777L8.37472 4.00946L9.04568 3.74822C9.06968 3.73888 9.09043 3.76754 9.07405 3.78742L8.60924 4.35146L9.2506 4.61711C9.27587 4.62758 9.26839 4.6652 9.24103 4.6652H8.60924L8.70539 5.34328C8.7089 5.36806 8.67787 5.38205 8.66162 5.36302L8.19681 4.81837Z" fill="#239E46"/>
<path fill-rule="evenodd" clip-rule="evenodd" d="M7.80002 6.5H10.2V7.025H7.80002V6.5Z" fill="#239E46"/>
</g>
</g>
</g>
<rect width="16" height="12" fill="url(#paint0_linear_14655_23372)" style="mix-blend-mode:overlay"/>
</g>
<defs>
<linearGradient id="paint0_linear_14655_23372" x1="8" y1="0" x2="8" y2="12" gradientUnits="userSpaceOnUse">
<stop stop-color="white" stop-opacity="0.7"/>
<stop offset="1" stop-opacity="0.3"/>
</linearGradient>
<clipPath id="clip0_14655_23372">
<rect width="16" height="12" rx="1" fill="white"/>
</clipPath>
</defs>
</svg>
