<svg width="16" height="12" viewBox="0 0 16 12" fill="none" xmlns="http://www.w3.org/2000/svg">
<g clip-path="url(#clip0_14655_23367)">
<mask id="mask0_14655_23367" style="mask-type:alpha" maskUnits="userSpaceOnUse" x="0" y="0" width="16" height="12">
<rect width="16" height="12" fill="white"/>
</mask>
<g mask="url(#mask0_14655_23367)">
<path fill-rule="evenodd" clip-rule="evenodd" d="M0 0H16V12H0V0Z" fill="#2E42A5"/>
<mask id="mask1_14655_23367" style="mask-type:alpha" maskUnits="userSpaceOnUse" x="0" y="0" width="9" height="7">
<rect width="9" height="7" fill="white"/>
</mask>
<g mask="url(#mask1_14655_23367)">
<path d="M-1.00213 6.49991L0.978342 7.36852L9.04494 0.944376L10.0896 -0.34639L7.97176 -0.636702L4.68159 2.13164L2.03334 3.99686L-1.00213 6.49991Z" fill="#F7FCFF"/>
<path d="M-0.731003 7.10848L0.277958 7.61254L9.71447 -0.466316H8.29777L-0.731003 7.10848Z" fill="#F50100"/>
<path d="M10.0021 6.49991L8.02166 7.36852L-0.0449409 0.944376L-1.0896 -0.34639L1.02824 -0.636702L4.31841 2.13164L6.96666 3.99686L10.0021 6.49991Z" fill="#F7FCFF"/>
<path d="M9.93456 6.93667L8.9256 7.44073L4.90743 3.98176L3.71613 3.59529L-1.19011 -0.341973H0.226583L5.13007 3.50184L6.43255 3.96525L9.93456 6.93667Z" fill="#F50100"/>
<mask id="path-9-outside-1_14655_23367" maskUnits="userSpaceOnUse" x="-1" y="-1" width="11" height="9" fill="black">
<rect fill="white" x="-1" y="-1" width="11" height="9"/>
<path fill-rule="evenodd" clip-rule="evenodd" d="M4.99226 0H3.99226V3H0V4H3.99226V7H4.99226V4H9V3H4.99226V0Z"/>
</mask>
<path fill-rule="evenodd" clip-rule="evenodd" d="M4.99226 0H3.99226V3H0V4H3.99226V7H4.99226V4H9V3H4.99226V0Z" fill="#F50100"/>
<path d="M3.99226 0V-0.75H3.24226V0H3.99226ZM4.99226 0H5.74226V-0.75H4.99226V0ZM3.99226 3V3.75H4.74226V3H3.99226ZM0 3V2.25H-0.75V3H0ZM0 4H-0.75V4.75H0V4ZM3.99226 4H4.74226V3.25H3.99226V4ZM3.99226 7H3.24226V7.75H3.99226V7ZM4.99226 7V7.75H5.74226V7H4.99226ZM4.99226 4V3.25H4.24226V4H4.99226ZM9 4V4.75H9.75V4H9ZM9 3H9.75V2.25H9V3ZM4.99226 3H4.24226V3.75H4.99226V3ZM3.99226 0.75H4.99226V-0.75H3.99226V0.75ZM4.74226 3V0H3.24226V3H4.74226ZM0 3.75H3.99226V2.25H0V3.75ZM0.75 4V3H-0.75V4H0.75ZM3.99226 3.25H0V4.75H3.99226V3.25ZM4.74226 7V4H3.24226V7H4.74226ZM4.99226 6.25H3.99226V7.75H4.99226V6.25ZM4.24226 4V7H5.74226V4H4.24226ZM9 3.25H4.99226V4.75H9V3.25ZM8.25 3V4H9.75V3H8.25ZM4.99226 3.75H9V2.25H4.99226V3.75ZM4.24226 0V3H5.74226V0H4.24226Z" fill="#F7FCFF" mask="url(#path-9-outside-1_14655_23367)"/>
</g>
<g clip-path="url(#clip1_14655_23367)">
<path d="M4.408 9.83424L3.81757 10.3799L3.87604 9.57807L3.08132 9.45665L3.74466 9.00244L3.34408 8.3054L4.11279 8.54083L4.408 7.79305L4.70321 8.54083L5.47192 8.3054L5.07134 9.00244L5.73468 9.45665L4.93996 9.57807L4.99843 10.3799L4.408 9.83424Z" fill="#F7FCFF"/>
<path d="M10.776 6.06898L10.3824 6.43274L10.4214 5.8982L9.89155 5.81725L10.3338 5.51445L10.0667 5.04975L10.5792 5.2067L10.776 4.70818L10.9728 5.2067L11.4853 5.04975L11.2182 5.51445L11.6605 5.81725L11.1306 5.8982L11.1696 6.43274L10.776 6.06898Z" fill="#F7FCFF"/>
<path d="M11.7147 2.37668L11.321 2.74044L11.36 2.20589L10.8302 2.12495L11.2724 1.82214L11.0054 1.35745L11.5179 1.5144L11.7147 1.01588L11.9115 1.5144L12.4239 1.35745L12.1569 1.82214L12.5991 2.12495L12.0693 2.20589L12.1083 2.74044L11.7147 2.37668Z" fill="#F7FCFF"/>
<path d="M14.0613 4.22283L13.6677 4.58659L13.7067 4.05204L13.1769 3.9711L13.6191 3.66829L13.3521 3.2036L13.8645 3.36055L14.0613 2.86203L14.2581 3.36055L14.7706 3.2036L14.5036 3.66829L14.9458 3.9711L14.416 4.05204L14.455 4.58659L14.0613 4.22283Z" fill="#F7FCFF"/>
<path d="M12.184 9.53052L11.7904 9.89428L11.8294 9.35974L11.2995 9.27879L11.7418 8.97599L11.4747 8.51129L11.9872 8.66824L12.184 8.16972L12.3808 8.66824L12.8933 8.51129L12.6262 8.97599L13.0685 9.27879L12.5386 9.35974L12.5776 9.89428L12.184 9.53052Z" fill="#F7FCFF"/>
<path d="M13.8267 6.64789L13.4267 6.85814L13.5031 6.41282L13.1796 6.09743L13.6267 6.03246L13.8267 5.62729L14.0266 6.03246L14.4738 6.09743L14.1502 6.41282L14.2266 6.85814L13.8267 6.64789Z" fill="#F7FCFF"/>
</g>
</g>
<rect width="16" height="12" fill="url(#paint0_linear_14655_23367)" style="mix-blend-mode:overlay"/>
</g>
<defs>
<linearGradient id="paint0_linear_14655_23367" x1="8" y1="0" x2="8" y2="12" gradientUnits="userSpaceOnUse">
<stop stop-color="white" stop-opacity="0.7"/>
<stop offset="1" stop-opacity="0.3"/>
</linearGradient>
<clipPath id="clip0_14655_23367">
<rect width="16" height="12" rx="1" fill="white"/>
</clipPath>
<clipPath id="clip1_14655_23367">
<rect width="12" height="10" fill="white" transform="translate(3 1)"/>
</clipPath>
</defs>
</svg>
