<svg width="16" height="12" viewBox="0 0 16 12" fill="none" xmlns="http://www.w3.org/2000/svg">
<g clip-path="url(#clip0_14655_23397)">
<mask id="mask0_14655_23397" style="mask-type:alpha" maskUnits="userSpaceOnUse" x="0" y="0" width="16" height="12">
<rect width="16" height="12" fill="white"/>
</mask>
<g mask="url(#mask0_14655_23397)">
<path fill-rule="evenodd" clip-rule="evenodd" d="M0 0V12H16V0H0Z" fill="#F7FCFF"/>
<mask id="mask1_14655_23397" style="mask-type:alpha" maskUnits="userSpaceOnUse" x="0" y="0" width="16" height="12">
<path fill-rule="evenodd" clip-rule="evenodd" d="M0 0V12H16V0H0Z" fill="white"/>
</mask>
<g mask="url(#mask1_14655_23397)">
<path fill-rule="evenodd" clip-rule="evenodd" d="M0 0V4H16V0H0Z" fill="#4564F9"/>
<path fill-rule="evenodd" clip-rule="evenodd" d="M0 8V12H16V8H0Z" fill="#4564F9"/>
<path fill-rule="evenodd" clip-rule="evenodd" d="M8.40904 6.56595L7.82125 6.87497L7.93351 6.22046L7.45798 5.70919H8.11515L8.40904 5.06595L8.70293 5.70919H9.36009L8.88457 6.22046L8.99682 6.87497L8.40904 6.56595Z" fill="#4564F9"/>
<path fill-rule="evenodd" clip-rule="evenodd" d="M5.40904 5.56595L4.82125 5.87497L4.93351 5.22046L4.45798 4.70919H5.11515L5.40904 4.06595L5.70293 4.70919H6.36009L5.88457 5.22046L5.99682 5.87497L5.40904 5.56595Z" fill="#4564F9"/>
<path fill-rule="evenodd" clip-rule="evenodd" d="M5.40904 7.56595L4.82125 7.87497L4.93351 7.22046L4.45798 6.70919H5.11515L5.40904 6.06595L5.70293 6.70919H6.36009L5.88457 7.22046L5.99682 7.87497L5.40904 7.56595Z" fill="#4564F9"/>
<path fill-rule="evenodd" clip-rule="evenodd" d="M11.409 5.56595L10.8213 5.87497L10.9335 5.22046L10.458 4.70919H11.1151L11.409 4.06595L11.7029 4.70919H12.3601L11.8846 5.22046L11.9968 5.87497L11.409 5.56595Z" fill="#4564F9"/>
<path fill-rule="evenodd" clip-rule="evenodd" d="M11.409 7.56595L10.8213 7.87497L10.9335 7.22046L10.458 6.70919H11.1151L11.409 6.06595L11.7029 6.70919H12.3601L11.8846 7.22046L11.9968 7.87497L11.409 7.56595Z" fill="#4564F9"/>
</g>
</g>
<rect width="16" height="12" fill="url(#paint0_linear_14655_23397)" style="mix-blend-mode:overlay"/>
</g>
<defs>
<linearGradient id="paint0_linear_14655_23397" x1="8" y1="0" x2="8" y2="12" gradientUnits="userSpaceOnUse">
<stop stop-color="white" stop-opacity="0.7"/>
<stop offset="1" stop-opacity="0.3"/>
</linearGradient>
<clipPath id="clip0_14655_23397">
<rect width="16" height="12" rx="1" fill="white"/>
</clipPath>
</defs>
</svg>
