<svg width="16" height="12" viewBox="0 0 16 12" fill="none" xmlns="http://www.w3.org/2000/svg">
<g clip-path="url(#clip0_14655_23461)">
<mask id="mask0_14655_23461" style="mask-type:alpha" maskUnits="userSpaceOnUse" x="0" y="0" width="16" height="12">
<rect width="16" height="12" fill="white"/>
</mask>
<g mask="url(#mask0_14655_23461)">
<path fill-rule="evenodd" clip-rule="evenodd" d="M0 0V12H16V0H0Z" fill="#E31D1C"/>
<mask id="mask1_14655_23461" style="mask-type:alpha" maskUnits="userSpaceOnUse" x="0" y="0" width="16" height="12">
<path fill-rule="evenodd" clip-rule="evenodd" d="M0 0V12H16V0H0Z" fill="white"/>
</mask>
<g mask="url(#mask1_14655_23461)">
<path fill-rule="evenodd" clip-rule="evenodd" d="M3.04676 2.0705C3.04292 2.02424 3.09828 2.0018 3.12958 2.03608C3.35415 2.2819 3.94767 2.89389 4.29092 2.89389C4.72042 2.89389 6.40722 1.47257 6.90579 1.70411C7.40437 1.93564 8.41382 4.35646 8.41382 4.35646L7.756 5.18159L6.90579 4.71778L6.67049 3.17156C6.67049 3.17156 5.10858 3.95421 4.29092 3.64868L3.83127 3.81633C3.83127 3.81633 3.38863 2.93983 3.21432 2.67174C3.09899 2.49436 3.05997 2.22945 3.04676 2.0705Z" fill="#F7FCFF"/>
<path fill-rule="evenodd" clip-rule="evenodd" d="M4 4.13763L3.41221 4.44664L3.52447 3.79214L3.04894 3.32861L3.70611 3.23312L4 2.63763L4.29389 3.23312L4.95106 3.32861L4.47553 3.79214L4.58778 4.44664L4 4.13763Z" fill="#FECA00"/>
<path fill-rule="evenodd" clip-rule="evenodd" d="M6.56571 1.76836C6.57323 1.67441 6.65166 1.602 6.74592 1.602C6.85144 1.602 6.93453 1.692 6.92612 1.79719L6.81554 3.17926C6.80803 3.27321 6.72959 3.34562 6.63534 3.34562C6.52981 3.34562 6.44672 3.25561 6.45514 3.15042L6.56571 1.76836Z" fill="#FECA00"/>
<path fill-rule="evenodd" clip-rule="evenodd" d="M12.6101 2.55172C12.6514 2.57297 12.6411 2.6318 12.5954 2.64019C12.2679 2.70037 11.4344 2.8794 11.2525 3.17049C11.0249 3.53473 11.3364 5.7184 10.8758 6.01852C10.4153 6.31864 7.82738 5.89186 7.82738 5.89186L7.47622 4.89675L8.3201 4.42151L9.80105 5.01154C9.80105 5.01154 9.94024 3.33287 10.6326 2.80137L10.7138 2.29187C10.7138 2.29187 11.6917 2.38096 12.0114 2.3752C12.223 2.3714 12.4683 2.47868 12.6101 2.55172Z" fill="#F7FCFF"/>
<path fill-rule="evenodd" clip-rule="evenodd" d="M10.2526 2.4282L10.302 1.76597L10.7976 2.20801L11.4426 2.05037L11.1754 2.65828L11.5246 3.22308L10.8639 3.15675L10.4347 3.66345L10.2936 3.01455L9.67903 2.76291L10.2526 2.4282Z" fill="#FECA00"/>
<path fill-rule="evenodd" clip-rule="evenodd" d="M10.9767 5.59919C11.0572 5.65785 11.0805 5.76772 11.0309 5.85405C10.9719 5.95667 10.8358 5.98346 10.7423 5.91089L9.78034 5.16438C9.71934 5.11704 9.69616 5.03557 9.7231 4.96322C9.76391 4.85358 9.89811 4.81319 9.99266 4.88209L10.9767 5.59919Z" fill="#FECA00"/>
<path fill-rule="evenodd" clip-rule="evenodd" d="M7.43126 10.4918C7.39222 10.5169 7.34642 10.4786 7.36199 10.4349C7.47361 10.1212 7.73532 9.30981 7.57418 9.00674C7.37254 8.62751 5.32568 7.80543 5.29605 7.25652C5.26642 6.7076 6.92996 4.6798 6.92996 4.6798L7.96734 4.87325L7.95696 5.84168L6.61135 6.8276C6.61135 6.8276 8.12732 7.7788 8.24142 8.64419L8.60443 8.97952C8.60443 8.97952 8.03834 9.78185 7.88346 10.0616C7.78099 10.2467 7.56541 10.4055 7.43126 10.4918Z" fill="#F7FCFF"/>
<path fill-rule="evenodd" clip-rule="evenodd" d="M8.94608 8.4571L9.49487 8.83101L8.86428 9.03916L8.67826 9.67664L8.28542 9.14123L7.62166 9.1613L8.00947 8.62225L7.78527 7.99717L8.41778 8.19943L8.94298 7.79304L8.94608 8.4571Z" fill="#FECA00"/>
<path fill-rule="evenodd" clip-rule="evenodd" d="M5.55181 7.47817C5.44027 7.52095 5.31609 7.45872 5.28359 7.34377C5.25515 7.24317 5.30771 7.13742 5.40507 7.09934L6.41411 6.70468C6.50688 6.66839 6.61233 6.70344 6.66493 6.78803C6.73349 6.89828 6.68463 7.04368 6.56342 7.09017L5.55181 7.47817Z" fill="#FECA00"/>
<path d="M6.83129 4.88247C6.76907 4.86072 6.73583 4.79142 6.75706 4.72768C6.77828 4.66393 6.87798 4.55745 6.9402 4.5792L7.8081 4.88247C7.85288 4.89811 7.88436 4.93944 7.8883 4.98774L7.96591 5.93967C7.97138 6.00678 7.87362 6.06108 7.8081 6.06668C7.74258 6.07229 7.68503 6.02242 7.67956 5.95531L7.60769 5.13668L6.83129 4.88247Z" fill="#FECA00"/>
<path d="M8.34028 4.38377C8.39216 4.3424 8.48479 4.39036 8.52518 4.4435C8.56558 4.49664 8.55627 4.57326 8.50439 4.61464L7.90319 5.23085C7.85131 5.27223 7.73464 5.19152 7.69425 5.13837C7.65385 5.08523 7.64237 4.94047 7.69425 4.89909L8.34028 4.38377Z" fill="#FECA00"/>
</g>
</g>
<rect width="16" height="12" fill="url(#paint0_linear_14655_23461)" style="mix-blend-mode:overlay"/>
</g>
<defs>
<linearGradient id="paint0_linear_14655_23461" x1="8" y1="0" x2="8" y2="12" gradientUnits="userSpaceOnUse">
<stop stop-color="white" stop-opacity="0.7"/>
<stop offset="1" stop-opacity="0.3"/>
</linearGradient>
<clipPath id="clip0_14655_23461">
<rect width="16" height="12" rx="1" fill="white"/>
</clipPath>
</defs>
</svg>
