<svg width="16" height="12" viewBox="0 0 16 12" fill="none" xmlns="http://www.w3.org/2000/svg">
<g clip-path="url(#clip0_14655_23391)">
<mask id="mask0_14655_23391" style="mask-type:alpha" maskUnits="userSpaceOnUse" x="0" y="0" width="16" height="12">
<rect width="16" height="12" fill="white"/>
</mask>
<g mask="url(#mask0_14655_23391)">
<path fill-rule="evenodd" clip-rule="evenodd" d="M0 0V12H16V0H0Z" fill="#F7FCFF"/>
<mask id="mask1_14655_23391" style="mask-type:alpha" maskUnits="userSpaceOnUse" x="0" y="0" width="16" height="12">
<path fill-rule="evenodd" clip-rule="evenodd" d="M0 0V12H16V0H0Z" fill="white"/>
</mask>
<g mask="url(#mask1_14655_23391)">
<path fill-rule="evenodd" clip-rule="evenodd" d="M0 0V4H16V0H0Z" fill="#5EAA22"/>
<path fill-rule="evenodd" clip-rule="evenodd" d="M0 8V12H16V8H0Z" fill="#E31D1C"/>
<path d="M0.186319 8.68347H-0.950706" stroke="#F7FCFF" stroke-width="0.5"/>
<path d="M-0.962425 9.13364V8.87264H-0.592292V9.12488H-0.218278V8.87292H-0.412322" stroke="#F7FCFF" stroke-width="0.5"/>
<path d="M0.169136 9.12305H-0.0193329V8.87814H0.377482V8.67751V9.12305H0.55705V8.67751" stroke="#F7FCFF" stroke-width="0.5"/>
<path d="M0.759069 8.704C0.759069 8.72863 0.759069 9.12492 0.759069 9.12492H0.572678" stroke="#F7FCFF" stroke-width="0.5"/>
<path d="M2.13754 8.68347H1.00051" stroke="#F7FCFF" stroke-width="0.5"/>
<path d="M0.988792 9.13364V8.87264H1.35893V9.12488H1.73294V8.87292H1.5389" stroke="#F7FCFF" stroke-width="0.5"/>
<path d="M2.1552 9.12305H1.96673V8.87814H2.36354V8.67751V9.12305H2.54311V8.67751" stroke="#F7FCFF" stroke-width="0.5"/>
<path d="M2.74513 8.704C2.74513 8.72863 2.74513 9.12492 2.74513 9.12492H2.55874" stroke="#F7FCFF" stroke-width="0.5"/>
<path d="M4.1236 8.68347H2.98657" stroke="#F7FCFF" stroke-width="0.5"/>
<path d="M2.97485 9.13364V8.87264H3.34499V9.12488H3.719V8.87292H3.52496" stroke="#F7FCFF" stroke-width="0.5"/>
<path d="M4.10642 9.12305H3.91795V8.87814H4.31477V8.67751V9.12305H4.49434V8.67751" stroke="#F7FCFF" stroke-width="0.5"/>
<path d="M4.69636 8.704C4.69636 8.72863 4.69636 9.12492 4.69636 9.12492H4.50996" stroke="#F7FCFF" stroke-width="0.5"/>
<path d="M6.07482 8.68347H4.9378" stroke="#F7FCFF" stroke-width="0.5"/>
<path d="M4.92608 9.13364V8.87264H5.29621V9.12488H5.67023V8.87292H5.47618" stroke="#F7FCFF" stroke-width="0.5"/>
<path d="M6.05764 9.12305H5.86917V8.87814H6.26599V8.67751V9.12305H6.44555V8.67751" stroke="#F7FCFF" stroke-width="0.5"/>
<path d="M6.64757 8.704C6.64757 8.72863 6.64757 9.12492 6.64757 9.12492H6.46118" stroke="#F7FCFF" stroke-width="0.5"/>
<path d="M8.02604 8.68347H6.88902" stroke="#F7FCFF" stroke-width="0.5"/>
<path d="M6.8773 9.13364V8.87264H7.24743V9.12488H7.62144V8.87292H7.4274" stroke="#F7FCFF" stroke-width="0.5"/>
<path d="M8.0437 9.12305H7.85523V8.87814H8.25205V8.67751V9.12305H8.43162V8.67751" stroke="#F7FCFF" stroke-width="0.5"/>
<path d="M8.63363 8.704C8.63363 8.72863 8.63363 9.12492 8.63363 9.12492H8.44724" stroke="#F7FCFF" stroke-width="0.5"/>
<path d="M10.0121 8.68347H8.87508" stroke="#F7FCFF" stroke-width="0.5"/>
<path d="M8.86336 9.13364V8.87264H9.23349V9.12488H9.6075V8.87292H9.41346" stroke="#F7FCFF" stroke-width="0.5"/>
<path d="M10.0298 9.12305H9.84129V8.87814H10.2381V8.67751V9.12305H10.4177V8.67751" stroke="#F7FCFF" stroke-width="0.5"/>
<path d="M10.6197 8.704C10.6197 8.72863 10.6197 9.12492 10.6197 9.12492H10.4333" stroke="#F7FCFF" stroke-width="0.5"/>
<path d="M11.9982 8.68347H10.8611" stroke="#F7FCFF" stroke-width="0.5"/>
<path d="M10.8494 9.13364V8.87264H11.2196V9.12488H11.5936V8.87292H11.3995" stroke="#F7FCFF" stroke-width="0.5"/>
<path d="M12.0158 9.12305H11.8274V8.87814H12.2242V8.67751V9.12305H12.4037V8.67751" stroke="#F7FCFF" stroke-width="0.5"/>
<path d="M12.6058 8.704C12.6058 8.72863 12.6058 9.12492 12.6058 9.12492H12.4194" stroke="#F7FCFF" stroke-width="0.5"/>
<path d="M13.9842 8.68347H12.8472" stroke="#F7FCFF" stroke-width="0.5"/>
<path d="M12.8355 9.13364V8.87264H13.2056V9.12488H13.5796V8.87292H13.3856" stroke="#F7FCFF" stroke-width="0.5"/>
<path d="M13.967 9.12305H13.7786V8.87814H14.1754V8.67751V9.12305H14.355V8.67751" stroke="#F7FCFF" stroke-width="0.5"/>
<path d="M14.557 8.704C14.557 8.72863 14.557 9.12492 14.557 9.12492H14.3706" stroke="#F7FCFF" stroke-width="0.5"/>
<path d="M15.9354 8.68347H14.7984" stroke="#F7FCFF" stroke-width="0.5"/>
<path d="M14.7867 9.13364V8.87264H15.1568V9.12488H15.5309V8.87292H15.3368" stroke="#F7FCFF" stroke-width="0.5"/>
<path d="M16.0228 9.12305H15.8343V8.87814H16.2311V8.67751V9.12305H16.4107V8.67751" stroke="#F7FCFF" stroke-width="0.5"/>
<path d="M0.186319 2.58346H-0.950706" stroke="#F7FCFF" stroke-width="0.5"/>
<path d="M-0.962425 3.03364V2.77264H-0.592292V3.02488H-0.218278V2.77292H-0.412322" stroke="#F7FCFF" stroke-width="0.5"/>
<path d="M0.169136 3.02304H-0.0193329V2.77813H0.377482V2.5775V3.02304H0.55705V2.5775" stroke="#F7FCFF" stroke-width="0.5"/>
<path d="M0.759069 2.604C0.759069 2.62862 0.759069 3.02492 0.759069 3.02492H0.572678" stroke="#F7FCFF" stroke-width="0.5"/>
<path d="M2.13754 2.58346H1.00051" stroke="#F7FCFF" stroke-width="0.5"/>
<path d="M0.988792 3.03364V2.77264H1.35893V3.02488H1.73294V2.77292H1.5389" stroke="#F7FCFF" stroke-width="0.5"/>
<path d="M2.1552 3.02304H1.96673V2.77813H2.36354V2.5775V3.02304H2.54311V2.5775" stroke="#F7FCFF" stroke-width="0.5"/>
<path d="M2.74513 2.604C2.74513 2.62862 2.74513 3.02492 2.74513 3.02492H2.55874" stroke="#F7FCFF" stroke-width="0.5"/>
<path d="M4.1236 2.58346H2.98657" stroke="#F7FCFF" stroke-width="0.5"/>
<path d="M2.97485 3.03364V2.77264H3.34499V3.02488H3.719V2.77292H3.52496" stroke="#F7FCFF" stroke-width="0.5"/>
<path d="M4.10642 3.02304H3.91795V2.77813H4.31477V2.5775V3.02304H4.49434V2.5775" stroke="#F7FCFF" stroke-width="0.5"/>
<path d="M4.69636 2.604C4.69636 2.62862 4.69636 3.02492 4.69636 3.02492H4.50996" stroke="#F7FCFF" stroke-width="0.5"/>
<path d="M6.07482 2.58346H4.9378" stroke="#F7FCFF" stroke-width="0.5"/>
<path d="M4.92608 3.03364V2.77264H5.29621V3.02488H5.67023V2.77292H5.47618" stroke="#F7FCFF" stroke-width="0.5"/>
<path d="M6.05764 3.02304H5.86917V2.77813H6.26599V2.5775V3.02304H6.44555V2.5775" stroke="#F7FCFF" stroke-width="0.5"/>
<path d="M6.64757 2.604C6.64757 2.62862 6.64757 3.02492 6.64757 3.02492H6.46118" stroke="#F7FCFF" stroke-width="0.5"/>
<path d="M8.02604 2.58346H6.88902" stroke="#F7FCFF" stroke-width="0.5"/>
<path d="M6.8773 3.03364V2.77264H7.24743V3.02488H7.62144V2.77292H7.4274" stroke="#F7FCFF" stroke-width="0.5"/>
<path d="M8.0437 3.02304H7.85523V2.77813H8.25205V2.5775V3.02304H8.43162V2.5775" stroke="#F7FCFF" stroke-width="0.5"/>
<path d="M8.63363 2.604C8.63363 2.62862 8.63363 3.02492 8.63363 3.02492H8.44724" stroke="#F7FCFF" stroke-width="0.5"/>
<path d="M10.0121 2.58346H8.87508" stroke="#F7FCFF" stroke-width="0.5"/>
<path d="M8.86336 3.03364V2.77264H9.23349V3.02488H9.6075V2.77292H9.41346" stroke="#F7FCFF" stroke-width="0.5"/>
<path d="M10.0298 3.02304H9.84129V2.77813H10.2381V2.5775V3.02304H10.4177V2.5775" stroke="#F7FCFF" stroke-width="0.5"/>
<path d="M10.6197 2.604C10.6197 2.62862 10.6197 3.02492 10.6197 3.02492H10.4333" stroke="#F7FCFF" stroke-width="0.5"/>
<path d="M11.9982 2.58346H10.8611" stroke="#F7FCFF" stroke-width="0.5"/>
<path d="M10.8494 3.03364V2.77264H11.2196V3.02488H11.5936V2.77292H11.3995" stroke="#F7FCFF" stroke-width="0.5"/>
<path d="M12.0158 3.02304H11.8274V2.77813H12.2242V2.5775V3.02304H12.4037V2.5775" stroke="#F7FCFF" stroke-width="0.5"/>
<path d="M12.6058 2.604C12.6058 2.62862 12.6058 3.02492 12.6058 3.02492H12.4194" stroke="#F7FCFF" stroke-width="0.5"/>
<path d="M13.9842 2.58346H12.8472" stroke="#F7FCFF" stroke-width="0.5"/>
<path d="M12.8355 3.03364V2.77264H13.2056V3.02488H13.5796V2.77292H13.3856" stroke="#F7FCFF" stroke-width="0.5"/>
<path d="M13.967 3.02304H13.7786V2.77813H14.1754V2.5775V3.02304H14.355V2.5775" stroke="#F7FCFF" stroke-width="0.5"/>
<path d="M14.557 2.604C14.557 2.62862 14.557 3.02492 14.557 3.02492H14.3706" stroke="#F7FCFF" stroke-width="0.5"/>
<path d="M15.9354 2.58346H14.7984" stroke="#F7FCFF" stroke-width="0.5"/>
<path d="M14.7867 3.03364V2.77264H15.1568V3.02488H15.5309V2.77292H15.3368" stroke="#F7FCFF" stroke-width="0.5"/>
<path d="M16.0228 3.02304H15.8343V2.77813H16.2311V2.5775V3.02304H16.4107V2.5775" stroke="#F7FCFF" stroke-width="0.5"/>
<path fill-rule="evenodd" clip-rule="evenodd" d="M7.30313 4.125C7.30313 4.125 7.5168 4.2375 7.73549 4.2375C7.95417 4.2375 8.17421 4.125 8.17421 4.125V4.275C8.17421 4.275 7.934 4.3875 7.72125 4.3875C7.5085 4.3875 7.30313 4.275 7.30313 4.275V4.125ZM5.72819 5.8953C5.72819 5.0063 6.94918 4.425 6.94918 4.425C6.94918 4.425 6.24347 4.8031 6.24347 5.85804C6.24347 6.91299 6.60982 7.36983 6.60982 7.36983C6.60982 7.36983 5.72819 6.7843 5.72819 5.8953ZM9.84702 5.84624C9.84702 4.95724 8.62717 4.425 8.62717 4.425C8.62717 4.425 9.33289 4.8031 9.33289 5.85804C9.33289 6.91299 8.96654 7.36983 8.96654 7.36983C8.96654 7.36983 9.84702 6.73524 9.84702 5.84624ZM6.56174 6.08879C6.51521 5.20101 7.25375 4.40526 7.25375 4.40526C7.25375 4.40526 6.98494 4.77092 7.04015 5.82442C7.05911 6.18614 7.20159 6.72431 7.38109 7.04159V4.4625H8.13109V7.06396C8.31084 6.76758 8.44933 6.26228 8.46857 5.8953C8.52378 4.8418 8.26787 4.40526 8.26787 4.40526C8.26787 4.40526 9.0064 5.20101 8.95987 6.08879C8.93216 6.61753 8.52532 7.17671 8.20076 7.54253C8.35846 7.5777 8.56985 7.62057 8.86041 7.67793C8.86662 7.71008 8.80187 7.70859 8.67321 7.70563C8.53116 7.70236 8.3112 7.6973 8.02281 7.73375C7.89022 7.86964 7.79793 7.95019 7.79793 7.95019C7.79793 7.95019 7.78334 7.93048 7.76081 7.90321C7.73827 7.93048 7.72368 7.95019 7.72368 7.95019C7.72368 7.95019 7.6314 7.86964 7.49881 7.73375C7.21042 7.6973 6.99046 7.70236 6.8484 7.70563C6.71975 7.70859 6.655 7.71008 6.6612 7.67793C6.95177 7.62057 7.16315 7.5777 7.32085 7.54253C6.9963 7.17671 6.58945 6.61753 6.56174 6.08879Z" fill="#E31D1C"/>
</g>
</g>
<rect width="16" height="12" fill="url(#paint0_linear_14655_23391)" style="mix-blend-mode:overlay"/>
</g>
<defs>
<linearGradient id="paint0_linear_14655_23391" x1="8" y1="0" x2="8" y2="12" gradientUnits="userSpaceOnUse">
<stop stop-color="white" stop-opacity="0.7"/>
<stop offset="1" stop-opacity="0.3"/>
</linearGradient>
<clipPath id="clip0_14655_23391">
<rect width="16" height="12" rx="1" fill="white"/>
</clipPath>
</defs>
</svg>
