<svg width="16" height="12" viewBox="0 0 16 12" fill="none" xmlns="http://www.w3.org/2000/svg">
<g clip-path="url(#clip0_14655_23398)">
<path d="M0 0H16V12H0V0Z" fill="#032EA1"/>
<path d="M0 3H16V9H0V3Z" fill="#E00025"/>
<path fill-rule="evenodd" clip-rule="evenodd" d="M5.167 5.52V5.55H6.112V5.52H7.435V5.58H8.323V5.52H9.649V5.55H10.594V5.52H10.704V6.826H5.004V5.52H5.167ZM5.004 6.826H4.702V7.075H5.392V7.08H4.396V7.5057H5.392V7.51H4.201V7.885H11.56V7.51H10.366V7.5057H11.368V7.08H10.366V7.075H11.062V6.826H10.704V6.834H5.004V6.826ZM10.594 5.52V4.68C10.5798 4.68 10.5702 4.70019 10.5587 4.7246C10.541 4.76188 10.5188 4.809 10.468 4.809C10.423 4.809 10.426 4.755 10.453 4.713C10.474 4.674 10.501 4.623 10.465 4.524C10.438 4.599 10.372 4.623 10.384 4.578C10.3906 4.55243 10.4014 4.53343 10.4116 4.51554C10.4337 4.47676 10.4528 4.44317 10.42 4.359C10.405 4.461 10.339 4.458 10.354 4.398C10.3584 4.38124 10.364 4.36678 10.3693 4.35311C10.3858 4.31053 10.3993 4.27568 10.363 4.203C10.336 4.314 10.303 4.308 10.303 4.239C10.303 4.137 10.303 4.029 10.177 3.99C10.177 3.99 10.168 3.9 10.12 3.9C10.075 3.9 10.066 3.99 10.066 3.99C9.93986 4.02813 9.93993 4.13511 9.94 4.2324C9.94 4.2346 9.94 4.2368 9.94 4.239C9.94 4.308 9.907 4.314 9.88 4.203C9.84366 4.27568 9.85719 4.31053 9.87371 4.35311C9.87902 4.36678 9.88463 4.38124 9.889 4.398C9.904 4.458 9.838 4.461 9.823 4.359C9.79015 4.44317 9.80928 4.47676 9.83137 4.51554C9.84155 4.53343 9.85237 4.55243 9.859 4.578C9.871 4.623 9.805 4.599 9.778 4.524C9.742 4.623 9.769 4.674 9.79 4.713C9.814 4.755 9.82 4.809 9.775 4.809C9.72423 4.809 9.70196 4.76298 9.68433 4.72656C9.67279 4.70272 9.66324 4.683 9.649 4.683V5.52H10.594ZM8.323 5.52H7.435V5.415C7.435 5.36948 7.41033 5.34686 7.38773 5.32614C7.36862 5.30864 7.351 5.29248 7.351 5.265C7.351 5.265 7.339 5.175 7.363 5.133C7.396 5.253 7.453 5.232 7.453 5.181C7.453 5.14225 7.42746 5.1035 7.36933 5.01528L7.354 4.992C7.33 4.959 7.345 4.854 7.375 4.815C7.387 4.905 7.402 4.95 7.441 4.95C7.465 4.95 7.483 4.935 7.483 4.89C7.483 4.85177 7.46717 4.82572 7.45024 4.79788C7.44061 4.78202 7.43062 4.76559 7.423 4.746C7.40188 4.69111 7.41478 4.62895 7.456 4.587C7.45863 4.60278 7.46071 4.61689 7.46255 4.62945L7.46255 4.62947C7.47124 4.68852 7.47484 4.713 7.507 4.713C7.58177 4.68808 7.5185 4.58647 7.49417 4.54739L7.489 4.539C7.471 4.506 7.519 4.437 7.519 4.437C7.543 4.518 7.549 4.524 7.579 4.515C7.615 4.506 7.609 4.455 7.567 4.413C7.54 4.383 7.543 4.344 7.573 4.314C7.603 4.371 7.639 4.368 7.642 4.332L7.618 4.2H7.651L7.639 4.1H8.116L8.104 4.2H8.14L8.113 4.329C8.107 4.365 8.155 4.374 8.185 4.314C8.215 4.344 8.218 4.386 8.191 4.413C8.149 4.455 8.143 4.506 8.179 4.515C8.209 4.524 8.215 4.515 8.239 4.437C8.239 4.437 8.284 4.482 8.269 4.539L8.26454 4.54629C8.24076 4.58484 8.17549 4.69063 8.251 4.713C8.28316 4.713 8.28676 4.68852 8.29544 4.62947L8.29545 4.62945L8.29546 4.62939C8.2973 4.61685 8.29937 4.60275 8.302 4.587C8.34218 4.6296 8.35389 4.69169 8.332 4.746C8.32497 4.76709 8.31427 4.78453 8.30385 4.80152C8.2876 4.82802 8.272 4.85344 8.272 4.89C8.272 4.935 8.293 4.95 8.317 4.95C8.356 4.95 8.371 4.908 8.383 4.815C8.413 4.854 8.428 4.959 8.404 4.995L8.37874 5.03211C8.32692 5.108 8.302 5.1445 8.302 5.181C8.302 5.232 8.362 5.253 8.392 5.133C8.419 5.175 8.407 5.265 8.407 5.265C8.407 5.29274 8.38969 5.30893 8.37078 5.32663C8.34878 5.34721 8.32461 5.36983 8.323 5.415V5.52ZM5.167 5.52V4.68C5.18124 4.68 5.19079 4.70019 5.20233 4.7246C5.21996 4.76188 5.24223 4.809 5.293 4.809C5.338 4.809 5.335 4.755 5.308 4.713C5.287 4.674 5.26 4.623 5.296 4.524C5.323 4.599 5.389 4.623 5.377 4.578C5.37037 4.55243 5.35955 4.53343 5.34937 4.51554C5.32728 4.47676 5.30815 4.44317 5.341 4.359C5.356 4.461 5.422 4.458 5.407 4.398C5.40263 4.38124 5.39702 4.36678 5.39171 4.35311C5.37519 4.31053 5.36166 4.27568 5.398 4.203C5.425 4.314 5.458 4.308 5.458 4.239C5.458 4.137 5.458 4.029 5.584 3.99C5.584 3.99 5.593 3.9 5.641 3.9C5.686 3.9 5.695 3.99 5.695 3.99C5.82114 4.02813 5.82107 4.13511 5.821 4.2324L5.821 4.239C5.821 4.308 5.854 4.314 5.881 4.203C5.91734 4.27568 5.90381 4.31053 5.88729 4.35311C5.88198 4.36678 5.87637 4.38124 5.872 4.398C5.857 4.458 5.923 4.461 5.938 4.359C5.97085 4.44317 5.95172 4.47676 5.92963 4.51554C5.91945 4.53343 5.90863 4.55243 5.902 4.578C5.89 4.623 5.956 4.599 5.983 4.524C6.019 4.623 5.992 4.674 5.971 4.713C5.947 4.755 5.941 4.809 5.986 4.809C6.03677 4.809 6.05904 4.76298 6.07667 4.72656C6.08821 4.70272 6.09776 4.683 6.112 4.683V5.52H5.167ZM7.81 4.093C7.81 4.093 7.807 3.97 7.879 3.967C7.948 3.967 7.945 4.093 7.945 4.093H7.81Z" fill="white"/>
<path d="M5.167 5.55H5.152L5.167 5.565V5.55ZM6.112 5.55V5.565L6.127 5.55H6.112ZM7.435 5.58H7.42L7.435 5.595V5.58ZM8.323 5.58V5.595L8.338 5.58H8.323ZM9.649 5.55H9.634L9.649 5.565V5.55ZM10.594 5.55V5.565L10.609 5.55H10.594ZM10.704 5.52H10.719L10.704 5.505V5.52ZM5.004 5.52V5.505L4.989 5.52H5.004ZM4.702 6.826V6.811L4.687 6.826H4.702ZM4.702 7.075H4.687L4.702 7.09V7.075ZM5.392 7.075H5.407L5.392 7.06V7.075ZM5.392 7.08V7.095L5.407 7.08H5.392ZM4.396 7.08V7.065L4.381 7.08H4.396ZM4.396 7.5057H4.381L4.396 7.5207V7.5057ZM5.392 7.5057H5.407L5.392 7.4907V7.5057ZM5.392 7.51V7.525L5.407 7.51H5.392ZM4.201 7.51V7.495L4.186 7.51H4.201ZM4.201 7.885H4.186L4.201 7.9V7.885ZM11.56 7.885V7.9L11.575 7.885H11.56ZM11.56 7.51H11.575L11.56 7.495V7.51ZM10.366 7.51H10.351L10.366 7.525V7.51ZM10.366 7.5057V7.4907L10.351 7.5057H10.366ZM11.368 7.5057V7.5207L11.383 7.5057H11.368ZM11.368 7.08H11.383L11.368 7.065V7.08ZM10.366 7.08H10.351L10.366 7.095V7.08ZM10.366 7.075V7.06L10.351 7.075H10.366ZM11.062 7.075V7.09L11.077 7.075H11.062ZM11.062 6.826H11.077L11.062 6.811V6.826ZM10.704 6.834V6.849L10.719 6.834H10.704ZM5.004 6.834H4.989L5.004 6.849V6.834ZM10.594 4.68H10.609L10.594 4.665V4.68ZM10.5587 4.7246L10.5722 4.73101V4.73101L10.5587 4.7246ZM10.453 4.713L10.4657 4.72114L10.4662 4.72011L10.453 4.713ZM10.465 4.524L10.4791 4.51887L10.4509 4.51892L10.465 4.524ZM10.384 4.578L10.3985 4.58186L10.3985 4.58176L10.384 4.578ZM10.4116 4.51554L10.3986 4.50812V4.50812L10.4116 4.51554ZM10.42 4.359L10.434 4.35355L10.4052 4.35682L10.42 4.359ZM10.354 4.398L10.3395 4.39421L10.3394 4.39436L10.354 4.398ZM10.3693 4.35311L10.3553 4.34769V4.34769L10.3693 4.35311ZM10.363 4.203L10.3764 4.19629L10.3484 4.19945L10.363 4.203ZM10.177 3.99L10.1621 3.99149L10.1726 4.00433L10.177 3.99ZM10.066 3.99L10.0703 4.00436L10.0809 3.99149L10.066 3.99ZM9.94 4.2324L9.955 4.23239V4.23239L9.94 4.2324ZM9.88 4.203L9.89458 4.19945L9.86658 4.19629L9.88 4.203ZM9.87371 4.35311L9.8877 4.34769V4.34769L9.87371 4.35311ZM9.889 4.398L9.90355 4.39436L9.90351 4.39421L9.889 4.398ZM9.823 4.359L9.83784 4.35682L9.80903 4.35355L9.823 4.359ZM9.83137 4.51554L9.8444 4.50812V4.50812L9.83137 4.51554ZM9.859 4.578L9.84448 4.58176L9.84451 4.58186L9.859 4.578ZM9.778 4.524L9.79211 4.51892L9.7639 4.51887L9.778 4.524ZM9.79 4.713L9.77679 4.72011L9.77698 4.72044L9.79 4.713ZM9.68433 4.72656L9.67083 4.7331V4.7331L9.68433 4.72656ZM9.649 4.683V4.668L9.634 4.683H9.649ZM7.38773 5.32614L7.37759 5.3372L7.38773 5.32614ZM7.351 5.265H7.36613L7.36587 5.26302L7.351 5.265ZM7.363 5.133L7.37746 5.12902L7.34998 5.12556L7.363 5.133ZM7.36933 5.01528L7.3568 5.02353L7.3568 5.02353L7.36933 5.01528ZM7.354 4.992L7.36654 4.98374L7.36613 4.98318L7.354 4.992ZM7.375 4.815L7.38987 4.81302L7.36311 4.80585L7.375 4.815ZM7.45024 4.79788L7.46306 4.79008V4.79008L7.45024 4.79788ZM7.423 4.746L7.409 4.75139L7.40902 4.75144L7.423 4.746ZM7.456 4.587L7.4708 4.58453L7.4453 4.57649L7.456 4.587ZM7.46255 4.62945L7.44771 4.63163L7.44774 4.63184L7.46255 4.62945ZM7.46255 4.62947L7.4774 4.62728L7.47736 4.62707L7.46255 4.62947ZM7.507 4.713V4.72881L7.51174 4.72723L7.507 4.713ZM7.49417 4.54739L7.4814 4.55526L7.48144 4.55532L7.49417 4.54739ZM7.489 4.539L7.47581 4.54619L7.47623 4.54687L7.489 4.539ZM7.519 4.437L7.53338 4.43274L7.50669 4.42843L7.519 4.437ZM7.579 4.515L7.57536 4.50043L7.57469 4.50063L7.579 4.515ZM7.567 4.413L7.55584 4.42305L7.55639 4.42361L7.567 4.413ZM7.573 4.314L7.58627 4.30701L7.56239 4.30339L7.573 4.314ZM7.642 4.332L7.65748 4.33329L7.65676 4.32932L7.642 4.332ZM7.618 4.2V4.185L7.60324 4.20268L7.618 4.2ZM7.651 4.2V4.215L7.66589 4.19821L7.651 4.2ZM7.639 4.1V4.085L7.62411 4.10179L7.639 4.1ZM8.116 4.1L8.13089 4.10179L8.116 4.085V4.1ZM8.104 4.2L8.08911 4.19821L8.104 4.215V4.2ZM8.14 4.2L8.15468 4.20307L8.14 4.185V4.2ZM8.113 4.329L8.09831 4.32592L8.0982 4.32653L8.113 4.329ZM8.185 4.314L8.19561 4.30339L8.17158 4.30729L8.185 4.314ZM8.191 4.413L8.18039 4.40239V4.40239L8.191 4.413ZM8.179 4.515L8.18332 4.50062L8.18264 4.50045L8.179 4.515ZM8.239 4.437L8.24961 4.42639L8.22466 4.43259L8.239 4.437ZM8.269 4.539L8.28236 4.54718L8.28351 4.54282L8.269 4.539ZM8.26454 4.54629L8.2773 4.55416L8.27733 4.55412L8.26454 4.54629ZM8.251 4.713L8.24656 4.728H8.251V4.713ZM8.29544 4.62947L8.31029 4.63165L8.31032 4.63143L8.29544 4.62947ZM8.29545 4.62945L8.28063 4.62707L8.28058 4.62748L8.29545 4.62945ZM8.29546 4.62939L8.31027 4.63177L8.3103 4.63157L8.29546 4.62939ZM8.302 4.587L8.31291 4.57671L8.2872 4.58453L8.302 4.587ZM8.332 4.746L8.31806 4.74038L8.31777 4.74126L8.332 4.746ZM8.30385 4.80152L8.31664 4.80936V4.80936L8.30385 4.80152ZM8.383 4.815L8.39489 4.80585L8.36812 4.81308L8.383 4.815ZM8.404 4.995L8.4164 5.00344L8.41648 5.00332L8.404 4.995ZM8.37874 5.03211L8.39113 5.04057L8.39114 5.04055L8.37874 5.03211ZM8.392 5.133L8.40462 5.12489L8.37745 5.12936L8.392 5.133ZM8.407 5.265L8.392 5.263V5.265H8.407ZM8.37078 5.32663L8.36053 5.31568V5.31568L8.37078 5.32663ZM8.323 5.415L8.308 5.41446V5.415H8.323ZM5.167 4.68V4.665L5.152 4.68H5.167ZM5.20233 4.7246L5.21589 4.71819L5.21589 4.71819L5.20233 4.7246ZM5.308 4.713L5.29475 4.72013L5.29538 4.72111L5.308 4.713ZM5.296 4.524L5.31011 4.51892L5.2819 4.51887L5.296 4.524ZM5.377 4.578L5.36248 4.58176L5.36251 4.58186L5.377 4.578ZM5.34937 4.51554L5.3624 4.50812V4.50812L5.34937 4.51554ZM5.341 4.359L5.35584 4.35682L5.32703 4.35355L5.341 4.359ZM5.407 4.398L5.42155 4.39436L5.42151 4.39421L5.407 4.398ZM5.39171 4.35311L5.37773 4.35854V4.35854L5.39171 4.35311ZM5.398 4.203L5.41258 4.19945L5.38458 4.19629L5.398 4.203ZM5.584 3.99L5.58844 4.00433L5.59893 3.99149L5.584 3.99ZM5.695 3.99L5.68007 3.99149L5.69066 4.00436L5.695 3.99ZM5.821 4.2324L5.806 4.23239V4.23239L5.821 4.2324ZM5.821 4.239L5.806 4.23899V4.239H5.821ZM5.881 4.203L5.89442 4.19629L5.86643 4.19945L5.881 4.203ZM5.88729 4.35311L5.90127 4.35854L5.88729 4.35311ZM5.872 4.398L5.85749 4.39421L5.85745 4.39436L5.872 4.398ZM5.938 4.359L5.95197 4.35355L5.92316 4.35682L5.938 4.359ZM5.92963 4.51554L5.9166 4.50812V4.50812L5.92963 4.51554ZM5.902 4.578L5.91649 4.58186L5.91652 4.58176L5.902 4.578ZM5.983 4.524L5.9971 4.51887L5.96889 4.51892L5.983 4.524ZM5.971 4.713L5.98403 4.72044L5.98421 4.72011L5.971 4.713ZM6.07667 4.72656L6.06317 4.72003L6.07667 4.72656ZM6.112 4.683H6.127L6.112 4.668V4.683ZM7.879 3.967V3.95199L7.87838 3.95201L7.879 3.967ZM7.81 4.093L7.795 4.09337L7.81 4.108V4.093ZM7.945 4.093V4.108L7.96 4.09336L7.945 4.093ZM5.182 5.55V5.52H5.152V5.55H5.182ZM6.112 5.535H5.167V5.565H6.112V5.535ZM6.097 5.52V5.55H6.127V5.52H6.097ZM7.435 5.505H6.112V5.535H7.435V5.505ZM7.45 5.58V5.52H7.42V5.58H7.45ZM8.323 5.565H7.435V5.595H8.323V5.565ZM8.308 5.52V5.58H8.338V5.52H8.308ZM9.649 5.505H8.323V5.535H9.649V5.505ZM9.664 5.55V5.52H9.634V5.55H9.664ZM10.594 5.535H9.649V5.565H10.594V5.535ZM10.579 5.52V5.55H10.609V5.52H10.579ZM10.704 5.505H10.594V5.535H10.704V5.505ZM10.719 6.826V5.52H10.689V6.826H10.719ZM10.704 6.811H5.004V6.841H10.704V6.811ZM4.989 5.52V6.826H5.019V5.52H4.989ZM5.167 5.505H5.004V5.535H5.167V5.505ZM5.004 6.811H4.702V6.841H5.004V6.811ZM4.687 6.826V7.075H4.717V6.826H4.687ZM4.702 7.09H5.392V7.06H4.702V7.09ZM5.377 7.075V7.08H5.407V7.075H5.377ZM5.392 7.065H4.396V7.095H5.392V7.065ZM4.381 7.08V7.5057H4.411V7.08H4.381ZM4.396 7.5207H5.392V7.4907H4.396V7.5207ZM5.377 7.5057V7.51H5.407V7.5057H5.377ZM5.392 7.495H4.201V7.525H5.392V7.495ZM4.186 7.51V7.885H4.216V7.51H4.186ZM4.201 7.9H11.56V7.87H4.201V7.9ZM11.575 7.885V7.51H11.545V7.885H11.575ZM11.56 7.495H10.366V7.525H11.56V7.495ZM10.381 7.51V7.5057H10.351V7.51H10.381ZM10.366 7.5207H11.368V7.4907H10.366V7.5207ZM11.383 7.5057V7.08H11.353V7.5057H11.383ZM11.368 7.065H10.366V7.095H11.368V7.065ZM10.381 7.08V7.075H10.351V7.08H10.381ZM10.366 7.09H11.062V7.06H10.366V7.09ZM11.077 7.075V6.826H11.047V7.075H11.077ZM11.062 6.811H10.704V6.841H11.062V6.811ZM10.719 6.834V6.826H10.689V6.834H10.719ZM5.004 6.849H10.704V6.819H5.004V6.849ZM4.989 6.826V6.834H5.019V6.826H4.989ZM10.579 4.68V5.52H10.609V4.68H10.579ZM10.5722 4.73101C10.5782 4.71841 10.5829 4.70855 10.5877 4.70169C10.59 4.69835 10.5918 4.69652 10.593 4.6956C10.5936 4.69518 10.5939 4.69504 10.594 4.69501C10.594 4.69499 10.5941 4.69499 10.594 4.695C10.594 4.695 10.594 4.695 10.594 4.695C10.594 4.695 10.594 4.695 10.594 4.695V4.665C10.579 4.665 10.5691 4.67572 10.563 4.68461C10.5565 4.69394 10.5507 4.70638 10.5451 4.71819L10.5722 4.73101ZM10.468 4.824C10.4989 4.824 10.521 4.80936 10.5371 4.79055C10.5528 4.77231 10.5636 4.74929 10.5722 4.73101L10.5451 4.71819C10.5361 4.7372 10.527 4.75637 10.5144 4.77101C10.5023 4.78508 10.4879 4.794 10.468 4.794V4.824ZM10.4404 4.70489C10.4258 4.72764 10.4167 4.7549 10.4185 4.77795C10.4195 4.78967 10.4234 4.80147 10.4322 4.81042C10.4412 4.81959 10.4536 4.824 10.468 4.824V4.794C10.4599 4.794 10.4558 4.79166 10.4536 4.78939C10.4511 4.7869 10.449 4.78258 10.4485 4.77555C10.4473 4.7611 10.4532 4.74036 10.4656 4.72111L10.4404 4.70489ZM10.4509 4.52913C10.4682 4.57661 10.47 4.61151 10.4656 4.63859C10.4611 4.66587 10.4503 4.68642 10.4398 4.70589L10.4662 4.72011C10.4767 4.70058 10.4899 4.67613 10.4952 4.64341C10.5005 4.61049 10.4978 4.57038 10.4791 4.51887L10.4509 4.52913ZM10.3695 4.57413C10.3661 4.58677 10.3659 4.60359 10.3802 4.61201C10.3865 4.61573 10.3934 4.61615 10.3993 4.61532C10.4053 4.61448 10.4113 4.61225 10.4169 4.60925C10.4392 4.59743 10.4646 4.56939 10.4791 4.52908L10.4509 4.51892C10.4384 4.55361 10.4173 4.57507 10.4028 4.58275C10.3993 4.58462 10.3967 4.58539 10.3952 4.58561C10.3935 4.58584 10.394 4.58536 10.3954 4.58618C10.3998 4.58879 10.3959 4.59173 10.3985 4.58186L10.3695 4.57413ZM10.3986 4.50812C10.3884 4.52599 10.3767 4.54653 10.3695 4.57424L10.3985 4.58176C10.4046 4.55833 10.4145 4.54088 10.4247 4.52297L10.3986 4.50812ZM10.406 4.36445C10.4219 4.40503 10.4245 4.43176 10.4216 4.45215C10.4186 4.47272 10.4098 4.4885 10.3986 4.50812L10.4247 4.52297C10.4356 4.5038 10.4474 4.4834 10.4513 4.45644C10.4552 4.42929 10.451 4.39714 10.434 4.35355L10.406 4.36445ZM10.3394 4.39436C10.3352 4.41143 10.3359 4.42746 10.343 4.43933C10.3467 4.44543 10.3521 4.45029 10.3589 4.45291C10.3657 4.45553 10.3729 4.45557 10.3797 4.45372C10.3929 4.45011 10.4048 4.43939 10.414 4.42441C10.4234 4.40916 10.4309 4.38817 10.4348 4.36118L10.4052 4.35682C10.4016 4.38083 10.3952 4.39772 10.3885 4.40871C10.3815 4.41998 10.3751 4.42389 10.3718 4.42478C10.3703 4.42518 10.3698 4.42494 10.3697 4.42493C10.3697 4.42491 10.3696 4.42487 10.3695 4.42475C10.3693 4.42462 10.369 4.42434 10.3687 4.4238C10.3673 4.42141 10.3653 4.41457 10.3686 4.40164L10.3394 4.39436ZM10.3553 4.34769C10.35 4.36129 10.3441 4.37651 10.3395 4.39421L10.3685 4.40179C10.3726 4.38597 10.3779 4.37226 10.3833 4.35854L10.3553 4.34769ZM10.3496 4.20971C10.367 4.24449 10.3718 4.26885 10.371 4.28876C10.3702 4.309 10.3637 4.32611 10.3553 4.34769L10.3833 4.35854C10.3914 4.33753 10.3999 4.31592 10.401 4.28993C10.402 4.2636 10.3954 4.23419 10.3764 4.19629L10.3496 4.20971ZM10.288 4.239C10.288 4.25705 10.2901 4.27263 10.2947 4.28381C10.297 4.28935 10.3005 4.29523 10.306 4.29929C10.3122 4.30387 10.3199 4.30521 10.3275 4.30278C10.3342 4.30062 10.3395 4.29595 10.3436 4.29103C10.3479 4.28595 10.3519 4.27945 10.3557 4.27179C10.3632 4.25647 10.3707 4.23487 10.3776 4.20654L10.3484 4.19945C10.3418 4.22663 10.335 4.24591 10.3288 4.25852C10.3257 4.26483 10.3229 4.26906 10.3207 4.27169C10.3183 4.27449 10.3174 4.2745 10.3183 4.27422C10.32 4.27366 10.3223 4.27407 10.3237 4.27511C10.3244 4.27562 10.3237 4.27537 10.3224 4.27238C10.32 4.26649 10.318 4.25545 10.318 4.239H10.288ZM10.1726 4.00433C10.2309 4.02239 10.2589 4.05561 10.2731 4.09587C10.2878 4.13761 10.288 4.18736 10.288 4.239H10.318C10.318 4.18864 10.3182 4.13339 10.3014 4.08588C10.2841 4.03689 10.2491 3.9966 10.1814 3.97567L10.1726 4.00433ZM10.12 3.915C10.1267 3.915 10.1325 3.91794 10.138 3.9241C10.1438 3.93053 10.1486 3.93978 10.1524 3.95016C10.1562 3.96039 10.1586 3.97078 10.1601 3.97872C10.1608 3.98266 10.1613 3.98593 10.1617 3.98818C10.1618 3.98931 10.1619 3.99018 10.162 3.99074C10.162 3.99103 10.162 3.99123 10.1621 3.99136C10.1621 3.99142 10.1621 3.99147 10.1621 3.99149C10.1621 3.9915 10.1621 3.99151 10.1621 3.99151C10.1621 3.99151 10.1621 3.99151 10.1621 3.9915C10.1621 3.9915 10.1621 3.9915 10.1621 3.9915C10.1621 3.9915 10.1621 3.99149 10.177 3.99C10.1919 3.98851 10.1919 3.9885 10.1919 3.9885C10.1919 3.9885 10.1919 3.98849 10.1919 3.98849C10.1919 3.98848 10.1919 3.98847 10.1919 3.98846C10.1919 3.98844 10.1919 3.98841 10.1919 3.98838C10.1919 3.98831 10.1919 3.98823 10.1919 3.98812C10.1919 3.98791 10.1918 3.98761 10.1918 3.98723C10.1917 3.98648 10.1916 3.98542 10.1914 3.98408C10.191 3.98141 10.1904 3.97765 10.1896 3.97315C10.1879 3.96422 10.1851 3.95211 10.1806 3.93984C10.1761 3.92772 10.1697 3.91447 10.1603 3.90403C10.1507 3.89331 10.1373 3.885 10.12 3.885V3.915ZM10.066 3.99C10.0809 3.99149 10.0809 3.9915 10.0809 3.9915C10.0809 3.9915 10.0809 3.9915 10.0809 3.9915C10.0809 3.9915 10.0809 3.99151 10.0809 3.9915C10.0809 3.9915 10.0809 3.9915 10.0809 3.99149C10.0809 3.99146 10.0809 3.99142 10.0809 3.99135C10.081 3.99122 10.081 3.99101 10.081 3.99073C10.0811 3.99015 10.0812 3.98928 10.0813 3.98815C10.0816 3.98588 10.0821 3.9826 10.0829 3.97864C10.0843 3.97067 10.0867 3.96023 10.0903 3.94995C10.0939 3.93951 10.0985 3.93021 10.104 3.92378C10.1093 3.91757 10.1144 3.915 10.12 3.915V3.885C10.1031 3.885 10.0902 3.89367 10.0811 3.90435C10.0723 3.91479 10.0662 3.92799 10.062 3.94004C10.0577 3.95227 10.055 3.96433 10.0534 3.97323C10.0525 3.97771 10.052 3.98146 10.0516 3.98412C10.0514 3.98544 10.0513 3.9865 10.0512 3.98725C10.0512 3.98762 10.0511 3.98792 10.0511 3.98813C10.0511 3.98824 10.0511 3.98832 10.0511 3.98838C10.0511 3.98841 10.0511 3.98844 10.0511 3.98846C10.0511 3.98847 10.0511 3.98848 10.0511 3.98849C10.0511 3.98849 10.0511 3.9885 10.0511 3.9885C10.0511 3.9885 10.0511 3.98851 10.066 3.99ZM9.955 4.23239C9.95496 4.18311 9.9551 4.13484 9.96978 4.0941C9.98394 4.05484 10.0119 4.02204 10.0703 4.00436L10.0617 3.97564C9.994 3.9961 9.95889 4.03585 9.94156 4.08393C9.92476 4.13053 9.92496 4.18439 9.925 4.23241L9.955 4.23239ZM9.955 4.239C9.955 4.2368 9.955 4.23459 9.955 4.23239L9.925 4.23241C9.925 4.23461 9.925 4.23681 9.925 4.239H9.955ZM9.86543 4.20654C9.87232 4.23487 9.87975 4.25647 9.88731 4.27179C9.89109 4.27945 9.8951 4.28595 9.89938 4.29103C9.90353 4.29595 9.90885 4.30062 9.91552 4.30278C9.92308 4.30521 9.93078 4.30387 9.93702 4.29929C9.94253 4.29523 9.94601 4.28935 9.94829 4.28381C9.9529 4.27263 9.955 4.25705 9.955 4.239H9.925C9.925 4.25545 9.92298 4.26649 9.92055 4.27238C9.91932 4.27537 9.91856 4.27562 9.91925 4.27511C9.92067 4.27407 9.92299 4.27366 9.92473 4.27422C9.92559 4.2745 9.92468 4.27449 9.92232 4.27169C9.9201 4.26906 9.91733 4.26483 9.91422 4.25852C9.908 4.24591 9.90118 4.22663 9.89458 4.19945L9.86543 4.20654ZM9.8877 4.34769C9.87932 4.32611 9.87281 4.309 9.87202 4.28876C9.87124 4.26885 9.87602 4.24449 9.89342 4.20971L9.86658 4.19629C9.84764 4.23419 9.84101 4.2636 9.84204 4.28993C9.84306 4.31592 9.85158 4.33753 9.85973 4.35854L9.8877 4.34769ZM9.90351 4.39421C9.89889 4.37651 9.89298 4.36129 9.8877 4.34769L9.85973 4.35854C9.86505 4.37226 9.87036 4.38597 9.87449 4.40179L9.90351 4.39421ZM9.80816 4.36118C9.81213 4.38817 9.8196 4.40916 9.82897 4.42441C9.83817 4.43939 9.85005 4.45011 9.8633 4.45372C9.87009 4.45557 9.87729 4.45553 9.88407 4.45291C9.89087 4.45029 9.89626 4.44543 9.89996 4.43933C9.90714 4.42746 9.90782 4.41143 9.90355 4.39436L9.87445 4.40164C9.87768 4.41457 9.87573 4.42141 9.87429 4.4238C9.87396 4.42434 9.87369 4.42462 9.87354 4.42475C9.8734 4.42487 9.87331 4.42491 9.87326 4.42493C9.87324 4.42494 9.87266 4.42518 9.8712 4.42478C9.86795 4.42389 9.86145 4.41998 9.85453 4.40871C9.84778 4.39772 9.84137 4.38083 9.83784 4.35682L9.80816 4.36118ZM9.8444 4.50812C9.83323 4.4885 9.82441 4.47272 9.82143 4.45215C9.81848 4.43176 9.82114 4.40503 9.83697 4.36445L9.80903 4.35355C9.79201 4.39714 9.78781 4.42929 9.79174 4.45644C9.79564 4.4834 9.80742 4.5038 9.81833 4.52297L9.8444 4.50812ZM9.87352 4.57424C9.86634 4.54653 9.85458 4.52599 9.8444 4.50812L9.81833 4.52297C9.82853 4.54088 9.8384 4.55833 9.84448 4.58176L9.87352 4.57424ZM9.76389 4.52908C9.7784 4.56939 9.80382 4.59743 9.82609 4.60925C9.83175 4.61225 9.83772 4.61448 9.84368 4.61532C9.84957 4.61615 9.85653 4.61573 9.86283 4.61201C9.8771 4.60359 9.87686 4.58677 9.87349 4.57413L9.84451 4.58186C9.84714 4.59173 9.84315 4.58879 9.84758 4.58618C9.84896 4.58536 9.84947 4.58584 9.84785 4.58561C9.84629 4.58539 9.84369 4.58462 9.84016 4.58275C9.82568 4.57507 9.8046 4.55361 9.79211 4.51892L9.76389 4.52908ZM9.80321 4.70589C9.79272 4.68642 9.78186 4.66587 9.77743 4.63859C9.77303 4.61151 9.77483 4.57661 9.7921 4.52913L9.7639 4.51887C9.74517 4.57038 9.74247 4.61049 9.74782 4.64341C9.75314 4.67613 9.76628 4.70058 9.77679 4.72011L9.80321 4.70589ZM9.775 4.824C9.78938 4.824 9.80177 4.81958 9.81062 4.81019C9.8192 4.80109 9.82266 4.7892 9.82335 4.77765C9.82471 4.75491 9.81582 4.72796 9.80302 4.70556L9.77698 4.72044C9.78818 4.74004 9.79429 4.76109 9.7934 4.77585C9.79297 4.78305 9.79099 4.78728 9.78879 4.78962C9.78685 4.79167 9.78312 4.794 9.775 4.794V4.824ZM9.67083 4.7331C9.67947 4.75094 9.69027 4.77348 9.70597 4.79134C9.72218 4.80977 9.74427 4.824 9.775 4.824V4.794C9.75496 4.794 9.74054 4.78522 9.7285 4.77153C9.71597 4.75727 9.70682 4.7386 9.69783 4.72003L9.67083 4.7331ZM9.649 4.698C9.64901 4.698 9.64901 4.69799 9.64911 4.69803C9.64922 4.69807 9.64956 4.69821 9.65013 4.69862C9.65136 4.69951 9.65315 4.70128 9.65544 4.70452C9.66017 4.71119 9.66487 4.72078 9.67083 4.7331L9.69783 4.72003C9.69225 4.7085 9.68641 4.69632 9.67991 4.68716C9.67369 4.67839 9.66383 4.668 9.649 4.668V4.698ZM9.664 5.52V4.683H9.634V5.52H9.664ZM10.594 5.505H9.649V5.535H10.594V5.505ZM7.435 5.535H8.323V5.505H7.435V5.535ZM7.42 5.415V5.52H7.45V5.415H7.42ZM7.37759 5.3372C7.4001 5.35783 7.42 5.37651 7.42 5.415H7.45C7.45 5.36244 7.42056 5.33589 7.39786 5.31509L7.37759 5.3372ZM7.336 5.265C7.336 5.30002 7.35928 5.32042 7.37759 5.3372L7.39786 5.31509C7.37797 5.29685 7.366 5.28495 7.366 5.265H7.336ZM7.34998 5.12556C7.34269 5.1383 7.33856 5.15382 7.33618 5.16902C7.33377 5.18438 7.333 5.2004 7.333 5.21475C7.333 5.22914 7.33378 5.24213 7.33455 5.25151C7.33494 5.25621 7.33533 5.26003 7.33562 5.2627C7.33577 5.26403 7.33589 5.26508 7.33598 5.2658C7.33603 5.26617 7.33606 5.26645 7.33609 5.26665C7.3361 5.26674 7.33611 5.26682 7.33612 5.26688C7.33612 5.26691 7.33612 5.26693 7.33613 5.26695C7.33613 5.26696 7.33613 5.26696 7.33613 5.26697C7.33613 5.26697 7.33613 5.26697 7.33613 5.26698C7.33613 5.26698 7.33613 5.26698 7.351 5.265C7.36587 5.26302 7.36587 5.26302 7.36587 5.26302C7.36587 5.26302 7.36587 5.26302 7.36587 5.26302C7.36587 5.26302 7.36587 5.26302 7.36587 5.26302C7.36587 5.26302 7.36587 5.26301 7.36587 5.26299C7.36586 5.26296 7.36585 5.26291 7.36585 5.26283C7.36583 5.26269 7.3658 5.26246 7.36576 5.26215C7.36568 5.26154 7.36557 5.26061 7.36544 5.2594C7.36517 5.25698 7.36481 5.25344 7.36445 5.24905C7.36372 5.24024 7.363 5.22811 7.363 5.21475C7.363 5.20135 7.36373 5.18699 7.36582 5.17367C7.36794 5.16017 7.37131 5.1487 7.37602 5.14044L7.34998 5.12556ZM7.438 5.181C7.438 5.19117 7.43513 5.19847 7.4319 5.20247C7.42897 5.20611 7.42609 5.20692 7.42309 5.20637C7.41924 5.20566 7.41201 5.20204 7.40323 5.18963C7.39458 5.17741 7.38543 5.158 7.37746 5.12902L7.34854 5.13698C7.35707 5.168 7.36742 5.19097 7.37874 5.20696C7.38993 5.22277 7.40314 5.23321 7.41767 5.23588C7.43304 5.2387 7.44646 5.23221 7.45525 5.22131C7.46374 5.21078 7.468 5.19633 7.468 5.181H7.438ZM7.3568 5.02353C7.38604 5.0679 7.40649 5.09896 7.41973 5.12376C7.43288 5.14838 7.438 5.16519 7.438 5.181H7.468C7.468 5.15806 7.46035 5.13613 7.4462 5.10962C7.43214 5.08331 7.41075 5.05088 7.38185 5.00702L7.3568 5.02353ZM7.34147 5.00025L7.3568 5.02353L7.38185 5.00703L7.36653 4.98375L7.34147 5.00025ZM7.36311 4.80585C7.34571 4.82848 7.334 4.86762 7.32937 4.90385C7.32702 4.92231 7.32637 4.94091 7.32801 4.95739C7.32961 4.97343 7.33353 4.98936 7.34187 5.00082L7.36613 4.98318C7.36247 4.97814 7.35927 4.96857 7.35786 4.95442C7.3565 4.94071 7.35699 4.92444 7.35913 4.90765C7.3635 4.87338 7.37429 4.84052 7.38689 4.82415L7.36311 4.80585ZM7.441 4.935C7.43442 4.935 7.42951 4.9332 7.42525 4.92982C7.42069 4.92619 7.41604 4.92006 7.41155 4.91009C7.40243 4.88982 7.39588 4.85807 7.38987 4.81302L7.36013 4.81698C7.36612 4.86193 7.37307 4.89768 7.3842 4.92241C7.38984 4.93494 7.397 4.94568 7.40659 4.95331C7.41649 4.96117 7.42808 4.965 7.441 4.965V4.935ZM7.468 4.89C7.468 4.9109 7.46376 4.92192 7.45929 4.9275C7.45533 4.93245 7.44969 4.935 7.441 4.935V4.965C7.45631 4.965 7.47167 4.96005 7.48271 4.94624C7.49325 4.93308 7.498 4.9141 7.498 4.89H7.468ZM7.43742 4.80567C7.45444 4.83367 7.468 4.85643 7.468 4.89H7.498C7.498 4.8471 7.47989 4.81777 7.46306 4.79008L7.43742 4.80567ZM7.40902 4.75144C7.41718 4.77243 7.42785 4.78992 7.43742 4.80567L7.46306 4.79008C7.45336 4.77413 7.44405 4.75875 7.43698 4.74056L7.40902 4.75144ZM7.4453 4.57649C7.39996 4.62263 7.38577 4.69101 7.409 4.75139L7.437 4.74061C7.41799 4.69121 7.4296 4.63527 7.4667 4.59751L7.4453 4.57649ZM7.47739 4.62727C7.47555 4.61472 7.47345 4.60047 7.4708 4.58453L7.4412 4.58947C7.44381 4.60508 7.44586 4.61907 7.44771 4.63163L7.47739 4.62727ZM7.47736 4.62707L7.47736 4.62705L7.44774 4.63184L7.44775 4.63186L7.47736 4.62707ZM7.507 4.698C7.50083 4.698 7.49768 4.69683 7.49583 4.69564C7.49402 4.69447 7.4919 4.69228 7.48968 4.68728C7.48472 4.67614 7.48189 4.65785 7.4774 4.62728L7.44771 4.63165C7.4519 4.66013 7.45521 4.68361 7.46227 4.69947C7.46605 4.70798 7.47141 4.7156 7.47959 4.72086C7.48773 4.72611 7.49709 4.728 7.507 4.728V4.698ZM7.48144 4.55532C7.49381 4.57519 7.51449 4.60858 7.52332 4.63961C7.52775 4.65515 7.52858 4.66808 7.52563 4.67769C7.52301 4.68619 7.51689 4.69389 7.50226 4.69877L7.51174 4.72723C7.5345 4.71965 7.54851 4.7053 7.5543 4.68652C7.55974 4.66884 7.55726 4.64926 7.55218 4.63139C7.54199 4.59561 7.51886 4.55866 7.5069 4.53946L7.48144 4.55532ZM7.47623 4.54687L7.4814 4.55526L7.50694 4.53952L7.50177 4.53113L7.47623 4.54687ZM7.519 4.437C7.50669 4.42843 7.50668 4.42844 7.50668 4.42844C7.50668 4.42844 7.50668 4.42844 7.50668 4.42845C7.50667 4.42845 7.50667 4.42846 7.50666 4.42847C7.50665 4.42848 7.50664 4.4285 7.50662 4.42852C7.50659 4.42857 7.50655 4.42863 7.50649 4.42871C7.50639 4.42887 7.50623 4.42909 7.50604 4.42938C7.50565 4.42995 7.50511 4.43077 7.50442 4.43181C7.50306 4.43389 7.50116 4.43687 7.49894 4.44054C7.49453 4.44785 7.48879 4.45803 7.4836 4.4694C7.47846 4.48067 7.4736 4.49368 7.47132 4.50652C7.46909 4.51911 7.46898 4.53361 7.47583 4.54618L7.50217 4.53182C7.50002 4.52789 7.49916 4.52139 7.50086 4.51176C7.50252 4.50239 7.50629 4.49195 7.5109 4.48185C7.51546 4.47185 7.5206 4.46272 7.52462 4.45605C7.52662 4.45274 7.52833 4.45007 7.52952 4.44824C7.53012 4.44734 7.53058 4.44664 7.53089 4.44618C7.53105 4.44596 7.53116 4.44579 7.53123 4.44569C7.53127 4.44563 7.53129 4.4456 7.53131 4.44558C7.53131 4.44557 7.53132 4.44556 7.53132 4.44556C7.53132 4.44556 7.53132 4.44556 7.53132 4.44556C7.53132 4.44556 7.53132 4.44556 7.53132 4.44556C7.53132 4.44556 7.53131 4.44557 7.519 4.437ZM7.57469 4.50063C7.56719 4.50288 7.56381 4.50329 7.56197 4.50309C7.56148 4.50303 7.56061 4.50311 7.55855 4.50048C7.55592 4.49714 7.55263 4.4909 7.54834 4.47938C7.54413 4.4681 7.53938 4.45297 7.53338 4.43274L7.50462 4.44126C7.51062 4.46153 7.51562 4.47752 7.52023 4.48987C7.52474 4.50197 7.52933 4.51186 7.53496 4.51902C7.54114 4.52688 7.5489 4.53184 7.55872 4.53291C7.56719 4.53384 7.57581 4.53162 7.58331 4.52937L7.57469 4.50063ZM7.55639 4.42361C7.57578 4.44299 7.58561 4.46329 7.58735 4.47813C7.58821 4.48545 7.58703 4.49053 7.58521 4.49371C7.58357 4.49657 7.58076 4.4991 7.57536 4.50045L7.58264 4.52955C7.59524 4.5264 7.60518 4.51918 7.61123 4.50863C7.61709 4.49841 7.61854 4.48643 7.61715 4.47462C7.61439 4.45121 7.60022 4.42501 7.57761 4.40239L7.55639 4.42361ZM7.56239 4.30339C7.54528 4.32051 7.53506 4.34104 7.53366 4.36252C7.53225 4.38415 7.53989 4.4053 7.55585 4.42303L7.57815 4.40297C7.56711 4.3907 7.56275 4.37735 7.56359 4.36448C7.56444 4.35146 7.57072 4.33749 7.58361 4.32461L7.56239 4.30339ZM7.62705 4.33075C7.62649 4.33751 7.62452 4.34078 7.62334 4.34201C7.62257 4.34282 7.62174 4.34331 7.61975 4.34303C7.61406 4.34221 7.60069 4.3344 7.58627 4.30701L7.55973 4.32099C7.57531 4.3506 7.59494 4.36979 7.6155 4.37272C7.62664 4.37431 7.63725 4.37086 7.645 4.36277C7.65236 4.35509 7.65601 4.34449 7.65695 4.33325L7.62705 4.33075ZM7.60324 4.20268L7.62724 4.33468L7.65676 4.32932L7.63276 4.19732L7.60324 4.20268ZM7.651 4.185H7.618V4.215H7.651V4.185ZM7.62411 4.10179L7.63611 4.20179L7.66589 4.19821L7.65389 4.09821L7.62411 4.10179ZM8.116 4.085H7.639V4.115H8.116V4.085ZM8.11889 4.20179L8.13089 4.10179L8.10111 4.09821L8.08911 4.19821L8.11889 4.20179ZM8.14 4.185H8.104V4.215H8.14V4.185ZM8.12768 4.33207L8.15468 4.20307L8.12532 4.19693L8.09832 4.32593L8.12768 4.33207ZM8.17158 4.30729C8.15782 4.33483 8.14213 4.34215 8.13475 4.34252C8.13128 4.34269 8.12973 4.34153 8.12904 4.3407C8.12829 4.3398 8.12684 4.33718 8.1278 4.33147L8.0982 4.32653C8.09616 4.33882 8.09846 4.35082 8.10596 4.35986C8.11352 4.36897 8.12472 4.37306 8.13625 4.37248C8.15887 4.37135 8.18218 4.35317 8.19842 4.32071L8.17158 4.30729ZM8.20161 4.42361C8.2357 4.38951 8.23015 4.33794 8.19561 4.30339L8.17439 4.32461C8.19985 4.35006 8.2003 4.38248 8.18039 4.40239L8.20161 4.42361ZM8.18264 4.50045C8.17724 4.4991 8.17443 4.49657 8.17279 4.49371C8.17097 4.49053 8.16979 4.48545 8.17065 4.47813C8.17239 4.46329 8.18222 4.44299 8.20161 4.42361L8.18039 4.40239C8.15778 4.42501 8.14361 4.45121 8.14085 4.47462C8.13946 4.48643 8.14091 4.49841 8.14677 4.50863C8.15282 4.51918 8.16276 4.5264 8.17536 4.52955L8.18264 4.50045ZM8.22466 4.43259C8.21866 4.4521 8.21391 4.46688 8.20969 4.47806C8.20538 4.48946 8.20206 4.49592 8.1993 4.49956C8.19698 4.50262 8.19586 4.50268 8.19537 4.50275C8.19375 4.503 8.19052 4.50279 8.18331 4.50063L8.17469 4.52937C8.18248 4.5317 8.19125 4.53375 8.19995 4.5324C8.20976 4.53089 8.21727 4.5255 8.2232 4.51769C8.22869 4.51045 8.23324 4.5006 8.23775 4.48866C8.24234 4.4765 8.24734 4.4609 8.25334 4.44141L8.22466 4.43259ZM8.28351 4.54282C8.29226 4.50955 8.28337 4.48016 8.27299 4.45981C8.26777 4.44959 8.26205 4.44138 8.25763 4.4357C8.2554 4.43285 8.25348 4.43061 8.25208 4.42904C8.25138 4.42826 8.2508 4.42764 8.25038 4.42719C8.25017 4.42697 8.25 4.42679 8.24987 4.42666C8.24981 4.42659 8.24975 4.42654 8.24971 4.42649C8.24968 4.42647 8.24966 4.42645 8.24965 4.42643C8.24964 4.42643 8.24963 4.42642 8.24963 4.42641C8.24962 4.42641 8.24962 4.4264 8.24962 4.4264C8.24961 4.4264 8.24961 4.42639 8.239 4.437C8.22839 4.44761 8.22839 4.4476 8.22839 4.4476C8.22838 4.4476 8.22838 4.44759 8.22838 4.44759C8.22837 4.44759 8.22837 4.44758 8.22837 4.44758C8.22836 4.44758 8.22836 4.44757 8.22836 4.44757C8.22836 4.44757 8.22837 4.44758 8.22839 4.4476C8.22843 4.44764 8.22851 4.44772 8.22862 4.44784C8.22885 4.44809 8.22923 4.44849 8.22973 4.44905C8.23073 4.45017 8.23221 4.45189 8.23397 4.45415C8.23751 4.45868 8.2421 4.46529 8.24626 4.47344C8.25463 4.48984 8.26074 4.51145 8.25449 4.53518L8.28351 4.54282ZM8.27733 4.55412L8.28179 4.54683L8.25621 4.53117L8.25174 4.53846L8.27733 4.55412ZM8.25526 4.69862C8.24068 4.6943 8.23479 4.68691 8.23228 4.6786C8.22938 4.66901 8.23033 4.65583 8.23495 4.63988C8.24413 4.60812 8.26522 4.57376 8.2773 4.55416L8.25177 4.53841C8.24008 4.55737 8.21664 4.59518 8.20613 4.63154C8.20089 4.64965 8.1982 4.66952 8.20356 4.68727C8.2093 4.70629 8.22357 4.72052 8.24674 4.72738L8.25526 4.69862ZM8.2806 4.62728C8.27611 4.65785 8.27328 4.67614 8.26832 4.68728C8.2661 4.69228 8.26398 4.69447 8.26217 4.69564C8.26032 4.69683 8.25717 4.698 8.251 4.698V4.728C8.26091 4.728 8.27027 4.72611 8.27841 4.72086C8.28659 4.7156 8.29195 4.70798 8.29573 4.69947C8.30279 4.68361 8.3061 4.66013 8.31029 4.63165L8.2806 4.62728ZM8.28058 4.62748L8.28057 4.6275L8.31032 4.63143L8.31032 4.63141L8.28058 4.62748ZM8.28065 4.62702L8.28064 4.62707L8.31026 4.63182L8.31027 4.63177L8.28065 4.62702ZM8.2872 4.58453C8.28455 4.60045 8.28246 4.61467 8.28062 4.62721L8.3103 4.63157C8.31214 4.61903 8.3142 4.60506 8.3168 4.58947L8.2872 4.58453ZM8.34591 4.75161C8.37 4.69186 8.35711 4.62357 8.31291 4.57671L8.29109 4.59729C8.32725 4.63563 8.33779 4.69151 8.31809 4.74039L8.34591 4.75161ZM8.31664 4.80936C8.32697 4.79252 8.33858 4.7737 8.34623 4.75074L8.31777 4.74126C8.31136 4.76048 8.30158 4.77653 8.29107 4.79367L8.31664 4.80936ZM8.287 4.89C8.287 4.85816 8.30026 4.83606 8.31664 4.80936L8.29107 4.79367C8.27493 4.81997 8.257 4.84872 8.257 4.89H8.287ZM8.317 4.935C8.30819 4.935 8.3015 4.93235 8.29676 4.92697C8.29178 4.9213 8.287 4.9104 8.287 4.89H8.257C8.257 4.9146 8.26272 4.9337 8.27424 4.94678C8.286 4.96015 8.30181 4.965 8.317 4.965V4.935ZM8.36812 4.81308C8.36211 4.85965 8.35556 4.89131 8.34649 4.91113C8.34205 4.92083 8.33746 4.92665 8.33299 4.93005C8.32879 4.93325 8.32382 4.935 8.317 4.935V4.965C8.32968 4.965 8.34121 4.9615 8.35117 4.95392C8.36086 4.94654 8.36808 4.93604 8.37376 4.92362C8.38494 4.89919 8.39189 4.86335 8.39788 4.81692L8.36812 4.81308ZM8.41648 5.00332C8.42449 4.99131 8.4284 4.97512 8.42999 4.95861C8.43162 4.94175 8.43099 4.92289 8.42863 4.90424C8.42401 4.86764 8.4123 4.82849 8.39489 4.80585L8.37111 4.82415C8.3837 4.84051 8.39449 4.87336 8.39887 4.908C8.40101 4.92498 8.4015 4.94156 8.40013 4.95573C8.39873 4.97026 8.39551 4.98069 8.39152 4.98668L8.41648 5.00332ZM8.39114 5.04055L8.4164 5.00344L8.3916 4.98656L8.36634 5.02367L8.39114 5.04055ZM8.317 5.181C8.317 5.16639 8.32191 5.15075 8.33409 5.12854C8.34636 5.10616 8.36505 5.07877 8.39113 5.04057L8.36635 5.02365C8.34062 5.06134 8.32093 5.09014 8.30779 5.11411C8.29455 5.13825 8.287 5.15911 8.287 5.181H8.317ZM8.37745 5.12936C8.37022 5.15827 8.36144 5.17759 8.35298 5.18971C8.34442 5.20198 8.33714 5.20563 8.33309 5.20636C8.32972 5.20697 8.32646 5.20597 8.32334 5.20225C8.31996 5.19822 8.317 5.19099 8.317 5.181H8.287C8.287 5.19651 8.29154 5.21103 8.30035 5.22153C8.30942 5.23234 8.32303 5.23865 8.33841 5.23589C8.35311 5.23324 8.36646 5.22283 8.37758 5.20688C8.38881 5.19079 8.39878 5.16773 8.40655 5.13664L8.37745 5.12936ZM8.407 5.265C8.42187 5.26698 8.42187 5.26698 8.42187 5.26698C8.42187 5.26697 8.42187 5.26697 8.42187 5.26697C8.42187 5.26696 8.42187 5.26695 8.42187 5.26694C8.42188 5.26693 8.42188 5.2669 8.42188 5.26687C8.42189 5.26682 8.4219 5.26674 8.42191 5.26664C8.42194 5.26644 8.42198 5.26615 8.42202 5.26579C8.42211 5.26506 8.42223 5.264 8.42238 5.26267C8.42267 5.25999 8.42304 5.25615 8.42341 5.25144C8.42414 5.24202 8.42482 5.22899 8.42462 5.21455C8.42425 5.18666 8.42062 5.14978 8.40462 5.12489L8.37938 5.14111C8.39038 5.15822 8.39425 5.18734 8.39463 5.21495C8.39481 5.22826 8.39418 5.24035 8.3935 5.24912C8.39316 5.2535 8.39281 5.25703 8.39255 5.25944C8.39242 5.26064 8.39231 5.26156 8.39224 5.26217C8.3922 5.26247 8.39217 5.2627 8.39215 5.26284C8.39215 5.26291 8.39214 5.26296 8.39214 5.26299C8.39213 5.26301 8.39213 5.26302 8.39213 5.26302C8.39213 5.26302 8.39213 5.26302 8.39213 5.26302C8.39213 5.26302 8.39213 5.26302 8.39213 5.26302C8.39213 5.26302 8.39213 5.26302 8.407 5.265ZM8.38103 5.33758C8.39923 5.32055 8.422 5.30014 8.422 5.265H8.392C8.392 5.28533 8.38015 5.29732 8.36053 5.31568L8.38103 5.33758ZM8.33799 5.41554C8.33937 5.37694 8.35918 5.35803 8.38103 5.33758L8.36053 5.31568C8.33839 5.3364 8.30986 5.36272 8.30801 5.41446L8.33799 5.41554ZM8.338 5.52V5.415H8.308V5.52H8.338ZM5.152 4.68V5.52H5.182V4.68H5.152ZM5.21589 4.71819C5.21031 4.70638 5.20448 4.69394 5.19801 4.68461C5.19186 4.67572 5.18199 4.665 5.167 4.665V4.695C5.167 4.695 5.167 4.695 5.16699 4.695C5.16698 4.695 5.16697 4.695 5.16696 4.695C5.16694 4.69499 5.16695 4.69499 5.167 4.69501C5.1671 4.69504 5.16742 4.69518 5.16799 4.6956C5.16924 4.69652 5.17103 4.69835 5.17335 4.70169C5.1781 4.70855 5.18281 4.71841 5.18877 4.73101L5.21589 4.71819ZM5.293 4.794C5.2731 4.794 5.2587 4.78508 5.24662 4.77101C5.23405 4.75637 5.22488 4.7372 5.21589 4.71819L5.18877 4.73101C5.19741 4.74929 5.20819 4.77231 5.22386 4.79055C5.24001 4.80936 5.26213 4.824 5.293 4.824V4.794ZM5.29538 4.72111C5.30775 4.74036 5.3137 4.7611 5.31255 4.77555C5.31199 4.78258 5.30988 4.7869 5.30743 4.78939C5.3052 4.79166 5.30112 4.794 5.293 4.794V4.824C5.30738 4.824 5.3198 4.81959 5.32882 4.81042C5.33762 4.80147 5.34151 4.78967 5.34245 4.77795C5.3443 4.7549 5.33525 4.72764 5.32062 4.70489L5.29538 4.72111ZM5.2819 4.51887C5.26317 4.57038 5.26047 4.61049 5.26582 4.64341C5.27114 4.67613 5.28428 4.70058 5.29479 4.72011L5.32121 4.70589C5.31072 4.68642 5.29986 4.66587 5.29543 4.63859C5.29103 4.61151 5.29283 4.57661 5.3101 4.52913L5.2819 4.51887ZM5.36251 4.58186C5.36514 4.59173 5.36116 4.58879 5.36558 4.58618C5.36696 4.58536 5.36747 4.58584 5.36585 4.58561C5.36429 4.58539 5.36169 4.58462 5.35816 4.58275C5.34368 4.57507 5.3226 4.55361 5.31011 4.51892L5.28189 4.52908C5.2964 4.56939 5.32182 4.59743 5.34409 4.60925C5.34975 4.61225 5.35572 4.61448 5.36168 4.61532C5.36757 4.61615 5.37453 4.61573 5.38083 4.61201C5.3951 4.60359 5.39486 4.58677 5.39149 4.57413L5.36251 4.58186ZM5.33633 4.52297C5.34653 4.54088 5.3564 4.55833 5.36248 4.58176L5.39152 4.57424C5.38434 4.54653 5.37258 4.52599 5.3624 4.50812L5.33633 4.52297ZM5.32703 4.35355C5.31002 4.39714 5.30581 4.42929 5.30974 4.45644C5.31364 4.4834 5.32542 4.5038 5.33633 4.52297L5.3624 4.50812C5.35123 4.4885 5.34241 4.47272 5.33943 4.45215C5.33648 4.43176 5.33914 4.40503 5.35497 4.36445L5.32703 4.35355ZM5.39245 4.40164C5.39568 4.41457 5.39373 4.42141 5.39229 4.4238C5.39196 4.42434 5.39169 4.42462 5.39154 4.42475C5.3914 4.42487 5.39131 4.42491 5.39126 4.42493C5.39124 4.42494 5.39066 4.42518 5.3892 4.42478C5.38595 4.42389 5.37945 4.41998 5.37253 4.40871C5.36578 4.39772 5.35937 4.38083 5.35584 4.35682L5.32616 4.36118C5.33013 4.38817 5.3376 4.40916 5.34697 4.42441C5.35617 4.43939 5.36805 4.45011 5.3813 4.45372C5.38809 4.45557 5.39529 4.45553 5.40207 4.45291C5.40887 4.45029 5.41426 4.44543 5.41796 4.43933C5.42514 4.42746 5.42582 4.41143 5.42155 4.39436L5.39245 4.40164ZM5.37773 4.35854C5.38305 4.37226 5.38836 4.38597 5.39249 4.40179L5.42151 4.39421C5.4169 4.37651 5.41098 4.36129 5.4057 4.34769L5.37773 4.35854ZM5.38458 4.19629C5.36564 4.23419 5.35901 4.2636 5.36004 4.28993C5.36106 4.31592 5.36958 4.33753 5.37773 4.35854L5.4057 4.34769C5.39732 4.32611 5.39081 4.309 5.39002 4.28876C5.38924 4.26885 5.39402 4.24449 5.41142 4.20971L5.38458 4.19629ZM5.443 4.239C5.443 4.25545 5.44098 4.26649 5.43855 4.27238C5.43732 4.27537 5.43656 4.27562 5.43725 4.27511C5.43867 4.27407 5.44099 4.27366 5.44273 4.27422C5.44359 4.2745 5.44268 4.27449 5.44032 4.27169C5.4381 4.26906 5.43533 4.26483 5.43222 4.25852C5.426 4.24591 5.41918 4.22663 5.41258 4.19945L5.38343 4.20654C5.39032 4.23487 5.39775 4.25647 5.40531 4.27179C5.40909 4.27945 5.4131 4.28595 5.41738 4.29103C5.42153 4.29595 5.42685 4.30062 5.43352 4.30278C5.44108 4.30521 5.44878 4.30387 5.45502 4.29929C5.46053 4.29523 5.46401 4.28935 5.46629 4.28381C5.4709 4.27263 5.473 4.25705 5.473 4.239H5.443ZM5.57956 3.97567C5.51193 3.9966 5.4769 4.03689 5.45961 4.08588C5.44284 4.13339 5.443 4.18864 5.443 4.239H5.473C5.473 4.18736 5.47316 4.13761 5.4879 4.09587C5.5021 4.05561 5.53007 4.02239 5.58844 4.00433L5.57956 3.97567ZM5.641 3.885C5.62369 3.885 5.61034 3.89331 5.60069 3.90403C5.59129 3.91447 5.58486 3.92772 5.58042 3.93984C5.57592 3.95211 5.5731 3.96422 5.57142 3.97315C5.57057 3.97765 5.56999 3.98141 5.56962 3.98408C5.56944 3.98542 5.5693 3.98648 5.56922 3.98723C5.56917 3.98761 5.56914 3.98791 5.56912 3.98812C5.5691 3.98823 5.56909 3.98831 5.56909 3.98838C5.56908 3.98841 5.56908 3.98844 5.56908 3.98846C5.56908 3.98847 5.56908 3.98848 5.56908 3.98849C5.56908 3.98849 5.56908 3.9885 5.56908 3.9885C5.56908 3.9885 5.56907 3.98851 5.584 3.99C5.59893 3.99149 5.59893 3.9915 5.59893 3.9915C5.59893 3.9915 5.59892 3.9915 5.59892 3.9915C5.59892 3.99151 5.59892 3.99151 5.59892 3.99151C5.59892 3.99151 5.59892 3.9915 5.59893 3.99149C5.59893 3.99147 5.59893 3.99142 5.59894 3.99136C5.59895 3.99123 5.59898 3.99103 5.59901 3.99074C5.59908 3.99018 5.59918 3.98931 5.59934 3.98818C5.59965 3.98593 5.60015 3.98266 5.6009 3.97872C5.6024 3.97078 5.60483 3.96039 5.60858 3.95016C5.61239 3.93978 5.61721 3.93053 5.62299 3.9241C5.62854 3.91794 5.63431 3.915 5.641 3.915V3.885ZM5.695 3.99C5.70993 3.98851 5.70993 3.9885 5.70992 3.9885C5.70992 3.9885 5.70992 3.98849 5.70992 3.98849C5.70992 3.98848 5.70992 3.98847 5.70992 3.98846C5.70992 3.98844 5.70992 3.98841 5.70991 3.98838C5.70991 3.98832 5.7099 3.98824 5.70989 3.98813C5.70986 3.98792 5.70983 3.98762 5.70979 3.98725C5.7097 3.9865 5.70957 3.98544 5.70939 3.98412C5.70903 3.98146 5.70847 3.97771 5.70764 3.97323C5.70601 3.96433 5.70331 3.95227 5.69903 3.94004C5.69481 3.92799 5.68873 3.91479 5.67985 3.90435C5.67078 3.89367 5.65793 3.885 5.641 3.885V3.915C5.64657 3.915 5.65172 3.91757 5.65699 3.92378C5.66246 3.93021 5.66706 3.93951 5.67072 3.94995C5.67431 3.96023 5.67667 3.97067 5.67814 3.97864C5.67886 3.9826 5.67935 3.98588 5.67966 3.98815C5.67982 3.98928 5.67992 3.99015 5.67999 3.99073C5.68002 3.99101 5.68005 3.99122 5.68006 3.99135C5.68007 3.99142 5.68007 3.99146 5.68007 3.99149C5.68008 3.9915 5.68008 3.9915 5.68008 3.9915C5.68008 3.99151 5.68008 3.9915 5.68008 3.9915C5.68008 3.9915 5.68008 3.9915 5.68008 3.9915C5.68007 3.9915 5.68007 3.99149 5.695 3.99ZM5.836 4.23241C5.83604 4.1844 5.83624 4.13053 5.81944 4.08393C5.80211 4.03585 5.767 3.9961 5.69934 3.97564L5.69066 4.00436C5.74914 4.02204 5.77706 4.05484 5.79122 4.0941C5.8059 4.13484 5.80604 4.18312 5.806 4.23239L5.836 4.23241ZM5.836 4.23901L5.836 4.2324L5.806 4.23239L5.806 4.23899L5.836 4.23901ZM5.86643 4.19945C5.85982 4.22663 5.853 4.24591 5.84678 4.25852C5.84367 4.26483 5.8409 4.26906 5.83868 4.27169C5.83632 4.27449 5.83541 4.2745 5.83627 4.27422C5.83801 4.27366 5.84033 4.27407 5.84175 4.27511C5.84244 4.27562 5.84168 4.27537 5.84045 4.27238C5.83802 4.26649 5.836 4.25545 5.836 4.239H5.806C5.806 4.25705 5.8081 4.27263 5.81271 4.28381C5.81499 4.28935 5.81847 4.29523 5.82398 4.29929C5.83022 4.30387 5.83792 4.30521 5.84548 4.30278C5.85215 4.30062 5.85747 4.29595 5.86162 4.29103C5.8659 4.28595 5.86991 4.27945 5.87369 4.27179C5.88125 4.25647 5.88868 4.23487 5.89558 4.20654L5.86643 4.19945ZM5.90127 4.35854C5.90942 4.33753 5.91794 4.31592 5.91896 4.28993C5.91999 4.2636 5.91336 4.23419 5.89442 4.19629L5.86758 4.20971C5.88498 4.24449 5.88976 4.26885 5.88898 4.28876C5.88819 4.309 5.88168 4.32611 5.8733 4.34769L5.90127 4.35854ZM5.88651 4.40179C5.89064 4.38597 5.89595 4.37226 5.90127 4.35854L5.8733 4.34769C5.86802 4.36129 5.86211 4.37651 5.85749 4.39421L5.88651 4.40179ZM5.92316 4.35682C5.91963 4.38083 5.91322 4.39772 5.90647 4.40871C5.89955 4.41998 5.89305 4.42389 5.8898 4.42478C5.88834 4.42518 5.88776 4.42494 5.88774 4.42493C5.88769 4.42491 5.8876 4.42487 5.88746 4.42475C5.88731 4.42462 5.88704 4.42434 5.88671 4.4238C5.88527 4.42141 5.88332 4.41457 5.88655 4.40164L5.85745 4.39436C5.85318 4.41143 5.85386 4.42746 5.86104 4.43933C5.86474 4.44543 5.87013 4.45029 5.87693 4.45291C5.88371 4.45553 5.89091 4.45557 5.8977 4.45372C5.91095 4.45011 5.92283 4.43939 5.93203 4.42441C5.9414 4.40916 5.94887 4.38817 5.95284 4.36118L5.92316 4.35682ZM5.94267 4.52297C5.95358 4.5038 5.96536 4.4834 5.96926 4.45644C5.97319 4.42929 5.96899 4.39714 5.95197 4.35355L5.92403 4.36445C5.93986 4.40503 5.94252 4.43176 5.93957 4.45215C5.93659 4.47272 5.92777 4.4885 5.9166 4.50812L5.94267 4.52297ZM5.91652 4.58176C5.9226 4.55833 5.93247 4.54088 5.94267 4.52297L5.9166 4.50812C5.90642 4.52599 5.89466 4.54653 5.88748 4.57424L5.91652 4.58176ZM5.96889 4.51892C5.9564 4.55361 5.93532 4.57507 5.92084 4.58275C5.91731 4.58462 5.91471 4.58539 5.91315 4.58561C5.91153 4.58584 5.91204 4.58536 5.91342 4.58618C5.91785 4.58879 5.91386 4.59173 5.91649 4.58186L5.88751 4.57413C5.88414 4.58677 5.88391 4.60359 5.89817 4.61201C5.90447 4.61573 5.91143 4.61615 5.91732 4.61532C5.92328 4.61448 5.92925 4.61225 5.93491 4.60925C5.95718 4.59743 5.9826 4.56939 5.99711 4.52908L5.96889 4.51892ZM5.98421 4.72011C5.99472 4.70058 6.00786 4.67613 6.01318 4.64341C6.01853 4.61049 6.01583 4.57038 5.9971 4.51887L5.9689 4.52913C5.98617 4.57661 5.98797 4.61151 5.98357 4.63859C5.97914 4.66587 5.96828 4.68642 5.95779 4.70589L5.98421 4.72011ZM5.986 4.794C5.97788 4.794 5.97415 4.79167 5.97221 4.78962C5.97001 4.78728 5.96803 4.78305 5.9676 4.77585C5.96671 4.76109 5.97282 4.74004 5.98402 4.72044L5.95798 4.70556C5.94518 4.72796 5.93629 4.75491 5.93765 4.77765C5.93835 4.7892 5.9418 4.80109 5.95038 4.81019C5.95923 4.81958 5.97162 4.824 5.986 4.824V4.794ZM6.06317 4.72003C6.05418 4.7386 6.04503 4.75727 6.0325 4.77153C6.02046 4.78522 6.00604 4.794 5.986 4.794V4.824C6.01673 4.824 6.03882 4.80977 6.05503 4.79134C6.07073 4.77348 6.08153 4.75094 6.09017 4.7331L6.06317 4.72003ZM6.112 4.668C6.09717 4.668 6.08731 4.67839 6.08109 4.68716C6.07459 4.69632 6.06875 4.7085 6.06317 4.72003L6.09017 4.7331C6.09613 4.72078 6.10083 4.71119 6.10556 4.70452C6.10785 4.70128 6.10964 4.69951 6.11087 4.69862C6.11144 4.69821 6.11178 4.69807 6.11189 4.69803C6.11199 4.69799 6.11199 4.698 6.112 4.698V4.668ZM6.127 5.52V4.683H6.097V5.52H6.127ZM5.167 5.535H6.112V5.505H5.167V5.535ZM7.87838 3.95201C7.85547 3.95297 7.83838 3.9637 7.82627 3.97842C7.8145 3.99271 7.8074 4.01068 7.803 4.02728C7.79856 4.04404 7.79658 4.06051 7.7957 4.07264C7.79525 4.07875 7.79508 4.08384 7.79501 4.08745C7.79498 4.08925 7.79498 4.09069 7.79498 4.09169C7.79499 4.09219 7.79499 4.09259 7.795 4.09287C7.795 4.09301 7.795 4.09312 7.795 4.09321C7.795 4.09325 7.795 4.09328 7.795 4.09331C7.795 4.09332 7.795 4.09333 7.795 4.09334C7.795 4.09335 7.795 4.09335 7.795 4.09336C7.795 4.09336 7.795 4.09337 7.81 4.093C7.825 4.09263 7.825 4.09264 7.825 4.09264C7.825 4.09264 7.825 4.09264 7.825 4.09265C7.825 4.09265 7.825 4.09265 7.825 4.09265C7.825 4.09264 7.825 4.09263 7.825 4.09261C7.82499 4.09258 7.82499 4.09251 7.82499 4.09242C7.82499 4.09224 7.82499 4.09194 7.82498 4.09154C7.82498 4.09075 7.82498 4.08954 7.82501 4.08797C7.82506 4.08483 7.82522 4.0803 7.82562 4.07482C7.82642 4.06381 7.82819 4.04933 7.832 4.03497C7.83585 4.02044 7.8415 4.00711 7.84942 3.99749C7.85699 3.9883 7.86653 3.98253 7.87962 3.98199L7.87838 3.95201ZM7.945 4.093C7.96 4.09336 7.96 4.09335 7.96 4.09335C7.96 4.09334 7.96 4.09334 7.96 4.09333C7.96 4.09333 7.96 4.09331 7.96 4.0933C7.96 4.09328 7.96 4.09324 7.96 4.0932C7.96 4.09312 7.96 4.093 7.96001 4.09286C7.96001 4.09258 7.96001 4.09218 7.96002 4.09167C7.96002 4.09065 7.96002 4.08919 7.95999 4.08736C7.95994 4.08369 7.95978 4.07851 7.95936 4.0723C7.95852 4.05997 7.95665 4.04327 7.95243 4.02636C7.94825 4.00965 7.94148 3.99155 7.93015 3.97733C7.91842 3.96262 7.90161 3.952 7.879 3.952V3.982C7.89089 3.982 7.89958 3.98712 7.9067 3.99604C7.9142 4.00545 7.91962 4.01884 7.92332 4.03364C7.92697 4.04823 7.92866 4.06303 7.92942 4.07432C7.9298 4.07993 7.92995 4.08459 7.93 4.08782C7.93002 4.08943 7.93002 4.09068 7.93002 4.0915C7.93001 4.09191 7.93001 4.09222 7.93001 4.09241C7.93001 4.09251 7.93001 4.09258 7.93 4.09262C7.93 4.09264 7.93 4.09265 7.93 4.09265C7.93 4.09265 7.93 4.09265 7.93 4.09265C7.93 4.09265 7.93 4.09265 7.93 4.09265C7.93 4.09265 7.93 4.09264 7.945 4.093ZM7.81 4.108H7.945V4.078H7.81V4.108Z" fill="white"/>
<rect width="16" height="12" fill="url(#paint0_linear_14655_23398)" style="mix-blend-mode:overlay"/>
</g>
<defs>
<linearGradient id="paint0_linear_14655_23398" x1="8" y1="0" x2="8" y2="12" gradientUnits="userSpaceOnUse">
<stop stop-color="white" stop-opacity="0.7"/>
<stop offset="1" stop-opacity="0.3"/>
</linearGradient>
<clipPath id="clip0_14655_23398">
<rect width="16" height="12" rx="1" fill="white"/>
</clipPath>
</defs>
</svg>
