<svg width="16" height="12" viewBox="0 0 16 12" fill="none" xmlns="http://www.w3.org/2000/svg">
<g clip-path="url(#clip0_14655_23399)">
<mask id="mask0_14655_23399" style="mask-type:alpha" maskUnits="userSpaceOnUse" x="0" y="0" width="16" height="12">
<rect width="16" height="12" fill="white"/>
</mask>
<g mask="url(#mask0_14655_23399)">
<path fill-rule="evenodd" clip-rule="evenodd" d="M0 0V12H16V0H0Z" fill="#E31D1C"/>
<mask id="mask1_14655_23399" style="mask-type:alpha" maskUnits="userSpaceOnUse" x="0" y="0" width="16" height="12">
<path fill-rule="evenodd" clip-rule="evenodd" d="M0 0V12H16V0H0Z" fill="white"/>
</mask>
<g mask="url(#mask1_14655_23399)">
<path fill-rule="evenodd" clip-rule="evenodd" d="M7.66165 8.58849L7.89056 8.0921L8.11947 8.58849L8.25534 8.05954L8.56992 8.50741L8.60839 7.9629L8.99854 8.34785L8.93837 7.80528L9.39155 8.11494L9.23467 7.59175L9.73632 7.81618L9.48778 7.32918L10.0218 7.46115L9.68954 7.026L10.2387 7.06128L9.83349 6.69195L10.3802 6.62941L9.91499 6.33779L10.4416 6.17943L9.93142 5.97488L10.4211 5.72579L9.88226 5.61489L10.3192 5.28308L9.76908 5.2694L10.1393 4.86553L9.59552 4.9495L9.88708 4.48655L9.36717 4.66548L9.5707 4.15834L9.09136 4.42646L9.20032 3.89143L8.77695 4.24014L8.78785 3.6944L8.43405 4.1125L8.34653 3.5736L8.07368 4.04763L7.89056 3.53289L7.70743 4.04763L7.43459 3.5736L7.34707 4.1125L6.99327 3.6944L7.00417 4.24014L6.58079 3.89143L6.68976 4.42646L6.21041 4.15834L6.41395 4.66548L5.89404 4.48655L6.18559 4.9495L5.64183 4.86553L6.01204 5.2694L5.46189 5.28308L5.89886 5.61489L5.36002 5.72579L5.8497 5.97488L5.33948 6.17943L5.86613 6.33779L5.40094 6.62941L5.94763 6.69195L5.54241 7.06128L6.09157 7.026L5.75935 7.46115L6.29334 7.32918L6.04479 7.81618L6.54644 7.59175L6.38956 8.11494L6.84275 7.80528L6.78257 8.34785L7.17273 7.9629L7.21119 8.50741L7.52578 8.05954L7.66165 8.58849Z" fill="#FFC84A"/>
<path fill-rule="evenodd" clip-rule="evenodd" d="M-0.396017 6.96005L0.911406 6.42946C1.10198 6.35211 1.31537 6.35306 1.50525 6.43208L3.32063 7.18755C3.52603 7.27303 3.75813 7.26686 3.9587 7.17061L5.423 6.46788C5.63302 6.36709 5.87707 6.3653 6.08855 6.463L7.62227 7.17153C7.82889 7.26699 8.06687 7.26757 8.27396 7.17313L9.84333 6.45745C10.0504 6.36304 10.2882 6.36359 10.4948 6.45896L12.0443 7.17426C12.2476 7.26813 12.4815 7.2702 12.6864 7.17994L14.3795 6.43445C14.5628 6.35374 14.7701 6.34652 14.9586 6.41429L16.4765 6.96005V11.9669H-0.440502L-0.396017 6.96005Z" fill="#F7FCFF"/>
<mask id="mask2_14655_23399" style="mask-type:alpha" maskUnits="userSpaceOnUse" x="-1" y="6" width="18" height="6">
<path fill-rule="evenodd" clip-rule="evenodd" d="M-0.396017 6.96005L0.911406 6.42946C1.10198 6.35211 1.31537 6.35306 1.50525 6.43208L3.32063 7.18755C3.52603 7.27303 3.75813 7.26686 3.9587 7.17061L5.423 6.46788C5.63302 6.36709 5.87707 6.3653 6.08855 6.463L7.62227 7.17153C7.82889 7.26699 8.06687 7.26757 8.27396 7.17313L9.84333 6.45745C10.0504 6.36304 10.2882 6.36359 10.4948 6.45896L12.0443 7.17426C12.2476 7.26813 12.4815 7.2702 12.6864 7.17994L14.3795 6.43445C14.5628 6.35374 14.7701 6.34652 14.9586 6.41429L16.4765 6.96005V11.9669H-0.440502L-0.396017 6.96005Z" fill="white"/>
</mask>
<g mask="url(#mask2_14655_23399)">
<path d="M-0.396015 8.12287L0.911408 7.59227C1.10198 7.51493 1.31537 7.51587 1.50526 7.59489L3.32063 8.35037C3.52603 8.43584 3.75813 8.42968 3.9587 8.33342L5.42301 7.6307C5.63303 7.52991 5.87707 7.52812 6.08855 7.62581L7.62227 8.33435C7.82889 8.4298 8.06687 8.43039 8.27396 8.33595L9.84333 7.62026C10.0504 7.52586 10.2883 7.52641 10.4948 7.62178L12.0443 8.33707C12.2476 8.43095 12.4815 8.43302 12.6864 8.34276L14.3795 7.59727C14.5628 7.51656 14.7701 7.50934 14.9586 7.5771L16.4765 8.12287" stroke="#015989"/>
<path d="M-0.396015 9.78734L0.911408 9.25675C1.10198 9.1794 1.31537 9.18035 1.50526 9.25937L3.32063 10.0148C3.52603 10.1003 3.75813 10.0942 3.9587 9.9979L5.42301 9.29517C5.63303 9.19438 5.87707 9.19259 6.08855 9.29029L7.62227 9.99882C7.82889 10.0943 8.06687 10.0949 8.27396 10.0004L9.84333 9.28474C10.0504 9.19033 10.2883 9.19088 10.4948 9.28625L12.0443 10.0015C12.2476 10.0954 12.4815 10.0975 12.6864 10.0072L14.3795 9.26174C14.5628 9.18103 14.7701 9.17381 14.9586 9.24158L16.4765 9.78734" stroke="#015989"/>
<path fill-rule="evenodd" clip-rule="evenodd" d="M-0.396015 11.1137L0.149817 10.8921C0.828319 10.6168 1.58804 10.6201 2.26409 10.9015L3.32063 11.3411C3.52603 11.4266 3.75813 11.4205 3.9587 11.3242L4.57396 11.0289C5.32169 10.6701 6.19057 10.6637 6.94349 11.0116L7.62227 11.3251C7.82889 11.4206 8.06687 11.4212 8.27396 11.3267L9.00843 10.9918C9.74549 10.6557 10.5925 10.6576 11.328 10.9972L12.0443 11.3279C12.2476 11.4217 12.4815 11.4238 12.6864 11.3335L13.6485 10.9099C14.3011 10.6226 15.0392 10.5969 15.7102 10.8381L16.4765 11.1137V12.7711H-0.304207L-0.396015 11.1137Z" fill="#015989"/>
</g>
<path fill-rule="evenodd" clip-rule="evenodd" d="M4.80069 1.19903C4.80069 1.19903 5.51304 1.34151 5.74734 1.34151C5.98165 1.34151 6.51024 0.983251 6.81599 1.10267C7.12173 1.22209 7.70978 1.78683 7.70978 1.78683C7.70978 1.78683 8.54269 1.1621 9.04953 1.1621C9.55636 1.1621 10.487 1.22999 10.487 1.22999C10.487 1.22999 10.2725 1.78673 9.6692 1.88103C9.06592 1.97534 8.34415 2.4372 8.34415 2.4372C8.34415 2.4372 9.17518 2.4372 9.32466 2.4372C9.47414 2.4372 9.96879 2.71367 9.96879 2.71367C9.96879 2.71367 9.26678 2.93602 9.06592 2.93602C8.86505 2.93602 8.64317 2.93602 8.64317 2.93602C8.64317 2.93602 8.21608 3.3025 7.68849 3.22453C7.16089 3.14655 6.7918 2.80809 6.7918 2.80809C6.7918 2.80809 6.0471 2.75919 6.0471 2.67957C6.0471 2.67957 5.76266 2.53379 5.67704 2.67957C5.59142 2.82535 6.0471 2.48435 6.0471 2.48435C6.0471 2.48435 6.45866 2.15022 6.59811 2.15022C6.73757 2.15022 7.20327 2.4372 7.20327 2.4372L7.31447 2.32159L6.73757 1.88103C5.56086 2.00432 4.80069 1.19903 4.80069 1.19903Z" fill="#FFC84A"/>
</g>
</g>
<rect width="16" height="12" fill="url(#paint0_linear_14655_23399)" style="mix-blend-mode:overlay"/>
</g>
<defs>
<linearGradient id="paint0_linear_14655_23399" x1="8" y1="0" x2="8" y2="12" gradientUnits="userSpaceOnUse">
<stop stop-color="white" stop-opacity="0.7"/>
<stop offset="1" stop-opacity="0.3"/>
</linearGradient>
<clipPath id="clip0_14655_23399">
<rect width="16" height="12" rx="1" fill="white"/>
</clipPath>
</defs>
</svg>
