<svg width="16" height="12" viewBox="0 0 16 12" fill="none" xmlns="http://www.w3.org/2000/svg">
<g clip-path="url(#clip0_14655_23409)">
<mask id="mask0_14655_23409" style="mask-type:alpha" maskUnits="userSpaceOnUse" x="0" y="0" width="16" height="12">
<rect width="16" height="12" fill="white"/>
</mask>
<g mask="url(#mask0_14655_23409)">
<path fill-rule="evenodd" clip-rule="evenodd" d="M0 8H16V12H0V8Z" fill="#E31D1C"/>
<path fill-rule="evenodd" clip-rule="evenodd" d="M0 4H16V8H0V4Z" fill="#2E42A5"/>
<path fill-rule="evenodd" clip-rule="evenodd" d="M0 0H16V4H0V0Z" fill="#E31D1C"/>
<path fill-rule="evenodd" clip-rule="evenodd" d="M8 7.87C9.03553 7.87 9.875 7.03053 9.875 5.995C9.875 4.95946 9.03553 4.12 8 4.12C6.96447 4.12 6.125 4.95946 6.125 5.995C6.125 7.03053 6.96447 7.87 8 7.87Z" fill="#F7FCFF"/>
</g>
<rect width="16" height="12" fill="url(#paint0_linear_14655_23409)" style="mix-blend-mode:overlay"/>
</g>
<defs>
<linearGradient id="paint0_linear_14655_23409" x1="8" y1="0" x2="8" y2="12" gradientUnits="userSpaceOnUse">
<stop stop-color="white" stop-opacity="0.7"/>
<stop offset="1" stop-opacity="0.3"/>
</linearGradient>
<clipPath id="clip0_14655_23409">
<rect width="16" height="12" rx="1" fill="white"/>
</clipPath>
</defs>
</svg>
