<svg width="16" height="12" viewBox="0 0 16 12" fill="none" xmlns="http://www.w3.org/2000/svg">
<g clip-path="url(#clip0_14655_23412)">
<mask id="mask0_14655_23412" style="mask-type:alpha" maskUnits="userSpaceOnUse" x="0" y="0" width="16" height="12">
<rect width="16" height="12" fill="white"/>
</mask>
<g mask="url(#mask0_14655_23412)">
<path fill-rule="evenodd" clip-rule="evenodd" d="M16 0H0V3H16V0ZM16 9H0V12H16V9Z" fill="#F50101"/>
<path fill-rule="evenodd" clip-rule="evenodd" d="M0 3H16V9H0V3Z" fill="#F7FCFF"/>
<path fill-rule="evenodd" clip-rule="evenodd" d="M10.7574 6.25661C10.7947 6.69028 9.19429 6.07668 9.19429 6.25032C9.19429 6.42396 10.9087 6.72884 10.9059 7.11755C10.903 7.50626 8.87299 7.00664 9.32822 7.18144C9.78345 7.35623 10.7608 7.77471 10.6497 8.03541C10.4125 8.59218 8.83672 7.64915 8.70566 7.83507C8.49415 8.13493 9.86847 8.83441 9.85687 8.90125C9.83446 9.02942 8.9182 8.69979 8.70566 8.96595C8.53359 8.91742 8.45407 8.68571 8.40063 8.65498L8.06246 4.29329C8.06246 4.29329 8.3661 8.4 7.97813 8.51811C7.59017 8.63622 6.51244 8.99532 6.48108 8.81597C6.46941 8.74913 7.77874 8.13493 7.56722 7.83507C7.41144 7.61408 5.83135 8.39773 5.73054 7.94396C5.28145 7.62023 7.18491 7.3401 7.18491 7.00905C7.18491 6.67795 5.44361 7.40089 5.65192 6.94003C5.86023 6.47916 7.25428 6.31415 7.28028 6.25032C7.32783 6.13359 5.73054 6.43204 5.73054 6.25032C5.73054 5.90647 6.68662 5.83881 7.28028 5.52938C7.31536 5.17627 5.84012 5.87701 5.73054 5.59395C5.62095 5.31089 7.61611 4.57757 7.56722 4.52044C7.49001 4.43022 5.88205 4.83731 6.14723 4.62353C6.66189 4.20863 7.66645 3.64444 7.8976 3.49395C7.8976 3.49395 7.92544 3.43717 7.95519 3.45644C7.98501 3.43717 8.01779 3.41606 8.01779 3.41606C8.01779 3.41606 8.01779 3.77108 8.01285 3.49395C8.00792 3.21682 10.3677 4.42945 10.3945 4.73685C10.4256 5.09597 8.93639 4.46612 8.97142 4.81923C9.27415 5.00679 10.1352 5.36977 10.4909 5.52938C10.6523 5.60177 9.30206 5.37615 9.33058 5.48692C9.40325 5.76925 10.7185 5.80431 10.7574 6.25661Z" fill="#52AB0B"/>
</g>
<rect width="16" height="12" fill="url(#paint0_linear_14655_23412)" style="mix-blend-mode:overlay"/>
</g>
<defs>
<linearGradient id="paint0_linear_14655_23412" x1="8" y1="0" x2="8" y2="12" gradientUnits="userSpaceOnUse">
<stop stop-color="white" stop-opacity="0.7"/>
<stop offset="1" stop-opacity="0.3"/>
</linearGradient>
<clipPath id="clip0_14655_23412">
<rect width="16" height="12" rx="1" fill="white"/>
</clipPath>
</defs>
</svg>
