<svg width="16" height="12" viewBox="0 0 16 12" fill="none" xmlns="http://www.w3.org/2000/svg">
<g clip-path="url(#clip0_14655_23503)">
<mask id="mask0_14655_23503" style="mask-type:alpha" maskUnits="userSpaceOnUse" x="0" y="0" width="16" height="12">
<rect width="16" height="12" fill="white"/>
</mask>
<g mask="url(#mask0_14655_23503)">
<path fill-rule="evenodd" clip-rule="evenodd" d="M0 0H16V12H0V0Z" fill="#F7FCFF"/>
<rect x="0.0135803" y="2.75" width="16" height="1.5" fill="#E31D1C"/>
<path fill-rule="evenodd" clip-rule="evenodd" d="M0 0H16V1.5H0V0Z" fill="#E31D1C"/>
<rect x="-0.0294342" y="5.5" width="16" height="1.5" fill="#E31D1C"/>
<rect x="0.0558319" y="8.2" width="16" height="1.5" fill="#E31D1C"/>
<rect x="0.0507355" y="10.75" width="16" height="1.5" fill="#E31D1C"/>
<path fill-rule="evenodd" clip-rule="evenodd" d="M0 0H8V7H0V0Z" fill="#3D58DB"/>
<path fill-rule="evenodd" clip-rule="evenodd" d="M4.06624 4.60654L2.60555 5.6197L3.07229 3.8844L2 2.77589L3.45195 2.71595L4.06624 1L4.68053 2.71595H6.13L5.06018 3.8844L5.59596 5.51728L4.06624 4.60654Z" fill="#F7FCFF"/>
</g>
<rect width="16" height="12" fill="url(#paint0_linear_14655_23503)" style="mix-blend-mode:overlay"/>
</g>
<defs>
<linearGradient id="paint0_linear_14655_23503" x1="8" y1="0" x2="8" y2="12" gradientUnits="userSpaceOnUse">
<stop stop-color="white" stop-opacity="0.7"/>
<stop offset="1" stop-opacity="0.3"/>
</linearGradient>
<clipPath id="clip0_14655_23503">
<rect width="16" height="12" rx="1" fill="white"/>
</clipPath>
</defs>
</svg>
