<svg width="16" height="12" viewBox="0 0 16 12" fill="none" xmlns="http://www.w3.org/2000/svg">
<g clip-path="url(#clip0_14655_23424)">
<mask id="mask0_14655_23424" style="mask-type:alpha" maskUnits="userSpaceOnUse" x="0" y="0" width="16" height="12">
<rect width="16" height="12" fill="white"/>
</mask>
<g mask="url(#mask0_14655_23424)">
<path fill-rule="evenodd" clip-rule="evenodd" d="M11 0H16V12H11V0Z" fill="#D9071E"/>
<path fill-rule="evenodd" clip-rule="evenodd" d="M0 0H6V12H0V0Z" fill="#3D58DB"/>
<path fill-rule="evenodd" clip-rule="evenodd" d="M5 0H11V12H5V0Z" fill="#FBCD17"/>
<path fill-rule="evenodd" clip-rule="evenodd" d="M10.8592 9.80708L10.3327 10.0948L8.58738 6.90036L9.11392 6.61269L10.8592 9.80708ZM5.25673 9.88389L5.78327 10.1716L7.52855 6.97717L7.00201 6.6895L5.25673 9.88389Z" fill="#FD1900"/>
<path fill-rule="evenodd" clip-rule="evenodd" d="M5.68903 4.69451V7.47017C5.68903 8.08677 5.1581 8.89033 4.89034 9.18928C4.62257 9.48822 4.09076 10.1731 4.09076 10.1731V2.70416C4.09076 1.86638 4.89034 1.57859 4.89034 1.57859C4.89034 1.57859 5.55425 1.70993 5.68903 2.70416V3.67314C5.89452 3.83497 6.5807 4.33126 7.02397 4.12175C7.55028 3.873 7.73207 3.15952 7.73207 3.15952C7.73207 3.15952 7.68286 2.43958 7.46683 2.43958C7.25081 2.43958 7.23355 1.42544 8.06085 1.42544C8.88816 1.42544 8.9846 1.81635 8.9846 2.12796C8.9846 2.29131 8.85367 2.55346 8.72906 2.80292C8.61596 3.02936 8.50808 3.24534 8.50808 3.3675C8.50808 3.62425 8.70153 4.12175 8.9846 4.12175C9.18313 4.12175 10.1381 3.75075 10.6908 3.52915V2.70416C10.8255 1.70993 11.4895 1.57859 11.4895 1.57859C11.4895 1.57859 12.289 1.86638 12.289 2.70416V10.1731C12.289 10.1731 11.7572 9.48822 11.4895 9.18928C11.2217 8.89033 10.6908 8.08677 10.6908 7.47017V4.69451H5.68903ZM6.57509 9.91609C7.11589 9.56398 7.90696 7.98507 7.90696 7.98507L8.16961 8.04609C8.16961 8.04609 8.57065 9.09191 9.74982 9.91609C8.49292 10.2515 8.16961 10.9251 8.16961 10.9251C8.16961 10.3862 6.57509 9.91609 6.57509 9.91609ZM6.488 8.91667C6.85251 8.91667 7.148 8.63685 7.148 8.29167C7.148 7.94649 6.85251 7.66667 6.488 7.66667C6.12349 7.66667 5.828 7.94649 5.828 8.29167C5.828 8.63685 6.12349 8.91667 6.488 8.91667ZM10.36 8.29167C10.36 8.63685 10.0645 8.91667 9.69999 8.91667C9.33549 8.91667 9.03999 8.63685 9.03999 8.29167C9.03999 7.94649 9.33549 7.66667 9.69999 7.66667C10.0645 7.66667 10.36 7.94649 10.36 8.29167Z" fill="#A77B3B"/>
<path d="M12.57 5.20382L13.0289 5.4022L11.1592 9.72815L10.7002 9.52978L12.57 5.20382Z" fill="#FDFF00"/>
<path opacity="0.3" fill-rule="evenodd" clip-rule="evenodd" d="M5.51999 3.91667H10.8V7.73611C10.8 7.73611 9.45644 8.14079 8.15999 8.80486C7.20297 8.0949 5.51999 7.73611 5.51999 7.73611V3.91667Z" fill="#E1E5E8"/>
<mask id="mask1_14655_23424" style="mask-type:alpha" maskUnits="userSpaceOnUse" x="5" y="3" width="6" height="6">
<path fill-rule="evenodd" clip-rule="evenodd" d="M5.51999 3.91667H10.8V7.73611C10.8 7.73611 9.45644 8.14079 8.15999 8.80486C7.20297 8.0949 5.51999 7.73611 5.51999 7.73611V3.91667Z" fill="white"/>
</mask>
<g mask="url(#mask1_14655_23424)">
<rect x="5.51999" y="6.41667" width="5.28" height="2.5" fill="#3D58DB"/>
<rect x="5.51999" y="3.91667" width="5.28" height="2.5" fill="#FD1900"/>
<path fill-rule="evenodd" clip-rule="evenodd" d="M7.89332 5.04107L7.49315 5.07418L7.72395 4.76286L7.47799 4.44043L7.8802 4.49222L8.03442 4.13668L8.20582 4.4998L8.60599 4.46668L8.3752 4.77801L8.62115 5.10043L8.21895 5.04864L8.06473 5.40418L7.89332 5.04107Z" fill="#FDFF00"/>
<path fill-rule="evenodd" clip-rule="evenodd" d="M7.17499 4.33584C7.17499 4.33584 6.10004 4.98984 6.45835 5.45931C6.81667 5.92878 7.26771 5.98887 7.26771 5.98887C7.26771 5.98887 6.16811 7.63852 8.10346 8.58097C10.1755 7.67117 9.08578 5.98887 9.08578 5.98887C9.08578 5.98887 9.7236 5.84777 9.8513 5.34016C9.979 4.83254 9.01761 4.25033 9.01761 4.25033C9.01761 4.25033 9.61743 5.11973 9.48049 5.34016C9.34356 5.56058 8.61 5.78499 8.10346 5.78499C7.59691 5.78499 6.81471 5.64276 6.68847 5.25759C6.56223 4.87242 7.17499 4.33584 7.17499 4.33584Z" fill="#FDFF00"/>
</g>
<path fill-rule="evenodd" clip-rule="evenodd" d="M2.36832 5.76449C2.36832 5.76449 2.89538 6.3876 3.39166 6.18387C3.88794 5.98014 3.76762 5.24973 3.76762 5.24973L3.39166 5.59079H3.07163V5.76449L2.82168 5.59079V5.76449H2.36832ZM2.72478 6.72202C2.72478 6.72202 3.36717 7.28229 3.79997 7.12396C4.23276 6.96564 4.12408 6.20726 4.12408 6.20726L3.74812 6.54832H3.42809V6.72202L3.17814 6.54832V6.72202H2.72478ZM4.45468 7.99346C4.02189 8.15179 3.37949 7.59152 3.37949 7.59152H3.83286V7.41782L4.08281 7.59152V7.41782H4.40284L4.7788 7.07676C4.7788 7.07676 4.88748 7.83514 4.45468 7.99346Z" fill="#048F02"/>
<path fill-rule="evenodd" clip-rule="evenodd" d="M6.98967 1.12424H6.48967V1.42204H6.25433V1.92204H6.48967V2.79435H6.98967V1.92204H7.27575V1.42204H6.98967V1.12424Z" fill="#FDFF00"/>
<path fill-rule="evenodd" clip-rule="evenodd" d="M7.57905 1.69228L6.42097 1.9906L7.57905 2.35654V1.69228Z" fill="#DB4400"/>
</g>
<rect width="16" height="12" fill="url(#paint0_linear_14655_23424)" style="mix-blend-mode:overlay"/>
</g>
<defs>
<linearGradient id="paint0_linear_14655_23424" x1="8" y1="0" x2="8" y2="12" gradientUnits="userSpaceOnUse">
<stop stop-color="white" stop-opacity="0.7"/>
<stop offset="1" stop-opacity="0.3"/>
</linearGradient>
<clipPath id="clip0_14655_23424">
<rect width="16" height="12" rx="1" fill="white"/>
</clipPath>
</defs>
</svg>
