<svg width="16" height="12" viewBox="0 0 16 12" fill="none" xmlns="http://www.w3.org/2000/svg">
<g clip-path="url(#clip0_14655_23426)">
<mask id="mask0_14655_23426" style="mask-type:alpha" maskUnits="userSpaceOnUse" x="0" y="0" width="16" height="12">
<rect width="16" height="12" fill="white"/>
</mask>
<g mask="url(#mask0_14655_23426)">
<path fill-rule="evenodd" clip-rule="evenodd" d="M0 0H16V12H0V0Z" fill="#E8AA00"/>
<path fill-rule="evenodd" clip-rule="evenodd" d="M2 2H14V10H2V2Z" fill="#C51918"/>
<mask id="mask1_14655_23426" style="mask-type:alpha" maskUnits="userSpaceOnUse" x="2" y="2" width="12" height="8">
<path fill-rule="evenodd" clip-rule="evenodd" d="M2 2H14V10H2V2Z" fill="white"/>
</mask>
<g mask="url(#mask1_14655_23426)">
<path fill-rule="evenodd" clip-rule="evenodd" d="M10.1154 7.87568C10.3193 7.87568 10.4846 7.70627 10.4846 7.4973C10.4846 7.28833 10.3193 7.11892 10.1154 7.11892C9.91147 7.11892 9.74615 7.28833 9.74615 7.4973C9.74615 7.70627 9.91147 7.87568 10.1154 7.87568Z" fill="#1E5E91"/>
<path fill-rule="evenodd" clip-rule="evenodd" d="M5.3138 6.16592C4.34518 5.0402 5.73343 3.08661 5.73343 3.08661C5.73343 3.08661 5.94097 4.25338 6.70915 5.03851C6.70915 5.09426 6.63661 5.17652 6.56316 5.2598C6.51188 5.31796 6.46015 5.37662 6.43237 5.42709C6.36484 5.54985 6.5967 5.61982 6.70915 5.61982C6.75962 5.61982 6.7875 5.69301 6.81267 5.75907C6.84358 5.84019 6.87038 5.91056 6.92988 5.82142C7.03783 5.65969 6.82193 5.30433 6.82193 5.30433L7.16371 4.94383L7.2793 4.7108H7.16371V4.47087L7.08273 4.53738C7.08273 4.53738 6.99386 4.32286 6.82193 4.32286C6.65 4.32286 6.5967 4.22476 6.5967 4.22476H6.82193C6.93472 4.22476 6.80391 4.07531 6.70915 3.99747C6.66667 3.96257 6.60223 3.9746 6.54406 3.98547C6.47245 3.99883 6.41034 4.01043 6.41034 3.93057C6.41034 3.84303 6.47849 3.83144 6.55724 3.81804C6.60871 3.80928 6.6647 3.79975 6.70915 3.76775C6.78266 3.71482 6.88173 3.73109 6.98898 3.74871C7.04579 3.75804 7.1049 3.76775 7.16371 3.76775H7.4422C7.54275 3.76775 7.2793 3.93057 7.2793 3.93057L7.4422 4.07531L7.68443 4.32286L7.56329 4.39476L7.81326 4.63716C7.81326 4.63716 7.72841 4.77512 7.81326 4.77512C7.84824 4.77512 7.87125 4.80378 7.88622 4.83748C7.90119 4.80378 7.92421 4.77512 7.95918 4.77512C8.04403 4.77512 7.95918 4.63716 7.95918 4.63716L8.20915 4.39476L8.08801 4.32286L8.33025 4.07531L8.49314 3.93057C8.49314 3.93057 8.22969 3.76775 8.33025 3.76775H8.60873C8.66754 3.76775 8.72665 3.75804 8.78346 3.74871C8.89071 3.73109 8.98979 3.71482 9.06329 3.76775C9.10774 3.79975 9.16373 3.80928 9.2152 3.81804C9.29395 3.83144 9.36211 3.84303 9.36211 3.93057C9.36211 4.01043 9.29999 3.99883 9.22838 3.98547C9.17021 3.9746 9.10577 3.96257 9.06329 3.99747C8.96853 4.07531 8.83773 4.22476 8.95051 4.22476H9.17574C9.17574 4.22476 9.12244 4.32286 8.95051 4.32286C8.77858 4.32286 8.68972 4.53738 8.68972 4.53738L8.60873 4.47087V4.7108H8.49314L8.60873 4.94383L8.95051 5.30433C8.95051 5.30433 8.73461 5.65969 8.84256 5.82142C8.90206 5.91056 8.92887 5.84019 8.95977 5.75907C8.98494 5.69301 9.01283 5.61982 9.06329 5.61982C9.17574 5.61982 9.4076 5.54985 9.34007 5.42709C9.3123 5.37662 9.26057 5.31796 9.20928 5.2598C9.13583 5.17652 9.06329 5.09426 9.06329 5.03851C9.83147 4.25338 10.039 3.08661 10.039 3.08661C10.039 3.08661 11.4273 5.0402 10.4586 6.16592C9.49003 7.29165 8.77858 6.95219 8.77858 6.95219C8.77858 6.95219 9.63666 7.75052 9.73168 7.7507C9.74507 7.75073 9.71515 7.67705 9.68548 7.604C9.6562 7.5319 9.62717 7.46042 9.64026 7.46098C9.66788 7.46217 9.72217 7.5277 9.77665 7.59346C9.82008 7.64588 9.86362 7.69845 9.89388 7.71869C9.91336 7.73172 9.98945 7.70529 10.06 7.68079C10.1196 7.66009 10.1752 7.64077 10.1893 7.64785C10.2487 7.67785 10.2335 7.73856 10.219 7.79637C10.2153 7.81123 10.2116 7.82591 10.2093 7.83981C10.2072 7.85246 10.2833 7.80307 10.3634 7.75111C10.4475 7.69656 10.5359 7.63919 10.5427 7.64785C10.5441 7.64967 10.5456 7.65152 10.5472 7.65344C10.5758 7.68784 10.6219 7.74326 10.2819 8.00531C10.2819 8.05569 10.2836 8.09679 10.2851 8.13019C10.2898 8.23743 10.291 8.2652 10.2183 8.2652C10.186 8.2652 10.1407 8.28124 10.0883 8.29983C9.95378 8.3475 9.77216 8.41187 9.64026 8.2652C9.45693 8.06133 8.33025 7.24079 8.33025 7.24079L8.20915 7.30833C8.20915 7.30833 8.62182 8.44718 8.84256 8.4551C8.95225 8.45904 8.78569 8.56549 8.56505 8.7065C8.34168 8.84925 8.06288 9.02742 7.95918 9.17051C7.92831 9.2131 7.90446 9.14817 7.88622 9.00696C7.86798 9.14817 7.84413 9.2131 7.81326 9.17051C7.70956 9.02742 7.43076 8.84925 7.2074 8.7065C6.98675 8.56549 6.82019 8.45904 6.92988 8.4551C7.15062 8.44718 7.56329 7.30833 7.56329 7.30833L7.4422 7.24079L6.99386 7.75574C6.99386 7.75574 6.31551 8.06133 6.13218 8.2652C6.00028 8.41187 5.81866 8.3475 5.68418 8.29983C5.63173 8.28124 5.58646 8.2652 5.5541 8.2652C5.43876 8.2652 5.40015 8.10381 5.5541 7.90593C5.64444 7.78982 5.78271 7.77429 5.91454 7.75949C6.00737 7.74906 6.097 7.739 6.16444 7.69441C6.32763 7.58653 6.5967 7.30833 6.5967 7.30833L6.99386 6.95219C6.99386 6.95219 6.28241 7.29165 5.3138 6.16592Z" fill="#F6C540"/>
<path fill-rule="evenodd" clip-rule="evenodd" d="M6.21655 8.51517L5.77899 7.74807C5.77899 7.74807 5.2069 6.42902 5.2069 6.26887C5.2069 6.10873 4.9766 5.63448 4.9766 5.77214C4.9766 5.90981 4.95753 7.01369 4.95753 7.01369L5.94183 8.44337V8.61471H6.07182L6.21655 8.51517Z" fill="#F6C540"/>
<path d="M9.72093 7.48246L9.7875 7.26151L10.6004 7.50642L10.5339 7.72738L9.72093 7.48246Z" fill="#F6C540"/>
<path d="M10.1539 7.08017L10.3738 7.15213L10.159 7.84114L9.93916 7.76918L10.1539 7.08017Z" fill="#F6C540"/>
<path fill-rule="evenodd" clip-rule="evenodd" d="M8.06858 2.64626C8.03669 2.6337 8.0028 2.62201 7.96693 2.61121L7.96427 2.62049C7.93268 2.61459 7.90314 2.61121 7.87692 2.61121C7.86754 2.61121 7.85773 2.61165 7.84756 2.61247L7.8472 2.61121C7.8452 2.61182 7.8432 2.61242 7.84121 2.61303C7.7842 2.61847 7.71637 2.63566 7.6474 2.65803C7.2829 2.69929 7.09454 2.85961 7.11539 3.13549C7.1261 3.27719 7.17359 3.37822 7.25307 3.43545V3.51988C7.25307 3.51988 7.66897 3.79024 7.87692 3.79024C8.08487 3.79024 8.50077 3.51988 8.50077 3.51988V3.46732C8.61538 3.42152 8.68362 3.30899 8.69673 3.13549C8.7182 2.85148 8.51794 2.68994 8.13202 2.65469L8.13096 2.66617C8.11007 2.65907 8.08919 2.65237 8.06858 2.64626ZM8.50077 3.30076V2.93345C8.54599 2.98401 8.56449 3.0479 8.55863 3.12538C8.55252 3.20623 8.53415 3.26409 8.50077 3.30076ZM7.25307 3.11904V3.07806C7.25223 3.09126 7.25223 3.10492 7.25307 3.11904Z" fill="#F6C540"/>
<path fill-rule="evenodd" clip-rule="evenodd" d="M6.97692 5.17973C6.97692 5.17973 7.54577 5.07238 7.85385 5.07238C8.13038 5.07238 8.73077 5.17973 8.73077 5.17973C8.73077 5.85975 8.92213 6.27608 8.73077 6.74054C8.53941 7.205 8.07175 6.98174 7.86009 7.4262C7.58958 7.00462 7.22426 7.23667 6.97692 6.63636C6.72959 6.03605 7.12729 5.75956 6.97692 5.17973Z" fill="#1E5E91"/>
<mask id="mask2_14655_23426" style="mask-type:alpha" maskUnits="userSpaceOnUse" x="6" y="5" width="3" height="3">
<path fill-rule="evenodd" clip-rule="evenodd" d="M6.97692 5.17973C6.97692 5.17973 7.54577 5.07238 7.85385 5.07238C8.13038 5.07238 8.73077 5.17973 8.73077 5.17973C8.73077 5.85975 8.92213 6.27608 8.73077 6.74054C8.53941 7.205 8.07175 6.98174 7.86009 7.4262C7.58958 7.00462 7.22426 7.23667 6.97692 6.63636C6.72959 6.03605 7.12729 5.75956 6.97692 5.17973Z" fill="white"/>
</mask>
<g mask="url(#mask2_14655_23426)">
<rect x="6.97693" y="6.59865" width="1.75385" height="0.851351" fill="#5EAA22"/>
</g>
<path fill-rule="evenodd" clip-rule="evenodd" d="M7.90001 6.4C8.17615 6.4 8.40001 6.17614 8.40001 5.9C8.40001 5.62386 8.17615 5.4 7.90001 5.4C7.62387 5.4 7.40001 5.62386 7.40001 5.9C7.40001 6.17614 7.62387 6.4 7.90001 6.4Z" fill="#F6C540"/>
</g>
</g>
<rect width="16" height="12" fill="url(#paint0_linear_14655_23426)" style="mix-blend-mode:overlay"/>
</g>
<defs>
<linearGradient id="paint0_linear_14655_23426" x1="8" y1="0" x2="8" y2="12" gradientUnits="userSpaceOnUse">
<stop stop-color="white" stop-opacity="0.7"/>
<stop offset="1" stop-opacity="0.3"/>
</linearGradient>
<clipPath id="clip0_14655_23426">
<rect width="16" height="12" rx="1" fill="white"/>
</clipPath>
</defs>
</svg>
