<svg width="16" height="12" viewBox="0 0 16 12" fill="none" xmlns="http://www.w3.org/2000/svg">
<g clip-path="url(#clip0_14655_23436)">
<mask id="mask0_14655_23436" style="mask-type:alpha" maskUnits="userSpaceOnUse" x="0" y="0" width="16" height="12">
<rect width="16" height="12" rx="-1" fill="white"/>
</mask>
<g mask="url(#mask0_14655_23436)">
<path fill-rule="evenodd" clip-rule="evenodd" d="M5 0H11V12H5V0Z" fill="#4C67E8"/>
<path fill-rule="evenodd" clip-rule="evenodd" d="M11 0H16V12H11V0Z" fill="#C51918"/>
<path fill-rule="evenodd" clip-rule="evenodd" d="M0 0H6V12H0V0Z" fill="#C51918"/>
<path fill-rule="evenodd" clip-rule="evenodd" d="M3.00694 3.44211C2.50026 3.44211 2.56677 2.94844 2.56677 2.94844L2.807 2.42964V2.63862V2.94844C2.807 3.01517 2.89805 2.88171 2.89805 2.72105C2.89805 2.5604 3.00694 2.31983 3.00694 2.31983C3.00694 2.31983 3.01131 2.23938 3.01432 2.15995C3.03175 2.20082 3.06668 2.23621 3.11972 2.28993C3.12897 2.29929 3.13877 2.30922 3.14912 2.31983C3.21172 2.38397 3.20327 2.5539 3.19597 2.70092C3.18935 2.83407 3.18367 2.94844 3.23253 2.94844C3.33535 2.94844 3.3277 2.48905 3.3277 2.48905L3.50027 2.94844C3.50027 2.94844 3.51361 3.44211 3.00694 3.44211ZM3.00694 2.03227C3.01983 1.95689 3.0182 2.05758 3.01432 2.15995C2.99977 2.12583 2.99742 2.08789 3.00694 2.03227ZM3.76923 4.34189C3.76923 4.74324 3.43344 5.0686 3.01923 5.0686C2.60502 5.0686 2.26923 4.74324 2.26923 4.34189C2.26923 3.94055 2.60502 3.61519 3.01923 3.61519C3.43344 3.61519 3.76923 3.94055 3.76923 4.34189ZM1.88462 5.70213H1V9.98781H1.88462V5.70213ZM5 5.70213H4.11538V9.98781H5V5.70213ZM2.11538 5.7394L2.97775 6.27332L3.94969 5.7394H2.11538ZM2.97775 10L2.11538 9.46607H3.94969L2.97775 10ZM2.11538 6.44747H3.92308V6.78287H2.11538V6.44747ZM3.92308 8.94434H2.11538V9.27974H3.92308V8.94434ZM3.03846 8.75801C3.54826 8.75801 3.96154 8.35757 3.96154 7.8636C3.96154 7.36964 3.54826 6.9692 3.03846 6.9692C2.52866 6.9692 2.11538 7.36964 2.11538 7.8636C2.11538 8.35757 2.52866 8.75801 3.03846 8.75801ZM2.0016 4.6081C2.0016 4.6081 2.03268 5.54177 2.95293 5.54177C3.87319 5.54177 4.02172 4.6081 4.02172 4.6081C4.02172 4.6081 3.66552 5.18003 3.01166 5.18003C2.3578 5.18003 2.0016 4.6081 2.0016 4.6081Z" fill="#F8D000"/>
</g>
<rect width="16" height="12" fill="url(#paint0_linear_14655_23436)" style="mix-blend-mode:overlay"/>
</g>
<defs>
<linearGradient id="paint0_linear_14655_23436" x1="8" y1="0" x2="8" y2="12" gradientUnits="userSpaceOnUse">
<stop stop-color="white" stop-opacity="0.7"/>
<stop offset="1" stop-opacity="0.3"/>
</linearGradient>
<clipPath id="clip0_14655_23436">
<rect width="16" height="12" rx="1" fill="white"/>
</clipPath>
</defs>
</svg>
