<svg width="16" height="12" viewBox="0 0 16 12" fill="none" xmlns="http://www.w3.org/2000/svg">
<g clip-path="url(#clip0_14655_23445)">
<mask id="mask0_14655_23445" style="mask-type:alpha" maskUnits="userSpaceOnUse" x="0" y="0" width="16" height="12">
<rect width="16" height="12" fill="white"/>
</mask>
<g mask="url(#mask0_14655_23445)">
<path fill-rule="evenodd" clip-rule="evenodd" d="M0 0V12H16V0H0Z" fill="#E11C1B"/>
<mask id="mask1_14655_23445" style="mask-type:alpha" maskUnits="userSpaceOnUse" x="0" y="0" width="16" height="12">
<path fill-rule="evenodd" clip-rule="evenodd" d="M0 0V12H16V0H0Z" fill="white"/>
</mask>
<g mask="url(#mask1_14655_23445)">
<path fill-rule="evenodd" clip-rule="evenodd" d="M0 0V5H16V0H0Z" fill="#272727"/>
<path fill-rule="evenodd" clip-rule="evenodd" d="M0 8V12H16V8H0Z" fill="#5EAA22"/>
<path fill-rule="evenodd" clip-rule="evenodd" d="M2.00083 6.97294V6.97173L1.99615 6.97253L2.00083 6.97294ZM2.31505 5.0634H2.36655L2.28762 5.05132L2.31505 5.0634ZM3.77881 5.0634C3.80499 5.01308 3.83232 4.96331 3.86078 4.9141L2.71606 4.15635L4.06625 4.59556C4.14176 4.48997 4.22272 4.38759 4.30879 4.28872L3.31658 3.34406L4.581 4.00387C4.67376 3.9153 4.77098 3.83029 4.87235 3.74909L4.06991 2.64057L5.20317 3.50752C5.3086 3.43744 5.41756 3.37114 5.5298 3.30885L4.95181 2.06848L5.90913 3.11933C6.02322 3.06832 6.14005 3.02123 6.25936 2.97827L5.93395 1.64618L6.67522 2.84816C6.79456 2.81626 6.91593 2.78837 7.03913 2.76465L6.98476 1.38725L7.47782 2.69895C7.59957 2.68583 7.72276 2.67673 7.84722 2.67181L8.07046 1.3L8.29377 2.67221C8.41808 2.67735 8.54112 2.68666 8.66271 2.69998L9.15616 1.38725L9.10172 2.76654C9.22447 2.79041 9.3454 2.81843 9.4643 2.85043L10.207 1.64618L9.88076 2.98154C9.99937 3.0245 10.1155 3.07155 10.2289 3.12247L11.1891 2.06848L10.6091 3.31321C10.7204 3.37527 10.8285 3.44128 10.9332 3.51102L12.071 2.64057L11.2649 3.75409C11.3653 3.8348 11.4616 3.91925 11.5535 4.0072L12.8243 3.34406L11.8267 4.29385C11.9118 4.39195 11.9919 4.49348 12.0667 4.59816L13.4249 4.15635L12.273 4.91882C12.3005 4.96649 12.3269 5.01469 12.3522 5.0634H11.3698C10.6927 4.1249 9.45528 3.49659 8.04091 3.49659C6.62655 3.49659 5.38909 4.1249 4.71204 5.0634H3.77881ZM5.27984 5.0634C5.92128 4.40181 6.92848 3.97553 8.06101 3.97553C9.19354 3.97553 10.2007 4.40181 10.8422 5.0634H5.27984ZM13.7744 5.0634H13.8259L13.8533 5.05132L13.7744 5.0634ZM14.1408 6.97185L14.1448 6.97253L14.1408 6.97288V6.97185Z" fill="#E11C1B"/>
</g>
</g>
<rect width="16" height="12" fill="url(#paint0_linear_14655_23445)" style="mix-blend-mode:overlay"/>
</g>
<defs>
<linearGradient id="paint0_linear_14655_23445" x1="8" y1="0" x2="8" y2="12" gradientUnits="userSpaceOnUse">
<stop stop-color="white" stop-opacity="0.7"/>
<stop offset="1" stop-opacity="0.3"/>
</linearGradient>
<clipPath id="clip0_14655_23445">
<rect width="16" height="12" rx="1" fill="white"/>
</clipPath>
</defs>
</svg>
