<svg width="16" height="12" viewBox="0 0 16 12" fill="none" xmlns="http://www.w3.org/2000/svg">
<g clip-path="url(#clip0_14655_23446)">
<mask id="mask0_14655_23446" style="mask-type:alpha" maskUnits="userSpaceOnUse" x="0" y="0" width="16" height="12">
<rect width="16" height="12" fill="white"/>
</mask>
<g mask="url(#mask0_14655_23446)">
<path fill-rule="evenodd" clip-rule="evenodd" d="M0 0H16V12H0V0Z" fill="#F7FCFF"/>
<rect x="0.0135803" y="2.5" width="16" height="1.45" fill="#E31D1C"/>
<rect x="0.0135803" y="5.10001" width="16" height="1.45" fill="#E31D1C"/>
<rect x="0.0558319" y="7.60001" width="16" height="1.25" fill="#E31D1C"/>
<rect x="0.0558319" y="10.1" width="16" height="1.35" fill="#E31D1C"/>
<path fill-rule="evenodd" clip-rule="evenodd" d="M0 0H16V1.25H0V0Z" fill="#E31D1C"/>
<path fill-rule="evenodd" clip-rule="evenodd" d="M0 0H8V6H0V0Z" fill="#3D58DB"/>
<path fill-rule="evenodd" clip-rule="evenodd" d="M1.79677 3.10111C1.79677 3.78922 2.12088 4.43993 2.78025 4.43993C3.76954 4.43993 3.96201 4.22902 4.42363 3.93803C4.53277 4.18317 4.16465 5.23222 2.76675 5.23222C1.64862 5.20971 0.74501 4.31144 0.74501 3.10111C0.74501 1.71185 1.7668 0.961579 2.73869 0.970073C3.59671 0.970073 4.50672 1.45695 4.47884 2.07806C4.07456 1.68314 3.63559 1.68314 2.90485 1.68314C2.1741 1.68314 1.79677 2.41291 1.79677 3.10111Z" fill="#FECA00"/>
<path fill-rule="evenodd" clip-rule="evenodd" d="M5.5 3.64999L5.03647 4.32658L5.05916 3.50676L4.28647 3.78167L4.78671 3.13176L4 2.89999L4.78671 2.66823L4.28647 2.01832L5.05916 2.29323L5.03647 1.47341L5.5 2.14999L5.96353 1.47341L5.94084 2.29323L6.71353 2.01832L6.21329 2.66823L7 2.89999L6.21329 3.13176L6.71353 3.78167L5.94084 3.50676L5.96353 4.32658L5.5 3.64999Z" fill="#FECA00"/>
</g>
<rect width="16" height="12" fill="url(#paint0_linear_14655_23446)" style="mix-blend-mode:overlay"/>
</g>
<defs>
<linearGradient id="paint0_linear_14655_23446" x1="8" y1="0" x2="8" y2="12" gradientUnits="userSpaceOnUse">
<stop stop-color="white" stop-opacity="0.7"/>
<stop offset="1" stop-opacity="0.3"/>
</linearGradient>
<clipPath id="clip0_14655_23446">
<rect width="16" height="12" rx="1" fill="white"/>
</clipPath>
</defs>
</svg>
