<svg width="16" height="12" viewBox="0 0 16 12" fill="none" xmlns="http://www.w3.org/2000/svg">
<g clip-path="url(#clip0_14655_23455)">
<mask id="mask0_14655_23455" style="mask-type:alpha" maskUnits="userSpaceOnUse" x="0" y="0" width="16" height="12">
<rect width="16" height="12" fill="white"/>
</mask>
<g mask="url(#mask0_14655_23455)">
<path fill-rule="evenodd" clip-rule="evenodd" d="M0 0V12H16V0H0Z" fill="#F7FCFF"/>
<mask id="mask1_14655_23455" style="mask-type:alpha" maskUnits="userSpaceOnUse" x="0" y="0" width="16" height="12">
<path fill-rule="evenodd" clip-rule="evenodd" d="M0 0V12H16V0H0Z" fill="white"/>
</mask>
<g mask="url(#mask1_14655_23455)">
<path fill-rule="evenodd" clip-rule="evenodd" d="M0 0V4H16V0H0Z" fill="#0080EC"/>
<path fill-rule="evenodd" clip-rule="evenodd" d="M0 8V12H16V8H0Z" fill="#0080EC"/>
<path fill-rule="evenodd" clip-rule="evenodd" d="M8 4C8.09423 4 8.18693 4.00652 8.27769 4.01912L8.17865 4.65713C8.12019 4.64943 8.06056 4.64545 8 4.64545C7.91193 4.64545 7.82582 4.65386 7.74244 4.66991L7.69615 4.02293C7.79523 4.00783 7.8967 4 8 4ZM8.57606 4.08421L8.40227 4.70619C8.95394 4.87752 9.35455 5.39198 9.35455 6C9.35455 6.01495 9.3543 6.02984 9.35382 6.04466L9.99758 6.09924C9.99919 6.06636 10 6.03328 10 6C10 5.09569 9.39982 4.33155 8.57606 4.08421ZM9.75672 6.95678C9.43979 7.53748 8.84331 7.9437 8.14815 7.9946V7.34654C8.51849 7.30625 8.844 7.11669 9.06327 6.83928L9.75672 6.95678ZM6.2884 7.03518C6.62038 7.58292 7.20788 7.95856 7.88559 7.99678V7.34978C7.49062 7.31675 7.14382 7.11425 6.91814 6.81522L6.2884 7.03518ZM6.00181 6.08576C6.00061 6.05732 6 6.02873 6 6C6 5.15078 6.52928 4.42518 7.27596 4.13508L7.44289 4.76496C6.97543 4.97616 6.6493 5.44495 6.64549 5.99034L6.00181 6.08576Z" fill="#D0AB00"/>
<path fill-rule="evenodd" clip-rule="evenodd" d="M7.98741 4.47487L6.61897 6.84026H9.37733L7.98741 4.47487Z" fill="#7CDFFF"/>
<mask id="mask2_14655_23455" style="mask-type:alpha" maskUnits="userSpaceOnUse" x="6" y="4" width="4" height="3">
<path fill-rule="evenodd" clip-rule="evenodd" d="M7.98741 4.47487L6.61897 6.84026H9.37733L7.98741 4.47487Z" fill="white"/>
</mask>
<g mask="url(#mask2_14655_23455)">
<path d="M8 7.55909C8.66023 7.55909 9.19545 7.02387 9.19545 6.36364C9.19545 5.70341 8.66023 5.16818 8 5.16818C7.33977 5.16818 6.80454 5.70341 6.80454 6.36364C6.80454 7.02387 7.33977 7.55909 8 7.55909Z" stroke="#E31D1C" stroke-width="0.5"/>
<path d="M8 7.55909C8.66023 7.55909 9.19545 7.02387 9.19545 6.36364C9.19545 5.70341 8.66023 5.16818 8 5.16818C7.33977 5.16818 6.80454 5.70341 6.80454 6.36364C6.80454 7.02387 7.33977 7.55909 8 7.55909Z" stroke="#FFD018" stroke-width="0.5"/>
<path d="M8 7.55909C8.66023 7.55909 9.19545 7.02387 9.19545 6.36364C9.19545 5.70341 8.66023 5.16818 8 5.16818C7.33977 5.16818 6.80454 5.70341 6.80454 6.36364C6.80454 7.02387 7.33977 7.55909 8 7.55909Z" stroke="#4EDD00" stroke-width="0.5"/>
<path d="M8 7.55909C8.66023 7.55909 9.19545 7.02387 9.19545 6.36364C9.19545 5.70341 8.66023 5.16818 8 5.16818C7.33977 5.16818 6.80454 5.70341 6.80454 6.36364C6.80454 7.02387 7.33977 7.55909 8 7.55909Z" stroke="#3D58DB" stroke-width="0.5"/>
<rect x="6.50909" y="6.1091" width="3.12727" height="0.909091" fill="#3D58DB"/>
<path fill-rule="evenodd" clip-rule="evenodd" d="M6.71846 6.49547L7.34175 5.87565L7.53304 6.18556L7.66668 5.80762L7.81508 6.09092L7.97097 5.87565L8.17266 6.09092L8.35758 5.80762L8.51565 6.09092L8.69702 5.87565L9.1208 6.32599L9.19708 6.49547L6.71846 6.6212V6.49547Z" fill="#97C923"/>
</g>
</g>
</g>
<rect width="16" height="12" fill="url(#paint0_linear_14655_23455)" style="mix-blend-mode:overlay"/>
</g>
<defs>
<linearGradient id="paint0_linear_14655_23455" x1="8" y1="0" x2="8" y2="12" gradientUnits="userSpaceOnUse">
<stop stop-color="white" stop-opacity="0.7"/>
<stop offset="1" stop-opacity="0.3"/>
</linearGradient>
<clipPath id="clip0_14655_23455">
<rect width="16" height="12" rx="1" fill="white"/>
</clipPath>
</defs>
</svg>
