<svg width="16" height="12" viewBox="0 0 16 12" fill="none" xmlns="http://www.w3.org/2000/svg">
<g clip-path="url(#clip0_14655_23417)">
<mask id="mask0_14655_23417" style="mask-type:alpha" maskUnits="userSpaceOnUse" x="0" y="0" width="16" height="12">
<rect width="16" height="12" fill="white"/>
</mask>
<g mask="url(#mask0_14655_23417)">
<path fill-rule="evenodd" clip-rule="evenodd" d="M4 0H12.5V12H4V0Z" fill="#F7FCFF"/>
<path fill-rule="evenodd" clip-rule="evenodd" d="M12 0H16V12H12V0Z" fill="#F50101"/>
<path fill-rule="evenodd" clip-rule="evenodd" d="M0 0H4V12H0V0Z" fill="#F50101"/>
<path d="M7.87065 4.37257L7.8874 4.55355C7.38818 4.60404 7.11847 4.36011 7.11847 3.85384C7.11847 3.35148 7.38235 3.08446 7.87849 3.0813L7.87955 3.26311C7.47757 3.26567 7.29238 3.45307 7.29238 3.85384C7.29238 4.2507 7.47174 4.41292 7.87065 4.37257Z" fill="#A2BB6A"/>
<path d="M8.09175 4.37257L8.075 4.55355C8.57423 4.60404 8.84393 4.36011 8.84393 3.85384C8.84393 3.35148 8.58006 3.08446 8.08391 3.0813L8.08285 3.26311C8.48483 3.26567 8.67002 3.45307 8.67002 3.85384C8.67002 4.2507 8.49066 4.41292 8.09175 4.37257Z" fill="#A2BB6A"/>
<mask id="path-8-outside-1_14655_23417" maskUnits="userSpaceOnUse" x="5.58847" y="3.44075" width="5" height="6" fill="black">
<rect fill="white" x="5.58847" y="3.44075" width="5" height="6"/>
<path fill-rule="evenodd" clip-rule="evenodd" d="M8.04337 4.45272C8.05668 4.44518 8.06411 4.44075 8.06411 4.44075V4.46431C8.16037 4.51742 8.40273 4.64186 8.56033 4.64186C8.76067 4.64186 9.03298 4.44075 9.03298 4.44075L9.48863 5.08412C9.48863 5.08412 9.18177 5.72727 9.41657 6.51317C9.65137 7.29908 9.40414 7.90506 8.35998 7.97235C8.35998 7.97235 8.15424 8.01144 8.06411 8.07375V8.1313C8.06411 8.11699 8.05642 8.10337 8.04337 8.09057C8.03032 8.10337 8.02263 8.11699 8.02263 8.1313V8.07375C7.9325 8.01144 7.72676 7.97235 7.72676 7.97235C6.6826 7.90506 6.43537 7.29908 6.67017 6.51317C6.90497 5.72727 6.59811 5.08412 6.59811 5.08412L7.05376 4.44075C7.05376 4.44075 7.32607 4.64186 7.52641 4.64186C7.68401 4.64186 7.92637 4.51742 8.02263 4.46431V4.44075C8.02263 4.44075 8.03006 4.44518 8.04337 4.45272Z"/>
</mask>
<path fill-rule="evenodd" clip-rule="evenodd" d="M8.04337 4.45272C8.05668 4.44518 8.06411 4.44075 8.06411 4.44075V4.46431C8.16037 4.51742 8.40273 4.64186 8.56033 4.64186C8.76067 4.64186 9.03298 4.44075 9.03298 4.44075L9.48863 5.08412C9.48863 5.08412 9.18177 5.72727 9.41657 6.51317C9.65137 7.29908 9.40414 7.90506 8.35998 7.97235C8.35998 7.97235 8.15424 8.01144 8.06411 8.07375V8.1313C8.06411 8.11699 8.05642 8.10337 8.04337 8.09057C8.03032 8.10337 8.02263 8.11699 8.02263 8.1313V8.07375C7.9325 8.01144 7.72676 7.97235 7.72676 7.97235C6.6826 7.90506 6.43537 7.29908 6.67017 6.51317C6.90497 5.72727 6.59811 5.08412 6.59811 5.08412L7.05376 4.44075C7.05376 4.44075 7.32607 4.64186 7.52641 4.64186C7.68401 4.64186 7.92637 4.51742 8.02263 4.46431V4.44075C8.02263 4.44075 8.03006 4.44518 8.04337 4.45272Z" fill="#E8AA00"/>
<path d="M8.06411 4.44075H8.56411V3.56057L7.80808 4.01128L8.06411 4.44075ZM8.04337 4.45272L7.79681 4.8877L8.04337 5.02746L8.28993 4.8877L8.04337 4.45272ZM8.06411 4.46431H7.56411V4.75951L7.82257 4.90211L8.06411 4.46431ZM9.03298 4.44075L9.44102 4.15177L9.14623 3.73554L8.73594 4.03855L9.03298 4.44075ZM9.48863 5.08412L9.93989 5.29943L10.0663 5.0346L9.89666 4.79514L9.48863 5.08412ZM9.41657 6.51317L8.93749 6.6563L9.41657 6.51317ZM8.35998 7.97235L8.32783 7.47339L8.297 7.47537L8.26664 7.48114L8.35998 7.97235ZM8.06411 8.07375L7.77982 7.66243L7.56411 7.81153V8.07375H8.06411ZM8.04337 8.09057L8.39348 7.73361L8.04337 7.39021L7.69326 7.73361L8.04337 8.09057ZM8.02263 8.07375H8.52263V7.81153L8.30692 7.66243L8.02263 8.07375ZM7.72676 7.97235L7.82009 7.48114L7.78974 7.47537L7.75891 7.47339L7.72676 7.97235ZM6.59811 5.08412L6.19008 4.79514L6.02049 5.0346L6.14685 5.29943L6.59811 5.08412ZM7.05376 4.44075L7.3508 4.03855L6.94051 3.73554L6.64572 4.15177L7.05376 4.44075ZM8.02263 4.46431L8.26417 4.90211L8.52263 4.75951V4.46431H8.02263ZM8.02263 4.44075L8.27866 4.01128L7.52263 3.56057V4.44075H8.02263ZM8.06411 4.44075C7.80808 4.01128 7.80808 4.01127 7.80809 4.01127C7.8081 4.01126 7.8081 4.01126 7.80811 4.01126C7.80812 4.01125 7.80813 4.01124 7.80814 4.01124C7.80816 4.01122 7.80818 4.01121 7.8082 4.0112C7.80824 4.01118 7.80828 4.01115 7.80832 4.01113C7.80839 4.01109 7.80845 4.01105 7.80851 4.01101C7.80863 4.01094 7.80872 4.01089 7.80879 4.01085C7.80892 4.01078 7.80894 4.01076 7.80885 4.01081C7.80869 4.01091 7.8081 4.01125 7.80713 4.01182C7.80518 4.01296 7.80168 4.01498 7.79681 4.01774L8.28993 4.8877C8.29837 4.88292 8.30524 4.87896 8.31033 4.87599C8.31287 4.87451 8.31498 4.87327 8.31662 4.87231C8.31744 4.87182 8.31815 4.87141 8.31873 4.87106C8.31903 4.87088 8.31929 4.87073 8.31953 4.87059C8.31964 4.87052 8.31975 4.87045 8.31985 4.87039C8.3199 4.87036 8.31995 4.87033 8.32 4.87031C8.32002 4.87029 8.32005 4.87028 8.32007 4.87026C8.32008 4.87026 8.32009 4.87025 8.3201 4.87024C8.32011 4.87024 8.32012 4.87024 8.32012 4.87023C8.32013 4.87023 8.32014 4.87023 8.06411 4.44075ZM8.56411 4.46431V4.44075H7.56411V4.46431H8.56411ZM7.82257 4.90211C7.87931 4.93341 7.98271 4.98786 8.09999 5.03581C8.20134 5.07725 8.37799 5.14186 8.56033 5.14186V4.14186C8.58126 4.14186 8.58336 4.14512 8.5599 4.1388C8.5395 4.1333 8.5119 4.12387 8.47845 4.11019C8.41108 4.08265 8.34516 4.04833 8.30564 4.02652L7.82257 4.90211ZM8.56033 5.14186C8.79427 5.14186 9.00739 5.03631 9.10933 4.98127C9.1717 4.9476 9.22468 4.91451 9.2621 4.88989C9.28105 4.87742 9.29661 4.86673 9.30808 4.85869C9.31382 4.85466 9.31858 4.85126 9.32225 4.84861C9.32409 4.84729 9.32567 4.84614 9.32697 4.8452C9.32761 4.84472 9.32819 4.8443 9.3287 4.84392C9.32896 4.84374 9.3292 4.84356 9.32941 4.8434C9.32952 4.84332 9.32963 4.84324 9.32973 4.84317C9.32978 4.84313 9.32985 4.84308 9.32988 4.84306C9.32995 4.84301 9.33002 4.84295 9.03298 4.44075C8.73594 4.03855 8.73601 4.0385 8.73608 4.03845C8.7361 4.03843 8.73617 4.03838 8.73621 4.03835C8.73629 4.03829 8.73637 4.03823 8.73645 4.03817C8.7366 4.03806 8.73674 4.03796 8.73687 4.03787C8.73711 4.03769 8.7373 4.03755 8.73743 4.03746C8.73768 4.03727 8.7377 4.03726 8.7375 4.0374C8.73709 4.0377 8.7358 4.03863 8.73371 4.04009C8.72949 4.04305 8.72222 4.04807 8.71251 4.05446C8.69261 4.06755 8.66498 4.08474 8.63424 4.10134C8.6025 4.11847 8.57448 4.13115 8.55307 4.13867C8.52805 4.14745 8.53282 4.14186 8.56033 4.14186V5.14186ZM8.62495 4.72973L9.08059 5.3731L9.89666 4.79514L9.44102 4.15177L8.62495 4.72973ZM9.48863 5.08412C9.03736 4.86881 9.03728 4.86898 9.03719 4.86916C9.03717 4.86922 9.03708 4.8694 9.03702 4.86952C9.0369 4.86977 9.03678 4.87003 9.03665 4.87029C9.0364 4.87083 9.03613 4.87141 9.03584 4.87203C9.03526 4.87327 9.0346 4.87467 9.03388 4.87624C9.03243 4.87937 9.0307 4.88316 9.02873 4.88758C9.02477 4.89643 9.01981 4.90784 9.01406 4.9217C9.00258 4.94939 8.98789 4.98698 8.97181 5.03347C8.93975 5.12617 8.90162 5.25583 8.8727 5.41399C8.81506 5.72925 8.79201 6.16937 8.93749 6.6563L9.89564 6.37004C9.80632 6.07107 9.81931 5.79666 9.85639 5.59387C9.87484 5.49301 9.89875 5.41276 9.91689 5.36031C9.92591 5.33422 9.93336 5.31543 9.93774 5.30488C9.93992 5.29961 9.94132 5.29644 9.94175 5.29548C9.94197 5.29501 9.94193 5.29508 9.94163 5.29574C9.94148 5.29606 9.94126 5.29653 9.94098 5.29715C9.94083 5.29745 9.94067 5.2978 9.94049 5.29818C9.9404 5.29837 9.9403 5.29857 9.94021 5.29877C9.94016 5.29888 9.94008 5.29904 9.94005 5.29909C9.93997 5.29926 9.93989 5.29943 9.48863 5.08412ZM8.93749 6.6563C9.03626 6.9869 8.99684 7.16336 8.94509 7.24532C8.90194 7.31367 8.76732 7.44506 8.32783 7.47339L8.39214 8.47132C8.9968 8.43235 9.50787 8.22711 9.79067 7.77917C10.0649 7.34484 10.0317 6.82535 9.89564 6.37004L8.93749 6.6563ZM8.35998 7.97235C8.26664 7.48114 8.26659 7.48115 8.26654 7.48116C8.26652 7.48116 8.26647 7.48117 8.26643 7.48118C8.26636 7.48119 8.26628 7.48121 8.2662 7.48123C8.26604 7.48126 8.26586 7.48129 8.26567 7.48133C8.2653 7.4814 8.26487 7.48148 8.26439 7.48157C8.26343 7.48176 8.26226 7.48199 8.2609 7.48226C8.25818 7.48279 8.25467 7.48349 8.25045 7.48436C8.24203 7.48609 8.23068 7.48849 8.21708 7.49154C8.19023 7.49755 8.15287 7.50649 8.111 7.51821C8.04829 7.53578 7.90062 7.57893 7.77982 7.66243L8.3484 8.48506C8.32459 8.50152 8.31322 8.50398 8.32953 8.49764C8.34146 8.49301 8.35905 8.48722 8.38069 8.48116C8.40153 8.47532 8.42123 8.47059 8.43578 8.46733C8.44287 8.46574 8.4483 8.4646 8.45148 8.46394C8.45307 8.46362 8.45406 8.46342 8.4544 8.46336C8.45457 8.46332 8.45457 8.46332 8.45439 8.46336C8.45431 8.46337 8.45417 8.4634 8.454 8.46343C8.45391 8.46345 8.45381 8.46347 8.45369 8.46349C8.45364 8.4635 8.45358 8.46351 8.45352 8.46352C8.45349 8.46353 8.45344 8.46354 8.45342 8.46354C8.45337 8.46355 8.45332 8.46356 8.35998 7.97235ZM8.56411 8.1313V8.07375H7.56411V8.1313H8.56411ZM7.69326 8.44753C7.65827 8.41322 7.56411 8.30604 7.56411 8.1313H8.56411C8.56411 7.92793 8.45457 7.79352 8.39348 7.73361L7.69326 8.44753ZM7.69326 7.73361C7.63217 7.79352 7.52263 7.92793 7.52263 8.1313H8.52263C8.52263 8.30604 8.42847 8.41322 8.39348 8.44753L7.69326 7.73361ZM8.52263 8.1313V8.07375H7.52263V8.1313H8.52263ZM7.72676 7.97235C7.63342 8.46356 7.63337 8.46355 7.63332 8.46354C7.6333 8.46354 7.63325 8.46353 7.63322 8.46352C7.63316 8.46351 7.6331 8.4635 7.63305 8.46349C7.63293 8.46347 7.63283 8.46345 7.63274 8.46343C7.63257 8.4634 7.63243 8.46337 7.63235 8.46336C7.63217 8.46332 7.63217 8.46332 7.63234 8.46336C7.63267 8.46342 7.63367 8.46362 7.63526 8.46394C7.63844 8.4646 7.64387 8.46574 7.65096 8.46733C7.6655 8.47059 7.68521 8.47532 7.70605 8.48116C7.72769 8.48722 7.74528 8.49301 7.7572 8.49764C7.77352 8.50398 7.76215 8.50152 7.73834 8.48506L8.30692 7.66243C8.18612 7.57893 8.03845 7.53578 7.97574 7.51821C7.93387 7.50649 7.89651 7.49755 7.86966 7.49154C7.85606 7.48849 7.84471 7.48609 7.83629 7.48436C7.83207 7.48349 7.82856 7.48279 7.82584 7.48226C7.82448 7.48199 7.82331 7.48176 7.82235 7.48157C7.82187 7.48148 7.82144 7.4814 7.82107 7.48133C7.82088 7.48129 7.8207 7.48126 7.82054 7.48123C7.82046 7.48121 7.82038 7.48119 7.82031 7.48118C7.82027 7.48117 7.82022 7.48116 7.8202 7.48116C7.82015 7.48115 7.82009 7.48114 7.72676 7.97235ZM6.1911 6.37004C6.05507 6.82535 6.02186 7.34484 6.29606 7.77917C6.57887 8.22711 7.08994 8.43235 7.6946 8.47132L7.75891 7.47339C7.31942 7.44506 7.1848 7.31367 7.14165 7.24532C7.0899 7.16336 7.05048 6.9869 7.14925 6.6563L6.1911 6.37004ZM6.59811 5.08412C6.14685 5.29943 6.14677 5.29926 6.14669 5.29909C6.14666 5.29904 6.14658 5.29888 6.14653 5.29877C6.14644 5.29857 6.14634 5.29837 6.14625 5.29818C6.14607 5.2978 6.14591 5.29745 6.14576 5.29715C6.14548 5.29653 6.14526 5.29606 6.14511 5.29574C6.14481 5.29508 6.14477 5.29501 6.14499 5.29548C6.14542 5.29644 6.14682 5.29961 6.149 5.30488C6.15338 5.31543 6.16083 5.33422 6.16985 5.36031C6.18799 5.41276 6.2119 5.49301 6.23035 5.59387C6.26743 5.79666 6.28042 6.07107 6.1911 6.37004L7.14925 6.6563C7.29473 6.16937 7.27168 5.72925 7.21404 5.41399C7.18511 5.25583 7.14699 5.12617 7.11493 5.03347C7.09885 4.98698 7.08416 4.94939 7.07268 4.9217C7.06693 4.90784 7.06197 4.89643 7.05801 4.88758C7.05604 4.88316 7.05431 4.87937 7.05286 4.87624C7.05214 4.87467 7.05148 4.87327 7.0509 4.87203C7.05061 4.87141 7.05034 4.87083 7.05009 4.87029C7.04996 4.87003 7.04984 4.86977 7.04972 4.86952C7.04966 4.8694 7.04957 4.86922 7.04954 4.86916C7.04946 4.86898 7.04938 4.86881 6.59811 5.08412ZM6.64572 4.15177L6.19008 4.79514L7.00615 5.3731L7.46179 4.72973L6.64572 4.15177ZM7.52641 4.14186C7.55391 4.14186 7.55869 4.14745 7.53367 4.13867C7.51226 4.13115 7.48424 4.11847 7.4525 4.10134C7.42176 4.08474 7.39413 4.06755 7.37423 4.05446C7.36452 4.04807 7.35725 4.04305 7.35303 4.04009C7.35094 4.03863 7.34965 4.0377 7.34924 4.0374C7.34904 4.03726 7.34906 4.03727 7.34931 4.03746C7.34944 4.03755 7.34963 4.03769 7.34987 4.03787C7.35 4.03796 7.35014 4.03806 7.35029 4.03817C7.35037 4.03823 7.35045 4.03829 7.35053 4.03835C7.35057 4.03838 7.35064 4.03843 7.35066 4.03845C7.35073 4.0385 7.3508 4.03855 7.05376 4.44075C6.75672 4.84295 6.75679 4.84301 6.75686 4.84306C6.75689 4.84308 6.75696 4.84313 6.75701 4.84317C6.75711 4.84324 6.75722 4.84332 6.75732 4.8434C6.75754 4.84356 6.75778 4.84374 6.75804 4.84392C6.75855 4.8443 6.75913 4.84472 6.75977 4.8452C6.76107 4.84614 6.76265 4.84729 6.76449 4.84861C6.76816 4.85126 6.77292 4.85466 6.77866 4.85869C6.79013 4.86673 6.80569 4.87742 6.82464 4.88989C6.86206 4.91451 6.91504 4.9476 6.97741 4.98127C7.07935 5.03631 7.29247 5.14186 7.52641 5.14186V4.14186ZM7.7811 4.02652C7.74158 4.04833 7.67566 4.08265 7.60829 4.11019C7.57484 4.12387 7.54724 4.1333 7.52684 4.1388C7.50338 4.14512 7.50548 4.14186 7.52641 4.14186V5.14186C7.70875 5.14186 7.8854 5.07725 7.98675 5.03581C8.10403 4.98786 8.20743 4.93341 8.26417 4.90211L7.7811 4.02652ZM8.52263 4.46431V4.44075H7.52263V4.46431H8.52263ZM8.02263 4.44075C7.7666 4.87023 7.76661 4.87023 7.76662 4.87023C7.76662 4.87024 7.76663 4.87024 7.76664 4.87024C7.76665 4.87025 7.76666 4.87026 7.76667 4.87026C7.76669 4.87028 7.76672 4.87029 7.76674 4.87031C7.76679 4.87033 7.76684 4.87036 7.76689 4.87039C7.76699 4.87045 7.7671 4.87052 7.76721 4.87059C7.76745 4.87073 7.76771 4.87088 7.76801 4.87106C7.76859 4.87141 7.7693 4.87182 7.77012 4.87231C7.77176 4.87327 7.77387 4.87451 7.77641 4.87599C7.7815 4.87896 7.78837 4.88292 7.79681 4.8877L8.28993 4.01774C8.28506 4.01498 8.28156 4.01296 8.27961 4.01182C8.27864 4.01125 8.27805 4.01091 8.27789 4.01081C8.2778 4.01076 8.27782 4.01078 8.27795 4.01085C8.27802 4.01089 8.27811 4.01094 8.27823 4.01101C8.27829 4.01105 8.27835 4.01109 8.27842 4.01113C8.27846 4.01115 8.2785 4.01118 8.27854 4.0112C8.27856 4.01121 8.27858 4.01122 8.2786 4.01124C8.27861 4.01124 8.27862 4.01125 8.27863 4.01126C8.27864 4.01126 8.27864 4.01126 8.27865 4.01127C8.27866 4.01127 8.27866 4.01128 8.02263 4.44075Z" fill="#E8AA00" mask="url(#path-8-outside-1_14655_23417)"/>
<mask id="mask1_14655_23417" style="mask-type:alpha" maskUnits="userSpaceOnUse" x="6" y="3" width="5" height="6">
<mask id="path-10-outside-2_14655_23417" maskUnits="userSpaceOnUse" x="5.58847" y="3.44075" width="5" height="6" fill="black">
<rect fill="white" x="5.58847" y="3.44075" width="5" height="6"/>
<path fill-rule="evenodd" clip-rule="evenodd" d="M8.04337 4.45272C8.05668 4.44518 8.06411 4.44075 8.06411 4.44075V4.46431C8.16037 4.51742 8.40273 4.64186 8.56033 4.64186C8.76067 4.64186 9.03298 4.44075 9.03298 4.44075L9.48863 5.08412C9.48863 5.08412 9.18177 5.72727 9.41657 6.51317C9.65137 7.29908 9.40414 7.90506 8.35998 7.97235C8.35998 7.97235 8.15424 8.01144 8.06411 8.07375V8.1313C8.06411 8.11699 8.05642 8.10337 8.04337 8.09057C8.03032 8.10337 8.02263 8.11699 8.02263 8.1313V8.07375C7.9325 8.01144 7.72676 7.97235 7.72676 7.97235C6.6826 7.90506 6.43537 7.29908 6.67017 6.51317C6.90497 5.72727 6.59811 5.08412 6.59811 5.08412L7.05376 4.44075C7.05376 4.44075 7.32607 4.64186 7.52641 4.64186C7.68401 4.64186 7.92637 4.51742 8.02263 4.46431V4.44075C8.02263 4.44075 8.03006 4.44518 8.04337 4.45272Z"/>
</mask>
<path fill-rule="evenodd" clip-rule="evenodd" d="M8.04337 4.45272C8.05668 4.44518 8.06411 4.44075 8.06411 4.44075V4.46431C8.16037 4.51742 8.40273 4.64186 8.56033 4.64186C8.76067 4.64186 9.03298 4.44075 9.03298 4.44075L9.48863 5.08412C9.48863 5.08412 9.18177 5.72727 9.41657 6.51317C9.65137 7.29908 9.40414 7.90506 8.35998 7.97235C8.35998 7.97235 8.15424 8.01144 8.06411 8.07375V8.1313C8.06411 8.11699 8.05642 8.10337 8.04337 8.09057C8.03032 8.10337 8.02263 8.11699 8.02263 8.1313V8.07375C7.9325 8.01144 7.72676 7.97235 7.72676 7.97235C6.6826 7.90506 6.43537 7.29908 6.67017 6.51317C6.90497 5.72727 6.59811 5.08412 6.59811 5.08412L7.05376 4.44075C7.05376 4.44075 7.32607 4.64186 7.52641 4.64186C7.68401 4.64186 7.92637 4.51742 8.02263 4.46431V4.44075C8.02263 4.44075 8.03006 4.44518 8.04337 4.45272Z" fill="white"/>
<path d="M8.06411 4.44075H8.56411V3.56057L7.80808 4.01128L8.06411 4.44075ZM8.04337 4.45272L7.79681 4.8877L8.04337 5.02746L8.28993 4.8877L8.04337 4.45272ZM8.06411 4.46431H7.56411V4.75951L7.82257 4.90211L8.06411 4.46431ZM9.03298 4.44075L9.44102 4.15177L9.14623 3.73554L8.73594 4.03855L9.03298 4.44075ZM9.48863 5.08412L9.93989 5.29943L10.0663 5.0346L9.89666 4.79514L9.48863 5.08412ZM9.41657 6.51317L8.93749 6.6563L9.41657 6.51317ZM8.35998 7.97235L8.32783 7.47339L8.297 7.47537L8.26664 7.48114L8.35998 7.97235ZM8.06411 8.07375L7.77982 7.66243L7.56411 7.81153V8.07375H8.06411ZM8.04337 8.09057L8.39348 7.73361L8.04337 7.39021L7.69326 7.73361L8.04337 8.09057ZM8.02263 8.07375H8.52263V7.81153L8.30692 7.66243L8.02263 8.07375ZM7.72676 7.97235L7.82009 7.48114L7.78974 7.47537L7.75891 7.47339L7.72676 7.97235ZM6.59811 5.08412L6.19008 4.79514L6.02049 5.0346L6.14685 5.29943L6.59811 5.08412ZM7.05376 4.44075L7.3508 4.03855L6.94051 3.73554L6.64572 4.15177L7.05376 4.44075ZM8.02263 4.46431L8.26417 4.90211L8.52263 4.75951V4.46431H8.02263ZM8.02263 4.44075L8.27866 4.01128L7.52263 3.56057V4.44075H8.02263ZM8.06411 4.44075C7.80808 4.01128 7.80808 4.01127 7.80809 4.01127C7.8081 4.01126 7.8081 4.01126 7.80811 4.01126C7.80812 4.01125 7.80813 4.01124 7.80814 4.01124C7.80816 4.01122 7.80818 4.01121 7.8082 4.0112C7.80824 4.01118 7.80828 4.01115 7.80832 4.01113C7.80839 4.01109 7.80845 4.01105 7.80851 4.01101C7.80863 4.01094 7.80872 4.01089 7.80879 4.01085C7.80892 4.01078 7.80894 4.01076 7.80885 4.01081C7.80869 4.01091 7.8081 4.01125 7.80713 4.01182C7.80518 4.01296 7.80168 4.01498 7.79681 4.01774L8.28993 4.8877C8.29837 4.88292 8.30524 4.87896 8.31033 4.87599C8.31287 4.87451 8.31498 4.87327 8.31662 4.87231C8.31744 4.87182 8.31815 4.87141 8.31873 4.87106C8.31903 4.87088 8.31929 4.87073 8.31953 4.87059C8.31964 4.87052 8.31975 4.87045 8.31985 4.87039C8.3199 4.87036 8.31995 4.87033 8.32 4.87031C8.32002 4.87029 8.32005 4.87028 8.32007 4.87026C8.32008 4.87026 8.32009 4.87025 8.3201 4.87024C8.32011 4.87024 8.32012 4.87024 8.32012 4.87023C8.32013 4.87023 8.32014 4.87023 8.06411 4.44075ZM8.56411 4.46431V4.44075H7.56411V4.46431H8.56411ZM7.82257 4.90211C7.87931 4.93341 7.98271 4.98786 8.09999 5.03581C8.20134 5.07725 8.37799 5.14186 8.56033 5.14186V4.14186C8.58126 4.14186 8.58336 4.14512 8.5599 4.1388C8.5395 4.1333 8.5119 4.12387 8.47845 4.11019C8.41108 4.08265 8.34516 4.04833 8.30564 4.02652L7.82257 4.90211ZM8.56033 5.14186C8.79427 5.14186 9.00739 5.03631 9.10933 4.98127C9.1717 4.9476 9.22468 4.91451 9.2621 4.88989C9.28105 4.87742 9.29661 4.86673 9.30808 4.85869C9.31382 4.85466 9.31858 4.85126 9.32225 4.84861C9.32409 4.84729 9.32567 4.84614 9.32697 4.8452C9.32761 4.84472 9.32819 4.8443 9.3287 4.84392C9.32896 4.84374 9.3292 4.84356 9.32941 4.8434C9.32952 4.84332 9.32963 4.84324 9.32973 4.84317C9.32978 4.84313 9.32985 4.84308 9.32988 4.84306C9.32995 4.84301 9.33002 4.84295 9.03298 4.44075C8.73594 4.03855 8.73601 4.0385 8.73608 4.03845C8.7361 4.03843 8.73617 4.03838 8.73621 4.03835C8.73629 4.03829 8.73637 4.03823 8.73645 4.03817C8.7366 4.03806 8.73674 4.03796 8.73687 4.03787C8.73711 4.03769 8.7373 4.03755 8.73743 4.03746C8.73768 4.03727 8.7377 4.03726 8.7375 4.0374C8.73709 4.0377 8.7358 4.03863 8.73371 4.04009C8.72949 4.04305 8.72222 4.04807 8.71251 4.05446C8.69261 4.06755 8.66498 4.08474 8.63424 4.10134C8.6025 4.11847 8.57448 4.13115 8.55307 4.13867C8.52805 4.14745 8.53282 4.14186 8.56033 4.14186V5.14186ZM8.62495 4.72973L9.08059 5.3731L9.89666 4.79514L9.44102 4.15177L8.62495 4.72973ZM9.48863 5.08412C9.03736 4.86881 9.03728 4.86898 9.03719 4.86916C9.03717 4.86922 9.03708 4.8694 9.03702 4.86952C9.0369 4.86977 9.03678 4.87003 9.03665 4.87029C9.0364 4.87083 9.03613 4.87141 9.03584 4.87203C9.03526 4.87327 9.0346 4.87467 9.03388 4.87624C9.03243 4.87937 9.0307 4.88316 9.02873 4.88758C9.02477 4.89643 9.01981 4.90784 9.01406 4.9217C9.00258 4.94939 8.98789 4.98698 8.97181 5.03347C8.93975 5.12617 8.90162 5.25583 8.8727 5.41399C8.81506 5.72925 8.79201 6.16937 8.93749 6.6563L9.89564 6.37004C9.80632 6.07107 9.81931 5.79666 9.85639 5.59387C9.87484 5.49301 9.89875 5.41276 9.91689 5.36031C9.92591 5.33422 9.93336 5.31543 9.93774 5.30488C9.93992 5.29961 9.94132 5.29644 9.94175 5.29548C9.94197 5.29501 9.94193 5.29508 9.94163 5.29574C9.94148 5.29606 9.94126 5.29653 9.94098 5.29715C9.94083 5.29745 9.94067 5.2978 9.94049 5.29818C9.9404 5.29837 9.9403 5.29857 9.94021 5.29877C9.94016 5.29888 9.94008 5.29904 9.94005 5.29909C9.93997 5.29926 9.93989 5.29943 9.48863 5.08412ZM8.93749 6.6563C9.03626 6.9869 8.99684 7.16336 8.94509 7.24532C8.90194 7.31367 8.76732 7.44506 8.32783 7.47339L8.39214 8.47132C8.9968 8.43235 9.50787 8.22711 9.79067 7.77917C10.0649 7.34484 10.0317 6.82535 9.89564 6.37004L8.93749 6.6563ZM8.35998 7.97235C8.26664 7.48114 8.26659 7.48115 8.26654 7.48116C8.26652 7.48116 8.26647 7.48117 8.26643 7.48118C8.26636 7.48119 8.26628 7.48121 8.2662 7.48123C8.26604 7.48126 8.26586 7.48129 8.26567 7.48133C8.2653 7.4814 8.26487 7.48148 8.26439 7.48157C8.26343 7.48176 8.26226 7.48199 8.2609 7.48226C8.25818 7.48279 8.25467 7.48349 8.25045 7.48436C8.24203 7.48609 8.23068 7.48849 8.21708 7.49154C8.19023 7.49755 8.15287 7.50649 8.111 7.51821C8.04829 7.53578 7.90062 7.57893 7.77982 7.66243L8.3484 8.48506C8.32459 8.50152 8.31322 8.50398 8.32953 8.49764C8.34146 8.49301 8.35905 8.48722 8.38069 8.48116C8.40153 8.47532 8.42123 8.47059 8.43578 8.46733C8.44287 8.46574 8.4483 8.4646 8.45148 8.46394C8.45307 8.46362 8.45406 8.46342 8.4544 8.46336C8.45457 8.46332 8.45457 8.46332 8.45439 8.46336C8.45431 8.46337 8.45417 8.4634 8.454 8.46343C8.45391 8.46345 8.45381 8.46347 8.45369 8.46349C8.45364 8.4635 8.45358 8.46351 8.45352 8.46352C8.45349 8.46353 8.45344 8.46354 8.45342 8.46354C8.45337 8.46355 8.45332 8.46356 8.35998 7.97235ZM8.56411 8.1313V8.07375H7.56411V8.1313H8.56411ZM7.69326 8.44753C7.65827 8.41322 7.56411 8.30604 7.56411 8.1313H8.56411C8.56411 7.92793 8.45457 7.79352 8.39348 7.73361L7.69326 8.44753ZM7.69326 7.73361C7.63217 7.79352 7.52263 7.92793 7.52263 8.1313H8.52263C8.52263 8.30604 8.42847 8.41322 8.39348 8.44753L7.69326 7.73361ZM8.52263 8.1313V8.07375H7.52263V8.1313H8.52263ZM7.72676 7.97235C7.63342 8.46356 7.63337 8.46355 7.63332 8.46354C7.6333 8.46354 7.63325 8.46353 7.63322 8.46352C7.63316 8.46351 7.6331 8.4635 7.63305 8.46349C7.63293 8.46347 7.63283 8.46345 7.63274 8.46343C7.63257 8.4634 7.63243 8.46337 7.63235 8.46336C7.63217 8.46332 7.63217 8.46332 7.63234 8.46336C7.63267 8.46342 7.63367 8.46362 7.63526 8.46394C7.63844 8.4646 7.64387 8.46574 7.65096 8.46733C7.6655 8.47059 7.68521 8.47532 7.70605 8.48116C7.72769 8.48722 7.74528 8.49301 7.7572 8.49764C7.77352 8.50398 7.76215 8.50152 7.73834 8.48506L8.30692 7.66243C8.18612 7.57893 8.03845 7.53578 7.97574 7.51821C7.93387 7.50649 7.89651 7.49755 7.86966 7.49154C7.85606 7.48849 7.84471 7.48609 7.83629 7.48436C7.83207 7.48349 7.82856 7.48279 7.82584 7.48226C7.82448 7.48199 7.82331 7.48176 7.82235 7.48157C7.82187 7.48148 7.82144 7.4814 7.82107 7.48133C7.82088 7.48129 7.8207 7.48126 7.82054 7.48123C7.82046 7.48121 7.82038 7.48119 7.82031 7.48118C7.82027 7.48117 7.82022 7.48116 7.8202 7.48116C7.82015 7.48115 7.82009 7.48114 7.72676 7.97235ZM6.1911 6.37004C6.05507 6.82535 6.02186 7.34484 6.29606 7.77917C6.57887 8.22711 7.08994 8.43235 7.6946 8.47132L7.75891 7.47339C7.31942 7.44506 7.1848 7.31367 7.14165 7.24532C7.0899 7.16336 7.05048 6.9869 7.14925 6.6563L6.1911 6.37004ZM6.59811 5.08412C6.14685 5.29943 6.14677 5.29926 6.14669 5.29909C6.14666 5.29904 6.14658 5.29888 6.14653 5.29877C6.14644 5.29857 6.14634 5.29837 6.14625 5.29818C6.14607 5.2978 6.14591 5.29745 6.14576 5.29715C6.14548 5.29653 6.14526 5.29606 6.14511 5.29574C6.14481 5.29508 6.14477 5.29501 6.14499 5.29548C6.14542 5.29644 6.14682 5.29961 6.149 5.30488C6.15338 5.31543 6.16083 5.33422 6.16985 5.36031C6.18799 5.41276 6.2119 5.49301 6.23035 5.59387C6.26743 5.79666 6.28042 6.07107 6.1911 6.37004L7.14925 6.6563C7.29473 6.16937 7.27168 5.72925 7.21404 5.41399C7.18511 5.25583 7.14699 5.12617 7.11493 5.03347C7.09885 4.98698 7.08416 4.94939 7.07268 4.9217C7.06693 4.90784 7.06197 4.89643 7.05801 4.88758C7.05604 4.88316 7.05431 4.87937 7.05286 4.87624C7.05214 4.87467 7.05148 4.87327 7.0509 4.87203C7.05061 4.87141 7.05034 4.87083 7.05009 4.87029C7.04996 4.87003 7.04984 4.86977 7.04972 4.86952C7.04966 4.8694 7.04957 4.86922 7.04954 4.86916C7.04946 4.86898 7.04938 4.86881 6.59811 5.08412ZM6.64572 4.15177L6.19008 4.79514L7.00615 5.3731L7.46179 4.72973L6.64572 4.15177ZM7.52641 4.14186C7.55391 4.14186 7.55869 4.14745 7.53367 4.13867C7.51226 4.13115 7.48424 4.11847 7.4525 4.10134C7.42176 4.08474 7.39413 4.06755 7.37423 4.05446C7.36452 4.04807 7.35725 4.04305 7.35303 4.04009C7.35094 4.03863 7.34965 4.0377 7.34924 4.0374C7.34904 4.03726 7.34906 4.03727 7.34931 4.03746C7.34944 4.03755 7.34963 4.03769 7.34987 4.03787C7.35 4.03796 7.35014 4.03806 7.35029 4.03817C7.35037 4.03823 7.35045 4.03829 7.35053 4.03835C7.35057 4.03838 7.35064 4.03843 7.35066 4.03845C7.35073 4.0385 7.3508 4.03855 7.05376 4.44075C6.75672 4.84295 6.75679 4.84301 6.75686 4.84306C6.75689 4.84308 6.75696 4.84313 6.75701 4.84317C6.75711 4.84324 6.75722 4.84332 6.75732 4.8434C6.75754 4.84356 6.75778 4.84374 6.75804 4.84392C6.75855 4.8443 6.75913 4.84472 6.75977 4.8452C6.76107 4.84614 6.76265 4.84729 6.76449 4.84861C6.76816 4.85126 6.77292 4.85466 6.77866 4.85869C6.79013 4.86673 6.80569 4.87742 6.82464 4.88989C6.86206 4.91451 6.91504 4.9476 6.97741 4.98127C7.07935 5.03631 7.29247 5.14186 7.52641 5.14186V4.14186ZM7.7811 4.02652C7.74158 4.04833 7.67566 4.08265 7.60829 4.11019C7.57484 4.12387 7.54724 4.1333 7.52684 4.1388C7.50338 4.14512 7.50548 4.14186 7.52641 4.14186V5.14186C7.70875 5.14186 7.8854 5.07725 7.98675 5.03581C8.10403 4.98786 8.20743 4.93341 8.26417 4.90211L7.7811 4.02652ZM8.52263 4.46431V4.44075H7.52263V4.46431H8.52263ZM8.02263 4.44075C7.7666 4.87023 7.76661 4.87023 7.76662 4.87023C7.76662 4.87024 7.76663 4.87024 7.76664 4.87024C7.76665 4.87025 7.76666 4.87026 7.76667 4.87026C7.76669 4.87028 7.76672 4.87029 7.76674 4.87031C7.76679 4.87033 7.76684 4.87036 7.76689 4.87039C7.76699 4.87045 7.7671 4.87052 7.76721 4.87059C7.76745 4.87073 7.76771 4.87088 7.76801 4.87106C7.76859 4.87141 7.7693 4.87182 7.77012 4.87231C7.77176 4.87327 7.77387 4.87451 7.77641 4.87599C7.7815 4.87896 7.78837 4.88292 7.79681 4.8877L8.28993 4.01774C8.28506 4.01498 8.28156 4.01296 8.27961 4.01182C8.27864 4.01125 8.27805 4.01091 8.27789 4.01081C8.2778 4.01076 8.27782 4.01078 8.27795 4.01085C8.27802 4.01089 8.27811 4.01094 8.27823 4.01101C8.27829 4.01105 8.27835 4.01109 8.27842 4.01113C8.27846 4.01115 8.2785 4.01118 8.27854 4.0112C8.27856 4.01121 8.27858 4.01122 8.2786 4.01124C8.27861 4.01124 8.27862 4.01125 8.27863 4.01126C8.27864 4.01126 8.27864 4.01126 8.27865 4.01127C8.27866 4.01127 8.27866 4.01128 8.02263 4.44075Z" fill="white" mask="url(#path-10-outside-2_14655_23417)"/>
</mask>
<g mask="url(#mask1_14655_23417)">
<rect x="6.65216" y="4.36365" width="1.3913" height="1.90909" fill="#67BAFF"/>
<rect x="8.04346" y="4.36365" width="1.3913" height="1.90909" fill="white"/>
<rect x="6.47824" y="6.45456" width="3.47826" height="2.18182" fill="#C51918"/>
<path d="M8.71737 6.13749H8.54346V4.83014H8.71737V6.13749Z" fill="#C9A951"/>
<path d="M8.6469 5.5428L8.56212 5.69464L8.26193 5.52703L8.34672 5.37518L8.6469 5.5428Z" fill="#C9A951"/>
<path d="M8.6469 5.17916L8.56212 5.33101L8.26193 5.1634L8.34672 5.01155L8.6469 5.17916Z" fill="#C9A951"/>
<path d="M8.60975 5.5428L8.69453 5.69464L8.99472 5.52703L8.90994 5.37518L8.60975 5.5428Z" fill="#C9A951"/>
<path d="M8.60975 5.17916L8.69453 5.33101L8.99472 5.1634L8.90994 5.01155L8.60975 5.17916Z" fill="#C9A951"/>
<path fill-rule="evenodd" clip-rule="evenodd" d="M7.68805 4.78496C7.58322 4.87665 7.65085 5.21173 7.47907 5.21173C7.3073 5.21173 7.06556 4.96082 7.00469 5.12639C6.94382 5.29195 7.00469 5.23632 7.00469 5.37734C7.00469 5.51836 6.85889 5.91021 6.93179 5.97645C7.00469 6.0427 7.07939 6.21724 7.06645 6.13553C7.0535 6.05383 6.99839 5.93384 7.02135 5.80349C6.99915 5.66883 7.14421 5.53931 7.14421 5.53931C7.14421 5.53931 7.12847 5.67911 7.11705 5.73124C7.11705 5.73124 7.06922 5.83645 7.08864 5.90633C7.08864 5.90633 7.13775 6.10329 7.158 6.1169C7.158 6.1169 7.17115 5.65055 7.18611 5.57369C7.20106 5.49683 7.30767 5.66038 7.34314 5.64185C7.34314 5.64185 7.35531 5.96073 7.33687 5.99873C7.33687 5.99873 7.29948 6.07416 7.31339 6.09826C7.31339 6.09826 7.34807 6.18556 7.37766 6.16013C7.37766 6.16013 7.3787 6.15832 7.3937 6.07335C7.3937 6.07335 7.37627 6.02203 7.40355 5.9052C7.40355 5.9052 7.43227 5.64794 7.44416 5.70375C7.44416 5.70375 7.43882 5.82521 7.45252 5.88782C7.45252 5.88782 7.4744 6.04325 7.47879 6.06031C7.47879 6.06031 7.58374 6.2098 7.58653 6.14667C7.58653 6.14667 7.48593 6.0267 7.50748 5.93541C7.50748 5.93541 7.44988 5.67679 7.53028 5.61913C7.53028 5.61913 7.74359 5.52046 7.75642 5.35157C7.75642 5.35157 7.78732 5.1591 7.79287 5.07086C7.79287 5.07086 7.74608 5.04492 7.8428 4.99937C7.8428 4.99937 7.9985 4.9396 7.90148 4.8565" fill="#D18219"/>
</g>
<path d="M6.10001 3.8432L6.48667 4.15304C5.98302 4.9818 6.10001 5.76161 6.10001 6.26306C6.10001 7.18775 6.79485 8.25497 8.0053 8.25497C8.90497 8.25497 9.88283 7.55462 10.1136 6.6989C10.2954 6.02511 9.87837 4.44181 9.56371 4.02859L9.93588 3.8432C10.4242 4.48454 11.3503 5.95418 11.0791 6.95932C10.727 8.2647 9.34439 9.25497 8.0053 9.25497C6.13008 9.25497 5.10001 7.67288 5.10001 6.26306C5.10001 5.54708 5.50978 4.81442 6.10001 3.8432Z" fill="#00A854"/>
<path fill-rule="evenodd" clip-rule="evenodd" d="M8 7.60001C8.55228 7.60001 9 7.37615 9 7.10001C9 6.82386 8.55228 6.60001 8 6.60001C7.44772 6.60001 7 6.82386 7 7.10001C7 7.37615 7.44772 7.60001 8 7.60001Z" fill="#FDD200"/>
<rect x="6.5" y="8" width="3" height="1" fill="#CA0000"/>
</g>
<rect width="16" height="12" fill="url(#paint0_linear_14655_23417)" style="mix-blend-mode:overlay"/>
</g>
<defs>
<linearGradient id="paint0_linear_14655_23417" x1="8" y1="0" x2="8" y2="12" gradientUnits="userSpaceOnUse">
<stop stop-color="white" stop-opacity="0.7"/>
<stop offset="1" stop-opacity="0.3"/>
</linearGradient>
<clipPath id="clip0_14655_23417">
<rect width="16" height="12" rx="1" fill="white"/>
</clipPath>
</defs>
</svg>
