<svg width="16" height="12" viewBox="0 0 16 12" fill="none" xmlns="http://www.w3.org/2000/svg">
<g clip-path="url(#clip0_14655_23459)">
<mask id="mask0_14655_23459" style="mask-type:alpha" maskUnits="userSpaceOnUse" x="0" y="0" width="16" height="12">
<rect width="16" height="12" fill="white"/>
</mask>
<g mask="url(#mask0_14655_23459)">
<path fill-rule="evenodd" clip-rule="evenodd" d="M0 0V12H16V0H0Z" fill="#F7FCFF"/>
<mask id="mask1_14655_23459" style="mask-type:alpha" maskUnits="userSpaceOnUse" x="0" y="0" width="16" height="12">
<path fill-rule="evenodd" clip-rule="evenodd" d="M0 0V12H16V0H0Z" fill="white"/>
</mask>
<g mask="url(#mask1_14655_23459)">
<path fill-rule="evenodd" clip-rule="evenodd" d="M0 0V3H16V0H0Z" fill="#BF2714"/>
<path fill-rule="evenodd" clip-rule="evenodd" d="M0 9V12H16V9H0Z" fill="#BF2714"/>
<mask id="mask2_14655_23459" style="mask-type:alpha" maskUnits="userSpaceOnUse" x="5" y="3" width="6" height="6">
<path fill-rule="evenodd" clip-rule="evenodd" d="M8 9C9.65685 9 11 7.65685 11 6C11 4.34315 9.65685 3 8 3C6.34315 3 5 4.34315 5 6C5 7.65685 6.34315 9 8 9Z" fill="white"/>
</mask>
<g mask="url(#mask2_14655_23459)">
<path fill-rule="evenodd" clip-rule="evenodd" d="M7.019 6.68761L7.23875 3.07451C5.95054 3.33895 5 4.31377 5 6.10203C5 7.04538 5.627 6.93308 6.55266 6.76727C6.7009 6.74072 6.85679 6.71279 7.019 6.68761ZM8.44716 3.02693L8.95816 6.69934C9.14281 6.73305 9.31941 6.77148 9.48601 6.80773C10.3904 7.00452 11 7.13715 11 6.10203C11 4.25666 9.89193 3.20442 8.44716 3.02693Z" fill="#FA8F21"/>
<path fill-rule="evenodd" clip-rule="evenodd" d="M8 9C9.65685 9 11 8.10457 11 7C11 5.89543 9.65685 5 8 5C6.34315 5 5 5.89543 5 7C5 8.10457 6.34315 9 8 9Z" fill="#5277B9"/>
<path fill-rule="evenodd" clip-rule="evenodd" d="M5.27431 6.88238C5.24694 6.79665 5.33954 6.72222 5.41738 6.76739L5.60423 6.87582C5.6321 6.89199 5.66612 6.89349 5.6953 6.87983L6.15653 6.66387C6.18886 6.64873 6.22686 6.6523 6.2558 6.67319L6.75405 7.03279L7.44278 6.66197C7.46932 6.64768 7.50095 6.64635 7.5286 6.65836L8.04731 6.8837C8.07353 6.89509 8.10341 6.89451 8.12917 6.88211L8.59451 6.65811C8.61935 6.64615 8.64806 6.64516 8.67366 6.65539L9.24938 6.88536C9.27532 6.89572 9.30445 6.89456 9.32948 6.88218L9.77545 6.66155C9.80365 6.6476 9.83682 6.64798 9.86469 6.66257L10.2737 6.87678C10.3033 6.89227 10.3388 6.89169 10.3678 6.87522L10.5806 6.75472C10.6564 6.71176 10.7465 6.78134 10.7241 6.86556L10.6797 7.03279H5.32233L5.27431 6.88238Z" fill="#5277B9"/>
<path fill-rule="evenodd" clip-rule="evenodd" d="M5.27243 7.47532C5.24586 7.38907 5.33979 7.31556 5.41713 7.36208L5.58712 7.46433C5.61562 7.48147 5.65085 7.48305 5.68076 7.46853L6.11938 7.25566C6.15248 7.2396 6.19178 7.24335 6.22124 7.26539L6.69922 7.62295L7.36105 7.25362C7.38823 7.23845 7.42098 7.23704 7.44937 7.24982L7.94424 7.47265C7.97117 7.48477 8.00212 7.48415 8.02854 7.47097L8.47237 7.24952C8.49786 7.23681 8.5276 7.23576 8.55391 7.24666L9.104 7.4744C9.13066 7.48544 9.16082 7.48421 9.1865 7.47105L9.61136 7.25319C9.64026 7.23837 9.67462 7.23877 9.70316 7.25427L10.092 7.4653C10.1223 7.48175 10.159 7.48113 10.1887 7.46368L10.3837 7.34915C10.4592 7.30487 10.5505 7.37368 10.5288 7.4584L10.4866 7.62295H5.3179L5.27243 7.47532Z" fill="#5277B9"/>
<path fill-rule="evenodd" clip-rule="evenodd" d="M5.37079 7.86877C5.34422 7.78251 5.43815 7.70901 5.51549 7.75553L5.68548 7.85777C5.71398 7.87491 5.7492 7.87649 5.77912 7.86197L6.21774 7.64911C6.25084 7.63305 6.29014 7.6368 6.3196 7.65884L6.79758 8.0164L7.45941 7.64706C7.48659 7.6319 7.51934 7.63049 7.54772 7.64327L8.0426 7.86609C8.06953 7.87822 8.10047 7.8776 8.1269 7.86442L8.57073 7.64297C8.59622 7.63026 8.62596 7.62921 8.65227 7.64011L9.20235 7.86785C9.22902 7.87889 9.25918 7.87766 9.28486 7.86449L9.70972 7.64664C9.73862 7.63182 9.77297 7.63222 9.80152 7.64771L10.1903 7.85875C10.2206 7.8752 10.2573 7.87458 10.2871 7.85712L10.4821 7.7426C10.5575 7.69832 10.6489 7.76713 10.6272 7.85185L10.585 8.0164H5.41626L5.37079 7.86877Z" fill="#5277B9"/>
<path fill-rule="evenodd" clip-rule="evenodd" d="M5.96097 8.26221C5.9344 8.17595 6.02832 8.10244 6.10567 8.14896L6.27566 8.25121C6.30415 8.26835 6.33938 8.26993 6.3693 8.25541L6.80792 8.04254C6.84102 8.02648 6.88032 8.03023 6.90978 8.05227L7.38776 8.40983L8.04959 8.0405C8.07677 8.02533 8.10952 8.02392 8.1379 8.0367L8.63278 8.25953C8.6597 8.27165 8.69065 8.27104 8.71708 8.25785L9.16091 8.0364C9.18639 8.02369 9.21614 8.02264 9.24245 8.03354L9.79253 8.26128C9.8192 8.27232 9.84936 8.27109 9.87504 8.25793L10.2999 8.04007C10.3288 8.02525 10.3632 8.02565 10.3917 8.04115L10.7805 8.25218C10.8108 8.26863 10.8475 8.26801 10.8772 8.25056L11.0723 8.13603C11.1477 8.09175 11.2391 8.16056 11.2174 8.24528L11.1752 8.40983H6.00644L5.96097 8.26221Z" fill="#5277B9"/>
<path fill-rule="evenodd" clip-rule="evenodd" d="M5.17407 8.75401C5.1475 8.66775 5.24143 8.59425 5.31877 8.64077L5.48876 8.74301C5.51726 8.76015 5.55249 8.76173 5.5824 8.74721L6.02102 8.53435C6.05412 8.51829 6.09342 8.52204 6.12288 8.54408L6.60086 8.90164L7.26269 8.5323C7.28987 8.51714 7.32263 8.51573 7.35101 8.52851L7.84588 8.75133C7.87281 8.76346 7.90376 8.76284 7.93018 8.74966L8.37402 8.52821C8.3995 8.5155 8.42924 8.51445 8.45556 8.52534L9.00564 8.75309C9.0323 8.76413 9.06247 8.7629 9.08814 8.74973L9.513 8.53188C9.5419 8.51706 9.57626 8.51746 9.6048 8.53295L9.99362 8.74399C10.0239 8.76044 10.0606 8.75982 10.0903 8.74236L10.2854 8.62784C10.3608 8.58355 10.4522 8.65237 10.4305 8.73709L10.3883 8.90164H5.21954L5.17407 8.75401Z" fill="#5277B9"/>
<path d="M6.33359 4.72292H6.83359L6.822 6.69897C6.90594 6.96503 7.0257 7.06897 7.21124 7.06897V7.56897C6.78908 7.56897 6.4904 7.30973 6.33359 6.77419V4.72292Z" fill="#FF0000"/>
<path d="M9.59589 4.72292H9.09589L9.10747 6.69897C9.02353 6.96503 8.90377 7.06897 8.71823 7.06897V7.56897C9.14039 7.56897 9.43907 7.30973 9.59589 6.77419V4.72292Z" fill="#FF0000"/>
<path fill-rule="evenodd" clip-rule="evenodd" d="M8.36234 3.45432C8.36234 3.45432 7.5329 3.23743 7.5329 3.7874C7.5329 4.33737 7.5329 5.51847 7.5329 5.51847L8.49988 5.80564V4.39074C8.49988 4.39074 8.01639 4.09531 8.01639 3.86428C8.01639 3.63324 8.36234 3.45432 8.36234 3.45432Z" fill="#FF0000"/>
<path d="M6.96683 6.44533L7.28217 6.04236" stroke="black" stroke-width="0.5"/>
<path d="M7.2544 6.43204L6.95224 6.02667" stroke="black" stroke-width="0.5"/>
<path d="M7.41928 6.44533L7.73463 6.04236" stroke="black" stroke-width="0.5"/>
<path d="M7.70685 6.43204L7.40469 6.02667" stroke="black" stroke-width="0.5"/>
<path d="M7.85208 6.44533L8.16743 6.04236" stroke="black" stroke-width="0.5"/>
<path d="M8.13965 6.43204L7.83749 6.02667" stroke="black" stroke-width="0.5"/>
<path d="M8.30453 6.44533L8.61988 6.04236" stroke="black" stroke-width="0.5"/>
<path d="M8.5921 6.43204L8.28995 6.02667" stroke="black" stroke-width="0.5"/>
<path d="M8.75699 6.44533L9.07233 6.04236" stroke="black" stroke-width="0.5"/>
<path d="M9.04456 6.43204L8.7424 6.02667" stroke="black" stroke-width="0.5"/>
</g>
</g>
</g>
<rect width="16" height="12" fill="url(#paint0_linear_14655_23459)" style="mix-blend-mode:overlay"/>
</g>
<defs>
<linearGradient id="paint0_linear_14655_23459" x1="8" y1="0" x2="8" y2="12" gradientUnits="userSpaceOnUse">
<stop stop-color="white" stop-opacity="0.7"/>
<stop offset="1" stop-opacity="0.3"/>
</linearGradient>
<clipPath id="clip0_14655_23459">
<rect width="16" height="12" rx="1" fill="white"/>
</clipPath>
</defs>
</svg>
