<svg width="16" height="12" viewBox="0 0 16 12" fill="none" xmlns="http://www.w3.org/2000/svg">
<g clip-path="url(#clip0_14655_23469)">
<mask id="mask0_14655_23469" style="mask-type:alpha" maskUnits="userSpaceOnUse" x="0" y="0" width="16" height="12">
<rect width="16" height="12" fill="white"/>
</mask>
<g mask="url(#mask0_14655_23469)">
<path fill-rule="evenodd" clip-rule="evenodd" d="M4 0H16V12H4V0Z" fill="#2F8D00"/>
<path fill-rule="evenodd" clip-rule="evenodd" d="M0 0H4V12H0V0Z" fill="#F7FCFF"/>
<path fill-rule="evenodd" clip-rule="evenodd" d="M11.2147 7.65311C11.2147 7.65311 8.98182 8.23526 7.20949 7.04778C5.43716 5.86031 6.32808 3.12388 6.32808 3.12388C5.40361 3.2584 3.95178 6.63133 6.29199 8.32305C8.63219 10.0148 10.8741 8.3886 11.2147 7.65311ZM8.73689 4.43324L7.55113 5.01306L8.80204 5.23585L8.9709 6.45861L9.67944 5.41722L11.0737 5.51123L9.98164 4.69678L10.563 3.6086L9.47582 4.10652L8.66821 3.34718L8.73689 4.43324Z" fill="#F1F9FF"/>
</g>
<rect width="16" height="12" fill="url(#paint0_linear_14655_23469)" style="mix-blend-mode:overlay"/>
</g>
<defs>
<linearGradient id="paint0_linear_14655_23469" x1="8" y1="0" x2="8" y2="12" gradientUnits="userSpaceOnUse">
<stop stop-color="white" stop-opacity="0.7"/>
<stop offset="1" stop-opacity="0.3"/>
</linearGradient>
<clipPath id="clip0_14655_23469">
<rect width="16" height="12" rx="1" fill="white"/>
</clipPath>
</defs>
</svg>
