<svg width="16" height="12" viewBox="0 0 16 12" fill="none" xmlns="http://www.w3.org/2000/svg">
<g clip-path="url(#clip0_14655_23483)">
<mask id="mask0_14655_23483" style="mask-type:alpha" maskUnits="userSpaceOnUse" x="0" y="0" width="16" height="12">
<rect width="16" height="12" fill="white"/>
</mask>
<g mask="url(#mask0_14655_23483)">
<path fill-rule="evenodd" clip-rule="evenodd" d="M0 0V12H16V0H0Z" fill="#F7FCFF"/>
<mask id="mask1_14655_23483" style="mask-type:alpha" maskUnits="userSpaceOnUse" x="0" y="0" width="16" height="12">
<path fill-rule="evenodd" clip-rule="evenodd" d="M0 0V12H16V0H0Z" fill="white"/>
</mask>
<g mask="url(#mask1_14655_23483)">
<path fill-rule="evenodd" clip-rule="evenodd" d="M6 6C6 7.10457 6.89543 8 8 8C9.10457 8 10 7.10457 10 6C10 4.89543 9.10457 4 8 4C6.89543 4 6 4.89543 6 6ZM9.5 6C9.5 6.82843 8.82843 7.5 8 7.5C7.17157 7.5 6.5 6.82843 6.5 6C6.5 5.17157 7.17157 4.5 8 4.5C8.82843 4.5 9.5 5.17157 9.5 6Z" fill="#272727"/>
<path fill-rule="evenodd" clip-rule="evenodd" d="M0 0V4H16V0H0Z" fill="#F05234"/>
<path fill-rule="evenodd" clip-rule="evenodd" d="M0 8V12H16V8H0Z" fill="#3D58DB"/>
<path d="M7.28904 4.92792L7.57364 5.33902C7.28916 5.53597 7.20344 5.80836 7.31227 6.21451C7.41875 6.61192 7.65468 6.79821 8.07146 6.81269L8.0541 7.31239C7.41828 7.29031 6.99288 6.95438 6.82931 6.34392C6.66807 5.74218 6.82272 5.25075 7.28904 4.92792Z" fill="#73BE4A"/>
<path d="M8.71227 4.92792L8.42767 5.33902C8.71215 5.53597 8.79787 5.80836 8.68904 6.21451C8.58256 6.61192 8.34663 6.79821 7.92986 6.81269L7.94721 7.31239C8.58303 7.29031 9.00843 6.95438 9.17201 6.34392C9.33324 5.74218 9.17859 5.25075 8.71227 4.92792Z" fill="#73BE4A"/>
<path fill-rule="evenodd" clip-rule="evenodd" d="M8.00122 6.37362C8.27736 6.37362 8.50122 6.14976 8.50122 5.87362C8.50122 5.59748 8.27736 5.37362 8.00122 5.37362C7.72508 5.37362 7.50122 5.59748 7.50122 5.87362C7.50122 6.14976 7.72508 6.37362 8.00122 6.37362Z" fill="#FBCD17"/>
</g>
</g>
<rect width="16" height="12" fill="url(#paint0_linear_14655_23483)" style="mix-blend-mode:overlay"/>
</g>
<defs>
<linearGradient id="paint0_linear_14655_23483" x1="8" y1="0" x2="8" y2="12" gradientUnits="userSpaceOnUse">
<stop stop-color="white" stop-opacity="0.7"/>
<stop offset="1" stop-opacity="0.3"/>
</linearGradient>
<clipPath id="clip0_14655_23483">
<rect width="16" height="12" rx="1" fill="white"/>
</clipPath>
</defs>
</svg>
