<svg width="16" height="12" viewBox="0 0 16 12" fill="none" xmlns="http://www.w3.org/2000/svg">
<g clip-path="url(#clip0_14655_23484)">
<mask id="mask0_14655_23484" style="mask-type:alpha" maskUnits="userSpaceOnUse" x="0" y="0" width="16" height="12">
<rect width="16" height="12" fill="white"/>
</mask>
<g mask="url(#mask0_14655_23484)">
<path fill-rule="evenodd" clip-rule="evenodd" d="M0 0V12H16V0H0Z" fill="#F7FCFF"/>
<mask id="mask1_14655_23484" style="mask-type:alpha" maskUnits="userSpaceOnUse" x="0" y="0" width="16" height="12">
<path fill-rule="evenodd" clip-rule="evenodd" d="M0 0V12H16V0H0Z" fill="white"/>
</mask>
<g mask="url(#mask1_14655_23484)">
<path fill-rule="evenodd" clip-rule="evenodd" d="M0 0V2H16V0H0Z" fill="#FF0122"/>
<path fill-rule="evenodd" clip-rule="evenodd" d="M0 2V4H16V2H0Z" fill="#FF8C01"/>
<path fill-rule="evenodd" clip-rule="evenodd" d="M0 4V6H16V4H0Z" fill="#FECA00"/>
<path fill-rule="evenodd" clip-rule="evenodd" d="M0 6V8H16V6H0Z" fill="#73BE4A"/>
<path fill-rule="evenodd" clip-rule="evenodd" d="M0 8V10H16V8H0Z" fill="#5770ED"/>
<path fill-rule="evenodd" clip-rule="evenodd" d="M0 10V12H16V10H0Z" fill="#871FF0"/>
</g>
</g>
<rect width="16" height="12" fill="url(#paint0_linear_14655_23484)" style="mix-blend-mode:overlay"/>
</g>
<defs>
<linearGradient id="paint0_linear_14655_23484" x1="8" y1="0" x2="8" y2="12" gradientUnits="userSpaceOnUse">
<stop stop-color="white" stop-opacity="0.7"/>
<stop offset="1" stop-opacity="0.3"/>
</linearGradient>
<clipPath id="clip0_14655_23484">
<rect width="16" height="12" rx="1" fill="white"/>
</clipPath>
</defs>
</svg>
