<svg width="16" height="12" viewBox="0 0 16 12" fill="none" xmlns="http://www.w3.org/2000/svg">
<g clip-path="url(#clip0_14655_23530)">
<mask id="mask0_14655_23530" style="mask-type:alpha" maskUnits="userSpaceOnUse" x="0" y="0" width="16" height="12">
<rect width="16" height="12" fill="white"/>
</mask>
<g mask="url(#mask0_14655_23530)">
<path fill-rule="evenodd" clip-rule="evenodd" d="M0 0V12H16V0H0Z" fill="#2E42A5"/>
<mask id="mask1_14655_23530" style="mask-type:alpha" maskUnits="userSpaceOnUse" x="0" y="0" width="16" height="12">
<path fill-rule="evenodd" clip-rule="evenodd" d="M0 0V12H16V0H0Z" fill="white"/>
</mask>
<g mask="url(#mask1_14655_23530)">
<path fill-rule="evenodd" clip-rule="evenodd" d="M0 11.9983L8.07551 -1H16.151L0 11.9983Z" fill="#FFD018"/>
<path d="M0 11.9983L17.2316 5.49914V-2.55166L0 11.9983Z" fill="#E31D1C"/>
<path d="M0 11.9983L17.2316 9.49914V5.44834L0 11.9983Z" fill="#F7FCFF"/>
<path fill-rule="evenodd" clip-rule="evenodd" d="M0 11.9983H17.2316V8.44834L0 11.9983Z" fill="#5EAA22"/>
</g>
</g>
<rect width="16" height="12" fill="url(#paint0_linear_14655_23530)" style="mix-blend-mode:overlay"/>
</g>
<defs>
<linearGradient id="paint0_linear_14655_23530" x1="8" y1="0" x2="8" y2="12" gradientUnits="userSpaceOnUse">
<stop stop-color="white" stop-opacity="0.7"/>
<stop offset="1" stop-opacity="0.3"/>
</linearGradient>
<clipPath id="clip0_14655_23530">
<rect width="16" height="12" rx="1" fill="white"/>
</clipPath>
</defs>
</svg>
