<svg width="16" height="12" viewBox="0 0 16 12" fill="none" xmlns="http://www.w3.org/2000/svg">
<g clip-path="url(#clip0_14655_23560)">
<mask id="mask0_14655_23560" style="mask-type:alpha" maskUnits="userSpaceOnUse" x="0" y="0" width="16" height="12">
<rect width="16" height="12" fill="white"/>
</mask>
<g mask="url(#mask0_14655_23560)">
<path fill-rule="evenodd" clip-rule="evenodd" d="M0 0V12H16V0H0Z" fill="#F7FCFF"/>
<mask id="mask1_14655_23560" style="mask-type:alpha" maskUnits="userSpaceOnUse" x="0" y="0" width="16" height="12">
<path fill-rule="evenodd" clip-rule="evenodd" d="M0 0V12H16V0H0Z" fill="white"/>
</mask>
<g mask="url(#mask1_14655_23560)">
<path fill-rule="evenodd" clip-rule="evenodd" d="M0 0V6H16V0H0Z" fill="#E31D1C"/>
<path fill-rule="evenodd" clip-rule="evenodd" d="M4.4342 5.2948C4.4342 5.2948 3.02136 4.72655 3.02136 3.18702C3.02136 1.64748 4.4342 1.09759 4.4342 1.09759C3.74753 0.923756 1.92548 1.07924 1.92548 3.18702C1.92548 5.2948 3.72 5.6923 4.4342 5.2948ZM4.79619 5.04032L5.2015 4.79564L5.61574 5.04032L5.51436 4.56284L5.85111 4.18617H5.39486L5.2015 3.74032L5.00814 4.18617L4.55111 4.20549L4.88864 4.56284L4.79619 5.04032ZM6.67465 4.76831L6.26934 5.013L6.36179 4.53552L6.02426 4.17817L6.48129 4.15885L6.67465 3.713L6.86801 4.15885H7.32426L6.98751 4.53552L7.08889 5.013L6.67465 4.76831ZM5.64358 2.88494L6.04889 2.64026L6.46313 2.88494L6.36175 2.40746L6.6985 2.03079H6.24225L6.04889 1.58494L5.85553 2.03079L5.3985 2.05012L5.73602 2.40746L5.64358 2.88494ZM4.68489 3.61134L4.27958 3.85603L4.37203 3.37854L4.0345 3.0212L4.49153 3.00188L4.68489 2.55603L4.87825 3.00188H5.3345L4.99776 3.37854L5.09914 3.85603L4.68489 3.61134ZM6.95879 3.8341L7.3641 3.58941L7.77834 3.8341L7.67696 3.35662L8.01371 2.97995H7.55746L7.3641 2.5341L7.17074 2.97995L6.71371 2.99927L7.05124 3.35662L6.95879 3.8341Z" fill="#F1F9FF"/>
</g>
</g>
<rect width="16" height="12" fill="url(#paint0_linear_14655_23560)" style="mix-blend-mode:overlay"/>
</g>
<defs>
<linearGradient id="paint0_linear_14655_23560" x1="8" y1="0" x2="8" y2="12" gradientUnits="userSpaceOnUse">
<stop stop-color="white" stop-opacity="0.7"/>
<stop offset="1" stop-opacity="0.3"/>
</linearGradient>
<clipPath id="clip0_14655_23560">
<rect width="16" height="12" rx="1" fill="white"/>
</clipPath>
</defs>
</svg>
