<svg width="16" height="12" viewBox="0 0 16 12" fill="none" xmlns="http://www.w3.org/2000/svg">
<g clip-path="url(#clip0_14655_23371)">
<mask id="mask0_14655_23371" style="mask-type:alpha" maskUnits="userSpaceOnUse" x="0" y="0" width="16" height="12">
<rect width="16" height="12" fill="white"/>
</mask>
<g mask="url(#mask0_14655_23371)">
<path fill-rule="evenodd" clip-rule="evenodd" d="M0 0V12H16V0H0Z" fill="#F7FCFF"/>
<mask id="mask1_14655_23371" style="mask-type:alpha" maskUnits="userSpaceOnUse" x="0" y="0" width="16" height="12">
<path fill-rule="evenodd" clip-rule="evenodd" d="M0 0V12H16V0H0Z" fill="white"/>
</mask>
<g mask="url(#mask1_14655_23371)">
<path fill-rule="evenodd" clip-rule="evenodd" d="M0 6V12H16V6H0Z" fill="#56C6F5"/>
<path fill-rule="evenodd" clip-rule="evenodd" d="M5.12706 4.51424C5.12335 4.47199 5.11451 4.43546 5.09923 4.40699C4.97079 4.16761 5.01229 3.86808 5.01229 3.86808C5.01229 3.86808 4.85892 4.21885 4.76893 4.54911C4.67434 4.39531 4.64127 4.24124 4.64127 4.24124C4.64127 4.24124 4.58005 5.21003 4.76722 5.43957C4.95439 5.66911 5.07918 5.76998 5.07918 5.76998C5.07918 5.76998 5.09334 5.3677 5.03885 5.05309C5.07725 4.92184 5.11189 4.77806 5.1243 4.65428C5.14887 4.63608 5.21361 4.58748 5.29463 4.52137C5.26049 4.70976 5.25879 4.81212 5.25879 4.81212C5.25879 4.81212 5.96408 4.30002 5.982 4.02895C5.99993 3.75789 6.19385 3.52586 6.19385 3.52586C6.19385 3.52586 6.0335 3.63559 5.8504 3.78272C5.89881 3.55519 6.04869 3.37586 6.04869 3.37586C6.04869 3.37586 5.24758 3.92406 5.18193 4.21288C5.15338 4.3385 5.13674 4.43984 5.12706 4.51424ZM5.16136 6.17945C5.08455 6.03441 4.75028 5.42645 4.51713 5.37355C4.2522 5.31344 4.05337 5.08561 4.05337 5.08561C4.05337 5.08561 4.4695 5.96261 4.74449 6.07263C4.96532 6.16098 5.11073 6.19626 5.15944 6.20673C5.15142 6.32495 5.15002 6.40663 5.15002 6.40663C5.15002 6.40663 5.27991 6.31243 5.47884 6.093C5.67776 5.87357 5.66733 4.9029 5.66733 4.9029C5.66733 4.9029 5.58849 5.19484 5.37673 5.365C5.23467 5.47915 5.18119 5.9089 5.16136 6.17945ZM4.53566 6.08769C4.83831 6.08591 5.30392 6.82806 5.30392 6.82806C5.30392 6.82806 5.12354 6.83794 4.80842 6.78816C4.49331 6.73837 4.00217 5.89272 4.00217 5.89272C4.00217 5.89272 4.233 6.08947 4.53566 6.08769ZM6.01098 7.81614C6.01098 7.81614 6.19058 6.8704 5.92089 6.64994C5.65121 6.42947 5.60363 6.1 5.60363 6.1C5.60363 6.1 5.36406 7.14875 5.60363 7.42034C5.8432 7.69193 6.01098 7.81614 6.01098 7.81614ZM4.92283 7.56081C5.09894 7.76961 5.66004 7.56081 5.66004 7.56081C5.66004 7.56081 5.78367 7.67309 5.33869 7.26638C4.8937 6.85968 3.98824 7.11656 4.23192 7.11656C4.4756 7.11656 4.74671 7.35201 4.92283 7.56081ZM5.33869 8.67098C5.66515 8.94748 6.37057 8.29006 6.37057 8.29006C6.37057 8.29006 6.18897 8.07014 5.8524 7.90805C5.51584 7.74596 4.27433 7.90805 4.27433 7.90805L4.82683 8.15397C4.82683 8.15397 4.21182 8.39449 4.37507 8.38108C4.53831 8.36767 5.01223 8.39449 5.33869 8.67098Z" fill="#006923"/>
<path fill-rule="evenodd" clip-rule="evenodd" d="M9.60671 8.0982C9.60671 8.0982 9.32603 7.62652 9.60671 7.39864C9.8874 7.17077 9.99848 7.32233 9.99848 7.06034C9.99848 6.79835 10.0269 6.87636 10.1648 6.74629C10.3027 6.61623 10.205 6.30032 10.3897 6.45828C10.5744 6.61623 10.6089 6.31334 10.6089 6.94256C10.6089 7.57179 10.6089 6.37186 10.6089 6.01845C10.6089 5.66503 10.3897 5.7487 10.3897 5.51168C10.3897 5.27467 10.1705 4.92069 10.3897 4.92069C10.6089 4.92069 10.7377 5.18406 10.7377 5.18406C10.7377 5.18406 10.9531 5.55113 10.9531 5.18406C10.9531 4.81698 10.5697 4.92611 10.3897 4.52104C10.2097 4.11597 10.2382 4.56647 9.99848 4.04451C9.75879 3.52255 9.47341 3.35692 9.73595 3.35692C9.99848 3.35692 9.93989 3.35692 10.1648 3.35692C10.3897 3.35692 10.7377 3.1701 10.7377 3.35692C10.7377 3.54373 10.7377 3.45812 10.7377 3.75132C10.7377 4.04451 10.9531 4.04451 10.9531 4.04451C10.9531 4.04451 11.0702 3.45812 11.2173 3.75132C11.3643 4.04451 11.2642 4.52104 11.3719 4.52104C11.4795 4.52104 11.3904 4.02858 11.6255 4.40577C11.8606 4.78295 11.6255 5.03855 11.6255 5.18406C11.6255 5.32956 11.3719 5.68604 11.3719 5.68604C11.3719 5.68604 11.4214 5.8604 11.6255 5.68604C11.8296 5.51168 12.0232 5.33733 12.0232 5.51168C12.0232 5.68604 12.4209 5.74021 12.0232 6.01845C11.6255 6.29668 11.8791 6.57525 11.6255 6.57525C11.3719 6.57525 11.073 6.94256 10.9531 6.94256C10.8332 6.94256 10.3846 7.22379 10.6089 7.22379C10.8332 7.22379 11.0627 6.66134 11.2173 6.94256C11.3719 7.22379 11.3698 6.89689 11.4977 7.06034C11.6255 7.22379 11.7533 8.11065 11.6255 7.75464C11.4977 7.39864 11.2973 7.39864 10.9531 7.39864C10.6089 7.39864 9.93989 7.42435 10.1648 7.5895C10.3897 7.75464 10.6423 7.42435 10.7377 7.5895C10.8332 7.75464 10.8054 7.91979 10.9531 7.75464C11.1008 7.5895 11.2461 7.75464 11.3719 7.75464C11.4977 7.75464 11.2461 7.93952 11.3719 8.0982C11.4977 8.25688 11.778 8.46827 11.4977 8.46827C11.2173 8.46827 11.073 8.24411 10.9531 8.46827C10.8332 8.69242 10.8281 9.08174 10.6089 8.775C10.3897 8.46827 9.99848 8.62396 9.99848 8.46827C9.99848 8.31258 10.0841 8.28744 9.84539 8.28744C9.60671 8.28744 9.60671 8.0982 9.60671 8.0982Z" fill="#009933"/>
<path fill-rule="evenodd" clip-rule="evenodd" d="M10.758 4.725C10.758 4.79404 10.7039 4.85 10.6371 4.85C10.5703 4.85 10.5161 4.79404 10.5161 4.725C10.5161 4.65596 10.5703 4.6 10.6371 4.6C10.7039 4.6 10.758 4.65596 10.758 4.725ZM5.16934 5C5.23615 5 5.29031 4.94404 5.29031 4.875C5.29031 4.80596 5.23615 4.75 5.16934 4.75C5.10253 4.75 5.04837 4.80596 5.04837 4.875C5.04837 4.94404 5.10253 5 5.16934 5ZM5.29031 5.525C5.29031 5.59404 5.23615 5.65 5.16934 5.65C5.10253 5.65 5.04837 5.59404 5.04837 5.525C5.04837 5.45596 5.10253 5.4 5.16934 5.4C5.23615 5.4 5.29031 5.45596 5.29031 5.525ZM5.36289 6.8C5.4297 6.8 5.48385 6.74404 5.48385 6.675C5.48385 6.60596 5.4297 6.55 5.36289 6.55C5.29608 6.55 5.24192 6.60596 5.24192 6.675C5.24192 6.74404 5.29608 6.8 5.36289 6.8ZM6.33063 8.05C6.39744 8.05 6.4516 7.99404 6.4516 7.925C6.4516 7.85596 6.39744 7.8 6.33063 7.8C6.26382 7.8 6.20966 7.85596 6.20966 7.925C6.20966 7.99404 6.26382 8.05 6.33063 8.05ZM10.9758 6.15C11.0426 6.15 11.0968 6.09404 11.0968 6.025C11.0968 5.95596 11.0426 5.9 10.9758 5.9C10.909 5.9 10.8548 5.95596 10.8548 6.025C10.8548 6.09404 10.909 6.15 10.9758 6.15ZM10.7097 7.025C10.7097 7.09404 10.6555 7.15 10.5887 7.15C10.5219 7.15 10.4677 7.09404 10.4677 7.025C10.4677 6.95596 10.5219 6.9 10.5887 6.9C10.6555 6.9 10.7097 6.95596 10.7097 7.025ZM9.57256 8.25C9.63937 8.25 9.69353 8.19404 9.69353 8.125C9.69353 8.05596 9.63937 8 9.57256 8C9.50576 8 9.4516 8.05596 9.4516 8.125C9.4516 8.19404 9.50576 8.25 9.57256 8.25ZM6.49998 8.275C6.49998 8.34404 6.44582 8.4 6.37902 8.4C6.31221 8.4 6.25805 8.34404 6.25805 8.275C6.25805 8.20596 6.31221 8.15 6.37902 8.15C6.44582 8.15 6.49998 8.20596 6.49998 8.275Z" fill="#C51918"/>
<path fill-rule="evenodd" clip-rule="evenodd" d="M9.0189 9.90992C9.0189 9.8075 7.46863 8.73911 7.05253 8.50346C6.63644 8.2678 4.60453 6.97079 5.15787 5.00012H5.07414C5.07414 5.00012 4.69966 7.42834 7.27968 8.93774C8.45442 9.72579 8.51289 9.90992 8.51289 9.90992C8.51289 9.90992 9.0189 10.0123 9.0189 9.90992Z" fill="#FECA00"/>
<path fill-rule="evenodd" clip-rule="evenodd" d="M6.96215 9.90992C6.96215 9.8075 8.51242 8.73911 8.92852 8.50346C9.34461 8.2678 11.3765 6.97079 10.8232 5.00012H10.9069C10.9069 5.00012 11.2814 7.42834 8.70137 8.93774C7.52662 9.72579 7.46815 9.90992 7.46815 9.90992C7.46815 9.90992 6.96215 10.0123 6.96215 9.90992Z" fill="#FECA00"/>
<path fill-rule="evenodd" clip-rule="evenodd" d="M8.02419 8.44284C9.10649 8.44284 9.98387 7.04191 9.98387 5.675C9.98387 4.3081 9.10649 3.6 8.02419 3.6C6.94189 3.6 6.06451 4.3081 6.06451 5.675C6.06451 7.04191 6.94189 8.44284 8.02419 8.44284Z" fill="#56C6F5"/>
<path fill-rule="evenodd" clip-rule="evenodd" d="M7.15659 4.76944C7.15659 4.76944 7.4584 4.50324 7.3075 4.50324C7.27823 4.50324 7.2426 4.49753 7.20418 4.49137C7.04449 4.46575 6.83654 4.43239 6.83654 4.76944V5.34864L6.83646 5.35H6.79194C6.76432 5.35 6.74194 5.37239 6.74194 5.4C6.74194 5.42762 6.76432 5.45 6.79194 5.45H6.83105C6.82437 5.57372 6.81252 5.79373 6.80091 6.01362L6.74369 6.01863C6.71411 6.02122 6.69223 6.04729 6.69482 6.07687L6.69852 6.11919C6.70111 6.14877 6.72719 6.17065 6.75676 6.16806L6.79295 6.16489C6.77952 6.42182 6.76819 6.64666 6.76819 6.67418C6.76819 6.74176 7.22733 6.71559 7.22733 6.71559C7.22733 6.71559 7.21305 6.44455 7.19732 6.12952L7.22808 6.12682C7.25766 6.12424 7.27954 6.09816 7.27696 6.06858L7.27325 6.02627C7.27067 5.99669 7.24459 5.97481 7.21501 5.9774L7.18989 5.97959C7.18063 5.79092 7.17155 5.59934 7.16522 5.45H7.22419C7.25181 5.45 7.27419 5.42762 7.27419 5.4C7.27419 5.37239 7.25181 5.35 7.22419 5.35H7.16116C7.15829 5.27538 7.15659 5.21929 7.15659 5.19103V4.76944Z" fill="white"/>
<path fill-rule="evenodd" clip-rule="evenodd" d="M6.93549 5.5H7.09678V5.71506H6.93549V5.5Z" fill="black"/>
<path fill-rule="evenodd" clip-rule="evenodd" d="M6.88708 6.25H7.1559V6.75H6.88708V6.25Z" fill="black"/>
<path fill-rule="evenodd" clip-rule="evenodd" d="M8.17271 4.76944C8.17271 4.76944 8.47451 4.50324 8.32361 4.50324C8.29434 4.50324 8.25871 4.49753 8.22029 4.49137C8.0606 4.46575 7.85265 4.43239 7.85265 4.76944V5.34864L7.85258 5.35H7.80805C7.78043 5.35 7.75805 5.37239 7.75805 5.4C7.75805 5.42762 7.78043 5.45 7.80805 5.45H7.84716C7.84048 5.57372 7.82864 5.79373 7.81702 6.01362L7.7598 6.01863C7.73023 6.02122 7.70834 6.04729 7.71093 6.07687L7.71463 6.11919C7.71722 6.14877 7.7433 6.17065 7.77288 6.16806L7.80907 6.16489C7.79563 6.42182 7.7843 6.64666 7.7843 6.67418C7.7843 6.74176 8.24344 6.71559 8.24344 6.71559C8.24344 6.71559 8.22916 6.44455 8.21343 6.12952L8.2442 6.12682C8.27378 6.12424 8.29566 6.09816 8.29307 6.06858L8.28937 6.02627C8.28678 5.99669 8.2607 5.97481 8.23112 5.9774L8.206 5.97959C8.19674 5.79092 8.18767 5.59934 8.18134 5.45H8.24031C8.26792 5.45 8.29031 5.42762 8.29031 5.4C8.29031 5.37239 8.26792 5.35 8.24031 5.35H8.17727C8.17441 5.27538 8.17271 5.21929 8.17271 5.19103V4.76944Z" fill="white"/>
<path fill-rule="evenodd" clip-rule="evenodd" d="M9.14045 4.76944C9.14045 4.76944 9.44226 4.50324 9.29135 4.50324C9.26209 4.50324 9.22646 4.49753 9.18803 4.49137C9.02834 4.46575 8.82039 4.43239 8.82039 4.76944V5.34864L8.82032 5.35H8.77579C8.74818 5.35 8.72579 5.37239 8.72579 5.4C8.72579 5.42762 8.74818 5.45 8.77579 5.45H8.81491C8.80822 5.57372 8.79638 5.79373 8.78476 6.01362L8.72755 6.01863C8.69797 6.02122 8.67609 6.04729 8.67867 6.07687L8.68238 6.11919C8.68496 6.14877 8.71104 6.17065 8.74062 6.16806L8.77681 6.16489C8.76338 6.42182 8.75205 6.64666 8.75205 6.67418C8.75205 6.74176 9.21119 6.71559 9.21119 6.71559C9.21119 6.71559 9.1969 6.44455 9.18117 6.12952L9.21194 6.12682C9.24152 6.12424 9.2634 6.09816 9.26081 6.06858L9.25711 6.02627C9.25452 5.99669 9.22845 5.97481 9.19887 5.9774L9.17375 5.97959C9.16448 5.79092 9.15541 5.59934 9.14908 5.45H9.20805C9.23566 5.45 9.25805 5.42762 9.25805 5.4C9.25805 5.37239 9.23566 5.35 9.20805 5.35H9.14502C9.14215 5.27538 9.14045 5.21929 9.14045 5.19103V4.76944Z" fill="white"/>
<path fill-rule="evenodd" clip-rule="evenodd" d="M8.91934 5.5H9.08063V5.71506H8.91934V5.5Z" fill="black"/>
<path fill-rule="evenodd" clip-rule="evenodd" d="M8.87094 6.25H9.13976V6.75H8.87094V6.25Z" fill="black"/>
<path fill-rule="evenodd" clip-rule="evenodd" d="M9.25804 3.2H6.69352V3.58282L6.67632 3.58436C6.67632 3.58436 5.41987 4.56072 5.76858 6.02332C6.11728 7.48592 7.50236 8.57057 7.50236 8.57057L7.57219 8.31816C7.57219 8.31816 6.25237 6.52357 6.25237 5.80648C6.25237 5.08939 6.50138 4.41634 6.76503 4.31169C6.92361 4.24874 6.95097 4.26152 6.99418 4.28169C7.02281 4.29507 7.0584 4.31169 7.14375 4.31169C7.3579 4.31169 7.57219 4.1584 7.57219 4.1584C7.57219 4.1584 7.72117 4.31169 7.85957 4.31169C7.99797 4.31169 7.99991 4.1584 7.99991 4.1584V3.65H8.0154V4.1584C8.0154 4.1584 8.01734 4.31169 8.15574 4.31169C8.29414 4.31169 8.44312 4.1584 8.44312 4.1584C8.44312 4.1584 8.65742 4.31169 8.87156 4.31169C8.95691 4.31169 8.9925 4.29507 9.02113 4.28169C9.06434 4.26152 9.0917 4.24874 9.25028 4.31169C9.51393 4.41634 9.76294 5.08939 9.76294 5.80648C9.76294 6.52357 8.44312 8.31816 8.44312 8.31816L8.51295 8.57057C8.51295 8.57057 9.89803 7.48592 10.2467 6.02332C10.5954 4.56072 9.33899 3.58436 9.33899 3.58436L9.25804 3.57712V3.2Z" fill="#E8AA00"/>
<path d="M6.69352 3.2V2.95H6.44352V3.2H6.69352ZM9.25804 3.2H9.50804V2.95H9.25804V3.2ZM6.69352 3.58282L6.71579 3.83183L6.94352 3.81146V3.58282H6.69352ZM6.67632 3.58436L6.65406 3.33535L6.58091 3.34189L6.52292 3.38695L6.67632 3.58436ZM5.76858 6.02332L5.52539 6.0813L5.76858 6.02332ZM7.50236 8.57057L7.34822 8.7674L7.64336 8.99852L7.74331 8.63722L7.50236 8.57057ZM7.57219 8.31816L7.81314 8.38481L7.8455 8.26782L7.77358 8.17004L7.57219 8.31816ZM6.76503 4.31169L6.6728 4.07932L6.6728 4.07932L6.76503 4.31169ZM6.99418 4.28169L6.8884 4.50821L6.8884 4.50821L6.99418 4.28169ZM7.57219 4.1584L7.75146 3.98416L7.60161 3.82998L7.42674 3.95507L7.57219 4.1584ZM7.99991 4.1584L8.24991 4.16156V4.1584H7.99991ZM7.99991 3.65V3.4H7.74991V3.65H7.99991ZM8.0154 3.65H8.2654V3.4H8.0154V3.65ZM8.0154 4.1584H7.76538L7.76542 4.16156L8.0154 4.1584ZM8.44312 4.1584L8.58857 3.95507L8.4137 3.82998L8.26385 3.98416L8.44312 4.1584ZM9.02113 4.28169L9.12691 4.50821L9.02113 4.28169ZM9.25028 4.31169L9.15805 4.54405L9.25028 4.31169ZM8.44312 8.31816L8.24173 8.17004L8.16981 8.26782L8.20217 8.38481L8.44312 8.31816ZM8.51295 8.57057L8.272 8.63722L8.37195 8.99852L8.66709 8.7674L8.51295 8.57057ZM9.33899 3.58436L9.49239 3.38695L9.4344 3.34189L9.36125 3.33535L9.33899 3.58436ZM9.25804 3.57712H9.00804V3.80577L9.23578 3.82613L9.25804 3.57712ZM6.69352 3.45H9.25804V2.95H6.69352V3.45ZM6.94352 3.58282V3.2H6.44352V3.58282H6.94352ZM6.69859 3.83336L6.71579 3.83183L6.67126 3.33381L6.65406 3.33535L6.69859 3.83336ZM6.01176 5.96534C5.85787 5.31986 6.05558 4.77941 6.30286 4.38918C6.42655 4.19398 6.56071 4.03993 6.66381 3.93494C6.71519 3.88263 6.75836 3.84301 6.78792 3.81707C6.80269 3.80411 6.81402 3.7946 6.82122 3.78866C6.82482 3.7857 6.82739 3.78363 6.82884 3.78247C6.82956 3.7819 6.83 3.78155 6.83015 3.78143C6.83023 3.78137 6.83023 3.78137 6.83016 3.78142C6.83012 3.78145 6.83007 3.78149 6.83 3.78155C6.82996 3.78158 6.82989 3.78163 6.82987 3.78164C6.8298 3.7817 6.82972 3.78176 6.67632 3.58436C6.52292 3.38695 6.52284 3.38702 6.52274 3.38709C6.52271 3.38712 6.52261 3.3872 6.52253 3.38726C6.52238 3.38737 6.52222 3.3875 6.52203 3.38765C6.52165 3.38795 6.5212 3.3883 6.52067 3.38871C6.51962 3.38955 6.51827 3.39062 6.51662 3.39193C6.51334 3.39456 6.50889 3.39815 6.50337 3.40269C6.49234 3.41178 6.47702 3.42467 6.45811 3.44127C6.42033 3.47443 6.36806 3.52251 6.30709 3.58459C6.18551 3.70838 6.02735 3.88983 5.88051 4.12155C5.58675 4.58515 5.33058 5.26418 5.52539 6.0813L6.01176 5.96534ZM7.50236 8.57057C7.6565 8.37374 7.65654 8.37377 7.65658 8.3738C7.65659 8.37381 7.65662 8.37384 7.65664 8.37385C7.65666 8.37387 7.65667 8.37387 7.65665 8.37386C7.65662 8.37384 7.65651 8.37375 7.65632 8.37359C7.65593 8.37329 7.65521 8.37272 7.65418 8.3719C7.65211 8.37025 7.64878 8.36758 7.64425 8.3639C7.63519 8.35655 7.62136 8.34519 7.60334 8.32999C7.56728 8.29959 7.51455 8.2539 7.4498 8.1943C7.32013 8.07494 7.14321 7.90067 6.9559 7.68254C6.57822 7.24274 6.17298 6.64158 6.01176 5.96534L5.52539 6.0813C5.71287 6.86766 6.17453 7.54012 6.57657 8.00829C6.77911 8.24415 6.97025 8.43245 7.11118 8.56218C7.18173 8.62712 7.23993 8.67759 7.28099 8.71221C7.30152 8.72953 7.31779 8.7429 7.32919 8.75215C7.33489 8.75678 7.33938 8.76038 7.34257 8.76292C7.34417 8.7642 7.34545 8.76521 7.34639 8.76595C7.34686 8.76633 7.34725 8.76663 7.34756 8.76687C7.34771 8.76699 7.34784 8.7671 7.34795 8.76719C7.34801 8.76723 7.34808 8.76728 7.3481 8.7673C7.34817 8.76735 7.34822 8.7674 7.50236 8.57057ZM7.33124 8.2515L7.26141 8.50391L7.74331 8.63722L7.81314 8.38481L7.33124 8.2515ZM6.00237 5.80648C6.00237 6.04453 6.10653 6.33422 6.23146 6.6059C6.36102 6.88767 6.53165 7.18864 6.69914 7.46188C6.86714 7.73597 7.03475 7.9866 7.16015 8.16846C7.22293 8.25951 7.27531 8.33358 7.31211 8.38505C7.33052 8.4108 7.34504 8.4309 7.35504 8.44467C7.36003 8.45156 7.3639 8.45686 7.36655 8.46049C7.36787 8.4623 7.3689 8.4637 7.36961 8.46466C7.36996 8.46515 7.37024 8.46553 7.37044 8.46579C7.37053 8.46593 7.37061 8.46604 7.37067 8.46612C7.3707 8.46616 7.37073 8.4662 7.37074 8.46621C7.37077 8.46625 7.37079 8.46627 7.57219 8.31816C7.77358 8.17004 7.77359 8.17005 7.7736 8.17006C7.77359 8.17005 7.77359 8.17005 7.77358 8.17003C7.77356 8.17 7.77352 8.16995 7.77345 8.16986C7.77333 8.1697 7.77313 8.16942 7.77285 8.16904C7.77229 8.16828 7.77142 8.16709 7.77025 8.16549C7.76791 8.16228 7.76436 8.15742 7.75969 8.15098C7.75035 8.13811 7.73652 8.11896 7.71884 8.09423C7.68347 8.04477 7.63274 7.97304 7.57178 7.88463C7.44971 7.7076 7.28737 7.46477 7.12542 7.20058C6.96296 6.93553 6.80363 6.65341 6.68573 6.39701C6.56319 6.13053 6.50237 5.92699 6.50237 5.80648H6.00237ZM6.6728 4.07932C6.53941 4.13227 6.43934 4.24136 6.36685 4.34816C6.29097 4.45995 6.22643 4.59723 6.17397 4.74655C6.0689 5.0456 6.00237 5.42128 6.00237 5.80648H6.50237C6.50237 5.4746 6.56035 5.15521 6.6457 4.91229C6.68844 4.79063 6.73559 4.6952 6.78055 4.62896C6.82891 4.55772 6.85882 4.54343 6.85726 4.54405L6.6728 4.07932ZM7.09996 4.05518C7.0701 4.04123 7.00417 4.0095 6.90612 4.01608C6.8324 4.02103 6.75494 4.04672 6.6728 4.07932L6.85726 4.54405C6.8926 4.53003 6.9158 4.52217 6.9307 4.51789C6.9459 4.51352 6.94712 4.51445 6.93961 4.51496C6.93532 4.51525 6.92875 4.51536 6.92048 4.51456C6.91203 4.51375 6.90382 4.51217 6.89628 4.5101C6.88903 4.50811 6.88405 4.50612 6.88251 4.50548C6.88187 4.50521 6.88208 4.50526 6.8884 4.50821L7.09996 4.05518ZM7.14375 4.06169C7.13049 4.06169 7.12163 4.06104 7.11621 4.06043C7.11095 4.05984 7.10874 4.05927 7.10873 4.05927C7.10866 4.05925 7.10883 4.05929 7.10916 4.0594C7.10948 4.05951 7.10965 4.05958 7.10954 4.05953C7.10879 4.05924 7.10758 4.05874 7.09996 4.05518L6.8884 4.50821C6.90463 4.51579 6.9389 4.53212 6.98666 4.54414C7.03343 4.55591 7.08466 4.56169 7.14375 4.56169V4.06169ZM7.57219 4.1584C7.42674 3.95507 7.42678 3.95503 7.42683 3.955C7.42684 3.95499 7.42689 3.95496 7.42692 3.95494C7.42697 3.9549 7.42703 3.95486 7.42708 3.95483C7.42718 3.95475 7.42727 3.95469 7.42734 3.95464C7.42749 3.95453 7.4276 3.95445 7.42765 3.95441C7.42777 3.95434 7.42769 3.95439 7.42743 3.95457C7.42691 3.95493 7.42566 3.95579 7.42374 3.95707C7.41988 3.95965 7.41339 3.96388 7.40467 3.96923C7.38704 3.98004 7.36134 3.99476 7.33064 4.0094C7.26442 4.04099 7.19675 4.06169 7.14375 4.06169V4.56169C7.30489 4.56169 7.45145 4.50574 7.5459 4.46069C7.59555 4.43701 7.6368 4.4134 7.66604 4.39548C7.68076 4.38645 7.69268 4.37871 7.70138 4.3729C7.70573 4.37 7.7093 4.36756 7.71202 4.36568C7.71338 4.36473 7.71454 4.36393 7.71547 4.36327C7.71594 4.36294 7.71636 4.36264 7.71672 4.36239C7.7169 4.36226 7.71706 4.36214 7.71722 4.36203C7.71729 4.36198 7.71737 4.36193 7.71744 4.36188C7.71747 4.36185 7.71752 4.36182 7.71754 4.3618C7.71759 4.36177 7.71763 4.36173 7.57219 4.1584ZM7.85957 4.06169C7.86966 4.06169 7.86892 4.06404 7.85501 4.05806C7.84203 4.05248 7.82571 4.04313 7.80769 4.03048C7.79019 4.01818 7.77486 4.00542 7.76393 3.99569C7.7586 3.99094 7.75468 3.98723 7.75244 3.98508C7.75133 3.98401 7.75067 3.98335 7.75049 3.98316C7.7504 3.98307 7.75043 3.98311 7.75059 3.98327C7.75067 3.98335 7.75078 3.98346 7.75093 3.98361C7.751 3.98368 7.75108 3.98377 7.75117 3.98386C7.75121 3.9839 7.75126 3.98395 7.75131 3.984C7.75133 3.98402 7.75137 3.98406 7.75138 3.98408C7.75142 3.98412 7.75146 3.98416 7.57219 4.1584C7.39291 4.33265 7.39295 4.33269 7.39299 4.33273C7.39301 4.33274 7.39305 4.33279 7.39308 4.33282C7.39314 4.33288 7.3932 4.33294 7.39326 4.333C7.39338 4.33313 7.39352 4.33327 7.39366 4.33341C7.39395 4.33371 7.39428 4.33404 7.39465 4.33441C7.39538 4.33516 7.39626 4.33605 7.3973 4.33708C7.39937 4.33914 7.40204 4.34178 7.40527 4.3449C7.41173 4.35113 7.42052 4.35939 7.43132 4.36902C7.45266 4.38802 7.48322 4.41358 7.52026 4.43961C7.58391 4.48432 7.70961 4.56169 7.85957 4.56169V4.06169ZM7.99991 4.1584C7.74993 4.15524 7.74993 4.15513 7.74993 4.15502C7.74993 4.15498 7.74993 4.15488 7.74993 4.1548C7.74993 4.15466 7.74994 4.15452 7.74994 4.15438C7.74994 4.1541 7.74995 4.15383 7.74995 4.15356C7.74996 4.15303 7.74998 4.15252 7.74999 4.15204C7.75001 4.15108 7.75005 4.15022 7.75008 4.14945C7.75014 4.14791 7.75022 4.1467 7.75029 4.14576C7.75043 4.14396 7.75058 4.14285 7.7507 4.1421C7.75075 4.14183 7.75133 4.13743 7.75487 4.1298C7.75856 4.12185 7.76902 4.10298 7.79228 4.08596C7.81838 4.06687 7.84482 4.06169 7.85957 4.06169V4.56169C7.94352 4.56169 8.0221 4.53735 8.08749 4.48951C8.15003 4.44375 8.18693 4.38656 8.20841 4.34028C8.22973 4.29433 8.23945 4.25161 8.24418 4.2226C8.24665 4.20748 8.24803 4.1944 8.24881 4.18422C8.24921 4.17908 8.24946 4.17458 8.24962 4.1708C8.2497 4.1689 8.24976 4.16718 8.2498 4.16564C8.24982 4.16487 8.24984 4.16414 8.24985 4.16346C8.24986 4.16312 8.24987 4.1628 8.24987 4.16248C8.24987 4.16232 8.24988 4.16216 8.24988 4.16201C8.24988 4.16194 8.24988 4.16182 8.24988 4.16179C8.24988 4.16167 8.24989 4.16156 7.99991 4.1584ZM7.74991 3.65V4.1584H8.24991V3.65H7.74991ZM8.0154 3.4H7.99991V3.9H8.0154V3.4ZM7.7654 3.65V4.1584H8.2654V3.65H7.7654ZM8.0154 4.1584C7.76542 4.16156 7.76543 4.16167 7.76543 4.16179C7.76543 4.16182 7.76543 4.16194 7.76543 4.16201C7.76543 4.16216 7.76544 4.16232 7.76544 4.16248C7.76544 4.1628 7.76545 4.16312 7.76546 4.16346C7.76547 4.16414 7.76549 4.16487 7.76551 4.16564C7.76555 4.16718 7.76561 4.1689 7.76569 4.1708C7.76585 4.17458 7.7661 4.17908 7.7665 4.18422C7.76728 4.1944 7.76867 4.20748 7.77113 4.2226C7.77586 4.25161 7.78558 4.29433 7.8069 4.34028C7.82838 4.38656 7.86528 4.44375 7.92782 4.48951C7.99321 4.53735 8.07179 4.56169 8.15574 4.56169V4.06169C8.17049 4.06169 8.19693 4.06687 8.22303 4.08596C8.24629 4.10298 8.25675 4.12185 8.26044 4.1298C8.26398 4.13743 8.26456 4.14183 8.26461 4.1421C8.26473 4.14285 8.26488 4.14396 8.26502 4.14576C8.26509 4.1467 8.26517 4.14791 8.26523 4.14945C8.26527 4.15022 8.2653 4.15108 8.26532 4.15204C8.26534 4.15252 8.26535 4.15303 8.26536 4.15356C8.26536 4.15383 8.26537 4.1541 8.26537 4.15438C8.26537 4.15452 8.26538 4.15466 8.26538 4.1548C8.26538 4.15488 8.26538 4.15498 8.26538 4.15502C8.26538 4.15513 8.26538 4.15524 8.0154 4.1584ZM8.15574 4.56169C8.3057 4.56169 8.4314 4.48432 8.49505 4.43961C8.53209 4.41358 8.56265 4.38802 8.58399 4.36902C8.59479 4.35939 8.60358 4.35113 8.61004 4.3449C8.61327 4.34178 8.61595 4.33914 8.61801 4.33708C8.61905 4.33605 8.61993 4.33516 8.62067 4.33441C8.62103 4.33404 8.62136 4.33371 8.62165 4.33341C8.62179 4.33327 8.62193 4.33313 8.62205 4.333C8.62211 4.33294 8.62217 4.33288 8.62223 4.33282C8.62226 4.33279 8.6223 4.33274 8.62232 4.33273C8.62236 4.33269 8.6224 4.33265 8.44312 4.1584C8.26385 3.98416 8.26389 3.98412 8.26393 3.98408C8.26394 3.98406 8.26398 3.98402 8.264 3.984C8.26405 3.98395 8.2641 3.9839 8.26414 3.98386C8.26423 3.98377 8.26431 3.98368 8.26438 3.98361C8.26453 3.98346 8.26464 3.98335 8.26472 3.98327C8.26488 3.98311 8.26491 3.98307 8.26482 3.98316C8.26464 3.98335 8.26398 3.98401 8.26287 3.98508C8.26063 3.98723 8.25671 3.99094 8.25138 3.99569C8.24045 4.00542 8.22512 4.01818 8.20762 4.03048C8.18961 4.04313 8.17328 4.05248 8.1603 4.05806C8.14639 4.06404 8.14565 4.06169 8.15574 4.06169V4.56169ZM8.44312 4.1584C8.29768 4.36173 8.29772 4.36177 8.29777 4.3618C8.29779 4.36182 8.29784 4.36185 8.29787 4.36188C8.29794 4.36193 8.29802 4.36198 8.29809 4.36203C8.29825 4.36214 8.29841 4.36226 8.29859 4.36239C8.29895 4.36264 8.29937 4.36294 8.29984 4.36327C8.30077 4.36393 8.30193 4.36473 8.30329 4.36568C8.30601 4.36756 8.30958 4.37 8.31393 4.3729C8.32263 4.37871 8.33456 4.38645 8.34927 4.39548C8.37851 4.4134 8.41976 4.43701 8.46941 4.46069C8.56386 4.50574 8.71042 4.56169 8.87156 4.56169V4.06169C8.81856 4.06169 8.75089 4.04099 8.68467 4.0094C8.65398 3.99476 8.62827 3.98004 8.61064 3.96923C8.60192 3.96388 8.59543 3.95965 8.59157 3.95707C8.58965 3.95579 8.5884 3.95493 8.58788 3.95457C8.58762 3.95439 8.58754 3.95434 8.58766 3.95441C8.58771 3.95445 8.58782 3.95453 8.58797 3.95464C8.58805 3.95469 8.58813 3.95475 8.58823 3.95483C8.58828 3.95486 8.58834 3.9549 8.58839 3.95494C8.58842 3.95496 8.58847 3.95499 8.58848 3.955C8.58853 3.95503 8.58857 3.95507 8.44312 4.1584ZM8.87156 4.56169C8.93065 4.56169 8.98188 4.55591 9.02865 4.54414C9.07641 4.53212 9.11068 4.51579 9.12691 4.50821L8.91535 4.05518C8.90773 4.05874 8.90652 4.05924 8.90577 4.05953C8.90566 4.05958 8.90583 4.05951 8.90615 4.0594C8.90648 4.05929 8.90665 4.05925 8.90658 4.05927C8.90657 4.05927 8.90436 4.05984 8.8991 4.06043C8.89368 4.06104 8.88482 4.06169 8.87156 4.06169V4.56169ZM9.12691 4.50821C9.13323 4.50526 9.13345 4.50521 9.1328 4.50548C9.13126 4.50612 9.12628 4.50811 9.11903 4.5101C9.11149 4.51217 9.10328 4.51375 9.09483 4.51456C9.08656 4.51536 9.07999 4.51525 9.0757 4.51496C9.06819 4.51445 9.06941 4.51352 9.08461 4.51789C9.09951 4.52217 9.12272 4.53003 9.15805 4.54405L9.34251 4.07932C9.26037 4.04672 9.18291 4.02103 9.10919 4.01608C9.01114 4.0095 8.94521 4.04123 8.91535 4.05518L9.12691 4.50821ZM9.15805 4.54405C9.15649 4.54343 9.18641 4.55772 9.23476 4.62896C9.27972 4.6952 9.32687 4.79063 9.36961 4.91229C9.45496 5.15521 9.51294 5.4746 9.51294 5.80648H10.0129C10.0129 5.42128 9.94641 5.0456 9.84134 4.74655C9.78888 4.59723 9.72434 4.45995 9.64846 4.34816C9.57597 4.24136 9.4759 4.13227 9.34251 4.07932L9.15805 4.54405ZM9.51294 5.80648C9.51294 5.92699 9.45212 6.13053 9.32958 6.39701C9.21168 6.65341 9.05235 6.93553 8.88989 7.20058C8.72794 7.46477 8.5656 7.7076 8.44353 7.88463C8.38257 7.97304 8.33185 8.04477 8.29647 8.09423C8.27879 8.11896 8.26496 8.13811 8.25562 8.15098C8.25095 8.15742 8.2474 8.16228 8.24506 8.16549C8.24389 8.16709 8.24302 8.16828 8.24246 8.16904C8.24218 8.16942 8.24198 8.1697 8.24186 8.16986C8.24179 8.16995 8.24175 8.17 8.24173 8.17003C8.24172 8.17005 8.24172 8.17005 8.24171 8.17006C8.24172 8.17005 8.24173 8.17004 8.44312 8.31816C8.64452 8.46627 8.64454 8.46625 8.64457 8.46621C8.64458 8.4662 8.64461 8.46616 8.64464 8.46612C8.6447 8.46604 8.64478 8.46593 8.64487 8.46579C8.64507 8.46553 8.64535 8.46515 8.6457 8.46466C8.64641 8.4637 8.64744 8.4623 8.64876 8.46049C8.65141 8.45686 8.65528 8.45156 8.66027 8.44467C8.67027 8.4309 8.68479 8.4108 8.7032 8.38505C8.74 8.33358 8.79239 8.25951 8.85516 8.16846C8.98056 7.9866 9.14817 7.73597 9.31617 7.46188C9.48366 7.18864 9.65429 6.88767 9.78385 6.6059C9.90878 6.33422 10.0129 6.04453 10.0129 5.80648H9.51294ZM8.20217 8.38481L8.272 8.63722L8.7539 8.50391L8.68407 8.2515L8.20217 8.38481ZM8.51295 8.57057C8.66709 8.7674 8.66714 8.76735 8.66721 8.7673C8.66723 8.76728 8.6673 8.76723 8.66736 8.76719C8.66747 8.7671 8.6676 8.76699 8.66775 8.76687C8.66806 8.76663 8.66845 8.76633 8.66892 8.76595C8.66986 8.76521 8.67114 8.7642 8.67274 8.76292C8.67593 8.76038 8.68042 8.75678 8.68612 8.75215C8.69752 8.7429 8.71379 8.72953 8.73432 8.71221C8.77538 8.67759 8.83358 8.62712 8.90413 8.56218C9.04506 8.43245 9.2362 8.24415 9.43874 8.00829C9.84078 7.54012 10.3024 6.86766 10.4899 6.0813L10.0036 5.96534C9.84233 6.64158 9.43709 7.24274 9.05942 7.68254C8.8721 7.90067 8.69518 8.07494 8.56551 8.1943C8.50076 8.2539 8.44803 8.29959 8.41197 8.32999C8.39395 8.34519 8.38012 8.35655 8.37106 8.3639C8.36653 8.36758 8.3632 8.37025 8.36113 8.3719C8.3601 8.37272 8.35938 8.37329 8.35899 8.37359C8.3588 8.37375 8.35869 8.37384 8.35866 8.37386C8.35864 8.37387 8.35865 8.37387 8.35867 8.37385C8.35869 8.37384 8.35872 8.37381 8.35873 8.3738C8.35877 8.37377 8.35881 8.37374 8.51295 8.57057ZM10.4899 6.0813C10.6847 5.26418 10.4286 4.58515 10.1348 4.12155C9.98797 3.88983 9.8298 3.70838 9.70822 3.58459C9.64726 3.52251 9.59499 3.47443 9.5572 3.44127C9.53829 3.42467 9.52297 3.41178 9.51194 3.40269C9.50642 3.39815 9.50198 3.39456 9.49869 3.39193C9.49704 3.39062 9.49569 3.38955 9.49464 3.38871C9.49411 3.3883 9.49366 3.38795 9.49328 3.38765C9.4931 3.3875 9.49293 3.38737 9.49278 3.38726C9.4927 3.3872 9.49261 3.38712 9.49257 3.38709C9.49248 3.38702 9.49239 3.38695 9.33899 3.58436C9.18559 3.78176 9.18551 3.7817 9.18544 3.78164C9.18542 3.78163 9.18535 3.78158 9.18531 3.78155C9.18524 3.78149 9.18519 3.78145 9.18515 3.78142C9.18508 3.78137 9.18508 3.78137 9.18516 3.78143C9.18531 3.78155 9.18575 3.7819 9.18648 3.78247C9.18792 3.78363 9.19049 3.7857 9.19409 3.78866C9.2013 3.7946 9.21262 3.80411 9.22739 3.81707C9.25695 3.84301 9.30012 3.88263 9.3515 3.93494C9.45461 4.03993 9.58876 4.19398 9.71245 4.38918C9.95973 4.77941 10.1574 5.31986 10.0036 5.96534L10.4899 6.0813ZM9.36125 3.33535L9.2803 3.32811L9.23578 3.82613L9.31672 3.83336L9.36125 3.33535ZM9.00804 3.2V3.57712H9.50804V3.2H9.00804Z" fill="#FFD018"/>
<path fill-rule="evenodd" clip-rule="evenodd" d="M6.55173 6.89245C6.55173 6.89245 6.70897 6.47024 6.98394 6.61097C7.25891 6.75171 7.2349 7.24166 7.48507 7.06705C7.73525 6.89245 7.59342 6.61097 7.96414 6.61097C8.33487 6.61097 8.28026 7.06705 8.50259 7.06705C8.72492 7.06705 8.74416 6.61097 8.99269 6.61097C9.24122 6.61097 9.49328 6.89245 9.49328 6.89245L8.0225 8.89371L6.55173 6.89245Z" fill="#8FC753"/>
<path fill-rule="evenodd" clip-rule="evenodd" d="M7.94718 1.01474H8.04718V1.12192H8.17001V1.22192H8.04718V1.40394C8.18507 1.42724 8.2903 1.55092 8.2903 1.7C8.2903 1.86569 8.16032 2 7.99998 2C7.83964 2 7.70966 1.86569 7.70966 1.7C7.70966 1.55295 7.81205 1.43061 7.94718 1.40495V1.22192H7.8343V1.12192H7.94718V1.01474Z" fill="#FFD018"/>
<path fill-rule="evenodd" clip-rule="evenodd" d="M6.87338 2.58306C6.73341 2.58306 6.43823 2.76543 6.43823 2.76543L6.66774 3.38552L8.05207 3.32224L9.4364 3.38552L9.66591 2.76543C9.66591 2.76543 9.37074 2.58306 9.23076 2.58306C9.1693 2.58306 9.16149 2.539 9.15274 2.48957C9.14156 2.42644 9.12883 2.35455 9.00075 2.35455C8.91013 2.35455 8.8461 2.37287 8.79426 2.3877C8.71546 2.41024 8.66484 2.42473 8.59184 2.35455C8.58879 2.35163 8.58575 2.34869 8.58269 2.34576C8.46453 2.23204 8.3418 2.11393 8.14326 2.11393C8.10365 2.11393 8.07405 2.15956 8.05207 2.23306C8.0301 2.15956 8.0005 2.11393 7.96088 2.11393C7.76235 2.11393 7.63961 2.23204 7.52145 2.34576C7.5184 2.34869 7.51535 2.35163 7.51231 2.35455C7.43931 2.42473 7.38868 2.41024 7.30989 2.3877C7.25805 2.37287 7.19402 2.35455 7.1034 2.35455C6.97531 2.35455 6.96258 2.42644 6.95141 2.48957C6.94265 2.539 6.93485 2.58306 6.87338 2.58306Z" fill="#E31D1C"/>
<path fill-rule="evenodd" clip-rule="evenodd" d="M7.5 2C7.5 2 7.83332 1.75872 8 1.75872C8.16668 1.75872 8.5 2 8.5 2V4H7.5V2Z" fill="#FFD018"/>
<path fill-rule="evenodd" clip-rule="evenodd" d="M7.80402 1.78424L7.70685 1.81795C7.45007 1.90703 7.22771 1.93641 7.03988 1.90746C6.65316 1.84787 6.14857 2.04908 6.2118 2.34373C6.2395 2.47286 6.32038 2.71675 6.40449 2.92345C6.52119 3.21026 6.60288 3.35494 6.69842 3.35494C6.71079 3.35494 6.84051 3.36202 6.88375 3.36438C6.89153 3.3648 6.89651 3.36508 6.8975 3.36513C7.03802 3.37224 7.16189 3.376 7.28104 3.37545C7.6256 3.37384 7.83917 3.34001 7.91544 3.23663L7.93789 3.20621L7.92723 3.16958C7.83675 2.85844 7.79487 2.43161 7.80252 1.89014L7.80402 1.78424ZM6.35351 2.31126C6.32251 2.16678 6.7172 2.00939 7.01847 2.05582C7.20614 2.08474 7.41879 2.06297 7.6565 1.99145C7.65525 2.47273 7.6945 2.86367 7.77491 3.16502C7.70602 3.20107 7.52498 3.22431 7.28039 3.22545C7.16424 3.22599 7.04276 3.2223 6.9046 3.21531C6.90583 3.21537 6.76228 3.20741 6.71313 3.2054C6.71149 3.20374 6.70957 3.20165 6.70743 3.19916C6.69447 3.18406 6.67827 3.15964 6.66002 3.12732C6.62404 3.0636 6.58203 2.97277 6.5383 2.86531C6.45729 2.66621 6.37906 2.43032 6.35351 2.31126Z" fill="#FFD018"/>
<path fill-rule="evenodd" clip-rule="evenodd" d="M8.22735 1.78424L8.32452 1.81795C8.5813 1.90703 8.80366 1.93641 8.99149 1.90746C9.37821 1.84787 9.8828 2.04908 9.81958 2.34373C9.79187 2.47286 9.71099 2.71675 9.62689 2.92345C9.51018 3.21026 9.4285 3.35494 9.33295 3.35494C9.32059 3.35494 9.19086 3.36202 9.14762 3.36438C9.13984 3.3648 9.13486 3.36508 9.13387 3.36513C8.99335 3.37224 8.86948 3.376 8.75033 3.37545C8.40578 3.37384 8.19221 3.34001 8.11593 3.23663L8.09349 3.20621L8.10414 3.16958C8.19462 2.85844 8.2365 2.43161 8.22885 1.89014L8.22735 1.78424ZM9.67786 2.31126C9.70886 2.16678 9.31417 2.00939 9.01291 2.05582C8.82524 2.08474 8.61258 2.06297 8.37487 1.99145C8.37613 2.47273 8.33688 2.86367 8.25646 3.16502C8.32535 3.20107 8.5064 3.22431 8.75099 3.22545C8.86713 3.22599 8.98861 3.2223 9.12677 3.21531C9.12554 3.21537 9.26909 3.20741 9.31825 3.2054C9.31988 3.20374 9.3218 3.20165 9.32394 3.19916C9.33691 3.18406 9.3531 3.15964 9.37135 3.12732C9.40733 3.0636 9.44935 2.97277 9.49307 2.86531C9.57408 2.66621 9.65231 2.43032 9.67786 2.31126Z" fill="#FFD018"/>
<path d="M3.9786 10.1603L3.60822 9.23142C5.13871 8.62114 6.60306 8.31424 7.99999 8.31424C9.37952 8.31424 10.6818 8.5031 11.9053 8.88149L11.6099 9.83685C10.484 9.48867 9.28127 9.31424 7.99999 9.31424C6.7361 9.31424 5.39607 9.59509 3.9786 10.1603Z" fill="white"/>
<path d="M6.88696 8.94253L6.91734 8.69438C7.45462 8.76015 7.81337 8.79303 7.99412 8.79316C8.26672 8.80541 8.59163 8.78567 8.96832 8.73362L9.00254 8.98127C8.61177 9.03526 8.27205 9.05591 7.98851 9.04303C7.79982 9.04303 7.43433 9.00953 6.88696 8.94253Z" fill="#272727"/>
<path fill-rule="evenodd" clip-rule="evenodd" d="M5.16188 4C5.16188 4 3.77069 5.25531 4.04526 6.48285C4.35717 8.35159 6.22934 9.00414 6.22934 9.00414L7.22114 8.65267C7.22114 8.65267 5.32094 7.56378 5.32094 6.48285C5.32094 5.40192 5.60554 4 5.60554 4H5.16188Z" fill="#006923"/>
<path fill-rule="evenodd" clip-rule="evenodd" d="M11.0592 4C11.0592 4 12.4504 5.25531 12.1759 6.48285C11.864 8.35159 9.99179 9.00414 9.99179 9.00414L8.99999 8.65267C8.99999 8.65267 10.9002 7.56378 10.9002 6.48285C10.9002 5.40192 10.6156 4 10.6156 4H11.0592Z" fill="#009933"/>
</g>
</g>
<rect width="16" height="12" fill="url(#paint0_linear_14655_23371)" style="mix-blend-mode:overlay"/>
</g>
<defs>
<linearGradient id="paint0_linear_14655_23371" x1="8" y1="0" x2="8" y2="12" gradientUnits="userSpaceOnUse">
<stop stop-color="white" stop-opacity="0.7"/>
<stop offset="1" stop-opacity="0.3"/>
</linearGradient>
<clipPath id="clip0_14655_23371">
<rect width="16" height="12" rx="1" fill="white"/>
</clipPath>
</defs>
</svg>
