<svg width="16" height="12" viewBox="0 0 16 12" fill="none" xmlns="http://www.w3.org/2000/svg">
<g clip-path="url(#clip0_14655_23521)">
<mask id="mask0_14655_23521" style="mask-type:alpha" maskUnits="userSpaceOnUse" x="0" y="0" width="16" height="12">
<rect width="16" height="12" fill="white"/>
</mask>
<g mask="url(#mask0_14655_23521)">
<path fill-rule="evenodd" clip-rule="evenodd" d="M0 0V12H16V0H0Z" fill="#E31D1C"/>
<mask id="mask1_14655_23521" style="mask-type:alpha" maskUnits="userSpaceOnUse" x="0" y="0" width="16" height="12">
<path fill-rule="evenodd" clip-rule="evenodd" d="M0 0V12H16V0H0Z" fill="white"/>
</mask>
<g mask="url(#mask1_14655_23521)">
<path fill-rule="evenodd" clip-rule="evenodd" d="M0 6V12H16V6H0Z" fill="#2E42A5"/>
</g>
<path fill-rule="evenodd" clip-rule="evenodd" d="M0 -1V13L10 6L0 -1Z" fill="#F7FCFF"/>
<mask id="mask2_14655_23521" style="mask-type:alpha" maskUnits="userSpaceOnUse" x="0" y="-1" width="10" height="14">
<path fill-rule="evenodd" clip-rule="evenodd" d="M0 -1V13L10 6L0 -1Z" fill="white"/>
</mask>
<g mask="url(#mask2_14655_23521)">
<path fill-rule="evenodd" clip-rule="evenodd" d="M4.06294 4.59441C4.78129 4.59441 5.36364 4.23749 5.36364 3.7972C5.36364 3.35692 4.78129 3 4.06294 3C3.34458 3 2.76224 3.35692 2.76224 3.7972C2.76224 4.23749 3.34458 4.59441 4.06294 4.59441Z" fill="#FBCD17"/>
<path fill-rule="evenodd" clip-rule="evenodd" d="M4.17671 3.19267C4.07052 3.19267 3.99507 3.26108 3.99507 3.36405L3.99517 3.3754C3.98947 3.39256 3.98626 3.41168 3.98569 3.43309C3.98421 3.48787 4.00461 3.53356 4.04742 3.57547C4.05006 3.58757 4.05143 3.5976 4.05104 3.60329C4.04844 3.59435 4.03811 3.58686 4.01843 3.57259C3.99045 3.55231 3.94359 3.51834 3.87322 3.44705C3.77186 3.34439 3.69537 3.3042 3.60029 3.32017C3.57146 3.32501 3.54324 3.33517 3.50937 3.34874C3.45535 3.36819 3.40563 3.3727 3.31383 3.35518C3.05873 3.30648 2.77893 3.35426 2.47601 3.49463L2.58112 3.72146C2.83965 3.60166 3.06773 3.56272 3.26696 3.60074C3.40382 3.62687 3.49885 3.61824 3.59407 3.58395C3.6351 3.56852 3.63869 3.56722 3.6417 3.56672C3.63868 3.56723 3.64061 3.56908 3.65329 3.58127C3.66183 3.58948 3.67525 3.60237 3.69531 3.62269C3.72388 3.65164 3.75376 3.67784 3.78426 3.70167C3.72562 3.71743 3.72866 3.72824 3.73942 3.76662C3.74381 3.78226 3.74947 3.80247 3.75278 3.82946C3.76007 3.88905 3.74796 3.91978 3.7584 3.93449C3.77006 3.95091 3.80979 3.9474 3.93588 3.94178C3.96982 3.94026 4.01571 3.93676 4.06867 3.93175C4.17254 3.92193 4.29008 3.90761 4.36231 3.89577C4.43247 3.88427 4.45112 3.88007 4.48054 3.85866L4.48055 3.85865C4.49072 3.84618 4.49943 3.8355 4.50664 3.826C4.74655 3.79075 4.95989 3.76571 5.14973 3.74843C5.21779 3.74224 5.27249 3.73799 5.32545 3.7341C5.33171 3.73404 5.33171 3.73404 5.36249 3.72761L5.36249 3.72761C5.37595 3.72189 5.38151 3.71952 5.38339 3.71873L5.38337 3.71878C5.38422 3.7184 5.38472 3.71818 5.38339 3.71873L5.44467 3.57359L5.38136 3.49703C5.34364 3.48518 5.33948 3.48387 5.33526 3.48369C5.33474 3.48366 5.33421 3.48366 5.33362 3.48365C5.32868 3.48336 5.32688 3.48325 5.32507 3.4832C5.32404 3.48316 5.32301 3.48315 5.32139 3.48312L5.26406 3.48305C5.22253 3.48305 5.18973 3.47953 5.14234 3.47111L5.09827 3.46301C4.90336 3.42725 4.72259 3.42725 4.3392 3.48441L4.31777 3.46804C4.37952 3.45731 4.45471 3.45003 4.53418 3.44579L4.53419 3.44579C4.58222 3.44356 4.58222 3.44356 4.60904 3.44284L4.62078 3.44256L4.61931 3.19269L4.60034 3.19267H4.17671ZM3.96962 3.91644L3.99353 3.91147L4.01707 3.90645L3.96962 3.91644Z" fill="#DA610A"/>
<path d="M3.96247 4.29037L4.00292 4.297L4.04337 4.29037C4.53988 4.20896 4.86682 4.21847 5.05625 4.28201C5.27447 4.3552 5.51569 4.33448 5.76935 4.24906C5.68884 4.60794 5.64762 4.94714 5.64762 5.26592C5.64762 5.62934 5.71792 5.92291 5.78171 6.18047C5.78342 6.18739 5.78512 6.19426 5.78682 6.20111C5.84933 6.45333 5.90113 6.66235 5.90113 6.90221C5.90113 7.11752 5.82972 7.23061 5.72991 7.30127C5.61433 7.3831 5.42159 7.43523 5.13575 7.43523C4.73275 7.43523 4.35573 7.54376 4.00859 7.7561L4.00292 7.75204L3.99725 7.7561C3.65011 7.54376 3.27309 7.43523 2.87009 7.43523C2.58425 7.43523 2.39151 7.3831 2.27593 7.30127C2.17612 7.23061 2.10471 7.11752 2.10471 6.90221C2.10471 6.66235 2.15651 6.45333 2.21902 6.20111C2.22072 6.19426 2.22242 6.18739 2.22413 6.18047C2.28792 5.92291 2.35822 5.62934 2.35822 5.26592C2.35822 4.94714 2.317 4.60794 2.23649 4.24906C2.49015 4.33448 2.73137 4.3552 2.94959 4.28201C3.13902 4.21847 3.46596 4.20896 3.96247 4.29037Z" fill="#56C6F5" stroke="#E31D1C" stroke-width="0.5"/>
<path fill-rule="evenodd" clip-rule="evenodd" d="M4.39239 5.11209L4.00668 4.76923L3.62097 5.11209H3.73525V5.30975L3.13525 5.68352V6.5978H3.02097V6.76923H3.13525H4.87811H5.02097V6.5978H4.87811V5.68352L4.24954 5.29195V5.11209H4.39239Z" fill="#F7FCFF"/>
<path d="M3.97592 8.51019C4.50644 8.51019 4.87167 8.45228 5.05974 8.35355C5.10904 8.26971 5.19551 8.22238 5.28752 8.22578C5.70075 8.24107 6.02079 8.06699 6.27238 7.68438C6.54422 7.27097 6.59885 6.68374 6.42167 5.91294L6.87148 5.80955C7.07448 6.69271 7.00819 7.40543 6.65801 7.93796C6.34423 8.41515 5.9164 8.67003 5.39426 8.6873C5.12759 8.88477 4.66025 8.97173 3.97592 8.97173C3.3139 8.97173 2.82304 8.84319 2.50822 8.57007C1.79328 8.40117 1.33895 8.11601 1.1603 7.69334C0.969871 7.24278 0.969871 6.6173 1.14751 5.81156L1.59822 5.91093C1.43928 6.63186 1.43928 7.16788 1.58543 7.51366C1.68741 7.75495 1.98373 7.95186 2.48575 8.08838L2.95216 8.18811L2.92977 8.30589C3.1573 8.43888 3.50504 8.51019 3.97592 8.51019Z" fill="#FBCD17"/>
<path d="M2.35699 4.41197L2.61267 4.51482L2.48483 4.7806L2.84242 4.59628L2.81465 4.73274L2.73798 5.10937L2.8845 4.68049V5.05932L2.97402 4.68049L3.23987 4.76067L2.97402 4.59628L3.23987 4.51482" stroke="#73BE4A" stroke-width="0.5" stroke-linecap="round" stroke-linejoin="round"/>
<path fill-rule="evenodd" clip-rule="evenodd" d="M2.84439 4.96853C2.98246 4.96853 3.09439 4.8566 3.09439 4.71853C3.09439 4.58046 2.98246 4.46853 2.84439 4.46853C2.70632 4.46853 2.59439 4.58046 2.59439 4.71853C2.59439 4.8566 2.70632 4.96853 2.84439 4.96853Z" fill="#FBCD17"/>
<path fill-rule="evenodd" clip-rule="evenodd" d="M5.32051 4.93666C5.31642 4.76852 5.29774 4.38461 5.21243 4.38461C5.12662 4.38461 5.11357 4.77302 5.11192 4.93959C4.9642 4.98787 4.853 5.11498 4.853 5.11498H5.58877C5.58877 5.11498 5.47286 4.98249 5.32051 4.93666Z" fill="#F7FCFF"/>
</g>
</g>
<rect width="16" height="12" fill="url(#paint0_linear_14655_23521)" style="mix-blend-mode:overlay"/>
</g>
<defs>
<linearGradient id="paint0_linear_14655_23521" x1="8" y1="0" x2="8" y2="12" gradientUnits="userSpaceOnUse">
<stop stop-color="white" stop-opacity="0.7"/>
<stop offset="1" stop-opacity="0.3"/>
</linearGradient>
<clipPath id="clip0_14655_23521">
<rect width="16" height="12" rx="1" fill="white"/>
</clipPath>
</defs>
</svg>
