<svg width="16" height="12" viewBox="0 0 16 12" fill="none" xmlns="http://www.w3.org/2000/svg">
<g clip-path="url(#clip0_14655_23571)">
<mask id="mask0_14655_23571" style="mask-type:alpha" maskUnits="userSpaceOnUse" x="0" y="0" width="16" height="12">
<rect width="16" height="12" fill="white"/>
</mask>
<g mask="url(#mask0_14655_23571)">
<path fill-rule="evenodd" clip-rule="evenodd" d="M0 0H16V12H0V0Z" fill="#F7FCFF"/>
<path fill-rule="evenodd" clip-rule="evenodd" d="M4.5009 6.93534L3.56556 7.5L3.77891 6.39812L3 5.57347L4.05468 5.52888L4.5009 4.5L4.94711 5.52888H6L5.22289 6.39812L5.45685 7.5L4.5009 6.93534Z" fill="#409100"/>
<path fill-rule="evenodd" clip-rule="evenodd" d="M11.5009 6.93534L10.5656 7.5L10.7789 6.39812L10 5.57347L11.0547 5.52888L11.5009 4.5L11.9471 5.52888H13L12.2229 6.39812L12.4568 7.5L11.5009 6.93534Z" fill="#409100"/>
<path fill-rule="evenodd" clip-rule="evenodd" d="M0 0V4H16V0H0Z" fill="#E31D1C"/>
<path fill-rule="evenodd" clip-rule="evenodd" d="M0 8V12H16V8H0Z" fill="#272727"/>
</g>
<rect width="16" height="12" fill="url(#paint0_linear_14655_23571)" style="mix-blend-mode:overlay"/>
</g>
<defs>
<linearGradient id="paint0_linear_14655_23571" x1="8" y1="0" x2="8" y2="12" gradientUnits="userSpaceOnUse">
<stop stop-color="white" stop-opacity="0.7"/>
<stop offset="1" stop-opacity="0.3"/>
</linearGradient>
<clipPath id="clip0_14655_23571">
<rect width="16" height="12" rx="1" fill="white"/>
</clipPath>
</defs>
</svg>
