<svg width="16" height="12" viewBox="0 0 16 12" fill="none" xmlns="http://www.w3.org/2000/svg">
<g clip-path="url(#clip0_14655_23525)">
<mask id="mask0_14655_23525" style="mask-type:alpha" maskUnits="userSpaceOnUse" x="0" y="0" width="16" height="12">
<rect width="16" height="12" fill="white"/>
</mask>
<g mask="url(#mask0_14655_23525)">
<path fill-rule="evenodd" clip-rule="evenodd" d="M0 0H16V12H0V0Z" fill="#3D58DB"/>
<path d="M0 2.5H-0.5V3V9V9.5H0H16H16.5V9V3V2.5H16H0Z" fill="#C51918" stroke="#FFD018"/>
<path d="M3.57466 4.66551C3.51469 4.66551 3.46606 4.52991 3.46606 4.36264C3.46606 4.19536 3.51469 4.05976 3.57466 4.05976H12.28C12.34 4.05976 12.3886 4.19536 12.3886 4.36264C12.3886 4.52991 12.34 4.66551 12.28 4.66551H3.57466Z" fill="#FFD018"/>
<path fill-rule="evenodd" clip-rule="evenodd" d="M12.0476 4.3011L12.5532 3.6562L13.4476 4.3011L12.5532 4.96295L12.0476 4.3011Z" fill="#F7FCFF"/>
<path d="M3.57466 6.66551C3.51469 6.66551 3.46606 6.52991 3.46606 6.36264C3.46606 6.19536 3.51469 6.05976 3.57466 6.05976H12.28C12.34 6.05976 12.3886 6.19536 12.3886 6.36264C12.3886 6.52991 12.34 6.66551 12.28 6.66551H3.57466Z" fill="#FFD018"/>
<path fill-rule="evenodd" clip-rule="evenodd" d="M12.0476 6.3011L12.5532 5.6562L13.4476 6.3011L12.5532 6.96295L12.0476 6.3011Z" fill="#F7FCFF"/>
<path d="M2.17277 7.91086C2.09235 7.91086 2.02716 7.75689 2.02716 7.56697C2.02716 7.37704 2.09235 7.22308 2.17277 7.22308H13.8449C13.9253 7.22308 13.9905 7.37704 13.9905 7.56697C13.9905 7.75689 13.9253 7.91086 13.8449 7.91086H2.17277Z" fill="#FFD018"/>
<path fill-rule="evenodd" clip-rule="evenodd" d="M4.40866 6.02637C4.40866 6.02637 5.82933 3.03636 7.86129 3.03636C9.89325 3.03636 11.3617 6.02637 11.3617 6.02637C11.3617 6.02637 9.56862 8.97709 7.88518 8.97709C6.20174 8.97709 4.40866 6.02637 4.40866 6.02637Z" fill="#F7FCFF"/>
<mask id="mask1_14655_23525" style="mask-type:alpha" maskUnits="userSpaceOnUse" x="4" y="3" width="8" height="6">
<path fill-rule="evenodd" clip-rule="evenodd" d="M4.40866 6.02637C4.40866 6.02637 5.82933 3.03636 7.86129 3.03636C9.89325 3.03636 11.3617 6.02637 11.3617 6.02637C11.3617 6.02637 9.56862 8.97709 7.88518 8.97709C6.20174 8.97709 4.40866 6.02637 4.40866 6.02637Z" fill="white"/>
</mask>
<g mask="url(#mask1_14655_23525)">
<path fill-rule="evenodd" clip-rule="evenodd" d="M7.96215 2.84007C7.96215 2.84007 7.49852 3.40317 7.65306 3.94013C7.80761 4.47709 8.16768 4.42037 8.16768 4.89325C8.16768 5.36614 8.00134 5.84841 8.16768 5.84841C8.33402 5.84841 8.39166 6.17473 8.23964 6.39596C8.08761 6.61719 7.95314 6.62402 7.96215 6.98407C7.97116 7.34413 8.75817 7.69757 8.37692 7.69757C7.99567 7.69757 7.49319 8.06761 7.65306 8.06761C7.81294 8.06761 8.64937 8.35592 8.64937 8.7343C8.64937 9.11268 8.64937 9.41549 8.64937 9.41549H4.28564V2.84007H7.96215Z" fill="#272727"/>
<path fill-rule="evenodd" clip-rule="evenodd" d="M5.90952 4.96154H5.69232V5.84615H5.90952V4.96154ZM6.55024 4.96154H6.33305V5.84615H6.55024V4.96154ZM6.01268 4.96154H6.22988V5.84615H6.01268V4.96154ZM6.8706 4.96154H6.65341V5.84615H6.8706V4.96154ZM6.97377 4.96154H7.19096V5.84615H6.97377V4.96154ZM7.51133 4.96154H7.29413V5.84615H7.51133V4.96154ZM5.69232 6.23077H5.90952V7.11538H5.69232V6.23077ZM6.55024 6.23077H6.33305V7.11538H6.55024V6.23077ZM6.01268 6.23077H6.22988V7.11538H6.01268V6.23077ZM6.8706 6.23077H6.65341V7.11538H6.8706V6.23077ZM6.97377 6.23077H7.19096V7.11538H6.97377V6.23077ZM7.51133 6.23077H7.29413V7.11538H7.51133V6.23077Z" fill="#F7FCFF"/>
<path fill-rule="evenodd" clip-rule="evenodd" d="M8.48871 4.96154H8.27151V5.84615H8.48871V4.96154ZM9.12943 4.96154H8.91224V5.84615H9.12943V4.96154ZM8.59188 4.96154H8.80907V5.84615H8.59188V4.96154ZM9.4498 4.96154H9.2326V5.84615H9.4498V4.96154ZM9.55296 4.96154H9.77016V5.84615H9.55296V4.96154ZM10.0905 4.96154H9.87332V5.84615H10.0905V4.96154ZM8.27151 6.23077H8.48871V7.11538H8.27151V6.23077ZM9.12943 6.23077H8.91224V7.11538H9.12943V6.23077ZM8.59188 6.23077H8.80907V7.11538H8.59188V6.23077ZM9.4498 6.23077H9.2326V7.11538H9.4498V6.23077ZM9.55296 6.23077H9.77016V7.11538H9.55296V6.23077ZM10.0905 6.23077H9.87332V7.11538H10.0905V6.23077Z" fill="#272727"/>
<path fill-rule="evenodd" clip-rule="evenodd" d="M6.61582 3.53579C6.31157 3.63005 6.17234 4.42796 6.20635 4.62082C6.24036 4.81369 6.34358 4.59662 6.34358 4.59662C6.34358 4.59662 6.55411 5.05417 6.57581 5.17727C6.59752 5.30037 6.70839 4.99119 6.70839 4.99119C6.70839 4.99119 7.07354 5.24275 7.12297 5.52306C7.1724 5.80337 7.24674 5.2023 7.24674 5.2023L7.32945 5.18772L7.27712 4.89091L7.43487 5.0258L7.3862 4.74978C7.3862 4.74978 7.505 4.90504 7.47487 4.73415C7.44473 4.56326 7.42791 4.46785 7.42791 4.46785L7.38673 4.23427L7.54287 4.20674C7.54287 4.20674 6.92007 3.44153 6.61582 3.53579Z" fill="#3D58DB"/>
</g>
<path fill-rule="evenodd" clip-rule="evenodd" d="M13.0441 6.84793C12.7282 6.88793 12.4525 7.64954 12.4525 7.84537C12.4525 8.04121 12.5918 7.84537 12.5918 7.84537C12.5918 7.84537 12.7197 8.33253 12.7197 8.45753C12.7197 8.58253 12.8826 8.2973 12.8826 8.2973C12.8826 8.2973 13.1985 8.60844 13.1985 8.89307C13.1985 9.17771 13.3761 8.59868 13.3761 8.59868H13.4601V8.2973L13.592 8.45753V8.17725C13.592 8.17725 13.6821 8.35078 13.6821 8.17725C13.6821 8.00373 13.6821 7.90685 13.6821 7.90685V7.66967H13.8406C13.8406 7.66967 13.3601 6.80793 13.0441 6.84793Z" fill="#3D58DB"/>
<path fill-rule="evenodd" clip-rule="evenodd" d="M2.79646 6.73254C3.11246 6.77254 3.38812 7.53415 3.38812 7.72999C3.38812 7.92583 3.24877 7.72999 3.24877 7.72999C3.24877 7.72999 3.1209 8.21714 3.1209 8.34214C3.1209 8.46714 2.95803 8.18191 2.95803 8.18191C2.95803 8.18191 2.6421 8.49306 2.6421 8.77769C2.6421 9.06232 2.46452 8.48329 2.46452 8.48329H2.38052V8.18191L2.24859 8.34214V8.06187C2.24859 8.06187 2.15856 8.2354 2.15856 8.06187C2.15856 7.88834 2.15856 7.79146 2.15856 7.79146V7.55428H2.00001C2.00001 7.55428 2.48046 6.69254 2.79646 6.73254Z" fill="#3D58DB"/>
</g>
<rect width="16" height="12" fill="url(#paint0_linear_14655_23525)" style="mix-blend-mode:overlay"/>
</g>
<defs>
<linearGradient id="paint0_linear_14655_23525" x1="8" y1="0" x2="8" y2="12" gradientUnits="userSpaceOnUse">
<stop stop-color="white" stop-opacity="0.7"/>
<stop offset="1" stop-opacity="0.3"/>
</linearGradient>
<clipPath id="clip0_14655_23525">
<rect width="16" height="12" rx="1" fill="white"/>
</clipPath>
</defs>
</svg>
