<svg width="16" height="12" viewBox="0 0 16 12" fill="none" xmlns="http://www.w3.org/2000/svg">
<g clip-path="url(#clip0_14655_23465)">
<mask id="mask0_14655_23465" style="mask-type:alpha" maskUnits="userSpaceOnUse" x="0" y="0" width="16" height="12">
<rect width="16" height="12" fill="white"/>
</mask>
<g mask="url(#mask0_14655_23465)">
<path fill-rule="evenodd" clip-rule="evenodd" d="M0 0V12H16V0H0Z" fill="#2E42A5"/>
<mask id="mask1_14655_23465" style="mask-type:alpha" maskUnits="userSpaceOnUse" x="0" y="0" width="16" height="12">
<path fill-rule="evenodd" clip-rule="evenodd" d="M0 0V12H16V0H0Z" fill="white"/>
</mask>
<g mask="url(#mask1_14655_23465)">
<path fill-rule="evenodd" clip-rule="evenodd" d="M9.39444 3.1H11.3986H11.4144H13.4186L13.0265 3.85201H11.8057V4.25595H12.7416L12.3604 4.95555H11.8057V6.3547L12.7193 4.91506L13.9016 6.96236H13.4186L13.2499 6.7382H12.1797L11.4272 8.12867L11.4274 8.20548L11.4065 8.16689L11.3856 8.20548L11.3858 8.12867L10.6333 6.7382H9.56314L9.39444 6.96236H8.91141L10.0938 4.91506L11.0074 6.3547V3.85201H9.78652L9.39444 3.1ZM12.7428 5.75475L12.4802 6.15861H12.9773L12.7428 5.75475ZM10.0702 5.75475L10.3328 6.15861H9.8357L10.0702 5.75475ZM8.15683 5.30662L8.57235 5.00028L8.98786 5.30662L8.84127 4.79327L9.24467 4.46925L8.73855 4.45832L8.57235 3.95173L8.40614 4.45832L7.90002 4.46925L8.30342 4.79327L8.15683 5.30662ZM14.2277 5.00028L13.8122 5.30662L13.9588 4.79327L13.5554 4.46925L14.0615 4.45832L14.2277 3.95173L14.3939 4.45832L14.9 4.46925L14.4966 4.79327L14.6432 5.30662L14.2277 5.00028ZM12.5397 8.90166L12.9552 8.59532L13.3708 8.90166L13.2242 8.38831L13.6276 8.06429L13.1215 8.05336L12.9552 7.54676L12.789 8.05336L12.2829 8.06429L12.6863 8.38831L12.5397 8.90166ZM9.8448 8.59532L9.42928 8.90166L9.57587 8.38831L9.17248 8.06429L9.67859 8.05336L9.8448 7.54676L10.011 8.05336L10.5171 8.06429L10.1137 8.38831L10.2603 8.90166L9.8448 8.59532ZM10.9845 10.1L11.4 9.79366L11.8155 10.1L11.669 9.58665L12.0723 9.26263L11.5662 9.2517L11.4 8.74511L11.2338 9.2517L10.7277 9.26263L11.1311 9.58665L10.9845 10.1Z" fill="#F7FCFF"/>
<rect x="-0.25" y="-0.25" width="6.5" height="5.5" fill="#2E42A5" stroke="white" stroke-width="0.5"/>
<mask id="mask2_14655_23465" style="mask-type:alpha" maskUnits="userSpaceOnUse" x="-1" y="-1" width="8" height="7">
<rect x="-0.25" y="-0.25" width="6.5" height="5.5" fill="white" stroke="white" stroke-width="0.5"/>
</mask>
<g mask="url(#mask2_14655_23465)">
<path fill-rule="evenodd" clip-rule="evenodd" d="M4 0H6V5H4V0Z" fill="#F50100"/>
<path fill-rule="evenodd" clip-rule="evenodd" d="M0 0H2V5H0V0Z" fill="#2E42A5"/>
<path fill-rule="evenodd" clip-rule="evenodd" d="M2 0H4V5H2V0Z" fill="#F7FCFF"/>
</g>
</g>
</g>
<rect width="16" height="12" fill="url(#paint0_linear_14655_23465)" style="mix-blend-mode:overlay"/>
</g>
<defs>
<linearGradient id="paint0_linear_14655_23465" x1="8" y1="0" x2="8" y2="12" gradientUnits="userSpaceOnUse">
<stop stop-color="white" stop-opacity="0.7"/>
<stop offset="1" stop-opacity="0.3"/>
</linearGradient>
<clipPath id="clip0_14655_23465">
<rect width="16" height="12" rx="1" fill="white"/>
</clipPath>
</defs>
</svg>
