<svg width="16" height="12" viewBox="0 0 16 12" fill="none" xmlns="http://www.w3.org/2000/svg">
<g clip-path="url(#clip0_14655_23534)">
<mask id="mask0_14655_23534" style="mask-type:alpha" maskUnits="userSpaceOnUse" x="0" y="0" width="16" height="12">
<rect width="16" height="12" fill="white"/>
</mask>
<g mask="url(#mask0_14655_23534)">
<path fill-rule="evenodd" clip-rule="evenodd" d="M0 0V12H16V0H0Z" fill="#E31D1C"/>
<mask id="mask1_14655_23534" style="mask-type:alpha" maskUnits="userSpaceOnUse" x="0" y="0" width="16" height="12">
<path fill-rule="evenodd" clip-rule="evenodd" d="M0 0V12H16V0H0Z" fill="white"/>
</mask>
<g mask="url(#mask1_14655_23534)">
<path fill-rule="evenodd" clip-rule="evenodd" d="M8 10C10.2091 10 12 8.20914 12 6C12 3.79086 10.2091 2 8 2C5.79086 2 4 3.79086 4 6C4 8.20914 5.79086 10 8 10Z" fill="#F7FCFF"/>
<path fill-rule="evenodd" clip-rule="evenodd" d="M8.70135 8.82539C8.70135 8.82539 6.59316 8.25021 6.59316 5.98672C6.59316 3.72323 8.70135 3.09876 8.70135 3.09876C7.8296 2.76137 5.27842 3.27905 5.27842 5.98672C5.27842 8.69439 7.90077 9.18203 8.70135 8.82539ZM8.58528 5.49418L7.53936 5.87634L8.6635 6.26928L8.70135 7.32175L9.38549 6.50411L10.5135 6.58418L9.70079 5.92111L10.1903 4.96356L9.23414 5.28538L8.57174 4.45742L8.58528 5.49418Z" fill="#E31D1C"/>
</g>
</g>
<rect width="16" height="12" fill="url(#paint0_linear_14655_23534)" style="mix-blend-mode:overlay"/>
</g>
<defs>
<linearGradient id="paint0_linear_14655_23534" x1="8" y1="0" x2="8" y2="12" gradientUnits="userSpaceOnUse">
<stop stop-color="white" stop-opacity="0.7"/>
<stop offset="1" stop-opacity="0.3"/>
</linearGradient>
<clipPath id="clip0_14655_23534">
<rect width="16" height="12" rx="1" fill="white"/>
</clipPath>
</defs>
</svg>
