<svg width="16" height="12" viewBox="0 0 16 12" fill="none" xmlns="http://www.w3.org/2000/svg">
<g clip-path="url(#clip0_14655_23541)">
<mask id="mask0_14655_23541" style="mask-type:alpha" maskUnits="userSpaceOnUse" x="0" y="0" width="16" height="12">
<rect width="16" height="12" fill="white"/>
</mask>
<g mask="url(#mask0_14655_23541)">
<path fill-rule="evenodd" clip-rule="evenodd" d="M0 0V12H16V0H0Z" fill="#00B4FF"/>
<mask id="mask1_14655_23541" style="mask-type:alpha" maskUnits="userSpaceOnUse" x="0" y="0" width="16" height="12">
<path fill-rule="evenodd" clip-rule="evenodd" d="M0 0V12H16V0H0Z" fill="white"/>
</mask>
<g mask="url(#mask1_14655_23541)">
<rect width="9" height="7" fill="#2E42A5"/>
<mask id="mask2_14655_23541" style="mask-type:alpha" maskUnits="userSpaceOnUse" x="0" y="0" width="9" height="7">
<rect width="9" height="7" fill="white"/>
</mask>
<g mask="url(#mask2_14655_23541)">
<path d="M-1.00214 6.49991L0.978339 7.36851L9.04494 0.944368L10.0896 -0.346397L7.97176 -0.636709L4.68159 2.13164L2.03334 3.99685L-1.00214 6.49991Z" fill="#F7FCFF"/>
<path d="M-0.731018 7.10847L0.277943 7.61253L9.71445 -0.466324H8.29775L-0.731018 7.10847Z" fill="#F50100"/>
<path d="M10.0021 6.49991L8.02166 7.36851L-0.0449371 0.944368L-1.08959 -0.346397L1.02824 -0.636709L4.31841 2.13164L6.96666 3.99685L10.0021 6.49991Z" fill="#F7FCFF"/>
<path d="M9.93457 6.93667L8.92561 7.44073L4.90745 3.98176L3.71615 3.59529L-1.1901 -0.341973H0.226597L5.13009 3.50184L6.43256 3.96525L9.93457 6.93667Z" fill="#F50100"/>
<mask id="path-11-outside-1_14655_23541" maskUnits="userSpaceOnUse" x="-1" y="-1" width="11" height="9" fill="black">
<rect fill="white" x="-1" y="-1" width="11" height="9"/>
<path fill-rule="evenodd" clip-rule="evenodd" d="M4.99226 0H3.99226V3H0V4H3.99226V7H4.99226V4H9V3H4.99226V0Z"/>
</mask>
<path fill-rule="evenodd" clip-rule="evenodd" d="M4.99226 0H3.99226V3H0V4H3.99226V7H4.99226V4H9V3H4.99226V0Z" fill="#F50100"/>
<path d="M3.99226 0V-0.75H3.24226V0H3.99226ZM4.99226 0H5.74226V-0.75H4.99226V0ZM3.99226 3V3.75H4.74226V3H3.99226ZM0 3V2.25H-0.75V3H0ZM0 4H-0.75V4.75H0V4ZM3.99226 4H4.74226V3.25H3.99226V4ZM3.99226 7H3.24226V7.75H3.99226V7ZM4.99226 7V7.75H5.74226V7H4.99226ZM4.99226 4V3.25H4.24226V4H4.99226ZM9 4V4.75H9.75V4H9ZM9 3H9.75V2.25H9V3ZM4.99226 3H4.24226V3.75H4.99226V3ZM3.99226 0.75H4.99226V-0.75H3.99226V0.75ZM4.74226 3V0H3.24226V3H4.74226ZM0 3.75H3.99226V2.25H0V3.75ZM0.75 4V3H-0.75V4H0.75ZM3.99226 3.25H0V4.75H3.99226V3.25ZM4.74226 7V4H3.24226V7H4.74226ZM4.99226 6.25H3.99226V7.75H4.99226V6.25ZM4.24226 4V7H5.74226V4H4.24226ZM9 3.25H4.99226V4.75H9V3.25ZM8.25 3V4H9.75V3H8.25ZM4.99226 3.75H9V2.25H4.99226V3.75ZM4.24226 0V3H5.74226V0H4.24226Z" fill="#F7FCFF" mask="url(#path-11-outside-1_14655_23541)"/>
</g>
<path fill-rule="evenodd" clip-rule="evenodd" d="M13.4284 5.34243L13.732 4.77971L14.398 4.75981L13.8823 4.32911L14.0601 3.74781L13.6156 4.01493L13.0536 3.6741L13.108 4.31993L12.6044 4.62249L13.2581 4.7042L13.4284 5.34243ZM11.732 5.77971L11.4284 6.34243L11.2581 5.7042L10.6044 5.62249L11.108 5.31993L11.0536 4.6741L11.6156 5.01493L12.0601 4.74781L11.8823 5.32911L12.398 5.75981L11.732 5.77971ZM10.4284 7.34243L10.732 6.77971L11.398 6.75981L10.8823 6.32911L11.0601 5.74781L10.6156 6.01493L10.0536 5.6741L10.108 6.31993L9.60442 6.62249L10.2581 6.7042L10.4284 7.34243ZM8.42838 9.34243L8.73198 8.77971L9.39803 8.75981L8.88234 8.32911L9.06013 7.74781L8.61558 8.01493L8.05355 7.6741L8.10797 8.31993L7.60442 8.62249L8.25809 8.7042L8.42838 9.34243ZM6.4871 10.8678L5.93704 11.1938L6.11978 10.559L5.60156 10.1523H6.18901L6.475 9.5707L6.78121 10.1523H7.29984L6.84805 10.559L7.06826 11.1938L6.4871 10.8678ZM8.73198 10.7797L8.42838 11.3424L8.25809 10.7042L7.60442 10.6225L8.10797 10.3199L8.05355 9.6741L8.61558 10.0149L9.06013 9.74781L8.88234 10.3291L9.39803 10.7598L8.73198 10.7797ZM10.732 9.77971L10.4284 10.3424L10.2581 9.7042L9.60442 9.62249L10.108 9.31993L10.0536 8.6741L10.6156 9.01493L11.0601 8.74781L10.8823 9.32911L11.398 9.75981L10.732 9.77971ZM12.732 8.77971L12.4284 9.34243L12.2581 8.7042L11.6044 8.62249L12.108 8.31993L12.0536 7.6741L12.6156 8.01493L13.0601 7.74781L12.8823 8.32911L13.398 8.75981L12.732 8.77971ZM13.4284 8.34243L13.732 7.77971L14.398 7.75981L13.8823 7.32911L14.0601 6.74781L13.6156 7.01493L13.0536 6.6741L13.108 7.31993L12.6044 7.62249L13.2581 7.7042L13.4284 8.34243Z" fill="#FFD018"/>
</g>
</g>
<rect width="16" height="12" fill="url(#paint0_linear_14655_23541)" style="mix-blend-mode:overlay"/>
</g>
<defs>
<linearGradient id="paint0_linear_14655_23541" x1="8" y1="0" x2="8" y2="12" gradientUnits="userSpaceOnUse">
<stop stop-color="white" stop-opacity="0.7"/>
<stop offset="1" stop-opacity="0.3"/>
</linearGradient>
<clipPath id="clip0_14655_23541">
<rect width="16" height="12" rx="1" fill="white"/>
</clipPath>
</defs>
</svg>
