<svg width="16" height="12" viewBox="0 0 16 12" fill="none" xmlns="http://www.w3.org/2000/svg">
<g clip-path="url(#clip0_14655_23373)">
<mask id="mask0_14655_23373" style="mask-type:alpha" maskUnits="userSpaceOnUse" x="0" y="0" width="16" height="12">
<rect width="16" height="12" fill="white"/>
</mask>
<g mask="url(#mask0_14655_23373)">
<path fill-rule="evenodd" clip-rule="evenodd" d="M0 0H16V12H0V0Z" fill="#E31D1C"/>
<path fill-rule="evenodd" clip-rule="evenodd" d="M0 1V2H16V1H0ZM0 3V4H16V3H0ZM0 6V5H16V6H0ZM0 7V8H16V7H0ZM0 10V9H16V10H0ZM0 12V11H16V12H0Z" fill="#F7FCFF"/>
<rect width="9" height="7" fill="#2E42A5"/>
<path fill-rule="evenodd" clip-rule="evenodd" d="M1.04002 2.17378L1.56994 1.80465L1.981 2.10058H1.74826L2.21893 2.51688L2.05996 3.10058H1.81097L1.5692 2.56448L1.36302 3.10058H0.74826L1.21893 3.51688L1.04002 4.17378L1.56994 3.80465L1.981 4.10058H1.74826L2.21893 4.51688L2.05996 5.10058H1.81097L1.5692 4.56448L1.36302 5.10058H0.74826L1.21893 5.51688L1.04002 6.17378L1.56994 5.80465L2.08268 6.17378L1.92326 5.51688L2.33503 5.10058H2.14511L2.56994 4.80465L2.981 5.10058H2.74826L3.21893 5.51688L3.04002 6.17378L3.56994 5.80465L4.08268 6.17378L3.92326 5.51688L4.33503 5.10058H4.14511L4.56994 4.80465L4.981 5.10058H4.74826L5.21893 5.51688L5.04002 6.17378L5.56994 5.80465L6.08268 6.17378L5.92326 5.51688L6.33503 5.10058H6.14511L6.56994 4.80465L6.981 5.10058H6.74826L7.21893 5.51688L7.04002 6.17378L7.56994 5.80465L8.08268 6.17378L7.92326 5.51688L8.33503 5.10058H7.81097L7.5692 4.56448L7.36302 5.10058H7.06491L6.92326 4.51688L7.33503 4.10058H7.1451L7.56994 3.80465L8.08268 4.17378L7.92326 3.51688L8.33503 3.10058H7.81097L7.5692 2.56448L7.36302 3.10058H7.06491L6.92326 2.51688L7.33503 2.10058H7.1451L7.56994 1.80465L8.08268 2.17378L7.92326 1.51688L8.33503 1.10058H7.81097L7.5692 0.564484L7.36302 1.10058H6.74826L7.21893 1.51688L7.05996 2.10058H6.81097L6.5692 1.56448L6.36302 2.10058H6.06491L5.92326 1.51688L6.33503 1.10058H5.81097L5.5692 0.564484L5.36302 1.10058H4.74826L5.21893 1.51688L5.05996 2.10058H4.81097L4.5692 1.56448L4.36302 2.10058H4.06491L3.92326 1.51688L4.33503 1.10058H3.81097L3.5692 0.564484L3.36302 1.10058H2.74826L3.21893 1.51688L3.05996 2.10058H2.81097L2.5692 1.56448L2.36302 2.10058H2.06491L1.92326 1.51688L2.33503 1.10058H1.81097L1.5692 0.564484L1.36302 1.10058H0.74826L1.21893 1.51688L1.04002 2.17378ZM7.05996 4.10058L7.21893 3.51688L6.74826 3.10058H6.981L6.56994 2.80465L6.1451 3.10058H6.33503L5.92326 3.51688L6.06491 4.10058H6.36302L6.5692 3.56448L6.81097 4.10058H7.05996ZM5.981 4.10058L5.56994 3.80465L5.1451 4.10058H5.33503L4.92326 4.51688L5.06491 5.10058H5.36302L5.5692 4.56448L5.81097 5.10058H6.05996L6.21893 4.51688L5.74826 4.10058H5.981ZM4.21893 4.51688L4.05996 5.10058H3.81097L3.5692 4.56448L3.36302 5.10058H3.06491L2.92326 4.51688L3.33503 4.10058H3.1451L3.56994 3.80465L3.981 4.10058H3.74826L4.21893 4.51688ZM4.36302 4.10058H4.06491L3.92326 3.51688L4.33503 3.10058H4.1451L4.56994 2.80465L4.981 3.10058H4.74826L5.21893 3.51688L5.05996 4.10058H4.81097L4.5692 3.56448L4.36302 4.10058ZM3.05996 4.10058L3.21893 3.51688L2.74826 3.10058H2.981L2.56994 2.80465L2.1451 3.10058H2.33503L1.92326 3.51688L2.06491 4.10058H2.36302L2.5692 3.56448L2.81097 4.10058H3.05996ZM6.21893 2.51688L6.05996 3.10058H5.81097L5.5692 2.56448L5.36302 3.10058H5.06491L4.92326 2.51688L5.33503 2.10058H5.1451L5.56994 1.80465L5.981 2.10058H5.74826L6.21893 2.51688ZM3.981 2.10058L3.56994 1.80465L3.1451 2.10058H3.33503L2.92326 2.51688L3.06491 3.10058H3.36302L3.5692 2.56448L3.81097 3.10058H4.05996L4.21893 2.51688L3.74826 2.10058H3.981Z" fill="#F7FCFF"/>
</g>
<rect width="16" height="12" fill="url(#paint0_linear_14655_23373)" style="mix-blend-mode:overlay"/>
</g>
<defs>
<linearGradient id="paint0_linear_14655_23373" x1="8" y1="0" x2="8" y2="12" gradientUnits="userSpaceOnUse">
<stop stop-color="white" stop-opacity="0.7"/>
<stop offset="1" stop-opacity="0.3"/>
</linearGradient>
<clipPath id="clip0_14655_23373">
<rect width="16" height="12" rx="1" fill="white"/>
</clipPath>
</defs>
</svg>
