<svg width="16" height="12" viewBox="0 0 16 12" fill="none" xmlns="http://www.w3.org/2000/svg">
<g clip-path="url(#clip0_14655_23440)">
<mask id="mask0_14655_23440" style="mask-type:alpha" maskUnits="userSpaceOnUse" x="0" y="0" width="16" height="12">
<rect width="16" height="12" fill="white"/>
</mask>
<g mask="url(#mask0_14655_23440)">
<path fill-rule="evenodd" clip-rule="evenodd" d="M0 0H16V12H0V0Z" fill="#F7FCFF"/>
<path fill-rule="evenodd" clip-rule="evenodd" d="M0 0V12H16V0H0Z" fill="#E31D1C"/>
<mask id="mask1_14655_23440" style="mask-type:alpha" maskUnits="userSpaceOnUse" x="0" y="0" width="16" height="12">
<path fill-rule="evenodd" clip-rule="evenodd" d="M0 0V12H16V0H0Z" fill="white"/>
</mask>
<g mask="url(#mask1_14655_23440)">
<path fill-rule="evenodd" clip-rule="evenodd" d="M8.03094 7.98999L5.4555 9.62746L6.31935 6.76094L4.48238 4.88811L7.01497 4.83278L8.13545 2.00287L9.15648 4.87017L11.683 4.91427L9.78438 6.82143L10.671 9.54842L8.03094 7.98999Z" fill="#FFD221"/>
</g>
</g>
<rect width="16" height="12" fill="url(#paint0_linear_14655_23440)" style="mix-blend-mode:overlay"/>
</g>
<defs>
<linearGradient id="paint0_linear_14655_23440" x1="8" y1="0" x2="8" y2="12" gradientUnits="userSpaceOnUse">
<stop stop-color="white" stop-opacity="0.7"/>
<stop offset="1" stop-opacity="0.3"/>
</linearGradient>
<clipPath id="clip0_14655_23440">
<rect width="16" height="12" rx="1" fill="white"/>
</clipPath>
</defs>
</svg>
