<svg width="16" height="12" viewBox="0 0 16 12" fill="none" xmlns="http://www.w3.org/2000/svg">
<g clip-path="url(#clip0_14655_23492)">
<mask id="mask0_14655_23492" style="mask-type:alpha" maskUnits="userSpaceOnUse" x="0" y="0" width="16" height="12">
<rect width="16" height="12" fill="white"/>
</mask>
<g mask="url(#mask0_14655_23492)">
<path fill-rule="evenodd" clip-rule="evenodd" d="M0 0H16V12H0V0Z" fill="#F7FCFF"/>
<path fill-rule="evenodd" clip-rule="evenodd" d="M0 0V4H16V0H0Z" fill="#C51918"/>
<path fill-rule="evenodd" clip-rule="evenodd" d="M0 8V12H16V8H0Z" fill="#5EAA22"/>
<path fill-rule="evenodd" clip-rule="evenodd" d="M0 -1L8.33479 6L0 13V-1Z" fill="#272727"/>
<mask id="path-7-outside-1_14655_23492" maskUnits="userSpaceOnUse" x="-1" y="-4.67747" width="18" height="21" fill="black">
<rect fill="white" x="-1" y="-4.67747" width="18" height="21"/>
<path fill-rule="evenodd" clip-rule="evenodd" d="M0 -1.67747L8.70415 5H16V7H8.58469L0 13.4058V11.1701L7 6L0 0.767251V-1.67747Z"/>
</mask>
<path fill-rule="evenodd" clip-rule="evenodd" d="M0 -1.67747L8.70415 5H16V7H8.58469L0 13.4058V11.1701L7 6L0 0.767251V-1.67747Z" fill="#FFD018"/>
<path d="M8.70415 5L8.09547 5.79342L8.36475 6H8.70415V5ZM0 -1.67747L0.608678 -2.47089L-1 -3.70501V-1.67747H0ZM16 5H17V4H16V5ZM16 7V8H17V7H16ZM8.58469 7V6H8.25272L7.98665 6.19853L8.58469 7ZM0 13.4058H-1V15.3997L0.598041 14.2072L0 13.4058ZM0 11.1701L-0.594107 10.3657L-1 10.6655V11.1701H0ZM7 6L7.59411 6.80438L8.67665 6.00483L7.59874 5.19905L7 6ZM0 0.767251H-1V1.26824L-0.598736 1.5682L0 0.767251ZM9.31283 4.20658L0.608678 -2.47089L-0.608678 -0.884058L8.09547 5.79342L9.31283 4.20658ZM16 4H8.70415V6H16V4ZM17 7V5H15V7H17ZM8.58469 8H16V6H8.58469V8ZM0.598041 14.2072L9.18273 7.80146L7.98665 6.19853L-0.598041 12.6043L0.598041 14.2072ZM-1 11.1701V13.4058H1V11.1701H-1ZM6.40589 5.19561L-0.594107 10.3657L0.594107 11.9745L7.59411 6.80438L6.40589 5.19561ZM-0.598736 1.5682L6.40126 6.80095L7.59874 5.19905L0.598736 -0.0336956L-0.598736 1.5682ZM-1 -1.67747V0.767251H1V-1.67747H-1Z" fill="#272727" mask="url(#path-7-outside-1_14655_23492)"/>
<path d="M2.43684 8.38404L2.43784 7.59386C3.142 7.43851 3.60848 7.23645 3.83554 6.99345C4.39466 6.30437 4.02298 4.68993 2.87429 4.70049C2.3052 4.70049 1.7167 4.97168 1.7167 5.60995C1.7167 6.40267 1.87984 6.74154 2.43784 6.74154C2.99237 6.74154 3.19567 6.77118 3.56094 6.27333L3.95734 6.39581C3.56591 6.9293 3.03829 7.35074 2.43684 7.35074C1.44607 7.35074 0.906891 6.60371 0.906891 5.73975C0.906891 4.67319 1.77273 3.92622 2.8167 3.92622C3.59566 3.92622 4.82773 4.88033 4.82773 5.73975C4.82773 6.59917 4.82773 6.99345 4.15215 7.59386C3.88003 7.83569 3.20581 8.26759 2.43684 8.38404Z" fill="#FFD018"/>
<path fill-rule="evenodd" clip-rule="evenodd" d="M2.49572 4.93992C2.45758 4.92984 2.41849 4.9526 2.40842 4.99074L2.38112 5.09415C2.37975 5.09238 2.37838 5.09061 2.37701 5.08883C2.3529 5.05761 2.30804 5.05185 2.27682 5.07596C2.2456 5.10007 2.23983 5.14493 2.26394 5.17615C2.28049 5.19758 2.29682 5.21876 2.31293 5.23968L2.23061 5.31569C2.20163 5.34245 2.19983 5.38764 2.22659 5.41663C2.25336 5.44561 2.29855 5.44741 2.32753 5.42065L2.40027 5.35348C2.44369 5.41025 2.48531 5.46492 2.52507 5.51744L2.38814 5.59095C2.35338 5.60961 2.34034 5.65291 2.35899 5.68767C2.37765 5.72243 2.42096 5.73548 2.45571 5.71682L2.6121 5.63286C2.64962 5.68284 2.6852 5.73053 2.71878 5.77585L2.531 5.87666C2.49624 5.89532 2.48319 5.93863 2.50185 5.97338C2.52051 6.00814 2.56381 6.02119 2.59857 6.00253L2.80434 5.89206C2.85906 5.96693 2.90704 6.0337 2.948 6.09189L2.81671 6.16238C2.78196 6.18104 2.76891 6.22434 2.78757 6.2591C2.80623 6.29385 2.84953 6.3069 2.88428 6.28824L3.02959 6.21023C3.09003 6.30029 3.12132 6.35432 3.12132 6.36854C3.12132 6.40799 3.1533 6.43997 3.19275 6.43997C3.2322 6.43997 3.26418 6.40799 3.26418 6.36854C3.26418 6.33238 3.22657 6.25634 3.14798 6.13448C3.14911 6.1325 3.15016 6.13047 3.15111 6.12838L3.2568 5.89566C3.27312 5.85974 3.25722 5.8174 3.22131 5.80108C3.18539 5.78477 3.14305 5.80066 3.12673 5.83658L3.05452 5.99557C3.00941 5.93064 2.95675 5.85714 2.89629 5.77463L2.97109 5.60994C2.9874 5.57402 2.97151 5.53168 2.93559 5.51537C2.89967 5.49906 2.85733 5.51495 2.84102 5.55087L2.79909 5.64319L2.72704 5.54704L2.82823 5.32423C2.84455 5.28831 2.82865 5.24597 2.79273 5.22966C2.75682 5.21334 2.71448 5.22924 2.69816 5.26515L2.62899 5.41745C2.58543 5.36013 2.53949 5.30002 2.49114 5.23704L2.54654 5.02721C2.55662 4.98907 2.53386 4.94999 2.49572 4.93992Z" fill="#FFD018"/>
<path fill-rule="evenodd" clip-rule="evenodd" d="M2.97608 4.93992C3.01422 4.92984 3.05331 4.9526 3.06338 4.99074L3.09069 5.09415C3.09205 5.09238 3.09342 5.09061 3.09479 5.08883C3.1189 5.05761 3.16376 5.05185 3.19498 5.07596C3.22621 5.10007 3.23197 5.14493 3.20786 5.17615C3.19131 5.19758 3.17498 5.21876 3.15887 5.23968L3.24119 5.31569C3.27017 5.34245 3.27197 5.38764 3.24521 5.41663C3.21845 5.44561 3.17326 5.44741 3.14427 5.42065L3.07154 5.35348C3.02811 5.41025 2.98649 5.46492 2.94673 5.51744L3.08366 5.59095C3.11842 5.60961 3.13147 5.65291 3.11281 5.68767C3.09415 5.72243 3.05085 5.73548 3.01609 5.71682L2.8597 5.63286C2.82218 5.68284 2.78661 5.73053 2.75302 5.77585L2.9408 5.87666C2.97556 5.89532 2.98861 5.93863 2.96995 5.97338C2.95129 6.00814 2.90799 6.02119 2.87323 6.00253L2.66746 5.89206C2.61274 5.96693 2.56476 6.0337 2.5238 6.09189L2.65509 6.16238C2.68985 6.18104 2.7029 6.22434 2.68424 6.2591C2.66558 6.29385 2.62227 6.3069 2.58752 6.28824L2.44221 6.21023C2.38177 6.30029 2.35048 6.35432 2.35048 6.36854C2.35048 6.40799 2.3185 6.43997 2.27905 6.43997C2.2396 6.43997 2.20762 6.40799 2.20762 6.36854C2.20762 6.33238 2.24523 6.25634 2.32382 6.13448C2.32269 6.1325 2.32164 6.13047 2.32069 6.12838L2.215 5.89566C2.19868 5.85974 2.21458 5.8174 2.2505 5.80108C2.28641 5.78477 2.32876 5.80066 2.34507 5.83658L2.41728 5.99557C2.46239 5.93064 2.51505 5.85714 2.57551 5.77463L2.50071 5.60994C2.4844 5.57402 2.50029 5.53168 2.53621 5.51537C2.57213 5.49906 2.61447 5.51495 2.63078 5.55087L2.67271 5.64319L2.74476 5.54704L2.64357 5.32423C2.62726 5.28831 2.64315 5.24597 2.67907 5.22966C2.71499 5.21334 2.75733 5.22924 2.77364 5.26515L2.84281 5.41745C2.88637 5.36013 2.93231 5.30002 2.98066 5.23704L2.92526 5.02721C2.91519 4.98907 2.93794 4.94999 2.97608 4.93992Z" fill="#FFD018"/>
</g>
<rect width="16" height="12" fill="url(#paint0_linear_14655_23492)" style="mix-blend-mode:overlay"/>
</g>
<defs>
<linearGradient id="paint0_linear_14655_23492" x1="8" y1="0" x2="8" y2="12" gradientUnits="userSpaceOnUse">
<stop stop-color="white" stop-opacity="0.7"/>
<stop offset="1" stop-opacity="0.3"/>
</linearGradient>
<clipPath id="clip0_14655_23492">
<rect width="16" height="12" rx="1" fill="white"/>
</clipPath>
</defs>
</svg>
