<svg width="24" height="24" viewBox="0 0 24 24" fill="none" xmlns="http://www.w3.org/2000/svg">
<path fill-rule="evenodd" clip-rule="evenodd" d="M22 3V21C22 21.5523 21.5523 22 21 22H3C2.44772 22 2 21.5523 2 21V3C2 2.44772 2.44772 2 3 2H21C21.5523 2 22 2.44772 22 3ZM13 9C13 6.79086 11.2091 5 9 5C6.79086 5 5 6.79086 5 9C5 11.2091 6.79086 13 9 13C11.2091 13 13 11.2091 13 9ZM12 13V18C12 18.5523 12.4477 19 13 19H18C18.5523 19 19 18.5523 19 18V13C19 12.4477 18.5523 12 18 12H13C12.4477 12 12 12.4477 12 13Z" fill="#777B92"/>
</svg>
