<svg width="24" height="24" viewBox="0 0 24 24" fill="none" xmlns="http://www.w3.org/2000/svg">
<path fill-rule="evenodd" clip-rule="evenodd" d="M14.7071 4.70711L13.4142 6L15.7071 8.29289C16.0976 8.68342 16.0976 9.31658 15.7071 9.70711C15.3166 10.0976 14.6834 10.0976 14.2929 9.70711L9.29289 4.70711C8.90237 4.31658 8.90237 3.68342 9.29289 3.29289C9.68342 2.90237 10.3166 2.90237 10.7071 3.29289L12 4.58579L13.2929 3.29289C13.6834 2.90237 14.3166 2.90237 14.7071 3.29289C15.0976 3.68342 15.0976 4.31658 14.7071 4.70711Z" fill="#777B92"/>
<path fill-rule="evenodd" clip-rule="evenodd" d="M9.70711 9.70711L4.70711 14.7071C4.31658 15.0976 3.68342 15.0976 3.29289 14.7071C2.90237 14.3166 2.90237 13.6834 3.29289 13.2929L4.58579 12L3.29289 10.7071C2.90237 10.3166 2.90237 9.68342 3.29289 9.29289C3.68342 8.90237 4.31658 8.90237 4.70711 9.29289L6 10.5858L8.29289 8.29289C8.68342 7.90237 9.31658 7.90237 9.70711 8.29289C10.0976 8.68342 10.0976 9.31658 9.70711 9.70711Z" fill="#777B92"/>
<path fill-rule="evenodd" clip-rule="evenodd" d="M19.4142 12L20.7071 13.2929C21.0976 13.6834 21.0976 14.3166 20.7071 14.7071C20.3166 15.0976 19.6834 15.0976 19.2929 14.7071L18 13.4142L15.7071 15.7071C15.3166 16.0976 14.6834 16.0976 14.2929 15.7071C13.9024 15.3166 13.9024 14.6834 14.2929 14.2929L19.2929 9.29289C19.6834 8.90237 20.3166 8.90237 20.7071 9.29289C21.0976 9.68342 21.0976 10.3166 20.7071 10.7071L19.4142 12Z" fill="#777B92"/>
<path fill-rule="evenodd" clip-rule="evenodd" d="M8.70711 13.2929L14.7071 19.2929C15.0976 19.6834 15.0976 20.3166 14.7071 20.7071C14.3166 21.0976 13.6834 21.0976 13.2929 20.7071L12 19.4142L10.7071 20.7071C10.3166 21.0976 9.68342 21.0976 9.29289 20.7071C8.90237 20.3166 8.90237 19.6834 9.29289 19.2929L10.5858 18L7.29289 14.7071C6.90237 14.3166 6.90237 13.6834 7.29289 13.2929C7.68342 12.9024 8.31658 12.9024 8.70711 13.2929Z" fill="#777B92"/>
</svg>
