<svg width="22" height="22" viewBox="0 0 22 22" fill="none" xmlns="http://www.w3.org/2000/svg">
<path d="M16.7888 2.32672C16.3531 1.89109 15.6469 1.89109 15.2112 2.32672L12.3267 5.21124C11.8911 5.64686 11.8911 6.35314 12.3267 6.78876L15.2112 9.67328C15.6469 10.1089 16.3531 10.1089 16.7888 9.67328L19.6733 6.78876C20.1089 6.35314 20.1089 5.64686 19.6733 5.21124L16.7888 2.32672Z" fill="#97A3BA"/>
<path d="M2 9C2 9.55229 2.44772 10 3 10H9C9.55228 10 10 9.55229 10 9V3C10 2.44772 9.55228 2 9 2H3C2.44772 2 2 2.44772 2 3V9Z" fill="#97A3BA"/>
<path d="M2 19C2 19.5523 2.44772 20 3 20H9C9.55228 20 10 19.5523 10 19V13C10 12.4477 9.55228 12 9 12H3C2.44772 12 2 12.4477 2 13V19Z" fill="#97A3BA"/>
<path d="M13 20C12.4477 20 12 19.5523 12 19V13C12 12.4477 12.4477 12 13 12H19C19.5523 12 20 12.4477 20 13V19C20 19.5523 19.5523 20 19 20H13Z" fill="#97A3BA"/>
</svg>
