<svg width="22" height="22" viewBox="0 0 22 22" fill="none" xmlns="http://www.w3.org/2000/svg">
<path d="M6 5C5.44772 5 5 5.44771 5 6V16C5 16.5523 5.44771 17 6 17H16C16.5523 17 17 16.5523 17 16V6C17 5.44772 16.5523 5 16 5H6Z" fill="#97A3BA"/>
<path fill-rule="evenodd" clip-rule="evenodd" d="M1 4C1 2.34315 2.34315 1 4 1H18C19.6569 1 21 2.34315 21 4V18C21 19.6569 19.6569 21 18 21H4C2.34315 21 1 19.6569 1 18V4ZM4 3C3.44772 3 3 3.44772 3 4V18C3 18.5523 3.44772 19 4 19H18C18.5523 19 19 18.5523 19 18V4C19 3.44772 18.5523 3 18 3H4Z" fill="#97A3BA"/>
</svg>
