<svg width="24" height="24" viewBox="0 0 24 24" fill="none" xmlns="http://www.w3.org/2000/svg">
<path fill-rule="evenodd" clip-rule="evenodd" d="M9 1C11.7614 1 14 3.23858 14 6V18C14 20.7614 11.7614 23 9 23C6.23858 23 4 20.7614 4 18V16C4 15.4477 4.44772 15 5 15C5.55228 15 6 15.4477 6 16V18C6 19.6569 7.34315 21 9 21C10.6569 21 12 19.6569 12 18V6C12 4.34315 10.6569 3 9 3C7.34315 3 6 4.34315 6 6V8C6 8.55228 5.55228 9 5 9C4.44772 9 4 8.55228 4 8V6C4 3.23858 6.23858 1 9 1Z" fill="#777B92"/>
<path fill-rule="evenodd" clip-rule="evenodd" d="M18.4453 8.16806C18.9048 7.8617 19.5257 7.98588 19.8321 8.44541L21.8321 11.4454C22.056 11.7813 22.056 12.2189 21.8321 12.5548L19.8321 15.5548C19.5257 16.0143 18.9048 16.1385 18.4453 15.8322C17.9858 15.5258 17.8616 14.9049 18.1679 14.4454L19.1315 13.0001H16C15.4477 13.0001 15 12.5524 15 12.0001C15 11.4478 15.4477 11.0001 16 11.0001H19.1315L18.1679 9.55481C17.8616 9.09528 17.9858 8.47441 18.4453 8.16806Z" fill="#777B92"/>
<path fill-rule="evenodd" clip-rule="evenodd" d="M2 12C2 11.4477 2.44772 11 3 11H9C9.55228 11 10 11.4477 10 12C10 12.5523 9.55228 13 9 13H3C2.44772 13 2 12.5523 2 12Z" fill="#777B92"/>
</svg>
