<svg width="22" height="22" viewBox="0 0 22 22" fill="none" xmlns="http://www.w3.org/2000/svg">
<path d="M9.49801 2.92878C10.1169 1.6904 11.8831 1.69041 12.502 2.92878L14.8205 7.56841C15.3788 8.68557 14.5669 10 13.3186 10H8.68144C7.4331 10 6.62118 8.68557 7.17945 7.56841L9.49801 2.92878Z" fill="#97A3BA"/>
<path d="M2 13C2 12.4477 2.44772 12 3 12H9C9.55228 12 10 12.4477 10 13V19C10 19.5523 9.55228 20 9 20H3C2.44772 20 2 19.5523 2 19V13Z" fill="#97A3BA"/>
<path d="M16 20C18.2091 20 20 18.2091 20 16C20 13.7909 18.2091 12 16 12C13.7909 12 12 13.7909 12 16C12 18.2091 13.7909 20 16 20Z" fill="#97A3BA"/>
</svg>
