<svg width="24" height="24" viewBox="0 0 24 24" fill="none" xmlns="http://www.w3.org/2000/svg">
<path fill-rule="evenodd" clip-rule="evenodd" d="M3 1H16C16.5523 1 17 1.44772 17 2C17 2.55228 16.5523 3 16 3L3 3V16C3 16.5523 2.55228 17 2 17C1.44772 17 1 16.5523 1 16V3C1 1.89543 1.89543 1 3 1Z" fill="#777B92"/>
<path fill-rule="evenodd" clip-rule="evenodd" d="M4 6C4 4.89543 4.89543 4 6 4H19C19.5523 4 20 4.44772 20 5C20 5.55228 19.5523 6 19 6L6 6V19C6 19.5523 5.55228 20 5 20C4.44772 20 4 19.5523 4 19V6Z" fill="#777B92"/>
<path fill-rule="evenodd" clip-rule="evenodd" d="M7 9C7 7.89543 7.89543 7 9 7H21C22.1046 7 23 7.89543 23 9V21C23 22.1046 22.1046 23 21 23H9C7.89543 23 7 22.1046 7 21V9ZM21 9H9V21H21V9Z" fill="#777B92"/>
</svg>
