<svg width="22" height="22" viewBox="0 0 22 22" fill="none" xmlns="http://www.w3.org/2000/svg">
<path d="M19.51 6.02605C19.2287 5.71361 18.9456 5.43164 18.56 5.2464L12.16 2.24773C11.8057 2.08452 11.4201 2 11.03 2C10.6399 2 10.2543 2.08452 9.9 2.24773L3.5 5.2464C3.15017 5.41817 2.56943 5.82634 2.37 6.17598C2.13144 6.55303 2.00326 6.98932 2 7.43543V14.4923C2.00134 14.9691 2.13964 15.4354 2.39847 15.8359C2.65729 16.2363 3.02574 16.5541 3.46 16.7513L9.86 19.75C10.2157 19.9147 10.603 20 10.995 20C11.387 20 11.7743 19.9147 12.13 19.75L18.53 16.7513C18.9631 16.557 19.3315 16.243 19.592 15.8463C19.8524 15.4496 19.994 14.9867 20 14.5123V7.43543C19.9936 6.90735 19.8076 6.44253 19.51 6.02605ZM10.71 4.03693C10.8015 3.99732 10.9002 3.97689 11 3.97689C11.0998 3.97689 11.1985 3.99732 11.29 4.03693L16.62 6.51583L11 9.12468L5.38 6.51583L10.71 4.03693Z" fill="#97A3BA"/>
</svg>
