<svg width="22" height="22" viewBox="0 0 22 22" fill="none" xmlns="http://www.w3.org/2000/svg">
<path d="M2 9C2 9.55229 2.44772 10 3 10H9C9.55228 10 10 9.55229 10 9V3C10 2.44772 9.55228 2 9 2H3C2.44772 2 2 2.44772 2 3V9Z" fill="#97A3BA"/>
<path d="M4.5 12.9288C5.11885 11.6904 6.88513 11.6904 7.50398 12.9288L9.82254 17.5684C10.3808 18.6856 9.56889 20 8.32055 20H3.68343C2.43509 20 1.62317 18.6856 2.18144 17.5684L4.5 12.9288Z" fill="#97A3BA"/>
<path d="M20 6C20 3.79086 18.2091 2 16 2C13.7909 2 12 3.79086 12 6C12 8.20914 13.7909 10 16 10C18.2091 10 20 8.20914 20 6Z" fill="#97A3BA"/>
<path d="M15 13C15 12.4477 15.4477 12 16 12C16.5523 12 17 12.4477 17 13V15H19C19.5523 15 20 15.4477 20 16C20 16.5523 19.5523 17 19 17H17V19C17 19.5523 16.5523 20 16 20C15.4477 20 15 19.5523 15 19V17H13C12.4477 17 12 16.5523 12 16C12 15.4477 12.4477 15 13 15H15V13Z" fill="#97A3BA"/>
</svg>
