<svg width="22" height="22" viewBox="0 0 22 22" fill="none" xmlns="http://www.w3.org/2000/svg">
<path d="M9 8C8.44772 8 8 8.44772 8 9V13C8 13.5523 8.44772 14 9 14H13C13.5523 14 14 13.5523 14 13V9C14 8.44772 13.5523 8 13 8H9Z" fill="#97A3BA"/>
<path fill-rule="evenodd" clip-rule="evenodd" d="M5.4 1C2.96995 1 1 2.96995 1 5.4V16.6C1 19.0301 2.96995 21 5.4 21H16.6C19.0301 21 21 19.0301 21 16.6V5.4C21 2.96995 19.0301 1 16.6 1H5.4ZM5 5.4C5 5.17909 5.17909 5 5.4 5H16.6C16.8209 5 17 5.17909 17 5.4V16.6C17 16.8209 16.8209 17 16.6 17H5.4C5.17909 17 5 16.8209 5 16.6V5.4Z" fill="#97A3BA"/>
</svg>
