<svg width="22" height="22" viewBox="0 0 22 22" fill="none" xmlns="http://www.w3.org/2000/svg">
<path fill-rule="evenodd" clip-rule="evenodd" d="M8.68707 1.95805L1.95805 8.68707C0.680653 9.96447 0.680649 12.0355 1.95805 13.3129L8.68707 20.042C9.96447 21.3193 12.0355 21.3194 13.3129 20.042L20.042 13.3129C21.3193 12.0355 21.3194 9.96447 20.042 8.68707L13.3129 1.95805C12.0355 0.680653 9.96447 0.680649 8.68707 1.95805ZM11.8987 3.37226C11.4024 2.87591 10.5976 2.87591 10.1013 3.37226L3.37226 10.1013C2.87591 10.5976 2.87591 11.4024 3.37226 11.8987L10.1013 18.6277C10.5976 19.1241 11.4024 19.1241 11.8987 18.6277L18.6277 11.8987C19.1241 11.4024 19.1241 10.5976 18.6277 10.1013L11.8987 3.37226Z" fill="#97A3BA"/>
</svg>
