<svg width="24" height="24" viewBox="0 0 24 24" fill="none" xmlns="http://www.w3.org/2000/svg">
<path fill-rule="evenodd" clip-rule="evenodd" d="M10.5859 1.99985C11.3669 1.2188 12.6333 1.2188 13.4143 1.99985L19.0001 7.58564C19.7811 8.36669 19.7811 9.63302 19.0001 10.4141L13.4143 15.9999C12.6333 16.7809 11.3669 16.7809 10.5859 15.9998L5.00009 10.4141C4.21904 9.63301 4.21905 8.36668 5.00009 7.58564L10.5859 1.99985Z" fill="#777B92"/>
<path fill-rule="evenodd" clip-rule="evenodd" d="M3.29289 12.2929C3.68342 11.9024 4.31658 11.9024 4.70711 12.2929L12 19.5858L19.2929 12.2929C19.6834 11.9024 20.3166 11.9024 20.7071 12.2929C21.0976 12.6834 21.0976 13.3166 20.7071 13.7071L13.4142 21C12.6332 21.781 11.3668 21.781 10.5858 21L3.29289 13.7071C2.90237 13.3166 2.90237 12.6834 3.29289 12.2929Z" fill="#777B92"/>
</svg>
