<svg width="24" height="24" viewBox="0 0 24 24" fill="none" xmlns="http://www.w3.org/2000/svg">
<path fill-rule="evenodd" clip-rule="evenodd" d="M10.6714 2.18096C11.4291 1.50739 12.5711 1.50739 13.3288 2.18096L19.3184 7.50505C20.2135 8.30063 20.2135 9.69911 19.3184 10.4947L16.8493 12.6895C16.4536 13.0412 15.8522 13.0236 15.4778 12.6492L8.4239 5.59524C8.01705 5.18839 8.0366 4.52298 8.46664 4.14072L10.6714 2.18096Z" fill="#777B92"/>
<path fill-rule="evenodd" clip-rule="evenodd" d="M12.2936 15.1218C12.7343 15.5625 12.6393 16.319 12.016 16.3239C11.5358 16.3277 11.0545 16.1593 10.6714 15.8188L4.68177 10.4947C4.0337 9.91863 3.85488 9.02647 4.14532 8.27598C4.33665 7.78158 4.97218 7.80038 5.34703 8.17523L12.2936 15.1218Z" fill="#777B92"/>
<path fill-rule="evenodd" clip-rule="evenodd" d="M3.29289 3.29289C3.68342 2.90237 4.31658 2.90237 4.70711 3.29289L20.7071 19.2929C21.0976 19.6834 21.0976 20.3166 20.7071 20.7071C20.3166 21.0976 19.6834 21.0976 19.2929 20.7071L3.29289 4.70711C2.90237 4.31658 2.90237 3.68342 3.29289 3.29289Z" fill="#777B92"/>
<path fill-rule="evenodd" clip-rule="evenodd" d="M3.24744 13.3415C3.61112 12.9259 4.24288 12.8838 4.65852 13.2474L12 19.6712L13.6272 18.2474C14.0429 17.8838 14.6746 17.9259 15.0383 18.3415C15.402 18.7571 15.3599 19.3889 14.9442 19.7526L13.317 21.1764C12.563 21.8362 11.4371 21.8362 10.683 21.1764L3.34151 14.7526C2.92587 14.3889 2.88376 13.7571 3.24744 13.3415Z" fill="#777B92"/>
<path fill-rule="evenodd" clip-rule="evenodd" d="M20.7526 13.3415C21.1163 13.7571 21.0742 14.3889 20.6585 14.7526L19.6585 15.6276C19.2429 15.9913 18.6111 15.9492 18.2474 15.5335C17.8838 15.1179 17.9259 14.4861 18.3415 14.1224L19.3415 13.2474C19.7571 12.8838 20.3889 12.9259 20.7526 13.3415Z" fill="#777B92"/>
</svg>
