<svg width="22" height="22" viewBox="0 0 22 22" fill="none" xmlns="http://www.w3.org/2000/svg">
<path fill-rule="evenodd" clip-rule="evenodd" d="M11.9713 1.25915C11.3672 0.913617 10.6328 0.913618 10.0287 1.25915L3.02871 5.26332C2.39378 5.62652 2 6.3156 2 7.06347V14.9365C2 15.6844 2.39378 16.3735 3.02871 16.7367L10.0287 20.7409C10.6328 21.0864 11.3672 21.0864 11.9713 20.7409L18.9713 16.7367C19.6062 16.3735 20 15.6844 20 14.9365V7.06347C20 6.3156 19.6062 5.62652 18.9713 5.26332L11.9713 1.25915ZM17 11C17 14.3137 14.3137 17 11 17C7.68629 17 5 14.3137 5 11C5 7.68629 7.68629 5 11 5C14.3137 5 17 7.68629 17 11Z" fill="#97A3BA"/>
</svg>
