<svg width="24" height="24" viewBox="0 0 24 24" fill="none" xmlns="http://www.w3.org/2000/svg">
<path fill-rule="evenodd" clip-rule="evenodd" d="M3 5C3 3.89543 3.89543 3 5 3H9C10.1046 3 11 3.89543 11 5V9C11 10.1046 10.1046 11 9 11H5C3.89543 11 3 10.1046 3 9V5Z" fill="#777B92"/>
<path fill-rule="evenodd" clip-rule="evenodd" d="M7 13C7.37877 13 7.72504 13.214 7.89443 13.5528L10.8944 19.5528C11.0494 19.8628 11.0329 20.2309 10.8507 20.5257C10.6684 20.8205 10.3466 21 10 21H4C3.65342 21 3.33156 20.8205 3.14935 20.5257C2.96714 20.2309 2.95058 19.8628 3.10557 19.5528L6.10557 13.5528C6.27497 13.214 6.62123 13 7 13Z" fill="#777B92"/>
<path fill-rule="evenodd" clip-rule="evenodd" d="M18 14V16H20C20.5523 16 21 16.4477 21 17C21 17.5523 20.5523 18 20 18H18V20C18 20.5523 17.5523 21 17 21C16.4477 21 16 20.5523 16 20V18H14C13.4477 18 13 17.5523 13 17C13 16.4477 13.4477 16 14 16H16V14C16 13.4477 16.4477 13 17 13C17.5523 13 18 13.4477 18 14Z" fill="#777B92"/>
<path fill-rule="evenodd" clip-rule="evenodd" d="M13 7C13 4.79086 14.7909 3 17 3C19.2091 3 21 4.79086 21 7C21 9.20914 19.2091 11 17 11C14.7909 11 13 9.20914 13 7Z" fill="#777B92"/>
</svg>
