<svg width="22" height="22" viewBox="0 0 22 22" fill="none" xmlns="http://www.w3.org/2000/svg">
<path fill-rule="evenodd" clip-rule="evenodd" d="M14 1.00049C15.6568 1.00049 17 2.34363 17 4.00049V14.0005C17 15.6573 15.6568 17.0005 14 17.0005H3.99999C2.34314 17.0005 0.999994 15.6573 0.999994 14.0005V4.00049C0.999994 2.34363 2.34314 1.00049 3.99999 1.00049H14Z" fill="#97A3BA"/>
<path d="M19 5.0005C20.1652 5.41234 21 6.52358 21 7.8298V18.0007C21 19.6575 19.6569 21.0007 18 21.0007H7.82929C6.52308 21.0007 5.41184 20.1659 5 19.0007H18C18.5523 19.0007 19 18.553 19 18.0007V5.0005Z" fill="#97A3BA"/>
</svg>
