<svg width="22" height="22" viewBox="0 0 22 22" fill="none" xmlns="http://www.w3.org/2000/svg">
<path fill-rule="evenodd" clip-rule="evenodd" d="M10.9995 3C10.9801 3 10.9647 3.00566 10.9524 3.0145L2.02083 9.44937C2.01389 9.45437 2.01009 9.45867 2.00769 9.46199C2.00501 9.4657 2.003 9.46971 2.00169 9.47376C2.00039 9.47781 1.99999 9.4812 2 9.48369C2 9.48369 2.00022 9.48851 2.00183 9.49329L5.19621 18.9615C5.20063 18.9746 5.22109 19 5.26232 19H16.7464C16.7877 19 16.8081 18.9746 16.8125 18.9615L19.9982 9.494C19.9998 9.48923 20 9.48441 20 9.48441C20 9.48192 19.9996 9.47853 19.9983 9.47449C19.997 9.47044 19.995 9.46643 19.9923 9.46272C19.9899 9.4594 19.9861 9.4551 19.9792 9.45011L11.0466 3.0145C11.0343 3.00566 11.0189 3 10.9995 3ZM12.2157 1.39179C11.4906 0.869402 10.5083 0.869402 9.78327 1.39179L0.851723 7.82666C0.122357 8.35214 -0.179096 9.2853 0.10678 10.1326L3.30116 19.6009C3.5831 20.4366 4.37289 21 5.26232 21H16.7464C17.6364 21 18.4266 20.4358 18.7081 19.5993L21.8937 10.1318C22.1787 9.28483 21.8772 8.35253 21.1483 7.8274L12.2157 1.39179Z" fill="#97A3BA"/>
</svg>
