<svg width="22" height="22" viewBox="0 0 22 22" fill="none" xmlns="http://www.w3.org/2000/svg">
<path fill-rule="evenodd" clip-rule="evenodd" d="M14.5954 2.95988C14.4427 2.76898 14.289 2.5967 14.0796 2.48352L10.6049 0.651359C10.4125 0.551638 10.2032 0.5 9.99134 0.5C9.77951 0.5 9.5702 0.551638 9.37782 0.651359L5.90303 2.48352C5.71309 2.58847 5.39779 2.83786 5.28951 3.05149C5.15998 3.28186 5.0904 3.54843 5.08862 3.821V8.13268C5.08935 8.42398 5.16444 8.70891 5.30497 8.9536C5.44549 9.19828 5.64554 9.39241 5.88131 9.51291L9.3561 11.3451C9.54922 11.4457 9.7595 11.4978 9.97233 11.4978C10.1852 11.4978 10.3955 11.4457 10.5886 11.3451L14.0634 9.51291C14.2985 9.39417 14.4985 9.20232 14.6399 8.95994C14.7813 8.71757 14.8582 8.43478 14.8615 8.14489V3.821C14.858 3.49835 14.757 3.21435 14.5954 2.95988ZM9.8176 1.74455C9.8673 1.72035 9.92089 1.70786 9.97505 1.70786C10.0292 1.70786 10.0828 1.72035 10.1325 1.74455L13.0264 3.25913L9.97505 4.85311L6.92375 3.25913L9.8176 1.74455ZM6.33738 8.42583C6.29011 8.40521 6.24937 8.36922 6.22036 8.32244C6.19135 8.27567 6.17538 8.22024 6.1745 8.16322V4.21186L9.43211 5.91577V10.0198L6.33738 8.42583ZM13.6073 8.42583L10.518 10.0198V5.91577L13.7756 4.21186V8.14489C13.7768 8.20556 13.7613 8.26516 13.7312 8.31548C13.701 8.3658 13.6577 8.40435 13.6073 8.42583Z" fill="#7887A5"/>
<path fill-rule="evenodd" clip-rule="evenodd" d="M9.50681 11.9618C9.35407 11.7709 9.2004 11.5987 8.99102 11.4855L5.51623 9.65331C5.32385 9.55359 5.11454 9.50195 4.90271 9.50195C4.69089 9.50195 4.48158 9.55359 4.2892 9.65331L0.814404 11.4855C0.624469 11.5904 0.309166 11.8398 0.200886 12.0534C0.0713616 12.2838 0.00177243 12.5504 0 12.8229V17.1346C0.000726444 17.4259 0.0758176 17.7109 0.216343 17.9555C0.356868 18.2002 0.556913 18.3944 0.792687 18.5149L4.26748 20.347C4.46059 20.4477 4.67088 20.4998 4.88371 20.4998C5.09655 20.4998 5.30683 20.4477 5.49994 20.347L8.97474 18.5149C9.20986 18.3961 9.40991 18.2043 9.55131 17.9619C9.69272 17.7195 9.76958 17.4367 9.77285 17.1468V12.8229C9.76938 12.5003 9.6684 12.2163 9.50681 11.9618ZM4.72897 10.7465C4.77868 10.7223 4.83226 10.7098 4.88643 10.7098C4.94059 10.7098 4.99417 10.7223 5.04388 10.7465L7.93773 12.2611L4.88643 13.8551L1.83512 12.2611L4.72897 10.7465ZM1.24875 17.4278C1.20148 17.4072 1.16074 17.3712 1.13173 17.3244C1.10272 17.2776 1.08676 17.2222 1.08587 17.1652V13.2138L4.34349 14.9177V19.0218L1.24875 17.4278ZM8.51867 17.4278L5.42936 19.0218V14.9177L8.68698 13.2138V17.1468C8.68822 17.2075 8.6727 17.2671 8.64255 17.3174C8.61241 17.3677 8.56912 17.4063 8.51867 17.4278Z" fill="#7887A5"/>
<path fill-rule="evenodd" clip-rule="evenodd" d="M19.2176 11.4855C19.427 11.5987 19.5806 11.7709 19.7334 11.9618C19.895 12.2163 19.9959 12.5003 19.9994 12.8229V17.1468C19.9961 17.4367 19.9193 17.7195 19.7779 17.9619C19.6365 18.2043 19.4364 18.3961 19.2013 18.5149L15.7265 20.347C15.5334 20.4477 15.3231 20.4998 15.1103 20.4998C14.8974 20.4998 14.6872 20.4477 14.494 20.347L11.0192 18.5149C10.7835 18.3944 10.5834 18.2002 10.4429 17.9555C10.3024 17.7109 10.2273 17.4259 10.2266 17.1346V12.8229C10.2283 12.5504 10.2979 12.2838 10.4274 12.0534C10.5357 11.8398 10.851 11.5904 11.041 11.4855L14.5158 9.65331C14.7081 9.55359 14.9174 9.50195 15.1293 9.50195C15.3411 9.50195 15.5504 9.55359 15.7428 9.65331L19.2176 11.4855ZM15.113 10.7098C15.0588 10.7098 15.0052 10.7223 14.9555 10.7465L12.0617 12.2611L15.113 13.8551L18.1643 12.2611L15.2704 10.7465C15.2207 10.7223 15.1671 10.7098 15.113 10.7098ZM11.3583 17.3244C11.3873 17.3712 11.428 17.4072 11.4753 17.4278L14.5701 19.0218V14.9177L11.3124 13.2138V17.1652C11.3133 17.2222 11.3293 17.2776 11.3583 17.3244ZM15.6559 19.0218L18.7452 17.4278C18.7957 17.4063 18.839 17.3677 18.8691 17.3174C18.8993 17.2671 18.9148 17.2075 18.9135 17.1468V13.2138L15.6559 14.9177V19.0218Z" fill="#7887A5"/>
</svg>
