<svg width="22" height="22" viewBox="0 0 22 22" fill="none" xmlns="http://www.w3.org/2000/svg">
<path fill-rule="evenodd" clip-rule="evenodd" d="M11 3.00764L4.02216 6.99914C4.02107 7 4.01734 7.00337 4.01272 7.01147C4.00583 7.02353 4 7.04117 4 7.06347V14.9365C4 14.9588 4.00583 14.9765 4.01272 14.9885C4.01734 14.9966 4.02106 15 4.02216 15.0009L11 18.9924L17.9778 15.0009L17.9782 15.0006C17.9774 15.0011 17.9773 15.0013 17.9778 15.0009C17.9789 15 17.9827 14.9966 17.9873 14.9885C17.9942 14.9765 18 14.9588 18 14.9365V7.06347C18 7.04117 17.9942 7.02353 17.9873 7.01147C17.9827 7.00337 17.9789 7 17.9778 6.99914L17.9782 6.99936C17.9776 6.99903 17.9774 6.99886 17.9775 6.99892C17.9776 6.99895 17.9777 6.99902 17.9778 6.99914L11 3.00764ZM11.9713 1.25915C11.3672 0.913617 10.6328 0.913618 10.0287 1.25915L3.02871 5.26332C2.39378 5.62652 2 6.3156 2 7.06347V14.9365C2 15.6844 2.39378 16.3735 3.02871 16.7367L10.0287 20.7409C10.6328 21.0864 11.3672 21.0864 11.9713 20.7409L18.9713 16.7367C19.6062 16.3735 20 15.6844 20 14.9365V7.06347C20 6.3156 19.6062 5.62652 18.9713 5.26332L11.9713 1.25915Z" fill="#97A3BA"/>
</svg>
