<svg width="22" height="22" viewBox="0 0 22 22" fill="none" xmlns="http://www.w3.org/2000/svg">
<path d="M17 4.00049C17 2.34363 15.6569 1.00049 14 1.00049H4C2.34315 1.00049 1 2.34363 1 4.00049V14.0005C1 15.6573 2.34315 17.0005 4 17.0005H14C15.6569 17.0005 17 15.6573 17 14.0005V4.00049Z" fill="#97A3BA"/>
<path d="M20 12C20.5523 12 21 11.5523 21 11C21 10.4477 20.5523 10 20 10C19.4477 10 19 10.4477 19 11C19 11.5523 19.4477 12 20 12Z" fill="#97A3BA"/>
<path d="M21 8C21 8.55228 20.5523 9 20 9C19.4477 9 19 8.55228 19 8C19 7.44772 19.4477 7 20 7C20.5523 7 21 7.44772 21 8Z" fill="#97A3BA"/>
<path d="M20 6C20.5523 6 21 5.55228 21 5C21 4.44772 20.5523 4 20 4C19.4477 4 19 4.44772 19 5C19 5.55228 19.4477 6 20 6Z" fill="#97A3BA"/>
<path d="M21 14C21 14.5523 20.5523 15 20 15C19.4477 15 19 14.5523 19 14C19 13.4477 19.4477 13 20 13C20.5523 13 21 13.4477 21 14Z" fill="#97A3BA"/>
<path d="M20 18C20.5523 18 21 17.5523 21 17C21 16.4477 20.5523 16 20 16C19.4477 16 19 16.4477 19 17C19 17.5523 19.4477 18 20 18Z" fill="#97A3BA"/>
<path d="M21 20C21 20.5523 20.5523 21 20 21C19.4477 21 19 20.5523 19 20C19 19.4477 19.4477 19 20 19C20.5523 19 21 19.4477 21 20Z" fill="#97A3BA"/>
<path d="M17 21C17.5523 21 18 20.5523 18 20C18 19.4477 17.5523 19 17 19C16.4477 19 16 19.4477 16 20C16 20.5523 16.4477 21 17 21Z" fill="#97A3BA"/>
<path d="M15 20C15 20.5523 14.5523 21 14 21C13.4477 21 13 20.5523 13 20C13 19.4477 13.4477 19 14 19C14.5523 19 15 19.4477 15 20Z" fill="#97A3BA"/>
<path d="M11 21C11.5523 21 12 20.5523 12 20C12 19.4477 11.5523 19 11 19C10.4477 19 10 19.4477 10 20C10 20.5523 10.4477 21 11 21Z" fill="#97A3BA"/>
<path d="M9 20C9 20.5523 8.55228 21 8 21C7.44772 21 7 20.5523 7 20C7 19.4477 7.44772 19 8 19C8.55228 19 9 19.4477 9 20Z" fill="#97A3BA"/>
<path d="M5 21C5.55228 21 6 20.5523 6 20C6 19.4477 5.55228 19 5 19C4.44772 19 4 19.4477 4 20C4 20.5523 4.44772 21 5 21Z" fill="#97A3BA"/>
</svg>
