<svg width="24" height="24" viewBox="0 0 24 24" fill="none" xmlns="http://www.w3.org/2000/svg">
<path fill-rule="evenodd" clip-rule="evenodd" d="M12 3C12.3788 3 12.725 3.214 12.8944 3.55279L15.8944 9.55279C16.0494 9.86277 16.0329 10.2309 15.8507 10.5257C15.6684 10.8205 15.3466 11 15 11H9C8.65342 11 8.33156 10.8205 8.14935 10.5257C7.96714 10.2309 7.95058 9.86277 8.10557 9.55279L11.1056 3.55279C11.275 3.214 11.6212 3 12 3Z" fill="#777B92"/>
<path fill-rule="evenodd" clip-rule="evenodd" d="M5 13H9C10.1046 13 11 13.8954 11 15V19C11 20.1046 10.1046 21 9 21H5C3.89543 21 3 20.1046 3 19V15C3 13.8954 3.89543 13 5 13Z" fill="#777B92"/>
<path fill-rule="evenodd" clip-rule="evenodd" d="M13 17C13 14.7909 14.7909 13 17 13C19.2091 13 21 14.7909 21 17C21 19.2091 19.2091 21 17 21C14.7909 21 13 19.2091 13 17Z" fill="#777B92"/>
</svg>
