<svg width="22" height="22" viewBox="0 0 22 22" fill="none" xmlns="http://www.w3.org/2000/svg">
<path fill-rule="evenodd" clip-rule="evenodd" d="M9 22C7.34315 22 6 20.6569 6 19V9C6 7.34315 7.34315 6 9 6H19C20.6569 6 22 7.34315 22 9V19C22 20.6569 20.6569 22 19 22H9ZM8 19C8 19.5523 8.44772 20 9 20H19C19.5523 20 20 19.5523 20 19V9C20 8.44772 19.5523 8 19 8H9C8.44772 8 8 8.44771 8 9V19Z" fill="#97A3BA"/>
<path d="M5 19C3.83481 18.5882 3 17.4769 3 16.1707V6C3 4.34315 4.34315 3 6 3H16.1707C17.4769 3 18.5882 3.83481 19 5H6C5.44772 5 5 5.44772 5 6V19Z" fill="#97A3BA"/>
<path d="M2 16C0.834808 15.5882 0 14.4769 0 13.1707V2.99979C0 1.34294 1.34315 -0.000205994 3 -0.000205994H13.1707C14.4769 -0.000205994 15.5882 0.834602 16 1.99979H3C2.44772 1.99979 2 2.44751 2 2.99979V16Z" fill="#97A3BA"/>
</svg>
