<svg width="29" height="29" viewBox="0 0 29 29" fill="none" xmlns="http://www.w3.org/2000/svg">
<path fill-rule="evenodd" clip-rule="evenodd" d="M18.498 11.9288C19.1169 10.6904 20.8831 10.6904 21.502 11.9288L23.8205 16.5684C24.3788 17.6856 23.5669 19 22.3186 19H17.6814C16.4331 19 15.6212 17.6856 16.1795 16.5684L18.498 11.9288ZM20 13.8024L18.4931 16.8179H21.5069L20 13.8024Z" fill="#97A3BA"/>
<path fill-rule="evenodd" clip-rule="evenodd" d="M11 23C11 21.8954 11.8954 21 13 21H17C18.1046 21 19 21.8954 19 23V27C19 28.1046 18.1046 29 17 29H13C11.8954 29 11 28.1046 11 27V23ZM17 23H13V27H17V23Z" fill="#97A3BA"/>
<path fill-rule="evenodd" clip-rule="evenodd" d="M25 21C22.7909 21 21 22.7909 21 25C21 27.2091 22.7909 29 25 29C27.2091 29 29 27.2091 29 25C29 22.7909 27.2091 21 25 21ZM23 25C23 23.8954 23.8954 23 25 23C26.1046 23 27 23.8954 27 25C27 26.1046 26.1046 27 25 27C23.8954 27 23 26.1046 23 25Z" fill="#97A3BA"/>
</svg>
