<svg width="22" height="22" viewBox="0 0 22 22" fill="none" xmlns="http://www.w3.org/2000/svg">
<path d="M15.4176 12.1614L18.3274 9.63289C19.2236 8.85413 19.2236 7.48523 18.3274 6.70648L12.33 1.49499C11.5712 0.835656 10.4278 0.835656 9.66905 1.49499L7.03773 3.7815L15.4176 12.1614Z" fill="#97A3BA"/>
<path d="M3.55602 6.81518C2.77728 7.60734 2.81583 8.8892 3.67166 9.63289L10.9995 16.0005L11.9315 15.1906L3.55602 6.81518Z" fill="#97A3BA"/>
<path d="M13.529 16.7872L11 19L3.00002 12L3 13.0924C2.99999 13.6692 3.24895 14.2178 3.68299 14.5976L11 21.0001L14.5957 17.8538L13.529 16.7872Z" fill="#97A3BA"/>
<path d="M18.0705 14.8133L18.317 14.5976C18.7511 14.2178 19 13.6692 19 13.0925V12L17.0038 13.7467L18.0705 14.8133Z" fill="#97A3BA"/>
<path d="M3.71315 2.29442L19.7044 18.2856C19.798 18.3785 19.8724 18.4891 19.9231 18.6109C19.9739 18.7327 20 18.8633 20 18.9952C20 19.1272 19.9739 19.2578 19.9231 19.3796C19.8724 19.5014 19.798 19.6119 19.7044 19.7049C19.6115 19.7985 19.5009 19.8729 19.3791 19.9236C19.2573 19.9744 19.1267 20.0005 18.9948 20.0005C18.8628 20.0005 18.7322 19.9744 18.6104 19.9236C18.4886 19.8729 18.3781 19.7985 18.2851 19.7049L2.29393 3.71364C2.10573 3.52544 2 3.27018 2 3.00403C2 2.73787 2.10573 2.48262 2.29393 2.29442C2.38712 2.20123 2.49775 2.12731 2.6195 2.07688C2.74126 2.02645 2.87175 2.00049 3.00354 2.00049C3.13533 2.00049 3.26582 2.02645 3.38758 2.07688C3.50933 2.12731 3.61996 2.20123 3.71315 2.29442Z" fill="#97A3BA"/>
</svg>
