<svg width="24" height="24" viewBox="0 0 24 24" fill="none" xmlns="http://www.w3.org/2000/svg">
<path fill-rule="evenodd" clip-rule="evenodd" d="M11.3292 3.77652C11.7515 3.56538 12.2485 3.56538 12.6708 3.77652L15.6708 5.27652C16.179 5.53061 16.5 6.05001 16.5 6.61816V9.3821C16.5 9.95025 16.179 10.4696 15.6708 10.7237L12.6708 12.2237C12.2485 12.4349 11.7515 12.4349 11.3292 12.2237L8.32918 10.7237C7.821 10.4696 7.5 9.95025 7.5 9.3821V6.61816C7.5 6.05001 7.821 5.53061 8.32918 5.27652L11.3292 3.77652ZM12.2236 4.67095C12.0828 4.60057 11.9172 4.60057 11.7764 4.67095L8.8801 6.1191L11.9999 7.45614L15.1198 6.11904L12.2236 4.67095ZM15.5 7.04406L12.4999 8.32983V11.1912L15.2236 9.82931C15.393 9.74461 15.5 9.57148 15.5 9.3821V7.04406ZM11.4999 11.1911V8.32983L8.5 7.04416V9.3821C8.5 9.57148 8.607 9.74461 8.77639 9.82931L11.4999 11.1911Z" fill="#777B92"/>
<path fill-rule="evenodd" clip-rule="evenodd" d="M6.32918 11.7765C6.75147 11.5654 7.24853 11.5654 7.67082 11.7765L10.6708 13.2765C11.179 13.5306 11.5 14.05 11.5 14.6182V17.3821C11.5 17.9503 11.179 18.4696 10.6708 18.7237L7.67082 20.2237C7.24853 20.4349 6.75147 20.4349 6.32918 20.2237L3.32918 18.7237C2.821 18.4696 2.5 17.9503 2.5 17.3821V14.6182C2.5 14.05 2.821 13.5306 3.32918 13.2765L6.32918 11.7765ZM7.22361 12.671C7.08284 12.6006 6.91716 12.6006 6.77639 12.6709L3.8801 14.1191L6.99988 15.4561L10.1198 14.119L7.22361 12.671ZM3.5 17.3821C3.5 17.5715 3.607 17.7446 3.77639 17.8293L6.49988 19.1911V16.3298L3.5 15.0442V17.3821ZM10.2236 17.8293C10.393 17.7446 10.5 17.5715 10.5 17.3821V15.0441L7.49988 16.3298V19.1912L10.2236 17.8293Z" fill="#777B92"/>
<path fill-rule="evenodd" clip-rule="evenodd" d="M17.6708 11.7765L20.6708 13.2765C21.179 13.5306 21.5 14.05 21.5 14.6182V17.3821C21.5 17.9503 21.179 18.4696 20.6708 18.7237L17.6708 20.2237C17.2485 20.4349 16.7515 20.4349 16.3292 20.2237L13.3292 18.7237C12.821 18.4696 12.5 17.9503 12.5 17.3821V14.6182C12.5 14.05 12.821 13.5306 13.3292 13.2765L16.3292 11.7765C16.7515 11.5654 17.2485 11.5654 17.6708 11.7765ZM16.7764 12.6709L13.8801 14.1191L16.9999 15.4561L20.1198 14.119L17.2236 12.671C17.0828 12.6006 16.9172 12.6006 16.7764 12.6709ZM13.5 15.0442V17.3821C13.5 17.5715 13.607 17.7446 13.7764 17.8293L16.4999 19.1911V16.3298L13.5 15.0442ZM17.4999 19.1912L20.2236 17.8293C20.393 17.7446 20.5 17.5715 20.5 17.3821V15.0441L17.4999 16.3298V19.1912Z" fill="#777B92"/>
</svg>
