<svg width="24" height="24" viewBox="0 0 24 24" fill="none" xmlns="http://www.w3.org/2000/svg">
<path fill-rule="evenodd" clip-rule="evenodd" d="M12 3C12.3788 3 12.725 3.214 12.8944 3.55279L15.8944 9.55279C16.0494 9.86277 16.0329 10.2309 15.8507 10.5257C15.6684 10.8205 15.3466 11 15 11H9C8.65342 11 8.33156 10.8205 8.14935 10.5257C7.96714 10.2309 7.95058 9.86277 8.10557 9.55279L11.1056 3.55279C11.275 3.214 11.6212 3 12 3ZM10.618 9H13.382L12 6.23607L10.618 9Z" fill="#777B92"/>
<path fill-rule="evenodd" clip-rule="evenodd" d="M3 14C3 13.4477 3.44772 13 4 13H10C10.5523 13 11 13.4477 11 14V20C11 20.5523 10.5523 21 10 21H4C3.44772 21 3 20.5523 3 20V14ZM5 15V19H9V15H5Z" fill="#777B92"/>
<path fill-rule="evenodd" clip-rule="evenodd" d="M17 13C19.2091 13 21 14.7909 21 17C21 19.2091 19.2091 21 17 21C14.7909 21 13 19.2091 13 17C13 14.7909 14.7909 13 17 13ZM15 17C15 18.1046 15.8954 19 17 19C18.1046 19 19 18.1046 19 17C19 15.8954 18.1046 15 17 15C15.8954 15 15 15.8954 15 17Z" fill="#777B92"/>
</svg>
