<svg width="24" height="24" viewBox="0 0 24 24" fill="none" xmlns="http://www.w3.org/2000/svg">
<path fill-rule="evenodd" clip-rule="evenodd" d="M5.93207 2.63756C5.77563 2.23531 5.37878 1.97881 4.94777 2.00138C4.51676 2.02395 4.14886 2.3205 4.0353 2.73689L1.0353 13.7369C0.924241 14.1441 1.08082 14.5772 1.4266 14.8192L11.4266 21.8192C11.7709 22.0603 12.2292 22.0603 12.5735 21.8192L22.5735 14.8192C22.9193 14.5772 23.0759 14.1441 22.9648 13.7369L19.9648 2.73689C19.8513 2.3205 19.4834 2.02395 19.0524 2.00138C18.6213 1.97881 18.2245 2.23531 18.0681 2.63756L15.5938 9.00001H8.40635L5.93207 2.63756ZM6.26044 9.00001L5.16703 6.18838L4.40022 9.00001H6.26044ZM3.85477 11L3.14996 13.5843L9.87351 18.2908L7.03822 11H4.00006H3.85477ZM9.18413 11L12.0001 18.241L14.816 11H9.18413ZM16.9619 11L14.1266 18.2908L20.8502 13.5843L20.1454 11H20.0001H16.9619ZM19.5999 9.00001L18.8331 6.18838L17.7397 9.00001H19.5999Z" fill="#777B92"/>
</svg>
