<svg width="24" height="24" viewBox="0 0 24 24" fill="none" xmlns="http://www.w3.org/2000/svg">
<path fill-rule="evenodd" clip-rule="evenodd" d="M12 4C8.68629 4 6 6.68629 6 10H8V8C8 6.89543 8.89543 6 10 6H14C15.1046 6 16 6.89543 16 8V10H18C18 6.68629 15.3137 4 12 4ZM14 10V8H10V10H14ZM9 12H6.38169C6.79131 13.1638 7.49869 14.3785 8.34596 15.5452C9.64352 17.3321 11.1499 18.8465 12 19.6481C12.8501 18.8465 14.3565 17.3321 15.654 15.5452C16.5013 14.3785 17.2087 13.1638 17.6183 12H15H9ZM4 10C4 5.58172 7.58172 2 12 2C16.4183 2 20 5.58172 20 10C20 12.3688 18.6738 14.7905 17.2723 16.7204C15.8438 18.6877 14.2016 20.3247 13.3182 21.1539C12.5738 21.8525 11.4262 21.8525 10.6818 21.1539C9.79835 20.3247 8.15624 18.6877 6.72765 16.7204C5.32618 14.7905 4 12.3688 4 10Z" fill="#777B92"/>
</svg>
