<svg width="24" height="24" viewBox="0 0 24 24" fill="none" xmlns="http://www.w3.org/2000/svg">
<path fill-rule="evenodd" clip-rule="evenodd" d="M11 5C11 4.44772 11.4477 4 12 4C12.5523 4 13 4.44772 13 5V13.5C13 13.5041 13 13.5082 13.0001 13.5123C12.9923 13.8653 13.1721 14.2115 13.4993 14.4008C14.3986 14.921 15 15.8909 15 17C15 18.6569 13.6569 20 12 20C10.3431 20 9 18.6569 9 17C9 15.8909 9.60141 14.921 10.5007 14.4008C10.8279 14.2115 11.0077 13.8653 10.9999 13.5123C11 13.5082 11 13.5041 11 13.5V5ZM9 12.9998V5C9 3.34315 10.3431 2 12 2C13.6569 2 15 3.34315 15 5V12.9998C16.213 13.9109 17 15.3631 17 17C17 19.7615 14.7614 22 12 22C9.23858 22 7 19.7615 7 17C7 15.3631 7.78702 13.9109 9 12.9998Z" fill="#777B92"/>
</svg>
