<svg width="24" height="24" viewBox="0 0 24 24" fill="none" xmlns="http://www.w3.org/2000/svg">
<path fill-rule="evenodd" clip-rule="evenodd" d="M14 5C14 4.44772 14.4477 4 15 4C15.5523 4 16 4.44772 16 5V13.5L16.0001 13.5123C15.9923 13.8653 16.1721 14.2115 16.4993 14.4008C17.3986 14.921 18 15.8909 18 17C18 18.6569 16.6569 20 15 20C13.3431 20 12 18.6569 12 17C12 15.8909 12.6014 14.921 13.5007 14.4008C13.8279 14.2115 14.0077 13.8653 13.9999 13.5123L14 13.5V5ZM12 12.9998V5C12 3.34315 13.3431 2 15 2C16.6569 2 18 3.34315 18 5V12.9998C19.213 13.9109 20 15.3631 20 17C20 19.7615 17.7614 22 15 22C12.2386 22 10 19.7615 10 17C10 15.3631 10.787 13.9109 12 12.9998ZM4 6C4 5.44772 4.44772 5 5 5H6V4C6 3.44772 6.44772 3 7 3C7.55228 3 8 3.44772 8 4V5H9C9.55228 5 10 5.44772 10 6C10 6.55228 9.55228 7 9 7H8V8C8 8.55228 7.55228 9 7 9C6.44772 9 6 8.55228 6 8V7H5C4.44772 7 4 6.55228 4 6Z" fill="#777B92"/>
</svg>
