<svg width="24" height="24" viewBox="0 0 24 24" fill="none" xmlns="http://www.w3.org/2000/svg">
<path fill-rule="evenodd" clip-rule="evenodd" d="M15 4C14.4477 4 14 4.44772 14 5V13.5L13.9999 13.5123C14.0077 13.8653 13.8279 14.2115 13.5007 14.4008C12.6014 14.921 12 15.8909 12 17C12 18.6569 13.3431 20 15 20C16.6569 20 18 18.6569 18 17C18 15.8909 17.3986 14.921 16.4993 14.4008C16.1721 14.2115 15.9923 13.8653 16.0001 13.5123L16 13.5V5C16 4.44772 15.5523 4 15 4ZM12 5V12.9998C10.787 13.9109 10 15.3631 10 17C10 19.7615 12.2386 22 15 22C17.7614 22 20 19.7615 20 17C20 15.3631 19.213 13.9109 18 12.9998V5C18 3.34315 16.6569 2 15 2C13.3431 2 12 3.34315 12 5ZM5 5C4.44772 5 4 5.44772 4 6C4 6.55228 4.44772 7 5 7H9C9.55228 7 10 6.55228 10 6C10 5.44772 9.55228 5 9 5H5Z" fill="#777B92"/>
</svg>
