<svg width="24" height="24" viewBox="0 0 24 24" fill="none" xmlns="http://www.w3.org/2000/svg">
<path fill-rule="evenodd" clip-rule="evenodd" d="M18 7.99973V15.9997C18 17.6478 16.1185 18.5886 14.8 17.5997L9.46669 13.5997C9.27761 13.4579 9.12205 13.291 9 13.1078V17C9 17.5523 8.55228 18 8 18C7.44772 18 7 17.5523 7 17V7C7 6.44772 7.44772 6 8 6C8.55228 6 9 6.44772 9 7L9 10.8917C9.12205 10.7085 9.27761 10.5415 9.46669 10.3997L14.8 6.39972C16.1185 5.41087 18 6.35163 18 7.99973ZM10.6667 11.9997L16 15.9997V7.99972L10.6667 11.9997Z" fill="#777B92"/>
</svg>
