<svg width="22" height="22" viewBox="0 0 22 22" fill="none" xmlns="http://www.w3.org/2000/svg">
<path d="M3 11C3 10.0584 3.9856 9 5.6 9C6.17296 9 6.8693 9.25635 7.58501 9.65441C8.06767 9.92286 8.68693 9.81473 9 9.35975C9.31307 8.90478 9.20079 8.27695 8.7229 8.00012C7.79918 7.46504 6.69278 7 5.6 7C3.23795 7 1 8.62789 1 11C1 13.3721 3.23795 15 5.6 15C7.14156 15 8.71817 14.0731 9.78124 13.3137C10.6405 12.7 11.3796 11.9766 12.1679 11.2811C12.4685 11.0158 12.8912 10.6637 13.3812 10.3137C14.4182 9.57307 15.5416 9 16.4 9C18.0144 9 19 10.0584 19 11C19 11.9416 18.0144 13 16.4 13C15.827 13 15.1307 12.7436 14.415 12.3456C13.9323 12.0771 13.3131 12.1853 13 12.6402C12.6869 13.0952 12.7992 13.7231 13.2771 13.9999C14.2008 14.535 15.3072 15 16.4 15C18.7621 15 21 13.3721 21 11C21 8.62789 18.7621 7 16.4 7C14.8584 7 13.2818 7.92693 12.2188 8.68627C11.6588 9.08627 11.1815 9.48415 10.8446 9.78141C10.1081 10.4313 9.42141 11.1129 8.61876 11.6863C7.58183 12.4269 6.45844 13 5.6 13C3.9856 13 3 11.9416 3 11Z" fill="#97A3BA"/>
</svg>
