<svg width="22" height="22" viewBox="0 0 22 22" fill="none" xmlns="http://www.w3.org/2000/svg">
<path d="M6.00004 6.79117C6.00397 6.45331 6.10507 6.12373 6.29126 5.84179C6.47745 5.55984 6.74087 5.33745 7.05004 5.20117C7.40578 5.03314 7.80157 4.96842 8.19231 5.01438C8.58305 5.06035 8.95301 5.21516 9.26004 5.46117L14.36 9.67117C14.56 9.83038 14.7215 10.0327 14.8326 10.2629C14.9436 10.4932 15.0012 10.7455 15.0012 11.0012C15.0012 11.2568 14.9436 11.5091 14.8326 11.7394C14.7215 11.9697 14.56 12.172 14.36 12.3312L9.26004 16.5412C8.89242 16.8393 8.43335 17.0017 7.96004 17.0012C7.64601 16.9993 7.33591 16.9312 7.05004 16.8012C6.74087 16.6649 6.47745 16.4425 6.29126 16.1606C6.10507 15.8786 6.00397 15.549 6.00004 15.2112V6.79117ZM8.00004 15.0012L12.82 11.0012L8.00004 7.09117V15.0012Z" fill="#97A3BA"/>
</svg>
