<svg width="22" height="22" viewBox="0 0 22 22" fill="none" xmlns="http://www.w3.org/2000/svg">
<path d="M7 5.00098C7.26522 5.00098 7.51957 5.10633 7.70711 5.29387C7.89464 5.48141 8 5.73576 8 6.00098V9.82117L13.79 5.46117C14.097 5.21516 14.467 5.06035 14.8577 5.01438C15.2485 4.96842 15.6443 5.03314 16 5.20117C16.2998 5.34471 16.5529 5.57023 16.7298 5.85161C16.9068 6.133 17.0005 6.45875 17 6.79117V15.2112C17.0005 15.5436 16.9068 15.8693 16.7298 16.1507C16.5529 16.4321 16.2998 16.6576 16 16.8012C15.7141 16.9312 15.404 16.9993 15.09 17.0012C14.6167 17.0017 14.1576 16.8393 13.79 16.5412L8 12.1812V16.001C8 16.2662 7.89464 16.5205 7.70711 16.7081C7.51957 16.8956 7.26522 17.001 7 17.001C6.73478 17.001 6.48043 16.8956 6.29289 16.7081C6.10536 16.5205 6 16.2662 6 16.001V6.00098C6 5.73576 6.10536 5.48141 6.29289 5.29387C6.48043 5.10633 6.73478 5.00098 7 5.00098ZM15.05 14.9112V7.00117L9.5 11.0012L15.05 14.9112Z" fill="#97A3BA"/>
</svg>
