<svg width="22" height="22" viewBox="0 0 22 22" fill="none" xmlns="http://www.w3.org/2000/svg">
<path d="M17.9512 5.20019C17.5954 5.03216 17.1996 4.96744 16.8089 5.01341C16.4182 5.05938 16.0482 5.21419 15.7412 5.46019L11.0012 9.38019V6.79019C10.9972 6.45234 10.8961 6.12276 10.71 5.84081C10.5238 5.55886 10.2604 5.33647 9.95118 5.20019C9.59544 5.03216 9.19965 4.96744 8.80891 5.01341C8.41818 5.05938 8.04821 5.21419 7.74118 5.46019L2.64118 9.67019C2.44119 9.82941 2.27967 10.0317 2.16866 10.2619C2.05765 10.4922 2 10.7446 2 11.0002C2 11.2558 2.05765 11.5082 2.16866 11.7384C2.27967 11.9687 2.44119 12.171 2.64118 12.3302L7.74118 16.5402C8.1088 16.8383 8.56787 17.0008 9.04118 17.0002C9.35521 16.9983 9.66531 16.9302 9.95118 16.8002C10.2604 16.6639 10.5238 16.4415 10.71 16.1596C10.8961 15.8776 10.9972 15.548 11.0012 15.2102V12.6202L15.7412 16.5402C16.1088 16.8383 16.5679 17.0008 17.0412 17.0002C17.3552 16.9983 17.6653 16.9302 17.9512 16.8002C18.2604 16.6639 18.5238 16.4415 18.71 16.1596C18.8961 15.8776 18.9972 15.548 19.0012 15.2102V6.79019C18.9972 6.45234 18.8961 6.12276 18.71 5.84081C18.5238 5.55886 18.2604 5.33647 17.9512 5.20019ZM9.00118 15.0002L4.18118 11.0002L9.00118 7.09019V15.0002ZM17.0012 15.0002L12.1812 11.0002L17.0012 7.09019V15.0002Z" fill="#97A3BA"/>
</svg>
