<svg width="24" height="24" viewBox="0 0 24 24" fill="none" xmlns="http://www.w3.org/2000/svg">
<path fill-rule="evenodd" clip-rule="evenodd" d="M10.2 6.39972L15.5333 10.3997C15.7224 10.5415 15.878 10.7085 16 10.8916V7C16 6.44772 16.4477 6 17 6C17.5523 6 18 6.44772 18 7V17C18 17.5523 17.5523 18 17 18C16.4477 18 16 17.5523 16 17V13.1078C15.878 13.291 15.7224 13.4579 15.5333 13.5997L10.2 17.5997C8.88153 18.5886 7 17.6478 7 15.9997V7.99972C7 6.35163 8.88153 5.41087 10.2 6.39972ZM9 7.99972V15.9997L14.3333 11.9997L9 7.99972Z" fill="#777B92"/>
</svg>
