<svg width="22" height="22" viewBox="0 0 22 22" fill="none" xmlns="http://www.w3.org/2000/svg">
<path d="M18.357 9.67117L13.2423 5.46117C12.9344 5.21516 12.5633 5.06035 12.1715 5.01438C11.7796 4.96842 11.3827 5.03314 11.0259 5.20117C10.7159 5.33745 10.4517 5.55984 10.265 5.84179C10.0782 6.12373 9.97684 6.45331 9.9729 6.79117V9.38117L5.21925 5.46117C4.91133 5.21516 4.5403 5.06035 4.14844 5.01438C3.75658 4.96842 3.35965 5.03314 3.00288 5.20117C2.70219 5.34471 2.44842 5.57023 2.27094 5.85161C2.09346 6.133 1.99952 6.45875 2 6.79117V15.2112C1.99952 15.5436 2.09346 15.8693 2.27094 16.1507C2.44842 16.4321 2.70219 16.6576 3.00288 16.8012C3.28957 16.9312 3.60057 16.9993 3.9155 17.0012C4.39018 17.0017 4.85057 16.8393 5.21925 16.5412L9.9729 12.6212V15.2112C9.97684 15.549 10.0782 15.8786 10.265 16.1606C10.4517 16.4425 10.7159 16.6649 11.0259 16.8012C11.3126 16.9312 11.6236 16.9993 11.9385 17.0012C12.4132 17.0017 12.8736 16.8393 13.2423 16.5412L18.357 12.3312C18.5575 12.172 18.7195 11.9697 18.8309 11.7394C18.9422 11.5091 19 11.2568 19 11.0012C19 10.7455 18.9422 10.4932 18.8309 10.2629C18.7195 10.0327 18.5575 9.83038 18.357 9.67117ZM3.95562 14.9112V7.00117L8.7895 11.0012L3.95562 14.9112ZM11.9787 14.9112V7.00117L16.8125 11.0012L11.9787 14.9112Z" fill="#97A3BA"/>
</svg>
