<svg width="22" height="22" viewBox="0 0 22 22" fill="none" xmlns="http://www.w3.org/2000/svg">
<path d="M17 7C15.9391 7 14.9217 7.42143 14.1716 8.17157C13.4214 8.92172 13 9.93914 13 11C13.003 11.705 13.1965 12.396 13.56 13H8.44C8.80355 12.396 8.99705 11.705 9 11C9 10.2089 8.76541 9.43552 8.32588 8.77772C7.88635 8.11993 7.26164 7.60723 6.53074 7.30448C5.79983 7.00173 4.99556 6.92252 4.21964 7.07686C3.44372 7.2312 2.73098 7.61216 2.17157 8.17157C1.61216 8.73098 1.2312 9.44372 1.07686 10.2196C0.92252 10.9956 1.00173 11.7998 1.30448 12.5307C1.60723 13.2616 2.11992 13.8864 2.77772 14.3259C3.43552 14.7654 4.20888 15 5 15H17C18.0609 15 19.0783 14.5786 19.8284 13.8284C20.5786 13.0783 21 12.0609 21 11C21 9.93914 20.5786 8.92172 19.8284 8.17157C19.0783 7.42143 18.0609 7 17 7ZM3 11C3 10.6044 3.1173 10.2178 3.33706 9.88886C3.55683 9.55996 3.86918 9.30362 4.23463 9.15224C4.60009 9.00087 5.00222 8.96126 5.39018 9.03843C5.77814 9.1156 6.13451 9.30608 6.41422 9.58579C6.69392 9.86549 6.8844 10.2219 6.96157 10.6098C7.03874 10.9978 6.99914 11.3999 6.84776 11.7654C6.69639 12.1308 6.44004 12.4432 6.11114 12.6629C5.78224 12.8827 5.39556 13 5 13C4.46957 13 3.96086 12.7893 3.58579 12.4142C3.21072 12.0391 3 11.5304 3 11ZM17 13C16.6044 13 16.2178 12.8827 15.8889 12.6629C15.56 12.4432 15.3036 12.1308 15.1522 11.7654C15.0009 11.3999 14.9613 10.9978 15.0384 10.6098C15.1156 10.2219 15.3061 9.86549 15.5858 9.58579C15.8655 9.30608 16.2219 9.1156 16.6098 9.03843C16.9978 8.96126 17.3999 9.00087 17.7654 9.15224C18.1308 9.30362 18.4432 9.55996 18.6629 9.88886C18.8827 10.2178 19 10.6044 19 11C19 11.5304 18.7893 12.0391 18.4142 12.4142C18.0391 12.7893 17.5304 13 17 13Z" fill="#97A3BA"/>
</svg>
