<svg width="24" height="24" viewBox="0 0 24 24" fill="none" xmlns="http://www.w3.org/2000/svg">
<path fill-rule="evenodd" clip-rule="evenodd" d="M4 12C4 12.9655 4.96911 14 6.5 14C8.30974 14 9.78127 12.8009 11.5231 11.2526L11.6864 11.1073C12.4639 10.4151 13.2996 9.67115 14.1824 9.09854C15.1416 8.47631 16.2376 8 17.5 8C17.5 8 17.5 8 17.5 8C19.8351 8 22 9.65179 22 12C22 14.3482 19.8351 16 17.5 16C16.2884 16 15.1665 15.5737 14.3416 14.8523C13.9259 14.4886 13.8837 13.8569 14.2473 13.4412C14.6109 13.0255 15.2427 12.9833 15.6584 13.3469C16.1041 13.7367 16.753 14 17.5 14C19.0309 14 20 12.9655 20 12C20 11.0345 19.0309 10 17.5 10C17.5 10 17.5 10 17.5 10C16.7624 10 16.0459 10.2737 15.2708 10.7765C14.5208 11.2629 13.7927 11.9106 12.9809 12.6327L12.8519 12.7474C11.2187 14.1991 9.19026 16 6.5 16C4.16489 16 2 14.3482 2 12C2 9.65179 4.16489 8 6.5 8C7.71163 8 8.83355 8.42626 9.65838 9.14775C10.0741 9.51136 10.1163 10.1431 9.75269 10.5588C9.38907 10.9745 8.75732 11.0167 8.34162 10.6531C7.89594 10.2633 7.24706 10 6.5 10C4.96911 10 4 11.0345 4 12Z" fill="#777B92"/>
</svg>
