<svg width="22" height="22" viewBox="0 0 22 22" fill="none" xmlns="http://www.w3.org/2000/svg">
<path d="M16 5.00098C15.7348 5.00098 15.4804 5.10633 15.2929 5.29387C15.1054 5.48141 15 5.73576 15 6.00098V9.82117L9.21 5.46117C8.90297 5.21516 8.53301 5.06035 8.14227 5.01438C7.75153 4.96842 7.35574 5.03314 7 5.20117C6.70018 5.34471 6.44713 5.57023 6.27016 5.85161C6.09319 6.133 5.99952 6.45875 6 6.79117V15.2112C5.99952 15.5436 6.09319 15.8693 6.27016 16.1507C6.44713 16.4321 6.70018 16.6576 7 16.8012C7.28587 16.9312 7.59597 16.9993 7.91 17.0012C8.38331 17.0017 8.84238 16.8393 9.21 16.5412L15 12.1812V16.001C15 16.2662 15.1054 16.5205 15.2929 16.7081C15.4804 16.8956 15.7348 17.001 16 17.001C16.2652 17.001 16.5196 16.8956 16.7071 16.7081C16.8946 16.5205 17 16.2662 17 16.001V6.00098C17 5.73576 16.8946 5.48141 16.7071 5.29387C16.5196 5.10633 16.2652 5.00098 16 5.00098ZM7.95 14.9112V7.00117L13.5 11.0012L7.95 14.9112Z" fill="#97A3BA"/>
</svg>
