<svg width="16" height="16" viewBox="0 0 16 16" fill="none" xmlns="http://www.w3.org/2000/svg">
<path fill-rule="evenodd" clip-rule="evenodd" d="M10.3536 5.64645C10.5488 5.84171 10.5488 6.15829 10.3536 6.35355L8.70711 8L10.3536 9.64645C10.5488 9.84171 10.5488 10.1583 10.3536 10.3536C10.1583 10.5488 9.84171 10.5488 9.64645 10.3536L8 8.70711L6.35355 10.3536C6.15829 10.5488 5.84171 10.5488 5.64645 10.3536C5.45118 10.1583 5.45118 9.84171 5.64645 9.64645L7.29289 8L5.64645 6.35355C5.45118 6.15829 5.45118 5.84171 5.64645 5.64645C5.84171 5.45118 6.15829 5.45118 6.35355 5.64645L8 7.29289L9.64645 5.64645C9.84171 5.45118 10.1583 5.45118 10.3536 5.64645Z" fill="#777B92"/>
<path fill-rule="evenodd" clip-rule="evenodd" d="M1.5 2C1.5 1.17157 2.17157 0.5 3 0.5H13C13.8284 0.5 14.5 1.17157 14.5 2V11.9826C14.5 12.6012 14.1202 13.1564 13.5437 13.3806L8.54367 15.3251C8.19398 15.461 7.80602 15.461 7.45633 15.3251L2.45633 13.3806C1.87977 13.1564 1.5 12.6012 1.5 11.9826V2ZM3 1.5C2.72386 1.5 2.5 1.72386 2.5 2V11.9826C2.5 12.1888 2.62659 12.3739 2.81878 12.4486L7.81878 14.393C7.93534 14.4384 8.06466 14.4384 8.18122 14.393L13.1812 12.4486C13.3734 12.3739 13.5 12.1888 13.5 11.9826V2C13.5 1.72386 13.2761 1.5 13 1.5H3Z" fill="#777B92"/>
</svg>
