<svg width="16" height="16" viewBox="0 0 16 16" fill="none" xmlns="http://www.w3.org/2000/svg">
<path fill-rule="evenodd" clip-rule="evenodd" d="M1.13736 0.519242L8 2.48L14.8626 0.519242C15.0135 0.47614 15.1758 0.506348 15.3011 0.60083C15.4264 0.695312 15.5 0.843109 15.5 1V13C15.5 13.2232 15.352 13.4194 15.1374 13.4808L8.14829 15.4776C8.10604 15.4907 8.06139 15.4984 8.01517 15.4998C8.00506 15.5001 7.99494 15.5001 7.98483 15.4998C7.93861 15.4984 7.89396 15.4907 7.85171 15.4776L0.862639 13.4808C0.647989 13.4194 0.5 13.2232 0.5 13V1C0.5 0.843109 0.573645 0.695312 0.698902 0.60083C0.824159 0.506348 0.986502 0.47614 1.13736 0.519242ZM8.5 14.3371L14.5 12.6229V1.66287L8.5 3.37716V14.3371ZM7.5 3.37716L1.5 1.66287V12.6229L7.5 14.3371V3.37716Z" fill="#777B92"/>
</svg>
