<svg width="22" height="22" viewBox="0 0 22 22" fill="none" xmlns="http://www.w3.org/2000/svg">
<path fill-rule="evenodd" clip-rule="evenodd" d="M9.05551 14.4101C9.63108 14.7947 10.3078 15 11 15C11.9283 15 12.8185 14.6313 13.4749 13.9749C14.1313 13.3185 14.5 12.4283 14.5 11.5C14.5 10.8078 14.2947 10.1311 13.9101 9.55551C13.5256 8.97993 12.9789 8.53133 12.3394 8.26642C11.6999 8.00152 10.9961 7.9322 10.3172 8.06725C9.63825 8.2023 9.01461 8.53564 8.52513 9.02513C8.03564 9.51461 7.7023 10.1383 7.56725 10.8172C7.4322 11.4961 7.50152 12.1999 7.76642 12.8394C8.03133 13.4789 8.47993 14.0256 9.05551 14.4101ZM10.1666 10.2528C10.4133 10.088 10.7033 10 11 10C11.3978 10 11.7794 10.158 12.0607 10.4393C12.342 10.7206 12.5 11.1022 12.5 11.5C12.5 11.7967 12.412 12.0867 12.2472 12.3334C12.0824 12.58 11.8481 12.7723 11.574 12.8858C11.2999 12.9994 10.9983 13.0291 10.7074 12.9712C10.4164 12.9133 10.1491 12.7704 9.93934 12.5607C9.72956 12.3509 9.5867 12.0836 9.52882 11.7926C9.47095 11.5017 9.50065 11.2001 9.61418 10.926C9.72771 10.6519 9.91997 10.4176 10.1666 10.2528Z" fill="#97A3BA"/>
<path fill-rule="evenodd" clip-rule="evenodd" d="M6.25979 20.5307C6.648 20.8262 7.12181 20.9876 7.60979 20.9905C7.73948 21.0032 7.8701 21.0032 7.99979 20.9905C8.30279 20.9398 8.5922 20.8276 8.85018 20.6609C9.10815 20.4941 9.32923 20.2763 9.49979 20.0209L9.72979 19.6911C9.89113 19.4598 10.1046 19.2696 10.353 19.1359C10.6014 19.0022 10.8778 18.9288 11.1598 18.9215C11.4553 18.9142 11.7479 18.9819 12.0102 19.1182C12.2725 19.2545 12.496 19.4551 12.6598 19.7011L12.7798 19.871C12.9503 20.1246 13.1709 20.3407 13.4281 20.5059C13.6853 20.6711 13.9736 20.7819 14.2752 20.8315C14.5769 20.8811 14.8855 20.8685 15.1821 20.7944C15.4787 20.7204 15.757 20.5864 15.9998 20.4008L18.0098 18.8515C18.4898 18.4789 18.809 17.9369 18.9019 17.3366C18.9949 16.7363 18.8546 16.1232 18.5098 15.623L18.2498 15.2432C18.0918 15.0025 17.9876 14.7306 17.9445 14.4459C17.9013 14.1613 17.9202 13.8707 17.9998 13.594C18.0843 13.2964 18.2407 13.0241 18.4552 12.801C18.6696 12.5779 18.9356 12.4109 19.2298 12.3146L19.4298 12.2446C20.0048 12.04 20.4782 11.6206 20.7504 11.0745C21.0226 10.5284 21.0726 9.89815 20.8898 9.31604L20.0998 6.79724C20.0145 6.50613 19.8714 6.23518 19.6791 6.00054C19.4867 5.7659 19.2491 5.57238 18.9803 5.43153C18.7116 5.29067 18.4171 5.20537 18.1147 5.1807C17.8122 5.15604 17.5079 5.19251 17.2198 5.28796L16.8798 5.3979C16.6134 5.48591 16.3297 5.50824 16.0529 5.46299C15.776 5.41774 15.5142 5.30625 15.2898 5.13803L15.1798 5.05807C14.9608 4.89052 14.7842 4.67387 14.6644 4.4256C14.5445 4.17732 14.4847 3.90437 14.4898 3.62875V3.34888C14.4947 2.7212 14.2501 2.11726 13.8098 1.66968C13.6004 1.45823 13.3512 1.29022 13.0766 1.1753C12.8021 1.06038 12.5075 1.0008 12.2098 1H9.65979C9.04797 1.0079 8.46404 1.25707 8.03514 1.69325C7.60624 2.12944 7.3671 2.71731 7.36979 3.32889V3.56878C7.36883 3.85891 7.30274 4.14513 7.1764 4.40634C7.05006 4.66755 6.86669 4.8971 6.63979 5.07806L6.50979 5.17801C6.25913 5.36754 5.96596 5.49302 5.65575 5.54353C5.34554 5.59405 5.02767 5.56808 4.72979 5.46787C4.45621 5.37324 4.16626 5.33508 3.87749 5.3557C3.58872 5.37631 3.30714 5.45528 3.04979 5.58781C2.77345 5.72944 2.53056 5.92844 2.33741 6.17149C2.14425 6.41455 2.00527 6.69605 1.92979 6.99714L1.10979 9.5959C0.919633 10.1818 0.968399 10.8191 1.2455 11.3693C1.5226 11.9195 2.00566 12.3382 2.58979 12.5345H2.74979C3.01925 12.6354 3.2611 12.7985 3.4557 13.0103C3.6503 13.2222 3.79217 13.477 3.86979 13.7539L3.92979 13.9138C4.04127 14.2198 4.07855 14.5479 4.03856 14.8711C3.99858 15.1942 3.88248 15.5033 3.69979 15.773C3.35451 16.2704 3.21289 16.8811 3.30402 17.4797C3.39515 18.0782 3.7121 18.6192 4.18979 18.9914L6.25979 20.5307ZM4.88739 11.5816C4.47402 11.1476 3.96448 10.8167 3.39979 10.6154L3.21979 10.5654C3.13187 10.5337 3.05975 10.469 3.0187 10.3851C2.97764 10.3011 2.97086 10.2045 2.99979 10.1157L3.82979 7.5069C3.85085 7.44434 3.89335 7.39124 3.94979 7.35697C3.99521 7.34173 4.04437 7.34173 4.08979 7.35697C4.69684 7.56378 5.34546 7.61816 5.97849 7.51532C6.61152 7.41247 7.20952 7.15557 7.71979 6.76725L7.84979 6.6673C8.32277 6.30313 8.70578 5.83528 8.96931 5.2998C9.23284 4.76433 9.36985 4.17553 9.36979 3.57877V3.32889C9.36708 3.28818 9.37244 3.24734 9.38556 3.2087C9.39867 3.17007 9.4193 3.13441 9.44624 3.10376C9.47319 3.07311 9.50592 3.04809 9.54257 3.03012C9.57922 3.01215 9.61905 3.00159 9.65979 2.99905H12.1998C12.2773 2.99851 12.3523 3.02704 12.4098 3.07901C12.4757 3.14931 12.5116 3.24255 12.5098 3.33889V3.64874C12.5094 4.22965 12.6437 4.80275 12.9023 5.32303C13.1608 5.84331 13.5365 6.2966 13.9998 6.64731L14.0398 6.73727C14.5226 7.10273 15.0871 7.34552 15.6845 7.44476C16.282 7.544 16.8946 7.49673 17.4698 7.307L17.8098 7.19705C17.8392 7.18212 17.8718 7.17434 17.9048 7.17434C17.9378 7.17434 17.9703 7.18212 17.9998 7.19705C18.0443 7.21351 18.0849 7.23883 18.1193 7.27148C18.1537 7.30412 18.1811 7.34341 18.1998 7.38696L18.9798 9.87577C19.0126 9.9593 19.0111 10.0524 18.9755 10.1348C18.9399 10.2172 18.8731 10.2822 18.7898 10.3156L18.5898 10.3855C17.9961 10.5893 17.46 10.9326 17.0267 11.3866C16.5934 11.8406 16.2755 12.3919 16.0998 12.9943C15.9264 13.5674 15.884 14.1721 15.9758 14.7637C16.0675 15.3554 16.291 15.9189 16.6298 16.4127L16.8898 16.7925C16.943 16.8676 16.9654 16.9602 16.9524 17.0513C16.9393 17.1424 16.8919 17.225 16.8198 17.2822L14.7598 18.8415C14.7331 18.8622 14.7026 18.8773 14.6699 18.8859C14.6373 18.8945 14.6032 18.8964 14.5698 18.8915C14.497 18.8753 14.4328 18.8325 14.3898 18.7715L14.2698 18.5916C13.9229 18.0906 13.4596 17.6812 12.9197 17.3984C12.3798 17.1156 11.7794 16.9678 11.1698 16.9678C10.5602 16.9678 9.95976 17.1156 9.41985 17.3984C8.87993 17.6812 8.41668 18.0906 8.06979 18.5916L7.83979 18.9215C7.82173 18.9522 7.79729 18.9787 7.76813 18.9992C7.73896 19.0198 7.70574 19.0338 7.67069 19.0404C7.63564 19.0471 7.59958 19.0461 7.56493 19.0377C7.53028 19.0292 7.49784 19.0135 7.46979 18.9914L5.31979 17.3622C5.25655 17.2924 5.22153 17.2015 5.22153 17.1073C5.22153 17.0131 5.25655 16.9223 5.31979 16.8524C5.67808 16.329 5.90666 15.7279 5.98664 15.0988C6.06663 14.4697 5.99573 13.8305 5.77979 13.2342V13.1142C5.60643 12.5406 5.30076 12.0157 4.88739 11.5816Z" fill="#97A3BA"/>
</svg>
