<svg width="24" height="24" viewBox="0 0 24 24" fill="none" xmlns="http://www.w3.org/2000/svg">
<path fill-rule="evenodd" clip-rule="evenodd" d="M12 9C13.6569 9 15 10.3431 15 12C15 13.6569 13.6569 15 12 15C10.3431 15 9 13.6569 9 12C9 10.3431 10.3431 9 12 9ZM11 12C11 12.5523 11.4477 13 12 13C12.5523 13 13 12.5523 13 12C13 11.4477 12.5523 11 12 11C11.4477 11 11 11.4477 11 12Z" fill="#777B92"/>
<path fill-rule="evenodd" clip-rule="evenodd" d="M11 2H13C14.1046 2 15 2.89543 15 4V4.65909L15.561 4.06605C16.3396 3.243 17.6457 3.23038 18.44 4.03824L19.9921 5.61671C20.7818 6.41993 20.7528 7.71664 19.9278 8.48366L19.3724 9H20C21.1046 9 22 9.89543 22 11V13C22 14.1046 21.1046 15 20 15H19.3717L19.9277 15.5169C20.7528 16.284 20.7818 17.5809 19.9918 18.3841L18.4399 19.9621C17.6456 20.7697 16.3397 20.7571 15.5611 19.9343L15 19.3412V20C15 21.1046 14.1046 22 13 22H11C9.89543 22 9 21.1046 9 20V19.3719L8.48868 19.9217C7.71708 20.7514 6.41103 20.775 5.60989 19.9738L4.02603 18.3899C3.22494 17.5887 3.24861 16.2828 4.07821 15.5112L4.62786 15H4C2.89543 15 2 14.1046 2 13V11C2 9.89543 2.89543 9 4 9L4.62714 9L4.07814 8.4894C3.24859 7.71789 3.22485 6.41204 4.02579 5.61088L5.60973 4.02649C6.4109 3.2251 7.71719 3.24875 8.48882 4.07862L9 4.62839V4C9 2.89543 9.89543 2 11 2ZM11 4V4.62839C11 6.44547 8.77264 7.32099 7.53532 5.99027L7.02414 5.4405L5.4402 7.02489L5.9892 7.53549C7.31968 8.7729 6.4441 11 4.62714 11H4V13H4.62786C6.4448 13 7.32039 15.2271 5.98993 16.4645L5.44028 16.9757L7.02414 18.5597L7.53547 18.0099C8.77286 16.6794 11 17.5549 11 19.3719V20H13V19.3412C13 17.5326 15.2098 16.6529 16.4528 17.9666L17.0139 18.5597L18.5659 16.9817L18.0099 16.4647C16.6791 15.2274 17.5546 13 19.3717 13H20V11H19.3724C17.5553 11 16.6798 8.77257 18.0106 7.53527L18.566 7.01893L17.0139 5.44046L16.4529 6.0335C15.21 7.34747 13 6.4678 13 4.65909V4L11 4Z" fill="#777B92"/>
</svg>
