<svg width="24" height="24" viewBox="0 0 24 24" fill="none" xmlns="http://www.w3.org/2000/svg">
<path fill-rule="evenodd" clip-rule="evenodd" d="M13 7.82929V21C13 21.5523 12.5523 22 12 22C11.4477 22 11 21.5523 11 21V7.82929C9.83481 7.41746 9 6.30622 9 5C9 3.34315 10.3431 2 12 2C13.6569 2 15 3.34315 15 5C15 6.30622 14.1652 7.41746 13 7.82929ZM11 5C11 5.55228 11.4477 6 12 6C12.5523 6 13 5.55228 13 5C13 4.44772 12.5523 4 12 4C11.4477 4 11 4.44772 11 5Z" fill="#777B92"/>
<path fill-rule="evenodd" clip-rule="evenodd" d="M21 13C21 14.3062 20.1652 15.4175 19 15.8293V21C19 21.5523 18.5523 22 18 22C17.4477 22 17 21.5523 17 21V15.8293C15.8348 15.4175 15 14.3062 15 13C15 11.6938 15.8348 10.5825 17 10.1707V3C17 2.44772 17.4477 2 18 2C18.5523 2 19 2.44772 19 3V10.1707C20.1652 10.5825 21 11.6938 21 13ZM17 13C17 13.5523 17.4477 14 18 14C18.5523 14 19 13.5523 19 13C19 12.4477 18.5523 12 18 12C17.4477 12 17 12.4477 17 13Z" fill="#777B92"/>
<path fill-rule="evenodd" clip-rule="evenodd" d="M7 19.8293V21C7 21.5523 6.55228 22 6 22C5.44772 22 5 21.5523 5 21L5 19.8293C3.83481 19.4175 3 18.3062 3 17C3 15.6938 3.83481 14.5825 5 14.1707V3C5 2.44772 5.44772 2 6 2C6.55228 2 7 2.44772 7 3V14.1707C8.16519 14.5825 9 15.6938 9 17C9 18.3062 8.16519 19.4175 7 19.8293ZM6 16C5.44772 16 5 16.4477 5 17C5 17.5523 5.44772 18 6 18C6.55228 18 7 17.5523 7 17C7 16.4477 6.55228 16 6 16Z" fill="#777B92"/>
</svg>
