<svg width="22" height="22" viewBox="0 0 22 22" fill="none" xmlns="http://www.w3.org/2000/svg">
<path d="M11 6C12.1046 6 13 5.10457 13 4C13 2.89543 12.1046 2 11 2C9.89543 2 9 2.89543 9 4C9 5.10457 9.89543 6 11 6Z" fill="#97A3BA"/>
<path d="M11 13C12.1046 13 13 12.1046 13 11C13 9.89543 12.1046 9 11 9C9.89543 9 9 9.89543 9 11C9 12.1046 9.89543 13 11 13Z" fill="#97A3BA"/>
<path d="M13 18C13 19.1046 12.1046 20 11 20C9.89543 20 9 19.1046 9 18C9 16.8954 9.89543 16 11 16C12.1046 16 13 16.8954 13 18Z" fill="#97A3BA"/>
</svg>
