<svg width="22" height="22" viewBox="0 0 22 22" fill="none" xmlns="http://www.w3.org/2000/svg">
<path fill-rule="evenodd" clip-rule="evenodd" d="M1.99958 5.9869H3.17908C3.3892 6.56757 3.77246 7.06927 4.27679 7.42381C4.78111 7.77836 5.38203 7.96856 5.99789 7.96856C6.61375 7.96856 7.21468 7.77836 7.71901 7.42381C8.22333 7.06927 8.60659 6.56757 8.81671 5.9869H19.992C20.2571 5.9869 20.5114 5.88127 20.6988 5.69324C20.8863 5.50521 20.9916 5.25019 20.9916 4.98428C20.9916 4.71837 20.8863 4.46335 20.6988 4.27532C20.5114 4.08729 20.2571 3.98166 19.992 3.98166H8.81671C8.60659 3.40099 8.22333 2.89929 7.71901 2.54474C7.21468 2.1902 6.61375 2 5.99789 2C5.38203 2 4.78111 2.1902 4.27679 2.54474C3.77246 2.89929 3.3892 3.40099 3.17908 3.98166H1.99958C1.73447 3.98166 1.48023 4.08729 1.29277 4.27532C1.10531 4.46335 1 4.71837 1 4.98428C1 5.25019 1.10531 5.50521 1.29277 5.69324C1.48023 5.88127 1.73447 5.9869 1.99958 5.9869ZM5.99789 3.98166C6.19559 3.98166 6.38885 4.04046 6.55323 4.15063C6.71761 4.2608 6.84573 4.41739 6.92139 4.60059C6.99704 4.7838 7.01684 4.98539 6.97827 5.17988C6.9397 5.37437 6.8445 5.55302 6.7047 5.69324C6.56491 5.83346 6.3868 5.92895 6.1929 5.96763C5.999 6.00632 5.79802 5.98647 5.61537 5.91058C5.43272 5.83469 5.27661 5.70619 5.16678 5.5413C5.05694 5.37642 4.99832 5.18258 4.99832 4.98428C4.99832 4.71837 5.10363 4.46335 5.29109 4.27532C5.47854 4.08729 5.73279 3.98166 5.99789 3.98166Z" fill="#97A3BA"/>
<path fill-rule="evenodd" clip-rule="evenodd" d="M17.9928 7.9922C17.3742 7.99394 16.7712 8.18759 16.2665 8.54659C15.7619 8.90559 15.3803 9.41236 15.174 9.99744H1.99958C1.73447 9.99744 1.48023 10.1031 1.29277 10.2911C1.10531 10.4791 1 10.7342 1 11.0001C1 11.266 1.10531 11.521 1.29277 11.709C1.48023 11.8971 1.73447 12.0027 1.99958 12.0027H15.174C15.3574 12.5229 15.6799 12.9825 16.1063 13.3312C16.5326 13.6799 17.0464 13.9043 17.5914 13.9797C18.1363 14.0551 18.6915 13.9787 19.196 13.7589C19.7006 13.539 20.1352 13.1842 20.4522 12.7332C20.7691 12.2822 20.9563 11.7524 20.9932 11.2019C21.0302 10.6513 20.9154 10.1012 20.6615 9.61171C20.4075 9.12221 20.0243 8.7122 19.5536 8.42656C19.0829 8.14092 18.543 7.99065 17.9928 7.9922ZM17.9928 12.0027C17.7951 12.0027 17.6019 11.9439 17.4375 11.8337C17.2731 11.7235 17.145 11.567 17.0694 11.3837C16.9937 11.2005 16.9739 10.999 17.0125 10.8045C17.051 10.61 17.1462 10.4313 17.286 10.2911C17.4258 10.1509 17.6039 10.0554 17.7978 10.0167C17.9917 9.97802 18.1927 9.99788 18.3754 10.0738C18.558 10.1496 18.7141 10.2782 18.824 10.443C18.9338 10.6079 18.9924 10.8018 18.9924 11.0001C18.9924 11.266 18.8871 11.521 18.6997 11.709C18.5122 11.8971 18.2579 12.0027 17.9928 12.0027Z" fill="#97A3BA"/>
<path fill-rule="evenodd" clip-rule="evenodd" d="M12.815 16.0129H19.992C20.2571 16.0129 20.5114 16.1185 20.6988 16.3066C20.8863 16.4946 20.9916 16.7496 20.9916 17.0155C20.9916 17.2814 20.8863 17.5365 20.6988 17.7245C20.5114 17.9125 20.2571 18.0182 19.992 18.0182H12.815C12.6049 18.5988 12.2216 19.1005 11.7173 19.4551C11.213 19.8096 10.6121 19.9998 9.99621 19.9998C9.38035 19.9998 8.77942 19.8096 8.2751 19.4551C7.77078 19.1005 7.38751 18.5988 7.1774 18.0182H1.99958C1.73447 18.0182 1.48023 17.9125 1.29277 17.7245C1.10531 17.5365 1 17.2814 1 17.0155C1 16.7496 1.10531 16.4946 1.29277 16.3066C1.48023 16.1185 1.73447 16.0129 1.99958 16.0129H7.1774C7.38751 15.4322 7.77078 14.9305 8.2751 14.576C8.77942 14.2214 9.38035 14.0312 9.99621 14.0312C10.6121 14.0312 11.213 14.2214 11.7173 14.576C12.2216 14.9305 12.6049 15.4322 12.815 16.0129ZM9.44087 17.8492C9.60525 17.9593 9.79851 18.0182 9.99621 18.0182C10.2613 18.0182 10.5156 17.9125 10.703 17.7245C10.8905 17.5365 10.9958 17.2814 10.9958 17.0155C10.9958 16.8172 10.9372 16.6234 10.8273 16.4585C10.7175 16.2936 10.5614 16.1651 10.3787 16.0892C10.1961 16.0133 9.9951 15.9935 9.8012 16.0322C9.6073 16.0709 9.4292 16.1663 9.2894 16.3066C9.14961 16.4468 9.05441 16.6254 9.01584 16.8199C8.97727 17.0144 8.99706 17.216 9.07272 17.3992C9.14838 17.5824 9.27649 17.739 9.44087 17.8492Z" fill="#97A3BA"/>
</svg>
