<svg width="22" height="22" viewBox="0 0 22 22" fill="none" xmlns="http://www.w3.org/2000/svg">
<path fill-rule="evenodd" clip-rule="evenodd" d="M4 1C3.40666 1 2.82664 1.17595 2.33329 1.50559C1.83994 1.83524 1.45543 2.30377 1.22836 2.85195C1.0013 3.40013 0.94189 4.00333 1.05765 4.58527C1.1734 5.16721 1.45912 5.70176 1.87868 6.12132C2.29824 6.54088 2.83279 6.8266 3.41473 6.94236C3.99667 7.05811 4.59987 6.9987 5.14805 6.77164C5.69623 6.54458 6.16477 6.16006 6.49441 5.66671C6.82405 5.17336 7 4.59334 7 4C7 3.20435 6.68393 2.44129 6.12132 1.87868C5.55871 1.31607 4.79565 1 4 1ZM4 5C3.80222 5 3.60888 4.94135 3.44443 4.83147C3.27998 4.72159 3.15181 4.56541 3.07612 4.38268C3.00043 4.19996 2.98063 3.99889 3.01922 3.80491C3.0578 3.61093 3.15304 3.43275 3.29289 3.29289C3.43275 3.15304 3.61093 3.0578 3.80491 3.01921C3.99889 2.98063 4.19996 3.00043 4.38268 3.07612C4.56541 3.15181 4.72159 3.27998 4.83147 3.44443C4.94135 3.60888 5 3.80222 5 4C5 4.26522 4.89464 4.51957 4.70711 4.70711C4.51957 4.89464 4.26522 5 4 5Z" fill="#97A3BA"/>
<path fill-rule="evenodd" clip-rule="evenodd" d="M11 1C10.4067 1 9.82664 1.17595 9.33329 1.50559C8.83994 1.83524 8.45543 2.30377 8.22836 2.85195C8.0013 3.40013 7.94189 4.00333 8.05765 4.58527C8.1734 5.16721 8.45912 5.70176 8.87868 6.12132C9.29824 6.54088 9.83279 6.8266 10.4147 6.94236C10.9967 7.05811 11.5999 6.9987 12.1481 6.77164C12.6962 6.54458 13.1648 6.16006 13.4944 5.66671C13.8241 5.17336 14 4.59334 14 4C14 3.20435 13.6839 2.44129 13.1213 1.87868C12.5587 1.31607 11.7957 1 11 1ZM11 5C10.8022 5 10.6089 4.94135 10.4444 4.83147C10.28 4.72159 10.1518 4.56541 10.0761 4.38268C10.0004 4.19996 9.98063 3.99889 10.0192 3.80491C10.0578 3.61093 10.153 3.43275 10.2929 3.29289C10.4327 3.15304 10.6109 3.0578 10.8049 3.01921C10.9989 2.98063 11.2 3.00043 11.3827 3.07612C11.5654 3.15181 11.7216 3.27998 11.8315 3.44443C11.9414 3.60888 12 3.80222 12 4C12 4.26522 11.8946 4.51957 11.7071 4.70711C11.5196 4.89464 11.2652 5 11 5Z" fill="#97A3BA"/>
<path fill-rule="evenodd" clip-rule="evenodd" d="M19.6667 6.49441C19.1734 6.82405 18.5933 7 18 7C17.2043 7 16.4413 6.68393 15.8787 6.12132C15.3161 5.55871 15 4.79565 15 4C15 3.40666 15.1759 2.82664 15.5056 2.33329C15.8352 1.83994 16.3038 1.45543 16.8519 1.22836C17.4001 1.0013 18.0033 0.94189 18.5853 1.05765C19.1672 1.1734 19.7018 1.45912 20.1213 1.87868C20.5409 2.29824 20.8266 2.83279 20.9424 3.41473C21.0581 3.99667 20.9987 4.59987 20.7716 5.14805C20.5446 5.69623 20.1601 6.16477 19.6667 6.49441ZM18.5556 3.16853C18.3911 3.05865 18.1978 3 18 3C17.7348 3 17.4804 3.10536 17.2929 3.29289C17.1054 3.48043 17 3.73478 17 4C17 4.19778 17.0586 4.39112 17.1685 4.55557C17.2784 4.72002 17.4346 4.84819 17.6173 4.92388C17.8 4.99957 18.0011 5.01937 18.1951 4.98079C18.3891 4.9422 18.5673 4.84696 18.7071 4.70711C18.847 4.56726 18.9422 4.38907 18.9808 4.19509C19.0194 4.00111 18.9996 3.80004 18.9239 3.61732C18.8482 3.43459 18.72 3.27841 18.5556 3.16853Z" fill="#97A3BA"/>
<path fill-rule="evenodd" clip-rule="evenodd" d="M4 8C3.40666 8 2.82664 8.17595 2.33329 8.50559C1.83994 8.83524 1.45543 9.30377 1.22836 9.85195C1.0013 10.4001 0.94189 11.0033 1.05765 11.5853C1.1734 12.1672 1.45912 12.7018 1.87868 13.1213C2.29824 13.5409 2.83279 13.8266 3.41473 13.9424C3.99667 14.0581 4.59987 13.9987 5.14805 13.7716C5.69623 13.5446 6.16477 13.1601 6.49441 12.6667C6.82405 12.1734 7 11.5933 7 11C7 10.2044 6.68393 9.44129 6.12132 8.87868C5.55871 8.31607 4.79565 8 4 8ZM4 12C3.80222 12 3.60888 11.9414 3.44443 11.8315C3.27998 11.7216 3.15181 11.5654 3.07612 11.3827C3.00043 11.2 2.98063 10.9989 3.01922 10.8049C3.0578 10.6109 3.15304 10.4327 3.29289 10.2929C3.43275 10.153 3.61093 10.0578 3.80491 10.0192C3.99889 9.98063 4.19996 10.0004 4.38268 10.0761C4.56541 10.1518 4.72159 10.28 4.83147 10.4444C4.94135 10.6089 5 10.8022 5 11C5 11.2652 4.89464 11.5196 4.70711 11.7071C4.51957 11.8946 4.26522 12 4 12Z" fill="#97A3BA"/>
<path fill-rule="evenodd" clip-rule="evenodd" d="M9.33329 8.50559C9.82664 8.17595 10.4067 8 11 8C11.7957 8 12.5587 8.31607 13.1213 8.87868C13.6839 9.44129 14 10.2044 14 11C14 11.5933 13.8241 12.1734 13.4944 12.6667C13.1648 13.1601 12.6962 13.5446 12.1481 13.7716C11.5999 13.9987 10.9967 14.0581 10.4147 13.9424C9.83279 13.8266 9.29824 13.5409 8.87868 13.1213C8.45912 12.7018 8.1734 12.1672 8.05765 11.5853C7.94189 11.0033 8.0013 10.4001 8.22836 9.85195C8.45543 9.30377 8.83994 8.83524 9.33329 8.50559ZM10.4444 11.8315C10.6089 11.9414 10.8022 12 11 12C11.2652 12 11.5196 11.8946 11.7071 11.7071C11.8946 11.5196 12 11.2652 12 11C12 10.8022 11.9414 10.6089 11.8315 10.4444C11.7216 10.28 11.5654 10.1518 11.3827 10.0761C11.2 10.0004 10.9989 9.98063 10.8049 10.0192C10.6109 10.0578 10.4327 10.153 10.2929 10.2929C10.153 10.4327 10.0578 10.6109 10.0192 10.8049C9.98063 10.9989 10.0004 11.2 10.0761 11.3827C10.1518 11.5654 10.28 11.7216 10.4444 11.8315Z" fill="#97A3BA"/>
<path fill-rule="evenodd" clip-rule="evenodd" d="M18 8C17.4067 8 16.8266 8.17595 16.3333 8.50559C15.8399 8.83524 15.4554 9.30377 15.2284 9.85195C15.0013 10.4001 14.9419 11.0033 15.0576 11.5853C15.1734 12.1672 15.4591 12.7018 15.8787 13.1213C16.2982 13.5409 16.8328 13.8266 17.4147 13.9424C17.9967 14.0581 18.5999 13.9987 19.1481 13.7716C19.6962 13.5446 20.1648 13.1601 20.4944 12.6667C20.8241 12.1734 21 11.5933 21 11C21 10.2044 20.6839 9.44129 20.1213 8.87868C19.5587 8.31607 18.7957 8 18 8ZM18 12C17.8022 12 17.6089 11.9414 17.4444 11.8315C17.28 11.7216 17.1518 11.5654 17.0761 11.3827C17.0004 11.2 16.9806 10.9989 17.0192 10.8049C17.0578 10.6109 17.153 10.4327 17.2929 10.2929C17.4327 10.153 17.6109 10.0578 17.8049 10.0192C17.9989 9.98063 18.2 10.0004 18.3827 10.0761C18.5654 10.1518 18.7216 10.28 18.8315 10.4444C18.9414 10.6089 19 10.8022 19 11C19 11.2652 18.8946 11.5196 18.7071 11.7071C18.5196 11.8946 18.2652 12 18 12Z" fill="#97A3BA"/>
<path fill-rule="evenodd" clip-rule="evenodd" d="M2.33329 15.5056C2.82664 15.1759 3.40666 15 4 15C4.79565 15 5.55871 15.3161 6.12132 15.8787C6.68393 16.4413 7 17.2043 7 18C7 18.5933 6.82405 19.1734 6.49441 19.6667C6.16477 20.1601 5.69623 20.5446 5.14805 20.7716C4.59987 20.9987 3.99667 21.0581 3.41473 20.9424C2.83279 20.8266 2.29824 20.5409 1.87868 20.1213C1.45912 19.7018 1.1734 19.1672 1.05765 18.5853C0.94189 18.0033 1.0013 17.4001 1.22836 16.8519C1.45543 16.3038 1.83994 15.8352 2.33329 15.5056ZM3.44443 18.8315C3.60888 18.9414 3.80222 19 4 19C4.26522 19 4.51957 18.8946 4.70711 18.7071C4.89464 18.5196 5 18.2652 5 18C5 17.8022 4.94135 17.6089 4.83147 17.4444C4.72159 17.28 4.56541 17.1518 4.38268 17.0761C4.19996 17.0004 3.99889 16.9806 3.80491 17.0192C3.61093 17.0578 3.43275 17.153 3.29289 17.2929C3.15304 17.4327 3.0578 17.6109 3.01922 17.8049C2.98063 17.9989 3.00043 18.2 3.07612 18.3827C3.15181 18.5654 3.27998 18.7216 3.44443 18.8315Z" fill="#97A3BA"/>
<path fill-rule="evenodd" clip-rule="evenodd" d="M11 15C10.4067 15 9.82664 15.1759 9.33329 15.5056C8.83994 15.8352 8.45543 16.3038 8.22836 16.8519C8.0013 17.4001 7.94189 18.0033 8.05765 18.5853C8.1734 19.1672 8.45912 19.7018 8.87868 20.1213C9.29824 20.5409 9.83279 20.8266 10.4147 20.9424C10.9967 21.0581 11.5999 20.9987 12.1481 20.7716C12.6962 20.5446 13.1648 20.1601 13.4944 19.6667C13.8241 19.1734 14 18.5933 14 18C14 17.2043 13.6839 16.4413 13.1213 15.8787C12.5587 15.3161 11.7957 15 11 15ZM11 19C10.8022 19 10.6089 18.9414 10.4444 18.8315C10.28 18.7216 10.1518 18.5654 10.0761 18.3827C10.0004 18.2 9.98063 17.9989 10.0192 17.8049C10.0578 17.6109 10.153 17.4327 10.2929 17.2929C10.4327 17.153 10.6109 17.0578 10.8049 17.0192C10.9989 16.9806 11.2 17.0004 11.3827 17.0761C11.5654 17.1518 11.7216 17.28 11.8315 17.4444C11.9414 17.6089 12 17.8022 12 18C12 18.2652 11.8946 18.5196 11.7071 18.7071C11.5196 18.8946 11.2652 19 11 19Z" fill="#97A3BA"/>
<path fill-rule="evenodd" clip-rule="evenodd" d="M16.3333 15.5056C16.8266 15.1759 17.4067 15 18 15C18.7957 15 19.5587 15.3161 20.1213 15.8787C20.6839 16.4413 21 17.2043 21 18C21 18.5933 20.8241 19.1734 20.4944 19.6667C20.1648 20.1601 19.6962 20.5446 19.1481 20.7716C18.5999 20.9987 17.9967 21.0581 17.4147 20.9424C16.8328 20.8266 16.2982 20.5409 15.8787 20.1213C15.4591 19.7018 15.1734 19.1672 15.0576 18.5853C14.9419 18.0033 15.0013 17.4001 15.2284 16.8519C15.4554 16.3038 15.8399 15.8352 16.3333 15.5056ZM17.4444 18.8315C17.6089 18.9414 17.8022 19 18 19C18.2652 19 18.5196 18.8946 18.7071 18.7071C18.8946 18.5196 19 18.2652 19 18C19 17.8022 18.9414 17.6089 18.8315 17.4444C18.7216 17.28 18.5654 17.1518 18.3827 17.0761C18.2 17.0004 17.9989 16.9806 17.8049 17.0192C17.6109 17.0578 17.4327 17.153 17.2929 17.2929C17.153 17.4327 17.0578 17.6109 17.0192 17.8049C16.9806 17.9989 17.0004 18.2 17.0761 18.3827C17.1518 18.5654 17.28 18.7216 17.4444 18.8315Z" fill="#97A3BA"/>
</svg>
