<svg width="22" height="22" viewBox="0 0 22 22" fill="none" xmlns="http://www.w3.org/2000/svg">
<path d="M11.7071 11.7071C11.5196 11.8946 11.2652 12 11 12C10.7348 12 10.4804 11.8946 10.2929 11.7071C10.1054 11.5196 10 11.2652 10 11V1C10 0.734784 10.1054 0.48043 10.2929 0.292893C10.4804 0.105357 10.7348 0 11 0C11.2652 0 11.5196 0.105357 11.7071 0.292893C11.8946 0.48043 12 0.734784 12 1V11C12 11.2652 11.8946 11.5196 11.7071 11.7071Z" fill="#97A3BA"/>
<path d="M14.826 2.04726C15.0791 1.96661 15.354 1.98985 15.59 2.11185C17.5813 3.14064 19.1693 4.80858 20.099 6.848C21.0288 8.88743 21.2465 11.1801 20.7171 13.358C20.1877 15.536 18.942 17.473 17.1799 18.8581C15.4178 20.2432 13.2414 20.9962 11 20.9962C8.75864 20.9962 6.58226 20.2432 4.82013 18.8581C3.058 17.473 1.81229 15.536 1.28292 13.358C0.753549 11.1801 0.971212 8.88743 1.90098 6.848C2.83074 4.80858 4.4187 3.14064 6.41001 2.11185C6.52688 2.05144 6.65451 2.01465 6.78561 2.00356C6.91671 1.99248 7.0487 2.00733 7.17406 2.04726C7.29942 2.08718 7.41569 2.15141 7.51623 2.23628C7.61676 2.32114 7.6996 2.42497 7.76001 2.54185C7.82042 2.65873 7.85721 2.78636 7.86829 2.91745C7.87938 3.04855 7.86453 3.18055 7.8246 3.30591C7.78467 3.43126 7.72044 3.54753 7.63558 3.64807C7.55072 3.7486 7.44688 3.83144 7.33001 3.89185C5.73656 4.71452 4.46572 6.04871 3.72148 7.68027C2.97725 9.31183 2.80277 11.1461 3.22607 12.8887C3.64937 14.6313 4.64588 16.1812 6.05566 17.2895C7.46544 18.3979 9.20672 19.0004 11 19.0004C12.7933 19.0004 14.5346 18.3979 15.9444 17.2895C17.3541 16.1812 18.3506 14.6313 18.7739 12.8887C19.1972 11.1461 19.0228 9.31183 18.2785 7.68027C17.5343 6.04871 16.2635 4.71452 14.67 3.89185C14.434 3.76985 14.2561 3.55908 14.1754 3.30591C14.0948 3.05273 14.118 2.77789 14.24 2.54185C14.362 2.30581 14.5728 2.1279 14.826 2.04726Z" fill="#97A3BA"/>
</svg>
