<svg width="24" height="24" viewBox="0 0 24 24" fill="none" xmlns="http://www.w3.org/2000/svg">
<path fill-rule="evenodd" clip-rule="evenodd" d="M12 9C13.6569 9 15 10.3431 15 12C15 13.6569 13.6569 15 12 15C10.3431 15 9 13.6569 9 12C9 10.3431 10.3431 9 12 9ZM11 12C11 12.5523 11.4477 13 12 13C12.5523 13 13 12.5523 13 12C13 11.4477 12.5523 11 12 11C11.4477 11 11 11.4477 11 12Z" fill="#777B92"/>
<path fill-rule="evenodd" clip-rule="evenodd" d="M11 2H13C14.6569 2 16 3.34315 16 5V5.56105C16 6.19199 16.5772 6.66525 17.1959 6.54168L18.0777 6.36555C19.5626 6.06898 21.0358 6.92548 21.5127 8.36267L21.8781 9.46404C22.3641 10.9289 21.6595 12.5234 20.2492 13.1503L19.5761 13.4494C19.0093 13.7013 18.8062 14.4031 19.1508 14.9188L19.6711 15.6975C20.6238 17.1234 20.1896 19.0563 18.7186 19.9377L17.2113 20.8409C15.8008 21.686 13.9729 21.2383 13.1127 19.837L12.8523 19.4128C12.462 18.7771 11.5381 18.7771 11.1478 19.4128L10.8114 19.9608C9.99739 21.2868 8.30473 21.7704 6.9131 21.0746L5.48457 20.3603C3.92154 19.5788 3.35464 17.632 4.25374 16.1335L4.8598 15.1234C5.18894 14.5749 4.92545 13.8626 4.31853 13.6603L4.02456 13.5623C2.48629 13.0495 1.63384 11.4073 2.09976 9.85417L2.51919 8.45609C2.96392 6.97366 4.46337 6.07286 5.98102 6.37639L6.80393 6.54097C7.42272 6.66473 8.00005 6.19144 8.00005 5.56039V5C8.00005 3.34315 9.34319 2 11 2ZM10 5V5.56039C10 7.45353 8.26807 8.87341 6.4117 8.50213L5.58878 8.33755C5.0829 8.23638 4.58308 8.53664 4.43484 9.03078L4.01542 10.4289C3.86011 10.9466 4.14426 11.494 4.65702 11.6649L4.95099 11.7629C6.77174 12.3698 7.56222 14.5067 6.57478 16.1524L5.96872 17.1625C5.66902 17.662 5.85799 18.3109 6.379 18.5714L7.80752 19.2857C8.2714 19.5176 8.83562 19.3564 9.10696 18.9145L9.44338 18.3665C10.6143 16.4592 13.3858 16.4592 14.5567 18.3665L14.8171 18.7906C15.1039 19.2577 15.7132 19.4069 16.1833 19.1252L17.6907 18.2221C18.181 17.9283 18.3257 17.284 18.0082 16.8087L17.4878 16.0299C16.4541 14.4828 17.0635 12.3775 18.7638 11.6218L19.4369 11.3226C19.907 11.1137 20.1419 10.5822 19.9799 10.0939L19.6144 8.99252C19.4555 8.51346 18.9644 8.22796 18.4694 8.32682L17.5876 8.50294C15.7315 8.87367 14 7.45386 14 5.56105V5C14 4.44772 13.5523 4 13 4H11C10.4478 4 10 4.44772 10 5Z" fill="#777B92"/>
</svg>
