<svg width="22" height="22" viewBox="0 0 22 22" fill="none" xmlns="http://www.w3.org/2000/svg">
<path fill-rule="evenodd" clip-rule="evenodd" d="M13.2006 2.44642C13.5017 2.91709 13.6601 3.45704 13.6585 4.00716C13.6567 4.62584 13.4525 5.22884 13.0741 5.73349C12.6956 6.23815 12.1614 6.61974 11.5446 6.82597V20.0004C11.5446 20.2655 11.4333 20.5198 11.2351 20.7072C11.0369 20.8947 10.768 21 10.4877 21C10.2074 21 9.93855 20.8947 9.74033 20.7072C9.54212 20.5198 9.43076 20.2655 9.43076 20.0004V6.82597C8.88234 6.64259 8.39782 6.32008 8.03024 5.89372C7.66265 5.46736 7.42617 4.95358 7.34666 4.40863C7.26715 3.86367 7.34768 3.30853 7.57944 2.80395C7.8112 2.29938 8.18526 1.86483 8.66068 1.54785C9.1361 1.23087 9.69456 1.04368 10.2749 1.00676C10.8553 0.969845 11.4352 1.08463 11.9513 1.33855C12.4673 1.59247 12.8995 1.97574 13.2006 2.44642ZM9.90049 4.83828C10.0743 4.94811 10.2787 5.00673 10.4877 5.00673C10.768 5.00673 11.0369 4.90142 11.2351 4.71397C11.4333 4.52651 11.5446 4.27226 11.5446 4.00716C11.5446 3.80946 11.4826 3.6162 11.3665 3.45182C11.2504 3.28744 11.0853 3.15932 10.8922 3.08367C10.699 3.00801 10.4865 2.98822 10.2815 3.02678C10.0765 3.06535 9.88815 3.16055 9.74033 3.30035C9.59251 3.44014 9.49185 3.61825 9.45107 3.81215C9.41029 4.00605 9.43122 4.20703 9.51122 4.38968C9.59121 4.57233 9.72668 4.72844 9.90049 4.83828Z" fill="#97A3BA"/>
<path fill-rule="evenodd" clip-rule="evenodd" d="M5.20289 13.1832V2.00788C5.20289 1.74277 5.09153 1.48853 4.89332 1.30107C4.69511 1.11361 4.42627 1.0083 4.14595 1.0083C3.86563 1.0083 3.5968 1.11361 3.39858 1.30107C3.20037 1.48853 3.08901 1.74277 3.08901 2.00788V13.1832C2.47689 13.3933 1.94801 13.7765 1.57425 14.2809C1.2005 14.7852 1 15.3861 1 16.002C1 16.6178 1.2005 17.2188 1.57425 17.7231C1.94801 18.2274 2.47689 18.6107 3.08901 18.8208V20.0003C3.08901 20.2654 3.20037 20.5196 3.39858 20.7071C3.5968 20.8946 3.86563 20.9999 4.14595 20.9999C4.42627 20.9999 4.69511 20.8946 4.89332 20.7071C5.09153 20.5196 5.20289 20.2654 5.20289 20.0003V18.8208C5.81502 18.6107 6.3439 18.2274 6.71765 17.7231C7.0914 17.2188 7.2919 16.6178 7.2919 16.002C7.2919 15.3861 7.0914 14.7852 6.71765 14.2809C6.3439 13.7765 5.81502 13.3933 5.20289 13.1832ZM4.14595 17.0016C3.93691 17.0016 3.73256 16.9429 3.55875 16.8331C3.38494 16.7233 3.24947 16.5672 3.16947 16.3845C3.08947 16.2019 3.06854 16.0009 3.10932 15.807C3.1501 15.6131 3.25077 15.435 3.39858 15.2952C3.5464 15.1554 3.73473 15.0602 3.93975 15.0216C4.14478 14.983 4.35729 15.0028 4.55042 15.0785C4.74355 15.1541 4.90863 15.2823 5.02476 15.4466C5.1409 15.611 5.20289 15.8043 5.20289 16.002C5.20289 16.2671 5.09153 16.5213 4.89332 16.7088C4.69511 16.8962 4.42627 17.0016 4.14595 17.0016Z" fill="#97A3BA"/>
<path fill-rule="evenodd" clip-rule="evenodd" d="M19.9999 12.0037C19.998 11.385 19.7939 10.782 19.4155 10.2773C19.037 9.77268 18.5028 9.39108 17.886 9.18485V2.00788C17.886 1.74277 17.7746 1.48853 17.5764 1.30107C17.3782 1.11361 17.1094 1.0083 16.8291 1.0083C16.5487 1.0083 16.2799 1.11361 16.0817 1.30107C15.8835 1.48853 15.7721 1.74277 15.7721 2.00788V9.18485C15.16 9.39497 14.6311 9.77823 14.2574 10.2826C13.8836 10.7869 13.6831 11.3878 13.6831 12.0037C13.6831 12.6195 13.8836 13.2205 14.2574 13.7248C14.6311 14.2291 15.16 14.6124 15.7721 14.8225V20.0003C15.7721 20.2654 15.8835 20.5196 16.0817 20.7071C16.2799 20.8946 16.5487 20.9999 16.8291 20.9999C17.1094 20.9999 17.3782 20.8946 17.5764 20.7071C17.7746 20.5196 17.886 20.2654 17.886 20.0003V14.8225C18.5028 14.6163 19.037 14.2347 19.4155 13.73C19.7939 13.2254 19.998 12.6223 19.9999 12.0037ZM16.8291 13.0032C16.62 13.0032 16.4157 12.9446 16.2419 12.8348C16.068 12.7249 15.9326 12.5688 15.8526 12.3862C15.7726 12.2035 15.7516 12.0026 15.7924 11.8087C15.8332 11.6148 15.9339 11.4367 16.0817 11.2969C16.2295 11.1571 16.4178 11.0619 16.6229 11.0233C16.8279 10.9847 17.0404 11.0045 17.2335 11.0802C17.4267 11.1558 17.5917 11.2839 17.7079 11.4483C17.824 11.6127 17.886 11.806 17.886 12.0037C17.886 12.2688 17.7746 12.523 17.5764 12.7105C17.3782 12.8979 17.1094 13.0032 16.8291 13.0032Z" fill="#97A3BA"/>
</svg>
