<svg width="22" height="22" viewBox="0 0 22 22" fill="none" xmlns="http://www.w3.org/2000/svg">
<path fill-rule="evenodd" clip-rule="evenodd" d="M9.05551 13.9101C9.63108 14.2947 10.3078 14.5 11 14.5C11.9283 14.5 12.8185 14.1313 13.4749 13.4749C14.1313 12.8185 14.5 11.9283 14.5 11C14.5 10.3078 14.2947 9.63108 13.9101 9.05551C13.5256 8.47993 12.9789 8.03133 12.3394 7.76642C11.6999 7.50152 10.9961 7.4322 10.3172 7.56725C9.63825 7.7023 9.01461 8.03564 8.52513 8.52513C8.03564 9.01461 7.7023 9.63825 7.56725 10.3172C7.4322 10.9961 7.50152 11.6999 7.76642 12.3394C8.03133 12.9789 8.47993 13.5256 9.05551 13.9101ZM10.1666 9.7528C10.4133 9.58797 10.7033 9.5 11 9.5C11.3978 9.5 11.7794 9.65804 12.0607 9.93934C12.342 10.2206 12.5 10.6022 12.5 11C12.5 11.2967 12.412 11.5867 12.2472 11.8334C12.0824 12.08 11.8481 12.2723 11.574 12.3858C11.2999 12.4994 10.9983 12.5291 10.7074 12.4712C10.4164 12.4133 10.1491 12.2704 9.93934 12.0607C9.72956 11.8509 9.5867 11.5836 9.52882 11.2926C9.47095 11.0017 9.50065 10.7001 9.61418 10.426C9.72771 10.1519 9.91997 9.91762 10.1666 9.7528Z" fill="#97A3BA"/>
<path fill-rule="evenodd" clip-rule="evenodd" d="M10.05 21H11.94C12.3747 21.0005 12.7929 20.8335 13.1076 20.5336C13.4223 20.2338 13.6094 19.8242 13.63 19.39V18.3C13.63 18.16 13.74 18.06 13.89 18C13.9451 17.9643 14.0093 17.9453 14.075 17.9453C14.1407 17.9453 14.2049 17.9643 14.26 18L15.03 18.74C15.3467 19.0548 15.7735 19.2341 16.22 19.24C16.4401 19.2396 16.6579 19.1951 16.8605 19.1092C17.0632 19.0234 17.2466 18.8978 17.4 18.74L18.71 17.41C18.8663 17.2548 18.9904 17.0702 19.075 16.8668C19.1597 16.6634 19.2033 16.4453 19.2033 16.225C19.2033 16.0047 19.1597 15.7866 19.075 15.5832C18.9904 15.3798 18.8663 15.1952 18.71 15.04L17.94 14.27C17.9043 14.2149 17.8853 14.1507 17.8853 14.085C17.8853 14.0193 17.9043 13.9551 17.94 13.9C17.9625 13.8396 18.0017 13.7869 18.0531 13.7479C18.1044 13.709 18.1658 13.6854 18.23 13.68H19.32C19.7656 13.68 20.1929 13.503 20.5079 13.1879C20.823 12.8729 21 12.4456 21 12V10.06C21.0005 9.62531 20.8335 9.20714 20.5336 8.89241C20.2338 8.57767 19.8242 8.39058 19.39 8.37H18.3C18.16 8.37 18.06 8.26 18 8.11C17.9643 8.05491 17.9453 7.99066 17.9453 7.925C17.9453 7.85934 17.9643 7.79509 18 7.74L18.74 7C18.9025 6.84383 19.0308 6.65567 19.1168 6.44741C19.2029 6.23914 19.2448 6.01529 19.24 5.79C19.2398 5.56839 19.1955 5.34905 19.1096 5.14474C19.0238 4.94043 18.8981 4.75526 18.74 4.6L17.37 3.26C17.2148 3.10368 17.0302 2.97962 16.8268 2.89497C16.6234 2.81031 16.4053 2.76672 16.185 2.76672C15.9647 2.76672 15.7466 2.81031 15.5432 2.89497C15.3398 2.97962 15.1552 3.10368 15 3.26L14.31 4.06C14.2488 4.0992 14.1777 4.12004 14.105 4.12004C14.0323 4.12004 13.9612 4.0992 13.9 4.06C13.8396 4.03748 13.7869 3.99827 13.7479 3.94692C13.709 3.89558 13.6854 3.83422 13.68 3.77V2.68C13.68 2.23444 13.503 1.80712 13.1879 1.49206C12.8729 1.177 12.4456 1 12 1H10.06C9.61351 0.999992 9.18516 1.17667 8.86851 1.49145C8.55186 1.80623 8.37264 2.23352 8.37 2.68V3.7C8.37 3.84 8.26 3.94 8.11 4C8.05491 4.03573 7.99066 4.05474 7.925 4.05474C7.85934 4.05474 7.79509 4.03573 7.74 4L7 3.26C6.83952 3.10052 6.64916 2.97426 6.43981 2.88846C6.23046 2.80266 6.00625 2.75901 5.78 2.76C5.55991 2.76043 5.34212 2.80489 5.13947 2.89076C4.93682 2.97663 4.7534 3.10217 4.6 3.26L3.26 4.63C3.10368 4.78522 2.97962 4.96984 2.89497 5.17322C2.81031 5.37659 2.76672 5.59471 2.76672 5.815C2.76672 6.03529 2.81031 6.25341 2.89497 6.45678C2.97962 6.66016 3.10368 6.84478 3.26 7L4.06 7.74C4.0992 7.80119 4.12004 7.87233 4.12004 7.945C4.12004 8.01767 4.0992 8.08881 4.06 8.15C4.03748 8.21038 3.99827 8.26313 3.94692 8.30208C3.89558 8.34103 3.83422 8.36458 3.77 8.37H2.68C2.23444 8.37 1.80712 8.547 1.49206 8.86206C1.177 9.17712 1 9.60444 1 10.05V11.94C0.999992 12.3865 1.17667 12.8148 1.49145 13.1315C1.80623 13.4481 2.23352 13.6274 2.68 13.63H3.7C3.84 13.63 3.94 13.74 4 13.89C4.03573 13.9451 4.05474 14.0093 4.05474 14.075C4.05474 14.1407 4.03573 14.2049 4 14.26L3.26 15C2.94034 15.3217 2.76064 15.7565 2.76 16.21C2.75966 16.4317 2.80372 16.6512 2.8896 16.8556C2.97547 17.06 3.10142 17.2451 3.26 17.4L4.63 18.74C4.78522 18.8963 4.96984 19.0204 5.17322 19.105C5.37659 19.1897 5.59471 19.2333 5.815 19.2333C6.03529 19.2333 6.25341 19.1897 6.45678 19.105C6.66016 19.0204 6.84478 18.8963 7 18.74L7.74 17.94C7.80119 17.9008 7.87233 17.88 7.945 17.88C8.01767 17.88 8.08881 17.9008 8.15 17.94C8.21038 17.9625 8.26313 18.0017 8.30208 18.0531C8.34103 18.1044 8.36458 18.1658 8.37 18.23V19.32C8.37 19.7656 8.547 20.1929 8.86206 20.5079C9.17712 20.823 9.60444 21 10.05 21ZM11.63 19H10.37L10.33 18.19C10.312 17.7349 10.1643 17.2945 9.90431 16.9205C9.64436 16.5465 9.28296 16.2546 8.86267 16.0791C8.44238 15.9037 7.98071 15.8519 7.53201 15.93C7.08331 16.0082 6.66628 16.2128 6.33 16.52L5.78 17.06L4.9 16.18L5.44 15.64C5.76673 15.3038 5.98593 14.8779 6.06964 14.4166C6.15335 13.9553 6.09777 13.4796 5.91 13.05C5.73782 12.6222 5.44257 12.2551 5.06161 11.9952C4.68066 11.7353 4.23115 11.5943 3.77 11.59H3V10.33H3.77C4.22509 10.312 4.66555 10.1643 5.03952 9.90431C5.41348 9.64436 5.70539 9.28296 5.88086 8.86267C6.05633 8.44238 6.10806 7.98071 6.02995 7.53201C5.95185 7.08331 5.74716 6.66628 5.44 6.33L4.9 5.78L5.78 4.9L6.32 5.44C6.6562 5.76673 7.0821 5.98593 7.54339 6.06964C8.00467 6.15335 8.48043 6.09777 8.91 5.91C9.33782 5.73782 9.70493 5.44257 9.96483 5.06161C10.2247 4.68066 10.3657 4.23115 10.37 3.77V3H11.67V3.77C11.688 4.22509 11.8357 4.66555 12.0957 5.03952C12.3556 5.41348 12.717 5.70539 13.1373 5.88086C13.5576 6.05633 14.0193 6.10806 14.468 6.02995C14.9167 5.95185 15.3337 5.74716 15.67 5.44L16.22 4.9L17.1 5.78L16.56 6.32C16.2333 6.6562 16.0141 7.0821 15.9304 7.54339C15.8467 8.00467 15.9022 8.48043 16.09 8.91C16.2622 9.33782 16.5574 9.70493 16.9384 9.96483C17.3193 10.2247 17.7689 10.3657 18.23 10.37H19V11.66H18.22C17.76 11.6634 17.3113 11.803 16.9305 12.061C16.5497 12.3191 16.2537 12.6841 16.08 13.11C15.8973 13.5362 15.8454 14.0072 15.9309 14.463C16.0164 14.9188 16.2353 15.3389 16.56 15.67L17.1 16.22L16.22 17.1L15.68 16.56C15.3438 16.2333 14.9179 16.0141 14.4566 15.9304C13.9953 15.8467 13.5196 15.9022 13.09 16.09C12.6622 16.2622 12.2951 16.5574 12.0352 16.9384C11.7753 17.3193 11.6343 17.7689 11.63 18.23V19Z" fill="#97A3BA"/>
</svg>
