<svg width="24" height="24" viewBox="0 0 24 24" fill="none" xmlns="http://www.w3.org/2000/svg">
<path fill-rule="evenodd" clip-rule="evenodd" d="M2 5C2 3.34315 3.34315 2 5 2C6.65685 2 8 3.34315 8 5C8 6.65685 6.65685 8 5 8C3.34315 8 2 6.65685 2 5ZM5 4C4.44772 4 4 4.44772 4 5C4 5.55228 4.44772 6 5 6C5.55228 6 6 5.55228 6 5C6 4.44772 5.55228 4 5 4Z" fill="#777B92"/>
<path fill-rule="evenodd" clip-rule="evenodd" d="M2 12C2 10.3431 3.34315 9 5 9C6.65685 9 8 10.3431 8 12C8 13.6569 6.65685 15 5 15C3.34315 15 2 13.6569 2 12ZM5 11C4.44772 11 4 11.4477 4 12C4 12.5523 4.44772 13 5 13C5.55228 13 6 12.5523 6 12C6 11.4477 5.55228 11 5 11Z" fill="#777B92"/>
<path fill-rule="evenodd" clip-rule="evenodd" d="M5 16C6.65685 16 8 17.3431 8 19C8 20.6569 6.65685 22 5 22C3.34315 22 2 20.6569 2 19C2 17.3431 3.34315 16 5 16ZM4 19C4 19.5523 4.44772 20 5 20C5.55228 20 6 19.5523 6 19C6 18.4477 5.55228 18 5 18C4.44772 18 4 18.4477 4 19Z" fill="#777B92"/>
<path fill-rule="evenodd" clip-rule="evenodd" d="M9 5C9 3.34315 10.3431 2 12 2C13.6569 2 15 3.34315 15 5C15 6.65685 13.6569 8 12 8C10.3431 8 9 6.65685 9 5ZM12 4C11.4477 4 11 4.44772 11 5C11 5.55228 11.4477 6 12 6C12.5523 6 13 5.55228 13 5C13 4.44772 12.5523 4 12 4Z" fill="#777B92"/>
<path fill-rule="evenodd" clip-rule="evenodd" d="M12 9C13.6569 9 15 10.3431 15 12C15 13.6569 13.6569 15 12 15C10.3431 15 9 13.6569 9 12C9 10.3431 10.3431 9 12 9ZM11 12C11 12.5523 11.4477 13 12 13C12.5523 13 13 12.5523 13 12C13 11.4477 12.5523 11 12 11C11.4477 11 11 11.4477 11 12Z" fill="#777B92"/>
<path fill-rule="evenodd" clip-rule="evenodd" d="M9 19C9 17.3431 10.3431 16 12 16C13.6569 16 15 17.3431 15 19C15 20.6569 13.6569 22 12 22C10.3431 22 9 20.6569 9 19ZM12 18C11.4477 18 11 18.4477 11 19C11 19.5523 11.4477 20 12 20C12.5523 20 13 19.5523 13 19C13 18.4477 12.5523 18 12 18Z" fill="#777B92"/>
<path fill-rule="evenodd" clip-rule="evenodd" d="M19 2C20.6569 2 22 3.34315 22 5C22 6.65685 20.6569 8 19 8C17.3431 8 16 6.65685 16 5C16 3.34315 17.3431 2 19 2ZM18 5C18 5.55228 18.4477 6 19 6C19.5523 6 20 5.55228 20 5C20 4.44772 19.5523 4 19 4C18.4477 4 18 4.44772 18 5Z" fill="#777B92"/>
<path fill-rule="evenodd" clip-rule="evenodd" d="M16 12C16 10.3431 17.3431 9 19 9C20.6569 9 22 10.3431 22 12C22 13.6569 20.6569 15 19 15C17.3431 15 16 13.6569 16 12ZM19 11C18.4477 11 18 11.4477 18 12C18 12.5523 18.4477 13 19 13C19.5523 13 20 12.5523 20 12C20 11.4477 19.5523 11 19 11Z" fill="#777B92"/>
<path fill-rule="evenodd" clip-rule="evenodd" d="M19 16C20.6569 16 22 17.3431 22 19C22 20.6569 20.6569 22 19 22C17.3431 22 16 20.6569 16 19C16 17.3431 17.3431 16 19 16ZM18 19C18 19.5523 18.4477 20 19 20C19.5523 20 20 19.5523 20 19C20 18.4477 19.5523 18 19 18C18.4477 18 18 18.4477 18 19Z" fill="#777B92"/>
</svg>
