<svg width="16" height="16" viewBox="0 0 16 16" fill="none" xmlns="http://www.w3.org/2000/svg">
<path fill-rule="evenodd" clip-rule="evenodd" d="M2.5 5C2.5 2.51472 4.51472 0.5 7 0.5C9.48528 0.5 11.5 2.51472 11.5 5C11.5 6.06251 11.1318 7.03901 10.516 7.80884L13.3536 10.6464C13.5488 10.8417 13.5488 11.1583 13.3536 11.3536C13.1583 11.5488 12.8417 11.5488 12.6464 11.3536L9.80884 8.51595C9.03901 9.13176 8.06251 9.5 7 9.5C4.51472 9.5 2.5 7.48528 2.5 5ZM7 1.5C5.067 1.5 3.5 3.067 3.5 5C3.5 6.933 5.067 8.5 7 8.5C8.933 8.5 10.5 6.933 10.5 5C10.5 3.067 8.933 1.5 7 1.5Z" fill="#777B92"/>
<path fill-rule="evenodd" clip-rule="evenodd" d="M1.5 13V14C1.5 14.2761 1.72386 14.5 2 14.5H14C14.2761 14.5 14.5 14.2761 14.5 14V13C14.5 12.7239 14.7239 12.5 15 12.5C15.2761 12.5 15.5 12.7239 15.5 13V14C15.5 14.8284 14.8284 15.5 14 15.5H2C1.17157 15.5 0.5 14.8284 0.5 14V13C0.5 12.7239 0.723858 12.5 1 12.5C1.27614 12.5 1.5 12.7239 1.5 13Z" fill="#777B92"/>
</svg>
