<svg width="16" height="16" viewBox="0 0 16 16" fill="none" xmlns="http://www.w3.org/2000/svg">
<path fill-rule="evenodd" clip-rule="evenodd" d="M1.35355 0.646447L15.3536 14.6464C15.5488 14.8417 15.5488 15.1583 15.3536 15.3536C15.1583 15.5488 14.8417 15.5488 14.6464 15.3536L9.36612 10.0732C9.33315 10.1086 9.29443 10.1398 9.25036 10.1653C8.88214 10.3783 8.45453 10.5001 8 10.5001C6.61929 10.5001 5.5 9.3808 5.5 8.00008C5.5 7.54555 5.62175 7.11795 5.83476 6.74972C5.86025 6.70565 5.89144 6.66694 5.92685 6.63396L0.646447 1.35355C0.451184 1.15829 0.451184 0.841709 0.646447 0.646447C0.841709 0.451184 1.15829 0.451184 1.35355 0.646447ZM8.64685 9.35396L6.64612 7.35323C6.55252 7.54867 6.5 7.7677 6.5 8.00008C6.5 8.82851 7.17157 9.50008 8 9.50008C8.23238 9.50008 8.45141 9.44757 8.64685 9.35396Z" fill="#777B92"/>
<path fill-rule="evenodd" clip-rule="evenodd" d="M7.99941 3.5C7.39752 3.5 6.77397 3.5992 6.15353 3.80025C5.89084 3.88537 5.60888 3.74141 5.52376 3.47872C5.43863 3.21602 5.58259 2.93406 5.84528 2.84894C6.56049 2.61719 7.28793 2.5 7.99941 2.5C10.6719 2.5 13.5653 4.14838 15.2358 7.34972C15.4481 7.75658 15.4487 8.24221 15.2361 8.6497C14.9174 9.26064 14.5542 9.81505 14.1564 10.3123C13.9839 10.528 13.6693 10.5629 13.4536 10.3904C13.238 10.2179 13.203 9.9033 13.3755 9.68766C13.7322 9.24176 14.0601 8.74178 14.3495 8.18713C14.4106 8.07012 14.4106 7.92997 14.3492 7.81234C12.8325 4.90564 10.2608 3.5 7.99941 3.5Z" fill="#777B92"/>
<path fill-rule="evenodd" clip-rule="evenodd" d="M2.54517 5.60955C2.76081 5.78205 2.79578 6.0967 2.62328 6.31233C2.26659 6.75824 1.93866 7.25822 1.64929 7.81287C1.58824 7.92988 1.58819 8.07003 1.64956 8.18765C3.16633 11.0944 5.73797 12.5 7.99941 12.5C8.60129 12.5 9.22484 12.4008 9.84528 12.1998C10.108 12.1146 10.3899 12.2586 10.4751 12.5213C10.5602 12.784 10.4162 13.0659 10.1535 13.1511C9.43833 13.3828 8.71089 13.5 7.99941 13.5C5.32687 13.5 2.43353 11.8516 0.763008 8.65027C0.550704 8.24342 0.550103 7.75779 0.762698 7.35031C1.08145 6.73936 1.44459 6.18496 1.84239 5.68767C2.01489 5.47203 2.32954 5.43706 2.54517 5.60955Z" fill="#777B92"/>
</svg>
