<svg width="16" height="16" viewBox="0 0 16 16" fill="none" xmlns="http://www.w3.org/2000/svg">
<path fill-rule="evenodd" clip-rule="evenodd" d="M1 0.5H13C13.1733 0.5 13.3342 0.589726 13.4253 0.737134C13.5164 0.884543 13.5247 1.06861 13.4472 1.22361L9.5 9.11803V15C9.5 15.1733 9.41027 15.3342 9.26287 15.4253C9.11546 15.5164 8.93139 15.5247 8.77639 15.4472L4.77639 13.4472C4.607 13.3625 4.5 13.1894 4.5 13V9.11803L0.552787 1.22361C0.47529 1.06861 0.483572 0.884543 0.574675 0.737134C0.665778 0.589726 0.826712 0.5 1 0.5ZM5.44721 8.77639C5.48193 8.84582 5.5 8.92238 5.5 9V12.691L8.5 14.191V9C8.5 8.92238 8.51807 8.84582 8.55279 8.77639L12.191 1.5H1.80902L5.44721 8.77639Z" fill="#777B92"/>
<path fill-rule="evenodd" clip-rule="evenodd" d="M12.5 15L10 12H15L12.5 15Z" fill="#777B92"/>
</svg>
