<svg width="16" height="16" viewBox="0 0 16 16" fill="none" xmlns="http://www.w3.org/2000/svg">
<path fill-rule="evenodd" clip-rule="evenodd" d="M1.57468 0.737134C1.66578 0.589726 1.82671 0.5 2 0.5H14C14.1733 0.5 14.3342 0.589726 14.4253 0.737134C14.5164 0.884543 14.5247 1.06861 14.4472 1.22361L10.5 9.11803V15C10.5 15.1733 10.4103 15.3342 10.2629 15.4253C10.1155 15.5164 9.93139 15.5247 9.77639 15.4472L5.77639 13.4472C5.607 13.3625 5.5 13.1894 5.5 13V9.11803L1.55279 1.22361C1.47529 1.06861 1.48357 0.884543 1.57468 0.737134ZM2.80902 1.5L6.44721 8.77639C6.48193 8.84582 6.5 8.92238 6.5 9V12.691L9.5 14.191V9C9.5 8.92238 9.51807 8.84582 9.55279 8.77639L13.191 1.5H2.80902Z" fill="#777B92"/>
</svg>
