<svg width="16" height="16" viewBox="0 0 16 16" fill="none" xmlns="http://www.w3.org/2000/svg">
<path fill-rule="evenodd" clip-rule="evenodd" d="M1 0.5H13C13.1733 0.5 13.3342 0.589726 13.4253 0.737134C13.5164 0.884543 13.5247 1.06861 13.4472 1.22361L9.5 9.11803V15C9.5 15.1733 9.41027 15.3342 9.26287 15.4253C9.11546 15.5164 8.93139 15.5247 8.77639 15.4472L4.77639 13.4472C4.607 13.3625 4.5 13.1894 4.5 13V9.11803L0.552787 1.22361C0.47529 1.06861 0.483572 0.884543 0.574675 0.737134C0.665778 0.589726 0.826712 0.5 1 0.5ZM5.44721 8.77639C5.48193 8.84582 5.5 8.92238 5.5 9V12.691L8.5 14.191V9C8.5 8.92238 8.51807 8.84582 8.55279 8.77639L12.191 1.5H1.80902L5.44721 8.77639Z" fill="#777B92"/>
<path fill-rule="evenodd" clip-rule="evenodd" d="M13.5 10V10.5854C13.7044 10.6576 13.8886 10.7729 14.0414 10.9204L14.7765 10.5529C15.0235 10.4294 15.3238 10.5295 15.4473 10.7765C15.5708 11.0235 15.4707 11.3238 15.2237 11.4473L14.4887 11.8148C14.4962 11.8755 14.5 11.9373 14.5 12C14.5 12.0628 14.4961 12.1246 14.4887 12.1854L15.2237 12.5529C15.4707 12.6764 15.5708 12.9767 15.4473 13.2237C15.3238 13.4707 15.0235 13.5708 14.7765 13.4473L14.0413 13.0797C13.8884 13.2271 13.7044 13.3424 13.5 13.4146V14C13.5 14.2761 13.2761 14.5 13 14.5C12.7239 14.5 12.5 14.2761 12.5 14V13.4146C12.2957 13.3424 12.1116 13.2272 11.9588 13.0798L11.2237 13.4473C10.9767 13.5708 10.6764 13.4707 10.5529 13.2237C10.4294 12.9767 10.5295 12.6764 10.7765 12.5529L11.5114 12.1855C11.5039 12.1247 11.5 12.0628 11.5 12C11.5 11.9373 11.5038 11.8754 11.5113 11.8147L10.7765 11.4473C10.5295 11.3238 10.4294 11.0235 10.5529 10.7765C10.6764 10.5295 10.9767 10.4294 11.2237 10.5529L11.9587 10.9204C12.1115 10.7729 12.2956 10.6576 12.5 10.5854V10C12.5 9.72386 12.7239 9.5 13 9.5C13.2761 9.5 13.5 9.72386 13.5 10ZM13.5 12C13.5 11.7239 13.2761 11.5 13 11.5C12.7239 11.5 12.5 11.7239 12.5 12C12.5 12.2761 12.7239 12.5 13 12.5C13.2761 12.5 13.5 12.2761 13.5 12Z" fill="#777B92"/>
</svg>
