<svg width="16" height="16" viewBox="0 0 16 16" fill="none" xmlns="http://www.w3.org/2000/svg">
<path fill-rule="evenodd" clip-rule="evenodd" d="M5.5 1V13.7929L6.64645 12.6464C6.84171 12.4512 7.15829 12.4512 7.35355 12.6464C7.54882 12.8417 7.54882 13.1583 7.35355 13.3536L5.35355 15.3536C5.15829 15.5488 4.84171 15.5488 4.64645 15.3536L2.64645 13.3536C2.45118 13.1583 2.45118 12.8417 2.64645 12.6464C2.84171 12.4512 3.15829 12.4512 3.35355 12.6464L4.5 13.7929V1C4.5 0.723858 4.72386 0.5 5 0.5C5.27614 0.5 5.5 0.723858 5.5 1Z" fill="#777B92"/>
<path fill-rule="evenodd" clip-rule="evenodd" d="M8.61133 5.18164H13.3897V6.19585H11.6085V10.9998H10.3926V6.19585H8.61133V5.18164Z" fill="#777B92"/>
</svg>
