<svg width="24" height="24" viewBox="0 0 24 24" fill="none" xmlns="http://www.w3.org/2000/svg">
<path fill-rule="evenodd" clip-rule="evenodd" d="M3 2C1.89543 2 1 2.89543 1 4V16C1 17.1046 1.89543 18 3 18H21C22.1046 18 23 17.1046 23 16V4C23 2.89543 22.1046 2 21 2H3ZM3 4L21 4V16H3V4ZM15 8C13.8954 8 13 8.89543 13 10V12C13 13.1046 13.8954 14 15 14H17C18.1046 14 19 13.1046 19 12V10C19 8.89543 18.1046 8 17 8H15ZM15 10H17V12H15V10ZM1 21C1 20.4477 1.44772 20 2 20H22C22.5523 20 23 20.4477 23 21C23 21.5523 22.5523 22 22 22H2C1.44772 22 1 21.5523 1 21ZM7 11C7 10.4477 6.55228 10 6 10C5.44772 10 5 10.4477 5 11V13C5 13.5523 5.44772 14 6 14C6.55228 14 7 13.5523 7 13V11ZM7 7C7 7.55228 6.55228 8 6 8C5.44772 8 5 7.55228 5 7C5 6.44772 5.44772 6 6 6C6.55228 6 7 6.44772 7 7ZM10 8C10.5523 8 11 7.55228 11 7C11 6.44772 10.5523 6 10 6C9.44771 6 9 6.44772 9 7C9 7.55228 9.44771 8 10 8Z" fill="#777B92"/>
</svg>
