<svg width="24" height="24" viewBox="0 0 24 24" fill="none" xmlns="http://www.w3.org/2000/svg">
<path fill-rule="evenodd" clip-rule="evenodd" d="M5.01395 2.11247C3.99492 1.99259 3.05048 2.66329 2.82789 3.66492L1.10621 11.4125C1.09001 11.4854 1.07798 11.5588 1.07006 11.6324C1.0634 11.6493 1.05715 11.6664 1.05134 11.6839C0.941117 12.0145 1.01325 12.3621 1.21319 12.6174C1.24168 12.6856 1.27406 12.7525 1.31027 12.8176L5.84012 20.9714C6.19285 21.6063 6.8621 22.0001 7.58843 22.0001H18.256C18.4052 22.0001 18.5515 21.9835 18.6927 21.952C19.0878 22.0796 19.537 21.9508 19.8 21.6001C19.9395 21.4141 20.0044 21.1953 19.9999 20.9796C20.0708 20.8533 20.1287 20.7179 20.1716 20.5748L22.8911 11.51C22.9042 11.4664 22.9157 11.4225 22.9258 11.3783C23.0062 11.1815 23.0245 10.9586 22.966 10.7412C22.9616 10.6962 22.9557 10.6512 22.9482 10.6065L22.1099 5.57667C21.9636 4.69875 21.2547 4.02316 20.3708 3.91916L5.01395 2.11247ZM20.877 10.3444L20.1371 5.90547L4.78027 4.09878L3.17186 11.3366L10.9857 13.9412L20.877 10.3444ZM4.12268 13.7617L7.58843 20.0001H16L10.5298 15.8975L4.12268 13.7617ZM18.4539 19.3405L20.4698 12.6206L13.078 15.3085L18.4539 19.3405Z" fill="#777B92"/>
</svg>
