<svg width="23" height="24" viewBox="0 0 23 24" fill="none" xmlns="http://www.w3.org/2000/svg">
<path fill-rule="evenodd" clip-rule="evenodd" d="M11.1055 2.32907C11.6686 2.04754 12.3313 2.04754 12.8944 2.32907L19.8944 5.82907C20.0044 5.88409 20.1079 5.94844 20.204 6.02088C20.4928 6.08127 20.7522 6.26829 20.8944 6.55267C21.0077 6.77919 21.0269 7.02815 20.9669 7.25515C20.9887 7.37353 21 7.49487 21 7.61792V16.3819C21 17.1394 20.572 17.8319 19.8944 18.1707L12.8944 21.6707C12.806 21.7149 12.7151 21.7522 12.6225 21.7825C12.4517 21.9186 12.2353 21.9999 12 21.9999C11.7646 21.9999 11.5482 21.9186 11.3774 21.7825C11.2849 21.7522 11.194 21.7149 11.1055 21.6707L4.10555 18.1707C3.42798 17.8319 2.99997 17.1394 2.99997 16.3819V7.61792C2.99997 7.49487 3.01127 7.37353 3.03309 7.25515C2.97307 7.02815 2.99229 6.77919 3.10555 6.55267C3.24774 6.26829 3.50715 6.08127 3.79593 6.02088C3.89205 5.94844 3.99551 5.88409 4.10555 5.82907L11.1055 2.32907ZM13 19.3819L19 16.3819V8.61792L13 11.6179V19.3819ZM11 11.6179V19.3819L4.99997 16.3819V8.61792L11 11.6179ZM12 4.11792L17.7639 6.99989L12 9.88185L6.23604 6.99989L12 4.11792Z" fill="#777B92"/>
</svg>
