<svg width="24" height="24" viewBox="0 0 24 24" fill="none" xmlns="http://www.w3.org/2000/svg">
<path fill-rule="evenodd" clip-rule="evenodd" d="M19.0001 2C19.0001 2.55228 18.5524 3 18.0001 3C17.4478 3 17.0001 2.55228 17.0001 2C17.0001 1.44772 17.4478 1 18.0001 1C18.5524 1 19.0001 1.44772 19.0001 2ZM13.0001 3C13.0001 3.55228 12.5524 4 12.0001 4C11.4478 4 11.0001 3.55228 11.0001 3C11.0001 2.44772 11.4478 2 12.0001 2C12.5524 2 13.0001 2.44772 13.0001 3ZM9.00011 6C9.55239 6 10.0001 5.55228 10.0001 5C10.0001 4.44772 9.55239 4 9.00011 4C8.44782 4 8.0001 4.44772 8.0001 5C8.0001 5.55228 8.44782 6 9.00011 6ZM8.80852 7C7.86544 7 7.05052 7.6588 6.85292 8.58094L4.28149 20.5809C4.0147 21.826 4.9638 23 6.23709 23H15.7631C17.0364 23 17.9855 21.826 17.7187 20.5809L15.1473 8.58094C14.9497 7.6588 14.1348 7 13.1917 7H8.80852ZM13.1917 9L13.6203 11H8.37995L8.80852 9H13.1917ZM7.95163 12.9988L7.30852 16H14.6917L14.0486 12.9988C14.0325 12.9996 14.0164 13 14.0001 13H8.0001C7.98385 13 7.96769 12.9996 7.95163 12.9988ZM6.23709 21L6.88144 17.993C6.92036 17.9976 6.95995 18 7.0001 18H15.0001C15.0403 18 15.0799 17.9976 15.1188 17.993L15.7631 21H6.23709ZM15.0001 6C15.5524 6 16.0001 5.55228 16.0001 5C16.0001 4.44772 15.5524 4 15.0001 4C14.4478 4 14.0001 4.44772 14.0001 5C14.0001 5.55228 14.4478 6 15.0001 6ZM19.0001 7C19.5524 7 20.0001 6.55228 20.0001 6C20.0001 5.44772 19.5524 5 19.0001 5C18.4478 5 18.0001 5.44772 18.0001 6C18.0001 6.55228 18.4478 7 19.0001 7Z" fill="#777B92"/>
</svg>
