<svg width="24" height="24" viewBox="0 0 24 24" fill="none" xmlns="http://www.w3.org/2000/svg">
<path fill-rule="evenodd" clip-rule="evenodd" d="M11.0936 4.97653C11.3066 4.4047 11.8573 4 12.5 4C13.2369 4 13.8516 4.53243 13.9766 5.23376C14.0244 5.50166 14.1793 5.73853 14.4055 5.88971C14.6318 6.04089 14.9099 6.09333 15.1757 6.03494C15.2792 6.01219 15.3876 6 15.5 6C16.3284 6 17 6.67157 17 7.5C17 8.05228 17.4477 8.5 18 8.5C18.5523 8.5 19 8.05228 19 7.5C19 5.62221 17.5212 4.0898 15.6647 4.00381C15.1038 2.81924 13.8982 2 12.5 2C11.4203 2 10.4561 2.48862 9.81456 3.25554C9.40849 3.09085 8.96453 3 8.5 3C6.56701 3 5 4.567 5 6.5C5 8.433 6.56701 10 8.5 10C9.57967 10 10.5439 9.51138 11.1854 8.74446C11.5915 8.90915 12.0355 9 12.5 9C12.7576 9 13.0099 8.97199 13.2535 8.91847C13.7929 8.79996 14.1341 8.2666 14.0156 7.72718C13.8971 7.18776 13.3637 6.84655 12.8243 6.96506C12.7208 6.98781 12.6124 7 12.5 7C12.1181 7 11.7716 6.85858 11.5064 6.62375C11.2596 6.40526 10.921 6.32242 10.6012 6.40232C10.2814 6.48221 10.0215 6.71457 9.90642 7.02347C9.69344 7.5953 9.14272 8 8.5 8C7.67158 8 7 7.32843 7 6.5C7 5.67157 7.67158 5 8.5 5C8.88191 5 9.22836 5.14142 9.49361 5.37625C9.74042 5.59474 10.079 5.67758 10.3988 5.59769C10.7186 5.51779 10.9785 5.28543 11.0936 4.97653ZM5 12C5 11.4477 5.44772 11 6 11H7C7.55229 11 8 11.4477 8 12C8 12.5523 7.55229 13 7 13V14C7 14.1354 6.9725 14.2694 6.91915 14.3939L4.51654 20H6.34061L9 13.7947V12C9 11.4477 9.44772 11 10 11H12C12.5523 11 13 11.4477 13 12C13 12.5523 12.5523 13 12 13H11V14C11 14.1354 10.9725 14.2694 10.9191 14.3939L8.51654 20H11.3406L14 13.7947V12C14 11.4477 14.4477 11 15 11H18C18.5523 11 19 11.4477 19 12V13.7947L21.9104 20.5857C21.9416 20.654 21.9652 20.7264 21.9804 20.8019C22.0338 21.0649 21.9776 21.3337 21.835 21.5505C21.6908 21.7687 21.4635 21.9271 21.1981 21.9804C21.1247 21.9953 21.0509 22.0017 20.9779 22H12.0221C12.0071 22.0003 11.992 22.0003 11.977 22H7.02208C7.00708 22.0003 6.99205 22.0003 6.97699 22H3C2.66386 22 2.35021 21.8311 2.16516 21.5505C1.98012 21.2699 1.94845 20.915 2.08086 20.6061L5 13.7947V12ZM19.4835 20H13.5165L15.9191 14.3939C15.9725 14.2694 16 14.1354 16 14V13H17V14C17 14.1354 17.0275 14.2694 17.0809 14.3939L19.4835 20Z" fill="#777B92"/>
</svg>
