<svg width="24" height="24" viewBox="0 0 24 24" fill="none" xmlns="http://www.w3.org/2000/svg">
<path fill-rule="evenodd" clip-rule="evenodd" d="M8.39345 7.96239C9.69122 6.24486 11.1857 4.92537 12 4.26447C12.8143 4.92537 14.3088 6.24486 15.6065 7.96239C16.9498 9.74016 18 11.8354 18 13.9999C18 15.2621 17.6307 16.4303 16.9847 17.3941C16.9948 17.264 17 17.1326 17 16.9999C17 12.7682 14.4243 9.869 13.2508 8.76196C12.5423 8.09349 11.4577 8.09349 10.7492 8.76196C9.57571 9.869 7 12.7682 7 16.9999C7 17.1326 7.00517 17.264 7.01531 17.3941C6.3693 16.4303 6 15.2621 6 13.9999C6 11.8354 7.05016 9.74016 8.39345 7.96239ZM12 19.9999C12.0016 19.9999 12.0032 19.9999 12.0049 19.9999C13.6595 19.9973 15 18.6551 15 16.9999C15 13.7238 13.0655 11.3737 12 10.3335C10.9345 11.3737 9 13.7238 9 16.9999C9 18.6567 10.3431 19.9999 12 19.9999ZM11.996 21.9999C7.43318 21.9978 4 18.4043 4 13.9999C4 11.2085 5.33768 8.68901 6.79775 6.75667C8.26819 4.81063 9.94667 3.34933 10.8109 2.65394C11.5099 2.09159 12.4901 2.09159 13.189 2.65394C14.0533 3.34932 15.7318 4.81063 17.2022 6.75667C18.6623 8.68901 20 11.2085 20 13.9999C20 18.4056 16.5648 21.9999 12 21.9999C11.9987 21.9999 11.9973 21.9999 11.996 21.9999Z" fill="#777B92"/>
</svg>
