<svg width="24" height="24" viewBox="0 0 24 24" fill="none" xmlns="http://www.w3.org/2000/svg">
<path fill-rule="evenodd" clip-rule="evenodd" d="M1 4C1 2.89543 1.89543 2 3 2H14H17C18.1046 2 19 2.89543 19 4V7H21V6C21 5.44772 21.4477 5 22 5C22.5523 5 23 5.44772 23 6V8V12V14C23 14.5523 22.5523 15 22 15C21.4477 15 21 14.5523 21 14V13H19V16C19 17.1046 18.1046 18 17 18H14H3C1.89543 18 1 17.1046 1 16V12V8V4ZM15 16H17V12V11H15V12V16ZM13 13V16H3V13H13ZM13 10V11H3V9H13V10ZM15 9H17V8V4H15V8V9ZM13 7V4L3 4V7H13ZM19 9H21V11H19V10V9ZM1 21C1 20.4477 1.44772 20 2 20H22C22.5523 20 23 20.4477 23 21C23 21.5523 22.5523 22 22 22H2C1.44772 22 1 21.5523 1 21Z" fill="#777B92"/>
</svg>
