<svg width="24" height="24" viewBox="0 0 24 24" fill="none" xmlns="http://www.w3.org/2000/svg">
<path fill-rule="evenodd" clip-rule="evenodd" d="M22.7071 7.2929C23.0976 7.68342 23.0976 8.31659 22.7071 8.70711L20.7071 10.7071C20.3166 11.0976 19.6834 11.0976 19.2929 10.7071L17.2929 8.70711C16.9024 8.31659 16.9024 7.68342 17.2929 7.2929C17.6834 6.90237 18.3166 6.90237 18.7071 7.2929L19 7.58579V6C19 5.44772 18.5523 5 18 5L6 5C5.44772 5 5 5.44772 5 6L5 10C5 10.5523 4.55228 11 4 11C3.44772 11 3 10.5523 3 10L3 6C3 4.34315 4.34315 3 6 3H18C19.6569 3 21 4.34315 21 6V7.58579L21.2929 7.2929C21.6834 6.90237 22.3166 6.90237 22.7071 7.2929ZM11.3568 6.2343C11.7287 5.9219 12.2713 5.9219 12.6432 6.2343C15.006 8.21909 16 10.8069 16 12.85C16 15.0954 14.2546 17 12 17C9.74544 17 8 15.0954 8 12.85C8 10.8069 8.99396 8.21909 11.3568 6.2343ZM12 8.36562C10.5573 9.86185 10 11.5867 10 12.85C10 14.084 10.9408 15 12 15C13.0592 15 14 14.084 14 12.85C14 11.5867 13.4427 9.86185 12 8.36562ZM1.29289 15.2929C0.902369 15.6834 0.902369 16.3166 1.29289 16.7071C1.68342 17.0976 2.31658 17.0976 2.70711 16.7071L3 16.4142L3 18C3 19.6569 4.34315 21 6 21H18C19.6569 21 21 19.6569 21 18V14C21 13.4477 20.5523 13 20 13C19.4477 13 19 13.4477 19 14V18C19 18.5523 18.5523 19 18 19H6C5.44771 19 5 18.5523 5 18V16.4142L5.29289 16.7071C5.68342 17.0976 6.31658 17.0976 6.70711 16.7071C7.09763 16.3166 7.09763 15.6834 6.70711 15.2929L4.70711 13.2929C4.31658 12.9024 3.68342 12.9024 3.29289 13.2929L1.29289 15.2929Z" fill="#777B92"/>
</svg>
