<svg width="24" height="24" viewBox="0 0 24 24" fill="none" xmlns="http://www.w3.org/2000/svg">
<path fill-rule="evenodd" clip-rule="evenodd" d="M12.6432 2.2343C12.2713 1.9219 11.7287 1.9219 11.3568 2.2343C6.85111 6.01909 5 10.9172 5 14.7C5 18.6851 8.08859 22 12 22C15.9114 22 19 18.6851 19 14.7C19 10.9172 17.1489 6.01909 12.6432 2.2343ZM7 14.7C7 11.6972 8.41008 7.6512 12 4.33246C15.5899 7.6512 17 11.6972 17 14.7C17 17.6736 14.716 20 12 20C9.28399 20 7 17.6736 7 14.7ZM11 15C11 14.4477 10.5523 14 10 14C9.44772 14 9 14.4477 9 15C9 16.6569 10.3431 18 12 18C12.5523 18 13 17.5523 13 17C13 16.4477 12.5523 16 12 16C11.4477 16 11 15.5523 11 15Z" fill="#777B92"/>
</svg>
