<svg width="24" height="24" viewBox="0 0 24 24" fill="none" xmlns="http://www.w3.org/2000/svg">
<path fill-rule="evenodd" clip-rule="evenodd" d="M11 4H9C8.44772 4 8 3.55228 8 3C8 2.44772 8.44772 2 9 2H12H15C15.5523 2 16 2.44772 16 3C16 3.55228 15.5523 4 15 4H13V9H15H16C16.5523 9 17 9.44772 17 10C17 10.5523 16.5523 11 16 11V13H20C20 12.4477 20.4477 12 21 12C21.5523 12 22 12.4477 22 13V14C22 14.1465 21.9685 14.2857 21.9119 14.4111C21.9692 14.5972 22 14.795 22 15V19C22 19.205 21.9692 19.4028 21.9119 19.5889C21.9685 19.7143 22 19.8535 22 20V21C22 21.5523 21.5523 22 21 22C20.4477 22 20 21.5523 20 21H4C4 21.5523 3.55228 22 3 22C2.44772 22 2 21.5523 2 21V20C2 19.8535 2.03151 19.7143 2.08812 19.5889C2.03084 19.4028 2 19.205 2 19V15C2 14.795 2.03084 14.5972 2.08812 14.4111C2.03151 14.2857 2 14.1465 2 14V13C2 12.4477 2.44772 12 3 12C3.55228 12 4 12.4477 4 13H8V11C7.44772 11 7 10.5523 7 10C7 9.44772 7.44772 9 8 9H9H11V4ZM4 15H9H15H20V19H4V15ZM10 13V11H12H14V13H10Z" fill="#777B92"/>
</svg>
