<svg width="24" height="24" viewBox="0 0 24 24" fill="none" xmlns="http://www.w3.org/2000/svg">
<path fill-rule="evenodd" clip-rule="evenodd" d="M2 3C2 2.44772 2.44772 2 3 2H4C4.14652 2 4.28567 2.03151 4.41106 2.08812C4.59725 2.03084 4.79502 2 5 2H9C9.20498 2 9.40275 2.03084 9.58894 2.08812C9.71433 2.03151 9.85348 2 10 2H11C11.5523 2 12 2.44772 12 3C12 3.55228 11.5523 4 11 4V7V8H15C18.3137 8 21 10.6863 21 14V17V20C21.5523 20 22 20.4477 22 21C22 21.5523 21.5523 22 21 22H20C19.8535 22 19.7143 21.9685 19.5889 21.9119C19.4028 21.9692 19.205 22 19 22H15C14.795 22 14.5972 21.9692 14.4111 21.9119C14.2857 21.9685 14.1465 22 14 22H13C12.4477 22 12 21.5523 12 21C12 20.4477 12.4477 20 13 20V17V16H9C5.68629 16 3 13.3137 3 10V7V4C2.44772 4 2 3.55228 2 3ZM5 8V10C5 12.2091 6.79086 14 9 14H13C14.1046 14 15 14.8954 15 16H19V14C19 11.7909 17.2091 10 15 10H11C9.89543 10 9 9.10457 9 8H5ZM9 6H5V4L9 4V6ZM19 18H15V20H19V18Z" fill="#777B92"/>
</svg>
