<svg width="24" height="24" viewBox="0 0 24 24" fill="none" xmlns="http://www.w3.org/2000/svg">
<path fill-rule="evenodd" clip-rule="evenodd" d="M2 6C2 3.79086 3.79086 2 6 2H18C20.2091 2 22 3.79086 22 6V9C22 10.6412 20.6599 12.0367 18.9524 11.9551C18.1867 11.9185 17.5483 11.8617 17 11.7933V14H20C21.1046 14 22 14.8954 22 16V18C22 19.1046 21.1046 20 20 20H16.0004C15.0882 21.2144 13.6358 22 12 22C10.3642 22 8.91184 21.2144 7.99963 20H4C2.89543 20 2 19.1046 2 18V16C2 14.8954 2.89543 14 4 14H7V11.7933C6.45173 11.8617 5.81332 11.9185 5.0476 11.9551C3.3401 12.0367 2 10.6412 2 9V6ZM9 11.4339V12.9996C9.83566 12.3719 10.8744 12 12 12C13.1256 12 14.1643 12.3719 15 12.9996V11.4339C14.9203 11.4155 14.8423 11.3972 14.7655 11.3791L14.6467 11.351L14.6467 11.351C13.8064 11.152 13.1647 11 12 11C10.8353 11 10.1936 11.152 9.35328 11.351L9.35327 11.351L9.23454 11.3791C9.15775 11.3972 9.0797 11.4155 9 11.4339ZM6 4C4.89543 4 4 4.89543 4 6V9C4 9.56797 4.453 9.98124 4.95212 9.95739C6.88905 9.8648 7.90433 9.6382 8.77491 9.43262L8.90083 9.40282C9.7732 9.19606 10.6004 9 12 9C13.3996 9 14.2268 9.19606 15.0992 9.40282L15.2251 9.43262C16.0957 9.6382 17.111 9.8648 19.0479 9.95739C19.547 9.98124 20 9.56797 20 9V6C20 4.89543 19.1046 4 18 4H6ZM12 14C10.3431 14 9 15.3431 9 17C9 18.6569 10.3431 20 12 20C13.6569 20 15 18.6569 15 17C15 15.3431 13.6569 14 12 14ZM7.10002 16H4V18H7.10002C7.03443 17.6769 7 17.3425 7 17C7 16.6575 7.03443 16.3231 7.10002 16ZM17 17C17 16.6575 16.9656 16.3231 16.9 16H20V18H16.9C16.9656 17.6769 17 17.3425 17 17ZM12 18C12.5523 18 13 17.5523 13 17C13 16.4477 12.5523 16 12 16C11.4477 16 11 16.4477 11 17C11 17.5523 11.4477 18 12 18Z" fill="#777B92"/>
</svg>
