<svg width="24" height="24" viewBox="0 0 24 24" fill="none" xmlns="http://www.w3.org/2000/svg">
<path fill-rule="evenodd" clip-rule="evenodd" d="M6.22153 5.71449C4.77996 6.75562 4 8.10692 4 9.5C4 10.6063 4.49362 11.6892 5.41915 12.6086C6.39632 9.92017 8.97392 8 12 8C15.0261 8 17.6037 9.92017 18.5809 12.6086C19.5064 11.6892 20 10.6063 20 9.5C20 8.10692 19.22 6.75562 17.7785 5.71449C16.3382 4.67431 14.2984 4 12 4C9.70156 4 7.66178 4.67431 6.22153 5.71449ZM2 9.5C2 11.6777 3.21075 13.5583 5.00117 14.8708C5.00039 14.9138 5 14.9568 5 15C5 15.3395 5.02417 15.6734 5.07089 16H4C2.89543 16 2 16.8954 2 18V20C2 21.1046 2.89543 22 4 22H12H20C21.1046 22 22 21.1046 22 20V18C22 16.8954 21.1046 16 20 16H18.9291C18.9758 15.6734 19 15.3395 19 15C19 14.9568 18.9996 14.9138 18.9988 14.8708C20.7892 13.5583 22 11.6777 22 9.5C22 7.30323 20.7652 5.40453 18.9495 4.09313C17.1323 2.78077 14.6721 2 12 2C9.32788 2 6.86766 2.78077 5.05055 4.09313C3.23476 5.40453 2 7.30323 2 9.5ZM7.10102 20H4V18H5.67363C6.02973 18.7496 6.51513 19.4259 7.10102 20ZM12 20C14.7614 20 17 17.7614 17 15C17 12.2386 14.7614 10 12 10C9.23858 10 7 12.2386 7 15C7 17.7614 9.23858 20 12 20ZM20 20H16.899C17.4849 19.4259 17.9703 18.7496 18.3264 18H20V20ZM12 14C12.5523 14 13 13.5523 13 13C13 12.4477 12.5523 12 12 12C11.4477 12 11 12.4477 11 13C11 13.5523 11.4477 14 12 14ZM12 18C12.5523 18 13 17.5523 13 17C13 16.4477 12.5523 16 12 16C11.4477 16 11 16.4477 11 17C11 17.5523 11.4477 18 12 18ZM15 15C15 15.5523 14.5523 16 14 16C13.4477 16 13 15.5523 13 15C13 14.4477 13.4477 14 14 14C14.5523 14 15 14.4477 15 15ZM10 16C10.5523 16 11 15.5523 11 15C11 14.4477 10.5523 14 10 14C9.44772 14 9 14.4477 9 15C9 15.5523 9.44772 16 10 16Z" fill="#777B92"/>
</svg>
