<svg width="24" height="24" viewBox="0 0 24 24" fill="none" xmlns="http://www.w3.org/2000/svg">
<path fill-rule="evenodd" clip-rule="evenodd" d="M2 7C2 4.23858 4.23858 2 7 2H17C19.7614 2 22 4.23858 22 7V12C22 17.5228 17.5228 22 12 22C6.47715 22 2 17.5228 2 12V7ZM5 4.76389C4.38625 5.31321 4 6.1115 4 7V12C4 16.4183 7.58172 20 12 20C16.4183 20 20 16.4183 20 12V7C20 6.1115 19.6137 5.31321 19 4.76389V7C19 7.55228 18.5523 8 18 8H6C5.44772 8 5 7.55228 5 7V4.76389ZM7 4V6H17V4H7ZM10 14C10 12.8954 10.8954 12 12 12C13.1046 12 14 12.8954 14 14C14 15.1046 13.1046 16 12 16C10.8954 16 10 15.1046 10 14ZM12 10C9.79086 10 8 11.7909 8 14C8 16.2091 9.79086 18 12 18C14.2091 18 16 16.2091 16 14C16 11.7909 14.2091 10 12 10ZM12 15C12.5523 15 13 14.5523 13 14C13 13.4477 12.5523 13 12 13C11.4477 13 11 13.4477 11 14C11 14.5523 11.4477 15 12 15Z" fill="#777B92"/>
</svg>
