<svg width="24" height="24" viewBox="0 0 24 24" fill="none" xmlns="http://www.w3.org/2000/svg">
<path fill-rule="evenodd" clip-rule="evenodd" d="M3 2C2.44772 2 2 2.44772 2 3C2 3.55228 2.44772 4 3 4H4V18C4 20.2091 5.79086 22 8 22C10.2091 22 12 20.2091 12 18V4H13C13.5523 4 14 3.55228 14 3C14 2.44772 13.5523 2 13 2H3ZM10 4H6V8H10V4ZM6 18V10H10V18C10 19.1046 9.10457 20 8 20C6.89543 20 6 19.1046 6 18ZM15 7C15.5523 7 16 7.44772 16 8V8.25736C16.2908 8.15452 16.593 8.08133 16.9021 8.03989C17.8405 7.91411 18.7947 8.08749 19.6288 8.53537C20.4629 8.98325 21.1345 9.68281 21.5481 10.5345C21.9616 11.3862 22.096 12.3466 21.932 13.2791C21.7681 14.2115 21.3143 15.0686 20.6351 15.7282C19.9559 16.3878 19.086 16.8164 18.1491 16.9529C17.2123 17.0895 16.2562 16.9271 15.417 16.4889C14.5777 16.0506 13.8981 15.3588 13.4748 14.5119C13.2279 14.0179 13.4282 13.4173 13.9222 13.1704C14.4162 12.9234 15.0169 13.1237 15.2638 13.6177C15.499 14.0882 15.8765 14.4726 16.3428 14.716C16.809 14.9595 17.3402 15.0497 17.8606 14.9739C18.3811 14.898 18.8644 14.6599 19.2417 14.2934C19.6191 13.927 19.8712 13.4509 19.9622 12.9328C20.0533 12.4148 19.9787 11.8812 19.7489 11.4081C19.5192 10.9349 19.1461 10.5463 18.6827 10.2974C18.2193 10.0486 17.6892 9.95228 17.1679 10.0222C17.0805 10.0339 16.9941 10.0502 16.909 10.0708L17.0547 10.1679C17.5142 10.4743 17.6384 11.0952 17.3321 11.5547C17.0257 12.0142 16.4048 12.1384 15.9453 11.8321L14.4453 10.8321C14.1671 10.6466 14 10.3344 14 10V8C14 7.44772 14.4477 7 15 7Z" fill="#777B92"/>
</svg>
