<svg width="24" height="24" viewBox="0 0 24 24" fill="none" xmlns="http://www.w3.org/2000/svg">
<path fill-rule="evenodd" clip-rule="evenodd" d="M13 2C10.2386 2 8 4.23858 8 7V8L3 8C2.44772 8 2 8.44772 2 9C2 9.55228 2.44772 10 3 10L8 10L8 20H5C4.44772 20 4 20.4477 4 21C4 21.5523 4.44772 22 5 22H9C9.14652 22 9.28567 21.9685 9.41106 21.9119C9.59725 21.9692 9.79502 22 10 22H16C16.205 22 16.4028 21.9692 16.5889 21.9119C16.7143 21.9685 16.8535 22 17 22H19C19.5523 22 20 21.5523 20 21C20 20.4477 19.5523 20 19 20H18V13H20C21.1046 13 22 12.1046 22 11V9C22 7.89543 21.1046 7 20 7H18C18 4.23858 15.7614 2 13 2ZM20 11H18V9H20V11ZM16 7V8L16 12V20H10L10 9V7C10 5.34315 11.3431 4 13 4C14.6569 4 16 5.34315 16 7ZM3.5 15C4.32843 15 5 14.3284 5 13.5C5 12.6716 3.5 11 3.5 11C3.5 11 2 12.6716 2 13.5C2 14.3284 2.67157 15 3.5 15Z" fill="#777B92"/>
</svg>
