<svg width="24" height="24" viewBox="0 0 24 24" fill="none" xmlns="http://www.w3.org/2000/svg">
<path fill-rule="evenodd" clip-rule="evenodd" d="M5.00001 5C5.00001 3.34315 6.34315 2 8.00001 2H16C17.6569 2 19 3.34315 19 5V14.9799C19.0003 14.9938 19.0003 15.0077 19 15.0217V19C19 20.6569 17.6569 22 16 22H8.00001C6.34315 22 5.00001 20.6569 5.00001 19V13.0201C4.99971 13.0062 4.99971 12.9923 5.00001 12.9783V5ZM7.00001 14.618V19C7.00001 19.5523 7.44772 20 8.00001 20H16C16.5523 20 17 19.5523 17 19V15.618L15.5528 14.8944C14.5753 14.4057 13.4247 14.4057 12.4472 14.8944C10.9067 15.6647 9.09335 15.6647 7.55279 14.8944L7.00001 14.618ZM17 13.382V7.82929C16.6872 7.93985 16.3506 8 16 8H8.00001C7.64937 8 7.31278 7.93985 7.00001 7.82929V12.382L8.44722 13.1056C9.42472 13.5943 10.5753 13.5943 11.5528 13.1056C13.0933 12.3353 14.9067 12.3353 16.4472 13.1056L17 13.382ZM16 4H8.00001C7.44772 4 7.00001 4.44772 7.00001 5C7.00001 5.55228 7.44772 6 8.00001 6H16C16.5523 6 17 5.55228 17 5C17 4.44772 16.5523 4 16 4Z" fill="#777B92"/>
</svg>
