<svg width="24" height="24" viewBox="0 0 24 24" fill="none" xmlns="http://www.w3.org/2000/svg">
<path fill-rule="evenodd" clip-rule="evenodd" d="M14 8C13.4477 8 13 7.55228 13 7C13 6.44772 13.4477 6 14 6C14.5523 6 15 6.44772 15 7C15 7.55228 14.5523 8 14 8Z" fill="#777B92"/>
<path fill-rule="evenodd" clip-rule="evenodd" d="M11 7C11 7.55228 10.5523 8 10 8C9.44772 8 9 7.55228 9 7C9 6.44772 9.44772 6 10 6C10.5523 6 11 6.44772 11 7Z" fill="#777B92"/>
<path fill-rule="evenodd" clip-rule="evenodd" d="M5 2H17C18.1046 2 19 2.89543 19 4H21C22.1046 4 23 4.89543 23 6V10C23 11.1046 22.1046 12 21 12H19C19 13.1046 18.1046 14 17 14H15V16C16.1046 16 17 16.8954 17 18V20C17 21.1046 16.1046 22 15 22H9C7.89543 22 7 21.1046 7 20V18C7 16.8954 7.89543 16 9 16V14H5C2.79086 14 1 12.2091 1 10V6C1 3.79086 2.79086 2 5 2ZM17 4H7L7 12H17V4ZM19 10H21V6H19V10ZM3 6V10C3 11.1046 3.89543 12 5 12V4C3.89543 4 3 4.89543 3 6ZM11 16H13V14H11V16ZM9 18V20H15V18H9Z" fill="#777B92"/>
</svg>
