<svg width="24" height="24" viewBox="0 0 24 24" fill="none" xmlns="http://www.w3.org/2000/svg">
<path fill-rule="evenodd" clip-rule="evenodd" d="M16 8C16 8.55228 15.5523 9 15 9C14.4477 9 14 8.55228 14 8C14 7.44772 14.4477 7 15 7C15.5523 7 16 7.44772 16 8Z" fill="#777B92"/>
<path fill-rule="evenodd" clip-rule="evenodd" d="M12 1C18.0751 1 23 5.92487 23 12C23 18.0751 18.0751 23 12 23C5.92487 23 1 18.0751 1 12C1 5.92487 5.92487 1 12 1ZM3 12C3 16.6326 6.50005 20.4476 11 20.9451V14.9326C9.68853 14.7506 8.54015 14.2046 7.66786 13.3322C6.58011 12.2444 6 10.7272 6 9C6 8.44772 6.44772 8 7 8C8.72725 8 10.2443 8.58012 11.3321 9.66795C12.0787 10.4145 12.5861 11.3633 12.831 12.4435C12.8405 12.4576 12.8496 12.472 12.8583 12.4866C13.9296 11.5158 15.3713 11 17 11C17.5523 11 18 11.4477 18 12C18 13.7271 17.4199 15.2441 16.3321 16.3318C15.4598 17.2041 14.3114 17.75 13 17.9322V20.9451C17.5 20.4476 21 16.6326 21 12C21 7.02944 16.9706 3 12 3C7.02944 3 3 7.02944 3 12ZM14.9179 14.9176C15.3705 14.465 15.7098 13.8628 15.8794 13.1206C15.1371 13.2901 14.5347 13.6295 14.0821 14.0821C13.6296 14.5347 13.2902 15.137 13.1206 15.8792C13.8629 15.7096 14.4653 15.3702 14.9179 14.9176ZM8.12059 10.1206C8.29012 10.863 8.62953 11.4654 9.08214 11.9181C9.53474 12.3707 10.1371 12.7102 10.8794 12.8797C10.7099 12.1372 10.3705 11.5348 9.91788 11.0821C9.4653 10.6295 8.86292 10.2901 8.12059 10.1206Z" fill="#777B92"/>
</svg>
