<svg width="24" height="24" viewBox="0 0 24 24" fill="none" xmlns="http://www.w3.org/2000/svg">
<path fill-rule="evenodd" clip-rule="evenodd" d="M12 14C11.4477 14 11 13.5523 11 13C11 12.4477 11.4477 12 12 12C12.5523 12 13 12.4477 13 13C13 13.5523 12.5523 14 12 14Z" fill="#777B92"/>
<path fill-rule="evenodd" clip-rule="evenodd" d="M12 18C11.4477 18 11 17.5523 11 17C11 16.4477 11.4477 16 12 16C12.5523 16 13 16.4477 13 17C13 17.5523 12.5523 18 12 18Z" fill="#777B92"/>
<path fill-rule="evenodd" clip-rule="evenodd" d="M15 15C15 15.5523 14.5523 16 14 16C13.4477 16 13 15.5523 13 15C13 14.4477 13.4477 14 14 14C14.5523 14 15 14.4477 15 15Z" fill="#777B92"/>
<path fill-rule="evenodd" clip-rule="evenodd" d="M10 16C9.44772 16 9 15.5523 9 15C9 14.4477 9.44772 14 10 14C10.5523 14 11 14.4477 11 15C11 15.5523 10.5523 16 10 16Z" fill="#777B92"/>
<path fill-rule="evenodd" clip-rule="evenodd" d="M2 9.5C2 7.30323 3.23476 5.40453 5.05055 4.09313C6.86766 2.78077 9.32788 2 12 2C14.6721 2 17.1323 2.78077 18.9495 4.09313C20.7652 5.40453 22 7.30323 22 9.5C22 11.6777 20.7892 13.5583 18.9988 14.8708C18.9996 14.9138 19 14.9568 19 15C19 15.3395 18.9758 15.6734 18.9291 16H20C21.1046 16 22 16.8954 22 18V20C22 21.1046 21.1046 22 20 22H4C2.89543 22 2 21.1046 2 20V18C2 16.8954 2.89543 16 4 16H5.07089C5.02417 15.6734 5 15.3395 5 15C5 14.9568 5.00039 14.9138 5.00117 14.8708C3.21075 13.5583 2 11.6777 2 9.5ZM6.22153 5.71449C4.77996 6.75562 4 8.10692 4 9.5C4 10.6063 4.49362 11.6892 5.41915 12.6086C6.39632 9.92017 8.97392 8 12 8C15.0261 8 17.6037 9.92017 18.5809 12.6086C19.5064 11.6892 20 10.6063 20 9.5C20 8.10692 19.22 6.75562 17.7785 5.71449C16.3382 4.67431 14.2984 4 12 4C9.70156 4 7.66178 4.67431 6.22153 5.71449ZM7.10102 20C6.51513 19.4259 6.02973 18.7496 5.67363 18H4V20H7.10102ZM12 20C14.7614 20 17 17.7614 17 15C17 12.2386 14.7614 10 12 10C9.23858 10 7 12.2386 7 15C7 17.7614 9.23858 20 12 20ZM20 20V18H18.3264C17.9703 18.7496 17.4849 19.4259 16.899 20H20Z" fill="#777B92"/>
</svg>
