<svg width="16" height="16" viewBox="0 0 16 16" fill="none" xmlns="http://www.w3.org/2000/svg">
<path fill-rule="evenodd" clip-rule="evenodd" d="M0.5 1C0.5 0.723858 0.723858 0.5 1 0.5H2.1802C2.89522 0.5 3.51084 1.00469 3.65107 1.70583L4.0099 3.5H13.6743C14.6708 3.5 15.3903 4.45386 15.1166 5.41208L13.688 10.4121C13.504 11.056 12.9154 11.5 12.2457 11.5H5.8198C5.10478 11.5 4.48916 10.9953 4.34893 10.2942L3.11174 4.10819C3.11033 4.10183 3.10905 4.09542 3.10789 4.08897L2.67049 1.90194C2.62374 1.66823 2.41854 1.5 2.1802 1.5H1C0.723858 1.5 0.5 1.27614 0.5 1ZM4.2099 4.5L5.32951 10.0981C5.37626 10.3318 5.58146 10.5 5.8198 10.5H12.2457C12.4689 10.5 12.6651 10.352 12.7265 10.1374L14.155 5.13736C14.2463 4.81795 14.0065 4.5 13.6743 4.5H4.2099Z" fill="#777B92"/>
<path fill-rule="evenodd" clip-rule="evenodd" d="M13 14C13 14.5523 12.5523 15 12 15C11.4477 15 11 14.5523 11 14C11 13.4477 11.4477 13 12 13C12.5523 13 13 13.4477 13 14Z" fill="#777B92"/>
<path fill-rule="evenodd" clip-rule="evenodd" d="M6 15C5.44772 15 5 14.5523 5 14C5 13.4477 5.44772 13 6 13C6.55228 13 7 13.4477 7 14C7 14.5523 6.55228 15 6 15Z" fill="#777B92"/>
</svg>
