<svg width="24" height="24" viewBox="0 0 24 24" fill="none" xmlns="http://www.w3.org/2000/svg">
<path fill-rule="evenodd" clip-rule="evenodd" d="M4 12C4 16.4183 7.58172 20 12 20C15.1396 20 17.8587 18.1916 19.169 15.555C19.4148 15.0604 20.0149 14.8587 20.5095 15.1045C21.0041 15.3503 21.2058 15.9505 20.96 16.445C19.3249 19.7353 15.9278 22 12 22C6.47715 22 2 17.5228 2 12C2 6.47715 6.47715 2 12 2C12.5523 2 13 2.44772 13 3C13 3.55228 12.5523 4 12 4C7.58172 4 4 7.58172 4 12Z" fill="#777B92"/>
<path fill-rule="evenodd" clip-rule="evenodd" d="M16.445 3.04001C19.0959 4.35737 21.0801 6.81672 21.7522 9.77871C21.8744 10.3173 21.5369 10.853 20.9983 10.9752C20.4597 11.0974 19.924 10.7599 19.8018 10.2213C19.2651 7.85637 17.6781 5.88613 15.555 4.83103C15.0604 4.58525 14.8587 3.98507 15.1045 3.49049C15.3503 2.99591 15.9505 2.79422 16.445 3.04001Z" fill="#777B92"/>
<path fill-rule="evenodd" clip-rule="evenodd" d="M8.79923 9.60058C8.46754 10.0422 7.84068 10.1313 7.39909 9.79957C6.9575 9.46788 6.86841 8.84101 7.2001 8.39942C8.29305 6.94434 10.0364 6 12 6C15.3137 6 18 8.68629 18 12C18 13.3496 17.5533 14.5977 16.8 15.6006C16.4683 16.0422 15.8414 16.1313 15.3998 15.7996C14.9582 15.4679 14.8691 14.841 15.2008 14.3994C15.7029 13.731 16 12.9016 16 12C16 9.79086 14.2092 8 12 8C10.692 8 9.53069 8.62676 8.79923 9.60058Z" fill="#777B92"/>
<path fill-rule="evenodd" clip-rule="evenodd" d="M8.08006 12.8011C8.39785 14.3666 9.63338 15.6021 11.1989 15.92C11.7401 16.0298 12.0898 16.5577 11.98 17.0989C11.8701 17.6402 11.3422 17.9899 10.801 17.88C8.44833 17.4024 6.59761 15.5516 6.12004 13.1989C6.01017 12.6577 6.35987 12.1299 6.90112 12.02C7.44236 11.9101 7.9702 12.2598 8.08006 12.8011Z" fill="#777B92"/>
</svg>
