<svg width="24" height="24" viewBox="0 0 24 24" fill="none" xmlns="http://www.w3.org/2000/svg">
<path fill-rule="evenodd" clip-rule="evenodd" d="M5 3H8C9.10457 3 10 3.89543 10 5V19C10 20.1046 9.10457 21 8 21H5C3.89543 21 3 20.1046 3 19V5C3 3.89543 3.89543 3 5 3ZM5 5V19H8V5H5Z" fill="#777B92"/>
<path fill-rule="evenodd" clip-rule="evenodd" d="M16 7H19C20.1046 7 21 7.89543 21 9V19C21 20.1046 20.1046 21 19 21H16C14.8954 21 14 20.1046 14 19V9C14 7.89543 14.8954 7 16 7ZM16 9V19H19V9H16Z" fill="#777B92"/>
</svg>
