<svg width="24" height="24" viewBox="0 0 24 24" fill="none" xmlns="http://www.w3.org/2000/svg">
<path d="M5 4V10.8611L7.02519 9.1686C7.76764 8.54812 8.84779 8.54813 9.59024 9.1686L12.5159 11.6136L17.2558 6.3321C17.6247 5.92107 18.2569 5.88689 18.6679 6.25577C19.079 6.62464 19.1131 7.25689 18.7443 7.66792L14.0044 12.9495C13.285 13.7511 12.0599 13.839 11.2334 13.1483L8.30772 10.7032L5 13.4675V19H20C20.5523 19 21 19.4477 21 20C21 20.5523 20.5523 21 20 21H5C3.89543 21 3 20.1046 3 19V4C3 3.44772 3.44772 3 4 3C4.55228 3 5 3.44772 5 4Z" fill="#777B92"/>
</svg>
