<svg width="16" height="16" viewBox="0 0 16 16" fill="none" xmlns="http://www.w3.org/2000/svg">
<path fill-rule="evenodd" clip-rule="evenodd" d="M2 0.5H14C14.8284 0.5 15.5 1.17157 15.5 2V11.9875L15.5002 12.0018L15.5 12.0136V14C15.5 14.8284 14.8284 15.5 14 15.5H2C1.17157 15.5 0.5 14.8284 0.5 14V2C0.5 1.17157 1.17157 0.5 2 0.5ZM1.5 12.5V14C1.5 14.2761 1.72386 14.5 2 14.5H14C14.2761 14.5 14.5 14.2761 14.5 14V12.5L1.5 12.5ZM13.1172 11.5L1.5 4.86163V11.5L13.1172 11.5ZM14.5 11.1384V4.5L2.88272 4.5L14.5 11.1384ZM1.5 3.5L14.5 3.5V2C14.5 1.72386 14.2761 1.5 14 1.5H2C1.72386 1.5 1.5 1.72386 1.5 2V3.5Z" fill="#777B92"/>
</svg>
