<svg width="16" height="16" viewBox="0 0 16 16" fill="none" xmlns="http://www.w3.org/2000/svg">
<path fill-rule="evenodd" clip-rule="evenodd" d="M11.5 2C11.2239 2 11 1.77614 11 1.5C11 1.22386 11.2239 1 11.5 1C11.7761 1 12 1.22386 12 1.5C12 1.77614 11.7761 2 11.5 2Z" fill="#777B92"/>
<path fill-rule="evenodd" clip-rule="evenodd" d="M5 4.5H9C9.23834 4.5 9.44355 4.66823 9.49029 4.90194L11.4903 14.9019C11.5197 15.0488 11.4816 15.2012 11.3867 15.317C11.2917 15.4328 11.1498 15.5 11 15.5H3C2.85021 15.5 2.7083 15.4328 2.61333 15.317C2.51836 15.2012 2.48034 15.0488 2.50971 14.9019L4.50971 4.90194C4.55646 4.66823 4.76166 4.5 5 4.5ZM5.00991 7.5H8.9901L8.5901 5.5H5.40991L5.00991 7.5ZM4.81683 8.46538L4.20991 11.5H9.7901L9.18318 8.46538C9.12645 8.48773 9.06466 8.5 9 8.5H5C4.93534 8.5 4.87355 8.48773 4.81683 8.46538ZM3.60991 14.5H10.3901L9.9901 12.5H4.00991L3.60991 14.5Z" fill="#777B92"/>
<path fill-rule="evenodd" clip-rule="evenodd" d="M6 3.5C6 3.77614 5.77614 4 5.5 4C5.22386 4 5 3.77614 5 3.5C5 3.22386 5.22386 3 5.5 3C5.77614 3 6 3.22386 6 3.5Z" fill="#777B92"/>
<path fill-rule="evenodd" clip-rule="evenodd" d="M7.5 2C7.22386 2 7 1.77614 7 1.5C7 1.22386 7.22386 1 7.5 1C7.77614 1 8 1.22386 8 1.5C8 1.77614 7.77614 2 7.5 2Z" fill="#777B92"/>
<path fill-rule="evenodd" clip-rule="evenodd" d="M10 2.5C10 2.77614 9.77614 3 9.5 3C9.22386 3 9 2.77614 9 2.5C9 2.22386 9.22386 2 9.5 2C9.77614 2 10 2.22386 10 2.5Z" fill="#777B92"/>
<path fill-rule="evenodd" clip-rule="evenodd" d="M12.5 4C12.2239 4 12 3.77614 12 3.5C12 3.22386 12.2239 3 12.5 3C12.7761 3 13 3.22386 13 3.5C13 3.77614 12.7761 4 12.5 4Z" fill="#777B92"/>
</svg>
