<svg width="16" height="16" viewBox="0 0 16 16" fill="none" xmlns="http://www.w3.org/2000/svg">
<path fill-rule="evenodd" clip-rule="evenodd" d="M11.5 2C11.5 1.17157 12.1716 0.5 13 0.5H14C14.8284 0.5 15.5 1.17157 15.5 2V10C15.5 10.2761 15.2761 10.5 15 10.5C14.7239 10.5 14.5 10.2761 14.5 10V2C14.5 1.72386 14.2761 1.5 14 1.5H13C12.7239 1.5 12.5 1.72386 12.5 2V10C12.5 10.2761 12.2761 10.5 12 10.5C11.7239 10.5 11.5 10.2761 11.5 10V9.5H9.5V11C9.5 11.8284 8.82843 12.5 8 12.5H6.5V14.5H10C10.2761 14.5 10.5 14.7239 10.5 15C10.5 15.2761 10.2761 15.5 10 15.5H1C0.723858 15.5 0.5 15.2761 0.5 15C0.5 14.7239 0.723858 14.5 1 14.5H3.5V12.5H2C1.17157 12.5 0.5 11.8284 0.5 11V3C0.5 2.17157 1.17157 1.5 2 1.5H8C8.82843 1.5 9.5 2.17157 9.5 3V4.5H11.5V2ZM4.5 12.5V14.5H5.5V12.5H4.5ZM8 11.5C8.27614 11.5 8.5 11.2761 8.5 11V9.5H1.5V11C1.5 11.2761 1.72386 11.5 2 11.5H8ZM8.5 8.5V5.5H1.5V8.5H8.5ZM9.5 8.5H11.5V5.5H9.5V8.5ZM8.5 3C8.5 2.72386 8.27614 2.5 8 2.5H2C1.72386 2.5 1.5 2.72386 1.5 3V4.5H8.5V3Z" fill="#777B92"/>
<path fill-rule="evenodd" clip-rule="evenodd" d="M12.5 15L10 12H15L12.5 15Z" fill="#777B92"/>
</svg>
