<svg width="16" height="16" viewBox="0 0 16 16" fill="none" xmlns="http://www.w3.org/2000/svg">
<path fill-rule="evenodd" clip-rule="evenodd" d="M5.5 1.5H5C4.72386 1.5 4.5 1.27614 4.5 1C4.5 0.723858 4.72386 0.5 5 0.5H9C9.27614 0.5 9.5 0.723858 9.5 1C9.5 1.27614 9.27614 1.5 9 1.5H8.5V5.87044L13.4371 14.7572C13.5231 14.912 13.5208 15.1009 13.4309 15.2536C13.3411 15.4063 13.1772 15.5 13 15.5H1C0.82284 15.5 0.658907 15.4063 0.569065 15.2536C0.479222 15.1009 0.476885 14.912 0.562921 14.7572L5.5 5.87044V1.5ZM6.5 1.5V6C6.5 6.08497 6.47834 6.16854 6.43708 6.24282L1.84976 14.5H12.1502L7.56292 6.24282C7.52166 6.16854 7.5 6.08497 7.5 6V1.5H6.5Z" fill="#777B92"/>
<path fill-rule="evenodd" clip-rule="evenodd" d="M10.5 1C10.5 0.723858 10.7239 0.5 11 0.5H15C15.2761 0.5 15.5 0.723858 15.5 1C15.5 1.27614 15.2761 1.5 15 1.5H14.5V12C14.5 12.2761 14.2761 12.5 14 12.5C13.7239 12.5 13.5 12.2761 13.5 12V1.5L12.5 1.5V9C12.5 9.27614 12.2761 9.5 12 9.5C11.7239 9.5 11.5 9.27614 11.5 9V1.5H11C10.7239 1.5 10.5 1.27614 10.5 1Z" fill="#777B92"/>
</svg>
