<svg width="16" height="16" viewBox="0 0 16 16" fill="none" xmlns="http://www.w3.org/2000/svg">
<path fill-rule="evenodd" clip-rule="evenodd" d="M2 0.5H8C8.27614 0.5 8.5 0.723858 8.5 1C8.5 1.27614 8.27614 1.5 8 1.5H7.5V13C7.5 14.3807 6.38071 15.5 5 15.5C3.61929 15.5 2.5 14.3807 2.5 13V1.5H2C1.72386 1.5 1.5 1.27614 1.5 1C1.5 0.723858 1.72386 0.5 2 0.5ZM3.5 1.5V4.50004L6.5 4.50001V1.5H3.5ZM6.5 5.50001L3.5 5.50004V13C3.5 13.8284 4.17157 14.5 5 14.5C5.82843 14.5 6.5 13.8284 6.5 13V5.50001Z" fill="#777B92"/>
<path fill-rule="evenodd" clip-rule="evenodd" d="M12.0338 6.07255C11.6022 5.95301 11.1429 5.98181 10.7296 6.15435C10.5263 6.23918 10.34 6.35634 10.1771 6.5H10.5C10.7761 6.5 11 6.72386 11 7C11 7.27614 10.7761 7.5 10.5 7.5H9C8.72386 7.5 8.5 7.27614 8.5 7V5.5C8.5 5.22386 8.72386 5 9 5C9.27614 5 9.5 5.22386 9.5 5.5V5.76393C9.74804 5.54208 10.033 5.3615 10.3443 5.23153C10.9643 4.97272 11.6532 4.92951 12.3007 5.10883C12.9482 5.28814 13.5167 5.6796 13.9152 6.22048C14.3137 6.76136 14.5192 7.42036 14.4986 8.09188C14.478 8.76341 14.2326 9.40859 13.8017 9.92405C13.3709 10.4395 12.7794 10.7954 12.1222 10.9348C11.465 11.0741 10.78 10.9888 10.177 10.6925C9.57402 10.3962 9.08794 9.90613 8.79665 9.30073C8.67692 9.05189 8.78158 8.75311 9.03042 8.63338C9.27926 8.51365 9.57804 8.61831 9.69777 8.86715C9.89196 9.27075 10.216 9.59749 10.618 9.79501C11.02 9.99253 11.4766 10.0494 11.9148 9.95651C12.3529 9.86362 12.7472 9.62635 13.0345 9.2827C13.3218 8.93906 13.4853 8.50894 13.4991 8.06126C13.5128 7.61357 13.3758 7.17424 13.1102 6.81366C12.8445 6.45307 12.4654 6.1921 12.0338 6.07255Z" fill="#777B92"/>
</svg>
