<svg width="16" height="16" viewBox="0 0 16 16" fill="none" xmlns="http://www.w3.org/2000/svg">
<path fill-rule="evenodd" clip-rule="evenodd" d="M8 6L8.3 5.6L8.30112 5.60084L8.30297 5.60224L8.30881 5.60667L8.32875 5.622C8.34558 5.63505 8.36938 5.65372 8.39913 5.67763C8.4586 5.72541 8.54214 5.79436 8.64175 5.88152C8.84027 6.05523 9.10621 6.30439 9.3737 6.60532C9.88524 7.18079 10.5 8.05249 10.5 9C10.5 10.3807 9.38071 11.5 8 11.5C6.61929 11.5 5.5 10.3807 5.5 9C5.5 8.05249 6.11476 7.18079 6.6263 6.60532C6.89379 6.30439 7.15973 6.05523 7.35825 5.88152C7.45786 5.79436 7.5414 5.72541 7.60087 5.67763C7.63062 5.65372 7.65442 5.63505 7.67125 5.622L7.69119 5.60667L7.69703 5.60224L7.69888 5.60084L7.7 5.6L8 6ZM7.3737 7.26968C6.88524 7.81921 6.5 8.44751 6.5 9C6.5 9.82843 7.17157 10.5 8 10.5C8.82843 10.5 9.5 9.82843 9.5 9C9.5 8.44751 9.11476 7.81921 8.6263 7.26968C8.40107 7.01631 8.17439 6.80232 8 6.6488C7.82561 6.80232 7.59893 7.01631 7.3737 7.26968Z" fill="#777B92"/>
<path d="M7.7 5.6C7.7 5.6 7.7 5.6 8 6C8.3 5.6 8.3 5.6 8.3 5.6C8.12222 5.46667 7.87778 5.46667 7.7 5.6Z" fill="#777B92"/>
<path fill-rule="evenodd" clip-rule="evenodd" d="M0.5 1C0.5 0.723858 0.723858 0.5 1 0.5H15C15.2761 0.5 15.5 0.723858 15.5 1C15.5 1.27614 15.2761 1.5 15 1.5H13.5V3.5H15C15.2761 3.5 15.5 3.72386 15.5 4C15.5 4.27614 15.2761 4.5 15 4.5H13.5V11.5H15C15.2761 11.5 15.5 11.7239 15.5 12C15.5 12.2761 15.2761 12.5 15 12.5H13.5V14.5H15C15.2761 14.5 15.5 14.7239 15.5 15C15.5 15.2761 15.2761 15.5 15 15.5H1C0.723858 15.5 0.5 15.2761 0.5 15C0.5 14.7239 0.723858 14.5 1 14.5H2.5V12.5H1C0.723858 12.5 0.5 12.2761 0.5 12C0.5 11.7239 0.723858 11.5 1 11.5H2.5V4.5H1C0.723858 4.5 0.5 4.27614 0.5 4C0.5 3.72386 0.723858 3.5 1 3.5H2.5V1.5H1C0.723858 1.5 0.5 1.27614 0.5 1ZM3.5 1.5V14.5H12.5V1.5H3.5Z" fill="#777B92"/>
</svg>
