<svg width="16" height="16" viewBox="0 0 16 16" fill="none" xmlns="http://www.w3.org/2000/svg">
<path fill-rule="evenodd" clip-rule="evenodd" d="M3 0.5C4.61362 0.5 5.99716 1.04006 6.97855 2.02145C7.16928 2.21217 7.34334 2.41809 7.5 2.63793V1C7.5 0.723858 7.72386 0.5 8 0.5C8.27614 0.5 8.5 0.723858 8.5 1V6.63793C8.65666 6.41809 8.83072 6.21217 9.02145 6.02145C10.0028 5.04006 11.3864 4.5 13 4.5C13.2761 4.5 13.5 4.72386 13.5 5C13.5 6.61362 12.9599 7.99716 11.9786 8.97855C11.1001 9.857 9.89946 10.3818 8.5 10.4823V14.5H13C13.2761 14.5 13.5 14.7239 13.5 15C13.5 15.2761 13.2761 15.5 13 15.5H3C2.72386 15.5 2.5 15.2761 2.5 15C2.5 14.7239 2.72386 14.5 3 14.5H7.5V13.4823C6.10054 13.3818 4.89989 12.857 4.02145 11.9786C3.04006 10.9972 2.5 9.61362 2.5 8C2.5 7.72386 2.72386 7.5 3 7.5C4.61362 7.5 5.99716 8.04006 6.97855 9.02145C7.16928 9.21217 7.34334 9.41809 7.5 9.63793V6.48229C6.10054 6.38184 4.89989 5.857 4.02145 4.97855C3.04006 3.99716 2.5 2.61362 2.5 1C2.5 0.723858 2.72386 0.5 3 0.5ZM4.72855 4.27145C5.39807 4.94096 6.33151 5.37627 7.47739 5.47739C7.37627 4.33151 6.94096 3.39807 6.27145 2.72855C5.60193 2.05904 4.66849 1.62373 3.52261 1.52261C3.62373 2.66849 4.05904 3.60193 4.72855 4.27145ZM8.52261 9.47739C9.66849 9.37627 10.6019 8.94096 11.2714 8.27145C11.941 7.60193 12.3763 6.66849 12.4774 5.52261C11.3315 5.62373 10.3981 6.05904 9.72855 6.72855C9.05904 7.39807 8.62373 8.33151 8.52261 9.47739ZM3.52261 8.52261C3.62373 9.66849 4.05904 10.6019 4.72855 11.2714C5.39807 11.941 6.33151 12.3763 7.47739 12.4774C7.37627 11.3315 6.94096 10.3981 6.27145 9.72855C5.60193 9.05904 4.66849 8.62373 3.52261 8.52261Z" fill="#777B92"/>
</svg>
