<svg width="16" height="16" viewBox="0 0 16 16" fill="none" xmlns="http://www.w3.org/2000/svg">
<path fill-rule="evenodd" clip-rule="evenodd" d="M11 0.5C11 0.776142 10.7761 1 10.5 1H8.5V2.53544C10.1961 2.77806 11.5 4.23676 11.5 6V12C11.5 13.933 9.933 15.5 8 15.5C6.067 15.5 4.5 13.933 4.5 12V6C4.5 4.23676 5.80385 2.77806 7.5 2.53544V1H5.5C5.22386 1 5 0.776142 5 0.5C5 0.223858 5.22386 0 5.5 0H10.5C10.7761 0 11 0.223858 11 0.5ZM8 3.5C6.61929 3.5 5.5 4.61929 5.5 6V6.5H7C7.27614 6.5 7.5 6.72386 7.5 7C7.5 7.27614 7.27614 7.5 7 7.5H5.5V10.5H7C7.27614 10.5 7.5 10.7239 7.5 11C7.5 11.2761 7.27614 11.5 7 11.5H5.5V12C5.5 13.3807 6.61929 14.5 8 14.5C9.38071 14.5 10.5 13.3807 10.5 12V6C10.5 4.61929 9.38071 3.5 8 3.5Z" fill="#777B92"/>
</svg>
