<svg width="16" height="16" viewBox="0 0 16 16" fill="none" xmlns="http://www.w3.org/2000/svg">
<path fill-rule="evenodd" clip-rule="evenodd" d="M0.5 2C0.5 1.17157 1.17157 0.5 2 0.5H11C11.8284 0.5 12.5 1.17157 12.5 2V3.5H14.5V3C14.5 2.72386 14.7239 2.5 15 2.5C15.2761 2.5 15.5 2.72386 15.5 3V9C15.5 9.27614 15.2761 9.5 15 9.5C14.7239 9.5 14.5 9.27614 14.5 9V8.5H12.5V10C12.5 10.8284 11.8284 11.5 11 11.5H2C1.17157 11.5 0.5 10.8284 0.5 10V2ZM9.5 10.5H11C11.2761 10.5 11.5 10.2761 11.5 10V6.5H9.5V10.5ZM8.5 8.5H1.5V10C1.5 10.2761 1.72386 10.5 2 10.5H8.5V8.5ZM8.5 7.5V4.5H1.5V7.5H8.5ZM8.5 3.5V1.5H2C1.72386 1.5 1.5 1.72386 1.5 2V3.5H8.5ZM9.5 1.5V5.5H11.5V2C11.5 1.72386 11.2761 1.5 11 1.5H9.5ZM12.5 4.5V7.5H14.5V4.5H12.5Z" fill="#777B92"/>
<path fill-rule="evenodd" clip-rule="evenodd" d="M0.5 15C0.5 14.7239 0.723858 14.5 1 14.5H15C15.2761 14.5 15.5 14.7239 15.5 15C15.5 15.2761 15.2761 15.5 15 15.5H1C0.723858 15.5 0.5 15.2761 0.5 15Z" fill="#777B92"/>
</svg>
