<svg width="16" height="16" viewBox="0 0 16 16" fill="none" xmlns="http://www.w3.org/2000/svg">
<path fill-rule="evenodd" clip-rule="evenodd" d="M6.39975 3.29985C6.23388 3.52062 5.92044 3.56513 5.69966 3.39926C5.47889 3.23339 5.43438 2.91995 5.60025 2.69917C6.60286 1.36472 8.20052 0.5 10 0.5C13.0376 0.5 15.5 2.96243 15.5 6C15.5 8.1489 14.6833 9.60547 13.4387 10.6081C12.2237 11.5868 10.6324 12.1073 9.12127 12.4851C8.5999 12.6154 8.07324 12.732 7.5704 12.8434C7.34397 12.8935 7.12229 12.9426 6.90792 12.9914C6.7691 13.023 6.63305 13.0546 6.5 13.0864V14.5L10 14.5C10.2761 14.5 10.5 14.7239 10.5 15C10.5 15.2761 10.2761 15.5 10 15.5L3 15.5C2.72386 15.5 2.5 15.2761 2.5 15C2.5 14.3551 2.74948 13.8372 3.16856 13.433C3.57073 13.0452 4.11603 12.7737 4.70518 12.561C4.95597 12.4704 5.22255 12.3878 5.5 12.3105V10.4776C2.69675 10.225 0.5 7.86902 0.5 5C0.5 4.72386 0.723858 4.5 1 4.5H11C11.2761 4.5 11.5 4.72386 11.5 5C11.5 7.86902 9.30325 10.225 6.5 10.4776V12.0591C6.56173 12.0448 6.62369 12.0305 6.68583 12.0164C6.91255 11.9648 7.14106 11.9142 7.37112 11.8632C7.86728 11.7534 8.37063 11.642 8.87873 11.5149C10.3676 11.1427 11.7763 10.6632 12.8113 9.82937C13.8167 9.01953 14.5 7.8511 14.5 6C14.5 3.51472 12.4853 1.5 10 1.5C8.52828 1.5 7.2216 2.20597 6.39975 3.29985ZM5.5 13.3516C5.34132 13.3996 5.18941 13.4493 5.04482 13.5015C4.50897 13.695 4.11677 13.9079 3.86269 14.1529C3.75244 14.2592 3.66632 14.373 3.60572 14.5H5.5V13.3516ZM10.4725 5.5H1.52746C1.77619 7.74998 3.68372 9.5 6 9.5C8.31628 9.5 10.2238 7.74998 10.4725 5.5Z" fill="#777B92"/>
</svg>
