<svg width="16" height="16" viewBox="0 0 16 16" fill="none" xmlns="http://www.w3.org/2000/svg">
<path fill-rule="evenodd" clip-rule="evenodd" d="M3.5 2C3.5 1.17157 4.17157 0.5 5 0.5H11C11.8284 0.5 12.5 1.17157 12.5 2V3.5H14.5V3C14.5 2.72386 14.7239 2.5 15 2.5C15.2761 2.5 15.5 2.72386 15.5 3V8C15.5 8.27614 15.2761 8.5 15 8.5C14.7239 8.5 14.5 8.27614 14.5 8V7.5H12.5V14C12.5 14.8284 11.8284 15.5 11 15.5H5C4.17157 15.5 3.5 14.8284 3.5 14V7.5H1.5V8C1.5 8.27614 1.27614 8.5 1 8.5C0.723858 8.5 0.5 8.27614 0.5 8V3C0.5 2.72386 0.723858 2.5 1 2.5C1.27614 2.5 1.5 2.72386 1.5 3V3.5H3.5V2ZM1.5 4.5V6.5H3.5V4.5H1.5ZM12.5 4.5V6.5H14.5V4.5H12.5ZM11.5 4.5H4.5V11.5H11.5V4.5ZM4.5 12.5V14C4.5 14.2761 4.72386 14.5 5 14.5H11C11.2761 14.5 11.5 14.2761 11.5 14V12.5H4.5ZM11.5 2C11.5 1.72386 11.2761 1.5 11 1.5H5C4.72386 1.5 4.5 1.72386 4.5 2V3.5H11.5V2Z" fill="#777B92"/>
</svg>
