<svg width="16" height="16" viewBox="0 0 16 16" fill="none" xmlns="http://www.w3.org/2000/svg">
<path fill-rule="evenodd" clip-rule="evenodd" d="M4.50002 0.5H11.5C11.7762 0.5 12 0.723858 12 1V2.49264C14.1682 3.8352 15.5 6.25813 15.5 9L15.5 9.00452V15C15.5 15.2761 15.2761 15.5 15 15.5H12C11.7239 15.5 11.5 15.2761 11.5 15V12.9286H9.96154V15C9.96154 15.2761 9.73768 15.5 9.46154 15.5H6.07692C5.80078 15.5 5.57692 15.2761 5.57692 15V12.9286H4.03846V15C4.03846 15.2761 3.8146 15.5 3.53846 15.5H1C0.723858 15.5 0.5 15.2761 0.5 15V8.99999L0.500022 8.99529C0.501544 6.25536 1.83312 3.83444 4.00002 2.49264V1C4.00002 0.723858 4.22388 0.5 4.50002 0.5ZM12.5 12.4286V14.5H14.5V8.99999L14.5 8.99561C14.4986 6.55258 13.3012 4.43967 11.4011 3.29864C11.3099 3.42085 11.1642 3.49999 11 3.49999H5.00002C4.83583 3.49999 4.69013 3.42085 4.59898 3.29864C2.69774 4.44035 1.50002 6.55511 1.50002 9L1.5 9.00455V14.5H3.03846V12.4286C3.03846 12.1524 3.26232 11.9286 3.53846 11.9286H6.07692C6.35307 11.9286 6.57692 12.1524 6.57692 12.4286V14.5H8.96154V12.4286C8.96154 12.1524 9.1854 11.9286 9.46154 11.9286H12C12.2761 11.9286 12.5 12.1524 12.5 12.4286ZM11 2.49999V1.5H5.00002V2.49999H11Z" fill="#777B92"/>
</svg>
