<svg width="22" height="22" viewBox="0 0 22 22" fill="none" xmlns="http://www.w3.org/2000/svg">
<path d="M16 3H18C18.2652 3 18.5196 3.10536 18.7071 3.29289C18.8946 3.48043 19 3.73478 19 4V18C19 18.2652 18.8946 18.5196 18.7071 18.7071C18.5196 18.8946 18.2652 19 18 19H16C15.7348 19 15.4804 18.8946 15.2929 18.7071C15.1054 18.5196 15 18.2652 15 18C15 17.7348 15.1054 17.4804 15.2929 17.2929C15.4804 17.1054 15.7348 17 16 17H17V5H16C15.7348 5 15.4804 4.89464 15.2929 4.70711C15.1054 4.51957 15 4.26522 15 4C15 3.73478 15.1054 3.48043 15.2929 3.29289C15.4804 3.10536 15.7348 3 16 3Z" fill="#97A3BA"/>
<path d="M10.1414 6.01005C10.404 6.04756 10.6409 6.18783 10.8 6.4L13.82 10.42C13.9451 10.5913 14.0126 10.7979 14.0126 11.01C14.0126 11.2221 13.9451 11.4287 13.82 11.6L11 15.6C10.908 15.7292 10.7865 15.8347 10.6457 15.9078C10.5048 15.9808 10.3486 16.0193 10.19 16.02C9.98268 16.0216 9.78 15.9587 9.61 15.84C9.50185 15.7642 9.40978 15.6678 9.33911 15.5562C9.26843 15.4446 9.22056 15.3202 9.19825 15.19C9.17593 15.0599 9.17962 14.9266 9.2091 14.7978C9.23858 14.6691 9.29326 14.5475 9.37 14.44L11.09 12H3C2.73478 12 2.48043 11.8946 2.29289 11.7071C2.10536 11.5196 2 11.2652 2 11C2 10.7348 2.10536 10.4804 2.29289 10.2929C2.48043 10.1054 2.73478 10 3 10H11L9.2 7.6C9.04087 7.38783 8.97254 7.12113 9.01005 6.85858C9.04756 6.59603 9.18783 6.35913 9.4 6.2C9.61217 6.04087 9.87887 5.97255 10.1414 6.01005Z" fill="#97A3BA"/>
</svg>
