<svg width="22" height="22" viewBox="0 0 22 22" fill="none" xmlns="http://www.w3.org/2000/svg">
<path fill-rule="evenodd" clip-rule="evenodd" d="M9 7H16C16.7956 7 17.5587 7.31607 18.1213 7.87868C18.6839 8.44129 19 9.20435 19 10V18C19 18.7956 18.6839 19.5587 18.1213 20.1213C17.5587 20.6839 16.7956 21 16 21H6C5.20435 21 4.44129 20.6839 3.87868 20.1213C3.31607 19.5587 3 18.7956 3 18V10C3 9.20435 3.31607 8.44129 3.87868 7.87868C4.44129 7.31607 5.20435 7 6 7H7V5C7 3.93913 7.42143 2.92172 8.17157 2.17157C8.92172 1.42143 9.93913 1 11 1C12.0609 1 13.0783 1.42143 13.8284 2.17157C14.5786 2.92172 15 3.93913 15 5C15 5.26522 14.8946 5.51957 14.7071 5.70711C14.5196 5.89464 14.2652 6 14 6C13.7348 6 13.4804 5.89464 13.2929 5.70711C13.1054 5.51957 13 5.26522 13 5C13 4.46957 12.7893 3.96086 12.4142 3.58579C12.0391 3.21071 11.5304 3 11 3C10.4696 3 9.96086 3.21071 9.58579 3.58579C9.21071 3.96086 9 4.46957 9 5V7ZM16.7071 18.7071C16.8946 18.5196 17 18.2652 17 18V10C17 9.73478 16.8946 9.48043 16.7071 9.29289C16.5196 9.10536 16.2652 9 16 9H6C5.73478 9 5.48043 9.10536 5.29289 9.29289C5.10536 9.48043 5 9.73478 5 10V18C5 18.2652 5.10536 18.5196 5.29289 18.7071C5.48043 18.8946 5.73478 19 6 19H16C16.2652 19 16.5196 18.8946 16.7071 18.7071ZM9.33329 11.5056C9.82664 11.1759 10.4067 11 11 11C11.7957 11 12.5587 11.3161 13.1213 11.8787C13.6839 12.4413 14 13.2044 14 14C14 14.5933 13.8241 15.1734 13.4944 15.6667C13.1648 16.1601 12.6962 16.5446 12.1481 16.7716C11.5999 16.9987 10.9967 17.0581 10.4147 16.9424C9.83279 16.8266 9.29824 16.5409 8.87868 16.1213C8.45912 15.7018 8.1734 15.1672 8.05765 14.5853C7.94189 14.0033 8.0013 13.4001 8.22836 12.8519C8.45543 12.3038 8.83994 11.8352 9.33329 11.5056ZM10.4444 14.8315C10.6089 14.9414 10.8022 15 11 15C11.2652 15 11.5196 14.8946 11.7071 14.7071C11.8946 14.5196 12 14.2652 12 14C12 13.8022 11.9414 13.6089 11.8315 13.4444C11.7216 13.28 11.5654 13.1518 11.3827 13.0761C11.2 13.0004 10.9989 12.9806 10.8049 13.0192C10.6109 13.0578 10.4327 13.153 10.2929 13.2929C10.153 13.4327 10.0578 13.6109 10.0192 13.8049C9.98063 13.9989 10.0004 14.2 10.0761 14.3827C10.1518 14.5654 10.28 14.7216 10.4444 14.8315Z" fill="#97A3BA"/>
</svg>
