<svg width="24" height="24" viewBox="0 0 24 24" fill="none" xmlns="http://www.w3.org/2000/svg">
<path fill-rule="evenodd" clip-rule="evenodd" d="M6 4H7C7.55228 4 8 4.44772 8 5C8 5.55228 7.55228 6 7 6H6V18H7C7.55228 18 8 18.4477 8 19C8 19.5523 7.55228 20 7 20H6C4.89543 20 4 19.1046 4 18V6C4 4.89543 4.89543 4 6 4Z" fill="#777B92"/>
<path fill-rule="evenodd" clip-rule="evenodd" d="M16.8 7.40006L19.8 11.4001C20.0667 11.7556 20.0667 12.2445 19.8 12.6001L16.8 16.6001C16.4686 17.0419 15.8418 17.1314 15.4 16.8001C14.9582 16.4687 14.8686 15.8419 15.2 15.4001L17 13.0001H9C8.44772 13.0001 8 12.5523 8 12.0001C8 11.4478 8.44772 11.0001 9 11.0001H17L15.2 8.60006C14.8686 8.15823 14.9582 7.53143 15.4 7.20006C15.8418 6.86869 16.4686 6.95823 16.8 7.40006Z" fill="#777B92"/>
</svg>
