<svg width="24" height="24" viewBox="0 0 24 24" fill="none" xmlns="http://www.w3.org/2000/svg">
<path fill-rule="evenodd" clip-rule="evenodd" d="M6 7C6 4.79086 7.79086 3 10 3C12.2091 3 14 4.79086 14 7C14 9.20914 12.2091 11 10 11C7.79086 11 6 9.20914 6 7ZM10 5C8.89543 5 8 5.89543 8 7C8 8.10457 8.89543 9 10 9C11.1046 9 12 8.10457 12 7C12 5.89543 11.1046 5 10 5Z" fill="#777B92"/>
<path fill-rule="evenodd" clip-rule="evenodd" d="M10 15C7.23858 15 5 17.2386 5 20C5 20.5523 4.55228 21 4 21C3.44772 21 3 20.5523 3 20C3 16.134 6.13401 13 10 13C11.7922 13 13.4291 13.6748 14.6669 14.7827C15.0784 15.151 15.1135 15.7832 14.7451 16.1947C14.3768 16.6062 13.7446 16.6412 13.3331 16.2729C12.4478 15.4806 11.2812 15 10 15Z" fill="#777B92"/>
<path fill-rule="evenodd" clip-rule="evenodd" d="M21 19.9197C21 20.7582 20.0301 21.2244 19.3754 20.7006L16.9761 18.7812C16.4757 18.3809 16.4757 17.6198 16.9761 17.2195L19.3754 15.3001C20.0301 14.7763 21 15.2425 21 16.081V19.9197Z" fill="#777B92"/>
</svg>
