<svg width="24" height="24" viewBox="0 0 24 24" fill="none" xmlns="http://www.w3.org/2000/svg">
<path fill-rule="evenodd" clip-rule="evenodd" d="M5 7C5 4.79086 6.79086 3 9 3C11.2091 3 13 4.79086 13 7C13 9.20914 11.2091 11 9 11C6.79086 11 5 9.20914 5 7ZM9 5C7.89543 5 7 5.89543 7 7C7 8.10457 7.89543 9 9 9C10.1046 9 11 8.10457 11 7C11 5.89543 10.1046 5 9 5Z" fill="#777B92"/>
<path fill-rule="evenodd" clip-rule="evenodd" d="M9 15C6.23858 15 4 17.2386 4 20C4 20.5523 3.55228 21 3 21C2.44772 21 2 20.5523 2 20C2 16.134 5.13401 13 9 13C12.866 13 16 16.134 16 20C16 20.5523 15.5523 21 15 21C14.4477 21 14 20.5523 14 20C14 17.2386 11.7614 15 9 15Z" fill="#777B92"/>
<path fill-rule="evenodd" clip-rule="evenodd" d="M19.9444 3.37181L20.9444 3.90752C21.5672 4.24114 22.0639 4.94911 21.9528 5.79905C21.7385 7.43838 20.8474 8.60208 20.2495 9.21994C19.5594 9.93312 18.4405 9.93312 17.7504 9.21994C17.1525 8.60207 16.2614 7.43838 16.0471 5.79905C15.936 4.94911 16.4327 4.24114 17.0555 3.90752L18.0555 3.37181C18.6455 3.05575 19.3544 3.05575 19.9444 3.37181ZM18.9999 7.62329C19.387 7.17269 19.8161 6.50055 19.9542 5.64595L18.9999 5.13477L18.0457 5.64595C18.1838 6.50055 18.6129 7.17269 18.9999 7.62329Z" fill="#777B92"/>
</svg>
