<svg width="22" height="22" viewBox="0 0 22 22" fill="none" xmlns="http://www.w3.org/2000/svg">
<path fill-rule="evenodd" clip-rule="evenodd" d="M7 5V3C7 2.44772 7.44772 2 8 2H8.35418C8.81929 1.58948 9.38062 1.28544 10 1.12602V1C10 0.447715 10.4477 0 11 0C11.5523 0 12 0.447715 12 1V1.12602C12.6194 1.28544 13.1807 1.58948 13.6458 2H14C14.5523 2 15 2.44772 15 3V5C15.5523 5 16 5.44772 16 6C16 6.55228 15.5523 7 15 7H7C6.44772 7 6 6.55228 6 6C6 5.44772 6.44772 5 7 5ZM10.0314 3.24976C10.1424 3.68119 10.534 4 11 4C11.466 4 11.8576 3.68119 11.9686 3.24976C12.5837 3.59087 13 4.24681 13 5H9C9 4.24681 9.41634 3.59087 10.0314 3.24976Z" fill="#97A3BA"/>
<path d="M9.33706 9.11114C9.1173 8.78224 9 8.39557 9 8L7 8C7 9.06087 7.42143 10.0783 8.17157 10.8284C8.92172 11.5786 9.93913 12 11 12C11.7911 12 12.5645 11.7654 13.2223 11.3259C13.8801 10.8864 14.3928 10.2616 14.6955 9.53074C14.8975 9.04308 15 8.52277 15 8H13C13 8.13038 12.9873 8.26107 12.9616 8.39018C12.8844 8.77814 12.6939 9.13451 12.4142 9.41422C12.1345 9.69392 11.7781 9.8844 11.3902 9.96157C11.0022 10.0387 10.6001 9.99914 10.2346 9.84776C9.86918 9.69639 9.55682 9.44004 9.33706 9.11114Z" fill="#97A3BA"/>
<path d="M6.05025 16.0503C7.36301 14.7375 9.14348 14 11 14C12.8565 14 14.637 14.7375 15.9497 16.0503C17.2625 17.363 18 19.1435 18 21C18 21.2652 17.8946 21.5196 17.7071 21.7071C17.5196 21.8946 17.2652 22 17 22C16.7348 22 16.4804 21.8946 16.2929 21.7071C16.1054 21.5196 16 21.2652 16 21C16 19.6739 15.4732 18.4021 14.5355 17.4645C13.5979 16.5268 12.3261 16 11 16C9.67392 16 8.40215 16.5268 7.46447 17.4645C6.52678 18.4021 6 19.6739 6 21C6 21.2652 5.89464 21.5196 5.70711 21.7071C5.51957 21.8946 5.26522 22 5 22C4.73478 22 4.48043 21.8946 4.29289 21.7071C4.10536 21.5196 4 21.2652 4 21C4 19.1435 4.7375 17.363 6.05025 16.0503Z" fill="#97A3BA"/>
</svg>
