<svg width="22" height="22" viewBox="0 0 22 22" fill="none" xmlns="http://www.w3.org/2000/svg">
<path fill-rule="evenodd" clip-rule="evenodd" d="M9.33329 11.5056C9.82664 11.1759 10.4067 11 11 11C11.7957 11 12.5587 11.3161 13.1213 11.8787C13.6839 12.4413 14 13.2044 14 14C14 14.5933 13.8241 15.1734 13.4944 15.6667C13.1648 16.1601 12.6962 16.5446 12.1481 16.7716C11.5999 16.9987 10.9967 17.0581 10.4147 16.9424C9.83279 16.8266 9.29824 16.5409 8.87868 16.1213C8.45912 15.7018 8.1734 15.1672 8.05765 14.5853C7.94189 14.0033 8.0013 13.4001 8.22836 12.8519C8.45543 12.3038 8.83994 11.8352 9.33329 11.5056ZM10.4444 14.8315C10.6089 14.9414 10.8022 15 11 15C11.2652 15 11.5196 14.8946 11.7071 14.7071C11.8946 14.5196 12 14.2652 12 14C12 13.8022 11.9414 13.6089 11.8315 13.4444C11.7216 13.28 11.5654 13.1518 11.3827 13.0761C11.2 13.0004 10.9989 12.9806 10.8049 13.0192C10.6109 13.0578 10.4327 13.153 10.2929 13.2929C10.153 13.4327 10.0578 13.6109 10.0192 13.8049C9.98063 13.9989 10.0004 14.2 10.0761 14.3827C10.1518 14.5654 10.28 14.7216 10.4444 14.8315Z" fill="#97A3BA"/>
<path fill-rule="evenodd" clip-rule="evenodd" d="M15 6.92257H16C16.7956 6.92257 17.5587 7.24039 18.1213 7.80611C18.6839 8.37183 19 9.13912 19 9.93917V17.9834C19 18.7835 18.6839 19.5507 18.1213 20.1165C17.5587 20.6822 16.7956 21 16 21H6C5.20435 21 4.44129 20.6822 3.87868 20.1165C3.31607 19.5507 3 18.7835 3 17.9834V9.93917C3 9.13912 3.31607 8.37183 3.87868 7.80611C4.44129 7.24039 5.20435 6.92257 6 6.92257H7V5.02212C7 3.95539 7.42143 2.93235 8.17157 2.17805C8.92172 1.42376 9.93913 1 11 1C12.0609 1 13.0783 1.42376 13.8284 2.17805C14.5786 2.93235 15 3.95539 15 5.02212V6.92257ZM9.56428 3.546C9.18945 3.94364 8.98655 4.47441 9 5.02212V6.92257H13V5.02212C13.0135 4.47441 12.8106 3.94364 12.4357 3.546C12.0609 3.14836 11.5446 2.91624 11 2.90045C10.4554 2.91624 9.93912 3.14836 9.56428 3.546ZM16.7071 18.6944C16.8946 18.5059 17 18.2501 17 17.9834V9.93917C17 9.67248 16.8946 9.41672 16.7071 9.22815C16.5196 9.03958 16.2652 8.93364 16 8.93364H6C5.73478 8.93364 5.48043 9.03958 5.29289 9.22815C5.10536 9.41672 5 9.67248 5 9.93917V17.9834C5 18.2501 5.10536 18.5059 5.29289 18.6944C5.48043 18.883 5.73478 18.9889 6 18.9889H16C16.2652 18.9889 16.5196 18.883 16.7071 18.6944Z" fill="#97A3BA"/>
</svg>
