<svg width="22" height="22" viewBox="0 0 22 22" fill="none" xmlns="http://www.w3.org/2000/svg">
<path fill-rule="evenodd" clip-rule="evenodd" d="M10 10C10.7911 10 11.5645 9.76541 12.2223 9.32588C12.8801 8.88635 13.3928 8.26164 13.6955 7.53074C13.9983 6.79983 14.0775 5.99556 13.9231 5.21964C13.7688 4.44372 13.3878 3.73098 12.8284 3.17157C12.269 2.61216 11.5563 2.2312 10.7804 2.07686C10.0044 1.92252 9.20017 2.00173 8.46927 2.30448C7.73836 2.60723 7.11365 3.11992 6.67412 3.77772C6.2346 4.43552 6 5.20888 6 6C6 7.06087 6.42143 8.07828 7.17157 8.82843C7.92172 9.57857 8.93913 10 10 10ZM10 4C10.3956 4 10.7822 4.1173 11.1111 4.33706C11.44 4.55683 11.6964 4.86918 11.8478 5.23463C11.9991 5.60009 12.0387 6.00222 11.9616 6.39018C11.8844 6.77814 11.6939 7.13451 11.4142 7.41422C11.1345 7.69392 10.7781 7.8844 10.3902 7.96157C10.0022 8.03874 9.60009 7.99914 9.23463 7.84776C8.86918 7.69639 8.55682 7.44004 8.33706 7.11114C8.1173 6.78224 8 6.39556 8 6C8 5.46957 8.21071 4.96086 8.58579 4.58579C8.96086 4.21072 9.46957 4 10 4ZM10 12C8.14348 12 6.36301 12.7375 5.05025 14.0503C3.7375 15.363 3 17.1435 3 19C3 19.2652 3.10536 19.5196 3.29289 19.7071C3.48043 19.8946 3.73478 20 4 20C4.26522 20 4.51957 19.8946 4.70711 19.7071C4.89464 19.5196 5 19.2652 5 19C5 17.6739 5.52678 16.4021 6.46447 15.4645C7.40215 14.5268 8.67392 14 10 14C11.3261 14 12.5979 14.5268 13.5355 15.4645C13.8599 15.7888 14.368 15.8925 14.7529 15.6429L14.8716 15.566C15.349 15.2565 15.4796 14.607 15.0889 14.1934C15.0433 14.1451 14.9969 14.0974 14.9497 14.0503C13.637 12.7375 11.8565 12 10 12ZM18.3404 19.5815C18.9993 20.2593 20.0117 20.1428 19.9993 19.0188V14.9812C20.0117 13.8573 18.9993 13.7407 18.3404 14.4185L16.3421 16.219C15.9994 16.5 16 17 16 17C16 17 15.9994 17.5 16.3421 17.781L18.3404 19.5815Z" fill="#97A3BA"/>
</svg>
