<svg width="24" height="24" viewBox="0 0 24 24" fill="none" xmlns="http://www.w3.org/2000/svg">
<path fill-rule="evenodd" clip-rule="evenodd" d="M6 10C6 8.34315 7.34315 7 9 7C10.6569 7 12 8.34315 12 10C12 11.6569 10.6569 13 9 13C7.34315 13 6 11.6569 6 10ZM9 9C8.44772 9 8 9.44772 8 10C8 10.5523 8.44772 11 9 11C9.55228 11 10 10.5523 10 10C10 9.44772 9.55228 9 9 9Z" fill="#777B92"/>
<path fill-rule="evenodd" clip-rule="evenodd" d="M14 10C14 9.44772 14.4477 9 15 9H18C18.5523 9 19 9.44772 19 10C19 10.5523 18.5523 11 18 11H15C14.4477 11 14 10.5523 14 10Z" fill="#777B92"/>
<path fill-rule="evenodd" clip-rule="evenodd" d="M16 13H18C18.5523 13 19 13.4477 19 14C19 14.5523 18.5523 15 18 15H16C15.4477 15 15 14.5523 15 14C15 13.4477 15.4477 13 16 13Z" fill="#777B92"/>
<path fill-rule="evenodd" clip-rule="evenodd" d="M3 3H21C22.1046 3 23 3.89543 23 5V19C23 20.1046 22.1046 21 21 21H3C1.89543 21 1 20.1046 1 19V5C1 3.89543 1.89543 3 3 3ZM14.917 19H21V5H3V19H3.08296C3.55904 16.1623 6.027 14 9 14C11.973 14 14.441 16.1623 14.917 19ZM5.12602 19H12.874C12.4299 17.2748 10.8638 16 9 16C7.13616 16 5.57006 17.2748 5.12602 19Z" fill="#777B92"/>
</svg>
