<svg width="22" height="22" viewBox="0 0 22 22" fill="none" xmlns="http://www.w3.org/2000/svg">
<path d="M11.9945 1.27154L18.9907 5.26427C19.2972 5.44368 19.5512 5.7024 19.7268 6.01399C19.9024 6.32557 19.9933 6.67884 19.9901 7.03769V7.17956C19.9889 9.95427 19.2426 12.6763 17.8313 15.0535L16.3621 13.574C17.4318 11.6174 17.9925 9.41672 17.9912 7.17956V7.03769L10.9951 3.04496L7.77682 4.91972L6.31763 3.38951L9.99561 1.27154C10.2995 1.09365 10.6442 1 10.9951 1C11.3459 1 11.6906 1.09365 11.9945 1.27154Z" fill="#97A3BA"/>
<path d="M3.709 2.17352C3.61581 2.07903 3.50518 2.00408 3.38343 1.95294C3.26167 1.90181 3.13118 1.87549 2.99939 1.87549C2.8676 1.87549 2.73711 1.90181 2.61535 1.95294C2.4936 2.00408 2.38297 2.07903 2.28978 2.17352C2.10158 2.36434 1.99585 2.62315 1.99585 2.89302C1.99585 3.16288 2.10158 3.4217 2.28978 3.61252L18.281 19.8267C18.3739 19.9216 18.4844 19.997 18.6062 20.0485C18.728 20.0999 18.8587 20.1264 18.9906 20.1264C19.1225 20.1264 19.2532 20.0999 19.375 20.0485C19.4968 19.997 19.6073 19.9216 19.7002 19.8267C19.7939 19.7324 19.8682 19.6204 19.919 19.4969C19.9697 19.3734 19.9958 19.2409 19.9958 19.1072C19.9958 18.9734 19.9697 18.8409 19.919 18.7174C19.8682 18.5939 19.7939 18.4819 19.7002 18.3877L3.709 2.17352Z" fill="#97A3BA"/>
<path d="M11.2949 18.7829L10.9951 18.9552L10.6952 18.7829C8.66492 17.6242 6.97487 15.9391 5.79822 13.9002C4.62156 11.8613 4.00058 9.54195 3.9989 7.17965V7.03778L4.15881 6.94658L2.7296 5.4873C2.50342 5.6758 2.32084 5.91237 2.19477 6.18029C2.0687 6.44821 2.00221 6.74094 2 7.03778V7.17965C2.00259 9.90238 2.71831 12.5756 4.07397 14.9258C5.42963 17.2761 7.37659 19.2192 9.71576 20.5563L10.0156 20.7286C10.3195 20.9065 10.6642 21.0001 11.015 21.0001C11.3659 21.0001 11.7106 20.9065 12.0145 20.7286L12.3143 20.5563C13.4038 19.9182 14.4109 19.1455 15.3127 18.2559L13.8935 16.8169C13.1147 17.5834 12.2413 18.2442 11.2949 18.7829Z" fill="#97A3BA"/>
</svg>
