<svg width="22" height="22" viewBox="0 0 22 22" fill="none" xmlns="http://www.w3.org/2000/svg">
<path fill-rule="evenodd" clip-rule="evenodd" d="M7 10.0045C7.79113 10.0045 8.56448 9.76973 9.22228 9.32996C9.88008 8.89019 10.3928 8.26512 10.6955 7.53381C10.9983 6.8025 11.0775 5.99779 10.9231 5.22143C10.7688 4.44508 10.3878 3.73195 9.82843 3.17223C9.26902 2.6125 8.55628 2.23133 7.78036 2.0769C7.00444 1.92248 6.20017 2.00173 5.46927 2.30465C4.73836 2.60757 4.11365 3.12055 3.67412 3.77871C3.2346 4.43687 3 5.21066 3 6.00223C3 7.06368 3.42143 8.08167 4.17157 8.83223C4.92172 9.58279 5.93913 10.0045 7 10.0045ZM7 4.00111C7.39556 4.00111 7.78224 4.11848 8.11114 4.33836C8.44004 4.55825 8.69638 4.87078 8.84776 5.23643C8.99913 5.60209 9.03874 6.00445 8.96157 6.39262C8.8844 6.7808 8.69392 7.13737 8.41421 7.41723C8.13451 7.69709 7.77814 7.88768 7.39018 7.96489C7.00222 8.0421 6.60009 8.00247 6.23463 7.85101C5.86918 7.69955 5.55682 7.44307 5.33706 7.11399C5.1173 6.7849 5 6.39801 5 6.00223C5 5.4715 5.21071 4.96251 5.58579 4.58723C5.96086 4.21195 6.46957 4.00111 7 4.00111Z" fill="#97A3BA"/>
<path d="M21 4H18C17.7348 4 17.4804 4.10536 17.2929 4.29289C17.1054 4.48043 17 4.73478 17 5C17 5.26522 17.1054 5.51957 17.2929 5.70711C17.4804 5.89464 17.7348 6 18 6H21C21.2652 6 21.5196 5.89464 21.7071 5.70711C21.8946 5.51957 22 5.26522 22 5C22 4.73478 21.8946 4.48043 21.7071 4.29289C21.5196 4.10536 21.2652 4 21 4Z" fill="#97A3BA"/>
<path d="M13.2937 15.2222C13.1627 15.2222 13.034 15.2324 12.9082 15.2521C13.6213 16.3727 14 17.672 14 18.9991C14 19.2692 13.9 19.5294 13.71 19.7095C13.52 19.8896 13.27 19.9996 13 19.9996C12.73 19.9996 12.47 19.8996 12.29 19.7095C12.11 19.5194 12 19.2692 12 18.9991C12 17.6683 11.47 16.3976 10.54 15.4571C9.6 14.5266 8.33 13.9963 7 13.9963C5.67 13.9963 4.4 14.5266 3.46 15.4571C2.53 16.3976 2 17.6683 2 18.9991C2 19.2692 1.89 19.5194 1.71 19.7095C1.53 19.8996 1.27 19.9996 1 19.9996C0.73 19.9996 0.480001 19.8896 0.290001 19.7095C0.100001 19.5294 0 19.2692 0 18.9991C0 17.6183 0.41 16.2675 1.18 15.1169C1.95 13.9663 3.04 13.0758 4.32 12.5455C5.17564 12.1843 6.08491 12.002 7 12.0015C7.91509 12.002 8.82436 12.1843 9.68 12.5455C10.2586 12.7852 10.7984 13.0985 11.2873 13.4762C11.896 13.171 12.5764 13 13.2937 13C15.5725 13 17.4729 14.7206 17.9069 17.0057C18.01 17.5482 17.5523 18 17 18H16.9083C16.356 18 15.9255 17.5393 15.7406 17.0189C15.3674 15.969 14.4127 15.2222 13.2937 15.2222Z" fill="#97A3BA"/>
<path fill-rule="evenodd" clip-rule="evenodd" d="M14 6C12.3431 6 11 7.34315 11 9C11 10.6569 12.3431 12 14 12C15.6569 12 17 10.6569 17 9C17 7.34315 15.6569 6 14 6ZM13 9C13 8.44772 13.4477 8 14 8C14.5523 8 15 8.44772 15 9C15 9.55228 14.5523 10 14 10C13.4477 10 13 9.55228 13 9Z" fill="#97A3BA"/>
</svg>
