<svg width="23" height="22" viewBox="0 0 23 22" fill="none" xmlns="http://www.w3.org/2000/svg">
<path fill-rule="evenodd" clip-rule="evenodd" d="M15.0999 6.1477C15.2108 6.36778 15.404 6.53527 15.6376 6.6138H15.7016C15.8094 6.65417 15.9061 6.71938 15.9839 6.80413C16.0617 6.88888 16.1185 6.99079 16.1495 7.10157L16.1735 7.16554C16.2181 7.28793 16.233 7.41915 16.217 7.54843C16.201 7.6777 16.1546 7.80133 16.0815 7.90919C15.9434 8.10816 15.8868 8.35244 15.9233 8.59186C15.9597 8.83128 16.0865 9.04766 16.2775 9.19657L17.1054 9.81228C17.2607 9.93049 17.4502 9.99504 17.6453 9.99619C17.6972 10.0013 17.7495 10.0013 17.8013 9.99619C17.9225 9.97592 18.0383 9.93105 18.1414 9.86435C18.2446 9.79765 18.333 9.71054 18.4012 9.60838L18.4932 9.47644C18.5578 9.38391 18.6431 9.30784 18.7425 9.25436C18.8418 9.20089 18.9524 9.17151 19.0652 9.16859C19.1834 9.16568 19.3004 9.19275 19.4053 9.24728C19.5102 9.30182 19.5996 9.38203 19.6651 9.48044L19.7131 9.5484C19.7813 9.64985 19.8695 9.73628 19.9724 9.80235C20.0752 9.86842 20.1905 9.91275 20.3112 9.9326C20.4318 9.95245 20.5553 9.9474 20.6739 9.91777C20.7925 9.88814 20.9038 9.83455 21.0009 9.7603L21.8048 9.1406C21.9968 8.99156 22.1244 8.77476 22.1616 8.53465C22.1988 8.29453 22.1427 8.04929 22.0048 7.84921L21.9008 7.69729C21.8376 7.60101 21.796 7.49222 21.7787 7.37837C21.7614 7.26451 21.769 7.14827 21.8008 7.0376C21.8346 6.91855 21.8972 6.80963 21.9829 6.72039C22.0687 6.63116 22.1751 6.56435 22.2928 6.52584L22.3728 6.49786C22.6027 6.41599 22.792 6.24823 22.9009 6.0298C23.0098 5.81137 23.0298 5.55926 22.9567 5.32642L22.6407 4.3189C22.6066 4.20245 22.5494 4.09407 22.4725 4.00022C22.3955 3.90636 22.3005 3.82895 22.193 3.77261C22.0855 3.71627 21.9677 3.68215 21.8468 3.67228C21.7258 3.66242 21.6041 3.67701 21.4889 3.71518L21.3529 3.75916C21.2464 3.79436 21.1329 3.8033 21.0222 3.7852C20.9114 3.7671 20.8067 3.7225 20.717 3.65521L20.673 3.62323C20.5854 3.55621 20.5148 3.46955 20.4668 3.37024C20.4189 3.27093 20.395 3.16175 20.397 3.0515V2.93955C20.3989 2.68848 20.3011 2.4469 20.125 2.26787C20.0413 2.18329 19.9416 2.11609 19.8318 2.07012C19.722 2.02415 19.6042 2.00032 19.4851 2H18.4652C18.2205 2.00316 17.987 2.10283 17.8155 2.2773C17.6439 2.45177 17.5483 2.68693 17.5494 2.93156V3.02751C17.549 3.14356 17.5225 3.25805 17.472 3.36254C17.4215 3.46702 17.3481 3.55884 17.2574 3.63122L17.2054 3.6712C17.1051 3.74702 16.9879 3.79721 16.8638 3.81741C16.7398 3.83762 16.6126 3.82723 16.4935 3.78715C16.3841 3.7493 16.2681 3.73403 16.1526 3.74228C16.0371 3.75053 15.9245 3.78211 15.8216 3.83513C15.711 3.89177 15.6139 3.97138 15.5367 4.0686C15.4594 4.16582 15.4038 4.27842 15.3736 4.39886L15.0457 5.43836C14.9696 5.67273 14.9891 5.92763 15.0999 6.1477ZM19.0134 7.16926C18.7426 7.17627 18.4752 7.22367 18.2199 7.30918C18.2061 7.0272 18.15 6.74797 18.0527 6.48099L18.0495 6.47202L18.0426 6.45383C17.9517 6.17448 17.8165 5.912 17.6425 5.67634C17.918 5.58144 18.1778 5.44338 18.4118 5.26642L18.4182 5.26156L18.4906 5.20584L18.5045 5.19476C18.6774 5.05685 18.8327 4.89921 18.9674 4.7255C19.1089 4.90723 19.2735 5.07074 19.4577 5.21164L19.4771 5.22651L19.5329 5.26708C19.7599 5.43468 20.011 5.56509 20.2769 5.65429C20.0985 5.90692 19.9632 6.18863 19.8778 6.48797C19.806 6.73879 19.7698 6.99775 19.7697 7.25731C19.5248 7.19285 19.2711 7.16291 19.016 7.16919L19.0134 7.16926Z" fill="#97A3BA"/>
<path fill-rule="evenodd" clip-rule="evenodd" d="M9 10C9.79113 10 10.5645 9.76541 11.2223 9.32588C11.8801 8.88635 12.3928 8.26164 12.6955 7.53074C12.9983 6.79983 13.0775 5.99556 12.9231 5.21964C12.7688 4.44372 12.3878 3.73098 11.8284 3.17157C11.269 2.61216 10.5563 2.2312 9.78036 2.07686C9.00444 1.92252 8.20017 2.00173 7.46927 2.30448C6.73836 2.60723 6.11365 3.11992 5.67412 3.77772C5.2346 4.43552 5 5.20888 5 6C5 7.06087 5.42143 8.07828 6.17157 8.82843C6.92172 9.57857 7.93913 10 9 10ZM9 4C9.39556 4 9.78224 4.1173 10.1111 4.33706C10.44 4.55683 10.6964 4.86918 10.8478 5.23463C10.9991 5.60009 11.0387 6.00222 10.9616 6.39018C10.8844 6.77814 10.6939 7.13451 10.4142 7.41422C10.1345 7.69392 9.77814 7.8844 9.39018 7.96157C9.00222 8.03874 8.60009 7.99914 8.23463 7.84776C7.86918 7.69639 7.55682 7.44004 7.33706 7.11114C7.1173 6.78224 7 6.39556 7 6C7 5.46957 7.21071 4.96086 7.58579 4.58579C7.96086 4.21072 8.46957 4 9 4Z" fill="#97A3BA"/>
<path d="M9 12C7.14348 12 5.36301 12.7375 4.05025 14.0503C2.7375 15.363 2 17.1435 2 19C2 19.2652 2.10536 19.5196 2.29289 19.7071C2.48043 19.8946 2.73478 20 3 20C3.26522 20 3.51957 19.8946 3.70711 19.7071C3.89464 19.5196 4 19.2652 4 19C4 17.6739 4.52678 16.4021 5.46447 15.4645C6.40215 14.5268 7.67392 14 9 14C10.3261 14 11.5979 14.5268 12.5355 15.4645C13.4732 16.4021 14 17.6739 14 19C14 19.2652 14.1054 19.5196 14.2929 19.7071C14.4804 19.8946 14.7348 20 15 20C15.2652 20 15.5196 19.8946 15.7071 19.7071C15.8946 19.5196 16 19.2652 16 19C16 17.1435 15.2625 15.363 13.9497 14.0503C12.637 12.7375 10.8565 12 9 12Z" fill="#97A3BA"/>
</svg>
