<svg width="22" height="22" viewBox="0 0 22 22" fill="none" xmlns="http://www.w3.org/2000/svg">
<path d="M11.0001 20.9998C10.6506 21.0053 10.3058 20.9179 10.0001 20.7462L9.70008 20.5737C7.36335 19.2328 5.41934 17.2869 4.06655 14.9347C2.71377 12.5825 2.00067 9.90826 2.00008 7.1851V7.0431C1.99691 6.68393 2.08782 6.33034 2.26351 6.01848C2.43921 5.70662 2.69339 5.44767 3.00008 5.26809L10.0001 1.27178C10.3041 1.09373 10.649 1 11.0001 1C11.3512 1 11.696 1.09373 12.0001 1.27178L19.0001 5.26809C19.3068 5.44767 19.561 5.70662 19.7366 6.01848C19.9123 6.33034 20.0033 6.68393 20.0001 7.0431V7.1851C19.9975 9.91026 19.2814 12.5858 17.925 14.9382C16.5686 17.2906 14.6205 19.2354 12.2801 20.5737L11.9801 20.7462C11.6802 20.9145 11.3428 21.0018 11.0001 20.9998ZM11.0001 3.04679L4.00008 7.0431V7.1851C4.00176 9.54951 4.62308 11.871 5.80038 13.9117C6.97769 15.9524 8.66866 17.639 10.7001 18.7987L11.0001 18.9712L11.3001 18.7987C13.3315 17.639 15.0225 15.9524 16.1998 13.9117C17.3771 11.871 17.9984 9.54951 18.0001 7.1851V7.0431L11.0001 3.04679Z" fill="#97A3BA"/>
</svg>
