<svg width="24" height="24" viewBox="0 0 24 24" fill="none" xmlns="http://www.w3.org/2000/svg">
<path fill-rule="evenodd" clip-rule="evenodd" d="M11 6C12.6569 6 14 7.34315 14 9C14 10.6569 12.6569 12 11 12C9.34315 12 8 10.6569 8 9C8 7.34315 9.34315 6 11 6ZM10 9C10 9.55228 10.4477 10 11 10C11.5523 10 12 9.55228 12 9C12 8.44772 11.5523 8 11 8C10.4477 8 10 8.44772 10 9Z" fill="#777B92"/>
<path fill-rule="evenodd" clip-rule="evenodd" d="M11 3C15.4183 3 19 6.58172 19 11C19 12.8487 18.3729 14.551 17.3199 15.9056L20.7071 19.2929C21.0976 19.6834 21.0976 20.3166 20.7071 20.7071C20.3166 21.0976 19.6834 21.0976 19.2929 20.7071L15.9056 17.3199C14.551 18.3729 12.8487 19 11 19C6.58172 19 3 15.4183 3 11C3 6.58172 6.58172 3 11 3ZM5 11C5 12.5367 5.5777 13.9385 6.52778 15C7.62526 13.7739 9.22234 13 10.9999 13C12.7776 13 14.3747 13.7739 15.4722 15.0001C16.4223 13.9385 17 12.5367 17 11C17 7.68629 14.3137 5 11 5C7.68629 5 5 7.68629 5 11ZM10.9999 15C9.85614 15 8.8245 15.4793 8.09439 16.2508C8.95525 16.7282 9.94588 17 11 17C12.0541 17 13.0447 16.7282 13.9055 16.2508C13.1754 15.4793 12.1438 15 10.9999 15Z" fill="#777B92"/>
</svg>
