<svg width="22" height="22" viewBox="0 0 22 22" fill="none" xmlns="http://www.w3.org/2000/svg">
<path fill-rule="evenodd" clip-rule="evenodd" d="M20 4C20 5.10457 19.1046 6 18 6C17.6849 6 17.3869 5.92714 17.1217 5.79735L15.8882 7.03085L16.2713 7.4139C16.5081 7.65067 16.5081 8.03453 16.2713 8.2713C16.0345 8.50806 15.6507 8.50807 15.4139 8.2713L15.0308 7.88825L14.9193 7.99983C14.6654 8.25367 14.2539 8.25367 14 7.99983C13.7462 7.74599 13.7462 7.33443 14 7.08059L16.2026 4.87806C16.0728 4.613 16 4.315 16 4C16 2.89543 16.8954 2 18 2C19.1046 2 20 2.89543 20 4ZM18.7 4C18.7 4.3866 18.3866 4.7 18 4.7C17.6134 4.7 17.3 4.3866 17.3 4C17.3 3.6134 17.6134 3.3 18 3.3C18.3866 3.3 18.7 3.6134 18.7 4Z" fill="#97A3BA"/>
<path fill-rule="evenodd" clip-rule="evenodd" d="M8 10C8.79113 10 9.56448 9.76541 10.2223 9.32588C10.8801 8.88635 11.3928 8.26164 11.6955 7.53074C11.9983 6.79983 12.0775 5.99556 11.9231 5.21964C11.7688 4.44372 11.3878 3.73098 10.8284 3.17157C10.269 2.61216 9.55629 2.2312 8.78036 2.07686C8.00444 1.92252 7.20017 2.00173 6.46927 2.30448C5.73836 2.60723 5.11365 3.11992 4.67412 3.77772C4.2346 4.43552 4 5.20888 4 6C4 7.06087 4.42143 8.07828 5.17157 8.82843C5.92172 9.57857 6.93913 10 8 10ZM8 4C8.39556 4 8.78224 4.1173 9.11114 4.33706C9.44004 4.55683 9.69638 4.86918 9.84776 5.23463C9.99913 5.60009 10.0387 6.00222 9.96157 6.39018C9.8844 6.77814 9.69392 7.13451 9.41421 7.41422C9.13451 7.69392 8.77814 7.8844 8.39018 7.96157C8.00222 8.03874 7.60009 7.99914 7.23463 7.84776C6.86918 7.69639 6.55682 7.44004 6.33706 7.11114C6.1173 6.78224 6 6.39556 6 6C6 5.46957 6.21071 4.96086 6.58579 4.58579C6.96086 4.21072 7.46957 4 8 4Z" fill="#97A3BA"/>
<path d="M8 12C6.14348 12 4.36301 12.7375 3.05025 14.0503C1.7375 15.363 1 17.1435 1 19C1 19.2652 1.10536 19.5196 1.29289 19.7071C1.48043 19.8946 1.73478 20 2 20C2.26522 20 2.51957 19.8946 2.70711 19.7071C2.89464 19.5196 3 19.2652 3 19C3 17.6739 3.52678 16.4021 4.46447 15.4645C5.40215 14.5268 6.67392 14 8 14C9.32608 14 10.5979 14.5268 11.5355 15.4645C12.4732 16.4021 13 17.6739 13 19C13 19.2652 13.1054 19.5196 13.2929 19.7071C13.4804 19.8946 13.7348 20 14 20C14.2652 20 14.5196 19.8946 14.7071 19.7071C14.8946 19.5196 15 19.2652 15 19C15 17.1435 14.2625 15.363 12.9497 14.0503C11.637 12.7375 9.85652 12 8 12Z" fill="#97A3BA"/>
</svg>
