<svg width="22" height="22" viewBox="0 0 22 22" fill="none" xmlns="http://www.w3.org/2000/svg">
<path fill-rule="evenodd" clip-rule="evenodd" d="M16.075 4.11078C16.1581 4.27584 16.303 4.40145 16.4782 4.46035H16.5262C16.607 4.49063 16.6796 4.53954 16.7379 4.6031C16.7963 4.66666 16.8389 4.74309 16.8621 4.82618L16.8801 4.87415C16.9136 4.96595 16.9248 5.06436 16.9128 5.16132C16.9008 5.25827 16.866 5.351 16.8112 5.43189C16.7076 5.58112 16.6651 5.76433 16.6924 5.9439C16.7198 6.12346 16.8148 6.28575 16.9581 6.39743L17.5791 6.85921C17.6955 6.94787 17.8376 6.99628 17.984 6.99714C18.0229 7.00095 18.0621 7.00095 18.101 6.99714C18.1919 6.98194 18.2787 6.94828 18.3561 6.89826C18.4335 6.84824 18.4998 6.7829 18.5509 6.70628L18.6199 6.60733C18.6683 6.53793 18.7324 6.48088 18.8069 6.44077C18.8814 6.40067 18.9643 6.37863 19.0489 6.37644C19.1375 6.37426 19.2253 6.39456 19.304 6.43546C19.3827 6.47636 19.4497 6.53652 19.4988 6.61033L19.5348 6.6613C19.586 6.73739 19.6521 6.80221 19.7293 6.85176C19.8064 6.90132 19.8929 6.93456 19.9834 6.94945C20.0739 6.96434 20.1665 6.96055 20.2554 6.93833C20.3444 6.91611 20.4279 6.87591 20.5007 6.82023L21.1036 6.35545C21.2476 6.24367 21.3433 6.08107 21.3712 5.90099C21.3991 5.7209 21.357 5.53697 21.2536 5.38691L21.1756 5.27296C21.1282 5.20076 21.097 5.11917 21.084 5.03377C21.0711 4.94838 21.0767 4.8612 21.1006 4.7782C21.126 4.68891 21.1729 4.60722 21.2372 4.5403C21.3015 4.47337 21.3813 4.42327 21.4696 4.39438L21.5296 4.37339C21.7021 4.31199 21.844 4.18617 21.9257 4.02235C22.0074 3.85853 22.0223 3.66945 21.9675 3.49481L21.7305 2.73917C21.705 2.65184 21.662 2.57055 21.6043 2.50016C21.5466 2.42977 21.4754 2.37171 21.3947 2.32946C21.3141 2.2872 21.2258 2.26161 21.1351 2.25421C21.0443 2.24681 20.9531 2.25775 20.8666 2.28639L20.7647 2.31937C20.6848 2.34577 20.5997 2.35247 20.5166 2.3389C20.4336 2.32532 20.355 2.29188 20.2877 2.24141L20.2547 2.21742C20.189 2.16716 20.1361 2.10216 20.1001 2.02768C20.0642 1.9532 20.0462 1.87131 20.0478 1.78862V1.70466C20.0492 1.51636 19.9758 1.33518 19.8438 1.2009C19.781 1.13747 19.7062 1.08707 19.6239 1.05259C19.5415 1.01811 19.4531 1.00024 19.3638 1H18.5989C18.4154 1.00237 18.2402 1.07712 18.1116 1.20798C17.9829 1.33883 17.9112 1.51519 17.912 1.69867V1.77063C17.9117 1.85767 17.8919 1.94354 17.854 2.0219C17.8161 2.10027 17.7611 2.16913 17.693 2.22342L17.654 2.2534C17.5789 2.31026 17.4909 2.34791 17.3979 2.36306C17.3048 2.37821 17.2095 2.37042 17.1201 2.34036C17.038 2.31197 16.9511 2.30052 16.8645 2.30671C16.7778 2.31289 16.6934 2.33658 16.6162 2.37634C16.5333 2.41883 16.4604 2.47853 16.4025 2.55145C16.3445 2.62436 16.3029 2.70881 16.2802 2.79914L16.0343 3.57877C15.9772 3.75455 15.9918 3.94572 16.075 4.11078ZM19.0101 4.87694C18.8069 4.8822 18.6064 4.91775 18.4149 4.98189C18.4045 4.7704 18.3625 4.56098 18.2895 4.36074L18.2871 4.35401L18.282 4.34037C18.2138 4.13086 18.1124 3.934 17.9819 3.75725C18.1885 3.68608 18.3833 3.58253 18.5588 3.44982L18.5636 3.44617L18.618 3.40438L18.6284 3.39607C18.7581 3.29264 18.8745 3.17441 18.9755 3.04412C19.0817 3.18042 19.2051 3.30305 19.3432 3.40873L19.3578 3.41988L19.3997 3.45031C19.5699 3.57601 19.7583 3.67382 19.9577 3.74072C19.8238 3.93019 19.7224 4.14147 19.6584 4.36598C19.6045 4.55409 19.5773 4.74831 19.5773 4.94298C19.3936 4.89464 19.2033 4.87218 19.012 4.87689L19.0101 4.87694Z" fill="#97A3BA"/>
<path fill-rule="evenodd" clip-rule="evenodd" d="M7 10.0045C7.79113 10.0045 8.56448 9.76973 9.22228 9.32996C9.88008 8.89019 10.3928 8.26512 10.6955 7.53381C10.9983 6.8025 11.0775 5.99779 10.9231 5.22143C10.7688 4.44508 10.3878 3.73195 9.82843 3.17223C9.26902 2.6125 8.55629 2.23133 7.78036 2.0769C7.00444 1.92248 6.20017 2.00173 5.46927 2.30465C4.73836 2.60757 4.11365 3.12055 3.67412 3.77871C3.2346 4.43687 3 5.21066 3 6.00223C3 7.06368 3.42143 8.08167 4.17157 8.83223C4.92172 9.58279 5.93913 10.0045 7 10.0045ZM7 4.00111C7.39556 4.00111 7.78224 4.11848 8.11114 4.33836C8.44004 4.55825 8.69638 4.87078 8.84776 5.23643C8.99913 5.60209 9.03874 6.00445 8.96157 6.39262C8.8844 6.7808 8.69392 7.13737 8.41421 7.41723C8.13451 7.69709 7.77814 7.88768 7.39018 7.96489C7.00222 8.0421 6.60009 8.00247 6.23463 7.85101C5.86918 7.69955 5.55682 7.44307 5.33706 7.11399C5.1173 6.7849 5 6.39801 5 6.00223C5 5.4715 5.21071 4.96251 5.58579 4.58723C5.96086 4.21195 6.46957 4.00111 7 4.00111Z" fill="#97A3BA"/>
<path d="M12.9082 15.2521C13.034 15.2324 13.1627 15.2222 13.2937 15.2222C14.4127 15.2222 15.3674 15.969 15.7406 17.0189C15.9255 17.5393 16.356 18 16.9083 18H17C17.5523 18 18.01 17.5482 17.9069 17.0057C17.4729 14.7206 15.5725 13 13.2937 13C12.5764 13 11.896 13.171 11.2873 13.4762C10.7984 13.0985 10.2586 12.7852 9.68 12.5455C8.82436 12.1843 7.91509 12.002 7 12.0015C6.08491 12.002 5.17564 12.1843 4.32 12.5455C3.04 13.0758 1.95 13.9663 1.18 15.1169C0.41 16.2675 0 17.6183 0 18.9991C0 19.2692 0.100001 19.5294 0.290001 19.7095C0.480001 19.8896 0.73 19.9996 1 19.9996C1.27 19.9996 1.53 19.8996 1.71 19.7095C1.89 19.5194 2 19.2692 2 18.9991C2 17.6683 2.53 16.3976 3.46 15.4571C4.4 14.5266 5.67 13.9963 7 13.9963C8.33 13.9963 9.6 14.5266 10.54 15.4571C11.47 16.3976 12 17.6683 12 18.9991C12 19.2692 12.11 19.5194 12.29 19.7095C12.47 19.8996 12.73 19.9996 13 19.9996C13.27 19.9996 13.52 19.8896 13.71 19.7095C13.9 19.5294 14 19.2692 14 18.9991C14 17.672 13.6213 16.3727 12.9082 15.2521Z" fill="#97A3BA"/>
<path fill-rule="evenodd" clip-rule="evenodd" d="M11 9C11 7.34315 12.3431 6 14 6C15.6569 6 17 7.34315 17 9C17 10.6569 15.6569 12 14 12C12.3431 12 11 10.6569 11 9ZM14 8C13.4477 8 13 8.44772 13 9C13 9.55228 13.4477 10 14 10C14.5523 10 15 9.55228 15 9C15 8.44772 14.5523 8 14 8Z" fill="#97A3BA"/>
</svg>
