<svg width="22" height="22" viewBox="0 0 22 22" fill="none" xmlns="http://www.w3.org/2000/svg">
<path d="M6.70711 4.70711C6.51957 4.89464 6.26522 5 6 5H5V17H6C6.26522 17 6.51957 17.1054 6.70711 17.2929C6.89464 17.4804 7 17.7348 7 18C7 18.2652 6.89464 18.5196 6.70711 18.7071C6.51957 18.8946 6.26522 19 6 19H4C3.73478 19 3.48043 18.8946 3.29289 18.7071C3.10536 18.5196 3 18.2652 3 18V4C3 3.73478 3.10536 3.48043 3.29289 3.29289C3.48043 3.10536 3.73478 3 4 3H6C6.26522 3 6.51957 3.10536 6.70711 3.29289C6.89464 3.48043 7 3.73478 7 4C7 4.26522 6.89464 4.51957 6.70711 4.70711Z" fill="#97A3BA"/>
<path d="M16 6.41995L18.82 10.42C18.9423 10.5933 19.0062 10.8011 19.0026 11.0132C18.999 11.2253 18.9281 11.4308 18.8 11.6L15.8 15.6C15.7069 15.7241 15.5861 15.8249 15.4472 15.8944C15.3084 15.9638 15.1552 16 15 16C14.7836 16 14.5731 15.9298 14.4 15.7999C14.2949 15.7212 14.2064 15.6224 14.1395 15.5094C14.0726 15.3964 14.0286 15.2714 14.01 15.1414C13.9915 15.0114 13.9987 14.879 14.0313 14.7518C14.0639 14.6246 14.1212 14.505 14.2 14.4L16 12H8C7.73478 12 7.48043 11.8946 7.29289 11.7071C7.10536 11.5195 7 11.2652 7 11C7 10.7347 7.10536 10.4804 7.29289 10.2928C7.48043 10.1053 7.73478 9.99995 8 9.99995H16.09L14.37 7.57995C14.2933 7.47247 14.2386 7.35085 14.2091 7.22212C14.1796 7.09339 14.1759 6.9601 14.1982 6.82994C14.2206 6.69977 14.2684 6.57532 14.3391 6.46376C14.4098 6.35219 14.5018 6.25574 14.61 6.17995C14.8264 6.02813 15.0941 5.96815 15.3545 6.01312C15.615 6.05809 15.8471 6.20436 16 6.41995Z" fill="#97A3BA"/>
</svg>
