<svg width="22" height="22" viewBox="0 0 22 22" fill="none" xmlns="http://www.w3.org/2000/svg">
<path fill-rule="evenodd" clip-rule="evenodd" d="M8 8C8 6.34315 9.34315 5 11 5C12.6569 5 14 6.34315 14 8C14 9.65685 12.6569 11 11 11C9.34315 11 8 9.65685 8 8ZM11 7C10.4477 7 10 7.44772 10 8C10 8.55228 10.4477 9 11 9C11.5523 9 12 8.55228 12 8C12 7.44772 11.5523 7 11 7Z" fill="#97A3BA"/>
<path fill-rule="evenodd" clip-rule="evenodd" d="M11 1C9.02219 1 7.08879 1.58649 5.4443 2.6853C3.79981 3.78412 2.51809 5.3459 1.76121 7.17317C1.00433 9.00043 0.806299 11.0111 1.19215 12.9509C1.578 14.8907 2.53041 16.6725 3.92894 18.0711C5.32746 19.4696 7.10929 20.422 9.0491 20.8079C10.9889 21.1937 12.9996 20.9957 14.8268 20.2388C16.6541 19.4819 18.2159 18.2002 19.3147 16.5557C20.4135 14.9112 21 12.9778 21 11C21 9.68678 20.7413 8.38642 20.2388 7.17317C19.7363 5.95991 18.9997 4.85752 18.0711 3.92893C17.1425 3.00035 16.0401 2.26375 14.8268 1.7612C13.6136 1.25866 12.3132 1 11 1ZM11 19C9.41775 19 7.87104 18.5308 6.55544 17.6518C6.45193 17.5826 6.35021 17.5111 6.25036 17.4375C6.49278 16.7006 6.90564 16.0232 7.4644 15.4645C8.40208 14.5268 9.67385 14 10.9999 14C12.326 14 13.5978 14.5268 14.5355 15.4645C15.0943 16.0233 15.5071 16.7007 15.7495 17.4376C14.3824 18.4463 12.7197 19 11 19ZM17.2945 15.9376C16.9573 15.2445 16.505 14.6056 15.9497 14.0503C14.6369 12.7375 12.8564 12 10.9999 12C9.14342 12 7.36294 12.7375 6.05019 14.0503C5.49492 14.6055 5.04258 15.2445 4.70543 15.9374C4.25871 15.3679 3.88895 14.7374 3.60897 14.0615C3.00347 12.5997 2.84504 10.9911 3.15372 9.43928C3.4624 7.88743 4.22433 6.46197 5.34315 5.34315C6.46197 4.22433 7.88743 3.4624 9.43928 3.15372C10.9911 2.84504 12.5997 3.00346 14.0615 3.60896C15.5233 4.21447 16.7727 5.23984 17.6518 6.55544C18.5308 7.87103 19 9.41775 19 11C19 12.7994 18.3938 14.5362 17.2945 15.9376Z" fill="#97A3BA"/>
</svg>
