<svg width="24" height="24" viewBox="0 0 24 24" fill="none" xmlns="http://www.w3.org/2000/svg">
<path fill-rule="evenodd" clip-rule="evenodd" d="M13 8V12C13 12.5523 12.5523 13 12 13C11.4477 13 11 12.5523 11 12V8C11 7.44772 11.4477 7 12 7C12.5523 7 13 7.44772 13 8Z" fill="#777B92"/>
<path fill-rule="evenodd" clip-rule="evenodd" d="M12 16C11.4477 16 11 15.5523 11 15C11 14.4477 11.4477 14 12 14C12.5523 14 13 14.4477 13 15C13 15.5523 12.5523 16 12 16Z" fill="#777B92"/>
<path fill-rule="evenodd" clip-rule="evenodd" d="M12.8945 2.32931L19.8945 5.82931C20.5664 6.16525 21.0191 6.86877 20.9865 7.66129C20.6683 15.3947 14.8703 20.1677 13.1019 21.4546C12.442 21.9349 11.5581 21.9349 10.8982 21.4546C9.12976 20.1677 3.33172 15.3947 3.01362 7.66127C2.98102 6.86876 3.43375 6.16525 4.10562 5.82931L11.1056 2.32931C11.6687 2.04778 12.3314 2.04778 12.8945 2.32931ZM12.0001 4.11816L5.0133 7.61154C5.30221 14.2574 10.262 18.5006 12.0001 19.7826C13.7381 18.5006 18.6978 14.2574 18.9868 7.61154L12.0001 4.11816Z" fill="#777B92"/>
</svg>
