<svg width="22" height="22" viewBox="0 0 22 22" fill="none" xmlns="http://www.w3.org/2000/svg">
<path fill-rule="evenodd" clip-rule="evenodd" d="M8 10C8.79113 10 9.56448 9.76541 10.2223 9.32588C10.8801 8.88635 11.3928 8.26164 11.6955 7.53074C11.9983 6.79983 12.0775 5.99556 11.9231 5.21964C11.7688 4.44372 11.3878 3.73098 10.8284 3.17157C10.269 2.61216 9.55628 2.2312 8.78036 2.07686C8.00444 1.92252 7.20017 2.00173 6.46927 2.30448C5.73836 2.60723 5.11365 3.11992 4.67412 3.77772C4.2346 4.43552 4 5.20888 4 6C4 7.06087 4.42143 8.07828 5.17157 8.82843C5.92172 9.57858 6.93913 10 8 10ZM8 4C8.39556 4 8.78224 4.1173 9.11114 4.33706C9.44004 4.55683 9.69638 4.86918 9.84776 5.23463C9.99913 5.60009 10.0387 6.00222 9.96157 6.39018C9.8844 6.77814 9.69392 7.13451 9.41421 7.41422C9.13451 7.69392 8.77814 7.8844 8.39018 7.96157C8.00222 8.03874 7.60009 7.99914 7.23463 7.84776C6.86918 7.69639 6.55682 7.44004 6.33706 7.11114C6.1173 6.78224 6 6.39556 6 6C6 5.46957 6.21071 4.96086 6.58579 4.58579C6.96086 4.21072 7.46957 4 8 4Z" fill="#97A3BA"/>
<path fill-rule="evenodd" clip-rule="evenodd" d="M16 12C16.5933 12 17.1734 11.8241 17.6667 11.4944C18.1601 11.1648 18.5446 10.6962 18.7716 10.1481C18.9987 9.59987 19.0581 8.99667 18.9424 8.41473C18.8266 7.83279 18.5409 7.29824 18.1213 6.87868C17.7018 6.45912 17.1672 6.1734 16.5853 6.05765C16.0033 5.94189 15.4001 6.0013 14.8519 6.22836C14.3038 6.45543 13.8352 6.83994 13.5056 7.33329C13.1759 7.82664 13 8.40666 13 9C13 9.79565 13.3161 10.5587 13.8787 11.1213C14.4413 11.6839 15.2044 12 16 12ZM16 8C16.1978 8 16.3911 8.05865 16.5556 8.16853C16.72 8.27841 16.8482 8.43459 16.9239 8.61732C16.9996 8.80004 17.0194 9.00111 16.9808 9.19509C16.9422 9.38907 16.847 9.56726 16.7071 9.70711C16.5673 9.84696 16.3891 9.9422 16.1951 9.98079C16.0011 10.0194 15.8 9.99957 15.6173 9.92388C15.4346 9.84819 15.2784 9.72002 15.1685 9.55557C15.0586 9.39112 15 9.19778 15 9C15 8.73478 15.1054 8.48043 15.2929 8.29289C15.4804 8.10536 15.7348 8 16 8Z" fill="#97A3BA"/>
<path d="M12.94 14.0498C13.8155 13.3704 14.8918 13.001 16 12.9998C17.3261 12.9998 18.5979 13.5266 19.5355 14.4643C20.4732 15.402 21 16.6737 21 17.9998C21 18.265 20.8946 18.5194 20.7071 18.7069C20.5196 18.8945 20.2652 18.9998 20 18.9998C19.7348 18.9998 19.4804 18.8945 19.2929 18.7069C19.1054 18.5194 19 18.265 19 17.9998C18.9993 17.4366 18.84 16.8849 18.5404 16.4079C18.2408 15.931 17.813 15.548 17.306 15.3028C16.7989 15.0576 16.233 14.9601 15.6731 15.0215C15.1132 15.0828 14.5819 15.3006 14.14 15.6498C14.7064 16.6754 15.0024 17.8282 15 18.9998C15 19.265 14.8946 19.5194 14.7071 19.7069C14.5196 19.8945 14.2652 19.9998 14 19.9998C13.7348 19.9998 13.4804 19.8945 13.2929 19.7069C13.1054 19.5194 13 19.265 13 18.9998C13 17.6737 12.4732 16.402 11.5355 15.4643C10.5979 14.5266 9.32608 13.9998 8 13.9998C6.67392 13.9998 5.40215 14.5266 4.46447 15.4643C3.52678 16.402 3 17.6737 3 18.9998C3 19.265 2.89464 19.5194 2.70711 19.7069C2.51957 19.8945 2.26522 19.9998 2 19.9998C1.73478 19.9998 1.48043 19.8945 1.29289 19.7069C1.10536 19.5194 1 19.265 1 18.9998C1.00187 17.6173 1.41307 16.2663 2.18174 15.1172C2.95041 13.9681 4.04213 13.0724 5.31923 12.5429C6.59632 12.0135 8.00159 11.8741 9.35782 12.1422C10.7141 12.4104 11.9605 13.0742 12.94 14.0498Z" fill="#97A3BA"/>
</svg>
