<svg width="24" height="24" viewBox="0 0 24 24" fill="none" xmlns="http://www.w3.org/2000/svg">
<path fill-rule="evenodd" clip-rule="evenodd" d="M9 15C9 13.3431 10.3431 12 12 12C13.6569 12 15 13.3431 15 15C15 16.6569 13.6569 18 12 18C10.3431 18 9 16.6569 9 15ZM12 14C11.4477 14 11 14.4477 11 15C11 15.5523 11.4477 16 12 16C12.5523 16 13 15.5523 13 15C13 14.4477 12.5523 14 12 14Z" fill="#777B92"/>
<path fill-rule="evenodd" clip-rule="evenodd" d="M12 2C14.2091 2 16 3.79086 16 6C16 6.55228 15.5523 7 15 7C14.4477 7 14 6.55228 14 6C14 4.89543 13.1046 4 12 4C10.8954 4 10 4.89543 10 6V8H18C19.1046 8 20 8.89543 20 10V20C20 21.1046 19.1046 22 18 22H6C4.89543 22 4 21.1046 4 20V10C4 8.89543 4.89543 8 6 8H8V6C8 3.79086 9.79086 2 12 2ZM6 10V20H18V10H6Z" fill="#777B92"/>
</svg>
