<svg width="24" height="24" viewBox="0 0 24 24" fill="none" xmlns="http://www.w3.org/2000/svg">
<path fill-rule="evenodd" clip-rule="evenodd" d="M5 4.5C5 2.567 6.567 1 8.5 1C10.433 1 12 2.567 12 4.5C12 6.433 10.433 8 8.5 8C6.567 8 5 6.433 5 4.5ZM8.5 3C7.67157 3 7 3.67157 7 4.5C7 5.32843 7.67157 6 8.5 6C9.32843 6 10 5.32843 10 4.5C10 3.67157 9.32843 3 8.5 3Z" fill="#777B92"/>
<path fill-rule="evenodd" clip-rule="evenodd" d="M19.7071 13.2929L21.7071 15.2929C22.0976 15.6834 22.0976 16.3166 21.7071 16.7071L19.7071 18.7071C19.3166 19.0976 18.6834 19.0976 18.2929 18.7071C17.9024 18.3166 17.9024 17.6834 18.2929 17.2929L18.5858 17H14C13.4477 17 13 16.5523 13 16C13 15.4477 13.4477 15 14 15H18.5858L18.2929 14.7071C17.9024 14.3166 17.9024 13.6834 18.2929 13.2929C18.6834 12.9024 19.3166 12.9024 19.7071 13.2929Z" fill="#777B92"/>
<path fill-rule="evenodd" clip-rule="evenodd" d="M13.7071 19.7071L13.4142 20H18C18.5523 20 19 20.4477 19 21C19 21.5523 18.5523 22 18 22H13.4142L13.7071 22.2929C14.0976 22.6834 14.0976 23.3166 13.7071 23.7071C13.3166 24.0976 12.6834 24.0976 12.2929 23.7071L10.2929 21.7071C9.90237 21.3166 9.90237 20.6834 10.2929 20.2929L12.2929 18.2929C12.6834 17.9024 13.3166 17.9024 13.7071 18.2929C14.0976 18.6834 14.0976 19.3166 13.7071 19.7071Z" fill="#777B92"/>
<path fill-rule="evenodd" clip-rule="evenodd" d="M5 9H12C13.1046 9 14 9.89543 14 11V13C14 13.5523 13.5523 14 13 14C12.4477 14 12 13.5523 12 13V11H5V16C6.10457 16 7 16.8954 7 18V22H9C9.55228 22 10 22.4477 10 23C10 23.5523 9.55228 24 9 24H7C5.89543 24 5 23.1046 5 22V18C3.89543 18 3 17.1046 3 16V11C3 9.89543 3.89543 9 5 9Z" fill="#777B92"/>
</svg>
