<svg width="22" height="22" viewBox="0 0 22 22" fill="none" xmlns="http://www.w3.org/2000/svg">
<path fill-rule="evenodd" clip-rule="evenodd" d="M8 10C8.79113 10 9.56448 9.76541 10.2223 9.32588C10.8801 8.88635 11.3928 8.26164 11.6955 7.53074C11.9983 6.79983 12.0775 5.99556 11.9231 5.21964C11.7688 4.44372 11.3878 3.73098 10.8284 3.17157C10.269 2.61216 9.55629 2.2312 8.78036 2.07686C8.00444 1.92252 7.20017 2.00173 6.46927 2.30448C5.73836 2.60723 5.11365 3.11992 4.67412 3.77772C4.2346 4.43552 4 5.20888 4 6C4 7.06087 4.42143 8.07828 5.17157 8.82843C5.92172 9.57857 6.93913 10 8 10ZM8 4C8.39556 4 8.78224 4.1173 9.11114 4.33706C9.44004 4.55683 9.69638 4.86918 9.84776 5.23463C9.99913 5.60009 10.0387 6.00222 9.96157 6.39018C9.8844 6.77814 9.69392 7.13451 9.41421 7.41422C9.13451 7.69392 8.77814 7.8844 8.39018 7.96157C8.00222 8.03874 7.60009 7.99914 7.23463 7.84776C6.86918 7.69639 6.55682 7.44004 6.33706 7.11114C6.1173 6.78224 6 6.39556 6 6C6 5.46957 6.21071 4.96086 6.58579 4.58579C6.96086 4.21072 7.46957 4 8 4ZM8 12C6.14348 12 4.36301 12.7375 3.05025 14.0503C1.7375 15.363 1 17.1435 1 19C1 19.2652 1.10536 19.5196 1.29289 19.7071C1.48043 19.8946 1.73478 20 2 20C2.26522 20 2.51957 19.8946 2.70711 19.7071C2.89464 19.5196 3 19.2652 3 19C3 17.6739 3.52678 16.4021 4.46447 15.4645C5.40215 14.5268 6.67392 14 8 14C9.32608 14 10.5979 14.5268 11.5355 15.4645C12.4732 16.4021 13 17.6739 13 19C13 19.2652 13.1054 19.5196 13.2929 19.7071C13.4804 19.8946 13.7348 20 14 20C14.2652 20 14.5196 19.8946 14.7071 19.7071C14.8946 19.5196 15 19.2652 15 19C15 17.1435 14.2625 15.363 12.9497 14.0503C11.637 12.7375 9.85652 12 8 12ZM17.5667 8.85081L17.6667 8.91116C17.7686 8.97126 17.8835 9.00186 18 8.99991C18.1142 9.00062 18.2267 8.97006 18.3267 8.91116L18.4267 8.85081C19.2068 8.3824 19.8561 7.70172 20.3083 6.87838C20.7604 6.05505 20.9991 5.11859 21 4.16478V4.11508C21.001 3.98937 20.9707 3.86562 20.9122 3.75647C20.8536 3.64732 20.7689 3.55668 20.6666 3.49383L18.3333 2.09512C18.232 2.03281 18.117 2 18 2C17.883 2 17.768 2.03281 17.6667 2.09512L15.3334 3.49383C15.2311 3.55668 15.1464 3.64732 15.0878 3.75647C15.0293 3.86562 14.999 3.98937 15 4.11508V4.16478C15.0002 5.11789 15.2379 6.05387 15.6888 6.87714C16.1398 7.70041 16.7878 8.38148 17.5667 8.85081ZM18.5552 5.91569C18.7445 5.57091 18.877 5.19101 18.9456 4.79399L18 4.22712L17.0537 4.79436C17.122 5.1914 17.254 5.5714 17.443 5.91637C17.5971 6.1978 17.7849 6.44847 17.998 6.66374C18.2119 6.44844 18.4004 6.19754 18.5552 5.91569Z" fill="#97A3BA"/>
</svg>
