<svg width="22" height="22" viewBox="0 0 22 22" fill="none" xmlns="http://www.w3.org/2000/svg">
<path fill-rule="evenodd" clip-rule="evenodd" d="M18.1389 6.87212L18.2222 6.92385C18.3072 6.97536 18.4029 7.00159 18.5 6.99993C18.5952 7.00054 18.6889 6.97434 18.7722 6.92385L18.8556 6.87212C19.5057 6.47063 20.0468 5.88719 20.4236 5.18147C20.8003 4.47575 20.9993 3.67308 21 2.85553V2.81293C21.0009 2.70518 20.9756 2.5991 20.9268 2.50554C20.878 2.41199 20.8074 2.3343 20.7222 2.28043L18.7778 1.08153C18.6933 1.02812 18.5975 1 18.5 1C18.4025 1 18.3067 1.02812 18.2222 1.08153L16.2778 2.28043C16.1926 2.3343 16.122 2.41199 16.0732 2.50554C16.0244 2.5991 15.9991 2.70518 16 2.81293V2.85553C16.0002 3.67248 16.1983 4.47474 16.574 5.18041C16.9498 5.88607 17.4898 6.46984 18.1389 6.87212ZM18.9627 4.35631C19.1205 4.06078 19.2308 3.73516 19.288 3.39485L18.5 2.90896L17.7114 3.39517C17.7683 3.73549 17.8783 4.0612 18.0358 4.35689C18.1643 4.59812 18.3208 4.81298 18.4983 4.99749C18.6766 4.81295 18.8337 4.59789 18.9627 4.35631Z" fill="#97A3BA"/>
<path fill-rule="evenodd" clip-rule="evenodd" d="M7 10.0045C7.79113 10.0045 8.56448 9.76973 9.22228 9.32996C9.88008 8.89019 10.3928 8.26512 10.6955 7.53381C10.9983 6.8025 11.0775 5.99779 10.9231 5.22143C10.7688 4.44508 10.3878 3.73195 9.82843 3.17223C9.26902 2.6125 8.55629 2.23133 7.78036 2.0769C7.00444 1.92248 6.20017 2.00173 5.46927 2.30465C4.73836 2.60757 4.11365 3.12055 3.67412 3.77871C3.2346 4.43687 3 5.21066 3 6.00223C3 7.06368 3.42143 8.08167 4.17157 8.83223C4.92172 9.58279 5.93913 10.0045 7 10.0045ZM7 4.00111C7.39556 4.00111 7.78224 4.11848 8.11114 4.33836C8.44004 4.55825 8.69638 4.87078 8.84776 5.23643C8.99913 5.60209 9.03874 6.00445 8.96157 6.39262C8.8844 6.7808 8.69392 7.13737 8.41421 7.41723C8.13451 7.69709 7.77814 7.88768 7.39018 7.96489C7.00222 8.0421 6.60009 8.00247 6.23463 7.85101C5.86918 7.69955 5.55682 7.44307 5.33706 7.11399C5.1173 6.7849 5 6.39801 5 6.00223C5 5.4715 5.21071 4.96251 5.58579 4.58723C5.96086 4.21195 6.46957 4.00111 7 4.00111Z" fill="#97A3BA"/>
<path d="M12.9082 15.2521C13.034 15.2324 13.1627 15.2222 13.2937 15.2222C14.4127 15.2222 15.3674 15.969 15.7406 17.0189C15.9255 17.5393 16.356 18 16.9083 18H17C17.5523 18 18.01 17.5482 17.9069 17.0057C17.4729 14.7206 15.5725 13 13.2937 13C12.5764 13 11.896 13.171 11.2873 13.4762C10.7984 13.0985 10.2586 12.7852 9.68 12.5455C8.82436 12.1843 7.91509 12.002 7 12.0015C6.08491 12.002 5.17564 12.1843 4.32 12.5455C3.04 13.0758 1.95 13.9663 1.18 15.1169C0.41 16.2675 0 17.6183 0 18.9991C0 19.2692 0.100001 19.5294 0.290001 19.7095C0.480001 19.8896 0.73 19.9996 1 19.9996C1.27 19.9996 1.53 19.8996 1.71 19.7095C1.89 19.5194 2 19.2692 2 18.9991C2 17.6683 2.53 16.3976 3.46 15.4571C4.4 14.5266 5.67 13.9963 7 13.9963C8.33 13.9963 9.6 14.5266 10.54 15.4571C11.47 16.3976 12 17.6683 12 18.9991C12 19.2692 12.11 19.5194 12.29 19.7095C12.47 19.8996 12.73 19.9996 13 19.9996C13.27 19.9996 13.52 19.8896 13.71 19.7095C13.9 19.5294 14 19.2692 14 18.9991C14 17.672 13.6213 16.3727 12.9082 15.2521Z" fill="#97A3BA"/>
<path fill-rule="evenodd" clip-rule="evenodd" d="M11 9C11 7.34315 12.3431 6 14 6C15.6569 6 17 7.34315 17 9C17 10.6569 15.6569 12 14 12C12.3431 12 11 10.6569 11 9ZM14 8C13.4477 8 13 8.44772 13 9C13 9.55228 13.4477 10 14 10C14.5523 10 15 9.55228 15 9C15 8.44772 14.5523 8 14 8Z" fill="#97A3BA"/>
</svg>
