<svg width="18" height="20" viewBox="0 0 18 20" fill="none" xmlns="http://www.w3.org/2000/svg">
<path d="M10 6C10 5.44772 9.55228 5 9 5C8.44772 5 8 5.44772 8 6V10C8 10.5523 8.44772 11 9 11C9.55228 11 10 10.5523 10 10V6Z" fill="#7887A5"/>
<path d="M10 13.5C10 14.0523 9.55228 14.5 9 14.5C8.44772 14.5 8 14.0523 8 13.5C8 12.9477 8.44772 12.5 9 12.5C9.55228 12.5 10 12.9477 10 13.5Z" fill="#7887A5"/>
<path fill-rule="evenodd" clip-rule="evenodd" d="M8.00008 19.7462C8.30584 19.9179 8.65063 20.0053 9.00008 19.9998C9.34277 20.0018 9.68023 19.9145 9.98008 19.7462L10.2801 19.5737C12.6205 18.2354 14.5686 16.2906 15.925 13.9382C17.2814 11.5858 17.9975 8.91026 18.0001 6.1851V6.0431C18.0033 5.68393 17.9123 5.33034 17.7366 5.01848C17.561 4.70662 17.3068 4.44767 17.0001 4.26809L10.0001 0.271779C9.69604 0.0937334 9.35115 0 9.00008 0C8.64901 0 8.30412 0.0937334 8.00008 0.271779L1.00008 4.26809C0.693391 4.44767 0.439209 4.70662 0.263514 5.01848C0.0878186 5.33034 -0.00308979 5.68393 8.0152e-05 6.0431V6.1851C0.000670048 8.90826 0.713767 11.5825 2.06655 13.9347C3.41934 16.2869 5.36335 18.2328 7.70008 19.5737L8.00008 19.7462ZM2.00008 6.0431L9.00008 2.04679L16.0001 6.0431V6.1851C15.9984 8.54951 15.3771 10.871 14.1998 12.9117C13.0225 14.9524 11.3315 16.639 9.30008 17.7987L9.00008 17.9712L8.70008 17.7987C6.66866 16.639 4.97769 14.9524 3.80038 12.9117C2.62308 10.871 2.00176 8.54951 2.00008 6.1851V6.0431Z" fill="#7887A5"/>
</svg>
