<svg width="22" height="22" viewBox="0 0 22 22" fill="none" xmlns="http://www.w3.org/2000/svg">
<path fill-rule="evenodd" clip-rule="evenodd" d="M13 6C13 7.10457 12.1046 8 11 8C9.89543 8 9 7.10457 9 6C9 4.89543 9.89543 4 11 4C12.1046 4 13 4.89543 13 6ZM15 6C15 8.20914 13.2091 10 11 10C8.79086 10 7 8.20914 7 6C7 3.79086 8.79086 2 11 2C13.2091 2 15 3.79086 15 6ZM19 9C19 9.55228 18.5523 10 18 10C17.4477 10 17 9.55228 17 9C17 8.44772 17.4477 8 18 8C18.5523 8 19 8.44772 19 9ZM21 9C21 10.6569 19.6569 12 18 12C16.3431 12 15 10.6569 15 9C15 7.34315 16.3431 6 18 6C19.6569 6 21 7.34315 21 9ZM4 10C4.55228 10 5 9.55228 5 9C5 8.44772 4.55228 8 4 8C3.44772 8 3 8.44772 3 9C3 9.55228 3.44772 10 4 10ZM4 12C5.65685 12 7 10.6569 7 9C7 7.34315 5.65685 6 4 6C2.34315 6 1 7.34315 1 9C1 10.6569 2.34315 12 4 12ZM16.9507 15.2514C17.0774 15.2317 17.207 15.2215 17.339 15.2215C18.4659 15.2215 19.4275 15.9684 19.8034 17.0186C19.9897 17.5391 20.4233 17.9999 20.9795 17.9999H21.0719C21.6281 17.9999 22.0891 17.5481 21.9853 17.0053C21.5482 14.7198 19.6341 12.9988 17.339 12.9988C16.6165 12.9988 15.9312 13.1698 15.3181 13.475C14.8257 13.0973 14.282 12.7839 13.6993 12.5441C12.8375 12.1829 11.9217 12.0005 11 12C10.0783 12.0005 9.16253 12.1829 8.30074 12.5441C7.71798 12.7839 7.17433 13.0973 6.68187 13.475C6.06878 13.1698 5.3835 12.9988 4.66103 12.9988C2.36593 12.9988 0.451803 14.7198 0.0146923 17.0053C-0.0890989 17.5481 0.371892 17.9999 0.928145 17.9999H1.02047C1.57673 17.9999 2.01033 17.5391 2.19661 17.0186C2.57246 15.9684 3.53408 15.2215 4.66103 15.2215C4.793 15.2215 4.92265 15.2317 5.04931 15.2514C4.33114 16.3722 3.9497 17.6719 3.9497 18.9992C3.9497 19.2694 4.05042 19.5296 4.24179 19.7098C4.43315 19.8899 4.68495 20 4.95689 20C5.22883 20 5.4907 19.8999 5.67199 19.7098C5.85328 19.5196 5.96407 19.2694 5.96407 18.9992C5.96407 17.6682 6.49788 16.3972 7.43456 15.4564C8.38132 14.5257 9.66044 13.9953 11 13.9953C12.3396 13.9953 13.6187 14.5257 14.5654 15.4564C15.5021 16.3972 16.0359 17.6682 16.0359 18.9992C16.0359 19.2694 16.1467 19.5196 16.328 19.7098C16.5093 19.8999 16.7712 20 17.0431 20C17.3151 20 17.5668 19.8899 17.7582 19.7098C17.9496 19.5296 18.0503 19.2694 18.0503 18.9992C18.0503 17.6719 17.6689 16.3722 16.9507 15.2514Z" fill="#97A3BA"/>
</svg>
