<svg width="24" height="24" viewBox="0 0 24 24" fill="none" xmlns="http://www.w3.org/2000/svg">
<path fill-rule="evenodd" clip-rule="evenodd" d="M12 3C14.2091 3 16 4.79086 16 7C16 9.20914 14.2091 11 12 11C9.79086 11 8 9.20914 8 7C8 4.79086 9.79086 3 12 3ZM10 7C10 8.10457 10.8954 9 12 9C13.1046 9 14 8.10457 14 7C14 5.89543 13.1046 5 12 5C10.8954 5 10 5.89543 10 7Z" fill="#777B92"/>
<path fill-rule="evenodd" clip-rule="evenodd" d="M7 20C7 20.5523 6.55228 21 6 21C5.44772 21 5 20.5523 5 20C5 16.134 8.13401 13 12 13C15.866 13 19 16.134 19 20C19 20.5523 18.5523 21 18 21C17.4477 21 17 20.5523 17 20C17 17.2386 14.7614 15 12 15C9.23858 15 7 17.2386 7 20Z" fill="#777B92"/>
</svg>
