<svg width="22" height="22" viewBox="0 0 22 22" fill="none" xmlns="http://www.w3.org/2000/svg">
<path fill-rule="evenodd" clip-rule="evenodd" d="M9 10C9.79113 10 10.5645 9.76541 11.2223 9.32588C11.8801 8.88635 12.3928 8.26164 12.6955 7.53074C12.9983 6.79983 13.0775 5.99556 12.9231 5.21964C12.7688 4.44372 12.3878 3.73098 11.8284 3.17157C11.269 2.61216 10.5563 2.2312 9.78036 2.07686C9.00444 1.92252 8.20017 2.00173 7.46927 2.30448C6.73836 2.60723 6.11365 3.11992 5.67412 3.77772C5.2346 4.43552 5 5.20888 5 6C5 7.06087 5.42143 8.07828 6.17157 8.82843C6.92172 9.57857 7.93913 10 9 10ZM9 4C9.39556 4 9.78224 4.1173 10.1111 4.33706C10.44 4.55683 10.6964 4.86918 10.8478 5.23463C10.9991 5.60009 11.0387 6.00222 10.9616 6.39018C10.8844 6.77814 10.6939 7.13451 10.4142 7.41422C10.1345 7.69392 9.77814 7.8844 9.39018 7.96157C9.00222 8.03874 8.60009 7.99914 8.23463 7.84776C7.86918 7.69639 7.55682 7.44004 7.33706 7.11114C7.1173 6.78224 7 6.39556 7 6C7 5.46957 7.21071 4.96086 7.58579 4.58579C7.96086 4.21072 8.46957 4 9 4Z" fill="#97A3BA"/>
<path d="M20.6667 3.24873C20.4675 3.07388 20.2071 2.98516 19.9425 3.00203C19.678 3.01891 19.4309 3.14001 19.2556 3.33875L17.3842 5.48931L16.7537 4.77913C16.5772 4.58016 16.3288 4.45943 16.0633 4.44348C15.7977 4.42754 15.5367 4.51769 15.3376 4.6941C15.1386 4.87052 15.0178 5.11875 15.0018 5.38418C14.9859 5.64961 15.0761 5.91051 15.2526 6.10948L16.6436 7.66988C16.7383 7.77476 16.8542 7.8584 16.9835 7.91529C17.1129 7.97219 17.2529 8.00105 17.3942 7.99997C17.5346 7.99838 17.6731 7.96728 17.8007 7.90869C17.9283 7.8501 18.0421 7.76532 18.1348 7.65988L20.7467 4.6591C20.9229 4.4613 21.0134 4.20175 20.9984 3.93737C20.9834 3.67299 20.8641 3.42534 20.6667 3.24873Z" fill="#97A3BA"/>
<path d="M4.05025 14.0503C5.36301 12.7375 7.14348 12 9 12C10.8565 12 12.637 12.7375 13.9497 14.0503C15.2625 15.363 16 17.1435 16 19C16 19.2652 15.8946 19.5196 15.7071 19.7071C15.5196 19.8946 15.2652 20 15 20C14.7348 20 14.4804 19.8946 14.2929 19.7071C14.1054 19.5196 14 19.2652 14 19C14 17.6739 13.4732 16.4021 12.5355 15.4645C11.5979 14.5268 10.3261 14 9 14C7.67392 14 6.40215 14.5268 5.46447 15.4645C4.52678 16.4021 4 17.6739 4 19C4 19.2652 3.89464 19.5196 3.70711 19.7071C3.51957 19.8946 3.26522 20 3 20C2.73478 20 2.48043 19.8946 2.29289 19.7071C2.10536 19.5196 2 19.2652 2 19C2 17.1435 2.7375 15.363 4.05025 14.0503Z" fill="#97A3BA"/>
</svg>
