<svg width="22" height="22" viewBox="0 0 22 22" fill="none" xmlns="http://www.w3.org/2000/svg">
<path fill-rule="evenodd" clip-rule="evenodd" d="M22 5C22 8 19 10 19 10C19 10 16 8 16 5C16 3.34315 17.3431 2 19 2C20.6569 2 22 3.34315 22 5ZM20 5C20 5.81567 19.589 6.60815 19 7.30172C18.411 6.60815 18 5.81567 18 5C18 4.44772 18.4477 4 19 4C19.5523 4 20 4.44772 20 5Z" fill="#97A3BA"/>
<path fill-rule="evenodd" clip-rule="evenodd" d="M9 10C9.79113 10 10.5645 9.76541 11.2223 9.32588C11.8801 8.88635 12.3928 8.26164 12.6955 7.53074C12.9983 6.79983 13.0775 5.99556 12.9231 5.21964C12.7688 4.44372 12.3878 3.73098 11.8284 3.17157C11.269 2.61216 10.5563 2.2312 9.78036 2.07686C9.00444 1.92252 8.20017 2.00173 7.46927 2.30448C6.73836 2.60723 6.11365 3.11992 5.67412 3.77772C5.2346 4.43552 5 5.20888 5 6C5 7.06087 5.42143 8.07828 6.17157 8.82843C6.92172 9.57857 7.93913 10 9 10ZM9 4C9.39556 4 9.78224 4.1173 10.1111 4.33706C10.44 4.55683 10.6964 4.86918 10.8478 5.23463C10.9991 5.60009 11.0387 6.00222 10.9616 6.39018C10.8844 6.77814 10.6939 7.13451 10.4142 7.41422C10.1345 7.69392 9.77814 7.8844 9.39018 7.96157C9.00222 8.03874 8.60009 7.99914 8.23463 7.84776C7.86918 7.69639 7.55682 7.44004 7.33706 7.11114C7.1173 6.78224 7 6.39556 7 6C7 5.46957 7.21071 4.96086 7.58579 4.58579C7.96086 4.21072 8.46957 4 9 4Z" fill="#97A3BA"/>
<path d="M9 12C7.14348 12 5.36301 12.7375 4.05025 14.0503C2.7375 15.363 2 17.1435 2 19C2 19.2652 2.10536 19.5196 2.29289 19.7071C2.48043 19.8946 2.73478 20 3 20C3.26522 20 3.51957 19.8946 3.70711 19.7071C3.89464 19.5196 4 19.2652 4 19C4 17.6739 4.52678 16.4021 5.46447 15.4645C6.40215 14.5268 7.67392 14 9 14C10.3261 14 11.5979 14.5268 12.5355 15.4645C13.4732 16.4021 14 17.6739 14 19C14 19.2652 14.1054 19.5196 14.2929 19.7071C14.4804 19.8946 14.7348 20 15 20C15.2652 20 15.5196 19.8946 15.7071 19.7071C15.8946 19.5196 16 19.2652 16 19C16 17.1435 15.2625 15.363 13.9497 14.0503C12.637 12.7375 10.8565 12 9 12Z" fill="#97A3BA"/>
</svg>
