<svg width="22" height="22" viewBox="0 0 22 22" fill="none" xmlns="http://www.w3.org/2000/svg">
<path fill-rule="evenodd" clip-rule="evenodd" d="M3 4C3 2.34315 4.34315 1 6 1C7.65685 1 9 2.34315 9 4C9 5.65685 7.65685 7 6 7C4.34315 7 3 5.65685 3 4ZM6 3C5.44772 3 5 3.44772 5 4C5 4.55228 5.44772 5 6 5C6.55228 5 7 4.55228 7 4C7 3.44772 6.55228 3 6 3Z" fill="#97A3BA"/>
<path fill-rule="evenodd" clip-rule="evenodd" d="M13 4C13 2.34315 14.3431 1 16 1C17.6569 1 19 2.34315 19 4C19 5.65685 17.6569 7 16 7C14.3431 7 13 5.65685 13 4ZM16 3C15.4477 3 15 3.44772 15 4C15 4.55228 15.4477 5 16 5C16.5523 5 17 4.55228 17 4C17 3.44772 16.5523 3 16 3Z" fill="#97A3BA"/>
<path d="M16.5955 17.4962L14.7785 19.3063C14.5917 19.4923 14.4868 19.7447 14.4868 20.0078C14.4868 20.271 14.5917 20.5233 14.7785 20.7094C14.9653 20.8955 15.2186 21 15.4828 21C15.7469 21 16.0002 20.8955 16.187 20.7094L19.7083 17.2016C19.8951 17.0155 20 16.7631 20 16.5C20 16.2369 19.8951 15.9845 19.7083 15.7984L16.187 12.2906C16.0002 12.1045 15.7469 12 15.4828 12C15.2186 12 14.9653 12.1045 14.7785 12.2906C14.5917 12.4767 14.4868 12.729 14.4868 12.9922C14.4868 13.2553 14.5917 13.5077 14.7785 13.6937L16.5884 15.4968L6.00004 15.5038C5.73481 15.5038 5.48045 15.6088 5.29291 15.7956C5.10536 15.9825 5 16.2359 5 16.5001C5 16.7643 5.10536 17.0177 5.29291 17.2045C5.48045 17.3913 5.73482 17.4963 6.00004 17.4963L16.5955 17.4962Z" fill="#97A3BA"/>
<path d="M2.06605 13.0101C1.92892 13.5453 1.49122 14 0.935366 14C0.379512 14 -0.0798886 13.5489 0.0116917 13.0042C0.489109 10.1644 2.974 8 5.96768 8C8.06814 8 9.91813 9.06551 11 10.6822C12.0819 9.06551 13.9319 8 16.0323 8C19.026 8 21.5109 10.1644 21.9883 13.0042C22.0799 13.5489 21.6205 14 21.0646 14C20.5088 14 20.0711 13.5453 19.9339 13.0101C19.4906 11.2798 17.9119 10 16.0323 10C14.1528 10 12.574 11.2798 12.1307 13.0101C11.9936 13.5453 11.5559 14 11 14C10.4441 14 10.0064 13.5453 9.86931 13.0101C9.42595 11.2798 7.84723 10 5.96768 10C4.08813 10 2.50941 11.2798 2.06605 13.0101Z" fill="#97A3BA"/>
</svg>
