<svg width="22" height="22" viewBox="0 0 22 22" fill="none" xmlns="http://www.w3.org/2000/svg">
<path fill-rule="evenodd" clip-rule="evenodd" d="M12.5569 15.4295C11.7812 15.7954 10.9145 16 10 16C9.0855 16 8.21878 15.7954 7.44313 15.4295C7.97138 14.5716 8.9197 14 10 14C11.0803 14 12.0286 14.5716 12.5569 15.4295ZM14.1994 14.2855C13.3088 12.9103 11.7614 12 10 12C8.23858 12 6.69121 12.9103 5.80064 14.2855C4.68945 13.1965 4 11.6788 4 10C4 6.68629 6.68629 4 10 4C13.3137 4 16 6.68629 16 10C16 11.6787 15.3106 13.1965 14.1994 14.2855ZM14.8437 16.3675C13.4993 17.3918 11.8207 18 10 18C5.58172 18 2 14.4183 2 10C2 5.58172 5.58172 2 10 2C14.4183 2 18 5.58172 18 10C18 11.8205 17.3919 13.499 16.3677 14.8435C16.414 14.877 16.4583 14.9147 16.5 14.9564L19.685 18.1414C20.1112 18.5675 20.1112 19.2585 19.685 19.6847C19.2588 20.1109 18.5678 20.1109 18.1416 19.6847L14.9566 16.4998C14.9149 16.458 14.8773 16.4138 14.8437 16.3675ZM10 7C9.44772 7 9 7.44772 9 8C9 8.55228 9.44772 9 10 9C10.5523 9 11 8.55228 11 8C11 7.44772 10.5523 7 10 7ZM7 8C7 6.34315 8.34315 5 10 5C11.6569 5 13 6.34315 13 8C13 9.65685 11.6569 11 10 11C8.34315 11 7 9.65685 7 8Z" fill="#97A3BA"/>
</svg>
