<svg width="24" height="24" viewBox="0 0 24 24" fill="none" xmlns="http://www.w3.org/2000/svg">
<path fill-rule="evenodd" clip-rule="evenodd" d="M12 3C14.2091 3 16 4.79086 16 7C16 9.20914 14.2091 11 12 11C9.79086 11 8 9.20914 8 7C8 4.79086 9.79086 3 12 3ZM10 7C10 8.10457 10.8954 9 12 9C13.1046 9 14 8.10457 14 7C14 5.89543 13.1046 5 12 5C10.8954 5 10 5.89543 10 7Z" fill="#777B92"/>
<path fill-rule="evenodd" clip-rule="evenodd" d="M19 7C20.6569 7 22 8.34315 22 10C22 11.6569 20.6569 13 19 13C17.3431 13 16 11.6569 16 10C16 8.34315 17.3431 7 19 7ZM18 10C18 10.5523 18.4477 11 19 11C19.5523 11 20 10.5523 20 10C20 9.44772 19.5523 9 19 9C18.4477 9 18 9.44772 18 10Z" fill="#777B92"/>
<path fill-rule="evenodd" clip-rule="evenodd" d="M2 10C2 8.34315 3.34315 7 5 7C6.65685 7 8 8.34315 8 10C8 11.6569 6.65685 13 5 13C3.34315 13 2 11.6569 2 10ZM5 9C4.44772 9 4 9.44772 4 10C4 10.5523 4.44772 11 5 11C5.55228 11 6 10.5523 6 10C6 9.44772 5.55228 9 5 9Z" fill="#777B92"/>
<path fill-rule="evenodd" clip-rule="evenodd" d="M7 20C7 20.5523 6.55228 21 6 21C5.44772 21 5 20.5523 5 20C5 18.5109 5.46498 17.1304 6.25767 15.9957C5.59549 15.9223 5.01331 16.0658 4.53035 16.3214C3.71374 16.7537 3.14996 17.5234 2.97014 18.2427C2.8362 18.7785 2.29328 19.1043 1.75748 18.9704C1.22168 18.8364 0.895907 18.2935 1.02984 17.7577C1.35003 16.4769 2.28624 15.2465 3.59463 14.5538C4.79587 13.9179 6.28946 13.7463 7.86665 14.35C9.02495 13.5012 10.4539 13 12 13C13.5461 13 14.975 13.5012 16.1333 14.35C17.7105 13.7463 19.2041 13.9179 20.4053 14.5538C21.7137 15.2465 22.6499 16.4769 22.9701 17.7577C23.1041 18.2935 22.7783 18.8364 22.2425 18.9704C21.7067 19.1043 21.1638 18.7785 21.0298 18.2427C20.85 17.5234 20.2862 16.7537 19.4696 16.3214C18.9867 16.0658 18.4045 15.9224 17.7423 15.9957C18.535 17.1304 19 18.5109 19 20C19 20.5523 18.5523 21 18 21C17.4477 21 17 20.5523 17 20C17 17.2386 14.7614 15 12 15C9.23858 15 7 17.2386 7 20Z" fill="#777B92"/>
</svg>
