<svg width="24" height="24" viewBox="0 0 24 24" fill="none" xmlns="http://www.w3.org/2000/svg">
<path fill-rule="evenodd" clip-rule="evenodd" d="M6 7C6 4.79086 7.79086 3 10 3C12.2091 3 14 4.79086 14 7C14 9.20914 12.2091 11 10 11C7.79086 11 6 9.20914 6 7ZM10 5C8.89543 5 8 5.89543 8 7C8 8.10457 8.89543 9 10 9C11.1046 9 12 8.10457 12 7C12 5.89543 11.1046 5 10 5Z" fill="#777B92"/>
<path fill-rule="evenodd" clip-rule="evenodd" d="M10 15C7.23858 15 5 17.2386 5 20C5 20.5523 4.55228 21 4 21C3.44772 21 3 20.5523 3 20C3 16.134 6.13401 13 10 13C13.866 13 17 16.134 17 20C17 20.5523 16.5523 21 16 21C15.4477 21 15 20.5523 15 20C15 17.2386 12.7614 15 10 15Z" fill="#777B92"/>
<path fill-rule="evenodd" clip-rule="evenodd" d="M20.7071 5.29289C21.0976 5.68342 21.0976 6.31658 20.7071 6.70711L19.4142 8C18.6332 8.78105 17.3668 8.78105 16.5858 8L16.2929 7.70711C15.9024 7.31658 15.9024 6.68342 16.2929 6.29289C16.6834 5.90237 17.3166 5.90237 17.7071 6.29289L18 6.58579L19.2929 5.29289C19.6834 4.90237 20.3166 4.90237 20.7071 5.29289Z" fill="#777B92"/>
</svg>
