<svg width="22" height="22" viewBox="0 0 22 22" fill="none" xmlns="http://www.w3.org/2000/svg">
<path fill-rule="evenodd" clip-rule="evenodd" d="M9.66671 11.4944C9.17336 11.8241 8.59334 12 8 12C7.20435 12 6.44129 11.6839 5.87868 11.1213C5.31607 10.5587 5 9.79565 5 9C5 8.40666 5.17595 7.82664 5.50559 7.33329C5.83524 6.83994 6.30377 6.45543 6.85195 6.22836C7.40013 6.0013 8.00333 5.94189 8.58527 6.05765C9.16721 6.1734 9.70176 6.45912 10.1213 6.87868C10.5409 7.29824 10.8266 7.83279 10.9424 8.41473C11.0581 8.99667 10.9987 9.59987 10.7716 10.1481C10.5446 10.6962 10.1601 11.1648 9.66671 11.4944ZM8 10C8.19778 10 8.39112 9.94135 8.55557 9.83147C8.72002 9.72159 8.84819 9.56541 8.92388 9.38268C8.99957 9.19996 9.01937 8.99889 8.98078 8.80491C8.9422 8.61093 8.84696 8.43275 8.70711 8.29289C8.56725 8.15304 8.38907 8.0578 8.19509 8.01922C8.00111 7.98063 7.80004 8.00043 7.61732 8.07612C7.43459 8.15181 7.27841 8.27998 7.16853 8.44443C7.05865 8.60888 7 8.80222 7 9C7 9.26522 7.10536 9.51957 7.29289 9.70711C7.48043 9.89464 7.73478 10 8 10Z" fill="#97A3BA"/>
<path d="M13 9C13 8.44772 13.4477 8 14 8H17C17.5523 8 18 8.44772 18 9C18 9.55228 17.5523 10 17 10H14C13.4477 10 13 9.55228 13 9Z" fill="#97A3BA"/>
<path d="M15 12C14.4477 12 14 12.4477 14 13C14 13.5523 14.4477 14 15 14H17C17.5523 14 18 13.5523 18 13C18 12.4477 17.5523 12 17 12H15Z" fill="#97A3BA"/>
<path fill-rule="evenodd" clip-rule="evenodd" d="M0 5C0 3.34315 1.34315 2 3 2H19C20.6569 2 22 3.34315 22 5V17C22 18.6569 20.6569 20 19 20H3C1.34315 20 0 18.6569 0 17V5ZM3 4C2.44772 4 2 4.44772 2 5V17C2 17.2094 2.06433 17.4037 2.1743 17.5643C2.34013 16.8915 2.62213 16.2488 3.01118 15.6666C3.67047 14.6799 4.60754 13.9109 5.7039 13.4567C6.80026 13.0026 8.00665 12.8838 9.17054 13.1153C10.3344 13.3468 11.4035 13.9182 12.2426 14.7574C13.0818 15.5965 13.6532 16.6656 13.8847 17.8295C13.896 17.8862 13.9065 17.9431 13.9161 18H19C19.5523 18 20 17.5523 20 17V5C20 4.44772 19.5523 4 19 4H3ZM11.873 18C11.6947 17.3095 11.3346 16.6778 10.8284 16.1716C10.269 15.6122 9.55628 15.2312 8.78036 15.0769C8.00444 14.9225 7.20017 15.0017 6.46927 15.3045C5.73836 15.6072 5.11365 16.1199 4.67412 16.7777C4.42303 17.1535 4.23882 17.567 4.12702 18H11.873Z" fill="#97A3BA"/>
</svg>
