<svg width="24" height="24" viewBox="0 0 24 24" fill="none" xmlns="http://www.w3.org/2000/svg">
<path fill-rule="evenodd" clip-rule="evenodd" d="M20 1C20.5523 1 21 1.44772 21 2V2.17071C21.3361 2.28951 21.6448 2.46653 21.9138 2.68964C22.3048 2.40609 22.8547 2.44051 23.2071 2.79289C23.5976 3.18342 23.5976 3.81658 23.2071 4.20711L22.9519 4.46227C22.9835 4.63673 23 4.81644 23 5C23 5.18356 22.9835 5.36327 22.9519 5.53773L23.2071 5.79289C23.5976 6.18342 23.5976 6.81658 23.2071 7.20711C22.8547 7.55949 22.3048 7.59391 21.9138 7.31036C21.6448 7.53347 21.3361 7.71049 21 7.82929V8C21 8.55228 20.5523 9 20 9C19.4477 9 19 8.55228 19 8V7.82929C18.6639 7.71049 18.3552 7.53347 18.0862 7.31036C17.6952 7.59391 17.1453 7.55949 16.7929 7.20711C16.4024 6.81658 16.4024 6.18342 16.7929 5.79289L17.0481 5.53773C17.0165 5.36327 17 5.18356 17 5C17 4.81644 17.0165 4.63673 17.0481 4.46227L16.7929 4.20711C16.4024 3.81658 16.4024 3.18342 16.7929 2.79289C17.1453 2.44051 17.6952 2.40609 18.0862 2.68964C18.3552 2.46653 18.6639 2.28951 19 2.17071V2C19 1.44772 19.4477 1 20 1ZM20 6C20.5523 6 21 5.55228 21 5C21 4.44772 20.5523 4 20 4C19.4477 4 19 4.44772 19 5C19 5.55228 19.4477 6 20 6Z" fill="#777B92"/>
<path fill-rule="evenodd" clip-rule="evenodd" d="M4 7C4 4.79086 5.79086 3 8 3C10.2091 3 12 4.79086 12 7C12 9.20914 10.2091 11 8 11C5.79086 11 4 9.20914 4 7ZM8 5C6.89543 5 6 5.89543 6 7C6 8.10457 6.89543 9 8 9C9.10457 9 10 8.10457 10 7C10 5.89543 9.10457 5 8 5Z" fill="#777B92"/>
<path fill-rule="evenodd" clip-rule="evenodd" d="M12 10C12 8.34315 13.3431 7 15 7C16.6569 7 18 8.34315 18 10C18 11.6569 16.6569 13 15 13C13.3431 13 12 11.6569 12 10ZM15 9C14.4477 9 14 9.44772 14 10C14 10.5523 14.4477 11 15 11C15.5523 11 16 10.5523 16 10C16 9.44772 15.5523 9 15 9Z" fill="#777B92"/>
<path fill-rule="evenodd" clip-rule="evenodd" d="M3 20C3 20.5523 2.55228 21 2 21C1.44772 21 1 20.5523 1 20C1 16.134 4.13401 13 8 13C9.54605 13 10.975 13.5012 12.1333 14.35C13.7105 13.7463 15.2041 13.9179 16.4053 14.5538C17.7137 15.2465 18.6499 16.4769 18.9701 17.7577C19.1041 18.2935 18.7783 18.8364 18.2425 18.9704C17.7067 19.1043 17.1638 18.7785 17.0298 18.2427C16.85 17.5234 16.2862 16.7537 15.4696 16.3214C14.9867 16.0658 14.4045 15.9223 13.7423 15.9957C14.535 17.1304 15 18.5109 15 20C15 20.5523 14.5523 21 14 21C13.4477 21 13 20.5523 13 20C13 17.2386 10.7614 15 8 15C5.23858 15 3 17.2386 3 20Z" fill="#777B92"/>
</svg>
