<svg width="22" height="22" viewBox="0 0 22 22" fill="none" xmlns="http://www.w3.org/2000/svg">
<path fill-rule="evenodd" clip-rule="evenodd" d="M13.2223 9.32588C12.5645 9.76541 11.7911 10 11 10C9.93913 10 8.92172 9.57857 8.17157 8.82843C7.42143 8.07828 7 7.06087 7 6C7 5.20888 7.2346 4.43552 7.67412 3.77772C8.11365 3.11992 8.73836 2.60723 9.46927 2.30448C10.2002 2.00173 11.0044 1.92252 11.7804 2.07686C12.5563 2.2312 13.269 2.61216 13.8284 3.17157C14.3878 3.73098 14.7688 4.44372 14.9231 5.21964C15.0775 5.99556 14.9983 6.79983 14.6955 7.53074C14.3928 8.26164 13.8801 8.88635 13.2223 9.32588ZM12.1111 4.33706C11.7822 4.1173 11.3956 4 11 4C10.4696 4 9.96086 4.21072 9.58579 4.58579C9.21071 4.96086 9 5.46957 9 6C9 6.39556 9.1173 6.78224 9.33706 7.11114C9.55682 7.44004 9.86918 7.69639 10.2346 7.84776C10.6001 7.99914 11.0022 8.03874 11.3902 7.96157C11.7781 7.8844 12.1345 7.69392 12.4142 7.41422C12.6939 7.13451 12.8844 6.77814 12.9616 6.39018C13.0387 6.00222 12.9991 5.60009 12.8478 5.23463C12.6964 4.86918 12.44 4.55683 12.1111 4.33706Z" fill="#97A3BA"/>
<path d="M6.05025 14.0503C7.36301 12.7375 9.14348 12 11 12C12.8565 12 14.637 12.7375 15.9497 14.0503C17.2625 15.363 18 17.1435 18 19C18 19.2652 17.8946 19.5196 17.7071 19.7071C17.5196 19.8946 17.2652 20 17 20C16.7348 20 16.4804 19.8946 16.2929 19.7071C16.1054 19.5196 16 19.2652 16 19C16 17.6739 15.4732 16.4021 14.5355 15.4645C13.5979 14.5268 12.3261 14 11 14C9.67392 14 8.40215 14.5268 7.46447 15.4645C6.52678 16.4021 6 17.6739 6 19C6 19.2652 5.89464 19.5196 5.70711 19.7071C5.51957 19.8946 5.26522 20 5 20C4.73478 20 4.48043 19.8946 4.29289 19.7071C4.10536 19.5196 4 19.2652 4 19C4 17.1435 4.7375 15.363 6.05025 14.0503Z" fill="#97A3BA"/>
</svg>
