<svg width="24" height="24" viewBox="0 0 24 24" fill="none" xmlns="http://www.w3.org/2000/svg">
<path fill-rule="evenodd" clip-rule="evenodd" d="M13 13C12.4477 13 12 12.5523 12 12C12 11.4477 12.4477 11 13 11C13.5523 11 14 11.4477 14 12C14 12.5523 13.5523 13 13 13Z" fill="#777B92"/>
<path fill-rule="evenodd" clip-rule="evenodd" d="M20 18H19V19C19 20.1046 18.1046 21 17 21H4C2.89543 21 2 20.1046 2 19L2 5C2 3.89543 2.89543 3 4 3L17 3C18.1046 3 19 3.89543 19 5V6H20C21.1046 6 22 6.89543 22 8V16C22 17.1046 21.1046 18 20 18ZM8 8C8 6.89543 8.89543 6 10 6H17V5L4 5L4 19H17L17 18L10 18C8.89543 18 8 17.1046 8 16L8 8ZM20 8L10 8L10 16L20 16V8Z" fill="#777B92"/>
</svg>
