<svg width="24" height="24" viewBox="0 0 24 24" fill="none" xmlns="http://www.w3.org/2000/svg">
<path fill-rule="evenodd" clip-rule="evenodd" d="M2.75746 2.03009C3.29325 1.89615 3.83619 2.22191 3.97013 2.7577L5.97013 10.7577C6.10408 11.2935 5.77832 11.8364 5.24253 11.9704C4.70673 12.1043 4.1638 11.7786 4.02985 11.2428L2.02985 3.24277C1.8959 2.70698 2.22166 2.16404 2.75746 2.03009Z" fill="#777B92"/>
<path fill-rule="evenodd" clip-rule="evenodd" d="M9.78077 12C8.86303 12 8.06307 11.3754 7.84049 10.4851L6.34049 4.48507C6.02491 3.22278 6.97963 2 8.28077 2H11.0008H17C19.7614 2 22 4.23858 22 7C22 9.47733 20.1983 11.5339 17.8338 11.9308L16.1415 20.3924C15.9545 21.3273 15.1337 22.0002 14.1803 22.0002H11.2199C9.95782 22.0002 9.01124 20.8455 9.25876 19.608L10.7803 12H9.78077ZM10.2192 4L8.28077 4L9.78077 10H11.7192L10.2192 4ZM12.9686 12H12.82L12.02 16H14.9803L15.7803 12H13.0299C13.0094 12.0006 12.9889 12.0006 12.9686 12ZM13.7807 10H17C18.6568 10 20 8.65685 20 7C20 5.34315 18.6568 4 17 4L12.2807 4L13.7807 10ZM14.5803 18H11.62L11.2199 20.0002L14.1803 20.0002L14.5803 18Z" fill="#777B92"/>
</svg>
