<svg width="24" height="24" viewBox="0 0 24 24" fill="none" xmlns="http://www.w3.org/2000/svg">
<path fill-rule="evenodd" clip-rule="evenodd" d="M3 4C3 3.44772 3.44772 3 4 3H10C10.5523 3 11 3.44772 11 4V10C11 10.5523 10.5523 11 10 11H4C3.44772 11 3 10.5523 3 10V4ZM5 5V9H9V5H5Z" fill="#777B92"/>
<path fill-rule="evenodd" clip-rule="evenodd" d="M17 13C17.3788 13 17.725 13.214 17.8944 13.5528L20.8944 19.5528C21.0494 19.8628 21.0329 20.2309 20.8507 20.5257C20.6684 20.8205 20.3466 21 20 21H14C13.6534 21 13.3316 20.8205 13.1494 20.5257C12.9671 20.2309 12.9506 19.8628 13.1056 19.5528L16.1056 13.5528C16.275 13.214 16.6212 13 17 13ZM15.618 19H18.382L17 16.2361L15.618 19Z" fill="#777B92"/>
<path fill-rule="evenodd" clip-rule="evenodd" d="M17 3C19.2091 3 21 4.79086 21 7C21 9.20914 19.2091 11 17 11C14.7909 11 13 9.20914 13 7C13 4.79086 14.7909 3 17 3ZM15 7C15 8.10457 15.8954 9 17 9C18.1046 9 19 8.10457 19 7C19 5.89543 18.1046 5 17 5C15.8954 5 15 5.89543 15 7Z" fill="#777B92"/>
<path fill-rule="evenodd" clip-rule="evenodd" d="M10.7071 13.2929C11.0976 13.6834 11.0976 14.3166 10.7071 14.7071L8.41421 17L10.7071 19.2929C11.0976 19.6834 11.0976 20.3166 10.7071 20.7071C10.3166 21.0976 9.68342 21.0976 9.29289 20.7071L7 18.4142L4.70711 20.7071C4.31658 21.0976 3.68342 21.0976 3.29289 20.7071C2.90237 20.3166 2.90237 19.6834 3.29289 19.2929L5.58579 17L3.29289 14.7071C2.90237 14.3166 2.90237 13.6834 3.29289 13.2929C3.68342 12.9024 4.31658 12.9024 4.70711 13.2929L7 15.5858L9.29289 13.2929C9.68342 12.9024 10.3166 12.9024 10.7071 13.2929Z" fill="#777B92"/>
</svg>
