<svg width="24" height="24" viewBox="0 0 24 24" fill="none" xmlns="http://www.w3.org/2000/svg">
<path fill-rule="evenodd" clip-rule="evenodd" d="M2 4C2 2.89543 2.89543 2 4 2H16C17.1046 2 18 2.89543 18 4V16C18 17.1046 17.1046 18 16 18H4C2.89543 18 2 17.1046 2 16V4Z" fill="#777B92"/>
<path fill-rule="evenodd" clip-rule="evenodd" d="M21 6C21.5523 6 22 6.44772 22 7V20C22 21.1046 21.1046 22 20 22H7C6.44772 22 6 21.5523 6 21C6 20.4477 6.44772 20 7 20H20V7C20 6.44772 20.4477 6 21 6Z" fill="#777B92"/>
</svg>
