<svg width="24" height="24" viewBox="0 0 24 24" fill="none" xmlns="http://www.w3.org/2000/svg">
<path fill-rule="evenodd" clip-rule="evenodd" d="M2 4C2 2.89543 2.89543 2 4 2H16C17.1046 2 18 2.89543 18 4V16C18 17.1046 17.1046 18 16 18H4C2.89543 18 2 17.1046 2 16V4Z" fill="#777B92"/>
<path fill-rule="evenodd" clip-rule="evenodd" d="M22 6C22 6.55228 21.5523 7 21 7C20.4477 7 20 6.55228 20 6C20 5.44772 20.4477 5 21 5C21.5523 5 22 5.44772 22 6Z" fill="#777B92"/>
<path fill-rule="evenodd" clip-rule="evenodd" d="M22 9C22 9.55228 21.5523 10 21 10C20.4477 10 20 9.55228 20 9C20 8.44772 20.4477 8 21 8C21.5523 8 22 8.44772 22 9Z" fill="#777B92"/>
<path fill-rule="evenodd" clip-rule="evenodd" d="M21 13C20.4477 13 20 12.5523 20 12C20 11.4477 20.4477 11 21 11C21.5523 11 22 11.4477 22 12C22 12.5523 21.5523 13 21 13Z" fill="#777B92"/>
<path fill-rule="evenodd" clip-rule="evenodd" d="M22 15C22 15.5523 21.5523 16 21 16C20.4477 16 20 15.5523 20 15C20 14.4477 20.4477 14 21 14C21.5523 14 22 14.4477 22 15Z" fill="#777B92"/>
<path fill-rule="evenodd" clip-rule="evenodd" d="M21 19C20.4477 19 20 18.5523 20 18C20 17.4477 20.4477 17 21 17C21.5523 17 22 17.4477 22 18C22 18.5523 21.5523 19 21 19Z" fill="#777B92"/>
<path fill-rule="evenodd" clip-rule="evenodd" d="M22 21C22 21.5523 21.5523 22 21 22C20.4477 22 20 21.5523 20 21C20 20.4477 20.4477 20 21 20C21.5523 20 22 20.4477 22 21Z" fill="#777B92"/>
<path fill-rule="evenodd" clip-rule="evenodd" d="M18 22C17.4477 22 17 21.5523 17 21C17 20.4477 17.4477 20 18 20C18.5523 20 19 20.4477 19 21C19 21.5523 18.5523 22 18 22Z" fill="#777B92"/>
<path fill-rule="evenodd" clip-rule="evenodd" d="M16 21C16 21.5523 15.5523 22 15 22C14.4477 22 14 21.5523 14 21C14 20.4477 14.4477 20 15 20C15.5523 20 16 20.4477 16 21Z" fill="#777B92"/>
<path fill-rule="evenodd" clip-rule="evenodd" d="M12 22C11.4477 22 11 21.5523 11 21C11 20.4477 11.4477 20 12 20C12.5523 20 13 20.4477 13 21C13 21.5523 12.5523 22 12 22Z" fill="#777B92"/>
<path fill-rule="evenodd" clip-rule="evenodd" d="M10 21C10 21.5523 9.55228 22 9 22C8.44772 22 8 21.5523 8 21C8 20.4477 8.44772 20 9 20C9.55228 20 10 20.4477 10 21Z" fill="#777B92"/>
<path fill-rule="evenodd" clip-rule="evenodd" d="M6 22C5.44772 22 5 21.5523 5 21C5 20.4477 5.44772 20 6 20C6.55228 20 7 20.4477 7 21C7 21.5523 6.55228 22 6 22Z" fill="#777B92"/>
</svg>
