<svg width="24" height="24" viewBox="0 0 24 24" fill="none" xmlns="http://www.w3.org/2000/svg">
<path fill-rule="evenodd" clip-rule="evenodd" d="M3 4C3 3.44772 3.44772 3 4 3H10C10.5523 3 11 3.44772 11 4V10C11 10.5523 10.5523 11 10 11H4C3.44772 11 3 10.5523 3 10V4ZM5 5V9H9V5H5Z" fill="#777B92"/>
<path fill-rule="evenodd" clip-rule="evenodd" d="M14.0513 8.68377C14.1874 8.27543 14.5696 8 15 8H19C19.4304 8 19.8126 8.27543 19.9487 8.68377L20.9487 11.6838C21.0171 11.889 21.0171 12.111 20.9487 12.3162L19.9487 15.3162C19.8126 15.7246 19.4304 16 19 16H15C14.5696 16 14.1874 15.7246 14.0513 15.3162L13.0513 12.3162C12.9829 12.111 12.9829 11.889 13.0513 11.6838L14.0513 8.68377ZM18.2792 10H15.7208L15.0541 12L15.7208 14H18.2792L18.9459 12L18.2792 10Z" fill="#777B92"/>
<path fill-rule="evenodd" clip-rule="evenodd" d="M7 13C9.20914 13 11 14.7909 11 17C11 19.2091 9.20914 21 7 21C4.79086 21 3 19.2091 3 17C3 14.7909 4.79086 13 7 13ZM5 17C5 18.1046 5.89543 19 7 19C8.10457 19 9 18.1046 9 17C9 15.8954 8.10457 15 7 15C5.89543 15 5 15.8954 5 17Z" fill="#777B92"/>
</svg>
