<svg width="24" height="24" viewBox="0 0 24 24" fill="none" xmlns="http://www.w3.org/2000/svg">
<path fill-rule="evenodd" clip-rule="evenodd" d="M8 2C11.3137 2 14 4.68629 14 8C14 11.3137 11.3137 14 8 14C4.68629 14 2 11.3137 2 8C2 4.68629 4.68629 2 8 2ZM4 8C4 10.2091 5.79086 12 8 12C10.2091 12 12 10.2091 12 8C12 5.79086 10.2091 4 8 4C5.79086 4 4 5.79086 4 8Z" fill="#777B92"/>
<path fill-rule="evenodd" clip-rule="evenodd" d="M14 12H20C21.1046 12 22 12.8954 22 14V20C22 21.1046 21.1046 22 20 22H14C12.8954 22 12 21.1046 12 20V14C12 12.8954 12.8954 12 14 12ZM14 14V20H20V14H14Z" fill="#777B92"/>
</svg>
