<svg width="24" height="24" viewBox="0 0 24 24" fill="none" xmlns="http://www.w3.org/2000/svg">
<path fill-rule="evenodd" clip-rule="evenodd" d="M3 6C3 4.34315 4.34315 3 6 3C7.65685 3 9 4.34315 9 6C9 6.46315 8.89505 6.90178 8.70763 7.29342L10.0201 8.60591C11.9102 6.92518 13.5748 6.26245 15.0007 6.06732C15.0002 6.04494 15 6.0225 15 6C15 4.34315 16.3431 3 18 3C19.6569 3 21 4.34315 21 6C21 7.65685 19.6569 9 18 9C17.1138 9 16.3173 8.61574 15.7681 8.00473C14.5726 8.05418 12.8953 8.51923 10.7079 10.7063L10.7071 10.7071C8.51934 12.8949 8.05419 14.5724 8.00473 15.7681C8.61574 16.3173 9 17.1138 9 18C9 19.6569 7.65685 21 6 21C4.34315 21 3 19.6569 3 18C3 16.3431 4.34315 15 6 15C6.0225 15 6.04494 15.0002 6.06732 15.0007C6.26245 13.5748 6.92518 11.9102 8.60591 10.0201L7.29342 8.70763C6.90178 8.89505 6.46315 9 6 9C4.34315 9 3 7.65685 3 6ZM6 5C5.44772 5 5 5.44772 5 6C5 6.55228 5.44772 7 6 7C6.55228 7 7 6.55228 7 6C7 5.44772 6.55228 5 6 5ZM17 6C17 5.44772 17.4477 5 18 5C18.5523 5 19 5.44772 19 6C19 6.55228 18.5523 7 18 7C17.4477 7 17 6.55228 17 6ZM5 18C5 18.5523 5.44772 19 6 19C6.55228 19 7 18.5523 7 18C7 17.4477 6.55228 17 6 17C5.44772 17 5 17.4477 5 18Z" fill="#777B92"/>
<path fill-rule="evenodd" clip-rule="evenodd" d="M15.5 10C18.5376 10 21 12.4624 21 15.5C21 18.5376 18.5376 21 15.5 21C12.4624 21 10 18.5376 10 15.5C10 12.4624 12.4624 10 15.5 10ZM12 15.5C12 17.433 13.567 19 15.5 19C17.433 19 19 17.433 19 15.5C19 13.567 17.433 12 15.5 12C13.567 12 12 13.567 12 15.5Z" fill="#777B92"/>
</svg>
