<svg width="16" height="16" viewBox="0 0 16 16" fill="none" xmlns="http://www.w3.org/2000/svg">
<path fill-rule="evenodd" clip-rule="evenodd" d="M5.85355 1.14671C5.99361 1.28676 6.03779 1.49629 5.9662 1.68097C4.97078 4.24892 5.70163 7.33642 7.82162 9.11742C9.6188 10.6272 12.1028 10.8932 14.3193 10.0341C14.504 9.96247 14.7135 10.0066 14.8536 10.1467C14.9936 10.2868 15.0378 10.4963 14.9662 10.681C13.8822 13.4774 11.1932 15.5001 8 15.5001C3.85786 15.5001 0.5 12.1422 0.5 8.00011C0.5 4.80688 2.52291 2.11802 5.31929 1.03406C5.50397 0.96247 5.7135 1.00665 5.85355 1.14671ZM4.69788 2.44407C2.78914 3.57489 1.5 5.63212 1.5 8.00011C1.5 11.59 4.41015 14.5001 8 14.5001C10.363 14.5001 12.4166 13.2165 13.549 11.3145C11.3399 11.8233 8.98139 11.3978 7.17838 9.88309C5.02398 8.07317 4.12112 5.1295 4.69788 2.44407Z" fill="#777B92"/>
</svg>
