<svg width="16" height="16" viewBox="0 0 16 16" fill="none" xmlns="http://www.w3.org/2000/svg">
<path fill-rule="evenodd" clip-rule="evenodd" d="M10.5 3C10.5 1.61929 11.6193 0.5 13 0.5C14.3807 0.5 15.5 1.61929 15.5 3C15.5 4.38071 14.3807 5.5 13 5.5C12.2015 5.5 11.4904 5.12563 11.0327 4.54283L5.4151 7.35163C5.47048 7.55841 5.5 7.77576 5.5 8C5.5 8.22431 5.47046 8.44173 5.41505 8.64856L11.0326 11.4573C11.4903 10.8744 12.2014 10.5 13 10.5C14.3807 10.5 15.5 11.6193 15.5 13C15.5 14.3807 14.3807 15.5 13 15.5C11.6193 15.5 10.5 14.3807 10.5 13C10.5 12.7757 10.5295 12.5583 10.5849 12.3515L4.96735 9.54275C4.50966 10.1256 3.79855 10.5 3 10.5C1.61929 10.5 0.5 9.38071 0.5 8C0.5 6.61929 1.61929 5.5 3 5.5C3.79862 5.5 4.50979 5.87447 4.96747 6.45741L10.585 3.64866C10.5296 3.4418 10.5 3.22435 10.5 3ZM13 1.5C12.1716 1.5 11.5 2.17157 11.5 3C11.5 3.82843 12.1716 4.5 13 4.5C13.8284 4.5 14.5 3.82843 14.5 3C14.5 2.17157 13.8284 1.5 13 1.5ZM3 6.5C2.17157 6.5 1.5 7.17157 1.5 8C1.5 8.82843 2.17157 9.5 3 9.5C3.82843 9.5 4.5 8.82843 4.5 8C4.5 7.17157 3.82843 6.5 3 6.5ZM11.5 13C11.5 13.8284 12.1716 14.5 13 14.5C13.8284 14.5 14.5 13.8284 14.5 13C14.5 12.1716 13.8284 11.5 13 11.5C12.1716 11.5 11.5 12.1716 11.5 13Z" fill="#777B92"/>
</svg>
