<svg width="16" height="16" viewBox="0 0 16 16" fill="none" xmlns="http://www.w3.org/2000/svg">
<path fill-rule="evenodd" clip-rule="evenodd" d="M8.00001 0.5C8.1816 0.5 8.34891 0.598446 8.43709 0.757179L10.8117 5.03156L15.0552 5.50306C15.2463 5.52428 15.4082 5.65313 15.4718 5.8345C15.5354 6.01586 15.4895 6.21765 15.3536 6.35355L12.0428 9.66434L12.9903 14.4019C13.0285 14.593 12.9522 14.7889 12.7948 14.9039C12.6374 15.0188 12.4276 15.0317 12.2572 14.9371L8.00001 12.572L3.74284 14.9371C3.57247 15.0317 3.36264 15.0188 3.20522 14.9039C3.04781 14.7889 2.9715 14.593 3.00972 14.4019L3.95724 9.66434L0.646461 6.35355C0.510553 6.21765 0.464579 6.01586 0.5282 5.8345C0.59182 5.65313 0.753771 5.52428 0.944798 5.50306L5.18828 5.03156L7.56294 0.757179C7.65112 0.598446 7.81843 0.5 8.00001 0.5ZM8.00001 2.02956L5.93709 5.74282C5.85846 5.88436 5.71616 5.97906 5.55523 5.99694L2.08918 6.38206L4.85357 9.14645C4.97178 9.26466 5.02309 9.43413 4.9903 9.59806L4.20235 13.5378L7.75719 11.5629C7.9082 11.479 8.09182 11.479 8.24284 11.5629L11.7977 13.5378L11.0097 9.59806C10.9769 9.43413 11.0282 9.26466 11.1465 9.14645L13.9108 6.38206L10.4448 5.99694C10.2839 5.97906 10.1416 5.88436 10.0629 5.74282L8.00001 2.02956Z" fill="#777B92"/>
</svg>
