<svg width="16" height="16" viewBox="0 0 16 16" fill="none" xmlns="http://www.w3.org/2000/svg">
<path fill-rule="evenodd" clip-rule="evenodd" d="M1.63001 2.72617C2.35645 1.92708 3.36935 1.5 4.49998 1.5C5.58748 1.5 6.43635 1.77331 7.08984 2.20898C7.4613 2.45662 7.75999 2.75023 7.99997 3.06074C8.23997 2.75023 8.53869 2.45661 8.91016 2.20897C9.56367 1.77331 10.4125 1.5 11.5 1.5C12.6306 1.5 13.6435 1.92708 14.37 2.72616C15.0938 3.52238 15.5 4.65016 15.5 6C15.5 8.22369 14.1088 9.94165 12.5768 11.2648C11.8044 11.9319 10.9724 12.5188 10.2202 13.0345C10.0877 13.1254 9.95841 13.2135 9.8326 13.2993C9.23225 13.7087 8.7122 14.0633 8.31654 14.387C8.13235 14.5377 7.86748 14.5377 7.6833 14.387C7.28763 14.0632 6.76755 13.7086 6.16715 13.2992C6.0414 13.2135 5.91213 13.1253 5.77973 13.0345C5.02757 12.5188 4.19558 11.9319 3.42318 11.2648C1.89115 9.94165 0.5 8.22369 0.5 6C0.5 4.65016 0.906191 3.52238 1.63001 2.72617ZM2.36996 3.39883C1.84379 3.97762 1.5 4.84984 1.5 6C1.5 7.77631 2.60885 9.24017 4.0768 10.508C4.80439 11.1363 5.59739 11.6971 6.34521 12.2098C6.47012 12.2954 6.59442 12.3801 6.71727 12.4639C7.18048 12.7796 7.62309 13.0812 7.99994 13.3652C8.37677 13.0813 8.81934 12.7796 9.28251 12.464C9.40542 12.3802 9.52977 12.2954 9.65474 12.2098C10.4026 11.6971 11.1956 11.1363 11.9232 10.508C13.3912 9.24016 14.5 7.77631 14.5 6C14.5 4.84984 14.1562 3.97762 13.63 3.39884C13.1065 2.82292 12.3694 2.5 11.5 2.5C10.5875 2.5 9.93637 2.72669 9.46485 3.04103C8.9902 3.35745 8.66751 3.78294 8.44713 4.22363C8.36242 4.39302 8.18929 4.50001 7.9999 4.5C7.81051 4.49999 7.63739 4.39298 7.5527 4.22358C7.3324 3.78291 7.00976 3.35744 6.53514 3.04102C6.06364 2.72669 5.4125 2.5 4.49998 2.5C3.6306 2.5 2.89351 2.82292 2.36996 3.39883Z" fill="#777B92"/>
</svg>
