<svg width="24" height="24" viewBox="0 0 24 24" fill="none" xmlns="http://www.w3.org/2000/svg">
<path fill-rule="evenodd" clip-rule="evenodd" d="M9 7C9.55228 7 10 7.44772 10 8V9H11C11.5523 9 12 9.44772 12 10C12 10.5523 11.5523 11 11 11H10V12C10 12.5523 9.55228 13 9 13C8.44772 13 8 12.5523 8 12V11H7C6.44772 11 6 10.5523 6 10C6 9.44772 6.44772 9 7 9H8V8C8 7.44772 8.44772 7 9 7Z" fill="#777B92"/>
<path fill-rule="evenodd" clip-rule="evenodd" d="M4 3H15C16.1046 3 17 3.89543 17 5V7.51938L21.2494 10.9189C21.7239 11.2985 22 11.8731 22 12.4807V15C22 15.8317 21.4924 16.5448 20.7702 16.8464C20.9182 17.2015 21 17.5912 21 18C21 19.6569 19.6569 21 18 21C16.3431 21 15 19.6569 15 18C15 17.6466 15.0611 17.3075 15.1733 16.9926C15.1162 16.9975 15.0584 17 15 17H8.82929C8.93985 17.3128 9 17.6494 9 18C9 19.6569 7.65685 21 6 21C4.34315 21 3 19.6569 3 18C3 17.5912 3.08177 17.2015 3.22985 16.8463C2.50758 16.5447 2 15.8316 2 15V5C2 3.89543 2.89543 3 4 3ZM18.0087 17H17.9913C17.443 17.0047 17 17.4506 17 18C17 18.5523 17.4477 19 18 19C18.5523 19 19 18.5523 19 18C19 17.4506 18.557 17.0047 18.0087 17ZM18.0151 15H20V12.4807L17 10.0806V15L17.9849 15L18 15L18.0151 15ZM5 18C5 18.5523 5.44772 19 6 19C6.55228 19 7 18.5523 7 18C7 17.4477 6.55228 17 6 17C5.44772 17 5 17.4477 5 18ZM15 15V5L4 5V15H15Z" fill="#777B92"/>
</svg>
