<svg width="24" height="24" viewBox="0 0 24 24" fill="none" xmlns="http://www.w3.org/2000/svg">
<path fill-rule="evenodd" clip-rule="evenodd" d="M12 13C12 13.5523 11.5523 14 11 14C10.4477 14 10 13.5523 10 13C10 12.4477 10.4477 12 11 12C11.5523 12 12 12.4477 12 13Z" fill="#777B92"/>
<path fill-rule="evenodd" clip-rule="evenodd" d="M6 2H18C19.1046 2 20 2.89543 20 4V19.6743C20 21.003 18.7282 21.9624 17.4506 21.5973L12 20.04L6.54944 21.5973C5.27181 21.9624 4 21.003 4 19.6743V4C4 2.89543 4.89543 2 6 2ZM16.3162 7.94895C16.8402 7.77431 17.1233 7.20799 16.9487 6.68404C16.774 6.1601 16.2077 5.87694 15.6838 6.05159L13.3675 6.82366C12.5509 7.09589 12 7.86017 12 8.72103V10.1707C11.6872 10.0602 11.3506 10 11 10C9.34315 10 8 11.3431 8 13C8 14.6569 9.34315 16 11 16C12.6557 16 13.9981 14.6587 14 13.0035L14 13.0003V8.72103L16.3162 7.94895Z" fill="#777B92"/>
</svg>
