<svg width="24" height="24" viewBox="0 0 24 24" fill="none" xmlns="http://www.w3.org/2000/svg">
<path fill-rule="evenodd" clip-rule="evenodd" d="M20 4V5H21C21.5523 5 22 5.44772 22 6C22 6.55228 21.5523 7 21 7H20V8C20 8.55228 19.5523 9 19 9C18.4477 9 18 8.55228 18 8V7H17C16.4477 7 16 6.55228 16 6C16 5.44772 16.4477 5 17 5H18V4C18 3.44772 18.4477 3 19 3C19.5523 3 20 3.44772 20 4Z" fill="#777B92"/>
<path fill-rule="evenodd" clip-rule="evenodd" d="M4.48507 3.34097L11.1231 5.00048H13C13.5523 5.00048 14 5.4482 14 6.00048C14 6.55277 13.5523 7.00048 13 7.00048H12V18.7197L18 17.2197V12.0005C18 11.4482 18.4477 11.0005 19 11.0005C19.5523 11.0005 20 11.4482 20 12.0005V17.2197C20 18.1374 19.3754 18.9374 18.4851 19.16L11.4851 20.91C11.4372 20.922 11.389 20.9321 11.3406 20.9405C11.2343 20.979 11.1196 21 11 21C10.8804 21 10.7657 20.979 10.6594 20.9405C10.611 20.9321 10.5628 20.922 10.5149 20.91L3.51493 19.16C2.62459 18.9374 2 18.1374 2 17.2197V5.28126C2 3.98012 3.22278 3.0254 4.48507 3.34097ZM10 6.78126L4 5.28126V17.2197L10 18.7197V6.78126Z" fill="#777B92"/>
</svg>
