<svg width="24" height="24" viewBox="0 0 24 24" fill="none" xmlns="http://www.w3.org/2000/svg">
<path fill-rule="evenodd" clip-rule="evenodd" d="M21 5.28126V17.2197C21 18.1374 20.3754 18.9374 19.4851 19.16L12.4851 20.91C12.4372 20.922 12.389 20.9321 12.3406 20.9405C12.2343 20.979 12.1196 21 12 21C11.8804 21 11.7657 20.979 11.6594 20.9405C11.611 20.9321 11.5628 20.922 11.5149 20.91L4.51493 19.16C3.62459 18.9374 3 18.1374 3 17.2197V5.28126C3 3.98012 4.22278 3.0254 5.48507 3.34097L12 4.96971L18.5149 3.34097C19.7772 3.0254 21 3.98012 21 5.28126ZM13 18.7197L19 17.2197V5.28126L13 6.78126V18.7197ZM11 6.78126L5 5.28126V17.2197L11 18.7197V6.78126Z" fill="#777B92"/>
</svg>
