<svg width="16" height="16" viewBox="0 0 16 16" fill="none" xmlns="http://www.w3.org/2000/svg">
<path fill-rule="evenodd" clip-rule="evenodd" d="M8 5.5C9.38071 5.5 10.5 6.61929 10.5 8C10.5 9.38071 9.38071 10.5 8 10.5C6.61929 10.5 5.5 9.38071 5.5 8C5.5 6.61929 6.61929 5.5 8 5.5ZM6.5 8C6.5 8.82843 7.17157 9.5 8 9.5C8.82843 9.5 9.5 8.82843 9.5 8C9.5 7.17157 8.82843 6.5 8 6.5C7.17157 6.5 6.5 7.17157 6.5 8Z" fill="#777B92"/>
<path fill-rule="evenodd" clip-rule="evenodd" d="M7.21995 0.5H8.78017C10.0062 0.5 11.0001 1.49388 11.0001 2.71989V2.95487C11.0001 3.64758 11.6631 4.1477 12.3291 3.9574C13.4395 3.64015 14.5919 4.30572 14.872 5.42603L15.1435 6.51227C15.3997 7.5368 14.8238 8.5858 13.8219 8.91975C13.2325 9.11624 12.9537 9.78925 13.2316 10.345L13.5529 10.9875C14.1703 12.2225 13.6698 13.7242 12.4348 14.3416L11.5302 14.794C10.5609 15.2786 9.38201 14.8992 8.87737 13.9401C8.50572 13.2339 7.49441 13.2339 7.12276 13.9401C6.61812 14.8992 5.43923 15.2786 4.46994 14.794L3.56531 14.3416C2.33037 13.7242 1.8298 12.2225 2.44728 10.9875L2.76855 10.345C3.04642 9.78926 2.76765 9.11624 2.17819 8.91975C1.17632 8.5858 0.600477 7.5368 0.856609 6.51227L1.12817 5.42604C1.40825 4.30572 2.56062 3.64015 3.67098 3.9574C4.33704 4.1477 5.00006 3.64758 5.00006 2.95487V2.71989C5.00006 1.49388 5.99394 0.5 7.21995 0.5ZM6.00006 2.71989V2.95487C6.00006 4.31196 4.70114 5.29174 3.39626 4.91892C2.82949 4.75699 2.24127 5.09672 2.09831 5.66857L1.82675 6.75481C1.69735 7.2724 1.98827 7.80236 2.49442 7.97107C3.6612 8.36 4.213 9.69217 3.66297 10.7922L3.3417 11.4348C2.97122 12.1757 3.27156 13.0767 4.01253 13.4472L4.91715 13.8995C5.39969 14.1408 5.98658 13.9519 6.2378 13.4745C6.98433 12.0558 9.01579 12.0558 9.76233 13.4745C10.0136 13.9519 10.6004 14.1408 11.083 13.8995L11.9876 13.4472C12.7286 13.0767 13.0289 12.1757 12.6584 11.4348L12.3372 10.7922C11.7871 9.69216 12.3389 8.36 13.5057 7.97107C14.0119 7.80236 14.3028 7.2724 14.1734 6.7548L13.9018 5.66857C13.7589 5.09672 13.1706 4.75699 12.6039 4.91892C11.299 5.29174 10.0001 4.31196 10.0001 2.95487V2.71989C10.0001 2.04616 9.4539 1.5 8.78017 1.5H7.21995C6.54623 1.5 6.00006 2.04616 6.00006 2.71989Z" fill="#777B92"/>
</svg>
