<svg width="16" height="16" viewBox="0 0 16 16" fill="none" xmlns="http://www.w3.org/2000/svg">
<path fill-rule="evenodd" clip-rule="evenodd" d="M8.5 1V8C8.5 8.27614 8.27614 8.5 8 8.5C7.72386 8.5 7.5 8.27614 7.5 8V1C7.5 0.723858 7.72386 0.5 8 0.5C8.27614 0.5 8.5 0.723858 8.5 1Z" fill="#777B92"/>
<path fill-rule="evenodd" clip-rule="evenodd" d="M4.65047 2.42834C2.76153 3.56653 1.5 5.63622 1.5 8.00007C1.5 11.5899 4.41015 14.5001 8 14.5001C11.5899 14.5001 14.5 11.5899 14.5 8.00007C14.5 5.63622 13.2385 3.56653 11.3495 2.42834C11.113 2.28582 11.0368 1.97854 11.1793 1.74202C11.3218 1.5055 11.6291 1.42929 11.8656 1.57181C14.0424 2.88341 15.5 5.27128 15.5 8.00007C15.5 12.1422 12.1421 15.5001 8 15.5001C3.85786 15.5001 0.5 12.1422 0.5 8.00007C0.5 5.27128 1.95763 2.88341 4.13436 1.57181C4.37088 1.42929 4.67816 1.5055 4.82068 1.74202C4.96319 1.97854 4.88699 2.28582 4.65047 2.42834Z" fill="#777B92"/>
</svg>
