<svg width="16" height="16" viewBox="0 0 16 16" fill="none" xmlns="http://www.w3.org/2000/svg">
<path fill-rule="evenodd" clip-rule="evenodd" d="M11.5 5C11.2239 5 11 4.77614 11 4.5C11 4.22386 11.2239 4 11.5 4C11.7761 4 12 4.22386 12 4.5C12 4.77614 11.7761 5 11.5 5Z" fill="#777B92"/>
<path fill-rule="evenodd" clip-rule="evenodd" d="M11.1464 0.646447C11.3417 0.451184 11.6583 0.451184 11.8536 0.646447L15.3536 4.14645C15.5488 4.34171 15.5488 4.65829 15.3536 4.85355L4.85355 15.3536C4.65829 15.5488 4.34171 15.5488 4.14645 15.3536L0.646447 11.8536C0.451184 11.6583 0.451184 11.3417 0.646447 11.1464L11.1464 0.646447ZM1.70711 11.5L4.5 14.2929L14.2929 4.5L11.5 1.70711L8.45711 4.75L10.3536 6.64645C10.5488 6.84171 10.5488 7.15829 10.3536 7.35355C10.1583 7.54882 9.84171 7.54882 9.64645 7.35355L7.75 5.45711L6.45711 6.75L7.35355 7.64645C7.54882 7.84171 7.54882 8.15829 7.35355 8.35355C7.15829 8.54882 6.84171 8.54882 6.64645 8.35355L5.75 7.45711L4.45711 8.75L6.35355 10.6464C6.54882 10.8417 6.54882 11.1583 6.35355 11.3536C6.15829 11.5488 5.84171 11.5488 5.64645 11.3536L3.75 9.45711L1.70711 11.5Z" fill="#777B92"/>
</svg>
