<svg width="16" height="16" viewBox="0 0 16 16" fill="none" xmlns="http://www.w3.org/2000/svg">
<path fill-rule="evenodd" clip-rule="evenodd" d="M2.5 2C2.5 1.17157 3.17157 0.5 4 0.5H8.58579C8.98361 0.5 9.36514 0.658035 9.64645 0.93934L13.0607 4.35355C13.342 4.63486 13.5 5.01639 13.5 5.41421V9C13.5 9.27614 13.2761 9.5 13 9.5C12.7239 9.5 12.5 9.27614 12.5 9V5.5H10C9.17157 5.5 8.5 4.82843 8.5 4V1.5H4C3.72386 1.5 3.5 1.72386 3.5 2V9C3.5 9.27614 3.27614 9.5 3 9.5C2.72386 9.5 2.5 9.27614 2.5 9V2ZM9.5 2.20711V4C9.5 4.27614 9.72386 4.5 10 4.5H11.7929L9.5 2.20711Z" fill="#777B92"/>
<path fill-rule="evenodd" clip-rule="evenodd" d="M5 9.5H9C9.82843 9.5 10.5 10.1716 10.5 11V11.191L11.7765 10.5528C11.9315 10.4753 12.1156 10.4836 12.263 10.5747C12.4104 10.6658 12.5001 10.8267 12.5001 11V14C12.5001 14.1733 12.4104 14.3342 12.263 14.4253C12.1156 14.5164 11.9315 14.5247 11.7765 14.4472L10.5 13.809V14C10.5 14.8284 9.82843 15.5 9 15.5H5C4.17157 15.5 3.5 14.8284 3.5 14V11C3.5 10.1716 4.17157 9.5 5 9.5ZM10.5 12.6909L11.5001 13.191V11.809L10.5 12.3091V12.6909ZM4.5 11V14C4.5 14.2761 4.72386 14.5 5 14.5H9C9.27614 14.5 9.5 14.2761 9.5 14V11C9.5 10.7239 9.27614 10.5 9 10.5H5C4.72386 10.5 4.5 10.7239 4.5 11Z" fill="#777B92"/>
</svg>
