<svg width="16" height="16" viewBox="0 0 16 16" fill="none" xmlns="http://www.w3.org/2000/svg">
<path fill-rule="evenodd" clip-rule="evenodd" d="M1.5 3V6C1.5 6.27614 1.27614 6.5 1 6.5C0.723858 6.5 0.5 6.27614 0.5 6V3C0.5 2.17157 1.17157 1.5 2 1.5H5.58579C5.98361 1.5 6.36514 1.65803 6.64645 1.93934L8.06066 3.35355C8.15443 3.44732 8.28161 3.5 8.41421 3.5H14C14.8284 3.5 15.5 4.17157 15.5 5V13C15.5 13.8284 14.8284 14.5 14 14.5H9C8.72386 14.5 8.5 14.2761 8.5 14C8.5 13.7239 8.72386 13.5 9 13.5H14C14.2761 13.5 14.5 13.2761 14.5 13V5C14.5 4.72386 14.2761 4.5 14 4.5H8.41421C8.01639 4.5 7.63486 4.34196 7.35355 4.06066L5.93934 2.64645C5.84557 2.55268 5.71839 2.5 5.58579 2.5H2C1.72386 2.5 1.5 2.72386 1.5 3Z" fill="#777B92"/>
<path fill-rule="evenodd" clip-rule="evenodd" d="M1.5 9V12.7929L5.64645 8.64645C5.84171 8.45118 6.15829 8.45118 6.35355 8.64645C6.54882 8.84171 6.54882 9.15829 6.35355 9.35355L2.20711 13.5H6C6.27614 13.5 6.5 13.7239 6.5 14C6.5 14.2761 6.27614 14.5 6 14.5H1C0.723858 14.5 0.5 14.2761 0.5 14V9C0.5 8.72386 0.723858 8.5 1 8.5C1.27614 8.5 1.5 8.72386 1.5 9Z" fill="#777B92"/>
</svg>
