<svg width="16" height="16" viewBox="0 0 16 16" fill="none" xmlns="http://www.w3.org/2000/svg">
<path fill-rule="evenodd" clip-rule="evenodd" d="M1.5 1V15C1.5 15.2761 1.27614 15.5 1 15.5C0.723858 15.5 0.5 15.2761 0.5 15V1C0.5 0.723858 0.723858 0.5 1 0.5C1.27614 0.5 1.5 0.723858 1.5 1Z" fill="#777B92"/>
<path fill-rule="evenodd" clip-rule="evenodd" d="M15 0.5C15.2761 0.5 15.5 0.723858 15.5 1V15C15.5 15.2761 15.2761 15.5 15 15.5C14.7239 15.5 14.5 15.2761 14.5 15V1C14.5 0.723858 14.7239 0.5 15 0.5Z" fill="#777B92"/>
<path fill-rule="evenodd" clip-rule="evenodd" d="M9.64645 3.35355C9.45118 3.15829 9.45118 2.84171 9.64645 2.64645C9.84171 2.45118 10.1583 2.45118 10.3536 2.64645L12.3536 4.64645C12.4473 4.74022 12.5 4.86739 12.5 5C12.5 5.13261 12.4473 5.25979 12.3536 5.35355L10.3536 7.35355C10.1583 7.54882 9.84171 7.54882 9.64645 7.35355C9.45118 7.15829 9.45118 6.84171 9.64645 6.64645L10.7929 5.5H7C6.72386 5.5 6.5 5.27614 6.5 5C6.5 4.72386 6.72386 4.5 7 4.5H10.7929L9.64645 3.35355Z" fill="#777B92"/>
<path fill-rule="evenodd" clip-rule="evenodd" d="M6.35355 9.35355L5.20711 10.5H9C9.27614 10.5 9.5 10.7239 9.5 11C9.5 11.2761 9.27614 11.5 9 11.5H5.20711L6.35355 12.6464C6.54882 12.8417 6.54882 13.1583 6.35355 13.3536C6.15829 13.5488 5.84171 13.5488 5.64645 13.3536L3.64645 11.3536C3.55268 11.2598 3.5 11.1326 3.5 11C3.5 10.8674 3.55268 10.7402 3.64645 10.6464L5.64645 8.64645C5.84171 8.45118 6.15829 8.45118 6.35355 8.64645C6.54882 8.84171 6.54882 9.15829 6.35355 9.35355Z" fill="#777B92"/>
</svg>
