<svg width="16" height="16" viewBox="0 0 16 16" fill="none" xmlns="http://www.w3.org/2000/svg">
<path fill-rule="evenodd" clip-rule="evenodd" d="M2.5 2C2.5 1.17157 3.17157 0.5 4 0.5H8.58579C8.98361 0.5 9.36514 0.658035 9.64645 0.93934L13.0607 4.35355C13.342 4.63486 13.5 5.01639 13.5 5.41421V9C13.5 9.27614 13.2761 9.5 13 9.5C12.7239 9.5 12.5 9.27614 12.5 9V5.5H10C9.17157 5.5 8.5 4.82843 8.5 4V1.5H4C3.72386 1.5 3.5 1.72386 3.5 2V9C3.5 9.27614 3.27614 9.5 3 9.5C2.72386 9.5 2.5 9.27614 2.5 9V2ZM9.5 2.20711V4C9.5 4.27614 9.72386 4.5 10 4.5H11.7929L9.5 2.20711Z" fill="#777B92"/>
<path fill-rule="evenodd" clip-rule="evenodd" d="M3.40918 15V11.3636H4.84384C5.11964 11.3636 5.35461 11.4163 5.54874 11.5217C5.74287 11.6258 5.89083 11.7708 5.99263 11.9567C6.09561 12.1413 6.14711 12.3544 6.14711 12.5959C6.14711 12.8374 6.09502 13.0504 5.99086 13.2351C5.88669 13.4186 5.73577 13.5624 5.53809 13.6666C5.34159 13.7695 5.10366 13.821 4.82431 13.821H4.178V15H3.40918ZM4.178 13.2049H4.70002C4.92019 13.2049 5.08413 13.1487 5.19185 13.0362C5.30075 12.9226 5.3552 12.7758 5.3552 12.5959C5.3552 12.4148 5.30075 12.2692 5.19185 12.1591C5.08413 12.0478 4.919 11.9922 4.69647 11.9922H4.178V13.2049Z" fill="#777B92"/>
<path fill-rule="evenodd" clip-rule="evenodd" d="M6.64648 15V11.3636H8.08114C8.35695 11.3636 8.59192 11.4163 8.78604 11.5217C8.98017 11.6258 9.12814 11.7708 9.22994 11.9567C9.33292 12.1413 9.38441 12.3544 9.38441 12.5959C9.38441 12.8374 9.33233 13.0504 9.22816 13.2351C9.12399 13.4186 8.97307 13.5624 8.77539 13.6666C8.57889 13.7695 8.34097 13.821 8.06161 13.821H7.41531V15H6.64648ZM7.41531 13.2049H7.93732C8.15749 13.2049 8.32144 13.1487 8.42915 13.0362C8.53806 12.9226 8.59251 12.7758 8.59251 12.5959C8.59251 12.4148 8.53806 12.2692 8.42915 12.1591C8.32144 12.0478 8.15631 11.9922 7.93377 11.9922H7.41531V13.2049Z" fill="#777B92"/>
<path fill-rule="evenodd" clip-rule="evenodd" d="M9.7453 11.3636H12.7318V11.9975H11.6185V15H10.8586V11.9975H9.7453V11.3636Z" fill="#777B92"/>
</svg>
