<svg width="16" height="16" viewBox="0 0 16 16" fill="none" xmlns="http://www.w3.org/2000/svg">
<path fill-rule="evenodd" clip-rule="evenodd" d="M5.7227 4.58403C5.95247 4.43085 6.2629 4.49294 6.41608 4.7227L8.00005 7.09867L9.58403 4.7227C9.7372 4.49294 10.0476 4.43085 10.2774 4.58403C10.5072 4.7372 10.5693 5.04764 10.4161 5.2774L8.60098 8.00005L10.4161 10.7227C10.5693 10.9525 10.5072 11.2629 10.2774 11.4161C10.0476 11.5693 9.7372 11.5072 9.58403 11.2774L8.00005 8.90144L6.41608 11.2774C6.2629 11.5072 5.95247 11.5693 5.7227 11.4161C5.49294 11.2629 5.43085 10.9525 5.58403 10.7227L7.39913 8.00005L5.58403 5.2774C5.43085 5.04764 5.49294 4.7372 5.7227 4.58403Z" fill="#777B92"/>
<path fill-rule="evenodd" clip-rule="evenodd" d="M0.5 2C0.5 1.17157 1.17157 0.5 2 0.5H14C14.8284 0.5 15.5 1.17157 15.5 2V14C15.5 14.8284 14.8284 15.5 14 15.5H2C1.17157 15.5 0.5 14.8284 0.5 14V2ZM2 1.5C1.72386 1.5 1.5 1.72386 1.5 2V14C1.5 14.2761 1.72386 14.5 2 14.5H14C14.2761 14.5 14.5 14.2761 14.5 14V2C14.5 1.72386 14.2761 1.5 14 1.5H2Z" fill="#777B92"/>
</svg>
