<svg width="16" height="16" viewBox="0 0 16 16" fill="none" xmlns="http://www.w3.org/2000/svg">
<path fill-rule="evenodd" clip-rule="evenodd" d="M2.5 2C2.5 1.17157 3.17157 0.5 4 0.5H8.58579C8.98361 0.5 9.36514 0.658035 9.64645 0.93934L13.0607 4.35355C13.342 4.63486 13.5 5.01639 13.5 5.41421V9C13.5 9.27614 13.2761 9.5 13 9.5C12.7239 9.5 12.5 9.27614 12.5 9V5.5H10C9.17157 5.5 8.5 4.82843 8.5 4V1.5H4C3.72386 1.5 3.5 1.72386 3.5 2V9C3.5 9.27614 3.27614 9.5 3 9.5C2.72386 9.5 2.5 9.27614 2.5 9V2ZM9.5 2.20711V4C9.5 4.27614 9.72386 4.5 10 4.5H11.7929L9.5 2.20711Z" fill="#777B92"/>
<path fill-rule="evenodd" clip-rule="evenodd" d="M10.0687 12.4095C10.0545 12.2663 9.99296 12.155 9.88406 12.0757C9.77634 11.9964 9.63074 11.9567 9.44727 11.9567C9.25906 11.9567 9.11464 11.9952 9.01403 12.0721C8.91341 12.1491 8.8631 12.2461 8.8631 12.3633C8.86074 12.4935 8.91637 12.5924 9.03001 12.6598C9.14483 12.7261 9.28095 12.7776 9.43839 12.8143L9.76509 12.8924C9.97579 12.9398 10.1628 13.0084 10.3262 13.0984C10.4907 13.1884 10.6197 13.3044 10.7132 13.4464C10.8079 13.5873 10.8553 13.7589 10.8553 13.9613C10.8541 14.294 10.7292 14.5591 10.4806 14.7568C10.2333 14.9533 9.88761 15.0515 9.44372 15.0515C9.00219 15.0515 8.65004 14.9509 8.38725 14.7497C8.12447 14.5485 7.98834 14.2513 7.97887 13.8584H8.72283C8.73585 14.0406 8.80747 14.178 8.93768 14.2703C9.06907 14.3614 9.23479 14.407 9.43484 14.407C9.63015 14.407 9.78581 14.3656 9.90181 14.2827C10.019 14.1999 10.0782 14.0921 10.0794 13.9596C10.0782 13.8365 10.0243 13.7418 9.91779 13.6755C9.81126 13.6092 9.65915 13.5524 9.46147 13.505L9.06552 13.4056C8.75894 13.3322 8.51687 13.2156 8.33931 13.0558C8.16175 12.896 8.07357 12.6823 8.07475 12.4148C8.07357 12.1946 8.13216 12.0023 8.25053 11.8378C8.37009 11.672 8.53403 11.5436 8.74236 11.4525C8.9507 11.3601 9.18744 11.314 9.45259 11.314C9.72248 11.314 9.95804 11.3601 10.1593 11.4525C10.3617 11.5448 10.5191 11.6732 10.6316 11.8378C10.744 12.0023 10.802 12.1929 10.8056 12.4095H10.0687Z" fill="#777B92"/>
<path fill-rule="evenodd" clip-rule="evenodd" d="M3.13912 12.603H3.16753L3.90439 11.3637H4.77264L3.66291 13.1819L4.7975 15H3.91326L3.16753 13.7589H3.13912L2.39338 15H1.5127L2.65083 13.1819L1.534 11.3637H2.40581L3.13912 12.603Z" fill="#777B92"/>
<path fill-rule="evenodd" clip-rule="evenodd" d="M6.02797 11.3637V14.3662H7.58691V15H5.25914V11.3637H6.02797Z" fill="#777B92"/>
<path fill-rule="evenodd" clip-rule="evenodd" d="M12.8266 12.603H12.855L13.5919 11.3637H14.4601L13.3504 13.1819L14.485 15H13.6008L12.855 13.7589H12.8266L12.0809 15H11.2002L12.3383 13.1819L11.2215 11.3637H12.0933L12.8266 12.603Z" fill="#777B92"/>
</svg>
