<svg width="16" height="16" viewBox="0 0 16 16" fill="none" xmlns="http://www.w3.org/2000/svg">
<path fill-rule="evenodd" clip-rule="evenodd" d="M8.45957 1.19697L5.75827 7.50001H9C9.16807 7.50001 9.3249 7.58445 9.41742 7.72476C9.50994 7.86507 9.52578 8.04248 9.45957 8.19697L6.45957 15.197C6.3508 15.4508 6.05686 15.5684 5.80304 15.4596C5.54923 15.3508 5.43165 15.0569 5.54043 14.803L8.24173 8.50001H5C4.83193 8.50001 4.6751 8.41556 4.58258 8.27525C4.49006 8.13494 4.47422 7.95753 4.54043 7.80305L7.54043 0.803046C7.64921 0.549232 7.94315 0.431656 8.19696 0.540434C8.45078 0.649211 8.56835 0.943151 8.45957 1.19697Z" fill="#777B92"/>
<path fill-rule="evenodd" clip-rule="evenodd" d="M1.5 5V11C1.5 11.2761 1.72386 11.5 2 11.5H5C5.27614 11.5 5.5 11.7239 5.5 12C5.5 12.2761 5.27614 12.5 5 12.5H2C1.17157 12.5 0.5 11.8284 0.5 11V5C0.5 4.17157 1.17157 3.5 2 3.5H4C4.27614 3.5 4.5 3.72386 4.5 4C4.5 4.27614 4.27614 4.5 4 4.5H2C1.72386 4.5 1.5 4.72386 1.5 5Z" fill="#777B92"/>
<path fill-rule="evenodd" clip-rule="evenodd" d="M9 3.5H12C12.8284 3.5 13.5 4.17157 13.5 5V11C13.5 11.8284 12.8284 12.5 12 12.5H10C9.72386 12.5 9.5 12.2761 9.5 12C9.5 11.7239 9.72386 11.5 10 11.5H12C12.2761 11.5 12.5 11.2761 12.5 11V5C12.5 4.72386 12.2761 4.5 12 4.5H9C8.72386 4.5 8.5 4.27614 8.5 4C8.5 3.72386 8.72386 3.5 9 3.5Z" fill="#777B92"/>
<path fill-rule="evenodd" clip-rule="evenodd" d="M3.5 6V10C3.5 10.2761 3.27614 10.5 3 10.5C2.72386 10.5 2.5 10.2761 2.5 10V6C2.5 5.72386 2.72386 5.5 3 5.5C3.27614 5.5 3.5 5.72386 3.5 6Z" fill="#777B92"/>
<path fill-rule="evenodd" clip-rule="evenodd" d="M15 5.5C15.2761 5.5 15.5 5.72386 15.5 6V10C15.5 10.2761 15.2761 10.5 15 10.5C14.7239 10.5 14.5 10.2761 14.5 10V6C14.5 5.72386 14.7239 5.5 15 5.5Z" fill="#777B92"/>
</svg>
