<svg width="16" height="16" viewBox="0 0 16 16" fill="none" xmlns="http://www.w3.org/2000/svg">
<path fill-rule="evenodd" clip-rule="evenodd" d="M8 4C8.27614 4 8.5 4.22386 8.5 4.5V7.06583L10.7227 5.58403C10.9525 5.43085 11.2629 5.49294 11.4161 5.7227C11.5693 5.95247 11.5072 6.2629 11.2774 6.41608L8.90152 8L11.2774 9.58392C11.5072 9.7371 11.5693 10.0475 11.4161 10.2773C11.2629 10.5071 10.9525 10.5691 10.7227 10.416L8.5 8.93417V11.5C8.5 11.7761 8.27614 12 8 12C7.72386 12 7.5 11.7761 7.5 11.5V8.93435L5.2774 10.4161C5.04764 10.5693 4.7372 10.5072 4.58403 10.2774C4.43085 10.0476 4.49294 9.7372 4.7227 9.58403L7.09875 8L4.7227 6.41597C4.49294 6.2628 4.43085 5.95236 4.58403 5.7226C4.7372 5.49283 5.04764 5.43075 5.2774 5.58392L7.5 7.06565V4.5C7.5 4.22386 7.72386 4 8 4Z" fill="#777B92"/>
</svg>
