<svg width="16" height="16" viewBox="0 0 16 16" fill="none" xmlns="http://www.w3.org/2000/svg">
<path fill-rule="evenodd" clip-rule="evenodd" d="M5.5 1C5.5 0.723858 5.72386 0.5 6 0.5H10C10.2761 0.5 10.5 0.723858 10.5 1C10.5 1.27614 10.2761 1.5 10 1.5H6C5.72386 1.5 5.5 1.27614 5.5 1Z" fill="#777B92"/>
<path fill-rule="evenodd" clip-rule="evenodd" d="M8.5 6V8.5H11C11.2761 8.5 11.5 8.72386 11.5 9C11.5 9.27614 11.2761 9.5 11 9.5H8C7.72386 9.5 7.5 9.27614 7.5 9V6C7.5 5.72386 7.72386 5.5 8 5.5C8.27614 5.5 8.5 5.72386 8.5 6Z" fill="#777B92"/>
<path fill-rule="evenodd" clip-rule="evenodd" d="M8 2.5C9.86943 2.5 11.5545 3.28919 12.7403 4.55257L13.6464 3.64645C13.8417 3.45118 14.1583 3.45118 14.3536 3.64645C14.5488 3.84171 14.5488 4.15829 14.3536 4.35355L13.3702 5.33686C14.0831 6.37991 14.5 7.64127 14.5 9C14.5 12.5899 11.5899 15.5 8 15.5C4.41015 15.5 1.5 12.5899 1.5 9C1.5 5.41015 4.41015 2.5 8 2.5ZM2.5 9C2.5 12.0376 4.96243 14.5 8 14.5C11.0376 14.5 13.5 12.0376 13.5 9C13.5 5.96243 11.0376 3.5 8 3.5C4.96243 3.5 2.5 5.96243 2.5 9Z" fill="#777B92"/>
</svg>
