<svg width="16" height="16" viewBox="0 0 16 16" fill="none" xmlns="http://www.w3.org/2000/svg">
<path fill-rule="evenodd" clip-rule="evenodd" d="M0.885124 0.513424C1.11081 0.460147 1.34351 0.569034 1.44721 0.776442L8 13.882L14.5528 0.776442C14.6565 0.569034 14.8892 0.460147 15.1149 0.513424C15.3406 0.566702 15.5 0.76816 15.5 1.00005V15C15.5 15.2762 15.2761 15.5 15 15.5C14.7239 15.5 14.5 15.2762 14.5 15V3.11808L8.44721 15.2237C8.36252 15.393 8.18939 15.5 8 15.5C7.81061 15.5 7.63748 15.393 7.55279 15.2237L1.5 3.11808V15C1.5 15.2762 1.27614 15.5 1 15.5C0.723858 15.5 0.5 15.2762 0.5 15V1.00005C0.5 0.76816 0.659438 0.566702 0.885124 0.513424Z" fill="#777B92"/>
</svg>
