<svg width="16" height="16" viewBox="0 0 16 16" fill="none" xmlns="http://www.w3.org/2000/svg">
<path fill-rule="evenodd" clip-rule="evenodd" d="M5.5 3.5V2C5.5 1.17157 6.17157 0.5 7 0.5H9C9.82843 0.5 10.5 1.17157 10.5 2V3.5H15C15.2761 3.5 15.5 3.72386 15.5 4C15.5 4.27614 15.2761 4.5 15 4.5H13.5V10C13.5 10.2761 13.2761 10.5 13 10.5C12.7239 10.5 12.5 10.2761 12.5 10V4.5H3.5V14C3.5 14.2761 3.72386 14.5 4 14.5H10C10.2761 14.5 10.5 14.7239 10.5 15C10.5 15.2761 10.2761 15.5 10 15.5H4C3.17157 15.5 2.5 14.8284 2.5 14V4.5H1C0.723858 4.5 0.5 4.27614 0.5 4C0.5 3.72386 0.723858 3.5 1 3.5H5.5ZM6.5 2V3.5H9.5V2C9.5 1.72386 9.27614 1.5 9 1.5H7C6.72386 1.5 6.5 1.72386 6.5 2Z" fill="#777B92"/>
<path fill-rule="evenodd" clip-rule="evenodd" d="M10.5 8V10C10.5 10.2761 10.2761 10.5 10 10.5C9.72386 10.5 9.5 10.2761 9.5 10V8C9.5 7.72386 9.72386 7.5 10 7.5C10.2761 7.5 10.5 7.72386 10.5 8Z" fill="#777B92"/>
<path fill-rule="evenodd" clip-rule="evenodd" d="M6 7.5C6.27614 7.5 6.5 7.72386 6.5 8V11C6.5 11.2761 6.27614 11.5 6 11.5C5.72386 11.5 5.5 11.2761 5.5 11V8C5.5 7.72386 5.72386 7.5 6 7.5Z" fill="#777B92"/>
<path fill-rule="evenodd" clip-rule="evenodd" d="M12.5 15L10 12H15L12.5 15Z" fill="#777B92"/>
</svg>
