<svg width="16" height="16" viewBox="0 0 16 16" fill="none" xmlns="http://www.w3.org/2000/svg">
<path fill-rule="evenodd" clip-rule="evenodd" d="M9.49029 1.09806L8.6099 5.50001H13C13.1844 5.50001 13.3538 5.6015 13.4408 5.76408C13.5278 5.92666 13.5183 6.12393 13.416 6.27736L12.0827 8.27736C11.9295 8.50712 11.6191 8.56921 11.3893 8.41603C11.1596 8.26285 11.0975 7.95242 11.2506 7.72266L12.0657 6.50001H8C7.8502 6.50001 7.7083 6.43284 7.61333 6.317C7.51836 6.20116 7.48033 6.04884 7.50971 5.90195L8.01403 3.38035L7.41603 4.27736C7.26285 4.50712 6.95241 4.56921 6.72265 4.41603C6.49289 4.26285 6.4308 3.95242 6.58398 3.72266L8.58398 0.722656C8.7164 0.524017 8.97078 0.446707 9.19134 0.538066C9.4119 0.629426 9.53711 0.863966 9.49029 1.09806Z" fill="#777B92"/>
<path fill-rule="evenodd" clip-rule="evenodd" d="M4.74936 8.27736L3.93426 9.50001H8C8.1498 9.50001 8.2917 9.56717 8.38667 9.68301C8.48164 9.79885 8.51967 9.95118 8.49029 10.0981L7.98597 12.6197L8.58398 11.7227C8.73715 11.4929 9.04759 11.4308 9.27735 11.584C9.50712 11.7372 9.5692 12.0476 9.41603 12.2774L7.41603 15.2774C7.2836 15.476 7.02922 15.5533 6.80866 15.4619C6.5881 15.3706 6.46289 15.136 6.50971 14.9019L7.3901 10.5H3C2.8156 10.5 2.64617 10.3985 2.55916 10.2359C2.47215 10.0734 2.48169 9.87608 2.58398 9.72266L3.91731 7.72266C4.07049 7.49289 4.38092 7.4308 4.61068 7.58398C4.84045 7.73716 4.90254 8.04759 4.74936 8.27736Z" fill="#777B92"/>
<path fill-rule="evenodd" clip-rule="evenodd" d="M2.35355 1.64645L14.3536 13.6464C14.5488 13.8417 14.5488 14.1583 14.3536 14.3536C14.1583 14.5488 13.8417 14.5488 13.6464 14.3536L1.64645 2.35355C1.45118 2.15829 1.45118 1.84171 1.64645 1.64645C1.84171 1.45118 2.15829 1.45118 2.35355 1.64645Z" fill="#777B92"/>
</svg>
