<svg width="16" height="16" viewBox="0 0 16 16" fill="none" xmlns="http://www.w3.org/2000/svg">
<path fill-rule="evenodd" clip-rule="evenodd" d="M9.19134 0.538066C9.4119 0.629426 9.53711 0.863966 9.49029 1.09806L8.6099 5.50001H13C13.1844 5.50001 13.3538 5.6015 13.4408 5.76408C13.5278 5.92666 13.5183 6.12393 13.416 6.27736L7.41603 15.2774C7.2836 15.476 7.02922 15.5533 6.80866 15.4619C6.5881 15.3706 6.46289 15.136 6.50971 14.9019L7.3901 10.5H3C2.8156 10.5 2.64617 10.3985 2.55916 10.2359C2.47215 10.0734 2.48169 9.87608 2.58398 9.72266L8.58398 0.722656C8.7164 0.524017 8.97078 0.446707 9.19134 0.538066ZM3.93426 9.50001H8C8.1498 9.50001 8.2917 9.56717 8.38667 9.68301C8.48164 9.79885 8.51967 9.95118 8.49029 10.0981L7.98597 12.6197L12.0657 6.50001H8C7.8502 6.50001 7.7083 6.43284 7.61333 6.317C7.51836 6.20116 7.48033 6.04884 7.50971 5.90195L8.01403 3.38035L3.93426 9.50001Z" fill="#777B92"/>
</svg>
