<svg width="16" height="16" viewBox="0 0 16 16" fill="none" xmlns="http://www.w3.org/2000/svg">
<path fill-rule="evenodd" clip-rule="evenodd" d="M7.5 6V7.5H9C9.27614 7.5 9.5 7.72386 9.5 8C9.5 8.27614 9.27614 8.5 9 8.5H7.5V10C7.5 10.2761 7.27614 10.5 7 10.5C6.72386 10.5 6.5 10.2761 6.5 10V8.5H5C4.72386 8.5 4.5 8.27614 4.5 8C4.5 7.72386 4.72386 7.5 5 7.5H6.5V6C6.5 5.72386 6.72386 5.5 7 5.5C7.27614 5.5 7.5 5.72386 7.5 6Z" fill="#777B92"/>
<path fill-rule="evenodd" clip-rule="evenodd" d="M0.5 5C0.5 4.17157 1.17157 3.5 2 3.5H12C12.8284 3.5 13.5 4.17157 13.5 5V11C13.5 11.8284 12.8284 12.5 12 12.5H2C1.17157 12.5 0.5 11.8284 0.5 11V5ZM2 4.5C1.72386 4.5 1.5 4.72386 1.5 5V11C1.5 11.2761 1.72386 11.5 2 11.5H12C12.2761 11.5 12.5 11.2761 12.5 11V5C12.5 4.72386 12.2761 4.5 12 4.5H2Z" fill="#777B92"/>
<path fill-rule="evenodd" clip-rule="evenodd" d="M15.5 6V10C15.5 10.2761 15.2761 10.5 15 10.5C14.7239 10.5 14.5 10.2761 14.5 10V6C14.5 5.72386 14.7239 5.5 15 5.5C15.2761 5.5 15.5 5.72386 15.5 6Z" fill="#777B92"/>
</svg>
