<svg width="22" height="22" viewBox="0 0 22 22" fill="none" xmlns="http://www.w3.org/2000/svg">
<path d="M10.9765 3C14.6024 3 18.0869 4.40729 20.6965 6.92563C20.8867 7.10907 20.9967 7.36039 21.0023 7.62469C21.008 7.88899 20.9088 8.14477 20.7265 8.33614C20.6335 8.43368 20.5218 8.51143 20.3981 8.56471C20.2744 8.618 20.1412 8.64574 20.0065 8.64625C19.749 8.64523 19.5018 8.5449 19.3165 8.36615C17.0789 6.20249 14.0885 4.99305 10.9765 4.99305C7.8644 4.99305 4.87406 6.20249 2.63646 8.36615C2.44179 8.52684 2.19359 8.60795 1.94164 8.59322C1.6897 8.57848 1.45263 8.469 1.27801 8.28672C1.10339 8.10443 1.00412 7.86284 1.00013 7.61041C0.996128 7.35797 1.08769 7.11335 1.25646 6.92563C3.86603 4.40729 7.35053 3 10.9765 3Z" fill="#97A3BA"/>
<path d="M10.9761 7.99616C9.76826 7.99695 8.57299 8.24093 7.46143 8.71355C6.34988 9.18618 5.34479 9.87778 4.50605 10.7472C4.41478 10.8437 4.34342 10.9573 4.29603 11.0815C4.24865 11.2056 4.22617 11.3379 4.22989 11.4707C4.2336 11.6035 4.26343 11.7343 4.31768 11.8556C4.37193 11.9769 4.44953 12.0864 4.54605 12.1777C4.74098 12.3621 5.00116 12.4614 5.26934 12.4539C5.40212 12.4502 5.53288 12.4204 5.65414 12.3661C5.7754 12.3118 5.88478 12.2342 5.97605 12.1377C6.62904 11.4599 7.41191 10.9209 8.27787 10.5527C9.14383 10.1845 10.0751 9.9947 11.0161 9.9947C11.957 9.9947 12.8883 10.1845 13.7542 10.5527C14.6202 10.9209 15.4031 11.4599 16.0561 12.1377C16.1487 12.2322 16.2591 12.3074 16.381 12.3589C16.5029 12.4104 16.6337 12.4372 16.7661 12.4378C16.9615 12.437 17.1524 12.379 17.3152 12.2709C17.478 12.1628 17.6056 12.0094 17.6822 11.8295C17.7588 11.6497 17.7811 11.4513 17.7462 11.2589C17.7113 11.0666 17.6209 10.8887 17.486 10.7472C16.6426 9.87292 15.6311 9.1785 14.5123 8.70571C13.3935 8.23293 12.1906 7.99157 10.9761 7.99616Z" fill="#97A3BA"/>
<path d="M7.50688 14.3986C8.43876 13.5 9.68262 12.998 10.9769 12.998C12.2712 12.998 13.515 13.5 14.4469 14.3986C14.6378 14.5829 14.7478 14.8357 14.7524 15.1011C14.7571 15.3666 14.6562 15.623 14.4719 15.8141C14.2876 16.0051 14.0349 16.115 13.7696 16.1197C13.5042 16.1244 13.2478 16.0235 13.0569 15.8391C12.489 15.3189 11.7469 15.0303 10.9769 15.0303C10.2069 15.0303 9.46479 15.3189 8.89688 15.8391C8.70593 16.0235 8.44957 16.1244 8.18421 16.1197C7.91884 16.115 7.66621 16.0051 7.48188 15.8141C7.29756 15.623 7.19664 15.3666 7.20133 15.1011C7.20602 14.8357 7.31593 14.5829 7.50688 14.3986Z" fill="#97A3BA"/>
<path d="M11.9766 17.9995C11.9766 18.5518 11.5288 18.9995 10.9766 18.9995C10.4243 18.9995 9.97656 18.5518 9.97656 17.9995C9.97656 17.4472 10.4243 16.9995 10.9766 16.9995C11.5288 16.9995 11.9766 17.4472 11.9766 17.9995Z" fill="#97A3BA"/>
</svg>
