<svg width="22" height="22" viewBox="0 0 22 22" fill="none" xmlns="http://www.w3.org/2000/svg">
<path d="M19 2C18.4477 2 18 2.44772 18 3V19C18 19.5523 18.4477 20 19 20C19.5523 20 20 19.5523 20 19V3C20 2.44772 19.5523 2 19 2Z" fill="#97A3BA"/>
<path d="M14 5C13.4477 5 13 5.44772 13 6V19C13 19.5523 13.4477 20 14 20C14.5523 20 15 19.5523 15 19V6C15 5.44772 14.5523 5 14 5Z" fill="#97A3BA"/>
<path d="M8 9C8 8.44771 8.44772 8 9 8C9.55228 8 10 8.44772 10 9V19C10 19.5523 9.55228 20 9 20C8.44772 20 8 19.5523 8 19V9Z" fill="#97A3BA"/>
<path d="M4 11C3.44772 11 3 11.4477 3 12V19C3 19.5523 3.44772 20 4 20C4.55228 20 5 19.5523 5 19V12C5 11.4477 4.55228 11 4 11Z" fill="#97A3BA"/>
</svg>
