<svg width="24" height="24" viewBox="0 0 24 24" fill="none" xmlns="http://www.w3.org/2000/svg">
<path fill-rule="evenodd" clip-rule="evenodd" d="M5.7071 4.29289C6.09762 4.68342 6.09762 5.31658 5.7071 5.70711C2.19237 9.22183 2.19236 14.7782 5.70707 18.2929C6.0976 18.6834 6.0976 19.3166 5.70707 19.7071C5.31655 20.0976 4.68338 20.0976 4.29286 19.7071C-0.00291109 15.4113 -0.00288224 8.58866 4.29288 4.29289C4.68341 3.90237 5.31657 3.90237 5.7071 4.29289Z" fill="#777B92"/>
<path fill-rule="evenodd" clip-rule="evenodd" d="M18.293 4.29289C18.6835 3.90237 19.3167 3.90237 19.7072 4.29289C24.0029 8.58866 24.0029 15.4822 19.7072 19.778C19.3167 20.1685 18.6835 20.1685 18.293 19.778C17.9024 19.3874 17.9024 18.7543 18.293 18.3637C21.8077 14.849 21.8077 9.22183 18.293 5.70711C17.9024 5.31658 17.9024 4.68342 18.293 4.29289Z" fill="#777B92"/>
<path fill-rule="evenodd" clip-rule="evenodd" d="M8.70709 8.70711C7.59888 9.81532 7.125 10.9486 7.125 12C7.125 13.0514 7.5989 14.1847 8.70712 15.2929C9.09765 15.6834 9.09765 16.3166 8.70713 16.7071C8.31661 17.0976 7.68344 17.0976 7.29292 16.7071C5.90113 15.3153 5.12501 13.6986 5.125 12C5.12499 10.3014 5.9011 8.68468 7.29288 7.2929C7.6834 6.90237 8.31657 6.90237 8.70709 7.29289C9.09762 7.68342 9.09762 8.31658 8.70709 8.70711Z" fill="#777B92"/>
<path fill-rule="evenodd" clip-rule="evenodd" d="M16.7072 7.29291C18.099 8.68469 18.875 10.3014 18.875 12C18.875 13.6986 18.099 15.3153 16.7072 16.7071C16.3167 17.0976 15.6835 17.0976 15.293 16.7071C14.9025 16.3166 14.9025 15.6834 15.293 15.2929C16.4012 14.1847 16.875 13.0514 16.875 12C16.875 10.9486 16.4012 9.81531 15.293 8.70709C14.9025 8.31656 14.9025 7.68339 15.293 7.29288C15.6835 6.90236 16.3167 6.90238 16.7072 7.29291Z" fill="#777B92"/>
<path fill-rule="evenodd" clip-rule="evenodd" d="M13 14.8293V21C13 21.5523 12.5523 22 12 22C11.4477 22 11 21.5523 11 21V14.8293C9.83481 14.4175 9 13.3062 9 12C9 10.3431 10.3431 9 12 9C13.6569 9 15 10.3431 15 12C15 13.3062 14.1652 14.4175 13 14.8293ZM11 12C11 12.5523 11.4477 13 12 13C12.5523 13 13 12.5523 13 12C13 11.4477 12.5523 11 12 11C11.4477 11 11 11.4477 11 12Z" fill="#777B92"/>
</svg>
