<svg width="24" height="24" viewBox="0 0 24 24" fill="none" xmlns="http://www.w3.org/2000/svg">
<path fill-rule="evenodd" clip-rule="evenodd" d="M2.80769 9.80761C2.41717 10.1981 1.784 10.1981 1.39348 9.80761C1.00295 9.41709 1.00295 8.78392 1.39348 8.3934C7.25134 2.53553 16.7488 2.53553 22.6067 8.3934C22.9972 8.78392 22.9972 9.41709 22.6067 9.80761C22.2162 10.1981 21.583 10.1981 21.1925 9.80761C16.1157 4.7308 7.88451 4.7308 2.80769 9.80761Z" fill="#777B92"/>
<path fill-rule="evenodd" clip-rule="evenodd" d="M17.6568 13.3431C14.5326 10.219 9.46729 10.219 6.34309 13.3431C5.95257 13.7337 5.3194 13.7337 4.92888 13.3431C4.53836 12.9526 4.53836 12.3195 4.92888 11.9289C8.83412 8.02369 15.1658 8.02369 19.071 11.9289C19.4615 12.3195 19.4615 12.9526 19.071 13.3431C18.6805 13.7337 18.0473 13.7337 17.6568 13.3431Z" fill="#777B92"/>
<path fill-rule="evenodd" clip-rule="evenodd" d="M9.87874 16.8787C9.48821 17.2692 8.85505 17.2692 8.46452 16.8787C8.074 16.4882 8.074 15.855 8.46452 15.4645C10.4171 13.5118 13.583 13.5118 15.5356 15.4645C15.9261 15.855 15.9261 16.4882 15.5356 16.8787C15.1451 17.2692 14.5119 17.2692 14.1214 16.8787C12.9498 15.7071 11.0503 15.7071 9.87874 16.8787Z" fill="#777B92"/>
<path fill-rule="evenodd" clip-rule="evenodd" d="M12 20C11.4477 20 11 19.5523 11 19C11 18.4477 11.4477 18 12 18C12.5523 18 13 18.4477 13 19C13 19.5523 12.5523 20 12 20Z" fill="#777B92"/>
</svg>
