<svg width="22" height="22" viewBox="0 0 22 22" fill="none" xmlns="http://www.w3.org/2000/svg">
<path d="M4.61072 4.9814C4.64219 4.94923 4.67205 4.91547 4.70018 4.88032C4.99101 4.51702 5.09801 4.00528 4.8963 3.56827C4.65428 3.04391 4.0614 2.8263 3.61476 3.15694C1.41685 4.78406 0 7.72042 0 11C0 14.2796 1.41685 17.2159 3.61476 18.8431C4.0614 19.1737 4.65428 18.9561 4.8963 18.4317C5.09801 17.9947 4.99101 17.483 4.70019 17.1197C4.67205 17.0845 4.64219 17.0508 4.61072 17.0186C4.58612 16.9935 4.56055 16.9693 4.53404 16.9462C4.5244 16.9378 4.51464 16.9295 4.50476 16.9214C3.96742 16.4802 3.48928 15.9212 3.09655 15.2699C2.38892 14.0965 1.95852 12.6234 1.95852 11C1.95852 9.37644 2.38899 7.90329 3.09671 6.72978C3.48942 6.07863 3.96749 5.51973 4.50476 5.07859C4.51463 5.07048 4.52439 5.06222 4.53403 5.05383C4.56054 5.03072 4.58612 5.00654 4.61072 4.9814Z" fill="#97A3BA"/>
<path d="M17.3893 4.9814C17.3578 4.94923 17.328 4.91547 17.2998 4.88032C17.009 4.51702 16.902 4.00528 17.1037 3.56827C17.3457 3.04391 17.9386 2.8263 18.3852 3.15694C20.5832 4.78406 22 7.72042 22 11C22 14.2796 20.5832 17.2159 18.3852 18.8431C17.9386 19.1737 17.3457 18.9561 17.1037 18.4317C16.902 17.9947 17.009 17.483 17.2998 17.1197C17.328 17.0845 17.3578 17.0508 17.3893 17.0186C17.4139 16.9935 17.4395 16.9693 17.466 16.9462C17.4756 16.9378 17.4854 16.9295 17.4952 16.9214C18.0326 16.4802 18.5107 15.9212 18.9035 15.2699C19.6111 14.0965 20.0415 12.6234 20.0415 11C20.0415 9.37644 19.611 7.90329 18.9033 6.72978C18.5106 6.07863 18.0325 5.51973 17.4952 5.07859C17.4854 5.07048 17.4756 5.06222 17.466 5.05383C17.4395 5.03072 17.4139 5.00654 17.3893 4.9814Z" fill="#97A3BA"/>
<path d="M15.7471 6.42215C16.13 6.71937 16.4748 7.06266 16.7729 7.44363C17.5419 8.42641 18 9.65994 18 11C18 12.3401 17.5419 13.5736 16.7729 14.5564C16.4748 14.9373 16.13 15.2806 15.747 15.5779L15.733 15.5887C15.6043 15.6879 15.4714 15.782 15.3346 15.8705C14.8818 16.1634 14.2982 15.9333 14.0816 15.4428C13.9097 15.0536 14.0235 14.6187 14.291 14.2912C14.325 14.2495 14.3615 14.2096 14.4003 14.1717C14.4408 14.1321 14.4838 14.0947 14.5289 14.06C14.7492 13.8901 14.9507 13.6975 15.1297 13.4857C15.6935 12.8186 16.0344 11.9615 16.0407 11.0265L16.0408 11L16.0407 10.9735C16.0344 10.0385 15.6935 9.18141 15.1297 8.51432C14.9507 8.30254 14.7492 8.1099 14.5289 7.94002C14.4838 7.90526 14.4408 7.86789 14.4003 7.82826C14.3615 7.79039 14.325 7.75045 14.291 7.70877C14.0235 7.38133 13.9097 6.94638 14.0816 6.55722C14.2982 6.06672 14.8818 5.83659 15.3346 6.12951C15.4714 6.21803 15.6043 6.31206 15.733 6.41126L15.7471 6.42215Z" fill="#97A3BA"/>
<path fill-rule="evenodd" clip-rule="evenodd" d="M10.0045 15.9048C10.0015 15.9361 10 15.9679 10 16V20C10 20.5523 10.4477 21 11 21L11.0045 21C11.2697 21 11.524 20.8946 11.7116 20.7071C11.8991 20.5196 12.0045 20.2652 12.0045 20V14C12.0093 13.9434 12.0093 13.8866 12.0045 13.83C12.6728 13.5949 13.2364 13.1309 13.5953 12.52C13.9543 11.9092 14.0855 11.1911 13.9658 10.4928C13.846 9.79455 13.483 9.16119 12.9409 8.70493C12.3989 8.24867 11.713 7.99895 11.0045 8C10.296 7.99895 9.61001 8.24867 9.068 8.70493C8.526 9.16119 8.16296 9.79455 8.04319 10.4928C7.92341 11.1911 8.05463 11.9092 8.41361 12.52C8.77258 13.1309 9.33614 13.5949 10.0045 13.83C9.99965 13.8866 9.99965 13.9434 10.0045 14V15.9048ZM10.4489 11.8315C10.6134 11.9414 10.8067 12 11.0045 12C11.2697 12 11.524 11.8946 11.7116 11.7071C11.8991 11.5196 12.0045 11.2652 12.0045 11C12.0045 10.8022 11.9458 10.6089 11.8359 10.4444C11.7261 10.28 11.5699 10.1518 11.3872 10.0761C11.2044 10.0004 11.0034 9.98063 10.8094 10.0192C10.6154 10.0578 10.4372 10.153 10.2974 10.2929C10.1575 10.4327 10.0623 10.6109 10.0237 10.8049C9.9851 10.9989 10.0049 11.2 10.0806 11.3827C10.1563 11.5654 10.2845 11.7216 10.4489 11.8315Z" fill="#97A3BA"/>
<path d="M6.25295 6.42215C5.86999 6.71937 5.52518 7.06266 5.22708 7.44363C4.45809 8.42641 4 9.65994 4 11C4 12.3401 4.45809 13.5736 5.22708 14.5564C5.52518 14.9373 5.87 15.2806 6.25296 15.5779L6.26702 15.5887C6.39565 15.6879 6.52855 15.782 6.6654 15.8705C7.11822 16.1634 7.70181 15.9333 7.91842 15.4428C8.09027 15.0536 7.9765 14.6187 7.70904 14.2912C7.67499 14.2495 7.63846 14.2096 7.59971 14.1717C7.55917 14.1321 7.5162 14.0947 7.47112 14.06C7.25077 13.8901 7.04931 13.6975 6.87032 13.4857C6.30653 12.8186 5.96562 11.9615 5.9593 11.0265L5.95921 11L5.9593 10.9735C5.96562 10.0385 6.30653 9.18141 6.87032 8.51432C7.04931 8.30254 7.25077 8.1099 7.47112 7.94002C7.5162 7.90526 7.55917 7.86789 7.59971 7.82826C7.63846 7.79039 7.67499 7.75045 7.70904 7.70877C7.9765 7.38133 8.09027 6.94638 7.91842 6.55722C7.70181 6.06672 7.11822 5.83659 6.6654 6.12951C6.52855 6.21803 6.39565 6.31206 6.26702 6.41126L6.25295 6.42215Z" fill="#97A3BA"/>
</svg>
