<svg width="22" height="22" viewBox="0 0 22 22" fill="none" xmlns="http://www.w3.org/2000/svg">
<path d="M6.49177 9.67333C6.60846 9.60479 6.73789 9.56077 6.87215 9.54397C7.67561 9.43078 8.49469 9.53709 9.24273 9.85165C9.99076 10.1662 10.6399 10.6773 11.1215 11.3309C11.6031 11.9844 11.8992 12.7562 11.9785 13.5644C12.0577 14.3725 11.9172 15.1872 11.5719 15.922C11.4919 16.095 11.364 16.2414 11.2034 16.3438C11.0428 16.4463 10.8562 16.5005 10.6658 16.5C10.5217 16.499 10.3794 16.4685 10.2476 16.4103C10.0086 16.2979 9.82403 16.0952 9.73441 15.8466C9.64478 15.5981 9.65745 15.3241 9.76964 15.0849C9.98471 14.6178 10.0513 14.096 9.96052 13.5898C9.8697 13.0836 9.62582 12.6176 9.26183 12.2546C8.99038 11.9784 8.65807 11.7696 8.29151 11.645C7.92496 11.5204 7.53434 11.4835 7.15095 11.5371C6.89095 11.5773 6.62562 11.5128 6.41294 11.3579C6.20025 11.2029 6.05749 10.9699 6.01585 10.71C5.9918 10.5767 5.99515 10.4399 6.02568 10.308C6.05621 10.176 6.11328 10.0517 6.19342 9.94261C6.27355 9.83349 6.37507 9.74187 6.49177 9.67333Z" fill="#97A3BA"/>
<path d="M6.86435 5.58339C6.60078 5.62047 6.36267 5.76125 6.20239 5.97476C6.04211 6.18828 5.9728 6.45703 6.0097 6.72189C6.0466 6.98676 6.18669 7.22605 6.39915 7.38712C6.61161 7.54819 6.87904 7.61785 7.14261 7.58077C8.05981 7.45104 8.99447 7.53784 9.87249 7.83426C10.7505 8.13069 11.5477 8.6286 12.201 9.28852C12.9638 10.0493 13.5078 11.0032 13.7754 12.0492C14.0431 13.0952 14.0244 14.1945 13.7214 15.2307C13.6819 15.3579 13.668 15.4917 13.6807 15.6244C13.6934 15.757 13.7324 15.8858 13.7954 16.003C13.8584 16.1203 13.9441 16.2237 14.0474 16.3072C14.1508 16.3906 14.2697 16.4525 14.3972 16.4891C14.4894 16.5036 14.5833 16.5036 14.6755 16.4891C14.8972 16.4979 15.1156 16.4319 15.2957 16.3016C15.4758 16.1713 15.6073 15.9842 15.6692 15.77C16.0504 14.484 16.1031 13.1222 15.8224 11.8103C15.5418 10.4984 14.9369 9.27871 14.0635 8.26371C13.1901 7.2487 12.0764 6.4711 10.8252 6.00266C9.57393 5.53422 8.22542 5.39003 6.9041 5.58339H6.86435Z" fill="#97A3BA"/>
<path d="M8.01385 14.4901C8.01385 15.0421 7.56653 15.4895 7.01474 15.4895C6.46294 15.4895 6.01562 15.0421 6.01562 14.4901C6.01562 13.9382 6.46294 13.4907 7.01474 13.4907C7.56653 13.4907 8.01385 13.9382 8.01385 14.4901Z" fill="#97A3BA"/>
<path fill-rule="evenodd" clip-rule="evenodd" d="M5 2C3.34315 2 2 3.34315 2 5V17C2 18.6569 3.34315 20 5 20H17C18.6569 20 20 18.6569 20 17V5C20 3.34315 18.6569 2 17 2H5ZM4 5C4 4.44772 4.44772 4 5 4H17C17.5523 4 18 4.44772 18 5V17C18 17.5523 17.5523 18 17 18H5C4.44772 18 4 17.5523 4 17V5Z" fill="#97A3BA"/>
</svg>
