<svg width="22" height="22" viewBox="0 0 22 22" fill="none" xmlns="http://www.w3.org/2000/svg">
<path d="M9.53995 8.11073L11.4389 9.9997L19.7044 18.2851C19.798 18.3781 19.8724 18.4886 19.9231 18.6104C19.9739 18.7322 20 18.8628 20 18.9948C20 19.1267 19.9739 19.2573 19.9231 19.3791C19.8724 19.5009 19.798 19.6115 19.7044 19.7044C19.6115 19.798 19.5009 19.8724 19.3791 19.9231C19.2573 19.9739 19.1267 20 18.9948 20C18.8628 20 18.7322 19.9739 18.6104 19.9231C18.4886 19.8724 18.3781 19.798 18.2851 19.7044L14.4373 15.8565L11.6488 13.058L8.9103 10.3195L7.36115 8.78037L5.13237 6.5416L3.67317 5.0824L2.29393 3.71315C2.10573 3.52495 2 3.2697 2 3.00354C2 2.73738 2.10573 2.48213 2.29393 2.29393C2.38712 2.20074 2.49775 2.12682 2.6195 2.07639C2.74126 2.02596 2.87175 2 3.00354 2C3.13533 2 3.26582 2.02596 3.38758 2.07639C3.50933 2.12682 3.61996 2.20074 3.71315 2.29393L5.53215 4.12293L7.0813 5.67207L9.53995 8.11073Z" fill="#97A3BA"/>
<path d="M20 17.1772V3C20 2.44772 19.5523 2 19 2C18.4477 2 18 2.44772 18 3V15.1742L20 17.1772Z" fill="#97A3BA"/>
<path d="M3 12C3 11.4477 3.44772 11 4 11C4.55228 11 5 11.4477 5 12V19C5 19.5523 4.55228 20 4 20C3.44772 20 3 19.5523 3 19V12Z" fill="#97A3BA"/>
<path d="M15 6V12.1696L13 10.1666V6C13 5.44772 13.4477 5 14 5C14.5523 5 15 5.44772 15 6Z" fill="#97A3BA"/>
<path d="M13 19V15.8488L15 17.8483V19C15 19.5523 14.5523 20 14 20C13.4477 20 13 19.5523 13 19Z" fill="#97A3BA"/>
<path d="M10 12.846V18.9999C10 19.5522 9.55228 19.9999 9 19.9999C8.44772 19.9999 8 19.5522 8 18.9999V10.8457L8.18247 11.0268L8.18476 11.0291L10 12.846Z" fill="#97A3BA"/>
</svg>
