<svg width="22" height="22" viewBox="0 0 22 22" fill="none" xmlns="http://www.w3.org/2000/svg">
<path d="M12.6337 11.0015L16.6383 7.21154C16.7628 7.09527 16.8596 6.95265 16.9216 6.79412C16.9837 6.6356 17.0094 6.46521 16.9969 6.29546C16.9845 6.12571 16.9341 5.9609 16.8495 5.81314C16.7649 5.66537 16.6483 5.5384 16.5082 5.44154L11.8328 2.21154C11.6575 2.08893 11.4518 2.01665 11.2383 2.00255C11.0247 1.98845 10.8114 2.03306 10.6214 2.13154C10.4374 2.22696 10.2826 2.37023 10.1733 2.54625C10.0641 2.72226 10.0044 2.92448 10.0007 3.13154V9.33154L6.80702 5.33154C6.63443 5.12467 6.38664 4.99476 6.11815 4.97038C5.84967 4.946 5.58248 5.02915 5.37538 5.20154C5.16827 5.37393 5.03821 5.62144 5.0138 5.88962C4.98939 6.1578 5.07264 6.42467 5.24523 6.63154L8.71922 11.0015L5.21519 15.4315C5.0515 15.6388 4.97647 15.9022 5.00648 16.1645C5.03649 16.4268 5.16909 16.6665 5.37538 16.8315C5.55791 16.9549 5.77609 17.0147 5.99609 17.0015C6.14647 17.0009 6.29476 16.9663 6.42995 16.9005C6.56514 16.8348 6.68375 16.7394 6.77699 16.6215L10.0007 12.5615V18.8515C10.0033 19.1575 10.1268 19.4499 10.3444 19.6653C10.5619 19.8807 10.8557 20.0016 11.162 20.0015C11.402 20.0024 11.6363 19.9291 11.8328 19.7915L16.4781 16.6115C16.6166 16.5138 16.7322 16.3871 16.8169 16.2404C16.9016 16.0936 16.9534 15.9303 16.9687 15.7615C16.9819 15.5942 16.9582 15.4261 16.8994 15.2689C16.8406 15.1117 16.7481 14.9692 16.6283 14.8515L12.6337 11.0015ZM12.003 4.76154L14.5059 6.49154L12.003 8.85154V4.76154ZM12.003 17.2515V13.1815L14.4758 15.5615L12.003 17.2515Z" fill="#97A3BA"/>
</svg>
