<svg width="24" height="24" viewBox="0 0 24 24" fill="none" xmlns="http://www.w3.org/2000/svg">
<path fill-rule="evenodd" clip-rule="evenodd" d="M5 3H19C20.1046 3 21 3.89543 21 5V19C21 20.1046 20.1046 21 19 21H16C15.4477 21 15 20.5523 15 20C15 19.4477 15.4477 19 16 19H19V5H5V8C5 8.55228 4.55228 9 4 9C3.44772 9 3 8.55228 3 8V5C3 3.89543 3.89543 3 5 3Z" fill="#777B92"/>
<path fill-rule="evenodd" clip-rule="evenodd" d="M4 21C3.44772 21 3 20.5523 3 20C3 19.4477 3.44772 19 4 19C4.55228 19 5 19.4477 5 20C5 20.5523 4.55228 21 4 21Z" fill="#777B92"/>
<path fill-rule="evenodd" clip-rule="evenodd" d="M3 12C3 11.4477 3.44772 11 4 11C8.97056 11 13 15.0294 13 20C13 20.5523 12.5523 21 12 21C11.4477 21 11 20.5523 11 20C11 16.134 7.86599 13 4 13C3.44772 13 3 12.5523 3 12Z" fill="#777B92"/>
<path fill-rule="evenodd" clip-rule="evenodd" d="M4 15C6.76142 15 9 17.2386 9 20C9 20.5523 8.55228 21 8 21C7.44772 21 7 20.5523 7 20C7 18.3431 5.65685 17 4 17C3.44772 17 3 16.5523 3 16C3 15.4477 3.44772 15 4 15Z" fill="#777B92"/>
</svg>
