<svg width="22" height="22" viewBox="0 0 22 22" fill="none" xmlns="http://www.w3.org/2000/svg">
<path d="M10 2C10 1.44772 10.4477 1 11 1C11.5523 1 12 1.44772 12 2V5C12 5.55228 11.5523 6 11 6C10.4477 6 10 5.55228 10 5V2Z" fill="#97A3BA"/>
<path d="M12 10C12 10.5523 11.5523 11 11 11C10.4477 11 10 10.5523 10 10C10 9.44771 10.4477 9 11 9C11.5523 9 12 9.44771 12 10Z" fill="#97A3BA"/>
<path d="M11 14C10.4477 14 10 14.4477 10 15V20C10 20.5523 10.4477 21 11 21C11.5523 21 12 20.5523 12 20V15C12 14.4477 11.5523 14 11 14Z" fill="#97A3BA"/>
<path d="M16.7729 6.44363C16.4748 6.06266 16.13 5.71937 15.7471 5.42215L15.733 5.41126C15.6043 5.31206 15.4714 5.21803 15.3346 5.12951C14.8818 4.83659 14.2982 5.06672 14.0816 5.55722C13.9097 5.94638 14.0235 6.38133 14.291 6.70877C14.325 6.75045 14.3615 6.79039 14.4003 6.82826C14.4408 6.86789 14.4838 6.90526 14.5289 6.94002C14.7492 7.1099 14.9507 7.30254 15.1297 7.51432C15.6935 8.18141 16.0344 9.03853 16.0407 9.97352L16.0408 10L16.0407 10.0265C16.0344 10.9615 15.6935 11.8186 15.1297 12.4857C14.9507 12.6975 14.7492 12.8901 14.5289 13.06C14.4838 13.0947 14.4408 13.1321 14.4003 13.1717C14.3615 13.2096 14.325 13.2495 14.291 13.2912C14.0235 13.6187 13.9097 14.0536 14.0816 14.4428C14.2982 14.9333 14.8818 15.1634 15.3346 14.8705C15.4714 14.782 15.6043 14.6879 15.733 14.5887L15.747 14.5779C16.13 14.2806 16.4748 13.9373 16.7729 13.5564C17.5419 12.5736 18 11.3401 18 10C18 8.65994 17.5419 7.42641 16.7729 6.44363Z" fill="#97A3BA"/>
<path d="M17.2998 3.88032C17.328 3.91547 17.3578 3.94923 17.3893 3.9814C17.4139 4.00654 17.4395 4.03072 17.466 4.05383C17.4756 4.06222 17.4854 4.07048 17.4952 4.07859C18.0325 4.51973 18.5106 5.07863 18.9033 5.72978C19.611 6.90329 20.0415 8.37644 20.0415 10C20.0415 11.6234 19.6111 13.0965 18.9035 14.2699C18.5107 14.9212 18.0326 15.4802 17.4952 15.9214C17.4854 15.9295 17.4756 15.9378 17.466 15.9462C17.4395 15.9693 17.4139 15.9935 17.3893 16.0186C17.3578 16.0508 17.328 16.0845 17.2998 16.1197C17.009 16.483 16.902 16.9947 17.1037 17.4317C17.3457 17.9561 17.9386 18.1737 18.3852 17.8431C20.5832 16.2159 22 13.2796 22 10C22 6.72042 20.5832 3.78406 18.3852 2.15694C17.9386 1.8263 17.3457 2.04391 17.1037 2.56827C16.902 3.00528 17.009 3.51702 17.2998 3.88032Z" fill="#97A3BA"/>
<path d="M5.22708 6.44363C5.52518 6.06266 5.86999 5.71937 6.25295 5.42215L6.26702 5.41126C6.39565 5.31206 6.52855 5.21803 6.6654 5.12951C7.11822 4.83659 7.70181 5.06672 7.91842 5.55722C8.09027 5.94638 7.9765 6.38133 7.70904 6.70877C7.67499 6.75045 7.63846 6.79039 7.59971 6.82826C7.55917 6.86789 7.5162 6.90526 7.47112 6.94002C7.25077 7.1099 7.04931 7.30254 6.87032 7.51432C6.30653 8.18141 5.96562 9.03853 5.9593 9.97352L5.95921 10L5.9593 10.0265C5.96562 10.9615 6.30653 11.8186 6.87032 12.4857C7.04931 12.6975 7.25077 12.8901 7.47112 13.06C7.5162 13.0947 7.55917 13.1321 7.59971 13.1717C7.63846 13.2096 7.67499 13.2495 7.70904 13.2912C7.9765 13.6187 8.09027 14.0536 7.91842 14.4428C7.70181 14.9333 7.11822 15.1634 6.6654 14.8705C6.52855 14.782 6.39565 14.6879 6.26702 14.5887L6.25296 14.5779C5.87 14.2806 5.52518 13.9373 5.22708 13.5564C4.45809 12.5736 4 11.3401 4 10C4 8.65994 4.45809 7.42641 5.22708 6.44363Z" fill="#97A3BA"/>
<path d="M4.70018 3.88032C4.67205 3.91547 4.64219 3.94923 4.61072 3.9814C4.58612 4.00654 4.56054 4.03072 4.53403 4.05383C4.52439 4.06222 4.51463 4.07048 4.50476 4.07859C3.96749 4.51973 3.48942 5.07863 3.09671 5.72978C2.38899 6.90329 1.95852 8.37644 1.95852 10C1.95852 11.6234 2.38892 13.0965 3.09655 14.2699C3.48928 14.9212 3.96742 15.4802 4.50476 15.9214C4.51464 15.9295 4.5244 15.9378 4.53404 15.9462C4.56055 15.9693 4.58612 15.9935 4.61072 16.0186C4.64219 16.0508 4.67205 16.0845 4.70019 16.1197C4.99101 16.483 5.09801 16.9947 4.8963 17.4317C4.65428 17.9561 4.0614 18.1737 3.61476 17.8431C1.41685 16.2159 0 13.2796 0 10C0 6.72042 1.41685 3.78406 3.61476 2.15694C4.0614 1.8263 4.65428 2.04391 4.8963 2.56827C5.09801 3.00528 4.99101 3.51702 4.70018 3.88032Z" fill="#97A3BA"/>
</svg>
