<svg width="22" height="22" viewBox="0 0 22 22" fill="none" xmlns="http://www.w3.org/2000/svg">
<path d="M11.4389 9.9997L9.53995 8.11073L7.0813 5.67207L5.53215 4.12293L3.71315 2.29393C3.61996 2.20074 3.50933 2.12682 3.38758 2.07639C3.26582 2.02596 3.13533 2 3.00354 2C2.87175 2 2.74126 2.02596 2.6195 2.07639C2.49775 2.12682 2.38712 2.20074 2.29393 2.29393C2.10573 2.48213 2 2.73738 2 3.00354C2 3.2697 2.10573 3.52495 2.29393 3.71315L3.67317 5.0824L5.13237 6.5416L7.36115 8.78037L8.91029 10.3195L11.6488 13.058L14.4373 15.8565L18.2851 19.7044C18.3781 19.798 18.4886 19.8724 18.6104 19.9231C18.7322 19.9739 18.8628 20 18.9948 20C19.1267 20 19.2573 19.9739 19.3791 19.9231C19.5009 19.8724 19.6115 19.798 19.7044 19.7044C19.798 19.6115 19.8724 19.5009 19.9231 19.3791C19.9739 19.2573 20 19.1267 20 18.9948C20 18.8628 19.9739 18.7322 19.9231 18.6104C19.8724 18.4886 19.798 18.3781 19.7044 18.2851L11.4389 9.9997Z" fill="#97A3BA"/>
<path d="M10.9795 18.995C11.5318 18.995 11.9795 18.5475 11.9795 17.9955C11.9795 17.4436 11.5318 16.9961 10.9795 16.9961C10.4272 16.9961 9.97949 17.4436 9.97949 17.9955C9.97949 18.5475 10.4272 18.995 10.9795 18.995Z" fill="#97A3BA"/>
<path d="M10.9797 3.00392C14.6092 2.99812 18.0977 4.40732 20.7032 6.93177C20.8876 7.11421 20.9938 7.36111 20.9994 7.62032C21.005 7.87954 20.9096 8.13078 20.7332 8.321C20.6403 8.41845 20.5285 8.49613 20.4048 8.54937C20.281 8.60261 20.1477 8.63032 20.013 8.63083C19.7554 8.62981 19.5082 8.52957 19.3227 8.35099C17.8706 6.94399 16.0833 5.93025 14.1298 5.40559C12.1763 4.88094 10.1212 4.86271 8.15867 5.35263L6.53809 3.73352C7.96999 3.25435 9.46961 3.00801 10.9797 3.00392Z" fill="#97A3BA"/>
<path d="M2.79711 5.65186C2.25434 6.04185 1.73956 6.46933 1.25655 6.93115C1.08773 7.1187 0.996126 7.3631 1.00013 7.6153C1.00413 7.86751 1.10343 8.10888 1.27811 8.291C1.4528 8.47311 1.68995 8.5825 1.94199 8.59722C2.19403 8.61194 2.44232 8.5309 2.63705 8.37036C3.13593 7.89935 3.67111 7.46826 4.23763 7.08107L2.79711 5.65186Z" fill="#97A3BA"/>
<path d="M16.3072 12.3597C16.1853 12.3083 16.0748 12.2331 15.9822 12.1387C15.2029 11.325 14.2386 10.7113 13.1712 10.3497L10.8203 8.00098H10.9804C12.1819 8.00712 13.37 8.25346 14.4747 8.72549C15.5794 9.19753 16.5783 9.8857 17.4127 10.7495C17.5476 10.8908 17.6381 11.0686 17.6729 11.2608C17.7078 11.453 17.6856 11.6511 17.609 11.8308C17.5323 12.0105 17.4047 12.1638 17.2418 12.2718C17.0789 12.3798 16.8879 12.4378 16.6924 12.4385C16.5601 12.438 16.4292 12.4112 16.3072 12.3597Z" fill="#97A3BA"/>
<path d="M6.40879 9.26025C5.70975 9.66704 5.07017 10.1681 4.5081 10.7494C4.32371 10.9443 4.22434 11.2043 4.23184 11.4723C4.23935 11.7404 4.35311 11.9944 4.54812 12.1787C4.74312 12.3629 5.00339 12.4622 5.27167 12.4547C5.53994 12.4472 5.79424 12.3335 5.97864 12.1387C6.56143 11.5598 7.23784 11.0834 7.97936 10.7294L6.40879 9.26025Z" fill="#97A3BA"/>
<path d="M7.20328 15.0991C7.20797 14.8339 7.31792 14.5814 7.50895 14.3971C8.25395 13.6856 9.20077 13.2213 10.2199 13.0679L12.7408 15.5865C12.1686 15.1827 11.475 14.9872 10.7759 15.0326C10.0768 15.0781 9.41445 15.3618 8.89945 15.8364C8.70843 16.0206 8.45198 16.1214 8.18652 16.1168C7.92106 16.1121 7.66833 16.0022 7.48394 15.8114C7.29955 15.6205 7.19859 15.3643 7.20328 15.0991Z" fill="#97A3BA"/>
</svg>
