<svg width="22" height="22" viewBox="0 0 22 22" fill="none" xmlns="http://www.w3.org/2000/svg">
<path d="M4.61358 2H17.4022C18.1143 2.02607 18.7871 2.33286 19.2738 2.85339C19.7605 3.37393 20.0215 4.06592 19.9999 4.77831V17.2107C20.0215 17.9231 19.7605 18.6151 19.2738 19.1357C18.7871 19.6562 18.1143 19.963 17.4022 19.989H16.0035C15.7385 19.989 15.4844 19.8838 15.297 19.6963C15.1096 19.5089 15.0044 19.2547 15.0044 18.9897C15.0044 18.7246 15.1096 18.4704 15.297 18.283C15.4844 18.0956 15.7385 17.9903 16.0035 17.9903H17.4022C17.5824 17.9607 17.7446 17.8637 17.8559 17.7189C17.9672 17.5742 18.0193 17.3925 18.0017 17.2107V4.77831C18.0193 4.59654 17.9672 4.41487 17.8559 4.27012C17.7446 4.12537 17.5824 4.02837 17.4022 3.99878H4.61358C4.43342 4.02837 4.27125 4.12537 4.15993 4.27012C4.04862 4.41487 3.99649 4.59654 4.01411 4.77831V5.99757C4.01411 6.26262 3.90885 6.51682 3.72148 6.70424C3.53411 6.89166 3.27998 6.99696 3.015 6.99696C2.75002 6.99696 2.49589 6.89166 2.30852 6.70424C2.12115 6.51682 2.01589 6.26262 2.01589 5.99757V4.77831C1.9943 4.06592 2.25535 3.37393 2.74204 2.85339C3.22874 2.33286 3.90155 2.02607 4.61358 2Z" fill="#97A3BA"/>
<path d="M3.99823 18.9994C3.99823 19.5513 3.55091 19.9988 2.99911 19.9988C2.44732 19.9988 2 19.5513 2 18.9994C2 18.4474 2.44732 18 2.99911 18C3.55091 18 3.99823 18.4474 3.99823 18.9994Z" fill="#97A3BA"/>
<path d="M3.00023 16C2.49227 16 2 15.5052 2 14.9972V14.8598C2 14.423 2.3187 14.0446 2.75421 14.0112C2.84409 14.0044 2.92904 14 3.00023 14C5.76166 14 8.00024 16.2386 8.00024 19C8.00024 19.0711 7.99589 19.1559 7.98902 19.2457C7.95566 19.6812 7.57724 20 7.14038 20H7.00256C6.49472 20 6.00024 19.5078 6.00024 19C6.00024 17.3431 4.65709 16 3.00023 16Z" fill="#97A3BA"/>
<path d="M1.99902 10.9985C1.99902 11.5303 2.46787 12 2.99972 12C6.86571 12 9.99972 15.134 9.99972 19C9.99972 19.5315 10.4684 20 10.9998 20H11.0724C11.5654 20 11.9837 19.6221 11.9977 19.1292C11.999 19.0828 11.9997 19.0392 11.9997 19C11.9997 14.0294 7.97028 10 2.99972 10C2.9602 10 2.91624 10.0008 2.86941 10.0021C2.37678 10.0161 1.99902 10.4342 1.99902 10.9271V10.9985Z" fill="#97A3BA"/>
</svg>
