<svg width="24" height="24" viewBox="0 0 24 24" fill="none" xmlns="http://www.w3.org/2000/svg">
<path fill-rule="evenodd" clip-rule="evenodd" d="M11.0363 2.99531C11.1548 3.53472 10.8136 4.06809 10.2742 4.18663C6.68523 4.97529 4 8.17534 4 12.0002C4 12.937 4.16058 13.834 4.45488 14.6668C4.63891 15.1875 4.36597 15.7588 3.84525 15.9428C3.32452 16.1268 2.75321 15.8539 2.56918 15.3332C2.20028 14.2894 2 13.1671 2 12.0002C2 7.21635 5.3582 3.21917 9.84497 2.23323C10.3844 2.1147 10.9178 2.45589 11.0363 2.99531ZM14.0572 3.17909C14.2412 2.65838 14.8125 2.38545 15.3332 2.5695C19.2159 3.94181 22 7.6446 22 12.0002C22 12.5525 21.5523 13.0002 21 13.0002C20.4477 13.0002 20 12.5525 20 12.0002C20 8.51853 17.7753 5.55388 14.6668 4.45518C14.146 4.27113 13.8731 3.69981 14.0572 3.17909ZM20.5096 15.1044C21.0042 15.3502 21.2059 15.9504 20.9601 16.445C19.3251 19.7354 15.9279 22.0002 12 22.0002C9.61935 22.0002 7.43057 21.1671 5.71327 19.7773C5.28396 19.4299 5.21758 18.8002 5.56501 18.3709C5.91244 17.9416 6.54212 17.8752 6.97143 18.2226C8.34568 19.3348 10.0938 20.0002 12 20.0002C15.1397 20.0002 17.8588 18.1917 19.1691 15.555C19.4148 15.0604 20.015 14.8587 20.5096 15.1044Z" fill="currentColor"/>
</svg>
