<svg width="24" height="24" viewBox="0 0 24 24" fill="none" xmlns="http://www.w3.org/2000/svg">
<path fill-rule="evenodd" clip-rule="evenodd" d="M4.06192 15H7.10015C7.49784 13.0409 9.04101 11.4977 11.0001 11.1V8.06191C7.38149 8.51323 4.51259 11.3817 4.06192 15ZM12.0001 6C6.85157 6 2.61295 9.89004 2.06092 14.8919C1.92686 16.1066 2.92879 17 4.00014 17H8.00014C8.55242 17 9.00014 16.5523 9.00014 16C9.00014 14.3431 10.3433 13 12.0001 13C13.657 13 15.0001 14.3431 15.0001 16C15.0001 16.5523 15.4479 17 16.0001 17H20.0001C21.0715 17 22.0734 16.1066 21.9393 14.8919C21.3873 9.89004 17.1487 6 12.0001 6ZM13.0001 8.06191V11.1C14.9593 11.4977 16.5024 13.0409 16.9001 15H19.9383C19.4877 11.3817 16.6188 8.51323 13.0001 8.06191Z" fill="currentColor"/>
</svg>
