<svg width="24" height="24" viewBox="0 0 24 24" fill="none" xmlns="http://www.w3.org/2000/svg">
<path fill-rule="evenodd" clip-rule="evenodd" d="M4 12C4 7.58172 7.58172 4 12 4C12.5523 4 13 3.55228 13 3C13 2.44772 12.5523 2 12 2C6.47715 2 2 6.47715 2 12C2 17.5228 6.47715 22 12 22C15.9278 22 19.3249 19.7353 20.96 16.445C21.2058 15.9505 21.0041 15.3503 20.5095 15.1045C20.0149 14.8587 19.4148 15.0604 19.169 15.555C17.8587 18.1916 15.1396 20 12 20C7.58172 20 4 16.4183 4 12ZM16.445 3.04001C15.9505 2.79422 15.3503 2.99591 15.1045 3.49049C14.8587 3.98507 15.0604 4.58525 15.555 4.83103C17.6781 5.88613 19.2651 7.85637 19.8018 10.2213C19.924 10.7599 20.4597 11.0974 20.9983 10.9752C21.5369 10.853 21.8744 10.3173 21.7522 9.77871C21.0801 6.81672 19.0959 4.35737 16.445 3.04001ZM8.79928 9.60058C9.53074 8.62676 10.6921 8 12.0001 8C14.2092 8 16.0001 9.79086 16.0001 12C16.0001 12.9016 15.703 13.731 15.2009 14.3994C14.8692 14.841 14.9583 15.4679 15.3999 15.7996C15.8415 16.1313 16.4683 16.0422 16.8 15.6006C17.5533 14.5977 18.0001 13.3496 18.0001 12C18.0001 8.68629 15.3138 6 12.0001 6C10.0365 6 8.2931 6.94434 7.20015 8.39942C6.86846 8.84101 6.95755 9.46788 7.39914 9.79957C7.84072 10.1313 8.46759 10.0422 8.79928 9.60058ZM8.08011 12.8011C7.97024 12.2598 7.44241 11.9101 6.90117 12.02C6.35992 12.1299 6.01022 12.6577 6.12008 13.1989C6.59765 15.5516 8.44838 17.4024 10.8011 17.88C11.3423 17.9899 11.8701 17.6402 11.98 17.0989C12.0899 16.5577 11.7402 16.0298 11.1989 15.92C9.63343 15.6021 8.3979 14.3666 8.08011 12.8011Z" fill="currentColor"/>
</svg>
