<svg width="24" height="24" viewBox="0 0 24 24" fill="none" xmlns="http://www.w3.org/2000/svg">
<path fill-rule="evenodd" clip-rule="evenodd" d="M21 4C21 3.44772 20.5523 3 20 3C19.4477 3 19 3.44772 19 4V20C19 20.5523 19.4477 21 20 21C20.5523 21 21 20.5523 21 20V4ZM16 8C16 7.44772 15.5523 7 15 7C14.4477 7 14 7.44772 14 8L14 20C14 20.5523 14.4477 21 15 21C15.5523 21 16 20.5523 16 20L16 8ZM10 11C10.5523 11 11 11.4477 11 12L11 20C11 20.5523 10.5523 21 10 21C9.44772 21 9 20.5523 9 20L9 12C9 11.4477 9.44772 11 10 11ZM6 16C6 15.4477 5.55228 15 5 15C4.44772 15 4 15.4477 4 16V20C4 20.5523 4.44772 21 5 21C5.55228 21 6 20.5523 6 20L6 16Z" fill="currentColor"/>
</svg>
