<svg width="24" height="24" viewBox="0 0 24 24" fill="none" xmlns="http://www.w3.org/2000/svg">
<path fill-rule="evenodd" clip-rule="evenodd" d="M7.07461 2.03495C8.13002 1.95156 8.96864 2.72901 9.12566 3.67113L9.86498 8.10725C10.0093 8.97331 9.57193 9.83223 8.78662 10.2249L8.23793 10.4992C8.77317 11.6752 9.85978 13.0612 11.0635 14.1785C11.681 14.7517 12.2998 15.2262 12.8492 15.5509C13.1728 15.7422 13.4363 15.8598 13.638 15.9264C13.6868 15.8175 13.7379 15.6884 13.7886 15.5464C14.1073 14.6531 15.0291 13.991 16.0751 14.1653L20.3289 14.8745C21.2637 15.0303 22.0648 15.8717 21.9513 16.9507C21.8015 18.3751 21.3015 19.636 20.4398 20.5539C19.5641 21.4867 18.3735 21.9999 17 21.9999C8.43959 21.9999 2 15.5603 2 6.99991C2 5.46861 2.48677 4.22871 3.46741 3.36054C4.41584 2.52089 5.69857 2.14367 7.07461 2.03495ZM7.15869 4.03486C6.05047 4.13229 5.27979 4.42718 4.79315 4.85801C4.32804 5.26978 4 5.91421 4 6.99991C4 14.4558 9.54416 19.9999 17 19.9999C17.8448 19.9999 18.4999 19.6982 18.9816 19.185C19.4625 18.6728 19.8245 17.8894 19.9513 16.8391L15.7462 16.1381C15.746 16.1381 15.7459 16.138 15.7458 16.138C15.7456 16.138 15.7455 16.1381 15.7449 16.1382C15.7431 16.1386 15.737 16.1402 15.7277 16.1461C15.7072 16.159 15.6846 16.1841 15.6723 16.2185C15.5698 16.5057 15.4296 16.8552 15.2564 17.1494C15.1713 17.294 15.0514 17.472 14.8899 17.6255C14.7391 17.7688 14.4359 17.9999 14 17.9999C13.2707 17.9999 12.5042 17.6702 11.8316 17.2727C11.1287 16.8573 10.3959 16.2876 9.70294 15.6444C8.33139 14.3713 6.99785 12.6993 6.33877 11.1486C5.91276 10.1463 6.46551 9.14938 7.27028 8.74699L7.89219 8.43603L7.15869 4.03486Z" fill="currentColor"/>
</svg>
