<svg width="24" height="24" viewBox="0 0 24 24" fill="none" xmlns="http://www.w3.org/2000/svg">
<path fill-rule="evenodd" clip-rule="evenodd" d="M12.9713 2.39573C12.3672 2.06015 11.6328 2.06015 11.0287 2.39573L3.02871 6.84017C2.39378 7.19291 2 7.86215 2 8.58849V20.0001C2 21.1047 2.89543 22.0001 4 22.0001H20C21.1046 22.0001 22 21.1047 22 20.0001V8.58849C22 7.86215 21.6062 7.19291 20.9713 6.84017L12.9713 2.39573ZM4.64218 8.23172L12 4.14404L19.3578 8.23172L12 13.7501L4.64218 8.23172ZM4 10.2501V20.0001H20V10.2501L13.2 15.3501C12.4889 15.8834 11.5111 15.8834 10.8 15.3501L4 10.2501Z" fill="currentColor"/>
</svg>
