<svg width="24" height="24" viewBox="0 0 24 24" fill="none" xmlns="http://www.w3.org/2000/svg">
<path fill-rule="evenodd" clip-rule="evenodd" d="M13.029 2.45103C12.3956 2.07102 11.6044 2.07101 10.971 2.45101L6.97104 4.85089C6.37448 5.20881 5.98262 5.87028 6.01198 6.60708C6.24792 12.5276 9.88044 15.0151 11.1692 15.7071C11.6909 15.9872 12.3091 15.9872 12.8308 15.7071C14.1196 15.0151 17.752 12.5276 17.9878 6.60702C18.0171 5.87026 17.6253 5.20882 17.0288 4.85091L13.029 2.45103ZM12 13.8813C10.9679 13.2949 8.21266 11.3067 8.01169 6.55888L12 4.16602L15.9881 6.55888C15.7873 11.3067 13.0321 13.2949 12 13.8813ZM13 17.9998C13 18.5521 12.5523 18.9998 12 18.9998C11.4477 18.9998 11 18.5521 11 17.9998C11 17.4475 11.4477 16.9998 12 16.9998C12.5523 16.9998 13 17.4475 13 17.9998ZM2 20.9998C2 20.4475 2.44772 19.9998 3 19.9998H21C21.5523 19.9998 22 20.4475 22 20.9998C22 21.5521 21.5523 21.9998 21 21.9998H3C2.44772 21.9998 2 21.5521 2 20.9998Z" fill="currentColor"/>
</svg>
