<svg width="24" height="24" viewBox="0 0 24 24" fill="none" xmlns="http://www.w3.org/2000/svg">
<path fill-rule="evenodd" clip-rule="evenodd" d="M3 4C3 2.89543 3.89543 2 5 2H19C20.1046 2 21 2.89543 21 4V9V13C21 13.5523 20.5523 14 20 14C19.4477 14 19 13.5523 19 13V10H5V14H13C13.5523 14 14 14.4477 14 15C14 15.5523 13.5523 16 13 16H5V20H14C14.5523 20 15 20.4477 15 21C15 21.5523 14.5523 22 14 22H5C3.89543 22 3 21.1046 3 20V15V9V4ZM19 8H5V4L19 4V8ZM9 6C9 6.55228 8.55228 7 8 7C7.44772 7 7 6.55228 7 6C7 5.44772 7.44772 5 8 5C8.55228 5 9 5.44772 9 6ZM8 13C8.55228 13 9 12.5523 9 12C9 11.4477 8.55228 11 8 11C7.44772 11 7 11.4477 7 12C7 12.5523 7.44772 13 8 13ZM9 18C9 18.5523 8.55228 19 8 19C7.44772 19 7 18.5523 7 18C7 17.4477 7.44772 17 8 17C8.55228 17 9 17.4477 9 18ZM18.8944 15.3292C18.3314 15.0477 17.6686 15.0477 17.1056 15.3292L16.1056 15.8292C15.4394 16.1623 14.9582 16.8786 15.0421 17.7152C15.0951 18.2434 15.2203 19.0487 15.5307 19.816C15.8348 20.5677 16.3858 21.4485 17.3895 21.8511C17.7808 22.008 18.2192 22.008 18.6105 21.8511C19.6142 21.4485 20.1652 20.5677 20.4693 19.816C20.7797 19.0487 20.9049 18.2434 20.9579 17.7152C21.0418 16.8786 20.5606 16.1623 19.8944 15.8292L18.8944 15.3292ZM18 17.118L18.9592 17.5976C18.9111 18.0288 18.8114 18.5812 18.6153 19.066C18.4358 19.5096 18.2232 19.7837 18 19.9256C17.7768 19.7837 17.5642 19.5096 17.3847 19.066C17.1886 18.5812 17.0889 18.0288 17.0408 17.5976L18 17.118Z" fill="currentColor"/>
</svg>
