<svg width="24" height="24" viewBox="0 0 24 24" fill="none" xmlns="http://www.w3.org/2000/svg">
<path fill-rule="evenodd" clip-rule="evenodd" d="M4 2C2.89543 2 2 2.89543 2 4V8C2 9.10457 2.89543 10 4 10H6V17C6 18.1046 6.89543 19 8 19H12V20C12 21.1046 12.8954 22 14 22H20C21.1046 22 22 21.1046 22 20V16C22 14.8954 21.1046 14 20 14H18V7C18 5.89543 17.1046 5 16 5H12V4C12 2.89543 11.1046 2 10 2H4ZM12 17H8V10H10C11.1046 10 12 9.10457 12 8V7H16V14H14C12.8954 14 12 14.8954 12 16V17ZM14 18V20H20V16H17H14V18ZM7 8H10V6V4H4V8H7Z" fill="currentColor"/>
</svg>
