<svg width="24" height="24" viewBox="0 0 24 24" fill="none" xmlns="http://www.w3.org/2000/svg">
<path fill-rule="evenodd" clip-rule="evenodd" d="M9 7C6.23858 7 4 9.23858 4 12C4 14.7614 6.23858 17 9 17C11.7614 17 14 14.7614 14 12C14 9.23858 11.7614 7 9 7ZM2 12C2 8.13401 5.13401 5 9 5C12.866 5 16 8.13401 16 12C16 15.866 12.866 19 9 19C5.13401 19 2 15.866 2 12ZM9 9C9.55228 9 10 9.44772 10 10V11H11C11.5523 11 12 11.4477 12 12C12 12.5523 11.5523 13 11 13H10C8.89543 13 8 12.1046 8 11V10C8 9.44772 8.44772 9 9 9ZM21.7071 16.7071L19.7071 18.7071C19.3166 19.0976 18.6834 19.0976 18.2929 18.7071L16.2929 16.7071C15.9024 16.3166 15.9024 15.6834 16.2929 15.2929C16.6834 14.9024 17.3166 14.9024 17.7071 15.2929L18 15.5858V6C18 5.44771 18.4477 5 19 5C19.5523 5 20 5.44771 20 6V15.5858L20.2929 15.2929C20.6834 14.9024 21.3166 14.9024 21.7071 15.2929C22.0976 15.6834 22.0976 16.3166 21.7071 16.7071Z" fill="currentColor"/>
</svg>
