<svg width="24" height="24" viewBox="0 0 24 24" fill="none" xmlns="http://www.w3.org/2000/svg">
<path d="M2 16.2884V8.10653H3.84304V9.4968H3.93892C4.10938 9.0316 4.39169 8.66584 4.78587 8.3995C5.18004 8.13317 5.65057 8 6.19744 8C6.74787 8 7.21484 8.13317 7.59837 8.3995C7.98189 8.66584 8.25178 9.0316 8.40803 9.4968H8.49325C8.67436 9.04226 8.97976 8.68004 9.40945 8.41016C9.84268 8.13672 10.3558 8 10.9489 8C11.7017 8 12.3161 8.23793 12.7919 8.71378C13.2678 9.18963 13.5057 9.88388 13.5057 10.7965V16.2884H11.5721V11.0948C11.5721 10.587 11.4371 10.2159 11.1673 9.98153C10.8974 9.74361 10.5671 9.62464 10.1765 9.62464C9.71129 9.62464 9.3473 9.77024 9.08452 10.0614C8.82528 10.3491 8.69567 10.7237 8.69567 11.1854V16.2884H6.80469V11.0149C6.80469 10.5923 6.67685 10.255 6.42116 10.0028C6.16903 9.75071 5.83878 9.62464 5.4304 9.62464C5.01491 9.62464 4.6598 9.78089 4.36506 10.0934C4.07386 10.4023 3.92827 10.8089 3.92827 11.3132V16.2884H2Z" fill="currentColor"/>
<path d="M17.8308 16.4482C17.0318 16.4482 16.3393 16.2724 15.7534 15.9208C15.1675 15.5692 14.7129 15.0774 14.3898 14.4453C14.0702 13.8097 13.9104 13.071 13.9104 12.2294C13.9104 11.3842 14.0702 10.6456 14.3898 10.0135C14.7129 9.37784 15.1675 8.88423 15.7534 8.53267C16.3393 8.17756 17.0318 8 17.8308 8C18.6298 8 19.3223 8.17756 19.9082 8.53267C20.4977 8.88423 20.9523 9.37784 21.2719 10.0135C21.5915 10.6456 21.7513 11.3842 21.7513 12.2294C21.7513 13.071 21.5915 13.8097 21.2719 14.4453C20.9523 15.0774 20.4977 15.5692 19.9082 15.9208C19.3223 16.2724 18.6298 16.4482 17.8308 16.4482ZM17.8415 14.9034C18.2782 14.9034 18.6405 14.7844 18.9281 14.5465C19.2193 14.3086 19.4359 13.9872 19.578 13.5824C19.7236 13.174 19.7964 12.7212 19.7964 12.2241C19.7964 11.7234 19.7236 11.2706 19.578 10.8658C19.4359 10.4574 19.2193 10.1325 18.9281 9.89098C18.6405 9.6495 18.2782 9.52876 17.8415 9.52876C17.4011 9.52876 17.0336 9.6495 16.7388 9.89098C16.4476 10.1325 16.2292 10.4574 16.0836 10.8658C15.9381 11.2706 15.8653 11.7234 15.8653 12.2241C15.8653 12.7212 15.9381 13.174 16.0836 13.5824C16.2292 13.9872 16.4476 14.3086 16.7388 14.5465C17.0336 14.7844 17.4011 14.9034 17.8415 14.9034Z" fill="currentColor"/>
</svg>
