<svg width="24" height="24" viewBox="0 0 24 24" fill="none" xmlns="http://www.w3.org/2000/svg">
<path fill-rule="evenodd" clip-rule="evenodd" d="M11 4C7.13401 4 4 7.13401 4 11C4 11.3754 4.02964 11.7444 4.08682 12.1047C2.31771 12.5178 1 14.105 1 16C1 18.2091 2.79086 20 5 20H18C20.7614 20 23 17.7614 23 15C23 12.2386 20.7614 10 18 10C17.9764 10 17.9528 10.0002 17.9292 10.0005C17.4442 6.60796 14.5266 4 11 4ZM6 11C6 8.23858 8.23858 6 11 6C13.7614 6 16 8.23858 16 11C16 11.7119 16.661 12.2248 17.3402 12.0726C17.5516 12.0252 17.7723 12 18 12C19.6569 12 21 13.3431 21 15C21 16.6569 19.6569 18 18 18H5C3.89543 18 3 17.1046 3 16C3 14.8954 3.89543 14 5 14C5.78716 14 6.44422 13.2403 6.20043 12.4071C6.07019 11.9619 6 11.49 6 11ZM14.8 11.6C15.1314 11.1582 15.0418 10.5314 14.6 10.2C14.1582 9.86863 13.5314 9.95817 13.2 10.4L10.8918 13.4776L9.70711 12.2929C9.31658 11.9024 8.68342 11.9024 8.29289 12.2929C7.90237 12.6834 7.90237 13.3166 8.29289 13.7071L10.2929 15.7071C10.4979 15.9121 10.7817 16.018 11.0709 15.9975C11.3601 15.9769 11.6261 15.8319 11.8 15.6L14.8 11.6Z" fill="currentColor"/>
</svg>
