<svg width="24" height="24" viewBox="0 0 24 24" fill="none" xmlns="http://www.w3.org/2000/svg">
<path fill-rule="evenodd" clip-rule="evenodd" d="M7 2C6.44772 2 6 2.44772 6 3C6 3.55228 6.44772 4 7 4H12V8C12 9.10457 12.8954 10 14 10H18V15C18 15.5523 18.4477 16 19 16C19.5523 16 20 15.5523 20 15V9.41421C20 9.3328 19.995 9.25191 19.9853 9.17192C19.995 9.11607 20 9.05862 20 9C20 8.66188 19.8322 8.36295 19.5753 8.18196C19.5256 8.11842 19.4718 8.05763 19.4142 8L14 2.58579C13.9424 2.52815 13.8816 2.4744 13.818 2.4247C13.6371 2.16782 13.3381 2 13 2C12.9414 2 12.8839 2.00504 12.8281 2.01472C12.7481 2.00496 12.6672 2 12.5858 2H7ZM14 5.41421V8H16.5858L14 5.41421ZM6 9C6 8.44772 5.55228 8 5 8C4.44772 8 4 8.44772 4 9V20C4 21.1046 4.89543 22 6 22H17C17.5523 22 18 21.5523 18 21C18 20.4477 17.5523 20 17 20H6V9ZM3.29289 3.29289C3.68342 2.90237 4.31658 2.90237 4.70711 3.29289L20.7071 19.2929C21.0976 19.6834 21.0976 20.3166 20.7071 20.7071C20.3166 21.0976 19.6834 21.0976 19.2929 20.7071L3.29289 4.70711C2.90237 4.31658 2.90237 3.68342 3.29289 3.29289ZM9.70711 13.2929C9.31658 12.9024 8.68342 12.9024 8.29289 13.2929C7.90237 13.6834 7.90237 14.3166 8.29289 14.7071L10.2929 16.7071C10.6834 17.0976 11.3166 17.0976 11.7071 16.7071C12.0976 16.3166 12.0976 15.6834 11.7071 15.2929L9.70711 13.2929Z" fill="currentColor"/>
</svg>
