<svg width="24" height="24" viewBox="0 0 24 24" fill="none" xmlns="http://www.w3.org/2000/svg">
<path fill-rule="evenodd" clip-rule="evenodd" d="M20.7071 4.70711C21.0976 4.31658 21.0976 3.68342 20.7071 3.29289C20.3166 2.90237 19.6834 2.90237 19.2929 3.29289L13.402 9.18379C12.2575 8.54472 10.8265 8.55421 9.67113 9.2763L3.47001 13.152C3.21158 13.3135 3.04091 13.5841 3.00643 13.8868C2.97195 14.1896 3.07741 14.4916 3.2929 14.7071L5.7929 17.2071L9.2929 20.7071C9.50839 20.9226 9.81038 21.0281 10.1132 20.9936C10.416 20.9591 10.6865 20.7884 10.848 20.53L14.7237 14.3289C15.4458 13.1735 15.4553 11.7425 14.8162 10.598L20.7071 4.70711ZM7.91422 16.5L8.70711 15.7071C9.09764 15.3166 9.09764 14.6834 8.70711 14.2929C8.31659 13.9024 7.68342 13.9024 7.2929 14.2929L6.50001 15.0858L5.59598 14.1818L8.77849 12.1927L11.8073 15.2215L9.81824 18.404L7.91422 16.5ZM12.7929 11.2071C12.2441 10.6583 11.3892 10.561 10.7311 10.9723L10.5191 11.1048L12.8952 13.4809L13.0277 13.2689C13.439 12.6108 13.3417 11.7559 12.7929 11.2071Z" fill="currentColor"/>
</svg>
