<svg width="24" height="24" viewBox="0 0 24 24" fill="none" xmlns="http://www.w3.org/2000/svg">
<path fill-rule="evenodd" clip-rule="evenodd" d="M4 5C3.44772 5 3 5.44772 3 6C3 6.55228 3.44772 7 4 7H20C20.5523 7 21 6.55228 21 6C21 5.44772 20.5523 5 20 5H4ZM12 9C11.4477 9 11 9.44772 11 10C11 10.5523 11.4477 11 12 11H20C20.5523 11 21 10.5523 21 10C21 9.44772 20.5523 9 20 9H12ZM11 14C11 13.4477 11.4477 13 12 13H20C20.5523 13 21 13.4477 21 14C21 14.5523 20.5523 15 20 15H12C11.4477 15 11 14.5523 11 14ZM4 17C3.44772 17 3 17.4477 3 18C3 18.5523 3.44772 19 4 19H20C20.5523 19 21 18.5523 21 18C21 17.4477 20.5523 17 20 17H4Z" fill="currentColor"/>
</svg>
