<svg width="24" height="24" viewBox="0 0 24 24" fill="none" xmlns="http://www.w3.org/2000/svg">
<path fill-rule="evenodd" clip-rule="evenodd" d="M2 4C2 3.44772 2.44772 3 3 3H6C6.55229 3 7 3.44772 7 4V20C7 20.5523 6.55229 21 6 21H3C2.44772 21 2 20.5523 2 20V4ZM9 4C9 3.44772 9.44772 3 10 3H13C13.5523 3 14 3.44772 14 4V6C14 6.55228 13.5523 7 13 7H10C9.44772 7 9 6.55228 9 6V4ZM10 9C9.44772 9 9 9.44772 9 10V20C9 20.5523 9.44772 21 10 21H13C13.5523 21 14 20.5523 14 20V10C14 9.44772 13.5523 9 13 9H10ZM16 16C16 15.4477 16.4477 15 17 15H20C20.5523 15 21 15.4477 21 16V20C21 20.5523 20.5523 21 20 21H17C16.4477 21 16 20.5523 16 20V16ZM17 3C16.4477 3 16 3.44772 16 4V12C16 12.5523 16.4477 13 17 13H20C20.5523 13 21 12.5523 21 12V4C21 3.44772 20.5523 3 20 3H17Z" fill="currentColor"/>
</svg>
