<svg width="24" height="24" viewBox="0 0 24 24" fill="none" xmlns="http://www.w3.org/2000/svg">
<path fill-rule="evenodd" clip-rule="evenodd" d="M10.5858 2.00009C11.3668 1.21904 12.6332 1.21905 13.4142 2.00009L19 7.58588C19.7811 8.36693 19.781 9.63326 19 10.4143L13.4142 16.0001C12.6332 16.7811 11.3668 16.7811 10.5858 16.0001L5 10.4143C4.21895 9.63326 4.21895 8.36693 5 7.58588L10.5858 2.00009ZM3.29289 12.293C3.68342 11.9025 4.31658 11.9025 4.70711 12.293L12 19.5859L19.2929 12.293C19.6834 11.9025 20.3166 11.9025 20.7071 12.293C21.0976 12.6835 21.0976 13.3167 20.7071 13.7072L13.4142 21.0001C12.6332 21.7811 11.3668 21.7811 10.5858 21.0001L3.29289 13.7072C2.90237 13.3167 2.90237 12.6835 3.29289 12.293Z" fill="currentColor"/>
</svg>
