<svg width="24" height="24" viewBox="0 0 24 24" fill="none" xmlns="http://www.w3.org/2000/svg">
<path fill-rule="evenodd" clip-rule="evenodd" d="M10.2111 5.34166C10.9482 3.86756 13.0518 3.86756 13.7889 5.34166L18.8944 15.5528C19.1414 16.0468 18.9412 16.6475 18.4472 16.8944C17.9532 17.1414 17.3526 16.9412 17.1056 16.4472L15.882 14H8.11803L6.89443 16.4472C6.64744 16.9412 6.04676 17.1414 5.55279 16.8944C5.05881 16.6475 4.85858 16.0468 5.10557 15.5528L10.2111 5.34166ZM9.11803 12H14.882L12 6.23608L9.11803 12ZM4 20C4 19.4477 4.44772 19 5 19H19C19.5523 19 20 19.4477 20 20C20 20.5523 19.5523 21 19 21H5C4.44772 21 4 20.5523 4 20Z" fill="currentColor"/>
</svg>
