<svg width="24" height="24" viewBox="0 0 24 24" fill="none" xmlns="http://www.w3.org/2000/svg">
<path fill-rule="evenodd" clip-rule="evenodd" d="M8 4C8 3.44772 7.55228 3 7 3C6.44772 3 6 3.44772 6 4V11C6 14.3137 8.68629 17 12 17C15.3137 17 18 14.3137 18 11V4C18 3.44772 17.5523 3 17 3C16.4477 3 16 3.44772 16 4V11C16 13.2091 14.2091 15 12 15C9.79086 15 8 13.2091 8 11V4ZM6 19C5.44772 19 5 19.4477 5 20C5 20.5523 5.44772 21 6 21H18C18.5523 21 19 20.5523 19 20C19 19.4477 18.5523 19 18 19H6Z" fill="currentColor"/>
</svg>
