<svg width="24" height="24" viewBox="0 0 24 24" fill="none" xmlns="http://www.w3.org/2000/svg">
<path fill-rule="evenodd" clip-rule="evenodd" d="M4 8C4.55228 8 5 7.55228 5 7C5 6.44772 4.55228 6 4 6C3.44772 6 3 6.44772 3 7C3 7.55228 3.44772 8 4 8ZM8 6C7.44772 6 7 6.44772 7 7C7 7.55228 7.44772 8 8 8H20C20.5523 8 21 7.55228 21 7C21 6.44772 20.5523 6 20 6H8ZM8 11C7.44772 11 7 11.4477 7 12C7 12.5523 7.44772 13 8 13H20C20.5523 13 21 12.5523 21 12C21 11.4477 20.5523 11 20 11H8ZM7 17C7 16.4477 7.44772 16 8 16H20C20.5523 16 21 16.4477 21 17C21 17.5523 20.5523 18 20 18H8C7.44772 18 7 17.5523 7 17ZM5 12C5 12.5523 4.55228 13 4 13C3.44772 13 3 12.5523 3 12C3 11.4477 3.44772 11 4 11C4.55228 11 5 11.4477 5 12ZM4 18C4.55228 18 5 17.5523 5 17C5 16.4477 4.55228 16 4 16C3.44772 16 3 16.4477 3 17C3 17.5523 3.44772 18 4 18Z" fill="currentColor"/>
</svg>
