<svg width="24" height="24" viewBox="0 0 24 24" fill="none" xmlns="http://www.w3.org/2000/svg">
<path fill-rule="evenodd" clip-rule="evenodd" d="M15.3509 3.0637C15.8681 3.25762 16.1301 3.83403 15.9362 4.35115L9.93615 20.3512C9.74223 20.8683 9.16582 21.1303 8.6487 20.9364C8.13158 20.7424 7.86958 20.166 8.0635 19.6489L14.0635 3.6489C14.2574 3.13178 14.8338 2.86978 15.3509 3.0637ZM6.51432 6.14253C6.9879 6.42668 7.14147 7.04094 6.85732 7.51452L4.16602 12L6.85732 16.4855C7.14147 16.9591 6.9879 17.5734 6.51432 17.8575C6.04074 18.1417 5.42648 17.9881 5.14233 17.5145L2.45103 13.029C2.07101 12.3957 2.07101 11.6044 2.45103 10.971L5.14233 6.48553C5.42648 6.01195 6.04074 5.85839 6.51432 6.14253ZM18.8573 6.48553C18.5732 6.01195 17.9589 5.85839 17.4853 6.14253C17.0117 6.42668 16.8582 7.04094 17.1423 7.51452L19.8336 12L17.1423 16.4855C16.8582 16.9591 17.0117 17.5734 17.4853 17.8575C17.9589 18.1417 18.5732 17.9881 18.8573 17.5145L21.5486 13.029C21.9286 12.3957 21.9286 11.6044 21.5486 10.971L18.8573 6.48553Z" fill="currentColor"/>
</svg>
