<svg width="24" height="24" viewBox="0 0 24 24" fill="none" xmlns="http://www.w3.org/2000/svg">
<path fill-rule="evenodd" clip-rule="evenodd" d="M3 5C3 3.89543 3.89543 3 5 3H9C10.1046 3 11 3.89543 11 5V7.58579L13.2929 5.29289C13.6834 4.90237 14.3166 4.90237 14.7071 5.29289L18.7071 9.29289C19.0976 9.68342 19.0976 10.3166 18.7071 10.7071L16.4142 13H20C20.5523 13 21 13.4477 21 14V20C21 20.5523 20.5523 21 20 21H7C4.79086 21 3 19.2091 3 17V14V9V5ZM10.4649 19H19V15H14.4142L10.7071 18.7071C10.6605 18.7538 10.6104 18.7948 10.5576 18.8303C10.528 18.8877 10.4971 18.9443 10.4649 19ZM13.2924 13.2934C13.2927 13.2931 13.2931 13.2927 13.2934 13.2924L16.5858 10L14 7.41421L11 10.4142V14V15.5858L13.2924 13.2934ZM5 10H9V13H5V10ZM5 15V17C5 18.1046 5.89543 19 7 19C8.10457 19 9 18.1046 9 17V15H5ZM9 5V8H5V5H9Z" fill="currentColor"/>
</svg>
