<svg width="24" height="24" viewBox="0 0 24 24" fill="none" xmlns="http://www.w3.org/2000/svg">
<path fill-rule="evenodd" clip-rule="evenodd" d="M15 3C13.8954 3 13 3.89543 13 5V19C13 20.1046 13.8954 21 15 21H19C20.1046 21 21 20.1046 21 19V5C21 3.89543 20.1046 3 19 3H15ZM15 5H19V19H15V5ZM8.70711 9.29289C8.31658 8.90237 7.68342 8.90237 7.29289 9.29289C6.90237 9.68342 6.90237 10.3166 7.29289 10.7071L7.58579 11H4C3.44772 11 3 11.4477 3 12C3 12.5523 3.44772 13 4 13H7.58579L7.29289 13.2929C6.90237 13.6834 6.90237 14.3166 7.29289 14.7071C7.68342 15.0976 8.31658 15.0976 8.70711 14.7071L10.7071 12.7071C10.8946 12.5196 11 12.2652 11 12C11 11.7348 10.8946 11.4804 10.7071 11.2929L8.70711 9.29289Z" fill="currentColor"/>
</svg>
