<svg width="24" height="24" viewBox="0 0 24 24" fill="none" xmlns="http://www.w3.org/2000/svg">
<path fill-rule="evenodd" clip-rule="evenodd" d="M3 3C2.44772 3 2 3.44772 2 4V20C2 20.5523 2.44772 21 3 21H6C6.55229 21 7 20.5523 7 20V4C7 3.44772 6.55229 3 6 3H3ZM10 3C9.44772 3 9 3.44772 9 4V10C9 10.5523 9.44772 11 10 11H20C20.5523 11 21 10.5523 21 10V4C21 3.44772 20.5523 3 20 3H10ZM9 14C9 13.4477 9.44772 13 10 13H13C13.5523 13 14 13.4477 14 14V20C14 20.5523 13.5523 21 13 21H10C9.44772 21 9 20.5523 9 20V14ZM17 13C16.4477 13 16 13.4477 16 14V20C16 20.5523 16.4477 21 17 21H20C20.5523 21 21 20.5523 21 20V14C21 13.4477 20.5523 13 20 13H17Z" fill="currentColor"/>
</svg>
