<svg width="24" height="24" viewBox="0 0 24 24" fill="none" xmlns="http://www.w3.org/2000/svg">
<path fill-rule="evenodd" clip-rule="evenodd" d="M5 3C3.89543 3 3 3.89543 3 5L3 20C3 20.5523 3.44772 21 4 21C4.55228 21 5 20.5523 5 20L5 5L20 5C20.5523 5 21 4.55229 21 4C21 3.44771 20.5523 3 20 3L5 3ZM8 21C8.55228 21 9 20.5523 9 20C9 19.4477 8.55228 19 8 19C7.44771 19 7 19.4477 7 20C7 20.5523 7.44771 21 8 21ZM12 21C12.5523 21 13 20.5523 13 20C13 19.4477 12.5523 19 12 19C11.4477 19 11 19.4477 11 20C11 20.5523 11.4477 21 12 21ZM17 20C17 20.5523 16.5523 21 16 21C15.4477 21 15 20.5523 15 20C15 19.4477 15.4477 19 16 19C16.5523 19 17 19.4477 17 20ZM21 8C21 8.55228 20.5523 9 20 9C19.4477 9 19 8.55228 19 8C19 7.44771 19.4477 7 20 7C20.5523 7 21 7.44771 21 8ZM20 13C20.5523 13 21 12.5523 21 12C21 11.4477 20.5523 11 20 11C19.4477 11 19 11.4477 19 12C19 12.5523 19.4477 13 20 13ZM21 16C21 16.5523 20.5523 17 20 17C19.4477 17 19 16.5523 19 16C19 15.4477 19.4477 15 20 15C20.5523 15 21 15.4477 21 16ZM20 21C20.5523 21 21 20.5523 21 20C21 19.4477 20.5523 19 20 19C19.4477 19 19 19.4477 19 20C19 20.5523 19.4477 21 20 21Z" fill="currentColor"/>
</svg>
