<svg width="24" height="24" viewBox="0 0 24 24" fill="none" xmlns="http://www.w3.org/2000/svg">
<path fill-rule="evenodd" clip-rule="evenodd" d="M16 4.5C15.6657 4.5 15.3534 4.6671 15.168 4.9453L12.4648 9H6.53519L4.83206 6.4453C4.64659 6.1671 4.33436 6 4.00001 6H3.00001C2.70042 6 2.41661 6.13432 2.22667 6.36601C2.03673 6.5977 1.96067 6.90234 2.01943 7.19612L2.78027 11.0003C3.00057 12.1018 3.81776 12.9879 4.89785 13.2965L9.47179 14.6034L7.14252 18.4855C6.95716 18.7944 6.9523 19.1792 7.12981 19.4927C7.30731 19.8062 7.63974 20 8.00001 20H10C10.2339 20 10.4605 19.918 10.6402 19.7682L16.3621 15H20.2554C21.2189 15 22 14.2189 22 13.2554C22 10.9909 20.2313 9.1396 18 9.00754V5.5C18 4.94772 17.5523 4.5 17 4.5H16ZM16 9V7.30278L14.8685 9H16ZM13.0137 11H17H17.7446C18.9039 11 19.8589 11.8746 19.9857 13H16C15.7661 13 15.5395 13.082 15.3598 13.2318L9.89444 17.7863L11.8575 14.5145C12.0175 14.2479 12.0443 13.922 11.9301 13.6328C11.8159 13.3435 11.5737 13.1239 11.2747 13.0385L5.44729 11.3735C5.08726 11.2706 4.81486 10.9752 4.74143 10.6081L4.54338 9.61783L5.16796 10.5547C5.35342 10.8329 5.66566 11 6.00001 11H12.9845C12.9942 11.0001 13.004 11.0001 13.0137 11Z" fill="currentColor"/>
</svg>
