<svg width="24" height="24" viewBox="0 0 24 24" fill="none" xmlns="http://www.w3.org/2000/svg">
<path fill-rule="evenodd" clip-rule="evenodd" d="M5 3C3.89543 3 3 3.89543 3 5V12C3 12.7403 3.4022 13.3866 4 13.7324V15H3C2.44772 15 2 15.4477 2 16C2 16.5523 2.44772 17 3 17H3.17071C3.06015 17.3128 3 17.6494 3 18C3 19.6569 4.34315 21 6 21C7.65685 21 9 19.6569 9 18C9 17.6494 8.93985 17.3128 8.82929 17H15.1707C15.0602 17.3128 15 17.6494 15 18C15 19.6569 16.3431 21 18 21C19.6569 21 21 19.6569 21 18C21 17.6494 20.9398 17.3128 20.8293 17H21C21.5523 17 22 16.5523 22 16C22 15.4477 21.5523 15 21 15H20V13.7324C20.5978 13.3866 21 12.7403 21 12V5C21 3.89543 20.1046 3 19 3H5ZM6 15H18V14H6V15ZM5 12H19V5H5V12ZM5 18C5 17.4477 5.44772 17 6 17C6.55228 17 7 17.4477 7 18C7 18.5523 6.55228 19 6 19C5.44772 19 5 18.5523 5 18ZM18 17C17.4477 17 17 17.4477 17 18C17 18.5523 17.4477 19 18 19C18.5523 19 19 18.5523 19 18C19 17.4477 18.5523 17 18 17Z" fill="currentColor"/>
</svg>
