<svg width="24" height="24" viewBox="0 0 24 24" fill="none" xmlns="http://www.w3.org/2000/svg">
<path fill-rule="evenodd" clip-rule="evenodd" d="M17 5.94322C17 4.31648 15.1613 3.37023 13.8375 4.31576L8.67953 8.00003H5C3.89543 8.00003 3 8.89546 3 10V15C3 16.1046 3.89543 17 5 17H8.73444L14.0077 20.0133C15.341 20.7752 17 19.8125 17 18.2769V5.94322ZM9.84201 9.6275L15 5.94322V18.2769L9.72671 15.2635C9.42452 15.0909 9.08249 15 8.73444 15H5V10H8.67953C9.09638 10 9.50281 9.86979 9.84201 9.6275ZM20.7071 8.29293C20.3166 7.9024 19.6834 7.9024 19.2929 8.29293C18.9057 8.6801 18.9024 9.30577 19.2829 9.69704L19.2904 9.70541C19.3022 9.71894 19.3253 9.74633 19.3563 9.78753C19.4182 9.87007 19.5103 10.0068 19.6056 10.1972C19.7944 10.575 20 11.1728 20 12C20 12.8273 19.7944 13.4251 19.6056 13.8028C19.5103 13.9933 19.4182 14.13 19.3563 14.2125C19.3253 14.2537 19.3022 14.2811 19.2904 14.2947L19.2829 14.303C18.9024 14.6943 18.9057 15.32 19.2929 15.7071C19.6834 16.0977 20.3166 16.0977 20.7071 15.7071L20 15C20.7071 15.7071 20.7075 15.7068 20.7078 15.7064L20.7085 15.7057L20.7101 15.7042L20.7134 15.7008L20.7211 15.6929L20.7408 15.6723C20.7557 15.6564 20.7741 15.6362 20.7955 15.6117C20.8384 15.5627 20.8934 15.4963 20.9562 15.4125C21.0818 15.2451 21.2397 15.0068 21.3944 14.6972C21.7056 14.075 22 13.1728 22 12C22 10.8273 21.7056 9.92511 21.3944 9.30282C21.2397 8.99331 21.0818 8.755 20.9562 8.58753C20.8934 8.50373 20.8384 8.43738 20.7955 8.3884C20.7741 8.3639 20.7557 8.34371 20.7408 8.32781L20.7211 8.30717L20.7134 8.29925L20.7101 8.29589L20.7085 8.29436L20.7078 8.29363C20.7075 8.29328 20.7071 8.29293 20 9.00003L20.7071 8.29293Z" fill="currentColor"/>
</svg>
