<svg width="24" height="24" viewBox="0 0 24 24" fill="none" xmlns="http://www.w3.org/2000/svg">
<path fill-rule="evenodd" clip-rule="evenodd" d="M8 3C6.89543 3 6 3.89543 6 5V7H4C2.89543 7 2 7.89543 2 9V17C2 18.1046 2.89543 19 4 19H6C6 20.1046 6.89543 21 8 21H16C17.1046 21 18 20.1046 18 19H20C21.1046 19 22 18.1046 22 17V9C22 7.89543 21.1046 7 20 7H18V5C18 3.89543 17.1046 3 16 3H8ZM8 18V19H16V18V15H8V18ZM6 17H4V9H7C7.14652 9 7.28567 8.96849 7.41106 8.91188C7.59725 8.96916 7.79502 9 8 9H16C16.205 9 16.4028 8.96916 16.5889 8.91188C16.7143 8.96849 16.8535 9 17 9H20V17H18V15C18 13.8954 17.1046 13 16 13H8C6.89543 13 6 13.8954 6 15V17ZM8 5H16V7H8V5Z" fill="currentColor"/>
</svg>
