<svg width="24" height="24" viewBox="0 0 24 24" fill="none" xmlns="http://www.w3.org/2000/svg">
<path fill-rule="evenodd" clip-rule="evenodd" d="M4 4C2.89543 4 2 4.89543 2 6V14C2 15.1046 2.89543 16 4 16H20C21.1046 16 22 15.1046 22 14V6C22 4.89543 21.1046 4 20 4H4ZM4 6L20 6V14H4V6ZM19 20C19.5523 20 20 19.5523 20 19C20 18.4477 19.5523 18 19 18C18.4477 18 18 18.4477 18 19C18 19.5523 18.4477 20 19 20ZM16 19C16 19.5523 15.5523 20 15 20C14.4477 20 14 19.5523 14 19C14 18.4477 14.4477 18 15 18C15.5523 18 16 18.4477 16 19ZM5 18C4.44772 18 4 18.4477 4 19C4 19.5523 4.44772 20 5 20H11C11.5523 20 12 19.5523 12 19C12 18.4477 11.5523 18 11 18H5Z" fill="currentColor"/>
</svg>
