<svg width="24" height="24" viewBox="0 0 24 24" fill="none" xmlns="http://www.w3.org/2000/svg">
<path fill-rule="evenodd" clip-rule="evenodd" d="M13.7308 2.99378C12.9605 1.6632 11.0395 1.66321 10.2691 2.99378L1.00358 18.9979C0.231653 20.3313 1.19378 22 2.73444 22H21.2655C22.8062 22 23.7683 20.3312 22.9964 18.9979L13.7308 2.99378ZM12 3.99585L21.2655 20L2.73444 20L12 3.99585ZM13 9.99999C13 10.5523 12.5523 11 12 11C11.4477 11 11 10.5523 11 9.99999C11 9.4477 11.4477 8.99999 12 8.99999C12.5523 8.99999 13 9.4477 13 9.99999ZM12 12C12.5523 12 13 12.4477 13 13V17C13 17.5523 12.5523 18 12 18C11.4477 18 11 17.5523 11 17V13C11 12.4477 11.4477 12 12 12Z" fill="currentColor"/>
</svg>
