<svg width="24" height="24" viewBox="0 0 24 24" fill="none" xmlns="http://www.w3.org/2000/svg">
<path fill-rule="evenodd" clip-rule="evenodd" d="M13.7308 1.99378C12.9605 0.663201 11.0395 0.663213 10.2691 1.99378L1.00358 17.9979C0.231653 19.3313 1.19378 21 2.73444 21H21.2655C22.8062 21 23.7683 19.3312 22.9964 17.9979L13.7308 1.99378ZM12 2.99585L21.2655 19L2.73444 19L12 2.99585ZM12 7.99999C12.5523 7.99999 13 8.4477 13 8.99999V13C13 13.5523 12.5523 14 12 14C11.4477 14 11 13.5523 11 13V8.99999C11 8.4477 11.4477 7.99999 12 7.99999ZM13 16C13 16.5523 12.5523 17 12 17C11.4477 17 11 16.5523 11 16C11 15.4477 11.4477 15 12 15C12.5523 15 13 15.4477 13 16Z" fill="currentColor"/>
</svg>
