<svg width="24" height="24" viewBox="0 0 24 24" fill="none" xmlns="http://www.w3.org/2000/svg">
<path fill-rule="evenodd" clip-rule="evenodd" d="M7.80869 15.1525C7.00815 15.0867 6.43197 15.1901 6 15.4694V19.9996C6 20.5519 5.55228 20.9996 5 20.9996C4.44772 20.9996 4 20.5519 4 19.9996V14.9996V4.99964C4 4.7344 4.10537 4.48003 4.29294 4.29249C5.33714 3.24842 6.68817 3.05385 7.97258 3.15946C9.17377 3.25824 10.4908 3.63519 11.7183 3.9865L11.8997 4.03839C13.2293 4.41827 14.4745 4.76145 15.6207 4.84631C16.7473 4.92973 17.662 4.75323 18.4 4.19967C18.703 3.97239 19.1084 3.93581 19.4472 4.1052C19.786 4.27459 20 4.62086 20 4.99964V14.9996C20 15.3143 19.8518 15.6107 19.6 15.7996C18.338 16.7462 16.8777 16.9448 15.473 16.8408C14.088 16.7382 12.6456 16.3314 11.3503 15.9613L11.2665 15.9373L11.2665 15.9373C9.95484 15.5624 8.80811 15.2347 7.80869 15.1525Z" fill="#F14141"/>
</svg>
