<svg width="24" height="24" viewBox="0 0 24 24" fill="none" xmlns="http://www.w3.org/2000/svg">
<path fill-rule="evenodd" clip-rule="evenodd" d="M16.7809 7.62473C17.1259 7.19347 17.056 6.56418 16.6247 6.21917C16.1935 5.87416 15.5642 5.94408 15.2192 6.37534L8.00004 15.3993L4.78091 11.3753C4.4359 10.9441 3.8066 10.8742 3.37534 11.2192C2.94408 11.5642 2.87416 12.1935 3.21917 12.6247L6.4383 16.6486C7.23895 17.6495 8.76112 17.6495 9.56177 16.6486L16.7809 7.62473ZM21.7809 7.62473C22.1259 7.19347 22.056 6.56418 21.6247 6.21917C21.1935 5.87416 20.5642 5.94408 20.2192 6.37534L12.9171 15.5029L12.7071 15.2929C12.3166 14.9024 11.6835 14.9024 11.2929 15.2929C10.9024 15.6835 10.9024 16.3166 11.2929 16.7071L11.5029 16.9171C12.3458 17.76 13.7342 17.6831 14.4789 16.7523L21.7809 7.62473Z" fill="currentColor"/>
</svg>
