<svg width="24" height="24" viewBox="0 0 24 24" fill="none" xmlns="http://www.w3.org/2000/svg">
<path fill-rule="evenodd" clip-rule="evenodd" d="M13.8161 2.12493C12.7429 1.30862 11.2569 1.30862 10.1837 2.12493L9.82013 2.40146C9.61137 2.56025 9.34858 2.63066 9.0884 2.59753L8.63528 2.53982C7.2977 2.36948 6.0108 3.11247 5.48953 4.35602L5.31295 4.77729C5.21155 5.01918 5.01918 5.21155 4.77729 5.31295L4.35602 5.48953C3.11247 6.0108 2.36948 7.2977 2.53982 8.63528L2.59753 9.0884C2.63066 9.34858 2.56025 9.61137 2.40146 9.82013L2.12493 10.1837C1.30862 11.2569 1.30862 12.7429 2.12493 13.8161L2.40146 14.1796C2.56025 14.3884 2.63066 14.6512 2.59753 14.9114L2.53982 15.3645C2.36948 16.7021 3.11247 17.989 4.35602 18.5102L4.77728 18.6868C5.01918 18.7882 5.21155 18.9806 5.31295 19.2225L5.48953 19.6437C6.0108 20.8873 7.2977 21.6303 8.63528 21.4599L9.0884 21.4022C9.34858 21.3691 9.61137 21.4395 9.82013 21.5983L10.1837 21.8748C11.2569 22.6912 12.7429 22.6912 13.8161 21.8748L14.1796 21.5983C14.3884 21.4395 14.6512 21.3691 14.9114 21.4022L15.3645 21.4599C16.7021 21.6303 17.989 20.8873 18.5102 19.6437L18.6868 19.2225C18.7882 18.9806 18.9806 18.7882 19.2225 18.6868L19.6437 18.5102C20.8873 17.989 21.6303 16.7021 21.4599 15.3645L21.4022 14.9114C21.3691 14.6512 21.4395 14.3884 21.5983 14.1796L21.8748 13.8161C22.6912 12.7429 22.6912 11.2569 21.8748 10.1837L21.5983 9.82013C21.4395 9.61137 21.3691 9.34858 21.4022 9.0884L21.4599 8.63528C21.6303 7.2977 20.8873 6.0108 19.6437 5.48953L19.2225 5.31295C18.9806 5.21155 18.7882 5.01918 18.6868 4.77728L18.5102 4.35602C17.989 3.11247 16.7021 2.36948 15.3645 2.53982L14.9114 2.59753C14.6512 2.63066 14.3884 2.56025 14.1796 2.40146L13.8161 2.12493ZM11.3945 3.71677C11.7522 3.44467 12.2475 3.44467 12.6053 3.71677L12.9688 3.9933C13.5951 4.46967 14.3835 4.68091 15.164 4.58151L15.6171 4.5238C16.063 4.46702 16.492 4.71468 16.6657 5.1292L16.8423 5.55046C17.1465 6.27614 17.7236 6.85326 18.4493 7.15745L18.8706 7.33404C19.2851 7.50779 19.5328 7.93676 19.476 8.38262L19.4183 8.83573C19.3189 9.61629 19.5301 10.4047 20.0065 11.0309L20.283 11.3945C20.5551 11.7522 20.5551 12.2475 20.283 12.6053L20.0065 12.9688C19.5301 13.5951 19.3189 14.3835 19.4183 15.164L19.476 15.6171C19.5328 16.063 19.2851 16.492 18.8706 16.6657L18.4493 16.8423C17.7236 17.1465 17.1465 17.7236 16.8423 18.4493L16.6657 18.8706C16.492 19.2851 16.063 19.5328 15.6171 19.476L15.164 19.4183C14.3835 19.3189 13.5951 19.5301 12.9688 20.0065L12.6053 20.283C12.2475 20.5551 11.7522 20.5551 11.3945 20.283L11.0309 20.0065C10.4047 19.5301 9.61629 19.3189 8.83573 19.4183L8.38262 19.476C7.93676 19.5328 7.50779 19.2851 7.33404 18.8706L7.15745 18.4493C6.85326 17.7236 6.27614 17.1465 5.55046 16.8423L5.1292 16.6657C4.71468 16.492 4.46702 16.063 4.5238 15.6171L4.58151 15.164C4.68091 14.3835 4.46967 13.5951 3.9933 12.9688L3.71677 12.6053C3.44467 12.2475 3.44467 11.7522 3.71677 11.3945L3.9933 11.0309C4.46967 10.4047 4.68091 9.61629 4.58151 8.83574L4.5238 8.38262C4.46702 7.93676 4.71468 7.50779 5.1292 7.33404L5.55046 7.15745C6.27614 6.85326 6.85326 6.27614 7.15745 5.55046L7.33404 5.1292C7.50779 4.71468 7.93676 4.46702 8.38262 4.5238L8.83574 4.58151C9.61629 4.68091 10.4047 4.46967 11.0309 3.9933L11.3945 3.71677ZM11.9999 6.99988C12.5522 6.99988 12.9999 7.4476 12.9999 7.99988V12.9999C12.9999 13.5522 12.5522 13.9999 11.9999 13.9999C11.4476 13.9999 10.9999 13.5522 10.9999 12.9999V7.99988C10.9999 7.4476 11.4476 6.99988 11.9999 6.99988ZM12.9999 15.9999C12.9999 16.5522 12.5522 16.9999 11.9999 16.9999C11.4476 16.9999 10.9999 16.5522 10.9999 15.9999C10.9999 15.4476 11.4476 14.9999 11.9999 14.9999C12.5522 14.9999 12.9999 15.4476 12.9999 15.9999Z" fill="currentColor"/>
</svg>
