<svg width="24" height="24" viewBox="0 0 24 24" fill="none" xmlns="http://www.w3.org/2000/svg">
<path fill-rule="evenodd" clip-rule="evenodd" d="M11.5575 21.897C11.3504 21.9485 11.1272 21.9652 10.8919 21.9392C5.89004 21.3872 2 17.1486 2 12C2 6.85144 5.89004 2.61281 10.8919 2.06079C11.1272 2.03482 11.3504 2.05147 11.5575 2.103C11.6909 2.03706 11.8411 2 12 2H13C13.5523 2 14 2.44772 14 3C14 3.55228 13.5523 4 13 4V20C13.5523 20 14 20.4477 14 21C14 21.5523 13.5523 22 13 22H12C11.8411 22 11.6909 21.9629 11.5575 21.897ZM4 12C4 7.92063 7.05414 4.55325 11 4.06179V19.9382C7.05414 19.4467 4 16.0794 4 12ZM17.5563 3.68462C17.0973 3.3774 16.4762 3.50041 16.169 3.95937C15.8618 4.41832 15.9848 5.03942 16.4437 5.34663C17.3239 5.93576 18.0808 6.69503 18.6673 7.57706C18.9731 8.03696 19.5938 8.1619 20.0537 7.85612C20.5136 7.55033 20.6385 6.92961 20.3327 6.46971C19.6003 5.36812 18.6554 4.42037 17.5563 3.68462ZM21.7522 9.7787C21.63 9.24011 21.0943 8.90258 20.5557 9.02479C20.0171 9.14701 19.6795 9.6827 19.8018 10.2213C19.9314 10.7924 20 11.3876 20 12.0001C20 12.6125 19.9314 13.2077 19.8018 13.7789C19.6795 14.3175 20.0171 14.8531 20.5557 14.9754C21.0943 15.0976 21.63 14.76 21.7522 14.2214C21.9145 13.5061 22 12.7625 22 12.0001C22 11.2377 21.9145 10.4941 21.7522 9.7787ZM20.3155 17.5563C20.6227 17.0973 20.4997 16.4762 20.0408 16.169C19.5818 15.8618 18.9607 15.9848 18.6535 16.4437C18.069 17.317 17.317 18.069 16.4437 18.6535C15.9848 18.9607 15.8618 19.5818 16.169 20.0408C16.4762 20.4997 17.0973 20.6227 17.5563 20.3155C18.6468 19.5855 19.5855 18.6468 20.3155 17.5563Z" fill="currentColor"/>
</svg>
