<svg width="24" height="24" viewBox="0 0 24 24" fill="none" xmlns="http://www.w3.org/2000/svg">
<path fill-rule="evenodd" clip-rule="evenodd" d="M13 2C12.4477 2 12 2.44772 12 3C12 3.55228 12.4477 4 13 4H14V6H13.9311C12.8818 6 12.011 6.81089 11.9362 7.8575L11.7832 10H9C7.89543 10 7 10.8954 7 12V14H3V11C3 10.4477 2.55228 10 2 10C1.44772 10 1 10.4477 1 11V14C1 15.1046 1.89543 16 3 16H7V18C7 19.1046 7.89543 20 9 20H11.0739C11.0725 21.0949 11.9612 22 13.074 22H16.926C18.0388 22 18.9275 21.0949 18.9261 20H21C22.1046 20 23 19.1046 23 18V12C23 10.8954 22.1046 10 21 10H18.2168L18.0638 7.85751C17.989 6.8109 17.1182 6 16.0689 6H16V4H17C17.5523 4 18 3.55228 18 3C18 2.44772 17.5523 2 17 2H15H13ZM18.3597 12L18.7883 18H21V12H18.3597ZM9 12H11.6403L11.4975 14H9V12ZM9 18V16H11.3546L11.2117 18H9ZM15.001 8L15 8L14.999 8L13.9311 8L13.074 20H16.926L16.0689 8L15.001 8ZM11 5C11 5.55228 10.5523 6 10 6C9.44771 6 9 5.55228 9 5C9 4.44772 9.44771 4 10 4C10.5523 4 11 4.44772 11 5ZM6 10C6.55228 10 7 9.55228 7 9C7 8.44772 6.55228 8 6 8C5.44772 8 5 8.44772 5 9C5 9.55228 5.44772 10 6 10Z" fill="currentColor"/>
</svg>
