<svg width="24" height="24" viewBox="0 0 24 24" fill="none" xmlns="http://www.w3.org/2000/svg">
<path fill-rule="evenodd" clip-rule="evenodd" d="M8 2C7.44772 2 7 2.44772 7 3C7 3.55228 7.44772 4 8 4H13V10H9V9C9 8.44772 8.55228 8 8 8C7.44772 8 7 8.44772 7 9V10C5.89543 10 5 10.8954 5 12H4C3.44772 12 3 12.4477 3 13C3 13.5523 3.44772 14 4 14H5V16H3C1.89543 16 1 16.8954 1 18V20C1 21.1046 1.89543 22 3 22H7H17C18.1046 22 19 21.1046 19 20V18H21C22.1046 18 23 17.1046 23 16V14C23 12.8954 22.1046 12 21 12H19C19 10.8954 18.1046 10 17 10H15V4C15 2.89543 14.1046 2 13 2H8ZM7 12H8H14H17V13V16H7V13V12ZM21 16H19V14H21V16ZM7 18V20H17V18H7ZM5 20V18H3V20H5ZM18 6C18.5523 6 19 5.55228 19 5C19 4.44772 18.5523 4 18 4C17.4477 4 17 4.44772 17 5C17 5.55228 17.4477 6 18 6Z" fill="currentColor"/>
</svg>
