<svg width="24" height="24" viewBox="0 0 24 24" fill="none" xmlns="http://www.w3.org/2000/svg">
<path fill-rule="evenodd" clip-rule="evenodd" d="M12 4.33933C11.3662 4.94283 10.3824 5.98129 9.54729 7.29689C8.67013 8.67869 8 10.2981 8 11.9999C8 12.3162 8.0367 12.6239 8.10608 12.919C8.52207 10.8095 10.0569 9.29822 10.8276 8.6445C11.5086 8.06678 12.4914 8.06678 13.1724 8.6445C13.9431 9.29822 15.4779 10.8095 15.8939 12.919C15.9633 12.6239 16 12.3162 16 11.9999C16 10.2981 15.3299 8.67869 14.4527 7.29689C13.6176 5.98129 12.6338 4.94283 12 4.33933ZM18 11.9999C18 15.3136 15.3137 17.9999 12 17.9999C8.68629 17.9999 6 15.3136 6 11.9999C6 9.7812 6.86699 7.78739 7.85877 6.22502C8.854 4.65722 10.0184 3.4551 10.7176 2.79952C11.4434 2.11891 12.5566 2.11891 13.2824 2.79952C13.9816 3.4551 15.146 4.65722 16.1412 6.22502C17.133 7.78739 18 9.7812 18 11.9999ZM14 13.9999C14 15.1045 13.1046 15.9999 12 15.9999C10.8954 15.9999 10 15.1045 10 13.9999C10 12.355 11.1762 11.0037 12 10.2748C12.8238 11.0037 14 12.355 14 13.9999ZM6 19.9999C5.44772 19.9999 5 20.4477 5 20.9999C5 21.5522 5.44772 21.9999 6 21.9999H18C18.5523 21.9999 19 21.5522 19 20.9999C19 20.4477 18.5523 19.9999 18 19.9999H6Z" fill="currentColor"/>
</svg>
