<svg width="24" height="24" viewBox="0 0 24 24" fill="none" xmlns="http://www.w3.org/2000/svg">
<path fill-rule="evenodd" clip-rule="evenodd" d="M4.97841 3.87931C4.27077 4.3317 3.88425 5.40781 4.05681 7.01839C4.13061 7.70717 4.30267 8.41768 4.54563 9.09023C5.2456 7.29836 6.57302 5.82071 8.25777 4.92743L8.02104 4.83169C7.87239 4.77152 7.7258 4.71219 7.58246 4.65468C6.84095 4.35724 6.18664 4.10893 5.65597 3.9741C5.39196 3.90702 5.19897 3.87893 5.06762 3.87619C5.02378 3.87528 4.995 3.87737 4.97841 3.87931ZM2.06819 7.23145C2.2613 9.03381 2.9901 10.9556 4.01054 12.3517C4.06453 13.2521 4.32269 14.0988 4.71189 14.8739L2.29289 17.2929C1.90237 17.6834 1.90237 18.3166 2.29289 18.7071L5.29289 21.7071C5.68342 22.0976 6.31658 22.0976 6.70711 21.7071L9.20197 19.2122C9.30224 19.2629 9.4023 19.3114 9.50198 19.3575C10.3407 19.7455 11.2186 20 12 20C12.7814 20 13.6593 19.7455 14.498 19.3575C14.5977 19.3114 14.6978 19.2629 14.798 19.2122L17.2929 21.7071C17.6834 22.0976 18.3166 22.0976 18.7071 21.7071L21.7071 18.7071C22.0976 18.3166 22.0976 17.6834 21.7071 17.2929L19.2881 14.8739C19.6815 14.0904 19.9411 13.2337 19.9911 12.3223C21.717 9.75419 22.1445 7.47698 21.9304 5.69274C21.821 4.78103 21.545 4.01127 21.2033 3.41575C20.8789 2.85032 20.442 2.35231 19.9471 2.10494C19.5736 1.91829 19.1741 1.89403 18.8544 1.91141C18.5224 1.92946 18.1747 1.99885 17.8391 2.08711C17.1705 2.26297 16.407 2.55349 15.6768 2.83946C15.5526 2.88811 15.429 2.93674 15.3064 2.98503L15.3063 2.98504L15.3063 2.98505C14.6853 3.22951 14.0858 3.46551 13.5256 3.65343C12.8352 3.88504 12.3255 3.99993 12.0002 3.99987C11.6818 3.99981 11.1766 3.88159 10.4837 3.64038C9.95064 3.45483 9.38451 3.22577 8.79581 2.98758L8.7958 2.98757C8.64105 2.92496 8.48474 2.86171 8.32706 2.79846C7.59514 2.50486 6.82525 2.20764 6.14848 2.03569C5.80877 1.94937 5.45224 1.88376 5.10921 1.87663C4.77478 1.86967 4.36196 1.916 3.98537 2.14204C2.21599 3.20406 1.86867 5.3692 2.06819 7.23145ZM18.1551 16.5693C17.8038 16.9843 17.4227 17.3643 17.0308 17.7047C16.8668 17.8471 16.6994 17.9841 16.5295 18.1152L18 19.5858L19.5858 18L18.1551 16.5693ZM19.9447 5.93102C20.0434 6.75402 19.9606 7.82375 19.4581 9.0999C18.7644 7.31723 17.45 5.84471 15.7804 4.9478L16.0527 4.84067L16.0527 4.84066C16.1721 4.79366 16.2901 4.74719 16.4061 4.70174C17.1481 4.41116 17.8081 4.16331 18.3479 4.02133C18.6165 3.95067 18.8192 3.91628 18.963 3.90846C19.0166 3.90555 19.052 3.90692 19.0726 3.9086C19.0939 3.92503 19.1304 3.95595 19.1793 4.0081C19.264 4.09864 19.3658 4.2319 19.4686 4.41112C19.6738 4.76871 19.8666 5.28021 19.9447 5.93102ZM8.28078 16.1948C6.93552 15.0263 6 13.528 6 12C6 8.68629 8.68629 6 12 6C15.3137 6 18 8.68629 18 12C18 13.528 17.0645 15.0263 15.7192 16.1948C15.0593 16.768 14.3363 17.2286 13.6582 17.5423C12.9657 17.8628 12.3853 18 12 18C11.6147 18 11.0343 17.8628 10.3418 17.5423C9.66368 17.2286 8.94067 16.768 8.28078 16.1948ZM7.47055 18.1152C7.30059 17.9841 7.13316 17.8471 6.96922 17.7047C6.57732 17.3643 6.19622 16.9843 5.84491 16.5693L4.41421 18L6 19.5858L7.47055 18.1152ZM10 12C10.5523 12 11 11.5523 11 11C11 10.4477 10.5523 10 10 10C9.44772 10 9 10.4477 9 11C9 11.5523 9.44772 12 10 12ZM14 16C14.5523 16 15 15.5523 15 15C15 14.4477 14.5523 14 14 14C13.4477 14 13 14.4477 13 15C13 15.5523 13.4477 16 14 16ZM15 11C15 11.5523 14.5523 12 14 12C13.4477 12 13 11.5523 13 11C13 10.4477 13.4477 10 14 10C14.5523 10 15 10.4477 15 11ZM10 16C10.5523 16 11 15.5523 11 15C11 14.4477 10.5523 14 10 14C9.44772 14 9 14.4477 9 15C9 15.5523 9.44772 16 10 16Z" fill="currentColor"/>
</svg>
