<svg width="24" height="24" viewBox="0 0 24 24" fill="none" xmlns="http://www.w3.org/2000/svg">
<path fill-rule="evenodd" clip-rule="evenodd" d="M2 4C2 2.89543 2.89543 2 4 2H20C21.1046 2 22 2.89543 22 4V20C22 21.1046 21.1046 22 20 22H12H4C2.89543 22 2 21.1046 2 20V4ZM13 20V17.9322C14.3114 17.75 15.4598 17.2041 16.3321 16.3318C17.4199 15.2441 18 13.7271 18 12C18 11.4477 17.5523 11 17 11C15.3713 11 13.9296 11.5158 12.8583 12.4866C12.8496 12.472 12.8405 12.4576 12.831 12.4435C12.5861 11.3633 12.0787 10.4145 11.3321 9.66795C10.2443 8.58012 8.72725 8 7 8C6.44772 8 6 8.44772 6 9C6 10.7272 6.58011 12.2444 7.66786 13.3322C8.54015 14.2046 9.68853 14.7506 11 14.9326V17V20H4V4L20 4V20H13ZM16 8C16 8.55228 15.5523 9 15 9C14.4477 9 14 8.55228 14 8C14 7.44772 14.4477 7 15 7C15.5523 7 16 7.44772 16 8ZM13.1206 15.8792C13.8629 15.7096 14.4653 15.3702 14.9179 14.9176C15.3705 14.4651 15.7098 13.8628 15.8794 13.1206C15.1371 13.2901 14.5347 13.6295 14.0821 14.0821C13.6296 14.5347 13.2902 15.137 13.1206 15.8792ZM9.08214 11.9181C8.62953 11.4654 8.29012 10.863 8.12059 10.1206C8.86292 10.2901 9.4653 10.6295 9.91788 11.0821C10.3705 11.5348 10.7099 12.1372 10.8794 12.8797C10.1371 12.7102 9.53474 12.3707 9.08214 11.9181Z" fill="currentColor"/>
</svg>
