<svg width="24" height="24" viewBox="0 0 24 24" fill="none" xmlns="http://www.w3.org/2000/svg">
<path fill-rule="evenodd" clip-rule="evenodd" d="M8 3C7.44772 3 7 3.44772 7 4V5.43504C4.51406 7.04935 3 9.85159 3 13V20C3 20.5523 3.44772 21 4 21H7C7.55228 21 8 20.5523 8 20V18H9V20C9 20.5523 9.44772 21 10 21H14C14.5523 21 15 20.5523 15 20V18H16V20C16 20.5523 16.4477 21 17 21H20C20.5523 21 21 20.5523 21 20V13C21 9.85159 19.4859 7.04935 17 5.43504V4C17 3.44772 16.5523 3 16 3H8ZM18 17C18 16.4477 17.5523 16 17 16H14C13.4477 16 13 16.4477 13 17V19H11V17C11 16.4477 10.5523 16 10 16H7C6.44772 16 6 16.4477 6 17V19H5V13C5 11.0256 5.74523 9.26172 6.99775 8C6.9985 8 6.99925 8 7 8H17C17.0007 8 17.0015 7.99999 17.0022 7.99999C18.2548 9.26172 19 11.0256 19 13V19H18V17ZM15 6V5H9V6H15Z" fill="currentColor"/>
</svg>
