<svg width="24" height="24" viewBox="0 0 24 24" fill="none" xmlns="http://www.w3.org/2000/svg">
<path fill-rule="evenodd" clip-rule="evenodd" d="M13 3C13 2.44772 12.5523 2 12 2C11.4477 2 11 2.44772 11 3V6H9C6.23858 6 4 8.23858 4 11V16H3C2.44772 16 2 16.4477 2 17C2 17.5523 2.44772 18 3 18H5C5.14652 18 5.28567 17.9685 5.41106 17.9119C5.59725 17.9692 5.79502 18 6 18H7V21C7 21.5523 7.44772 22 8 22C8.55228 22 9 21.5523 9 21V18H15V21C15 21.5523 15.4477 22 16 22C16.5523 22 17 21.5523 17 21V18H18C18.205 18 18.4028 17.9692 18.5889 17.9119C18.7143 17.9685 18.8535 18 19 18H21C21.5523 18 22 17.5523 22 17C22 16.4477 21.5523 16 21 16H20V11C20 8.23858 17.7614 6 15 6H13V3ZM16 16H18V11C18 9.34315 16.6569 8 15 8H12H9C7.34315 8 6 9.34315 6 11V16H8H16ZM8 12C8 11.4477 8.44772 11 9 11H15C15.5523 11 16 11.4477 16 12C16 12.5523 15.5523 13 15 13H9C8.44772 13 8 12.5523 8 12Z" fill="currentColor"/>
</svg>
