<svg width="24" height="24" viewBox="0 0 24 24" fill="none" xmlns="http://www.w3.org/2000/svg">
<path fill-rule="evenodd" clip-rule="evenodd" d="M14 2C12.8954 2 12 2.89543 12 4V7H10V5C10 4.44772 9.55228 4 9 4C8.44772 4 8 4.44772 8 5L8 7H7C5.89543 7 5 7.89543 5 9L5 13C3.89543 13 3 13.8954 3 15L3 20C2.44772 20 2 20.4477 2 21C2 21.5523 2.44772 22 3 22H4H8H13L19.9857 22C19.9944 22.0001 20.0031 22.0001 20.0119 22H21C21.5523 22 22 21.5523 22 21C22 20.4477 21.5523 20 21 20H20.895L19.0927 3.77914C18.9802 2.76627 18.1241 2 17.105 2L14 2ZM18.8827 20L18.1044 12.9946C18.0701 12.9982 18.0352 13 18 13H14V14V20L18.8827 20ZM12 20V15L6 15H5V20H7V19C7 18.4477 7.44772 18 8 18C8.55228 18 9 18.4477 9 19V20H12ZM17.8827 11H14L14 9H17.6605L17.8827 11ZM12 9L12 12V13L7 13L7 9H9H12ZM17.4383 7L17.105 4L14 4V7H17.4383Z" fill="currentColor"/>
</svg>
