<svg width="24" height="24" viewBox="0 0 24 24" fill="none" xmlns="http://www.w3.org/2000/svg">
<path fill-rule="evenodd" clip-rule="evenodd" d="M11 5.07089C7.60771 5.55612 5 8.47353 5 12C5 15.866 8.13401 19 12 19C15.866 19 19 15.866 19 12C19 10.0881 18.2349 8.323 17 7.04284V8C17 8.55228 16.5523 9 16 9C15.4477 9 15 8.55228 15 8V5C15 4.44772 15.4477 4 16 4H19.5C20.0523 4 20.5 4.44772 20.5 5C20.5 5.55228 20.0523 6 19.5 6H18.7559C20.1546 7.60877 21 9.72477 21 12C21 16.9706 16.9706 21 12 21C7.02944 21 3 16.9706 3 12C3 7.02944 7.02944 3 12 3C12.5523 3 13 3.44772 13 4V9.17071C14.1652 9.58254 15 10.6938 15 12C15 13.6569 13.6569 15 12 15C10.3431 15 9 13.6569 9 12C9 10.6938 9.83481 9.58254 11 9.17071V5.07089ZM12 11C11.4477 11 11 11.4477 11 12C11 12.5523 11.4477 13 12 13C12.5523 13 13 12.5523 13 12C13 11.4477 12.5523 11 12 11Z" fill="currentColor"/>
</svg>
