<svg width="24" height="24" viewBox="0 0 24 24" fill="none" xmlns="http://www.w3.org/2000/svg">
<path d="M9.74293 13.7429L10.45 13.0358C10.1892 12.775 9.80591 12.6789 9.45287 12.7859L9.74293 13.7429ZM2.53026 5.53026L3.23736 4.82315C3.00521 4.59099 2.67388 4.48759 2.35089 4.54647C2.0279 4.60536 1.75439 4.81905 1.6191 5.1182L2.53026 5.53026ZM6.58579 9.58579L5.87868 10.2929L5.87868 10.2929L6.58579 9.58579ZM9.41421 9.58579L8.70711 8.87868L8.70711 8.87868L9.41421 9.58579ZM9.58579 9.41421L8.87868 8.70711L8.87868 8.70711L9.58579 9.41421ZM9.58579 6.58579L8.87868 7.29289L8.87868 7.29289L9.58579 6.58579ZM5.53026 2.53026L5.1182 1.6191C4.81905 1.75439 4.60536 2.0279 4.54647 2.35089C4.48759 2.67388 4.59099 3.00521 4.82315 3.23736L5.53026 2.53026ZM13.7429 9.74293L12.7859 9.45287C12.6789 9.80591 12.775 10.1892 13.0358 10.45L13.7429 9.74293ZM8 15C8.70552 15 9.38839 14.8953 10.033 14.6999L9.45287 12.7859C8.99431 12.9249 8.50683 13 8 13V15ZM1 8C1 11.866 4.13401 15 8 15V13C5.23858 13 3 10.7614 3 8H1ZM1.6191 5.1182C1.22107 5.99833 1 6.9747 1 8H3C3 7.26449 3.15818 6.56862 3.44141 5.94232L1.6191 5.1182ZM7.29289 8.87868L3.23736 4.82315L1.82315 6.23736L5.87868 10.2929L7.29289 8.87868ZM8.70711 8.87868C8.31658 9.2692 7.68342 9.2692 7.29289 8.87868L5.87868 10.2929C7.05025 11.4645 8.94975 11.4645 10.1213 10.2929L8.70711 8.87868ZM8.87868 8.70711L8.70711 8.87868L10.1213 10.2929L10.2929 10.1213L8.87868 8.70711ZM8.87868 7.29289C9.2692 7.68342 9.2692 8.31658 8.87868 8.70711L10.2929 10.1213C11.4645 8.94975 11.4645 7.05025 10.2929 5.87868L8.87868 7.29289ZM4.82315 3.23736L8.87868 7.29289L10.2929 5.87868L6.23736 1.82315L4.82315 3.23736ZM8 1C6.9747 1 5.99833 1.22107 5.1182 1.6191L5.94232 3.44141C6.56862 3.15818 7.26449 3 8 3V1ZM15 8C15 4.13401 11.866 1 8 1V3C10.7614 3 13 5.23858 13 8H15ZM14.6999 10.033C14.8953 9.38839 15 8.70552 15 8H13C13 8.50683 12.9249 8.99431 12.7859 9.45287L14.6999 10.033ZM13.0358 10.45L20.2929 17.7071L21.7071 16.2929L14.45 9.03582L13.0358 10.45ZM20.2929 17.7071C21.0069 18.4212 21.0069 19.5788 20.2929 20.2929L21.7071 21.7071C23.2022 20.212 23.2022 17.788 21.7071 16.2929L20.2929 17.7071ZM20.2929 20.2929C19.5788 21.0069 18.4212 21.0069 17.7071 20.2929L16.2929 21.7071C17.788 23.2022 20.212 23.2022 21.7071 21.7071L20.2929 20.2929ZM17.7071 20.2929L10.45 13.0358L9.03582 14.45L16.2929 21.7071L17.7071 20.2929Z" fill="currentColor"/>
</svg>
