<svg width="24" height="24" viewBox="0 0 24 24" fill="none" xmlns="http://www.w3.org/2000/svg">
<path fill-rule="evenodd" clip-rule="evenodd" d="M11.9997 4.99951C7.80626 4.99951 4.91492 6.94883 3.81448 7.83561C3.19288 8.33651 2.97544 9.16373 3.23861 9.89776C3.69761 11.178 4.40749 12.3218 5.32249 13.2633L3.79289 14.7929C3.40237 15.1835 3.40237 15.8166 3.79289 16.2071C4.18342 16.5977 4.81658 16.5977 5.2071 16.2071L6.87661 14.5376C8.06314 15.3039 9.45651 15.802 11.0012 15.9524C11.0004 15.9681 11.0001 15.9838 11.0001 15.9996V17.9996C11.0001 18.5519 11.4478 18.9996 12.0001 18.9996C12.5524 18.9996 13.0001 18.5519 13.0001 17.9996V15.9996C13.0001 15.9838 12.9997 15.968 12.999 15.9524C14.5435 15.8019 15.9368 15.3038 17.1234 14.5376L18.7929 16.2071C19.1834 16.5977 19.8166 16.5977 20.2071 16.2071C20.5976 15.8166 20.5976 15.1835 20.2071 14.7929L18.6775 13.2634C19.5925 12.3218 20.3023 11.1782 20.7611 9.89792C21.024 9.164 20.8066 8.33705 20.1852 7.83624C19.0849 6.94941 16.1935 4.99951 11.9997 4.99951ZM11.9998 14.0005C8.69298 14.0005 6.19199 12.0885 5.15783 9.32262C6.13212 8.55869 8.54731 6.99951 11.9997 6.99951C15.4523 6.99951 17.8676 8.55913 18.8417 9.32313C17.8083 12.0883 15.3069 14.0005 11.9998 14.0005Z" fill="currentColor"/>
</svg>
