<svg width="24" height="24" viewBox="0 0 24 24" fill="none" xmlns="http://www.w3.org/2000/svg">
<path fill-rule="evenodd" clip-rule="evenodd" d="M18.7929 5.20715C17.2505 3.66468 14.7496 3.66467 13.2072 5.20715L11.7071 6.70715C11.3166 7.09767 10.6835 7.09767 10.2929 6.70715C9.90241 6.31662 9.90241 5.68346 10.2929 5.29293L11.7929 3.79293C14.1165 1.46941 17.8836 1.46941 20.2071 3.79293C22.5307 6.11646 22.5307 9.88363 20.2071 12.2071L18.7071 13.7071C18.3166 14.0977 17.6835 14.0977 17.2929 13.7071C16.9024 13.3166 16.9024 12.6835 17.2929 12.2929L18.7929 10.7929C20.3354 9.25046 20.3354 6.74962 18.7929 5.20715ZM14.7071 9.29293C15.0977 9.68346 15.0977 10.3166 14.7071 10.7071L10.7071 14.7071C10.3166 15.0977 9.68346 15.0977 9.29293 14.7071C8.90241 14.3166 8.90241 13.6835 9.29293 13.2929L13.2929 9.29293C13.6835 8.90241 14.3166 8.90241 14.7071 9.29293ZM6.70715 11.7071C7.09767 11.3166 7.09767 10.6835 6.70715 10.2929C6.31662 9.90241 5.68346 9.90241 5.29293 10.2929L3.79293 11.7929C1.46941 14.1165 1.46941 17.8836 3.79293 20.2071C6.11646 22.5307 9.88363 22.5307 12.2071 20.2071L13.7071 18.7071C14.0977 18.3166 14.0977 17.6835 13.7071 17.2929C13.3166 16.9024 12.6835 16.9024 12.2929 17.2929L10.7929 18.7929C9.25046 20.3354 6.74962 20.3354 5.20715 18.7929C3.66468 17.2505 3.66467 14.7496 5.20715 13.2072L6.70715 11.7071Z" fill="currentColor"/>
</svg>
