<svg width="24" height="24" viewBox="0 0 24 24" fill="none" xmlns="http://www.w3.org/2000/svg">
<path fill-rule="evenodd" clip-rule="evenodd" d="M13.2072 5.20715C14.7496 3.66467 17.2505 3.66468 18.7929 5.20715C20.3354 6.74962 20.3354 9.25046 18.7929 10.7929L17.2929 12.2929C16.9024 12.6835 16.9024 13.3166 17.2929 13.7071C17.6835 14.0977 18.3166 14.0977 18.7071 13.7071L20.2071 12.2071C22.5307 9.88363 22.5307 6.11646 20.2071 3.79293C17.8836 1.46941 14.1165 1.46941 11.7929 3.79293L10.2929 5.29293C9.90241 5.68346 9.90241 6.31662 10.2929 6.70715C10.6835 7.09767 11.3166 7.09767 11.7071 6.70715L13.2072 5.20715ZM6.70715 11.7071C7.09767 11.3166 7.09767 10.6835 6.70715 10.2929C6.31662 9.90241 5.68346 9.90241 5.29293 10.2929L3.79293 11.7929C1.46941 14.1165 1.46941 17.8836 3.79293 20.2071C6.11646 22.5307 9.88363 22.5307 12.2071 20.2071L13.7071 18.7071C14.0977 18.3166 14.0977 17.6835 13.7071 17.2929C13.3166 16.9024 12.6835 16.9024 12.2929 17.2929L10.7929 18.7929C9.25046 20.3354 6.74962 20.3354 5.20715 18.7929C3.66468 17.2505 3.66467 14.7496 5.20715 13.2072L6.70715 11.7071ZM12 9.00004C12.5523 9.00004 13 9.44776 13 10V11H14C14.5523 11 15 11.4478 15 12C15 12.5523 14.5523 13 14 13H13V14C13 14.5523 12.5523 15 12 15C11.4478 15 11 14.5523 11 14V13H10C9.44776 13 9.00004 12.5523 9.00004 12C9.00004 11.4478 9.44776 11 10 11H11V10C11 9.44776 11.4478 9.00004 12 9.00004Z" fill="currentColor"/>
</svg>
