<svg width="24" height="24" viewBox="0 0 24 24" fill="none" xmlns="http://www.w3.org/2000/svg">
<path fill-rule="evenodd" clip-rule="evenodd" d="M13.586 5.00009C14.3671 4.21905 15.6334 4.21904 16.4144 5.00009L19.0002 7.58588C19.7813 8.36693 19.7813 9.63326 19.0002 10.4143L16.7073 12.7072L10.4554 18.9592C10.1342 19.2803 9.71339 19.4826 9.26202 19.5327L6.35301 19.8559C5.07918 19.9975 4.00284 18.9211 4.14438 17.6473L4.4676 14.7383C4.51776 14.2869 4.72003 13.8661 5.04116 13.5449L11.2931 7.29299L11.2932 7.29294L13.586 5.00009ZM17.586 9.00009L16.0002 10.5859L13.4144 8.00009L15.0002 6.41431L17.586 9.00009ZM14.586 12.0001L12.0002 9.41431L6.45537 14.9592L6.13215 17.8682L9.04116 17.5449L14.586 12.0001ZM20.0002 18.9195C20.0002 19.758 19.0303 20.2241 18.3755 19.7003L15.9763 17.781C15.4759 17.3806 15.4759 16.6195 15.9763 16.2192L18.3755 14.2998C19.0303 13.776 20.0002 14.2422 20.0002 15.0807V18.9195Z" fill="currentColor"/>
</svg>
