<svg width="24" height="24" viewBox="0 0 24 24" fill="none" xmlns="http://www.w3.org/2000/svg">
<path fill-rule="evenodd" clip-rule="evenodd" d="M16.414 5.00009C15.633 4.21904 14.3666 4.21905 13.5856 5.00009L11.9998 6.58588L10.7069 5.29299C10.3164 4.90246 9.68321 4.90246 9.29269 5.29299C8.90216 5.68351 8.90216 6.31668 9.29269 6.7072L10.5856 8.00009L5.50678 13.0789C5.22758 13.3581 5.03727 13.7137 4.95983 14.1009L4.31339 17.3331C4.0335 18.7325 5.26734 19.9664 6.66678 19.6865L9.89901 19.0401C10.2862 18.9626 10.6418 18.7723 10.921 18.4931L15.9998 13.4143L17.2927 14.7072C17.6832 15.0977 18.3164 15.0977 18.7069 14.7072C19.0974 14.3167 19.0974 13.6835 18.7069 13.293L17.414 12.0001L18.9998 10.4143C19.7808 9.63326 19.7808 8.36693 18.9998 7.58588L16.414 5.00009ZM15.9998 10.5859L17.5856 9.00009L14.9998 6.41431L13.414 8.00009L15.9998 10.5859ZM11.9998 9.41431L6.921 14.4931L6.27455 17.7253L9.50678 17.0789L14.5856 12.0001L11.9998 9.41431Z" fill="currentColor"/>
</svg>
