<svg width="24" height="24" viewBox="0 0 24 24" fill="none" xmlns="http://www.w3.org/2000/svg">
<path fill-rule="evenodd" clip-rule="evenodd" d="M4 2C2.89543 2 2 2.89543 2 4V10C2 11.1046 2.89543 12 4 12H10C11.1046 12 12 11.1046 12 10V4C12 2.89543 11.1046 2 10 2H4ZM4 4H10V10H4V4ZM14 12C12.8954 12 12 12.8954 12 14V20C12 21.1046 12.8954 22 14 22H20C21.1046 22 22 21.1046 22 20V14C22 12.8954 21.1046 12 20 12H14ZM14 14H20V20H14V14ZM15 10C15 10.5523 14.5523 11 14 11C13.4477 11 13 10.5523 13 10C13 9.44772 13.4477 9 14 9C14.5523 9 15 9.44772 15 10ZM10 15C10.5523 15 11 14.5523 11 14C11 13.4477 10.5523 13 10 13C9.44772 13 9 13.4477 9 14C9 14.5523 9.44772 15 10 15Z" fill="currentColor"/>
</svg>
