<svg width="24" height="24" viewBox="0 0 24 24" fill="none" xmlns="http://www.w3.org/2000/svg">
<path fill-rule="evenodd" clip-rule="evenodd" d="M13 2C13 1.44772 12.5523 1 12 1C11.4477 1 11 1.44772 11 2V2.27924L9.93146 2.63542C9.78575 2.26343 9.42364 2 9 2C8.44772 2 8 2.44772 8 3V4.72076V5V6C7.44772 6 7 6.44772 7 7C7 7.55228 7.44772 8 8 8H9H15H16C16.5523 8 17 7.55228 17 7C17 6.44772 16.5523 6 16 6V5V4.72076V3C16 2.44772 15.5523 2 15 2C14.5764 2 14.2142 2.26343 14.0685 2.63542L13 2.27924V2ZM10 5V6H14V5V4.72076L12.9315 4.36458C12.7858 4.73657 12.4236 5 12 5C11.5764 5 11.2142 4.73657 11.0685 4.36458L10 4.72076V5ZM10.1135 9.66675C9.92945 9.14604 9.35812 8.87311 8.83741 9.05716C8.31669 9.24121 8.04377 9.81253 8.22781 10.3332C8.77645 11.8855 10.2568 13 11.9999 13C13.7431 13 15.2234 11.8855 15.7721 10.3332C15.9561 9.81253 15.6832 9.24121 15.1625 9.05716C14.6418 8.87311 14.0704 9.14604 13.8864 9.66675C13.6114 10.4449 12.8692 11 11.9999 11C11.1307 11 10.3885 10.4449 10.1135 9.66675ZM7 22C7 19.2386 9.23858 17 12 17C14.7614 17 17 19.2386 17 22C17 22.5523 17.4477 23 18 23C18.5523 23 19 22.5523 19 22C19 18.134 15.866 15 12 15C8.13401 15 5 18.134 5 22C5 22.5523 5.44772 23 6 23C6.55228 23 7 22.5523 7 22Z" fill="currentColor"/>
</svg>
