<svg width="16" height="16" viewBox="0 0 16 16" fill="none" xmlns="http://www.w3.org/2000/svg">
<path fill-rule="evenodd" clip-rule="evenodd" d="M12.5 1L12.5 15C12.5 15.2761 12.2761 15.5 12 15.5C11.7239 15.5 11.5 15.2761 11.5 15V13.6428C10.6839 14.7676 9.43417 15.5 8 15.5C5.46098 15.5 3.5 13.2044 3.5 10.5C3.5 7.79557 5.46098 5.5 8 5.5C9.43417 5.5 10.6839 6.23242 11.5 7.35724V1C11.5 0.723858 11.7239 0.5 12 0.5C12.2761 0.5 12.5 0.723858 12.5 1ZM11.5 10.5C11.5 8.23387 9.87926 6.5 8 6.5C6.12074 6.5 4.5 8.23387 4.5 10.5C4.5 12.7661 6.12074 14.5 8 14.5C9.87926 14.5 11.5 12.7661 11.5 10.5Z" fill="#777B92"/>
</svg>
