<svg width="16" height="16" viewBox="0 0 16 16" fill="none" xmlns="http://www.w3.org/2000/svg">
<path fill-rule="evenodd" clip-rule="evenodd" d="M1 3.5C1.27614 3.5 1.5 3.72386 1.5 4V4.85418C2.23294 4.02375 3.30531 3.5 4.5 3.5C6.00601 3.5 7.31764 4.33229 8 5.562C8.68236 4.33229 9.99399 3.5 11.5 3.5C13.7091 3.5 15.5 5.29086 15.5 7.5V12C15.5 12.2761 15.2761 12.5 15 12.5C14.7239 12.5 14.5 12.2761 14.5 12V7.5C14.5 5.84315 13.1569 4.5 11.5 4.5C9.84315 4.5 8.5 5.84315 8.5 7.5V12C8.5 12.2761 8.27614 12.5 8 12.5C7.72386 12.5 7.5 12.2761 7.5 12V7.5C7.5 5.84315 6.15685 4.5 4.5 4.5C2.84315 4.5 1.5 5.84315 1.5 7.5V12C1.5 12.2761 1.27614 12.5 1 12.5C0.723858 12.5 0.5 12.2761 0.5 12V7.5C0.5 7.37508 0.505727 7.25149 0.516931 7.12949C0.505888 7.08819 0.5 7.04478 0.5 7V4C0.5 3.72386 0.723858 3.5 1 3.5Z" fill="#777B92"/>
</svg>
