<svg width="16" height="16" viewBox="0 0 16 16" fill="none" xmlns="http://www.w3.org/2000/svg">
<path fill-rule="evenodd" clip-rule="evenodd" d="M8 3.5C8.27614 3.5 8.5 3.72386 8.5 4V5.5H10C10.2761 5.5 10.5 5.72386 10.5 6C10.5 6.27614 10.2761 6.5 10 6.5H8C7.72386 6.5 7.5 6.27614 7.5 6V4C7.5 3.72386 7.72386 3.5 8 3.5Z" fill="#777B92"/>
<path fill-rule="evenodd" clip-rule="evenodd" d="M8 0.5C11.0376 0.5 13.5 2.96243 13.5 6C13.5 9.03757 11.0376 11.5 8 11.5C4.96243 11.5 2.5 9.03757 2.5 6C2.5 2.96243 4.96243 0.5 8 0.5ZM3.5 6C3.5 8.48528 5.51472 10.5 8 10.5C10.4853 10.5 12.5 8.48528 12.5 6C12.5 3.51472 10.4853 1.5 8 1.5C5.51472 1.5 3.5 3.51472 3.5 6Z" fill="#777B92"/>
<path fill-rule="evenodd" clip-rule="evenodd" d="M11.6464 12.6465C11.8416 12.4512 12.1582 12.4512 12.3535 12.6464L13.3535 13.646C13.4473 13.7397 13.5 13.8669 13.5 13.9995C13.5 14.1322 13.4473 14.2594 13.3536 14.3532L12.3536 15.3532C12.1583 15.5484 11.8417 15.5484 11.6464 15.3532C11.4512 15.1579 11.4512 14.8413 11.6464 14.646L11.7929 14.4996H3C2.72386 14.4996 2.5 14.2757 2.5 13.9996C2.5 13.7235 2.72386 13.4996 3 13.4996H11.7926L11.6465 13.3536C11.4512 13.1584 11.4512 12.8418 11.6464 12.6465Z" fill="#777B92"/>
</svg>
