<svg width="16" height="16" viewBox="0 0 16 16" fill="none" xmlns="http://www.w3.org/2000/svg">
<path fill-rule="evenodd" clip-rule="evenodd" d="M1 1.5C1.27614 1.5 1.5 1.72386 1.5 2V14C1.5 14.2761 1.27614 14.5 1 14.5C0.723858 14.5 0.5 14.2761 0.5 14V2C0.5 1.72386 0.723858 1.5 1 1.5Z" fill="#777B92"/>
<path fill-rule="evenodd" clip-rule="evenodd" d="M15 1.5C15.2761 1.5 15.5 1.72386 15.5 2V14C15.5 14.2761 15.2761 14.5 15 14.5C14.7239 14.5 14.5 14.2761 14.5 14V2C14.5 1.72386 14.7239 1.5 15 1.5Z" fill="#777B92"/>
<path fill-rule="evenodd" clip-rule="evenodd" d="M5.35355 6.35355L4.20711 7.5H11.7929L10.6464 6.35355C10.4512 6.15829 10.4512 5.84171 10.6464 5.64645C10.8417 5.45118 11.1583 5.45118 11.3536 5.64645L13.3536 7.64645C13.5488 7.84171 13.5488 8.15829 13.3536 8.35355L11.3536 10.3536C11.1583 10.5488 10.8417 10.5488 10.6464 10.3536C10.4512 10.1583 10.4512 9.84171 10.6464 9.64645L11.7929 8.5H4.20711L5.35355 9.64645C5.54882 9.84171 5.54882 10.1583 5.35355 10.3536C5.15829 10.5488 4.84171 10.5488 4.64645 10.3536L2.64645 8.35355C2.45118 8.15829 2.45118 7.84171 2.64645 7.64645L4.64645 5.64645C4.84171 5.45118 5.15829 5.45118 5.35355 5.64645C5.54882 5.84171 5.54882 6.15829 5.35355 6.35355Z" fill="#777B92"/>
<path fill-rule="evenodd" clip-rule="evenodd" d="M4 13.5C4 13.7761 3.77614 14 3.5 14C3.22386 14 3 13.7761 3 13.5C3 13.2239 3.22386 13 3.5 13C3.77614 13 4 13.2239 4 13.5Z" fill="#777B92"/>
<path fill-rule="evenodd" clip-rule="evenodd" d="M3.5 3C3.22386 3 3 2.77614 3 2.5C3 2.22386 3.22386 2 3.5 2C3.77614 2 4 2.22386 4 2.5C4 2.77614 3.77614 3 3.5 3Z" fill="#777B92"/>
<path fill-rule="evenodd" clip-rule="evenodd" d="M7 13.5C7 13.7761 6.77614 14 6.5 14C6.22386 14 6 13.7761 6 13.5C6 13.2239 6.22386 13 6.5 13C6.77614 13 7 13.2239 7 13.5Z" fill="#777B92"/>
<path fill-rule="evenodd" clip-rule="evenodd" d="M6.5 3C6.22386 3 6 2.77614 6 2.5C6 2.22386 6.22386 2 6.5 2C6.77614 2 7 2.22386 7 2.5C7 2.77614 6.77614 3 6.5 3Z" fill="#777B92"/>
<path fill-rule="evenodd" clip-rule="evenodd" d="M10 13.5C10 13.7761 9.77614 14 9.5 14C9.22386 14 9 13.7761 9 13.5C9 13.2239 9.22386 13 9.5 13C9.77614 13 10 13.2239 10 13.5Z" fill="#777B92"/>
<path fill-rule="evenodd" clip-rule="evenodd" d="M9.5 3C9.22386 3 9 2.77614 9 2.5C9 2.22386 9.22386 2 9.5 2C9.77614 2 10 2.22386 10 2.5C10 2.77614 9.77614 3 9.5 3Z" fill="#777B92"/>
<path fill-rule="evenodd" clip-rule="evenodd" d="M13 13.5C13 13.7761 12.7761 14 12.5 14C12.2239 14 12 13.7761 12 13.5C12 13.2239 12.2239 13 12.5 13C12.7761 13 13 13.2239 13 13.5Z" fill="#777B92"/>
<path fill-rule="evenodd" clip-rule="evenodd" d="M12.5 3C12.2239 3 12 2.77614 12 2.5C12 2.22386 12.2239 2 12.5 2C12.7761 2 13 2.22386 13 2.5C13 2.77614 12.7761 3 12.5 3Z" fill="#777B92"/>
</svg>
