<svg width="16" height="16" viewBox="0 0 16 16" fill="none" xmlns="http://www.w3.org/2000/svg">
<path fill-rule="evenodd" clip-rule="evenodd" d="M11 12C10.4477 12 10 11.5523 10 11C10 10.4477 10.4477 10 11 10C11.5523 10 12 10.4477 12 11C12 11.5523 11.5523 12 11 12Z" fill="#777B92"/>
<path fill-rule="evenodd" clip-rule="evenodd" d="M11.5 1V2.5H13C13.8284 2.5 14.5 3.17157 14.5 4V14C14.5 14.8284 13.8284 15.5 13 15.5H3C2.17157 15.5 1.5 14.8284 1.5 14V4C1.5 3.17157 2.17157 2.5 3 2.5H4.5V1C4.5 0.723858 4.72386 0.5 5 0.5C5.27614 0.5 5.5 0.723858 5.5 1V2.5H10.5V1C10.5 0.723858 10.7239 0.5 11 0.5C11.2761 0.5 11.5 0.723858 11.5 1ZM4.5 4V3.5H3C2.72386 3.5 2.5 3.72386 2.5 4V14C2.5 14.2761 2.72386 14.5 3 14.5H13C13.2761 14.5 13.5 14.2761 13.5 14V4C13.5 3.72386 13.2761 3.5 13 3.5H11.5V4C11.5 4.27614 11.2761 4.5 11 4.5C10.7239 4.5 10.5 4.27614 10.5 4V3.5H5.5V4C5.5 4.27614 5.27614 4.5 5 4.5C4.72386 4.5 4.5 4.27614 4.5 4Z" fill="#777B92"/>
</svg>
