<svg width="16" height="16" viewBox="0 0 16 16" fill="none" xmlns="http://www.w3.org/2000/svg">
<path fill-rule="evenodd" clip-rule="evenodd" d="M3.35355 3.64645L7.35355 7.64645C7.54882 7.84171 7.54882 8.15829 7.35355 8.35355L3.35355 12.3536C3.15829 12.5488 2.84171 12.5488 2.64645 12.3536C2.45119 12.1583 2.45119 11.8417 2.64645 11.6464L6.29289 8L2.64645 4.35355C2.45118 4.15829 2.45118 3.84171 2.64645 3.64645C2.84171 3.45118 3.15829 3.45118 3.35355 3.64645Z" fill="#777B92"/>
<path fill-rule="evenodd" clip-rule="evenodd" d="M9.35355 3.64645L13.3536 7.64645C13.5488 7.84171 13.5488 8.15829 13.3536 8.35355L9.35355 12.3536C9.15829 12.5488 8.84171 12.5488 8.64645 12.3536C8.45119 12.1583 8.45119 11.8417 8.64645 11.6464L12.2929 8L8.64645 4.35355C8.45118 4.15829 8.45118 3.84171 8.64645 3.64645C8.84171 3.45118 9.15829 3.45118 9.35355 3.64645Z" fill="#777B92"/>
</svg>
