<svg width="16" height="16" viewBox="0 0 16 16" fill="none" xmlns="http://www.w3.org/2000/svg">
<path d="M8.5 7.79289L11.6909 10.9838C11.6787 10.816 11.6441 10.6431 11.5864 10.4724C11.4289 10.0056 11.1247 9.62731 10.7611 9.44882C10.5133 9.32714 10.411 9.02754 10.5326 8.77965C10.6543 8.53177 10.9539 8.42947 11.2018 8.55116C11.8568 8.87267 12.3118 9.49437 12.5339 10.1526C12.7174 10.6964 12.7589 11.3153 12.5853 11.8782L15.3536 14.6464C15.5488 14.8417 15.5488 15.1583 15.3536 15.3536C15.1583 15.5488 14.8417 15.5488 14.6464 15.3536L11.6544 12.3615C11.6489 12.3563 11.6436 12.351 11.6384 12.3455L8.5 9.20711V13.4744C9.37129 13.3844 10.1274 13.0633 10.6603 12.6168C10.872 12.4394 11.1874 12.4672 11.3647 12.6789C11.5421 12.8905 11.5143 13.2059 11.3026 13.3832C10.5793 13.9894 9.59196 14.3854 8.5 14.4788V15C8.5 15.2761 8.27614 15.5 8 15.5C7.72386 15.5 7.5 15.2761 7.5 15V14.4788C6.49253 14.3927 5.57515 14.049 4.87157 13.5213C4.053 12.9074 3.5 12.0211 3.5 11C3.5 10.7238 3.72386 10.5 4 10.5C4.27614 10.5 4.5 10.7238 4.5 11C4.5 11.6358 4.84243 12.2495 5.47157 12.7213C5.99451 13.1135 6.69904 13.3916 7.5 13.4744V8.20711L4.30959 5.0167C4.32178 5.18438 4.35645 5.35701 4.41402 5.52763C4.57153 5.99438 4.87573 6.37268 5.23931 6.55117C5.4872 6.67285 5.5895 6.97245 5.46781 7.22034C5.34612 7.46822 5.04653 7.57052 4.79864 7.44883C4.1437 7.12732 3.68864 6.50562 3.46652 5.84737C3.28305 5.30369 3.2416 4.68495 3.41501 4.12212L0.646447 1.35355C0.451184 1.15829 0.451184 0.841709 0.646447 0.646447C0.841709 0.451184 1.15829 0.451184 1.35355 0.646447L4.33879 3.63169C4.34929 3.64132 4.35932 3.65136 4.36887 3.66176L7.5 6.79289V2.52564C6.6289 2.61575 5.87294 2.93674 5.34012 3.38324C5.12846 3.5606 4.8131 3.53279 4.63574 3.32114C4.45838 3.10948 4.48618 2.79412 4.69784 2.61676C5.4211 2.0107 6.40822 1.61466 7.5 1.52128V1C7.5 0.723858 7.72386 0.5 8 0.5C8.27614 0.5 8.5 0.723858 8.5 1V1.52119C9.50765 1.6072 10.4252 1.95092 11.1289 2.47868C11.9475 3.09261 12.5005 3.97891 12.5005 5C12.5005 5.27614 12.2766 5.5 12.0005 5.5C11.7243 5.5 11.5005 5.27614 11.5005 5C11.5005 4.36424 11.158 3.75054 10.5289 3.27868C10.0058 2.88641 9.30115 2.6083 8.5 2.52556V7.79289Z" fill="#777B92"/>
</svg>
