<svg width="16" height="16" viewBox="0 0 16 16" fill="none" xmlns="http://www.w3.org/2000/svg">
<path fill-rule="evenodd" clip-rule="evenodd" d="M0.842022 0.525672C1.10399 0.438348 1.38715 0.579928 1.47448 0.8419L3.47448 6.8419C3.5618 7.10387 3.42022 7.38703 3.15825 7.47436C2.89628 7.56168 2.61312 7.4201 2.52579 7.15813L0.525794 1.15813C0.43847 0.896156 0.58005 0.612996 0.842022 0.525672Z" fill="#777B92"/>
<path fill-rule="evenodd" clip-rule="evenodd" d="M6 7.5C5.78479 7.5 5.59372 7.36229 5.52566 7.15811L3.52566 1.15811C3.47484 1.00564 3.50041 0.838029 3.59438 0.707645C3.68836 0.577261 3.83928 0.5 4 0.5H6.9892C6.99655 0.499837 7.00389 0.499838 7.01121 0.5H12C13.933 0.5 15.5 2.067 15.5 4C15.5 5.79913 14.1425 7.28121 12.3959 7.47785L10.4851 15.1213C10.4294 15.3438 10.2294 15.5 10 15.5H7C6.84604 15.5 6.70066 15.4291 6.6059 15.3077C6.51115 15.1863 6.47759 15.0281 6.51493 14.8787L8.35962 7.5H6ZM9.39039 7.5L8.39039 11.5H10.3596L11.3596 7.5H9.39039ZM6.63975 1.5H4.69372L6.36038 6.5H8.30642L6.63975 1.5ZM9.36051 6.5L12.0098 6.49998C13.386 6.49472 14.5 5.37746 14.5 4C14.5 2.61929 13.3807 1.5 12 1.5H7.69384L9.36051 6.5ZM10.1096 12.5H8.14039L7.64039 14.5H9.60962L10.1096 12.5Z" fill="#777B92"/>
</svg>
