<svg width="16" height="16" viewBox="0 0 16 16" fill="none" xmlns="http://www.w3.org/2000/svg">
<path fill-rule="evenodd" clip-rule="evenodd" d="M0.646447 0.646447C0.841709 0.451184 1.15829 0.451184 1.35355 0.646447L15.3536 14.6464C15.5488 14.8417 15.5488 15.1583 15.3536 15.3536C15.1583 15.5488 14.8417 15.5488 14.6464 15.3536L0.646447 1.35355C0.451184 1.15829 0.451184 0.841709 0.646447 0.646447Z" fill="#777B92"/>
<path fill-rule="evenodd" clip-rule="evenodd" d="M5.5 3C5.5 2.72386 5.72386 2.5 6 2.5H14C14.8284 2.5 15.5 3.17157 15.5 4V12C15.5 12.2761 15.2761 12.5 15 12.5C14.7239 12.5 14.5 12.2761 14.5 12V6.5L9 6.5C8.72386 6.5 8.5 6.27614 8.5 6C8.5 5.72386 8.72386 5.5 9 5.5L14.5 5.5V4C14.5 3.72386 14.2761 3.5 14 3.5H6C5.72386 3.5 5.5 3.27614 5.5 3Z" fill="#777B92"/>
<path fill-rule="evenodd" clip-rule="evenodd" d="M1 3.5C1.27614 3.5 1.5 3.72386 1.5 4V5.5H3C3.27614 5.5 3.5 5.72386 3.5 6C3.5 6.27614 3.27614 6.5 3 6.5H1.5V12C1.5 12.2761 1.72386 12.5 2 12.5H10C10.2761 12.5 10.5 12.7239 10.5 13C10.5 13.2761 10.2761 13.5 10 13.5H2C1.17157 13.5 0.5 12.8284 0.5 12V4C0.5 3.72386 0.723858 3.5 1 3.5Z" fill="#777B92"/>
<path fill-rule="evenodd" clip-rule="evenodd" d="M4 9.5H7C7.27614 9.5 7.5 9.72386 7.5 10C7.5 10.2761 7.27614 10.5 7 10.5H4C3.72386 10.5 3.5 10.2761 3.5 10C3.5 9.72386 3.72386 9.5 4 9.5Z" fill="#777B92"/>
</svg>
