<svg width="16" height="16" viewBox="0 0 16 16" fill="none" xmlns="http://www.w3.org/2000/svg">
<g clip-path="url(#clip0_13649_20323)">
<path fill-rule="evenodd" clip-rule="evenodd" d="M2.5 1V2.66363C3.92592 1.31856 5.95819 0.5 8 0.5C12.1421 0.5 15.5 3.85786 15.5 8C15.5 12.1421 12.1421 15.5 8 15.5C3.85786 15.5 0.5 12.1421 0.5 8C0.5 7.72386 0.723858 7.5 1 7.5C1.27614 7.5 1.5 7.72386 1.5 8C1.5 11.5899 4.41015 14.5 8 14.5C11.5899 14.5 14.5 11.5898 14.5 8C14.5 4.41015 11.5899 1.5 8 1.5C6.14347 1.5 4.30795 2.27541 3.07379 3.5H5C5.27614 3.5 5.5 3.72386 5.5 4C5.5 4.27614 5.27614 4.5 5 4.5L2 4.5C1.72386 4.5 1.5 4.27614 1.5 4L1.5 1C1.5 0.723858 1.72386 0.5 2 0.5C2.27614 0.5 2.5 0.723858 2.5 1Z" fill="#777B92"/>
<path fill-rule="evenodd" clip-rule="evenodd" d="M8 6C7.44772 6 7 5.55228 7 5C7 4.44772 7.44772 4 8 4C8.55228 4 9 4.44771 9 5C9 5.55228 8.55228 6 8 6Z" fill="#777B92"/>
<path fill-rule="evenodd" clip-rule="evenodd" d="M9 8C9 8.55228 8.55229 9 8 9C7.44772 9 7 8.55228 7 8C7 7.44772 7.44772 7 8 7C8.55228 7 9 7.44771 9 8Z" fill="#777B92"/>
<path fill-rule="evenodd" clip-rule="evenodd" d="M11 9C10.4477 9 10 8.55229 10 8C10 7.44772 10.4477 7 11 7C11.5523 7 12 7.44772 12 8C12 8.55229 11.5523 9 11 9Z" fill="#777B92"/>
<path fill-rule="evenodd" clip-rule="evenodd" d="M6 8C6 8.55228 5.55228 9 5 9C4.44772 9 4 8.55228 4 8C4 7.44772 4.44771 7 5 7C5.55228 7 6 7.44772 6 8Z" fill="#777B92"/>
<path fill-rule="evenodd" clip-rule="evenodd" d="M8 12C7.44772 12 7 11.5523 7 11C7 10.4477 7.44772 10 8 10C8.55229 10 9 10.4477 9 11C9 11.5523 8.55228 12 8 12Z" fill="#777B92"/>
</g>
<defs>
<clipPath id="clip0_13649_20323">
<rect width="16" height="16" fill="white"/>
</clipPath>
</defs>
</svg>
