<svg width="16" height="16" viewBox="0 0 16 16" fill="none" xmlns="http://www.w3.org/2000/svg">
<path fill-rule="evenodd" clip-rule="evenodd" d="M5.19631 0.540012L10 2.46149L14.8143 0.535764C14.9684 0.474146 15.1429 0.492954 15.2803 0.585969C15.4177 0.678984 15.5 0.83409 15.5 1V12C15.5 12.1756 15.4079 12.3384 15.2572 12.4287L10.2642 15.4246C10.1938 15.4685 10.1116 15.4954 10.0235 15.4995C10.0157 15.4998 10.0078 15.5 10 15.5L9.98331 15.4997C9.89261 15.4967 9.80803 15.4696 9.73578 15.4246L5.03104 12.6017L1.3 15.4C1.14849 15.5136 0.945785 15.5319 0.776393 15.4472C0.607001 15.3625 0.5 15.1894 0.5 15V3C0.5 2.81062 0.607001 2.63748 0.776393 2.55279L4.76731 0.55733C4.83681 0.520721 4.91599 0.5 5 0.5C5.06969 0.5 5.13604 0.514256 5.19631 0.540012ZM4.5 1.80902L1.5 3.30902V14L4.5 11.75V1.80902ZM5.5 11.7169L9.5 14.1169V3.33852L5.5 1.73852V11.7169ZM14.5 11.7169V1.73852L10.5 3.33852V14.1169L14.5 11.7169Z" fill="#777B92"/>
</svg>
