<svg width="16" height="16" viewBox="0 0 16 16" fill="none" xmlns="http://www.w3.org/2000/svg">
<path fill-rule="evenodd" clip-rule="evenodd" d="M5.64645 9.35355C5.45118 9.15829 5.45118 8.84171 5.64645 8.64645L9.29289 5L5.64645 1.35355C5.45118 1.15829 5.45118 0.841709 5.64645 0.646446C5.84171 0.451185 6.15829 0.451185 6.35355 0.646446L10.3536 4.64645C10.5488 4.84171 10.5488 5.15829 10.3536 5.35355L6.35355 9.35355C6.15829 9.54882 5.84171 9.54882 5.64645 9.35355Z" fill="#777B92"/>
<path fill-rule="evenodd" clip-rule="evenodd" d="M3.5 12C3.5 11.7239 3.72386 11.5 4 11.5H12C12.2761 11.5 12.5 11.7239 12.5 12C12.5 12.2761 12.2761 12.5 12 12.5H4C3.72386 12.5 3.5 12.2761 3.5 12Z" fill="#777B92"/>
<path fill-rule="evenodd" clip-rule="evenodd" d="M4 14.5H12C12.2761 14.5 12.5 14.7239 12.5 15C12.5 15.2761 12.2761 15.5 12 15.5H4C3.72386 15.5 3.5 15.2761 3.5 15C3.5 14.7239 3.72386 14.5 4 14.5Z" fill="#777B92"/>
</svg>
