<svg width="16" height="16" viewBox="0 0 16 16" fill="none" xmlns="http://www.w3.org/2000/svg">
<path fill-rule="evenodd" clip-rule="evenodd" d="M1 0.5H7C7.27614 0.5 7.5 0.723858 7.5 1V7C7.5 7.27614 7.27614 7.5 7 7.5H1C0.723858 7.5 0.5 7.27614 0.5 7V1C0.5 0.723858 0.723858 0.5 1 0.5ZM1.5 6.5H6.5V1.5H1.5V6.5Z" fill="#777B92"/>
<path fill-rule="evenodd" clip-rule="evenodd" d="M12.4472 0.776393L15.4472 6.77639C15.5247 6.93139 15.5164 7.11546 15.4253 7.26287C15.3342 7.41027 15.1733 7.5 15 7.5H9C8.82671 7.5 8.66578 7.41027 8.57468 7.26287C8.48357 7.11546 8.47529 6.93139 8.55279 6.77639L11.5528 0.776393C11.6375 0.607001 11.8106 0.5 12 0.5C12.1894 0.5 12.3625 0.607001 12.4472 0.776393ZM12 2.11803L9.80902 6.5H14.191L12 2.11803Z" fill="#777B92"/>
<path fill-rule="evenodd" clip-rule="evenodd" d="M1.52566 8.84189C1.59372 8.63772 1.78478 8.5 2 8.5H6C6.21522 8.5 6.40628 8.63772 6.47434 8.84189L7.47434 11.8419C7.50855 11.9445 7.50855 12.0555 7.47434 12.1581L6.47434 15.1581C6.40628 15.3623 6.21522 15.5 6 15.5H2C1.78478 15.5 1.59372 15.3623 1.52566 15.1581L0.525658 12.1581C0.491447 12.0555 0.491447 11.9445 0.525658 11.8419L1.52566 8.84189ZM2.36038 9.5L1.52705 12L2.36038 14.5H5.63962L6.47295 12L5.63962 9.5H2.36038Z" fill="#777B92"/>
<path fill-rule="evenodd" clip-rule="evenodd" d="M12 8.5C13.933 8.5 15.5 10.067 15.5 12C15.5 13.933 13.933 15.5 12 15.5C10.067 15.5 8.5 13.933 8.5 12C8.5 10.067 10.067 8.5 12 8.5ZM9.5 12C9.5 13.3807 10.6193 14.5 12 14.5C13.3807 14.5 14.5 13.3807 14.5 12C14.5 10.6193 13.3807 9.5 12 9.5C10.6193 9.5 9.5 10.6193 9.5 12Z" fill="#777B92"/>
</svg>
