<svg width="16" height="16" viewBox="0 0 16 16" fill="none" xmlns="http://www.w3.org/2000/svg">
<path fill-rule="evenodd" clip-rule="evenodd" d="M0.5 2C0.5 1.17157 1.17157 0.5 2 0.5H14C14.8284 0.5 15.5 1.17157 15.5 2V14C15.5 14.8284 14.8284 15.5 14 15.5H2C1.17157 15.5 0.5 14.8284 0.5 14V2ZM14 14.5C14.2761 14.5 14.5 14.2761 14.5 14V8.41465C14.3436 8.46992 14.1753 8.5 14 8.5H9C8.76882 8.5 8.54986 8.4477 8.35429 8.35429C8.4477 8.54986 8.5 8.76882 8.5 9V14C8.5 14.1753 8.46992 14.3436 8.41465 14.5H14ZM7.5 7V2C7.5 1.82468 7.53008 1.65639 7.58535 1.5H2C1.72386 1.5 1.5 1.72386 1.5 2V7.58535C1.65639 7.53008 1.82468 7.5 2 7.5H7C7.23118 7.5 7.45014 7.5523 7.64571 7.64571C7.5523 7.45014 7.5 7.23118 7.5 7Z" fill="#777B92"/>
</svg>
