<svg width="16" height="16" viewBox="0 0 16 16" fill="none" xmlns="http://www.w3.org/2000/svg">
<path fill-rule="evenodd" clip-rule="evenodd" d="M0.5 1C0.5 0.723858 0.723858 0.5 1 0.5H7C7.27614 0.5 7.5 0.723858 7.5 1V7C7.5 7.27614 7.27614 7.5 7 7.5H1C0.723858 7.5 0.5 7.27614 0.5 7V1ZM1.5 1.5V6.5H6.5V1.5H1.5Z" fill="#777B92"/>
<path fill-rule="evenodd" clip-rule="evenodd" d="M9.52566 4.84189C9.59372 4.63771 9.78478 4.5 10 4.5H14C14.2152 4.5 14.4063 4.63771 14.4743 4.84189L15.4743 7.84189C15.5086 7.94452 15.5086 8.05548 15.4743 8.15811L14.4743 11.1581C14.4063 11.3623 14.2152 11.5 14 11.5H10C9.78478 11.5 9.59372 11.3623 9.52566 11.1581L8.52566 8.15811C8.49145 8.05548 8.49145 7.94452 8.52566 7.84189L9.52566 4.84189ZM10.3604 5.5L9.52705 8L10.3604 10.5H13.6396L14.473 8L13.6396 5.5H10.3604Z" fill="#777B92"/>
<path fill-rule="evenodd" clip-rule="evenodd" d="M4 8.5C5.933 8.5 7.5 10.067 7.5 12C7.5 13.933 5.933 15.5 4 15.5C2.067 15.5 0.5 13.933 0.5 12C0.5 10.067 2.067 8.5 4 8.5ZM1.5 12C1.5 13.3807 2.61929 14.5 4 14.5C5.38071 14.5 6.5 13.3807 6.5 12C6.5 10.6193 5.38071 9.5 4 9.5C2.61929 9.5 1.5 10.6193 1.5 12Z" fill="#777B92"/>
</svg>
