<svg width="16" height="16" viewBox="0 0 16 16" fill="none" xmlns="http://www.w3.org/2000/svg">
<path fill-rule="evenodd" clip-rule="evenodd" d="M8.00013 0.5C8.27627 0.5 8.50013 0.723858 8.50013 1V8.24173L14.8032 5.54043C15.057 5.43165 15.3509 5.54923 15.4597 5.80304C15.5685 6.05686 15.4509 6.35079 15.1971 6.45957L8.81373 9.1953L13.3842 14.6799C13.561 14.892 13.5324 15.2073 13.3202 15.3841C13.1081 15.5609 12.7928 15.5322 12.616 15.3201L8.00013 9.78102L3.38424 15.3201C3.20746 15.5322 2.89217 15.5609 2.68004 15.3841C2.4679 15.2073 2.43924 14.892 2.61602 14.6799L7.18653 9.1953L0.803169 6.45957C0.549354 6.35079 0.431778 6.05686 0.540556 5.80304C0.649334 5.54923 0.943273 5.43165 1.19709 5.54043L7.50013 8.24173V1C7.50013 0.723858 7.72399 0.5 8.00013 0.5Z" fill="#777B92"/>
</svg>
