<svg width="16" height="16" viewBox="0 0 16 16" fill="none" xmlns="http://www.w3.org/2000/svg">
<path fill-rule="evenodd" clip-rule="evenodd" d="M2 0.5H11C11.2761 0.5 11.5 0.723858 11.5 1C11.5 1.27614 11.2761 1.5 11 1.5H2C1.72386 1.5 1.5 1.72386 1.5 2V11C1.5 11.2761 1.27614 11.5 1 11.5C0.723858 11.5 0.5 11.2761 0.5 11V2C0.5 1.17157 1.17157 0.5 2 0.5Z" fill="#777B92"/>
<path fill-rule="evenodd" clip-rule="evenodd" d="M2.5 4C2.5 3.17157 3.17157 2.5 4 2.5H13C13.2761 2.5 13.5 2.72386 13.5 3C13.5 3.27614 13.2761 3.5 13 3.5H4C3.72386 3.5 3.5 3.72386 3.5 4V13C3.5 13.2761 3.27614 13.5 3 13.5C2.72386 13.5 2.5 13.2761 2.5 13V4Z" fill="#777B92"/>
<path fill-rule="evenodd" clip-rule="evenodd" d="M4.5 6C4.5 5.17157 5.17157 4.5 6 4.5H14C14.8284 4.5 15.5 5.17157 15.5 6V14C15.5 14.8284 14.8284 15.5 14 15.5H6C5.17157 15.5 4.5 14.8284 4.5 14V6ZM6 5.5C5.72386 5.5 5.5 5.72386 5.5 6V14C5.5 14.2761 5.72386 14.5 6 14.5H14C14.2761 14.5 14.5 14.2761 14.5 14V6C14.5 5.72386 14.2761 5.5 14 5.5H6Z" fill="#777B92"/>
</svg>
