<svg width="24" height="24" viewBox="0 0 24 24" fill="none" xmlns="http://www.w3.org/2000/svg">
<path fill-rule="evenodd" clip-rule="evenodd" d="M7.09436 5.68014C8.44904 4.62708 10.1513 4 12 4C16.4183 4 20 7.58172 20 12C20 13.8487 19.3729 15.551 18.3199 16.9056L7.09436 5.68014ZM5.68014 7.09436C4.62708 8.44904 4 10.1513 4 12C4 16.4183 7.58172 20 12 20C13.8487 20 15.551 19.3729 16.9056 18.3199L5.68014 7.09436ZM12 2C6.47715 2 2 6.47715 2 12C2 17.5228 6.47715 22 12 22C17.5228 22 22 17.5228 22 12C22 6.47715 17.5228 2 12 2Z" fill="#777B92"/>
</svg>
