<svg width="24" height="24" viewBox="0 0 24 24" fill="none" xmlns="http://www.w3.org/2000/svg">
<path fill-rule="evenodd" clip-rule="evenodd" d="M8.99985 4.58579C9.37492 4.21071 9.88363 4 10.4141 4H19.9998C21.1044 4 21.9998 4.89543 21.9998 6V18C21.9998 19.1046 21.1044 20 19.9998 20H10.4141C9.88363 20 9.37492 19.7893 8.99985 19.4142L2.99985 13.4142C2.2188 12.6332 2.2188 11.3668 2.99985 10.5858L8.99985 4.58579ZM19.9998 6L10.4141 6L4.41406 12L10.4141 18H19.9998V6ZM16.707 9.29289C17.0975 9.68342 17.0975 10.3166 16.707 10.7071L15.4141 12L16.707 13.2929C17.0975 13.6834 17.0975 14.3166 16.707 14.7071C16.3164 15.0976 15.6833 15.0976 15.2927 14.7071L13.9998 13.4142L12.707 14.7071C12.3164 15.0976 11.6833 15.0976 11.2927 14.7071C10.9022 14.3166 10.9022 13.6834 11.2927 13.2929L12.5856 12L11.2927 10.7071C10.9022 10.3166 10.9022 9.68342 11.2927 9.29289C11.6833 8.90237 12.3164 8.90237 12.707 9.29289L13.9998 10.5858L15.2927 9.29289C15.6833 8.90237 16.3164 8.90237 16.707 9.29289Z" fill="#777B92"/>
</svg>
