<svg width="24" height="24" viewBox="0 0 24 24" fill="none" xmlns="http://www.w3.org/2000/svg">
<path fill-rule="evenodd" clip-rule="evenodd" d="M12 5.17489C11.2217 5.67684 9.71073 6.73528 8.392 8.14036C7.02016 9.60204 6 11.2856 6 12.9999C6 16.4352 8.6737 18.9999 12 18.9999C15.3263 18.9999 18 16.4352 18 12.9999C18 11.2856 16.9798 9.60204 15.608 8.14037C14.2893 6.73528 12.7783 5.67684 12 5.17489ZM10.976 3.4556C11.6028 3.05451 12.3972 3.05451 13.024 3.4556C13.849 3.9835 15.5552 5.16157 17.0663 6.77167C18.5555 8.35841 20 10.5185 20 12.9999C20 17.5647 16.4057 20.9999 12 20.9999C7.59431 20.9999 4 17.5647 4 12.9999C4 10.5185 5.44447 8.35841 6.93368 6.77167C8.44484 5.16157 10.151 3.9835 10.976 3.4556Z" fill="#777B92"/>
</svg>
