<svg width="24" height="24" viewBox="0 0 24 24" fill="none" xmlns="http://www.w3.org/2000/svg">
<path fill-rule="evenodd" clip-rule="evenodd" d="M11.9999 17C9.19971 17 6.00829 15.3706 4.13049 12C6.00823 8.62936 9.1997 7 11.9999 7C14.8001 7 17.9915 8.62935 19.8693 12C17.9915 15.3706 14.8001 17 11.9999 17ZM11.9999 5C8.43311 5 4.57043 7.06239 2.35712 11.0739C2.03916 11.6502 2.03916 12.3498 2.35713 12.9261C4.57049 16.9376 8.4331 19 11.9999 19C15.5667 19 19.4293 16.9376 21.6427 12.9261C21.9606 12.3498 21.9606 11.6502 21.6427 11.0739C19.4293 7.06239 15.5667 5 11.9999 5ZM10.9999 12C10.9999 11.4477 11.4476 11 11.9999 11C12.5522 11 12.9999 11.4477 12.9999 12C12.9999 12.5523 12.5522 13 11.9999 13C11.4476 13 10.9999 12.5523 10.9999 12ZM11.9999 9C10.343 9 8.9999 10.3431 8.9999 12C8.9999 13.6569 10.343 15 11.9999 15C13.6568 15 14.9999 13.6569 14.9999 12C14.9999 10.3431 13.6568 9 11.9999 9Z" fill="#777B92"/>
</svg>
