<svg width="24" height="24" viewBox="0 0 24 24" fill="none" xmlns="http://www.w3.org/2000/svg">
<path fill-rule="evenodd" clip-rule="evenodd" d="M13.4142 3.00009C12.6332 2.21905 11.3668 2.21904 10.5858 3.00009L3.58579 10.0001C3.21071 10.3752 3 10.8839 3 11.4143V20.0001C3 21.1047 3.89543 22.0001 5 22.0001H9H15H19C20.1046 22.0001 21 21.1047 21 20.0001V11.4143C21 10.8839 20.7893 10.3752 20.4142 10.0001L13.4142 3.00009ZM16 20.0001H19V11.4143L12 4.41431L5 11.4143V20.0001H8V14.0001C8 12.8955 8.89543 12.0001 10 12.0001H14C15.1046 12.0001 16 12.8955 16 14.0001V20.0001ZM10 20.0001V14.0001H14V20.0001H10Z" fill="#777B92"/>
</svg>
