<svg width="24" height="24" viewBox="0 0 24 24" fill="none" xmlns="http://www.w3.org/2000/svg">
<path fill-rule="evenodd" clip-rule="evenodd" d="M18.7929 5.20715C17.2505 3.66468 14.7496 3.66467 13.2072 5.20715L11.7071 6.70715C11.3166 7.09767 10.6835 7.09767 10.2929 6.70715C9.90241 6.31662 9.90241 5.68346 10.2929 5.29293L11.7929 3.79293C14.1165 1.46941 17.8836 1.46941 20.2071 3.79293C22.5307 6.11646 22.5307 9.88363 20.2071 12.2071L18.7071 13.7071C18.3166 14.0977 17.6835 14.0977 17.2929 13.7071C16.9024 13.3166 16.9024 12.6835 17.2929 12.2929L18.7929 10.7929C20.3354 9.25046 20.3354 6.74962 18.7929 5.20715ZM6.70715 10.2929C7.09767 10.6835 7.09767 11.3166 6.70715 11.7071L5.20715 13.2072C3.66467 14.7496 3.66468 17.2505 5.20715 18.7929C6.74962 20.3354 9.25046 20.3354 10.7929 18.7929L12.2929 17.2929C12.6835 16.9024 13.3166 16.9024 13.7071 17.2929C14.0977 17.6835 14.0977 18.3166 13.7071 18.7071L12.2071 20.2071C9.88363 22.5307 6.11646 22.5307 3.79293 20.2071C1.46941 17.8836 1.46941 14.1165 3.79293 11.7929L5.29293 10.2929C5.68346 9.90241 6.31662 9.90241 6.70715 10.2929ZM10 11C9.44776 11 9.00004 11.4478 9.00004 12C9.00004 12.5523 9.44776 13 10 13H14C14.5523 13 15 12.5523 15 12C15 11.4478 14.5523 11 14 11H10Z" fill="#777B92"/>
</svg>
