<svg width="24" height="24" viewBox="0 0 24 24" fill="none" xmlns="http://www.w3.org/2000/svg">
<path fill-rule="evenodd" clip-rule="evenodd" d="M13 3C13 2.44772 12.5523 2 12 2C11.4477 2 11 2.44772 11 3V5C11 5.55228 11.4477 6 12 6C12.5523 6 13 5.55228 13 5V3ZM13 19C13 18.4477 12.5523 18 12 18C11.4477 18 11 18.4477 11 19V21C11 21.5523 11.4477 22 12 22C12.5523 22 13 21.5523 13 21V19ZM18 12C18 11.4477 18.4477 11 19 11H21C21.5523 11 22 11.4477 22 12C22 12.5523 21.5523 13 21 13H19C18.4477 13 18 12.5523 18 12ZM3 11C2.44772 11 2 11.4477 2 12C2 12.5523 2.44772 13 3 13H5C5.55228 13 6 12.5523 6 12C6 11.4477 5.55228 11 5 11H3ZM4.79289 4.79289C5.18342 4.40237 5.81658 4.40237 6.20711 4.79289L7.70711 6.29289C8.09763 6.68342 8.09763 7.31658 7.70711 7.70711C7.31658 8.09763 6.68342 8.09763 6.29289 7.70711L4.79289 6.20711C4.40237 5.81658 4.40237 5.18342 4.79289 4.79289ZM6.20711 19.2071C5.81658 19.5976 5.18342 19.5976 4.79289 19.2071C4.40237 18.8166 4.40237 18.1834 4.79289 17.7929L6.29289 16.2929C6.68342 15.9024 7.31658 15.9024 7.70711 16.2929C8.09763 16.6834 8.09763 17.3166 7.70711 17.7071L6.20711 19.2071ZM19.2071 4.79289C19.5976 5.18342 19.5976 5.81658 19.2071 6.20711L17.7071 7.70711C17.3166 8.09763 16.6834 8.09763 16.2929 7.70711C15.9024 7.31658 15.9024 6.68342 16.2929 6.29289L17.7929 4.79289C18.1834 4.40237 18.8166 4.40237 19.2071 4.79289ZM19.2071 17.7929C19.5976 18.1834 19.5976 18.8166 19.2071 19.2071C18.8166 19.5976 18.1834 19.5976 17.7929 19.2071L16.2929 17.7071C15.9024 17.3166 15.9024 16.6834 16.2929 16.2929C16.6834 15.9024 17.3166 15.9024 17.7071 16.2929L19.2071 17.7929Z" fill="#777B92"/>
</svg>
