<svg width="24" height="24" viewBox="0 0 24 24" fill="none" xmlns="http://www.w3.org/2000/svg">
<path fill-rule="evenodd" clip-rule="evenodd" d="M13.7077 4.70648C14.6748 3.74009 16.2572 3.74671 17.2426 4.73218C18.237 5.72652 18.2507 7.33281 17.2948 8.29091L9.71523 15.6992L9.71519 15.6992L9.70711 15.7073C9.31658 16.0978 8.68342 16.0978 8.29289 15.7073C7.90475 15.3191 7.90238 14.6913 8.28578 14.3002L15.1897 7.72408C15.5896 7.34316 15.605 6.71019 15.2241 6.31028C14.8432 5.91038 14.2102 5.89499 13.8103 6.2759L6.89608 12.8618L6.87868 12.8788C5.70711 14.0504 5.70711 15.9499 6.87868 17.1215C8.04877 18.2916 9.94493 18.293 11.1169 17.1259L18.699 9.71513L18.714 9.70018C20.4827 7.92384 20.3933 5.05439 18.6569 3.31797C16.9095 1.57057 14.0615 1.52626 12.2947 3.29106L12.2929 3.29289L12.1866 3.39818L4.7607 10.7544L4.76069 10.7544L4.75736 10.7577C2.41421 13.1009 2.41421 16.8999 4.75736 19.243C7.10946 21.5951 10.872 21.5408 13.2058 19.2084C13.2062 19.208 13.2067 19.2075 13.2071 19.2071L20.7071 11.7071C21.0976 11.3166 21.0976 10.6834 20.7071 10.2929C20.3166 9.90236 19.6834 9.90236 19.2929 10.2929L11.7929 17.7929C10.2213 19.3644 7.72428 19.3815 6.17157 17.8288C4.61 16.2672 4.60948 13.7357 6.17 12.1735L6.17157 12.1719L13.5941 4.81904L13.7037 4.71049L13.7038 4.71042L13.7071 4.7071L13.7077 4.70648Z" fill="#777B92"/>
</svg>
