<svg width="24" height="24" viewBox="0 0 24 24" fill="none" xmlns="http://www.w3.org/2000/svg">
<path fill-rule="evenodd" clip-rule="evenodd" d="M13.5858 3.00009C14.3668 2.21905 15.6332 2.21904 16.4142 3.00009L19 5.58588C19.781 6.36693 19.781 7.63326 19 8.41431L16.7071 10.7072L10.4551 16.9592C10.134 17.2803 9.71316 17.4826 9.2618 17.5327L6.35279 17.8559C5.07896 17.9975 4.00262 16.9211 4.14416 15.6473L4.46738 12.7383C4.51753 12.2869 4.71981 11.8661 5.04093 11.5449L11.2927 5.29315L11.2929 5.29299L11.2931 5.29283L13.5858 3.00009ZM17.5858 7.00009L16 8.58588L13.4142 6.00009L15 4.41431L17.5858 7.00009ZM14.5858 10.0001L12 7.41431L6.45515 12.9592L6.13192 15.8682L9.04093 15.5449L14.5858 10.0001ZM5 20.0001C4.44772 20.0001 4 20.4478 4 21.0001C4 21.5524 4.44772 22.0001 5 22.0001H19C19.5523 22.0001 20 21.5524 20 21.0001C20 20.4478 19.5523 20.0001 19 20.0001H5Z" fill="#777B92"/>
</svg>
