<svg width="24" height="24" viewBox="0 0 24 24" fill="none" xmlns="http://www.w3.org/2000/svg">
<path fill-rule="evenodd" clip-rule="evenodd" d="M16.4144 5.00009C15.6334 4.21904 14.3671 4.21905 13.586 5.00009L11.2932 7.29294C11.2931 7.29296 11.2931 7.29297 11.2931 7.29299L5.04116 13.5449C4.72003 13.8661 4.51776 14.2869 4.4676 14.7383L4.14438 17.6473C4.00284 18.9211 5.07918 19.9975 6.35301 19.8559L9.26202 19.5327C9.71339 19.4826 10.1342 19.2803 10.4554 18.9592L16.7073 12.7072L19.0002 10.4143C19.7813 9.63326 19.7813 8.36693 19.0002 7.58588L16.4144 5.00009ZM16.0002 10.5859L17.586 9.00009L15.0002 6.41431L13.4144 8.00009L16.0002 10.5859ZM12.0002 9.41431L14.586 12.0001L9.04116 17.5449L6.13215 17.8682L6.45537 14.9592L12.0002 9.41431Z" fill="#777B92"/>
</svg>
