<svg width="24" height="24" viewBox="0 0 24 24" fill="none" xmlns="http://www.w3.org/2000/svg">
<path fill-rule="evenodd" clip-rule="evenodd" d="M12.586 4.00009C13.3671 3.21905 14.6334 3.21904 15.4144 4.00009L18.0002 6.58588C18.7813 7.36693 18.7813 8.63326 18.0002 9.41431L15.7073 11.7072L9.45537 17.9592C9.13424 18.2803 8.71339 18.4826 8.26202 18.5327L5.35301 18.8559C4.07918 18.9975 3.00284 17.9211 3.14438 16.6473L3.4676 13.7383C3.51776 13.2869 3.72003 12.8661 4.04116 12.5449L10.2931 6.29299L10.2932 6.29294L12.586 4.00009ZM16.586 8.00009L15.0002 9.58588L12.4144 7.00009L14.0002 5.41431L16.586 8.00009ZM13.586 11.0001L11.0002 8.41431L5.45537 13.9592L5.13215 16.8682L8.04116 16.5449L13.586 11.0001ZM20.7073 17.293L18.7073 15.293C18.3168 14.9025 17.6836 14.9025 17.2931 15.293C16.9026 15.6835 16.9026 16.3167 17.2931 16.7072L17.586 17.0001H14.0002C13.4479 17.0001 13.0002 17.4478 13.0002 18.0001C13.0002 18.5524 13.4479 19.0001 14.0002 19.0001H17.586L17.2931 19.293C16.9026 19.6835 16.9026 20.3167 17.2931 20.7072C17.6836 21.0977 18.3168 21.0977 18.7073 20.7072L20.7073 18.7072C20.8949 18.5197 21.0002 18.2653 21.0002 18.0001C21.0002 17.7349 20.8949 17.4805 20.7073 17.293Z" fill="#777B92"/>
</svg>
