<svg width="24" height="24" viewBox="0 0 24 24" fill="none" xmlns="http://www.w3.org/2000/svg">
<path fill-rule="evenodd" clip-rule="evenodd" d="M13 2C13 1.44772 12.5523 1 12 1C11.4477 1 11 1.44772 11 2V12C11 12.5523 11.4477 13 12 13C12.5523 13 13 12.5523 13 12V2ZM8.44503 4.83106C8.93961 4.58528 9.1413 3.98509 8.89551 3.49051C8.64973 2.99594 8.04955 2.79425 7.55497 3.04003C4.26468 4.67516 2 8.07221 2 12C2 17.5229 6.47715 22 12 22C17.5228 22 22 17.5229 22 12C22 8.07221 19.7353 4.67516 16.445 3.04003C15.9505 2.79425 15.3503 2.99594 15.1045 3.49051C14.8587 3.98509 15.0604 4.58528 15.555 4.83106C18.1916 6.14133 20 8.86041 20 12C20 16.4183 16.4183 20 12 20C7.58172 20 4 16.4183 4 12C4 8.86041 5.80844 6.14133 8.44503 4.83106Z" fill="#777B92"/>
</svg>
