<svg width="24" height="24" viewBox="0 0 24 24" fill="none" xmlns="http://www.w3.org/2000/svg">
<path fill-rule="evenodd" clip-rule="evenodd" d="M12.8944 2.32907C12.3314 2.04754 11.6686 2.04754 11.1056 2.32907L8.55279 3.60546C8.05881 3.85245 7.85859 4.45312 8.10558 4.9471C8.35256 5.44108 8.95324 5.6413 9.44722 5.39431L12 4.11792L18.9868 7.6113C18.8792 10.0867 18.1269 12.2266 17.1275 14.0113C16.8576 14.4932 17.0295 15.1026 17.5114 15.3724C17.9933 15.6422 18.6027 15.4703 18.8725 14.9885C20.0023 12.971 20.8694 10.5155 20.9865 7.65894C21.0191 6.86432 20.5642 6.16397 19.8944 5.82907L12.8944 2.32907ZM5.03099 7.93334C4.99424 7.38228 4.51772 6.96535 3.96666 7.0021C3.4156 7.03885 2.99867 7.51537 3.03542 8.06643C3.53533 15.5625 9.16082 20.1903 10.8991 21.4551C11.5605 21.9364 12.4439 21.9332 13.1022 21.4542C13.5812 21.1057 14.3228 20.5256 15.1633 19.7231C15.5627 19.3417 15.5773 18.7087 15.1959 18.3093C14.8145 17.9099 14.1815 17.8952 13.7821 18.2766C13.0608 18.9653 12.4233 19.4703 12.0001 19.7824C10.2922 18.5227 5.46187 14.3944 5.03099 7.93334ZM4.70711 3.29278C4.31658 2.90225 3.68342 2.90225 3.29289 3.29278C2.90237 3.6833 2.90237 4.31647 3.29289 4.70699L19.2929 20.707C19.6834 21.0975 20.3166 21.0975 20.7071 20.707C21.0976 20.3165 21.0976 19.6833 20.7071 19.2928L4.70711 3.29278Z" fill="#777B92"/>
</svg>
