<svg width="24" height="24" viewBox="0 0 24 24" fill="none" xmlns="http://www.w3.org/2000/svg">
<path fill-rule="evenodd" clip-rule="evenodd" d="M12 19.7825C10.2604 18.4994 5.29388 14.2501 5.01252 7.5945C5.87537 7.13732 7.62075 6.21704 9.20446 5.4097C10.0025 5.00287 10.7523 4.62839 11.3251 4.35702C11.6059 4.22399 11.834 4.1206 12 4.05127C12.166 4.1206 12.3941 4.22399 12.6749 4.35702C13.2477 4.62839 13.9975 5.00287 14.7955 5.4097C16.3792 6.21704 18.1246 7.13732 18.9875 7.5945C18.7061 14.2501 13.7396 18.4994 12 19.7825ZM12.2074 3.97298C12.207 3.97334 12.2 3.97561 12.1875 3.97868C12.2015 3.97416 12.2078 3.97262 12.2074 3.97298ZM11.8125 3.97869C11.8 3.97561 11.793 3.97334 11.7926 3.97298C11.7922 3.97262 11.7985 3.97416 11.8125 3.97869ZM12 2C11.7978 2 11.6137 2.06165 11.5562 2.08089L11.5502 2.08292C11.455 2.1146 11.3503 2.15547 11.2456 2.19894C11.0338 2.28686 10.7671 2.4083 10.4689 2.54959C9.86949 2.83355 9.09921 3.21847 8.29612 3.62787C6.68773 4.4478 4.91881 5.3807 4.05948 5.83608C3.40763 6.18151 2.98206 6.87275 3.01279 7.64206C3.32218 15.3867 9.12834 20.1666 10.8981 21.4545C11.558 21.9347 12.4419 21.9348 13.1019 21.4545C14.8716 20.1666 20.6778 15.3867 20.9872 7.64206C21.0179 6.87275 20.5924 6.18151 19.9405 5.83608C19.0812 5.3807 17.3123 4.4478 15.7039 3.62787C14.9008 3.21847 14.1305 2.83355 13.5311 2.54959C13.2329 2.4083 12.9662 2.28686 12.7544 2.19894C12.6497 2.15547 12.545 2.1146 12.4498 2.08292L12.4437 2.08089C12.3863 2.06165 12.2022 2 12 2ZM12 7C12.5523 7 13 7.44772 13 8V12C13 12.5523 12.5523 13 12 13C11.4477 13 11 12.5523 11 12V8C11 7.44772 11.4477 7 12 7ZM13 15C13 15.5523 12.5523 16 12 16C11.4477 16 11 15.5523 11 15C11 14.4477 11.4477 14 12 14C12.5523 14 13 14.4477 13 15Z" fill="#777B92"/>
</svg>
