<svg width="16" height="16" viewBox="0 0 16 16" fill="none" xmlns="http://www.w3.org/2000/svg">
<path fill-rule="evenodd" clip-rule="evenodd" d="M8.00173 0.5C12.1431 0.500933 15.5 3.85844 15.5 8C15.5 12.1421 12.1421 15.5 8 15.5C3.85786 15.5 0.5 12.1421 0.5 8C0.5 3.85786 3.85786 0.5 8 0.5M8.50011 1.51895V6.95969L12.6878 3.60957C12.7085 3.59298 12.7301 3.57832 12.7525 3.56555C11.6725 2.40861 10.175 1.64639 8.50011 1.51895ZM13.37 4.33652C13.3525 4.35568 13.3333 4.37372 13.3125 4.39043L8.92267 7.90226L14.0217 10.4518C14.3301 9.69519 14.5 8.86744 14.5 8C14.5 6.64112 14.083 5.37963 13.37 4.33652ZM13.5738 11.3459L8.00011 8.55902L2.4262 11.346C3.5631 13.2358 5.63391 14.5 8 14.5C10.3661 14.5 12.437 13.2357 13.5738 11.3459ZM1.97832 10.4519L7.50011 7.69098V1.51894C4.14383 1.7742 1.5 4.57835 1.5 8C1.5 8.86747 1.66993 9.69526 1.97832 10.4519Z" fill="#777B92"/>
<path d="M8 0.5C7.99996 0.5 8.00004 0.5 8 0.5V0.5Z" fill="#777B92"/>
</svg>
