<svg width="16" height="16" viewBox="0 0 16 16" fill="none" xmlns="http://www.w3.org/2000/svg">
<path fill-rule="evenodd" clip-rule="evenodd" d="M6.47923 1.1473C6.558 1.41197 6.40729 1.69038 6.14262 1.76915C3.45732 2.56834 1.5 5.05627 1.5 8.00005C1.5 8.64621 1.59413 9.26951 1.76911 9.85742C1.84787 10.1221 1.69717 10.4005 1.4325 10.4793C1.16783 10.558 0.889422 10.4073 0.810652 10.1427C0.608421 9.46317 0.5 8.74383 0.5 8.00005C0.5 4.60179 2.75971 1.73261 5.85738 0.8107C6.12204 0.73193 6.40046 0.882632 6.47923 1.1473ZM10.5484 1.45913C10.6669 1.2097 10.9651 1.10356 11.2145 1.22205C13.7473 2.42521 15.5 5.00744 15.5 8.00005C15.5 8.27619 15.2761 8.50005 15 8.50005C14.7239 8.50005 14.5 8.27619 14.5 8.00005C14.5 5.40786 12.9826 3.16908 10.7855 2.12531C10.536 2.00682 10.4299 1.70856 10.5484 1.45913ZM14.2581 11.1794C14.4946 11.3219 14.5708 11.6292 14.4283 11.8657C13.1167 14.0424 10.7288 15.5 8 15.5C6.40718 15.5 4.92897 15.003 3.71395 14.1555C3.48746 13.9975 3.43193 13.6858 3.58991 13.4593C3.74789 13.2328 4.05956 13.1773 4.28605 13.3353C5.33869 14.0695 6.61832 14.5 8 14.5C10.3639 14.5 12.4335 13.2385 13.5717 11.3496C13.7143 11.1131 14.0215 11.0369 14.2581 11.1794Z" fill="#777B92"/>
</svg>
