<svg width="16" height="16" viewBox="0 0 16 16" fill="none" xmlns="http://www.w3.org/2000/svg">
<path fill-rule="evenodd" clip-rule="evenodd" d="M2.5 3.5C2.5 1.84315 3.84315 0.5 5.5 0.5C7.15685 0.5 8.5 1.84315 8.5 3.5C8.5 5.15685 7.15685 6.5 5.5 6.5C3.84315 6.5 2.5 5.15685 2.5 3.5ZM5.5 1.5C4.39543 1.5 3.5 2.39543 3.5 3.5C3.5 4.60457 4.39543 5.5 5.5 5.5C6.60457 5.5 7.5 4.60457 7.5 3.5C7.5 2.39543 6.60457 1.5 5.5 1.5Z" fill="#777B92"/>
<path fill-rule="evenodd" clip-rule="evenodd" d="M1.5 3V14.5H13C13.2761 14.5 13.5 14.7239 13.5 15C13.5 15.2761 13.2761 15.5 13 15.5H1C0.723858 15.5 0.5 15.2761 0.5 15V3C0.5 2.72386 0.723858 2.5 1 2.5C1.27614 2.5 1.5 2.72386 1.5 3Z" fill="#777B92"/>
<path fill-rule="evenodd" clip-rule="evenodd" d="M12 5.5C13.933 5.5 15.5 7.067 15.5 9C15.5 10.933 13.933 12.5 12 12.5C10.067 12.5 8.5 10.933 8.5 9C8.5 7.067 10.067 5.5 12 5.5ZM9.5 9C9.5 10.3807 10.6193 11.5 12 11.5C13.3807 11.5 14.5 10.3807 14.5 9C14.5 7.61929 13.3807 6.5 12 6.5C10.6193 6.5 9.5 7.61929 9.5 9Z" fill="#777B92"/>
<path fill-rule="evenodd" clip-rule="evenodd" d="M4.5 9.5C5.60457 9.5 6.5 10.3954 6.5 11.5C6.5 12.6046 5.60457 13.5 4.5 13.5C3.39543 13.5 2.5 12.6046 2.5 11.5C2.5 10.3954 3.39543 9.5 4.5 9.5ZM3.5 11.5C3.5 12.0523 3.94772 12.5 4.5 12.5C5.05228 12.5 5.5 12.0523 5.5 11.5C5.5 10.9477 5.05228 10.5 4.5 10.5C3.94772 10.5 3.5 10.9477 3.5 11.5Z" fill="#777B92"/>
</svg>
