<svg width="16" height="16" viewBox="0 0 16 16" fill="none" xmlns="http://www.w3.org/2000/svg">
<path fill-rule="evenodd" clip-rule="evenodd" d="M1.5 1V6.79289L3.64645 4.64645C3.84171 4.45118 4.15829 4.45118 4.35355 4.64645L8 8.29289L12.6464 3.64645C12.8417 3.45118 13.1583 3.45118 13.3536 3.64645C13.5488 3.84171 13.5488 4.15829 13.3536 4.35355L8.35355 9.35355C8.15829 9.54882 7.84171 9.54882 7.64645 9.35355L4 5.70711L1.5 8.20711V14.5H15C15.2761 14.5 15.5 14.7239 15.5 15C15.5 15.2761 15.2761 15.5 15 15.5H1C0.723858 15.5 0.5 15.2761 0.5 15V7.99991C0.5 7.99997 0.5 7.99986 0.5 7.99991V1C0.5 0.723858 0.723858 0.5 1 0.5C1.27614 0.5 1.5 0.723858 1.5 1Z" fill="#777B92"/>
</svg>
