<svg width="16" height="16" viewBox="0 0 16 16" fill="none" xmlns="http://www.w3.org/2000/svg">
<path fill-rule="evenodd" clip-rule="evenodd" d="M8.97592 1.17813L14.7939 6.165C15.2724 6.57511 15.4435 7.24053 15.2222 7.83057L12.7112 14.5266C12.4917 15.1121 11.932 15.4999 11.3067 15.4999H4.69273C4.06746 15.4999 3.50778 15.1121 3.28824 14.5266L0.777219 7.83057C0.555954 7.24053 0.72707 6.57511 1.20553 6.165L7.02354 1.17813C7.58528 0.696645 8.41418 0.696644 8.97592 1.17813ZM7.50013 2.0867L2.14631 6.67569L7.50013 8.32302V2.0867ZM1.7599 7.60306L4.01817 13.6251L7.18404 9.27203L1.7599 7.60306ZM4.62206 14.4949C4.64524 14.4982 4.66884 14.4999 4.69273 14.4999H11.3067C11.3309 14.4999 11.3547 14.4982 11.3781 14.4948L8.00013 9.85009L4.62206 14.4949ZM11.9816 13.6244L14.2395 7.60334L8.81622 9.27203L11.9816 13.6244ZM13.8534 6.67587L8.50013 2.08739V8.32302L13.8534 6.67587Z" fill="#777B92"/>
</svg>
