<svg width="16" height="16" viewBox="0 0 16 16" fill="none" xmlns="http://www.w3.org/2000/svg">
<path fill-rule="evenodd" clip-rule="evenodd" d="M8 0.5C8.27614 0.5 8.5 0.723858 8.5 1V3C8.5 3.27614 8.27614 3.5 8 3.5C7.72386 3.5 7.5 3.27614 7.5 3V1C7.5 0.723858 7.72386 0.5 8 0.5Z" fill="#777B92"/>
<path fill-rule="evenodd" clip-rule="evenodd" d="M1.5 4L1.5 6C1.5 6.27614 1.27614 6.5 1 6.5C0.723858 6.5 0.5 6.27614 0.5 6V4C0.5 3.72386 0.723858 3.5 1 3.5C1.27614 3.5 1.5 3.72386 1.5 4Z" fill="#777B92"/>
<path fill-rule="evenodd" clip-rule="evenodd" d="M15 7.5C15.2761 7.5 15.5 7.72386 15.5 8V15C15.5 15.2761 15.2761 15.5 15 15.5C14.7239 15.5 14.5 15.2761 14.5 15V8C14.5 7.72386 14.7239 7.5 15 7.5Z" fill="#777B92"/>
<path fill-rule="evenodd" clip-rule="evenodd" d="M1 9.5C1.27614 9.5 1.5 9.72386 1.5 10L1.5 15C1.5 15.2761 1.27614 15.5 1 15.5C0.723858 15.5 0.5 15.2761 0.5 15V10C0.5 9.72386 0.723858 9.5 1 9.5Z" fill="#777B92"/>
<path fill-rule="evenodd" clip-rule="evenodd" d="M15.5 3V4C15.5 4.27614 15.2761 4.5 15 4.5C14.7239 4.5 14.5 4.27614 14.5 4V3C14.5 2.72386 14.7239 2.5 15 2.5C15.2761 2.5 15.5 2.72386 15.5 3Z" fill="#777B92"/>
<path fill-rule="evenodd" clip-rule="evenodd" d="M8 12.5C8.27614 12.5 8.5 12.7239 8.5 13V15C8.5 15.2761 8.27614 15.5 8 15.5C7.72386 15.5 7.5 15.2761 7.5 15V13C7.5 12.7239 7.72386 12.5 8 12.5Z" fill="#777B92"/>
<path fill-rule="evenodd" clip-rule="evenodd" d="M8.5 6V10C8.5 10.2761 8.27614 10.5 8 10.5C7.72386 10.5 7.5 10.2761 7.5 10V6C7.5 5.72386 7.72386 5.5 8 5.5C8.27614 5.5 8.5 5.72386 8.5 6Z" fill="#777B92"/>
</svg>
