<svg width="16" height="16" viewBox="0 0 16 16" fill="none" xmlns="http://www.w3.org/2000/svg">
<path d="M8 3.5C12.1421 3.5 15.5 6.85786 15.5 11C15.5 11.2761 15.2761 11.5 15 11.5H11C10.7239 11.5 10.5 11.2761 10.5 11C10.5 9.61929 9.38071 8.5 8 8.5C6.61929 8.5 5.5 9.61929 5.5 11C5.5 11.2761 5.27614 11.5 5 11.5H1C0.723858 11.5 0.5 11.2761 0.5 11C0.5 6.85786 3.85786 3.5 8 3.5ZM4.53544 10.5C4.7547 8.96715 5.96715 7.7547 7.5 7.53544V4.51894C4.3088 4.7617 1.7617 7.3088 1.51894 10.5H4.53544ZM8.5 7.53544C10.0328 7.7547 11.2453 8.96715 11.4646 10.5H14.4811C14.2383 7.3088 11.6912 4.7617 8.5 4.51894V7.53544Z" fill="#777B92"/>
</svg>
