<svg width="16" height="16" viewBox="0 0 16 16" fill="none" xmlns="http://www.w3.org/2000/svg">
<path fill-rule="evenodd" clip-rule="evenodd" d="M1 0.5C1.27614 0.5 1.5 0.723858 1.5 1V2.75001L5.07523 5.43143L9.81433 3.53579C9.95942 3.47776 10.1233 3.49089 10.2573 3.57128L15.2573 6.57128C15.4079 6.66164 15.5 6.8244 15.5 7.00003V11.9918C15.5001 11.9976 15.5001 12.0034 15.5 12.0092V15C15.5 15.2762 15.2762 15.5 15 15.5L14.9945 15.5H1C0.723858 15.5 0.5 15.2761 0.5 15V1C0.5 0.723858 0.723858 0.5 1 0.5ZM1.5 7.75001L5.07523 10.4314L9.81433 8.53579C9.95942 8.47776 10.1233 8.49089 10.2573 8.57128L14.5 11.1169V7.28312L9.95545 4.55638L5.18572 6.46427C5.02371 6.52907 4.83963 6.50473 4.70003 6.40003L1.5 4.00001V7.75001ZM14.5 12.2831L9.95545 9.55638L5.18572 11.4643C5.02371 11.5291 4.83963 11.5047 4.70003 11.4L1.5 9.00001V14.5H14.5V12.2831Z" fill="#777B92"/>
</svg>
