<svg width="16" height="16" viewBox="0 0 16 16" fill="none" xmlns="http://www.w3.org/2000/svg">
<path fill-rule="evenodd" clip-rule="evenodd" d="M0.646447 3.64645C0.841709 3.45118 1.15829 3.45118 1.35355 3.64645L6 8.29289L8.64645 5.64645C8.84171 5.45118 9.15829 5.45118 9.35355 5.64645L14.5 10.7929V8C14.5 7.72386 14.7239 7.5 15 7.5C15.2761 7.5 15.5 7.72386 15.5 8V12C15.5 12.2761 15.2761 12.5 15 12.5H11C10.7239 12.5 10.5 12.2761 10.5 12C10.5 11.7239 10.7239 11.5 11 11.5H13.7929L9 6.70711L6.35355 9.35355C6.15829 9.54882 5.84171 9.54882 5.64645 9.35355L0.646447 4.35355C0.451184 4.15829 0.451184 3.84171 0.646447 3.64645Z" fill="#777B92"/>
</svg>
