<svg width="16" height="16" viewBox="0 0 16 16" fill="none" xmlns="http://www.w3.org/2000/svg">
<path fill-rule="evenodd" clip-rule="evenodd" d="M15.0001 0.5C15.2762 0.5 15.5001 0.723858 15.5001 1V2.99419C15.5001 2.99781 15.5001 3.00143 15.5001 3.00504V7.99419C15.5001 7.99781 15.5001 8.00143 15.5001 8.00504V15C15.5001 15.2761 15.2762 15.5 15.0001 15.5H1.00008C0.723933 15.5 0.500076 15.2761 0.500076 15V12.0092C0.499975 12.0034 0.499975 11.9976 0.500076 11.9918V7C0.500076 6.82437 0.592225 6.66162 0.742828 6.57125L5.74283 3.57125C5.87682 3.49086 6.04069 3.47773 6.18577 3.53576L10.9249 5.4314L14.5001 2.75V1C14.5001 0.723858 14.7239 0.5 15.0001 0.5ZM14.5001 4L11.3001 6.4C11.1605 6.5047 10.9764 6.52904 10.8144 6.46424L6.04465 4.55635L1.50008 7.2831V11.1169L5.74283 8.57125C5.87682 8.49086 6.04069 8.47773 6.18577 8.53576L10.9249 10.4314L14.5001 7.75V4ZM14.5001 9L11.3001 11.4C11.1605 11.5047 10.9764 11.529 10.8144 11.4642L6.04465 9.55635L1.50008 12.2831V14.5H14.5001V9Z" fill="#777B92"/>
</svg>
