<svg width="16" height="16" viewBox="0 0 16 16" fill="none" xmlns="http://www.w3.org/2000/svg">
<path fill-rule="evenodd" clip-rule="evenodd" d="M4.16795 1.95383C4.6718 1.61793 5.3282 1.61793 5.83205 1.95383L7.83205 3.28716C7.8915 3.32679 7.94756 3.37028 8 3.41718C8.05244 3.37028 8.1085 3.32679 8.16795 3.28716L10.1679 1.95383C10.6718 1.61793 11.3282 1.61793 11.8321 1.95383L13.8321 3.28716C14.2493 3.56536 14.5 4.03371 14.5 4.53524V6.46487C14.5 6.9664 14.2493 7.43475 13.8321 7.71295L11.8321 9.04628C11.7172 9.12285 11.5944 9.18197 11.4673 9.22363C11.4888 9.32504 11.5 9.4294 11.5 9.53524V11.4649C11.5 11.9664 11.2493 12.4347 10.8321 12.7129L8.83205 14.0463C8.3282 14.3822 7.6718 14.3822 7.16795 14.0463L5.16795 12.7129C4.75065 12.4347 4.5 11.9664 4.5 11.4649V9.53524C4.5 9.4294 4.51116 9.32504 4.5327 9.22363C4.4056 9.18197 4.28281 9.12285 4.16795 9.04628L2.16795 7.71295C1.75065 7.43475 1.5 6.9664 1.5 6.46487V4.53524C1.5 4.03371 1.75065 3.56536 2.16795 3.28716L4.16795 1.95383ZM5.27735 8.21423L7.27735 6.8809C7.41645 6.78816 7.5 6.63205 7.5 6.46487V4.53524C7.5 4.36806 7.41645 4.21195 7.27735 4.11921L5.27735 2.78588C5.1094 2.67391 4.8906 2.67391 4.72265 2.78588L2.72265 4.11921C2.58355 4.21195 2.5 4.36806 2.5 4.53524V6.46487C2.5 6.63205 2.58355 6.78816 2.72265 6.8809L4.72265 8.21423C4.8906 8.3262 5.1094 8.3262 5.27735 8.21423ZM5.83133 9.04676L5.72265 9.11921C5.58355 9.21195 5.5 9.36806 5.5 9.53524V11.4649C5.5 11.632 5.58355 11.7882 5.72265 11.8809L7.72265 13.2142C7.8906 13.3262 8.1094 13.3262 8.27735 13.2142L10.2773 11.8809C10.4164 11.7882 10.5 11.632 10.5 11.4649V9.53524C10.5 9.36806 10.4164 9.21195 10.2773 9.11921L10.1681 9.04639C10.1681 9.04636 10.1682 9.04643 10.1681 9.04639L8.27735 7.78588C8.27745 7.78595 8.27725 7.78581 8.27735 7.78588C8.10944 7.67412 7.8905 7.67398 7.72265 7.78588L5.83133 9.04676C5.83157 9.0466 5.83109 9.04692 5.83133 9.04676ZM10.723 8.21444C10.8909 8.3262 11.1095 8.32613 11.2773 8.21423L13.2773 6.8809C13.4164 6.78816 13.5 6.63205 13.5 6.46487V4.53524C13.5 4.36806 13.4164 4.21195 13.2773 4.11921L11.2774 2.78588C11.1094 2.67391 10.8906 2.67391 10.7227 2.78588L8.72265 4.11921C8.58355 4.21195 8.5 4.36806 8.5 4.53524V6.46487C8.5 6.63205 8.58355 6.78816 8.72265 6.8809L10.723 8.21444C10.7231 8.21451 10.7229 8.21437 10.723 8.21444Z" fill="#777B92"/>
</svg>
