<svg width="16" height="16" viewBox="0 0 16 16" fill="none" xmlns="http://www.w3.org/2000/svg">
<path fill-rule="evenodd" clip-rule="evenodd" d="M3.40381 1.69723C3.59907 1.89249 3.59907 2.20907 3.40381 2.40433C0.865398 4.94274 0.865398 9.05832 3.40381 11.5967C3.59907 11.792 3.59907 12.1086 3.40381 12.3038C3.20854 12.4991 2.89196 12.4991 2.6967 12.3038C-0.232233 9.3749 -0.232233 4.62616 2.6967 1.69723C2.89196 1.50197 3.20854 1.50197 3.40381 1.69723Z" fill="#777B92"/>
<path fill-rule="evenodd" clip-rule="evenodd" d="M12.5962 1.69723C12.7915 1.50197 13.108 1.50197 13.3033 1.69723C16.2322 4.62616 16.2322 9.3749 13.3033 12.3038C13.108 12.4991 12.7915 12.4991 12.5962 12.3038C12.4009 12.1086 12.4009 11.792 12.5962 11.5967C15.1346 9.05832 15.1346 4.94274 12.5962 2.40433C12.4009 2.20907 12.4009 1.89249 12.5962 1.69723Z" fill="#777B92"/>
<path fill-rule="evenodd" clip-rule="evenodd" d="M4.81802 3.81791C3.06066 5.57527 3.06066 8.42451 4.81802 10.1819C5.01328 10.3771 5.01328 10.6937 4.81802 10.889C4.62276 11.0842 4.30617 11.0842 4.11091 10.889C1.96303 8.74109 1.96303 5.25869 4.11091 3.1108C4.30617 2.91554 4.62276 2.91554 4.81802 3.1108C5.01328 3.30606 5.01328 3.62265 4.81802 3.81791Z" fill="#777B92"/>
<path fill-rule="evenodd" clip-rule="evenodd" d="M11.8891 3.1108C14.037 5.25869 14.037 8.74109 11.8891 10.889C11.6938 11.0842 11.3772 11.0842 11.182 10.889C10.9867 10.6937 10.9867 10.3771 11.182 10.1819C12.9393 8.42451 12.9393 5.57527 11.182 3.81791C10.9867 3.62265 10.9867 3.30606 11.182 3.1108C11.3772 2.91554 11.6938 2.91554 11.8891 3.1108Z" fill="#777B92"/>
<path fill-rule="evenodd" clip-rule="evenodd" d="M8.5 9.44999V15C8.5 15.2761 8.27614 15.5 8 15.5C7.72386 15.5 7.5 15.2761 7.5 15L7.5 9.44999C6.35888 9.21836 5.5 8.20948 5.5 7C5.5 5.61929 6.61929 4.5 8 4.5C9.38071 4.5 10.5 5.61929 10.5 7C10.5 8.20948 9.64112 9.21836 8.5 9.44999ZM6.5 7C6.5 7.82843 7.17157 8.5 8 8.5C8.82843 8.5 9.5 7.82843 9.5 7C9.5 6.17157 8.82843 5.5 8 5.5C7.17157 5.5 6.5 6.17157 6.5 7Z" fill="#777B92"/>
</svg>
