<svg width="16" height="16" viewBox="0 0 16 16" fill="none" xmlns="http://www.w3.org/2000/svg">
<path fill-rule="evenodd" clip-rule="evenodd" d="M7.9998 1.5C5.54887 1.5 3.26411 2.20488 1.33538 3.42277C1.10189 3.57021 0.793091 3.50045 0.645655 3.26696C0.498218 3.03347 0.567978 2.72467 0.801467 2.57723C2.88528 1.26141 5.35438 0.5 7.9998 0.5C10.6452 0.5 13.1143 1.26141 15.1981 2.57723C15.4316 2.72467 15.5014 3.03347 15.3539 3.26696C15.2065 3.50045 14.8977 3.57021 14.6642 3.42277C12.7355 2.20488 10.4507 1.5 7.9998 1.5Z" fill="#777B92"/>
<path fill-rule="evenodd" clip-rule="evenodd" d="M3.78164 7.79784C3.55346 7.95336 3.24241 7.89446 3.08688 7.66628C2.93136 7.43809 2.99027 7.12704 3.21845 6.97152C4.58094 6.0429 6.22785 5.5 8.00005 5.5C9.77225 5.5 11.4192 6.0429 12.7816 6.97152C13.0098 7.12704 13.0687 7.43809 12.9132 7.66628C12.7577 7.89446 12.4466 7.95336 12.2185 7.79784C11.0167 6.97879 9.56505 6.5 8.00005 6.5C6.43504 6.5 4.98337 6.97879 3.78164 7.79784Z" fill="#777B92"/>
<path fill-rule="evenodd" clip-rule="evenodd" d="M8 15C7.44772 15 7 14.5523 7 14C7 13.4477 7.44772 13 8 13C8.55228 13 9 13.4477 9 14C9 14.5523 8.55228 15 8 15Z" fill="#777B92"/>
<path fill-rule="evenodd" clip-rule="evenodd" d="M5.68536 11.3749C5.47833 11.5576 5.16236 11.5379 4.97963 11.3309C4.7969 11.1238 4.8166 10.8079 5.02363 10.6251C5.8166 9.92524 6.85941 9.5 8.00032 9.5C9.14123 9.5 10.184 9.92524 10.977 10.6251C11.184 10.8079 11.2037 11.1238 11.021 11.3309C10.8383 11.5379 10.5223 11.5576 10.3153 11.3749C9.69799 10.83 8.88831 10.5 8.00032 10.5C7.11234 10.5 6.30266 10.83 5.68536 11.3749Z" fill="#777B92"/>
</svg>
