<svg width="24" height="24" viewBox="0 0 24 24" fill="none" xmlns="http://www.w3.org/2000/svg">
<path fill-rule="evenodd" clip-rule="evenodd" d="M12.8375 4.31551C14.1613 3.36999 16 4.31623 16 5.94298V18.2766C16 19.8123 14.341 20.775 13.0077 20.0131L7.73444 16.9998H4C2.89543 16.9998 2 16.1044 2 14.9998V9.99979C2 8.89522 2.89543 7.99979 4 7.99979H7.67953L12.8375 4.31551ZM14 5.94298L8.84201 9.62726C8.50281 9.86954 8.09638 9.99979 7.67953 9.99979H4V14.9998H7.73444C8.08249 14.9998 8.42452 15.0906 8.72671 15.2633L14 18.2766V5.94298Z" fill="#777B92"/>
<path fill-rule="evenodd" clip-rule="evenodd" d="M18.2179 5.37686C18.5621 4.94493 19.1912 4.87379 19.6232 5.21795C21.6734 6.85162 23 9.27261 23 12C23 14.7275 21.6734 17.1485 19.6232 18.7821C19.1912 19.1263 18.5621 19.0551 18.2179 18.6232C17.8737 18.1913 17.9449 17.5621 18.3768 17.218C20.0059 15.9198 21 14.0514 21 12C21 9.94869 20.0059 8.08023 18.3768 6.78212C17.9449 6.43795 17.8737 5.8088 18.2179 5.37686Z" fill="#777B92"/>
<path fill-rule="evenodd" clip-rule="evenodd" d="M18.7891 8.38579C19.5506 9.36407 20 10.6313 20 12C20 13.3688 19.5506 14.636 18.7891 15.6143C18.4498 16.0501 17.8215 16.1284 17.3857 15.7892C16.9499 15.4499 16.8716 14.8216 17.2109 14.3858C17.6941 13.765 18 12.9318 18 12C18 11.0683 17.6941 10.2351 17.2109 9.6143C16.8716 9.17849 16.9499 8.55018 17.3857 8.21094C17.8215 7.87169 18.4498 7.94998 18.7891 8.38579Z" fill="#777B92"/>
</svg>
