<svg width="24" height="24" viewBox="0 0 24 24" fill="none" xmlns="http://www.w3.org/2000/svg">
<path fill-rule="evenodd" clip-rule="evenodd" d="M7.55481 2.83216C8.01434 2.5258 8.13851 1.90493 7.83216 1.44541C7.5258 0.985877 6.90493 0.861704 6.44541 1.16806L3.44541 3.16806C2.98588 3.47441 2.8617 4.09528 3.16806 4.55481C3.47441 5.01434 4.09528 5.13851 4.55481 4.83216L7.55481 2.83216ZM16.1681 1.44541C16.4744 0.985877 17.0953 0.861704 17.5548 1.16806L20.5548 3.16806C21.0143 3.47441 21.1385 4.09528 20.8322 4.55481C20.5258 5.01434 19.9049 5.13851 19.4454 4.83216L16.4454 2.83216C15.9859 2.5258 15.8617 1.90493 16.1681 1.44541ZM12.0001 3.00011C8.13411 3.00011 5.00011 6.13411 5.00011 10.0001V14.6973L4.20452 15.8907C3.31845 17.2198 4.27123 19.0001 5.86862 19.0001H8.00011C8.00011 21.2092 9.79097 23.0001 12.0001 23.0001C14.2092 23.0001 16.0001 21.2092 16.0001 19.0001H18.1316C19.729 19.0001 20.6818 17.2198 19.7957 15.8907L19.0001 14.6973V10.0001C19.0001 6.13411 15.8661 3.00011 12.0001 3.00011ZM10.0001 19.0001C10.0001 20.1047 10.8955 21.0001 12.0001 21.0001C13.1047 21.0001 14.0001 20.1047 14.0001 19.0001H10.0001ZM7.00011 10.0001C7.00011 7.23868 9.23868 5.00011 12.0001 5.00011C14.7615 5.00011 17.0001 7.23868 17.0001 10.0001V14.6973C17.0001 15.0922 17.117 15.4782 17.336 15.8067L18.1316 17.0001H5.86862L6.66421 15.8067C6.88323 15.4782 7.00011 15.0922 7.00011 14.6973V10.0001Z" fill="#777B92"/>
</svg>
