<svg width="24" height="24" viewBox="0 0 24 24" fill="none" xmlns="http://www.w3.org/2000/svg">
<path fill-rule="evenodd" clip-rule="evenodd" d="M13.8161 2.12493C12.7429 1.30862 11.2569 1.30862 10.1837 2.12493L9.82013 2.40146C9.61137 2.56025 9.34858 2.63066 9.0884 2.59753L8.63528 2.53982C7.2977 2.36948 6.0108 3.11247 5.48953 4.35602L5.31295 4.77729C5.21155 5.01918 5.01918 5.21155 4.77729 5.31295L4.35602 5.48953C3.11247 6.0108 2.36948 7.2977 2.53982 8.63528L2.59753 9.0884C2.63066 9.34858 2.56025 9.61137 2.40146 9.82013L2.12493 10.1837C1.30862 11.2569 1.30862 12.7429 2.12493 13.8161L2.40146 14.1796C2.56025 14.3884 2.63066 14.6512 2.59753 14.9114L2.53982 15.3645C2.36948 16.7021 3.11247 17.989 4.35602 18.5102L4.77728 18.6868C5.01918 18.7882 5.21155 18.9806 5.31295 19.2225L5.48953 19.6437C6.0108 20.8873 7.2977 21.6303 8.63528 21.4599L9.0884 21.4022C9.34858 21.3691 9.61137 21.4395 9.82013 21.5983L10.1837 21.8748C11.2569 22.6912 12.7429 22.6912 13.8161 21.8748L14.1796 21.5983C14.3884 21.4395 14.6512 21.3691 14.9114 21.4022L15.3645 21.4599C16.7021 21.6303 17.989 20.8873 18.5102 19.6437L18.6868 19.2225C18.7882 18.9806 18.9806 18.7882 19.2225 18.6868L19.6437 18.5102C20.8873 17.989 21.6303 16.7021 21.4599 15.3645L21.4022 14.9114C21.3691 14.6512 21.4395 14.3884 21.5983 14.1796L21.8748 13.8161C22.6912 12.7429 22.6912 11.2569 21.8748 10.1837L21.5983 9.82013C21.4395 9.61137 21.3691 9.34858 21.4022 9.0884L21.4599 8.63528C21.6303 7.2977 20.8873 6.0108 19.6437 5.48953L19.2225 5.31295C18.9806 5.21155 18.7882 5.01918 18.6868 4.77728L18.5102 4.35602C17.989 3.11247 16.7021 2.36948 15.3645 2.53982L14.9114 2.59753C14.6512 2.63066 14.3884 2.56025 14.1796 2.40146L13.8161 2.12493ZM12.9999 7.99988C12.9999 7.4476 12.5522 6.99988 11.9999 6.99988C11.4476 6.99988 10.9999 7.4476 10.9999 7.99988V12.9999C10.9999 13.5522 11.4476 13.9999 11.9999 13.9999C12.5522 13.9999 12.9999 13.5522 12.9999 12.9999V7.99988ZM11.9999 16.9999C12.5522 16.9999 12.9999 16.5522 12.9999 15.9999C12.9999 15.4476 12.5522 14.9999 11.9999 14.9999C11.4476 14.9999 10.9999 15.4476 10.9999 15.9999C10.9999 16.5522 11.4476 16.9999 11.9999 16.9999Z" fill="#777B92"/>
</svg>
