<svg width="24" height="24" viewBox="0 0 24 24" fill="none" xmlns="http://www.w3.org/2000/svg">
<path fill-rule="evenodd" clip-rule="evenodd" d="M6 5.46949V13.3062C6.64165 13.1298 7.31581 13.1053 7.97256 13.1593C9.17383 13.258 10.491 13.635 11.7185 13.9864C11.7791 14.0037 11.8396 14.021 11.8997 14.0382C13.2294 14.4181 14.4745 14.7613 15.6207 14.8462C16.552 14.9152 17.3385 14.8066 18 14.4542V6.60704C17.174 6.85695 16.3136 6.90308 15.473 6.84086C14.088 6.73831 12.6457 6.33154 11.3503 5.96143C11.3222 5.95341 11.2942 5.94541 11.2663 5.93743C9.95472 5.56261 8.80806 5.23492 7.80867 5.15274C7.00814 5.08691 6.43196 5.19021 6 5.46949ZM6 15.4694C6.43197 15.1901 7.00815 15.0867 7.80869 15.1525C8.80812 15.2347 9.95486 15.5625 11.2665 15.9373L11.3503 15.9613C12.6456 16.3314 14.088 16.7382 15.473 16.8408C16.8777 16.9448 18.338 16.7462 19.6 15.7996C19.8518 15.6107 20 15.3143 20 14.9996V4.99964C20 4.62086 19.786 4.27459 19.4472 4.1052C19.1084 3.93581 18.703 3.97239 18.4 4.19967C17.662 4.75323 16.7473 4.92973 15.6207 4.84631C14.4745 4.76145 13.2293 4.41827 11.8997 4.03839C11.8395 4.02118 11.779 4.00387 11.7183 3.9865C10.4908 3.63519 9.17377 3.25824 7.97258 3.15946C6.68817 3.05385 5.33714 3.24842 4.29294 4.29249C4.10537 4.48003 4 4.7344 4 4.99964V14.9996V19.9996C4 20.5519 4.44772 20.9996 5 20.9996C5.55228 20.9996 6 20.5519 6 19.9996V15.4694Z" fill="#777B92"/>
</svg>
