<svg width="24" height="24" viewBox="0 0 24 24" fill="none" xmlns="http://www.w3.org/2000/svg">
<path fill-rule="evenodd" clip-rule="evenodd" d="M2 4C2 3.44772 2.44772 3 3 3H6C6.55229 3 7 3.44772 7 4V20C7 20.5523 6.55229 21 6 21H3C2.44772 21 2 20.5523 2 20V4Z" fill="#777B92"/>
<path fill-rule="evenodd" clip-rule="evenodd" d="M10 3H14C14.5523 3 15 3.44772 15 4V20C15 20.5523 14.5523 21 14 21H10C9.44772 21 9 20.5523 9 20V4C9 3.44772 9.44772 3 10 3Z" fill="#777B92"/>
<path fill-rule="evenodd" clip-rule="evenodd" d="M18 3H21C21.5523 3 22 3.44772 22 4V20C22 20.5523 21.5523 21 21 21H18C17.4477 21 17 20.5523 17 20V4C17 3.44772 17.4477 3 18 3Z" fill="#777B92"/>
</svg>
