<svg width="16" height="16" viewBox="0 0 16 16" fill="none" xmlns="http://www.w3.org/2000/svg">
<path fill-rule="evenodd" clip-rule="evenodd" d="M2 2.5H11C11.8284 2.5 12.5 3.17157 12.5 4V6.79289L14.6464 4.64645C14.7894 4.50345 15.0045 4.46067 15.1913 4.53806C15.3782 4.61545 15.5 4.79777 15.5 5V11C15.5 11.2022 15.3782 11.3845 15.1913 11.4619C15.0045 11.5393 14.7894 11.4966 14.6464 11.3536L12.5 9.20711V12C12.5 12.8284 11.8284 13.5 11 13.5H2C1.17157 13.5 0.5 12.8284 0.5 12V4C0.5 3.17157 1.17157 2.5 2 2.5ZM11.5 4C11.5 3.72386 11.2761 3.5 11 3.5H2C1.72386 3.5 1.5 3.72386 1.5 4V12C1.5 12.2761 1.72386 12.5 2 12.5H11C11.2761 12.5 11.5 12.2761 11.5 12V4ZM14.5 9.79289V6.20711L12.7071 8L14.5 9.79289Z" fill="#777B92"/>
</svg>
