<svg width="16" height="16" viewBox="0 0 16 16" fill="none" xmlns="http://www.w3.org/2000/svg">
<path fill-rule="evenodd" clip-rule="evenodd" d="M8.35355 8.64645C8.54882 8.84171 8.54882 9.15829 8.35355 9.35355L6.70711 11L8.35355 12.6464C8.54882 12.8417 8.54882 13.1583 8.35355 13.3536C8.15829 13.5488 7.84171 13.5488 7.64645 13.3536L6 11.7071L4.35355 13.3536C4.15829 13.5488 3.84171 13.5488 3.64645 13.3536C3.45118 13.1583 3.45118 12.8417 3.64645 12.6464L5.29289 11L3.64645 9.35355C3.45118 9.15829 3.45118 8.84171 3.64645 8.64645C3.84171 8.45118 4.15829 8.45118 4.35355 8.64645L6 10.2929L7.64645 8.64645C7.84171 8.45118 8.15829 8.45118 8.35355 8.64645Z" fill="#777B92"/>
<path fill-rule="evenodd" clip-rule="evenodd" d="M7.38171 3.09438C7.81781 2.72367 8.38278 2.5 9 2.5C10.3807 2.5 11.5 3.61929 11.5 5C11.5 5.5628 11.314 6.08217 11.0002 6.5C11.8285 6.5001 12.5 7.17163 12.5 8V9.79291L14.6464 7.64646C14.7894 7.50346 15.0045 7.46068 15.1913 7.53807C15.3782 7.61547 15.5 7.79778 15.5 8.00001V14C15.5 14.2022 15.3782 14.3846 15.1913 14.462C15.0045 14.5393 14.7894 14.4966 14.6464 14.3536L12.5 12.2071V14C12.5 14.8284 11.8284 15.5 11 15.5H2C1.17157 15.5 0.5 14.8284 0.5 14V8C0.5 7.3082 0.968329 6.72578 1.60524 6.55249C0.924949 5.91398 0.5 5.00662 0.5 4C0.5 2.067 2.067 0.5 4 0.5C5.61981 0.5 6.98262 1.60037 7.38171 3.09438ZM4 1.5C2.61929 1.5 1.5 2.61929 1.5 4C1.5 5.38071 2.61929 6.5 4 6.5C5.38071 6.5 6.5 5.38071 6.5 4C6.5 2.61929 5.38071 1.5 4 1.5ZM6.77259 6.13634C6.67334 6.26496 6.56535 6.38647 6.44949 6.5H6.99982C6.91415 6.38595 6.83802 6.26434 6.77259 6.13634ZM9 6.5C9.82843 6.5 10.5 5.82843 10.5 5C10.5 4.17157 9.82843 3.5 9 3.5C8.17157 3.5 7.5 4.17157 7.5 5C7.5 5.82843 8.17157 6.5 9 6.5ZM2 7.5C1.72386 7.5 1.5 7.72386 1.5 8V14C1.5 14.2761 1.72386 14.5 2 14.5H11C11.2761 14.5 11.5 14.2761 11.5 14V8C11.5 7.72386 11.2761 7.5 11 7.5H2ZM14.5 12.7929V9.20712L12.7071 11L14.5 12.7929Z" fill="#777B92"/>
</svg>
