<svg width="24" height="24" viewBox="0 0 24 24" fill="none" xmlns="http://www.w3.org/2000/svg">
<path fill-rule="evenodd" clip-rule="evenodd" d="M4 3H5C5.55228 3 6 3.44772 6 4V20C6 20.5523 5.55228 21 5 21H4C3.44772 21 3 20.5523 3 20V4C3 3.44772 3.44772 3 4 3Z" fill="#777B92"/>
<path fill-rule="evenodd" clip-rule="evenodd" d="M9 3H15C15.5523 3 16 3.44772 16 4V20C16 20.5523 15.5523 21 15 21H9C8.44772 21 8 20.5523 8 20V4C8 3.44772 8.44772 3 9 3Z" fill="#777B92"/>
<path fill-rule="evenodd" clip-rule="evenodd" d="M18 4C18 3.44772 18.4477 3 19 3H20C20.5523 3 21 3.44772 21 4V20C21 20.5523 20.5523 21 20 21H19C18.4477 21 18 20.5523 18 20V4Z" fill="#777B92"/>
</svg>
