<svg width="24" height="24" viewBox="0 0 24 24" fill="none" xmlns="http://www.w3.org/2000/svg">
<path fill-rule="evenodd" clip-rule="evenodd" d="M4 3H20C20.5523 3 21 3.44772 21 4V5C21 5.55228 20.5523 6 20 6H4C3.44772 6 3 5.55228 3 5V4C3 3.44772 3.44772 3 4 3Z" fill="#777B92"/>
<path fill-rule="evenodd" clip-rule="evenodd" d="M4 8H20C20.5523 8 21 8.44772 21 9V10C21 10.5523 20.5523 11 20 11H4C3.44772 11 3 10.5523 3 10V9C3 8.44772 3.44772 8 4 8Z" fill="#777B92"/>
<path fill-rule="evenodd" clip-rule="evenodd" d="M3 14C3 13.4477 3.44772 13 4 13H20C20.5523 13 21 13.4477 21 14V15C21 15.5523 20.5523 16 20 16H4C3.44772 16 3 15.5523 3 15V14Z" fill="#777B92"/>
<path fill-rule="evenodd" clip-rule="evenodd" d="M4 18H20C20.5523 18 21 18.4477 21 19V20C21 20.5523 20.5523 21 20 21H4C3.44772 21 3 20.5523 3 20V19C3 18.4477 3.44772 18 4 18Z" fill="#777B92"/>
</svg>
