<svg width="16" height="16" viewBox="0 0 16 16" fill="none" xmlns="http://www.w3.org/2000/svg">
<path fill-rule="evenodd" clip-rule="evenodd" d="M9.06066 1.35365L14.0607 6.35365C14.342 6.63495 14.5 7.01648 14.5 7.41431V14.0001C14.5 14.8285 13.8284 15.5001 13 15.5001H3C2.17157 15.5001 1.5 14.8285 1.5 14.0001V7.41431C1.5 7.01648 1.65804 6.63495 1.93934 6.35365L6.93934 1.35365C7.52513 0.76786 8.47487 0.76786 9.06066 1.35365ZM7.64645 2.06075L2.64645 7.06075C2.55268 7.15452 2.5 7.2817 2.5 7.41431V14.0001C2.5 14.2762 2.72386 14.5001 3 14.5001H5.5V10C5.5 9.17157 6.17157 8.5 7 8.5H9C9.82843 8.5 10.5 9.17157 10.5 10V14.5001H13C13.2761 14.5001 13.5 14.2762 13.5 14.0001V7.41431C13.5 7.2817 13.4473 7.15452 13.3536 7.06075L8.35355 2.06075C8.15829 1.86549 7.84171 1.86549 7.64645 2.06075ZM6.5 14.5001H9.5V10C9.5 9.72386 9.27614 9.5 9 9.5H7C6.72386 9.5 6.5 9.72386 6.5 10V14.5001Z" fill="#777B92"/>
</svg>
