<svg width="16" height="16" viewBox="0 0 16 16" fill="none" xmlns="http://www.w3.org/2000/svg">
<path fill-rule="evenodd" clip-rule="evenodd" d="M9.64645 1.64645C9.84171 1.45118 10.1583 1.45118 10.3536 1.64645L12 3.29289L13.6464 1.64645C13.8417 1.45118 14.1583 1.45118 14.3536 1.64645C14.5488 1.84171 14.5488 2.15829 14.3536 2.35355L12.7071 4L14.3536 5.64645C14.5488 5.84171 14.5488 6.15829 14.3536 6.35355C14.1583 6.54882 13.8417 6.54882 13.6464 6.35355L12 4.70711L10.3536 6.35355C10.1583 6.54882 9.84171 6.54882 9.64645 6.35355C9.45118 6.15829 9.45118 5.84171 9.64645 5.64645L11.2929 4L9.64645 2.35355C9.45118 2.15829 9.45118 1.84171 9.64645 1.64645Z" fill="#777B92"/>
<path fill-rule="evenodd" clip-rule="evenodd" d="M4.14225 1.56442C4.90337 1.44133 5.5137 1.99335 5.67429 2.63581L6.34778 5.33015C6.47555 5.8413 6.32577 6.382 5.95321 6.75456L5.64645 7.06133C5.59707 7.11071 5.5731 7.15533 5.56474 7.18192C5.56286 7.18789 5.56198 7.19224 5.56158 7.19499L5.56124 7.19813C5.75621 7.64573 6.30554 8.34865 6.97848 9.0216C7.65144 9.69457 8.35455 10.2441 8.80243 10.4393L8.8057 10.4389C8.80847 10.4385 8.81284 10.4376 8.81883 10.4358C8.84548 10.4274 8.89017 10.4034 8.93958 10.354L9.24609 10.0475C9.61866 9.6749 10.1594 9.52513 10.6706 9.65292L13.3638 10.3262C14.0066 10.4869 14.5586 11.0978 14.4352 11.8591C14.2994 12.6969 13.9423 13.3798 13.3275 13.8441C12.7218 14.3017 11.9268 14.5007 11 14.5007C5.72386 14.5007 1.5 10.2768 1.5 5.00059C1.5 4.07405 1.69896 3.27877 2.15645 2.67269C2.62076 2.05758 3.30385 1.70001 4.14225 1.56442ZM4.70414 2.87832C4.64229 2.63089 4.44629 2.52825 4.3019 2.5516C3.65892 2.65558 3.23097 2.90902 2.95459 3.27516C2.67139 3.65034 2.5 4.20655 2.5 5.00059C2.5 9.72453 6.27615 13.5007 11 13.5007C11.7942 13.5007 12.35 13.3292 12.7248 13.0461C13.0906 12.7698 13.3438 12.342 13.4481 11.699C13.4715 11.5544 13.3688 11.3582 13.1213 11.2964L10.428 10.6231C10.2576 10.5805 10.0774 10.6304 9.9532 10.7546L9.64669 11.0611C9.38624 11.3215 8.91392 11.5787 8.403 11.356C7.77499 11.0824 6.96231 10.4197 6.27136 9.7287C5.58044 9.03776 4.91777 8.22514 4.64435 7.59727C4.4219 7.08646 4.67913 6.61443 4.93934 6.35422L5.24611 6.04746C5.37029 5.92327 5.42022 5.74303 5.37763 5.57265L4.70414 2.87832Z" fill="#777B92"/>
</svg>
