<svg width="24" height="24" viewBox="0 0 24 24" fill="none" xmlns="http://www.w3.org/2000/svg">
<path fill-rule="evenodd" clip-rule="evenodd" d="M21.7071 2.29289C22.0976 2.68342 22.0976 3.31658 21.7071 3.70711L20.4142 5L21.7071 6.29289C22.0976 6.68342 22.0976 7.31658 21.7071 7.70711C21.3166 8.09763 20.6834 8.09763 20.2929 7.70711L19 6.41421L17.7071 7.70711C17.3166 8.09763 16.6834 8.09763 16.2929 7.70711C15.9024 7.31658 15.9024 6.68342 16.2929 6.29289L17.5858 5L16.2929 3.70711C15.9024 3.31658 15.9024 2.68342 16.2929 2.29289C16.6834 1.90237 17.3166 1.90237 17.7071 2.29289L19 3.58579L20.2929 2.29289C20.6834 1.90237 21.3166 1.90237 21.7071 2.29289Z" fill="#777B92"/>
<path fill-rule="evenodd" clip-rule="evenodd" d="M2 9C2 7.89543 2.89543 7 4 7H10.7108C11.2412 7 11.7499 7.21071 12.125 7.58579L16.4142 11.875C16.7893 12.2501 17 12.7588 17 13.2892V20C17 21.1046 16.1046 22 15 22H4C2.89543 22 2 21.1046 2 20V9ZM8 20H11V18H8V20ZM13 20H15V13.2892L10.7108 9H8V11H9C9.55228 11 10 11.4477 10 12C10 12.5523 9.55228 13 9 13H8C6.89543 13 6 12.1046 6 11V9H4V20H6V18C6 16.8954 6.89543 16 8 16H11C12.1046 16 13 16.8954 13 18V20Z" fill="#777B92"/>
</svg>
