<svg width="24" height="24" viewBox="0 0 24 24" fill="none" xmlns="http://www.w3.org/2000/svg">
<path fill-rule="evenodd" clip-rule="evenodd" d="M3 5C3 3.89543 3.89543 3 5 3H13.5858C14.1162 3 14.6249 3.21071 15 3.58579L20.4142 9C20.7893 9.37507 21 9.88378 21 10.4142V19C21 20.1046 20.1046 21 19 21H5C3.89543 21 3 20.1046 3 19V5ZM10 19H14V17H10V19ZM16 19H19V10.4142L13.5858 5H10V9H13C13.5523 9 14 9.44772 14 10C14 10.5523 13.5523 11 13 11H10C8.89543 11 8 10.1046 8 9V5H5V19H8V17C8 15.8954 8.89543 15 10 15H14C15.1046 15 16 15.8954 16 17V19Z" fill="#777B92"/>
</svg>
