<svg width="24" height="24" viewBox="0 0 24 24" fill="none" xmlns="http://www.w3.org/2000/svg">
<path fill-rule="evenodd" clip-rule="evenodd" d="M20 13H13V19C13 19.5523 13.4477 20 14 20C14.5523 20 15 19.5523 15 19C15 18.4477 15.4477 18 16 18C16.5523 18 17 18.4477 17 19C17 20.6569 15.6569 22 14 22C12.3431 22 11 20.6569 11 19V13H4.00001C2.92867 13 1.92674 12.1066 2.0608 10.8919C2.61282 5.89004 6.85145 2 12 2C17.1486 2 21.3872 5.89004 21.9392 10.8919C22.0733 12.1066 21.0714 13 20 13ZM4.0618 11H19.9382C19.4468 7.05414 16.0794 4 12 4C7.92064 4 4.55326 7.05414 4.0618 11Z" fill="#777B92"/>
</svg>
