<svg width="24" height="24" viewBox="0 0 24 24" fill="none" xmlns="http://www.w3.org/2000/svg">
<path fill-rule="evenodd" clip-rule="evenodd" d="M16.2929 3.29289C16.6834 2.90237 17.3166 2.90237 17.7071 3.29289L20.7071 6.29289C21.0976 6.68342 21.0976 7.31658 20.7071 7.70711L16.2071 12.2071C16.0541 12.3601 15.8556 12.4594 15.6414 12.4899L12.1414 12.9899C11.8298 13.0345 11.5155 12.9297 11.2929 12.7071C11.0703 12.4845 10.9655 12.1702 11.0101 11.8586L11.5101 8.35858C11.5407 8.14438 11.6399 7.94589 11.7929 7.79289L13.2902 6.29559L13.2929 6.29289L13.2956 6.29021L16.2929 3.29289ZM14 8.41422L13.4428 8.9714L13.1785 10.8215L15.0286 10.5572L15.5858 10L14 8.41422ZM17 8.58579L18.5858 7L17 5.41421L15.4142 7L17 8.58579Z" fill="#777B92"/>
<path fill-rule="evenodd" clip-rule="evenodd" d="M3 5C3 3.89543 3.89543 3 5 3H11C11.5523 3 12 3.44772 12 4C12 4.55228 11.5523 5 11 5H10V7C10 7.55228 9.55228 8 9 8C8.44772 8 8 7.55228 8 7V5H5V19H8V17C8 15.8954 8.89543 15 10 15H14C15.1046 15 16 15.8954 16 17V19H19V13C19 12.4477 19.4477 12 20 12C20.5523 12 21 12.4477 21 13V19C21 20.1046 20.1046 21 19 21H5C3.89543 21 3 20.1046 3 19V5ZM14 19V17H10V19H14Z" fill="#777B92"/>
</svg>
