<svg width="16" height="16" viewBox="0 0 16 16" fill="none" xmlns="http://www.w3.org/2000/svg">
<path fill-rule="evenodd" clip-rule="evenodd" d="M11.5 2C11.5 1.17157 12.1716 0.5 13 0.5H14C14.8284 0.5 15.5 1.17157 15.5 2V3C15.5 3.82843 14.8284 4.5 14 4.5H13C12.7684 4.5 12.5491 4.44752 12.3533 4.35381L4.35381 12.3533C4.44752 12.5491 4.5 12.7684 4.5 13V14C4.5 14.8284 3.82843 15.5 3 15.5H2C1.17157 15.5 0.5 14.8284 0.5 14V13C0.5 12.1716 1.17157 11.5 2 11.5H3C3.23157 11.5 3.45089 11.5525 3.64671 11.6462L11.6462 3.64671C11.5525 3.45089 11.5 3.23157 11.5 3V2ZM13 1.5C12.7239 1.5 12.5 1.72386 12.5 2V3C12.5 3.27614 12.7239 3.5 13 3.5H14C14.2761 3.5 14.5 3.27614 14.5 3V2C14.5 1.72386 14.2761 1.5 14 1.5H13ZM2 12.5C1.72386 12.5 1.5 12.7239 1.5 13V14C1.5 14.2761 1.72386 14.5 2 14.5H3C3.27614 14.5 3.5 14.2761 3.5 14V13C3.5 12.7239 3.27614 12.5 3 12.5H2Z" fill="#777B92"/>
</svg>
