<svg width="16" height="16" viewBox="0 0 16 16" fill="none" xmlns="http://www.w3.org/2000/svg">
<path fill-rule="evenodd" clip-rule="evenodd" d="M2 0.5H3C3.27614 0.5 3.5 0.723858 3.5 1C3.5 1.27614 3.27614 1.5 3 1.5H2C1.72386 1.5 1.5 1.72386 1.5 2V3C1.5 3.27614 1.27614 3.5 1 3.5C0.723858 3.5 0.5 3.27614 0.5 3V2C0.5 1.17157 1.17157 0.5 2 0.5Z" fill="#777B92"/>
<path fill-rule="evenodd" clip-rule="evenodd" d="M5 0.5H6C6.27614 0.5 6.5 0.723858 6.5 1C6.5 1.27614 6.27614 1.5 6 1.5H5C4.72386 1.5 4.5 1.27614 4.5 1C4.5 0.723858 4.72386 0.5 5 0.5Z" fill="#777B92"/>
<path fill-rule="evenodd" clip-rule="evenodd" d="M8 0.5H9C9.82843 0.5 10.5 1.17157 10.5 2V5.5H14C14.8284 5.5 15.5 6.17157 15.5 7V14C15.5 14.8284 14.8284 15.5 14 15.5H7C6.17157 15.5 5.5 14.8284 5.5 14V10.5H5.15385C4.8777 10.5 4.65385 10.2761 4.65385 10C4.65385 9.72386 4.8777 9.5 5.15385 9.5H9C9.27614 9.5 9.5 9.27614 9.5 9V2C9.5 1.72386 9.27614 1.5 9 1.5H8C7.72386 1.5 7.5 1.27614 7.5 1C7.5 0.723858 7.72386 0.5 8 0.5ZM10.5 6.5V9C10.5 9.82843 9.82843 10.5 9 10.5H6.5V14C6.5 14.2761 6.72386 14.5 7 14.5H14C14.2761 14.5 14.5 14.2761 14.5 14V7C14.5 6.72386 14.2761 6.5 14 6.5H10.5Z" fill="#777B92"/>
<path fill-rule="evenodd" clip-rule="evenodd" d="M1.5 5V6C1.5 6.27614 1.27614 6.5 1 6.5C0.723858 6.5 0.5 6.27614 0.5 6V5C0.5 4.72386 0.723858 4.5 1 4.5C1.27614 4.5 1.5 4.72386 1.5 5Z" fill="#777B92"/>
<path fill-rule="evenodd" clip-rule="evenodd" d="M1.5 8V9C1.5 9.27614 1.72386 9.5 2 9.5H3C3.27614 9.5 3.5 9.72386 3.5 10C3.5 10.2761 3.27614 10.5 3 10.5H2C1.17157 10.5 0.5 9.82843 0.5 9V8C0.5 7.72386 0.723858 7.5 1 7.5C1.27614 7.5 1.5 7.72386 1.5 8Z" fill="#777B92"/>
</svg>
