<svg width="16" height="16" viewBox="0 0 16 16" fill="none" xmlns="http://www.w3.org/2000/svg">
<path fill-rule="evenodd" clip-rule="evenodd" d="M6 2C6 1.17157 6.67157 0.5 7.5 0.5H8.5C9.32843 0.5 10 1.17157 10 2V3C10 3.39317 9.84873 3.75102 9.60121 4.0185L14.2953 11.5291C14.9823 11.6662 15.5 12.2727 15.5 13V14C15.5 14.8284 14.8284 15.5 14 15.5H13C12.3469 15.5 11.7913 15.0826 11.5854 14.5H4.41465C4.20873 15.0826 3.65311 15.5 3 15.5H2C1.17157 15.5 0.5 14.8284 0.5 14V13C0.5 12.2726 1.01776 11.6661 1.70484 11.529L6.39887 4.01859C6.1513 3.75109 6 3.39322 6 3V2ZM4.5 13.5H11.5V13C11.5 12.1716 12.1716 11.5 13 11.5H13.0979L8.71348 4.48492C8.64375 4.49486 8.57248 4.5 8.5 4.5H7.5C7.42757 4.5 7.35633 4.49487 7.28664 4.48494L2.90223 11.5H3C3.82843 11.5 4.5 12.1716 4.5 13V13.5ZM3.5 14V13C3.5 12.7239 3.27614 12.5 3 12.5H2.01115C2.00464 12.5002 1.99811 12.5002 1.99158 12.5001C1.71932 12.5046 1.5 12.7267 1.5 13V14C1.5 14.2761 1.72386 14.5 2 14.5H3C3.27614 14.5 3.5 14.2761 3.5 14ZM12.5 14C12.5 14.2761 12.7239 14.5 13 14.5H14C14.2761 14.5 14.5 14.2761 14.5 14V13C14.5 12.7267 14.2807 12.5046 14.0085 12.5001L14 12.5H13C12.7239 12.5 12.5 12.7239 12.5 13V14ZM7.5 1.5C7.22386 1.5 7 1.72386 7 2V3C7 3.27614 7.22386 3.5 7.5 3.5H8.5C8.77614 3.5 9 3.27614 9 3V2C9 1.72386 8.77614 1.5 8.5 1.5H7.5Z" fill="#777B92"/>
</svg>
