<svg width="16" height="16" viewBox="0 0 16 16" fill="none" xmlns="http://www.w3.org/2000/svg">
<path fill-rule="evenodd" clip-rule="evenodd" d="M10 3C9.91042 3 9.82359 2.98822 9.74098 2.96613L8.85355 3.85355C8.83663 3.87048 8.81879 3.88594 8.8002 3.89993C9.0421 4.22195 9.22974 4.58706 9.34955 4.98167C11.0187 4.03835 12.9471 3.5 15 3.5C15.2761 3.5 15.5 3.72386 15.5 4C15.5 4.27614 15.2761 4.5 15 4.5C12.9824 4.5 11.0989 5.0686 9.49959 6.05417C9.47091 7.94416 7.94416 9.47091 6.05417 9.49959C5.0686 11.0989 4.5 12.9824 4.5 15C4.5 15.2761 4.27614 15.5 4 15.5C3.72386 15.5 3.5 15.2761 3.5 15C3.5 12.9471 4.03835 11.0187 4.98167 9.34955C4.58706 9.22974 4.22195 9.0421 3.89993 8.8002C3.88594 8.81879 3.87048 8.83663 3.85355 8.85355L2.96613 9.74098C2.98822 9.82359 3 9.91042 3 10C3 10.5523 2.55228 11 2 11C1.44772 11 1 10.5523 1 10C1 9.44772 1.44772 9 2 9C2.08958 9 2.17641 9.01178 2.25902 9.03387L3.14645 8.14645C3.16337 8.12952 3.18121 8.11406 3.1998 8.10007C2.76038 7.5151 2.5 6.78796 2.5 6C2.5 4.067 4.067 2.5 6 2.5C6.78796 2.5 7.5151 2.76038 8.10007 3.1998C8.11406 3.18121 8.12952 3.16337 8.14645 3.14645L9.03387 2.25902C9.01178 2.17641 9 2.08958 9 2C9 1.44772 9.44772 1 10 1C10.5523 1 11 1.44772 11 2C11 2.55228 10.5523 3 10 3ZM6 3.5C4.61929 3.5 3.5 4.61929 3.5 6C3.5 7.38071 4.61929 8.5 6 8.5C7.38071 8.5 8.5 7.38071 8.5 6C8.5 4.61929 7.38071 3.5 6 3.5Z" fill="#777B92"/>
</svg>
