<svg width="22" height="22" viewBox="0 0 22 22" fill="none" xmlns="http://www.w3.org/2000/svg">
<path d="M6 3V7H9C9.55229 7 10 7.44772 10 8C10 8.55229 9.55229 9 9 9H6L6 15L6 15.0032C5.99825 16.6586 4.65578 18 3 18C1.34315 18 0 16.6569 0 15C0 14.4477 0.447715 14 1 14C1.55228 14 2 14.4477 2 15C2 15.5523 2.44772 16 3 16C3.55228 16 4 15.5523 4 15L4 9H2C1.44772 9 1 8.55229 1 8C1 7.44772 1.44772 7 2 7H4V3C4 1.34315 5.34315 0 7 0C8.65685 0 10 1.34315 10 3C10 3.55228 9.55228 4 9 4C8.44772 4 8 3.55228 8 3C8 2.44772 7.55228 2 7 2C6.44772 2 6 2.44772 6 3Z" fill="#7887A5"/>
<path d="M15.7071 12.2929C16.0976 12.6834 16.0976 13.3166 15.7071 13.7071L14.4142 15L15.7071 16.2929C16.0976 16.6834 16.0976 17.3166 15.7071 17.7071C15.3166 18.0976 14.6834 18.0976 14.2929 17.7071L13 16.4142L11.7071 17.7071C11.3166 18.0976 10.6834 18.0976 10.2929 17.7071C9.90237 17.3166 9.90237 16.6834 10.2929 16.2929L11.5858 15L10.2929 13.7071C9.90237 13.3166 9.90237 12.6834 10.2929 12.2929C10.6834 11.9024 11.3166 11.9024 11.7071 12.2929L13 13.5858L14.2929 12.2929C14.6834 11.9024 15.3166 11.9024 15.7071 12.2929Z" fill="#7887A5"/>
</svg>
