<svg width="22" height="22" viewBox="0 0 22 22" fill="none" xmlns="http://www.w3.org/2000/svg">
<path fill-rule="evenodd" clip-rule="evenodd" d="M15 7.18696L10.8279 2.91342C9.63891 1.69553 7.71119 1.69553 6.52221 2.91342L3.89174 5.60785C2.70275 6.82574 2.70275 8.80033 3.89174 10.0182L5.91099 12.0866C7.09998 13.3045 9.0277 13.3045 10.2167 12.0866L15 7.18696ZM9.3968 4.31055C8.99257 3.89648 8.35754 3.89648 7.9533 4.31055L5.32769 7H12.0224L9.3968 4.31055ZM10.4349 9H5.69274L7.34209 10.6895C7.74632 11.1035 8.38135 11.1035 8.78559 10.6895L10.4349 9Z" fill="#97A3BA"/>
<path fill-rule="evenodd" clip-rule="evenodd" d="M16.5402 9.1129C16.3844 9.04204 16.215 9.00334 16.0422 9.00024C15.8609 8.99666 15.6819 9.03288 15.5174 9.10526C15.3592 9.17484 15.2192 9.27569 15.1043 9.3995L13.8742 10.6831L13.8712 10.6862C13.3157 11.2709 13.0073 12.0499 13.0001 12.8562C12.9929 13.6624 13.2873 14.4469 13.8319 15.0417L13.8337 15.0436C14.1061 15.3397 14.435 15.5784 14.8022 15.7435C15.1683 15.9081 15.564 15.9956 15.9655 15.9997C16.3711 16.0057 16.7727 15.9259 17.1455 15.7663C17.5187 15.6065 17.854 15.3707 18.1322 15.0753C18.6863 14.4903 18.9934 13.7116 18.9999 12.906C19.0064 12.0998 18.7113 11.3156 18.1662 10.7213L18.1623 10.717L16.9473 9.40758C16.8338 9.28451 16.6959 9.18366 16.5402 9.1129ZM16.6939 12.0749L16.0133 11.3415L15.3199 12.0651C15.1216 12.2745 15.0028 12.5639 15 12.874C14.9973 13.1844 15.111 13.4766 15.3062 13.6902C15.3981 13.7899 15.506 13.8671 15.6223 13.9194C15.7389 13.9718 15.8627 13.9987 15.9869 13.9998L15.9941 13.9999C16.1178 14.0019 16.2416 13.9777 16.3583 13.9277C16.4752 13.8777 16.584 13.8022 16.6768 13.7035L16.6796 13.7006C16.8785 13.4909 16.9975 13.2008 17 12.89C17.0024 12.58 16.8887 12.2883 16.6939 12.0749Z" fill="#97A3BA"/>
<path d="M4 18C3.44772 18 3 18.4477 3 19C3 19.5523 3.44772 20 4 20H18C18.5523 20 19 19.5523 19 19C19 18.4477 18.5523 18 18 18H4Z" fill="#97A3BA"/>
</svg>
