<svg width="24" height="24" viewBox="0 0 24 24" fill="none" xmlns="http://www.w3.org/2000/svg">
<path fill-rule="evenodd" clip-rule="evenodd" d="M4.70711 3.29289L20.7071 19.2929C21.0976 19.6834 21.0976 20.3166 20.7071 20.7071C20.3166 21.0976 19.6834 21.0976 19.2929 20.7071L3.29289 4.70711C2.90237 4.31658 2.90237 3.68342 3.29289 3.29289C3.68342 2.90237 4.31658 2.90237 4.70711 3.29289Z" fill="#777B92"/>
<path fill-rule="evenodd" clip-rule="evenodd" d="M13.024 3.45567C13.849 3.98357 15.5552 5.16163 17.0663 6.77174C18.5555 8.35847 20 10.5186 20 13C20 13.3856 19.9742 13.7642 19.9241 14.1343C19.8499 14.6816 19.3462 15.0651 18.7989 14.991C18.2516 14.9168 17.8681 14.413 17.9422 13.8657C17.9802 13.5853 18 13.2964 18 13C18 11.2857 16.9798 9.6021 15.608 8.14043C14.2893 6.73534 12.7783 5.6769 12 5.17495C11.6572 5.39605 11.1656 5.7293 10.6082 6.1564C10.1698 6.4923 9.54211 6.40921 9.20621 5.97081C8.87032 5.53241 8.95341 4.90473 9.3918 4.56883C10.0316 4.07859 10.5929 3.70083 10.9745 3.45659C11.5997 3.05647 12.3955 3.05351 13.024 3.45567Z" fill="#777B92"/>
<path fill-rule="evenodd" clip-rule="evenodd" d="M6.68753 10.4641C6.25188 11.2957 6 12.1458 6 13C6 16.4352 8.6737 19 12 19C12.9289 19 13.803 18.8001 14.5808 18.4409C15.0822 18.2094 15.6763 18.4281 15.9079 18.9295C16.1394 19.4309 15.9206 20.0251 15.4192 20.2566C14.3785 20.7372 13.2183 21 12 21C7.59431 21 4 17.5648 4 13C4 11.7466 4.36997 10.5781 4.91591 9.53596C5.1722 9.04674 5.77655 8.85791 6.26577 9.1142C6.75499 9.37049 6.94382 9.97484 6.68753 10.4641Z" fill="#777B92"/>
</svg>
