<svg width="22" height="22" viewBox="0 0 22 22" fill="none" xmlns="http://www.w3.org/2000/svg">
<path d="M4.11455 20C3.78431 20 3.51187 19.8898 3.29721 19.6695C3.09907 19.4492 3 19.178 3 18.8559C3 18.7203 3.04128 18.5508 3.12384 18.3475L9.43963 3.04237C9.57172 2.73729 9.75335 2.49153 9.98452 2.30508C10.2322 2.10169 10.5294 2 10.8762 2H11.1238C11.4706 2 11.7595 2.10169 11.9907 2.30508C12.2384 2.49153 12.4283 2.73729 12.5604 3.04237L18.8762 18.3475C18.9587 18.5508 19 18.7203 19 18.8559C19 19.178 18.8927 19.4492 18.678 19.6695C18.4799 19.8898 18.2157 20 17.8854 20C17.6543 20 17.4396 19.9407 17.2415 19.822C17.0599 19.6864 16.9195 19.5085 16.8204 19.2881L15.2105 15.322H6.78947L5.17957 19.2881C5.0805 19.5085 4.93189 19.6864 4.73375 19.822C4.55212 19.9407 4.34572 20 4.11455 20ZM7.65635 13.2119H14.3437L11 4.94915L7.65635 13.2119Z" fill="#97A3BA"/>
</svg>
