<svg width="24" height="24" viewBox="0 0 24 24" fill="none" xmlns="http://www.w3.org/2000/svg">
<path fill-rule="evenodd" clip-rule="evenodd" d="M18 5C17.4477 5 17 5.44772 17 6C17 6.55228 16.5523 7 16 7C15.4477 7 15 6.55228 15 6C15 4.34315 16.3431 3 18 3C19.6569 3 21 4.34315 21 6C21 6.00389 21 6.00778 20.9999 6.01166C20.9969 6.89458 20.6466 7.70418 20.2172 8.37499C19.8291 8.98149 19.3393 9.53247 18.8588 10H20C20.5522 10 21 10.4477 21 11C21 11.5523 20.5522 12 20 12H16C15.5539 12 15.1617 11.7045 15.0387 11.2757C14.9158 10.8471 15.0915 10.3889 15.4693 10.1524C15.4695 10.1523 15.47 10.152 16 11L15.4693 10.1524L15.4753 10.1486L15.5024 10.1313C15.5273 10.1152 15.5656 10.0902 15.6154 10.0568C15.7152 9.99 15.8604 9.89021 16.0358 9.76231C16.3884 9.5052 16.8543 9.1408 17.316 8.70796C17.7814 8.27166 18.2181 7.78841 18.5327 7.29688C18.8515 6.79878 19 6.36255 19 6C19 5.99794 19 5.99589 19 5.99383C18.9967 5.44439 18.5502 5 18 5Z" fill="#777B92"/>
<path fill-rule="evenodd" clip-rule="evenodd" d="M10.9231 7.61538L15.9231 19.6154C16.1355 20.1252 15.8944 20.7107 15.3846 20.9231C14.8748 21.1355 14.2894 20.8944 14.0769 20.3846L13.082 17.9967C13.0549 17.9989 13.0276 18 13 18H7C6.97241 18 6.94509 17.9989 6.91806 17.9967L5.92309 20.3846C5.71068 20.8944 5.1252 21.1355 4.6154 20.9231C4.1056 20.7107 3.86452 20.1252 4.07694 19.6154L9.07694 7.61538C9.23221 7.24274 9.59632 7 10 7C10.4037 7 10.7678 7.24274 10.9231 7.61538ZM12.25 16L10 10.6L7.75002 16H12.25Z" fill="#777B92"/>
</svg>
