<svg width="22" height="22" viewBox="0 0 22 22" fill="none" xmlns="http://www.w3.org/2000/svg">
<path d="M4 7C4 7.55228 3.55228 8 3 8C2.44772 8 2 7.55228 2 7C2 6.44772 2.44772 6 3 6C3.55228 6 4 6.44772 4 7Z" fill="#97A3BA"/>
<path d="M4 15C4 15.5523 3.55228 16 3 16C2.44772 16 2 15.5523 2 15C2 14.4477 2.44772 14 3 14C3.55228 14 4 14.4477 4 15Z" fill="#97A3BA"/>
<path d="M19.06 14H6.94C6.42085 14 6 14.4209 6 14.94V15.06C6 15.5791 6.42085 16 6.94 16H19.06C19.5791 16 20 15.5791 20 15.06V14.94C20 14.4209 19.5791 14 19.06 14Z" fill="#97A3BA"/>
<path d="M6.94 6H19.06C19.5791 6 20 6.42085 20 6.94V7.06C20 7.57915 19.5791 8 19.06 8H6.94C6.42085 8 6 7.57915 6 7.06V6.94C6 6.42085 6.42085 6 6.94 6Z" fill="#97A3BA"/>
</svg>
