<svg width="22" height="22" viewBox="0 0 22 22" fill="none" xmlns="http://www.w3.org/2000/svg">
<path d="M11.4175 19.9991C10.4294 19.9907 9.45304 19.7846 8.54589 19.3931C7.63874 19.0015 6.8192 18.4324 6.13556 17.7193C4.74759 16.2638 3.98166 14.325 4.00033 12.3143C4.01901 10.3036 4.82083 8.37938 6.2356 6.94993L10.8773 2.30022C10.9678 2.20289 11.0778 2.12583 11.2003 2.07412C11.3227 2.02241 11.4547 1.99723 11.5876 2.00024C11.7206 2.00209 11.852 2.03046 11.974 2.08369C12.0959 2.13691 12.206 2.21393 12.2978 2.31022L16.8595 7.02993C18.2488 8.48409 19.0165 10.4222 18.9997 12.4328C18.9829 14.4435 18.1829 16.3685 16.7695 17.7993C16.0734 18.5097 15.2399 19.071 14.3198 19.4492C13.3997 19.8274 12.4122 20.0145 11.4175 19.9991ZM11.5476 4.43009L7.65612 8.34985C6.60537 9.41197 6.01025 10.8417 5.99717 12.3354C5.9841 13.8291 6.5541 15.269 7.5861 16.3493C8.08444 16.8632 8.67949 17.2735 9.33703 17.5566C9.99456 17.8398 10.7016 17.9902 11.4175 17.9992C12.1425 18.0053 12.8613 17.8659 13.5314 17.5893C14.2015 17.3128 14.8094 16.9048 15.319 16.3893C16.3731 15.3284 16.9696 13.897 16.9808 12.4018C16.992 10.9066 16.417 9.46647 15.379 8.38984L11.5476 4.43009Z" fill="#97A3BA"/>
</svg>
