<svg width="22" height="22" viewBox="0 0 22 22" fill="none" xmlns="http://www.w3.org/2000/svg">
<path d="M3.20002 9.1C3.20002 9.59706 3.60297 10 4.10002 10C4.59708 10 5.00002 9.59706 5.00002 9.1V5C5.00002 4.44772 4.55231 4 4.00002 4H1.75C1.33579 4 1 4.33579 1 4.75C1 5.16421 1.33579 5.5 1.75 5.5H3.20002V9.1Z" fill="#97A3BA"/>
<path d="M7.94 6H20.06C20.5791 6 21 6.42085 21 6.94V7.06C21 7.57915 20.5791 8 20.06 8H7.94C7.42085 8 7 7.57915 7 7.06V6.94C7 6.42085 7.42085 6 7.94 6Z" fill="#97A3BA"/>
<path d="M7.94 14H20.06C20.5791 14 21 14.4209 21 14.94V15.06C21 15.5791 20.5791 16 20.06 16H7.94C7.42085 16 7 15.5791 7 15.06V14.94C7 14.4209 7.42085 14 7.94 14Z" fill="#97A3BA"/>
<path d="M1.75 13.5C1.33579 13.5 1 13.1642 1 12.75C1 12.3358 1.33579 12 1.75 12H5.03571C5.56827 12 6 12.4317 6 12.9643C6 13.2119 5.90475 13.45 5.73399 13.6293L3 16.5H5.25C5.66421 16.5 6 16.8358 6 17.25C6 17.6642 5.66421 18 5.25 18H1.96429C1.43173 18 1 17.5683 1 17.0357C1 16.7881 1.09525 16.55 1.26601 16.3707L4 13.5H1.75Z" fill="#97A3BA"/>
</svg>
