<svg width="22" height="22" viewBox="0 0 22 22" fill="none" xmlns="http://www.w3.org/2000/svg">
<path fill-rule="evenodd" clip-rule="evenodd" d="M13 11C12.4477 11 12 10.5523 12 10V9H11C10.4477 9 10 8.55228 10 8C10 7.44772 10.4477 7 11 7H12V5H11C10.4477 5 10 4.55228 10 4C10 3.44772 10.4477 3 11 3H12V2C12 1.44772 12.4477 1 13 1C13.5523 1 14 1.44772 14 2V3H16V2C16 1.44772 16.4477 1 17 1C17.5523 1 18 1.44772 18 2V3H19C19.5523 3 20 3.44772 20 4C20 4.55228 19.5523 5 19 5H18V7H19C19.5523 7 20 7.44771 20 8C20 8.55228 19.5523 9 19 9H18V10C18 10.5523 17.5523 11 17 11C16.4477 11 16 10.5523 16 10V9H14V10C14 10.5523 13.5523 11 13 11ZM14 7V5L16 5V7H14Z" fill="#97A3BA"/>
<path d="M7.88927 3.28418C8.46951 3.12461 9 3.5943 9 4.19608V4.23744C9 4.72556 8.64408 5.13373 8.17894 5.28172C8.01802 5.33292 7.85892 5.39102 7.70207 5.45599C6.60606 5.90997 5.66929 6.67876 5.01022 7.66514C4.35114 8.65151 3.99936 9.81118 3.99936 10.9975C3.99936 12.5883 4.6313 14.1139 5.75615 15.2388C6.88101 16.3636 8.40664 16.9956 9.99743 16.9956C11.1837 16.9956 12.3434 16.6438 13.3298 15.9847C14.3162 15.3256 15.0849 14.3888 15.5389 13.2928C15.6033 13.1374 15.661 12.9797 15.7118 12.8202C15.8601 12.3555 16.2681 12.0001 16.7559 12.0001H16.7981C17.4001 12.0001 17.8702 12.531 17.7101 13.1114C17.433 14.1168 16.958 15.0645 16.3054 15.8959L19.7043 19.2848C19.798 19.3777 19.8724 19.4883 19.9231 19.6101C19.9739 19.732 20 19.8626 20 19.9946C20 20.1266 19.9739 20.2572 19.9231 20.379C19.8724 20.5009 19.798 20.6114 19.7043 20.7044C19.6114 20.7981 19.5008 20.8724 19.379 20.9232C19.2572 20.9739 19.1265 21.0001 18.9945 21.0001C18.8626 21.0001 18.7319 20.9739 18.6101 20.9232C18.4883 20.8724 18.3777 20.7981 18.2848 20.7044L14.8958 17.3055C13.4988 18.4021 11.7735 18.9971 9.99743 18.9949C8.41569 18.9949 6.86947 18.5259 5.5543 17.6471C4.23913 16.7683 3.21408 15.5193 2.60877 14.058C2.00347 12.5966 1.84509 10.9886 2.15367 9.43727C2.46225 7.88592 3.22393 6.46091 4.34239 5.34245C5.32323 4.36162 6.55651 3.65071 7.88927 3.28418Z" fill="#97A3BA"/>
</svg>
