<svg width="22" height="22" viewBox="0 0 22 22" fill="none" xmlns="http://www.w3.org/2000/svg">
<path d="M5 3V10C5 13.3137 7.68629 16 11 16C14.3137 16 17 13.3137 17 10V3C17 2.44772 16.5523 2 16 2C15.4477 2 15 2.44772 15 3V10C15 12.2091 13.2091 14 11 14C8.79086 14 7 12.2091 7 10V3C7 2.44772 6.55228 2 6 2C5.44772 2 5 2.44772 5 3Z" fill="#97A3BA"/>
<path d="M5 18C4.44772 18 4 18.4477 4 19C4 19.5523 4.44772 20 5 20H17C17.5523 20 18 19.5523 18 19C18 18.4477 17.5523 18 17 18H5Z" fill="#97A3BA"/>
</svg>
