<svg width="22" height="22" viewBox="0 0 22 22" fill="none" xmlns="http://www.w3.org/2000/svg">
<path d="M8.28987 20.0002C7.46369 19.9962 6.64656 19.8279 5.88602 19.5052C5.12548 19.1824 4.43674 18.7116 3.85987 18.1202C3.28734 17.5775 2.82743 16.9273 2.50646 16.2067C2.18548 15.4861 2.00975 14.7093 1.98932 13.9208C1.96888 13.1322 2.10415 12.3474 2.38737 11.6111C2.67059 10.8749 3.09621 10.2017 3.63987 9.63016L10.9999 2.20016C11.3929 1.80783 11.8614 1.49923 12.377 1.29298C12.8926 1.08674 13.4447 0.987123 13.9999 1.00016C14.5946 1.00218 15.1829 1.12259 15.7306 1.35437C16.2783 1.58615 16.7744 1.92466 17.1899 2.35016C18.0169 3.14639 18.4965 4.23667 18.5245 5.38433C18.5526 6.53199 18.1269 7.64442 17.3399 8.48015L9.93987 15.9102C9.70286 16.1488 9.42081 16.3379 9.1101 16.4667C8.79939 16.5954 8.4662 16.6612 8.12987 16.6602C7.76655 16.6606 7.40681 16.5883 7.07189 16.4475C6.73698 16.3067 6.43367 16.1001 6.17987 15.8402C5.6726 15.349 5.37965 14.6775 5.36467 13.9716C5.34969 13.2657 5.61389 12.5824 6.09987 12.0702L12.9299 5.21016C13.1243 5.08106 13.3577 5.024 13.5897 5.04887C13.8217 5.07374 14.0377 5.17896 14.2003 5.34632C14.3629 5.51367 14.4619 5.73263 14.4801 5.96526C14.4983 6.1979 14.4345 6.42957 14.2999 6.62016L7.46987 13.4802C7.35598 13.6174 7.30055 13.7938 7.31551 13.9715C7.33047 14.1492 7.41464 14.3139 7.54987 14.4302C7.69059 14.5718 7.88028 14.6542 8.07987 14.6602C8.15381 14.6612 8.22722 14.6476 8.29588 14.6202C8.36453 14.5927 8.42706 14.5519 8.47987 14.5002L15.8699 7.07016C16.2847 6.60934 16.5015 6.00379 16.4734 5.38441C16.4454 4.76502 16.1747 4.18157 15.7199 3.76016C15.2975 3.3216 14.723 3.06162 14.1148 3.03371C13.5065 3.00581 12.9107 3.21211 12.4499 3.61016L5.05987 11.0002C4.70052 11.3861 4.42103 11.8394 4.2375 12.3337C4.05397 12.8281 3.97001 13.354 3.99046 13.8809C4.0109 14.4079 4.13535 14.9256 4.35664 15.4043C4.57793 15.883 4.89169 16.3132 5.27987 16.6702C5.66915 17.0737 6.13494 17.3956 6.65004 17.6171C7.16513 17.8386 7.7192 17.9552 8.27987 17.9602C8.76329 17.9641 9.24272 17.8725 9.69063 17.6905C10.1385 17.5086 10.5461 17.24 10.8899 16.9002L18.2799 9.47016C18.3725 9.37692 18.4825 9.30283 18.6037 9.25212C18.7249 9.2014 18.8549 9.17506 18.9863 9.1746C19.1177 9.17414 19.2479 9.19956 19.3695 9.24941C19.4911 9.29926 19.6016 9.37257 19.6949 9.46516C19.7881 9.55774 19.8622 9.66778 19.9129 9.78899C19.9636 9.91021 19.99 10.0402 19.9904 10.1716C19.9909 10.303 19.9655 10.4332 19.9156 10.5548C19.8658 10.6764 19.7925 10.7869 19.6999 10.8802L12.3099 18.3102C11.7852 18.8441 11.1596 19.2685 10.4695 19.5586C9.77938 19.8487 9.03849 19.9988 8.28987 20.0002Z" fill="#97A3BA"/>
</svg>
