<svg width="24" height="24" viewBox="0 0 24 24" fill="none" xmlns="http://www.w3.org/2000/svg">
<path fill-rule="evenodd" clip-rule="evenodd" d="M13.7095 4.70476L13.7038 4.71043L6.17157 12.172L6.17 12.1735C4.60948 13.7357 4.61 16.2672 6.17157 17.8288C7.72428 19.3815 10.2213 19.3644 11.7929 17.7929L19.2929 10.2929C19.6834 9.90237 20.3166 9.90237 20.7071 10.2929C21.0976 10.6834 21.0976 11.3166 20.7071 11.7071L13.2071 19.2071C10.8734 21.5408 7.10989 21.5956 4.75736 19.243C2.41421 16.8999 2.41421 13.1009 4.75736 10.7577L4.7607 10.7544L12.2929 3.29289L12.2938 3.29197C14.0605 1.52624 16.9092 1.57027 18.6569 3.31797C20.3931 5.05418 20.4827 7.92317 18.7146 9.69955L18.699 9.71514L11.1169 17.1259C9.94493 18.293 8.04877 18.2916 6.87868 17.1215C5.70711 15.9499 5.70711 14.0504 6.87868 12.8788L6.89608 12.8619L13.8103 6.27591C14.2102 5.895 14.8432 5.91039 15.2241 6.31029C15.605 6.7102 15.5896 7.34317 15.1897 7.72409L8.28578 14.3002C7.90238 14.6913 7.90475 15.3191 8.29289 15.7073C8.68342 16.0978 9.31658 16.0978 9.70711 15.7073L9.71523 15.6992L17.2945 8.29128C18.2507 7.33322 18.2371 5.72665 17.2426 4.73218C16.2578 3.7473 14.6767 3.7401 13.7095 4.70476Z" fill="#777B92"/>
</svg>
