<svg width="24" height="24" viewBox="0 0 24 24" fill="none" xmlns="http://www.w3.org/2000/svg">
<path fill-rule="evenodd" clip-rule="evenodd" d="M11.2929 1.29289C11.6834 0.902369 12.3166 0.902369 12.7071 1.29289L14.7071 3.29289C15.0976 3.68342 15.0976 4.31658 14.7071 4.70711C14.3166 5.09763 13.6834 5.09763 13.2929 4.70711L13 4.41421V8C13 8.55228 12.5523 9 12 9C11.4477 9 11 8.55228 11 8L11 4.41421L10.7071 4.70711C10.3166 5.09763 9.68342 5.09763 9.29289 4.70711C8.90237 4.31658 8.90237 3.68342 9.29289 3.29289L11.2929 1.29289Z" fill="#777B92"/>
<path fill-rule="evenodd" clip-rule="evenodd" d="M12.7071 22.7071C12.3166 23.0976 11.6834 23.0976 11.2929 22.7071L9.29289 20.7071C8.90237 20.3166 8.90237 19.6834 9.29289 19.2929C9.68342 18.9024 10.3166 18.9024 10.7071 19.2929L11 19.5858L11 16C11 15.4477 11.4477 15 12 15C12.5523 15 13 15.4477 13 16V19.5858L13.2929 19.2929C13.6834 18.9024 14.3166 18.9024 14.7071 19.2929C15.0976 19.6834 15.0976 20.3166 14.7071 20.7071L12.7071 22.7071Z" fill="#777B92"/>
<path fill-rule="evenodd" clip-rule="evenodd" d="M4 11H20C20.5523 11 21 11.4477 21 12C21 12.5523 20.5523 13 20 13H4C3.44772 13 3 12.5523 3 12C3 11.4477 3.44772 11 4 11Z" fill="#777B92"/>
</svg>
