<svg width="24" height="24" viewBox="0 0 24 24" fill="none" xmlns="http://www.w3.org/2000/svg">
<path fill-rule="evenodd" clip-rule="evenodd" d="M5 3L20 3C20.5523 3 21 3.44772 21 4C21 4.55229 20.5523 5 20 5L5 5V20C5 20.5523 4.55229 21 4 21C3.44772 21 3 20.5523 3 20L3 5C3 3.89543 3.89543 3 5 3Z" fill="#777B92"/>
<path fill-rule="evenodd" clip-rule="evenodd" d="M8 21C7.44772 21 7 20.5523 7 20C7 19.4477 7.44772 19 8 19C8.55228 19 9 19.4477 9 20C9 20.5523 8.55228 21 8 21Z" fill="#777B92"/>
<path fill-rule="evenodd" clip-rule="evenodd" d="M12 21C11.4477 21 11 20.5523 11 20C11 19.4477 11.4477 19 12 19C12.5523 19 13 19.4477 13 20C13 20.5523 12.5523 21 12 21Z" fill="#777B92"/>
<path fill-rule="evenodd" clip-rule="evenodd" d="M17 20C17 20.5523 16.5523 21 16 21C15.4477 21 15 20.5523 15 20C15 19.4477 15.4477 19 16 19C16.5523 19 17 19.4477 17 20Z" fill="#777B92"/>
<path fill-rule="evenodd" clip-rule="evenodd" d="M21 8C21 8.55228 20.5523 9 20 9C19.4477 9 19 8.55228 19 8C19 7.44771 19.4477 7 20 7C20.5523 7 21 7.44771 21 8Z" fill="#777B92"/>
<path fill-rule="evenodd" clip-rule="evenodd" d="M20 13C19.4477 13 19 12.5523 19 12C19 11.4477 19.4477 11 20 11C20.5523 11 21 11.4477 21 12C21 12.5523 20.5523 13 20 13Z" fill="#777B92"/>
<path fill-rule="evenodd" clip-rule="evenodd" d="M21 16C21 16.5523 20.5523 17 20 17C19.4477 17 19 16.5523 19 16C19 15.4477 19.4477 15 20 15C20.5523 15 21 15.4477 21 16Z" fill="#777B92"/>
<path fill-rule="evenodd" clip-rule="evenodd" d="M20 21C19.4477 21 19 20.5523 19 20C19 19.4477 19.4477 19 20 19C20.5523 19 21 19.4477 21 20C21 20.5523 20.5523 21 20 21Z" fill="#777B92"/>
</svg>
