<svg width="22" height="22" viewBox="0 0 22 22" fill="none" xmlns="http://www.w3.org/2000/svg">
<path d="M4 3C4 2.44772 3.55228 2 3 2C2.44772 2 2 2.44772 2 3C2 3.55228 2.44772 4 3 4C3.55228 4 4 3.55228 4 3Z" fill="#97A3BA"/>
<path d="M7 2C7.55228 2 8 2.44772 8 3C8 3.55228 7.55228 4 7 4C6.44772 4 6 3.55228 6 3C6 2.44772 6.44772 2 7 2Z" fill="#97A3BA"/>
<path d="M20 3C20 2.44772 19.5523 2 19 2C18.4477 2 18 2.44772 18 3C18 3.55228 18.4477 4 19 4C19.5523 4 20 3.55228 20 3Z" fill="#97A3BA"/>
<path d="M10 7C10 6.44772 10.4477 6 11 6C11.5523 6 12 6.44772 12 7C12 7.55228 11.5523 8 11 8C10.4477 8 10 7.55228 10 7Z" fill="#97A3BA"/>
<path d="M10 11C10 10.4477 10.4477 10 11 10C11.5523 10 12 10.4477 12 11C12 11.5523 11.5523 12 11 12C10.4477 12 10 11.5523 10 11Z" fill="#97A3BA"/>
<path d="M11 14C10.4477 14 10 14.4477 10 15C10 15.5523 10.4477 16 11 16C11.5523 16 12 15.5523 12 15C12 14.4477 11.5523 14 11 14Z" fill="#97A3BA"/>
<path d="M15 10C15.5523 10 16 10.4477 16 11C16 11.5523 15.5523 12 15 12C14.4477 12 14 11.5523 14 11C14 10.4477 14.4477 10 15 10Z" fill="#97A3BA"/>
<path d="M20 11C20 10.4477 19.5523 10 19 10C18.4477 10 18 10.4477 18 11C18 11.5523 18.4477 12 19 12C19.5523 12 20 11.5523 20 11Z" fill="#97A3BA"/>
<path d="M19 6C19.5523 6 20 6.44772 20 7C20 7.55228 19.5523 8 19 8C18.4477 8 18 7.55228 18 7C18 6.44772 18.4477 6 19 6Z" fill="#97A3BA"/>
<path d="M15 2C15.5523 2 16 2.44772 16 3C16 3.55228 15.5523 4 15 4C14.4477 4 14 3.55228 14 3C14 2.44772 14.4477 2 15 2Z" fill="#97A3BA"/>
<path d="M12 3C12 2.44772 11.5523 2 11 2C10.4477 2 10 2.44772 10 3C10 3.55228 10.4477 4 11 4C11.5523 4 12 3.55228 12 3Z" fill="#97A3BA"/>
<path d="M3 6C3.55228 6 4 6.44772 4 7C4 7.55228 3.55228 8 3 8C2.44772 8 2 7.55228 2 7C2 6.44772 2.44772 6 3 6Z" fill="#97A3BA"/>
<path d="M4 11C4 10.4477 3.55228 10 3 10C2.44772 10 2 10.4477 2 11C2 11.5523 2.44772 12 3 12C3.55228 12 4 11.5523 4 11Z" fill="#97A3BA"/>
<path d="M3 14C3.55228 14 4 14.4477 4 15C4 15.5523 3.55228 16 3 16C2.44772 16 2 15.5523 2 15C2 14.4477 2.44772 14 3 14Z" fill="#97A3BA"/>
<path d="M4 19C4 18.4477 3.55228 18 3 18C2.44772 18 2 18.4477 2 19C2 19.5523 2.44772 20 3 20C3.55228 20 4 19.5523 4 19Z" fill="#97A3BA"/>
<path d="M7 18C7.55228 18 8 18.4477 8 19C8 19.5523 7.55228 20 7 20C6.44772 20 6 19.5523 6 19C6 18.4477 6.44772 18 7 18Z" fill="#97A3BA"/>
<path d="M12 19C12 18.4477 11.5523 18 11 18C10.4477 18 10 18.4477 10 19C10 19.5523 10.4477 20 11 20C11.5523 20 12 19.5523 12 19Z" fill="#97A3BA"/>
<path d="M15 18C15.5523 18 16 18.4477 16 19C16 19.5523 15.5523 20 15 20C14.4477 20 14 19.5523 14 19C14 18.4477 14.4477 18 15 18Z" fill="#97A3BA"/>
<path d="M19 18C19.5523 18 20 18.4477 20 19C20 19.5523 19.5523 20 19 20C18.4477 20 18 19.5523 18 19C18 18.4477 18.4477 18 19 18Z" fill="#97A3BA"/>
<path d="M20 15C20 14.4477 19.5523 14 19 14C18.4477 14 18 14.4477 18 15C18 15.5523 18.4477 16 19 16C19.5523 16 20 15.5523 20 15Z" fill="#97A3BA"/>
<path d="M7 10C7.55228 10 8 10.4477 8 11C8 11.5523 7.55228 12 7 12C6.44772 12 6 11.5523 6 11C6 10.4477 6.44772 10 7 10Z" fill="#97A3BA"/>
</svg>
