<svg width="22" height="22" viewBox="0 0 22 22" fill="none" xmlns="http://www.w3.org/2000/svg">
<path d="M2 19C2 18.4477 2.44772 18 3 18C3.55229 18 4 18.4477 4 19C4 19.5523 3.55229 20 3 20C2.44772 20 2 19.5523 2 19Z" fill="#97A3BA"/>
<path d="M3 14C2.44772 14 2 14.4477 2 15C2 15.5523 2.44772 16 3 16C3.55229 16 4 15.5523 4 15C4 14.4477 3.55229 14 3 14Z" fill="#97A3BA"/>
<path d="M7 12C6.44772 12 6 11.5523 6 11C6 10.4477 6.44772 10 7 10C7.55229 10 8 10.4477 8 11C8 11.5523 7.55229 12 7 12Z" fill="#97A3BA"/>
<path d="M10 11C10 11.5523 10.4477 12 11 12C11.5523 12 12 11.5523 12 11C12 10.4477 11.5523 10 11 10C10.4477 10 10 10.4477 10 11Z" fill="#97A3BA"/>
<path d="M14 11C14 11.5523 14.4477 12 15 12C15.5523 12 16 11.5523 16 11C16 10.4477 15.5523 10 15 10C14.4477 10 14 10.4477 14 11Z" fill="#97A3BA"/>
<path d="M11 6C10.4477 6 10 6.44772 10 7C10 7.55228 10.4477 8 11 8C11.5523 8 12 7.55229 12 7C12 6.44772 11.5523 6 11 6Z" fill="#97A3BA"/>
<path d="M2 7C2 6.44772 2.44772 6 3 6C3.55228 6 4 6.44772 4 7C4 7.55229 3.55228 8 3 8C2.44772 8 2 7.55229 2 7Z" fill="#97A3BA"/>
<path d="M2 11C2 10.4477 2.44772 10 3 10C3.55229 10 4 10.4477 4 11C4 11.5523 3.55229 12 3 12C2.44772 12 2 11.5523 2 11Z" fill="#97A3BA"/>
<path d="M6 19C6 18.4477 6.44772 18 7 18C7.55229 18 8 18.4477 8 19C8 19.5523 7.55229 20 7 20C6.44772 20 6 19.5523 6 19Z" fill="#97A3BA"/>
<path d="M10 19C10 18.4477 10.4477 18 11 18C11.5523 18 12 18.4477 12 19C12 19.5523 11.5523 20 11 20C10.4477 20 10 19.5523 10 19Z" fill="#97A3BA"/>
<path d="M14 19C14 18.4477 14.4477 18 15 18C15.5523 18 16 18.4477 16 19C16 19.5523 15.5523 20 15 20C14.4477 20 14 19.5523 14 19Z" fill="#97A3BA"/>
<path d="M18 19C18 18.4477 18.4477 18 19 18C19.5523 18 20 18.4477 20 19C20 19.5523 19.5523 20 19 20C18.4477 20 18 19.5523 18 19Z" fill="#97A3BA"/>
<path d="M18 15C18 14.4477 18.4477 14 19 14C19.5523 14 20 14.4477 20 15C20 15.5523 19.5523 16 19 16C18.4477 16 18 15.5523 18 15Z" fill="#97A3BA"/>
<path d="M18 11C18 10.4477 18.4477 10 19 10C19.5523 10 20 10.4477 20 11C20 11.5523 19.5523 12 19 12C18.4477 12 18 11.5523 18 11Z" fill="#97A3BA"/>
<path d="M18 7C18 6.44771 18.4477 6 19 6C19.5523 6 20 6.44772 20 7C20 7.55229 19.5523 8 19 8C18.4477 8 18 7.55228 18 7Z" fill="#97A3BA"/>
<path d="M11 14C10.4477 14 10 14.4477 10 15C10 15.5523 10.4477 16 11 16C11.5523 16 12 15.5523 12 15C12 14.4477 11.5523 14 11 14Z" fill="#97A3BA"/>
<path d="M3 2C2.44772 2 2 2.44772 2 3C2 3.55228 2.44772 4 3 4L19 4C19.5523 4 20 3.55229 20 3C20 2.44772 19.5523 2 19 2L3 2Z" fill="#97A3BA"/>
</svg>
