<svg width="24" height="24" viewBox="0 0 24 24" fill="none" xmlns="http://www.w3.org/2000/svg">
<path fill-rule="evenodd" clip-rule="evenodd" d="M12.5858 4.99985C13.3668 4.2188 14.6331 4.2188 15.4142 4.99985L18 7.58564C18.781 8.36668 18.781 9.63301 18 10.4141L15.7181 12.696L15.7071 12.7071L15.696 12.7181L9.45513 18.9589C9.134 19.28 8.71314 19.4823 8.26178 19.5325L5.35277 19.8557C4.07894 19.9972 3.0026 18.9209 3.14414 17.6471L3.46736 14.7381C3.51751 14.2867 3.71979 13.8658 4.04091 13.5447L12.5858 4.99985ZM16.5858 8.99985L14 6.41406L12.4141 7.99992L14.9999 10.5857L16.5858 8.99985ZM5.45513 14.9589L5.1319 17.8679L8.04091 17.5447L13.5857 11.9999L10.9999 9.41413L5.45513 14.9589Z" fill="#777B92"/>
<path fill-rule="evenodd" clip-rule="evenodd" d="M16.0806 16H19.9194C20.7579 16 21.224 16.9699 20.7002 17.6247L18.7809 20.0239C18.3805 20.5243 17.6194 20.5243 17.2191 20.0239L15.2997 17.6247C14.7759 16.9699 15.2421 16 16.0806 16Z" fill="#777B92"/>
</svg>
