<svg width="22" height="22" viewBox="0 0 22 22" fill="none" xmlns="http://www.w3.org/2000/svg">
<path fill-rule="evenodd" clip-rule="evenodd" d="M2 0C0.895431 0 0 0.89543 0 2V8C0 9.10457 0.895431 10 2 10H6V11C6 11.5523 6.44772 12 7 12H13C13.5523 12 14 11.5523 14 11V10H18C19.1046 10 20 9.10457 20 8V2C20 0.89543 19.1046 0 18 0H2ZM8 2V10H12V2H8ZM6 2H2V8H6V2ZM14 8V2H18V8H14Z" fill="#7887A5"/>
<path d="M10 14C10.5523 14 11 14.4477 11 15V16H12C12.5523 16 13 16.4477 13 17C13 17.5523 12.5523 18 12 18H11V19C11 19.5523 10.5523 20 10 20C9.44771 20 9 19.5523 9 19V18H8C7.44772 18 7 17.5523 7 17C7 16.4477 7.44772 16 8 16H9V15C9 14.4477 9.44771 14 10 14Z" fill="#7887A5"/>
</svg>
