<svg width="22" height="22" viewBox="0 0 22 22" fill="none" xmlns="http://www.w3.org/2000/svg">
<path d="M4 6C4 6.55228 3.55228 7 3 7C2.44772 7 2 6.55228 2 6C2 5.44772 2.44772 5 3 5C3.55228 5 4 5.44772 4 6Z" fill="#97A3BA"/>
<path d="M4 11C4 11.5523 3.55228 12 3 12C2.44772 12 2 11.5523 2 11C2 10.4477 2.44772 10 3 10C3.55228 10 4 10.4477 4 11Z" fill="#97A3BA"/>
<path d="M3 17C3.55228 17 4 16.5523 4 16C4 15.4477 3.55228 15 3 15C2.44772 15 2 15.4477 2 16C2 16.5523 2.44772 17 3 17Z" fill="#97A3BA"/>
<path d="M6.94 10H19.06C19.5791 10 20 10.4209 20 10.94V11.06C20 11.5791 19.5791 12 19.06 12H6.94C6.42085 12 6 11.5791 6 11.06V10.94C6 10.4209 6.42085 10 6.94 10Z" fill="#97A3BA"/>
<path d="M19.06 15H6.94C6.42085 15 6 15.4209 6 15.94V16.06C6 16.5791 6.42085 17 6.94 17H19.06C19.5791 17 20 16.5791 20 16.06V15.94C20 15.4209 19.5791 15 19.06 15Z" fill="#97A3BA"/>
<path d="M6.94 5H19.06C19.5791 5 20 5.42085 20 5.94V6.06C20 6.57915 19.5791 7 19.06 7H6.94C6.42085 7 6 6.57915 6 6.06V5.94C6 5.42085 6.42085 5 6.94 5Z" fill="#97A3BA"/>
</svg>
