<svg width="24" height="24" viewBox="0 0 24 24" fill="none" xmlns="http://www.w3.org/2000/svg">
<path fill-rule="evenodd" clip-rule="evenodd" d="M4 5C4 3.89543 4.89543 3 6 3H14C15.1046 3 16 3.89543 16 5V9H20C21.1046 9 22 9.89543 22 11V19C22 20.1046 21.1046 21 20 21H12C10.8954 21 10 20.1046 10 19V15H6C4.89543 15 4 14.1046 4 13V5ZM14 5L6 5V13H10V11C10 9.89543 10.8954 9 12 9H14V5ZM12 19H20V11H12V19Z" fill="#777B92"/>
<path fill-rule="evenodd" clip-rule="evenodd" d="M3.08061 17H6.91936C7.75787 17 8.22404 17.9699 7.70023 18.6247L5.78086 21.0239C5.38053 21.5243 4.61944 21.5243 4.21912 21.0239L2.29974 18.6247C1.77593 17.9699 2.24211 17 3.08061 17Z" fill="#777B92"/>
</svg>
