<svg width="22" height="22" viewBox="0 0 22 22" fill="none" xmlns="http://www.w3.org/2000/svg">
<path d="M3 4C2.44772 4 2 4.44772 2 5C2 5.55228 2.44772 6 3 6H19C19.5523 6 20 5.55228 20 5C20 4.44772 19.5523 4 19 4H3Z" fill="#97A3BA"/>
<path d="M3 16C2.44772 16 2 16.4477 2 17C2 17.5523 2.44772 18 3 18H19C19.5523 18 20 17.5523 20 17C20 16.4477 19.5523 16 19 16H3Z" fill="#97A3BA"/>
<path d="M6 13C6 12.4477 6.49746 12 7.11111 12H14.8889C15.5025 12 16 12.4477 16 13C16 13.5523 15.5025 14 14.8889 14H7.11111C6.49746 14 6 13.5523 6 13Z" fill="#97A3BA"/>
<path d="M7.11111 8C6.49746 8 6 8.44772 6 9C6 9.55228 6.49746 10 7.11111 10H14.8889C15.5025 10 16 9.55228 16 9C16 8.44772 15.5025 8 14.8889 8H7.11111Z" fill="#97A3BA"/>
</svg>
