<svg width="22" height="22" viewBox="0 0 22 22" fill="none" xmlns="http://www.w3.org/2000/svg">
<path fill-rule="evenodd" clip-rule="evenodd" d="M5.67 14H9V17C9 17.7956 9.31607 18.5587 9.87868 19.1213C10.4413 19.6839 11.2044 20 12 20H18C18.7957 20 19.5587 19.6839 20.1213 19.1213C20.6839 18.5587 21 17.7956 21 17V11C21 10.2044 20.6839 9.44129 20.1213 8.87868C19.5587 8.31607 18.7957 8 18 8H15V4.67C14.9974 3.96268 14.7152 3.28509 14.2151 2.78494C13.7149 2.28478 13.0373 2.00263 12.33 2H5.67C4.96268 2.00263 4.28509 2.28478 3.78494 2.78494C3.28478 3.28509 3.00263 3.96268 3 4.67V11.33C3.00263 12.0373 3.28478 12.7149 3.78494 13.2151C4.28509 13.7152 4.96268 13.9974 5.67 14ZM9 11V12H5.67C5.49231 12 5.32189 11.9294 5.19624 11.8038C5.07059 11.6781 5 11.5077 5 11.33V4.67C5 4.49231 5.07059 4.32189 5.19624 4.19624C5.32189 4.07059 5.49231 4 5.67 4H12.33C12.5077 4 12.6781 4.07059 12.8038 4.19624C12.9294 4.32189 13 4.49231 13 4.67V8H12C11.2044 8 10.4413 8.31607 9.87868 8.87868C9.31607 9.44129 9 10.2044 9 11ZM12 10C11.7348 10 11.4804 10.1054 11.2929 10.2929C11.1054 10.4804 11 10.7348 11 11V17C11 17.2652 11.1054 17.5196 11.2929 17.7071C11.4804 17.8946 11.7348 18 12 18H18C18.2652 18 18.5196 17.8946 18.7071 17.7071C18.8946 17.5196 19 17.2652 19 17V11C19 10.7348 18.8946 10.4804 18.7071 10.2929C18.5196 10.1054 18.2652 10 18 10H12Z" fill="#97A3BA"/>
<path d="M6.01879 16.0001H1.98123C0.85725 15.9877 0.740697 17.0001 1.41847 17.6589L3.21902 19.6573C3.50001 20 4.00001 19.9994 4.00001 19.9994C4.00001 19.9994 4.50001 20 4.781 19.6573L6.58155 17.6589C7.25932 17.0001 7.14277 15.9877 6.01879 16.0001Z" fill="#97A3BA"/>
</svg>
