<svg width="22" height="22" viewBox="0 0 22 22" fill="none" xmlns="http://www.w3.org/2000/svg">
<path d="M0.292893 0.292893C0.48043 0.105357 0.734784 0 1 0H5C5.55228 0 6 0.447715 6 1C6 1.55228 5.55228 2 5 2H2V16H5C5.55228 16 6 16.4477 6 17C6 17.5523 5.55228 18 5 18H1C0.447715 18 0 17.5523 0 17V1C0 0.734784 0.105357 0.48043 0.292893 0.292893Z" fill="#A3ADC2"/>
<path d="M19.7071 0.292893C19.5196 0.105357 19.2652 0 19 0H15C14.4477 0 14 0.447715 14 1C14 1.55228 14.4477 2 15 2H18V16H15C14.4477 16 14 16.4477 14 17C14 17.5523 14.4477 18 15 18H19C19.5523 18 20 17.5523 20 17V1C20 0.734784 19.8946 0.48043 19.7071 0.292893Z" fill="#A3ADC2"/>
<path d="M7.98123 7.00011H12.0188C13.1428 6.98772 13.2593 8.00009 12.5816 8.65894L10.781 10.6573C10.5 11 10 10.9994 10 10.9994C10 10.9994 9.50001 11 9.21902 10.6573L7.41847 8.65894C6.7407 8.00009 6.85725 6.98772 7.98123 7.00011Z" fill="#A3ADC2"/>
</svg>
