<svg width="24" height="24" viewBox="0 0 24 24" fill="none" xmlns="http://www.w3.org/2000/svg">
<path fill-rule="evenodd" clip-rule="evenodd" d="M12.5858 3.99985C13.3668 3.2188 14.6331 3.2188 15.4142 3.99985L18 6.58564C18.781 7.36668 18.781 8.63301 18 9.41406L15.7181 11.696L15.7071 11.7071L15.696 11.7181L9.45513 17.9589C9.134 18.28 8.71314 18.4823 8.26178 18.5325L5.35277 18.8557C4.07894 18.9972 3.0026 17.9209 3.14414 16.6471L3.46736 13.7381C3.51751 13.2867 3.71979 12.8658 4.04091 12.5447L12.5858 3.99985ZM16.5858 7.99985L14 5.41406L12.4141 6.99992L14.9999 9.5857L16.5858 7.99985ZM5.45513 13.9589L5.1319 16.8679L8.04091 16.5447L13.5857 10.9999L10.9999 8.41413L5.45513 13.9589Z" fill="#777B92"/>
<path fill-rule="evenodd" clip-rule="evenodd" d="M18.7071 15.2929L20.7071 17.2929C20.8946 17.4804 21 17.7348 21 18C21 18.2652 20.8946 18.5196 20.7071 18.7071L18.7071 20.7071C18.3166 21.0976 17.6834 21.0976 17.2929 20.7071C16.9024 20.3166 16.9024 19.6834 17.2929 19.2929L17.5858 19H14C13.4477 19 13 18.5523 13 18C13 17.4477 13.4477 17 14 17H17.5858L17.2929 16.7071C16.9024 16.3166 16.9024 15.6834 17.2929 15.2929C17.6834 14.9024 18.3166 14.9024 18.7071 15.2929Z" fill="#777B92"/>
</svg>
