<svg width="22" height="22" viewBox="0 0 22 22" fill="none" xmlns="http://www.w3.org/2000/svg">
<path d="M3 2C2.96548 2 2.93137 2.00175 2.89776 2.00516C2.3935 2.05637 2 2.48223 2 3L2 19C2 19.5523 2.44772 20 3 20C3.55229 20 4 19.5523 4 19L4 4L19 4C19.5523 4 20 3.55229 20 3C20 2.44772 19.5523 2 19 2L3 2Z" fill="#97A3BA"/>
<path d="M7 18C6.44772 18 6 18.4477 6 19C6 19.5523 6.44772 20 7 20C7.55229 20 8 19.5523 8 19C8 18.4477 7.55229 18 7 18Z" fill="#97A3BA"/>
<path d="M10 19C10 18.4477 10.4477 18 11 18C11.5523 18 12 18.4477 12 19C12 19.5523 11.5523 20 11 20C10.4477 20 10 19.5523 10 19Z" fill="#97A3BA"/>
<path d="M15 18C14.4477 18 14 18.4477 14 19C14 19.5523 14.4477 20 15 20C15.5523 20 16 19.5523 16 19C16 18.4477 15.5523 18 15 18Z" fill="#97A3BA"/>
<path d="M18 19C18 18.4477 18.4477 18 19 18C19.5523 18 20 18.4477 20 19C20 19.5523 19.5523 20 19 20C18.4477 20 18 19.5523 18 19Z" fill="#97A3BA"/>
<path d="M19 14C18.4477 14 18 14.4477 18 15C18 15.5523 18.4477 16 19 16C19.5523 16 20 15.5523 20 15C20 14.4477 19.5523 14 19 14Z" fill="#97A3BA"/>
<path d="M18 11C18 10.4477 18.4477 10 19 10C19.5523 10 20 10.4477 20 11C20 11.5523 19.5523 12 19 12C18.4477 12 18 11.5523 18 11Z" fill="#97A3BA"/>
<path d="M19 6C18.4477 6 18 6.44771 18 7C18 7.55228 18.4477 8 19 8C19.5523 8 20 7.55229 20 7C20 6.44772 19.5523 6 19 6Z" fill="#97A3BA"/>
</svg>
