<svg width="22" height="22" viewBox="0 0 22 22" fill="none" xmlns="http://www.w3.org/2000/svg">
<path d="M19 2H3C2.73478 2 2.48043 2.10536 2.29289 2.29289C2.10536 2.48043 2 2.73478 2 3V6C2 6.26522 2.10536 6.51957 2.29289 6.70711C2.48043 6.89464 2.73478 7 3 7C3.26522 7 3.51957 6.89464 3.70711 6.70711C3.89464 6.51957 4 6.26522 4 6V4H10V18H8C7.73478 18 7.48043 18.1054 7.29289 18.2929C7.10536 18.4804 7 18.7348 7 19C7 19.2652 7.10536 19.5196 7.29289 19.7071C7.48043 19.8946 7.73478 20 8 20H14C14.2652 20 14.5196 19.8946 14.7071 19.7071C14.8946 19.5196 15 19.2652 15 19C15 18.7348 14.8946 18.4804 14.7071 18.2929C14.5196 18.1054 14.2652 18 14 18H12V4H18V6C18 6.26522 18.1054 6.51957 18.2929 6.70711C18.4804 6.89464 18.7348 7 19 7C19.2652 7 19.5196 6.89464 19.7071 6.70711C19.8946 6.51957 20 6.26522 20 6V3C20 2.73478 19.8946 2.48043 19.7071 2.29289C19.5196 2.10536 19.2652 2 19 2Z" fill="#97A3BA"/>
</svg>
