<svg width="24" height="24" viewBox="0 0 24 24" fill="none" xmlns="http://www.w3.org/2000/svg">
<path fill-rule="evenodd" clip-rule="evenodd" d="M2 3C1.44772 3 1 2.55228 1 2C1 1.44772 1.44772 1 2 1C2.55228 1 3 1.44772 3 2C3 2.55228 2.55228 3 2 3Z" fill="#777B92"/>
<path fill-rule="evenodd" clip-rule="evenodd" d="M18 3C17.4477 3 17 2.55228 17 2C17 1.44772 17.4477 1 18 1C18.5523 1 19 1.44772 19 2C19 2.55228 18.5523 3 18 3Z" fill="#777B92"/>
<path fill-rule="evenodd" clip-rule="evenodd" d="M7 5H21C22.1046 5 23 5.89543 23 7V21C23 22.1046 22.1046 23 21 23H7C5.89543 23 5 22.1046 5 21V7C5 5.89543 5.89543 5 7 5ZM21 7H7V21H21V7Z" fill="#777B92"/>
<path fill-rule="evenodd" clip-rule="evenodd" d="M15 2C15 2.55228 14.5523 3 14 3C13.4477 3 13 2.55228 13 2C13 1.44772 13.4477 1 14 1C14.5523 1 15 1.44772 15 2Z" fill="#777B92"/>
<path fill-rule="evenodd" clip-rule="evenodd" d="M10 3C9.44772 3 9 2.55228 9 2C9 1.44772 9.44772 1 10 1C10.5523 1 11 1.44772 11 2C11 2.55228 10.5523 3 10 3Z" fill="#777B92"/>
<path fill-rule="evenodd" clip-rule="evenodd" d="M7 2C7 2.55228 6.55228 3 6 3C5.44772 3 5 2.55228 5 2C5 1.44772 5.44772 1 6 1C6.55228 1 7 1.44772 7 2Z" fill="#777B92"/>
<path fill-rule="evenodd" clip-rule="evenodd" d="M3 6C3 6.55228 2.55228 7 2 7C1.44772 7 1 6.55228 1 6C1 5.44772 1.44772 5 2 5C2.55228 5 3 5.44772 3 6Z" fill="#777B92"/>
<path fill-rule="evenodd" clip-rule="evenodd" d="M2 11C1.44772 11 1 10.5523 1 10C1 9.44772 1.44772 9 2 9C2.55228 9 3 9.44772 3 10C3 10.5523 2.55228 11 2 11Z" fill="#777B92"/>
<path fill-rule="evenodd" clip-rule="evenodd" d="M3 14C3 14.5523 2.55228 15 2 15C1.44772 15 1 14.5523 1 14C1 13.4477 1.44772 13 2 13C2.55228 13 3 13.4477 3 14Z" fill="#777B92"/>
<path fill-rule="evenodd" clip-rule="evenodd" d="M2 19C1.44772 19 1 18.5523 1 18C1 17.4477 1.44772 17 2 17C2.55228 17 3 17.4477 3 18C3 18.5523 2.55228 19 2 19Z" fill="#777B92"/>
</svg>
