<svg width="22" height="22" viewBox="0 0 22 22" fill="none" xmlns="http://www.w3.org/2000/svg">
<path fill-rule="evenodd" clip-rule="evenodd" d="M14.6642 3.5442L17.4042 6.29413C17.7721 6.64591 17.9861 7.12971 17.9992 7.63952C18.0123 8.14933 17.8235 8.64358 17.4742 9.01395L8.4742 18.0465C8.14824 18.3709 7.721 18.5729 7.2642 18.6186L3.0942 19H3.0042C2.8726 19.0007 2.74213 18.9754 2.6203 18.9255C2.49846 18.8755 2.38764 18.802 2.2942 18.7089C2.19001 18.6047 2.10999 18.4788 2.05986 18.34C2.00974 18.2012 1.99073 18.053 2.0042 17.906L2.4342 13.7209C2.47971 13.2625 2.68097 12.8337 3.0042 12.5065L12.0042 3.47395C12.379 3.15617 12.8571 2.98774 13.3475 3.0007C13.838 3.01365 14.3066 3.20708 14.6642 3.5442ZM4.0842 16.8924L7.0842 16.6114L12.7042 10.9911L10.0042 8.2813L4.3542 13.8815L4.0842 16.8924ZM11.3242 6.95652L14.0042 9.64623L16.0042 7.68916L13.2742 4.94928L11.3242 6.95652Z" fill="#97A3BA"/>
<path d="M19.0188 15.0001H14.9812C13.8572 14.9877 13.7407 16.0001 14.4185 16.6589L16.219 18.6573C16.5 19 17 18.9994 17 18.9994C17 18.9994 17.5 19 17.781 18.6573L19.5816 16.6589C20.2593 16.0001 20.1428 14.9877 19.0188 15.0001Z" fill="#97A3BA"/>
</svg>
