<svg width="24" height="24" viewBox="0 0 24 24" fill="none" xmlns="http://www.w3.org/2000/svg">
<path fill-rule="evenodd" clip-rule="evenodd" d="M2 5C2 3.89543 2.89543 3 4 3H7C7.55228 3 8 3.44772 8 4C8 4.55228 7.55228 5 7 5H4V19H7C7.55228 19 8 19.4477 8 20C8 20.5523 7.55228 21 7 21H4C2.89543 21 2 20.1046 2 19V5Z" fill="#777B92"/>
<path fill-rule="evenodd" clip-rule="evenodd" d="M9.70711 9.29289C10.0976 9.68342 10.0976 10.3166 9.70711 10.7071L9.41421 11H14.5858L14.2929 10.7071C13.9024 10.3166 13.9024 9.68342 14.2929 9.29289C14.6834 8.90237 15.3166 8.90237 15.7071 9.29289L17.7071 11.2929C17.8946 11.4804 18 11.7348 18 12C18 12.2652 17.8946 12.5196 17.7071 12.7071L15.7071 14.7071C15.3166 15.0976 14.6834 15.0976 14.2929 14.7071C13.9024 14.3166 13.9024 13.6834 14.2929 13.2929L14.5858 13H9.41421L9.70711 13.2929C10.0976 13.6834 10.0976 14.3166 9.70711 14.7071C9.31658 15.0976 8.68342 15.0976 8.29289 14.7071L6.29289 12.7071C6.10536 12.5196 6 12.2652 6 12C6 11.7348 6.10536 11.4804 6.29289 11.2929L8.29289 9.29289C8.68342 8.90237 9.31658 8.90237 9.70711 9.29289Z" fill="#777B92"/>
<path fill-rule="evenodd" clip-rule="evenodd" d="M17 3H20C21.1046 3 22 3.89543 22 5V19C22 20.1046 21.1046 21 20 21H17C16.4477 21 16 20.5523 16 20C16 19.4477 16.4477 19 17 19H20V5H17C16.4477 5 16 4.55228 16 4C16 3.44772 16.4477 3 17 3Z" fill="#777B92"/>
</svg>
