<svg width="24" height="24" viewBox="0 0 24 24" fill="none" xmlns="http://www.w3.org/2000/svg">
<path fill-rule="evenodd" clip-rule="evenodd" d="M6 7C6 8.10457 6.89543 9 8 9C8.55228 9 9 9.44772 9 10C9 10.5523 8.55228 11 8 11C5.79086 11 4 9.20914 4 7C4 4.79086 5.79086 3 8 3H19C19.5523 3 20 3.44772 20 4C20 4.55228 19.5523 5 19 5H8C6.89543 5 6 5.89543 6 7Z" fill="#777B92"/>
<path fill-rule="evenodd" clip-rule="evenodd" d="M12 8L12 20C12 20.5523 11.5523 21 11 21C10.4477 21 10 20.5523 10 20L10 8C10 7.44772 10.4477 7 11 7C11.5523 7 12 7.44772 12 8Z" fill="#777B92"/>
<path fill-rule="evenodd" clip-rule="evenodd" d="M17 8L17 20C17 20.5523 16.5523 21 16 21C15.4477 21 15 20.5523 15 20L15 8C15 7.44772 15.4477 7 16 7C16.5523 7 17 7.44772 17 8Z" fill="#777B92"/>
</svg>
