<svg width="24" height="24" viewBox="0 0 24 24" fill="none" xmlns="http://www.w3.org/2000/svg">
<path fill-rule="evenodd" clip-rule="evenodd" d="M16.4142 5.99985L18 7.58564C18.781 8.36668 18.781 9.63302 18 10.4141L16.4142 11.9998C15.6331 12.7809 14.3668 12.7809 13.5858 11.9998L12 10.4141C11.2189 9.63301 11.2189 8.36668 12 7.58563L13.5858 5.99985C14.3668 5.2188 15.6331 5.2188 16.4142 5.99985ZM13.4142 8.99985L15 10.5856L16.5858 8.99985L15 7.41406L13.4142 8.99985Z" fill="#777B92"/>
<path fill-rule="evenodd" clip-rule="evenodd" d="M11.4142 10.9998L13 12.5856C13.781 13.3667 13.781 14.633 13 15.4141L10 18.4141C9.62493 18.7891 9.11622 18.9998 8.58579 18.9998H7C5.89543 18.9998 5 18.1044 5 16.9998V15.4141C5 14.8836 5.21071 14.3749 5.58579 13.9998L8.58579 10.9998C9.36684 10.2188 10.6332 10.2188 11.4142 10.9998ZM7 15.4141L7 16.9998H8.58579L11.5858 13.9998L10 12.4141L7 15.4141Z" fill="#777B92"/>
</svg>
