<svg width="24" height="24" viewBox="0 0 24 24" fill="none" xmlns="http://www.w3.org/2000/svg">
<path fill-rule="evenodd" clip-rule="evenodd" d="M14 2H20C21.1046 2 22 2.89543 22 4V9C22 9.14652 21.9685 9.28567 21.9119 9.41106C21.9692 9.59725 22 9.79502 22 10V14C22 14.205 21.9692 14.4028 21.9119 14.5889C21.9685 14.7143 22 14.8535 22 15V20C22 21.1046 21.1046 22 20 22H14C12.8954 22 12 21.1046 12 20V16C10.8954 16 10 15.1046 10 14V10C10 8.89543 10.8954 8 12 8V4C12 2.89543 12.8954 2 14 2ZM20 8V4H14V8H20ZM20 16H14V20H20V16ZM20 14V10H12V14H20Z" fill="#777B92"/>
<path fill-rule="evenodd" clip-rule="evenodd" d="M7.70711 9.29289C8.09763 9.68342 8.09763 10.3166 7.70711 10.7071L6.41421 12L7.70711 13.2929C8.09763 13.6834 8.09763 14.3166 7.70711 14.7071C7.31658 15.0976 6.68342 15.0976 6.29289 14.7071L5 13.4142L3.70711 14.7071C3.31658 15.0976 2.68342 15.0976 2.29289 14.7071C1.90237 14.3166 1.90237 13.6834 2.29289 13.2929L3.58579 12L2.29289 10.7071C1.90237 10.3166 1.90237 9.68342 2.29289 9.29289C2.68342 8.90237 3.31658 8.90237 3.70711 9.29289L5 10.5858L6.29289 9.29289C6.68342 8.90237 7.31658 8.90237 7.70711 9.29289Z" fill="#777B92"/>
</svg>
