<svg width="22" height="22" viewBox="0 0 22 22" fill="none" xmlns="http://www.w3.org/2000/svg">
<path d="M20 15H17V7.56C17 6.88105 16.7303 6.2299 16.2502 5.74981C15.7701 5.26971 15.119 5 14.44 5H7V2C7 1.73478 6.89464 1.48043 6.70711 1.29289C6.51957 1.10536 6.26522 1 6 1C5.73478 1 5.48043 1.10536 5.29289 1.29289C5.10536 1.48043 5 1.73478 5 2V5H2C1.73478 5 1.48043 5.10536 1.29289 5.29289C1.10536 5.48043 1 5.73478 1 6C1 6.26522 1.10536 6.51957 1.29289 6.70711C1.48043 6.89464 1.73478 7 2 7H5V14.44C5 15.119 5.26971 15.7701 5.74981 16.2502C6.2299 16.7303 6.88105 17 7.56 17H15V20C15 20.2652 15.1054 20.5196 15.2929 20.7071C15.4804 20.8946 15.7348 21 16 21C16.2652 21 16.5196 20.8946 16.7071 20.7071C16.8946 20.5196 17 20.2652 17 20V17H20C20.2652 17 20.5196 16.8946 20.7071 16.7071C20.8946 16.5196 21 16.2652 21 16C21 15.7348 20.8946 15.4804 20.7071 15.2929C20.5196 15.1054 20.2652 15 20 15ZM7.56 15C7.41148 15 7.26904 14.941 7.16402 14.836C7.059 14.731 7 14.5885 7 14.44V7H14.44C14.5885 7 14.731 7.059 14.836 7.16402C14.941 7.26904 15 7.41148 15 7.56V15H7.56Z" fill="#97A3BA"/>
</svg>
