<svg width="24" height="24" viewBox="0 0 24 24" fill="none" xmlns="http://www.w3.org/2000/svg">
<path fill-rule="evenodd" clip-rule="evenodd" d="M10.2111 5.3419C10.9482 3.8678 13.0518 3.86781 13.7888 5.3419L18.8944 15.553C19.1414 16.047 18.9412 16.6477 18.4472 16.8947C17.9532 17.1417 17.3525 16.9415 17.1055 16.4475L15.8818 14H8.11814L6.8944 16.4475C6.64741 16.9415 6.04674 17.1417 5.55276 16.8947C5.05878 16.6477 4.85856 16.047 5.10555 15.553L10.2111 5.3419ZM9.11814 12H14.8818L12 6.23633L9.11814 12Z" fill="#777B92"/>
<path fill-rule="evenodd" clip-rule="evenodd" d="M4 20C4 19.4477 4.44772 19 5 19H19C19.5523 19 20 19.4477 20 20C20 20.5523 19.5523 21 19 21H5C4.44772 21 4 20.5523 4 20Z" fill="#777B92"/>
</svg>
