<svg width="22" height="22" viewBox="0 0 22 22" fill="none" xmlns="http://www.w3.org/2000/svg">
<path d="M8.70711 5.70711C9.09763 5.31658 9.09763 4.68342 8.70711 4.29289C8.31658 3.90237 7.68342 3.90237 7.29289 4.29289L7 4.58579V1C7 0.447715 6.55228 0 6 0C5.44772 0 5 0.447715 5 1V4.58579L4.70711 4.29289C4.31658 3.90237 3.68342 3.90237 3.29289 4.29289C2.90237 4.68342 2.90237 5.31658 3.29289 5.70711L5.29289 7.70711C5.68342 8.09763 6.31658 8.09763 6.70711 7.70711L8.70711 5.70711Z" fill="#7887A5"/>
<path fill-rule="evenodd" clip-rule="evenodd" d="M0 16C0 17.1046 0.895431 18 2 18H10C11.1046 18 12 17.1046 12 16V14C12 12.8954 11.1046 12 10 12H2C0.89543 12 0 12.8954 0 14V16ZM2 16L2 14H10V16H2Z" fill="#7887A5"/>
<path d="M17 2C16.4477 2 16 1.55228 16 1C16 0.447715 16.4477 0 17 0C17.5523 0 18 0.447715 18 1C18 1.55228 17.5523 2 17 2Z" fill="#7887A5"/>
<path d="M16 5C16 5.55228 16.4477 6 17 6C17.5523 6 18 5.55228 18 5C18 4.44772 17.5523 4 17 4C16.4477 4 16 4.44772 16 5Z" fill="#7887A5"/>
<path d="M17 10C16.4477 10 16 9.55228 16 9C16 8.44771 16.4477 8 17 8C17.5523 8 18 8.44771 18 9C18 9.55229 17.5523 10 17 10Z" fill="#7887A5"/>
<path d="M12 9C12 9.55228 12.4477 10 13 10C13.5523 10 14 9.55229 14 9C14 8.44771 13.5523 8 13 8C12.4477 8 12 8.44771 12 9Z" fill="#7887A5"/>
<path d="M14 5C14 5.55228 13.5523 6 13 6C12.4477 6 12 5.55228 12 5C12 4.44772 12.4477 4 13 4C13.5523 4 14 4.44772 14 5Z" fill="#7887A5"/>
<path d="M12 1C12 1.55228 12.4477 2 13 2C13.5523 2 14 1.55228 14 1C14 0.447715 13.5523 0 13 0C12.4477 0 12 0.447715 12 1Z" fill="#7887A5"/>
</svg>
