<svg width="24" height="24" viewBox="0 0 24 24" fill="none" xmlns="http://www.w3.org/2000/svg">
<path fill-rule="evenodd" clip-rule="evenodd" d="M13 7H14C14.5523 7 15 7.44772 15 8C15 8.55228 14.5523 9 14 9H13V10.382C13 11.0285 12.6882 11.6277 12.1757 12C12.6882 12.3723 13 12.9715 13 13.618V15H14C14.5523 15 15 15.4477 15 16C15 16.5523 14.5523 17 14 17H13C11.8954 17 11 16.1046 11 15V13.618L9.55279 12.8944C9.214 12.725 9 12.3788 9 12C9 11.6212 9.214 11.275 9.55279 11.1056L11 10.382V9C11 7.89543 11.8954 7 13 7Z" fill="#777B92"/>
<path fill-rule="evenodd" clip-rule="evenodd" d="M5 3H19C20.1046 3 21 3.89543 21 5V19C21 20.1046 20.1046 21 19 21H5C3.89543 21 3 20.1046 3 19V5C3 3.89543 3.89543 3 5 3ZM5 5V19H19V5H5Z" fill="#777B92"/>
</svg>
