<svg width="22" height="22" viewBox="0 0 22 22" fill="none" xmlns="http://www.w3.org/2000/svg">
<path d="M4 3C4 2.44772 3.55228 2 3 2C2.44772 2 2 2.44772 2 3C2 3.55228 2.44772 4 3 4C3.55228 4 4 3.55228 4 3Z" fill="#97A3BA"/>
<path d="M7 2C7.55228 2 8 2.44772 8 3C8 3.55228 7.55228 4 7 4C6.44772 4 6 3.55228 6 3C6 2.44772 6.44772 2 7 2Z" fill="#97A3BA"/>
<path d="M19 2C19.5523 2 20 2.44772 20 3C20 3.55228 19.5523 4 19 4C18.4477 4 18 3.55228 18 3C18 2.44772 18.4477 2 19 2Z" fill="#97A3BA"/>
<path d="M19 6C19.5523 6 20 6.44772 20 7C20 7.55228 19.5523 8 19 8C18.4477 8 18 7.55228 18 7C18 6.44772 18.4477 6 19 6Z" fill="#97A3BA"/>
<path d="M16 3C16 2.44772 15.5523 2 15 2C14.4477 2 14 2.44772 14 3C14 3.55228 14.4477 4 15 4C15.5523 4 16 3.55228 16 3Z" fill="#97A3BA"/>
<path d="M3 6C3.55228 6 4 6.44772 4 7C4 7.55228 3.55228 8 3 8C2.44772 8 2 7.55228 2 7C2 6.44772 2.44772 6 3 6Z" fill="#97A3BA"/>
<path d="M4 15C4 14.4477 3.55228 14 3 14C2.44772 14 2 14.4477 2 15C2 15.5523 2.44772 16 3 16C3.55228 16 4 15.5523 4 15Z" fill="#97A3BA"/>
<path d="M4 19C4 18.4477 3.55228 18 3 18C2.44772 18 2 18.4477 2 19C2 19.5523 2.44772 20 3 20C3.55228 20 4 19.5523 4 19Z" fill="#97A3BA"/>
<path d="M8 19C8 18.4477 7.55228 18 7 18C6.44772 18 6 18.4477 6 19C6 19.5523 6.44772 20 7 20C7.55228 20 8 19.5523 8 19Z" fill="#97A3BA"/>
<path d="M15 18C15.5523 18 16 18.4477 16 19C16 19.5523 15.5523 20 15 20C14.4477 20 14 19.5523 14 19C14 18.4477 14.4477 18 15 18Z" fill="#97A3BA"/>
<path d="M20 19C20 18.4477 19.5523 18 19 18C18.4477 18 18 18.4477 18 19C18 19.5523 18.4477 20 19 20C19.5523 20 20 19.5523 20 19Z" fill="#97A3BA"/>
<path d="M20 15C20 14.4477 19.5523 14 19 14C18.4477 14 18 14.4477 18 15C18 15.5523 18.4477 16 19 16C19.5523 16 20 15.5523 20 15Z" fill="#97A3BA"/>
<path d="M2 11C2 10.4477 2.44772 10 3 10H10L10 3C10 2.44772 10.4477 2 11 2C11.5523 2 12 2.44772 12 3V10H19C19.5523 10 20 10.4477 20 11C20 11.5523 19.5523 12 19 12H12V19C12 19.5523 11.5523 20 11 20C10.4477 20 10 19.5523 10 19L10 12H3C2.44772 12 2 11.5523 2 11Z" fill="#97A3BA"/>
</svg>
