<svg width="22" height="22" viewBox="0 0 22 22" fill="none" xmlns="http://www.w3.org/2000/svg">
<path fill-rule="evenodd" clip-rule="evenodd" d="M12.6642 0.544205L15.4042 3.29413C15.7721 3.64591 15.9861 4.12971 15.9992 4.63952C16.0123 5.14933 15.8235 5.64358 15.4742 6.01395L6.4742 15.0465C6.14824 15.3709 5.721 15.5729 5.2642 15.6186L1.0942 16H1.0042C0.872596 16.0007 0.742134 15.9754 0.620297 15.9255C0.498459 15.8755 0.387643 15.802 0.294203 15.7089C0.190005 15.6047 0.109991 15.4788 0.0598642 15.34C0.00973728 15.2012 -0.00926809 15.053 0.00420295 14.906L0.434203 10.7209C0.479707 10.2625 0.680969 9.8337 1.0042 9.50655L10.0042 0.473951C10.379 0.156174 10.8571 -0.0122583 11.3475 0.000695267C11.838 0.0136488 12.3066 0.207084 12.6642 0.544205ZM2.0842 13.8924L5.0842 13.6114L10.7042 7.99108L8.0042 5.2813L2.3542 10.8815L2.0842 13.8924ZM9.3242 3.95652L12.0042 6.64623L14.0042 4.68916L11.2742 1.94928L9.3242 3.95652Z" fill="#7887A5"/>
<path d="M15.7071 12.2929C15.3166 11.9024 14.6834 11.9024 14.2929 12.2929C13.9024 12.6834 13.9024 13.3166 14.2929 13.7071L14.5858 14H12C11.4477 14 11 14.4477 11 15C11 15.5523 11.4477 16 12 16H14.5858L14.2929 16.2929C13.9024 16.6834 13.9024 17.3166 14.2929 17.7071C14.6834 18.0976 15.3166 18.0976 15.7071 17.7071L17.7071 15.7071C18.0976 15.3166 18.0976 14.6834 17.7071 14.2929L15.7071 12.2929Z" fill="#7887A5"/>
</svg>
