<svg width="22" height="22" viewBox="0 0 22 22" fill="none" xmlns="http://www.w3.org/2000/svg">
<path fill-rule="evenodd" clip-rule="evenodd" d="M0 2C0 0.89543 0.895431 0 2 0H18C19.1046 0 20 0.89543 20 2V8C20 9.10457 19.1046 10 18 10H14V11C14 11.5523 13.5523 12 13 12H7C6.44772 12 6 11.5523 6 11V10H2C0.895431 10 0 9.10457 0 8V2ZM12 2H8V10H12V2ZM14 8H18V2H14V8ZM2 2H6V8H2V2Z" fill="#7887A5"/>
<path d="M12.7071 18.2929L11.4142 17L12.7071 15.7071C13.0976 15.3166 13.0976 14.6834 12.7071 14.2929C12.3166 13.9024 11.6834 13.9024 11.2929 14.2929L10 15.5858L8.70711 14.2929C8.31658 13.9024 7.68342 13.9024 7.29289 14.2929C6.90237 14.6834 6.90237 15.3166 7.29289 15.7071L8.58579 17L7.29289 18.2929C6.90237 18.6834 6.90237 19.3166 7.29289 19.7071C7.68342 20.0976 8.31658 20.0976 8.70711 19.7071L10 18.4142L11.2929 19.7071C11.6834 20.0976 12.3166 20.0976 12.7071 19.7071C13.0976 19.3166 13.0976 18.6834 12.7071 18.2929Z" fill="#7887A5"/>
</svg>
