<svg width="22" height="22" viewBox="0 0 22 22" fill="none" xmlns="http://www.w3.org/2000/svg">
<path d="M11 21.0012C9.44908 21.0388 7.94653 20.4599 6.82179 19.3914C5.69705 18.3229 5.0419 16.852 5 15.3012V5.13121C5.02883 4.01012 5.50064 2.94611 6.31216 2.17208C7.12368 1.39804 8.20879 0.977039 9.33 1.00121C10.4529 0.974353 11.5406 1.39416 12.3543 2.16848C13.168 2.9428 13.6412 4.00835 13.67 5.13121V15.3112C13.6284 15.9898 13.3295 16.627 12.8343 17.0928C12.3391 17.5585 11.6849 17.8179 11.005 17.8179C10.3251 17.8179 9.6709 17.5585 9.17568 17.0928C8.68047 16.627 8.38159 15.9898 8.34 15.3112V5.92121C8.34 5.656 8.44536 5.40164 8.63289 5.21411C8.82043 5.02657 9.07478 4.92121 9.34 4.92121C9.60522 4.92121 9.85957 5.02657 10.0471 5.21411C10.2346 5.40164 10.34 5.656 10.34 5.92121V15.3112C10.3599 15.4735 10.4386 15.623 10.5611 15.7313C10.6836 15.8397 10.8415 15.8995 11.005 15.8995C11.1685 15.8995 11.3264 15.8397 11.4489 15.7313C11.5714 15.623 11.6501 15.4735 11.67 15.3112V5.13121C11.6389 4.53962 11.3758 3.98416 10.9377 3.58539C10.4996 3.18661 9.9219 2.9767 9.33 3.00121C8.73979 2.9794 8.16467 3.19052 7.72876 3.58901C7.29285 3.98751 7.0311 4.54142 7 5.13121V15.3012C7.04163 16.3216 7.48597 17.284 8.23569 17.9775C8.98541 18.671 9.97942 19.0391 11 19.0012C12.0206 19.0391 13.0146 18.671 13.7643 17.9775C14.514 17.284 14.9584 16.3216 15 15.3012V5.13121C15 4.866 15.1054 4.61164 15.2929 4.42411C15.4804 4.23657 15.7348 4.13121 16 4.13121C16.2652 4.13121 16.5196 4.23657 16.7071 4.42411C16.8946 4.61164 17 4.866 17 5.13121V15.3012C16.9581 16.852 16.303 18.3229 15.1782 19.3914C14.0535 20.4599 12.5509 21.0388 11 21.0012Z" fill="#97A3BA"/>
</svg>
