<svg width="24" height="24" viewBox="0 0 24 24" fill="none" xmlns="http://www.w3.org/2000/svg">
<path fill-rule="evenodd" clip-rule="evenodd" d="M12 5.17538C11.2217 5.67733 9.71073 6.73576 8.392 8.14085C7.02016 9.60253 6 11.2861 6 13.0004C6 16.4356 8.6737 19.0004 12 19.0004C15.3263 19.0004 18 16.4356 18 13.0004C18 11.2861 16.9798 9.60253 15.608 8.14085C14.2893 6.73576 12.7783 5.67733 12 5.17538ZM10.976 3.45609C11.6028 3.055 12.3972 3.055 13.024 3.45609C13.849 3.98399 15.5552 5.16206 17.0663 6.77216C18.5555 8.35889 20 10.519 20 13.0004C20 17.5652 16.4057 21.0004 12 21.0004C7.59431 21.0004 4 17.5652 4 13.0004C4 10.519 5.44447 8.35889 6.93368 6.77216C8.44484 5.16206 10.151 3.98399 10.976 3.45609Z" fill="#777B92"/>
</svg>
