<svg width="22" height="22" viewBox="0 0 22 22" fill="none" xmlns="http://www.w3.org/2000/svg">
<path d="M18.4042 6.29413L15.6642 3.5442C15.3066 3.20708 14.838 3.01365 14.3475 3.0007C13.8571 2.98774 13.379 3.15617 13.0042 3.47395L4.0042 12.5065C3.68097 12.8337 3.47971 13.2625 3.4342 13.7209L3.0042 17.906C2.99073 18.053 3.00974 18.2012 3.05986 18.34C3.10999 18.4788 3.19001 18.6047 3.2942 18.7089C3.38764 18.802 3.49846 18.8755 3.6203 18.9255C3.74213 18.9754 3.8726 19.0007 4.0042 19H4.0942L8.2642 18.6186C8.721 18.5729 9.14824 18.3709 9.4742 18.0465L18.4742 9.01395C18.8235 8.64358 19.0123 8.14933 18.9992 7.63952C18.9861 7.12971 18.7721 6.64591 18.4042 6.29413ZM8.0842 16.6114L5.0842 16.8924L5.3542 13.8815L11.0042 8.2813L13.7042 10.9911L8.0842 16.6114ZM15.0042 9.64623L12.3242 6.95652L14.2742 4.94928L17.0042 7.68916L15.0042 9.64623Z" fill="#97A3BA"/>
</svg>
