<svg width="22" height="22" viewBox="0 0 22 22" fill="none" xmlns="http://www.w3.org/2000/svg">
<path d="M18.451 3.06647C18.5591 3.11131 18.6573 3.17704 18.74 3.25989C18.8228 3.34255 18.8886 3.44075 18.9334 3.54886C18.9783 3.65696 19.0014 3.77285 19.0014 3.88989C19.0014 4.00692 18.9783 4.12281 18.9334 4.23092C18.8886 4.33902 18.8228 4.43722 18.74 4.51989L4.52 18.7399C4.39553 18.8646 4.23682 18.9496 4.064 18.9841C3.89118 19.0185 3.71202 19.0009 3.54923 18.9334C3.38644 18.8659 3.24734 18.7517 3.14956 18.6051C3.05179 18.4584 2.99973 18.2861 3 18.1099C3.00179 17.8741 3.095 17.6483 3.26 17.4799L17.48 3.25989C17.5627 3.17704 17.6609 3.11131 17.769 3.06647C17.8771 3.02162 17.993 2.99854 18.11 2.99854C18.227 2.99854 18.3429 3.02162 18.451 3.06647Z" fill="#97A3BA"/>
<path fill-rule="evenodd" clip-rule="evenodd" d="M6.5 10C7.19224 10 7.86893 9.79473 8.4445 9.41015C9.02007 9.02556 9.46867 8.47893 9.73358 7.83939C9.99849 7.19985 10.0678 6.49612 9.93275 5.81719C9.7977 5.13825 9.46436 4.51461 8.97487 4.02513C8.48539 3.53564 7.86175 3.2023 7.18282 3.06725C6.50388 2.9322 5.80015 3.00152 5.16061 3.26642C4.52107 3.53133 3.97444 3.97993 3.58986 4.55551C3.20527 5.13108 3 5.80777 3 6.5C3 7.42826 3.36875 8.3185 4.02513 8.97487C4.6815 9.63125 5.57174 10 6.5 10ZM6.5 5C6.79667 5 7.08668 5.08798 7.33336 5.2528C7.58003 5.41762 7.77229 5.65189 7.88582 5.92598C7.99935 6.20007 8.02906 6.50167 7.97118 6.79264C7.9133 7.08361 7.77044 7.35088 7.56066 7.56066C7.35088 7.77044 7.08361 7.9133 6.79264 7.97118C6.50167 8.02906 6.20006 7.99935 5.92598 7.88582C5.65189 7.77229 5.41762 7.58003 5.2528 7.33336C5.08797 7.08668 5 6.79667 5 6.5C5 6.10218 5.15804 5.72065 5.43934 5.43934C5.72065 5.15804 6.10218 5 6.5 5Z" fill="#97A3BA"/>
<path fill-rule="evenodd" clip-rule="evenodd" d="M15.5 12C14.8078 12 14.1311 12.2053 13.5555 12.5899C12.9799 12.9744 12.5313 13.5211 12.2664 14.1606C12.0015 14.8001 11.9322 15.5039 12.0673 16.1828C12.2023 16.8617 12.5356 17.4854 13.0251 17.9749C13.5146 18.4644 14.1383 18.7977 14.8172 18.9327C15.4961 19.0678 16.1999 18.9985 16.8394 18.7336C17.4789 18.4687 18.0256 18.0201 18.4101 17.4445C18.7947 16.8689 19 16.1922 19 15.5C19 14.5717 18.6313 13.6815 17.9749 13.0251C17.3185 12.3687 16.4283 12 15.5 12ZM15.5 17C15.2033 17 14.9133 16.912 14.6666 16.7472C14.42 16.5824 14.2277 16.3481 14.1142 16.074C14.0007 15.7999 13.9709 15.4983 14.0288 15.2074C14.0867 14.9164 14.2296 14.6491 14.4393 14.4393C14.6491 14.2296 14.9164 14.0867 15.2074 14.0288C15.4983 13.9709 15.7999 14.0007 16.074 14.1142C16.3481 14.2277 16.5824 14.42 16.7472 14.6666C16.912 14.9133 17 15.2033 17 15.5C17 15.8978 16.842 16.2794 16.5607 16.5607C16.2794 16.842 15.8978 17 15.5 17Z" fill="#97A3BA"/>
</svg>
