<svg width="22" height="22" viewBox="0 0 22 22" fill="none" xmlns="http://www.w3.org/2000/svg">
<path d="M11.2516 7.70711L13.6887 5.41421C14.1038 5.02369 14.1038 4.39052 13.6887 4C13.2736 3.60948 12.6006 3.60948 12.1855 4L11.5629 4.58579V1C11.5629 0.447715 11.087 0 10.5 0C9.91298 0 9.43711 0.447716 9.43711 1V4.58579L8.81448 4C8.39939 3.60948 7.7264 3.60948 7.31132 4C6.89623 4.39052 6.89623 5.02369 7.31131 5.41421L9.74842 7.70711C10.1635 8.09763 10.8365 8.09763 11.2516 7.70711Z" fill="#97A3BA"/>
<path d="M9.74842 14.2929L7.31131 16.5858C6.89623 16.9763 6.89623 17.6095 7.31131 18C7.7264 18.3905 8.39939 18.3905 8.81448 18L9.4371 17.4142V21C9.4371 21.5523 9.91298 22 10.5 22C11.087 22 11.5629 21.5523 11.5629 21V17.4142L12.1855 18C12.6006 18.3905 13.2736 18.3905 13.6887 18C14.1038 17.6095 14.1038 16.9763 13.6887 16.5858L11.2516 14.2929C10.8365 13.9024 10.1635 13.9024 9.74842 14.2929Z" fill="#97A3BA"/>
<path d="M3 10C2.44772 10 2 10.4477 2 11C2 11.5523 2.44772 12 3 12H19C19.5523 12 20 11.5523 20 11C20 10.4477 19.5523 10 19 10H3Z" fill="#97A3BA"/>
</svg>
