<svg width="24" height="24" viewBox="0 0 24 24" fill="none" xmlns="http://www.w3.org/2000/svg">
<path fill-rule="evenodd" clip-rule="evenodd" d="M17 5C17 3.89543 17.8954 3 19 3H21C22.1046 3 23 3.89543 23 5V14C23 15.1046 22.1046 16 21 16H19C17.8954 16 17 15.1046 17 14V5ZM21 5L19 5V14H21V5Z" fill="#777B92"/>
<path fill-rule="evenodd" clip-rule="evenodd" d="M3 19C3 17.8954 3.89543 17 5 17H14C15.1046 17 16 17.8954 16 19V21C16 22.1046 15.1046 23 14 23H5C3.89543 23 3 22.1046 3 21V19ZM14 19H5V21H14V19Z" fill="#777B92"/>
<path fill-rule="evenodd" clip-rule="evenodd" d="M13.2071 3.79289L14.7071 5.29289C15.0115 5.59725 15.0869 6.06222 14.8944 6.44721L13.8944 8.44721C13.6474 8.94119 13.0468 9.14142 12.5528 8.89443C12.0588 8.64744 11.8586 8.04676 12.1056 7.55279L12.2749 7.21418C9.79495 7.8427 7.8427 9.79495 7.21418 12.2749L7.55279 12.1056C8.04676 11.8586 8.64744 12.0588 8.89443 12.5528C9.14142 13.0468 8.94119 13.6474 8.44721 13.8944L6.44721 14.8944C6.06222 15.0869 5.59725 15.0115 5.29289 14.7071L3.79289 13.2071C3.40237 12.8166 3.40237 12.1834 3.79289 11.7929C4.18342 11.4024 4.81658 11.4024 5.20711 11.7929L5.25956 11.8453C6.0555 8.60564 8.60564 6.0555 11.8453 5.25956L11.7929 5.20711C11.4024 4.81658 11.4024 4.18342 11.7929 3.79289C12.1834 3.40237 12.8166 3.40237 13.2071 3.79289Z" fill="#777B92"/>
</svg>
