<svg width="24" height="24" viewBox="0 0 24 24" fill="none" xmlns="http://www.w3.org/2000/svg">
<path fill-rule="evenodd" clip-rule="evenodd" d="M3 6C3 5.44772 3.44772 5 4 5H20C20.5523 5 21 5.44772 21 6C21 6.55228 20.5523 7 20 7H4C3.44772 7 3 6.55228 3 6Z" fill="#777B92"/>
<path fill-rule="evenodd" clip-rule="evenodd" d="M7.29289 9.29289C7.68342 8.90237 8.31658 8.90237 8.70711 9.29289L10.7071 11.2929C10.8946 11.4804 11 11.7348 11 12C11 12.2652 10.8946 12.5196 10.7071 12.7071L8.70711 14.7071C8.31658 15.0976 7.68342 15.0976 7.29289 14.7071C6.90237 14.3166 6.90237 13.6834 7.29289 13.2929L7.58579 13H4C3.44772 13 3 12.5523 3 12C3 11.4477 3.44772 11 4 11H7.58579L7.29289 10.7071C6.90237 10.3166 6.90237 9.68342 7.29289 9.29289Z" fill="#777B92"/>
<path fill-rule="evenodd" clip-rule="evenodd" d="M4 17H20C20.5523 17 21 17.4477 21 18C21 18.5523 20.5523 19 20 19H4C3.44772 19 3 18.5523 3 18C3 17.4477 3.44772 17 4 17Z" fill="#777B92"/>
<path fill-rule="evenodd" clip-rule="evenodd" d="M12 14C12 13.4477 12.4477 13 13 13H20C20.5523 13 21 13.4477 21 14C21 14.5523 20.5523 15 20 15H13C12.4477 15 12 14.5523 12 14Z" fill="#777B92"/>
<path fill-rule="evenodd" clip-rule="evenodd" d="M13 9H20C20.5523 9 21 9.44772 21 10C21 10.5523 20.5523 11 20 11H13C12.4477 11 12 10.5523 12 10C12 9.44772 12.4477 9 13 9Z" fill="#777B92"/>
</svg>
