<svg width="22" height="22" viewBox="0 0 22 22" fill="none" xmlns="http://www.w3.org/2000/svg">
<path d="M20 3C20 3.55228 19.5523 4 19 4C18.4477 4 18 3.55228 18 3C18 2.44772 18.4477 2 19 2C19.5523 2 20 2.44772 20 3Z" fill="#97A3BA"/>
<path d="M19 8C19.5523 8 20 7.55228 20 7C20 6.44772 19.5523 6 19 6C18.4477 6 18 6.44772 18 7C18 7.55228 18.4477 8 19 8Z" fill="#97A3BA"/>
<path d="M19 20C19.5523 20 20 19.5523 20 19C20 18.4477 19.5523 18 19 18C18.4477 18 18 18.4477 18 19C18 19.5523 18.4477 20 19 20Z" fill="#97A3BA"/>
<path d="M16 11C16 10.4477 15.5523 10 15 10C14.4477 10 14 10.4477 14 11C14 11.5523 14.4477 12 15 12C15.5523 12 16 11.5523 16 11Z" fill="#97A3BA"/>
<path d="M8 11C8 10.4477 7.55228 10 7 10C6.44771 10 6 10.4477 6 11C6 11.5523 6.44771 12 7 12C7.55228 12 8 11.5523 8 11Z" fill="#97A3BA"/>
<path d="M15 20C15.5523 20 16 19.5523 16 19C16 18.4477 15.5523 18 15 18C14.4477 18 14 18.4477 14 19C14 19.5523 14.4477 20 15 20Z" fill="#97A3BA"/>
<path d="M20 15C20 15.5523 19.5523 16 19 16C18.4477 16 18 15.5523 18 15C18 14.4477 18.4477 14 19 14C19.5523 14 20 14.4477 20 15Z" fill="#97A3BA"/>
<path d="M20 11C20 11.5523 19.5523 12 19 12C18.4477 12 18 11.5523 18 11C18 10.4477 18.4477 10 19 10C19.5523 10 20 10.4477 20 11Z" fill="#97A3BA"/>
<path d="M16 3C16 3.55228 15.5523 4 15 4C14.4477 4 14 3.55228 14 3C14 2.44772 14.4477 2 15 2C15.5523 2 16 2.44772 16 3Z" fill="#97A3BA"/>
<path d="M7 4C7.55228 4 8 3.55228 8 3C8 2.44771 7.55228 2 7 2C6.44771 2 6 2.44771 6 3C6 3.55228 6.44771 4 7 4Z" fill="#97A3BA"/>
<path d="M3 4C3.55228 4 4 3.55228 4 3C4 2.44771 3.55228 2 3 2C2.44772 2 2 2.44771 2 3C2 3.55228 2.44772 4 3 4Z" fill="#97A3BA"/>
<path d="M3 8C3.55228 8 4 7.55228 4 7C4 6.44771 3.55228 6 3 6C2.44772 6 2 6.44771 2 7C2 7.55228 2.44772 8 3 8Z" fill="#97A3BA"/>
<path d="M3 12C3.55228 12 4 11.5523 4 11C4 10.4477 3.55228 10 3 10C2.44772 10 2 10.4477 2 11C2 11.5523 2.44772 12 3 12Z" fill="#97A3BA"/>
<path d="M3 16C3.55228 16 4 15.5523 4 15C4 14.4477 3.55228 14 3 14C2.44772 14 2 14.4477 2 15C2 15.5523 2.44772 16 3 16Z" fill="#97A3BA"/>
<path d="M4 19C4 19.5523 3.55228 20 3 20C2.44771 20 2 19.5523 2 19C2 18.4477 2.44772 18 3 18C3.55228 18 4 18.4477 4 19Z" fill="#97A3BA"/>
<path d="M8 19C8 19.5523 7.55228 20 7 20C6.44771 20 6 19.5523 6 19C6 18.4477 6.44771 18 7 18C7.55228 18 8 18.4477 8 19Z" fill="#97A3BA"/>
<path d="M12 3C12 2.44771 11.5523 2 11 2C10.4477 2 10 2.44772 10 3L10 19C10 19.5523 10.4477 20 11 20C11.5523 20 12 19.5523 12 19L12 3Z" fill="#97A3BA"/>
</svg>
