<svg width="22" height="22" viewBox="0 0 22 22" fill="none" xmlns="http://www.w3.org/2000/svg">
<path fill-rule="evenodd" clip-rule="evenodd" d="M9.05217 3.25311C9.78611 1.5823 12.2139 1.58229 12.9478 3.25311L17.9141 14.5587C18.1446 15.0835 17.8954 15.6912 17.3575 15.9161C16.8197 16.1411 16.1967 15.898 15.9662 15.3732L14.9238 13H7.07624L6.03378 15.3732C5.80326 15.898 5.18035 16.1411 4.64247 15.9161C4.10459 15.6912 3.85543 15.0835 4.08594 14.5587L9.05217 3.25311ZM11 4.06756L14.0452 11H7.95478L11 4.06756Z" fill="#97A3BA"/>
<path d="M4 18C3.44772 18 3 18.4477 3 19C3 19.5523 3.44772 20 4 20H18C18.5523 20 19 19.5523 19 19C19 18.4477 18.5523 18 18 18H4Z" fill="#97A3BA"/>
</svg>
