<svg width="24" height="24" viewBox="0 0 24 24" fill="none" xmlns="http://www.w3.org/2000/svg">
<path fill-rule="evenodd" clip-rule="evenodd" d="M13.5858 2.99985C14.3668 2.2188 15.6331 2.2188 16.4142 2.99985L19 5.58564C19.781 6.36668 19.781 7.63301 19 8.41406L16.7181 10.696L16.7071 10.7071L16.696 10.7181L10.4551 16.9589C10.134 17.28 9.71314 17.4823 9.26178 17.5325L6.35277 17.8557C5.07894 17.9972 4.0026 16.9209 4.14414 15.6471L4.46736 12.7381C4.51751 12.2867 4.71979 11.8658 5.04091 11.5447L13.5858 2.99985ZM17.5858 6.99985L15 4.41406L13.4141 5.99992L15.9999 8.5857L17.5858 6.99985ZM6.45513 12.9589L6.1319 15.8679L9.04091 15.5447L14.5857 9.99991L11.9999 7.41413L6.45513 12.9589Z" fill="#777B92"/>
<path fill-rule="evenodd" clip-rule="evenodd" d="M5 20H19C19.5523 20 20 20.4477 20 21C20 21.5523 19.5523 22 19 22H5C4.44772 22 4 21.5523 4 21C4 20.4477 4.44772 20 5 20Z" fill="#777B92"/>
</svg>
