<svg width="22" height="22" viewBox="0 0 22 22" fill="none" xmlns="http://www.w3.org/2000/svg">
<path d="M1.2929 2.2929C1.4804 2.1054 1.7348 2 2 2H6C6.5523 2 7 2.4477 7 3C7 3.5523 6.5523 4 6 4H3V18H6C6.5523 18 7 18.4477 7 19C7 19.5523 6.5523 20 6 20H2C1.4477 20 1 19.5523 1 19V3C1 2.7348 1.1054 2.4804 1.2929 2.2929Z" fill="#7887A5"/>
<path d="M20.7071 2.2929C20.5196 2.1054 20.2652 2 20 2H16C15.4477 2 15 2.4477 15 3C15 3.5523 15.4477 4 16 4H19V18H16C15.4477 18 15 18.4477 15 19C15 19.5523 15.4477 20 16 20H20C20.5523 20 21 19.5523 21 19V3C21 2.7348 20.8946 2.4804 20.7071 2.2929Z" fill="#7887A5"/>
<path d="M8.70711 9.70711C9.09761 9.31661 9.09761 8.68341 8.70711 8.29291C8.31661 7.90241 7.68341 7.90241 7.29291 8.29291L5.29291 10.2929C4.90241 10.6834 4.90241 11.3166 5.29291 11.7071L7.29291 13.7071C7.68341 14.0976 8.31661 14.0976 8.70711 13.7071C9.09761 13.3166 9.09761 12.6834 8.70711 12.2929L8.41421 12H13.5858L13.2929 12.2929C12.9024 12.6834 12.9024 13.3166 13.2929 13.7071C13.6834 14.0976 14.3166 14.0976 14.7071 13.7071L16.7071 11.7071C17.0976 11.3166 17.0976 10.6834 16.7071 10.2929L14.7071 8.29291C14.3166 7.90241 13.6834 7.90241 13.2929 8.29291C12.9024 8.68341 12.9024 9.31661 13.2929 9.70711L13.5858 10H8.41421L8.70711 9.70711Z" fill="#7887A5"/>
</svg>
