<svg width="24" height="24" viewBox="0 0 24 24" fill="none" xmlns="http://www.w3.org/2000/svg">
<path fill-rule="evenodd" clip-rule="evenodd" d="M4.34151 20.7526C3.92587 20.3889 3.88375 19.7571 4.24744 19.3415L11 11.6243V6.41421L9.70712 7.70711C9.3166 8.09763 8.68343 8.09763 8.29291 7.70711C7.90238 7.31658 7.90238 6.68342 8.29291 6.29289L11.2929 3.29289C11.6834 2.90237 12.3166 2.90237 12.7071 3.29289L15.7071 6.29289C16.0976 6.68342 16.0976 7.31658 15.7071 7.70711C15.3166 8.09763 14.6834 8.09763 14.2929 7.70711L13 6.41421V11.6243C13 12.1087 12.8242 12.5767 12.5052 12.9413L5.75259 20.6585C5.38891 21.0741 4.75715 21.1163 4.34151 20.7526Z" fill="#777B92"/>
<path fill-rule="evenodd" clip-rule="evenodd" d="M18.2318 20.6402L13.2318 14.6402C12.8782 14.2159 12.9355 13.5853 13.3598 13.2318C13.7841 12.8782 14.4146 12.9355 14.7682 13.3598L19.7682 19.3598C20.1218 19.7841 20.0644 20.4146 19.6402 20.7682C19.2159 21.1218 18.5853 21.0644 18.2318 20.6402Z" fill="#777B92"/>
</svg>
