<svg width="22" height="22" viewBox="0 0 22 22" fill="none" xmlns="http://www.w3.org/2000/svg">
<path fill-rule="evenodd" clip-rule="evenodd" d="M6 2C5.44772 2 5 2.44772 5 3V19C5 19.5523 5.44772 20 6 20H11.5C14.5376 20 17 17.5376 17 14.5C17 12.5594 15.995 10.8536 14.477 9.87457C15.411 9.05002 16 7.8438 16 6.5C16 4.01472 13.9853 2 11.5 2H6ZM7 11V18H11.5C13.433 18 15 16.433 15 14.5C15 12.567 13.433 11 11.5 11H7ZM7 9H11.5C12.8807 9 14 7.88071 14 6.5C14 5.11929 12.8807 4 11.5 4H7V9Z" fill="#97A3BA"/>
</svg>
