<svg width="24" height="24" viewBox="0 0 24 24" fill="none" xmlns="http://www.w3.org/2000/svg">
<path fill-rule="evenodd" clip-rule="evenodd" d="M16 4.5C16 5.15311 15.5826 5.70873 15 5.91465V7.08535C15.4262 7.236 15.764 7.57379 15.9146 8H17.0854C17.2913 7.4174 17.8469 7 18.5 7C19.3284 7 20 7.67157 20 8.5C20 9.32843 19.3284 10 18.5 10C17.8469 10 17.2913 9.5826 17.0854 9H15.9146C15.764 9.42621 15.4262 9.764 15 9.91465V11.0854C15.5826 11.2913 16 11.8469 16 12.5C16 13.3284 15.3284 14 14.5 14C13.6716 14 13 13.3284 13 12.5C13 11.8469 13.4174 11.2913 14 11.0854V9.91465C13.5738 9.764 13.236 9.42621 13.0854 9H11.9146C11.7087 9.5826 11.1531 10 10.5 10C9.67157 10 9 9.32843 9 8.5C9 7.67157 9.67157 7 10.5 7C11.1531 7 11.7087 7.4174 11.9146 8H13.0854C13.236 7.57379 13.5738 7.236 14 7.08535V5.91465C13.4174 5.70873 13 5.15311 13 4.5C13 3.67157 13.6716 3 14.5 3C15.3284 3 16 3.67157 16 4.5ZM15 4.5C15 4.22386 14.7761 4 14.5 4C14.2239 4 14 4.22386 14 4.5C14 4.77614 14.2239 5 14.5 5C14.7761 5 15 4.77614 15 4.5ZM14.5 12C14.2239 12 14 12.2239 14 12.5C14 12.7761 14.2239 13 14.5 13C14.7761 13 15 12.7761 15 12.5C15 12.2239 14.7761 12 14.5 12ZM14.5 9C14.7761 9 15 8.77614 15 8.5C15 8.22386 14.7761 8 14.5 8C14.2239 8 14 8.22386 14 8.5C14 8.77614 14.2239 9 14.5 9ZM19 8.5C19 8.22386 18.7761 8 18.5 8C18.2239 8 18 8.22386 18 8.5C18 8.77614 18.2239 9 18.5 9C18.7761 9 19 8.77614 19 8.5ZM11 8.5C11 8.22386 10.7761 8 10.5 8C10.2239 8 10 8.22386 10 8.5C10 8.77614 10.2239 9 10.5 9C10.7761 9 11 8.77614 11 8.5Z" fill="#777B92"/>
<path fill-rule="evenodd" clip-rule="evenodd" d="M9.95845 5.00505C10.116 5.53439 9.81459 6.09122 9.28525 6.24875C6.80612 6.98658 5 9.28388 5 12.0004C5 15.3141 7.68629 18.0004 11 18.0004C13.7165 18.0004 16.0138 16.1943 16.7517 13.7152C16.9092 13.1858 17.466 12.8844 17.9954 13.042C18.5247 13.1995 18.8261 13.7563 18.6686 14.2857C18.3824 15.2471 17.9205 16.1329 17.3199 16.9057L20.7071 20.2929C21.0976 20.6834 21.0976 21.3166 20.7071 21.7071C20.3166 22.0976 19.6834 22.0976 19.2929 21.7071L15.9058 18.3201C14.5514 19.3731 12.8493 20.0004 11 20.0004C6.58172 20.0004 3 16.4187 3 12.0004C3 8.37492 5.4109 5.31512 8.71475 4.33185C9.24409 4.17431 9.80091 4.47571 9.95845 5.00505Z" fill="#777B92"/>
</svg>
