<svg width="24" height="24" viewBox="0 0 24 24" fill="none" xmlns="http://www.w3.org/2000/svg">
<path fill-rule="evenodd" clip-rule="evenodd" d="M12.7096 9.70538C12.6978 9.7189 12.6747 9.7463 12.6438 9.7875C12.5818 9.87004 12.4897 10.0067 12.3944 10.1972C12.2056 10.5749 12 11.1728 12 12C12 12.8272 12.2056 13.4251 12.3944 13.8028C12.4897 13.9933 12.5818 14.13 12.6438 14.2125C12.6747 14.2537 12.6978 14.2811 12.7096 14.2946L12.7171 14.303C13.0976 14.6943 13.0943 15.3199 12.7071 15.7071C12.3166 16.0976 11.6827 16.0969 11.2922 15.7064L11.9999 15.0001C11.2929 15.7071 11.2925 15.7068 11.2922 15.7064L11.2915 15.7057L11.2899 15.7041L11.2866 15.7008L11.2789 15.6929L11.2592 15.6722C11.2443 15.6563 11.2259 15.6361 11.2045 15.6116C11.1616 15.5627 11.1066 15.4963 11.0437 15.4125C10.9182 15.245 10.7603 15.0067 10.6056 14.6972C10.2944 14.0749 10 13.1728 10 12C10 10.8272 10.2944 9.92507 10.6056 9.30279C10.7603 8.99328 10.9182 8.75496 11.0437 8.5875C11.1066 8.5037 11.1616 8.43735 11.2045 8.38837C11.2259 8.36387 11.2443 8.34368 11.2592 8.32778L11.2789 8.30713L11.2866 8.29922L11.2899 8.29585L11.2915 8.29432L11.2929 8.29289C11.2932 8.29254 11.2929 8.29289 12 9L11.2929 8.29289C11.6834 7.90237 12.3166 7.90237 12.7071 8.29289C13.0943 8.68007 13.0976 9.30573 12.7171 9.697L12.7096 9.70538Z" fill="#777B92"/>
<path fill-rule="evenodd" clip-rule="evenodd" d="M5 3H19C20.1046 3 21 3.89543 21 5V19C21 20.1046 20.1046 21 19 21H5C3.89543 21 3 20.1046 3 19V5C3 3.89543 3.89543 3 5 3ZM5 5V19H19V5H5Z" fill="#777B92"/>
</svg>
