<svg width="22" height="22" viewBox="0 0 22 22" fill="none" xmlns="http://www.w3.org/2000/svg">
<path d="M3 4C2.44772 4 2 4.44772 2 5C2 5.55228 2.44772 6 3 6H19C19.5523 6 20 5.55228 20 5C20 4.44772 19.5523 4 19 4H3Z" fill="#97A3BA"/>
<path d="M3 16C2.44772 16 2 16.4477 2 17C2 17.5523 2.44772 18 3 18H19C19.5523 18 20 17.5523 20 17C20 16.4477 19.5523 16 19 16H3Z" fill="#97A3BA"/>
<path d="M2 13C2 12.4477 2.49746 12 3.11111 12H10.8889C11.5025 12 12 12.4477 12 13C12 13.5523 11.5025 14 10.8889 14H3.11111C2.49746 14 2 13.5523 2 13Z" fill="#97A3BA"/>
<path d="M3.11111 8C2.49746 8 2 8.44772 2 9C2 9.55228 2.49746 10 3.11111 10H10.8889C11.5025 10 12 9.55228 12 9C12 8.44772 11.5025 8 10.8889 8H3.11111Z" fill="#97A3BA"/>
</svg>
