<svg width="24" height="24" viewBox="0 0 24 24" fill="none" xmlns="http://www.w3.org/2000/svg">
<path fill-rule="evenodd" clip-rule="evenodd" d="M9.92309 3.61538L14.9231 15.6154C15.1355 16.1252 14.8944 16.7107 14.3846 16.9231C13.8748 17.1355 13.2894 16.8944 13.0769 16.3846L12.082 13.9967C12.0549 13.9989 12.0276 14 12 14H6C5.97241 14 5.94509 13.9989 5.91806 13.9967L4.92309 16.3846C4.71068 16.8944 4.1252 17.1355 3.6154 16.9231C3.1056 16.7107 2.86452 16.1252 3.07694 15.6154L8.07694 3.61538C8.23221 3.24274 8.59632 3 9.00002 3C9.40372 3 9.76782 3.24274 9.92309 3.61538ZM11.25 12L9.00002 6.6L6.75002 12H11.25Z" fill="#777B92"/>
<path fill-rule="evenodd" clip-rule="evenodd" d="M19 14C18.4477 14 18 14.4477 18 15C18 15.5523 17.5523 16 17 16C16.4477 16 16 15.5523 16 15C16 13.3431 17.3431 12 19 12C20.6569 12 22 13.3431 22 15C22 15.0039 22 15.0078 21.9999 15.0117C21.9969 15.8946 21.6466 16.7042 21.2172 17.375C20.8291 17.9815 20.3393 18.5325 19.8588 19H21C21.5522 19 22 19.4477 22 20C22 20.5523 21.5522 21 21 21H17C16.5539 21 16.1617 20.7045 16.0387 20.2757C15.9158 19.8471 16.0915 19.3889 16.4693 19.1524C16.4695 19.1523 16.47 19.152 17 20L16.4693 19.1524L16.4753 19.1486L16.5024 19.1313C16.5273 19.1152 16.5656 19.0902 16.6154 19.0568C16.7152 18.99 16.8604 18.8902 17.0358 18.7623C17.3884 18.5052 17.8543 18.1408 18.316 17.708C18.7814 17.2717 19.2181 16.7884 19.5327 16.2969C19.8515 15.7988 20 15.3625 20 15C20 14.9979 20 14.9959 20 14.9938C19.9967 14.4444 19.5502 14 19 14Z" fill="#777B92"/>
</svg>
