<svg width="22" height="22" viewBox="0 0 22 22" fill="none" xmlns="http://www.w3.org/2000/svg">
<path d="M3 4C3 3.44772 3.44772 3 4 3H17C17.5523 3 18 3.44772 18 4C18 4.55228 17.5523 5 17 5H4C3.44772 5 3 4.55228 3 4Z" fill="#97A3BA"/>
<path d="M3 10C3 9.44772 3.44772 9 4 9H15C17.2091 9 19 10.7909 19 13C19 15.2091 17.2091 17 15 17H14.2722L14.7271 17.4447C15.091 17.8005 15.091 18.3774 14.7271 18.7332C14.3632 19.0889 13.7732 19.0889 13.4094 18.7332L11.2729 16.6442C10.909 16.2884 10.909 15.7116 11.2729 15.3558L13.4094 13.2668C13.7732 12.9111 14.3632 12.9111 14.7271 13.2668C15.091 13.6226 15.091 14.1995 14.7271 14.5553L14.2722 15H15C16.1046 15 17 14.1046 17 13C17 11.8954 16.1046 11 15 11H4C3.44772 11 3 10.5523 3 10Z" fill="#97A3BA"/>
<path d="M4 15C3.44772 15 3 15.4477 3 16C3 16.5523 3.44772 17 4 17H9V15H4Z" fill="#97A3BA"/>
</svg>
