<svg width="24" height="24" viewBox="0 0 24 24" fill="none" xmlns="http://www.w3.org/2000/svg">
<path fill-rule="evenodd" clip-rule="evenodd" d="M4 8C3.44772 8 3 7.55228 3 7C3 6.44772 3.44772 6 4 6C4.55228 6 5 6.44772 5 7C5 7.55228 4.55228 8 4 8Z" fill="#777B92"/>
<path fill-rule="evenodd" clip-rule="evenodd" d="M8 6H20C20.5523 6 21 6.44772 21 7C21 7.55228 20.5523 8 20 8H8C7.44772 8 7 7.55228 7 7C7 6.44772 7.44772 6 8 6Z" fill="#777B92"/>
<path fill-rule="evenodd" clip-rule="evenodd" d="M8 11H20C20.5523 11 21 11.4477 21 12C21 12.5523 20.5523 13 20 13H8C7.44772 13 7 12.5523 7 12C7 11.4477 7.44772 11 8 11Z" fill="#777B92"/>
<path fill-rule="evenodd" clip-rule="evenodd" d="M7 17C7 16.4477 7.44772 16 8 16H20C20.5523 16 21 16.4477 21 17C21 17.5523 20.5523 18 20 18H8C7.44772 18 7 17.5523 7 17Z" fill="#777B92"/>
<path fill-rule="evenodd" clip-rule="evenodd" d="M5 12C5 12.5523 4.55228 13 4 13C3.44772 13 3 12.5523 3 12C3 11.4477 3.44772 11 4 11C4.55228 11 5 11.4477 5 12Z" fill="#777B92"/>
<path fill-rule="evenodd" clip-rule="evenodd" d="M4 18C3.44772 18 3 17.5523 3 17C3 16.4477 3.44772 16 4 16C4.55228 16 5 16.4477 5 17C5 17.5523 4.55228 18 4 18Z" fill="#777B92"/>
</svg>
