<svg width="22" height="22" viewBox="0 0 22 22" fill="none" xmlns="http://www.w3.org/2000/svg">
<path d="M8.31132 7.61589L10.7484 5.2963C11.1635 4.90123 11.8365 4.90123 12.2516 5.2963L14.6887 7.61589C15.1038 8.01096 15.1038 8.65149 14.6887 9.04656C14.2736 9.44163 13.6006 9.44163 13.1855 9.04656L12.5629 8.45396L12.5629 19.9884C12.5629 20.5471 12.087 21 11.5 21C10.913 21 10.4371 20.5471 10.4371 19.9884L10.4371 8.45396L9.81448 9.04656C9.39939 9.44163 8.7264 9.44163 8.31132 9.04656C7.89623 8.65149 7.89623 8.01096 8.31132 7.61589Z" fill="#97A3BA"/>
<path d="M19 3C19.5523 3 20 2.55229 20 2C20 1.44772 19.5523 1 19 1L3 1C2.44772 1 2 1.44772 2 2C2 2.55228 2.44772 3 3 3L19 3Z" fill="#97A3BA"/>
</svg>
