<svg width="22" height="22" viewBox="0 0 22 22" fill="none" xmlns="http://www.w3.org/2000/svg">
<path d="M3 2C3.55228 2 4 2.44772 4 3C4 3.55228 3.55228 4 3 4C2.44772 4 2 3.55228 2 3C2 2.44772 2.44772 2 3 2Z" fill="#97A3BA"/>
<path d="M8 3C8 2.44772 7.55228 2 7 2C6.44772 2 6 2.44772 6 3C6 3.55228 6.44772 4 7 4C7.55228 4 8 3.55228 8 3Z" fill="#97A3BA"/>
<path d="M20 3C20 2.44772 19.5523 2 19 2C18.4477 2 18 2.44772 18 3C18 3.55228 18.4477 4 19 4C19.5523 4 20 3.55228 20 3Z" fill="#97A3BA"/>
<path d="M11 6C10.4477 6 10 6.44772 10 7C10 7.55228 10.4477 8 11 8C11.5523 8 12 7.55228 12 7C12 6.44772 11.5523 6 11 6Z" fill="#97A3BA"/>
<path d="M11 14C10.4477 14 10 14.4477 10 15C10 15.5523 10.4477 16 11 16C11.5523 16 12 15.5523 12 15C12 14.4477 11.5523 14 11 14Z" fill="#97A3BA"/>
<path d="M20 7C20 6.44772 19.5523 6 19 6C18.4477 6 18 6.44772 18 7C18 7.55228 18.4477 8 19 8C19.5523 8 20 7.55228 20 7Z" fill="#97A3BA"/>
<path d="M15 2C15.5523 2 16 2.44772 16 3C16 3.55228 15.5523 4 15 4C14.4477 4 14 3.55228 14 3C14 2.44772 14.4477 2 15 2Z" fill="#97A3BA"/>
<path d="M11 2C11.5523 2 12 2.44772 12 3C12 3.55228 11.5523 4 11 4C10.4477 4 10 3.55228 10 3C10 2.44772 10.4477 2 11 2Z" fill="#97A3BA"/>
<path d="M3 6C3.55228 6 4 6.44772 4 7C4 7.55228 3.55228 8 3 8C2.44772 8 2 7.55228 2 7C2 6.44772 2.44772 6 3 6Z" fill="#97A3BA"/>
<path d="M4 15C4 14.4477 3.55228 14 3 14C2.44772 14 2 14.4477 2 15C2 15.5523 2.44772 16 3 16C3.55228 16 4 15.5523 4 15Z" fill="#97A3BA"/>
<path d="M4 19C4 18.4477 3.55228 18 3 18C2.44772 18 2 18.4477 2 19C2 19.5523 2.44772 20 3 20C3.55228 20 4 19.5523 4 19Z" fill="#97A3BA"/>
<path d="M8 19C8 18.4477 7.55228 18 7 18C6.44772 18 6 18.4477 6 19C6 19.5523 6.44772 20 7 20C7.55228 20 8 19.5523 8 19Z" fill="#97A3BA"/>
<path d="M12 19C12 18.4477 11.5523 18 11 18C10.4477 18 10 18.4477 10 19C10 19.5523 10.4477 20 11 20C11.5523 20 12 19.5523 12 19Z" fill="#97A3BA"/>
<path d="M16 19C16 18.4477 15.5523 18 15 18C14.4477 18 14 18.4477 14 19C14 19.5523 14.4477 20 15 20C15.5523 20 16 19.5523 16 19Z" fill="#97A3BA"/>
<path d="M19 18C19.5523 18 20 18.4477 20 19C20 19.5523 19.5523 20 19 20C18.4477 20 18 19.5523 18 19C18 18.4477 18.4477 18 19 18Z" fill="#97A3BA"/>
<path d="M19 14C19.5523 14 20 14.4477 20 15C20 15.5523 19.5523 16 19 16C18.4477 16 18 15.5523 18 15C18 14.4477 18.4477 14 19 14Z" fill="#97A3BA"/>
<path d="M3 10C2.44772 10 2 10.4477 2 11C2 11.5523 2.44772 12 3 12H19C19.5523 12 20 11.5523 20 11C20 10.4477 19.5523 10 19 10H3Z" fill="#97A3BA"/>
</svg>
