<svg width="22" height="22" viewBox="0 0 22 22" fill="none" xmlns="http://www.w3.org/2000/svg">
<path d="M13.6887 14.3842L11.2516 16.7038C10.8365 17.0988 10.1635 17.0988 9.74842 16.7038L7.31131 14.3842C6.89623 13.9891 6.89623 13.3486 7.31132 12.9535C7.7264 12.5584 8.39939 12.5584 8.81448 12.9535L9.43711 13.5461V2.01164C9.43711 1.45293 9.91298 1 10.5 1C11.087 1 11.5629 1.45293 11.5629 2.01164V13.5461L12.1855 12.9535C12.6006 12.5584 13.2736 12.5584 13.6887 12.9535C14.1038 13.3486 14.1038 13.9891 13.6887 14.3842Z" fill="#97A3BA"/>
<path d="M3 19.0001C2.44772 19.0001 2 19.4478 2 20.0001C2 20.5523 2.44772 21.0001 3 21.0001H19C19.5523 21.0001 20 20.5523 20 20.0001C20 19.4478 19.5523 19.0001 19 19.0001H3Z" fill="#97A3BA"/>
</svg>
