<svg width="22" height="22" viewBox="0 0 22 22" fill="none" xmlns="http://www.w3.org/2000/svg">
<path d="M14.4544 1.02152C15.95 0.896346 17.4401 1.32025 18.6462 2.21405C19.3253 2.73911 19.8851 3.40255 20.2887 4.16042C20.6922 4.9183 20.9302 5.75332 20.9869 6.61017C21.0436 7.46703 20.9177 8.32616 20.6176 9.13066C20.3175 9.93517 19.85 10.6667 19.246 11.2768L17.8265 12.6972C17.7335 12.7909 17.623 12.8654 17.5011 12.9161C17.3793 12.9669 17.2486 12.9931 17.1167 12.9931C16.9847 12.9931 16.854 12.9669 16.7322 12.9161C16.6104 12.8654 16.4998 12.7909 16.4069 12.6972C16.3132 12.6042 16.2388 12.4936 16.1881 12.3717C16.1373 12.2498 16.1112 12.119 16.1112 11.987C16.1112 11.8549 16.1373 11.7242 16.1881 11.6023C16.2388 11.4804 16.3132 11.3698 16.4069 11.2768L17.8265 9.84634C18.2273 9.45249 18.5406 8.97855 18.7462 8.45542C18.9517 7.93228 19.0447 7.37169 19.0193 6.81016C18.9938 6.24863 18.8504 5.69877 18.5984 5.19641C18.3463 4.69405 17.9913 4.25046 17.5565 3.89456C16.7433 3.26042 15.724 2.95036 14.6956 3.02426C13.6672 3.09815 12.7027 3.55077 11.9883 4.29468L10.6888 5.60507C10.5958 5.69882 10.4853 5.77324 10.3634 5.82403C10.2416 5.87481 10.111 5.90096 9.97898 5.90096C9.84702 5.90096 9.71635 5.87481 9.59453 5.82403C9.47271 5.77324 9.36215 5.69882 9.26921 5.60507C9.16727 5.49149 9.0903 5.35777 9.04328 5.21254C8.99626 5.06731 8.98024 4.91382 8.99626 4.76201C9.01228 4.6102 9.05998 4.46344 9.13627 4.33124C9.21257 4.19904 9.31576 4.08435 9.43916 3.99459L10.5188 2.89426C11.5598 1.81239 12.9587 1.1467 14.4544 1.02152Z" fill="#97A3BA"/>
<path d="M12.2778 8.28588L8.2791 12.2871C8.1854 12.3801 8.11103 12.4907 8.06028 12.6126C8.00953 12.7345 7.9834 12.8652 7.9834 12.9973C7.9834 13.1293 8.00953 13.2601 8.06028 13.382C8.11103 13.5039 8.1854 13.6145 8.2791 13.7075C8.37203 13.8013 8.4826 13.8757 8.60442 13.9265C8.72624 13.9772 8.8569 14.0034 8.98887 14.0034C9.12084 14.0034 9.2515 13.9772 9.37332 13.9265C9.49514 13.8757 9.60571 13.8013 9.69864 13.7075L13.6974 9.7063C13.8856 9.51794 13.9913 9.26247 13.9913 8.99609C13.9913 8.72971 13.8856 8.47424 13.6974 8.28588C13.5091 8.09752 13.2538 7.9917 12.9876 7.9917C12.7214 7.9917 12.4661 8.09752 12.2778 8.28588Z" fill="#97A3BA"/>
<path d="M11.2684 16.3983L9.98883 17.6686C9.27049 18.4093 8.30481 18.8594 7.27599 18.9332C6.24717 19.007 5.2272 18.6993 4.41063 18.0688C3.97904 17.7129 3.62685 17.2704 3.3768 16.7699C3.12676 16.2693 2.98442 15.7219 2.95898 15.1629C2.93355 14.6038 3.02558 14.0457 3.22913 13.5245C3.43268 13.0033 3.74323 12.5306 4.14072 12.137L5.56026 10.7065C5.65396 10.6136 5.72833 10.5029 5.77908 10.381C5.82983 10.2591 5.85596 10.1284 5.85596 9.99633C5.85596 9.86428 5.82983 9.73354 5.77908 9.61164C5.72833 9.48975 5.65396 9.37911 5.56026 9.28612C5.46733 9.19237 5.35676 9.11795 5.23494 9.06717C5.11312 9.01638 4.98246 8.99023 4.85049 8.99023C4.71852 8.99023 4.58785 9.01638 4.46603 9.06717C4.34421 9.11795 4.23365 9.19237 4.14072 9.28612L2.87113 10.5665C1.80163 11.6028 1.14427 12.9923 1.02109 14.4768C0.897911 15.9614 1.31728 17.4403 2.20134 18.6389C2.72605 19.3201 3.3896 19.8817 4.1479 20.2865C4.90621 20.6913 5.74191 20.93 6.5995 20.9867C7.45709 21.0435 8.31694 20.917 9.12193 20.6157C9.92691 20.3144 10.6586 19.8451 11.2684 19.2391L12.688 17.8187C12.8762 17.6303 12.982 17.3748 12.982 17.1085C12.982 16.8421 12.8762 16.5866 12.688 16.3983C12.4997 16.2099 12.2444 16.1041 11.9782 16.1041C11.712 16.1041 11.4567 16.2099 11.2684 16.3983Z" fill="#97A3BA"/>
</svg>
