<svg width="22" height="22" viewBox="0 0 22 22" fill="none" xmlns="http://www.w3.org/2000/svg">
<path d="M19.8335 6.44242C20.9762 7.40704 21.7295 8.75769 21.9519 10.2409C22.0598 11.0901 21.9857 11.9526 21.7344 12.7706C21.4832 13.5885 21.0608 14.343 20.4955 14.9832C19.9302 15.6235 19.2351 16.1347 18.4569 16.4825C17.6788 16.8303 16.8356 17.0067 15.984 16.9998H13.9947C13.7309 16.9998 13.4779 16.8945 13.2913 16.707C13.1048 16.5195 13 16.2651 13 16C13 15.7348 13.1048 15.4805 13.2913 15.293C13.4779 15.1055 13.7309 15.0001 13.9947 15.0001H15.984C16.5389 15.0025 17.0882 14.8882 17.5966 14.6645C18.105 14.4408 18.5611 14.1126 18.9358 13.7011C19.3105 13.2897 19.5955 12.8039 19.7723 12.2752C19.9491 11.7464 20.0139 11.1863 19.9626 10.6309C19.8392 9.61054 19.3416 8.67317 18.5672 8.00198C17.7928 7.33079 16.7972 6.97404 15.7751 7.00147H13.9947C13.7309 7.00147 13.4779 6.89613 13.2913 6.70862C13.1048 6.52112 13 6.26681 13 6.00163C13 5.45172 13.4376 5.0018 14.2433 5.0018H15.7453C17.237 4.96556 18.6907 5.47781 19.8335 6.44242Z" fill="#97A3BA"/>
<path d="M8.00025 15.0001H6.21069C5.18331 15.0275 4.18262 14.6707 3.40426 13.9995C2.62589 13.3282 2.1258 12.3907 2.00174 11.3703C1.95014 10.8147 2.0153 10.2546 2.19303 9.72575C2.37076 9.19693 2.65714 8.71114 3.03375 8.2996C3.41037 7.88807 3.86889 7.55989 4.37987 7.33615C4.89084 7.11241 5.44296 6.99807 6.00075 7.00046H8.00025C8.2654 7.00046 8.51969 6.89511 8.70718 6.70758C8.89467 6.52005 9 6.26571 9 6.0005C9 5.7353 8.89467 5.48096 8.70718 5.29343C8.51969 5.1059 8.2654 5.00055 8.00025 5.00055H6.21069C4.72878 4.98074 3.28958 5.49698 2.158 6.45424C1.02642 7.4115 0.278615 8.74536 0.0522233 10.2103C-0.0603029 11.0577 0.00949967 11.9193 0.256956 12.7375C0.504412 13.5557 0.923808 14.3115 1.48705 14.9544C2.0503 15.5973 2.74439 16.1124 3.52284 16.4652C4.30129 16.818 5.14612 17.0003 6.00075 17H8.00025C8.2654 17 8.51969 16.8946 8.70718 16.7071C8.89467 16.5196 9 16.2652 9 16C9 15.7348 8.89467 15.4805 8.70718 15.293C8.51969 15.1054 8.2654 15.0001 8.00025 15.0001Z" fill="#97A3BA"/>
<path d="M7 11C7 11.2652 7.10536 11.5196 7.29289 11.7071C7.48043 11.8946 7.73478 12 8 12H14C14.2652 12 14.5196 11.8946 14.7071 11.7071C14.8946 11.5196 15 11.2652 15 11C15 10.7348 14.8946 10.4804 14.7071 10.2929C14.5196 10.1054 14.2652 10 14 10H8C7.73478 10 7.48043 10.1054 7.29289 10.2929C7.10536 10.4804 7 10.7348 7 11Z" fill="#97A3BA"/>
</svg>
