<svg width="22" height="22" viewBox="0 0 22 22" fill="none" xmlns="http://www.w3.org/2000/svg">
<path fill-rule="evenodd" clip-rule="evenodd" d="M10.8736 2C10.6306 2 10.3876 2.09607 10.2022 2.2882L8.02528 4.54439C7.6545 4.92866 7.6545 5.55168 8.02528 5.93595C8.39606 6.32023 8.99721 6.32023 9.36799 5.93596L9.92416 5.35955V11.0247C9.92416 11.2857 9.82413 11.536 9.64607 11.7205L3.27808 18.3202C2.9073 18.7045 2.90731 19.3275 3.27808 19.7118C3.64886 20.0961 4.25002 20.0961 4.62079 19.7118L11.545 12.5357C11.723 12.3511 11.823 12.1009 11.823 11.8399V5.35955L12.3792 5.93595C12.75 6.32023 13.3511 6.32023 13.7219 5.93595C14.0927 5.55168 14.0927 4.92866 13.7219 4.54438L11.545 2.2882C11.3596 2.09607 11.1166 2 10.8736 2ZM17.329 19.7206C17.733 20.1153 18.363 20.0886 18.7359 19.661C19.1089 19.2334 19.0837 18.5668 18.6797 18.1721L13.671 13.2794C13.267 12.8847 12.637 12.9114 12.2641 13.339C11.8911 13.7666 11.9163 14.4332 12.3203 14.8279L17.329 19.7206Z" fill="#97A3BA"/>
</svg>
