<svg width="22" height="22" viewBox="0 0 22 22" fill="none" xmlns="http://www.w3.org/2000/svg">
<path d="M2 2C1.73478 2 1.48043 2.10536 1.29289 2.29289C1.10536 2.48043 1 2.73478 1 3V19C1 19.5523 1.44772 20 2 20H6C6.55228 20 7 19.5523 7 19C7 18.4477 6.55228 18 6 18H3V4H6C6.55228 4 7 3.55228 7 3C7 2.44772 6.55228 2 6 2H2Z" fill="#97A3BA"/>
<path d="M20 2C20.2652 2 20.5196 2.10536 20.7071 2.29289C20.8946 2.48043 21 2.73478 21 3V19C21 19.5523 20.5523 20 20 20H16C15.4477 20 15 19.5523 15 19C15 18.4477 15.4477 18 16 18H19V4H16C15.4477 4 15 3.55228 15 3C15 2.44772 15.4477 2 16 2H20Z" fill="#97A3BA"/>
</svg>
