<svg width="22" height="22" viewBox="0 0 22 22" fill="none" xmlns="http://www.w3.org/2000/svg">
<path d="M3 4C2.44772 4 2 4.44772 2 5C2 5.55228 2.44772 6 3 6H19C19.5523 6 20 5.55228 20 5C20 4.44772 19.5523 4 19 4H3Z" fill="#97A3BA"/>
<path d="M3 16C2.44772 16 2 16.4477 2 17C2 17.5523 2.44772 18 3 18H19C19.5523 18 20 17.5523 20 17C20 16.4477 19.5523 16 19 16H3Z" fill="#97A3BA"/>
<path d="M10 13C10 12.4477 10.4975 12 11.1111 12H18.8889C19.5025 12 20 12.4477 20 13C20 13.5523 19.5025 14 18.8889 14H11.1111C10.4975 14 10 13.5523 10 13Z" fill="#97A3BA"/>
<path d="M11.1111 8C10.4975 8 10 8.44772 10 9C10 9.55228 10.4975 10 11.1111 10H18.8889C19.5025 10 20 9.55228 20 9C20 8.44772 19.5025 8 18.8889 8H11.1111Z" fill="#97A3BA"/>
</svg>
