<svg width="22" height="22" viewBox="0 0 22 22" fill="none" xmlns="http://www.w3.org/2000/svg">
<path fill-rule="evenodd" clip-rule="evenodd" d="M8 12V11C8 10.2044 8.31607 9.44129 8.87868 8.87868C9.44129 8.31607 10.2044 8 11 8H12V4.67C12 4.4923 11.9294 4.32189 11.8038 4.19624C11.6781 4.07059 11.5077 4 11.33 4H4.67C4.4923 4 4.32189 4.07059 4.19624 4.19624C4.07059 4.32189 4 4.4923 4 4.67V11.33C4 11.5077 4.07059 11.6781 4.19624 11.8038C4.32189 11.9294 4.4923 12 4.67 12H8ZM8 14H4.67C3.96268 13.9974 3.28509 13.7152 2.78493 13.2151C2.28478 12.7149 2.00263 12.0373 2 11.33V4.67C2.00263 3.96268 2.28478 3.28509 2.78493 2.78493C3.28509 2.28478 3.96268 2.00263 4.67 2H11.33C12.0373 2.00263 12.7149 2.28478 13.2151 2.78493C13.7152 3.28509 13.9974 3.96268 14 4.67V8H17C17.7956 8 18.5587 8.31607 19.1213 8.87868C19.6839 9.44129 20 10.2044 20 11V17C20 17.7956 19.6839 18.5587 19.1213 19.1213C18.5587 19.6839 17.7956 20 17 20H11C10.2044 20 9.44129 19.6839 8.87868 19.1213C8.31607 18.5587 8 17.7956 8 17V14ZM10.2929 10.2929C10.4804 10.1054 10.7348 10 11 10H17C17.2652 10 17.5196 10.1054 17.7071 10.2929C17.8946 10.4804 18 10.7348 18 11V17C18 17.2652 17.8946 17.5196 17.7071 17.7071C17.5196 17.8946 17.2652 18 17 18H11C10.7348 18 10.4804 17.8946 10.2929 17.7071C10.1054 17.5196 10 17.2652 10 17V11C10 10.7348 10.1054 10.4804 10.2929 10.2929Z" fill="#97A3BA"/>
</svg>
