<svg width="22" height="22" viewBox="0 0 22 22" fill="none" xmlns="http://www.w3.org/2000/svg">
<path d="M3.71315 2.29393L19.7044 18.2851C19.798 18.3781 19.8724 18.4886 19.9231 18.6104C19.9739 18.7322 20 18.8628 20 18.9948C20 19.1267 19.9739 19.2573 19.9231 19.3791C19.8724 19.5009 19.798 19.6115 19.7044 19.7044C19.6115 19.798 19.5009 19.8724 19.3791 19.9231C19.2573 19.9739 19.1267 20 18.9948 20C18.8628 20 18.7322 19.9739 18.6104 19.9231C18.4886 19.8724 18.3781 19.798 18.2851 19.7044L2.29393 3.71315C2.10573 3.52495 2 3.2697 2 3.00354C2 2.73738 2.10573 2.48213 2.29393 2.29393C2.38712 2.20074 2.49775 2.12682 2.6195 2.07639C2.74126 2.02596 2.87175 2 3.00354 2C3.13533 2 3.26582 2.02596 3.38758 2.07639C3.50933 2.12682 3.61996 2.20074 3.71315 2.29393Z" fill="#97A3BA"/>
<path d="M10.9987 4.43259L14.8765 8.43039C15.5271 9.10091 16.0031 9.92089 16.2628 10.8183C16.5224 11.7158 16.5578 12.6633 16.3657 13.5776L17.9948 15.1467C18.5209 13.7695 18.6414 12.2704 18.3421 10.8268C18.0427 9.38325 17.3361 8.05566 16.3058 7.00118L11.7083 2.30376C11.6157 2.20932 11.5053 2.13419 11.3835 2.08273C11.2617 2.03126 11.1309 2.00447 10.9987 2.00392C10.8648 2.00314 10.732 2.02928 10.6084 2.08079C10.4848 2.13229 10.3728 2.20812 10.2791 2.30376L7.73047 4.90233L9.14969 6.32155L10.9987 4.43259Z" fill="#97A3BA"/>
<path d="M10.9998 17.9952C10.2766 17.9958 9.56062 17.851 8.89445 17.5694C8.22829 17.2878 7.62551 16.8752 7.12193 16.3561C6.2193 15.4248 5.65954 14.2146 5.53426 12.9237C5.40898 11.6328 5.7256 10.3375 6.43231 9.25002L5.0031 7.8208C3.93117 9.29398 3.4136 11.0982 3.54158 12.9156C3.66957 14.733 4.4349 16.4469 5.70271 17.7553C6.39039 18.4647 7.21374 19.0284 8.12375 19.413C9.03377 19.7976 10.0119 19.9953 10.9998 19.9941C12.6613 19.9966 14.2747 19.4365 15.5773 18.405L14.1481 16.9958C13.228 17.6479 12.1276 17.9973 10.9998 17.9952Z" fill="#97A3BA"/>
</svg>
