<svg width="22" height="22" viewBox="0 0 22 22" fill="none" xmlns="http://www.w3.org/2000/svg">
<path d="M2 6C2 5.44772 2.44772 5 3 5H19C19.5523 5 20 5.44772 20 6C20 6.55228 19.5523 7 19 7H3C2.44772 7 2 6.55228 2 6Z" fill="#97A3BA"/>
<path d="M2 11C2 10.4477 2.44772 10 3 10H13C13.5523 10 14 10.4477 14 11C14 11.5523 13.5523 12 13 12H3C2.44772 12 2 11.5523 2 11Z" fill="#97A3BA"/>
<path d="M3 15C2.44772 15 2 15.4477 2 16C2 16.5523 2.44772 17 3 17H10C10.5523 17 11 16.5523 11 16C11 15.4477 10.5523 15 10 15H3Z" fill="#97A3BA"/>
</svg>
