<svg width="24" height="24" viewBox="0 0 24 24" fill="none" xmlns="http://www.w3.org/2000/svg">
<path fill-rule="evenodd" clip-rule="evenodd" d="M8 6.5V16C8 18.2091 9.79086 20 12 20C14.2091 20 16 18.2091 16 16V6C16 5.44772 16.4477 5 17 5C17.5523 5 18 5.44772 18 6V16C18 19.3137 15.3137 22 12 22C8.68629 22 6 19.3137 6 16V6.5C6 4.01472 8.01472 2 10.5 2C12.9853 2 15 4.01472 15 6.5V16C15 17.6569 13.6569 19 12 19C10.3431 19 9 17.6559 9 15.999L9 7C9 6.44772 9.44772 6 10 6C10.5523 6 11 6.44772 11 7V16.0001C11.0001 16.5524 11.4478 17 12 17C12.5523 17 13 16.5513 13 15.999C13 15.9993 13 15.9987 13 15.999L13 6.5C13 6.50033 13 6.49967 13 6.5C13 5.11929 11.8807 4 10.5 4C9.11929 4 8 5.11929 8 6.5Z" fill="#777B92"/>
</svg>
