<svg width="22" height="22" viewBox="0 0 22 22" fill="none" xmlns="http://www.w3.org/2000/svg">
<path d="M6.35792 14.6816L6.3796 14.7089C6.75584 15.1793 7.18656 15.5941 7.66666 15.9369C8.60271 16.6052 9.72645 17 11 17C12.2737 17 13.3974 16.6052 14.3334 15.9368C14.8135 15.594 15.2442 15.1793 15.6204 14.7089L15.6421 14.6816C15.71 14.5959 15.776 14.5084 15.8403 14.4191C16.1458 13.9945 15.9921 13.3976 15.5565 13.13C15.1895 12.9046 14.7412 12.9871 14.4155 13.2633C14.3847 13.2894 14.355 13.3172 14.3266 13.3467C14.2987 13.3756 14.272 13.4061 14.2468 13.438C13.9939 13.7579 13.7105 14.0376 13.3994 14.2708C12.7253 14.7759 11.9207 15.0625 11.012 15.065L11 15.065L10.988 15.065C10.0793 15.0625 9.27471 14.7759 8.60065 14.2708C8.28949 14.0376 8.00615 13.7579 7.75324 13.438C7.72796 13.4061 7.7013 13.3756 7.67342 13.3467C7.645 13.3172 7.6153 13.2894 7.58451 13.2633C7.25884 12.9871 6.81046 12.9046 6.44353 13.13C6.00787 13.3976 5.85416 13.9945 6.15973 14.4191C6.22398 14.5084 6.29005 14.5959 6.35792 14.6816Z" fill="#97A3BA"/>
<path d="M16 8.5C16 9.32843 15.3284 10 14.5 10C13.6716 10 13 9.32843 13 8.5C13 7.67157 13.6716 7 14.5 7C15.3284 7 16 7.67157 16 8.5Z" fill="#97A3BA"/>
<path d="M7.5 10C8.32843 10 9 9.32843 9 8.5C9 7.67157 8.32843 7 7.5 7C6.67157 7 6 7.67157 6 8.5C6 9.32843 6.67157 10 7.5 10Z" fill="#97A3BA"/>
<path fill-rule="evenodd" clip-rule="evenodd" d="M5.4443 2.6853C7.08879 1.58649 9.02219 1 11 1C12.3132 1 13.6136 1.25866 14.8268 1.7612C16.0401 2.26375 17.1425 3.00035 18.0711 3.92893C18.9997 4.85752 19.7363 5.95991 20.2388 7.17317C20.7413 8.38642 21 9.68678 21 11C21 12.9778 20.4135 14.9112 19.3147 16.5557C18.2159 18.2002 16.6541 19.4819 14.8268 20.2388C12.9996 20.9957 10.9889 21.1937 9.0491 20.8079C7.10929 20.422 5.32746 19.4696 3.92894 18.0711C2.53041 16.6725 1.578 14.8907 1.19215 12.9509C0.806299 11.0111 1.00433 9.00043 1.76121 7.17317C2.51809 5.3459 3.79981 3.78412 5.4443 2.6853ZM6.55544 17.6518C7.87104 18.5308 9.41775 19 11 19C13.1217 19 15.1566 18.1571 16.6569 16.6569C18.1572 15.1566 19 13.1217 19 11C19 9.41775 18.5308 7.87103 17.6518 6.55544C16.7727 5.23984 15.5233 4.21447 14.0615 3.60896C12.5997 3.00346 10.9911 2.84504 9.43928 3.15372C7.88743 3.4624 6.46197 4.22433 5.34315 5.34315C4.22433 6.46197 3.4624 7.88743 3.15372 9.43928C2.84504 10.9911 3.00347 12.5997 3.60897 14.0615C4.21447 15.5233 5.23985 16.7727 6.55544 17.6518Z" fill="#97A3BA"/>
</svg>
