<svg width="22" height="22" viewBox="0 0 22 22" fill="none" xmlns="http://www.w3.org/2000/svg">
<path fill-rule="evenodd" clip-rule="evenodd" d="M7 19C7 19.5523 7.44772 20 8 20C8.55228 20 9 19.5523 9 19V15H13V19C13 19.5523 13.4477 20 14 20C14.5523 20 15 19.5523 15 19V15H19C19.5523 15 20 14.5523 20 14C20 13.4477 19.5523 13 19 13H15V9H19C19.5523 9 20 8.55228 20 8C20 7.44772 19.5523 7 19 7H15V3C15 2.44772 14.5523 2 14 2C13.4477 2 13 2.44772 13 3V7H9V3C9 2.44772 8.55228 2 8 2C7.44772 2 7 2.44772 7 3V7H3C2.44772 7 2 7.44772 2 8C2 8.55228 2.44772 9 3 9H7V13H3C2.44772 13 2 13.4477 2 14C2 14.5523 2.44772 15 3 15H7V19ZM9 9V13H13V9L9 9Z" fill="#97A3BA"/>
</svg>
