<svg width="22" height="22" viewBox="0 0 22 22" fill="none" xmlns="http://www.w3.org/2000/svg">
<path d="M6.35792 14.3184L6.3796 14.2911C6.75584 13.8207 7.18656 13.4059 7.66666 13.0631C8.60271 12.3948 9.72645 12 11 12C12.2737 12 13.3974 12.3948 14.3334 13.0632C14.8135 13.406 15.2442 13.8207 15.6204 14.2911L15.6421 14.3184C15.71 14.4041 15.776 14.4916 15.8403 14.5809C16.1458 15.0055 15.9921 15.6024 15.5565 15.87C15.1895 16.0954 14.7412 16.0129 14.4155 15.7367C14.3847 15.7106 14.355 15.6828 14.3266 15.6533C14.2987 15.6244 14.272 15.5939 14.2468 15.562C13.9939 15.2421 13.7105 14.9624 13.3994 14.7292C12.7253 14.2241 11.9207 13.9375 11.012 13.935L11 13.935L10.988 13.935C10.0793 13.9375 9.27471 14.2241 8.60065 14.7292C8.28949 14.9624 8.00615 15.2421 7.75324 15.562C7.72796 15.5939 7.7013 15.6244 7.67342 15.6533C7.645 15.6828 7.6153 15.7106 7.58451 15.7367C7.25884 16.0129 6.81046 16.0954 6.44353 15.87C6.00787 15.6024 5.85416 15.0055 6.15973 14.5809C6.22398 14.4916 6.29005 14.4041 6.35792 14.3184Z" fill="#97A3BA"/>
<path d="M16 8.5C16 9.32843 15.3284 10 14.5 10C13.6716 10 13 9.32843 13 8.5C13 7.67157 13.6716 7 14.5 7C15.3284 7 16 7.67157 16 8.5Z" fill="#97A3BA"/>
<path d="M7.5 10C8.32843 10 9 9.32843 9 8.5C9 7.67157 8.32843 7 7.5 7C6.67157 7 6 7.67157 6 8.5C6 9.32843 6.67157 10 7.5 10Z" fill="#97A3BA"/>
<path fill-rule="evenodd" clip-rule="evenodd" d="M5.4443 2.6853C7.08879 1.58649 9.02219 1 11 1C12.3132 1 13.6136 1.25866 14.8268 1.7612C16.0401 2.26375 17.1425 3.00035 18.0711 3.92893C18.9997 4.85752 19.7363 5.95991 20.2388 7.17317C20.7413 8.38642 21 9.68678 21 11C21 12.9778 20.4135 14.9112 19.3147 16.5557C18.2159 18.2002 16.6541 19.4819 14.8268 20.2388C12.9996 20.9957 10.9889 21.1937 9.0491 20.8079C7.10929 20.422 5.32746 19.4696 3.92894 18.0711C2.53041 16.6725 1.578 14.8907 1.19215 12.9509C0.806299 11.0111 1.00433 9.00043 1.76121 7.17317C2.51809 5.3459 3.79981 3.78412 5.4443 2.6853ZM6.55544 17.6518C7.87104 18.5308 9.41775 19 11 19C13.1217 19 15.1566 18.1571 16.6569 16.6569C18.1572 15.1566 19 13.1217 19 11C19 9.41775 18.5308 7.87103 17.6518 6.55544C16.7727 5.23984 15.5233 4.21447 14.0615 3.60896C12.5997 3.00346 10.9911 2.84504 9.43928 3.15372C7.88743 3.4624 6.46197 4.22433 5.34315 5.34315C4.22433 6.46197 3.4624 7.88743 3.15372 9.43928C2.84504 10.9911 3.00347 12.5997 3.60897 14.0615C4.21447 15.5233 5.23985 16.7727 6.55544 17.6518Z" fill="#97A3BA"/>
</svg>
