<svg width="24" height="24" viewBox="0 0 24 24" fill="none" xmlns="http://www.w3.org/2000/svg">
<path fill-rule="evenodd" clip-rule="evenodd" d="M4 5C3.44772 5 3 4.55228 3 4C3 3.44772 3.44772 3 4 3C4.55228 3 5 3.44772 5 4C5 4.55228 4.55228 5 4 5Z" fill="#777B92"/>
<path fill-rule="evenodd" clip-rule="evenodd" d="M8 5C7.44772 5 7 4.55228 7 4C7 3.44772 7.44772 3 8 3C8.55228 3 9 3.44772 9 4C9 4.55228 8.55228 5 8 5Z" fill="#777B92"/>
<path fill-rule="evenodd" clip-rule="evenodd" d="M9 20C9 20.5523 8.55228 21 8 21C7.44772 21 7 20.5523 7 20C7 19.4477 7.44772 19 8 19C8.55228 19 9 19.4477 9 20Z" fill="#777B92"/>
<path fill-rule="evenodd" clip-rule="evenodd" d="M16 5C15.4477 5 15 4.55228 15 4C15 3.44772 15.4477 3 16 3C16.5523 3 17 3.44772 17 4C17 4.55228 16.5523 5 16 5Z" fill="#777B92"/>
<path fill-rule="evenodd" clip-rule="evenodd" d="M17 20C17 20.5523 16.5523 21 16 21C15.4477 21 15 20.5523 15 20C15 19.4477 15.4477 19 16 19C16.5523 19 17 19.4477 17 20Z" fill="#777B92"/>
<path fill-rule="evenodd" clip-rule="evenodd" d="M13 4V11H20C20.5523 11 21 11.4477 21 12C21 12.5523 20.5523 13 20 13H13V20C13 20.5523 12.5523 21 12 21C11.4477 21 11 20.5523 11 20V13H4C3.44772 13 3 12.5523 3 12C3 11.4477 3.44772 11 4 11H11V4C11 3.44772 11.4477 3 12 3C12.5523 3 13 3.44772 13 4Z" fill="#777B92"/>
<path fill-rule="evenodd" clip-rule="evenodd" d="M21 4C21 4.55228 20.5523 5 20 5C19.4477 5 19 4.55228 19 4C19 3.44772 19.4477 3 20 3C20.5523 3 21 3.44772 21 4Z" fill="#777B92"/>
<path fill-rule="evenodd" clip-rule="evenodd" d="M20 9C19.4477 9 19 8.55228 19 8C19 7.44772 19.4477 7 20 7C20.5523 7 21 7.44772 21 8C21 8.55228 20.5523 9 20 9Z" fill="#777B92"/>
<path fill-rule="evenodd" clip-rule="evenodd" d="M5 8C5 8.55228 4.55228 9 4 9C3.44772 9 3 8.55228 3 8C3 7.44772 3.44772 7 4 7C4.55228 7 5 7.44772 5 8Z" fill="#777B92"/>
<path fill-rule="evenodd" clip-rule="evenodd" d="M20 17C19.4477 17 19 16.5523 19 16C19 15.4477 19.4477 15 20 15C20.5523 15 21 15.4477 21 16C21 16.5523 20.5523 17 20 17Z" fill="#777B92"/>
<path fill-rule="evenodd" clip-rule="evenodd" d="M5 16C5 16.5523 4.55228 17 4 17C3.44772 17 3 16.5523 3 16C3 15.4477 3.44772 15 4 15C4.55228 15 5 15.4477 5 16Z" fill="#777B92"/>
<path fill-rule="evenodd" clip-rule="evenodd" d="M20 21C19.4477 21 19 20.5523 19 20C19 19.4477 19.4477 19 20 19C20.5523 19 21 19.4477 21 20C21 20.5523 20.5523 21 20 21Z" fill="#777B92"/>
<path fill-rule="evenodd" clip-rule="evenodd" d="M5 20C5 20.5523 4.55228 21 4 21C3.44772 21 3 20.5523 3 20C3 19.4477 3.44772 19 4 19C4.55228 19 5 19.4477 5 20Z" fill="#777B92"/>
</svg>
