<svg width="22" height="22" viewBox="0 0 22 22" fill="none" xmlns="http://www.w3.org/2000/svg">
<path d="M1 2C0.447715 2 0 1.55228 0 1C0 0.447715 0.447715 0 1 0C1.55228 0 2 0.447715 2 1C2 1.55228 1.55228 2 1 2Z" fill="#97A3BA"/>
<path d="M17 2C16.4477 2 16 1.55228 16 1C16 0.447715 16.4477 0 17 0C17.5523 0 18 0.447715 18 1C18 1.55228 17.5523 2 17 2Z" fill="#97A3BA"/>
<path fill-rule="evenodd" clip-rule="evenodd" d="M18.3333 4C19.3058 4 20.2384 4.38631 20.9261 5.07394C21.6137 5.76158 22 6.69421 22 7.66667V18.3333C22 19.3058 21.6137 20.2384 20.9261 20.9261C20.2384 21.6137 19.3058 22 18.3333 22H7.66667C6.69421 22 5.76157 21.6137 5.07394 20.9261C4.38631 20.2384 4 19.3058 4 18.3333V7.66667C4 6.69421 4.38631 5.76158 5.07394 5.07394C5.76157 4.38631 6.69421 4 7.66667 4H18.3333ZM19.5118 6.48816C19.1993 6.17559 18.7754 6 18.3333 6H7.66667C7.22464 6 6.80072 6.17559 6.48816 6.48816C6.17559 6.80072 6 7.22464 6 7.66667V18.3333C6 18.7754 6.17559 19.1993 6.48816 19.5118C6.80072 19.8244 7.22464 20 7.66667 20H18.3333C18.7754 20 19.1993 19.8244 19.5118 19.5118C19.8244 19.1993 20 18.7754 20 18.3333V7.66667C20 7.22464 19.8244 6.80072 19.5118 6.48816Z" fill="#97A3BA"/>
<path d="M12 1C12 1.55228 12.4477 2 13 2C13.5523 2 14 1.55228 14 1C14 0.447715 13.5523 0 13 0C12.4477 0 12 0.447715 12 1Z" fill="#97A3BA"/>
<path d="M9 2C8.44772 2 8 1.55228 8 1C8 0.447715 8.44772 0 9 0C9.55229 0 10 0.447715 10 1C10 1.55228 9.55229 2 9 2Z" fill="#97A3BA"/>
<path d="M4 1C4 1.55228 4.44772 2 5 2C5.55228 2 6 1.55228 6 1C6 0.447715 5.55228 0 5 0C4.44772 0 4 0.447715 4 1Z" fill="#97A3BA"/>
<path d="M0 5C0 5.55228 0.447715 6 1 6C1.55228 6 2 5.55228 2 5C2 4.44772 1.55228 4 1 4C0.447715 4 0 4.44772 0 5Z" fill="#97A3BA"/>
<path d="M1 10C0.447715 10 0 9.55228 0 9C0 8.44771 0.447715 8 1 8C1.55228 8 2 8.44771 2 9C2 9.55228 1.55228 10 1 10Z" fill="#97A3BA"/>
<path d="M0 17C0 17.5523 0.447715 18 1 18C1.55228 18 2 17.5523 2 17C2 16.4477 1.55228 16 1 16C0.447715 16 0 16.4477 0 17Z" fill="#97A3BA"/>
<path d="M1 14C0.447715 14 0 13.5523 0 13C0 12.4477 0.447715 12 1 12C1.55228 12 2 12.4477 2 13C2 13.5523 1.55228 14 1 14Z" fill="#97A3BA"/>
</svg>
