<svg width="24" height="24" viewBox="0 0 24 24" fill="none" xmlns="http://www.w3.org/2000/svg">
<path fill-rule="evenodd" clip-rule="evenodd" d="M4 5H20C20.5523 5 21 5.44772 21 6C21 6.55228 20.5523 7 20 7H4C3.44772 7 3 6.55228 3 6C3 5.44772 3.44772 5 4 5Z" fill="#777B92"/>
<path fill-rule="evenodd" clip-rule="evenodd" d="M4 17H20C20.5523 17 21 17.4477 21 18C21 18.5523 20.5523 19 20 19H4C3.44772 19 3 18.5523 3 18C3 17.4477 3.44772 17 4 17Z" fill="#777B92"/>
<path fill-rule="evenodd" clip-rule="evenodd" d="M7 10C7 9.44772 7.44772 9 8 9H16C16.5523 9 17 9.44772 17 10C17 10.5523 16.5523 11 16 11H8C7.44772 11 7 10.5523 7 10Z" fill="#777B92"/>
<path fill-rule="evenodd" clip-rule="evenodd" d="M8 13H16C16.5523 13 17 13.4477 17 14C17 14.5523 16.5523 15 16 15H8C7.44772 15 7 14.5523 7 14C7 13.4477 7.44772 13 8 13Z" fill="#777B92"/>
</svg>
