<svg width="22" height="22" viewBox="0 0 22 22" fill="none" xmlns="http://www.w3.org/2000/svg">
<path fill-rule="evenodd" clip-rule="evenodd" d="M4.0942 16.9422H4.0042C3.8726 16.943 3.74213 16.9178 3.6203 16.868C3.49846 16.8182 3.38764 16.7449 3.2942 16.6522C3.19001 16.5484 3.10999 16.4229 3.05986 16.2846C3.00974 16.1463 2.99073 15.9987 3.0042 15.8522L3.4342 11.6822C3.47971 11.2254 3.68097 10.7982 4.0042 10.4722L13.0042 1.47224C13.379 1.15561 13.8571 0.987786 14.3475 1.00069C14.838 1.0136 15.3066 1.20634 15.6642 1.54224L18.4042 4.28224C18.7721 4.63275 18.9861 5.1148 18.9992 5.62278C19.0123 6.13075 18.8235 6.62321 18.4742 6.99224L9.4742 15.9922C9.14824 16.3155 8.721 16.5167 8.2642 16.5622L4.0942 16.9422ZM17.0042 5.67224L14.2742 2.94224L12.3242 4.94224L15.0042 7.62224L17.0042 5.67224ZM11.0042 6.26224L5.3742 11.8522L5.1042 14.8422L8.1042 14.5622L13.7042 8.96224L11.0042 6.26224Z" fill="#97A3BA"/>
<path d="M4.00391 19H18.0039C18.2691 19 18.5235 19.1054 18.711 19.2929C18.8986 19.4804 19.0039 19.7348 19.0039 20C19.0039 20.2652 18.8986 20.5196 18.711 20.7071C18.5235 20.8946 18.2691 21 18.0039 21H4.00391C3.73869 21 3.48434 20.8946 3.2968 20.7071C3.10926 20.5196 3.00391 20.2652 3.00391 20C3.00391 19.7348 3.10926 19.4804 3.2968 19.2929C3.48434 19.1054 3.73869 19 4.00391 19Z" fill="#97A3BA"/>
</svg>
