<svg width="22" height="22" viewBox="0 0 22 22" fill="none" xmlns="http://www.w3.org/2000/svg">
<path d="M11 6.00018C10.4477 6.00018 10 6.4479 10 7.00018C10 7.55247 10.4477 8.00018 11 8.00018C11.5523 8.00018 12 7.55247 12 7.00018C12 6.4479 11.5523 6.00018 11 6.00018Z" fill="#97A3BA"/>
<path d="M11 10.0002C10.4477 10.0002 10 10.4479 10 11.0002C10 11.5525 10.4477 12.0002 11 12.0002C11.5523 12.0002 12 11.5525 12 11.0002C12 10.4479 11.5523 10.0002 11 10.0002Z" fill="#97A3BA"/>
<path d="M11 14.0002C10.4477 14.0002 10 14.4479 10 15.0002C10 15.5525 10.4477 16.0002 11 16.0002C11.5523 16.0002 12 15.5525 12 15.0002C12 14.4479 11.5523 14.0002 11 14.0002Z" fill="#97A3BA"/>
<path d="M16 11.0002C16 10.4479 15.5523 10.0002 15 10.0002C14.4477 10.0002 14 10.4479 14 11.0002C14 11.5525 14.4477 12.0002 15 12.0002C15.5523 12.0002 16 11.5525 16 11.0002Z" fill="#97A3BA"/>
<path d="M7 10.0002C7.55229 10.0002 8 10.4479 8 11.0002C8 11.5525 7.55229 12.0002 7 12.0002C6.44772 12.0002 6 11.5525 6 11.0002C6 10.4479 6.44772 10.0002 7 10.0002Z" fill="#97A3BA"/>
<path fill-rule="evenodd" clip-rule="evenodd" d="M2 3.99937C2 2.89521 2.89479 1.99994 3.99894 1.99948C8.66631 1.99757 13.3337 1.99757 18.0011 1.99948C19.1052 1.99994 20 2.88991 20 3.99407C20 7.46476 20 14.5474 20 18.0077C20 19.1115 19.1088 20.0006 18.0049 20.0011C13.5637 20.0031 7.19876 20.0015 3.99856 20.0005C2.89432 20.0001 2 19.1049 2 18.0006V3.99937ZM4 4.00018L4 18.0002H18L18 4.00018H4Z" fill="#97A3BA"/>
</svg>
