<svg width="22" height="22" viewBox="0 0 22 22" fill="none" xmlns="http://www.w3.org/2000/svg">
<path fill-rule="evenodd" clip-rule="evenodd" d="M15.6642 3.5442L18.4042 6.29413C18.7721 6.64591 18.9861 7.12971 18.9992 7.63952C19.0123 8.14933 18.8235 8.64358 18.4742 9.01395L9.4742 18.0465C9.14824 18.3709 8.721 18.5729 8.2642 18.6186L4.0942 19H4.0042C3.8726 19.0007 3.74213 18.9754 3.6203 18.9255C3.49846 18.8755 3.38764 18.802 3.2942 18.7089C3.19001 18.6047 3.10999 18.4788 3.05986 18.34C3.00974 18.2012 2.99073 18.053 3.0042 17.906L3.4342 13.7209C3.47971 13.2625 3.68097 12.8337 4.0042 12.5065L13.0042 3.47395C13.379 3.15617 13.8571 2.98774 14.3475 3.0007C14.838 3.01365 15.3066 3.20708 15.6642 3.5442ZM5.0842 16.8924L8.0842 16.6114L13.7042 10.9911L11.0042 8.2813L5.3542 13.8815L5.0842 16.8924ZM12.3242 6.95652L15.0042 9.64623L17.0042 7.68916L14.2742 4.94928L12.3242 6.95652Z" fill="#97A3BA"/>
<path d="M17.3411 18.5815C17.9999 19.2593 19.0123 19.1428 18.9999 18.0188V13.9812C19.0123 12.8572 17.9999 12.7407 17.3411 13.4185L15.3427 15.219C15 15.5 15.0006 16 15.0006 16C15.0006 16 15 16.5 15.3427 16.781L17.3411 18.5815Z" fill="#97A3BA"/>
</svg>
