<svg width="22" height="22" viewBox="0 0 22 22" fill="none" xmlns="http://www.w3.org/2000/svg">
<path d="M1.70711 7.29289C1.31658 6.90237 0.683417 6.90237 0.292893 7.29289C-0.0976311 7.68342 -0.0976311 8.31658 0.292893 8.70711L1.58579 10L0.292895 11.2929C-0.0976298 11.6834 -0.0976298 12.3166 0.292895 12.7071C0.683419 13.0976 1.31658 13.0976 1.70711 12.7071L3 11.4142L4.29289 12.7071C4.68342 13.0976 5.31658 13.0976 5.70711 12.7071C6.09763 12.3166 6.09763 11.6834 5.70711 11.2929L4.41421 10L5.70711 8.70711C6.09763 8.31658 6.09763 7.68342 5.70711 7.29289C5.31658 6.90237 4.68342 6.90237 4.29289 7.29289L3 8.58579L1.70711 7.29289Z" fill="#BCC3D2"/>
<path fill-rule="evenodd" clip-rule="evenodd" d="M8 7C8 6.44772 8.44772 6 9 6H10L10 2C10 0.895432 10.8954 3.10553e-07 12 2.62271e-07L18 0C19.1046 -4.82823e-08 20 0.895431 20 2C20 7.33333 20 12.6667 20 18C20 19.1046 19.1046 20 18 20H12C10.8954 20 10 19.1046 10 18L10 14H9C8.44772 14 8 13.5523 8 13V7ZM18 12L18 8L10 8V12L18 12ZM12 14L12 18H18V14L12 14ZM18 6L12 6L12 2L18 2V6Z" fill="#BCC3D2"/>
</svg>
