<svg width="22" height="22" viewBox="0 0 22 22" fill="none" xmlns="http://www.w3.org/2000/svg">
<path fill-rule="evenodd" clip-rule="evenodd" d="M14 0C12.8954 0 12 0.895431 12 2V10C12 11.1046 12.8954 12 14 12H16C17.1046 12 18 11.1046 18 10V2C18 0.895431 17.1046 0 16 0H14ZM14 2L16 2V10H14V2Z" fill="#49AB4D"/>
<path d="M5.70711 3.29289C5.31658 2.90237 4.68342 2.90237 4.29289 3.29289C3.90237 3.68342 3.90237 4.31658 4.29289 4.70711L4.58579 5H1C0.447715 5 0 5.44772 0 6C0 6.55228 0.447715 7 1 7H4.58579L4.29289 7.29289C3.90237 7.68342 3.90237 8.31658 4.29289 8.70711C4.68342 9.09763 5.31658 9.09763 5.70711 8.70711L7.70711 6.70711C8.09763 6.31658 8.09763 5.68342 7.70711 5.29289L5.70711 3.29289Z" fill="#49AB4D"/>
<path d="M2 13C2 13.5523 1.55228 14 1 14C0.447715 14 0 13.5523 0 13C0 12.4477 0.447715 12 1 12C1.55228 12 2 12.4477 2 13Z" fill="#49AB4D"/>
<path d="M10 13C10 13.5523 9.55229 14 9 14C8.44771 14 8 13.5523 8 13C8 12.4477 8.44771 12 9 12C9.55229 12 10 12.4477 10 13Z" fill="#49AB4D"/>
<path d="M9 18C9.55229 18 10 17.5523 10 17C10 16.4477 9.55229 16 9 16C8.44771 16 8 16.4477 8 17C8 17.5523 8.44771 18 9 18Z" fill="#49AB4D"/>
<path d="M6 17C6 17.5523 5.55228 18 5 18C4.44772 18 4 17.5523 4 17C4 16.4477 4.44772 16 5 16C5.55228 16 6 16.4477 6 17Z" fill="#49AB4D"/>
<path d="M1 18C1.55228 18 2 17.5523 2 17C2 16.4477 1.55228 16 1 16C0.447715 16 0 16.4477 0 17C0 17.5523 0.447715 18 1 18Z" fill="#49AB4D"/>
<path d="M5 14C5.55228 14 6 13.5523 6 13C6 12.4477 5.55228 12 5 12C4.44772 12 4 12.4477 4 13C4 13.5523 4.44772 14 5 14Z" fill="#49AB4D"/>
</svg>
