<svg width="24" height="24" viewBox="0 0 24 24" fill="none" xmlns="http://www.w3.org/2000/svg">
<path fill-rule="evenodd" clip-rule="evenodd" d="M8 4V11C8 13.2091 9.79086 15 12 15C14.2091 15 16 13.2091 16 11V4C16 3.44772 16.4477 3 17 3C17.5523 3 18 3.44772 18 4V11C18 14.3137 15.3137 17 12 17C8.68629 17 6 14.3137 6 11V4C6 3.44772 6.44772 3 7 3C7.55228 3 8 3.44772 8 4Z" fill="#777B92"/>
<path fill-rule="evenodd" clip-rule="evenodd" d="M6 19H18C18.5523 19 19 19.4477 19 20C19 20.5523 18.5523 21 18 21H6C5.44772 21 5 20.5523 5 20C5 19.4477 5.44772 19 6 19Z" fill="#777B92"/>
</svg>
