<svg width="22" height="22" viewBox="0 0 22 22" fill="none" xmlns="http://www.w3.org/2000/svg">
<path d="M6 10C6 10.5523 5.55228 11 5 11H4V12C4 12.5523 3.55229 13 3 13C2.44772 13 2 12.5523 2 12V11H1C0.447715 11 2.41412e-08 10.5523 0 10C-2.41411e-08 9.44772 0.447715 9 1 9H2V8C2 7.44772 2.44772 7 3 7C3.55229 7 4 7.44772 4 8L4 9H5C5.55228 9 6 9.44772 6 10Z" fill="#7887A5"/>
<path fill-rule="evenodd" clip-rule="evenodd" d="M12 2.62269e-07C10.8954 3.10551e-07 10 0.895432 10 2L10 6H9C8.44772 6 8 6.44772 8 7V13C8 13.5523 8.44772 14 9 14H10L10 18C10 19.1046 10.8954 20 12 20H18C19.1046 20 20 19.1046 20 18L20 2C20 0.895431 19.1046 -4.82823e-08 18 0L12 2.62269e-07ZM18 8L10 8V12L18 12L18 8ZM18 6V2L12 2L12 6L18 6ZM18 14L12 14L12 18H18V14Z" fill="#7887A5"/>
</svg>
