<svg width="24" height="24" viewBox="0 0 24 24" fill="none" xmlns="http://www.w3.org/2000/svg">
<path fill-rule="evenodd" clip-rule="evenodd" d="M16 5C15.4477 5 15 4.55228 15 4C15 3.44772 15.4477 3 16 3C16.5523 3 17 3.44772 17 4C17 4.55228 16.5523 5 16 5Z" fill="#777B92"/>
<path fill-rule="evenodd" clip-rule="evenodd" d="M16 9C15.4477 9 15 8.55228 15 8C15 7.44772 15.4477 7 16 7C16.5523 7 17 7.44772 17 8C17 8.55228 16.5523 9 16 9Z" fill="#777B92"/>
<path fill-rule="evenodd" clip-rule="evenodd" d="M17 12C17 12.5523 16.5523 13 16 13C15.4477 13 15 12.5523 15 12C15 11.4477 15.4477 11 16 11C16.5523 11 17 11.4477 17 12Z" fill="#777B92"/>
<path fill-rule="evenodd" clip-rule="evenodd" d="M20 5C19.4477 5 19 4.55228 19 4C19 3.44772 19.4477 3 20 3C20.5523 3 21 3.44772 21 4C21 4.55228 20.5523 5 20 5Z" fill="#777B92"/>
<path fill-rule="evenodd" clip-rule="evenodd" d="M21 8C21 8.55228 20.5523 9 20 9C19.4477 9 19 8.55228 19 8C19 7.44772 19.4477 7 20 7C20.5523 7 21 7.44772 21 8Z" fill="#777B92"/>
<path fill-rule="evenodd" clip-rule="evenodd" d="M20 13C19.4477 13 19 12.5523 19 12C19 11.4477 19.4477 11 20 11C20.5523 11 21 11.4477 21 12C21 12.5523 20.5523 13 20 13Z" fill="#777B92"/>
<path fill-rule="evenodd" clip-rule="evenodd" d="M3 17C3 15.8954 3.89543 15 5 15H13C14.1046 15 15 15.8954 15 17V19C15 20.1046 14.1046 21 13 21H5C3.89543 21 3 20.1046 3 19V17ZM13 19V17H5V19H13Z" fill="#777B92"/>
<path fill-rule="evenodd" clip-rule="evenodd" d="M11.7071 8.70711L9.70711 10.7071C9.31658 11.0976 8.68342 11.0976 8.29289 10.7071L6.29289 8.70711C5.90237 8.31658 5.90237 7.68342 6.29289 7.29289C6.68342 6.90237 7.31658 6.90237 7.70711 7.29289L8 7.58579L8 4C8 3.44772 8.44771 3 9 3C9.55228 3 10 3.44772 10 4L10 7.58579L10.2929 7.29289C10.6834 6.90237 11.3166 6.90237 11.7071 7.29289C12.0976 7.68342 12.0976 8.31658 11.7071 8.70711Z" fill="#777B92"/>
</svg>
