<svg width="24" height="24" viewBox="0 0 24 24" fill="none" xmlns="http://www.w3.org/2000/svg">
<path fill-rule="evenodd" clip-rule="evenodd" d="M13.5858 4.99985C14.3668 4.2188 15.6331 4.2188 16.4142 4.99985L19 7.58564C19.781 8.36668 19.781 9.63301 19 10.4141L16.7181 12.696L16.7071 12.7071L16.696 12.7181L10.4551 18.9589C10.134 19.28 9.71314 19.4823 9.26178 19.5325L6.35277 19.8557C5.07894 19.9972 4.0026 18.9209 4.14414 17.6471L4.46736 14.7381C4.51751 14.2867 4.71979 13.8658 5.04091 13.5447L13.5858 4.99985ZM17.5858 8.99985L15 6.41406L13.4141 7.99992L15.9999 10.5857L17.5858 8.99985ZM6.45513 14.9589L6.1319 17.8679L9.04091 17.5447L14.5857 11.9999L11.9999 9.41413L6.45513 14.9589Z" fill="#777B92"/>
<path fill-rule="evenodd" clip-rule="evenodd" d="M20 18.9197C20 19.7582 19.0301 20.2244 18.3754 19.7006L15.9761 17.7812C15.4757 17.3809 15.4757 16.6198 15.9761 16.2195L18.3754 14.3001C19.0301 13.7763 20 14.2425 20 15.081V18.9197Z" fill="#777B92"/>
</svg>
