<svg width="24" height="24" viewBox="0 0 24 24" fill="none" xmlns="http://www.w3.org/2000/svg">
<path fill-rule="evenodd" clip-rule="evenodd" d="M3 4C3 2.89543 3.89543 2 5 2H6C6.55228 2 7 2.44772 7 3C7 3.55228 6.55228 4 6 4H5V9.58579C5 10.1162 4.78929 10.6249 4.41421 11L3.41421 12L4.41421 13C4.78929 13.3751 5 13.8838 5 14.4142V20H6C6.55228 20 7 20.4477 7 21C7 21.5523 6.55228 22 6 22H5C3.89543 22 3 21.1046 3 20L3 14.4142L1.29289 12.7071C1.10536 12.5196 1 12.2652 1 12C1 11.7348 1.10536 11.4804 1.29289 11.2929L3 9.58579V4Z" fill="#777B92"/>
<path fill-rule="evenodd" clip-rule="evenodd" d="M13 18C13 18.5523 12.5523 19 12 19C11.4477 19 11 18.5523 11 18C11 17.4477 11.4477 17 12 17C12.5523 17 13 17.4477 13 18Z" fill="#777B92"/>
<path fill-rule="evenodd" clip-rule="evenodd" d="M9 2H10C10.5523 2 11 2.44772 11 3C11 3.55228 10.5523 4 10 4H9V9.58579C9 10.1162 8.78929 10.6249 8.41421 11L7.41421 12L8.41421 13C8.78929 13.3751 9 13.8838 9 14.4142V20H10C10.5523 20 11 20.4477 11 21C11 21.5523 10.5523 22 10 22H9C7.89543 22 7 21.1046 7 20V14.4142L5.29289 12.7071C5.10536 12.5196 5 12.2652 5 12C5 11.7348 5.10536 11.4804 5.29289 11.2929L7 9.58579V4C7 2.89543 7.89543 2 9 2Z" fill="#777B92"/>
<path fill-rule="evenodd" clip-rule="evenodd" d="M17 3C17 2.44772 17.4477 2 18 2H19C20.1046 2 21 2.89543 21 4V9.58579L22.7071 11.2929C22.8946 11.4804 23 11.7348 23 12C23 12.2652 22.8946 12.5196 22.7071 12.7071L21 14.4142V20C21 21.1046 20.1046 22 19 22H18C17.4477 22 17 21.5523 17 21C17 20.4477 17.4477 20 18 20H19V14.4142C19 13.8838 19.2107 13.3751 19.5858 13L20.5858 12L19.5858 11C19.2107 10.6249 19 10.1162 19 9.58579V4H18C17.4477 4 17 3.55228 17 3Z" fill="#777B92"/>
<path fill-rule="evenodd" clip-rule="evenodd" d="M14 2H15C16.1046 2 17 2.89543 17 4V9.58579L18.7071 11.2929C18.8946 11.4804 19 11.7348 19 12C19 12.2652 18.8946 12.5196 18.7071 12.7071L17 14.4142V20C17 21.1046 16.1046 22 15 22H14C13.4477 22 13 21.5523 13 21C13 20.4477 13.4477 20 14 20H15V14.4142C15 13.8838 15.2107 13.3751 15.5858 13L16.5858 12L15.5858 11C15.2107 10.6249 15 10.1162 15 9.58579V4H14C13.4477 4 13 3.55228 13 3C13 2.44772 13.4477 2 14 2Z" fill="#777B92"/>
</svg>
