<svg width="22" height="22" viewBox="0 0 22 22" fill="none" xmlns="http://www.w3.org/2000/svg">
<path d="M2 3C2 2.44772 2.44772 2 3 2H19C19.5523 2 20 2.44772 20 3C20 3.55228 19.5523 4 19 4H3C2.44772 4 2 3.55228 2 3Z" fill="#97A3BA"/>
<path fill-rule="evenodd" clip-rule="evenodd" d="M7.24349 14.7439C7.07825 14.5791 7 14.375 7 14.1571C7 14.0302 7.04095 13.9082 7.08749 13.8054L7.08843 13.8033L9.92069 7.64641C10.0042 7.47341 10.1249 7.32283 10.2866 7.20549C10.478 7.06498 10.7047 7 10.9445 7H11.0555C11.2902 7 11.5152 7.06252 11.7021 7.20516C11.8689 7.32082 11.9945 7.47082 12.0793 7.64643L12.0822 7.65258L14.9125 13.8054C14.9591 13.9082 15 14.0302 15 14.1571C15 14.3818 14.9129 14.5874 14.7396 14.7496C14.5621 14.9234 14.3293 15 14.0846 15C13.908 15 13.7394 14.9584 13.5865 14.8763L13.5683 14.8666L13.5514 14.8552C13.4095 14.7602 13.3022 14.6361 13.2297 14.4913L13.2231 14.4782L12.6089 13.1201H9.39112L8.77057 14.4915C8.69375 14.6447 8.57578 14.7707 8.42359 14.8641L8.41623 14.8687C8.26314 14.9584 8.092 15 7.9154 15C7.66778 15 7.43646 14.922 7.25502 14.755L7.24349 14.7439ZM11.8745 11.5057L11 9.56712L10.1255 11.5057H11.8745Z" fill="#97A3BA"/>
<path d="M3 18C2.44772 18 2 18.4477 2 19C2 19.5523 2.44772 20 3 20H19C19.5523 20 20 19.5523 20 19C20 18.4477 19.5523 18 19 18H3Z" fill="#97A3BA"/>
</svg>
