<svg width="24" height="24" viewBox="0 0 24 24" fill="none" xmlns="http://www.w3.org/2000/svg">
<path fill-rule="evenodd" clip-rule="evenodd" d="M15 3V4H17V3C17 2.44772 17.4477 2 18 2C18.5523 2 19 2.44772 19 3V4H20C20.5523 4 21 4.44772 21 5C21 5.55228 20.5523 6 20 6H19V8H20C20.5523 8 21 8.44772 21 9C21 9.55228 20.5523 10 20 10H19V11C19 11.5523 18.5523 12 18 12C17.4477 12 17 11.5523 17 11V10H15V11C15 11.5523 14.5523 12 14 12C13.4477 12 13 11.5523 13 11V10H12C11.4477 10 11 9.55228 11 9C11 8.44772 11.4477 8 12 8H13V6H12C11.4477 6 11 5.55228 11 5C11 4.44772 11.4477 4 12 4H13V3C13 2.44772 13.4477 2 14 2C14.5523 2 15 2.44772 15 3ZM17 8V6H15V8H17Z" fill="#777B92"/>
<path fill-rule="evenodd" clip-rule="evenodd" d="M9.95845 5.00505C10.116 5.53439 9.81459 6.09122 9.28525 6.24875C6.80612 6.98658 5 9.28388 5 12.0004C5 15.3141 7.68629 18.0004 11 18.0004C13.7165 18.0004 16.0138 16.1943 16.7517 13.7152C16.9092 13.1858 17.466 12.8844 17.9954 13.042C18.5247 13.1995 18.8261 13.7563 18.6686 14.2857C18.3824 15.2471 17.9205 16.1329 17.3199 16.9057L20.7071 20.2929C21.0976 20.6834 21.0976 21.3166 20.7071 21.7071C20.3166 22.0976 19.6834 22.0976 19.2929 21.7071L15.9058 18.3201C14.5514 19.3731 12.8493 20.0004 11 20.0004C6.58172 20.0004 3 16.4187 3 12.0004C3 8.37492 5.4109 5.31512 8.71475 4.33185C9.24409 4.17431 9.80091 4.47571 9.95845 5.00505Z" fill="#777B92"/>
</svg>
