<svg width="24" height="24" viewBox="0 0 24 24" fill="none" xmlns="http://www.w3.org/2000/svg">
<path fill-rule="evenodd" clip-rule="evenodd" d="M13 21C13 21.5523 12.5523 22 12 22C11.4477 22 11 21.5523 11 21V9.41421L9.70711 10.7071C9.31658 11.0976 8.68342 11.0976 8.29289 10.7071C7.90237 10.3166 7.90237 9.68342 8.29289 9.29289L11.2929 6.29289C11.6834 5.90237 12.3166 5.90237 12.7071 6.29289L15.7071 9.29289C16.0976 9.68342 16.0976 10.3166 15.7071 10.7071C15.3166 11.0976 14.6834 11.0976 14.2929 10.7071L13 9.41421V21Z" fill="#777B92"/>
<path fill-rule="evenodd" clip-rule="evenodd" d="M4 2L20 2C20.5523 2 21 2.44772 21 3C21 3.55228 20.5523 4 20 4L4 4C3.44772 4 3 3.55228 3 3C3 2.44772 3.44772 2 4 2Z" fill="#777B92"/>
</svg>
