<svg width="22" height="22" viewBox="0 0 22 22" fill="none" xmlns="http://www.w3.org/2000/svg">
<path d="M19 2H8C5.79086 2 4 3.79086 4 6C4 7.38679 4.70538 8.60721 5.77536 9.32451C6.2341 9.63204 6.81595 9.35001 7 8.82929C7.18405 8.30858 6.87987 7.74665 6.51107 7.33555C6.19306 6.98106 6 6.51263 6 6C6 4.89543 6.89543 4 8 4H19C19.5523 4 20 3.55228 20 3C20 2.44772 19.5523 2 19 2Z" fill="#97A3BA"/>
<path d="M11 20C10.4477 20 10 19.5523 10 19L10 7C10 6.44772 10.4477 6 11 6C11.5523 6 12 6.44772 12 7V19C12 19.5523 11.5523 20 11 20Z" fill="#97A3BA"/>
<path d="M16 20C15.4477 20 15 19.5523 15 19V7C15 6.44772 15.4477 6 16 6C16.5523 6 17 6.44772 17 7V19C17 19.5523 16.5523 20 16 20Z" fill="#97A3BA"/>
</svg>
