<svg width="16" height="16" viewBox="0 0 16 16" fill="none" xmlns="http://www.w3.org/2000/svg">
<g clip-path="url(#clip0_13649_20623)">
<path fill-rule="evenodd" clip-rule="evenodd" d="M10.3536 3.64645C10.5488 3.84171 10.5488 4.15829 10.3536 4.35356L8.70711 6L10.3536 7.64645C10.5488 7.84171 10.5488 8.15829 10.3536 8.35356C10.1583 8.54882 9.84171 8.54882 9.64645 8.35356L8 6.70711L6.35355 8.35356C6.15829 8.54882 5.84171 8.54882 5.64645 8.35356C5.45118 8.15829 5.45118 7.84171 5.64645 7.64645L7.29289 6L5.64645 4.35356C5.45118 4.15829 5.45118 3.84171 5.64645 3.64645C5.84171 3.45119 6.15829 3.45119 6.35355 3.64645L8 5.2929L9.64645 3.64645C9.84171 3.45119 10.1583 3.45119 10.3536 3.64645Z" fill="#777B92"/>
<path fill-rule="evenodd" clip-rule="evenodd" d="M2.93934 10.6464C2.65804 10.3651 2.5 9.98361 2.5 9.58579L2.5 2C2.5 1.17157 3.17157 0.5 4 0.5L12 0.5C12.8284 0.5 13.5 1.17157 13.5 2V9.58579C13.5 9.98361 13.342 10.3651 13.0607 10.6464L9.06066 14.6464C8.47487 15.2322 7.52513 15.2322 6.93934 14.6464L2.93934 10.6464ZM3.5 9.58579C3.5 9.7184 3.55268 9.84557 3.64645 9.93934L7.64645 13.9393C7.84171 14.1346 8.15829 14.1346 8.35355 13.9393L12.3536 9.93934C12.4473 9.84557 12.5 9.7184 12.5 9.58579V2C12.5 1.72386 12.2761 1.5 12 1.5L4 1.5C3.72386 1.5 3.5 1.72386 3.5 2L3.5 9.58579Z" fill="#777B92"/>
</g>
<defs>
<clipPath id="clip0_13649_20623">
<rect width="16" height="16" fill="white" transform="translate(0 16) rotate(-90)"/>
</clipPath>
</defs>
</svg>
