<svg width="16" height="16" viewBox="0 0 16 16" fill="none" xmlns="http://www.w3.org/2000/svg">
<path fill-rule="evenodd" clip-rule="evenodd" d="M8 0.5C12.1421 0.5 15.5 3.85786 15.5 8C15.5 12.1421 12.1421 15.5 8 15.5C3.85786 15.5 0.5 12.1421 0.5 8C0.5 3.85786 3.85786 0.5 8 0.5ZM3.76025 3.07293C3.79346 3.09321 3.82482 3.11771 3.85355 3.14645L12.8536 12.1464C12.8823 12.1752 12.9068 12.2065 12.9271 12.2398C13.9074 11.1016 14.5 9.61999 14.5 8C14.5 4.41015 11.5899 1.5 8 1.5C6.38001 1.5 4.89843 2.09264 3.76025 3.07293ZM3.07293 3.76025C2.09264 4.89843 1.5 6.38001 1.5 8C1.5 11.5899 4.41015 14.5 8 14.5C9.61999 14.5 11.1016 13.9074 12.2398 12.9271C12.2065 12.9068 12.1752 12.8823 12.1464 12.8536L3.14645 3.85355C3.11771 3.82482 3.09321 3.79346 3.07293 3.76025Z" fill="#777B92"/>
</svg>
