<svg width="24" height="24" viewBox="0 0 24 24" fill="none" xmlns="http://www.w3.org/2000/svg">
<path fill-rule="evenodd" clip-rule="evenodd" d="M13 2V3.07111C15.6921 3.4553 18 5.36382 18 8C18 8.55228 17.5523 9 17 9C16.4477 9 16 8.55228 16 8C16 6.7515 14.8514 5.44474 13 5.09213V11.5858L15.974 14.5597C15.8985 14.0693 15.6603 13.599 15.2711 13.1846C14.893 12.782 14.9128 12.1491 15.3154 11.7711C15.718 11.393 16.3509 11.4128 16.7289 11.8154C17.5062 12.643 18 13.7113 18 14.9004C18 15.3569 17.6941 15.742 17.276 15.8618L20.7071 19.2929C21.0976 19.6834 21.0976 20.3166 20.7071 20.7071C20.3166 21.0976 19.6834 21.0976 19.2929 20.7071L13 14.4142V18.9042C13.5539 18.7959 14.0568 18.6004 14.4849 18.3431C14.9583 18.0587 15.5727 18.2118 15.8572 18.6852C16.1416 19.1586 15.9885 19.773 15.5151 20.0574C14.7784 20.5001 13.9214 20.8031 13 20.9312V22C13 22.5523 12.5523 23 12 23C11.4477 23 11 22.5523 11 22V20.9289C8.30792 20.5447 6 18.6362 6 16C6 15.4477 6.44772 15 7 15C7.55228 15 8 15.4477 8 16C8 17.2485 9.14863 18.5553 11 18.9079V12.4142L8.02605 9.44026C8.10146 9.93075 8.33972 10.401 8.72894 10.8154C9.10702 11.218 9.08716 11.8509 8.68458 12.2289C8.282 12.607 7.64915 12.5872 7.27106 12.1846C6.49383 11.357 6 10.2887 6 9.09961C6 8.64307 6.30594 8.25799 6.72398 8.13819L3.29289 4.70711C2.90237 4.31658 2.90237 3.68342 3.29289 3.29289C3.68342 2.90237 4.31658 2.90237 4.70711 3.29289L11 9.58579V5.09576C10.4461 5.20414 9.94316 5.39961 9.51507 5.65686C9.04167 5.94132 8.42731 5.78816 8.14285 5.31477C7.85839 4.84138 8.01154 4.22702 8.48493 3.94256C9.22161 3.49989 10.0786 3.19694 11 3.0688V2C11 1.44772 11.4477 1 12 1C12.5523 1 13 1.44772 13 2Z" fill="#777B92"/>
</svg>
