<svg width="24" height="24" viewBox="0 0 24 24" fill="none" xmlns="http://www.w3.org/2000/svg">
<path fill-rule="evenodd" clip-rule="evenodd" d="M11 9C10.4477 9 10 8.55228 10 8C10 7.44772 10.4477 7 11 7C11.5523 7 12 7.44772 12 8C12 8.55228 11.5523 9 11 9Z" fill="#777B92"/>
<path fill-rule="evenodd" clip-rule="evenodd" d="M9 11C9 11.5523 8.55228 12 8 12C7.44772 12 7 11.5523 7 11C7 10.4477 7.44772 10 8 10C8.55228 10 9 10.4477 9 11Z" fill="#777B92"/>
<path fill-rule="evenodd" clip-rule="evenodd" d="M12 11C12 11.5523 11.5523 12 11 12C10.4477 12 10 11.5523 10 11C10 10.4477 10.4477 10 11 10C11.5523 10 12 10.4477 12 11Z" fill="#777B92"/>
<path fill-rule="evenodd" clip-rule="evenodd" d="M12 14C12 14.5523 11.5523 15 11 15C10.4477 15 10 14.5523 10 14C10 13.4477 10.4477 13 11 13C11.5523 13 12 13.4477 12 14Z" fill="#777B92"/>
<path fill-rule="evenodd" clip-rule="evenodd" d="M14 12C13.4477 12 13 11.5523 13 11C13 10.4477 13.4477 10 14 10C14.5523 10 15 10.4477 15 11C15 11.5523 14.5523 12 14 12Z" fill="#777B92"/>
<path fill-rule="evenodd" clip-rule="evenodd" d="M3 11C3 6.58172 6.58172 3 11 3C15.4183 3 19 6.58172 19 11C19 12.8487 18.3729 14.551 17.3199 15.9056L20.7071 19.2929C21.0976 19.6834 21.0976 20.3166 20.7071 20.7071C20.3166 21.0976 19.6834 21.0976 19.2929 20.7071L15.9056 17.3199C14.551 18.3729 12.8487 19 11 19C6.58172 19 3 15.4183 3 11ZM11 5C7.68629 5 5 7.68629 5 11C5 14.3137 7.68629 17 11 17C14.3137 17 17 14.3137 17 11C17 7.68629 14.3137 5 11 5Z" fill="#777B92"/>
</svg>
