<svg width="22" height="22" viewBox="0 0 22 22" fill="none" xmlns="http://www.w3.org/2000/svg">
<path d="M17.2 12.44C16.67 11.8 16 11.32 15.21 11C14.49 10.7 13.58 10.43 12.5 10.17V4.43C13.66 4.5 14.55 4.7 15.61 5.06C15.78 5.12 15.91 5.16 16.01 5.16C16.31 5.16 16.55 5.06 16.73 4.85C16.91 4.63 17 4.4 17 4.15C17 3.67 16.77 3.35 16.3 3.19C15.11 2.75 13.99 2.5 12.5 2.42V1C12.5 0.55 12.19 0.18 11.78 0.06C11.76 0.05 11.73 0.05 11.71 0.04C11.64 0.03 11.57 0 11.5 0H11.49H11.48C11.36 0 11.25 0.03 11.15 0.07C10.77 0.21 10.5 0.57 10.5 1V2.45C9.42 2.56 8.48 2.83 7.69 3.26C6.86 3.72 6.23 4.31 5.8 5.01C5.38 5.71 5.18 6.48 5.18 7.31C5.18 8.25 5.44 9.04 5.95 9.66C6.46 10.27 7.1 10.74 7.87 11.07C8.6 11.38 9.48 11.67 10.51 11.94V17.49C9.12 17.4 7.78 17.1 6.5 16.55C6.35 16.49 6.19 16.45 6.03 16.45C5.73 16.45 5.48 16.55 5.28 16.76C5.09 16.97 5 17.2 5 17.47C5 17.68 5.07 17.88 5.2 18.07C5.33 18.25 5.5 18.37 5.7 18.45C7.19 19.06 8.8 19.42 10.5 19.55V21C10.5 21.33 10.67 21.61 10.91 21.79C10.92 21.8 10.92 21.8 10.92 21.81C10.95 21.84 10.99 21.85 11.03 21.87C11.06 21.89 11.09 21.91 11.12 21.92C11.23 21.97 11.35 22 11.48 22C11.49 22 11.49 22 11.49 22H11.5C11.55 22 11.6 21.98 11.65 21.97C11.7 21.96 11.75 21.96 11.79 21.94C12.2 21.81 12.5 21.45 12.5 21V19.56C13.54 19.48 14.46 19.26 15.26 18.89C16.14 18.47 16.81 17.92 17.28 17.24C17.76 16.55 18 15.79 18 14.94C18 13.89 17.73 13.06 17.2 12.44ZM8.26 8.77C7.71 8.39 7.44 7.84 7.44 7.14C7.44 6.41 7.74 5.81 8.34 5.37C8.89 4.94 9.62 4.67 10.5 4.52V9.69C9.54 9.43 8.78 9.13 8.26 8.77ZM12.5 17.49V12.44C13.53 12.72 14.33 13.03 14.86 13.35C15.46 13.69 15.76 14.16 15.76 14.79C15.76 16.38 14.66 17.28 12.5 17.49Z" fill="#97A3BA"/>
</svg>
