<svg width="24" height="24" viewBox="0 0 24 24" fill="none" xmlns="http://www.w3.org/2000/svg">
<path fill-rule="evenodd" clip-rule="evenodd" d="M6 4V5.24407C7.60877 3.84543 9.72477 3 12 3C16.9706 3 21 7.02944 21 12C21 16.9706 16.9706 21 12 21C7.02944 21 3 16.9706 3 12C3 11.4477 3.44772 11 4 11C4.55228 11 5 11.4477 5 12C5 15.866 8.13401 19 12 19C15.866 19 19 15.866 19 12C19 8.13401 15.866 5 12 5C10.0881 5 8.323 5.76515 7.04284 7L9 7C9.55228 7 10 7.44772 10 8C10 8.55229 9.55228 9 9 9L5 9C4.44772 9 4 8.55229 4 8V4C4 3.44772 4.44772 3 5 3C5.55228 3 6 3.44772 6 4Z" fill="#777B92"/>
<path fill-rule="evenodd" clip-rule="evenodd" d="M12 16C11.4477 16 11 15.5523 11 15C11 14.4477 11.4477 14 12 14C12.5523 14 13 14.4477 13 15C13 15.5523 12.5523 16 12 16Z" fill="#777B92"/>
<path fill-rule="evenodd" clip-rule="evenodd" d="M13 12C13 12.5523 12.5523 13 12 13C11.4477 13 11 12.5523 11 12C11 11.4477 11.4477 11 12 11C12.5523 11 13 11.4477 13 12Z" fill="#777B92"/>
<path fill-rule="evenodd" clip-rule="evenodd" d="M15 13C14.4477 13 14 12.5523 14 12C14 11.4477 14.4477 11 15 11C15.5523 11 16 11.4477 16 12C16 12.5523 15.5523 13 15 13Z" fill="#777B92"/>
<path fill-rule="evenodd" clip-rule="evenodd" d="M10 12C10 12.5523 9.55228 13 9 13C8.44772 13 8 12.5523 8 12C8 11.4477 8.44772 11 9 11C9.55228 11 10 11.4477 10 12Z" fill="#777B92"/>
<path fill-rule="evenodd" clip-rule="evenodd" d="M12 10C11.4477 10 11 9.55229 11 9C11 8.44772 11.4477 8 12 8C12.5523 8 13 8.44772 13 9C13 9.55229 12.5523 10 12 10Z" fill="#777B92"/>
</svg>
