<svg width="22" height="22" viewBox="0 0 22 22" fill="none" xmlns="http://www.w3.org/2000/svg">
<path fill-rule="evenodd" clip-rule="evenodd" d="M5.2118 1.38459C5.40131 1.14187 5.69207 1 6.00001 1H16C18.7614 1 21 3.23858 21 6C21 8.47739 19.1983 10.534 16.8336 10.9308L14.9806 20.1961C14.8871 20.6635 14.4767 21 14 21H9.00001C8.70042 21 8.4166 20.8657 8.22667 20.634C8.03673 20.4023 7.96067 20.0977 8.01943 19.8039L9.7802 11H8.00001C7.54114 11 7.14116 10.6877 7.02987 10.2425L5.02987 2.24254C4.95518 1.94379 5.0223 1.6273 5.2118 1.38459ZM12.0301 11H14.7802L13.9802 15H11.0198L11.8198 11H11.9688C11.9892 11.0006 12.0096 11.0006 12.0301 11ZM10.6198 17L10.2198 19H13.1802L13.5802 17H10.6198ZM16 9H12.781L11.281 3H16C17.6569 3 19 4.34315 19 6C19 7.65685 17.6569 9 16 9ZM7.28079 3H9.2194L10.7194 9H8.78079L7.28079 3Z" fill="#7887A5"/>
<path d="M2.97038 1.7577C2.83643 1.22191 2.2935 0.896145 1.7577 1.03009C1.22191 1.16404 0.896145 1.70698 1.03009 2.24277L3.03009 10.2428C3.16404 10.7786 3.70698 11.1043 4.24277 10.9704C4.77857 10.8364 5.10433 10.2935 4.97038 9.7577L2.97038 1.7577Z" fill="#7887A5"/>
</svg>
