<svg width="22" height="22" viewBox="0 0 22 22" fill="none" xmlns="http://www.w3.org/2000/svg">
<path d="M3.71315 2.29393L19.7044 18.2851C19.798 18.3781 19.8724 18.4886 19.9231 18.6104C19.9739 18.7322 20 18.8628 20 18.9948C20 19.1267 19.9739 19.2573 19.9231 19.3791C19.8724 19.5009 19.798 19.6115 19.7044 19.7044C19.6115 19.798 19.5009 19.8724 19.3791 19.9231C19.2573 19.9739 19.1267 20 18.9948 20C18.8628 20 18.7322 19.9739 18.6104 19.9231C18.4886 19.8724 18.3781 19.798 18.2851 19.7044L2.29393 3.71315C2.10573 3.52495 2 3.2697 2 3.00354C2 2.73738 2.10573 2.48213 2.29393 2.29393C2.38712 2.20074 2.49775 2.12682 2.6195 2.07639C2.74126 2.02596 2.87175 2 3.00354 2C3.13533 2 3.26582 2.02596 3.38758 2.07639C3.50933 2.12682 3.61996 2.20074 3.71315 2.29393Z" fill="#97A3BA"/>
<path d="M18.9881 16.1547L20.4086 17.5751L20.4102 17.5768C20.4394 17.6058 20.4677 17.6357 20.495 17.6664C20.814 17.1898 21 16.6166 21 16V6C21 4.34315 19.6569 3 18 3H5.83343L7.83343 5H18C18.5523 5 19 5.44772 19 6V8H10.8334L12.8334 10H19V16C19 16.0526 18.9959 16.1043 18.9881 16.1547Z" fill="#97A3BA"/>
<path d="M14.1666 17H4C3.44772 17 3 16.5523 3 16V10H7.16657L5.16657 8H3V6C3 5.94739 3.00406 5.89574 3.01189 5.84532L1.58682 4.42026C1.55864 4.39207 1.53138 4.36314 1.50507 4.3335C1.18605 4.81016 1 5.38335 1 6V16C1 17.6569 2.34315 19 4 19H16.1666L14.1666 17Z" fill="#97A3BA"/>
<path d="M6 15H9C9.26522 15 9.51957 14.8946 9.70711 14.7071C9.89464 14.5196 10 14.2652 10 14C10 13.7348 9.89464 13.4804 9.70711 13.2929C9.51957 13.1054 9.26522 13 9 13H6C5.73478 13 5.48043 13.1054 5.29289 13.2929C5.10536 13.4804 5 13.7348 5 14C5 14.2652 5.10536 14.5196 5.29289 14.7071C5.48043 14.8946 5.73478 15 6 15Z" fill="#97A3BA"/>
</svg>
