<svg width="22" height="22" viewBox="0 0 22 22" fill="none" xmlns="http://www.w3.org/2000/svg">
<path d="M10 11C10.5523 11 11 10.5523 11 9.99998C11 9.44768 10.5523 8.99998 10 8.99998C9.4477 8.99998 9 9.44768 9 9.99998C9 10.5523 9.4477 11 10 11Z" fill="#7887A5"/>
<path d="M11 6.99998C11 7.55228 10.5523 7.99998 10 7.99998C9.4477 7.99998 9 7.55228 9 6.99998C9 6.44768 9.4477 5.99998 10 5.99998C10.5523 5.99998 11 6.44768 11 6.99998Z" fill="#7887A5"/>
<path d="M10 14C10.5523 14 11 13.5523 11 13C11 12.4477 10.5523 12 10 12C9.4477 12 9 12.4477 9 13C9 13.5523 9.4477 14 10 14Z" fill="#7887A5"/>
<path d="M13 11C12.4477 11 12 10.5523 12 9.99998C12 9.44768 12.4477 8.99998 13 8.99998C13.5523 8.99998 14 9.44768 14 9.99998C14 10.5523 13.5523 11 13 11Z" fill="#7887A5"/>
<path d="M6 9.99998C6 10.5523 6.4477 11 7 11C7.5523 11 8 10.5523 8 9.99998C8 9.44768 7.5523 8.99998 7 8.99998C6.4477 8.99998 6 9.44768 6 9.99998Z" fill="#7887A5"/>
<path fill-rule="evenodd" clip-rule="evenodd" d="M19.7043 18.2848L16.3054 14.8958C17.402 13.4988 17.9971 11.7735 17.9948 9.99738C17.9948 8.41568 17.5258 6.86948 16.647 5.55428C15.7683 4.23908 14.5192 3.21408 13.0579 2.60878C11.5966 2.00348 9.98858 1.84508 8.43718 2.15368C6.88588 2.46228 5.46088 3.22388 4.34238 4.34238C3.22388 5.46088 2.46228 6.88588 2.15368 8.43718C1.84508 9.98858 2.00348 11.5966 2.60878 13.0579C3.21408 14.5192 4.23908 15.7683 5.55428 16.647C6.86948 17.5258 8.41568 17.9948 9.99738 17.9948C11.7735 17.9971 13.4988 17.402 14.8958 16.3054L18.2848 19.7043C18.3777 19.798 18.4883 19.8724 18.6101 19.9231C18.7319 19.9739 18.8626 20 18.9945 20C19.1265 20 19.2572 19.9739 19.379 19.9231C19.5008 19.8724 19.6114 19.798 19.7043 19.7043C19.798 19.6114 19.8724 19.5008 19.9231 19.379C19.9739 19.2572 20 19.1265 20 18.9945C20 18.8626 19.9739 18.7319 19.9231 18.6101C19.8724 18.4883 19.798 18.3777 19.7043 18.2848ZM3.99938 9.99738C3.99938 8.81108 4.35108 7.65148 5.01018 6.66508C5.66928 5.67868 6.60608 4.90988 7.70208 4.45588C8.79808 4.00198 10.0041 3.88318 11.1676 4.11458C12.3311 4.34598 13.3999 4.91728 14.2387 5.75618C15.0775 6.59498 15.6488 7.66378 15.8802 8.82728C16.1117 9.99078 15.9929 11.1968 15.5389 12.2928C15.0849 13.3888 14.3162 14.3256 13.3298 14.9846C12.3434 15.6437 11.1837 15.9955 9.99738 15.9955C8.40658 15.9955 6.88098 15.3636 5.75618 14.2387C4.63128 13.1138 3.99938 11.5882 3.99938 9.99738Z" fill="#7887A5"/>
</svg>
