<svg width="24" height="24" viewBox="0 0 24 24" fill="none" xmlns="http://www.w3.org/2000/svg">
<path fill-rule="evenodd" clip-rule="evenodd" d="M6 15C6 14.4477 6.44772 14 7 14H11C11.5523 14 12 14.4477 12 15C12 15.5523 11.5523 16 11 16H7C6.44772 16 6 15.5523 6 15Z" fill="#777B92"/>
<path fill-rule="evenodd" clip-rule="evenodd" d="M15 14H17C17.5523 14 18 14.4477 18 15C18 15.5523 17.5523 16 17 16H15C14.4477 16 14 15.5523 14 15C14 14.4477 14.4477 14 15 14Z" fill="#777B92"/>
<path fill-rule="evenodd" clip-rule="evenodd" d="M4 4H20C21.1046 4 22 4.89543 22 6V18C22 19.1046 21.1046 20 20 20H4C2.89543 20 2 19.1046 2 18V6C2 4.89543 2.89543 4 4 4ZM4 6V9H20V6L4 6ZM4 11V18H20V11H4Z" fill="#777B92"/>
</svg>
