<svg width="24" height="24" viewBox="0 0 24 24" fill="none" xmlns="http://www.w3.org/2000/svg">
<path fill-rule="evenodd" clip-rule="evenodd" d="M2 4C2 2.89543 2.89543 2 4 2H18C19.1046 2 20 2.89543 20 4V9C20 9.55228 19.5523 10 19 10C18.4477 10 18 9.55228 18 9V8H4V18H6C6.55228 18 7 18.4477 7 19C7 19.5523 6.55228 20 6 20H4C2.89543 20 2 19.1046 2 18V4ZM18 4V6H4V4H18Z" fill="#777B92"/>
<path fill-rule="evenodd" clip-rule="evenodd" d="M7 13C6.44772 13 6 12.5523 6 12C6 11.4477 6.44772 11 7 11C7.55228 11 8 11.4477 8 12C8 12.5523 7.55228 13 7 13Z" fill="#777B92"/>
<path fill-rule="evenodd" clip-rule="evenodd" d="M8 16C8 16.5523 7.55228 17 7 17C6.44772 17 6 16.5523 6 16C6 15.4477 6.44772 15 7 15C7.55228 15 8 15.4477 8 16Z" fill="#777B92"/>
<path fill-rule="evenodd" clip-rule="evenodd" d="M12 16C12 16.0231 12.0002 16.0462 12.0006 16.0692L12.3124 15.7739C12.7134 15.3942 13.3464 15.4114 13.7261 15.8124C14.1059 16.2134 14.0886 16.8463 13.6876 17.2261L12.1037 18.7261C11.8172 18.9973 11.3981 19.0748 11.0336 18.924L8.61758 17.924C8.10728 17.7128 7.86482 17.1279 8.07604 16.6176C8.28725 16.1073 8.87215 15.8648 9.38245 16.076L10.0093 16.3355C10.0031 16.2244 10 16.1125 10 16C10 12.6863 12.6863 10 16 10C19.3137 10 22 12.6863 22 16C22 19.3137 19.3137 22 16 22C15.4477 22 15 21.5523 15 21C15 20.4477 15.4477 20 16 20C18.2092 20 20 18.2091 20 16C20 13.7909 18.2092 12 16 12C13.7909 12 12 13.7909 12 16Z" fill="#777B92"/>
</svg>
