<svg width="22" height="22" viewBox="0 0 22 22" fill="none" xmlns="http://www.w3.org/2000/svg">
<path fill-rule="evenodd" clip-rule="evenodd" d="M8 1C7.44772 1 7 1.44772 7 2V3H6C5.44772 3 5 3.44772 5 4V18C5 18.5523 5.44772 19 6 19H7V20C7 20.5523 7.44772 21 8 21C8.55228 21 9 20.5523 9 20V19H11V20C11 20.5523 11.4477 21 12 21C12.5523 21 13 20.5523 13 20V18.9C15.2822 18.4367 17 16.419 17 14C17 12.2759 16.1274 10.7557 14.7998 9.85679C15.5405 9.13081 16 8.11907 16 7C16 5.13616 14.7252 3.57006 13 3.12602V2C13 1.44772 12.5523 1 12 1C11.4477 1 11 1.44772 11 2V3H9V2C9 1.44772 8.55228 1 8 1ZM12 11H7V17H12C13.6569 17 15 15.6569 15 14C15 12.3431 13.6569 11 12 11ZM7 9H12C13.1046 9 14 8.10457 14 7C14 5.89543 13.1046 5 12 5H7V9Z" fill="#97A3BA"/>
</svg>
