<svg width="24" height="24" viewBox="0 0 24 24" fill="none" xmlns="http://www.w3.org/2000/svg">
<path fill-rule="evenodd" clip-rule="evenodd" d="M4 4V20C4 20.5523 3.55228 21 3 21C2.44772 21 2 20.5523 2 20V4C2 3.44772 2.44772 3 3 3C3.55228 3 4 3.44772 4 4Z" fill="#777B92"/>
<path fill-rule="evenodd" clip-rule="evenodd" d="M7 4V16C7 16.5523 6.55228 17 6 17C5.44772 17 5 16.5523 5 16V4C5 3.44772 5.44772 3 6 3C6.55228 3 7 3.44772 7 4Z" fill="#777B92"/>
<path fill-rule="evenodd" clip-rule="evenodd" d="M22 4V20C22 20.5523 21.5523 21 21 21C20.4477 21 20 20.5523 20 20V4C20 3.44772 20.4477 3 21 3C21.5523 3 22 3.44772 22 4Z" fill="#777B92"/>
<path fill-rule="evenodd" clip-rule="evenodd" d="M11 3C11.5523 3 12 3.44772 12 4V16C12 16.5523 11.5523 17 11 17C10.4477 17 10 16.5523 10 16V4C10 3.44772 10.4477 3 11 3Z" fill="#777B92"/>
<path fill-rule="evenodd" clip-rule="evenodd" d="M15 4V16C15 16.5523 14.5523 17 14 17C13.4477 17 13 16.5523 13 16V4C13 3.44772 13.4477 3 14 3C14.5523 3 15 3.44772 15 4Z" fill="#777B92"/>
<path fill-rule="evenodd" clip-rule="evenodd" d="M18 3C18.5523 3 19 3.44772 19 4V20C19 20.5523 18.5523 21 18 21C17.4477 21 17 20.5523 17 20V4C17 3.44772 17.4477 3 18 3Z" fill="#777B92"/>
</svg>
