<svg width="24" height="24" viewBox="0 0 24 24" fill="none" xmlns="http://www.w3.org/2000/svg">
<path d="M6.70711 1.29289C7.09763 1.68342 7.09763 2.31658 6.70711 2.70711L5.41422 4L20 4C21.1046 4 22 4.89543 22 6V10C22 10.5523 21.5523 11 21 11C20.4477 11 20 10.5523 20 10V6L5.41422 6L6.70711 7.29289C7.09763 7.68342 7.09763 8.31658 6.70711 8.70711C6.31658 9.09763 5.68342 9.09763 5.2929 8.70711L2.29289 5.70711C2.10536 5.51957 2 5.26522 2 5C2 4.73478 2.10536 4.48043 2.29289 4.29289L5.29289 1.29289C5.68342 0.902369 6.31658 0.902369 6.70711 1.29289Z" fill="#777B92"/>
<path d="M21.7071 18.2929C22.0976 18.6834 22.0976 19.3166 21.7071 19.7071L18.7071 22.7071C18.3166 23.0976 17.6834 23.0976 17.2929 22.7071C16.9024 22.3166 16.9024 21.6834 17.2929 21.2929L18.5858 20H4C2.89543 20 2 19.1046 2 18L2 14C2 13.4477 2.44772 13 3 13C3.55228 13 4 13.4477 4 14L4 18H18.5858L17.2929 16.7071C16.9024 16.3166 16.9024 15.6834 17.2929 15.2929C17.6834 14.9024 18.3166 14.9024 18.7071 15.2929L21.7071 18.2929Z" fill="#777B92"/>
<path d="M12 16C12.5523 16 13 15.5523 13 15C13 14.4477 12.5523 14 12 14C11.4477 14 11 14.4477 11 15C11 15.5523 11.4477 16 12 16Z" fill="#777B92"/>
<path d="M13 12C13 12.5523 12.5523 13 12 13C11.4477 13 11 12.5523 11 12C11 11.4477 11.4477 11 12 11C12.5523 11 13 11.4477 13 12Z" fill="#777B92"/>
<path d="M15 13C15.5523 13 16 12.5523 16 12C16 11.4477 15.5523 11 15 11C14.4477 11 14 11.4477 14 12C14 12.5523 14.4477 13 15 13Z" fill="#777B92"/>
<path d="M10 12C10 12.5523 9.55229 13 9 13C8.44772 13 8 12.5523 8 12C8 11.4477 8.44772 11 9 11C9.55229 11 10 11.4477 10 12Z" fill="#777B92"/>
<path d="M12 10C12.5523 10 13 9.55228 13 9C13 8.44771 12.5523 8 12 8C11.4477 8 11 8.44772 11 9C11 9.55228 11.4477 10 12 10Z" fill="#777B92"/>
</svg>
