<svg width="22" height="22" viewBox="0 0 22 22" fill="none" xmlns="http://www.w3.org/2000/svg">
<path d="M12 12C12.5523 12 13 11.5523 13 11C13 10.4477 12.5523 10 12 10C11.4477 10 11 10.4477 11 11C11 11.5523 11.4477 12 12 12Z" fill="#97A3BA"/>
<path fill-rule="evenodd" clip-rule="evenodd" d="M19 17L18 17C18 17.7957 17.6839 18.5587 17.1213 19.1213C16.5587 19.6839 15.7956 20 15 20L4 20C3.20435 20 2.44129 19.6839 1.87868 19.1213C1.31607 18.5587 1 17.7956 1 17L1 5C1 4.20435 1.31607 3.44129 1.87868 2.87868C2.44129 2.31607 3.20435 2 4 2L15 2C15.7957 2 16.5587 2.31607 17.1213 2.87868C17.6839 3.44129 18 4.20435 18 5L19 5C19.5304 5 20.0391 5.21071 20.4142 5.58579C20.7893 5.96086 21 6.46957 21 7L21 15C21 15.5304 20.7893 16.0391 20.4142 16.4142C20.0391 16.7893 19.5304 17 19 17ZM19 15L19 7L9 7L9 15L19 15ZM3.29289 17.7071C3.48043 17.8946 3.73478 18 4 18L15 18C15.2652 18 15.5196 17.8946 15.7071 17.7071C15.8946 17.5196 16 17.2652 16 17L9 17C8.46957 17 7.96086 16.7893 7.58579 16.4142C7.21072 16.0391 7 15.5304 7 15L7 7C7 6.46957 7.21072 5.96086 7.58579 5.58579C7.96086 5.21071 8.46957 5 9 5L16 5C16 4.73478 15.8946 4.48043 15.7071 4.29289C15.5196 4.10536 15.2652 4 15 4L4 4C3.73478 4 3.48043 4.10536 3.29289 4.29289C3.10536 4.48043 3 4.73478 3 5L3 17C3 17.2652 3.10536 17.5196 3.29289 17.7071Z" fill="#97A3BA"/>
</svg>
