<svg width="24" height="24" viewBox="0 0 24 24" fill="none" xmlns="http://www.w3.org/2000/svg">
<path fill-rule="evenodd" clip-rule="evenodd" d="M4 4L20 4C21.1046 4 22 4.89543 22 6L22 10C22 10.5523 21.5523 11 21 11C20.4477 11 20 10.5523 20 10L20 6L4 6V18L18.5858 18L17.2929 16.7071C16.9024 16.3166 16.9024 15.6834 17.2929 15.2929C17.6834 14.9024 18.3166 14.9024 18.7071 15.2929L21.7071 18.2929C22.0976 18.6834 22.0976 19.3166 21.7071 19.7071L18.7071 22.7071C18.3166 23.0976 17.6834 23.0976 17.2929 22.7071C16.9024 22.3166 16.9024 21.6834 17.2929 21.2929L18.5858 20H4C2.89543 20 2 19.1046 2 18L2 6C2 4.89543 2.89543 4 4 4Z" fill="#777B92"/>
<path fill-rule="evenodd" clip-rule="evenodd" d="M13 9C13 9.55228 12.5523 10 12 10C11.4477 10 11 9.55229 11 9C11 8.44772 11.4477 8 12 8C12.5523 8 13 8.44772 13 9Z" fill="#777B92"/>
<path fill-rule="evenodd" clip-rule="evenodd" d="M9 13C8.44772 13 8 12.5523 8 12C8 11.4477 8.44772 11 9 11C9.55229 11 10 11.4477 10 12C10 12.5523 9.55229 13 9 13Z" fill="#777B92"/>
<path fill-rule="evenodd" clip-rule="evenodd" d="M12 13C11.4477 13 11 12.5523 11 12C11 11.4477 11.4477 11 12 11C12.5523 11 13 11.4477 13 12C13 12.5523 12.5523 13 12 13Z" fill="#777B92"/>
<path fill-rule="evenodd" clip-rule="evenodd" d="M12 16C11.4477 16 11 15.5523 11 15C11 14.4477 11.4477 14 12 14C12.5523 14 13 14.4477 13 15C13 15.5523 12.5523 16 12 16Z" fill="#777B92"/>
<path fill-rule="evenodd" clip-rule="evenodd" d="M16 12C16 12.5523 15.5523 13 15 13C14.4477 13 14 12.5523 14 12C14 11.4477 14.4477 11 15 11C15.5523 11 16 11.4477 16 12Z" fill="#777B92"/>
</svg>
