<svg width="22" height="22" viewBox="0 0 22 22" fill="none" xmlns="http://www.w3.org/2000/svg">
<path d="M8.26127 5.42706L6.74456 3.91034C7.02406 3.67195 7.33909 3.45492 7.68965 3.25926C8.5364 2.79593 9.54917 2.51634 10.728 2.42048V0.74292C10.728 0.535222 10.7944 0.359477 10.9272 0.215686C11.0766 0.0718955 11.2593 0 11.4751 0C11.6909 0 11.8736 0.0718955 12.023 0.215686C12.1724 0.359477 12.2471 0.535222 12.2471 0.74292V2.39651C13.8742 2.46042 15.0409 2.72404 16.3027 3.18736C16.7676 3.34713 17 3.66667 17 4.14597C17 4.4016 16.9087 4.63326 16.7261 4.84096C16.5434 5.04866 16.3027 5.1525 16.0038 5.1525C15.9042 5.1525 15.7714 5.12055 15.6054 5.05665C14.4764 4.6732 13.5421 4.45752 12.2471 4.40959V9.41292L10.728 7.89376V4.48148C9.7318 4.6093 8.93487 4.90487 8.33716 5.36819C8.31131 5.38754 8.28601 5.40717 8.26127 5.42706Z" fill="#97A3BA"/>
<path d="M8.48656 11.3208L5.23597 8.07019C5.34032 8.68167 5.57711 9.21093 5.94636 9.65795C6.46105 10.2651 7.10026 10.7364 7.86398 11.0719C8.06046 11.1564 8.26798 11.2393 8.48656 11.3208Z" fill="#97A3BA"/>
<path d="M18 14.9303C18 15.0075 17.998 15.084 17.994 15.1598L13.1737 10.3395C13.963 10.5469 14.642 10.7671 15.2107 11C16.0077 11.3195 16.6718 11.7988 17.2031 12.4379C17.7344 13.061 18 13.8918 18 14.9303Z" fill="#97A3BA"/>
<path d="M15.2605 18.8845C15.4414 18.7991 15.6136 18.708 15.7769 18.6111L14.2512 17.0854C13.7224 17.3191 13.0543 17.4634 12.2471 17.5185V15.0813L10.728 13.5622V17.5185C9.25032 17.4546 7.83908 17.1351 6.49425 16.5599C6.34483 16.496 6.1871 16.4641 6.02107 16.4641C5.72222 16.4641 5.47318 16.5679 5.27395 16.7756C5.09132 16.9673 5 17.199 5 17.4706C5 17.6783 5.06641 17.878 5.19923 18.0697C5.33206 18.2455 5.49808 18.3733 5.69732 18.4532C7.25798 19.0922 8.93487 19.4677 10.728 19.5795V21.281C10.728 21.5047 10.7944 21.6805 10.9272 21.8083C11.0766 21.9361 11.2593 22 11.4751 22C11.7075 22 11.8902 21.9281 12.023 21.7843C12.1724 21.6565 12.2471 21.4887 12.2471 21.281V19.5795C13.3927 19.5156 14.3972 19.284 15.2605 18.8845Z" fill="#97A3BA"/>
<path d="M3.71315 2.29393L19.7044 18.2851C19.798 18.3781 19.8724 18.4886 19.9231 18.6104C19.9739 18.7322 20 18.8628 20 18.9948C20 19.1267 19.9739 19.2573 19.9231 19.3791C19.8724 19.5009 19.798 19.6115 19.7044 19.7044C19.6115 19.798 19.5009 19.8724 19.3791 19.9231C19.2573 19.9739 19.1267 20 18.9948 20C18.8628 20 18.7322 19.9739 18.6104 19.9231C18.4886 19.8724 18.3781 19.798 18.2851 19.7044L2.29393 3.71315C2.10573 3.52495 2 3.2697 2 3.00354C2 2.73739 2.10573 2.48213 2.29393 2.29393C2.38712 2.20074 2.49775 2.12682 2.6195 2.07639C2.74126 2.02596 2.87175 2 3.00354 2C3.13533 2 3.26582 2.02596 3.38758 2.07639C3.50933 2.12682 3.61996 2.20074 3.71315 2.29393Z" fill="#97A3BA"/>
</svg>
