<svg width="24" height="24" viewBox="0 0 24 24" fill="none" xmlns="http://www.w3.org/2000/svg">
<path fill-rule="evenodd" clip-rule="evenodd" d="M8 6C8 6.55228 7.55228 7 7 7C6.44772 7 6 6.55228 6 6C6 5.44772 6.44772 5 7 5C7.55228 5 8 5.44772 8 6Z" fill="#777B92"/>
<path fill-rule="evenodd" clip-rule="evenodd" d="M5 2H9C10.1046 2 11 2.89543 11 4V8C11 9.10457 10.1046 10 9 10H5C3.89543 10 3 9.10457 3 8V4C3 2.89543 3.89543 2 5 2ZM5 4V8H9V4H5Z" fill="#777B92"/>
<path fill-rule="evenodd" clip-rule="evenodd" d="M19 7C18.4477 7 18 6.55228 18 6C18 5.44772 18.4477 5 19 5C19.5523 5 20 5.44772 20 6C20 6.55228 19.5523 7 19 7Z" fill="#777B92"/>
<path fill-rule="evenodd" clip-rule="evenodd" d="M17 2H21C22.1046 2 23 2.89543 23 4V8C23 9.10457 22.1046 10 21 10H17C15.8954 10 15 9.10457 15 8V4C15 2.89543 15.8954 2 17 2ZM17 4V8H21V4H17Z" fill="#777B92"/>
<path fill-rule="evenodd" clip-rule="evenodd" d="M7 19C6.44772 19 6 18.5523 6 18C6 17.4477 6.44772 17 7 17C7.55228 17 8 17.4477 8 18C8 18.5523 7.55228 19 7 19Z" fill="#777B92"/>
<path fill-rule="evenodd" clip-rule="evenodd" d="M3 16C3 14.8954 3.89543 14 5 14H9C10.1046 14 11 14.8954 11 16V20C11 21.1046 10.1046 22 9 22H5C3.89543 22 3 21.1046 3 20V16ZM5 16V20H9V16H5Z" fill="#777B92"/>
<path fill-rule="evenodd" clip-rule="evenodd" d="M14 3C14 3.55228 13.5523 4 13 4C12.4477 4 12 3.55228 12 3C12 2.44772 12.4477 2 13 2C13.5523 2 14 2.44772 14 3Z" fill="#777B92"/>
<path fill-rule="evenodd" clip-rule="evenodd" d="M7 13C6.44772 13 6 12.5523 6 12C6 11.4477 6.44772 11 7 11C7.55228 11 8 11.4477 8 12C8 12.5523 7.55228 13 7 13Z" fill="#777B92"/>
<path fill-rule="evenodd" clip-rule="evenodd" d="M11 12C11 12.5523 10.5523 13 10 13C9.44772 13 9 12.5523 9 12C9 11.4477 9.44772 11 10 11C10.5523 11 11 11.4477 11 12Z" fill="#777B92"/>
<path fill-rule="evenodd" clip-rule="evenodd" d="M13 13C12.4477 13 12 12.5523 12 12C12 11.4477 12.4477 11 13 11C13.5523 11 14 11.4477 14 12C14 12.5523 13.5523 13 13 13Z" fill="#777B92"/>
<path fill-rule="evenodd" clip-rule="evenodd" d="M17 12C17 12.5523 16.5523 13 16 13C15.4477 13 15 12.5523 15 12C15 11.4477 15.4477 11 16 11C16.5523 11 17 11.4477 17 12Z" fill="#777B92"/>
<path fill-rule="evenodd" clip-rule="evenodd" d="M16 16C15.4477 16 15 15.5523 15 15C15 14.4477 15.4477 14 16 14C16.5523 14 17 14.4477 17 15C17 15.5523 16.5523 16 16 16Z" fill="#777B92"/>
<path fill-rule="evenodd" clip-rule="evenodd" d="M17 18C17 18.5523 16.5523 19 16 19C15.4477 19 15 18.5523 15 18C15 17.4477 15.4477 17 16 17C16.5523 17 17 17.4477 17 18Z" fill="#777B92"/>
<path fill-rule="evenodd" clip-rule="evenodd" d="M16 22C15.4477 22 15 21.5523 15 21C15 20.4477 15.4477 20 16 20C16.5523 20 17 20.4477 17 21C17 21.5523 16.5523 22 16 22Z" fill="#777B92"/>
<path fill-rule="evenodd" clip-rule="evenodd" d="M20 12C20 12.5523 19.5523 13 19 13C18.4477 13 18 12.5523 18 12C18 11.4477 18.4477 11 19 11C19.5523 11 20 11.4477 20 12Z" fill="#777B92"/>
<path fill-rule="evenodd" clip-rule="evenodd" d="M22 13C21.4477 13 21 12.5523 21 12C21 11.4477 21.4477 11 22 11C22.5523 11 23 11.4477 23 12C23 12.5523 22.5523 13 22 13Z" fill="#777B92"/>
<path fill-rule="evenodd" clip-rule="evenodd" d="M23 18C23 18.5523 22.5523 19 22 19C21.4477 19 21 18.5523 21 18C21 17.4477 21.4477 17 22 17C22.5523 17 23 17.4477 23 18Z" fill="#777B92"/>
<path fill-rule="evenodd" clip-rule="evenodd" d="M19 19C18.4477 19 18 18.5523 18 18C18 17.4477 18.4477 17 19 17C19.5523 17 20 17.4477 20 18C20 18.5523 19.5523 19 19 19Z" fill="#777B92"/>
<path fill-rule="evenodd" clip-rule="evenodd" d="M14 21C14 21.5523 13.5523 22 13 22C12.4477 22 12 21.5523 12 21C12 20.4477 12.4477 20 13 20C13.5523 20 14 20.4477 14 21Z" fill="#777B92"/>
<path fill-rule="evenodd" clip-rule="evenodd" d="M13 16C12.4477 16 12 15.5523 12 15C12 14.4477 12.4477 14 13 14C13.5523 14 14 14.4477 14 15C14 15.5523 13.5523 16 13 16Z" fill="#777B92"/>
</svg>
