<svg width="24" height="24" viewBox="0 0 24 24" fill="none" xmlns="http://www.w3.org/2000/svg">
<path fill-rule="evenodd" clip-rule="evenodd" d="M10 3V4H12V3C12 2.44772 12.4477 2 13 2C13.5523 2 14 2.44772 14 3V4.12602C15.7252 4.57006 17 6.13616 17 8C17 9.11907 16.5405 10.1308 15.7998 10.8568C17.1274 11.7557 18 13.2759 18 15C18 17.419 16.2822 19.4367 14 19.9V21C14 21.5523 13.5523 22 13 22C12.4477 22 12 21.5523 12 21V20H10V21C10 21.5523 9.55228 22 9 22C8.44772 22 8 21.5523 8 21V20H7C6.44772 20 6 19.5523 6 19V5C6 4.44772 6.44772 4 7 4H8V3C8 2.44772 8.44772 2 9 2C9.55228 2 10 2.44772 10 3ZM13 10C14.1046 10 15 9.10457 15 8C15 6.89543 14.1046 6 13 6H8V10H13ZM12.5 12H8V18H12.5C14.547 18 16 16.5494 16 15C16 13.4506 14.547 12 12.5 12Z" fill="#777B92"/>
</svg>
