<svg width="24" height="24" viewBox="0 0 24 24" fill="none" xmlns="http://www.w3.org/2000/svg">
<path fill-rule="evenodd" clip-rule="evenodd" d="M3 3H19C20.1046 3 21 3.89543 21 5V12C21 12.5523 20.5523 13 20 13C19.4477 13 19 12.5523 19 12V10H3V17H14C14.5523 17 15 17.4477 15 18C15 18.5523 14.5523 19 14 19H3C1.89543 19 1 18.1046 1 17V5C1 3.89543 1.89543 3 3 3ZM19 8V5L3 5V8H19Z" fill="#777B92"/>
<path fill-rule="evenodd" clip-rule="evenodd" d="M5 14C5 13.4477 5.44772 13 6 13H10C10.5523 13 11 13.4477 11 14C11 14.5523 10.5523 15 10 15H6C5.44772 15 5 14.5523 5 14Z" fill="#777B92"/>
<path fill-rule="evenodd" clip-rule="evenodd" d="M14 13H16C16.5523 13 17 13.4477 17 14C17 14.5523 16.5523 15 16 15H14C13.4477 15 13 14.5523 13 14C13 13.4477 13.4477 13 14 13Z" fill="#777B92"/>
<path fill-rule="evenodd" clip-rule="evenodd" d="M17 18C17 17.4477 17.4477 17 18 17H19V16C19 15.4477 19.4477 15 20 15C20.5523 15 21 15.4477 21 16V17H22C22.5523 17 23 17.4477 23 18C23 18.5523 22.5523 19 22 19H21V20C21 20.5523 20.5523 21 20 21C19.4477 21 19 20.5523 19 20V19H18C17.4477 19 17 18.5523 17 18Z" fill="#777B92"/>
</svg>
