<svg width="16" height="12" viewBox="0 0 16 12" fill="none" xmlns="http://www.w3.org/2000/svg">
<g clip-path="url(#clip0_14655_23454)">
<mask id="mask0_14655_23454" style="mask-type:alpha" maskUnits="userSpaceOnUse" x="0" y="0" width="16" height="12">
<rect width="16" height="12" fill="white"/>
</mask>
<g mask="url(#mask0_14655_23454)">
<path fill-rule="evenodd" clip-rule="evenodd" d="M0 0V12H16V0H0Z" fill="#1D1D1D"/>
<mask id="mask1_14655_23454" style="mask-type:alpha" maskUnits="userSpaceOnUse" x="0" y="0" width="16" height="12">
<path fill-rule="evenodd" clip-rule="evenodd" d="M0 0V12H16V0H0Z" fill="white"/>
</mask>
<g mask="url(#mask1_14655_23454)">
<path fill-rule="evenodd" clip-rule="evenodd" d="M0 0V6H16V0H0Z" fill="#F50100"/>
<g filter="url(#filter0_d_14655_23454)">
<path fill-rule="evenodd" clip-rule="evenodd" d="M7.77497 6.69608C8.16259 6.21707 8.284 5.59785 8.284 5.21144C8.284 3.15244 5.71503 2.01344 5.71503 2.01344C7.48123 2.01344 9.44837 3.44526 9.44837 5.21144C9.44837 5.95929 9.19168 6.65317 8.76161 7.20473C9.54869 7.59736 10.2149 7.90376 10.2149 7.90376C10.462 8.06582 10.5311 8.498 10.3691 8.74526C10.2069 8.99238 9.87506 9.06139 9.62801 8.89944C9.62801 8.89944 8.99596 8.52565 8.61083 8.27313C8.43431 8.15742 8.23019 8.032 8.01296 7.9035C7.50758 8.2437 6.90168 8.443 6.2503 8.443C6.2503 8.443 3.90175 8.15533 3.96896 6.95101C3.96896 6.95101 4.53752 7.38593 6.21008 7.38593C6.47625 7.38593 6.71022 7.34866 6.91551 7.28314C6.19107 6.88783 5.57669 6.57448 5.57669 6.57448C5.32939 6.41245 4.68631 5.59091 4.84838 5.34364C5.01051 5.09649 5.99068 5.37587 6.23779 5.53785C6.23779 5.53785 6.58149 6.00987 7.06654 6.29846C7.28086 6.42596 7.5228 6.56084 7.77497 6.69608ZM6.59019 4.90122L6.08527 5.23766L6.24661 4.66143L5.87595 4.29333L6.37784 4.27343L6.59019 3.70362L6.80253 4.27343H7.30357L6.93376 4.66143L7.11897 5.20365L6.59019 4.90122Z" fill="#FCFF01"/>
<path fill-rule="evenodd" clip-rule="evenodd" d="M7.77497 6.69608C8.16259 6.21707 8.284 5.59785 8.284 5.21144C8.284 3.15244 5.71503 2.01344 5.71503 2.01344C7.48123 2.01344 9.44837 3.44526 9.44837 5.21144C9.44837 5.95929 9.19168 6.65317 8.76161 7.20473C9.54869 7.59736 10.2149 7.90376 10.2149 7.90376C10.462 8.06582 10.5311 8.498 10.3691 8.74526C10.2069 8.99238 9.87506 9.06139 9.62801 8.89944C9.62801 8.89944 8.99596 8.52565 8.61083 8.27313C8.43431 8.15742 8.23019 8.032 8.01296 7.9035C7.50758 8.2437 6.90168 8.443 6.2503 8.443C6.2503 8.443 3.90175 8.15533 3.96896 6.95101C3.96896 6.95101 4.53752 7.38593 6.21008 7.38593C6.47625 7.38593 6.71022 7.34866 6.91551 7.28314C6.19107 6.88783 5.57669 6.57448 5.57669 6.57448C5.32939 6.41245 4.68631 5.59091 4.84838 5.34364C5.01051 5.09649 5.99068 5.37587 6.23779 5.53785C6.23779 5.53785 6.58149 6.00987 7.06654 6.29846C7.28086 6.42596 7.5228 6.56084 7.77497 6.69608ZM6.59019 4.90122L6.08527 5.23766L6.24661 4.66143L5.87595 4.29333L6.37784 4.27343L6.59019 3.70362L6.80253 4.27343H7.30357L6.93376 4.66143L7.11897 5.20365L6.59019 4.90122Z" fill="#FFEA42"/>
</g>
</g>
</g>
<rect width="16" height="12" fill="url(#paint0_linear_14655_23454)" style="mix-blend-mode:overlay"/>
</g>
<defs>
<filter id="filter0_d_14655_23454" x="3.96754" y="2.01344" width="6.48915" height="6.9736" filterUnits="userSpaceOnUse" color-interpolation-filters="sRGB">
<feFlood flood-opacity="0" result="BackgroundImageFix"/>
<feColorMatrix in="SourceAlpha" type="matrix" values="0 0 0 0 0 0 0 0 0 0 0 0 0 0 0 0 0 0 127 0" result="hardAlpha"/>
<feOffset/>
<feColorMatrix type="matrix" values="0 0 0 0 0 0 0 0 0 0 0 0 0 0 0 0 0 0 0.2 0"/>
<feBlend mode="normal" in2="BackgroundImageFix" result="effect1_dropShadow_14655_23454"/>
<feBlend mode="normal" in="SourceGraphic" in2="effect1_dropShadow_14655_23454" result="shape"/>
</filter>
<linearGradient id="paint0_linear_14655_23454" x1="8" y1="0" x2="8" y2="12" gradientUnits="userSpaceOnUse">
<stop stop-color="white" stop-opacity="0.7"/>
<stop offset="1" stop-opacity="0.3"/>
</linearGradient>
<clipPath id="clip0_14655_23454">
<rect width="16" height="12" rx="1" fill="white"/>
</clipPath>
</defs>
</svg>
