<svg width="16" height="12" viewBox="0 0 16 12" fill="none" xmlns="http://www.w3.org/2000/svg">
<g clip-path="url(#clip0_14655_23346)">
<mask id="mask0_14655_23346" style="mask-type:alpha" maskUnits="userSpaceOnUse" x="0" y="0" width="16" height="12">
<rect width="16" height="12" fill="white"/>
</mask>
<g mask="url(#mask0_14655_23346)">
<path fill-rule="evenodd" clip-rule="evenodd" d="M0 0V12H16V0H0Z" fill="#AF0100"/>
<mask id="mask1_14655_23346" style="mask-type:alpha" maskUnits="userSpaceOnUse" x="0" y="0" width="16" height="12">
<path fill-rule="evenodd" clip-rule="evenodd" d="M0 0V12H16V0H0Z" fill="white"/>
</mask>
<g mask="url(#mask1_14655_23346)">
<path fill-rule="evenodd" clip-rule="evenodd" d="M11.0038 6C11.0038 8.94339 11.2823 9.96565 12.9599 9.96565C14.6375 9.96565 15.0964 8.48282 14.9548 6H11.0038Z" fill="#F7FCFF"/>
<path fill-rule="evenodd" clip-rule="evenodd" d="M13.05 7.7C13.5195 7.7 13.9 7.25228 13.9 6.7C13.9 6.14771 13.5195 5.7 13.05 5.7C12.5806 5.7 12.2 6.14771 12.2 6.7C12.2 7.25228 12.5806 7.7 13.05 7.7Z" fill="#AF0100"/>
<path fill-rule="evenodd" clip-rule="evenodd" d="M11.3966 9.15695C11.6955 9.82362 12.2183 10.157 12.965 10.157C13.7068 10.157 14.2313 9.82807 14.5385 9.17031L11.3966 9.15695Z" fill="#5EAA22"/>
<path d="M11.8096 7.51532L11.5305 6.81919C12.0427 6.61382 12.5366 6.5098 13.0111 6.5098C13.4856 6.5098 13.9795 6.61382 14.4917 6.81919L14.2126 7.51532C13.7855 7.34409 13.3853 7.2598 13.0111 7.2598C12.6369 7.2598 12.2367 7.34409 11.8096 7.51532Z" fill="#82B2CB"/>
<path fill-rule="evenodd" clip-rule="evenodd" d="M12.5 8C12.7761 8 13 7.77614 13 7.5C13 7.22386 12.7761 7 12.5 7C12.2239 7 12 7.22386 12 7.5C12 7.77614 12.2239 8 12.5 8Z" fill="#FECA00"/>
<path fill-rule="evenodd" clip-rule="evenodd" d="M12.8 8.8C13.0761 8.8 13.3 8.57615 13.3 8.3C13.3 8.02386 13.0761 7.8 12.8 7.8C12.5238 7.8 12.3 8.02386 12.3 8.3C12.3 8.57615 12.5238 8.8 12.8 8.8Z" fill="#8A4E22"/>
<path fill-rule="evenodd" clip-rule="evenodd" d="M12 8.39999C12.2761 8.39999 12.5 8.17614 12.5 7.89999C12.5 7.62385 12.2761 7.39999 12 7.39999C11.7239 7.39999 11.5 7.62385 11.5 7.89999C11.5 8.17614 11.7239 8.39999 12 8.39999Z" fill="#AF0100"/>
<path fill-rule="evenodd" clip-rule="evenodd" d="M13.7 8.39999C13.9762 8.39999 14.2 8.17614 14.2 7.89999C14.2 7.62385 13.9762 7.39999 13.7 7.39999C13.4239 7.39999 13.2 7.62385 13.2 7.89999C13.2 8.17614 13.4239 8.39999 13.7 8.39999Z" fill="#AF0100"/>
<path fill-rule="evenodd" clip-rule="evenodd" d="M13.35 9.5C13.5433 9.5 13.7 9.27614 13.7 9C13.7 8.72386 13.5433 8.5 13.35 8.5C13.1567 8.5 13 8.72386 13 9C13 9.27614 13.1567 9.5 13.35 9.5Z" fill="#AF0100"/>
<path fill-rule="evenodd" clip-rule="evenodd" d="M12.15 9.5C12.3433 9.5 12.5 9.27614 12.5 9C12.5 8.72386 12.3433 8.5 12.15 8.5C11.9567 8.5 11.8 8.72386 11.8 9C11.8 9.27614 11.9567 9.5 12.15 9.5Z" fill="#AF0100"/>
<rect width="9" height="7" fill="#2E42A5"/>
<mask id="mask2_14655_23346" style="mask-type:alpha" maskUnits="userSpaceOnUse" x="0" y="0" width="9" height="7">
<rect width="9" height="7" fill="white"/>
</mask>
<g mask="url(#mask2_14655_23346)">
<path d="M-1.00214 6.49991L0.978339 7.36852L9.04494 0.944376L10.0896 -0.34639L7.97176 -0.636702L4.68159 2.13164L2.03334 3.99686L-1.00214 6.49991Z" fill="white"/>
<path d="M-0.731018 7.10848L0.277943 7.61254L9.71445 -0.466316H8.29775L-0.731018 7.10848Z" fill="#F50100"/>
<path d="M10.0021 6.49991L8.02166 7.36852L-0.0449371 0.944376L-1.08959 -0.34639L1.02824 -0.636702L4.31841 2.13164L6.96666 3.99686L10.0021 6.49991Z" fill="white"/>
<path d="M9.93457 6.93667L8.92561 7.44073L4.90745 3.98176L3.71615 3.59529L-1.1901 -0.341973H0.226597L5.13009 3.50184L6.43256 3.96525L9.93457 6.93667Z" fill="#F50100"/>
<path d="M3.49998 -0.5V-1H2.99998V-0.5H3.49998ZM3.49998 2.03237V2.53237H3.99998V2.03237H3.49998ZM-0.492279 2.03237V1.53237H-0.992279V2.03237H-0.492279ZM-0.492279 5.03237H-0.992279V5.53237H-0.492279V5.03237ZM3.49998 5.03237H3.99998V4.53237H3.49998V5.03237ZM3.49998 7.5H2.99998V8H3.49998V7.5ZM5.49998 7.5V8H5.99998V7.5H5.49998ZM5.49998 5.03237V4.53237H4.99998V5.03237H5.49998ZM9.50772 5.03237V5.53237H10.0077V5.03237H9.50772ZM9.50772 2.03237H10.0077V1.53237H9.50772V2.03237ZM5.49998 2.03237H4.99998V2.53237H5.49998V2.03237ZM5.49998 -0.5H5.99998V-1H5.49998V-0.5ZM3.49998 3.03237H3.99998V2.53237H3.49998V3.03237ZM0.507721 3.03237V2.53237H0.00772095V3.03237H0.507721ZM0.507721 4.03237H0.00772095V4.53237H0.507721V4.03237ZM3.49998 4.03237V4.53237H3.99998V4.03237H3.49998ZM5.49998 3.03237V2.53237H4.99998V3.03237H5.49998ZM5.49998 4.03237H4.99998V4.53237H5.49998V4.03237ZM8.50772 3.03237H9.00772V2.53237H8.50772V3.03237ZM8.50772 4.03237V4.53237H9.00772V4.03237H8.50772ZM3.49998 0H3.99998V-1H3.49998V0ZM3.99998 0V-0.5H2.99998V0H3.99998ZM3.99998 2.03237V0H2.99998V2.03237H3.99998ZM0.00772095 2.53237H3.49998V1.53237H0.00772095V2.53237ZM-0.492279 2.53237H0.00772095V1.53237H-0.492279V2.53237ZM0.00772095 2.53237V2.03237H-0.992279V2.53237H0.00772095ZM0.00772095 4.53237V2.53237H-0.992279V4.53237H0.00772095ZM0.00772095 5.03237V4.53237H-0.992279V5.03237H0.00772095ZM0.00772095 4.53237H-0.492279V5.53237H0.00772095V4.53237ZM3.49998 4.53237H0.00772095V5.53237H3.49998V4.53237ZM3.99998 7V5.03237H2.99998V7H3.99998ZM3.99998 7.5V7H2.99998V7.5H3.99998ZM3.99998 7H3.49998V8H3.99998V7ZM4.99998 7H3.99998V8H4.99998V7ZM5.49998 7H4.99998V8H5.49998V7ZM4.99998 7V7.5H5.99998V7H4.99998ZM4.99998 5.03237V7H5.99998V5.03237H4.99998ZM9.00772 4.53237H5.49998V5.53237H9.00772V4.53237ZM9.50772 4.53237H9.00772V5.53237H9.50772V4.53237ZM9.00772 4.53237V5.03237H10.0077V4.53237H9.00772ZM9.00772 2.53237V4.53237H10.0077V2.53237H9.00772ZM9.00772 2.03237V2.53237H10.0077V2.03237H9.00772ZM9.00772 2.53237H9.50772V1.53237H9.00772V2.53237ZM5.49998 2.53237H9.00772V1.53237H5.49998V2.53237ZM4.99998 0V2.03237H5.99998V0H4.99998ZM4.99998 -0.5V0H5.99998V-0.5H4.99998ZM4.99998 0H5.49998V-1H4.99998V0ZM3.99998 0H4.99998V-1H3.99998V0ZM3.49998 2.53237H0.507721V3.53237H3.49998V2.53237ZM0.00772095 3.03237V4.03237H1.00772V3.03237H0.00772095ZM0.507721 4.53237H3.49998V3.53237H0.507721V4.53237ZM3.99998 4.03237V3.03237H2.99998V4.03237H3.99998ZM4.99998 3.03237V4.03237H5.99998V3.03237H4.99998ZM8.50772 2.53237H5.49998V3.53237H8.50772V2.53237ZM9.00772 4.03237V3.03237H8.00772V4.03237H9.00772ZM5.49998 4.53237H8.50772V3.53237H5.49998V4.53237Z" fill="white"/>
<path fill-rule="evenodd" clip-rule="evenodd" d="M4.99998 0H3.99998V2.53237H0.00772095V4.53237H3.99998V7H4.99998V4.53237H9.00772V2.53237H4.99998V0Z" fill="#F50100"/>
</g>
</g>
</g>
<rect width="16" height="12" fill="url(#paint0_linear_14655_23346)" style="mix-blend-mode:overlay"/>
</g>
<defs>
<linearGradient id="paint0_linear_14655_23346" x1="8" y1="0" x2="8" y2="12" gradientUnits="userSpaceOnUse">
<stop stop-color="white" stop-opacity="0.7"/>
<stop offset="1" stop-opacity="0.3"/>
</linearGradient>
<clipPath id="clip0_14655_23346">
<rect width="16" height="12" rx="1" fill="white"/>
</clipPath>
</defs>
</svg>
