<svg width="16" height="12" viewBox="0 0 16 12" fill="none" xmlns="http://www.w3.org/2000/svg">
<g clip-path="url(#clip0_14655_23569)">
<mask id="mask0_14655_23569" style="mask-type:alpha" maskUnits="userSpaceOnUse" x="0" y="0" width="16" height="12">
<rect width="16" height="12" fill="white"/>
</mask>
<g mask="url(#mask0_14655_23569)">
<path fill-rule="evenodd" clip-rule="evenodd" d="M0 0V12H16V0H0Z" fill="#FFD221"/>
<mask id="mask1_14655_23569" style="mask-type:alpha" maskUnits="userSpaceOnUse" x="0" y="0" width="16" height="12">
<path fill-rule="evenodd" clip-rule="evenodd" d="M0 0V12H16V0H0Z" fill="white"/>
</mask>
<g mask="url(#mask1_14655_23569)">
<path d="M-1.53349 5.30761L-0.529498 3.01807L16.8838 10.6541L15.8798 12.9436L-1.53349 5.30761Z" fill="#313131"/>
<path d="M-1.50862 2.78476L-0.505047 0.495033L17.7743 8.50675L16.7707 10.7965L-1.50862 2.78476Z" fill="#FAF9F9"/>
<path fill-rule="evenodd" clip-rule="evenodd" d="M8 1.44367C7.72385 1.44367 7.5 1.66753 7.5 1.94367V3.758C7.3295 3.67472 7.10886 3.6 6.86593 3.6C6.31709 3.6 5.7 4.36798 5.7 4.36798C5.7 4.36798 6.71965 4.3957 7.5 5.16989V7.94356C6.63694 7.71538 6.26624 6.83664 6.36364 5.04062L4.86584 4.95939C4.70946 7.84298 5.77448 9.50511 8.02085 9.50511C10.2556 9.50511 11.3576 7.85811 11.283 4.98057L9.78354 5.01943C9.83107 6.8535 9.41253 7.74318 8.5 7.95462V5.07579C9.2646 4.39341 10.2 4.36798 10.2 4.36798C10.2 4.36798 9.5829 3.6 9.03406 3.6C8.83625 3.6 8.65321 3.64954 8.5 3.71291V1.94367C8.5 1.66753 8.27614 1.44367 8 1.44367ZM2.91 5.49184C2.63837 5.44214 2.45846 5.18164 2.50816 4.91001C2.55786 4.63838 2.81835 4.45847 3.08999 4.50817C4.08896 4.69095 4.63202 5.38591 4.63202 6.44866V8.47401C4.63202 8.75015 4.40816 8.97401 4.13202 8.97401C3.85588 8.97401 3.63202 8.75015 3.63202 8.47401V6.44866C3.63202 5.85603 3.4204 5.58522 2.91 5.49184ZM13.5238 4.91001C13.5735 5.18164 13.3936 5.44214 13.1219 5.49184C12.6115 5.58522 12.3999 5.85603 12.3999 6.44866V8.47401C12.3999 8.75015 12.1761 8.97401 11.8999 8.97401C11.6238 8.97401 11.3999 8.75015 11.3999 8.47401V6.44866C11.3999 5.38591 11.943 4.69095 12.9419 4.50817C13.2136 4.45847 13.4741 4.63838 13.5238 4.91001ZM4.8706 9.21974L5.69701 8.65668C6.16001 9.33622 6.90793 9.67746 8 9.67746C9.0992 9.67746 9.79282 9.41179 10.1331 8.91879L10.9561 9.48688C10.3994 10.2934 9.39659 10.6775 8 10.6775C6.59626 10.6775 5.53339 10.1925 4.8706 9.21974Z" fill="#CF1225"/>
</g>
</g>
<rect width="16" height="12" fill="url(#paint0_linear_14655_23569)" style="mix-blend-mode:overlay"/>
</g>
<defs>
<linearGradient id="paint0_linear_14655_23569" x1="8" y1="0" x2="8" y2="12" gradientUnits="userSpaceOnUse">
<stop stop-color="white" stop-opacity="0.7"/>
<stop offset="1" stop-opacity="0.3"/>
</linearGradient>
<clipPath id="clip0_14655_23569">
<rect width="16" height="12" rx="1" fill="white"/>
</clipPath>
</defs>
</svg>
