<svg width="16" height="12" viewBox="0 0 16 12" fill="none" xmlns="http://www.w3.org/2000/svg">
<g clip-path="url(#clip0_14655_23463)">
<mask id="mask0_14655_23463" style="mask-type:alpha" maskUnits="userSpaceOnUse" x="0" y="0" width="16" height="12">
<rect width="16" height="12" fill="white"/>
</mask>
<g mask="url(#mask0_14655_23463)">
<path fill-rule="evenodd" clip-rule="evenodd" d="M0 0V12H16V0H0Z" fill="#279E19"/>
<mask id="mask1_14655_23463" style="mask-type:alpha" maskUnits="userSpaceOnUse" x="0" y="0" width="16" height="12">
<path fill-rule="evenodd" clip-rule="evenodd" d="M0 0V12H16V0H0Z" fill="white"/>
</mask>
<g mask="url(#mask1_14655_23463)">
<path fill-rule="evenodd" clip-rule="evenodd" d="M8 0H9V7H16V8H9V12H8V8H0V7H8V0Z" fill="#F7FCFF"/>
<path fill-rule="evenodd" clip-rule="evenodd" d="M7 0H8V6H16V7H8V12H7V7H0V6H7V0Z" fill="#272727"/>
<path fill-rule="evenodd" clip-rule="evenodd" d="M6 0H7V5H16V6H7V12H6V6H0V5H6V0Z" fill="#FECA00"/>
<path fill-rule="evenodd" clip-rule="evenodd" d="M8 10C10.2091 10 12 8.20914 12 6C12 3.79086 10.2091 2 8 2C5.79086 2 4 3.79086 4 6C4 8.20914 5.79086 10 8 10Z" fill="#C51918"/>
<path fill-rule="evenodd" clip-rule="evenodd" d="M7.36296 4.20648C7.36296 4.20648 7.55293 3.59001 7.99424 3.90849C8.68627 4.24934 8.91453 4.64092 9.1817 5.08438C9.44887 5.52783 8.52665 5.20306 8.35461 4.95347C8.18256 4.70388 7.22824 4.62296 7.36296 4.41472C7.49768 4.20648 7.36296 4.20648 7.36296 4.20648Z" fill="#804BFF"/>
<path fill-rule="evenodd" clip-rule="evenodd" d="M7.20654 7.36272C7.20654 7.36272 6.7367 8.00547 7.20654 8.00547C7.67639 8.00547 9.58124 7.86719 9.35292 7.6841C9.12461 7.501 7.4323 7.6841 7.4323 7.6841L7.20654 7.36272Z" fill="#A95601"/>
<path fill-rule="evenodd" clip-rule="evenodd" d="M7.90901 7.34249C7.86029 7.28753 7.00421 5.34492 7.40224 4.94117C7.80027 4.53742 8.03352 4.77467 8.03352 5.38009C8.03352 5.98551 8.05745 7.49208 7.90901 7.34249Z" fill="#804BFF"/>
<path fill-rule="evenodd" clip-rule="evenodd" d="M7.85865 7.02723C7.85865 7.02723 7.80924 7.49943 8.05208 8.05066C8.29492 8.60189 8.78541 8.59127 8.78541 8.1401C8.78541 7.68892 9.14339 8.11233 9.28084 8.41344C9.41828 8.71456 9.06234 5.7396 8.55721 5.07403C8.05208 4.40847 7.56471 4.36574 7.71168 4.79583C7.85865 5.22593 7.85865 7.02723 7.85865 7.02723Z" fill="#279E19"/>
<path fill-rule="evenodd" clip-rule="evenodd" d="M7.56366 3.8C7.56366 3.8 7.34998 3.93702 7.34998 4.31443C7.34998 4.69183 7.8559 4.19758 7.8559 4.19758L7.56366 3.8Z" fill="#FECA00"/>
<path fill-rule="evenodd" clip-rule="evenodd" d="M7.60915 3.65677L8.04999 3.425L8.49083 3.65677L8.40664 3.16588L8.76329 2.81824L8.27041 2.74662L8.04999 2.3L7.82957 2.74662L7.3367 2.81824L7.69335 3.16588L7.60915 3.65677ZM7.60915 9.55676L8.04999 9.325L8.49083 9.55676L8.40664 9.06588L8.76329 8.71823L8.27041 8.64662L8.04999 8.2L7.82957 8.64662L7.3367 8.71823L7.69335 9.06588L7.60915 9.55676ZM10.4091 6.75676L10.4933 6.26588L10.1367 5.91823L10.6296 5.84661L10.85 5.39999L11.0704 5.84661L11.5633 5.91823L11.2066 6.26588L11.2908 6.75676L10.85 6.52499L10.4091 6.75676ZM4.70919 6.75676L5.15003 6.52499L5.59087 6.75676L5.50668 6.26588L5.86332 5.91823L5.37045 5.84661L5.15003 5.39999L4.92961 5.84661L4.43674 5.91823L4.79338 6.26588L4.70919 6.75676ZM6.23395 4.35099L6.09443 4.8291L5.79981 4.42755L5.30199 4.4426L5.59285 4.03831L5.42469 3.5695L5.89908 3.72119L6.29298 3.4164L6.2953 3.91445L6.7069 4.19488L6.23395 4.35099ZM10.3385 8.73002L10.4781 8.25191L10.951 8.09579L10.5394 7.81536L10.5371 7.31732L10.1432 7.62211L9.66879 7.47042L9.83695 7.93922L9.54609 8.34352L10.0439 8.32846L10.3385 8.73002ZM10.4089 4.29272L10.2694 4.77083L9.97479 4.36927L9.47697 4.38433L9.76783 3.98004L9.59967 3.51123L10.0741 3.66292L10.468 3.35813L10.4703 3.85617L10.8819 4.13661L10.4089 4.29272ZM6.21076 8.87103L6.35028 8.39292L6.82322 8.23681L6.41163 7.95638L6.4093 7.45833L6.01541 7.76312L5.54102 7.61143L5.70917 8.08024L5.41831 8.48453L5.91613 8.46947L6.21076 8.87103Z" fill="#FECA00"/>
</g>
</g>
<rect width="16" height="12" fill="url(#paint0_linear_14655_23463)" style="mix-blend-mode:overlay"/>
</g>
<defs>
<linearGradient id="paint0_linear_14655_23463" x1="8" y1="0" x2="8" y2="12" gradientUnits="userSpaceOnUse">
<stop stop-color="white" stop-opacity="0.7"/>
<stop offset="1" stop-opacity="0.3"/>
</linearGradient>
<clipPath id="clip0_14655_23463">
<rect width="16" height="12" rx="1" fill="white"/>
</clipPath>
</defs>
</svg>
