<svg width="16" height="12" viewBox="0 0 16 12" fill="none" xmlns="http://www.w3.org/2000/svg">
<g clip-path="url(#clip0_14655_23473)">
<mask id="mask0_14655_23473" style="mask-type:alpha" maskUnits="userSpaceOnUse" x="0" y="0" width="16" height="12">
<rect width="16" height="12" fill="white"/>
</mask>
<g mask="url(#mask0_14655_23473)">
<path fill-rule="evenodd" clip-rule="evenodd" d="M0 0V12H16V0H0Z" fill="#C51918"/>
<mask id="mask1_14655_23473" style="mask-type:alpha" maskUnits="userSpaceOnUse" x="0" y="0" width="16" height="12">
<path fill-rule="evenodd" clip-rule="evenodd" d="M0 0V12H16V0H0Z" fill="white"/>
</mask>
<g mask="url(#mask1_14655_23473)">
<path fill-rule="evenodd" clip-rule="evenodd" d="M7 0H9V5H16V7H9V12H7V7H0V5H7V0Z" fill="#F7FCFF"/>
<rect width="7" height="5" fill="#4257BF"/>
<rect x="9" y="7" width="7" height="5" fill="#4257BF"/>
<path d="M6.81847 5.55536L7.3162 5.603C7.23101 6.49306 7.34171 6.86809 7.52161 6.86809V7.36809C6.89941 7.36809 6.70727 6.71718 6.81847 5.55536Z" fill="#309404"/>
<path d="M9.21336 5.55536L8.71563 5.603C8.80082 6.49306 8.69012 6.86809 8.51022 6.86809V7.36809C9.13242 7.36809 9.32456 6.71718 9.21336 5.55536Z" fill="#309404"/>
<rect x="7.36365" y="5.34615" width="0.472727" height="0.738462" fill="#003994"/>
<path d="M8.09091 6.22308H8.56364V6.5979C8.56364 6.79873 8.40083 6.96154 8.2 6.96154H8.09091V6.22308Z" fill="#003994"/>
<rect x="8.05457" y="5.3" width="0.472727" height="0.738462" fill="#DE2110"/>
<path d="M7.36365 6.22308H7.83637V6.96154H7.72728C7.52645 6.96154 7.36365 6.79873 7.36365 6.5979V6.22308Z" fill="#DE2110"/>
<path d="M7.16723 5.30468L6.83279 4.93299C7.18597 4.61521 7.55404 4.45 7.93312 4.45C8.3122 4.45 8.68028 4.61521 9.03345 4.93299L8.69901 5.30468C8.43154 5.06401 8.17754 4.95 7.93312 4.95C7.68871 4.95 7.43471 5.06401 7.16723 5.30468Z" fill="#00319C"/>
<path d="M7.20361 7.79699L6.86917 7.4253C7.22234 7.10752 7.59042 6.94231 7.9695 6.94231C8.34858 6.94231 8.71666 7.10752 9.06983 7.4253L8.73539 7.79699C8.46791 7.55632 8.21392 7.44231 7.9695 7.44231C7.72508 7.44231 7.47109 7.55632 7.20361 7.79699Z" fill="#DE2110"/>
</g>
</g>
<rect width="16" height="12" fill="url(#paint0_linear_14655_23473)" style="mix-blend-mode:overlay"/>
</g>
<defs>
<linearGradient id="paint0_linear_14655_23473" x1="8" y1="0" x2="8" y2="12" gradientUnits="userSpaceOnUse">
<stop stop-color="white" stop-opacity="0.7"/>
<stop offset="1" stop-opacity="0.3"/>
</linearGradient>
<clipPath id="clip0_14655_23473">
<rect width="16" height="12" rx="1" fill="white"/>
</clipPath>
</defs>
</svg>
