<svg width="16" height="12" viewBox="0 0 16 12" fill="none" xmlns="http://www.w3.org/2000/svg">
<g clip-path="url(#clip0_14655_23387)">
<mask id="mask0_14655_23387" style="mask-type:alpha" maskUnits="userSpaceOnUse" x="0" y="0" width="16" height="12">
<rect width="16" height="12" fill="white"/>
</mask>
<g mask="url(#mask0_14655_23387)">
<path fill-rule="evenodd" clip-rule="evenodd" d="M0 0V12H16V0H0Z" fill="#FECA00"/>
<mask id="mask1_14655_23387" style="mask-type:alpha" maskUnits="userSpaceOnUse" x="0" y="0" width="16" height="12">
<path fill-rule="evenodd" clip-rule="evenodd" d="M0 0V12H16V0H0Z" fill="white"/>
</mask>
<g mask="url(#mask1_14655_23387)">
<path fill-rule="evenodd" clip-rule="evenodd" d="M0 0V4H16V0H0Z" fill="#5EAA22"/>
<path fill-rule="evenodd" clip-rule="evenodd" d="M0 8V12H16V8H0Z" fill="#E31D1C"/>
<path fill-rule="evenodd" clip-rule="evenodd" d="M8 9C9.65685 9 11 7.65685 11 6C11 4.34315 9.65685 3 8 3C6.34315 3 5 4.34315 5 6C5 7.65685 6.34315 9 8 9Z" fill="#2B77B8"/>
<path fill-rule="evenodd" clip-rule="evenodd" d="M8 7L6.61898 7.46326L7.04894 6.30902L6.11221 5.19098H7.41221L8 4L8.58778 5.19098H9.91644L8.95105 6.30902L9.29372 7.46326L8 7Z" stroke="#FECA00" stroke-width="0.75"/>
<path d="M7.84806 6.01724L6.80573 8.19731" stroke="#2B77B8" stroke-width="0.5"/>
<path d="M7.68405 5.73973H5.68405" stroke="#2B77B8" stroke-width="0.5"/>
<path d="M8.06073 6.41879L10.0153 7.32086" stroke="#2B77B8" stroke-width="0.5"/>
<path d="M8.48334 5.93684L9.89813 4.38824" stroke="#2B77B8" stroke-width="0.5"/>
</g>
</g>
<rect width="16" height="12" fill="url(#paint0_linear_14655_23387)" style="mix-blend-mode:overlay"/>
</g>
<defs>
<linearGradient id="paint0_linear_14655_23387" x1="8" y1="0" x2="8" y2="12" gradientUnits="userSpaceOnUse">
<stop stop-color="white" stop-opacity="0.7"/>
<stop offset="1" stop-opacity="0.3"/>
</linearGradient>
<clipPath id="clip0_14655_23387">
<rect width="16" height="12" rx="1" fill="white"/>
</clipPath>
</defs>
</svg>
