<svg width="16" height="12" viewBox="0 0 16 12" fill="none" xmlns="http://www.w3.org/2000/svg">
<g clip-path="url(#clip0_14655_23356)">
<mask id="mask0_14655_23356" style="mask-type:alpha" maskUnits="userSpaceOnUse" x="0" y="0" width="16" height="12">
<rect width="16" height="12" fill="white"/>
</mask>
<g mask="url(#mask0_14655_23356)">
<path fill-rule="evenodd" clip-rule="evenodd" d="M0 0V12H16V0H0Z" fill="#F7FCFF"/>
<mask id="mask1_14655_23356" style="mask-type:alpha" maskUnits="userSpaceOnUse" x="0" y="0" width="16" height="12">
<path fill-rule="evenodd" clip-rule="evenodd" d="M0 0V12H16V0H0Z" fill="white"/>
</mask>
<g mask="url(#mask1_14655_23356)">
<path fill-rule="evenodd" clip-rule="evenodd" d="M0 0V12H16V0H0Z" fill="#3D58DB"/>
<path fill-rule="evenodd" clip-rule="evenodd" d="M7.41221 2.42279L8 2.11378L8.58778 2.42279L8.47553 1.76829L8.95106 1.25701H8.29389L8 0.613777L7.70611 1.25701H7.04894L7.52447 1.76829L7.41221 2.42279ZM7.41221 11.1072L8 10.7982L8.58778 11.1072L8.47553 10.4527L8.95106 9.94145H8.29389L8 9.29822L7.70611 9.94145H7.04894L7.52447 10.4527L7.41221 11.1072ZM2.7864 6.80902L2.89865 6.15451L2.42313 5.64324H3.08029L3.37418 5L3.66808 5.64324H4.32524L3.84971 6.15451L3.96197 6.80902L3.37418 6.5L2.7864 6.80902ZM3.86763 8.22505L3.75537 8.87956L4.34316 8.57054L4.93094 8.87956L4.81869 8.22505L5.29422 7.71378H4.63705L4.34316 7.07054L4.04927 7.71378H3.3921L3.86763 8.22505ZM11.6625 8.57054L11.0747 8.87956L11.1869 8.22505L10.7114 7.71378H11.3686L11.6625 7.07054L11.9564 7.71378H12.6135L12.138 8.22505L12.2502 8.87956L11.6625 8.57054ZM3.86763 4.03009L3.75537 4.68459L4.34316 4.37558L4.93094 4.68459L4.81869 4.03009L5.29422 3.51881H4.63705L4.34316 2.87558L4.04927 3.51881H3.3921L3.86763 4.03009ZM11.6625 4.37558L11.0747 4.68459L11.1869 4.03009L10.7114 3.51881H11.3686L11.6625 2.87558L11.9564 3.51881H12.6135L12.138 4.03009L12.2502 4.68459L11.6625 4.37558ZM5.32808 9.89096L5.21582 10.5455L5.8036 10.2365L6.39139 10.5455L6.27913 9.89096L6.75466 9.37969H6.0975L5.8036 8.73645L5.50971 9.37969H4.85255L5.32808 9.89096ZM9.66193 10.5455L9.77418 9.89096L9.29866 9.37969H9.95582L10.2497 8.73645L10.5436 9.37969H11.2008L10.7252 9.89096L10.8375 10.5455L10.2497 10.2365L9.66193 10.5455ZM5.32808 2.33757L5.21582 2.99208L5.8036 2.68306L6.39139 2.99208L6.27913 2.33757L6.75466 1.8263H6.0975L5.8036 1.18306L5.50971 1.8263H4.85255L5.32808 2.33757ZM9.66193 2.99208L9.77418 2.33757L9.29866 1.8263H9.95582L10.2497 1.18306L10.5436 1.8263H11.2008L10.7252 2.33757L10.8375 2.99208L10.2497 2.68306L9.66193 2.99208ZM12.1121 6.09539L11.9998 6.7499L12.5876 6.44088L13.1754 6.7499L13.0631 6.09539L13.5386 5.58412H12.8815L12.5876 4.94088L12.2937 5.58412H11.6365L12.1121 6.09539Z" fill="#FFD018"/>
</g>
</g>
<rect width="16" height="12" fill="url(#paint0_linear_14655_23356)" style="mix-blend-mode:overlay"/>
</g>
<defs>
<linearGradient id="paint0_linear_14655_23356" x1="8" y1="0" x2="8" y2="12" gradientUnits="userSpaceOnUse">
<stop stop-color="white" stop-opacity="0.7"/>
<stop offset="1" stop-opacity="0.3"/>
</linearGradient>
<clipPath id="clip0_14655_23356">
<rect width="16" height="12" rx="1" fill="white"/>
</clipPath>
</defs>
</svg>
