<svg width="16" height="12" viewBox="0 0 16 12" fill="none" xmlns="http://www.w3.org/2000/svg">
<g clip-path="url(#clip0_14655_23437)">
<mask id="mask0_14655_23437" style="mask-type:alpha" maskUnits="userSpaceOnUse" x="0" y="0" width="16" height="12">
<rect width="16" height="12" fill="white"/>
</mask>
<g mask="url(#mask0_14655_23437)">
<path fill-rule="evenodd" clip-rule="evenodd" d="M0 0V12H16V0H0Z" fill="#2E42A5"/>
<mask id="mask1_14655_23437" style="mask-type:alpha" maskUnits="userSpaceOnUse" x="0" y="0" width="16" height="12">
<path fill-rule="evenodd" clip-rule="evenodd" d="M0 0V12H16V0H0Z" fill="white"/>
</mask>
<g mask="url(#mask1_14655_23437)">
<mask id="mask2_14655_23437" style="mask-type:alpha" maskUnits="userSpaceOnUse" x="0" y="0" width="9" height="7">
<rect width="9" height="7" fill="white"/>
</mask>
<g mask="url(#mask2_14655_23437)">
<path d="M-1.00214 6.49991L0.978339 7.36852L9.04494 0.944376L10.0896 -0.34639L7.97176 -0.636702L4.68159 2.13164L2.03334 3.99686L-1.00214 6.49991Z" fill="#F7FCFF"/>
<path d="M-0.731018 7.10847L0.277943 7.61253L9.71445 -0.466324H8.29775L-0.731018 7.10847Z" fill="#F50100"/>
<path d="M10.0021 6.49991L8.02166 7.36852L-0.0449371 0.944376L-1.08959 -0.34639L1.02824 -0.636702L4.31841 2.13164L6.96666 3.99686L10.0021 6.49991Z" fill="#F7FCFF"/>
<path d="M9.93457 6.93667L8.92561 7.44073L4.90745 3.98176L3.71615 3.59529L-1.1901 -0.341973H0.226597L5.13009 3.50184L6.43256 3.96525L9.93457 6.93667Z" fill="#F50100"/>
<mask id="path-10-outside-1_14655_23437" maskUnits="userSpaceOnUse" x="-1" y="-1" width="11" height="9" fill="black">
<rect fill="white" x="-1" y="-1" width="11" height="9"/>
<path fill-rule="evenodd" clip-rule="evenodd" d="M4.99226 0H3.99226V3H0V4H3.99226V7H4.99226V4H9V3H4.99226V0Z"/>
</mask>
<path fill-rule="evenodd" clip-rule="evenodd" d="M4.99226 0H3.99226V3H0V4H3.99226V7H4.99226V4H9V3H4.99226V0Z" fill="#F50100"/>
<path d="M3.99226 0V-0.75H3.24226V0H3.99226ZM4.99226 0H5.74226V-0.75H4.99226V0ZM3.99226 3V3.75H4.74226V3H3.99226ZM0 3V2.25H-0.75V3H0ZM0 4H-0.75V4.75H0V4ZM3.99226 4H4.74226V3.25H3.99226V4ZM3.99226 7H3.24226V7.75H3.99226V7ZM4.99226 7V7.75H5.74226V7H4.99226ZM4.99226 4V3.25H4.24226V4H4.99226ZM9 4V4.75H9.75V4H9ZM9 3H9.75V2.25H9V3ZM4.99226 3H4.24226V3.75H4.99226V3ZM3.99226 0.75H4.99226V-0.75H3.99226V0.75ZM4.74226 3V0H3.24226V3H4.74226ZM0 3.75H3.99226V2.25H0V3.75ZM0.75 4V3H-0.75V4H0.75ZM3.99226 3.25H0V4.75H3.99226V3.25ZM4.74226 7V4H3.24226V7H4.74226ZM4.99226 6.25H3.99226V7.75H4.99226V6.25ZM4.24226 4V7H5.74226V4H4.24226ZM9 3.25H4.99226V4.75H9V3.25ZM8.25 3V4H9.75V3H8.25ZM4.99226 3.75H9V2.25H4.99226V3.75ZM4.24226 0V3H5.74226V0H4.24226Z" fill="#F7FCFF" mask="url(#path-10-outside-1_14655_23437)"/>
</g>
<path d="M12.9751 9.85699C12.4607 9.85699 12.1028 9.73556 11.848 9.52388C11.5921 9.31125 11.4243 8.99438 11.317 8.57215C11.2095 8.14921 11.1655 7.63172 11.1491 7.03056C11.1376 6.60803 11.1397 6.14955 11.142 5.65788C11.1428 5.48956 11.1436 5.31734 11.1439 5.14134H14.8518C14.918 6.34505 14.9417 7.5181 14.7061 8.39789C14.585 8.84999 14.3983 9.21302 14.1239 9.46283C13.8521 9.71028 13.4831 9.85699 12.9751 9.85699Z" fill="#6DC2FF" stroke="#F7FCFF" stroke-width="0.25"/>
<mask id="mask3_14655_23437" style="mask-type:alpha" maskUnits="userSpaceOnUse" x="11" y="5" width="5" height="5">
<path d="M12.9751 9.85699C12.4607 9.85699 12.1028 9.73556 11.848 9.52388C11.5921 9.31125 11.4243 8.99438 11.317 8.57215C11.2095 8.14921 11.1655 7.63172 11.1491 7.03056C11.1376 6.60803 11.1397 6.14955 11.142 5.65788C11.1428 5.48956 11.1436 5.31734 11.1439 5.14134H14.8518C14.918 6.34505 14.9417 7.5181 14.7061 8.39789C14.585 8.84999 14.3983 9.21302 14.1239 9.46283C13.8521 9.71028 13.4831 9.85699 12.9751 9.85699Z" fill="white" stroke="white" stroke-width="0.25"/>
</mask>
<g mask="url(#mask3_14655_23437)">
<path fill-rule="evenodd" clip-rule="evenodd" d="M12.2609 6.79349C12.2609 6.79349 12.0636 6.64754 11.979 6.41109C11.8944 6.17463 11.7269 5.54517 11.7269 5.49051C11.7269 5.43585 11.5041 5.49051 11.5041 5.49051C11.5041 5.49051 11.5072 5.22432 11.5913 5.22432C11.6754 5.22432 11.6785 4.9775 11.8825 5.03965C12.0865 5.10181 12.2469 5.32975 12.4548 5.32975C12.6627 5.32975 13.5317 5.39604 13.6714 5.39604C13.8111 5.39604 14.1793 5.69087 14.1793 5.91155C14.1793 6.13224 14.0789 6.46105 13.9999 6.46105C13.9209 6.46105 13.8215 6.65235 13.6714 6.58921C13.5212 6.52606 13.1628 6.39603 12.8417 6.46105C12.5206 6.52606 12.4548 6.48519 12.4548 6.58921C12.4548 6.69322 12.2609 6.79349 12.2609 6.79349Z" fill="#E1E5E8"/>
<path fill-rule="evenodd" clip-rule="evenodd" d="M11.8 6.63934H14.3778L13.9338 7.21311H12.1124L11.8 6.63934Z" fill="#49801E"/>
<path d="M11.7664 9.14781C11.7664 9.14781 12.212 9.30717 12.3982 9.2878C12.6044 9.26635 12.7869 9.0313 12.9247 9.0313C13.0623 9.0313 13.3271 9.26643 13.5328 9.2878C13.7193 9.30717 14.083 9.14781 14.083 9.14781" stroke="white" stroke-width="0.533333"/>
<path d="M11.2772 8.46812C11.4312 8.33768 11.7664 8.32814 11.7664 8.32814C11.7664 8.32814 12.2119 8.48749 12.3981 8.46812C12.6043 8.44668 12.7869 8.21162 12.9247 8.21162C13.0622 8.21162 13.3271 8.44675 13.5328 8.46812C13.7193 8.4875 14.0829 8.32814 14.0829 8.32814C14.0829 8.32814 14.2862 8.09961 14.5414 8.34092" stroke="white" stroke-width="0.533333"/>
<path d="M11.2304 7.76488L10.8932 7.35165C11.0254 7.24377 11.2474 7.13746 11.5714 7.01995L11.7287 7.01237C12.0647 7.0987 12.2893 7.13612 12.3716 7.12788C12.3987 7.12516 12.444 7.10311 12.5269 7.04816C12.7622 6.8921 12.785 6.87938 12.9247 6.87938C13.0524 6.87938 13.0787 6.89162 13.3456 7.03574C13.3951 7.06229 13.4137 7.07195 13.4405 7.08482C13.4969 7.11187 13.5372 7.12566 13.5594 7.12787C13.6235 7.13429 13.7525 7.10437 13.933 7.03172C14.1678 6.81833 14.4652 6.84044 14.721 7.07352C14.8917 7.22901 15.0287 7.35462 15.1321 7.45045L14.7696 7.84164C14.6674 7.74698 14.5315 7.62232 14.3619 7.46777C14.2944 7.40631 14.3089 7.4067 14.2789 7.43918L14.1867 7.50399C13.9066 7.62226 13.6854 7.67649 13.5062 7.65855C13.4101 7.64893 13.3171 7.61716 13.2097 7.56563C13.1738 7.54837 13.1481 7.53504 13.0921 7.50501C12.9633 7.43546 12.9144 7.41271 12.9247 7.41271C12.9471 7.41271 12.916 7.43005 12.8217 7.49261C12.67 7.59325 12.5644 7.64455 12.4247 7.65855C12.2703 7.67403 12.0295 7.63679 11.6773 7.54946C11.4485 7.63597 11.2965 7.71092 11.2304 7.76488Z" fill="white"/>
</g>
<path d="M11.4816 9.19685C11.4816 9.19685 11.9736 9.66809 11.6765 9.98737C11.3794 10.3067 11.1071 10.1212 11.1071 10.1212" stroke="#B85F3C" stroke-width="0.5"/>
<path d="M14.5249 9.19685C14.5249 9.19685 14.0329 9.66809 14.33 9.98737C14.6271 10.3067 14.8995 10.1212 14.8995 10.1212" stroke="#B85F3C" stroke-width="0.5"/>
<path d="M11.1603 9.57657C11.1603 9.57657 12.0079 10.3865 13.0499 10.3865C14.0919 10.3865 14.9304 9.76775 14.9304 9.76775" stroke="#CB8B73" stroke-width="0.5"/>
</g>
</g>
<rect width="16" height="12" fill="url(#paint0_linear_14655_23437)" style="mix-blend-mode:overlay"/>
</g>
<defs>
<linearGradient id="paint0_linear_14655_23437" x1="8" y1="0" x2="8" y2="12" gradientUnits="userSpaceOnUse">
<stop stop-color="white" stop-opacity="0.7"/>
<stop offset="1" stop-opacity="0.3"/>
</linearGradient>
<clipPath id="clip0_14655_23437">
<rect width="16" height="12" rx="1" fill="white"/>
</clipPath>
</defs>
</svg>
