<svg width="16" height="12" viewBox="0 0 16 12" fill="none" xmlns="http://www.w3.org/2000/svg">
<g clip-path="url(#clip0_14655_23357)">
<mask id="mask0_14655_23357" style="mask-type:alpha" maskUnits="userSpaceOnUse" x="0" y="0" width="16" height="12">
<rect width="16" height="12" fill="white"/>
</mask>
<g mask="url(#mask0_14655_23357)">
<path fill-rule="evenodd" clip-rule="evenodd" d="M0 0V12H16V0H0Z" fill="#2E42A5"/>
<mask id="mask1_14655_23357" style="mask-type:alpha" maskUnits="userSpaceOnUse" x="0" y="0" width="16" height="12">
<path fill-rule="evenodd" clip-rule="evenodd" d="M0 0V12H16V0H0Z" fill="white"/>
</mask>
<g mask="url(#mask1_14655_23357)">
<mask id="mask2_14655_23357" style="mask-type:alpha" maskUnits="userSpaceOnUse" x="0" y="0" width="16" height="12">
<rect width="16" height="12" fill="white"/>
</mask>
<g mask="url(#mask2_14655_23357)">
<path d="M-1.78159 11.1427L1.73926 12.6317L16.0799 1.61893L17.937 -0.593806L14.172 -1.09148L8.32281 3.65425L3.61481 6.85177L-1.78159 11.1427Z" fill="white"/>
<path d="M-1.29959 12.186L0.494117 13.0501L17.2701 -0.799406H14.7516L-1.29959 12.186Z" fill="#F50100"/>
<path d="M17.7816 11.1427L14.2607 12.6317L-0.0799084 1.61893L-1.93707 -0.593806L1.82796 -1.09148L7.67716 3.65425L12.3852 6.85177L17.7816 11.1427Z" fill="white"/>
<path d="M17.6614 11.8914L15.8677 12.7556L8.7243 6.82588L6.60643 6.16337L-2.11579 -0.586231H0.402788L9.12011 6.00316L11.4356 6.79758L17.6614 11.8914Z" fill="#F50100"/>
<mask id="path-10-inside-1_14655_23357" fill="white">
<path fill-rule="evenodd" clip-rule="evenodd" d="M9.88885 -1H6.11108V4H-0.986267V8H6.11108V13H9.88885V8H17.0137V4H9.88885V-1Z"/>
</mask>
<path fill-rule="evenodd" clip-rule="evenodd" d="M9.88885 -1H6.11108V4H-0.986267V8H6.11108V13H9.88885V8H17.0137V4H9.88885V-1Z" fill="#F50100"/>
<path d="M6.11108 -1V-2H5.11108V-1H6.11108ZM9.88885 -1H10.8889V-2H9.88885V-1ZM6.11108 4V5H7.11108V4H6.11108ZM-0.986267 4V3H-1.98627V4H-0.986267ZM-0.986267 8H-1.98627V9H-0.986267V8ZM6.11108 8H7.11108V7H6.11108V8ZM6.11108 13H5.11108V14H6.11108V13ZM9.88885 13V14H10.8889V13H9.88885ZM9.88885 8V7H8.88885V8H9.88885ZM17.0137 8V9H18.0137V8H17.0137ZM17.0137 4H18.0137V3H17.0137V4ZM9.88885 4H8.88885V5H9.88885V4ZM6.11108 0H9.88885V-2H6.11108V0ZM7.11108 4V-1H5.11108V4H7.11108ZM-0.986267 5H6.11108V3H-0.986267V5ZM0.0137329 8V4H-1.98627V8H0.0137329ZM6.11108 7H-0.986267V9H6.11108V7ZM7.11108 13V8H5.11108V13H7.11108ZM9.88885 12H6.11108V14H9.88885V12ZM8.88885 8V13H10.8889V8H8.88885ZM17.0137 7H9.88885V9H17.0137V7ZM16.0137 4V8H18.0137V4H16.0137ZM9.88885 5H17.0137V3H9.88885V5ZM8.88885 -1V4H10.8889V-1H8.88885Z" fill="white" mask="url(#path-10-inside-1_14655_23357)"/>
</g>
</g>
</g>
<rect width="16" height="12" fill="url(#paint0_linear_14655_23357)" style="mix-blend-mode:overlay"/>
</g>
<defs>
<linearGradient id="paint0_linear_14655_23357" x1="8" y1="0" x2="8" y2="12" gradientUnits="userSpaceOnUse">
<stop stop-color="white" stop-opacity="0.7"/>
<stop offset="1" stop-opacity="0.3"/>
</linearGradient>
<clipPath id="clip0_14655_23357">
<rect width="16" height="12" rx="1" fill="white"/>
</clipPath>
</defs>
</svg>
