<svg width="16" height="12" viewBox="0 0 16 12" fill="none" xmlns="http://www.w3.org/2000/svg">
<g clip-path="url(#clip0_14655_23366)">
<path d="M0 0V4H16V0L0 0Z" fill="#002488"/>
<path d="M0.000350952 4V12H16.0003V4L0.000350952 4Z" fill="#DA121A"/>
<path d="M2.77418 0.566712C2.58156 0.884364 2.55858 1.13845 2.69004 1.5772C2.75334 1.78195 2.82287 2.08771 2.85209 2.25346C2.89104 2.48746 2.88696 2.50971 2.89243 2.56059C2.94112 2.56059 3.05177 2.56077 3.10294 2.56047C3.1103 2.47945 3.11624 2.38594 3.13352 2.25736C3.15366 2.10743 3.21339 1.79387 3.27764 1.57608C3.40602 1.14086 3.39742 0.873837 3.19779 0.571587C3.12476 0.459462 3.02737 0.366837 2.98355 0.366837C2.93973 0.366837 2.8406 0.452444 2.77418 0.566712Z" fill="#FCDD09"/>
<path d="M3.1939 2.35272C3.17735 2.43654 3.17332 2.46613 3.16502 2.56059C3.22404 2.56083 3.24724 2.56123 3.30477 2.56089C3.31736 2.49734 3.32643 2.46379 3.35419 2.37359C3.46423 2.02473 3.78832 1.88472 3.77371 2.21135C3.76884 2.30154 3.73082 2.35189 3.68851 2.40024C3.74081 2.38718 3.85191 2.33527 3.94199 2.28409C4.4435 1.98184 4.24601 1.24122 3.72015 1.46547C3.44748 1.58247 3.28348 1.90637 3.1939 2.35272Z" fill="#FCDD09"/>
<path d="M2.60596 2.71156C2.82602 2.71314 3.20634 2.71599 3.38901 2.7144C3.38923 2.63816 3.38991 2.67707 3.39036 2.61545C3.25587 2.61363 2.7409 2.61664 2.607 2.61664C2.60731 2.6565 2.60669 2.6758 2.60596 2.71155L2.60596 2.71156Z" fill="#FCDD09"/>
<path d="M2.46743 3.08203C2.46743 3.08203 2.57705 3.09437 2.67928 3.08691C2.78151 3.07944 2.83823 3.06667 2.89865 3.03729C2.88224 3.15925 2.8813 3.27703 2.8813 3.27703C2.89617 3.434 2.913 3.47417 2.94699 3.55056C2.99312 3.61428 3.01994 3.61463 3.05385 3.54734C3.0905 3.472 3.11462 3.39451 3.12228 3.2763C3.11962 3.18771 3.11467 3.14711 3.09371 3.03881C3.16445 3.06945 3.20912 3.0774 3.31465 3.08691C3.42264 3.09664 3.52189 3.09187 3.52189 3.09187C3.52189 3.09187 3.37603 3.01858 3.31182 2.92869C3.24845 2.83996 3.26196 2.85505 3.21588 2.74074C3.15989 2.73808 2.87599 2.7407 2.78591 2.7407C2.73657 2.84491 2.73161 2.86667 2.67068 2.93243C2.59135 3.01803 2.46743 3.08203 2.46743 3.08203Z" fill="#FCDD09"/>
<path d="M2.26982 1.46531C2.54249 1.58231 2.70649 1.9062 2.79607 2.35256C2.81261 2.43637 2.81665 2.46596 2.82494 2.56042C2.76592 2.56066 2.74273 2.56107 2.6852 2.56072C2.6726 2.49717 2.66353 2.46362 2.63578 2.37342C2.52574 2.02457 2.20165 1.88456 2.21626 2.21118C2.22113 2.30137 2.25914 2.35173 2.30146 2.40007C2.24915 2.38702 2.13806 2.33511 2.04798 2.28392C1.54646 1.98167 1.74396 1.24106 2.26982 1.46531V1.46531Z" fill="#FCDD09"/>
<path d="M7.81418 0.566712C7.62156 0.884364 7.59858 1.13845 7.73004 1.5772C7.79334 1.78195 7.86287 2.08771 7.89209 2.25346C7.93104 2.48746 7.92696 2.50971 7.93243 2.56059C7.98112 2.56059 8.09177 2.56077 8.14294 2.56047C8.1503 2.47945 8.15624 2.38594 8.17352 2.25736C8.19366 2.10743 8.25339 1.79387 8.31764 1.57608C8.44602 1.14086 8.43743 0.873837 8.23779 0.571587C8.16476 0.459462 8.06737 0.366837 8.02355 0.366837C7.97973 0.366837 7.8806 0.452444 7.81418 0.566712Z" fill="#FCDD09"/>
<path d="M8.76015 1.46547C8.48748 1.58247 8.32348 1.90637 8.2339 2.35272C8.21736 2.43654 8.21332 2.46613 8.20502 2.56059C8.26404 2.56083 8.28724 2.56123 8.34477 2.56089C8.35737 2.49734 8.36643 2.46379 8.39419 2.37359C8.50423 2.02473 8.82832 1.88472 8.81371 2.21135C8.80884 2.30154 8.77082 2.35189 8.72851 2.40024C8.78082 2.38718 8.89191 2.33527 8.98199 2.28409C9.4835 1.98184 9.28601 1.24122 8.76015 1.46547V1.46547Z" fill="#FCDD09"/>
<path d="M7.64596 2.71156C7.86602 2.71314 8.24634 2.71599 8.42901 2.7144C8.42923 2.63816 8.42991 2.67707 8.43036 2.61545C8.29588 2.61363 7.7809 2.61664 7.647 2.61664C7.64731 2.6565 7.64669 2.6758 7.64596 2.71155L7.64596 2.71156Z" fill="#FCDD09"/>
<path d="M7.71068 2.93243C7.63135 3.01803 7.50743 3.08203 7.50743 3.08203C7.50743 3.08203 7.61705 3.09437 7.71928 3.08691C7.82151 3.07944 7.87823 3.06667 7.93865 3.03729C7.92225 3.15925 7.9213 3.27703 7.9213 3.27703C7.93617 3.434 7.953 3.47417 7.98699 3.55056C8.03312 3.61428 8.05994 3.61463 8.09385 3.54734C8.1305 3.472 8.15463 3.39451 8.16228 3.2763C8.15962 3.18771 8.15467 3.14711 8.13371 3.03881C8.20445 3.06945 8.24912 3.0774 8.35465 3.08691C8.46264 3.09664 8.56189 3.09187 8.56189 3.09187C8.56189 3.09187 8.41603 3.01858 8.35183 2.92869C8.28845 2.83996 8.30197 2.85505 8.25588 2.74074C8.19989 2.73808 7.91599 2.7407 7.82591 2.7407C7.77657 2.84491 7.77161 2.86667 7.71068 2.93243V2.93243Z" fill="#FCDD09"/>
<path d="M7.30982 1.46531C7.58249 1.58231 7.74649 1.9062 7.83607 2.35256C7.85261 2.43637 7.85665 2.46596 7.86494 2.56042C7.80592 2.56066 7.78273 2.56107 7.7252 2.56072C7.7126 2.49717 7.70353 2.46362 7.67578 2.37342C7.56574 2.02457 7.24165 1.88456 7.25626 2.21118C7.26113 2.30137 7.29915 2.35173 7.34146 2.40007C7.28915 2.38702 7.17806 2.33511 7.08798 2.28392C6.58647 1.98167 6.78396 1.24106 7.30982 1.46531V1.46531Z" fill="#FCDD09"/>
<path d="M12.8542 0.566712C12.6616 0.884364 12.6386 1.13845 12.77 1.5772C12.8333 1.78195 12.9029 2.08771 12.9321 2.25346C12.971 2.48746 12.967 2.50971 12.9724 2.56059C13.0211 2.56059 13.1318 2.56077 13.1829 2.56047C13.1903 2.47945 13.1962 2.38594 13.2135 2.25736C13.2337 2.10743 13.2934 1.79387 13.3576 1.57608C13.486 1.14086 13.4774 0.873837 13.2778 0.571587C13.2048 0.459462 13.1074 0.366837 13.0635 0.366837C13.0197 0.366837 12.9206 0.452444 12.8542 0.566712Z" fill="#FCDD09"/>
<path d="M13.8001 1.46547C13.5275 1.58247 13.3635 1.90637 13.2739 2.35272C13.2574 2.43654 13.2533 2.46613 13.245 2.56059C13.304 2.56083 13.3272 2.56123 13.3848 2.56089C13.3974 2.49734 13.4064 2.46379 13.4342 2.37359C13.5442 2.02473 13.8683 1.88472 13.8537 2.21135C13.8488 2.30154 13.8108 2.35189 13.7685 2.40024C13.8208 2.38718 13.9319 2.33527 14.022 2.28409C14.5235 1.98184 14.326 1.24122 13.8001 1.46547V1.46547Z" fill="#FCDD09"/>
<path d="M12.686 2.71156C12.906 2.71314 13.2863 2.71599 13.469 2.7144C13.4692 2.63816 13.4699 2.67707 13.4704 2.61545C13.3359 2.61363 12.8209 2.61664 12.687 2.61664C12.6873 2.6565 12.6867 2.6758 12.686 2.71155L12.686 2.71156Z" fill="#FCDD09"/>
<path d="M12.7507 2.93243C12.6713 3.01803 12.5474 3.08203 12.5474 3.08203C12.5474 3.08203 12.657 3.09437 12.7593 3.08691C12.8615 3.07944 12.9182 3.06667 12.9786 3.03729C12.9622 3.15925 12.9613 3.27703 12.9613 3.27703C12.9762 3.434 12.993 3.47417 13.027 3.55056C13.0731 3.61428 13.0999 3.61463 13.1338 3.54734C13.1705 3.472 13.1946 3.39451 13.2023 3.2763C13.1996 3.18771 13.1947 3.14711 13.1737 3.03881C13.2444 3.06945 13.2891 3.0774 13.3946 3.08691C13.5026 3.09664 13.6019 3.09187 13.6019 3.09187C13.6019 3.09187 13.456 3.01858 13.3918 2.92869C13.3284 2.83996 13.342 2.85505 13.2959 2.74074C13.2399 2.73808 12.956 2.7407 12.8659 2.7407C12.8166 2.84491 12.8116 2.86667 12.7507 2.93243V2.93243Z" fill="#FCDD09"/>
<path d="M12.3498 1.46531C12.6225 1.58231 12.7865 1.9062 12.8761 2.35256C12.8926 2.43637 12.8966 2.46596 12.9049 2.56042C12.8459 2.56066 12.8227 2.56107 12.7652 2.56072C12.7526 2.49717 12.7435 2.46362 12.7158 2.37342C12.6057 2.02457 12.2816 1.88456 12.2963 2.21118C12.3011 2.30137 12.3391 2.35173 12.3815 2.40007C12.3292 2.38702 12.2181 2.33511 12.128 2.28392C11.6265 1.98167 11.824 1.24106 12.3498 1.46531V1.46531Z" fill="#FCDD09"/>
<path d="M5.69458 6.61671C5.8003 6.66605 5.93528 6.70494 6.00336 6.70724C6.08381 6.70995 6.06245 6.69015 5.9123 6.63168C5.79476 6.58575 5.65419 6.50852 5.5918 6.46063C5.47994 6.36911 5.47994 6.36911 5.49166 6.44963C5.49836 6.49563 5.58267 6.56715 5.69458 6.61671Z" fill="#008000"/>
<path d="M3.257 6.47411C3.17422 6.53749 3.17909 6.54236 3.35925 6.51311C3.46637 6.49849 3.62218 6.46924 3.70008 6.44974C3.82668 6.41561 3.81694 6.41074 3.59783 6.40586C3.45176 6.40099 3.31543 6.43024 3.257 6.47411Z" fill="#008000"/>
<path d="M2.04736 5.96156C2.85076 6.10781 4.46243 6.64893 4.36504 6.74156C4.3407 6.76593 3.88787 6.65381 3.82458 6.60993C3.80023 6.58556 3.56164 6.59531 3.29871 6.62943C2.80694 6.68306 2.72416 6.72693 2.7339 6.92681C2.73877 7.02431 2.73877 7.02431 2.76311 6.92681C2.80694 6.74643 2.87997 6.70743 3.15751 6.70743C3.45939 6.70743 4.28714 6.82931 4.65232 6.92681C5.13923 7.06331 5.15384 7.06331 4.99316 6.97556C4.78379 6.85856 4.4673 6.64406 4.40887 6.58068C4.30175 6.45881 2.35898 5.92256 2.07657 5.93231C1.94511 5.94206 1.94024 5.94206 2.04736 5.96156Z" fill="#008000"/>
<path d="M4.89857 6.52217C4.93753 6.59042 5.31732 6.78054 5.34653 6.75129C5.36114 6.73667 5.31732 6.69767 5.25889 6.66354C5.19559 6.62942 5.11281 6.57579 5.07873 6.53679C5.00082 6.46367 4.85475 6.44904 4.89857 6.52217Z" fill="#008000"/>
<path d="M4.92787 6.98533C4.96682 7.05358 5.34661 7.24371 5.37582 7.21446C5.39043 7.19983 5.34661 7.16083 5.28818 7.12671C5.22488 7.09258 5.14211 7.03896 5.10802 6.99996C5.03012 6.92683 4.88405 6.91221 4.92787 6.98533Z" fill="#008000"/>
<path d="M4.38351 6.40488C4.39052 6.39811 4.50008 6.4345 4.63005 6.48504C4.76002 6.53558 4.92792 6.58333 5.00015 6.58804C5.12746 6.59371 5.57826 6.80845 5.57391 6.86009C5.57307 6.90834 4.89145 6.69991 4.65252 6.57852C4.36576 6.4356 4.35899 6.42859 4.38351 6.40488Z" fill="#008000"/>
<path d="M5.19 6.76117C5.09917 6.79632 5.00782 6.85988 4.97944 6.90536C4.9459 6.95911 4.97428 6.95962 5.09144 6.9007C5.1833 6.8547 5.31594 6.81697 5.38872 6.81076C5.52497 6.80403 5.52497 6.80403 5.43826 6.74978C5.38871 6.71878 5.28342 6.72189 5.19 6.76117Z" fill="#008000"/>
<path d="M2.91129 5.11818C3.06223 5.40581 3.67574 6.06881 4.01657 6.32231C4.10909 6.39056 4.27463 6.45881 4.37689 6.47343L4.56678 6.50268L4.42558 6.34668C4.19673 6.09806 3.84615 5.62031 3.73417 5.41068C3.61244 5.18156 3.59783 5.24006 3.70008 5.53256C3.73903 5.64956 3.89485 5.88356 4.04579 6.04931C4.19673 6.21993 4.29411 6.36131 4.26977 6.36131C4.20647 6.36131 3.79746 5.87868 3.50532 5.45943C3.18883 5.00118 3.17422 4.98656 3.26186 5.24006C3.30569 5.36193 3.40307 5.54231 3.48584 5.63981C3.56375 5.74218 3.61244 5.82506 3.58809 5.82506C3.5394 5.82506 3.32516 5.58131 3.05736 5.23031C2.98433 5.12793 2.88207 4.99631 2.83825 4.93781C2.78956 4.87443 2.82365 4.95731 2.91129 5.11818Z" fill="#008000"/>
<path d="M10.2741 8.88289C10.4322 8.95148 11.2526 9.15861 11.833 9.32879C12.4134 9.49897 13.092 9.69489 13.2422 9.716C13.4569 9.24746 13.0662 10.1238 13.2892 9.59268C12.9993 9.51881 11.8567 9.24965 11.3982 9.11773C11.0029 9.00691 10.4421 8.83405 10.2985 8.80239C10.1549 8.77073 10.1529 8.83012 10.2741 8.88289Z" fill="#008000"/>
<path d="M10.3744 8.76126C10.5348 8.82429 11.3619 9.00263 11.9479 9.15242C12.5338 9.30222 13.2189 9.47431 13.3697 9.49015C13.568 9.0144 13.208 9.90388 13.4124 9.36528C13.1201 9.30157 11.9688 9.0725 11.506 8.95668C11.1071 8.85975 10.5406 8.70659 10.396 8.67997C10.2513 8.65334 10.2514 8.71276 10.3744 8.76126Z" fill="#008000"/>
<path d="M10.1473 8.97128C10.3016 9.04807 11.11 9.29789 11.6807 9.49825C12.2514 9.69861 12.9189 9.92982 13.0678 9.95877C13.3067 9.50213 12.8707 10.3568 13.1211 9.83809C12.8355 9.74912 11.7086 9.42046 11.2575 9.26469C10.8686 9.13332 10.3176 8.93131 10.1759 8.89217C10.0341 8.85303 10.029 8.91223 10.1473 8.97128Z" fill="#008000"/>
<path d="M10.0489 9.07109C10.1989 9.15586 10.9931 9.44771 11.5526 9.6777C12.1121 9.90769 12.7665 10.1736 12.9137 10.2103C13.1761 9.76677 12.696 10.5974 12.9733 10.0925C12.6927 9.98873 11.5845 9.60147 11.1422 9.42228C10.7607 9.27071 10.221 9.04011 10.0815 8.99359C9.94197 8.94707 9.93381 9.00593 10.0489 9.07109Z" fill="#008000"/>
<path d="M9.95613 9.19684C10.1032 9.28681 10.8867 9.60622 11.4378 9.85562C11.9889 10.105 12.6337 10.3936 12.7795 10.4354C13.0572 10.0014 12.5485 10.8148 12.8431 10.3199C12.5664 10.2063 11.4723 9.78055 11.0366 9.58602C10.6605 9.42121 10.1293 9.17189 9.99145 9.12053C9.85363 9.06916 9.84342 9.1277 9.95613 9.19684Z" fill="#008000"/>
<path d="M8.3136 10.4605C8.53968 10.6182 8.78756 10.583 8.69167 10.3673L8.63572 10.2416L8.81338 10.319C9.06725 10.4262 9.30245 10.3402 9.16382 10.1492L9.08297 10.0378L9.27285 10.0765C9.54342 10.1285 9.75559 9.9955 9.58036 9.83751L9.47814 9.74535L9.67192 9.74378C9.94737 9.73834 10.1273 9.56409 9.92308 9.44604L9.80395 9.37715L9.99318 9.33531C10.2615 9.27257 10.4012 9.06463 10.177 8.99168L10.0461 8.94919L10.2225 8.86883C10.4719 8.75164 10.5655 8.51914 10.331 8.49448L10.1942 8.48013L10.3501 8.36478C10.5697 8.19828 10.613 7.95133 10.3784 7.97605L10.2417 7.99041L10.3701 7.84515C10.5504 7.63656 10.5414 7.38608 10.3171 7.45903L10.1863 7.50155L10.2818 7.33277C10.4148 7.0912 10.354 6.84809 10.1498 6.96608L10.0306 7.03494L10.089 6.84994C10.169 6.58599 10.059 6.36077 9.88378 6.51875L9.78156 6.61092L9.80026 6.41783C9.8236 6.14293 9.66931 5.94557 9.53071 6.13657L9.44986 6.24801L9.42806 6.05522C9.39382 5.78156 9.20189 5.62056 9.10597 5.83625L9.05002 5.96211L8.98864 5.77805C8.89831 5.51748 8.67718 5.39996 8.62814 5.63089L8.59955 5.76563L8.5013 5.59843C8.35883 5.36227 8.1181 5.29347 8.1181 5.52953V5.66723L7.98727 5.52412C7.79893 5.32289 7.54911 5.30558 7.59815 5.53657L7.6267 5.67125L7.46903 5.55849C7.24296 5.40082 6.99508 5.43592 7.09094 5.65161L7.14688 5.77747L6.96922 5.7C6.71536 5.59283 6.48016 5.67882 6.61882 5.86982L6.69963 5.9812L6.50979 5.9424C6.23922 5.89041 6.02705 6.02347 6.20228 6.18142L6.30449 6.27358L6.11072 6.27515C5.83526 6.28062 5.65533 6.45493 5.85955 6.57298L5.97866 6.64184L5.78945 6.68368C5.52115 6.74637 5.38139 6.95431 5.60565 7.02726L5.73649 7.06983L5.56009 7.15016C5.31067 7.26738 5.21709 7.49979 5.45161 7.52448L5.5884 7.5389L5.43254 7.65418C5.21291 7.82074 5.16965 8.06763 5.40417 8.04294L5.54096 8.02859L5.41246 8.17378C5.23222 8.38243 5.24122 8.63292 5.46549 8.55996L5.59632 8.51742L5.5008 8.68625C5.36781 8.92779 5.42861 9.1709 5.63283 9.05288L5.75196 8.98399L5.69359 9.169C5.61367 9.43301 5.72362 9.65816 5.89885 9.50018L6.00107 9.40802L5.98237 9.6012C5.95904 9.876 6.11333 10.0734 6.25193 9.88237L6.33277 9.77099L6.3546 9.9638C6.38884 10.2375 6.58075 10.3984 6.67667 10.1827L6.73258 10.0569L6.79396 10.2409C6.88429 10.5015 7.10543 10.619 7.15446 10.388L7.18305 10.2534L7.28131 10.4206C7.42378 10.6567 7.6645 10.7256 7.6645 10.4895V10.3517L7.79533 10.4949C7.98368 10.6961 8.23346 10.7134 8.18446 10.4825L8.15587 10.3478L8.3136 10.4605Z" fill="#FCDD09"/>
<rect width="16" height="12" fill="url(#paint0_linear_14655_23366)" style="mix-blend-mode:overlay"/>
</g>
<defs>
<linearGradient id="paint0_linear_14655_23366" x1="8" y1="0" x2="8" y2="12" gradientUnits="userSpaceOnUse">
<stop stop-color="white" stop-opacity="0.7"/>
<stop offset="1" stop-opacity="0.3"/>
</linearGradient>
<clipPath id="clip0_14655_23366">
<rect width="16" height="12" rx="1" fill="white"/>
</clipPath>
</defs>
</svg>
