<svg width="16" height="12" viewBox="0 0 16 12" fill="none" xmlns="http://www.w3.org/2000/svg">
<g clip-path="url(#clip0_14655_23368)">
<mask id="mask0_14655_23368" style="mask-type:alpha" maskUnits="userSpaceOnUse" x="0" y="0" width="16" height="12">
<rect width="16" height="12" fill="white"/>
</mask>
<g mask="url(#mask0_14655_23368)">
<path fill-rule="evenodd" clip-rule="evenodd" d="M0 0V12.288H16.384V0H0Z" fill="#F7FCFF"/>
<mask id="mask1_14655_23368" style="mask-type:alpha" maskUnits="userSpaceOnUse" x="0" y="0" width="17" height="13">
<path fill-rule="evenodd" clip-rule="evenodd" d="M0 0V12.288H16.384V0H0Z" fill="white"/>
</mask>
<g mask="url(#mask1_14655_23368)">
<path fill-rule="evenodd" clip-rule="evenodd" d="M0 0V4.096H16.384V0H0Z" fill="#009D00"/>
<path fill-rule="evenodd" clip-rule="evenodd" d="M0 4.09599V8.19199H16.384V4.09599H0Z" fill="white"/>
<path fill-rule="evenodd" clip-rule="evenodd" d="M0 8.192V12.288H16.384V8.192H0Z" fill="#F80000"/>
</g>
<path fill-rule="evenodd" clip-rule="evenodd" d="M0 0V12.288L4.096 6.2218L0 0Z" fill="#0075D5"/>
<mask id="mask2_14655_23368" style="mask-type:alpha" maskUnits="userSpaceOnUse" x="0" y="0" width="5" height="13">
<path fill-rule="evenodd" clip-rule="evenodd" d="M0 0V12.288L4.096 6.2218L0 0Z" fill="white"/>
</mask>
<g mask="url(#mask2_14655_23368)">
</g>
<path d="M7.46044 4.5502L7.46296 4.56138L7.44695 4.54659L7.3444 4.45185L7.33159 4.59087L7.343 4.59192L7.32398 4.60258L7.2022 4.67083L7.33045 4.72598L7.33498 4.71545L7.33924 4.73683L7.36652 4.87374L7.4586 4.76881L7.44998 4.76125L7.47163 4.76381L7.61027 4.78017L7.53893 4.66017L7.52908 4.66603L7.5382 4.64623L7.59661 4.51943L7.46044 4.5502Z" fill="#FFD500" stroke="black" stroke-width="0.03"/>
<path d="M7.97244 4.5502L7.97496 4.56138L7.95895 4.54659L7.85641 4.45185L7.84359 4.59087L7.855 4.59192L7.83599 4.60258L7.7142 4.67083L7.84245 4.72598L7.84698 4.71545L7.85124 4.73683L7.87852 4.87374L7.9706 4.76881L7.96199 4.76125L7.98363 4.76381L8.12228 4.78017L8.05093 4.66017L8.04108 4.66603L8.0502 4.64623L8.10861 4.51943L7.97244 4.5502Z" fill="#FFD500" stroke="black" stroke-width="0.03"/>
<path d="M8.48444 4.5502L8.48696 4.56138L8.47095 4.54659L8.36841 4.45185L8.35559 4.59087L8.367 4.59192L8.34799 4.60258L8.2262 4.67083L8.35445 4.72598L8.35898 4.71545L8.36324 4.73683L8.39052 4.87374L8.4826 4.76881L8.47399 4.76125L8.49563 4.76381L8.63428 4.78017L8.56293 4.66017L8.55308 4.66603L8.5622 4.64623L8.62061 4.51943L8.48444 4.5502Z" fill="#FFD500" stroke="black" stroke-width="0.03"/>
<path d="M8.99644 4.5502L8.99896 4.56138L8.98295 4.54659L8.88041 4.45185L8.86759 4.59087L8.879 4.59192L8.85999 4.60258L8.7382 4.67083L8.86645 4.72598L8.87098 4.71545L8.87524 4.73683L8.90252 4.87374L8.9946 4.76881L8.98599 4.76125L9.00763 4.76381L9.14628 4.78017L9.07493 4.66017L9.06509 4.66603L9.0742 4.64623L9.13261 4.51943L8.99644 4.5502Z" fill="#FFD500" stroke="black" stroke-width="0.03"/>
<path d="M9.50843 4.5502L9.51096 4.56138L9.49495 4.54659L9.3924 4.45185L9.37958 4.59087L9.39099 4.59192L9.37198 4.60258L9.25019 4.67083L9.37845 4.72598L9.38297 4.71545L9.38723 4.73683L9.41451 4.87374L9.50659 4.76881L9.49798 4.76125L9.51963 4.76381L9.65827 4.78017L9.58693 4.66017L9.57708 4.66603L9.5862 4.64623L9.64461 4.51943L9.50843 4.5502Z" fill="#FFD500" stroke="black" stroke-width="0.03"/>
<path d="M10.0204 4.5502L10.023 4.56138L10.0069 4.54659L9.9044 4.45185L9.89159 4.59087L9.903 4.59192L9.88398 4.60258L9.7622 4.67083L9.89045 4.72598L9.89498 4.71545L9.89923 4.73683L9.92651 4.87374L10.0186 4.76881L10.01 4.76125L10.0316 4.76381L10.1703 4.78017L10.0989 4.66017L10.0891 4.66603L10.0982 4.64623L10.1566 4.51943L10.0204 4.5502Z" fill="#FFD500" stroke="black" stroke-width="0.03"/>
<path d="M7.71 5.15H9.698V6.65599C9.698 7.20497 9.25297 7.64999 8.704 7.64999C8.15503 7.64999 7.71 7.20497 7.71 6.65599V5.15Z" stroke="#373737" stroke-width="0.06"/>
<path fill-rule="evenodd" clip-rule="evenodd" d="M8.56391 6.12343C8.56391 6.12343 8.46063 7.33445 8.35753 7.40784C8.25444 7.48124 8.85158 7.51789 8.90864 7.46286C8.9657 7.40784 8.64823 6.42101 8.75744 6.12343C8.86665 5.82585 9.04255 5.80173 9.04255 5.80173C9.04255 5.80173 8.8208 5.75486 8.75744 5.84416C8.69407 5.93345 8.50509 5.80173 8.50509 5.80173L8.56391 6.12343Z" fill="#6F3E1D"/>
<path fill-rule="evenodd" clip-rule="evenodd" d="M8.54132 6.055H8.46186C8.46186 6.055 8.40807 6.2653 8.28467 6.16015C8.16128 6.055 7.9872 6.09207 7.9872 6.09207C7.9872 6.09207 8.00281 5.96622 8.19226 5.91619C8.38171 5.86617 8.46186 5.45993 8.46186 5.45993C8.46186 5.45993 8.72996 5.36013 8.89307 5.56464C9.05617 5.76915 9.28594 5.6819 9.28594 5.6819C9.28594 5.6819 9.45387 5.77739 9.36991 5.91619C9.28594 6.055 9.14269 6.15654 9.01788 6.055C8.89307 5.95346 8.54132 6.055 8.54132 6.055Z" fill="#009D29"/>
</g>
<rect width="16" height="12" fill="url(#paint0_linear_14655_23368)" style="mix-blend-mode:overlay"/>
</g>
<defs>
<linearGradient id="paint0_linear_14655_23368" x1="8" y1="0" x2="8" y2="12" gradientUnits="userSpaceOnUse">
<stop stop-color="white" stop-opacity="0.7"/>
<stop offset="1" stop-opacity="0.3"/>
</linearGradient>
<clipPath id="clip0_14655_23368">
<rect width="16" height="12" rx="1" fill="white"/>
</clipPath>
</defs>
</svg>
