<svg width="16" height="12" viewBox="0 0 16 12" fill="none" xmlns="http://www.w3.org/2000/svg">
<g clip-path="url(#clip0_14655_23522)">
<mask id="mask0_14655_23522" style="mask-type:alpha" maskUnits="userSpaceOnUse" x="0" y="0" width="16" height="12">
<rect width="16" height="12" fill="white"/>
</mask>
<g mask="url(#mask0_14655_23522)">
<path fill-rule="evenodd" clip-rule="evenodd" d="M0 0H16V12H0V0Z" fill="#F7FCFF"/>
<rect x="0.0135803" y="2.75" width="16" height="1.5" fill="#4564F9"/>
<path fill-rule="evenodd" clip-rule="evenodd" d="M0 0H16V1.5H0V0Z" fill="#4564F9"/>
<rect x="-0.0294342" y="5.5" width="16" height="1.5" fill="#4564F9"/>
<rect x="0.0558319" y="8.2" width="16" height="1.5" fill="#4564F9"/>
<rect x="0.0507355" y="10.75" width="16" height="1.5" fill="#4564F9"/>
<path fill-rule="evenodd" clip-rule="evenodd" d="M0 0H8V7H0V0Z" fill="#4564F9"/>
<path fill-rule="evenodd" clip-rule="evenodd" d="M3.23554 0H4.81769V2.75H8V4.64319H4.81769V7.5H3.23554V4.64319H0V2.75H3.23554V0Z" fill="#F7FCFF"/>
</g>
<rect width="16" height="12" fill="url(#paint0_linear_14655_23522)" style="mix-blend-mode:overlay"/>
</g>
<defs>
<linearGradient id="paint0_linear_14655_23522" x1="8" y1="0" x2="8" y2="12" gradientUnits="userSpaceOnUse">
<stop stop-color="white" stop-opacity="0.7"/>
<stop offset="1" stop-opacity="0.3"/>
</linearGradient>
<clipPath id="clip0_14655_23522">
<rect width="16" height="12" rx="1" fill="white"/>
</clipPath>
</defs>
</svg>
