<svg width="16" height="12" viewBox="0 0 16 12" fill="none" xmlns="http://www.w3.org/2000/svg">
<g clip-path="url(#clip0_14655_23378)">
<mask id="mask0_14655_23378" style="mask-type:alpha" maskUnits="userSpaceOnUse" x="0" y="0" width="16" height="12">
<rect width="16" height="12" fill="white"/>
</mask>
<g mask="url(#mask0_14655_23378)">
<path fill-rule="evenodd" clip-rule="evenodd" d="M0 0V12H16V0H0Z" fill="#EA1A1A"/>
<mask id="mask1_14655_23378" style="mask-type:alpha" maskUnits="userSpaceOnUse" x="0" y="0" width="16" height="12">
<path fill-rule="evenodd" clip-rule="evenodd" d="M0 0V12H16V0H0Z" fill="white"/>
</mask>
<g mask="url(#mask1_14655_23378)">
<path fill-rule="evenodd" clip-rule="evenodd" d="M7.93476 5.78738C7.93476 5.78738 5.03991 3.20575 8.49434 1.70156C8.49434 1.70156 9.49894 2.80987 8.7453 4.0541C8.49804 4.46218 8.2895 4.75359 8.13278 4.97258C7.81171 5.42125 7.70815 5.56596 7.93476 5.78738ZM3.66237 3.93375C3.46356 7.69617 7.06702 6.26103 7.06702 6.26103C6.76779 6.36468 6.68464 6.20736 6.42693 5.71976L6.42693 5.71975C6.30109 5.48166 6.13363 5.16481 5.87906 4.76115C5.10309 3.53067 3.66237 3.93375 3.66237 3.93375ZM9.11907 5.91353C9.11907 5.91353 12.835 7.02598 10.343 9.8518C10.343 9.8518 8.96335 9.27321 9.11907 7.827C9.17018 7.35278 9.2356 7.00056 9.28478 6.73583C9.38557 6.19323 9.41809 6.01817 9.11907 5.91353ZM8.14237 6.78085C8.14237 6.78085 8.80854 10.602 5.16684 9.63634C5.16684 9.63634 5.06769 8.14365 6.43093 7.63641C6.87809 7.47 7.22246 7.37102 7.48125 7.29663L7.48126 7.29663L7.48129 7.29662L7.48129 7.29662C8.01149 7.14423 8.18249 7.09507 8.14237 6.78085ZM12.7393 5.13765C10.4616 2.13656 8.63691 5.55924 8.63691 5.55924C8.79853 5.28682 8.9636 5.35325 9.47514 5.55911C9.72501 5.65966 10.0575 5.79348 10.5127 5.93733C11.8997 6.37568 12.7393 5.13765 12.7393 5.13765Z" fill="white"/>
<path d="M5.08062 5.10404C5.08062 5.10404 5.80853 6.24962 7.00057 6.24962" stroke="#EA1A1A" stroke-width="0.5"/>
<path d="M7.93013 3.52512C7.93013 3.52512 7.27689 4.73024 7.83652 5.78275" stroke="#EA1A1A" stroke-width="0.5"/>
<path d="M11.055 4.88079C11.055 4.88079 9.52988 4.64959 8.73225 5.53545" stroke="#EA1A1A" stroke-width="0.5"/>
<path d="M10.1642 7.67248C10.1642 7.67248 9.85983 6.16028 8.75458 5.71373" stroke="#EA1A1A" stroke-width="0.5"/>
<path d="M6.96663 8.49332C6.96663 8.49332 8.28353 7.69012 8.32513 6.49881" stroke="#EA1A1A" stroke-width="0.5"/>
</g>
</g>
<rect width="16" height="12" fill="url(#paint0_linear_14655_23378)" style="mix-blend-mode:overlay"/>
</g>
<defs>
<linearGradient id="paint0_linear_14655_23378" x1="8" y1="0" x2="8" y2="12" gradientUnits="userSpaceOnUse">
<stop stop-color="white" stop-opacity="0.7"/>
<stop offset="1" stop-opacity="0.3"/>
</linearGradient>
<clipPath id="clip0_14655_23378">
<rect width="16" height="12" rx="1" fill="white"/>
</clipPath>
</defs>
</svg>
