<svg width="16" height="12" viewBox="0 0 16 12" fill="none" xmlns="http://www.w3.org/2000/svg">
<g clip-path="url(#clip0_14655_23381)">
<mask id="mask0_14655_23381" style="mask-type:alpha" maskUnits="userSpaceOnUse" x="0" y="0" width="16" height="12">
<rect width="16" height="12" fill="white"/>
</mask>
<g mask="url(#mask0_14655_23381)">
<path fill-rule="evenodd" clip-rule="evenodd" d="M0 0V12H16V0H0Z" fill="#F7FCFF"/>
<mask id="mask1_14655_23381" style="mask-type:alpha" maskUnits="userSpaceOnUse" x="0" y="0" width="16" height="12">
<path fill-rule="evenodd" clip-rule="evenodd" d="M0 0V12H16V0H0Z" fill="white"/>
</mask>
<g mask="url(#mask1_14655_23381)">
<path fill-rule="evenodd" clip-rule="evenodd" d="M0 0V4H16V0H0Z" fill="#E31D1C"/>
<path fill-rule="evenodd" clip-rule="evenodd" d="M0 8V12H16V8H0Z" fill="#3D58DB"/>
<rect x="5.03828" y="3.19866" width="5.7" height="2" fill="#E31D1C"/>
<path d="M5.32614 4.47991H10.3904C10.399 4.86439 10.4015 5.53509 10.4015 6.18076C10.4014 6.59772 10.4003 6.99914 10.3993 7.29636L10.3978 7.65284L10.3973 7.75162L10.3972 7.76583L10.3969 7.76748C10.3947 7.78079 10.391 7.80173 10.3852 7.82921C10.3737 7.88426 10.3543 7.96506 10.3235 8.06297C10.2616 8.25963 10.1551 8.52038 9.97763 8.77947C9.63041 9.28641 8.99995 9.80764 7.8249 9.80764C6.65145 9.80764 6.05151 9.28711 5.73217 8.78503C5.56819 8.52721 5.47455 8.26736 5.42215 8.07086C5.39607 7.97308 5.38057 7.89236 5.3717 7.83737C5.36728 7.80991 5.36453 7.789 5.36295 7.77571L5.362 7.76711L5.36173 7.74507L5.36054 7.64692L5.35629 7.29265C5.35278 6.99721 5.34809 6.59789 5.34341 6.18237C5.33625 5.54747 5.32912 4.87668 5.32614 4.47991ZM5.36116 7.75927C5.36115 7.75913 5.36115 7.75913 5.36116 7.75925L5.36116 7.75927Z" fill="#F7FCFF" stroke="#E31D1C" stroke-width="0.5625"/>
<mask id="mask2_14655_23381" style="mask-type:alpha" maskUnits="userSpaceOnUse" x="5" y="4" width="6" height="7">
<path d="M5.32614 4.47991H10.3904C10.399 4.86439 10.4015 5.53509 10.4015 6.18076C10.4014 6.59772 10.4003 6.99914 10.3993 7.29636L10.3978 7.65284L10.3973 7.75162L10.3972 7.76583L10.3969 7.76748C10.3947 7.78079 10.391 7.80173 10.3852 7.82921C10.3737 7.88426 10.3543 7.96506 10.3235 8.06297C10.2616 8.25963 10.1551 8.52038 9.97763 8.77947C9.63041 9.28641 8.99995 9.80764 7.8249 9.80764C6.65145 9.80764 6.05151 9.28711 5.73217 8.78503C5.56819 8.52721 5.47455 8.26736 5.42215 8.07086C5.39607 7.97308 5.38057 7.89236 5.3717 7.83737C5.36728 7.80991 5.36453 7.789 5.36295 7.77571L5.362 7.76711L5.36173 7.74507L5.36054 7.64692L5.35629 7.29265C5.35278 6.99721 5.34809 6.59789 5.34341 6.18237C5.33625 5.54747 5.32912 4.87668 5.32614 4.47991ZM5.36116 7.75927C5.36115 7.75913 5.36115 7.75913 5.36116 7.75925L5.36116 7.75927Z" fill="white" stroke="white" stroke-width="0.5625"/>
</mask>
<g mask="url(#mask2_14655_23381)">
<path fill-rule="evenodd" clip-rule="evenodd" d="M5.24922 4.51994H6.30391V5.59089H5.24922V4.51994ZM7.3586 5.59089H6.30391V6.66184H5.24922V7.73279H6.30391V8.80375H5.24922V9.8747H6.30391V8.80375H7.3586V9.8747H8.41328V8.80375H9.46797V9.8747H10.5227V8.80375H9.46797V7.73279H10.5227V6.66184H9.46797V5.59089H10.5227V4.51994H9.46797V5.59089H8.41328V4.51994H7.3586V5.59089ZM7.3586 6.66184V5.59089H8.41328V6.66184H7.3586ZM7.3586 7.73279V6.66184H6.30391V7.73279H7.3586ZM8.41328 7.73279V8.80375H7.3586V7.73279H8.41328ZM8.41328 7.73279V6.66184H9.46797V7.73279H8.41328Z" fill="#F50100"/>
</g>
<path fill-rule="evenodd" clip-rule="evenodd" d="M5.22653 4.08132C5.22653 4.08132 5.55275 3.90707 5.83099 3.81727C6.10923 3.72747 6.32915 3.67841 6.32915 3.67841L5.91518 2.15236L5.08602 1.84258L4.61641 2.61663L5.22653 4.08132Z" fill="#56C6F5" stroke="white" stroke-width="0.15"/>
<path fill-rule="evenodd" clip-rule="evenodd" d="M7.2704 3.5379C7.2704 3.5379 7.5486 3.51307 7.84092 3.51875C8.13323 3.52443 8.38053 3.52651 8.38053 3.52651L8.52331 2.02177L7.89714 1.45607L7.20111 2.03506L7.2704 3.5379Z" fill="#56C6F5" stroke="white" stroke-width="0.15"/>
<path d="M6.23425 3.66597L6.25586 3.73937L6.32882 3.71629L6.32882 3.71629L6.32885 3.71628L6.329 3.71624L6.32964 3.71603L6.33226 3.71521L6.34259 3.712L6.38123 3.70024C6.41412 3.69037 6.45998 3.67693 6.5118 3.66266C6.61649 3.63384 6.74172 3.60273 6.83368 3.58995C6.92813 3.57683 7.04504 3.56732 7.13935 3.56108C7.18629 3.55797 7.22722 3.5557 7.2564 3.55421L7.29058 3.55254L7.29969 3.55214L7.302 3.55204L7.30257 3.55202L7.3027 3.55201L7.30273 3.55201L7.30273 3.55201L7.38112 3.54879L7.37438 3.47063L7.24824 2.00842L7.24526 1.97382L7.21694 1.95372L6.53558 1.46981L6.48297 1.43245L6.43818 1.47889L5.81894 2.12085L5.78865 2.15225L5.80097 2.1941L6.23425 3.66597Z" fill="#2E42A5" stroke="white" stroke-width="0.15"/>
<mask id="mask3_14655_23381" style="mask-type:alpha" maskUnits="userSpaceOnUse" x="5" y="1" width="3" height="3">
<path d="M6.23425 3.66597L6.25586 3.73937L6.32882 3.71629L6.32882 3.71629L6.32885 3.71628L6.329 3.71624L6.32964 3.71603L6.33226 3.71521L6.34259 3.712L6.38123 3.70024C6.41412 3.69037 6.45998 3.67693 6.5118 3.66266C6.61649 3.63384 6.74172 3.60273 6.83368 3.58995C6.92813 3.57683 7.04504 3.56732 7.13935 3.56108C7.18629 3.55797 7.22722 3.5557 7.2564 3.55421L7.29058 3.55254L7.29969 3.55214L7.302 3.55204L7.30257 3.55202L7.3027 3.55201L7.30273 3.55201L7.30273 3.55201L7.38112 3.54879L7.37438 3.47063L7.24824 2.00842L7.24526 1.97382L7.21694 1.95372L6.53558 1.46981L6.48297 1.43245L6.43818 1.47889L5.81894 2.12085L5.78865 2.15225L5.80097 2.1941L6.23425 3.66597Z" fill="white" stroke="white" stroke-width="0.15"/>
</mask>
<g mask="url(#mask3_14655_23381)">
</g>
<path d="M9.47004 3.66433L9.44964 3.7399L9.37501 3.71629L9.37501 3.71629L9.37498 3.71628L9.37483 3.71624L9.37419 3.71603L9.37156 3.71521L9.36123 3.712L9.32259 3.70024C9.2897 3.69037 9.24385 3.67693 9.19203 3.66266C9.08734 3.63384 8.9621 3.60273 8.87015 3.58995C8.7757 3.57683 8.65879 3.56732 8.56448 3.56108C8.51754 3.55797 8.47661 3.5557 8.44743 3.55421L8.41324 3.55254L8.40414 3.55214L8.40183 3.55204L8.40126 3.55202L8.40112 3.55201L8.40109 3.55201L8.40109 3.55201L8.3227 3.54879L8.32945 3.47063L8.45559 2.00842L8.45857 1.97382L8.48688 1.95372L9.16824 1.46981L9.22233 1.4314L9.26706 1.48039L9.85091 2.11993L9.87865 2.15031L9.86793 2.19003L9.47004 3.66433Z" fill="#2E42A5" stroke="white" stroke-width="0.15"/>
<mask id="mask4_14655_23381" style="mask-type:alpha" maskUnits="userSpaceOnUse" x="8" y="1" width="2" height="3">
<path d="M9.47004 3.66433L9.44964 3.7399L9.37501 3.71629L9.37501 3.71629L9.37498 3.71628L9.37483 3.71624L9.37419 3.71603L9.37156 3.71521L9.36123 3.712L9.32259 3.70024C9.2897 3.69037 9.24385 3.67693 9.19203 3.66266C9.08734 3.63384 8.9621 3.60273 8.87015 3.58995C8.7757 3.57683 8.65879 3.56732 8.56448 3.56108C8.51754 3.55797 8.47661 3.5557 8.44743 3.55421L8.41324 3.55254L8.40414 3.55214L8.40183 3.55204L8.40126 3.55202L8.40112 3.55201L8.40109 3.55201L8.40109 3.55201L8.3227 3.54879L8.32945 3.47063L8.45559 2.00842L8.45857 1.97382L8.48688 1.95372L9.16824 1.46981L9.22233 1.4314L9.26706 1.48039L9.85091 2.11993L9.87865 2.15031L9.86793 2.19003L9.47004 3.66433Z" fill="white" stroke="white" stroke-width="0.15"/>
</mask>
<g mask="url(#mask4_14655_23381)">
</g>
<path d="M10.6304 4.07308L10.598 4.1477L10.5262 4.10937L10.5262 4.10937L10.5262 4.10937L10.5262 4.10936L10.5261 4.10928L10.5254 4.10895L10.5228 4.10755L10.5123 4.10204C10.5031 4.09722 10.4895 4.09019 10.4723 4.08146C10.4379 4.06399 10.3891 4.03974 10.3317 4.01272C10.2165 3.95844 10.0687 3.89399 9.93407 3.85054C9.79658 3.80617 9.67344 3.77184 9.5847 3.74862C9.54035 3.73701 9.50465 3.7282 9.48012 3.7223L9.45203 3.71566L9.44487 3.71402L9.44311 3.71362L9.44271 3.71353L9.44262 3.71351L9.44261 3.71351L9.44261 3.71351L9.44261 3.71351L9.36508 3.69621L9.3868 3.6198L9.8098 2.13186L9.82017 2.09538L9.85569 2.08211L10.6849 1.77232L10.743 1.75059L10.7752 1.80367L11.2448 2.57772L11.265 2.61089L11.2495 2.64648L10.6304 4.07308Z" fill="#56C6F5" stroke="white" stroke-width="0.15"/>
<mask id="mask5_14655_23381" style="mask-type:alpha" maskUnits="userSpaceOnUse" x="9" y="1" width="3" height="4">
<path d="M10.6304 4.07308L10.598 4.1477L10.5262 4.10937L10.5262 4.10937L10.5262 4.10937L10.5262 4.10936L10.5261 4.10928L10.5254 4.10895L10.5228 4.10755L10.5123 4.10204C10.5031 4.09722 10.4895 4.09019 10.4723 4.08146C10.4379 4.06399 10.3891 4.03974 10.3317 4.01272C10.2165 3.95844 10.0687 3.89399 9.93407 3.85054C9.79658 3.80617 9.67344 3.77184 9.5847 3.74862C9.54035 3.73701 9.50465 3.7282 9.48012 3.7223L9.45203 3.71566L9.44487 3.71402L9.44311 3.71362L9.44271 3.71353L9.44262 3.71351L9.44261 3.71351L9.44261 3.71351L9.44261 3.71351L9.36508 3.69621L9.3868 3.6198L9.8098 2.13186L9.82017 2.09538L9.85569 2.08211L10.6849 1.77232L10.743 1.75059L10.7752 1.80367L11.2448 2.57772L11.265 2.61089L11.2495 2.64648L10.6304 4.07308Z" fill="white" stroke="white" stroke-width="0.15"/>
</mask>
<g mask="url(#mask5_14655_23381)">
</g>
</g>
</g>
<rect width="16" height="12" fill="url(#paint0_linear_14655_23381)" style="mix-blend-mode:overlay"/>
</g>
<defs>
<linearGradient id="paint0_linear_14655_23381" x1="8" y1="0" x2="8" y2="12" gradientUnits="userSpaceOnUse">
<stop stop-color="white" stop-opacity="0.7"/>
<stop offset="1" stop-opacity="0.3"/>
</linearGradient>
<clipPath id="clip0_14655_23381">
<rect width="16" height="12" rx="1" fill="white"/>
</clipPath>
</defs>
</svg>
