<svg width="16" height="12" viewBox="0 0 16 12" fill="none" xmlns="http://www.w3.org/2000/svg">
<g clip-path="url(#clip0_14655_23386)">
<mask id="mask0_14655_23386" style="mask-type:alpha" maskUnits="userSpaceOnUse" x="0" y="0" width="16" height="12">
<rect width="16" height="12" fill="white"/>
</mask>
<g mask="url(#mask0_14655_23386)">
<path fill-rule="evenodd" clip-rule="evenodd" d="M0 0V12H16V0H0Z" fill="#F7FCFF"/>
<mask id="mask1_14655_23386" style="mask-type:alpha" maskUnits="userSpaceOnUse" x="0" y="0" width="16" height="12">
<path fill-rule="evenodd" clip-rule="evenodd" d="M0 0V12H16V0H0Z" fill="white"/>
</mask>
<g mask="url(#mask1_14655_23386)">
<path fill-rule="evenodd" clip-rule="evenodd" d="M-0.752849 1.64574L-0.00927627 2.35426C0.604737 1.77383 1.1841 1.5 1.73468 1.5C2.00069 1.5 2.11398 1.56425 2.42076 1.85426C2.90738 2.31425 3.23487 2.5 3.85042 2.5C4.46596 2.5 4.79346 2.31425 5.28008 1.85426C5.58686 1.56425 5.70015 1.5 5.96616 1.5C6.23217 1.5 6.34546 1.56425 6.65224 1.85426C7.13886 2.31425 7.46636 2.5 8.0819 2.5C8.69745 2.5 9.02494 2.31425 9.51156 1.85426C9.81834 1.56425 9.93163 1.5 10.1976 1.5C10.4637 1.5 10.5769 1.56425 10.8837 1.85426C11.3703 2.31425 11.6978 2.5 12.3134 2.5C12.9289 2.5 13.2564 2.31425 13.743 1.85426C14.0498 1.56425 14.1631 1.5 14.4291 1.5C14.9797 1.5 15.5591 1.77383 16.1731 2.35426L16.9167 1.64574C16.1202 0.892834 15.289 0.5 14.4291 0.5C13.8136 0.5 13.4861 0.685748 12.9995 1.14574C12.6927 1.43575 12.5794 1.5 12.3134 1.5C12.0474 1.5 11.9341 1.43575 11.6273 1.14574C11.1407 0.685748 10.8132 0.5 10.1976 0.5C9.5821 0.5 9.2546 0.685748 8.76799 1.14574C8.4612 1.43575 8.34791 1.5 8.0819 1.5C7.81589 1.5 7.7026 1.43575 7.39582 1.14574C6.9092 0.685748 6.58171 0.5 5.96616 0.5C5.35062 0.5 5.02312 0.685748 4.5365 1.14574C4.22972 1.43575 4.11643 1.5 3.85042 1.5C3.58441 1.5 3.47112 1.43575 3.16434 1.14574C2.67772 0.685748 2.35022 0.5 1.73468 0.5C0.874768 0.5 0.0436321 0.892834 -0.752849 1.64574ZM-0.00927627 4.35426L-0.752849 3.64574C0.0436321 2.89283 0.874768 2.5 1.73468 2.5C2.35022 2.5 2.67772 2.68575 3.16434 3.14574C3.47112 3.43575 3.58441 3.5 3.85042 3.5C4.11643 3.5 4.22972 3.43575 4.5365 3.14574C5.02312 2.68575 5.35062 2.5 5.96616 2.5C6.58171 2.5 6.9092 2.68575 7.39582 3.14574C7.7026 3.43575 7.81589 3.5 8.0819 3.5C8.34791 3.5 8.4612 3.43575 8.76799 3.14574C9.2546 2.68575 9.5821 2.5 10.1976 2.5C10.8132 2.5 11.1407 2.68575 11.6273 3.14574C11.9341 3.43575 12.0474 3.5 12.3134 3.5C12.5794 3.5 12.6927 3.43575 12.9995 3.14574C13.4861 2.68575 13.8136 2.5 14.4291 2.5C15.289 2.5 16.1202 2.89283 16.9167 3.64574L16.1731 4.35426C15.5591 3.77383 14.9797 3.5 14.4291 3.5C14.1631 3.5 14.0498 3.56425 13.743 3.85426C13.2564 4.31425 12.9289 4.5 12.3134 4.5C11.6978 4.5 11.3703 4.31425 10.8837 3.85426C10.5769 3.56425 10.4637 3.5 10.1976 3.5C9.93163 3.5 9.81834 3.56425 9.51156 3.85426C9.02494 4.31425 8.69745 4.5 8.0819 4.5C7.46636 4.5 7.13886 4.31425 6.65224 3.85426C6.34546 3.56425 6.23217 3.5 5.96616 3.5C5.70015 3.5 5.58686 3.56425 5.28008 3.85426C4.79346 4.31425 4.46596 4.5 3.85042 4.5C3.23487 4.5 2.90738 4.31425 2.42076 3.85426C2.11398 3.56425 2.00069 3.5 1.73468 3.5C1.1841 3.5 0.604737 3.77383 -0.00927627 4.35426ZM-0.00927627 6.35426L-0.752849 5.64574C0.0436321 4.89283 0.874768 4.5 1.73468 4.5C2.35022 4.5 2.67772 4.68575 3.16434 5.14574C3.47112 5.43575 3.58441 5.5 3.85042 5.5C4.11643 5.5 4.22972 5.43575 4.5365 5.14574C5.02312 4.68575 5.35062 4.5 5.96616 4.5C6.58171 4.5 6.9092 4.68575 7.39582 5.14574C7.7026 5.43575 7.81589 5.5 8.0819 5.5C8.34791 5.5 8.4612 5.43575 8.76799 5.14574C9.2546 4.68575 9.5821 4.5 10.1976 4.5C10.8132 4.5 11.1407 4.68575 11.6273 5.14574C11.9341 5.43575 12.0474 5.5 12.3134 5.5C12.5794 5.5 12.6927 5.43575 12.9995 5.14574C13.4861 4.68575 13.8136 4.5 14.4291 4.5C15.289 4.5 16.1202 4.89283 16.9167 5.64574L16.1731 6.35426C15.5591 5.77383 14.9797 5.5 14.4291 5.5C14.1631 5.5 14.0498 5.56425 13.743 5.85426C13.2564 6.31425 12.9289 6.5 12.3134 6.5C11.6978 6.5 11.3703 6.31425 10.8837 5.85426C10.5769 5.56425 10.4637 5.5 10.1976 5.5C9.93163 5.5 9.81834 5.56425 9.51156 5.85426C9.02494 6.31425 8.69745 6.5 8.0819 6.5C7.46636 6.5 7.13886 6.31425 6.65224 5.85426C6.34546 5.56425 6.23217 5.5 5.96616 5.5C5.70015 5.5 5.58686 5.56425 5.28008 5.85426C4.79346 6.31425 4.46596 6.5 3.85042 6.5C3.23487 6.5 2.90738 6.31425 2.42076 5.85426C2.11398 5.56425 2.00069 5.5 1.73468 5.5C1.1841 5.5 0.604737 5.77383 -0.00927627 6.35426ZM-0.00927627 8.35426L-0.752849 7.64574C0.0436321 6.89283 0.874768 6.5 1.73468 6.5C2.35022 6.5 2.67772 6.68575 3.16434 7.14574C3.47112 7.43575 3.58441 7.5 3.85042 7.5C4.11643 7.5 4.22972 7.43575 4.5365 7.14574C5.02312 6.68575 5.35062 6.5 5.96616 6.5C6.58171 6.5 6.9092 6.68575 7.39582 7.14574C7.7026 7.43575 7.81589 7.5 8.0819 7.5C8.34791 7.5 8.4612 7.43575 8.76799 7.14574C9.2546 6.68575 9.5821 6.5 10.1976 6.5C10.8132 6.5 11.1407 6.68575 11.6273 7.14574C11.9341 7.43575 12.0474 7.5 12.3134 7.5C12.5794 7.5 12.6927 7.43575 12.9995 7.14574C13.4861 6.68575 13.8136 6.5 14.4291 6.5C15.289 6.5 16.1202 6.89283 16.9167 7.64574L16.1731 8.35426C15.5591 7.77383 14.9797 7.5 14.4291 7.5C14.1631 7.5 14.0498 7.56425 13.743 7.85426C13.2564 8.31425 12.9289 8.5 12.3134 8.5C11.6978 8.5 11.3703 8.31425 10.8837 7.85426C10.5769 7.56425 10.4637 7.5 10.1976 7.5C9.93163 7.5 9.81834 7.56425 9.51156 7.85426C9.02494 8.31425 8.69745 8.5 8.0819 8.5C7.46636 8.5 7.13886 8.31425 6.65224 7.85426C6.34546 7.56425 6.23217 7.5 5.96616 7.5C5.70015 7.5 5.58686 7.56425 5.28008 7.85426C4.79346 8.31425 4.46596 8.5 3.85042 8.5C3.23487 8.5 2.90738 8.31425 2.42076 7.85426C2.11398 7.56425 2.00069 7.5 1.73468 7.5C1.1841 7.5 0.604737 7.77383 -0.00927627 8.35426ZM-0.00927627 10.3543L-0.752849 9.64574C0.0436321 8.89283 0.874768 8.5 1.73468 8.5C2.35022 8.5 2.67772 8.68575 3.16434 9.14574C3.47112 9.43575 3.58441 9.5 3.85042 9.5C4.11643 9.5 4.22972 9.43575 4.5365 9.14574C5.02312 8.68575 5.35062 8.5 5.96616 8.5C6.58171 8.5 6.9092 8.68575 7.39582 9.14574C7.7026 9.43575 7.81589 9.5 8.0819 9.5C8.34791 9.5 8.4612 9.43575 8.76799 9.14574C9.2546 8.68575 9.5821 8.5 10.1976 8.5C10.8132 8.5 11.1407 8.68575 11.6273 9.14574C11.9341 9.43575 12.0474 9.5 12.3134 9.5C12.5794 9.5 12.6927 9.43575 12.9995 9.14574C13.4861 8.68575 13.8136 8.5 14.4291 8.5C15.289 8.5 16.1202 8.89283 16.9167 9.64574L16.1731 10.3543C15.5591 9.77383 14.9797 9.5 14.4291 9.5C14.1631 9.5 14.0498 9.56425 13.743 9.85426C13.2564 10.3143 12.9289 10.5 12.3134 10.5C11.6978 10.5 11.3703 10.3143 10.8837 9.85426C10.5769 9.56425 10.4637 9.5 10.1976 9.5C9.93163 9.5 9.81834 9.56425 9.51156 9.85426C9.02494 10.3143 8.69745 10.5 8.0819 10.5C7.46636 10.5 7.13886 10.3143 6.65224 9.85426C6.34546 9.56425 6.23217 9.5 5.96616 9.5C5.70015 9.5 5.58686 9.56425 5.28008 9.85426C4.79346 10.3143 4.46596 10.5 3.85042 10.5C3.23487 10.5 2.90738 10.3143 2.42076 9.85426C2.11398 9.56425 2.00069 9.5 1.73468 9.5C1.1841 9.5 0.604737 9.77383 -0.00927627 10.3543ZM-0.00927627 12.3543L-0.752849 11.6457C0.0436321 10.8928 0.874768 10.5 1.73468 10.5C2.35022 10.5 2.67772 10.6857 3.16434 11.1457C3.47112 11.4357 3.58441 11.5 3.85042 11.5C4.11643 11.5 4.22972 11.4357 4.5365 11.1457C5.02312 10.6857 5.35062 10.5 5.96616 10.5C6.58171 10.5 6.9092 10.6857 7.39582 11.1457C7.7026 11.4357 7.81589 11.5 8.0819 11.5C8.34791 11.5 8.4612 11.4357 8.76799 11.1457C9.2546 10.6857 9.5821 10.5 10.1976 10.5C10.8132 10.5 11.1407 10.6857 11.6273 11.1457C11.9341 11.4357 12.0474 11.5 12.3134 11.5C12.5794 11.5 12.6927 11.4357 12.9995 11.1457C13.4861 10.6857 13.8136 10.5 14.4291 10.5C15.289 10.5 16.1202 10.8928 16.9167 11.6457L16.1731 12.3543C15.5591 11.7738 14.9797 11.5 14.4291 11.5C14.1631 11.5 14.0498 11.5643 13.743 11.8543C13.2564 12.3143 12.9289 12.5 12.3134 12.5C11.6978 12.5 11.3703 12.3143 10.8837 11.8543C10.5769 11.5643 10.4637 11.5 10.1976 11.5C9.93163 11.5 9.81834 11.5643 9.51156 11.8543C9.02494 12.3143 8.69745 12.5 8.0819 12.5C7.46636 12.5 7.13886 12.3143 6.65224 11.8543C6.34546 11.5643 6.23217 11.5 5.96616 11.5C5.70015 11.5 5.58686 11.5643 5.28008 11.8543C4.79346 12.3143 4.46596 12.5 3.85042 12.5C3.23487 12.5 2.90738 12.3143 2.42076 11.8543C2.11398 11.5643 2.00069 11.5 1.73468 11.5C1.1841 11.5 0.604737 11.7738 -0.00927627 12.3543Z" fill="#2E42A5"/>
<mask id="mask2_14655_23386" style="mask-type:alpha" maskUnits="userSpaceOnUse" x="0" y="0" width="7" height="5">
<rect width="7" height="5" fill="white"/>
</mask>
<g mask="url(#mask2_14655_23386)">
<rect width="7" height="6" fill="#2E42A5"/>
<path d="M-1.07889 5.66659L0.749239 6.43867L8.19533 0.728329L9.15963 -0.419018L7.2047 -0.677073L4.16762 1.78368L1.72308 3.44165L-1.07889 5.66659Z" fill="white"/>
<path d="M-0.828618 6.20753L0.10273 6.65559L8.81335 -0.52562H7.50563L-0.828618 6.20753Z" fill="#F50100"/>
<path d="M9.07889 5.66659L7.25076 6.43867L-0.19533 0.728329L-1.15963 -0.419018L0.795296 -0.677073L3.83238 1.78368L6.27692 3.44165L9.07889 5.66659Z" fill="white"/>
<path d="M9.01651 6.05482L8.08517 6.50288L4.37609 3.42823L3.27643 3.08471L-1.25241 -0.415086H0.0553083L4.58161 3.00164L5.78389 3.41356L9.01651 6.05482Z" fill="#F50100"/>
<mask id="path-12-outside-1_14655_23386" maskUnits="userSpaceOnUse" x="-0.992256" y="-1" width="9" height="7" fill="black">
<rect fill="white" x="-0.992256" y="-1" width="9" height="7"/>
<path fill-rule="evenodd" clip-rule="evenodd" d="M4 0H3V2H0.00774384V3H3V5H4V3H7.00774V2H4V0Z"/>
</mask>
<path fill-rule="evenodd" clip-rule="evenodd" d="M4 0H3V2H0.00774384V3H3V5H4V3H7.00774V2H4V0Z" fill="#F50100"/>
<path d="M3 0V-0.5H2.5V0H3ZM4 0H4.5V-0.5H4V0ZM3 2V2.5H3.5V2H3ZM0.00774384 2V1.5H-0.492256V2H0.00774384ZM0.00774384 3H-0.492256V3.5H0.00774384V3ZM3 3H3.5V2.5H3V3ZM3 5H2.5V5.5H3V5ZM4 5V5.5H4.5V5H4ZM4 3V2.5H3.5V3H4ZM7.00774 3V3.5H7.50774V3H7.00774ZM7.00774 2H7.50774V1.5H7.00774V2ZM4 2H3.5V2.5H4V2ZM3 0.5H4V-0.5H3V0.5ZM3.5 2V0H2.5V2H3.5ZM0.00774384 2.5H3V1.5H0.00774384V2.5ZM0.507744 3V2H-0.492256V3H0.507744ZM3 2.5H0.00774384V3.5H3V2.5ZM3.5 5V3H2.5V5H3.5ZM4 4.5H3V5.5H4V4.5ZM3.5 3V5H4.5V3H3.5ZM7.00774 2.5H4V3.5H7.00774V2.5ZM6.50774 2V3H7.50774V2H6.50774ZM4 2.5H7.00774V1.5H4V2.5ZM3.5 0V2H4.5V0H3.5Z" fill="#F7FCFF" mask="url(#path-12-outside-1_14655_23386)"/>
</g>
<rect x="10.2" y="4.68932" width="0.5" height="6.31068" rx="0.25" fill="#D86D00"/>
<path d="M10.2021 1.02876C10.713 1.72937 10.7777 2.67017 10.713 3.51304L10.3141 3.48416C10.3759 2.68011 10.2021 1.02876 10.2021 1.02876Z" fill="#449A01"/>
<path d="M10.8536 3.69206L10.4856 3.53969C10.8403 2.41743 12.6098 1.46187 12.6098 1.46187C11.8172 1.84057 11.5477 2.86738 10.8536 3.69206Z" fill="#449A01"/>
<path d="M10.6882 3.92521L10.495 3.58518C11.4408 2.92754 12.969 2.78564 12.969 2.78564C12.1806 3.00935 11.3844 3.55225 10.6882 3.92521Z" fill="#449A01"/>
<path d="M10.4421 4.09063L10.6088 3.73759C12.4589 4.31191 12.7302 5.27224 12.7302 5.27224C12.4874 5.05794 11.7158 4.65734 10.4421 4.09063Z" fill="#449A01"/>
<path d="M10.2476 4.06487L10.6405 3.99182C10.7765 4.68127 11.1271 5.09902 11.3126 5.54158C11.3126 5.54158 10.2742 5.07781 10.2476 4.06487Z" fill="#449A01"/>
<path d="M10.2177 3.74155L10.6414 3.84807C9.94632 4.69774 8.91357 5.14407 8.50521 5.28998C8.50521 5.28998 9.40252 4.48066 10.2177 3.74155Z" fill="#449A01"/>
<path d="M10.4058 3.55764L10.3414 3.95243C9.51385 3.70002 8.02418 3.80577 8.02418 3.80577C8.64951 3.65768 9.51385 3.41232 10.4058 3.55764Z" fill="#449A01"/>
<path d="M10.4773 3.35563L10.3146 3.71039C9.09267 3.18206 8.43959 2.19453 8.43959 2.19453C8.48106 2.37618 9.39834 2.8891 10.4773 3.35563Z" fill="#449A01"/>
<path fill-rule="evenodd" clip-rule="evenodd" d="M10.5 4C10.7761 4 11 3.77614 11 3.5C11 3.22386 10.7761 3 10.5 3C10.2239 3 10 3.22386 10 3.5C10 3.77614 10.2239 4 10.5 4Z" fill="#449A01"/>
<path fill-rule="evenodd" clip-rule="evenodd" d="M11.956 7.65377V7.58159C11.7256 7.39962 11.4843 7.30864 11.2321 7.30864C10.9903 7.19092 10.7456 7.14522 10.4979 7.17155C10.498 7.17071 10.498 7.17028 10.498 7.17028C10.1256 7.13019 9.75033 7.30864 9.75033 7.30864C9.37205 7.30864 9.0264 7.58159 9.0264 7.58159V7.65377L9.47825 8.15311C9.47825 8.15311 9.60544 8.63373 10.4962 8.52077V8.52199C10.4962 8.52199 11.0859 8.50428 11.1274 8.48911C11.1438 8.48309 11.1608 8.47762 11.1783 8.47202C11.2938 8.43491 11.4257 8.39255 11.5041 8.15311L11.956 7.65377ZM10.4962 7.19363C10.4833 7.35988 10.4099 8.36202 10.4962 8.51739V7.19363Z" fill="#F50100"/>
<path fill-rule="evenodd" clip-rule="evenodd" d="M10.0973 6.87593C9.89246 6.87593 9.80834 6.93083 9.76027 7.09293C9.72965 7.19622 9.75935 7.28439 9.85567 7.36669L9.80071 7.44455C9.68099 7.34226 9.63569 7.21789 9.67036 7.07965C9.43844 7.0709 9.26524 7.0979 9.15164 7.15891C9.05314 7.21182 9.03513 7.34605 9.10966 7.57956L9.02512 7.61223C8.93741 7.33744 8.96246 7.15082 9.11234 7.07032C9.2444 6.99938 9.43688 6.97051 9.69072 6.98183L9.68933 7.01953C9.75435 6.84484 9.87394 6.77734 10.0973 6.77734C10.2318 6.77734 10.3409 6.81045 10.4232 6.87767V6.83426H10.6024V6.8593C10.6797 6.80953 10.7767 6.78496 10.8925 6.78496C11.1206 6.78496 11.2404 6.8553 11.3045 7.03821L11.3042 7.03113C11.5581 7.01981 11.7506 7.04868 11.8826 7.11961C12.0325 7.20011 12.0575 7.38673 11.9698 7.66153L11.8853 7.62886C11.9598 7.39535 11.9418 7.26111 11.8433 7.20821C11.7302 7.14745 11.558 7.12042 11.3276 7.12884C11.3442 7.25047 11.2967 7.36024 11.1891 7.45217L11.1342 7.3743C11.2305 7.29201 11.2602 7.20384 11.2296 7.10054C11.1815 6.93845 11.0974 6.88355 10.8925 6.88355C10.7653 6.88355 10.6693 6.91616 10.6024 6.98005V7.41324L10.6024 7.47508H10.4232V7.40562H10.3874V6.97243C10.3206 6.90854 10.2245 6.87593 10.0973 6.87593ZM9.08419 7.70257L9.05349 7.73847L9.46442 8.16386C9.47774 8.19088 9.4896 8.21585 9.49999 8.23871C9.51105 8.28761 9.52767 8.34182 9.55132 8.37495C9.55348 8.38457 9.55456 8.39255 9.55456 8.39885C9.55456 8.44967 9.67471 8.47983 9.90922 8.51081C10.0929 8.53508 10.3097 8.55137 10.4871 8.55381V8.55412L10.5096 8.55404L10.5321 8.55412V8.55381C10.7094 8.55137 10.9262 8.53508 11.1099 8.51081C11.3444 8.47983 11.4646 8.44967 11.4646 8.39885C11.4646 8.36554 11.4948 8.28535 11.5547 8.16386L11.9657 7.73847L11.935 7.70257L11.5214 8.13067L11.5171 8.13683C11.4996 8.1721 11.4846 8.20405 11.4718 8.2328C11.4838 8.17787 11.4888 8.13116 11.4888 8.13116C11.4888 8.13116 11.0264 7.98636 10.5032 7.97989V7.97967L10.4852 7.97972L10.4673 7.97967V7.97989C9.99508 7.98573 9.57235 8.10426 9.49447 8.12729L9.08419 7.70257ZM11.4232 8.36891C11.4034 8.39985 11.3782 8.41598 11.3468 8.39981C11.2489 8.34943 10.6018 8.30214 10.4852 8.29398C10.3687 8.30214 9.72154 8.34943 9.62367 8.39981L9.61885 8.40207C9.63331 8.4079 9.65312 8.41401 9.67769 8.42018C9.73532 8.43464 9.81735 8.44902 9.91456 8.46187C10.1044 8.48695 10.3301 8.50345 10.5096 8.50475C10.689 8.50345 10.9148 8.48695 11.1046 8.46187C11.2018 8.44902 11.2838 8.43464 11.3415 8.42018C11.3708 8.41282 11.3933 8.40555 11.4081 8.39872C11.4134 8.39627 11.4174 8.394 11.42 8.3921C11.4204 8.38518 11.4215 8.37745 11.4232 8.36891ZM11.4762 8.39165L11.4769 8.39078L11.4766 8.39102L11.4762 8.39165Z" fill="#FECA00"/>
<path d="M9.70183 6.94158L9.70105 6.99086C9.30381 6.98323 9.07595 7.04702 9.01811 7.17415C8.95831 7.30558 8.96943 7.46536 9.05322 7.65516L9.01292 7.6767C8.92352 7.47419 8.91131 7.29876 8.97805 7.15208C9.04674 7.0011 9.28779 6.93362 9.70183 6.94158Z" fill="white"/>
<path d="M9.77869 7.37869L9.75573 7.42101C9.66922 7.36418 9.62592 7.26718 9.62592 7.13352C9.62592 6.94141 9.71586 6.82875 9.9148 6.75166C10.0418 6.70246 10.2152 6.72263 10.4356 6.81056L10.4203 6.8569C10.2088 6.77249 10.045 6.75345 9.92968 6.79816C9.74721 6.86887 9.67072 6.96467 9.67072 7.13352C9.67072 7.25082 9.70668 7.33138 9.77869 7.37869Z" fill="white"/>
<path d="M11.2652 6.99087L11.266 7.04016C11.6632 7.03253 11.8911 7.09631 11.9489 7.22344C12.0087 7.35488 11.9976 7.51465 11.9138 7.70445L11.9541 7.72599C12.0435 7.52349 12.0557 7.34806 11.989 7.20138C11.9203 7.05039 11.6792 6.98292 11.2652 6.99087Z" fill="white"/>
<path d="M11.1249 7.38893L11.1479 7.43126C11.2344 7.37442 11.2777 7.27743 11.2777 7.14376C11.2777 6.95165 11.1878 6.839 10.9888 6.76191C10.8619 6.71271 10.6884 6.73288 10.468 6.82081L10.4833 6.86715C10.6949 6.78274 10.8586 6.7637 10.9739 6.8084C11.1564 6.87911 11.2329 6.97492 11.2329 7.14376C11.2329 7.26106 11.1969 7.34162 11.1249 7.38893Z" fill="white"/>
</g>
</g>
<rect width="16" height="12" fill="url(#paint0_linear_14655_23386)" style="mix-blend-mode:overlay"/>
</g>
<defs>
<linearGradient id="paint0_linear_14655_23386" x1="8" y1="0" x2="8" y2="12" gradientUnits="userSpaceOnUse">
<stop stop-color="white" stop-opacity="0.7"/>
<stop offset="1" stop-opacity="0.3"/>
</linearGradient>
<clipPath id="clip0_14655_23386">
<rect width="16" height="12" rx="1" fill="white"/>
</clipPath>
</defs>
</svg>
