<svg width="16" height="12" viewBox="0 0 16 12" fill="none" xmlns="http://www.w3.org/2000/svg">
<g clip-path="url(#clip0_14655_23438)">
<path fill-rule="evenodd" clip-rule="evenodd" d="M0 0V12H16V0H0Z" fill="#5196ED"/>
<mask id="mask0_14655_23438" style="mask-type:alpha" maskUnits="userSpaceOnUse" x="0" y="0" width="16" height="12">
<path fill-rule="evenodd" clip-rule="evenodd" d="M0 0V12H16V0H0Z" fill="white"/>
</mask>
<g mask="url(#mask0_14655_23438)">
<path fill-rule="evenodd" clip-rule="evenodd" d="M0 6V9H16V6H0Z" fill="#AF0100"/>
<path fill-rule="evenodd" clip-rule="evenodd" d="M0 3V6H16V3H0Z" fill="#F7FCFF"/>
<path fill-rule="evenodd" clip-rule="evenodd" d="M0 0V3H16V0H0Z" fill="#FBCD17"/>
<path fill-rule="evenodd" clip-rule="evenodd" d="M0 0L8 6L0 12V0Z" fill="#5EAA22"/>
<path fill-rule="evenodd" clip-rule="evenodd" d="M3.15231 8.7279C3.15231 8.7279 1.36063 8.06074 1.424 5.9723C1.48737 3.88386 3.31171 3.47464 3.31171 3.47464C2.67281 2.9713 0.386636 3.56113 0.313472 5.9723C0.240309 8.38347 2.47106 8.91915 3.15231 8.7279ZM3.24733 5.14271L3.31468 4.75L3.02937 4.47189L3.42367 4.41459L3.6 4.0573L3.77634 4.41459L4.17063 4.47189L3.88532 4.75L3.95267 5.14271L3.6 4.9573L3.24733 5.14271ZM3.31468 5.75L3.24733 6.14271L3.6 5.9573L3.95267 6.14271L3.88532 5.75L4.17063 5.47189L3.77634 5.41459L3.6 5.0573L3.42367 5.41459L3.02937 5.47189L3.31468 5.75ZM3.24733 7.14271L3.31468 6.75L3.02937 6.47189L3.42367 6.41459L3.6 6.0573L3.77634 6.41459L4.17063 6.47189L3.88532 6.75L3.95267 7.14271L3.6 6.9573L3.24733 7.14271ZM3.24733 8.14271L3.31468 7.75L3.02937 7.47189L3.42367 7.41459L3.6 7.0573L3.77634 7.41459L4.17063 7.47189L3.88532 7.75L3.95267 8.14271L3.6 7.9573L3.24733 8.14271Z" fill="#F7FCFF"/>
</g>
<rect width="16" height="12" fill="url(#paint0_linear_14655_23438)" style="mix-blend-mode:overlay"/>
</g>
<defs>
<linearGradient id="paint0_linear_14655_23438" x1="8" y1="0" x2="8" y2="12" gradientUnits="userSpaceOnUse">
<stop stop-color="white" stop-opacity="0.7"/>
<stop offset="1" stop-opacity="0.3"/>
</linearGradient>
<clipPath id="clip0_14655_23438">
<rect width="16" height="12" rx="1" fill="white"/>
</clipPath>
</defs>
</svg>
