<svg width="16" height="12" viewBox="0 0 16 12" fill="none" xmlns="http://www.w3.org/2000/svg">
<g clip-path="url(#clip0_14655_23401)">
<mask id="mask0_14655_23401" style="mask-type:alpha" maskUnits="userSpaceOnUse" x="0" y="0" width="16" height="12">
<rect width="16" height="12" rx="-1" fill="white"/>
</mask>
<g mask="url(#mask0_14655_23401)">
<path fill-rule="evenodd" clip-rule="evenodd" d="M0 0V12H16V0H0Z" fill="#C51918"/>
<path fill-rule="evenodd" clip-rule="evenodd" d="M0 0V12L16 0H0Z" fill="#5EAA22"/>
<path d="M0.317948 13.976L0.679632 14.3795L1.13032 14.0787L19.2608 1.97696L19.8604 1.57674L19.3792 1.03994L16.7188 -1.92788L16.3571 -2.33136L15.9064 -2.03054L-2.22404 10.0712L-2.82364 10.4714L-2.34245 11.0082L0.317948 13.976Z" fill="#272727" stroke="#FFD018" stroke-width="1.25"/>
<path fill-rule="evenodd" clip-rule="evenodd" d="M6.04431 8.45915L5.5 9.40647L5.15239 8.33932L4.07135 7.99568L4.97218 7.44537L4.86363 6.32916L5.75271 7.01271L6.67359 6.50226L6.41533 7.63926L7.15415 8.48956L6.04431 8.45915Z" fill="#F7FCFF"/>
<path fill-rule="evenodd" clip-rule="evenodd" d="M11.0443 5.18257L10.5 6.12989L10.1524 5.06274L9.07135 4.7191L9.97218 4.16879L9.86363 3.05257L10.7527 3.73613L11.6736 3.22568L11.4153 4.36268L12.1542 5.21298L11.0443 5.18257Z" fill="#F7FCFF"/>
</g>
<rect width="16" height="12" fill="url(#paint0_linear_14655_23401)" style="mix-blend-mode:overlay"/>
</g>
<defs>
<linearGradient id="paint0_linear_14655_23401" x1="8" y1="0" x2="8" y2="12" gradientUnits="userSpaceOnUse">
<stop stop-color="white" stop-opacity="0.7"/>
<stop offset="1" stop-opacity="0.3"/>
</linearGradient>
<clipPath id="clip0_14655_23401">
<rect width="16" height="12" rx="1" fill="white"/>
</clipPath>
</defs>
</svg>
