<svg width="16" height="12" viewBox="0 0 16 12" fill="none" xmlns="http://www.w3.org/2000/svg">
<g clip-path="url(#clip0_14655_23390)">
<mask id="mask0_14655_23390" style="mask-type:alpha" maskUnits="userSpaceOnUse" x="0" y="0" width="16" height="12">
<rect width="16" height="12" fill="white"/>
</mask>
<g mask="url(#mask0_14655_23390)">
</g>
<g clip-path="url(#clip1_14655_23390)">
<path fill-rule="evenodd" clip-rule="evenodd" d="M0 0H16V12H0V0Z" fill="#2E42A5"/>
<g clip-path="url(#clip2_14655_23390)">
<path d="M11.2873 6.23137H11.1623V6.35637V7.84516C11.1623 8.83089 11.5753 9.48965 11.9974 9.90026C12.2076 10.1047 12.4197 10.2474 12.5835 10.3392C12.6655 10.3852 12.736 10.4188 12.789 10.4412C12.8153 10.4524 12.8381 10.4611 12.8564 10.4673C12.8654 10.4704 12.8743 10.4732 12.8827 10.4754L12.8833 10.4755C12.888 10.4768 12.9051 10.4814 12.9243 10.4814C12.9439 10.4814 12.9611 10.4767 12.9662 10.4753L12.9667 10.4752C12.9753 10.4728 12.9843 10.4699 12.9932 10.4667C13.0112 10.4603 13.0332 10.4514 13.0583 10.4401C13.1087 10.4174 13.1752 10.3835 13.252 10.3373C13.4057 10.245 13.6035 10.1018 13.7991 9.89697C14.192 9.48546 14.5731 8.82764 14.5731 7.84516V7.84309V7.84102V7.83894V7.83686V7.83476V7.83266V7.83054V7.82843V7.8263V7.82416V7.82202V7.81987V7.81771V7.81554V7.81336V7.81118V7.80899V7.80679V7.80458V7.80237V7.80015V7.79792V7.79568V7.79343V7.79118V7.78892V7.78665V7.78438V7.7821V7.77981V7.77751V7.77521V7.77289V7.77058V7.76825V7.76592V7.76357V7.76123V7.75887V7.75651V7.75414V7.75176V7.74938V7.74699V7.74459V7.74219V7.73978V7.73736V7.73493V7.7325V7.73006V7.72762V7.72516V7.72271V7.72024V7.71777V7.71529V7.7128V7.71031V7.70781V7.70531V7.7028V7.70028V7.69775V7.69522V7.69268V7.69014V7.68759V7.68503V7.68247V7.6799V7.67733V7.67475V7.67216V7.66957V7.66697V7.66436V7.66175V7.65913V7.65651V7.65388V7.65124V7.6486V7.64595V7.6433V7.64064V7.63798V7.63531V7.63263V7.62995V7.62726V7.62457V7.62187V7.61917V7.61646V7.61374V7.61102V7.6083V7.60557V7.60283V7.60009V7.59734V7.59459V7.59183V7.58906V7.5863V7.58352V7.58074V7.57796V7.57517V7.57238V7.56958V7.56677V7.56396V7.56115V7.55833V7.55551V7.55268V7.54984V7.54701V7.54416V7.54131V7.53846V7.5356V7.53274V7.52987V7.527V7.52413V7.52125V7.51836V7.51547V7.51258V7.50968V7.50678V7.50387V7.50096V7.49804V7.49512V7.4922V7.48927V7.48634V7.4834V7.48046V7.47751V7.47456V7.47161V7.46865V7.46569V7.46273V7.45976V7.45678V7.45381V7.45082V7.44784V7.44485V7.44186V7.43886V7.43586V7.43286V7.42985V7.42684V7.42383V7.42081V7.41779V7.41476V7.41173V7.4087V7.40567V7.40263V7.39959V7.39654V7.39349V7.39044V7.38738V7.38432V7.38126V7.3782V7.37513V7.37206V7.36898V7.36591V7.36283V7.35974V7.35666V7.35357V7.35048V7.34738V7.34428V7.34118V7.33808V7.33497V7.33186V7.32875V7.32564V7.32252V7.3194V7.31628V7.31316V7.31003V7.3069V7.30377V7.30063V7.2975V7.29436V7.29121V7.28807V7.28492V7.28178V7.27863V7.27547V7.27232V7.26916V7.266V7.26284V7.25967V7.25651V7.25334V7.25017V7.247V7.24383V7.24065V7.23747V7.2343V7.23111V7.22793V7.22475V7.22156V7.21837V7.21518V7.21199V7.2088V7.20561V7.20241V7.19921V7.19601V7.19281V7.18961V7.18641V7.1832V7.18V7.17679V7.17358V7.17037V7.16716V7.16395V7.16074V7.15752V7.15431V7.15109V7.14787V7.14465V7.14144V7.13821V7.13499V7.13177V7.12855V7.12532V7.1221V7.11887V7.11565V7.11242V7.10919V7.10596V7.10273V7.0995V7.09627V7.09304V7.08981V7.08658V7.08335V7.08011V7.07688V7.07365V7.07041V7.06718V7.06394V7.06071V7.05747V7.05424V7.051V7.04777V7.04453V7.04129V7.03806V7.03482V7.03158V7.02835V7.02511V7.02188V7.01864V7.01541V7.01217V7.00893V7.0057V7.00246V6.99923V6.996V6.99276V6.98953V6.98629V6.98306V6.97983V6.9766V6.97337V6.97014V6.9669V6.96368V6.96045V6.95722V6.95399V6.95076V6.94754V6.94431V6.94109V6.93786V6.93464V6.93142V6.9282V6.92498V6.92176V6.91854V6.91532V6.91211V6.90889V6.90568V6.90246V6.89925V6.89604V6.89283V6.88963V6.88642V6.88321V6.88001V6.87681V6.87361V6.87041V6.86721V6.86401V6.86082V6.85762V6.85443V6.85124V6.84805V6.84486V6.84168V6.83849V6.83531V6.83213V6.82895V6.82578V6.8226V6.81943V6.81626V6.81309V6.80992V6.80676V6.8036V6.80043V6.79728V6.79412V6.79097V6.78781V6.78466V6.78152V6.77837V6.77523V6.77209V6.76895V6.76581V6.76268V6.75955V6.75642V6.75329V6.75017V6.74705V6.74393V6.74081V6.7377V6.73459V6.73148V6.72838V6.72527V6.72217V6.71908V6.71598V6.71289V6.7098V6.70672V6.70364V6.70056V6.69748V6.69441V6.69134V6.68827V6.68521V6.68215V6.67909V6.67604V6.67299V6.66994V6.66689V6.66385V6.66082V6.65778V6.65475V6.65172V6.6487V6.64568V6.64266V6.63965V6.63664V6.63363V6.63063V6.62763V6.62464V6.62165V6.61866V6.61568V6.6127V6.60972V6.60675V6.60378V6.60082V6.59786V6.5949V6.59195V6.589V6.58606V6.58312V6.58018V6.57725V6.57433V6.5714V6.56848V6.56557V6.56266V6.55975V6.55685V6.55396V6.55106V6.54818V6.54529V6.54241V6.53954V6.53667V6.5338V6.53094V6.52809V6.52524V6.52239V6.51955V6.51671V6.51388V6.51105V6.50823V6.50541V6.5026V6.4998V6.49699V6.4942V6.4914V6.48862V6.48583V6.48306V6.48029V6.47752V6.47476V6.472V6.46925V6.46651V6.46376V6.46103V6.4583V6.45558V6.45286V6.45015V6.44744V6.44474V6.44204V6.43935V6.43666V6.43398V6.43131V6.42864V6.42598V6.42332V6.42067V6.41803V6.41539V6.41276V6.41013V6.40751V6.40489V6.40228V6.39968V6.39708V6.39449V6.39191V6.38933V6.38675V6.38419V6.38163V6.37907V6.37653V6.37398V6.37145V6.36892V6.3664V6.36388V6.36137V6.35887V6.35637V6.23137H14.4481H11.2873Z" fill="white" stroke="#F7FCFF" stroke-width="0.25"/>
<mask id="mask1_14655_23390" style="mask-type:alpha" maskUnits="userSpaceOnUse" x="11" y="6" width="4" height="5">
<path d="M11.2873 6.23137H11.1623V6.35637V7.84516C11.1623 8.83089 11.5753 9.48965 11.9974 9.90026C12.2076 10.1047 12.4197 10.2474 12.5835 10.3392C12.6655 10.3852 12.736 10.4188 12.789 10.4412C12.8153 10.4524 12.8381 10.4611 12.8564 10.4673C12.8654 10.4704 12.8743 10.4732 12.8827 10.4754L12.8833 10.4755C12.888 10.4768 12.9051 10.4814 12.9243 10.4814C12.9439 10.4814 12.9611 10.4767 12.9662 10.4753L12.9667 10.4752C12.9753 10.4728 12.9843 10.4699 12.9932 10.4667C13.0112 10.4603 13.0332 10.4514 13.0583 10.4401C13.1087 10.4174 13.1752 10.3835 13.252 10.3373C13.4057 10.245 13.6035 10.1018 13.7991 9.89697C14.192 9.48546 14.5731 8.82764 14.5731 7.84516V7.84309V7.84102V7.83894V7.83686V7.83476V7.83266V7.83054V7.82843V7.8263V7.82416V7.82202V7.81987V7.81771V7.81554V7.81336V7.81118V7.80899V7.80679V7.80458V7.80237V7.80015V7.79792V7.79568V7.79343V7.79118V7.78892V7.78665V7.78438V7.7821V7.77981V7.77751V7.77521V7.77289V7.77058V7.76825V7.76592V7.76357V7.76123V7.75887V7.75651V7.75414V7.75176V7.74938V7.74699V7.74459V7.74219V7.73978V7.73736V7.73493V7.7325V7.73006V7.72762V7.72516V7.72271V7.72024V7.71777V7.71529V7.7128V7.71031V7.70781V7.70531V7.7028V7.70028V7.69775V7.69522V7.69268V7.69014V7.68759V7.68503V7.68247V7.6799V7.67733V7.67475V7.67216V7.66957V7.66697V7.66436V7.66175V7.65913V7.65651V7.65388V7.65124V7.6486V7.64595V7.6433V7.64064V7.63798V7.63531V7.63263V7.62995V7.62726V7.62457V7.62187V7.61917V7.61646V7.61374V7.61102V7.6083V7.60557V7.60283V7.60009V7.59734V7.59459V7.59183V7.58906V7.5863V7.58352V7.58074V7.57796V7.57517V7.57238V7.56958V7.56677V7.56396V7.56115V7.55833V7.55551V7.55268V7.54984V7.54701V7.54416V7.54131V7.53846V7.5356V7.53274V7.52987V7.527V7.52413V7.52125V7.51836V7.51547V7.51258V7.50968V7.50678V7.50387V7.50096V7.49804V7.49512V7.4922V7.48927V7.48634V7.4834V7.48046V7.47751V7.47456V7.47161V7.46865V7.46569V7.46273V7.45976V7.45678V7.45381V7.45082V7.44784V7.44485V7.44186V7.43886V7.43586V7.43286V7.42985V7.42684V7.42383V7.42081V7.41779V7.41476V7.41173V7.4087V7.40567V7.40263V7.39959V7.39654V7.39349V7.39044V7.38738V7.38432V7.38126V7.3782V7.37513V7.37206V7.36898V7.36591V7.36283V7.35974V7.35666V7.35357V7.35048V7.34738V7.34428V7.34118V7.33808V7.33497V7.33186V7.32875V7.32564V7.32252V7.3194V7.31628V7.31316V7.31003V7.3069V7.30377V7.30063V7.2975V7.29436V7.29121V7.28807V7.28492V7.28178V7.27863V7.27547V7.27232V7.26916V7.266V7.26284V7.25967V7.25651V7.25334V7.25017V7.247V7.24383V7.24065V7.23747V7.2343V7.23111V7.22793V7.22475V7.22156V7.21837V7.21518V7.21199V7.2088V7.20561V7.20241V7.19921V7.19601V7.19281V7.18961V7.18641V7.1832V7.18V7.17679V7.17358V7.17037V7.16716V7.16395V7.16074V7.15752V7.15431V7.15109V7.14787V7.14465V7.14144V7.13821V7.13499V7.13177V7.12855V7.12532V7.1221V7.11887V7.11565V7.11242V7.10919V7.10596V7.10273V7.0995V7.09627V7.09304V7.08981V7.08658V7.08335V7.08011V7.07688V7.07365V7.07041V7.06718V7.06394V7.06071V7.05747V7.05424V7.051V7.04777V7.04453V7.04129V7.03806V7.03482V7.03158V7.02835V7.02511V7.02188V7.01864V7.01541V7.01217V7.00893V7.0057V7.00246V6.99923V6.996V6.99276V6.98953V6.98629V6.98306V6.97983V6.9766V6.97337V6.97014V6.9669V6.96368V6.96045V6.95722V6.95399V6.95076V6.94754V6.94431V6.94109V6.93786V6.93464V6.93142V6.9282V6.92498V6.92176V6.91854V6.91532V6.91211V6.90889V6.90568V6.90246V6.89925V6.89604V6.89283V6.88963V6.88642V6.88321V6.88001V6.87681V6.87361V6.87041V6.86721V6.86401V6.86082V6.85762V6.85443V6.85124V6.84805V6.84486V6.84168V6.83849V6.83531V6.83213V6.82895V6.82578V6.8226V6.81943V6.81626V6.81309V6.80992V6.80676V6.8036V6.80043V6.79728V6.79412V6.79097V6.78781V6.78466V6.78152V6.77837V6.77523V6.77209V6.76895V6.76581V6.76268V6.75955V6.75642V6.75329V6.75017V6.74705V6.74393V6.74081V6.7377V6.73459V6.73148V6.72838V6.72527V6.72217V6.71908V6.71598V6.71289V6.7098V6.70672V6.70364V6.70056V6.69748V6.69441V6.69134V6.68827V6.68521V6.68215V6.67909V6.67604V6.67299V6.66994V6.66689V6.66385V6.66082V6.65778V6.65475V6.65172V6.6487V6.64568V6.64266V6.63965V6.63664V6.63363V6.63063V6.62763V6.62464V6.62165V6.61866V6.61568V6.6127V6.60972V6.60675V6.60378V6.60082V6.59786V6.5949V6.59195V6.589V6.58606V6.58312V6.58018V6.57725V6.57433V6.5714V6.56848V6.56557V6.56266V6.55975V6.55685V6.55396V6.55106V6.54818V6.54529V6.54241V6.53954V6.53667V6.5338V6.53094V6.52809V6.52524V6.52239V6.51955V6.51671V6.51388V6.51105V6.50823V6.50541V6.5026V6.4998V6.49699V6.4942V6.4914V6.48862V6.48583V6.48306V6.48029V6.47752V6.47476V6.472V6.46925V6.46651V6.46376V6.46103V6.4583V6.45558V6.45286V6.45015V6.44744V6.44474V6.44204V6.43935V6.43666V6.43398V6.43131V6.42864V6.42598V6.42332V6.42067V6.41803V6.41539V6.41276V6.41013V6.40751V6.40489V6.40228V6.39968V6.39708V6.39449V6.39191V6.38933V6.38675V6.38419V6.38163V6.37907V6.37653V6.37398V6.37145V6.36892V6.3664V6.36388V6.36137V6.35887V6.35637V6.23137H14.4481H11.2873Z" fill="white" stroke="white" stroke-width="0.25"/>
</mask>
<g mask="url(#mask1_14655_23390)">
<rect x="11.0843" y="6.10637" width="3.6" height="1.7" fill="#F50100"/>
<path d="M12.6891 8.15637C12.8043 8.15637 13.0347 7.99965 13.0923 7.96348C13.3035 7.80675 13.4571 7.95142 13.5819 8.02376C13.7163 8.09609 13.9659 8.18049 14.1195 8.02376C14.2731 7.86703 14.3595 7.87908 14.4651 7.87908C14.4843 7.69824 14.4843 7.5174 14.4843 7.31245V7.16777C14.3499 7.13161 14.2827 7.17983 14.1387 7.33656C13.9947 7.49329 13.8315 7.45712 13.6203 7.36067C13.4187 7.25217 13.2171 7.05927 13.0155 7.36067C12.9579 7.44506 12.8235 7.56562 12.6891 7.56562C12.5451 7.56562 12.4203 7.44506 12.3627 7.36067C12.1515 7.05927 11.9595 7.25217 11.7579 7.36067C11.5467 7.45712 11.3739 7.49329 11.2299 7.33656C11.0955 7.17983 11.0283 7.13161 10.8843 7.16777V7.31245C10.8843 7.5174 10.8939 7.69824 10.9131 7.87908C11.0187 7.87908 11.0955 7.86703 11.2491 8.02376C11.4027 8.18049 11.6619 8.09609 11.7867 8.02376C11.9211 7.95142 12.0747 7.80675 12.2859 7.96348C12.3435 7.99965 12.5643 8.15637 12.6891 8.15637H12.6891Z" fill="#F50100"/>
<path fill-rule="evenodd" clip-rule="evenodd" d="M11.7178 6.88081C11.7178 6.88081 11.8045 6.88583 11.9073 7.01841C12.01 7.15099 12.3881 7.06661 12.3881 6.98663C12.3881 6.90666 12.1587 6.85888 12.2468 6.72213C12.335 6.58538 12.4843 6.58514 12.6043 6.65637C12.6387 6.65637 12.6349 7.12416 12.7134 7.09848C12.9622 7.01716 13.3634 6.85602 13.4811 6.92515C13.6359 7.01611 13.7544 6.99349 13.7151 6.86298C13.6757 6.73246 13.5745 6.65089 13.3797 6.72213C13.185 6.79337 13.2309 6.86298 13.0626 6.86298C12.8942 6.86298 12.6054 6.97683 12.7336 6.72213C12.8486 6.4939 12.9857 6.48944 13.038 6.58538C13.0648 6.63447 12.8464 6.74286 12.8464 6.79337C12.8464 6.86298 13.409 6.65648 13.4811 6.65648C13.5532 6.65648 13.7516 6.65089 13.7713 6.72213C13.791 6.79337 13.9108 6.85874 13.8195 6.92515C13.7281 6.99156 13.5775 7.03316 13.6811 7.11825C13.7848 7.20334 14.0473 7.24204 14.0588 7.33054C14.0703 7.41905 14.1832 7.55122 14.1379 7.55122C14.0926 7.55122 14.0107 7.67587 13.9344 7.63792C13.8581 7.59996 13.8491 7.56664 13.9223 7.53589C13.9954 7.50514 13.9947 7.37584 13.9344 7.37584C13.8741 7.37584 13.8792 7.36605 13.7419 7.32075C13.6045 7.27545 13.4227 7.22509 13.4337 7.32075C13.4446 7.41641 13.5376 7.62173 13.3726 7.6413C13.2076 7.66087 13.1304 7.73944 13.0983 7.67617C13.0661 7.61289 12.9514 7.52858 13.0416 7.50155C13.1319 7.47451 13.2181 7.59344 13.2506 7.57402C13.2831 7.55461 13.3533 7.48532 13.2915 7.40303C13.2298 7.32075 13.11 7.31796 13.2043 7.25637C13.2986 7.19479 13.2423 7.14787 13.0626 7.27545C12.8828 7.40303 12.7829 7.51146 12.6251 7.49613C12.4673 7.4808 12.3965 7.55095 12.3458 7.53027C12.2951 7.50959 12.0481 7.75878 11.9769 7.69554C11.9058 7.6323 11.6762 7.60803 11.7175 7.53027C11.7589 7.45251 11.8144 7.41247 11.8762 7.45251C11.938 7.49254 11.9994 7.53258 12.0411 7.49254C12.0828 7.45251 12.2148 7.26565 12.1846 7.23819C12.1543 7.21072 12.0476 7.16369 11.8762 7.16369C11.7047 7.16369 11.7008 7.02131 11.6601 6.95637C11.6194 6.89144 11.7178 6.88081 11.7178 6.88081Z" fill="#FFD100"/>
<path d="M12.6891 9.35637C12.8043 9.35637 13.0347 9.19965 13.0923 9.16348C13.3035 9.00675 13.4571 9.15142 13.5819 9.22376C13.7163 9.29609 13.9659 9.38049 14.1195 9.22376C14.2731 9.06703 14.3595 9.07908 14.4651 9.07908C14.4843 8.89824 14.4843 8.7174 14.4843 8.51245V8.36777C14.3499 8.3316 14.2827 8.37983 14.1387 8.53656C13.9947 8.69329 13.8315 8.65712 13.6203 8.56067C13.4187 8.45217 13.2171 8.25927 13.0155 8.56067C12.9579 8.64506 12.8235 8.76562 12.6891 8.76562C12.5451 8.76562 12.4203 8.64506 12.3627 8.56067C12.1515 8.25927 11.9595 8.45217 11.7579 8.56067C11.5467 8.65712 11.3739 8.69329 11.2299 8.53656C11.0955 8.37983 11.0283 8.3316 10.8843 8.36777V8.51245C10.8843 8.7174 10.8939 8.89824 10.9131 9.07908C11.0187 9.07908 11.0955 9.06703 11.2491 9.22376C11.4027 9.38049 11.6619 9.29609 11.7867 9.22376C11.9211 9.15142 12.0747 9.00675 12.2859 9.16348C12.3435 9.19965 12.5643 9.35637 12.6891 9.35637H12.6891Z" fill="#0B50A0"/>
<path d="M12.6891 10.5064C12.8043 10.5064 13.0347 10.3496 13.0923 10.3135C13.3035 10.1567 13.4571 10.3014 13.5819 10.3738C13.7163 10.4461 13.9659 10.5305 14.1195 10.3738C14.2731 10.217 14.3595 10.2291 14.4651 10.2291C14.4843 10.0482 14.4843 9.8674 14.4843 9.66245V9.51777C14.3499 9.4816 14.2827 9.52983 14.1387 9.68656C13.9947 9.84329 13.8315 9.80712 13.6203 9.71067C13.4187 9.60217 13.2171 9.40927 13.0155 9.71067C12.9579 9.79506 12.8235 9.91562 12.6891 9.91562C12.5451 9.91562 12.4203 9.79506 12.3627 9.71067C12.1515 9.40927 11.9595 9.60217 11.7579 9.71067C11.5467 9.80712 11.3739 9.84329 11.2299 9.68656C11.0955 9.52983 11.0283 9.4816 10.8843 9.51777V9.66245C10.8843 9.8674 10.8939 10.0482 10.9131 10.2291C11.0187 10.2291 11.0955 10.217 11.2491 10.3738C11.4027 10.5305 11.6619 10.4461 11.7867 10.3738C11.9211 10.3014 12.0747 10.1567 12.2859 10.3135C12.3435 10.3496 12.5643 10.5064 12.6891 10.5064H12.6891Z" fill="#0B50A0"/>
<mask id="path-11-inside-1_14655_23390" fill="white">
<path fill-rule="evenodd" clip-rule="evenodd" d="M12.9008 10.1488L12.6147 10.3184L12.6964 9.97375L12.4223 9.7205H12.7803L12.9003 9.39437L13.0411 9.7205H13.3463L13.1065 9.97375L13.2218 10.3184L12.9008 10.1488Z"/>
</mask>
<path fill-rule="evenodd" clip-rule="evenodd" d="M12.9008 10.1488L12.6147 10.3184L12.6964 9.97375L12.4223 9.7205H12.7803L12.9003 9.39437L13.0411 9.7205H13.3463L13.1065 9.97375L13.2218 10.3184L12.9008 10.1488Z" fill="#059334"/>
<path d="M12.9008 10.1488L13.1576 9.66248L12.8853 9.51863L12.6204 9.67566L12.9008 10.1488ZM12.6147 10.3184L12.0795 10.1915L11.7806 11.452L12.8951 10.7915L12.6147 10.3184ZM12.6964 9.97375L13.2315 10.1006L13.3057 9.78791L13.0696 9.56979L12.6964 9.97375ZM12.4223 9.7205V9.1705H11.0166L12.049 10.1245L12.4223 9.7205ZM12.7803 9.7205V10.2705H13.1639L13.2964 9.91052L12.7803 9.7205ZM12.9003 9.39437L13.4053 9.17639L12.8598 7.91265L12.3842 9.20436L12.9003 9.39437ZM13.0411 9.7205L12.5362 9.93849L12.6795 10.2705H13.0411V9.7205ZM13.3463 9.7205L13.7457 10.0986L14.6245 9.1705H13.3463V9.7205ZM13.1065 9.97375L12.7071 9.5956L12.4802 9.83526L12.5849 10.1482L13.1065 9.97375ZM13.2218 10.3184L12.9649 10.8047L14.179 11.446L13.7434 10.1439L13.2218 10.3184ZM12.6204 9.67566L12.3342 9.84523L12.8951 10.7915L13.1812 10.622L12.6204 9.67566ZM13.1498 10.4453L13.2315 10.1006L12.1612 9.84685L12.0795 10.1915L13.1498 10.4453ZM13.0696 9.56979L12.7956 9.31654L12.049 10.1245L12.3231 10.3777L13.0696 9.56979ZM12.4223 10.2705H12.7803V9.1705H12.4223V10.2705ZM13.2964 9.91052L13.4165 9.58439L12.3842 9.20436L12.2641 9.53048L13.2964 9.91052ZM12.3954 9.61236L12.5362 9.93849L13.5461 9.50251L13.4053 9.17639L12.3954 9.61236ZM13.0411 10.2705H13.3463V9.1705H13.0411V10.2705ZM12.9469 9.34236L12.7071 9.5956L13.5059 10.3519L13.7457 10.0986L12.9469 9.34236ZM12.5849 10.1482L12.7002 10.4929L13.7434 10.1439L13.6281 9.79926L12.5849 10.1482ZM13.4787 9.83205L13.1576 9.66248L12.6439 10.6351L12.9649 10.8047L13.4787 9.83205Z" fill="#FFD100" mask="url(#path-11-inside-1_14655_23390)"/>
<mask id="path-13-inside-2_14655_23390" fill="white">
<path fill-rule="evenodd" clip-rule="evenodd" d="M12.1008 9.14881L11.8147 9.31837L11.8964 8.97375L11.6223 8.7205H11.9803L12.1003 8.39437L12.2411 8.7205H12.5463L12.3065 8.97375L12.4218 9.31837L12.1008 9.14881Z"/>
</mask>
<path fill-rule="evenodd" clip-rule="evenodd" d="M12.1008 9.14881L11.8147 9.31837L11.8964 8.97375L11.6223 8.7205H11.9803L12.1003 8.39437L12.2411 8.7205H12.5463L12.3065 8.97375L12.4218 9.31837L12.1008 9.14881Z" fill="#059334"/>
<path d="M12.1008 9.14881L12.3576 8.66248L12.0853 8.51863L11.8204 8.67566L12.1008 9.14881ZM11.8147 9.31837L11.2795 9.19148L10.9806 10.452L12.0951 9.79152L11.8147 9.31837ZM11.8964 8.97375L12.4315 9.10064L12.5057 8.78791L12.2696 8.56979L11.8964 8.97375ZM11.6223 8.7205V8.1705H10.2166L11.249 9.12446L11.6223 8.7205ZM11.9803 8.7205V9.2705H12.3639L12.4964 8.91052L11.9803 8.7205ZM12.1003 8.39437L12.6053 8.17639L12.0598 6.91265L11.5842 8.20436L12.1003 8.39437ZM12.2411 8.7205L11.7362 8.93849L11.8795 9.2705H12.2411V8.7205ZM12.5463 8.7205L12.9457 9.09864L13.8245 8.1705H12.5463V8.7205ZM12.3065 8.97375L11.9071 8.5956L11.6802 8.83526L11.7849 9.14824L12.3065 8.97375ZM12.4218 9.31837L12.1649 9.8047L13.379 10.446L12.9434 9.14388L12.4218 9.31837ZM11.8204 8.67566L11.5342 8.84523L12.0951 9.79152L12.3812 9.62195L11.8204 8.67566ZM12.3498 9.44527L12.4315 9.10064L11.3612 8.84685L11.2795 9.19148L12.3498 9.44527ZM12.2696 8.56979L11.9956 8.31654L11.249 9.12446L11.5231 9.3777L12.2696 8.56979ZM11.6223 9.2705H11.9803V8.1705H11.6223V9.2705ZM12.4964 8.91052L12.6165 8.58439L11.5842 8.20436L11.4641 8.53048L12.4964 8.91052ZM11.5954 8.61236L11.7362 8.93849L12.7461 8.50251L12.6053 8.17639L11.5954 8.61236ZM12.2411 9.2705H12.5463V8.1705H12.2411V9.2705ZM12.1469 8.34236L11.9071 8.5956L12.7059 9.35189L12.9457 9.09864L12.1469 8.34236ZM11.7849 9.14824L11.9002 9.49287L12.9434 9.14388L12.8281 8.79926L11.7849 9.14824ZM12.6787 8.83205L12.3576 8.66248L11.8439 9.63514L12.1649 9.8047L12.6787 8.83205Z" fill="#FFD100" mask="url(#path-13-inside-2_14655_23390)"/>
<mask id="path-15-inside-3_14655_23390" fill="white">
<path fill-rule="evenodd" clip-rule="evenodd" d="M13.7008 9.14881L13.4147 9.31837L13.4964 8.97375L13.2223 8.7205H13.5803L13.7003 8.39437L13.8411 8.7205H14.1463L13.9065 8.97375L14.0218 9.31837L13.7008 9.14881Z"/>
</mask>
<path fill-rule="evenodd" clip-rule="evenodd" d="M13.7008 9.14881L13.4147 9.31837L13.4964 8.97375L13.2223 8.7205H13.5803L13.7003 8.39437L13.8411 8.7205H14.1463L13.9065 8.97375L14.0218 9.31837L13.7008 9.14881Z" fill="#059334"/>
<path d="M13.7008 9.14881L13.9576 8.66248L13.6853 8.51863L13.4204 8.67566L13.7008 9.14881ZM13.4147 9.31837L12.8795 9.19148L12.5806 10.452L13.6951 9.79152L13.4147 9.31837ZM13.4964 8.97375L14.0315 9.10064L14.1057 8.78791L13.8696 8.56979L13.4964 8.97375ZM13.2223 8.7205V8.1705H11.8166L12.849 9.12446L13.2223 8.7205ZM13.5803 8.7205V9.2705H13.9639L14.0964 8.91052L13.5803 8.7205ZM13.7003 8.39437L14.2053 8.17639L13.6598 6.91265L13.1842 8.20436L13.7003 8.39437ZM13.8411 8.7205L13.3362 8.93849L13.4795 9.2705H13.8411V8.7205ZM14.1463 8.7205L14.5457 9.09864L15.4245 8.1705H14.1463V8.7205ZM13.9065 8.97375L13.5071 8.5956L13.2802 8.83526L13.3849 9.14824L13.9065 8.97375ZM14.0218 9.31837L13.7649 9.8047L14.979 10.446L14.5434 9.14388L14.0218 9.31837ZM13.4204 8.67566L13.1342 8.84523L13.6951 9.79152L13.9812 9.62195L13.4204 8.67566ZM13.9498 9.44527L14.0315 9.10064L12.9612 8.84685L12.8795 9.19148L13.9498 9.44527ZM13.8696 8.56979L13.5955 8.31654L12.849 9.12446L13.1231 9.3777L13.8696 8.56979ZM13.2223 9.2705H13.5803V8.1705H13.2223V9.2705ZM14.0964 8.91052L14.2165 8.58439L13.1842 8.20436L13.0641 8.53048L14.0964 8.91052ZM13.1954 8.61236L13.3362 8.93849L14.3461 8.50251L14.2053 8.17639L13.1954 8.61236ZM13.8411 9.2705H14.1463V8.1705H13.8411V9.2705ZM13.7469 8.34236L13.5071 8.5956L14.3059 9.35189L14.5457 9.09864L13.7469 8.34236ZM13.3849 9.14824L13.5002 9.49287L14.5434 9.14388L14.4281 8.79926L13.3849 9.14824ZM14.2787 8.83205L13.9576 8.66248L13.4439 9.63514L13.7649 9.8047L14.2787 8.83205Z" fill="#FFD100" mask="url(#path-15-inside-3_14655_23390)"/>
</g>
</g>
<path d="M10.5238 10.3896C10.5698 10.5207 10.8989 10.6927 11.2817 10.4715C11.542 10.3159 11.7104 10.0947 11.8712 9.70145C11.9171 9.60314 11.9401 9.48026 11.8329 9.40653C11.7487 9.341 11.6109 9.26727 11.5497 9.20173C11.519 9.16896 11.4884 9.14439 11.4655 9.11981C11.4808 9.1362 11.4961 9.15258 11.5114 9.17716C11.6645 9.37376 11.5037 9.66049 11.3353 9.83252C11.2128 9.9554 10.9908 10.2585 10.6693 9.97178C10.6004 9.90625 10.4396 10.1766 10.5238 10.3896L10.5238 10.3896Z" fill="#FFD100"/>
<path d="M15.1783 10.3896C15.1248 10.5207 14.7956 10.6927 14.4205 10.4715C14.1602 10.3159 13.9917 10.0947 13.8233 9.70145C13.785 9.60314 13.7621 9.48026 13.8693 9.40653C13.9535 9.341 14.0913 9.26727 14.1525 9.20173C14.1831 9.16896 14.2061 9.14439 14.2367 9.11981C14.2214 9.1362 14.2061 9.15258 14.1908 9.17716C14.0377 9.37376 14.1984 9.66049 14.3592 9.83252C14.4817 9.9554 14.7114 10.2585 15.0329 9.97178C15.1018 9.90625 15.2549 10.1766 15.1783 10.3896L15.1783 10.3896Z" fill="#FFD100"/>
<path d="M12.8511 11.0941C13.4636 11.0941 14.4052 10.7992 14.9104 9.767C14.9946 9.59496 14.9104 9.50485 14.8109 9.44751C14.7037 9.39835 14.5736 9.28367 14.5047 9.20994C14.6272 9.34101 14.6042 9.43112 14.52 9.57858C14.1296 10.2749 13.5937 10.6272 12.8511 10.6272C12.1085 10.6272 11.5726 10.2749 11.1822 9.57858C11.098 9.43112 11.075 9.34101 11.1899 9.20994C11.1286 9.28367 10.9908 9.39835 10.8836 9.44751C10.7841 9.50485 10.6999 9.59496 10.7841 9.767C11.2894 10.7992 12.2387 11.0941 12.8511 11.0941H12.8511Z" fill="#FFD100"/>
<path d="M11.4348 9.70965C11.4195 9.62773 11.32 9.6605 11.2894 9.7588C11.2511 9.70146 11.2128 9.64411 11.1822 9.57858C11.0903 9.43112 11.075 9.33281 11.2052 9.19355C11.2664 9.12801 11.3889 9.05428 11.4731 9.1362C11.6492 9.29185 11.5573 9.54581 11.4348 9.70965L11.4348 9.70965Z" fill="#F50100"/>
<path d="M14.2597 9.70965C14.275 9.62773 14.3822 9.6605 14.4128 9.7588C14.4511 9.70146 14.4894 9.64411 14.52 9.57858C14.6119 9.43112 14.6272 9.33281 14.4894 9.19355C14.4358 9.12801 14.3133 9.05428 14.2214 9.1362C14.053 9.29185 14.1372 9.54581 14.2597 9.70965L14.2597 9.70965Z" fill="#F50100"/>
<path fill-rule="evenodd" clip-rule="evenodd" d="M12.4916 4.27203C12.265 3.94589 11.979 3.72033 11.8101 3.58718C11.7227 3.5182 11.6667 3.47403 11.6667 3.45353C11.6667 3.39593 12.122 3.5499 12.5871 3.94207C12.5974 3.91863 12.6082 3.89608 12.6195 3.87449C12.483 3.6007 12.2481 3.35821 12.1145 3.22032L12.1145 3.22031C12.0511 3.15493 12.0106 3.11305 12.0141 3.10251C12.0242 3.07216 12.4071 3.31962 12.746 3.69566C12.7789 3.66216 12.8139 3.63498 12.8505 3.61496L12.6267 3.24183H13.4267L13.1882 3.63923C13.2403 3.67603 13.2884 3.72765 13.3312 3.79133C13.6872 3.36236 14.135 3.06965 14.1459 3.10251L13.8757 3.71626C13.7483 3.7998 13.6118 3.90288 13.4771 4.02617L13.4533 4.04815L13.4613 4.07298C13.4628 4.07103 13.4639 4.06895 13.4646 4.06671C13.4684 4.05316 13.4726 4.03964 13.4771 4.02617L13.5317 4.49729C13.5327 4.52139 13.5333 4.54573 13.5333 4.57028C13.7625 4.31538 14.0057 4.21416 14.0057 4.24823C14.0057 4.25945 13.9801 4.28362 13.9401 4.32137C13.8365 4.41922 13.6363 4.60829 13.5349 4.89939C13.5308 4.91114 13.5189 4.91048 13.504 4.90333C13.4315 5.29443 13.2332 5.57517 13 5.57517C12.7091 5.57517 12.4727 5.13861 12.4668 4.59589C12.3777 4.47044 12.2816 4.3797 12.2199 4.32137L12.2199 4.32137C12.1799 4.28362 12.1543 4.25945 12.1543 4.24823C12.1543 4.22182 12.3004 4.27671 12.4729 4.42149C12.4771 4.37029 12.4834 4.32036 12.4916 4.27203ZM13.5317 4.49729C13.7662 4.04753 14.1446 3.74906 14.3499 3.58718C14.4373 3.5182 14.4933 3.47403 14.4933 3.45353C14.4933 3.40869 14.2174 3.49208 13.8757 3.71626L13.5317 4.49729Z" fill="#FFD100"/>
<path d="M11.8928 5.15142C11.8286 5.0419 11.6545 4.99323 11.5811 5.09058C11.5536 5.11491 11.517 5.11491 11.4895 5.12708C11.4436 5.12708 11.3851 5.15773 11.4035 5.27942C11.4528 5.27942 11.4528 5.30962 11.4803 5.30962C11.4986 5.29745 11.5463 5.52067 11.638 5.5085C11.7388 5.5085 11.8286 5.56516 11.847 5.5895C11.8745 5.62601 11.9112 5.72336 11.8653 5.77203C11.8011 5.84505 11.7553 6.01541 11.8653 6.14927C11.9845 6.27096 12.287 6.45349 12.6262 6.10059C12.9562 5.75987 13.4695 5.95457 13.5062 6.07626C13.552 6.19795 13.5704 6.27096 13.5795 6.3318C13.5887 6.38048 13.8362 6.45349 13.8729 6.49C13.9187 6.52651 13.9829 6.51434 13.9646 6.40482C13.9279 6.06409 13.7721 6.01541 13.7537 5.85722C13.8454 5.86939 13.9096 5.86939 13.9462 5.82071C13.9737 5.77204 14.0104 5.68685 14.0471 5.66252C14.0746 5.63818 14.0746 5.61384 14.0379 5.62601C13.9921 5.63818 13.9646 5.66252 13.8821 5.65035C13.6869 5.62218 13.7352 4.6991 13.0897 4.51953C12.6908 4.40857 12.1934 5.16951 12.057 5.24485C12.0541 5.24648 12.0513 5.2478 12.0487 5.24877C11.9845 5.24877 11.9295 5.21227 11.8928 5.15142Z" fill="#059334"/>
</g>
<mask id="mask2_14655_23390" style="mask-type:alpha" maskUnits="userSpaceOnUse" x="0" y="0" width="9" height="7">
<rect width="9" height="7" fill="white"/>
</mask>
<g mask="url(#mask2_14655_23390)">
<path d="M-1.00214 6.49991L0.978339 7.36851L9.04494 0.944371L10.0896 -0.346395L7.97176 -0.636706L4.68159 2.13164L2.03334 3.99686L-1.00214 6.49991Z" fill="#F7FCFF"/>
<path d="M-0.731003 7.10847L0.277958 7.61254L9.71447 -0.466321H8.29777L-0.731003 7.10847Z" fill="#F50100"/>
<path d="M10.0021 6.49991L8.02165 7.36851L-0.0449448 0.944371L-1.0896 -0.346395L1.02823 -0.636706L4.31841 2.13164L6.96666 3.99686L10.0021 6.49991Z" fill="#F7FCFF"/>
<path d="M9.93455 6.93667L8.92559 7.44073L4.90743 3.98176L3.71613 3.59529L-1.19012 -0.341974H0.226578L5.13007 3.50184L6.43255 3.96525L9.93455 6.93667Z" fill="#F50100"/>
<mask id="path-29-outside-4_14655_23390" maskUnits="userSpaceOnUse" x="-1" y="-1" width="11" height="9" fill="black">
<rect fill="white" x="-1" y="-1" width="11" height="9"/>
<path fill-rule="evenodd" clip-rule="evenodd" d="M4.99226 0H3.99226V3H0V4H3.99226V7H4.99226V4H9V3H4.99226V0Z"/>
</mask>
<path fill-rule="evenodd" clip-rule="evenodd" d="M4.99226 0H3.99226V3H0V4H3.99226V7H4.99226V4H9V3H4.99226V0Z" fill="#F50100"/>
<path d="M3.99226 0V-0.75H3.24226V0H3.99226ZM4.99226 0H5.74226V-0.75H4.99226V0ZM3.99226 3V3.75H4.74226V3H3.99226ZM0 3V2.25H-0.75V3H0ZM0 4H-0.75V4.75H0V4ZM3.99226 4H4.74226V3.25H3.99226V4ZM3.99226 7H3.24226V7.75H3.99226V7ZM4.99226 7V7.75H5.74226V7H4.99226ZM4.99226 4V3.25H4.24226V4H4.99226ZM9 4V4.75H9.75V4H9ZM9 3H9.75V2.25H9V3ZM4.99226 3H4.24226V3.75H4.99226V3ZM3.99226 0.75H4.99226V-0.75H3.99226V0.75ZM4.74226 3V0H3.24226V3H4.74226ZM0 3.75H3.99226V2.25H0V3.75ZM0.75 4V3H-0.75V4H0.75ZM3.99226 3.25H0V4.75H3.99226V3.25ZM4.74226 7V4H3.24226V7H4.74226ZM4.99226 6.25H3.99226V7.75H4.99226V6.25ZM4.24226 4V7H5.74226V4H4.24226ZM9 3.25H4.99226V4.75H9V3.25ZM8.25 3V4H9.75V3H8.25ZM4.99226 3.75H9V2.25H4.99226V3.75ZM4.24226 0V3H5.74226V0H4.24226Z" fill="#F7FCFF" mask="url(#path-29-outside-4_14655_23390)"/>
</g>
<rect width="16" height="12" fill="url(#paint0_linear_14655_23390)" style="mix-blend-mode:overlay"/>
</g>
<defs>
<linearGradient id="paint0_linear_14655_23390" x1="8" y1="0" x2="8" y2="12" gradientUnits="userSpaceOnUse">
<stop stop-color="white" stop-opacity="0.7"/>
<stop offset="1" stop-opacity="0.3"/>
</linearGradient>
<clipPath id="clip0_14655_23390">
<rect width="16" height="12" rx="1" fill="white"/>
</clipPath>
<clipPath id="clip1_14655_23390">
<rect width="16" height="12" fill="white"/>
</clipPath>
<clipPath id="clip2_14655_23390">
<rect width="4" height="4" fill="white" transform="translate(11.2843 6.35637)"/>
</clipPath>
</defs>
</svg>
