<svg width="16" height="12" viewBox="0 0 16 12" fill="none" xmlns="http://www.w3.org/2000/svg">
<g clip-path="url(#clip0_14655_23558)">
<mask id="mask0_14655_23558" style="mask-type:alpha" maskUnits="userSpaceOnUse" x="0" y="0" width="16" height="12">
<rect width="16" height="12" fill="white"/>
</mask>
<g mask="url(#mask0_14655_23558)">
<path fill-rule="evenodd" clip-rule="evenodd" d="M0 0V12H16V0H0Z" fill="#4EC7EE"/>
<mask id="mask1_14655_23558" style="mask-type:alpha" maskUnits="userSpaceOnUse" x="0" y="0" width="16" height="12">
<path fill-rule="evenodd" clip-rule="evenodd" d="M0 0V12H16V0H0Z" fill="white"/>
</mask>
<g mask="url(#mask1_14655_23558)">
<path d="M2.04498 11.6185C2.01325 11.8535 2.16377 12.0209 2.41629 12.1286C2.75574 12.2734 3.09826 12.1378 3.41333 11.7887L3.00503 11.4202C2.86507 11.5753 2.76393 11.635 2.68586 11.634C2.83873 11.5248 3.03458 11.39 3.27315 11.2298L3.38765 11.0639C3.47962 10.6694 3.19366 10.4557 2.75753 10.4557C2.50066 10.4557 2.29528 10.5065 2.16499 10.6157C1.95092 10.7952 1.98757 11.0817 2.21284 11.2308C2.23071 11.2426 2.24884 11.2533 2.26723 11.2628C2.14085 11.3695 2.06372 11.4797 2.04498 11.6185Z" fill="#FFE402"/>
<path d="M2.28245 11.2477C2.28245 11.2477 2.34484 11.1094 2.31365 11.0375" stroke="#FFE402" stroke-width="0.55"/>
<path d="M4.28469 11.6185C4.31643 11.8535 4.1659 12.0209 3.91339 12.1286C3.57393 12.2734 3.23141 12.1378 2.91634 11.7887L3.32464 11.4202C3.4646 11.5753 3.56574 11.635 3.64381 11.634C3.49094 11.5248 3.29509 11.39 3.05652 11.2298L2.94202 11.0639C2.85005 10.6694 3.13602 10.4557 3.57214 10.4557C3.82902 10.4557 4.03439 10.5065 4.16469 10.6157C4.37875 10.7952 4.34211 11.0817 4.11683 11.2308C4.09897 11.2426 4.08083 11.2533 4.06245 11.2628C4.18882 11.3695 4.26595 11.4797 4.28469 11.6185Z" fill="#FFE402"/>
<path d="M4.29789 11.1346L3.79655 11.3608C3.72618 11.2049 3.70516 11.0632 3.76372 10.9281L4.26833 11.1469C4.2853 11.1077 4.28507 11.1062 4.29789 11.1346Z" fill="#FFE402"/>
<path d="M2.04498 0.381509C2.01325 0.14651 2.16377 -0.0208741 2.41629 -0.128602C2.75574 -0.273424 3.09826 -0.137812 3.41333 0.211294L3.00503 0.579788C2.86507 0.424711 2.76393 0.364963 2.68586 0.365979C2.83873 0.475188 3.03458 0.610009 3.27315 0.77022L3.38765 0.936082C3.47962 1.33058 3.19366 1.54434 2.75753 1.54434C2.50066 1.54434 2.29528 1.49351 2.16499 1.38426C1.95092 1.20477 1.98757 0.918249 2.21284 0.769182C2.23071 0.757357 2.24884 0.746717 2.26723 0.737236C2.14085 0.630515 2.06372 0.520337 2.04498 0.381509Z" fill="#FFE402"/>
<path d="M4.28469 0.381509C4.31643 0.14651 4.1659 -0.0208741 3.91339 -0.128602C3.57393 -0.273424 3.23141 -0.137812 2.91634 0.211294L3.32464 0.579788C3.4646 0.424711 3.56574 0.364963 3.64381 0.365979C3.49094 0.475188 3.29509 0.610009 3.05652 0.77022L2.94202 0.936082C2.85005 1.33058 3.13602 1.54434 3.57214 1.54434C3.82902 1.54434 4.03439 1.49351 4.16469 1.38426C4.37875 1.20477 4.34211 0.918249 4.11683 0.769182C4.09897 0.757357 4.08083 0.746717 4.06245 0.737236C4.18882 0.630515 4.26595 0.520337 4.28469 0.381509Z" fill="#FFE402"/>
<path fill-rule="evenodd" clip-rule="evenodd" d="M2.5469 10.0315C2.23139 10.0406 2.03508 10.1057 2.03508 10.4098C2.03508 10.7452 2.3609 10.8501 2.70755 10.8501C3.02156 10.8501 3.37531 10.6552 3.37531 10.3062C3.37531 10.0938 3.10533 9.66536 2.42552 8.73652C2.40196 8.71457 2.38898 8.70339 2.37859 8.70332C2.41981 8.68036 2.49242 8.65348 2.58822 8.65348C2.62148 8.65348 2.6647 8.6703 2.70755 8.69185V9.05613H3.42728V8.78113C3.42728 8.47044 2.968 8.10348 2.58822 8.10348C2.25654 8.10348 1.99027 8.26126 1.8554 8.48824C1.72211 8.71256 1.82403 8.9279 2.01545 9.09917C2.30029 9.49202 2.52145 9.81721 2.66016 10.0309C2.6092 10.0304 2.58121 10.0305 2.5469 10.0315ZM2.5807 10.2851C2.57072 10.2829 2.56112 10.2804 2.55215 10.2778C2.55883 10.2848 2.58508 10.3161 2.58508 10.4098C2.58508 10.4608 2.58262 10.4967 2.57933 10.5219C2.48654 10.44 2.4606 10.2973 2.5285 10.1875L2.53018 10.1847L2.51983 10.1642C2.5212 10.1635 2.52258 10.1628 2.52393 10.1621C2.53992 10.1538 2.55306 10.1471 2.53018 10.1847L2.5807 10.2851ZM2.55215 10.2778L2.54262 10.2749C2.54364 10.2753 2.54499 10.2759 2.54656 10.2769L2.55215 10.2778ZM2.82531 10.3062C2.82531 10.2968 2.82212 10.2912 2.8166 10.2882L2.81981 10.2917C2.82346 10.2992 2.82531 10.3041 2.82531 10.3062Z" fill="#FFE402"/>
<path fill-rule="evenodd" clip-rule="evenodd" d="M3.78277 10.0315C4.09828 10.0406 4.29459 10.1057 4.29459 10.4098C4.29459 10.7452 3.96877 10.8501 3.62213 10.8501C3.30811 10.8501 2.95436 10.6552 2.95436 10.3062C2.95436 10.0938 3.22434 9.66536 3.90415 8.73652C3.92772 8.71457 3.94069 8.70339 3.95108 8.70332C3.90986 8.68036 3.83725 8.65348 3.74145 8.65348C3.70819 8.65348 3.66497 8.6703 3.62213 8.69185V9.05613H2.90239V8.78113C2.90239 8.47044 3.36167 8.10348 3.74145 8.10348C4.07313 8.10348 4.3394 8.26126 4.47427 8.48824C4.60756 8.71256 4.50564 8.9279 4.31422 9.09917C4.02938 9.49202 3.80822 9.81721 3.66952 10.0309C3.72048 10.0304 3.74846 10.0305 3.78277 10.0315ZM3.74897 10.2851C3.75895 10.2829 3.76855 10.2804 3.77752 10.2778C3.77084 10.2848 3.74459 10.3161 3.74459 10.4098C3.74459 10.4608 3.74705 10.4967 3.75034 10.5219C3.84313 10.44 3.86908 10.2973 3.80117 10.1875L3.79949 10.1847L3.80985 10.1642C3.80847 10.1635 3.8071 10.1628 3.80574 10.1621C3.78976 10.1538 3.77662 10.1471 3.79949 10.1847L3.74897 10.2851ZM3.77752 10.2778L3.78706 10.2749C3.78603 10.2753 3.78468 10.2759 3.78311 10.2769L3.77752 10.2778ZM3.50436 10.3062C3.50436 10.2968 3.50755 10.2912 3.51307 10.2882L3.50987 10.2917C3.50621 10.2992 3.50436 10.3041 3.50436 10.3062Z" fill="#FFE402"/>
<path fill-rule="evenodd" clip-rule="evenodd" d="M2.5469 6.67736C2.23139 6.66828 2.03508 6.6032 2.03508 6.29906C2.03508 5.96368 2.3609 5.85876 2.70755 5.85876C3.02156 5.85876 3.37531 6.05365 3.37531 6.40268C3.37531 6.61502 3.10533 7.0435 2.42552 7.97234C2.40196 7.99429 2.38898 8.00547 2.37859 8.00554C2.41981 8.0285 2.49242 8.05538 2.58822 8.05538C2.62148 8.05538 2.6647 8.03856 2.70755 8.01701V7.65273H3.42728V7.92773C3.42728 8.23842 2.968 8.60538 2.58822 8.60538C2.25654 8.60538 1.99027 8.4476 1.8554 8.22062C1.72211 7.9963 1.82403 7.78096 2.01545 7.60969C2.30029 7.21683 2.52145 6.89165 2.66016 6.67799C2.6092 6.67842 2.58121 6.67835 2.5469 6.67736ZM2.5807 6.42377C2.57072 6.42599 2.56112 6.42841 2.55215 6.43102C2.55883 6.42401 2.58508 6.39272 2.58508 6.29906C2.58508 6.24806 2.58262 6.21219 2.57933 6.18696C2.48654 6.26882 2.4606 6.41153 2.5285 6.52137L2.53018 6.52412L2.51983 6.54469C2.5212 6.54538 2.52258 6.54608 2.52393 6.54678C2.53992 6.55501 2.55306 6.56178 2.53018 6.52412L2.5807 6.42377ZM2.55215 6.43102L2.54262 6.43393C2.54364 6.4336 2.54499 6.43297 2.54656 6.43195L2.55215 6.43102ZM2.82531 6.40268C2.82531 6.41207 2.82212 6.41765 2.8166 6.42064L2.81981 6.41714C2.82346 6.40962 2.82531 6.40476 2.82531 6.40268Z" fill="#FFE402"/>
<path fill-rule="evenodd" clip-rule="evenodd" d="M3.78277 6.67736C4.09828 6.66828 4.29459 6.6032 4.29459 6.29906C4.29459 5.96368 3.96877 5.85876 3.62213 5.85876C3.30811 5.85876 2.95436 6.05365 2.95436 6.40268C2.95436 6.61502 3.22434 7.0435 3.90415 7.97234C3.92772 7.99429 3.94069 8.00547 3.95108 8.00554C3.90986 8.0285 3.83725 8.05538 3.74145 8.05538C3.70819 8.05538 3.66497 8.03856 3.62213 8.01701V7.65273H2.90239V7.92773C2.90239 8.23842 3.36167 8.60538 3.74145 8.60538C4.07313 8.60538 4.3394 8.4476 4.47427 8.22062C4.60756 7.9963 4.50564 7.78096 4.31422 7.60969C4.02938 7.21683 3.80822 6.89165 3.66952 6.67799C3.72048 6.67842 3.74846 6.67835 3.78277 6.67736ZM3.74897 6.42377C3.75895 6.42599 3.76855 6.42841 3.77752 6.43102C3.77084 6.42401 3.74459 6.39272 3.74459 6.29906C3.74459 6.24806 3.74705 6.21219 3.75034 6.18696C3.84313 6.26882 3.86908 6.41153 3.80117 6.52137L3.79949 6.52412L3.80985 6.54469C3.80847 6.54538 3.8071 6.54608 3.80574 6.54678C3.78976 6.55501 3.77662 6.56178 3.79949 6.52412L3.74897 6.42377ZM3.77752 6.43102L3.78706 6.43393C3.78603 6.4336 3.78468 6.43297 3.78311 6.43195L3.77752 6.43102ZM3.50436 6.40268C3.50436 6.41207 3.50755 6.41765 3.51307 6.42064L3.50987 6.41714C3.50621 6.40962 3.50436 6.40476 3.50436 6.40268Z" fill="#FFE402"/>
<path fill-rule="evenodd" clip-rule="evenodd" d="M2.5469 5.32264C2.23139 5.33172 2.03508 5.3968 2.03508 5.70094C2.03508 6.03632 2.3609 6.14124 2.70755 6.14124C3.02156 6.14124 3.37531 5.94635 3.37531 5.59732C3.37531 5.38498 3.10533 4.9565 2.42552 4.02766C2.40196 4.00571 2.38898 3.99453 2.37859 3.99446C2.41981 3.9715 2.49242 3.94462 2.58822 3.94462C2.62148 3.94462 2.6647 3.96144 2.70755 3.98299V4.34727H3.42728V4.07227C3.42728 3.76158 2.968 3.39462 2.58822 3.39462C2.25654 3.39462 1.99027 3.5524 1.8554 3.77938C1.72211 4.0037 1.82403 4.21904 2.01545 4.39031C2.30029 4.78317 2.52145 5.10835 2.66016 5.32201C2.6092 5.32158 2.58121 5.32165 2.5469 5.32264ZM2.5807 5.57623C2.57072 5.57401 2.56112 5.57159 2.55215 5.56898C2.55883 5.57599 2.58508 5.60728 2.58508 5.70094C2.58508 5.75194 2.58262 5.78781 2.57933 5.81304C2.48654 5.73118 2.4606 5.58847 2.5285 5.47863L2.53018 5.47588L2.51983 5.45531C2.5212 5.45462 2.52258 5.45392 2.52393 5.45322C2.53992 5.44499 2.55306 5.43822 2.53018 5.47588L2.5807 5.57623ZM2.55215 5.56898L2.54262 5.56607C2.54364 5.5664 2.54499 5.56703 2.54656 5.56805L2.55215 5.56898ZM2.82531 5.59732C2.82531 5.58793 2.82212 5.58235 2.8166 5.57936L2.81981 5.58286C2.82346 5.59038 2.82531 5.59524 2.82531 5.59732Z" fill="#FFE402"/>
<path fill-rule="evenodd" clip-rule="evenodd" d="M3.78277 5.32264C4.09828 5.33172 4.29459 5.3968 4.29459 5.70094C4.29459 6.03632 3.96877 6.14124 3.62213 6.14124C3.30811 6.14124 2.95436 5.94635 2.95436 5.59732C2.95436 5.38498 3.22434 4.9565 3.90415 4.02766C3.92772 4.00571 3.94069 3.99453 3.95108 3.99446C3.90986 3.9715 3.83725 3.94462 3.74145 3.94462C3.70819 3.94462 3.66497 3.96144 3.62213 3.98299V4.34727H2.90239V4.07227C2.90239 3.76158 3.36167 3.39462 3.74145 3.39462C4.07313 3.39462 4.3394 3.5524 4.47427 3.77938C4.60756 4.0037 4.50564 4.21904 4.31422 4.39031C4.02938 4.78317 3.80822 5.10835 3.66952 5.32201C3.72048 5.32158 3.74846 5.32165 3.78277 5.32264ZM3.74897 5.57623C3.75895 5.57401 3.76855 5.57159 3.77752 5.56898C3.77084 5.57599 3.74459 5.60728 3.74459 5.70094C3.74459 5.75194 3.74705 5.78781 3.75034 5.81304C3.84313 5.73118 3.86908 5.58847 3.80117 5.47863L3.79949 5.47588L3.80985 5.45531C3.80847 5.45462 3.8071 5.45392 3.80574 5.45322C3.78976 5.44499 3.77662 5.43822 3.79949 5.47588L3.74897 5.57623ZM3.77752 5.56898L3.78706 5.56607C3.78603 5.5664 3.78468 5.56703 3.78311 5.56805L3.77752 5.56898ZM3.50436 5.59732C3.50436 5.58793 3.50755 5.58235 3.51307 5.57936L3.50987 5.58286C3.50621 5.59038 3.50436 5.59524 3.50436 5.59732Z" fill="#FFE402"/>
<path fill-rule="evenodd" clip-rule="evenodd" d="M2.5469 1.9685C2.23139 1.95942 2.03508 1.89434 2.03508 1.5902C2.03508 1.25482 2.3609 1.1499 2.70755 1.1499C3.02156 1.1499 3.37531 1.34479 3.37531 1.69382C3.37531 1.90616 3.10533 2.33464 2.42552 3.26348C2.40196 3.28543 2.38898 3.29661 2.37859 3.29668C2.41981 3.31964 2.49242 3.34652 2.58822 3.34652C2.62148 3.34652 2.6647 3.3297 2.70755 3.30815V2.94387H3.42728V3.21887C3.42728 3.52956 2.968 3.89652 2.58822 3.89652C2.25654 3.89652 1.99027 3.73874 1.8554 3.51176C1.72211 3.28744 1.82403 3.0721 2.01545 2.90083C2.30029 2.50797 2.52145 2.18279 2.66016 1.96913C2.6092 1.96956 2.58121 1.96949 2.5469 1.9685ZM2.5807 1.71491C2.57072 1.71713 2.56112 1.71955 2.55215 1.72216C2.55883 1.71515 2.58508 1.68386 2.58508 1.5902C2.58508 1.5392 2.58262 1.50333 2.57933 1.4781C2.48654 1.55996 2.4606 1.70267 2.5285 1.81251L2.53018 1.81526L2.51983 1.83582C2.5212 1.83652 2.52258 1.83722 2.52393 1.83792C2.53992 1.84615 2.55306 1.85292 2.53018 1.81526L2.5807 1.71491ZM2.55215 1.72216L2.54262 1.72507C2.54364 1.72474 2.54499 1.72411 2.54656 1.72309L2.55215 1.72216ZM2.82531 1.69382C2.82531 1.70321 2.82212 1.70879 2.8166 1.71178L2.81981 1.70828C2.82346 1.70076 2.82531 1.6959 2.82531 1.69382Z" fill="#FFE402"/>
<path fill-rule="evenodd" clip-rule="evenodd" d="M3.78277 1.9685C4.09828 1.95942 4.29459 1.89434 4.29459 1.5902C4.29459 1.25482 3.96877 1.1499 3.62213 1.1499C3.30811 1.1499 2.95436 1.34479 2.95436 1.69382C2.95436 1.90616 3.22434 2.33464 3.90415 3.26348C3.92772 3.28543 3.94069 3.29661 3.95108 3.29668C3.90986 3.31964 3.83725 3.34652 3.74145 3.34652C3.70819 3.34652 3.66497 3.3297 3.62213 3.30815V2.94387H2.90239V3.21887C2.90239 3.52956 3.36167 3.89652 3.74145 3.89652C4.07313 3.89652 4.3394 3.73874 4.47427 3.51176C4.60756 3.28744 4.50564 3.0721 4.31422 2.90083C4.02938 2.50797 3.80822 2.18279 3.66952 1.96913C3.72048 1.96956 3.74846 1.96949 3.78277 1.9685ZM3.74897 1.71491C3.75895 1.71713 3.76855 1.71955 3.77752 1.72216C3.77084 1.71515 3.74459 1.68386 3.74459 1.5902C3.74459 1.5392 3.74705 1.50333 3.75034 1.4781C3.84313 1.55996 3.86908 1.70267 3.80117 1.81251L3.79949 1.81526L3.80985 1.83582C3.80847 1.83652 3.8071 1.83722 3.80574 1.83792C3.78976 1.84615 3.77662 1.85292 3.79949 1.81526L3.74897 1.71491ZM3.77752 1.72216L3.78706 1.72507C3.78603 1.72474 3.78468 1.72411 3.78311 1.72309L3.77752 1.72216ZM3.50436 1.69382C3.50436 1.70321 3.50755 1.70879 3.51307 1.71178L3.50987 1.70828C3.50621 1.70076 3.50436 1.6959 3.50436 1.69382Z" fill="#FFE402"/>
<path fill-rule="evenodd" clip-rule="evenodd" d="M9.49335 1.39241L9.69808 2.15626C9.69808 2.15626 9.70049 2.3298 9.50443 2.3298C9.30838 2.3298 9.29849 2.15626 9.29849 2.15626L9.49335 1.39241ZM11.2252 4.30999C11.2252 5.30411 10.4663 6.10999 9.53017 6.10999C8.59404 6.10999 7.83517 5.30411 7.83517 4.30999C7.83517 3.31588 8.59404 2.50999 9.53017 2.50999C10.4663 2.50999 11.2252 3.31588 11.2252 4.30999ZM10.2906 2.3103L10.3182 1.51996L9.90848 2.19347C9.90848 2.19347 9.8672 2.36232 10.0547 2.41964C10.2422 2.47696 10.2906 2.3103 10.2906 2.3103ZM11.0703 1.89421L10.8129 2.64196C10.8129 2.64196 10.7178 2.78718 10.5553 2.67755C10.3928 2.56792 10.4816 2.41851 10.4816 2.41851L11.0703 1.89421ZM11.2184 3.12181L11.6832 2.482L10.9669 2.81127C10.9669 2.81127 10.8383 2.92817 10.9616 3.08053C11.085 3.23289 11.2184 3.12181 11.2184 3.12181ZM12.1055 3.2388L11.4657 3.70367C11.4657 3.70367 11.3046 3.76811 11.2343 3.58507C11.1641 3.40204 11.3225 3.33062 11.3225 3.33062L12.1055 3.2388ZM11.5439 4.34114L12.2916 4.08363L11.516 3.94252C11.516 3.94252 11.3436 3.96449 11.3573 4.16007C11.371 4.35564 11.5439 4.34114 11.5439 4.34114ZM12.2303 4.94796L11.4399 4.97561C11.4399 4.97561 11.2703 4.93892 11.3144 4.74789C11.3585 4.55686 11.5298 4.58626 11.5298 4.58626L12.2303 4.94796ZM11.1629 5.55058L11.9268 5.75521L11.3627 5.20453C11.3627 5.20453 11.2075 5.12632 11.1094 5.29611C11.0114 5.46589 11.1629 5.55058 11.1629 5.55058ZM11.4082 6.43383L10.7375 6.0148C10.7375 6.0148 10.6174 5.88952 10.7608 5.75582C10.9041 5.62211 11.0297 5.74229 11.0297 5.74229L11.4082 6.43383ZM10.2014 6.32688L10.7203 6.92368L10.5606 6.15171C10.5606 6.15171 10.4756 6.00007 10.2994 6.08601C10.1232 6.17196 10.2014 6.32688 10.2014 6.32688ZM9.92417 7.18136L9.60247 6.45894C9.60247 6.45894 9.57294 6.28791 9.76658 6.25724C9.96022 6.22657 9.99714 6.39643 9.99714 6.39643L9.92417 7.18136ZM8.99949 6.39643L9.0822 7.18291L9.39416 6.45894C9.39416 6.45894 9.41154 6.28599 9.2179 6.25532C9.02426 6.22465 8.99949 6.39643 8.99949 6.39643ZM8.28519 6.92802L8.43603 6.15173C8.43603 6.15173 8.50994 5.99469 8.68616 6.08064C8.86237 6.16658 8.79518 6.32689 8.79518 6.32689L8.28519 6.92802ZM7.96689 5.7423L7.59567 6.44058L8.25913 6.01482C8.25913 6.01482 8.37025 5.88116 8.22687 5.74745C8.08348 5.61374 7.96689 5.7423 7.96689 5.7423ZM7.07474 5.76378L7.6339 5.20455C7.6339 5.20455 7.78299 5.11569 7.88101 5.28548C7.97904 5.45527 7.83369 5.55061 7.83369 5.55061L7.07474 5.76378ZM7.4668 4.58629L6.76857 4.9576L7.55668 4.97564C7.55668 4.97564 7.72355 4.92697 7.67945 4.73594C7.63535 4.54491 7.4668 4.58629 7.4668 4.58629ZM6.70428 4.09349L7.48056 3.94255C7.48056 3.94255 7.65384 3.95225 7.64017 4.14783C7.62649 4.34341 7.45268 4.34117 7.45268 4.34117L6.70428 4.09349ZM7.67405 3.33065L6.88757 3.24803L7.53085 3.70369C7.53085 3.70369 7.69641 3.75666 7.76667 3.57362C7.83693 3.39059 7.67405 3.33065 7.67405 3.33065ZM7.30721 2.48968L8.02967 2.81129C8.02967 2.81129 8.16606 2.91864 8.04268 3.071C7.91929 3.22336 7.7782 3.12183 7.7782 3.12183L7.30721 2.48968ZM8.51495 2.41853L7.91808 1.89975L8.18368 2.64198C8.18368 2.64198 8.28892 2.78032 8.45145 2.67069C8.61399 2.56106 8.51495 2.41853 8.51495 2.41853ZM8.66898 1.52285L9.08809 2.19348C9.08809 2.19348 9.14113 2.35873 8.95364 2.41605C8.76615 2.47337 8.70596 2.3103 8.70596 2.3103L8.66898 1.52285Z" fill="#FFE402"/>
<path d="M5.77385 4L6.49544 4.07298C6.14915 6.42001 7.08307 7.47745 9.51365 7.47745C11.974 7.47745 13.1134 6.37204 13.1134 4C13.1134 4 13.6256 3.97095 13.6214 4.07298C13.5109 6.80213 12.3396 8.55396 9.442 8.55396C6.40631 8.55396 5.33768 6.95624 5.77385 4Z" fill="#FFE402"/>
<path d="M5.98921 5.4L6.67071 5.47298C6.34366 7.82001 7.22571 8.87745 9.52128 8.87745C11.845 8.87745 12.921 7.77204 12.921 5.4C12.921 5.4 13.4048 5.37095 13.4009 5.47298C13.2965 8.20213 12.1903 9.95396 9.45361 9.95396C6.58653 9.95396 5.57726 8.35624 5.98921 5.4Z" fill="#FFE402"/>
</g>
</g>
<rect width="16" height="12" fill="url(#paint0_linear_14655_23558)" style="mix-blend-mode:overlay"/>
</g>
<defs>
<linearGradient id="paint0_linear_14655_23558" x1="8" y1="0" x2="8" y2="12" gradientUnits="userSpaceOnUse">
<stop stop-color="white" stop-opacity="0.7"/>
<stop offset="1" stop-opacity="0.3"/>
</linearGradient>
<clipPath id="clip0_14655_23558">
<rect width="16" height="12" rx="1" fill="white"/>
</clipPath>
</defs>
</svg>
