<svg width="16" height="12" viewBox="0 0 16 12" fill="none" xmlns="http://www.w3.org/2000/svg">
<g clip-path="url(#clip0_14655_23435)">
<mask id="mask0_14655_23435" style="mask-type:alpha" maskUnits="userSpaceOnUse" x="0" y="0" width="16" height="12">
<rect width="16" height="12" fill="white"/>
</mask>
<g mask="url(#mask0_14655_23435)">
<path fill-rule="evenodd" clip-rule="evenodd" d="M0 0H16V11C16 11.5523 15.5523 12 15 12H1C0.447715 12 0 11.5523 0 11V0Z" fill="#C51918"/>
<path fill-rule="evenodd" clip-rule="evenodd" d="M0 0H16V12H0V0Z" fill="#E31D1C"/>
<path fill-rule="evenodd" clip-rule="evenodd" d="M11.241 9.81308L8.0829 1.3503H7.94586L4.89757 9.81308L8.06326 7.9105L11.241 9.81308ZM7.73329 4.11101L8.07185 2.79183L8.42318 4.14879L9.43251 6.97703L10.0251 8.3463L8.74574 7.44497L8.06253 7.03591L7.39033 7.4399L6.14066 8.3463L6.71836 6.94898L7.73329 4.11101Z" fill="#579D20"/>
<path fill-rule="evenodd" clip-rule="evenodd" d="M6.33127 6.73656L8.07924 7.89853L9.71032 6.73656L12.8082 4.11822H3.19263L6.33127 6.73656ZM6.36754 5.73705L5.17874 5.00957H6.62909H9.51096H10.7903L9.76986 5.65594L8.07164 6.94442L6.36754 5.73705Z" fill="#579D20"/>
</g>
<rect width="16" height="12" fill="url(#paint0_linear_14655_23435)" style="mix-blend-mode:overlay"/>
</g>
<defs>
<linearGradient id="paint0_linear_14655_23435" x1="8" y1="0" x2="8" y2="12" gradientUnits="userSpaceOnUse">
<stop stop-color="white" stop-opacity="0.7"/>
<stop offset="1" stop-opacity="0.3"/>
</linearGradient>
<clipPath id="clip0_14655_23435">
<rect width="16" height="12" rx="1" fill="white"/>
</clipPath>
</defs>
</svg>
