<svg width="16" height="12" viewBox="0 0 16 12" fill="none" xmlns="http://www.w3.org/2000/svg">
<g clip-path="url(#clip0_14655_23552)">
<mask id="mask0_14655_23552" style="mask-type:alpha" maskUnits="userSpaceOnUse" x="0" y="0" width="16" height="12">
<rect width="16" height="12" fill="white"/>
</mask>
<g mask="url(#mask0_14655_23552)">
<path fill-rule="evenodd" clip-rule="evenodd" d="M0 0V12H16V0H0Z" fill="#1C9975"/>
<mask id="mask1_14655_23552" style="mask-type:alpha" maskUnits="userSpaceOnUse" x="0" y="0" width="16" height="12">
<path fill-rule="evenodd" clip-rule="evenodd" d="M0 0V12H16V0H0Z" fill="white"/>
</mask>
<g mask="url(#mask1_14655_23552)">
<path fill-rule="evenodd" clip-rule="evenodd" d="M8.0108 3.42687L7.19394 3.92L7.38026 2.9577L6.70001 2.2375L7.6211 2.19856L8.0108 1.3L8.40049 2.19856H9.32001L8.64134 2.9577L8.84566 3.92L8.0108 3.42687Z" fill="#FECA00"/>
<path fill-rule="evenodd" clip-rule="evenodd" d="M5.69131 3.79223L5.18622 4.09715L5.30143 3.50214L4.88082 3.05683L5.45035 3.03275L5.69131 2.47715L5.93226 3.03275H6.50082L6.08118 3.50214L6.20752 4.09715L5.69131 3.79223Z" fill="#FECA00"/>
<path fill-rule="evenodd" clip-rule="evenodd" d="M10.2905 3.79223L9.78541 4.09715L9.90062 3.50214L9.48001 3.05683L10.0495 3.03275L10.2905 2.47715L10.5315 3.03275H11.1L10.6804 3.50214L10.8067 4.09715L10.2905 3.79223Z" fill="#FECA00"/>
<path fill-rule="evenodd" clip-rule="evenodd" d="M4.38325 4.80531L3.97793 5.05L4.07038 4.57252L3.73286 4.21517L4.18989 4.19585L4.38325 3.75L4.57661 4.19585H5.03286L4.69611 4.57252L4.79749 5.05L4.38325 4.80531Z" fill="#FECA00"/>
<path fill-rule="evenodd" clip-rule="evenodd" d="M11.7804 4.80531L11.3751 5.05L11.4675 4.57252L11.13 4.21517L11.587 4.19585L11.7804 3.75L11.9738 4.19585H12.43L12.0933 4.57252L12.1946 5.05L11.7804 4.80531Z" fill="#FECA00"/>
<mask id="mask2_14655_23552" style="mask-type:alpha" maskUnits="userSpaceOnUse" x="4" y="3" width="8" height="8">
<path fill-rule="evenodd" clip-rule="evenodd" d="M8 11C10.2091 11 12 9.20914 12 7C12 4.79086 10.2091 3 8 3C5.79086 3 4 4.79086 4 7C4 9.20914 5.79086 11 8 11Z" fill="white"/>
</mask>
<g mask="url(#mask2_14655_23552)">
<path d="M6.31014 11.6392H4.35778V9.01029L6.30662 9.01032C6.99697 9.00061 7.50143 8.80343 7.83802 8.42408L8.00573 8.23505L8.19294 8.40479C8.64248 8.81238 9.09149 9.01029 9.54573 9.01029H11.6979V11.6392H9.54573C9.02389 11.6392 8.52008 11.4429 8.03834 11.0585C7.6117 11.4367 7.0324 11.629 6.31014 11.6392Z" fill="#F7FCFF"/>
</g>
<path fill-rule="evenodd" clip-rule="evenodd" d="M8.01735 3.80389C8.01735 3.80389 7.16297 4.64789 7.16297 5.80618C7.16297 6.05406 7.2021 6.28823 7.26361 6.50322C6.98835 5.89315 6.96927 5.23162 7.20683 4.51002L6.88348 4.40356C6.64181 5.13764 6.64077 5.8278 6.8807 6.46742C6.38439 6.16839 5.81337 5.96747 5.22728 5.90268L5.18987 6.24105C5.70208 6.29767 6.20202 6.46846 6.64095 6.72128C6.53258 6.67759 6.41895 6.63958 6.3004 6.60932C5.21893 6.3333 4.15791 6.72469 4.15791 6.72469C4.15791 6.72469 4.76996 8.0978 5.9554 8.30028C6.01451 8.31038 6.07293 8.31824 6.1306 8.32406L6.12165 8.32408C5.55645 8.32408 5.03084 8.093 4.53866 7.62352L4.30369 7.86986C4.85652 8.39718 5.46457 8.66451 6.12165 8.66451C6.76427 8.66451 7.36109 8.40882 7.90643 7.90429C7.99391 7.85146 8.0451 7.81366 8.05329 7.80752L8.07475 7.82576C8.06351 7.84507 8.05787 7.85561 8.05787 7.85561C8.05787 7.85561 8.11163 7.88815 8.20859 7.934C8.74704 8.35135 9.42073 8.66451 9.95375 8.66451C10.6108 8.66451 11.2189 8.39718 11.7717 7.86986L11.5367 7.62352C11.0446 8.093 10.519 8.32408 9.95375 8.32408C9.74726 8.32408 9.54492 8.29091 9.34645 8.22415C9.62437 8.23911 9.93055 8.21407 10.2475 8.11718C11.4152 7.76017 11.902 6.68035 11.902 6.68035C11.902 6.68035 11.2806 6.3451 10.4915 6.34133C10.6683 6.29573 10.8528 6.26231 11.0452 6.24105L11.0078 5.90268C10.2677 5.98449 9.62735 6.2343 9.09022 6.65114C9.40428 5.96057 9.42859 5.20846 9.16361 4.40356L8.84026 4.51002C9.05679 5.16774 9.06011 5.77555 8.85057 6.33998C8.88645 6.17308 8.90767 5.99469 8.90767 5.80618C8.90767 4.58511 8.01735 3.80389 8.01735 3.80389ZM8.39321 7.37771L8.38053 7.39596L8.39599 7.37754L8.39321 7.37771ZM7.56742 7.29798L7.60088 7.26719C7.63131 7.31774 7.66167 7.36533 7.69133 7.40974C7.65286 7.37351 7.61152 7.33606 7.56742 7.29798Z" fill="#F7FCFF"/>
</g>
</g>
<rect width="16" height="12" fill="url(#paint0_linear_14655_23552)" style="mix-blend-mode:overlay"/>
</g>
<defs>
<linearGradient id="paint0_linear_14655_23552" x1="8" y1="0" x2="8" y2="12" gradientUnits="userSpaceOnUse">
<stop stop-color="white" stop-opacity="0.7"/>
<stop offset="1" stop-opacity="0.3"/>
</linearGradient>
<clipPath id="clip0_14655_23552">
<rect width="16" height="12" rx="1" fill="white"/>
</clipPath>
</defs>
</svg>
