<svg width="16" height="12" viewBox="0 0 16 12" fill="none" xmlns="http://www.w3.org/2000/svg">
<g clip-path="url(#clip0_14655_23414)">
<mask id="mask0_14655_23414" style="mask-type:alpha" maskUnits="userSpaceOnUse" x="0" y="0" width="16" height="12">
<rect width="16" height="12" fill="white"/>
</mask>
<g mask="url(#mask0_14655_23414)">
<path fill-rule="evenodd" clip-rule="evenodd" d="M0 0H17V12H0V0Z" fill="#2993EC"/>
<path fill-rule="evenodd" clip-rule="evenodd" d="M3.10638 5.79167C3.10638 8.43803 5.29733 10.5833 8 10.5833C10.7027 10.5833 12.8936 8.43803 12.8936 5.79167C12.8936 3.1453 10.7027 1 8 1C5.29733 1 3.10638 3.1453 3.10638 5.79167ZM11.8298 5.79167C11.8298 7.86273 10.1151 9.54167 8 9.54167C5.88487 9.54167 4.17021 7.86273 4.17021 5.79167C4.17021 3.7206 5.88487 2.04167 8 2.04167C10.1151 2.04167 11.8298 3.7206 11.8298 5.79167Z" fill="#F1F9FF"/>
<path fill-rule="evenodd" clip-rule="evenodd" d="M3.53192 5.79166C3.53192 8.20791 5.53235 10.1667 8.00001 10.1667C10.4677 10.1667 12.4681 8.20791 12.4681 5.79166C12.4681 3.37542 10.4677 1.41666 8.00001 1.41666C5.53235 1.41666 3.53192 3.37542 3.53192 5.79166ZM12.2553 5.79166C12.2553 8.09285 10.3502 9.95833 8.00001 9.95833C5.64986 9.95833 3.74469 8.09285 3.74469 5.79166C3.74469 3.49048 5.64986 1.625 8.00001 1.625C10.3502 1.625 12.2553 3.49048 12.2553 5.79166Z" fill="#E31D1C"/>
<path d="M8.00001 10.0917C5.57228 10.0917 3.60692 8.16501 3.60692 5.79166H3.45692C3.45692 8.25081 5.49243 10.2417 8.00001 10.2417V10.0917ZM12.3931 5.79166C12.3931 8.16501 10.4277 10.0917 8.00001 10.0917V10.2417C10.5076 10.2417 12.5431 8.25081 12.5431 5.79166H12.3931ZM8.00001 1.49166C10.4277 1.49166 12.3931 3.41832 12.3931 5.79166H12.5431C12.5431 3.33252 10.5076 1.34166 8.00001 1.34166V1.49166ZM3.60692 5.79166C3.60692 3.41832 5.57228 1.49166 8.00001 1.49166V1.34166C5.49243 1.34166 3.45692 3.33252 3.45692 5.79166H3.60692ZM8.00001 10.0333C10.3901 10.0333 12.3303 8.13575 12.3303 5.79166H12.1803C12.1803 8.04995 10.3102 9.88333 8.00001 9.88333V10.0333ZM3.66969 5.79166C3.66969 8.13575 5.60993 10.0333 8.00001 10.0333V9.88333C5.68978 9.88333 3.81969 8.04995 3.81969 5.79166H3.66969ZM8.00001 1.55C5.60993 1.55 3.66969 3.44758 3.66969 5.79166H3.81969C3.81969 3.53338 5.68978 1.7 8.00001 1.7V1.55ZM12.3303 5.79166C12.3303 3.44758 10.3901 1.55 8.00001 1.55V1.7C10.3102 1.7 12.1803 3.53338 12.1803 5.79166H12.3303Z" fill="#E31D1C"/>
<path fill-rule="evenodd" clip-rule="evenodd" d="M7.29306 2.875C7.10968 2.875 6.97327 3.0445 7.01247 3.22364L7.2059 4.10751C7.22289 4.18516 7.27038 4.24967 7.33412 4.28959C7.27533 4.3353 7.23454 4.40354 7.22515 4.48242L6.53137 10.3052C6.51864 10.412 6.56643 10.5167 6.65983 10.5701C6.92095 10.7194 7.48707 11 8.05319 11C8.61932 11 9.18544 10.7194 9.44655 10.5701C9.53995 10.5167 9.58775 10.412 9.57502 10.3052L8.88124 4.48242C8.87184 4.40354 8.83105 4.3353 8.77227 4.28959C8.83601 4.24967 8.88349 4.18516 8.90049 4.10751L9.09392 3.22364C9.13312 3.0445 8.9967 2.875 8.81332 2.875H7.29306Z" fill="#A7A7A7"/>
<path d="M3.25964 6.00641C3.28543 5.92389 3.37465 5.87747 3.45892 5.90272C3.5432 5.92797 3.59061 6.01533 3.56482 6.09785C3.5202 6.24062 3.5202 6.45149 3.56943 6.72739C3.58831 6.83321 3.61075 6.91492 3.63836 6.9871C3.64935 7.01586 3.66073 7.04217 3.67592 7.07483C3.66916 7.06029 3.70625 7.13907 3.71527 7.15949C3.76296 7.26743 3.78405 7.36203 3.78405 7.50063C3.78405 7.58693 3.71261 7.65688 3.62448 7.65688C3.53635 7.65688 3.4649 7.58693 3.4649 7.50063C3.4649 7.40592 3.45318 7.35333 3.42235 7.28357C3.41509 7.26713 3.38045 7.19354 3.38549 7.20439C3.36748 7.16568 3.35338 7.13305 3.33948 7.09669C3.30484 7.00613 3.27726 6.90574 3.25504 6.78116C3.19793 6.46109 3.19793 6.20386 3.25964 6.00641Z" fill="#73BE4A"/>
<path fill-rule="evenodd" clip-rule="evenodd" d="M8.10638 8.08958L6.04914 9.49132L6.77491 7.14236L4.77769 5.65972L7.28348 5.60972L8.10638 3.29166L8.92928 5.60972L11.4351 5.65972L9.43786 7.14236L10.1636 9.49132L8.10638 8.08958Z" fill="#F7FCFF"/>
<path d="M12.7797 6.21474C12.7539 6.13222 12.6647 6.08579 12.5804 6.11104C12.4962 6.13629 12.4488 6.22366 12.4745 6.30618C12.5192 6.44895 12.5192 6.65982 12.4699 6.93571C12.4511 7.04154 12.4286 7.12325 12.401 7.19543C12.39 7.22418 12.3786 7.2505 12.3634 7.28316C12.3702 7.26862 12.3331 7.3474 12.3241 7.36781C12.2764 7.47576 12.2553 7.57036 12.2553 7.70896C12.2553 7.79525 12.3268 7.86521 12.4149 7.86521C12.503 7.86521 12.5745 7.79525 12.5745 7.70896C12.5745 7.61425 12.5862 7.56166 12.617 7.49189C12.6243 7.47545 12.6589 7.40187 12.6539 7.41272C12.6719 7.37401 12.686 7.34138 12.6999 7.30502C12.7345 7.21446 12.7621 7.11407 12.7843 6.98949C12.8414 6.66941 12.8414 6.41219 12.7797 6.21474Z" fill="#73BE4A"/>
<path d="M8.03043 1.57381C8.03043 1.57381 8.61262 1.83317 8.36118 2.24155" stroke="#73BE4A" stroke-width="0.5" stroke-linecap="round" stroke-linejoin="round"/>
<path d="M8.45596 1.57381C8.45596 1.57381 9.03815 1.83317 8.78672 2.24155" stroke="#73BE4A" stroke-width="0.5" stroke-linecap="round" stroke-linejoin="round"/>
<path d="M4.62992 3.17837C4.67213 3.10531 4.76078 3.08331 4.82794 3.12923C4.89509 3.17515 4.91531 3.27161 4.8731 3.34467C4.79211 3.48484 4.74996 3.67717 4.74996 3.92377C4.74996 4.01006 4.68566 4.08002 4.60634 4.08002C4.52702 4.08002 4.46272 4.01006 4.46272 3.92377C4.46272 3.62239 4.51734 3.37322 4.62992 3.17837Z" fill="#73BE4A"/>
<path d="M4.40425 4.60627C4.40425 4.69256 4.33995 4.76252 4.26064 4.76252C4.18132 4.76252 4.11702 4.69256 4.11702 4.60627V4.16118C4.11702 3.84625 4.16642 3.59823 4.27058 3.41712C4.31266 3.34396 4.40127 3.32177 4.46851 3.36754C4.53575 3.41331 4.55615 3.50972 4.51408 3.58288C4.44265 3.70708 4.40425 3.89985 4.40425 4.16118V4.60627Z" fill="#73BE4A"/>
<path d="M11.7421 4.39794C11.7421 4.48423 11.8064 4.55419 11.8857 4.55419C11.965 4.55419 12.0293 4.48423 12.0293 4.39794V3.95285C12.0293 3.63792 11.9799 3.38991 11.8758 3.20879C11.8337 3.13564 11.7451 3.11344 11.6778 3.15921C11.6106 3.20499 11.5902 3.3014 11.6323 3.37455C11.7037 3.49875 11.7421 3.69152 11.7421 3.95285V4.39794Z" fill="#73BE4A"/>
<path d="M12.1676 5.1271C12.1676 5.2134 12.2319 5.28335 12.3112 5.28335C12.3906 5.28335 12.4549 5.2134 12.4549 5.1271V4.68202C12.4549 4.36709 12.4055 4.11907 12.3013 3.93795C12.2592 3.8648 12.1706 3.8426 12.1034 3.88838C12.0361 3.93415 12.0157 4.03056 12.0578 4.10371C12.1292 4.22791 12.1676 4.42068 12.1676 4.68202V5.1271Z" fill="#73BE4A"/>
</g>
<rect width="16" height="12" fill="url(#paint0_linear_14655_23414)" style="mix-blend-mode:overlay"/>
</g>
<defs>
<linearGradient id="paint0_linear_14655_23414" x1="8" y1="0" x2="8" y2="12" gradientUnits="userSpaceOnUse">
<stop stop-color="white" stop-opacity="0.7"/>
<stop offset="1" stop-opacity="0.3"/>
</linearGradient>
<clipPath id="clip0_14655_23414">
<rect width="16" height="12" rx="1" fill="white"/>
</clipPath>
</defs>
</svg>
