<svg width="16" height="12" viewBox="0 0 16 12" fill="none" xmlns="http://www.w3.org/2000/svg">
<g clip-path="url(#clip0_14655_23413)">
<mask id="mask0_14655_23413" style="mask-type:alpha" maskUnits="userSpaceOnUse" x="0" y="0" width="16" height="12">
<rect width="16" height="12" fill="white"/>
</mask>
<g mask="url(#mask0_14655_23413)">
<path fill-rule="evenodd" clip-rule="evenodd" d="M11 0H16V12H11V0Z" fill="#D9071E"/>
<path fill-rule="evenodd" clip-rule="evenodd" d="M0 0H6V12H0V0Z" fill="#006923"/>
<path fill-rule="evenodd" clip-rule="evenodd" d="M5 0H11V12H5V0Z" fill="white"/>
<path fill-rule="evenodd" clip-rule="evenodd" d="M7.19206 3.9567C7.19206 3.9567 6.84867 4.22302 6.91289 4.50696C6.97711 4.7909 7.65386 4.50696 7.57205 4.23183C7.49024 3.9567 7.19206 3.9567 7.19206 3.9567Z" fill="#FCCA3D"/>
<path fill-rule="evenodd" clip-rule="evenodd" d="M6.6677 4.63405C6.41076 4.63405 6.30364 4.41993 6.35678 4.19235C6.38519 4.07073 6.45895 3.91644 6.57932 3.71597L7.00799 3.97336C6.9621 4.04979 6.92552 4.11613 6.89839 4.1709C6.98826 4.19744 7.07685 4.23688 7.14895 4.28436C7.38241 4.43809 7.46834 4.71201 7.21805 4.91502C7.16961 4.95431 7.09101 5.08827 7.04762 5.21692C7.16704 5.22357 7.2524 5.24153 7.33108 5.28808C7.55208 5.4188 7.53129 5.65721 7.363 5.84131C7.24371 5.9718 7.08445 6.07765 6.93441 6.13187C6.68478 6.22208 6.4177 6.18753 6.4177 5.86795L6.41764 5.86561C6.41714 5.8526 6.41631 5.83035 6.52779 5.82783L6.5495 5.8276L6.5419 5.82755L6.52779 5.82783C6.33757 5.82513 6.29686 5.72443 6.27314 5.54512C6.26713 5.4997 6.2647 5.45647 6.26136 5.36318L6.25914 5.30247L6.25647 5.24335L6.25566 5.2302C6.2519 5.17248 6.2493 5.13251 6.37869 5.13251H6.08865V4.63251H6.37869C6.54319 4.63251 6.63409 4.68806 6.68619 4.80291C6.71519 4.75083 6.74673 4.7018 6.77994 4.65784C6.73811 4.64337 6.6957 4.63405 6.6677 4.63405ZM6.98617 5.51229L6.99395 5.50397C6.9931 5.5049 6.99226 5.50609 6.99145 5.50751L6.98617 5.51229ZM6.76784 5.66053C6.76729 5.66065 6.767 5.66071 6.76711 5.66067L6.76794 5.66051L6.76784 5.66053ZM6.76779 5.47205L6.76882 5.47954L6.76719 5.46507L6.76779 5.47205Z" fill="#A8AC71"/>
<path fill-rule="evenodd" clip-rule="evenodd" d="M9.63324 6.20145C9.63324 6.20145 10.0957 4.83077 9.36055 4.12126C8.62536 3.41174 7.77581 3.45922 7.77581 3.45922C7.77581 3.45922 7.53116 3.64099 7.77581 3.77962C8.02046 3.91825 7.91796 4.05117 7.91796 4.05117C7.91796 4.05117 7.50824 3.63515 7.23625 3.8782C6.96426 4.12126 7.49015 4.08426 7.43448 4.26727C7.37881 4.45028 7.14296 5.26281 7.48759 5.67303C7.83223 6.08326 7.16175 5.99423 7.29812 5.99423C7.43448 5.99423 7.91796 6.08972 7.91796 5.99423C7.91796 5.89874 8.08605 6.36547 8.22989 6.36547C8.37373 6.36547 8.48476 6.20145 8.48476 6.20145C8.48476 6.20145 8.6864 6.36547 8.80926 6.36547C8.93212 6.36547 9.36055 6.25813 9.36055 6.25813L8.55082 5.57587C8.55082 5.57587 8.59963 5.27494 8.48476 5.2098C8.36989 5.14467 9.40565 5.78702 9.48676 5.99423C9.56787 6.20145 9.63324 6.20145 9.63324 6.20145Z" fill="#8F4620"/>
<path d="M5.53324 5.86329C5.53324 5.86329 5.60831 5.62401 5.68869 5.6074C5.75832 5.59301 5.90475 5.72207 5.90475 5.72207C6.16487 7.167 6.79384 7.73136 7.83747 7.73136C8.89338 7.73136 9.53334 7.30252 9.9068 5.96989C9.9068 5.96989 10.1053 5.76714 10.1754 5.78968C10.2516 5.81422 10.3472 6.08246 10.3472 6.08246C10.2516 7.64077 9.12659 8.56448 7.85477 8.56448C6.57067 8.56448 5.52221 7.52947 5.53324 5.86329Z" fill="#9FAB2F"/>
<path fill-rule="evenodd" clip-rule="evenodd" d="M6.66712 6.82822C6.66712 6.82822 8.1693 7.14689 8.76222 7.14689C9.35514 7.14689 8.24199 7.63079 7.80765 7.63079C7.37332 7.63079 6.66712 6.82822 6.66712 6.82822Z" fill="#2FC2DC"/>
<rect x="7.33334" y="7.05" width="1" height="0.535714" rx="0.0833333" fill="#F9AA51"/>
<path d="M6.08777 6.06794L6.49708 5.78078C7.0298 6.54009 7.82645 6.78989 8.94066 6.52917L9.05458 7.01602C7.75207 7.3208 6.74526 7.0051 6.08777 6.06794Z" fill="#259485"/>
<path fill-rule="evenodd" clip-rule="evenodd" d="M8.29567 6.17513C8.29567 6.17513 7.68884 6.49456 7.89112 6.49456C8.09339 6.49456 8.88504 6.65428 8.731 6.49456C8.57695 6.33484 8.29567 6.17513 8.29567 6.17513Z" fill="#FCCA3D"/>
<path fill-rule="evenodd" clip-rule="evenodd" d="M7.5782 5.79412C7.5782 5.79412 7.4629 5.46109 7.22295 5.46109C6.98301 5.46109 7.05074 5.73428 6.93535 5.73428C6.81997 5.73428 7.04287 5.92652 7.14222 5.92652C7.24157 5.92652 7.5782 5.79412 7.5782 5.79412Z" fill="#FCCA3D"/>
</g>
<rect width="16" height="12" fill="url(#paint0_linear_14655_23413)" style="mix-blend-mode:overlay"/>
</g>
<defs>
<linearGradient id="paint0_linear_14655_23413" x1="8" y1="0" x2="8" y2="12" gradientUnits="userSpaceOnUse">
<stop stop-color="white" stop-opacity="0.7"/>
<stop offset="1" stop-opacity="0.3"/>
</linearGradient>
<clipPath id="clip0_14655_23413">
<rect width="16" height="12" rx="1" fill="white"/>
</clipPath>
</defs>
</svg>
