<svg width="16" height="12" viewBox="0 0 16 12" fill="none" xmlns="http://www.w3.org/2000/svg">
<g clip-path="url(#clip0_14655_23451)">
<mask id="mask0_14655_23451" style="mask-type:alpha" maskUnits="userSpaceOnUse" x="0" y="0" width="16" height="12">
<rect width="16" height="12" fill="white"/>
</mask>
<g mask="url(#mask0_14655_23451)">
<path fill-rule="evenodd" clip-rule="evenodd" d="M0 0V12H16V0H0Z" fill="#F7FCFF"/>
<mask id="mask1_14655_23451" style="mask-type:alpha" maskUnits="userSpaceOnUse" x="0" y="0" width="16" height="12">
<path fill-rule="evenodd" clip-rule="evenodd" d="M0 0V12H16V0H0Z" fill="white"/>
</mask>
<g mask="url(#mask1_14655_23451)">
<path fill-rule="evenodd" clip-rule="evenodd" d="M0 0V4H16V0H0Z" fill="#FECA00"/>
<path fill-rule="evenodd" clip-rule="evenodd" d="M0 8V12H16V8H0Z" fill="#009933"/>
<path d="M0 3.5H-0.5V4V8V8.5H0H16H16.5V8V4V3.5H16H0Z" fill="#272727" stroke="white"/>
</g>
<path fill-rule="evenodd" clip-rule="evenodd" d="M0 0V12L9 6L0 0Z" fill="#F50100"/>
<mask id="mask2_14655_23451" style="mask-type:alpha" maskUnits="userSpaceOnUse" x="0" y="0" width="9" height="12">
<path fill-rule="evenodd" clip-rule="evenodd" d="M0 0V12L9 6L0 0Z" fill="white"/>
</mask>
<g mask="url(#mask2_14655_23451)">
<path fill-rule="evenodd" clip-rule="evenodd" d="M4.03439 7.17661L2.14492 8.70184L3.01161 6.66353L1.5224 5.22942H3.2802L4.0015 3.5L4.76759 5.22942H6.5224L4.95452 6.66353L5.7392 8.70184L4.03439 7.17661Z" fill="#FECA00"/>
<path fill-rule="evenodd" clip-rule="evenodd" d="M3.078 5.9921L2.75755 7.06232C2.75755 7.06232 3.83937 7.05162 3.96931 7.16093C4.3608 6.91681 5.16678 7.06232 5.16678 7.06232L4.7381 5.91696C4.7381 5.91696 4.19457 5.67067 3.96931 5.80571C3.41716 5.68099 3.078 5.9921 3.078 5.9921Z" fill="#F7FCFF"/>
<path d="M5.78191 7.60813C5.86497 7.71843 5.84288 7.87517 5.73258 7.95823C5.62229 8.04128 5.46554 8.0192 5.38249 7.9089L3.29244 5.13328C3.20939 5.02298 3.23147 4.86624 3.34177 4.78318C3.45207 4.70013 3.60881 4.72221 3.69187 4.83251L5.78191 7.60813Z" fill="black"/>
<path d="M3.48702 4.91987L3.28702 4.67987" stroke="black" stroke-width="0.5" stroke-linecap="round" stroke-linejoin="round"/>
<path fill-rule="evenodd" clip-rule="evenodd" d="M2.80236 4.68127L2.1981 5.64894L2.50023 6.17229L3.19132 5.14517L3.31563 4.82757L3.19132 4.68127H2.80236Z" fill="black"/>
<path fill-rule="evenodd" clip-rule="evenodd" d="M2.0195 7.55427L2.4839 8.09353L5.99809 4.0215L4.40072 5.01734L2.0195 7.55427Z" fill="black"/>
</g>
</g>
<rect width="16" height="12" fill="url(#paint0_linear_14655_23451)" style="mix-blend-mode:overlay"/>
</g>
<defs>
<linearGradient id="paint0_linear_14655_23451" x1="8" y1="0" x2="8" y2="12" gradientUnits="userSpaceOnUse">
<stop stop-color="white" stop-opacity="0.7"/>
<stop offset="1" stop-opacity="0.3"/>
</linearGradient>
<clipPath id="clip0_14655_23451">
<rect width="16" height="12" rx="1" fill="white"/>
</clipPath>
</defs>
</svg>
