<svg width="16" height="12" viewBox="0 0 16 12" fill="none" xmlns="http://www.w3.org/2000/svg">
<g clip-path="url(#clip0_14655_23566)">
<mask id="mask0_14655_23566" style="mask-type:alpha" maskUnits="userSpaceOnUse" x="0" y="0" width="16" height="12">
<rect width="16" height="12" fill="white"/>
</mask>
<g mask="url(#mask0_14655_23566)">
<path fill-rule="evenodd" clip-rule="evenodd" d="M0 0V12H16V0H0Z" fill="#2E42A5"/>
<mask id="mask1_14655_23566" style="mask-type:alpha" maskUnits="userSpaceOnUse" x="0" y="0" width="16" height="12">
<path fill-rule="evenodd" clip-rule="evenodd" d="M0 0V12H16V0H0Z" fill="white"/>
</mask>
<g mask="url(#mask1_14655_23566)">
<path fill-rule="evenodd" clip-rule="evenodd" d="M0 8V12H16V8H0Z" fill="#FECA00"/>
<mask id="mask2_14655_23566" style="mask-type:alpha" maskUnits="userSpaceOnUse" x="0" y="0" width="16" height="8">
<rect width="16" height="8" fill="white"/>
</mask>
<g mask="url(#mask2_14655_23566)">
<path d="M-1.13109 7.56469L2.04027 8.29834L8.80081 4.56288L9.51618 4.14457L15.938 0.786738L17.4593 -0.273776L13.9795 -0.594706L8.36868 2.5703L4.31399 4.56288L-1.13109 7.56469Z" fill="white"/>
<path d="M-0.852463 8.0094L0.855009 8.56947L16.8245 -0.407035H14.427L-0.852463 8.0094Z" fill="#F50100"/>
<path d="M17.1854 7.36539L17.3113 8.1204L13.9597 8.29834L8.55666 5.13367L8.04723 5.30771L-2.04021 0.205323L2.1247 -0.596345L7.69269 2.47959L12.0484 4.58422L17.1854 7.36539Z" fill="white"/>
<path d="M17.1969 7.81852L15.4895 8.37859L8.68949 4.53528L6.67344 4.10587L-1.62944 -0.268867H0.768053L9.06627 4.00203L11.2705 4.51694L17.1969 7.81852Z" fill="#F50100"/>
<path d="M6.5945 -0.625V-1.25H5.9695V-0.625H6.5945ZM6.5945 2.375V3H7.2195V2.375H6.5945ZM-0.625 2.375V1.75H-1.25V2.375H-0.625ZM-0.625 5.625H-1.25V6.25H-0.625V5.625ZM6.5945 5.625H7.2195V5H6.5945V5.625ZM6.5945 9.625H5.9695V10.25H6.5945V9.625ZM9.43877 9.625V10.25H10.0638V9.625H9.43877ZM9.43877 5.625V5H8.81377V5.625H9.43877ZM16.625 5.625V6.25H17.25V5.625H16.625ZM16.625 2.375H17.25V1.75H16.625V2.375ZM9.43877 2.375H8.81377V3H9.43877V2.375ZM9.43877 -0.625H10.0638V-1.25H9.43877V-0.625ZM8.18877 2.375V3H8.81377V2.375H8.18877ZM8.18877 0.625H8.81377V0H8.18877V0.625ZM7.8445 0.625V0H7.2195V0.625H7.8445ZM7.8445 2.375H7.2195V3H7.8445V2.375ZM8.18877 3.625H8.81377V3H8.18877V3.625ZM7.8445 3.625V3H7.2195V3.625H7.8445ZM8.18877 4.375V5H8.81377V4.375H8.18877ZM7.8445 4.375H7.2195V5H7.8445V4.375ZM6.5945 3.625H7.2195V3H6.5945V3.625ZM0.625 3.625V3H0V3.625H0.625ZM0.625 4.375H0V5H0.625V4.375ZM6.5945 4.375V5H7.2195V4.375H6.5945ZM7.8445 5.625V5H7.2195V5.625H7.8445ZM7.8445 8.375H7.2195V9H7.8445V8.375ZM8.18877 8.375V9H8.81377V8.375H8.18877ZM8.18877 5.625H8.81377V5H8.18877V5.625ZM9.43877 3.625V3H8.81377V3.625H9.43877ZM9.43877 4.375H8.81377V5H9.43877V4.375ZM15.375 3.625H16V3H15.375V3.625ZM15.375 4.375V5H16V4.375H15.375ZM6.5945 0H7.2195V-1.25H6.5945V0ZM7.2195 0V-0.625H5.9695V0H7.2195ZM7.2195 2.375V0H5.9695V2.375H7.2195ZM0 3H6.5945V1.75H0V3ZM-0.625 3H0V1.75H-0.625V3ZM0 3V2.375H-1.25V3H0ZM0 5V3H-1.25V5H0ZM0 5.625V5H-1.25V5.625H0ZM0 5H-0.625V6.25H0V5ZM6.5945 5H0V6.25H6.5945V5ZM7.2195 9V5.625H5.9695V9H7.2195ZM7.2195 9.625V9H5.9695V9.625H7.2195ZM7.2195 9H6.5945V10.25H7.2195V9ZM8.81377 9H7.2195V10.25H8.81377V9ZM9.43877 9H8.81377V10.25H9.43877V9ZM8.81377 9V9.625H10.0638V9H8.81377ZM8.81377 5.625V9H10.0638V5.625H8.81377ZM16 5H9.43877V6.25H16V5ZM16.625 5H16V6.25H16.625V5ZM16 5V5.625H17.25V5H16ZM16 3V5H17.25V3H16ZM16 2.375V3H17.25V2.375H16ZM16 3H16.625V1.75H16V3ZM9.43877 3H16V1.75H9.43877V3ZM8.81377 0V2.375H10.0638V0H8.81377ZM8.81377 -0.625V0H10.0638V-0.625H8.81377ZM8.81377 0H9.43877V-1.25H8.81377V0ZM7.2195 0H8.81377V-1.25H7.2195V0ZM8.81377 2.375V0.625H7.56377V2.375H8.81377ZM8.18877 0H7.8445V1.25H8.18877V0ZM7.2195 0.625V2.375H8.4695V0.625H7.2195ZM7.8445 3H8.18877V1.75H7.8445V3ZM8.18877 3H7.8445V4.25H8.18877V3ZM8.81377 4.375V3.625H7.56377V4.375H8.81377ZM7.8445 5H8.18877V3.75H7.8445V5ZM7.2195 3.625V4.375H8.4695V3.625H7.2195ZM6.5945 3H0.625V4.25H6.5945V3ZM0 3.625V4.375H1.25V3.625H0ZM0.625 5H6.5945V3.75H0.625V5ZM7.2195 4.375V3.625H5.9695V4.375H7.2195ZM7.2195 5.625V8.375H8.4695V5.625H7.2195ZM7.8445 9H8.18877V7.75H7.8445V9ZM8.81377 8.375V5.625H7.56377V8.375H8.81377ZM8.18877 5H7.8445V6.25H8.18877V5ZM8.81377 3.625V4.375H10.0638V3.625H8.81377ZM15.375 3H9.43877V4.25H15.375V3ZM16 4.375V3.625H14.75V4.375H16ZM9.43877 5H15.375V3.75H9.43877V5Z" fill="white"/>
<path fill-rule="evenodd" clip-rule="evenodd" d="M8.84615 -0.666672H7.15385V2.99999H0V5H7.15385V9.66666H8.84615V5H17V2.99999H8.84615V-0.666672Z" fill="#F50100"/>
</g>
<path fill-rule="evenodd" clip-rule="evenodd" d="M8.02502 5.3C8.78442 5.3 9.40002 4.68439 9.40002 3.925C9.40002 3.16561 8.78442 2.55 8.02502 2.55C7.26563 2.55 6.65002 3.16561 6.65002 3.925C6.65002 4.68439 7.26563 5.3 8.02502 5.3Z" fill="#2E42A5"/>
<path fill-rule="evenodd" clip-rule="evenodd" d="M8.05 4.34565L7.40106 4.79722L7.63 4.0405L7 3.56287L7.79043 3.54677L8.05 2.8L8.30957 3.54677L9.1 3.56287L8.47 4.0405L8.69894 4.79722L8.05 4.34565Z" fill="#FECA00"/>
<path fill-rule="evenodd" clip-rule="evenodd" d="M3.55 4.28804L3.00922 4.66435L3.2 4.03375L2.675 3.63572L3.33369 3.6223L3.55 3L3.76631 3.6223L4.425 3.63572L3.9 4.03375L4.09078 4.66435L3.55 4.28804Z" fill="#FECA00"/>
<path fill-rule="evenodd" clip-rule="evenodd" d="M12.55 4.28804L12.0092 4.66435L12.2 4.03375L11.675 3.63572L12.3337 3.6223L12.55 3L12.7663 3.6223L13.425 3.63572L12.9 4.03375L13.0908 4.66435L12.55 4.28804Z" fill="#FECA00"/>
<path fill-rule="evenodd" clip-rule="evenodd" d="M8.05 1.88805L7.50922 2.26436L7.7 1.63376L7.175 1.23573L7.83369 1.22231L8.05 0.600006L8.26631 1.22231L8.925 1.23573L8.4 1.63376L8.59078 2.26436L8.05 1.88805Z" fill="#FECA00"/>
<path fill-rule="evenodd" clip-rule="evenodd" d="M8.05 7.18805L7.50922 7.56436L7.7 6.93376L7.175 6.53573L7.83369 6.52231L8.05 5.90001L8.26631 6.52231L8.925 6.53573L8.4 6.93376L8.59078 7.56436L8.05 7.18805Z" fill="#FECA00"/>
</g>
</g>
<rect width="16" height="12" fill="url(#paint0_linear_14655_23566)" style="mix-blend-mode:overlay"/>
</g>
<defs>
<linearGradient id="paint0_linear_14655_23566" x1="8" y1="0" x2="8" y2="12" gradientUnits="userSpaceOnUse">
<stop stop-color="white" stop-opacity="0.7"/>
<stop offset="1" stop-opacity="0.3"/>
</linearGradient>
<clipPath id="clip0_14655_23566">
<rect width="16" height="12" rx="1" fill="white"/>
</clipPath>
</defs>
</svg>
