<svg width="16" height="12" viewBox="0 0 16 12" fill="none" xmlns="http://www.w3.org/2000/svg">
<g clip-path="url(#clip0_14655_23523)">
<mask id="mask0_14655_23523" style="mask-type:alpha" maskUnits="userSpaceOnUse" x="0" y="0" width="16" height="12">
<rect width="16" height="12" fill="white"/>
</mask>
<g mask="url(#mask0_14655_23523)">
<path fill-rule="evenodd" clip-rule="evenodd" d="M0 0V12H16V0H0Z" fill="#F50101"/>
<mask id="mask1_14655_23523" style="mask-type:alpha" maskUnits="userSpaceOnUse" x="0" y="0" width="16" height="12">
<path fill-rule="evenodd" clip-rule="evenodd" d="M0 0V12H16V0H0Z" fill="white"/>
</mask>
<g mask="url(#mask1_14655_23523)">
<path fill-rule="evenodd" clip-rule="evenodd" d="M0 0V4H16V0H0Z" fill="#F7FCFF"/>
<path fill-rule="evenodd" clip-rule="evenodd" d="M0 8V12H16V8H0Z" fill="#5EAA22"/>
<rect width="6" height="12" fill="#F50101"/>
<path fill-rule="evenodd" clip-rule="evenodd" d="M5.38519 1.01643C5.38992 0.970824 5.33158 0.953277 5.30832 0.992792C5.12688 1.30101 4.67209 2.03424 3.92346 2.99308V2.53424C3.85205 2.45663 3.6244 2.24784 3.6244 2.24784V1.78968L4.03624 1.41698L3.4706 1.00001L2.87443 1.41698L3.32506 1.78968V2.24784C3.32506 2.46754 3.05186 2.53424 3.05186 2.53424L3.00184 2.93838C2.30537 2.03398 1.87114 1.32881 1.68726 1.01363C1.66353 0.972955 1.60384 0.992116 1.61085 1.03868C1.66635 1.40726 1.83235 2.22506 2.29089 3.09823H2.16791V3.08197C2.16791 3.05796 2.14845 3.03849 2.12443 3.03849H1.07008C1.04607 3.03849 1.02661 3.05796 1.02661 3.08197V3.74502C1.02661 3.76903 1.04607 3.78849 1.07008 3.78849H2.12443C2.14845 3.78849 2.16791 3.76903 2.16791 3.74502V3.39692H2.30069C2.34573 3.50076 2.44916 3.57396 2.57011 3.57608C2.65461 3.70644 2.74624 3.83645 2.8456 3.96483C2.61703 3.94223 1.10635 3.81361 1.10635 4.3632C1.10635 4.69126 1.47379 4.8649 1.93461 4.95466C1.47062 5.37483 1.03266 5.77017 0.831155 5.95196C0.79846 5.98146 0.824017 6.03256 0.866758 6.02196C1.2266 5.93279 2.16983 5.65765 3.06774 5.04509L3.09571 5.04513C3.34859 5.04513 3.52447 4.93543 3.64672 4.78694C4.55998 5.5324 5.59318 5.87668 6.04168 6.00004C6.08821 6.01284 6.11337 5.95261 6.07372 5.92509C5.70943 5.67223 4.88799 5.06369 4.04805 4.17979L4.07008 4.15398C4.24145 3.95176 4.39077 3.74374 4.52088 3.53517C4.57532 3.50333 4.61867 3.4549 4.64382 3.39692H4.77661L4.77661 3.74502C4.77661 3.76903 4.79607 3.78849 4.82008 3.78849H5.87443C5.89844 3.78849 5.91791 3.76903 5.91791 3.74502V3.08197C5.91791 3.05796 5.89844 3.03849 5.87443 3.03849H4.82008C4.80895 3.03849 4.79879 3.04268 4.7911 3.04956C5.22227 2.17681 5.34884 1.36701 5.38519 1.01643ZM4.77661 3.09823L4.77661 3.08197L4.77675 3.07841L4.76677 3.09823H4.77661ZM2.82008 3.28043C2.82008 3.41405 2.71059 3.52236 2.57552 3.52236C2.44045 3.52236 2.33095 3.41405 2.33095 3.28043C2.33095 3.14681 2.44045 3.03849 2.57552 3.03849C2.71059 3.03849 2.82008 3.14681 2.82008 3.28043ZM4.12443 3.28043C4.12443 3.41405 4.23393 3.52236 4.369 3.52236C4.50407 3.52236 4.61356 3.41405 4.61356 3.28043C4.61356 3.14681 4.50407 3.03849 4.369 3.03849C4.23393 3.03849 4.12443 3.14681 4.12443 3.28043Z" fill="#F7FCFF"/>
</g>
</g>
<rect width="16" height="12" fill="url(#paint0_linear_14655_23523)" style="mix-blend-mode:overlay"/>
</g>
<defs>
<linearGradient id="paint0_linear_14655_23523" x1="8" y1="0" x2="8" y2="12" gradientUnits="userSpaceOnUse">
<stop stop-color="white" stop-opacity="0.7"/>
<stop offset="1" stop-opacity="0.3"/>
</linearGradient>
<clipPath id="clip0_14655_23523">
<rect width="16" height="12" rx="1" fill="white"/>
</clipPath>
</defs>
</svg>
