<svg width="16" height="12" viewBox="0 0 16 12" fill="none" xmlns="http://www.w3.org/2000/svg">
<g clip-path="url(#clip0_14655_23539)">
<mask id="mask0_14655_23539" style="mask-type:alpha" maskUnits="userSpaceOnUse" x="0" y="0" width="16" height="12">
<rect width="16" height="12" fill="white"/>
</mask>
<g mask="url(#mask0_14655_23539)">
<path fill-rule="evenodd" clip-rule="evenodd" d="M0 0V12H16V0H0Z" fill="#F7FCFF"/>
<mask id="mask1_14655_23539" style="mask-type:alpha" maskUnits="userSpaceOnUse" x="0" y="0" width="16" height="12">
<path fill-rule="evenodd" clip-rule="evenodd" d="M0 0V12H16V0H0Z" fill="white"/>
</mask>
<g mask="url(#mask1_14655_23539)">
<path fill-rule="evenodd" clip-rule="evenodd" d="M8 0V6H16V0H8Z" fill="#E31D1C"/>
<path fill-rule="evenodd" clip-rule="evenodd" d="M11.5104 9.57484L10.3592 10.2872L10.8061 9.09133L9.82761 8.18599H11.0145L11.5104 6.89244L11.8889 8.18599H13.0776L12.2209 9.09133L12.6404 10.2872L11.5104 9.57484Z" fill="#E31D1C"/>
<path fill-rule="evenodd" clip-rule="evenodd" d="M4.51043 4.1824L3.35921 4.89476L3.80614 3.69889L2.82761 2.79355H4.0145L4.51043 1.5L4.88888 2.79355H6.07761L5.22092 3.69889L5.64036 4.89476L4.51043 4.1824Z" fill="#2E42A5"/>
<path fill-rule="evenodd" clip-rule="evenodd" d="M0 6V12H8V6H0Z" fill="#2E42A5"/>
</g>
</g>
<rect width="16" height="12" fill="url(#paint0_linear_14655_23539)" style="mix-blend-mode:overlay"/>
</g>
<defs>
<linearGradient id="paint0_linear_14655_23539" x1="8" y1="0" x2="8" y2="12" gradientUnits="userSpaceOnUse">
<stop stop-color="white" stop-opacity="0.7"/>
<stop offset="1" stop-opacity="0.3"/>
</linearGradient>
<clipPath id="clip0_14655_23539">
<rect width="16" height="12" rx="1" fill="white"/>
</clipPath>
</defs>
</svg>
