<svg width="16" height="12" viewBox="0 0 16 12" fill="none" xmlns="http://www.w3.org/2000/svg">
<g clip-path="url(#clip0_14655_23514)">
<mask id="mask0_14655_23514" style="mask-type:alpha" maskUnits="userSpaceOnUse" x="0" y="0" width="16" height="12">
<rect width="16" height="12" fill="white"/>
</mask>
<g mask="url(#mask0_14655_23514)">
<path fill-rule="evenodd" clip-rule="evenodd" d="M0 0V12H16V0H0Z" fill="#2E42A5"/>
<mask id="mask1_14655_23514" style="mask-type:alpha" maskUnits="userSpaceOnUse" x="0" y="0" width="16" height="12">
<path fill-rule="evenodd" clip-rule="evenodd" d="M0 0V12H16V0H0Z" fill="white"/>
</mask>
<g mask="url(#mask1_14655_23514)">
<path fill-rule="evenodd" clip-rule="evenodd" d="M10.308 5.83452C10.308 5.83452 10.3574 6.3545 10.2492 6.64913C10.1409 6.94377 10.0859 7.11481 10.0859 6.92647C10.0859 6.73814 10.0099 6.58888 9.94877 6.58888C9.88763 6.58888 9.93589 6.77565 9.87445 6.77565C9.81301 6.77565 9.60133 6.80776 9.60133 6.69832C9.60133 6.58888 9.57348 6.9919 9.71083 7.02795C9.84819 7.06399 9.64414 7.17583 9.55304 7.14119C9.55304 7.14119 9.92776 7.2569 10.0747 7.35549C10.0747 7.35549 10.5152 7.87793 10.9272 7.81419C10.9272 7.81419 10.3662 7.63021 10.465 7.27868C10.5639 6.92714 10.9272 6.87629 10.9272 6.87629C10.9272 6.87629 11.0977 6.93047 11.0926 7.07237C11.0875 7.21427 11.2173 7.02795 11.2173 7.02795C11.2173 7.02795 11.2382 6.84866 11.2152 6.80491C11.1921 6.76116 11.6057 6.67648 11.6318 6.49185C11.6318 6.49185 11.2092 6.51021 11.1802 6.46278C11.1512 6.41535 11.311 6.341 11.261 6.24854C11.211 6.15609 10.465 6.77565 10.465 6.77565C10.465 6.77565 10.7226 6.35395 10.7226 6.1275C10.7226 5.90104 10.6572 5.74628 10.465 5.74628C10.2729 5.74628 10.308 5.83452 10.308 5.83452Z" fill="#5EAA22"/>
<path fill-rule="evenodd" clip-rule="evenodd" d="M14.1917 5.95812C14.1912 5.95889 14.1922 5.95961 14.1929 5.95898C14.2204 5.93322 14.3918 5.78329 14.5353 5.90168C14.6919 6.03082 14.4564 6.15666 14.4564 6.15666C14.4564 6.15666 14.5665 6.25811 14.6924 6.25811C14.8183 6.25811 14.8492 6.15666 14.8492 6.15666C14.8492 6.15666 14.8588 6.38242 15.2694 6.4679C15.2694 6.4679 15.4159 6.26807 15.2694 6.15867C15.2694 6.15867 15.4425 6.12456 15.4299 5.99139C15.4299 5.99139 15.2877 6.03744 15.1862 5.93162C15.0847 5.82579 14.887 5.77699 14.7432 5.80139C14.3782 5.67633 14.2139 5.92138 14.1917 5.95812Z" fill="#5EAA22"/>
<path fill-rule="evenodd" clip-rule="evenodd" d="M11.7018 7.09712C11.7018 7.09712 12.1264 7.85586 11.8611 8.01308C11.5957 8.1703 13.1229 8.05846 13.2668 8.01308C13.4107 7.9677 13.2378 7.72848 13.0782 7.66206C12.9186 7.59565 12.2625 7.37468 12.088 7.20803C11.9135 7.04138 12.02 6.98225 12.1606 6.81774C12.3012 6.65323 12.8216 6.58744 12.8216 6.43368C12.8216 6.27992 13.1517 5.64577 13.3824 5.59792C13.6131 5.55008 13.4885 5.47473 13.4354 5.47473C13.3824 5.47473 13.0634 5.78706 12.9425 5.73071C12.8216 5.67436 12.8068 5.67832 12.9425 5.54212C13.0782 5.40591 13.1804 5.24914 13.001 5.36194C12.8216 5.47473 12.5258 5.65325 12.3837 5.65325C12.2415 5.65325 11.7354 5.59236 11.7982 5.73071C11.8611 5.86906 11.8877 6.1092 12.1606 6.27144C12.4335 6.43368 12.3149 6.5524 12.088 6.70873C11.8611 6.86507 11.7018 7.09712 11.7018 7.09712Z" fill="#96877D"/>
<path d="M14.5193 6.09376L13.7102 7.6353C13.7102 7.6353 13.6867 8.07075 14.2651 7.78058C14.8435 7.49042 14.8207 7.28463 14.9875 7.28463C15.1543 7.28463 15.2073 7.19665 15.2073 7.19665L15.0962 7.11366C15.0962 7.11366 15.0833 6.96229 15.1537 6.9283C15.1537 6.9283 15.0156 6.85605 14.9959 6.91637C14.9762 6.97668 14.8789 6.7902 14.9339 6.7902C14.9339 6.7902 14.8122 6.97742 14.7865 7.05046C14.7865 7.05046 14.6104 6.98244 14.6189 6.66727C14.6273 6.3521 14.5193 6.09376 14.5193 6.09376Z" fill="#FFD018"/>
<path d="M10.6682 5.84965C10.6682 5.84965 10.2562 5.94076 10.3006 6.03559C10.345 6.13041 10.4105 6.03303 10.2088 6.1473C10.2088 6.1473 9.85444 6.40759 9.77721 6.37938C9.69997 6.35117 9.83191 6.44494 9.83191 6.1473C9.83191 5.84965 9.62613 6.09194 9.83191 5.89324C10.0377 5.69454 10.1098 5.84965 10.2088 5.73532C10.3078 5.62099 10.2188 5.68178 10.4872 5.68178C10.7557 5.68178 10.6682 5.84965 10.6682 5.84965Z" fill="#FFD018"/>
<path d="M11.9253 7.38169C11.9253 7.38169 10.7718 8.24287 10.5412 8.30715C10.3107 8.37143 11.0154 8.28947 11.1876 8.17577C11.3597 8.06208 11.9253 7.38169 11.9253 7.38169Z" fill="#FFD018"/>
<path fill-rule="evenodd" clip-rule="evenodd" d="M14.2123 8.89243C14.2123 8.89243 14.323 9.57093 14.0339 9.50416C13.7449 9.43738 13.6249 9.40284 13.6249 9.40284C13.6249 9.40284 13.731 9.71887 13.8825 9.71887C13.8825 9.71887 14.1406 10.1967 14.0413 10.3476C14.0413 10.3476 14.4859 10.0049 14.414 9.7325C14.3421 9.46005 14.5289 9.77734 14.5289 9.77734C14.5289 9.77734 14.6925 9.85239 14.8108 9.76857C14.9291 9.68475 14.8093 9.72201 14.691 9.56242C14.5728 9.40284 14.602 8.95466 14.2422 8.72239C13.8825 8.49011 13.7987 8.49753 13.7987 8.49753C13.7987 8.49753 13.5338 8.086 13.6925 8.11322C13.6925 8.11322 14.8301 8.48368 14.8596 8.57863C14.8892 8.67358 15.1909 8.65618 15.04 8.3847C14.8892 8.11322 14.076 7.9496 13.9792 7.87304C13.8825 7.79648 13.9725 7.50609 13.7987 7.44283C13.6249 7.37958 13.1501 6.93069 13.1504 6.71438C13.1507 6.49806 12.9273 6.39623 12.733 6.39623C12.5388 6.39623 12.173 6.34292 12.0184 6.34292C11.8639 6.34292 11.7199 6.5885 11.8692 6.5885C12.0184 6.5885 11.8909 7.04829 11.641 7.14877C11.391 7.24925 11.1977 7.39368 10.9123 7.39368C10.6268 7.39368 11.3164 7.62749 11.4263 7.53516C11.5362 7.44283 11.5001 7.30525 11.8692 7.14877C12.2382 6.99229 12.5905 6.89964 12.5459 7.02421C12.5013 7.14877 12.6151 7.35713 12.7889 7.28171C12.9628 7.2063 13.0186 7.01583 13.0186 7.14877C13.0186 7.28171 13.2851 7.96454 13.4888 8.23103C13.6925 8.49753 14.2123 8.89243 14.2123 8.89243Z" fill="#5EAA22"/>
<path d="M11.7856 6.39911C11.7856 6.39911 11.6503 6.60382 11.7856 6.60382C11.9208 6.60382 12.1383 6.60382 12.0058 6.50147C11.8733 6.39911 11.7856 6.39911 11.7856 6.39911Z" fill="#FFD018"/>
<path d="M12.2375 6.39419C12.2375 6.39419 12.2381 6.53029 12.3319 6.53029C12.4256 6.53029 12.509 6.6664 12.509 6.53029C12.509 6.39419 12.6393 6.43933 12.4384 6.39419C12.2375 6.34905 12.2375 6.39419 12.2375 6.39419Z" fill="#FFD018"/>
<path d="M12.8148 6.42537C12.8148 6.42537 12.7244 6.49 12.7696 6.60529C12.8148 6.72058 12.917 6.94873 12.7696 6.94873C12.6222 6.94873 12.501 7.03099 12.6161 7.03099C12.7312 7.03099 12.9361 7.11324 12.9361 7.03099C12.9361 6.94873 13.0194 7.16662 13.0194 7.03099C13.0194 6.89536 13.0194 6.83055 13.0194 6.75101C13.0194 6.67146 13.1027 6.6486 13.0194 6.53698C12.9361 6.42537 12.8148 6.42537 12.8148 6.42537Z" fill="#FFD018"/>
<path d="M13.0236 7.21906C13.0236 7.21906 13.2119 7.78215 13.3143 7.85474C13.4167 7.92734 13.4627 8.53885 13.5076 8.60533C13.5526 8.67182 14.165 9.0074 14.165 9.18748C14.165 9.36756 14.3535 9.0491 14.2592 8.87077C14.165 8.69245 13.8681 8.31278 13.6546 8.22998C13.4411 8.14718 13.4682 7.94669 13.4233 7.80578C13.3784 7.66488 13.6889 7.91963 13.4233 7.60002C13.1577 7.2804 13.1647 7.45191 13.2395 7.45191C13.3143 7.45191 13.3891 7.41415 13.3143 7.36448C13.2395 7.31481 13.0236 7.21906 13.0236 7.21906Z" fill="#FFD018"/>
<path d="M11.027 8.38029C11.027 8.38029 10.4153 9.40658 10.3062 9.45961C10.197 9.51263 10.1156 9.52341 10.0598 9.45961C10.0041 9.39581 9.99834 9.63083 10.0598 9.69518C10.1214 9.75952 10.3062 9.75952 10.4087 9.64526C10.4087 9.64526 10.4249 9.93398 10.5847 10.1516C10.7445 10.3693 10.811 10.3092 10.811 10.4323C10.811 10.5554 10.8488 10.7184 10.8975 10.7184C10.9463 10.7184 10.9841 11.1058 10.8975 11.1058C10.811 11.1058 11.098 11.1376 11.2231 11.0407C11.3483 10.9438 11.4017 10.87 11.375 10.87C11.3483 10.87 11.027 10.7094 11.027 10.5957C11.027 10.482 10.811 10.393 10.811 10.2243C10.811 10.0556 10.6988 9.85495 10.6988 9.77507C10.6988 9.69518 10.7947 9.8059 10.8975 9.73024C11.0003 9.65459 11.027 9.45961 11.027 9.45961C11.027 9.45961 10.8651 9.56278 10.811 9.51119C10.7569 9.45961 10.5866 9.35778 10.6988 9.18307C10.811 9.00836 11.027 8.38029 11.027 8.38029Z" fill="#FFD018"/>
<path fill-rule="evenodd" clip-rule="evenodd" d="M12.0871 5.14355C12.0871 5.14355 11.8681 5.2361 11.9411 5.37362C12.0141 5.51113 12.0403 5.57203 12.0871 5.54158C12.1339 5.51113 12.462 5.45357 12.3885 5.29856C12.315 5.14355 12.161 5.14355 12.161 5.14355H12.0871Z" fill="#5EAA22"/>
<path d="M12.8469 5.06919C12.8469 5.06919 12.5576 4.94757 12.6541 5.06919C12.7505 5.19081 12.8739 5.25492 12.9626 5.25492C13.0514 5.25492 13.2358 5.22978 13.1436 5.18072C13.0514 5.13165 12.8469 5.06919 12.8469 5.06919Z" fill="#FFD018"/>
<path fill-rule="evenodd" clip-rule="evenodd" d="M9.99069 8.23027C9.99215 8.22275 9.98327 8.21733 9.97759 8.22247C9.91763 8.27672 9.73617 8.45913 9.81303 8.61777C9.90452 8.80659 9.996 8.87215 9.996 8.87215C9.996 8.87215 10.0517 9.16122 10.1669 9.2399C10.1669 9.2399 10.3215 9.23238 10.3292 9.00736C10.3292 9.00736 10.5919 8.93416 10.6691 9.08997C10.6691 9.08997 10.6182 9.1075 10.6182 9.2399C10.6182 9.3723 10.737 9.51573 10.737 9.51573C10.737 9.51573 10.7914 9.05908 11.036 8.76466C11.2806 8.47025 11.3506 8.41214 11.3506 8.41214V8.08085C11.3506 8.08085 10.8445 8.47258 10.737 8.79829C10.737 8.79829 10.4822 8.80636 10.3786 8.76466C10.2751 8.72296 10.5079 8.65455 10.3786 8.50632C10.2493 8.35809 10.3086 8.71503 10.1669 8.61777C9.94527 8.55923 9.97535 8.30898 9.99069 8.23027Z" fill="#5EAA22"/>
<path fill-rule="evenodd" clip-rule="evenodd" d="M11.0934 7.9425L13.6857 7.9425V9.44714C13.6857 9.44714 13.4744 10.6766 12.3454 11.2823C12.3454 11.2823 11.2519 10.6682 11.0934 9.44714V7.9425Z" fill="#5EAA22"/>
<mask id="mask2_14655_23514" style="mask-type:alpha" maskUnits="userSpaceOnUse" x="11" y="7" width="3" height="5">
<path fill-rule="evenodd" clip-rule="evenodd" d="M11.0934 7.9425L13.6857 7.9425V9.44714C13.6857 9.44714 13.4744 10.6766 12.3454 11.2823C12.3454 11.2823 11.2519 10.6682 11.0934 9.44714V7.9425Z" fill="white"/>
</mask>
<g mask="url(#mask2_14655_23514)">
<path fill-rule="evenodd" clip-rule="evenodd" d="M12.3258 7.86121L11.1932 10.094L12.7292 8.76895L13.7863 10.4335V7.86121L12.7292 8.68446L12.3258 7.86121Z" fill="#58A5FF"/>
<path d="M12.2901 9.4757C12.2901 9.42903 12.328 9.3912 12.3746 9.3912C12.4213 9.3912 12.4591 9.42903 12.4591 9.4757V10.901C12.4591 10.9476 12.4213 10.9855 12.3746 10.9855C12.328 10.9855 12.2901 10.9476 12.2901 10.901L12.2901 9.4757Z" fill="#FFD018"/>
<path d="M11.9921 9.82498C11.9486 9.82498 11.9132 9.78967 11.9132 9.74611C11.9132 9.70255 11.9486 9.66724 11.9921 9.66724H12.764C12.8076 9.66724 12.8429 9.70255 12.8429 9.74611C12.8429 9.78967 12.8076 9.82498 12.764 9.82498H11.9921Z" fill="#FFD018"/>
<path d="M12.5317 10.7952L12.4457 10.8655C12.319 10.7105 12.2034 10.636 12.1013 10.636C11.9508 10.636 11.8285 10.5097 11.7288 10.2701L11.8314 10.2274C11.9157 10.43 12.0076 10.5249 12.1013 10.5249C12.2432 10.5249 12.386 10.6169 12.5317 10.7952Z" fill="#FFD018"/>
<path fill-rule="evenodd" clip-rule="evenodd" d="M11.629 9.88835C11.6285 9.88788 11.6277 9.88824 11.6277 9.88893V10.43C11.6277 10.4306 11.6282 10.431 11.6287 10.4308L12.033 10.2632C12.0336 10.263 12.0337 10.2623 12.0333 10.2619L11.629 9.88835Z" fill="#FFD018"/>
<path d="M12.2542 10.7952L12.3402 10.8655C12.4669 10.7105 12.5825 10.636 12.6847 10.636C12.8351 10.636 12.9574 10.5097 13.0571 10.2701L12.9546 10.2274C12.8702 10.43 12.7784 10.5249 12.6847 10.5249C12.5427 10.5249 12.3999 10.6169 12.2542 10.7952Z" fill="#FFD018"/>
<path fill-rule="evenodd" clip-rule="evenodd" d="M13.1569 9.88835C13.1574 9.88788 13.1583 9.88824 13.1583 9.88893V10.43C13.1583 10.4306 13.1577 10.431 13.1572 10.4308L12.7529 10.2632C12.7524 10.263 12.7522 10.2623 12.7527 10.2619L13.1569 9.88835Z" fill="#FFD018"/>
<rect x="12.2042" y="8.82784" width="0.338028" height="0.478481" fill="white"/>
</g>
</g>
</g>
<mask id="mask3_14655_23514" style="mask-type:alpha" maskUnits="userSpaceOnUse" x="0" y="0" width="9" height="7">
<rect width="9" height="7" fill="white"/>
</mask>
<g mask="url(#mask3_14655_23514)">
<path d="M-1.00214 6.49991L0.978339 7.36852L9.04494 0.944376L10.0896 -0.34639L7.97176 -0.636702L4.68159 2.13164L2.03334 3.99686L-1.00214 6.49991Z" fill="#F7FCFF"/>
<path d="M-0.731018 7.10848L0.277943 7.61254L9.71445 -0.466316H8.29775L-0.731018 7.10848Z" fill="#F50100"/>
<path d="M10.0021 6.49991L8.02166 7.36852L-0.0449371 0.944376L-1.08959 -0.34639L1.02824 -0.636702L4.31841 2.13164L6.96666 3.99686L10.0021 6.49991Z" fill="#F7FCFF"/>
<path d="M9.93457 6.93667L8.92561 7.44073L4.90745 3.98176L3.71615 3.59529L-1.1901 -0.341973H0.226597L5.13009 3.50184L6.43256 3.96525L9.93457 6.93667Z" fill="#F50100"/>
<mask id="path-35-outside-1_14655_23514" maskUnits="userSpaceOnUse" x="-1" y="-1" width="11" height="9" fill="black">
<rect fill="white" x="-1" y="-1" width="11" height="9"/>
<path fill-rule="evenodd" clip-rule="evenodd" d="M4.99226 0H3.99226V3H0V4H3.99226V7H4.99226V4H9V3H4.99226V0Z"/>
</mask>
<path fill-rule="evenodd" clip-rule="evenodd" d="M4.99226 0H3.99226V3H0V4H3.99226V7H4.99226V4H9V3H4.99226V0Z" fill="#F50100"/>
<path d="M3.99226 0V-0.75H3.24226V0H3.99226ZM4.99226 0H5.74226V-0.75H4.99226V0ZM3.99226 3V3.75H4.74226V3H3.99226ZM0 3V2.25H-0.75V3H0ZM0 4H-0.75V4.75H0V4ZM3.99226 4H4.74226V3.25H3.99226V4ZM3.99226 7H3.24226V7.75H3.99226V7ZM4.99226 7V7.75H5.74226V7H4.99226ZM4.99226 4V3.25H4.24226V4H4.99226ZM9 4V4.75H9.75V4H9ZM9 3H9.75V2.25H9V3ZM4.99226 3H4.24226V3.75H4.99226V3ZM3.99226 0.75H4.99226V-0.75H3.99226V0.75ZM4.74226 3V0H3.24226V3H4.74226ZM0 3.75H3.99226V2.25H0V3.75ZM0.75 4V3H-0.75V4H0.75ZM3.99226 3.25H0V4.75H3.99226V3.25ZM4.74226 7V4H3.24226V7H4.74226ZM4.99226 6.25H3.99226V7.75H4.99226V6.25ZM4.24226 4V7H5.74226V4H4.24226ZM9 3.25H4.99226V4.75H9V3.25ZM8.25 3V4H9.75V3H8.25ZM4.99226 3.75H9V2.25H4.99226V3.75ZM4.24226 0V3H5.74226V0H4.24226Z" fill="#F7FCFF" mask="url(#path-35-outside-1_14655_23514)"/>
</g>
<rect width="16" height="12" fill="url(#paint0_linear_14655_23514)" style="mix-blend-mode:overlay"/>
</g>
<defs>
<linearGradient id="paint0_linear_14655_23514" x1="8" y1="0" x2="8" y2="12" gradientUnits="userSpaceOnUse">
<stop stop-color="white" stop-opacity="0.7"/>
<stop offset="1" stop-opacity="0.3"/>
</linearGradient>
<clipPath id="clip0_14655_23514">
<rect width="16" height="12" rx="1" fill="white"/>
</clipPath>
</defs>
</svg>
