<svg width="16" height="12" viewBox="0 0 16 12" fill="none" xmlns="http://www.w3.org/2000/svg">
<g clip-path="url(#clip0_14655_23519)">
<mask id="mask0_14655_23519" style="mask-type:alpha" maskUnits="userSpaceOnUse" x="0" y="0" width="16" height="12">
<rect width="16" height="12" fill="white"/>
</mask>
<g mask="url(#mask0_14655_23519)">
<path fill-rule="evenodd" clip-rule="evenodd" d="M4 0H16V12H4V0Z" fill="#EF0000"/>
<path fill-rule="evenodd" clip-rule="evenodd" d="M0 0H6V12H0V0Z" fill="#2F8D00"/>
<mask id="mask1_14655_23519" style="mask-type:alpha" maskUnits="userSpaceOnUse" x="2" y="2" width="8" height="8">
<path fill-rule="evenodd" clip-rule="evenodd" d="M5.95239 9.90361C3.82215 9.90361 2.09525 8.1559 2.09525 6C2.09525 3.84409 3.82215 2.09638 5.95239 2.09638C8.08263 2.09638 9.80953 3.84409 9.80953 6C9.80953 8.1559 8.08263 9.90361 5.95239 9.90361Z" fill="white"/>
</mask>
<g mask="url(#mask1_14655_23519)">
<path fill-rule="evenodd" clip-rule="evenodd" d="M5.71429 2H6.21429V3.3494H5.71429V2Z" fill="#FFE017"/>
<path fill-rule="evenodd" clip-rule="evenodd" d="M5.71429 8.74699H6.21429V10H5.71429V8.74699Z" fill="#FFE017"/>
<path d="M2.15725 6.20188L2.01746 5.84324C3.56005 5.2274 4.72433 4.83024 5.51432 4.65125C6.67338 4.38865 7.94692 4.19436 9.33502 4.06823L9.36909 4.45223C7.99691 4.57691 6.7397 4.76871 5.59755 5.02748C4.83107 5.20114 3.68296 5.59278 2.15725 6.20188Z" fill="#FFE017"/>
<path d="M9.57042 3.83194L9.45698 4.2C8.29112 3.83194 7.34141 3.67373 6.61139 3.72273L6.58618 3.33804C7.36998 3.28542 8.36354 3.45094 9.57042 3.83194Z" fill="#FFE017"/>
<path d="M9.97383 5.88988L9.75833 6.20781C9.16399 5.79517 8.43177 5.5879 7.55667 5.5879V5.20236C8.50536 5.20236 9.31275 5.4309 9.97383 5.88988Z" fill="#FFE017"/>
<path d="M9.65101 6.00527L9.7495 6.37771C8.46818 6.72477 7.26521 6.92168 6.14049 6.96805C5.00801 7.01474 3.68808 6.81713 2.17957 6.37671L2.28516 6.00627C3.75701 6.43599 5.03733 6.62767 6.12498 6.58283C7.22039 6.53767 8.39577 6.34528 9.65101 6.00527Z" fill="#FFE017"/>
<path d="M9.50587 7.81794L8.9037 8.43528C7.75935 7.29199 6.75189 6.47451 5.88751 5.98332C5.00835 5.48375 3.86186 4.97646 2.4498 4.46351L2.73937 3.64704C4.19307 4.17512 5.38174 4.70107 6.30715 5.22693C7.24734 5.76119 8.31151 6.62469 9.50587 7.81794Z" fill="#FFE017"/>
<path d="M2.72915 8.16765L2.50122 7.85873C2.53305 7.83467 2.58984 7.79456 2.66809 7.74372C2.79729 7.65979 2.94076 7.57599 3.09512 7.49768C3.52028 7.28201 3.94675 7.14736 4.3535 7.13499C4.3734 7.13438 4.39321 7.13408 4.41293 7.13408V7.51962C4.39704 7.51962 4.38105 7.51987 4.36495 7.52036C4.02216 7.53078 3.64573 7.64964 3.26583 7.84235C3.12423 7.91418 2.99229 7.99124 2.87389 8.06817C2.83267 8.09495 2.7962 8.1197 2.76496 8.14178C2.74674 8.15464 2.73465 8.16349 2.72915 8.16765Z" fill="#FFE017"/>
<path d="M2.9061 8.30129L3.00203 7.92817C4.27209 8.26264 5.25123 8.42932 5.93458 8.42932C6.61537 8.42932 7.62867 8.23272 8.96788 7.83815L9.07437 8.20832C7.70347 8.61223 6.65907 8.81486 5.93458 8.81486C5.21264 8.81486 4.20477 8.6433 2.9061 8.30129Z" fill="#FFE017"/>
<path d="M2.41122 4.84721L3.01476 4.23124L3.89842 5.11806L3.29488 5.73403L2.41122 4.84721Z" fill="#FFE017"/>
<path d="M7.41797 7.92387L7.86689 7.18489L9.2687 8.05712L8.81978 8.7961L7.41797 7.92387Z" fill="#FFE017"/>
</g>
<path fill-rule="evenodd" clip-rule="evenodd" d="M2.09525 6C2.09525 8.1559 3.82215 9.90361 5.95239 9.90361C8.08263 9.90361 9.80953 8.1559 9.80953 6C9.80953 3.84409 8.08263 2.09638 5.95239 2.09638C3.82215 2.09638 2.09525 3.84409 2.09525 6ZM9.33334 6.04819C9.33334 7.91132 7.84096 9.42168 6.00001 9.42168C4.15906 9.42168 2.66667 7.91132 2.66667 6.04819C2.66667 4.18506 4.15906 2.6747 6.00001 2.6747C7.84096 2.6747 9.33334 4.18506 9.33334 6.04819Z" fill="#F9E813"/>
<path d="M3.82834 3.59263V6.72298C4.03441 7.96202 4.72864 8.58154 5.91103 8.58154C7.09343 8.58154 7.78766 7.96202 7.99373 6.72298V3.59263H3.82834Z" fill="white"/>
<path d="M3.04263 3H8.57945V6.71137L8.57482 6.73706C8.30735 8.21984 7.35917 9 5.81104 9C4.26291 9 3.31473 8.21984 3.04727 6.73706L3.04263 6.71137V3Z" fill="#C51918"/>
<path fill-rule="evenodd" clip-rule="evenodd" d="M4.52381 3.95301H3.62381V4.85301H4.52381V3.95301ZM8.02381 3.95301H7.12381V4.85301H8.02381V3.95301Z" fill="#F9E813"/>
<path fill-rule="evenodd" clip-rule="evenodd" d="M3.62381 5.95301H4.52381V6.85301H3.62381V5.95301ZM7.1736 5.96717H8.0736V6.86717H7.1736V5.96717ZM7.18722 7.42464H6.28722V8.32464H7.18722V7.42464Z" fill="#F9E813"/>
<path fill-rule="evenodd" clip-rule="evenodd" d="M4.32428 7.42062H5.22428V8.32062H4.32428V7.42062Z" fill="#F9E813"/>
<path d="M4.42612 4.35535H7.39598V6.5758C7.39598 6.5758 7.17559 7.72245 5.91105 7.72245C4.6465 7.72245 4.42612 6.5758 4.42612 6.5758V4.35535Z" fill="#F7FCFF"/>
<path d="M5.61905 4.60241H6.27922V5.08315C6.27922 5.08315 6.23023 5.3314 5.94913 5.3314C5.66804 5.3314 5.61905 5.08315 5.61905 5.08315V4.60241Z" fill="#013399"/>
<path d="M5.61905 5.66265H6.27922V6.14339C6.27922 6.14339 6.23023 6.39164 5.94913 6.39164C5.66804 6.39164 5.61905 6.14339 5.61905 6.14339V5.66265Z" fill="#013399"/>
<path d="M6.4762 5.66265H7.13636V6.14339C7.13636 6.14339 7.08737 6.39164 6.80628 6.39164C6.52519 6.39164 6.4762 6.14339 6.4762 6.14339V5.66265Z" fill="#013399"/>
<path d="M4.7619 5.66265H5.42207V6.14339C5.42207 6.14339 5.37308 6.39164 5.09198 6.39164C4.81089 6.39164 4.7619 6.14339 4.7619 6.14339V5.66265Z" fill="#013399"/>
<path d="M5.61905 6.72289H6.27922V7.20363C6.27922 7.20363 6.23023 7.45188 5.94913 7.45188C5.66804 7.45188 5.61905 7.20363 5.61905 7.20363V6.72289Z" fill="#013399"/>
</g>
<rect width="16" height="12" fill="url(#paint0_linear_14655_23519)" style="mix-blend-mode:overlay"/>
</g>
<defs>
<linearGradient id="paint0_linear_14655_23519" x1="8" y1="0" x2="8" y2="12" gradientUnits="userSpaceOnUse">
<stop stop-color="white" stop-opacity="0.7"/>
<stop offset="1" stop-opacity="0.3"/>
</linearGradient>
<clipPath id="clip0_14655_23519">
<rect width="16" height="12" rx="1" fill="white"/>
</clipPath>
</defs>
</svg>
