<svg width="16" height="12" viewBox="0 0 16 12" fill="none" xmlns="http://www.w3.org/2000/svg">
<g clip-path="url(#clip0_14655_23496)">
<mask id="mask0_14655_23496" style="mask-type:alpha" maskUnits="userSpaceOnUse" x="0" y="0" width="16" height="12">
<rect width="16" height="12" fill="white"/>
</mask>
<g mask="url(#mask0_14655_23496)">
<rect width="16" height="12" fill="#67BD23"/>
<path d="M3.49086 2.28776C3.49086 2.28776 3.7462 3.45242 3.49086 3.22905C3.23551 3.00567 2.66819 3.85693 3.26083 3.54299C3.85347 3.22905 3.95779 2.90364 3.95779 3.54299C3.95779 4.18234 4.24118 3.85704 3.75101 4.33227C3.26083 4.8075 5.46903 4.81492 4.47994 5.11239C3.49086 5.40985 3.02207 6.04407 3.75101 5.81088C4.47994 5.57768 5.65344 4.59 5.34714 4.33227C5.04083 4.07454 5.19142 4.12734 5.19142 3.54299C5.19142 2.95864 4.99696 2.80794 4.74347 2.65703C4.48998 2.50611 5.72972 3.67776 6.14395 2.98276C6.55817 2.28776 6.50831 2.73647 6.80774 2.98276C7.10717 3.22905 7.57345 3.52629 7.57345 2.98276C7.57345 2.43922 8.18824 1.39045 8.18824 2.46672C8.18824 3.54299 8.95992 4.0994 8.95992 3.37822C8.95992 2.65703 9.66958 1.95068 9.66958 2.46672C9.66958 2.98276 10.077 2.95886 10.4252 2.80794C10.7735 2.65703 10.744 2.25884 10.744 3.37822C10.744 4.49759 10.8899 6.24692 10.4252 6.09945C9.9606 5.95197 10.3949 5.28633 9.95984 4.33227C9.52477 3.37822 10.4032 3.37483 9.49531 4.59285C8.58741 5.81088 8.73159 5.63192 8.45992 5.11239C8.18824 4.59285 9.34639 4.07169 8.45992 4.33227C7.57345 4.59285 8.05533 6.05149 7.81439 5.58194C7.57345 5.11239 6.95797 2.61807 6.88285 3.86523C6.80774 5.11239 7.11941 5.81088 6.45992 5.81088C5.80043 5.81088 5.2426 5.86129 5.69327 5.58194C6.14395 5.30259 6.14395 4.33227 6.14395 4.33227" stroke="white" stroke-width="0.5"/>
<path fill-rule="evenodd" clip-rule="evenodd" d="M6.96684 7.92782C6.56023 7.97706 4.50554 7.96862 3.89174 7.82054C3.75422 7.79154 3.83284 8.41868 3.92182 8.56281C4.01081 8.70693 4.70934 8.85134 4.95289 8.88459C5.16187 8.91313 5.96705 8.86821 6.804 8.82152C6.94247 8.81379 7.0818 8.80602 7.21946 8.79852C7.95219 8.75862 9.0226 8.82817 9.58236 8.86454C9.76336 8.8763 9.89098 8.88459 9.93651 8.88459C10.1081 8.88459 10.0952 8.94249 10.0693 9.05882C10.067 9.06886 10.0647 9.07934 10.0624 9.09025C10.0331 9.22759 10.1869 9.52256 10.2547 9.55031C10.3225 9.57805 10.8269 9.55031 11.1017 9.44427C11.2581 9.3839 11.2766 9.39226 11.3173 9.41067C11.3481 9.42459 11.3917 9.44427 11.5173 9.44427C11.7061 9.44427 11.7159 9.17394 11.7228 8.9831C11.7266 8.87898 11.7295 8.79852 11.7601 8.79852C11.7945 8.79852 11.8407 8.9006 11.8839 8.99616C11.9498 9.14187 12.0088 9.27241 12.0088 9.0027C12.0088 8.55611 11.4836 7.97129 11.3119 8.01808C11.1915 8.05088 10.9933 8.01469 10.8587 7.99012C10.8013 7.97965 10.7555 7.97129 10.7323 7.97129C10.6986 7.97129 10.7087 7.96312 10.731 7.94514C10.7601 7.92163 10.8101 7.88133 10.8101 7.82054C10.8101 7.71326 10.708 7.69807 10.623 7.69807C10.538 7.69807 10.4926 7.76755 10.4926 7.82054C10.4926 7.87353 10.5567 7.92782 10.5567 7.92782C10.5434 7.92782 10.4763 7.92694 10.3692 7.92552C9.67812 7.91639 7.31889 7.8852 6.96684 7.92782ZM10.4375 8.87308C10.4375 8.87298 10.4916 8.84163 10.617 8.68705C10.7558 8.51591 10.8049 8.57062 10.8561 8.62764C10.8825 8.65704 10.9094 8.68705 10.9495 8.68705C11.0673 8.68705 11.2229 8.68705 11.3241 8.77295C11.4253 8.85885 11.1909 8.97691 11.1227 8.97691C11.0888 8.97691 11.0637 8.95577 11.0385 8.93447C11.0129 8.91283 10.987 8.89102 10.9515 8.89102C10.9097 8.89102 10.8745 8.92134 10.8459 8.94596C10.8264 8.96277 10.8099 8.97691 10.7966 8.97691C10.785 8.97691 10.7592 8.96217 10.7257 8.94311C10.6646 8.90822 10.5781 8.85885 10.5069 8.85885C10.4625 8.85885 10.4376 8.87314 10.4375 8.87308Z" fill="white"/>
<path d="M3.89174 7.82054L3.90347 7.77192L3.90206 7.77162L3.89174 7.82054ZM6.96684 7.92782L6.97285 7.97746L6.96684 7.92782ZM3.92182 8.56281L3.96437 8.53654L3.92182 8.56281ZM4.95289 8.88459L4.95966 8.83505L4.95289 8.88459ZM6.804 8.82152L6.80121 8.7716L6.804 8.82152ZM7.21946 8.79852L7.22217 8.84845L7.21946 8.79852ZM9.58236 8.86454L9.57912 8.91443L9.58236 8.86454ZM10.0693 9.05882L10.1181 9.0697V9.0697L10.0693 9.05882ZM10.0624 9.09025L10.0135 9.07985V9.07985L10.0624 9.09025ZM11.1017 9.44427L11.1197 9.49091L11.1017 9.44427ZM11.3173 9.41067L11.3379 9.3651V9.3651L11.3173 9.41067ZM11.7228 8.9831L11.7728 8.98491V8.98491L11.7228 8.9831ZM11.8839 8.99616L11.9294 8.97556V8.97556L11.8839 8.99616ZM11.3119 8.01808L11.2988 7.96984V7.96984L11.3119 8.01808ZM10.8587 7.99012L10.8497 8.03931L10.8587 7.99012ZM10.731 7.94514L10.6996 7.90622V7.90622L10.731 7.94514ZM10.5567 7.92782V7.97782H10.693L10.589 7.88968L10.5567 7.92782ZM10.3692 7.92552L10.3686 7.97552L10.3692 7.92552ZM10.617 8.68705L10.6558 8.71856L10.617 8.68705ZM10.4375 8.87308L10.4809 8.84817L10.4808 8.848L10.4375 8.87308ZM10.8561 8.62764L10.8189 8.66104L10.8189 8.66104L10.8561 8.62764ZM11.3241 8.77295L11.3565 8.73483L11.3241 8.77295ZM11.0385 8.93447L11.0062 8.97267L11.0385 8.93447ZM10.8459 8.94596L10.8785 8.98385L10.8459 8.94596ZM10.7257 8.94311L10.7505 8.89968L10.7257 8.94311ZM10.5069 8.85885V8.80885V8.85885ZM3.88001 7.86915C4.19311 7.94468 4.86587 7.98373 5.50586 7.99816C6.14663 8.01262 6.76545 8.00258 6.97285 7.97746L6.96083 7.87819C6.76162 7.90231 6.14979 7.91266 5.50812 7.89819C4.86566 7.8837 4.20417 7.84448 3.90347 7.77194L3.88001 7.86915ZM3.96437 8.53654C3.94684 8.50815 3.92664 8.44907 3.90902 8.37094C3.89182 8.2947 3.8783 8.20606 3.87169 8.1228C3.86501 8.03868 3.86569 7.96366 3.87507 7.91315C3.8799 7.88716 3.88604 7.87343 3.8901 7.86793C3.8917 7.86577 3.89141 7.86705 3.88843 7.86834C3.88496 7.86986 3.88201 7.86959 3.88142 7.86947L3.90206 7.77162C3.88428 7.76787 3.86583 7.7691 3.84844 7.77669C3.83156 7.78406 3.81894 7.79598 3.8097 7.80847C3.79209 7.83228 3.7825 7.86391 3.77675 7.89489C3.76498 7.95831 3.76509 8.04364 3.772 8.13071C3.77898 8.21862 3.7932 8.31198 3.81147 8.39295C3.82931 8.47204 3.85232 8.5454 3.87928 8.58907L3.96437 8.53654ZM4.95966 8.83505C4.84 8.81871 4.60657 8.77472 4.39241 8.717C4.28527 8.68812 4.18442 8.65619 4.10556 8.62311C4.0661 8.60655 4.03333 8.59019 4.00845 8.57442C3.98266 8.55807 3.96957 8.54496 3.96437 8.53654L3.87928 8.58907C3.89633 8.61669 3.92453 8.63962 3.95492 8.65888C3.98622 8.67873 4.02453 8.69755 4.06687 8.71532C4.15163 8.75088 4.25732 8.78416 4.36638 8.81355C4.58462 8.87238 4.82223 8.91721 4.94613 8.93413L4.95966 8.83505ZM6.80121 8.7716C6.38261 8.79495 5.9725 8.81783 5.64093 8.83131C5.30697 8.84488 5.05871 8.84858 4.95966 8.83505L4.94613 8.93413C5.05605 8.94914 5.31488 8.94464 5.64499 8.93122C5.97748 8.91771 6.38843 8.89478 6.80678 8.87144L6.80121 8.7716ZM7.21674 8.7486C7.07905 8.7561 6.93967 8.76387 6.80121 8.7716L6.80678 8.87144C6.94526 8.86372 7.08456 8.85594 7.22217 8.84845L7.21674 8.7486ZM9.5856 8.81464C9.02679 8.77833 7.95308 8.70849 7.21674 8.7486L7.22217 8.84845C7.95129 8.80874 9.01841 8.878 9.57912 8.91443L9.5856 8.81464ZM9.93651 8.83459C9.8931 8.83459 9.76799 8.82649 9.5856 8.81464L9.57912 8.91443C9.75874 8.9261 9.88885 8.93459 9.93651 8.93459V8.83459ZM10.1181 9.0697C10.1243 9.04158 10.1308 9.0129 10.1333 8.98748C10.1358 8.9623 10.1355 8.93249 10.1214 8.90514C10.1062 8.87568 10.0798 8.85789 10.0486 8.84786C10.0187 8.83825 9.98129 8.83459 9.93651 8.83459V8.93459C9.97751 8.93459 10.0028 8.93817 10.018 8.94305C10.0252 8.94537 10.0288 8.9476 10.0305 8.94888C10.0319 8.94995 10.0323 8.95059 10.0325 8.95102C10.0334 8.95269 10.0357 8.95916 10.0338 8.97756C10.032 8.99572 10.0271 9.0179 10.0204 9.04795L10.1181 9.0697ZM10.1113 9.10065C10.1135 9.09001 10.1158 9.07977 10.1181 9.0697L10.0204 9.04795C10.0182 9.05796 10.0158 9.06866 10.0135 9.07985L10.1113 9.10065ZM10.2737 9.50404C10.2748 9.5045 10.2708 9.50279 10.2617 9.49344C10.2535 9.48495 10.2438 9.47289 10.233 9.45744C10.2115 9.42661 10.1883 9.38554 10.1676 9.34054C10.147 9.29555 10.1296 9.24804 10.1192 9.20451C10.1085 9.15988 10.1062 9.12425 10.1113 9.10065L10.0135 9.07985C10.0039 9.12492 10.0099 9.17766 10.0219 9.22784C10.0342 9.2791 10.0541 9.33283 10.0767 9.38222C10.0994 9.4316 10.1255 9.47805 10.151 9.51463C10.1637 9.53288 10.1768 9.54949 10.1899 9.56298C10.2021 9.57561 10.2177 9.58918 10.2358 9.59658L10.2737 9.50404ZM11.0837 9.39762C10.9526 9.4482 10.7631 9.48112 10.5956 9.4977C10.5124 9.50594 10.436 9.51001 10.3767 9.51036C10.347 9.51053 10.3222 9.50976 10.3034 9.50823C10.2939 9.50747 10.2865 9.50655 10.2809 9.50559C10.2749 9.50454 10.273 9.50377 10.2737 9.50404L10.2358 9.59658C10.2522 9.60328 10.2745 9.60622 10.2953 9.6079C10.318 9.60975 10.3459 9.61054 10.3773 9.61036C10.4402 9.60999 10.5198 9.6057 10.6055 9.59722C10.7758 9.58035 10.9759 9.54637 11.1197 9.49091L11.0837 9.39762ZM11.3379 9.3651C11.3284 9.36082 11.3155 9.35481 11.3003 9.3511C11.2841 9.34713 11.2672 9.34609 11.2475 9.34822C11.2109 9.35216 11.1615 9.36757 11.0837 9.39762L11.1197 9.49091C11.1982 9.4606 11.2363 9.45001 11.2582 9.44764C11.2678 9.44661 11.2729 9.44734 11.2765 9.44823C11.2812 9.44937 11.2858 9.45131 11.2967 9.45623L11.3379 9.3651ZM11.5173 9.39427C11.457 9.39427 11.4184 9.38953 11.3924 9.38384C11.3671 9.37831 11.3523 9.37162 11.3379 9.3651L11.2967 9.45623C11.3131 9.46364 11.3355 9.47375 11.3711 9.48153C11.4059 9.48916 11.452 9.49427 11.5173 9.49427V9.39427ZM11.6728 8.98129C11.6693 9.07841 11.6651 9.18691 11.6403 9.27113C11.628 9.31286 11.6119 9.34398 11.5923 9.36417C11.574 9.38288 11.5509 9.39427 11.5173 9.39427V9.49427C11.5781 9.49427 11.627 9.47187 11.6639 9.43392C11.6994 9.39746 11.7216 9.34908 11.7362 9.29937C11.7652 9.20071 11.7694 9.07863 11.7728 8.98491L11.6728 8.98129ZM11.7601 8.74852C11.7251 8.74852 11.7058 8.77341 11.6973 8.79014C11.689 8.80661 11.6847 8.82636 11.682 8.84426C11.6764 8.8809 11.6747 8.93045 11.6728 8.98129L11.7728 8.98491C11.7747 8.93164 11.7763 8.8889 11.7808 8.85928C11.7831 8.84404 11.7856 8.83717 11.7865 8.83531C11.7873 8.83369 11.7798 8.84852 11.7601 8.84852V8.74852ZM11.9294 8.97556C11.9081 8.92846 11.8848 8.87672 11.8622 8.83685C11.851 8.81706 11.8386 8.79773 11.8253 8.78274C11.8143 8.77045 11.7921 8.74852 11.7601 8.74852V8.84852C11.7454 8.84852 11.7418 8.83935 11.7505 8.84919C11.7569 8.85633 11.7652 8.86849 11.7752 8.88616C11.7951 8.92122 11.8164 8.9683 11.8383 9.01676L11.9294 8.97556ZM11.9588 9.0027C11.9588 9.03561 11.9579 9.06167 11.9563 9.08188C11.9546 9.10249 11.9524 9.11527 11.9504 9.12246C11.9494 9.12601 11.9488 9.1267 11.9494 9.12574C11.9498 9.12498 11.9527 9.11996 11.9596 9.11548C11.9678 9.11023 11.9779 9.10822 11.9873 9.10976C11.9953 9.11107 12 9.11442 12.0009 9.11512C12.002 9.11597 12.0018 9.11599 12.0001 9.11408C11.9986 9.11229 11.9966 9.10957 11.994 9.10566C11.9887 9.09778 11.9826 9.08705 11.9756 9.07355C11.9615 9.04649 11.9461 9.01238 11.9294 8.97556L11.8383 9.01676C11.8546 9.0528 11.8713 9.08964 11.8868 9.11961C11.8946 9.13462 11.9026 9.14893 11.9107 9.16109C11.9182 9.17232 11.9283 9.18573 11.9411 9.1953C11.9478 9.20028 11.958 9.2063 11.9712 9.20846C11.9858 9.21085 12.0008 9.20788 12.0136 9.19967C12.035 9.18597 12.043 9.16259 12.0467 9.14945C12.0553 9.1187 12.0588 9.07002 12.0588 9.0027H11.9588ZM11.3251 8.06632C11.3313 8.06461 11.3461 8.06442 11.3725 8.07502C11.3979 8.08523 11.4286 8.10331 11.4632 8.12933C11.5322 8.18127 11.6109 8.26053 11.6853 8.35609C11.8354 8.54895 11.9588 8.79589 11.9588 9.0027H12.0588C12.0588 8.76292 11.9195 8.49416 11.7642 8.29465C11.6859 8.19403 11.6011 8.10795 11.5233 8.04943C11.4845 8.02024 11.446 7.99681 11.4098 7.98225C11.3746 7.96808 11.3354 7.95985 11.2988 7.96984L11.3251 8.06632ZM10.8497 8.03931C10.9167 8.05154 11.0019 8.06712 11.0857 8.07538C11.1684 8.08351 11.2556 8.08524 11.3251 8.06632L11.2988 7.96984C11.2478 7.98373 11.1758 7.98376 11.0955 7.97586C11.0165 7.96807 10.9353 7.95327 10.8677 7.94094L10.8497 8.03931ZM10.7323 8.02129C10.7395 8.02129 10.7533 8.02275 10.7749 8.02617C10.7957 8.02945 10.8209 8.03404 10.8497 8.03931L10.8677 7.94094C10.8392 7.93574 10.8128 7.9309 10.7905 7.92739C10.7691 7.924 10.7483 7.92129 10.7323 7.92129V8.02129ZM10.6996 7.90622C10.6945 7.91031 10.6882 7.91541 10.6831 7.92012C10.6805 7.92254 10.677 7.92593 10.6737 7.93001C10.671 7.93343 10.6651 7.94125 10.6622 7.95251C10.6586 7.96666 10.6603 7.98476 10.6727 7.99976C10.6826 8.01158 10.6948 8.01594 10.7002 8.01757C10.7114 8.02097 10.7237 8.02129 10.7323 8.02129V7.92129C10.724 7.92129 10.7249 7.92058 10.7292 7.92189C10.7312 7.92248 10.7411 7.92552 10.7496 7.93575C10.7543 7.94147 10.7581 7.94874 10.7597 7.9571C10.7612 7.96521 10.7604 7.97226 10.759 7.9774C10.7567 7.98652 10.7522 7.99192 10.7517 7.99262C10.7506 7.99399 10.75 7.99438 10.751 7.9935C10.753 7.99163 10.7563 7.98896 10.7624 7.98406L10.6996 7.90622ZM10.7601 7.82054C10.7601 7.83634 10.7538 7.85104 10.7421 7.866C10.73 7.8815 10.7145 7.89418 10.6996 7.90622L10.7624 7.98406C10.7766 7.97259 10.8007 7.95337 10.8208 7.92764C10.8414 7.90138 10.8601 7.86554 10.8601 7.82054H10.7601ZM10.623 7.74807C10.6644 7.74807 10.7015 7.75213 10.7269 7.76422C10.7387 7.76983 10.7463 7.77638 10.7511 7.78369C10.7558 7.79082 10.7601 7.80196 10.7601 7.82054H10.8601C10.8601 7.78549 10.8516 7.75449 10.8345 7.7286C10.8176 7.70289 10.7943 7.68554 10.7699 7.67393C10.723 7.65161 10.6666 7.64807 10.623 7.64807V7.74807ZM10.5426 7.82054C10.5426 7.79092 10.5697 7.74807 10.623 7.74807V7.64807C10.5063 7.64807 10.4426 7.74418 10.4426 7.82054H10.5426ZM10.5567 7.92782C10.589 7.88968 10.589 7.88969 10.589 7.8897C10.589 7.8897 10.589 7.88971 10.589 7.88971C10.5891 7.88972 10.5891 7.88973 10.5891 7.88974C10.5891 7.88975 10.5891 7.88976 10.5891 7.88977C10.5891 7.88978 10.5891 7.88979 10.5891 7.88978C10.5891 7.88976 10.589 7.88969 10.5889 7.88958C10.5886 7.88935 10.5882 7.88894 10.5875 7.88835C10.5862 7.88717 10.5842 7.88532 10.5818 7.8829C10.5768 7.87801 10.5703 7.87109 10.5638 7.86299C10.5492 7.8445 10.5426 7.82917 10.5426 7.82054H10.4426C10.4426 7.8649 10.4681 7.90321 10.4855 7.92512C10.4951 7.93721 10.5045 7.94718 10.5116 7.95412C10.5151 7.95762 10.5181 7.96043 10.5203 7.96243C10.5214 7.96343 10.5224 7.96423 10.523 7.96483C10.5234 7.96512 10.5237 7.96537 10.5239 7.96556C10.524 7.96565 10.5241 7.96573 10.5242 7.9658C10.5242 7.96584 10.5242 7.96587 10.5243 7.96589C10.5243 7.96591 10.5243 7.96592 10.5243 7.96593C10.5243 7.96594 10.5243 7.96595 10.5243 7.96595C10.5243 7.96596 10.5244 7.96596 10.5567 7.92782ZM10.3686 7.97552C10.4753 7.97693 10.5429 7.97782 10.5567 7.97782V7.87782C10.5438 7.87782 10.4773 7.87695 10.3699 7.87553L10.3686 7.97552ZM6.97285 7.97746C7.0575 7.96721 7.26778 7.96113 7.55031 7.95819C7.83142 7.95527 8.18063 7.95546 8.54064 7.95726C9.26061 7.96087 10.023 7.97095 10.3686 7.97552L10.3699 7.87553C10.0244 7.87096 9.26157 7.86087 8.54114 7.85726C8.18094 7.85546 7.83114 7.85527 7.54927 7.8582C7.26884 7.86112 7.0522 7.86712 6.96083 7.87819L6.97285 7.97746ZM10.5781 8.65555C10.5166 8.73145 10.4733 8.77614 10.4461 8.8014C10.4326 8.81401 10.4231 8.8217 10.4175 8.82598C10.4147 8.82812 10.4129 8.82941 10.412 8.83005C10.4115 8.83036 10.4112 8.83055 10.4111 8.83063C10.4109 8.83074 10.411 8.83066 10.4107 8.83087C10.4107 8.83087 10.4103 8.83115 10.4098 8.83149C10.4096 8.83158 10.4087 8.8322 10.4076 8.83305C10.4072 8.8333 10.4054 8.83464 10.4033 8.83659C10.4021 8.83783 10.3986 8.84165 10.3966 8.84433C10.3926 8.85107 10.3878 8.87872 10.3943 8.89816L10.4808 8.848C10.4872 8.86743 10.4824 8.89509 10.4784 8.90183C10.4764 8.9045 10.473 8.90832 10.4717 8.90956C10.4696 8.91151 10.4678 8.91285 10.4675 8.91309C10.4664 8.91393 10.4655 8.91454 10.4654 8.91461C10.4651 8.9148 10.4649 8.91494 10.4648 8.91498C10.4647 8.91504 10.4646 8.91508 10.4646 8.91508C10.4645 8.91516 10.465 8.91488 10.4652 8.91471C10.4659 8.91425 10.4669 8.9136 10.4682 8.91274C10.4707 8.91104 10.474 8.90866 10.4783 8.90543C10.4867 8.89898 10.4986 8.88916 10.5143 8.87459C10.5455 8.84551 10.592 8.79724 10.6558 8.71856L10.5781 8.65555ZM10.8933 8.59424C10.8813 8.58085 10.8653 8.56277 10.8467 8.54879C10.8269 8.53397 10.801 8.52126 10.7686 8.52179C10.7369 8.52231 10.7064 8.53534 10.6764 8.55705C10.6465 8.57868 10.6143 8.61103 10.5781 8.65555L10.6558 8.71856C10.6891 8.6775 10.7151 8.65252 10.735 8.63805C10.7549 8.62366 10.7659 8.62185 10.7702 8.62178C10.7738 8.62172 10.7785 8.62268 10.7867 8.6288C10.796 8.63578 10.8053 8.64592 10.8189 8.66104L10.8933 8.59424ZM10.9495 8.63705C10.9432 8.63705 10.9366 8.63503 10.9275 8.62824C10.9172 8.6206 10.9072 8.60975 10.8933 8.59424L10.8189 8.66104C10.8415 8.68626 10.8833 8.73705 10.9495 8.73705V8.63705ZM11.3565 8.73483C11.2963 8.6837 11.222 8.65993 11.1511 8.64843C11.0802 8.63695 11.0078 8.63705 10.9495 8.63705V8.73705C11.009 8.73705 11.0734 8.73716 11.1351 8.74715C11.1966 8.75712 11.2508 8.7763 11.2918 8.81107L11.3565 8.73483ZM11.1227 9.02691C11.1499 9.02691 11.1849 9.01631 11.2163 9.00333C11.2494 8.98964 11.2856 8.97031 11.3167 8.94736C11.3463 8.92546 11.3777 8.89558 11.3917 8.85884C11.3991 8.83923 11.402 8.81661 11.3956 8.79314C11.3892 8.76987 11.3749 8.7505 11.3565 8.73483L11.2918 8.81107C11.2952 8.814 11.2971 8.81626 11.2981 8.81766C11.2985 8.81835 11.2988 8.81885 11.2989 8.81914C11.2991 8.81943 11.2991 8.81958 11.2991 8.81961C11.2991 8.81963 11.2991 8.81963 11.2991 8.81963C11.2991 8.81962 11.2991 8.81962 11.2991 8.81962C11.2991 8.81963 11.2991 8.81964 11.2991 8.81968C11.2991 8.81972 11.2991 8.81979 11.2991 8.8199C11.2991 8.82029 11.2989 8.82138 11.2982 8.82327C11.2946 8.83283 11.2821 8.84857 11.2572 8.86693C11.2338 8.88423 11.205 8.89979 11.1781 8.91092C11.1494 8.92276 11.1295 8.92691 11.1227 8.92691V9.02691ZM11.0062 8.97267C11.0287 8.99159 11.0675 9.02691 11.1227 9.02691V8.92691C11.11 8.92691 11.0988 8.91995 11.0708 8.89626L11.0062 8.97267ZM10.9515 8.94102C10.9659 8.94102 10.978 8.94883 11.0062 8.97267L11.0708 8.89626C11.0477 8.87682 11.0082 8.84102 10.9515 8.84102V8.94102ZM10.8785 8.98385C10.8933 8.9711 10.9062 8.96018 10.9196 8.95203C10.9327 8.9441 10.943 8.94102 10.9515 8.94102V8.84102C10.9183 8.84102 10.89 8.8531 10.8678 8.86648C10.8461 8.87966 10.827 8.8962 10.8133 8.90807L10.8785 8.98385ZM10.7966 9.02691C10.8193 9.02691 10.8376 9.01559 10.8472 9.00896C10.8582 9.00145 10.8694 8.99169 10.8785 8.98385L10.8133 8.90807C10.8028 8.91704 10.7961 8.92275 10.7906 8.92652C10.7881 8.92825 10.7872 8.92862 10.7875 8.92846C10.7879 8.92831 10.7912 8.92691 10.7966 8.92691V9.02691ZM10.701 8.98653C10.7172 8.99583 10.7334 9.00504 10.7469 9.01184C10.7537 9.01526 10.761 9.01864 10.7681 9.02125C10.7743 9.02351 10.7847 9.02691 10.7966 9.02691V8.92691C10.8027 8.92691 10.8056 8.92848 10.8026 8.92738C10.8005 8.92663 10.7971 8.92512 10.7918 8.92248C10.7812 8.91714 10.7677 8.90945 10.7505 8.89968L10.701 8.98653ZM10.5069 8.90885C10.5322 8.90885 10.564 8.91794 10.6 8.9337C10.6354 8.94917 10.6701 8.9689 10.701 8.98653L10.7505 8.89968C10.7203 8.88242 10.6811 8.86002 10.6401 8.84209C10.5998 8.82444 10.5528 8.80885 10.5069 8.80885V8.90885ZM10.3942 8.89799C10.4041 8.91025 10.4253 8.92157 10.4337 8.92293C10.438 8.92308 10.4447 8.92256 10.4471 8.92215C10.4511 8.92137 10.4541 8.92026 10.4547 8.92003C10.4567 8.9193 10.4582 8.91859 10.4585 8.91848C10.4594 8.91806 10.4601 8.91769 10.4602 8.91766C10.4604 8.91755 10.4606 8.91746 10.4606 8.91743C10.4607 8.9174 10.4608 8.91735 10.4608 8.91734C10.4609 8.91729 10.4609 8.91727 10.461 8.91724C10.4611 8.91718 10.4615 8.91698 10.4622 8.91668C10.4636 8.91607 10.4662 8.915 10.47 8.91385C10.4777 8.91154 10.4901 8.90885 10.5069 8.90885V8.80885C10.4793 8.80885 10.4571 8.8133 10.4411 8.81813C10.4331 8.82054 10.4268 8.82303 10.4221 8.82509C10.4197 8.82612 10.4178 8.82703 10.4164 8.82773C10.4157 8.82808 10.4151 8.82836 10.4149 8.82851C10.4146 8.82865 10.4148 8.82853 10.415 8.82843C10.415 8.82842 10.4157 8.82807 10.4166 8.82766C10.4169 8.82755 10.4184 8.82685 10.4203 8.82613C10.421 8.82589 10.424 8.82478 10.4279 8.824C10.4304 8.8236 10.4371 8.82308 10.4414 8.82323C10.4497 8.82459 10.471 8.83591 10.4809 8.84817L10.3942 8.89799Z" fill="white"/>
<path d="M13.1161 2.37273C13.1161 2.37273 13.9232 6 13.1161 6C12.3091 6 12.3091 5.6836 12.3091 5.6836C12.3091 5.6836 13.1953 6.09117 12.9503 5.02538C12.7052 3.95958 12.4765 4.69332 12.4765 3.75607C12.4765 2.81882 12.3091 2.19006 12.3091 2.66932C12.3091 3.14859 12.198 6.0436 11.7602 5.45139C11.3224 4.85919 11.4288 3.02528 11.4288 2.8473" stroke="white" stroke-width="0.5"/>
</g>
<rect width="16" height="12" fill="url(#paint0_linear_14655_23496)" style="mix-blend-mode:overlay"/>
</g>
<defs>
<linearGradient id="paint0_linear_14655_23496" x1="8" y1="0" x2="8" y2="12" gradientUnits="userSpaceOnUse">
<stop stop-color="white" stop-opacity="0.7"/>
<stop offset="1" stop-opacity="0.3"/>
</linearGradient>
<clipPath id="clip0_14655_23496">
<rect width="16" height="12" rx="1" fill="white"/>
</clipPath>
</defs>
</svg>
