<svg width="16" height="12" viewBox="0 0 16 12" fill="none" xmlns="http://www.w3.org/2000/svg">
<g clip-path="url(#clip0_14655_23331)">
<mask id="mask0_14655_23331" style="mask-type:alpha" maskUnits="userSpaceOnUse" x="0" y="0" width="16" height="12">
<rect width="16" height="12" fill="white"/>
</mask>
<g mask="url(#mask0_14655_23331)">
<path fill-rule="evenodd" clip-rule="evenodd" d="M0 0H16V12H0V0Z" fill="white"/>
<path fill-rule="evenodd" clip-rule="evenodd" d="M0 5.832V0H8L0 5.832Z" fill="#F00000"/>
<path fill-rule="evenodd" clip-rule="evenodd" d="M16 5.832V0H8L16 5.832Z" fill="#F00000"/>
<path fill-rule="evenodd" clip-rule="evenodd" d="M0 5.832V12H8L0 5.832Z" fill="#00268D"/>
<path fill-rule="evenodd" clip-rule="evenodd" d="M16 5.832V12.168L8 12L16 5.832Z" fill="#00268D"/>
<path fill-rule="evenodd" clip-rule="evenodd" d="M7.85699 7.12813L6.09827 8.38164L6.74363 6.31101L5 5.0435H7.17229L7.85699 3L8.58274 5.0435H10.6959L8.96743 6.31101L9.62444 8.38164L7.85699 7.12813Z" fill="#FEDA00"/>
</g>
<rect width="16" height="12" fill="url(#paint0_linear_14655_23331)" style="mix-blend-mode:overlay"/>
</g>
<defs>
<linearGradient id="paint0_linear_14655_23331" x1="8" y1="0" x2="8" y2="12" gradientUnits="userSpaceOnUse">
<stop stop-color="white" stop-opacity="0.7"/>
<stop offset="1" stop-opacity="0.3"/>
</linearGradient>
<clipPath id="clip0_14655_23331">
<rect width="16" height="12" rx="1" fill="white"/>
</clipPath>
</defs>
</svg>
