<svg width="16" height="12" viewBox="0 0 16 12" fill="none" xmlns="http://www.w3.org/2000/svg">
<g clip-path="url(#clip0_14655_23509)">
<mask id="mask0_14655_23509" style="mask-type:alpha" maskUnits="userSpaceOnUse" x="0" y="0" width="16" height="12">
<rect width="16" height="12" fill="white"/>
</mask>
<g mask="url(#mask0_14655_23509)">
<path fill-rule="evenodd" clip-rule="evenodd" d="M0 0V12H16V0H0Z" fill="#2E42A5"/>
<mask id="mask1_14655_23509" style="mask-type:alpha" maskUnits="userSpaceOnUse" x="0" y="0" width="16" height="12">
<path fill-rule="evenodd" clip-rule="evenodd" d="M0 0V12H16V0H0Z" fill="white"/>
</mask>
<g mask="url(#mask1_14655_23509)">
<path fill-rule="evenodd" clip-rule="evenodd" d="M0 0V4H16V0H0Z" fill="#F7FCFF"/>
<path fill-rule="evenodd" clip-rule="evenodd" d="M0 8V12H16V8H0Z" fill="#C51918"/>
<path fill-rule="evenodd" clip-rule="evenodd" d="M6.87012 2.51812C6.87012 2.51812 5.81775 2.02116 4.50885 2.02116C3.19995 2.02116 2.14758 2.51812 2.14758 2.51812C2.14758 2.51812 2.2647 4.51548 2.4498 5.57358C2.52883 6.02536 2.9087 6.68428 3.2526 6.99615C3.64458 7.35163 4.50885 7.77278 4.50885 7.77278C4.75896 7.60043 5.22659 7.52294 5.82431 6.99615C6.42202 6.46937 6.57059 5.57358 6.57059 5.57358L6.87012 2.51812Z" fill="#2E42A5"/>
<path d="M6.73099 2.45284L7.16925 2.6717L6.86839 5.68301C6.76302 6.32034 6.49936 6.82294 6.07772 7.19454C5.84899 7.39612 5.62573 7.54674 5.38636 7.67188C5.25125 7.74253 4.68608 8.03366 4.691 8.03128C4.63437 8.05857 4.59143 8.08248 4.55655 8.10651L4.50189 8.14418L4.44287 8.11542C3.85749 7.83018 3.31134 7.44631 3.03993 7.20018C2.66944 6.86419 2.2788 6.17666 2.19552 5.70059C2.07099 4.98876 1.95932 4.00831 1.88095 2.6717L2.27465 2.46573C2.35243 3.79227 2.44632 4.84973 2.5686 5.5487C2.64094 5.96225 3.00117 6.59624 3.32979 6.89426C3.57265 7.1145 3.96392 7.35872 4.50189 7.62432C4.53398 7.60552 4.56954 7.58691 4.61022 7.5673C4.61137 7.56675 4.97733 7.40423 5.10451 7.33773C5.32758 7.22111 5.53493 7.08123 5.74841 6.89308C6.1227 6.56322 6.3563 6.11898 6.45078 5.55463L6.73099 2.45284Z" fill="#C51918" stroke="#C51918"/>
<path fill-rule="evenodd" clip-rule="evenodd" d="M2.77103 5.5121C2.77103 5.5121 3.02889 6.30101 3.48049 6.74134C3.93208 7.18167 4.49035 7.39751 4.49035 7.39751C4.49035 7.39751 5.15529 7.1963 5.53267 6.77267C5.91006 6.34905 6.29641 5.5121 6.29641 5.5121L5.41876 4.6698L5.06993 5.04834L4.49035 4.22205L4.00512 5.04834L3.63305 4.6698L2.77103 5.5121Z" fill="white"/>
<path fill-rule="evenodd" clip-rule="evenodd" d="M3.57339 2.9431H3.22183L3.4945 2.68766L3.22183 2.41773H3.57339L3.72183 2.15572L3.87087 2.41773H4.22183L3.9628 2.67144L4.1928 2.9431H3.87087L3.72183 3.2196L3.57339 2.9431Z" fill="#FECA00"/>
<path fill-rule="evenodd" clip-rule="evenodd" d="M5.23028 2.9431H4.87872L5.15139 2.68766L4.87872 2.41773H5.23028L5.37872 2.15572L5.52776 2.41773H5.87872L5.61969 2.67144L5.8497 2.9431H5.52776L5.37872 3.2196L5.23028 2.9431Z" fill="#FECA00"/>
<path fill-rule="evenodd" clip-rule="evenodd" d="M4.29996 3.78374H3.94839L4.22106 3.5283L3.94839 3.25837H4.29996L4.44839 2.99636L4.59743 3.25837H4.94839L4.68936 3.51209L4.91937 3.78374H4.59743L4.44839 4.06024L4.29996 3.78374Z" fill="#FECA00"/>
</g>
</g>
<rect width="16" height="12" fill="url(#paint0_linear_14655_23509)" style="mix-blend-mode:overlay"/>
</g>
<defs>
<linearGradient id="paint0_linear_14655_23509" x1="8" y1="0" x2="8" y2="12" gradientUnits="userSpaceOnUse">
<stop stop-color="white" stop-opacity="0.7"/>
<stop offset="1" stop-opacity="0.3"/>
</linearGradient>
<clipPath id="clip0_14655_23509">
<rect width="16" height="12" rx="1" fill="white"/>
</clipPath>
</defs>
</svg>
