<svg width="16" height="12" viewBox="0 0 16 12" fill="none" xmlns="http://www.w3.org/2000/svg">
<g clip-path="url(#clip0_14655_23332)">
<mask id="mask0_14655_23332" style="mask-type:alpha" maskUnits="userSpaceOnUse" x="0" y="0" width="16" height="12">
<rect width="16" height="12" fill="white"/>
</mask>
<g mask="url(#mask0_14655_23332)">
<path fill-rule="evenodd" clip-rule="evenodd" d="M0 0H16V12H0V0Z" fill="#00268D"/>
<path d="M0.5 0.5H15.5V11.5H0.5V0.5Z" fill="#00268D" stroke="#E31D1C"/>
<rect x="7.5" width="1" height="12" fill="#E31D1C"/>
<rect y="6.5" width="1" height="16" transform="rotate(-90 0 6.5)" fill="#E31D1C"/>
<path d="M8.25725 2.57125L8 2.4169L7.74275 2.57125L2.74275 5.57125L2.02817 6L2.74275 6.42875L7.74275 9.42875L8 9.5831L8.25725 9.42875L13.2572 6.42875L13.9718 6L13.2572 5.57125L8.25725 2.57125Z" fill="white" stroke="#E31D1C"/>
<mask id="mask1_14655_23332" style="mask-type:alpha" maskUnits="userSpaceOnUse" x="1" y="1" width="14" height="10">
<path d="M8.25725 2.57125L8 2.4169L7.74275 2.57125L2.74275 5.57125L2.02817 6L2.74275 6.42875L7.74275 9.42875L8 9.5831L8.25725 9.42875L13.2572 6.42875L13.9718 6L13.2572 5.57125L8.25725 2.57125Z" fill="white" stroke="white"/>
</mask>
<g mask="url(#mask1_14655_23332)">
<path d="M4.82256 7.8C5.00189 7.8 13.75 7.8 13.75 7.8L12.8061 6.84289C12.8061 6.84289 10.9185 4.95039 10.7971 4.86366C10.6756 4.77692 10.4749 4.73949 10.2466 5.01515C10.0182 5.29081 9.88725 4.86366 9.69713 4.86366C9.50701 4.86366 9.42662 4.86366 9.15076 5.21734C8.8749 5.57102 7.88153 6.84289 7.88153 6.84289H6.42168C6.42168 6.84289 6.17542 6.63396 6.03507 6.70851C5.89472 6.78305 5.10415 5.88393 4.82256 5.81676C4.54096 5.74958 4.35568 6.06048 4.35568 6.30788C4.35568 6.55529 4.22317 6.08118 3.95374 6.22035C3.68431 6.35951 3.77118 6.70851 3.77118 6.70851C3.77118 6.70851 4.64322 7.8 4.82256 7.8Z" fill="#059334"/>
<path fill-rule="evenodd" clip-rule="evenodd" d="M7.00318 5.53415L6.38564 6L6.61224 5.23048L6 4.75943H6.76276L7.00318 4L7.25801 4.75943H8L7.39309 5.23048L7.62378 6L7.00318 5.53415Z" fill="#FEDA00"/>
</g>
</g>
<rect width="16" height="12" fill="url(#paint0_linear_14655_23332)" style="mix-blend-mode:overlay"/>
</g>
<defs>
<linearGradient id="paint0_linear_14655_23332" x1="8" y1="0" x2="8" y2="12" gradientUnits="userSpaceOnUse">
<stop stop-color="white" stop-opacity="0.7"/>
<stop offset="1" stop-opacity="0.3"/>
</linearGradient>
<clipPath id="clip0_14655_23332">
<rect width="16" height="12" rx="1" fill="white"/>
</clipPath>
</defs>
</svg>
