<svg width="16" height="12" viewBox="0 0 16 12" fill="none" xmlns="http://www.w3.org/2000/svg">
<g clip-path="url(#clip0_14655_23504)">
<mask id="mask0_14655_23504" style="mask-type:alpha" maskUnits="userSpaceOnUse" x="0" y="0" width="16" height="12">
<rect width="16" height="12" fill="white"/>
</mask>
<g mask="url(#mask0_14655_23504)">
<path fill-rule="evenodd" clip-rule="evenodd" d="M0 0V12H16V0H0Z" fill="#3D58DB"/>
<mask id="mask1_14655_23504" style="mask-type:alpha" maskUnits="userSpaceOnUse" x="0" y="0" width="16" height="12">
<path fill-rule="evenodd" clip-rule="evenodd" d="M0 0V12H16V0H0Z" fill="white"/>
</mask>
<g mask="url(#mask1_14655_23504)">
<path fill-rule="evenodd" clip-rule="evenodd" d="M0 0V4H16V0H0Z" fill="#F7FCFF"/>
<path fill-rule="evenodd" clip-rule="evenodd" d="M0 8V12H16V8H0Z" fill="#E31D1C"/>
<path d="M7.80196 3.01518L8.05055 2.98873L8.02677 2.76518H7.80196H3.17241H2.9387L2.92298 2.99836L3.17241 3.01518L2.92298 2.9984L2.92297 2.99851L2.92294 2.99891L2.92284 3.00044L2.92244 3.00641L2.92092 3.02953L2.91525 3.11763C2.91042 3.19382 2.90365 3.30344 2.89586 3.43742C2.88027 3.7053 2.86058 4.0709 2.84417 4.46149C2.81183 5.23129 2.79039 6.13248 2.84639 6.55334C2.95568 7.37458 3.45575 9.21815 5.38991 10.0536L5.49078 10.0972L5.59109 10.0523C7.4282 9.23089 8.04263 7.57658 8.18436 6.55471C8.25589 6.03899 8.21954 5.13657 8.16933 4.38667C8.14388 4.00666 8.11422 3.65749 8.09092 3.40339C8.07927 3.27629 8.0692 3.17285 8.06204 3.10109L8.05363 3.01818L8.05136 2.9964L8.05077 2.99075L8.05061 2.98928L8.05057 2.98889L8.05056 2.98878L7.80196 3.01518Z" fill="#E31D1C" stroke="white" stroke-width="0.5"/>
<mask id="mask2_14655_23504" style="mask-type:alpha" maskUnits="userSpaceOnUse" x="2" y="2" width="7" height="9">
<path d="M7.80196 3.01518L8.05055 2.98873L8.02677 2.76518H7.80196H3.17241H2.9387L2.92298 2.99836L3.17241 3.01518L2.92298 2.9984L2.92297 2.99851L2.92294 2.99891L2.92284 3.00044L2.92244 3.00641L2.92092 3.02953L2.91525 3.11763C2.91042 3.19382 2.90365 3.30344 2.89586 3.43742C2.88027 3.7053 2.86058 4.0709 2.84417 4.46149C2.81183 5.23129 2.79039 6.13248 2.84639 6.55334C2.95568 7.37458 3.45575 9.21815 5.38991 10.0536L5.49078 10.0972L5.59109 10.0523C7.4282 9.23089 8.04263 7.57658 8.18436 6.55471C8.25589 6.03899 8.21954 5.13657 8.16933 4.38667C8.14388 4.00666 8.11422 3.65749 8.09092 3.40339C8.07927 3.27629 8.0692 3.17285 8.06204 3.10109L8.05363 3.01818L8.05136 2.9964L8.05077 2.99075L8.05061 2.98928L8.05057 2.98889L8.05056 2.98878L7.80196 3.01518Z" fill="white" stroke="white" stroke-width="0.5"/>
</mask>
<g mask="url(#mask2_14655_23504)">
<path fill-rule="evenodd" clip-rule="evenodd" d="M4.93114 3.29488C4.93114 3.29488 5.03439 3.45219 5.08061 3.69273C5.12683 3.93328 5.1348 4.20691 5.1348 4.20691L4.35276 4.08632V4.97679L5.15668 4.84926L5.13263 5.78303C5.13263 5.78303 5.03048 5.81409 4.78479 5.78303C4.5391 5.75198 4.05508 5.62188 4.05508 5.62188V6.47207C4.05508 6.47207 4.54683 6.31475 4.78479 6.27865C5.02274 6.24255 5.13263 6.27865 5.13263 6.27865L5.14041 7.09391H5.93777L5.93 6.27865C5.93 6.27865 6.18093 6.24002 6.44602 6.28184C6.71111 6.32366 6.96256 6.47207 6.96256 6.47207V5.62188C6.96256 5.62188 6.70781 5.7488 6.46754 5.78038C6.22726 5.81196 5.93 5.78303 5.93 5.78303L5.95405 4.84926C5.95405 4.84926 6.09321 4.81483 6.27982 4.84016C6.46643 4.86549 6.69999 4.97679 6.69999 4.97679V4.08632C6.69999 4.08632 6.47235 4.21019 6.29323 4.23266C6.11412 4.25513 5.93216 4.20691 5.93216 4.20691C5.93216 4.20691 5.93882 3.9198 5.97733 3.70802C6.01584 3.49624 6.12491 3.29488 6.12491 3.29488H4.93114Z" fill="#F7FCFF"/>
<path fill-rule="evenodd" clip-rule="evenodd" d="M3.44867 8.12264C3.44867 8.12264 3.66842 7.65101 4.02598 7.56133C4.38355 7.47165 4.75849 7.84199 4.75849 7.84199C4.75849 7.84199 4.98744 7.09377 5.54549 7.09377C6.10354 7.09377 6.2994 7.84199 6.2994 7.84199C6.2994 7.84199 6.53749 7.56133 6.87988 7.56133C7.22227 7.56133 7.53948 8.12264 7.53948 8.12264C7.53948 8.12264 6.51678 9.97936 5.49408 9.97936C4.47137 9.97936 3.44867 8.12264 3.44867 8.12264Z" fill="#2E42A5"/>
</g>
</g>
</g>
<rect width="16" height="12" fill="url(#paint0_linear_14655_23504)" style="mix-blend-mode:overlay"/>
</g>
<defs>
<linearGradient id="paint0_linear_14655_23504" x1="8" y1="0" x2="8" y2="12" gradientUnits="userSpaceOnUse">
<stop stop-color="white" stop-opacity="0.7"/>
<stop offset="1" stop-opacity="0.3"/>
</linearGradient>
<clipPath id="clip0_14655_23504">
<rect width="16" height="12" rx="1" fill="white"/>
</clipPath>
</defs>
</svg>
