<svg width="16" height="12" viewBox="0 0 16 12" fill="none" xmlns="http://www.w3.org/2000/svg">
<g clip-path="url(#clip0_14655_23556)">
<mask id="mask0_14655_23556" style="mask-type:alpha" maskUnits="userSpaceOnUse" x="0" y="0" width="16" height="12">
<rect width="16" height="12" fill="white"/>
</mask>
<g mask="url(#mask0_14655_23556)">
<path d="M0 -0.5H-0.5V0V12V12.5H0H16H16.5V12V0V-0.5H16H0Z" fill="#5EAA22" stroke="#F7FCFF"/>
<path fill-rule="evenodd" clip-rule="evenodd" d="M0 3V5H16V3H0Z" fill="#FECA00"/>
<path fill-rule="evenodd" clip-rule="evenodd" d="M0 7V9H16V7H0Z" fill="#FECA00"/>
<rect width="8" height="7" fill="#F50101"/>
<path fill-rule="evenodd" clip-rule="evenodd" d="M4.125 5.07208L2.26534 6.22281L2.98731 4.29102L1.5 2.98958H3.32389L4.125 1.0649L4.73635 2.98958H6.5383L5.27272 4.29102L5.89554 6.12804L4.125 5.07208Z" fill="#F7FCFF"/>
</g>
<rect width="16" height="12" fill="url(#paint0_linear_14655_23556)" style="mix-blend-mode:overlay"/>
</g>
<defs>
<linearGradient id="paint0_linear_14655_23556" x1="8" y1="0" x2="8" y2="12" gradientUnits="userSpaceOnUse">
<stop stop-color="white" stop-opacity="0.7"/>
<stop offset="1" stop-opacity="0.3"/>
</linearGradient>
<clipPath id="clip0_14655_23556">
<rect width="16" height="12" rx="1" fill="white"/>
</clipPath>
</defs>
</svg>
