<svg width="16" height="12" viewBox="0 0 16 12" fill="none" xmlns="http://www.w3.org/2000/svg">
<g clip-path="url(#clip0_14655_23442)">
<mask id="mask0_14655_23442" style="mask-type:alpha" maskUnits="userSpaceOnUse" x="0" y="0" width="16" height="12">
<rect width="16" height="12" fill="white"/>
</mask>
<g mask="url(#mask0_14655_23442)">
<path fill-rule="evenodd" clip-rule="evenodd" d="M0 0H16V12H0V0Z" fill="#F7FCFF"/>
<path fill-rule="evenodd" clip-rule="evenodd" d="M0 0V4H16V0H0Z" fill="#C51918"/>
<path fill-rule="evenodd" clip-rule="evenodd" d="M0 8V12H16V8H0Z" fill="#409100"/>
<path fill-rule="evenodd" clip-rule="evenodd" d="M7.97269 7.78867C7.76637 7.79457 7.62894 7.57663 7.62894 7.57663L7.84047 7.52213C7.85363 7.38264 7.9493 7.30847 7.9493 7.30847C8.01254 7.34911 8.0809 7.53226 8.0809 7.53226L8.26213 7.55773C8.26213 7.55773 8.17901 7.78276 7.97269 7.78867ZM6.96529 7.85099C6.76181 7.88556 6.59538 7.68886 6.59538 7.68886L6.79727 7.60545C6.79088 7.46549 6.8753 7.37872 6.8753 7.37872C6.94358 7.41017 7.03677 7.58202 7.03677 7.58202H7.21978C7.21978 7.58202 7.16878 7.81643 6.96529 7.85099ZM6.24152 8.04909L6.33368 8.37727C6.81174 8.24792 7.36663 8.18287 7.99824 8.18287C8.62984 8.18287 9.18473 8.24792 9.66279 8.37727L9.75496 8.04909C9.24493 7.91108 8.6594 7.84245 7.99824 7.84245C7.33708 7.84245 6.75154 7.91108 6.24152 8.04909ZM9.37007 7.7229C9.37007 7.7229 9.20364 7.9196 9.00016 7.88504C8.79667 7.85047 8.74567 7.61607 8.74567 7.61607H8.92868C8.92868 7.61607 9.02187 7.44421 9.09015 7.41277C9.09015 7.41277 9.17457 7.49953 9.16818 7.63949L9.37007 7.7229Z" fill="#FFBB00"/>
<path fill-rule="evenodd" clip-rule="evenodd" d="M7.97928 6.84933C7.97928 6.84933 7.74479 7.38597 7.37546 7.42748C7.00613 7.46899 6.81856 7.12227 6.81856 7.12227C6.81856 7.12227 6.79436 7.48283 6.35575 7.62181C5.91714 7.76079 5.68617 7.2055 5.68617 7.2055C5.68617 7.2055 5.91452 7.40976 6.26869 7.32075C6.62286 7.23175 6.76266 6.90304 6.76266 6.90304C6.76266 6.90304 7.02477 7.24573 7.37546 7.07438C7.72616 6.90304 7.92017 6.69363 7.92017 6.49269V5.89178C7.92017 5.89178 7.8297 5.73595 7.67274 5.73595C7.51578 5.73595 7.47198 5.84642 7.47198 5.84642C7.47198 5.84642 7.41072 5.22126 7.97521 5.18262L7.97519 5.18111L7.9908 5.18171L8.00641 5.18111L8.00638 5.18262C8.57088 5.22126 8.50962 5.84642 8.50962 5.84642C8.50962 5.84642 8.46582 5.73595 8.30886 5.73595C8.1519 5.73595 8.06143 5.89178 8.06143 5.89178V6.49269C8.06143 6.69363 8.25544 6.90304 8.60614 7.07438C8.95683 7.24573 9.21894 6.90304 9.21894 6.90304C9.21894 6.90304 9.35874 7.23175 9.71291 7.32075C10.0671 7.40976 10.2954 7.2055 10.2954 7.2055C10.2954 7.2055 10.0645 7.76079 9.62585 7.62181C9.18724 7.48283 9.16304 7.12227 9.16304 7.12227C9.16304 7.12227 8.97547 7.46899 8.60614 7.42748C8.23681 7.38597 8.00232 6.84933 8.00232 6.84933L7.9908 6.14103L7.97928 6.84933ZM7.97409 5.35095C7.71367 5.35095 7.66093 5.57141 7.66093 5.57141C7.89023 5.57141 7.97409 5.67136 7.97409 5.67136C7.97409 5.67136 8.14386 5.57141 8.31479 5.57141C8.31479 5.57141 8.2345 5.35095 7.97409 5.35095Z" fill="#FFBB00"/>
<path d="M5.95029 6.49924L4.95393 6.58454C4.88101 5.7328 5.23157 4.92702 5.96832 4.18867C7.0521 3.10252 9.24678 3.20832 10.181 4.19876C10.7147 4.76463 10.9881 5.54874 11.0144 6.52847L10.0147 6.5553C9.99461 5.80481 9.8031 5.25555 9.45351 4.88491C8.89622 4.29406 7.35019 4.21953 6.67619 4.895C6.13415 5.43823 5.90462 5.96582 5.95029 6.49924Z" fill="#FFBB00"/>
</g>
<rect width="16" height="12" fill="url(#paint0_linear_14655_23442)" style="mix-blend-mode:overlay"/>
</g>
<defs>
<linearGradient id="paint0_linear_14655_23442" x1="8" y1="0" x2="8" y2="12" gradientUnits="userSpaceOnUse">
<stop stop-color="white" stop-opacity="0.7"/>
<stop offset="1" stop-opacity="0.3"/>
</linearGradient>
<clipPath id="clip0_14655_23442">
<rect width="16" height="12" rx="1" fill="white"/>
</clipPath>
</defs>
</svg>
