<svg width="16" height="12" viewBox="0 0 16 12" fill="none" xmlns="http://www.w3.org/2000/svg">
<g clip-path="url(#clip0_14655_23450)">
<mask id="mask0_14655_23450" style="mask-type:alpha" maskUnits="userSpaceOnUse" x="0" y="0" width="16" height="12">
<rect width="16" height="12" fill="white"/>
</mask>
<g mask="url(#mask0_14655_23450)">
<path fill-rule="evenodd" clip-rule="evenodd" d="M0 0V12H16V0H0Z" fill="#29C470"/>
<mask id="mask1_14655_23450" style="mask-type:alpha" maskUnits="userSpaceOnUse" x="0" y="0" width="16" height="12">
<path fill-rule="evenodd" clip-rule="evenodd" d="M0 0V12H16V0H0Z" fill="white"/>
</mask>
<g mask="url(#mask1_14655_23450)">
<rect x="1" y="-0.161457" width="5" height="13.1615" fill="#C51918"/>
<mask id="mask2_14655_23450" style="mask-type:alpha" maskUnits="userSpaceOnUse" x="1" y="-1" width="5" height="14">
<rect x="1" y="-0.161457" width="5" height="13.1615" fill="white"/>
</mask>
<g mask="url(#mask2_14655_23450)">
<path fill-rule="evenodd" clip-rule="evenodd" d="M1.29768 0.452813L1.02463 0.803672L1 0.779317L1.26491 0.43891V0.370577L1.26591 0.364229L1.29671 0.269388L1.27786 0.236349L1.12163 0.392556L1.42278 -0.076449V0.0838128L1.48057 0.135977L1.61861 -0.105454L1.4801 -0.337812L1.38014 -0.260993L1.42068 -0.17956L1.39281 -0.160205L1.16715 -0.537715L1.31091 -0.439416L1.33624 -0.476137L1.19848 -0.616462L1.25941 -0.683567L1.05807 -0.977425L1.084 -1L1.30317 -0.680123L1.24632 -0.617511L1.38078 -0.480546L1.31887 -0.390776L1.27764 -0.418968L1.3563 -0.287371L1.4889 -0.389275L1.65783 -0.105877L1.48844 0.190395L1.39001 0.101553V0.0375752L1.2912 0.191457L1.33308 0.264847L1.29768 0.373851V0.452813ZM1.02463 3.31512L1.29768 2.96426V2.8853L1.33308 2.77629L1.2912 2.7029L1.39001 2.54902V2.613L1.48844 2.70184L1.65783 2.40557L1.4889 2.12217L1.3563 2.22408L1.27764 2.09248L1.31887 2.12067L1.38078 2.0309L1.24632 1.89394L1.30317 1.83132L1.084 1.51145L1.05807 1.53402L1.25941 1.82788L1.19848 1.89499L1.33624 2.03531L1.31091 2.07203L1.16715 1.97373L1.39281 2.35124L1.42068 2.33189L1.38014 2.25045L1.4801 2.17364L1.61861 2.40599L1.48057 2.64742L1.42278 2.59526V2.435L1.12163 2.904L1.27786 2.7478L1.29671 2.78083L1.26591 2.87568L1.26491 2.88202V2.95036L1 3.29076L1.02463 3.31512ZM1.29768 5.25411L1.02463 5.60497L1 5.58061L1.26491 5.24021V5.17187L1.26591 5.16553L1.29671 5.07068L1.27786 5.03764L1.12163 5.19385L1.42278 4.72485V4.88511L1.48057 4.93727L1.61861 4.69584L1.4801 4.46348L1.38014 4.5403L1.42068 4.62174L1.39281 4.64109L1.16715 4.26358L1.31091 4.36188L1.33624 4.32516L1.19848 4.18483L1.25941 4.11773L1.05807 3.82387L1.084 3.8013L1.30317 4.12117L1.24632 4.18378L1.38078 4.32075L1.31887 4.41052L1.27764 4.38233L1.3563 4.51392L1.4889 4.41202L1.65783 4.69542L1.48844 4.99169L1.39001 4.90285V4.83887L1.2912 4.99275L1.33308 5.06614L1.29768 5.17515V5.25411ZM1.02463 7.93175L1.29768 7.58089V7.50193L1.33308 7.39293L1.2912 7.31954L1.39001 7.16565V7.22963L1.48844 7.31847L1.65783 7.0222L1.4889 6.7388L1.3563 6.84071L1.27764 6.70911L1.31887 6.7373L1.38078 6.64753L1.24632 6.51057L1.30317 6.44795L1.084 6.12808L1.05807 6.15065L1.25941 6.44451L1.19848 6.51162L1.33624 6.65194L1.31091 6.68866L1.16715 6.59036L1.39281 6.96787L1.42068 6.94852L1.38014 6.86708L1.4801 6.79027L1.61861 7.02262L1.48057 7.26406L1.42278 7.21189V7.05163L1.12163 7.52063L1.27786 7.36443L1.29671 7.39746L1.26591 7.49231L1.26491 7.49866V7.56699L1 7.90739L1.02463 7.93175ZM1.02463 10L1.29768 9.64914V9.57018L1.33308 9.46118L1.2912 9.38779L1.39001 9.2339V9.29788L1.48844 9.38672L1.65783 9.09045L1.4889 8.80705L1.3563 8.90896L1.27764 8.77736L1.31887 8.80555L1.38078 8.71578L1.24632 8.57882L1.30317 8.5162L1.084 8.19633L1.05807 8.2189L1.25941 8.51276L1.19848 8.57987L1.33624 8.72019L1.31091 8.75691L1.16715 8.65861L1.39281 9.03612L1.42068 9.01677L1.38014 8.93534L1.4801 8.85852L1.61861 9.09087L1.48057 9.33231L1.42278 9.28014V9.11988L1.12163 9.58888L1.27786 9.43268L1.29671 9.46572L1.26591 9.56056L1.26491 9.56691V9.63524L1 9.97565L1.02463 10ZM5.97537 10L5.70232 9.64914V9.57018L5.66692 9.46118L5.7088 9.38779L5.60999 9.2339V9.29788L5.51156 9.38672L5.34217 9.09045L5.5111 8.80705L5.6437 8.90896L5.72236 8.77736L5.68113 8.80555L5.61922 8.71578L5.75368 8.57882L5.69683 8.5162L5.916 8.19633L5.94193 8.2189L5.74059 8.51276L5.80152 8.57987L5.66376 8.72019L5.68909 8.75691L5.83285 8.65861L5.60719 9.03612L5.57932 9.01677L5.61986 8.93534L5.5199 8.85852L5.38139 9.09087L5.51943 9.33231L5.57722 9.28014V9.11988L5.87837 9.58888L5.72214 9.43268L5.70329 9.46572L5.73409 9.56056L5.73509 9.56691V9.63524L6 9.97565L5.97537 10ZM5.70232 7.58089L5.97537 7.93175L6 7.90739L5.73509 7.56699V7.49866L5.73409 7.49231L5.70329 7.39746L5.72214 7.36443L5.87837 7.52063L5.57722 7.05163V7.21189L5.51943 7.26406L5.38139 7.02262L5.5199 6.79027L5.61986 6.86708L5.57932 6.94852L5.60719 6.96787L5.83285 6.59036L5.68909 6.68866L5.66376 6.65194L5.80152 6.51162L5.74059 6.44451L5.94193 6.15065L5.916 6.12808L5.69683 6.44795L5.75368 6.51057L5.61922 6.64753L5.68113 6.7373L5.72236 6.70911L5.6437 6.84071L5.5111 6.7388L5.34217 7.0222L5.51156 7.31847L5.60999 7.22963V7.16565L5.7088 7.31954L5.66692 7.39293L5.70232 7.50193V7.58089ZM5.97537 5.60497L5.70232 5.25411V5.17515L5.66692 5.06614L5.7088 4.99275L5.60999 4.83887V4.90285L5.51156 4.99169L5.34217 4.69542L5.5111 4.41202L5.6437 4.51392L5.72236 4.38233L5.68113 4.41052L5.61922 4.32075L5.75368 4.18378L5.69683 4.12117L5.916 3.8013L5.94193 3.82387L5.74059 4.11773L5.80152 4.18483L5.66376 4.32516L5.68909 4.36188L5.83285 4.26358L5.60719 4.64109L5.57932 4.62174L5.61986 4.5403L5.5199 4.46348L5.38139 4.69584L5.51943 4.93727L5.57722 4.88511V4.72485L5.87837 5.19385L5.72214 5.03764L5.70329 5.07068L5.73409 5.16553L5.73509 5.17187V5.24021L6 5.58061L5.97537 5.60497ZM5.70232 2.96426L5.97537 3.31512L6 3.29076L5.73509 2.95036V2.88202L5.73409 2.87568L5.70329 2.78083L5.72214 2.7478L5.87837 2.904L5.57722 2.435V2.59526L5.51943 2.64742L5.38139 2.40599L5.5199 2.17364L5.61986 2.25045L5.57932 2.33189L5.60719 2.35124L5.83285 1.97373L5.68909 2.07203L5.66376 2.03531L5.80152 1.89499L5.74059 1.82788L5.94193 1.53402L5.916 1.51145L5.69683 1.83132L5.75368 1.89394L5.61922 2.0309L5.68113 2.12067L5.72236 2.09248L5.6437 2.22408L5.5111 2.12217L5.34217 2.40557L5.51156 2.70184L5.60999 2.613V2.54902L5.7088 2.7029L5.66692 2.77629L5.70232 2.8853V2.96426ZM5.97537 0.803672L5.70232 0.452813V0.373851L5.66692 0.264847L5.7088 0.191457L5.60999 0.0375752V0.101553L5.51156 0.190395L5.34217 -0.105877L5.5111 -0.389275L5.6437 -0.287371L5.72236 -0.418968L5.68113 -0.390776L5.61922 -0.480546L5.75368 -0.617511L5.69683 -0.680123L5.916 -1L5.94193 -0.977425L5.74059 -0.683567L5.80152 -0.616462L5.66376 -0.476137L5.68909 -0.439416L5.83285 -0.537715L5.60719 -0.160205L5.57932 -0.17956L5.61986 -0.260993L5.5199 -0.337812L5.38139 -0.105454L5.51943 0.135977L5.57722 0.0838128V-0.076449L5.87837 0.392556L5.72214 0.236349L5.70329 0.269388L5.73409 0.364229L5.73509 0.370577V0.43891L6 0.779317L5.97537 0.803672Z" fill="#E8AA00"/>
<path fill-rule="evenodd" clip-rule="evenodd" d="M3.65335 7.28229H4.4301V7.46459H4.60709V7.61042H4.81948V8.08438H4.60709V8.23021H4.4301V8.37604H3.67408L3.46492 8.56193L3.25476 8.37604H2.55399V8.23021H2.377V8.08438H2.20001V7.61042H2.377V7.46459H2.55399V7.28229H3.27558L3.46492 7.11483L3.65335 7.28229Z" fill="#389F5D"/>
<path d="M4.4301 7.28229H4.5051V7.20729H4.4301V7.28229ZM3.65335 7.28229L3.60353 7.33836L3.62484 7.35729H3.65335V7.28229ZM4.4301 7.46459H4.3551V7.53959H4.4301V7.46459ZM4.60709 7.46459H4.68209V7.38959H4.60709V7.46459ZM4.60709 7.61042H4.53209V7.68542H4.60709V7.61042ZM4.81948 7.61042H4.89448V7.53542H4.81948V7.61042ZM4.81948 8.08438V8.15938H4.89448V8.08438H4.81948ZM4.60709 8.08438V8.00938H4.53209V8.08438H4.60709ZM4.60709 8.23021V8.30521H4.68209V8.23021H4.60709ZM4.4301 8.23021V8.15521H4.3551V8.23021H4.4301ZM4.4301 8.37604V8.45105H4.5051V8.37604H4.4301ZM3.67408 8.37604V8.30104H3.64556L3.62425 8.31998L3.67408 8.37604ZM3.46492 8.56193L3.41522 8.61811L3.46503 8.66217L3.51474 8.61799L3.46492 8.56193ZM3.25476 8.37604L3.30445 8.31987L3.28317 8.30104H3.25476V8.37604ZM2.55399 8.37604H2.47899V8.45105H2.55399V8.37604ZM2.55399 8.23021H2.62899V8.15521H2.55399V8.23021ZM2.377 8.23021H2.302V8.30521H2.377V8.23021ZM2.377 8.08438H2.452V8.00938H2.377V8.08438ZM2.20001 8.08438H2.12501V8.15938H2.20001V8.08438ZM2.20001 7.61042V7.53542H2.12501V7.61042H2.20001ZM2.377 7.61042V7.68542H2.452V7.61042H2.377ZM2.377 7.46459V7.38959H2.302V7.46459H2.377ZM2.55399 7.46459V7.53959H2.62899V7.46459H2.55399ZM2.55399 7.28229V7.20729H2.47899V7.28229H2.55399ZM3.27558 7.28229V7.35729H3.30399L3.32527 7.33847L3.27558 7.28229ZM3.46492 7.11483L3.51474 7.05877L3.46503 7.01459L3.41523 7.05865L3.46492 7.11483ZM4.4301 7.20729H3.65335V7.35729H4.4301V7.20729ZM4.5051 7.46459V7.28229H4.3551V7.46459H4.5051ZM4.60709 7.38959H4.4301V7.53959H4.60709V7.38959ZM4.68209 7.61042V7.46459H4.53209V7.61042H4.68209ZM4.81948 7.53542H4.60709V7.68542H4.81948V7.53542ZM4.89448 8.08438V7.61042H4.74448V8.08438H4.89448ZM4.60709 8.15938H4.81948V8.00938H4.60709V8.15938ZM4.68209 8.23021V8.08438H4.53209V8.23021H4.68209ZM4.4301 8.30521H4.60709V8.15521H4.4301V8.30521ZM4.5051 8.37604V8.23021H4.3551V8.37604H4.5051ZM3.67408 8.45105H4.4301V8.30104H3.67408V8.45105ZM3.51474 8.61799L3.7239 8.43211L3.62425 8.31998L3.41509 8.50587L3.51474 8.61799ZM3.20507 8.43222L3.41522 8.61811L3.51461 8.50576L3.30445 8.31987L3.20507 8.43222ZM2.55399 8.45105H3.25476V8.30104H2.55399V8.45105ZM2.47899 8.23021V8.37604H2.62899V8.23021H2.47899ZM2.377 8.30521H2.55399V8.15521H2.377V8.30521ZM2.302 8.08438V8.23021H2.452V8.08438H2.302ZM2.20001 8.15938H2.377V8.00938H2.20001V8.15938ZM2.12501 7.61042V8.08438H2.27501V7.61042H2.12501ZM2.377 7.53542H2.20001V7.68542H2.377V7.53542ZM2.302 7.46459V7.61042H2.452V7.46459H2.302ZM2.55399 7.38959H2.377V7.53959H2.55399V7.38959ZM2.47899 7.28229V7.46459H2.62899V7.28229H2.47899ZM3.27558 7.20729H2.55399V7.35729H3.27558V7.20729ZM3.32527 7.33847L3.51461 7.171L3.41523 7.05865L3.22589 7.22612L3.32527 7.33847ZM3.41509 7.17089L3.60353 7.33836L3.70317 7.22623L3.51474 7.05877L3.41509 7.17089Z" fill="#E8AA00"/>
<path fill-rule="evenodd" clip-rule="evenodd" d="M2.65762 7.70366V7.38159H3.03291L2.65762 7.70366ZM4.23645 7.70366V7.38159H3.86116L4.23645 7.70366ZM2.65762 8.287V7.96492L3.03291 8.287H2.65762ZM4.23645 7.96492V8.287H3.86116L4.23645 7.96492Z" fill="#C51918"/>
<path fill-rule="evenodd" clip-rule="evenodd" d="M3.32257 7.4093L3.45211 7.23966L3.58003 7.4093H3.32257ZM3.32257 7.56778L3.45211 7.73743L3.58003 7.56778H3.32257ZM3.45211 7.96883L3.32257 8.13847H3.58003L3.45211 7.96883ZM3.32257 8.29695L3.45211 8.46659L3.58003 8.29695H3.32257Z" fill="#E8AA00"/>
<path fill-rule="evenodd" clip-rule="evenodd" d="M3.32523 7.38919V7.46211H3.25085V7.56211H3.32523V7.63502H3.58477V7.56211H3.65915V7.46211H3.58477V7.38919H3.32523ZM3.58477 8.19127V8.11836H3.32523V8.19127H3.25085V8.29127H3.32523V8.36419H3.58477V8.29127H3.65915V8.19127H3.58477Z" fill="#AF0100"/>
<path fill-rule="evenodd" clip-rule="evenodd" d="M2.827 7.77465L2.95031 7.60424L3.07207 7.77465H2.827ZM2.827 7.93384L2.95031 8.10424L3.07207 7.93384H2.827ZM3.97686 7.60424L3.85354 7.77465H4.09862L3.97686 7.60424ZM3.85354 7.93384L3.97686 8.10424L4.09862 7.93384H3.85354Z" fill="#AF0100"/>
<path fill-rule="evenodd" clip-rule="evenodd" d="M2.82608 7.75378V7.82815H2.75528V7.93015H2.82608V8.00453H3.07313V7.93015H3.14393V7.82815H3.07313V7.75378H2.82608ZM4.09968 7.82815V7.75378H3.85262V7.82815H3.78183V7.93015H3.85262V8.00453H4.09968V7.93015H4.17047V7.82815H4.09968Z" fill="#E8AA00"/>
<mask id="mask3_14655_23450" style="mask-type:alpha" maskUnits="userSpaceOnUse" x="2" y="8" width="3" height="3">
<path fill-rule="evenodd" clip-rule="evenodd" d="M3.1085 8.62545L2.22272 9.1249V9.95271L3.1085 10.4723H4.0679L4.97475 9.95271V9.1249L4.0679 8.62545H3.1085Z" fill="white"/>
</mask>
<g mask="url(#mask3_14655_23450)">
<path d="M2.23538 9.54792H3.61591V10.4594H2.23538V9.54792Z" fill="#E8AA00"/>
<rect x="2.09381" y="8.63646" width="1.52212" height="0.911458" fill="#F9E8E7"/>
<path d="M2.44778 9.16762L2.90604 8.89167V9.16762H2.44778Z" fill="#E8AA00"/>
<rect width="1.52212" height="0.911458" transform="matrix(-1 0 0 1 5.13806 8.63646)" fill="#E8AA00"/>
<path d="M4.67789 9.16762L4.21963 8.89167V9.16762H4.67789Z" fill="#F9E8E7"/>
<rect x="4.99646" y="10.4594" width="1.38053" height="0.911458" transform="rotate(-180 4.99646 10.4594)" fill="#F9E8E7"/>
<path d="M4.64249 9.92822L4.18423 10.2042V9.92822H4.64249Z" fill="#E8AA00"/>
<path d="M2.44778 9.87063L2.90604 10.1466V9.87063H2.44778Z" fill="#FCFCFC"/>
</g>
<path fill-rule="evenodd" clip-rule="evenodd" d="M3.12036 9.18333H3.35045L3.58054 9.11042L3.81063 9.18333H4.04072V9.87604H3.81063L3.58054 9.98542L3.35045 9.87604H3.12036V9.18333Z" fill="#C51918"/>
<path fill-rule="evenodd" clip-rule="evenodd" d="M3.89912 8.7688H4.02412V8.90986H4.07534V9.00986H4.02412V9.06368H3.89912V8.7688ZM2.64359 9.2063H2.51859V9.50118H2.64359V9.44736H2.69481V9.34736H2.64359V9.2063ZM2.82058 9.2063H2.69558V9.50118H2.82058V9.2063ZM2.64359 9.57088H2.51859V9.86576H2.64359V9.81194H2.69481V9.71194H2.64359V9.57088ZM2.69558 9.57088H2.82058V9.86576H2.69558V9.57088ZM4.46549 9.2063H4.59049V9.34736H4.64171V9.44736H4.59049V9.50118H4.46549V9.2063ZM4.76748 9.2063H4.64248V9.50118H4.76748V9.2063ZM4.59049 9.57088H4.46549V9.86576H4.59049V9.81194H4.64171V9.71194H4.59049V9.57088ZM4.64248 9.57088H4.76748V9.86576H4.64248V9.57088ZM4.20111 8.7688H4.07611V9.06368H4.20111V8.7688ZM3.17456 8.7688H3.04956V9.06368H3.17456V9.00986H3.22578V8.90986H3.17456V8.7688ZM3.22655 8.7688H3.35155V9.06368H3.22655V8.7688ZM3.89912 10.0084H4.02412V10.1494H4.07534V10.2494H4.02412V10.3033H3.89912V10.0084ZM4.20111 10.0084H4.07611V10.3033H4.20111V10.0084ZM3.17456 10.0084H3.04956V10.3033H3.17456V10.2494H3.22578V10.1494H3.17456V10.0084ZM3.22655 10.0084H3.35155V10.3033H3.22655V10.0084Z" fill="#C9343F"/>
<path fill-rule="evenodd" clip-rule="evenodd" d="M3.51255 9.33313H3.54795V9.234H3.37109V9.34734H3.22534V9.50979H3.36087V9.47333H3.26074V9.3838H3.38095L3.56188 9.54037L3.38095 9.69694H3.26074V9.60742H3.36087V9.57096H3.22534V9.7334H3.37109V9.84675H3.54795V9.74761H3.51255V9.81029H3.40649V9.72246L3.59049 9.56324L3.77448 9.72246V9.81029H3.66842V9.74761H3.63302V9.84675H3.80988V9.7334H3.95563V9.57096H3.82011V9.60742H3.92023V9.69694H3.80002L3.61909 9.54037L3.80002 9.3838H3.92023V9.47333H3.82011V9.50979H3.95563V9.34734H3.80988V9.234H3.63302V9.33313H3.66842V9.27046H3.77448V9.35828L3.59049 9.51751L3.40649 9.35828V9.27046H3.51255V9.33313Z" fill="white"/>
<path fill-rule="evenodd" clip-rule="evenodd" d="M3.79222 2.4H3.16884V4.4H3.79222V2.4ZM2.38962 2.82308H2.77923V3.9H2.38962V2.82308ZM4.22079 2.82308H4.6104V3.9H4.22079V2.82308Z" fill="#E8AA00"/>
<path fill-rule="evenodd" clip-rule="evenodd" d="M3.16883 2.55385H2.77922V4.09231H3.16883V2.55385ZM2.38961 2.97693H2V3.70769H2.38961V2.97693ZM4.61039 2.97693H5V3.70769H4.61039V2.97693ZM4.18182 2.55385H3.79221V4.09231H4.18182V2.55385Z" fill="#389F5D"/>
<path fill-rule="evenodd" clip-rule="evenodd" d="M3.0909 2.74616C3.0909 2.80988 3.03857 2.86154 2.97402 2.86154C2.90946 2.86154 2.85713 2.80988 2.85713 2.74616C2.85713 2.68243 2.90946 2.63077 2.97402 2.63077C3.03857 2.63077 3.0909 2.68243 3.0909 2.74616ZM2.31168 3.13077C2.31168 3.1945 2.25935 3.24616 2.19479 3.24616C2.13024 3.24616 2.07791 3.1945 2.07791 3.13077C2.07791 3.06705 2.13024 3.01539 2.19479 3.01539C2.25935 3.01539 2.31168 3.06705 2.31168 3.13077ZM2.31168 3.55385C2.31168 3.61757 2.25935 3.66923 2.19479 3.66923C2.13024 3.66923 2.07791 3.61757 2.07791 3.55385C2.07791 3.49012 2.13024 3.43846 2.19479 3.43846C2.25935 3.43846 2.31168 3.49012 2.31168 3.55385ZM2.97402 4.01539C3.03857 4.01539 3.0909 3.96373 3.0909 3.9C3.0909 3.83628 3.03857 3.78462 2.97402 3.78462C2.90946 3.78462 2.85713 3.83628 2.85713 3.9C2.85713 3.96373 2.90946 4.01539 2.97402 4.01539ZM4.80518 3.24616C4.86974 3.24616 4.92207 3.1945 4.92207 3.13077C4.92207 3.06705 4.86974 3.01539 4.80518 3.01539C4.74063 3.01539 4.6883 3.06705 4.6883 3.13077C4.6883 3.1945 4.74063 3.24616 4.80518 3.24616ZM4.92207 3.55385C4.92207 3.61757 4.86974 3.66923 4.80518 3.66923C4.74063 3.66923 4.6883 3.61757 4.6883 3.55385C4.6883 3.49012 4.74063 3.43846 4.80518 3.43846C4.86974 3.43846 4.92207 3.49012 4.92207 3.55385ZM3.987 4.01539C4.05156 4.01539 4.10389 3.96373 4.10389 3.9C4.10389 3.83628 4.05156 3.78462 3.987 3.78462C3.92245 3.78462 3.87012 3.83628 3.87012 3.9C3.87012 3.96373 3.92245 4.01539 3.987 4.01539ZM4.10389 2.74616C4.10389 2.80988 4.05156 2.86154 3.987 2.86154C3.92245 2.86154 3.87012 2.80988 3.87012 2.74616C3.87012 2.68243 3.92245 2.63077 3.987 2.63077C4.05156 2.63077 4.10389 2.68243 4.10389 2.74616Z" fill="#E1E5E8"/>
<path fill-rule="evenodd" clip-rule="evenodd" d="M3.5974 2.59231C3.5974 2.65603 3.54507 2.70769 3.48052 2.70769C3.41596 2.70769 3.36363 2.65603 3.36363 2.59231C3.36363 2.52858 3.41596 2.47692 3.48052 2.47692C3.54507 2.47692 3.5974 2.52858 3.5974 2.59231ZM2.7013 3.01539C2.7013 3.07911 2.64897 3.13077 2.58441 3.13077C2.51986 3.13077 2.46753 3.07911 2.46753 3.01539C2.46753 2.95166 2.51986 2.9 2.58441 2.9C2.64897 2.9 2.7013 2.95166 2.7013 3.01539ZM3.48052 4.36154C3.54507 4.36154 3.5974 4.30988 3.5974 4.24616C3.5974 4.18243 3.54507 4.13077 3.48052 4.13077C3.41596 4.13077 3.36363 4.18243 3.36363 4.24616C3.36363 4.30988 3.41596 4.36154 3.48052 4.36154ZM4.53246 3.01539C4.53246 3.07911 4.48013 3.13077 4.41558 3.13077C4.35103 3.13077 4.2987 3.07911 4.2987 3.01539C4.2987 2.95166 4.35103 2.9 4.41558 2.9C4.48013 2.9 4.53246 2.95166 4.53246 3.01539ZM2.58441 3.82308C2.64897 3.82308 2.7013 3.77142 2.7013 3.70769C2.7013 3.64397 2.64897 3.59231 2.58441 3.59231C2.51986 3.59231 2.46753 3.64397 2.46753 3.70769C2.46753 3.77142 2.51986 3.82308 2.58441 3.82308ZM4.53246 3.70769C4.53246 3.77142 4.48013 3.82308 4.41558 3.82308C4.35103 3.82308 4.2987 3.77142 4.2987 3.70769C4.2987 3.64397 4.35103 3.59231 4.41558 3.59231C4.48013 3.59231 4.53246 3.64397 4.53246 3.70769Z" fill="#C51918"/>
<path fill-rule="evenodd" clip-rule="evenodd" d="M2.80327 3.19572L3.18256 2.85318H3.7984L4.23062 3.24616H4.8052V3.4H4.24619V3.40803L3.7984 3.86347H3.18256L2.80327 3.45242V3.4H2.15585V3.24616H2.80327V3.19572Z" fill="#C51918"/>
<path fill-rule="evenodd" clip-rule="evenodd" d="M3.50553 3.13825L3.68971 3.32491L3.49635 3.50807L3.30299 3.32491L3.48717 3.13825L3.49635 3.12979L3.50553 3.13825ZM3.53906 3.58894L3.56063 3.56897L3.53855 3.54805L3.73049 3.36624L3.93068 3.56912L3.84059 3.66414H3.78717L3.6878 3.72665L3.53906 3.58894ZM3.49635 3.62848L3.31176 3.79939L3.18849 3.72183H3.12676L2.98122 3.56833L3.22004 3.3263L2.97968 3.09861L3.1374 2.94556L3.19456 2.99046L3.27726 2.90692L3.2524 2.88173L3.29427 2.84147L3.49635 3.04627L3.69843 2.84147L3.7403 2.88173L3.71543 2.90692L3.79814 2.99046L3.8553 2.94556L4.01302 3.09861L3.77266 3.3263L4.01148 3.56833L3.86593 3.72183H3.80421L3.68093 3.79939L3.49635 3.62848ZM3.59935 3.15066L3.60178 3.1481L3.54643 3.09703L3.53948 3.08999L3.68345 2.95715L3.79323 3.06805L3.85122 3.0225L3.92914 3.09811L3.73188 3.28497L3.59935 3.15066ZM3.47572 3.56849L3.30489 3.72665L3.20553 3.66414H3.15211L3.06202 3.56912L3.26221 3.36624L3.47572 3.56849ZM3.06356 3.09811L3.26082 3.28497L3.45321 3.08999L3.30925 2.95715L3.19946 3.06805L3.14148 3.0225L3.06356 3.09811Z" fill="#E8AA00"/>
<path fill-rule="evenodd" clip-rule="evenodd" d="M2.22418 10.7208C2.11967 10.5882 2.04913 10.4987 2.03055 10.5C1.97222 10.5043 1.91751 11.1219 2.67572 11.5918C2.67572 11.5918 2.78764 11.654 2.85283 11.5918C2.91801 11.5296 2.85283 11.438 2.85283 11.438C2.60773 11.2077 2.37878 10.9171 2.22418 10.7208L2.22418 10.7208ZM4.77582 10.7208L4.77582 10.7208L4.77583 10.7208C4.88034 10.5882 4.95087 10.4987 4.96945 10.5C5.02778 10.5043 5.08249 11.1219 4.32428 11.5918C4.32428 11.5918 4.21236 11.654 4.14717 11.5918C4.08199 11.5296 4.14717 11.438 4.14717 11.438C4.39227 11.2077 4.62122 10.9171 4.77582 10.7208ZM4.72035 11.5518C4.47121 11.6255 4.18265 11.6409 4.07231 11.5933C4.03711 11.5781 3.99974 11.5662 3.96048 11.5573C3.85072 11.5324 3.74372 11.5321 3.61676 11.546L3.56664 11.5518C3.55469 11.5532 3.54778 11.5538 3.54647 11.5538C3.53902 11.5538 3.53087 11.5549 3.52192 11.557C3.51298 11.5549 3.50482 11.5538 3.49738 11.5538C3.49606 11.5538 3.48916 11.5532 3.4772 11.5518L3.42709 11.546C3.30012 11.5321 3.19313 11.5324 3.08336 11.5573C3.0441 11.5662 3.00673 11.5781 2.97154 11.5933C2.8612 11.6409 2.57264 11.6255 2.32349 11.5518C2.32349 11.5518 2.77687 11.7339 3.04614 11.6532C3.07225 11.642 3.09979 11.6332 3.12877 11.6266C3.20542 11.6092 3.28393 11.6076 3.37837 11.6165C3.33865 11.635 3.29247 11.6561 3.23876 11.6779V11.7C3.3448 11.657 3.46906 11.6366 3.52192 11.6303C3.57478 11.6366 3.69905 11.657 3.80509 11.7V11.6779C3.75137 11.6561 3.70519 11.635 3.66547 11.6165C3.75991 11.6076 3.83842 11.6092 3.91507 11.6266C3.94405 11.6332 3.97159 11.642 3.9977 11.6532C4.26697 11.7339 4.72035 11.5518 4.72035 11.5518Z" fill="#E8AA00"/>
<path fill-rule="evenodd" clip-rule="evenodd" d="M2.88198 4.9887L2.25601 5.54033V6.06572L2.80325 6.61562H3.92064L4.53672 6.02888V5.58158L3.92064 4.9887H2.88198Z" fill="#389F5D"/>
<path fill-rule="evenodd" clip-rule="evenodd" d="M3.09734 5.04707H2.95575V5.15645H3.09734V5.04707ZM3.09734 6.47709H2.95575V6.58646H3.09734V6.47709ZM3.30973 6.47709H3.45132V6.58646H3.30973V6.47709ZM3.45132 5.04707H3.30973V5.15645H3.45132V5.04707ZM3.66371 6.47709H3.80531V6.58646H3.66371V6.47709ZM3.80531 5.04707H3.66371V5.15645H3.80531V5.04707Z" fill="#C51918"/>
<path fill-rule="evenodd" clip-rule="evenodd" d="M3.27688 5.01875H3.13275V5.12813H3.27688V5.01875ZM3.27688 6.47709H3.13275V6.58646H3.27688V6.47709ZM3.49308 5.01875H3.63722V5.12813H3.49308V5.01875ZM3.63722 6.47709H3.49308V6.58646H3.63722V6.47709Z" fill="#E8AA00"/>
<path fill-rule="evenodd" clip-rule="evenodd" d="M2.45686 4.92096H4.34688V5.21303H4.6175V6.42043H4.34688V6.67002H2.45686V6.42043H2.16299V5.21303H2.45686V4.92096ZM2.56306 5.3224H2.26919V6.31106H2.56306V6.56064H4.24068V6.31106H4.51131V5.3224H4.24068V5.03034H2.56306V5.3224Z" fill="#750100"/>
<path fill-rule="evenodd" clip-rule="evenodd" d="M3.20353 4.8H3.02654V4.98229H3.20353V4.8ZM3.48672 4.8H3.30973V4.98229H3.48672V4.8ZM3.59292 4.8H3.76991V4.98229H3.59292V4.8ZM3.20353 6.62292H3.02654V6.80521H3.20353V6.62292ZM3.30973 6.62292H3.48672V6.80521H3.30973V6.62292ZM3.76991 6.62292H3.59292V6.80521H3.76991V6.62292ZM1.99734 6.21923V6.04224H2.17964V6.21923H1.99734ZM1.99734 5.75057V5.92756H2.17964V5.75057H1.99734ZM1.99734 5.63589V5.4589H2.17964V5.63589H1.99734ZM4.54602 6.04224V6.21923H4.72831V6.04224H4.54602ZM4.54602 5.92756V5.75057H4.72831V5.92756H4.54602ZM4.54602 5.4589V5.63589H4.72831V5.4589H4.54602Z" fill="#389F5D"/>
<path fill-rule="evenodd" clip-rule="evenodd" d="M2.88919 5.14231L2.58392 5.40782V6.26696L2.83727 6.44623H3.93558L4.18855 6.26696V5.40782L3.90305 5.14231H2.88919Z" fill="#C51918"/>
<path fill-rule="evenodd" clip-rule="evenodd" d="M3.40164 5.49843L3.03329 5.81315H3.40164V5.49843Z" fill="#E1E5E8"/>
<path d="M3.40164 6.09864L3.03329 5.78393H3.40164V6.09864Z" fill="#E8AA00"/>
<path fill-rule="evenodd" clip-rule="evenodd" d="M3.36954 5.49843L3.73788 5.81315H3.36954V5.49843Z" fill="#E8AA00"/>
<path fill-rule="evenodd" clip-rule="evenodd" d="M3.38589 5.89813C3.4475 5.89813 3.49745 5.84818 3.49745 5.78657C3.49745 5.72495 3.4475 5.675 3.38589 5.675C3.32427 5.675 3.27432 5.72495 3.27432 5.78657C3.27432 5.84818 3.32427 5.89813 3.38589 5.89813Z" fill="#29AE66"/>
<path d="M3.36954 6.09864L3.73788 5.78393H3.36954V6.09864Z" fill="#E1E5E8"/>
<path fill-rule="evenodd" clip-rule="evenodd" d="M2.60176 5.675H2.28317V5.777H2.60176V5.675ZM2.60176 5.86094H2.28317V5.96294H2.60176V5.86094ZM4.19468 5.675H4.51326V5.777H4.19468V5.675ZM4.51326 5.86094H4.19468V5.96294H4.51326V5.86094Z" fill="#C51918"/>
<path fill-rule="evenodd" clip-rule="evenodd" d="M2.56636 5.56563H2.28317V5.67719H2.56636V5.56563ZM2.56636 5.75157H2.28317V5.86313H2.56636V5.75157ZM2.28317 5.9375H2.56636V6.04907H2.28317V5.9375ZM4.47786 5.56563H4.19468V5.67719H4.47786V5.56563ZM4.19468 5.75157H4.47786V5.86313H4.19468V5.75157ZM4.47786 5.9375H4.19468V6.04907H4.47786V5.9375Z" fill="#E8AA00"/>
<path fill-rule="evenodd" clip-rule="evenodd" d="M4.99248 0.795173L4.99141 0.997761H3.51194L3.51089 1.91776H3.04699C2.96601 1.91776 2.74398 1.76226 2.74398 1.76226H2.3673L2.19341 1.58461V1.40611L2.00677 1.1845L2.00785 0.981916H3.48731L3.48837 0.0619164H3.95227C4.03325 0.0619164 4.25528 0.217414 4.25528 0.217414H4.63195L4.80585 0.395066V0.57357L4.99248 0.795173Z" fill="#E8AA00"/>
<path fill-rule="evenodd" clip-rule="evenodd" d="M2.00679 0.795173L2.00786 0.997761H3.48732L3.48838 1.91776H3.95228C4.03326 1.91776 4.25529 1.76226 4.25529 1.76226H4.63197L4.80586 1.58461V1.40611L4.99249 1.1845L4.99142 0.981916H3.51195L3.5109 0.0619164H3.047C2.96602 0.0619164 2.74399 0.217414 2.74399 0.217414H2.36731L2.19342 0.395066V0.57357L2.00679 0.795173Z" fill="#E1E5E8"/>
<path fill-rule="evenodd" clip-rule="evenodd" d="M3.00109 0.342682L2.98489 0.264435L3.30402 0.191049C3.34233 0.17255 3.40882 0.119849 3.50039 0.0342102L3.5433 0.0824977L3.55066 0.0742102C3.64224 0.159849 3.70873 0.21255 3.74704 0.231049L4.06617 0.304435L4.04997 0.382682L3.87299 0.346123L3.88992 0.361263C3.87776 0.36855 3.86453 0.379172 3.85035 0.393064L3.77563 0.382062L3.78258 0.356794L3.76382 0.353739C3.75008 0.379663 3.73436 0.416755 3.71757 0.46435L3.64284 0.442347L3.6731 0.297405L3.5042 0.138994L3.38588 0.249976C3.4006 0.26332 3.41528 0.278639 3.42998 0.295969C3.41742 0.300746 3.40542 0.304961 3.39396 0.308617L3.3889 0.309826L3.40821 0.402347L3.33348 0.42435C3.32373 0.396696 3.31434 0.372589 3.30548 0.352157L3.29932 0.353064C3.28515 0.339172 3.27192 0.32855 3.25975 0.321263L3.28091 0.302352C3.27744 0.296418 3.27412 0.291275 3.27096 0.286935L3.00109 0.342682ZM3.01422 0.629181L3.05683 0.5622L2.83642 0.414418L2.86093 0.380143L2.79812 0.332797L2.77108 0.370609L2.68361 0.311962L2.641 0.378943L2.7249 0.435191L2.70762 0.459353L2.77043 0.506699L2.79024 0.479001L3.01422 0.629181ZM2.74149 0.709181L2.7841 0.6422L2.56369 0.494418L2.5882 0.460143L2.52539 0.412797L2.49835 0.450609L2.41088 0.391962L2.36828 0.458943L2.45217 0.515191L2.43489 0.539353L2.4977 0.586699L2.51751 0.559001L2.74149 0.709181ZM2.62461 0.949181L2.66722 0.8822L2.44681 0.734418L2.47132 0.700143L2.40851 0.652797L2.38147 0.690609L2.294 0.631962L2.25139 0.698943L2.33529 0.755191L2.31801 0.779353L2.38082 0.826699L2.40062 0.799001L2.62461 0.949181ZM2.62826 1.14119L2.58565 1.07421L2.36166 1.22439L2.34186 1.19669L2.27905 1.24404L2.29632 1.2682L2.21243 1.32445L2.25504 1.39143L2.34251 1.33278L2.36955 1.37059L2.43236 1.32325L2.40785 1.28897L2.62826 1.14119ZM2.70253 1.31421L2.74514 1.38119L2.52473 1.52897L2.54924 1.56325L2.48643 1.61059L2.45939 1.57278L2.37192 1.63143L2.32932 1.56445L2.41321 1.5082L2.39593 1.48404L2.45874 1.43669L2.47855 1.46439L2.70253 1.31421ZM2.97526 1.39421L3.01787 1.46119L2.79746 1.60897L2.82197 1.64325L2.75916 1.69059L2.73212 1.65278L2.64465 1.71143L2.60204 1.64445L2.68593 1.5882L2.66866 1.56404L2.73147 1.51669L2.75127 1.54439L2.97526 1.39421ZM3.39101 1.77653C3.37846 1.77176 3.36646 1.76754 3.355 1.76389L3.34017 1.76035L3.36925 1.62104L3.29452 1.59904C3.27065 1.66672 3.24894 1.71316 3.232 1.73646L2.96213 1.68071L2.94592 1.75896L3.25352 1.82969L3.25343 1.82998L3.29792 1.85953L3.30377 1.85588C3.34254 1.88292 3.39548 1.92751 3.46143 1.98918L3.48657 1.96089L3.5117 1.98918C3.60328 1.90354 3.66977 1.85084 3.70808 1.83234L3.71843 1.82996C3.73188 1.84144 3.74538 1.85129 3.75898 1.85953L3.80347 1.82998L3.79897 1.81473L3.80393 1.8103L4.02721 1.75896L4.01101 1.68071L3.74113 1.73646C3.72419 1.71316 3.70248 1.66672 3.67861 1.59904L3.60388 1.62104L3.63414 1.76599L3.48657 1.9044L3.37245 1.79736C3.37864 1.79078 3.38482 1.78383 3.39101 1.77653ZM4.34488 1.14119L4.38748 1.07421L4.61147 1.22439L4.63128 1.19669L4.69409 1.24404L4.67681 1.2682L4.7607 1.32445L4.71809 1.39143L4.63062 1.33278L4.60358 1.37059L4.54077 1.32325L4.56528 1.28897L4.34488 1.14119ZM4.22799 1.38119L4.2706 1.31421L4.49459 1.46439L4.51439 1.43669L4.5772 1.48404L4.55993 1.5082L4.64382 1.56445L4.60121 1.63143L4.51374 1.57278L4.4867 1.61059L4.42389 1.56325L4.4484 1.52897L4.22799 1.38119ZM3.95527 1.46119L3.99787 1.39421L4.22186 1.54439L4.24167 1.51669L4.30448 1.56404L4.2872 1.5882L4.37109 1.64445L4.32848 1.71143L4.24101 1.65278L4.21397 1.69059L4.15116 1.64325L4.17567 1.60897L3.95527 1.46119ZM4.38384 0.9222L4.42645 0.989181L4.65043 0.839001L4.67024 0.866699L4.73305 0.819353L4.71577 0.795191L4.79966 0.738943L4.75705 0.671962L4.66958 0.730609L4.64254 0.692797L4.57973 0.740143L4.60424 0.774418L4.38384 0.9222ZM4.26695 0.6822L4.30956 0.749181L4.53355 0.599001L4.55335 0.626699L4.61617 0.579353L4.59889 0.555191L4.68278 0.498943L4.64017 0.431962L4.5527 0.490609L4.52566 0.452797L4.46285 0.500143L4.48736 0.534418L4.26695 0.6822ZM3.99423 0.6022L4.03684 0.669181L4.26082 0.519001L4.28063 0.546699L4.34344 0.499353L4.32616 0.475191L4.41005 0.418943L4.36744 0.351962L4.27997 0.410609L4.25293 0.372797L4.19012 0.420143L4.21463 0.454418L3.99423 0.6022Z" fill="#C51918"/>
<path fill-rule="evenodd" clip-rule="evenodd" d="M3.10379 0.57648L3.54506 0.342476V0.982476H4.63597L4.37603 1.16969V1.41463H3.96461L3.52334 1.64864V1.00864H2.43243L2.69238 0.821422V0.57648H3.10379Z" fill="#C51918"/>
<path fill-rule="evenodd" clip-rule="evenodd" d="M3.9646 0.57648L3.52333 0.342476V0.982476H2.43242L2.69236 1.16969V1.41463H3.10378L3.54505 1.64864V1.00864H4.63596L4.37601 0.821422V0.57648H3.9646Z" fill="#29AE66"/>
<path fill-rule="evenodd" clip-rule="evenodd" d="M2.88943 0.742355L2.96144 0.600456L3.14461 0.698425L3.19507 0.623345L3.32334 0.714217L3.28389 0.772919L3.82604 1.06289L3.85946 1.01317L3.98773 1.10404L3.96532 1.13739L4.02388 1.16871L3.95188 1.31061L3.87612 1.27009L3.81463 1.36158L3.68636 1.27071L3.73684 1.1956L3.19469 0.905623L3.15024 0.971761L3.02197 0.880888L3.05541 0.83113L2.88943 0.742355Z" fill="#29AE66"/>
<path fill-rule="evenodd" clip-rule="evenodd" d="M4.04481 0.703366L3.96308 0.566836L3.78719 0.677344L3.73162 0.605966L3.61 0.705565L3.65345 0.761372L3.13285 1.08846L3.09604 1.04118L2.97442 1.14078L2.99911 1.17249L2.94287 1.20782L3.0246 1.34435L3.09734 1.29865L3.16507 1.38562L3.28668 1.28602L3.23108 1.21462L3.75169 0.887531L3.80065 0.950406L3.92226 0.850807L3.88543 0.803503L4.04481 0.703366Z" fill="#C51918"/>
</g>
<path fill-rule="evenodd" clip-rule="evenodd" d="M9.53669 1C9.53669 1 10.7018 3.7608 9.66665 4.93326C8.63152 6.10572 6 5.87967 6 5.87967C6 5.87967 9.3782 7.4055 10.8501 5.30453C12.3219 3.20356 9.53669 1 9.53669 1Z" fill="#F7FCFF"/>
<path fill-rule="evenodd" clip-rule="evenodd" d="M7.42213 2.62423L7.11385 2.84122L7.22261 2.47761L6.92333 2.2481L7.29882 2.24036L7.42213 1.88153L7.54544 2.24036L7.92092 2.2481L7.62165 2.47761L7.7304 2.84122L7.42213 2.62423ZM7.48176 3.6269L7.17349 3.84389L7.28224 3.48027L6.98296 3.25076L7.35845 3.24302L7.48176 2.88419L7.60507 3.24302L7.98056 3.25076L7.68128 3.48027L7.79003 3.84389L7.48176 3.6269ZM6.23633 3.92133L6.5446 3.70434L6.85288 3.92133L6.74412 3.55771L7.0434 3.3282L6.66791 3.32046L6.5446 2.96163L6.42129 3.32046L6.04581 3.3282L6.34509 3.55771L6.23633 3.92133ZM7.48176 4.67864L7.17349 4.89562L7.28224 4.53201L6.98296 4.3025L7.35845 4.29476L7.48176 3.93593L7.60507 4.29476L7.98056 4.3025L7.68128 4.53201L7.79003 4.89562L7.48176 4.67864ZM8.19229 3.53745L8.50056 3.32046L8.80884 3.53745L8.70008 3.17384L8.99936 2.94433L8.62387 2.93659L8.50056 2.57776L8.37725 2.93659L8.00177 2.94433L8.30104 3.17384L8.19229 3.53745Z" fill="#F7FCFF"/>
</g>
</g>
<rect width="16" height="12" fill="url(#paint0_linear_14655_23450)" style="mix-blend-mode:overlay"/>
</g>
<defs>
<linearGradient id="paint0_linear_14655_23450" x1="8" y1="0" x2="8" y2="12" gradientUnits="userSpaceOnUse">
<stop stop-color="white" stop-opacity="0.7"/>
<stop offset="1" stop-opacity="0.3"/>
</linearGradient>
<clipPath id="clip0_14655_23450">
<rect width="16" height="12" rx="1" fill="white"/>
</clipPath>
</defs>
</svg>
