<svg width="16" height="12" viewBox="0 0 16 12" fill="none" xmlns="http://www.w3.org/2000/svg">
<g clip-path="url(#clip0_14655_23405)">
<mask id="mask0_14655_23405" style="mask-type:alpha" maskUnits="userSpaceOnUse" x="0" y="0" width="16" height="12">
<rect width="16" height="12" fill="white"/>
</mask>
<g mask="url(#mask0_14655_23405)">
<path fill-rule="evenodd" clip-rule="evenodd" d="M0 0V12H16V0H0Z" fill="#E31D1C"/>
<mask id="mask1_14655_23405" style="mask-type:alpha" maskUnits="userSpaceOnUse" x="0" y="0" width="16" height="12">
<path fill-rule="evenodd" clip-rule="evenodd" d="M0 0V12H16V0H0Z" fill="white"/>
</mask>
<g mask="url(#mask1_14655_23405)">
<path fill-rule="evenodd" clip-rule="evenodd" d="M8.0127 8.05676C6.94204 7.793 6.10348 6.89684 6.11321 5.58316C6.12232 4.35346 6.86685 3.31403 8.04382 3.03265C9.2208 2.75127 10.257 3.34858 10.257 3.34858C9.93174 2.58067 8.80163 2.04119 7.87514 2.04275C6.15052 2.04563 4.31208 3.44426 4.29624 5.58316C4.27981 7.80066 6.26493 9.06353 8.01084 9.06061C9.41047 9.05826 10.0744 8.10069 10.2119 7.69334C10.2119 7.69334 9.08336 8.32052 8.0127 8.05676ZM10.4516 5.16329L9.38491 5.55512L10.5885 5.97972L10.568 7.24841L11.3611 6.29661L12.6711 6.3918L11.633 5.49943L12.3145 4.54753L11.2048 4.92102L10.4116 4.03922L10.4516 5.16329Z" fill="#F7FCFF"/>
</g>
</g>
<rect width="16" height="12" fill="url(#paint0_linear_14655_23405)" style="mix-blend-mode:overlay"/>
</g>
<defs>
<linearGradient id="paint0_linear_14655_23405" x1="8" y1="0" x2="8" y2="12" gradientUnits="userSpaceOnUse">
<stop stop-color="white" stop-opacity="0.7"/>
<stop offset="1" stop-opacity="0.3"/>
</linearGradient>
<clipPath id="clip0_14655_23405">
<rect width="16" height="12" rx="1" fill="white"/>
</clipPath>
</defs>
</svg>
