<svg width="16" height="12" viewBox="0 0 16 12" fill="none" xmlns="http://www.w3.org/2000/svg">
<g clip-path="url(#clip0_14655_23477)">
<mask id="mask0_14655_23477" style="mask-type:alpha" maskUnits="userSpaceOnUse" x="0" y="0" width="16" height="12">
<rect width="16" height="12" fill="white"/>
</mask>
<g mask="url(#mask0_14655_23477)">
<path fill-rule="evenodd" clip-rule="evenodd" d="M0 0H16V12H0V0Z" fill="#2E42A5"/>
</g>
<path fill-rule="evenodd" clip-rule="evenodd" d="M2.06675 3.4069C1.89518 3.28776 2.08814 3.05568 2.26537 3.16803C2.38159 3.24171 2.60575 3.37246 2.92599 3.54127C3.46133 3.82346 4.06921 4.10582 4.73774 4.36939C6.74863 5.16219 8.86545 5.61905 10.9853 5.5692C11.2695 5.57024 11.6814 5.53684 12.0858 5.43648C12.1314 5.42516 12.176 5.41313 12.2193 5.4004C12.1556 5.2595 12.0574 5.10394 11.9224 4.93368C11.8146 4.79768 12.0002 4.63038 12.1534 4.72547C12.2699 4.79776 12.4394 4.9236 12.6095 5.09113C12.6439 5.12498 12.6769 5.15933 12.7083 5.19417C13.2491 4.86649 13.2842 4.34295 12.6149 3.49852C12.5071 3.36252 12.6927 3.19522 12.8459 3.29031C12.8833 3.31354 12.946 3.35573 13.0257 3.41487C13.1577 3.51284 13.2897 3.62356 13.4132 3.74523C13.9738 4.29725 14.187 4.88411 13.812 5.44315C13.7762 5.49641 13.7353 5.54876 13.6925 5.59615C13.6179 5.68496 13.4692 5.80907 13.2366 5.93034C13.1868 5.95628 13.1348 5.98102 13.0806 6.00442C13.08 6.21362 12.999 6.41526 12.8333 6.59926C12.7715 6.67285 12.6501 6.77414 12.4612 6.87258C12.3254 6.94339 12.1716 7.00211 11.9992 7.04534C11.9948 7.21586 11.9268 7.38026 11.7919 7.52995C11.7393 7.59263 11.6375 7.67756 11.48 7.75965C11.2582 7.87526 10.9854 7.9499 10.6672 7.96646C10.6451 8.05042 10.6007 8.1307 10.5343 8.20434C10.495 8.25113 10.4218 8.31222 10.3101 8.37046C10.1369 8.46073 9.92015 8.51505 9.66964 8.51711C9.65794 8.51788 9.65794 8.51788 9.61239 8.51979C9.27845 8.53159 8.8316 8.50913 8.31197 8.42473C7.52564 8.29701 6.74819 8.05148 6.02069 7.65992C5.80646 7.54461 5.59883 7.41763 5.39851 7.27852C5.22693 7.15938 5.4199 6.9273 5.59712 7.03965C5.64503 7.07003 5.73926 7.12499 5.87465 7.19636C6.10189 7.31614 6.36014 7.43611 6.64419 7.5481C7.49744 7.8845 8.39483 8.07818 9.29445 8.05708C9.40844 8.05749 9.57786 8.04375 9.74175 8.00308C9.7812 7.99329 9.81775 7.98243 9.85128 7.97057C8.03935 7.90658 6.0164 7.38706 4.20051 6.12608C4.02894 6.00693 4.2219 5.77486 4.39913 5.88721C4.47289 5.93397 4.61627 6.01761 4.82161 6.12584C5.16542 6.30708 5.55596 6.48849 5.98549 6.65783C7.27675 7.16692 8.63553 7.46018 9.99683 7.4282C10.0008 7.42822 10.0049 7.42821 10.0091 7.42819C9.98347 7.3877 9.95294 7.34496 9.91731 7.30001C9.85655 7.22335 9.88902 7.13674 9.95635 7.09279C9.61997 7.06416 9.25648 7.02023 8.87089 6.95759C7.43604 6.72452 6.01767 6.27655 4.691 5.56246C4.3006 5.35233 3.92225 5.12093 3.55722 4.86744C3.38564 4.7483 3.57861 4.51622 3.75583 4.62857C3.84732 4.68657 4.02444 4.78988 4.27776 4.92341C4.70155 5.1468 5.18285 5.37037 5.71217 5.57906C7.30394 6.20662 8.97925 6.5682 10.6573 6.52875C10.7989 6.52927 10.9947 6.51785 11.2083 6.48573C11.1703 6.41283 11.1212 6.33517 11.0608 6.25277C8.14035 6.18828 4.92187 5.38951 2.06675 3.4069ZM10.4085 7.30017C10.4369 7.3281 10.4636 7.35664 10.4884 7.38578C10.7868 7.33737 11.0216 7.2533 11.1622 7.13341C10.8746 7.14085 10.5434 7.13457 10.176 7.10961C10.2408 7.15262 10.3244 7.21736 10.4085 7.30017ZM11.644 6.54734C11.9674 6.45705 12.2775 6.3042 12.4094 6.04549C12.1308 6.19966 11.8044 6.22509 11.2765 6.22509C11.3552 6.27784 11.4752 6.32443 11.644 6.54734ZM3.67002 2.96875C3.49844 2.84961 3.69141 2.61753 3.86863 2.72989C3.95064 2.78188 4.10972 2.87467 4.33738 2.99468C4.71841 3.19554 5.15118 3.39656 5.62715 3.58422C7.05822 4.14844 8.56427 4.4735 10.0729 4.43805C10.2718 4.43877 10.5623 4.41522 10.8463 4.34474C11.5964 4.15856 11.8007 3.78526 11.1983 3.02527C11.0906 2.88927 11.2762 2.72196 11.4293 2.81706C11.5351 2.88273 11.6887 2.9967 11.8428 3.1485C12.2559 3.55531 12.4149 3.99283 12.1333 4.41244C12.1066 4.45213 12.0761 4.49107 12.0453 4.52523C11.9884 4.593 11.8774 4.68555 11.7054 4.77525C11.4341 4.9167 11.0927 5.00225 10.6887 5.00575C10.6712 5.00691 10.6415 5.00845 10.5976 5.01C10.0505 5.02933 9.31615 4.99242 8.46146 4.85357C7.16767 4.6434 5.8887 4.23944 4.69236 3.59548C4.34034 3.40599 3.99918 3.19733 3.67002 2.96875ZM8.29861 9.50563C8.26141 9.71115 7.95709 9.73333 7.57972 9.66578C7.20812 9.59919 6.93683 9.47562 6.97239 9.27946C7.00952 9.07385 7.31382 9.0517 7.69129 9.11926C8.06293 9.18585 8.33418 9.30939 8.29861 9.50563Z" fill="#F7FCFF"/>
<rect width="16" height="12" fill="url(#paint0_linear_14655_23477)" style="mix-blend-mode:overlay"/>
</g>
<defs>
<linearGradient id="paint0_linear_14655_23477" x1="8" y1="0" x2="8" y2="12" gradientUnits="userSpaceOnUse">
<stop stop-color="white" stop-opacity="0.7"/>
<stop offset="1" stop-opacity="0.3"/>
</linearGradient>
<clipPath id="clip0_14655_23477">
<rect width="16" height="12" rx="1" fill="white"/>
</clipPath>
</defs>
</svg>
