<svg width="16" height="12" viewBox="0 0 16 12" fill="none" xmlns="http://www.w3.org/2000/svg">
<g clip-path="url(#clip0_14655_23520)">
<mask id="mask0_14655_23520" style="mask-type:alpha" maskUnits="userSpaceOnUse" x="0" y="0" width="16" height="12">
<rect width="16" height="12" fill="white"/>
</mask>
<g mask="url(#mask0_14655_23520)">
<path fill-rule="evenodd" clip-rule="evenodd" d="M0 8H16V12H0V8Z" fill="#14DC5A"/>
<path fill-rule="evenodd" clip-rule="evenodd" d="M0 0H16V5H0V0Z" fill="#0099B5"/>
<path d="M-1 4.625H-1.375V5V8V8.375H-1H17H17.375V8V5V4.625H17H-1Z" fill="#F7FCFF" stroke="#C51918" stroke-width="0.75"/>
<path fill-rule="evenodd" clip-rule="evenodd" d="M8.36368 1.20045L7.87233 1.47919L8.01266 0.912683L7.542 0.496385H8.15675L8.36294 -0.039711L8.6047 0.496385H9.12877L8.717 0.912683L8.91499 1.47919L8.36368 1.20045ZM5.84477 2.73764L6.33611 2.45889L6.88742 2.73764L6.68943 2.17112L7.1012 1.75483H6.57714L6.33537 1.21873L6.12919 1.75483H5.51443L5.9851 2.17112L5.84477 2.73764ZM4.48827 3.77659L3.99693 4.05533L4.13726 3.48882L3.66659 3.07252H4.28134L4.48753 2.53642L4.7293 3.07252H5.25336L4.84159 3.48882L5.03958 4.05533L4.48827 3.77659ZM6.36441 3.77876L5.87306 4.0575L6.01339 3.49099L5.54272 3.07469H6.15748L6.36367 2.5386L6.60543 3.07469H7.1295L6.71773 3.49099L6.91572 4.0575L6.36441 3.77876ZM8.36441 3.77876L7.87306 4.0575L8.01339 3.49099L7.54272 3.07469H8.15748L8.36367 2.5386L8.60543 3.07469H9.1295L8.71773 3.49099L8.91572 4.0575L8.36441 3.77876ZM7.84477 2.73764L8.33611 2.45889L8.88742 2.73764L8.68943 2.17112L9.1012 1.75483H8.57714L8.33537 1.21873L8.12919 1.75483H7.51443L7.9851 2.17112L7.84477 2.73764ZM9.87306 4.0575L10.3644 3.77876L10.9157 4.0575L10.7177 3.49099L11.1295 3.07469H10.6054L10.3637 2.5386L10.1575 3.07469H9.54272L10.0134 3.49099L9.87306 4.0575ZM10.3361 2.45889L9.84477 2.73764L9.9851 2.17112L9.51443 1.75483H10.1292L10.3354 1.21873L10.5771 1.75483H11.1012L10.6894 2.17112L10.8874 2.73764L10.3361 2.45889ZM9.87233 1.47919L10.3637 1.20045L10.915 1.47919L10.717 0.912683L11.1288 0.496385H10.6047L10.3629 -0.039711L10.1568 0.496385H9.542L10.0127 0.912683L9.87233 1.47919ZM12.3644 3.77876L11.8731 4.0575L12.0134 3.49099L11.5427 3.07469H12.1575L12.3637 2.5386L12.6054 3.07469H13.1295L12.7177 3.49099L12.9157 4.0575L12.3644 3.77876ZM11.8448 2.73764L12.3361 2.45889L12.8874 2.73764L12.6894 2.17112L13.1012 1.75483H12.5771L12.3354 1.21873L12.1292 1.75483H11.5144L11.9851 2.17112L11.8448 2.73764ZM12.3637 1.20045L11.8723 1.47919L12.0127 0.912683L11.542 0.496385H12.1568L12.3629 -0.039711L12.6047 0.496385H13.1288L12.717 0.912683L12.915 1.47919L12.3637 1.20045ZM2.94245 4.12031C2.94245 4.12031 1.73453 3.79269 1.75727 2.58095C1.78002 1.36921 3 1.0546 3 1.0546C2.50151 0.865831 1.02757 1.11913 1.00036 2.56866C0.973155 4.01819 2.47796 4.30375 2.94245 4.12031Z" fill="#F7FCFF"/>
</g>
<rect width="16" height="12" fill="url(#paint0_linear_14655_23520)" style="mix-blend-mode:overlay"/>
</g>
<defs>
<linearGradient id="paint0_linear_14655_23520" x1="8" y1="0" x2="8" y2="12" gradientUnits="userSpaceOnUse">
<stop stop-color="white" stop-opacity="0.7"/>
<stop offset="1" stop-opacity="0.3"/>
</linearGradient>
<clipPath id="clip0_14655_23520">
<rect width="16" height="12" rx="1" fill="white"/>
</clipPath>
</defs>
</svg>
