<svg width="16" height="12" viewBox="0 0 16 12" fill="none" xmlns="http://www.w3.org/2000/svg">
<g clip-path="url(#clip0_14655_23411)">
<mask id="mask0_14655_23411" style="mask-type:alpha" maskUnits="userSpaceOnUse" x="0" y="0" width="16" height="12">
<rect width="16" height="12" fill="white"/>
</mask>
<g mask="url(#mask0_14655_23411)">
<path fill-rule="evenodd" clip-rule="evenodd" d="M0 0H16V12H0V0Z" fill="#F7FCFF"/>
<path fill-rule="evenodd" clip-rule="evenodd" d="M0 0H7V12H0V0Z" fill="#FFDC17"/>
<path d="M11.3908 6.37557L11.2182 6.38682C11.2594 6.9797 11.3868 7.43769 11.603 7.76089C11.9516 8.28211 12.4116 8.6851 12.7194 8.6851C12.7894 8.6851 12.8056 8.71107 12.7826 8.77517C12.7498 8.86632 12.6461 8.95597 12.5127 8.99037C12.2908 9.0476 11.7861 9.07722 11.0073 9.07722V9.24466C11.8017 9.24466 12.3155 9.2145 12.5572 9.15217C12.7449 9.10377 12.8938 8.97501 12.9459 8.83023C13.0061 8.66281 12.9152 8.51766 12.7194 8.51766C12.4908 8.51766 12.0667 8.14611 11.7482 7.66989C11.5502 7.3739 11.4302 6.94243 11.3908 6.37557Z" fill="#AF0100"/>
<path d="M10.5735 6.37557L10.7461 6.38682C10.7049 6.9797 10.5775 7.43769 10.3613 7.76089C10.0127 8.28211 9.55269 8.6851 9.24486 8.6851C9.17494 8.6851 9.15868 8.71107 9.18174 8.77517C9.21453 8.86632 9.31823 8.95597 9.45164 8.99037C9.67353 9.0476 10.1782 9.07722 10.957 9.07722V9.24466C10.1626 9.24466 9.64881 9.2145 9.40711 9.15217C9.2194 9.10377 9.07046 8.97501 9.01838 8.83023C8.95816 8.66281 9.04905 8.51766 9.24486 8.51766C9.47349 8.51766 9.89762 8.14611 10.2161 7.66989C10.4141 7.3739 10.5341 6.94243 10.5735 6.37557Z" fill="#AF0100"/>
<path fill-rule="evenodd" clip-rule="evenodd" d="M14.0334 3.39907L9.46272 6.96207C9.30268 6.90993 9.12796 6.8814 8.94596 6.8814C8.2044 6.8814 7.5838 7.35507 7.5838 7.96977C7.5838 8.58447 8.2044 9.05814 8.94596 9.05814C9.03101 9.05814 9.11447 9.05191 9.19558 9.03995C9.12055 8.98136 9.06451 8.90812 9.03649 8.83024C9.00279 8.73654 9.01641 8.64982 9.06927 8.59161C9.02908 8.5956 8.98792 8.59768 8.94596 8.59768C8.44563 8.59768 8.05948 8.30295 8.05948 7.96977C8.05948 7.6366 8.44563 7.34186 8.94596 7.34186C9.4463 7.34186 9.83245 7.6366 9.83245 7.96977C9.83245 8.0717 9.79631 8.17003 9.73181 8.25743C9.74395 8.2466 9.75613 8.23549 9.76835 8.22411C9.92676 8.07662 9.5708 8.6851 9.26297 8.6851C9.19305 8.6851 9.17679 8.71107 9.19985 8.77518C9.23056 8.86056 9.32349 8.94462 9.44477 8.98319C9.94616 8.82642 10.3081 8.43923 10.3081 7.96977C10.3081 7.77774 10.2476 7.59947 10.1417 7.44511L12.5981 5.3603L12.7625 5.53017L12.8809 5.42284L13.2912 5.72693L13.1196 5.8592L13.4698 6.28489L14.1763 5.74022L14.1883 5.73403L14.1862 5.7326L14.23 5.69884L13.8798 5.27315L13.7105 5.40369L13.2517 5.08649L13.3055 5.03771L13.1579 4.88521L13.3798 4.69683L13.4976 4.81855L13.6242 4.70381L14.0219 5.01868L13.8548 5.14757L14.205 5.57326L14.8102 5.10668L14.8795 5.06873L14.8694 5.06101L14.9652 4.98721L14.6149 4.56152L14.4171 4.71401L13.9814 4.37974L14.0406 4.32609L13.9396 4.22174L14.3918 3.83792L14.0334 3.39907Z" fill="#F4B300"/>
<path fill-rule="evenodd" clip-rule="evenodd" d="M11.6919 7.96976C11.6919 7.69347 11.8173 7.44567 12.0226 7.25657L9.39787 5.2239L9.36795 5.24694L9.44446 5.31634L9.23749 5.53017L9.12852 5.43133L8.72674 5.74075L8.88038 5.85919L8.53017 6.28488L7.8312 5.74603L7.8117 5.73403L7.81377 5.73259L7.76998 5.69883L8.12019 5.27315L8.28951 5.40368L8.7483 5.08648L8.69453 5.03771L8.89285 4.83281L8.66176 4.65385L8.50236 4.81854L8.38059 4.7081L7.9879 5.02626L8.14525 5.14756L7.79504 5.57325L7.20906 5.12151L7.1205 5.06873L7.13057 5.061L7.03484 4.98721L7.38505 4.56152L7.58285 4.71401L8.01855 4.37974L7.95939 4.32608L8.07898 4.20253L7.60816 3.83792L7.90532 3.47836L12.4462 6.99491C12.6301 6.92202 12.8369 6.88139 13.054 6.88139C13.7956 6.88139 14.4162 7.35506 14.4162 7.96976C14.4162 8.58447 13.7956 9.05814 13.054 9.05814C12.969 9.05814 12.8855 9.05191 12.8044 9.03995C12.8795 8.98135 12.9355 8.90811 12.9635 8.83023C12.9972 8.73653 12.9836 8.64981 12.9307 8.5916C12.9709 8.5956 13.0121 8.59767 13.054 8.59767C13.5544 8.59767 13.9405 8.30294 13.9405 7.96976C13.9405 7.63659 13.5544 7.34186 13.054 7.34186C12.5537 7.34186 12.1676 7.63659 12.1676 7.96976C12.1676 8.07169 12.2037 8.17003 12.2682 8.25742C12.2561 8.24659 12.2439 8.23549 12.2316 8.22411C12.0732 8.07662 12.4292 8.6851 12.737 8.6851C12.807 8.6851 12.8232 8.71107 12.8002 8.77517C12.7694 8.86055 12.6765 8.94461 12.5552 8.98319C12.0538 8.82642 11.6919 8.43922 11.6919 7.96976Z" fill="#BFBFBF"/>
<path fill-rule="evenodd" clip-rule="evenodd" d="M10.8703 5.89767C10.8344 5.89767 10.8054 5.92672 10.8054 5.96254V6.23256H10.5655C10.5308 6.23256 10.5027 6.26067 10.5027 6.29535C10.5027 6.33003 10.5308 6.35814 10.5655 6.35814H10.8054V9.93514C10.8054 9.97096 10.8344 10 10.8703 10H11C11.0358 10 11.0648 9.97096 11.0648 9.93514V6.35814H11.4345C11.4692 6.35814 11.4973 6.33003 11.4973 6.29535C11.4973 6.26067 11.4692 6.23256 11.4345 6.23256H11.0648V5.96254C11.0648 5.92672 11.0358 5.89767 11 5.89767H10.8703Z" fill="#AF0100"/>
<path fill-rule="evenodd" clip-rule="evenodd" d="M10.9351 10.0083C11.0784 10.0083 11.1946 9.95022 11.1946 9.87857C11.1946 9.80692 11.0784 9.74884 10.9351 9.74884C10.7918 9.74884 10.6757 9.80692 10.6757 9.87857C10.6757 9.95022 10.7918 10.0083 10.9351 10.0083Z" fill="#AF0100"/>
<path fill-rule="evenodd" clip-rule="evenodd" d="M10 2.9C10 2.40294 10.4029 2 10.9 2C11.3971 2 11.8 2.40294 11.8 2.9V4.52174H10L10 2.9Z" fill="#F4B300"/>
<path fill-rule="evenodd" clip-rule="evenodd" d="M10.8919 4.60968C11.3934 4.60968 11.8 4.54192 11.8 4.45833C11.8 4.37474 11.3934 4.30698 10.8919 4.30698C10.3903 4.30698 9.98376 4.37474 9.98376 4.45833C9.98376 4.54192 10.3903 4.60968 10.8919 4.60968Z" fill="#AF0100"/>
</g>
<rect width="16" height="12" fill="url(#paint0_linear_14655_23411)" style="mix-blend-mode:overlay"/>
</g>
<defs>
<linearGradient id="paint0_linear_14655_23411" x1="8" y1="0" x2="8" y2="12" gradientUnits="userSpaceOnUse">
<stop stop-color="white" stop-opacity="0.7"/>
<stop offset="1" stop-opacity="0.3"/>
</linearGradient>
<clipPath id="clip0_14655_23411">
<rect width="16" height="12" rx="1" fill="white"/>
</clipPath>
</defs>
</svg>
