<svg width="16" height="12" viewBox="0 0 16 12" fill="none" xmlns="http://www.w3.org/2000/svg">
<g clip-path="url(#clip0_14655_23353)">
<mask id="mask0_14655_23353" style="mask-type:alpha" maskUnits="userSpaceOnUse" x="0" y="0" width="16" height="12">
<rect width="16" height="12" fill="white"/>
</mask>
<g mask="url(#mask0_14655_23353)">
<path fill-rule="evenodd" clip-rule="evenodd" d="M0 0V12H16V0H0Z" fill="#2E42A5"/>
<mask id="mask1_14655_23353" style="mask-type:alpha" maskUnits="userSpaceOnUse" x="0" y="0" width="16" height="12">
<path fill-rule="evenodd" clip-rule="evenodd" d="M0 0V12H16V0H0Z" fill="white"/>
</mask>
<g mask="url(#mask1_14655_23353)">
<mask id="mask2_14655_23353" style="mask-type:alpha" maskUnits="userSpaceOnUse" x="0" y="0" width="9" height="7">
<rect width="9" height="7" fill="white"/>
</mask>
<g mask="url(#mask2_14655_23353)">
<path d="M-1.00214 6.49991L0.978339 7.36852L9.04494 0.944376L10.0896 -0.34639L7.97176 -0.636702L4.68159 2.13164L2.03334 3.99686L-1.00214 6.49991Z" fill="#F7FCFF"/>
<path d="M-0.731018 7.10847L0.277943 7.61253L9.71445 -0.466324H8.29775L-0.731018 7.10847Z" fill="#F50100"/>
<path d="M10.0021 6.49991L8.02166 7.36852L-0.0449371 0.944376L-1.08959 -0.34639L1.02824 -0.636702L4.31841 2.13164L6.96666 3.99686L10.0021 6.49991Z" fill="#F7FCFF"/>
<path d="M9.93457 6.93667L8.92561 7.44073L4.90745 3.98176L3.71615 3.59529L-1.1901 -0.341973H0.226597L5.13009 3.50184L6.43256 3.96525L9.93457 6.93667Z" fill="#F50100"/>
<mask id="path-10-outside-1_14655_23353" maskUnits="userSpaceOnUse" x="-1" y="-1" width="11" height="9" fill="black">
<rect fill="white" x="-1" y="-1" width="11" height="9"/>
<path fill-rule="evenodd" clip-rule="evenodd" d="M4.99226 0H3.99226V3H0V4H3.99226V7H4.99226V4H9V3H4.99226V0Z"/>
</mask>
<path fill-rule="evenodd" clip-rule="evenodd" d="M4.99226 0H3.99226V3H0V4H3.99226V7H4.99226V4H9V3H4.99226V0Z" fill="#F50100"/>
<path d="M3.99226 0V-0.75H3.24226V0H3.99226ZM4.99226 0H5.74226V-0.75H4.99226V0ZM3.99226 3V3.75H4.74226V3H3.99226ZM0 3V2.25H-0.75V3H0ZM0 4H-0.75V4.75H0V4ZM3.99226 4H4.74226V3.25H3.99226V4ZM3.99226 7H3.24226V7.75H3.99226V7ZM4.99226 7V7.75H5.74226V7H4.99226ZM4.99226 4V3.25H4.24226V4H4.99226ZM9 4V4.75H9.75V4H9ZM9 3H9.75V2.25H9V3ZM4.99226 3H4.24226V3.75H4.99226V3ZM3.99226 0.75H4.99226V-0.75H3.99226V0.75ZM4.74226 3V0H3.24226V3H4.74226ZM0 3.75H3.99226V2.25H0V3.75ZM0.75 4V3H-0.75V4H0.75ZM3.99226 3.25H0V4.75H3.99226V3.25ZM4.74226 7V4H3.24226V7H4.74226ZM4.99226 6.25H3.99226V7.75H4.99226V6.25ZM4.24226 4V7H5.74226V4H4.24226ZM9 3.25H4.99226V4.75H9V3.25ZM8.25 3V4H9.75V3H8.25ZM4.99226 3.75H9V2.25H4.99226V3.75ZM4.24226 0V3H5.74226V0H4.24226Z" fill="#F7FCFF" mask="url(#path-10-outside-1_14655_23353)"/>
</g>
<path fill-rule="evenodd" clip-rule="evenodd" d="M10.1233 5.01634V8.28092C10.1233 8.28092 10.075 10.982 12.5643 10.982C15.0537 10.982 15.0537 8.28092 15.0537 8.28092V5.01634H10.1233Z" fill="#3B7E05" stroke="#F7FCFF" stroke-width="0.25"/>
<path fill-rule="evenodd" clip-rule="evenodd" d="M10.1185 9.94437L10.5151 9.54622C11.1349 10.3117 11.7868 10.6842 12.48 10.6842C13.1731 10.6842 13.8244 10.3117 14.4432 9.54638L14.669 9.77267L14.6785 9.75847C14.8165 9.8753 14.9075 9.98462 14.9512 10.1113C15.0224 10.3175 14.9464 10.5157 14.7796 10.6206C14.7382 10.6466 14.7054 10.6653 14.6762 10.6789C14.6085 10.7104 14.5542 10.7241 14.4737 10.7014C14.3917 10.6783 14.3228 10.6151 14.2871 10.5283C13.7246 11.0258 13.121 11.2788 12.48 11.2788C11.8444 11.2788 11.2454 11.0301 10.6865 10.5411C10.6492 10.6265 10.5795 10.6878 10.4976 10.7093C10.4167 10.7306 10.3626 10.716 10.2955 10.6833C10.2666 10.6692 10.2341 10.6499 10.1932 10.6232C10.0282 10.5154 9.95572 10.3159 10.0305 10.1109C10.0508 10.0552 10.0834 10.0034 10.1257 9.95316C10.1233 9.95024 10.1209 9.94731 10.1185 9.94437Z" fill="#FFD018"/>
<path d="M10.5151 9.54622L10.5734 9.49902L10.5209 9.43416L10.462 9.49329L10.5151 9.54622ZM10.1185 9.94437L10.0654 9.89145L10.0178 9.93919L10.0602 9.99157L10.1185 9.94437ZM14.4432 9.54638L14.4963 9.49341L14.4374 9.43432L14.3849 9.49922L14.4432 9.54638ZM14.669 9.77267L14.6159 9.82563L14.6802 9.8901L14.7311 9.81463L14.669 9.77267ZM14.6785 9.75847L14.727 9.70123L14.6632 9.6472L14.6164 9.71651L14.6785 9.75847ZM14.9512 10.1113L15.0221 10.0868V10.0868L14.9512 10.1113ZM14.7796 10.6206L14.7397 10.5571V10.5571L14.7796 10.6206ZM14.6762 10.6789L14.6445 10.6109L14.6762 10.6789ZM14.4737 10.7014L14.494 10.6292V10.6292L14.4737 10.7014ZM14.2871 10.5283L14.3565 10.4998L14.3164 10.4023L14.2374 10.4721L14.2871 10.5283ZM10.6865 10.5411L10.7359 10.4846L10.6588 10.4172L10.6178 10.511L10.6865 10.5411ZM10.4976 10.7093L10.4785 10.6368H10.4785L10.4976 10.7093ZM10.2955 10.6833L10.3284 10.6158H10.3284L10.2955 10.6833ZM10.1932 10.6232L10.1521 10.6859H10.1521L10.1932 10.6232ZM10.0305 10.1109L10.1009 10.1366L10.0305 10.1109ZM10.1257 9.95316L10.1831 10.0014L10.2229 9.95394L10.1838 9.90585L10.1257 9.95316ZM10.462 9.49329L10.0654 9.89145L10.1717 9.9973L10.5682 9.59915L10.462 9.49329ZM12.48 10.6092C11.8174 10.6092 11.1849 10.2542 10.5734 9.49902L10.4568 9.59341C11.0849 10.3691 11.7562 10.7592 12.48 10.7592V10.6092ZM14.3849 9.49922C13.7744 10.2543 13.1424 10.6092 12.48 10.6092V10.7592C13.2037 10.7592 13.8744 10.3692 14.5015 9.59353L14.3849 9.49922ZM14.722 9.7197L14.4963 9.49341L14.3901 9.59934L14.6159 9.82563L14.722 9.7197ZM14.6164 9.71651L14.6068 9.7307L14.7311 9.81463L14.7407 9.80044L14.6164 9.71651ZM15.0221 10.0868C14.9721 9.94169 14.8694 9.82178 14.727 9.70123L14.6301 9.81571C14.7637 9.92883 14.843 10.0276 14.8803 10.1357L15.0221 10.0868ZM14.8195 10.684C15.016 10.5605 15.1045 10.3258 15.0221 10.0868L14.8803 10.1357C14.9402 10.3093 14.8767 10.4709 14.7397 10.5571L14.8195 10.684ZM14.7078 10.7469C14.7412 10.7314 14.7771 10.7107 14.8195 10.684L14.7397 10.5571C14.6994 10.5824 14.6696 10.5992 14.6445 10.6109L14.7078 10.7469ZM14.4533 10.7736C14.5023 10.7874 14.5465 10.7909 14.5902 10.7847C14.633 10.7787 14.6712 10.7639 14.7078 10.7469L14.6445 10.6109C14.6135 10.6254 14.5907 10.6332 14.5693 10.6362C14.5488 10.6391 14.5257 10.6381 14.494 10.6292L14.4533 10.7736ZM14.2177 10.5568C14.2614 10.6631 14.3472 10.7437 14.4533 10.7736L14.494 10.6292C14.4361 10.6129 14.3842 10.5672 14.3565 10.4998L14.2177 10.5568ZM12.48 11.3538C13.1426 11.3538 13.7633 11.0917 14.3368 10.5845L14.2374 10.4721C13.686 10.9599 13.0994 11.2038 12.48 11.2038V11.3538ZM10.6371 10.5975C11.207 11.0962 11.823 11.3538 12.48 11.3538V11.2038C11.8658 11.2038 11.2837 10.964 10.7359 10.4846L10.6371 10.5975ZM10.5167 10.7818C10.6226 10.7539 10.7095 10.6756 10.7552 10.5711L10.6178 10.511C10.5888 10.5773 10.5363 10.6216 10.4785 10.6368L10.5167 10.7818ZM10.2627 10.7507C10.299 10.7684 10.337 10.7838 10.3796 10.7906C10.4232 10.7975 10.4675 10.7948 10.5167 10.7818L10.4785 10.6368C10.4467 10.6451 10.4235 10.6457 10.4031 10.6425C10.3818 10.6391 10.3592 10.6308 10.3284 10.6158L10.2627 10.7507ZM10.1521 10.6859C10.1941 10.7134 10.2296 10.7346 10.2627 10.7507L10.3284 10.6158C10.3035 10.6037 10.274 10.5864 10.2342 10.5604L10.1521 10.6859ZM9.95999 10.0852C9.8734 10.3227 9.95782 10.559 10.1521 10.6859L10.2342 10.5604C10.0987 10.4718 10.038 10.3091 10.1009 10.1366L9.95999 10.0852ZM10.0682 9.90492C10.022 9.95993 9.98408 10.0192 9.95999 10.0852L10.1009 10.1366C10.1175 10.0912 10.1448 10.047 10.1831 10.0014L10.0682 9.90492ZM10.0602 9.99157C10.0626 9.99454 10.065 9.99751 10.0675 10.0005L10.1838 9.90585C10.1815 9.90297 10.1792 9.90007 10.1768 9.89718L10.0602 9.99157Z" fill="white"/>
<path d="M11.0658 7.32443L11.028 7.16041V5.77121C11.028 5.5641 11.1959 5.39621 11.403 5.39621C11.6101 5.39621 11.778 5.5641 11.778 5.77121V7.07404L12.1378 7.81374C12.2101 7.96234 12.1766 8.14074 12.0553 8.25298L11.6418 8.63562V9.3559C11.6418 9.56301 11.474 9.7309 11.2668 9.7309C11.0597 9.7309 10.8918 9.56301 10.8918 9.3559V8.47173C10.8918 8.36724 10.9354 8.26749 11.0121 8.19652L11.3416 7.89156L11.0658 7.32443Z" fill="#FFD018"/>
<path d="M13.6255 5.74982V9.45219" stroke="#FFD018" stroke-width="0.75" stroke-linecap="round" stroke-linejoin="round"/>
<path fill-rule="evenodd" clip-rule="evenodd" d="M12.3199 6.29282L12.1517 6.83955C12.1517 6.83955 11.87 7.20406 11.818 7.38268C11.766 7.56131 11.7376 7.68 11.7518 7.68C11.766 7.68 11.8811 7.62914 11.8811 7.50591C11.8811 7.38268 12.3199 6.98641 12.3199 6.98641L12.4508 6.29282H12.3199Z" fill="#FFC6B5"/>
<path fill-rule="evenodd" clip-rule="evenodd" d="M13.6859 5.43444C13.6899 5.42665 13.6922 5.41767 13.6922 5.40812C13.6922 5.37827 13.6698 5.35406 13.6422 5.35406C13.6146 5.35406 13.5922 5.37827 13.5922 5.40812C13.5922 5.42099 13.5964 5.43281 13.6033 5.44209L13.4141 5.73505L13.4338 5.75083L13.6229 5.45801C13.6289 5.46069 13.6354 5.46217 13.6422 5.46217C13.6519 5.46217 13.661 5.45917 13.6687 5.45397L13.8677 5.75102L13.8871 5.73486L13.6859 5.43444ZM13.6791 5.68786C13.6872 5.67825 13.6922 5.66543 13.6922 5.65136C13.6922 5.62151 13.6698 5.59731 13.6422 5.59731C13.6146 5.59731 13.5922 5.62151 13.5922 5.65136C13.5922 5.66957 13.6005 5.68567 13.6133 5.69546L13.5659 5.75248H13.2447C13.2447 5.75248 13.2799 5.83299 13.3894 5.85425C13.4228 5.88604 13.5084 5.9452 13.5084 5.9452L13.4596 6.00447H13.8059V5.9452C13.8903 5.94457 13.922 5.87794 13.9333 5.85416C13.9379 5.84435 13.9391 5.84183 13.9391 5.85425C13.9391 5.89677 14.0007 5.85425 14.0007 5.85425C14.0007 5.85425 14.103 5.75248 14.103 5.65549C14.103 5.5585 13.8892 5.75248 13.8892 5.75248H13.7441L13.6791 5.68786Z" fill="#FFD018"/>
<path fill-rule="evenodd" clip-rule="evenodd" d="M12.73 6.07402C12.7348 6.08399 12.7383 6.09148 12.7383 6.10202C12.7383 6.13356 12.6047 6.17985 12.5083 6.17985C12.4119 6.17985 12.4497 6.10202 12.5083 6.05886C12.5669 6.0157 12.5036 5.94142 12.4497 5.94142C12.3986 5.94142 12.3987 5.86917 12.3989 5.8111C12.3989 5.80803 12.3989 5.805 12.3989 5.80203V5.57579C12.3989 5.48501 12.4235 5.49564 12.4705 5.51597C12.4981 5.52792 12.5335 5.54323 12.5762 5.54323C12.648 5.54323 12.652 5.55976 12.6627 5.60451C12.6693 5.6317 12.6783 5.66931 12.7066 5.71995C12.7516 5.8006 12.7425 5.81917 12.728 5.84839C12.7185 5.86772 12.7066 5.89171 12.7066 5.94142C12.7066 6.02453 12.7207 6.05418 12.73 6.07402ZM12.8491 6.6543L12.8775 6.3468C12.8775 6.3468 12.8491 6.23432 12.9155 6.23432C12.982 6.23432 13.0851 6.7721 13.1224 6.98771C13.1463 7.1256 13.1244 7.1512 13.0611 7.2251C13.0254 7.26675 12.9767 7.32376 12.9155 7.42487C12.8138 7.59305 12.8204 7.69148 12.8254 7.76648C12.8287 7.81656 12.8314 7.8562 12.8006 7.8992C12.7291 7.99914 12.6998 7.90456 12.6712 7.81228C12.6691 7.80542 12.667 7.79857 12.6648 7.79182C12.6375 7.7055 12.7621 7.44385 12.8467 7.26612C12.8578 7.24287 12.8682 7.22106 12.8775 7.20127C12.9576 7.03014 12.9501 6.97042 12.9155 6.89875C12.881 6.82709 12.8491 6.6543 12.8491 6.6543Z" fill="#FFC6B5"/>
<path fill-rule="evenodd" clip-rule="evenodd" d="M13.0097 9.68481C13.0097 9.763 12.9499 9.82638 12.8762 9.82638C12.8025 9.82638 12.7427 9.763 12.7427 9.68481C12.7427 9.60663 12.8025 9.54324 12.8762 9.54324C12.9499 9.54324 13.0097 9.60663 13.0097 9.68481ZM12.2997 9.72415C12.2398 9.77441 12.1668 9.78601 12.1367 9.75007C12.1065 9.71413 12.1306 9.64425 12.1905 9.594C12.2504 9.54374 12.3234 9.53213 12.3536 9.56807C12.3837 9.60401 12.3596 9.67389 12.2997 9.72415Z" fill="#FFD018"/>
<path fill-rule="evenodd" clip-rule="evenodd" d="M12.4755 5.39233C12.4755 5.39233 12.3367 5.42052 12.383 5.49003C12.4292 5.55955 12.3227 5.54157 12.4755 5.55056C12.6284 5.55955 12.6702 5.61519 12.6493 5.6563C12.6284 5.69741 12.6119 5.79949 12.6493 5.86099C12.6867 5.9225 12.6985 6.02953 12.7645 5.97602C12.8305 5.9225 12.9572 5.84898 12.9184 5.75264C12.8796 5.6563 12.934 5.54424 12.8493 5.49003C12.7645 5.43583 12.7455 5.46898 12.697 5.39233C12.6485 5.31568 12.577 5.29458 12.5263 5.34345C12.4755 5.39233 12.4755 5.39233 12.4755 5.39233Z" fill="#A95601"/>
<path fill-rule="evenodd" clip-rule="evenodd" d="M12.448 6.08876C12.448 6.08876 12.169 6.42472 12.2147 6.54309C12.2604 6.66145 12.3286 6.66768 12.2945 6.83598C12.2604 7.00427 12.3153 7.26446 12.2147 7.59546C12.1141 7.92646 12.048 8.70306 12.081 8.70306C12.1141 8.70306 12.16 9.13206 12.1205 9.32451C12.081 9.51696 11.8056 9.67798 12.081 9.67798C12.3564 9.67798 12.3891 9.71613 12.4991 9.67798C12.6092 9.63982 12.7654 9.78775 12.7654 9.67798C12.7654 9.56821 12.7771 9.54574 12.861 9.54574C12.9449 9.54574 12.9407 9.54574 13.0149 9.54574C13.0892 9.54574 13.1866 9.61486 13.1866 9.45086C13.1866 9.28687 13.2047 8.93447 13.1098 8.66083C13.0149 8.38718 13.0472 8.56193 12.9541 8.196C12.899 7.97924 12.8564 7.89321 12.8229 7.8175C12.7998 7.76539 12.7339 7.85686 12.7183 7.77528C12.713 7.74762 12.758 7.58532 12.7585 7.56448C12.7615 7.43456 12.861 7.41245 12.861 7.18896C12.861 6.92963 12.7988 6.64472 12.861 6.50217C12.9232 6.35962 13.0758 6.44533 13.0149 6.30669C12.9541 6.16805 12.9343 6.08876 12.8198 6.08876C12.7053 6.08876 12.448 6.08876 12.448 6.08876Z" fill="#F7FCFF"/>
</g>
</g>
<rect width="16" height="12" fill="url(#paint0_linear_14655_23353)" style="mix-blend-mode:overlay"/>
</g>
<defs>
<linearGradient id="paint0_linear_14655_23353" x1="8" y1="0" x2="8" y2="12" gradientUnits="userSpaceOnUse">
<stop stop-color="white" stop-opacity="0.7"/>
<stop offset="1" stop-opacity="0.3"/>
</linearGradient>
<clipPath id="clip0_14655_23353">
<rect width="16" height="12" rx="1" fill="white"/>
</clipPath>
</defs>
</svg>
