<svg width="16" height="16" viewBox="0 0 16 16" fill="none" xmlns="http://www.w3.org/2000/svg">
<path fill-rule="evenodd" clip-rule="evenodd" d="M4.53544 3.5C4.77806 1.80385 6.23676 0.5 8 0.5C9.76324 0.5 11.2219 1.80385 11.4646 3.5H12.1659C12.8908 3.5 13.512 4.01844 13.6417 4.73167L15.2781 13.7317C15.4455 14.6524 14.7381 15.5 13.8022 15.5H2.19867C1.26282 15.5 0.555459 14.6524 0.72287 13.7317L2.35923 4.73167C2.48891 4.01844 3.11011 3.5 3.83504 3.5H4.53544ZM5.55001 3.5H10.45C10.2184 2.35888 9.20948 1.5 8 1.5C6.79052 1.5 5.78164 2.35888 5.55001 3.5ZM3.83504 4.5C3.5934 4.5 3.38633 4.67281 3.3431 4.91056L1.70674 13.9106C1.65094 14.2175 1.88672 14.5 2.19867 14.5H13.8022C14.1142 14.5 14.35 14.2175 14.2942 13.9106L12.6578 4.91056C12.6146 4.67281 12.4075 4.5 12.1659 4.5H3.83504Z" fill="#777B92"/>
</svg>
