<svg width="16" height="16" viewBox="0 0 16 16" fill="none" xmlns="http://www.w3.org/2000/svg">
<path fill-rule="evenodd" clip-rule="evenodd" d="M2.72594 3.5C2.57785 3.21253 2.5 2.87504 2.5 2.5C2.5 1.92292 2.64462 1.39828 3.02147 1.02144C3.39831 0.644609 3.92294 0.5 4.5 0.5C5.67034 0.5 6.66534 1.08318 7.3536 1.77145C7.60644 2.0243 7.82434 2.29736 8.00002 2.57233C8.17571 2.29736 8.3936 2.0243 8.64645 1.77145C9.3347 1.08318 10.3297 0.5 11.5 0.5C12.0771 0.5 12.6017 0.644609 12.9786 1.02144C13.3554 1.39828 13.5 1.92292 13.5 2.5C13.5 2.87504 13.4222 3.21253 13.2741 3.5H14C14.8284 3.5 15.5 4.17157 15.5 5V9C15.5 9.82843 14.8284 10.5 14 10.5H13.5V14C13.5 14.8284 12.8284 15.5 12 15.5H4C3.17157 15.5 2.5 14.8284 2.5 14V10.5H2C1.17157 10.5 0.5 9.82843 0.5 9V5C0.5 4.17157 1.17157 3.5 2 3.5H2.72594ZM8.70857 3.34138C8.67971 3.39646 8.65429 3.44941 8.63203 3.5H11.5C11.8165 3.5 12.0614 3.40511 12.222 3.25722C12.3758 3.11553 12.5 2.88175 12.5 2.5C12.5 2.07708 12.3946 1.85172 12.2715 1.72856C12.1483 1.60539 11.9229 1.5 11.5 1.5C10.6703 1.5 9.91528 1.91682 9.35356 2.47855C9.07497 2.75715 8.85578 3.06034 8.70857 3.34138ZM7.36802 3.5C7.34576 3.44941 7.32033 3.39646 7.29148 3.34138C7.14427 3.06034 6.92508 2.75715 6.64648 2.47855C6.08477 1.91682 5.32979 1.5 4.5 1.5C4.0771 1.5 3.85174 1.60539 3.72857 1.72856C3.6054 1.85172 3.5 2.07708 3.5 2.5C3.5 2.88175 3.62422 3.11553 3.77807 3.25722C3.93864 3.40511 4.18355 3.5 4.5 3.5H7.36802ZM8.5 4.5V9.5H14C14.2761 9.5 14.5 9.27614 14.5 9V5C14.5 4.72386 14.2761 4.5 14 4.5H8.5ZM8.5 14.5H12C12.2761 14.5 12.5 14.2761 12.5 14V10.5H8.5V14.5ZM7.5 10.5H3.5V14C3.5 14.2761 3.72386 14.5 4 14.5H7.5V10.5ZM7.5 4.5H2C1.72386 4.5 1.5 4.72386 1.5 5V9C1.5 9.27614 1.72386 9.5 2 9.5H7.5V4.5Z" fill="#777B92"/>
</svg>
