<svg width="22" height="24" viewBox="0 0 22 24" fill="none" xmlns="http://www.w3.org/2000/svg">
<path d="M10.9649 0L0 3.81595L1.73276 18.0232L10.9764 23.0476L20.2678 17.9551L22 3.74838L10.9649 0Z" fill="#BDBDBD"/>
<path d="M20.857 4.46733L11 1.11914V21.841L19.293 17.2954L20.857 4.46733Z" fill="#B71C1C"/>
<path d="M10.9692 1.10938L1.14258 4.52933L2.7072 17.3621L10.9745 21.8554L11.0002 21.8418V1.11985L10.9692 1.10938Z" fill="#DD2C00"/>
<path d="M11 2.09375V7.07413L15.4932 16.7625H17.8027L11 2.09375Z" fill="#BDBDBD"/>
<path d="M4.19727 16.7625H6.50674L11 7.07413V2.09375L4.19727 16.7625Z" fill="#EEEEEE"/>
<path d="M11 11.5234H14.1429V13.6187H11V11.5234Z" fill="#BDBDBD"/>
<path d="M7.85742 11.5234H11.0003V13.6187H7.85742V11.5234Z" fill="#EEEEEE"/>
</svg>
