<svg width="18" height="19" viewBox="0 0 18 19" fill="none" xmlns="http://www.w3.org/2000/svg">
<path d="M17 5C17.5523 5 18 4.55228 18 4V1C18 0.447716 17.5523 0 17 0L1 0C0.447716 0 0 0.447716 0 1V4C0 4.55228 0.447716 5 1 5L17 5Z" fill="#E72323"/>
<path d="M18 18C18 18.5523 17.5523 19 17 19H9C8.44772 19 8 18.5523 8 18V15C8 14.4477 8.44772 14 9 14L17 14C17.5523 14 18 14.4477 18 15V18Z" fill="#E72323"/>
<path d="M6 18C6 18.5523 5.55228 19 5 19H1C0.447716 19 0 18.5523 0 18V15C0 14.4477 0.447716 14 1 14L5 14C5.55229 14 6 14.4477 6 15V18Z" fill="#E72323"/>
<path d="M0 8C0 7.44772 0.447716 7 1 7L11 7C11.5523 7 12 7.44771 12 8V11C12 11.5523 11.5523 12 11 12L1 12C0.447716 12 0 11.5523 0 11L0 8Z" fill="#E72323"/>
<path d="M15 7C14.4477 7 14 7.44772 14 8L14 11C14 11.5523 14.4477 12 15 12H17C17.5523 12 18 11.5523 18 11L18 8C18 7.44772 17.5523 7 17 7L15 7Z" fill="#E72323"/>
</svg>
