<svg width="24" height="24" viewBox="0 0 24 24" fill="none" xmlns="http://www.w3.org/2000/svg">
<path d="M16 10H14H13V11H24V10H18H16Z" fill="#F9FAFB"/>
<path d="M0 14V19.25L6 14H0Z" fill="#5089EC"/>
<path d="M3 21H10V15L3 21Z" fill="#5089EC"/>
<path d="M10 3H3L10 9V3Z" fill="#5089EC"/>
<path d="M21 3H14V9L21 3Z" fill="#5089EC"/>
<path d="M24 10V4.75L18 10H24Z" fill="#5089EC"/>
<path d="M0 4.75V10H6L0 4.75Z" fill="#5089EC"/>
<path d="M16 10L24 3H22L14 10H16Z" fill="#EB4747"/>
<path d="M14 10L22 3H21L14 9V10Z" fill="#F9FAFB"/>
<path d="M16 10H18L24 4.75V3L16 10Z" fill="#F9FAFB"/>
<path d="M10 10L2 3H0L8 10H10Z" fill="#EB4747"/>
<path d="M10 9L3 3H2L10 10V9Z" fill="#F9FAFB"/>
<path d="M8 10L0 3V4.75L6 10H8Z" fill="#F9FAFB"/>
<path d="M8 14L0 21H2L10 14H8Z" fill="#EB4747"/>
<path d="M10 14L2 21H3L10 15V14Z" fill="#F9FAFB"/>
<path d="M6 14L0 19.25V21L8 14H6Z" fill="#F9FAFB"/>
<path d="M11 10H10H8H6H0V11H11V10Z" fill="#F9FAFB"/>
<path d="M14 10V9V3H13V10H14Z" fill="#F9FAFB"/>
<path d="M10 10H11V3H10V9V10Z" fill="#F9FAFB"/>
<path d="M10 14V15V21H11V14H10Z" fill="#F9FAFB"/>
<path d="M8 14H10H11V13H0V14H6H8Z" fill="#F9FAFB"/>
<path d="M24 14V19.25L18 14H24Z" fill="#5089EC"/>
<path d="M21 21H14V15L21 21Z" fill="#5089EC"/>
<path d="M16 14L24 21H22L14 14H16Z" fill="#EB4747"/>
<path d="M14 14L22 21H21L14 15V14Z" fill="#F9FAFB"/>
<path d="M18 14L24 19.25V21L16 14H18Z" fill="#F9FAFB"/>
<path d="M14 14V15V21H13V14H14Z" fill="#F9FAFB"/>
<path d="M16 14H14H13V13H24V14H18H16Z" fill="#F9FAFB"/>
<path d="M24 13V11H13V10V3H11V10V11H0V13H11V14V21H13V14V13C16.7066 13 20.4766 13 24 13Z" fill="#EB4747"/>
</svg>
