<svg width="22" height="22" viewBox="0 0 22 22" fill="none" xmlns="http://www.w3.org/2000/svg">
<g clip-path="url(#clip0)">
<path d="M15 9H13H12V10H23V9H17H15Z" fill="#F9FAFB"/>
<path d="M-1 13V18.25L5 13H-1Z" fill="#448AFF"/>
<path d="M2 20H9V14L2 20Z" fill="#448AFF"/>
<path d="M9 2H2L9 8V2Z" fill="#448AFF"/>
<path d="M20 2H13V8L20 2Z" fill="#448AFF"/>
<path d="M23 9V3.75L17 9H23Z" fill="#448AFF"/>
<path d="M-1 3.75V9H5L-1 3.75Z" fill="#448AFF"/>
<path d="M15 9L23 2H21L13 9H15Z" fill="#FF5252"/>
<path d="M13 9L21 2H20L13 8V9Z" fill="#F9FAFB"/>
<path d="M15 9H17L23 3.75V2L15 9Z" fill="#F9FAFB"/>
<path d="M9 9L1 2H-1L7 9H9Z" fill="#FF5252"/>
<path d="M9 8L2 2H1L9 9V8Z" fill="#F9FAFB"/>
<path d="M7 9L-1 2V3.75L5 9H7Z" fill="#F9FAFB"/>
<path d="M7 13L-1 20H1L9 13H7Z" fill="#FF5252"/>
<path d="M9 13L1 20H2L9 14V13Z" fill="#F9FAFB"/>
<path d="M5 13L-1 18.25V20L7 13H5Z" fill="#F9FAFB"/>
<path d="M10 9H9H7H5H-1V10H10V9Z" fill="#F9FAFB"/>
<path d="M13 9V8V2H12V9H13Z" fill="#F9FAFB"/>
<path d="M9 9H10V2H9V8V9Z" fill="#F9FAFB"/>
<path d="M13 13H12V20H13V14V13Z" fill="#F9FAFB"/>
<path d="M9 13V14V20H10V13H9Z" fill="#F9FAFB"/>
<path d="M7 13H9H10V12H-1V13H5H7Z" fill="#F9FAFB"/>
<path d="M17.1895 15.0001H21.227C22.351 14.9877 22.4676 16.0001 21.7898 16.6589L19.9893 18.6573C19.7083 19 19.2083 18.9994 19.2083 18.9994C19.2083 18.9994 18.7083 19 18.4273 18.6573L16.6267 16.6589C15.949 16.0001 16.0655 14.9877 17.1895 15.0001Z" fill="#97A3BA"/>
<path d="M14.5368 13H13L13.925 13.8094C14.1062 13.5219 14.311 13.2519 14.5368 13Z" fill="#FF5252"/>
<path d="M13.925 13.8094L13 13V14L13.5603 14.4802C13.668 14.2481 13.7896 14.0243 13.925 13.8094Z" fill="#F9FAFB"/>
<path d="M13 17V20H13.8093C13.2976 19.1168 13 18.0942 13 17Z" fill="#448AFF"/>
<path d="M13 14V17C13 16.0988 13.2043 15.2472 13.5603 14.4802L13 14Z" fill="#448AFF"/>
<path d="M14.5368 13C14.8768 12.621 15.2604 12.2826 15.686 12H12V13H13H14.5368Z" fill="#F9FAFB"/>
<path d="M19 11C20.2256 11 21.3642 11.3693 22.314 12H23V10H12V9V2H10V9V10H-1V12H10V13V20H12V13V12H15.686C16.6358 11.3693 17.7744 11 19 11Z" fill="#FF5252"/>
</g>
<defs>
<clipPath id="clip0">
<rect width="22" height="22" fill="white"/>
</clipPath>
</defs>
</svg>
