<svg width="22" height="22" viewBox="0 0 22 22" fill="none" xmlns="http://www.w3.org/2000/svg">
<g clip-path="url(#clip0)">
<path d="M23 2H-1V8H23V2Z" fill="#3D475C"/>
<path d="M17.1895 15.0001H21.227C22.351 14.9877 22.4676 16.0001 21.7898 16.6589L19.9893 18.6573C19.7083 19 19.2083 18.9994 19.2083 18.9994C19.2083 18.9994 18.7083 19 18.4273 18.6573L16.6267 16.6589C15.949 16.0001 16.0655 14.9877 17.1895 15.0001Z" fill="#97A3BA"/>
<path d="M13 17C13 15.9058 13.2976 14.8832 13.8093 14H-1V20H13.8093C13.2976 19.1168 13 18.0942 13 17Z" fill="#FFAB40"/>
<path d="M19 11C20.5389 11 21.9379 11.5844 23 12.5368V8H-1V14H13.8093C14.8471 12.2084 16.7805 11 19 11Z" fill="#FF5252"/>
</g>
<defs>
<clipPath id="clip0">
<rect width="22" height="22" fill="white"/>
</clipPath>
</defs>
</svg>
