<svg width="24" height="24" viewBox="0 0 24 24" fill="none" xmlns="http://www.w3.org/2000/svg">
<g clip-path="url(#clip0_0_3932)">
<path d="M16 10H14H13V11H24V10H18H16Z" fill="#F9FAFB"/>
<path d="M0 14V19.25L6 14H0Z" fill="#5089EC"/>
<path d="M3 21H10V15L3 21Z" fill="#5089EC"/>
<path d="M10 3H3L10 9V3Z" fill="#5089EC"/>
<path d="M21 3H14V9L21 3Z" fill="#5089EC"/>
<path d="M24 10V4.75L18 10H24Z" fill="#5089EC"/>
<path d="M0 4.75V10H6L0 4.75Z" fill="#5089EC"/>
<path d="M16 10L24 3H22L14 10H16Z" fill="#EB4747"/>
<path d="M14 10L22 3H21L14 9V10Z" fill="#F9FAFB"/>
<path d="M16 10H18L24 4.75V3L16 10Z" fill="#F9FAFB"/>
<path d="M10 10L2 3H0L8 10H10Z" fill="#EB4747"/>
<path d="M10 9L3 3H2L10 10V9Z" fill="#F9FAFB"/>
<path d="M8 10L0 3V4.75L6 10H8Z" fill="#F9FAFB"/>
<path d="M8 14L0 21H2L10 14H8Z" fill="#EB4747"/>
<path d="M10 14L2 21H3L10 15V14Z" fill="#F9FAFB"/>
<path d="M6 14L0 19.25V21L8 14H6Z" fill="#F9FAFB"/>
<path d="M11 10H10H8H6H0V11H11V10Z" fill="#F9FAFB"/>
<path d="M14 10V9V3H13V10H14Z" fill="#F9FAFB"/>
<path d="M10 10H11V3H10V9V10Z" fill="#F9FAFB"/>
<path d="M14 14H13V21H14V15V14Z" fill="#F9FAFB"/>
<path d="M10 14V15V21H11V14H10Z" fill="#F9FAFB"/>
<path d="M8 14H10H11V13H0V14H6H8Z" fill="#F9FAFB"/>
<path d="M18.1895 16.0001H22.227C23.351 15.9877 23.4676 17.0001 22.7898 17.6589L20.9893 19.6573C20.7083 20 20.2083 19.9994 20.2083 19.9994C20.2083 19.9994 19.7083 20 19.4273 19.6573L17.6267 17.6589C16.949 17.0001 17.0655 15.9877 18.1895 16.0001Z" fill="#97A3BA"/>
<path d="M15.5368 14H14L14.925 14.8094C15.1062 14.5219 15.311 14.2519 15.5368 14Z" fill="#EB4747"/>
<path d="M14.925 14.8094L14 14V15L14.5603 15.4802C14.668 15.2481 14.7896 15.0243 14.925 14.8094Z" fill="#F9FAFB"/>
<path d="M14 18V21H14.8093C14.2976 20.1168 14 19.0942 14 18Z" fill="#448AFF"/>
<path d="M14 15V18C14 17.0988 14.2043 16.2472 14.5603 15.4802L14 15Z" fill="#448AFF"/>
<path d="M24 13.5368V13H23.314C23.5568 13.1612 23.7838 13.3429 24 13.5368Z" fill="#F9FAFB"/>
<path d="M15.5368 14C15.8768 13.621 16.2604 13.2826 16.686 13H13V14H14H15.5368Z" fill="#F9FAFB"/>
<path d="M20 12C21.2256 12 22.3642 12.3693 23.314 13H24V11H13V10V3H11V10V11H0V13H11V14V21H13V14V13H16.686C17.6358 12.3693 18.7744 12 20 12Z" fill="#EB4747"/>
</g>
<defs>
<clipPath id="clip0_0_3932">
<rect width="24" height="24" fill="white"/>
</clipPath>
</defs>
</svg>
