<svg width="22" height="22" viewBox="0 0 22 22" fill="none" xmlns="http://www.w3.org/2000/svg">
<path d="M16 19C16.5523 19 17 18.5523 17 18C17 17.4477 16.5523 17 16 17L6 17C5.44772 17 5 17.4477 5 18C5 18.5523 5.44771 19 6 19L16 19Z" fill="#000"/>
<path d="M17 15C17 15.5523 16.5523 16 16 16L6 16C5.44771 16 5 15.5523 5 15C5 14.4477 5.44772 14 6 14L11.0003 14L16 14C16.5523 14 17 14.4477 17 15Z" fill="#D2233C"/>
<path d="M11.0003 14C10.8783 14 10.7558 13.9776 10.64 13.933L10.51 13.863L10.36 13.773L6.22 10.5C6.11888 10.416 6.03531 10.3128 5.97405 10.1965C5.91279 10.0801 5.87505 9.95285 5.86298 9.82192C5.85091 9.69099 5.86474 9.55897 5.9037 9.43338C5.94265 9.3078 6.00595 9.19112 6.09 9.09C6.17405 8.98888 6.27719 8.90531 6.39353 8.84405C6.50987 8.78279 6.63714 8.74505 6.76808 8.73298C6.89901 8.72091 7.03103 8.73474 7.15662 8.77369C7.2822 8.81265 7.39888 8.87595 7.5 8.96L10 10.863L10 4C10 3.73478 10.1054 3.48043 10.2929 3.29289C10.4804 3.10536 10.7348 3 11 3C11.2652 3 11.5196 3.10536 11.7071 3.29289C11.8947 3.48043 12 3.73478 12 4L12 10.863L14.5 9.00123C14.601 8.91703 14.7177 8.85359 14.8433 8.81455C14.9689 8.7755 15.101 8.76162 15.232 8.77369C15.3629 8.78577 15.4903 8.82357 15.6066 8.88492C15.723 8.94627 15.8261 9.02997 15.91 9.13123C15.9942 9.23228 16.0576 9.34895 16.0967 9.47455C16.1357 9.60015 16.1496 9.73223 16.1375 9.8632C16.1255 9.99418 16.0877 10.1215 16.0263 10.2378C15.965 10.3542 15.8813 10.4573 15.78 10.5412L11.64 13.773L11.49 13.863L11.36 13.933C11.2442 13.9776 11.1223 14 11.0003 14Z" fill="#D2233C"/>
</svg>
