<svg width="24" height="24" viewBox="0 0 24 24" fill="none" xmlns="http://www.w3.org/2000/svg">
<path d="M24 3H0V9H24V3Z" fill="#F9FAFB"/>
<path d="M18.1896 16.0001H22.2272C23.3511 15.9877 23.4677 17.0001 22.7899 17.6589L20.9894 19.6573C20.7084 20 20.2084 19.9994 20.2084 19.9994C20.2084 19.9994 19.7084 20 19.4274 19.6573L17.6268 17.6589C16.9491 17.0001 17.0656 15.9877 18.1896 16.0001Z" fill="#97A3BA"/>
<path d="M14 18C14 16.9058 14.2976 15.8832 14.8093 15H0V21H14.8093C14.2976 20.1168 14 19.0942 14 18Z" fill="#EB4747"/>
<path d="M20 12C21.5389 12 22.9379 12.5844 24 13.5368V9H0V15H14.8093C15.8471 13.2084 17.7805 12 20 12Z" fill="#4356D0"/>
</svg>
