<svg width="22" height="22" viewBox="0 0 22 22" fill="none" xmlns="http://www.w3.org/2000/svg">
<path d="M6 3C5.44772 3 5 3.44772 5 4C5 4.55228 5.44772 5 6 5H16C16.5523 5 17 4.55228 17 4C17 3.44772 16.5523 3 16 3H6Z" fill="#000"/>
<path d="M5 7C5 6.44772 5.44772 6 6 6H16C16.5523 6 17 6.44772 17 7C17 7.55228 16.5523 8 16 8H10.9997H6C5.44771 8 5 7.55228 5 7Z" fill="#D2233C"/>
<path d="M10.9997 8C11.1217 8.00003 11.2442 8.02238 11.36 8.06705L11.49 8.13705L11.64 8.22705L15.78 11.5C15.8811 11.584 15.9647 11.6872 16.026 11.8035C16.0872 11.9199 16.1249 12.0471 16.137 12.1781C16.1491 12.309 16.1353 12.441 16.0963 12.5666C16.0574 12.6922 15.994 12.8089 15.91 12.91C15.826 13.0111 15.7228 13.0947 15.6065 13.1559C15.4901 13.2172 15.3629 13.2549 15.2319 13.267C15.101 13.2791 14.969 13.2653 14.8434 13.2263C14.7178 13.1874 14.6011 13.124 14.5 13.04L12 11.137V18C12 18.2652 11.8946 18.5196 11.7071 18.7071C11.5196 18.8946 11.2652 19 11 19C10.7348 19 10.4804 18.8946 10.2929 18.7071C10.1053 18.5196 9.99999 18.2652 9.99999 18V11.137L7.5 12.9988C7.39895 13.083 7.28229 13.1464 7.15668 13.1855C7.03108 13.2245 6.89901 13.2384 6.76803 13.2263C6.63705 13.2142 6.50974 13.1764 6.3934 13.1151C6.27705 13.0537 6.17395 12.97 6.09 12.8688C6.0058 12.7677 5.94236 12.6511 5.90331 12.5254C5.86427 12.3998 5.85039 12.2678 5.86246 12.1368C5.87454 12.0058 5.91234 11.8785 5.97369 11.7622C6.03504 11.6458 6.11874 11.5427 6.22 11.4588L10.36 8.22705L10.51 8.13705L10.64 8.06705C10.7558 8.02238 10.8777 8.00003 10.9997 8Z" fill="#D2233C"/>
</svg>
