<svg width="22" height="22" viewBox="0 0 22 22" fill="none" xmlns="http://www.w3.org/2000/svg">
<path fill-rule="evenodd" clip-rule="evenodd" d="M2.15288 11.9289C1.401 12.9163 1 14.1046 1 15.3598C1 18.4728 3.52298 21 6.63074 21C7.86717 21 9.03676 20.5983 10.0393 19.8452C10.5739 19.4268 11.3592 19.4268 11.9106 19.8117L11.944 19.8452C12.9465 20.5983 14.1161 21 15.3693 21C18.477 21 21 18.4561 21 15.3598C21 14.1381 20.6157 12.9665 19.8805 11.9791L19.8638 11.9623C19.6466 11.6946 19.5297 11.3598 19.5297 11.0084C19.5297 10.6569 19.6299 10.3389 19.8471 10.0544C20.599 9.06694 21 7.8954 21 6.64017C21 3.5272 18.477 1 15.3693 1C14.1328 1 12.9632 1.40167 11.9607 2.15481C11.4094 2.57322 10.6074 2.58996 10.056 2.15481C9.05347 1.40167 7.88388 1 6.63074 1C3.52298 1 1 3.5272 1 6.64017C1 7.82845 1.36759 8.94979 2.05263 9.9205L2.13617 10.0377C2.28655 10.2218 2.47034 10.5565 2.47034 10.9916C2.47034 11.3264 2.35338 11.6611 2.15288 11.9289ZM3.73585 8.8362C4.08959 9.2926 4.47034 10.0352 4.47034 10.9916C4.47034 11.7801 4.20015 12.5315 3.75385 13.1276L3.749 13.1341L3.7441 13.1405C3.25891 13.7777 3 14.5398 3 15.3598C3 17.3714 4.6307 19 6.63074 19C7.41401 19 8.161 18.7513 8.82693 18.2544C10.0901 17.2808 11.8303 17.3165 13.0555 18.1718L13.2008 18.2733L13.2491 18.3216C13.8891 18.7721 14.6035 19 15.3693 19C17.3654 19 19 17.3585 19 15.3598C19 14.5923 18.7692 13.864 18.3234 13.2381L18.3106 13.2223C17.7972 12.5894 17.5297 11.8072 17.5297 11.0084C17.5297 10.2435 17.7592 9.49386 18.2567 8.84169C18.7451 8.19979 19 7.45352 19 6.64017C19 4.62861 17.3693 3 15.3693 3C14.5827 3 13.8328 3.2508 13.1647 3.75182C11.9376 4.67949 10.1454 4.75464 8.84127 3.74381C8.17844 3.24999 7.43271 3 6.63074 3C4.6307 3 3 4.62861 3 6.64017C3 7.40065 3.23103 8.12017 3.68415 8.7637L3.73585 8.8362Z" fill="#6EEA00"/>
</svg>
