<svg width="24" height="24" viewBox="0 0 24 24" fill="none" xmlns="http://www.w3.org/2000/svg">
<path d="M0 3V21H8V3H0Z" fill="#4356D0"/>
<path d="M18.1895 16.0001H22.227C23.351 15.9877 23.4676 17.0001 22.7898 17.6589L20.9893 19.6573C20.7083 20 20.2083 19.9994 20.2083 19.9994C20.2083 19.9994 19.7083 20 19.4273 19.6573L17.6267 17.6589C16.949 17.0001 17.0655 15.9877 18.1895 16.0001Z" fill="#97A3BA"/>
<path d="M18.1895 16.0001H22.227C23.351 15.9877 23.4676 17.0001 22.7898 17.6589L20.9893 19.6573C20.7083 20 20.2083 19.9994 20.2083 19.9994C20.2083 19.9994 19.7083 20 19.4273 19.6573L17.6267 17.6589C16.949 17.0001 17.0655 15.9877 18.1895 16.0001Z" fill="#97A3BA"/>
<path d="M20 12C21.5389 12 22.9379 12.5844 24 13.5368V3H16V13.5368C17.062 12.5843 18.4611 12 20 12Z" fill="#EB4747"/>
<path d="M14 18C14 16.2252 14.7751 14.6353 16 13.5368V3H8V21H14.8093C14.2976 20.1168 14 19.0942 14 18Z" fill="#F9FAFB"/>
</svg>
