<svg width="22" height="22" viewBox="0 0 22 22" fill="none" xmlns="http://www.w3.org/2000/svg">
<g clip-path="url(#clip0)">
<path d="M-1 2V20H7V2H-1Z" fill="#448AFF"/>
<path d="M17.1895 15.0001H21.227C22.351 14.9877 22.4676 16.0001 21.7898 16.6589L19.9893 18.6573C19.7083 19 19.2083 18.9994 19.2083 18.9994C19.2083 18.9994 18.7083 19 18.4273 18.6573L16.6267 16.6589C15.949 16.0001 16.0655 14.9877 17.1895 15.0001Z" fill="#97A3BA"/>
<path d="M17.1895 15.0001H21.227C22.351 14.9877 22.4676 16.0001 21.7898 16.6589L19.9893 18.6573C19.7083 19 19.2083 18.9994 19.2083 18.9994C19.2083 18.9994 18.7083 19 18.4273 18.6573L16.6267 16.6589C15.949 16.0001 16.0655 14.9877 17.1895 15.0001Z" fill="#97A3BA"/>
<path d="M19 11C20.5389 11 21.9379 11.5844 23 12.5368V2H15V12.5368C16.062 11.5843 17.4611 11 19 11Z" fill="#FF5252"/>
<path d="M13 17C13 15.2252 13.7751 13.6353 15 12.5368V2H7V20H13.8093C13.2976 19.1168 13 18.0942 13 17Z" fill="#F9FAFB"/>
</g>
<defs>
<clipPath id="clip0">
<rect width="22" height="22" fill="white"/>
</clipPath>
</defs>
</svg>
