<svg width="22" height="22" viewBox="0 0 22 22" fill="none" xmlns="http://www.w3.org/2000/svg">
<path d="M11 19C11.1186 19 11.2373 18.9776 11.3499 18.933L11.4763 18.863L11.6221 18.773L15.6482 15.5412C15.7467 15.4573 15.8281 15.3542 15.8877 15.2378C15.9474 15.1215 15.9841 14.9942 15.9959 14.8632C16.0076 14.7322 15.9941 14.6002 15.9562 14.4746C15.9182 14.3489 15.8565 14.2323 15.7746 14.1312C15.693 14.03 15.5927 13.9463 15.4796 13.8849C15.3664 13.8236 15.2426 13.7858 15.1153 13.7737C14.9879 13.7616 14.8594 13.7755 14.7373 13.8145C14.6151 13.8536 14.5017 13.917 14.4034 14.0012L11.9722 15.863L11.9722 8L16 8C16.5523 8 17 7.55229 17 7C17 6.44771 16.5523 6 16 6L6 6C5.44772 6 5 6.44771 5 7C5 7.55228 5.44772 8 6 8L10.0273 8L10.0273 15.863L7.59608 13.96C7.49774 13.876 7.38427 13.8126 7.26215 13.7737C7.14002 13.7347 7.01163 13.7209 6.8843 13.733C6.75697 13.745 6.6332 13.7828 6.52006 13.844C6.40692 13.9053 6.30662 13.9889 6.22488 14.09C6.14315 14.1911 6.08159 14.3078 6.04371 14.4334C6.00583 14.559 5.99237 14.691 6.00411 14.8219C6.01585 14.9529 6.05256 15.0801 6.11213 15.1965C6.1717 15.3128 6.25297 15.416 6.35131 15.5L10.3774 18.773L10.5232 18.863L10.6497 18.933C10.7622 18.9776 10.8814 19 11 19Z" fill="#D2233C"/>
<path d="M17 4C17 4.55229 16.5523 5 16 5L6 5C5.44772 5 5 4.55228 5 4C5 3.44771 5.44772 3 6 3L16 3C16.5523 3 17 3.44771 17 4Z" fill="#000"/>
</svg>
