<svg width="23" height="23" viewBox="0 0 23 23" fill="none" xmlns="http://www.w3.org/2000/svg">
<path d="M5.06159 10.4394C5.03161 11.2142 5.85589 11.7529 6.50124 11.3803L8.40628 10.2805L11.0435 21.0299C11.2495 21.8694 12.3222 22.0948 12.7638 21.3914L14.9764 17.9282L19.082 17.7436C19.912 17.7129 20.2531 16.6712 19.629 16.073L11.6384 8.41442L13.5434 7.31455C14.1888 6.94195 14.1343 5.95874 13.4483 5.5973L6.86853 2.33225C6.56209 2.17079 6.23263 2.19181 5.97643 2.33973C5.72023 2.48764 5.53727 2.76247 5.52388 3.10859L5.06159 10.4394Z" fill="#D2233C"/>
<path fill-rule="evenodd" clip-rule="evenodd" d="M6.47075 3.09271L6.01332 10.4361L9.03206 8.67169L11.991 20.8812L14.4203 17.0318L18.928 16.8266L9.9627 8.12775L12.9814 6.36336L6.47075 3.09271ZM5.42487 1.25882C4.87666 1.57924 4.49905 2.16866 4.46741 2.87096L4.00195 10.3431L4.00148 10.3555C3.94458 11.8445 5.53838 13.067 6.95972 12.2362L7.71594 11.7942L10.051 21.4295C10.2522 22.2599 10.8907 22.8072 11.5984 22.9577C12.3123 23.1096 13.1379 22.8586 13.6101 22.1011L15.5544 19.0203L19.1619 18.8561C20.0461 18.8209 20.6737 18.2226 20.9007 17.5207C21.1257 16.825 20.9768 15.9916 20.3671 15.4L13.292 8.53515L14.0482 8.09316C15.4695 7.26241 15.2206 5.25385 13.9185 4.55926L13.9076 4.55349L7.28271 1.22546C6.66614 0.90207 5.97311 0.938384 5.42487 1.25882Z" fill="#455168"/>
</svg>
