<svg width="23" height="22" viewBox="0 0 23 22" fill="none" xmlns="http://www.w3.org/2000/svg">
<path d="M9.85158 1.8999C10.6214 0.56657 12.5459 0.566568 13.3157 1.8999L22.0755 17.0724C22.8453 18.4057 21.8831 20.0724 20.3435 20.0724H2.82379C1.28419 20.0724 0.321933 18.4057 1.09173 17.0724L9.85158 1.8999Z" fill="#FFC107"/>
<path d="M12.4497 2.3999L21.2095 17.5724C21.5944 18.2391 21.1133 19.0724 20.3435 19.0724H2.82379C2.05398 19.0724 1.57286 18.2391 1.95776 17.5724L10.7176 2.3999C11.1025 1.73323 12.0648 1.73324 12.4497 2.3999Z" stroke="#455168" stroke-width="2"/>
<path d="M16.3378 16.6635L13.7681 12.8159C13.5484 12.4871 13.5605 12.064 13.683 11.688C13.9265 10.941 13.831 10.0911 13.3509 9.37219C12.7067 8.40771 11.5348 8.01038 10.485 8.26565L11.3869 9.61614C11.6541 10.0162 11.5482 10.557 11.1497 10.8266V10.8266C10.7511 11.0964 10.2094 10.9934 9.93751 10.5963L9.004 9.23275C8.33273 10.1071 8.296 11.3572 8.94016 12.3217C9.41812 13.0374 10.1594 13.4467 10.9347 13.5047C11.3327 13.5345 11.7332 13.6846 11.9549 14.0166L14.5206 17.8581C14.6494 18.051 14.8901 18.0981 15.0822 17.9682L16.1869 17.2207C16.4191 17.0986 16.4745 16.816 16.3378 16.6635Z" fill="#455168"/>
</svg>
