<svg width="20" height="20" viewBox="0 0 20 20" fill="none" xmlns="http://www.w3.org/2000/svg">
<path d="M13.4544 0.0215211C14.95 -0.103654 16.4401 0.32025 17.6462 1.21405C18.3253 1.73911 18.8851 2.40255 19.2887 3.16042C19.6922 3.9183 19.9302 4.75332 19.9869 5.61017C20.0436 6.46703 19.9177 7.32616 19.6176 8.13066C19.3175 8.93517 18.85 9.66669 18.246 10.2768L16.8265 11.6972C16.7335 11.7909 16.623 11.8654 16.5011 11.9161C16.3793 11.9669 16.2486 11.9931 16.1167 11.9931C15.9847 11.9931 15.854 11.9669 15.7322 11.9161C15.6104 11.8654 15.4998 11.7909 15.4069 11.6972C15.3132 11.6042 15.2388 11.4936 15.1881 11.3717C15.1373 11.2498 15.1112 11.119 15.1112 10.987C15.1112 10.8549 15.1373 10.7242 15.1881 10.6023C15.2388 10.4804 15.3132 10.3698 15.4069 10.2768L16.8265 8.84634C17.2273 8.45249 17.5406 7.97855 17.7462 7.45542C17.9517 6.93228 18.0447 6.37169 18.0193 5.81016C17.9938 5.24863 17.8504 4.69877 17.5984 4.19641C17.3463 3.69405 16.9913 3.25046 16.5565 2.89456C15.7433 2.26042 14.724 1.95036 13.6956 2.02426C12.6672 2.09815 11.7027 2.55077 10.9883 3.29468L9.68876 4.60507C9.59582 4.69882 9.48526 4.77324 9.36344 4.82403C9.24162 4.87481 9.11095 4.90096 8.97898 4.90096C8.84702 4.90096 8.71635 4.87481 8.59453 4.82403C8.47271 4.77324 8.36215 4.69882 8.26921 4.60507C8.16727 4.49149 8.0903 4.35777 8.04328 4.21254C7.99626 4.06731 7.98024 3.91382 7.99626 3.76201C8.01228 3.6102 8.05998 3.46344 8.13627 3.33124C8.21257 3.19904 8.31576 3.08435 8.43916 2.99459L9.51881 1.89426C10.5598 0.812389 11.9587 0.146696 13.4544 0.0215211Z" fill="#3577E9"/>
<path d="M11.2778 7.28588L7.2791 11.2871C7.1854 11.3801 7.11103 11.4907 7.06028 11.6126C7.00953 11.7345 6.9834 11.8652 6.9834 11.9973C6.9834 12.1293 7.00953 12.2601 7.06028 12.382C7.11103 12.5039 7.1854 12.6145 7.2791 12.7075C7.37203 12.8013 7.4826 12.8757 7.60442 12.9265C7.72624 12.9772 7.8569 13.0034 7.98887 13.0034C8.12084 13.0034 8.2515 12.9772 8.37332 12.9265C8.49514 12.8757 8.60571 12.8013 8.69864 12.7075L12.6974 8.7063C12.8856 8.51794 12.9913 8.26247 12.9913 7.99609C12.9913 7.72971 12.8856 7.47424 12.6974 7.28588C12.5091 7.09752 12.2538 6.9917 11.9876 6.9917C11.7214 6.9917 11.4661 7.09752 11.2778 7.28588Z" fill="#3577E9"/>
<path d="M10.2684 15.3983L8.98883 16.6686C8.27049 17.4093 7.30481 17.8594 6.27599 17.9332C5.24717 18.007 4.2272 17.6993 3.41063 17.0688C2.97904 16.7129 2.62685 16.2704 2.3768 15.7699C2.12676 15.2693 1.98442 14.7219 1.95898 14.1629C1.93355 13.6038 2.02558 13.0457 2.22913 12.5245C2.43268 12.0033 2.74323 11.5306 3.14072 11.137L4.56026 9.70655C4.65396 9.61356 4.72833 9.50292 4.77908 9.38103C4.82983 9.25913 4.85596 9.12839 4.85596 8.99633C4.85596 8.86428 4.82983 8.73354 4.77908 8.61164C4.72833 8.48975 4.65396 8.37911 4.56026 8.28612C4.46733 8.19237 4.35676 8.11795 4.23494 8.06717C4.11312 8.01638 3.98246 7.99023 3.85049 7.99023C3.71852 7.99023 3.58785 8.01638 3.46603 8.06717C3.34421 8.11795 3.23365 8.19237 3.14072 8.28612L1.87113 9.5665C0.80163 10.6028 0.144269 11.9923 0.02109 13.4768C-0.102089 14.9614 0.317282 16.4403 1.20134 17.6389C1.72605 18.3201 2.3896 18.8817 3.1479 19.2865C3.90621 19.6913 4.74191 19.93 5.5995 19.9867C6.45709 20.0435 7.31694 19.917 8.12193 19.6157C8.92691 19.3144 9.65861 18.8451 10.2684 18.2391L11.688 16.8187C11.8762 16.6303 11.982 16.3748 11.982 16.1085C11.982 15.8421 11.8762 15.5866 11.688 15.3983C11.4997 15.2099 11.2444 15.1041 10.9782 15.1041C10.712 15.1041 10.4567 15.2099 10.2684 15.3983Z" fill="#3577E9"/>
</svg>
