<svg width="22" height="20" viewBox="0 0 22 20" fill="none" xmlns="http://www.w3.org/2000/svg">
<path d="M22 9.92663C22 8.33671 20.2049 6.9579 17.4083 6.12232C17.5018 5.68613 17.5805 5.25713 17.63 4.84675C17.908 2.52701 17.4257 0.902399 16.2715 0.272015C15.117 -0.357947 13.4902 0.11463 11.6892 1.60301C11.459 1.79298 11.2293 1.99986 11 2.21648C10.7707 1.99944 10.541 1.79298 10.3108 1.60301C8.50977 0.11463 6.88219 -0.357524 5.72846 0.272015C4.57431 0.901976 4.092 2.52659 4.36996 4.84675C4.41904 5.25755 4.49815 5.68613 4.59165 6.12232C1.79512 6.9579 0 8.33671 0 9.92663C0 11.5166 1.79512 12.8954 4.59165 13.7309C4.49815 14.1671 4.41946 14.5961 4.36996 15.0065C4.092 17.3262 4.57431 18.9509 5.72846 19.5812C6.06227 19.7636 6.435 19.8533 6.84031 19.8533C7.8375 19.8533 9.03058 19.3088 10.3108 18.2507C10.541 18.0607 10.7707 17.8538 11 17.6372C11.2293 17.8542 11.459 18.0607 11.6892 18.2507C12.9694 19.3088 14.1625 19.8533 15.1597 19.8533C15.565 19.8533 15.9382 19.7632 16.2715 19.5812C17.4257 18.9513 17.908 17.3267 17.63 15.0065C17.581 14.5957 17.5018 14.1671 17.4083 13.7309C20.2049 12.8954 22 11.5166 22 9.92663ZM12.2278 2.25455C13.7212 1.02044 15.0476 0.567746 15.8658 1.01451C16.684 1.46086 17.0204 2.82105 16.7898 4.74521C16.7454 5.11709 16.6743 5.50505 16.5914 5.89978C15.6957 5.68021 14.7172 5.51267 13.6755 5.40648C13.0138 4.44398 12.3153 3.56567 11.5991 2.81217C11.8081 2.61501 12.0179 2.42801 12.2278 2.25455ZM14.3419 11.7514C13.981 12.4122 13.5973 13.0439 13.1987 13.6442C12.5002 13.7026 11.7662 13.7343 11 13.7343C10.2338 13.7343 9.49977 13.7026 8.80085 13.6442C8.40273 13.0434 8.01858 12.4122 7.65769 11.7514C7.326 11.1442 7.0235 10.5337 6.75146 9.92663C7.0235 9.31994 7.326 8.70944 7.65769 8.1019C8.01858 7.44105 8.40231 6.8094 8.80085 6.20905C9.49977 6.15067 10.2338 6.11894 11 6.11894C11.7662 6.11894 12.5002 6.15067 13.1992 6.20905C13.5973 6.80982 13.9814 7.44105 14.3423 8.1019C14.674 8.70901 14.9765 9.31952 15.2485 9.92663C14.9765 10.5333 14.6736 11.1438 14.3419 11.7514ZM15.6868 10.9788C15.9745 11.7146 16.2106 12.4359 16.3959 13.1348C15.7427 13.2939 15.0378 13.4284 14.2767 13.5279C14.5547 13.0836 14.8267 12.6292 15.0844 12.1567C15.2989 11.7653 15.4969 11.3719 15.6868 10.9788ZM11 16.4433C10.4618 15.8759 9.933 15.232 9.42235 14.5339C9.93681 14.564 10.4627 14.5805 11 14.5805C11.5373 14.5805 12.0632 14.564 12.5777 14.5339C12.067 15.232 11.5382 15.8759 11 16.4433ZM7.72285 13.5279C6.96173 13.4284 6.25689 13.2939 5.60365 13.1348C5.78896 12.4359 6.02504 11.7141 6.31273 10.9788C6.50312 11.3723 6.70112 11.7653 6.91477 12.1571C7.17285 12.6292 7.44488 13.0836 7.72285 13.5279ZM6.31315 8.87444C6.02546 8.13871 5.78938 7.41694 5.60408 6.71844C6.25731 6.55936 6.96215 6.42482 7.72327 6.3254C7.44531 6.76963 7.17327 7.22401 6.91562 7.69659C6.70112 8.08794 6.50312 8.4814 6.31315 8.87444ZM11 3.40998C11.5382 3.97732 12.067 4.62125 12.5777 5.31932C12.0632 5.28928 11.5373 5.27278 11 5.27278C10.4627 5.27278 9.93681 5.28928 9.42235 5.31932C9.933 4.62125 10.4618 3.97732 11 3.40998ZM15.0848 7.69659C14.8272 7.22444 14.5551 6.77005 14.2772 6.3254C15.0383 6.42482 15.7431 6.55936 16.3963 6.71844C16.211 7.41736 15.975 8.13913 15.6873 8.87444C15.4969 8.4814 15.2989 8.08794 15.0848 7.69659ZM5.21019 4.74563C4.97919 2.82105 5.31596 1.46086 6.13419 1.01494C6.34065 0.901976 6.57969 0.846976 6.84538 0.846976C7.63231 0.846976 8.65531 1.33225 9.77223 2.25498C9.98208 2.42844 10.1923 2.61544 10.4018 2.81301C9.6855 3.56651 8.98658 4.4444 8.32531 5.40732C7.28327 5.51351 6.30469 5.68148 5.40946 5.90063C5.32569 5.50548 5.25504 5.11751 5.21019 4.74563ZM0.846154 9.92663C0.846154 8.82663 2.31423 7.68305 4.78796 6.93971C5.04435 7.9039 5.39592 8.90871 5.83338 9.92663C5.39592 10.945 5.04435 11.9498 4.78796 12.9136C2.31423 12.1702 0.846154 11.0266 0.846154 9.92663ZM9.77223 17.5987C8.27877 18.8328 6.95369 19.2864 6.13419 18.8387C5.31596 18.3924 4.97962 17.0322 5.21019 15.1081C5.25462 14.7362 5.32569 14.3482 5.40862 13.9535C6.30427 14.1731 7.28285 14.3406 8.32446 14.4468C8.98615 15.4093 9.68465 16.2876 10.4009 17.0411C10.1919 17.2382 9.98208 17.4252 9.77223 17.5987ZM16.7898 15.1076C17.0208 17.0322 16.684 18.3924 15.8658 18.8383C15.0476 19.2864 13.7217 18.8324 12.2278 17.5983C12.0179 17.4248 11.8077 17.2378 11.5982 17.0402C12.3145 16.2867 13.0134 15.4089 13.6747 14.4459C14.7167 14.3397 15.6953 14.1718 16.5905 13.9526C16.6743 14.3478 16.745 14.7357 16.7898 15.1076ZM17.212 12.9136C16.9557 11.9494 16.6041 10.9446 16.1666 9.92663C16.6041 8.90828 16.9557 7.90348 17.212 6.93971C19.6858 7.68305 21.1538 8.82663 21.1538 9.92663C21.1538 11.0266 19.6858 12.1702 17.212 12.9136Z" fill="url(#paint0_linear)"/>
<defs>
<linearGradient id="paint0_linear" x1="11" y1="-0.470062" x2="11" y2="18.9974" gradientUnits="userSpaceOnUse">
<stop stop-color="#1A6DFF"/>
<stop offset="1" stop-color="#C822FF"/>
</linearGradient>
</defs>
</svg>
