<svg width="22" height="22" viewBox="0 0 22 22" fill="none" xmlns="http://www.w3.org/2000/svg">
<path d="M20.0188 17.0021H15.9812C14.8572 16.9897 14.7407 18.0021 15.4185 18.6609L17.219 20.6593C17.5 21.002 18 21.0014 18 21.0014C18 21.0014 18.5 21.002 18.781 20.6593L20.5816 18.6609C21.2593 18.0021 21.1428 16.9897 20.0188 17.0021Z" fill="#7887A5"/>
<path fill-rule="evenodd" clip-rule="evenodd" d="M15 5.00135H20C20.2652 5.00135 20.5196 5.10675 20.7071 5.29425C20.8946 5.48185 21 5.73615 21 6.00135C21 6.26655 20.8946 6.52095 20.7071 6.70845C20.5196 6.89605 20.2652 7.00135 20 7.00135H19V14.0019C19 14.5542 18.5523 15.0019 18 15.0019C17.4477 15.0019 17 14.5542 17 14.0019V7.00135H5V18.0013C5 18.2665 5.1054 18.5209 5.2929 18.7084C5.4804 18.896 5.7348 19.0013 6 19.0013H12C12.5523 19.0013 13 19.449 13 20.0013C13 20.5536 12.5523 21.0013 12 21.0013H6C5.2044 21.0013 4.4413 20.6854 3.8787 20.1227C3.3161 19.5601 3 18.797 3 18.0013V7.00135H2C1.7348 7.00135 1.4804 6.89605 1.2929 6.70845C1.1054 6.52095 1 6.26655 1 6.00135C1 5.73615 1.1054 5.48185 1.2929 5.29425C1.4804 5.10675 1.7348 5.00135 2 5.00135H7V3.33135C7.0235 2.69115 7.2998 2.08645 7.7684 1.64965C8.2371 1.21295 8.8598 0.979769 9.5 1.00138H12.5C13.1402 0.979769 13.7629 1.21295 14.2316 1.64965C14.7002 2.08645 14.9765 2.69115 15 3.33135V5.00135ZM9.5 3.00135C9.21 3.00135 9 3.17135 9 3.33135V5.00135H13V3.33135C13 3.17135 12.79 3.00135 12.5 3.00135H9.5Z" fill="#7887A5"/>
<path d="M8.7071 15.7085C8.5196 15.8961 8.2652 16.0014 8 16.0014C7.7348 16.0014 7.4804 15.8961 7.2929 15.7085C7.1054 15.521 7 15.2666 7 15.0014V11.0014C7 10.7362 7.1054 10.4818 7.2929 10.2943C7.4804 10.1068 7.7348 10.0014 8 10.0014C8.2652 10.0014 8.5196 10.1068 8.7071 10.2943C8.8946 10.4818 9 10.7362 9 11.0014V15.0014C9 15.2666 8.8946 15.521 8.7071 15.7085Z" fill="#7887A5"/>
<path d="M14.7071 15.7085C14.5196 15.8961 14.2652 16.0014 14 16.0014C13.7348 16.0014 13.4804 15.8961 13.2929 15.7085C13.1054 15.521 13 15.2666 13 15.0014V11.0014C13 10.7362 13.1054 10.4818 13.2929 10.2943C13.4804 10.1068 13.7348 10.0014 14 10.0014C14.2652 10.0014 14.5196 10.1068 14.7071 10.2943C14.8946 10.4818 15 10.7362 15 11.0014V15.0014C15 15.2666 14.8946 15.521 14.7071 15.7085Z" fill="#7887A5"/>
</svg>
