<svg width="22" height="22" viewBox="0 0 22 22" fill="none" xmlns="http://www.w3.org/2000/svg">
<path d="M11.3909 9.08C11.5101 9.12874 11.6187 9.20005 11.7109 9.29L14.7109 12.29C14.8046 12.383 14.879 12.4936 14.9298 12.6154C14.9805 12.7373 15.0067 12.868 15.0067 13C15.0067 13.132 14.9805 13.2627 14.9298 13.3846C14.879 13.5064 14.8046 13.617 14.7109 13.71C14.6179 13.8037 14.5073 13.8781 14.3854 13.9289C14.2636 13.9797 14.1329 14.0058 14.0009 14.0058C13.8689 14.0058 13.7381 13.9797 13.6163 13.9289C13.4944 13.8781 13.3838 13.8037 13.2909 13.71L12.0009 12.41V16C12.0009 16.2652 11.8955 16.5196 11.708 16.7071C11.5204 16.8946 11.2661 17 11.0009 17C10.7356 17 10.4813 16.8946 10.2938 16.7071C10.1062 16.5196 10.0009 16.2652 10.0009 16V12.34L8.69086 13.57C8.49858 13.753 8.24148 13.8521 7.97611 13.8456C7.71075 13.839 7.45886 13.7273 7.27586 13.535C7.09286 13.3427 6.99374 13.0856 7.00031 12.8203C7.00687 12.5549 7.11858 12.303 7.31086 12.12L10.3109 9.26C10.3518 9.22662 10.3952 9.19652 10.4409 9.17C10.4982 9.12384 10.5623 9.08674 10.6309 9.06C10.7168 9.02486 10.8081 9.00457 10.9009 9H11.0009C11.1349 9.00026 11.2675 9.02746 11.3909 9.08Z" fill="#97A3BA"/>
<path fill-rule="evenodd" clip-rule="evenodd" d="M15 4.99991H20C20.2652 4.99991 20.5196 5.10527 20.7071 5.29281C20.8946 5.48034 21 5.7347 21 5.99991C21 6.26513 20.8946 6.51948 20.7071 6.70702C20.5196 6.89456 20.2652 6.99991 20 6.99991H19V17.9999C19 18.7956 18.6839 19.5586 18.1213 20.1212C17.5587 20.6838 16.7956 20.9999 16 20.9999H6C5.20435 20.9999 4.44129 20.6838 3.87868 20.1212C3.31607 19.5586 3 18.7956 3 17.9999V6.99991H2C1.73478 6.99991 1.48043 6.89456 1.29289 6.70702C1.10536 6.51948 1 6.26513 1 5.99991C1 5.7347 1.10536 5.48034 1.29289 5.29281C1.48043 5.10527 1.73478 4.99991 2 4.99991H7V3.32991C7.02346 2.68973 7.2998 2.08497 7.76843 1.64821C8.23706 1.21144 8.85975 0.978307 9.5 0.999914H12.5C13.1402 0.978307 13.7629 1.21144 14.2316 1.64821C14.7002 2.08497 14.9765 2.68973 15 3.32991V4.99991ZM9.5 2.99991C9.21 2.99991 9 3.16991 9 3.32991V4.99991H13V3.32991C13 3.16991 12.79 2.99991 12.5 2.99991H9.5ZM16.7071 18.707C16.8946 18.5195 17 18.2651 17 17.9999V6.99991H5V17.9999C5 18.2651 5.10536 18.5195 5.29289 18.707C5.48043 18.8946 5.73478 18.9999 6 18.9999H16C16.2652 18.9999 16.5196 18.8946 16.7071 18.707Z" fill="#97A3BA"/>
</svg>
