<svg width="22" height="22" viewBox="0 0 22 22" fill="none" xmlns="http://www.w3.org/2000/svg">
<path d="M10.62 13.9232C10.4984 13.8725 10.388 13.7983 10.2952 13.7047C10.2017 13.6119 10.1274 13.5015 10.0768 13.3798C10.0261 13.2581 10 13.1277 10 12.9959C10 12.8641 10.0261 12.7336 10.0768 12.6119C10.1274 12.4903 10.2017 12.3798 10.2952 12.287L11.5927 10.9991L10.2952 9.71127C10.1073 9.52328 10.0017 9.2683 10.0017 9.00244C10.0017 8.73658 10.1073 8.4816 10.2952 8.29361C10.4832 8.10561 10.7381 8 11.0039 8C11.2696 8 11.5245 8.10561 11.7125 8.29361L13 9.59147L14.2875 8.29361C14.4755 8.10561 14.7304 8 14.9961 8C15.2619 8 15.5168 8.10561 15.7048 8.29361C15.8927 8.4816 15.9983 8.73658 15.9983 9.00244C15.9983 9.2683 15.8927 9.52328 15.7048 9.71127L14.4073 10.9991L15.7048 12.287C15.7983 12.3798 15.8726 12.4903 15.9232 12.6119C15.9739 12.7336 16 12.8641 16 12.9959C16 13.1277 15.9739 13.2581 15.9232 13.3798C15.8726 13.5015 15.7983 13.6119 15.7048 13.7047C15.612 13.7983 15.5016 13.8725 15.38 13.9232C15.2584 13.9739 15.1279 14 14.9961 14C14.8644 14 14.7339 13.9739 14.6123 13.9232C14.4907 13.8725 14.3803 13.7983 14.2875 13.7047L13 12.4068L11.7125 13.7047C11.6197 13.7983 11.5093 13.8725 11.3877 13.9232C11.2661 13.9739 11.1356 14 11.0039 14C10.8721 14 10.7416 13.9739 10.62 13.9232Z" fill="#97A3BA"/>
<path fill-rule="evenodd" clip-rule="evenodd" d="M9.16919 3C8.62754 3 8.10807 3.21071 7.72507 3.58579L1.59818 9.58579C0.800607 10.3668 0.80061 11.6332 1.59818 12.4142L7.72507 18.4142C8.10807 18.7893 8.62754 19 9.16919 19H18.9577C20.0856 19 21 18.1046 21 17V5C21 3.89543 20.0856 3 18.9577 3H9.16919ZM9.16919 5H18.9577V17L9.16919 17L3.0423 11L9.16919 5Z" fill="#97A3BA"/>
</svg>
