<svg width="24" height="24" viewBox="0 0 24 24" fill="none" xmlns="http://www.w3.org/2000/svg">
<path fill-rule="evenodd" clip-rule="evenodd" d="M16.7071 9.29289C17.0976 9.68342 17.0976 10.3166 16.7071 10.7071L15.4142 12L16.7071 13.2929C17.0976 13.6834 17.0976 14.3166 16.7071 14.7071C16.3166 15.0976 15.6834 15.0976 15.2929 14.7071L14 13.4142L12.7071 14.7071C12.3166 15.0976 11.6834 15.0976 11.2929 14.7071C10.9024 14.3166 10.9024 13.6834 11.2929 13.2929L12.5858 12L11.2929 10.7071C10.9024 10.3166 10.9024 9.68342 11.2929 9.29289C11.6834 8.90237 12.3166 8.90237 12.7071 9.29289L14 10.5858L15.2929 9.29289C15.6834 8.90237 16.3166 8.90237 16.7071 9.29289Z" fill="#777B92"/>
<path fill-rule="evenodd" clip-rule="evenodd" d="M9 4.58579C9.37508 4.21071 9.88378 4 10.4142 4H20C21.1046 4 22 4.89543 22 6V18C22 19.1046 21.1046 20 20 20H10.4142C9.88378 20 9.37507 19.7893 9 19.4142L3 13.4142C2.21895 12.6332 2.21895 11.3668 3 10.5858L9 4.58579ZM20 6L10.4142 6L4.41422 12L10.4142 18H20V6Z" fill="#777B92"/>
</svg>
