<svg width="22" height="22" viewBox="0 0 22 22" fill="none" xmlns="http://www.w3.org/2000/svg">
<path d="M8.29306 15.7071C7.90254 15.3166 7.90254 14.6834 8.29306 14.2929L9.58584 13.0001L8.2929 11.7072C7.90237 11.3167 7.90237 10.6835 8.29289 10.293C8.68341 9.90245 9.31658 9.90245 9.7071 10.293L11 11.5859L12.293 10.2929C12.6835 9.90237 13.3167 9.90237 13.7072 10.2929C14.0977 10.6834 14.0977 11.3166 13.7072 11.7071L12.4143 13.0001L13.7071 14.2929C14.0976 14.6834 14.0977 15.3166 13.7071 15.7071C13.3166 16.0977 12.6834 16.0977 12.2929 15.7071L11.0001 14.4143L9.70728 15.7071C9.31676 16.0976 8.68359 16.0977 8.29306 15.7071Z" fill="#97A3BA"/>
<path fill-rule="evenodd" clip-rule="evenodd" d="M15 4.99991H20C20.2652 4.99991 20.5196 5.10527 20.7071 5.29281C20.8946 5.48034 21 5.7347 21 5.99991C21 6.26513 20.8946 6.51948 20.7071 6.70702C20.5196 6.89456 20.2652 6.99991 20 6.99991H19V17.9999C19 18.7956 18.6839 19.5586 18.1213 20.1212C17.5587 20.6838 16.7956 20.9999 16 20.9999H6C5.20435 20.9999 4.44129 20.6838 3.87868 20.1212C3.31607 19.5586 3 18.7956 3 17.9999V6.99991H2C1.73478 6.99991 1.48043 6.89456 1.29289 6.70702C1.10536 6.51948 1 6.26513 1 5.99991C1 5.7347 1.10536 5.48034 1.29289 5.29281C1.48043 5.10527 1.73478 4.99991 2 4.99991H7V3.32991C7.02346 2.68973 7.2998 2.08497 7.76843 1.64821C8.23706 1.21144 8.85975 0.978307 9.5 0.999914H12.5C13.1402 0.978307 13.7629 1.21144 14.2316 1.64821C14.7002 2.08497 14.9765 2.68973 15 3.32991V4.99991ZM9.5 2.99991C9.21 2.99991 9 3.16991 9 3.32991V4.99991H13V3.32991C13 3.16991 12.79 2.99991 12.5 2.99991H9.5ZM16.7071 18.707C16.8946 18.5195 17 18.2651 17 17.9999V6.99991H5V17.9999C5 18.2651 5.10536 18.5195 5.29289 18.707C5.48043 18.8946 5.73478 18.9999 6 18.9999H16C16.2652 18.9999 16.5196 18.8946 16.7071 18.707Z" fill="#97A3BA"/>
</svg>
