<svg width="22" height="22" viewBox="0 0 22 22" fill="none" xmlns="http://www.w3.org/2000/svg">
<path d="M8 16C8.26522 16 8.51957 15.8946 8.70711 15.7071C8.89464 15.5196 9 15.2652 9 15V11C9 10.7348 8.89464 10.4804 8.70711 10.2929C8.51957 10.1054 8.26522 10 8 10C7.73478 10 7.48043 10.1054 7.29289 10.2929C7.10536 10.4804 7 10.7348 7 11V15C7 15.2652 7.10536 15.5196 7.29289 15.7071C7.48043 15.8946 7.73478 16 8 16Z" fill="#97A3BA"/>
<path d="M14.7071 15.7071C14.5196 15.8946 14.2652 16 14 16C13.7348 16 13.4804 15.8946 13.2929 15.7071C13.1054 15.5196 13 15.2652 13 15V11C13 10.7348 13.1054 10.4804 13.2929 10.2929C13.4804 10.1054 13.7348 10 14 10C14.2652 10 14.5196 10.1054 14.7071 10.2929C14.8946 10.4804 15 10.7348 15 11V15C15 15.2652 14.8946 15.5196 14.7071 15.7071Z" fill="#97A3BA"/>
<path fill-rule="evenodd" clip-rule="evenodd" d="M20 4.99991H15V3.32991C14.9765 2.68973 14.7002 2.08497 14.2316 1.64821C13.7629 1.21144 13.1402 0.978307 12.5 0.999914H9.5C8.85975 0.978307 8.23706 1.21144 7.76843 1.64821C7.2998 2.08497 7.02346 2.68973 7 3.32991V4.99991H2C1.73478 4.99991 1.48043 5.10527 1.29289 5.29281C1.10536 5.48034 1 5.7347 1 5.99991C1 6.26513 1.10536 6.51948 1.29289 6.70702C1.48043 6.89456 1.73478 6.99991 2 6.99991H3V17.9999C3 18.7956 3.31607 19.5586 3.87868 20.1212C4.44129 20.6838 5.20435 20.9999 6 20.9999H16C16.7956 20.9999 17.5587 20.6838 18.1213 20.1212C18.6839 19.5586 19 18.7956 19 17.9999V6.99991H20C20.2652 6.99991 20.5196 6.89456 20.7071 6.70702C20.8946 6.51948 21 6.26513 21 5.99991C21 5.7347 20.8946 5.48034 20.7071 5.29281C20.5196 5.10527 20.2652 4.99991 20 4.99991ZM9 3.32991C9 3.16991 9.21 2.99991 9.5 2.99991H12.5C12.79 2.99991 13 3.16991 13 3.32991V4.99991H9V3.32991ZM17 17.9999C17 18.2651 16.8946 18.5195 16.7071 18.707C16.5196 18.8946 16.2652 18.9999 16 18.9999H6C5.73478 18.9999 5.48043 18.8946 5.29289 18.707C5.10536 18.5195 5 18.2651 5 17.9999V6.99991H17V17.9999Z" fill="#97A3BA"/>
</svg>
