<svg width="24" height="24" viewBox="0 0 24 24" fill="none" xmlns="http://www.w3.org/2000/svg">
<path fill-rule="evenodd" clip-rule="evenodd" d="M12.7071 10.2929C12.3166 9.90237 11.6834 9.90237 11.2929 10.2929L9.29289 12.2929C8.90237 12.6834 8.90237 13.3166 9.29289 13.7071C9.68342 14.0976 10.3166 14.0976 10.7071 13.7071L11 13.4142V17C11 17.5523 11.4477 18 12 18C12.5523 18 13 17.5523 13 17V13.4142L13.2929 13.7071C13.6834 14.0976 14.3166 14.0976 14.7071 13.7071C15.0976 13.3166 15.0976 12.6834 14.7071 12.2929L12.7071 10.2929Z" fill="#777B92"/>
<path fill-rule="evenodd" clip-rule="evenodd" d="M10 2C8.89543 2 8 2.89543 8 4V6H3C2.44772 6 2 6.44772 2 7C2 7.55228 2.44772 8 3 8H4V20C4 21.1046 4.89543 22 6 22H18C19.1046 22 20 21.1046 20 20V8H21C21.5523 8 22 7.55228 22 7C22 6.44772 21.5523 6 21 6H16V4C16 2.89543 15.1046 2 14 2H10ZM6 20V8H18L18 20H6ZM14 6H10V4H14V6Z" fill="#777B92"/>
</svg>
