<svg width="16" height="16" viewBox="0 0 16 16" fill="none" xmlns="http://www.w3.org/2000/svg">
<path fill-rule="evenodd" clip-rule="evenodd" d="M13.3536 1.35355L12.2071 2.5H15C15.2761 2.5 15.5 2.72386 15.5 3C15.5 3.27614 15.2761 3.5 15 3.5H12.2071L13.3536 4.64645C13.5488 4.84171 13.5488 5.15829 13.3536 5.35355C13.1583 5.54882 12.8417 5.54882 12.6464 5.35355L10.6464 3.35355C10.4512 3.15829 10.4512 2.84171 10.6464 2.64645L12.6464 0.646447C12.8417 0.451184 13.1583 0.451184 13.3536 0.646447C13.5488 0.841709 13.5488 1.15829 13.3536 1.35355Z" fill="#777B92"/>
<path fill-rule="evenodd" clip-rule="evenodd" d="M0.698902 0.60083C0.824159 0.506348 0.986502 0.47614 1.13736 0.519242L8.12656 2.51616C8.16466 2.52609 8.20099 2.54041 8.23498 2.55854C8.29995 2.59304 8.35516 2.64085 8.39811 2.69745C8.46543 2.78617 8.50261 2.8965 8.5 3.01105V14.3371L14.5 12.6229V7C14.5 6.72386 14.7239 6.5 15 6.5C15.2761 6.5 15.5 6.72386 15.5 7V13C15.5 13.2232 15.352 13.4194 15.1374 13.4808L8.14829 15.4776C8.10604 15.4907 8.06139 15.4984 8.01517 15.4998C8.00506 15.5001 7.99494 15.5001 7.98483 15.4998C7.93861 15.4984 7.89396 15.4907 7.85171 15.4776L0.862639 13.4808C0.647989 13.4194 0.5 13.2232 0.5 13V1C0.5 0.843109 0.573645 0.695312 0.698902 0.60083ZM1.5 1.66287V12.6229L7.5 14.3371V3.37716L1.5 1.66287Z" fill="#777B92"/>
</svg>
