<svg width="16" height="16" viewBox="0 0 16 16" fill="none" xmlns="http://www.w3.org/2000/svg">
<path fill-rule="evenodd" clip-rule="evenodd" d="M0.501289 7.96382C0.506432 7.89191 0.526779 7.82421 0.559134 7.76392L3.7765 1.32918C4.03059 0.821004 4.54999 0.5 5.11814 0.5H10.8821C11.4502 0.5 11.9696 0.821004 12.2237 1.32918L15.4459 7.77362C15.4536 7.78861 15.4605 7.80404 15.4666 7.81985C15.4912 7.88339 15.5019 7.94946 15.5 8.01439V14C15.5 14.8284 14.8284 15.5 14 15.5H2C1.17157 15.5 0.5 14.8284 0.5 14L0.5 7.9992C0.5 7.99946 0.5 7.99893 0.5 7.9992C0.50001 7.98742 0.500437 7.97562 0.501289 7.96382ZM4.67093 1.77639L1.80913 7.5H4.5C4.77614 7.5 5 7.72386 5 8V11H11V8C11 7.72386 11.2239 7.5 11.5 7.5H14.1911L11.3293 1.77639C11.2446 1.607 11.0715 1.5 10.8821 1.5H5.11814C4.92876 1.5 4.75563 1.607 4.67093 1.77639ZM1.5 14C1.5 14.2761 1.72386 14.5 2 14.5H14C14.2761 14.5 14.5 14.2761 14.5 14V8.5H12V11.5C12 11.7761 11.7761 12 11.5 12H4.5C4.22386 12 4 11.7761 4 11.5V8.5H1.5V14Z" fill="#777B92"/>
</svg>
