<svg width="24" height="24" viewBox="0 0 24 24" fill="none" xmlns="http://www.w3.org/2000/svg">
<path fill-rule="evenodd" clip-rule="evenodd" d="M5 3H15C15.5523 3 16 3.44772 16 4C16 4.55228 15.5523 5 15 5H5V19H19V10C19 9.44772 19.4477 9 20 9C20.5523 9 21 9.44772 21 10V19C21 20.1046 20.1046 21 19 21H5C3.89543 21 3 20.1046 3 19V5C3 3.89543 3.89543 3 5 3Z" fill="#777B92"/>
<path fill-rule="evenodd" clip-rule="evenodd" d="M19.7474 6.66437L12.452 14.8717C11.6875 15.7318 10.3567 15.7709 9.54297 14.9572L7.29289 12.7071C6.90237 12.3166 6.90237 11.6834 7.29289 11.2929C7.68342 10.9024 8.31658 10.9024 8.70711 11.2929L10.9572 13.543L18.2526 5.33565C18.6195 4.92286 19.2516 4.88568 19.6644 5.2526C20.0771 5.61952 20.1143 6.25159 19.7474 6.66437Z" fill="#777B92"/>
</svg>
