<svg width="24" height="24" viewBox="0 0 24 24" fill="none" xmlns="http://www.w3.org/2000/svg">
<path fill-rule="evenodd" clip-rule="evenodd" d="M13.8162 2.12493L14.1798 2.40146C14.3885 2.56025 14.6513 2.63066 14.9115 2.59753L15.3646 2.53982C16.7022 2.36948 17.9891 3.11247 18.5104 4.35602L18.6869 4.77728C18.7883 5.01918 18.9807 5.21155 19.2226 5.31295L19.6439 5.48953C20.8874 6.0108 21.6304 7.2977 21.4601 8.63528L21.4024 9.0884C21.3692 9.34858 21.4396 9.61137 21.5984 9.82013L21.875 10.1837C22.6913 11.2569 22.6913 12.7429 21.875 13.8161L21.5984 14.1796C21.4396 14.3884 21.3692 14.6512 21.4024 14.9114L21.4601 15.3645C21.6304 16.7021 20.8874 17.989 19.6439 18.5102L19.2226 18.6868C18.9807 18.7882 18.7883 18.9806 18.6869 19.2225L18.5104 19.6437C17.9891 20.8873 16.7022 21.6303 15.3646 21.4599L14.9115 21.4022C14.6513 21.3691 14.3885 21.4395 14.1798 21.5983L13.8162 21.8748C12.743 22.6912 11.257 22.6912 10.1838 21.8748L9.82025 21.5983C9.61149 21.4395 9.3487 21.3691 9.08852 21.4022L8.63541 21.4599C7.29782 21.6303 6.01093 20.8873 5.48965 19.6437L5.31307 19.2225C5.21167 18.9806 5.0193 18.7882 4.77741 18.6868L4.35615 18.5102C3.11259 17.989 2.3696 16.7021 2.53995 15.3645L2.59765 14.9114C2.63079 14.6512 2.56037 14.3884 2.40158 14.1796L2.12505 13.8161C1.30874 12.7429 1.30874 11.2569 2.12505 10.1837L2.40158 9.82013C2.56037 9.61137 2.63079 9.34858 2.59765 9.0884L2.53995 8.63528C2.3696 7.2977 3.11259 6.0108 4.35615 5.48953L4.77741 5.31295C5.0193 5.21155 5.21167 5.01918 5.31307 4.77729L5.48966 4.35602C6.01093 3.11247 7.29782 2.36948 8.63541 2.53982L9.08852 2.59753C9.3487 2.63066 9.61149 2.56025 9.82025 2.40146L10.1838 2.12493C11.257 1.30862 12.743 1.30862 13.8162 2.12493ZM16.6402 8.23169C16.2159 7.87812 15.5854 7.93545 15.2318 8.35973L10.9328 13.5185L8.70711 11.2928C8.31659 10.9023 7.68342 10.9023 7.2929 11.2928C6.90238 11.6833 6.90238 12.3165 7.2929 12.707L9.51859 14.9327C10.3502 15.7643 11.7164 15.7023 12.4693 14.7989L16.7682 9.64009C17.1218 9.21582 17.0645 8.58525 16.6402 8.23169Z" fill="#777B92"/>
</svg>
