<svg width="24" height="24" viewBox="0 0 24 24" fill="none" xmlns="http://www.w3.org/2000/svg">
<path fill-rule="evenodd" clip-rule="evenodd" d="M4 12C4 16.4183 7.58172 20 12 20C16.4183 20 20 16.4183 20 12C20 11.6988 19.9834 11.4018 19.9511 11.1099C19.8904 10.5609 20.2863 10.0667 20.8352 10.0061C21.3841 9.94537 21.8783 10.3412 21.939 10.8901C21.9793 11.2549 22 11.6252 22 12C22 17.5228 17.5228 22 12 22C6.47715 22 2 17.5228 2 12C2 6.47715 6.47715 2 12 2C12.7768 2 13.528 2.1038 14.2433 2.28322C14.779 2.4176 15.1043 2.96079 14.9699 3.49648C14.8356 4.03217 14.2924 4.35749 13.7567 4.22312C13.1855 4.07984 12.598 4 12 4C7.58172 4 4 7.58172 4 12Z" fill="#777B92"/>
<path fill-rule="evenodd" clip-rule="evenodd" d="M19.7474 6.66437L12.452 14.8717C11.6875 15.7318 10.3567 15.7709 9.54297 14.9572L7.29289 12.7071C6.90237 12.3166 6.90237 11.6834 7.29289 11.2929C7.68342 10.9024 8.31658 10.9024 8.70711 11.2929L10.9572 13.543L18.2526 5.33565C18.6195 4.92286 19.2516 4.88568 19.6644 5.2526C20.0771 5.61952 20.1143 6.25159 19.7474 6.66437Z" fill="#777B92"/>
</svg>
