<svg width="16" height="16" viewBox="0 0 16 16" fill="none" xmlns="http://www.w3.org/2000/svg">
<path fill-rule="evenodd" clip-rule="evenodd" d="M5 0.5C6.933 0.5 8.5 2.067 8.5 4C8.5 5.933 6.933 7.5 5 7.5C3.067 7.5 1.5 5.933 1.5 4C1.5 2.067 3.067 0.5 5 0.5ZM2.5 4C2.5 5.38071 3.61929 6.5 5 6.5C6.38071 6.5 7.5 5.38071 7.5 4C7.5 2.61929 6.38071 1.5 5 1.5C3.61929 1.5 2.5 2.61929 2.5 4Z" fill="#777B92"/>
<path fill-rule="evenodd" clip-rule="evenodd" d="M11.5 4.5C12.6046 4.5 13.5 5.39543 13.5 6.5C13.5 7.60457 12.6046 8.5 11.5 8.5C10.3954 8.5 9.5 7.60457 9.5 6.5C9.5 5.39543 10.3954 4.5 11.5 4.5ZM10.5 6.5C10.5 7.05228 10.9477 7.5 11.5 7.5C12.0523 7.5 12.5 7.05228 12.5 6.5C12.5 5.94772 12.0523 5.5 11.5 5.5C10.9477 5.5 10.5 5.94772 10.5 6.5Z" fill="#777B92"/>
<path fill-rule="evenodd" clip-rule="evenodd" d="M10.031 10.8839C10.9491 12.0048 11.5 13.4381 11.5 15C11.5 15.2761 11.2761 15.5 11 15.5C10.7239 15.5 10.5 15.2761 10.5 15C10.5 11.9624 8.03757 9.5 5 9.5C3.59104 9.5 2.30685 10.0292 1.33346 10.9004C1.1277 11.0845 0.811601 11.067 0.627437 10.8612C0.443274 10.6555 0.460785 10.3394 0.666548 10.1552C1.81619 9.12626 3.33556 8.5 5 8.5C6.65928 8.5 8.17334 9.12173 9.32194 10.1449C9.94891 9.73707 10.6977 9.5 11.5006 9.5C13.5162 9.5 15.1828 10.9903 15.4602 12.9292C15.4993 13.2026 15.3094 13.4559 15.036 13.495C14.7626 13.5341 14.5093 13.3442 14.4702 13.0708C14.2623 11.6174 13.0116 10.5 11.5006 10.5C10.9661 10.5 10.4651 10.6394 10.031 10.8839Z" fill="#777B92"/>
</svg>
