<svg width="16" height="16" viewBox="0 0 16 16" fill="none" xmlns="http://www.w3.org/2000/svg">
<path fill-rule="evenodd" clip-rule="evenodd" d="M6.5 10C6.5 9.17157 7.17157 8.5 8 8.5C8.82843 8.5 9.5 9.17157 9.5 10C9.5 10.8284 8.82843 11.5 8 11.5C7.17157 11.5 6.5 10.8284 6.5 10ZM8 9.5C7.72386 9.5 7.5 9.72386 7.5 10C7.5 10.2761 7.72386 10.5 8 10.5C8.27614 10.5 8.5 10.2761 8.5 10C8.5 9.72386 8.27614 9.5 8 9.5Z" fill="#777B92"/>
<path fill-rule="evenodd" clip-rule="evenodd" d="M8 1.5C9.38071 1.5 10.5 2.61929 10.5 4V4.5C10.5 4.77614 10.2761 5 10 5C9.72386 5 9.5 4.77614 9.5 4.5V4C9.5 3.17157 8.82843 2.5 8 2.5C7.17157 2.5 6.5 3.17157 6.5 4V5.5H12C12.8284 5.5 13.5 6.17157 13.5 7V13C13.5 13.8284 12.8284 14.5 12 14.5H4C3.17157 14.5 2.5 13.8284 2.5 13V7C2.5 6.17157 3.17157 5.5 4 5.5H5.5V4C5.5 2.61929 6.61929 1.5 8 1.5ZM4 6.5C3.72386 6.5 3.5 6.72386 3.5 7V13C3.5 13.2761 3.72386 13.5 4 13.5H12C12.2761 13.5 12.5 13.2761 12.5 13V7C12.5 6.72386 12.2761 6.5 12 6.5H4Z" fill="#777B92"/>
</svg>
