<svg width="16" height="16" viewBox="0 0 16 16" fill="none" xmlns="http://www.w3.org/2000/svg">
<path fill-rule="evenodd" clip-rule="evenodd" d="M3.5 4C3.5 2.067 5.067 0.5 7 0.5C8.933 0.5 10.5 2.067 10.5 4C10.5 5.933 8.933 7.5 7 7.5C5.067 7.5 3.5 5.933 3.5 4ZM7 1.5C5.61929 1.5 4.5 2.61929 4.5 4C4.5 5.38071 5.61929 6.5 7 6.5C8.38071 6.5 9.5 5.38071 9.5 4C9.5 2.61929 8.38071 1.5 7 1.5Z" fill="#777B92"/>
<path fill-rule="evenodd" clip-rule="evenodd" d="M11.8408 2.04798L11.6464 1.85355C11.4511 1.65829 11.4511 1.34171 11.6464 1.14644C11.8416 0.951182 12.1582 0.951182 12.3535 1.14644L12.7311 1.52404C12.8183 1.50825 12.9082 1.5 13 1.5C13.0918 1.5 13.1816 1.50824 13.2688 1.52401L13.6464 1.14645C13.8416 0.951187 14.1582 0.951187 14.3535 1.14645C14.5487 1.34171 14.5487 1.65829 14.3535 1.85356L14.1591 2.04788C14.2688 2.18127 14.3559 2.33392 14.4146 2.5H14.5C14.7761 2.5 15 2.72386 15 3C15 3.27614 14.7761 3.5 14.5 3.5H14.4146C14.356 3.66604 14.2689 3.81867 14.1592 3.95204L14.3536 4.14641C14.5488 4.34168 14.5488 4.65826 14.3536 4.85352C14.1583 5.04878 13.8417 5.04878 13.6465 4.85352L13.2689 4.47596C13.1817 4.49175 13.0918 4.5 13 4.5C12.9082 4.5 12.8183 4.49175 12.7311 4.47596L12.3535 4.85356C12.1582 5.04882 11.8416 5.04882 11.6464 4.85356C11.4511 4.65829 11.4511 4.34171 11.6464 4.14645L11.8408 3.95202C11.7311 3.81866 11.644 3.66604 11.5854 3.5H11.5C11.2239 3.5 11 3.27614 11 3C11 2.72386 11.2239 2.5 11.5 2.5H11.5854C11.644 2.33396 11.7311 2.18134 11.8408 2.04798ZM13 3.5C13.2761 3.5 13.5 3.27614 13.5 3C13.5 2.72386 13.2761 2.5 13 2.5C12.7239 2.5 12.5 2.72386 12.5 3C12.5 3.27614 12.7239 3.5 13 3.5Z" fill="#777B92"/>
<path fill-rule="evenodd" clip-rule="evenodd" d="M1.5 15C1.5 15.2761 1.27614 15.5 1 15.5C0.723858 15.5 0.5 15.2761 0.5 15C0.5 11.4101 3.41015 8.5 7 8.5C10.5899 8.5 13.5 11.4101 13.5 15C13.5 15.2761 13.2761 15.5 13 15.5C12.7239 15.5 12.5 15.2761 12.5 15C12.5 11.9624 10.0376 9.5 7 9.5C3.96243 9.5 1.5 11.9624 1.5 15Z" fill="#777B92"/>
</svg>
