<svg width="16" height="16" viewBox="0 0 16 16" fill="none" xmlns="http://www.w3.org/2000/svg">
<path fill-rule="evenodd" clip-rule="evenodd" d="M13 0.5H14C14.8284 0.5 15.5 1.17157 15.5 2V14C15.5 14.8284 14.8284 15.5 14 15.5H13C12.7239 15.5 12.5 15.2761 12.5 15C12.5 14.7239 12.7239 14.5 13 14.5H14C14.2761 14.5 14.5 14.2761 14.5 14V2C14.5 1.72386 14.2761 1.5 14 1.5H13C12.7239 1.5 12.5 1.27614 12.5 1C12.5 0.723858 12.7239 0.5 13 0.5Z" fill="#777B92"/>
<path fill-rule="evenodd" clip-rule="evenodd" d="M4.4 4.3L2 7.5H11C11.2761 7.5 11.5 7.72386 11.5 8C11.5 8.27614 11.2761 8.5 11 8.5H2L4.4 11.7C4.56569 11.9209 4.52091 12.2343 4.3 12.4C4.07909 12.5657 3.76569 12.5209 3.6 12.3L0.6 8.3C0.466667 8.12222 0.466667 7.87778 0.6 7.7L3.6 3.7C3.76569 3.47908 4.07909 3.43431 4.3 3.6C4.52091 3.76568 4.56569 4.07909 4.4 4.3Z" fill="#777B92"/>
</svg>
