<svg width="22" height="22" viewBox="0 0 22 22" fill="none" xmlns="http://www.w3.org/2000/svg">
<path d="M14.4457 3.1287C15.4589 3.86287 16.2219 4.90015 16.6287 6.09623C17.5358 6.21071 18.3944 6.57674 19.1108 7.15431C19.8271 7.73188 20.3737 8.49875 20.6906 9.37109C21.0076 10.2434 21.0828 11.1876 20.908 12.1005C20.7331 13.0134 20.3151 13.8598 19.6994 14.5472C19.606 14.6554 19.491 14.7422 19.3621 14.8016C19.2331 14.8611 19.0932 14.892 18.9517 14.8922C18.7093 14.8918 18.4754 14.8016 18.2937 14.6385C18.1941 14.5504 18.1128 14.443 18.0543 14.3227C17.9958 14.2023 17.9614 14.0713 17.9531 13.9373C17.9447 13.8033 17.9626 13.6689 18.0057 13.542C18.0487 13.4151 18.1161 13.2981 18.204 13.1979C18.5897 12.7591 18.842 12.2158 18.9305 11.634C19.0189 11.0522 18.9396 10.4567 18.7022 9.91984C18.4647 9.38295 18.0794 8.92766 17.5928 8.60913C17.1062 8.29061 16.5393 8.12254 15.9608 8.12528H15.901C15.6677 8.13006 15.4402 8.05147 15.2581 7.90317C15.0759 7.75487 14.9506 7.54626 14.904 7.31366C14.7209 6.39629 14.2318 5.57153 13.5196 4.97913C12.8074 4.38673 11.9158 4.06311 10.9959 4.06311C10.076 4.06311 9.18437 4.38673 8.47213 4.97913C7.75988 5.57153 7.2708 6.39629 7.08774 7.31366C7.04113 7.54626 6.91584 7.75487 6.73368 7.90317C6.55151 8.05147 6.32401 8.13006 6.09077 8.12528H5.99107C5.41252 8.12254 4.8456 8.29061 4.35903 8.60913C3.87245 8.92766 3.4871 9.38295 3.24968 9.91984C3.01226 10.4567 2.93296 11.0522 3.02139 11.634C3.10982 12.2158 3.36218 12.7591 3.74789 13.1979C3.86167 13.2919 3.95367 13.4103 4.01736 13.5446C4.08105 13.679 4.11484 13.8259 4.11635 13.9751C4.11785 14.1242 4.08702 14.2718 4.02606 14.4075C3.9651 14.5431 3.8755 14.6634 3.76364 14.7598C3.65179 14.8561 3.52043 14.9262 3.37891 14.965C3.2374 15.0039 3.08922 15.0104 2.94492 14.9843C2.80062 14.9582 2.66375 14.9001 2.54406 14.814C2.42437 14.7279 2.3248 14.6161 2.25244 14.4864C1.6534 13.7978 1.24959 12.9564 1.08419 12.0523C0.9188 11.1482 0.998046 10.2154 1.31346 9.35355C1.62887 8.49174 2.16857 7.7334 2.87484 7.15964C3.58112 6.58589 4.42738 6.21831 5.3231 6.09623C5.72991 4.90015 6.49298 3.86287 7.50613 3.1287C8.51929 2.39453 9.73214 2 10.9759 2C12.2197 2 13.4326 2.39453 14.4457 3.1287Z" fill="#97A3BA"/>
<path d="M11.9683 16.64L13.2689 15.38C13.3603 15.2777 13.4716 15.1955 13.5959 15.1385C13.7202 15.0815 13.8549 15.051 13.9914 15.0488C14.128 15.0466 14.2635 15.0729 14.3896 15.1258C14.5156 15.1788 14.6295 15.2574 14.724 15.3568C14.8185 15.4561 14.8916 15.574 14.9388 15.7031C14.986 15.8322 15.0063 15.9697 14.9983 16.107C14.9903 16.2444 14.9543 16.3786 14.8925 16.5012C14.8307 16.6239 14.7444 16.7324 14.6391 16.82L11.6605 19.72C11.4765 19.8987 11.2311 19.999 10.9755 20C10.8448 20.0007 10.7153 19.9755 10.5943 19.9258C10.4733 19.876 10.3633 19.8027 10.2705 19.71L7.29199 16.71C7.19942 16.6167 7.12598 16.5061 7.07588 16.3842C7.02579 16.2624 7 16.1318 7 16C7 15.8681 7.02579 15.7376 7.07588 15.6157C7.12598 15.4939 7.19942 15.3832 7.29199 15.29C7.38456 15.1968 7.49446 15.1228 7.61541 15.0723C7.73636 15.0219 7.86599 14.9959 7.99691 14.9959C8.12783 14.9959 8.25746 15.0219 8.37841 15.0723C8.49936 15.1228 8.60926 15.1968 8.70183 15.29L9.9826 16.59V11C9.9826 10.7348 10.0872 10.4804 10.2734 10.2929C10.4596 10.1054 10.7121 10 10.9755 10C11.2388 10 11.4913 10.1054 11.6775 10.2929C11.8637 10.4804 11.9683 10.7348 11.9683 11V16.64Z" fill="#97A3BA"/>
</svg>
