<svg width="22" height="22" viewBox="0 0 22 22" fill="none" xmlns="http://www.w3.org/2000/svg">
<path d="M14.4457 3.1287C15.4589 3.86287 16.2219 4.90015 16.6287 6.09623C17.5358 6.21071 18.3944 6.57674 19.1108 7.15431C19.8271 7.73188 20.3737 8.49875 20.6906 9.37109C21.0076 10.2434 21.0828 11.1876 20.908 12.1005C20.7331 13.0134 20.3151 13.8598 19.6994 14.5472C19.606 14.6554 19.491 14.7422 19.3621 14.8016C19.2331 14.8611 19.0932 14.892 18.9517 14.8922C18.7093 14.8918 18.4754 14.8016 18.2937 14.6385C18.1941 14.5504 18.1128 14.443 18.0543 14.3227C17.9958 14.2023 17.9614 14.0713 17.9531 13.9373C17.9447 13.8033 17.9626 13.6689 18.0057 13.542C18.0487 13.4151 18.1161 13.2981 18.204 13.1979C18.5897 12.7591 18.842 12.2158 18.9305 11.634C19.0189 11.0522 18.9396 10.4567 18.7022 9.91984C18.4647 9.38295 18.0794 8.92766 17.5928 8.60913C17.1062 8.29061 16.5393 8.12254 15.9608 8.12528H15.901C15.6677 8.13006 15.4402 8.05147 15.2581 7.90317C15.0759 7.75487 14.9506 7.54626 14.904 7.31366C14.7209 6.39629 14.2318 5.57153 13.5196 4.97913C12.8074 4.38673 11.9158 4.06311 10.9959 4.06311C10.076 4.06311 9.18437 4.38673 8.47213 4.97913C7.75988 5.57153 7.2708 6.39629 7.08774 7.31366C7.04113 7.54626 6.91584 7.75487 6.73368 7.90317C6.55151 8.05147 6.32401 8.13006 6.09077 8.12528H5.99107C5.41252 8.12254 4.8456 8.29061 4.35903 8.60913C3.87245 8.92766 3.4871 9.38295 3.24968 9.91984C3.01226 10.4567 2.93296 11.0522 3.02139 11.634C3.10982 12.2158 3.36218 12.7591 3.74789 13.1979C3.86167 13.2919 3.95367 13.4103 4.01736 13.5446C4.08105 13.679 4.11484 13.8259 4.11635 13.9751C4.11785 14.1242 4.08702 14.2718 4.02606 14.4075C3.9651 14.5431 3.8755 14.6634 3.76364 14.7598C3.65179 14.8561 3.52043 14.9262 3.37891 14.965C3.2374 15.0039 3.08922 15.0104 2.94492 14.9843C2.80062 14.9582 2.66375 14.9001 2.54406 14.814C2.42437 14.7279 2.3248 14.6161 2.25244 14.4864C1.6534 13.7978 1.24959 12.9564 1.08419 12.0523C0.9188 11.1482 0.998046 10.2154 1.31346 9.35355C1.62887 8.49174 2.16857 7.7334 2.87484 7.15964C3.58112 6.58589 4.42738 6.21831 5.3231 6.09623C5.72991 4.90015 6.49298 3.86287 7.50613 3.1287C8.51929 2.39453 9.73214 2 10.9759 2C12.2197 2 13.4326 2.39453 14.4457 3.1287Z" fill="#97A3BA"/>
<path d="M11.0336 10C11.2934 10 11.5429 10.1027 11.7285 10.286L14.7064 13.2872C14.7994 13.3802 14.8733 13.4909 14.9237 13.6128C14.9741 13.7347 15 13.8654 15 13.9975C15 14.1296 14.9741 14.2603 14.9237 14.3822C14.8733 14.5042 14.7994 14.6148 14.7064 14.7078C14.6141 14.8016 14.5043 14.876 14.3834 14.9268C14.2624 14.9776 14.1326 15.0037 14.0016 15.0037C13.8706 15.0037 13.7408 14.9776 13.6199 14.9268C13.4989 14.876 13.3891 14.8016 13.2968 14.7078L12.0163 13.4073V18.9996C12.0163 19.2649 11.9118 19.5194 11.7256 19.707C11.5394 19.8946 11.287 20 11.0237 20C10.7604 20 10.508 19.8946 10.3218 19.707C10.1356 19.5194 10.0311 19.2649 10.0311 18.9996V13.3572L8.73071 14.6278C8.63939 14.7301 8.52811 14.8123 8.40382 14.8694C8.27953 14.9264 8.1449 14.9569 8.00836 14.9591C7.87182 14.9613 7.7363 14.935 7.61028 14.882C7.48426 14.829 7.37045 14.7504 7.27596 14.651C7.18148 14.5516 7.10835 14.4337 7.06116 14.3045C7.01397 14.1754 6.99372 14.0378 7.00169 13.9004C7.00966 13.763 7.04567 13.6288 7.10747 13.5061C7.16928 13.3833 7.25554 13.2748 7.36087 13.1872L10.3388 10.286C10.5243 10.1027 10.7738 10 11.0336 10Z" fill="#97A3BA"/>
</svg>
