<svg width="22" height="22" viewBox="0 0 22 22" fill="none" xmlns="http://www.w3.org/2000/svg">
<path d="M12.2533 9H18V13H16.2482L19.3212 16.0769L19.3247 16.0804L20 16.7509V3C20 1.89543 19.1046 1 18 1H4.14921C4.32598 1.10127 4.4889 1.22575 4.63351 1.37044L6.26099 3H18V7H10.2559L12.2533 9Z" fill="#97A3BA"/>
<path d="M2 5.26748V19C2 20.1046 2.89543 21 4 21H17.8503C17.6723 20.8978 17.5084 20.772 17.3632 20.6258L17.362 20.6246L15.7444 19H4V15H11.7476L9.74668 13H4V9H5.74477L5.36991 8.62533L3.61551 6.92003L2 5.26748Z" fill="#97A3BA"/>
<path d="M7 10C6.44772 10 6 10.4477 6 11C6 11.5523 6.44772 12 7 12C7.55228 12 8 11.5523 8 11C8 10.4477 7.55228 10 7 10Z" fill="#97A3BA"/>
<path d="M7 16C6.44772 16 6 16.4477 6 17C6 17.5523 6.44772 18 7 18C7.55228 18 8 17.5523 8 17C8 16.4477 7.55228 16 7 16Z" fill="#97A3BA"/>
<path d="M18.4053 16.9992L19.7045 18.2892C19.7982 18.3822 19.8725 18.4928 19.9233 18.6146C19.974 18.7365 20.0001 18.8672 20.0001 18.9992C20.0001 19.1312 19.974 19.2619 19.9233 19.3838C19.8725 19.5056 19.7982 19.6162 19.7045 19.7092C19.6116 19.8029 19.5011 19.8773 19.3793 19.9281C19.2575 19.9789 19.1269 20.005 18.9949 20.005C18.863 20.005 18.7324 19.9789 18.6106 19.9281C18.4888 19.8773 18.3783 19.8029 18.2853 19.7092L15.587 16.9992L6.28251 7.69921L4.53356 5.99921L2.29489 3.70921C2.1067 3.52091 2.00098 3.26551 2.00098 2.99921C2.00098 2.73291 2.1067 2.47751 2.29489 2.28921C2.38808 2.19597 2.4987 2.12201 2.62045 2.07155C2.7422 2.02109 2.87269 1.99512 3.00447 1.99512C3.13625 1.99512 3.26674 2.02109 3.38849 2.07155C3.51024 2.12201 3.62086 2.19597 3.71405 2.28921L18.4053 16.9992Z" fill="#97A3BA"/>
</svg>
