<svg width="22" height="22" viewBox="0 0 22 22" fill="none" xmlns="http://www.w3.org/2000/svg">
<path d="M7 4C6.44772 4 6 4.44772 6 5C6 5.55228 6.44772 6 7 6C7.55228 6 8 5.55228 8 5C8 4.44772 7.55228 4 7 4Z" fill="#97A3BA"/>
<path d="M6 11C6 10.4477 6.44772 10 7 10C7.55228 10 8 10.4477 8 11C8 11.5523 7.55228 12 7 12C6.44772 12 6 11.5523 6 11Z" fill="#97A3BA"/>
<path fill-rule="evenodd" clip-rule="evenodd" d="M4 1C2.89543 1 2 1.89543 2 3V13C2 14.1046 2.89543 15 4 15H18C19.1046 15 20 14.1046 20 13V3C20 1.89543 19.1046 1 18 1H4ZM18 3H4V7H18V3ZM18 9H4V13H18V9Z" fill="#97A3BA"/>
<path d="M1 20C1 19.4477 1.44772 19 2 19H20C20.5523 19 21 19.4477 21 20C21 20.5523 20.5523 21 20 21H2C1.44772 21 1 20.5523 1 20Z" fill="#97A3BA"/>
<path d="M11 16C10.4477 16 10 16.4477 10 17C10 17.5523 10.4477 18 11 18C11.5523 18 12 17.5523 12 17C12 16.4477 11.5523 16 11 16Z" fill="#97A3BA"/>
</svg>
