<svg width="24" height="24" viewBox="0 0 24 24" fill="none" xmlns="http://www.w3.org/2000/svg">
<path fill-rule="evenodd" clip-rule="evenodd" d="M3 8C3 6.3126 4.34191 5.05416 5.89593 4.27715C7.50977 3.47023 9.66928 3 12 3C14.3307 3 16.4902 3.47023 18.1041 4.27715C19.6581 5.05416 21 6.3126 21 8C21 8.75427 20.7319 9.42283 20.2965 10.001C20.7265 10.5758 21 11.2477 21 12C21 12.7543 20.7319 13.4228 20.2965 14.001C20.7265 14.5758 21 15.2477 21 16C21 17.6874 19.6581 18.9459 18.1041 19.7229C16.4902 20.5298 14.3307 21 12 21C9.66928 21 7.50977 20.5298 5.89593 19.7229C4.34191 18.9459 3 17.6874 3 16C3 15.2477 3.27354 14.5758 3.70347 14.001C3.26812 13.4228 3 12.7543 3 12C3 11.2477 3.27354 10.5758 3.70347 10.001C3.26813 9.42283 3 8.75427 3 8ZM6.79036 6.066C5.44895 6.73671 5 7.47826 5 8C5 8.33795 5.18836 8.76811 5.6856 9.21152C5.71165 9.2319 5.73689 9.25373 5.76119 9.277C6.02234 9.4969 6.36054 9.71909 6.79036 9.934C8.07196 10.5748 9.91244 11 12 11C14.0876 11 15.928 10.5748 17.2096 9.934C17.6395 9.71909 17.9777 9.4969 18.2388 9.277C18.2631 9.25373 18.2883 9.2319 18.3144 9.21152C18.8116 8.76812 19 8.33795 19 8C19 7.47826 18.5511 6.73671 17.2096 6.066C15.928 5.4252 14.0876 5 12 5C9.91244 5 8.07196 5.4252 6.79036 6.066ZM18.3146 13.2114C18.8117 12.768 19 12.3379 19 12C19 11.804 18.9414 11.5804 18.7907 11.3375C18.5693 11.4768 18.3391 11.6053 18.1041 11.7229C16.4902 12.5298 14.3307 13 12 13C9.66928 13 7.50977 12.5298 5.89593 11.7229C5.66091 11.6053 5.43073 11.4768 5.20932 11.3375C5.05857 11.5804 5 11.804 5 12C5 12.3379 5.18831 12.768 5.68541 13.2114C5.71158 13.2318 5.73693 13.2538 5.76134 13.2771C6.02247 13.497 6.36061 13.7191 6.79036 13.934C8.07196 14.5748 9.91244 15 12 15C14.0876 15 15.928 14.5748 17.2096 13.934C17.6394 13.7191 17.9775 13.497 18.2387 13.2771C18.2631 13.2538 18.2884 13.2318 18.3146 13.2114ZM5.20931 15.3375C5.05856 15.5804 5 15.804 5 16C5 16.5218 5.44895 17.2633 6.79036 17.934C8.07196 18.5748 9.91244 19 12 19C14.0876 19 15.928 18.5748 17.2096 17.934C18.5511 17.2633 19 16.5218 19 16C19 15.804 18.9414 15.5804 18.7907 15.3375C18.5693 15.4768 18.3391 15.6054 18.1041 15.7229C16.4902 16.5298 14.3307 17 12 17C9.66928 17 7.50977 16.5298 5.89593 15.7229C5.6609 15.6054 5.43073 15.4768 5.20931 15.3375Z" fill="#777B92"/>
</svg>
