<svg width="22" height="22" viewBox="0 0 22 22" fill="none" xmlns="http://www.w3.org/2000/svg">
<path d="M2 5.26748V13C2 14.1046 2.89543 15 4 15H11.7476L9.74668 13H4V9H5.74477L5.36991 8.62533L3.61551 6.92003L2 5.26748Z" fill="#97A3BA"/>
<path d="M10.2559 7L12.2533 9H18V13H16.2482L18.2323 14.9867C19.2274 14.8715 20 14.026 20 13V3C20 1.89543 19.1046 1 18 1H4.14921C4.32598 1.10127 4.4889 1.22575 4.63351 1.37044L6.26099 3H18V7H10.2559Z" fill="#97A3BA"/>
<path d="M7 10C6.44772 10 6 10.4477 6 11C6 11.5523 6.44772 12 7 12C7.55228 12 8 11.5523 8 11C8 10.4477 7.55228 10 7 10Z" fill="#97A3BA"/>
<path d="M11 16C10.4477 16 10 16.4477 10 17C10 17.5523 10.4477 18 11 18C11.5523 18 12 17.5523 12 17C12 16.4477 11.5523 16 11 16Z" fill="#97A3BA"/>
<path d="M15.7444 18.9995H2C1.44772 18.9995 1 19.4472 1 19.9995C1 20.5518 1.44772 20.9995 2 20.9995H17.8503C17.6723 20.8973 17.5084 20.7715 17.3632 20.6253L17.362 20.6241L15.7444 18.9995Z" fill="#97A3BA"/>
<path d="M18.4053 16.9992L19.7045 18.2892C19.7982 18.3822 19.8725 18.4928 19.9233 18.6146C19.974 18.7365 20.0001 18.8672 20.0001 18.9992C20.0001 19.1312 19.974 19.2619 19.9233 19.3838C19.8725 19.5056 19.7982 19.6162 19.7045 19.7092C19.6116 19.8029 19.5011 19.8773 19.3793 19.9281C19.2575 19.9789 19.1269 20.005 18.9949 20.005C18.863 20.005 18.7324 19.9789 18.6106 19.9281C18.4888 19.8773 18.3783 19.8029 18.2853 19.7092L15.587 16.9992L6.28251 7.69921L4.53356 5.99921L2.29489 3.70921C2.1067 3.52091 2.00098 3.26551 2.00098 2.99921C2.00098 2.73291 2.1067 2.47751 2.29489 2.28921C2.38808 2.19597 2.4987 2.12201 2.62045 2.07155C2.7422 2.02109 2.87269 1.99512 3.00447 1.99512C3.13625 1.99512 3.26674 2.02109 3.38849 2.07155C3.51024 2.12201 3.62086 2.19597 3.71405 2.28921L18.4053 16.9992Z" fill="#97A3BA"/>
</svg>
