<svg width="22" height="22" viewBox="0 0 22 22" fill="none" xmlns="http://www.w3.org/2000/svg">
<path d="M13 18.5C13 18.9723 13.0728 19.4277 13.2077 19.8554C12.4986 19.9503 11.7584 20 11 20C8.66854 20 6.509 19.53 4.89529 18.7232C3.34113 17.9461 2 16.6876 2 15C2 14.2454 2.27905 13.5767 2.70722 13.0066C2.26964 12.4271 2 11.7567 2 11C2 10.2453 2.27915 9.57643 2.70745 9.00627C2.26976 8.4269 2 7.75656 2 7C2 5.3126 3.34191 4.05416 4.89593 3.27715C6.50977 2.47023 8.66928 2 11 2C11.7583 2 12.4985 2.04978 13.2077 2.14473C13.0728 2.57243 13 3.02772 13 3.5V4.13485C12.3687 4.04756 11.6982 4 11 4C8.91244 4 7.07196 4.4252 5.79036 5.066C4.44895 5.73671 4 6.47826 4 7C4 7.52174 4.44895 8.26329 5.79036 8.934C7.07196 9.5748 8.91244 10 11 10C11.6982 10 12.3687 9.95244 13 9.86515L13 11.8817C12.3544 11.9594 11.6846 12 11 12C8.66928 12 6.50977 11.5298 4.89593 10.7229C4.66251 10.6061 4.43387 10.4786 4.21384 10.3403C4.05961 10.5849 4 10.8071 4 11C4 11.5224 4.44887 12.2639 5.78971 12.9343C7.071 13.575 8.91146 14 11 14C11.6983 14 12.3688 13.9525 13 13.8653V15.8818C12.3545 15.9595 11.6846 16 11 16C8.66854 16 6.509 15.53 4.89529 14.7232C4.66196 14.6065 4.43343 14.479 4.21352 14.3408C4.05953 14.5852 4 14.8072 4 15C4 15.5224 4.44887 16.2639 5.78971 16.9343C7.071 17.575 8.91146 18 11 18C11.6983 18 12.3688 17.9525 13 17.8653V18.5Z" fill="#97A3BA"/>
<path d="M19.5729 21.2088C19.7991 21.2088 19.9798 21.0942 20.0902 20.9074L20.0929 20.9027C20.2786 20.575 20.3699 20.2132 20.3699 19.8238C20.3699 19.3427 20.2215 18.9234 19.9113 18.5903C19.571 18.2251 19.0342 18.0818 18.3899 18.0818H15.4009C15.232 18.0818 15.0808 18.1467 14.9647 18.2676C14.8438 18.3837 14.7789 18.5349 14.7789 18.7038C14.7789 18.8746 14.8452 19.0273 14.9687 19.1439C15.0871 19.2603 15.2375 19.3188 15.4009 19.3188H18.4319C18.8156 19.3188 18.9745 19.399 19.0292 19.459L19.0322 19.4622C19.1149 19.5502 19.1679 19.6745 19.1679 19.8658C19.1679 20.0361 19.1285 20.2085 19.0441 20.3856C19.0033 20.4684 18.9859 20.5561 18.9859 20.6428C18.9859 20.8106 19.0552 20.9596 19.1831 21.0678L19.1848 21.0693C19.2962 21.1621 19.4299 21.2088 19.5729 21.2088Z" fill="#97A3BA"/>
<path d="M18.3778 15.0066C18.3266 15.1476 18.264 15.3564 18.1902 15.6376C18.0908 16.0209 17.9944 16.3381 17.9003 16.5856L17.8984 16.5905C17.7888 16.8647 17.6257 17.1028 17.4104 17.3015C17.1611 17.5316 16.8398 17.6331 16.4789 17.6331C16.1575 17.6331 15.8603 17.5477 15.5952 17.3752C15.3219 17.2003 15.1146 16.9484 14.9684 16.6347C14.8147 16.3105 14.7439 15.9357 14.7439 15.5201C14.7439 14.9773 14.8253 14.4774 14.9931 14.0243C15.0328 13.914 15.1006 13.8094 15.2079 13.7343C15.3155 13.659 15.4376 13.6311 15.5549 13.6311C15.7053 13.6311 15.8406 13.6851 15.9517 13.7791C16.084 13.891 16.1489 14.0446 16.1489 14.2111C16.1489 14.2929 16.1249 14.3695 16.1023 14.4272C15.9887 14.7576 15.9319 15.0981 15.9319 15.4501C15.9319 15.7822 15.9951 16.0246 16.0984 16.1975C16.188 16.3432 16.2905 16.3961 16.4299 16.3961C16.5246 16.3961 16.5823 16.3695 16.6266 16.3271C16.6966 16.2492 16.7572 16.1494 16.8049 16.0222C16.8562 15.8677 16.9138 15.6534 16.9775 15.376L16.9782 15.3729C17.0684 14.9979 17.1608 14.6868 17.2566 14.4446C17.363 14.1706 17.5294 13.9364 17.753 13.7458C18.008 13.5235 18.3366 13.4281 18.7049 13.4281C19.0276 13.4281 19.3242 13.5216 19.5858 13.7076L19.5883 13.7094C19.8438 13.8952 20.0359 14.1513 20.1704 14.4633C20.3062 14.7783 20.3699 15.1327 20.3699 15.5201C20.3699 16.151 20.2505 16.7466 20.0099 17.3036C19.9644 17.4118 19.8915 17.501 19.7983 17.5687L19.7883 17.5757C19.6886 17.6421 19.5732 17.6821 19.4469 17.6821C19.2962 17.6821 19.1551 17.6307 19.0412 17.5262L19.0404 17.5255C18.917 17.4116 18.8529 17.2611 18.8529 17.0951C18.8529 17.0071 18.8709 16.9209 18.9069 16.84C19.0804 16.4507 19.1679 16.0328 19.1679 15.5831C19.1679 15.1981 19.1029 14.9614 19.0159 14.8291C18.9434 14.7187 18.842 14.6581 18.6629 14.6581C18.6113 14.6581 18.5767 14.6729 18.5393 14.7159L18.5349 14.7209C18.474 14.7878 18.4209 14.8779 18.3805 14.9989L18.3778 15.0066Z" fill="#97A3BA"/>
<path fill-rule="evenodd" clip-rule="evenodd" d="M16.1142 12.9906C16.5395 13.2163 17.0209 13.3304 17.5512 13.3405H17.5626C18.0928 13.3304 18.5743 13.2163 18.9996 12.9906C19.4268 12.7638 19.7643 12.4397 20.0071 12.0226C20.2523 11.6016 20.3699 11.1186 20.3699 10.5836C20.3699 10.049 20.2524 9.56785 20.0067 9.15092C19.764 8.73429 19.4268 8.41055 19.0001 8.1839C18.571 7.95378 18.0896 7.83656 17.5627 7.82643L17.5511 7.82665C17.0248 7.83677 16.5456 7.95354 16.1207 8.18391C15.6899 8.41025 15.3501 8.7338 15.1071 9.15093C14.8614 9.56786 14.7439 10.049 14.7439 10.5836C14.7439 11.1186 14.8615 11.6016 15.1066 12.0226C15.3495 12.4397 15.687 12.7638 16.1142 12.9906ZM18.9668 9.76685C19.1018 9.98812 19.1749 10.2566 19.1749 10.5836C19.1749 10.9156 19.1017 11.1858 18.9674 11.4063C18.8292 11.6286 18.6429 11.7982 18.4027 11.9183C18.16 12.0396 17.8802 12.1036 17.5569 12.1036C17.2336 12.1036 16.9538 12.0396 16.7111 11.9183C16.4709 11.7982 16.2846 11.6286 16.1464 11.4063C16.0121 11.1858 15.9389 10.9156 15.9389 10.5836C15.9389 10.2566 16.012 9.98812 16.147 9.76685C16.2856 9.53973 16.4719 9.36849 16.7111 9.24892C16.9538 9.12757 17.2336 9.06359 17.5569 9.06359C17.8802 9.06359 18.16 9.12757 18.4027 9.24892C18.6419 9.36849 18.8282 9.53973 18.9668 9.76685Z" fill="#97A3BA"/>
<path d="M18.2207 3.73993L15.4009 3.73993C15.2375 3.73993 15.0871 3.68137 14.9687 3.56497C14.8452 3.44837 14.7789 3.29568 14.7789 3.12493C14.7789 2.95604 14.8438 2.80482 14.9647 2.68872C15.0808 2.56782 15.232 2.50293 15.4009 2.50293L19.5799 2.50293C19.7888 2.50293 19.9732 2.58382 20.1168 2.73355C20.2602 2.87835 20.3349 3.06109 20.3349 3.26493V3.34893C20.3349 3.47043 20.3071 3.6015 20.2464 3.70777C20.1903 3.80597 20.1171 3.89156 20.0259 3.95993L16.8933 6.12893H19.7199C19.8907 6.12893 20.0433 6.19527 20.1599 6.31875C20.2763 6.43715 20.3349 6.5875 20.3349 6.75093C20.3349 6.91619 20.275 7.06806 20.156 7.18706C20.037 7.30606 19.8852 7.36593 19.7199 7.36593H15.5409C15.337 7.36593 15.1543 7.29123 15.0095 7.14777C14.8598 7.00423 14.7789 6.81987 14.7789 6.61093V6.51993C14.7789 6.25977 14.9074 6.04937 15.1064 5.89685L18.2207 3.73993Z" fill="#97A3BA"/>
</svg>
