<svg width="22" height="22" viewBox="0 0 22 22" fill="none" xmlns="http://www.w3.org/2000/svg">
<path d="M6 11C6 10.4477 6.44772 10 7 10C7.55228 10 8 10.4477 8 11C8 11.5523 7.55228 12 7 12C6.44772 12 6 11.5523 6 11Z" fill="#97A3BA"/>
<path d="M7 16C6.44772 16 6 16.4477 6 17C6 17.5523 6.44772 18 7 18C7.55228 18 8 17.5523 8 17C8 16.4477 7.55228 16 7 16Z" fill="#97A3BA"/>
<path d="M7 4C6.44772 4 6 4.44772 6 5C6 5.55228 6.44772 6 7 6C7.55228 6 8 5.55228 8 5C8 4.44772 7.55228 4 7 4Z" fill="#97A3BA"/>
<path fill-rule="evenodd" clip-rule="evenodd" d="M4 1C2.89543 1 2 1.89543 2 3V19C2 20.1046 2.89543 21 4 21H18C19.1046 21 20 20.1046 20 19V3C20 1.89543 19.1046 1 18 1H4ZM18 13V9H4V13H18ZM18 15H4V19H18V15ZM18 7H4V3H18V7Z" fill="#97A3BA"/>
</svg>
