<svg width="22" height="22" viewBox="0 0 22 22" fill="none" xmlns="http://www.w3.org/2000/svg">
<path fill-rule="evenodd" clip-rule="evenodd" d="M4 2C2.89543 2 2 2.89543 2 4V8C2 9.10457 2.89543 10 4 10H10C11.1046 10 12 9.10457 12 8V4C12 2.89543 11.1046 2 10 2H4ZM10 4H4L4 8H10V4Z" fill="#97A3BA"/>
<path fill-rule="evenodd" clip-rule="evenodd" d="M12 12C10.8954 12 10 12.8954 10 14V18C10 19.1046 10.8954 20 12 20H18C19.1046 20 20 19.1046 20 18V14C20 12.8954 19.1046 12 18 12H12ZM18 14H12V18H18V14Z" fill="#97A3BA"/>
<path d="M2 13V14H4V13C4 12.4477 3.55228 12 3 12C2.44772 12 2 12.4477 2 13Z" fill="#97A3BA"/>
<path d="M3 18H4V16H2V17C2 17.5523 2.44772 18 3 18Z" fill="#97A3BA"/>
<path d="M7 18C7.55228 18 8 17.5523 8 17C8 16.4477 7.55228 16 7 16H6V18H7Z" fill="#97A3BA"/>
</svg>
