<svg width="22" height="22" viewBox="0 0 22 22" fill="none" xmlns="http://www.w3.org/2000/svg">
<path fill-rule="evenodd" clip-rule="evenodd" d="M7 3C7 1.89543 7.89543 1 9 1H13C14.1046 1 15 1.89543 15 3V6C15 7.10457 14.1046 8 13 8H12V10H18V14H19C20.1046 14 21 14.8954 21 16V19C21 20.1046 20.1046 21 19 21H15C13.8954 21 13 20.1046 13 19V16C13 14.8954 13.8954 14 15 14H16V12H6V14H7C8.10457 14 9 14.8954 9 16V19C9 20.1046 8.10457 21 7 21H3C1.89543 21 1 20.1046 1 19V16C1 14.8954 1.89543 14 3 14H4V10H10V8H9C7.89543 8 7 7.10457 7 6V3ZM13 3H9V6H13V3ZM15 16V19H19V16H15ZM3 16H7V19H3V16Z" fill="#97A3BA"/>
</svg>
