<svg width="22" height="22" viewBox="0 0 22 22" fill="none" xmlns="http://www.w3.org/2000/svg">
<path fill-rule="evenodd" clip-rule="evenodd" d="M5 4C5 2.34315 6.34315 1 8 1H18C19.6569 1 21 2.34315 21 4V14C21 15.6569 19.6569 17 18 17C18 18.6569 16.6569 20 15 20H5C3.34315 20 2 18.6569 2 17V7C2 5.34315 3.34315 4 5 4ZM5 14C5 15.6569 6.34315 17 8 17H16C16 17.5523 15.5523 18 15 18H5C4.44772 18 4 17.5523 4 17V7C4 6.44772 4.44772 6 5 6V14ZM8 3C7.44772 3 7 3.44772 7 4V14C7 14.5523 7.44772 15 8 15H18C18.5523 15 19 14.5523 19 14V4C19 3.44772 18.5523 3 18 3H8Z" fill="#97A3BA"/>
</svg>
