<svg width="24" height="24" viewBox="0 0 24 24" fill="none" xmlns="http://www.w3.org/2000/svg">
<path fill-rule="evenodd" clip-rule="evenodd" d="M11.5528 3.10557C11.8343 2.96481 12.1657 2.96481 12.4472 3.10557L20.4472 7.10557C20.786 7.27496 21 7.62123 21 8C21 8.37877 20.786 8.72504 20.4472 8.89443L18.2358 10.0001L20.4472 11.1058C20.786 11.2752 21 11.6214 21 12.0002C21 12.379 20.786 12.7253 20.4472 12.8946L18.2361 14.0002L20.4472 15.1058C20.786 15.2752 21 15.6214 21 16.0002C21 16.379 20.786 16.7253 20.4472 16.8946L12.4472 20.8946C12.1657 21.0354 11.8343 21.0354 11.5528 20.8946L3.55279 16.8946C3.214 16.7253 3 16.379 3 16.0002C3 15.6214 3.214 15.2752 3.55279 15.1058L5.76393 14.0002L3.55279 12.8946C3.214 12.7253 3 12.379 3 12.0002C3 11.6214 3.214 11.2752 3.55279 11.1058L5.76415 10.0001L3.55279 8.89443C3.214 8.72504 3 8.37877 3 8C3 7.62123 3.214 7.27496 3.55279 7.10557L11.5528 3.10557ZM8.00022 11.1181L6.23607 12.0002L8.43816 13.1013C8.44469 13.1044 8.45118 13.1077 8.45764 13.111L12 14.8822L15.5423 13.111C15.5488 13.1077 15.5553 13.1044 15.5619 13.1013L17.7639 12.0002L15.9998 11.1181L12.4472 12.8944C12.1657 13.0352 11.8343 13.0352 11.5528 12.8944L8.00022 11.1181ZM16 15.1183L12.4472 16.8946C12.1657 17.0354 11.8343 17.0354 11.5528 16.8946L8 15.1183L6.23607 16.0002L12 18.8822L17.7639 16.0002L16 15.1183ZM6.23607 8L12 10.882L17.7639 8L12 5.11803L6.23607 8Z" fill="#777B92"/>
</svg>
