<svg width="22" height="22" viewBox="0 0 22 22" fill="none" xmlns="http://www.w3.org/2000/svg">
<path fill-rule="evenodd" clip-rule="evenodd" d="M11 18C12.04 18 13 17.89 13.87 17.71C14.23 18.4 14.76 18.98 15.41 19.4C14.12 19.78 12.63 20 11 20C5.87 20 2 17.85 2 15C2 14.3 2.25 13.63 2.71 13.02C2.25 12.41 2 11.73 2 11C2 10.3 2.25 9.63 2.71 9.02C2.25 8.41 2 7.73 2 7C2 4.15 5.87 2 11 2C16.13 2 20 4.15 20 7C20 7.73 19.75 8.41 19.29 9.02C19.75 9.63 20 10.3 20 11C20 11.22 19.97 11.44 19.92 11.65C19.33 11.34 18.68 11.15 17.98 11.13C17.9817 11.1214 17.9834 11.1131 17.9851 11.1051C17.9931 11.0663 18 11.0331 18 11C18 10.77 17.91 10.55 17.78 10.35C16.16 11.37 13.77 12 11 12C8.23 12 5.84 11.37 4.22 10.35C4.09 10.55 4 10.77 4 11C4 12.42 6.99 14 11 14C11.99 14 12.91 13.9 13.75 13.74C13.49 14.31 13.33 14.94 13.33 15.61C13.33 15.6438 13.3347 15.6777 13.3395 15.7126C13.3447 15.75 13.35 15.7887 13.35 15.83C12.6 15.94 11.82 16 11 16C8.23 16 5.84 15.37 4.21 14.35C4.09 14.55 4 14.77 4 15C4 16.42 6.99 18 11 18ZM18 7C18 5.58 15.01 4 11 4C6.99 4 4 5.58 4 7C4 8.42 6.99 10 11 10C15.01 10 18 8.42 18 7Z" fill="#97A3BA"/>
<path d="M18.9611 15.5L19.6969 16.2358C20.101 16.6399 20.101 17.2927 19.6969 17.6969C19.2927 18.101 18.6399 18.101 18.2358 17.6969L17.5 16.9611L16.7642 17.6969C16.3601 18.101 15.7073 18.101 15.3031 17.6969C14.899 17.2927 14.899 16.6399 15.3031 16.2358L16.0389 15.5L15.3031 14.7642C14.899 14.3601 14.899 13.7073 15.3031 13.3031C15.7073 12.899 16.3601 12.899 16.7642 13.3031L17.5 14.0389L18.2358 13.3031C18.6399 12.899 19.2927 12.899 19.6969 13.3031C20.101 13.7073 20.101 14.3601 19.6969 14.7642L18.9611 15.5Z" fill="#97A3BA"/>
</svg>
