<svg width="22" height="22" viewBox="0 0 22 22" fill="none" xmlns="http://www.w3.org/2000/svg">
<path fill-rule="evenodd" clip-rule="evenodd" d="M3 1C1.89543 1 1 1.89543 1 3V7C1 8.10457 1.89543 9 3 9H4L4 13H3C1.89543 13 1 13.8954 1 15V19C1 20.1046 1.89543 21 3 21H7C8.10457 21 9 20.1046 9 19H13C13 20.1046 13.8954 21 15 21H19C20.1046 21 21 20.1046 21 19V15C21 13.8954 20.1046 13 19 13H18V9H19C20.1046 9 21 8.10457 21 7V3C21 1.89543 20.1046 1 19 1H15C13.8954 1 13 1.89543 13 3V4H9V3C9 1.89543 8.10457 1 7 1H3ZM9 17H13V15C13 13.8954 13.8954 13 15 13H16V9H15C13.8954 9 13 8.10457 13 7V6H9V7C9 8.10457 8.10457 9 7 9H6V13H7C8.10457 13 9 13.8954 9 15V17ZM3 3H7V7H3V3ZM19 3H15V7H19V3ZM19 15H15V19H19V15ZM3 15H7V19H3V15Z" fill="#97A3BA"/>
</svg>
