<svg width="22" height="22" viewBox="0 0 22 22" fill="none" xmlns="http://www.w3.org/2000/svg">
<path fill-rule="evenodd" clip-rule="evenodd" d="M11 18C12.04 18 13 17.89 13.87 17.71C14.23 18.4 14.76 18.98 15.41 19.4C14.12 19.78 12.63 20 11 20C5.87 20 2 17.85 2 15C2 14.3 2.25 13.63 2.71 13.02C2.25 12.41 2 11.73 2 11C2 10.3 2.25 9.63 2.71 9.02C2.25 8.41 2 7.73 2 7C2 4.15 5.87 2 11 2C16.13 2 20 4.15 20 7C20 7.73 19.75 8.41 19.29 9.02C19.75 9.63 20 10.3 20 11C20 11.22 20 12 19.5 12.5C19 12 18 12 17.5 12C17.5129 11.9353 17.5433 11.8235 17.5804 11.687C17.702 11.2395 17.8955 10.5276 17.78 10.35C16.16 11.37 13.77 12 11 12C8.23 12 5.84 11.37 4.22 10.35C4.09 10.55 4 10.77 4 11C4 12.42 6.99 14 11 14C11.99 14 12.91 13.9 13.75 13.74C13.49 14.31 13.33 14.94 13.33 15.61C13.33 15.6438 13.3347 15.6777 13.3395 15.7126C13.3447 15.75 13.35 15.7887 13.35 15.83C12.6 15.94 11.82 16 11 16C8.23 16 5.84 15.37 4.21 14.35C4.09 14.55 4 14.77 4 15C4 16.42 6.99 18 11 18ZM18 7C18 5.58 15.01 4 11 4C6.99 4 4 5.58 4 7C4 8.42 6.99 10 11 10C15.01 10 18 8.42 18 7Z" fill="#97A3BA"/>
<path d="M19 14V15H20C20.55 15 21 15.45 21 16C21 16.55 20.55 17 20 17H19V18C19 18.55 18.55 19 18 19C17.45 19 17 18.55 17 18V17H16C15.45 17 15 16.55 15 16C15 15.45 15.45 15 16 15H17V14C17 13.45 17.45 13 18 13C18.55 13 19 13.45 19 14Z" fill="#97A3BA"/>
</svg>
