<svg width="22" height="22" viewBox="0 0 22 22" fill="none" xmlns="http://www.w3.org/2000/svg">
<path d="M18.2929 10.2929C18.4804 10.1054 18.7348 10 19 10C19.2652 10 19.5196 10.1054 19.7071 10.2929C19.8946 10.4804 20 10.7348 20 11V17C20 17.7956 19.6839 18.5587 19.1213 19.1213C18.5587 19.6839 17.7956 20 17 20H5C4.20435 20 3.44129 19.6839 2.87868 19.1213C2.31607 18.5587 2 17.7956 2 17V5C2 4.20435 2.31607 3.44129 2.87868 2.87868C3.44129 2.31607 4.20435 2 5 2H11C11.2652 2 11.5196 2.10536 11.7071 2.29289C11.8946 2.48043 12 2.73478 12 3C12 3.26522 11.8946 3.51957 11.7071 3.70711C11.5196 3.89464 11.2652 4 11 4H5C4.73478 4 4.48043 4.10536 4.29289 4.29289C4.10536 4.48043 4 4.73478 4 5V17C4 17.2652 4.10536 17.5196 4.29289 17.7071C4.48043 17.8946 4.73478 18 5 18H17C17.2652 18 17.5196 17.8946 17.7071 17.7071C17.8946 17.5196 18 17.2652 18 17V11C18 10.7348 18.1054 10.4804 18.2929 10.2929Z" fill="#97A3BA"/>
<path d="M16.5799 4H14.9999C14.7347 4 14.4804 3.89464 14.2928 3.70711C14.1053 3.51957 13.9999 3.26522 13.9999 3C13.9999 2.73478 14.1053 2.48043 14.2928 2.29289C14.4804 2.10536 14.7347 2 14.9999 2H18.9999C19.2652 2 19.5195 2.10536 19.707 2.29289C19.8946 2.48043 19.9999 2.73478 19.9999 3V7C19.9999 7.26522 19.8946 7.51957 19.707 7.70711C19.5195 7.89464 19.2652 8 18.9999 8C18.7347 8 18.4804 7.89464 18.2928 7.70711C18.1053 7.51957 17.9999 7.26522 17.9999 7V5.42L11.7099 11.7C11.617 11.7937 11.5064 11.8681 11.3845 11.9189C11.2627 11.9697 11.132 11.9958 10.9999 11.9958C10.8679 11.9958 10.7372 11.9697 10.6154 11.9189C10.4935 11.8681 10.3829 11.7937 10.2899 11.7C10.1962 11.607 10.1218 11.4964 10.071 11.3746C10.0203 11.2527 9.99414 11.122 9.99414 10.99C9.99414 10.858 10.0203 10.7273 10.071 10.6054C10.1218 10.4836 10.1962 10.373 10.2899 10.28L16.5799 4Z" fill="#97A3BA"/>
</svg>
