<svg width="24" height="24" viewBox="0 0 24 24" fill="none" xmlns="http://www.w3.org/2000/svg">
<path fill-rule="evenodd" clip-rule="evenodd" d="M4.70711 3.29289L12.6908 11.2766C12.702 11.2873 12.713 11.2982 12.7236 11.3094L20.7071 19.2929C21.0976 19.6834 21.0976 20.3166 20.7071 20.7071C20.3166 21.0976 19.6834 21.0976 19.2929 20.7071L11.4076 12.8219L8.00022 11.1181L6.23607 12.0002L12.4472 15.1058C12.9412 15.3528 13.1414 15.9535 12.8944 16.4474C12.6474 16.9414 12.0468 17.1416 11.5528 16.8946L8 15.1183L6.23607 16.0002L12 18.8822L14.5528 17.6058C15.0468 17.3588 15.6474 17.559 15.8944 18.053C16.1414 18.547 15.9412 19.1477 15.4472 19.3946L12.4472 20.8946C12.1657 21.0354 11.8343 21.0354 11.5528 20.8946L3.55279 16.8946C3.214 16.7253 3 16.379 3 16.0002C3 15.6214 3.214 15.2752 3.55279 15.1058L5.76393 14.0002L3.55279 12.8946C3.214 12.7253 3 12.379 3 12.0002C3 11.6214 3.214 11.2752 3.55279 11.1058L5.76415 10.0001L3.55279 8.89443C3.214 8.72504 3 8.37877 3 8C3 7.62123 3.214 7.27496 3.55279 7.10557L4.9785 6.39272L3.29289 4.70711C2.90237 4.31658 2.90237 3.68342 3.29289 3.29289C3.68342 2.90237 4.31658 2.90237 4.70711 3.29289ZM6.9355 8.34972L6.46899 7.88321C6.4618 7.88702 6.45454 7.89076 6.44721 7.89443L6.23607 8L6.9355 8.34972Z" fill="#777B92"/>
<path fill-rule="evenodd" clip-rule="evenodd" d="M12.4472 3.10557L20.4472 7.10557C20.786 7.27496 21 7.62123 21 8C21 8.37877 20.786 8.72504 20.4472 8.89443L18.2358 10.0001L20.4472 11.1058C20.786 11.2752 21 11.6214 21 12.0002C21 12.379 20.786 12.7253 20.4472 12.8946L17.4472 14.3946C16.9532 14.6416 16.3526 14.4414 16.1056 13.9474C15.8586 13.4535 16.0588 12.8528 16.5528 12.6058L17.7639 12.0002L15.9998 11.1181L15.4472 11.3944C14.9532 11.6414 14.3526 11.4412 14.1056 10.9472C13.8586 10.4532 14.0588 9.85256 14.5528 9.60557L17.7639 8L12 5.11803L9.44721 6.39443C8.95324 6.64142 8.35256 6.44119 8.10557 5.94721C7.85858 5.45324 8.05881 4.85256 8.55279 4.60557L11.5528 3.10557C11.8343 2.96481 12.1657 2.96481 12.4472 3.10557Z" fill="#777B92"/>
</svg>
