<svg width="22" height="22" viewBox="0 0 22 22" fill="none" xmlns="http://www.w3.org/2000/svg">
<path fill-rule="evenodd" clip-rule="evenodd" d="M6 1C4.89543 1 4 1.89543 4 3V13C4 14.1046 4.89543 15 6 15H16C17.1046 15 18 14.1046 18 13V3C18 1.89543 17.1046 1 16 1H6ZM16 3H6V13H16V3Z" fill="#97A3BA"/>
<path d="M1 20C1 19.4477 1.44772 19 2 19H20C20.5523 19 21 19.4477 21 20C21 20.5523 20.5523 21 20 21H2C1.44772 21 1 20.5523 1 20Z" fill="#97A3BA"/>
<path d="M11 16C10.4477 16 10 16.4477 10 17C10 17.5523 10.4477 18 11 18C11.5523 18 12 17.5523 12 17C12 16.4477 11.5523 16 11 16Z" fill="#97A3BA"/>
</svg>
