<svg width="22" height="22" viewBox="0 0 22 22" fill="none" xmlns="http://www.w3.org/2000/svg">
<path d="M13.6115 17.7663C14.0144 18.4561 14.5956 19.029 15.2918 19.4219C14.0085 19.7945 12.5418 20 11 20C8.66854 20 6.509 19.53 4.89529 18.7232C3.34113 17.9461 2 16.6876 2 15C2 14.2454 2.27905 13.5767 2.70722 13.0066C2.26964 12.4271 2 11.7567 2 11C2 10.2453 2.27915 9.57643 2.70745 9.00627C2.26976 8.4269 2 7.75656 2 7C2 5.3126 3.34191 4.05416 4.89593 3.27715C6.50977 2.47023 8.66928 2 11 2C11.9093 2 12.7924 2.07156 13.6274 2.20677C13.287 2.78031 13.0704 3.43595 13.0144 4.13685C12.379 4.04829 11.7035 4 11 4C8.91244 4 7.07196 4.4252 5.79036 5.066C4.44895 5.73671 4 6.47826 4 7C4 7.52174 4.44895 8.26329 5.79036 8.934C7.07196 9.5748 8.91244 10 11 10C11.6982 10 12.3687 9.95244 13 9.86515L13 11.8817C12.3544 11.9594 11.6846 12 11 12C8.66928 12 6.50977 11.5298 4.89593 10.7229C4.66251 10.6061 4.43387 10.4786 4.21384 10.3403C4.05961 10.5849 4 10.8071 4 11C4 11.5224 4.44887 12.2639 5.78971 12.9343C7.071 13.575 8.91146 14 11 14C11.6983 14 12.3688 13.9525 13 13.8653V15.5C13 15.6279 13.0053 15.7546 13.0158 15.8799C12.3654 15.9588 11.6902 16 11 16C8.66854 16 6.509 15.53 4.89529 14.7232C4.66196 14.6065 4.43343 14.479 4.21352 14.3408C4.05953 14.5852 4 14.8072 4 15C4 15.5224 4.44887 16.2639 5.78971 16.9343C7.071 17.575 8.91146 18 11 18C11.9287 18 12.8083 17.916 13.6115 17.7663Z" fill="#97A3BA"/>
<path d="M18.3778 14.2674C18.3266 14.4084 18.264 14.6172 18.1902 14.8985C18.0908 15.2817 17.9944 15.5989 17.9003 15.8464L17.8984 15.8513C17.7888 16.1255 17.6257 16.3636 17.4104 16.5623C17.1611 16.7924 16.8398 16.8939 16.4789 16.8939C16.1575 16.8939 15.8603 16.8085 15.5952 16.636C15.3219 16.4611 15.1146 16.2092 14.9684 15.8955C14.8147 15.5713 14.7439 15.1965 14.7439 14.7809C14.7439 14.2381 14.8253 13.7382 14.9931 13.2851C15.0328 13.1748 15.1006 13.0702 15.2079 12.9951C15.3155 12.9198 15.4376 12.8919 15.5549 12.8919C15.7053 12.8919 15.8406 12.9459 15.9517 13.0399C16.084 13.1518 16.1489 13.3054 16.1489 13.4719C16.1489 13.5537 16.1249 13.6303 16.1023 13.688C15.9887 14.0184 15.9319 14.3589 15.9319 14.7109C15.9319 15.043 15.9951 15.2854 16.0984 15.4584C16.188 15.604 16.2905 15.6569 16.4299 15.6569C16.5246 15.6569 16.5823 15.6303 16.6266 15.5879C16.6966 15.51 16.7572 15.4102 16.8049 15.283C16.8562 15.1285 16.9138 14.9142 16.9775 14.6368L16.9782 14.6337C17.0684 14.2587 17.1608 13.9476 17.2566 13.7054C17.363 13.4314 17.5294 13.1972 17.753 13.0066C18.008 12.7843 18.3366 12.6889 18.7049 12.6889C19.0276 12.6889 19.3242 12.7824 19.5858 12.9684L19.5883 12.9703C19.8438 13.156 20.0359 13.4121 20.1704 13.7241C20.3062 14.0391 20.3699 14.3935 20.3699 14.7809C20.3699 15.4118 20.2505 16.0074 20.0099 16.5644C19.9644 16.6726 19.8915 16.7618 19.7983 16.8295L19.7883 16.8365C19.6886 16.9029 19.5732 16.9429 19.4469 16.9429C19.2962 16.9429 19.1551 16.8915 19.0412 16.787L19.0404 16.7863C18.917 16.6724 18.8529 16.5219 18.8529 16.3559C18.8529 16.2679 18.8709 16.1817 18.9069 16.1008C19.0804 15.7115 19.1679 15.2936 19.1679 14.8439C19.1679 14.4589 19.1029 14.2222 19.0159 14.0899C18.9434 13.9795 18.842 13.9189 18.6629 13.9189C18.6113 13.9189 18.5767 13.9337 18.5393 13.9767L18.5349 13.9817C18.474 14.0486 18.4209 14.1387 18.3805 14.2597L18.3778 14.2674Z" fill="#97A3BA"/>
<path fill-rule="evenodd" clip-rule="evenodd" d="M16.1142 12.2514C16.5395 12.4771 17.0209 12.5912 17.5512 12.6013H17.5626C18.0928 12.5912 18.5743 12.4771 18.9996 12.2514C19.4268 12.0246 19.7643 11.7005 20.0071 11.2834C20.2523 10.8624 20.3699 10.3794 20.3699 9.84439C20.3699 9.74002 20.3663 9.64176 20.3587 9.55023L21.1431 8.89254C21.2799 8.78055 21.3639 8.62388 21.3639 8.43739C21.3639 8.27194 21.3006 8.12384 21.185 8.00826C21.0712 7.89444 20.9228 7.82907 20.7542 7.83645C20.6017 7.83855 20.4632 7.89582 20.3538 8.00232L19.9694 8.35102C19.7651 8.01769 19.4915 7.74352 19.1506 7.5318C18.6881 7.24283 18.1553 7.09738 17.562 7.08724L17.5511 7.08745C17.0248 7.09757 16.5456 7.21434 16.1207 7.44471C15.6899 7.67105 15.3501 7.9946 15.1071 8.41173C14.8614 8.82866 14.7439 9.30977 14.7439 9.84439C14.7439 10.3794 14.8615 10.8624 15.1066 11.2834C15.3495 11.7005 15.687 12.0246 16.1142 12.2514ZM18.9668 9.02765C19.1018 9.24892 19.1749 9.51736 19.1749 9.84439C19.1749 10.1764 19.1017 10.4467 18.9674 10.6672C18.8292 10.8894 18.6429 11.059 18.4027 11.1791C18.16 11.3004 17.8802 11.3644 17.5569 11.3644C17.2336 11.3644 16.9538 11.3004 16.7111 11.1791C16.4709 11.059 16.2846 10.8894 16.1464 10.6672C16.0121 10.4467 15.9389 10.1764 15.9389 9.84439C15.9389 9.51736 16.012 9.24892 16.147 9.02765C16.2856 8.80053 16.4719 8.62929 16.7111 8.50972C16.9538 8.38837 17.2336 8.32439 17.5569 8.32439C17.8802 8.32439 18.16 8.38837 18.4027 8.50972C18.6419 8.62929 18.8282 8.80053 18.9668 9.02765Z" fill="#97A3BA"/>
<path d="M20.0802 6.41852L20.0861 6.41294L20.0917 6.40705C20.2281 6.26308 20.2999 6.08439 20.2999 5.88573V3.40073C20.2999 3.2373 20.2413 3.08696 20.125 2.96856C20.0084 2.84507 19.8557 2.77873 19.6849 2.77873C19.516 2.77873 19.3648 2.84362 19.2487 2.96451C19.1278 3.08062 19.0629 3.23184 19.0629 3.40073V5.38973L15.4009 5.38973C15.232 5.38973 15.0808 5.45462 14.9647 5.57552C14.8438 5.69162 14.7789 5.84284 14.7789 6.01173C14.7789 6.18248 14.8452 6.33517 14.9687 6.45177C15.0871 6.56817 15.2375 6.62673 15.4009 6.62673H19.5589C19.7576 6.62673 19.9362 6.55492 20.0802 6.41852Z" fill="#97A3BA"/>
</svg>
