<svg width="22" height="22" viewBox="0 0 22 22" fill="none" xmlns="http://www.w3.org/2000/svg">
<path d="M19.9999 10.3502C19.9885 10.1642 19.9253 9.98519 19.8175 9.83324C19.7097 9.68128 19.5616 9.56246 19.3899 9.49016L17.2399 8.57016L19.4999 7.27016C19.6602 7.178 19.7917 7.04324 19.88 6.88083C19.9683 6.71843 20.0098 6.53474 19.9999 6.35016C19.9885 6.16422 19.9253 5.98519 19.8175 5.83324C19.7097 5.68128 19.5616 5.56246 19.3899 5.49016L11.3899 2.08016C11.2666 2.0279 11.1339 2.00098 10.9999 2.00098C10.866 2.00098 10.7333 2.0279 10.6099 2.08016L2.60995 5.49016C2.43826 5.56246 2.29018 5.68128 2.1824 5.83324C2.07462 5.98519 2.01143 6.16422 1.99995 6.35016C1.99012 6.53474 2.03165 6.71843 2.11991 6.88083C2.20817 7.04324 2.33972 7.178 2.49995 7.27016L4.75995 8.57016L2.60995 9.49016C2.43826 9.56246 2.29018 9.68128 2.1824 9.83324C2.07462 9.98519 2.01143 10.1642 1.99995 10.3502C1.99012 10.5347 2.03165 10.7184 2.11991 10.8808C2.20817 11.0432 2.33972 11.178 2.49995 11.2702L4.75995 12.5702L2.60995 13.4902C2.43826 13.5625 2.29018 13.6813 2.1824 13.8332C2.07462 13.9852 2.01143 14.1642 1.99995 14.3502C1.99012 14.5347 2.03165 14.7184 2.11991 14.8808C2.20817 15.0432 2.33972 15.178 2.49995 15.2702L10.4999 19.8702C10.652 19.9579 10.8244 20.0041 10.9999 20.0041C11.1755 20.0041 11.3479 19.9579 11.4999 19.8702L19.4999 15.2702C19.6602 15.178 19.7917 15.0432 19.88 14.8808C19.9683 14.7184 20.0098 14.5347 19.9999 14.3502C19.9885 14.1642 19.9253 13.9852 19.8175 13.8332C19.7097 13.6813 19.5616 13.5625 19.3899 13.4902L17.2399 12.5702L19.4999 11.2702C19.6602 11.178 19.7917 11.0432 19.88 10.8808C19.9683 10.7184 20.0098 10.5347 19.9999 10.3502ZM10.9999 4.09016L16.7599 6.54016L10.9999 9.85016L5.23995 6.54016L10.9999 4.09016ZM10.4999 11.8702C10.652 11.9579 10.8244 12.0041 10.9999 12.0041C11.1755 12.0041 11.3479 11.9579 11.4999 11.8702L15.0699 9.87016L16.7599 10.5902L10.9999 13.8502L5.23995 10.5402L6.92995 9.82016L10.4999 11.8702ZM16.7599 14.5402L10.9999 17.8502L5.23995 14.5402L6.92995 13.8202L10.4999 15.8702C10.652 15.9579 10.8244 16.0041 10.9999 16.0041C11.1755 16.0041 11.3479 15.9579 11.4999 15.8702L15.0699 13.8202L16.7599 14.5402Z" fill="#97A3BA"/>
</svg>
