<svg width="24" height="24" viewBox="0 0 24 24" fill="none" xmlns="http://www.w3.org/2000/svg">
<path fill-rule="evenodd" clip-rule="evenodd" d="M5 8C5 8.33795 5.18836 8.76811 5.6856 9.21152C5.71165 9.2319 5.73689 9.25373 5.76119 9.277C6.02234 9.4969 6.36054 9.71909 6.79036 9.934C8.07196 10.5748 9.91244 11 12 11C12.5523 11 13 11.4477 13 12C13 12.5523 12.5523 13 12 13C9.66928 13 7.50977 12.5298 5.89593 11.7229C5.66091 11.6053 5.43073 11.4768 5.20932 11.3375C5.05857 11.5804 5 11.804 5 12C5 12.3379 5.18831 12.768 5.68541 13.2114C5.71158 13.2318 5.73693 13.2538 5.76134 13.2771C6.02247 13.497 6.36061 13.7191 6.79036 13.934C8.07196 14.5748 9.91244 15 12 15C12.5523 15 13 15.4477 13 16C13 16.5523 12.5523 17 12 17C9.66928 17 7.50977 16.5298 5.89593 15.7229C5.6609 15.6054 5.43073 15.4768 5.20931 15.3375C5.05856 15.5804 5 15.804 5 16C5 16.5218 5.44895 17.2633 6.79036 17.934C8.07196 18.5748 9.91244 19 12 19C12.5523 19 13 19.4477 13 20C13 20.5523 12.5523 21 12 21C9.66928 21 7.50977 20.5298 5.89593 19.7229C4.34191 18.9459 3 17.6874 3 16C3 15.2477 3.27354 14.5758 3.70347 14.001C3.26812 13.4228 3 12.7543 3 12C3 11.2477 3.27354 10.5758 3.70347 10.001C3.26813 9.42283 3 8.75427 3 8C3 6.3126 4.34191 5.05416 5.89593 4.27715C7.50977 3.47023 9.66928 3 12 3C12.5523 3 13 3.44772 13 4C13 4.55228 12.5523 5 12 5C9.91244 5 8.07196 5.4252 6.79036 6.066C5.44895 6.73671 5 7.47826 5 8Z" fill="#777B92"/>
<path fill-rule="evenodd" clip-rule="evenodd" d="M21.0861 8.63421L21.0802 8.63979C20.9362 8.77619 20.7576 8.848 20.5589 8.848H16.4009C16.2375 8.848 16.0871 8.78944 15.9687 8.67304C15.8452 8.55644 15.7789 8.40375 15.7789 8.233C15.7789 8.06411 15.8438 7.91289 15.9647 7.79679C16.0808 7.67589 16.232 7.611 16.4009 7.611H20.0629V5.622C20.0629 5.45311 20.1278 5.30189 20.2487 5.18578C20.3648 5.06489 20.516 5 20.6849 5C20.8557 5 21.0084 5.06634 21.125 5.18983C21.2413 5.30823 21.2999 5.45857 21.2999 5.622V8.107C21.2999 8.30566 21.2281 8.48435 21.0917 8.62832L21.0861 8.63421Z" fill="#777B92"/>
<path fill-rule="evenodd" clip-rule="evenodd" d="M17.1142 14.4726C16.687 14.2458 16.3495 13.9218 16.1066 13.5046C15.8615 13.0837 15.7439 12.6007 15.7439 12.0657C15.7439 11.531 15.8614 11.0499 16.1071 10.633C16.3501 10.2159 16.6899 9.89232 17.1207 9.66598C17.5456 9.43561 18.0248 9.31884 18.5511 9.30872L18.562 9.30851C19.1553 9.31865 19.6881 9.4641 20.1506 9.75307C20.4915 9.96479 20.7651 10.239 20.9694 10.5723L21.3538 10.2236C21.4632 10.1171 21.6017 10.0598 21.7542 10.0577C21.9228 10.0503 22.0712 10.1157 22.185 10.2295C22.3006 10.3451 22.3639 10.4932 22.3639 10.6587C22.3639 10.8452 22.2799 11.0018 22.1431 11.1138L21.3587 11.7715C21.3663 11.863 21.3699 11.9613 21.3699 12.0657C21.3699 12.6007 21.2523 13.0837 21.0071 13.5046C20.7643 13.9218 20.4268 14.2458 19.9996 14.4726C19.5743 14.6984 19.0928 14.8125 18.5626 14.8226H18.5512C18.0209 14.8125 17.5395 14.6984 17.1142 14.4726ZM19.9668 11.2489C19.8282 11.0218 19.6419 10.8506 19.4027 10.731C19.16 10.6096 18.8802 10.5457 18.5569 10.5457C18.2336 10.5457 17.9538 10.6096 17.7111 10.731C17.4719 10.8506 17.2856 11.0218 17.147 11.2489C17.012 11.4702 16.9389 11.7386 16.9389 12.0657C16.9389 12.3977 17.0121 12.6679 17.1464 12.8884C17.2846 13.1107 17.4709 13.2803 17.7111 13.4003C17.9538 13.5217 18.2336 13.5857 18.5569 13.5857C18.8802 13.5857 19.16 13.5217 19.4027 13.4003C19.6429 13.2803 19.8292 13.1107 19.9674 12.8884C20.1017 12.6679 20.1749 12.3977 20.1749 12.0657C20.1749 11.7386 20.1018 11.4702 19.9668 11.2489Z" fill="#777B92"/>
<path fill-rule="evenodd" clip-rule="evenodd" d="M19.3778 16.4887C19.3266 16.6297 19.264 16.8384 19.1902 17.1197C19.0908 17.503 18.9944 17.8202 18.9003 18.0677L18.8984 18.0726C18.7888 18.3467 18.6257 18.5848 18.4104 18.7836C18.1611 19.0136 17.8398 19.1151 17.4789 19.1151C17.1575 19.1151 16.8603 19.0297 16.5952 18.8572C16.3219 18.6824 16.1146 18.4304 15.9684 18.1168C15.8147 17.7925 15.7439 17.4178 15.7439 17.0021C15.7439 16.4594 15.8253 15.9595 15.9931 15.5064C16.0328 15.3961 16.1006 15.2914 16.2079 15.2164C16.3155 15.141 16.4376 15.1131 16.5549 15.1131C16.7053 15.1131 16.8406 15.1671 16.9517 15.2611C17.084 15.3731 17.1489 15.5266 17.1489 15.6931C17.1489 15.7749 17.1249 15.8516 17.1023 15.9093C16.9887 16.2397 16.9319 16.5802 16.9319 16.9321C16.9319 17.2643 16.9951 17.5067 17.0984 17.6796C17.188 17.8253 17.2905 17.8781 17.4299 17.8781C17.5246 17.8781 17.5823 17.8515 17.6266 17.8091C17.6966 17.7313 17.7572 17.6315 17.8049 17.5043C17.8562 17.3497 17.9138 17.1355 17.9775 16.858L17.9782 16.855C18.0684 16.4799 18.1608 16.1689 18.2566 15.9267C18.363 15.6526 18.5294 15.4185 18.753 15.2279C19.008 15.0056 19.3366 14.9101 19.7049 14.9101C20.0276 14.9101 20.3242 15.0037 20.5858 15.1897L20.5883 15.1915C20.8438 15.3773 21.0359 15.6334 21.1704 15.9454C21.3062 16.2604 21.3699 16.6148 21.3699 17.0021C21.3699 17.6331 21.2505 18.2286 21.0099 18.7856C20.9644 18.8939 20.8915 18.983 20.7983 19.0508L20.7883 19.0578C20.6886 19.1242 20.5732 19.1641 20.4469 19.1641C20.2962 19.1641 20.1551 19.1128 20.0412 19.0083L20.0404 19.0076C19.917 18.8937 19.8529 18.7432 19.8529 18.5771C19.8529 18.4892 19.8709 18.403 19.9069 18.322C20.0804 17.9328 20.1679 17.5149 20.1679 17.0651C20.1679 16.6801 20.1029 16.4435 20.0159 16.3111C19.9434 16.2008 19.842 16.1401 19.6629 16.1401C19.6113 16.1401 19.5767 16.155 19.5393 16.198L19.5349 16.2029C19.474 16.2699 19.4209 16.36 19.3805 16.481L19.3778 16.4887Z" fill="#777B92"/>
</svg>
