<svg width="24" height="24" viewBox="0 0 24 24" fill="none" xmlns="http://www.w3.org/2000/svg">
<path fill-rule="evenodd" clip-rule="evenodd" d="M3 5C3 3.89543 3.89543 3 5 3H11C12.1046 3 13 3.89543 13 5V9C13 10.1046 12.1046 11 11 11H5C3.89543 11 3 10.1046 3 9V5ZM11 5H5V9H11V5Z" fill="#777B92"/>
<path fill-rule="evenodd" clip-rule="evenodd" d="M11 15C11 13.8954 11.8954 13 13 13H19C20.1046 13 21 13.8954 21 15V19C21 20.1046 20.1046 21 19 21H13C11.8954 21 11 20.1046 11 19V15ZM19 15H13V19H19V15Z" fill="#777B92"/>
<path fill-rule="evenodd" clip-rule="evenodd" d="M4 15C3.44772 15 3 14.5523 3 14C3 13.4477 3.44772 13 4 13C4.55228 13 5 13.4477 5 14C5 14.5523 4.55228 15 4 15Z" fill="#777B92"/>
<path fill-rule="evenodd" clip-rule="evenodd" d="M5 18C5 18.5523 4.55228 19 4 19C3.44772 19 3 18.5523 3 18C3 17.4477 3.44772 17 4 17C4.55228 17 5 17.4477 5 18Z" fill="#777B92"/>
<path fill-rule="evenodd" clip-rule="evenodd" d="M8 19C7.44772 19 7 18.5523 7 18C7 17.4477 7.44772 17 8 17C8.55228 17 9 17.4477 9 18C9 18.5523 8.55228 19 8 19Z" fill="#777B92"/>
</svg>
