<svg width="22" height="22" viewBox="0 0 22 22" fill="none" xmlns="http://www.w3.org/2000/svg">
<path d="M6 5C6 4.44772 6.44772 4 7 4C7.55228 4 8 4.44772 8 5C8 5.55228 7.55228 6 7 6C6.44772 6 6 5.55228 6 5Z" fill="#97A3BA"/>
<path fill-rule="evenodd" clip-rule="evenodd" d="M4 9V13H13.6822C12.9121 13.512 12.2671 14.1972 11.8027 15H4V19H11.083C11.2034 19.7179 11.4513 20.3926 11.8027 21H4C2.89543 21 2 20.1046 2 19V3C2 1.89543 2.89543 1 4 1H18C19.1046 1 20 1.89543 20 3V12.8027C19.3926 12.4513 18.7179 12.2034 18 12.083V9H4ZM4 7V3H18V7H4Z" fill="#97A3BA"/>
<path d="M6 11C6 10.4477 6.44772 10 7 10C7.55228 10 8 10.4477 8 11C8 11.5523 7.55228 12 7 12C6.44772 12 6 11.5523 6 11Z" fill="#97A3BA"/>
<path d="M7 16C6.44772 16 6 16.4477 6 17C6 17.5523 6.44772 18 7 18C7.55228 18 8 17.5523 8 17C8 16.4477 7.55228 16 7 16Z" fill="#97A3BA"/>
<path fill-rule="evenodd" clip-rule="evenodd" d="M13.8334 15.4938L16.1667 14.0951C16.268 14.0328 16.383 14 16.5 14C16.617 14 16.732 14.0328 16.8333 14.0951L19.1666 15.4938C19.2689 15.5567 19.3536 15.6473 19.4122 15.7565C19.4707 15.8656 19.501 15.9894 19.5 16.1151C19.5 17.0785 19.2731 18.032 18.8083 18.8784C18.3561 19.7017 17.7068 20.3824 16.9267 20.8508L16.8267 20.9112C16.7267 20.9701 16.6142 21.0006 16.5 20.9999C16.3835 21.0019 16.2686 20.9713 16.1667 20.9112L16.0667 20.8508C15.2878 20.3815 14.6398 19.7004 14.1888 18.8771C13.7251 18.0304 13.5 17.0781 13.5 16.1151C13.499 15.9894 13.5293 15.8656 13.5878 15.7565C13.6464 15.6473 13.7311 15.5567 13.8334 15.4938ZM16.5 16.2271L17.4429 16.7924C17.374 17.1936 17.2434 17.573 17.0552 17.9157C16.9004 18.1975 16.7119 18.4484 16.498 18.6637C16.2849 18.4485 16.0971 18.1978 15.943 17.9164C15.7553 17.5738 15.6252 17.1944 15.5566 16.7926L16.5 16.2271Z" fill="#97A3BA"/>
</svg>
