<svg width="22" height="22" viewBox="0 0 22 22" fill="none" xmlns="http://www.w3.org/2000/svg">
<path fill-rule="evenodd" clip-rule="evenodd" d="M7 3C7 1.89543 7.89543 1 9 1H13C14.1046 1 15 1.89543 15 3V6C15 7.10457 14.1046 8 13 8H9C7.89543 8 7 7.10457 7 6V3ZM9 3H13V6H9V3Z" fill="#97A3BA"/>
<path fill-rule="evenodd" clip-rule="evenodd" d="M2 16C2 14.8954 2.89543 14 4 14H8C9.10457 14 10 14.8954 10 16V19C10 20.1046 9.10457 21 8 21H4C2.89543 21 2 20.1046 2 19V16ZM4 16H8V19H4V16Z" fill="#97A3BA"/>
<path fill-rule="evenodd" clip-rule="evenodd" d="M14 14C12.8954 14 12 14.8954 12 16V19C12 20.1046 12.8954 21 14 21H18C19.1046 21 20 20.1046 20 19V16C20 14.8954 19.1046 14 18 14H14ZM18 16H14V19H18V16Z" fill="#97A3BA"/>
<path d="M13.0142 10.1067C12.738 9.62846 12.9019 9.01686 13.3802 8.74072L13.4203 8.71758C13.8986 8.44143 14.5102 8.60531 14.7863 9.0836L16.2552 11.6278C16.5313 12.1061 16.3675 12.7177 15.8892 12.9938L15.8491 13.017C15.3708 13.2931 14.7592 13.1292 14.483 12.6509L13.0142 10.1067Z" fill="#97A3BA"/>
<path d="M8.84033 10.1067C9.11647 9.62846 8.9526 9.01686 8.47431 8.74072L8.43422 8.71758C7.95592 8.44143 7.34433 8.60531 7.06819 9.0836L5.5993 11.6278C5.32316 12.1061 5.48704 12.7177 5.96533 12.9938L6.00542 13.017C6.48371 13.2931 7.0953 13.1292 7.37144 12.6509L8.84033 10.1067Z" fill="#97A3BA"/>
</svg>
