<svg width="23" height="22" viewBox="0 0 23 22" fill="none" xmlns="http://www.w3.org/2000/svg">
<path fill-rule="evenodd" clip-rule="evenodd" d="M12.3 17.94C11.88 17.98 11.45 18 11 18C6.99 18 4 16.42 4 15C4 14.77 4.09 14.55 4.21 14.35C5.84 15.37 8.23 16 11 16C11.29 16 11.57 15.99 11.84 15.98C11.83 15.86 11.82 15.74 11.82 15.62C11.82 15.05 11.91 14.49 12.06 13.97C11.9526 13.9732 11.8431 13.9773 11.7323 13.9815C11.4925 13.9906 11.2462 14 11 14C6.99 14 4 12.42 4 11C4 10.77 4.09 10.55 4.22 10.35C5.84 11.37 8.23 12 11 12C11.75 12 12.46 11.95 13.14 11.86C14.24 10.49 15.93 9.61 17.82 9.61C18.51 9.61 19.18 9.73 19.8 9.95C19.68 9.63 19.51 9.32 19.28 9.02C19.75 8.41 20 7.73 20 7C20 4.15 16.13 2 11 2C5.87 2 2 4.15 2 7C2 7.73 2.25 8.41 2.71 9.02C2.25 9.63 2 10.3 2 11C2 11.73 2.25 12.41 2.71 13.02C2.25 13.63 2 14.3 2 15C2 17.85 5.87 20 11 20C11.89 20 12.74 19.93 13.54 19.81C13.02 19.27 12.59 18.64 12.3 17.94ZM11 4C15.01 4 18 5.58 18 7C18 8.42 15.01 10 11 10C6.99 10 4 8.42 4 7C4 5.58 6.99 4 11 4Z" fill="#97A3BA"/>
<path fill-rule="evenodd" clip-rule="evenodd" d="M17.8301 19.6099C16.7601 19.6099 15.7601 19.1899 15.0001 18.4399C14.2401 17.6899 13.8301 16.6799 13.8301 15.6099C13.8301 14.5399 14.2501 13.5399 15.0001 12.7799C15.7501 12.0199 16.7601 11.6099 17.8301 11.6099C18.9001 11.6099 19.9001 12.0299 20.6601 12.7799C21.4201 13.5299 21.8301 14.5399 21.8301 15.6099C21.8301 16.3769 21.6143 17.1079 21.2158 17.7403L22.6939 19.2184C23.102 19.6266 23.102 20.2858 22.6939 20.6939C22.2858 21.102 21.6266 21.102 21.2184 20.6939L19.6801 19.1555C19.1131 19.4515 18.481 19.6099 17.8301 19.6099ZM17.8301 13.6099C17.3001 13.6099 16.7901 13.8199 16.4201 14.1999C16.0501 14.5799 15.8301 15.0799 15.8301 15.6099C15.8301 16.1399 16.0401 16.6499 16.4201 17.0199C17.1801 17.7799 18.4901 17.7799 19.2501 17.0199C19.6301 16.6399 19.8401 16.1399 19.8401 15.6099C19.8401 15.0799 19.6301 14.5699 19.2501 14.1999C18.8701 13.8299 18.3601 13.6099 17.8301 13.6099Z" fill="#97A3BA"/>
</svg>
