<svg width="22" height="22" viewBox="0 0 22 22" fill="none" xmlns="http://www.w3.org/2000/svg">
<path d="M12 7H13C13.2652 7 13.5196 7.10536 13.7071 7.29289C13.8946 7.48043 14 7.73478 14 8C14 8.26522 13.8946 8.51957 13.7071 8.70711C13.5196 8.89464 13.2652 9 13 9H12V10C12 10.2652 11.8946 10.5196 11.7071 10.7071C11.5196 10.8946 11.2652 11 11 11C10.7348 11 10.4804 10.8946 10.2929 10.7071C10.1053 10.5196 9.99999 10.2652 9.99999 10V9H9C8.73478 9 8.48043 8.89464 8.29289 8.70711C8.10536 8.51957 8 8.26522 8 8C8 7.73478 8.10536 7.48043 8.29289 7.29289C8.48043 7.10536 8.73478 7 9 7H9.99999V6C9.99999 5.73478 10.1053 5.48043 10.2929 5.29289C10.4804 5.10536 10.7348 5 11 5C11.2652 5 11.5196 5.10536 11.7071 5.29289C11.8946 5.48043 12 5.73478 12 6V7Z" fill="#97A3BA"/>
<path fill-rule="evenodd" clip-rule="evenodd" d="M4 3C4 1.89543 4.89543 1 6 1H16C17.1046 1 18 1.89543 18 3V13C18 14.1046 17.1046 15 16 15H6C4.89543 15 4 14.1046 4 13V3ZM6 3H16V13H6V3Z" fill="#97A3BA"/>
<path d="M1 20C1 19.4477 1.44772 19 2 19H20C20.5523 19 21 19.4477 21 20C21 20.5523 20.5523 21 20 21H2C1.44772 21 1 20.5523 1 20Z" fill="#97A3BA"/>
<path d="M11 16C10.4477 16 10 16.4477 10 17C10 17.5523 10.4477 18 11 18C11.5523 18 12 17.5523 12 17C12 16.4477 11.5523 16 11 16Z" fill="#97A3BA"/>
</svg>
