<svg width="22" height="22" viewBox="0 0 22 22" fill="none" xmlns="http://www.w3.org/2000/svg">
<path fill-rule="evenodd" clip-rule="evenodd" d="M10.3333 14.8223L10.1333 14.7016C8.57554 13.763 7.27954 12.4008 6.37769 10.7543C5.47584 9.10773 5.00045 7.23578 5.00005 5.32957V5.23017C4.99794 4.97875 5.05855 4.73124 5.17567 4.51294C5.2928 4.29463 5.46226 4.11337 5.66671 3.98766L10.3333 1.19025C10.536 1.06561 10.766 1 11 1C11.234 1 11.464 1.06561 11.6667 1.19025L16.3333 3.98766C16.5377 4.11337 16.7072 4.29463 16.8243 4.51294C16.9415 4.73124 17.0021 4.97875 16.9999 5.23017V5.32957C16.9982 7.23719 16.5208 9.11009 15.6166 10.7568C14.7123 12.4034 13.4136 13.7648 11.8533 14.7016L11.6533 14.8223C11.4534 14.9401 11.2285 15.0012 11 14.9998C10.767 15.0037 10.5372 14.9425 10.3333 14.8223ZM14.9978 5.51895C14.966 7.02925 14.5735 8.50109 13.8635 9.79408C13.1577 11.0793 12.1663 12.1374 10.9937 12.882C9.82392 12.1362 8.83529 11.0779 8.13181 9.79351C7.42345 8.50024 7.03257 7.02867 7.002 5.51904L11 3.12243L14.9978 5.51895Z" fill="#97A3BA"/>
<path d="M1 20C1 19.4477 1.44772 19 2 19H20C20.5523 19 21 19.4477 21 20C21 20.5523 20.5523 21 20 21H2C1.44772 21 1 20.5523 1 20Z" fill="#97A3BA"/>
<path d="M11 16C10.4477 16 10 16.4477 10 17C10 17.5523 10.4477 18 11 18C11.5523 18 12 17.5523 12 17C12 16.4477 11.5523 16 11 16Z" fill="#97A3BA"/>
</svg>
