<svg width="22" height="22" viewBox="0 0 22 22" fill="none" xmlns="http://www.w3.org/2000/svg">
<path fill-rule="evenodd" clip-rule="evenodd" d="M11 2C8.66928 2 6.50977 2.47023 4.89593 3.27715C3.34191 4.05416 2 5.3126 2 7C2 7.75655 2.26975 8.42688 2.70743 9.00624C2.27914 9.5764 2 10.2452 2 11C2 11.7567 2.26964 12.4271 2.70722 13.0065C2.27905 13.5766 2 14.2454 2 15C2 16.6875 3.34113 17.946 4.89529 18.7231C6.509 19.53 8.66854 20 11 20C13.3315 20 15.491 19.53 17.1047 18.7231C18.6589 17.946 20 16.6875 20 15C20 14.2454 19.721 13.5766 19.2928 13.0065C19.7304 12.4271 20 11.7567 20 11C20 10.2452 19.7209 9.5764 19.2926 9.00625C19.7302 8.42688 20 7.75655 20 7C20 5.3126 18.6581 4.05416 17.1041 3.27715C15.4902 2.47023 13.3307 2 11 2ZM4 7C4 6.47826 4.44895 5.73671 5.79036 5.066C7.07196 4.4252 8.91244 4 11 4C13.0876 4 14.928 4.4252 16.2096 5.066C17.5511 5.73671 18 6.47826 18 7C18 7.52174 17.5511 8.26329 16.2096 8.934C14.928 9.5748 13.0876 10 11 10C8.91244 10 7.07196 9.5748 5.79036 8.934C4.44895 8.26329 4 7.52174 4 7ZM17.7862 10.3403C17.5661 10.4786 17.3375 10.6061 17.1041 10.7229C15.4902 11.5298 13.3307 12 11 12C8.66928 12 6.50977 11.5298 4.89593 10.7229C4.6625 10.6061 4.43385 10.4786 4.21382 10.3403C4.05961 10.5848 4 10.8071 4 11C4 11.5224 4.44887 12.2639 5.78971 12.9343C7.071 13.5749 8.91146 14 11 14C13.0885 14 14.929 13.5749 16.2103 12.9343C17.5511 12.2639 18 11.5224 18 11C18 10.8071 17.9404 10.5848 17.7862 10.3403ZM17.1047 14.7231C17.338 14.6065 17.5666 14.4789 17.7865 14.3408C17.9405 14.5851 18 14.8072 18 15C18 15.5224 17.5511 16.2639 16.2103 16.9343C14.929 17.5749 13.0885 18 11 18C8.91146 18 7.071 17.5749 5.78971 16.9343C4.44887 16.2639 4 15.5224 4 15C4 14.8072 4.05953 14.5851 4.21352 14.3408C4.43343 14.4789 4.66196 14.6065 4.89529 14.7231C6.509 15.53 8.66854 16 11 16C13.3315 16 15.491 15.53 17.1047 14.7231Z" fill="#97A3BA"/>
</svg>
