<svg width="22" height="22" viewBox="0 0 22 22" fill="none" xmlns="http://www.w3.org/2000/svg">
<path fill-rule="evenodd" clip-rule="evenodd" d="M7 3C7 1.89543 7.89543 1 9 1H13C14.1046 1 15 1.89543 15 3V6C15 7.10457 14.1046 8 13 8H9C7.89543 8 7 7.10457 7 6V3ZM9 3H13V6H9V3Z" fill="#97A3BA"/>
<path fill-rule="evenodd" clip-rule="evenodd" d="M2 16C2 14.8954 2.89543 14 4 14H8C9.10457 14 10 14.8954 10 16V19C10 20.1046 9.10457 21 8 21H4C2.89543 21 2 20.1046 2 19V16ZM4 16H8V19H4V16Z" fill="#97A3BA"/>
<path fill-rule="evenodd" clip-rule="evenodd" d="M14 14C12.8954 14 12 14.8954 12 16V19C12 20.1046 12.8954 21 14 21H18C19.1046 21 20 20.1046 20 19V16C20 14.8954 19.1046 14 18 14H14ZM18 16H14V19H18V16Z" fill="#97A3BA"/>
<path d="M2 10C1.44772 10 1 10.4477 1 11C1 11.5523 1.44772 12 2 12H20C20.5523 12 21 11.5523 21 11C21 10.4477 20.5523 10 20 10H2Z" fill="#97A3BA"/>
</svg>
