<svg width="22" height="22" viewBox="0 0 22 22" fill="none" xmlns="http://www.w3.org/2000/svg">
<path d="M9.00008 10.0001C8.60955 9.60955 8.60955 8.97639 9.00007 8.58586L9.58579 8.00015L8.99992 7.41429C8.6094 7.02376 8.6094 6.3906 8.99992 6.00008C9.39045 5.60955 10.0236 5.60955 10.4141 6.00008L11 6.58594L11.5859 6.00008C11.9764 5.60955 12.6096 5.60955 13.0001 6.00008C13.3906 6.3906 13.3906 7.02376 13.0001 7.41429L12.4142 8.00015L12.9999 8.58586C13.3904 8.97639 13.3904 9.60955 12.9999 10.0001C12.6094 10.3906 11.9762 10.3906 11.5857 10.0001L11 9.41436L10.4143 10.0001C10.0238 10.3906 9.3906 10.3906 9.00008 10.0001Z" fill="#97A3BA"/>
<path fill-rule="evenodd" clip-rule="evenodd" d="M6 1C4.89543 1 4 1.89543 4 3V13C4 14.1046 4.89543 15 6 15H16C17.1046 15 18 14.1046 18 13V3C18 1.89543 17.1046 1 16 1H6ZM16 3H6V13H16V3Z" fill="#97A3BA"/>
<path d="M1 20C1 19.4477 1.44772 19 2 19H20C20.5523 19 21 19.4477 21 20C21 20.5523 20.5523 21 20 21H2C1.44772 21 1 20.5523 1 20Z" fill="#97A3BA"/>
<path d="M11 16C10.4477 16 10 16.4477 10 17C10 17.5523 10.4477 18 11 18C11.5523 18 12 17.5523 12 17C12 16.4477 11.5523 16 11 16Z" fill="#97A3BA"/>
</svg>
