<svg width="22" height="22" viewBox="0 0 22 22" fill="none" xmlns="http://www.w3.org/2000/svg">
<path d="M9 7C8.44772 7 8 7.44772 8 8C8 8.55228 8.44772 9 9 9H13C13.5523 9 14 8.55228 14 8C14 7.44772 13.5523 7 13 7H9Z" fill="#97A3BA"/>
<path fill-rule="evenodd" clip-rule="evenodd" d="M4 3C4 1.89543 4.89543 1 6 1H16C17.1046 1 18 1.89543 18 3V13C18 14.1046 17.1046 15 16 15H6C4.89543 15 4 14.1046 4 13V3ZM6 3H16V13H6V3Z" fill="#97A3BA"/>
<path d="M2 19C1.44772 19 1 19.4477 1 20C1 20.5523 1.44772 21 2 21H20C20.5523 21 21 20.5523 21 20C21 19.4477 20.5523 19 20 19H2Z" fill="#97A3BA"/>
<path d="M10 17C10 16.4477 10.4477 16 11 16C11.5523 16 12 16.4477 12 17C12 17.5523 11.5523 18 11 18C10.4477 18 10 17.5523 10 17Z" fill="#97A3BA"/>
</svg>
