<svg width="22" height="22" viewBox="0 0 22 22" fill="none" xmlns="http://www.w3.org/2000/svg">
<path d="M11.707 11.2071L13.9999 8.91421C14.3904 8.52369 14.3904 7.89052 13.9999 7.5C13.6094 7.10948 12.9762 7.10948 12.5857 7.5L11.9999 8.08579V5.5C11.9999 4.94771 11.5522 4.5 10.9999 4.5C10.4476 4.5 9.99992 4.94772 9.99992 5.5V8.08579L9.41414 7.5C9.02361 7.10948 8.39045 7.10948 7.99992 7.5C7.6094 7.89052 7.6094 8.52369 7.99992 8.91421L10.2928 11.2071C10.6833 11.5976 11.3165 11.5976 11.707 11.2071Z" fill="#97A3BA"/>
<path fill-rule="evenodd" clip-rule="evenodd" d="M4 3C4 1.89543 4.89543 1 6 1H16C17.1046 1 18 1.89543 18 3V13C18 14.1046 17.1046 15 16 15H6C4.89543 15 4 14.1046 4 13V3ZM6 3H16V13H6V3Z" fill="#97A3BA"/>
<path d="M2 19C1.44772 19 1 19.4477 1 20C1 20.5523 1.44772 21 2 21H20C20.5523 21 21 20.5523 21 20C21 19.4477 20.5523 19 20 19H2Z" fill="#97A3BA"/>
<path d="M11 16C10.4477 16 10 16.4477 10 17C10 17.5523 10.4477 18 11 18C11.5523 18 12 17.5523 12 17C12 16.4477 11.5523 16 11 16Z" fill="#97A3BA"/>
</svg>
