<svg width="24" height="24" viewBox="0 0 24 24" fill="none" xmlns="http://www.w3.org/2000/svg">
<path fill-rule="evenodd" clip-rule="evenodd" d="M7 2H19C20.1046 2 21 2.89543 21 4V16C21 16.5523 20.5523 17 20 17C19.4477 17 19 16.5523 19 16V10H13C12.4477 10 12 9.55228 12 9C12 8.44772 12.4477 8 13 8H19V4H7C6.44772 4 6 3.55228 6 3C6 2.44772 6.44772 2 7 2Z" fill="#777B92"/>
<path fill-rule="evenodd" clip-rule="evenodd" d="M5 14H11C11.5523 14 12 14.4477 12 15C12 15.5523 11.5523 16 11 16H5V20H17C17.5523 20 18 20.4477 18 21C18 21.5523 17.5523 22 17 22H5C3.89543 22 3 21.1046 3 20V8C3 7.44772 3.44772 7 4 7C4.55228 7 5 7.44772 5 8V14Z" fill="#777B92"/>
<path fill-rule="evenodd" clip-rule="evenodd" d="M8 13C7.44772 13 7 12.5523 7 12C7 11.4477 7.44772 11 8 11C8.55228 11 9 11.4477 9 12C9 12.5523 8.55228 13 8 13Z" fill="#777B92"/>
<path fill-rule="evenodd" clip-rule="evenodd" d="M9 18C9 18.5523 8.55228 19 8 19C7.44772 19 7 18.5523 7 18C7 17.4477 7.44772 17 8 17C8.55228 17 9 17.4477 9 18Z" fill="#777B92"/>
<path fill-rule="evenodd" clip-rule="evenodd" d="M4.70711 3.29289L20.7071 19.2929C21.0976 19.6834 21.0976 20.3166 20.7071 20.7071C20.3166 21.0976 19.6834 21.0976 19.2929 20.7071L3.29289 4.70711C2.90237 4.31658 2.90237 3.68342 3.29289 3.29289C3.68342 2.90237 4.31658 2.90237 4.70711 3.29289Z" fill="#777B92"/>
</svg>
