<svg width="22" height="22" viewBox="0 0 22 22" fill="none" xmlns="http://www.w3.org/2000/svg">
<path d="M3.71315 2.29393L19.7044 18.2851C19.798 18.3781 19.8724 18.4886 19.9231 18.6104C19.9739 18.7322 20 18.8628 20 18.9948C20 19.1267 19.9739 19.2573 19.9231 19.3791C19.8724 19.5009 19.798 19.6115 19.7044 19.7044C19.6115 19.798 19.5009 19.8724 19.3791 19.9231C19.2573 19.9739 19.1267 20 18.9948 20C18.8628 20 18.7322 19.9739 18.6104 19.9231C18.4886 19.8724 18.3781 19.798 18.2851 19.7044L2.29393 3.71315C2.10573 3.52495 2 3.2697 2 3.00354C2 2.73738 2.10573 2.48213 2.29393 2.29393C2.38712 2.20074 2.49775 2.12682 2.6195 2.07639C2.74126 2.02596 2.87175 2 3.00354 2C3.13533 2 3.26582 2.02596 3.38758 2.07639C3.50933 2.12682 3.61996 2.20074 3.71315 2.29393Z" fill="#97A3BA"/>
<path d="M19.4999 15.2702L18.8832 15.6248L14.9008 11.6424L16.7599 10.5902L15.0699 9.87016L13.8257 10.5672L12.3391 9.08063L16.7599 6.54016L10.9999 4.09016L8.43822 5.17979L6.914 3.65556L10.6099 2.08016C10.7333 2.0279 10.866 2.00098 10.9999 2.00098C11.1339 2.00098 11.2666 2.0279 11.3899 2.08016L19.3899 5.49016C19.5616 5.56246 19.7097 5.68128 19.8175 5.83324C19.9253 5.98519 19.9885 6.16422 19.9999 6.35016C20.0098 6.53474 19.9683 6.71843 19.88 6.88083C19.7917 7.04324 19.6602 7.178 19.4999 7.27016L17.2399 8.57016L19.3899 9.49016C19.5616 9.56246 19.7097 9.68128 19.8175 9.83324C19.9253 9.98519 19.9885 10.1642 19.9999 10.3502C20.0098 10.5347 19.9683 10.7184 19.88 10.8808C19.7917 11.0432 19.6602 11.178 19.4999 11.2702L17.2399 12.5702L19.3899 13.4902C19.5616 13.5625 19.7097 13.6813 19.8175 13.8332C19.9253 13.9852 19.9885 14.1642 19.9999 14.3502C20.0098 14.5347 19.9683 14.7184 19.88 14.8808C19.7917 15.0432 19.6602 15.178 19.4999 15.2702Z" fill="#97A3BA"/>
<path d="M5.23995 10.5402L6.67168 9.93019L2.37282 5.63134C2.30062 5.68918 2.23644 5.75704 2.1824 5.83324C2.07462 5.98519 2.01143 6.16422 1.99995 6.35016C1.99012 6.53474 2.03165 6.71843 2.11991 6.88083C2.20817 7.04324 2.33972 7.178 2.49995 7.27016L4.75995 8.57016L2.60995 9.49016C2.43826 9.56246 2.29018 9.68128 2.1824 9.83324C2.07462 9.98519 2.01143 10.1642 1.99995 10.3502C1.99012 10.5347 2.03165 10.7184 2.11991 10.8808C2.20817 11.0432 2.33972 11.178 2.49995 11.2702L4.75995 12.5702L2.60995 13.4902C2.43826 13.5625 2.29018 13.6813 2.1824 13.8332C2.07462 13.9852 2.01143 14.1642 1.99995 14.3502C1.99012 14.5347 2.03165 14.7184 2.11991 14.8808C2.20817 15.0432 2.33972 15.178 2.49995 15.2702L10.4999 19.8702C10.652 19.9579 10.8244 20.0041 10.9999 20.0041C11.1755 20.0041 11.3479 19.9579 11.4999 19.8702L14.7455 18.004L13.2809 16.5394L10.9999 17.8502L5.23995 14.5402L6.92995 13.8202L10.4999 15.8702C10.652 15.9579 10.8244 16.0041 10.9999 16.0041C11.1755 16.0041 11.3479 15.9579 11.4999 15.8702L12.2061 15.4646L10.04 13.2985L5.23995 10.5402Z" fill="#97A3BA"/>
</svg>
