<svg width="22" height="22" viewBox="0 0 22 22" fill="none" xmlns="http://www.w3.org/2000/svg">
<path fill-rule="evenodd" clip-rule="evenodd" d="M4 2C2.89543 2 2 2.89543 2 4V8C2 9.10457 2.89543 10 4 10H10C11.1046 10 12 9.10457 12 8V4C12 2.89543 11.1046 2 10 2H4ZM10 4H4L4 8H10V4Z" fill="#97A3BA"/>
<path fill-rule="evenodd" clip-rule="evenodd" d="M12 12C10.8954 12 10 12.8954 10 14V18C10 19.1046 10.8954 20 12 20H18C19.1046 20 20 19.1046 20 18V14C20 12.8954 19.1046 12 18 12H12ZM18 14H12V18H18V14Z" fill="#97A3BA"/>
<path d="M7.39038 12.0769C7.51223 12.1277 7.62284 12.2021 7.7158 12.2958C7.80953 12.3888 7.88392 12.4994 7.93469 12.6212C7.98546 12.7431 8.0116 12.8738 8.0116 13.0058C8.0116 13.1378 7.98546 13.2685 7.93469 13.3904C7.88392 13.5122 7.80953 13.6228 7.7158 13.7158L6.4158 15.0058L7.7158 16.2958C7.80953 16.3888 7.88392 16.4994 7.93469 16.6212C7.98546 16.7431 8.0116 16.8738 8.0116 17.0058C8.0116 17.1378 7.98546 17.2685 7.93469 17.3904C7.88392 17.5122 7.80953 17.6228 7.7158 17.7158C7.62284 17.8095 7.51223 17.8839 7.39038 17.9347C7.26852 17.9855 7.13781 18.0116 7.0058 18.0116C6.87379 18.0116 6.74308 17.9855 6.62122 17.9347C6.49936 17.8839 6.38876 17.8095 6.2958 17.7158L5.0058 16.4158L3.7158 17.7158C3.62284 17.8095 3.51223 17.8839 3.39038 17.9347C3.26852 17.9855 3.13781 18.0116 3.0058 18.0116C2.87379 18.0116 2.74308 17.9855 2.62122 17.9347C2.49936 17.8839 2.38876 17.8095 2.2958 17.7158C2.20207 17.6228 2.12768 17.5122 2.07691 17.3904C2.02614 17.2685 2 17.1378 2 17.0058C2 16.8738 2.02614 16.7431 2.07691 16.6212C2.12768 16.4994 2.20207 16.3888 2.2958 16.2958L3.5958 15.0058L2.2958 13.7158C2.10749 13.5275 2.00171 13.2721 2.00171 13.0058C2.00171 12.7395 2.10749 12.4841 2.2958 12.2958C2.4841 12.1075 2.7395 12.0017 3.0058 12.0017C3.2721 12.0017 3.52749 12.1075 3.7158 12.2958L5.0058 13.5958L6.2958 12.2958C6.38876 12.2021 6.49936 12.1277 6.62122 12.0769C6.74308 12.0261 6.87379 12 7.0058 12C7.13781 12 7.26852 12.0261 7.39038 12.0769Z" fill="#97A3BA"/>
</svg>
