<svg width="16" height="16" viewBox="0 0 16 16" fill="none" xmlns="http://www.w3.org/2000/svg">
<path fill-rule="evenodd" clip-rule="evenodd" d="M8 0.5C9.38071 0.5 10.5 1.61929 10.5 3V8C10.5 9.38071 9.38071 10.5 8 10.5C6.61929 10.5 5.5 9.38071 5.5 8V3C5.5 1.61929 6.61929 0.5 8 0.5ZM6.5 3V8C6.5 8.82843 7.17157 9.5 8 9.5C8.82843 9.5 9.5 8.82843 9.5 8V3C9.5 2.17157 8.82843 1.5 8 1.5C7.17157 1.5 6.5 2.17157 6.5 3Z" fill="#777B92"/>
<path fill-rule="evenodd" clip-rule="evenodd" d="M7.5 12.4725C5.25002 12.2238 3.5 10.3163 3.5 8C3.5 7.72386 3.72386 7.5 4 7.5C4.27614 7.5 4.5 7.72386 4.5 8C4.5 9.933 6.067 11.5 8 11.5C9.933 11.5 11.5 9.933 11.5 8C11.5 7.72386 11.7239 7.5 12 7.5C12.2761 7.5 12.5 7.72386 12.5 8C12.5 10.3163 10.75 12.2238 8.5 12.4725V14.5H10C10.2761 14.5 10.5 14.7239 10.5 15C10.5 15.2761 10.2761 15.5 10 15.5H6C5.72386 15.5 5.5 15.2761 5.5 15C5.5 14.7239 5.72386 14.5 6 14.5H7.5V12.4725Z" fill="#777B92"/>
</svg>
