<svg width="16" height="16" viewBox="0 0 16 16" fill="none" xmlns="http://www.w3.org/2000/svg">
<path fill-rule="evenodd" clip-rule="evenodd" d="M9.5 6.99982V4.61804C9.5 4.04988 9.821 3.53048 10.3292 3.2764L11.7764 2.55279C12.0234 2.42929 12.3237 2.52941 12.4472 2.7764C12.5707 3.02339 12.4706 3.32372 12.2236 3.44722L10.7764 4.17082C10.607 4.25552 10.5 4.42865 10.5 4.61804V9C10.5 10.3807 9.38071 11.5 8 11.5C6.61929 11.5 5.5 10.3807 5.5 9C5.5 7.61929 6.61929 6.5 8 6.5C8.5628 6.5 9.08217 6.68597 9.5 6.99982ZM8 7.5C7.17157 7.5 6.5 8.17157 6.5 9C6.5 9.82843 7.17157 10.5 8 10.5C8.82843 10.5 9.5 9.82843 9.5 9C9.5 8.17157 8.82843 7.5 8 7.5Z" fill="#777B92"/>
<path fill-rule="evenodd" clip-rule="evenodd" d="M4 0.5H14C14.8284 0.5 15.5 1.17157 15.5 2V12C15.5 12.8284 14.8284 13.5 14 13.5H13.5V14C13.5 14.8284 12.8284 15.5 12 15.5H2C1.17157 15.5 0.5 14.8284 0.5 14V4C0.5 3.17157 1.17157 2.5 2 2.5H2.5V2C2.5 1.17157 3.17157 0.5 4 0.5ZM12.5 13.5H4C3.17157 13.5 2.5 12.8284 2.5 12V3.5H2C1.72386 3.5 1.5 3.72386 1.5 4V14C1.5 14.2761 1.72386 14.5 2 14.5H12C12.2761 14.5 12.5 14.2761 12.5 14V13.5ZM3.5 12C3.5 12.2761 3.72386 12.5 4 12.5H14C14.2761 12.5 14.5 12.2761 14.5 12V2C14.5 1.72386 14.2761 1.5 14 1.5H4C3.72386 1.5 3.5 1.72386 3.5 2V12Z" fill="#777B92"/>
</svg>
