<svg width="16" height="16" viewBox="0 0 16 16" fill="none" xmlns="http://www.w3.org/2000/svg">
<path fill-rule="evenodd" clip-rule="evenodd" d="M12.2463 2.5649C12.4031 2.65365 12.5 2.81986 12.5 3V13C12.5 13.1801 12.4031 13.3463 12.2463 13.4351C12.0896 13.5239 11.8972 13.5214 11.7428 13.4287L6.98026 10.5713C6.90256 10.5246 6.81364 10.5 6.72302 10.5H5C4.17157 10.5 3.5 9.82843 3.5 9V7C3.5 6.17157 4.17157 5.5 5 5.5H6.72302C6.81364 5.5 6.90256 5.47537 6.98026 5.42875L11.7428 2.57125C11.8972 2.47857 12.0896 2.47615 12.2463 2.5649ZM11.5 3.8831L7.49476 6.28624C7.26164 6.42611 6.99488 6.5 6.72302 6.5H5C4.72386 6.5 4.5 6.72386 4.5 7V9C4.5 9.27614 4.72386 9.5 5 9.5H6.72302C6.99488 9.5 7.26164 9.57389 7.49476 9.71376L11.5 12.1169V3.8831Z" fill="#777B92"/>
</svg>
