<svg width="16" height="16" viewBox="0 0 16 16" fill="none" xmlns="http://www.w3.org/2000/svg">
<path fill-rule="evenodd" clip-rule="evenodd" d="M2.35355 1.64645L14.3536 13.6464C14.5488 13.8417 14.5488 14.1583 14.3536 14.3536C14.1583 14.5488 13.8417 14.5488 13.6464 14.3536L1.64645 2.35355C1.45118 2.15829 1.45118 1.84171 1.64645 1.64645C1.84171 1.45118 2.15829 1.45118 2.35355 1.64645Z" fill="#777B92"/>
<path fill-rule="evenodd" clip-rule="evenodd" d="M9.5 3V6C9.5 6.27614 9.27614 6.5 9 6.5C8.72386 6.5 8.5 6.27614 8.5 6V3.8831L7.25725 4.62875C7.02046 4.77082 6.71333 4.69404 6.57125 4.45725C6.42918 4.22046 6.50596 3.91333 6.74275 3.77125L8.74275 2.57125C8.89722 2.47857 9.08959 2.47615 9.24635 2.5649C9.4031 2.65365 9.5 2.81986 9.5 3Z" fill="#777B92"/>
<path fill-rule="evenodd" clip-rule="evenodd" d="M1 5.5H3C3.27614 5.5 3.5 5.72386 3.5 6C3.5 6.27614 3.27614 6.5 3 6.5H1.5V9.5H4C4.09062 9.5 4.17954 9.52463 4.25725 9.57125L8.5 12.1169V11C8.5 10.7239 8.72386 10.5 9 10.5C9.27614 10.5 9.5 10.7239 9.5 11V13C9.5 13.1801 9.4031 13.3463 9.24635 13.4351C9.08959 13.5239 8.89722 13.5214 8.74275 13.4287L3.86151 10.5H1C0.723858 10.5 0.5 10.2761 0.5 10V6C0.5 5.72386 0.723858 5.5 1 5.5Z" fill="#777B92"/>
<path fill-rule="evenodd" clip-rule="evenodd" d="M11 3.5C13.4853 3.5 15.5 5.51472 15.5 8C15.5 9.3441 14.9101 10.551 13.9767 11.3749C13.7697 11.5576 13.4537 11.5379 13.271 11.3309C13.0882 11.1238 13.1079 10.8079 13.315 10.6251C14.0424 9.98307 14.5 9.04529 14.5 8C14.5 6.067 12.933 4.5 11 4.5C10.7239 4.5 10.5 4.27614 10.5 4C10.5 3.72386 10.7239 3.5 11 3.5Z" fill="#777B92"/>
<path fill-rule="evenodd" clip-rule="evenodd" d="M10.5 6C10.5 5.72386 10.7239 5.5 11 5.5C12.3807 5.5 13.5 6.61929 13.5 8C13.5 8.45453 13.3782 8.88214 13.1652 9.25036C13.027 9.48939 12.7211 9.57107 12.4821 9.4328C12.243 9.29453 12.1614 8.98867 12.2996 8.74964C12.427 8.52952 12.5 8.27405 12.5 8C12.5 7.17157 11.8284 6.5 11 6.5C10.7239 6.5 10.5 6.27614 10.5 6Z" fill="#777B92"/>
</svg>
