<svg width="16" height="16" viewBox="0 0 16 16" fill="none" xmlns="http://www.w3.org/2000/svg">
<path fill-rule="evenodd" clip-rule="evenodd" d="M12.8787 1.79571L6.87873 3.29571C6.65615 3.35136 6.5 3.55135 6.5 3.78078V12.5C6.5 12.5534 6.49163 12.6049 6.47613 12.6531C6.49187 12.7665 6.5 12.8823 6.5 13C6.5 14.3807 5.38071 15.5 4 15.5C2.61929 15.5 1.5 14.3807 1.5 13C1.5 11.6193 2.61929 10.5 4 10.5C4.5628 10.5 5.08217 10.686 5.5 10.9998V3.78078C5.5 3.09248 5.96845 2.49251 6.6362 2.32557L12.6362 0.82557C13.5829 0.58889 14.5 1.30493 14.5 2.28078V10.5C14.5 10.5534 14.4916 10.6049 14.4761 10.6531C14.4919 10.7665 14.5 10.8823 14.5 11C14.5 12.3807 13.3807 13.5 12 13.5C10.6193 13.5 9.5 12.3807 9.5 11C9.5 9.61929 10.6193 8.5 12 8.5C12.5628 8.5 13.0822 8.68597 13.5 8.99982V2.28078C13.5 1.9555 13.1943 1.71682 12.8787 1.79571ZM12 9.5C11.1716 9.5 10.5 10.1716 10.5 11C10.5 11.8284 11.1716 12.5 12 12.5C12.8284 12.5 13.5 11.8284 13.5 11C13.5 10.1716 12.8284 9.5 12 9.5ZM4 11.5C3.17157 11.5 2.5 12.1716 2.5 13C2.5 13.8284 3.17157 14.5 4 14.5C4.82843 14.5 5.5 13.8284 5.5 13C5.5 12.1716 4.82843 11.5 4 11.5Z" fill="#777B92"/>
</svg>
