<svg width="16" height="16" viewBox="0 0 16 16" fill="none" xmlns="http://www.w3.org/2000/svg">
<path fill-rule="evenodd" clip-rule="evenodd" d="M4.5 4C4.5 2.067 6.067 0.5 8 0.5C9.933 0.5 11.5 2.067 11.5 4C11.5 5.933 9.933 7.5 8 7.5C6.067 7.5 4.5 5.933 4.5 4ZM8 1.5C6.61929 1.5 5.5 2.61929 5.5 4C5.5 5.38071 6.61929 6.5 8 6.5C9.38071 6.5 10.5 5.38071 10.5 4C10.5 2.61929 9.38071 1.5 8 1.5Z" fill="#777B92"/>
<path fill-rule="evenodd" clip-rule="evenodd" d="M14.2236 10.4472L13.7764 10.6708C13.607 10.7555 13.5 10.9287 13.5 11.118V13L13.5 13.0032C13.4982 13.8302 12.8273 14.5 12 14.5C11.1716 14.5 10.5 13.8284 10.5 13C10.5 12.1716 11.1716 11.5 12 11.5C12.1753 11.5 12.3436 11.5301 12.5 11.5854V11.118C12.5 10.5499 12.821 10.0305 13.3292 9.7764L13.7764 9.55279C14.0234 9.42929 14.3237 9.52941 14.4472 9.7764C14.5707 10.0234 14.4706 10.3237 14.2236 10.4472ZM12.5 13C12.5 12.7239 12.2761 12.5 12 12.5C11.7239 12.5 11.5 12.7239 11.5 13C11.5 13.2761 11.7239 13.5 12 13.5C12.2761 13.5 12.5 13.2761 12.5 13Z" fill="#777B92"/>
<path fill-rule="evenodd" clip-rule="evenodd" d="M2.5 15C2.5 15.2761 2.27614 15.5 2 15.5C1.72386 15.5 1.5 15.2761 1.5 15C1.5 11.4101 4.41015 8.5 8 8.5C9.1831 8.5 10.2938 8.81654 11.2504 9.36989C11.4894 9.50816 11.5711 9.81403 11.4328 10.0531C11.2945 10.2921 10.9887 10.3738 10.7496 10.2355C9.94117 9.76782 9.00262 9.5 8 9.5C4.96243 9.5 2.5 11.9624 2.5 15Z" fill="#777B92"/>
</svg>
