<svg width="16" height="16" viewBox="0 0 16 16" fill="none" xmlns="http://www.w3.org/2000/svg">
<path fill-rule="evenodd" clip-rule="evenodd" d="M9.5 3V13C9.5 13.1801 9.4031 13.3463 9.24635 13.4351C9.08959 13.5239 8.89722 13.5214 8.74275 13.4287L3.98026 10.5713C3.90256 10.5246 3.81364 10.5 3.72302 10.5H2C1.17157 10.5 0.5 9.82843 0.5 9V7C0.5 6.17157 1.17157 5.5 2 5.5H3.72302C3.81364 5.5 3.90256 5.47537 3.98026 5.42875L8.74275 2.57125C8.89722 2.47857 9.08959 2.47615 9.24635 2.5649C9.4031 2.65365 9.5 2.81986 9.5 3ZM4.49476 6.28624C4.26164 6.42611 3.99488 6.5 3.72302 6.5H2C1.72386 6.5 1.5 6.72386 1.5 7V9C1.5 9.27614 1.72386 9.5 2 9.5H3.72302C3.99488 9.5 4.26164 9.57389 4.49476 9.71376L8.5 12.1169V3.8831L4.49476 6.28624Z" fill="#777B92"/>
<path fill-rule="evenodd" clip-rule="evenodd" d="M14.1464 6.14645C14.3417 5.95118 14.6583 5.95118 14.8536 6.14645C15.0488 6.34171 15.0488 6.65829 14.8536 6.85355L13.7071 8L14.8536 9.14645C15.0488 9.34171 15.0488 9.65829 14.8536 9.85355C14.6583 10.0488 14.3417 10.0488 14.1464 9.85355L13 8.70711L11.8536 9.85355C11.6583 10.0488 11.3417 10.0488 11.1464 9.85355C10.9512 9.65829 10.9512 9.34171 11.1464 9.14645L12.2929 8L11.1464 6.85355C10.9512 6.65829 10.9512 6.34171 11.1464 6.14645C11.3417 5.95118 11.6583 5.95118 11.8536 6.14645L13 7.29289L14.1464 6.14645Z" fill="#777B92"/>
</svg>
