<svg width="16" height="16" viewBox="0 0 16 16" fill="none" xmlns="http://www.w3.org/2000/svg">
<path fill-rule="evenodd" clip-rule="evenodd" d="M9.5 3V13C9.5 13.1801 9.4031 13.3463 9.24635 13.4351C9.08959 13.5239 8.89722 13.5214 8.74275 13.4287L3.98026 10.5713C3.90256 10.5246 3.81364 10.5 3.72302 10.5H2C1.17157 10.5 0.5 9.82843 0.5 9V7C0.5 6.17157 1.17157 5.5 2 5.5H3.72302C3.81364 5.5 3.90256 5.47537 3.98026 5.42875L8.74275 2.57125C8.89722 2.47857 9.08959 2.47615 9.24635 2.5649C9.4031 2.65365 9.5 2.81986 9.5 3ZM4.49476 6.28624C4.26164 6.42611 3.99488 6.5 3.72302 6.5H2C1.72386 6.5 1.5 6.72386 1.5 7V9C1.5 9.27614 1.72386 9.5 2 9.5H3.72302C3.99488 9.5 4.26164 9.57389 4.49476 9.71376L8.5 12.1169V3.8831L4.49476 6.28624Z" fill="#777B92"/>
<path d="M11 5.5C12.3807 5.5 13.5 6.61929 13.5 8C13.5 9.38071 12.3807 10.5 11 10.5C10.7239 10.5 10.5 10.2761 10.5 10C10.5 9.72386 10.7239 9.5 11 9.5C11.8284 9.5 12.5 8.82843 12.5 8C12.5 7.17157 11.8284 6.5 11 6.5C10.7239 6.5 10.5 6.27614 10.5 6C10.5 5.72386 10.7239 5.5 11 5.5Z" fill="#777B92"/>
</svg>
