<svg width="16" height="16" viewBox="0 0 16 16" fill="none" xmlns="http://www.w3.org/2000/svg">
<path fill-rule="evenodd" clip-rule="evenodd" d="M8.5 7.99982V5.61804C8.5 5.04988 8.821 4.53048 9.32918 4.2764L10.7764 3.55279C11.0234 3.42929 11.3237 3.52941 11.4472 3.7764C11.5707 4.02339 11.4706 4.32372 11.2236 4.44722L9.77639 5.17082C9.607 5.25552 9.5 5.42865 9.5 5.61804V10C9.5 11.3807 8.38071 12.5 7 12.5C5.61929 12.5 4.5 11.3807 4.5 10C4.5 8.61929 5.61929 7.5 7 7.5C7.5628 7.5 8.08217 7.68597 8.5 7.99982ZM7 8.5C6.17157 8.5 5.5 9.17157 5.5 10C5.5 10.8284 6.17157 11.5 7 11.5C7.82843 11.5 8.5 10.8284 8.5 10C8.5 9.17157 7.82843 8.5 7 8.5Z" fill="#777B92"/>
<path fill-rule="evenodd" clip-rule="evenodd" d="M0.5 8C0.5 3.85786 3.85786 0.5 8 0.5C12.1421 0.5 15.5 3.85786 15.5 8C15.5 12.1421 12.1421 15.5 8 15.5C3.85786 15.5 0.5 12.1421 0.5 8ZM8 1.5C4.41015 1.5 1.5 4.41015 1.5 8C1.5 11.5899 4.41015 14.5 8 14.5C11.5899 14.5 14.5 11.5899 14.5 8C14.5 4.41015 11.5899 1.5 8 1.5Z" fill="#777B92"/>
</svg>
