<svg fill="none" xmlns="http://www.w3.org/2000/svg" viewBox="0 0 16 12"><g clip-path="url(#BA - Bosnia and Herzegovina__a)"><mask id="BA - Bosnia and Herzegovina__b" style="mask-type:alpha" maskUnits="userSpaceOnUse" x="0" y="0" width="17" height="12"><path fill="#fff" d="M0 0h17v12H0z"/></mask><g mask="url(#BA - Bosnia and Herzegovina__b)" fill-rule="evenodd" clip-rule="evenodd"><path d="M0 0h16v12H0V0Z" fill="#2E42A5"/><path d="M5 0h10v12L5 0Z" fill="#FECA00"/><path d="m3.554 1.397-.588.309.112-.655-.475-.463.657-.096.294-.595.294.595.657.096-.475.463.112.655-.588-.31Zm1.743 2.14-.587.309.112-.655-.476-.463.657-.096.294-.595.294.595.657.096-.475.463.112.655-.588-.309ZM6.932 5.62l-.588.308.112-.654-.475-.464.657-.095.294-.596.294.596.657.095-.476.464.112.654-.587-.309Zm1.601 1.995-.588.309.112-.655-.475-.463.657-.096.294-.595.294.595.657.096-.476.463.112.655-.587-.31Zm1.724 2.053-.588.31.113-.655-.476-.464.657-.095.294-.596.294.596.657.095-.475.464.112.654-.588-.309Zm1.906 1.987-.587.31.112-.655-.476-.463.658-.096.293-.595.294.595.657.096-.475.463.112.654-.588-.309Z" fill="#F7FCFF"/></g><path fill="url(#BA - Bosnia and Herzegovina__c)" style="mix-blend-mode:overlay" d="M0 0h16v12H0z"/></g><defs><linearGradient id="BA - Bosnia and Herzegovina__c" x1="8" y1="0" x2="8" y2="12" gradientUnits="userSpaceOnUse"><stop stop-color="#fff" stop-opacity=".7"/><stop offset="1" stop-opacity=".3"/></linearGradient><clipPath id="BA - Bosnia and Herzegovina__a"><rect width="16" height="12" rx="1" fill="#fff"/></clipPath></defs></svg>