<svg fill="none" xmlns="http://www.w3.org/2000/svg" viewBox="0 0 16 12"><g clip-path="url(#ET - Ethiopia__a)"><mask id="ET - Ethiopia__b" style="mask-type:alpha" maskUnits="userSpaceOnUse" x="0" y="0" width="16" height="12"><path fill="#fff" d="M0 0h16v12H0z"/></mask><g mask="url(#ET - Ethiopia__b)"><path fill-rule="evenodd" clip-rule="evenodd" d="M0 0v12h16V0H0Z" fill="#FECA00"/><mask id="ET - Ethiopia__c" style="mask-type:alpha" maskUnits="userSpaceOnUse" x="0" y="0" width="16" height="12"><path fill-rule="evenodd" clip-rule="evenodd" d="M0 0v12h16V0H0Z" fill="#fff"/></mask><g mask="url(#ET - Ethiopia__c)"><path fill-rule="evenodd" clip-rule="evenodd" d="M0 0v4h16V0H0Z" fill="#5EAA22"/><path fill-rule="evenodd" clip-rule="evenodd" d="M0 8v4h16V8H0Z" fill="#E31D1C"/><path fill-rule="evenodd" clip-rule="evenodd" d="M8 9a3 3 0 1 0 0-6 3 3 0 0 0 0 6Z" fill="#2B77B8"/><path clip-rule="evenodd" d="m8 7-1.381.463.43-1.154-.937-1.118h1.3L8 4l.588 1.191h1.328l-.965 1.118.343 1.154L8 7Z" stroke="#FECA00" stroke-width=".75"/><path d="m7.848 6.017-1.042 2.18m.878-2.457h-2m2.376.679 1.955.902M8.483 5.937l1.415-1.549" stroke="#2B77B8" stroke-width=".5"/></g></g><path fill="url(#ET - Ethiopia__d)" style="mix-blend-mode:overlay" d="M0 0h16v12H0z"/></g><defs><linearGradient id="ET - Ethiopia__d" x1="8" y1="0" x2="8" y2="12" gradientUnits="userSpaceOnUse"><stop stop-color="#fff" stop-opacity=".7"/><stop offset="1" stop-opacity=".3"/></linearGradient><clipPath id="ET - Ethiopia__a"><rect width="16" height="12" rx="1" fill="#fff"/></clipPath></defs></svg>