<svg fill="none" xmlns="http://www.w3.org/2000/svg" viewBox="0 0 16 12"><g clip-path="url(#IL - Isreal__a)"><mask id="IL - Isreal__b" style="mask-type:alpha" maskUnits="userSpaceOnUse" x="0" y="0" width="16" height="12"><path fill="#fff" d="M0 0h16v12H0z"/></mask><g mask="url(#IL - Isreal__b)"><path fill-rule="evenodd" clip-rule="evenodd" d="M0 0v12h16V0H0Z" fill="#F7FCFF"/><mask id="IL - Isreal__c" style="mask-type:alpha" maskUnits="userSpaceOnUse" x="0" y="0" width="16" height="12"><path fill-rule="evenodd" clip-rule="evenodd" d="M0 0v12h16V0H0Z" fill="#fff"/></mask><g mask="url(#IL - Isreal__c)" fill-rule="evenodd" clip-rule="evenodd" fill="#3D58DB"><path d="M0 2v1.783h16V2H0Zm0 6.174V10h16V8.174H0Z"/><path d="M5.69 7.47h4.69L8.057 3.46 5.691 7.47Zm3.735-.55H6.654l1.4-2.371 1.371 2.37Z"/><path d="M5.546 4.463h4.794L8.068 8.485 5.546 4.463Zm3.852.55H6.54L8.043 7.41l1.355-2.398Z"/></g></g><path fill="url(#IL - Isreal__d)" style="mix-blend-mode:overlay" d="M0 0h16v12H0z"/></g><defs><linearGradient id="IL - Isreal__d" x1="8" y1="0" x2="8" y2="12" gradientUnits="userSpaceOnUse"><stop stop-color="#fff" stop-opacity=".7"/><stop offset="1" stop-opacity=".3"/></linearGradient><clipPath id="IL - Isreal__a"><rect width="16" height="12" rx="1" fill="#fff"/></clipPath></defs></svg>