<svg fill="none" xmlns="http://www.w3.org/2000/svg" viewBox="0 0 16 12"><g clip-path="url(#JO - Jordan__a)"><mask id="JO - Jordan__b" style="mask-type:alpha" maskUnits="userSpaceOnUse" x="0" y="0" width="16" height="12"><path fill="#fff" d="M0 0h16v12H0z"/></mask><g mask="url(#JO - Jordan__b)"><path fill-rule="evenodd" clip-rule="evenodd" d="M0 0v12h16V0H0Z" fill="#F7FCFF"/><mask id="JO - Jordan__c" style="mask-type:alpha" maskUnits="userSpaceOnUse" x="0" y="0" width="16" height="12"><path fill-rule="evenodd" clip-rule="evenodd" d="M0 0v12h16V0H0Z" fill="#fff"/></mask><g mask="url(#JO - Jordan__c)" fill-rule="evenodd" clip-rule="evenodd"><path d="M0 0v4h16V0H0Z" fill="#272727"/><path d="M0 8v4h16V8H0Z" fill="#093"/></g><path fill-rule="evenodd" clip-rule="evenodd" d="M0 0v12l10-6L0 0Z" fill="#E31D1C"/><mask id="JO - Jordan__d" style="mask-type:alpha" maskUnits="userSpaceOnUse" x="0" y="0" width="10" height="12"><path fill-rule="evenodd" clip-rule="evenodd" d="M0 0v12l10-6L0 0Z" fill="#fff"/></mask><g mask="url(#JO - Jordan__d)"><path fill-rule="evenodd" clip-rule="evenodd" d="m4.5 6.935-.934.565.213-1.102L3 5.573l1.055-.044L4.5 4.5l.446 1.029H6l-.777.87.234 1.101-.956-.565Z" fill="#F7FCFF"/></g></g><path fill="url(#JO - Jordan__e)" style="mix-blend-mode:overlay" d="M0 0h16v12H0z"/></g><defs><linearGradient id="JO - Jordan__e" x1="8" y1="0" x2="8" y2="12" gradientUnits="userSpaceOnUse"><stop stop-color="#fff" stop-opacity=".7"/><stop offset="1" stop-opacity=".3"/></linearGradient><clipPath id="JO - Jordan__a"><rect width="16" height="12" rx="1" fill="#fff"/></clipPath></defs></svg>