<svg fill="none" xmlns="http://www.w3.org/2000/svg" viewBox="0 0 16 12"><g clip-path="url(#MK - Former Yugoslav Republic of Macedonia__a)"><mask id="MK - Former Yugoslav Republic of Macedonia__b" style="mask-type:alpha" maskUnits="userSpaceOnUse" x="0" y="0" width="16" height="12"><path fill="#fff" d="M0 0h16v12H0z"/></mask><g mask="url(#MK - Former Yugoslav Republic of Macedonia__b)"><path fill-rule="evenodd" clip-rule="evenodd" d="M0 0v12h16V0H0Z" fill="#F50100"/><mask id="MK - Former Yugoslav Republic of Macedonia__c" style="mask-type:alpha" maskUnits="userSpaceOnUse" x="0" y="0" width="16" height="12"><path fill-rule="evenodd" clip-rule="evenodd" d="M0 0v12h16V0H0Z" fill="#fff"/></mask><g mask="url(#MK - Former Yugoslav Republic of Macedonia__c)" fill="#FFD018"><path fill-rule="evenodd" clip-rule="evenodd" d="M0-.021v2.042l7 2.976L1.628-.021H0ZM8 6l1.5-6h-3L8 6Zm0 0-1.5 6h3L8 6ZM0 9.976v2.042h1.628L7 7 0 9.976Zm16-7.943V-.009h-1.628L9 5.01l7-2.976Zm0 9.997V9.988L9 7.012l5.372 5.018H16Zm0-7.53L10 6l6 1.5v-3ZM6 6 0 4.5v3L6 6Z"/><path d="M8 8.5a2.5 2.5 0 1 0 0-5 2.5 2.5 0 0 0 0 5Z" stroke="#F50100"/></g></g><path fill="url(#MK - Former Yugoslav Republic of Macedonia__d)" style="mix-blend-mode:overlay" d="M0 0h16v12H0z"/></g><defs><linearGradient id="MK - Former Yugoslav Republic of Macedonia__d" x1="8" y1="0" x2="8" y2="12" gradientUnits="userSpaceOnUse"><stop stop-color="#fff" stop-opacity=".7"/><stop offset="1" stop-opacity=".3"/></linearGradient><clipPath id="MK - Former Yugoslav Republic of Macedonia__a"><rect width="16" height="12" rx="1" fill="#fff"/></clipPath></defs></svg>