<svg fill="none" xmlns="http://www.w3.org/2000/svg" viewBox="0 0 16 12"><g clip-path="url(#MR - Mauritania__a)"><mask id="MR - Mauritania__b" style="mask-type:alpha" maskUnits="userSpaceOnUse" x="0" y="0" width="16" height="12"><path fill="#fff" d="M0 0h16v12H0z"/></mask><g mask="url(#MR - Mauritania__b)"><path fill-rule="evenodd" clip-rule="evenodd" d="M0 0v12h16V0H0Z" fill="#1C7B4D"/><mask id="MR - Mauritania__c" style="mask-type:alpha" maskUnits="userSpaceOnUse" x="0" y="0" width="16" height="12"><path fill-rule="evenodd" clip-rule="evenodd" d="M0 0v12h16V0H0Z" fill="#fff"/></mask><g mask="url(#MR - Mauritania__c)" fill-rule="evenodd" clip-rule="evenodd"><path d="M0 0v3h16V0H0Zm0 9v3h16V9H0Z" fill="#E31D1C"/><path d="M8.121 7.19c2.593.014 3.323-2.157 3.323-2.157C11.297 6.89 10.27 8.15 8.12 8.15S5.183 6.518 4.798 4.89c0 0 .73 2.285 3.323 2.3Z" fill="#FECA00"/><path d="m8.819 4.907.168.982-.882-.464-.881.464.168-.982-.713-.767h.985l.441-.965.441.965h.986l-.713.767Z" fill="#FECA00"/></g></g><path fill="url(#MR - Mauritania__d)" style="mix-blend-mode:overlay" d="M0 0h16v12H0z"/></g><defs><linearGradient id="MR - Mauritania__d" x1="8" y1="0" x2="8" y2="12" gradientUnits="userSpaceOnUse"><stop stop-color="#fff" stop-opacity=".7"/><stop offset="1" stop-opacity=".3"/></linearGradient><clipPath id="MR - Mauritania__a"><rect width="16" height="12" rx="1" fill="#fff"/></clipPath></defs></svg>