<svg fill="none" xmlns="http://www.w3.org/2000/svg" viewBox="0 0 16 12"><g clip-path="url(#MS - Montserrat__a)"><mask id="MS - Montserrat__b" style="mask-type:alpha" maskUnits="userSpaceOnUse" x="0" y="0" width="16" height="12"><path fill="#fff" d="M0 0h16v12H0z"/></mask><g mask="url(#MS - Montserrat__b)"><path fill-rule="evenodd" clip-rule="evenodd" d="M0 0v12h16V0H0Z" fill="#2E42A5"/><mask id="MS - Montserrat__c" style="mask-type:alpha" maskUnits="userSpaceOnUse" x="0" y="0" width="16" height="12"><path fill-rule="evenodd" clip-rule="evenodd" d="M0 0v12h16V0H0Z" fill="#fff"/></mask><g mask="url(#MS - Montserrat__c)"><mask id="MS - Montserrat__d" style="mask-type:alpha" maskUnits="userSpaceOnUse" x="0" y="0" width="9" height="7"><path fill="#fff" d="M0 0h9v7H0z"/></mask><g mask="url(#MS - Montserrat__d)"><path d="m-1.002 6.5 1.98.869L9.045.944l1.045-1.29-2.118-.29-3.29 2.768-2.649 1.865L-1.002 6.5Z" fill="#F7FCFF"/><path d="m-.731 7.108 1.009.505 9.436-8.08H8.298L-.731 7.109Z" fill="#F50100"/><path d="m10.002 6.5-1.98.869L-.045.944-1.09-.346l2.118-.29 3.29 2.768 2.649 1.865L10.002 6.5Z" fill="#F7FCFF"/><path d="m9.935 6.937-1.01.504-4.018-3.46-1.19-.386L-1.19-.342H.227L5.13 3.502l1.303.463 3.502 2.972Z" fill="#F50100"/><mask id="MS - Montserrat__e" maskUnits="userSpaceOnUse" x="-1" y="-1" width="11" height="9" fill="#000"><path fill="#fff" d="M-1-1h11v9H-1z"/><path fill-rule="evenodd" clip-rule="evenodd" d="M4.992 0h-1v3H0v1h3.992v3h1V4H9V3H4.992V0Z"/></mask><path fill-rule="evenodd" clip-rule="evenodd" d="M4.992 0h-1v3H0v1h3.992v3h1V4H9V3H4.992V0Z" fill="#F50100"/><path d="M3.992 0v-.75h-.75V0h.75Zm1 0h.75v-.75h-.75V0Zm-1 3v.75h.75V3h-.75ZM0 3v-.75h-.75V3H0Zm0 1h-.75v.75H0V4Zm3.992 0h.75v-.75h-.75V4Zm0 3h-.75v.75h.75V7Zm1 0v.75h.75V7h-.75Zm0-3v-.75h-.75V4h.75ZM9 4v.75h.75V4H9Zm0-1h.75v-.75H9V3ZM4.992 3h-.75v.75h.75V3Zm-1-2.25h1v-1.5h-1v1.5ZM4.742 3V0h-1.5v3h1.5ZM0 3.75h3.992v-1.5H0v1.5ZM.75 4V3h-1.5v1h1.5Zm3.242-.75H0v1.5h3.992v-1.5ZM4.742 7V4h-1.5v3h1.5Zm.25-.75h-1v1.5h1v-1.5ZM4.242 4v3h1.5V4h-1.5ZM9 3.25H4.992v1.5H9v-1.5ZM8.25 3v1h1.5V3h-1.5Zm-3.258.75H9v-1.5H4.992v1.5ZM4.242 0v3h1.5V0h-1.5Z" fill="#F7FCFF" mask="url(#MS - Montserrat__e)"/></g><path d="M12.464 10.957c-.647 0-1.102-.15-1.427-.414-.326-.265-.537-.659-.672-1.177-.135-.52-.19-1.154-.21-1.889a52.807 52.807 0 0 1-.01-1.677c.002-.215.003-.434.003-.658h4.688c.083 1.479.115 2.926-.181 4.011-.152.555-.387 1.004-.735 1.314-.346.308-.815.49-1.456.49Z" fill="#6DC2FF" stroke="#F7FCFF" stroke-width=".25"/><mask id="MS - Montserrat__f" style="mask-type:alpha" maskUnits="userSpaceOnUse" x="10" y="5" width="6" height="7"><path d="M12.464 10.957c-.647 0-1.102-.15-1.427-.414-.326-.265-.537-.659-.672-1.177-.135-.52-.19-1.154-.21-1.889a52.807 52.807 0 0 1-.01-1.677c.002-.215.003-.434.003-.658h4.688c.083 1.479.115 2.926-.181 4.011-.152.555-.387 1.004-.735 1.314-.346.308-.815.49-1.456.49Z" fill="#fff" stroke="#fff" stroke-width=".25"/></mask><g mask="url(#MS - Montserrat__f)"><path fill="#2EBED7" d="M9.966 5h5.035v4.056H9.966z"/><path fill="#A95601" d="M9.9 9.023h5.3V11.1H9.9z"/><path d="M12.873 6.76s-.934.216-.843 0c.09-.215.331-.99.331-.99" stroke="#FFC6B5" stroke-width=".5"/><path fill-rule="evenodd" clip-rule="evenodd" d="M13.154 6.914s-.17-.106-.17-.3c0-.192-.416-.265-.123-.566.293-.302.419-.17.419 0 0 .168.235.567.235.567l-.361.3Z" fill="#FFC6B5"/><path fill-rule="evenodd" clip-rule="evenodd" d="M12.682 5.165h-.463v.461h-.928v.462h.928v4.023h.463V6.088h.928v-.462h-.928v-.461Z" fill="#272727"/><path fill-rule="evenodd" clip-rule="evenodd" d="M13.681 10.247s-.169-.794-.169-1.338c0-.543-.282-.932-.202-1.219.081-.287.276-.605.178-.802-.097-.196.095-.292-.178-.196-.273.095-.346-.096-.61 0-.263.095-.296.548-.296.677s.117.998.117 1.27c0 .27-.097 1.938.18 1.938.276 0 .577-.434.682-.434.106 0 .298.104.298.104Z" fill="#0C7C38"/><path clip-rule="evenodd" d="M12.015 8.122c-.168 0-.014.398-.442.572-.429.174-.513.42-.378.42s1.203 1.22 1.203 1.22l.261-.412v-1.3s-.476-.5-.644-.5Z" stroke="#FF9A06" stroke-width=".5"/><path d="M13.272 10.164s.2.429 0 .429" stroke="#979797" stroke-width=".5"/><path d="M13.207 6.927s-.088.49-.255.592c-.167.102-.854.3-.854.47 0 .17-.069.23-.069.23" stroke="#FFC6B5" stroke-width=".5"/><path fill-rule="evenodd" clip-rule="evenodd" d="M12.874 5.916s.168.203.262.538.367.45.367.293c0-.157.202-.83 0-.83h-.63Z" fill="#FF9A06"/></g></g></g><path fill="url(#MS - Montserrat__g)" style="mix-blend-mode:overlay" d="M0 0h16v12H0z"/></g><defs><linearGradient id="MS - Montserrat__g" x1="8" y1="0" x2="8" y2="12" gradientUnits="userSpaceOnUse"><stop stop-color="#fff" stop-opacity=".7"/><stop offset="1" stop-opacity=".3"/></linearGradient><clipPath id="MS - Montserrat__a"><rect width="16" height="12" rx="1" fill="#fff"/></clipPath></defs></svg>