<svg fill="none" xmlns="http://www.w3.org/2000/svg" viewBox="0 0 16 12"><g clip-path="url(#NA - Namibia__a)"><mask id="NA - Namibia__b" style="mask-type:alpha" maskUnits="userSpaceOnUse" x="0" y="0" width="16" height="12"><path fill="#fff" d="M0 0h16v12H0z"/></mask><g mask="url(#NA - Namibia__b)"><path fill-rule="evenodd" clip-rule="evenodd" d="M0 0v12h16V0H0Z" fill="#093"/><mask id="NA - Namibia__c" style="mask-type:alpha" maskUnits="userSpaceOnUse" x="0" y="0" width="16" height="12"><path fill-rule="evenodd" clip-rule="evenodd" d="M0 0v12h16V0H0Z" fill="#fff"/></mask><g mask="url(#NA - Namibia__c)"><path fill-rule="evenodd" clip-rule="evenodd" d="M0 0v12L16 0H0Z" fill="#3195F9"/><path d="m-.506 13.547.265.48.454-.308L17.629 1.864l.35-.24-.178-.384-1.171-2.52-.246-.528-.485.323-17.678 11.778-.382.255.222.403 1.433 2.596Z" fill="#E31D1C" stroke="#F7FCFF"/><path fill-rule="evenodd" clip-rule="evenodd" d="m3.115 4.622-.647.808-.157-1.023-.964.376.376-.964L.7 3.662l.807-.647L.7 2.368l1.023-.157-.376-.964.964.376L2.468.6l.647.807L3.762.6l.157 1.023.964-.376-.376.964 1.023.157-.808.647.808.647-1.023.157.376.964-.964-.376-.157 1.023-.647-.808Zm0-.357a1.25 1.25 0 1 0 0-2.5 1.25 1.25 0 0 0 0 2.5Zm1-1.25a1 1 0 1 1-2 0 1 1 0 0 1 2 0Z" fill="#FECA00"/></g></g><path fill="url(#NA - Namibia__d)" style="mix-blend-mode:overlay" d="M0 0h16v12H0z"/></g><defs><linearGradient id="NA - Namibia__d" x1="8" y1="0" x2="8" y2="12" gradientUnits="userSpaceOnUse"><stop stop-color="#fff" stop-opacity=".7"/><stop offset="1" stop-opacity=".3"/></linearGradient><clipPath id="NA - Namibia__a"><rect width="16" height="12" rx="1" fill="#fff"/></clipPath></defs></svg>