<svg fill="none" xmlns="http://www.w3.org/2000/svg" viewBox="0 0 16 12"><g clip-path="url(#PN - Pitcairn Islands__a)"><mask id="PN - Pitcairn Islands__b" style="mask-type:alpha" maskUnits="userSpaceOnUse" x="0" y="0" width="16" height="12"><path fill="#fff" d="M0 0h16v12H0z"/></mask><g mask="url(#PN - Pitcairn Islands__b)"><path fill-rule="evenodd" clip-rule="evenodd" d="M0 0v12h16V0H0Z" fill="#2E42A5"/><mask id="PN - Pitcairn Islands__c" style="mask-type:alpha" maskUnits="userSpaceOnUse" x="0" y="0" width="16" height="12"><path fill-rule="evenodd" clip-rule="evenodd" d="M0 0v12h16V0H0Z" fill="#fff"/></mask><g mask="url(#PN - Pitcairn Islands__c)"><path fill-rule="evenodd" clip-rule="evenodd" d="M10.308 5.835s.05.52-.059.814c-.108.295-.163.466-.163.277 0-.188-.076-.337-.137-.337-.061 0-.013.187-.075.187-.061 0-.273.032-.273-.078s-.028.294.11.33c.137.036-.067.148-.158.113 0 0 .375.116.522.214 0 0 .44.523.852.46 0 0-.56-.185-.462-.536.099-.352.462-.403.462-.403s.17.054.166.196c-.005.142.124-.044.124-.044s.021-.18-.002-.223c-.023-.044.39-.129.417-.313 0 0-.423.018-.452-.03-.029-.047.131-.121.081-.213-.05-.093-.796.527-.796.527s.258-.422.258-.648c0-.227-.066-.382-.258-.382s-.157.089-.157.089Zm3.884.123v.001c.028-.026.2-.176.343-.057.157.129-.079.255-.079.255s.11.101.236.101.157-.101.157-.101.01.225.42.31c0 0 .147-.199 0-.308 0 0 .174-.034.16-.168 0 0-.141.046-.243-.06-.101-.105-.299-.154-.443-.13-.365-.125-.53.12-.551.157Z" fill="#5EAA22"/><path fill-rule="evenodd" clip-rule="evenodd" d="M11.702 7.097s.424.759.16.916c-.266.157 1.26.045 1.405 0 .144-.045-.03-.285-.189-.35-.16-.067-.816-.288-.99-.455-.174-.167-.068-.226.073-.39.14-.165.66-.23.66-.384s.33-.788.561-.836c.231-.048.107-.123.053-.123-.053 0-.372.312-.492.256-.121-.057-.136-.053 0-.189.135-.136.237-.293.058-.18-.18.113-.475.291-.617.291-.143 0-.649-.06-.586.078.063.138.09.378.363.54.273.163.154.281-.073.438a1.715 1.715 0 0 0-.386.388Z" fill="#96877D"/><path d="m14.52 6.094-.81 1.541s-.023.436.555.146c.579-.29.556-.496.723-.496.166 0 .22-.088.22-.088l-.112-.083s-.013-.152.058-.186c0 0-.138-.072-.158-.012-.02.06-.117-.126-.062-.126 0 0-.122.187-.147.26 0 0-.177-.068-.168-.383.008-.315-.1-.573-.1-.573Zm-3.852-.244s-.412.09-.367.186c.044.094.11-.003-.092.111 0 0-.355.26-.432.232-.077-.028.055.066.055-.232 0-.297-.206-.055 0-.254.206-.198.278-.043.377-.158.099-.114.01-.053.278-.053.269 0 .181.168.181.168Zm1.257 1.532s-1.153.86-1.384.925c-.23.064.474-.018.647-.131.172-.114.737-.794.737-.794Z" fill="#FFD018"/><path fill-rule="evenodd" clip-rule="evenodd" d="M14.212 8.892s.111.679-.178.612c-.29-.067-.41-.101-.41-.101s.107.316.258.316c0 0 .259.478.16.629 0 0 .444-.343.372-.616-.072-.272.115.045.115.045s.164.075.282-.008c.118-.084-.002-.047-.12-.207-.118-.16-.089-.607-.449-.84-.36-.232-.443-.224-.443-.224s-.265-.412-.106-.385c0 0 1.137.37 1.167.466.03.095.33.077.18-.194-.15-.272-.964-.435-1.06-.512-.098-.077-.008-.367-.181-.43-.174-.063-.649-.512-.649-.729 0-.216-.223-.318-.417-.318-.194 0-.56-.053-.715-.053-.154 0-.298.245-.149.245.15 0 .022.46-.228.56-.25.101-.443.246-.729.246-.285 0 .404.233.514.141.11-.092.074-.23.443-.386.37-.157.722-.25.677-.125-.045.125.07.333.243.258.174-.076.23-.266.23-.133s.266.816.47 1.082c.204.267.723.661.723.661Z" fill="#5EAA22"/><path d="M11.786 6.4s-.136.204 0 .204c.135 0 .352 0 .22-.103-.133-.102-.22-.102-.22-.102Zm.452-.006s0 .136.094.136.177.136.177 0 .13-.09-.07-.136c-.201-.045-.201 0-.201 0Zm.577.031s-.09.065-.045.18c.045.116.147.344 0 .344-.148 0-.269.082-.154.082.115 0 .32.082.32 0s.083.136.083 0v-.28c0-.08.084-.102 0-.214-.083-.112-.204-.112-.204-.112Zm.209.795s.188.562.29.635c.103.072.149.684.194.75.045.067.657.402.657.582 0 .18.189-.138.094-.316-.094-.179-.39-.558-.604-.641-.214-.083-.187-.283-.232-.424-.045-.141.266.114 0-.206-.265-.32-.258-.148-.184-.148.075 0 .15-.038.075-.088a3.08 3.08 0 0 0-.29-.145Zm-1.997 1.16s-.612 1.027-.72 1.08c-.11.053-.191.063-.247 0-.056-.064-.062.17 0 .235.061.065.246.065.349-.05 0 0 .016.289.176.507.16.217.226.157.226.28 0 .123.038.286.087.286.048 0 .086.388 0 .388-.087 0 .2.032.325-.065s.179-.171.152-.171c-.027 0-.348-.16-.348-.274 0-.114-.216-.203-.216-.372 0-.168-.112-.369-.112-.449 0-.08.096.03.199-.045.102-.075.129-.27.129-.27s-.162.103-.216.051c-.054-.051-.224-.153-.112-.328.112-.175.328-.803.328-.803Z" fill="#FFD018"/><path fill-rule="evenodd" clip-rule="evenodd" d="M12.087 5.144s-.219.092-.146.23c.073.137.1.198.146.168.047-.03.375-.088.302-.243-.074-.155-.228-.155-.228-.155h-.074Z" fill="#5EAA22"/><path d="M12.847 5.07s-.29-.122-.193 0c.097.12.22.185.309.185.088 0 .273-.025.18-.074-.092-.05-.296-.112-.296-.112Z" fill="#FFD018"/><path fill-rule="evenodd" clip-rule="evenodd" d="M9.99 8.23c.002-.007-.007-.013-.012-.008-.06.055-.242.237-.165.396.092.189.183.254.183.254s.056.29.17.368c0 0 .155-.008.163-.233 0 0 .263-.073.34.083 0 0-.05.018-.05.15s.118.276.118.276.054-.457.299-.751c.245-.295.315-.353.315-.353v-.331s-.507.392-.614.717c0 0-.255.008-.358-.033-.104-.042.129-.11 0-.259-.13-.148-.07.209-.212.112-.222-.059-.192-.309-.176-.388Z" fill="#5EAA22"/><path fill-rule="evenodd" clip-rule="evenodd" d="M11.093 7.942h2.593v1.505s-.212 1.23-1.34 1.835c0 0-1.094-.614-1.253-1.835V7.943Z" fill="#5EAA22"/><mask id="PN - Pitcairn Islands__d" style="mask-type:alpha" maskUnits="userSpaceOnUse" x="11" y="7" width="3" height="5"><path fill-rule="evenodd" clip-rule="evenodd" d="M11.093 7.942h2.593v1.505s-.212 1.23-1.34 1.835c0 0-1.094-.614-1.253-1.835V7.943Z" fill="#fff"/></mask><g mask="url(#PN - Pitcairn Islands__d)"><path fill-rule="evenodd" clip-rule="evenodd" d="m12.326 7.861-1.133 2.233 1.536-1.325 1.057 1.665V7.86l-1.057.823-.403-.823Z" fill="#58A5FF"/><path d="M12.29 9.476c0-.047.038-.085.085-.085.046 0 .084.038.084.085V10.9a.085.085 0 0 1-.169 0V9.476Z" fill="#FFD018"/><path d="M11.992 9.825a.079.079 0 0 1 0-.158h.772a.08.08 0 0 1 .079.08.079.079 0 0 1-.079.078h-.772Zm.54.97-.086.07c-.127-.155-.243-.229-.345-.229-.15 0-.273-.126-.372-.366l.102-.043c.085.203.177.298.27.298.142 0 .285.092.43.27Z" fill="#FFD018"/><path fill-rule="evenodd" clip-rule="evenodd" d="M11.629 9.888h-.001v.542s0 .001 0 0l.405-.167v-.001l-.404-.374Z" fill="#FFD018"/><path d="m12.254 10.795.086.07c.127-.155.242-.229.345-.229.15 0 .272-.126.372-.366l-.102-.043c-.085.203-.177.298-.27.298-.142 0-.285.092-.43.27Z" fill="#FFD018"/><path fill-rule="evenodd" clip-rule="evenodd" d="M13.157 9.888h.001v.542s0 .001 0 0l-.405-.167v-.001l.404-.374Z" fill="#FFD018"/><path fill="#fff" d="M12.204 8.828h.338v.478h-.338z"/></g></g></g><mask id="PN - Pitcairn Islands__e" style="mask-type:alpha" maskUnits="userSpaceOnUse" x="0" y="0" width="9" height="7"><path fill="#fff" d="M0 0h9v7H0z"/></mask><g mask="url(#PN - Pitcairn Islands__e)"><path d="m-1.002 6.5 1.98.869L9.045.944l1.045-1.29-2.118-.29-3.29 2.768-2.649 1.865L-1.002 6.5Z" fill="#F7FCFF"/><path d="m-.731 7.108 1.009.505 9.436-8.08H8.298L-.731 7.109Z" fill="#F50100"/><path d="m10.002 6.5-1.98.869L-.045.944-1.09-.346l2.118-.29 3.29 2.768 2.649 1.865L10.002 6.5Z" fill="#F7FCFF"/><path d="m9.935 6.937-1.01.504-4.018-3.46-1.19-.386L-1.19-.342H.227L5.13 3.502l1.303.463 3.502 2.972Z" fill="#F50100"/><mask id="PN - Pitcairn Islands__f" maskUnits="userSpaceOnUse" x="-1" y="-1" width="11" height="9" fill="#000"><path fill="#fff" d="M-1-1h11v9H-1z"/><path fill-rule="evenodd" clip-rule="evenodd" d="M4.992 0h-1v3H0v1h3.992v3h1V4H9V3H4.992V0Z"/></mask><path fill-rule="evenodd" clip-rule="evenodd" d="M4.992 0h-1v3H0v1h3.992v3h1V4H9V3H4.992V0Z" fill="#F50100"/><path d="M3.992 0v-.75h-.75V0h.75Zm1 0h.75v-.75h-.75V0Zm-1 3v.75h.75V3h-.75ZM0 3v-.75h-.75V3H0Zm0 1h-.75v.75H0V4Zm3.992 0h.75v-.75h-.75V4Zm0 3h-.75v.75h.75V7Zm1 0v.75h.75V7h-.75Zm0-3v-.75h-.75V4h.75ZM9 4v.75h.75V4H9Zm0-1h.75v-.75H9V3ZM4.992 3h-.75v.75h.75V3Zm-1-2.25h1v-1.5h-1v1.5ZM4.742 3V0h-1.5v3h1.5ZM0 3.75h3.992v-1.5H0v1.5ZM.75 4V3h-1.5v1h1.5Zm3.242-.75H0v1.5h3.992v-1.5ZM4.742 7V4h-1.5v3h1.5Zm.25-.75h-1v1.5h1v-1.5ZM4.242 4v3h1.5V4h-1.5ZM9 3.25H4.992v1.5H9v-1.5ZM8.25 3v1h1.5V3h-1.5Zm-3.258.75H9v-1.5H4.992v1.5ZM4.242 0v3h1.5V0h-1.5Z" fill="#F7FCFF" mask="url(#PN - Pitcairn Islands__f)"/></g><path fill="url(#PN - Pitcairn Islands__g)" style="mix-blend-mode:overlay" d="M0 0h16v12H0z"/></g><defs><linearGradient id="PN - Pitcairn Islands__g" x1="8" y1="0" x2="8" y2="12" gradientUnits="userSpaceOnUse"><stop stop-color="#fff" stop-opacity=".7"/><stop offset="1" stop-opacity=".3"/></linearGradient><clipPath id="PN - Pitcairn Islands__a"><rect width="16" height="12" rx="1" fill="#fff"/></clipPath></defs></svg>