<svg fill="none" xmlns="http://www.w3.org/2000/svg" viewBox="0 0 16 12"><g clip-path="url(#SH - Saint Helena__a)"><mask id="SH - Saint Helena__b" style="mask-type:alpha" maskUnits="userSpaceOnUse" x="0" y="0" width="16" height="12"><path fill="#fff" d="M0 0h16v12H0z"/></mask><g mask="url(#SH - Saint Helena__b)"><path fill-rule="evenodd" clip-rule="evenodd" d="M0 0v12h16V0H0Z" fill="#2E42A5"/><mask id="SH - Saint Helena__c" style="mask-type:alpha" maskUnits="userSpaceOnUse" x="0" y="0" width="16" height="12"><path fill-rule="evenodd" clip-rule="evenodd" d="M0 0v12h16V0H0Z" fill="#fff"/></mask><g mask="url(#SH - Saint Helena__c)"><mask id="SH - Saint Helena__d" style="mask-type:alpha" maskUnits="userSpaceOnUse" x="0" y="0" width="9" height="7"><path fill="#fff" d="M0 0h9v7H0z"/></mask><g mask="url(#SH - Saint Helena__d)"><path d="m-1.002 6.5 1.98.869L9.045.944l1.045-1.29-2.118-.29-3.29 2.768-2.649 1.865L-1.002 6.5Z" fill="#F7FCFF"/><path d="m-.731 7.108 1.009.505 9.436-8.08H8.298L-.731 7.109Z" fill="#F50100"/><path d="m10.002 6.5-1.98.869L-.045.944-1.09-.346l2.118-.29 3.29 2.768 2.649 1.865L10.002 6.5Z" fill="#F7FCFF"/><path d="m9.935 6.937-1.01.504-4.018-3.46-1.19-.386L-1.19-.342H.227L5.13 3.502l1.303.463 3.502 2.972Z" fill="#F50100"/><mask id="SH - Saint Helena__e" maskUnits="userSpaceOnUse" x="-1" y="-1" width="11" height="9" fill="#000"><path fill="#fff" d="M-1-1h11v9H-1z"/><path fill-rule="evenodd" clip-rule="evenodd" d="M4.992 0h-1v3H0v1h3.992v3h1V4H9V3H4.992V0Z"/></mask><path fill-rule="evenodd" clip-rule="evenodd" d="M4.992 0h-1v3H0v1h3.992v3h1V4H9V3H4.992V0Z" fill="#F50100"/><path d="M3.992 0v-.75h-.75V0h.75Zm1 0h.75v-.75h-.75V0Zm-1 3v.75h.75V3h-.75ZM0 3v-.75h-.75V3H0Zm0 1h-.75v.75H0V4Zm3.992 0h.75v-.75h-.75V4Zm0 3h-.75v.75h.75V7Zm1 0v.75h.75V7h-.75Zm0-3v-.75h-.75V4h.75ZM9 4v.75h.75V4H9Zm0-1h.75v-.75H9V3ZM4.992 3h-.75v.75h.75V3Zm-1-2.25h1v-1.5h-1v1.5ZM4.742 3V0h-1.5v3h1.5ZM0 3.75h3.992v-1.5H0v1.5ZM.75 4V3h-1.5v1h1.5Zm3.242-.75H0v1.5h3.992v-1.5ZM4.742 7V4h-1.5v3h1.5Zm.25-.75h-1v1.5h1v-1.5ZM4.242 4v3h1.5V4h-1.5ZM9 3.25H4.992v1.5H9v-1.5ZM8.25 3v1h1.5V3h-1.5Zm-3.258.75H9v-1.5H4.992v1.5ZM4.242 0v3h1.5V0h-1.5Z" fill="#F7FCFF" mask="url(#SH - Saint Helena__e)"/></g><path d="M10.023 4.895h-.125v.125c0 .26-.001.515-.003.763-.002.592-.005 1.15.01 1.661.019.727.072 1.372.209 1.91.137.539.36.98.728 1.286.369.307.867.463 1.528.463.667 0 1.18-.194 1.564-.544.382-.348.626-.838.779-1.41.305-1.14.26-2.65.176-4.136l-.007-.118h-4.859Z" fill="#B7E1FF" stroke="#F7FCFF" stroke-width=".25"/><mask id="SH - Saint Helena__f" style="mask-type:alpha" maskUnits="userSpaceOnUse" x="9" y="4" width="7" height="8"><path d="M10.023 4.895h-.125v.125c0 .26-.001.515-.003.763-.002.592-.005 1.15.01 1.661.019.727.072 1.372.209 1.91.137.539.36.98.728 1.286.369.307.867.463 1.528.463.667 0 1.18-.194 1.564-.544.382-.348.626-.838.779-1.41.305-1.14.26-2.65.176-4.136l-.007-.118h-4.859Z" fill="#fff" stroke="#fff" stroke-width=".25"/></mask><g mask="url(#SH - Saint Helena__f)"><path fill="#2E42A5" d="M11.2 9.8h3.6V11h-3.6z"/><g filter="url(#SH - Saint Helena__g)"><path fill="#FDFF00" d="M8.8 3.8H16v3.6H8.8z"/></g><path fill-rule="evenodd" clip-rule="evenodd" d="M12.4 7.04a.84.84 0 1 0 0-1.68.84.84 0 0 0 0 1.68Z" fill="#272727"/><path fill-rule="evenodd" clip-rule="evenodd" d="m10.07 8.412.537-.494s.724-.073.809.087c.085.16.035-.074.17.293.137.367.191-.157.266.367.075.525.138.706.138.828s.682.485.42.736c-.26.25-.273.827-.273.992 0 .165-.02.24-.285.202-.265-.037-.588.095-.652.095-.064 0-.842-.158-.842-.484 0-.326-.287-2.622-.287-2.622Z" fill="#CE6201"/></g></g></g><path fill="url(#SH - Saint Helena__h)" style="mix-blend-mode:overlay" d="M0 0h16v12H0z"/></g><defs><linearGradient id="SH - Saint Helena__h" x1="8" y1="0" x2="8" y2="12" gradientUnits="userSpaceOnUse"><stop stop-color="#fff" stop-opacity=".7"/><stop offset="1" stop-opacity=".3"/></linearGradient><clipPath id="SH - Saint Helena__a"><rect width="16" height="12" rx="1" fill="#fff"/></clipPath><filter id="SH - Saint Helena__g" x="8.8" y="3.8" width="7.2" height="3.85" filterUnits="userSpaceOnUse" color-interpolation-filters="sRGB"><feFlood flood-opacity="0" result="BackgroundImageFix"/><feColorMatrix in="SourceAlpha" values="0 0 0 0 0 0 0 0 0 0 0 0 0 0 0 0 0 0 127 0" result="hardAlpha"/><feOffset dy=".25"/><feColorMatrix values="0 0 0 0 0 0 0 0 0 0 0 0 0 0 0 0 0 0 0.5 0"/><feBlend in2="BackgroundImageFix" result="effect1_dropShadow_1_5140"/><feBlend in="SourceGraphic" in2="effect1_dropShadow_1_5140" result="shape"/></filter></defs></svg>