<svg fill="none" xmlns="http://www.w3.org/2000/svg" viewBox="0 0 16 12"><g clip-path="url(#SI - Slovenia__a)"><mask id="SI - Slovenia__b" style="mask-type:alpha" maskUnits="userSpaceOnUse" x="0" y="0" width="16" height="12"><path fill="#fff" d="M0 0h16v12H0z"/></mask><g mask="url(#SI - Slovenia__b)"><path fill-rule="evenodd" clip-rule="evenodd" d="M0 0v12h16V0H0Z" fill="#2E42A5"/><mask id="SI - Slovenia__c" style="mask-type:alpha" maskUnits="userSpaceOnUse" x="0" y="0" width="16" height="12"><path fill-rule="evenodd" clip-rule="evenodd" d="M0 0v12h16V0H0Z" fill="#fff"/></mask><g mask="url(#SI - Slovenia__c)"><path fill-rule="evenodd" clip-rule="evenodd" d="M0 0v4h16V0H0Z" fill="#F7FCFF"/><path fill-rule="evenodd" clip-rule="evenodd" d="M0 8v4h16V8H0Z" fill="#C51918"/><path fill-rule="evenodd" clip-rule="evenodd" d="M6.87 2.518s-1.052-.497-2.361-.497c-1.31 0-2.361.497-2.361.497s.117 1.997.302 3.056c.079.451.459 1.11.803 1.422.392.356 1.256.777 1.256.777.25-.173.718-.25 1.315-.777.598-.527.747-1.422.747-1.422l.3-3.056Z" fill="#2E42A5"/><path d="m6.731 2.453.438.219-.3 3.011c-.106.637-.37 1.14-.791 1.512a3.422 3.422 0 0 1-.692.477l-.695.36a.822.822 0 0 0-.134.075l-.055.037-.06-.029c-.585-.285-1.13-.669-1.402-.915-.37-.336-.761-1.023-.844-1.5-.125-.711-.237-1.692-.315-3.028l.394-.206c.077 1.326.171 2.384.294 3.083.072.413.432 1.047.76 1.345.244.22.635.465 1.173.73l.108-.057c.001 0 .367-.163.495-.23.223-.116.43-.256.643-.444.375-.33.608-.774.703-1.338l.28-3.102Z" fill="#C51918" stroke="#C51918"/><path fill-rule="evenodd" clip-rule="evenodd" d="M2.771 5.512s.258.789.71 1.23c.451.44 1.01.656 1.01.656s.664-.202 1.042-.625c.377-.424.763-1.26.763-1.26L5.42 4.67l-.35.378-.579-.826-.485.826-.372-.378-.862.842Z" fill="#fff"/><path fill-rule="evenodd" clip-rule="evenodd" d="M3.573 2.943h-.351l.272-.255-.272-.27h.351l.149-.262.149.262h.35l-.258.253.23.272H3.87l-.15.277-.148-.277Zm1.657 0h-.35l.272-.255-.272-.27h.351l.149-.262.149.262h.35l-.258.253.23.272h-.322l-.15.277-.148-.277Zm-.93.841h-.352l.273-.256-.273-.27H4.3l.148-.262.15.262h.35l-.259.254.23.272h-.322l-.149.276-.148-.276Z" fill="#FECA00"/></g></g><path fill="url(#SI - Slovenia__d)" style="mix-blend-mode:overlay" d="M0 0h16v12H0z"/></g><defs><linearGradient id="SI - Slovenia__d" x1="8" y1="0" x2="8" y2="12" gradientUnits="userSpaceOnUse"><stop stop-color="#fff" stop-opacity=".7"/><stop offset="1" stop-opacity=".3"/></linearGradient><clipPath id="SI - Slovenia__a"><rect width="16" height="12" rx="1" fill="#fff"/></clipPath></defs></svg>