<svg fill="none" xmlns="http://www.w3.org/2000/svg" viewBox="0 0 16 12"><g clip-path="url(#TG - Togo__a)"><mask id="TG - Togo__b" style="mask-type:alpha" maskUnits="userSpaceOnUse" x="0" y="0" width="16" height="12"><path fill="#fff" d="M0 0h16v12H0z"/></mask><g mask="url(#TG - Togo__b)"><path d="M0-.5h-.5v13h17v-13H0Z" fill="#5EAA22" stroke="#F7FCFF"/><path fill-rule="evenodd" clip-rule="evenodd" d="M0 3v2h16V3H0Zm0 4v2h16V7H0Z" fill="#FECA00"/><path fill="#F50101" d="M0 0h8v7H0z"/><path fill-rule="evenodd" clip-rule="evenodd" d="m4.125 5.072-1.86 1.15.722-1.931L1.5 2.99h1.824l.801-1.925.611 1.925h1.802l-1.265 1.3.623 1.837-1.771-1.056Z" fill="#F7FCFF"/></g><path fill="url(#TG - Togo__c)" style="mix-blend-mode:overlay" d="M0 0h16v12H0z"/></g><defs><linearGradient id="TG - Togo__c" x1="8" y1="0" x2="8" y2="12" gradientUnits="userSpaceOnUse"><stop stop-color="#fff" stop-opacity=".7"/><stop offset="1" stop-opacity=".3"/></linearGradient><clipPath id="TG - Togo__a"><rect width="16" height="12" rx="1" fill="#fff"/></clipPath></defs></svg>