<svg fill="none" xmlns="http://www.w3.org/2000/svg" viewBox="0 0 16 12"><g clip-path="url(#TV - Tuvalu__a)"><mask id="TV - Tuvalu__b" style="mask-type:alpha" maskUnits="userSpaceOnUse" x="0" y="0" width="16" height="12"><path fill="#fff" d="M0 0h16v12H0z"/></mask><g mask="url(#TV - Tuvalu__b)"><path fill-rule="evenodd" clip-rule="evenodd" d="M0 0v12h16V0H0Z" fill="#00B4FF"/><mask id="TV - Tuvalu__c" style="mask-type:alpha" maskUnits="userSpaceOnUse" x="0" y="0" width="16" height="12"><path fill-rule="evenodd" clip-rule="evenodd" d="M0 0v12h16V0H0Z" fill="#fff"/></mask><g mask="url(#TV - Tuvalu__c)"><path fill="#2E42A5" d="M0 0h9v7H0z"/><mask id="TV - Tuvalu__d" style="mask-type:alpha" maskUnits="userSpaceOnUse" x="0" y="0" width="9" height="7"><path fill="#fff" d="M0 0h9v7H0z"/></mask><g mask="url(#TV - Tuvalu__d)"><path d="m-1.002 6.5 1.98.869L9.045.944l1.045-1.29-2.118-.29-3.29 2.768-2.649 1.865L-1.002 6.5Z" fill="#F7FCFF"/><path d="m-.731 7.108 1.009.505 9.436-8.08H8.298L-.731 7.109Z" fill="#F50100"/><path d="m10.002 6.5-1.98.869L-.045.944-1.09-.346l2.118-.29 3.29 2.768 2.649 1.865L10.002 6.5Z" fill="#F7FCFF"/><path d="m9.935 6.937-1.01.504-4.018-3.46-1.19-.386L-1.19-.342H.227L5.13 3.502l1.303.463 3.502 2.972Z" fill="#F50100"/><mask id="TV - Tuvalu__e" maskUnits="userSpaceOnUse" x="-1" y="-1" width="11" height="9" fill="#000"><path fill="#fff" d="M-1-1h11v9H-1z"/><path fill-rule="evenodd" clip-rule="evenodd" d="M4.992 0h-1v3H0v1h3.992v3h1V4H9V3H4.992V0Z"/></mask><path fill-rule="evenodd" clip-rule="evenodd" d="M4.992 0h-1v3H0v1h3.992v3h1V4H9V3H4.992V0Z" fill="#F50100"/><path d="M3.992 0v-.75h-.75V0h.75Zm1 0h.75v-.75h-.75V0Zm-1 3v.75h.75V3h-.75ZM0 3v-.75h-.75V3H0Zm0 1h-.75v.75H0V4Zm3.992 0h.75v-.75h-.75V4Zm0 3h-.75v.75h.75V7Zm1 0v.75h.75V7h-.75Zm0-3v-.75h-.75V4h.75ZM9 4v.75h.75V4H9Zm0-1h.75v-.75H9V3ZM4.992 3h-.75v.75h.75V3Zm-1-2.25h1v-1.5h-1v1.5ZM4.742 3V0h-1.5v3h1.5ZM0 3.75h3.992v-1.5H0v1.5ZM.75 4V3h-1.5v1h1.5Zm3.242-.75H0v1.5h3.992v-1.5ZM4.742 7V4h-1.5v3h1.5Zm.25-.75h-1v1.5h1v-1.5ZM4.242 4v3h1.5V4h-1.5ZM9 3.25H4.992v1.5H9v-1.5ZM8.25 3v1h1.5V3h-1.5Zm-3.258.75H9v-1.5H4.992v1.5ZM4.242 0v3h1.5V0h-1.5Z" fill="#F7FCFF" mask="url(#TV - Tuvalu__e)"/></g><path fill-rule="evenodd" clip-rule="evenodd" d="m13.428 5.342.304-.562.666-.02-.516-.43.178-.582-.444.267-.562-.34.054.645-.504.302.654.082.17.638Zm-1.696.438-.304.562-.17-.638-.654-.082.504-.302-.054-.646.562.34.444-.266-.178.581.516.43-.666.02Zm-1.304 1.562.304-.562.666-.02-.516-.43.178-.582-.444.267-.562-.34.054.645-.504.302.654.082.17.638Zm-2 2 .304-.562.666-.02-.516-.43.178-.582-.444.267-.562-.34.054.645-.504.302.654.082.17.638Zm-1.94 1.526-.551.326.183-.635-.518-.407h.587l.286-.581.306.581H7.3l-.452.407.22.635-.58-.326Zm2.244-.088-.304.562-.17-.638-.654-.082.504-.302-.054-.646.562.34.444-.266-.178.581.516.43-.666.02Zm2-1-.304.562-.17-.638-.654-.082.504-.302-.054-.646.562.34.444-.266-.178.581.516.43-.666.02Zm2-1-.304.562-.17-.638-.654-.082.504-.302-.054-.646.562.34.444-.266-.178.581.516.43-.666.02Zm.696-.438.304-.562.666-.02-.516-.43.178-.582-.444.267-.562-.34.054.645-.504.302.654.082.17.638Z" fill="#FFD018"/></g></g><path fill="url(#TV - Tuvalu__f)" style="mix-blend-mode:overlay" d="M0 0h16v12H0z"/></g><defs><linearGradient id="TV - Tuvalu__f" x1="8" y1="0" x2="8" y2="12" gradientUnits="userSpaceOnUse"><stop stop-color="#fff" stop-opacity=".7"/><stop offset="1" stop-opacity=".3"/></linearGradient><clipPath id="TV - Tuvalu__a"><rect width="16" height="12" rx="1" fill="#fff"/></clipPath></defs></svg>