<svg fill="none" xmlns="http://www.w3.org/2000/svg" viewBox="0 0 16 12"><g clip-path="url(#TZ - Tanzania__a)"><mask id="TZ - Tanzania__b" style="mask-type:alpha" maskUnits="userSpaceOnUse" x="0" y="0" width="16" height="12"><path fill="#fff" d="M0 0h16v12H0z"/></mask><g mask="url(#TZ - Tanzania__b)"><path fill-rule="evenodd" clip-rule="evenodd" d="M0 0v12h16V0H0Z" fill="#3195F9"/><mask id="TZ - Tanzania__c" style="mask-type:alpha" maskUnits="userSpaceOnUse" x="0" y="0" width="16" height="12"><path fill-rule="evenodd" clip-rule="evenodd" d="M0 0v12h16V0H0Z" fill="#fff"/></mask><g mask="url(#TZ - Tanzania__c)"><path fill-rule="evenodd" clip-rule="evenodd" d="M0 0v12L16 0H0Z" fill="#73BE4A"/><path d="m-.91 12.72.346.52.52-.348L18.086.791l.52-.347-.347-.52-1.11-1.664-.347-.52-.52.348-18.13 12.101-.52.347.347.52 1.11 1.664Z" fill="#272727" stroke="#FFD018" stroke-width="1.25"/></g></g><path fill="url(#TZ - Tanzania__d)" style="mix-blend-mode:overlay" d="M0 0h16v12H0z"/></g><defs><linearGradient id="TZ - Tanzania__d" x1="8" y1="0" x2="8" y2="12" gradientUnits="userSpaceOnUse"><stop stop-color="#fff" stop-opacity=".7"/><stop offset="1" stop-opacity=".3"/></linearGradient><clipPath id="TZ - Tanzania__a"><rect width="16" height="12" rx="1" fill="#fff"/></clipPath></defs></svg>