<svg fill="none" xmlns="http://www.w3.org/2000/svg" viewBox="0 0 16 12"><g clip-path="url(#VU - Vanuatu__a)"><mask id="VU - Vanuatu__b" style="mask-type:alpha" maskUnits="userSpaceOnUse" x="0" y="0" width="16" height="12"><path fill="#fff" d="M0 0h16v12H0z"/></mask><g mask="url(#VU - Vanuatu__b)"><path fill-rule="evenodd" clip-rule="evenodd" d="M0 0h16v12H0V0Z" fill="#F7FCFF"/><path fill-rule="evenodd" clip-rule="evenodd" d="M0 0v4h16V0H0Z" fill="#C51918"/><path fill-rule="evenodd" clip-rule="evenodd" d="M0 8v4h16V8H0Z" fill="#5EAA22"/><path fill-rule="evenodd" clip-rule="evenodd" d="m0-1 8.335 7L0 13V-1Z" fill="#272727"/><mask id="VU - Vanuatu__c" maskUnits="userSpaceOnUse" x="-1" y="-4.677" width="18" height="21" fill="#000"><path fill="#fff" d="M-1-4.677h18v21H-1z"/><path fill-rule="evenodd" clip-rule="evenodd" d="M0-1.677 8.704 5H16v2H8.585L0 13.406V11.17L7 6 0 .767v-2.444Z"/></mask><path fill-rule="evenodd" clip-rule="evenodd" d="M0-1.677 8.704 5H16v2H8.585L0 13.406V11.17L7 6 0 .767v-2.444Z" fill="#FFD018"/><path d="m8.704 5-.609.793.27.207h.34V5ZM0-1.677l.609-.794L-1-3.705v2.028h1ZM16 5h1V4h-1v1Zm0 2v1h1V7h-1ZM8.585 7V6h-.332l-.266.199.598.801ZM0 13.406h-1V15.4l1.598-1.193L0 13.406Zm0-2.236-.594-.804-.406.3v.504h1ZM7 6l.594.804 1.083-.8L7.599 5.2 7 6ZM0 .767h-1v.501l.401.3.599-.8Zm9.313 3.44L.609-2.471-.61-.884l8.704 6.677 1.218-1.586ZM16 4H8.704v2H16V4Zm1 3V5h-2v2h2ZM8.585 8H16V6H8.585v2ZM.598 14.207l8.585-6.406L7.987 6.2l-8.585 6.405 1.196 1.603ZM-1 11.17v2.236h2V11.17h-2Zm7.406-5.974-7 5.17 1.188 1.609 7-5.17-1.188-1.61ZM-.6 1.568l7 5.233 1.2-1.602-7-5.233-1.2 1.602ZM-1-1.677V.767h2v-2.444h-2Z" fill="#272727" mask="url(#VU - Vanuatu__c)"/><path d="M2.437 8.384v-.79c.705-.155 1.172-.358 1.399-.6.559-.69.187-2.304-.962-2.294-.569 0-1.157.272-1.157.91 0 .793.163 1.132.72 1.132.555 0 .759.03 1.124-.469l.396.123c-.391.533-.919.955-1.52.955-.99 0-1.53-.747-1.53-1.611 0-1.067.866-1.814 1.91-1.814.779 0 2.01.954 2.01 1.814 0 .86 0 1.253-.675 1.854a3.666 3.666 0 0 1-1.715.79Z" fill="#FFD018"/><path fill-rule="evenodd" clip-rule="evenodd" d="M2.496 4.94a.071.071 0 0 0-.088.05l-.027.104a49.767 49.767 0 0 1-.068.146l-.082.076a.071.071 0 1 0 .097.105l.072-.068.125.164-.137.074a.071.071 0 0 0 .068.126l.156-.084.107.143-.188.1a.071.071 0 1 0 .068.127l.205-.11c.055.074.103.14.144.199l-.131.07a.071.071 0 0 0 .067.126l.146-.078c.06.09.091.144.091.159a.071.071 0 0 0 .143 0c0-.037-.037-.113-.116-.235a.073.073 0 0 0 .003-.006l.106-.232a.071.071 0 1 0-.13-.06l-.072.16a10.927 10.927 0 0 0-.159-.221l.075-.165a.071.071 0 1 0-.13-.06l-.042.093-.072-.096.101-.223a.071.071 0 1 0-.13-.059l-.069.152-.138-.18.056-.21a.071.071 0 0 0-.051-.087Z" fill="#FFD018"/><path fill-rule="evenodd" clip-rule="evenodd" d="M2.976 4.94a.071.071 0 0 1 .087.05l.028.104.004-.005a.071.071 0 0 1 .113.087l-.05.064.083.076a.071.071 0 1 1-.097.105l-.072-.068-.125.164.137.074a.071.071 0 1 1-.068.126l-.156-.084-.107.143.188.1a.071.071 0 1 1-.068.127l-.205-.11c-.055.074-.103.14-.144.199l.131.07a.071.071 0 1 1-.067.126l-.146-.078a.665.665 0 0 0-.091.159.071.071 0 0 1-.143 0c0-.037.037-.113.116-.235a.067.067 0 0 1-.003-.006l-.106-.232a.071.071 0 0 1 .13-.06l.072.16c.045-.065.098-.139.159-.221L2.5 5.61a.071.071 0 1 1 .13-.06l.042.093.072-.096-.101-.223a.071.071 0 0 1 .13-.059l.069.152.138-.18-.056-.21a.071.071 0 0 1 .051-.087Z" fill="#FFD018"/></g><path fill="url(#VU - Vanuatu__d)" style="mix-blend-mode:overlay" d="M0 0h16v12H0z"/></g><defs><linearGradient id="VU - Vanuatu__d" x1="8" y1="0" x2="8" y2="12" gradientUnits="userSpaceOnUse"><stop stop-color="#fff" stop-opacity=".7"/><stop offset="1" stop-opacity=".3"/></linearGradient><clipPath id="VU - Vanuatu__a"><rect width="16" height="12" rx="1" fill="#fff"/></clipPath></defs></svg>