<svg fill="none" xmlns="http://www.w3.org/2000/svg" viewBox="0 0 16 12"><g clip-path="url(#XK - Kosovo__a)"><mask id="XK - Kosovo__b" style="mask-type:alpha" maskUnits="userSpaceOnUse" x="0" y="0" width="16" height="12"><path fill="#fff" d="M0 0h16v12H0z"/></mask><g mask="url(#XK - Kosovo__b)"><path fill-rule="evenodd" clip-rule="evenodd" d="M0 0h16v12H0V0Z" fill="#2E42A5"/><path d="M7.85 8.99c.051-.053.136 0 .136 0s.243-.174.243-.202c0-.029-.118-.373-.019-.492.099-.12.9-.537.974-.513.074.023.26.39.32.39s.235.008.235-.05-.057-.296.125-.409c.183-.113.315-.242.415-.136.101.106.145.038.145.038s.03-.148-.026-.192c-.055-.044-.17-.141-.055-.202.115-.061.209-.045.209-.045l.078-.12-.078-.152.378-.433-.055-.101s.085-.056.1-.145c.014-.088.068-.148-.045-.198-.114-.05-.152.03-.19.05-.039.02-.053.074-.053.074l-.057-.124s-.368-.144-.498-.144-.234.002-.174-.18c.06-.184.132-.226.092-.281-.041-.055-.06.055-.186-.033-.125-.087-.376-.114-.376-.256 0-.14-.283-.636-.394-.636-.112 0-.136.042-.136.042s-.563-.14-.563-.191c0-.05.089-.16.089-.16s-.098-.22-.19-.184c-.092.037-.265.21-.354.21-.09 0-.24.012-.24.012s.329.326.24.469c-.09.143-.161.247-.161.247l-.112-.006-.237.186.102.215s-.164.188-.23.188c-.065 0-.158-.056-.264 0-.106.056-.215.042-.215.042s-.154.1-.154.135c0 .036-.037.115-.037.115H6.47l-.211-.094s-.29.112-.255.233c.035.121.38.215.38.215l-.099.143s.047.283.143.333c.097.05.277.358.277.358l-.073.088s.126.05.126.151c0 .102.15.125.15.125l.13-.032.017.063.103.036.033.05s.52.532.476.636c-.044.103.074.319.074.319l.073.252-.147.144s.132.203.183.151Z" fill="#E8AB02"/><path fill-rule="evenodd" clip-rule="evenodd" d="m8.897 2.974-.385.219.11-.445-.369-.326h.482l.162-.42.19.42h.41l-.323.326.156.445-.433-.219Zm1.435.563.385-.218.432.218-.155-.444.323-.326h-.41l-.19-.42-.162.42h-.482l.369.326-.11.444Zm1.651.461.386-.218.432.218-.155-.444.323-.326h-.411l-.19-.42-.162.42h-.481l.369.326-.11.444Zm-8.693 0 .386-.218.432.218-.155-.444.322-.326h-.41l-.19-.42-.162.42h-.482l.37.326-.11.444Zm2.037-.68-.385.22.11-.445-.37-.326h.483l.162-.42.19.42h.41l-.323.326.155.444-.432-.218Zm1.433-.125.385-.219.432.219-.155-.445.323-.326h-.411l-.19-.42-.161.42H6.5l.369.326-.11.445Z" fill="#F7FCFF"/></g><path fill="url(#XK - Kosovo__c)" style="mix-blend-mode:overlay" d="M0 0h16v12H0z"/></g><defs><linearGradient id="XK - Kosovo__c" x1="8" y1="0" x2="8" y2="12" gradientUnits="userSpaceOnUse"><stop stop-color="#fff" stop-opacity=".7"/><stop offset="1" stop-opacity=".3"/></linearGradient><clipPath id="XK - Kosovo__a"><rect width="16" height="12" rx="1" fill="#fff"/></clipPath></defs></svg>