<svg width="24" height="24" viewBox="0 0 24 24" fill="none" xmlns="http://www.w3.org/2000/svg">
<path fill-rule="evenodd" clip-rule="evenodd" d="M4 6C4.55216 6 4.9998 6.44752 5 6.99963C5.83566 6.37194 6.87439 6 8 6C9.6356 6 11.0878 6.78534 12 7.99952C12.9122 6.78534 14.3644 6 16 6C18.7614 6 21 8.23858 21 11V17C21 17.5523 20.5523 18 20 18C19.4477 18 19 17.5523 19 17V11C19 9.34315 17.6569 8 16 8C14.3431 8 13 9.34315 13 11V17C13 17.5523 12.5523 18 12 18C11.4477 18 11 17.5523 11 17V11C11 9.34315 9.65685 8 8 8C6.34355 8 5.00065 9.34249 5 10.9988L5 17C5 17.5523 4.55228 18 4 18C3.44772 18 3 17.5523 3 17V7C3 6.44772 3.44772 6 4 6Z" fill="#777B92"/>
</svg>
