<svg width="40" height="40" viewBox="0 0 40 40" fill="none" xmlns="http://www.w3.org/2000/svg">
<path d="M16.0855 29C15.78 29 15.5227 28.8946 15.3136 28.6838C15.1045 28.473 15 28.2135 15 27.9054V12.1189C15 11.8108 15.1045 11.5514 15.3136 11.3405C15.5227 11.1135 15.78 11 16.0855 11C16.3911 11 16.6484 11.1135 16.8575 11.3405C17.0826 11.5514 17.1952 11.8108 17.1952 12.1189V18.4676C17.8063 17.7865 18.4656 17.2432 19.1732 16.8378C19.8808 16.4324 20.7171 16.2297 21.682 16.2297C22.5665 16.2297 23.3304 16.4405 23.9737 16.8622C24.633 17.2838 25.1316 17.8595 25.4693 18.5892C25.8231 19.3189 26 20.1216 26 20.9973V27.9054C26 28.2135 25.8874 28.473 25.6623 28.6838C25.4532 28.8946 25.1959 29 24.8904 29C24.5848 29 24.3275 28.8946 24.1184 28.6838C23.9094 28.473 23.8048 28.2135 23.8048 27.9054V21.2405C23.8048 19.2622 22.9203 18.273 21.1513 18.273C20.3472 18.273 19.6235 18.4838 18.9803 18.9054C18.3531 19.327 17.758 19.8946 17.1952 20.6081V27.9054C17.1952 28.2135 17.0826 28.473 16.8575 28.6838C16.6484 28.8946 16.3911 29 16.0855 29Z" fill="#7887A5"/>
</svg>
