<svg width="24" height="24" viewBox="0 0 24 24" fill="none" xmlns="http://www.w3.org/2000/svg">
<path fill-rule="evenodd" clip-rule="evenodd" d="M12 6C12.5523 6 13 6.44772 13 7V8H14C14.5523 8 15 8.44772 15 9C15 9.55228 14.5523 10 14 10H13C11.8954 10 11 9.10457 11 8V7C11 6.44772 11.4477 6 12 6Z" fill="#777B92"/>
<path fill-rule="evenodd" clip-rule="evenodd" d="M5 9C5 5.13401 8.13401 2 12 2C15.866 2 19 5.13401 19 9C19 12.866 15.866 16 12 16C8.13401 16 5 12.866 5 9ZM12 4C9.23858 4 7 6.23858 7 9C7 11.7614 9.23858 14 12 14C14.7614 14 17 11.7614 17 9C17 6.23858 14.7614 4 12 4Z" fill="#777B92"/>
<path fill-rule="evenodd" clip-rule="evenodd" d="M16.7071 16.2929L18.7071 18.2929C18.8946 18.4804 19 18.7348 19 19C19 19.2652 18.8946 19.5196 18.7071 19.7071L16.7071 21.7071C16.3166 22.0976 15.6834 22.0976 15.2929 21.7071C14.9024 21.3166 14.9024 20.6834 15.2929 20.2929L15.5858 20H6C5.44772 20 5 19.5523 5 19C5 18.4477 5.44772 18 6 18H15.5858L15.2929 17.7071C14.9024 17.3166 14.9024 16.6834 15.2929 16.2929C15.6834 15.9024 16.3166 15.9024 16.7071 16.2929Z" fill="#777B92"/>
</svg>
