<svg width="22" height="22" viewBox="0 0 22 22" fill="none" xmlns="http://www.w3.org/2000/svg">
<path fill-rule="evenodd" clip-rule="evenodd" d="M4 1C3.44772 1 3 1.44772 3 2C3 2.55228 3.44772 3 4 3H5V6.56201C5 7.55897 5.49526 8.49079 6.32158 9.04856L9.2126 11L6.32158 12.9514C5.49526 13.5092 5 14.441 5 15.438V19H4C3.44772 19 3 19.4477 3 20C3 20.5523 3.44772 21 4 21H18C18.5523 21 19 20.5523 19 20C19 19.4477 18.5523 19 18 19H17V15.438C17 14.441 16.5047 13.5092 15.6784 12.9514L12.7874 11L15.6784 9.04856C16.5047 8.49079 17 7.55897 17 6.56201V3H18C18.5523 3 19 2.55228 19 2C19 1.44772 18.5523 1 18 1H4ZM11 12.2065L7.44053 14.6091C7.16509 14.7951 7 15.1057 7 15.438V19H15V15.438C15 15.1057 14.8349 14.7951 14.5595 14.6091L11 12.2065ZM11 9.79351L14.5595 7.39086C14.8349 7.20494 15 6.89433 15 6.56201V3H7V6.56201C7 6.89433 7.16509 7.20494 7.44053 7.39086L11 9.79351Z" fill="#97A3BA"/>
</svg>
