<svg width="22" height="22" viewBox="0 0 22 22" fill="none" xmlns="http://www.w3.org/2000/svg">
<path d="M12 6.99998H13C13.2652 6.99998 13.5196 7.10533 13.7071 7.29287C13.8946 7.48041 14 7.73476 14 7.99998C14 8.26519 13.8946 8.51955 13.7071 8.70708C13.5196 8.89462 13.2652 8.99998 13 8.99998H11C10.7348 8.99998 10.4804 8.89462 10.2929 8.70708C10.1054 8.51955 10 8.26519 10 7.99998V6C10 5.73478 10.1054 5.48043 10.2929 5.29289C10.4804 5.10536 10.7348 5 11 5C11.2652 5 11.5196 5.10536 11.7071 5.29289C11.8946 5.48042 12 5.73477 12 5.99998V6.99998Z" fill="#97A3BA"/>
<path fill-rule="evenodd" clip-rule="evenodd" d="M11 15C14.866 15 18 11.866 18 8C18 4.13401 14.866 1 11 1C7.13401 1 4 4.13401 4 8C4 11.866 7.13401 15 11 15ZM11 13C13.7614 13 16 10.7614 16 8C16 5.23858 13.7614 3 11 3C8.23858 3 6 5.23858 6 8C6 10.7614 8.23858 13 11 13Z" fill="#97A3BA"/>
<path d="M15.9142 15.3146C15.5237 14.8951 14.8905 14.8951 14.5 15.3146C14.1095 15.7341 14.1095 16.5805 14.5 17H5C4.44772 17 4 17.4067 4 18C4 18.5932 4.44772 19 5 19H14.5C14.1094 19.4195 14.1094 20.2659 14.5 20.6854C14.8905 21.1049 15.5237 21.1049 15.9142 20.6854L17.7071 18.7595C18.0976 18.34 18.0976 17.6599 17.7071 17.2404L15.9142 15.3146Z" fill="#97A3BA"/>
</svg>
