<svg width="24" height="24" viewBox="0 0 24 24" fill="none" xmlns="http://www.w3.org/2000/svg">
<path fill-rule="evenodd" clip-rule="evenodd" d="M8 2C8 1.44772 8.44772 1 9 1H14C14.5523 1 15 1.44772 15 2C15 2.55228 14.5523 3 14 3H9C8.44772 3 8 2.55228 8 2Z" fill="#777B92"/>
<path fill-rule="evenodd" clip-rule="evenodd" d="M12 11V13H14C14.5523 13 15 13.4477 15 14C15 14.5523 14.5523 15 14 15H12C10.8954 15 10 14.1046 10 13V11C10 10.4477 10.4477 10 11 10C11.5523 10 12 10.4477 12 11Z" fill="#777B92"/>
<path fill-rule="evenodd" clip-rule="evenodd" d="M12 5C13.8487 5 15.551 5.62708 16.9056 6.68014L18.2929 5.29289C18.6834 4.90237 19.3166 4.90237 19.7071 5.29289C20.0976 5.68342 20.0976 6.31658 19.7071 6.70711L18.3199 8.09436C19.3729 9.44904 20 11.1513 20 13C20 17.4183 16.4183 21 12 21C7.58172 21 4 17.4183 4 13C4 8.58172 7.58172 5 12 5ZM6 13C6 16.3137 8.68629 19 12 19C15.3137 19 18 16.3137 18 13C18 9.68629 15.3137 7 12 7C8.68629 7 6 9.68629 6 13Z" fill="#777B92"/>
</svg>
