<svg width="24" height="24" viewBox="0 0 24 24" fill="none" xmlns="http://www.w3.org/2000/svg">
<path fill-rule="evenodd" clip-rule="evenodd" d="M12 2C14.6566 2 17.0708 3.03639 18.8608 4.72483L19.0144 3.83063C19.108 3.28633 19.6251 2.92091 20.1694 3.01445C20.7137 3.10799 21.0791 3.62506 20.9856 4.16937L20.47 7.16937C20.3875 7.64927 19.9714 8 19.4845 8H17C16.4477 8 16 7.55228 16 7C16 6.44772 16.4477 6 17 6H17.2918C15.8809 4.75451 14.0285 4 12 4C7.58172 4 4 7.58172 4 12C4 16.4183 7.58172 20 12 20C16.4183 20 20 16.4183 20 12C20 11.4477 20.4477 11 21 11C21.5523 11 22 11.4477 22 12C22 17.5228 17.5228 22 12 22C6.47715 22 2 17.5228 2 12C2 6.47715 6.47715 2 12 2Z" fill="#777B92"/>
<path fill-rule="evenodd" clip-rule="evenodd" d="M13 8V11H16C16.5523 11 17 11.4477 17 12C17 12.5523 16.5523 13 16 13H12C11.4477 13 11 12.5523 11 12V8C11 7.44772 11.4477 7 12 7C12.5523 7 13 7.44772 13 8Z" fill="#777B92"/>
</svg>
