<svg width="22" height="22" viewBox="0 0 22 22" fill="none" xmlns="http://www.w3.org/2000/svg">
<path d="M1 2C1.55229 2 2 2.44772 2 3V19C2 19.5523 1.55228 20 1 20C0.447715 20 0 19.5523 0 19V3C0 2.44772 0.447716 2 1 2Z" fill="#97A3BA"/>
<path d="M6.40452 10.5038L8.2215 8.69373C8.40828 8.50767 8.51321 8.2553 8.51321 7.99217C8.51321 7.72903 8.40828 7.47667 8.2215 7.2906C8.03472 7.10453 7.78139 7 7.51724 7C7.2531 7 6.99977 7.10453 6.81299 7.2906L3.29171 10.7984C3.10493 10.9845 3 11.2369 3 11.5C3 11.7631 3.10493 12.0155 3.29171 12.2016L6.81299 15.7094C6.99977 15.8955 7.2531 16 7.51724 16C7.78139 16 8.03472 15.8955 8.2215 15.7094C8.40828 15.5233 8.51321 15.271 8.51321 15.0078C8.51321 14.7447 8.40828 14.4923 8.2215 14.3063L6.41156 12.5032L6.52312 12.5031C10.1742 12.4985 11.9049 12.4963 15.5954 12.4962L13.7785 14.3063C13.5917 14.4923 13.4868 14.7447 13.4868 15.0078C13.4868 15.271 13.5917 15.5233 13.7785 15.7094C13.9653 15.8955 14.2186 16 14.4827 16C14.7469 16 15.0002 15.8955 15.187 15.7094L18.7083 12.2016C18.895 12.0155 19 11.7631 19 11.5C19 11.2369 18.895 10.9845 18.7083 10.7984L15.187 7.2906C15.0002 7.10453 14.7469 7 14.4827 7C14.2186 7 13.9653 7.10453 13.7785 7.2906C13.5917 7.47667 13.4868 7.72903 13.4868 7.99217C13.4868 8.2553 13.5917 8.50766 13.7785 8.69373L15.5884 10.4968L15.4745 10.4969L15.4732 10.4969L15.4701 10.4969C11.8234 10.5015 10.0928 10.5037 6.40452 10.5038Z" fill="#97A3BA"/>
<path d="M22 3C22 2.44772 21.5523 2 21 2C20.4477 2 20 2.44772 20 3V19C20 19.5523 20.4477 20 21 20C21.5523 20 22 19.5523 22 19V3Z" fill="#97A3BA"/>
<path d="M7 3C7 3.55228 6.55228 4 6 4C5.44772 4 5 3.55228 5 3C5 2.44772 5.44772 2 6 2C6.55228 2 7 2.44772 7 3Z" fill="#97A3BA"/>
<path d="M11 4C11.5523 4 12 3.55228 12 3C12 2.44772 11.5523 2 11 2C10.4477 2 10 2.44772 10 3C10 3.55228 10.4477 4 11 4Z" fill="#97A3BA"/>
<path d="M17 3C17 3.55228 16.5523 4 16 4C15.4477 4 15 3.55228 15 3C15 2.44772 15.4477 2 16 2C16.5523 2 17 2.44772 17 3Z" fill="#97A3BA"/>
<path d="M6 20C6.55228 20 7 19.5523 7 19C7 18.4477 6.55228 18 6 18C5.44772 18 5 18.4477 5 19C5 19.5523 5.44772 20 6 20Z" fill="#97A3BA"/>
<path d="M12 19C12 19.5523 11.5523 20 11 20C10.4477 20 10 19.5523 10 19C10 18.4477 10.4477 18 11 18C11.5523 18 12 18.4477 12 19Z" fill="#97A3BA"/>
<path d="M16 20C16.5523 20 17 19.5523 17 19C17 18.4477 16.5523 18 16 18C15.4477 18 15 18.4477 15 19C15 19.5523 15.4477 20 16 20Z" fill="#97A3BA"/>
</svg>
