<svg width="24" height="24" viewBox="0 0 24 24" fill="none" xmlns="http://www.w3.org/2000/svg">
<path fill-rule="evenodd" clip-rule="evenodd" d="M12 4C7.58172 4 4 7.58172 4 12C4 16.4183 7.58172 20 12 20C16.4183 20 20 16.4183 20 12C20 11.3876 19.9314 10.7924 19.8018 10.2213C19.6796 9.68269 20.0171 9.147 20.5557 9.02479C21.0943 8.90258 21.63 9.24012 21.7522 9.77871C21.9145 10.4941 22 11.2377 22 12C22 17.5228 17.5228 22 12 22C6.47715 22 2 17.5228 2 12C2 6.47715 6.47715 2 12 2C12.5523 2 13 2.44772 13 3C13 3.55228 12.5523 4 12 4Z" fill="#777B92"/>
<path fill-rule="evenodd" clip-rule="evenodd" d="M12 10C12.5523 10 13 10.4477 13 11V16C13 16.5523 12.5523 17 12 17C11.4477 17 11 16.5523 11 16V11C11 10.4477 11.4477 10 12 10Z" fill="#777B92"/>
<path fill-rule="evenodd" clip-rule="evenodd" d="M12 9C11.4477 9 11 8.55228 11 8C11 7.44772 11.4477 7 12 7C12.5523 7 13 7.44772 13 8C13 8.55228 12.5523 9 12 9Z" fill="#777B92"/>
<path fill-rule="evenodd" clip-rule="evenodd" d="M17.5 5.91421L16.7071 6.70711C16.3166 7.09763 15.6834 7.09763 15.2929 6.70711C14.9024 6.31658 14.9024 5.68342 15.2929 5.29289L16.0858 4.5L15.2929 3.70711C14.9024 3.31658 14.9024 2.68342 15.2929 2.29289C15.6834 1.90237 16.3166 1.90237 16.7071 2.29289L17.5 3.08579L18.2929 2.29289C18.6834 1.90237 19.3166 1.90237 19.7071 2.29289C20.0976 2.68342 20.0976 3.31658 19.7071 3.70711L18.9142 4.5L19.7071 5.29289C20.0976 5.68342 20.0976 6.31658 19.7071 6.70711C19.3166 7.09763 18.6834 7.09763 18.2929 6.70711L17.5 5.91421Z" fill="#777B92"/>
</svg>
