<svg width="22" height="22" viewBox="0 0 22 22" fill="none" xmlns="http://www.w3.org/2000/svg">
<path d="M8 0C7.44772 0 7 0.447715 7 1C7 1.55228 7.44772 2 8 2H13C13.5523 2 14 1.55228 14 1C14 0.447715 13.5523 0 13 0H8Z" fill="#97A3BA"/>
<path d="M11 12H13C13.2652 12 13.5196 12.1053 13.7071 12.2929C13.8946 12.4804 14 12.7347 14 13C14 13.2652 13.8946 13.5195 13.7071 13.7071C13.5196 13.8946 13.2652 14 13 14H10C9.73478 14 9.48043 13.8946 9.29289 13.7071C9.10536 13.5195 9 13.2652 9 13V10C9 9.73478 9.10536 9.48043 9.29289 9.29289C9.48043 9.10536 9.73478 9 10 9C10.2652 9 10.5196 9.10536 10.7071 9.29289C10.8946 9.48043 11 9.73478 11 10V12Z" fill="#97A3BA"/>
<path fill-rule="evenodd" clip-rule="evenodd" d="M18.6569 4.34315C19.1144 4.80067 19.1144 5.54247 18.6569 6L17.4246 7.2322C18.4144 8.5637 19 10.2135 19 12C19 16.4183 15.4183 20 11 20C6.58172 20 3 16.4183 3 12C3 7.58172 6.58172 4 11 4C12.7865 4 14.4363 4.58561 15.7678 5.57535L17 4.34315C17.4575 3.88562 18.1993 3.88562 18.6569 4.34315ZM5 12C5 8.68629 7.68629 6 11 6C14.3137 6 17 8.68629 17 12C17 15.3137 14.3137 18 11 18C7.68629 18 5 15.3137 5 12Z" fill="#97A3BA"/>
</svg>
