<svg width="40" height="40" viewBox="0 0 40 40" fill="none" xmlns="http://www.w3.org/2000/svg">
<path d="M19.7619 29C18.7778 29 17.8413 28.7503 16.9524 28.251C16.0794 27.7356 15.3651 26.9946 14.8095 26.0282C14.2698 25.0456 14 23.902 14 22.5973C14 21.2926 14.2698 20.157 14.8095 19.1906C15.3651 18.2081 16.0794 17.4671 16.9524 16.9678C17.8413 16.4523 18.7778 16.1946 19.7619 16.1946C21.3175 16.1946 22.6746 16.8067 23.8333 18.0309V12.1114C23.8333 11.7893 23.9365 11.5235 24.1429 11.3141C24.3651 11.1047 24.627 11 24.9286 11C25.2302 11 25.4841 11.1128 25.6905 11.3383C25.8968 11.5477 26 11.8054 26 12.1114V27.7919C26 28.098 25.8968 28.3557 25.6905 28.5651C25.4841 28.7745 25.2302 28.8792 24.9286 28.8792C24.627 28.8792 24.3651 28.7745 24.1429 28.5651C23.9365 28.3557 23.8333 28.098 23.8333 27.7919V27.1638C22.6746 28.3879 21.3175 29 19.7619 29ZM20.0714 26.9463C20.8016 26.9463 21.4841 26.7852 22.119 26.4631C22.7698 26.1248 23.3413 25.6819 23.8333 25.1342V20.0604C23.3413 19.5128 22.7698 19.0779 22.119 18.7557C21.4841 18.4174 20.8016 18.2483 20.0714 18.2483C18.8968 18.2483 17.9524 18.6268 17.2381 19.3839C16.5238 20.1409 16.1667 21.2121 16.1667 22.5973C16.1667 23.9825 16.5238 25.0537 17.2381 25.8107C17.9524 26.5678 18.8968 26.9463 20.0714 26.9463Z" fill="#7887A5"/>
</svg>
