<svg width="22" height="22" viewBox="0 0 22 22" fill="none" xmlns="http://www.w3.org/2000/svg">
<path d="M10.2812 13.4665L13.2774 9.38448C13.2774 9.38448 13.4643 9.06908 13.9063 9.0088C14.1599 8.97421 14.4167 9.04301 14.6202 9.20005C14.8237 9.35709 14.9572 9.58951 14.9914 9.84619C15.0255 10.1029 14.9576 10.3628 14.8024 10.5687L11.0485 15.6214C10.9591 15.7389 10.8444 15.8341 10.713 15.8997C10.5817 15.9653 10.4373 15.9996 10.2908 16C10.1451 16.0008 10.0012 15.968 9.86988 15.9041C9.7386 15.8402 9.62342 15.7468 9.5331 15.6311L7.20253 12.6123C7.04609 12.4089 6.97589 12.151 7.00737 11.8952C7.03884 11.6394 7.16942 11.4068 7.37037 11.2485C7.57131 11.0901 7.82618 11.0191 8.07889 11.0509C8.33159 11.0828 8.56145 11.215 8.71788 11.4183L10.2812 13.4665Z" fill="#97A3BA"/>
<path fill-rule="evenodd" clip-rule="evenodd" d="M16 3H17C17.7956 3 18.5587 3.31607 19.1213 3.87868C19.6839 4.44129 20 5.20435 20 6V18C20 18.7956 19.6839 19.5587 19.1213 20.1213C18.5587 20.6839 17.7956 21 17 21H5C4.20435 21 3.44129 20.6839 2.87868 20.1213C2.31607 19.5587 2 18.7956 2 18V6C2 5.20435 2.31607 4.44129 2.87868 3.87868C3.44129 3.31607 4.20435 3 5 3H6V2C6 1.73478 6.10536 1.48043 6.29289 1.29289C6.48043 1.10536 6.73478 1 7 1C7.26522 1 7.51957 1.10536 7.70711 1.29289C7.89464 1.48043 8 1.73478 8 2V3H14V2C14 1.73478 14.1054 1.48043 14.2929 1.29289C14.4804 1.10536 14.7348 1 15 1C15.2652 1 15.5196 1.10536 15.7071 1.29289C15.8946 1.48043 16 1.73478 16 2V3ZM6 5H5C4.73478 5 4.48043 5.10536 4.29289 5.29289C4.10536 5.48043 4 5.73478 4 6V18C4 18.5523 4.44772 19 5 19H17C17.5523 19 18 18.5523 18 18V6C18 5.73478 17.8946 5.48043 17.7071 5.29289C17.5196 5.10536 17.2652 5 17 5H16V6C16 6.26522 15.8946 6.51957 15.7071 6.70711C15.5196 6.89464 15.2652 7 15 7C14.7348 7 14.4804 6.89464 14.2929 6.70711C14.1054 6.51957 14 6.26522 14 6V5H8V6C8 6.26522 7.89464 6.51957 7.70711 6.70711C7.51957 6.89464 7.26522 7 7 7C6.73478 7 6.48043 6.89464 6.29289 6.70711C6.10536 6.51957 6 6.26522 6 6V5Z" fill="#97A3BA"/>
</svg>
