<svg width="22" height="22" viewBox="0 0 22 22" fill="none" xmlns="http://www.w3.org/2000/svg">
<path d="M17 3.4305C17 3.15949 16.8737 2.90231 16.6501 2.74919C16.0796 2.3585 15.4687 2.02709 14.8268 1.7612C13.6136 1.25866 12.3132 1 11 1C9.02219 1 7.08879 1.58649 5.4443 2.6853C3.79981 3.78412 2.51809 5.3459 1.76121 7.17317C1.00433 9.00043 0.806299 11.0111 1.19215 12.9509C1.578 14.8907 2.53041 16.6725 3.92894 18.0711C5.32746 19.4696 7.10929 20.422 9.0491 20.8079C10.9889 21.1937 12.9996 20.9957 14.8268 20.2388C16.6541 19.4819 18.2159 18.2002 19.3147 16.5557C20.0209 15.4987 20.5155 14.3224 20.7788 13.0917C20.9026 12.5129 20.4362 12 19.8443 12H19.8192C19.3153 12 18.8967 12.3772 18.7791 12.8672C18.4374 14.2903 17.7087 15.605 16.6569 16.6569C15.1566 18.1571 13.1217 19 11 19C9.41775 19 7.87104 18.5308 6.55544 17.6518C5.23985 16.7727 4.21447 15.5233 3.60897 14.0615C3.00347 12.5997 2.84504 10.9911 3.15372 9.43928C3.4624 7.88743 4.22433 6.46197 5.34315 5.34315C6.46197 4.22433 7.88743 3.4624 9.43928 3.15372C10.9911 2.84504 12.5997 3.00346 14.0615 3.60896C14.484 3.78397 14.8887 3.99404 15.2719 4.23606C15.9427 4.65971 17 4.22386 17 3.4305Z" fill="#97A3BA"/>
<path d="M20 1C19.7348 1 19.4804 1.10536 19.2929 1.29289C19.1054 1.48043 19 1.73478 19 2V6C19 6.26522 19.1054 6.51957 19.2929 6.70711C19.4804 6.89464 19.7348 7 20 7C20.2652 7 20.5196 6.89464 20.7071 6.70711C20.8946 6.51957 21 6.26522 21 6V2C21 1.73478 20.8946 1.48043 20.7071 1.29289C20.5196 1.10536 20.2652 1 20 1Z" fill="#97A3BA"/>
<path d="M12 10H15C15.2652 10 15.5196 10.1054 15.7071 10.2929C15.8946 10.4804 16 10.7348 16 11C16 11.2652 15.8946 11.5196 15.7071 11.7071C15.5196 11.8946 15.2652 12 15 12H11C10.7348 12 10.4804 11.8946 10.2929 11.7071C10.1054 11.5196 10 11.2652 10 11V7C10 6.73478 10.1054 6.48043 10.2929 6.29289C10.4804 6.10536 10.7348 6 11 6C11.2652 6 11.5196 6.10536 11.7071 6.29289C11.8946 6.48043 12 6.73478 12 7V10Z" fill="#97A3BA"/>
<path d="M20 10C20.5523 10 21 9.55228 21 9C21 8.44772 20.5523 8 20 8C19.4477 8 19 8.44772 19 9C19 9.55228 19.4477 10 20 10Z" fill="#97A3BA"/>
</svg>
