<svg width="22" height="22" viewBox="0 0 22 22" fill="none" xmlns="http://www.w3.org/2000/svg">
<path d="M3.00478 11C3.00478 6.58172 6.59506 3 11.0239 3C13.1578 3 15.0978 3.83127 16.5353 5.18872L16.1581 5.13915C15.6093 5.06703 15.1057 5.45245 15.0334 6C14.9611 6.54755 15.3475 7.0499 15.8963 7.12203L18.7076 7.49144C18.9859 7.52801 19.2669 7.44646 19.4821 7.2666C19.6974 7.08675 19.8271 6.8251 19.8398 6.5453L19.999 3.04427C20.024 2.49255 19.596 2.02502 19.043 2C18.49 1.97498 18.0213 2.40196 17.9962 2.95368L17.9587 3.77955C16.1587 2.05866 13.7156 1 11.0239 1C5.48785 1 1 5.47715 1 11C1 16.5228 5.48785 21 11.0239 21C14.376 21 17.3428 19.3581 19.1617 16.8399C19.4853 16.3918 19.3177 15.7765 18.8385 15.5C18.3593 15.2235 17.7507 15.3915 17.4161 15.8315C15.9506 17.7581 13.6322 19 11.0239 19C6.59506 19 3.00478 15.4183 3.00478 11Z" fill="#97A3BA"/>
<path d="M12 10H15C15.2652 10 15.5196 10.1054 15.7071 10.2929C15.8946 10.4804 16 10.7348 16 11C16 11.2652 15.8946 11.5196 15.7071 11.7071C15.5196 11.8946 15.2652 12 15 12H11C10.7348 12 10.4804 11.8946 10.2929 11.7071C10.1054 11.5196 10 11.2652 10 11V7C10 6.73478 10.1054 6.48043 10.2929 6.29289C10.4804 6.10536 10.7348 6 11 6C11.2652 6 11.5196 6.10536 11.7071 6.29289C11.8946 6.48043 12 6.73478 12 7V10Z" fill="#97A3BA"/>
</svg>
