<svg width="40" height="40" viewBox="0 0 40 40" fill="none" xmlns="http://www.w3.org/2000/svg">
<path d="M12.0492 29C11.7539 29 11.5052 28.8898 11.3031 28.6695C11.101 28.4492 11 28.178 11 27.8559V13.678C11 13.2203 11.1477 12.8305 11.443 12.5085C11.7383 12.1695 12.0959 12 12.5155 12H13.285C13.5959 12 13.8756 12.1017 14.1244 12.3051C14.3886 12.5085 14.5829 12.7627 14.7073 13.0678L20 26.4576L25.2927 13.0678C25.4171 12.7627 25.6036 12.5085 25.8523 12.3051C26.1166 12.1017 26.4041 12 26.715 12H27.4845C27.9041 12 28.2617 12.1695 28.557 12.5085C28.8523 12.8305 29 13.2203 29 13.678V27.8559C29 28.178 28.899 28.4492 28.6969 28.6695C28.4948 28.8898 28.2461 29 27.9508 29C27.6554 29 27.399 28.8898 27.1813 28.6695C26.9793 28.4492 26.8782 28.178 26.8782 27.8559V14.4153L21.4922 27.9322C21.3679 28.2542 21.1658 28.5169 20.886 28.7203C20.6218 28.9068 20.3264 29 20 29C19.6736 29 19.3705 28.9068 19.0907 28.7203C18.8264 28.5169 18.6321 28.2542 18.5078 27.9322L13.1218 14.4153V27.8559C13.1218 28.178 13.013 28.4492 12.7953 28.6695C12.5933 28.8898 12.3446 29 12.0492 29Z" fill="#7887A5"/>
</svg>
