<svg width="40" height="40" viewBox="0 0 40 40" fill="none" xmlns="http://www.w3.org/2000/svg">
<path d="M12.0588 26C11.7608 26 11.5098 25.901 11.3059 25.7029C11.102 25.5048 11 25.261 11 24.9714V15.1657C11 14.8762 11.102 14.6324 11.3059 14.4343C11.5098 14.221 11.7608 14.1143 12.0588 14.1143C12.3569 14.1143 12.6078 14.221 12.8118 14.4343C13.0314 14.6324 13.1412 14.8762 13.1412 15.1657V16.1029C13.5804 15.4933 14.1059 14.9905 14.7176 14.5943C15.3451 14.1981 16.1529 14 17.1412 14C18.0196 14 18.7725 14.2286 19.4 14.6857C20.0275 15.1429 20.4745 15.699 20.7412 16.3543C21.7137 14.7848 23.1569 14 25.0706 14C25.949 14 26.6784 14.2133 27.2588 14.64C27.8549 15.0667 28.2941 15.6152 28.5765 16.2857C28.8588 16.9562 29 17.6571 29 18.3886V24.9714C29 25.261 28.8902 25.5048 28.6706 25.7029C28.4667 25.901 28.2157 26 27.9176 26C27.6196 26 27.3686 25.901 27.1647 25.7029C26.9608 25.5048 26.8588 25.261 26.8588 24.9714V18.8C26.8588 17.8095 26.6784 17.0857 26.3176 16.6286C25.9569 16.1562 25.3373 15.92 24.4588 15.92C23.6588 15.92 22.9922 16.1257 22.4588 16.5371C21.9412 16.9333 21.4784 17.459 21.0706 18.1143V24.9714C21.0706 25.261 20.9608 25.5048 20.7412 25.7029C20.5373 25.901 20.2863 26 19.9882 26C19.6902 26 19.4392 25.901 19.2353 25.7029C19.0314 25.5048 18.9294 25.261 18.9294 24.9714V18.8C18.9294 17.8095 18.749 17.0857 18.3882 16.6286C18.0275 16.1562 17.4078 15.92 16.5294 15.92C15.7294 15.92 15.0627 16.1257 14.5294 16.5371C14.0118 16.9333 13.549 17.459 13.1412 18.1143V24.9714C13.1412 25.261 13.0314 25.5048 12.8118 25.7029C12.6078 25.901 12.3569 26 12.0588 26Z" fill="#7887A5"/>
</svg>
