<svg width="22" height="22" viewBox="0 0 22 22" fill="none" xmlns="http://www.w3.org/2000/svg">
<path d="M15.3146 6.08579C14.8951 6.47631 14.8951 7.10948 15.3146 7.5C15.7341 7.89052 16.5805 7.89052 17 7.5V17C17 17.5523 17.4067 18 18 18C18.5932 18 19 17.5523 19 17V7.50003C19.4195 7.89055 20.2659 7.89055 20.6854 7.50003C21.1049 7.1095 21.1049 6.47634 20.6854 6.08582L18.7595 4.29289C18.34 3.90237 17.6599 3.90237 17.2404 4.29289L15.3146 6.08579Z" fill="#97A3BA"/>
<path d="M9 9.99998H10C10.2652 9.99998 10.5196 10.1053 10.7071 10.2929C10.8946 10.4804 11 10.7348 11 11C11 11.2652 10.8946 11.5195 10.7071 11.7071C10.5196 11.8946 10.2652 12 10 12H8C7.73478 12 7.48043 11.8946 7.29289 11.7071C7.10536 11.5195 7 11.2652 7 11V9C7 8.73478 7.10536 8.48043 7.29289 8.29289C7.48043 8.10536 7.73478 8 8 8C8.26522 8 8.51957 8.10536 8.70711 8.29289C8.89464 8.48042 8.99999 8.73477 9 8.99998V9.99998Z" fill="#97A3BA"/>
<path fill-rule="evenodd" clip-rule="evenodd" d="M15 11C15 7.13401 11.866 4 8 4C4.13401 4 1 7.13401 1 11C1 14.866 4.13401 18 8 18C11.866 18 15 14.866 15 11ZM13 11C13 8.23858 10.7614 6 8 6C5.23858 6 3 8.23858 3 11C3 13.7614 5.23858 16 8 16C10.7614 16 13 13.7614 13 11Z" fill="#97A3BA"/>
</svg>
