<svg width="40" height="40" viewBox="0 0 40 40" fill="none" xmlns="http://www.w3.org/2000/svg">
<path d="M20.0765 26C18.3759 26 16.8282 25.6604 15.4337 24.9811C15.1446 24.8 15 24.5509 15 24.234C15 23.9925 15.0935 23.7811 15.2806 23.6C15.4677 23.4189 15.7058 23.3283 15.9949 23.3283C16.148 23.3283 16.301 23.3585 16.4541 23.4189C16.9983 23.6302 17.5425 23.7962 18.0867 23.917C18.631 24.0377 19.2432 24.0981 19.9235 24.0981C21.8112 24.0981 23 23.5623 23 22.4906C23 21.3163 20.6787 21.2484 19.9745 21.0868C18.9711 20.8755 18.1378 20.6566 17.4745 20.4302C16.8282 20.2038 16.267 19.8642 15.7908 19.4113C15.3316 18.9434 15.102 18.3321 15.102 17.5774C15.102 16.5208 15.5272 15.6604 16.3776 14.9962C17.2449 14.3321 18.4779 14 20.0765 14C21.3861 14 22.619 14.1887 23.7755 14.566C24.0136 14.6264 24.1922 14.7396 24.3112 14.9057C24.4473 15.0717 24.5153 15.2453 24.5153 15.4264C24.5153 15.6679 24.4133 15.8792 24.2092 16.0604C24.0221 16.2415 23.784 16.3321 23.4949 16.3321C23.4099 16.3321 23.2993 16.317 23.1633 16.2868C22.1769 16.0151 21.2075 15.8792 20.2551 15.8792C19.0129 15.8792 17 16 17 17.5C17 17.9528 17.5595 18.2491 18.0357 18.4604C18.5119 18.6717 19.2517 18.8755 20.2551 19.0717C21.2585 19.2981 22.0748 19.5245 22.7041 19.7509C23.3333 19.9623 23.869 20.3019 24.3112 20.7698C24.7704 21.2377 25 21.8642 25 22.6491C25 23.6151 24.5663 24.4151 23.699 25.0491C22.8486 25.683 21.6412 26 20.0765 26Z" fill="#7887A5"/>
</svg>
