<svg width="22" height="22" viewBox="0 0 22 22" fill="none" xmlns="http://www.w3.org/2000/svg">
<path d="M1.24068 3.60114C1.60562 4.03963 2.26481 4.12956 2.74334 3.80614L5.53237 1.92113C6.05131 1.5704 6.15507 0.874372 5.75932 0.398858C5.39438 -0.0396275 4.73519 -0.129558 4.25666 0.193859L1.46763 2.07887C0.948695 2.4296 0.84493 3.12563 1.24068 3.60114Z" fill="#97A3BA"/>
<path d="M19.2567 3.80614C19.7352 4.12956 20.3944 4.03963 20.7593 3.60114C21.1551 3.12563 21.0513 2.4296 20.5324 2.07887L17.7433 0.193859C17.2648 -0.129558 16.6056 -0.0396275 16.2407 0.398858C15.8449 0.874372 15.9487 1.5704 16.4676 1.92113L19.2567 3.80614Z" fill="#97A3BA"/>
<path d="M12 11H15C15.2652 11 15.5196 11.1054 15.7071 11.2929C15.8946 11.4804 16 11.7348 16 12C16 12.2652 15.8946 12.5196 15.7071 12.7071C15.5196 12.8946 15.2652 13 15 13H11C10.7348 13 10.4804 12.8946 10.2929 12.7071C10.1054 12.5196 10 12.2652 10 12V8C10 7.73478 10.1054 7.48043 10.2929 7.29289C10.4804 7.10536 10.7348 7 11 7C11.2652 7 11.5196 7.10536 11.7071 7.29289C11.8946 7.48043 12 7.73478 12 8V11Z" fill="#97A3BA"/>
<path fill-rule="evenodd" clip-rule="evenodd" d="M5.4443 3.6853C7.08879 2.58649 9.02219 2 11 2C12.3132 2 13.6136 2.25866 14.8268 2.7612C16.0401 3.26375 17.1425 4.00035 18.0711 4.92893C18.9997 5.85752 19.7363 6.95991 20.2388 8.17317C20.7413 9.38642 21 10.6868 21 12C21 13.9778 20.4135 15.9112 19.3147 17.5557C18.2159 19.2002 16.6541 20.4819 14.8268 21.2388C12.9996 21.9957 10.9889 22.1937 9.0491 21.8079C7.10929 21.422 5.32746 20.4696 3.92894 19.0711C2.53041 17.6725 1.578 15.8907 1.19215 13.9509C0.8063 12.0111 1.00433 10.0004 1.76121 8.17317C2.51809 6.3459 3.79981 4.78412 5.4443 3.6853ZM6.55544 18.6518C7.87104 19.5308 9.41775 20 11 20C13.1217 20 15.1566 19.1571 16.6569 17.6569C18.1572 16.1566 19 14.1217 19 12C19 10.4177 18.5308 8.87103 17.6518 7.55544C16.7727 6.23984 15.5233 5.21447 14.0615 4.60896C12.5997 4.00346 10.9911 3.84504 9.43928 4.15372C7.88743 4.4624 6.46197 5.22433 5.34315 6.34315C4.22433 7.46197 3.4624 8.88743 3.15372 10.4393C2.84504 11.9911 3.00347 13.5997 3.60897 15.0615C4.21447 16.5233 5.23985 17.7727 6.55544 18.6518Z" fill="#97A3BA"/>
</svg>
