<svg width="24" height="24" viewBox="0 0 24 24" fill="none" xmlns="http://www.w3.org/2000/svg">
<path fill-rule="evenodd" clip-rule="evenodd" d="M3 4V20C3 20.5523 2.55228 21 2 21C1.44772 21 1 20.5523 1 20V4C1 3.44772 1.44772 3 2 3C2.55228 3 3 3.44772 3 4Z" fill="#777B92"/>
<path fill-rule="evenodd" clip-rule="evenodd" d="M8 4C8 4.55228 7.55228 5 7 5C6.44772 5 6 4.55228 6 4C6 3.44772 6.44772 3 7 3C7.55228 3 8 3.44772 8 4Z" fill="#777B92"/>
<path fill-rule="evenodd" clip-rule="evenodd" d="M8 20C8 20.5523 7.55228 21 7 21C6.44772 21 6 20.5523 6 20C6 19.4477 6.44772 19 7 19C7.55228 19 8 19.4477 8 20Z" fill="#777B92"/>
<path fill-rule="evenodd" clip-rule="evenodd" d="M12 5C11.4477 5 11 4.55228 11 4C11 3.44772 11.4477 3 12 3C12.5523 3 13 3.44772 13 4C13 4.55228 12.5523 5 12 5Z" fill="#777B92"/>
<path fill-rule="evenodd" clip-rule="evenodd" d="M13 20C13 20.5523 12.5523 21 12 21C11.4477 21 11 20.5523 11 20C11 19.4477 11.4477 19 12 19C12.5523 19 13 19.4477 13 20Z" fill="#777B92"/>
<path fill-rule="evenodd" clip-rule="evenodd" d="M17 5C16.4477 5 16 4.55228 16 4C16 3.44772 16.4477 3 17 3C17.5523 3 18 3.44772 18 4C18 4.55228 17.5523 5 17 5Z" fill="#777B92"/>
<path fill-rule="evenodd" clip-rule="evenodd" d="M18 20C18 20.5523 17.5523 21 17 21C16.4477 21 16 20.5523 16 20C16 19.4477 16.4477 19 17 19C17.5523 19 18 19.4477 18 20Z" fill="#777B92"/>
<path fill-rule="evenodd" clip-rule="evenodd" d="M22 3C22.5523 3 23 3.44772 23 4V20C23 20.5523 22.5523 21 22 21C21.4477 21 21 20.5523 21 20V4C21 3.44772 21.4477 3 22 3Z" fill="#777B92"/>
<path fill-rule="evenodd" clip-rule="evenodd" d="M8.70711 9.70711L7.41421 11H16.5858L15.2929 9.70711C14.9024 9.31658 14.9024 8.68342 15.2929 8.29289C15.6834 7.90237 16.3166 7.90237 16.7071 8.29289L19.7071 11.2929C20.0976 11.6834 20.0976 12.3166 19.7071 12.7071L16.7071 15.7071C16.3166 16.0976 15.6834 16.0976 15.2929 15.7071C14.9024 15.3166 14.9024 14.6834 15.2929 14.2929L16.5858 13H7.41421L8.70711 14.2929C9.09763 14.6834 9.09763 15.3166 8.70711 15.7071C8.31658 16.0976 7.68342 16.0976 7.29289 15.7071L4.29289 12.7071C3.90237 12.3166 3.90237 11.6834 4.29289 11.2929L7.29289 8.29289C7.68342 7.90237 8.31658 7.90237 8.70711 8.29289C9.09763 8.68342 9.09763 9.31658 8.70711 9.70711Z" fill="#777B92"/>
</svg>
