<svg width="40" height="40" viewBox="0 0 40 40" fill="none" xmlns="http://www.w3.org/2000/svg">
<path d="M20 13C20.5523 13 21 13.4477 21 14V18.2339L24.4854 16.1427C24.959 15.8585 25.5733 16.0121 25.8574 16.4857C26.1415 16.9592 25.988 17.5735 25.5144 17.8576L21.9437 20.0001L25.5146 22.1427C25.9882 22.4268 26.1417 23.0411 25.8576 23.5146C25.5734 23.9882 24.9592 24.1418 24.4856 23.8576L21 21.7663V26C21 26.5523 20.5523 27 20 27C19.4477 27 19 26.5523 19 26V21.7663L15.5144 23.8576C15.0408 24.1418 14.4266 23.9882 14.1424 23.5146C13.8583 23.0411 14.0118 22.4268 14.4854 22.1427L18.0563 20.0001L14.4856 17.8576C14.012 17.5735 13.8585 16.9592 14.1426 16.4857C14.4267 16.0121 15.041 15.8585 15.5146 16.1427L19 18.2339V14C19 13.4477 19.4477 13 20 13Z" fill="#7887A5"/>
</svg>
