<svg width="22" height="22" viewBox="0 0 22 22" fill="none" xmlns="http://www.w3.org/2000/svg">
<path d="M17 2H16V1C16 0.734784 15.8946 0.48043 15.7071 0.292893C15.5196 0.105357 15.2652 0 15 0C14.7348 0 14.4804 0.105357 14.2929 0.292893C14.1054 0.48043 14 0.734784 14 1V2H13C12.7348 2 12.4804 2.10536 12.2929 2.29289C12.1054 2.48043 12 2.73478 12 3C12 3.26522 12.1054 3.51957 12.2929 3.70711C12.4804 3.89464 12.7348 4 13 4H14V5C14 5.26522 14.1054 5.51957 14.2929 5.70711C14.4804 5.89464 14.7348 6 15 6C15.2652 6 15.5196 5.89464 15.7071 5.70711C15.8946 5.51957 16 5.26522 16 5V4H17C17.2652 4 17.5196 3.89464 17.7071 3.70711C17.8946 3.51957 18 3.26522 18 3C18 2.73478 17.8946 2.48043 17.7071 2.29289C17.5196 2.10536 17.2652 2 17 2Z" fill="#BCC3D2"/>
<path d="M9.00785 0.0493326C9.55398 -0.00511788 10 0.444918 10 0.993753C10 1.54744 9.54522 1.98569 8.99647 2.05943C8.81673 2.08359 8.63382 2.11502 8.43928 2.15372C6.88743 2.4624 5.46197 3.22433 4.34315 4.34315C3.22433 5.46197 2.4624 6.88743 2.15372 8.43928C1.84504 9.99113 2.00347 11.5997 2.60897 13.0615C3.21447 14.5233 4.23985 15.7727 5.55544 16.6518C6.87104 17.5308 8.41775 18 10 18C12.1217 18 14.1566 17.1571 15.6569 15.6569C17.1572 14.1566 18 12.1217 18 10C18 9.42122 17.9372 8.84719 17.8146 8.28749C17.695 7.74202 17.9688 7.16484 18.4981 6.98679C19.0152 6.81284 19.5814 7.08554 19.7115 7.61538C19.9027 8.394 20 9.19458 20 10C20 11.9778 19.4135 13.9112 18.3147 15.5557C17.2159 17.2002 15.6541 18.4819 13.8268 19.2388C11.9996 19.9957 9.98891 20.1937 8.0491 19.8079C6.10929 19.422 4.32746 18.4696 2.92894 17.0711C1.53041 15.6725 0.578004 13.8907 0.192152 11.9509C-0.193701 10.0111 0.00433284 8.00043 0.761209 6.17316C1.51809 4.3459 2.79981 2.78412 4.4443 1.6853C5.81245 0.771138 7.38056 0.211578 9.00785 0.0493326Z" fill="#BCC3D2"/>
<path d="M14 9H11V6C11 5.73478 10.8946 5.48043 10.7071 5.29289C10.5196 5.10536 10.2652 5 10 5C9.73478 5 9.48043 5.10536 9.29289 5.29289C9.10536 5.48043 9 5.73478 9 6V10C9 10.2652 9.10536 10.5196 9.29289 10.7071C9.48043 10.8946 9.73478 11 10 11H14C14.2652 11 14.5196 10.8946 14.7071 10.7071C14.8946 10.5196 15 10.2652 15 10C15 9.73478 14.8946 9.48043 14.7071 9.29289C14.5196 9.10536 14.2652 9 14 9Z" fill="#BCC3D2"/>
</svg>
