<svg width="22" height="22" viewBox="0 0 22 22" fill="none" xmlns="http://www.w3.org/2000/svg">
<path d="M13 6.99998H12V5.99998C12 5.73477 11.8946 5.48042 11.7071 5.29289C11.5196 5.10536 11.2652 5 11 5C10.7348 5 10.4804 5.10536 10.2929 5.29289C10.1054 5.48043 10 5.73478 10 6V7.99998C10 8.26519 10.1054 8.51955 10.2929 8.70708C10.4804 8.89462 10.7348 8.99998 11 8.99998H13C13.2652 8.99998 13.5196 8.89462 13.7071 8.70708C13.8946 8.51955 14 8.26519 14 7.99998C14 7.73476 13.8946 7.48041 13.7071 7.29287C13.5196 7.10533 13.2652 6.99998 13 6.99998Z" fill="#97A3BA"/>
<path fill-rule="evenodd" clip-rule="evenodd" d="M18 8C18 11.866 14.866 15 11 15C7.13401 15 4 11.866 4 8C4 4.13401 7.13401 1 11 1C14.866 1 18 4.13401 18 8ZM16 8C16 10.7614 13.7614 13 11 13C8.23858 13 6 10.7614 6 8C6 5.23858 8.23858 3 11 3C13.7614 3 16 5.23858 16 8Z" fill="#97A3BA"/>
<path d="M16 16C16 15.4477 16.4477 15 17 15C17.5523 15 18 15.4477 18 16V20C18 20.5523 17.5523 21 17 21C16.4477 21 16 20.5523 16 20V19H5C4.44772 19 4 18.5523 4 18C4 17.4477 4.44772 17 5 17H16V16Z" fill="#97A3BA"/>
</svg>
