<svg width="22" height="22" viewBox="0 0 22 22" fill="none" xmlns="http://www.w3.org/2000/svg">
<path d="M17.7071 1.70711C18.0976 1.31658 18.0976 0.683417 17.7071 0.292893C17.3166 -0.0976311 16.6834 -0.0976311 16.2929 0.292893L15.5 1.08579L14.7071 0.292893C14.3166 -0.0976311 13.6834 -0.0976311 13.2929 0.292893C12.9024 0.683417 12.9024 1.31658 13.2929 1.70711L14.0858 2.5L13.2929 3.29289C12.9024 3.68342 12.9024 4.31658 13.2929 4.70711C13.6834 5.09763 14.3166 5.09763 14.7071 4.70711L15.5 3.91421L16.2929 4.70711C16.6834 5.09763 17.3166 5.09763 17.7071 4.70711C18.0976 4.31658 18.0976 3.68342 17.7071 3.29289L16.9142 2.5L17.7071 1.70711Z" fill="#BCC3D2"/>
<path d="M10 0.993816C10 0.444981 9.55398 -0.00505492 9.00785 0.0493956C7.38056 0.211641 5.81245 0.771201 4.4443 1.68537C2.79981 2.78418 1.51809 4.34597 0.761209 6.17323C0.00433284 8.00049 -0.193701 10.0112 0.192152 11.951C0.578004 13.8908 1.53041 15.6726 2.92894 17.0711C4.32746 18.4697 6.10929 19.4221 8.0491 19.8079C9.98891 20.1938 11.9996 19.9957 13.8268 19.2389C15.6541 18.482 17.2159 17.2003 18.3147 15.5558C19.4135 13.9113 20 11.9779 20 10.0001C20 9.19464 19.9027 8.39406 19.7115 7.61545C19.5814 7.08561 19.0152 6.8129 18.4981 6.98686C17.9688 7.16491 17.695 7.74208 17.8146 8.28756C17.9372 8.84725 18 9.42128 18 10.0001C18 12.1218 17.1572 14.1566 15.6569 15.6569C14.1566 17.1572 12.1217 18.0001 10 18.0001C8.41775 18.0001 6.87104 17.5309 5.55544 16.6518C4.23985 15.7728 3.21447 14.5233 2.60897 13.0615C2.00347 11.5997 1.84504 9.99119 2.15372 8.43934C2.4624 6.88749 3.22433 5.46203 4.34315 4.34321C5.46197 3.22439 6.88743 2.46246 8.43928 2.15378C8.63382 2.11508 8.81673 2.08365 8.99647 2.0595C9.54522 1.98575 10 1.54751 10 0.993816Z" fill="#BCC3D2"/>
<path d="M11 9H14C14.2652 9 14.5196 9.10536 14.7071 9.29289C14.8946 9.48043 15 9.73478 15 10C15 10.2652 14.8946 10.5196 14.7071 10.7071C14.5196 10.8946 14.2652 11 14 11H10C9.73478 11 9.48043 10.8946 9.29289 10.7071C9.10536 10.5196 9 10.2652 9 10V6C9 5.73478 9.10536 5.48043 9.29289 5.29289C9.48043 5.10536 9.73478 5 10 5C10.2652 5 10.5196 5.10536 10.7071 5.29289C10.8946 5.48043 11 5.73478 11 6V9Z" fill="#BCC3D2"/>
</svg>
