<svg width="24" height="24" viewBox="0 0 24 24" fill="none" xmlns="http://www.w3.org/2000/svg">
<path fill-rule="evenodd" clip-rule="evenodd" d="M4.77025 4.02685C5.22162 3.92029 5.68702 4.13807 5.89443 4.55288L12 16.764L18.1056 4.55288C18.313 4.13807 18.7784 3.92029 19.2298 4.02685C19.6811 4.1334 20 4.53632 20 5.0001V19.0001C20 19.5524 19.5523 20.0001 19 20.0001C18.4477 20.0001 18 19.5524 18 19.0001V9.23617L12.8944 19.4473C12.725 19.7861 12.3788 20.0001 12 20.0001C11.6212 20.0001 11.275 19.7861 11.1056 19.4473L6 9.23617V19.0001C6 19.5524 5.55228 20.0001 5 20.0001C4.44772 20.0001 4 19.5524 4 19.0001V5.0001C4 4.53632 4.31888 4.1334 4.77025 4.02685Z" fill="#777B92"/>
</svg>
