<svg width="22" height="22" viewBox="0 0 22 22" fill="none" xmlns="http://www.w3.org/2000/svg">
<path d="M18.9952 11C18.9952 6.58172 15.4049 3 10.9761 3C8.84216 3 6.90221 3.83127 5.46466 5.18872L5.84185 5.13915C6.39071 5.06703 6.89426 5.45245 6.96656 6C7.03885 6.54755 6.65252 7.0499 6.10366 7.12203L3.29243 7.49144C3.01408 7.52801 2.73311 7.44646 2.51788 7.2666C2.30265 7.08675 2.17289 6.8251 2.16017 6.5453L2.00105 3.04427C1.97597 2.49255 2.40397 2.02502 2.957 2C3.51004 1.97498 3.97869 2.40196 4.00377 2.95368L4.0413 3.77955C5.84125 2.05866 8.28444 1 10.9761 1C16.5122 1 21 5.47715 21 11C21 16.5228 16.5122 21 10.9761 21C7.62398 21 4.65722 19.3581 2.83834 16.8399C2.5147 16.3918 2.68233 15.7765 3.16153 15.5C3.64073 15.2235 4.24927 15.3915 4.58392 15.8315C6.04941 17.7581 8.36784 19 10.9761 19C15.4049 19 18.9952 15.4183 18.9952 11Z" fill="#97A3BA"/>
<path d="M12 10H15C15.2652 10 15.5196 10.1054 15.7071 10.2929C15.8946 10.4804 16 10.7348 16 11C16 11.2652 15.8946 11.5196 15.7071 11.7071C15.5196 11.8946 15.2652 12 15 12H11C10.7348 12 10.4804 11.8946 10.2929 11.7071C10.1054 11.5196 10 11.2652 10 11V7C10 6.73478 10.1054 6.48043 10.2929 6.29289C10.4804 6.10536 10.7348 6 11 6C11.2652 6 11.5196 6.10536 11.7071 6.29289C11.8946 6.48043 12 6.73478 12 7V10Z" fill="#97A3BA"/>
</svg>
