<svg width="22" height="22" viewBox="0 0 22 22" fill="none" xmlns="http://www.w3.org/2000/svg">
<path d="M10.995 8.00005C10.2007 8.00005 9.43889 8.27661 8.87722 8.7689C8.31554 9.26118 8 9.92886 8 10.6251C8 10.824 8.09016 11.0147 8.25063 11.1554C8.41111 11.296 8.62877 11.3751 8.85572 11.3751C9.08267 11.3751 9.30032 11.296 9.4608 11.1554C9.62128 11.0147 9.71143 10.824 9.71143 10.6251C9.71143 10.4025 9.78671 10.185 9.92775 10C10.0688 9.81503 10.2693 9.67083 10.5038 9.58569C10.7383 9.50054 10.9964 9.47826 11.2454 9.52167C11.4944 9.56507 11.7231 9.67222 11.9026 9.82956C12.0821 9.98689 12.2044 10.1873 12.2539 10.4056C12.3034 10.6238 12.278 10.85 12.1809 11.0556C12.0837 11.2611 11.9192 11.4368 11.7081 11.5605C11.497 11.6841 11.2489 11.7501 10.995 11.7501C10.7681 11.7501 10.5504 11.8291 10.3899 11.9697C10.2294 12.1104 10.1393 12.3011 10.1393 12.5001V14.0001C10.1393 14.199 10.2294 14.3897 10.3899 14.5304C10.5504 14.671 10.7681 14.7501 10.995 14.7501C11.222 14.7501 11.4396 14.671 11.6001 14.5304C11.7606 14.3897 11.8507 14.199 11.8507 14.0001V13.1301C12.5422 12.9531 13.1374 12.5629 13.5266 12.0316C13.9158 11.5003 14.0728 10.8636 13.9686 10.2388C13.8644 9.6141 13.506 9.04342 12.9596 8.63199C12.4131 8.22057 11.7154 7.99613 10.995 8.00005Z" fill="#97A3BA"/>
<path d="M10.995 17C11.4676 17 11.8507 16.6642 11.8507 16.25C11.8507 15.8358 11.4676 15.5 10.995 15.5C10.5224 15.5 10.1393 15.8358 10.1393 16.25C10.1393 16.6642 10.5224 17 10.995 17Z" fill="#97A3BA"/>
<path fill-rule="evenodd" clip-rule="evenodd" d="M16 3H17C17.7956 3 18.5587 3.31607 19.1213 3.87868C19.6839 4.44129 20 5.20435 20 6V18C20 18.7956 19.6839 19.5587 19.1213 20.1213C18.5587 20.6839 17.7956 21 17 21H5C4.20435 21 3.44129 20.6839 2.87868 20.1213C2.31607 19.5587 2 18.7956 2 18V6C2 5.20435 2.31607 4.44129 2.87868 3.87868C3.44129 3.31607 4.20435 3 5 3H6V2C6 1.73478 6.10536 1.48043 6.29289 1.29289C6.48043 1.10536 6.73478 1 7 1C7.26522 1 7.51957 1.10536 7.70711 1.29289C7.89464 1.48043 8 1.73478 8 2V3H14V2C14 1.73478 14.1054 1.48043 14.2929 1.29289C14.4804 1.10536 14.7348 1 15 1C15.2652 1 15.5196 1.10536 15.7071 1.29289C15.8946 1.48043 16 1.73478 16 2V3ZM6 5H5C4.73478 5 4.48043 5.10536 4.29289 5.29289C4.10536 5.48043 4 5.73478 4 6V18C4 18.5523 4.44772 19 5 19H17C17.5523 19 18 18.5523 18 18V6C18 5.73478 17.8946 5.48043 17.7071 5.29289C17.5196 5.10536 17.2652 5 17 5H16V6C16 6.26522 15.8946 6.51957 15.7071 6.70711C15.5196 6.89464 15.2652 7 15 7C14.7348 7 14.4804 6.89464 14.2929 6.70711C14.1054 6.51957 14 6.26522 14 6V5H8V6C8 6.26522 7.89464 6.51957 7.70711 6.70711C7.51957 6.89464 7.26522 7 7 7C6.73478 7 6.48043 6.89464 6.29289 6.70711C6.10536 6.51957 6 6.26522 6 6V5Z" fill="#97A3BA"/>
</svg>
