<svg width="22" height="22" viewBox="0 0 22 22" fill="none" xmlns="http://www.w3.org/2000/svg">
<path d="M11.0239 3C6.59506 3 3.00478 6.58172 3.00478 11C3.00478 15.4183 6.59506 19 11.0239 19C11.7476 19 12.4491 18.9044 13.1162 18.725C13.6231 18.5887 14.18 18.8038 14.4084 19.2766C14.6582 19.7938 14.426 20.4268 13.8751 20.5896C12.9715 20.8566 12.0145 21 11.0239 21C5.48785 21 1 16.5228 1 11C1 5.47715 5.48785 1 11.0239 1C13.7156 1 16.1587 2.05866 17.9587 3.77955L17.9962 2.95368C18.0213 2.40196 18.49 1.97498 19.043 2C19.596 2.02502 20.024 2.49255 19.999 3.04427L19.8398 6.5453C19.8271 6.8251 19.6974 7.08675 19.4821 7.2666C19.2669 7.44646 18.9859 7.52801 18.7076 7.49144L15.8963 7.12203C15.3475 7.0499 14.9611 6.54755 15.0334 6C15.1057 5.45245 15.6093 5.06703 16.1581 5.13915L16.5353 5.18872C15.0978 3.83127 13.1578 3 11.0239 3Z" fill="#97A3BA"/>
<path d="M15 10H12V7C12 6.73478 11.8946 6.48043 11.7071 6.29289C11.5196 6.10536 11.2652 6 11 6C10.7348 6 10.4804 6.10536 10.2929 6.29289C10.1054 6.48043 10 6.73478 10 7V11C10 11.2652 10.1054 11.5196 10.2929 11.7071C10.4804 11.8946 10.7348 12 11 12H15C15.2652 12 15.5196 11.8946 15.7071 11.7071C15.8946 11.5196 16 11.2652 16 11C16 10.7348 15.8946 10.4804 15.7071 10.2929C15.5196 10.1054 15.2652 10 15 10Z" fill="#97A3BA"/>
<path d="M19.3401 20.5815C19.9989 21.2593 21.0113 21.1428 20.9989 20.0188V15.9812C21.0113 14.8572 19.9989 14.7407 19.3401 15.4185L17.3417 17.219C16.999 17.5 16.9996 18 16.9996 18C16.9996 18 16.999 18.5 17.3417 18.781L19.3401 20.5815Z" fill="#97A3BA"/>
</svg>
