<svg width="24" height="24" viewBox="0 0 24 24" fill="none" xmlns="http://www.w3.org/2000/svg">
<path fill-rule="evenodd" clip-rule="evenodd" d="M12 10V13H15C15.5523 13 16 13.4477 16 14C16 14.5523 15.5523 15 15 15H12C10.8954 15 10 14.1046 10 13V10C10 9.44772 10.4477 9 11 9C11.5523 9 12 9.44772 12 10Z" fill="#777B92"/>
<path fill-rule="evenodd" clip-rule="evenodd" d="M17 3V4H19C20.1046 4 21 4.89543 21 6V20C21 21.1046 20.1046 22 19 22H5C3.89543 22 3 21.1046 3 20V6C3 4.89543 3.89543 4 5 4H7V3C7 2.44772 7.44772 2 8 2C8.55228 2 9 2.44772 9 3V4H15V3C15 2.44772 15.4477 2 16 2C16.5523 2 17 2.44772 17 3ZM7 7V6H5V20H19V6H17V7C17 7.55228 16.5523 8 16 8C15.4477 8 15 7.55228 15 7V6H9V7C9 7.55228 8.55228 8 8 8C7.44772 8 7 7.55228 7 7Z" fill="#777B92"/>
</svg>
