<svg width="22" height="22" viewBox="0 0 22 22" fill="none" xmlns="http://www.w3.org/2000/svg">
<path d="M7 16C7.55228 16 8 15.5523 8 15C8 14.4477 7.55228 14 7 14C6.44772 14 6 14.4477 6 15C6 15.5523 6.44772 16 7 16Z" fill="#97A3BA"/>
<path d="M11 14H15C15.2652 14 15.5196 14.1054 15.7071 14.2929C15.8946 14.4804 16 14.7348 16 15C16 15.2652 15.8946 15.5196 15.7071 15.7071C15.5196 15.8946 15.2652 16 15 16H11C10.7348 16 10.4804 15.8946 10.2929 15.7071C10.1054 15.5196 10 15.2652 10 15C10 14.7348 10.1054 14.4804 10.2929 14.2929C10.4804 14.1054 10.7348 14 11 14Z" fill="#97A3BA"/>
<path fill-rule="evenodd" clip-rule="evenodd" d="M17 3H16V2C16 1.73478 15.8946 1.48043 15.7071 1.29289C15.5196 1.10536 15.2652 1 15 1C14.7348 1 14.4804 1.10536 14.2929 1.29289C14.1054 1.48043 14 1.73478 14 2V3H8V2C8 1.73478 7.89464 1.48043 7.70711 1.29289C7.51957 1.10536 7.26522 1 7 1C6.73478 1 6.48043 1.10536 6.29289 1.29289C6.10536 1.48043 6 1.73478 6 2V3H5C4.20435 3 3.44129 3.31607 2.87868 3.87868C2.31607 4.44129 2 5.20435 2 6V18C2 18.7956 2.31607 19.5587 2.87868 20.1213C3.44129 20.6839 4.20435 21 5 21H17C17.7956 21 18.5587 20.6839 19.1213 20.1213C19.6839 19.5587 20 18.7956 20 18V6C20 5.20435 19.6839 4.44129 19.1213 3.87868C18.5587 3.31607 17.7956 3 17 3ZM5 5H6V6C6 6.26522 6.10536 6.51957 6.29289 6.70711C6.48043 6.89464 6.73478 7 7 7C7.26522 7 7.51957 6.89464 7.70711 6.70711C7.89464 6.51957 8 6.26522 8 6V5H14V6C14 6.26522 14.1054 6.51957 14.2929 6.70711C14.4804 6.89464 14.7348 7 15 7C15.2652 7 15.5196 6.89464 15.7071 6.70711C15.8946 6.51957 16 6.26522 16 6V5H17C17.2652 5 17.5196 5.10536 17.7071 5.29289C17.8946 5.48043 18 5.73478 18 6V10H4V6C4 5.73478 4.10536 5.48043 4.29289 5.29289C4.48043 5.10536 4.73478 5 5 5ZM17.7071 18.7071C17.5196 18.8946 17.2652 19 17 19H5C4.73478 19 4.48043 18.8946 4.29289 18.7071C4.10536 18.5196 4 18.2652 4 18V12H18V18C18 18.2652 17.8946 18.5196 17.7071 18.7071Z" fill="#97A3BA"/>
</svg>
