<svg width="40" height="40" viewBox="0 0 40 40" fill="none" xmlns="http://www.w3.org/2000/svg">
<path d="M19.9991 29C19.6966 29 19.4338 28.896 19.2108 28.6879C19.0038 28.4798 18.9003 28.2236 18.9003 27.9195V20.7966L13.1911 12.7528C13.0637 12.5447 13 12.3286 13 12.1045C13 11.8004 13.0956 11.5443 13.2867 11.3362C13.4937 11.1121 13.7485 11 14.0511 11C14.4492 11 14.7677 11.1841 15.0066 11.5523L19.9991 18.8517L24.9917 11.5523C25.2306 11.1841 25.5491 11 25.9472 11C26.2498 11 26.5046 11.1121 26.7116 11.3362C26.9187 11.5443 27.0142 11.8004 26.9983 12.1045C26.9983 12.3286 26.9346 12.5447 26.8072 12.7528L21.0741 20.7966V27.9195C21.0741 28.2236 20.9706 28.4798 20.7636 28.6879C20.5565 28.896 20.3017 29 19.9991 29Z" fill="#7887A5"/>
</svg>
