<svg width="22" height="22" viewBox="0 0 22 22" fill="none" xmlns="http://www.w3.org/2000/svg">
<path d="M12 12H13C13.2652 12 13.5196 12.1054 13.7071 12.2929C13.8946 12.4804 14 12.7348 14 13C14 13.2652 13.8946 13.5196 13.7071 13.7071C13.5196 13.8946 13.2652 14 13 14H12V15C12 15.2652 11.8946 15.5196 11.7071 15.7071C11.5196 15.8946 11.2652 16 11 16C10.7348 16 10.4804 15.8946 10.2929 15.7071C10.1054 15.5196 10 15.2652 10 15V14H9C8.73478 14 8.48043 13.8946 8.29289 13.7071C8.10536 13.5196 8 13.2652 8 13C8 12.7348 8.10536 12.4804 8.29289 12.2929C8.48043 12.1054 8.73478 12 9 12H10V11C10 10.7348 10.1054 10.4804 10.2929 10.2929C10.4804 10.1054 10.7348 10 11 10C11.2652 10 11.5196 10.1054 11.7071 10.2929C11.8946 10.4804 12 10.7348 12 11V12Z" fill="#97A3BA"/>
<path fill-rule="evenodd" clip-rule="evenodd" d="M16 3H17C17.7956 3 18.5587 3.31607 19.1213 3.87868C19.6839 4.44129 20 5.20435 20 6V18C20 18.7956 19.6839 19.5587 19.1213 20.1213C18.5587 20.6839 17.7956 21 17 21H5C4.20435 21 3.44129 20.6839 2.87868 20.1213C2.31607 19.5587 2 18.7956 2 18V6C2 5.20435 2.31607 4.44129 2.87868 3.87868C3.44129 3.31607 4.20435 3 5 3H6V2C6 1.73478 6.10536 1.48043 6.29289 1.29289C6.48043 1.10536 6.73478 1 7 1C7.26522 1 7.51957 1.10536 7.70711 1.29289C7.89464 1.48043 8 1.73478 8 2V3H14V2C14 1.73478 14.1054 1.48043 14.2929 1.29289C14.4804 1.10536 14.7348 1 15 1C15.2652 1 15.5196 1.10536 15.7071 1.29289C15.8946 1.48043 16 1.73478 16 2V3ZM6 5H5C4.73478 5 4.48043 5.10536 4.29289 5.29289C4.10536 5.48043 4 5.73478 4 6V18C4 18.5523 4.44772 19 5 19H17C17.5523 19 18 18.5523 18 18V6C18 5.73478 17.8946 5.48043 17.7071 5.29289C17.5196 5.10536 17.2652 5 17 5H16V6C16 6.26522 15.8946 6.51957 15.7071 6.70711C15.5196 6.89464 15.2652 7 15 7C14.7348 7 14.4804 6.89464 14.2929 6.70711C14.1054 6.51957 14 6.26522 14 6V5H8V6C8 6.26522 7.89464 6.51957 7.70711 6.70711C7.51957 6.89464 7.26522 7 7 7C6.73478 7 6.48043 6.89464 6.29289 6.70711C6.10536 6.51957 6 6.26522 6 6V5Z" fill="#97A3BA"/>
</svg>
