<svg width="24" height="24" viewBox="0 0 24 24" fill="none" xmlns="http://www.w3.org/2000/svg">
<path fill-rule="evenodd" clip-rule="evenodd" d="M6.70816 6H7C7.55228 6 8 6.44772 8 7C8 7.55228 7.55228 8 7 8H4.51555C4.02861 8 3.61247 7.64927 3.53 7.16937L3.01445 4.16937C2.92091 3.62506 3.28633 3.10799 3.83063 3.01445C4.37494 2.92091 4.89201 3.28633 4.98555 3.83063L5.13922 4.72483C6.92916 3.03639 9.34343 2 12 2C17.5228 2 22 6.47715 22 12C22 17.5228 17.5228 22 12 22C6.47715 22 2 17.5228 2 12C2 11.4477 2.44772 11 3 11C3.55228 11 4 11.4477 4 12C4 16.4183 7.58172 20 12 20C16.4183 20 20 16.4183 20 12C20 7.58172 16.4183 4 12 4C9.97153 4 8.11907 4.75451 6.70816 6Z" fill="#777B92"/>
<path fill-rule="evenodd" clip-rule="evenodd" d="M13 8V11H16C16.5523 11 17 11.4477 17 12C17 12.5523 16.5523 13 16 13H13C11.8954 13 11 12.1046 11 11V8C11 7.44772 11.4477 7 12 7C12.5523 7 13 7.44772 13 8Z" fill="#777B92"/>
</svg>
