<svg width="22" height="22" viewBox="0 0 22 22" fill="none" xmlns="http://www.w3.org/2000/svg">
<path d="M16.8054 11.1488C18.5644 9.65005 19.7047 7.51058 19.9928 5.1683C20.0086 5.03219 19.9983 4.89419 19.9627 4.76219C19.927 4.63018 19.8666 4.50676 19.785 4.39896C19.7033 4.29117 19.602 4.20111 19.4868 4.13393C19.3716 4.06675 19.2447 4.02377 19.1135 4.00744C18.9823 3.9911 18.8493 4.00174 18.722 4.03874C18.5948 4.07573 18.4758 4.13837 18.3719 4.22307C18.268 4.30776 18.1811 4.41286 18.1164 4.53237C18.0516 4.65187 18.0102 4.78343 17.9944 4.91954C17.7555 6.66735 16.9164 8.26697 15.6314 9.4243C14.3464 10.5816 12.7018 11.2189 11 11.2189C9.29821 11.2189 7.65361 10.5816 6.36858 9.4243C5.08355 8.26697 4.24446 6.66735 4.00558 4.91954C3.98983 4.78343 3.94839 4.65187 3.88363 4.53237C3.81887 4.41286 3.73205 4.30776 3.62813 4.22307C3.52421 4.13837 3.40523 4.07573 3.27797 4.03874C3.15072 4.00174 3.01769 3.9911 2.88647 4.00744C2.75525 4.02377 2.62842 4.06675 2.51322 4.13393C2.39801 4.20111 2.29669 4.29117 2.21504 4.39896C2.13339 4.50676 2.07301 4.63018 2.03734 4.76219C2.00168 4.89419 1.99142 5.03219 2.00717 5.1683C2.29278 7.50904 3.42936 9.64828 5.18464 11.1488L2.88647 13.5535C2.72277 13.7518 2.63723 14.0068 2.64695 14.2677C2.65666 14.5285 2.76091 14.776 2.93886 14.9606C3.11682 15.1452 3.35536 15.2533 3.60684 15.2634C3.85832 15.2735 4.1042 15.1847 4.29534 15.0149L6.90327 12.3201C7.8723 12.828 8.92151 13.151 10.0008 13.2736V16.9635C10.0008 17.2384 10.1061 17.502 10.2935 17.6964C10.4808 17.8908 10.735 18 11 18C11.265 18 11.5192 17.8908 11.7065 17.6964C11.8939 17.502 11.9992 17.2384 11.9992 16.9635V13.2736C13.0785 13.151 14.1277 12.828 15.0967 12.3201L17.7047 15.0149C17.8958 15.1847 18.1417 15.2735 18.3932 15.2634C18.6446 15.2533 18.8832 15.1452 19.0611 14.9606C19.2391 14.776 19.3433 14.5285 19.3531 14.2677C19.3628 14.0068 19.2772 13.7518 19.1135 13.5535L16.8054 11.1488Z" fill="#97A3BA"/>
</svg>
