<svg width="22" height="22" viewBox="0 0 22 22" fill="none" xmlns="http://www.w3.org/2000/svg">
<path d="M10.2929 16.4142L8 18.7071C7.60948 19.0976 6.97631 19.0976 6.58579 18.7071L4.29289 16.4142C3.90237 16.0237 3.90237 15.3905 4.29289 15C4.68342 14.6095 5.31658 14.6095 5.70711 15L6.29289 15.5858V4C6.29289 3.44772 6.74061 3 7.29289 3C7.84518 3 8.29289 3.44771 8.29289 4V15.5858L8.87868 15C9.2692 14.6095 9.90237 14.6095 10.2929 15C10.6834 15.3905 10.6834 16.0237 10.2929 16.4142Z" fill="#97A3BA"/>
<path fill-rule="evenodd" clip-rule="evenodd" d="M12.1826 8.80793C12.0587 8.6843 12 8.53128 12 8.36782C12 8.27264 12.0307 8.18116 12.0656 8.10404L12.0663 8.10248L14.1905 3.48481C14.2531 3.35506 14.3437 3.24212 14.465 3.15412C14.6085 3.04874 14.7785 3 14.9584 3H15.0416C15.2177 3 15.3864 3.04689 15.5266 3.15387C15.6517 3.24062 15.7459 3.35312 15.8094 3.48483L15.8117 3.48943L17.9344 8.10404C17.9693 8.18116 18 8.27264 18 8.36782C18 8.53638 17.9347 8.69054 17.8047 8.81221C17.6716 8.94252 17.497 9 17.3135 9C17.181 9 17.0545 8.96882 16.9398 8.90722L16.9263 8.89992L16.9135 8.8914C16.8071 8.82013 16.7267 8.72704 16.6723 8.6185L16.6674 8.60868L16.2067 7.59004H13.7933L13.3279 8.61859C13.2703 8.73354 13.1818 8.82803 13.0677 8.8981L13.0622 8.90149C12.9474 8.96877 12.819 9 12.6865 9C12.5008 9 12.3273 8.94152 12.1913 8.81622L12.1826 8.80793ZM15.6559 6.37931L15 4.92534L14.3441 6.37931H15.6559Z" fill="#97A3BA"/>
<path d="M12.6405 17.7883L15.6075 14.2574H13.1408C12.9698 14.2574 12.813 14.1998 12.6864 14.0871L12.6775 14.0792L12.6694 14.0707C12.5525 13.9486 12.4927 13.7975 12.4927 13.6326C12.4927 13.4677 12.5525 13.3166 12.6694 13.1945L12.6775 13.186C12.8026 13.0654 12.9622 13 13.1408 13H16.6352C16.8548 13 17.0596 13.0708 17.212 13.2341C17.357 13.3836 17.4283 13.569 17.4283 13.7723C17.4283 13.8693 17.404 13.9612 17.3657 14.0454C17.3338 14.1267 17.2888 14.2026 17.2291 14.2696L14.3045 17.7581H16.8284C17.0036 17.7581 17.1619 17.8216 17.2836 17.9442C17.4107 18.0614 17.4766 18.214 17.4766 18.3829C17.4766 18.5538 17.4092 18.7079 17.2791 18.8257C17.1551 18.9432 16.9977 19 16.8284 19H13.2455C13.0364 19 12.8496 18.9252 12.7019 18.7828C12.5541 18.6403 12.4766 18.4603 12.4766 18.2587C12.4766 18.0889 12.526 17.9263 12.6393 17.7897L12.6405 17.7883Z" fill="#97A3BA"/>
</svg>
