<svg width="22" height="22" viewBox="0 0 22 22" fill="none" xmlns="http://www.w3.org/2000/svg">
<path d="M9 7C9 6.44771 9.44772 6 10 6C10.5523 6 11 6.44771 11 7V10C11 10.5523 10.5523 11 10 11C9.44772 11 9 10.5523 9 10V7Z" fill="#97A3BA"/>
<path d="M10 14C10.5523 14 11 13.5523 11 13C11 12.4477 10.5523 12 10 12C9.44772 12 9 12.4477 9 13C9 13.5523 9.44772 14 10 14Z" fill="#97A3BA"/>
<path fill-rule="evenodd" clip-rule="evenodd" d="M19.7043 18.2848L16.3054 14.8958C17.402 13.4988 17.9971 11.7735 17.9948 9.99743C17.9948 8.41569 17.5258 6.86947 16.647 5.5543C15.7683 4.23913 14.5192 3.21408 13.0579 2.60877C11.5966 2.00347 9.98855 1.84509 8.43721 2.15367C6.88586 2.46225 5.46085 3.22393 4.34239 4.34239C3.22393 5.46085 2.46225 6.88586 2.15367 8.43721C1.84509 9.98855 2.00347 11.5966 2.60877 13.0579C3.21408 14.5192 4.23913 15.7683 5.5543 16.647C6.86947 17.5258 8.41569 17.9948 9.99743 17.9948C11.7735 17.9971 13.4988 17.402 14.8958 16.3054L18.2848 19.7043C18.3777 19.798 18.4883 19.8724 18.6101 19.9231C18.7319 19.9739 18.8626 20 18.9945 20C19.1265 20 19.2572 19.9739 19.379 19.9231C19.5008 19.8724 19.6114 19.798 19.7043 19.7043C19.798 19.6114 19.8724 19.5008 19.9231 19.379C19.9739 19.2572 20 19.1265 20 18.9945C20 18.8626 19.9739 18.7319 19.9231 18.6101C19.8724 18.4883 19.798 18.3777 19.7043 18.2848ZM3.99936 9.99743C3.99936 8.81112 4.35114 7.65146 5.01022 6.66508C5.66929 5.6787 6.60606 4.90991 7.70207 4.45593C8.79807 4.00196 10.0041 3.88317 11.1676 4.11461C12.3311 4.34605 13.3999 4.91731 14.2387 5.75615C15.0775 6.595 15.6488 7.66375 15.8802 8.82726C16.1117 9.99077 15.9929 11.1968 15.5389 12.2928C15.0849 13.3888 14.3162 14.3256 13.3298 14.9846C12.3434 15.6437 11.1837 15.9955 9.99743 15.9955C8.40664 15.9955 6.88101 15.3636 5.75615 14.2387C4.6313 13.1138 3.99936 11.5882 3.99936 9.99743Z" fill="#97A3BA"/>
</svg>
