<svg width="24" height="24" viewBox="0 0 24 24" fill="none" xmlns="http://www.w3.org/2000/svg">
<path d="M7.58579 4.29289L5.29289 6.58579C4.90237 6.97631 4.90237 7.60948 5.29289 8C5.68342 8.39052 6.31658 8.39052 6.70711 8L7.29289 7.41421V19C7.29289 19.5523 7.74061 20 8.29289 20C8.84518 20 9.29289 19.5523 9.29289 19V7.41421L9.87868 8C10.2692 8.39052 10.9024 8.39052 11.2929 8C11.6834 7.60948 11.6834 6.97631 11.2929 6.58579L9 4.29289C8.60948 3.90237 7.97631 3.90237 7.58579 4.29289Z" fill="#7887A5"/>
<path fill-rule="evenodd" clip-rule="evenodd" d="M12.9998 9.36782C12.9998 9.53128 13.0585 9.6843 13.1825 9.80794L13.1911 9.81622C13.3272 9.94152 13.5007 10 13.6864 10C13.8188 10 13.9472 9.96877 14.062 9.90149L14.0675 9.8981C14.1817 9.82803 14.2702 9.73354 14.3278 9.61859L14.7932 8.59004H17.2065L17.6672 9.60868L17.6721 9.6185C17.7265 9.72704 17.807 9.82013 17.9134 9.8914L17.9261 9.89992L17.9397 9.90722C18.0544 9.96882 18.1808 10 18.3133 10C18.4968 10 18.6715 9.94252 18.8046 9.81221C18.9345 9.69054 18.9998 9.53638 18.9998 9.36782C18.9998 9.27264 18.9691 9.18116 18.9342 9.10404L16.8115 4.48944L16.8093 4.48483C16.7457 4.35312 16.6515 4.24062 16.5265 4.15387C16.3862 4.04689 16.2175 4 16.0415 4H15.9582C15.7784 4 15.6084 4.04874 15.4648 4.15412C15.3435 4.24212 15.253 4.35506 15.1904 4.48481L13.0662 9.10248L13.0655 9.10404C13.0306 9.18116 12.9998 9.27264 12.9998 9.36782ZM15.9998 5.92534L16.6557 7.37931H15.344L15.9998 5.92534Z" fill="#7887A5"/>
<path fill-rule="evenodd" clip-rule="evenodd" d="M14.6922 19.8229L14.6833 19.8308C14.5485 19.9508 14.3803 20 14.2078 20C14.0299 20 13.8674 19.9381 13.7397 19.815C13.6121 19.692 13.5478 19.5353 13.5478 19.3638V19.009C13.5478 18.621 13.6277 18.2318 13.7831 17.8429C13.876 17.5994 14.0169 17.4002 14.2024 17.2492C14.0549 17.1423 13.9279 17.0146 13.8234 16.8652C13.6088 16.5607 13.4998 16.2215 13.4998 15.8548C13.4998 15.3038 13.7187 14.8428 14.1531 14.4978C14.5919 14.1495 15.2169 14 15.9758 14H17.8398C18.0233 14 18.1867 14.0685 18.3119 14.1965C18.437 14.319 18.4998 14.4742 18.4998 14.644V19.3638C18.4998 19.5353 18.4356 19.692 18.308 19.815C18.1803 19.9381 18.0178 20 17.8398 20C17.6638 20 17.5027 19.9394 17.3757 19.8188C17.2429 19.6981 17.1718 19.5406 17.1718 19.3638V17.8638H15.8158C15.4926 17.8638 15.3085 17.9405 15.204 18.0413L15.2008 18.0443C15.0589 18.1771 14.9763 18.322 14.9415 18.4821L14.9412 18.4835C14.8983 18.6766 14.8758 18.8925 14.8758 19.1324V19.3638C14.8758 19.5291 14.8222 19.6871 14.7003 19.8144L14.6922 19.8229ZM17.1718 16.6221V15.2416H16.0638C15.5161 15.2416 15.2063 15.3256 15.059 15.4313L15.0563 15.4331C14.9081 15.537 14.8278 15.6817 14.8278 15.9087C14.8278 16.1322 14.9149 16.288 15.1023 16.4085L15.1045 16.41C15.3045 16.541 15.601 16.6221 16.0238 16.6221H17.1718Z" fill="#7887A5"/>
</svg>
