<svg width="24" height="24" viewBox="0 0 24 24" fill="none" xmlns="http://www.w3.org/2000/svg">
<path fill-rule="evenodd" clip-rule="evenodd" d="M4.99214 5.87607C5.42814 9.36406 8.40984 11.9934 11.9863 12.0001L12 12L12.0137 12.0001C15.5901 11.9934 18.5716 9.36408 19.0076 5.87607C19.0761 5.32805 19.5759 4.93932 20.1239 5.00783C20.6719 5.07633 21.0606 5.57612 20.9921 6.12414C20.6843 8.58659 19.3951 10.7091 17.5424 12.1282L20.2071 14.7929C20.5976 15.1834 20.5976 15.8166 20.2071 16.2071C19.8166 16.5976 19.1834 16.5976 18.7929 16.2071L15.7736 13.1878C14.9111 13.5791 13.9775 13.8396 13 13.946V18C13 18.5523 12.5523 19 12 19C11.4477 19 11 18.5523 11 18V13.946C10.0225 13.8396 9.08888 13.5791 8.22636 13.1879L5.20711 16.2071C4.81658 16.5976 4.18342 16.5976 3.79289 16.2071C3.40237 15.8166 3.40237 15.1834 3.79289 14.7929L6.45754 12.1282C4.60475 10.7092 3.3154 8.58664 3.00758 6.12414C2.93908 5.57612 3.32781 5.07633 3.87583 5.00783C4.42385 4.93932 4.92364 5.32805 4.99214 5.87607Z" fill="#777B92"/>
</svg>
