<svg width="24" height="24" viewBox="0 0 24 24" fill="none" xmlns="http://www.w3.org/2000/svg">
<path fill-rule="evenodd" clip-rule="evenodd" d="M3.9511 5.97129C3.21051 4.63823 4.17444 3 5.69941 3H16.3004C17.8253 3 18.7893 4.63822 18.0487 5.97129L13.9999 13.2591V18C13.9999 19.6481 12.1184 20.5889 10.7999 19.6L8.7999 18.1C8.29628 17.7223 7.9999 17.1295 7.9999 16.5V13.2591L3.9511 5.97129ZM5.69941 5L9.74821 12.2878C9.91327 12.585 9.9999 12.9192 9.9999 13.2591V16.5L11.9999 18V13.2591C11.9999 12.9192 12.0865 12.585 12.2516 12.2878L16.3004 5H5.69941Z" fill="#777B92"/>
<path fill-rule="evenodd" clip-rule="evenodd" d="M16.2929 15.2929C16.6834 14.9024 17.3166 14.9024 17.7071 15.2929L19 16.5858L20.2929 15.2929C20.6834 14.9024 21.3166 14.9024 21.7071 15.2929C22.0976 15.6834 22.0976 16.3166 21.7071 16.7071L20.4142 18L21.7071 19.2929C22.0976 19.6834 22.0976 20.3166 21.7071 20.7071C21.3166 21.0976 20.6834 21.0976 20.2929 20.7071L19 19.4142L17.7071 20.7071C17.3166 21.0976 16.6834 21.0976 16.2929 20.7071C15.9024 20.3166 15.9024 19.6834 16.2929 19.2929L17.5858 18L16.2929 16.7071C15.9024 16.3166 15.9024 15.6834 16.2929 15.2929Z" fill="#777B92"/>
</svg>
