<svg width="24" height="24" viewBox="0 0 24 24" fill="none" xmlns="http://www.w3.org/2000/svg">
<path fill-rule="evenodd" clip-rule="evenodd" d="M4.69941 3H15.3004C16.8253 3 17.7893 4.63822 17.0487 5.97129L12.9999 13.2591V18C12.9999 19.6481 11.1184 20.5889 9.7999 19.6L7.7999 18.1C7.29628 17.7223 6.9999 17.1295 6.9999 16.5V13.2591L2.9511 5.97129C2.21051 4.63823 3.17444 3 4.69941 3ZM8.74821 12.2878C8.91327 12.585 8.9999 12.9192 8.9999 13.2591V16.5L10.9999 18V13.2591C10.9999 12.9192 11.0865 12.585 11.2516 12.2878L15.3004 5H4.69941L8.74821 12.2878Z" fill="#777B92"/>
<path fill-rule="evenodd" clip-rule="evenodd" d="M15.9812 16.0001H20.0188C21.1428 15.9877 21.2593 17.0001 20.5816 17.6589L18.781 19.6573C18.5071 19.9914 18.025 19.9992 18.0009 19.9994H17.9991C17.975 19.9992 17.493 19.9914 17.219 19.6573L15.4185 17.6589C14.7407 17.0001 14.8572 15.9877 15.9812 16.0001Z" fill="#777B92"/>
</svg>
