<svg width="22" height="22" viewBox="0 0 22 22" fill="none" xmlns="http://www.w3.org/2000/svg">
<path d="M10.2929 16.4142L8 18.7071C7.60948 19.0976 6.97631 19.0976 6.58579 18.7071L4.29289 16.4142C3.90237 16.0237 3.90237 15.3905 4.29289 15C4.68342 14.6095 5.31658 14.6095 5.70711 15L6.29289 15.5858V4C6.29289 3.44772 6.74061 3 7.29289 3C7.84518 3 8.29289 3.44771 8.29289 4V15.5858L8.87868 15C9.2692 14.6095 9.90237 14.6095 10.2929 15C10.6834 15.3905 10.6834 16.0237 10.2929 16.4142Z" fill="#97A3BA"/>
<path fill-rule="evenodd" clip-rule="evenodd" d="M12.1826 8.80793C12.0587 8.6843 12 8.53128 12 8.36782C12 8.27264 12.0307 8.18116 12.0656 8.10404L12.0663 8.10248L14.1905 3.48481C14.2531 3.35506 14.3437 3.24212 14.465 3.15412C14.6085 3.04874 14.7785 3 14.9584 3H15.0416C15.2177 3 15.3864 3.04689 15.5266 3.15387C15.6517 3.24062 15.7459 3.35312 15.8094 3.48483L15.8117 3.48943L17.9344 8.10404C17.9693 8.18116 18 8.27264 18 8.36782C18 8.53638 17.9347 8.69054 17.8047 8.81221C17.6716 8.94252 17.497 9 17.3135 9C17.181 9 17.0545 8.96882 16.9398 8.90722L16.9263 8.89992L16.9135 8.8914C16.8071 8.82013 16.7267 8.72704 16.6723 8.6185L16.6674 8.60868L16.2067 7.59004H13.7933L13.3279 8.61859C13.2703 8.73354 13.1818 8.82803 13.0677 8.8981L13.0622 8.90149C12.9474 8.96877 12.819 9 12.6865 9C12.5008 9 12.3273 8.94152 12.1913 8.81622L12.1826 8.80793ZM15.6559 6.37931L15 4.92534L14.3441 6.37931H15.6559Z" fill="#97A3BA"/>
<path fill-rule="evenodd" clip-rule="evenodd" d="M13.6835 18.8308L13.6923 18.8229L13.7004 18.8144C13.8224 18.6871 13.876 18.5291 13.876 18.3638V18.1324C13.876 17.8925 13.8984 17.6766 13.9413 17.4835L13.9416 17.4821C13.9764 17.322 14.059 17.1771 14.2009 17.0443L14.2042 17.0413C14.3087 16.9405 14.4928 16.8638 14.816 16.8638H16.172V18.3638C16.172 18.5406 16.243 18.6981 16.3758 18.8188C16.5029 18.9394 16.6639 19 16.84 19C17.0179 19 17.1805 18.9381 17.3081 18.815C17.4358 18.692 17.5 18.5353 17.5 18.3638V13.644C17.5 13.4742 17.4371 13.319 17.3121 13.1965C17.1868 13.0685 17.0234 13 16.84 13H14.976C14.2171 13 13.5921 13.1495 13.1533 13.4978C12.7188 13.8428 12.5 14.3038 12.5 14.8548C12.5 15.2215 12.6089 15.5607 12.8235 15.8652C12.928 16.0146 13.0551 16.1423 13.2025 16.2492C13.017 16.4002 12.8761 16.5994 12.7832 16.8429C12.6279 17.2318 12.548 17.621 12.548 18.009V18.3638C12.548 18.5353 12.6122 18.692 12.7399 18.815C12.8675 18.9381 13.0301 19 13.208 19C13.3805 19 13.5486 18.9508 13.6835 18.8308ZM16.172 14.2416V15.6221H15.024C14.6011 15.6221 14.3047 15.541 14.1047 15.41L14.1024 15.4085C13.915 15.288 13.828 15.1322 13.828 14.9087C13.828 14.6817 13.9082 14.537 14.0565 14.4331L14.0591 14.4313C14.2064 14.3256 14.5163 14.2416 15.064 14.2416H16.172Z" fill="#97A3BA"/>
</svg>
