<svg width="22" height="22" viewBox="0 0 22 22" fill="none" xmlns="http://www.w3.org/2000/svg">
<path d="M19 5C20.1046 5 21 4.10457 21 3C21 1.89543 20.1046 1 19 1C17.8954 1 17 1.89543 17 3C17 4.10457 17.8954 5 19 5Z" fill="#97A3BA"/>
<path d="M21 11C21 12.1046 20.1046 13 19 13C17.8954 13 17 12.1046 17 11C17 9.89543 17.8954 9 19 9C20.1046 9 21 9.89543 21 11Z" fill="#97A3BA"/>
<path d="M3 21C4.10457 21 5 20.1046 5 19C5 17.8954 4.10457 17 3 17C1.89543 17 1 17.8954 1 19C1 20.1046 1.89543 21 3 21Z" fill="#97A3BA"/>
<path d="M13 19C13 20.1046 12.1046 21 11 21C9.89543 21 9 20.1046 9 19C9 17.8954 9.89543 17 11 17C12.1046 17 13 17.8954 13 19Z" fill="#97A3BA"/>
<path d="M21 19C21 20.1046 20.1046 21 19 21C17.8954 21 17 20.1046 17 19C17 17.8954 17.8954 17 19 17C20.1046 17 21 17.8954 21 19Z" fill="#97A3BA"/>
<path d="M11 13C12.1046 13 13 12.1046 13 11C13 9.89543 12.1046 9 11 9C9.89543 9 9 9.89543 9 11C9 12.1046 9.89543 13 11 13Z" fill="#97A3BA"/>
<path d="M5 11C5 12.1046 4.10457 13 3 13C1.89543 13 1 12.1046 1 11C1 9.89543 1.89543 9 3 9C4.10457 9 5 9.89543 5 11Z" fill="#97A3BA"/>
<path d="M13 3C13 4.10457 12.1046 5 11 5C9.89543 5 9 4.10457 9 3C9 1.89543 9.89543 1 11 1C12.1046 1 13 1.89543 13 3Z" fill="#97A3BA"/>
<path d="M3 5C4.10457 5 5 4.10457 5 3C5 1.89543 4.10457 1 3 1C1.89543 1 1 1.89543 1 3C1 4.10457 1.89543 5 3 5Z" fill="#97A3BA"/>
</svg>
