<svg width="22" height="22" viewBox="0 0 22 22" fill="none" xmlns="http://www.w3.org/2000/svg">
<path fill-rule="evenodd" clip-rule="evenodd" d="M11.3021 19.8C11.4752 19.9298 11.6857 20 11.9021 20C12.0443 19.9962 12.1841 19.9621 12.3121 19.9C12.4785 19.8161 12.6182 19.6874 12.7154 19.5284C12.8126 19.3694 12.8634 19.1864 12.8621 19V12.7L17.8621 3.49C17.9499 3.33798 17.9961 3.16554 17.9961 2.99C17.9961 2.81447 17.9499 2.64202 17.8621 2.49C17.7736 2.34072 17.6477 2.21705 17.497 2.13114C17.3462 2.04523 17.1756 2.00003 17.0021 2H3.00208C2.83023 1.99964 2.66119 2.04358 2.51127 2.12757C2.36134 2.21155 2.23559 2.33276 2.14614 2.4795C2.05669 2.62623 2.00657 2.79354 2.0006 2.96529C1.99464 3.13703 2.03303 3.30741 2.11208 3.46L6.91208 12.68V15.95C6.91091 16.1044 6.94551 16.257 7.01318 16.3958C7.08084 16.5346 7.17972 16.6558 7.30208 16.75L11.3021 19.8ZM10.9021 16.99L8.90208 15.46L8.88208 12.46C8.88273 12.3001 8.845 12.1423 8.77208 12L4.64208 4H15.3021L11.0021 12C10.9357 12.1371 10.9015 12.2876 10.9021 12.44V16.99Z" fill="#97A3BA"/>
<path d="M20.38 14.0768C20.5016 14.1274 20.612 14.2017 20.7048 14.2952C20.7983 14.388 20.8726 14.4984 20.9232 14.62C20.9739 14.7416 21 14.8721 21 15.0039C21 15.1356 20.9739 15.2661 20.9232 15.3877C20.8726 15.5093 20.7983 15.6197 20.7048 15.7125L19.4073 17L20.7048 18.2875C20.7983 18.3803 20.8726 18.4907 20.9232 18.6123C20.9739 18.7339 21 18.8644 21 18.9961C21 19.1279 20.9739 19.2584 20.9232 19.38C20.8726 19.5016 20.7983 19.612 20.7048 19.7048C20.612 19.7983 20.5016 19.8726 20.38 19.9232C20.2584 19.9739 20.1279 20 19.9961 20C19.8644 20 19.7339 19.9739 19.6123 19.9232C19.4907 19.8726 19.3803 19.7983 19.2875 19.7048L18 18.4073L16.7125 19.7048C16.6197 19.7983 16.5093 19.8726 16.3877 19.9232C16.2661 19.9739 16.1356 20 16.0039 20C15.8721 20 15.7416 19.9739 15.62 19.9232C15.4984 19.8726 15.388 19.7983 15.2952 19.7048C15.2017 19.612 15.1274 19.5016 15.0768 19.38C15.0261 19.2584 15 19.1279 15 18.9961C15 18.8644 15.0261 18.7339 15.0768 18.6123C15.1274 18.4907 15.2017 18.3803 15.2952 18.2875L16.5927 17L15.2952 15.7125C15.1073 15.5245 15.0017 15.2696 15.0017 15.0039C15.0017 14.7381 15.1073 14.4832 15.2952 14.2952C15.4832 14.1073 15.7381 14.0017 16.0039 14.0017C16.2696 14.0017 16.5245 14.1073 16.7125 14.2952L18 15.5927L19.2875 14.2952C19.3803 14.2017 19.4907 14.1274 19.6123 14.0768C19.7339 14.0261 19.8644 14 19.9961 14C20.1279 14 20.2584 14.0261 20.38 14.0768Z" fill="#97A3BA"/>
</svg>
