<svg width="22" height="22" viewBox="0 0 22 22" fill="none" xmlns="http://www.w3.org/2000/svg">
<path fill-rule="evenodd" clip-rule="evenodd" d="M9.05551 8.08986C9.63108 7.70527 10.3078 7.5 11 7.5C11.9283 7.5 12.8185 7.86875 13.4749 8.52513C14.1313 9.1815 14.5 10.0717 14.5 11C14.5 11.6922 14.2947 12.3689 13.9101 12.9445C13.5256 13.5201 12.9789 13.9687 12.3394 14.2336C11.6999 14.4985 10.9961 14.5678 10.3172 14.4327C9.63825 14.2977 9.01461 13.9644 8.52513 13.4749C8.03564 12.9854 7.7023 12.3617 7.56725 11.6828C7.4322 11.0039 7.50152 10.3001 7.76642 9.66061C8.03133 9.02107 8.47993 8.47444 9.05551 8.08986ZM10.1666 12.2472C10.4133 12.412 10.7033 12.5 11 12.5C11.3978 12.5 11.7794 12.342 12.0607 12.0607C12.342 11.7794 12.5 11.3978 12.5 11C12.5 10.7033 12.412 10.4133 12.2472 10.1666C12.0824 9.91997 11.8481 9.72771 11.574 9.61418C11.2999 9.50065 10.9983 9.47094 10.7074 9.52882C10.4164 9.5867 10.1491 9.72956 9.93934 9.93934C9.72956 10.1491 9.5867 10.4164 9.52882 10.7074C9.47095 10.9983 9.50065 11.2999 9.61418 11.574C9.72771 11.8481 9.91997 12.0824 10.1666 12.2472Z" fill="#97A3BA"/>
<path fill-rule="evenodd" clip-rule="evenodd" d="M10.7301 4.00426C16.7077 3.82432 20.2263 9.39262 20.8661 10.5023C20.9538 10.6543 21 10.8266 21 11.0021C21 11.1776 20.9538 11.35 20.8661 11.502C20.0064 13.0015 16.7977 17.86 11.2699 18H11.02C5.13233 18 1.76367 12.5916 1.13392 11.502C1.04619 11.35 1 11.1776 1 11.0021C1 10.8266 1.04619 10.6543 1.13392 10.5023C2.00358 9.00274 5.2023 4.14422 10.7301 4.00426ZM3.22309 11.0021C4.10274 12.4117 6.91163 16.1006 11.2199 16.0006C15.2183 15.9006 17.7973 12.6116 18.8269 11.0021C17.9372 9.59256 15.1184 5.89369 10.8301 6.00366C6.83166 6.10363 4.22269 9.39262 3.22309 11.0021Z" fill="#97A3BA"/>
</svg>
