<svg width="22" height="22" viewBox="0 0 22 22" fill="none" xmlns="http://www.w3.org/2000/svg">
<path d="M11.4142 9.99996L12.1213 10.7071C12.3089 10.8946 12.4142 11.149 12.4142 11.4142C12.4142 11.6794 12.3089 11.9337 12.1213 12.1213C11.9338 12.3088 11.6794 12.4142 11.4142 12.4142C11.149 12.4142 10.8946 12.3088 10.7071 12.1213L10 11.4142L9.29289 12.1213C9.10536 12.3088 8.851 12.4142 8.58579 12.4142C8.32057 12.4142 8.06622 12.3088 7.87868 12.1213C7.69114 11.9337 7.58579 11.6794 7.58579 11.4142C7.58579 11.149 7.69114 10.8946 7.87868 10.7071L8.58579 9.99996L7.87868 9.29286C7.69114 9.10532 7.58579 8.85097 7.58579 8.58575C7.58579 8.32053 7.69114 8.06618 7.87868 7.87864C8.06622 7.69111 8.32057 7.58575 8.58579 7.58575C8.851 7.58575 9.10536 7.69111 9.29289 7.87864L10 8.58575L10.7071 7.87864C10.8946 7.69111 11.149 7.58575 11.4142 7.58575C11.6794 7.58575 11.9338 7.69111 12.1213 7.87864C12.3089 8.06618 12.4142 8.32053 12.4142 8.58575C12.4142 8.85097 12.3089 9.10532 12.1213 9.29286L11.4142 9.99996Z" fill="#97A3BA"/>
<path fill-rule="evenodd" clip-rule="evenodd" d="M16.3054 14.8958L19.7043 18.2848C19.798 18.3777 19.8724 18.4883 19.9231 18.6101C19.9739 18.7319 20 18.8626 20 18.9945C20 19.1265 19.9739 19.2572 19.9231 19.379C19.8724 19.5008 19.798 19.6114 19.7043 19.7043C19.6114 19.798 19.5008 19.8724 19.379 19.9231C19.2572 19.9739 19.1265 20 18.9945 20C18.8626 20 18.7319 19.9739 18.6101 19.9231C18.4883 19.8724 18.3777 19.798 18.2848 19.7043L14.8958 16.3054C13.4988 17.402 11.7735 17.9971 9.99743 17.9948C8.41569 17.9948 6.86947 17.5258 5.5543 16.647C4.23913 15.7683 3.21408 14.5192 2.60877 13.0579C2.00347 11.5966 1.84509 9.98855 2.15367 8.43721C2.46225 6.88586 3.22393 5.46085 4.34239 4.34239C5.46085 3.22393 6.88586 2.46225 8.43721 2.15367C9.98855 1.84509 11.5966 2.00347 13.0579 2.60877C14.5192 3.21408 15.7683 4.23913 16.647 5.5543C17.5258 6.86947 17.9948 8.41569 17.9948 9.99743C17.9971 11.7735 17.402 13.4988 16.3054 14.8958ZM5.01022 6.66508C4.35114 7.65146 3.99936 8.81112 3.99936 9.99743C3.99936 11.5882 4.6313 13.1138 5.75615 14.2387C6.88101 15.3636 8.40664 15.9955 9.99743 15.9955C11.1837 15.9955 12.3434 15.6437 13.3298 14.9846C14.3162 14.3256 15.0849 13.3888 15.5389 12.2928C15.9929 11.1968 16.1117 9.99077 15.8802 8.82726C15.6488 7.66375 15.0775 6.595 14.2387 5.75615C13.3999 4.91731 12.3311 4.34605 11.1676 4.11461C10.0041 3.88317 8.79807 4.00196 7.70207 4.45593C6.60606 4.90991 5.66929 5.6787 5.01022 6.66508Z" fill="#97A3BA"/>
</svg>
