<svg width="24" height="24" viewBox="0 0 24 24" fill="none" xmlns="http://www.w3.org/2000/svg">
<path fill-rule="evenodd" clip-rule="evenodd" d="M5.69941 3H16.3004C17.8253 3 18.7893 4.63822 18.0487 5.97129L13.9999 13.2591V18C13.9999 19.6481 12.1184 20.5889 10.7999 19.6L8.7999 18.1C8.29628 17.7223 7.9999 17.1295 7.9999 16.5V13.2591L3.9511 5.97129C3.21051 4.63823 4.17444 3 5.69941 3ZM9.74821 12.2878C9.91327 12.585 9.9999 12.9192 9.9999 13.2591V16.5L11.9999 18V13.2591C11.9999 12.9192 12.0865 12.585 12.2516 12.2878L16.3004 5H5.69941L9.74821 12.2878Z" fill="#777B92"/>
<path fill-rule="evenodd" clip-rule="evenodd" d="M19.9993 15.9812V20.0188C20.0117 21.1428 18.9993 21.2593 18.3405 20.5816L16.3421 18.781C16.0123 18.5106 16.0004 18.0374 16 18.0021V17.9979C16.0004 17.9626 16.0123 17.4894 16.3421 17.219L18.3405 15.4185C18.9993 14.7407 20.0117 14.8572 19.9993 15.9812Z" fill="#777B92"/>
</svg>
