<svg width="24" height="24" viewBox="0 0 24 24" fill="none" xmlns="http://www.w3.org/2000/svg">
<path fill-rule="evenodd" clip-rule="evenodd" d="M4.69941 3H15.3004C16.8253 3 17.7893 4.63822 17.0487 5.97129L12.9999 13.2591V18C12.9999 19.6481 11.1184 20.5889 9.7999 19.6L7.7999 18.1C7.29628 17.7223 6.9999 17.1295 6.9999 16.5V13.2591L2.9511 5.97129C2.21051 4.63823 3.17444 3 4.69941 3ZM8.74821 12.2878C8.91327 12.585 8.9999 12.9192 8.9999 13.2591V16.5L10.9999 18V13.2591C10.9999 12.9192 11.0865 12.585 11.2516 12.2878L15.3004 5H4.69941L8.74821 12.2878Z" fill="#777B92"/>
<path fill-rule="evenodd" clip-rule="evenodd" d="M20 19.8293V20C20 20.5523 19.5523 21 19 21C18.4477 21 18 20.5523 18 20V19.8293C17.6639 19.7105 17.3552 19.5335 17.0862 19.3104C16.6952 19.5939 16.1453 19.5595 15.7929 19.2071C15.4024 18.8166 15.4024 18.1834 15.7929 17.7929L16.0481 17.5377C16.0165 17.3633 16 17.1836 16 17C16 16.8164 16.0165 16.6367 16.0481 16.4623L15.7929 16.2071C15.4024 15.8166 15.4024 15.1834 15.7929 14.7929C16.1453 14.4405 16.6952 14.4061 17.0862 14.6896C17.3552 14.4665 17.6639 14.2895 18 14.1707V14C18 13.4477 18.4477 13 19 13C19.5523 13 20 13.4477 20 14V14.1707C20.3361 14.2895 20.6448 14.4665 20.9138 14.6896C21.3048 14.4061 21.8547 14.4405 22.2071 14.7929C22.5976 15.1834 22.5976 15.8166 22.2071 16.2071L21.9519 16.4623C21.9835 16.6367 22 16.8164 22 17C22 17.1836 21.9835 17.3633 21.9519 17.5377L22.2071 17.7929C22.5976 18.1834 22.5976 18.8166 22.2071 19.2071C21.8547 19.5595 21.3048 19.5939 20.9138 19.3104C20.6448 19.5335 20.3361 19.7105 20 19.8293ZM18 17C18 17.5523 18.4477 18 19 18C19.5523 18 20 17.5523 20 17C20 16.4477 19.5523 16 19 16C18.4477 16 18 16.4477 18 17Z" fill="#777B92"/>
</svg>
