<svg width="22" height="22" viewBox="0 0 22 22" fill="none" xmlns="http://www.w3.org/2000/svg">
<path d="M5.25158 18.7071C4.83649 19.0976 4.16351 19.0976 3.74842 18.7071L1.31131 16.4142C0.896228 16.0237 0.896229 15.3905 1.31132 15C1.7264 14.6095 2.39939 14.6095 2.81448 15L3.43711 15.5858V4C3.43711 3.44772 3.91298 3 4.5 3C5.08702 3 5.5629 3.44771 5.5629 4V15.5858L6.18552 15C6.60061 14.6095 7.2736 14.6095 7.68869 15C8.10377 15.3905 8.10377 16.0237 7.68869 16.4142L5.25158 18.7071Z" fill="#97A3BA"/>
<path d="M11 7C10.4477 7 10 6.55228 10 6C10 5.44772 10.4477 5 11 5H20C20.5523 5 21 5.44772 21 6C21 6.55228 20.5523 7 20 7H11Z" fill="#97A3BA"/>
<path d="M11 10C10.4477 10 10 10.4477 10 11C10 11.5523 10.4477 12 11 12H16C16.5523 12 17 11.5523 17 11C17 10.4477 16.5523 10 16 10H11Z" fill="#97A3BA"/>
<path d="M10 16C10 15.4477 10.4477 15 11 15H13C13.5523 15 14 15.4477 14 16C14 16.5523 13.5523 17 13 17H11C10.4477 17 10 16.5523 10 16Z" fill="#97A3BA"/>
</svg>
