<svg width="22" height="22" viewBox="0 0 22 22" fill="none" xmlns="http://www.w3.org/2000/svg">
<path fill-rule="evenodd" clip-rule="evenodd" d="M10.3021 19.8C10.4752 19.9298 10.6857 20 10.9021 20C11.0443 19.9962 11.1841 19.9621 11.3121 19.9C11.4785 19.8161 11.6182 19.6874 11.7154 19.5284C11.8126 19.3694 11.8634 19.1864 11.8621 19V12.7L16.8621 3.49C16.9499 3.33798 16.9961 3.16554 16.9961 2.99C16.9961 2.81447 16.9499 2.64202 16.8621 2.49C16.7736 2.34072 16.6477 2.21705 16.497 2.13114C16.3462 2.04523 16.1756 2.00003 16.0021 2H2.00208C1.83023 1.99964 1.66119 2.04358 1.51127 2.12757C1.36134 2.21155 1.23559 2.33276 1.14614 2.4795C1.05669 2.62623 1.00657 2.79354 1.0006 2.96529C0.994637 3.13703 1.03303 3.30741 1.11208 3.46L5.91208 12.68V15.95C5.91091 16.1044 5.94551 16.257 6.01318 16.3958C6.08084 16.5346 6.17972 16.6558 6.30208 16.75L10.3021 19.8ZM9.90208 16.99L7.90208 15.46L7.88208 12.46C7.88273 12.3001 7.845 12.1423 7.77208 12L3.64208 4H14.3021L10.0021 12C9.93566 12.1371 9.90146 12.2876 9.90208 12.44V16.99Z" fill="#97A3BA"/>
<path d="M19.0207 15.0001H14.9832C13.8592 14.9877 13.7427 16.0001 14.4204 16.6589L16.221 18.6573C16.502 19 17.002 18.9994 17.002 18.9994C17.002 18.9994 17.502 19 17.783 18.6573L19.5835 16.6589C20.2613 16.0001 20.1447 14.9877 19.0207 15.0001Z" fill="#97A3BA"/>
</svg>
