<svg width="22" height="22" viewBox="0 0 22 22" fill="none" xmlns="http://www.w3.org/2000/svg">
<path d="M12.9021 20C12.6857 20 12.4752 19.9298 12.3021 19.8L8.30208 16.75C8.17972 16.6558 8.08084 16.5346 8.01318 16.3958C7.94551 16.257 7.91091 16.1044 7.91208 15.95V12.68L3.11208 3.46C3.03303 3.30741 2.99464 3.13703 3.0006 2.96529C3.00657 2.79354 3.05669 2.62623 3.14614 2.4795C3.23559 2.33276 3.36134 2.21155 3.51127 2.12757C3.66119 2.04358 3.83023 1.99964 4.00208 2H18.0021C18.1756 2.00003 18.3462 2.04523 18.497 2.13114C18.6477 2.21705 18.7736 2.34072 18.8621 2.49C18.9499 2.64202 18.9961 2.81447 18.9961 2.99C18.9961 3.16554 18.9499 3.33798 18.8621 3.49L13.8621 12.7V19C13.8634 19.1864 13.8126 19.3694 13.7154 19.5284C13.6182 19.6874 13.4785 19.8161 13.3121 19.9C13.1841 19.9621 13.0443 19.9962 12.9021 20ZM9.90208 15.46L11.9021 16.99V12.44C11.9015 12.2876 11.9357 12.1371 12.0021 12L16.3021 4H5.64208L9.77208 12C9.845 12.1423 9.88273 12.3001 9.88208 12.46L9.90208 15.46Z" fill="#97A3BA"/>
</svg>
