<svg width="24" height="24" viewBox="0 0 24 24" fill="none" xmlns="http://www.w3.org/2000/svg">
<path fill-rule="evenodd" clip-rule="evenodd" d="M2 4C2 2.89543 2.89543 2 4 2H10C11.1046 2 12 2.89543 12 4V6H15C16.1046 6 17 6.89543 17 8V10H20C21.1046 10 22 10.8954 22 12V20C22 21.1046 21.1046 22 20 22H14C12.8954 22 12 21.1046 12 20V18H9C7.89543 18 7 17.1046 7 16V14H4C2.89543 14 2 13.1046 2 12V4ZM14 18V20H20V12H17V16C17 17.1046 16.1046 18 15 18H14ZM15 16V8H12V12C12 13.1046 11.1046 14 10 14H9V16H15ZM10 4L4 4V12H10V4Z" fill="#777B92"/>
</svg>
