<svg width="22" height="22" viewBox="0 0 22 22" fill="none" xmlns="http://www.w3.org/2000/svg">
<path fill-rule="evenodd" clip-rule="evenodd" d="M14.1957 9.72018C14.717 8.91666 15 7.98191 15 7C15 5.6625 14.4875 4.4 13.5375 3.4625C12.5875 2.525 11.3375 2 10 2C8.6625 2 7.4 2.5125 6.4625 3.4625C5.525 4.4125 5 5.6625 5 7C5 8.3375 5.5125 9.6 6.4625 10.5375C7.4125 11.475 8.6625 12 10 12C10.9732 12 11.9127 11.7168 12.7194 11.1949L14.2184 12.6939C14.6266 13.102 15.2858 13.102 15.6939 12.6939C16.102 12.2858 16.102 11.6266 15.6939 11.2184L14.1957 9.72018ZM7.86732 9.11395C8.4515 9.69045 9.20012 10 10 10C10.7858 10 11.5422 9.6919 12.1233 9.1232C12.6938 8.54041 13 7.79556 13 7C13 6.18104 12.6903 5.43632 12.1327 4.88605C11.5485 4.30955 10.7999 4 10 4C9.18104 4 8.43632 4.30971 7.88605 4.86732C7.30955 5.4515 7 6.20012 7 7C7 7.81896 7.30971 8.56368 7.86732 9.11395Z" fill="#97A3BA"/>
<path d="M3 19C3 19.5523 3.44772 20 4 20H18C18.5523 20 19 19.5523 19 19V17C19 16.4477 18.5523 16 18 16C17.4477 16 17 16.4477 17 17V18H5V17C5 16.4477 4.55228 16 4 16C3.44772 16 3 16.4477 3 17V19Z" fill="#97A3BA"/>
</svg>
