<svg width="22" height="22" viewBox="0 0 22 22" fill="none" xmlns="http://www.w3.org/2000/svg">
<path fill-rule="evenodd" clip-rule="evenodd" d="M3.71315 2.29393C3.61996 2.20074 3.50933 2.12682 3.38758 2.07639C3.26582 2.02596 3.13533 2 3.00354 2C2.87175 2 2.74126 2.02596 2.6195 2.07639C2.49775 2.12682 2.38712 2.20074 2.29393 2.29393C2.10573 2.48213 2 2.73738 2 3.00354C2 3.2697 2.10573 3.52495 2.29393 3.71315L7.92084 9.34006C7.56484 10.0023 7.43169 10.7616 7.54114 11.5055C7.65058 12.2494 7.99679 12.9382 8.52844 13.4699C9.0601 14.0015 9.74891 14.3477 10.4928 14.4572C11.2366 14.5666 11.996 14.4335 12.6582 14.0775L18.2851 19.7044C18.3781 19.798 18.4886 19.8724 18.6104 19.9231C18.7322 19.9739 18.8628 20 18.9948 20C19.1267 20 19.2573 19.9739 19.3791 19.9231C19.5009 19.8724 19.6115 19.798 19.7044 19.7044C19.798 19.6115 19.8724 19.5009 19.9231 19.3791C19.9739 19.2573 20 19.1267 20 18.9948C20 18.8628 19.9739 18.7322 19.9231 18.6104C19.8724 18.4886 19.798 18.3781 19.7044 18.2851L3.71315 2.29393ZM10.9991 12.4983C10.6015 12.4983 10.2202 12.3404 9.93907 12.0592C9.65792 11.7781 9.49997 11.3968 9.49997 10.9991V10.9292L11.0591 12.4883L10.9991 12.4983Z" fill="#97A3BA"/>
<path d="M11.5995 16.0234C7.14157 16.1222 4.21799 12.4753 3.30566 11.0818C3.95515 10.0941 4.73569 9.19058 5.62794 8.39353L4.11432 7C2.94418 8.05105 1.94175 9.25973 1.1389 10.5876C1.0479 10.7378 1 10.9083 1 11.0818C1 11.2552 1.0479 11.4257 1.1389 11.5759C1.79204 12.6532 5.28582 18 11.3922 18H11.6514C12.7996 17.9675 13.933 17.7434 15 17.3378L13.362 15.7763C12.7859 15.9207 12.1948 16.0036 11.5995 16.0234Z" fill="#97A3BA"/>
<path d="M11.1046 4.00421C16.843 3.82639 20.236 9.32922 20.8511 10.4258C20.9414 10.5725 20.9925 10.7411 20.9992 10.9145C21.006 11.0879 20.9682 11.2601 20.8896 11.4138C20.1334 12.7438 19.191 13.9521 18.0925 15L16.6411 13.607C17.4853 12.8133 18.2252 11.91 18.8422 10.9198C17.9868 9.52681 15.2762 5.87142 11.1527 5.9801C10.6008 5.99984 10.0527 6.08267 9.51868 6.22708L8 4.66614C8.98929 4.2607 10.0401 4.03667 11.1046 4.00421Z" fill="#97A3BA"/>
</svg>
