<svg width="22" height="22" viewBox="0 0 22 22" fill="none" xmlns="http://www.w3.org/2000/svg">
<path d="M8 9H12C12.2652 9 12.5196 9.10536 12.7071 9.29289C12.8946 9.48043 13 9.73478 13 10C13 10.2652 12.8946 10.5196 12.7071 10.7071C12.5196 10.8946 12.2652 11 12 11H8C7.73478 11 7.48043 10.8946 7.29289 10.7071C7.10536 10.5196 7 10.2652 7 10C7 9.73478 7.10536 9.48043 7.29289 9.29289C7.48043 9.10536 7.73478 9 8 9Z" fill="#97A3BA"/>
<path fill-rule="evenodd" clip-rule="evenodd" d="M16.3054 14.8958L19.7043 18.2848C19.798 18.3777 19.8724 18.4883 19.9231 18.6101C19.9739 18.7319 20 18.8626 20 18.9945C20 19.1265 19.9739 19.2572 19.9231 19.379C19.8724 19.5008 19.798 19.6114 19.7043 19.7043C19.6114 19.798 19.5008 19.8724 19.379 19.9231C19.2572 19.9739 19.1265 20 18.9945 20C18.8626 20 18.7319 19.9739 18.6101 19.9231C18.4883 19.8724 18.3777 19.798 18.2848 19.7043L14.8958 16.3054C13.4988 17.402 11.7735 17.9971 9.99743 17.9948C8.41569 17.9948 6.86947 17.5258 5.5543 16.647C4.23913 15.7683 3.21408 14.5192 2.60877 13.0579C2.00347 11.5966 1.84509 9.98855 2.15367 8.43721C2.46225 6.88586 3.22393 5.46085 4.34239 4.34239C5.46085 3.22393 6.88586 2.46225 8.43721 2.15367C9.98855 1.84509 11.5966 2.00347 13.0579 2.60877C14.5192 3.21408 15.7683 4.23913 16.647 5.5543C17.5258 6.86947 17.9948 8.41569 17.9948 9.99743C17.9971 11.7735 17.402 13.4988 16.3054 14.8958ZM5.01022 6.66508C4.35114 7.65146 3.99936 8.81112 3.99936 9.99743C3.99936 11.5882 4.6313 13.1138 5.75615 14.2387C6.88101 15.3636 8.40664 15.9955 9.99743 15.9955C11.1837 15.9955 12.3434 15.6437 13.3298 14.9846C14.3162 14.3256 15.0849 13.3888 15.5389 12.2928C15.9929 11.1968 16.1117 9.99077 15.8802 8.82726C15.6488 7.66375 15.0775 6.595 14.2387 5.75615C13.3999 4.91731 12.3311 4.34605 11.1676 4.11461C10.0041 3.88317 8.79807 4.00196 7.70207 4.45593C6.60606 4.90991 5.66929 5.6787 5.01022 6.66508Z" fill="#97A3BA"/>
</svg>
