<svg width="24" height="24" viewBox="0 0 24 24" fill="none" xmlns="http://www.w3.org/2000/svg">
<path d="M9 4.29289L11.2929 6.58579C11.6834 6.97631 11.6834 7.60948 11.2929 8C10.9024 8.39052 10.2692 8.39052 9.87868 8L9.29289 7.41421V19C9.29289 19.5523 8.84518 20 8.29289 20C7.74061 20 7.29289 19.5523 7.29289 19V7.41421L6.70711 8C6.31658 8.39052 5.68342 8.39052 5.29289 8C4.90237 7.60948 4.90237 6.97631 5.29289 6.58579L7.58579 4.29289C7.97631 3.90237 8.60948 3.90237 9 4.29289Z" fill="#7887A5"/>
<path fill-rule="evenodd" clip-rule="evenodd" d="M13 9.36782C13 9.53128 13.0587 9.6843 13.1826 9.80794L13.1913 9.81622C13.3273 9.94152 13.5008 10 13.6865 10C13.819 10 13.9474 9.96877 14.0622 9.90149L14.0677 9.8981C14.1818 9.82803 14.2703 9.73354 14.3279 9.61859L14.7933 8.59004H17.2067L17.6674 9.60868L17.6723 9.6185C17.7267 9.72704 17.8071 9.82013 17.9135 9.8914L17.9263 9.89992L17.9398 9.90722C18.0545 9.96882 18.181 10 18.3135 10C18.497 10 18.6716 9.94252 18.8047 9.81221C18.9347 9.69054 19 9.53638 19 9.36782C19 9.27264 18.9693 9.18116 18.9344 9.10404L16.8117 4.48944L16.8094 4.48483C16.7459 4.35312 16.6517 4.24062 16.5266 4.15387C16.3864 4.04689 16.2177 4 16.0416 4H15.9584C15.7785 4 15.6085 4.04874 15.465 4.15412C15.3437 4.24212 15.2531 4.35506 15.1905 4.48481L13.0663 9.10248L13.0656 9.10404C13.0307 9.18116 13 9.27264 13 9.36782ZM16 5.92534L16.6559 7.37931H15.3441L16 5.92534Z" fill="#7887A5"/>
<path d="M16.6075 15.2574L13.6405 18.7883L13.6393 18.7897C13.526 18.9263 13.4766 19.0889 13.4766 19.2587C13.4766 19.4603 13.5541 19.6403 13.7019 19.7828C13.8496 19.9252 14.0364 20 14.2455 20H17.8284C17.9977 20 18.1551 19.9432 18.2791 19.8257C18.4092 19.7079 18.4766 19.5538 18.4766 19.3829C18.4766 19.214 18.4107 19.0614 18.2836 18.9442C18.1619 18.8216 18.0036 18.7581 17.8284 18.7581H15.3045L18.2291 15.2696C18.2888 15.2026 18.3338 15.1267 18.3657 15.0454C18.404 14.9612 18.4283 14.8693 18.4283 14.7723C18.4283 14.569 18.357 14.3836 18.212 14.2341C18.0596 14.0708 17.8548 14 17.6352 14H14.1408C13.9622 14 13.8026 14.0654 13.6775 14.186L13.6694 14.1945C13.5525 14.3166 13.4927 14.4677 13.4927 14.6326C13.4927 14.7975 13.5525 14.9486 13.6694 15.0707L13.6775 15.0792L13.6864 15.0871C13.813 15.1998 13.9698 15.2574 14.1408 15.2574H16.6075Z" fill="#7887A5"/>
</svg>
