<svg width="22" height="22" viewBox="0 0 22 22" fill="none" xmlns="http://www.w3.org/2000/svg">
<path d="M10.2929 16.4142L8 18.7071C7.60948 19.0976 6.97631 19.0976 6.58579 18.7071L4.29289 16.4142C3.90237 16.0237 3.90237 15.3905 4.29289 15C4.68342 14.6095 5.31658 14.6095 5.70711 15L6.29289 15.5858V4C6.29289 3.44772 6.74061 3 7.29289 3C7.84518 3 8.29289 3.44771 8.29289 4V15.5858L8.87868 15C9.2692 14.6095 9.90237 14.6095 10.2929 15C10.6834 15.3905 10.6834 16.0237 10.2929 16.4142Z" fill="#97A3BA"/>
<path fill-rule="evenodd" clip-rule="evenodd" d="M13.6154 8.14681C13.1944 7.59414 13 6.86907 13 6C13 5.13093 13.1944 4.40586 13.6154 3.85319L13.6166 3.85161C14.0585 3.27997 14.701 3 15.5 3C16.2945 3 16.9339 3.28061 17.3753 3.85162C17.8026 4.4045 18 5.1302 18 6C18 6.8698 17.8026 7.5955 17.3753 8.14838C16.9339 8.71939 16.2945 9 15.5 9C14.701 9 14.0585 8.72003 13.6166 8.14838L13.6154 8.14681ZM16.3223 7.37478C16.5328 7.06952 16.6548 6.62106 16.6548 6C16.6548 5.3845 16.533 4.93834 16.3223 4.63279L16.3207 4.63046C16.1284 4.34553 15.8667 4.21059 15.5 4.21059C15.1335 4.21059 14.8682 4.34552 14.6704 4.63164C14.4643 4.93766 14.3452 5.38442 14.3452 6C14.3452 6.62113 14.4645 7.0702 14.6704 7.37594C14.8682 7.66205 15.1335 7.79697 15.5 7.79697C15.8667 7.79697 16.1284 7.66205 16.3207 7.37711L16.3223 7.37478Z" fill="#97A3BA"/>
<path fill-rule="evenodd" clip-rule="evenodd" d="M13.6148 18.6389C13.5101 18.5865 13.4301 18.5108 13.372 18.4234C13.311 18.3316 13.2768 18.2286 13.2768 18.1185C13.2768 17.9655 13.3381 17.8268 13.4518 17.715L13.4526 17.7142C13.5804 17.5893 13.7487 17.5246 13.9354 17.5246C14.0214 17.5246 14.1066 17.5376 14.1885 17.5654L14.2001 17.5693L14.2113 17.574C14.5148 17.702 14.841 17.7667 15.1938 17.7667C15.7447 17.7667 16.0689 17.5995 16.2558 17.3099C16.3581 17.1516 16.4405 16.9843 16.5028 16.8075C16.4773 16.82 16.4514 16.8321 16.4251 16.8439C16.0895 16.9953 15.6881 17.0631 15.2357 17.0631C14.8095 17.0631 14.4198 16.9807 14.0758 16.8077L14.0735 16.8066C13.736 16.6334 13.4712 16.3877 13.2819 16.0757C13.0903 15.7598 13 15.3986 13 15.0013C13 14.6363 13.097 14.2969 13.2938 13.9894C13.4926 13.6785 13.7774 13.4354 14.1392 13.2606C14.5057 13.0835 14.9248 13 15.3867 13C16.2274 13 16.9049 13.2516 17.3606 13.7885C17.804 14.311 18 15.0613 18 15.9924C18 16.463 17.913 16.9207 17.7393 17.3643C17.5646 17.8249 17.2725 18.2134 16.8651 18.5243L16.863 18.5259C16.4313 18.8494 15.8853 19 15.2525 19C14.9179 19 14.6136 18.9678 14.3439 18.8983C14.0902 18.8329 13.85 18.7481 13.6239 18.6433L13.6148 18.6389ZM16.5852 15.2656C16.51 14.8892 16.3707 14.6357 16.1935 14.475C16.0083 14.3071 15.749 14.2106 15.3784 14.2106C15.1682 14.2106 14.9926 14.2514 14.8432 14.3262L14.8405 14.3276C14.6934 14.3996 14.5859 14.4943 14.5101 14.6132C14.432 14.7355 14.3926 14.8681 14.3926 15.0164C14.3926 15.3042 14.4801 15.5047 14.6275 15.6482C14.7637 15.7808 14.9791 15.8676 15.328 15.8676C15.6465 15.8676 15.9036 15.8071 16.1115 15.698C16.2944 15.602 16.4532 15.461 16.5852 15.2656Z" fill="#97A3BA"/>
</svg>
