<svg width="22" height="22" viewBox="0 0 22 22" fill="none" xmlns="http://www.w3.org/2000/svg">
<path d="M5.25158 3.29289C4.83649 2.90237 4.16351 2.90237 3.74842 3.29289L1.31131 5.58579C0.896228 5.97631 0.896229 6.60948 1.31132 7C1.7264 7.39052 2.39939 7.39052 2.81448 7L3.43711 6.41421V18C3.43711 18.5523 3.91298 19 4.5 19C5.08702 19 5.5629 18.5523 5.5629 18V6.41421L6.18552 7C6.60061 7.39052 7.2736 7.39052 7.68869 7C8.10377 6.60948 8.10377 5.97631 7.68869 5.58579L5.25158 3.29289Z" fill="#97A3BA"/>
<path d="M10 6C10 6.55228 10.4477 7 11 7H13C13.5523 7 14 6.55228 14 6C14 5.44772 13.5523 5 13 5H11C10.4477 5 10 5.44772 10 6Z" fill="#97A3BA"/>
<path d="M11 12C10.4477 12 10 11.5523 10 11C10 10.4477 10.4477 10 11 10H16C16.5523 10 17 10.4477 17 11C17 11.5523 16.5523 12 16 12H11Z" fill="#97A3BA"/>
<path d="M11 15C10.4477 15 10 15.4477 10 16C10 16.5523 10.4477 17 11 17H20C20.5523 17 21 16.5523 21 16C21 15.4477 20.5523 15 20 15H11Z" fill="#97A3BA"/>
</svg>
