<svg width="24" height="24" viewBox="0 0 24 24" fill="none" xmlns="http://www.w3.org/2000/svg">
<path fill-rule="evenodd" clip-rule="evenodd" d="M4.9511 5.97129C4.21051 4.63823 5.17444 3 6.69941 3H17.3004C18.8253 3 19.7893 4.63822 19.0487 5.97129L14.9999 13.2591V18C14.9999 19.6481 13.1184 20.5889 11.7999 19.6L9.7999 18.1C9.29628 17.7223 8.9999 17.1295 8.9999 16.5V13.2591L4.9511 5.97129ZM6.69941 5L10.7482 12.2878C10.9133 12.585 10.9999 12.9192 10.9999 13.2591V16.5L12.9999 18V13.2591C12.9999 12.9192 13.0865 12.585 13.2516 12.2878L17.3004 5L6.69941 5Z" fill="#777B92"/>
</svg>
