<svg width="24" height="24" viewBox="0 0 24 24" fill="none" xmlns="http://www.w3.org/2000/svg">
<path fill-rule="evenodd" clip-rule="evenodd" d="M4.70711 3.29289L20.7071 19.2929C21.0976 19.6834 21.0976 20.3166 20.7071 20.7071C20.3166 21.0976 19.6834 21.0976 19.2929 20.7071L13.2934 14.7076C12.9009 14.8953 12.4616 15.0002 12 15.0002C10.3431 15.0002 9 13.657 9 12.0002C9 11.5386 9.10491 11.0993 9.2926 10.7068L3.29289 4.70711C2.90237 4.31658 2.90237 3.68342 3.29289 3.29289C3.68342 2.90237 4.31658 2.90237 4.70711 3.29289ZM11.3039 12.7181L11.2821 12.6963C11.2892 12.7037 11.2965 12.7109 11.3039 12.7181Z" fill="#777B92"/>
<path fill-rule="evenodd" clip-rule="evenodd" d="M12 7C11.4222 7 10.8269 7.06921 10.2285 7.20966C9.69085 7.33586 9.15267 7.00231 9.02647 6.46463C8.90026 5.92696 9.23382 5.38878 9.77149 5.26258C10.5144 5.0882 11.263 5 12 5C15.5668 5 19.4294 7.06239 21.6428 11.0739C21.9605 11.6497 21.9612 12.3489 21.643 12.9257C21.0561 13.9894 20.3532 14.9166 19.5697 15.7049C19.1803 16.0967 18.5472 16.0986 18.1555 15.7093C17.7637 15.3199 17.7618 14.6868 18.1511 14.2951C18.7932 13.649 19.3765 12.8847 19.8694 12C17.9916 8.62935 14.8002 7 12 7Z" fill="#777B92"/>
<path fill-rule="evenodd" clip-rule="evenodd" d="M5.84453 8.29073C6.23624 8.68006 6.23818 9.31322 5.84885 9.70494C5.20673 10.351 4.62348 11.1153 4.1306 12C6.00839 15.3706 9.19982 17 12 17C12.5778 17 13.1731 16.9308 13.7715 16.7903C14.3092 16.6641 14.8473 16.9977 14.9735 17.5354C15.0998 18.073 14.7662 18.6112 14.2285 18.7374C13.4857 18.9118 12.737 19 12 19C8.43321 19 4.5706 16.9376 2.35724 12.9261C2.03952 12.3503 2.03881 11.6511 2.35699 11.0743C2.94384 10.0106 3.6468 9.08339 4.43032 8.29506C4.81965 7.90334 5.45281 7.90141 5.84453 8.29073Z" fill="#777B92"/>
</svg>
