<svg width="22" height="22" viewBox="0 0 22 22" fill="none" xmlns="http://www.w3.org/2000/svg">
<path fill-rule="evenodd" clip-rule="evenodd" d="M11.3021 19.8C11.4752 19.9298 11.6857 20 11.9021 20C12.0443 19.9962 12.1841 19.9621 12.3121 19.9C12.4785 19.8161 12.6182 19.6874 12.7154 19.5284C12.8126 19.3694 12.8634 19.1864 12.8621 19V12.7L17.8621 3.49C17.9499 3.33798 17.9961 3.16554 17.9961 2.99C17.9961 2.81447 17.9499 2.64202 17.8621 2.49C17.7736 2.34072 17.6477 2.21705 17.497 2.13114C17.3462 2.04523 17.1756 2.00003 17.0021 2H3.00208C2.83023 1.99964 2.66119 2.04358 2.51127 2.12757C2.36134 2.21155 2.23559 2.33276 2.14614 2.4795C2.05669 2.62623 2.00657 2.79354 2.0006 2.96529C1.99464 3.13703 2.03303 3.30741 2.11208 3.46L6.91208 12.68V15.95C6.91091 16.1044 6.94551 16.257 7.01318 16.3958C7.08084 16.5346 7.17972 16.6558 7.30208 16.75L11.3021 19.8ZM10.9021 16.99L8.90208 15.46L8.88208 12.46C8.88273 12.3001 8.845 12.1423 8.77208 12L4.64208 4H15.3021L11.0021 12C10.9357 12.1371 10.9015 12.2876 10.9021 12.44V16.99Z" fill="#97A3BA"/>
<path d="M19.0018 19.0183V14.9807C19.0142 13.8568 18.0019 13.7402 17.343 14.418L15.3447 16.2185C15.002 16.4995 15.0025 16.9995 15.0025 16.9995C15.0025 16.9995 15.002 17.4995 15.3447 17.7805L17.343 19.5811C18.0019 20.2588 19.0142 20.1423 19.0018 19.0183Z" fill="#97A3BA"/>
</svg>
