<svg width="24" height="24" viewBox="0 0 24 24" fill="none" xmlns="http://www.w3.org/2000/svg">
<path fill-rule="evenodd" clip-rule="evenodd" d="M18.3162 6.94895L16 7.72103V12.0003L16 12.0035C15.9981 13.6587 14.6557 15 13 15C11.3431 15 10 13.6569 10 12C10 10.3431 11.3431 9 13 9C13.3506 9 13.6872 9.06015 14 9.17071V7.72103C14 6.86017 14.5509 6.09589 15.3675 5.82366L17.6838 5.05159C18.2077 4.87694 18.774 5.1601 18.9487 5.68404C19.1233 6.20799 18.8402 6.77431 18.3162 6.94895ZM14 12C14 11.4477 13.5523 11 13 11C12.4477 11 12 11.4477 12 12C12 12.5523 12.4477 13 13 13C13.5523 13 14 12.5523 14 12Z" fill="#777B92"/>
<path fill-rule="evenodd" clip-rule="evenodd" d="M6 4C6 2.89543 6.89543 2 8 2H20C21.1046 2 22 2.89543 22 4V16C22 17.1046 21.1046 18 20 18H19V19C19 20.1046 18.1046 21 17 21H5C3.89543 21 3 20.1046 3 19V7C3 5.89543 3.89543 5 5 5H6V4ZM6 7L5 7V19H17V18H8C6.89543 18 6 17.1046 6 16V7ZM8 16H20V4L8 4V16Z" fill="#777B92"/>
</svg>
