<svg width="24" height="24" viewBox="0 0 24 24" fill="none" xmlns="http://www.w3.org/2000/svg">
<path fill-rule="evenodd" clip-rule="evenodd" d="M12 2C14.2091 2 16 3.79086 16 6V11C16 13.2091 14.2091 15 12 15C9.79086 15 8 13.2091 8 11V6C8 3.79086 9.79086 2 12 2ZM10 6V11C10 12.1046 10.8954 13 12 13C13.1046 13 14 12.1046 14 11V6C14 4.89543 13.1046 4 12 4C10.8954 4 10 4.89543 10 6Z" fill="#777B92"/>
<path fill-rule="evenodd" clip-rule="evenodd" d="M12 16C14.7614 16 17 13.7614 17 11C17 10.4477 17.4477 10 18 10C18.5523 10 19 10.4477 19 11C19 14.5265 16.3923 17.4439 13 17.9291V20H15C15.5523 20 16 20.4477 16 21C16 21.5523 15.5523 22 15 22H9C8.44772 22 8 21.5523 8 21C8 20.4477 8.44772 20 9 20H11V17.9291C7.60771 17.4439 5 14.5265 5 11C5 10.4477 5.44772 10 6 10C6.55228 10 7 10.4477 7 11C7 13.7614 9.23858 16 12 16Z" fill="#777B92"/>
</svg>
