<svg width="24" height="24" viewBox="0 0 24 24" fill="none" xmlns="http://www.w3.org/2000/svg">
<path fill-rule="evenodd" clip-rule="evenodd" d="M13 3V6C13 6.55228 12.5523 7 12 7C11.4477 7 11 6.55228 11 6V3C11 2.44772 11.4477 2 12 2C12.5523 2 13 2.44772 13 3Z" fill="#777B92"/>
<path fill-rule="evenodd" clip-rule="evenodd" d="M5.70707 4.70711C2.19236 8.22182 2.19237 13.7782 5.7071 17.2929C6.09762 17.6834 6.09762 18.3166 5.7071 18.7071C5.31657 19.0976 4.68341 19.0976 4.29288 18.7071C-0.00288224 14.4113 -0.00291109 7.58866 4.29286 3.29289C4.68338 2.90237 5.31655 2.90237 5.70707 3.29289C6.0976 3.68342 6.0976 4.31658 5.70707 4.70711Z" fill="#777B92"/>
<path fill-rule="evenodd" clip-rule="evenodd" d="M19.7071 3.29289C24.0028 7.58866 24.0028 14.4832 19.7071 18.7789C19.3165 19.1695 18.6834 19.1695 18.2929 18.7789C17.9023 18.3884 17.9023 17.7552 18.2929 17.3647C21.8076 13.85 21.8076 8.22183 18.2929 4.70711C17.9023 4.31658 17.9023 3.68342 18.2929 3.29289C18.6834 2.90237 19.3165 2.90237 19.7071 3.29289Z" fill="#777B92"/>
<path fill-rule="evenodd" clip-rule="evenodd" d="M15.2929 6.29289C15.6834 5.90237 16.3166 5.90237 16.7071 6.29289C18.0989 7.68467 18.875 9.30141 18.875 11C18.875 12.6986 18.0989 14.3153 16.7071 15.7071C16.3166 16.0976 15.6834 16.0976 15.2929 15.7071C14.9024 15.3166 14.9024 14.6834 15.2929 14.2929C16.4011 13.1847 16.875 12.0514 16.875 11C16.875 9.94859 16.4011 8.81533 15.2929 7.70711C14.9024 7.31658 14.9024 6.68342 15.2929 6.29289Z" fill="#777B92"/>
<path fill-rule="evenodd" clip-rule="evenodd" d="M8.70706 6.2932C9.09759 6.68372 9.0976 7.31689 8.70708 7.70742C7.59888 8.81563 7.125 9.94889 7.125 11.0003C7.125 12.0517 7.5989 13.185 8.70712 14.2932C9.09765 14.6837 9.09765 15.3169 8.70713 15.7074C8.3166 16.0979 7.68344 16.0979 7.29291 15.7074C5.90112 14.3156 5.12501 12.6989 5.125 11.0003C5.12499 9.30173 5.90109 7.685 7.29285 6.29321C7.68337 5.90269 8.31654 5.90268 8.70706 6.2932Z" fill="#777B92"/>
<path fill-rule="evenodd" clip-rule="evenodd" d="M13 11C13 11.5523 12.5523 12 12 12C11.4477 12 11 11.5523 11 11C11 10.4477 11.4477 10 12 10C12.5523 10 13 10.4477 13 11Z" fill="#777B92"/>
<path fill-rule="evenodd" clip-rule="evenodd" d="M12 13C12.5523 13 13 13.4477 13 14V21C13 21.5523 12.5523 22 12 22C11.4477 22 11 21.5523 11 21V14C11 13.4477 11.4477 13 12 13Z" fill="#777B92"/>
</svg>
