<svg width="24" height="24" viewBox="0 0 24 24" fill="none" xmlns="http://www.w3.org/2000/svg">
<path fill-rule="evenodd" clip-rule="evenodd" d="M4.70711 3.29289L19.7071 18.2929C20.0976 18.6834 20.0976 19.3166 19.7071 19.7071C19.3166 20.0976 18.6834 20.0976 18.2929 19.7071L3.29289 4.70711C2.90237 4.31658 2.90237 3.68342 3.29289 3.29289C3.68342 2.90237 4.31658 2.90237 4.70711 3.29289Z" fill="#777B92"/>
<path fill-rule="evenodd" clip-rule="evenodd" d="M21.1925 9.80755C18.1809 6.79597 14.0601 5.57014 10.1421 6.13256C9.59541 6.21103 9.08862 5.83147 9.01015 5.28479C8.93167 4.73811 9.31123 4.23132 9.85791 4.15285C14.3726 3.50477 19.1308 4.91744 22.6067 8.39334C22.9972 8.78386 22.9972 9.41703 22.6067 9.80755C22.2162 10.1981 21.583 10.1981 21.1925 9.80755Z" fill="#777B92"/>
<path fill-rule="evenodd" clip-rule="evenodd" d="M4.1225 7.38028C4.46473 7.81374 4.39077 8.44257 3.9573 8.78481C3.55947 9.0989 3.17546 9.43978 2.80769 9.80755C2.41717 10.1981 1.784 10.1981 1.39348 9.80755C1.00295 9.41703 1.00295 8.78386 1.39348 8.39334C1.81658 7.97024 2.25899 7.57745 2.71797 7.21508C3.15144 6.87284 3.78027 6.94681 4.1225 7.38028Z" fill="#777B92"/>
<path fill-rule="evenodd" clip-rule="evenodd" d="M14.2213 9.24864C15.9991 9.65203 17.6885 10.5464 19.071 11.9289C19.4615 12.3195 19.4615 12.9526 19.071 13.3432C18.6805 13.7337 18.0473 13.7337 17.6568 13.3432C16.5488 12.2352 15.1994 11.5214 13.7787 11.1991C13.2401 11.0769 12.9026 10.5412 13.0248 10.0026C13.147 9.46398 13.6827 9.12643 14.2213 9.24864Z" fill="#777B92"/>
<path fill-rule="evenodd" clip-rule="evenodd" d="M7.55634 12.3455C7.12873 12.6318 6.72202 12.9642 6.34309 13.3432C5.95257 13.7337 5.3194 13.7337 4.92888 13.3432C4.53836 12.9526 4.53836 12.3195 4.92888 11.9289C5.40051 11.4573 5.9083 11.0421 6.44366 10.6836C6.90259 10.3764 7.5237 10.4993 7.83096 10.9583C8.13821 11.4172 8.01526 12.0383 7.55634 12.3455Z" fill="#777B92"/>
<path fill-rule="evenodd" clip-rule="evenodd" d="M11.9685 14.8772C12.106 15.412 11.7839 15.9572 11.2491 16.0947C10.7477 16.2236 10.2733 16.484 9.87874 16.8785C9.48821 17.269 8.85505 17.269 8.46452 16.8785C8.074 16.488 8.074 15.8548 8.46452 15.4643C9.11902 14.8098 9.91249 14.3734 10.7509 14.1577C11.2858 14.0202 11.8309 14.3423 11.9685 14.8772Z" fill="#777B92"/>
<path fill-rule="evenodd" clip-rule="evenodd" d="M13 19C13 19.5523 12.5523 20 12 20C11.4477 20 11 19.5523 11 19C11 18.4477 11.4477 18 12 18C12.5523 18 13 18.4477 13 19Z" fill="#777B92"/>
</svg>
