<svg width="24" height="24" viewBox="0 0 24 24" fill="none" xmlns="http://www.w3.org/2000/svg">
<path fill-rule="evenodd" clip-rule="evenodd" d="M4.70711 3.29289L20.7071 19.2929C21.0976 19.6834 21.0976 20.3166 20.7071 20.7071C20.3166 21.0976 19.6834 21.0976 19.2929 20.7071L3.29289 4.70711C2.90237 4.31658 2.90237 3.68342 3.29289 3.29289C3.68342 2.90237 4.31658 2.90237 4.70711 3.29289Z" fill="#777B92"/>
<path fill-rule="evenodd" clip-rule="evenodd" d="M21 15C21 15.5523 20.5523 16 20 16C19.4477 16 19 15.5523 19 15V4C19 3.44772 19.4477 3 20 3C20.5523 3 21 3.44772 21 4V15Z" fill="#777B92"/>
<path fill-rule="evenodd" clip-rule="evenodd" d="M16 7V11C16 11.5523 15.5523 12 15 12C14.4477 12 14 11.5523 14 11V7C14 6.44772 14.4477 6 15 6C15.5523 6 16 6.44772 16 7Z" fill="#777B92"/>
<path fill-rule="evenodd" clip-rule="evenodd" d="M15 18C15.5523 18 16 18.4477 16 19V20C16 20.5523 15.5523 21 15 21C14.4477 21 14 20.5523 14 20V19C14 18.4477 14.4477 18 15 18Z" fill="#777B92"/>
<path fill-rule="evenodd" clip-rule="evenodd" d="M11 14V20C11 20.5523 10.5523 21 10 21C9.44772 21 9 20.5523 9 20L9 14C9 13.4477 9.44772 13 10 13C10.5523 13 11 13.4477 11 14Z" fill="#777B92"/>
<path fill-rule="evenodd" clip-rule="evenodd" d="M5 12C5.55228 12 6 12.4477 6 13L6 20C6 20.5523 5.55229 21 5 21C4.44772 21 4 20.5523 4 20L4 13C4 12.4477 4.44772 12 5 12Z" fill="#777B92"/>
</svg>
