<svg width="16" height="16" viewBox="0 0 16 16" fill="none" xmlns="http://www.w3.org/2000/svg">
<path fill-rule="evenodd" clip-rule="evenodd" d="M0.5 4C0.5 3.72386 0.723858 3.5 1 3.5H15C15.2761 3.5 15.5 3.72386 15.5 4C15.5 4.27614 15.2761 4.5 15 4.5H1C0.723858 4.5 0.5 4.27614 0.5 4Z" fill="#777B92"/>
<path fill-rule="evenodd" clip-rule="evenodd" d="M5 7.5L15 7.5C15.2761 7.5 15.5 7.72386 15.5 8C15.5 8.27614 15.2761 8.5 15 8.5L5 8.5C4.72386 8.5 4.5 8.27614 4.5 8C4.5 7.72386 4.72386 7.5 5 7.5Z" fill="#777B92"/>
<path fill-rule="evenodd" clip-rule="evenodd" d="M1 11.5H15C15.2761 11.5 15.5 11.7239 15.5 12C15.5 12.2761 15.2761 12.5 15 12.5H1C0.723858 12.5 0.5 12.2761 0.5 12C0.5 11.7239 0.723858 11.5 1 11.5Z" fill="#777B92"/>
<path fill-rule="evenodd" clip-rule="evenodd" d="M2 9C1.44772 9 1 8.55228 1 8C1 7.44772 1.44772 7 2 7C2.55228 7 3 7.44772 3 8C3 8.55228 2.55228 9 2 9Z" fill="#777B92"/>
</svg>
