<svg width="16" height="16" viewBox="0 0 16 16" fill="none" xmlns="http://www.w3.org/2000/svg">
<path fill-rule="evenodd" clip-rule="evenodd" d="M1 0.5H15C15.2761 0.5 15.5 0.723858 15.5 1V7C15.5 7.27614 15.2761 7.5 15 7.5H1C0.723858 7.5 0.5 7.27614 0.5 7V1C0.5 0.723858 0.723858 0.5 1 0.5Z" fill="#777B92"/>
<path fill-rule="evenodd" clip-rule="evenodd" d="M0.5 9C0.5 8.72386 0.723858 8.5 1 8.5H15C15.2761 8.5 15.5 8.72386 15.5 9V15C15.5 15.2761 15.2761 15.5 15 15.5H1C0.723858 15.5 0.5 15.2761 0.5 15V9Z" fill="#777B92"/>
</svg>
