<svg width="16" height="16" viewBox="0 0 16 16" fill="none" xmlns="http://www.w3.org/2000/svg">
<path fill-rule="evenodd" clip-rule="evenodd" d="M1 0.5H3C3.27614 0.5 3.5 0.723858 3.5 1V15C3.5 15.2761 3.27614 15.5 3 15.5H1C0.723858 15.5 0.5 15.2761 0.5 15V1C0.5 0.723858 0.723858 0.5 1 0.5Z" fill="#777B92"/>
<path fill-rule="evenodd" clip-rule="evenodd" d="M5 0.5H11C11.2761 0.5 11.5 0.723858 11.5 1V15C11.5 15.2761 11.2761 15.5 11 15.5H5C4.72386 15.5 4.5 15.2761 4.5 15V1C4.5 0.723858 4.72386 0.5 5 0.5Z" fill="#777B92"/>
<path fill-rule="evenodd" clip-rule="evenodd" d="M12.5 1C12.5 0.723858 12.7239 0.5 13 0.5H15C15.2761 0.5 15.5 0.723858 15.5 1V15C15.5 15.2761 15.2761 15.5 15 15.5H13C12.7239 15.5 12.5 15.2761 12.5 15V1Z" fill="#777B92"/>
</svg>
