<svg width="22" height="23" viewBox="0 0 22 23" fill="none" xmlns="http://www.w3.org/2000/svg">
<path d="M2.31935 4.68065C2.74515 5.10645 3.4355 5.10645 3.8613 4.68065L6.68065 1.8613C7.10645 1.4355 7.10645 0.745147 6.68065 0.319349C6.25485 -0.10645 5.5645 -0.10645 5.1387 0.319349L2.31935 3.1387C1.89355 3.5645 1.89355 4.25485 2.31935 4.68065Z" fill="#97A3BA"/>
<path fill-rule="evenodd" clip-rule="evenodd" d="M19.5287 15.2077L17.7269 13.3977V8.9377C17.7509 7.28152 17.1742 5.67261 16.1033 4.40803C15.0325 3.14346 13.5398 2.30863 11.9009 2.0577C10.9498 1.93256 9.98282 2.01151 9.06463 2.28927C8.14643 2.56703 7.29809 3.03722 6.5762 3.66846C5.85432 4.2997 5.27549 5.07747 4.87835 5.94989C4.4812 6.82231 4.27487 7.76931 4.27312 8.7277V13.3977L2.47128 15.2077C2.24495 15.4376 2.09147 15.729 2.03003 16.0455C1.96858 16.362 2.00189 16.6896 2.1258 16.9873C2.24971 17.2851 2.45872 17.5397 2.72669 17.7194C2.99466 17.8991 3.30972 17.9959 3.63247 17.9977H6.9959V18.3377C7.04266 19.3529 7.49036 20.3082 8.2409 20.9942C8.99144 21.6803 9.98361 22.0411 11 21.9977C12.0164 22.0411 13.0086 21.6803 13.7591 20.9942C14.5096 20.3082 14.9573 19.3529 15.0041 18.3377V17.9977H18.3675C18.6903 17.9959 19.0053 17.8991 19.2733 17.7194C19.5413 17.5397 19.7503 17.2851 19.8742 16.9873C19.9981 16.6896 20.0314 16.362 19.97 16.0455C19.9085 15.729 19.755 15.4376 19.5287 15.2077ZM13.002 18.3377C12.9465 18.8187 12.7074 19.2598 12.3344 19.569C11.9615 19.8782 11.4835 20.0318 11 19.9977C10.5165 20.0318 10.0385 19.8782 9.66556 19.569C9.29261 19.2598 9.05347 18.8187 8.99795 18.3377V17.9977H13.002V18.3377Z" fill="#97A3BA"/>
<path d="M18.1387 4.68065C18.5645 5.10645 19.2549 5.10645 19.6807 4.68065C20.1064 4.25485 20.1064 3.5645 19.6807 3.1387L16.8613 0.319349C16.4355 -0.10645 15.7451 -0.10645 15.3193 0.319349C14.8936 0.745147 14.8936 1.4355 15.3193 1.8613L18.1387 4.68065Z" fill="#97A3BA"/>
</svg>
