<svg width="22" height="22" viewBox="0 0 22 22" fill="none" xmlns="http://www.w3.org/2000/svg">
<path d="M12 6C12 5.44772 11.5523 5 11 5C10.4477 5 10 5.44772 10 6C10 6.55228 10.4477 7 11 7C11.5523 7 12 6.55228 12 6Z" fill="#97A3BA"/>
<path d="M10.2929 16.7071C10.4804 16.8946 10.7348 17 11 17C11.2652 17 11.5196 16.8946 11.7071 16.7071C11.8946 16.5196 12 16.2652 12 16V10C12 9.73478 11.8946 9.48043 11.7071 9.29289C11.5196 9.10536 11.2652 9 11 9C10.7348 9 10.4804 9.10536 10.2929 9.29289C10.1054 9.48043 10 9.73478 10 10V16C10 16.2652 10.1054 16.5196 10.2929 16.7071Z" fill="#97A3BA"/>
</svg>
