<svg width="24" height="24" viewBox="0 0 24 24" fill="none" xmlns="http://www.w3.org/2000/svg">
<path fill-rule="evenodd" clip-rule="evenodd" d="M7.80869 15.1523C7.00815 15.0865 6.43197 15.1898 6 15.4692V19.9994C6 20.5517 5.55228 20.9994 5 20.9994C4.44772 20.9994 4 20.5517 4 19.9994V4.99939C4 4.73416 4.10537 4.47978 4.29294 4.29224C5.33714 3.24818 6.68817 3.0536 7.97258 3.15922C9.17377 3.25799 10.4908 3.63495 11.7183 3.98625L11.8997 4.03814C13.2293 4.41803 14.4745 4.76121 15.6207 4.84607C16.7473 4.92948 17.662 4.75299 18.4 4.19943C18.703 3.97214 19.1084 3.93557 19.4472 4.10496C19.786 4.27434 20 4.62061 20 4.99939V14.9994C20 15.3141 19.8518 15.6105 19.6 15.7993C18.338 16.746 16.8777 16.9446 15.473 16.8405C14.088 16.7379 12.6456 16.3311 11.3503 15.961L11.2665 15.9371C9.95487 15.5622 8.80811 15.2345 7.80869 15.1523Z" fill="#777B92"/>
</svg>
