<svg width="24" height="24" viewBox="0 0 24 24" fill="none" xmlns="http://www.w3.org/2000/svg">
<path fill-rule="evenodd" clip-rule="evenodd" d="M12 8C12.5523 8 13 8.44772 13 9V13C13 13.5523 12.5523 14 12 14C11.4477 14 11 13.5523 11 13V9C11 8.44772 11.4477 8 12 8Z" fill="#777B92"/>
<path fill-rule="evenodd" clip-rule="evenodd" d="M13 16C13 16.5523 12.5523 17 12 17C11.4477 17 11 16.5523 11 16C11 15.4477 11.4477 15 12 15C12.5523 15 13 15.4477 13 16Z" fill="#777B92"/>
<path fill-rule="evenodd" clip-rule="evenodd" d="M13.7308 1.99402L22.9964 17.9982C23.7683 19.3315 22.8062 21.0002 21.2655 21.0002H2.73444C1.19378 21.0002 0.231653 19.3315 1.00358 17.9982L10.2691 1.99402C11.0395 0.663458 12.9605 0.663445 13.7308 1.99402ZM12 2.9961L2.73444 19.0002L21.2655 19.0002L12 2.9961Z" fill="#777B92"/>
</svg>
