<svg width="22" height="22" viewBox="0 0 22 22" fill="none" xmlns="http://www.w3.org/2000/svg">
<path fill-rule="evenodd" clip-rule="evenodd" d="M1 4C1 2.34315 2.34315 1 4 1H18C19.6569 1 21 2.34315 21 4V18C21 19.6569 19.6569 21 18 21H4C2.34315 21 1 19.6569 1 18V4ZM11 5.00007C10.0717 5.00007 9.1815 5.36882 8.52513 6.02519C7.86875 6.68157 7.5 7.57181 7.5 8.50007C7.5 8.76528 7.60536 9.01964 7.79289 9.20717C7.98043 9.39471 8.23478 9.50007 8.5 9.50007C8.76522 9.50007 9.01957 9.39471 9.20711 9.20717C9.39464 9.01964 9.5 8.76528 9.5 8.50007C9.5 8.2034 9.58797 7.91339 9.7528 7.66671C9.91762 7.42004 10.1519 7.22778 10.426 7.11425C10.7001 7.00072 11.0017 6.97101 11.2926 7.02889C11.5836 7.08677 11.8509 7.22963 12.0607 7.43941C12.2704 7.64919 12.4133 7.91646 12.4712 8.20743C12.5291 8.4984 12.4994 8.8 12.3858 9.07409C12.2723 9.34818 12.08 9.58245 11.8334 9.74727C11.5867 9.91209 11.2967 10.0001 11 10.0001C10.7348 10.0001 10.4804 10.1054 10.2929 10.293C10.1054 10.4805 10 10.7349 10 11.0001V13.0001C10 13.2653 10.1054 13.5196 10.2929 13.7072C10.4804 13.8947 10.7348 14.0001 11 14.0001C11.2652 14.0001 11.5196 13.8947 11.7071 13.7072C11.8946 13.5196 12 13.2653 12 13.0001V11.8401C12.8081 11.6041 13.5037 11.0839 13.9585 10.3755C14.4133 9.66709 14.5967 8.81814 14.4749 7.98513C14.3532 7.15213 13.9344 6.39122 13.2958 5.84266C12.6572 5.29409 11.8418 4.99484 11 5.00007ZM11 17C10.4477 17 10 16.5523 10 16C10 15.4477 10.4477 15 11 15C11.5523 15 12 15.4477 12 16C12 16.5523 11.5523 17 11 17Z" fill="#97A3BA"/>
</svg>
