<svg width="22" height="22" viewBox="0 0 22 22" fill="none" xmlns="http://www.w3.org/2000/svg">
<path fill-rule="evenodd" clip-rule="evenodd" d="M1 4C1 2.34315 2.34315 1 4 1H18C19.6569 1 21 2.34315 21 4V18C21 19.6569 19.6569 21 18 21H4C2.34315 21 1 19.6569 1 18V4ZM4 3C3.44772 3 3 3.44772 3 4V18C3 18.5523 3.44772 19 4 19H18C18.5523 19 19 18.5523 19 18V4C19 3.44772 18.5523 3 18 3H4ZM10.9933 5.00007C9.93424 5.00007 8.91852 5.36881 8.16962 6.02519C7.42073 6.68156 7 7.57179 7 8.50004C7 8.76526 7.12021 9.01961 7.33418 9.20714C7.54815 9.39468 7.83836 9.50003 8.14096 9.50003C8.44356 9.50003 8.73376 9.39468 8.94773 9.20714C9.1617 9.01961 9.28191 8.76526 9.28191 8.50004C9.28191 8.20337 9.38228 7.91336 9.57034 7.66669C9.75839 7.42002 10.0257 7.22776 10.3384 7.11423C10.6511 7.0007 10.9952 6.971 11.3272 7.02887C11.6592 7.08675 11.9642 7.22961 12.2035 7.43939C12.4429 7.64917 12.6059 7.91644 12.6719 8.20741C12.7379 8.49838 12.704 8.79997 12.5745 9.07406C12.445 9.34815 12.2256 9.58242 11.9442 9.74724C11.6627 9.91206 11.3318 10 10.9933 10C10.6907 10 10.4005 10.1054 10.1866 10.2929C9.9726 10.4805 9.85239 10.7348 9.85239 11V13C9.85239 13.2652 9.9726 13.5196 10.1866 13.7071C10.4005 13.8946 10.6907 14 10.9933 14C11.2959 14 11.5861 13.8946 11.8001 13.7071C12.0141 13.5196 12.1343 13.2652 12.1343 13V11.84C13.0563 11.604 13.8499 11.0839 14.3688 10.3755C14.8878 9.66705 15.0971 8.81811 14.9581 7.98511C14.8192 7.15211 14.3413 6.39121 13.6127 5.84265C12.8841 5.29409 11.9538 4.99484 10.9933 5.00007ZM12 16C12 16.5523 11.5523 17 11 17C10.4477 17 10 16.5523 10 16C10 15.4477 10.4477 15 11 15C11.5523 15 12 15.4477 12 16Z" fill="#97A3BA"/>
</svg>
