<svg width="22" height="22" viewBox="0 0 22 22" fill="none" xmlns="http://www.w3.org/2000/svg">
<path d="M11 5.00007C10.0717 5.00007 9.1815 5.36882 8.52513 6.02519C7.86875 6.68157 7.5 7.57181 7.5 8.50007C7.5 8.76528 7.60536 9.01964 7.79289 9.20717C7.98043 9.39471 8.23478 9.50007 8.5 9.50007C8.76522 9.50007 9.01957 9.39471 9.20711 9.20717C9.39464 9.01964 9.5 8.76528 9.5 8.50007C9.5 8.2034 9.58797 7.91339 9.7528 7.66671C9.91762 7.42004 10.1519 7.22778 10.426 7.11425C10.7001 7.00072 11.0017 6.97101 11.2926 7.02889C11.5836 7.08677 11.8509 7.22963 12.0607 7.43941C12.2704 7.64919 12.4133 7.91646 12.4712 8.20743C12.5291 8.4984 12.4994 8.8 12.3858 9.07409C12.2723 9.34818 12.08 9.58245 11.8334 9.74727C11.5867 9.91209 11.2967 10.0001 11 10.0001C10.7348 10.0001 10.4804 10.1054 10.2929 10.293C10.1054 10.4805 10 10.7349 10 11.0001V13.0001C10 13.2653 10.1054 13.5196 10.2929 13.7072C10.4804 13.8947 10.7348 14.0001 11 14.0001C11.2652 14.0001 11.5196 13.8947 11.7071 13.7072C11.8946 13.5196 12 13.2653 12 13.0001V11.8401C12.8081 11.6041 13.5037 11.0839 13.9585 10.3755C14.4133 9.66709 14.5967 8.81814 14.4749 7.98513C14.3532 7.15213 13.9344 6.39122 13.2958 5.84266C12.6572 5.29409 11.8418 4.99484 11 5.00007Z" fill="#97A3BA"/>
<path d="M11 17C10.4477 17 10 16.5523 10 16C10 15.4477 10.4477 15 11 15C11.5523 15 12 15.4477 12 16C12 16.5523 11.5523 17 11 17Z" fill="#97A3BA"/>
<path fill-rule="evenodd" clip-rule="evenodd" d="M11 1C9.02219 1 7.08879 1.58649 5.4443 2.6853C3.79981 3.78412 2.51809 5.3459 1.76121 7.17317C1.00433 9.00043 0.806299 11.0111 1.19215 12.9509C1.578 14.8907 2.53041 16.6725 3.92894 18.0711C5.32746 19.4696 7.10929 20.422 9.0491 20.8079C10.9889 21.1937 12.9996 20.9957 14.8268 20.2388C16.6541 19.4819 18.2159 18.2002 19.3147 16.5557C20.4135 14.9112 21 12.9778 21 11C21 9.68678 20.7413 8.38642 20.2388 7.17317C19.7363 5.95991 18.9997 4.85752 18.0711 3.92893C17.1425 3.00035 16.0401 2.26375 14.8268 1.7612C13.6136 1.25866 12.3132 1 11 1ZM11 19C9.41775 19 7.87104 18.5308 6.55544 17.6518C5.23985 16.7727 4.21447 15.5233 3.60897 14.0615C3.00347 12.5997 2.84504 10.9911 3.15372 9.43928C3.4624 7.88743 4.22433 6.46197 5.34315 5.34315C6.46197 4.22433 7.88743 3.4624 9.43928 3.15372C10.9911 2.84504 12.5997 3.00346 14.0615 3.60896C15.5233 4.21447 16.7727 5.23984 17.6518 6.55544C18.5308 7.87103 19 9.41775 19 11C19 13.1217 18.1572 15.1566 16.6569 16.6569C15.1566 18.1571 13.1217 19 11 19Z" fill="#97A3BA"/>
</svg>
