<svg width="24" height="24" viewBox="0 0 24 24" fill="none" xmlns="http://www.w3.org/2000/svg">
<path fill-rule="evenodd" clip-rule="evenodd" d="M9 9C9 9.55228 8.55228 10 8 10C7.44772 10 7 9.55228 7 9C7 6.23858 9.23858 4 12 4C14.7614 4 17 6.23858 17 9C17 11.3357 15.3994 13.2951 13.2366 13.8457C13.1427 13.8696 13.0684 13.9181 13.0276 13.9621C13.009 13.9821 13.0022 13.9959 13.0004 14.0001L13 14.0012V15C13 15.5523 12.5523 16 12 16C11.4477 16 11 15.5523 11 15V14C11 12.8523 11.9146 12.1184 12.7432 11.9075C14.0411 11.5771 15 10.3992 15 9C15 7.34315 13.6569 6 12 6C10.3431 6 9 7.34315 9 9Z" fill="#777B92"/>
<path fill-rule="evenodd" clip-rule="evenodd" d="M12 20C11.4477 20 11 19.5523 11 19C11 18.4477 11.4477 18 12 18C12.5523 18 13 18.4477 13 19C13 19.5523 12.5523 20 12 20Z" fill="#777B92"/>
</svg>
