<svg width="22" height="22" viewBox="0 0 22 22" fill="none" xmlns="http://www.w3.org/2000/svg">
<path d="M13.33 19H13.12C12.6968 18.958 12.2979 18.7821 11.9814 18.4978C11.6649 18.2135 11.4472 17.8357 11.36 17.4192L8.68 4.99336L5.92 11.3964C5.84193 11.5754 5.71323 11.7276 5.54975 11.8342C5.38627 11.9409 5.19517 11.9974 5 11.9967H2C1.73478 11.9967 1.48043 11.8913 1.29289 11.7036C1.10536 11.516 1 11.2615 1 10.9962C1 10.7309 1.10536 10.4764 1.29289 10.2888C1.48043 10.1011 1.73478 9.99573 2 9.99573H4.34L6.85 4.20298C7.01896 3.81426 7.30695 3.48927 7.67244 3.27485C8.03793 3.06044 8.46203 2.9677 8.88361 3.00998C9.30518 3.05227 9.70244 3.22741 10.0181 3.51015C10.3338 3.79289 10.5515 4.16862 10.64 4.58316L13.32 16.9991L16.08 10.616C16.155 10.4333 16.2824 10.2769 16.4461 10.1665C16.6099 10.0561 16.8026 9.99672 17 9.99573H20C20.2652 9.99573 20.5196 10.1011 20.7071 10.2888C20.8946 10.4764 21 10.7309 21 10.9962C21 11.2615 20.8946 11.516 20.7071 11.7036C20.5196 11.8913 20.2652 11.9967 20 11.9967H17.66L15.15 17.7894C14.9967 18.1461 14.7431 18.4505 14.4199 18.6654C14.0967 18.8804 13.718 18.9966 13.33 19Z" fill="#97A3BA"/>
</svg>
