<svg width="22" height="22" viewBox="0 0 22 22" fill="none" xmlns="http://www.w3.org/2000/svg">
<path fill-rule="evenodd" clip-rule="evenodd" d="M11 1C9.02219 1 7.08879 1.58649 5.4443 2.6853C3.79981 3.78412 2.51809 5.3459 1.76121 7.17317C1.00433 9.00043 0.806299 11.0111 1.19215 12.9509C1.578 14.8907 2.53041 16.6725 3.92894 18.0711C5.32746 19.4696 7.10929 20.422 9.0491 20.8079C10.9889 21.1937 12.9996 20.9957 14.8268 20.2388C16.6541 19.4819 18.2159 18.2002 19.3147 16.5557C20.4135 14.9112 21 12.9778 21 11C21 9.68678 20.7413 8.38642 20.2388 7.17317C19.7363 5.95991 18.9997 4.85752 18.0711 3.92893C17.1425 3.00035 16.0401 2.26375 14.8268 1.7612C13.6136 1.25866 12.3132 1 11 1ZM11 5.00001C10.0717 5.00001 9.1815 5.36876 8.52513 6.02513C7.86875 6.68151 7.5 7.57175 7.5 8.50001C7.5 8.76522 7.60536 9.01958 7.79289 9.20711C7.98043 9.39465 8.23478 9.50001 8.5 9.50001C8.76522 9.50001 9.01957 9.39465 9.20711 9.20711C9.39464 9.01958 9.5 8.76522 9.5 8.50001C9.5 8.20333 9.58797 7.91333 9.7528 7.66665C9.91762 7.41998 10.1519 7.22772 10.426 7.11419C10.7001 7.00066 11.0017 6.97095 11.2926 7.02883C11.5836 7.08671 11.8509 7.22957 12.0607 7.43935C12.2704 7.64912 12.4133 7.9164 12.4712 8.20737C12.5291 8.49834 12.4994 8.79994 12.3858 9.07403C12.2723 9.34812 12.08 9.58239 11.8334 9.74721C11.5867 9.91203 11.2967 10 11 10C10.7348 10 10.4804 10.1054 10.2929 10.2929C10.1054 10.4804 10 10.7348 10 11V13C10 13.2652 10.1054 13.5196 10.2929 13.7071C10.4804 13.8946 10.7348 14 11 14C11.2652 14 11.5196 13.8946 11.7071 13.7071C11.8946 13.5196 12 13.2652 12 13V11.84C12.8081 11.604 13.5037 11.0839 13.9585 10.3754C14.4133 9.66702 14.5967 8.81807 14.4749 7.98507C14.3532 7.15207 13.9344 6.39116 13.2958 5.8426C12.6572 5.29403 11.8418 4.99478 11 5.00001ZM11 17C10.4477 17 10 16.5523 10 16C10 15.4477 10.4477 15 11 15C11.5523 15 12 15.4477 12 16C12 16.5523 11.5523 17 11 17Z" fill="#97A3BA"/>
</svg>
