<svg width="22" height="22" viewBox="0 0 22 22" fill="none" xmlns="http://www.w3.org/2000/svg">
<path d="M11.7071 4.70711C11.5196 4.89464 11.2652 5 11 5C10.7348 5 10.4804 4.89464 10.2929 4.70711C10.1054 4.51957 10 4.26522 10 4V2C10 1.73478 10.1054 1.48043 10.2929 1.29289C10.4804 1.10536 10.7348 1 11 1C11.2652 1 11.5196 1.10536 11.7071 1.29289C11.8946 1.48043 12 1.73478 12 2V4C12 4.26522 11.8946 4.51957 11.7071 4.70711Z" fill="#97A3BA"/>
<path fill-rule="evenodd" clip-rule="evenodd" d="M11 6C9.95059 6 8.92778 6.33019 8.07645 6.94379C7.22512 7.55739 6.58844 8.4233 6.25659 9.41886C6.0856 9.93183 6 10.4658 6 11L6.00001 15C6.00001 15.5304 6.21072 16.0391 6.58579 16.4142C6.96087 16.7893 7.46957 17 8.00001 17H14C14.5304 17 15.0391 16.7893 15.4142 16.4142C15.7893 16.0391 16 15.5304 16 15L16 11C16 10.4658 15.9144 9.93183 15.7434 9.41886C15.4116 8.4233 14.7749 7.55739 13.9236 6.94379C13.0722 6.33019 12.0494 6 11 6ZM14 15H8.00001C8.00001 15 8.00939 14.4844 8 11C8 10.2044 8.31607 9.44129 8.87868 8.87868C9.44129 8.31607 10.2044 8 11 8C11.7957 8 12.5587 8.31607 13.1213 8.87868C13.6839 9.44129 14 10.2044 14 11C13.99 14.7169 14 15 14 15Z" fill="#97A3BA"/>
<path d="M5 20C5 19.4477 5.44772 19 6 19H16C16.5523 19 17 19.4477 17 20C17 20.5523 16.5523 21 16 21H6C5.44771 21 5 20.5523 5 20Z" fill="#97A3BA"/>
<path d="M20 10H18C17.7348 10 17.4804 10.1054 17.2929 10.2929C17.1054 10.4804 17 10.7348 17 11C17 11.2652 17.1054 11.5196 17.2929 11.7071C17.4804 11.8946 17.7348 12 18 12H20C20.2652 12 20.5196 11.8946 20.7071 11.7071C20.8946 11.5196 21 11.2652 21 11C21 10.7348 20.8946 10.4804 20.7071 10.2929C20.5196 10.1054 20.2652 10 20 10Z" fill="#97A3BA"/>
<path d="M2 10H4C4.26522 10 4.51957 10.1054 4.70711 10.2929C4.89464 10.4804 5 10.7348 5 11C5 11.2652 4.89464 11.5196 4.70711 11.7071C4.51957 11.8946 4.26522 12 4 12H2C1.73478 12 1.48043 11.8946 1.29289 11.7071C1.10536 11.5196 1 11.2652 1 11C1 10.7348 1.10536 10.4804 1.29289 10.2929C1.48043 10.1054 1.73478 10 2 10Z" fill="#97A3BA"/>
<path d="M6.65999 5.42019L5.21999 4.00019C5.02505 3.81587 4.76488 3.71653 4.4967 3.72403C4.22852 3.73153 3.97431 3.84526 3.78999 4.04019C3.60566 4.23513 3.50632 4.4953 3.51382 4.76348C3.52133 5.03165 3.63505 5.28587 3.82999 5.47019L5.26999 6.86019C5.36662 6.9535 5.48107 7.02639 5.60649 7.07449C5.73191 7.1226 5.86574 7.14494 5.99999 7.14019C6.13469 7.13968 6.2679 7.11195 6.39163 7.05868C6.51535 7.00541 6.62704 6.92769 6.71999 6.83019C6.89849 6.63501 6.9924 6.37706 6.98115 6.1128C6.96991 5.84854 6.85442 5.5995 6.65999 5.42019Z" fill="#97A3BA"/>
<path d="M17.485 3.75928C17.7492 3.75928 18.0026 3.86382 18.19 4.05007C18.2837 4.14303 18.3581 4.25363 18.4089 4.37549C18.4596 4.49735 18.4858 4.62806 18.4858 4.76007C18.4858 4.89208 18.4596 5.02279 18.4089 5.14465C18.3581 5.26651 18.2837 5.37711 18.19 5.47007L16.75 6.86007C16.5646 7.03875 16.3175 7.13904 16.06 7.14007C15.9253 7.13956 15.7921 7.11183 15.6683 7.05856C15.5446 7.00529 15.4329 6.92757 15.34 6.83007C15.1537 6.64271 15.0492 6.38926 15.0492 6.12507C15.0492 5.86088 15.1537 5.60743 15.34 5.42007L16.78 4.05007C16.9674 3.86382 17.2208 3.75928 17.485 3.75928Z" fill="#97A3BA"/>
</svg>
