<svg width="22" height="22" viewBox="0 0 22 22" fill="none" xmlns="http://www.w3.org/2000/svg">
<path fill-rule="evenodd" clip-rule="evenodd" d="M7.90143 4.16941C8.40255 3.71509 8.99635 3.37516 9.64173 3.17314C10.2871 2.97113 10.9687 2.91185 11.6392 2.99941C12.795 3.18719 13.8441 3.78642 14.5933 4.68679C15.3426 5.58716 15.7415 6.72805 15.7168 7.89941V12.3994C15.7191 12.6001 15.7528 12.7992 15.8167 12.9894L19.4146 16.5894C19.6104 16.4284 19.7647 16.2226 19.8643 15.9894C19.9901 15.6917 20.0241 15.363 19.9617 15.0458C19.8994 14.7286 19.7437 14.4373 19.5145 14.2094L17.7156 12.3994V7.93941C17.7395 6.28324 17.1638 4.67432 16.0947 3.40975C15.0256 2.14518 13.5353 1.31035 11.899 1.05941C10.9493 0.932106 9.98333 1.00993 9.06619 1.28766C8.14905 1.56538 7.30204 2.03654 6.58222 2.66941C6.37879 2.83812 6.18525 3.01842 6.00256 3.20941L7.47169 4.63941C7.60435 4.47338 7.74792 4.31636 7.90143 4.16941ZM12.9984 15.8594L12.1689 14.9994H4.51345L5.69275 13.8194C5.8798 13.6333 6.02821 13.4121 6.12941 13.1683C6.23061 12.9246 6.2826 12.6633 6.28239 12.3994V9.10937L4.28359 7.10937C4.27337 7.30591 4.27337 7.50284 4.28359 7.69938V12.3994L2.48466 14.2094C2.25381 14.4374 2.09624 14.7291 2.03213 15.0473C1.96803 15.3655 2.0003 15.6955 2.12483 15.9952C2.24936 16.2949 2.46047 16.5506 2.73111 16.7295C3.00176 16.9084 3.31961 17.0024 3.64397 16.9994H7.00196V17.3394C7.04865 18.3546 7.49562 19.3099 8.24495 19.9959C8.99427 20.6819 9.98484 21.0428 10.9996 20.9994C11.9436 21.0422 12.8708 20.7387 13.6069 20.1457C14.343 19.5528 14.8374 18.7113 14.9972 17.7794L14.1677 16.9994L12.9984 15.8594ZM10.9996 18.9994C10.5169 19.0335 10.0397 18.8799 9.6673 18.5707C9.29495 18.2614 9.0562 17.8204 9.00077 17.3394V16.9994H12.9984V17.3394C12.943 17.8204 12.7042 18.2614 12.3319 18.5707C11.9595 18.8799 11.4823 19.0335 10.9996 18.9994ZM18.4052 16.9992L19.7044 18.2892C19.798 18.3822 19.8724 18.4928 19.9231 18.6146C19.9739 18.7365 20 18.8672 20 18.9992C20 19.1312 19.9739 19.2619 19.9231 19.3838C19.8724 19.5056 19.798 19.6162 19.7044 19.7092C19.6115 19.8029 19.5009 19.8773 19.3791 19.9281C19.2574 19.9789 19.1267 20.005 18.9948 20.005C18.8629 20.005 18.7322 19.9789 18.6105 19.9281C18.4887 19.8773 18.3781 19.8029 18.2852 19.7092L15.5868 16.9992L14.9972 16.4092L13.658 15.0692L13.588 14.9992L6.28239 7.69921L4.53343 5.99921L2.29477 3.70921C2.10658 3.52091 2.00085 3.26551 2.00085 2.99921C2.00085 2.73291 2.10658 2.47751 2.29477 2.28921C2.38795 2.19597 2.49858 2.12201 2.62033 2.07155C2.74208 2.02109 2.87257 1.99512 3.00435 1.99512C3.13613 1.99512 3.26662 2.02109 3.38837 2.07155C3.51012 2.12201 3.62074 2.19597 3.71392 2.28921L5.4229 3.99921L6.89203 5.46921L16.4063 14.9992L18.4052 16.9992Z" fill="#97A3BA"/>
</svg>
