<svg width="22" height="22" viewBox="0 0 22 22" fill="none" xmlns="http://www.w3.org/2000/svg">
<path d="M11 7C11.5523 7 12 7.44772 12 8C12 8.55228 11.5523 9 11 9C10.4477 9 10 8.55228 10 8C10 7.44772 10.4477 7 11 7Z" fill="#97A3BA"/>
<path d="M10.2929 15.7071C10.4804 15.8946 10.7348 16 11 16C11.2652 16 11.5196 15.8946 11.7071 15.7071C11.8946 15.5196 12 15.2652 12 15V11C12 10.7348 11.8946 10.4804 11.7071 10.2929C11.5196 10.1054 11.2652 10 11 10C10.7348 10 10.4804 10.1054 10.2929 10.2929C10.1054 10.4804 10 10.7348 10 11V15C10 15.2652 10.1054 15.5196 10.2929 15.7071Z" fill="#97A3BA"/>
<path fill-rule="evenodd" clip-rule="evenodd" d="M1 4C1 2.34315 2.34315 1 4 1H18C19.6569 1 21 2.34315 21 4V18C21 19.6569 19.6569 21 18 21H4C2.34315 21 1 19.6569 1 18V4ZM4 3C3.44772 3 3 3.44772 3 4V18C3 18.5523 3.44772 19 4 19H18C18.5523 19 19 18.5523 19 18V4C19 3.44772 18.5523 3 18 3H4Z" fill="#97A3BA"/>
</svg>
