<svg width="22" height="22" viewBox="0 0 22 22" fill="none" xmlns="http://www.w3.org/2000/svg">
<path d="M19.5287 14.2077L17.7269 12.3977V7.9377C17.7509 6.28152 17.1742 4.67261 16.1033 3.40803C15.0325 2.14346 13.5398 1.30863 11.9009 1.0577C10.9498 0.932564 9.98282 1.01151 9.06463 1.28927C8.14643 1.56703 7.29808 2.03722 6.5762 2.66846C5.85432 3.2997 5.27549 4.07747 4.87835 4.94989C4.4812 5.82231 4.27487 6.76931 4.27312 7.7277V12.3977L2.47128 14.2077C2.24495 14.4376 2.09147 14.729 2.03003 15.0455C1.96858 15.362 2.00189 15.6896 2.1258 15.9873C2.24971 16.2851 2.45872 16.5397 2.72669 16.7194C2.99466 16.8991 3.30972 16.9959 3.63247 16.9977H6.9959V17.3377C7.04266 18.3529 7.49036 19.3082 8.2409 19.9942C8.99144 20.6803 9.98361 21.0411 11 20.9977C12.0164 21.0411 13.0086 20.6803 13.7591 19.9942C14.5096 19.3082 14.9573 18.3529 15.0041 17.3377V16.9977H18.3675C18.6903 16.9959 19.0053 16.8991 19.2733 16.7194C19.5413 16.5397 19.7503 16.2851 19.8742 15.9873C19.9981 15.6896 20.0314 15.362 19.97 15.0455C19.9085 14.729 19.755 14.4376 19.5287 14.2077ZM13.002 17.3377C12.9465 17.8187 12.7074 18.2598 12.3344 18.569C11.9615 18.8782 11.4835 19.0318 11 18.9977C10.5165 19.0318 10.0385 18.8782 9.66556 18.569C9.29261 18.2598 9.05347 17.8187 8.99795 17.3377V16.9977H13.002V17.3377Z" fill="#97A3BA"/>
</svg>
