<svg width="22" height="22" viewBox="0 0 22 22" fill="none" xmlns="http://www.w3.org/2000/svg">
<path d="M11 6C10.7348 6 10.4804 6.10536 10.2929 6.29289C10.1054 6.48043 10 6.73478 10 7V12C10 12.2652 10.1054 12.5196 10.2929 12.7071C10.4804 12.8946 10.7348 13 11 13C11.2652 13 11.5196 12.8946 11.7071 12.7071C11.8946 12.5196 12 12.2652 12 12V7C12 6.73478 11.8946 6.48043 11.7071 6.29289C11.5196 6.10536 11.2652 6 11 6Z" fill="#97A3BA"/>
<path d="M10 15C10 15.5523 10.4477 16 11 16C11.5523 16 12 15.5523 12 15C12 14.4477 11.5523 14 11 14C10.4477 14 10 14.4477 10 15Z" fill="#97A3BA"/>
<path fill-rule="evenodd" clip-rule="evenodd" d="M9.78898 1.43036C10.4944 0.856545 11.5056 0.856545 12.211 1.43036L12.6552 1.79172C13.0794 2.13681 13.6307 2.28453 14.1707 2.19778L14.736 2.10694C15.6338 1.96269 16.5096 2.46833 16.8336 3.31796L17.0376 3.85301C17.2324 4.36398 17.636 4.76755 18.147 4.96239L18.682 5.16641C19.5317 5.49038 20.0373 6.36616 19.8931 7.26396L19.8022 7.82932C19.7155 8.36926 19.8632 8.92056 20.2083 9.34478L20.5696 9.78898C21.1435 10.4944 21.1435 11.5056 20.5696 12.211L20.2083 12.6552C19.8632 13.0794 19.7155 13.6307 19.8022 14.1707L19.8931 14.736C20.0373 15.6338 19.5317 16.5096 18.682 16.8336L18.147 17.0376C17.636 17.2324 17.2324 17.636 17.0376 18.147L16.8336 18.682C16.5096 19.5317 15.6338 20.0373 14.736 19.8931L14.1707 19.8022C13.6307 19.7155 13.0794 19.8632 12.6552 20.2083L12.211 20.5696C11.5056 21.1435 10.4944 21.1435 9.78898 20.5696L9.34478 20.2083C8.92056 19.8632 8.36926 19.7155 7.82932 19.8022L7.26396 19.8931C6.36616 20.0373 5.49038 19.5317 5.16641 18.682L4.96239 18.147C4.76755 17.636 4.36398 17.2324 3.85301 17.0376L3.31796 16.8336C2.46833 16.5096 1.96269 15.6338 2.10694 14.736L2.19778 14.1707C2.28453 13.6307 2.13681 13.0794 1.79172 12.6552L1.43036 12.211C0.856545 11.5056 0.856545 10.4944 1.43036 9.78898L1.79172 9.34478C2.13681 8.92056 2.28453 8.36926 2.19778 7.82932L2.10694 7.26396C1.96269 6.36616 2.46833 5.49038 3.31796 5.16641L3.85301 4.96239C4.36398 4.76755 4.76755 4.36398 4.96239 3.85301L5.16641 3.31796C5.49038 2.46833 6.36616 1.96269 7.26396 2.10694L7.82932 2.19778C8.36926 2.28453 8.92056 2.13681 9.34478 1.79172L9.78898 1.43036ZM11 2.91905L11.4442 3.2804C12.2926 3.97059 13.3952 4.26603 14.4751 4.09253L15.0405 4.00169L15.2445 4.53674C15.6342 5.55868 16.4413 6.36583 17.4633 6.75551L17.9983 6.95953L17.9075 7.52489C17.734 8.60476 18.0294 9.70736 18.7196 10.5558L19.0809 11L18.7196 11.4442C18.0294 12.2926 17.734 13.3952 17.9075 14.4751L17.9983 15.0405L17.4633 15.2445C16.4413 15.6342 15.6342 16.4413 15.2445 17.4633L15.0405 17.9983L14.4751 17.9075C13.3952 17.734 12.2926 18.0294 11.4442 18.7196L11 19.0809L10.5558 18.7196C9.70736 18.0294 8.60476 17.734 7.52489 17.9075L6.95953 17.9983L6.75551 17.4633C6.36583 16.4413 5.55868 15.6342 4.53674 15.2445L4.00169 15.0405L4.09253 14.4751C4.26603 13.3952 3.97059 12.2926 3.2804 11.4442L2.91905 11L3.2804 10.5558C3.97059 9.70736 4.26603 8.60476 4.09253 7.52489L4.00169 6.95953L4.53674 6.75551C5.55868 6.36583 6.36583 5.55868 6.75551 4.53674L6.95953 4.00169L7.52489 4.09253C8.60476 4.26603 9.70736 3.97059 10.5558 3.2804L11 2.91905Z" fill="#97A3BA"/>
</svg>
