<svg width="22" height="22" viewBox="0 0 22 22" fill="none" xmlns="http://www.w3.org/2000/svg">
<path fill-rule="evenodd" clip-rule="evenodd" d="M11 5C9.81331 5 8.65328 5.35189 7.66658 6.01118C6.67989 6.67047 5.91085 7.60754 5.45673 8.7039C5.0026 9.80025 4.88378 11.0067 5.11529 12.1705C5.3468 13.3344 5.91825 14.4035 6.75736 15.2426C7.59648 16.0818 8.66557 16.6532 9.82946 16.8847C10.9933 17.1162 12.1997 16.9974 13.2961 16.5433C14.3925 16.0891 15.3295 15.3201 15.9888 14.3334C16.6481 13.3467 17 12.1867 17 11C17 10.2121 16.8448 9.43185 16.5433 8.7039C16.2417 7.97594 15.7998 7.31451 15.2426 6.75736C14.6855 6.20021 14.0241 5.75825 13.2961 5.45672C12.5681 5.15519 11.7879 5 11 5ZM11 9C11.5523 9 12 8.55228 12 8C12 7.44772 11.5523 7 11 7C10.4477 7 10 7.44772 10 8C10 8.55228 10.4477 9 11 9ZM10.2929 10.2929C10.4804 10.1054 10.7348 10 11 10C11.2652 10 11.5196 10.1054 11.7071 10.2929C11.8946 10.4804 12 10.7348 12 11V14C12 14.2652 11.8946 14.5196 11.7071 14.7071C11.5196 14.8946 11.2652 15 11 15C10.7348 15 10.4804 14.8946 10.2929 14.7071C10.1054 14.5196 10 14.2652 10 14V11C10 10.7348 10.1054 10.4804 10.2929 10.2929Z" fill="#97A3BA"/>
</svg>
