<svg width="22" height="22" viewBox="0 0 22 22" fill="none" xmlns="http://www.w3.org/2000/svg">
<path fill-rule="evenodd" clip-rule="evenodd" d="M9.78898 1.43036C10.4944 0.856545 11.5056 0.856545 12.211 1.43036L12.6552 1.79172C13.0794 2.13681 13.6307 2.28453 14.1707 2.19778L14.736 2.10694C15.6338 1.96269 16.5096 2.46833 16.8336 3.31796L17.0376 3.85301C17.2324 4.36398 17.636 4.76755 18.147 4.96239L18.682 5.16641C19.5317 5.49038 20.0373 6.36616 19.8931 7.26396L19.8022 7.82932C19.7155 8.36926 19.8632 8.92056 20.2083 9.34478L20.5696 9.78898C21.1435 10.4944 21.1435 11.5056 20.5696 12.211L20.2083 12.6552C19.8632 13.0794 19.7155 13.6307 19.8022 14.1707L19.8931 14.736C20.0373 15.6338 19.5317 16.5096 18.682 16.8336L18.147 17.0376C17.636 17.2324 17.2324 17.636 17.0376 18.147L16.8336 18.682C16.5096 19.5317 15.6338 20.0373 14.736 19.8931L14.1707 19.8022C13.6307 19.7155 13.0794 19.8632 12.6552 20.2083L12.211 20.5696C11.5056 21.1435 10.4944 21.1435 9.78898 20.5696L9.34478 20.2083C8.92056 19.8632 8.36926 19.7155 7.82932 19.8022L7.26396 19.8931C6.36616 20.0373 5.49038 19.5317 5.16641 18.682L4.96239 18.147C4.76755 17.636 4.36398 17.2324 3.85301 17.0376L3.31796 16.8336C2.46833 16.5096 1.96269 15.6338 2.10694 14.736L2.19778 14.1707C2.28453 13.6307 2.13681 13.0794 1.79172 12.6552L1.43036 12.211C0.856545 11.5056 0.856545 10.4944 1.43036 9.78898L1.79172 9.34478C2.13681 8.92056 2.28453 8.36926 2.19778 7.82932L2.10694 7.26396C1.96269 6.36616 2.46833 5.49038 3.31796 5.16641L3.85301 4.96239C4.36398 4.76755 4.76755 4.36398 4.96239 3.85301L5.16641 3.31796C5.49038 2.46833 6.36616 1.96269 7.26396 2.10694L7.82932 2.19778C8.36926 2.28453 8.92056 2.13681 9.34478 1.79172L9.78898 1.43036ZM11 6C10.7348 6 10.4804 6.10536 10.2929 6.29289C10.1054 6.48043 10 6.73478 10 7V12C10 12.2652 10.1054 12.5196 10.2929 12.7071C10.4804 12.8946 10.7348 13 11 13C11.2652 13 11.5196 12.8946 11.7071 12.7071C11.8946 12.5196 12 12.2652 12 12V7C12 6.73478 11.8946 6.48043 11.7071 6.29289C11.5196 6.10536 11.2652 6 11 6ZM10 15C10 15.5523 10.4477 16 11 16C11.5523 16 12 15.5523 12 15C12 14.4477 11.5523 14 11 14C10.4477 14 10 14.4477 10 15Z" fill="#97A3BA"/>
</svg>
