<svg width="24" height="24" viewBox="0 0 24 24" fill="none" xmlns="http://www.w3.org/2000/svg">
<path fill-rule="evenodd" clip-rule="evenodd" d="M14.7071 12.293C15.0976 12.6836 15.0976 13.3167 14.7071 13.7073L13.4142 15.0002L14.7071 16.293C15.0976 16.6836 15.0976 17.3167 14.7071 17.7073C14.3166 18.0978 13.6834 18.0978 13.2929 17.7073L12 16.4144L10.7071 17.7073C10.3166 18.0978 9.68342 18.0978 9.29289 17.7073C8.90237 17.3167 8.90237 16.6836 9.29289 16.293L10.5858 15.0002L9.29289 13.7073C8.90237 13.3167 8.90237 12.6836 9.29289 12.293C9.68342 11.9025 10.3166 11.9025 10.7071 12.293L12 13.5859L13.2929 12.293C13.6834 11.9025 14.3166 11.9025 14.7071 12.293Z" fill="#777B92"/>
<path fill-rule="evenodd" clip-rule="evenodd" d="M13.7308 2.99402L22.9964 18.9982C23.7683 20.3315 22.8062 22.0002 21.2655 22.0002H2.73444C1.19378 22.0002 0.231653 20.3315 1.00358 18.9982L10.2691 2.99402C11.0395 1.66346 12.9605 1.66344 13.7308 2.99402ZM12 3.9961L2.73444 20.0002L21.2655 20.0002L12 3.9961Z" fill="#777B92"/>
</svg>
