<svg width="22" height="22" viewBox="0 0 22 22" fill="none" xmlns="http://www.w3.org/2000/svg">
<path d="M10 15C10 15.5523 10.4477 16 11 16C11.5523 16 12 15.5523 12 15C12 14.4477 11.5523 14 11 14C10.4477 14 10 14.4477 10 15Z" fill="#97A3BA"/>
<path d="M10.2929 6.29289C10.4804 6.10536 10.7348 6 11 6C11.2652 6 11.5196 6.10536 11.7071 6.29289C11.8946 6.48043 12 6.73478 12 7V12C12 12.2652 11.8946 12.5196 11.7071 12.7071C11.5196 12.8946 11.2652 13 11 13C10.7348 13 10.4804 12.8946 10.2929 12.7071C10.1054 12.5196 10 12.2652 10 12V7C10 6.73478 10.1054 6.48043 10.2929 6.29289Z" fill="#97A3BA"/>
<path fill-rule="evenodd" clip-rule="evenodd" d="M7 1L1 7V15L7 21H15L21 15V7L15 1H7ZM3 7.82843V14.1716L7.82843 19H14.1716L19 14.1716V7.82843L14.1716 3H7.82843L3 7.82843Z" fill="#97A3BA"/>
</svg>
