<svg width="22" height="22" viewBox="0 0 22 22" fill="none" xmlns="http://www.w3.org/2000/svg">
<path d="M10.6641 9H12V16H10.5788V10.4048H10.5394L9 11.4097V10.0972L10.6641 9Z" fill="#97A3BA"/>
<path fill-rule="evenodd" clip-rule="evenodd" d="M13.886 2.58262L21.5607 15.3026C21.8393 15.7589 21.9908 16.2814 21.9996 16.8158C22.0084 17.3503 21.8741 17.8774 21.6107 18.3426C21.3098 18.8534 20.8793 19.2759 20.3628 19.5674C19.8463 19.8588 19.262 20.0089 18.6689 20.0026H3.31945C2.72241 20.0049 2.13546 19.8487 1.6186 19.55C1.10174 19.2514 0.673499 18.8209 0.377637 18.3026C0.121735 17.8422 -0.00836545 17.3225 0.000416937 16.7959C0.00919932 16.2693 0.156555 15.7543 0.427668 15.3026L8.1024 2.58262C8.41273 2.09744 8.8403 1.69815 9.34568 1.42156C9.85106 1.14498 10.418 1 10.9942 1C11.5704 1 12.1373 1.14498 12.6427 1.42156C13.1481 1.69815 13.5756 2.09744 13.886 2.58262ZM19.355 17.8436C19.5649 17.729 19.7394 17.5592 19.8596 17.3526C19.9478 17.1985 19.9934 17.0238 19.9916 16.8463C19.9898 16.6688 19.9408 16.4949 19.8496 16.3426L12.1749 3.62262C12.0368 3.44033 11.8583 3.29249 11.6535 3.1907C11.4486 3.08891 11.223 3.03593 10.9942 3.03593C10.7654 3.03593 10.5397 3.08891 10.3349 3.1907C10.13 3.29249 9.95154 3.44033 9.81345 3.62262L2.12872 16.3526C2.04089 16.5046 1.99466 16.6771 1.99466 16.8526C1.99466 17.0282 2.04089 17.2006 2.12872 17.3526C2.24898 17.5592 2.4235 17.729 2.63339 17.8436C2.84327 17.9581 3.08052 18.0131 3.31945 18.0026H18.6689C18.9078 18.0131 19.1451 17.9581 19.355 17.8436Z" fill="#97A3BA"/>
</svg>
