<svg width="22" height="22" viewBox="0 0 22 22" fill="none" xmlns="http://www.w3.org/2000/svg">
<path d="M18.27 3.68C18.0417 3.51551 17.7779 3.40715 17.4999 3.36372C17.2219 3.32028 16.9376 3.34299 16.67 3.43C15.9642 3.62849 15.2331 3.72281 14.5 3.71C13.4166 3.65119 12.3543 3.38647 11.37 2.93C10.154 2.36763 8.83875 2.05156 7.50002 2C4.61002 2 3.50002 3 3.30002 3.14C3.20433 3.23379 3.12846 3.34586 3.07692 3.46954C3.02539 3.59323 2.99923 3.72601 3.00002 3.86V19C3.00002 19.2652 3.10537 19.5196 3.29291 19.7071C3.48045 19.8946 3.7348 20 4.00002 20C4.26523 20 4.51959 19.8946 4.70712 19.7071C4.89466 19.5196 5.00002 19.2652 5.00002 19V14.7C5.79685 14.3949 6.64748 14.2554 7.50002 14.29C8.58343 14.3488 9.64571 14.6135 10.63 15.07C11.846 15.6324 13.1613 15.9484 14.5 16C15.7055 16.0455 16.9047 15.8057 18 15.3C18.2952 15.1613 18.5455 14.9425 18.7223 14.6684C18.8991 14.3944 18.9954 14.0761 19 13.75V5.11C18.9997 4.83097 18.9333 4.55598 18.8065 4.30747C18.6796 4.05895 18.4958 3.84395 18.27 3.68V3.68ZM17 13.59C16.2029 13.894 15.3525 14.0335 14.5 14C13.4153 13.9425 12.3521 13.6742 11.37 13.21C10.1517 12.6558 8.8374 12.3433 7.50002 12.29C6.65752 12.2755 5.81682 12.373 5.00002 12.58V4.42C5.79498 4.10734 6.64652 3.96428 7.50002 4C8.58477 4.05748 9.64792 4.32582 10.63 4.79C11.8483 5.34425 13.1626 5.6567 14.5 5.71C15.343 5.72245 16.1839 5.62154 17 5.41V13.59Z" fill="#97A3BA"/>
</svg>
