<svg width="24" height="24" viewBox="0 0 24 24" fill="none" xmlns="http://www.w3.org/2000/svg">
<path fill-rule="evenodd" clip-rule="evenodd" d="M12 8C12.5523 8 13 8.44772 13 9V13C13 13.5523 12.5523 14 12 14C11.4477 14 11 13.5523 11 13V9C11 8.44772 11.4477 8 12 8Z" fill="#777B92"/>
<path fill-rule="evenodd" clip-rule="evenodd" d="M12 17C11.4477 17 11 16.5523 11 16C11 15.4477 11.4477 15 12 15C12.5523 15 13 15.4477 13 16C13 16.5523 12.5523 17 12 17Z" fill="#777B92"/>
<path fill-rule="evenodd" clip-rule="evenodd" d="M2 4C2 2.89543 2.89543 2 4 2H20C21.1046 2 22 2.89543 22 4V20C22 21.1046 21.1046 22 20 22H4C2.89543 22 2 21.1046 2 20V4ZM20 4L4 4V20H20V4Z" fill="#777B92"/>
</svg>
