<svg width="24" height="24" viewBox="0 0 24 24" fill="none" xmlns="http://www.w3.org/2000/svg">
<path fill-rule="evenodd" clip-rule="evenodd" d="M12 2C15.866 2 19 5.13401 19 9V13.6972L19.7956 14.8906C20.6817 16.2197 19.7289 18 18.1315 18H16C16 20.2091 14.2091 22 12 22C9.79086 22 8 20.2091 8 18H5.86854C4.27115 18 3.31836 16.2197 4.20444 14.8906L5.00002 13.6972V9C5.00002 5.13401 8.13403 2 12 2ZM14 18H10C10 19.1046 10.8954 20 12 20C13.1046 20 14 19.1046 14 18ZM7.00002 9V13.6972C7.00002 14.0921 6.88314 14.4781 6.66412 14.8066L5.86854 16L18.1315 16L17.3359 14.8066C17.1169 14.4781 17 14.0921 17 13.6972V9C17 6.23858 14.7614 4 12 4C9.2386 4 7.00002 6.23858 7.00002 9Z" fill="#777B92"/>
</svg>
