<svg width="22" height="22" viewBox="0 0 22 22" fill="none" xmlns="http://www.w3.org/2000/svg">
<path fill-rule="evenodd" clip-rule="evenodd" d="M21.5607 15.3026L13.886 2.58262C13.5756 2.09744 13.1481 1.69815 12.6427 1.42156C12.1373 1.14498 11.5704 1 10.9942 1C10.418 1 9.85106 1.14498 9.34568 1.42156C8.8403 1.69815 8.41273 2.09744 8.1024 2.58262L0.427668 15.3026C0.156555 15.7543 0.00919932 16.2693 0.000416937 16.7959C-0.00836545 17.3225 0.121735 17.8422 0.377637 18.3026C0.673499 18.8209 1.10174 19.2514 1.6186 19.55C2.13546 19.8487 2.72241 20.0049 3.31945 20.0026H18.6689C19.262 20.0089 19.8463 19.8588 20.3628 19.5674C20.8793 19.2759 21.3098 18.8534 21.6107 18.3426C21.8741 17.8774 22.0084 17.3503 21.9996 16.8158C21.9908 16.2814 21.8393 15.7589 21.5607 15.3026ZM11 7C11.5523 7 12 7.44772 12 8C12 8.55228 11.5523 9 11 9C10.4477 9 10 8.55228 10 8C10 7.44772 10.4477 7 11 7ZM10.2929 15.7071C10.4804 15.8946 10.7348 16 11 16C11.2652 16 11.5196 15.8946 11.7071 15.7071C11.8946 15.5196 12 15.2652 12 15V11C12 10.7348 11.8946 10.4804 11.7071 10.2929C11.5196 10.1054 11.2652 10 11 10C10.7348 10 10.4804 10.1054 10.2929 10.2929C10.1054 10.4804 10 10.7348 10 11V15C10 15.2652 10.1054 15.5196 10.2929 15.7071Z" fill="#97A3BA"/>
</svg>
