<svg width="24" height="24" viewBox="0 0 24 24" fill="none" xmlns="http://www.w3.org/2000/svg">
<path fill-rule="evenodd" clip-rule="evenodd" d="M13.7308 1.99402L22.9964 17.9982C23.7683 19.3315 22.8062 21.0002 21.2655 21.0002H2.73444C1.19378 21.0002 0.231653 19.3315 1.00358 17.9982L10.2691 1.99402C11.0395 0.663458 12.9605 0.663445 13.7308 1.99402ZM13 9.00023C13 8.44795 12.5523 8.00023 12 8.00023C11.4477 8.00023 11 8.44795 11 9.00023V13.0002C11 13.5525 11.4477 14.0002 12 14.0002C12.5523 14.0002 13 13.5525 13 13.0002V9.00023ZM12 17.0002C12.5523 17.0002 13 16.5525 13 16.0002C13 15.4479 12.5523 15.0002 12 15.0002C11.4477 15.0002 11 15.4479 11 16.0002C11 16.5525 11.4477 17.0002 12 17.0002Z" fill="#777B92"/>
</svg>
