<svg width="22" height="22" viewBox="0 0 22 22" fill="none" xmlns="http://www.w3.org/2000/svg">
<path d="M18.27 3.68C18.0417 3.51551 17.7779 3.40715 17.4999 3.36372C17.2219 3.32028 16.9376 3.34299 16.67 3.43C15.9641 3.62849 15.2331 3.72281 14.5 3.71C13.4166 3.65119 12.3543 3.38647 11.37 2.93C10.154 2.36763 8.83872 2.05156 7.49999 2C4.60999 2 3.49999 3 3.29999 3.14C3.20429 3.23379 3.12843 3.34586 3.07689 3.46954C3.02536 3.59323 2.9992 3.72601 2.99999 3.86V19C2.99999 19.2652 3.10534 19.5196 3.29288 19.7071C3.48042 19.8946 3.73477 20 3.99999 20C4.2652 20 4.51956 19.8946 4.70709 19.7071C4.89463 19.5196 4.99999 19.2652 4.99999 19V14.7C5.79681 14.3949 6.64745 14.2554 7.49999 14.29C8.5834 14.3488 9.64568 14.6135 10.63 15.07C11.846 15.6324 13.1613 15.9484 14.5 16C15.7055 16.0455 16.9047 15.8057 18 15.3C18.2952 15.1613 18.5455 14.9425 18.7223 14.6684C18.8991 14.3944 18.9953 14.0761 19 13.75V5.11C18.9996 4.83097 18.9333 4.55598 18.8065 4.30747C18.6796 4.05895 18.4958 3.84395 18.27 3.68Z" fill="#97A3BA"/>
</svg>
