<svg width="22" height="22" viewBox="0 0 22 22" fill="none" xmlns="http://www.w3.org/2000/svg">
<path d="M14.5355 4.46447C15.4732 5.40215 16 6.67392 16 8C16.0002 9.15265 15.6022 10.27 14.8733 11.1629C14.1444 12.0558 13.1294 12.6695 12 12.9V14C12 14.2652 11.8946 14.5196 11.7071 14.7071C11.5196 14.8946 11.2652 15 11 15C10.7348 15 10.4804 14.8946 10.2929 14.7071C10.1054 14.5196 10 14.2652 10 14V12C10 11.7348 10.1054 11.4804 10.2929 11.2929C10.4804 11.1054 10.7348 11 11 11C11.5933 11 12.1734 10.8241 12.6667 10.4944C13.1601 10.1648 13.5446 9.69623 13.7716 9.14805C13.9987 8.59987 14.0581 7.99667 13.9424 7.41473C13.8266 6.83279 13.5409 6.29824 13.1213 5.87868C12.7018 5.45912 12.1672 5.1734 11.5853 5.05764C11.0033 4.94189 10.4001 5.0013 9.85195 5.22836C9.30377 5.45542 8.83524 5.83994 8.50559 6.33329C8.17595 6.82664 8 7.40666 8 8C8 8.26522 7.89464 8.51957 7.70711 8.70711C7.51957 8.89464 7.26522 9 7 9C6.73478 9 6.48043 8.89464 6.29289 8.70711C6.10536 8.51957 6 8.26522 6 8C6 6.67392 6.52678 5.40215 7.46447 4.46447C8.40215 3.52678 9.67392 3 11 3C12.3261 3 13.5979 3.52678 14.5355 4.46447Z" fill="#97A3BA"/>
<path d="M12 18C12 18.5523 11.5523 19 11 19C10.4477 19 10 18.5523 10 18C10 17.4477 10.4477 17 11 17C11.5523 17 12 17.4477 12 18Z" fill="#97A3BA"/>
</svg>
