<svg width="24" height="24" viewBox="0 0 24 24" fill="none" xmlns="http://www.w3.org/2000/svg">
<path fill-rule="evenodd" clip-rule="evenodd" d="M13 18C13 18.5523 12.5523 19 12 19C11.4477 19 11 18.5523 11 18C11 17.4477 11.4477 17 12 17C12.5523 17 13 17.4477 13 18Z" fill="#777B92"/>
<path fill-rule="evenodd" clip-rule="evenodd" d="M10 10C10 10.5523 9.55229 11 9 11C8.44772 11 8 10.5523 8 10C8 7.79086 9.79086 6 12 6C14.2091 6 16 7.79086 16 10C16 11.7522 14.874 13.2388 13.3091 13.7806C13.186 13.8232 13.0903 13.8901 13.0372 13.9489C13.0114 13.9774 13.0026 13.9952 13 14.0027V15C13 15.5523 12.5523 16 12 16C11.4477 16 11 15.5523 11 15V14C11 12.8475 11.9238 12.1437 12.6547 11.8907C13.4391 11.6191 14 10.8738 14 10C14 8.89543 13.1046 8 12 8C10.8954 8 10 8.89543 10 10Z" fill="#777B92"/>
<path fill-rule="evenodd" clip-rule="evenodd" d="M1 12C1 5.92487 5.92487 1 12 1C18.0751 1 23 5.92487 23 12C23 18.0751 18.0751 23 12 23C5.92487 23 1 18.0751 1 12ZM12 3C7.02944 3 3 7.02944 3 12C3 16.9706 7.02944 21 12 21C16.9706 21 21 16.9706 21 12C21 7.02944 16.9706 3 12 3Z" fill="#777B92"/>
</svg>
