<?xml version="1.0" standalone="no"?>
<!DOCTYPE svg PUBLIC "-//W3C//DTD SVG 1.1//EN" "http://www.w3.org/Graphics/SVG/1.1/DTD/svg11.dtd" >
<svg xmlns="http://www.w3.org/2000/svg">
<defs>
  <font id="prizm-icons-full" horiz-adv-x="17">
    <font-face font-family="prizm-icons-full"
      units-per-em="17" ascent="17"
      descent="0" />
    <missing-glyph horiz-adv-x="0" />
    <glyph glyph-name="agenda-fill"
      unicode="&#xEA01;"
      horiz-adv-x="16" d="M1 15.5C0.723858 15.5 0.5 15.276142 0.5 15V9C0.5 8.72386 0.723858 8.5 1 8.5H15C15.2761 8.5 15.5 8.72386 15.5 9V15C15.5 15.276142 15.2761 15.5 15 15.5H1zM0.5 7C0.5 7.27614 0.723858 7.5 1 7.5H15C15.2761 7.5 15.5 7.27614 15.5 7V1C15.5 0.7239 15.2761 0.5 15 0.5H1C0.723858 0.5 0.5 0.7239 0.5 1V7zM0 16H16V0H0V16z" />
    <glyph glyph-name="airplane-side-view"
      unicode="&#xEA02;"
      horiz-adv-x="16" d="M11.3333 14.5C11.1555 14.5 10.9911 14.40554 10.9015 14.25194L8.71283 10.5H3.57789L2.17246 12.30697C2.07773 12.42876 1.93208 12.5 1.77778 12.5H1C0.851457 12.5 0.710601 12.43395 0.615606 12.31975C0.520611 12.20555 0.481314 12.05502 0.508363 11.90895L1.12765 8.56489C1.26008 7.84974 1.80275 7.28051 2.51075 7.11405L6.49645 6.17701L4.55131 2.2206C4.47512 2.0656 4.48429 1.8823 4.57558 1.7357C4.66686 1.5891 4.82733 1.5 5.00002 1.5H6.55557C6.6875 1.5 6.81409 1.5521 6.90774 1.6451L11.3171 6.02001H14.3522C14.9861 6.02001 15.5 6.53391 15.5 7.16783C15.5 8.99404 14.0309 10.47712 12.2101 10.49974L12.4983 13.95848C12.5099 14.09782 12.4626 14.23566 12.368 14.33856C12.2733 14.44145 12.1398 14.5 12 14.5H11.3333zM11.662 9.5C11.6655 9.49996 11.669 9.49996 11.6725 9.5H12.1678C13.4559 9.5 14.5 8.45585 14.5 7.16783C14.5 7.08619 14.4338 7.02001 14.3522 7.02001H11.1111C10.9792 7.02001 10.8526 6.96786 10.759 6.87494L6.34961 2.5H5.803L7.67094 6.2994C7.73814 6.43608 7.73938 6.59594 7.6743 6.73364C7.60923 6.87134 7.48493 6.97188 7.33667 7.00673L2.73961 8.08751C2.41779 8.16317 2.17113 8.42192 2.11093 8.74698L1.62231 11.38549L2.93868 9.69303C3.0334 9.57124 3.17906 9.5 3.33335 9.5H8.99053C8.99654 9.49989 9.00256 9.49989 9.00856 9.5H11.662zM11.2066 10.5L11.4293 13.17218L9.87053 10.5H11.2066z" />
    <glyph glyph-name="airplane-top-view"
      unicode="&#xEA03;"
      horiz-adv-x="16" d="M7.64645 15.353553C7.84171 15.548816 8.15829 15.548816 8.35355 15.353553L10.3536 13.35355C10.4473 13.25979 10.5 13.13261 10.5 13V11.15139L14.416 5.2773C14.4708 5.1952 14.5 5.0987 14.5 5V2C14.5 1.8106 14.393 1.6375 14.2236 1.5528C14.0542 1.4681 13.8515 1.4864 13.7 1.6L10.5 4V1C10.5 0.7239 10.2761 0.5 10 0.5H6C5.72386 0.5 5.5 0.7239 5.5 1V4L2.3 1.6C2.14849 1.4864 1.94579 1.4681 1.77639 1.5528C1.607 1.6375 1.5 1.8106 1.5 2V5C1.5 5.0987 1.52922 5.1952 1.58397 5.2773L5.5 11.15139V13C5.5 13.13261 5.55268 13.25979 5.64645 13.35355L7.64645 15.353553zM9.5 5.0058C9.49996 5.0022 9.49996 4.9986 9.5 4.995V1.5H6.5V4.9949V5.0058V10.99224V11.00684V12.79289L8 14.29289L9.5 12.79289V11.00684C9.49993 11.00198 9.49993 10.99711 9.5 10.99224V5.0058zM10.5 5.25L13.5 3V4.8486L10.5 9.34861V5.25zM5.5 5.25V9.34861L2.5 4.8486V3L5.5 5.25z" />
    <glyph glyph-name="alarm-clock"
      unicode="&#xEA04;"
      horiz-adv-x="16" d="M10.5528 15.223619C10.6763 15.470609 10.9766 15.570721 11.2236 15.447226L13.2236 14.44723C13.4706 14.32373 13.5707 14.0234 13.4472 13.77641C13.3237 13.52942 13.0234 13.4293 12.7764 13.5528L10.7764 14.5528C10.5294 14.67629 10.4293 14.97663 10.5528 15.223619zM2.5 7.00001C2.5 10.03758 4.96243 12.50001 8 12.50001C11.0376 12.50001 13.5 10.03758 13.5 7.00001C13.5 3.9624 11.0376 1.5 8 1.5C4.96243 1.5 2.5 3.9624 2.5 7.00001zM8 13.50001C4.41015 13.50001 1.5 10.58986 1.5 7.00001C1.5 3.4102 4.41015 0.5 8 0.5C11.5899 0.5 14.5 3.4102 14.5 7.00001C14.5 10.58986 11.5899 13.50001 8 13.50001zM8.5 10.00001C8.5 10.27615 8.27614 10.50001 8 10.50001C7.72386 10.50001 7.5 10.27615 7.5 10.00001V7.00001C7.5 6.72387 7.72386 6.50001 8 6.50001H11C11.2761 6.50001 11.5 6.72387 11.5 7.00001C11.5 7.27615 11.2761 7.50001 11 7.50001H8.5V10.00001zM5.22361 14.5528C5.4706 14.67629 5.57071 14.97663 5.44721 15.223619C5.32372 15.470609 5.02338 15.570721 4.77639 15.447226L2.77639 14.44723C2.5294 14.32373 2.42929 14.0234 2.55279 13.77641C2.67628 13.52942 2.97662 13.4293 3.22361 13.5528L5.22361 14.5528z" />
    <glyph glyph-name="alarm-plus"
      unicode="&#xEA05;"
      horiz-adv-x="16" d="M10.5528 15.223619C10.6763 15.470609 10.9766 15.570721 11.2236 15.447226L13.2236 14.44723C13.4706 14.32373 13.5707 14.0234 13.4472 13.77641C13.3237 13.52942 13.0234 13.4293 12.7764 13.5528L10.7764 14.5528C10.5294 14.67629 10.4293 14.97663 10.5528 15.223619zM8 12.50001C4.96243 12.50001 2.5 10.03758 2.5 7.00001C2.5 3.9624 4.96243 1.5 8 1.5C11.0376 1.5 13.5 3.9624 13.5 7.00001C13.5 10.03758 11.0376 12.50001 8 12.50001zM1.5 7.00001C1.5 10.58986 4.41015 13.50001 8 13.50001C11.5899 13.50001 14.5 10.58986 14.5 7.00001C14.5 3.4102 11.5899 0.5 8 0.5C4.41015 0.5 1.5 3.4102 1.5 7.00001zM8 9.50001C8.27614 9.50001 8.5 9.27615 8.5 9.00001V7.50001H10C10.2761 7.50001 10.5 7.27615 10.5 7.00001C10.5 6.72387 10.2761 6.50001 10 6.50001H8.5V5C8.5 4.7239 8.27614 4.5 8 4.5C7.72386 4.5 7.5 4.7239 7.5 5V6.50001H6C5.72386 6.50001 5.5 6.72387 5.5 7.00001C5.5 7.27615 5.72386 7.50001 6 7.50001H7.5V9.00001C7.5 9.27615 7.72386 9.50001 8 9.50001zM5.22361 14.5528C5.4706 14.67629 5.57071 14.97663 5.44721 15.223619C5.32372 15.470609 5.02338 15.570721 4.77639 15.447226L2.77639 14.44723C2.5294 14.32373 2.42929 14.0234 2.55279 13.77641C2.67628 13.52942 2.97662 13.4293 3.22361 13.5528L5.22361 14.5528z" />
    <glyph glyph-name="align-bottom"
      unicode="&#xEA06;"
      horiz-adv-x="16" d="M8.5 15C8.5 15.276141 8.27614 15.499999 8 15.499999C7.72386 15.499999 7.5 15.276141 7.5 15V5.2071L5.35355 7.35355C5.15829 7.54881 4.84171 7.54881 4.64645 7.35355C4.45118 7.15829 4.45118 6.84171 4.64645 6.64644L7.64645 3.6464C7.84171 3.4512 8.15829 3.4512 8.35355 3.6464L11.3536 6.64644C11.5488 6.84171 11.5488 7.15829 11.3536 7.35355C11.1583 7.54881 10.8417 7.54881 10.6464 7.35355L8.5 5.2071V15zM2 1.5C1.72386 1.5 1.5 1.2761 1.5 1C1.5 0.7239 1.72386 0.5 2 0.5H14C14.2761 0.5 14.5 0.7239 14.5 1C14.5 1.2761 14.2761 1.5 14 1.5H2zM0 16H16V0H0V16z" />
    <glyph glyph-name="align-center-h"
      unicode="&#xEA07;"
      horiz-adv-x="16" d="M8 15.499999C8.27614 15.499999 8.5 15.276141 8.5 15V11.20711L9.64645 12.35355C9.84171 12.54881 10.1583 12.54881 10.3536 12.35355C10.5488 12.15829 10.5488 11.84171 10.3536 11.64645L8.35355 9.64645C8.15829 9.45118 7.84171 9.45118 7.64645 9.64645L5.64645 11.64645C5.45118 11.84171 5.45118 12.15829 5.64645 12.35355C5.84171 12.54881 6.15829 12.54881 6.35355 12.35355L7.5 11.20711V15C7.5 15.276141 7.72386 15.499999 8 15.499999zM1.5 8C1.5 8.27614 1.72386 8.5 2 8.5H14C14.2761 8.5 14.5 8.27614 14.5 8C14.5 7.72386 14.2761 7.5 14 7.5H2C1.72386 7.5 1.5 7.72386 1.5 8zM8.5 4.7929V1C8.5 0.7239 8.27614 0.5 8 0.5C7.72386 0.5 7.5 0.7239 7.5 1V4.7929L6.35355 3.6464C6.15829 3.4512 5.84171 3.4512 5.64645 3.6464C5.45118 3.8417 5.45118 4.1583 5.64645 4.3536L7.64645 6.35355C7.84171 6.54881 8.15829 6.54881 8.35355 6.35355L10.3536 4.3536C10.5488 4.1583 10.5488 3.8417 10.3536 3.6464C10.1583 3.4512 9.84171 3.4512 9.64645 3.6464L8.5 4.7929zM0 16H16V0H0V16z" />
    <glyph glyph-name="align-center-v"
      unicode="&#xEA08;"
      horiz-adv-x="16" d="M15 8H10M10 8L12 10M10 8L12 6M1 8H6M6 8L4 10M6 8L4 6M8 15V1M0 16H16V0H0V16z" />
    <glyph glyph-name="align-center"
      unicode="&#xEA09;"
      horiz-adv-x="16" d="M1 14.5C0.723858 14.5 0.5 14.27614 0.5 14C0.5 13.72386 0.723858 13.5 1 13.5H15C15.2761 13.5 15.5 13.72386 15.5 14C15.5 14.27614 15.2761 14.5 15 14.5H1zM1 2.5C0.723858 2.5 0.5 2.2761 0.5 2C0.5 1.7239 0.723858 1.5 1 1.5H15C15.2761 1.5 15.5 1.7239 15.5 2C15.5 2.2761 15.2761 2.5 15 2.5H1zM3.5 10C3.5 10.27614 3.72386 10.5 4 10.5H12C12.2761 10.5 12.5 10.27614 12.5 10C12.5 9.72386 12.2761 9.5 12 9.5H4C3.72386 9.5 3.5 9.72386 3.5 10zM4 6.5C3.72386 6.5 3.5 6.27614 3.5 6C3.5 5.7239 3.72386 5.5 4 5.5H12C12.2761 5.5 12.5 5.7239 12.5 6C12.5 6.27614 12.2761 6.5 12 6.5H4z" />
    <glyph glyph-name="align-justify"
      unicode="&#xEA0A;"
      horiz-adv-x="16" d="M2 14.5C1.72386 14.5 1.5 14.27614 1.5 14C1.5 13.72386 1.72386 13.5 2 13.5H14C14.2761 13.5 14.5 13.72386 14.5 14C14.5 14.27614 14.2761 14.5 14 14.5H2zM2 10.5C1.72386 10.5 1.5 10.27614 1.5 10C1.5 9.72386 1.72386 9.5 2 9.5H14C14.2761 9.5 14.5 9.72386 14.5 10C14.5 10.27614 14.2761 10.5 14 10.5H2zM1.5 6C1.5 6.27614 1.72386 6.5 2 6.5H14C14.2761 6.5 14.5 6.27614 14.5 6C14.5 5.7239 14.2761 5.5 14 5.5H2C1.72386 5.5 1.5 5.7239 1.5 6zM2 2.5C1.72386 2.5 1.5 2.2761 1.5 2C1.5 1.7239 1.72386 1.5 2 1.5H14C14.2761 1.5 14.5 1.7239 14.5 2C14.5 2.2761 14.2761 2.5 14 2.5H2z" />
    <glyph glyph-name="align-left"
      unicode="&#xEA0B;"
      horiz-adv-x="16" d="M1 14.5C0.723858 14.5 0.5 14.27614 0.5 14C0.5 13.72386 0.723858 13.5 1 13.5H15C15.2761 13.5 15.5 13.72386 15.5 14C15.5 14.27614 15.2761 14.5 15 14.5H1zM1 10.5C0.723858 10.5 0.5 10.27614 0.5 10C0.5 9.72386 0.723858 9.5 1 9.5H9C9.27614 9.5 9.5 9.72386 9.5 10C9.5 10.27614 9.27614 10.5 9 10.5H1zM0.5 6C0.5 6.27614 0.723858 6.5 1 6.5H9C9.27614 6.5 9.5 6.27614 9.5 6C9.5 5.7239 9.27614 5.5 9 5.5H1C0.723858 5.5 0.5 5.7239 0.5 6zM1 2.5C0.723858 2.5 0.5 2.2761 0.5 2C0.5 1.7239 0.723858 1.5 1 1.5H15C15.2761 1.5 15.5 1.7239 15.5 2C15.5 2.2761 15.2761 2.5 15 2.5H1z" />
    <glyph glyph-name="align-right"
      unicode="&#xEA0C;"
      horiz-adv-x="16" d="M1 14.5C0.723858 14.5 0.5 14.27614 0.5 14C0.5 13.72386 0.723858 13.5 1 13.5H15C15.2761 13.5 15.5 13.72386 15.5 14C15.5 14.27614 15.2761 14.5 15 14.5H1zM7 10.5C6.72386 10.5 6.5 10.27614 6.5 10C6.5 9.72386 6.72386 9.5 7 9.5H15C15.2761 9.5 15.5 9.72386 15.5 10C15.5 10.27614 15.2761 10.5 15 10.5H7zM6.5 6C6.5 6.27614 6.72386 6.5 7 6.5H15C15.2761 6.5 15.5 6.27614 15.5 6C15.5 5.7239 15.2761 5.5 15 5.5H7C6.72386 5.5 6.5 5.7239 6.5 6zM1 2.5C0.723858 2.5 0.5 2.2761 0.5 2C0.5 1.7239 0.723858 1.5 1 1.5H15C15.2761 1.5 15.5 1.7239 15.5 2C15.5 2.2761 15.2761 2.5 15 2.5H1z" />
    <glyph glyph-name="align-top"
      unicode="&#xEA0D;"
      horiz-adv-x="16" d="M8.5 1C8.5 0.7239 8.27614 0.5 8 0.5C7.72386 0.5 7.5 0.7239 7.5 1L7.5 10.79289L5.35355 8.64644C5.15829 8.45118 4.84171 8.45118 4.64645 8.64644C4.45119 8.84171 4.45119 9.15829 4.64645 9.35355L7.64645 12.35355C7.84171 12.54881 8.15829 12.54881 8.35355 12.35355L11.3536 9.35355C11.5488 9.15829 11.5488 8.84171 11.3536 8.64644C11.1583 8.45118 10.8417 8.45118 10.6464 8.64644L8.5 10.79289L8.5 1zM2 15.499998C1.72386 15.499998 1.5 15.27614 1.5 15C1.5 14.72386 1.72386 14.5 2 14.5L14 14.5C14.2761 14.5 14.5 14.72386 14.5 15C14.5 15.27614 14.2761 15.499998 14 15.499998L2 15.499998zM16 0L0 0L0 16L16 16L16 0z" />
    <glyph glyph-name="ambulance-side-view"
      unicode="&#xEA0E;"
      horiz-adv-x="16" d="M0.5 13C0.5 13.82843 1.17157 14.5 2 14.5H10C10.8284 14.5 11.5 13.82843 11.5 13V11.25L14.9 8.7C15.2777 8.41672 15.5 7.97214 15.5 7.5V6C15.5 5.2473 14.9456 4.6241 14.2228 4.5164C14.3989 4.2186 14.5 3.8711 14.5 3.5C14.5 2.3954 13.6046 1.5 12.5 1.5C11.3954 1.5 10.5 2.3954 10.5 3.5C10.5 3.8827 10.6075 4.2403 10.794 4.5443C10.7388 4.5693 10.689 4.604 10.6467 4.6462C10.4509 4.5525 10.2316 4.5 10 4.5H5.23244C5.40261 4.2058 5.5 3.8643 5.5 3.5C5.5 2.3954 4.60457 1.5 3.5 1.5C2.39543 1.5 1.5 2.3954 1.5 3.5C1.5 3.8711 1.60107 4.2186 1.77718 4.5164C1.05442 4.6241 0.5 5.2473 0.5 6V13zM12.5 4.5C11.9477 4.5 11.5 4.0523 11.5 3.5C11.5 2.9477 11.9477 2.5 12.5 2.5C13.0523 2.5 13.5 2.9477 13.5 3.5C13.5 4.0523 13.0523 4.5 12.5 4.5zM12.5 5.5H14C14.2761 5.5 14.5 5.7239 14.5 6V7.5C14.5 7.65738 14.4259 7.80557 14.3 7.9L11.5 10V6C11.5 5.8247 11.4699 5.6564 11.4146 5.5H12.5zM10 5.5H3.5H2C1.72386 5.5 1.5 5.7239 1.5 6V13C1.5 13.27614 1.72386 13.5 2 13.5H10C10.2761 13.5 10.5 13.27614 10.5 13V11.00581V10.99496V6C10.5 5.7239 10.2761 5.5 10 5.5zM2.5 3.5C2.5 4.0523 2.94772 4.5 3.5 4.5C4.05228 4.5 4.5 4.0523 4.5 3.5C4.5 2.9477 4.05228 2.5 3.5 2.5C2.94772 2.5 2.5 2.9477 2.5 3.5zM6.5 11C6.5 11.27614 6.27614 11.5 6 11.5C5.72386 11.5 5.5 11.27614 5.5 11V9.5H4C3.72386 9.5 3.5 9.27614 3.5 9C3.5 8.72386 3.72386 8.5 4 8.5H5.5V7C5.5 6.72386 5.72386 6.5 6 6.5C6.27614 6.5 6.5 6.72386 6.5 7V8.5H8C8.27614 8.5 8.5 8.72386 8.5 9C8.5 9.27614 8.27614 9.5 8 9.5H6.5V11z" />
    <glyph glyph-name="android-pill"
      unicode="&#xEA0F;"
      horiz-adv-x="16" d="M3.64645 15.353553C3.84171 15.548816 4.15829 15.548816 4.35355 15.353553L6.35355 13.35355C6.39233 13.31477 6.42341 13.27121 6.44679 13.22475C6.93091 13.4028 7.45411 13.5 8 13.5C8.54589 13.5 9.06909 13.4028 9.55321 13.22475C9.57659 13.27121 9.60767 13.31477 9.64645 13.35355L11.6464 15.353553C11.8417 15.548816 12.1583 15.548816 12.3536 15.353553C12.5488 15.158291 12.5488 14.84171 12.3536 14.64645L10.4695 12.76244C11.6926 11.95803 12.5 10.57331 12.5 9V5C12.5 2.5147 10.4853 0.5 8 0.5C5.51472 0.5 3.5 2.5147 3.5 5V9C3.5 10.57331 4.3074 11.95803 5.53046 12.76244L3.64645 14.64645C3.45118 14.84171 3.45118 15.158291 3.64645 15.353553zM11.5 5.5V9C11.5 10.933 9.933 12.5 8 12.5C6.067 12.5 4.5 10.933 4.5 9V5.5H11.5zM11.4646 4.5C11.2219 2.8039 9.76324 1.5 8 1.5C6.23676 1.5 4.77806 2.8039 4.53544 4.5H11.4646zM7 9.5C7 9.22386 6.77614 9 6.5 9C6.22386 9 6 9.22386 6 9.5C6 9.77614 6.22386 10 6.5 10C6.77614 10 7 9.77614 7 9.5zM9.5 9C9.77614 9 10 9.22386 10 9.5C10 9.77614 9.77614 10 9.5 10C9.22386 10 9 9.77614 9 9.5C9 9.22386 9.22386 9 9.5 9z" />
    <glyph glyph-name="android"
      unicode="&#xEA10;"
      horiz-adv-x="16" d="M4.64645 15.353553C4.84171 15.548816 5.15829 15.548816 5.35355 15.353553L6.35355 14.35355C6.39233 14.31477 6.42341 14.27121 6.44679 14.22475C6.93091 14.4028 7.45411 14.5 8 14.5C8.54589 14.5 9.06909 14.4028 9.55321 14.22475C9.57659 14.27121 9.60767 14.31477 9.64645 14.35355L10.6464 15.353553C10.8417 15.548816 11.1583 15.548816 11.3536 15.353553C11.5488 15.158291 11.5488 14.84171 11.3536 14.64645L10.4695 13.76243C11.6926 12.95803 12.5 11.5733 12.5 10V7V4C12.5 3.1716 11.8284 2.5 11 2.5H5C4.17157 2.5 3.5 3.1716 3.5 4V7V10C3.5 11.57331 4.3074 12.95803 5.53046 13.76244L4.64645 14.64645C4.45118 14.84171 4.45118 15.158291 4.64645 15.353553zM11.5 7.5V10C11.5 11.933 9.933 13.5 8 13.5C6.067 13.5 4.5 11.933 4.5 10V7.5H11.5zM11.5 6.5V4C11.5 3.7239 11.2761 3.5 11 3.5H5C4.72386 3.5 4.5 3.7239 4.5 4V6.5H11.5zM4.5 1C4.5 1.2761 4.72386 1.5 5 1.5H7C7.27614 1.5 7.5 1.2761 7.5 1C7.5 0.7239 7.27614 0.5 7 0.5H5C4.72386 0.5 4.5 0.7239 4.5 1zM9 1.5C8.72386 1.5 8.5 1.2761 8.5 1C8.5 0.7239 8.72386 0.5 9 0.5H11C11.2761 0.5 11.5 0.7239 11.5 1C11.5 1.2761 11.2761 1.5 11 1.5H9zM14 10.5C14.2761 10.5 14.5 10.27614 14.5 10V6C14.5 5.7239 14.2761 5.5 14 5.5C13.7239 5.5 13.5 5.7239 13.5 6V10C13.5 10.27614 13.7239 10.5 14 10.5zM2.5 10C2.5 10.27614 2.27614 10.5 2 10.5C1.72386 10.5 1.5 10.27614 1.5 10V6C1.5 5.7239 1.72386 5.5 2 5.5C2.27614 5.5 2.5 5.7239 2.5 6V10zM7 10.5C7 10.22386 6.77614 10 6.5 10C6.22386 10 6 10.22386 6 10.5C6 10.77614 6.22386 11 6.5 11C6.77614 11 7 10.77614 7 10.5zM9.5 10C9.77614 10 10 10.22386 10 10.5C10 10.77614 9.77614 11 9.5 11C9.22386 11 9 10.77614 9 10.5C9 10.22386 9.22386 10 9.5 10z" />
    <glyph glyph-name="angle-left-right-arrows-down"
      unicode="&#xEA11;"
      horiz-adv-x="16" d="M5.31235 13.39043C5.52798 13.21793 5.56294 12.90328 5.39043 12.68765L1.64031 8L5.39043 3.3123C5.56294 3.0967 5.52798 2.7821 5.31235 2.6096C5.09672 2.4371 4.78207 2.472 4.60957 2.6876L0.609566 7.68765C0.463478 7.87026 0.463478 8.12973 0.609566 8.31234L4.60957 13.31234C4.78207 13.52798 5.09672 13.56294 5.31235 13.39043zM8 11.5C8.27614 11.5 8.5 11.27614 8.5 11V7.2071L9.64645 8.35355C9.84171 8.54881 10.1583 8.54881 10.3536 8.35355C10.5488 8.15829 10.5488 7.84171 10.3536 7.64644L8.35355 5.6464C8.15829 5.4512 7.84171 5.4512 7.64645 5.6464L5.64645 7.64644C5.45118 7.84171 5.45118 8.15829 5.64645 8.35355C5.84171 8.54881 6.15829 8.54881 6.35355 8.35355L7.5 7.2071V11C7.5 11.27614 7.72386 11.5 8 11.5zM11.3904 13.31234C11.2179 13.52798 10.9033 13.56294 10.6877 13.39043C10.472 13.21793 10.4371 12.90328 10.6096 12.68765L14.3597 8L10.6096 3.3123C10.4371 3.0967 10.472 2.7821 10.6877 2.6096C10.9033 2.4371 11.2179 2.472 11.3904 2.6876L15.3904 7.68765C15.5365 7.87026 15.5365 8.12973 15.3904 8.31234L11.3904 13.31234z" />
    <glyph glyph-name="angle-left-right"
      unicode="&#xEA12;"
      horiz-adv-x="16" d="M5.39043 12.68765C5.56294 12.90328 5.52798 13.21793 5.31235 13.39043C5.09672 13.56294 4.78207 13.52798 4.60957 13.31234L0.609566 8.31234C0.463478 8.12973 0.463478 7.87026 0.609566 7.68765L4.60957 2.6876C4.78207 2.472 5.09672 2.4371 5.31235 2.6096C5.52798 2.7821 5.56294 3.0967 5.39043 3.3123L1.64031 8L5.39043 12.68765zM11.3904 13.31234C11.2179 13.52798 10.9033 13.56294 10.6877 13.39043C10.472 13.21793 10.4371 12.90328 10.6096 12.68765L14.3597 8L10.6096 3.3123C10.4371 3.0967 10.472 2.7821 10.6877 2.6096C10.9033 2.4371 11.2179 2.472 11.3904 2.6876L15.3904 7.68765C15.5365 7.87026 15.5365 8.12973 15.3904 8.31234L11.3904 13.31234z" />
    <glyph glyph-name="arrange-send-to-back"
      unicode="&#xEA13;"
      horiz-adv-x="16" d="M2 15.5C1.17157 15.5 0.5 14.82843 0.5 14V10C0.5 9.17157 1.17157 8.5 2 8.5H6C6.82843 8.5 7.5 9.17157 7.5 10V14C7.5 14.82843 6.82843 15.5 6 15.5H2zM1.5 14C1.5 14.27614 1.72386 14.5 2 14.5H6C6.27614 14.5 6.5 14.27614 6.5 14V10C6.5 9.72386 6.27614 9.5 6 9.5H2C1.72386 9.5 1.5 9.72386 1.5 10V14zM10 7.5C9.17157 7.5 8.5 6.82843 8.5 6V2C8.5 1.1716 9.17157 0.5 10 0.5H14C14.8284 0.5 15.5 1.1716 15.5 2V6C15.5 6.82843 14.8284 7.5 14 7.5H10zM9.5 6C9.5 6.27614 9.72386 6.5 10 6.5H14C14.2761 6.5 14.5 6.27614 14.5 6V2C14.5 1.7239 14.2761 1.5 14 1.5H10C9.72386 1.5 9.5 1.7239 9.5 2V6zM11 10C11 9.44772 10.5523 9 10 9C9.44771 9 9 9.44772 9 10C9 10.55228 9.44771 11 10 11C10.5523 11 11 10.55228 11 10zM6 5C6.55228 5 7 5.4477 7 6C7 6.55229 6.55228 7 6 7C5.44772 7 5 6.55229 5 6C5 5.4477 5.44772 5 6 5zM0 16H16V0H0V16z" />
    <glyph glyph-name="array-fill"
      unicode="&#xEA14;"
      horiz-adv-x="16" d="M1 15.5C0.723858 15.5 0.5 15.276142 0.5 15V1C0.5 0.7239 0.723858 0.5 1 0.5H3C3.27614 0.5 3.5 0.7239 3.5 1V15C3.5 15.276142 3.27614 15.5 3 15.5H1zM5 15.5C4.72386 15.5 4.5 15.276142 4.5 15V1C4.5 0.7239 4.72386 0.5 5 0.5H11C11.2761 0.5 11.5 0.7239 11.5 1V15C11.5 15.276142 11.2761 15.5 11 15.5H5zM12.5 15C12.5 15.276142 12.7239 15.5 13 15.5H15C15.2761 15.5 15.5 15.276142 15.5 15V1C15.5 0.7239 15.2761 0.5 15 0.5H13C12.7239 0.5 12.5 0.7239 12.5 1V15zM0 16H16V0H0V16z" />
    <glyph glyph-name="arrow-bold-down"
      unicode="&#xEA15;"
      horiz-adv-x="16" d="M8.00001 0.5C8.1484 0.5 8.28912 0.5659 8.38412 0.6799L13.3841 6.67991C13.5083 6.82895 13.5351 7.03639 13.4528 7.21208C13.3705 7.38777 13.194 7.5 13 7.5H10.5V14C10.5 14.82843 9.82843 15.5 9.00001 15.5H7.00001C6.17158 15.5 5.50001 14.82843 5.50001 14V7.5H3.00001C2.806 7.5 2.6295 7.38777 2.54721 7.21208C2.46492 7.03639 2.49169 6.82895 2.61589 6.67991L7.6159 0.6799C7.71089 0.5659 7.85162 0.5 8.00001 0.5zM4.06753 6.5H6.00001C6.27615 6.5 6.50001 6.72386 6.50001 7V14C6.50001 14.27614 6.72386 14.5 7.00001 14.5H9.00001C9.27615 14.5 9.50001 14.27614 9.50001 14V7C9.50001 6.72386 9.72386 6.5 10 6.5H11.9325L8.00001 1.781L4.06753 6.5z" />
    <glyph glyph-name="arrow-bold-left"
      unicode="&#xEA16;"
      horiz-adv-x="16" d="M7.21208 13.45279C7.38777 13.3705 7.5 13.194 7.5 12.99999L7.5 10.49999H14C14.8284 10.49999 15.5 9.82842 15.5 8.99999V6.99999C15.5 6.17157 14.8284 5.5 14 5.5H7.5L7.5 3C7.5 2.806 7.38777 2.6295 7.21208 2.5472C7.03638 2.4649 6.82895 2.4917 6.67991 2.6159L0.679908 7.61588C0.565911 7.71088 0.5 7.8516 0.5 7.99999C0.5 8.14838 0.565912 8.28911 0.679908 8.38411L6.67991 13.38411C6.82895 13.50831 7.03639 13.53508 7.21208 13.45279zM1.78102 7.99999L6.5 4.0675L6.5 6C6.5 6.27614 6.72386 6.49999 7 6.49999H14C14.2761 6.49999 14.5 6.72385 14.5 6.99999V8.99999C14.5 9.27614 14.2761 9.49999 14 9.49999H7C6.86739 9.49999 6.74021 9.55267 6.64645 9.64644C6.55268 9.74021 6.5 9.86739 6.5 9.99999L6.5 11.93247L1.78102 7.99999z" />
    <glyph glyph-name="arrow-bold-right"
      unicode="&#xEA17;"
      horiz-adv-x="16" d="M8.78792 13.45279C8.96361 13.53508 9.17105 13.50831 9.32009 13.3841L15.3201 8.3841C15.4341 8.28911 15.5 8.14838 15.5 7.99999C15.5 7.8516 15.4341 7.71088 15.3201 7.61588L9.32009 2.6159C9.17105 2.4917 8.96361 2.4649 8.78792 2.5472C8.61223 2.6295 8.5 2.806 8.5 3V5.5H2C1.17157 5.5 0.5 6.17157 0.5 6.99999V8.99999C0.5 9.82842 1.17157 10.49999 2 10.49999H8.5V12.99999C8.5 13.194 8.61223 13.3705 8.78792 13.45279zM9.5 11.93247V9.99999C9.5 9.72385 9.27614 9.49999 9 9.49999H2C1.72386 9.49999 1.5 9.27614 1.5 8.99999V6.99999C1.5 6.72385 1.72386 6.49999 2 6.49999H9C9.27614 6.49999 9.5 6.27614 9.5 6V4.0675L14.219 7.99999L9.5 11.93247z" />
    <glyph glyph-name="arrow-bold-up"
      unicode="&#xEA18;"
      horiz-adv-x="16" d="M8.00001 15.5C8.1484 15.5 8.28912 15.434088 8.38412 15.320092L13.3841 9.32009C13.5083 9.17105 13.5351 8.96361 13.4528 8.78792C13.3705 8.61223 13.194 8.5 13 8.5H10.5V2C10.5 1.1716 9.82843 0.5 9.00001 0.5H7.00001C6.17158 0.5 5.50001 1.1716 5.50001 2V8.5H3.00001C2.806 8.5 2.6295 8.61223 2.54721 8.78792C2.46492 8.96361 2.49169 9.17105 2.6159 9.32009L7.6159 15.320092C7.71089 15.434088 7.85162 15.5 8.00001 15.5zM4.06753 9.5H6.00001C6.27615 9.5 6.50001 9.27614 6.50001 9V2C6.50001 1.7239 6.72386 1.5 7.00001 1.5H9.00001C9.27615 1.5 9.50001 1.7239 9.50001 2V9C9.50001 9.27614 9.72386 9.5 10 9.5H11.9325L8.00001 14.21898L4.06753 9.5z" />
    <glyph glyph-name="arrow-daw"
      unicode="&#xEA19;"
      horiz-adv-x="16" d="M15.2867 13.40962C15.513 13.25126 15.568 12.9395 15.4096 12.71327L8.40962 2.7133C8.31605 2.5796 8.16316 2.5 8 2.5C7.83684 2.5 7.68395 2.5796 7.59038 2.7133L1.5 11.41382V10C1.5 9.72386 1.27614 9.5 1 9.5C0.723858 9.5 0.5 9.72386 0.5 10V13C0.5 13.16072 0.577261 13.31165 0.707645 13.40562C0.838029 13.4996 1.00564 13.52517 1.15811 13.47434L4.15811 12.47434C4.42009 12.38702 4.56167 12.10386 4.47434 11.84189C4.38702 11.57992 4.10386 11.43834 3.84189 11.52566L2.2773 12.04719L8 3.8719L14.5904 13.28673C14.7487 13.51296 15.0605 13.56798 15.2867 13.40962z" />
    <glyph glyph-name="arrow-down-between-lines"
      unicode="&#xEA1A;"
      horiz-adv-x="16" d="M4.5 15C4.5 15.276142 4.27614 15.5 4 15.5C3.72386 15.5 3.5 15.276142 3.5 15L3.5 1C3.5 0.7239 3.72386 0.5 4 0.5C4.27614 0.5 4.5 0.7239 4.5 1L4.5 15zM8 15.5C8.27614 15.5 8.5 15.276142 8.5 15L8.5 2.2071L9.64645 3.3536C9.84171 3.5488 10.1583 3.5488 10.3536 3.3536C10.5488 3.1583 10.5488 2.8417 10.3536 2.6464L8.35355 0.6464C8.15829 0.4512 7.84171 0.4512 7.64645 0.6464L5.64645 2.6464C5.45118 2.8417 5.45118 3.1583 5.64645 3.3536C5.84171 3.5488 6.15829 3.5488 6.35355 3.3536L7.5 2.2071L7.5 15C7.5 15.276142 7.72386 15.5 8 15.5zM12 15.5C12.2761 15.5 12.5 15.276142 12.5 15L12.5 1C12.5 0.7239 12.2761 0.5 12 0.5C11.7239 0.5 11.5 0.7239 11.5 1L11.5 15C11.5 15.276142 11.7239 15.5 12 15.5z" />
    <glyph glyph-name="arrow-down-from-double-line"
      unicode="&#xEA1B;"
      horiz-adv-x="16" d="M2.5 15C2.5 15.276142 2.72386 15.5 3 15.5H13C13.2761 15.5 13.5 15.276142 13.5 15C13.5 14.72386 13.2761 14.5 13 14.5H3C2.72386 14.5 2.5 14.72386 2.5 15zM7.5 11.5V2.2071L3.35355 6.35355C3.15829 6.54882 2.84171 6.54882 2.64645 6.35355C2.45118 6.15829 2.45118 5.8417 2.64645 5.6464L7.64645 0.6464C7.84171 0.4512 8.15829 0.4512 8.35355 0.6464L13.3536 5.6464C13.5488 5.8417 13.5488 6.15829 13.3536 6.35355C13.1583 6.54882 12.8417 6.54882 12.6464 6.35355L8.5 2.2071V11.5H13C13.2761 11.5 13.5 11.72386 13.5 12C13.5 12.27614 13.2761 12.5 13 12.5H8H3C2.72386 12.5 2.5 12.27614 2.5 12C2.5 11.72386 2.72386 11.5 3 11.5H7.5z" />
    <glyph glyph-name="arrow-down-from-line"
      unicode="&#xEA1C;"
      horiz-adv-x="16" d="M7.5 14.5H3C2.72386 14.5 2.5 14.72386 2.5 15C2.5 15.276142 2.72386 15.5 3 15.5H8H13C13.2761 15.5 13.5 15.276142 13.5 15C13.5 14.72386 13.2761 14.5 13 14.5H8.5V2.2071L12.6464 6.35355C12.8417 6.54882 13.1583 6.54882 13.3536 6.35355C13.5488 6.15829 13.5488 5.8417 13.3536 5.6464L8.35355 0.6464C8.15829 0.4512 7.84171 0.4512 7.64645 0.6464L2.64645 5.6464C2.45118 5.8417 2.45118 6.15829 2.64645 6.35355C2.84171 6.54882 3.15829 6.54882 3.35355 6.35355L7.5 2.2071V14.5z" />
    <glyph glyph-name="arrow-down-in-circle-empty"
      unicode="&#xEA1D;"
      horiz-adv-x="16" d="M1.5 8C1.5 11.58985 4.41015 14.5 8 14.5C11.5899 14.5 14.5 11.58985 14.5 8C14.5 4.4101 11.5899 1.5 8 1.5C4.41015 1.5 1.5 4.4101 1.5 8zM8 15.5C3.85786 15.5 0.5 12.14214 0.5 8C0.5 3.8579 3.85786 0.5 8 0.5C12.1421 0.5 15.5 3.8579 15.5 8C15.5 12.14214 12.1421 15.5 8 15.5zM8.5 11C8.5 11.27614 8.27614 11.5 8 11.5C7.72386 11.5 7.5 11.27614 7.5 11V6.20711L6.35355 7.35355C6.15829 7.54882 5.84171 7.54882 5.64645 7.35355C5.45118 7.15829 5.45118 6.84171 5.64645 6.64645L7.64645 4.6464C7.84171 4.4512 8.15829 4.4512 8.35355 4.6464L10.3536 6.64645C10.5488 6.84171 10.5488 7.15829 10.3536 7.35355C10.1583 7.54882 9.84171 7.54882 9.64645 7.35355L8.5 6.20711V11zM0 16H16V0H0V16z" />
    <glyph glyph-name="arrow-down-to-bracket"
      unicode="&#xEA1E;"
      horiz-adv-x="16" d="M11.3536 7.64645L8.35355 4.6464C8.15829 4.4512 7.84171 4.4512 7.64645 4.6464L4.64645 7.64645C4.45118 7.84171 4.45118 8.15829 4.64645 8.35355C4.84171 8.54882 5.15829 8.54882 5.35355 8.35355L7.5 6.20711V15C7.5 15.276142 7.72386 15.5 8 15.5C8.27614 15.5 8.5 15.276142 8.5 15V6.20711L10.6464 8.35355C10.8417 8.54882 11.1583 8.54882 11.3536 8.35355C11.5488 8.15829 11.5488 7.84171 11.3536 7.64645zM1.5 3C1.5 3.2761 1.27614 3.5 1 3.5C0.723858 3.5 0.5 3.2761 0.5 3V1C0.5 0.7239 0.723858 0.5 1 0.5H15C15.2761 0.5 15.5 0.7239 15.5 1V3C15.5 3.2761 15.2761 3.5 15 3.5C14.7239 3.5 14.5 3.2761 14.5 3V1.5H1.5V3zM0 16H16V0H0V16z" />
    <glyph glyph-name="arrow-down-to-double-line"
      unicode="&#xEA1F;"
      horiz-adv-x="16" d="M8 15.5C8.27614 15.5 8.5 15.276142 8.5 15V6.20711L12.6464 10.35355C12.8417 10.54882 13.1583 10.54882 13.3536 10.35355C13.5488 10.15829 13.5488 9.84171 13.3536 9.64645L8.35355 4.6464C8.25605 4.5489 8.12829 4.5001 8.00049 4.5H13C13.2761 4.5 13.5 4.2761 13.5 4C13.5 3.7239 13.2761 3.5 13 3.5H3C2.72386 3.5 2.5 3.7239 2.5 4C2.5 4.2761 2.72386 4.5 3 4.5H7.99951C7.87171 4.5001 7.74395 4.5489 7.64645 4.6464L2.64645 9.64645C2.45118 9.84171 2.45118 10.15829 2.64645 10.35355C2.84171 10.54882 3.15829 10.54882 3.35355 10.35355L7.5 6.20711V15C7.5 15.276142 7.72386 15.5 8 15.5zM2.5 1C2.5 1.2761 2.72386 1.5 3 1.5H13C13.2761 1.5 13.5 1.2761 13.5 1C13.5 0.7239 13.2761 0.5 13 0.5H3C2.72386 0.5 2.5 0.7239 2.5 1z" />
    <glyph glyph-name="arrow-down-to-line"
      unicode="&#xEA20;"
      horiz-adv-x="16" d="M8.5 15C8.5 15.276142 8.27614 15.5 8 15.5C7.72386 15.5 7.5 15.276142 7.5 15V3.2071L3.35355 7.35355C3.15829 7.54882 2.84171 7.54882 2.64645 7.35355C2.45118 7.15829 2.45118 6.84171 2.64645 6.64645L7.64645 1.6464C7.74395 1.5489 7.87171 1.5001 7.99951 1.5H3C2.72386 1.5 2.5 1.2761 2.5 1C2.5 0.7239 2.72386 0.5 3 0.5H13C13.2761 0.5 13.5 0.7239 13.5 1C13.5 1.2761 13.2761 1.5 13 1.5H8.00049C8.12829 1.5001 8.25605 1.5489 8.35355 1.6464L13.3536 6.64645C13.5488 6.84171 13.5488 7.15829 13.3536 7.35355C13.1583 7.54882 12.8417 7.54882 12.6464 7.35355L8.5 3.2071V15z" />
    <glyph glyph-name="arrow-down-wide-short"
      unicode="&#xEA21;"
      horiz-adv-x="16" d="M4.5 15C4.5 15.276142 4.27614 15.5 4 15.5C3.72386 15.5 3.5 15.276142 3.5 15V2.2071L2.35355 3.3536C2.15829 3.5488 1.84171 3.5488 1.64645 3.3536C1.45118 3.1583 1.45118 2.8417 1.64645 2.6464L3.64645 0.6464C3.84171 0.4512 4.15829 0.4512 4.35355 0.6464L6.35355 2.6464C6.54882 2.8417 6.54882 3.1583 6.35355 3.3536C6.15829 3.5488 5.84171 3.5488 5.64645 3.3536L4.5 2.2071V15zM8 7.5C7.72386 7.5 7.5 7.27614 7.5 7C7.5 6.72386 7.72386 6.5 8 6.5H15C15.2761 6.5 15.5 6.72386 15.5 7C15.5 7.27614 15.2761 7.5 15 7.5H8zM7.5 11C7.5 11.27614 7.72386 11.5 8 11.5H13C13.2761 11.5 13.5 11.27614 13.5 11C13.5 10.72386 13.2761 10.5 13 10.5H8C7.72386 10.5 7.5 10.72386 7.5 11zM8 15.5C7.72386 15.5 7.5 15.276142 7.5 15C7.5 14.72386 7.72386 14.5 8 14.5H11C11.2761 14.5 11.5 14.72386 11.5 15C11.5 15.276142 11.2761 15.5 11 15.5H8z" />
    <glyph glyph-name="arrow-down"
      unicode="&#xEA22;"
      horiz-adv-x="16" d="M8 15.499999C8.27614 15.499999 8.5 15.276142 8.5 15V2.2071L12.6464 6.35355C12.8417 6.54882 13.1583 6.54882 13.3536 6.35355C13.5488 6.15829 13.5488 5.8417 13.3536 5.6464L8.35355 0.6464C8.15829 0.4512 7.84171 0.4512 7.64645 0.6464L2.64645 5.6464C2.45118 5.8417 2.45118 6.15829 2.64645 6.35355C2.84171 6.54882 3.15829 6.54882 3.35355 6.35355L7.5 2.2071V15C7.5 15.276142 7.72386 15.499999 8 15.499999zM0 16H16V0H0V16z" />
    <glyph glyph-name="arrow-left-between-lines"
      unicode="&#xEA23;"
      horiz-adv-x="16" d="M0.5 12C0.5 12.27614 0.723858 12.5 1 12.5H15C15.2761 12.5 15.5 12.27614 15.5 12C15.5 11.72386 15.2761 11.5 15 11.5H1C0.723858 11.5 0.5 11.72386 0.5 12zM3.35352 10.35358C3.5488 10.15834 3.54883 9.84176 3.35358 9.64648L2.20696 8.49966H15C15.2761 8.49966 15.5 8.2758 15.5 7.99966C15.5 7.72352 15.2761 7.49966 15 7.49966H2.20725L3.35352 6.35358C3.5488 6.15834 3.54883 5.8418 3.35358 5.6465C3.15834 5.4512 2.84176 5.4512 2.64648 5.6464L0.646477 7.64608C0.5527 7.73984 0.500011 7.86701 0.5 7.99962C0.499989 8.13223 0.552656 8.25941 0.646417 8.35319L2.64642 10.35352C2.84166 10.5488 3.15824 10.54883 3.35352 10.35358zM1 4.5C0.723858 4.5 0.5 4.2761 0.5 4C0.5 3.7239 0.723858 3.5 1 3.5H15C15.2761 3.5 15.5 3.7239 15.5 4C15.5 4.2761 15.2761 4.5 15 4.5H1z" />
    <glyph glyph-name="arrow-left-down"
      unicode="&#xEA24;"
      horiz-adv-x="16" d="M15.3535 15.353553C15.5488 15.158291 15.5488 14.84171 15.3535 14.64645L2.20711 1.5H12C12.2761 1.5 12.5 1.2761 12.5 1C12.5 0.7239 12.2761 0.5 12 0.5H1C0.723858 0.5 0.5 0.7239 0.5 1V12C0.5 12.27614 0.723858 12.5 1 12.5C1.27614 12.5 1.5 12.27614 1.5 12V2.2071L14.6464 15.353553C14.8417 15.548816 15.1583 15.548816 15.3535 15.353553zM0 16H16V0H0V16z" />
    <glyph glyph-name="arrow-left-from-bracket"
      unicode="&#xEA25;"
      horiz-adv-x="16" d="M13 15.5C12.7239 15.5 12.5 15.276142 12.5 15C12.5 14.72386 12.7239 14.5 13 14.5H14C14.2761 14.5 14.5 14.27614 14.5 14V2C14.5 1.7239 14.2761 1.5 14 1.5H13C12.7239 1.5 12.5 1.2761 12.5 1C12.5 0.7239 12.7239 0.5 13 0.5H14C14.8284 0.5 15.5 1.1716 15.5 2V14C15.5 14.82843 14.8284 15.5 14 15.5H13zM4.4 11.7C4.56569 11.92091 4.52091 12.23431 4.3 12.4C4.07909 12.56569 3.76569 12.52091 3.6 12.3L0.6 8.3C0.466667 8.12222 0.466667 7.87778 0.6 7.7L3.6 3.7C3.76569 3.4791 4.07909 3.4343 4.3 3.6C4.52091 3.7657 4.56569 4.0791 4.4 4.3L2 7.5H11C11.2761 7.5 11.5 7.72386 11.5 8C11.5 8.27614 11.2761 8.5 11 8.5H2L4.4 11.7zM0 16H16V0H0V16z" />
    <glyph glyph-name="arrow-left-in-circle-empty"
      unicode="&#xEA26;"
      horiz-adv-x="16" d="M1.5 8C1.5 11.58985 4.41015 14.5 8 14.5C11.5899 14.5 14.5 11.58985 14.5 8C14.5 4.4101 11.5899 1.5 8 1.5C4.41015 1.5 1.5 4.4101 1.5 8zM8 15.5C3.85786 15.5 0.5 12.14214 0.5 8C0.5 3.8579 3.85786 0.5 8 0.5C12.1421 0.5 15.5 3.8579 15.5 8C15.5 12.14214 12.1421 15.5 8 15.5zM7.35355 9.64645C7.54882 9.84171 7.54882 10.15829 7.35355 10.35355C7.15829 10.54882 6.84171 10.54882 6.64645 10.35355L4.64645 8.35355C4.55268 8.25979 4.5 8.13261 4.5 8C4.5 7.86739 4.55268 7.74021 4.64645 7.64645L6.64645 5.6464C6.84171 5.4512 7.15829 5.4512 7.35355 5.6464C7.54882 5.8417 7.54882 6.15829 7.35355 6.35355L6.20711 7.5H11C11.2761 7.5 11.5 7.72386 11.5 8C11.5 8.27614 11.2761 8.5 11 8.5H6.20711L7.35355 9.64645zM0 16H16V0H0V16z" />
    <glyph glyph-name="arrow-left-up"
      unicode="&#xEA27;"
      horiz-adv-x="16" d="M15.3535 0.6464C15.5488 0.8417 15.5488 1.1583 15.3535 1.3536L2.20711 14.5H12C12.2761 14.5 12.5 14.72386 12.5 15C12.5 15.276142 12.2761 15.5 12 15.5H1C0.723858 15.5 0.5 15.276142 0.5 15V4C0.5 3.7239 0.723858 3.5 1 3.5C1.27614 3.5 1.5 3.7239 1.5 4V13.79289L14.6464 0.6464C14.8417 0.4512 15.1583 0.4512 15.3535 0.6464zM0 16H16V0H0V16z" />
    <glyph glyph-name="arrow-left"
      unicode="&#xEA28;"
      horiz-adv-x="16" d="M6.35355 13.35355C6.54882 13.15829 6.54882 12.84171 6.35355 12.64645L2.20711 8.5H15C15.2761 8.5 15.5 8.27614 15.5 8C15.5 7.72386 15.2761 7.5 15 7.5H2.20711L6.35355 3.3536C6.54882 3.1583 6.54882 2.8417 6.35355 2.6464C6.15829 2.4512 5.84171 2.4512 5.64645 2.6464L0.646447 7.64645C0.451184 7.84171 0.451184 8.15829 0.646447 8.35355L5.64645 13.35355C5.84171 13.54882 6.15829 13.54882 6.35355 13.35355z" />
    <glyph glyph-name="arrow-right-between-lines"
      unicode="&#xEA29;"
      horiz-adv-x="16" d="M0.5 12C0.5 12.27614 0.723858 12.5 1 12.5L15 12.5C15.2761 12.5 15.5 12.27614 15.5 12C15.5 11.72386 15.2761 11.5 15 11.5L1 11.5C0.723858 11.5 0.5 11.72386 0.5 12zM12.6464 10.35355C12.8417 10.54882 13.1583 10.54882 13.3536 10.35355L15.3536 8.35355C15.5488 8.15829 15.5488 7.84171 15.3536 7.64645L13.3536 5.6464C13.1583 5.4512 12.8417 5.4512 12.6464 5.6464C12.4512 5.8417 12.4512 6.15829 12.6464 6.35355L13.7929 7.5L1 7.5C0.723858 7.5 0.5 7.72386 0.5 8C0.5 8.27614 0.723858 8.5 1 8.5L13.7929 8.5L12.6464 9.64645C12.4512 9.84171 12.4512 10.15829 12.6464 10.35355zM1 4.5C0.723858 4.5 0.5 4.2761 0.5 4C0.5 3.7239 0.723858 3.5 1 3.5L15 3.5C15.2761 3.5 15.5 3.7239 15.5 4C15.5 4.2761 15.2761 4.5 15 4.5L1 4.5z" />
    <glyph glyph-name="arrow-right-down"
      unicode="&#xEA2A;"
      horiz-adv-x="16" d="M0.646447 15.353553C0.841709 15.548816 1.15829 15.548815 1.35355 15.353553L14.5 2.2071V12C14.5 12.27614 14.7239 12.5 15 12.5C15.2761 12.5 15.5 12.27614 15.5 12V1C15.5 0.7239 15.2761 0.5 15 0.5H4C3.72386 0.5 3.5 0.7239 3.5 1C3.5 1.2761 3.72386 1.5 4 1.5H13.7929L0.646447 14.64645C0.451184 14.84171 0.451185 15.158291 0.646447 15.353553zM0 16H16V0H0V16z" />
    <glyph glyph-name="arrow-right-from-bracket"
      unicode="&#xEA2B;"
      horiz-adv-x="16" d="M2 15.5C1.17157 15.5 0.5 14.82843 0.5 14V2C0.5 1.1716 1.17157 0.5 2 0.5H3C3.27614 0.5 3.5 0.7239 3.5 1C3.5 1.2761 3.27614 1.5 3 1.5H2C1.72386 1.5 1.5 1.7239 1.5 2V14C1.5 14.27614 1.72386 14.5 2 14.5H3C3.27614 14.5 3.5 14.72386 3.5 15C3.5 15.276142 3.27614 15.5 3 15.5H2zM12.4 12.3C12.2343 12.52091 11.9209 12.56569 11.7 12.4C11.4791 12.23431 11.4343 11.92091 11.6 11.7L14 8.5H5C4.72386 8.5 4.5 8.27614 4.5 8C4.5 7.72386 4.72386 7.5 5 7.5H14L11.6 4.3C11.4343 4.0791 11.4791 3.7657 11.7 3.6C11.9209 3.4343 12.2343 3.4791 12.4 3.7L15.4 7.7C15.5333 7.87778 15.5333 8.12222 15.4 8.3L12.4 12.3zM0 16H16V0H0V16z" />
    <glyph glyph-name="arrow-right-in-circle-empty"
      unicode="&#xEA2C;"
      horiz-adv-x="16" d="M1.5 8C1.5 11.58985 4.41015 14.5 8 14.5C11.5899 14.5 14.5 11.58985 14.5 8C14.5 4.4101 11.5899 1.5 8 1.5C4.41015 1.5 1.5 4.4101 1.5 8zM8 15.5C3.85786 15.5 0.5 12.14214 0.5 8C0.5 3.8579 3.85786 0.5 8 0.5C12.1421 0.5 15.5 3.8579 15.5 8C15.5 12.14214 12.1421 15.5 8 15.5zM9.35355 10.35355C9.15829 10.54882 8.84171 10.54882 8.64645 10.35355C8.45118 10.15829 8.45118 9.84171 8.64645 9.64645L9.79289 8.5H5C4.72386 8.5 4.5 8.27614 4.5 8C4.5 7.72386 4.72386 7.5 5 7.5H9.79289L8.64645 6.35355C8.45118 6.15829 8.45118 5.8417 8.64645 5.6464C8.84171 5.4512 9.15829 5.4512 9.35355 5.6464L11.3536 7.64645C11.4473 7.74021 11.5 7.86739 11.5 8C11.5 8.13261 11.4473 8.25979 11.3536 8.35355L9.35355 10.35355zM0 16H16V0H0V16z" />
    <glyph glyph-name="arrow-right-up"
      unicode="&#xEA2D;"
      horiz-adv-x="16" d="M3.5 15C3.5 15.276142 3.72386 15.5 4 15.5H15C15.2761 15.5 15.5 15.276142 15.5 15V4C15.5 3.7239 15.2761 3.5 15 3.5C14.7239 3.5 14.5 3.7239 14.5 4V13.79289L1.35355 0.6464C1.15829 0.4512 0.841709 0.4512 0.646447 0.6464C0.451185 0.8417 0.451184 1.1583 0.646447 1.3536L13.7929 14.5H4C3.72386 14.5 3.5 14.72386 3.5 15zM0 16H16V0H0V16z" />
    <glyph glyph-name="arrow-right"
      unicode="&#xEA2E;"
      horiz-adv-x="16" d="M9.64645 13.35355C9.84171 13.54881 10.1583 13.54881 10.3536 13.35355L15.3536 8.35355C15.5488 8.15829 15.5488 7.84171 15.3536 7.64645L10.3536 2.6464C10.1583 2.4512 9.84171 2.4512 9.64645 2.6464C9.45118 2.8417 9.45118 3.1583 9.64645 3.3536L13.7929 7.5H1C0.723858 7.5 0.5 7.72386 0.5 8C0.5 8.27614 0.723858 8.5 1 8.5H13.7929L9.64645 12.64645C9.45118 12.84171 9.45118 13.15829 9.64645 13.35355z" />
    <glyph glyph-name="arrow-rotate-left"
      unicode="&#xEA2F;"
      horiz-adv-x="16" d="M2 15.5C2.27614 15.5 2.5 15.276142 2.5 15L2.5 13.37318C3.01178 13.9074 3.5635 14.35053 4.20221 14.69118C5.23175 15.240265 6.4435 15.5 8 15.5C12.2824 15.5 15.5 12.13584 15.5 8C15.5 3.8579 12.1421 0.5 8 0.5C3.85786 0.5 0.500001 3.8579 0.500001 8C0.500001 8.27614 0.723858 8.5 1 8.5C1.27614 8.5 1.5 8.27614 1.5 8C1.5 4.4101 4.41015 1.5 8 1.5C11.5899 1.5 14.5 4.4101 14.5 8C14.5 11.59615 11.7176 14.5 8 14.5C6.5565 14.5 5.51825 14.25974 4.67279 13.80882C4.08014 13.49274 3.5608 13.06186 3.05352 12.5L5 12.5C5.27614 12.5 5.5 12.27614 5.5 12C5.5 11.72386 5.27614 11.5 5 11.5L2 11.5C1.72386 11.5 1.5 11.72386 1.5 12L1.5 15C1.5 15.276142 1.72386 15.5 2 15.5zM0 16H16V0H0V16z" />
    <glyph glyph-name="arrow-rotate-right"
      unicode="&#xEA30;"
      horiz-adv-x="16" d="M0.5 8C0.5 12.13584 3.7176 15.5 8 15.5C9.5565 15.5 10.7683 15.240265 11.7978 14.69118C12.4365 14.35053 12.9882 13.9074 13.5 13.37318V15C13.5 15.276142 13.7239 15.5 14 15.5C14.2761 15.5 14.5 15.276142 14.5 15V12C14.5 11.72386 14.2761 11.5 14 11.5H11C10.7239 11.5 10.5 11.72386 10.5 12C10.5 12.27614 10.7239 12.5 11 12.5H12.9465C12.4392 13.06186 11.9199 13.49274 11.3272 13.80882C10.4817 14.25974 9.4435 14.5 8 14.5C4.2824 14.5 1.5 11.59615 1.5 8C1.5 4.4101 4.41015 1.5 8 1.5C11.5899 1.5 14.5 4.4101 14.5 8C14.5 8.27614 14.7239 8.5 15 8.5C15.2761 8.5 15.5 8.27614 15.5 8C15.5 3.8579 12.1421 0.5 8 0.5C3.85786 0.5 0.5 3.8579 0.5 8zM0 16H16V0H0V16z" />
    <glyph glyph-name="arrow-turn-down-left"
      unicode="&#xEA31;"
      horiz-adv-x="16" d="M15 13.5C15.2761 13.5 15.5 13.27614 15.5 13V12.99023V12.98047V12.9707V12.96094V12.95117V12.94141V12.93164V12.92188V12.91211V12.90234V12.89258V12.88281V12.87305V12.86328V12.85352V12.84375V12.83398V12.82422V12.81445V12.80469V12.79492V12.78516V12.77539V12.76562V12.75586V12.74609V12.73633V12.72656V12.7168V12.70703V12.69727V12.6875V12.67773V12.66797V12.6582V12.64844V12.63867V12.62891V12.61914V12.60938V12.59961V12.58984V12.58008V12.57031V12.56055V12.55078V12.54102V12.53125V12.52148V12.51172V12.50195V12.49219V12.48242V12.47266V12.46289V12.45312V12.44336V12.43359V12.42383V12.41406V12.4043V12.39453V12.38477V12.375V12.36523V12.35547V12.3457V12.33594V12.32617V12.31641V12.30664V12.29688V12.28711V12.27734V12.26758V12.25781V12.24805V12.23828V12.22852V12.21875V12.20898V12.19922V12.18945V12.17969V12.16992V12.16016V12.15039V12.14062V12.13086V12.12109V12.11133V12.10156V12.0918V12.08203V12.07227V12.0625V12.05273V12.04297V12.0332V12.02344V12.01367V12.00391V11.99414V11.98438V11.97461V11.96484V11.95508V11.94531V11.93555V11.92578V11.91602V11.90625V11.89648V11.88672V11.87695V11.86719V11.85742V11.84766V11.83789V11.82812V11.81836V11.80859V11.79883V11.78906V11.7793V11.76953V11.75977V11.75V11.74023V11.73047V11.7207V11.71094V11.70117V11.69141V11.68164V11.67188V11.66211V11.65234V11.64258V11.63281V11.62305V11.61328V11.60352V11.59375V11.58398V11.57422V11.56445V11.55469V11.54492V11.53516V11.52539V11.51562V11.50586V11.49609V11.48633V11.47656V11.4668V11.45703V11.44727V11.4375V11.42773V11.41797V11.4082V11.39844V11.38867V11.37891V11.36914V11.35938V11.34961V11.33984V11.33008V11.32031V11.31055V11.30078V11.29102V11.28125V11.27148V11.26172V11.25195V11.24219V11.23242V11.22266V11.21289V11.20312V11.19336V11.18359V11.17383V11.16406V11.1543V11.14453V11.13477V11.125V11.11523V11.10547V11.0957V11.08594V11.07617V11.06641V11.05664V11.04688V11.03711V11.02734V11.01758V11.00781V10.99805V10.98828V10.97852V10.96875V10.95898V10.94922V10.93945V10.92969V10.91992V10.91016V10.90039V10.89062V10.88086V10.87109V10.86133V10.85156V10.8418V10.83203V10.82227V10.8125V10.80273V10.79297V10.7832V10.77344V10.76367V10.75391V10.74414V10.73438V10.72461V10.71484V10.70508V10.69531V10.68555V10.67578V10.66602V10.65625V10.64648V10.63672V10.62695V10.61719V10.60742V10.59766V10.58789V10.57812V10.56836V10.55859V10.54883V10.53906V10.5293V10.51953V10.50977V10.5V10.49023V10.48047V10.4707V10.46094V10.45117V10.44141V10.43164V10.42188V10.41211V10.40234V10.39258V10.38281V10.37305V10.36328V10.35352V10.34375V10.33398V10.32422V10.31445V10.30469V10.29492V10.28516V10.27539V10.26562V10.25586V10.24609V10.23633V10.22656V10.2168V10.20703V10.19727V10.1875V10.17773V10.16797V10.1582V10.14844V10.13867V10.12891V10.11914V10.10938V10.09961V10.08984V10.08008V10.07031V10.06055V10.05078V10.04102V10.03125V10.02148V10.01172V10.00195V9.99219V9.98242V9.97266V9.96289V9.95312V9.94336V9.93359V9.92383V9.91406V9.9043V9.89453V9.88477V9.875V9.86523V9.85547V9.8457V9.83594V9.82617V9.81641V9.80664V9.79688V9.78711V9.77734V9.76758V9.75781V9.74805V9.73828V9.72852V9.71875V9.70898V9.69922V9.68945V9.67969V9.66992V9.66016V9.65039V9.64062V9.63086V9.62109V9.61133V9.60156V9.5918V9.58203V9.57227V9.5625V9.55273V9.54297V9.5332V9.52344V9.51367V9.50391V9.49414V9.48438V9.47461V9.46484V9.45508V9.44531V9.43555V9.42578V9.41602V9.40625V9.39648V9.38672V9.37695V9.36719V9.35742V9.34766V9.33789V9.32812V9.31836V9.30859V9.29883V9.28906V9.2793V9.26953V9.25977V9.25V9.24023V9.23047V9.2207V9.21094V9.20117V9.19141V9.18164V9.17188V9.16211V9.15234V9.14258V9.13281V9.12305V9.11328V9.10352V9.09375V9.08398V9.07422V9.06445V9.05469V9.04492V9.03516V9.02539V9.01562V9.00586V8.99609V8.98633V8.97656V8.9668V8.95703V8.94727V8.9375V8.92773V8.91797V8.9082V8.89844V8.88867V8.87891V8.86914V8.85938V8.84961V8.83984V8.83008V8.82031V8.81055V8.80078V8.79102V8.78125V8.77148V8.76172V8.75195V8.74219V8.73242V8.72266V8.71289V8.70312V8.69336V8.68359V8.67383V8.66406V8.6543V8.64453V8.63477V8.625V8.61523V8.60547V8.5957V8.58594V8.57617V8.56641V8.55664V8.54688V8.53711V8.52734V8.51758V8.50781V8.49805V8.48828V8.47852V8.46875V8.45898V8.44922V8.43945V8.42969V8.41992V8.41016V8.40039V8.39062V8.38086V8.37109V8.36133V8.35156V8.3418V8.33203V8.32227V8.3125V8.30273V8.29297V8.2832V8.27344V8.26367V8.25391V8.24414V8.23438V8.22461V8.21484V8.20508V8.19531V8.18555V8.17578V8.16602V8.15625V8.14648V8.13672V8.12695V8.11719V8.10742V8.09766V8.08789V8.07812V8.06836V8.05859V8.04883V8.03906V8.0293V8.01953V8.00977V8C15.5 7.17157 14.8284 6.5 14 6.5H2.20711L5.35355 3.3536C5.54882 3.1583 5.54882 2.8417 5.35355 2.6464C5.15829 2.4512 4.84171 2.4512 4.64645 2.6464L0.646447 6.64645C0.451184 6.84171 0.451184 7.15829 0.646447 7.35355L4.64645 11.35355C4.84171 11.54882 5.15829 11.54882 5.35355 11.35355C5.54882 11.15829 5.54882 10.84171 5.35355 10.64645L2.20711 7.5H14C14.2761 7.5 14.5 7.72386 14.5 8V8.00977V8.01953V8.0293V8.03906V8.04883V8.05859V8.06836V8.07812V8.08789V8.09766V8.10742V8.11719V8.12695V8.13672V8.14648V8.15625V8.16602V8.17578V8.18555V8.19531V8.20508V8.21484V8.22461V8.23438V8.24414V8.25391V8.26367V8.27344V8.2832V8.29297V8.30273V8.3125V8.32227V8.33203V8.3418V8.35156V8.36133V8.37109V8.38086V8.39062V8.40039V8.41016V8.41992V8.42969V8.43945V8.44922V8.45898V8.46875V8.47852V8.48828V8.49805V8.50781V8.51758V8.52734V8.53711V8.54688V8.55664V8.56641V8.57617V8.58594V8.5957V8.60547V8.61523V8.625V8.63477V8.64453V8.6543V8.66406V8.67383V8.68359V8.69336V8.70312V8.71289V8.72266V8.73242V8.74219V8.75195V8.76172V8.77148V8.78125V8.79102V8.80078V8.81055V8.82031V8.83008V8.83984V8.84961V8.85938V8.86914V8.87891V8.88867V8.89844V8.9082V8.91797V8.92773V8.9375V8.94727V8.95703V8.9668V8.97656V8.98633V8.99609V9.00586V9.01562V9.02539V9.03516V9.04492V9.05469V9.06445V9.07422V9.08398V9.09375V9.10352V9.11328V9.12305V9.13281V9.14258V9.15234V9.16211V9.17188V9.18164V9.19141V9.20117V9.21094V9.2207V9.23047V9.24023V9.25V9.25977V9.26953V9.2793V9.28906V9.29883V9.30859V9.31836V9.32812V9.33789V9.34766V9.35742V9.36719V9.37695V9.38672V9.39648V9.40625V9.41602V9.42578V9.43555V9.44531V9.45508V9.46484V9.47461V9.48438V9.49414V9.50391V9.51367V9.52344V9.5332V9.54297V9.55273V9.5625V9.57227V9.58203V9.5918V9.60156V9.61133V9.62109V9.63086V9.64062V9.65039V9.66016V9.66992V9.67969V9.68945V9.69922V9.70898V9.71875V9.72852V9.73828V9.74805V9.75781V9.76758V9.77734V9.78711V9.79688V9.80664V9.81641V9.82617V9.83594V9.8457V9.85547V9.86523V9.875V9.88477V9.89453V9.9043V9.91406V9.92383V9.93359V9.94336V9.95312V9.96289V9.97266V9.98242V9.99219V10.00195V10.01172V10.02148V10.03125V10.04102V10.05078V10.06055V10.07031V10.08008V10.08984V10.09961V10.10938V10.11914V10.12891V10.13867V10.14844V10.1582V10.16797V10.17773V10.1875V10.19727V10.20703V10.2168V10.22656V10.23633V10.24609V10.25586V10.26562V10.27539V10.28516V10.29492V10.30469V10.31445V10.32422V10.33398V10.34375V10.35352V10.36328V10.37305V10.38281V10.39258V10.40234V10.41211V10.42188V10.43164V10.44141V10.45117V10.46094V10.4707V10.48047V10.49023V10.5V10.50977V10.51953V10.5293V10.53906V10.54883V10.55859V10.56836V10.57812V10.58789V10.59766V10.60742V10.61719V10.62695V10.63672V10.64648V10.65625V10.66602V10.67578V10.68555V10.69531V10.70508V10.71484V10.72461V10.73438V10.74414V10.75391V10.76367V10.77344V10.7832V10.79297V10.80273V10.8125V10.82227V10.83203V10.8418V10.85156V10.86133V10.87109V10.88086V10.89062V10.90039V10.91016V10.91992V10.92969V10.93945V10.94922V10.95898V10.96875V10.97852V10.98828V10.99805V11.00781V11.01758V11.02734V11.03711V11.04688V11.05664V11.06641V11.07617V11.08594V11.0957V11.10547V11.11523V11.125V11.13477V11.14453V11.1543V11.16406V11.17383V11.18359V11.19336V11.20312V11.21289V11.22266V11.23242V11.24219V11.25195V11.26172V11.27148V11.28125V11.29102V11.30078V11.31055V11.32031V11.33008V11.33984V11.34961V11.35938V11.36914V11.37891V11.38867V11.39844V11.4082V11.41797V11.42773V11.4375V11.44727V11.45703V11.4668V11.47656V11.48633V11.49609V11.50586V11.51562V11.52539V11.53516V11.54492V11.55469V11.56445V11.57422V11.58398V11.59375V11.60352V11.61328V11.62305V11.63281V11.64258V11.65234V11.66211V11.67188V11.68164V11.69141V11.70117V11.71094V11.7207V11.73047V11.74023V11.75V11.75977V11.76953V11.7793V11.78906V11.79883V11.80859V11.81836V11.82812V11.83789V11.84766V11.85742V11.86719V11.87695V11.88672V11.89648V11.90625V11.91602V11.92578V11.93555V11.94531V11.95508V11.96484V11.97461V11.98438V11.99414V12.00391V12.01367V12.02344V12.0332V12.04297V12.05273V12.0625V12.07227V12.08203V12.0918V12.10156V12.11133V12.12109V12.13086V12.14062V12.15039V12.16016V12.16992V12.17969V12.18945V12.19922V12.20898V12.21875V12.22852V12.23828V12.24805V12.25781V12.26758V12.27734V12.28711V12.29688V12.30664V12.31641V12.32617V12.33594V12.3457V12.35547V12.36523V12.375V12.38477V12.39453V12.4043V12.41406V12.42383V12.43359V12.44336V12.45312V12.46289V12.47266V12.48242V12.49219V12.50195V12.51172V12.52148V12.53125V12.54102V12.55078V12.56055V12.57031V12.58008V12.58984V12.59961V12.60938V12.61914V12.62891V12.63867V12.64844V12.6582V12.66797V12.67773V12.6875V12.69727V12.70703V12.7168V12.72656V12.73633V12.74609V12.75586V12.76562V12.77539V12.78516V12.79492V12.80469V12.81445V12.82422V12.83398V12.84375V12.85352V12.86328V12.87305V12.88281V12.89258V12.90234V12.91211V12.92188V12.93164V12.94141V12.95117V12.96094V12.9707V12.98047V12.99023V13C14.5 13.27614 14.7239 13.5 15 13.5z" />
    <glyph glyph-name="arrow-turn-down-right"
      unicode="&#xEA32;"
      horiz-adv-x="16" d="M0.999999 13.5C1.27614 13.5 1.5 13.27614 1.5 13L1.5 8C1.5 7.72386 1.72386 7.5 2 7.5H13.7929L10.6464 10.64645C10.4512 10.84171 10.4512 11.15829 10.6464 11.35355C10.8417 11.54882 11.1583 11.54882 11.3536 11.35355L15.3536 7.35355C15.4473 7.25979 15.5 7.13261 15.5 7C15.5 6.86739 15.4473 6.74021 15.3536 6.64645L11.3536 2.6464C11.1583 2.4512 10.8417 2.4512 10.6464 2.6464C10.4512 2.8417 10.4512 3.1583 10.6464 3.3536L13.7929 6.5H2C1.17157 6.5 0.500001 7.17157 0.5 8L0.5 13C0.5 13.27614 0.723858 13.5 0.999999 13.5z" />
    <glyph glyph-name="arrow-turn-left-down"
      unicode="&#xEA33;"
      horiz-adv-x="16" d="M13.5 15C13.5 14.72386 13.2761 14.5 13 14.5L8 14.5C7.72409 14.5 7.5 14.27602 7.5 13.99964L7.5 2.2071L10.6464 5.3536C10.8417 5.5488 11.1583 5.5488 11.3536 5.3536C11.5488 5.1583 11.5488 4.8417 11.3536 4.6464L7.35355 0.6464C7.15829 0.4512 6.84171 0.4512 6.64645 0.6464L2.64645 4.6464C2.45118 4.8417 2.45118 5.1583 2.64645 5.3536C2.84171 5.5488 3.15829 5.5488 3.35355 5.3536L6.5 2.2071L6.5 13.99964C6.5 14.82784 7.17134 15.499999 8 15.5L13 15.5C13.2761 15.5 13.5 15.276142 13.5 15z" />
    <glyph glyph-name="arrow-turn-left-up"
      unicode="&#xEA34;"
      horiz-adv-x="16" d="M6.64645 15.353553C6.84171 15.548816 7.15829 15.548816 7.35355 15.353553L11.3536 11.35355C11.5488 11.15829 11.5488 10.84171 11.3536 10.64645C11.1583 10.45118 10.8417 10.45118 10.6464 10.64645L7.5 13.79289L7.5 2.0004C7.5 1.724 7.72409 1.5 8 1.5H13C13.2761 1.5 13.5 1.2761 13.5 1C13.5 0.7239 13.2761 0.5 13 0.5H8C7.17134 0.5 6.5 1.1722 6.5 2.0004L6.5 13.79289L3.35355 10.64645C3.15829 10.45118 2.84171 10.45118 2.64645 10.64645C2.45118 10.84171 2.45118 11.15829 2.64645 11.35355L6.64645 15.353553z" />
    <glyph glyph-name="arrow-turn-right-down"
      unicode="&#xEA35;"
      horiz-adv-x="16" d="M2.5 15C2.5 15.276142 2.72386 15.5 3 15.5H8C8.82866 15.5 9.5 14.82784 9.5 13.99964L9.5 2.2071L12.6464 5.3536C12.8417 5.5488 13.1583 5.5488 13.3536 5.3536C13.5488 5.1583 13.5488 4.8417 13.3536 4.6464L9.35355 0.6464C9.15829 0.4512 8.84171 0.4512 8.64645 0.6464L4.64645 4.6464C4.45118 4.8417 4.45118 5.1583 4.64645 5.3536C4.84171 5.5488 5.15829 5.5488 5.35355 5.3536L8.5 2.2071L8.5 13.99964C8.5 14.27602 8.27591 14.5 8 14.5H3C2.72386 14.5 2.5 14.72386 2.5 15z" />
    <glyph glyph-name="arrow-turn-right-up"
      unicode="&#xEA36;"
      horiz-adv-x="16" d="M8.64645 15.353553C8.84171 15.548816 9.15829 15.548816 9.35355 15.353553L13.3536 11.35355C13.5488 11.15829 13.5488 10.84171 13.3536 10.64645C13.1583 10.45118 12.8417 10.45118 12.6464 10.64645L9.5 13.79289L9.5 2C9.5 1.1716 8.82843 0.5 8 0.5H3C2.72386 0.5 2.5 0.7239 2.5 1C2.5 1.2761 2.72386 1.5 3 1.5H8C8.27614 1.5 8.5 1.7239 8.5 2L8.5 13.79289L5.35355 10.64645C5.15829 10.45118 4.84171 10.45118 4.64645 10.64645C4.45118 10.84171 4.45118 11.15829 4.64645 11.35355L8.64645 15.353553z" />
    <glyph glyph-name="arrow-turn-up-left"
      unicode="&#xEA37;"
      horiz-adv-x="16" d="M5.35355 13.35355C5.54882 13.15829 5.54882 12.84171 5.35355 12.64645L2.20711 9.5H14C14.8284 9.5 15.5 8.82843 15.5 8V3C15.5 2.7239 15.2761 2.5 15 2.5C14.7239 2.5 14.5 2.7239 14.5 3V8C14.5 8.27614 14.2761 8.5 14 8.5H2.20711L5.35355 5.3536C5.54882 5.1583 5.54882 4.8417 5.35355 4.6464C5.15829 4.4512 4.84171 4.4512 4.64645 4.6464L0.646447 8.64645C0.451184 8.84171 0.451184 9.15829 0.646447 9.35355L4.64645 13.35355C4.84171 13.54882 5.15829 13.54882 5.35355 13.35355z" />
    <glyph glyph-name="arrow-turn-up-right"
      unicode="&#xEA38;"
      horiz-adv-x="16" d="M10.6464 13.35355C10.8417 13.54882 11.1583 13.54882 11.3536 13.35355L15.3536 9.35355C15.4473 9.25979 15.5 9.13261 15.5 9C15.5 8.86739 15.4473 8.74021 15.3536 8.64645L11.3536 4.6464C11.1583 4.4512 10.8417 4.4512 10.6464 4.6464C10.4512 4.8417 10.4512 5.1583 10.6464 5.3536L13.7929 8.5H2C1.72386 8.5 1.5 8.27614 1.5 8L1.5 3C1.5 2.7239 1.27614 2.5 0.999999 2.5C0.723858 2.5 0.5 2.7239 0.5 3L0.500001 8C0.500002 8.82843 1.17157 9.5 2 9.5H13.7929L10.6464 12.64645C10.4512 12.84171 10.4512 13.15829 10.6464 13.35355z" />
    <glyph glyph-name="arrow-up-arrow-down-h"
      unicode="&#xEA39;"
      horiz-adv-x="16" d="M13.3536 14.35355C13.1583 14.54882 12.8417 14.54882 12.6464 14.35355C12.4512 14.15829 12.4512 13.84171 12.6464 13.64645L13.7929 12.5H1C0.723858 12.5 0.5 12.27614 0.5 12C0.5 11.72386 0.723858 11.5 1 11.5H13.7929L12.6464 10.35355C12.4512 10.15829 12.4512 9.84171 12.6464 9.64645C12.8417 9.45118 13.1583 9.45118 13.3536 9.64645L15.3536 11.64645C15.5488 11.84171 15.5488 12.15829 15.3536 12.35355L13.3536 14.35355zM3.35355 5.6464C3.54882 5.8417 3.54882 6.15829 3.35355 6.35355C3.15829 6.54882 2.84171 6.54882 2.64645 6.35355L0.646447 4.3536C0.451184 4.1583 0.451184 3.8417 0.646447 3.6464L2.64645 1.6464C2.84171 1.4512 3.15829 1.4512 3.35355 1.6464C3.54882 1.8417 3.54882 2.1583 3.35355 2.3536L2.20711 3.5H15C15.2761 3.5 15.5 3.7239 15.5 4C15.5 4.2761 15.2761 4.5 15 4.5H2.20711L3.35355 5.6464z" />
    <glyph glyph-name="arrow-up-arrow-down-v"
      unicode="&#xEA3A;"
      horiz-adv-x="16" d="M4.35355 15.353553C4.25978 15.447322 4.13261 15.5 4 15.5C3.86739 15.5 3.74021 15.447322 3.64645 15.353553L1.64645 13.35355C1.45118 13.15829 1.45118 12.84171 1.64645 12.64645C1.84171 12.45118 2.15829 12.45118 2.35355 12.64645L3.5 13.79289L3.5 1C3.5 0.7239 3.72386 0.5 4 0.5C4.27614 0.5 4.5 0.7239 4.5 1L4.5 13.79289L5.64645 12.64645C5.84171 12.45118 6.15829 12.45118 6.35355 12.64645C6.54882 12.84171 6.54882 13.15829 6.35355 13.35355L4.35355 15.353553zM12.5 15C12.5 15.276142 12.2761 15.5 12 15.5C11.7239 15.5 11.5 15.276142 11.5 15V2.2071L10.3536 3.3536C10.1583 3.5488 9.84171 3.5488 9.64645 3.3536C9.45118 3.1583 9.45118 2.8417 9.64645 2.6464L11.6464 0.6464C11.7402 0.5527 11.8674 0.5 12 0.5C12.1326 0.5 12.2598 0.5527 12.3536 0.6464L14.3536 2.6464C14.5488 2.8417 14.5488 3.1583 14.3536 3.3536C14.1583 3.5488 13.8417 3.5488 13.6464 3.3536L12.5 2.2071V15z" />
    <glyph glyph-name="arrow-up-between-lines"
      unicode="&#xEA3B;"
      horiz-adv-x="16" d="M8.35355 15.353553C8.15829 15.548816 7.84171 15.548816 7.64645 15.353553L5.64645 13.35355C5.45118 13.15829 5.45118 12.84171 5.64645 12.64645C5.84171 12.45118 6.15829 12.45118 6.35355 12.64645L7.5 13.79289L7.5 1C7.5 0.7239 7.72386 0.5 8 0.5C8.27614 0.5 8.5 0.7239 8.5 1V13.79289L9.64645 12.64645C9.84171 12.45118 10.1583 12.45118 10.3536 12.64645C10.5488 12.84171 10.5488 13.15829 10.3536 13.35355L8.35355 15.353553zM4 15.5C4.27614 15.5 4.5 15.276142 4.5 15L4.5 1C4.5 0.7239 4.27614 0.5 4 0.5C3.72386 0.5 3.5 0.7239 3.5 1L3.5 15C3.5 15.276142 3.72386 15.5 4 15.5zM12 15.5C12.2761 15.5 12.5 15.276142 12.5 15V1C12.5 0.7239 12.2761 0.5 12 0.5C11.7239 0.5 11.5 0.7239 11.5 1V15C11.5 15.276142 11.7239 15.5 12 15.5z" />
    <glyph glyph-name="arrow-up-from-bracket"
      unicode="&#xEA3C;"
      horiz-adv-x="16" d="M8.35355 15.353553C8.15829 15.548816 7.84171 15.548816 7.64645 15.353553L4.64645 12.35355C4.45118 12.15829 4.45118 11.84171 4.64645 11.64645C4.84171 11.45118 5.15829 11.45118 5.35355 11.64645L7.5 13.79289V5C7.5 4.7239 7.72386 4.5 8 4.5C8.27614 4.5 8.5 4.7239 8.5 5V13.79289L10.6464 11.64645C10.8417 11.45118 11.1583 11.45118 11.3536 11.64645C11.5488 11.84171 11.5488 12.15829 11.3536 12.35355L8.35355 15.353553zM1.5 3C1.5 3.2761 1.27614 3.5 1 3.5C0.723858 3.5 0.5 3.2761 0.5 3V1C0.5 0.7239 0.723858 0.5 1 0.5H15C15.2761 0.5 15.5 0.7239 15.5 1V3C15.5 3.2761 15.2761 3.5 15 3.5C14.7239 3.5 14.5 3.2761 14.5 3V1.5H1.5V3zM0 16H16V0H0V16z" />
    <glyph glyph-name="arrow-up-from-double-line"
      unicode="&#xEA3D;"
      horiz-adv-x="16" d="M8.5 4.5H13C13.2761 4.5 13.5 4.2761 13.5 4C13.5 3.7239 13.2761 3.5 13 3.5H8H3C2.72386 3.5 2.5 3.7239 2.5 4C2.5 4.2761 2.72386 4.5 3 4.5H7.5V13.79289L3.35355 9.64645C3.15829 9.45118 2.84171 9.45118 2.64645 9.64645C2.45118 9.84171 2.45118 10.15829 2.64645 10.35355L7.64645 15.353554C7.84171 15.548816 8.15829 15.548816 8.35355 15.353554L13.3536 10.35355C13.5488 10.15829 13.5488 9.84171 13.3536 9.64645C13.1583 9.45118 12.8417 9.45118 12.6464 9.64645L8.5 13.79289V4.5zM2.5 1C2.5 1.2761 2.72386 1.5 3 1.5H13C13.2761 1.5 13.5 1.2761 13.5 1C13.5 0.7239 13.2761 0.5 13 0.5H3C2.72386 0.5 2.5 0.7239 2.5 1z" />
    <glyph glyph-name="arrow-up-from-line"
      unicode="&#xEA3E;"
      horiz-adv-x="16" d="M7.5 1.5H3C2.72386 1.5 2.5 1.2761 2.5 1C2.5 0.7239 2.72386 0.5 3 0.5H8H13C13.2761 0.5 13.5 0.7239 13.5 1C13.5 1.2761 13.2761 1.5 13 1.5H8.5V13.79289L12.6464 9.64645C12.8417 9.45118 13.1583 9.45118 13.3536 9.64645C13.5488 9.84171 13.5488 10.15829 13.3536 10.35355L8.35355 15.353554C8.15829 15.548816 7.84171 15.548816 7.64645 15.353554L2.64645 10.35355C2.45118 10.15829 2.45118 9.84171 2.64645 9.64645C2.84171 9.45118 3.15829 9.45118 3.35355 9.64645L7.5 13.79289V1.5z" />
    <glyph glyph-name="arrow-up-in-circle-empty"
      unicode="&#xEA3F;"
      horiz-adv-x="16" d="M1.5 8C1.5 11.58985 4.41015 14.5 8 14.5C11.5899 14.5 14.5 11.58985 14.5 8C14.5 4.4101 11.5899 1.5 8 1.5C4.41015 1.5 1.5 4.4101 1.5 8zM8 15.5C3.85786 15.5 0.5 12.14214 0.5 8C0.5 3.8579 3.85786 0.5 8 0.5C12.1421 0.5 15.5 3.8579 15.5 8C15.5 12.14214 12.1421 15.5 8 15.5zM8.5 9.79289V5C8.5 4.7239 8.27614 4.5 8 4.5C7.72386 4.5 7.5 4.7239 7.5 5V9.79289L6.35355 8.64645C6.15829 8.45118 5.84171 8.45118 5.64645 8.64645C5.45118 8.84171 5.45118 9.15829 5.64645 9.35355L7.64645 11.35355C7.84171 11.54882 8.15829 11.54882 8.35355 11.35355L10.3536 9.35355C10.5488 9.15829 10.5488 8.84171 10.3536 8.64645C10.1583 8.45118 9.84171 8.45118 9.64645 8.64645L8.5 9.79289zM0 16H16V0H0V16z" />
    <glyph glyph-name="arrow-up-to-dotted-line"
      unicode="&#xEA40;"
      horiz-adv-x="16" d="M4 14.5C4 14.22386 3.77614 14 3.5 14C3.22386 14 3 14.22386 3 14.5C3 14.77614 3.22386 15 3.5 15C3.77614 15 4 14.77614 4 14.5zM8 0.5C8.27614 0.5 8.5 0.7239 8.5 1V9.79289L11.6464 6.64645C11.8417 6.45118 12.1583 6.45118 12.3536 6.64645C12.5488 6.84171 12.5488 7.15829 12.3536 7.35355L8.35355 11.35355C8.15829 11.54882 7.84171 11.54882 7.64645 11.35355L3.64645 7.35355C3.45118 7.15829 3.45118 6.84171 3.64645 6.64645C3.84171 6.45118 4.15829 6.45118 4.35355 6.64645L7.5 9.79289V1C7.5 0.7239 7.72386 0.5 8 0.5zM6.5 14C6.77614 14 7 14.22386 7 14.5C7 14.77614 6.77614 15 6.5 15C6.22386 15 6 14.77614 6 14.5C6 14.22386 6.22386 14 6.5 14zM10 14.5C10 14.22386 9.77614 14 9.5 14C9.22386 14 9 14.22386 9 14.5C9 14.77614 9.22386 15 9.5 15C9.77614 15 10 14.77614 10 14.5zM12.5 14C12.7761 14 13 14.22386 13 14.5C13 14.77614 12.7761 15 12.5 15C12.2239 15 12 14.77614 12 14.5C12 14.22386 12.2239 14 12.5 14z" />
    <glyph glyph-name="arrow-up-to-double-line"
      unicode="&#xEA41;"
      horiz-adv-x="16" d="M2.5 15C2.5 15.276142 2.72386 15.5 3 15.5H13C13.2761 15.5 13.5 15.276142 13.5 15C13.5 14.72386 13.2761 14.5 13 14.5H3C2.72386 14.5 2.5 14.72386 2.5 15zM8 0.5C8.27614 0.5 8.5 0.7239 8.5 1V9.79289L12.6464 5.6464C12.8417 5.4512 13.1583 5.4512 13.3536 5.6464C13.5488 5.8417 13.5488 6.15829 13.3536 6.35355L8.35355 11.35355C8.25605 11.45106 8.12829 11.49988 8.00049 11.5H13C13.2761 11.5 13.5 11.72386 13.5 12C13.5 12.27614 13.2761 12.5 13 12.5H3C2.72386 12.5 2.5 12.27614 2.5 12C2.5 11.72386 2.72386 11.5 3 11.5H7.99951C7.87171 11.49988 7.74395 11.45106 7.64645 11.35355L2.64645 6.35355C2.45118 6.15829 2.45118 5.8417 2.64645 5.6464C2.84171 5.4512 3.15829 5.4512 3.35355 5.6464L7.5 9.79289V1C7.5 0.7239 7.72386 0.5 8 0.5z" />
    <glyph glyph-name="arrow-up-to-line"
      unicode="&#xEA42;"
      horiz-adv-x="16" d="M3 15.5C2.72386 15.5 2.5 15.276142 2.5 15C2.5 14.72386 2.72386 14.5 3 14.5H7.99951C7.87171 14.49988 7.74395 14.45106 7.64645 14.35355L2.64645 9.35355C2.45118 9.15829 2.45118 8.84171 2.64645 8.64645C2.84171 8.45118 3.15829 8.45118 3.35355 8.64645L7.5 12.79289V1C7.5 0.7239 7.72386 0.5 8 0.5C8.27614 0.5 8.5 0.7239 8.5 1V12.79289L12.6464 8.64645C12.8417 8.45118 13.1583 8.45118 13.3536 8.64645C13.5488 8.84171 13.5488 9.15829 13.3536 9.35355L8.35355 14.35355C8.25605 14.45106 8.12829 14.49988 8.00049 14.5H13C13.2761 14.5 13.5 14.72386 13.5 15C13.5 15.276142 13.2761 15.5 13 15.5H3z" />
    <glyph glyph-name="arrow-up-wide-short"
      unicode="&#xEA43;"
      horiz-adv-x="16" d="M4.5 15C4.5 15.276142 4.27614 15.5 4 15.5C3.72386 15.5 3.5 15.276142 3.5 15V2.2071L2.35355 3.3536C2.15829 3.5488 1.84171 3.5488 1.64645 3.3536C1.45118 3.1583 1.45118 2.8417 1.64645 2.6464L3.64645 0.6464C3.84171 0.4512 4.15829 0.4512 4.35355 0.6464L6.35355 2.6464C6.54882 2.8417 6.54882 3.1583 6.35355 3.3536C6.15829 3.5488 5.84171 3.5488 5.64645 3.3536L4.5 2.2071V15zM8 15.5C7.72386 15.5 7.5 15.276142 7.5 15C7.5 14.72386 7.72386 14.5 8 14.5H15C15.2761 14.5 15.5 14.72386 15.5 15C15.5 15.276142 15.2761 15.5 15 15.5H8zM8 11.5C7.72386 11.5 7.5 11.27614 7.5 11C7.5 10.72386 7.72386 10.5 8 10.5H13C13.2761 10.5 13.5 10.72386 13.5 11C13.5 11.27614 13.2761 11.5 13 11.5H8zM7.5 7C7.5 7.27614 7.72386 7.5 8 7.5H11C11.2761 7.5 11.5 7.27614 11.5 7C11.5 6.72386 11.2761 6.5 11 6.5H8C7.72386 6.5 7.5 6.72386 7.5 7z" />
    <glyph glyph-name="arrow-up"
      unicode="&#xEA44;"
      horiz-adv-x="16" d="M8 0.5C8.27614 0.5 8.5 0.7239 8.5 1V13.79289L12.6464 9.64645C12.8417 9.45118 13.1583 9.45118 13.3536 9.64645C13.5488 9.84171 13.5488 10.15829 13.3536 10.35355L8.35355 15.353554C8.15829 15.548816 7.84171 15.548816 7.64645 15.353554L2.64645 10.35355C2.45118 10.15829 2.45118 9.84171 2.64645 9.64645C2.84171 9.45118 3.15829 9.45118 3.35355 9.64645L7.5 13.79289V1C7.5 0.7239 7.72386 0.5 8 0.5z" />
    <glyph glyph-name="arrows-all-directions"
      unicode="&#xEA45;"
      horiz-adv-x="16" d="M8.35355 15.353553C8.15829 15.548816 7.84171 15.548816 7.64645 15.353553L5.64645 13.35355C5.45118 13.15829 5.45118 12.84171 5.64645 12.64645C5.84171 12.45118 6.15829 12.45118 6.35355 12.64645L7.5 13.79289V11C7.5 10.72386 7.72386 10.5 8 10.5C8.27614 10.5 8.5 10.72386 8.5 11V13.79289L9.64645 12.64645C9.84171 12.45118 10.1583 12.45118 10.3536 12.64645C10.5488 12.84171 10.5488 13.15829 10.3536 13.35355L8.35355 15.353553zM8.5 5C8.5 5.2761 8.27614 5.5 8 5.5C7.72386 5.5 7.5 5.2761 7.5 5V2.2071L6.35355 3.3536C6.15829 3.5488 5.84171 3.5488 5.64645 3.3536C5.45118 3.1583 5.45118 2.8417 5.64645 2.6464L7.64645 0.6464C7.84171 0.4512 8.15829 0.4512 8.35355 0.6464L10.3536 2.6464C10.5488 2.8417 10.5488 3.1583 10.3536 3.3536C10.1583 3.5488 9.84171 3.5488 9.64645 3.3536L8.5 2.2071V5zM3.35355 10.35355C3.54882 10.15829 3.54882 9.84171 3.35355 9.64645L2.20711 8.5H5C5.27614 8.5 5.5 8.27614 5.5 8C5.5 7.72386 5.27614 7.5 5 7.5H2.20711L3.35355 6.35355C3.54882 6.15829 3.54882 5.8417 3.35355 5.6464C3.15829 5.4512 2.84171 5.4512 2.64645 5.6464L0.646447 7.64645C0.451184 7.84171 0.451184 8.15829 0.646447 8.35355L2.64645 10.35355C2.84171 10.54882 3.15829 10.54882 3.35355 10.35355zM13.3536 10.35355C13.1583 10.54882 12.8417 10.54882 12.6464 10.35355C12.4512 10.15829 12.4512 9.84171 12.6464 9.64645L13.7929 8.5H11C10.7239 8.5 10.5 8.27614 10.5 8C10.5 7.72386 10.7239 7.5 11 7.5H13.7929L12.6464 6.35355C12.4512 6.15829 12.4512 5.8417 12.6464 5.6464C12.8417 5.4512 13.1583 5.4512 13.3536 5.6464L15.3536 7.64645C15.5488 7.84171 15.5488 8.15829 15.3536 8.35355L13.3536 10.35355zM0 16H16V0H0V16z" />
    <glyph glyph-name="arrows-compare"
      unicode="&#xEA46;"
      horiz-adv-x="16" d="M10.3536 14.64645C10.5488 14.84171 10.5488 15.158291 10.3536 15.353553C10.1583 15.548816 9.84171 15.548816 9.64645 15.353553L6.64645 12.35355C6.45118 12.15829 6.45118 11.84171 6.64645 11.64645L9.64645 8.64645C9.84171 8.45118 10.1583 8.45118 10.3536 8.64645C10.5488 8.84171 10.5488 9.15829 10.3536 9.35355L8.20711 11.5H15C15.2761 11.5 15.5 11.72386 15.5 12C15.5 12.27614 15.2761 12.5 15 12.5H8.20711L10.3536 14.64645zM6.35355 7.35355C6.15829 7.54882 5.84171 7.54882 5.64645 7.35355C5.45118 7.15829 5.45118 6.84171 5.64645 6.64645L7.79289 4.5H1C0.723858 4.5 0.5 4.2761 0.5 4C0.5 3.7239 0.723858 3.5 1 3.5H7.79289L5.64645 1.3536C5.45118 1.1583 5.45118 0.8417 5.64645 0.6464C5.84171 0.4512 6.15829 0.4512 6.35355 0.6464L9.35355 3.6464C9.54882 3.8417 9.54882 4.1583 9.35355 4.3536L6.35355 7.35355zM0 16H16V0H0V16z" />
    <glyph glyph-name="arrows-cross"
      unicode="&#xEA47;"
      horiz-adv-x="16" d="M1.35355 15.353553C1.15829 15.548816 0.841709 15.548816 0.646447 15.353553C0.451184 15.158291 0.451184 14.84171 0.646447 14.64645L7.29289 8L0.646447 1.3536C0.451184 1.1583 0.451184 0.8417 0.646447 0.6464C0.841709 0.4512 1.15829 0.4512 1.35355 0.6464L8.35355 7.64645L14.5 13.79289V11C14.5 10.72386 14.7239 10.5 15 10.5C15.2761 10.5 15.5 10.72386 15.5 11V15C15.5 15.276142 15.2761 15.5 15 15.5H11C10.7239 15.5 10.5 15.276142 10.5 15C10.5 14.72386 10.7239 14.5 11 14.5H13.7929L8 8.70711L1.35355 15.353553zM10.3536 6.35355C10.1583 6.54882 9.84171 6.54882 9.64645 6.35355C9.45118 6.15829 9.45118 5.8417 9.64645 5.6464L13.7929 1.5H11C10.7239 1.5 10.5 1.2761 10.5 1C10.5 0.7239 10.7239 0.5 11 0.5H15C15.2761 0.5 15.5 0.7239 15.5 1V5C15.5 5.2761 15.2761 5.5 15 5.5C14.7239 5.5 14.5 5.2761 14.5 5V2.2071L10.3536 6.35355zM0 16H16V0H0V16z" />
    <glyph glyph-name="arrows-direction-to-the-lines"
      unicode="&#xEA48;"
      horiz-adv-x="16" d="M1.5 15C1.5 15.276142 1.27614 15.5 1 15.5C0.723858 15.5 0.5 15.276142 0.5 15V1C0.5 0.7239 0.723858 0.5 1 0.5C1.27614 0.5 1.5 0.7239 1.5 1V15zM15 15.5C15.2761 15.5 15.5 15.276142 15.5 15V1C15.5 0.7239 15.2761 0.5 15 0.5C14.7239 0.5 14.5 0.7239 14.5 1V15C14.5 15.276142 14.7239 15.5 15 15.5zM9.64645 12.64645C9.45118 12.84171 9.45118 13.15829 9.64645 13.35355C9.84171 13.54882 10.1583 13.54882 10.3536 13.35355L12.3536 11.35355C12.4473 11.25978 12.5 11.13261 12.5 11C12.5 10.86739 12.4473 10.74021 12.3536 10.64645L10.3536 8.64645C10.1583 8.45118 9.84171 8.45118 9.64645 8.64645C9.45118 8.84171 9.45118 9.15829 9.64645 9.35355L10.7929 10.5H7C6.72386 10.5 6.5 10.72386 6.5 11C6.5 11.27614 6.72386 11.5 7 11.5H10.7929L9.64645 12.64645zM6.35355 6.64645C6.54882 6.84171 6.54882 7.15829 6.35355 7.35355C6.15829 7.54882 5.84171 7.54882 5.64645 7.35355L3.64645 5.3536C3.55268 5.2598 3.5 5.1326 3.5 5C3.5 4.8674 3.55268 4.7402 3.64645 4.6464L5.64645 2.6464C5.84171 2.4512 6.15829 2.4512 6.35355 2.6464C6.54882 2.8417 6.54882 3.1583 6.35355 3.3536L5.20711 4.5H9C9.27614 4.5 9.5 4.7239 9.5 5C9.5 5.2761 9.27614 5.5 9 5.5H5.20711L6.35355 6.64645zM0 16H16V0H0V16z" />
    <glyph glyph-name="arrows-inside"
      unicode="&#xEA49;"
      horiz-adv-x="16" d="M15.3536 14.64644C15.5488 14.84171 15.5488 15.158289 15.3536 15.353552C15.1583 15.548815 14.8417 15.548816 14.6465 15.353555L10.5 11.20714L10.5 14.99996C10.5 15.276099 10.2761 15.499956 9.99999 15.499956C9.72385 15.499956 9.49999 15.276098 9.49999 14.99996L9.5 10.00004C9.5 9.7239 9.72386 9.50004 10 9.50004H15C15.2761 9.50004 15.5 9.7239 15.5 10.00004C15.5 10.27618 15.2761 10.50004 15 10.50004H11.2071L15.3536 14.64644zM0.500002 6C0.500002 5.7239 0.72386 5.5 1 5.5H4.79289L0.646448 1.3536C0.451185 1.1583 0.451184 0.8418 0.646445 0.6465C0.841706 0.4512 1.15829 0.4512 1.35355 0.6465L5.50001 4.7929L5.50001 1.0001C5.50001 0.7239 5.72387 0.5001 6.00001 0.5001C6.27615 0.5001 6.50001 0.7239 6.50001 1.0001L6.50001 6C6.50001 6.27614 6.27615 6.5 6.00001 6.5H1C0.72386 6.5 0.500002 6.27614 0.500002 6zM0 16H16V0H0V16z" />
    <glyph glyph-name="arrows-left-right-brackets"
      unicode="&#xEA4A;"
      horiz-adv-x="16" d="M0.5 15C0.5 15.276142 0.723858 15.5 1 15.5H4C4.27614 15.5 4.5 15.276142 4.5 15C4.5 14.72386 4.27614 14.5 4 14.5H1.5V1.5H4C4.27614 1.5 4.5 1.2761 4.5 1C4.5 0.7239 4.27614 0.5 4 0.5H1C0.723858 0.5 0.5 0.7239 0.5 1V15zM6.35355 10.35355C6.54882 10.15829 6.54882 9.84171 6.35355 9.64645L5.20711 8.5H10.7929L9.64645 9.64645C9.45118 9.84171 9.45118 10.15829 9.64645 10.35355C9.84171 10.54882 10.1583 10.54882 10.3536 10.35355L12.3536 8.35355C12.4473 8.25978 12.5 8.13261 12.5 8C12.5 7.86739 12.4473 7.74021 12.3536 7.64645L10.3536 5.6464C10.1583 5.4512 9.84171 5.4512 9.64645 5.6464C9.45118 5.8417 9.45118 6.15829 9.64645 6.35355L10.7929 7.5H5.20711L6.35355 6.35355C6.54882 6.15829 6.54882 5.8417 6.35355 5.6464C6.15829 5.4512 5.84171 5.4512 5.64645 5.6464L3.64645 7.64645C3.55268 7.74021 3.5 7.86739 3.5 8C3.5 8.13261 3.55268 8.25978 3.64645 8.35355L5.64645 10.35355C5.84171 10.54882 6.15829 10.54882 6.35355 10.35355zM12 15.5C11.7239 15.5 11.5 15.276142 11.5 15C11.5 14.72386 11.7239 14.5 12 14.5H14.5V1.5H12C11.7239 1.5 11.5 1.2761 11.5 1C11.5 0.7239 11.7239 0.5 12 0.5H15C15.2761 0.5 15.5 0.7239 15.5 1V15C15.5 15.276142 15.2761 15.5 15 15.5H12zM0 16H16V0H0V16z" />
    <glyph glyph-name="arrows-left-right-to-lines"
      unicode="&#xEA4B;"
      horiz-adv-x="16" d="M1 14.5C1.27614 14.5 1.5 14.27614 1.5 14V2C1.5 1.7239 1.27614 1.5 1 1.5C0.723858 1.5 0.5 1.7239 0.5 2V14C0.5 14.27614 0.723858 14.5 1 14.5zM15 14.5C15.2761 14.5 15.5 14.27614 15.5 14V2C15.5 1.7239 15.2761 1.5 15 1.5C14.7239 1.5 14.5 1.7239 14.5 2V14C14.5 14.27614 14.7239 14.5 15 14.5zM6.35355 9.64645C6.54882 9.84171 6.54882 10.15829 6.35355 10.35355C6.15829 10.54882 5.84171 10.54882 5.64645 10.35355L3.64645 8.35355C3.45118 8.15829 3.45118 7.84171 3.64645 7.64645L5.64645 5.6464C5.84171 5.4512 6.15829 5.4512 6.35355 5.6464C6.54882 5.8417 6.54882 6.15829 6.35355 6.35355L5.20711 7.5H10.7929L9.64645 6.35355C9.45118 6.15829 9.45118 5.8417 9.64645 5.6464C9.84171 5.4512 10.1583 5.4512 10.3536 5.6464L12.3536 7.64645C12.5488 7.84171 12.5488 8.15829 12.3536 8.35355L10.3536 10.35355C10.1583 10.54882 9.84171 10.54882 9.64645 10.35355C9.45118 10.15829 9.45118 9.84171 9.64645 9.64645L10.7929 8.5H5.20711L6.35355 9.64645z" />
    <glyph glyph-name="arrows-maximize"
      unicode="&#xEA4C;"
      horiz-adv-x="16" d="M1 15.5C0.723862 15.5 0.500004 15.276143 0.500004 15L0.5 10.00008C0.5 9.72394 0.723857 9.50008 1 9.50008C1.27614 9.50008 1.5 9.72394 1.5 10.00008L1.5 13.7929L5.64646 9.64648C5.84172 9.45122 6.1583 9.45123 6.35356 9.64649C6.54883 9.84175 6.54882 10.15833 6.35356 10.3536L2.20712 14.5H6.00001C6.27615 14.5 6.50001 14.72386 6.50001 15C6.50001 15.276142 6.27615 15.5 6.00001 15.5H1zM9.49997 15C9.49997 14.72386 9.72383 14.5 9.99997 14.5H13.7929L9.64642 10.3536C9.45115 10.15833 9.45115 9.84175 9.64641 9.64649C9.84168 9.45123 10.1583 9.45122 10.3535 9.64648L14.5 13.7929L14.5 10.00008C14.5 9.72394 14.7238 9.50008 15 9.50008C15.2761 9.50008 15.5 9.72394 15.5 10.00008L15.5 15C15.5 15.276143 15.2761 15.5 15 15.5H9.99997C9.72383 15.5 9.49997 15.276142 9.49997 15zM6.35356 6.35355C6.54883 6.15829 6.54882 5.8417 6.35356 5.6464L2.20712 1.5H6.00001C6.27615 1.5 6.50001 1.2762 6.50001 1C6.50001 0.7239 6.27615 0.5 6.00001 0.5H1C0.723862 0.5 0.500004 0.7239 0.500004 1L0.5 6C0.5 6.2761 0.723857 6.49996 1 6.49996C1.27614 6.49996 1.5 6.2761 1.5 6L1.5 2.2071L5.64646 6.35355C5.84172 6.54882 6.1583 6.54881 6.35356 6.35355zM10.3536 6.35355C10.1583 6.54882 9.84171 6.54881 9.64645 6.35355C9.45118 6.15829 9.45119 5.8417 9.64645 5.6464L13.7929 1.5H10C9.72386 1.5 9.5 1.2762 9.5 1C9.5 0.7239 9.72386 0.5 10 0.5H15C15.2761 0.5 15.5 0.7239 15.5 1L15.5 6C15.5 6.2761 15.2762 6.49996 15 6.49996C14.7239 6.49996 14.5 6.2761 14.5 6L14.5 2.2071L10.3536 6.35355zM0 16H16V0H0V16z" />
    <glyph glyph-name="arrows-minimize"
      unicode="&#xEA4D;"
      horiz-adv-x="16" d="M6.5 15C6.5 15.276142 6.27614 15.5 6 15.5C5.72385 15.5 5.5 15.276142 5.5 15V11.20711L1.35355 15.353551C1.15829 15.548813 0.841709 15.548813 0.646447 15.353551C0.451184 15.158288 0.451184 14.84171 0.646447 14.64644L4.79289 10.5H1C0.723858 10.5 0.5 10.27614 0.5 10C0.5 9.72386 0.723858 9.5 1 9.5H6C6.27614 9.5 6.5 9.72386 6.5 10V15zM10 15.499997C9.72386 15.499997 9.5 15.276139 9.5 15V10.00001C9.5 9.72386 9.72386 9.50001 10 9.50001H15C15.2761 9.50001 15.5 9.72386 15.5 10.00001C15.5 10.27615 15.2761 10.50001 15 10.50001H11.2071L15.3536 14.64644C15.5488 14.84171 15.5488 15.158288 15.3536 15.35355C15.1583 15.548812 14.8417 15.548813 14.6464 15.353551L10.5 11.20711V15C10.5 15.276139 10.2761 15.499997 10 15.499997zM1 5.5C0.723858 5.5 0.5 5.7239 0.5 6C0.5 6.27614 0.723858 6.5 1 6.5H6C6.27614 6.5 6.5 6.27614 6.5 6L6.5 1C6.5 0.7239 6.27614 0.5 6 0.5C5.72386 0.5 5.5 0.7239 5.5 1L5.5 4.7929L1.35355 0.6464C1.15829 0.4512 0.841709 0.4512 0.646447 0.6464C0.451185 0.8417 0.451184 1.1583 0.646446 1.3536L4.79289 5.5H1zM10 6.5C9.72386 6.5 9.5 6.27614 9.5 6V1C9.5 0.7239 9.72386 0.5 10 0.5C10.2761 0.5 10.5 0.7239 10.5 1V4.7929L14.6464 0.6464C14.8417 0.4512 15.1583 0.4512 15.3536 0.6464C15.5488 0.8417 15.5488 1.1583 15.3536 1.3536L11.2071 5.5H15C15.2761 5.5 15.5 5.7239 15.5 6C15.5 6.27614 15.2761 6.5 15 6.5H10zM0 16H16V0H0V16z" />
    <glyph glyph-name="arrows-out"
      unicode="&#xEA4E;"
      horiz-adv-x="16" d="M9.5 15C9.5 14.72386 9.72386 14.5 10 14.5H13.7929L9.64645 10.3536C9.45119 10.15833 9.45118 9.84175 9.64645 9.64649C9.84171 9.45123 10.1583 9.45122 10.3536 9.64648L14.5 13.7929L14.5 10.00008C14.5 9.72394 14.7239 9.50008 15 9.50008C15.2762 9.50008 15.5 9.72394 15.5 10.00008L15.5 15C15.5 15.276143 15.2761 15.5 15 15.5H10C9.72386 15.5 9.5 15.276142 9.5 15zM6.35356 5.6464C6.54882 5.8417 6.54883 6.15829 6.35356 6.35355C6.1583 6.54881 5.84172 6.54882 5.64646 6.35355L1.5 2.2071L1.5 6C1.5 6.2761 1.27614 6.49996 1 6.49996C0.723857 6.49996 0.5 6.2761 0.5 6L0.500004 1C0.500004 0.7239 0.723861 0.5 1 0.5H6.00001C6.27615 0.5 6.50001 0.7239 6.50001 1C6.50001 1.2762 6.27615 1.5 6.00001 1.5H2.20712L6.35356 5.6464zM0 16H16V0H0V16z" />
    <glyph glyph-name="arrows-repeat-h"
      unicode="&#xEA4F;"
      horiz-adv-x="16" d="M3.35355 14.64645C3.54882 14.84171 3.54882 15.158291 3.35355 15.353553C3.15829 15.548816 2.84171 15.548816 2.64645 15.353553L0.646447 13.35355C0.552678 13.25979 0.5 13.13261 0.5 13C0.5 12.86739 0.552678 12.74022 0.646447 12.64645L2.64645 10.64645C2.84171 10.45118 3.15829 10.45118 3.35355 10.64645C3.54882 10.84171 3.54882 11.15829 3.35355 11.35355L2.20711 12.5L14 12.5C14.2761 12.5 14.5 12.27614 14.5 12V9C14.5 8.72386 14.7239 8.5 15 8.5C15.2761 8.5 15.5 8.72386 15.5 9V12C15.5 12.82843 14.8284 13.5 14 13.5L2.20711 13.5L3.35355 14.64645zM15.3536 2.6464C15.5488 2.8417 15.5488 3.1583 15.3536 3.3536L13.3536 5.3536C13.1583 5.5488 12.8417 5.5488 12.6464 5.3536C12.4512 5.1583 12.4512 4.8417 12.6464 4.6464L13.7929 3.5H2C1.72386 3.5 1.5 3.7239 1.5 4L1.5 7C1.5 7.27614 1.27614 7.5 1 7.5C0.723858 7.5 0.5 7.27614 0.5 7V4C0.5 3.1716 1.17157 2.5 2 2.5H13.7929L12.6464 1.3536C12.4512 1.1583 12.4512 0.8417 12.6464 0.6464C12.8417 0.4512 13.1583 0.4512 13.3536 0.6464L15.3536 2.6464zM0 16H16V0H0V16z" />
    <glyph glyph-name="arrows-repeat-v"
      unicode="&#xEA50;"
      horiz-adv-x="16" d="M13.3536 15.353553C13.2598 15.447322 13.1326 15.5 13 15.5C12.8674 15.5 12.7402 15.447322 12.6464 15.353553L10.6464 13.35355C10.4512 13.15829 10.4512 12.84171 10.6464 12.64645C10.8417 12.45118 11.1583 12.45118 11.3536 12.64645L12.5 13.79289V2C12.5 1.7239 12.2761 1.5 12 1.5H9C8.72386 1.5 8.5 1.2761 8.5 1C8.5 0.7239 8.72386 0.5 9 0.5H12C12.8284 0.5 13.5 1.1716 13.5 2V13.79289L14.6464 12.64645C14.8417 12.45118 15.1583 12.45118 15.3536 12.64645C15.5488 12.84171 15.5488 13.15829 15.3536 13.35355L13.3536 15.353553zM4.00024 15.499837C3.17172 15.499972 2.5 14.82836 2.5 13.99984V2.2071L1.35355 3.3536C1.15829 3.5488 0.841709 3.5488 0.646447 3.3536C0.451184 3.1583 0.451184 2.8417 0.646447 2.6464L2.64645 0.6464C2.84171 0.4512 3.15829 0.4512 3.35355 0.6464L5.35355 2.6464C5.54882 2.8417 5.54882 3.1583 5.35355 3.3536C5.15829 3.5488 4.84171 3.5488 4.64645 3.3536L3.5 2.2071V13.99984C3.5 14.27601 3.72391 14.49988 4.00008 14.49984L6.99992 14.49935C7.27606 14.4993 7.49995 14.72312 7.5 14.99927C7.50004 15.27541 7.27622 15.499304 7.00008 15.499349L4.00024 15.499837zM0 16H16V0H0V16z" />
    <glyph glyph-name="arrows-rotate-h"
      unicode="&#xEA51;"
      horiz-adv-x="16" d="M15.2237 12.44721C15.4707 12.32372 15.5708 12.02338 15.4473 11.77639L14.4473 9.77639C14.3238 9.5294 14.0235 9.42929 13.7765 9.55279L11.7765 10.55279C11.5295 10.67628 11.4294 10.97662 11.5529 11.22361C11.6764 11.4706 11.9767 11.57071 12.2237 11.44721L12.9275 11.09534C12.6053 11.5433 12.1735 11.97148 11.6493 12.34152C10.6648 13.03643 9.38937 13.5 8.00011 13.5C6.61085 13.5 5.33542 13.03644 4.35095 12.34152C3.35993 11.64197 2.69915 10.73461 2.48518 9.87873C2.41821 9.61083 2.14674 9.44795 1.87884 9.51493C1.61094 9.5819 1.44806 9.85337 1.51504 10.12127C1.80107 11.26539 2.64029 12.35803 3.77427 13.15848C4.9148 13.96357 6.38937 14.5 8.00011 14.5C9.61085 14.5 11.0854 13.96356 12.226 13.15848C12.9938 12.61649 13.6265 11.94055 14.0438 11.20536L14.5529 12.22361C14.6764 12.4706 14.9767 12.57071 15.2237 12.44721zM14.2237 6.44721C14.4707 6.32372 14.5708 6.02338 14.4473 5.7764C13.3964 3.6745 11.2548 1.5 8.00011 1.5C6.38937 1.5 4.9148 2.0364 3.77427 2.8415C3.00645 3.3835 2.37376 4.0595 1.95644 4.7946L1.44732 3.7764C1.32383 3.5294 1.02349 3.4293 0.776502 3.5528C0.529513 3.6763 0.429401 3.9766 0.552896 4.2236L1.5529 6.22361C1.67639 6.4706 1.97673 6.57071 2.22372 6.44721L4.22372 5.4472C4.47071 5.3237 4.57082 5.0234 4.44732 4.7764C4.32383 4.5294 4.02349 4.4293 3.7765 4.5528L3.07276 4.9047C3.39492 4.4567 3.82673 4.0285 4.35095 3.6585C5.33542 2.9636 6.61085 2.5 8.00011 2.5C10.7455 2.5 12.6038 4.3255 13.5529 6.22361C13.6764 6.4706 13.9767 6.57071 14.2237 6.44721z" />
    <glyph glyph-name="arrows-rotate-v"
      unicode="&#xEA52;"
      horiz-adv-x="16" d="M3.55279 15.22361C3.67628 15.470599 3.97662 15.570711 4.22361 15.447216L6.22361 14.44722C6.4706 14.32372 6.57071 14.02339 6.44721 13.7764L5.44721 11.7764C5.32372 11.52941 5.02338 11.42929 4.77639 11.55279C4.5294 11.67628 4.42929 11.97662 4.55279 12.22361L4.90466 12.92735C4.4567 12.60519 4.02852 12.17338 3.65848 11.64916C2.96356 10.66469 2.5 9.38926 2.5 8C2.5 6.61074 2.96356 5.3353 3.65848 4.3508C4.35803 3.3598 5.26539 2.699 6.12127 2.4851C6.38917 2.4181 6.55205 2.1466 6.48507 1.8787C6.4181 1.6108 6.14663 1.448 5.87873 1.5149C4.73461 1.801 3.64197 2.6402 2.84152 3.7742C2.03643 4.9147 1.5 6.38926 1.5 8C1.5 9.61074 2.03643 11.08531 2.84152 12.22584C3.38351 12.99366 4.05945 13.62635 4.79464 14.04367L3.77639 14.55279C3.5294 14.67628 3.42929 14.97662 3.55279 15.22361zM9.55279 14.22361C9.67628 14.4706 9.97662 14.57071 10.2236 14.44722C12.3255 13.39629 14.5 11.25465 14.5 8C14.5 6.38926 13.9636 4.9147 13.1585 3.7742C12.6165 3.0063 11.9405 2.3737 11.2054 1.9563L12.2236 1.4472C12.4706 1.3237 12.5707 1.0234 12.4472 0.7764C12.3237 0.5294 12.0234 0.4293 11.7764 0.5528L9.77639 1.5528C9.5294 1.6763 9.42929 1.9766 9.55279 2.2236L10.5528 4.2236C10.6763 4.4706 10.9766 4.5707 11.2236 4.4472C11.4706 4.3237 11.5707 4.0234 11.4472 3.7764L11.0953 3.0727C11.5433 3.3948 11.9715 3.8266 12.3415 4.3508C13.0364 5.3353 13.5 6.61074 13.5 8C13.5 10.74536 11.6745 12.60372 9.77639 13.55279C9.5294 13.67628 9.42929 13.97662 9.55279 14.22361zM0 0L0 16L16 16L16 0L0 0z" />
    <glyph glyph-name="arrows-shuffle"
      unicode="&#xEA53;"
      horiz-adv-x="16" d="M14.3536 13.35355C14.1583 13.54882 13.8417 13.54882 13.6464 13.35355C13.4512 13.15829 13.4512 12.84171 13.6464 12.64645L13.7929 12.5H12L11.9984 12.5C10.2576 12.49939 8.74788 11.51033 8 10.0636C7.25189 11.51078 5.74147 12.5 4 12.5H1C0.723858 12.5 0.5 12.27614 0.5 12C0.5 11.72386 0.723858 11.5 1 11.5H4C5.933 11.5 7.5 9.933 7.5 8C7.5 6.067 5.933 4.5 4 4.5H1C0.723858 4.5 0.5 4.2761 0.5 4C0.5 3.7239 0.723858 3.5 1 3.5H4C5.74147 3.5 7.25189 4.4892 8 5.9364C8.74811 4.4892 10.2585 3.5 12 3.5H13.7929L13.6464 3.3536C13.4512 3.1583 13.4512 2.8417 13.6464 2.6464C13.8417 2.4512 14.1583 2.4512 14.3536 2.6464L15.3536 3.6464C15.5488 3.8417 15.5488 4.1583 15.3536 4.3536L14.3536 5.3536C14.1583 5.5488 13.8417 5.5488 13.6464 5.3536C13.4512 5.1583 13.4512 4.8417 13.6464 4.6464L13.7929 4.5H12C10.067 4.5 8.5 6.067 8.5 8C8.5 9.933 10.067 11.5 12 11.5H13.7929L13.6464 11.35355C13.4512 11.15829 13.4512 10.84171 13.6464 10.64645C13.8417 10.45118 14.1583 10.45118 14.3536 10.64645L15.3536 11.64645C15.5488 11.84171 15.5488 12.15829 15.3536 12.35355L14.3536 13.35355z" />
    <glyph glyph-name="arrows-swap-h"
      unicode="&#xEA54;"
      horiz-adv-x="16" d="M12.3536 15.353553C12.1583 15.548816 11.8417 15.548816 11.6464 15.353553C11.4512 15.158291 11.4512 14.84171 11.6464 14.64645L13.7929 12.5H7C6.72386 12.5 6.5 12.27614 6.5 12C6.5 11.72386 6.72386 11.5 7 11.5H13.7929L11.6464 9.35355C11.4512 9.15829 11.4512 8.84171 11.6464 8.64645C11.8417 8.45118 12.1583 8.45118 12.3536 8.64645L15.3536 11.64645C15.5488 11.84171 15.5488 12.15829 15.3536 12.35355L12.3536 15.353553zM4.35355 6.64645C4.54882 6.84171 4.54882 7.15829 4.35355 7.35355C4.15829 7.54882 3.84171 7.54882 3.64645 7.35355L0.646447 4.3536C0.451184 4.1583 0.451184 3.8417 0.646447 3.6464L3.64645 0.6464C3.84171 0.4512 4.15829 0.4512 4.35355 0.6464C4.54882 0.8417 4.54882 1.1583 4.35355 1.3536L2.20711 3.5H9C9.27614 3.5 9.5 3.7239 9.5 4C9.5 4.2761 9.27614 4.5 9 4.5H2.20711L4.35355 6.64645zM0 16H16V0H0V16z" />
    <glyph glyph-name="arrows-swap-v"
      unicode="&#xEA55;"
      horiz-adv-x="16" d="M4.35355 15.353553C4.15829 15.548816 3.84171 15.548816 3.64645 15.353553L0.646447 12.35355C0.451184 12.15829 0.451184 11.84171 0.646447 11.64645C0.841709 11.45118 1.15829 11.45118 1.35355 11.64645L3.5 13.79289L3.5 7C3.5 6.72386 3.72386 6.5 4 6.5C4.27614 6.5 4.5 6.72386 4.5 7L4.5 13.79289L6.64645 11.64645C6.84171 11.45118 7.15829 11.45118 7.35355 11.64645C7.54882 11.84171 7.54882 12.15829 7.35355 12.35355L4.35355 15.353553zM12.5 9C12.5 9.27614 12.2761 9.5 12 9.5C11.7239 9.5 11.5 9.27614 11.5 9V2.2071L9.35355 4.3536C9.15829 4.5488 8.84171 4.5488 8.64645 4.3536C8.45118 4.1583 8.45118 3.8417 8.64645 3.6464L11.6464 0.6464C11.7402 0.5527 11.8674 0.5 12 0.5C12.1326 0.5 12.2598 0.5527 12.3536 0.6464L15.3536 3.6464C15.5488 3.8417 15.5488 4.1583 15.3536 4.3536C15.1583 4.5488 14.8417 4.5488 14.6464 4.3536L12.5 2.2071V9zM0 16H16V0H0V16z" />
    <glyph glyph-name="arrows-up-down-to-lines"
      unicode="&#xEA56;"
      horiz-adv-x="16" d="M0.5 15C0.5 15.276142 0.723858 15.5 1 15.5H15C15.2761 15.5 15.5 15.276142 15.5 15C15.5 14.72386 15.2761 14.5 15 14.5L1 14.5C0.723858 14.5 0.5 14.72386 0.5 15zM0.5 1C0.5 1.2761 0.723858 1.5 1 1.5L15 1.5C15.2761 1.5 15.5 1.2761 15.5 1C15.5 0.7239 15.2761 0.5 15 0.5L1 0.5C0.723858 0.5 0.5 0.7239 0.5 1zM8.35355 12.35355C8.25979 12.44732 8.13261 12.5 8 12.5C7.86739 12.5 7.74022 12.44732 7.64645 12.35355L5.64645 10.35355C5.45118 10.15829 5.45118 9.84171 5.64645 9.64645C5.84171 9.45118 6.15829 9.45118 6.35355 9.64645L7.5 10.79289V5.2071L6.35355 6.35355C6.15829 6.54882 5.84171 6.54882 5.64645 6.35355C5.45118 6.15829 5.45118 5.8417 5.64645 5.6464L7.64645 3.6464C7.74021 3.5527 7.86739 3.5 8 3.5C8.13261 3.5 8.25978 3.5527 8.35355 3.6464L10.3536 5.6464C10.5488 5.8417 10.5488 6.15829 10.3536 6.35355C10.1583 6.54882 9.84171 6.54882 9.64645 6.35355L8.5 5.2071V10.79289L9.64645 9.64645C9.84171 9.45118 10.1583 9.45118 10.3536 9.64645C10.5488 9.84171 10.5488 10.15829 10.3536 10.35355L8.35355 12.35355zM0 16H16V0H0V16z" />
    <glyph glyph-name="at-sign"
      unicode="&#xEA57;"
      horiz-adv-x="16" d="M1.5 8C1.5 11.58985 4.41015 14.5 8 14.5C11.5899 14.5 14.5 11.58985 14.5 8C14.5 7.17157 13.8284 6.5 13 6.5C12.1716 6.5 11.5 7.17157 11.5 8V11C11.5 11.27614 11.2761 11.5 11 11.5C10.7239 11.5 10.5 11.27614 10.5 11V10.44949C9.86474 11.09777 8.97934 11.5 8 11.5C6.067 11.5 4.5 9.933 4.5 8C4.5 6.067 6.067 4.5 8 4.5C9.34627 4.5 10.515 5.2601 11.1005 6.37457C11.559 5.8392 12.2399 5.5 13 5.5C14.3807 5.5 15.5 6.61929 15.5 8C15.5 12.14214 12.1421 15.5 8 15.5C3.85786 15.5 0.5 12.14214 0.5 8C0.5 3.8579 3.85786 0.5 8 0.5C9.92057 0.5 11.6736 1.2225 13.0001 2.4099C13.2059 2.594 13.2234 2.9101 13.0392 3.1159C12.8551 3.3216 12.539 3.3391 12.3332 3.155C11.1829 2.1254 9.66509 1.5 8 1.5C4.41015 1.5 1.5 4.4101 1.5 8zM10.5 8C10.5 9.38071 9.38071 10.5 8 10.5C6.61929 10.5 5.5 9.38071 5.5 8C5.5 6.61929 6.61929 5.5 8 5.5C9.38071 5.5 10.5 6.61929 10.5 8zM0 16H16V0H0V16z" />
    <glyph glyph-name="audio-speakers"
      unicode="&#xEA58;"
      horiz-adv-x="16" d="M1.5 14C1.5 14.82843 2.17157 15.5 3 15.5H13C13.8284 15.5 14.5 14.82843 14.5 14V2C14.5 1.1716 13.8284 0.5 13 0.5H3C2.17157 0.5 1.5 1.1716 1.5 2V14zM3 14.5C2.72386 14.5 2.5 14.27614 2.5 14V2C2.5 1.7239 2.72386 1.5 3 1.5H13C13.2761 1.5 13.5 1.7239 13.5 2V14C13.5 14.27614 13.2761 14.5 13 14.5H3zM8 12.5C7.17157 12.5 6.5 11.82843 6.5 11C6.5 10.17157 7.17157 9.5 8 9.5C8.82843 9.5 9.5 10.17157 9.5 11C9.5 11.82843 8.82843 12.5 8 12.5zM5.5 11C5.5 12.38071 6.61929 13.5 8 13.5C9.38071 13.5 10.5 12.38071 10.5 11C10.5 9.61929 9.38071 8.5 8 8.5C6.61929 8.5 5.5 9.61929 5.5 11zM6.5 5C6.5 5.8284 7.17157 6.5 8 6.5C8.82843 6.5 9.5 5.8284 9.5 5C9.5 4.1716 8.82843 3.5 8 3.5C7.17157 3.5 6.5 4.1716 6.5 5zM8 7.5C6.61929 7.5 5.5 6.38071 5.5 5C5.5 3.6193 6.61929 2.5 8 2.5C9.38071 2.5 10.5 3.6193 10.5 5C10.5 6.38071 9.38071 7.5 8 7.5z" />
    <glyph glyph-name="award"
      unicode="&#xEA59;"
      horiz-adv-x="16" d="M4.50002 11C4.50002 12.933 6.06702 14.5 8.00002 14.5C9.93301 14.5 11.5 12.933 11.5 11C11.5 9.067 9.93301 7.5 8.00002 7.5C6.06702 7.5 4.50002 9.067 4.50002 11zM8.00002 15.5C5.51473 15.5 3.50002 13.48528 3.50002 11C3.50002 9.65994 4.08577 8.45669 5.0152 7.63231L2.53334 1.1795C2.46198 0.9939 2.50732 0.7837 2.64883 0.6441C2.79034 0.5045 3.00113 0.4619 3.18571 0.5358L8.00002 2.4615L12.8143 0.5358C12.9989 0.4619 13.2097 0.5045 13.3512 0.6441C13.4927 0.7837 13.5381 0.9939 13.4667 1.1795L10.9848 7.63231C11.9143 8.45669 12.5 9.65994 12.5 11C12.5 13.48528 10.4853 15.5 8.00002 15.5zM10.1409 7.0409C9.50423 6.69591 8.775 6.5 8.00002 6.5C7.22503 6.5 6.4958 6.69591 5.85915 7.0409L3.8779 1.8897L7.81432 3.4642C7.93353 3.5119 8.0665 3.5119 8.18571 3.4642L12.1221 1.8897L10.1409 7.0409z" />
    <glyph glyph-name="bag"
      unicode="&#xEA5A;"
      horiz-adv-x="16" d="M5.54998 12.5C5.78162 13.64112 6.79049 14.5 7.99997 14.5C9.20945 14.5 10.2183 13.64112 10.45 12.5H5.54998zM4.53542 12.5C4.77803 14.19615 6.23674 15.5 7.99997 15.5C9.76321 15.5 11.2219 14.19615 11.4645 12.5H12.1654C12.8903 12.5 13.5115 11.98156 13.6412 11.26833L15.2776 2.2683C15.445 1.3476 14.7376 0.5 13.8018 0.5H2.19819C1.26233 0.5 0.55497 1.3476 0.722381 2.2683L2.35874 11.26833C2.48842 11.98156 3.10962 12.5 3.83455 12.5H4.53542zM11 11.5H4.99997H3.83455C3.59291 11.5 3.38584 11.32719 3.34261 11.08944L1.70625 2.0894C1.65045 1.7825 1.88623 1.5 2.19819 1.5H13.8018C14.1137 1.5 14.3495 1.7825 14.2937 2.0894L12.6573 11.08944C12.6141 11.32719 12.407 11.5 12.1654 11.5H11zM0 16H16V0H0V16z" />
    <glyph glyph-name="balloon"
      unicode="&#xEA5B;"
      horiz-adv-x="16" d="M11 15.5C11 15.223858 10.7761 15 10.5 15H8.5V13.46456C10.1961 13.22194 11.5 11.76324 11.5 10V4C11.5 2.067 9.933 0.5 8 0.5C6.067 0.5 4.5 2.067 4.5 4V5V9V10C4.5 11.76324 5.80385 13.22194 7.5 13.46456V15H5.5C5.22386 15 5 15.223858 5 15.5C5 15.776142 5.22386 16 5.5 16H10.5C10.7761 16 11 15.776142 11 15.5zM8 12.5C6.61929 12.5 5.5 11.38071 5.5 10V9.5H7C7.27614 9.5 7.5 9.27614 7.5 9C7.5 8.72386 7.27614 8.5 7 8.5H5.5V5.5H7C7.27614 5.5 7.5 5.2761 7.5 5C7.5 4.7239 7.27614 4.5 7 4.5H5.5V4C5.5 2.6193 6.61929 1.5 8 1.5C9.38071 1.5 10.5 2.6193 10.5 4V10C10.5 11.38071 9.38071 12.5 8 12.5z" />
    <glyph glyph-name="ban"
      unicode="&#xEA5C;"
      horiz-adv-x="16" d="M3.76025 12.92707C4.89843 13.90736 6.38001 14.5 8 14.5C11.5899 14.5 14.5 11.58985 14.5 8C14.5 6.38001 13.9074 4.8984 12.9271 3.7602C12.9068 3.7935 12.8823 3.8248 12.8536 3.8536L3.85355 12.85355C3.82482 12.88229 3.79346 12.90679 3.76025 12.92707zM3.07293 12.23975C2.09264 11.10157 1.5 9.61999 1.5 8C1.5 4.4101 4.41015 1.5 8 1.5C9.61999 1.5 11.1016 2.0926 12.2398 3.0729C12.2065 3.0932 12.1752 3.1177 12.1464 3.1464L3.14645 12.14645C3.11771 12.17518 3.09321 12.20654 3.07293 12.23975zM8 15.5C3.85786 15.5 0.5 12.14214 0.5 8C0.5 3.8579 3.85786 0.5 8 0.5C12.1421 0.5 15.5 3.8579 15.5 8C15.5 12.14214 12.1421 15.5 8 15.5zM0 16H16V0H0V16z" />
    <glyph glyph-name="bar-axis"
      unicode="&#xEA5D;"
      horiz-adv-x="16" d="M1.5 15C1.5 15.276142 1.27614 15.5 1 15.5C0.723858 15.5 0.5 15.276142 0.5 15V1C0.5 0.7239 0.723858 0.5 1 0.5H5H9H13H15C15.2761 0.5 15.5 0.7239 15.5 1C15.5 1.2761 15.2761 1.5 15 1.5H13.5L13.5 12C13.5 12.27614 13.2761 12.5 13 12.5C12.7239 12.5 12.5 12.27614 12.5 12L12.5 1.5H9.5V13C9.5 13.27614 9.27614 13.5 9 13.5C8.72386 13.5 8.5 13.27614 8.5 13V1.5H5.5L5.5 10C5.5 10.27614 5.27614 10.5 5 10.5C4.72386 10.5 4.5 10.27614 4.5 10L4.5 1.5H1.5V15zM0 16H16V0H0V16z" />
    <glyph glyph-name="bar-basic"
      unicode="&#xEA5E;"
      horiz-adv-x="16" d="M15.5 15C15.5 15.276142 15.2761 15.5 15 15.5C14.7239 15.5 14.5 15.276142 14.5 15V1C14.5 0.7239 14.7239 0.5 15 0.5C15.2761 0.5 15.5 0.7239 15.5 1V15zM10.5 12C10.5 12.27614 10.2761 12.5 10 12.5C9.72386 12.5 9.5 12.27614 9.5 12L9.5 1C9.5 0.7239 9.72386 0.5 10 0.5C10.2761 0.5 10.5 0.7239 10.5 1L10.5 12zM5 8.5C5.27614 8.5 5.5 8.27614 5.5 8L5.5 1C5.5 0.7239 5.27614 0.5 5 0.5C4.72386 0.5 4.5 0.7239 4.5 1L4.5 8C4.5 8.27614 4.72386 8.5 5 8.5zM1.5 5C1.5 5.2761 1.27614 5.5 1 5.5C0.723858 5.5 0.5 5.2761 0.5 5V1C0.5 0.7239 0.723858 0.5 1 0.5C1.27614 0.5 1.5 0.7239 1.5 1L1.5 5zM0 16H16V0H0V16z" />
    <glyph glyph-name="bar-columns-axis-x"
      unicode="&#xEA5F;"
      horiz-adv-x="16" d="M0.5 14C0.5 14.82843 1.17157 15.5 2 15.5H4C4.82843 15.5 5.5 14.82843 5.5 14V7.5H9.5V11C9.5 11.82843 10.1716 12.5 11 12.5H13C13.8284 12.5 14.5 11.82843 14.5 11V1.5H15C15.2761 1.5 15.5 1.2761 15.5 1C15.5 0.7239 15.2761 0.5 15 0.5H14H10H5H1C0.723858 0.5 0.5 0.7239 0.5 1V14zM9.5 6.5H5.5V1.5H9.5V6.5zM4.5 7V14C4.5 14.27614 4.27614 14.5 4 14.5H2C1.72386 14.5 1.5 14.27614 1.5 14V1.5H4.5V7zM13.5 1.5V11C13.5 11.27614 13.2761 11.5 13 11.5H11C10.7239 11.5 10.5 11.27614 10.5 11V7V1.5H13.5zM0 16H16V0H0V16z" />
    <glyph glyph-name="bar-columns"
      unicode="&#xEA60;"
      horiz-adv-x="16" d="M2 15.5C1.17157 15.5 0.5 14.82843 0.5 14V2C0.5 1.1716 1.17157 0.5 2 0.5H4C4.82843 0.5 5.5 1.1716 5.5 2V14C5.5 14.82843 4.82843 15.5 4 15.5H2zM1.5 14C1.5 14.27614 1.72386 14.5 2 14.5H4C4.27614 14.5 4.5 14.27614 4.5 14V2C4.5 1.7239 4.27614 1.5 4 1.5H2C1.72386 1.5 1.5 1.7239 1.5 2V14zM12 12.5C11.1716 12.5 10.5 11.82843 10.5 11V2C10.5 1.1716 11.1716 0.5 12 0.5H14C14.8284 0.5 15.5 1.1716 15.5 2V11C15.5 11.82843 14.8284 12.5 14 12.5H12zM11.5 11C11.5 11.27614 11.7239 11.5 12 11.5H14C14.2761 11.5 14.5 11.27614 14.5 11V2C14.5 1.7239 14.2761 1.5 14 1.5H12C11.7239 1.5 11.5 1.7239 11.5 2V11zM0 16H16V0H0V16z" />
    <glyph glyph-name="bar-histogram"
      unicode="&#xEA61;"
      horiz-adv-x="16" d="M8 15.5C8.27614 15.5 8.5 15.276142 8.5 15V13C8.5 12.72386 8.27614 12.5 8 12.5C7.72386 12.5 7.5 12.72386 7.5 13V15C7.5 15.276142 7.72386 15.5 8 15.5zM1.5 12C1.5 12.27614 1.27614 12.5 1 12.5C0.723858 12.5 0.5 12.27614 0.5 12V10C0.5 9.72386 0.723858 9.5 1 9.5C1.27614 9.5 1.5 9.72386 1.5 10L1.5 12zM15 8.5C15.2761 8.5 15.5 8.27614 15.5 8V1C15.5 0.7239 15.2761 0.5 15 0.5C14.7239 0.5 14.5 0.7239 14.5 1V8C14.5 8.27614 14.7239 8.5 15 8.5zM1 6.5C1.27614 6.5 1.5 6.27614 1.5 6L1.5 1C1.5 0.7239 1.27614 0.5 1 0.5C0.723858 0.5 0.5 0.7239 0.5 1V6C0.5 6.27614 0.723858 6.5 1 6.5zM15.5 13C15.5 13.27614 15.2761 13.5 15 13.5C14.7239 13.5 14.5 13.27614 14.5 13V12C14.5 11.72386 14.7239 11.5 15 11.5C15.2761 11.5 15.5 11.72386 15.5 12V13zM8 3.5C8.27614 3.5 8.5 3.2761 8.5 3V1C8.5 0.7239 8.27614 0.5 8 0.5C7.72386 0.5 7.5 0.7239 7.5 1V3C7.5 3.2761 7.72386 3.5 8 3.5zM8.5 10C8.5 10.27614 8.27614 10.5 8 10.5C7.72386 10.5 7.5 10.27614 7.5 10V6C7.5 5.7239 7.72386 5.5 8 5.5C8.27614 5.5 8.5 5.7239 8.5 6V10zM0 16H16V0H0V16z" />
    <glyph glyph-name="bar-square"
      unicode="&#xEA62;"
      horiz-adv-x="16" d="M2 15.5C1.17157 15.5 0.5 14.82843 0.5 14V2C0.5 1.1716 1.17157 0.5 2 0.5H14C14.8284 0.5 15.5 1.1716 15.5 2V14C15.5 14.82843 14.8284 15.5 14 15.5H2zM1.5 14C1.5 14.27614 1.72386 14.5 2 14.5H14C14.2761 14.5 14.5 14.27614 14.5 14V2C14.5 1.7239 14.2761 1.5 14 1.5H2C1.72386 1.5 1.5 1.7239 1.5 2V14zM12.5 6C12.5 6.27614 12.2761 6.5 12 6.5C11.7239 6.5 11.5 6.27614 11.5 6V4C11.5 3.7239 11.7239 3.5 12 3.5C12.2761 3.5 12.5 3.7239 12.5 4V6zM8 12.5C8.27614 12.5 8.5 12.27614 8.5 12V4C8.5 3.7239 8.27614 3.5 8 3.5C7.72386 3.5 7.5 3.7239 7.5 4L7.5 12C7.5 12.27614 7.72386 12.5 8 12.5zM4.5 9C4.5 9.27614 4.27614 9.5 4 9.5C3.72386 9.5 3.5 9.27614 3.5 9L3.5 4C3.5 3.7239 3.72386 3.5 4 3.5C4.27614 3.5 4.5 3.7239 4.5 4V9zM0 16H16V0H0V16z" />
    <glyph glyph-name="bar-stacked-axis"
      unicode="&#xEA63;"
      horiz-adv-x="16" d="M1 15.5C1.27614 15.5 1.5 15.276142 1.5 15V1.5H4.5V5C4.5 5.2761 4.72386 5.5 5 5.5C5.27614 5.5 5.5 5.2761 5.5 5V1.5H13.5V6C13.5 6.27614 13.7239 6.5 14 6.5C14.2761 6.5 14.5 6.27614 14.5 6V1.5H15C15.2761 1.5 15.5 1.2761 15.5 1C15.5 0.7239 15.2761 0.5 15 0.5H14H5H1C0.723858 0.5 0.5 0.7239 0.5 1V15C0.5 15.276142 0.723858 15.5 1 15.5zM14 12.5C14.2761 12.5 14.5 12.27614 14.5 12V10C14.5 9.72386 14.2761 9.5 14 9.5C13.7239 9.5 13.5 9.72386 13.5 10V12C13.5 12.27614 13.7239 12.5 14 12.5zM10.5 13C10.5 13.27614 10.2761 13.5 10 13.5C9.72386 13.5 9.5 13.27614 9.5 13V12C9.5 11.72386 9.72386 11.5 10 11.5C10.2761 11.5 10.5 11.72386 10.5 12V13zM5 10.5C5.27614 10.5 5.5 10.27614 5.5 10V8C5.5 7.72386 5.27614 7.5 5 7.5C4.72386 7.5 4.5 7.72386 4.5 8V10C4.5 10.27614 4.72386 10.5 5 10.5zM10 8.5C10.2761 8.5 10.5 8.27614 10.5 8V5C10.5 4.7239 10.2761 4.5 10 4.5C9.72386 4.5 9.5 4.7239 9.5 5V8C9.5 8.27614 9.72386 8.5 10 8.5zM0 16H16V0H0V16z" />
    <glyph glyph-name="bar-stacked"
      unicode="&#xEA64;"
      horiz-adv-x="16" d="M15 15.5C15.2761 15.5 15.5 15.276142 15.5 15V13C15.5 12.72386 15.2761 12.5 15 12.5C14.7239 12.5 14.5 12.72386 14.5 13V15C14.5 15.276142 14.7239 15.5 15 15.5zM8 10.5C8.27614 10.5 8.5 10.27614 8.5 10V7C8.5 6.72386 8.27614 6.5 8 6.5C7.72386 6.5 7.5 6.72386 7.5 7V10C7.5 10.27614 7.72386 10.5 8 10.5zM8 5.5C8.27614 5.5 8.5 5.2761 8.5 5V1C8.5 0.7239 8.27614 0.5 8 0.5C7.72386 0.5 7.5 0.7239 7.5 1V5C7.5 5.2761 7.72386 5.5 8 5.5zM1.5 3.5C1.5 3.7761 1.27614 4 1 4C0.723858 4 0.5 3.7761 0.5 3.5V1C0.5 0.7239 0.723858 0.5 1 0.5C1.27614 0.5 1.5 0.7239 1.5 1L1.5 3.5zM15 3.5C15.2761 3.5 15.5 3.2761 15.5 3V1C15.5 0.7239 15.2761 0.5 15 0.5C14.7239 0.5 14.5 0.7239 14.5 1V3C14.5 3.2761 14.7239 3.5 15 3.5zM15.5 10C15.5 10.27614 15.2761 10.5 15 10.5C14.7239 10.5 14.5 10.27614 14.5 10V6C14.5 5.7239 14.7239 5.5 15 5.5C15.2761 5.5 15.5 5.7239 15.5 6V10zM1 5C1.27614 5 1.5 5.2239 1.5 5.5C1.5 5.7761 1.27614 6 1 6C0.723858 6 0.5 5.7761 0.5 5.5C0.5 5.2239 0.723858 5 1 5zM0 16H16V0H0V16z" />
    <glyph glyph-name="barcode"
      unicode="&#xEA65;"
      horiz-adv-x="16" d="M1.5 15C1.5 15.276142 1.27614 15.5 1 15.5C0.723858 15.5 0.5 15.276142 0.5 15V1C0.5 0.7239 0.723858 0.5 1 0.5C1.27614 0.5 1.5 0.7239 1.5 1V15zM3.5 15C3.5 15.276142 3.27614 15.5 3 15.5C2.72386 15.5 2.5 15.276142 2.5 15V6C2.5 5.7239 2.72386 5.5 3 5.5C3.27614 5.5 3.5 5.7239 3.5 6V15zM15.5 15C15.5 15.276142 15.2761 15.5 15 15.5C14.7239 15.5 14.5 15.276142 14.5 15V1C14.5 0.7239 14.7239 0.5 15 0.5C15.2761 0.5 15.5 0.7239 15.5 1V15zM7 15.5C7.27614 15.5 7.5 15.276142 7.5 15V6C7.5 5.7239 7.27614 5.5 7 5.5C6.72386 5.5 6.5 5.7239 6.5 6V15C6.5 15.276142 6.72386 15.5 7 15.5zM10.5 15C10.5 15.276142 10.2761 15.5 10 15.5C9.72386 15.5 9.5 15.276142 9.5 15V6C9.5 5.7239 9.72386 5.5 10 5.5C10.2761 5.5 10.5 5.7239 10.5 6V15zM13 15.5C13.2761 15.5 13.5 15.276142 13.5 15V1C13.5 0.7239 13.2761 0.5 13 0.5C12.7239 0.5 12.5 0.7239 12.5 1V15C12.5 15.276142 12.7239 15.5 13 15.5zM0 16H16V0H0V16z" />
    <glyph glyph-name="bars-sort"
      unicode="&#xEA66;"
      horiz-adv-x="16" d="M0.5 12C0.5 12.27614 0.723858 12.5 1 12.5H15C15.2761 12.5 15.5 12.27614 15.5 12C15.5 11.72386 15.2761 11.5 15 11.5H1C0.723858 11.5 0.5 11.72386 0.5 12zM0.5 8C0.5 8.27614 0.723858 8.5 1 8.5H11C11.2761 8.5 11.5 8.27614 11.5 8C11.5 7.72386 11.2761 7.5 11 7.5H1C0.723858 7.5 0.5 7.72386 0.5 8zM1 4.5C0.723858 4.5 0.5 4.2761 0.5 4C0.5 3.7239 0.723858 3.5 1 3.5H7C7.27614 3.5 7.5 3.7239 7.5 4C7.5 4.2761 7.27614 4.5 7 4.5H1z" />
    <glyph glyph-name="bars"
      unicode="&#xEA67;"
      horiz-adv-x="16" d="M0.5 12C0.5 12.27614 0.723858 12.5 1 12.5H15C15.2761 12.5 15.5 12.27614 15.5 12C15.5 11.72386 15.2761 11.5 15 11.5H1C0.723858 11.5 0.5 11.72386 0.5 12zM0.5 8C0.5 8.27614 0.723858 8.5 1 8.5H15C15.2761 8.5 15.5 8.27614 15.5 8C15.5 7.72386 15.2761 7.5 15 7.5H1C0.723858 7.5 0.5 7.72386 0.5 8zM1 4.5C0.723858 4.5 0.5 4.2761 0.5 4C0.5 3.7239 0.723858 3.5 1 3.5H15C15.2761 3.5 15.5 3.7239 15.5 4C15.5 4.2761 15.2761 4.5 15 4.5H1z" />
    <glyph glyph-name="battery-bolt"
      unicode="&#xEA68;"
      horiz-adv-x="16" d="M8.45957 14.80303C8.56835 15.056849 8.45077 15.350789 8.19696 15.459566C7.94314 15.568344 7.64921 15.450768 7.54043 15.196954L4.54043 8.19695C4.47422 8.04247 4.49006 7.86506 4.58258 7.72475C4.6751 7.58444 4.83193 7.49999 5 7.49999H8.24173L5.54043 1.197C5.43165 0.9431 5.54923 0.6492 5.80304 0.5404C6.05686 0.4316 6.35079 0.5492 6.45957 0.803L9.45957 7.80303C9.52578 7.95752 9.50994 8.13493 9.41742 8.27524C9.3249 8.41555 9.16807 8.49999 9 8.49999H5.75827L8.45957 14.80303zM2 11.49999C1.72386 11.49999 1.5 11.27614 1.5 10.99999V5C1.5 4.7239 1.72386 4.5 2 4.5H5C5.27614 4.5 5.5 4.2761 5.5 4C5.5 3.7239 5.27614 3.5 5 3.5H2C1.17157 3.5 0.5 4.1716 0.5 5V10.99999C0.5 11.82842 1.17157 12.49999 2 12.49999H4C4.27614 12.49999 4.5 12.27614 4.5 11.99999C4.5 11.72385 4.27614 11.49999 4 11.49999H2zM8.5 11.99999C8.5 12.27614 8.72386 12.49999 9 12.49999H12C12.8284 12.49999 13.5 11.82842 13.5 10.99999V5C13.5 4.1716 12.8284 3.5 12 3.5H10C9.72386 3.5 9.5 3.7239 9.5 4C9.5 4.2761 9.72386 4.5 10 4.5H12C12.2761 4.5 12.5 4.7239 12.5 5V10.99999C12.5 11.27614 12.2761 11.49999 12 11.49999H9C8.72386 11.49999 8.5 11.72385 8.5 11.99999zM15 10.49999C15.2761 10.49999 15.5 10.27614 15.5 9.99999V6C15.5 5.7239 15.2761 5.5 15 5.5C14.7239 5.5 14.5 5.7239 14.5 6V9.99999C14.5 10.27614 14.7239 10.49999 15 10.49999zM0 16H16V0H0V16z" />
    <glyph glyph-name="battery-empty"
      unicode="&#xEA69;"
      horiz-adv-x="16" d="M2 12.5C1.17157 12.5 0.5 11.82843 0.5 11V5C0.5 4.1716 1.17157 3.5 2 3.5H12C12.8284 3.5 13.5 4.1716 13.5 5V11C13.5 11.82843 12.8284 12.5 12 12.5H2zM1.5 11C1.5 11.27614 1.72386 11.5 2 11.5H12C12.2761 11.5 12.5 11.27614 12.5 11V5C12.5 4.7239 12.2761 4.5 12 4.5H2C1.72386 4.5 1.5 4.7239 1.5 5V11zM15.5 10C15.5 10.27614 15.2761 10.5 15 10.5C14.7239 10.5 14.5 10.27614 14.5 10V6C14.5 5.7239 14.7239 5.5 15 5.5C15.2761 5.5 15.5 5.7239 15.5 6V10z" />
    <glyph glyph-name="battery-exclametion-mark"
      unicode="&#xEA6A;"
      horiz-adv-x="16" d="M2 12.5C1.17157 12.5 0.5 11.82843 0.5 11V5C0.5 4.1716 1.17157 3.5 2 3.5H12C12.8284 3.5 13.5 4.1716 13.5 5V11C13.5 11.82843 12.8284 12.5 12 12.5H2zM1.5 11C1.5 11.27614 1.72386 11.5 2 11.5H12C12.2761 11.5 12.5 11.27614 12.5 11V5C12.5 4.7239 12.2761 4.5 12 4.5H2C1.72386 4.5 1.5 4.7239 1.5 5V11zM15.5 10C15.5 10.27614 15.2761 10.5 15 10.5C14.7239 10.5 14.5 10.27614 14.5 10V6C14.5 5.7239 14.7239 5.5 15 5.5C15.2761 5.5 15.5 5.7239 15.5 6V10zM7 11C7.27614 11 7.5 10.77614 7.5 10.5V7.5C7.5 7.22386 7.27614 7 7 7C6.72386 7 6.5 7.22386 6.5 7.5V10.5C6.5 10.77614 6.72386 11 7 11zM7 5C7.27614 5 7.5 5.2239 7.5 5.5C7.5 5.7761 7.27614 6 7 6C6.72386 6 6.5 5.7761 6.5 5.5C6.5 5.2239 6.72386 5 7 5z" />
    <glyph glyph-name="battery-full"
      unicode="&#xEA6B;"
      horiz-adv-x="16" d="M0.5 11C0.5 11.82843 1.17157 12.5 2 12.5H12C12.8284 12.5 13.5 11.82843 13.5 11V5C13.5 4.1716 12.8284 3.5 12 3.5H2C1.17157 3.5 0.5 4.1716 0.5 5V11zM2 11.5C1.72386 11.5 1.5 11.27614 1.5 11V5C1.5 4.7239 1.72386 4.5 2 4.5H12C12.2761 4.5 12.5 4.7239 12.5 5V11C12.5 11.27614 12.2761 11.5 12 11.5H2zM3 10.5C3.27614 10.5 3.5 10.27614 3.5 10V6C3.5 5.7239 3.27614 5.5 3 5.5C2.72386 5.5 2.5 5.7239 2.5 6V10C2.5 10.27614 2.72386 10.5 3 10.5zM5 10.5C5.27614 10.5 5.5 10.27614 5.5 10V6C5.5 5.7239 5.27614 5.5 5 5.5C4.72386 5.5 4.5 5.7239 4.5 6V10C4.5 10.27614 4.72386 10.5 5 10.5zM7.5 10C7.5 10.27614 7.27614 10.5 7 10.5C6.72386 10.5 6.5 10.27614 6.5 10V6C6.5 5.7239 6.72386 5.5 7 5.5C7.27614 5.5 7.5 5.7239 7.5 6V10zM9 10.5C9.27614 10.5 9.5 10.27614 9.5 10V6C9.5 5.7239 9.27614 5.5 9 5.5C8.72386 5.5 8.5 5.7239 8.5 6V10C8.5 10.27614 8.72386 10.5 9 10.5zM11.5 10C11.5 10.27614 11.2761 10.5 11 10.5C10.7239 10.5 10.5 10.27614 10.5 10V6C10.5 5.7239 10.7239 5.5 11 5.5C11.2761 5.5 11.5 5.7239 11.5 6V10zM15.5 10C15.5 10.27614 15.2761 10.5 15 10.5C14.7239 10.5 14.5 10.27614 14.5 10V6C14.5 5.7239 14.7239 5.5 15 5.5C15.2761 5.5 15.5 5.7239 15.5 6V10z" />
    <glyph glyph-name="battery-half"
      unicode="&#xEA6C;"
      horiz-adv-x="16" d="M0.5 11C0.5 11.82843 1.17157 12.5 2 12.5H12C12.8284 12.5 13.5 11.82843 13.5 11V5C13.5 4.1716 12.8284 3.5 12 3.5H2C1.17157 3.5 0.5 4.1716 0.5 5V11zM2 11.5C1.72386 11.5 1.5 11.27614 1.5 11V5C1.5 4.7239 1.72386 4.5 2 4.5H12C12.2761 4.5 12.5 4.7239 12.5 5V11C12.5 11.27614 12.2761 11.5 12 11.5H2zM3.5 10C3.5 10.27614 3.27614 10.5 3 10.5C2.72386 10.5 2.5 10.27614 2.5 10V6C2.5 5.7239 2.72386 5.5 3 5.5C3.27614 5.5 3.5 5.7239 3.5 6V10zM5.5 10C5.5 10.27614 5.27614 10.5 5 10.5C4.72386 10.5 4.5 10.27614 4.5 10V6C4.5 5.7239 4.72386 5.5 5 5.5C5.27614 5.5 5.5 5.7239 5.5 6V10zM15.5 10C15.5 10.27614 15.2761 10.5 15 10.5C14.7239 10.5 14.5 10.27614 14.5 10V6C14.5 5.7239 14.7239 5.5 15 5.5C15.2761 5.5 15.5 5.7239 15.5 6V10z" />
    <glyph glyph-name="battery-minus"
      unicode="&#xEA6D;"
      horiz-adv-x="16" d="M0.5 11C0.5 11.82843 1.17157 12.5 2 12.5H12C12.8284 12.5 13.5 11.82843 13.5 11V5C13.5 4.1716 12.8284 3.5 12 3.5H2C1.17157 3.5 0.5 4.1716 0.5 5V11zM2 11.5C1.72386 11.5 1.5 11.27614 1.5 11V5C1.5 4.7239 1.72386 4.5 2 4.5H12C12.2761 4.5 12.5 4.7239 12.5 5V11C12.5 11.27614 12.2761 11.5 12 11.5H2zM4.5 8C4.5 8.27614 4.72386 8.5 5 8.5H9C9.27614 8.5 9.5 8.27614 9.5 8C9.5 7.72386 9.27614 7.5 9 7.5H5C4.72386 7.5 4.5 7.72386 4.5 8zM15.5 10C15.5 10.27614 15.2761 10.5 15 10.5C14.7239 10.5 14.5 10.27614 14.5 10V6C14.5 5.7239 14.7239 5.5 15 5.5C15.2761 5.5 15.5 5.7239 15.5 6V10z" />
    </font>
</defs>
</svg>
