<svg width="16" height="16" viewBox="0 0 16 16" fill="none" xmlns="http://www.w3.org/2000/svg">
<path fill-rule="evenodd" clip-rule="evenodd" d="M10.3536 7.64645C10.5488 7.84171 10.5488 8.15829 10.3536 8.35355L8.70711 10L10.3536 11.6464C10.5488 11.8417 10.5488 12.1583 10.3536 12.3536C10.1583 12.5488 9.84171 12.5488 9.64645 12.3536L8 10.7071L6.35355 12.3536C6.15829 12.5488 5.84171 12.5488 5.64645 12.3536C5.45118 12.1583 5.45118 11.8417 5.64645 11.6464L7.29289 10L5.64645 8.35355C5.45118 8.15829 5.45118 7.84171 5.64645 7.64645C5.84171 7.45118 6.15829 7.45118 6.35355 7.64645L8 9.29289L9.64645 7.64645C9.84171 7.45118 10.1583 7.45118 10.3536 7.64645Z" fill="#777B92"/>
<path fill-rule="evenodd" clip-rule="evenodd" d="M5.5 3.5V2C5.5 1.17157 6.17157 0.5 7 0.5H9C9.82843 0.5 10.5 1.17157 10.5 2V3.5H15C15.2761 3.5 15.5 3.72386 15.5 4C15.5 4.27614 15.2761 4.5 15 4.5H13.5V14C13.5 14.8284 12.8284 15.5 12 15.5H4C3.17157 15.5 2.5 14.8284 2.5 14V4.5H1C0.723858 4.5 0.5 4.27614 0.5 4C0.5 3.72386 0.723858 3.5 1 3.5H5.5ZM7 1.5C6.72386 1.5 6.5 1.72386 6.5 2V3.5H9.5V2C9.5 1.72386 9.27614 1.5 9 1.5H7ZM3.5 4.5V14C3.5 14.2761 3.72386 14.5 4 14.5H12C12.2761 14.5 12.5 14.2761 12.5 14V4.5H3.5Z" fill="#777B92"/>
</svg>
