<svg width="22" height="22" viewBox="0 0 22 22" fill="none" xmlns="http://www.w3.org/2000/svg">
<path d="M12 10H13C13.2652 10 13.5196 10.1054 13.7071 10.2929C13.8946 10.4804 14 10.7348 14 11C14 11.2652 13.8946 11.5196 13.7071 11.7071C13.5196 11.8946 13.2652 12 13 12H12V13C12 13.2652 11.8946 13.5196 11.7071 13.7071C11.5196 13.8946 11.2652 14 11 14C10.7348 14 10.4804 13.8946 10.2929 13.7071C10.1054 13.5196 10 13.2652 10 13V12H9C8.73478 12 8.48043 11.8946 8.29289 11.7071C8.10536 11.5196 8 11.2652 8 11C8 10.7348 8.10536 10.4804 8.29289 10.2929C8.48043 10.1054 8.73478 10 9 10H10V9C10 8.73478 10.1054 8.48043 10.2929 8.29289C10.4804 8.10536 10.7348 8 11 8C11.2652 8 11.5196 8.10536 11.7071 8.29289C11.8946 8.48043 12 8.73478 12 9V10Z" fill="#97A3BA"/>
<path fill-rule="evenodd" clip-rule="evenodd" d="M5.4443 2.6853C7.08879 1.58649 9.02219 1 11 1C12.3132 1 13.6136 1.25866 14.8268 1.7612C16.0401 2.26375 17.1425 3.00035 18.0711 3.92893C18.9997 4.85752 19.7363 5.95991 20.2388 7.17317C20.7413 8.38642 21 9.68678 21 11C21 12.9778 20.4135 14.9112 19.3147 16.5557C18.2159 18.2002 16.6541 19.4819 14.8268 20.2388C12.9996 20.9957 10.9889 21.1937 9.0491 20.8079C7.10929 20.422 5.32746 19.4696 3.92894 18.0711C2.53041 16.6725 1.578 14.8907 1.19215 12.9509C0.806299 11.0111 1.00433 9.00043 1.76121 7.17317C2.51809 5.3459 3.79981 3.78412 5.4443 2.6853ZM6.55544 17.6518C7.87104 18.5308 9.41775 19 11 19C13.1217 19 15.1566 18.1571 16.6569 16.6569C18.1572 15.1566 19 13.1217 19 11C19 9.41775 18.5308 7.87103 17.6518 6.55544C16.7727 5.23984 15.5233 4.21447 14.0615 3.60896C12.5997 3.00346 10.9911 2.84504 9.43928 3.15372C7.88743 3.4624 6.46197 4.22433 5.34315 5.34315C4.22433 6.46197 3.4624 7.88743 3.15372 9.43928C2.84504 10.9911 3.00347 12.5997 3.60897 14.0615C4.21447 15.5233 5.23985 16.7727 6.55544 17.6518Z" fill="#97A3BA"/>
</svg>
