<svg width="16" height="16" viewBox="0 0 16 16" fill="none" xmlns="http://www.w3.org/2000/svg">
<path fill-rule="evenodd" clip-rule="evenodd" d="M10 0.5H15C15.2761 0.5 15.5 0.723858 15.5 1V6C15.5 6.27614 15.2761 6.5 15 6.5C14.7239 6.5 14.5 6.27614 14.5 6V2.20711L8.35355 8.35355C8.15829 8.54882 7.84171 8.54882 7.64645 8.35355C7.45118 8.15829 7.45118 7.84171 7.64645 7.64645L13.7929 1.5H10C9.72386 1.5 9.5 1.27614 9.5 1C9.5 0.723858 9.72386 0.5 10 0.5Z" fill="#777B92"/>
<path fill-rule="evenodd" clip-rule="evenodd" d="M2.91602 15V11.3636H4.35067C4.62648 11.3636 4.86145 11.4163 5.05558 11.5217C5.2497 11.6258 5.39767 11.7708 5.49947 11.9567C5.60245 12.1413 5.65394 12.3544 5.65394 12.5959C5.65394 12.8374 5.60186 13.0504 5.49769 13.2351C5.39353 13.4186 5.2426 13.5624 5.04492 13.6666C4.84843 13.7695 4.6105 13.821 4.33114 13.821H3.68484V15H2.91602ZM3.68484 13.2049H4.20685C4.42702 13.2049 4.59097 13.1487 4.69869 13.0362C4.80759 12.9226 4.86204 12.7758 4.86204 12.5959C4.86204 12.4148 4.80759 12.2692 4.69869 12.1591C4.59097 12.0478 4.42584 11.9922 4.2033 11.9922H3.68484V13.2049Z" fill="#777B92"/>
<path fill-rule="evenodd" clip-rule="evenodd" d="M7.44238 15H6.15332V11.3636H7.45304C7.8188 11.3636 8.13367 11.4364 8.39764 11.582C8.66279 11.7265 8.86639 11.9342 9.00843 12.2053C9.15048 12.4763 9.2215 12.8007 9.2215 13.1783C9.2215 13.5571 9.14989 13.8826 9.00666 14.1548C8.86461 14.4271 8.66042 14.636 8.39409 14.7816C8.12894 14.9272 7.8117 15 7.44238 15ZM6.92214 14.3413H7.41042C7.75252 14.3413 8.01175 14.2489 8.18812 14.0643C8.36568 13.8796 8.45446 13.5843 8.45446 13.1783C8.45446 12.7746 8.36568 12.4811 8.18812 12.2976C8.01175 12.1141 7.75311 12.0224 7.4122 12.0224H6.92214V14.3413Z" fill="#777B92"/>
<path fill-rule="evenodd" clip-rule="evenodd" d="M9.79102 11.3636H12.1987V11.9975H10.5598V12.864H12.0389V13.4979H10.5598V15H9.79102V11.3636Z" fill="#777B92"/>
</svg>
