<svg width="16" height="16" viewBox="0 0 16 16" fill="none" xmlns="http://www.w3.org/2000/svg">
<path fill-rule="evenodd" clip-rule="evenodd" d="M10.3536 6.64645C10.5488 6.84171 10.5488 7.15829 10.3536 7.35355L8.70711 9L10.3536 10.6464C10.5488 10.8417 10.5488 11.1583 10.3536 11.3536C10.1583 11.5488 9.84171 11.5488 9.64645 11.3536L8 9.70711L6.35355 11.3536C6.15829 11.5488 5.84171 11.5488 5.64645 11.3536C5.45118 11.1583 5.45118 10.8417 5.64645 10.6464L7.29289 9L5.64645 7.35355C5.45118 7.15829 5.45118 6.84171 5.64645 6.64645C5.84171 6.45118 6.15829 6.45118 6.35355 6.64645L8 8.29289L9.64645 6.64645C9.84171 6.45118 10.1583 6.45118 10.3536 6.64645Z" fill="#777B92"/>
<path fill-rule="evenodd" clip-rule="evenodd" d="M2 1.5H5.58579C5.98361 1.5 6.36514 1.65803 6.64645 1.93934L8.06066 3.35355C8.15443 3.44732 8.28161 3.5 8.41421 3.5H14C14.8284 3.5 15.5 4.17157 15.5 5V13C15.5 13.8284 14.8284 14.5 14 14.5H2C1.17157 14.5 0.5 13.8284 0.5 13V3C0.5 2.17157 1.17157 1.5 2 1.5ZM1.5 3V13C1.5 13.2761 1.72386 13.5 2 13.5H14C14.2761 13.5 14.5 13.2761 14.5 13V5C14.5 4.72386 14.2761 4.5 14 4.5H8.41421C8.01639 4.5 7.63486 4.34196 7.35355 4.06066L5.93934 2.64645C5.84557 2.55268 5.71839 2.5 5.58579 2.5H2C1.72386 2.5 1.5 2.72386 1.5 3Z" fill="#777B92"/>
</svg>
