<svg width="16" height="16" viewBox="0 0 16 16" fill="none" xmlns="http://www.w3.org/2000/svg">
<path fill-rule="evenodd" clip-rule="evenodd" d="M4 7.5H10C10.2761 7.5 10.5 7.72386 10.5 8C10.5 8.27614 10.2761 8.5 10 8.5H4C3.72386 8.5 3.5 8.27614 3.5 8C3.5 7.72386 3.72386 7.5 4 7.5Z" fill="#777B92"/>
<path fill-rule="evenodd" clip-rule="evenodd" d="M3.5 13C3.5 12.7239 3.72386 12.5 4 12.5H7C7.27614 12.5 7.5 12.7239 7.5 13C7.5 13.2761 7.27614 13.5 7 13.5H4C3.72386 13.5 3.5 13.2761 3.5 13Z" fill="#777B92"/>
<path fill-rule="evenodd" clip-rule="evenodd" d="M3 0.5H14C14.1581 0.5 14.3068 0.57473 14.4011 0.701535C14.4955 0.82834 14.5243 0.992287 14.4789 1.14367L13.772 3.5L14.4783 5.85423C14.5122 5.96546 14.5076 6.08864 14.4573 6.20217C14.4537 6.21039 14.4498 6.21853 14.4457 6.22657L13.559 7.99999L14.4472 9.77638C14.5052 9.89234 14.5139 10.0201 14.4812 10.1357L14.4789 10.1437L13.772 12.5L14.4789 14.8563C14.5243 15.0077 14.4955 15.1717 14.4011 15.2985C14.3068 15.4253 14.1581 15.5 14 15.5H3C2.17157 15.5 1.5 14.8284 1.5 14V11C1.5 10.6158 1.64443 10.2654 1.88195 10C1.64443 9.73462 1.5 9.38418 1.5 9V7C1.5 6.61582 1.64443 6.26538 1.88195 6C1.64443 5.73462 1.5 5.38418 1.5 5V2C1.5 1.17157 2.17157 0.5 3 0.5ZM13.191 6.5H3C2.72386 6.5 2.5 6.72386 2.5 7V9C2.5 9.27614 2.72386 9.5 3 9.5H13.191L12.5528 8.22359C12.4824 8.08283 12.4824 7.91714 12.5528 7.77638L13.191 6.5ZM3 5.5H13.328L12.7711 3.64367C12.743 3.54995 12.743 3.45005 12.7711 3.35633L13.328 1.5H3C2.72386 1.5 2.5 1.72386 2.5 2V5C2.5 5.27614 2.72386 5.5 3 5.5ZM2.5 11V14C2.5 14.2761 2.72386 14.5 3 14.5H13.328L12.7711 12.6437C12.743 12.55 12.743 12.45 12.7711 12.3563L13.328 10.5H3C2.72386 10.5 2.5 10.7239 2.5 11Z" fill="#777B92"/>
</svg>
