<svg width="16" height="16" viewBox="0 0 16 16" fill="none" xmlns="http://www.w3.org/2000/svg">
<path fill-rule="evenodd" clip-rule="evenodd" d="M3.5 1C3.5 0.723858 3.72386 0.5 4 0.5H8.58579C8.98361 0.5 9.36514 0.658035 9.64645 0.93934L13.0607 4.35355C13.342 4.63486 13.5 5.01639 13.5 5.41421V10C13.5 10.2761 13.2761 10.5 13 10.5C12.7239 10.5 12.5 10.2761 12.5 10V5.5H10C9.17157 5.5 8.5 4.82843 8.5 4V1.5H4C3.72386 1.5 3.5 1.27614 3.5 1ZM9.5 2.20711V4C9.5 4.27614 9.72386 4.5 10 4.5H11.7929L9.5 2.20711Z" fill="#777B92"/>
<path fill-rule="evenodd" clip-rule="evenodd" d="M3 5.5C3.27614 5.5 3.5 5.72386 3.5 6V14C3.5 14.2761 3.72386 14.5 4 14.5H12C12.2761 14.5 12.5 14.7239 12.5 15C12.5 15.2761 12.2761 15.5 12 15.5H4C3.17157 15.5 2.5 14.8284 2.5 14V6C2.5 5.72386 2.72386 5.5 3 5.5Z" fill="#777B92"/>
<path fill-rule="evenodd" clip-rule="evenodd" d="M1.35355 0.646447L15.3536 14.6464C15.5488 14.8417 15.5488 15.1583 15.3536 15.3536C15.1583 15.5488 14.8417 15.5488 14.6464 15.3536L0.646447 1.35355C0.451184 1.15829 0.451184 0.841709 0.646447 0.646447C0.841709 0.451184 1.15829 0.451184 1.35355 0.646447Z" fill="#777B92"/>
<path fill-rule="evenodd" clip-rule="evenodd" d="M5.35355 9.64645L7 11.2929L8.14645 10.1464C8.34171 9.95118 8.65829 9.95118 8.85355 10.1464C9.04882 10.3417 9.04882 10.6583 8.85355 10.8536L7.35355 12.3536C7.15829 12.5488 6.84171 12.5488 6.64645 12.3536L4.64645 10.3536C4.45118 10.1583 4.45118 9.84171 4.64645 9.64645C4.84171 9.45118 5.15829 9.45118 5.35355 9.64645Z" fill="#777B92"/>
</svg>
