<svg width="16" height="16" viewBox="0 0 16 16" fill="none" xmlns="http://www.w3.org/2000/svg">
<path fill-rule="evenodd" clip-rule="evenodd" d="M8.5 5V6.5H10C10.2761 6.5 10.5 6.72386 10.5 7C10.5 7.27614 10.2761 7.5 10 7.5H8.5V9C8.5 9.27614 8.27614 9.5 8 9.5C7.72386 9.5 7.5 9.27614 7.5 9V7.5H6C5.72386 7.5 5.5 7.27614 5.5 7C5.5 6.72386 5.72386 6.5 6 6.5H7.5V5C7.5 4.72386 7.72386 4.5 8 4.5C8.27614 4.5 8.5 4.72386 8.5 5Z" fill="#777B92"/>
<path fill-rule="evenodd" clip-rule="evenodd" d="M8.5 11.5V14.5H13C13.2761 14.5 13.5 14.7239 13.5 15C13.5 15.2761 13.2761 15.5 13 15.5H3C2.72386 15.5 2.5 15.2761 2.5 15C2.5 14.7239 2.72386 14.5 3 14.5H7.5V11.5H2C1.17157 11.5 0.5 10.8284 0.5 10V2C0.5 1.17157 1.17157 0.5 2 0.5H5.58579C5.98361 0.5 6.36514 0.658035 6.64645 0.93934L8.06066 2.35355C8.15443 2.44732 8.28161 2.5 8.41421 2.5H14C14.8284 2.5 15.5 3.17157 15.5 4V10C15.5 10.8284 14.8284 11.5 14 11.5H8.5ZM1.5 2V10C1.5 10.2761 1.72386 10.5 2 10.5H14C14.2761 10.5 14.5 10.2761 14.5 10V4C14.5 3.72386 14.2761 3.5 14 3.5H8.41421C8.01639 3.5 7.63486 3.34196 7.35355 3.06066L5.93934 1.64645C5.84557 1.55268 5.71839 1.5 5.58579 1.5H2C1.72386 1.5 1.5 1.72386 1.5 2Z" fill="#777B92"/>
</svg>
