<svg width="16" height="16" viewBox="0 0 16 16" fill="none" xmlns="http://www.w3.org/2000/svg">
<path fill-rule="evenodd" clip-rule="evenodd" d="M2.5 2C2.5 1.17157 3.17157 0.5 4 0.5H8.58579C8.98361 0.5 9.36514 0.658035 9.64645 0.93934L13.0607 4.35355C13.342 4.63486 13.5 5.01639 13.5 5.41421V9C13.5 9.27614 13.2761 9.5 13 9.5C12.7239 9.5 12.5 9.27614 12.5 9V5.5H10C9.17157 5.5 8.5 4.82843 8.5 4V1.5H4C3.72386 1.5 3.5 1.72386 3.5 2V9C3.5 9.27614 3.27614 9.5 3 9.5C2.72386 9.5 2.5 9.27614 2.5 9V2ZM9.5 2.20711V4C9.5 4.27614 9.72386 4.5 10 4.5H11.7929L9.5 2.20711Z" fill="#777B92"/>
<path fill-rule="evenodd" clip-rule="evenodd" d="M3.41602 15V11.3636H4.85067C5.12648 11.3636 5.36145 11.4163 5.55558 11.5217C5.7497 11.6258 5.89767 11.7708 5.99947 11.9567C6.10245 12.1413 6.15394 12.3544 6.15394 12.5959C6.15394 12.8374 6.10186 13.0504 5.99769 13.2351C5.89353 13.4186 5.7426 13.5624 5.54492 13.6666C5.34843 13.7695 5.1105 13.821 4.83114 13.821H4.18484V15H3.41602ZM4.18484 13.2049H4.70685C4.92702 13.2049 5.09097 13.1487 5.19869 13.0362C5.30759 12.9226 5.36204 12.7758 5.36204 12.5959C5.36204 12.4148 5.30759 12.2692 5.19869 12.1591C5.09097 12.0478 4.92584 11.9922 4.7033 11.9922H4.18484V13.2049Z" fill="#777B92"/>
<path fill-rule="evenodd" clip-rule="evenodd" d="M7.94238 15H6.65332V11.3636H7.95304C8.3188 11.3636 8.63367 11.4364 8.89764 11.582C9.16279 11.7265 9.36639 11.9342 9.50843 12.2053C9.65048 12.4763 9.7215 12.8007 9.7215 13.1783C9.7215 13.5571 9.64989 13.8826 9.50666 14.1548C9.36461 14.4271 9.16042 14.636 8.89409 14.7816C8.62894 14.9272 8.3117 15 7.94238 15ZM7.42214 14.3413H7.91042C8.25252 14.3413 8.51175 14.2489 8.68812 14.0643C8.86568 13.8796 8.95446 13.5843 8.95446 13.1783C8.95446 12.7746 8.86568 12.4811 8.68812 12.2976C8.51175 12.1141 8.25311 12.0224 7.9122 12.0224H7.42214V14.3413Z" fill="#777B92"/>
<path fill-rule="evenodd" clip-rule="evenodd" d="M10.291 11.3636H12.6987V11.9975H11.0598V12.864H12.5389V13.4979H11.0598V15H10.291V11.3636Z" fill="#777B92"/>
</svg>
