<svg width="16" height="16" viewBox="0 0 16 16" fill="none" xmlns="http://www.w3.org/2000/svg">
<path fill-rule="evenodd" clip-rule="evenodd" d="M1.5 2C1.5 1.17157 2.17157 0.5 3 0.5H7.58579C7.98361 0.5 8.36514 0.658035 8.64645 0.93934L12.0607 4.35355C12.342 4.63486 12.5 5.01639 12.5 5.41421V8C12.5 8.27614 12.2761 8.5 12 8.5C11.7239 8.5 11.5 8.27614 11.5 8V5.5H9C8.17157 5.5 7.5 4.82843 7.5 4V1.5H3C2.72386 1.5 2.5 1.72386 2.5 2V14C2.5 14.2761 2.72386 14.5 3 14.5H9C9.27614 14.5 9.5 14.7239 9.5 15C9.5 15.2761 9.27614 15.5 9 15.5H3C2.17157 15.5 1.5 14.8284 1.5 14V2ZM8.5 2.20711V4C8.5 4.27614 8.72386 4.5 9 4.5H10.7929L8.5 2.20711Z" fill="#777B92"/>
<path fill-rule="evenodd" clip-rule="evenodd" d="M8.07072 8.50503L10.6957 8.88003C10.8028 8.89533 10.9021 8.94495 10.9786 9.02145L14.3536 12.3965C14.5488 12.5917 14.5488 12.9083 14.3536 13.1036L12.1036 15.3536C11.9083 15.5488 11.5917 15.5488 11.3965 15.3536L8.02145 11.9786C7.94495 11.9021 7.89533 11.8028 7.88003 11.6957L7.50503 9.07072C7.48277 8.91492 7.53517 8.75774 7.64645 8.64645C7.75774 8.53517 7.91492 8.48277 8.07072 8.50503ZM8.84641 11.3893L9.875 12.4179L11.4179 10.875L10.3893 9.84641L8.58926 9.58926L8.84641 11.3893ZM10.5821 13.125L11.75 14.2929L13.2929 12.75L12.125 11.5821L10.5821 13.125Z" fill="#777B92"/>
</svg>
