<svg width="16" height="16" viewBox="0 0 16 16" fill="none" xmlns="http://www.w3.org/2000/svg">
<path fill-rule="evenodd" clip-rule="evenodd" d="M4.47448 4.8419L6.15119 9.87204L7.58411 7.72266C7.67684 7.58356 7.83296 7.50001 8.00014 7.50001C8.16731 7.50001 8.32343 7.58356 8.41616 7.72266L9.84908 9.87204L11.5258 4.8419C11.6131 4.57993 11.8963 4.43835 12.1582 4.52567C12.4202 4.613 12.5618 4.89616 12.4745 5.15813L10.4745 11.1581C10.4141 11.3393 10.2558 11.4702 10.0665 11.4956C9.87722 11.5209 9.69004 11.4363 9.58411 11.2774L8.00014 8.9014L6.41616 11.2774C6.31023 11.4363 6.12305 11.5209 5.93377 11.4956C5.74449 11.4702 5.58618 11.3393 5.52579 11.1581L3.52579 5.15813C3.43847 4.89616 3.58005 4.613 3.84202 4.52567C4.10399 4.43835 4.38715 4.57993 4.47448 4.8419Z" fill="#777B92"/>
<path fill-rule="evenodd" clip-rule="evenodd" d="M2 0.5H14C14.8284 0.5 15.5 1.17157 15.5 2V14C15.5 14.8284 14.8284 15.5 14 15.5H2C1.17157 15.5 0.5 14.8284 0.5 14V2C0.5 1.17157 1.17157 0.5 2 0.5ZM1.5 2V14C1.5 14.2761 1.72386 14.5 2 14.5H14C14.2761 14.5 14.5 14.2761 14.5 14V2C14.5 1.72386 14.2761 1.5 14 1.5H2C1.72386 1.5 1.5 1.72386 1.5 2Z" fill="#777B92"/>
</svg>
