<svg width="16" height="16" viewBox="0 0 16 16" fill="none" xmlns="http://www.w3.org/2000/svg">
<path fill-rule="evenodd" clip-rule="evenodd" d="M7.5 11C7.5 11.2761 7.27614 11.5 7 11.5C6.72386 11.5 6.5 11.2761 6.5 11V8.20711L5.85355 8.85355C5.65829 9.04882 5.34171 9.04882 5.14645 8.85355C4.95118 8.65829 4.95118 8.34171 5.14645 8.14645L6.64645 6.64645C6.84171 6.45118 7.15829 6.45118 7.35355 6.64645L8.85355 8.14645C9.04882 8.34171 9.04882 8.65829 8.85355 8.85355C8.65829 9.04882 8.34171 9.04882 8.14645 8.85355L7.5 8.20711V11Z" fill="#777B92"/>
<path fill-rule="evenodd" clip-rule="evenodd" d="M7 2.5C9.32962 2.5 11.2458 4.27025 11.4767 6.53893C11.6476 6.51328 11.8223 6.5 12 6.5C13.933 6.5 15.5 8.067 15.5 10C15.5 11.933 13.933 13.5 12 13.5H3C1.61929 13.5 0.5 12.3807 0.5 11C0.5 9.70016 1.492 8.63202 2.76023 8.51135C2.59173 8.03869 2.5 7.52977 2.5 7C2.5 4.51472 4.51472 2.5 7 2.5ZM3.5 7C3.5 7.6702 3.68788 8.29499 4.0136 8.8263C4.12226 9.00355 4.10989 9.22954 3.98255 9.39388C3.8552 9.55822 3.63945 9.62661 3.44069 9.56564C3.30196 9.52309 3.15413 9.5 3 9.5C2.17157 9.5 1.5 10.1716 1.5 11C1.5 11.8284 2.17157 12.5 3 12.5H12C13.3807 12.5 14.5 11.3807 14.5 10C14.5 8.61929 13.3807 7.5 12 7.5C11.7058 7.5 11.4245 7.55062 11.1636 7.6432C11.007 7.69877 10.833 7.67293 10.6994 7.57423C10.5657 7.47553 10.4898 7.31687 10.4968 7.15086C10.4989 7.10087 10.5 7.05057 10.5 7C10.5 5.067 8.933 3.5 7 3.5C5.067 3.5 3.5 5.067 3.5 7Z" fill="#777B92"/>
</svg>
