<svg width="16" height="16" viewBox="0 0 16 16" fill="none" xmlns="http://www.w3.org/2000/svg">
<path fill-rule="evenodd" clip-rule="evenodd" d="M2.5 2C2.5 1.17157 3.17157 0.5 4 0.5H8.58579C8.98361 0.5 9.36514 0.658035 9.64645 0.93934L13.0607 4.35355C13.342 4.63486 13.5 5.01639 13.5 5.41421V9C13.5 9.27614 13.2761 9.5 13 9.5C12.7239 9.5 12.5 9.27614 12.5 9V5.5H10C9.17157 5.5 8.5 4.82843 8.5 4V1.5H4C3.72386 1.5 3.5 1.72386 3.5 2V9C3.5 9.27614 3.27614 9.5 3 9.5C2.72386 9.5 2.5 9.27614 2.5 9V2ZM9.5 2.20711V4C9.5 4.27614 9.72386 4.5 10 4.5H11.7929L9.5 2.20711Z" fill="#777B92"/>
<path fill-rule="evenodd" clip-rule="evenodd" d="M4.72475 8.58258C4.86507 8.49006 5.04248 8.47422 5.19696 8.54043L12.197 11.5404C12.3808 11.6192 12.5 11.8 12.5 12C12.5 12.2 12.3808 12.3808 12.197 12.4596L5.19696 15.4596C5.04248 15.5258 4.86507 15.5099 4.72475 15.4174C4.58444 15.3249 4.5 15.1681 4.5 15V9C4.5 8.83193 4.58444 8.6751 4.72475 8.58258ZM5.5 14.2417L10.7307 12L5.5 9.75827V14.2417Z" fill="#777B92"/>
</svg>
