<svg width="16" height="16" viewBox="0 0 16 16" fill="none" xmlns="http://www.w3.org/2000/svg">
<path fill-rule="evenodd" clip-rule="evenodd" d="M6 6C5.44772 6 5 5.55228 5 5C5 4.44772 5.44772 4 6 4C6.55228 4 7 4.44772 7 5C7 5.55228 6.55228 6 6 6Z" fill="#777B92"/>
<path fill-rule="evenodd" clip-rule="evenodd" d="M2.5 2C2.5 1.17157 3.17157 0.5 4 0.5H8.58579C8.98361 0.5 9.36514 0.658035 9.64645 0.93934L13.0607 4.35355C13.342 4.63486 13.5 5.01639 13.5 5.41421V11.9913C13.5001 11.9973 13.5001 12.0034 13.5 12.0095V14C13.5 14.8284 12.8284 15.5 12 15.5H4C3.17157 15.5 2.5 14.8284 2.5 14V2ZM12.5 5.5H10C9.17157 5.5 8.5 4.82843 8.5 4V1.5H4C3.72386 1.5 3.5 1.72386 3.5 2V12.0658L8.7227 8.58397C8.89909 8.46638 9.13046 8.47281 9.30005 8.6L12.5 11V5.5ZM11.7929 4.5L9.5 2.20711V4C9.5 4.27614 9.72386 4.5 10 4.5H11.7929ZM3.5 14C3.5 14.2761 3.72386 14.5 4 14.5H12C12.2761 14.5 12.5 14.2761 12.5 14V12.25L8.98306 9.61226L3.5 13.2676V14Z" fill="#777B92"/>
</svg>
