<svg width="16" height="16" viewBox="0 0 16 16" fill="none" xmlns="http://www.w3.org/2000/svg">
<path fill-rule="evenodd" clip-rule="evenodd" d="M10.0687 2.40949C10.0545 2.26626 9.99296 2.15499 9.88406 2.07568C9.77634 1.99637 9.63074 1.95672 9.44727 1.95672C9.25906 1.95672 9.11464 1.99519 9.01403 2.07213C8.91341 2.14907 8.8631 2.24614 8.8631 2.36333C8.86074 2.49353 8.91637 2.59237 9.03001 2.65985C9.14483 2.72613 9.28095 2.77762 9.43839 2.81432L9.76509 2.89245C9.97579 2.93979 10.1628 3.00845 10.3262 3.09841C10.4907 3.18837 10.6197 3.30438 10.7132 3.44642C10.8079 3.58728 10.8553 3.75892 10.8553 3.96134C10.8541 4.29396 10.7292 4.55911 10.4806 4.75679C10.2333 4.95329 9.88761 5.05154 9.44372 5.05154C9.00219 5.05154 8.65004 4.95092 8.38725 4.74969C8.12447 4.54846 7.98834 4.25135 7.97887 3.85835H8.72283C8.73585 4.04065 8.80747 4.17796 8.93768 4.27029C9.06907 4.36143 9.23479 4.407 9.43484 4.407C9.63015 4.407 9.78581 4.36557 9.90181 4.28272C10.019 4.19986 10.0782 4.09214 10.0794 3.95956C10.0782 3.83646 10.0243 3.74176 9.91779 3.67547C9.81126 3.60918 9.65915 3.55236 9.46147 3.50502L9.06552 3.40558C8.75894 3.33219 8.51687 3.2156 8.33931 3.0558C8.16175 2.896 8.07357 2.68234 8.07475 2.41482C8.07357 2.19465 8.13216 2.00229 8.25053 1.83776C8.37009 1.67204 8.53403 1.54361 8.74236 1.45246C8.9507 1.36013 9.18744 1.31396 9.45259 1.31396C9.72248 1.31396 9.95804 1.36013 10.1593 1.45246C10.3617 1.54479 10.5191 1.67322 10.6316 1.83776C10.744 2.00229 10.802 2.19287 10.8056 2.40949H10.0687Z" fill="#777B92"/>
<path fill-rule="evenodd" clip-rule="evenodd" d="M3.13912 2.60303H3.16753L3.90439 1.36368H4.77264L3.66291 3.18186L4.7975 5.00004H3.91326L3.16753 3.75892H3.13912L2.39338 5.00004H1.5127L2.65083 3.18186L1.534 1.36368H2.40581L3.13912 2.60303Z" fill="#777B92"/>
<path fill-rule="evenodd" clip-rule="evenodd" d="M6.02797 1.36368V4.36617H7.58691V5.00004H5.25914V1.36368H6.02797Z" fill="#777B92"/>
<path fill-rule="evenodd" clip-rule="evenodd" d="M12.8266 2.60303H12.855L13.5919 1.36368H14.4601L13.3504 3.18186L14.485 5.00004H13.6008L12.855 3.75892H12.8266L12.0809 5.00004H11.2002L12.3383 3.18186L11.2215 1.36368H12.0933L12.8266 2.60303Z" fill="#777B92"/>
<path fill-rule="evenodd" clip-rule="evenodd" d="M11.3536 12.3536L8.35355 15.3536C8.15829 15.5488 7.84171 15.5488 7.64645 15.3536L4.64645 12.3536C4.45118 12.1583 4.45118 11.8417 4.64645 11.6464C4.84171 11.4512 5.15829 11.4512 5.35355 11.6464L7.5 13.7929V8C7.5 7.72386 7.72386 7.5 8 7.5C8.27614 7.5 8.5 7.72386 8.5 8V13.7929L10.6464 11.6464C10.8417 11.4512 11.1583 11.4512 11.3536 11.6464C11.5488 11.8417 11.5488 12.1583 11.3536 12.3536Z" fill="#777B92"/>
</svg>
