<svg width="24" height="24" viewBox="0 0 24 24" fill="none" xmlns="http://www.w3.org/2000/svg">
<path fill-rule="evenodd" clip-rule="evenodd" d="M4.70711 3.29289L10.4142 9H20V6H9C8.44772 6 8 5.55228 8 5C8 4.44772 8.44772 4 9 4H20C21.1046 4 22 4.89543 22 6V16C22 16.5523 21.5523 17 21 17C20.4477 17 20 16.5523 20 16V11H12.4142L20.7071 19.2929C21.0976 19.6834 21.0976 20.3166 20.7071 20.7071C20.3166 21.0976 19.6834 21.0976 19.2929 20.7071L9.58579 11H4V18H15C15.5523 18 16 18.4477 16 19C16 19.5523 15.5523 20 15 20H4C2.89543 20 2 19.1046 2 18V7.5C2 6.94772 2.44772 6.5 3 6.5C3.55228 6.5 4 6.94772 4 7.5V9H7.58579L3.29289 4.70711C2.90237 4.31658 2.90237 3.68342 3.29289 3.29289C3.68342 2.90237 4.31658 2.90237 4.70711 3.29289Z" fill="#777B92"/>
<path fill-rule="evenodd" clip-rule="evenodd" d="M6 15C6 14.4477 6.44772 14 7 14H11C11.5523 14 12 14.4477 12 15C12 15.5523 11.5523 16 11 16H7C6.44772 16 6 15.5523 6 15Z" fill="#777B92"/>
</svg>
