<svg width="24" height="24" viewBox="0 0 24 24" fill="none" xmlns="http://www.w3.org/2000/svg">
<path fill-rule="evenodd" clip-rule="evenodd" d="M14 5.13468V7.99964H20C21.1046 7.99964 22 8.89507 22 9.99964V12.7944C22 13.0652 21.945 13.3333 21.8383 13.5822L19.1789 19.7875C18.8637 20.5228 18.1407 20.9996 17.3406 20.9996H8C6.89543 20.9996 6 20.1042 6 18.9996V8.46801C6 7.87446 6.26365 7.31156 6.71963 6.93157L10.7196 3.59824C12.0223 2.51269 14 3.43901 14 5.13468ZM8 8.46802L8 18.9996H17.3406L20 12.7944V9.99964H14C12.8954 9.99964 12 9.10421 12 7.99964V5.13468L8 8.46802Z" fill="#777B92"/>
<path d="M4 8V20C4 20.5523 3.55228 21 3 21C2.44772 21 2 20.5523 2 20V8C2 7.44772 2.44772 7 3 7C3.55228 7 4 7.44772 4 8Z" fill="#777B92"/>
</svg>
