<svg width="16" height="16" viewBox="0 0 16 16" fill="none" xmlns="http://www.w3.org/2000/svg">
<path fill-rule="evenodd" clip-rule="evenodd" d="M0.5 3C0.5 1.61929 1.61929 0.5 3 0.5C4.38071 0.5 5.5 1.61929 5.5 3C5.5 4.38071 4.38071 5.5 3 5.5C1.61929 5.5 0.5 4.38071 0.5 3ZM3 1.5C2.17157 1.5 1.5 2.17157 1.5 3C1.5 3.82843 2.17157 4.5 3 4.5C3.82843 4.5 4.5 3.82843 4.5 3C4.5 2.17157 3.82843 1.5 3 1.5Z" fill="#777B92"/>
<path fill-rule="evenodd" clip-rule="evenodd" d="M5.5 8C5.5 6.61929 6.61929 5.5 8 5.5C6.61929 5.5 5.5 4.38071 5.5 3C5.5 1.61929 6.61929 0.5 8 0.5C9.38071 0.5 10.5 1.61929 10.5 3C10.5 1.61929 11.6193 0.5 13 0.5C14.3807 0.5 15.5 1.61929 15.5 3C15.5 4.38071 14.3807 5.5 13 5.5C14.3807 5.5 15.5 6.61929 15.5 8C15.5 9.38071 14.3807 10.5 13 10.5C14.3807 10.5 15.5 11.6193 15.5 13C15.5 14.3807 14.3807 15.5 13 15.5C11.6193 15.5 10.5 14.3807 10.5 13C10.5 14.3807 9.38071 15.5 8 15.5C6.61929 15.5 5.5 14.3807 5.5 13C5.5 14.3807 4.38071 15.5 3 15.5C1.61929 15.5 0.5 14.3807 0.5 13C0.5 11.6193 1.61929 10.5 3 10.5C1.61929 10.5 0.5 9.38071 0.5 8C0.5 6.61929 1.61929 5.5 3 5.5C4.38071 5.5 5.5 6.61929 5.5 8ZM8 10.5C9.38071 10.5 10.5 11.6193 10.5 13C10.5 11.6193 11.6193 10.5 13 10.5C11.6193 10.5 10.5 9.38071 10.5 8C10.5 6.61929 11.6193 5.5 13 5.5C11.6193 5.5 10.5 4.38071 10.5 3C10.5 4.38071 9.38071 5.5 8 5.5C9.38071 5.5 10.5 6.61929 10.5 8C10.5 9.38071 9.38071 10.5 8 10.5ZM8 10.5C6.61929 10.5 5.5 9.38071 5.5 8C5.5 9.38071 4.38071 10.5 3 10.5C4.38071 10.5 5.5 11.6193 5.5 13C5.5 11.6193 6.61929 10.5 8 10.5ZM3 6.5C2.17157 6.5 1.5 7.17157 1.5 8C1.5 8.82843 2.17157 9.5 3 9.5C3.82843 9.5 4.5 8.82843 4.5 8C4.5 7.17157 3.82843 6.5 3 6.5ZM1.5 13C1.5 13.8284 2.17157 14.5 3 14.5C3.82843 14.5 4.5 13.8284 4.5 13C4.5 12.1716 3.82843 11.5 3 11.5C2.17157 11.5 1.5 12.1716 1.5 13ZM8 1.5C7.17157 1.5 6.5 2.17157 6.5 3C6.5 3.82843 7.17157 4.5 8 4.5C8.82843 4.5 9.5 3.82843 9.5 3C9.5 2.17157 8.82843 1.5 8 1.5ZM6.5 8C6.5 8.82843 7.17157 9.5 8 9.5C8.82843 9.5 9.5 8.82843 9.5 8C9.5 7.17157 8.82843 6.5 8 6.5C7.17157 6.5 6.5 7.17157 6.5 8ZM8 11.5C7.17157 11.5 6.5 12.1716 6.5 13C6.5 13.8284 7.17157 14.5 8 14.5C8.82843 14.5 9.5 13.8284 9.5 13C9.5 12.1716 8.82843 11.5 8 11.5ZM11.5 3C11.5 3.82843 12.1716 4.5 13 4.5C13.8284 4.5 14.5 3.82843 14.5 3C14.5 2.17157 13.8284 1.5 13 1.5C12.1716 1.5 11.5 2.17157 11.5 3ZM13 6.5C12.1716 6.5 11.5 7.17157 11.5 8C11.5 8.82843 12.1716 9.5 13 9.5C13.8284 9.5 14.5 8.82843 14.5 8C14.5 7.17157 13.8284 6.5 13 6.5ZM11.5 13C11.5 13.8284 12.1716 14.5 13 14.5C13.8284 14.5 14.5 13.8284 14.5 13C14.5 12.1716 13.8284 11.5 13 11.5C12.1716 11.5 11.5 12.1716 11.5 13Z" fill="#777B92"/>
</svg>
