<svg width="16" height="16" viewBox="0 0 16 16" fill="none" xmlns="http://www.w3.org/2000/svg">
<path fill-rule="evenodd" clip-rule="evenodd" d="M8 5.5C9.38071 5.5 10.5 6.61929 10.5 8C10.5 9.38071 9.38071 10.5 8 10.5C6.61929 10.5 5.5 9.38071 5.5 8C5.5 6.61929 6.61929 5.5 8 5.5ZM6.5 8C6.5 8.82843 7.17157 9.5 8 9.5C8.82843 9.5 9.5 8.82843 9.5 8C9.5 7.17157 8.82843 6.5 8 6.5C7.17157 6.5 6.5 7.17157 6.5 8Z" fill="#777B92"/>
<path fill-rule="evenodd" clip-rule="evenodd" d="M7.5 0.5H8.5C9.32843 0.5 10 1.17157 10 2V2.05223C10 2.50003 10.5434 2.72203 10.857 2.40233L10.9274 2.33055C11.5164 1.72995 12.4841 1.73111 13.0717 2.33312L13.6677 2.94375C14.2414 3.53152 14.2357 4.47137 13.655 5.05215L13.5607 5.14645C13.2457 5.46143 13.4688 6 13.9142 6H14C14.8284 6 15.5 6.67157 15.5 7.5V8.5C15.5 9.32843 14.8284 10 14 10H13.9142C13.4688 10 13.2457 10.5386 13.5607 10.8536L13.6551 10.9479C14.2358 11.5287 14.2415 12.4684 13.668 13.0562L13.0718 13.6671C12.4842 14.2693 11.5163 14.2705 10.9272 13.6697L10.857 13.5981C10.5435 13.2783 10 13.5003 10 13.9481V14C10 14.8284 9.32843 15.5 8.5 15.5H7.5C6.67157 15.5 6 14.8284 6 14V13.9481C6 13.5003 5.45653 13.2783 5.14299 13.5981L5.07276 13.6697C4.48368 14.2705 3.51579 14.2693 2.92817 13.6671L2.33204 13.0562C1.75847 12.4684 1.76423 11.5287 2.34495 10.9479L2.43934 10.8536C2.75432 10.5386 2.53124 10 2.08579 10H2C1.17157 10 0.5 9.32843 0.5 8.5V7.5C0.5 6.67157 1.17157 6 2 6H2.08579C2.53124 6 2.75432 5.46143 2.43934 5.14645L2.35355 5.06066C1.76777 4.47487 1.76777 3.52513 2.35355 2.93934L2.93934 2.35355C3.52513 1.76777 4.47487 1.76777 5.06066 2.35355L5.14645 2.43934C5.46143 2.75432 6 2.53124 6 2.08579V2C6 1.17157 6.67157 0.5 7.5 0.5ZM7 2V2.08579C7 3.42214 5.38429 4.0914 4.43934 3.14645L4.35355 3.06066C4.15829 2.8654 3.84171 2.8654 3.64645 3.06066L3.06066 3.64645C2.8654 3.84171 2.8654 4.15829 3.06066 4.35355L3.14645 4.43934C4.09139 5.38429 3.42214 7 2.08579 7H2C1.72386 7 1.5 7.22386 1.5 7.5V8.5C1.5 8.77614 1.72386 9 2 9H2.08579C3.42214 9 4.0914 10.6157 3.14645 11.5607L3.05206 11.6551C2.85848 11.8486 2.85656 12.1619 3.04775 12.3578L3.64388 12.9687C3.83975 13.1694 4.16238 13.1698 4.35874 12.9696L4.42898 12.8979C5.36958 11.9387 7 12.6047 7 13.9481V14C7 14.2761 7.22386 14.5 7.5 14.5H8.5C8.77614 14.5 9 14.2761 9 14V13.9481C9 12.6047 10.6304 11.9387 11.571 12.8979L11.6413 12.9696C11.8376 13.1698 12.1602 13.1694 12.3561 12.9687L12.9522 12.3578C13.1434 12.1619 13.1415 11.8486 12.9479 11.6551L12.8536 11.5607C11.9086 10.6157 12.5779 9 13.9142 9H14C14.2761 9 14.5 8.77614 14.5 8.5V7.5C14.5 7.22386 14.2761 7 14 7H13.9142C12.5779 7 11.9086 5.38429 12.8536 4.43934L12.9479 4.34504C13.1414 4.15145 13.1433 3.83816 12.9521 3.64224L12.3561 3.03161C12.1602 2.83094 11.8377 2.83055 11.6413 3.03075L11.5709 3.10254C10.6303 4.06164 9 3.39562 9 2.05223V2C9 1.72386 8.77614 1.5 8.5 1.5H7.5C7.22386 1.5 7 1.72386 7 2Z" fill="#777B92"/>
</svg>
