<svg width="16" height="16" viewBox="0 0 16 16" fill="none" xmlns="http://www.w3.org/2000/svg">
<path fill-rule="evenodd" clip-rule="evenodd" d="M8.5 5.44999V15C8.5 15.2761 8.27614 15.5 8 15.5C7.72386 15.5 7.5 15.2761 7.5 15L7.5 5.44999C6.35888 5.21836 5.5 4.20948 5.5 3C5.5 1.61929 6.61929 0.5 8 0.5C9.38071 0.5 10.5 1.61929 10.5 3C10.5 4.20948 9.64112 5.21836 8.5 5.44999ZM6.5 3C6.5 3.82843 7.17157 4.5 8 4.5C8.82843 4.5 9.5 3.82843 9.5 3C9.5 2.17157 8.82843 1.5 8 1.5C7.17157 1.5 6.5 2.17157 6.5 3Z" fill="#777B92"/>
<path fill-rule="evenodd" clip-rule="evenodd" d="M15.5 9C15.5 10.2095 14.6411 11.2184 13.5 11.45V15C13.5 15.2761 13.2761 15.5 13 15.5C12.7239 15.5 12.5 15.2761 12.5 15V11.45C11.3589 11.2184 10.5 10.2095 10.5 9C10.5 7.79052 11.3589 6.78164 12.5 6.55001V1C12.5 0.723858 12.7239 0.5 13 0.5C13.2761 0.5 13.5 0.723858 13.5 1V6.55001C14.6411 6.78164 15.5 7.79052 15.5 9ZM11.5 9C11.5 9.82843 12.1716 10.5 13 10.5C13.8284 10.5 14.5 9.82843 14.5 9C14.5 8.17157 13.8284 7.5 13 7.5C12.1716 7.5 11.5 8.17157 11.5 9Z" fill="#777B92"/>
<path fill-rule="evenodd" clip-rule="evenodd" d="M3.5 13.45V15C3.5 15.2761 3.27614 15.5 3 15.5C2.72386 15.5 2.5 15.2761 2.5 15V13.45C1.35888 13.2184 0.5 12.2095 0.5 11C0.5 9.79052 1.35888 8.78164 2.5 8.55001V1C2.5 0.723858 2.72386 0.5 3 0.5C3.27614 0.5 3.5 0.723858 3.5 1V8.55001C4.64112 8.78164 5.5 9.79052 5.5 11C5.5 12.2095 4.64112 13.2184 3.5 13.45ZM3 9.5C2.17157 9.5 1.5 10.1716 1.5 11C1.5 11.8284 2.17157 12.5 3 12.5C3.82843 12.5 4.5 11.8284 4.5 11C4.5 10.1716 3.82843 9.5 3 9.5Z" fill="#777B92"/>
</svg>
