<svg width="24" height="24" viewBox="0 0 24 24" fill="none" xmlns="http://www.w3.org/2000/svg">
<path fill-rule="evenodd" clip-rule="evenodd" d="M15 15C15 15.5523 14.5523 16 14 16C13.4477 16 13 15.5523 13 15C13 14.4477 13.4477 14 14 14C14.5523 14 15 14.4477 15 15Z" fill="#777B92"/>
<path fill-rule="evenodd" clip-rule="evenodd" d="M14 19C13.4477 19 13 18.5523 13 18C13 17.4477 13.4477 17 14 17C14.5523 17 15 17.4477 15 18C15 18.5523 14.5523 19 14 19Z" fill="#777B92"/>
<path fill-rule="evenodd" clip-rule="evenodd" d="M11 15C11 15.5523 10.5523 16 10 16C9.44772 16 9 15.5523 9 15C9 14.4477 9.44772 14 10 14C10.5523 14 11 14.4477 11 15Z" fill="#777B92"/>
<path fill-rule="evenodd" clip-rule="evenodd" d="M10 19C9.44772 19 9 18.5523 9 18C9 17.4477 9.44772 17 10 17C10.5523 17 11 17.4477 11 18C11 18.5523 10.5523 19 10 19Z" fill="#777B92"/>
<path fill-rule="evenodd" clip-rule="evenodd" d="M11 3V6H16C17.1046 6 18 6.89543 18 8V20C18 21.1046 17.1046 22 16 22H8C6.89543 22 6 21.1046 6 20V8C6 6.89543 6.89543 6 8 6H9V3C9 2.44772 9.44772 2 10 2C10.5523 2 11 2.44772 11 3ZM8 8V11H16V8L8 8ZM16 13H8V20H16V13Z" fill="#777B92"/>
</svg>
