<svg width="22" height="22" viewBox="0 0 22 22" fill="none" xmlns="http://www.w3.org/2000/svg">
<path d="M10 3C10 2.44772 9.55228 2 9 2H3C2.44772 2 2 2.44772 2 3V11C2 11.5523 2.44772 12 3 12H9C9.55228 12 10 11.5523 10 11L10 3Z" fill="#97A3BA"/>
<path d="M10 15C10 14.4477 9.55228 14 9 14H3C2.44772 14 2 14.4477 2 15V19C2 19.5523 2.44772 20 3 20H9C9.55228 20 10 19.5523 10 19V15Z" fill="#97A3BA"/>
<path d="M19 20C19.5523 20 20 19.5523 20 19V11C20 10.4477 19.5523 10 19 10H13C12.4477 10 12 10.4477 12 11V19C12 19.5523 12.4477 20 13 20H19Z" fill="#97A3BA"/>
<path d="M20 7C20 7.55228 19.5523 8 19 8L13 8C12.4477 8 12 7.55228 12 7V3C12 2.44772 12.4477 2 13 2H19C19.5523 2 20 2.44771 20 3V7Z" fill="#97A3BA"/>
</svg>
