<svg width="22" height="22" viewBox="0 0 22 22" fill="none" xmlns="http://www.w3.org/2000/svg">
<path d="M7 19C7 19.5523 7.44772 20 8 20H14C14.5523 20 15 19.5523 15 19L15 3C15 2.44771 14.5523 2 14 2H8C7.44771 2 7 2.44772 7 3L7 19Z" fill="#97A3BA"/>
<path d="M4 5C4.55228 5 5 5.44772 5 6L5 16C5 16.5523 4.55228 17 4 17H3C2.44772 17 2 16.5523 2 16V6C2 5.44772 2.44772 5 3 5H4Z" fill="#97A3BA"/>
<path d="M19 5C19.5523 5 20 5.44772 20 6V16C20 16.5523 19.5523 17 19 17H18C17.4477 17 17 16.5523 17 16L17 6C17 5.44772 17.4477 5 18 5H19Z" fill="#97A3BA"/>
</svg>
