<svg width="22" height="22" viewBox="0 0 22 22" fill="none" xmlns="http://www.w3.org/2000/svg">
<path d="M8.11535 8.35472C8.11535 8.58483 8.19775 8.7929 8.36518 8.9559C8.53228 9.1186 8.7434 9.19697 8.97505 9.19697H11.504L8.28679 12.7969C8.10068 13.0014 8 13.2463 8 13.5205C8 13.8178 8.11604 14.0775 8.35682 14.2598C8.57685 14.4265 8.84152 14.5 9.12885 14.5H13.1275C13.357 14.5 13.5664 14.4231 13.7327 14.2634C13.9085 14.1032 14 13.8943 14 13.6578C14 13.4234 13.9101 13.216 13.7375 13.0565C13.5736 12.8884 13.3631 12.803 13.1275 12.803H10.5383L13.665 9.23712L13.6687 9.23279C13.8387 9.03183 13.9231 8.7924 13.9231 8.52941C13.9231 8.24514 13.8263 7.98991 13.622 7.79098C13.4156 7.59004 13.1504 7.5 12.8583 7.5H8.97505C8.73726 7.5 8.52507 7.58696 8.36059 7.75804C8.19625 7.92037 8.11535 8.12673 8.11535 8.35472Z" fill="#97A3BA"/>
<path fill-rule="evenodd" clip-rule="evenodd" d="M1 15.3598C1 14.1046 1.401 12.9163 2.15288 11.9289C2.35338 11.6611 2.47034 11.3264 2.47034 10.9916C2.47034 10.5565 2.28655 10.2218 2.13617 10.0377L2.05263 9.9205C1.36759 8.94979 1 7.82845 1 6.64017C1 3.5272 3.52298 1 6.63074 1C7.88388 1 9.05347 1.40167 10.056 2.15481C10.6074 2.58996 11.4094 2.57322 11.9607 2.15481C12.9632 1.40167 14.1328 1 15.3693 1C18.477 1 21 3.5272 21 6.64017C21 7.8954 20.599 9.06694 19.8471 10.0544C19.6299 10.3389 19.5297 10.6569 19.5297 11.0084C19.5297 11.3598 19.6466 11.6946 19.8638 11.9623L19.8805 11.9791C20.6157 12.9665 21 14.1381 21 15.3598C21 18.4561 18.477 21 15.3693 21C14.1161 21 12.9465 20.5983 11.944 19.8452L11.9106 19.8117C11.3592 19.4268 10.5739 19.4268 10.0393 19.8452C9.03676 20.5983 7.86717 21 6.63074 21C3.52298 21 1 18.4728 1 15.3598ZM4.47034 10.9916C4.47034 10.0352 4.08959 9.2926 3.73585 8.8362L3.68415 8.7637C3.23103 8.12017 3 7.40065 3 6.64017C3 4.62861 4.6307 3 6.63074 3C7.43271 3 8.17844 3.24999 8.84127 3.74381C10.1454 4.75464 11.9376 4.67949 13.1647 3.75182C13.8328 3.2508 14.5827 3 15.3693 3C17.3693 3 19 4.62861 19 6.64017C19 7.45352 18.7451 8.19979 18.2567 8.84169C17.7592 9.49386 17.5297 10.2435 17.5297 11.0084C17.5297 11.8072 17.7972 12.5894 18.3106 13.2223L18.3234 13.2381C18.7692 13.864 19 14.5923 19 15.3598C19 17.3585 17.3654 19 15.3693 19C14.6035 19 13.8891 18.7721 13.2491 18.3216L13.2008 18.2733L13.0555 18.1718C11.8303 17.3165 10.0901 17.2808 8.82693 18.2544C8.161 18.7513 7.41401 19 6.63074 19C4.6307 19 3 17.3714 3 15.3598C3 14.5398 3.25891 13.7777 3.7441 13.1405L3.749 13.1341L3.75385 13.1276C4.20015 12.5315 4.47034 11.7801 4.47034 10.9916Z" fill="#97A3BA"/>
</svg>
