<svg width="22" height="22" viewBox="0 0 22 22" fill="none" xmlns="http://www.w3.org/2000/svg">
<path d="M4 19.05L4 2.95C4 2.42533 4.42533 2 4.95 2L5.05 2C5.57467 2 6 2.42533 6 2.95L6 19.05C6 19.5747 5.57467 20 5.05 20H4.95C4.42533 20 4 19.5747 4 19.05Z" fill="#97A3BA"/>
<path d="M9.99994 2.92404L9.99994 16.6776L8.70994 15.4131C8.52164 15.2299 8.26624 15.127 7.99994 15.127C7.73364 15.127 7.47825 15.2299 7.28994 15.4131C7.10164 15.5963 6.99585 15.8447 6.99585 16.1037C6.99585 16.3627 7.10164 16.6111 7.28994 16.7943L10.2899 19.7123C10.3829 19.8035 10.4935 19.8758 10.6154 19.9252C10.7372 19.9746 10.8679 20 10.9999 20C11.132 20 11.2627 19.9746 11.3845 19.9252C11.5064 19.8758 11.617 19.8035 11.7099 19.7123L14.7099 16.7943C14.8037 16.7039 14.8781 16.5963 14.9288 16.4778C14.9796 16.3592 15.0057 16.2321 15.0057 16.1037C15.0057 15.9753 14.9796 15.8482 14.9288 15.7296C14.8781 15.6111 14.8037 15.5035 14.7099 15.4131C14.617 15.3219 14.5064 15.2496 14.3845 15.2002C14.2627 15.1508 14.132 15.1254 13.9999 15.1254C13.8679 15.1254 13.7372 15.1508 13.6154 15.2002C13.4935 15.2496 13.3829 15.3219 13.2899 15.4131L11.9999 16.6776L11.9999 2.92404C11.9878 2.68277 11.8838 2.45453 11.7082 2.28373C11.5326 2.11293 11.298 2.01179 11.0499 2L10.9999 2C10.7432 1.99969 10.4961 2.09546 10.3099 2.26748C10.1238 2.43951 10.0128 2.67459 9.99994 2.92404Z" fill="#97A3BA"/>
<path d="M16 2.95L16 19.05C16 19.5747 16.4253 20 16.95 20H17.05C17.5747 20 18 19.5747 18 19.05L18 2.95C18 2.42533 17.5747 2 17.05 2L16.95 2C16.4253 2 16 2.42533 16 2.95Z" fill="#97A3BA"/>
</svg>
