<svg width="24" height="24" viewBox="0 0 24 24" fill="none" xmlns="http://www.w3.org/2000/svg">
<path d="M19.9998 4C19.9998 4.55228 19.5521 5 18.9998 5H9.9998V8L18.9998 8C19.5521 8 19.9998 8.44772 19.9998 9C19.9998 9.55229 19.5521 10 18.9998 10L9.9998 10V13L18.9998 13C19.5521 13 19.9998 13.4477 19.9998 14C19.9998 14.5523 19.5521 15 18.9998 15L9.9998 15L9.9998 18L18.9998 18C19.5521 18 19.9998 18.4477 19.9998 19C19.9998 19.5523 19.5521 20 18.9998 20H8.9998C8.44751 20 7.9998 19.5523 7.9998 19L7.9998 5H5C4.44772 5 4 4.55228 4 4C4 3.44772 4.44772 3 5 3H18.9998C19.5521 3 19.9998 3.44772 19.9998 4Z" fill="#7887A5"/>
</svg>
