<svg width="22" height="22" viewBox="0 0 22 22" fill="none" xmlns="http://www.w3.org/2000/svg">
<path d="M4 2C4.55228 2 5 2.44772 5 3L5 19C5 19.5523 4.55228 20 4 20H3C2.44772 20 2 19.5523 2 19V3C2 2.44772 2.44772 2 3 2H4Z" fill="#97A3BA"/>
<path d="M19 2C19.5523 2 20 2.44772 20 3V19C20 19.5523 19.5523 20 19 20H18C17.4477 20 17 19.5523 17 19L17 3C17 2.44772 17.4477 2 18 2H19Z" fill="#97A3BA"/>
<path d="M7 19C7 19.5523 7.44772 20 8 20H14C14.5523 20 15 19.5523 15 19L15 3C15 2.44771 14.5523 2 14 2H8C7.44771 2 7 2.44772 7 3L7 19Z" fill="#97A3BA"/>
</svg>
