<svg width="24" height="24" viewBox="0 0 24 24" fill="none" xmlns="http://www.w3.org/2000/svg">
<path fill-rule="evenodd" clip-rule="evenodd" d="M4 3H20C20.5523 3 21 3.44772 21 4V7C21 7.55228 20.5523 8 20 8H4C3.44772 8 3 7.55228 3 7V4C3 3.44772 3.44772 3 4 3Z" fill="#777B92"/>
<path fill-rule="evenodd" clip-rule="evenodd" d="M4 10H20C20.5523 10 21 10.4477 21 11V14C21 14.5523 20.5523 15 20 15H4C3.44772 15 3 14.5523 3 14V11C3 10.4477 3.44772 10 4 10Z" fill="#777B92"/>
<path fill-rule="evenodd" clip-rule="evenodd" d="M3 18C3 17.4477 3.44772 17 4 17H20C20.5523 17 21 17.4477 21 18V21C21 21.5523 20.5523 22 20 22H4C3.44772 22 3 21.5523 3 21V18Z" fill="#777B92"/>
</svg>
