<svg width="22" height="22" viewBox="0 0 22 22" fill="none" xmlns="http://www.w3.org/2000/svg">
<path d="M2.95 5H19.05C19.5747 5 20 5.42533 20 5.95V6.05C20 6.57467 19.5747 7 19.05 7H2.95C2.42533 7 2 6.57467 2 6.05V5.95C2 5.42533 2.42533 5 2.95 5Z" fill="#97A3BA"/>
<path d="M19.05 10H2.95C2.42533 10 2 10.4253 2 10.95V11.05C2 11.5747 2.42533 12 2.95 12H19.05C19.5747 12 20 11.5747 20 11.05V10.95C20 10.4253 19.5747 10 19.05 10Z" fill="#97A3BA"/>
<path d="M19.05 15H2.95C2.42533 15 2 15.4253 2 15.95V16.05C2 16.5747 2.42533 17 2.95 17H19.05C19.5747 17 20 16.5747 20 16.05V15.95C20 15.4253 19.5747 15 19.05 15Z" fill="#97A3BA"/>
</svg>
