<svg width="24" height="24" viewBox="0 0 24 24" fill="none" xmlns="http://www.w3.org/2000/svg">
<path fill-rule="evenodd" clip-rule="evenodd" d="M6 3C6.55228 3 7 3.44772 7 4V20C7 20.5523 6.55228 21 6 21C5.44772 21 5 20.5523 5 20V4C5 3.44772 5.44772 3 6 3Z" fill="#777B92"/>
<path fill-rule="evenodd" clip-rule="evenodd" d="M17 20V4C17 3.44772 17.4477 3 18 3C18.5523 3 19 3.44772 19 4V20C19 20.5523 18.5523 21 18 21C17.4477 21 17 20.5523 17 20Z" fill="#777B92"/>
<path fill-rule="evenodd" clip-rule="evenodd" d="M12.7071 3.29289L15.7071 6.29289C16.0976 6.68342 16.0976 7.31658 15.7071 7.70711C15.3166 8.09763 14.6834 8.09763 14.2929 7.70711L13 6.41421V20C13 20.5523 12.5523 21 12 21C11.4477 21 11 20.5523 11 20V6.41421L9.70711 7.70711C9.31658 8.09763 8.68342 8.09763 8.29289 7.70711C7.90237 7.31658 7.90237 6.68342 8.29289 6.29289L11.2929 3.29289C11.6834 2.90237 12.3166 2.90237 12.7071 3.29289Z" fill="#777B92"/>
</svg>
