<svg width="22" height="22" viewBox="0 0 22 22" fill="none" xmlns="http://www.w3.org/2000/svg">
<path d="M5 2C5.55228 2 6 2.44772 6 3L6 19C6 19.5523 5.55228 20 5 20H2C1.44772 20 1 19.5523 1 19V3C1 2.44772 1.44772 2 2 2H5Z" fill="#97A3BA"/>
<path d="M19 2C19.5523 2 20 2.44772 20 3V19C20 19.5523 19.5523 20 19 20H16C15.4477 20 15 19.5523 15 19L15 3C15 2.44772 15.4477 2 16 2H19Z" fill="#97A3BA"/>
<path d="M8 19C8 19.5523 8.44772 20 9 20H12C12.5523 20 13 19.5523 13 19L13 3C13 2.44772 12.5523 2 12 2L9 2C8.44771 2 8 2.44772 8 3L8 19Z" fill="#97A3BA"/>
</svg>
