<svg width="24" height="24" viewBox="0 0 24 24" fill="none" xmlns="http://www.w3.org/2000/svg">
<path fill-rule="evenodd" clip-rule="evenodd" d="M5 3H8C8.55229 3 9 3.44772 9 4V7C9 7.55228 8.55228 8 8 8H5C4.44772 8 4 7.55228 4 7V4C4 3.44772 4.44772 3 5 3Z" fill="#777B92"/>
<path fill-rule="evenodd" clip-rule="evenodd" d="M12 3H20C20.5523 3 21 3.44772 21 4V7C21 7.55228 20.5523 8 20 8H12C11.4477 8 11 7.55228 11 7V4C11 3.44772 11.4477 3 12 3Z" fill="#777B92"/>
<path fill-rule="evenodd" clip-rule="evenodd" d="M4 11C4 10.4477 4.44772 10 5 10H8C8.55229 10 9 10.4477 9 11V14C9 14.5523 8.55228 15 8 15H5C4.44772 15 4 14.5523 4 14V11Z" fill="#777B92"/>
<path fill-rule="evenodd" clip-rule="evenodd" d="M12 10H20C20.5523 10 21 10.4477 21 11V14C21 14.5523 20.5523 15 20 15H12C11.4477 15 11 14.5523 11 14V11C11 10.4477 11.4477 10 12 10Z" fill="#777B92"/>
<path fill-rule="evenodd" clip-rule="evenodd" d="M4 18C4 17.4477 4.44772 17 5 17H8C8.55229 17 9 17.4477 9 18V21C9 21.5523 8.55228 22 8 22H5C4.44772 22 4 21.5523 4 21V18Z" fill="#777B92"/>
<path fill-rule="evenodd" clip-rule="evenodd" d="M12 17H20C20.5523 17 21 17.4477 21 18V21C21 21.5523 20.5523 22 20 22H12C11.4477 22 11 21.5523 11 21V18C11 17.4477 11.4477 17 12 17Z" fill="#777B92"/>
</svg>
