<svg width="22" height="22" viewBox="0 0 22 22" fill="none" xmlns="http://www.w3.org/2000/svg">
<path d="M20 3C20 2.44772 19.5523 2 19 2H16C15.4477 2 15 2.44772 15 3L15 9C15 9.55228 15.4477 10 16 10H19C19.5523 10 20 9.55228 20 9V3Z" fill="#97A3BA"/>
<path d="M6 13C6 12.4477 5.55228 12 5 12H2C1.44772 12 1 12.4477 1 13V19C1 19.5523 1.44772 20 2 20H5C5.55228 20 6 19.5523 6 19L6 13Z" fill="#97A3BA"/>
<path d="M20 13C20 12.4477 19.5523 12 19 12H16C15.4477 12 15 12.4477 15 13L15 19C15 19.5523 15.4477 20 16 20H19C19.5523 20 20 19.5523 20 19V13Z" fill="#97A3BA"/>
<path d="M9 20C8.44772 20 8 19.5523 8 19L8 13C8 12.4477 8.44771 12 9 12H12C12.5523 12 13 12.4477 13 13V19C13 19.5523 12.5523 20 12 20H9Z" fill="#97A3BA"/>
<path d="M5 2C5.55228 2 6 2.44772 6 3L6 9C6 9.55228 5.55228 10 5 10H2C1.44772 10 1 9.55228 1 9V3C1 2.44772 1.44772 2 2 2H5Z" fill="#97A3BA"/>
<path d="M8 9C8 9.55228 8.44772 10 9 10H12C12.5523 10 13 9.55228 13 9V3C13 2.44772 12.5523 2 12 2H9C8.44771 2 8 2.44772 8 3L8 9Z" fill="#97A3BA"/>
</svg>
