<svg width="22" height="22" viewBox="0 0 22 22" fill="none" xmlns="http://www.w3.org/2000/svg">
<path d="M19 7C19.5523 7 20 6.55229 20 6V3C20 2.44772 19.5523 2 19 2L10 2C9.44772 2 9 2.44771 9 3V6C9 6.55228 9.44771 7 10 7L19 7Z" fill="#97A3BA"/>
<path d="M19 21C19.5523 21 20 20.5523 20 20V17C20 16.4477 19.5523 16 19 16L10 16C9.44772 16 9 16.4477 9 17V20C9 20.5523 9.44771 21 10 21H19Z" fill="#97A3BA"/>
<path d="M9 10C9 9.44772 9.44772 9 10 9L19 9C19.5523 9 20 9.44772 20 10V13C20 13.5523 19.5523 14 19 14H10C9.44771 14 9 13.5523 9 13L9 10Z" fill="#97A3BA"/>
<path d="M6 21C6.55229 21 7 20.5523 7 20V17C7 16.4477 6.55228 16 6 16L3 16C2.44772 16 2 16.4477 2 17L2 20C2 20.5523 2.44772 21 3 21L6 21Z" fill="#97A3BA"/>
<path d="M7 6C7 6.55229 6.55228 7 6 7L3 7C2.44772 7 2 6.55228 2 6L2 3C2 2.44772 2.44772 2 3 2L6 2C6.55228 2 7 2.44772 7 3V6Z" fill="#97A3BA"/>
<path d="M3 9C2.44772 9 2 9.44772 2 10L2 13C2 13.5523 2.44772 14 3 14H6C6.55228 14 7 13.5523 7 13L7 10C7 9.44772 6.55228 9 6 9H3Z" fill="#97A3BA"/>
</svg>
