<svg width="22" height="22" viewBox="0 0 22 22" fill="none" xmlns="http://www.w3.org/2000/svg">
<path d="M6 3C6 2.44772 5.55228 2 5 2H2C1.44772 2 1 2.44772 1 3V19C1 19.5523 1.44772 20 2 20H5C5.55228 20 6 19.5523 6 19L6 3Z" fill="#97A3BA"/>
<path d="M19 2C19.5523 2 20 2.44772 20 3V11C20 11.5523 19.5523 12 19 12H16C15.4477 12 15 11.5523 15 11V3C15 2.44772 15.4477 2 16 2H19Z" fill="#97A3BA"/>
<path d="M19 14C19.5523 14 20 14.4477 20 15V19C20 19.5523 19.5523 20 19 20H16C15.4477 20 15 19.5523 15 19V15C15 14.4477 15.4477 14 16 14H19Z" fill="#97A3BA"/>
<path d="M9 20C8.44772 20 8 19.5523 8 19L8 9C8 8.44771 8.44771 8 9 8H12C12.5523 8 13 8.44772 13 9V19C13 19.5523 12.5523 20 12 20H9Z" fill="#97A3BA"/>
<path d="M8 5C8 5.55228 8.44772 6 9 6L12 6C12.5523 6 13 5.55228 13 5V3C13 2.44772 12.5523 2 12 2H9C8.44772 2 8 2.44772 8 3V5Z" fill="#97A3BA"/>
</svg>
