<svg width="22" height="22" viewBox="0 0 22 22" fill="none" xmlns="http://www.w3.org/2000/svg">
<path d="M19.05 18L2.95 18C2.42533 18 2 17.5747 2 17.05L2 16.95C2 16.4253 2.42533 16 2.95 16L19.05 16C19.5747 16 20 16.4253 20 16.95V17.05C20 17.5747 19.5747 18 19.05 18Z" fill="#97A3BA"/>
<path d="M2.92404 11.9998L16.6776 11.9998L15.4131 13.2898C15.2299 13.4781 15.127 13.7335 15.127 13.9998C15.127 14.2661 15.2299 14.5215 15.4131 14.7098C15.5963 14.8981 15.8447 15.0039 16.1037 15.0039C16.3627 15.0039 16.6111 14.8981 16.7943 14.7098L19.7123 11.7098C19.8035 11.6169 19.8758 11.5063 19.9252 11.3844C19.9746 11.2625 20 11.1318 20 10.9998C20 10.8678 19.9746 10.7371 19.9252 10.6152C19.8758 10.4934 19.8035 10.3828 19.7123 10.2898L16.7943 7.28981C16.7039 7.19609 16.5963 7.12169 16.4778 7.07092C16.3592 7.02016 16.2321 6.99402 16.1037 6.99402C15.9753 6.99402 15.8482 7.02016 15.7296 7.07092C15.6111 7.12169 15.5035 7.19609 15.4131 7.28981C15.3219 7.38278 15.2496 7.49338 15.2002 7.61524C15.1508 7.7371 15.1254 7.8678 15.1254 7.99981C15.1254 8.13183 15.1508 8.26253 15.2002 8.38439C15.2496 8.50625 15.3219 8.61685 15.4131 8.70981L16.6776 9.99982L2.92404 9.99981C2.68277 10.0119 2.45453 10.1159 2.28373 10.2915C2.11293 10.4671 2.01179 10.7018 2 10.9498L2 10.9998C1.99969 11.2566 2.09546 11.5037 2.26748 11.6898C2.43951 11.876 2.67459 11.987 2.92404 11.9998Z" fill="#97A3BA"/>
<path d="M2.95 6L19.05 6C19.5747 6 20 5.57467 20 5.05V4.95C20 4.42533 19.5747 4 19.05 4L2.95 4C2.42533 4 2 4.42533 2 4.95L2 5.05C2 5.57467 2.42533 6 2.95 6Z" fill="#97A3BA"/>
</svg>
