<svg width="22" height="22" viewBox="0 0 22 22" fill="none" xmlns="http://www.w3.org/2000/svg">
<path d="M18 2.95V19.05C18 19.5747 17.5747 20 17.05 20H16.95C16.4253 20 16 19.5747 16 19.05V2.95C16 2.42533 16.4253 2 16.95 2L17.05 2C17.5747 2 18 2.42533 18 2.95Z" fill="#97A3BA"/>
<path d="M12.0001 19.076V5.32244L13.2901 6.58691C13.4784 6.77006 13.7338 6.87296 14.0001 6.87296C14.2664 6.87296 14.5218 6.77006 14.7101 6.58691C14.8984 6.40375 15.0042 6.15534 15.0042 5.89631C15.0042 5.63729 14.8984 5.38888 14.7101 5.20572L11.7101 2.28771C11.6171 2.19655 11.5065 2.12419 11.3846 2.0748C11.2628 2.02542 11.1321 2 11.0001 2C10.868 2 10.7373 2.02542 10.6155 2.0748C10.4936 2.12419 10.383 2.19655 10.2901 2.28771L7.29006 5.20572C7.19633 5.29614 7.12194 5.40372 7.07117 5.52225C7.0204 5.64078 6.99426 5.76791 6.99426 5.89631C6.99426 6.02472 7.0204 6.15185 7.07117 6.27038C7.12194 6.38891 7.19633 6.49648 7.29006 6.58691C7.38302 6.67807 7.49362 6.75043 7.61548 6.79982C7.73734 6.8492 7.86805 6.87462 8.00006 6.87462C8.13207 6.87462 8.26278 6.8492 8.38464 6.79982C8.50649 6.75043 8.6171 6.67807 8.71006 6.58691L10.0001 5.32244V19.076C10.0122 19.3172 10.1162 19.5455 10.2918 19.7163C10.4674 19.8871 10.702 19.9882 10.9501 20H11.0001C11.2568 20.0003 11.5039 19.9045 11.6901 19.7325C11.8762 19.5605 11.9872 19.3254 12.0001 19.076Z" fill="#97A3BA"/>
<path d="M6 19.05L6 2.95C6 2.42533 5.57467 2 5.05 2L4.95 2C4.42533 2 4 2.42533 4 2.95L4 19.05C4 19.5747 4.42533 20 4.95 20H5.05C5.57467 20 6 19.5747 6 19.05Z" fill="#97A3BA"/>
</svg>
