<svg width="22" height="22" viewBox="0 0 22 22" fill="none" xmlns="http://www.w3.org/2000/svg">
<path d="M20 4C20 4.55229 19.5523 5 19 5L3 5C2.44772 5 2 4.55228 2 4L2 3C2 2.44772 2.44772 2 3 2L19 2C19.5523 2 20 2.44772 20 3V4Z" fill="#97A3BA"/>
<path d="M20 19C20 19.5523 19.5523 20 19 20H3C2.44772 20 2 19.5523 2 19L2 18C2 17.4477 2.44772 17 3 17L19 17C19.5523 17 20 17.4477 20 18V19Z" fill="#97A3BA"/>
<path d="M3 7C2.44772 7 2 7.44772 2 8L2 14C2 14.5523 2.44772 15 3 15H19C19.5523 15 20 14.5523 20 14V8C20 7.44772 19.5523 7 19 7L3 7Z" fill="#97A3BA"/>
</svg>
