<svg width="22" height="22" viewBox="0 0 22 22" fill="none" xmlns="http://www.w3.org/2000/svg">
<path d="M3 2C2.44772 2 2 2.44772 2 3V9C2 9.55228 2.44772 10 3 10H9C9.55228 10 10 9.55228 10 9V3C10 2.44772 9.55228 2 9 2H3Z" fill="#97A3BA"/>
<path d="M3 12C2.44772 12 2 12.4477 2 13V19C2 19.5523 2.44772 20 3 20H9C9.55228 20 10 19.5523 10 19V13C10 12.4477 9.55228 12 9 12H3Z" fill="#97A3BA"/>
<path d="M12 3C12 2.44772 12.4477 2 13 2H19C19.5523 2 20 2.44772 20 3V9C20 9.55228 19.5523 10 19 10H13C12.4477 10 12 9.55228 12 9V3Z" fill="#97A3BA"/>
<path d="M13 12C12.4477 12 12 12.4477 12 13V19C12 19.5523 12.4477 20 13 20H19C19.5523 20 20 19.5523 20 19V13C20 12.4477 19.5523 12 19 12H13Z" fill="#97A3BA"/>
</svg>
