<svg width="24" height="24" viewBox="0 0 24 24" fill="none" xmlns="http://www.w3.org/2000/svg">
<path fill-rule="evenodd" clip-rule="evenodd" d="M9 3H15C15.5523 3 16 3.44772 16 4V20C16 20.5523 15.5523 21 15 21H9C8.44772 21 8 20.5523 8 20V4C8 3.44772 8.44772 3 9 3Z" fill="#777B92"/>
<path fill-rule="evenodd" clip-rule="evenodd" d="M18 7C18 6.44772 18.4477 6 19 6H20C20.5523 6 21 6.44772 21 7V17C21 17.5523 20.5523 18 20 18H19C18.4477 18 18 17.5523 18 17V7Z" fill="#777B92"/>
<path fill-rule="evenodd" clip-rule="evenodd" d="M4 6H5C5.55228 6 6 6.44772 6 7V17C6 17.5523 5.55228 18 5 18H4C3.44772 18 3 17.5523 3 17V7C3 6.44772 3.44772 6 4 6Z" fill="#777B92"/>
</svg>
