<svg width="22" height="22" viewBox="0 0 22 22" fill="none" xmlns="http://www.w3.org/2000/svg">
<path d="M3 2C2.44772 2 2 2.44772 2 3V4C2 4.55228 2.44772 5 3 5H19C19.5523 5 20 4.55228 20 4V3C20 2.44772 19.5523 2 19 2H3Z" fill="#97A3BA"/>
<path d="M3 17C2.44772 17 2 17.4477 2 18V19C2 19.5523 2.44772 20 3 20H19C19.5523 20 20 19.5523 20 19V18C20 17.4477 19.5523 17 19 17H3Z" fill="#97A3BA"/>
<path d="M2 8C2 7.44772 2.44772 7 3 7H19C19.5523 7 20 7.44772 20 8V9C20 9.55228 19.5523 10 19 10H3C2.44772 10 2 9.55228 2 9V8Z" fill="#97A3BA"/>
<path d="M3 12C2.44772 12 2 12.4477 2 13V14C2 14.5523 2.44772 15 3 15H19C19.5523 15 20 14.5523 20 14V13C20 12.4477 19.5523 12 19 12H3Z" fill="#97A3BA"/>
</svg>
