<svg width="22" height="22" viewBox="0 0 22 22" fill="none" xmlns="http://www.w3.org/2000/svg">
<path fill-rule="evenodd" clip-rule="evenodd" d="M12.2336 1.51096C11.5523 0.829679 10.4477 0.829682 9.76644 1.51096L7.51096 3.76644C6.82968 4.44772 6.82968 5.55229 7.51096 6.23356L9.76644 8.48904C10.4477 9.17032 11.5523 9.17032 12.2336 8.48904L14.489 6.23356C15.1703 5.55228 15.1703 4.44771 14.489 3.76644L12.2336 1.51096ZM8.74452 5L11 2.74452L13.2555 5L11 7.25548L8.74452 5Z" fill="#97A3BA"/>
<path fill-rule="evenodd" clip-rule="evenodd" d="M6.23356 7.51096C5.55228 6.82968 4.44771 6.82968 3.76644 7.51096L1.51096 9.76644C0.829679 10.4477 0.829682 11.5523 1.51096 12.2336L3.76644 14.489C4.44772 15.1703 5.55229 15.1703 6.23356 14.489L8.48904 12.2336C9.17032 11.5523 9.17032 10.4477 8.48904 9.76644L6.23356 7.51096ZM2.74452 11L5 8.74452L7.25548 11L5 13.2555L2.74452 11Z" fill="#97A3BA"/>
<path fill-rule="evenodd" clip-rule="evenodd" d="M9.76644 13.511C10.4477 12.8297 11.5523 12.8297 12.2336 13.511L14.489 15.7664C15.1703 16.4477 15.1703 17.5523 14.489 18.2336L12.2336 20.489C11.5523 21.1703 10.4477 21.1703 9.76644 20.489L7.51096 18.2336C6.82968 17.5523 6.82968 16.4477 7.51096 15.7664L9.76644 13.511ZM11 14.7445L8.74452 17L11 19.2555L13.2555 17L11 14.7445Z" fill="#97A3BA"/>
<path fill-rule="evenodd" clip-rule="evenodd" d="M18.2336 7.51096C17.5523 6.82968 16.4477 6.82968 15.7664 7.51096L13.511 9.76644C12.8297 10.4477 12.8297 11.5523 13.511 12.2336L15.7664 14.489C16.4477 15.1703 17.5523 15.1703 18.2336 14.489L20.489 12.2336C21.1703 11.5523 21.1703 10.4477 20.489 9.76644L18.2336 7.51096ZM14.7445 11L17 8.74452L19.2555 11L17 13.2555L14.7445 11Z" fill="#97A3BA"/>
</svg>
