<svg width="22" height="22" viewBox="0 0 22 22" fill="none" xmlns="http://www.w3.org/2000/svg">
<path d="M2.95 4H19.05C19.5747 4 20 4.42533 20 4.95V5.05C20 5.57467 19.5747 6 19.05 6H2.95C2.42533 6 2 5.57467 2 5.05V4.95C2 4.42533 2.42533 4 2.95 4Z" fill="#97A3BA"/>
<path d="M19.076 10.0002H5.32244L6.58691 8.71019C6.77006 8.52188 6.87296 8.26649 6.87296 8.00019C6.87296 7.73388 6.77006 7.47849 6.58691 7.29019C6.40375 7.10188 6.15534 6.99609 5.89631 6.99609C5.63729 6.99609 5.38888 7.10188 5.20572 7.29019L2.28771 10.2902C2.19655 10.3831 2.12419 10.4937 2.0748 10.6156C2.02542 10.7375 2 10.8682 2 11.0002C2 11.1322 2.02542 11.2629 2.0748 11.3848C2.12419 11.5066 2.19655 11.6172 2.28771 11.7102L5.20572 14.7102C5.29614 14.8039 5.40372 14.8783 5.52225 14.9291C5.64078 14.9798 5.76791 15.006 5.89631 15.006C6.02472 15.006 6.15185 14.9798 6.27038 14.9291C6.38891 14.8783 6.49648 14.8039 6.58691 14.7102C6.67807 14.6172 6.75043 14.5066 6.79982 14.3848C6.8492 14.2629 6.87462 14.1322 6.87462 14.0002C6.87462 13.8682 6.8492 13.7375 6.79982 13.6156C6.75043 13.4937 6.67807 13.3831 6.58691 13.2902L5.32244 12.0002H19.076C19.3172 11.9881 19.5455 11.8841 19.7163 11.7085C19.8871 11.5329 19.9882 11.2982 20 11.0502V11.0002C20.0003 10.7434 19.9045 10.4963 19.7325 10.3102C19.5605 10.124 19.3254 10.013 19.076 10.0002Z" fill="#97A3BA"/>
<path d="M19.05 16H2.95C2.42533 16 2 16.4253 2 16.95V17.05C2 17.5747 2.42533 18 2.95 18H19.05C19.5747 18 20 17.5747 20 17.05V16.95C20 16.4253 19.5747 16 19.05 16Z" fill="#97A3BA"/>
</svg>
