<svg width="24" height="24" viewBox="0 0 24 24" fill="none" xmlns="http://www.w3.org/2000/svg">
<path fill-rule="evenodd" clip-rule="evenodd" d="M3 3H6C6.55229 3 7 3.44772 7 4V20C7 20.5523 6.55229 21 6 21H3C2.44772 21 2 20.5523 2 20V4C2 3.44772 2.44772 3 3 3Z" fill="#777B92"/>
<path fill-rule="evenodd" clip-rule="evenodd" d="M10 3H20C20.5523 3 21 3.44772 21 4V10C21 10.5523 20.5523 11 20 11H10C9.44772 11 9 10.5523 9 10V4C9 3.44772 9.44772 3 10 3Z" fill="#777B92"/>
<path fill-rule="evenodd" clip-rule="evenodd" d="M9 14C9 13.4477 9.44772 13 10 13H13C13.5523 13 14 13.4477 14 14V20C14 20.5523 13.5523 21 13 21H10C9.44772 21 9 20.5523 9 20V14Z" fill="#777B92"/>
<path fill-rule="evenodd" clip-rule="evenodd" d="M17 13H20C20.5523 13 21 13.4477 21 14V20C21 20.5523 20.5523 21 20 21H17C16.4477 21 16 20.5523 16 20V14C16 13.4477 16.4477 13 17 13Z" fill="#777B92"/>
</svg>
