<svg width="22" height="22" viewBox="0 0 22 22" fill="none" xmlns="http://www.w3.org/2000/svg">
<path d="M20 6C20 6.55229 19.5523 7 19 7L3 7C2.44772 7 2 6.55228 2 6L2 3C2 2.44772 2.44772 2 3 2L19 2C19.5523 2 20 2.44772 20 3V6Z" fill="#97A3BA"/>
<path d="M20 20C20 20.5523 19.5523 21 19 21H3C2.44772 21 2 20.5523 2 20L2 17C2 16.4477 2.44772 16 3 16L19 16C19.5523 16 20 16.4477 20 17V20Z" fill="#97A3BA"/>
<path d="M3 9C2.44772 9 2 9.44772 2 10L2 13C2 13.5523 2.44772 14 3 14H19C19.5523 14 20 13.5523 20 13V10C20 9.44772 19.5523 9 19 9L3 9Z" fill="#97A3BA"/>
</svg>
