<svg width="22" height="22" viewBox="0 0 22 22" fill="none" xmlns="http://www.w3.org/2000/svg">
<path d="M6 3C6 2.44772 5.55229 2 5 2H2C1.44772 2 1 2.44772 1 3L1 19C1 19.5523 1.44772 20 2 20H5C5.55228 20 6 19.5523 6 19L6 3Z" fill="#97A3BA"/>
<path d="M20 13C20 12.4477 19.5523 12 19 12H16C15.4477 12 15 12.4477 15 13L15 19C15 19.5523 15.4477 20 16 20H19C19.5523 20 20 19.5523 20 19V13Z" fill="#97A3BA"/>
<path d="M9 20C8.44772 20 8 19.5523 8 19L8 13C8 12.4477 8.44771 12 9 12H12C12.5523 12 13 12.4477 13 13V19C13 19.5523 12.5523 20 12 20H9Z" fill="#97A3BA"/>
<path d="M8 9C8 9.55228 8.44771 10 9 10L19 10C19.5523 10 20 9.55228 20 9V3C20 2.44772 19.5523 2 19 2H9C8.44771 2 8 2.44772 8 3L8 9Z" fill="#97A3BA"/>
</svg>
