<svg width="16" height="16" viewBox="0 0 16 16" fill="none" xmlns="http://www.w3.org/2000/svg">
<path fill-rule="evenodd" clip-rule="evenodd" d="M2 0.5H9C9.27614 0.5 9.5 0.723858 9.5 1C9.5 1.27614 9.27614 1.5 9 1.5H4.5V14.5H11.5V7C11.5 6.72386 11.7239 6.5 12 6.5C12.2761 6.5 12.5 6.72386 12.5 7V7.5H14.5V7C14.5 6.72386 14.7239 6.5 15 6.5C15.2761 6.5 15.5 6.72386 15.5 7V14C15.5 14.8284 14.8284 15.5 14 15.5H2C1.17157 15.5 0.5 14.8284 0.5 14V2C0.5 1.17157 1.17157 0.5 2 0.5ZM3.5 11.5V8.5H1.5V11.5H3.5ZM1.5 12.5V14C1.5 14.2761 1.72386 14.5 2 14.5H3.5V12.5H1.5ZM14.5 8.5H12.5V11.5H14.5V8.5ZM14.5 14V12.5H12.5V14.5H14C14.2761 14.5 14.5 14.2761 14.5 14ZM3.5 7.5V4.5H1.5V7.5H3.5ZM3.5 3.5V1.5H2C1.72386 1.5 1.5 1.72386 1.5 2V3.5H3.5Z" fill="#777B92"/>
<path fill-rule="evenodd" clip-rule="evenodd" d="M14.6464 0.646447C14.8417 0.451184 15.1583 0.451184 15.3536 0.646447C15.5488 0.841709 15.5488 1.15829 15.3536 1.35355L14.2071 2.5L15.3536 3.64645C15.5488 3.84171 15.5488 4.15829 15.3536 4.35355C15.1583 4.54882 14.8417 4.54882 14.6464 4.35355L13.5 3.20711L12.3536 4.35355C12.1583 4.54882 11.8417 4.54882 11.6464 4.35355C11.4512 4.15829 11.4512 3.84171 11.6464 3.64645L12.7929 2.5L11.6464 1.35355C11.4512 1.15829 11.4512 0.841709 11.6464 0.646447C11.8417 0.451184 12.1583 0.451184 12.3536 0.646447L13.5 1.79289L14.6464 0.646447Z" fill="#777B92"/>
</svg>
