<svg width="16" height="16" viewBox="0 0 16 16" fill="none" xmlns="http://www.w3.org/2000/svg">
<path fill-rule="evenodd" clip-rule="evenodd" d="M0.5 2C0.5 1.17157 1.17157 0.5 2 0.5H14C14.8284 0.5 15.5 1.17157 15.5 2V14C15.5 14.8284 14.8284 15.5 14 15.5H2C1.17157 15.5 0.5 14.8284 0.5 14V2ZM1.5 12.5V14C1.5 14.2761 1.72386 14.5 2 14.5H3.5V12.5H1.5ZM3.5 11.5V8.5H1.5V11.5H3.5ZM4.5 14.5H11.5V1.5H4.5V14.5ZM14.5 8.5H12.5V11.5H14.5V8.5ZM14.5 12.5H12.5V14.5H14C14.2761 14.5 14.5 14.2761 14.5 14V12.5ZM3.5 7.5V4.5H1.5V7.5H3.5ZM14.5 4.5H12.5V7.5H14.5V4.5ZM3.5 3.5V1.5H2C1.72386 1.5 1.5 1.72386 1.5 2V3.5H3.5ZM14.5 2C14.5 1.72386 14.2761 1.5 14 1.5H12.5V3.5H14.5V2Z" fill="#777B92"/>
</svg>
