<svg width="116" height="32" viewBox="0 0 116 32" fill="none" xmlns="http://www.w3.org/2000/svg">
<path d="M16 3.11108L28 24.2986L16 29.3333L4 24.2986L16 3.11108Z" fill="url(#paint0_diamond_587_46907)"/>
<path d="M36 27V6.35105H44.7155C46.2951 6.35105 47.6584 6.65353 48.8054 7.25848C49.9592 7.85671 50.8486 8.69355 51.4736 9.76902C52.0986 10.8378 52.411 12.0813 52.411 13.4995C52.411 14.9245 52.0917 16.1714 51.453 17.2401C50.8211 18.3022 49.918 19.1256 48.7435 19.7104C47.5691 20.2951 46.1749 20.5875 44.5609 20.5875H39.1833V16.6554H43.6132C44.3824 16.6554 45.0245 16.5243 45.5396 16.2621C46.0616 16 46.4565 15.6337 46.7244 15.1632C46.9922 14.6859 47.1261 14.1314 47.1261 13.4995C47.1261 12.861 46.9922 12.3098 46.7244 11.846C46.4565 11.3755 46.0616 11.0125 45.5396 10.7571C45.0177 10.5017 44.3755 10.374 43.6132 10.374H41.0995V27H36Z" fill="white"/>
<path d="M54.9247 27V11.5133H59.8182V14.3364H59.983C60.2715 13.3147 60.7419 12.5551 61.3944 12.0577C62.0468 11.5536 62.8057 11.3016 63.6711 11.3016C63.9046 11.3016 64.145 11.3184 64.3923 11.352C64.6395 11.3789 64.8696 11.4225 65.0825 11.483V15.7681C64.8421 15.6874 64.5262 15.6236 64.1347 15.5765C63.7501 15.5295 63.4067 15.506 63.1045 15.506C62.507 15.506 61.9678 15.637 61.4871 15.8992C61.0132 16.1546 60.6389 16.5142 60.3642 16.978C60.0963 17.4351 59.9624 17.9728 59.9624 18.5912V27H54.9247Z" fill="white"/>
<path d="M67.1351 27V11.5133H72.1728V27H67.1351ZM69.6591 9.70853C68.9517 9.70853 68.3439 9.47999 67.8357 9.02292C67.3275 8.55912 67.0733 8.00122 67.0733 7.34922C67.0733 6.70394 67.3275 6.15277 67.8357 5.69569C68.3439 5.2319 68.9517 5 69.6591 5C70.3734 5 70.9812 5.2319 71.4826 5.69569C71.9908 6.15277 72.2449 6.70394 72.2449 7.34922C72.2449 8.00122 71.9908 8.55912 71.4826 9.02292C70.9812 9.47999 70.3734 9.70853 69.6591 9.70853Z" fill="white"/>
<path d="M75.4205 27V24.187L82.7555 15.4455V15.3446H75.6781V11.5133H88.7616V14.5985L81.9623 23.0678V23.1687H89.0088V27H75.4205Z" fill="white"/>
<path d="M92.2642 27V11.5133H97.0547V14.3566H97.2298C97.5595 13.4155 98.1158 12.6728 98.8987 12.1283C99.6817 11.5839 100.616 11.3116 101.701 11.3116C102.8 11.3116 103.741 11.5872 104.524 12.1384C105.307 12.6896 105.804 13.429 106.017 14.3566H106.182C106.478 13.4357 107.054 12.6997 107.913 12.1485C108.771 11.5906 109.784 11.3116 110.952 11.3116C112.449 11.3116 113.665 11.7822 114.599 12.7232C115.533 13.6575 116 14.9413 116 16.5747V27H110.962V17.7039C110.962 16.931 110.76 16.3428 110.355 15.9395C109.949 15.5295 109.424 15.3245 108.778 15.3245C108.085 15.3245 107.539 15.5463 107.14 15.9899C106.749 16.4268 106.553 17.015 106.553 17.7544V27H101.711V17.6535C101.711 16.9343 101.512 16.3663 101.114 15.9496C100.715 15.5328 100.19 15.3245 99.5374 15.3245C99.0979 15.3245 98.7099 15.4287 98.3733 15.637C98.0368 15.8387 97.7724 16.1277 97.5801 16.5041C97.3946 16.8805 97.3019 17.3242 97.3019 17.835V27H92.2642Z" fill="white"/>
<defs>
<radialGradient id="paint0_diamond_587_46907" cx="0" cy="0" r="1" gradientUnits="userSpaceOnUse" gradientTransform="translate(12.501 30.3218) rotate(-14.9633) scale(35.7936 51.1122)">
<stop offset="0.218739" stop-color="#15FF49"/>
<stop offset="0.562503" stop-color="#00B2FF"/>
<stop offset="1" stop-color="#635FFF"/>
</radialGradient>
</defs>
</svg>
