<svg width="22" height="22" viewBox="0 0 22 22" fill="none" xmlns="http://www.w3.org/2000/svg">
<path fill-rule="evenodd" clip-rule="evenodd" d="M14 5.97855V4C14 3.73478 13.8946 3.48043 13.7071 3.29289L11.7071 1.29289C11.3166 0.902369 10.6834 0.902369 10.2929 1.29289L8.29289 3.29289C8.10536 3.48043 8 3.73478 8 4V5.97806C5.95687 9.03665 3.25766 13.1039 2.32972 14.5028C2.11243 14.8304 2 15.2103 2 15.6034V18.9918C2 19.8403 2.97932 20.3079 3.63243 19.7713L8 16.1831V20C8 20.5523 8.44772 21 9 21H13C13.5523 21 14 20.5523 14 20V16.1831L18.3676 19.7713C19.0207 20.3079 20 19.8403 20 18.9918V15.6038C20 15.2106 19.8875 14.8304 19.6702 14.5028C18.7411 13.1023 16.0373 9.0287 14 5.97855ZM12 4.41421L11 3.41421L10 4.41421V19H12V4.41421ZM14 9.34218V13.5974L18 16.9516V15.3797L14 9.34218ZM8 9.34218L8 13.5974L4 16.9516L4 15.3797L8 9.34218Z" fill="#97A3BA"/>
</svg>
