<svg width="24" height="24" viewBox="0 0 24 24" fill="none" xmlns="http://www.w3.org/2000/svg">
<path fill-rule="evenodd" clip-rule="evenodd" d="M13.4142 3H19C19.5523 3 20 3.44772 20 4C20 4.55228 19.5523 5 19 5H17V7.51944L21.2494 10.9189C21.7238 11.2985 22 11.8731 22 12.4807V15C22 15.8317 21.4924 16.5447 20.7702 16.8464C20.9182 17.2015 21 17.5912 21 18C21 19.6569 19.6569 21 18 21C16.3431 21 15 19.6569 15 18C15 17.6466 15.0611 17.3075 15.1733 16.9926C15.1162 16.9975 15.0584 17 15 17H8.82929C8.93985 17.3128 9 17.6494 9 18C9 19.6569 7.65685 21 6 21C4.34315 21 3 19.6569 3 18C3 17.6494 3.06015 17.3128 3.17071 17H3C2.44772 17 2 16.5523 2 16C2 15.4477 2.44772 15 3 15H3.52298L2.2669 11.8598C2.0223 11.2483 2.09443 10.5556 2.45975 10.0076L3.97764 7.73078C4.22434 7.36073 4.58735 7.08346 5.00928 6.94282L10.4598 5.12597L12 3.58579C12.3751 3.21071 12.8838 3 13.4142 3ZM15 5L13.4142 5L11.874 6.54018C11.6545 6.75973 11.3868 6.92515 11.0923 7.02333L5.64174 8.84018L4.12385 11.117L5.67704 15H15V5ZM18.0087 17H17.9913C17.443 17.0047 17 17.4506 17 18C17 18.5523 17.4477 19 18 19C18.5523 19 19 18.5523 19 18C19 17.4506 18.557 17.0047 18.0087 17ZM18.0151 15H20V12.4807L17 10.0807V15L17.9849 15L18 15L18.0151 15ZM5 18C5 18.5523 5.44772 19 6 19C6.55228 19 7 18.5523 7 18C7 17.4477 6.55228 17 6 17C5.44772 17 5 17.4477 5 18Z" fill="#777B92"/>
</svg>
