<svg width="24" height="24" viewBox="0 0 24 24" fill="none" xmlns="http://www.w3.org/2000/svg">
<path fill-rule="evenodd" clip-rule="evenodd" d="M2 8.5C2 5.46243 4.46243 3 7.5 3H12.5C15.5376 3 18 5.46243 18 8.5L21.2 10.9001C21.7036 11.2778 22 11.8705 22 12.5001V15.0001C22 15.205 21.9692 15.4028 21.9119 15.589C21.9685 15.7144 22 15.8535 22 16C22 16.5523 21.5523 17 21 17H20.8293C20.9398 17.3128 21 17.6494 21 18C21 19.6569 19.6569 21 18 21C16.3431 21 15 19.6569 15 18C15 17.6494 15.0602 17.3128 15.1707 17H8.82929C8.93985 17.3128 9 17.6494 9 18C9 19.6569 7.65685 21 6 21C4.34315 21 3 19.6569 3 18C3 17.6494 3.06015 17.3128 3.17071 17H3C2.44772 17 2 16.5523 2 16C2 15.4477 2.44772 15 3 15V12C3 11.9025 3.01396 11.8082 3.03999 11.7191C2.38565 10.8141 2 9.70211 2 8.5ZM5 13.4003V15L15 15V13.4003C14.2499 13.7837 13.4002 14 12.5 14H7.5C6.59978 14 5.75007 13.7837 5 13.4003ZM17 15H20V12.5001L17.5565 10.6674C17.3961 11.0411 17.1954 11.3935 16.96 11.7191C16.986 11.8082 17 11.9025 17 12V15ZM5.99919 17C5.44728 17.0004 5 17.448 5 18C5 18.5523 5.44772 19 6 19C6.55228 19 7 18.5523 7 18C7 17.448 6.55272 17.0004 6.00081 17H5.99919ZM7.5 5C5.567 5 4 6.567 4 8.5C4 10.433 5.567 12 7.5 12H12.5C14.433 12 16 10.433 16 8.5C16 6.567 14.433 5 12.5 5H7.5ZM17.989 17.0001C17.4418 17.006 17 17.4514 17 18C17 18.5523 17.4477 19 18 19C18.5523 19 19 18.5523 19 18C19 17.4514 18.5582 17.006 18.011 17.0001H17.989Z" fill="#777B92"/>
</svg>
