<svg width="24" height="24" viewBox="0 0 24 24" fill="none" xmlns="http://www.w3.org/2000/svg">
<path fill-rule="evenodd" clip-rule="evenodd" d="M11.2929 2.29289C11.6834 1.90237 12.3166 1.90237 12.7071 2.29289L14.7071 4.29289C14.8946 4.48043 15 4.73478 15 5V7.66673L20.8 15.4001C20.9298 15.5732 21 15.7837 21 16.0001V20.0001C21 20.3881 20.7755 20.7411 20.4242 20.9056C20.0728 21.0702 19.6579 21.0167 19.3598 20.7683L15 17.1351V21C15 21.5523 14.5523 22 14 22H10C9.44772 22 9 21.5523 9 21V17.1351L4.64018 20.7683C4.3421 21.0167 3.92723 21.0702 3.57584 20.9056C3.22446 20.7411 3 20.3881 3 20.0001V16.0001C3 15.7837 3.07018 15.5732 3.2 15.4001L9 7.66673V5C9 4.73478 9.10536 4.48043 9.29289 4.29289L11.2929 2.29289ZM13 14.9921V8.01191C12.9999 8.00452 12.9999 7.99713 13 7.98974V5.41421L12 4.41421L11 5.41421V20H13V15.007C13 15.002 13 14.997 13 14.9921ZM15 14.5317L19 17.865V16.3334L15 11.0001V14.5317ZM9 14.5317V11.0001L5 16.3334V17.865L9 14.5317Z" fill="#777B92"/>
</svg>
