<svg width="22" height="22" viewBox="0 0 22 22" fill="none" xmlns="http://www.w3.org/2000/svg">
<path d="M20.6001 10.2093L16.0007 6.5141V3.99739C16.0251 3.49299 15.8484 2.99948 15.5091 2.62505C15.1699 2.25062 14.6958 2.02585 14.1908 2H2.7921C2.29072 2.03092 1.82173 2.2579 1.48672 2.63176C1.15172 3.00562 0.977673 3.49626 1.0023 3.99739V13.9843C0.993018 14.3809 1.10218 14.7713 1.31587 15.1057C1.52957 15.4401 1.83811 15.7033 2.20217 15.8619C2.01802 16.3118 1.94625 16.7998 1.99306 17.2836C2.03986 17.7675 2.20382 18.2327 2.47081 18.6391C2.73779 19.0455 3.09977 19.381 3.52552 19.6165C3.95127 19.852 4.42799 19.9805 4.91456 19.9909C5.40113 20.0013 5.88293 19.8933 6.31838 19.6763C6.75384 19.4592 7.12987 19.1395 7.41404 18.7449C7.69821 18.3503 7.88198 17.8925 7.94949 17.4111C8.017 16.9297 7.96623 16.4392 7.80155 15.9817H14.1609C13.9964 16.4343 13.9436 16.9197 14.0068 17.397C14.07 17.8743 14.2475 18.3293 14.5241 18.7235C14.8008 19.1177 15.1685 19.4396 15.596 19.6618C16.0236 19.884 16.4985 20 16.9805 20C17.4625 20 17.9374 19.884 18.365 19.6618C18.7926 19.4396 19.1603 19.1177 19.437 18.7235C19.7136 18.3293 19.891 17.8743 19.9543 17.397C20.0175 16.9197 19.9647 16.4343 19.8002 15.9817H20.0002C20.2654 15.9817 20.5197 15.8765 20.7072 15.6892C20.8948 15.5019 21.0001 15.2479 21.0001 14.983V10.9883C20.997 10.8366 20.9594 10.6876 20.8901 10.5527C20.8208 10.4177 20.7217 10.3003 20.6001 10.2093ZM19.0003 11.4676V13.9843H16.0007V9.07076L19.0003 11.4676ZM6.00175 16.9804C6.00175 17.1779 5.94311 17.371 5.83324 17.5353C5.72337 17.6995 5.56721 17.8275 5.3845 17.9031C5.20179 17.9787 5.00075 17.9985 4.80679 17.9599C4.61283 17.9214 4.43467 17.8263 4.29483 17.6866C4.15499 17.5469 4.05976 17.369 4.02118 17.1753C3.9826 16.9815 4.0024 16.7807 4.07808 16.5982C4.15376 16.4158 4.28192 16.2598 4.44635 16.15C4.61078 16.0403 4.8041 15.9817 5.00186 15.9817C5.26705 15.9817 5.52137 16.0869 5.70889 16.2742C5.8964 16.4615 6.00175 16.7156 6.00175 16.9804ZM11.0012 13.9843H3.00208V3.99739H14.0009V13.9843H11.0012ZM18.0004 16.9804C18.0004 17.1779 17.9418 17.371 17.8319 17.5353C17.722 17.6995 17.5659 17.8275 17.3832 17.9031C17.2005 17.9787 16.9994 17.9985 16.8055 17.9599C16.6115 17.9214 16.4333 17.8263 16.2935 17.6866C16.1537 17.5469 16.0584 17.369 16.0199 17.1753C15.9813 16.9815 16.0011 16.7807 16.0768 16.5982C16.1524 16.4158 16.2806 16.2598 16.445 16.15C16.6095 16.0403 16.8028 15.9817 17.0005 15.9817C17.2657 15.9817 17.5201 16.0869 17.7076 16.2742C17.8951 16.4615 18.0004 16.7156 18.0004 16.9804Z" fill="#97A3BA"/>
</svg>
