<svg width="24" height="24" viewBox="0 0 24 24" fill="none" xmlns="http://www.w3.org/2000/svg">
<path fill-rule="evenodd" clip-rule="evenodd" d="M4.3874 3H19.6125C20.9777 3 21.9416 4.33739 21.5099 5.63246L19.1766 12.6325C19.1309 12.7694 19.0715 12.8989 19 13.0195V15H21C21.5523 15 22 15.4477 22 16C22 16.5523 21.5523 17 21 17H20.8293C20.9398 17.3128 21 17.6494 21 18C21 19.6569 19.6569 21 18 21C16.3431 21 15 19.6569 15 18C15 17.6494 15.0602 17.3128 15.1707 17H8.82929C8.93985 17.3128 9 17.6494 9 18C9 19.6569 7.65685 21 6 21C4.34315 21 3 19.6569 3 18C3 17.6494 3.06015 17.3128 3.17071 17H3C2.44772 17 2 16.5523 2 16C2 15.4477 2.44772 15 3 15H5V13.0196C4.92852 12.8989 4.86902 12.7694 4.82337 12.6325L2.49003 5.63245C2.05834 4.33739 3.02229 3 4.3874 3ZM7 15H17V14H7V15ZM6 17C5.44772 17 5 17.4477 5 18C5 18.5523 5.44772 19 6 19C6.55228 19 7 18.5523 7 18C7 17.4477 6.55228 17 6 17ZM17 18C17 18.5523 17.4477 19 18 19C18.5523 19 19 18.5523 19 18C19 17.4477 18.5523 17 18 17C17.4477 17 17 17.4477 17 18ZM4.3874 5L6.72073 12L17.2792 12L19.6125 5H4.3874Z" fill="#777B92"/>
</svg>
