<svg width="16" height="16" viewBox="0 0 16 16" fill="none" xmlns="http://www.w3.org/2000/svg">
<path fill-rule="evenodd" clip-rule="evenodd" d="M4 3C4 3.55228 3.55228 4 3 4C2.44772 4 2 3.55228 2 3C2 2.44772 2.44772 2 3 2C3.55228 2 4 2.44772 4 3Z" fill="#777B92"/>
<path fill-rule="evenodd" clip-rule="evenodd" d="M3 8C2.44772 8 2 7.55228 2 7C2 6.44772 2.44772 6 3 6C3.55228 6 4 6.44772 4 7C4 7.55228 3.55228 8 3 8Z" fill="#777B92"/>
<path fill-rule="evenodd" clip-rule="evenodd" d="M0.5 2C0.5 1.17157 1.17157 0.5 2 0.5H14C14.8284 0.5 15.5 1.17157 15.5 2V4C15.5 4.38418 15.3556 4.73462 15.1181 5C15.3556 5.26538 15.5 5.61582 15.5 6V8C15.5 8.82843 14.8284 9.5 14 9.5H2C1.17157 9.5 0.5 8.82843 0.5 8V6C0.5 5.61582 0.644427 5.26538 0.881947 5C0.644427 4.73462 0.5 4.38418 0.5 4V2ZM2 4.5H14C14.2761 4.5 14.5 4.27614 14.5 4V2C14.5 1.72386 14.2761 1.5 14 1.5H2C1.72386 1.5 1.5 1.72386 1.5 2V4C1.5 4.27614 1.72386 4.5 2 4.5ZM2 5.5C1.72386 5.5 1.5 5.72386 1.5 6V8C1.5 8.27614 1.72386 8.5 2 8.5H14C14.2761 8.5 14.5 8.27614 14.5 8V6C14.5 5.72386 14.2761 5.5 14 5.5H2Z" fill="#777B92"/>
<path fill-rule="evenodd" clip-rule="evenodd" d="M8 13C7.44772 13 7 12.5523 7 12C7 11.4477 7.44772 11 8 11C8.55228 11 9 11.4477 9 12C9 12.5523 8.55228 13 8 13Z" fill="#777B92"/>
<path fill-rule="evenodd" clip-rule="evenodd" d="M1 14.5H15C15.2761 14.5 15.5 14.7239 15.5 15C15.5 15.2761 15.2761 15.5 15 15.5H1C0.723858 15.5 0.5 15.2761 0.5 15C0.5 14.7239 0.723858 14.5 1 14.5Z" fill="#777B92"/>
</svg>
