<svg width="16" height="16" viewBox="0 0 16 16" fill="none" xmlns="http://www.w3.org/2000/svg">
<path fill-rule="evenodd" clip-rule="evenodd" d="M7.80304 0.540427C7.92881 0.486524 8.07119 0.486524 8.19696 0.540427L15.197 3.54043C15.3808 3.61922 15.5 3.79999 15.5 4C15.5 4.20001 15.3808 4.38078 15.197 4.45957L11.6028 5.99994L15.197 7.54031C15.3808 7.6191 15.5 7.79987 15.5 7.99988C15.5 8.1999 15.3808 8.38067 15.197 8.45946L11.6026 9.99988L15.197 11.5403C15.3808 11.6191 15.5 11.7999 15.5 11.9999C15.5 12.1999 15.3808 12.3807 15.197 12.4595L8.19696 15.4595C8.07119 15.5134 7.92881 15.5134 7.80304 15.4595L0.80304 12.4595C0.619198 12.3807 0.5 12.1999 0.5 11.9999C0.5 11.7999 0.619198 11.6191 0.80304 11.5403L4.39737 9.99988L0.80304 8.45946C0.619198 8.38067 0.5 8.1999 0.5 7.99988C0.5 7.79987 0.619198 7.6191 0.80304 7.54031L4.39724 5.99994L0.80304 4.45957C0.619198 4.38078 0.5 4.20001 0.5 4C0.5 3.79999 0.619198 3.61922 0.80304 3.54043L7.80304 0.540427ZM8 10.4559L13.7307 7.99988L10.3335 6.54393L8.19696 7.45957C8.07119 7.51348 7.92881 7.51348 7.80304 7.45957L5.66653 6.54393L2.2693 7.99988L8 10.4559ZM10.3333 10.5439L8.19696 11.4595C8.07119 11.5134 7.92881 11.5134 7.80304 11.4595L5.66667 10.5439L2.2693 11.9999L8 14.4559L13.7307 11.9999L10.3333 10.5439ZM10.1268 5.54454C10.1331 5.54168 10.1395 5.53894 10.1459 5.53634L13.7307 4L8 1.54398L2.2693 4L5.85409 5.53634C5.86052 5.53894 5.8669 5.54167 5.87322 5.54454L8 6.45602L10.1268 5.54454Z" fill="#777B92"/>
</svg>
