<svg width="24" height="24" viewBox="0 0 24 24" fill="none" xmlns="http://www.w3.org/2000/svg">
<path fill-rule="evenodd" clip-rule="evenodd" d="M7 4C6.44772 4 6 4.44772 6 5C6 5.55228 6.44772 6 7 6H11V8C11 8.03344 11.0016 8.06649 11.0048 8.09908C9.78185 8.34617 8.7212 9.03955 7.99978 10H5V8C5 7.44772 4.55228 7 4 7C3.44772 7 3 7.44772 3 8V11V15V18C3 18.5523 3.44772 19 4 19C4.55229 19 5 18.5523 5 18V16H7.99978C8.91089 17.213 10.3631 18 12 18C13.6369 18 15.0891 17.213 16.0002 16H19V18C19 18.5523 19.4477 19 20 19C20.5523 19 21 18.5523 21 18V15V11V8C21 7.44772 20.5523 7 20 7C19.4477 7 19 7.44772 19 8V10H16.0002C15.2788 9.03955 14.2181 8.34617 12.9952 8.09908C12.9984 8.06649 13 8.03344 13 8V6H17C17.5523 6 18 5.55228 18 5C18 4.44772 17.5523 4 17 4H7ZM19 12V14H15.4649C15.1079 14 14.778 14.1903 14.5993 14.4993C14.079 15.3986 13.1092 16 12 16C10.8908 16 9.92096 15.3986 9.40073 14.4993C9.22199 14.1903 8.89209 14 8.53513 14H5V12H8.53513C8.89209 12 9.22199 11.8097 9.40073 11.5007C9.92096 10.6014 10.8908 10 12 10C13.1092 10 14.079 10.6014 14.5993 11.5007C14.778 11.8097 15.1079 12 15.4649 12H19Z" fill="#777B92"/>
</svg>
