<svg width="24" height="24" viewBox="0 0 24 24" fill="none" xmlns="http://www.w3.org/2000/svg">
<path fill-rule="evenodd" clip-rule="evenodd" d="M4.38743 3C3.02231 3 2.05837 4.33739 2.49006 5.63245L4.82339 12.6325C4.86905 12.7694 4.92854 12.8989 5 13.0196V15H3C2.44772 15 2 15.4477 2 16C2 16.5523 2.44772 17 3 17H3.17071C3.06015 17.3128 3 17.6494 3 18C3 19.6569 4.34315 21 6 21C7.65685 21 9 19.6569 9 18C9 17.6494 8.93985 17.3128 8.82929 17H15.1707C15.0602 17.3128 15 17.6494 15 18C15 19.6569 16.3431 21 18 21C19.6569 21 21 19.6569 21 18C21 17.6494 20.9398 17.3128 20.8293 17H21C21.5523 17 22 16.5523 22 16C22 15.4477 21.5523 15 21 15H19V13.0196C19.0715 12.8989 19.131 12.7694 19.1766 12.6325L21.5099 5.63246C21.9416 4.33739 20.9777 3 19.6126 3H4.38743ZM7 15V14H17V15H7ZM6 17C5.44772 17 5 17.4477 5 18C5 18.5523 5.44772 19 6 19C6.55228 19 7 18.5523 7 18C7 17.4477 6.55228 17 6 17ZM17 18C17 17.4477 17.4477 17 18 17C18.5523 17 19 17.4477 19 18C19 18.5523 18.5523 19 18 19C17.4477 19 17 18.5523 17 18ZM4.38743 5H19.6126L17.2792 12L6.72076 12L4.38743 5Z" fill="#777B92"/>
</svg>
