<svg width="24" height="24" viewBox="0 0 24 24" fill="none" xmlns="http://www.w3.org/2000/svg">
<path fill-rule="evenodd" clip-rule="evenodd" d="M13.0001 3C13.0001 2.44772 12.5524 2 12.0001 2C11.4478 2 11.0001 2.44772 11.0001 3V5H6.00009C5.4478 5 5.00009 5.44772 5.00009 6V9C5.00009 9.55228 5.4478 10 6.00009 10C6.55237 10 7.00009 9.55228 7.00009 9V7H12.0001H17.0001V9C17.0001 9.55228 17.4478 10 18.0001 10C18.5524 10 19.0001 9.55228 19.0001 9V6C19.0001 5.44772 18.5524 5 18.0001 5H13.0001V3ZM11.4992 9.1343C11.6351 9.0555 11.7913 9.00778 11.958 9.00087C11.986 8.99969 12.0141 8.99969 12.0422 9.00087C12.2089 9.00778 12.3651 9.0555 12.501 9.1343L21.4857 14.1258C21.8813 14.3456 22.08 14.8035 21.9702 15.2425L20.9702 19.2425C20.8589 19.6877 20.459 20 20.0001 20H12.0057L12.0001 20L11.9945 20H4.00009C3.54122 20 3.14124 19.6877 3.02995 19.2425L2.02995 15.2425C1.9202 14.8035 2.1189 14.3456 2.51445 14.1258L11.4992 9.1343ZM11.0001 11.6995L4.15627 15.5016L4.78086 18H11.0001V11.6995ZM13.0001 18H19.2193L19.8439 15.5016L13.0001 11.6995V18Z" fill="#777B92"/>
</svg>
