<svg width="24" height="24" viewBox="0 0 24 24" fill="none" xmlns="http://www.w3.org/2000/svg">
<path fill-rule="evenodd" clip-rule="evenodd" d="M7 6C7 5.44772 6.55228 5 6 5C5.44772 5 5 5.44772 5 6V7H3C2.44772 7 2 7.44772 2 8V11V12V16C2 17.6569 3.34315 19 5 19H20.5C20.8344 19 21.1466 18.8329 21.3321 18.5547C21.5175 18.2765 21.5517 17.924 21.4231 17.6154L20.3373 15.0096L21.9162 11.4008C22.0514 11.0916 22.0216 10.7351 21.8369 10.4527C21.6522 10.1702 21.3375 10 21 10H15C14.7348 10 14.4804 10.1054 14.2929 10.2929L13.5858 11H10V8C10 7.73478 9.89464 7.48043 9.70711 7.29289C9.51957 7.10536 9.26522 7 9 7H7V6ZM6 9H4V11H8V9H6ZM14.7071 12.7071L15.4142 12H19.471L18.596 14H17C16.4477 14 16 14.4477 16 15C16 15.5523 16.4477 16 17 16H18.5833L19 17H5C4.44772 17 4 16.5523 4 16V13H14C14.2652 13 14.5196 12.8946 14.7071 12.7071Z" fill="#777B92"/>
</svg>
