<svg width="22" height="22" viewBox="0 0 22 22" fill="none" xmlns="http://www.w3.org/2000/svg">
<path d="M15.9259 13.6228C15.9756 13.7448 16.0007 13.8754 16 14.0072C15.9955 14.1394 15.965 14.2694 15.9102 14.3897C15.8553 14.5101 15.7773 14.6183 15.6805 14.7082L11.6868 18.7137C11.5002 18.8972 11.2492 19 10.9879 19C10.7266 19 10.4756 18.8972 10.289 18.7137L6.29533 14.8484C6.20175 14.7553 6.12747 14.6445 6.07679 14.5225C6.0261 14.4005 6 14.2696 6 14.1374C6 14.0052 6.0261 13.8743 6.07679 13.7523C6.12747 13.6302 6.20175 13.5195 6.29533 13.4264C6.4824 13.2399 6.73545 13.1352 6.99922 13.1352C7.26299 13.1352 7.51604 13.2399 7.7031 13.4264L11.0079 16.6108L14.2927 13.2962C14.3855 13.2023 14.4959 13.1279 14.6176 13.077C14.7393 13.0262 14.8698 13 15.0016 13C15.1334 13 15.2639 13.0262 15.3855 13.077C15.5072 13.1279 15.6176 13.2024 15.7104 13.2962C15.803 13.3898 15.8762 13.5007 15.9259 13.6228Z" fill="#97A3BA"/>
<path d="M6.07413 8.37724C6.02444 8.25523 5.99926 8.12459 6.00002 7.9928C6.00447 7.86059 6.03499 7.73056 6.08983 7.61025C6.14467 7.48993 6.22273 7.38171 6.31951 7.29183L10.3132 3.28625C10.4998 3.10277 10.7508 3 11.0121 3C11.2734 3 11.5244 3.10277 11.711 3.28625L15.7047 7.15163C15.7983 7.24472 15.8725 7.35548 15.9232 7.47751C15.9739 7.59954 16 7.73042 16 7.86262C16 7.99482 15.9739 8.1257 15.9232 8.24773C15.8725 8.36976 15.7983 8.48052 15.7047 8.57361C15.5176 8.76012 15.2646 8.86481 15.0008 8.86481C14.737 8.86481 14.484 8.76012 14.2969 8.57361L10.9921 5.38918L7.70732 8.70379C7.6145 8.79765 7.50407 8.87215 7.38241 8.92299C7.26074 8.97383 7.13024 9 6.99844 9C6.86663 9 6.73614 8.97383 6.61447 8.92299C6.4928 8.87215 6.38238 8.79765 6.28956 8.70379C6.19703 8.61022 6.12381 8.49925 6.07413 8.37724Z" fill="#97A3BA"/>
</svg>
