<svg width="22" height="22" viewBox="0 0 22 22" fill="none" xmlns="http://www.w3.org/2000/svg">
<path d="M10.9299 11.4017C10.9796 11.2805 11.0049 11.1506 11.0041 11.0196C11.0005 10.7668 10.9004 10.5249 10.7241 10.3429L6.86409 6.36182C6.77653 6.25621 6.66802 6.16972 6.54535 6.10776C6.42267 6.04579 6.28847 6.00969 6.15113 6.0017C6.0138 5.99371 5.87628 6.014 5.74719 6.06132C5.61809 6.10864 5.5002 6.18196 5.40087 6.2767C5.30155 6.37143 5.22293 6.48554 5.16994 6.61189C5.11695 6.73825 5.09072 6.87413 5.0929 7.01103C5.09508 7.14793 5.12562 7.28291 5.18261 7.40753C5.23959 7.53215 5.3218 7.64372 5.42409 7.73528L8.60409 11.0196L5.29409 14.294C5.20085 14.3868 5.12689 14.497 5.07643 14.6182C5.02597 14.7395 5 14.8694 5 15.0007C5 15.1319 5.02597 15.2619 5.07643 15.3831C5.12689 15.5043 5.20085 15.6145 5.29409 15.7073C5.38733 15.8001 5.49802 15.8737 5.61984 15.9239C5.74166 15.9742 5.87223 16 6.00409 16C6.13595 16 6.26652 15.9742 6.38834 15.9239C6.51016 15.8737 6.62085 15.8001 6.71409 15.7073L10.7141 11.7263C10.8068 11.6333 10.8801 11.523 10.9299 11.4017Z" fill="#97A3BA"/>
<path d="M16.9299 11.4017C16.9796 11.2805 17.0049 11.1506 17.0041 11.0196C17.0005 10.7668 16.9004 10.5249 16.7241 10.3429L12.8641 6.36182C12.7765 6.25621 12.668 6.16972 12.5453 6.10776C12.4227 6.04579 12.2885 6.00969 12.1511 6.0017C12.0138 5.99371 11.8763 6.014 11.7472 6.06132C11.6181 6.10864 11.5002 6.18196 11.4009 6.27669C11.3015 6.37143 11.2229 6.48554 11.1699 6.61189C11.1169 6.73825 11.0907 6.87413 11.0929 7.01103C11.0951 7.14793 11.1256 7.28291 11.1826 7.40753C11.2396 7.53215 11.3218 7.64372 11.4241 7.73528L14.6041 11.0196L11.2941 14.294C11.2009 14.3868 11.1269 14.497 11.0764 14.6182C11.026 14.7395 11 14.8694 11 15.0007C11 15.1319 11.026 15.2619 11.0764 15.3831C11.1269 15.5043 11.2009 15.6145 11.2941 15.7073C11.3873 15.8001 11.498 15.8737 11.6198 15.9239C11.7417 15.9742 11.8722 16 12.0041 16C12.1359 16 12.2665 15.9742 12.3883 15.9239C12.5102 15.8737 12.6209 15.8001 12.7141 15.7073L16.7141 11.7263C16.8068 11.6333 16.8801 11.523 16.9299 11.4017Z" fill="#97A3BA"/>
</svg>
