<svg width="22" height="22" viewBox="0 0 22 22" fill="none" xmlns="http://www.w3.org/2000/svg">
<path d="M10.5983 10.9299C10.7195 10.9796 10.8494 11.0049 10.9804 11.0041C11.2332 11.0005 11.4751 10.9004 11.6571 10.7241L15.6382 6.86409C15.7438 6.77653 15.8303 6.66802 15.8922 6.54535C15.9542 6.42267 15.9903 6.28847 15.9983 6.15113C16.0063 6.0138 15.986 5.87628 15.9387 5.74719C15.8914 5.61809 15.818 5.5002 15.7233 5.40087C15.6286 5.30155 15.5145 5.22293 15.3881 5.16994C15.2618 5.11695 15.1259 5.09072 14.989 5.0929C14.8521 5.09508 14.7171 5.12562 14.5925 5.18261C14.4679 5.23959 14.3563 5.3218 14.2647 5.42409L10.9804 8.60409L7.70597 5.29409C7.61317 5.20085 7.503 5.12689 7.38176 5.07643C7.26051 5.02597 7.13057 5 6.99933 5C6.8681 5 6.73815 5.02597 6.6169 5.07643C6.49566 5.12689 6.38549 5.20085 6.2927 5.29409C6.1999 5.38733 6.12629 5.49802 6.07607 5.61984C6.02585 5.74166 6 5.87223 6 6.00409C6 6.13595 6.02585 6.26652 6.07607 6.38834C6.12629 6.51016 6.1999 6.62085 6.2927 6.71409L10.2737 10.7141C10.3667 10.8068 10.477 10.8801 10.5983 10.9299Z" fill="#97A3BA"/>
<path d="M10.5983 16.9299C10.7195 16.9796 10.8494 17.0049 10.9804 17.0041C11.2332 17.0005 11.4751 16.9004 11.6571 16.7241L15.6382 12.8641C15.7438 12.7765 15.8303 12.668 15.8922 12.5453C15.9542 12.4227 15.9903 12.2885 15.9983 12.1511C16.0063 12.0138 15.986 11.8763 15.9387 11.7472C15.8914 11.6181 15.818 11.5002 15.7233 11.4009C15.6286 11.3015 15.5145 11.2229 15.3881 11.1699C15.2618 11.117 15.1259 11.0907 14.989 11.0929C14.8521 11.0951 14.7171 11.1256 14.5925 11.1826C14.4679 11.2396 14.3563 11.3218 14.2647 11.4241L10.9804 14.6041L7.70597 11.2941C7.61317 11.2009 7.503 11.1269 7.38176 11.0764C7.26051 11.026 7.13057 11 6.99933 11C6.8681 11 6.73815 11.026 6.6169 11.0764C6.49566 11.1269 6.38549 11.2009 6.2927 11.2941C6.1999 11.3873 6.12629 11.498 6.07607 11.6198C6.02585 11.7417 6 11.8722 6 12.0041C6 12.136 6.02585 12.2665 6.07607 12.3883C6.12629 12.5102 6.1999 12.6209 6.2927 12.7141L10.2737 16.7141C10.3667 16.8068 10.477 16.8801 10.5983 16.9299Z" fill="#97A3BA"/>
</svg>
