<svg width="22" height="22" viewBox="0 0 22 22" fill="none" xmlns="http://www.w3.org/2000/svg">
<path d="M12.8659 16.0041C12.7312 16.0036 12.5979 15.9759 12.4742 15.9226C12.3505 15.8693 12.2388 15.7916 12.1459 15.6941L8.28586 11.6941C8.10263 11.5072 8 11.2558 8 10.9941C8 10.7323 8.10263 10.481 8.28586 10.2941L12.2859 6.29409C12.3791 6.20085 12.4898 6.12689 12.6116 6.07643C12.7334 6.02597 12.864 6 12.9959 6C13.1277 6 13.2583 6.02597 13.3801 6.07643C13.5019 6.12689 13.6126 6.20085 13.7059 6.29409C13.7991 6.38733 13.8731 6.49802 13.9235 6.61984C13.974 6.74166 13.9999 6.87223 13.9999 7.00409C13.9999 7.13595 13.974 7.26652 13.9235 7.38834C13.8731 7.51016 13.7991 7.62085 13.7059 7.71409L10.4059 11.0041L13.5859 14.3041C13.7721 14.4915 13.8766 14.7449 13.8766 15.0091C13.8766 15.2733 13.7721 15.5267 13.5859 15.7141C13.4912 15.808 13.3788 15.882 13.2551 15.9318C13.1315 15.9816 12.9991 16.0062 12.8659 16.0041Z" fill="#97A3BA"/>
</svg>
