<svg width="22" height="22" viewBox="0 0 22 22" fill="none" xmlns="http://www.w3.org/2000/svg">
<path d="M8.37724 15.9259C8.25523 15.9756 8.12459 16.0007 7.9928 16C7.86059 15.9955 7.73056 15.965 7.61025 15.9102C7.48993 15.8553 7.38171 15.7773 7.29183 15.6805L3.28626 11.6868C3.10277 11.5002 3 11.2492 3 10.9879C3 10.7266 3.10277 10.4756 3.28626 10.289L7.15163 6.29533C7.24472 6.20175 7.35548 6.12747 7.47751 6.07679C7.59954 6.0261 7.73042 6 7.86262 6C7.99482 6 8.1257 6.0261 8.24773 6.07679C8.36976 6.12747 8.48052 6.20175 8.57361 6.29533C8.76012 6.4824 8.86481 6.73545 8.86481 6.99922C8.86481 7.26299 8.76012 7.51604 8.57361 7.7031L5.38918 11.0079L8.70379 14.2927C8.79765 14.3855 8.87215 14.4959 8.92299 14.6176C8.97382 14.7393 9 14.8698 9 15.0016C9 15.1334 8.97382 15.2639 8.92299 15.3855C8.87215 15.5072 8.79765 15.6176 8.70379 15.7104C8.61022 15.803 8.49925 15.8762 8.37724 15.9259Z" fill="#97A3BA"/>
<path d="M13.6228 6.07413C13.7448 6.02444 13.8754 5.99926 14.0072 6.00002C14.1394 6.00447 14.2694 6.03499 14.3898 6.08983C14.5101 6.14467 14.6183 6.22273 14.7082 6.31951L18.7137 10.3132C18.8972 10.4998 19 10.7508 19 11.0121C19 11.2734 18.8972 11.5244 18.7137 11.711L14.8484 15.7047C14.7553 15.7983 14.6445 15.8725 14.5225 15.9232C14.4005 15.9739 14.2696 16 14.1374 16C14.0052 16 13.8743 15.9739 13.7523 15.9232C13.6302 15.8725 13.5195 15.7983 13.4264 15.7047C13.2399 15.5176 13.1352 15.2646 13.1352 15.0008C13.1352 14.737 13.2399 14.484 13.4264 14.2969L16.6108 10.9921L13.2962 7.70732C13.2024 7.6145 13.1279 7.50408 13.077 7.38241C13.0262 7.26074 13 7.13024 13 6.99844C13 6.86663 13.0262 6.73614 13.077 6.61447C13.1279 6.4928 13.2024 6.38238 13.2962 6.28956C13.3898 6.19703 13.5008 6.12381 13.6228 6.07413Z" fill="#97A3BA"/>
</svg>
