<svg width="24" height="24" viewBox="0 0 24 24" fill="none" xmlns="http://www.w3.org/2000/svg">
<path fill-rule="evenodd" clip-rule="evenodd" d="M10.7071 9.70711L8.41421 12L10.7071 14.2929C11.0976 14.6834 11.0976 15.3166 10.7071 15.7071C10.3166 16.0976 9.68342 16.0976 9.29289 15.7071L6.29289 12.7071C5.90237 12.3166 5.90237 11.6834 6.29289 11.2929L9.29289 8.29289C9.68342 7.90237 10.3166 7.90237 10.7071 8.29289C11.0976 8.68342 11.0976 9.31658 10.7071 9.70711Z" fill="#777B92"/>
<path fill-rule="evenodd" clip-rule="evenodd" d="M16.7071 9.70711L14.4142 12L16.7071 14.2929C17.0976 14.6834 17.0976 15.3166 16.7071 15.7071C16.3166 16.0976 15.6834 16.0976 15.2929 15.7071L12.2929 12.7071C11.9024 12.3166 11.9024 11.6834 12.2929 11.2929L15.2929 8.29289C15.6834 7.90237 16.3166 7.90237 16.7071 8.29289C17.0976 8.68342 17.0976 9.31658 16.7071 9.70711Z" fill="#777B92"/>
</svg>
