<svg width="22" height="22" viewBox="0 0 22 22" fill="none" xmlns="http://www.w3.org/2000/svg">
<path d="M15.0134 14C14.8817 14.0007 14.7511 13.9755 14.6291 13.9256C14.5072 13.8757 14.3963 13.8022 14.3028 13.7093L11.01 10.3915L7.70723 13.579C7.51971 13.7657 7.26605 13.8705 7.00164 13.8705C6.73723 13.8705 6.48357 13.7657 6.29605 13.579C6.20224 13.4858 6.12778 13.3749 6.07697 13.2528C6.02616 13.1307 6 12.9996 6 12.8673C6 12.735 6.02616 12.604 6.07697 12.4818C6.12778 12.3597 6.20224 12.2488 6.29605 12.1556L10.2994 8.28653C10.4865 8.10287 10.738 8 11 8C11.262 8 11.5135 8.10287 11.7006 8.28653L15.704 12.296C15.7978 12.3892 15.8722 12.5 15.923 12.6222C15.9738 12.7443 16 12.8753 16 13.0076C16 13.14 15.9738 13.271 15.923 13.3931C15.8722 13.5153 15.7978 13.6261 15.704 13.7193C15.5184 13.8984 15.2711 13.999 15.0134 14Z" fill="#97A3BA"/>
</svg>
