<svg width="22" height="22" viewBox="0 0 22 22" fill="none" xmlns="http://www.w3.org/2000/svg">
  <path d="M7.7035 4.2933C7.3125 3.9023 6.6825 3.9023 6.2925 4.2933 5.9025 4.6833 5.9025 5.3173 6.2925 5.7073L10.291 9.7033C10.681 10.1 11.321 10.1 11.711 9.7033L15.711 5.7073C16.101 5.3173 16.101 4.6833 15.711 4.2933 15.321 3.9023 14.681 3.9023 14.291 4.2933L11.001 7.5863Z" fill="#97A3BA"/>
  <path d="M6.0025 13C6.0025 13.55 6.4525 14 7.0025 14H15.001C15.551 14 16.001 13.55 16.001 13 16.001 12.45 15.551 12 15.001 12H7.0025C6.4525 12 6.0025 12.45 6.0025 13Z" fill="#97A3BA"/>
  <path d="M6.0025 17C6.0025 17.55 6.4525 18 7.0025 18H15.001C15.551 18 16.001 17.55 16.001 17 16.001 16.45 15.551 16 15.001 16H7.0025C6.4525 16 6.0025 16.45 6.0025 17Z" fill="#97A3BA"/>
</svg>
