<svg width="22" height="22" viewBox="0 0 22 22" fill="none" xmlns="http://www.w3.org/2000/svg">
<path d="M15.9259 18.3772C15.9756 18.2552 16.0007 18.1246 16 17.9928C15.9955 17.8606 15.965 17.7306 15.9102 17.6102C15.8553 17.4899 15.7773 17.3817 15.6805 17.2918L11.6868 13.2863C11.5002 13.1028 11.2492 13 10.9879 13C10.7266 13 10.4756 13.1028 10.289 13.2863L6.29533 17.1516C6.20175 17.2447 6.12747 17.3555 6.07679 17.4775C6.0261 17.5995 6 17.7304 6 17.8626C6 17.9948 6.0261 18.1257 6.07679 18.2477C6.12747 18.3698 6.20175 18.4805 6.29533 18.5736C6.4824 18.7601 6.73545 18.8648 6.99922 18.8648C7.26299 18.8648 7.51604 18.7601 7.7031 18.5736L11.0079 15.3892L14.2927 18.7038C14.3855 18.7976 14.4959 18.8721 14.6176 18.923C14.7393 18.9738 14.8698 19 15.0016 19C15.1334 19 15.2639 18.9738 15.3855 18.923C15.5072 18.8721 15.6176 18.7976 15.7104 18.7038C15.803 18.6102 15.8762 18.4992 15.9259 18.3772Z" fill="#97A3BA"/>
<path d="M6.07413 3.62276C6.02444 3.74477 5.99926 3.87541 6.00002 4.0072C6.00447 4.13941 6.03499 4.26944 6.08983 4.38975C6.14467 4.51007 6.22273 4.61829 6.31951 4.70817L10.3132 8.71375C10.4998 8.89723 10.7508 9 11.0121 9C11.2734 9 11.5244 8.89723 11.711 8.71375L15.7047 4.84837C15.7983 4.75528 15.8725 4.64452 15.9232 4.52249C15.9739 4.40046 16 4.26958 16 4.13738C16 4.00518 15.9739 3.8743 15.9232 3.75227C15.8725 3.63024 15.7983 3.51948 15.7047 3.42639C15.5176 3.23988 15.2646 3.13519 15.0008 3.13519C14.737 3.13519 14.484 3.23988 14.2969 3.42639L10.9921 6.61082L7.70732 3.29621C7.6145 3.20235 7.50407 3.12785 7.38241 3.07701C7.26074 3.02618 7.13024 3 6.99844 3C6.86663 3 6.73614 3.02618 6.61447 3.07701C6.4928 3.12785 6.38238 3.20235 6.28956 3.29621C6.19702 3.38978 6.12381 3.50075 6.07413 3.62276Z" fill="#97A3BA"/>
</svg>
