<svg width="22" height="22" viewBox="0 0 22 22" fill="none" xmlns="http://www.w3.org/2000/svg">
<path d="M11.0703 10.5983C11.0206 10.7195 10.9954 10.8494 10.9961 10.9804C10.9997 11.2332 11.0998 11.4751 11.2761 11.6571L15.1361 15.6382C15.2237 15.7438 15.3322 15.8303 15.4549 15.8922C15.5775 15.9542 15.7117 15.9903 15.8491 15.9983C15.9864 16.0063 16.1239 15.986 16.253 15.9387C16.3821 15.8914 16.5 15.818 16.5993 15.7233C16.6987 15.6286 16.7773 15.5145 16.8303 15.3881C16.8833 15.2618 16.9095 15.1259 16.9073 14.989C16.9051 14.8521 16.8746 14.7171 16.8176 14.5925C16.7606 14.4679 16.6784 14.3563 16.5761 14.2647L13.3961 10.9804L16.7061 7.70597C16.7994 7.61317 16.8733 7.503 16.9238 7.38176C16.9742 7.26052 17.0002 7.13057 17.0002 6.99933C17.0002 6.8681 16.9742 6.73815 16.9238 6.6169C16.8733 6.49566 16.7994 6.38549 16.7061 6.2927C16.6129 6.1999 16.5022 6.12629 16.3804 6.07607C16.2585 6.02585 16.128 6 15.9961 6C15.8643 6 15.7337 6.02585 15.6119 6.07607C15.49 6.12629 15.3794 6.1999 15.2861 6.2927L11.2861 10.2737C11.1934 10.3667 11.1201 10.477 11.0703 10.5983Z" fill="#97A3BA"/>
<path d="M5.07034 10.5983C5.02058 10.7195 4.99535 10.8494 4.99611 10.9804C4.99969 11.2332 5.09979 11.4751 5.27611 11.6571L9.13611 15.6382C9.22367 15.7438 9.33218 15.8303 9.45485 15.8922C9.57753 15.9542 9.71173 15.9903 9.84907 15.9983C9.9864 16.0063 10.1239 15.986 10.253 15.9387C10.3821 15.8914 10.5 15.818 10.5993 15.7233C10.6987 15.6286 10.7773 15.5145 10.8303 15.3881C10.8833 15.2618 10.9095 15.1259 10.9073 14.989C10.9051 14.8521 10.8746 14.7171 10.8176 14.5925C10.7606 14.4679 10.6784 14.3563 10.5761 14.2647L7.39611 10.9804L10.7061 7.70597C10.7993 7.61317 10.8733 7.503 10.9238 7.38176C10.9742 7.26051 11.0002 7.13057 11.0002 6.99933C11.0002 6.8681 10.9742 6.73815 10.9238 6.6169C10.8733 6.49566 10.7993 6.38549 10.7061 6.2927C10.6129 6.1999 10.5022 6.12629 10.3804 6.07607C10.2585 6.02585 10.128 6 9.99611 6C9.86425 6 9.73368 6.02585 9.61186 6.07607C9.49004 6.12629 9.37935 6.1999 9.28611 6.2927L5.28611 10.2737C5.19343 10.3667 5.1201 10.477 5.07034 10.5983Z" fill="#97A3BA"/>
</svg>
