<svg width="22" height="22" viewBox="0 0 22 22" fill="none" xmlns="http://www.w3.org/2000/svg">
<path d="M11.4017 11.0699C11.2805 11.0201 11.1506 10.9949 11.0196 10.9956C10.7668 10.9992 10.5249 11.0993 10.3429 11.2756L6.36182 15.1356C6.25621 15.2232 6.16972 15.3317 6.10776 15.4544C6.04579 15.577 6.00969 15.7112 6.0017 15.8486C5.99371 15.9859 6.014 16.1234 6.06132 16.2525C6.10864 16.3816 6.18196 16.4995 6.2767 16.5988C6.37143 16.6982 6.48554 16.7768 6.61189 16.8298C6.73825 16.8828 6.87413 16.909 7.01103 16.9068C7.14793 16.9046 7.28291 16.8741 7.40753 16.8171C7.53215 16.7601 7.64372 16.6779 7.73528 16.5756L11.0196 13.3956L14.294 16.7056C14.3868 16.7989 14.497 16.8728 14.6182 16.9233C14.7395 16.9737 14.8694 16.9997 15.0007 16.9997C15.1319 16.9997 15.2619 16.9737 15.3831 16.9233C15.5043 16.8728 15.6145 16.7989 15.7073 16.7056C15.8001 16.6124 15.8737 16.5017 15.9239 16.3799C15.9742 16.258 16 16.1275 16 15.9956C16 15.8638 15.9742 15.7332 15.9239 15.6114C15.8737 15.4895 15.8001 15.3789 15.7073 15.2856L11.7263 11.2856C11.6333 11.1929 11.523 11.1196 11.4017 11.0699Z" fill="#97A3BA"/>
<path d="M11.4017 5.06985C11.2805 5.02009 11.1506 4.99486 11.0196 4.99562C10.7668 4.9992 10.5249 5.09931 10.3429 5.27562L6.36182 9.13562C6.25621 9.22318 6.16972 9.33169 6.10776 9.45436C6.04579 9.57704 6.00969 9.71124 6.0017 9.84858C5.99371 9.98592 6.014 10.1234 6.06132 10.2525C6.10864 10.3816 6.18196 10.4995 6.27669 10.5988C6.37143 10.6982 6.48554 10.7768 6.61189 10.8298C6.73825 10.8828 6.87412 10.909 7.01103 10.9068C7.14793 10.9046 7.28291 10.8741 7.40753 10.8171C7.53215 10.7601 7.64372 10.6779 7.73528 10.5756L11.0196 7.39562L14.294 10.7056C14.3868 10.7989 14.497 10.8728 14.6182 10.9233C14.7395 10.9737 14.8694 10.9997 15.0007 10.9997C15.1319 10.9997 15.2619 10.9737 15.3831 10.9233C15.5043 10.8728 15.6145 10.7989 15.7073 10.7056C15.8001 10.6124 15.8737 10.5017 15.9239 10.3799C15.9742 10.2581 16 10.1275 16 9.99562C16 9.86376 15.9742 9.73319 15.9239 9.61137C15.8737 9.48955 15.8001 9.37886 15.7073 9.28562L11.7263 5.28562C11.6333 5.19294 11.523 5.11962 11.4017 5.06985Z" fill="#97A3BA"/>
</svg>
