<svg width="22" height="22" viewBox="0 0 22 22" fill="none" xmlns="http://www.w3.org/2000/svg">
<path d="M9.0072 16C8.87541 16.0007 8.74477 15.9756 8.62276 15.9259C8.50075 15.8762 8.38978 15.803 8.29621 15.7104C8.20235 15.6176 8.12785 15.5072 8.07701 15.3855C8.02617 15.2639 8 15.1334 8 15.0016C8 14.8698 8.02617 14.7393 8.07701 14.6176C8.12785 14.4959 8.20235 14.3855 8.29621 14.2927L11.6108 11.0079L8.42639 7.7031C8.23988 7.51604 8.13519 7.26299 8.13519 6.99922C8.13519 6.73545 8.23988 6.4824 8.42639 6.29533C8.51948 6.20175 8.63024 6.12747 8.75227 6.07679C8.8743 6.0261 9.00518 6 9.13738 6C9.26958 6 9.40046 6.0261 9.52249 6.07679C9.64452 6.12747 9.75528 6.20175 9.84837 6.29533L13.7137 10.289C13.8972 10.4756 14 10.7266 14 10.9879C14 11.2492 13.8972 11.5002 13.7137 11.6868L9.70817 15.6805C9.61829 15.7773 9.51007 15.8553 9.38975 15.9102C9.26944 15.965 9.13941 15.9955 9.0072 16Z" fill="#97A3BA"/>
</svg>
