<svg width="22" height="22" viewBox="0 0 22 22" fill="none" xmlns="http://www.w3.org/2000/svg">
<path d="M10.9804 14.0041C10.8494 14.0049 10.7195 13.9796 10.5983 13.9299C10.477 13.8801 10.3667 13.8068 10.2737 13.7141L6.2927 9.71409C6.1999 9.62085 6.12629 9.51016 6.07607 9.38834C6.02585 9.26652 6 9.13595 6 9.00409C6 8.87223 6.02585 8.74166 6.07607 8.61984C6.12629 8.49802 6.1999 8.38733 6.2927 8.29409C6.38549 8.20085 6.49566 8.12689 6.6169 8.07643C6.73815 8.02597 6.8681 8 6.99933 8C7.13057 8 7.26051 8.02597 7.38176 8.07643C7.503 8.12689 7.61317 8.20085 7.70597 8.29409L10.9804 11.6041L14.2647 8.42409C14.3563 8.3218 14.4679 8.23959 14.5925 8.18261C14.7171 8.12562 14.8521 8.09508 14.989 8.0929C15.1259 8.09072 15.2618 8.11695 15.3881 8.16994C15.5145 8.22293 15.6286 8.30155 15.7233 8.40087C15.818 8.5002 15.8914 8.61809 15.9387 8.74719C15.986 8.87628 16.0063 9.0138 15.9983 9.15113C15.9903 9.28847 15.9542 9.42267 15.8922 9.54535C15.8303 9.66802 15.7438 9.77653 15.6382 9.86409L11.6571 13.7241C11.4751 13.9004 11.2332 14.0005 10.9804 14.0041Z" fill="#97A3BA"/>
</svg>
