<svg width="24" height="24" viewBox="0 0 24 24" fill="none" xmlns="http://www.w3.org/2000/svg">
<path fill-rule="evenodd" clip-rule="evenodd" d="M9.29289 12.7071C8.90237 12.3166 8.90237 11.6834 9.29289 11.2929L12.5858 8L9.29289 4.70711C8.90237 4.31658 8.90237 3.68342 9.29289 3.29289C9.68342 2.90237 10.3166 2.90237 10.7071 3.29289L14.7071 7.29289C15.0976 7.68342 15.0976 8.31658 14.7071 8.70711L10.7071 12.7071C10.3166 13.0976 9.68342 13.0976 9.29289 12.7071Z" fill="#777B92"/>
<path fill-rule="evenodd" clip-rule="evenodd" d="M7 16C7 15.4477 7.44772 15 8 15H16C16.5523 15 17 15.4477 17 16C17 16.5523 16.5523 17 16 17H8C7.44772 17 7 16.5523 7 16Z" fill="#777B92"/>
<path fill-rule="evenodd" clip-rule="evenodd" d="M8 19H16C16.5523 19 17 19.4477 17 20C17 20.5523 16.5523 21 16 21H8C7.44772 21 7 20.5523 7 20C7 19.4477 7.44772 19 8 19Z" fill="#777B92"/>
</svg>
