<svg width="22" height="22" viewBox="0 0 22 22" fill="none" xmlns="http://www.w3.org/2000/svg">
<path d="M3.62276 15.9259C3.74477 15.9756 3.87541 16.0007 4.0072 16C4.13941 15.9955 4.26944 15.965 4.38975 15.9102C4.51007 15.8553 4.61829 15.7773 4.70817 15.6805L8.71374 11.6868C8.89723 11.5002 9 11.2492 9 10.9879C9 10.7266 8.89723 10.4756 8.71374 10.289L4.84837 6.29533C4.75528 6.20175 4.64452 6.12747 4.52249 6.07679C4.40046 6.0261 4.26958 6 4.13738 6C4.00518 6 3.8743 6.0261 3.75227 6.07679C3.63024 6.12747 3.51948 6.20175 3.42639 6.29533C3.23988 6.4824 3.13519 6.73545 3.13519 6.99922C3.13519 7.26299 3.23988 7.51604 3.42639 7.7031L6.61082 11.0079L3.29621 14.2927C3.20235 14.3855 3.12785 14.4959 3.07701 14.6176C3.02617 14.7393 3 14.8698 3 15.0016C3 15.1334 3.02617 15.2639 3.07701 15.3855C3.12785 15.5072 3.20235 15.6176 3.29621 15.7104C3.38978 15.803 3.50075 15.8762 3.62276 15.9259Z" fill="#97A3BA"/>
<path d="M18.3772 6.07413C18.2552 6.02444 18.1246 5.99926 17.9928 6.00002C17.8606 6.00447 17.7306 6.03499 17.6102 6.08983C17.4899 6.14467 17.3817 6.22273 17.2918 6.31951L13.2863 10.3132C13.1028 10.4998 13 10.7508 13 11.0121C13 11.2734 13.1028 11.5244 13.2863 11.711L17.1516 15.7047C17.2447 15.7983 17.3555 15.8725 17.4775 15.9232C17.5995 15.9739 17.7304 16 17.8626 16C17.9948 16 18.1257 15.9739 18.2477 15.9232C18.3698 15.8725 18.4805 15.7983 18.5736 15.7047C18.7601 15.5176 18.8648 15.2646 18.8648 15.0008C18.8648 14.737 18.7601 14.484 18.5736 14.2969L15.3892 10.9921L18.7038 7.70732C18.7976 7.6145 18.8721 7.50408 18.923 7.38241C18.9738 7.26074 19 7.13024 19 6.99844C19 6.86663 18.9738 6.73614 18.923 6.61447C18.8721 6.4928 18.7976 6.38238 18.7038 6.28956C18.6102 6.19703 18.4992 6.12381 18.3772 6.07413Z" fill="#97A3BA"/>
</svg>
