<svg width="24" height="24" viewBox="0 0 24 24" fill="none" xmlns="http://www.w3.org/2000/svg">
<path fill-rule="evenodd" clip-rule="evenodd" d="M12.7071 6.29289L16.7071 10.2929C17.0976 10.6834 17.0976 11.3166 16.7071 11.7071C16.3166 12.0976 15.6834 12.0976 15.2929 11.7071L12 8.41421L8.70711 11.7071C8.31658 12.0976 7.68342 12.0976 7.29289 11.7071C6.90237 11.3166 6.90237 10.6834 7.29289 10.2929L11.2929 6.29289C11.6834 5.90237 12.3166 5.90237 12.7071 6.29289Z" fill="#777B92"/>
<path fill-rule="evenodd" clip-rule="evenodd" d="M16.7071 16.2929C17.0976 16.6834 17.0976 17.3166 16.7071 17.7071C16.3166 18.0976 15.6834 18.0976 15.2929 17.7071L12 14.4142L8.70711 17.7071C8.31658 18.0976 7.68342 18.0976 7.29289 17.7071C6.90237 17.3166 6.90237 16.6834 7.29289 16.2929L11.2929 12.2929C11.6834 11.9024 12.3166 11.9024 12.7071 12.2929L16.7071 16.2929Z" fill="#777B92"/>
</svg>
