<svg width="22" height="22" viewBox="0 0 22 22" fill="none" xmlns="http://www.w3.org/2000/svg">
<path d="M13.0188 4.9994L8.98121 4.9994C7.85723 5.01179 7.74068 3.99942 8.41845 3.34057L10.219 1.34222C10.5 0.999512 11 1.00009 11 1.00009C11 1.00009 11.5 0.999512 11.781 1.34222L13.5815 3.34057C14.2593 3.99943 14.1428 5.0118 13.0188 4.9994Z" fill="#97A3BA"/>
<path d="M13.0188 17.0001L8.98121 17.0001C7.85723 16.9877 7.74068 18.0001 8.41845 18.6589L10.219 20.6573C10.5 21 11 20.9994 11 20.9994C11 20.9994 11.5 21 11.781 20.6573L13.5815 18.6589C14.2593 18.0001 14.1428 16.9877 13.0188 17.0001Z" fill="#97A3BA"/>
</svg>
