<svg width="16" height="16" viewBox="0 0 16 16" fill="none" xmlns="http://www.w3.org/2000/svg">
<path fill-rule="evenodd" clip-rule="evenodd" d="M5.50013 6C5.50013 6.38094 5.54736 6.75039 5.63618 7.10303L6.65633 6.13696C6.85683 5.94708 7.1733 5.9557 7.36317 6.1562C7.55305 6.3567 7.54444 6.67317 7.34393 6.86304L5.75998 8.36304C5.61676 8.49867 5.4072 8.53742 5.22496 8.46199L2.80891 7.46199C2.55376 7.35638 2.43253 7.06393 2.53814 6.80878C2.64375 6.55363 2.9362 6.4324 3.19135 6.53801L4.61594 7.12765C4.54001 6.76344 4.50013 6.38622 4.50013 6C4.50013 2.96243 6.96256 0.5 10.0001 0.5C13.0377 0.5 15.5001 2.96243 15.5001 6C15.5001 9.03757 13.0377 11.5 10.0001 11.5C9.72399 11.5 9.50013 11.2761 9.50013 11C9.50013 10.7239 9.72399 10.5 10.0001 10.5C12.4854 10.5 14.5001 8.48528 14.5001 6C14.5001 3.51472 12.4854 1.5 10.0001 1.5C7.51485 1.5 5.50013 3.51472 5.50013 6Z" fill="#777B92"/>
<path fill-rule="evenodd" clip-rule="evenodd" d="M0.692294 0.605902C0.813652 0.511148 0.971897 0.477591 1.12127 0.514933L3.12127 1.01493C3.38917 1.08191 3.55205 1.35337 3.48507 1.62127C3.4181 1.88917 3.14663 2.05205 2.87873 1.98508L1.5 1.64039V12.6229L7.5 14.3371V12C7.5 11.7239 7.72386 11.5 8 11.5C8.27614 11.5 8.5 11.7239 8.5 12V14.3371L14.5 12.6229V11C14.5 10.7239 14.7239 10.5 15 10.5C15.2761 10.5 15.5 10.7239 15.5 11V13C15.5 13.2232 15.352 13.4194 15.1374 13.4808L8.14829 15.4776C8.10604 15.4907 8.06139 15.4984 8.01517 15.4998C8.00506 15.5001 7.99494 15.5001 7.98483 15.4998C7.93861 15.4984 7.89396 15.4907 7.85171 15.4776L0.862639 13.4808C0.647989 13.4194 0.5 13.2232 0.5 13V1C0.5 0.846037 0.570936 0.700655 0.692294 0.605902Z" fill="#777B92"/>
</svg>
