<svg width="16" height="16" viewBox="0 0 16 16" fill="none" xmlns="http://www.w3.org/2000/svg">
<path fill-rule="evenodd" clip-rule="evenodd" d="M3 0.5H13C13.8284 0.5 14.5 1.17157 14.5 2V13.5382C14.5 14.5932 13.4396 15.3186 12.4563 14.9362L8.18122 13.2736C8.06466 13.2283 7.93534 13.2283 7.81878 13.2736L3.54367 14.9362C2.56037 15.3186 1.5 14.5932 1.5 13.5382V2C1.5 1.17157 2.17157 0.5 3 0.5ZM11.3536 4.64645C11.1583 4.45118 10.8417 4.45118 10.6464 4.64645L7 8.29289L5.35355 6.64645C5.15829 6.45118 4.84171 6.45118 4.64645 6.64645C4.45118 6.84171 4.45118 7.15829 4.64645 7.35355L6.64645 9.35355C6.74021 9.44732 6.86739 9.5 7 9.5C7.13261 9.5 7.25979 9.44732 7.35355 9.35355L11.3536 5.35355C11.5488 5.15829 11.5488 4.84171 11.3536 4.64645Z" fill="#777B92"/>
</svg>
