<svg width="16" height="16" viewBox="0 0 16 16" fill="none" xmlns="http://www.w3.org/2000/svg">
<path fill-rule="evenodd" clip-rule="evenodd" d="M3 0.5H13C13.8284 0.5 14.5 1.17157 14.5 2V13.5382C14.5 14.5932 13.4396 15.3186 12.4563 14.9362L8.18122 13.2736C8.06466 13.2283 7.93534 13.2283 7.81878 13.2736L3.54367 14.9362C2.56037 15.3186 1.5 14.5932 1.5 13.5382V2C1.5 1.17157 2.17157 0.5 3 0.5ZM10.3536 5.35355C10.5488 5.15829 10.5488 4.84171 10.3536 4.64645C10.1583 4.45118 9.84171 4.45118 9.64645 4.64645L8 6.29289L6.35355 4.64645C6.15829 4.45118 5.84171 4.45118 5.64645 4.64645C5.45118 4.84171 5.45118 5.15829 5.64645 5.35355L7.29289 7L5.64645 8.64645C5.45118 8.84171 5.45118 9.15829 5.64645 9.35355C5.84171 9.54882 6.15829 9.54882 6.35355 9.35355L8 7.70711L9.64645 9.35355C9.84171 9.54882 10.1583 9.54882 10.3536 9.35355C10.5488 9.15829 10.5488 8.84171 10.3536 8.64645L8.70711 7L10.3536 5.35355Z" fill="#777B92"/>
</svg>
