<svg width="16" height="16" viewBox="0 0 16 16" fill="none" xmlns="http://www.w3.org/2000/svg">
<path fill-rule="evenodd" clip-rule="evenodd" d="M12.1913 0.53806C12.3782 0.61545 12.5 0.797768 12.5 0.999999V3.69105L14.7765 2.55279C14.9315 2.47529 15.1156 2.48357 15.263 2.57468C15.4104 2.66578 15.5001 2.82671 15.5001 3V13C15.5001 13.2232 15.3521 13.4194 15.1375 13.4808L8.14685 15.4781C8.12446 15.485 8.10139 15.4903 8.07779 15.494C8.02087 15.503 7.96416 15.5019 7.90974 15.4919C7.88989 15.4883 7.87045 15.4835 7.85149 15.4776L0.862639 13.4808C0.647989 13.4194 0.5 13.2232 0.5 13V3C0.5 2.8431 0.573645 2.69531 0.698902 2.60083C0.824159 2.50634 0.986502 2.47613 1.13736 2.51924L7.85448 4.43841L11.6464 0.646446C11.7894 0.503447 12.0045 0.460669 12.1913 0.53806ZM8.5 14L11.5 11.75V2.20711L8.5 5.20711V14ZM7.5 5.37715L1.5 3.66286V12.6228L7.5 14.3371L7.5 5.37715ZM12.5 12C12.5 12.1574 12.4259 12.3056 12.3 12.4L10.4661 13.7754L14.5001 12.6229V3.80902L12.5 4.80908V12Z" fill="#777B92"/>
</svg>
