<svg width="22" height="22" viewBox="0 0 22 22" fill="none" xmlns="http://www.w3.org/2000/svg">
<path d="M7.00024 6C7.00024 5.44772 6.55253 5 6.00024 5H3.17016C2.56077 5.03612 1.99045 5.31198 1.58384 5.76732C1.17723 6.22265 0.967381 6.82042 1.00016 7.43V14.57C0.967381 15.1796 1.17723 15.7774 1.58384 16.2327C1.99045 16.688 2.56077 16.9639 3.17016 17H6.00024C6.55253 17 7.00024 16.5523 7.00024 16C7.00024 15.4477 6.55253 15 6.00024 15H3.2569C3.18718 14.9886 3.12308 14.9537 3.07561 14.9005C3.02104 14.8394 2.99288 14.7592 2.99728 14.6774L3.00016 14.6237V7.37626L2.99728 7.3226C2.99288 7.2408 3.02104 7.16057 3.07561 7.09947C3.12308 7.04631 3.18718 7.01138 3.2569 7H6.00024C6.55253 7 7.00024 6.55228 7.00024 6Z" fill="#97A3BA"/>
<path d="M13.0002 16C13.0002 15.4477 13.448 15 14.0002 15H15.7433C15.8131 14.9886 15.8772 14.9537 15.9246 14.9005C15.9792 14.8394 16.0074 14.7592 16.003 14.6774L16.0001 14.6237V7.37626L16.003 7.3226C16.0074 7.2408 15.9792 7.16058 15.9246 7.09947C15.8772 7.04631 15.8131 7.01138 15.7433 7H14.0002C13.448 7 13.0002 6.55228 13.0002 6C13.0002 5.44772 13.448 5 14.0002 5H15.8301C16.4395 5.03612 17.0098 5.31198 17.4164 5.76732C17.823 6.22265 18.0329 6.82042 18.0001 7.43V14.57C18.0329 15.1796 17.823 15.7774 17.4164 16.2327C17.0098 16.688 16.4395 16.9639 15.8301 17H14.0002C13.448 17 13.0002 16.5523 13.0002 16Z" fill="#97A3BA"/>
<path d="M21 8C20.7348 8 20.4804 8.10536 20.2929 8.29289C20.1054 8.48043 20 8.73478 20 9V13C20 13.2652 20.1054 13.5196 20.2929 13.7071C20.4804 13.8946 20.7348 14 21 14C21.2652 14 21.5196 13.8946 21.7071 13.7071C21.8946 13.5196 22 13.2652 22 13V9C22 8.73478 21.8946 8.48043 21.7071 8.29289C21.5196 8.10536 21.2652 8 21 8Z" fill="#97A3BA"/>
<path d="M9 6C9 5.44772 9.44772 5 10 5C10.5523 5 11 5.44772 11 6V12C11 12.5523 10.5523 13 10 13C9.44772 13 9 12.5523 9 12V6Z" fill="#97A3BA"/>
<path d="M10 17C10.5523 17 11 16.5523 11 16C11 15.4477 10.5523 15 10 15C9.44771 15 9 15.4477 9 16C9 16.5523 9.44771 17 10 17Z" fill="#97A3BA"/>
</svg>
