<svg width="24" height="24" viewBox="0 0 24 24" fill="none" xmlns="http://www.w3.org/2000/svg">
<path fill-rule="evenodd" clip-rule="evenodd" d="M20.7071 1.29289C21.0976 1.68342 21.0976 2.31658 20.7071 2.70711L18.4142 5C17.6332 5.78105 16.3668 5.78105 15.5858 5L14.2929 3.70711C13.9024 3.31658 13.9024 2.68342 14.2929 2.29289C14.6834 1.90237 15.3166 1.90237 15.7071 2.29289L17 3.58579L19.2929 1.29289C19.6834 0.902369 20.3166 0.902369 20.7071 1.29289Z" fill="#777B92"/>
<path fill-rule="evenodd" clip-rule="evenodd" d="M12.9923 2.12413L12.1328 9.0001H18C18.3688 9.0001 18.7077 9.20308 18.8817 9.52824C19.0557 9.8534 19.0366 10.2479 18.8321 10.5548L10.8321 22.5548C10.5748 22.9407 10.086 23.099 9.65131 22.9373C9.21664 22.7756 8.9502 22.3363 9.00772 21.8761L9.86722 15.0001H4C3.63121 15.0001 3.29235 14.7971 3.11833 14.472C2.94431 14.1468 2.96338 13.7523 3.16795 13.4454L11.168 1.4454C11.4252 1.05951 11.914 0.901142 12.3487 1.06286C12.7834 1.22458 13.0498 1.66393 12.9923 2.12413ZM11 13.0001C11.2868 13.0001 11.5599 13.1233 11.7497 13.3383C11.9395 13.5533 12.0279 13.8395 11.9923 14.1241L11.5177 17.9208L16.1315 11.0001H11C10.7132 11.0001 10.4401 10.8769 10.2503 10.6619C10.0605 10.4469 9.97215 10.1607 10.0077 9.87606L10.4823 6.07942L5.86852 13.0001H11Z" fill="#777B92"/>
</svg>
