<svg width="24" height="24" viewBox="0 0 24 24" fill="none" xmlns="http://www.w3.org/2000/svg">
<path fill-rule="evenodd" clip-rule="evenodd" d="M8 11H13C13.5523 11 14 11.4477 14 12C14 12.5523 13.5523 13 13 13H8C7.44772 13 7 12.5523 7 12C7 11.4477 7.44772 11 8 11Z" fill="#777B92"/>
<path fill-rule="evenodd" clip-rule="evenodd" d="M2 8C2 6.89543 2.89543 6 4 6H17C18.1046 6 19 6.89543 19 8V16C19 17.1046 18.1046 18 17 18H4C2.89543 18 2 17.1046 2 16V8ZM17 8L4 8V16H17V8Z" fill="#777B92"/>
<path fill-rule="evenodd" clip-rule="evenodd" d="M22 9C22.5523 9 23 9.44772 23 10V14C23 14.5523 22.5523 15 22 15C21.4477 15 21 14.5523 21 14V10C21 9.44772 21.4477 9 22 9Z" fill="#777B92"/>
</svg>
