<svg width="24" height="24" viewBox="0 0 24 24" fill="none" xmlns="http://www.w3.org/2000/svg">
<path fill-rule="evenodd" clip-rule="evenodd" d="M13.9701 1.7575L15.7808 9.00004H19C19.3688 9.00004 19.7077 9.20302 19.8817 9.52818C20.0557 9.85334 20.0366 10.2479 19.8321 10.5547L17.8321 13.5547C17.5257 14.0143 16.9048 14.1384 16.4453 13.8321C15.9858 13.5257 15.8616 12.9049 16.168 12.4453L17.1315 11H15C14.5411 11 14.1412 10.6877 14.0299 10.2426L12.5781 4.43563L11.1654 6.55474C10.859 7.01427 10.2382 7.13844 9.77863 6.83209C9.31911 6.52573 9.19493 5.90486 9.50128 5.44534L12.168 1.44534C12.3875 1.116 12.7807 0.947153 13.1707 1.01471C13.5607 1.08226 13.8741 1.3735 13.9701 1.7575Z" fill="#777B92"/>
<path fill-rule="evenodd" clip-rule="evenodd" d="M7.83205 11.5547L6.86852 13H9C9.45887 13 9.85885 13.3123 9.97014 13.7575L11.4219 19.5644L13.168 16.9453C13.4743 16.4858 14.0952 16.3616 14.5547 16.668C15.0142 16.9743 15.1384 17.5952 14.8321 18.0547L11.8321 22.5547C11.6125 22.8841 11.2193 23.0529 10.8293 22.9854C10.4393 22.9178 10.1259 22.6266 10.0299 22.2426L8.21922 15H5C4.63121 15 4.29235 14.7971 4.11833 14.4719C3.94431 14.1467 3.96338 13.7522 4.16795 13.4453L6.16795 10.4453C6.4743 9.98581 7.09517 9.86163 7.5547 10.168C8.01423 10.4743 8.1384 11.0952 7.83205 11.5547Z" fill="#777B92"/>
<path fill-rule="evenodd" clip-rule="evenodd" d="M4.70711 3.29289L20.7071 19.2929C21.0976 19.6834 21.0976 20.3166 20.7071 20.7071C20.3166 21.0976 19.6834 21.0976 19.2929 20.7071L3.29289 4.70711C2.90237 4.31658 2.90237 3.68342 3.29289 3.29289C3.68342 2.90237 4.31658 2.90237 4.70711 3.29289Z" fill="#777B92"/>
</svg>
