<svg width="22" height="22" viewBox="0 0 22 22" fill="none" xmlns="http://www.w3.org/2000/svg">
<path d="M10.2435 7.06547L10.5127 4.72645L9.43585 6.28258L8 4.89076L11.111 0.42537C11.2354 0.246887 11.4178 0.113811 11.6292 0.0472696C11.8405 -0.019272 12.0688 -0.015465 12.2776 0.058086C12.4784 0.130347 12.6499 0.263363 12.7666 0.437442C12.8834 0.61152 12.9392 0.817407 12.9258 1.02462L12.158 7.87736H18.031C18.2096 7.88225 18.3836 7.93356 18.5347 8.02594C18.6859 8.11831 18.8086 8.24836 18.8901 8.40246C18.9717 8.55657 19.009 8.72908 18.9982 8.90196C18.9874 9.07483 18.9288 9.24172 18.8287 9.38516L16.3359 13L14.9001 11.6082L16.1365 9.81043H13.0454L10.2435 7.06547Z" fill="#97A3BA"/>
<path d="M19.7044 18.2851L3.71315 2.29393C3.61996 2.20074 3.50933 2.12682 3.38758 2.07639C3.26582 2.02596 3.13533 2 3.00354 2C2.87175 2 2.74126 2.02596 2.6195 2.07639C2.49775 2.12682 2.38712 2.20074 2.29393 2.29393C2.10573 2.48213 2 2.73739 2 3.00354C2 3.2697 2.10573 3.52495 2.29393 3.71315L18.2851 19.7044C18.3781 19.798 18.4886 19.8724 18.6104 19.9231C18.7322 19.9739 18.8628 20 18.9948 20C19.1267 20 19.2573 19.9739 19.3791 19.9231C19.5009 19.8724 19.6115 19.798 19.7044 19.7044C19.798 19.6115 19.8724 19.5009 19.9231 19.3791C19.9739 19.2573 20 19.1267 20 18.9948C20 18.8628 19.9739 18.7322 19.9231 18.6104C19.8724 18.4886 19.798 18.3781 19.7044 18.2851Z" fill="#97A3BA"/>
<path d="M11.494 17.243L11.7625 14.9126L8.96814 12.1778H5.85554L7.08865 10.3867L5.65665 9L3.17055 12.6015C3.06939 12.7464 3.0109 12.9153 3.00138 13.09C2.99186 13.2647 3.03167 13.4386 3.11653 13.5931C3.20138 13.7475 3.32808 13.8766 3.48302 13.9666C3.63796 14.0566 3.81528 14.104 3.99594 14.1037H9.85319L9.08747 20.9311C9.06276 21.1454 9.11303 21.3615 9.23023 21.5448C9.34743 21.7282 9.52477 21.8681 9.73385 21.9422C9.84225 21.9803 9.95665 21.9999 10.072 22C10.2349 22.0002 10.3953 21.9617 10.5392 21.8878C10.6832 21.814 10.8061 21.707 10.8973 21.5763L14 17.0793L12.568 15.6926L11.494 17.243Z" fill="#97A3BA"/>
</svg>
