<svg width="22" height="22" viewBox="0 0 22 22" fill="none" xmlns="http://www.w3.org/2000/svg">
<path d="M8.00008 19C7.8242 19.0007 7.65126 18.955 7.49868 18.8675C7.34611 18.7801 7.21931 18.6539 7.13107 18.5018C7.04283 18.3496 6.99627 18.1769 6.9961 18.001C6.99593 17.8251 7.04214 17.6523 7.13008 17.5L10.2801 12H6.00008C5.82556 11.999 5.65437 11.9523 5.50349 11.8646C5.35262 11.7768 5.22733 11.6512 5.14008 11.5C5.05231 11.348 5.0061 11.1756 5.0061 11C5.0061 10.8245 5.05231 10.652 5.14008 10.5L9.14008 3.50003C9.27269 3.26929 9.49152 3.10068 9.74845 3.03129C10.0054 2.9619 10.2793 2.99742 10.5101 3.13003C10.7408 3.26264 10.9094 3.48147 10.9788 3.7384C11.0482 3.99532 11.0127 4.26929 10.8801 4.50003L7.72008 10H12.0001C12.1746 10.0011 12.3458 10.0478 12.4967 10.1355C12.6475 10.2232 12.7728 10.3489 12.8601 10.5C12.9478 10.652 12.9941 10.8245 12.9941 11C12.9941 11.1756 12.9478 11.348 12.8601 11.5L8.86008 18.5C8.77282 18.6512 8.64753 18.7768 8.49666 18.8646C8.34579 18.9523 8.17459 18.999 8.00008 19Z" fill="#97A3BA"/>
<path d="M21 8C20.7348 8 20.4804 8.10536 20.2929 8.29289C20.1054 8.48043 20 8.73478 20 9V13C20 13.2652 20.1054 13.5196 20.2929 13.7071C20.4804 13.8946 20.7348 14 21 14C21.2652 14 21.5196 13.8946 21.7071 13.7071C21.8946 13.5196 22 13.2652 22 13V9C22 8.73478 21.8946 8.48043 21.7071 8.29289C21.5196 8.10536 21.2652 8 21 8Z" fill="#97A3BA"/>
<path d="M5.9967 16.8522C5.96892 16.9004 5.94295 16.9496 5.91883 16.9995H3.17334C2.56395 16.9634 1.99363 16.6875 1.58701 16.2322C1.1804 15.7769 0.970555 15.1791 1.00334 14.5695V7.42951C0.970555 6.81993 1.1804 6.22216 1.58701 5.76683C1.99363 5.3115 2.56395 5.03563 3.17334 4.99951H6.77964L5.63678 6.99951H3.26007C3.19036 7.01089 3.12625 7.04582 3.07878 7.09898C3.02421 7.16009 2.99605 7.24031 3.00045 7.32211L3.00334 7.37577V14.6233L3.00045 14.6769C2.99605 14.7587 3.02421 14.8389 3.07878 14.9C3.12625 14.9532 3.19036 14.9881 3.26007 14.9995H7.05776L5.9981 16.8497L5.9967 16.8522Z" fill="#97A3BA"/>
<path d="M15.8333 16.9995H11.2085L12.3513 14.9995H15.7465C15.8162 14.9881 15.8803 14.9532 15.9278 14.9C15.9824 14.8389 16.0105 14.7587 16.0061 14.6769L16.0033 14.6233V7.37577L16.0061 7.32211C16.0105 7.24031 15.9824 7.16009 15.9278 7.09898C15.8803 7.04582 15.8162 7.01089 15.7465 6.99951H10.937L12.0011 5.14737C12.029 5.09888 12.055 5.04956 12.0791 4.99951H15.8333C16.4426 5.03563 17.013 5.3115 17.4196 5.76683C17.8262 6.22216 18.036 6.81993 18.0033 7.42951V14.5695C18.036 15.1791 17.8262 15.7769 17.4196 16.2322C17.013 16.6875 16.4426 16.9634 15.8333 16.9995Z" fill="#97A3BA"/>
</svg>
