<svg width="22" height="22" viewBox="0 0 22 22" fill="none" xmlns="http://www.w3.org/2000/svg">
<path fill-rule="evenodd" clip-rule="evenodd" d="M15.8298 5H3.16992C2.56053 5.03612 1.99021 5.31198 1.58359 5.76732C1.17698 6.22265 0.967137 6.82042 0.999918 7.43V14.57C0.967137 15.1796 1.17698 15.7774 1.58359 16.2327C1.99021 16.688 2.56053 16.9639 3.16992 17H15.8298C16.4392 16.9639 17.0095 16.688 17.4162 16.2327C17.8228 15.7774 18.0326 15.1796 17.9998 14.57V7.43C18.0326 6.82042 17.8228 6.22265 17.4162 5.76732C17.0095 5.31198 16.4392 5.03612 15.8298 5ZM2.99992 14.6237V7.37626L2.99703 7.3226C2.99263 7.2408 3.02079 7.16057 3.07536 7.09947C3.12284 7.04631 3.18694 7.01138 3.25666 7H15.7431C15.8128 7.01138 15.8769 7.04631 15.9244 7.09947C15.979 7.16058 16.0071 7.2408 16.0027 7.3226L15.9998 7.37626V14.6237L16.0027 14.6774C16.0071 14.7592 15.979 14.8394 15.9244 14.9005C15.8769 14.9537 15.8128 14.9886 15.7431 15H3.25665C3.18694 14.9886 3.12284 14.9537 3.07536 14.9005C3.02079 14.8394 2.99263 14.7592 2.99703 14.6774L2.99992 14.6237Z" fill="#97A3BA"/>
<path d="M20.2929 8.29289C20.4804 8.10536 20.7348 8 21 8C21.2652 8 21.5196 8.10536 21.7071 8.29289C21.8946 8.48043 22 8.73478 22 9V13C22 13.2652 21.8946 13.5196 21.7071 13.7071C21.5196 13.8946 21.2652 14 21 14C20.7348 14 20.4804 13.8946 20.2929 13.7071C20.1054 13.5196 20 13.2652 20 13V9C20 8.73478 20.1054 8.48043 20.2929 8.29289Z" fill="#97A3BA"/>
</svg>
