<svg width="22" height="22" viewBox="0 0 22 22" fill="none" xmlns="http://www.w3.org/2000/svg">
<path d="M10.5 10.0001H11.5C11.7652 10.0001 12.0196 10.1054 12.2071 10.293C12.3946 10.4805 12.5 10.7349 12.5 11.0001C12.5 11.2653 12.3946 11.5197 12.2071 11.7072C12.0196 11.8947 11.7652 12.0001 11.5 12.0001H10.5V13C10.5 13.2652 10.3946 13.5196 10.2071 13.7071C10.0196 13.8946 9.76522 14 9.5 14C9.23478 14 8.98043 13.8946 8.79289 13.7071C8.60536 13.5196 8.5 13.2652 8.5 13V12.0001H7.5C7.23478 12.0001 6.98043 11.8947 6.79289 11.7072C6.60536 11.5197 6.5 11.2653 6.5 11.0001C6.5 10.7349 6.60536 10.4805 6.79289 10.293C6.98043 10.1054 7.23478 10.0001 7.5 10.0001H8.5V9C8.5 8.73478 8.60536 8.48043 8.79289 8.29289C8.98043 8.10536 9.23478 8 9.5 8C9.76522 8 10.0196 8.10536 10.2071 8.29289C10.3946 8.48043 10.5 8.73478 10.5 9V10.0001Z" fill="#97A3BA"/>
<path fill-rule="evenodd" clip-rule="evenodd" d="M3.16992 5H15.8298C16.4392 5.03612 17.0095 5.31198 17.4162 5.76732C17.8228 6.22265 18.0326 6.82042 17.9998 7.43V14.57C18.0326 15.1796 17.8228 15.7774 17.4162 16.2327C17.0095 16.688 16.4392 16.9639 15.8298 17H3.16992C2.56053 16.9639 1.99021 16.688 1.58359 16.2327C1.17698 15.7774 0.967137 15.1796 0.999918 14.57V7.43C0.967137 6.82042 1.17698 6.22265 1.58359 5.76732C1.99021 5.31198 2.56053 5.03612 3.16992 5ZM2.99992 7.37626V14.6237L2.99703 14.6774C2.99263 14.7592 3.02079 14.8394 3.07536 14.9005C3.12284 14.9537 3.18694 14.9886 3.25665 15H15.7431C15.8128 14.9886 15.8769 14.9537 15.9244 14.9005C15.979 14.8394 16.0071 14.7592 16.0027 14.6774L15.9998 14.6237V7.37626L16.0027 7.3226C16.0071 7.2408 15.979 7.16058 15.9244 7.09947C15.8769 7.04631 15.8128 7.01138 15.7431 7H3.25666C3.18694 7.01138 3.12284 7.04631 3.07536 7.09947C3.02079 7.16057 2.99263 7.2408 2.99703 7.3226L2.99992 7.37626Z" fill="#97A3BA"/>
<path d="M21 8C20.7348 8 20.4804 8.10536 20.2929 8.29289C20.1054 8.48043 20 8.73478 20 9V13C20 13.2652 20.1054 13.5196 20.2929 13.7071C20.4804 13.8946 20.7348 14 21 14C21.2652 14 21.5196 13.8946 21.7071 13.7071C21.8946 13.5196 22 13.2652 22 13V9C22 8.73478 21.8946 8.48043 21.7071 8.29289C21.5196 8.10536 21.2652 8 21 8Z" fill="#97A3BA"/>
</svg>
