<svg width="22" height="22" viewBox="0 0 22 22" fill="none" xmlns="http://www.w3.org/2000/svg">
<path d="M10.11 22.0001C9.99409 22 9.87904 21.9797 9.77004 21.9401C9.55979 21.8631 9.38146 21.7178 9.2636 21.5274C9.14575 21.337 9.0952 21.1126 9.12004 20.8901L9.89004 13.8001H4.00004C3.81837 13.8004 3.64006 13.7512 3.48426 13.6577C3.32845 13.5643 3.20104 13.4302 3.11571 13.2698C3.03038 13.1094 2.99035 12.9288 2.99992 12.7474C3.0095 12.566 3.06831 12.3906 3.17004 12.2401L11.06 0.440097C11.1848 0.255435 11.3677 0.117752 11.5797 0.0489063C11.7917 -0.0199392 12.0206 -0.0160005 12.23 0.0600971C12.4314 0.13486 12.6034 0.272482 12.7204 0.452587C12.8375 0.632693 12.8935 0.845708 12.88 1.0601L12.11 8.2001H18C18.1817 8.19982 18.36 8.24904 18.5158 8.34247C18.6716 8.4359 18.799 8.57001 18.8844 8.73039C18.9697 8.89077 19.0097 9.07137 19.0002 9.25279C18.9906 9.4342 18.9318 9.60959 18.83 9.7601L10.94 21.5601C10.8483 21.6958 10.7247 21.8069 10.5799 21.8836C10.4352 21.9603 10.2738 22.0003 10.11 22.0001V22.0001ZM5.87004 11.8001H11C11.1396 11.8004 11.2775 11.83 11.405 11.8868C11.5324 11.9436 11.6465 12.0265 11.74 12.1301C11.8344 12.2351 11.9055 12.3589 11.9486 12.4933C11.9917 12.6278 12.0058 12.7698 11.99 12.9101L11.54 17.0601L16.13 10.2001H11C10.8589 10.201 10.7192 10.1719 10.5901 10.1149C10.461 10.058 10.3455 9.97429 10.251 9.86945C10.1566 9.76461 10.0854 9.64096 10.0421 9.50664C9.99885 9.37231 9.98452 9.23036 10 9.0901L10.45 4.9401L5.87004 11.8001Z" fill="#97A3BA"/>
</svg>
