<svg width="24" height="24" viewBox="0 0 24 24" fill="none" xmlns="http://www.w3.org/2000/svg">
<path fill-rule="evenodd" clip-rule="evenodd" d="M11.8682 5.49631L8.72317 11.0002H11.2768C12.8125 11.0002 13.7752 12.6591 13.0133 13.9924L9.86823 19.4963C9.59422 19.9758 8.98337 20.1424 8.50385 19.8684C8.02433 19.5944 7.85774 18.9835 8.13175 18.504L11.2768 13.0002H8.72317C7.18752 13.0002 6.22479 11.3412 6.98668 10.0079L10.1317 4.50403C10.4058 4.02451 11.0166 3.85792 11.4961 4.13193C11.9756 4.40594 12.1422 5.01679 11.8682 5.49631Z" fill="#777B92"/>
<path fill-rule="evenodd" clip-rule="evenodd" d="M2 8C2 6.89543 2.89543 6 4 6H7C7.55228 6 8 6.44772 8 7C8 7.55228 7.55228 8 7 8H4V16H7C7.55228 16 8 16.4477 8 17C8 17.5523 7.55228 18 7 18H4C2.89543 18 2 17.1046 2 16V8Z" fill="#777B92"/>
<path fill-rule="evenodd" clip-rule="evenodd" d="M12 7C12 6.44772 12.4477 6 13 6H17C18.1046 6 19 6.89543 19 8V16C19 17.1046 18.1046 18 17 18H13C12.4477 18 12 17.5523 12 17C12 16.4477 12.4477 16 13 16H17V8H13C12.4477 8 12 7.55228 12 7Z" fill="#777B92"/>
<path fill-rule="evenodd" clip-rule="evenodd" d="M22 9C22.5523 9 23 9.44772 23 10V14C23 14.5523 22.5523 15 22 15C21.4477 15 21 14.5523 21 14V10C21 9.44772 21.4477 9 22 9Z" fill="#777B92"/>
</svg>
