<svg width="24" height="24" viewBox="0 0 24 24" fill="none" xmlns="http://www.w3.org/2000/svg">
<path fill-rule="evenodd" clip-rule="evenodd" d="M12 13V5C12 3.34315 13.3431 2 15 2C16.6569 2 18 3.34315 18 5V13C19.213 13.9111 20 15.3633 20 17.0002C20 19.7616 17.7614 22.0002 15 22.0002C12.2386 22.0002 10 19.7616 10 17.0002C10 15.3633 10.787 13.9111 12 13ZM14 5V13.5L13.9999 13.5124C14.0077 13.8654 13.8279 14.2117 13.5007 14.4009C12.6014 14.9212 12 15.891 12 17.0002C12 18.657 13.3431 20.0002 15 20.0002C16.6569 20.0002 18 18.657 18 17.0002C18 15.891 17.3986 14.9212 16.4993 14.4009C16.1721 14.2117 15.9923 13.8654 16.0001 13.5124L16 13.5V5C16 4.44772 15.5523 4 15 4C14.4477 4 14 4.44772 14 5Z" fill="#777B92"/>
<path fill-rule="evenodd" clip-rule="evenodd" d="M4 6C4 5.44772 4.44772 5 5 5H6V4C6 3.44772 6.44772 3 7 3C7.55228 3 8 3.44772 8 4V5H9C9.55228 5 10 5.44772 10 6C10 6.55228 9.55228 7 9 7H8V8C8 8.55228 7.55228 9 7 9C6.44772 9 6 8.55228 6 8V7H5C4.44772 7 4 6.55228 4 6Z" fill="#777B92"/>
</svg>
