<svg width="24" height="24" viewBox="0 0 24 24" fill="none" xmlns="http://www.w3.org/2000/svg">
<path fill-rule="evenodd" clip-rule="evenodd" d="M12 2C12.5523 2 13 2.44772 13 3V5C13 5.55228 12.5523 6 12 6C11.4477 6 11 5.55228 11 5V3C11 2.44772 11.4477 2 12 2Z" fill="#777B92"/>
<path fill-rule="evenodd" clip-rule="evenodd" d="M15 16.0002V20C15 21.1046 14.1046 22 13 22H11C9.89543 22 9 21.1046 9 20V16.0002C7.78702 15.0891 7 13.6369 7 12C7 9.23858 9.23858 7 12 7C14.7614 7 17 9.23858 17 12C17 13.6369 16.213 15.0891 15 16.0002ZM12 9C10.3431 9 9 10.3431 9 12C9 13.1092 9.60141 14.079 10.5007 14.5993C10.8279 14.7885 11.0077 15.1348 10.9999 15.4877L11 15.5V20H13V15.5L13.0001 15.4877C12.9923 15.1348 13.1721 14.7885 13.4993 14.5993C14.3986 14.079 15 13.1092 15 12C15 10.3431 13.6569 9 12 9Z" fill="#777B92"/>
<path fill-rule="evenodd" clip-rule="evenodd" d="M18 12C18 11.4477 18.4477 11 19 11H21C21.5523 11 22 11.4477 22 12C22 12.5523 21.5523 13 21 13H19C18.4477 13 18 12.5523 18 12Z" fill="#777B92"/>
<path fill-rule="evenodd" clip-rule="evenodd" d="M3 11H5C5.55228 11 6 11.4477 6 12C6 12.5523 5.55228 13 5 13H3C2.44772 13 2 12.5523 2 12C2 11.4477 2.44772 11 3 11Z" fill="#777B92"/>
<path fill-rule="evenodd" clip-rule="evenodd" d="M4.79289 4.79289C5.18342 4.40237 5.81658 4.40237 6.20711 4.79289L7.70711 6.29289C8.09763 6.68342 8.09763 7.31658 7.70711 7.70711C7.31658 8.09763 6.68342 8.09763 6.29289 7.70711L4.79289 6.20711C4.40237 5.81658 4.40237 5.18342 4.79289 4.79289Z" fill="#777B92"/>
<path fill-rule="evenodd" clip-rule="evenodd" d="M19.2071 6.20711L17.7071 7.70711C17.3166 8.09763 16.6834 8.09763 16.2929 7.70711C15.9024 7.31658 15.9024 6.68342 16.2929 6.29289L17.7929 4.79289C18.1834 4.40237 18.8166 4.40237 19.2071 4.79289C19.5976 5.18342 19.5976 5.81658 19.2071 6.20711Z" fill="#777B92"/>
</svg>
