<svg width="16" height="16" viewBox="0 0 16 16" fill="none" xmlns="http://www.w3.org/2000/svg">
<path fill-rule="evenodd" clip-rule="evenodd" d="M2.5 1C2.5 0.723858 2.72386 0.5 3 0.5H13C13.2761 0.5 13.5 0.723858 13.5 1C13.5 1.27614 13.2761 1.5 13 1.5H3C2.72386 1.5 2.5 1.27614 2.5 1Z" fill="#777B92"/>
<path fill-rule="evenodd" clip-rule="evenodd" d="M7.5 4.5H3C2.72386 4.5 2.5 4.27614 2.5 4C2.5 3.72386 2.72386 3.5 3 3.5H13C13.2761 3.5 13.5 3.72386 13.5 4C13.5 4.27614 13.2761 4.5 13 4.5H8.5V13.7929L12.6464 9.64645C12.8417 9.45118 13.1583 9.45118 13.3536 9.64645C13.5488 9.84171 13.5488 10.1583 13.3536 10.3536L8.35355 15.3536C8.15829 15.5488 7.84171 15.5488 7.64645 15.3536L2.64645 10.3536C2.45118 10.1583 2.45118 9.84171 2.64645 9.64645C2.84171 9.45118 3.15829 9.45118 3.35355 9.64645L7.5 13.7929V4.5Z" fill="#777B92"/>
</svg>
