<svg width="16" height="16" viewBox="0 0 16 16" fill="none" xmlns="http://www.w3.org/2000/svg">
<g clip-path="url(#clip0_13649_20584)">
<path fill-rule="evenodd" clip-rule="evenodd" d="M2 0.5C2.27614 0.5 2.5 0.723858 2.5 1V2.66363C3.92592 1.31856 5.95819 0.5 8 0.5C12.1421 0.5 15.5 3.85786 15.5 8C15.5 12.1421 12.1421 15.5 8 15.5C3.85786 15.5 0.5 12.1421 0.5 8C0.5 7.72386 0.723858 7.5 1 7.5C1.27614 7.5 1.5 7.72386 1.5 8C1.5 11.5899 4.41015 14.5 8 14.5C11.5899 14.5 14.5 11.5899 14.5 8C14.5 4.41015 11.5899 1.5 8 1.5C6.14347 1.5 4.30795 2.27541 3.07379 3.5H5C5.27614 3.5 5.5 3.72386 5.5 4C5.5 4.27614 5.27614 4.5 5 4.5H2C1.72386 4.5 1.5 4.27614 1.5 4V1C1.5 0.723858 1.72386 0.5 2 0.5Z" fill="#777B92"/>
</g>
<defs>
<clipPath id="clip0_13649_20584">
<rect width="16" height="16" fill="white"/>
</clipPath>
</defs>
</svg>
