<svg width="16" height="16" viewBox="0 0 16 16" fill="none" xmlns="http://www.w3.org/2000/svg">
<path d="M1.00001 1H0.500005C0.500005 0.723858 0.723863 0.5 1.00001 0.5V1ZM15.3536 14.6464C15.5488 14.8417 15.5488 15.1583 15.3536 15.3536C15.1583 15.5488 14.8417 15.5488 14.6464 15.3536L15.3536 14.6464ZM1.50001 12C1.50001 12.2761 1.27615 12.5 1.00001 12.5C0.723863 12.5 0.500005 12.2761 0.500005 12H1.50001ZM12 0.5C12.2761 0.5 12.5 0.723858 12.5 1C12.5 1.27614 12.2761 1.5 12 1.5V0.5ZM1.35356 0.646446L15.3536 14.6464L14.6464 15.3536L0.646452 1.35355L1.35356 0.646446ZM1.50001 1V12H0.500005V1H1.50001ZM1.00001 0.5H12V1.5H1.00001V0.5Z" fill="#777B92"/>
</svg>
