<svg width="16" height="16" viewBox="0 0 16 16" fill="none" xmlns="http://www.w3.org/2000/svg">
<path fill-rule="evenodd" clip-rule="evenodd" d="M8 0.5C8.27614 0.5 8.5 0.723858 8.5 1V9.79289L12.6464 5.64645C12.8417 5.45118 13.1583 5.45118 13.3536 5.64645C13.5488 5.84171 13.5488 6.15829 13.3536 6.35355L8.35355 11.3536C8.25605 11.4511 8.12829 11.4999 8.00049 11.5H13C13.2761 11.5 13.5 11.7239 13.5 12C13.5 12.2761 13.2761 12.5 13 12.5H3C2.72386 12.5 2.5 12.2761 2.5 12C2.5 11.7239 2.72386 11.5 3 11.5H8.00049C7.87269 11.4999 7.74395 11.4511 7.64645 11.3536L2.64645 6.35355C2.45118 6.15829 2.45118 5.84171 2.64645 5.64645C2.84171 5.45118 3.15829 5.45118 3.35355 5.64645L7.5 9.79289V1C7.5 0.723858 7.72386 0.5 8 0.5Z" fill="#777B92"/>
<path fill-rule="evenodd" clip-rule="evenodd" d="M2.5 15C2.5 14.7239 2.72386 14.5 3 14.5H13C13.2761 14.5 13.5 14.7239 13.5 15C13.5 15.2761 13.2761 15.5 13 15.5H3C2.72386 15.5 2.5 15.2761 2.5 15Z" fill="#777B92"/>
</svg>
