<svg width="16" height="16" viewBox="0 0 16 16" fill="none" xmlns="http://www.w3.org/2000/svg">
<path fill-rule="evenodd" clip-rule="evenodd" d="M4.00024 0.499512L7.00008 0.5C7.27622 0.500045 7.50004 0.723939 7.5 1.00008C7.49995 1.27622 7.27606 1.50005 6.99992 1.5L4.00008 1.49951C3.72391 1.49947 3.5 1.72334 3.5 1.99951V13.7922L4.64645 12.6458C4.84171 12.4505 5.15829 12.4505 5.35355 12.6458C5.54882 12.8411 5.54882 13.1576 5.35355 13.3529L3.35355 15.3529C3.15829 15.5482 2.84171 15.5482 2.64645 15.3529L0.646447 13.3529C0.451184 13.1576 0.451184 12.8411 0.646447 12.6458C0.841709 12.4505 1.15829 12.4505 1.35355 12.6458L2.5 13.7922V1.99951C2.5 1.17099 3.17172 0.499377 4.00024 0.499512Z" fill="#777B92"/>
<path fill-rule="evenodd" clip-rule="evenodd" d="M13.3536 0.646447L15.3536 2.64645C15.5488 2.84171 15.5488 3.15829 15.3536 3.35355C15.1583 3.54882 14.8417 3.54882 14.6464 3.35355L13.5 2.20711V14C13.5 14.8284 12.8284 15.5 12 15.5H9C8.72386 15.5 8.5 15.2761 8.5 15C8.5 14.7239 8.72386 14.5 9 14.5H12C12.2761 14.5 12.5 14.2761 12.5 14V2.20711L11.3536 3.35355C11.1583 3.54882 10.8417 3.54882 10.6464 3.35355C10.4512 3.15829 10.4512 2.84171 10.6464 2.64645L12.6464 0.646447C12.7402 0.552678 12.8674 0.5 13 0.5C13.1326 0.5 13.2598 0.552678 13.3536 0.646447Z" fill="#777B92"/>
</svg>
