<svg width="16" height="16" viewBox="0 0 16 16" fill="none" xmlns="http://www.w3.org/2000/svg">
<g clip-path="url(#clip0_13649_20491)">
<path fill-rule="evenodd" clip-rule="evenodd" d="M6.35355 2.64645C6.54882 2.84171 6.54882 3.15829 6.35355 3.35355L2.20711 7.5H15C15.2761 7.5 15.5 7.72386 15.5 8C15.5 8.27614 15.2761 8.5 15 8.5H2.20711L6.35355 12.6464C6.54882 12.8417 6.54882 13.1583 6.35355 13.3536C6.15829 13.5488 5.84171 13.5488 5.64645 13.3536L0.646447 8.35355C0.451184 8.15829 0.451184 7.84171 0.646447 7.64645L5.64645 2.64645C5.84171 2.45118 6.15829 2.45118 6.35355 2.64645Z" fill="#777B92"/>
</g>
<defs>
<clipPath id="clip0_13649_20491">
<rect width="16" height="16" fill="white" transform="translate(0 16) rotate(-90)"/>
</clipPath>
</defs>
</svg>
