<svg width="16" height="16" viewBox="0 0 16 16" fill="none" xmlns="http://www.w3.org/2000/svg">
<path fill-rule="evenodd" clip-rule="evenodd" d="M7.21208 2.54721C7.38777 2.6295 7.5 2.806 7.5 3.00001L7.5 5.50001H14C14.8284 5.50001 15.5 6.17158 15.5 7.00001V9.00001C15.5 9.82843 14.8284 10.5 14 10.5H7.5L7.5 13C7.5 13.194 7.38777 13.3705 7.21208 13.4528C7.03638 13.5351 6.82895 13.5083 6.67991 13.3841L0.679908 8.38412C0.565911 8.28912 0.5 8.1484 0.5 8.00001C0.5 7.85162 0.565912 7.71089 0.679908 7.61589L6.67991 2.6159C6.82895 2.49169 7.03639 2.46492 7.21208 2.54721ZM1.78102 8.00001L6.5 11.9325L6.5 10C6.5 9.72386 6.72386 9.50001 7 9.50001H14C14.2761 9.50001 14.5 9.27615 14.5 9.00001V7.00001C14.5 6.72386 14.2761 6.50001 14 6.50001H7C6.86739 6.50001 6.74021 6.44733 6.64645 6.35356C6.55268 6.25979 6.5 6.13261 6.5 6.00001L6.5 4.06753L1.78102 8.00001Z" fill="#777B92"/>
</svg>
