<svg width="16" height="16" viewBox="0 0 16 16" fill="none" xmlns="http://www.w3.org/2000/svg">
<path fill-rule="evenodd" clip-rule="evenodd" d="M13.3536 1.64645L15.3536 3.64645C15.5488 3.84171 15.5488 4.15829 15.3536 4.35355L13.3536 6.35355C13.1583 6.54882 12.8417 6.54882 12.6464 6.35355C12.4512 6.15829 12.4512 5.84171 12.6464 5.64645L13.7929 4.5H1C0.723858 4.5 0.5 4.27614 0.5 4C0.5 3.72386 0.723858 3.5 1 3.5H13.7929L12.6464 2.35355C12.4512 2.15829 12.4512 1.84171 12.6464 1.64645C12.8417 1.45118 13.1583 1.45118 13.3536 1.64645Z" fill="#777B92"/>
<path fill-rule="evenodd" clip-rule="evenodd" d="M3.35355 10.3536L2.20711 11.5H15C15.2761 11.5 15.5 11.7239 15.5 12C15.5 12.2761 15.2761 12.5 15 12.5H2.20711L3.35355 13.6464C3.54882 13.8417 3.54882 14.1583 3.35355 14.3536C3.15829 14.5488 2.84171 14.5488 2.64645 14.3536L0.646447 12.3536C0.451184 12.1583 0.451184 11.8417 0.646447 11.6464L2.64645 9.64645C2.84171 9.45118 3.15829 9.45118 3.35355 9.64645C3.54882 9.84171 3.54882 10.1583 3.35355 10.3536Z" fill="#777B92"/>
</svg>
