<svg width="16" height="16" viewBox="0 0 16 16" fill="none" xmlns="http://www.w3.org/2000/svg">
<path fill-rule="evenodd" clip-rule="evenodd" d="M4.35355 0.646447L6.35355 2.64645C6.54882 2.84171 6.54882 3.15829 6.35355 3.35355C6.15829 3.54882 5.84171 3.54882 5.64645 3.35355L4.5 2.20711L4.5 15C4.5 15.2761 4.27614 15.5 4 15.5C3.72386 15.5 3.5 15.2761 3.5 15L3.5 2.20711L2.35355 3.35355C2.15829 3.54882 1.84171 3.54882 1.64645 3.35355C1.45118 3.15829 1.45118 2.84171 1.64645 2.64645L3.64645 0.646447C3.74021 0.552678 3.86739 0.5 4 0.5C4.13261 0.5 4.25978 0.552678 4.35355 0.646447Z" fill="#777B92"/>
<path fill-rule="evenodd" clip-rule="evenodd" d="M12.5 1V13.7929L13.6464 12.6464C13.8417 12.4512 14.1583 12.4512 14.3536 12.6464C14.5488 12.8417 14.5488 13.1583 14.3536 13.3536L12.3536 15.3536C12.2598 15.4473 12.1326 15.5 12 15.5C11.8674 15.5 11.7402 15.4473 11.6464 15.3536L9.64645 13.3536C9.45118 13.1583 9.45118 12.8417 9.64645 12.6464C9.84171 12.4512 10.1583 12.4512 10.3536 12.6464L11.5 13.7929V1C11.5 0.723858 11.7239 0.5 12 0.5C12.2761 0.5 12.5 0.723858 12.5 1Z" fill="#777B92"/>
</svg>
