<svg width="16" height="16" viewBox="0 0 16 16" fill="none" xmlns="http://www.w3.org/2000/svg">
<path fill-rule="evenodd" clip-rule="evenodd" d="M8.00001 0.5C8.1484 0.5 8.28912 0.565912 8.38412 0.679908L13.3841 6.67991C13.5083 6.82895 13.5351 7.03639 13.4528 7.21208C13.3705 7.38777 13.194 7.5 13 7.5H10.5V14C10.5 14.8284 9.82843 15.5 9.00001 15.5H7.00001C6.17158 15.5 5.50001 14.8284 5.50001 14V7.5H3.00001C2.806 7.5 2.6295 7.38777 2.54721 7.21208C2.46492 7.03639 2.49169 6.82895 2.6159 6.67991L7.6159 0.679908C7.71089 0.565912 7.85162 0.5 8.00001 0.5ZM4.06753 6.5H6.00001C6.27615 6.5 6.50001 6.72386 6.50001 7V14C6.50001 14.2761 6.72386 14.5 7.00001 14.5H9.00001C9.27615 14.5 9.50001 14.2761 9.50001 14V7C9.50001 6.72386 9.72386 6.5 10 6.5H11.9325L8.00001 1.78102L4.06753 6.5Z" fill="#777B92"/>
</svg>
