<svg width="16" height="16" viewBox="0 0 16 16" fill="none" xmlns="http://www.w3.org/2000/svg">
<path fill-rule="evenodd" clip-rule="evenodd" d="M10.6464 2.64645C10.8417 2.45118 11.1583 2.45118 11.3536 2.64645L15.3536 6.64645C15.4473 6.74021 15.5 6.86739 15.5 7C15.5 7.13261 15.4473 7.25979 15.3536 7.35355L11.3536 11.3536C11.1583 11.5488 10.8417 11.5488 10.6464 11.3536C10.4512 11.1583 10.4512 10.8417 10.6464 10.6464L13.7929 7.5H2C1.72386 7.5 1.5 7.72386 1.5 8L1.5 13C1.5 13.2761 1.27614 13.5 0.999999 13.5C0.723858 13.5 0.5 13.2761 0.5 13L0.500001 8C0.500002 7.17157 1.17157 6.5 2 6.5H13.7929L10.6464 3.35355C10.4512 3.15829 10.4512 2.84171 10.6464 2.64645Z" fill="#777B92"/>
</svg>
