<svg width="16" height="16" viewBox="0 0 16 16" fill="none" xmlns="http://www.w3.org/2000/svg">
<path fill-rule="evenodd" clip-rule="evenodd" d="M8.78792 2.54721C8.96361 2.46492 9.17105 2.49169 9.32009 2.6159L15.3201 7.6159C15.4341 7.71089 15.5 7.85162 15.5 8.00001C15.5 8.1484 15.4341 8.28912 15.3201 8.38412L9.32009 13.3841C9.17105 13.5083 8.96361 13.5351 8.78792 13.4528C8.61223 13.3705 8.5 13.194 8.5 13V10.5H2C1.17157 10.5 0.5 9.82843 0.5 9.00001V7.00001C0.5 6.17158 1.17157 5.50001 2 5.50001H8.5V3.00001C8.5 2.806 8.61223 2.6295 8.78792 2.54721ZM9.5 4.06753V6.00001C9.5 6.27615 9.27614 6.50001 9 6.50001H2C1.72386 6.50001 1.5 6.72386 1.5 7.00001V9.00001C1.5 9.27615 1.72386 9.50001 2 9.50001H9C9.27614 9.50001 9.5 9.72386 9.5 10V11.9325L14.219 8.00001L9.5 4.06753Z" fill="#777B92"/>
</svg>
