<svg width="16" height="16" viewBox="0 0 16 16" fill="none" xmlns="http://www.w3.org/2000/svg">
<path fill-rule="evenodd" clip-rule="evenodd" d="M11 0.5H15C15.2761 0.5 15.5 0.723858 15.5 1V5C15.5 5.27614 15.2761 5.5 15 5.5C14.7239 5.5 14.5 5.27614 14.5 5V2.20711L1.35355 15.3536C1.15829 15.5488 0.841709 15.5488 0.646447 15.3536C0.451184 15.1583 0.451184 14.8417 0.646447 14.6464L7.29289 8L0.646447 1.35355C0.451184 1.15829 0.451184 0.841709 0.646447 0.646447C0.841709 0.451184 1.15829 0.451184 1.35355 0.646447L8 7.29289L13.7929 1.5H11C10.7239 1.5 10.5 1.27614 10.5 1C10.5 0.723858 10.7239 0.5 11 0.5Z" fill="#777B92"/>
<path fill-rule="evenodd" clip-rule="evenodd" d="M10.3536 9.64645L14.5 13.7929V11C14.5 10.7239 14.7239 10.5 15 10.5C15.2761 10.5 15.5 10.7239 15.5 11V15C15.5 15.2761 15.2761 15.5 15 15.5H11C10.7239 15.5 10.5 15.2761 10.5 15C10.5 14.7239 10.7239 14.5 11 14.5H13.7929L9.64645 10.3536C9.45118 10.1583 9.45118 9.84171 9.64645 9.64645C9.84171 9.45118 10.1583 9.45118 10.3536 9.64645Z" fill="#777B92"/>
</svg>
