<svg width="16" height="16" viewBox="0 0 16 16" fill="none" xmlns="http://www.w3.org/2000/svg">
<path fill-rule="evenodd" clip-rule="evenodd" d="M8.5 1V12.7929L12.6464 8.64645C12.8417 8.45118 13.1583 8.45118 13.3536 8.64645C13.5488 8.84171 13.5488 9.15829 13.3536 9.35355L8.35355 14.3536C8.25605 14.4511 8.12731 14.4999 7.99951 14.5H13C13.2761 14.5 13.5 14.7239 13.5 15C13.5 15.2761 13.2761 15.5 13 15.5H3C2.72386 15.5 2.5 15.2761 2.5 15C2.5 14.7239 2.72386 14.5 3 14.5H7.99951C7.87171 14.4999 7.74395 14.4511 7.64645 14.3536L2.64645 9.35355C2.45118 9.15829 2.45118 8.84171 2.64645 8.64645C2.84171 8.45118 3.15829 8.45118 3.35355 8.64645L7.5 12.7929V1C7.5 0.723858 7.72386 0.5 8 0.5C8.27614 0.5 8.5 0.723858 8.5 1Z" fill="#777B92"/>
</svg>
