<svg width="16" height="16" viewBox="0 0 16 16" fill="none" xmlns="http://www.w3.org/2000/svg">
<path fill-rule="evenodd" clip-rule="evenodd" d="M8.35355 0.646447L10.3536 2.64645C10.5488 2.84171 10.5488 3.15829 10.3536 3.35355C10.1583 3.54882 9.84171 3.54882 9.64645 3.35355L8.5 2.20711V5C8.5 5.27614 8.27614 5.5 8 5.5C7.72386 5.5 7.5 5.27614 7.5 5V2.20711L6.35355 3.35355C6.15829 3.54882 5.84171 3.54882 5.64645 3.35355C5.45118 3.15829 5.45118 2.84171 5.64645 2.64645L7.64645 0.646447C7.84171 0.451184 8.15829 0.451184 8.35355 0.646447Z" fill="#777B92"/>
<path fill-rule="evenodd" clip-rule="evenodd" d="M8.5 11V13.7929L9.64645 12.6464C9.84171 12.4512 10.1583 12.4512 10.3536 12.6464C10.5488 12.8417 10.5488 13.1583 10.3536 13.3536L8.35355 15.3536C8.15829 15.5488 7.84171 15.5488 7.64645 15.3536L5.64645 13.3536C5.45118 13.1583 5.45118 12.8417 5.64645 12.6464C5.84171 12.4512 6.15829 12.4512 6.35355 12.6464L7.5 13.7929V11C7.5 10.7239 7.72386 10.5 8 10.5C8.27614 10.5 8.5 10.7239 8.5 11Z" fill="#777B92"/>
<path fill-rule="evenodd" clip-rule="evenodd" d="M3.35355 5.64645C3.54882 5.84171 3.54882 6.15829 3.35355 6.35355L2.20711 7.5H5C5.27614 7.5 5.5 7.72386 5.5 8C5.5 8.27614 5.27614 8.5 5 8.5H2.20711L3.35355 9.64645C3.54882 9.84171 3.54882 10.1583 3.35355 10.3536C3.15829 10.5488 2.84171 10.5488 2.64645 10.3536L0.646447 8.35355C0.451184 8.15829 0.451184 7.84171 0.646447 7.64645L2.64645 5.64645C2.84171 5.45118 3.15829 5.45118 3.35355 5.64645Z" fill="#777B92"/>
<path fill-rule="evenodd" clip-rule="evenodd" d="M13.3536 5.64645L15.3536 7.64645C15.5488 7.84171 15.5488 8.15829 15.3536 8.35355L13.3536 10.3536C13.1583 10.5488 12.8417 10.5488 12.6464 10.3536C12.4512 10.1583 12.4512 9.84171 12.6464 9.64645L13.7929 8.5H11C10.7239 8.5 10.5 8.27614 10.5 8C10.5 7.72386 10.7239 7.5 11 7.5H13.7929L12.6464 6.35355C12.4512 6.15829 12.4512 5.84171 12.6464 5.64645C12.8417 5.45118 13.1583 5.45118 13.3536 5.64645Z" fill="#777B92"/>
</svg>
