<svg width="16" height="16" viewBox="0 0 16 16" fill="none" xmlns="http://www.w3.org/2000/svg">
<path fill-rule="evenodd" clip-rule="evenodd" d="M1.5 2C1.5 1.17157 2.17157 0.5 3 0.5H13C13.8284 0.5 14.5 1.17157 14.5 2V13.5382C14.5 14.5932 13.4396 15.3186 12.4563 14.9362L8.18122 13.2736C8.06466 13.2283 7.93534 13.2283 7.81878 13.2736L3.54367 14.9362C2.56037 15.3186 1.5 14.5932 1.5 13.5382V2ZM3 1.5C2.72386 1.5 2.5 1.72386 2.5 2V13.5382C2.5 13.8898 2.85345 14.1316 3.18122 14.0042L7.45633 12.3416C7.80602 12.2056 8.19398 12.2056 8.54367 12.3416L12.8188 14.0042C13.1465 14.1316 13.5 13.8898 13.5 13.5382V2C13.5 1.72386 13.2761 1.5 13 1.5H3Z" fill="#777B92"/>
</svg>
