<svg width="16" height="16" viewBox="0 0 16 16" fill="none" xmlns="http://www.w3.org/2000/svg">
<path fill-rule="evenodd" clip-rule="evenodd" d="M3 0.5H13C13.8284 0.5 14.5 1.17157 14.5 2V13.5382C14.5 14.5932 13.4396 15.3186 12.4563 14.9362L8.18122 13.2736C8.06466 13.2283 7.93534 13.2283 7.81878 13.2736L3.54367 14.9362C2.56037 15.3186 1.5 14.5932 1.5 13.5382V2C1.5 1.17157 2.17157 0.5 3 0.5ZM8.5 5C8.5 4.72386 8.27614 4.5 8 4.5C7.72386 4.5 7.5 4.72386 7.5 5V6.5H6C5.72386 6.5 5.5 6.72386 5.5 7C5.5 7.27614 5.72386 7.5 6 7.5H7.5V9C7.5 9.27614 7.72386 9.5 8 9.5C8.27614 9.5 8.5 9.27614 8.5 9V7.5H10C10.2761 7.5 10.5 7.27614 10.5 7C10.5 6.72386 10.2761 6.5 10 6.5H8.5V5Z" fill="#777B92"/>
</svg>
