<svg width="22" height="22" viewBox="0 0 22 22" fill="none" xmlns="http://www.w3.org/2000/svg">
<path fill-rule="evenodd" clip-rule="evenodd" d="M8 7C8 5.34315 9.34315 4 11 4C12.6569 4 14 5.34315 14 7C14 8.65686 12.6569 10 11 10C9.34315 10 8 8.65686 8 7ZM11 6C10.4477 6 10 6.44772 10 7C10 7.55229 10.4477 8 11 8C11.5523 8 12 7.55229 12 7C12 6.44772 11.5523 6 11 6Z" fill="#97A3BA"/>
<path fill-rule="evenodd" clip-rule="evenodd" d="M3 4C3 3.20435 3.31607 2.44129 3.87868 1.87868C4.44129 1.31607 5.20435 1 6 1H16C16.7956 1 17.5587 1.31607 18.1213 1.87868C18.6839 2.44129 19 3.20435 19 4V10C19 10.7957 18.6839 11.5587 18.1213 12.1213C17.5587 12.6839 16.7956 13 16 13L6 13C5.20435 13 4.44129 12.6839 3.87868 12.1213C3.31607 11.5587 3 10.7956 3 10V4ZM16 11C16.2652 11 16.5196 10.8946 16.7071 10.7071C16.8946 10.5196 17 10.2652 17 10V4C17 3.73478 16.8946 3.48043 16.7071 3.29289C16.5196 3.10536 16.2652 3 16 3L6 3C5.73478 3 5.48043 3.10536 5.29289 3.29289C5.10536 3.48043 5 3.73478 5 4L5 10C5 10.2652 5.10536 10.5196 5.29289 10.7071C5.48043 10.8946 5.73478 11 6 11L16 11Z" fill="#97A3BA"/>
<path d="M8.91421 15.3146C8.52369 14.8951 7.89052 14.8951 7.5 15.3146C7.10948 15.7341 7.10948 16.5805 7.5 17H4C3.44772 17 3 17.4067 3 18C3 18.5932 3.44772 19 4 19H7.49997C7.10945 19.4195 7.10945 20.2659 7.49997 20.6854C7.8905 21.1049 8.52366 21.1049 8.91418 20.6854L10.7071 18.7595C11.0976 18.34 11.0976 17.6599 10.7071 17.2404L8.91421 15.3146Z" fill="#97A3BA"/>
<path d="M14 17C13.4477 17 13 17.4477 13 18C13 18.5523 13.4477 19 14 19H18C18.5523 19 19 18.5523 19 18C19 17.4477 18.5523 17 18 17H14Z" fill="#97A3BA"/>
</svg>
