<svg width="22" height="22" viewBox="0 0 22 22" fill="none" xmlns="http://www.w3.org/2000/svg">
<path d="M15 16C15 16.5523 14.5523 17 14 17C13.4477 17 13 16.5523 13 16C13 15.4477 13.4477 15 14 15C14.5523 15 15 15.4477 15 16Z" fill="#97A3BA"/>
<path fill-rule="evenodd" clip-rule="evenodd" d="M7 2C5.34315 2 4 3.34315 4 5V17C4 18.6569 5.34315 20 7 20H15C16.6569 20 18 18.6569 18 17V5C18 3.34315 16.6569 2 15 2H7ZM6 5C6 4.44772 6.44772 4 7 4H15C15.5523 4 16 4.44772 16 5V6H6V5ZM6 8V10H16V8H6ZM6 17V12H16V17C16 17.5523 15.5523 18 15 18H7C6.44772 18 6 17.5523 6 17Z" fill="#97A3BA"/>
</svg>
