<svg width="22" height="22" viewBox="0 0 22 22" fill="none" xmlns="http://www.w3.org/2000/svg">
<path d="M6.32961 3.08614L7.24415 4H16.999C17.5513 4 17.999 4.44772 17.999 5V7C17.999 7.55228 18.4467 8 18.999 8C19.5513 8 19.999 7.55228 19.999 7V5C19.999 3.34315 18.6559 2 16.999 2H5.24977L6.32691 3.08344L6.32961 3.08614Z" fill="#97A3BA"/>
<path d="M1.99902 13V5.25113L3.99902 7.25232V13C3.99902 13.5523 4.44674 14 4.99902 14H10.7427L11.9724 15.2304C11.8683 15.6716 11.472 16 10.999 16H4.99902C3.34217 16 1.99902 14.6569 1.99902 13Z" fill="#97A3BA"/>
<path d="M1.99902 18C1.44674 18 0.999023 18.4477 0.999023 19C0.999023 19.5523 1.44674 20 1.99902 20H14C14.5523 20 15 19.5523 15 19C15 18.4477 14.5523 18 14 18H1.99902Z" fill="#97A3BA"/>
<path d="M20.9987 17.8638V11C20.9987 9.89543 20.1033 9 18.9987 9H14.9987C14.2538 9 13.6039 9.40731 13.2598 10.0114L14.9987 11.7491V11H18.9987V15.7461L20.6157 17.3618L20.6168 17.363C20.7668 17.5119 20.8952 17.6805 20.9987 17.8638Z" fill="#97A3BA"/>
<path d="M15.9932 14.5872L19.7013 18.2851C19.795 18.3781 19.8694 18.4886 19.9201 18.6104C19.9709 18.7322 19.997 18.8628 19.997 18.9948C19.997 19.1267 19.9709 19.2573 19.9201 19.3791C19.8694 19.5009 19.795 19.6115 19.7013 19.7044C19.6084 19.798 19.4979 19.8724 19.3761 19.9231C19.2543 19.9739 19.1236 20 18.9917 20C18.8597 20 18.7291 19.9739 18.6073 19.9231C18.4855 19.8724 18.375 19.798 18.282 19.7044L15.3835 16.796L2.82977 4.24286L2.29004 3.71315C2.10183 3.52495 1.99609 3.2697 1.99609 3.00354C1.99609 2.73738 2.10183 2.48213 2.29004 2.29393C2.38323 2.20074 2.49387 2.12682 2.61563 2.07639C2.73739 2.02596 2.86789 2 2.99968 2C3.13148 2 3.26198 2.02596 3.38374 2.07639C3.5055 2.12682 3.61614 2.20074 3.70933 2.29393L5.40848 4.00299L15.9932 14.5872Z" fill="#97A3BA"/>
</svg>
