<svg width="24" height="24" viewBox="0 0 24 24" fill="none" xmlns="http://www.w3.org/2000/svg">
<path fill-rule="evenodd" clip-rule="evenodd" d="M11 10C11.5523 10 12 10.4477 12 11V12H13C13.5523 12 14 12.4477 14 13C14 13.5523 13.5523 14 13 14H12C10.8954 14 10 13.1046 10 12V11C10 10.4477 10.4477 10 11 10Z" fill="#777B92"/>
<path fill-rule="evenodd" clip-rule="evenodd" d="M8.87107 2.8906C9.242 2.3342 9.86646 2 10.5352 2H13.4648C14.1335 2 14.758 2.3342 15.1289 2.8906L16.5352 5H17C18.1046 5 19 5.89543 19 7V11C19.5523 11 20 11.4477 20 12C20 12.5523 19.5523 13 19 13V17C19 18.1046 18.1046 19 17 19H16.5352L15.1289 21.1094C14.758 21.6658 14.1335 22 13.4648 22H10.5352C9.86646 22 9.242 21.6658 8.87107 21.1094L7.4648 19H7C5.89543 19 5 18.1046 5 17V7C5 5.89543 5.89543 5 7 5H7.4648L8.87107 2.8906ZM8.01366 17H15.9863L16.0004 16.9999L16.0155 17H17V7H16.0155C16.0058 7.00014 15.996 7.00014 15.9863 7H8.01366C8.00394 7.00014 7.99421 7.00014 7.98447 7H7V17H7.98447C7.99421 16.9999 8.00394 16.9999 8.01366 17ZM9.8685 19L10.5352 20H13.4648L14.1315 19H9.8685ZM13.4648 4H10.5352L9.8685 5H14.1315L13.4648 4Z" fill="#777B92"/>
</svg>
