<svg width="22" height="22" viewBox="0 0 22 22" fill="none" xmlns="http://www.w3.org/2000/svg">
<path d="M9 18C9.55228 18 10 17.5523 10 17C10 16.4477 9.55228 16 9 16C8.44772 16 8 16.4477 8 17C8 17.5523 8.44772 18 9 18Z" fill="#97A3BA"/>
<path d="M14 17C14 17.5523 13.5523 18 13 18C12.4477 18 12 17.5523 12 17C12 16.4477 12.4477 16 13 16C13.5523 16 14 16.4477 14 17Z" fill="#97A3BA"/>
<path d="M9 15C9.55228 15 10 14.5523 10 14C10 13.4477 9.55228 13 9 13C8.44772 13 8 13.4477 8 14C8 14.5523 8.44772 15 9 15Z" fill="#97A3BA"/>
<path d="M14 14C14 14.5523 13.5523 15 13 15C12.4477 15 12 14.5523 12 14C12 13.4477 12.4477 13 13 13C13.5523 13 14 13.4477 14 14Z" fill="#97A3BA"/>
<path fill-rule="evenodd" clip-rule="evenodd" d="M8 2C8 1.44772 8.44772 1 9 1C9.55228 1 10 1.44772 10 2V5H14C14.7956 5 15.5587 5.31607 16.1213 5.87868C16.6839 6.44129 17 7.20435 17 8V18C17 18.7957 16.6839 19.5587 16.1213 20.1213C15.5587 20.6839 14.7956 21 14 21H8C7.20435 21 6.44129 20.6839 5.87868 20.1213C5.31607 19.5587 5 18.7957 5 18V8C5 7.20435 5.31607 6.44129 5.87868 5.87868C6.44129 5.31607 7.20435 5 8 5V2ZM15 18C15 18.2652 14.8946 18.5196 14.7071 18.7071C14.5196 18.8946 14.2652 19 14 19H8C7.73478 19 7.48043 18.8946 7.29289 18.7071C7.10536 18.5196 7 18.2652 7 18V12H15V18ZM15 10V8C15 7.73478 14.8946 7.48043 14.7071 7.29289C14.5196 7.10536 14.2652 7 14 7H8C7.73478 7 7.48043 7.10536 7.29289 7.29289C7.10536 7.48043 7 7.73478 7 8V10H15Z" fill="#97A3BA"/>
</svg>
