<svg width="24" height="24" viewBox="0 0 24 24" fill="none" xmlns="http://www.w3.org/2000/svg">
<path fill-rule="evenodd" clip-rule="evenodd" d="M6 6C6 4.89543 6.89543 4 8 4H16C17.1046 4 18 4.89543 18 6V7C18 7.55228 17.5523 8 17 8C16.4477 8 16 7.55228 16 7V6L8 6V18H16V17C16 16.4477 16.4477 16 17 16C17.5523 16 18 16.4477 18 17V18C18 19.1046 17.1046 20 16 20H8C6.89543 20 6 19.1046 6 18V6Z" fill="#777B92"/>
<path fill-rule="evenodd" clip-rule="evenodd" d="M15 12C15 12.5523 14.5523 13 14 13C13.4477 13 13 12.5523 13 12C13 11.4477 13.4477 11 14 11C14.5523 11 15 11.4477 15 12Z" fill="#777B92"/>
<path fill-rule="evenodd" clip-rule="evenodd" d="M14 8C16.2091 8 18 9.79086 18 12C18 14.2091 16.2091 16 14 16C13.4477 16 13 15.5523 13 15C13 14.4477 13.4477 14 14 14C15.1046 14 16 13.1046 16 12C16 10.8954 15.1046 10 14 10C13.4477 10 13 9.55228 13 9C13 8.44772 13.4477 8 14 8Z" fill="#777B92"/>
</svg>
