<svg width="22" height="22" viewBox="0 0 22 22" fill="none" xmlns="http://www.w3.org/2000/svg">
<path d="M11 11H12C12.2652 11 12.5196 11.1053 12.7071 11.2929C12.8946 11.4804 13 11.7348 13 12C13 12.2652 12.8946 12.5195 12.7071 12.7071C12.5196 12.8946 12.2652 13 12 13H10C9.73478 13 9.48043 12.8946 9.29289 12.7071C9.10536 12.5195 9 12.2652 9 12V10C9 9.73478 9.10536 9.48043 9.29289 9.29289C9.48043 9.10536 9.73478 9 10 9C10.2652 9 10.5196 9.10536 10.7071 9.29289C10.8946 9.48042 11 9.73477 11 9.99998V11Z" fill="#97A3BA"/>
<path fill-rule="evenodd" clip-rule="evenodd" d="M9.53554 1C8.86683 1 8.24237 1.3342 7.87144 1.8906L6.46517 4H6C4.89543 4 4 4.89543 4 6V16C4 17.1046 4.89543 18 6 18H6.46517L7.87144 20.1094C8.24237 20.6658 8.86683 21 9.53554 21H12.4652C13.1339 21 13.7583 20.6658 14.1293 20.1094L15.5355 18H16C17.1046 18 18 17.1046 18 16V12C18.5523 12 19 11.5523 19 11C19 10.4477 18.5523 10 18 10V6C18 4.89543 17.1046 4 16 4H15.5355L14.1293 1.8906C13.7583 1.3342 13.1339 1 12.4652 1H9.53554ZM16 6V16H6V6H16ZM9.53554 19L8.86887 18H13.1318L12.4652 19H9.53554ZM13.1318 4L12.4652 3H9.53554L8.86887 4H13.1318Z" fill="#97A3BA"/>
</svg>
