<svg width="22" height="22" viewBox="0 0 22 22" fill="none" xmlns="http://www.w3.org/2000/svg">
<path d="M9 9C9.55228 9 10 8.55228 10 8C10 7.44772 9.55228 7 9 7C8.44772 7 8 7.44772 8 8C8 8.55228 8.44772 9 9 9Z" fill="#97A3BA"/>
<path d="M13 9C13.5523 9 14 8.55228 14 8C14 7.44772 13.5523 7 13 7C12.4477 7 12 7.44772 12 8C12 8.55228 12.4477 9 13 9Z" fill="#97A3BA"/>
<path fill-rule="evenodd" clip-rule="evenodd" d="M18 9C18 6.83496 17.0171 4.89949 15.4732 3.61547L16.8095 1.66671C17.1251 1.20648 17.0398 0.553566 16.619 0.208392C16.4495 0.0693637 16.2515 0.0014645 16.0547 2.34414e-05C15.763 -0.00211329 15.4742 0.141862 15.2857 0.416723L13.8005 2.58267C12.9429 2.2079 11.9957 2 11 2C10.0043 2 9.0571 2.2079 8.19953 2.58267L6.71432 0.416723C6.52584 0.141862 6.23701 -0.00211329 5.94529 2.34414e-05C5.74855 0.0014645 5.55048 0.0693637 5.381 0.208392C4.96022 0.553566 4.87494 1.20648 5.19053 1.66671L6.52682 3.61547C4.9829 4.89949 4 6.83496 4 9V16C4 17.6569 5.34315 19 7 19H15C16.6569 19 18 17.6569 18 16V9ZM11 4C8.23858 4 6 6.23858 6 9V11H16V9C16 6.23858 13.7614 4 11 4ZM16 13H6V16C6 16.5523 6.44772 17 7 17H15C15.5523 17 16 16.5523 16 16V13Z" fill="#97A3BA"/>
<path d="M2 7C1.44772 7 1 7.44772 1 8V14C1 14.5523 1.44772 15 2 15C2.55228 15 3 14.5523 3 14V8C3 7.44772 2.55228 7 2 7Z" fill="#97A3BA"/>
<path d="M19 8C19 7.44772 19.4477 7 20 7C20.5523 7 21 7.44772 21 8V14C21 14.5523 20.5523 15 20 15C19.4477 15 19 14.5523 19 14V8Z" fill="#97A3BA"/>
<path d="M9 20C9.55229 20 10 20.4477 10 21C10 21.5523 9.55228 22 9 22H7C6.44772 22 6 21.5523 6 21C6 20.4477 6.44772 20 7 20H9Z" fill="#97A3BA"/>
<path d="M16 21C16 20.4477 15.5523 20 15 20H13C12.4477 20 12 20.4477 12 21C12 21.5523 12.4477 22 13 22H15C15.5523 22 16 21.5523 16 21Z" fill="#97A3BA"/>
</svg>
