<svg width="24" height="24" viewBox="0 0 24 24" fill="none" xmlns="http://www.w3.org/2000/svg">
<path fill-rule="evenodd" clip-rule="evenodd" d="M4 12V13.5351C4.58835 13.1948 5.27143 13 6 13C8.20914 13 10 14.7909 10 17C10 19.2091 8.20914 21 6 21C3.79086 21 2 19.2091 2 17V12C2 6.47715 6.47715 2 12 2C17.5228 2 22 6.47715 22 12V17C22 19.2091 20.2091 21 18 21C15.7909 21 14 19.2091 14 17C14 14.7909 15.7909 13 18 13C18.7286 13 19.4117 13.1948 20 13.5351V12C20 7.58172 16.4183 4 12 4C7.58172 4 4 7.58172 4 12ZM4 17C4 18.1046 4.89543 19 6 19C7.10457 19 8 18.1046 8 17C8 15.8954 7.10457 15 6 15C4.89543 15 4 15.8954 4 17ZM20 17C20 15.8954 19.1046 15 18 15C16.8954 15 16 15.8954 16 17C16 18.1046 16.8954 19 18 19C19.1046 19 20 18.1046 20 17Z" fill="#777B92"/>
</svg>
