<svg width="24" height="24" viewBox="0 0 24 24" fill="none" xmlns="http://www.w3.org/2000/svg">
<path fill-rule="evenodd" clip-rule="evenodd" d="M8.70711 2.29289C8.31658 1.90237 7.68342 1.90237 7.29289 2.29289C6.90237 2.68342 6.90237 3.31658 7.29289 3.70711L9.58579 6H5C3.89543 6 3 6.89543 3 8V20C3 21.1046 3.89543 22 5 22H19C20.1046 22 21 21.1046 21 20V8C21 6.89543 20.1046 6 19 6H14.4142L16.7071 3.70711C17.0976 3.31658 17.0976 2.68342 16.7071 2.29289C16.3166 1.90237 15.6834 1.90237 15.2929 2.29289L12 5.58579L8.70711 2.29289ZM5 20V8L19 8V20H5Z" fill="#777B92"/>
</svg>
