<svg width="22" height="22" viewBox="0 0 22 22" fill="none" xmlns="http://www.w3.org/2000/svg">
<path fill-rule="evenodd" clip-rule="evenodd" d="M11 10C11.5933 10 12.1734 9.82405 12.6667 9.49441C13.1601 9.16477 13.5446 8.69623 13.7716 8.14805C13.9987 7.59987 14.0581 6.99667 13.9424 6.41473C13.8266 5.83279 13.5409 5.29824 13.1213 4.87868C12.7018 4.45912 12.1672 4.1734 11.5853 4.05765C11.0033 3.94189 10.4001 4.0013 9.85195 4.22836C9.30377 4.45543 8.83524 4.83994 8.50559 5.33329C8.17595 5.82664 8 6.40666 8 7C8 7.79565 8.31607 8.55871 8.87868 9.12132C9.44129 9.68393 10.2044 10 11 10ZM11 6C11.1978 6 11.3911 6.05865 11.5556 6.16853C11.72 6.27841 11.8482 6.43459 11.9239 6.61732C11.9996 6.80004 12.0194 7.00111 11.9808 7.19509C11.9422 7.38907 11.847 7.56726 11.7071 7.70711C11.5673 7.84696 11.3891 7.9422 11.1951 7.98079C11.0011 8.01937 10.8 7.99957 10.6173 7.92388C10.4346 7.84819 10.2784 7.72002 10.1685 7.55557C10.0586 7.39112 10 7.19778 10 7C10 6.73478 10.1054 6.48043 10.2929 6.29289C10.4804 6.10536 10.7348 6 11 6Z" fill="#97A3BA"/>
<path fill-rule="evenodd" clip-rule="evenodd" d="M11 11C10.3078 11 9.63108 11.2053 9.05551 11.5899C8.47993 11.9744 8.03133 12.5211 7.76642 13.1606C7.50152 13.8001 7.4322 14.5039 7.56725 15.1828C7.7023 15.8617 8.03564 16.4854 8.52513 16.9749C9.01461 17.4644 9.63825 17.7977 10.3172 17.9327C10.9961 18.0678 11.6999 17.9985 12.3394 17.7336C12.9789 17.4687 13.5256 17.0201 13.9101 16.4445C14.2947 15.8689 14.5 15.1922 14.5 14.5C14.5 13.5717 14.1313 12.6815 13.4749 12.0251C12.8185 11.3687 11.9283 11 11 11ZM11 16C10.7033 16 10.4133 15.912 10.1666 15.7472C9.91997 15.5824 9.72771 15.3481 9.61418 15.074C9.50065 14.7999 9.47095 14.4983 9.52882 14.2074C9.5867 13.9164 9.72956 13.6491 9.93934 13.4393C10.1491 13.2296 10.4164 13.0867 10.7074 13.0288C10.9983 12.9709 11.2999 13.0006 11.574 13.1142C11.8481 13.2277 12.0824 13.42 12.2472 13.6666C12.412 13.9133 12.5 14.2033 12.5 14.5C12.5 14.8978 12.342 15.2794 12.0607 15.5607C11.7794 15.842 11.3978 16 11 16Z" fill="#97A3BA"/>
<path fill-rule="evenodd" clip-rule="evenodd" d="M6 1H16C16.7956 1 17.5587 1.31607 18.1213 1.87868C18.6839 2.44129 19 3.20435 19 4V18C19 18.7956 18.6839 19.5587 18.1213 20.1213C17.5587 20.6839 16.7956 21 16 21H6C5.20435 21 4.44129 20.6839 3.87868 20.1213C3.31607 19.5587 3 18.7956 3 18V4C3 3.20435 3.31607 2.44129 3.87868 1.87868C4.44129 1.31607 5.20435 1 6 1ZM16.7071 18.7071C16.8946 18.5196 17 18.2652 17 18V4C17 3.73478 16.8946 3.48043 16.7071 3.29289C16.5196 3.10536 16.2652 3 16 3H6C5.73478 3 5.48043 3.10536 5.29289 3.29289C5.10536 3.48043 5 3.73478 5 4V18C5 18.2652 5.10536 18.5196 5.29289 18.7071C5.48043 18.8946 5.73478 19 6 19H16C16.2652 19 16.5196 18.8946 16.7071 18.7071Z" fill="#97A3BA"/>
</svg>
