<svg width="24" height="24" viewBox="0 0 24 24" fill="none" xmlns="http://www.w3.org/2000/svg">
<path fill-rule="evenodd" clip-rule="evenodd" d="M6 5C6 3.89543 6.89543 3 8 3H16C17.1046 3 18 3.89543 18 5V7H20C21.1046 7 22 7.89543 22 9V14C22 14.5523 21.5523 15 21 15C20.4477 15 20 14.5523 20 14V9H4V17H6V15C6 13.8954 6.89543 13 8 13H17C17.5523 13 18 13.4477 18 14C18 14.5523 17.5523 15 17 15H8V19H13C13.5523 19 14 19.4477 14 20C14 20.5523 13.5523 21 13 21H8C6.89543 21 6 20.1046 6 19H4C2.89543 19 2 18.1046 2 17V9C2 7.89543 2.89543 7 4 7H6V5ZM16 7V5H8V7H16Z" fill="#777B92"/>
<path fill-rule="evenodd" clip-rule="evenodd" d="M17.0806 17H20.9194C21.7579 17 22.224 17.9699 21.7002 18.6247L19.7809 21.0239C19.3805 21.5243 18.6194 21.5243 18.2191 21.0239L16.2997 18.6247C15.7759 17.9699 16.2421 17 17.0806 17Z" fill="#777B92"/>
</svg>
