<svg width="22" height="22" viewBox="0 0 22 22" fill="none" xmlns="http://www.w3.org/2000/svg">
<path d="M18.36 6H17V4C17.0217 3.49233 16.8413 2.99675 16.4983 2.62186C16.1553 2.24698 15.6776 2.02335 15.17 2H6.83002C6.32242 2.02335 5.84478 2.24698 5.50175 2.62186C5.15873 2.99675 4.97831 3.49233 5.00002 4V6H3.64002C2.93628 6.00529 2.26331 6.28924 1.7685 6.78968C1.27369 7.29011 0.997354 7.96625 1.00002 8.67V15.33C0.997354 16.0338 1.27369 16.7099 1.7685 17.2103C2.26331 17.7108 2.93628 17.9947 3.64002 18H4.50002C4.50002 18.5304 4.71073 19.0391 5.08581 19.4142C5.46088 19.7893 5.96959 20 6.50002 20H15.5C16.0305 20 16.5392 19.7893 16.9142 19.4142C17.2893 19.0391 17.5 18.5304 17.5 18H18.36C19.0638 17.9947 19.7367 17.7108 20.2315 17.2103C20.7264 16.7099 21.0027 16.0338 21 15.33V8.67C21.0027 7.96625 20.7264 7.29011 20.2315 6.78968C19.7367 6.28924 19.0638 6.00529 18.36 6ZM7.00002 4H15V6H7.00002V4ZM6.50002 18V14H15.5V18H6.50002ZM19 15.33C19.0027 15.5034 18.9371 15.6708 18.8174 15.7962C18.6976 15.9216 18.5333 15.9948 18.36 16H17.5V14C17.5 13.4696 17.2893 12.9609 16.9142 12.5858C16.5392 12.2107 16.0305 12 15.5 12H6.50002C5.96959 12 5.46088 12.2107 5.08581 12.5858C4.71073 12.9609 4.50002 13.4696 4.50002 14V16H3.64002C3.46672 15.9948 3.30244 15.9216 3.18269 15.7962C3.06293 15.6708 2.99731 15.5034 3.00002 15.33V8.67C2.99731 8.49664 3.06293 8.32919 3.18269 8.20382C3.30244 8.07845 3.46672 8.00523 3.64002 8H18.36C18.5333 8.00523 18.6976 8.07845 18.8174 8.20382C18.9371 8.32919 19.0027 8.49664 19 8.67V15.33Z" fill="#97A3BA"/>
</svg>
