<svg width="24" height="24" viewBox="0 0 24 24" fill="none" xmlns="http://www.w3.org/2000/svg">
<path fill-rule="evenodd" clip-rule="evenodd" d="M12 5C13.6569 5 15 6.34315 15 8C15 9.65685 13.6569 11 12 11C10.3431 11 9 9.65685 9 8C9 6.34315 10.3431 5 12 5ZM11 8C11 8.55228 11.4477 9 12 9C12.5523 9 13 8.55228 13 8C13 7.44772 12.5523 7 12 7C11.4477 7 11 7.44772 11 8Z" fill="#777B92"/>
<path fill-rule="evenodd" clip-rule="evenodd" d="M6 2H18C19.1046 2 20 2.89543 20 4V12C20 13.1046 19.1046 14 18 14H6C4.89543 14 4 13.1046 4 12V4C4 2.89543 4.89543 2 6 2ZM6 4V12H18V4L6 4Z" fill="#777B92"/>
<path fill-rule="evenodd" clip-rule="evenodd" d="M15 20C14.4477 20 14 19.5523 14 19C14 18.4477 14.4477 18 15 18H19C19.5523 18 20 18.4477 20 19C20 19.5523 19.5523 20 19 20H15Z" fill="#777B92"/>
<path fill-rule="evenodd" clip-rule="evenodd" d="M8.29289 17.7071C7.90237 17.3166 7.90237 16.6834 8.29289 16.2929C8.68342 15.9024 9.31658 15.9024 9.70711 16.2929L11.7071 18.2929C12.0976 18.6834 12.0976 19.3166 11.7071 19.7071L9.70711 21.7071C9.31658 22.0976 8.68342 22.0976 8.29289 21.7071C7.90237 21.3166 7.90237 20.6834 8.29289 20.2929L8.58579 20H5C4.44772 20 4 19.5523 4 19C4 18.4477 4.44772 18 5 18H8.58579L8.29289 17.7071Z" fill="#777B92"/>
</svg>
