<svg width="24" height="24" viewBox="0 0 24 24" fill="none" xmlns="http://www.w3.org/2000/svg">
<path fill-rule="evenodd" clip-rule="evenodd" d="M4 4H20C21.1046 4 22 4.89543 22 6V14C22 15.1046 21.1046 16 20 16H4C2.89543 16 2 15.1046 2 14V6C2 4.89543 2.89543 4 4 4ZM4 6V14H20V6L4 6Z" fill="#777B92"/>
<path fill-rule="evenodd" clip-rule="evenodd" d="M19 20C18.4477 20 18 19.5523 18 19C18 18.4477 18.4477 18 19 18C19.5523 18 20 18.4477 20 19C20 19.5523 19.5523 20 19 20Z" fill="#777B92"/>
<path fill-rule="evenodd" clip-rule="evenodd" d="M16 19C16 19.5523 15.5523 20 15 20C14.4477 20 14 19.5523 14 19C14 18.4477 14.4477 18 15 18C15.5523 18 16 18.4477 16 19Z" fill="#777B92"/>
<path fill-rule="evenodd" clip-rule="evenodd" d="M5 18H11C11.5523 18 12 18.4477 12 19C12 19.5523 11.5523 20 11 20H5C4.44772 20 4 19.5523 4 19C4 18.4477 4.44772 18 5 18Z" fill="#777B92"/>
</svg>
