<svg width="22" height="22" viewBox="0 0 22 22" fill="none" xmlns="http://www.w3.org/2000/svg">
<path fill-rule="evenodd" clip-rule="evenodd" d="M12.6667 13.4944C12.1734 13.8241 11.5933 14 11 14C10.2044 14 9.44129 13.6839 8.87868 13.1213C8.31607 12.5587 8 11.7957 8 11C8 10.4067 8.17595 9.82664 8.50559 9.33329C8.83524 8.83994 9.30377 8.45543 9.85195 8.22836C10.4001 8.0013 11.0033 7.94189 11.5853 8.05765C12.1672 8.1734 12.7018 8.45912 13.1213 8.87868C13.5409 9.29824 13.8266 9.83279 13.9424 10.4147C14.0581 10.9967 13.9987 11.5999 13.7716 12.1481C13.5446 12.6962 13.1601 13.1648 12.6667 13.4944ZM11.5556 10.1685C11.3911 10.0587 11.1978 10 11 10C10.7348 10 10.4804 10.1054 10.2929 10.2929C10.1054 10.4804 10 10.7348 10 11C10 11.1978 10.0586 11.3911 10.1685 11.5556C10.2784 11.72 10.4346 11.8482 10.6173 11.9239C10.8 11.9996 11.0011 12.0194 11.1951 11.9808C11.3891 11.9422 11.5673 11.847 11.7071 11.7071C11.847 11.5673 11.9422 11.3891 11.9808 11.1951C12.0194 11.0011 11.9996 10.8 11.9239 10.6173C11.8482 10.4346 11.72 10.2784 11.5556 10.1685Z" fill="#97A3BA"/>
<path fill-rule="evenodd" clip-rule="evenodd" d="M6 3H16C16.7956 3 17.5587 3.31607 18.1213 3.87868C18.6839 4.44129 19 5.20435 19 6V16C19 16.7956 18.6839 17.5587 18.1213 18.1213C17.5587 18.6839 16.7956 19 16 19H6C5.20435 19 4.44129 18.6839 3.87868 18.1213C3.31607 17.5587 3 16.7956 3 16V6C3 5.20435 3.31607 4.44129 3.87868 3.87868C4.44129 3.31607 5.20435 3 6 3ZM16.7071 16.7071C16.8946 16.5196 17 16.2652 17 16V6C17 5.73478 16.8946 5.48043 16.7071 5.29289C16.5196 5.10536 16.2652 5 16 5H6C5.73478 5 5.48043 5.10536 5.29289 5.29289C5.10536 5.48043 5 5.73478 5 6V16C5 16.2652 5.10536 16.5196 5.29289 16.7071C5.48043 16.8946 5.73478 17 6 17H16C16.2652 17 16.5196 16.8946 16.7071 16.7071Z" fill="#97A3BA"/>
</svg>
