<svg width="22" height="22" viewBox="0 0 22 22" fill="none" xmlns="http://www.w3.org/2000/svg">
<path d="M17 5.00409H13.41L15.71 2.71409C15.8032 2.62085 15.8772 2.51016 15.9277 2.38834C15.9781 2.26652 16.0041 2.13595 16.0041 2.00409C16.0041 1.87223 15.9781 1.74166 15.9277 1.61984C15.8772 1.49802 15.8032 1.38733 15.71 1.29409C15.6168 1.20085 15.5061 1.12689 15.3842 1.07643C15.2624 1.02597 15.1319 1 15 1C14.7337 1 14.4783 1.10579 14.29 1.29409L11 4.59409L7.71 1.29409C7.61676 1.20085 7.50607 1.12689 7.38425 1.07643C7.26243 1.02597 7.13186 1 7 1C6.86814 1 6.73757 1.02597 6.61575 1.07643C6.49393 1.12689 6.38324 1.20085 6.29 1.29409C6.1017 1.4824 5.99591 1.73779 5.99591 2.00409C5.99591 2.13595 6.02188 2.26652 6.07234 2.38834C6.1228 2.51016 6.19676 2.62085 6.29 2.71409L8.59 5.00409H5C4.20435 5.00409 3.44129 5.32016 2.87868 5.88277C2.31607 6.44538 2 7.20844 2 8.00409V18.0041C2 18.7997 2.31607 19.5628 2.87868 20.1254C3.44129 20.688 4.20435 21.0041 5 21.0041H17C17.7956 21.0041 18.5587 20.688 19.1213 20.1254C19.6839 19.5628 20 18.7997 20 18.0041V8.00409C20 7.20844 19.6839 6.44538 19.1213 5.88277C18.5587 5.32016 17.7956 5.00409 17 5.00409ZM18 18.0041C18 18.2693 17.8946 18.5237 17.7071 18.7112C17.5196 18.8987 17.2652 19.0041 17 19.0041H5C4.73478 19.0041 4.48043 18.8987 4.29289 18.7112C4.10536 18.5237 4 18.2693 4 18.0041V8.00409C4 7.73888 4.10536 7.48452 4.29289 7.29699C4.48043 7.10945 4.73478 7.00409 5 7.00409H17C17.2652 7.00409 17.5196 7.10945 17.7071 7.29699C17.8946 7.48452 18 7.73888 18 8.00409V18.0041Z" fill="#97A3BA"/>
</svg>
