<svg width="24" height="24" viewBox="0 0 24 24" fill="none" xmlns="http://www.w3.org/2000/svg">
<path fill-rule="evenodd" clip-rule="evenodd" d="M11 10C11 10.5523 10.5523 11 10 11C9.44772 11 9 10.5523 9 10C9 9.44772 9.44772 9 10 9C10.5523 9 11 9.44772 11 10Z" fill="#777B92"/>
<path fill-rule="evenodd" clip-rule="evenodd" d="M14 11C13.4477 11 13 10.5523 13 10C13 9.44772 13.4477 9 14 9C14.5523 9 15 9.44772 15 10C15 10.5523 14.5523 11 14 11Z" fill="#777B92"/>
<path fill-rule="evenodd" clip-rule="evenodd" d="M6.29289 2.29289C6.68342 1.90237 7.31658 1.90237 7.70711 2.29289L9.70711 4.29289C9.72954 4.31533 9.75069 4.33857 9.77055 4.36252C10.4708 4.1274 11.2205 4 12 4C12.7795 4 13.5292 4.1274 14.2295 4.36252C14.2493 4.33857 14.2705 4.31533 14.2929 4.29289L16.2929 2.29289C16.6834 1.90237 17.3166 1.90237 17.7071 2.29289C18.0976 2.68342 18.0976 3.31658 17.7071 3.70711L16.0933 5.32091C17.8541 6.59224 19 8.6623 19 11V15C19 18.866 15.866 22 12 22C8.13401 22 5 18.866 5 15V11C5 8.6623 6.14593 6.59224 7.9067 5.32091L6.29289 3.70711C5.90237 3.31658 5.90237 2.68342 6.29289 2.29289ZM7 11V15H17V11C17 8.23858 14.7614 6 12 6C9.23858 6 7 8.23858 7 11ZM7.41604 17C8.1876 18.7659 9.94968 20 12 20C14.0503 20 15.8124 18.7659 16.584 17H7.41604Z" fill="#777B92"/>
</svg>
