<svg width="22" height="22" viewBox="0 0 22 22" fill="none" xmlns="http://www.w3.org/2000/svg">
<path d="M6 3C4.34315 3 3 4.34315 3 6V16C3 17.6569 4.34315 19 6 19H12C13.6569 19 15 17.6569 15 16C15 15.4477 14.5523 15 14 15C13.4477 15 13 15.4477 13 16C13 16.5523 12.5523 17 12 17H6C5.44772 17 5 16.5523 5 16V6C5 5.44772 5.44772 5 6 5H12C12.5523 5 13 5.44772 13 6C13 6.55228 13.4477 7 14 7C14.5523 7 15 6.55228 15 6C15 4.34315 13.6569 3 12 3H6Z" fill="#97A3BA"/>
<path d="M10.3332 9C9.9579 9 9.56509 8.82666 9.44001 8.47277L9.33325 8.17071C9.1492 7.64999 9.42449 7.06496 9.9746 7.01592C10.0929 7.00538 10.2125 7 10.3332 7C12.5424 7 14.3332 8.79086 14.3332 11C14.3332 13.2091 12.5424 15 10.3332 15C10.2125 15 10.0929 14.9946 9.97459 14.9841C9.42449 14.935 9.1492 14.35 9.33325 13.8293L9.44001 13.5272C9.56509 13.1733 9.9579 13 10.3332 13C11.4378 13 12.3332 12.1046 12.3332 11C12.3332 9.89543 11.4378 9 10.3332 9Z" fill="#97A3BA"/>
<path d="M11.333 11C11.333 11.5523 10.8853 12 10.333 12C9.78072 12 9.33301 11.5523 9.33301 11C9.33301 10.4477 9.78072 10 10.333 10C10.8853 10 11.333 10.4477 11.333 11Z" fill="#97A3BA"/>
</svg>
