<svg width="24" height="24" viewBox="0 0 24 24" fill="none" xmlns="http://www.w3.org/2000/svg">
<path fill-rule="evenodd" clip-rule="evenodd" d="M3.29289 3.29289C3.68342 2.90237 4.31658 2.90237 4.70711 3.29289L20.7071 19.2929C21.0976 19.6834 21.0976 20.3166 20.7071 20.7071C20.3166 21.0976 19.6834 21.0976 19.2929 20.7071L3.29289 4.70711C2.90237 4.31658 2.90237 3.68342 3.29289 3.29289Z" fill="#777B92"/>
<path fill-rule="evenodd" clip-rule="evenodd" d="M8 3H19C20.1046 3 21 3.89543 21 5V8C21 8.55228 20.5523 9 20 9C19.4477 9 19 8.55228 19 8V5H8C7.44772 5 7 4.55228 7 4C7 3.44772 7.44772 3 8 3Z" fill="#777B92"/>
<path fill-rule="evenodd" clip-rule="evenodd" d="M3 8C3 7.44772 3.44772 7 4 7C4.55228 7 5 7.44772 5 8V15H12C12.5523 15 13 15.4477 13 16C13 16.5523 12.5523 17 12 17H5C3.89543 17 3 16.1046 3 15V8Z" fill="#777B92"/>
<path fill-rule="evenodd" clip-rule="evenodd" d="M3 19H16C16.5523 19 17 19.4477 17 20C17 20.5523 16.5523 21 16 21H3C2.44772 21 2 20.5523 2 20C2 19.4477 2.44772 19 3 19Z" fill="#777B92"/>
<path fill-rule="evenodd" clip-rule="evenodd" d="M16 10H20C21.1046 10 22 10.8954 22 12V17C22 17.5523 21.5523 18 21 18C20.4477 18 20 17.5523 20 17V12H16C15.4477 12 15 11.5523 15 11C15 10.4477 15.4477 10 16 10Z" fill="#777B92"/>
</svg>
