<svg width="22" height="22" viewBox="0 0 22 22" fill="none" xmlns="http://www.w3.org/2000/svg">
<path fill-rule="evenodd" clip-rule="evenodd" d="M5 2C3.34315 2 2 3.34315 2 5V13C2 14.6569 3.34315 16 5 16H17C18.6569 16 20 14.6569 20 13V5C20 3.34315 18.6569 2 17 2H5ZM4 5C4 4.44772 4.44772 4 5 4H17C17.5523 4 18 4.44772 18 5V13C18 13.5523 17.5523 14 17 14H5C4.44772 14 4 13.5523 4 13V5Z" fill="#97A3BA"/>
<path d="M2 18C1.44772 18 1 18.4477 1 19C1 19.5523 1.44772 20 2 20H20C20.5523 20 21 19.5523 21 19C21 18.4477 20.5523 18 20 18H2Z" fill="#97A3BA"/>
</svg>
