<svg width="22" height="22" viewBox="0 0 22 22" fill="none" xmlns="http://www.w3.org/2000/svg">
<path d="M9 10C9.55228 10 10 9.55228 10 9C10 8.44772 9.55228 8 9 8C8.44772 8 8 8.44772 8 9C8 9.55228 8.44772 10 9 10Z" fill="#97A3BA"/>
<path d="M13 10C13.5523 10 14 9.55228 14 9C14 8.44772 13.5523 8 13 8C12.4477 8 12 8.44772 12 9C12 9.55228 12.4477 10 13 10Z" fill="#97A3BA"/>
<path fill-rule="evenodd" clip-rule="evenodd" d="M8.19953 3.58267L6.71432 1.41672C6.52584 1.14186 6.23701 0.997887 5.94529 1.00002C5.74855 1.00146 5.55048 1.06936 5.381 1.20839C4.96022 1.55357 4.87494 2.20648 5.19053 2.66671L6.52682 4.61547C4.9829 5.89949 4 7.83496 4 10V14C4 17.866 7.13401 21 11 21C14.866 21 18 17.866 18 14V10C18 7.83496 17.0171 5.89949 15.4732 4.61547L16.8095 2.66671C17.1251 2.20648 17.0398 1.55357 16.619 1.20839C16.4495 1.06936 16.2515 1.00146 16.0547 1.00002C15.763 0.997887 15.4742 1.14186 15.2857 1.41672L13.8005 3.58267C12.9429 3.2079 11.9957 3 11 3C10.0043 3 9.0571 3.2079 8.19953 3.58267ZM16 14V10C16 7.23858 13.7614 5 11 5C8.23858 5 6 7.23858 6 10V14H16ZM6.41604 16H15.584C14.8124 17.7659 13.0503 19 11 19C8.94968 19 7.1876 17.7659 6.41604 16Z" fill="#97A3BA"/>
</svg>
