<svg width="22" height="22" viewBox="0 0 22 22" fill="none" xmlns="http://www.w3.org/2000/svg">
<path d="M10.9995 1C8.29941 1.05257 5.73038 2.17378 3.85576 4.11775C1.98115 6.06173 0.953976 8.66979 0.999498 11.37V16C0.999498 16.7911 1.23409 17.5645 1.67362 18.2223C2.11315 18.8801 2.73786 19.3928 3.46876 19.6955C4.19967 19.9983 5.00393 20.0775 5.77986 19.9231C6.55578 19.7688 7.26852 19.3878 7.82793 18.8284C8.38734 18.269 8.7683 17.5563 8.92264 16.7804C9.07698 16.0044 8.99777 15.2002 8.69502 14.4693C8.39227 13.7384 7.87957 13.1136 7.22178 12.6741C6.56398 12.2346 5.79062 12 4.9995 12C4.29454 12.003 3.60349 12.1964 2.9995 12.56V11.37C2.95387 9.20017 3.7703 7.10075 5.26987 5.53183C6.76944 3.96291 8.82983 3.05245 10.9995 3C13.1692 3.05245 15.2296 3.96291 16.7291 5.53183C18.2287 7.10075 19.0451 9.20017 18.9995 11.37V12.56C18.3955 12.1964 17.7045 12.003 16.9995 12C16.2084 12 15.435 12.2346 14.7772 12.6741C14.1194 13.1136 13.6067 13.7384 13.304 14.4693C13.0012 15.2002 12.922 16.0044 13.0764 16.7804C13.2307 17.5563 13.6117 18.269 14.1711 18.8284C14.7305 19.3878 15.4432 19.7688 16.2191 19.9231C16.9951 20.0775 17.7993 19.9983 18.5302 19.6955C19.2611 19.3928 19.8859 18.8801 20.3254 18.2223C20.7649 17.5645 20.9995 16.7911 20.9995 16V11.37C21.045 8.66979 20.0178 6.06173 18.1432 4.11775C16.2686 2.17378 13.6996 1.05257 10.9995 1ZM4.9995 14C5.39506 14 5.78174 14.1173 6.11064 14.3371C6.43954 14.5568 6.69588 14.8692 6.84726 15.2346C6.99863 15.6001 7.03824 16.0022 6.96107 16.3902C6.8839 16.7781 6.69342 17.1345 6.41371 17.4142C6.13401 17.6939 5.77764 17.8844 5.38968 17.9616C5.00172 18.0387 4.59958 17.9991 4.23413 17.8478C3.86868 17.6964 3.55632 17.44 3.33656 17.1111C3.1168 16.7822 2.9995 16.3956 2.9995 16C2.9995 15.4696 3.21021 14.9609 3.58528 14.5858C3.96036 14.2107 4.46906 14 4.9995 14ZM16.9995 18C16.6039 18 16.2173 17.8827 15.8884 17.6629C15.5595 17.4432 15.3031 17.1308 15.1517 16.7654C15.0004 16.3999 14.9608 15.9978 15.0379 15.6098C15.1151 15.2219 15.3056 14.8655 15.5853 14.5858C15.865 14.3061 16.2214 14.1156 16.6093 14.0384C16.9973 13.9613 17.3994 14.0009 17.7649 14.1522C18.1303 14.3036 18.4427 14.56 18.6624 14.8889C18.8822 15.2178 18.9995 15.6044 18.9995 16C18.9995 16.5304 18.7888 17.0391 18.4137 17.4142C18.0386 17.7893 17.5299 18 16.9995 18Z" fill="#97A3BA"/>
</svg>
