<svg width="24" height="24" viewBox="0 0 24 24" fill="none" xmlns="http://www.w3.org/2000/svg">
<path fill-rule="evenodd" clip-rule="evenodd" d="M12 15H16C16.5523 15 17 15.4477 17 16C17 16.5523 16.5523 17 16 17H12C11.4477 17 11 16.5523 11 16C11 15.4477 11.4477 15 12 15Z" fill="#777B92"/>
<path fill-rule="evenodd" clip-rule="evenodd" d="M8 17C7.44772 17 7 16.5523 7 16C7 15.4477 7.44772 15 8 15C8.55228 15 9 15.4477 9 16C9 16.5523 8.55228 17 8 17Z" fill="#777B92"/>
<path fill-rule="evenodd" clip-rule="evenodd" d="M6.82915 4.10557C7.16794 3.428 7.86046 3 8.61801 3H15.3819C16.1395 3 16.832 3.428 17.1708 4.10557L20.8944 11.5528C21.0342 11.8324 21.0307 12.1462 20.9118 12.4107C20.9691 12.597 21 12.7949 21 13V19C21 20.1046 20.1046 21 19 21H5C3.89543 21 3 20.1046 3 19V13C3 12.7949 3.03087 12.5971 3.08821 12.4108C2.96922 12.1463 2.96572 11.8324 3.10555 11.5528L6.82915 4.10557ZM15.3819 5H8.61801L5.61801 11H18.3819L15.3819 5ZM5 13V19H19V13H5Z" fill="#777B92"/>
</svg>
