<svg width="22" height="22" viewBox="0 0 22 22" fill="none" xmlns="http://www.w3.org/2000/svg">
<path d="M7.24464 4L6.33058 3.08662L6.32789 3.08393L5.25026 2H17C18.6569 2 20 3.34315 20 5V13C20 14.0191 19.4918 14.9196 18.715 15.4618L17.2264 13.9743C17.6696 13.8717 18 13.4744 18 13V5C18 4.44772 17.5523 4 17 4H7.24464Z" fill="#97A3BA"/>
<path d="M2 5.25162V13C2 14.6569 3.34315 16 5 16H12.742L10.7432 14H5C4.44772 14 4 13.5523 4 13V7.25281L2 5.25162Z" fill="#97A3BA"/>
<path d="M16.7396 20H2C1.44772 20 1 19.5523 1 19C1 18.4477 1.44772 18 2 18H14.7408L16.7396 20Z" fill="#97A3BA"/>
<path d="M15.9932 14.5872L19.7013 18.2851C19.795 18.3781 19.8694 18.4886 19.9201 18.6104C19.9709 18.7322 19.997 18.8628 19.997 18.9948C19.997 19.1267 19.9709 19.2573 19.9201 19.3791C19.8694 19.5009 19.795 19.6115 19.7013 19.7044C19.6084 19.798 19.4979 19.8724 19.3761 19.9231C19.2543 19.9739 19.1236 20 18.9917 20C18.8597 20 18.7291 19.9739 18.6073 19.9231C18.4855 19.8724 18.375 19.798 18.282 19.7044L15.3835 16.796L2.82977 4.24286L2.29004 3.71315C2.10183 3.52495 1.99609 3.2697 1.99609 3.00354C1.99609 2.73738 2.10183 2.48213 2.29004 2.29393C2.38323 2.20074 2.49387 2.12682 2.61563 2.07639C2.73739 2.02596 2.86789 2 2.99968 2C3.13148 2 3.26198 2.02596 3.38374 2.07639C3.5055 2.12682 3.61614 2.20074 3.70933 2.29393L5.40848 4.00299L15.9932 14.5872Z" fill="#97A3BA"/>
</svg>
