<svg width="22" height="22" viewBox="0 0 22 22" fill="none" xmlns="http://www.w3.org/2000/svg">
<path d="M2 5C2 3.34315 3.34315 2 5 2H17C18.6569 2 20 3.34315 20 5V7C20 7.55228 19.5523 8 19 8C18.4477 8 18 7.55228 18 7V5C18 4.44772 17.5523 4 17 4H5C4.44772 4 4 4.44772 4 5V13C4 13.5523 4.44772 14 5 14H11C11.5523 14 12 14.4477 12 15C12 15.5523 11.5523 16 11 16H5C3.34315 16 2 14.6569 2 13V5Z" fill="#97A3BA"/>
<path d="M2 18C1.44772 18 1 18.4477 1 19C1 19.5523 1.44772 20 2 20H11C11.5523 20 12 19.5523 12 19C12 18.4477 11.5523 18 11 18H2Z" fill="#97A3BA"/>
<path fill-rule="evenodd" clip-rule="evenodd" d="M15 9C13.8954 9 13 9.89543 13 11V18C13 19.1046 13.8954 20 15 20H19C20.1046 20 21 19.1046 21 18V11C21 9.89543 20.1046 9 19 9H15ZM15 18V11H19V18H15Z" fill="#97A3BA"/>
</svg>
