<svg width="16" height="16" viewBox="0 0 16 16" fill="none" xmlns="http://www.w3.org/2000/svg">
<path fill-rule="evenodd" clip-rule="evenodd" d="M11.6464 0.646447C11.8417 0.451184 12.1583 0.451184 12.3536 0.646447L15.3536 3.64645C15.5488 3.84171 15.5488 4.15829 15.3536 4.35355C15.1583 4.54882 14.8417 4.54882 14.6464 4.35355L13.5 3.20711L7.20736 9.49975L9.35406 11.6465C9.53236 11.8248 9.54999 12.1079 9.39518 12.307L9.0005 12C9.39518 12.307 9.39532 12.3068 9.39518 12.307L9.39455 12.3078L9.3936 12.309L9.39073 12.3127L9.38115 12.3247C9.37306 12.3349 9.36159 12.3491 9.34682 12.3671C9.31728 12.4032 9.2745 12.4543 9.21916 12.518C9.10854 12.6452 8.94731 12.8228 8.74082 13.0293C8.32899 13.4411 7.73127 13.9738 6.99046 14.4512C5.51367 15.4027 3.39869 16.1733 1.06278 15.2091C0.939818 15.1583 0.842149 15.0607 0.791391 14.9377C-0.172829 12.6018 0.59777 10.4868 1.54933 9.01005C2.02667 8.26923 2.55938 7.67152 2.97121 7.25968C3.1777 7.0532 3.35528 6.89197 3.48252 6.78135C3.54617 6.72601 3.59735 6.68323 3.63338 6.65369C3.6514 6.63892 3.66564 6.62745 3.67577 6.61936L3.68785 6.60978L3.69151 6.60691L3.69272 6.60596C3.69291 6.60581 3.69353 6.60533 4.0005 7L3.69353 6.60533C3.89257 6.45052 4.17575 6.46815 4.35405 6.64645L6.50025 8.79264L12.7929 2.5L11.6464 1.35355C11.4512 1.15829 11.4512 0.841709 11.6464 0.646447ZM6.13329 9.8399L3.97537 7.68198C3.88855 7.76165 3.78817 7.85695 3.67832 7.96679C3.30119 8.34392 2.81846 8.88664 2.38994 9.55169C1.55916 10.841 0.968399 12.5254 1.6397 14.3608C3.47506 15.0321 5.15948 14.4413 6.44882 13.6106C7.11387 13.182 7.65658 12.6993 8.03372 12.3222C8.14356 12.2123 8.23886 12.112 8.31853 12.0251L6.1601 9.86671C6.15549 9.86243 6.15094 9.85804 6.14645 9.85355C6.14196 9.84906 6.13757 9.84451 6.13329 9.8399Z" fill="#777B92"/>
</svg>
