<svg width="16" height="16" viewBox="0 0 16 16" fill="none" xmlns="http://www.w3.org/2000/svg">
<path fill-rule="evenodd" clip-rule="evenodd" d="M15.3536 1.35355L10.1776 6.52946C10.9101 7.55788 10.9287 8.96018 10.1739 10.0169L6.40687 15.2907C6.32144 15.4103 6.18772 15.4863 6.04124 15.4984C5.89477 15.5105 5.75038 15.4576 5.64645 15.3536L0.646449 10.3536C0.542521 10.2497 0.489583 10.1053 0.501706 9.95885C0.513828 9.81237 0.589783 9.67865 0.709383 9.59322L5.98319 5.82621C7.03987 5.07144 8.44211 5.09001 9.47052 5.82237L14.6464 0.646447C14.8417 0.451184 15.1583 0.451184 15.3536 0.646447C15.5488 0.841709 15.5488 1.15829 15.3536 1.35355ZM6.56443 6.63994L5.85429 7.14719L8.8529 10.1458L9.36014 9.43566C9.92958 8.63844 9.8392 7.54639 9.14645 6.85364C8.4537 6.16089 7.36165 6.07051 6.56443 6.63994ZM8.14645 10.8536L5.14645 7.85355C5.10657 7.81367 5.07483 7.76873 5.05124 7.7208L1.77091 10.0639L2.99996 11.2929L3.64645 10.6464C3.84171 10.4512 4.15829 10.4512 4.35355 10.6464C4.54882 10.8417 4.54882 11.1583 4.35355 11.3536L3.70707 12L5.9362 14.2292L8.27931 10.9488C8.23134 10.9252 8.18636 10.8935 8.14645 10.8536Z" fill="#777B92"/>
</svg>
