<svg width="24" height="24" viewBox="0 0 24 24" fill="none" xmlns="http://www.w3.org/2000/svg">
<path fill-rule="evenodd" clip-rule="evenodd" d="M5 4C5 3.44772 4.55228 3 4 3C3.44772 3 3 3.44772 3 4V19C3 20.1046 3.89543 21 5 21H9H14H19H20C20.5523 21 21 20.5523 21 20C21 19.4477 20.5523 19 20 19V8C20 7.44772 19.5523 7 19 7C18.4477 7 18 7.44772 18 8L18 19H15V6C15 5.44772 14.5523 5 14 5C13.4477 5 13 5.44772 13 6V19H10L10 10C10 9.44772 9.55228 9 9 9C8.44772 9 8 9.44772 8 10L8 19H5V4Z" fill="#777B92"/>
</svg>
