<svg width="24" height="24" viewBox="0 0 24 24" fill="none" xmlns="http://www.w3.org/2000/svg">
<path fill-rule="evenodd" clip-rule="evenodd" d="M4 3C4.55228 3 5 3.44772 5 4V8.58579L6.67962 6.90616C7.38341 6.20238 8.4976 6.1232 9.29384 6.72038L11.9062 8.67962L16.2929 4.29289C16.6834 3.90237 17.3166 3.90237 17.7071 4.29289C18.0976 4.68342 18.0976 5.31658 17.7071 5.70711L13.3204 10.0938C12.6166 10.7976 11.5024 10.8768 10.7062 10.2796L8.09384 8.32038L5 11.4142V14.5858L6.67962 12.9062C7.38341 12.2024 8.4976 12.1232 9.29384 12.7204L11.9062 14.6796L15.5858 11C16.8457 9.74007 19 10.6324 19 12.4142V19H20C20.5523 19 21 19.4477 21 20C21 20.5523 20.5523 21 20 21H18H5C3.89543 21 3 20.1046 3 19V17.0002C3 17.0001 3 16.9999 3 16.9998V11.0002V10.9998V4C3 3.44772 3.44772 3 4 3ZM5 17.4142V19H17V12.4142L13.3204 16.0938C12.6166 16.7976 11.5024 16.8768 10.7062 16.2796L8.09384 14.3204L5 17.4142Z" fill="#777B92"/>
</svg>
