<svg width="24" height="24" viewBox="0 0 24 24" fill="none" xmlns="http://www.w3.org/2000/svg">
<path fill-rule="evenodd" clip-rule="evenodd" d="M13 4C13 4.55228 13.4477 5 14 5H16.5858L4.29289 17.2929C3.90237 17.6834 3.90237 18.3166 4.29289 18.7071C4.68342 19.0976 5.31658 19.0976 5.70711 18.7071L18 6.41421V9C18 9.55228 18.4477 10 19 10C19.5523 10 20 9.55228 20 9V4C20 3.44772 19.5523 3 19 3H14C13.4477 3 13 3.44772 13 4ZM20 13C20 12.4477 19.5523 12 19 12C18.4477 12 18 12.4477 18 13V20C18 20.5523 18.4477 21 19 21C19.5523 21 20 20.5523 20 20V13ZM16 15C16 14.4477 15.5523 14 15 14C14.4477 14 14 14.4477 14 15V20C14 20.5523 14.4477 21 15 21C15.5523 21 16 20.5523 16 20V15ZM11 16C11.5523 16 12 16.4477 12 17V20C12 20.5523 11.5523 21 11 21C10.4477 21 10 20.5523 10 20V17C10 16.4477 10.4477 16 11 16Z" fill="#777B92"/>
</svg>
