<svg width="24" height="24" viewBox="0 0 24 24" fill="none" xmlns="http://www.w3.org/2000/svg">
<path fill-rule="evenodd" clip-rule="evenodd" d="M3.35984 17.7682C3.78412 18.1218 4.41468 18.0645 4.76825 17.6402L9.21995 12.2981L12.7614 14.423C13.5977 14.9248 14.6741 14.7501 15.3089 14.0096L19 9.70326V12C19 12.5523 19.4477 13 20 13C20.5523 13 21 12.5523 21 12V7C21 6.44771 20.5523 6 20 6H15C14.4477 6 14 6.44771 14 7C14 7.55229 14.4477 8 15 8H17.8258L13.7904 12.708L10.2489 10.5832C9.40356 10.0759 8.31465 10.2604 7.6835 11.0178L3.2318 16.3598C2.87824 16.7841 2.93556 17.4147 3.35984 17.7682Z" fill="#777B92"/>
</svg>
