<svg width="24" height="24" viewBox="0 0 24 24" fill="none" xmlns="http://www.w3.org/2000/svg">
<path fill-rule="evenodd" clip-rule="evenodd" d="M12.7855 2.38133C12.6024 2.14909 12.3185 2 11.9998 2C11.6811 2 11.3972 2.14909 11.2141 2.38133C11.0887 2.43489 10.9676 2.50185 10.8529 2.58219L2.05483 8.74081C1.92846 8.82927 1.8149 8.93031 1.71498 9.04129C1.40302 9.13428 1.14248 9.37756 1.04195 9.71265C0.944349 10.038 1.02031 10.3741 1.21632 10.6216C1.23444 10.7698 1.26945 10.9178 1.32217 11.0628L4.82062 20.6835C4.86853 20.8153 4.92933 20.9397 5.0013 21.0555C5.01726 21.34 5.15403 21.6157 5.39978 21.8C5.66422 21.9983 5.99492 22.0459 6.28889 21.9574C6.42234 21.9854 6.56003 22 6.7002 22H17.2993C17.4395 22 17.5772 21.9854 17.7107 21.9574C18.0046 22.0459 18.3353 21.9983 18.5998 21.8C18.8455 21.6157 18.9823 21.34 18.9983 21.0555C19.0702 20.9397 19.131 20.8153 19.1789 20.6835L22.6774 11.0628C22.7301 10.9178 22.7651 10.7698 22.7832 10.6216C22.9792 10.3741 23.0552 10.038 22.9576 9.71265C22.8571 9.37756 22.5965 9.13428 22.2846 9.04129C22.1847 8.93031 22.0711 8.82927 21.9447 8.74081L13.1467 2.58219C13.0319 2.50185 12.9108 2.43489 12.7855 2.38133ZM10.9998 4.92066L4.26446 9.63538L10.9998 11.656V4.92066ZM3.62027 11.5302L6.30823 18.9221L10.3402 13.5461L3.62027 11.5302ZM7.99978 20H15.9998L11.9998 14.6667L7.99978 20ZM17.6913 18.9221L20.3793 11.5302L13.6594 13.5461L17.6913 18.9221ZM19.7351 9.63538L12.9998 4.92066V11.656L19.7351 9.63538Z" fill="#777B92"/>
</svg>
