<svg width="24" height="24" viewBox="0 0 24 24" fill="none" xmlns="http://www.w3.org/2000/svg">
<path fill-rule="evenodd" clip-rule="evenodd" d="M4 7.5C4 5.567 5.567 4 7.5 4C9.433 4 11 5.567 11 7.5C11 9.433 9.433 11 7.5 11C5.567 11 4 9.433 4 7.5ZM7.5 2C4.46243 2 2 4.46243 2 7.5C2 10.5376 4.46243 13 7.5 13C10.5376 13 13 10.5376 13 7.5C13 4.46243 10.5376 2 7.5 2ZM16 10C16 9.44772 16.4477 9 17 9C17.5523 9 18 9.44772 18 10C18 10.5523 17.5523 11 17 11C16.4477 11 16 10.5523 16 10ZM17 7C15.3431 7 14 8.34315 14 10C14 11.6569 15.3431 13 17 13C18.6569 13 20 11.6569 20 10C20 8.34315 18.6569 7 17 7ZM22 6C22 6.55228 21.5523 7 21 7C20.4477 7 20 6.55228 20 6C20 5.44772 20.4477 5 21 5C21.5523 5 22 5.44772 22 6ZM15 18C15 16.8954 15.8954 16 17 16C18.1046 16 19 16.8954 19 18C19 19.1046 18.1046 20 17 20C15.8954 20 15 19.1046 15 18ZM17 14C14.7909 14 13 15.7909 13 18C13 20.2091 14.7909 22 17 22C19.2091 22 21 20.2091 21 18C21 15.7909 19.2091 14 17 14Z" fill="#777B92"/>
</svg>
