<svg width="24" height="24" viewBox="0 0 24 24" fill="none" xmlns="http://www.w3.org/2000/svg">
<path fill-rule="evenodd" clip-rule="evenodd" d="M4 6C2.89543 6 2 6.89543 2 8V16C2 17.1046 2.89543 18 4 18H17C18.1046 18 19 17.1046 19 16V8C19 6.89543 18.1046 6 17 6H4ZM4 8L17 8V16H4V8ZM23 10C23 9.44772 22.5523 9 22 9C21.4477 9 21 9.44772 21 10V14C21 14.5523 21.4477 15 22 15C22.5523 15 23 14.5523 23 14V10ZM6 9C6.55228 9 7 9.44772 7 10V14C7 14.5523 6.55228 15 6 15C5.44772 15 5 14.5523 5 14V10C5 9.44772 5.44772 9 6 9ZM10 10C10 9.44772 9.55228 9 9 9C8.44772 9 8 9.44772 8 10V14C8 14.5523 8.44772 15 9 15C9.55228 15 10 14.5523 10 14V10Z" fill="#777B92"/>
</svg>
