<svg width="16" height="16" viewBox="0 0 16 16" fill="none" xmlns="http://www.w3.org/2000/svg">
<path fill-rule="evenodd" clip-rule="evenodd" d="M8 15.5C3.85786 15.5 0.5 12.1421 0.5 8C0.5 3.85786 3.85786 0.5 8 0.5C12.1421 0.5 15.5 3.85786 15.5 8C15.5 12.1421 12.1421 15.5 8 15.5ZM7.5 1.51894C4.14378 1.77426 1.5 4.57838 1.5 8C1.5 9.61999 2.09264 11.1016 3.07294 12.2398C3.09321 12.2065 3.11772 12.1752 3.14645 12.1464L5.14645 10.1464C5.16337 10.1295 5.18121 10.1141 5.1998 10.1001C4.76038 9.5151 4.5 8.78796 4.5 8C4.5 6.23676 5.80385 4.77806 7.5 4.53544V1.51894ZM5.89992 10.8002C5.88593 10.8188 5.87048 10.8366 5.85355 10.8536L3.85355 12.8536C3.82482 12.8823 3.79346 12.9068 3.76025 12.9271C4.89843 13.9074 6.38001 14.5 8 14.5C11.4216 14.5 14.2257 11.8562 14.4811 8.5H11.4646C11.2219 10.1961 9.76324 11.5 8 11.5C7.21204 11.5 6.4849 11.2396 5.89992 10.8002ZM11.4646 7.5H14.4811C14.2383 4.3088 11.6912 1.7617 8.5 1.51894V4.53544C10.0328 4.7547 11.2453 5.96715 11.4646 7.5ZM8 5.5C6.61929 5.5 5.5 6.61929 5.5 8C5.5 9.38071 6.61929 10.5 8 10.5C9.38071 10.5 10.5 9.38071 10.5 8C10.5 6.61929 9.38071 5.5 8 5.5Z" fill="#777B92"/>
</svg>
