<svg width="16" height="16" viewBox="0 0 16 16" fill="none" xmlns="http://www.w3.org/2000/svg">
<path fill-rule="evenodd" clip-rule="evenodd" d="M15 0.5C15.2761 0.5 15.5 0.723858 15.5 1V3C15.5 3.27614 15.2761 3.5 15 3.5C14.7239 3.5 14.5 3.27614 14.5 3V1C14.5 0.723858 14.7239 0.5 15 0.5Z" fill="#777B92"/>
<path fill-rule="evenodd" clip-rule="evenodd" d="M8 5.5C8.27614 5.5 8.5 5.72386 8.5 6V9C8.5 9.27614 8.27614 9.5 8 9.5C7.72386 9.5 7.5 9.27614 7.5 9V6C7.5 5.72386 7.72386 5.5 8 5.5Z" fill="#777B92"/>
<path fill-rule="evenodd" clip-rule="evenodd" d="M8 10.5C8.27614 10.5 8.5 10.7239 8.5 11V15C8.5 15.2761 8.27614 15.5 8 15.5C7.72386 15.5 7.5 15.2761 7.5 15V11C7.5 10.7239 7.72386 10.5 8 10.5Z" fill="#777B92"/>
<path fill-rule="evenodd" clip-rule="evenodd" d="M1.5 12.5L1.5 15C1.5 15.2761 1.27614 15.5 1 15.5C0.723858 15.5 0.5 15.2761 0.5 15V12.5C0.5 12.2239 0.723858 12 1 12C1.27614 12 1.5 12.2239 1.5 12.5Z" fill="#777B92"/>
<path fill-rule="evenodd" clip-rule="evenodd" d="M15 12.5C15.2761 12.5 15.5 12.7239 15.5 13V15C15.5 15.2761 15.2761 15.5 15 15.5C14.7239 15.5 14.5 15.2761 14.5 15V13C14.5 12.7239 14.7239 12.5 15 12.5Z" fill="#777B92"/>
<path fill-rule="evenodd" clip-rule="evenodd" d="M15.5 6V10C15.5 10.2761 15.2761 10.5 15 10.5C14.7239 10.5 14.5 10.2761 14.5 10V6C14.5 5.72386 14.7239 5.5 15 5.5C15.2761 5.5 15.5 5.72386 15.5 6Z" fill="#777B92"/>
<path fill-rule="evenodd" clip-rule="evenodd" d="M1 11C0.723858 11 0.5 10.7761 0.5 10.5C0.5 10.2239 0.723858 10 1 10C1.27614 10 1.5 10.2239 1.5 10.5C1.5 10.7761 1.27614 11 1 11Z" fill="#777B92"/>
</svg>
