<svg width="16" height="16" viewBox="0 0 16 16" fill="none" xmlns="http://www.w3.org/2000/svg">
<path fill-rule="evenodd" clip-rule="evenodd" d="M4.5 0.5C6.70914 0.5 8.5 2.29086 8.5 4.5C8.5 6.70914 6.70914 8.5 4.5 8.5C2.29086 8.5 0.5 6.70914 0.5 4.5C0.5 2.29086 2.29086 0.5 4.5 0.5ZM1.5 4.5C1.5 6.15685 2.84315 7.5 4.5 7.5C6.15685 7.5 7.5 6.15685 7.5 4.5C7.5 2.84315 6.15685 1.5 4.5 1.5C2.84315 1.5 1.5 2.84315 1.5 4.5Z" fill="#777B92"/>
<path fill-rule="evenodd" clip-rule="evenodd" d="M12.5 4.5C13.6046 4.5 14.5 5.39543 14.5 6.5C14.5 7.60457 13.6046 8.5 12.5 8.5C11.3954 8.5 10.5 7.60457 10.5 6.5C10.5 5.39543 11.3954 4.5 12.5 4.5ZM11.5 6.5C11.5 7.05228 11.9477 7.5 12.5 7.5C13.0523 7.5 13.5 7.05228 13.5 6.5C13.5 5.94772 13.0523 5.5 12.5 5.5C11.9477 5.5 11.5 5.94772 11.5 6.5Z" fill="#777B92"/>
<path fill-rule="evenodd" clip-rule="evenodd" d="M16 3C16 3.55228 15.5523 4 15 4C14.4477 4 14 3.55228 14 3C14 2.44772 14.4477 2 15 2C15.5523 2 16 2.44772 16 3Z" fill="#777B92"/>
<path fill-rule="evenodd" clip-rule="evenodd" d="M11.5 9.5C13.1569 9.5 14.5 10.8431 14.5 12.5C14.5 14.1569 13.1569 15.5 11.5 15.5C9.84315 15.5 8.5 14.1569 8.5 12.5C8.5 10.8431 9.84315 9.5 11.5 9.5ZM9.5 12.5C9.5 13.6046 10.3954 14.5 11.5 14.5C12.6046 14.5 13.5 13.6046 13.5 12.5C13.5 11.3954 12.6046 10.5 11.5 10.5C10.3954 10.5 9.5 11.3954 9.5 12.5Z" fill="#777B92"/>
</svg>
