<svg width="16" height="16" viewBox="0 0 16 16" fill="none" xmlns="http://www.w3.org/2000/svg">
<path fill-rule="evenodd" clip-rule="evenodd" d="M9.5 1C9.5 0.723858 9.72386 0.5 10 0.5H14C14.2761 0.5 14.5 0.723858 14.5 1V5C14.5 5.27614 14.2761 5.5 14 5.5C13.7239 5.5 13.5 5.27614 13.5 5V2.20711L2.35355 13.3536C2.15829 13.5488 1.84171 13.5488 1.64645 13.3536C1.45118 13.1583 1.45118 12.8417 1.64645 12.6464L12.7929 1.5H10C9.72386 1.5 9.5 1.27614 9.5 1Z" fill="#777B92"/>
<path fill-rule="evenodd" clip-rule="evenodd" d="M14.5 10V15C14.5 15.2761 14.2761 15.5 14 15.5C13.7239 15.5 13.5 15.2761 13.5 15V10C13.5 9.72386 13.7239 9.5 14 9.5C14.2761 9.5 14.5 9.72386 14.5 10Z" fill="#777B92"/>
<path fill-rule="evenodd" clip-rule="evenodd" d="M10.5 12V15C10.5 15.2761 10.2761 15.5 10 15.5C9.72386 15.5 9.5 15.2761 9.5 15V12C9.5 11.7239 9.72386 11.5 10 11.5C10.2761 11.5 10.5 11.7239 10.5 12Z" fill="#777B92"/>
<path fill-rule="evenodd" clip-rule="evenodd" d="M6 13.5C6.27614 13.5 6.5 13.7239 6.5 14V15C6.5 15.2761 6.27614 15.5 6 15.5C5.72386 15.5 5.5 15.2761 5.5 15V14C5.5 13.7239 5.72386 13.5 6 13.5Z" fill="#777B92"/>
</svg>
