<svg width="16" height="16" viewBox="0 0 16 16" fill="none" xmlns="http://www.w3.org/2000/svg">
<path fill-rule="evenodd" clip-rule="evenodd" d="M2 0.5H4C4.82843 0.5 5.5 1.17157 5.5 2V14C5.5 14.8284 4.82843 15.5 4 15.5H2C1.17157 15.5 0.5 14.8284 0.5 14V2C0.5 1.17157 1.17157 0.5 2 0.5ZM1.5 2V14C1.5 14.2761 1.72386 14.5 2 14.5H4C4.27614 14.5 4.5 14.2761 4.5 14V2C4.5 1.72386 4.27614 1.5 4 1.5H2C1.72386 1.5 1.5 1.72386 1.5 2Z" fill="#777B92"/>
<path fill-rule="evenodd" clip-rule="evenodd" d="M12 3.5H14C14.8284 3.5 15.5 4.17157 15.5 5V14C15.5 14.8284 14.8284 15.5 14 15.5H12C11.1716 15.5 10.5 14.8284 10.5 14V5C10.5 4.17157 11.1716 3.5 12 3.5ZM11.5 5V14C11.5 14.2761 11.7239 14.5 12 14.5H14C14.2761 14.5 14.5 14.2761 14.5 14V5C14.5 4.72386 14.2761 4.5 14 4.5H12C11.7239 4.5 11.5 4.72386 11.5 5Z" fill="#777B92"/>
</svg>
