<svg width="16" height="16" viewBox="0 0 16 16" fill="none" xmlns="http://www.w3.org/2000/svg">
<path fill-rule="evenodd" clip-rule="evenodd" d="M15.5 8C15.5 12.1421 12.1421 15.5 8 15.5C3.85786 15.5 0.5 12.1421 0.5 8C0.5 3.85786 3.85786 0.5 8 0.5C12.1421 0.5 15.5 3.85786 15.5 8ZM8.5 7.5H14.4811C14.2383 4.3088 11.6912 1.7617 8.5 1.51894V7.5ZM7.5 1.51894C4.14378 1.77426 1.5 4.57838 1.5 8C1.5 11.4216 4.14378 14.2257 7.5 14.4811V1.51894ZM8.5 8.5V14.4811C11.6912 14.2383 14.2383 11.6912 14.4811 8.5H8.5Z" fill="#777B92"/>
</svg>
