<svg width="16" height="16" viewBox="0 0 16 16" fill="none" xmlns="http://www.w3.org/2000/svg">
<path fill-rule="evenodd" clip-rule="evenodd" d="M8 0.5C12.1421 0.5 15.5 3.85786 15.5 8C15.5 8.27614 15.2761 8.5 15 8.5H8C7.72386 8.5 7.5 8.27614 7.5 8V1C7.5 0.723858 7.72386 0.5 8 0.5ZM8.5 7.5H14.4811C14.2383 4.3088 11.6912 1.7617 8.5 1.51894V7.5Z" fill="#777B92"/>
<path fill-rule="evenodd" clip-rule="evenodd" d="M5.21455 2.12521C3.01736 3.16898 1.5 5.40776 1.5 7.99995C1.5 11.5898 4.41015 14.4999 8 14.4999C10.5922 14.4999 12.831 12.9826 13.8747 10.7854C13.9932 10.536 14.2915 10.4298 14.5409 10.5483C14.7903 10.6668 14.8965 10.9651 14.778 11.2145C13.5748 13.7472 10.9926 15.4999 8 15.4999C3.85786 15.4999 0.5 12.1421 0.5 7.99995C0.5 5.00734 2.25274 2.42511 4.78545 1.22195C5.03488 1.10346 5.33314 1.2096 5.45163 1.45903C5.57012 1.70846 5.46397 2.00672 5.21455 2.12521Z" fill="#777B92"/>
</svg>
