<svg width="22" height="22" viewBox="0 0 22 22" fill="none" xmlns="http://www.w3.org/2000/svg">
<path d="M12.8583 8.07945C12.9841 8.13189 13.0984 8.20875 13.1944 8.30557C13.2913 8.4016 13.3681 8.51586 13.4206 8.64174C13.473 8.76763 13.5 8.90265 13.5 9.03903C13.5 9.1754 13.473 9.31042 13.4206 9.43631C13.3681 9.56219 13.2913 9.67645 13.1944 9.77248L12.4566 10.5L13.1944 11.2274C13.2912 11.3235 13.3681 11.4377 13.4205 11.5636C13.473 11.6895 13.5 11.8245 13.5 11.9609C13.5 12.0973 13.473 12.2323 13.4205 12.3582C13.3681 12.4841 13.2912 12.5983 13.1944 12.6944C13.0984 12.7912 12.9841 12.868 12.8582 12.9205C12.7324 12.9729 12.5973 12.9999 12.461 12.9999C12.3246 12.9999 12.1896 12.9729 12.0637 12.9205C11.9378 12.868 11.8235 12.7912 11.7275 12.6944L11 11.9566L10.2725 12.6944C10.1765 12.7912 10.0622 12.8681 9.93635 12.9205C9.81046 12.973 9.67544 13 9.53906 13C9.40269 13 9.26767 12.973 9.14178 12.9205C9.0159 12.8681 8.90164 12.7912 8.80561 12.6944C8.70878 12.5984 8.63193 12.4841 8.57948 12.3582C8.52704 12.2323 8.50004 12.0973 8.50004 11.9609C8.50004 11.8246 8.52704 11.6895 8.57948 11.5637C8.63193 11.4378 8.70878 11.3235 8.80561 11.2275L9.54345 10.5L8.80552 9.77261C8.611 9.57808 8.50171 9.31425 8.50171 9.03915C8.50171 8.76405 8.611 8.50022 8.80552 8.30569C9.00005 8.11117 9.26388 8.00189 9.53898 8.00189C9.81408 8.00189 10.0779 8.11117 10.2724 8.30569L11 9.04339L11.7275 8.30557C11.8236 8.20875 11.9378 8.13189 12.0637 8.07945C12.1896 8.027 12.3246 8 12.461 8C12.5973 8 12.7324 8.027 12.8583 8.07945Z" fill="#97A3BA"/>
<path fill-rule="evenodd" clip-rule="evenodd" d="M3 3.99688C3 2.34175 4.34315 1 6 1H16C17.6569 1 19 2.34175 19 3.99688V19.0004C19 20.382 17.6298 21.3466 16.3273 20.8819L11 18.9813L5.67267 20.8819C4.37019 21.3466 3 20.382 3 19.0004V3.99688ZM6 2.99792C5.44772 2.99792 5 3.44517 5 3.99688V19.0004L10.3273 17.0998C10.7623 16.9446 11.2377 16.9446 11.6727 17.0998L17 19.0004V3.99688C17 3.44517 16.5523 2.99792 16 2.99792H6Z" fill="#97A3BA"/>
</svg>
