<svg width="22" height="22" viewBox="0 0 22 22" fill="none" xmlns="http://www.w3.org/2000/svg">
<path d="M19.6203 3.24419C19.5041 3.15036 19.3684 3.08371 19.223 3.04916C19.0776 3.0146 18.9264 3.01301 18.7803 3.0445L11.0003 4.79182L3.2203 3.02453C3.07193 2.99107 2.91786 2.99185 2.76983 3.02681C2.62181 3.06177 2.48371 3.12998 2.36607 3.22626C2.24843 3.32254 2.15434 3.44435 2.09095 3.58241C2.02757 3.72048 1.99656 3.87116 2.0003 4.023V16.2043C1.99465 16.4351 2.06929 16.6607 2.2115 16.8428C2.35372 17.0248 2.55472 17.152 2.7803 17.2028L10.7803 19H11.2203L19.2203 17.2028C19.4459 17.152 19.6469 17.0248 19.7891 16.8428C19.9313 16.6607 20.006 16.4351 20.0003 16.2043V4.023C19.9996 3.87302 19.9651 3.72513 19.8993 3.5903C19.8335 3.45548 19.7382 3.33718 19.6203 3.24419ZM4.0003 5.27108L10.0003 6.61901V16.7534L4.0003 15.4055V5.27108ZM18.0003 15.4055L12.0003 16.7534V6.61901L18.0003 5.27108V15.4055Z" fill="#97A3BA"/>
</svg>
