<svg width="22" height="22" viewBox="0 0 22 22" fill="none" xmlns="http://www.w3.org/2000/svg">
<path fill-rule="evenodd" clip-rule="evenodd" d="M6 1C4.34315 1 3 2.34175 3 3.99688V19.0004C3 20.382 4.37019 21.3466 5.67267 20.8819L11 18.9813L16.3273 20.8819C17.6298 21.3466 19 20.382 19 19.0004V3.99688C19 2.34175 17.6569 1 16 1H6ZM5 3.99688C5 3.44517 5.44772 2.99792 6 2.99792H16C16.5523 2.99792 17 3.44517 17 3.99688V19.0004L11.6727 17.0998C11.2377 16.9446 10.7623 16.9446 10.3273 17.0998L5 19.0004V3.99688Z" fill="#97A3BA"/>
</svg>
