<svg width="22" height="22" viewBox="0 0 22 22" fill="none" xmlns="http://www.w3.org/2000/svg">
<path d="M19 4H20C20.2652 4 20.5196 4.10536 20.7071 4.29289C20.8946 4.48043 21 4.73478 21 5C21 5.26522 20.8946 5.51957 20.7071 5.70711C20.5196 5.89464 20.2652 6 20 6H19V7C19 7.26522 18.8946 7.51957 18.7071 7.70711C18.5196 7.89464 18.2652 8 18 8C17.7348 8 17.4804 7.89464 17.2929 7.70711C17.1054 7.51957 17 7.26522 17 7V6H16C15.7348 6 15.4804 5.89464 15.2929 5.70711C15.1054 5.51957 15 5.26522 15 5C15 4.73478 15.1054 4.48043 15.2929 4.29289C15.4804 4.10536 15.7348 4 16 4H17V3C17 2.73478 17.1054 2.48043 17.2929 2.29289C17.4804 2.10536 17.7348 2 18 2C18.2652 2 18.5196 2.10536 18.7071 2.29289C18.8946 2.48043 19 2.73478 19 3V4Z" fill="#97A3BA"/>
<path fill-rule="evenodd" clip-rule="evenodd" d="M11.7809 5.39192C12.406 5.25153 13 5.72809 13 6.36876C13 6.83659 12.6756 7.24264 12.2192 7.34518L11.0003 7.61901V17.7534L17.0003 16.4055V11C17.0003 10.4477 17.448 10 18.0003 10C18.5526 10 19.0003 10.4477 19.0003 11V17.2043C19.006 17.4351 18.9313 17.6607 18.7891 17.8428C18.6469 18.0248 18.4459 18.152 18.2203 18.2028L10.2203 20H9.7803L1.7803 18.2028C1.55472 18.152 1.35372 18.0248 1.2115 17.8428C1.06929 17.6607 0.994652 17.4351 1.0003 17.2043V5.023C0.996565 4.87116 1.02757 4.72048 1.09095 4.58241C1.15434 4.44435 1.24843 4.32254 1.36607 4.22626C1.48371 4.12998 1.62181 4.06177 1.76983 4.02681C1.91786 3.99185 2.07193 3.99107 2.2203 4.02453L10.0003 5.79182L11.7809 5.39192ZM3.0003 6.27108L9.0003 7.61901V17.7534L3.0003 16.4055V6.27108Z" fill="#97A3BA"/>
</svg>
