<svg width="24" height="24" viewBox="0 0 24 24" fill="none" xmlns="http://www.w3.org/2000/svg">
<path fill-rule="evenodd" clip-rule="evenodd" d="M17.8944 8.55301C18.1414 9.04698 17.9412 9.64766 17.4472 9.89465L15.4472 10.8946C14.9532 11.1416 14.3525 10.9414 14.1055 10.4474C13.8586 9.95345 14.0588 9.35278 14.5528 9.10579L16.5528 8.10579C17.0467 7.8588 17.6474 8.05903 17.8944 8.55301Z" fill="#777B92"/>
<path fill-rule="evenodd" clip-rule="evenodd" d="M17.4472 14.8946L15.4472 15.8946C14.9532 16.1416 14.3525 15.9414 14.1055 15.4474C13.8586 14.9535 14.0588 14.3528 14.5528 14.1058L16.5528 13.1058C17.0467 12.8588 17.6474 13.059 17.8944 13.553C18.1414 14.047 17.9412 14.6477 17.4472 14.8946Z" fill="#777B92"/>
<path fill-rule="evenodd" clip-rule="evenodd" d="M21 5.28126V17.2197C21 18.1374 20.3754 18.9374 19.4851 19.16L12.4851 20.91C12.4372 20.922 12.389 20.9321 12.3406 20.9405C12.2343 20.979 12.1196 21 12 21C11.8804 21 11.7657 20.979 11.6594 20.9405C11.611 20.9321 11.5628 20.922 11.5149 20.91L4.51493 19.16C3.62459 18.9374 3 18.1374 3 17.2197V5.28126C3 3.98012 4.22278 3.0254 5.48507 3.34097L12 4.96971L18.5149 3.34097C19.7772 3.0254 21 3.98012 21 5.28126ZM13 18.7197L19 17.2197V5.28126L13 6.78126V18.7197ZM11 6.78126L5 5.28126V17.2197L11 18.7197V6.78126Z" fill="#777B92"/>
</svg>
