<svg width="24" height="24" viewBox="0 0 24 24" fill="none" xmlns="http://www.w3.org/2000/svg">
<path fill-rule="evenodd" clip-rule="evenodd" d="M15.7071 9.70711L11.7071 13.7071C11.3166 14.0976 10.6834 14.0976 10.2929 13.7071L8.29289 11.7071C7.90237 11.3166 7.90237 10.6834 8.29289 10.2929C8.68342 9.90237 9.31658 9.90237 9.70711 10.2929L11 11.5858L14.2929 8.29289C14.6834 7.90237 15.3166 7.90237 15.7071 8.29289C16.0976 8.68342 16.0976 9.31658 15.7071 9.70711Z" fill="#777B92"/>
<path fill-rule="evenodd" clip-rule="evenodd" d="M6 2H18C19.1046 2 20 2.89543 20 4V19.6743C20 21.003 18.7282 21.9624 17.4506 21.5973L12 20.04L6.54944 21.5973C5.27181 21.9624 4 21.003 4 19.6743V4C4 2.89543 4.89543 2 6 2ZM6 4V19.6743L11.4506 18.117C11.8097 18.0144 12.1903 18.0144 12.5494 18.117L18 19.6743V4L6 4Z" fill="#777B92"/>
</svg>
