<svg width="22" height="22" viewBox="0 0 22 22" fill="none" xmlns="http://www.w3.org/2000/svg">
<path d="M11 12.0001C11 11.4478 10.5523 11.0001 10 11.0001C9.44772 11.0001 9 11.4478 9 12.0001C9 12.5524 9.44772 13.0001 10 13.0001C10.5523 13.0001 11 12.5524 11 12.0001Z" fill="#97A3BA"/>
<path fill-rule="evenodd" clip-rule="evenodd" d="M3 3.99688C3 2.34175 4.34315 1 6 1H16C17.6569 1 19 2.34175 19 3.99688V19.0004C19 20.382 17.6298 21.3466 16.3273 20.8819L11 18.9813L5.67267 20.8819C4.37019 21.3466 3 20.382 3 19.0004V3.99688ZM11 6.81993C11 6.34325 11.3365 5.93284 11.8039 5.83935L14.8271 5.23471C15.4339 5.11335 16 5.57745 16 6.19625C16 6.66367 15.6701 7.06612 15.2117 7.15778L13 7.60013V12.0001C13 13.657 11.6569 15.0001 10 15.0001C8.34315 15.0001 7 13.657 7 12.0001C7 10.3433 8.34315 9.00013 10 9.00013C10.3506 9.00013 10.6872 9.06028 11 9.17084V6.81993Z" fill="#97A3BA"/>
</svg>
