<svg width="22" height="22" viewBox="0 0 22 22" fill="none" xmlns="http://www.w3.org/2000/svg">
<path fill-rule="evenodd" clip-rule="evenodd" d="M6 1C4.34315 1 3 2.34175 3 3.99688V19.0004C3 20.382 4.37019 21.3466 5.67267 20.8819L11 18.9813L16.3273 20.8819C17.6298 21.3466 19 20.382 19 19.0004V3.99688C19 2.34175 17.6569 1 16 1H6ZM12.8583 7.07945C12.9841 7.13189 13.0984 7.20875 13.1944 7.30557C13.2913 7.4016 13.3681 7.51586 13.4206 7.64174C13.473 7.76763 13.5 7.90265 13.5 8.03903C13.5 8.1754 13.473 8.31042 13.4206 8.43631C13.3681 8.56219 13.2913 8.67645 13.1944 8.77248L12.4566 9.49997L13.1944 10.2274C13.2912 10.3235 13.3681 10.4377 13.4205 10.5636C13.473 10.6895 13.5 10.8245 13.5 10.9609C13.5 11.0973 13.473 11.2323 13.4205 11.3582C13.3681 11.4841 13.2912 11.5983 13.1944 11.6944C13.0984 11.7912 12.9841 11.868 12.8582 11.9205C12.7324 11.9729 12.5973 11.9999 12.461 11.9999C12.3246 11.9999 12.1896 11.9729 12.0637 11.9205C11.9378 11.868 11.8235 11.7912 11.7275 11.6944L11 10.9566L10.2725 11.6944C10.1765 11.7912 10.0622 11.8681 9.93635 11.9205C9.81046 11.973 9.67544 12 9.53906 12C9.40269 12 9.26767 11.973 9.14178 11.9205C9.0159 11.8681 8.90164 11.7912 8.80561 11.6944C8.70878 11.5984 8.63193 11.4841 8.57948 11.3582C8.52704 11.2323 8.50004 11.0973 8.50004 10.9609C8.50004 10.8246 8.52704 10.6895 8.57948 10.5637C8.63193 10.4378 8.70878 10.3235 8.80561 10.2275L9.54345 9.49997L8.80552 8.77261C8.611 8.57808 8.50171 8.31425 8.50171 8.03915C8.50171 7.76405 8.611 7.50022 8.80552 7.30569C9.00005 7.11117 9.26388 7.00189 9.53898 7.00189C9.81408 7.00189 10.0779 7.11117 10.2724 7.30569L11 8.04339L11.7275 7.30557C11.8236 7.20875 11.9378 7.13189 12.0637 7.07945C12.1896 7.027 12.3246 7 12.461 7C12.5973 7 12.7324 7.027 12.8583 7.07945Z" fill="#97A3BA"/>
</svg>
