<svg width="22" height="22" viewBox="0 0 22 22" fill="none" xmlns="http://www.w3.org/2000/svg">
<path d="M18 2H6C5.20435 2 4.44129 2.31607 3.87868 2.87868C3.31607 3.44129 3 4.20435 3 5V17C3 17.7956 3.31607 18.5587 3.87868 19.1213C4.44129 19.6839 5.20435 20 6 20H18C18.2652 20 18.5196 19.8946 18.7071 19.7071C18.8946 19.5196 19 19.2652 19 19V3C19 2.73478 18.8946 2.48043 18.7071 2.29289C18.5196 2.10536 18.2652 2 18 2V2ZM6 4H17V14H6C5.65886 14.0027 5.32067 14.0636 5 14.18V5C5 4.73478 5.10536 4.48043 5.29289 4.29289C5.48043 4.10536 5.73478 4 6 4V4ZM6 18C5.73478 18 5.48043 17.8946 5.29289 17.7071C5.10536 17.5196 5 17.2652 5 17C5 16.7348 5.10536 16.4804 5.29289 16.2929C5.48043 16.1054 5.73478 16 6 16H17V18H6Z" fill="#97A3BA"/>
</svg>
