<svg width="24" height="24" viewBox="0 0 24 24" fill="none" xmlns="http://www.w3.org/2000/svg">
<path fill-rule="evenodd" clip-rule="evenodd" d="M3 5.28126C3 3.98012 4.22278 3.0254 5.48507 3.34097L8.24254 4.03034C8.77833 4.16429 9.10409 4.70722 8.97014 5.24302C8.83619 5.77881 8.29326 6.10457 7.75746 5.97062L5 5.28126V17.2197L10 18.4697V17C10 16.4477 10.4477 16 11 16C11.5523 16 12 16.4477 12 17V18.9697L19 17.2197V16.0005C19 15.4482 19.4477 15.0005 20 15.0005C20.5523 15.0005 21 15.4482 21 16.0005V17.2197C21 18.1374 20.3754 18.9374 19.4851 19.16L12.4851 20.91C12.1666 20.9896 11.8334 20.9896 11.5149 20.91L11.4494 20.8936C11.3143 20.9617 11.1616 21 11 21C10.6626 21 10.3643 20.8329 10.1832 20.5771L4.51493 19.16C3.62459 18.9374 3 18.1374 3 17.2197V5.28126Z" fill="#777B92"/>
<path fill-rule="evenodd" clip-rule="evenodd" d="M11 10C11 10.0231 11.0002 10.0462 11.0006 10.0692L11.3124 9.77391C11.7134 9.39416 12.3464 9.41139 12.7261 9.8124C13.1059 10.2134 13.0886 10.8463 12.6876 11.2261L11.1037 12.7261C10.8172 12.9973 10.3981 13.0748 10.0336 12.924L7.61758 11.924C7.10728 11.7128 6.86482 11.1279 7.07604 10.6176C7.28725 10.1073 7.87215 9.8648 8.38245 10.076L9.00926 10.3355C9.00313 10.2244 9.00002 10.1125 9.00002 10C9.00002 6.68629 11.6863 4 15 4C18.3137 4 21 6.68629 21 10C21 13.3137 18.3137 16 15 16C14.4477 16 14 15.5523 14 15C14 14.4477 14.4477 14 15 14C17.2092 14 19 12.2091 19 10C19 7.79086 17.2092 6 15 6C12.7909 6 11 7.79086 11 10Z" fill="#777B92"/>
</svg>
