<svg width="22" height="22" viewBox="0 0 22 22" fill="none" xmlns="http://www.w3.org/2000/svg">
<path fill-rule="evenodd" clip-rule="evenodd" d="M17 3.32426C17 2.23499 15.777 1.61321 14.92 2.26677L11.2856 5.72798L11.0003 5.79206L3.2203 4.02477C3.07193 3.99132 2.91786 3.99209 2.76983 4.02705C2.62181 4.06201 2.48371 4.13022 2.36607 4.2265C2.24843 4.32278 2.15434 4.44459 2.09095 4.58266C2.02757 4.72072 1.99656 4.87141 2.0003 5.02324V17.2045C1.99465 17.4353 2.06929 17.661 2.2115 17.843C2.35372 18.0251 2.55472 18.1523 2.7803 18.203L10.7803 20.0002H11.2203L19.2203 18.203C19.4459 18.1523 19.6469 18.0251 19.7891 17.843C19.9313 17.661 20.006 17.4353 20.0003 17.2045V5.02324C19.9996 4.87327 19.9651 4.72537 19.8993 4.59055C19.8335 4.45572 19.7382 4.33742 19.6203 4.24444C19.5041 4.1506 19.3684 4.08396 19.223 4.0494C19.0776 4.01484 18.9264 4.01325 18.7803 4.04474L17 4.44458V3.32426ZM15 5.00024C15 4.96446 14.9982 4.92934 14.9948 4.89494L15 4.89377V4.7478L12 7.5V17L15 14.4075V5.00024ZM17 6.49605L18.0003 6.27133V16.4058L14.7579 17.1342L16.48 15.8209C16.8073 15.5713 17 15.1795 17 14.7634V6.49605ZM4.0003 6.27133L10.0003 7.61926V17.7537L4.0003 16.4058V6.27133Z" fill="#97A3BA"/>
</svg>
