<svg width="22" height="22" viewBox="0 0 22 22" fill="none" xmlns="http://www.w3.org/2000/svg">
<path fill-rule="evenodd" clip-rule="evenodd" d="M3 3.99688C3 2.34175 4.34315 1 6 1H16C17.6569 1 19 2.34175 19 3.99688V19.0004C19 20.382 17.6298 21.3466 16.3273 20.8819L11 18.9813L5.67267 20.8819C4.37019 21.3466 3 20.382 3 19.0004V3.99688ZM10.4173 11.3436L13.206 7.40307H13.196C13.3576 7.18713 13.5968 7.04544 13.8609 7.00918C14.125 6.97291 14.3925 7.04504 14.6044 7.20969C14.8163 7.37435 14.9554 7.61804 14.991 7.88717C15.0266 8.15629 14.9558 8.42879 14.7942 8.64473L11.2164 13.6031C11.1234 13.7262 11.0039 13.826 10.8671 13.8948C10.7303 13.9636 10.5799 13.9996 10.4273 14C10.2756 14.0008 10.1257 13.9664 9.98894 13.8994C9.85221 13.8324 9.73226 13.7345 9.63819 13.6132L7.21093 10.448C7.048 10.2348 6.97489 9.96432 7.00767 9.69615C7.04045 9.42798 7.17645 9.18406 7.38573 9.01806C7.59502 8.85206 7.86045 8.77756 8.12364 8.81096C8.38684 8.84436 8.62622 8.98293 8.78915 9.19617L10.4173 11.3436Z" fill="#97A3BA"/>
</svg>
