<svg fill="none" xmlns="http://www.w3.org/2000/svg" viewBox="0 0 16 12"><g clip-path="url(#AF - Afghanistan__a)"><mask id="AF - Afghanistan__b" style="mask-type:alpha" maskUnits="userSpaceOnUse" x="0" y="0" width="16" height="12"><path fill="#fff" d="M0 0h16v12H0z"/></mask><g mask="url(#AF - Afghanistan__b)" fill-rule="evenodd" clip-rule="evenodd"><path d="M11 0h5v12h-5V0Z" fill="#67BD38"/><path d="M5 0h6v12H5V0Z" fill="#D51700"/><path d="M0 0h5v12H0V0Z" fill="#272727"/><path d="M5 6.05a3.05 3.05 0 1 0 5.48-1.844l-.443 1.338a2.055 2.055 0 0 1-.737 2.13V5.3H9a1 1 0 0 0-2 0h-.3v2.293a2.045 2.045 0 0 1-.662-1.937H6l-.37-1.462A3.037 3.037 0 0 0 5 6.05Zm2.7.204V8.07a2.063 2.063 0 0 0 .6.015v-1.83a1 1 0 0 1-.6 0Z" fill="#F7FCFF"/></g><path fill="url(#AF - Afghanistan__c)" style="mix-blend-mode:overlay" d="M0 0h16v12H0z"/></g><defs><linearGradient id="AF - Afghanistan__c" x1="8" y1="0" x2="8" y2="12" gradientUnits="userSpaceOnUse"><stop stop-color="#fff" stop-opacity=".7"/><stop offset="1" stop-opacity=".3"/></linearGradient><clipPath id="AF - Afghanistan__a"><rect width="16" height="12" rx="1" fill="#fff"/></clipPath></defs></svg>