<svg fill="none" xmlns="http://www.w3.org/2000/svg" viewBox="0 0 16 12"><g clip-path="url(#African Union__a)"><mask id="African Union__b" style="mask-type:alpha" maskUnits="userSpaceOnUse" x="0" y="0" width="16" height="12"><path fill="#fff" d="M0 0h16v12H0z"/></mask><g mask="url(#African Union__b)"><path fill-rule="evenodd" clip-rule="evenodd" d="M0 0v12h16V0H0Z" fill="#19724D"/><mask id="African Union__c" style="mask-type:alpha" maskUnits="userSpaceOnUse" x="0" y="0" width="16" height="12"><path fill-rule="evenodd" clip-rule="evenodd" d="M0 0v12h16V0H0Z" fill="#fff"/></mask><g mask="url(#African Union__c)"><path d="M7.788 7.509 6.93 9.854l.473-2.451L5.97 9.446l1.092-2.245-1.915 1.603 1.636-1.887L4.518 7.97l2.069-1.4-2.46.431 2.36-.815L4 5.965l2.49-.177-2.345-.857 2.452.473L4.553 3.97 6.8 5.062 5.196 3.147l1.887 1.636L6.03 2.518l1.4 2.069L7 2.127l.815 2.36L8.034 2l.178 2.49.857-2.345-.474 2.452 1.435-2.044L8.938 4.8l1.915-1.603-1.636 1.887L11.48 4.03l-2.067 1.4 2.46-.43-2.36.815 2.487.22-2.491.178 2.345.857-2.451-.474 2.043 1.435-2.245-1.092 1.603 1.915-1.887-1.636L9.97 9.48l-1.4-2.068.431 2.46-.815-2.36L7.965 10l-.177-2.491Z" fill="#F7FCFF"/><mask id="African Union__d" maskUnits="userSpaceOnUse" x="4.5" y="2" width="7" height="8" fill="#000"><path fill="#fff" d="M4.5 2h7v8h-7z"/><path fill-rule="evenodd" clip-rule="evenodd" d="M8.348 8.921 8.192 9l-.11-.166v-.086L8 8.551l-.13-.16-.055-.402-.16-.296-.019-.032-.021-.077v-.106l.04-.15.071-.177v-.354l-.07-.24-.193-.198-.093-.152.093-.182.07-.16-.163-.11h-.185l-.187-.193-.258.095-.324.097h-.397l-.176-.192-.094-.227L5.57 5.1l-.07-.119.07-.168v-.487l.112-.124.16-.321.177-.17.15-.145.062-.15.185-.23.167-.1v.1h.157L7.532 3v.297l.337.199.323.07v-.15l.556.15.396-.07v.299l.202.407.168.356.092.174.146.162.234.206v.098h.23L10.5 5.1v.235l-.151.42-.295.27-.376.532v.24l.074.354-.074.327-.41.27v.506h-.202v.243l-.449.424h-.269Zm1.487-.778L9.727 8.1l-.037-.06-.023-.151.183-.132-.038-.147.06-.077.105-.022.234-.045.178-.181.111.03-.015.196-.46.589-.19.042Z"/></mask><path fill-rule="evenodd" clip-rule="evenodd" d="M8.348 8.921 8.192 9l-.11-.166v-.086L8 8.551l-.13-.16-.055-.402-.16-.296-.019-.032-.021-.077v-.106l.04-.15.071-.177v-.354l-.07-.24-.193-.198-.093-.152.093-.182.07-.16-.163-.11h-.185l-.187-.193-.258.095-.324.097h-.397l-.176-.192-.094-.227L5.57 5.1l-.07-.119.07-.168v-.487l.112-.124.16-.321.177-.17.15-.145.062-.15.185-.23.167-.1v.1h.157L7.532 3v.297l.337.199.323.07v-.15l.556.15.396-.07v.299l.202.407.168.356.092.174.146.162.234.206v.098h.23L10.5 5.1v.235l-.151.42-.295.27-.376.532v.24l.074.354-.074.327-.41.27v.506h-.202v.243l-.449.424h-.269Zm1.487-.778L9.727 8.1l-.037-.06-.023-.151.183-.132-.038-.147.06-.077.105-.022.234-.045.178-.181.111.03-.015.196-.46.589-.19.042Z" fill="#19724D"/><path d="m8.192 9-.167.11.097.149.16-.08L8.191 9Zm.156-.079v-.2h-.047l-.042.022.09.178Zm-.266-.087h-.2v.06l.033.05.167-.11Zm0-.086h.2v-.04l-.015-.037-.185.077ZM8 8.551l.185-.077-.012-.028-.018-.022L8 8.55Zm-.13-.16-.199.027.008.056.036.044.154-.127Zm-.055-.402.198-.027-.004-.036-.018-.032-.176.095Zm-.16-.296.176-.095-.002-.004-.174.1Zm-.019-.032-.192.054.007.024.012.02.173-.098Zm-.021-.077h-.2v.028l.007.027.193-.055Zm0-.106-.193-.052-.007.025v.027h.2Zm.04-.15-.185-.075-.005.011-.003.012.193.052Zm.071-.177.186.074.014-.035v-.04h-.2Zm0-.354h.2v-.029l-.008-.027-.192.056Zm-.07-.24.191-.056-.014-.048-.034-.035-.144.14Zm-.193-.198-.17.104.01.02.016.015.144-.139Zm-.093-.152-.178-.091-.051.1.058.095.17-.104Zm.093-.182.178.092.005-.012-.183-.08Zm.07-.16.183.08.066-.151-.137-.094-.113.166Zm-.163-.11.113-.166-.051-.035H7.37v.2Zm-.185 0-.143.139.059.06h.084v-.2Zm-.187-.193.143-.14-.09-.093-.123.045.07.188Zm-.258.095.057.192.012-.004-.07-.188Zm-.324.097v.2h.03l.027-.008-.057-.192Zm-.397 0-.148.135.06.065h.088v-.2Zm-.176-.192-.185.076.013.033.024.026.148-.135Zm-.094-.227.185-.077-.01-.023-.016-.02-.16.12ZM5.57 5.1l-.172.102.006.01.006.009.16-.12Zm-.07-.119-.184-.077-.04.093.052.087.172-.103Zm.07-.168.185.078.016-.038v-.04h-.2Zm0-.487-.148-.134-.051.057v.077h.2Zm.112-.124.149.133.018-.02.012-.024-.179-.09Zm.16-.321-.138-.145-.025.024-.015.031.179.09Zm.177-.17.138.145h.001l-.14-.144Zm.15-.145.14.143.029-.028.015-.038-.184-.077Zm.062-.15-.156-.125-.017.022-.011.026.184.077Zm.185-.23-.104-.17-.03.018-.022.027.156.125Zm.167-.1h.2V2.73l-.304.183.104.171Zm0 .1h-.2v.2h.2v-.2Zm.157 0v.2h.023l.023-.005-.046-.195ZM7.532 3h.2v-.252l-.245.057.045.195Zm0 .297h-.2v.115l.099.058.101-.173Zm.337.199-.101.172.027.016.032.007.042-.195Zm.323.07-.043.195.243.053v-.248h-.2Zm0-.15.052-.193-.252-.068v.261h.2Zm.556.15-.052.193.043.012.044-.008-.035-.197Zm.396-.07h.2v-.239L9.11 3.3l.034.197Zm0 .299h-.2v.046l.021.042.18-.088Zm.202.407.18-.085v-.004l-.18.089Zm.168.356-.182.086.005.009.177-.095Zm.092.174-.176.094.012.021.016.018.148-.133Zm.146.162-.149.133.008.009.009.008.132-.15Zm.234.206h.2v-.09l-.068-.06-.132.15Zm0 .098h-.2v.2h.2v-.2Zm.23 0v.2h.034l.032-.01-.066-.19ZM10.5 5.1h.2v-.28l-.265.092.065.19Zm0 .235.188.068.012-.033v-.035h-.2Zm-.151.42.135.146.036-.033.017-.046-.188-.068Zm-.295.27-.135-.147-.016.014-.012.018.163.115Zm-.376.532-.163-.115-.037.052v.063h.2Zm0 .24h-.2v.021l.004.02.196-.04Zm.074.354.195.044.01-.042-.01-.043-.195.04Zm-.074.327.11.167.067-.044.018-.079-.195-.044Zm-.41.27-.11-.167-.09.06v.107h.2Zm0 .506v.2h.2v-.2h-.2Zm-.202 0v-.2h-.2v.2h.2Zm0 .243.138.145.062-.059v-.086h-.2Zm-.449.424v.2h.08l.058-.054-.138-.146Zm1.11-.82-.17.106.035.056.062.024.073-.186Zm.108.042-.073.186.056.022.06-.013-.043-.195Zm-.145-.101-.198.03.007.04.021.035.17-.105Zm-.023-.152-.117-.162-.1.072.019.12.198-.03Zm.183-.132.117.162.11-.08-.034-.132-.193.05Zm-.038-.147-.158-.123-.06.077.024.096.194-.05Zm.06-.077-.04-.196-.072.014-.046.059.158.123Zm.105-.022-.038-.196h-.003l.04.196Zm.234-.045.038.196.06-.011.045-.045-.143-.14Zm.178-.181.05-.194-.112-.03-.081.084.143.14Zm.111.03.2.015.012-.167-.161-.042-.051.193Zm-.015.196.158.123.037-.047.004-.06-.2-.016Zm-.46.589.044.195.07-.015.045-.057-.158-.123ZM8.282 9.179l.157-.079-.18-.357-.156.078.18.358Zm-.366-.235.11.166.334-.22-.11-.166-.334.22Zm-.033-.196v.086h.4v-.086h-.4Zm-.067-.12.083.197.369-.154-.082-.197-.37.154Zm-.1-.11.13.16.31-.254-.131-.16-.31.254Zm-.098-.502.054.402.397-.053-.055-.403-.396.054Zm-.138-.227.16.295.352-.19-.16-.296-.352.19Zm-.016-.03.019.034.347-.199-.019-.033-.347.199Zm-.04-.12.021.076.385-.11-.022-.076-.385.11Zm-.008-.161v.106h.4v-.106h-.4Zm.047-.202-.04.15.386.104.04-.15-.386-.104Zm.079-.2-.071.177.37.15.072-.178-.371-.149Zm-.015-.082v.157h.4v-.157h-.4Zm0-.197v.197h.4v-.197h-.4Zm-.063-.183.071.24.384-.113-.07-.24-.385.113Zm-.144-.116.193.199.287-.279-.193-.198-.287.278Zm-.12-.187.093.152.341-.208-.093-.152-.341.208Zm.086-.377-.093.182.356.182.093-.182-.356-.182Zm.064-.149-.07.16.367.16.07-.16-.367-.16Zm-.092.134.163.112.225-.33-.162-.112-.226.33Zm-.072.035h.185v-.4h-.185v.4Zm-.33-.253.187.193.286-.28-.187-.192-.287.28Zm-.046.144.258-.096-.139-.375-.258.096.14.375Zm-.336.1.324-.096-.115-.383-.324.097.115.383Zm-.242.01h.185v-.4H6.23v.4Zm-.212 0h.212v-.4H6.02v.4Zm-.324-.258.176.192.295-.27-.176-.192-.295.27Zm-.131-.286.094.227.37-.153-.094-.227-.37.153Zm-.153-.19.178.235.32-.242-.179-.235-.319.242Zm-.083-.137.071.118.344-.204-.071-.12-.344.206Zm.059-.349-.071.169.368.155.071-.168-.368-.156Zm-.016-.177v.255h.4v-.255h-.4Zm0-.232v.232h.4v-.232h-.4Zm.162-.258-.111.124.298.267.111-.124-.298-.267Zm.13-.277-.16.321.358.18.16-.322-.357-.179Zm.217-.224-.176.17.277.288.176-.169-.277-.289Zm.15-.145-.15.146.278.287.15-.146-.279-.287Zm.017-.083-.063.15.37.154.062-.15-.37-.154Zm.213-.278-.185.23.312.25.185-.23-.312-.25Zm.22-.147-.168.101.207.343.167-.101-.207-.343Zm.303.272v-.1h-.4v.1h.4Zm-.043-.2h-.157v.4h.157v-.4Zm.747-.18-.793.186.092.39.792-.187-.091-.39Zm.245.491V3h-.4v.297h.4Zm.239.026-.337-.198-.203.345.337.198.203-.345Zm.263.047-.322-.07-.085.391.322.07.085-.39Zm-.242.046v.15h.4v-.15h-.4Zm.808-.043-.556-.15-.104.386.556.15.104-.386Zm.31-.074-.397.07.07.394.396-.07-.07-.394Zm.234.496v-.3h-.4v.3h.4Zm.181.318-.201-.407-.359.177.202.407.358-.177Zm.17.36-.168-.356-.362.17.168.356.362-.17Zm.088.164-.093-.173-.353.189.093.173.353-.189Zm.118.123-.146-.162-.297.267.145.162.298-.267Zm.217.19-.234-.206-.264.3.234.206.264-.3Zm.068.248V5.1h-.4v.098h.4Zm.03-.2h-.23v.4h.23v-.4Zm.219-.087-.284.098.131.378.284-.098-.132-.378Zm.265.424V5.1h-.4v.235h.4Zm-.163.487.151-.42-.376-.135-.151.42.376.135Zm-.348.35.295-.27-.27-.295-.295.271.27.294Zm-.348.5.376-.531-.326-.231-.376.532.326.23Zm.037.125v-.24h-.4v.24h.4Zm.07.313-.074-.354-.392.082.074.354.392-.082Zm-.075.412.074-.327-.39-.088-.074.327.39.088Zm-.496.393.411-.27-.22-.334-.41.27.22.334Zm.09-.002v-.165h-.4v.165h.4Zm0 .341v-.34h-.4v.34h.4Zm-.4.2h.2v-.4h-.2v.4Zm.2.043v-.243h-.4v.243h.4Zm-.512.57.449-.425-.275-.29-.45.424.276.29Zm-.407.054h.27v-.4h-.27v.4Zm1.306-.834.108.042.145-.373-.108-.041-.145.372Zm-.134-.14.037.06.34-.212-.037-.059-.34.211ZM9.47 7.92l.023.152.396-.06-.024-.152-.395.06Zm.264-.324-.184.132.235.324.183-.132-.234-.324Zm-.115.065.038.147.387-.1-.037-.147-.388.1Zm.096-.25-.06.077.316.246.06-.077-.316-.246Zm.222-.095-.104.022.08.391.105-.021-.08-.392Zm.237-.045-.234.045.076.392.234-.045-.076-.392Zm.073-.125-.178.18.286.281.177-.181-.285-.28Zm.305-.024-.111-.03-.102.387.111.03.102-.387Zm.133.406.015-.197-.398-.031-.016.197.4.03Zm-.5.696.459-.589-.316-.246-.459.589.316.246Zm-.307.114.192-.042-.086-.39-.191.041.085.391Z" fill="#F7FCFF" mask="url(#African Union__d)"/><path fill-rule="evenodd" clip-rule="evenodd" d="m8 1.75-.294.155.056-.328-.238-.232.329-.047L8 1l.147.298.329.047-.238.232.056.328L8 1.75Zm1.1.145-.324.073.139-.302-.17-.285.33.039.22-.25.064.326.305.131-.29.162-.03.331-.244-.225Zm1.025.425-.332-.014.213-.255-.09-.32.308.123.276-.184-.022.331.261.206-.322.082-.115.311-.177-.28Zm.88.675-.317-.099.271-.191-.004-.332.266.198.315-.107-.107.315.198.266-.332-.004-.191.27-.099-.316Zm.675.88-.28-.177.311-.115.082-.322.206.26.331-.021-.184.276.123.309-.32-.09-.255.212-.013-.332Zm.425 1.025-.225-.244.33-.03.163-.29.131.305.326.065-.25.219.039.33-.285-.17-.302.139.073-.324ZM12.25 6l-.155-.294.328.056.232-.238.047.329L13 6l-.298.147-.047.329-.232-.238-.328.056L12.25 6Zm-.145 1.1-.073-.324.302.139.285-.17-.039.33.25.22-.326.064-.131.305-.162-.29-.331-.03.225-.244Zm-.425 1.025.014-.332.255.212.32-.09-.123.309.184.276-.33-.022-.206.261-.082-.322-.311-.115.28-.177Zm-.675.88.099-.317.192.271.332-.004-.2.266.107.315-.314-.107-.266.198.004-.332-.27-.191.316-.099Zm-.88.675.177-.28.115.311.322.082-.26.206.021.331-.276-.184-.309.123.09-.32-.212-.255.332-.013Zm-1.025.425.244-.225.03.33.29.163-.305.131-.065.326-.219-.25-.33.039.17-.285-.139-.302.324.073ZM8 10.25l.294-.155-.056.328.238.232-.33.047L8 11l-.147-.298-.329-.047.238-.232-.056-.328.294.155Zm-1.1-.145.324-.073-.139.302.17.285-.33-.039-.22.25-.064-.326-.305-.131.29-.162.03-.331.244.225ZM5.875 9.68l.332.014-.212.255.09.32-.309-.123-.276.184.022-.331-.261-.206.322-.082.115-.311.177.28Zm-.88-.675.317.099-.271.191.004.332-.266-.198-.315.107.107-.315-.198-.266.332.004.191-.27.099.316Zm-.675-.88.28.177-.311.115-.082.322L4 8.48l-.33.02.184-.276-.123-.309.32.09.255-.212.013.332ZM3.895 7.1l.225.244-.33.03-.163.29-.131-.305-.326-.065.25-.219-.039-.33.285.17.302-.139-.073.324ZM3.75 6l.155.294-.328-.056-.232.238-.047-.329L3 6l.298-.147.047-.329.232.238.328-.056L3.75 6Zm.145-1.1.073.324-.302-.139-.285.17.039-.33-.25-.22.326-.064.131-.305.162.29.331.03-.225.244Zm.425-1.025-.014.332-.255-.212-.32.09.123-.309L3.67 3.5l.33.022.206-.261.082.322.311.115-.28.177Zm.675-.88-.099.317-.191-.271-.333.004.2-.266-.108-.315.315.107.266-.198-.004.332.27.191-.316.099Zm.88-.675-.177.28-.115-.311-.322-.082L5.52 2l-.02-.33.276.184.309-.123-.09.32.212.255-.332.013ZM6.9 1.895l-.244.225-.03-.33-.29-.163.305-.131.065-.326.219.25.33-.039-.17.285.139.302-.324-.073Z" fill="#FECA00"/></g></g><path fill="url(#African Union__e)" style="mix-blend-mode:overlay" d="M0 0h16v12H0z"/></g><defs><linearGradient id="African Union__e" x1="8" y1="0" x2="8" y2="12" gradientUnits="userSpaceOnUse"><stop stop-color="#fff" stop-opacity=".7"/><stop offset="1" stop-opacity=".3"/></linearGradient><clipPath id="African Union__a"><rect width="16" height="12" rx="1" fill="#fff"/></clipPath></defs></svg>