<svg fill="none" xmlns="http://www.w3.org/2000/svg" viewBox="0 0 16 12"><g clip-path="url(#AL - Albania__a)"><mask id="AL - Albania__b" style="mask-type:alpha" maskUnits="userSpaceOnUse" x="0" y="0" width="16" height="12"><rect width="16" height="12" rx="0" fill="#fff"/></mask><g mask="url(#AL - Albania__b)" fill-rule="evenodd" clip-rule="evenodd"><path d="M0 0h16v12H0V0Z" fill="#F50100"/><path d="M7.941 7.49a.995.995 0 0 1-.138-.032c-.686.533-1.345.895-1.984 1.082a.5.5 0 0 1-.281-.96c.394-.115.814-.323 1.258-.625-.292.047-.594.099-.776.137-.148.032-.327.124-.497.212-.333.172-.637.329-.637-.003 0-.502.292-.652.834-.879.398-.167.65-.162.892-.157.088.002.173.004.265-.003.05-.003.105-.009.162-.017l-.017-.093a2.044 2.044 0 0 0-.41-.018c-.242.005-.494.01-.892-.157-.542-.227-.834-.377-.834-.879 0-.332.304-.175.637-.003.17.088.349.18.497.212.203.043.558.103.88.154l-.007-.044a.988.988 0 0 1-.183-.133c-.225-.21-.408-.245-.637-.288a2.487 2.487 0 0 1-.54-.152c-.542-.227-.869-.67-.869-1.173 0-.326.281-.114.616.137.18.136.377.284.553.365.174.08.351.144.514.203.166.06.316.115.43.175a.986.986 0 0 1 .01-.066.577.577 0 0 1-.152-.155c-.265-.414-.622-.563-1.16-.789l-.007-.002c-.542-.227-.868-.67-.868-1.173 0-.326.281-.114.616.137.18.136.377.284.553.365.502.231.888.43 1.133.898a.716.716 0 0 0 .144.198c.062-.065.132-.122.209-.169-.103-.747-.278-1.123-.444-1.154a.5.5 0 1 1 .183-.983c.668.125 1.048.745 1.226 1.83.179-1.085.558-1.705 1.226-1.83a.5.5 0 0 1 .183.983c-.165.031-.34.405-.443 1.149a.994.994 0 0 1 .242.147.782.782 0 0 0 .117-.171c.245-.468.631-.667 1.133-.898.176-.08.373-.228.553-.365.335-.251.616-.463.616-.137 0 .502-.326.946-.868 1.173l-.006.002c-.54.226-.896.375-1.162.79a.523.523 0 0 1-.065.08c.01.03.018.061.024.092.096-.042.21-.083.33-.127.163-.059.34-.123.514-.203.176-.08.372-.229.553-.365.335-.251.616-.463.616-.137 0 .502-.327.946-.869 1.173-.217.09-.389.123-.54.152-.229.043-.412.078-.637.288a.848.848 0 0 1-.048.042l-.023.116c.287-.047.582-.097.76-.135.15-.032.328-.124.498-.212.333-.172.637-.329.637.003 0 .502-.292.652-.834.88-.399.166-.65.161-.893.156a2.03 2.03 0 0 0-.306.006l-.022.117.064.005c.091.007.177.005.264.003.243-.005.495-.01.893.157.542.227.834.377.834.88 0 .331-.304.174-.637.002-.17-.088-.349-.18-.497-.212a17.518 17.518 0 0 0-.735-.13c.44.298.857.504 1.249.619a.5.5 0 1 1-.282.96c-.633-.187-1.288-.544-1.967-1.07a.995.995 0 0 1-.085.018c.122.545 1.077.994 1.077.994S8.464 10.83 8.27 10.83c-.193 0-1.492-2.348-1.492-2.348a2.265 2.265 0 0 0 1.163-.992Z" fill="#1A1A1A"/></g><path fill="url(#AL - Albania__c)" style="mix-blend-mode:overlay" d="M0 0h16v12H0z"/></g><defs><linearGradient id="AL - Albania__c" x1="8" y1="0" x2="8" y2="12" gradientUnits="userSpaceOnUse"><stop stop-color="#fff" stop-opacity=".7"/><stop offset="1" stop-opacity=".3"/></linearGradient><clipPath id="AL - Albania__a"><rect width="16" height="12" rx="1" fill="#fff"/></clipPath></defs></svg>
