<svg fill="none" xmlns="http://www.w3.org/2000/svg" viewBox="0 0 16 12"><g clip-path="url(#AMS__a)"><mask id="AMS__b" style="mask-type:alpha" maskUnits="userSpaceOnUse" x="0" y="0" width="16" height="12"><path fill="#fff" d="M0 0h16v12H0z"/></mask><g mask="url(#AMS__b)"><path fill-rule="evenodd" clip-rule="evenodd" d="M0 0v12h16V0H0Z" fill="#E31D1C"/><mask id="AMS__c" style="mask-type:alpha" maskUnits="userSpaceOnUse" x="0" y="0" width="16" height="12"><path fill-rule="evenodd" clip-rule="evenodd" d="M0 0v12h16V0H0Z" fill="#fff"/></mask><g mask="url(#AMS__c)" fill-rule="evenodd" clip-rule="evenodd"><path d="M0 4v4h16V4H0Z" fill="#272727"/><path d="M3.004 6.013 1.806 7.21l.802.802 1.198-1.198 1.198 1.198.802-.802-1.198-1.198 1.198-1.198-.802-.802L3.806 5.21 2.608 4.013l-.802.802 1.198 1.198Zm4.084-.065L5.89 7.146l.802.802L7.89 6.75l1.198 1.198.802-.802-1.198-1.198L9.89 4.75l-.802-.802L7.89 5.146 6.692 3.948l-.802.802 1.198 1.198Zm4.049.014L9.939 7.16l.802.802 1.198-1.198 1.198 1.198.802-.802-1.198-1.198 1.198-1.198-.802-.802-1.198 1.198-1.198-1.198-.802.802 1.198 1.198Z" fill="#F7FCFF"/></g></g><path fill="url(#AMS__d)" style="mix-blend-mode:overlay" d="M0 0h16v12H0z"/></g><defs><linearGradient id="AMS__d" x1="8" y1="0" x2="8" y2="12" gradientUnits="userSpaceOnUse"><stop stop-color="#fff" stop-opacity=".7"/><stop offset="1" stop-opacity=".3"/></linearGradient><clipPath id="AMS__a"><rect width="16" height="12" rx="1" fill="#fff"/></clipPath></defs></svg>