<svg fill="none" xmlns="http://www.w3.org/2000/svg" viewBox="0 0 16 12"><g clip-path="url(#AO - Angola__a)"><mask id="AO - Angola__b" style="mask-type:alpha" maskUnits="userSpaceOnUse" x="0" y="0" width="16" height="12"><path fill="#fff" d="M0 0h16v12H0z"/></mask><g mask="url(#AO - Angola__b)"><path fill-rule="evenodd" clip-rule="evenodd" d="M0 0v12h16V0H0Z" fill="#1D1D1D"/><mask id="AO - Angola__c" style="mask-type:alpha" maskUnits="userSpaceOnUse" x="0" y="0" width="16" height="12"><path fill-rule="evenodd" clip-rule="evenodd" d="M0 0v12h16V0H0Z" fill="#fff"/></mask><g mask="url(#AO - Angola__c)" fill-rule="evenodd" clip-rule="evenodd"><path d="M0 0v6h16V0H0Z" fill="#F50100"/><g filter="url(#AO - Angola__d)"><path d="M7.775 6.696c.388-.479.509-1.098.509-1.485 0-2.059-2.569-3.198-2.569-3.198 1.766 0 3.733 1.432 3.733 3.198 0 .748-.256 1.442-.686 1.994.787.392 1.453.699 1.453.699.247.162.316.594.154.841a.536.536 0 0 1-.741.154s-.632-.373-1.017-.626c-.177-.116-.38-.241-.598-.37-.505.34-1.111.54-1.763.54 0 0-2.348-.288-2.281-1.492 0 0 .569.435 2.241.435.266 0 .5-.037.706-.103a60.834 60.834 0 0 0-1.34-.709c-.247-.162-.89-.983-.728-1.23.163-.248 1.143.032 1.39.194 0 0 .343.472.829.76.214.128.456.263.708.398ZM6.59 4.901l-.505.337.162-.577-.371-.368.502-.02.212-.57.213.57h.5l-.37.388.186.543L6.59 4.9Z" fill="#FCFF01"/><path d="M7.775 6.696c.388-.479.509-1.098.509-1.485 0-2.059-2.569-3.198-2.569-3.198 1.766 0 3.733 1.432 3.733 3.198 0 .748-.256 1.442-.686 1.994.787.392 1.453.699 1.453.699.247.162.316.594.154.841a.536.536 0 0 1-.741.154s-.632-.373-1.017-.626c-.177-.116-.38-.241-.598-.37-.505.34-1.111.54-1.763.54 0 0-2.348-.288-2.281-1.492 0 0 .569.435 2.241.435.266 0 .5-.037.706-.103a60.834 60.834 0 0 0-1.34-.709c-.247-.162-.89-.983-.728-1.23.163-.248 1.143.032 1.39.194 0 0 .343.472.829.76.214.128.456.263.708.398ZM6.59 4.901l-.505.337.162-.577-.371-.368.502-.02.212-.57.213.57h.5l-.37.388.186.543L6.59 4.9Z" fill="#FFEA42"/></g></g></g><path fill="url(#AO - Angola__e)" style="mix-blend-mode:overlay" d="M0 0h16v12H0z"/></g><defs><linearGradient id="AO - Angola__e" x1="8" y1="0" x2="8" y2="12" gradientUnits="userSpaceOnUse"><stop stop-color="#fff" stop-opacity=".7"/><stop offset="1" stop-opacity=".3"/></linearGradient><clipPath id="AO - Angola__a"><rect width="16" height="12" rx="1" fill="#fff"/></clipPath><filter id="AO - Angola__d" x="3.968" y="2.013" width="6.489" height="6.974" filterUnits="userSpaceOnUse" color-interpolation-filters="sRGB"><feFlood flood-opacity="0" result="BackgroundImageFix"/><feColorMatrix in="SourceAlpha" values="0 0 0 0 0 0 0 0 0 0 0 0 0 0 0 0 0 0 127 0" result="hardAlpha"/><feOffset/><feColorMatrix values="0 0 0 0 0 0 0 0 0 0 0 0 0 0 0 0 0 0 0.2 0"/><feBlend in2="BackgroundImageFix" result="effect1_dropShadow_1_5948"/><feBlend in="SourceGraphic" in2="effect1_dropShadow_1_5948" result="shape"/></filter></defs></svg>