<svg fill="none" xmlns="http://www.w3.org/2000/svg" viewBox="0 0 16 12"><g clip-path="url(#AU - Australia__a)"><mask id="AU - Australia__b" style="mask-type:alpha" maskUnits="userSpaceOnUse" x="0" y="0" width="16" height="12"><path fill="#fff" d="M0 0h16v12H0z"/></mask><g mask="url(#AU - Australia__b)"><path fill-rule="evenodd" clip-rule="evenodd" d="M0 0h16v12H0V0Z" fill="#2E42A5"/><mask id="AU - Australia__c" style="mask-type:alpha" maskUnits="userSpaceOnUse" x="0" y="0" width="9" height="7"><path fill="#fff" d="M0 0h9v7H0z"/></mask><g mask="url(#AU - Australia__c)"><path d="m-1.002 6.5 1.98.869L9.045.944l1.045-1.29-2.118-.29-3.29 2.768-2.649 1.865L-1.002 6.5Z" fill="#F7FCFF"/><path d="m-.731 7.108 1.009.505 9.436-8.08H8.298L-.731 7.109Z" fill="#F50100"/><path d="m10.002 6.5-1.98.869L-.045.944-1.09-.346l2.118-.29 3.29 2.768 2.649 1.865L10.002 6.5Z" fill="#F7FCFF"/><path d="m9.935 6.937-1.01.504-4.018-3.46-1.19-.386L-1.19-.342H.227L5.13 3.502l1.303.463 3.502 2.972Z" fill="#F50100"/><mask id="AU - Australia__d" maskUnits="userSpaceOnUse" x="-1" y="-1" width="11" height="9" fill="#000"><path fill="#fff" d="M-1-1h11v9H-1z"/><path fill-rule="evenodd" clip-rule="evenodd" d="M4.992 0h-1v3H0v1h3.992v3h1V4H9V3H4.992V0Z"/></mask><path fill-rule="evenodd" clip-rule="evenodd" d="M4.992 0h-1v3H0v1h3.992v3h1V4H9V3H4.992V0Z" fill="#F50100"/><path d="M3.992 0v-.75h-.75V0h.75Zm1 0h.75v-.75h-.75V0Zm-1 3v.75h.75V3h-.75ZM0 3v-.75h-.75V3H0Zm0 1h-.75v.75H0V4Zm3.992 0h.75v-.75h-.75V4Zm0 3h-.75v.75h.75V7Zm1 0v.75h.75V7h-.75Zm0-3v-.75h-.75V4h.75ZM9 4v.75h.75V4H9Zm0-1h.75v-.75H9V3ZM4.992 3h-.75v.75h.75V3Zm-1-2.25h1v-1.5h-1v1.5ZM4.742 3V0h-1.5v3h1.5ZM0 3.75h3.992v-1.5H0v1.5ZM.75 4V3h-1.5v1h1.5Zm3.242-.75H0v1.5h3.992v-1.5ZM4.742 7V4h-1.5v3h1.5Zm.25-.75h-1v1.5h1v-1.5ZM4.242 4v3h1.5V4h-1.5ZM9 3.25H4.992v1.5H9v-1.5ZM8.25 3v1h1.5V3h-1.5Zm-3.258.75H9v-1.5H4.992v1.5ZM4.242 0v3h1.5V0h-1.5Z" fill="#F7FCFF" mask="url(#AU - Australia__d)"/></g><g clip-path="url(#AU - Australia__e)" fill="#F7FCFF"><path d="m4.408 9.834-.59.546.058-.802-.795-.121.664-.455-.4-.697.768.236.295-.748.295.748.769-.236-.4.697.663.455-.795.121.058.802-.59-.546Zm6.368-3.765-.394.364.04-.535-.53-.08.442-.304-.267-.464.512.157.197-.499.197.499.512-.157-.267.464.443.303-.53.081.039.535-.394-.364Zm.939-3.692-.394.363.039-.534-.53-.081.442-.303-.267-.465.513.157.197-.498.197.498.512-.157-.267.465.442.303-.53.08.04.535-.394-.363Zm2.346 1.846-.393.364.039-.535-.53-.08.442-.304-.267-.464.512.157.197-.499.197.499.513-.157-.267.464.442.303-.53.081.039.535-.394-.364ZM12.184 9.53l-.394.364.04-.534-.53-.081.442-.303-.267-.465.512.157.197-.498.197.498.512-.157-.267.465.442.303-.53.08.04.535-.394-.363Zm1.643-2.882-.4.21.076-.445-.323-.316.447-.065.2-.405.2.405.447.065-.324.316.077.445-.4-.21Z"/></g></g><path fill="url(#AU - Australia__f)" style="mix-blend-mode:overlay" d="M0 0h16v12H0z"/></g><defs><clipPath id="AU - Australia__a"><rect width="16" height="12" rx="1" fill="#fff"/></clipPath><clipPath id="AU - Australia__e"><path fill="#fff" transform="translate(3 1)" d="M0 0h12v10H0z"/></clipPath><linearGradient id="AU - Australia__f" x1="8" y1="0" x2="8" y2="12" gradientUnits="userSpaceOnUse"><stop stop-color="#fff" stop-opacity=".7"/><stop offset="1" stop-opacity=".3"/></linearGradient></defs></svg>