<svg fill="none" xmlns="http://www.w3.org/2000/svg" viewBox="0 0 16 12"><g clip-path="url(#AW - Aruba__a)"><mask id="AW - Aruba__b" style="mask-type:alpha" maskUnits="userSpaceOnUse" x="0" y="0" width="16" height="12"><path fill="#fff" d="M0 0h16v12H0z"/></mask><g mask="url(#AW - Aruba__b)"><path fill-rule="evenodd" clip-rule="evenodd" d="M0 0v12h16V0H0Z" fill="#5BA3DA"/><mask id="AW - Aruba__c" style="mask-type:alpha" maskUnits="userSpaceOnUse" x="0" y="0" width="16" height="12"><path fill-rule="evenodd" clip-rule="evenodd" d="M0 0v12h16V0H0Z" fill="#fff"/></mask><g mask="url(#AW - Aruba__c)" fill-rule="evenodd" clip-rule="evenodd"><path d="M2.78 4.29.242 3.536l2.595-.74.633-2.36.731 2.433 2.4.641-2.407.724-.718 2.324L2.78 4.29Z" fill="#EF2929"/><path d="M2.78 4.29.242 3.536l2.595-.74.633-2.36.731 2.433 2.4.641-2.407.724-.718 2.324L2.78 4.29Z" fill="red"/><path d="M16 7H0v1h16V7Zm0 2H0v1h16V9Z" fill="#FAD615"/></g></g><path fill="url(#AW - Aruba__d)" style="mix-blend-mode:overlay" d="M0 0h16v12H0z"/></g><defs><linearGradient id="AW - Aruba__d" x1="8" y1="0" x2="8" y2="12" gradientUnits="userSpaceOnUse"><stop stop-color="#fff" stop-opacity=".7"/><stop offset="1" stop-opacity=".3"/></linearGradient><clipPath id="AW - Aruba__a"><rect width="16" height="12" rx="1" fill="#fff"/></clipPath></defs></svg>