<svg fill="none" xmlns="http://www.w3.org/2000/svg" viewBox="0 0 16 12"><g clip-path="url(#AZ - Azerbaijan__a)"><mask id="AZ - Azerbaijan__b" style="mask-type:alpha" maskUnits="userSpaceOnUse" x="0" y="0" width="16" height="12"><path fill="#fff" d="M0 0h16v12H0z"/></mask><g mask="url(#AZ - Azerbaijan__b)"><path fill-rule="evenodd" clip-rule="evenodd" d="M0 0v12h16V0H0Z" fill="#AF0100"/><mask id="AZ - Azerbaijan__c" style="mask-type:alpha" maskUnits="userSpaceOnUse" x="0" y="0" width="16" height="12"><path fill-rule="evenodd" clip-rule="evenodd" d="M0 0v12h16V0H0Z" fill="#fff"/></mask><g mask="url(#AZ - Azerbaijan__c)" fill-rule="evenodd" clip-rule="evenodd"><path d="M0 0v4h16V0H0Z" fill="#3CA5D9"/><path d="M0 8v4h16V8H0Z" fill="#73BE4A"/><path d="M8.58 7.453c-.673-.155-1.2-.684-1.193-1.461a1.53 1.53 0 0 1 1.217-1.51c.74-.167 1.392.185 1.392.185-.204-.454-.915-.772-1.498-.77-1.085.002-2.243.83-2.254 2.096C6.232 7.304 7.481 8.05 8.58 8.047c.88-.002 1.299-.569 1.386-.81 0 0-.71.372-1.384.216Zm.429-.743.588-.409.588.41-.208-.686.57-.433-.715-.014-.235-.677-.235.677-.716.014.57.433-.207.685Z" fill="#F7FCFF"/></g></g><path fill="url(#AZ - Azerbaijan__d)" style="mix-blend-mode:overlay" d="M0 0h16v12H0z"/></g><defs><linearGradient id="AZ - Azerbaijan__d" x1="8" y1="0" x2="8" y2="12" gradientUnits="userSpaceOnUse"><stop stop-color="#fff" stop-opacity=".7"/><stop offset="1" stop-opacity=".3"/></linearGradient><clipPath id="AZ - Azerbaijan__a"><rect width="16" height="12" rx="1" fill="#fff"/></clipPath></defs></svg>