<svg fill="none" xmlns="http://www.w3.org/2000/svg" viewBox="0 0 16 12"><g clip-path="url(#BB - Barbados__a)"><mask id="BB - Barbados__b" style="mask-type:alpha" maskUnits="userSpaceOnUse" x="0" y="0" width="16" height="12"><path fill="#fff" d="M0 0h16v12H0z"/></mask><g mask="url(#BB - Barbados__b)" fill-rule="evenodd" clip-rule="evenodd"><path d="M11 0h5v12h-5V0Z" fill="#2E42A5"/><path d="M5 0h6v12H5V0Z" fill="#FECA00"/><path d="M0 0h5v12H0V0Z" fill="#2E42A5"/><path d="M9.217 7.637c.317-.655.682-1.85.682-1.85l.277-.822-1.098.398.26.15s-.453.906-.681 1.348c-.228.442-.25.15-.25.15l.038-3.085.252-.068-.627-1.206-.801 1.223.352.01s-.029 3.253-.078 3.126c-.027-.073-.1.151-.136.065-.222-.546-.526-1.602-.526-1.602l.178-.167-1.195-.245.357.734s.314 1.308.66 1.947c.077.202.453.288.453.288s.183-.186.229 0c.045.186 0 .938 0 .938h.843s-.059-.71 0-.938c.06-.228.244 0 .244 0s.49-.192.567-.394Z" fill="#000"/></g><path fill="url(#BB - Barbados__c)" style="mix-blend-mode:overlay" d="M0 0h16v12H0z"/></g><defs><linearGradient id="BB - Barbados__c" x1="8" y1="0" x2="8" y2="12" gradientUnits="userSpaceOnUse"><stop stop-color="#fff" stop-opacity=".7"/><stop offset="1" stop-opacity=".3"/></linearGradient><clipPath id="BB - Barbados__a"><rect width="16" height="12" rx="1" fill="#fff"/></clipPath></defs></svg>