<svg fill="none" xmlns="http://www.w3.org/2000/svg" viewBox="0 0 16 12"><g clip-path="url(#BF - Burkina Faso__a)"><mask id="BF - Burkina Faso__b" style="mask-type:alpha" maskUnits="userSpaceOnUse" x="0" y="0" width="16" height="12"><path fill="#fff" d="M0 0h16v12H0z"/></mask><g mask="url(#BF - Burkina Faso__b)"><path fill-rule="evenodd" clip-rule="evenodd" d="M0 0v12h16V0H0Z" fill="#5EAA22"/><mask id="BF - Burkina Faso__c" style="mask-type:alpha" maskUnits="userSpaceOnUse" x="0" y="0" width="16" height="12"><path fill-rule="evenodd" clip-rule="evenodd" d="M0 0v12h16V0H0Z" fill="#fff"/></mask><g mask="url(#BF - Burkina Faso__c)" fill-rule="evenodd" clip-rule="evenodd"><path d="M0 0v6h16V0H0Z" fill="#C51918"/><path d="m8.018 7.885-2.352 1.78.753-2.899-2.206-1.764h2.629l1.175-2.573 1.176 2.573h2.629l-2.23 1.767.776 2.896-2.35-1.78Z" fill="#FECA00"/></g></g><path fill="url(#BF - Burkina Faso__d)" style="mix-blend-mode:overlay" d="M0 0h16v12H0z"/></g><defs><linearGradient id="BF - Burkina Faso__d" x1="8" y1="0" x2="8" y2="12" gradientUnits="userSpaceOnUse"><stop stop-color="#fff" stop-opacity=".7"/><stop offset="1" stop-opacity=".3"/></linearGradient><clipPath id="BF - Burkina Faso__a"><rect width="16" height="12" rx="1" fill="#fff"/></clipPath></defs></svg>