<svg fill="none" xmlns="http://www.w3.org/2000/svg" viewBox="0 0 16 12"><g clip-path="url(#BO - Bolivia__a)"><mask id="BO - Bolivia__b" style="mask-type:alpha" maskUnits="userSpaceOnUse" x="0" y="0" width="16" height="12"><path fill="#fff" d="M0 0h16v12H0z"/></mask><g mask="url(#BO - Bolivia__b)"><path fill-rule="evenodd" clip-rule="evenodd" d="M0 0v12h16V0H0Z" fill="#FECA00"/><mask id="BO - Bolivia__c" style="mask-type:alpha" maskUnits="userSpaceOnUse" x="0" y="0" width="16" height="12"><path fill-rule="evenodd" clip-rule="evenodd" d="M0 0v12h16V0H0Z" fill="#fff"/></mask><g mask="url(#BO - Bolivia__c)"><path fill-rule="evenodd" clip-rule="evenodd" d="M0 0v4h16V0H0Z" fill="#DB501C"/><path fill-rule="evenodd" clip-rule="evenodd" d="M0 8v4h16V8H0Z" fill="#5EAA22"/><path d="M5.824 5.63S5.638 7.535 7.33 7.535h1.261s1.781-.117 1.574-1.905" stroke="#DB501C" stroke-width=".75"/><path d="M9.125 5.9a1.125 1.125 0 1 1-2.25 0 1.125 1.125 0 0 1 2.25 0Z" fill="#FECA00" stroke="#68B9E8" stroke-width=".75"/><path fill-rule="evenodd" clip-rule="evenodd" d="M8 6a.5.5 0 1 0 0-1 .5.5 0 0 0 0 1Z" fill="#DB501C"/><path fill-rule="evenodd" clip-rule="evenodd" d="M8.05 6.8c.47 0 .85-.18.85-.4 0-.22-.38-.4-.85-.4s-.85.18-.85.4c0 .22.38.4.85.4Z" fill="#5EAA22"/><path fill-rule="evenodd" clip-rule="evenodd" d="M8.05 5c.663 0 1.2-.18 1.2-.4 0-.22-.537-.4-1.2-.4-.663 0-1.2.18-1.2.4 0 .22.537.4 1.2.4Z" fill="#674F28"/></g></g><path fill="url(#BO - Bolivia__d)" style="mix-blend-mode:overlay" d="M0 0h16v12H0z"/></g><defs><linearGradient id="BO - Bolivia__d" x1="8" y1="0" x2="8" y2="12" gradientUnits="userSpaceOnUse"><stop stop-color="#fff" stop-opacity=".7"/><stop offset="1" stop-opacity=".3"/></linearGradient><clipPath id="BO - Bolivia__a"><rect width="16" height="12" rx="1" fill="#fff"/></clipPath></defs></svg>