<svg fill="none" xmlns="http://www.w3.org/2000/svg" viewBox="0 0 16 12"><g clip-path="url(#BR - Brazil__a)"><mask id="BR - Brazil__b" style="mask-type:alpha" maskUnits="userSpaceOnUse" x="0" y="0" width="16" height="12"><path fill="#fff" d="M0 0h16v12H0z"/></mask><g mask="url(#BR - Brazil__b)"><path fill-rule="evenodd" clip-rule="evenodd" d="M0 0v12h16V0H0Z" fill="#093"/><mask id="BR - Brazil__c" style="mask-type:alpha" maskUnits="userSpaceOnUse" x="0" y="0" width="16" height="12"><path fill-rule="evenodd" clip-rule="evenodd" d="M0 0v12h16V0H0Z" fill="#fff"/></mask><g mask="url(#BR - Brazil__c)"><g filter="url(#BR - Brazil__d)" fill-rule="evenodd" clip-rule="evenodd"><path d="m7.963 1.852 6.101 4.252-6.184 3.982L1.904 6.02l6.06-4.169Z" fill="#FFD221"/><path d="m7.963 1.852 6.101 4.252-6.184 3.982L1.904 6.02l6.06-4.169Z" fill="url(#BR - Brazil__e)"/></g><path fill-rule="evenodd" clip-rule="evenodd" d="M8 8.6a2.5 2.5 0 1 0 0-5 2.5 2.5 0 0 0 0 5Z" fill="#2E42A5"/><mask id="BR - Brazil__f" style="mask-type:alpha" maskUnits="userSpaceOnUse" x="5" y="3" width="6" height="6"><path fill-rule="evenodd" clip-rule="evenodd" d="M8 8.6a2.5 2.5 0 1 0 0-5 2.5 2.5 0 0 0 0 5Z" fill="#fff"/></mask><g mask="url(#BR - Brazil__f)" fill="#F7FCFF"><path fill-rule="evenodd" clip-rule="evenodd" d="m7.19 7.285-.112.059.022-.125-.09-.088.124-.018L7.19 7l.056.113.125.018-.09.088.02.125-.111-.059Zm1 0-.112.059.022-.125-.09-.088.124-.018L8.19 7l.056.113.125.018-.09.088.02.125-.111-.059Zm0 .6-.112.059.022-.125-.09-.088.124-.018.056-.113.056.113.125.018-.09.088.02.125-.111-.059Zm-.5-2.1-.112.059.022-.125-.09-.088.124-.018.056-.113.056.113.125.018-.09.088.02.125-.111-.059Zm0 1-.112.059.022-.125-.09-.088.124-.018.056-.113.056.113.125.018-.09.088.02.125-.111-.059Zm-.7-.5-.112.059.022-.125-.09-.088.124-.018L6.99 6l.056.113.125.018-.09.088.02.125-.111-.059Zm-.7.4-.112.059.022-.125-.09-.088.124-.018.056-.113.056.113.125.018-.09.088.02.125-.111-.059Zm2.3-1.7-.112.059.022-.125-.09-.088.124-.018.056-.113.056.113.125.018-.09.088.02.125-.111-.059Z"/><path d="m4.962 5.499.076-.998c2.399.181 4.292.97 5.656 2.373l-.717.697C8.795 6.355 7.131 5.662 4.962 5.5Z"/></g></g></g><path fill="url(#BR - Brazil__g)" style="mix-blend-mode:overlay" d="M0 0h16v12H0z"/></g><defs><linearGradient id="BR - Brazil__e" x1="16" y1="12" x2="16" y2="0" gradientUnits="userSpaceOnUse"><stop stop-color="#FFC600"/><stop offset="1" stop-color="#FFDE42"/></linearGradient><linearGradient id="BR - Brazil__g" x1="8" y1="0" x2="8" y2="12" gradientUnits="userSpaceOnUse"><stop stop-color="#fff" stop-opacity=".7"/><stop offset="1" stop-opacity=".3"/></linearGradient><clipPath id="BR - Brazil__a"><rect width="16" height="12" rx="1" fill="#fff"/></clipPath><filter id="BR - Brazil__d" x="1.904" y="1.852" width="12.16" height="8.234" filterUnits="userSpaceOnUse" color-interpolation-filters="sRGB"><feFlood flood-opacity="0" result="BackgroundImageFix"/><feColorMatrix in="SourceAlpha" values="0 0 0 0 0 0 0 0 0 0 0 0 0 0 0 0 0 0 127 0" result="hardAlpha"/><feOffset/><feColorMatrix values="0 0 0 0 0.0313726 0 0 0 0 0.368627 0 0 0 0 0 0 0 0 0.28 0"/><feBlend in2="BackgroundImageFix" result="effect1_dropShadow_1_5848"/><feBlend in="SourceGraphic" in2="effect1_dropShadow_1_5848" result="shape"/></filter></defs></svg>