<svg fill="none" xmlns="http://www.w3.org/2000/svg" viewBox="0 0 16 12"><g clip-path="url(#BY - Belarus__a)"><mask id="BY - Belarus__b" style="mask-type:alpha" maskUnits="userSpaceOnUse" x="0" y="0" width="16" height="12"><path fill="#fff" d="M0 0h16v12H0z"/></mask><g mask="url(#BY - Belarus__b)"><path fill-rule="evenodd" clip-rule="evenodd" d="M0 0h16v12H0V0Z" fill="#73BE4A"/><path fill-rule="evenodd" clip-rule="evenodd" d="M0 0v8h16V0H0Z" fill="#AF0100"/><path fill="#F7FCFF" d="M0 0h3v12H0z"/><path fill-rule="evenodd" clip-rule="evenodd" d="M.5 0a.5.5 0 1 1 0 1 .5.5 0 0 1 0-1Zm2 0a.5.5 0 1 1 0 1 .5.5 0 0 1 0-1ZM1 2.5a.5.5 0 1 0-1 0 .5.5 0 0 0 1 0ZM2.5 2a.5.5 0 1 1 0 1 .5.5 0 0 1 0-1Zm0 7a.5.5 0 1 1 0 1 .5.5 0 0 1 0-1ZM1 9.5a.5.5 0 1 0-1 0 .5.5 0 0 0 1 0ZM.5 11a.5.5 0 1 1 0 1 .5.5 0 0 1 0-1Zm2.5.5a.5.5 0 1 0-1 0 .5.5 0 0 0 1 0ZM1.5 10a.5.5 0 1 1 0 1 .5.5 0 0 1 0-1ZM2 1.5a.5.5 0 1 0-1 0 .5.5 0 0 0 1 0Zm.055 4.52L3 7v1l.022.046L1.546 6.57.219 8H0V7l.991-.986-.99-.992V4h.108l1.423 1.476 1.43-1.422L3 4v1l-.945 1.02ZM1.5 3a.5.5 0 1 1 0 1 .5.5 0 0 1 0-1ZM2 8.5a.5.5 0 1 0-1 0 .5.5 0 0 0 1 0Z" fill="#D0181A"/><path opacity=".4" fill-rule="evenodd" clip-rule="evenodd" d="M0 0h1v1H0V0Zm1 2H0v1h1V2ZM0 4h1v1H0V4Zm1 3H0v1h1V7ZM0 9h1v1H0V9Zm1 2H0v1h1v-1Zm2 0H2v1h1v-1ZM3 0H2v1h1V0Z" fill="#8F181A"/></g><path fill="url(#BY - Belarus__c)" style="mix-blend-mode:overlay" d="M0 0h16v12H0z"/></g><defs><linearGradient id="BY - Belarus__c" x1="8" y1="0" x2="8" y2="12" gradientUnits="userSpaceOnUse"><stop stop-color="#fff" stop-opacity=".7"/><stop offset="1" stop-opacity=".3"/></linearGradient><clipPath id="BY - Belarus__a"><rect width="16" height="12" rx="1" fill="#fff"/></clipPath></defs></svg>