<svg fill="none" xmlns="http://www.w3.org/2000/svg" viewBox="0 0 16 12"><g clip-path="url(#BZ - Belize__a)"><mask id="BZ - Belize__b" style="mask-type:alpha" maskUnits="userSpaceOnUse" x="0" y="0" width="16" height="12"><path fill="#fff" d="M0 0h16v12H0z"/></mask><g mask="url(#BZ - Belize__b)"><path fill-rule="evenodd" clip-rule="evenodd" d="M0 0v12h16V0H0Z" fill="#0168B4"/><mask id="BZ - Belize__c" style="mask-type:alpha" maskUnits="userSpaceOnUse" x="0" y="0" width="16" height="12"><path fill-rule="evenodd" clip-rule="evenodd" d="M0 0v12h16V0H0Z" fill="#fff"/></mask><g mask="url(#BZ - Belize__c)"><path fill-rule="evenodd" clip-rule="evenodd" d="M0 0v2h16V0H0Zm0 10v2h16v-2H0Z" fill="#E93C43"/><path d="M8 9a3 3 0 1 1 0-6 3 3 0 0 1 0 6Z" fill="#F7FCFF"/><path fill-rule="evenodd" clip-rule="evenodd" d="M4.5 6a3.5 3.5 0 1 0 7 0 3.5 3.5 0 0 0-7 0ZM11 6a3 3 0 1 1-6 0 3 3 0 0 1 6 0Z" fill="#fff"/><path fill-rule="evenodd" clip-rule="evenodd" d="M5 6a3 3 0 1 0 6 0 3 3 0 0 0-6 0Zm5.3 0a2.3 2.3 0 1 1-4.6 0 2.3 2.3 0 0 1 4.6 0Z" fill="#5B8C39"/><path fill-rule="evenodd" clip-rule="evenodd" d="m6.5 7 1.47-.188L9.5 7v.5l-1.53-.188L6.5 7.5V7Z" fill="#5B8C39"/><path fill-rule="evenodd" clip-rule="evenodd" d="M7 5h2s.141 3-1 3-1-3-1-3Z" fill="#769DF1"/><path fill="#FECA00" d="M8 5h1v1H8z"/><path opacity=".6" fill="#F6F7F8" d="M7 5h1v1H7z"/><rect opacity=".66" x="7" y="4" width="2" height="1" rx=".5" fill="#5B8C39"/><path fill-rule="evenodd" clip-rule="evenodd" d="M6.9 6.4c.276 0 .5-.448.5-1s-.224-1-.5-1-.5.448-.5 1 .224 1 .5 1Z" fill="#E9AD35"/><path fill-rule="evenodd" clip-rule="evenodd" d="M9.1 6.4c.276 0 .5-.448.5-1s-.224-1-.5-1-.5.448-.5 1 .224 1 .5 1Z" fill="#5C2216"/></g></g><path fill="url(#BZ - Belize__d)" style="mix-blend-mode:overlay" d="M0 0h16v12H0z"/></g><defs><linearGradient id="BZ - Belize__d" x1="8" y1="0" x2="8" y2="12" gradientUnits="userSpaceOnUse"><stop stop-color="#fff" stop-opacity=".7"/><stop offset="1" stop-opacity=".3"/></linearGradient><clipPath id="BZ - Belize__a"><rect width="16" height="12" rx="1" fill="#fff"/></clipPath></defs></svg>