<svg fill="none" xmlns="http://www.w3.org/2000/svg" viewBox="0 0 16 12"><g clip-path="url(#CF - Central African Republic__a)"><mask id="CF - Central African Republic__b" style="mask-type:alpha" maskUnits="userSpaceOnUse" x="0" y="0" width="16" height="12"><path fill="#fff" d="M0 0h16v12H0z"/></mask><g mask="url(#CF - Central African Republic__b)" fill-rule="evenodd" clip-rule="evenodd"><path d="M0 0h16v3H0V0Z" fill="#3D58DB"/><path d="M0 3h16v3H0V3Z" fill="#F7FCFF"/><path d="M0 6h16v3H0V6Z" fill="#73BE4A"/><path d="M0 9h16v3H0V9Z" fill="#FFD018"/><path d="m2.265 2.708-1.213.84.388-1.44-.89-.92 1.205-.049.51-1.424.51 1.424h1.203l-.888.97.444 1.355-1.27-.756Z" fill="#FECA00"/><path d="M6 0h4v12H6V0Z" fill="#E11C1B"/></g><path fill="url(#CF - Central African Republic__c)" style="mix-blend-mode:overlay" d="M0 0h16v12H0z"/></g><defs><linearGradient id="CF - Central African Republic__c" x1="8" y1="0" x2="8" y2="12" gradientUnits="userSpaceOnUse"><stop stop-color="#fff" stop-opacity=".7"/><stop offset="1" stop-opacity=".3"/></linearGradient><clipPath id="CF - Central African Republic__a"><rect width="16" height="12" rx="1" fill="#fff"/></clipPath></defs></svg>