<svg fill="none" xmlns="http://www.w3.org/2000/svg" viewBox="0 0 16 12"><g clip-path="url(#CL - Chile__a)"><mask id="CL - Chile__b" style="mask-type:alpha" maskUnits="userSpaceOnUse" x="0" y="0" width="16" height="12"><path fill="#fff" d="M0 0h16v12H0z"/></mask><g mask="url(#CL - Chile__b)" fill-rule="evenodd" clip-rule="evenodd"><path d="M0 0h7v7H0V0Z" fill="#3D58DB"/><path d="M7-1h9v8H7v-8Z" fill="#F7FCFF"/><path d="M0 7h16v5H0V7Z" fill="#E31D1C"/><path d="M3.507 4.892 1.605 6.027l.939-1.932L.882 2.84 2.8 2.82l.723-1.714.467 1.713 1.816.009-1.382 1.227.718 1.972-1.636-1.135Z" fill="#F7FCFF"/></g><path fill="url(#CL - Chile__c)" style="mix-blend-mode:overlay" d="M0 0h16v12H0z"/></g><defs><linearGradient id="CL - Chile__c" x1="8" y1="0" x2="8" y2="12" gradientUnits="userSpaceOnUse"><stop stop-color="#fff" stop-opacity=".7"/><stop offset="1" stop-opacity=".3"/></linearGradient><clipPath id="CL - Chile__a"><rect width="16" height="12" rx="1" fill="#fff"/></clipPath></defs></svg>