<svg fill="none" xmlns="http://www.w3.org/2000/svg" viewBox="0 0 16 12"><g clip-path="url(#CM - Cameroon__a)"><mask id="CM - Cameroon__b" style="mask-type:alpha" maskUnits="userSpaceOnUse" x="0" y="0" width="16" height="12"><path fill="#fff" d="M0 0h16v12H0z"/></mask><g mask="url(#CM - Cameroon__b)" fill-rule="evenodd" clip-rule="evenodd"><path d="M5 0h6v12H5V0Z" fill="#E11C1B"/><path d="m8.038 7.245-1.743 1.21.557-2.071-1.28-1.323 1.733-.072.733-2.047.733 2.047h1.73L9.223 6.384l.639 1.948-1.825-1.087Z" fill="#FECA00"/><path d="M11 0h5v12h-5V0Z" fill="#FBCD17"/><path d="M0 0h5v12H0V0Z" fill="#0B9E7A"/></g><path fill="url(#CM - Cameroon__c)" style="mix-blend-mode:overlay" d="M0 0h16v12H0z"/></g><defs><linearGradient id="CM - Cameroon__c" x1="8" y1="0" x2="8" y2="12" gradientUnits="userSpaceOnUse"><stop stop-color="#fff" stop-opacity=".7"/><stop offset="1" stop-opacity=".3"/></linearGradient><clipPath id="CM - Cameroon__a"><rect width="16" height="12" rx="1" fill="#fff"/></clipPath></defs></svg>