<svg fill="none" xmlns="http://www.w3.org/2000/svg" viewBox="0 0 16 12"><g clip-path="url(#CN - China__a)"><mask id="CN - China__b" style="mask-type:alpha" maskUnits="userSpaceOnUse" x="0" y="0" width="16" height="12"><path fill="#fff" d="M0 0h16v12H0z"/></mask><g mask="url(#CN - China__b)" fill-rule="evenodd" clip-rule="evenodd"><path d="M0 0h16v12H0V0Z" fill="#E31D1C"/><path d="M3.557 4.878 1.61 6.403l.744-2.307-1.299-1.2 1.758-.065.744-1.857.744 1.857h1.754L4.76 4.096l.59 2.307-1.793-1.525Zm3.951-1.792-.817.493.187-.962-.68-.72.92-.04.39-.898.39.899h.92l-.68.759.205.962-.835-.493Z" fill="#FECA00"/><path d="m8.508 5.086-.817.493.187-.962-.68-.72.92-.04.39-.898.39.899h.92l-.68.759.205.962-.835-.493Z" fill="#FECA00"/><path d="m7.508 7.086-.817.493.187-.962-.68-.72.92-.04.39-.898.39.899h.92l-.68.759.205.962-.835-.493Z" fill="#FECA00"/><path d="m5.508 8.086-.817.493.187-.962-.68-.72.92-.04.39-.898.39.899h.92l-.68.759.205.962-.835-.493Z" fill="#FECA00"/></g><path fill="url(#CN - China__c)" style="mix-blend-mode:overlay" d="M0 0h16v12H0z"/></g><defs><linearGradient id="CN - China__c" x1="8" y1="0" x2="8" y2="12" gradientUnits="userSpaceOnUse"><stop stop-color="#fff" stop-opacity=".7"/><stop offset="1" stop-opacity=".3"/></linearGradient><clipPath id="CN - China__a"><rect width="16" height="12" rx="1" fill="#fff"/></clipPath></defs></svg>