<svg fill="none" xmlns="http://www.w3.org/2000/svg" viewBox="0 0 16 12"><g clip-path="url(#CV - Cabo Verde__a)"><mask id="CV - Cabo Verde__b" style="mask-type:alpha" maskUnits="userSpaceOnUse" x="0" y="0" width="16" height="12"><path fill="#fff" d="M0 0h16v12H0z"/></mask><g mask="url(#CV - Cabo Verde__b)"><path fill-rule="evenodd" clip-rule="evenodd" d="M0 0v12h16V0H0Z" fill="#4141DB"/><mask id="CV - Cabo Verde__c" style="mask-type:alpha" maskUnits="userSpaceOnUse" x="0" y="0" width="16" height="12"><path fill-rule="evenodd" clip-rule="evenodd" d="M0 0v12h16V0H0Z" fill="#fff"/></mask><g mask="url(#CV - Cabo Verde__c)"><path d="M0 6.5h-.5v2h17v-2H0Z" fill="#F90000" stroke="#F7FCFF"/><path clip-rule="evenodd" d="M5.5 11a3.5 3.5 0 1 0 0-7 3.5 3.5 0 0 0 0 7Z" stroke="#FFDE00"/></g></g><path fill="url(#CV - Cabo Verde__d)" style="mix-blend-mode:overlay" d="M0 0h16v12H0z"/></g><defs><linearGradient id="CV - Cabo Verde__d" x1="8" y1="0" x2="8" y2="12" gradientUnits="userSpaceOnUse"><stop stop-color="#fff" stop-opacity=".7"/><stop offset="1" stop-opacity=".3"/></linearGradient><clipPath id="CV - Cabo Verde__a"><rect width="16" height="12" rx="1" fill="#fff"/></clipPath></defs></svg>