<svg fill="none" xmlns="http://www.w3.org/2000/svg" viewBox="0 0 16 12"><g clip-path="url(#CW - Curaçao__a)"><mask id="CW - Curaçao__b" style="mask-type:alpha" maskUnits="userSpaceOnUse" x="0" y="0" width="16" height="12"><path fill="#fff" d="M0 0h16v12H0z"/></mask><g mask="url(#CW - Curaçao__b)"><path fill-rule="evenodd" clip-rule="evenodd" d="M0 0v12h16V0H0Z" fill="#2E42A5"/><mask id="CW - Curaçao__c" style="mask-type:alpha" maskUnits="userSpaceOnUse" x="0" y="0" width="16" height="12"><path fill-rule="evenodd" clip-rule="evenodd" d="M0 0v12h16V0H0Z" fill="#fff"/></mask><g mask="url(#CW - Curaçao__c)" fill-rule="evenodd" clip-rule="evenodd"><path d="m2.127 3.075-.994.524.48-.934L1 1.982l.762-.029L2.127 1l.28.953.89.029-.641.683.407.934-.936-.524Zm3.549 2.463-1.227.514.481-1.288L3.863 3.9h1.279l.534-1.394.408 1.394h1.28l-.91.864.452 1.288-1.23-.514Z" fill="#F7FCFF"/><path d="M0 7v2h16V7H0Z" fill="#F9E813"/></g></g><path fill="url(#CW - Curaçao__d)" style="mix-blend-mode:overlay" d="M0 0h16v12H0z"/></g><defs><linearGradient id="CW - Curaçao__d" x1="8" y1="0" x2="8" y2="12" gradientUnits="userSpaceOnUse"><stop stop-color="#fff" stop-opacity=".7"/><stop offset="1" stop-opacity=".3"/></linearGradient><clipPath id="CW - Curaçao__a"><rect width="16" height="12" rx="1" fill="#fff"/></clipPath></defs></svg>