<svg fill="none" xmlns="http://www.w3.org/2000/svg" viewBox="0 0 16 12"><g clip-path="url(#DJ - Djibouti__a)"><mask id="DJ - Djibouti__b" style="mask-type:alpha" maskUnits="userSpaceOnUse" x="0" y="0" width="16" height="12"><path fill="#fff" d="M0 0h16v12H0z"/></mask><g mask="url(#DJ - Djibouti__b)"><path fill-rule="evenodd" clip-rule="evenodd" d="M0 0v12h16V0H0Z" fill="#73BE4A"/><mask id="DJ - Djibouti__c" style="mask-type:alpha" maskUnits="userSpaceOnUse" x="0" y="0" width="16" height="12"><path fill-rule="evenodd" clip-rule="evenodd" d="M0 0v12h16V0H0Z" fill="#fff"/></mask><g mask="url(#DJ - Djibouti__c)"><path fill-rule="evenodd" clip-rule="evenodd" d="M0-1v7h16v-7H0Z" fill="#69F"/></g><path fill-rule="evenodd" clip-rule="evenodd" d="M0 0v12l9-6-9-6Z" fill="#fff"/><mask id="DJ - Djibouti__d" style="mask-type:alpha" maskUnits="userSpaceOnUse" x="0" y="0" width="9" height="12"><path fill-rule="evenodd" clip-rule="evenodd" d="M0 0v12l9-6-9-6Z" fill="#fff"/></mask><g mask="url(#DJ - Djibouti__d)"><path fill-rule="evenodd" clip-rule="evenodd" d="M3.501 6.947 2.254 7.7l.285-1.47L1.5 5.132l1.406-.06.595-1.371.595 1.372H5.5L4.464 6.23l.312 1.47L3.5 6.947Z" fill="#E31D1C"/></g></g><path fill="url(#DJ - Djibouti__e)" style="mix-blend-mode:overlay" d="M0 0h16v12H0z"/></g><defs><linearGradient id="DJ - Djibouti__e" x1="8" y1="0" x2="8" y2="12" gradientUnits="userSpaceOnUse"><stop stop-color="#fff" stop-opacity=".7"/><stop offset="1" stop-opacity=".3"/></linearGradient><clipPath id="DJ - Djibouti__a"><rect width="16" height="12" rx="1" fill="#fff"/></clipPath></defs></svg>