<svg fill="none" xmlns="http://www.w3.org/2000/svg" viewBox="0 0 16 12"><g clip-path="url(#DO - Dominican Republic__a)"><mask id="DO - Dominican Republic__b" style="mask-type:alpha" maskUnits="userSpaceOnUse" x="0" y="0" width="16" height="12"><path fill="#fff" d="M0 0h16v12H0z"/></mask><g mask="url(#DO - Dominican Republic__b)"><path fill-rule="evenodd" clip-rule="evenodd" d="M0 0v12h16V0H0Z" fill="#C51918"/><mask id="DO - Dominican Republic__c" style="mask-type:alpha" maskUnits="userSpaceOnUse" x="0" y="0" width="16" height="12"><path fill-rule="evenodd" clip-rule="evenodd" d="M0 0v12h16V0H0Z" fill="#fff"/></mask><g mask="url(#DO - Dominican Republic__c)"><path fill-rule="evenodd" clip-rule="evenodd" d="M7 0h2v5h7v2H9v5H7V7H0V5h7V0Z" fill="#F7FCFF"/><path fill="#4257BF" d="M0 0h7v5H0zm9 7h7v5H9z"/><path d="m6.818 5.555.498.048c-.085.89.026 1.265.206 1.265v.5c-.623 0-.815-.65-.704-1.813Zm2.395 0-.497.048c.085.89-.026 1.265-.206 1.265v.5c.622 0 .815-.65.703-1.813Z" fill="#309404"/><path fill="#003994" d="M7.364 5.346h.473v.738h-.473zm.726.877h.474v.375c0 .2-.163.364-.364.364h-.11v-.739Z"/><path fill="#DE2110" d="M8.055 5.3h.473v.738h-.473zm-.691.923h.472v.739h-.109a.364.364 0 0 1-.363-.364v-.375Z"/><path d="m7.167 5.305-.334-.372c.353-.318.721-.483 1.1-.483.38 0 .747.165 1.1.483l-.334.372c-.267-.241-.521-.355-.766-.355-.244 0-.498.114-.766.355Z" fill="#00319C"/><path d="m7.204 7.797-.335-.372c.353-.317.721-.483 1.1-.483.38 0 .748.166 1.1.483l-.334.372c-.267-.24-.521-.355-.766-.355-.244 0-.498.114-.765.355Z" fill="#DE2110"/></g></g><path fill="url(#DO - Dominican Republic__d)" style="mix-blend-mode:overlay" d="M0 0h16v12H0z"/></g><defs><linearGradient id="DO - Dominican Republic__d" x1="8" y1="0" x2="8" y2="12" gradientUnits="userSpaceOnUse"><stop stop-color="#fff" stop-opacity=".7"/><stop offset="1" stop-opacity=".3"/></linearGradient><clipPath id="DO - Dominican Republic__a"><rect width="16" height="12" rx="1" fill="#fff"/></clipPath></defs></svg>