<svg fill="none" xmlns="http://www.w3.org/2000/svg" viewBox="0 0 16 12"><g clip-path="url(#EC - Ecuador__a)"><mask id="EC - Ecuador__b" style="mask-type:alpha" maskUnits="userSpaceOnUse" x="0" y="0" width="16" height="12"><path fill="#fff" d="M0 0h16v12H0z"/></mask><g mask="url(#EC - Ecuador__b)"><path fill-rule="evenodd" clip-rule="evenodd" d="M0 0v12h16V0H0Z" fill="#2E42A5"/><mask id="EC - Ecuador__c" style="mask-type:alpha" maskUnits="userSpaceOnUse" x="0" y="0" width="16" height="12"><path fill-rule="evenodd" clip-rule="evenodd" d="M0 0v12h16V0H0Z" fill="#fff"/></mask><g mask="url(#EC - Ecuador__c)"><path fill-rule="evenodd" clip-rule="evenodd" d="M0 0v6h16V0H0Z" fill="#FECA00"/><path fill-rule="evenodd" clip-rule="evenodd" d="M0 9v3h16V9H0Z" fill="#E31D1C"/><path fill-rule="evenodd" clip-rule="evenodd" d="M4.606 2.896c-.06-.136 2.256-.823 2.43-.823.173 0 .392.411.392.411l1.408.114s-.166-.525 0-.525c.167 0 2.716.886 2.716.886s-3.187.384-3.187.47c0 .087.209.562.209.562l-.59.193s.035-.573-.061-.573-.381.685-.381.685l-.28-.867s-2.595-.397-2.656-.533Z" fill="#7B2900"/><path d="m4.616 5.009.63.15c-.659 2.759-.05 4.082 1.828 4.205l-.042.646c-2.353-.154-3.157-1.9-2.416-5.001Z" fill="#FECA00"/><path d="m5 4.637.64.1c-.451 2.887-.09 4.192.924 4.156l.023.648C4.967 9.598 4.492 7.883 5 4.637Z" fill="#07138E"/><path d="m5.648 4.372.64.1c-.451 2.887-.09 4.192.925 4.156l.022.648c-1.62.057-2.095-1.657-1.587-4.904Z" fill="#E10001"/><path d="m6.851 9.637.645-.063c.053.546.013 1.017-.125 1.413l-.612-.214c.104-.299.137-.678.092-1.136Z" fill="#07138E"/><path d="M10.75 5.084S11.783 9.731 8.6 9.65" stroke="#FECA00" stroke-width=".648"/><path d="m10.681 4.637-.64.1c.451 2.887.09 4.192-.924 4.156l-.023.648c1.62.057 2.095-1.658 1.587-4.904Z" fill="#07138E"/><path d="m10.033 4.372-.64.1c.451 2.887.09 4.192-.924 4.156l-.023.648c1.62.057 2.095-1.657 1.587-4.904Z" fill="#E10001"/><path d="m8.704 9.64-.644-.07c-.054.5-.013.931.13 1.295l.603-.236c-.1-.258-.132-.587-.089-.989Z" fill="#07138E"/><path fill-rule="evenodd" clip-rule="evenodd" d="M6.933 8.75h1.945v.926H6.933V8.75Z" fill="#908F89"/><path d="M7.906 9c.548 0 1.021-.309 1.348-.763.327-.454.522-1.07.522-1.737 0-.668-.195-1.283-.522-1.737C8.927 4.309 8.454 4 7.906 4c-.549 0-1.022.309-1.35.763-.326.454-.52 1.07-.52 1.737 0 .668.194 1.283.52 1.737.328.454.801.763 1.35.763Z" stroke="#FEE901" stroke-width=".5"/><mask id="EC - Ecuador__d" style="mask-type:alpha" maskUnits="userSpaceOnUse" x="5" y="3" width="6" height="7"><path d="M7.906 9c.548 0 1.021-.309 1.348-.763.327-.454.522-1.07.522-1.737 0-.668-.195-1.283-.522-1.737C8.927 4.309 8.454 4 7.906 4c-.549 0-1.022.309-1.35.763-.326.454-.52 1.07-.52 1.737 0 .668.194 1.283.52 1.737.328.454.801.763 1.35.763Z" fill="#fff" stroke="#fff" stroke-width=".5"/></mask><g mask="url(#EC - Ecuador__d)" fill-rule="evenodd" clip-rule="evenodd"><path d="M9.079 7.703s-.788-.43-1.014-.582c-.226-.153-.095-.494-.485-.403-.39.092-.702.25-.702.685 0 .435-.306.693-.41.396-.104-.297-.594-1.687 0-1.687s1.983.312 2.392.312c.409 0 .647.212.647.596a.73.73 0 0 1-.428.683Z" fill="#8DDD61"/><path d="M7.906 5.441a.328.328 0 0 0 .324-.33.328.328 0 0 0-.324-.332.328.328 0 0 0-.325.331c0 .183.146.331.325.331Z" fill="#FEE901"/><path d="M6.835 5.47s.377-.09.898.26c.52.351 1.783.551 1.783.276v.536s-2.802-.174-2.952 0c-.15.175-.165-.974 0-1.072.165-.097.27 0 .27 0Z" fill="#F7FCFF"/></g></g></g><path fill="url(#EC - Ecuador__e)" style="mix-blend-mode:overlay" d="M0 0h16v12H0z"/></g><defs><linearGradient id="EC - Ecuador__e" x1="8" y1="0" x2="8" y2="12" gradientUnits="userSpaceOnUse"><stop stop-color="#fff" stop-opacity=".7"/><stop offset="1" stop-opacity=".3"/></linearGradient><clipPath id="EC - Ecuador__a"><rect width="16" height="12" rx="1" fill="#fff"/></clipPath></defs></svg>