<svg fill="none" xmlns="http://www.w3.org/2000/svg" viewBox="0 0 16 12"><g clip-path="url(#EH - Western Sahara__a)"><mask id="EH - Western Sahara__b" style="mask-type:alpha" maskUnits="userSpaceOnUse" x="0" y="0" width="16" height="12"><path fill="#fff" d="M0 0h16v12H0z"/></mask><g mask="url(#EH - Western Sahara__b)" fill-rule="evenodd" clip-rule="evenodd"><path d="M0 0h16v12H0V0Z" fill="#F7FCFF"/><path d="M0 0v4h16V0H0Z" fill="#272727"/><path d="M0 8v4h16V8H0Z" fill="#5EAA22"/><path d="m0 0 8 6-8 6V0Zm10.844 7.739S9.707 7.05 9.707 5.915c0-1.136 1.137-1.733 1.137-1.733-.51-.323-2.274.138-2.274 1.77 0 1.633 1.748 1.934 2.274 1.787Zm.92-2.083-.662-.62.229.792-.64.303.786.256.342.858.15-.794.776.172-.588-.575.2-.612-.593.22Z" fill="#E31D1C"/></g><path fill="url(#EH - Western Sahara__c)" style="mix-blend-mode:overlay" d="M0 0h16v12H0z"/></g><defs><linearGradient id="EH - Western Sahara__c" x1="8" y1="0" x2="8" y2="12" gradientUnits="userSpaceOnUse"><stop stop-color="#fff" stop-opacity=".7"/><stop offset="1" stop-opacity=".3"/></linearGradient><clipPath id="EH - Western Sahara__a"><rect width="16" height="12" rx="1" fill="#fff"/></clipPath></defs></svg>