<svg fill="none" xmlns="http://www.w3.org/2000/svg" viewBox="0 0 16 12"><g clip-path="url(#ER - Eritrea__a)"><mask id="ER - Eritrea__b" style="mask-type:alpha" maskUnits="userSpaceOnUse" x="0" y="0" width="17" height="12"><path fill="#fff" d="M0 0h17v12H0z"/></mask><g mask="url(#ER - Eritrea__b)" fill-rule="evenodd" clip-rule="evenodd"><path d="M0 0v6h16V0H0Z" fill="#43B764"/><path d="M0 6v6h16V6H0Z" fill="#B4D7F4"/><path d="m0 0 16.5 6L0 12V0Z" fill="#BE0027"/><path d="m4.557 8.684-.477.01a4.742 4.742 0 0 1-.096-.128 3.157 3.157 0 0 1-.355-1.458v.129c-.002.582-.002.828.355 1.33.102.197.225.39.37.58l.616-.473-.413.01Z" fill="#F3E294"/><path d="M1 6.25a3.25 3.25 0 1 0 6.5 0 3.25 3.25 0 0 0-6.5 0Zm5.5 0a2.25 2.25 0 1 1-4.5 0 2.25 2.25 0 0 1 4.5 0Z" fill="#F3E294"/></g><path fill="url(#ER - Eritrea__c)" style="mix-blend-mode:overlay" d="M0 0h16v12H0z"/></g><defs><linearGradient id="ER - Eritrea__c" x1="8" y1="0" x2="8" y2="12" gradientUnits="userSpaceOnUse"><stop stop-color="#fff" stop-opacity=".7"/><stop offset="1" stop-opacity=".3"/></linearGradient><clipPath id="ER - Eritrea__a"><rect width="16" height="12" rx="1" fill="#fff"/></clipPath></defs></svg>