<svg fill="none" xmlns="http://www.w3.org/2000/svg" viewBox="0 0 16 12"><g clip-path="url(#EUROPE__a)"><mask id="EUROPE__b" style="mask-type:alpha" maskUnits="userSpaceOnUse" x="0" y="0" width="16" height="12"><path fill="#fff" d="M0 0h16v12H0z"/></mask><g mask="url(#EUROPE__b)"><path fill-rule="evenodd" clip-rule="evenodd" d="M0 0v12h16V0H0Z" fill="#F7FCFF"/><mask id="EUROPE__c" style="mask-type:alpha" maskUnits="userSpaceOnUse" x="0" y="0" width="16" height="12"><path fill-rule="evenodd" clip-rule="evenodd" d="M0 0v12h16V0H0Z" fill="#fff"/></mask><g mask="url(#EUROPE__c)" fill-rule="evenodd" clip-rule="evenodd"><path d="M0 0v12h16V0H0Z" fill="#3D58DB"/><path d="M7.412 2.423 8 2.113l.588.31-.112-.655.475-.511h-.657L8 .614l-.294.643H7.05l.475.511-.112.655Zm0 8.684L8 10.798l.588.31-.112-.655.475-.512h-.657L8 9.298l-.294.643H7.05l.475.512-.112.654ZM2.786 6.81l.113-.654-.476-.512h.657L3.374 5l.294.643h.657l-.475.512.112.654-.588-.309-.588.309Zm1.082 1.416-.113.655.588-.31.588.31-.112-.655.475-.511h-.657l-.294-.643-.294.643h-.657l.476.511Zm7.794.346-.587.309.112-.655-.476-.511h.658l.293-.643.294.643h.658l-.476.511.112.655-.588-.31ZM3.869 4.03l-.113.654.588-.31.588.31-.112-.655.475-.511h-.657l-.294-.643-.294.643h-.657l.476.511Zm7.794.345-.587.309.112-.655-.476-.511h.658l.293-.643.294.643h.658l-.476.511.112.655-.588-.31ZM5.329 9.89l-.112.655.588-.31.587.31-.112-.655.476-.511h-.657l-.294-.644-.294.644h-.657l.475.511Zm4.334.655.112-.655-.475-.51h.657l.294-.644.294.644h.657l-.476.511.113.655-.588-.31-.588.31ZM5.328 2.338l-.112.654.588-.309.587.31-.112-.655.476-.512h-.657l-.294-.643-.294.643h-.657l.475.512Zm4.334.654.112-.654-.475-.512h.657l.294-.643.294.643h.657l-.476.512.113.654-.588-.309-.588.31Zm2.45 3.103L12 6.75l.588-.31.587.31-.112-.655.476-.51h-.657l-.294-.644-.294.643h-.658l.476.511Z" fill="#FFD018"/></g></g><path fill="url(#EUROPE__d)" style="mix-blend-mode:overlay" d="M0 0h16v12H0z"/></g><defs><linearGradient id="EUROPE__d" x1="8" y1="0" x2="8" y2="12" gradientUnits="userSpaceOnUse"><stop stop-color="#fff" stop-opacity=".7"/><stop offset="1" stop-opacity=".3"/></linearGradient><clipPath id="EUROPE__a"><rect width="16" height="12" rx="1" fill="#fff"/></clipPath></defs></svg>