<svg fill="none" xmlns="http://www.w3.org/2000/svg" viewBox="0 0 16 12"><g clip-path="url(#GD - Grenada__a)"><mask id="GD - Grenada__b" style="mask-type:alpha" maskUnits="userSpaceOnUse" x="0" y="0" width="16" height="12"><path fill="#fff" d="M0 0h16v12H0z"/></mask><g mask="url(#GD - Grenada__b)"><path fill-rule="evenodd" clip-rule="evenodd" d="M0 0h16v11a1 1 0 0 1-1 1H1a1 1 0 0 1-1-1V0Z" fill="#C51918"/><path fill-rule="evenodd" clip-rule="evenodd" d="M3 3h10v6H3V3Z" fill="#FECA00"/><mask id="GD - Grenada__c" style="mask-type:alpha" maskUnits="userSpaceOnUse" x="3" y="3" width="10" height="6"><path fill-rule="evenodd" clip-rule="evenodd" d="M3 3h10v6H3V3Z" fill="#fff"/></mask><g mask="url(#GD - Grenada__c)" fill-rule="evenodd" clip-rule="evenodd"><path d="m3 3 5 3-5 3V3Zm10 0L8 6l5 3V3Z" fill="#23875F"/><path d="M8 8a2 2 0 1 0 0-4 2 2 0 0 0 0 4Z" fill="#C51918"/><path d="m7.965 6.657-1.036.718.331-1.23-.76-.786 1.03-.043.435-1.216.435 1.216h1.028l-.759.829.38 1.157-1.084-.645Z" fill="#FECA00"/></g><path fill-rule="evenodd" clip-rule="evenodd" d="m4.388 2.221.566-.35.593.315-.208-.566.415-.405h-.562L4.954.621l-.238.594-.562.021.415.384-.18.601Zm3 0 .566-.35.593.315-.208-.566.415-.405h-.562L7.954.621l-.238.594-.562.021.415.384-.18.601Zm3.566-.35-.566.35.181-.601-.415-.384.562-.02.238-.595.238.594h.562l-.415.405.208.566-.593-.316Zm-6.566 9.213.566-.351.592.315-.207-.565.414-.405h-.561l-.238-.594-.238.594-.563.02.416.385-.181.6Zm3.566-.351-.566.35.18-.6-.415-.384.563-.021.238-.594.238.594h.561l-.414.405.207.565-.592-.315Zm2.434.35.566-.35.592.315-.207-.565.414-.405h-.561l-.238-.594-.238.594-.563.02.416.385-.181.6Z" fill="#FECA00"/><path fill-rule="evenodd" clip-rule="evenodd" d="M4.317 6.386s.27.24.416.321c.05-.191-.062-.626-.062-.626-.032-.103-.379-.29-.379-.29s-.097.328.025.595Z" fill="#C51918"/><path fill-rule="evenodd" clip-rule="evenodd" d="M4.598 6.965s-.692-.323-.762-.78C3.766 5.728 3.915 5 3.915 5s1.123.255 1.2.803c.076.548-.178.892-.178.892s-.26-.668-.505-.742c0 0 0 .662.166 1.012Z" fill="#FECA00"/></g><path fill="url(#GD - Grenada__d)" style="mix-blend-mode:overlay" d="M0 0h16v12H0z"/></g><defs><linearGradient id="GD - Grenada__d" x1="8" y1="0" x2="8" y2="12" gradientUnits="userSpaceOnUse"><stop stop-color="#fff" stop-opacity=".7"/><stop offset="1" stop-opacity=".3"/></linearGradient><clipPath id="GD - Grenada__a"><rect width="16" height="12" rx="1" fill="#fff"/></clipPath></defs></svg>