<svg fill="none" xmlns="http://www.w3.org/2000/svg" viewBox="0 0 16 12"><g clip-path="url(#GE - Georgia__a)"><mask id="GE - Georgia__b" style="mask-type:alpha" maskUnits="userSpaceOnUse" x="0" y="0" width="16" height="12"><path fill="#fff" d="M0 0h16v12H0z"/></mask><g mask="url(#GE - Georgia__b)"><path fill-rule="evenodd" clip-rule="evenodd" d="M0 0v12h16V0H0Z" fill="#F7FCFF"/><mask id="GE - Georgia__c" style="mask-type:alpha" maskUnits="userSpaceOnUse" x="0" y="0" width="16" height="12"><path fill-rule="evenodd" clip-rule="evenodd" d="M0 0v12h16V0H0Z" fill="#fff"/></mask><g mask="url(#GE - Georgia__c)" fill-rule="evenodd" clip-rule="evenodd" fill="#E31D1C"><path d="M7 0h2v5h7v2H9v5H7V7H0V5h7V0Z"/><path d="M5 8.611 6.1 8.5v1S5 9.431 5 9.451c0 .02.1 1.049.1 1.049h-1l.08-1H3.1v-1l1.08.111L4.1 7.5h1L5 8.611Zm0-6L6.1 2.5v1S5 3.431 5 3.451c0 .02.1 1.049.1 1.049h-1l.08-1H3.1v-1l1.08.111L4.1 1.5h1L5 2.611Zm7 0 1.1-.111v1S12 3.431 12 3.451c0 .02.1 1.049.1 1.049h-1l.08-1H10.1v-1l1.08.111L11.1 1.5h1L12 2.611Zm0 6 1.1-.111v1S12 9.431 12 9.451c0 .02.1 1.049.1 1.049h-1l.08-1H10.1v-1l1.08.111L11.1 7.5h1L12 8.611Z"/></g></g><path fill="url(#GE - Georgia__d)" style="mix-blend-mode:overlay" d="M0 0h16v12H0z"/></g><defs><linearGradient id="GE - Georgia__d" x1="8" y1="0" x2="8" y2="12" gradientUnits="userSpaceOnUse"><stop stop-color="#fff" stop-opacity=".7"/><stop offset="1" stop-opacity=".3"/></linearGradient><clipPath id="GE - Georgia__a"><rect width="16" height="12" rx="1" fill="#fff"/></clipPath></defs></svg>