<svg fill="none" xmlns="http://www.w3.org/2000/svg" viewBox="0 0 16 12"><g clip-path="url(#GG - Guernsey__a)"><mask id="GG - Guernsey__b" style="mask-type:alpha" maskUnits="userSpaceOnUse" x="0" y="0" width="16" height="12"><path fill="#fff" d="M0 0h16v12H0z"/></mask><g mask="url(#GG - Guernsey__b)"><path fill-rule="evenodd" clip-rule="evenodd" d="M0 0v12h16V0H0Z" fill="#F7FCFF"/><mask id="GG - Guernsey__c" style="mask-type:alpha" maskUnits="userSpaceOnUse" x="0" y="0" width="16" height="12"><path fill-rule="evenodd" clip-rule="evenodd" d="M0 0v12h16V0H0Z" fill="#fff"/></mask><g mask="url(#GG - Guernsey__c)" fill-rule="evenodd" clip-rule="evenodd"><path d="M6 0h4v4h6v4h-6v4H6V8H0V4h6V0Z" fill="#E31D1C"/><path d="M6.503 1.523 7 2.4V5H3.433v-.029l-.88-.498v2.98L3.385 7H7v2.525l-.497.878h2.98l-.479-.88H9V7h3.6l.833.453v-2.98l-.88.498V5H9V2.403h.004l.479-.88h-2.98Z" fill="#FECA00"/></g></g><path fill="url(#GG - Guernsey__d)" style="mix-blend-mode:overlay" d="M0 0h16v12H0z"/></g><defs><linearGradient id="GG - Guernsey__d" x1="8" y1="0" x2="8" y2="12" gradientUnits="userSpaceOnUse"><stop stop-color="#fff" stop-opacity=".7"/><stop offset="1" stop-opacity=".3"/></linearGradient><clipPath id="GG - Guernsey__a"><rect width="16" height="12" rx="1" fill="#fff"/></clipPath></defs></svg>