<svg fill="none" xmlns="http://www.w3.org/2000/svg" viewBox="0 0 16 12"><g clip-path="url(#GH - Ghana__a)"><mask id="GH - Ghana__b" style="mask-type:alpha" maskUnits="userSpaceOnUse" x="0" y="0" width="16" height="12"><path fill="#fff" d="M0 0h16v12H0z"/></mask><g mask="url(#GH - Ghana__b)" fill-rule="evenodd" clip-rule="evenodd"><path d="M0 8h16v4H0V8Z" fill="#5EAA22"/><path d="M0 4h16v4H0V4Z" fill="#FECA00"/><path d="M0 0h16v4H0V0Z" fill="#E11C1B"/><path opacity=".9" d="m8.038 7.245-1.743 1.21.557-2.071-1.28-1.323 1.733-.072.733-2.047.733 2.047h1.73L9.223 6.384l.639 1.948-1.825-1.087Z" fill="#1D1D1D"/></g><path fill="url(#GH - Ghana__c)" style="mix-blend-mode:overlay" d="M0 0h16v12H0z"/></g><defs><linearGradient id="GH - Ghana__c" x1="8" y1="0" x2="8" y2="12" gradientUnits="userSpaceOnUse"><stop stop-color="#fff" stop-opacity=".7"/><stop offset="1" stop-opacity=".3"/></linearGradient><clipPath id="GH - Ghana__a"><rect width="16" height="12" rx="1" fill="#fff"/></clipPath></defs></svg>