<svg fill="none" xmlns="http://www.w3.org/2000/svg" viewBox="0 0 16 12"><g clip-path="url(#GW - Guinea-Bissau__a)"><mask id="GW - Guinea-Bissau__b" style="mask-type:alpha" maskUnits="userSpaceOnUse" x="0" y="0" width="16" height="12"><path fill="#fff" d="M0 0h16v12H0z"/></mask><g mask="url(#GW - Guinea-Bissau__b)" fill-rule="evenodd" clip-rule="evenodd"><path d="M8 0h8v6H8V0Z" fill="#FBCD17"/><path d="M8 6h8v6H8V6Z" fill="#0B9E7A"/><path d="M0 0h8v12H0V0Z" fill="#E11C1B"/><path d="M4.465 7.303 2.723 8.512l.556-2.07L2 5.119l1.732-.072L4.465 3l.733 2.047h1.73L5.65 6.442l.64 1.948-1.826-1.087Z" fill="#1D1D1D"/></g><path fill="url(#GW - Guinea-Bissau__c)" style="mix-blend-mode:overlay" d="M0 0h16v12H0z"/></g><defs><linearGradient id="GW - Guinea-Bissau__c" x1="8" y1="0" x2="8" y2="12" gradientUnits="userSpaceOnUse"><stop stop-color="#fff" stop-opacity=".7"/><stop offset="1" stop-opacity=".3"/></linearGradient><clipPath id="GW - Guinea-Bissau__a"><rect width="16" height="12" rx="1" fill="#fff"/></clipPath></defs></svg>