<svg fill="none" xmlns="http://www.w3.org/2000/svg" viewBox="0 0 16 12"><g clip-path="url(#HN - Honduras__a)"><mask id="HN - Honduras__b" style="mask-type:alpha" maskUnits="userSpaceOnUse" x="0" y="0" width="16" height="12"><path fill="#fff" d="M0 0h16v12H0z"/></mask><g mask="url(#HN - Honduras__b)"><path fill-rule="evenodd" clip-rule="evenodd" d="M0 0v12h16V0H0Z" fill="#F7FCFF"/><mask id="HN - Honduras__c" style="mask-type:alpha" maskUnits="userSpaceOnUse" x="0" y="0" width="16" height="12"><path fill-rule="evenodd" clip-rule="evenodd" d="M0 0v12h16V0H0Z" fill="#fff"/></mask><g mask="url(#HN - Honduras__c)" fill-rule="evenodd" clip-rule="evenodd" fill="#4564F9"><path d="M0 0v4h16V0H0Zm0 8v4h16V8H0Zm8.409-1.434-.588.309.113-.655-.476-.51h.657l.294-.644.294.643h.657l-.475.511.112.655-.588-.31Zm-3-1-.588.309.113-.655-.476-.51h.657l.294-.644.294.643h.657l-.475.511.112.655-.588-.31Zm0 2-.588.309.113-.655-.476-.51h.657l.294-.644.294.643h.657l-.475.511.112.655-.588-.31Zm6-2-.588.309.113-.655-.476-.51h.657l.294-.644.294.643h.657l-.475.511.112.655-.588-.31Zm0 2-.588.309.113-.655-.476-.51h.657l.294-.644.294.643h.657l-.475.511.112.655-.588-.31Z"/></g></g><path fill="url(#HN - Honduras__d)" style="mix-blend-mode:overlay" d="M0 0h16v12H0z"/></g><defs><linearGradient id="HN - Honduras__d" x1="8" y1="0" x2="8" y2="12" gradientUnits="userSpaceOnUse"><stop stop-color="#fff" stop-opacity=".7"/><stop offset="1" stop-opacity=".3"/></linearGradient><clipPath id="HN - Honduras__a"><rect width="16" height="12" rx="1" fill="#fff"/></clipPath></defs></svg>