<svg fill="none" xmlns="http://www.w3.org/2000/svg" viewBox="0 0 16 12"><g clip-path="url(#IN - India__a)"><mask id="IN - India__b" style="mask-type:alpha" maskUnits="userSpaceOnUse" x="0" y="0" width="16" height="12"><path fill="#fff" d="M0 0h16v12H0z"/></mask><g mask="url(#IN - India__b)"><path fill-rule="evenodd" clip-rule="evenodd" d="M0 0v12h16V0H0Z" fill="#F7FCFF"/><mask id="IN - India__c" style="mask-type:alpha" maskUnits="userSpaceOnUse" x="0" y="0" width="16" height="12"><path fill-rule="evenodd" clip-rule="evenodd" d="M0 0v12h16V0H0Z" fill="#fff"/></mask><g mask="url(#IN - India__c)" fill-rule="evenodd" clip-rule="evenodd"><path d="M0 0v4h16V0H0Z" fill="#FF8C1A"/><path d="M0 8v4h16V8H0Z" fill="#5EAA22"/><path d="M6 6a2 2 0 1 0 4 0 2 2 0 0 0-4 0Zm3.5 0a1.5 1.5 0 1 1-3 0 1.5 1.5 0 0 1 3 0Z" fill="#3D58DB"/><path d="M7.997 6.43 7.58 7.967l.244-1.573-1.006 1.234.864-1.338-1.422.718 1.333-.871-1.59.078 1.572-.254-1.485-.575 1.54.407-1.123-1.13 1.24.999-.565-1.489.727 1.417L7.997 4l.089 1.59.727-1.417-.566 1.489 1.24-.998-1.122 1.13 1.54-.408-1.485.575 1.572.254-1.59-.078 1.332.871-1.421-.718.863 1.338L8.17 6.394l.244 1.573-.417-1.537Z" fill="#3D58DB"/></g></g><path fill="url(#IN - India__d)" style="mix-blend-mode:overlay" d="M0 0h16v12H0z"/></g><defs><linearGradient id="IN - India__d" x1="8" y1="0" x2="8" y2="12" gradientUnits="userSpaceOnUse"><stop stop-color="#fff" stop-opacity=".7"/><stop offset="1" stop-opacity=".3"/></linearGradient><clipPath id="IN - India__a"><rect width="16" height="12" rx="1" fill="#fff"/></clipPath></defs></svg>