<svg fill="none" xmlns="http://www.w3.org/2000/svg" viewBox="0 0 16 12"><g clip-path="url(#IR - Iran__a)"><mask id="IR - Iran__b" style="mask-type:alpha" maskUnits="userSpaceOnUse" x="0" y="0" width="16" height="12"><path fill="#fff" d="M0 0h16v12H0z"/></mask><g mask="url(#IR - Iran__b)"><path fill-rule="evenodd" clip-rule="evenodd" d="M0 0v12h16V0H0Z" fill="#F7FCFF"/><mask id="IR - Iran__c" style="mask-type:alpha" maskUnits="userSpaceOnUse" x="0" y="0" width="16" height="12"><path fill-rule="evenodd" clip-rule="evenodd" d="M0 0v12h16V0H0Z" fill="#fff"/></mask><g mask="url(#IR - Iran__c)"><path fill-rule="evenodd" clip-rule="evenodd" d="M0 0v4h16V0H0Z" fill="#5EAA22"/><path fill-rule="evenodd" clip-rule="evenodd" d="M0 8v4h16V8H0Z" fill="#E31D1C"/><path d="M.186 8.683H-.95m-.012.451v-.261h.37v.252h.374v-.252h-.194m.582.25h-.19v-.245h.397v-.2.445h.18v-.445m.203.026v.42H.572m1.566-.441H1m-.011.451v-.261h.37v.252h.374v-.252h-.194m.616.25h-.188v-.245h.397v-.2.445h.18v-.445m.201.026v.42H2.56m1.564-.441H2.987m-.012.451v-.261h.37v.252h.374v-.252h-.194m.581.25h-.188v-.245h.397v-.2.445h.18v-.445m.201.026v.42H4.51m1.565-.441H4.938m-.012.451v-.261h.37v.252h.374v-.252h-.194m.582.25h-.189v-.245h.397v-.2.445h.18v-.445m.202.026v.42H6.46m1.566-.441H6.889m-.012.451v-.261h.37v.252h.374v-.252h-.194m.617.25h-.189v-.245h.397v-.2.445h.18v-.445m.202.026v.42h-.187m1.565-.441H8.875m-.012.451v-.261h.37v.252h.374v-.252h-.194m.617.25h-.19v-.245h.397v-.2.445h.18v-.445m.203.026v.42h-.187m1.565-.441h-1.137m-.011.451v-.261h.37v.252h.374v-.252H11.4m.616.25h-.189v-.245h.397v-.2.445h.18v-.445m.202.026v.42h-.187m1.565-.441h-1.137m-.012.451v-.261h.37v.252h.375v-.252h-.194m.581.25h-.188v-.245h.396v-.2.445h.18v-.445m.202.026v.42h-.186m1.564-.441h-1.137m-.011.451v-.261h.37v.252h.374v-.252h-.194m.686.25h-.189v-.245h.397v-.2.445h.18v-.445M.186 2.583H-.95m-.012.451v-.261h.37v.252h.374v-.252h-.194m.582.25h-.19v-.245h.397v-.2.445h.18v-.446m.203.027v.42H.572m1.566-.441H1m-.011.451v-.261h.37v.252h.374v-.252h-.194m.616.25h-.188v-.245h.397v-.2.445h.18v-.446m.201.027v.42H2.56m1.564-.441H2.987m-.012.451v-.261h.37v.252h.374v-.252h-.194m.581.25h-.188v-.245h.397v-.2.445h.18v-.446m.201.027v.42H4.51m1.565-.441H4.938m-.012.451v-.261h.37v.252h.374v-.252h-.194m.582.25h-.189v-.245h.397v-.2.445h.18v-.446m.202.027v.42H6.46m1.566-.441H6.889m-.012.451v-.261h.37v.252h.374v-.252h-.194m.617.25h-.189v-.245h.397v-.2.445h.18v-.446m.202.027v.42h-.187m1.565-.441H8.875m-.012.451v-.261h.37v.252h.374v-.252h-.194m.617.25h-.19v-.245h.397v-.2.445h.18v-.446m.203.027v.42h-.187m1.565-.441h-1.137m-.011.451v-.261h.37v.252h.374v-.252H11.4m.616.25h-.189v-.245h.397v-.2.445h.18v-.446m.202.027v.42h-.187m1.565-.441h-1.137m-.012.451v-.261h.37v.252h.375v-.252h-.194m.581.25h-.188v-.245h.396v-.2.445h.18v-.446m.202.027v.42h-.186m1.564-.441h-1.137m-.011.451v-.261h.37v.252h.374v-.252h-.194m.686.25h-.189v-.245h.397v-.2.445h.18v-.446" stroke="#F7FCFF" stroke-width=".5"/><path fill-rule="evenodd" clip-rule="evenodd" d="M7.303 4.125s.214.112.432.112c.22 0 .44-.112.44-.112v.15s-.241.112-.454.112c-.213 0-.418-.112-.418-.112v-.15Zm-1.575 1.77c0-.889 1.221-1.47 1.221-1.47s-.706.378-.706 1.433c0 1.055.367 1.512.367 1.512s-.882-.586-.882-1.475Zm4.119-.049c0-.889-1.22-1.421-1.22-1.421s.706.378.706 1.433c0 1.055-.366 1.512-.366 1.512s.88-.635.88-1.524Zm-3.285.243c-.047-.888.692-1.684.692-1.684s-.27.366-.214 1.42c.02.361.162.9.341 1.217v-2.58h.75v2.602c.18-.296.318-.802.338-1.169.055-1.053-.201-1.49-.201-1.49s.738.796.692 1.684c-.028.529-.435 1.088-.76 1.454.158.035.37.078.66.135.007.032-.058.03-.187.028a4.118 4.118 0 0 0-.65.028c-.133.136-.225.216-.225.216l-.037-.047a1.24 1.24 0 0 0-.037.047s-.093-.08-.225-.216a4.118 4.118 0 0 0-.65-.028c-.13.003-.194.004-.188-.028.29-.057.502-.1.66-.135-.325-.366-.732-.925-.76-1.454Z" fill="#E31D1C"/></g></g><path fill="url(#IR - Iran__d)" style="mix-blend-mode:overlay" d="M0 0h16v12H0z"/></g><defs><linearGradient id="IR - Iran__d" x1="8" y1="0" x2="8" y2="12" gradientUnits="userSpaceOnUse"><stop stop-color="#fff" stop-opacity=".7"/><stop offset="1" stop-opacity=".3"/></linearGradient><clipPath id="IR - Iran__a"><rect width="16" height="12" rx="1" fill="#fff"/></clipPath></defs></svg>