<svg fill="none" xmlns="http://www.w3.org/2000/svg" viewBox="0 0 16 12"><g clip-path="url(#KH - Cambodia__a)"><path d="M0 0h16v12H0V0Z" fill="#032EA1"/><path d="M0 3h16v6H0V3Z" fill="#E00025"/><path fill-rule="evenodd" clip-rule="evenodd" d="M5.167 5.52v.03h.945v-.03h1.323v.06h.888v-.06h1.326v.03h.945v-.03h.11v1.306h-5.7V5.52h.163Zm-.163 1.306h-.302v.249h.69v.005h-.996v.426h.996v.004H4.201v.375h7.359V7.51h-1.194v-.004h1.002V7.08h-1.002v-.005h.696v-.249h-.358v.008h-5.7v-.008Zm5.59-1.306v-.84c-.014 0-.024.02-.035.045-.018.037-.04.084-.091.084-.045 0-.042-.054-.015-.096.021-.039.048-.09.012-.189-.027.075-.093.099-.081.054a.243.243 0 0 1 .028-.062c.022-.04.04-.073.008-.157-.015.102-.081.099-.066.039a.405.405 0 0 1 .015-.045c.017-.042.03-.077-.006-.15-.027.111-.06.105-.06.036 0-.102 0-.21-.126-.249 0 0-.009-.09-.057-.09-.045 0-.054.09-.054.09-.126.038-.126.145-.126.242v.007c0 .069-.033.075-.06-.036-.036.073-.023.108-.006.15l.015.045c.015.06-.051.063-.066-.039-.033.084-.014.118.008.157a.24.24 0 0 1 .028.062c.012.045-.054.021-.081-.054-.036.099-.009.15.012.189.024.042.03.096-.015.096-.05 0-.073-.046-.09-.082-.012-.024-.022-.044-.036-.044v.837h.945Zm-2.271 0h-.888v-.105c0-.046-.025-.068-.047-.089-.02-.017-.037-.034-.037-.061 0 0-.012-.09.012-.132.033.12.09.099.09.048 0-.039-.026-.077-.084-.166l-.015-.023c-.024-.033-.009-.138.021-.177.012.09.027.135.066.135.024 0 .042-.015.042-.06a.168.168 0 0 0-.033-.092.325.325 0 0 1-.027-.052.15.15 0 0 1 .033-.159l.007.042c.008.06.012.084.044.084.075-.025.012-.127-.013-.166L7.49 4.54c-.018-.033.03-.102.03-.102.024.081.03.087.06.078.036-.009.03-.06-.012-.102-.027-.03-.024-.069.006-.099.03.057.066.054.069.018L7.618 4.2h.033l-.012-.1h.477l-.012.1h.036l-.027.129c-.006.036.042.045.072-.015.03.03.033.072.006.099-.042.042-.048.093-.012.102.03.009.036 0 .06-.078 0 0 .045.045.03.102l-.004.007c-.024.039-.09.145-.014.167.032 0 .036-.024.044-.084l.007-.042a.15.15 0 0 1 .03.159c-.007.021-.018.039-.028.056-.016.026-.032.051-.032.088 0 .045.021.06.045.06.039 0 .054-.042.066-.135.03.039.045.144.021.18l-.025.037c-.052.076-.077.112-.077.149 0 .051.06.072.09-.048.027.042.015.132.015.132 0 .028-.017.044-.036.062-.022.02-.046.043-.048.088v.105Zm-3.156 0v-.84c.014 0 .024.02.035.045.018.037.04.084.091.084.045 0 .042-.054.015-.096-.021-.039-.048-.09-.012-.189.027.075.093.099.081.054a.245.245 0 0 0-.028-.062c-.022-.04-.04-.073-.008-.157.015.102.081.099.066.039-.004-.017-.01-.031-.015-.045-.017-.042-.03-.077.006-.15.027.111.06.105.06.036 0-.102 0-.21.126-.249 0 0 .009-.09.057-.09.045 0 .054.09.054.09.126.038.126.145.126.242v.007c0 .069.033.075.06-.036.036.073.023.108.006.15l-.015.045c-.015.06.051.063.066-.039.033.084.014.118-.008.157a.24.24 0 0 0-.028.062c-.012.045.054.021.081-.054.036.099.009.15-.012.189-.024.042-.03.096.015.096.05 0 .073-.046.09-.082.012-.024.022-.044.036-.044v.837h-.945ZM7.81 4.093s-.003-.123.069-.126c.069 0 .066.126.066.126H7.81Z" fill="#fff"/><path d="M5.167 5.55h-.015l.015.015V5.55Zm.945 0v.015l.015-.015h-.015Zm1.323.03H7.42l.015.015V5.58Zm.888 0v.015l.015-.015h-.015Zm1.326-.03h-.015l.015.015V5.55Zm.945 0v.015l.015-.015h-.015Zm.11-.03h.015l-.015-.015v.015Zm-5.7 0v-.015l-.015.015h.015Zm-.302 1.306v-.015l-.015.015h.015Zm0 .249h-.015l.015.015v-.015Zm.69 0h.015l-.015-.015v.015Zm0 .005v.015l.015-.015h-.015Zm-.996 0v-.015l-.015.015h.015Zm0 .426h-.015l.015.015v-.015Zm.996 0h.015l-.015-.015v.015Zm0 .004v.015l.015-.015h-.015Zm-1.191 0v-.015l-.015.015h.015Zm0 .375h-.015l.015.015v-.015Zm7.359 0V7.9l.015-.015h-.015Zm0-.375h.015l-.015-.015v.015Zm-1.194 0h-.015l.015.015V7.51Zm0-.004V7.49l-.015.015h.015Zm1.002 0v.015l.015-.015h-.015Zm0-.426h.015l-.015-.015v.015Zm-1.002 0h-.015l.015.015V7.08Zm0-.005V7.06l-.015.015h.015Zm.696 0v.015l.015-.015h-.015Zm0-.249h.015l-.015-.015v.015Zm-.358.008v.015l.015-.015h-.015Zm-5.7 0h-.015l.015.015v-.015Zm5.59-2.154h.015l-.015-.015v.015Zm-.035.045.013.006-.013-.006Zm-.106-.012.013.008-.013-.008Zm.012-.189.014-.005h-.028l.014.005Zm-.081.054.014.004-.014-.004Zm.028-.062-.013-.008.013.008Zm.008-.157.014-.005-.029.003.015.002Zm-.066.039-.014-.004.014.004Zm.015-.045-.014-.005.014.005Zm-.006-.15.013-.007-.028.003.015.004Zm-.186-.213-.015.001.01.013.005-.014Zm-.111 0 .004.014.01-.013-.014-.001Zm-.126.242h.015-.015Zm-.06-.029.015-.004-.028-.003.013.007Zm-.006.15.014-.005-.014.005Zm.015.045.015-.004-.015.004Zm-.066-.039.015-.002-.029-.003.014.005Zm.008.157.013-.008-.013.008Zm.028.062-.015.004.015-.004Zm-.081-.054.014-.005h-.028l.014.005Zm.012.189-.013.007.013-.007Zm-.106.014-.013.006.013-.006Zm-.035-.044v-.015l-.015.015h.015Zm-2.261.643-.01.011.01-.01Zm-.037-.061h.015v-.002l-.015.002Zm.012-.132.014-.004-.027-.003.013.007Zm.006-.118-.012.009.012-.009Zm-.015-.023.013-.008-.013.008Zm.021-.177.015-.002-.027-.007.012.009Zm.075-.017.013-.008-.013.008Zm-.027-.052-.014.005.014-.005Zm.033-.159.015-.002-.026-.009.011.011Zm.007.042-.015.003.015-.003Zm0 0 .014-.002-.014.002Zm.044.084v.016l.005-.002-.005-.014Zm-.013-.166-.013.008.013-.008ZM7.49 4.54l-.013.007.013-.007Zm.03-.102.014-.004-.026-.005.012.009Zm.06.078L7.575 4.5l.004.015Zm-.012-.102-.011.01.011-.01Zm.006-.099.013-.007-.024-.004.011.011Zm.069.018.015.001V4.33l-.015.003ZM7.618 4.2v-.015l-.015.018.015-.003Zm.033 0v.015l.015-.017-.015.002Zm-.012-.1v-.015l-.015.017.015-.002Zm.477 0 .015.002-.015-.017V4.1Zm-.012.1-.015-.002.015.017V4.2Zm.036 0 .015.003-.015-.018V4.2Zm-.027.129-.015-.003.015.003Zm.072-.015.01-.01-.023.003.013.007Zm.006.099-.01-.01.01.01Zm-.012.102.004-.014-.004.014Zm.06-.078.01-.01-.024.006.014.004Zm.03.102.013.008.002-.004-.015-.004Zm-.004.007.012.008-.012-.008Zm-.014.167-.004.015h.004v-.015Zm.044-.084.015.003-.015-.003Zm0 0-.014-.002.014.002Zm0 0 .015.003-.015-.003Zm.007-.042.01-.01-.025.008.015.002Zm.03.159-.014-.006v.001l.014.005Zm-.028.056.013.007-.013-.007Zm.079.013.012-.01-.027.008.015.002Zm.021.18.012.008-.012-.008Zm-.025.037.012.009-.012-.009Zm.013.101.013-.008-.028.004.015.004Zm.015.132-.015-.002v.002h.015Zm-.036.062-.01-.011.01.01Zm-.048.088h-.015.015ZM5.167 4.68v-.015l-.015.015h.015Zm.035.045.014-.007-.014.007Zm.106-.012-.013.007v.001l.013-.008Zm-.012-.189.014-.005h-.028l.014.005Zm.081.054-.015.004.015-.004Zm-.028-.062.013-.008-.013.008Zm-.008-.157.015-.002-.029-.003.014.005Zm.066.039.015-.004-.015.004Zm-.015-.045-.014.006.014-.006Zm.006-.15.015-.004-.028-.003.013.007Zm.186-.213.004.014.01-.013-.014-.001Zm.111 0-.015.001.01.013.005-.014Zm.126.242h-.015.015Zm0 .007h-.015.015Zm.06-.036.013-.007-.028.003.015.004Zm.006.15.014.006-.014-.006Zm-.015.045-.015-.004.015.004Zm.066-.039.014-.005-.029.003.015.002Zm-.008.157-.013-.008.013.008Zm-.028.062.014.004-.014-.004Zm.081-.054.014-.005H5.97l.014.005Zm-.012.189.013.007-.013-.007Zm.106.014-.014-.007.014.007Zm.035-.044h.015l-.015-.015v.015Zm1.767-.716v-.015.015Zm-.069.126h-.015l.015.015v-.015Zm.135 0v.015l.015-.015h-.015ZM5.182 5.55v-.03h-.03v.03h.03Zm.93-.015h-.945v.03h.945v-.03Zm-.015-.015v.03h.03v-.03h-.03Zm1.338-.015H6.112v.03h1.323v-.03Zm.015.075v-.06h-.03v.06h.03Zm.873-.015h-.888v.03h.888v-.03Zm-.015-.045v.06h.03v-.06h-.03Zm1.341-.015H8.323v.03h1.326v-.03Zm.015.045v-.03h-.03v.03h.03Zm.93-.015h-.945v.03h.945v-.03Zm-.015-.015v.03h.03v-.03h-.03Zm.125-.015h-.11v.03h.11v-.03Zm.015 1.321V5.52h-.03v1.306h.03Zm-.015-.015h-5.7v.03h5.7v-.03ZM4.989 5.52v1.306h.03V5.52h-.03Zm.178-.015h-.163v.03h.163v-.03Zm-.163 1.306h-.302v.03h.302v-.03Zm-.317.015v.249h.03v-.249h-.03Zm.015.264h.69v-.03h-.69v.03Zm.675-.015v.005h.03v-.005h-.03Zm.015-.01h-.996v.03h.996v-.03Zm-1.011.015v.426h.03V7.08h-.03Zm.015.44h.996v-.03h-.996v.03Zm.981-.014v.004h.03v-.004h-.03Zm.015-.011H4.201v.03h1.191v-.03Zm-1.206.015v.375h.03V7.51h-.03Zm.015.39h7.359v-.03H4.201v.03Zm7.374-.015V7.51h-.03v.375h.03Zm-.015-.39h-1.194v.03h1.194v-.03Zm-1.179.015v-.004h-.03v.004h.03Zm-.015.01h1.002v-.03h-1.002v.03Zm1.017-.014V7.08h-.03v.426h.03Zm-.015-.441h-1.002v.03h1.002v-.03Zm-.987.015v-.005h-.03v.005h.03Zm-.015.01h.696v-.03h-.696v.03Zm.711-.015v-.249h-.03v.249h.03Zm-.015-.264h-.358v.03h.358v-.03Zm-.343.023v-.008h-.03v.008h.03Zm-5.715.015h5.7v-.03h-5.7v.03Zm-.015-.023v.008h.03v-.008h-.03Zm5.59-2.146v.84h.03v-.84h-.03Zm-.007.051a.223.223 0 0 1 .021-.035l.001-.001v-.03c-.015 0-.025.01-.031.02-.007.009-.012.021-.018.033l.027.013Zm-.104.093c.03 0 .053-.015.07-.033a.284.284 0 0 0 .034-.06l-.027-.013a.235.235 0 0 1-.03.053.059.059 0 0 1-.047.023v.03Zm-.028-.12a.125.125 0 0 0-.021.074c0 .012.004.023.013.032.01.01.022.014.036.014v-.03c-.008 0-.012-.002-.014-.005-.003-.002-.005-.006-.006-.013a.095.095 0 0 1 .018-.055l-.026-.016Zm.01-.175c.018.048.02.083.016.11a.207.207 0 0 1-.026.067l.026.014c.01-.02.024-.044.03-.077a.245.245 0 0 0-.017-.124l-.028.01Zm-.08.045c-.004.013-.004.03.01.038a.03.03 0 0 0 .02.003.054.054 0 0 0 .017-.006.147.147 0 0 0 .062-.08l-.028-.01a.119.119 0 0 1-.048.064.025.025 0 0 1-.008.003c-.002 0-.001 0 0 0 .005.003 0 .006.004-.004l-.03-.008Zm.029-.066a.259.259 0 0 0-.03.066l.03.008a.231.231 0 0 1 .026-.059l-.026-.015Zm.007-.144a.186.186 0 0 1 .016.088.155.155 0 0 1-.023.056l.026.015c.01-.02.022-.04.026-.067a.202.202 0 0 0-.017-.102l-.028.01Zm-.067.03a.062.062 0 0 0 .004.045c.004.006.01.011.016.014a.033.033 0 0 0 .02 0 .062.062 0 0 0 .035-.029.166.166 0 0 0 .02-.063l-.029-.004a.14.14 0 0 1-.016.052c-.007.011-.014.015-.017.016h-.002l-.001-.001c-.002-.003-.004-.01 0-.022l-.03-.008Zm.016-.046a.405.405 0 0 0-.016.046l.03.008a.362.362 0 0 1 .014-.043l-.028-.011Zm-.005-.138a.162.162 0 0 1 .021.079c0 .02-.007.037-.016.059l.028.01c.008-.02.017-.042.018-.068a.19.19 0 0 0-.025-.094l-.026.014Zm-.062.029c0 .018.002.034.007.045a.036.036 0 0 0 .011.015.023.023 0 0 0 .022.004.036.036 0 0 0 .016-.012.096.096 0 0 0 .012-.02.33.33 0 0 0 .022-.064l-.03-.008a.299.299 0 0 1-.02.06.066.066 0 0 1-.007.013l-.003.002.006.001-.002-.003a.093.093 0 0 1-.004-.033h-.03Zm-.115-.235a.141.141 0 0 1 .1.092.443.443 0 0 1 .015.143h.03c0-.05 0-.106-.017-.153a.17.17 0 0 0-.12-.11l-.008.028Zm-.053-.089c.007 0 .013.003.018.01.006.006.01.015.014.025a.179.179 0 0 1 .01.04v.001l.015-.001.015-.002v-.004a.414.414 0 0 0-.011-.044.112.112 0 0 0-.02-.036.053.053 0 0 0-.041-.019v.03Zm-.054.075.015.001v-.003l.002-.01a.187.187 0 0 1 .007-.028.082.082 0 0 1 .014-.026c.005-.006.01-.009.016-.009v-.03a.05.05 0 0 0-.039.02.113.113 0 0 0-.019.035.219.219 0 0 0-.009.033l-.001.011v.004l.014.002Zm-.111.242c0-.049 0-.097.015-.138.014-.04.042-.072.1-.09l-.008-.028a.17.17 0 0 0-.12.108c-.017.047-.017.1-.017.148h.03Zm0 .007v-.007h-.03v.007h.03Zm-.09-.032a.37.37 0 0 0 .022.065.095.095 0 0 0 .012.019.04.04 0 0 0 .017.012.024.024 0 0 0 .021-.004.036.036 0 0 0 .011-.015.123.123 0 0 0 .007-.045h-.03a.095.095 0 0 1-.004.033l-.002.003a.007.007 0 0 1 .006 0l-.003-.003a.066.066 0 0 1-.008-.013.298.298 0 0 1-.02-.06l-.029.008Zm.023.14a.179.179 0 0 1-.016-.058c0-.02.004-.045.021-.08l-.026-.013a.19.19 0 0 0-.025.094c.001.026.01.048.018.069l.028-.011Zm.016.047-.016-.046-.028.01c.005.014.01.028.014.044l.03-.008Zm-.096-.033a.168.168 0 0 0 .021.063c.01.015.021.026.034.03a.033.033 0 0 0 .021-.001.032.032 0 0 0 .016-.014.062.062 0 0 0 .004-.045l-.03.008c.004.013.002.02 0 .022H9.87c-.003 0-.01-.004-.016-.015a.139.139 0 0 1-.017-.052l-.03.004Zm.036.147a.155.155 0 0 1-.023-.056.173.173 0 0 1 .016-.088l-.028-.01a.202.202 0 0 0-.017.102.184.184 0 0 0 .026.067l.026-.015Zm.03.066c-.008-.027-.02-.048-.03-.066l-.026.015a.23.23 0 0 1 .026.059l.03-.008Zm-.11-.045c.014.04.04.068.062.08a.054.054 0 0 0 .018.006.03.03 0 0 0 .019-.003c.014-.008.014-.025.01-.038l-.028.008c.002.01-.002.007.003.004.001 0 .001 0 0 0a.025.025 0 0 1-.008-.003.119.119 0 0 1-.048-.064l-.028.01Zm.04.177a.206.206 0 0 1-.027-.067.215.215 0 0 1 .015-.11l-.028-.01a.245.245 0 0 0-.016.124.235.235 0 0 0 .029.077l.026-.014Zm-.029.118a.047.047 0 0 0 .036-.014.051.051 0 0 0 .012-.032.139.139 0 0 0-.02-.072l-.026.014a.11.11 0 0 1 .016.056.023.023 0 0 1-.004.014c-.002.002-.006.004-.014.004v.03Zm-.104-.09a.25.25 0 0 0 .035.057.089.089 0 0 0 .069.033v-.03a.06.06 0 0 1-.046-.022.228.228 0 0 1-.031-.052l-.027.013Zm-.022-.036h.001l.005.007c.005.006.01.016.016.028l.027-.013-.018-.033c-.006-.009-.016-.019-.031-.019v.03Zm.015.822v-.837h-.03v.837h.03Zm.93-.015h-.945v.03h.945v-.03Zm-3.159.03h.888v-.03h-.888v.03Zm-.015-.12v.105h.03v-.105h-.03Zm-.042-.078c.022.02.042.04.042.078h.03c0-.053-.03-.08-.052-.1l-.02.022Zm-.042-.072c0 .035.023.055.042.072l.02-.022c-.02-.018-.032-.03-.032-.05h-.03Zm.014-.14a.129.129 0 0 0-.014.044.3.3 0 0 0-.001.083.387.387 0 0 0 .001.014v.001l.015-.002.015-.002v-.004a.452.452 0 0 1 0-.085.1.1 0 0 1 .01-.034l-.026-.014Zm.088.056c0 .01-.003.017-.006.021s-.006.005-.009.004c-.004 0-.011-.004-.02-.016a.197.197 0 0 1-.026-.061l-.028.008a.226.226 0 0 0 .03.07c.01.016.024.026.039.029a.039.039 0 0 0 .037-.015.064.064 0 0 0 .013-.04h-.03Zm-.081-.157c.029.044.05.075.063.1a.121.121 0 0 1 .018.057h.03a.15.15 0 0 0-.022-.071 1.122 1.122 0 0 0-.064-.103l-.025.017ZM7.34 5l.016.024.025-.017-.015-.023L7.34 5Zm.022-.194a.22.22 0 0 0-.034.098.243.243 0 0 0-.001.053.09.09 0 0 0 .014.044l.024-.018a.062.062 0 0 1-.008-.029.214.214 0 0 1 .001-.046.192.192 0 0 1 .028-.084l-.024-.018Zm.078.129a.024.024 0 0 1-.016-.005.052.052 0 0 1-.013-.02.38.38 0 0 1-.022-.097l-.03.004a.41.41 0 0 0 .024.105.081.081 0 0 0 .023.031c.01.008.021.012.034.012v-.03Zm.027-.045c0 .02-.004.032-.009.038a.025.025 0 0 1-.018.007v.03c.015 0 .03-.005.042-.019a.091.091 0 0 0 .015-.056h-.03Zm-.03-.084c.016.028.03.05.03.084h.03c0-.043-.018-.072-.035-.1l-.026.016Zm-.029-.055c.008.021.019.039.028.055l.026-.016a.311.311 0 0 1-.026-.05l-.028.011Zm.036-.175a.165.165 0 0 0-.036.175l.028-.01a.135.135 0 0 1 .03-.143l-.022-.022Zm.032.051-.006-.042-.03.004.007.043.03-.005Zm0 0-.03.005.03-.005Zm.03.071c-.006 0-.01-.001-.011-.002a.023.023 0 0 1-.006-.009.273.273 0 0 1-.013-.06l-.03.005c.005.028.008.052.015.067.004.009.01.017.018.022a.05.05 0 0 0 .027.007v-.03Zm-.026-.143c.013.02.033.054.042.085a.07.07 0 0 1 .003.038c-.003.008-.01.016-.024.02l.01.03a.062.062 0 0 0 .042-.041.098.098 0 0 0-.002-.056c-.01-.035-.033-.072-.045-.092l-.026.016Zm-.005-.008.005.008.026-.015-.005-.009-.026.016Zm.043-.11-.012-.009-.001.001s0 .002-.002.003a.283.283 0 0 0-.033.075.06.06 0 0 0 .005.04l.026-.015c-.002-.004-.003-.01-.001-.02a.13.13 0 0 1 .01-.03.26.26 0 0 1 .02-.036l-.012-.009Zm.056.064a.037.037 0 0 1-.013.002L7.559 4.5a.754.754 0 0 1-.025-.068l-.03.01.016.048a.11.11 0 0 0 .015.029.034.034 0 0 0 .024.014.063.063 0 0 0 .024-.004l-.008-.028Zm-.019-.077a.1.1 0 0 1 .031.054c.001.007 0 .013-.002.016-.001.003-.004.005-.01.006l.008.03a.044.044 0 0 0 .028-.021.055.055 0 0 0 .006-.034.13.13 0 0 0-.04-.073l-.02.022Zm.006-.12a.093.093 0 0 0-.028.059.082.082 0 0 0 .022.06l.022-.02a.052.052 0 0 1-.014-.039c0-.013.007-.027.02-.04l-.022-.02Zm.065.027c0 .007-.002.01-.004.011l-.003.001c-.006 0-.02-.009-.034-.036l-.026.014c.015.03.035.049.056.052a.033.033 0 0 0 .029-.01.048.048 0 0 0 .012-.03l-.03-.002Zm-.024-.128.024.132.03-.006-.024-.132-.03.006Zm.048-.018h-.033v.03h.033v-.03Zm-.027-.083.012.1.03-.004-.012-.1-.03.004Zm.492-.017h-.477v.03h.477v-.03Zm.003.117.012-.1-.03-.004-.012.1.03.004Zm.021-.017h-.036v.03h.036v-.03Zm-.012.147.027-.129-.03-.006-.027.129.03.006Zm.044-.025c-.014.028-.03.035-.037.036-.004 0-.005-.001-.006-.002 0-.001-.002-.004-.001-.01l-.03-.004a.04.04 0 0 0 .008.033.035.035 0 0 0 .03.012c.023 0 .046-.019.062-.051l-.026-.014Zm.03.117c.034-.034.028-.086-.006-.12l-.022.02c.026.026.026.058.006.078l.022.022Zm-.02.076c-.005 0-.008-.003-.01-.006a.025.025 0 0 1-.001-.016.1.1 0 0 1 .03-.054l-.02-.022a.13.13 0 0 0-.04.073.055.055 0 0 0 .006.034c.006.01.016.017.028.02l.008-.029Zm.043-.067a.828.828 0 0 1-.026.067c-.002.003-.003.003-.004.003L8.183 4.5l-.008.028a.058.058 0 0 0 .025.003.035.035 0 0 0 .023-.014.117.117 0 0 0 .015-.03.852.852 0 0 0 .015-.047l-.028-.008Zm.059.11a.116.116 0 0 0-.011-.083.151.151 0 0 0-.023-.033l-.011.01-.01.01a2149555.254 2149555.254 0 0 0 .005.007.122.122 0 0 1 .012.02.086.086 0 0 1 .008.061l.03.008Zm-.007.011.005-.007-.026-.016-.004.007.025.016Zm-.022.145c-.014-.005-.02-.012-.023-.02a.071.071 0 0 1 .003-.04.38.38 0 0 1 .042-.085l-.025-.016c-.012.02-.035.057-.046.094a.1.1 0 0 0-.002.055c.005.02.02.034.043.04l.008-.028Zm.026-.072a.273.273 0 0 1-.013.06.023.023 0 0 1-.006.009c-.002 0-.005.002-.011.002v.03a.05.05 0 0 0 .027-.007.047.047 0 0 0 .018-.022c.007-.015.01-.039.014-.067l-.03-.005Zm0 0 .03.004-.03-.004Zm0 0 .03.005-.03-.005Zm.006-.042-.006.042.03.005.006-.043-.03-.004Zm.059.167a.165.165 0 0 0-.033-.175l-.022.02a.135.135 0 0 1 .027.143l.028.012Zm-.03.057a.21.21 0 0 0 .03-.058l-.028-.01a.251.251 0 0 1-.027.053l.026.015Zm-.029.081c0-.032.013-.054.03-.08l-.026-.016c-.016.026-.034.055-.034.096h.03Zm.03.045a.026.026 0 0 1-.02-.008c-.005-.006-.01-.017-.01-.037h-.03c0 .025.006.044.017.057a.055.055 0 0 0 .043.018v-.03Zm.051-.122a.372.372 0 0 1-.022.098.048.048 0 0 1-.013.02.025.025 0 0 1-.016.004v.03a.055.055 0 0 0 .034-.011.078.078 0 0 0 .023-.03.397.397 0 0 0 .024-.107l-.03-.004Zm.048.19a.099.099 0 0 0 .014-.044.251.251 0 0 0-.001-.055.22.22 0 0 0-.034-.098l-.024.018c.013.017.024.05.028.084a.22.22 0 0 1 .001.048.07.07 0 0 1-.008.03l.024.017Zm-.025.038.025-.038-.024-.016-.026.037.025.017Zm-.074.14a.11.11 0 0 1 .017-.052c.012-.023.031-.05.057-.088l-.025-.017c-.025.037-.045.066-.058.09a.138.138 0 0 0-.021.067h.03Zm.06-.052a.185.185 0 0 1-.024.06c-.009.013-.016.017-.02.017-.003.001-.007 0-.01-.004a.033.033 0 0 1-.006-.021h-.03c0 .016.005.03.013.04a.04.04 0 0 0 .038.015c.015-.003.028-.013.04-.03a.215.215 0 0 0 .029-.07l-.03-.007Zm.03.136.015.002v-.004a.357.357 0 0 0 .003-.048.18.18 0 0 0-.02-.09l-.026.016a.153.153 0 0 1 .016.074.383.383 0 0 1-.003.047v.001l.015.002Zm-.026.073c.018-.017.041-.038.041-.073h-.03c0 .02-.012.032-.031.05l.02.023Zm-.043.078c.001-.04.021-.058.043-.078l-.02-.022c-.023.02-.051.047-.053.098l.03.002Zm0 .104v-.105h-.03v.105h.03Zm-3.186-.84v.84h.03v-.84h-.03Zm.064.038-.018-.033c-.006-.01-.016-.02-.031-.02v.03h.001l.005.007c.005.007.01.016.016.029l.027-.013Zm.077.076a.059.059 0 0 1-.046-.023.236.236 0 0 1-.031-.053l-.027.013a.29.29 0 0 0 .035.06.088.088 0 0 0 .069.033v-.03Zm.002-.073c.013.02.019.04.018.055-.001.007-.003.01-.006.013-.002.003-.006.005-.014.005v.03a.049.049 0 0 0 .036-.014.051.051 0 0 0 .013-.032.125.125 0 0 0-.021-.073l-.026.016Zm-.013-.202a.245.245 0 0 0-.016.124.235.235 0 0 0 .029.077l.026-.014a.206.206 0 0 1-.026-.067.215.215 0 0 1 .015-.11l-.028-.01Zm.08.063c.003.01 0 .007.004.004.001 0 .001 0 0 0a.025.025 0 0 1-.008-.003.119.119 0 0 1-.048-.064l-.028.01c.014.04.04.068.062.08a.054.054 0 0 0 .018.006.03.03 0 0 0 .019-.003c.014-.008.014-.025.01-.038l-.028.008Zm-.026-.059a.23.23 0 0 1 .026.059l.03-.008c-.008-.027-.02-.048-.03-.066l-.026.015Zm-.009-.17a.202.202 0 0 0-.017.103.184.184 0 0 0 .026.067l.026-.015a.155.155 0 0 1-.023-.056.173.173 0 0 1 .016-.088l-.028-.01Zm.065.049c.004.013.002.02 0 .022h-.003c-.003 0-.01-.004-.016-.015a.138.138 0 0 1-.017-.052l-.03.004a.168.168 0 0 0 .021.063c.01.015.021.026.034.03a.033.033 0 0 0 .021-.001.032.032 0 0 0 .016-.014.062.062 0 0 0 .004-.045l-.03.008Zm-.014-.043c.005.013.01.027.014.043l.03-.008-.016-.046-.028.01Zm.007-.163a.19.19 0 0 0-.025.094c.001.026.01.048.018.069l.028-.011a.179.179 0 0 1-.016-.06c0-.02.004-.044.021-.078l-.026-.014Zm.058.043a.095.095 0 0 1-.004.033l-.002.003a.007.007 0 0 1 .006 0l-.003-.003a.066.066 0 0 1-.008-.013.298.298 0 0 1-.02-.06l-.029.008a.37.37 0 0 0 .022.065.095.095 0 0 0 .012.019.04.04 0 0 0 .017.012.024.024 0 0 0 .021-.004.036.036 0 0 0 .011-.015.123.123 0 0 0 .007-.045h-.03Zm.137-.263a.17.17 0 0 0-.12.11c-.017.047-.017.103-.017.153h.03c0-.052 0-.101.015-.143a.141.141 0 0 1 .1-.092l-.008-.028Zm.061-.091a.053.053 0 0 0-.04.019.11.11 0 0 0-.02.036.214.214 0 0 0-.012.047v.001l.015.002.015.001a.24.24 0 0 1 .01-.04.081.081 0 0 1 .014-.027c.006-.006.011-.009.018-.009v-.03Zm.054.105.015-.002a.225.225 0 0 0-.011-.048.113.113 0 0 0-.02-.036.05.05 0 0 0-.038-.019v.03c.006 0 .01.003.016.009.005.006.01.016.014.026a.195.195 0 0 1 .01.041l.014-.001Zm.141.242c0-.048 0-.101-.017-.148a.17.17 0 0 0-.12-.108l-.008.028c.058.018.086.05.1.09.015.04.015.09.015.138h.03Zm0 .007v-.007h-.03v.007h.03Zm.03-.04a.298.298 0 0 1-.02.06.066.066 0 0 1-.007.013l-.003.002.006.001-.002-.003a.095.095 0 0 1-.004-.033h-.03c0 .018.002.034.007.045a.036.036 0 0 0 .011.015.023.023 0 0 0 .021.004.036.036 0 0 0 .017-.012.095.095 0 0 0 .012-.02.326.326 0 0 0 .022-.064l-.03-.008Zm.035.16c.008-.021.017-.043.018-.07a.19.19 0 0 0-.025-.093l-.026.014a.16.16 0 0 1 .021.079c0 .02-.007.037-.016.059l.028.01Zm-.014.043a.382.382 0 0 1 .014-.043l-.028-.011-.016.046.03.008Zm.036-.045a.138.138 0 0 1-.017.052c-.006.011-.013.015-.016.016h-.002l-.001-.001c-.002-.003-.004-.01 0-.022l-.03-.008a.062.062 0 0 0 .004.045c.004.006.01.011.016.014a.033.033 0 0 0 .02 0 .062.062 0 0 0 .035-.029.168.168 0 0 0 .02-.063l-.029-.004Zm.02.166c.01-.02.022-.04.026-.067a.202.202 0 0 0-.017-.102l-.028.01c.016.041.019.068.016.088a.155.155 0 0 1-.023.056l.026.015Zm-.026.059a.23.23 0 0 1 .026-.059l-.026-.015c-.01.018-.022.039-.03.066l.03.008Zm.052-.063a.119.119 0 0 1-.048.064.025.025 0 0 1-.008.003c-.001 0-.001 0 0 0 .005.003 0 .006.003-.004l-.028-.008c-.004.013-.004.03.01.038a.03.03 0 0 0 .02.003.054.054 0 0 0 .017-.006.148.148 0 0 0 .062-.08l-.028-.01Zm.015.201a.235.235 0 0 0 .03-.077.245.245 0 0 0-.017-.124l-.028.01a.226.226 0 0 1 .015.11.206.206 0 0 1-.026.067l.026.014Zm.002.074c-.008 0-.012-.002-.014-.004a.023.023 0 0 1-.004-.014.11.11 0 0 1 .016-.056l-.026-.014a.139.139 0 0 0-.02.072c0 .011.004.023.012.032.01.01.022.014.036.014v-.03Zm.077-.074a.229.229 0 0 1-.03.052.06.06 0 0 1-.047.022v.03a.09.09 0 0 0 .069-.033.224.224 0 0 0 .035-.058l-.027-.013Zm.049-.052a.034.034 0 0 0-.03.02c-.007.008-.013.02-.019.032l.027.013a.217.217 0 0 1 .016-.028.025.025 0 0 1 .005-.006v-.001h.001v-.03Zm.015.852v-.837h-.03v.837h.03Zm-.96.015h.945v-.03h-.945v.03Zm2.711-1.583a.07.07 0 0 0-.052.026.13.13 0 0 0-.023.05.252.252 0 0 0-.008.06v.005h.03v-.001a.162.162 0 0 1 0-.017.225.225 0 0 1 .007-.04.1.1 0 0 1 .017-.038.04.04 0 0 1 .03-.015v-.03Zm.067.141h.015v-.001a.231.231 0 0 0 0-.02.267.267 0 0 0-.008-.046.13.13 0 0 0-.022-.049.064.064 0 0 0-.051-.025v.03c.012 0 .02.005.028.014a.1.1 0 0 1 .016.038.237.237 0 0 1 .007.054v.004l.015.001Zm-.135.015h.135v-.03H7.81v.03Z" fill="#fff"/><path fill="url(#KH - Cambodia__b)" style="mix-blend-mode:overlay" d="M0 0h16v12H0z"/></g><defs><linearGradient id="KH - Cambodia__b" x1="8" y1="0" x2="8" y2="12" gradientUnits="userSpaceOnUse"><stop stop-color="#fff" stop-opacity=".7"/><stop offset="1" stop-opacity=".3"/></linearGradient><clipPath id="KH - Cambodia__a"><rect width="16" height="12" rx="1" fill="#fff"/></clipPath></defs></svg>