<svg fill="none" xmlns="http://www.w3.org/2000/svg" viewBox="0 0 16 12"><g clip-path="url(#KM - Comors__a)"><path fill-rule="evenodd" clip-rule="evenodd" d="M0 0v12h16V0H0Z" fill="#5196ED"/><mask id="KM - Comors__b" style="mask-type:alpha" maskUnits="userSpaceOnUse" x="0" y="0" width="16" height="12"><path fill-rule="evenodd" clip-rule="evenodd" d="M0 0v12h16V0H0Z" fill="#fff"/></mask><g mask="url(#KM - Comors__b)" fill-rule="evenodd" clip-rule="evenodd"><path d="M0 6v3h16V6H0Z" fill="#AF0100"/><path d="M0 3v3h16V3H0Z" fill="#F7FCFF"/><path d="M0 0v3h16V0H0Z" fill="#FBCD17"/><path d="m0 0 8 6-8 6V0Z" fill="#5EAA22"/><path d="M3.152 8.728S1.361 8.06 1.424 5.972c.063-2.088 1.888-2.497 1.888-2.497C2.672 2.97.387 3.56.313 5.972.24 8.383 2.471 8.92 3.153 8.728Zm.095-3.585.068-.393-.286-.278.395-.057.176-.358.176.358.395.057-.286.278.068.393-.353-.186-.353.186Zm.068.607-.068.393.353-.186.353.186-.068-.393.286-.278-.395-.057-.176-.358-.176.358-.395.057.286.278Zm-.068 1.393.068-.393-.286-.278.395-.057.176-.358.176.358.395.057-.286.278.068.393-.353-.186-.353.186Zm0 1 .068-.393-.286-.278.395-.057.176-.358.176.358.395.057-.286.278.068.393-.353-.186-.353.186Z" fill="#F7FCFF"/></g><path fill="url(#KM - Comors__c)" style="mix-blend-mode:overlay" d="M0 0h16v12H0z"/></g><defs><linearGradient id="KM - Comors__c" x1="8" y1="0" x2="8" y2="12" gradientUnits="userSpaceOnUse"><stop stop-color="#fff" stop-opacity=".7"/><stop offset="1" stop-opacity=".3"/></linearGradient><clipPath id="KM - Comors__a"><rect width="16" height="12" rx="1" fill="#fff"/></clipPath></defs></svg>