<svg fill="none" xmlns="http://www.w3.org/2000/svg" viewBox="0 0 16 12"><g clip-path="url(#KN-SK - Saint Kitts and Nevis__a)"><mask id="KN-SK - Saint Kitts and Nevis__b" style="mask-type:alpha" maskUnits="userSpaceOnUse" x="0" y="0" width="16" height="12"><rect width="16" height="12" fill="#fff"/></mask><g mask="url(#KN-SK - Saint Kitts and Nevis__b)"><path fill-rule="evenodd" clip-rule="evenodd" d="M0 0v12h16V0H0Z" fill="#C51918"/><path fill-rule="evenodd" clip-rule="evenodd" d="M0 0v12L16 0H0Z" fill="#5EAA22"/><path d="m.318 13.976.362.403.45-.3L19.26 1.977l.6-.4-.48-.537-2.661-2.968-.362-.403-.45.3-18.131 12.102-.6.4.482.537 2.66 2.968Z" fill="#272727" stroke="#FFD018" stroke-width="1.25"/><path fill-rule="evenodd" clip-rule="evenodd" d="m6.044 8.46-.544.946-.348-1.067-1.08-.343.9-.55-.108-1.117.889.684.92-.51-.258 1.136.74.85-1.11-.03Zm5-3.277-.544.947-.348-1.067-1.08-.344.9-.55-.108-1.116.889.683.92-.51-.258 1.137.74.85-1.11-.03Z" fill="#F7FCFF"/></g><path fill="url(#KN-SK - Saint Kitts and Nevis__c)" style="mix-blend-mode:overlay" d="M0 0h16v12H0z"/></g><defs><linearGradient id="KN-SK - Saint Kitts and Nevis__c" x1="8" y1="0" x2="8" y2="12" gradientUnits="userSpaceOnUse"><stop stop-color="#fff" stop-opacity=".7"/><stop offset="1" stop-opacity=".3"/></linearGradient><clipPath id="KN-SK - Saint Kitts and Nevis__a"><rect width="16" height="12" rx="1" fill="#fff"/></clipPath></defs></svg>
