<svg fill="none" xmlns="http://www.w3.org/2000/svg" viewBox="0 0 16 12"><g clip-path="url(#KY - Cayman Islands__a)"><g clip-path="url(#KY - Cayman Islands__b)"><path fill-rule="evenodd" clip-rule="evenodd" d="M0 0h16v12H0V0Z" fill="#2E42A5"/><g clip-path="url(#KY - Cayman Islands__c)"><path d="M11.287 6.231h-.125v1.615c0 .985.413 1.644.835 2.054.21.205.423.347.587.44a2.11 2.11 0 0 0 .272.127.37.37 0 0 0 .027.008.161.161 0 0 0 .041.006c.02 0 .037-.004.042-.006a.921.921 0 0 0 .092-.035c.05-.023.117-.057.194-.103a2.64 2.64 0 0 0 .547-.44c.393-.412.774-1.07.774-2.052V6.231h-3.285Z" fill="#fff" stroke="#F7FCFF" stroke-width=".25"/><mask id="KY - Cayman Islands__d" style="mask-type:alpha" maskUnits="userSpaceOnUse" x="11" y="6" width="4" height="5"><path d="M11.287 6.231h-.125v1.615c0 .985.413 1.644.835 2.054.21.205.423.347.587.44a2.11 2.11 0 0 0 .272.127.37.37 0 0 0 .027.008.161.161 0 0 0 .041.006c.02 0 .037-.004.042-.006a.921.921 0 0 0 .092-.035c.05-.023.117-.057.194-.103a2.64 2.64 0 0 0 .547-.44c.393-.412.774-1.07.774-2.052V6.231h-3.285Z" fill="#fff" stroke="#fff" stroke-width=".25"/></mask><g mask="url(#KY - Cayman Islands__d)"><path fill="#F50100" d="M11.084 6.106h3.6v1.7h-3.6z"/><path d="M12.69 8.156c.114 0 .345-.156.402-.193.211-.156.365-.012.49.06.134.073.384.157.537 0 .154-.156.24-.144.346-.144.02-.18.02-.362.02-.567v-.144c-.135-.036-.202.012-.346.169-.144.156-.307.12-.519.024-.201-.109-.403-.302-.604 0-.058.084-.193.205-.327.205-.144 0-.269-.12-.326-.205-.211-.302-.403-.109-.605 0-.211.096-.384.132-.528-.024-.135-.157-.202-.205-.346-.17v.145c0 .205.01.386.03.567.105 0 .181-.012.335.145.154.156.413.072.538 0 .134-.073.288-.217.499-.06.058.036.278.192.403.192Z" fill="#F50100"/><path fill-rule="evenodd" clip-rule="evenodd" d="M11.718 6.88s.087.006.19.138c.102.133.48.049.48-.031s-.23-.128-.141-.265c.088-.137.237-.137.357-.066.035 0 .03.468.11.442.248-.08.65-.242.767-.173.155.091.273.068.234-.062-.04-.13-.14-.212-.335-.14-.195.07-.15.14-.317.14-.169 0-.458.114-.33-.14.116-.23.253-.234.305-.138.027.05-.192.158-.192.208 0 .07.563-.137.635-.137.072 0 .27-.005.29.066.02.071.14.137.048.203-.09.067-.242.108-.138.193.104.085.366.124.378.213.011.088.124.22.079.22s-.127.125-.204.087c-.076-.038-.085-.071-.012-.102.073-.03.073-.16.012-.16-.06 0-.055-.01-.192-.055-.138-.046-.32-.096-.308 0 .01.095.104.3-.061.32-.165.02-.243.098-.275.035-.032-.063-.147-.147-.056-.174.09-.027.176.091.209.072.032-.02.102-.089.04-.171-.061-.082-.181-.085-.087-.147.095-.061.038-.108-.141.02-.18.127-.28.235-.438.22-.158-.015-.229.055-.28.034-.05-.02-.297.229-.368.166-.071-.064-.3-.088-.26-.166.042-.077.097-.118.16-.077.061.04.122.08.164.04.042-.04.174-.227.144-.255-.03-.027-.137-.074-.309-.074-.171 0-.175-.143-.216-.208-.04-.065.058-.075.058-.075Z" fill="#FFD100"/><path d="M12.69 9.356c.114 0 .345-.156.402-.193.211-.156.365-.012.49.06.134.073.384.157.537 0 .154-.156.24-.144.346-.144.02-.18.02-.362.02-.567v-.144c-.135-.036-.202.012-.346.169-.144.156-.307.12-.519.024-.201-.109-.403-.302-.604 0-.058.084-.193.205-.327.205-.144 0-.269-.12-.326-.205-.211-.302-.403-.109-.605 0-.211.096-.384.132-.528-.024-.135-.157-.202-.205-.346-.17v.145c0 .205.01.386.03.567.105 0 .181-.012.335.145.154.156.413.072.538 0 .134-.073.288-.217.499-.06.058.036.278.192.403.192Zm0 1.15c.114 0 .345-.156.402-.193.211-.156.365-.012.49.06.134.073.384.158.537 0 .154-.156.24-.144.346-.144.02-.18.02-.362.02-.567v-.144c-.135-.036-.202.012-.346.169-.144.156-.307.12-.519.024-.201-.109-.403-.302-.604 0-.058.084-.193.205-.327.205-.144 0-.269-.12-.326-.205-.211-.302-.403-.109-.605 0-.211.096-.384.132-.528-.024-.135-.157-.202-.205-.346-.17v.145c0 .205.01.386.03.567.105 0 .181-.012.335.145.154.156.413.072.538 0 .134-.073.288-.217.499-.06.058.036.278.192.403.192Z" fill="#0B50A0"/><mask id="KY - Cayman Islands__e" fill="#fff"><path fill-rule="evenodd" clip-rule="evenodd" d="m12.9 10.149-.285.17.081-.345-.274-.254h.358l.12-.326.141.326h.305l-.24.254.116.344-.321-.17Z"/></mask><path fill-rule="evenodd" clip-rule="evenodd" d="m12.9 10.149-.285.17.081-.345-.274-.254h.358l.12-.326.141.326h.305l-.24.254.116.344-.321-.17Z" fill="#059334"/><path d="m12.9 10.149.258-.487-.273-.143-.265.157.28.473Zm-.285.17-.536-.128-.298 1.261 1.114-.66-.28-.474Zm.081-.345.536.127.074-.313-.236-.218-.374.404Zm-.274-.254v-.55h-1.405l1.032.954.373-.404Zm.358 0v.55h.384l.132-.36-.516-.19Zm.12-.326.505-.218-.545-1.263-.476 1.291.516.19Zm.141.326-.505.218.144.332h.361v-.55Zm.305 0 .4.379.878-.928h-1.278v.55Zm-.24.254-.399-.378-.227.24.105.312.521-.174Zm.116.344-.257.487 1.214.641-.436-1.302-.521.174Zm-.602-.642-.286.17.561.945.286-.169-.56-.946Zm.53.77.082-.345-1.07-.254-.083.345 1.07.253Zm-.08-.876-.274-.253-.747.807.274.254.747-.808Zm-.648.7h.358v-1.1h-.358v1.1Zm.874-.36.12-.326-1.032-.38-.12.326 1.032.38Zm-.9-.298.14.326 1.01-.435-.14-.327-1.01.436Zm.645.659h.305v-1.1h-.305v1.1Zm-.094-.929-.24.254.799.756.24-.253-.8-.757Zm-.362.806.115.345 1.043-.35-.115-.344-1.043.35Zm.894-.316-.321-.17-.514.973.32.17.515-.973Z" fill="#FFD100" mask="url(#KY - Cayman Islands__e)"/><mask id="KY - Cayman Islands__f" fill="#fff"><path fill-rule="evenodd" clip-rule="evenodd" d="m12.1 9.149-.285.17.081-.345-.274-.254h.358l.12-.326.141.326h.305l-.24.254.116.344-.321-.17Z"/></mask><path fill-rule="evenodd" clip-rule="evenodd" d="m12.1 9.149-.285.17.081-.345-.274-.254h.358l.12-.326.141.326h.305l-.24.254.116.344-.321-.17Z" fill="#059334"/><path d="m12.1 9.149.258-.487-.273-.143-.265.157.28.473Zm-.285.17-.535-.128-.3 1.261 1.115-.66-.28-.474Zm.081-.345.535.127.075-.313-.236-.218-.374.404Zm-.274-.254v-.55h-1.405l1.032.954.373-.404Zm.358 0v.55h.384l.132-.36-.516-.19Zm.12-.326.505-.218-.545-1.263-.476 1.291.516.19Zm.141.326-.505.218.143.332h.362v-.55Zm.305 0 .4.379.878-.928h-1.278v.55Zm-.24.254-.399-.378-.227.24.105.312.521-.174Zm.116.344-.257.487 1.214.641-.436-1.302-.521.174Zm-.602-.642-.286.17.561.946.286-.17-.56-.946Zm.53.77.082-.345-1.07-.254-.082.344 1.07.254Zm-.08-.876-.274-.253-.747.807.274.254.747-.808Zm-.648.7h.358v-1.1h-.358v1.1Zm.874-.36.12-.326-1.032-.38-.12.326 1.032.38Zm-.9-.298.14.326 1.01-.435-.14-.327-1.01.436Zm.645.659h.305v-1.1h-.305v1.1Zm-.094-.929-.24.254.799.756.24-.253-.8-.757Zm-.362.806.115.345 1.043-.35-.115-.344-1.043.35Zm.894-.316-.321-.17-.514.973.32.17.515-.973Z" fill="#FFD100" mask="url(#KY - Cayman Islands__f)"/><mask id="KY - Cayman Islands__g" fill="#fff"><path fill-rule="evenodd" clip-rule="evenodd" d="m13.7 9.149-.285.17.081-.345-.274-.254h.358l.12-.326.141.326h.305l-.24.254.116.344-.321-.17Z"/></mask><path fill-rule="evenodd" clip-rule="evenodd" d="m13.7 9.149-.285.17.081-.345-.274-.254h.358l.12-.326.141.326h.305l-.24.254.116.344-.321-.17Z" fill="#059334"/><path d="m13.7 9.149.258-.487-.273-.143-.265.157.28.473Zm-.285.17-.535-.128-.3 1.261 1.115-.66-.28-.474Zm.081-.345.535.127.075-.313-.236-.218-.374.404Zm-.274-.254v-.55h-1.405l1.032.954.373-.404Zm.358 0v.55h.384l.132-.36-.516-.19Zm.12-.326.505-.218-.545-1.263-.476 1.291.516.19Zm.141.326-.505.218.143.332h.362v-.55Zm.305 0 .4.379.879-.928h-1.279v.55Zm-.24.254-.399-.378-.227.24.105.312.521-.174Zm.116.344-.257.487 1.214.641-.436-1.302-.521.174Zm-.602-.642-.286.17.561.946.286-.17-.56-.946Zm.53.77.082-.345-1.07-.254-.082.344 1.07.254Zm-.08-.876-.274-.253-.747.807.274.254.747-.808Zm-.648.7h.358v-1.1h-.358v1.1Zm.874-.36.12-.326-1.032-.38-.12.326 1.032.38Zm-.9-.298.14.326 1.01-.435-.14-.327-1.01.436Zm.645.659h.305v-1.1h-.305v1.1Zm-.094-.929-.24.254.799.756.24-.253-.8-.757Zm-.362.806.115.345 1.043-.35-.115-.344-1.043.35Zm.894-.316-.321-.17-.514.973.32.17.515-.973Z" fill="#FFD100" mask="url(#KY - Cayman Islands__g)"/></g></g><path d="M10.524 10.39c.046.13.375.303.758.082.26-.156.428-.377.59-.77.045-.099.068-.222-.04-.295-.083-.066-.221-.14-.282-.205-.031-.033-.062-.058-.085-.082a.308.308 0 0 1 .046.057c.154.197-.007.483-.176.656-.122.122-.344.425-.666.139-.069-.066-.23.205-.145.418Zm4.654 0c-.053.13-.382.303-.758.082-.26-.156-.428-.377-.597-.77-.038-.099-.06-.222.046-.295.085-.066.222-.14.284-.205a.784.784 0 0 1 .084-.082.355.355 0 0 0-.046.057c-.153.197.007.483.168.656.123.122.352.425.674.139.069-.066.222.205.145.418Z" fill="#FFD100"/><path d="M12.851 11.094c.613 0 1.554-.295 2.06-1.327.084-.172 0-.262-.1-.32a1.174 1.174 0 0 1-.306-.237c.122.131.1.221.015.369-.39.696-.926 1.048-1.669 1.048s-1.278-.352-1.669-1.048c-.084-.148-.107-.238.008-.37a1.06 1.06 0 0 1-.306.239c-.1.057-.184.147-.1.319a2.307 2.307 0 0 0 2.067 1.327Z" fill="#FFD100"/><path d="M11.435 9.71c-.016-.082-.115-.05-.146.049a1.358 1.358 0 0 1-.107-.18c-.092-.148-.107-.246.023-.385.061-.066.184-.14.268-.058.176.156.084.41-.038.574Zm2.825 0c.015-.082.122-.05.153.049.038-.058.076-.115.107-.18.092-.148.107-.246-.03-.385-.054-.066-.177-.14-.269-.058-.168.156-.084.41.039.574Z" fill="#F50100"/><path fill-rule="evenodd" clip-rule="evenodd" d="M12.492 4.272a3.232 3.232 0 0 0-.682-.685c-.087-.069-.143-.113-.143-.133 0-.058.455.096.92.488a1.1 1.1 0 0 1 .033-.068c-.137-.273-.372-.516-.505-.654-.064-.065-.104-.107-.1-.117.01-.03.392.217.731.593a.451.451 0 0 1 .104-.081l-.223-.373h.8l-.239.397c.052.037.1.089.143.152.356-.429.804-.721.815-.688l-.27.613a3.164 3.164 0 0 0-.399.31l-.024.022.008.025a.866.866 0 0 1 .016-.047l.055.471.001.073c.23-.255.473-.356.473-.322 0 .011-.026.036-.066.073a1.449 1.449 0 0 0-.405.578c-.004.012-.016.011-.031.004-.072.391-.27.672-.504.672-.29 0-.527-.436-.533-.98a1.817 1.817 0 0 0-.247-.274c-.04-.037-.066-.062-.066-.073 0-.026.146.029.319.173.004-.05.01-.1.019-.149Zm1.04.225c.234-.45.613-.748.818-.91.087-.069.143-.113.143-.133 0-.045-.276.038-.617.262l-.344.781Z" fill="#FFD100"/><path d="M11.893 5.151c-.064-.11-.239-.158-.312-.06-.027.024-.064.024-.091.036-.046 0-.105.03-.087.152.05 0 .05.03.077.03.019-.012.066.212.158.2.1 0 .19.056.209.08.027.037.064.134.018.183a.302.302 0 0 0 0 .377c.12.122.422.304.761-.048.33-.341.844-.146.88-.025.046.122.064.195.073.256.01.048.257.121.294.158.046.037.11.024.092-.085-.037-.34-.193-.39-.211-.548.091.012.156.012.192-.036.028-.049.064-.134.101-.158.028-.025.028-.05-.01-.037-.045.012-.072.037-.155.024-.195-.028-.147-.95-.792-1.13-.4-.111-.897.65-1.033.725a.056.056 0 0 1-.008.004c-.064 0-.12-.037-.156-.098Z" fill="#059334"/></g><mask id="KY - Cayman Islands__h" style="mask-type:alpha" maskUnits="userSpaceOnUse" x="0" y="0" width="9" height="7"><path fill="#fff" d="M0 0h9v7H0z"/></mask><g mask="url(#KY - Cayman Islands__h)"><path d="m-1.002 6.5 1.98.869L9.045.944l1.045-1.29-2.118-.29-3.29 2.768-2.649 1.865L-1.002 6.5Z" fill="#F7FCFF"/><path d="m-.731 7.108 1.009.505 9.436-8.08H8.298L-.731 7.109Z" fill="#F50100"/><path d="m10.002 6.5-1.98.869L-.045.944-1.09-.346l2.118-.29 3.29 2.768 2.649 1.865L10.002 6.5Z" fill="#F7FCFF"/><path d="m9.935 6.937-1.01.504-4.018-3.46-1.19-.386L-1.19-.342H.227L5.13 3.502l1.303.463 3.502 2.972Z" fill="#F50100"/><mask id="KY - Cayman Islands__i" maskUnits="userSpaceOnUse" x="-1" y="-1" width="11" height="9" fill="#000"><path fill="#fff" d="M-1-1h11v9H-1z"/><path fill-rule="evenodd" clip-rule="evenodd" d="M4.992 0h-1v3H0v1h3.992v3h1V4H9V3H4.992V0Z"/></mask><path fill-rule="evenodd" clip-rule="evenodd" d="M4.992 0h-1v3H0v1h3.992v3h1V4H9V3H4.992V0Z" fill="#F50100"/><path d="M3.992 0v-.75h-.75V0h.75Zm1 0h.75v-.75h-.75V0Zm-1 3v.75h.75V3h-.75ZM0 3v-.75h-.75V3H0Zm0 1h-.75v.75H0V4Zm3.992 0h.75v-.75h-.75V4Zm0 3h-.75v.75h.75V7Zm1 0v.75h.75V7h-.75Zm0-3v-.75h-.75V4h.75ZM9 4v.75h.75V4H9Zm0-1h.75v-.75H9V3ZM4.992 3h-.75v.75h.75V3Zm-1-2.25h1v-1.5h-1v1.5ZM4.742 3V0h-1.5v3h1.5ZM0 3.75h3.992v-1.5H0v1.5ZM.75 4V3h-1.5v1h1.5Zm3.242-.75H0v1.5h3.992v-1.5ZM4.742 7V4h-1.5v3h1.5Zm.25-.75h-1v1.5h1v-1.5ZM4.242 4v3h1.5V4h-1.5ZM9 3.25H4.992v1.5H9v-1.5ZM8.25 3v1h1.5V3h-1.5Zm-3.258.75H9v-1.5H4.992v1.5ZM4.242 0v3h1.5V0h-1.5Z" fill="#F7FCFF" mask="url(#KY - Cayman Islands__i)"/></g><path fill="url(#KY - Cayman Islands__j)" style="mix-blend-mode:overlay" d="M0 0h16v12H0z"/></g><defs><clipPath id="KY - Cayman Islands__a"><rect width="16" height="12" rx="1" fill="#fff"/></clipPath><clipPath id="KY - Cayman Islands__b"><path fill="#fff" d="M0 0h16v12H0z"/></clipPath><clipPath id="KY - Cayman Islands__c"><path fill="#fff" transform="translate(11.284 6.356)" d="M0 0h4v4H0z"/></clipPath><linearGradient id="KY - Cayman Islands__j" x1="8" y1="0" x2="8" y2="12" gradientUnits="userSpaceOnUse"><stop stop-color="#fff" stop-opacity=".7"/><stop offset="1" stop-opacity=".3"/></linearGradient></defs></svg>