<svg fill="none" xmlns="http://www.w3.org/2000/svg" viewBox="0 0 16 12"><g clip-path="url(#LS - Lesotho__a)"><mask id="LS - Lesotho__b" style="mask-type:alpha" maskUnits="userSpaceOnUse" x="0" y="0" width="16" height="12"><path fill="#fff" d="M0 0h16v12H0z"/></mask><g mask="url(#LS - Lesotho__b)" fill-rule="evenodd" clip-rule="evenodd"><path d="M0 8h16v4H0V8Z" fill="#55BA07"/><path d="M0 4h16v4H0V4Z" fill="#F7FCFF"/><path d="M0 0h16v4H0V0Z" fill="#3D58DB"/><path d="M7.625 4.12c-.261.07-.4.25-.4.57 0 .366.18.708.4.885V4.12Zm.625 1.445a1.18 1.18 0 0 0 .386-.874c0-.31-.136-.49-.386-.564v1.438Zm-.021-1.699c.41.091.705.37.705.823 0 .329-.156.73-.4 1.004l1.218 1.193.3-.098.448.68S9.367 8 7.967 8 5.5 7.467 5.5 7.467l.382-.58.308.1 1.129-1.273c-.254-.275-.418-.688-.418-1.026 0-.468.317-.75.749-.83a.313.313 0 0 1 .579.008Z" fill="#1D1D1D"/></g><path fill="url(#LS - Lesotho__c)" style="mix-blend-mode:overlay" d="M0 0h16v12H0z"/></g><defs><linearGradient id="LS - Lesotho__c" x1="8" y1="0" x2="8" y2="12" gradientUnits="userSpaceOnUse"><stop stop-color="#fff" stop-opacity=".7"/><stop offset="1" stop-opacity=".3"/></linearGradient><clipPath id="LS - Lesotho__a"><rect width="16" height="12" rx="1" fill="#fff"/></clipPath></defs></svg>