<svg fill="none" xmlns="http://www.w3.org/2000/svg" viewBox="0 0 16 12"><g clip-path="url(#LY - Libya__a)"><mask id="LY - Libya__b" style="mask-type:alpha" maskUnits="userSpaceOnUse" x="0" y="0" width="16" height="12"><path fill="#fff" d="M0 0h16v12H0z"/></mask><g mask="url(#LY - Libya__b)" fill-rule="evenodd" clip-rule="evenodd"><path d="M0 9h16v3H0V9Z" fill="#55BA07"/><path d="M0 3h16v6H0V3Z" fill="#1D1D1D"/><path d="M0 0h16v3H0V0Z" fill="#E11C1B"/><path d="M7.899 7.533c-.896-.185-1.124-.72-1.115-1.444 0-.765.399-1.473 1.106-1.558.706-.085 1.285.18 1.589.547-.254-.999-1.095-1.108-1.74-1.108-.972-.008-1.998.664-1.998 2.194 0 1.369.908 2.046 2.026 2.068 1.398 0 1.616-.965 1.657-1.294a2.49 2.49 0 0 0-.234.2c-.28.258-.585.541-1.291.395Zm2.209-1.926-.638.247.662.292-.024.775.502-.535.729.15-.443-.593.386-.571-.608.128-.43-.486-.136.593Z" fill="#fff"/></g><path fill="url(#LY - Libya__c)" style="mix-blend-mode:overlay" d="M0 0h16v12H0z"/></g><defs><linearGradient id="LY - Libya__c" x1="8" y1="0" x2="8" y2="12" gradientUnits="userSpaceOnUse"><stop stop-color="#fff" stop-opacity=".7"/><stop offset="1" stop-opacity=".3"/></linearGradient><clipPath id="LY - Libya__a"><rect width="16" height="12" rx="1" fill="#fff"/></clipPath></defs></svg>