<svg fill="none" xmlns="http://www.w3.org/2000/svg" viewBox="0 0 16 12"><g clip-path="url(#MA - Morocco__a)"><mask id="MA - Morocco__b" style="mask-type:alpha" maskUnits="userSpaceOnUse" x="0" y="0" width="16" height="12"><path fill="#fff" d="M0 0h16v12H0z"/></mask><g mask="url(#MA - Morocco__b)" fill-rule="evenodd" clip-rule="evenodd"><path d="M0 0h16v11a1 1 0 0 1-1 1H1a1 1 0 0 1-1-1V0Z" fill="#C51918"/><path d="M0 0h16v12H0V0Z" fill="#E31D1C"/><path d="M11.24 9.813 8.084 1.35h-.137L4.898 9.813 8.063 7.91l3.178 1.903ZM7.734 4.111l.339-1.32.351 1.358 1.01 2.828.592 1.37-1.28-.902-.682-.41-.673.405-1.25.906.578-1.397 1.015-2.838Z" fill="#579D20"/><path d="M6.331 6.737 8.08 7.899l1.63-1.162 3.098-2.619H3.193L6.33 6.737Zm.037-1-1.19-.727h5.613l-1.021.646-1.698 1.288-1.704-1.207Z" fill="#579D20"/></g><path fill="url(#MA - Morocco__c)" style="mix-blend-mode:overlay" d="M0 0h16v12H0z"/></g><defs><linearGradient id="MA - Morocco__c" x1="8" y1="0" x2="8" y2="12" gradientUnits="userSpaceOnUse"><stop stop-color="#fff" stop-opacity=".7"/><stop offset="1" stop-opacity=".3"/></linearGradient><clipPath id="MA - Morocco__a"><rect width="16" height="12" rx="1" fill="#fff"/></clipPath></defs></svg>