<svg fill="none" xmlns="http://www.w3.org/2000/svg" viewBox="0 0 16 12"><g clip-path="url(#MM - Myanmar__a)"><mask id="MM - Myanmar__b" style="mask-type:alpha" maskUnits="userSpaceOnUse" x="0" y="0" width="16" height="12"><path fill="#fff" d="M0 0h16v12H0z"/></mask><g mask="url(#MM - Myanmar__b)" fill-rule="evenodd" clip-rule="evenodd"><path d="M0 8h16v4H0V8Z" fill="#E31D1C"/><path d="M0 4h16v4H0V4Z" fill="#5EAA22"/><path d="M0 0h16v4H0V0Z" fill="#FFD018"/><path d="M8.031 7.988 5.456 9.625l.863-2.866-1.837-1.873 2.533-.055L8.135 2l1.022 2.867 2.526.044-1.899 1.907.887 2.727-2.64-1.558Z" fill="#F7FCFF"/></g><path fill="url(#MM - Myanmar__c)" style="mix-blend-mode:overlay" d="M0 0h16v12H0z"/></g><defs><linearGradient id="MM - Myanmar__c" x1="8" y1="0" x2="8" y2="12" gradientUnits="userSpaceOnUse"><stop stop-color="#fff" stop-opacity=".7"/><stop offset="1" stop-opacity=".3"/></linearGradient><clipPath id="MM - Myanmar__a"><rect width="16" height="12" rx="1" fill="#fff"/></clipPath></defs></svg>