<svg fill="none" xmlns="http://www.w3.org/2000/svg" viewBox="0 0 16 12"><g clip-path="url(#MQ-UNF - Martinique__a)"><path fill="#21428E" d="M0 0h16v12H0z"/><path fill-rule="evenodd" clip-rule="evenodd" d="M6.262 2.566c0 .036.021.06.038.077.028.03.042.046-.082.087a3.777 3.777 0 0 1-1.049.142c-.067 0-.186-.024-.291-.045a1.46 1.46 0 0 0-.194-.032c-.046.006.059.06.144.103.077.04.139.071.054.05-.242-.065-.386-.087-.198.033.143.088.463.088.916.033.092-.012.264-.044.43-.076.15-.028.297-.056.375-.066.064-.006.09.023.115.05.017.02.034.037.062.037.596.033 1.655.011 2.119-.054.386-.055.53-.033.64.098.22.251-.011.47-.64.601-.773.164-1.093.306-1.39.623-.718.766.12 1.63 1.688 1.75.915.076 1.511.251 1.368.393-.055.055-.662.142-1.357.197-1.512.12-2.185.328-2.76.874-.32.307-.43.492-.43.744 0 .145 0 .23-.041.28-.06.07-.201.07-.543.07-.31 0-.74-.044-.938-.11-.31-.076-.353-.076-.243.055.22.262.85.492 1.368.492.397 0 .618.076.971.328.707.514 1.512.71 2.847.7C10.996 9.989 12 9.53 12 8.753c0-.58-.662-.918-2.041-1.038-.696-.066-2.064.043-2.66.218-.11.033.011-.043.276-.175.32-.153.85-.262 1.567-.327 1.589-.132 2.306-.481 2.306-1.137 0-.634-.706-.995-2.218-1.137-1.49-.132-1.6-.394-.342-.777.894-.262 1.346-.655 1.346-1.191 0-.82-.452-1.093-1.964-1.17-.916-.044-1.136-.022-1.534.164-.264.12-.474.295-.474.383Zm1.31-.086c-.052.1-.19.2-.275.2-.103 0-.12-.1-.069-.2.052-.12.19-.2.275-.2.103 0 .12.08.069.2Zm1.092 6.708c.73.063 1.928-.126 2.113-.34.066-.076-.384-.271-.591-.36-.742-.229-2.209-.144-2.939.183-.261.126.61.429 1.417.517Z" fill="#fff"/><path fill="url(#MQ-UNF - Martinique__b)" style="mix-blend-mode:overlay" d="M0 0h16v12H0z"/></g><defs><linearGradient id="MQ-UNF - Martinique__b" x1="8" y1="0" x2="8" y2="12" gradientUnits="userSpaceOnUse"><stop stop-color="#fff" stop-opacity=".7"/><stop offset="1" stop-opacity=".3"/></linearGradient><clipPath id="MQ-UNF - Martinique__a"><rect width="16" height="12" rx="1" fill="#fff"/></clipPath></defs></svg>