<svg fill="none" xmlns="http://www.w3.org/2000/svg" viewBox="0 0 16 12"><g clip-path="url(#MX - Mexico__a)"><mask id="MX - Mexico__b" style="mask-type:alpha" maskUnits="userSpaceOnUse" x="0" y="0" width="16" height="12"><path fill="#fff" d="M0 0h16v12H0z"/></mask><g mask="url(#MX - Mexico__b)"><path fill-rule="evenodd" clip-rule="evenodd" d="M11 0h5v12h-5V0Z" fill="#D9071E"/><path fill-rule="evenodd" clip-rule="evenodd" d="M0 0h6v12H0V0Z" fill="#006923"/><path fill-rule="evenodd" clip-rule="evenodd" d="M5 0h6v12H5V0Z" fill="#fff"/><path fill-rule="evenodd" clip-rule="evenodd" d="M7.192 3.957s-.343.266-.28.55c.065.284.742 0 .66-.275-.082-.275-.38-.275-.38-.275Z" fill="#FCCA3D"/><path fill-rule="evenodd" clip-rule="evenodd" d="M6.668 4.634c-.257 0-.364-.214-.311-.442.028-.121.102-.276.222-.476l.429.257a2.861 2.861 0 0 0-.11.198.96.96 0 0 1 .251.113c.233.154.32.428.069.631a.821.821 0 0 0-.17.302.602.602 0 0 1 .283.071c.221.13.2.37.032.553-.12.13-.279.237-.429.29-.25.091-.516.057-.516-.263v-.002c0-.013-.002-.036.11-.038h.022-.022c-.19-.003-.231-.104-.255-.283a1.852 1.852 0 0 1-.012-.182l-.002-.06-.003-.06V5.23c-.004-.058-.007-.097.123-.097h-.29v-.5h.29c.164 0 .255.055.307.17.03-.052.06-.101.094-.145a.386.386 0 0 0-.112-.024Zm.318.878.008-.008-.003.004-.005.004Zm-.218.149s-.001 0 0 0Zm0-.189v.008-.015.007Z" fill="#A8AC71"/><path fill-rule="evenodd" clip-rule="evenodd" d="M9.633 6.201s.463-1.37-.272-2.08c-.736-.71-1.585-.662-1.585-.662s-.245.182 0 .32c.244.14.142.272.142.272s-.41-.416-.682-.173c-.272.243.254.206.198.39-.055.182-.291.995.054 1.405.344.41-.326.321-.19.321s.62.096.62 0c0-.095.168.371.312.371s.255-.164.255-.164.201.164.324.164.552-.107.552-.107l-.81-.682s.049-.301-.066-.366.92.577 1.002.784c.08.207.146.207.146.207Z" fill="#8F4620"/><path d="M5.533 5.863s.075-.239.156-.256c.07-.014.216.115.216.115.26 1.445.889 2.01 1.932 2.01 1.056 0 1.696-.43 2.07-1.762 0 0 .198-.203.268-.18.077.024.172.292.172.292-.095 1.559-1.22 2.482-2.492 2.482-1.284 0-2.333-1.035-2.322-2.7Z" fill="#9FAB2F"/><path fill-rule="evenodd" clip-rule="evenodd" d="M6.667 6.828s1.502.319 2.095.319c.593 0-.52.484-.954.484-.435 0-1.14-.803-1.14-.803Z" fill="#2FC2DC"/><rect x="7.333" y="7.05" width="1" height=".536" rx=".083" fill="#F9AA51"/><path d="m6.088 6.068.41-.287c.532.76 1.328 1.009 2.443.748l.114.487c-1.303.305-2.31-.01-2.967-.948Z" fill="#259485"/><path fill-rule="evenodd" clip-rule="evenodd" d="M8.296 6.175s-.607.32-.405.32c.202 0 .994.16.84 0a2.353 2.353 0 0 0-.435-.32Zm-.718-.381s-.115-.333-.355-.333-.172.273-.288.273c-.115 0 .108.193.207.193.1 0 .436-.133.436-.133Z" fill="#FCCA3D"/></g><path fill="url(#MX - Mexico__c)" style="mix-blend-mode:overlay" d="M0 0h16v12H0z"/></g><defs><linearGradient id="MX - Mexico__c" x1="8" y1="0" x2="8" y2="12" gradientUnits="userSpaceOnUse"><stop stop-color="#fff" stop-opacity=".7"/><stop offset="1" stop-opacity=".3"/></linearGradient><clipPath id="MX - Mexico__a"><rect width="16" height="12" rx="1" fill="#fff"/></clipPath></defs></svg>