<svg fill="none" xmlns="http://www.w3.org/2000/svg" viewBox="0 0 16 12"><g clip-path="url(#MZ - Mozambique__a)"><mask id="MZ - Mozambique__b" style="mask-type:alpha" maskUnits="userSpaceOnUse" x="0" y="0" width="16" height="12"><path fill="#fff" d="M0 0h16v12H0z"/></mask><g mask="url(#MZ - Mozambique__b)"><path fill-rule="evenodd" clip-rule="evenodd" d="M0 0v12h16V0H0Z" fill="#F7FCFF"/><mask id="MZ - Mozambique__c" style="mask-type:alpha" maskUnits="userSpaceOnUse" x="0" y="0" width="16" height="12"><path fill-rule="evenodd" clip-rule="evenodd" d="M0 0v12h16V0H0Z" fill="#fff"/></mask><g mask="url(#MZ - Mozambique__c)"><path fill-rule="evenodd" clip-rule="evenodd" d="M0 0v4h16V0H0Z" fill="#FECA00"/><path fill-rule="evenodd" clip-rule="evenodd" d="M0 8v4h16V8H0Z" fill="#093"/><path d="M0 3.5h-.5v5h17v-5H0Z" fill="#272727" stroke="#fff"/></g><path fill-rule="evenodd" clip-rule="evenodd" d="M0 0v12l9-6-9-6Z" fill="#F50100"/><mask id="MZ - Mozambique__d" style="mask-type:alpha" maskUnits="userSpaceOnUse" x="0" y="0" width="9" height="12"><path fill-rule="evenodd" clip-rule="evenodd" d="M0 0v12l9-6-9-6Z" fill="#fff"/></mask><g mask="url(#MZ - Mozambique__d)"><path fill-rule="evenodd" clip-rule="evenodd" d="m4.034 7.177-1.89 1.525.868-2.038-1.49-1.435H3.28L4.002 3.5l.766 1.73h1.754L4.955 6.663l.784 2.038-1.705-1.525Z" fill="#FECA00"/><path fill-rule="evenodd" clip-rule="evenodd" d="m3.078 5.992-.32 1.07s1.081-.01 1.211.099c.392-.244 1.198-.099 1.198-.099l-.429-1.145s-.543-.246-.769-.111c-.552-.125-.891.186-.891.186Z" fill="#F7FCFF"/><path d="M5.782 7.608a.25.25 0 1 1-.4.3l-2.09-2.775a.25.25 0 1 1 .4-.3l2.09 2.775Z" fill="#000"/><path d="m3.487 4.92-.2-.24" stroke="#000" stroke-width=".5" stroke-linecap="round" stroke-linejoin="round"/><path fill-rule="evenodd" clip-rule="evenodd" d="m2.802 4.681-.604.968.302.523.691-1.027.125-.317-.125-.147h-.389ZM2.02 7.554l.464.54 3.514-4.072-1.597.995L2.02 7.554Z" fill="#000"/></g></g><path fill="url(#MZ - Mozambique__e)" style="mix-blend-mode:overlay" d="M0 0h16v12H0z"/></g><defs><linearGradient id="MZ - Mozambique__e" x1="8" y1="0" x2="8" y2="12" gradientUnits="userSpaceOnUse"><stop stop-color="#fff" stop-opacity=".7"/><stop offset="1" stop-opacity=".3"/></linearGradient><clipPath id="MZ - Mozambique__a"><rect width="16" height="12" rx="1" fill="#fff"/></clipPath></defs></svg>