<svg fill="none" xmlns="http://www.w3.org/2000/svg" viewBox="0 0 16 12"><g clip-path="url(#NE - Niger__a)"><mask id="NE - Niger__b" style="mask-type:alpha" maskUnits="userSpaceOnUse" x="0" y="0" width="16" height="12"><path fill="#fff" d="M0 0h16v12H0z"/></mask><g mask="url(#NE - Niger__b)"><path fill-rule="evenodd" clip-rule="evenodd" d="M0 0v12h16V0H0Z" fill="#F7FCFF"/><mask id="NE - Niger__c" style="mask-type:alpha" maskUnits="userSpaceOnUse" x="0" y="0" width="16" height="12"><path fill-rule="evenodd" clip-rule="evenodd" d="M0 0v12h16V0H0Z" fill="#fff"/></mask><g mask="url(#NE - Niger__c)" fill-rule="evenodd" clip-rule="evenodd"><path d="M0 0v4h16V0H0Z" fill="#FC6500"/><path d="M0 8v4h16V8H0Z" fill="#5EAA22"/><path d="M8 8a2 2 0 1 0 0-4 2 2 0 0 0 0 4Z" fill="#FC6500"/></g></g><path fill="url(#NE - Niger__d)" style="mix-blend-mode:overlay" d="M0 0h16v12H0z"/></g><defs><linearGradient id="NE - Niger__d" x1="8" y1="0" x2="8" y2="12" gradientUnits="userSpaceOnUse"><stop stop-color="#fff" stop-opacity=".7"/><stop offset="1" stop-opacity=".3"/></linearGradient><clipPath id="NE - Niger__a"><rect width="16" height="12" rx="1" fill="#fff"/></clipPath></defs></svg>