<svg fill="none" xmlns="http://www.w3.org/2000/svg" viewBox="0 0 16 12"><g clip-path="url(#NI - Nicaragua__a)"><mask id="NI - Nicaragua__b" style="mask-type:alpha" maskUnits="userSpaceOnUse" x="0" y="0" width="16" height="12"><path fill="#fff" d="M0 0h16v12H0z"/></mask><g mask="url(#NI - Nicaragua__b)"><path fill-rule="evenodd" clip-rule="evenodd" d="M0 0v12h16V0H0Z" fill="#F7FCFF"/><mask id="NI - Nicaragua__c" style="mask-type:alpha" maskUnits="userSpaceOnUse" x="0" y="0" width="16" height="12"><path fill-rule="evenodd" clip-rule="evenodd" d="M0 0v12h16V0H0Z" fill="#fff"/></mask><g mask="url(#NI - Nicaragua__c)"><path fill-rule="evenodd" clip-rule="evenodd" d="M0 0v4h16V0H0Zm0 8v4h16V8H0Z" fill="#0080EC"/><path fill-rule="evenodd" clip-rule="evenodd" d="M8 4c.094 0 .187.007.278.02l-.1.637a1.368 1.368 0 0 0-.436.013l-.046-.647c.1-.015.2-.023.304-.023Zm.576.084-.174.622a1.355 1.355 0 0 1 .952 1.339l.644.054L10 6a2 2 0 0 0-1.424-1.916Zm1.18 2.873a2 2 0 0 1-1.608 1.038v-.648c.37-.04.696-.23.915-.508l.694.118Zm-3.468.078a2 2 0 0 0 1.598.962V7.35a1.353 1.353 0 0 1-.968-.535l-.63.22Zm-.286-.95a2 2 0 0 1 1.274-1.95l.167.63c-.468.211-.794.68-.798 1.225l-.643.096Z" fill="#D0AB00"/><path fill-rule="evenodd" clip-rule="evenodd" d="M7.987 4.475 6.62 6.84h2.758l-1.39-2.365Z" fill="#7CDFFF"/><mask id="NI - Nicaragua__d" style="mask-type:alpha" maskUnits="userSpaceOnUse" x="6" y="4" width="4" height="3"><path fill-rule="evenodd" clip-rule="evenodd" d="M7.987 4.475 6.62 6.84h2.758l-1.39-2.365Z" fill="#fff"/></mask><g mask="url(#NI - Nicaragua__d)"><path d="M8 7.56a1.195 1.195 0 1 0 0-2.392A1.195 1.195 0 0 0 8 7.56Z" stroke="#E31D1C" stroke-width=".5"/><path d="M8 7.56a1.195 1.195 0 1 0 0-2.392A1.195 1.195 0 0 0 8 7.56Z" stroke="#FFD018" stroke-width=".5"/><path d="M8 7.56a1.195 1.195 0 1 0 0-2.392A1.195 1.195 0 0 0 8 7.56Z" stroke="#4EDD00" stroke-width=".5"/><path d="M8 7.56a1.195 1.195 0 1 0 0-2.392A1.195 1.195 0 0 0 8 7.56Z" stroke="#3D58DB" stroke-width=".5"/><path fill="#3D58DB" d="M6.509 6.109h3.127v.909H6.509z"/><path fill-rule="evenodd" clip-rule="evenodd" d="m6.718 6.495.624-.62.191.31.134-.377.148.283.156-.215.202.215.185-.283.158.283.181-.215.424.45.076.17-2.479.125v-.126Z" fill="#97C923"/></g></g></g><path fill="url(#NI - Nicaragua__e)" style="mix-blend-mode:overlay" d="M0 0h16v12H0z"/></g><defs><linearGradient id="NI - Nicaragua__e" x1="8" y1="0" x2="8" y2="12" gradientUnits="userSpaceOnUse"><stop stop-color="#fff" stop-opacity=".7"/><stop offset="1" stop-opacity=".3"/></linearGradient><clipPath id="NI - Nicaragua__a"><rect width="16" height="12" rx="1" fill="#fff"/></clipPath></defs></svg>