<svg fill="none" xmlns="http://www.w3.org/2000/svg" viewBox="0 0 16 12"><g clip-path="url(#NP - Nepal__a)"><path fill="#fff" d="M0 0h16v12H0z"/><path d="m5.616 6.32 4.316 5.18H.5V.842L9.04 5.5H4.931l.684.82Z" fill="#C51918" stroke="#4857A1"/><mask id="NP - Nepal__b" style="mask-type:alpha" maskUnits="userSpaceOnUse" x="0" y="0" width="11" height="12"><path d="m5.616 6.32 4.316 5.18H.5V.842L9.04 5.5H4.931l.684.82Z" fill="#fff" stroke="#fff"/></mask><g mask="url(#NP - Nepal__b)" fill-rule="evenodd" clip-rule="evenodd"><path d="m2.915 10.005-.613.795-.028-1.003-.963.283.567-.828-.946-.337.946-.337-.567-.828.963.283.028-1.004.613.796.612-.796.029 1.004.963-.283-.567.828.945.337-.945.337.567.828-.963-.283-.029 1.003-.612-.795ZM2.9 4.07l-.32.415-.015-.524-.503.148.296-.433-.493-.176.493-.176-.296-.433.503.148.015-.524.32.416.32-.416.015.524.503-.148-.296.433.493.176-.493.176.296.433-.503-.148-.015.524-.32-.416Z" fill="#F7FCFF"/><path d="M2.833 3.947c1.113.004 1.707-.627 1.707-.627.117.72-.79 1.2-1.696 1.2-.907 0-1.456-.653-1.794-1.2 0 0 .67.623 1.783.627Z" fill="#F9FAFA"/></g><path fill="url(#NP - Nepal__c)" style="mix-blend-mode:overlay" d="M0 0h16v12H0z"/></g><defs><linearGradient id="NP - Nepal__c" x1="8" y1="0" x2="8" y2="12" gradientUnits="userSpaceOnUse"><stop stop-color="#fff" stop-opacity=".7"/><stop offset="1" stop-opacity=".3"/></linearGradient><clipPath id="NP - Nepal__a"><rect width="16" height="12" rx="1" fill="#fff"/></clipPath></defs></svg>