<svg fill="none" xmlns="http://www.w3.org/2000/svg" viewBox="0 0 16 12"><g clip-path="url(#NR - Nauru__a)"><mask id="NR - Nauru__b" style="mask-type:alpha" maskUnits="userSpaceOnUse" x="0" y="0" width="16" height="12"><path fill="#fff" d="M0 0h16v12H0z"/></mask><g mask="url(#NR - Nauru__b)"><path fill-rule="evenodd" clip-rule="evenodd" d="M0 0v12h16V0H0Z" fill="#2E42A5"/><mask id="NR - Nauru__c" style="mask-type:alpha" maskUnits="userSpaceOnUse" x="0" y="0" width="16" height="12"><path fill-rule="evenodd" clip-rule="evenodd" d="M0 0v12h16V0H0Z" fill="#fff"/></mask><g mask="url(#NR - Nauru__c)" fill-rule="evenodd" clip-rule="evenodd"><path d="M0 4v2h16V4H0Z" fill="#FECA00"/><path d="m4.415 9.79-.773 1.003-.035-1.266-1.215.357.715-1.044-1.192-.425 1.192-.425-.715-1.045 1.215.357.035-1.265.773 1.003.772-1.003.036 1.265 1.214-.357-.714 1.045 1.192.425-1.192.425.714 1.044-1.214-.357-.036 1.266-.772-1.003Z" fill="#F7FCFF"/></g></g><path fill="url(#NR - Nauru__d)" style="mix-blend-mode:overlay" d="M0 0h16v12H0z"/></g><defs><linearGradient id="NR - Nauru__d" x1="8" y1="0" x2="8" y2="12" gradientUnits="userSpaceOnUse"><stop stop-color="#fff" stop-opacity=".7"/><stop offset="1" stop-opacity=".3"/></linearGradient><clipPath id="NR - Nauru__a"><rect width="16" height="12" rx="1" fill="#fff"/></clipPath></defs></svg>