<svg fill="none" xmlns="http://www.w3.org/2000/svg" viewBox="0 0 16 12"><g clip-path="url(#OM - Oman__a)"><mask id="OM - Oman__b" style="mask-type:alpha" maskUnits="userSpaceOnUse" x="0" y="0" width="16" height="12"><path fill="#fff" d="M0 0h16v12H0z"/></mask><g mask="url(#OM - Oman__b)"><path fill-rule="evenodd" clip-rule="evenodd" d="M0 0v12h16V0H0Z" fill="#F50101"/><mask id="OM - Oman__c" style="mask-type:alpha" maskUnits="userSpaceOnUse" x="0" y="0" width="16" height="12"><path fill-rule="evenodd" clip-rule="evenodd" d="M0 0v12h16V0H0Z" fill="#fff"/></mask><g mask="url(#OM - Oman__c)"><path fill-rule="evenodd" clip-rule="evenodd" d="M0 0v4h16V0H0Z" fill="#F7FCFF"/><path fill-rule="evenodd" clip-rule="evenodd" d="M0 8v4h16V8H0Z" fill="#5EAA22"/><path fill="#F50101" d="M0 0h6v12H0z"/><path fill-rule="evenodd" clip-rule="evenodd" d="M5.385 1.016C5.39.971 5.332.953 5.308.993a19.139 19.139 0 0 1-1.385 2v-.459c-.07-.077-.299-.286-.299-.286V1.79l.412-.373L3.471 1l-.597.417.451.373v.458c0 .22-.273.286-.273.286l-.05.404a18.687 18.687 0 0 1-1.315-1.924c-.023-.041-.083-.022-.076.025a6.71 6.71 0 0 0 .68 2.06h-.123v-.017a.043.043 0 0 0-.044-.044H1.07a.043.043 0 0 0-.043.044v.663c0 .024.02.043.043.043h1.054a.044.044 0 0 0 .044-.043v-.348H2.3a.299.299 0 0 0 .27.18c.084.13.175.26.275.388-.229-.023-1.74-.151-1.74.398 0 .328.368.502.829.592L.83 5.952c-.033.03-.007.08.036.07a7.127 7.127 0 0 0 2.2-.977h.029c.253 0 .428-.11.55-.258.914.745 1.947 1.09 2.396 1.213.046.013.071-.047.032-.075A13.587 13.587 0 0 1 4.048 4.18l.022-.026c.171-.202.32-.41.45-.619a.298.298 0 0 0 .124-.138h.133v.348c0 .024.02.043.043.043h1.054a.044.044 0 0 0 .044-.043v-.663a.043.043 0 0 0-.044-.044H4.82a.043.043 0 0 0-.029.012 6.178 6.178 0 0 0 .594-2.034Zm-.608 2.082v-.02l-.01.02h.01ZM2.82 3.28c0 .134-.11.242-.244.242a.243.243 0 0 1-.245-.242.244.244 0 0 1 .489 0Zm1.304 0c0 .134.11.242.245.242a.243.243 0 0 0 .245-.242.243.243 0 0 0-.245-.242.243.243 0 0 0-.245.242Z" fill="#F7FCFF"/></g></g><path fill="url(#OM - Oman__d)" style="mix-blend-mode:overlay" d="M0 0h16v12H0z"/></g><defs><linearGradient id="OM - Oman__d" x1="8" y1="0" x2="8" y2="12" gradientUnits="userSpaceOnUse"><stop stop-color="#fff" stop-opacity=".7"/><stop offset="1" stop-opacity=".3"/></linearGradient><clipPath id="OM - Oman__a"><rect width="16" height="12" rx="1" fill="#fff"/></clipPath></defs></svg>