<svg fill="none" xmlns="http://www.w3.org/2000/svg" viewBox="0 0 16 12"><g clip-path="url(#PA - Panama__a)"><mask id="PA - Panama__b" style="mask-type:alpha" maskUnits="userSpaceOnUse" x="0" y="0" width="16" height="12"><path fill="#fff" d="M0 0h16v12H0z"/></mask><g mask="url(#PA - Panama__b)"><path fill-rule="evenodd" clip-rule="evenodd" d="M0 0v12h16V0H0Z" fill="#F7FCFF"/><mask id="PA - Panama__c" style="mask-type:alpha" maskUnits="userSpaceOnUse" x="0" y="0" width="16" height="12"><path fill-rule="evenodd" clip-rule="evenodd" d="M0 0v12h16V0H0Z" fill="#fff"/></mask><g mask="url(#PA - Panama__c)" fill-rule="evenodd" clip-rule="evenodd"><path d="M8 0v6h8V0H8Zm3.51 9.575-1.15.712.446-1.196-.978-.905h1.187l.495-1.294.379 1.294h1.189l-.857.905.42 1.196-1.13-.712Z" fill="#E31D1C"/><path d="m4.51 4.182-1.15.713.446-1.196-.978-.905h1.187L4.51 1.5l.379 1.294h1.189l-.857.905.42 1.196-1.13-.713ZM0 6v6h8V6H0Z" fill="#2E42A5"/></g></g><path fill="url(#PA - Panama__d)" style="mix-blend-mode:overlay" d="M0 0h16v12H0z"/></g><defs><linearGradient id="PA - Panama__d" x1="8" y1="0" x2="8" y2="12" gradientUnits="userSpaceOnUse"><stop stop-color="#fff" stop-opacity=".7"/><stop offset="1" stop-opacity=".3"/></linearGradient><clipPath id="PA - Panama__a"><rect width="16" height="12" rx="1" fill="#fff"/></clipPath></defs></svg>