<svg fill="none" xmlns="http://www.w3.org/2000/svg" viewBox="0 0 16 12"><g clip-path="url(#PF - French Polynesia__a)"><mask id="PF - French Polynesia__b" style="mask-type:alpha" maskUnits="userSpaceOnUse" x="0" y="0" width="16" height="12"><path fill="#fff" d="M0 0h16v12H0z"/></mask><g mask="url(#PF - French Polynesia__b)"><path fill-rule="evenodd" clip-rule="evenodd" d="M0 0v12h16V0H0Z" fill="#F7FCFF"/><mask id="PF - French Polynesia__c" style="mask-type:alpha" maskUnits="userSpaceOnUse" x="0" y="0" width="16" height="12"><path fill-rule="evenodd" clip-rule="evenodd" d="M0 0v12h16V0H0Z" fill="#fff"/></mask><g mask="url(#PF - French Polynesia__c)"><path fill-rule="evenodd" clip-rule="evenodd" d="M0 0v3h16V0H0Zm0 9v3h16V9H0Z" fill="#BF2714"/><mask id="PF - French Polynesia__d" style="mask-type:alpha" maskUnits="userSpaceOnUse" x="5" y="3" width="6" height="6"><path fill-rule="evenodd" clip-rule="evenodd" d="M8 9a3 3 0 1 0 0-6 3 3 0 0 0 0 6Z" fill="#fff"/></mask><g mask="url(#PF - French Polynesia__d)"><path fill-rule="evenodd" clip-rule="evenodd" d="m7.019 6.688.22-3.613C5.95 3.339 5 4.314 5 6.102c0 .943.627.831 1.553.665.148-.026.304-.054.466-.08Zm1.428-3.661.511 3.672c.185.034.361.072.528.109.904.197 1.514.33 1.514-.706 0-1.845-1.108-2.898-2.553-3.075Z" fill="#FA8F21"/><path fill-rule="evenodd" clip-rule="evenodd" d="M8 9c1.657 0 3-.895 3-2S9.657 5 8 5s-3 .895-3 2 1.343 2 3 2Z" fill="#5277B9"/><path fill-rule="evenodd" clip-rule="evenodd" d="M5.274 6.882a.098.098 0 0 1 .143-.115l.187.109a.098.098 0 0 0 .091.004l.462-.216a.098.098 0 0 1 .099.01l.498.359.689-.371a.098.098 0 0 1 .086-.004l.518.226c.027.011.056.01.082-.002l.466-.224a.098.098 0 0 1 .079-.003l.575.23c.026.01.056.01.08-.003l.447-.22a.098.098 0 0 1 .089 0l.409.215c.03.015.065.015.094-.002l.213-.12a.098.098 0 0 1 .143.11l-.044.168H5.322l-.048-.15Zm-.002.593a.098.098 0 0 1 .145-.113l.17.102a.098.098 0 0 0 .094.005l.438-.213a.098.098 0 0 1 .102.01l.478.357.662-.37a.098.098 0 0 1 .088-.003l.495.223a.098.098 0 0 0 .085-.002l.443-.221a.098.098 0 0 1 .082-.003l.55.227a.1.1 0 0 0 .083-.003l.424-.218a.098.098 0 0 1 .092.001l.389.211c.03.017.067.016.097-.001l.195-.115a.098.098 0 0 1 .145.11l-.042.164H5.318l-.046-.148Zm.098.394a.098.098 0 0 1 .146-.113l.17.102a.098.098 0 0 0 .093.004l.439-.213a.098.098 0 0 1 .102.01l.478.357.661-.369a.098.098 0 0 1 .089-.004l.495.223a.098.098 0 0 0 .084-.002l.444-.221a.098.098 0 0 1 .081-.003l.55.228a.1.1 0 0 0 .083-.004l.425-.217a.098.098 0 0 1 .092 0l.388.212c.03.016.067.016.097-.002l.195-.114a.098.098 0 0 1 .145.109l-.042.164H5.416l-.045-.147Zm.591.393a.098.098 0 0 1 .145-.113l.17.102a.098.098 0 0 0 .093.004l.439-.212a.098.098 0 0 1 .102.01l.478.357.662-.37a.098.098 0 0 1 .088-.003l.495.223a.098.098 0 0 0 .084-.002l.444-.222a.098.098 0 0 1 .081-.002l.55.227a.1.1 0 0 0 .083-.003l.425-.218a.098.098 0 0 1 .092.001l.389.211c.03.017.066.016.096-.001l.195-.115a.098.098 0 0 1 .145.11l-.042.164H6.006l-.045-.148Zm-.787.492a.098.098 0 0 1 .145-.113l.17.102a.098.098 0 0 0 .093.004l.439-.213a.098.098 0 0 1 .102.01l.478.358.662-.37a.098.098 0 0 1 .088-.003l.495.222a.098.098 0 0 0 .084-.001l.444-.222a.098.098 0 0 1 .082-.003l.55.228c.026.011.056.01.082-.003l.425-.218a.098.098 0 0 1 .092 0l.389.212c.03.016.067.016.096-.002l.195-.114a.098.098 0 0 1 .146.11l-.043.164H5.22l-.046-.148Z" fill="#5277B9"/><path d="M6.334 4.723h.5l-.012 1.976c.084.266.204.37.39.37v.5c-.423 0-.722-.26-.878-.795V4.723Zm3.262 0h-.5l.011 1.976c-.083.266-.203.37-.389.37v.5c.422 0 .721-.26.878-.795V4.723Z" fill="red"/><path fill-rule="evenodd" clip-rule="evenodd" d="M8.362 3.454s-.829-.217-.829.333v1.731l.967.288V4.39s-.484-.296-.484-.527c0-.23.346-.41.346-.41Z" fill="red"/><path d="m6.967 6.445.315-.403m-.028.39-.302-.405m.468.418.315-.403m-.028.39-.302-.405m.447.418.315-.403m-.027.39-.303-.405m.468.418.315-.403m-.028.39-.302-.405m.467.418.315-.403m-.027.39-.303-.405" stroke="#000" stroke-width=".5"/></g></g></g><path fill="url(#PF - French Polynesia__e)" style="mix-blend-mode:overlay" d="M0 0h16v12H0z"/></g><defs><linearGradient id="PF - French Polynesia__e" x1="8" y1="0" x2="8" y2="12" gradientUnits="userSpaceOnUse"><stop stop-color="#fff" stop-opacity=".7"/><stop offset="1" stop-opacity=".3"/></linearGradient><clipPath id="PF - French Polynesia__a"><rect width="16" height="12" rx="1" fill="#fff"/></clipPath></defs></svg>