<svg fill="none" xmlns="http://www.w3.org/2000/svg" viewBox="0 0 16 12"><g clip-path="url(#PM-UNF - St. Pierre &amp; z__a)"><path fill="#C00" d="M0 0h4v4H0z"/><path d="M4 .52V0h-.49L0 3.48V4h.49L4 .52Z" fill="#08672F"/><path d="M0 .52V0h.49L4 3.48V4h-.499L0 .52Z" fill="#08672F"/><path d="M0 1.604 4 1.6v.796L0 2.4v-.796Z" fill="#fff"/><path d="M1.6 0h.796L2.4 4h-.796L1.6 0ZM0 4h4v4H0V4Z" fill="#fff"/><path fill="#000" d="M1.2 4.8h.5v.5h-.5zm0 2h.5v.5h-.5zm0-1h.5v.5h-.5zM1 8h.5v.5H1zm1.2-2.2h.5v.5h-.5zM2 8h.5v.5H2zm.2-3.2h.5v.5h-.5zm0 2h.5v.5h-.5z"/><path d="M0 12h4V8H0v4Z" fill="#C00"/><path d="M4 0h12v12H4V0Z" fill="#0092C8"/><path d="M1.335 9.077c-.038-.046 0-.131.033-.095-.017-.035.012-.062.025-.045-.006-.028.022-.047.035-.02-.004-.032.037-.05.048-.016 0-.031.041-.056.05-.01.008-.035.053-.04.057.01.013-.03.047-.027.049.015.014-.02.052.01.046.045.023-.006.052.044.023.08.05-.028.063.064.032.106.016.01.017.001.031.01.014.007.04.02.063.025.02 0 .098-.003.114-.005.015-.003.037-.011.063-.02.027-.01.066-.01.101-.02.029-.003.82.014.843.012.022-.003.056-.026.054-.054-.002-.028-.028-.049-.054-.051a1.499 1.499 0 0 0-.186.002.168.168 0 0 0-.077.036c-.008.006-.022.028-.034.042-.011.01-.042.011-.042-.002 0-.008-.003.002-.01.005-.01.007-.055.008-.053 0 .003-.01 0-.012-.012-.002a.15.15 0 0 1-.082.002c.006-.012.006-.01-.012-.001-.012.005-.06.01-.064 0 0-.01-.006-.005-.013-.003-.055.016-.06-.002-.052-.01.009-.007.022-.051.008-.049l-.131.026c-.03.005-.246 0-.275-.003-.03-.002-.063-.032-.065-.074-.003-.067.049-.084.08-.094a.69.69 0 0 1 .142-.026c.032 0 .122.012.146.002a.817.817 0 0 1 .12-.041c.031-.003.12.008.163.062-.022.01-.033.016-.008.007l.143-.032c.08-.004.059.009.02.019-.013.043-.129.104-.165.111a.516.516 0 0 1-.133-.001c-.017-.002-.1-.006-.13-.026a.378.378 0 0 0-.178-.057c-.037 0-.143.012-.142.05 0 .069.098.072.14.07.042-.003.147-.008.177-.02a.426.426 0 0 1 .129-.017c.035 0 .086.009.102.006.016-.003.052-.003.07-.016a.178.178 0 0 1 .094-.026c.039 0 .324-.012.363-.01.056 0 .095.065.096.12 0 .025-.012.063-.022.069a.59.59 0 0 1 .075.01c.027.005.07.036.075.065a.2.2 0 0 0-.083-.035l-.678-.001a.356.356 0 0 1 .26.187c.023.038.08.023.1.018.021-.005.046-.028.063-.046.018-.018.045-.023.057-.018.028-.003.032.028.022.043-.01.016.002.01.03.01.028 0 .052.01.069.033-.016.016-.024.003-.001.006.023.002.05.046.033.059-.015.007-.019.005 0 .007.029.003.037.022.04.057-.024.005-.012-.003 0 .01.013.012.03.069-.013.071-.016-.008-.016-.01-.013.008.004.018-.005.061-.03.061-.033.007-.064-.013-.068-.036-.003-.023-.003.045-.051.055-.045.01-.07-.016-.073-.03-.004-.012-.002-.002-.02-.004-.017-.003-.039-.003-.048-.033 0-.018.003-.042.034-.045.014-.003.018-.022.008-.024-.01-.003-.002-.041.02-.031.023.01.076.013.088.025.012.013.016-.01-.003-.03-.02-.02-.137-.062-.168-.046a.423.423 0 0 1-.218.028c-.02-.005-.081.009-.11-.084a.204.204 0 0 0-.152-.148c-.198-.02-.188-.004-.059.002 0 .018-.005.054.016.06.035-.005.108-.022.125-.006.018.015.035.028.032.064-.004.035.001.025-.014.04-.016.016-.01.046.015.057.025.01.035.023.051.038.016.015-.007.046-.02.036-.015-.01-.015-.01-.017.01-.001.02-.019.059-.048.062-.007-.003-.005-.013-.004-.021.002-.018-.006.022-.015.033-.006.008-.056.022-.07.015.007-.016.003-.01-.01-.002-.011.005-.076.014-.047-.018.007-.012-.01.015-.02.02-.008.005-.047.008-.047-.007-.012.01-.04.01-.045.002-.009-.01-.01.008-.025.01-.016.003-.05-.002-.052-.023-.002-.02.003-.007-.016-.005-.047.033-.07-.012-.07-.028 0-.015-.002-.033.004-.043.005-.01-.033-.014-.022-.034.014-.024.027-.042.053-.038.012.003.01-.005.005-.015-.005-.01.014-.015.037-.005.023.01.039.036.046.059.007.023.06.005.084.007.022.003.024-.038.01-.05-.014-.014-.052-.06-.068-.075-.016-.015-.005-.069.009-.082.081-.058.036-.076.007-.071a.315.315 0 0 0-.131.065c-.025.028-.215.166-.233.181-.017.016-.043.02-.053.002-.01-.018-.018-.006-.016.02.014.096-.068.127-.083.126a.07.07 0 0 1-.034-.016c-.01.054-.056.06-.097.054 0-.006.008-.018.003-.014-.013.019-.054.017-.09.014-.002-.011.012-.025.005-.017-.012.023-.032.02-.066.017 0-.005.016-.022.008-.012-.014.017-.045.011-.068.012-.003-.004.012-.03-.002-.013-.013.015-.04.018-.067.014-.005-.013.006-.013.008-.021.007-.013-.003 0-.012 0-.009 0-.02.003-.026-.01-.005-.013-.002.013-.007.02-.006.006-.011.02-.029.025-.017.005-.063.01-.07-.013-.01-.01-.014-.033-.007-.046.007-.013-.033.025-.05.028-.052.01-.058-.074-.036-.082.023-.007.02-.02.007-.03C.967 9.59.96 9.55.976 9.537c.016-.013.052-.02.075-.005.014.01.043.043.037.018-.004-.016.006-.036.017-.045.01-.009.04-.011.048.009.018.047.031.067.054.066a.832.832 0 0 1 .133-.03c.025-.006.156-.02.156-.032-.079.029-.11-.008-.12-.006-.008.003-.03-.008-.03-.015 0-.016.02-.014-.008-.009-.016-.001-.031-.002-.046-.02-.002-.01.02-.042.027-.07-.018-.005-.058.03-.072.06-.009-.012-.012-.001-.045.007a.07.07 0 0 1-.055-.003c-.014-.007-.069-.051-.042-.057l-.02-.007c-.02-.009-.038-.026-.032-.03-.005-.008.005-.008-.003-.01-.01-.002-.036-.022-.03-.03l-.028-.015C.979 9.305.967 9.28.965 9.266c-.011.001-.035-.021-.024-.028C.922 9.224.907 9.2.919 9.192c-.01-.009-.018-.025-.01-.019-.012-.014-.008-.03 0-.03.009 0 .006-.04-.01-.04s-.041.013-.06 0c-.015-.013-.028-.067-.014-.09.014-.023.042-.048.056-.046.014.003.007.008.004-.015-.004-.023.02-.04.035-.046.018-.009.054-.003.065.008.01.01.014.01.014-.008 0-.013.013-.02.025-.022.02-.005.036 0 .043.01.01.016.017.035.003.05-.014.016-.001.003.021-.003.015-.005.041.002.046.019.006.017.01.048-.005.063-.016.016-.039.054-.027.067.013.013.051.069.06.077.009.007.02.025.033.023l.042-.008c.049-.01.07-.016.008-.014.014-.02.044-.027.057-.03-.012-.018.03-.056.03-.06Zm0 1.393c-.038-.047 0-.132.033-.096-.017-.035.012-.062.025-.045-.006-.028.022-.047.035-.02-.004-.032.037-.05.048-.016 0-.031.041-.056.05-.01.008-.035.053-.04.057.01.013-.03.047-.027.049.015.014-.02.052.01.046.044.023-.005.052.045.023.082.05-.029.063.064.032.105.016.01.017.002.031.01a.27.27 0 0 0 .063.025c.02 0 .098-.003.114-.005.015-.003.037-.012.063-.02.027-.01.066-.01.101-.02.029-.003.82.014.843.012.022-.003.056-.026.054-.054-.002-.028-.028-.049-.054-.051a1.489 1.489 0 0 0-.186.002.169.169 0 0 0-.077.036c-.008.006-.022.027-.034.042-.011.01-.042.011-.042-.002 0-.008-.003.002-.01.005-.01.007-.055.008-.053 0 .003-.01 0-.012-.012-.002a.149.149 0 0 1-.082.002c.006-.012.006-.01-.012-.001-.012.005-.06.01-.064 0 0-.01-.006-.005-.013-.003-.055.016-.06-.002-.052-.01.009-.007.022-.051.008-.049l-.131.026c-.03.005-.246 0-.275-.003-.03-.002-.063-.032-.065-.074-.003-.067.049-.084.08-.094a.692.692 0 0 1 .142-.026c.032 0 .122.012.146.002a.83.83 0 0 1 .12-.041c.031-.003.12.008.163.062-.022.01-.033.016-.008.007l.143-.032c.08-.004.059.009.02.019-.013.043-.129.104-.165.111a.522.522 0 0 1-.133-.001c-.017-.002-.1-.006-.13-.027a.379.379 0 0 0-.178-.056c-.037 0-.143.012-.142.05 0 .069.098.072.14.07.042-.003.147-.008.177-.02a.429.429 0 0 1 .129-.017c.035 0 .086.009.102.006.016-.002.052-.003.07-.016a.178.178 0 0 1 .094-.026c.039 0 .324-.012.363-.01.056 0 .095.065.096.12 0 .025-.012.063-.022.069a.59.59 0 0 1 .075.01c.027.005.07.036.075.065a.201.201 0 0 0-.083-.035l-.678-.001a.357.357 0 0 1 .26.187c.023.038.08.023.1.018.021-.005.046-.028.063-.046.018-.018.045-.023.057-.018.028-.003.032.028.022.043-.01.015.002.01.03.01.028 0 .052.01.069.033-.016.016-.024.003-.001.006.023.002.05.046.033.059-.015.007-.019.005 0 .007.029.003.037.022.04.057-.024.005-.012-.003 0 .01.013.012.03.069-.013.071-.016-.008-.016-.01-.013.008.004.018-.005.061-.03.061-.033.007-.064-.013-.068-.036-.003-.023-.003.045-.051.055-.045.011-.07-.016-.073-.03-.004-.012-.002-.002-.02-.004-.017-.003-.039-.003-.048-.034 0-.017.003-.04.034-.044.014-.003.018-.022.008-.024-.01-.003-.002-.041.02-.031.023.01.076.013.088.025.012.013.016-.01-.003-.03-.02-.02-.137-.061-.168-.046a.422.422 0 0 1-.218.028c-.02-.005-.081.009-.11-.084a.204.204 0 0 0-.152-.148c-.198-.02-.188-.004-.059.002 0 .018-.005.054.016.06.035-.005.108-.022.125-.006.018.015.035.028.032.063-.004.036.001.026-.014.041-.016.016-.01.046.015.057.025.01.035.023.051.038.016.015-.007.046-.02.036-.015-.01-.015-.01-.017.01-.001.02-.019.059-.048.062-.007-.003-.005-.013-.004-.021.002-.018-.006.022-.015.033-.006.008-.056.022-.07.015.007-.016.003-.01-.01-.002-.011.005-.076.014-.047-.018.007-.012-.01.015-.02.02-.008.005-.047.008-.047-.007-.012.01-.04.01-.045.002-.009-.01-.01.008-.025.01-.016.003-.05-.002-.052-.023-.002-.02.003-.007-.016-.005-.047.033-.07-.012-.07-.028 0-.015-.002-.033.004-.043.005-.01-.033-.014-.022-.034.014-.024.027-.042.053-.038.012.003.01-.005.005-.015-.005-.01.014-.015.037-.005.023.01.039.036.046.059.007.022.06.005.084.007.022.003.024-.038.01-.05-.014-.014-.052-.06-.068-.075-.016-.015-.005-.069.009-.082.081-.058.036-.076.007-.071a.315.315 0 0 0-.131.065c-.025.028-.215.166-.233.181-.017.016-.043.02-.053.002-.01-.018-.018-.005-.016.02.014.096-.068.127-.083.126a.07.07 0 0 1-.034-.016c-.01.054-.056.06-.097.054 0-.007.008-.018.003-.014-.013.019-.054.017-.09.014-.002-.011.012-.025.005-.017-.012.023-.032.02-.066.017 0-.005.016-.022.008-.012-.014.017-.045.011-.068.012-.003-.004.012-.03-.002-.013-.013.015-.04.018-.067.014-.005-.013.006-.013.008-.021.007-.013-.003 0-.012 0-.009 0-.02.002-.026-.01-.005-.013-.002.013-.007.02-.006.005-.011.02-.029.025-.017.005-.063.01-.07-.013-.01-.01-.014-.033-.007-.046.007-.013-.033.025-.05.028-.052.01-.058-.074-.036-.082.023-.007.02-.02.007-.03-.012-.01-.019-.051-.003-.064.016-.013.052-.02.075-.005.014.01.043.043.037.018-.004-.016.006-.036.017-.044.01-.01.04-.012.048.008.018.047.031.067.054.066a.84.84 0 0 1 .133-.03c.025-.006.156-.02.156-.032-.079.029-.11-.008-.12-.006-.008.003-.03-.008-.03-.015 0-.016.02-.014-.008-.009-.016-.001-.031-.002-.046-.02-.002-.01.02-.042.027-.07-.018-.005-.058.03-.072.06-.009-.012-.012-.001-.045.007a.07.07 0 0 1-.055-.003c-.014-.007-.069-.051-.042-.057a.069.069 0 0 0-.02-.007c-.02-.009-.038-.026-.032-.03-.005-.008.005-.008-.003-.01-.01-.002-.036-.022-.03-.03l-.028-.015c-.013-.008-.025-.034-.027-.047-.011.001-.035-.021-.024-.028-.019-.014-.034-.038-.022-.046-.01-.009-.018-.025-.01-.019-.012-.014-.008-.03 0-.03.009 0 .006-.04-.01-.04s-.041.013-.06 0c-.015-.013-.028-.067-.014-.09.014-.023.042-.048.056-.046.014.003.007.008.004-.015-.004-.023.02-.04.035-.046.018-.009.054-.003.065.008.01.01.014.01.014-.008 0-.013.013-.02.025-.023.02-.004.036.002.043.01.01.017.017.036.003.051-.014.016-.001.003.021-.002.015-.006.041.001.046.018.006.018.01.048-.005.063-.016.016-.039.054-.027.067.013.013.051.069.06.077.009.007.02.025.033.023l.042-.008c.049-.01.07-.016.008-.014.014-.02.044-.027.057-.03-.012-.018.03-.056.03-.06Z" fill="#FFCF00" stroke="#650000" stroke-width=".05"/><path fill-rule="evenodd" clip-rule="evenodd" d="M9.823 1.549a1.96 1.96 0 0 1 .646-.034c.032.007.09.012.149.018.095.009.19.018.176.03a1.446 1.446 0 0 0-.148.396c0 .021.755.546.787.546.042 0 .106.076.089.106a1.055 1.055 0 0 1-.104.105c-.046.044-.122.27-.194.522a.672.672 0 0 1 .165-.135 64.84 64.84 0 0 0 1.365-1.036c.032-.023-.048-.038-.215-.036a1.828 1.828 0 0 0-.42.057c-.225.057-.393-.118-.464-.193a.278.278 0 0 0-.032-.03c-.063-.043-.154-.174-.154-.223 0-.01.061-.002.141.02.186.052.35.05.562-.005.19-.049.392-.06.605-.034l.028.004c.038.007.063.01.078.01.014.092.105.389.122.403.034.03.779.323.836.33.084.01.118.044.118.116 0 .07-.086.135-.209.158-.143.028-.502.442-.753.87-.17.287-.262.5-.262.604 0 .106.063.51.129.817.04.182.05.213.072.184.023-.03.086-.034.508-.034h.486l.164-.286c.09-.158.163-.291.158-.294a9.552 9.552 0 0 0-.546-.044 19.24 19.24 0 0 1-.545-.04 8.777 8.777 0 0 1 .23-.43l.235-.422.477.08.148.025h.001c.2.034.361.06.387.066.046.008.063 0 .1-.066a.41.41 0 0 0 .027-.058v.01c-.005.137-.02.483-.168.77l-.365.695v.48h-.084a.449.449 0 0 0-.084.005l.017.099.014.085a.63.63 0 0 1 .02.171c-.007.01-.062.02-.121.02l-.11.001-.061.16a6.549 6.549 0 0 1-.618.997l-.051.065.118.055c.167.076.34.258.454.478.089.174.093.186.093.37 0 .18-.049.41-.089.413l-.51.078-.233.036c-.4.061-.738.108-.753.103-.044-.016-.15-.194-.186-.31l-.013-.043c-.014-.044-.026-.082-.031-.093-.004-.017-.087.013-.255.1a3.44 3.44 0 0 1-.853.306 3.73 3.73 0 0 1-2.07-.127 6.052 6.052 0 0 1-.84-.416c-.39-.241-.55-.383-1.203-1.066-.211-.22-.266-.264-.41-.336-.145-.072-.187-.083-.314-.083-.118 0-.15-.006-.175-.04-.053-.074-.032-.16.07-.27 0 0 .031-.072.02-.079l-.247-.16c-.19-.098.499-1.244.784-1.544.139-.148.145-.157.145-.258 0-.203.13-.603.266-.836.064-.105.07-.124.049-.173-.04-.089 0-.14.257-.324.511-.365.809-.59.817-.615.015-.047-.207-.03-.378.03-.342.12-.65.148-.797.071-.068-.033-.171-.152-.171-.196 0-.007.07-.007.156 0 .064.004.052-.1.04-.193a.829.829 0 0 1-.006-.086c0-.03.002-.053.006-.053l.066.023.022.009c.15.052.378.04.67-.04.143-.04.324-.079.4-.087 0 0 .43-.08.368-.013-.034.036-.07.127-.104.256-.03.11-.05.2-.05.203l.065.013.424.086c.32.066.509.095.555.087.08-.017.131.017.131.087 0 .059-.042.095-.211.173a1.796 1.796 0 0 0-.264.16 3.833 3.833 0 0 0-.618.648.642.642 0 0 0-.099.166c-.01.037-.01.078-.01.153 0 .178.041.449.096.635l.034.116.059-.159a2.51 2.51 0 0 1 .325-.62c.095-.13.112-.166.084-.177-.044-.017 0-.188.038-.211.038-.024.292-.248.562-.502l.49-.46v-.123c0-.119.001-.123.065-.136a1.06 1.06 0 0 1 .143-.012c.061-.002.1-.024.203-.117.067-.063.118-.122.107-.13a.629.629 0 0 0-.187-.024c-.137-.006-.23.006-.45.057-.31.074-.462.08-.605.032-.1-.034.048-.093.14-.119 0 0-.219-.378-.185-.368.291.09.412.093.663.03Zm4.95 2.02c-.004-.011-.005.007-.006.047.007-.02.01-.038.007-.047ZM12.89 1.615c-.007-.008-.009.001-.006.023.02 0 .02-.006.006-.023Zm-1.694 1.728c-.093.333-.174.674-.174.674l.074-.16c.04-.09.1-.451.1-.506v-.008Zm.188-.762-.002-.001.002.001Zm-.002-.001c-.043-.028-.771-.54-.771-.54l-.025.084c-.024.08.595.363.759.439l.037.017Zm-2.74-.168c.443.09.452.093.37.116l-.213.06-.258.073-.41.115.015-.057c.047-.195.101-.383.112-.383.008 0 .18.034.384.076Zm-.739.427.043-.152.052-.178c.007-.013.007-.025.005-.025-.007 0-.69.501-.707.516a.563.563 0 0 0 .135-.03l.308-.087.164-.044Zm3.084 1.273-.053.174a4.38 4.38 0 0 0-.142.691.661.661 0 0 1-.11.336 1.565 1.565 0 0 0-.103.2c-.056.129-.062.036-.071-.259a3.673 3.673 0 0 1 .078-.941c.044-.2.316-.374.346-.313l.055.112Zm-2.661.685c.016-.072.01-.116-.032-.24a2.302 2.302 0 0 1-.118-.555c.004-.21-.018-.224-.097-.023-.135.302-.165.433-.165.746 0 .172.01.322.027.375.024.08.034.09.09.09h.062v.265c0 .22-.004.264-.031.264-.045 0-.04.024.023.174.101.243.633.81.58.706-.173-.357-.422-1.083-.382-1.487.013-.124.032-.268.043-.315Zm4.524.385c.027.108.027.127-.01.237l-.014.04c-.025.075-.063.19-.109.241-.1.11-.101.112-.127.066-.1-.193-.139-.681-.075-1.013.027-.146.135-.535.147-.535.004 0 .017.078.032.173.027.195.11.614.156.791ZM6.647 4.51l.137.467s-.188-.391-.192-.431l.055-.036Zm1.234.662c0 .01-.086.019-.192.019h-.192l-.525.008c.003-.014.15-.074.321-.145l.104-.043c.197.01.393.023.413.049a.49.49 0 0 1 .071.112Zm-.484-.16-.08-.005c-.171-.008-.327-.016-.345-.03l.616-.125.235-.047c-.009.03-.217.12-.426.206Zm-.391.707-.138-.215c0-.176-.008-.24-.046-.328a.553.553 0 0 0-.067-.135c-.004 0-.03.1-.068.247l-.095.357-.158.58.063.023c.036.013.16.078.276.148.119.07.23.127.25.127.067 0 .075-.087.033-.267a1.877 1.877 0 0 1-.046-.35l-.004-.187Zm3.821.176c.049.245.137.476.275.717.065.114.116.211.111.215a.778.778 0 0 1-.255.043c-.03-.02-.148-.275-.228-.495-.09-.248-.173-.59-.158-.654.006-.03.053-.135.101-.234l.087-.18.017.207c.008.114.03.286.05.38Zm1.682.03c.005-.036-.019-.058-.101-.1-.11-.055-.403.125-.403.125.067.14.251.383.3.383.012 0 .095-.064.185-.142.175-.152.194-.203.083-.214-.057-.006-.068-.014-.064-.053Zm-.264.46-.054.039c-.074.05-.56.29-.57.28a6.056 6.056 0 0 1 .114-.422l.103-.148c.021.04.081.055.143.07.055.014.11.027.142.059l.123.122Zm-.966.379a5.63 5.63 0 0 0 .127-.364c.059-.19-.136-.044-.16.127-.016.112.005.265.033.237Zm-2.3-.379c-.049.15-.097.284-.106.292-.008.01-.053 0-.099-.023-.07-.036-.087-.057-.11-.15-.025-.104-.025-.112.028-.203a.457.457 0 0 1 .278-.22c.114-.028.12-.028.11.002-.005.01-.03.086-.063.186l-.038.116Zm.69.305a1.821 1.821 0 0 1-.15-.391c-.03-.144-.044-.176-.082-.186-.085-.024-.093-.013-.148.171l-.068.22-.04.127-.05.163.215.044c.116.023.262.05.323.057l.11.013-.11-.218Zm.234-.4.22.106-.098.11a.789.789 0 0 0-.133.207.579.579 0 0 1-.048.112c-.038.043-.274-.507-.274-.636 0-.045.078-.02.333.101Zm.68.635.263-.02c.043-.004-.268-.238-.5-.38a1.326 1.326 0 0 0-.152-.087.818.818 0 0 0-.093.093.69.69 0 0 0-.179.322l-.013.065.216.013c.118.006.325.002.458-.006Z" fill="#FFCF00"/><path d="m10.469 1.515.03-.147h-.005l-.025.147Zm-.646.034-.037-.145.037.145Zm.795-.016.014-.15-.014.15Zm.176.03-.101-.11-.002.002.103.109Zm.728 1.048.125.083.005-.009-.13-.074Zm-.104.105-.101-.11.101.11Zm-.194.522-.144-.041.266.129-.122-.088Zm.165-.135-.084-.124.084.124Zm1.365-1.036-.089-.12-.004.003.093.117Zm-.215-.036-.002-.15.002.15Zm-.42.057-.036-.145.036.145Zm-.464-.193-.113.1.004.003.109-.103Zm0 0 .112-.1-.002-.002-.11.102Zm0 0 .11-.102-.002-.002-.109.104Zm-.032-.03.083-.126-.083.125Zm-.013-.204.041-.144h-.002l-.039.144Zm.562-.004-.038-.145.038.145Zm.605-.034.024-.148h-.006l-.018.148Zm.028.004.026-.147h-.002l-.024.147Zm0 0-.026.148h.002l.024-.147Zm.2.413.1-.113-.006-.004-.094.117Zm.836.33.019-.15h-.002l-.017.15Zm-.09.274-.029-.147.028.147Zm-.754.87-.13-.076.13.076Zm-.133 1.42-.147.032v.001l.147-.032Zm.072.185-.119-.093-.004.006.123.087Zm.994-.034v.15h.086l.043-.075-.13-.075Zm.164-.286.13.075-.13-.075Zm.158-.294-.106.107.018.017.021.01.067-.134Zm-.546-.044-.01.15.01-.15Zm-.545-.04-.134.067.023.045.044.022.067-.134Zm.23-.43-.13-.072.13.073Zm.235-.422.025-.148-.105-.018-.052.093.132.073Zm.477.08-.025.148.025-.148Zm.148.025-.024.148.024-.148Zm0 0-.024.148.025-.148Zm.001 0 .025-.148-.025.148Zm0 0 .025-.148-.024.148Zm0 0-.024.148.025-.148Zm0 0 .025-.148-.024.148Zm.387.066-.03.147h.003l.027-.147Zm.1-.066.13.076.002-.003-.131-.073Zm.027-.048-.15-.006.15.006Zm-.168.77.133.07v-.001l-.133-.07Zm-.365.695-.132-.07-.018.033v.037h.15Zm0 .48v.15h.15v-.15h-.15Zm-.152.104.148-.026-.147.026Zm.015.085.148-.026-.148.026Zm.02.171-.12-.09-.005.006-.005.007.13.077Zm-.121.02V5.8h-.003l.003.15Zm-.11.001-.003-.15-.1.002-.037.095.14.053Zm-.061.16.137.062.003-.008-.14-.053Zm-.618.997.118.091.002-.001-.12-.09Zm-.051.065-.119-.091-.114.148.17.08.063-.137Zm.118.055-.063.136.063-.136Zm.454.478.133-.068-.133.068Zm.004.783-.008-.15h-.014l-.014.004.036.146Zm-.51.078-.023-.148.023.148Zm-.233.036-.022-.148.022.148Zm-.753.103-.054.141.013.004.04-.145Zm-.186-.31.144-.045v-.001l-.144.046Zm-.013-.043.143-.046-.001-.002-.143.048Zm0 0-.144.044.001.003.143-.047Zm0 0 .143-.045-.143.045Zm-.031-.093-.146.037.003.011.005.011.138-.059Zm-.255.1.067.134h.001l-.068-.134Zm-.853.306.033.147-.033-.147Zm-2.07-.127-.052.141h.001l.05-.14Zm-.84-.416.079-.128-.08.128ZM6.784 7.058l.108-.104-.108.104Zm-.41-.336.068-.134H6.44l-.066.134Zm-.489-.123-.122.087.002.003.12-.09Zm.07-.27.11.101.017-.018.01-.023-.137-.06Zm.02-.079-.081.126.081-.126Zm-.247-.16.082-.126-.006-.005-.007-.003-.069.133Zm.784-1.544.109.103-.11-.103Zm.411-1.094-.128-.077v.001l.128.076Zm.049-.173.137-.06v-.002l-.137.062Zm.257-.324.087.122-.087-.122Zm.817-.615.142.047v-.002l-.142-.045Zm-.378.03-.049-.142.05.142Zm-.797.071.068-.133h-.001l-.067.133Zm-.015-.196.01-.15-.01.15Zm.04-.193-.149.014v.004l.15-.018Zm0 0 .15-.014v-.003l-.15.017Zm.066-.116.051-.14-.051.14Zm0 0-.052.141.052-.14Zm0 0 .051-.14-.051.14Zm0 0-.052.141.052-.14Zm0 0 .052-.14h-.001l-.051.14Zm0 0-.052.14v.001l.052-.14Zm.022.009-.051.14.002.001.05-.141Zm.67-.04.04.144-.04-.145Zm.4-.087.017.15.01-.003-.027-.147Zm.368-.013.109.103-.11-.103Zm-.104.256.145.039v-.001l-.145-.038Zm-.05.203h-.15v.15h.15v-.15Zm.065.013-.03.147.03-.147Zm0 0 .03-.147-.03.147Zm.424.086.03-.147-.03.147Zm.555.087.027.148.004-.001-.03-.147Zm-.08.26-.063-.136h-.001l.064.136Zm-.264.16.09.12-.09-.12Zm-.618.648.123.086-.123-.086Zm-.099.166.144.042-.144-.042Zm.086.788.144-.042-.144.042Zm.034.116-.144.042.126.435.159-.425-.141-.052Zm.059-.159.14.053.001-.001-.141-.052Zm.325-.62-.121-.087.121.088Zm.084-.177.054-.14-.054.14Zm.038-.211L8.8 3.293l.078.128Zm.562-.502.102.11-.102-.11Zm.49-.46.102.109.047-.045v-.065h-.15Zm.065-.259-.026-.147h-.004l.03.147Zm.143-.012v.15h.005l-.005-.15Zm.203-.117.1.112.003-.002-.103-.11Zm.107-.13-.106.105.006.006.007.005.094-.117Zm-.187-.024-.007.15h.003l.004-.15Zm-.45.057-.034-.146.034.146Zm-.605.032-.049.142.049-.142Zm.14-.119.04.145.188-.051-.097-.169-.13.075ZM9.16 1.52l-.045.144h.001l.044-.144Zm5.614 2.05.14-.053-.002-.004-.138.057Zm-1.885-1.954.115-.097-.006-.007-.109.104Zm-1.867 2.402-.146-.035.282.098-.136-.063Zm.173-.674h.15l-.295-.04.145.04Zm-.1.513.137.063v-.001l-.137-.062Zm.1-.505-.15-.001h.15Zm.188-.77.106-.106-.015-.016-.02-.01-.07.132Zm-.773-.541.086-.123-.17-.12-.06.2.144.043Zm-.025.084.143.044-.143-.044Zm.759.439-.063.136.063-.136ZM9.01 2.528l-.04-.144-.004.001.044.143Zm-.369-.116-.03.147.03-.147Zm.157.176-.04-.144h-.001l.041.144Zm0 0 .04.145h.002l-.042-.145Zm-.258.073.04.145-.04-.145Zm-.41.115-.145-.038-.065.252.25-.07-.04-.144Zm.015-.057.145.037.001-.003-.146-.034Zm-.2-.032L7.8 2.643v.004l.144.04Zm-.043.152.04.145.082-.022.023-.083-.145-.04Zm.095-.33-.134-.067-.006.013-.004.013.144.041ZM7.295 3l-.1-.112-.014.013-.011.017.125.083Zm.135-.029.038.145h.004L7.43 2.97Zm.308-.087.038.146-.038-.146Zm3.195 1.403-.144-.044v.001l.144.043Zm.053-.174.143.044.017-.057-.026-.053-.134.066Zm-.195.865-.148-.02v.001l.148.02Zm-.11.336-.128-.077v.002l.129.075Zm-.103.2.138.059.003-.008.003-.007-.144-.045Zm-.071-.259.15-.005v-.002l-.15.007Zm.078-.941-.147-.032.147.032ZM10.93 4l-.135.065v.001L10.931 4Zm-2.638.556-.142.048.142-.048Zm.032.241-.147-.034v.001l.147.033Zm-.15-.795L8.025 4v.006l.15-.003Zm-.097-.023.137.061.002-.006-.14-.055Zm-.138 1.12.145-.041-.002-.004-.143.046Zm.152.092h.15v-.15h-.15v.15Zm-.008.702.138-.058-.138.058Zm.58.706-.135.065.002.003.133-.068Zm-.382-1.487-.149-.015.15.015Zm4.556.307.142.05v-.001l-.142-.049Zm.011-.237.145-.037-.145.037Zm-.024.277-.143-.047-.001.006.144.04Zm0 0 .143.044.001-.003-.144-.041Zm0 0 .142.047.001-.003-.143-.044Zm-.109.241.112.1-.112-.1Zm-.127.066-.132.07v.002l.132-.072Zm-.075-1.013.147.028-.147-.028Zm.179-.362.148-.02v-.003l-.148.023Zm-5.909.586-.135.065.279-.107-.144.042Zm-.137-.467.144-.043-.057-.194-.17.111.083.126Zm-.055.036L6.51 4.42l-.077.05.01.091.149-.015Zm.905.645v-.15h-.002l.002.15Zm-.525.008-.145-.039-.051.192.198-.003-.002-.15Zm.321-.145.057.14v-.001l-.057-.139Zm0 0 .058.139-.058-.139Zm0 0-.056-.139-.002.001.058.138Zm0 0-.041-.144-.008.002-.007.003.056.14Zm0 0 .041.145.008-.003.008-.003-.057-.139Zm.517.006.12-.091-.003-.002-.117.093Zm-.492-.053.007-.15-.007.15Zm-.346-.03-.03-.147-.327.066.267.201.09-.12Zm.616-.125.03.147-.03-.147Zm.235-.047.144.04.065-.236-.24.049.03.147Zm-.955.699h-.15v.043l.024.037.126-.08Zm.138.215.15-.003-.001-.042-.023-.035-.126.08Zm-.184-.543-.139.057.001.002.138-.06Zm-.135.112.145.038-.145-.038Zm0 0-.145-.038.145.038Zm-.095.357.145.04-.145-.04Zm-.158.58-.145-.04-.036.133.129.048.052-.141Zm.063.023-.052.14.002.001.05-.141Zm.276.148-.077.129h.001l.076-.129Zm.283-.14.146-.034V6.22l-.146.037Zm-.046-.35.15-.004-.15.003Zm4.092.706-.13.074.13-.074Zm-.275-.717.148-.03-.001-.003-.147.033Zm.386.932.101.112.006-.006-.107-.106Zm-.255.043-.081.126.008.005.073-.131Zm-.228-.495.141-.051-.14.05Zm-.158-.654.146.034v-.002l-.146-.032Zm.101-.234.135.066v-.001l-.135-.065Zm.087-.18.15-.012-.046-.551-.24.498.136.065Zm.017.207.15-.01v-.002l-.15.012Zm1.631.311.069-.133-.002-.001-.067.134Zm.101.1-.149-.018v.001l.15.016Zm-.504.025-.079-.128-.115.071.059.123.135-.066Zm.485.24.098.115-.098-.114Zm.083-.213-.017.15h.003l.014-.15Zm-.382.447.085.123-.085-.123Zm.054-.039.086.124.147-.103-.126-.126-.107.105Zm-.624.32-.106.106.005.006.007.005.094-.117Zm.114-.423-.123-.086-.015.02-.006.025.144.04Zm.103-.148.132-.07-.115-.218-.14.202.123.086Zm.143.07.036-.145-.036.145Zm.142.059-.106.106.106-.106Zm-.717.137.142.047v-.002l-.142-.045Zm-.127.364.106.106.006-.006.005-.006-.117-.094Zm-.034-.237-.148-.022v.003l.148.02Zm-2.372.15-.106-.106-.006.006-.005.007.117.093Zm.106-.292-.143-.047v.001l.143.046Zm-.205.27-.069.132.002.001.067-.134Zm-.11-.151-.145.036.145-.036Zm.028-.203-.13-.076.13.076Zm.278-.22-.035-.146.035.146Zm.11.002.138.06.003-.01-.141-.05Zm-.063.186.143.047-.143-.047Zm.502.03-.147.03v.003L9.52 6.3Zm.15.391.134-.067-.134.067Zm-.232-.577.04-.145-.04.145Zm-.148.171.143.044v-.001l-.143-.043Zm-.068.22-.143-.045.143.045Zm-.04.127.144.044-.144-.044Zm-.05.163-.144-.045-.049.158.162.034.03-.147Zm.215.044-.03.147.03-.147Zm.323.057.017-.149h-.002l-.015.15Zm.11.013-.018.149.277.032-.126-.249-.133.068Zm.344-.512.112.1.131-.15-.178-.085-.066.135Zm-.22-.106.065-.135-.065.135Zm.122.216.112.1-.112-.1Zm-.133.207.142.051-.142-.05Zm-.048.112-.106-.106-.006.006.112.1Zm1.002.08v.15h.015l-.015-.15Zm-.263.02.01.15h.001l-.011-.15Zm-.237-.4-.08.127.002.001.078-.128Zm-.245.006.11.103.001-.001-.11-.102Zm-.179.322.147.028-.147-.028Zm-.013.065-.147-.028-.032.168.17.01.01-.15Zm.216.013-.01.15h.002l.008-.15Zm.369-5.564a2.073 2.073 0 0 0-.708.037l.073.29c.169-.042.447-.054.584-.03l.05-.297Zm.138.016a1.824 1.824 0 0 1-.134-.015l-.059.294c.042.009.11.015.165.02l.028-.299Zm.263.292a.153.153 0 0 0 .009-.218.164.164 0 0 0-.07-.044.39.39 0 0 0-.065-.015l-.137-.015-.028.3c.049.004.092.008.12.012.018.003.02.004.014.002a.138.138 0 0 1-.053-.035.147.147 0 0 1 .008-.209l.202.222Zm-.1.284c0 .01 0 .013.002 0a1.88 1.88 0 0 1 .112-.3c.007-.011.002 0-.013.014l-.205-.218a.245.245 0 0 0-.045.06 2.07 2.07 0 0 0-.142.379.307.307 0 0 0-.008.065h.3Zm.638.396c.021 0 .037.005.041.006l.012.004.003.001a13.732 13.732 0 0 1-.734-.509l.005.006a.132.132 0 0 1 .013.017c.002.003.023.034.023.08h-.3c0 .046.021.077.024.081a.166.166 0 0 0 .034.04l.031.026.09.068a13.807 13.807 0 0 0 .674.457.288.288 0 0 0 .039.016.157.157 0 0 0 .045.007v-.3Zm.219.33a.184.184 0 0 0 .01-.156.302.302 0 0 0-.112-.137.214.214 0 0 0-.117-.037v.3a.103.103 0 0 1-.036-.006.06.06 0 0 1-.012-.006c-.003-.002-.002-.002 0 0l-.005-.009a.102.102 0 0 1-.006-.03c0-.016.002-.041.017-.068l.261.149Zm-.132.142a1.74 1.74 0 0 0 .073-.07.524.524 0 0 0 .053-.063l-.25-.167.005-.006-.004.005a1.487 1.487 0 0 1-.08.08l.203.221Zm-.152.453a5.61 5.61 0 0 1 .104-.33c.016-.045.03-.08.042-.105.015-.032.018-.03.006-.019l-.204-.22a.363.363 0 0 0-.073.11 1.554 1.554 0 0 0-.053.132 5.933 5.933 0 0 0-.11.349l.288.083Zm-.063-.3a.794.794 0 0 0-.203.17l.244.176a.604.604 0 0 1 .127-.098l-.168-.249Zm1.356-1.03c-.283.224-1.252.959-1.356 1.029l.168.249c.115-.078 1.092-.82 1.374-1.043l-.186-.235Zm-.12.231c.081 0 .132.003.154.007h.003s-.017-.005-.036-.02a.143.143 0 0 1-.049-.138c.011-.054.048-.08.052-.084l.178.242a.157.157 0 0 0 .01-.253.19.19 0 0 0-.063-.033.32.32 0 0 0-.044-.01 1.25 1.25 0 0 0-.21-.01l.005.3Zm-.386.053a1.68 1.68 0 0 1 .386-.053l-.005-.3a1.99 1.99 0 0 0-.453.062l.072.29Zm-.609-.236a.958.958 0 0 0 .208.172c.102.06.24.104.401.064l-.073-.291a.23.23 0 0 1-.177-.032.672.672 0 0 1-.142-.12l-.217.207Zm-.004-.004.225-.199-.225.2Zm.002.002.221-.203-.221.203Zm-.004-.007a.103.103 0 0 1-.008-.006l-.003-.002.001.001a.522.522 0 0 1 .016.016l.217-.207a1.026 1.026 0 0 0-.022-.022c-.005-.005-.018-.019-.035-.03l-.166.25Zm-.221-.347c0 .048.019.092.03.114a.636.636 0 0 0 .05.085c.034.05.086.111.14.148l.167-.25-.002-.001a.458.458 0 0 1-.087-.113l.002.017h-.3Zm.33-.126a1.036 1.036 0 0 0-.12-.025.318.318 0 0 0-.057-.003.175.175 0 0 0-.056.012.153.153 0 0 0-.097.142h.3a.147.147 0 0 1-.091.136.13.13 0 0 1-.04.01h.001a.747.747 0 0 1 .083.018l.077-.29Zm.485-.004a.846.846 0 0 1-.483.005l-.082.288c.215.062.408.058.64-.003l-.075-.29Zm.661-.038a1.794 1.794 0 0 0-.66.038l.074.29c.17-.043.354-.053.55-.03l.036-.298Zm.034.005-.028-.004-.047.296.028.005.047-.297Zm.002 0-.052.296.052-.295Zm.055.009-.012-.002a2.71 2.71 0 0 1-.045-.007l-.048.297a.936.936 0 0 0 .1.012l.005-.3Zm.213.435a.14.14 0 0 1 .034.039c.001.003.002.003 0 0a2.53 2.53 0 0 1-.101-.346l-.297.043a2.869 2.869 0 0 0 .123.422.34.34 0 0 0 .022.042c.004.006.014.02.031.034l.188-.234Zm.758.297c.012.002.017.004.008.001a13.676 13.676 0 0 1-.776-.306c-.011-.006.001 0 .015.012l-.198.225c.019.017.04.027.045.03l.035.016.098.043a13.55 13.55 0 0 0 .696.268c.008.002.026.008.044.01l.034-.299Zm.252.266a.257.257 0 0 0-.072-.188.299.299 0 0 0-.178-.077l-.037.297a.147.147 0 0 1 .018.004h.001s-.007-.003-.015-.01a.065.065 0 0 1-.016-.026c-.002-.006 0-.007 0 0h.3Zm-.33.306a.513.513 0 0 0 .212-.09.275.275 0 0 0 .118-.216h-.3c0-.03.018-.036 0-.023a.217.217 0 0 1-.087.034l.056.295Zm-.653.798a3.96 3.96 0 0 1 .401-.563 1.93 1.93 0 0 1 .178-.181.511.511 0 0 1 .06-.046c.018-.01.021-.01.013-.008l-.056-.295a.346.346 0 0 0-.114.047.799.799 0 0 0-.098.074 2.13 2.13 0 0 0-.21.213 4.263 4.263 0 0 0-.433.607l.26.152Zm-.24.528c0-.018.01-.072.054-.173a3.43 3.43 0 0 1 .186-.355l-.259-.152a3.703 3.703 0 0 0-.202.387.8.8 0 0 0-.08.293h.3Zm.125.785a9.328 9.328 0 0 1-.088-.475 2.947 2.947 0 0 1-.038-.31h-.3c0 .067.018.207.042.357.024.154.057.335.09.491l.293-.063Zm-.198.129c.001-.001.011-.016.031-.03a.143.143 0 0 1 .196.038c.006.009.008.015.007.013a1.657 1.657 0 0 1-.037-.15l-.293.064c.02.086.034.153.05.193a.227.227 0 0 0 .022.043.157.157 0 0 0 .223.048.18.18 0 0 0 .046-.045l-.245-.174Zm.631-.097c-.209 0-.336 0-.414.006a.514.514 0 0 0-.106.016.203.203 0 0 0-.106.07l.236.184a.1.1 0 0 1-.047.034l.043-.005c.066-.004.181-.005.394-.005v-.3Zm.486 0h-.486v.3h.486v-.3Zm.034-.21-.164.285.26.15.164-.286-.26-.15Zm.221-.085a.15.15 0 0 1-.074-.183l.001-.003s0 .003-.004.01a9.363 9.363 0 0 1-.144.261l.26.149a9.733 9.733 0 0 0 .165-.304.184.184 0 0 0 .008-.022c0-.004.005-.017.005-.035a.151.151 0 0 0-.082-.142l-.135.269Zm-.489-.03a22.089 22.089 0 0 1 .524.042h.002a.105.105 0 0 1-.026-.008.142.142 0 0 1-.05-.032l.212-.213a.143.143 0 0 0-.05-.033.161.161 0 0 0-.049-.012 22.3 22.3 0 0 0-.544-.043l-.019.3Zm-.602-.055c.012.006.022.009.025.01a.152.152 0 0 0 .019.004l.008.001a.474.474 0 0 0 .048.005l.12.01.382.026.02-.3a37.248 37.248 0 0 1-.527-.038h-.006.004a.163.163 0 0 1 .042.014l-.135.268Zm.166-.636a29.005 29.005 0 0 0-.23.428l-.007.016a.187.187 0 0 0-.01.04.144.144 0 0 0 .014.085l.269-.134a.15.15 0 0 1 .01.106l-.004.013c-.001.003-.002.004 0 .002a29.226 29.226 0 0 1 .222-.41l-.264-.146Zm.234-.423-.234.423.263.145.234-.423-.263-.145Zm.633.005-.476-.08-.05.296.477.08.05-.296Zm.15.025-.15-.025-.05.296.15.025.05-.296Zm0 0-.05.296.05-.296Zm0 0-.05.296.05-.296Zm0 0-.05.296.05-.296Zm0 0-.05.296.05-.296Zm0 0-.049.296.05-.296Zm.391.067a23.307 23.307 0 0 0-.39-.067l-.05.296c.202.034.359.06.381.065l.06-.294Zm-.058.006a.248.248 0 0 1-.014.023c-.002.002.004-.006.017-.014a.101.101 0 0 1 .045-.015h.007l-.053.295a.218.218 0 0 0 .16-.026.31.31 0 0 0 .098-.112l-.26-.15Zm.015-.033a.262.262 0 0 1-.017.036l.263.145a.561.561 0 0 0 .037-.081l-.283-.1Zm.291.066v-.01l-.3-.012v.01l.3.012Zm-.184.833c.165-.32.179-.699.184-.833l-.3-.012c-.005.14-.02.454-.15.706l.266.139Zm-.366.696.365-.696-.265-.14-.365.697.265.139Zm.017.41v-.48h-.3v.48h.3Zm-.234.15h.084v-.3h-.084v.3Zm.066-.145a.15.15 0 0 1-.088.136c-.013.006-.025.008-.027.009a.13.13 0 0 1-.009.002h-.002.008l.052-.002v-.3a1.357 1.357 0 0 0-.095.004.2.2 0 0 0-.021.004.152.152 0 0 0-.118.147h.3Zm.014.073-.012-.07a2.324 2.324 0 0 1-.003-.018v-.003.018h-.3l.001.012v.006l.001.005.002.01.004.022.012.07.295-.052Zm.015.085-.015-.085-.295.052.014.084.296-.051Zm-.009.287a.147.147 0 0 0 .03-.077.511.511 0 0 0-.002-.082 2.367 2.367 0 0 0-.019-.128l-.296.051a2.114 2.114 0 0 1 .02.132v-.01l.004-.02a.142.142 0 0 1 .023-.046l.24.18Zm-.24.08a.687.687 0 0 0 .154-.02.2.2 0 0 0 .035-.015.161.161 0 0 0 .06-.058l-.258-.154a.144.144 0 0 1 .051-.05.103.103 0 0 1 .018-.008h-.003a.392.392 0 0 1-.057.004v.3Zm-.107.001.11-.002-.006-.3-.11.002.006.3Zm.076.064.061-.16-.28-.107-.061.16.28.107ZM13.325 7.2c.239-.316.522-.772.636-1.025l-.274-.123a6.416 6.416 0 0 1-.601.967l.24.181Zm-.051.067.05-.066-.237-.183-.05.066.237.183Zm.063-.173-.119-.055-.126.272.118.055.126-.272Zm.523.545c-.124-.24-.318-.451-.524-.545l-.125.273c.127.058.279.21.383.41l.266-.138Zm.11.44c0-.089 0-.157-.018-.227-.017-.067-.05-.13-.091-.212l-.268.136a.801.801 0 0 1 .068.15.648.648 0 0 1 .009.152h.3Zm-.231.561a.172.172 0 0 0 .127-.07.284.284 0 0 0 .035-.062.748.748 0 0 0 .036-.126c.02-.09.033-.202.033-.304h-.3c0 .079-.011.17-.026.242a.467.467 0 0 1-.02.073c-.004.008-.003.004.003-.004 0 0 .031-.045.096-.048l.016.3Zm-.496.078.362-.056a43.084 43.084 0 0 0 .138-.021l.025-.005-.074-.29c.008-.003.013-.003.001-.001a7.058 7.058 0 0 1-.136.02l-.36.056.044.297Zm-.232.035.232-.035-.045-.297-.232.036.045.296Zm-.817.1c.02.005.037.006.038.006a.212.212 0 0 0 .036-.002l.052-.005.167-.022c.138-.02.323-.046.524-.077l-.045-.296a36.636 36.636 0 0 1-.724.101h-.006.006a.132.132 0 0 1 .034.006l-.082.289Zm-.288-.411a1.12 1.12 0 0 0 .17.32.385.385 0 0 0 .037.043.212.212 0 0 0 .069.044l.106-.28a.109.109 0 0 1 .03.016l-.002-.002a.823.823 0 0 1-.123-.23l-.287.089Zm-.013-.042.013.043.286-.091-.014-.043-.285.091Zm0 .002.285-.095-.285.095Zm0-.003.286-.089-.287.09Zm-.026-.078.001.004.006.018.019.057.285-.09a1.517 1.517 0 0 0-.035-.107l-.276.118Zm-.049.174c.083-.043.14-.069.175-.082l.018-.006c-.001 0-.019.003-.043-.002a.142.142 0 0 1-.109-.107l.291-.072a.156.156 0 0 0-.119-.115.184.184 0 0 0-.068 0 .405.405 0 0 0-.078.022 2.23 2.23 0 0 0-.204.095l.137.267Zm-.888.32c.329-.075.572-.162.887-.32l-.135-.267a3.291 3.291 0 0 1-.818.294l.066.293Zm-2.154-.132a3.88 3.88 0 0 0 2.154.132l-.066-.293A3.58 3.58 0 0 1 8.878 8.4l-.102.283Zm-.868-.43c.233.143.654.351.867.43l.103-.282a5.92 5.92 0 0 1-.812-.404l-.158.255Zm-1.233-1.09c.654.684.826.838 1.233 1.09l.158-.256c-.374-.23-.523-.36-1.174-1.042l-.217.208Zm-.368-.306a.727.727 0 0 1 .152.094c.05.041.11.101.217.212l.216-.208a2.982 2.982 0 0 0-.243-.236 1.023 1.023 0 0 0-.207-.13l-.135.268ZM6.06 6.79c.06 0 .087.003.112.01a.758.758 0 0 1 .136.057l.133-.269a1.026 1.026 0 0 0-.193-.079.71.71 0 0 0-.188-.019v.3Zm-.295-.1a.23.23 0 0 0 .14.09c.045.01.099.01.155.01v-.3a1.224 1.224 0 0 1-.09-.003s.007.001.017.007a.07.07 0 0 1 .018.016l-.24.18Zm.08-.462a.511.511 0 0 0-.128.213.29.29 0 0 0 .046.246l.244-.174c-.002-.003 0-.002 0 0v.002a.234.234 0 0 1 .058-.084l-.22-.203Zm.049.15a.146.146 0 0 1-.066-.112c-.001-.016.001-.027.001-.027l-.002.004a.381.381 0 0 1-.006.018l-.003.006v.002l.137.06.137.061a.026.026 0 0 1 0-.001l.002-.004a.76.76 0 0 0 .03-.09.19.19 0 0 0 .003-.047.154.154 0 0 0-.07-.122l-.163.251Zm-.248-.162.248.161.163-.251-.247-.161-.164.251Zm.757-1.773c-.156.165-.407.54-.593.88-.093.17-.175.341-.222.48a.726.726 0 0 0-.042.201c-.002.055.008.166.114.22l.137-.267c.058.03.048.084.049.056 0-.02.007-.057.027-.115.038-.113.11-.266.2-.431.183-.333.419-.681.548-.817l-.218-.207Zm.104-.154v.038c-.001.001-.001 0 0 0v-.001a3.223 3.223 0 0 1-.104.118l.218.205c.063-.067.116-.122.146-.174.04-.071.04-.134.04-.186h-.3Zm.287-.912a2.368 2.368 0 0 0-.198.46c-.05.158-.089.327-.089.452h.3c0-.078.027-.211.075-.361.047-.147.11-.295.17-.398l-.258-.153Zm.04-.037c.003.007 0 .003 0-.007a.074.074 0 0 1 0-.029c.002-.002.001 0-.006.015a1.306 1.306 0 0 1-.033.057l.257.154c.028-.047.058-.097.071-.144a.227.227 0 0 0-.014-.166l-.275.12Zm.308-.506a1.42 1.42 0 0 0-.27.226.273.273 0 0 0-.062.142.267.267 0 0 0 .025.14l.274-.124c-.005-.01 0-.001 0 .016-.003.017-.01.023-.003.013.022-.027.077-.073.21-.169l-.174-.244Zm.762-.54a.138.138 0 0 1 .025-.045c.001-.002.001-.002-.002.001a5.346 5.346 0 0 1-.191.151c-.138.104-.34.25-.594.433l.175.244c.255-.183.459-.331.6-.437a5.647 5.647 0 0 0 .215-.172.327.327 0 0 0 .021-.022.152.152 0 0 0 .035-.059l-.284-.094Zm-.187.218a.955.955 0 0 1 .259-.048l.013.001s-.004 0-.01-.003a.115.115 0 0 1-.03-.017.138.138 0 0 1-.046-.15l.286.091a.162.162 0 0 0-.056-.178.204.204 0 0 0-.088-.038.515.515 0 0 0-.13-.003 1.254 1.254 0 0 0-.296.062l.098.283Zm-.915.064c.112.058.26.067.408.054a2.13 2.13 0 0 0 .508-.118l-.1-.283c-.161.057-.312.09-.435.102a.492.492 0 0 1-.244-.022l-.137.267Zm-.252-.33c0 .055.026.102.038.122a.573.573 0 0 0 .059.079.57.57 0 0 0 .156.13l.135-.269h-.002a.413.413 0 0 1-.09-.094l-.002-.003s.006.014.006.035h-.3Zm.317-.15a1.745 1.745 0 0 0-.17-.003.158.158 0 0 0-.078.026.151.151 0 0 0-.07.127h.3a.149.149 0 0 1-.118.145h-.004.018c.024 0 .059.001.1.004l.022-.299Zm-.12-.025a1.515 1.515 0 0 1 .008.1v-.002a.088.088 0 0 1 .014-.026.114.114 0 0 1 .098-.047l-.022.3a.187.187 0 0 0 .167-.078.24.24 0 0 0 .042-.118.832.832 0 0 0-.008-.164l-.298.035Zm0-.004.3-.028-.3.028Zm-.007-.1c0 .034.004.074.008.104l.298-.035a.732.732 0 0 1-.006-.07h-.3Zm.156-.203a.152.152 0 0 0-.147.11.51.51 0 0 0-.01.092h.3a.345.345 0 0 1 .001-.02v.003a.139.139 0 0 1-.02.05.148.148 0 0 1-.124.065v-.3Zm.117.032-.046-.017a1.09 1.09 0 0 0-.043-.013l-.028-.002v.3a.148.148 0 0 1-.042-.006c-.001 0-.002 0 0 0a.763.763 0 0 1 .056.02l.103-.282Zm0 0-.103.282.103-.282Zm0 0-.103.282.103-.282Zm0 0-.103.282.103-.282Zm0 0-.103.282.103-.282Zm0 0-.102.282.102-.282Zm.001 0-.104.282.104-.281Zm.022.009-.023-.009-.103.282.023.008.103-.281Zm.578-.044c-.284.078-.474.08-.58.043l-.1.283c.195.069.46.045.76-.037l-.08-.29Zm.424-.091c-.088.01-.278.05-.425.09l.08.29c.14-.04.313-.075.378-.082l-.033-.298Zm.493.238a.17.17 0 0 0 .046-.098.158.158 0 0 0-.063-.143.183.183 0 0 0-.07-.031.28.28 0 0 0-.044-.006.956.956 0 0 0-.156.008 3.309 3.309 0 0 0-.216.033h-.001l.027.148.028.147h.004l.013-.003a3.672 3.672 0 0 1 .18-.027.712.712 0 0 1 .102-.007h-.003c-.002-.001-.022-.005-.044-.022a.142.142 0 0 1-.055-.128c.004-.045.03-.071.033-.076l.22.205Zm-.068.192c.016-.061.032-.11.046-.145.016-.04.025-.05.022-.046l-.219-.206a.452.452 0 0 0-.081.14c-.02.051-.04.113-.058.18l.29.077Zm-.045.165-.002.02a.13.13 0 0 1 0 .005l-.001.003a.798.798 0 0 1 .013-.054 6.37 6.37 0 0 1 .035-.138l-.29-.078a6.66 6.66 0 0 0-.054.222l-.001.02h.3Zm-.055-.134-.048-.01-.013-.002a.457.457 0 0 0-.009-.002H8.29l-.005-.001-.016-.001v.3a.15.15 0 0 1-.022-.002h-.005.002a3.783 3.783 0 0 1 .06.012l.06-.294Zm0 0-.06.294.06-.294Zm.423.086-.423-.086-.06.294.425.086.058-.294Zm.5.086c.01-.002.008 0-.022-.002a1.672 1.672 0 0 1-.103-.014 8.737 8.737 0 0 1-.374-.07l-.06.294c.161.033.291.057.387.073.048.007.09.013.124.016a.397.397 0 0 0 .101-.001l-.054-.296Zm.307.235a.235.235 0 0 0-.102-.201.273.273 0 0 0-.21-.033l.062.294c.017-.004.004.004-.018-.011a.076.076 0 0 1-.027-.03.048.048 0 0 1-.005-.02h.3Zm-.298.31a.962.962 0 0 0 .201-.115.273.273 0 0 0 .071-.086.237.237 0 0 0 .026-.11h-.3c0-.004.001-.015.007-.026s.01-.014.005-.01a.287.287 0 0 1-.041.027 1.55 1.55 0 0 1-.095.047l.126.272Zm-.236.143a1.53 1.53 0 0 1 .237-.144l-.128-.272a1.94 1.94 0 0 0-.29.177l.18.24Zm-.586.614c.124-.178.426-.492.586-.614l-.181-.239c-.186.141-.51.478-.651.681l.246.172Zm-.078.122a.565.565 0 0 1 .078-.122l-.246-.172c-.053.075-.099.137-.12.21l.288.084Zm-.005.111a.42.42 0 0 1 .005-.11l-.288-.085c-.018.062-.017.128-.017.195h.3Zm.091.592a2.456 2.456 0 0 1-.09-.592h-.3c0 .194.044.48.102.677l.288-.085Zm.034.117-.034-.116-.288.083.034.117.288-.084Zm-.226-.169-.059.159.281.104.06-.158-.282-.105Zm.344-.655a2.661 2.661 0 0 0-.344.656l.282.103c.078-.215.177-.405.306-.584l-.244-.175Zm.152.05a.135.135 0 0 1-.083-.11.117.117 0 0 1 .003-.042l.003-.009a2.26 2.26 0 0 1-.074.11l.243.177a1.28 1.28 0 0 0 .102-.158A.206.206 0 0 0 9 3.629a.165.165 0 0 0-.107-.137l-.108.28Zm.014-.48a.2.2 0 0 0-.06.059.5.5 0 0 0-.068.256.22.22 0 0 0 .02.075c.014.03.042.07.095.09l.107-.28a.127.127 0 0 1 .07.064c.007.016.008.027.008.027l.003-.023a.202.202 0 0 1 .012-.037c.002-.005.003-.005 0-.002a.114.114 0 0 1-.031.028L8.8 3.293Zm.537-.482a19.32 19.32 0 0 1-.49.444c-.037.031-.05.04-.047.039l.157.256a.851.851 0 0 0 .084-.066 19.614 19.614 0 0 0 .501-.454l-.205-.219Zm.49-.46-.49.46.206.219.49-.461-.206-.219Zm-.048-.014v.122h.3v-.122h-.3Zm.186-.283c-.012.003-.041.008-.068.02a.186.186 0 0 0-.094.09.251.251 0 0 0-.022.093 1.231 1.231 0 0 0-.002.08h.3l.001-.06v-.003c0 .003-.002.01-.007.02a.116.116 0 0 1-.054.054l-.008.003a.341.341 0 0 1 .013-.003l-.059-.294Zm.173-.015a1.15 1.15 0 0 0-.17.015l.053.295a.865.865 0 0 1 .117-.01v-.3Zm.102-.078a.628.628 0 0 1-.097.076l-.001.001h-.009l.01.3a.32.32 0 0 0 .155-.043.882.882 0 0 0 .143-.111l-.2-.223Zm.115.097a.146.146 0 0 1-.052-.14.118.118 0 0 1 .012-.035c.002-.004.002-.002-.006.007a.88.88 0 0 1-.07.073l.205.219c.036-.034.07-.07.095-.1a.363.363 0 0 0 .038-.052.186.186 0 0 0 .02-.054.155.155 0 0 0-.055-.152l-.187.234Zm-.098.01a1.058 1.058 0 0 1 .139.013l-.004-.002-.014-.005a.142.142 0 0 1-.036-.027l.213-.212a.161.161 0 0 0-.063-.039.631.631 0 0 0-.085-.018 1.393 1.393 0 0 0-.143-.01l-.007.3Zm-.412.053c.215-.05.292-.059.409-.053l.014-.3c-.158-.007-.266.01-.49.061l.067.292Zm-.688.028c.186.063.374.047.689-.028l-.07-.292c-.305.073-.421.07-.522.036l-.097.284Zm.15-.405a.763.763 0 0 0-.181.073.264.264 0 0 0-.051.04.18.18 0 0 0-.051.102.167.167 0 0 0 .053.144.221.221 0 0 0 .08.046l.097-.284c-.004-.001.01.002.028.018.021.02.046.06.04.113a.121.121 0 0 1-.033.07c-.006.007-.01.008-.006.006a.497.497 0 0 1 .103-.039l-.079-.29Zm-.101-.367a.153.153 0 0 0-.197.129.168.168 0 0 0 .007.07c.006.02.016.043.024.06a8.203 8.203 0 0 0 .167.31l.008.013.001.003v.001h.001l.13-.075.13-.075a.402.402 0 0 1-.01-.016 8.4 8.4 0 0 1-.155-.287l-.009-.02.003.012c0 .004.003.019 0 .038a.147.147 0 0 1-.19.124l.09-.287Zm.581.028a.917.917 0 0 1-.273.037 1.253 1.253 0 0 1-.309-.065l-.088.287c.15.045.267.073.384.078.119.005.228-.013.36-.047l-.074-.29Zm5.127 2.108c-.001-.002-.011-.029-.035-.052a.151.151 0 0 0-.258.095.493.493 0 0 0-.003.055l.3.012v-.03l-.002.012a.145.145 0 0 1-.033.063.15.15 0 0 1-.247-.042l.277-.113Zm-.005.154a.314.314 0 0 0 .014-.054.189.189 0 0 0-.008-.096l-.28.105a.124.124 0 0 1-.008-.057c0-.004 0-.003-.001.002l.283.1Zm-1.91-2.155a.154.154 0 0 0-.13-.049.152.152 0 0 0-.133.122.182.182 0 0 0 0 .075l.297-.043c0-.002 0-.002 0 0v.009a.143.143 0 0 1-.026.074.148.148 0 0 1-.226.019l.218-.207Zm-.117.277c.009 0 .032 0 .059-.008a.161.161 0 0 0 .106-.115.16.16 0 0 0-.018-.112.216.216 0 0 0-.024-.035l-.23.193-.008-.013c-.002-.004-.025-.043-.014-.097a.144.144 0 0 1 .124-.113h.01l-.005.3Zm-1.86 2.229.146.035V4.05l.001-.003.003-.011.01-.043.038-.153c.031-.126.074-.293.12-.458l-.289-.08a19.154 19.154 0 0 0-.16.62l-.01.044-.004.011v.004l.146.035Zm-.062-.223-.074.16.273.126.074-.161-.273-.125Zm.085-.443-.001.017-.007.051a4.02 4.02 0 0 1-.069.35.42.42 0 0 1-.006.018l-.002.005v.002l.273.124a.818.818 0 0 0 .042-.136 3.342 3.342 0 0 0 .07-.431h-.3Zm0-.01v.009l.3.002v-.008l-.3-.002Zm.41-.892-.002-.001-.141.264.002.001.14-.264Zm-.154.257.012.007.013.006.017.006a.15.15 0 0 0 .17-.222.098.098 0 0 0-.023-.028l-.212.212s-.012-.011-.022-.028a.153.153 0 0 1-.021-.092.15.15 0 0 1 .134-.135c.03-.003.053.004.057.005a.143.143 0 0 1 .017.006l.012.006a.106.106 0 0 1 .006.004h.002l-.162.253Zm-.69-.666-.086.122.002.002.006.004.023.016.083.059.255.18c.185.129.382.267.407.283l.162-.252-.003-.002-.009-.006-.029-.02a54.19 54.19 0 0 1-.61-.429l-.083-.058-.024-.016c-.002-.002-.004-.004-.006-.004l-.001-.002-.087.123Zm.118.127.026-.084-.288-.086-.025.084.287.086Zm.678.26a11.286 11.286 0 0 1-.443-.215 2.292 2.292 0 0 1-.208-.12.313.313 0 0 1-.043-.034c-.003-.002.003.003.01.016.005.011.02.047.006.094l-.287-.087a.173.173 0 0 0 .013.128.24.24 0 0 0 .042.058.58.58 0 0 0 .09.073c.064.043.15.092.238.138.176.092.376.183.457.221l.125-.273Zm.041.018-.04-.019-.126.273.024.011a.358.358 0 0 1 .01.005l.132-.27Zm-2.396.228.037-.012a.165.165 0 0 0 .08-.055.154.154 0 0 0-.038-.225.243.243 0 0 0-.062-.029c-.057-.018-.181-.043-.397-.087l-.06.294c.228.047.33.068.367.08.011.003 0 .001-.015-.01a.138.138 0 0 1-.053-.066.146.146 0 0 1 .022-.143.134.134 0 0 1 .043-.036.1.1 0 0 1 .007-.004h.003-.004a.741.741 0 0 1-.011.004l.081.289Zm-.212.06.216-.062-.09-.286a17.93 17.93 0 0 1-.207.06l.08.288Zm.001 0-.083-.289.083.289Zm-.26.073.259-.073-.081-.289-.26.073.083.289Zm-.41.114.41-.114-.08-.29-.41.115.08.29ZM8 2.68l-.015.058.29.075.015-.057L8 2.681Zm.257-.494a.152.152 0 0 0-.126.066.424.424 0 0 0-.031.066 5.942 5.942 0 0 0-.1.366l.292.07a5.64 5.64 0 0 1 .092-.336l.004-.01a.083.083 0 0 1-.01.016.148.148 0 0 1-.12.062v-.3Zm.414.079a34.854 34.854 0 0 0-.396-.078l-.018-.001v.3h-.011l-.005-.001H8.24h.003a1.491 1.491 0 0 1 .104.02l.265.054.06-.294Zm-.87.382-.043.152.289.08.042-.152-.289-.08Zm.052-.18a7.18 7.18 0 0 1-.052.176l.287.088.054-.18-.289-.083Zm.149.167a.15.15 0 0 1-.148-.127.127.127 0 0 1 0-.032.097.097 0 0 1 .01-.033l.268.134a.204.204 0 0 0 .02-.111.15.15 0 0 0-.15-.13v.299Zm-.608.479.025-.02a24.022 24.022 0 0 1 .322-.236 62.422 62.422 0 0 1 .337-.244l.002-.002-.005.004a.14.14 0 0 1-.026.011c-.003.001-.022.008-.047.008v-.3a.152.152 0 0 0-.094.032 1.982 1.982 0 0 0-.105.075 61.314 61.314 0 0 0-.563.412l-.044.034.198.226Zm-.003-.288c-.04.01-.072.02-.094.024l-.014.003h.007a.135.135 0 0 1 .054.007.149.149 0 0 1 .075.224l-.25-.166a.151.151 0 0 0 .11.233c.021.003.04 0 .044 0a3.605 3.605 0 0 0 .145-.034l-.077-.29Zm.309-.087c-.091.024-.232.065-.312.088l.084.288c.08-.023.218-.063.304-.085l-.076-.29Zm.163-.044L7.7 2.74l.078.29.165-.045-.079-.29Zm3.213 1.635.053-.173-.287-.088-.053.174.287.087Zm-.136.667c.033-.255.076-.46.137-.668l-.288-.085a4.502 4.502 0 0 0-.146.715l.297.038Zm-.13.395a.847.847 0 0 0 .088-.18c.02-.063.032-.13.042-.215l-.297-.038a.853.853 0 0 1-.03.16.561.561 0 0 1-.06.118l.257.155Zm-.088.166a1.05 1.05 0 0 1 .028-.058 3.2 3.2 0 0 1 .061-.11l-.259-.151a2.953 2.953 0 0 0-.067.12.748.748 0 0 0-.05.11l.287.089Zm-.365-.298c.002.074.004.137.007.187a.883.883 0 0 0 .015.129c.003.013.01.049.035.081a.158.158 0 0 0 .205.042c.042-.024.063-.06.07-.07a.492.492 0 0 0 .027-.056l-.275-.12a.408.408 0 0 1-.007.016l-.002.004-.001.001v-.001a.123.123 0 0 1 .038-.034.142.142 0 0 1 .184.036c.018.024.02.045.018.036a.68.68 0 0 1-.007-.081 7.97 7.97 0 0 1-.008-.18l-.3.01Zm.081-.978a3.83 3.83 0 0 0-.081.98l.3-.014a3.53 3.53 0 0 1 .074-.902l-.293-.064Zm.628-.346a.173.173 0 0 0-.146-.097.248.248 0 0 0-.1.015.552.552 0 0 0-.15.087.635.635 0 0 0-.232.34l.293.065a.344.344 0 0 1 .125-.169.267.267 0 0 1 .065-.04c.006-.002-.003.003-.022.001a.127.127 0 0 1-.103-.072l.27-.13Zm.054.111-.054-.112-.27.132.055.112.27-.132Zm-2.97.558a.657.657 0 0 1 .032.112.113.113 0 0 1-.004.047l.293.069a.41.41 0 0 0 .009-.155.918.918 0 0 0-.045-.169l-.284.096Zm-.125-.6c.002.146.06.406.126.6l.284-.096A2.18 2.18 0 0 1 8.325 4l-.3.005Zm.192.03a.903.903 0 0 1 .041-.093c.005-.009.003-.004-.005.005a.126.126 0 0 1-.038.026.142.142 0 0 1-.175-.045.117.117 0 0 1-.016-.031c-.002-.008-.002-.01 0 0 .001.018.002.051 0 .103l.3.006a1.206 1.206 0 0 0-.002-.138.304.304 0 0 0-.013-.064.183.183 0 0 0-.024-.05.16.16 0 0 0-.083-.06.163.163 0 0 0-.166.046.275.275 0 0 0-.04.056 1.156 1.156 0 0 0-.058.129l.28.11Zm-.154.691c0-.152.007-.25.028-.344a1.77 1.77 0 0 1 .124-.34l-.274-.123a2.056 2.056 0 0 0-.143.398 1.838 1.838 0 0 0-.035.41h.3Zm.02.33-.002-.009a3.163 3.163 0 0 1-.018-.32h-.3c0 .088.003.172.008.242a.851.851 0 0 0 .027.177l.285-.09ZM8.03 5.04h-.007.003a.1.1 0 0 1 .055.03c.013.013.017.023.015.02a.349.349 0 0 1-.01-.033l-.289.083a.483.483 0 0 0 .022.064c.008.02.022.05.048.075.06.061.135.06.163.06v-.3Zm.063 0H8.03v.3h.063v-.3Zm.15.414V5.19h-.3v.264h.3Zm-.181.414a.167.167 0 0 0 .147-.087.254.254 0 0 0 .028-.095c.006-.05.006-.125.006-.232h-.3c0 .113 0 .17-.004.197v.006c0-.001.002-.01.008-.022a.133.133 0 0 1 .114-.066v.3Zm.161-.035a2.169 2.169 0 0 1-.034-.084l-.007-.021s.01.058-.042.106a.13.13 0 0 1-.073.034H8.06v-.3c-.012 0-.075-.001-.127.047a.175.175 0 0 0-.05.154c.004.03.014.06.023.084.01.027.023.06.039.097l.276-.117Zm.309.833s-.005-.008-.008-.02a.147.147 0 0 1 .021-.12.148.148 0 0 1 .16-.06c.02.005.033.014.034.014.006.004 0 0-.024-.022a3.993 3.993 0 0 1-.369-.427 1.107 1.107 0 0 1-.123-.197l-.277.115c.033.079.095.172.16.26a4.292 4.292 0 0 0 .401.465.5.5 0 0 0 .073.06.173.173 0 0 0 .045.02.15.15 0 0 0 .167-.059.153.153 0 0 0 .021-.129.192.192 0 0 0-.014-.036l-.267.136Zm-.398-1.57c-.023.232.036.538.116.817.081.285.19.563.28.75l.27-.13a4.662 4.662 0 0 1-.261-.702c-.078-.273-.123-.533-.106-.705l-.299-.03Zm.045-.333a3.96 3.96 0 0 0-.045.333l.299.03c.012-.125.03-.26.039-.297l-.293-.066Zm4.802.704a.567.567 0 0 0 .038-.162.553.553 0 0 0-.024-.16l-.29.073a.298.298 0 0 1 .014.075c0 .007-.002.02-.021.076l.283.098Zm-.013.038.013-.037-.283-.1-.014.043.284.094Zm.002-.006-.288-.082.288.082Zm0 .003-.287-.088.286.088Zm-.141.297a.552.552 0 0 0 .089-.154c.02-.05.038-.103.05-.14l-.284-.094a1.81 1.81 0 0 1-.066.168.216.216 0 0 1-.013.02l.224.2Zm-.37.038a.357.357 0 0 0 .014.024.191.191 0 0 0 .035.042.164.164 0 0 0 .188.02.292.292 0 0 0 .07-.056c.018-.017.038-.04.063-.067l-.223-.201a2.319 2.319 0 0 1-.064.068c-.001.001.004-.004.014-.009a.136.136 0 0 1 .15.019.11.11 0 0 1 .02.022l-.004-.006-.263.144Zm-.092-1.113a2.38 2.38 0 0 0-.026.598c.015.192.051.388.117.513l.265-.14a1.17 1.17 0 0 1-.083-.396 2.093 2.093 0 0 1 .022-.519l-.295-.056Zm.295-.657a.151.151 0 0 0-.136.085.966.966 0 0 0-.03.082 4.963 4.963 0 0 0-.128.49l.294.056a4.746 4.746 0 0 1 .131-.492l-.001.002a.147.147 0 0 1-.13.077v-.3Zm.18.3a6.72 6.72 0 0 0-.029-.17.27.27 0 0 0-.018-.051.15.15 0 0 0-.132-.079v.3a.15.15 0 0 1-.131-.077.065.065 0 0 1-.01-.022l-.001-.004a7.017 7.017 0 0 1 .025.15l.296-.047Zm.153.776a9.762 9.762 0 0 1-.153-.774l-.297.042c.028.2.112.624.16.808l.29-.076Zm-6.066-.21-.137-.467-.288.085.137.467.288-.084Zm-.485-.373a.504.504 0 0 0 .018.068l.025.06a6.597 6.597 0 0 0 .155.336l.006.012a.875.875 0 0 1 .002.005l.135-.065.135-.065-.002-.004-.006-.012a20.007 20.007 0 0 1-.15-.325 1.33 1.33 0 0 1-.023-.06c-.002-.004.002.005.003.019l-.298.031Zm.122-.177-.055.036.164.251.055-.036-.164-.25Zm1.124.957c.056 0 .11-.003.15-.007a.485.485 0 0 0 .061-.009.205.205 0 0 0 .043-.014.153.153 0 0 0 .089-.139h-.3a.147.147 0 0 1 .08-.132.114.114 0 0 1 .02-.007h-.005a1.318 1.318 0 0 1-.137.007v.3Zm-.192 0h.192v-.3h-.192v.3Zm-.523.008L7.5 5.34l-.005-.3-.525.008.004.3Zm.262-.433-.226.094a1.542 1.542 0 0 0-.112.056.193.193 0 0 0-.025.018c-.003.004-.034.03-.046.076l.29.077a.146.146 0 0 1-.042.07l-.013.01.006-.003c.012-.007.033-.016.062-.029l.22-.092-.114-.277Zm0 0 .115.277-.116-.277Zm-.001 0 .116.277-.116-.277Zm.002 0 .112.278-.112-.279Zm.015-.006.082.289-.082-.289Zm.088-.037-.104.043.114.277.104-.043-.114-.277Zm.587.094c-.03-.04-.072-.054-.081-.057a.361.361 0 0 0-.052-.014 1.164 1.164 0 0 0-.11-.015 6.355 6.355 0 0 0-.28-.02l-.015.3c.1.005.194.011.266.018a.887.887 0 0 1 .08.01l.008.003a.131.131 0 0 1-.051-.04l.235-.185Zm.104.205c0-.034-.012-.06-.012-.062a.549.549 0 0 0-.032-.058 1.258 1.258 0 0 0-.058-.083l-.239.181a.971.971 0 0 1 .053.078l-.002-.005a.123.123 0 0 1-.007-.026.145.145 0 0 1-.003-.025h.3Zm-.72-.015.078.004.016-.3-.08-.003-.015.3Zm-.43-.06c.03.022.062.03.068.03a1.419 1.419 0 0 0 .127.016c.065.006.149.01.234.014l.015-.3-.226-.012a1.149 1.149 0 0 1-.068-.007l-.01-.002.008.003a.13.13 0 0 1 .033.018l-.18.24Zm.677-.392-.616.125.06.294L7.618 5l-.06-.294Zm.235-.047-.235.047.06.294.235-.047-.06-.294Zm-.338.492c.104-.043.21-.088.293-.127.041-.02.08-.038.11-.056a.392.392 0 0 0 .074-.058.167.167 0 0 0 .035-.065l-.289-.08a.133.133 0 0 1 .039-.062 1.124 1.124 0 0 1-.095.05 7.518 7.518 0 0 1-.282.12l.115.278Zm-.713.434.137.216.253-.161-.137-.216-.253.161Zm-.058-.35c.026.061.034.1.034.27h.3c0-.181-.008-.27-.058-.387l-.276.118Zm.07-.043a.148.148 0 0 1-.11-.05l-.007-.01a1.624 1.624 0 0 1 .046.102l.278-.114a1.909 1.909 0 0 0-.067-.143.166.166 0 0 0-.046-.053.153.153 0 0 0-.093-.032v.3Zm.078.135.046-.177.013-.046.002-.004-.007.014a.145.145 0 0 1-.046.052.15.15 0 0 1-.085.026v-.3a.15.15 0 0 0-.143.102 1.97 1.97 0 0 0-.023.078l-.048.18.29.075Zm0 0-.29-.076.29.076Zm-.095.359.095-.359-.29-.076-.095.356.29.079Zm-.159.58.159-.58-.29-.08-.158.58.29.08Zm-.03-.158-.063-.023-.103.282.063.023.104-.282Zm.303.16a4.017 4.017 0 0 0-.175-.099 1.16 1.16 0 0 0-.129-.061l-.1.282.006.003a.67.67 0 0 1 .082.041c.048.026.105.058.161.092l.155-.258Zm.171.106a.13.13 0 0 1 .03.003l.006.002-.007-.003a2.981 2.981 0 0 1-.202-.108l-.152.258a3.272 3.272 0 0 0 .236.126l.03.012c.006.001.03.01.06.01v-.3ZM6.91 6.29c.01.041.016.075.02.101a.22.22 0 0 1 .002.047c-.001.007-.001-.01.018-.032a.1.1 0 0 1 .072-.034v.3a.2.2 0 0 0 .153-.067.238.238 0 0 0 .054-.131.773.773 0 0 0-.027-.253l-.292.069Zm-.05-.382a2.1 2.1 0 0 0 .05.385l.292-.075a1.758 1.758 0 0 1-.042-.317l-.3.007Zm-.004-.186.004.186.3-.007-.004-.186-.3.007Zm4.376.815a2.193 2.193 0 0 1-.257-.672l-.295.058c.052.263.147.509.291.762l.261-.148Zm.088.395a.15.15 0 0 0 .042-.131c-.002-.013-.006-.024-.007-.028a1.245 1.245 0 0 0-.038-.082 4.612 4.612 0 0 0-.085-.155l-.26.15a4.115 4.115 0 0 1 .098.183c.002.004.002.003 0 0a.14.14 0 0 1-.006-.055.149.149 0 0 1 .043-.093l.213.211ZM10.885 7c.028.015.055.018.06.02h.028l.043-.001a1.302 1.302 0 0 0 .23-.043.174.174 0 0 0 .068-.038l-.2-.223a.134.134 0 0 1 .03-.02l.005-.003a1.005 1.005 0 0 1-.174.028l.008.001a.123.123 0 0 1 .048.017L10.885 7Zm-.296-.575a4.588 4.588 0 0 0 .2.461.646.646 0 0 0 .048.073c.006.007.02.022.04.036l.162-.252a.118.118 0 0 1 .027.023c.002.002.003.003.002.001A1.783 1.783 0 0 1 11 6.635a4.289 4.289 0 0 1-.129-.311l-.282.102Zm-.163-.739a.283.283 0 0 0-.005.08 2.29 2.29 0 0 0 .045.247c.031.13.076.283.123.413l.282-.104a3.666 3.666 0 0 1-.145-.53.56.56 0 0 1-.006-.045c0-.014.002-.007-.002.007l-.292-.068Zm.113-.266c-.026.051-.05.105-.07.15a.77.77 0 0 0-.044.12l.294.062.005-.013a3.569 3.569 0 0 1 .084-.187l-.27-.132Zm.086-.18-.087.18.27.13.087-.179-.27-.13Zm.301.261-.017-.207-.299.024.017.207.3-.024Zm.048.36a3.133 3.133 0 0 1-.048-.359l-.299.022c.009.118.03.297.054.402l.293-.065Zm1.365.096c.02.01.032.017.041.023.01.006.01.007.007.004a.099.099 0 0 1-.026-.078l.297.035a.201.201 0 0 0-.063-.173.499.499 0 0 0-.119-.077l-.137.266Zm-.334-.008.078.128.002-.001.008-.005a1.342 1.342 0 0 1 .133-.068.578.578 0 0 1 .104-.036c.036-.007.031.001.01-.009l.135-.268a.318.318 0 0 0-.208-.016.868.868 0 0 0-.162.055 1.592 1.592 0 0 0-.163.083l-.011.007-.003.001-.001.001.078.128Zm.3.233a.124.124 0 0 1 .062.016l-.004-.003a1.427 1.427 0 0 1-.223-.311l-.27.13a1.707 1.707 0 0 0 .271.384.427.427 0 0 0 .053.045.189.189 0 0 0 .11.039v-.3Zm.087-.106a2.694 2.694 0 0 1-.148.12c-.004.001-.003.001 0 0l.012-.006c.004-.001.023-.008.049-.008v.3a.16.16 0 0 0 .077-.02.88.88 0 0 0 .078-.053 3.95 3.95 0 0 0 .128-.105l-.196-.228Zm.167.05.01.001s-.013-.003-.029-.015a.124.124 0 0 1-.041-.136c.005-.012.007-.009-.016.015-.02.021-.049.049-.091.086l.197.226c.045-.04.083-.075.113-.107a.363.363 0 0 0 .077-.112.187.187 0 0 0 .01-.106.176.176 0 0 0-.066-.104.262.262 0 0 0-.136-.047l-.028.299Zm-.199-.219c-.002.022-.012.109.062.17a.2.2 0 0 0 .079.04.43.43 0 0 0 .055.008l.033-.298-.014-.002s.019.005.039.021c.024.02.038.048.042.07.004.018.002.029.002.024l-.298-.033Zm-.084.639.055-.038-.171-.247-.055.038.171.247Zm-.749.275c.04.032.082.033.09.033a.157.157 0 0 0 .056-.008 7.165 7.165 0 0 0 .603-.3l-.17-.247a8.567 8.567 0 0 1-.517.258l-.006.002.015-.003a.141.141 0 0 1 .029-.002c.007 0 .048.001.088.033l-.188.234Zm.064-.581a23.684 23.684 0 0 0-.116.425c-.001.005-.003.012-.003.02a.155.155 0 0 0 .003.054.15.15 0 0 0 .04.07l.212-.211a.15.15 0 0 1 .04.07c.003.013.003.023.004.028l-.001.02v.006c0-.002 0-.008.003-.018l.023-.088.083-.294-.288-.082Zm.123-.193-.102.148.246.171.103-.148-.247-.17Zm.303.01a1.196 1.196 0 0 1-.065-.018c-.005-.002-.005-.002 0 0 .003.004.011.011.018.024l-.265.14a.254.254 0 0 0 .131.113c.039.016.082.026.11.033l.071-.291Zm.212.099a.317.317 0 0 0-.117-.071c-.034-.013-.07-.021-.095-.027l-.071.291a.634.634 0 0 1 .063.018c.016.005.014.007.008 0l.212-.211Zm.123.123-.123-.123-.212.212.122.122.213-.211Zm-1.09.074a14.144 14.144 0 0 1-.116.34c0 .002 0 .002 0 0l.003-.006.013-.018.234.188a.246.246 0 0 0 .026-.046 13.835 13.835 0 0 0 .126-.365l-.285-.093Zm.132.195a.182.182 0 0 1 .054-.102c.004-.002-.005.005-.024.01a.13.13 0 0 1-.122-.036c-.037-.038-.035-.08-.035-.08 0-.006 0-.002-.005.015l.287.089a.362.362 0 0 0 .018-.098.187.187 0 0 0-.051-.137.17.17 0 0 0-.165-.044.236.236 0 0 0-.085.043.484.484 0 0 0-.17.296l.298.044Zm-.221.11a.143.143 0 0 1 .212.014c.006.008.01.015.011.019.004.008.002.006-.001-.015a.533.533 0 0 1-.001-.13l-.297-.04a.835.835 0 0 0 0 .212.364.364 0 0 0 .027.098.174.174 0 0 0 .072.08.157.157 0 0 0 .19-.027l-.213-.212Zm-2.194.124a.14.14 0 0 0 .027-.035.239.239 0 0 0 .02-.042l.026-.07a6.42 6.42 0 0 0 .07-.204l-.286-.093a6.17 6.17 0 0 1-.094.266l.003-.004a.126.126 0 0 1 .022-.03l.212.212Zm-.272.005a.456.456 0 0 0 .096.036.243.243 0 0 0 .06.007c.014 0 .08-.001.127-.06l-.234-.187a.14.14 0 0 1 .101-.053l.015.001a.165.165 0 0 1-.03-.012l-.135.268Zm-.188-.248a.411.411 0 0 0 .062.15.34.34 0 0 0 .124.097l.138-.266c-.031-.016-.026-.018-.02-.01l-.001-.003a.384.384 0 0 1-.012-.04l-.291.072Zm.043-.314c-.023.039-.054.09-.062.152-.008.06.008.119.019.162l.291-.072a.764.764 0 0 1-.011-.05c-.002-.01 0-.007-.002-.001 0 .006-.002.009 0 .002a.597.597 0 0 1 .024-.043l-.259-.15Zm.372-.29a.606.606 0 0 0-.371.289l.258.152a.308.308 0 0 1 .185-.15l-.072-.292Zm.287.197a.165.165 0 0 0 .008-.102.156.156 0 0 0-.08-.102.168.168 0 0 0-.074-.018.316.316 0 0 0-.068.008l-.072.016.07.292.062-.015c.018-.003.014-.001.002-.001a.144.144 0 0 1-.132-.11.122.122 0 0 1 0-.06l.002-.008.282.1Zm-.061.183a40.594 40.594 0 0 1 .055-.164l.003-.01-.276-.118a1.354 1.354 0 0 0-.025.071l-.042.127.285.094Zm-.039.117.039-.117-.285-.094-.039.116.285.095Zm.252-.1c.029.124.086.276.162.425l.268-.136a1.676 1.676 0 0 1-.138-.357l-.292.067Zm.023-.076a.093.093 0 0 1-.037-.021c-.012-.012-.016-.022-.015-.02a1.591 1.591 0 0 1 .028.112l.294-.06a.899.899 0 0 0-.048-.173.238.238 0 0 0-.054-.079.207.207 0 0 0-.087-.048l-.08.29Zm.037.07a1.763 1.763 0 0 1 .038-.116l-.005.007a.104.104 0 0 1-.073.035H9.38l.016.004.08-.289c-.02-.005-.057-.016-.098-.014a.194.194 0 0 0-.141.069.33.33 0 0 0-.055.101 2.01 2.01 0 0 0-.038.117l.288.086Zm-.069.222.068-.221-.287-.088-.067.22.286.089Zm-.04.126.04-.127-.286-.089-.04.127.287.09Zm-.05.163.05-.163-.286-.089-.05.163.286.09Zm.102-.147-.215-.044-.06.294.215.044.06-.294Zm.308.055a4.95 4.95 0 0 1-.309-.055l-.059.294c.114.023.267.052.337.06l.031-.3Zm.112.013-.11-.013-.034.298.11.013.034-.298Zm-.261-.002.11.218.267-.135-.11-.217-.267.135Zm.653-.496-.22-.106-.13.27.22.106.13-.27Zm-.05.344.097-.11-.225-.198-.097.11.225.198Zm-.104.159a.66.66 0 0 1 .103-.158l-.223-.2a.927.927 0 0 0-.163.257l.283.101Zm-.084.167a.208.208 0 0 0 .036-.051 1.465 1.465 0 0 0 .048-.116l-.283-.101a1.238 1.238 0 0 1-.032.08l.001-.002a.112.112 0 0 1 .018-.022l.212.212Zm-.53-.742c0 .034.007.07.014.1.008.034.018.07.03.107a2.968 2.968 0 0 0 .191.44.48.48 0 0 0 .055.08c.008.01.03.032.063.047a.156.156 0 0 0 .183-.038l-.224-.2a.144.144 0 0 1 .165-.035.122.122 0 0 1 .036.025l-.018-.028a2.672 2.672 0 0 1-.19-.467c-.005-.024-.005-.033-.005-.031h-.3Zm.547-.034a2.321 2.321 0 0 0-.282-.12.272.272 0 0 0-.125-.014.169.169 0 0 0-.14.168h.3a.13.13 0 0 1-.029.08.131.131 0 0 1-.08.048c-.027.005-.04-.004-.015.004.04.012.113.044.243.105l.128-.271Zm.88.6c-.019 0-.148.01-.276.02l.023.3.177-.014.075-.005v-.3Zm-.579-.102c.111.068.243.16.34.233.05.038.087.069.109.088.013.012.011.013.006.005a.142.142 0 0 1-.023-.076.148.148 0 0 1 .131-.147l.03.299a.153.153 0 0 0 .125-.218.186.186 0 0 0-.016-.028.35.35 0 0 0-.05-.055 1.859 1.859 0 0 0-.13-.107 4.731 4.731 0 0 0-.366-.25l-.156.256Zm-.074-.065a.147.147 0 0 1-.055-.01h.002a2.998 2.998 0 0 1 .126.074l.158-.254a3.352 3.352 0 0 0-.166-.095.2.2 0 0 0-.015-.006c-.001 0-.022-.009-.05-.009v.3Zm.018.045a2 2 0 0 1 .073-.076l-.003.003a.128.128 0 0 1-.033.018.146.146 0 0 1-.055.01v-.3a.15.15 0 0 0-.094.033 2.27 2.27 0 0 0-.11.11l.222.202Zm-.143.247a.544.544 0 0 1 .142-.246l-.22-.205a.837.837 0 0 0-.216.396l.294.055Zm-.012.067.012-.066-.294-.057-.013.066.295.057Zm.076-.166-.215-.012-.017.3.215.012.017-.3Zm.44-.006a4.7 4.7 0 0 1-.44.006l-.016.3c.126.007.339.002.475-.007l-.019-.299Z" fill="#000"/><path d="M15.055 8.714v2.576H4.67V8.556c.01.043.17.097.282.14.205.077.22.077.42-.065.27-.19.44-.185.747.022.46.311.583.317.72.044.103-.213.333-.213.727.005.17.093.343.164.394.164.046 0 .159-.087.246-.191.194-.24.307-.224.808.087.404.257.542.273.583.06.057-.267.103-.31.338-.31.143.005.358.07.578.18.19.098.384.174.42.174.04 0 .086-.076.107-.17a.453.453 0 0 1 .138-.245c.138-.092.281-.054.732.191.45.24.578.218.578-.103 0-.099.097-.164.245-.164.046 0 .236.098.425.224.41.261.522.261.557-.006.036-.273.205-.278.645-.033.327.191.695.268.695.154Z" fill="#0091C8"/><path d="M4.709 8.65c.01.043.117.108.23.152.204.076.219.076.418-.066.27-.19.439-.185.745.022.459.311.581.317.72.044.101-.213.33-.213.724.005.168.093.342.164.393.164.046 0 .158-.087.245-.19.193-.241.306-.225.806.086.403.257.54.273.581.06.057-.267.102-.31.337-.31.143.005.357.07.577.18.189.098.383.174.418.174.041 0 .087-.076.107-.17a.453.453 0 0 1 .138-.245c.138-.092.28-.054.73.191.449.24.576.219.576-.103 0-.099.097-.164.245-.164.046 0 .235.098.424.224.408.262.52.262.556-.006.036-.273.204-.278.643-.033.326.191.633.257.633.142" stroke="#fff" stroke-width=".5" stroke-linecap="round" stroke-linejoin="round"/><path fill="url(#PM-UNF - St. Pierre &amp; z__b)" style="mix-blend-mode:overlay" d="M0 0h16v12H0z"/></g><defs><linearGradient id="PM-UNF - St. Pierre &amp; z__b" x1="8" y1="0" x2="8" y2="12" gradientUnits="userSpaceOnUse"><stop stop-color="#fff" stop-opacity=".7"/><stop offset="1" stop-opacity=".3"/></linearGradient><clipPath id="PM-UNF - St. Pierre &amp; z__a"><rect width="16" height="12" rx="1" fill="#fff"/></clipPath></defs></svg>