<svg fill="none" xmlns="http://www.w3.org/2000/svg" viewBox="0 0 16 12"><g clip-path="url(#PR - Puerto Rico__a)"><mask id="PR - Puerto Rico__b" style="mask-type:alpha" maskUnits="userSpaceOnUse" x="0" y="0" width="16" height="12"><path fill="#fff" d="M0 0h16v12H0z"/></mask><g mask="url(#PR - Puerto Rico__b)"><path fill-rule="evenodd" clip-rule="evenodd" d="M0 0v12h16V0H0Z" fill="#EF0000"/><mask id="PR - Puerto Rico__c" style="mask-type:alpha" maskUnits="userSpaceOnUse" x="0" y="0" width="16" height="12"><path fill-rule="evenodd" clip-rule="evenodd" d="M0 0v12h16V0H0Z" fill="#fff"/></mask><g mask="url(#PR - Puerto Rico__c)"><path d="M0 4h-1v4h18V4H0Z" fill="#EF0000" stroke="#F7FCFF" stroke-width="2"/></g><path fill-rule="evenodd" clip-rule="evenodd" d="M0 0v12l9-6-9-6Z" fill="#3D58DB"/><mask id="PR - Puerto Rico__d" style="mask-type:alpha" maskUnits="userSpaceOnUse" x="0" y="0" width="9" height="12"><path fill-rule="evenodd" clip-rule="evenodd" d="M0 0v12l9-6-9-6Z" fill="#fff"/></mask><g mask="url(#PR - Puerto Rico__d)"><path fill-rule="evenodd" clip-rule="evenodd" d="m3.344 7.108-1.836.97.894-1.948-1.14-1.04 1.407-.052.675-1.76.515 1.76h1.404L4.327 6.13l.744 1.947-1.727-.969Z" fill="#F7FCFF"/></g></g><path fill="url(#PR - Puerto Rico__e)" style="mix-blend-mode:overlay" d="M0 0h16v12H0z"/></g><defs><linearGradient id="PR - Puerto Rico__e" x1="8" y1="0" x2="8" y2="12" gradientUnits="userSpaceOnUse"><stop stop-color="#fff" stop-opacity=".7"/><stop offset="1" stop-opacity=".3"/></linearGradient><clipPath id="PR - Puerto Rico__a"><rect width="16" height="12" rx="1" fill="#fff"/></clipPath></defs></svg>