<svg fill="none" xmlns="http://www.w3.org/2000/svg" viewBox="0 0 16 12"><g clip-path="url(#PY - Paraguay__a)"><mask id="PY - Paraguay__b" style="mask-type:alpha" maskUnits="userSpaceOnUse" x="0" y="0" width="16" height="12"><path fill="#fff" d="M0 0h16v12H0z"/></mask><g mask="url(#PY - Paraguay__b)"><path fill-rule="evenodd" clip-rule="evenodd" d="M0 0v12h16V0H0Z" fill="#F7FCFF"/><mask id="PY - Paraguay__c" style="mask-type:alpha" maskUnits="userSpaceOnUse" x="0" y="0" width="16" height="12"><path fill-rule="evenodd" clip-rule="evenodd" d="M0 0v12h16V0H0Z" fill="#fff"/></mask><g mask="url(#PY - Paraguay__c)"><path fill-rule="evenodd" clip-rule="evenodd" d="M6 6a2 2 0 1 0 4 0 2 2 0 0 0-4 0Zm3.5 0a1.5 1.5 0 1 1-3 0 1.5 1.5 0 0 1 3 0Z" fill="#272727"/><path fill-rule="evenodd" clip-rule="evenodd" d="M0 0v4h16V0H0Z" fill="#F05234"/><path fill-rule="evenodd" clip-rule="evenodd" d="M0 8v4h16V8H0Z" fill="#3D58DB"/><path d="m7.289 4.928.285.411c-.285.197-.37.47-.262.876.107.397.343.583.76.598l-.018.5c-.636-.023-1.061-.359-1.225-.97-.16-.6-.006-1.092.46-1.415Z" fill="#73BE4A"/><path d="m8.712 4.928-.284.411c.284.197.37.47.261.876-.106.397-.342.583-.76.598l.018.5c.636-.023 1.061-.359 1.225-.97.161-.6.007-1.092-.46-1.415Z" fill="#73BE4A"/><path fill-rule="evenodd" clip-rule="evenodd" d="M8.001 6.374a.5.5 0 1 0 0-1 .5.5 0 0 0 0 1Z" fill="#FBCD17"/></g></g><path fill="url(#PY - Paraguay__d)" style="mix-blend-mode:overlay" d="M0 0h16v12H0z"/></g><defs><linearGradient id="PY - Paraguay__d" x1="8" y1="0" x2="8" y2="12" gradientUnits="userSpaceOnUse"><stop stop-color="#fff" stop-opacity=".7"/><stop offset="1" stop-opacity=".3"/></linearGradient><clipPath id="PY - Paraguay__a"><rect width="16" height="12" rx="1" fill="#fff"/></clipPath></defs></svg>