<svg fill="none" xmlns="http://www.w3.org/2000/svg" viewBox="0 0 16 12"><g clip-path="url(#RW - Rwanda__a)"><mask id="RW - Rwanda__b" style="mask-type:alpha" maskUnits="userSpaceOnUse" x="0" y="0" width="16" height="12"><path fill="#fff" d="M0 0h16v12H0z"/></mask><g mask="url(#RW - Rwanda__b)"><path fill-rule="evenodd" clip-rule="evenodd" d="M0 0v12h16V0H0Z" fill="#FECA00"/><mask id="RW - Rwanda__c" style="mask-type:alpha" maskUnits="userSpaceOnUse" x="0" y="0" width="16" height="12"><path fill-rule="evenodd" clip-rule="evenodd" d="M0 0v12h16V0H0Z" fill="#fff"/></mask><g mask="url(#RW - Rwanda__c)" fill-rule="evenodd" clip-rule="evenodd"><path d="M0 0v7h16V0H0Z" fill="#3CA5D9"/><path d="M0 9v3h16V9H0Z" fill="#5A962A"/><path d="M12.04 5.933a2.07 2.07 0 0 1-.092 0l-.302.987-.064-1.028a1.996 1.996 0 0 1-.09-.021l-.524.89.177-1.014a1.955 1.955 0 0 1-.085-.041l-.715.745.408-.944-.073-.06-.87.561.617-.824c-.02-.025-.04-.05-.058-.076l-.975.347.79-.66a1.966 1.966 0 0 1-.038-.089l-1.028.116.922-.462a1.887 1.887 0 0 1-.017-.095l-1.026-.122 1.004-.24.006-.096-.97-.353 1.032-.003.028-.094-.86-.563 1.005.232.05-.085-.706-.745.924.456c.022-.024.045-.048.068-.07l-.513-.887.793.654.082-.053-.293-.98.62.818a2 2 0 0 1 .092-.033l-.057-1.02.413.938a2.04 2.04 0 0 1 .097-.011L11.995 1l.183 1.009c.032.002.064.006.096.01l.413-.939-.057 1.024c.03.01.06.02.09.032l.622-.82-.294.984c.027.016.054.034.08.052l.797-.657-.516.89.065.07.929-.459-.71.75c.017.026.032.054.048.081l1.01-.233-.865.567.027.09 1.038.003-.975.355.005.093 1.011.24-1.033.123-.016.092.928.465-1.034-.116a1.836 1.836 0 0 1-.037.084l.795.665-.98-.35-.056.074.62.83-.874-.565-.07.059.41.948-.719-.748a1.995 1.995 0 0 1-.082.041l.178 1.017-.525-.892-.09.021-.064 1.03-.302-.987Zm-.067-.726c.7 0 1.268-.559 1.268-1.25 0-.69-.568-1.249-1.268-1.249-.7 0-1.268.56-1.268 1.25s.568 1.25 1.268 1.25Zm.73-1.213a.715.715 0 1 1-1.43 0 .715.715 0 0 1 1.43 0Z" fill="#FFDC17"/></g></g><path fill="url(#RW - Rwanda__d)" style="mix-blend-mode:overlay" d="M0 0h16v12H0z"/></g><defs><linearGradient id="RW - Rwanda__d" x1="8" y1="0" x2="8" y2="12" gradientUnits="userSpaceOnUse"><stop stop-color="#fff" stop-opacity=".7"/><stop offset="1" stop-opacity=".3"/></linearGradient><clipPath id="RW - Rwanda__a"><rect width="16" height="12" rx="1" fill="#fff"/></clipPath></defs></svg>