<svg fill="none" xmlns="http://www.w3.org/2000/svg" viewBox="0 0 16 12"><g clip-path="url(#SB - Solomon Islands__a)"><mask id="SB - Solomon Islands__b" style="mask-type:alpha" maskUnits="userSpaceOnUse" x="0" y="0" width="16" height="12"><path fill="#fff" d="M0 0h16v12H0z"/></mask><g mask="url(#SB - Solomon Islands__b)"><path fill-rule="evenodd" clip-rule="evenodd" d="M0 0v12h16V0H0Z" fill="#3D58DB"/><mask id="SB - Solomon Islands__c" style="mask-type:alpha" maskUnits="userSpaceOnUse" x="0" y="0" width="16" height="12"><path fill-rule="evenodd" clip-rule="evenodd" d="M0 0v12h16V0H0Z" fill="#fff"/></mask><g mask="url(#SB - Solomon Islands__c)"><path fill-rule="evenodd" clip-rule="evenodd" d="M0 12h16V0L0 12Z" fill="#579D20"/><path d="m-.391 12.373-.902-1.248L16.837-.977 17.74.27-.39 12.373Z" fill="#FECA00"/><path fill-rule="evenodd" clip-rule="evenodd" d="m1.827 3.273.681-.473.714.425-.25-.762.5-.545h-.677l-.287-.801-.286.801-.678.028.5.517-.217.81Zm2.829 0 .682-.473.714.425-.25-.762.499-.545h-.677l-.286-.801-.287.801-.678.028.5.517-.217.81Z" fill="#F7FCFF"/><path fill-rule="evenodd" clip-rule="evenodd" d="m3.324 4.727.682-.473.714.425-.25-.762.5-.545h-.677l-.287-.801-.287.8-.678.029.5.517-.217.81ZM2.508 5.8l-.681.473.218-.81-.501-.517.678-.028.286-.801.287.801h.677l-.5.545.25.762-.714-.425Zm2.83 0-.682.473.218-.81-.5-.517.677-.028.287-.801.286.801h.677l-.5.545.25.762-.713-.425Z" fill="#F7FCFF"/></g></g><path fill="url(#SB - Solomon Islands__d)" style="mix-blend-mode:overlay" d="M0 0h16v12H0z"/></g><defs><linearGradient id="SB - Solomon Islands__d" x1="8" y1="0" x2="8" y2="12" gradientUnits="userSpaceOnUse"><stop stop-color="#fff" stop-opacity=".7"/><stop offset="1" stop-opacity=".3"/></linearGradient><clipPath id="SB - Solomon Islands__a"><rect width="16" height="12" rx="1" fill="#fff"/></clipPath></defs></svg>