<svg fill="none" xmlns="http://www.w3.org/2000/svg" viewBox="0 0 16 12"><g clip-path="url(#SC - Seychelles__a)"><mask id="SC - Seychelles__b" style="mask-type:alpha" maskUnits="userSpaceOnUse" x="0" y="0" width="16" height="12"><path fill="#fff" d="M0 0h16v12H0z"/></mask><g mask="url(#SC - Seychelles__b)"><path fill-rule="evenodd" clip-rule="evenodd" d="M0 0v12h16V0H0Z" fill="#2E42A5"/><mask id="SC - Seychelles__c" style="mask-type:alpha" maskUnits="userSpaceOnUse" x="0" y="0" width="16" height="12"><path fill-rule="evenodd" clip-rule="evenodd" d="M0 0v12h16V0H0Z" fill="#fff"/></mask><g mask="url(#SC - Seychelles__c)"><path fill-rule="evenodd" clip-rule="evenodd" d="M0 11.998 8.076-1h8.075L0 11.998Z" fill="#FFD018"/><path d="M0 11.998 17.232 5.5v-8.05L0 11.998Z" fill="#E31D1C"/><path d="M0 11.998 17.232 9.5V5.45L0 11.998Z" fill="#F7FCFF"/><path fill-rule="evenodd" clip-rule="evenodd" d="M0 11.998h17.232v-3.55L0 11.998Z" fill="#5EAA22"/></g></g><path fill="url(#SC - Seychelles__d)" style="mix-blend-mode:overlay" d="M0 0h16v12H0z"/></g><defs><linearGradient id="SC - Seychelles__d" x1="8" y1="0" x2="8" y2="12" gradientUnits="userSpaceOnUse"><stop stop-color="#fff" stop-opacity=".7"/><stop offset="1" stop-opacity=".3"/></linearGradient><clipPath id="SC - Seychelles__a"><rect width="16" height="12" rx="1" fill="#fff"/></clipPath></defs></svg>