<svg fill="none" xmlns="http://www.w3.org/2000/svg" viewBox="0 0 16 12"><g clip-path="url(#SK - Slovakia__a)"><mask id="SK - Slovakia__b" style="mask-type:alpha" maskUnits="userSpaceOnUse" x="0" y="0" width="16" height="12"><path fill="#fff" d="M0 0h16v12H0z"/></mask><g mask="url(#SK - Slovakia__b)"><path fill-rule="evenodd" clip-rule="evenodd" d="M0 0v12h16V0H0Z" fill="#3D58DB"/><mask id="SK - Slovakia__c" style="mask-type:alpha" maskUnits="userSpaceOnUse" x="0" y="0" width="16" height="12"><path fill-rule="evenodd" clip-rule="evenodd" d="M0 0v12h16V0H0Z" fill="#fff"/></mask><g mask="url(#SK - Slovakia__c)"><path fill-rule="evenodd" clip-rule="evenodd" d="M0 0v4h16V0H0Z" fill="#F7FCFF"/><path fill-rule="evenodd" clip-rule="evenodd" d="M0 8v4h16V8H0Z" fill="#E31D1C"/><path d="m7.802 3.015.249-.026-.024-.224H2.939l-.016.233.25.017-.25-.017v.008l-.002.024-.006.088a61.851 61.851 0 0 0-.07 1.343c-.033.77-.055 1.671.001 2.092.11.822.61 2.665 2.544 3.5l.1.044.101-.045c1.837-.821 2.452-2.475 2.593-3.497.072-.516.036-1.418-.015-2.168A40.855 40.855 0 0 0 8.062 3.1l-.008-.083-.003-.022V2.99l-.249.026Z" fill="#E31D1C" stroke="#fff" stroke-width=".5"/><mask id="SK - Slovakia__d" style="mask-type:alpha" maskUnits="userSpaceOnUse" x="2" y="2" width="7" height="9"><path d="m7.802 3.015.249-.026-.024-.224H2.939l-.016.233.25.017-.25-.017v.008l-.002.024-.006.088a61.851 61.851 0 0 0-.07 1.343c-.033.77-.055 1.671.001 2.092.11.822.61 2.665 2.544 3.5l.1.044.101-.045c1.837-.821 2.452-2.475 2.593-3.497.072-.516.036-1.418-.015-2.168A40.855 40.855 0 0 0 8.062 3.1l-.008-.083-.003-.022V2.99l-.249.026Z" fill="#fff" stroke="#fff" stroke-width=".5"/></mask><g mask="url(#SK - Slovakia__d)" fill-rule="evenodd" clip-rule="evenodd"><path d="M4.931 3.295s.103.157.15.398c.046.24.054.514.054.514l-.782-.12v.89l.804-.128-.024.934s-.102.031-.348 0-.73-.161-.73-.161v.85s.492-.157.73-.193c.238-.036.348 0 .348 0l.007.815h.798l-.008-.815s.251-.039.516.003.517.19.517.19v-.85s-.255.127-.495.158c-.24.032-.538.003-.538.003l.024-.934s.14-.034.326-.009.42.137.42.137v-.89s-.228.123-.407.146c-.179.022-.36-.026-.36-.026s.006-.287.044-.499c.039-.212.148-.413.148-.413H4.93Z" fill="#F7FCFF"/><path d="M3.449 8.123s.22-.472.577-.562c.358-.09.732.281.732.281s.23-.748.787-.748c.559 0 .754.748.754.748s.238-.28.58-.28c.343 0 .66.56.66.56S6.517 9.98 5.494 9.98 3.45 8.123 3.45 8.123Z" fill="#2E42A5"/></g></g></g><path fill="url(#SK - Slovakia__e)" style="mix-blend-mode:overlay" d="M0 0h16v12H0z"/></g><defs><linearGradient id="SK - Slovakia__e" x1="8" y1="0" x2="8" y2="12" gradientUnits="userSpaceOnUse"><stop stop-color="#fff" stop-opacity=".7"/><stop offset="1" stop-opacity=".3"/></linearGradient><clipPath id="SK - Slovakia__a"><rect width="16" height="12" rx="1" fill="#fff"/></clipPath></defs></svg>