<svg fill="none" xmlns="http://www.w3.org/2000/svg" viewBox="0 0 16 12"><g clip-path="url(#SR - Suriname__a)"><mask id="SR - Suriname__b" style="mask-type:alpha" maskUnits="userSpaceOnUse" x="0" y="0" width="16" height="12"><path fill="#fff" d="M0 0h16v12H0z"/></mask><g mask="url(#SR - Suriname__b)"><path fill-rule="evenodd" clip-rule="evenodd" d="M0 8h16v4H0V8Zm0-8h16v3H0V0Z" fill="#4E8B1D"/><path d="M0 3.25h-.75v5.5h17.5v-5.5H0Z" fill="#AF0100" stroke="#fff" stroke-width="1.5"/><path fill-rule="evenodd" clip-rule="evenodd" d="M8.001 7.247 6.754 8l.285-1.47L6 5.432l1.406-.06L8.001 4l.595 1.372H10L8.964 6.53 9.276 8 8 7.247Z" fill="#FECA00"/></g><path fill="url(#SR - Suriname__c)" style="mix-blend-mode:overlay" d="M0 0h16v12H0z"/></g><defs><linearGradient id="SR - Suriname__c" x1="8" y1="0" x2="8" y2="12" gradientUnits="userSpaceOnUse"><stop stop-color="#fff" stop-opacity=".7"/><stop offset="1" stop-opacity=".3"/></linearGradient><clipPath id="SR - Suriname__a"><rect width="16" height="12" rx="1" fill="#fff"/></clipPath></defs></svg>