<svg fill="none" xmlns="http://www.w3.org/2000/svg" viewBox="0 0 16 12"><g clip-path="url(#SX - Sint Maarten__a)"><mask id="SX - Sint Maarten__b" style="mask-type:alpha" maskUnits="userSpaceOnUse" x="0" y="0" width="16" height="12"><path fill="#fff" d="M0 0h16v12H0z"/></mask><g mask="url(#SX - Sint Maarten__b)"><path fill-rule="evenodd" clip-rule="evenodd" d="M0 0v12h16V0H0Z" fill="#E31D1C"/><mask id="SX - Sint Maarten__c" style="mask-type:alpha" maskUnits="userSpaceOnUse" x="0" y="0" width="16" height="12"><path fill-rule="evenodd" clip-rule="evenodd" d="M0 0v12h16V0H0Z" fill="#fff"/></mask><g mask="url(#SX - Sint Maarten__c)"><path fill-rule="evenodd" clip-rule="evenodd" d="M0 6v6h16V6H0Z" fill="#2E42A5"/></g><path fill-rule="evenodd" clip-rule="evenodd" d="M0-1v14l10-7L0-1Z" fill="#F7FCFF"/><mask id="SX - Sint Maarten__d" style="mask-type:alpha" maskUnits="userSpaceOnUse" x="0" y="-1" width="10" height="14"><path fill-rule="evenodd" clip-rule="evenodd" d="M0-1v14l10-7L0-1Z" fill="#fff"/></mask><g mask="url(#SX - Sint Maarten__d)"><path fill-rule="evenodd" clip-rule="evenodd" d="M4.063 4.594c.718 0 1.3-.357 1.3-.797 0-.44-.582-.797-1.3-.797-.718 0-1.3.357-1.3.797 0 .44.582.797 1.3.797Z" fill="#FBCD17"/><path fill-rule="evenodd" clip-rule="evenodd" d="M4.177 3.193c-.106 0-.182.068-.182.171v.011a.199.199 0 0 0-.01.058c0 .055.02.1.062.142a.117.117 0 0 1 .004.028c-.003-.009-.013-.016-.033-.03a1.06 1.06 0 0 1-.145-.126c-.101-.103-.178-.143-.273-.127a.444.444 0 0 0-.09.029.335.335 0 0 1-.196.006c-.255-.048-.535 0-.838.14l.105.226c.259-.12.487-.158.686-.12a.58.58 0 0 0 .375-.034c-.003 0-.001.002.011.014l.042.042a.924.924 0 0 0 .09.079c-.06.015-.056.026-.046.065.005.015.01.035.014.062.007.06-.005.09.005.106.012.016.052.012.178.007a4.954 4.954 0 0 0 .426-.046c.07-.012.09-.016.119-.037l.026-.033a11.768 11.768 0 0 1 .818-.092c.007 0 .007 0 .037-.006.014-.006.02-.008.021-.01.001 0 .002 0 0 0l.062-.144-.064-.077a.208.208 0 0 0-.046-.013h-.001a.347.347 0 0 0-.013 0h-.057a.639.639 0 0 1-.122-.013l-.044-.008c-.195-.036-.375-.036-.759.021l-.021-.016c.062-.01.137-.018.216-.022l.075-.003h.012l-.002-.25h-.442Zm-.207.723.024-.005.023-.005-.047.01Z" fill="#DA610A"/><path d="m3.962 4.29.041-.246.04.246c.497-.081.824-.072 1.013-.008.218.073.46.052.713-.033-.08.359-.121.698-.121 1.017a3.622 3.622 0 0 0 .139.935c.062.252.114.461.114.701 0 .216-.071.329-.171.4-.116.081-.308.133-.594.133-.403 0-.78.109-1.127.321l-.006-.004-.006.004a2.127 2.127 0 0 0-1.127-.32c-.286 0-.478-.053-.594-.135-.1-.07-.171-.183-.171-.399 0-.24.052-.449.114-.7l.005-.022a3.6 3.6 0 0 0 .134-.914c0-.319-.041-.658-.121-1.017.253.085.494.106.713.033.189-.064.516-.073 1.012.008Z" fill="#56C6F5" stroke="#E31D1C" stroke-width=".5"/><path fill-rule="evenodd" clip-rule="evenodd" d="m4.392 5.112-.385-.343-.386.343h.114v.198l-.6.374v.914h-.114v.171h2v-.171h-.143v-.914l-.628-.392v-.18h.142Z" fill="#F7FCFF"/><path d="M3.976 8.51c.53 0 .896-.058 1.084-.156a.253.253 0 0 1 .228-.128c.413.015.733-.159.984-.542.272-.413.327-1 .15-1.771l.45-.103c.203.883.136 1.595-.214 2.128-.314.477-.742.732-1.264.75-.266.197-.734.284-1.418.284-.662 0-1.153-.129-1.468-.402-.715-.169-1.169-.454-1.348-.877-.19-.45-.19-1.076-.012-1.881l.45.099c-.159.72-.159 1.257-.013 1.603.102.24.399.438.9.574l.467.1-.022.118c.227.133.575.204 1.046.204Z" fill="#FBCD17"/><path d="m2.357 4.412.256.103-.128.266.357-.185-.027.137-.077.376.147-.429v.38l.089-.38.266.08-.266-.164.266-.081" stroke="#73BE4A" stroke-width=".5" stroke-linecap="round" stroke-linejoin="round"/><path fill-rule="evenodd" clip-rule="evenodd" d="M2.844 4.969a.25.25 0 1 0 0-.5.25.25 0 0 0 0 .5Z" fill="#FBCD17"/><path fill-rule="evenodd" clip-rule="evenodd" d="M5.32 4.937c-.004-.168-.022-.552-.108-.552-.085 0-.098.388-.1.555a.67.67 0 0 0-.259.175h.736s-.116-.133-.268-.178Z" fill="#F7FCFF"/></g></g><path fill="url(#SX - Sint Maarten__e)" style="mix-blend-mode:overlay" d="M0 0h16v12H0z"/></g><defs><linearGradient id="SX - Sint Maarten__e" x1="8" y1="0" x2="8" y2="12" gradientUnits="userSpaceOnUse"><stop stop-color="#fff" stop-opacity=".7"/><stop offset="1" stop-opacity=".3"/></linearGradient><clipPath id="SX - Sint Maarten__a"><rect width="16" height="12" rx="1" fill="#fff"/></clipPath></defs></svg>