<svg fill="none" xmlns="http://www.w3.org/2000/svg" viewBox="0 0 16 12"><g clip-path="url(#SY - Syria__a)"><mask id="SY - Syria__b" style="mask-type:alpha" maskUnits="userSpaceOnUse" x="0" y="0" width="16" height="12"><path fill="#fff" d="M0 0h16v12H0z"/></mask><g mask="url(#SY - Syria__b)" fill-rule="evenodd" clip-rule="evenodd"><path d="M0 0h16v12H0V0Z" fill="#F7FCFF"/><path d="m4.5 6.935-.934.565.213-1.102L3 5.573l1.055-.044L4.5 4.5l.446 1.029H6l-.777.87.234 1.101-.956-.565Zm7 0-.934.565.213-1.102L10 5.573l1.055-.044L11.5 4.5l.446 1.029H13l-.777.87.234 1.101-.956-.565Z" fill="#409100"/><path d="M0 0v4h16V0H0Z" fill="#E31D1C"/><path d="M0 8v4h16V8H0Z" fill="#272727"/></g><path fill="url(#SY - Syria__c)" style="mix-blend-mode:overlay" d="M0 0h16v12H0z"/></g><defs><linearGradient id="SY - Syria__c" x1="8" y1="0" x2="8" y2="12" gradientUnits="userSpaceOnUse"><stop stop-color="#fff" stop-opacity=".7"/><stop offset="1" stop-opacity=".3"/></linearGradient><clipPath id="SY - Syria__a"><rect width="16" height="12" rx="1" fill="#fff"/></clipPath></defs></svg>