<svg fill="none" xmlns="http://www.w3.org/2000/svg" viewBox="0 0 16 12"><g clip-path="url(#TK - Tokelau__a)"><mask id="TK - Tokelau__b" style="mask-type:alpha" maskUnits="userSpaceOnUse" x="0" y="0" width="16" height="12"><path fill="#fff" d="M0 0h16v12H0z"/></mask><g mask="url(#TK - Tokelau__b)"><path fill-rule="evenodd" clip-rule="evenodd" d="M0 0v12h16V0H0Z" fill="#2E42A5"/><mask id="TK - Tokelau__c" style="mask-type:alpha" maskUnits="userSpaceOnUse" x="0" y="0" width="16" height="12"><path fill-rule="evenodd" clip-rule="evenodd" d="M0 0v12h16V0H0Z" fill="#fff"/></mask><g mask="url(#TK - Tokelau__c)" fill-rule="evenodd" clip-rule="evenodd"><path d="m1.647 5.032-.443.274.172-.46L1 4.498h.456L1.647 4l.146.498h.457l-.33.348.162.46-.435-.274Zm2-2-.443.274.172-.46L3 2.498h.457L3.647 2l.146.498h.457l-.33.348.162.46-.435-.274Zm2 2-.443.274.172-.46L5 4.498h.457L5.647 4l.146.498h.457l-.33.348.162.46-.435-.274Zm-2 2-.443.274.172-.46L3 6.498h.457L3.647 6l.146.498h.457l-.33.348.162.46-.435-.274Z" fill="#F7FCFF"/><path d="M12.421 2.732c-2.042 1.008-8.75 5.54-8.75 5.54h11.175c-.111-.024-.216-.045-.314-.065-.82-.163-1.225-.244-2.111-2.008-.992-1.977 0-3.467 0-3.467Zm-9.113 6.25-.153.38.153.418 11.377.22.315-.58-.315-.417-11.377-.02Z" fill="#FECA00"/></g></g><path fill="url(#TK - Tokelau__d)" style="mix-blend-mode:overlay" d="M0 0h16v12H0z"/></g><defs><linearGradient id="TK - Tokelau__d" x1="8" y1="0" x2="8" y2="12" gradientUnits="userSpaceOnUse"><stop stop-color="#fff" stop-opacity=".7"/><stop offset="1" stop-opacity=".3"/></linearGradient><clipPath id="TK - Tokelau__a"><rect width="16" height="12" rx="1" fill="#fff"/></clipPath></defs></svg>