<svg fill="none" xmlns="http://www.w3.org/2000/svg" viewBox="0 0 16 12"><g clip-path="url(#TL - Timor-Leste__a)"><mask id="TL - Timor-Leste__b" style="mask-type:alpha" maskUnits="userSpaceOnUse" x="0" y="0" width="16" height="12"><path fill="#fff" d="M0 0h16v12H0z"/></mask><g mask="url(#TL - Timor-Leste__b)"><path d="M0-.5h-.5v13h17v-13H0Z" fill="#E31D1C" stroke="#F7FCFF"/><path fill-rule="evenodd" clip-rule="evenodd" d="m0 0 12 6-12 6V0Z" fill="#FECA00"/><path fill-rule="evenodd" clip-rule="evenodd" d="m0 0 8 6-8 6V0Z" fill="#272727"/><path fill-rule="evenodd" clip-rule="evenodd" d="m3.324 7.204-1.01 1.05-.105-1.492L.92 5.968l1.343-.421.22-1.48.93 1.172 1.355-.363-.7 1.387.681 1.339-1.426-.398Z" fill="#F7FCFF"/></g><path fill="url(#TL - Timor-Leste__c)" style="mix-blend-mode:overlay" d="M0 0h16v12H0z"/></g><defs><linearGradient id="TL - Timor-Leste__c" x1="8" y1="0" x2="8" y2="12" gradientUnits="userSpaceOnUse"><stop stop-color="#fff" stop-opacity=".7"/><stop offset="1" stop-opacity=".3"/></linearGradient><clipPath id="TL - Timor-Leste__a"><rect width="16" height="12" rx="1" fill="#fff"/></clipPath></defs></svg>