<svg fill="none" xmlns="http://www.w3.org/2000/svg" viewBox="0 0 16 12"><g clip-path="url(#TN - Tunisia__a)"><mask id="TN - Tunisia__b" style="mask-type:alpha" maskUnits="userSpaceOnUse" x="0" y="0" width="16" height="12"><path fill="#fff" d="M0 0h16v12H0z"/></mask><g mask="url(#TN - Tunisia__b)"><path fill-rule="evenodd" clip-rule="evenodd" d="M0 0v12h16V0H0Z" fill="#E31D1C"/><mask id="TN - Tunisia__c" style="mask-type:alpha" maskUnits="userSpaceOnUse" x="0" y="0" width="16" height="12"><path fill-rule="evenodd" clip-rule="evenodd" d="M0 0v12h16V0H0Z" fill="#fff"/></mask><g mask="url(#TN - Tunisia__c)" fill-rule="evenodd" clip-rule="evenodd"><path d="M8 10a4 4 0 1 0 0-8 4 4 0 0 0 0 8Z" fill="#F7FCFF"/><path d="M8.701 8.825S6.593 8.25 6.593 5.987c0-2.264 2.108-2.888 2.108-2.888-.871-.338-3.423.18-3.423 2.888 0 2.707 2.623 3.195 3.423 2.838Zm-.116-3.33-1.046.381 1.125.393.037 1.053.685-.818 1.128.08-.813-.663.49-.957-.957.321-.662-.828.013 1.037Z" fill="#E31D1C"/></g></g><path fill="url(#TN - Tunisia__d)" style="mix-blend-mode:overlay" d="M0 0h16v12H0z"/></g><defs><linearGradient id="TN - Tunisia__d" x1="8" y1="0" x2="8" y2="12" gradientUnits="userSpaceOnUse"><stop stop-color="#fff" stop-opacity=".7"/><stop offset="1" stop-opacity=".3"/></linearGradient><clipPath id="TN - Tunisia__a"><rect width="16" height="12" rx="1" fill="#fff"/></clipPath></defs></svg>