<svg fill="none" xmlns="http://www.w3.org/2000/svg" viewBox="0 0 16 12"><g clip-path="url(#TT - Trinidad and Tobago__a)"><mask id="TT - Trinidad and Tobago__b" style="mask-type:alpha" maskUnits="userSpaceOnUse" x="0" y="0" width="16" height="12"><path fill="#fff" d="M0 0h16v12H0z"/></mask><g mask="url(#TT - Trinidad and Tobago__b)"><path fill-rule="evenodd" clip-rule="evenodd" d="M0 0v12h16V0H0Z" fill="#E31D1C"/><mask id="TT - Trinidad and Tobago__c" style="mask-type:alpha" maskUnits="userSpaceOnUse" x="0" y="0" width="16" height="12"><path fill-rule="evenodd" clip-rule="evenodd" d="M0 0v12h16V0H0Z" fill="#fff"/></mask><g mask="url(#TT - Trinidad and Tobago__c)"><path d="m14.774 14.74-.265.218-.234-.25-15.172-16.2-.267-.285.303-.248L.687-3.291l.265-.217.234.25 15.172 16.2.267.285-.303.248-1.548 1.266Z" fill="#272727" stroke="#F7FCFF" stroke-width=".732"/></g></g><path fill="url(#TT - Trinidad and Tobago__d)" style="mix-blend-mode:overlay" d="M0 0h16v12H0z"/></g><defs><linearGradient id="TT - Trinidad and Tobago__d" x1="8" y1="0" x2="8" y2="12" gradientUnits="userSpaceOnUse"><stop stop-color="#fff" stop-opacity=".7"/><stop offset="1" stop-opacity=".3"/></linearGradient><clipPath id="TT - Trinidad and Tobago__a"><rect width="16" height="12" rx="1" fill="#fff"/></clipPath></defs></svg>