<svg fill="none" xmlns="http://www.w3.org/2000/svg" viewBox="0 0 16 12"><g clip-path="url(#TW - Taiwan__a)"><mask id="TW - Taiwan__b" style="mask-type:alpha" maskUnits="userSpaceOnUse" x="0" y="0" width="16" height="12"><path fill="#fff" d="M0 0h16v12H0z"/></mask><g mask="url(#TW - Taiwan__b)"><path fill-rule="evenodd" clip-rule="evenodd" d="M0 0v12h16V0H0Z" fill="#EF0000"/><mask id="TW - Taiwan__c" style="mask-type:alpha" maskUnits="userSpaceOnUse" x="0" y="0" width="16" height="12"><path fill-rule="evenodd" clip-rule="evenodd" d="M0 0v12h16V0H0Z" fill="#fff"/></mask><g mask="url(#TW - Taiwan__c)" fill-rule="evenodd" clip-rule="evenodd"><path d="M0 0v7h9V0H0Z" fill="#2E42A5"/><path d="m4.365 5.405-.741.925-.18-1.171-1.103.43.43-1.104-1.171-.18.924-.74-.924-.741 1.17-.18-.43-1.103 1.105.43L3.624.8l.74.924L5.107.8l.18 1.17 1.103-.43-.43 1.105 1.17.179-.924.74.925.742-1.171.18.43 1.103-1.104-.43-.18 1.17-.74-.924Zm0-.409a1.431 1.431 0 1 0 0-2.862 1.431 1.431 0 0 0 0 2.862ZM5.51 3.565a1.145 1.145 0 1 1-2.29 0 1.145 1.145 0 0 1 2.29 0Z" fill="#FEFFFF"/></g></g><path fill="url(#TW - Taiwan__d)" style="mix-blend-mode:overlay" d="M0 0h16v12H0z"/></g><defs><linearGradient id="TW - Taiwan__d" x1="8" y1="0" x2="8" y2="12" gradientUnits="userSpaceOnUse"><stop stop-color="#fff" stop-opacity=".7"/><stop offset="1" stop-opacity=".3"/></linearGradient><clipPath id="TW - Taiwan__a"><rect width="16" height="12" rx="1" fill="#fff"/></clipPath></defs></svg>