<svg fill="none" xmlns="http://www.w3.org/2000/svg" viewBox="0 0 16 12"><g clip-path="url(#Union of South American nations__a)"><mask id="Union of South American nations__b" style="mask-type:alpha" maskUnits="userSpaceOnUse" x="0" y="0" width="16" height="12"><path fill="#fff" d="M0 0h16v12H0z"/></mask><g mask="url(#Union of South American nations__b)"><path fill-rule="evenodd" clip-rule="evenodd" d="M0 0h16v12H0V0Z" fill="#2E42A5"/></g><path fill-rule="evenodd" clip-rule="evenodd" d="M2.067 3.407c-.172-.12.021-.351.198-.239.117.074.34.204.661.373a18.11 18.11 0 0 0 1.812.828c2.01.793 4.127 1.25 6.247 1.2A4.726 4.726 0 0 0 12.22 5.4a2.289 2.289 0 0 0-.297-.466c-.107-.136.078-.304.231-.209a2.754 2.754 0 0 1 .555.47c.541-.329.576-.852-.093-1.696-.108-.136.078-.304.23-.209a3.674 3.674 0 0 1 .567.455c.562.552.775 1.14.4 1.698a1.378 1.378 0 0 1-.12.153 1.538 1.538 0 0 1-.455.334c-.05.026-.102.051-.156.074a.882.882 0 0 1-.248.595 1.251 1.251 0 0 1-.372.274c-.136.07-.29.13-.462.172a.745.745 0 0 1-.207.485 1.046 1.046 0 0 1-.312.23c-.222.115-.495.19-.813.206a.574.574 0 0 1-.133.238.749.749 0 0 1-.224.166 1.41 1.41 0 0 1-.64.147l-.058.003a6.74 6.74 0 0 1-1.3-.095 7.283 7.283 0 0 1-2.291-.765 6.446 6.446 0 0 1-.622-.381c-.172-.12.02-.352.198-.24.048.031.142.086.278.157.227.12.485.24.77.352.852.337 1.75.53 2.65.51a1.951 1.951 0 0 0 .557-.087c-1.813-.064-3.836-.584-5.651-1.845-.172-.12.02-.351.198-.239.074.047.217.13.423.239.343.181.734.362 1.163.532 1.292.509 2.65.802 4.012.77h.012a1.495 1.495 0 0 0-.092-.128c-.06-.077-.028-.163.04-.207-.337-.029-.7-.073-1.086-.135a13.286 13.286 0 0 1-4.18-1.396c-.39-.21-.769-.441-1.134-.695-.171-.119.022-.35.199-.238.091.058.268.16.522.294.424.224.905.447 1.434.656 1.592.628 3.267.99 4.945.95.142 0 .338-.011.551-.043a1.828 1.828 0 0 0-.147-.233c-2.92-.065-6.14-.863-8.994-2.846ZM10.408 7.3c.029.028.056.057.08.086.299-.049.534-.133.674-.253-.287.008-.619.002-.986-.023.065.043.148.107.232.19Zm1.236-.753c.323-.09.633-.243.765-.502-.278.155-.605.18-1.133.18.08.053.2.1.368.322ZM3.67 2.97c-.172-.12.021-.351.199-.24.082.053.24.146.468.266.381.2.814.402 1.29.59 1.431.563 2.937.888 4.446.853.199 0 .49-.023.773-.093.75-.186.955-.56.352-1.32-.107-.136.078-.303.231-.208.106.066.26.18.414.331.413.407.572.845.29 1.264a1.03 1.03 0 0 1-.088.113c-.057.068-.168.16-.34.25a2.23 2.23 0 0 1-1.016.23 11.188 11.188 0 0 1-2.227-.152 11.98 11.98 0 0 1-3.77-1.258C4.34 3.406 4 3.197 3.67 2.97Zm4.629 6.537c-.038.205-.342.227-.72.16-.37-.067-.642-.19-.607-.387.038-.205.342-.227.72-.16.37.067.642.19.607.387Z" fill="#F7FCFF"/><path fill="url(#Union of South American nations__c)" style="mix-blend-mode:overlay" d="M0 0h16v12H0z"/></g><defs><linearGradient id="Union of South American nations__c" x1="8" y1="0" x2="8" y2="12" gradientUnits="userSpaceOnUse"><stop stop-color="#fff" stop-opacity=".7"/><stop offset="1" stop-opacity=".3"/></linearGradient><clipPath id="Union of South American nations__a"><rect width="16" height="12" rx="1" fill="#fff"/></clipPath></defs></svg>