<svg fill="none" xmlns="http://www.w3.org/2000/svg" viewBox="0 0 16 12"><g clip-path="url(#US - United States__a)"><mask id="US - United States__b" style="mask-type:alpha" maskUnits="userSpaceOnUse" x="0" y="0" width="16" height="12"><path fill="#fff" d="M0 0h16v12H0z"/></mask><g mask="url(#US - United States__b)"><path fill-rule="evenodd" clip-rule="evenodd" d="M0 0h16v12H0V0Z" fill="#E31D1C"/><path fill-rule="evenodd" clip-rule="evenodd" d="M0 1v1h16V1H0Zm0 2v1h16V3H0Zm0 3V5h16v1H0Zm0 1v1h16V7H0Zm0 3V9h16v1H0Zm0 2v-1h16v1H0Z" fill="#F7FCFF"/><path fill="#2E42A5" d="M0 0h9v7H0z"/><path fill-rule="evenodd" clip-rule="evenodd" d="m1.04 2.174.53-.37.411.297h-.233l.47.416-.158.584h-.25l-.24-.537-.207.537H.748l.47.416-.178.657.53-.37.411.297h-.233l.47.416-.158.584h-.25l-.24-.537-.207.537H.748l.47.416-.178.657.53-.37.513.37-.16-.657.412-.416h-.19l.425-.296.411.296h-.233l.47.416-.178.657.53-.37.513.37-.16-.657.412-.416h-.19l.425-.296.411.296h-.233l.47.416-.178.657.53-.37.513.37-.16-.657.412-.416h-.19l.425-.296.411.296h-.233l.47.416-.178.657.53-.37.513.37-.16-.657.412-.416h-.524l-.242-.537-.206.537h-.298l-.142-.584.412-.416h-.19l.425-.296.513.369-.16-.657.412-.416h-.524l-.242-.537-.206.537h-.298l-.142-.584.412-.416h-.19l.425-.296.513.369-.16-.657.412-.416h-.524L7.569.564l-.206.537h-.615l.47.416-.158.584h-.25l-.24-.537-.207.537h-.298l-.142-.584.412-.416h-.524L5.569.564l-.206.537h-.615l.47.416-.158.584h-.25l-.24-.537-.207.537h-.298l-.142-.584.412-.416h-.524L3.569.564l-.206.537h-.615l.47.416-.158.584h-.25l-.24-.537-.207.537h-.298l-.142-.584.412-.416h-.524L1.569.564l-.206.537H.748l.47.416-.178.657ZM7.06 4.1l.159-.584-.47-.416h.232l-.411-.296-.425.296h.19l-.412.416.142.584h.298l.206-.537.242.537h.249Zm-1.079 0-.411-.296-.425.296h.19l-.412.416.142.584h.298l.206-.537.242.537h.249l.159-.584-.47-.416h.232Zm-1.762.416-.16.584h-.248l-.242-.537-.206.537h-.298l-.142-.584.412-.416h-.19l.425-.296.411.296h-.233l.47.416Zm.144-.416h-.298l-.142-.584.412-.416h-.19l.425-.296.411.296h-.233l.47.416-.158.584h-.25l-.24-.537-.207.537Zm-1.303 0 .159-.584-.47-.416h.232l-.411-.296-.425.296h.19l-.412.416.142.584h.298l.206-.537.242.537h.249Zm3.159-1.584-.16.584h-.248l-.242-.537-.206.537h-.298l-.142-.584.412-.416h-.19l.425-.296.411.296h-.233l.47.416ZM3.98 2.1l-.411-.296-.425.296h.19l-.412.416.142.584h.298l.206-.537.242.537h.249l.159-.584-.47-.416h.232Z" fill="#F7FCFF"/></g><path fill="url(#US - United States__c)" style="mix-blend-mode:overlay" d="M0 0h16v12H0z"/></g><defs><linearGradient id="US - United States__c" x1="8" y1="0" x2="8" y2="12" gradientUnits="userSpaceOnUse"><stop stop-color="#fff" stop-opacity=".7"/><stop offset="1" stop-opacity=".3"/></linearGradient><clipPath id="US - United States__a"><rect width="16" height="12" rx="1" fill="#fff"/></clipPath></defs></svg>