<svg fill="none" xmlns="http://www.w3.org/2000/svg" viewBox="0 0 16 12"><g clip-path="url(#UY - Uruguay__a)"><mask id="UY - Uruguay__b" style="mask-type:alpha" maskUnits="userSpaceOnUse" x="0" y="0" width="16" height="12"><path fill="#fff" d="M0 0h16v12H0z"/></mask><g mask="url(#UY - Uruguay__b)"><path fill-rule="evenodd" clip-rule="evenodd" d="M0 0v12h16V0H0Z" fill="#F7FCFF"/><mask id="UY - Uruguay__c" style="mask-type:alpha" maskUnits="userSpaceOnUse" x="0" y="0" width="16" height="12"><path fill-rule="evenodd" clip-rule="evenodd" d="M0 0v12h16V0H0Z" fill="#fff"/></mask><g mask="url(#UY - Uruguay__c)"><path fill="#2E42A5" d="M0 2h16v1H0zm0 2h16v1H0zm0 2h16v1H0zm0 2h16v1H0zm0 2h16v1H0z"/><path fill="#F7FCFF" d="M0 0h8v7H0z"/><path fill-rule="evenodd" clip-rule="evenodd" d="M4.614 5.519s-.511 1.059-.96 1.276c.194-.486.265-1.477.265-1.477s-1.166.462-1.575.378c.492-.344 1.175-.98 1.175-.98s-1.51-.494-1.472-.704C2.728 4.134 3.665 4 3.665 4s-1.059-1.27-.951-1.364c.16.157 1.43.82 1.43.82s.092-1.13.365-1.511c.033.269.416 1.486.416 1.486s.77-.771 1.198-.771c-.188.233-.633 1.256-.633 1.256s1.109-.018 1.53.19c-.51.072-1.405.521-1.405.521s1.165.884 1.059 1.068a5.166 5.166 0 0 0-1.348-.408s.2 1.23.038 1.507c-.158-.41-.75-1.276-.75-1.276Z" fill="#FFD018" stroke="#F19900" stroke-opacity=".98" stroke-width=".25"/><path fill-rule="evenodd" clip-rule="evenodd" d="M4.547 4.946a.5.5 0 1 0 0-1 .5.5 0 0 0 0 1Z" fill="#FFD018" stroke="#F19900" stroke-opacity=".98" stroke-width=".25"/></g></g><path fill="url(#UY - Uruguay__d)" style="mix-blend-mode:overlay" d="M0 0h16v12H0z"/></g><defs><linearGradient id="UY - Uruguay__d" x1="8" y1="0" x2="8" y2="12" gradientUnits="userSpaceOnUse"><stop stop-color="#fff" stop-opacity=".7"/><stop offset="1" stop-opacity=".3"/></linearGradient><clipPath id="UY - Uruguay__a"><rect width="16" height="12" rx="1" fill="#fff"/></clipPath></defs></svg>