<svg fill="none" xmlns="http://www.w3.org/2000/svg" viewBox="0 0 16 12"><g clip-path="url(#VA - Vatican City State__a)"><mask id="VA - Vatican City State__b" style="mask-type:alpha" maskUnits="userSpaceOnUse" x="0" y="0" width="16" height="12"><path fill="#fff" d="M0 0h16v12H0z"/></mask><g mask="url(#VA - Vatican City State__b)"><path fill-rule="evenodd" clip-rule="evenodd" d="M0 0h16v12H0V0Z" fill="#F7FCFF"/><path fill-rule="evenodd" clip-rule="evenodd" d="M0 0h7v12H0V0Z" fill="#FFDC17"/><path d="m11.39 6.376-.172.01c.041.594.169 1.052.385 1.375.349.521.809.924 1.116.924.07 0 .087.026.064.09-.033.091-.137.181-.27.215-.222.058-.727.087-1.506.087v.168c.795 0 1.309-.03 1.55-.093.188-.048.337-.177.389-.322.06-.167-.03-.312-.227-.312-.228 0-.652-.372-.97-.848-.199-.296-.319-.728-.358-1.294Zm-.817 0 .173.01c-.041.594-.168 1.052-.385 1.375-.348.521-.808.924-1.116.924-.07 0-.086.026-.063.09.033.091.136.181.27.215.222.058.726.087 1.505.087v.168c-.794 0-1.308-.03-1.55-.093-.188-.048-.337-.177-.389-.322-.06-.167.031-.312.227-.312.228 0 .653-.372.971-.848.198-.296.318-.728.357-1.294Z" fill="#AF0100"/><path fill-rule="evenodd" clip-rule="evenodd" d="m14.033 3.4-4.57 3.562a1.67 1.67 0 0 0-.517-.08c-.742 0-1.362.473-1.362 1.088 0 .614.62 1.088 1.362 1.088.085 0 .168-.006.25-.018a.479.479 0 0 1-.16-.21c-.033-.093-.02-.18.033-.238-.04.004-.081.006-.123.006-.5 0-.887-.295-.887-.628s.387-.628.887-.628.886.295.886.628c0 .102-.036.2-.1.287l.036-.033c.159-.147-.197.461-.505.461-.07 0-.086.026-.063.09.03.086.123.17.245.208.501-.157.863-.544.863-1.013a.92.92 0 0 0-.166-.525l2.456-2.085.164.17.119-.107.41.304-.171.132.35.426.706-.545.012-.006-.002-.001.044-.034-.35-.426-.17.13-.458-.317.053-.048-.147-.153.222-.188.118.122.126-.115.398.315-.167.129.35.425.605-.466.07-.038-.01-.008.095-.074-.35-.425-.198.152-.436-.334.06-.054-.101-.104.452-.384-.359-.439Z" fill="#F4B300"/><path fill-rule="evenodd" clip-rule="evenodd" d="M11.692 7.97c0-.277.125-.524.33-.713L9.399 5.224l-.03.023.076.07-.207.213-.108-.099-.402.31.153.118-.35.426-.699-.539-.02-.012.003-.001-.044-.034.35-.426.17.13.458-.317-.053-.048.198-.205-.231-.18-.16.166-.121-.11-.393.317.157.122-.35.425-.586-.451-.088-.053.01-.008-.096-.074.35-.425.198.152.436-.334-.06-.054.12-.123-.47-.365.296-.36 4.541 3.517c.184-.073.39-.114.608-.114.742 0 1.362.474 1.362 1.089 0 .614-.62 1.088-1.362 1.088a1.72 1.72 0 0 1-.25-.018.478.478 0 0 0 .16-.21c.033-.093.02-.18-.033-.238.04.004.081.006.123.006.5 0 .886-.295.886-.628s-.386-.628-.886-.628-.886.295-.886.628c0 .102.036.2.1.287a3 3 0 0 1-.036-.033c-.159-.147.197.461.505.461.07 0 .086.026.063.09-.03.086-.123.17-.245.208-.501-.157-.863-.544-.863-1.013Z" fill="#BFBFBF"/><path fill-rule="evenodd" clip-rule="evenodd" d="M10.87 5.898a.065.065 0 0 0-.065.065v.27h-.24a.063.063 0 1 0 0 .125h.24v3.577c0 .036.03.065.065.065H11a.065.065 0 0 0 .065-.065V6.358h.37a.063.063 0 1 0 0-.125h-.37v-.27A.065.065 0 0 0 11 5.898h-.13Z" fill="#AF0100"/><path fill-rule="evenodd" clip-rule="evenodd" d="M10.935 10.008c.143 0 .26-.058.26-.13 0-.071-.117-.13-.26-.13-.143 0-.26.059-.26.13 0 .072.117.13.26.13Z" fill="#AF0100"/><path fill-rule="evenodd" clip-rule="evenodd" d="M10 2.9a.9.9 0 1 1 1.8 0v1.622H10V2.9Z" fill="#F4B300"/><path fill-rule="evenodd" clip-rule="evenodd" d="M10.892 4.61c.501 0 .908-.068.908-.152 0-.083-.407-.151-.908-.151-.502 0-.908.068-.908.151 0 .084.406.152.908.152Z" fill="#AF0100"/></g><path fill="url(#VA - Vatican City State__c)" style="mix-blend-mode:overlay" d="M0 0h16v12H0z"/></g><defs><linearGradient id="VA - Vatican City State__c" x1="8" y1="0" x2="8" y2="12" gradientUnits="userSpaceOnUse"><stop stop-color="#fff" stop-opacity=".7"/><stop offset="1" stop-opacity=".3"/></linearGradient><clipPath id="VA - Vatican City State__a"><rect width="16" height="12" rx="1" fill="#fff"/></clipPath></defs></svg>