<svg fill="none" xmlns="http://www.w3.org/2000/svg" viewBox="0 0 16 12"><g clip-path="url(#VN - Vietnam__a)"><mask id="VN - Vietnam__b" style="mask-type:alpha" maskUnits="userSpaceOnUse" x="0" y="0" width="16" height="12"><path fill="#fff" d="M0 0h16v12H0z"/></mask><g mask="url(#VN - Vietnam__b)"><path fill-rule="evenodd" clip-rule="evenodd" d="M0 0h16v12H0V0Z" fill="#F7FCFF"/><path fill-rule="evenodd" clip-rule="evenodd" d="M0 0v12h16V0H0Z" fill="#E31D1C"/><mask id="VN - Vietnam__c" style="mask-type:alpha" maskUnits="userSpaceOnUse" x="0" y="0" width="16" height="12"><path fill-rule="evenodd" clip-rule="evenodd" d="M0 0v12h16V0H0Z" fill="#fff"/></mask><g mask="url(#VN - Vietnam__c)"><path fill-rule="evenodd" clip-rule="evenodd" d="M8.031 7.99 5.456 9.627l.863-2.866-1.837-1.873 2.533-.055 1.12-2.83L9.157 4.87l2.526.044-1.899 1.907.887 2.727-2.64-1.558Z" fill="#FFD221"/></g></g><path fill="url(#VN - Vietnam__d)" style="mix-blend-mode:overlay" d="M0 0h16v12H0z"/></g><defs><linearGradient id="VN - Vietnam__d" x1="8" y1="0" x2="8" y2="12" gradientUnits="userSpaceOnUse"><stop stop-color="#fff" stop-opacity=".7"/><stop offset="1" stop-opacity=".3"/></linearGradient><clipPath id="VN - Vietnam__a"><rect width="16" height="12" rx="1" fill="#fff"/></clipPath></defs></svg>