<svg fill="none" xmlns="http://www.w3.org/2000/svg" viewBox="0 0 16 12"><g clip-path="url(#WS - Samoa__a)"><mask id="WS - Samoa__b" style="mask-type:alpha" maskUnits="userSpaceOnUse" x="0" y="0" width="16" height="12"><path fill="#fff" d="M0 0h16v12H0z"/></mask><g mask="url(#WS - Samoa__b)"><path fill-rule="evenodd" clip-rule="evenodd" d="M0 0v12h16V0H0Z" fill="#C51918"/><mask id="WS - Samoa__c" style="mask-type:alpha" maskUnits="userSpaceOnUse" x="0" y="0" width="16" height="12"><path fill-rule="evenodd" clip-rule="evenodd" d="M0 0v12h16V0H0Z" fill="#fff"/></mask><g mask="url(#WS - Samoa__c)" fill-rule="evenodd" clip-rule="evenodd"><path d="M0 0v7h8V0H0Z" fill="#2E42A5"/><path d="m1.783 3.886-.53.32.12-.624-.44-.468.597-.025.253-.583.253.583h.596l-.44.493.133.624-.542-.32Zm4 0-.53.32.12-.624-.44-.468.597-.025.253-.583.253.583h.596l-.44.493.133.624-.542-.32Zm-2.05-1.817-.5.301.115-.588-.416-.44.563-.023.238-.549.238.549h.561l-.414.463.125.588-.51-.301Zm.54 2.144-.312.188.071-.367-.26-.275.352-.015.15-.343.148.343h.35l-.258.29.078.367-.319-.188Zm-.569 2.201-.748.452.17-.882-.622-.66.843-.035.357-.823.357.823h.843l-.622.695.187.882-.765-.452Z" fill="#FEFFFF"/></g></g><path fill="url(#WS - Samoa__d)" style="mix-blend-mode:overlay" d="M0 0h16v12H0z"/></g><defs><linearGradient id="WS - Samoa__d" x1="8" y1="0" x2="8" y2="12" gradientUnits="userSpaceOnUse"><stop stop-color="#fff" stop-opacity=".7"/><stop offset="1" stop-opacity=".3"/></linearGradient><clipPath id="WS - Samoa__a"><rect width="16" height="12" rx="1" fill="#fff"/></clipPath></defs></svg>