<svg fill="none" xmlns="http://www.w3.org/2000/svg" viewBox="0 0 16 12"><g clip-path="url(#ZA - South Africa__a)"><mask id="ZA - South Africa__b" style="mask-type:alpha" maskUnits="userSpaceOnUse" x="0" y="0" width="16" height="12"><path fill="#fff" d="M0 0h16v12H0z"/></mask><g mask="url(#ZA - South Africa__b)"><path fill-rule="evenodd" clip-rule="evenodd" d="M0 0h16v12H0V0Z" fill="#F7FCFF"/><path fill-rule="evenodd" clip-rule="evenodd" d="M0 0v4h16V0H0Z" fill="#E31D1C"/><path fill-rule="evenodd" clip-rule="evenodd" d="M0 8v4h16V8H0Z" fill="#3D58DB"/><mask id="ZA - South Africa__c" maskUnits="userSpaceOnUse" x="-1" y="-4" width="18" height="20" fill="#000"><path fill="#fff" d="M-1-4h18v20H-1z"/><path fill-rule="evenodd" clip-rule="evenodd" d="M7.714 5 0-1v14l7.714-6H16V5H7.714Z"/></mask><path fill-rule="evenodd" clip-rule="evenodd" d="M7.714 5 0-1v14l7.714-6H16V5H7.714Z" fill="#5EAA22"/><path d="m0-1 .614-.79L-1-3.044V-1h1Zm7.714 6-.614.79.271.21h.343V5ZM0 13h-1v2.045l1.614-1.256L0 13Zm7.714-6V6h-.343l-.27.21.613.79ZM16 7v1h1V7h-1Zm0-2h1V4h-1v1ZM-.614-.21l7.714 6 1.228-1.58-7.714-6L-.614-.21ZM1 13V-1h-2v14h2Zm6.1-6.79-7.714 6 1.228 1.58 7.714-6L7.1 6.21ZM16 6H7.714v2H16V6Zm-1-1v2h2V5h-2ZM7.714 6H16V4H7.714v2Z" fill="#F7FCFF" mask="url(#ZA - South Africa__c)"/><path d="M.3 2.6-.5 2v8l.8-.6 4-3 .533-.4-.533-.4-4-3Z" fill="#272727" stroke="#FECA00"/></g><path fill="url(#ZA - South Africa__d)" style="mix-blend-mode:overlay" d="M0 0h16v12H0z"/></g><defs><linearGradient id="ZA - South Africa__d" x1="8" y1="0" x2="8" y2="12" gradientUnits="userSpaceOnUse"><stop stop-color="#fff" stop-opacity=".7"/><stop offset="1" stop-opacity=".3"/></linearGradient><clipPath id="ZA - South Africa__a"><rect width="16" height="12" rx="1" fill="#fff"/></clipPath></defs></svg>