<svg width="24" height="24" viewBox="0 0 24 24" fill="none" xmlns="http://www.w3.org/2000/svg">
<path fill-rule="evenodd" clip-rule="evenodd" d="M17.8944 3.55279L20.8944 9.55279C21.0494 9.86277 21.0329 10.2309 20.8507 10.5257C20.6684 10.8205 20.3466 11 20 11H14C13.6534 11 13.3316 10.8205 13.1494 10.5257C12.9671 10.2309 12.9506 9.86277 13.1056 9.55279L16.1056 3.55279C16.275 3.214 16.6212 3 17 3C17.3788 3 17.725 3.214 17.8944 3.55279ZM18.382 9L17 6.23607L15.618 9H18.382Z" fill="#777B92"/>
<path fill-rule="evenodd" clip-rule="evenodd" d="M5 13H9C9.43043 13 9.81257 13.2754 9.94868 13.6838L10.9487 16.6838C11.0171 16.889 11.0171 17.111 10.9487 17.3162L9.94868 20.3162C9.81257 20.7246 9.43043 21 9 21H5C4.56957 21 4.18743 20.7246 4.05132 20.3162L3.05132 17.3162C2.98289 17.111 2.98289 16.889 3.05132 16.6838L4.05132 13.6838C4.18743 13.2754 4.56957 13 5 13ZM5.05409 17L5.72076 19H8.27924L8.94591 17L8.27924 15H5.72076L5.05409 17Z" fill="#777B92"/>
<path fill-rule="evenodd" clip-rule="evenodd" d="M3 4C3 3.44772 3.44772 3 4 3H10C10.5523 3 11 3.44772 11 4V10C11 10.5523 10.5523 11 10 11H4C3.44772 11 3 10.5523 3 10V4ZM5 5V9H9V5H5Z" fill="#777B92"/>
<path fill-rule="evenodd" clip-rule="evenodd" d="M17 13C19.2091 13 21 14.7909 21 17C21 19.2091 19.2091 21 17 21C14.7909 21 13 19.2091 13 17C13 14.7909 14.7909 13 17 13ZM15 17C15 18.1046 15.8954 19 17 19C18.1046 19 19 18.1046 19 17C19 15.8954 18.1046 15 17 15C15.8954 15 15 15.8954 15 17Z" fill="#777B92"/>
</svg>
