<svg width="24" height="24" viewBox="0 0 24 24" fill="none" xmlns="http://www.w3.org/2000/svg">
<path fill-rule="evenodd" clip-rule="evenodd" d="M11.1056 2.32931C11.6686 2.04778 12.3314 2.04778 12.8944 2.32931L19.8944 5.82931C20.572 6.16809 21 6.86062 21 7.61816V16.3821C21 17.1396 20.572 17.8322 19.8944 18.1709L12.8944 21.6709C12.3314 21.9525 11.6686 21.9525 11.1056 21.6709L4.10557 18.1709C3.428 17.8322 3 17.1396 3 16.3821V7.61816C3 6.86062 3.428 6.16809 4.10557 5.82931L11.1056 2.32931ZM19 7.61816L12 4.11816L5 7.61816V16.3821L12 19.8821L19 16.3821V7.61816Z" fill="#777B92"/>
</svg>
