<svg width="24" height="24" viewBox="0 0 24 24" fill="none" xmlns="http://www.w3.org/2000/svg">
<path fill-rule="evenodd" clip-rule="evenodd" d="M12 3C12.5523 3 13 3.44772 13 4V11.557L19.6489 9.06367C20.166 8.86975 20.7424 9.13176 20.9364 9.64888C21.1303 10.166 20.8683 10.7424 20.3512 10.9363L13.6895 13.4345L18.7593 19.3492C19.1187 19.7685 19.0701 20.3998 18.6508 20.7593C18.2315 21.1187 17.6002 21.0701 17.2408 20.6508L12 14.5366L6.75928 20.6508C6.39986 21.0701 5.76856 21.1187 5.34924 20.7593C4.92991 20.3998 4.88135 19.7685 5.24077 19.3492L10.3106 13.4345L3.6489 10.9363C3.13178 10.7424 2.86978 10.166 3.0637 9.64888C3.25762 9.13176 3.83403 8.86975 4.35115 9.06367L11 11.557V4C11 3.44772 11.4477 3 12 3Z" fill="#777B92"/>
</svg>
