<svg width="24" height="24" viewBox="0 0 24 24" fill="none" xmlns="http://www.w3.org/2000/svg">
<path fill-rule="evenodd" clip-rule="evenodd" d="M8 17C8 17.5523 7.55228 18 7 18C6.44772 18 6 17.5523 6 17C6 16.4477 6.44772 16 7 16C7.55228 16 8 16.4477 8 17Z" fill="#777B92"/>
<path fill-rule="evenodd" clip-rule="evenodd" d="M17 2.58579C17.3751 2.21071 17.8838 2 18.4142 2H20C21.1046 2 22 2.89543 22 4V4.58579C22 5.11622 21.7893 5.62493 21.4142 6L20.9142 6.5L21.7071 7.29289C22.0976 7.68342 22.0976 8.31658 21.7071 8.70711C21.3166 9.09763 20.6834 9.09763 20.2929 8.70711L19.5 7.91421L18.3509 9.06332C18.4808 9.1119 18.6026 9.18842 18.7071 9.29289L19.7071 10.2929C20.0976 10.6834 20.0976 11.3166 19.7071 11.7071C19.3166 12.0976 18.6834 12.0976 18.2929 11.7071L17.2929 10.7071C17.1884 10.6026 17.1119 10.4808 17.0633 10.3509L13.7071 13.7071C13.6694 13.7448 13.6294 13.7789 13.5875 13.8094C13.8538 14.488 14 15.2269 14 16C14 19.3137 11.3137 22 8 22C4.68629 22 2 19.3137 2 16C2 12.6863 4.68629 10 8 10C8.48828 10 8.96294 10.0583 9.41739 10.1684L17 2.58579ZM11.3754 11.0388C11.8013 11.3291 12.1879 11.6728 12.5255 12.0603L20 4.58579V4L18.4142 4L11.3754 11.0388ZM4 16C4 18.2091 5.79086 20 8 20C10.2091 20 12 18.2091 12 16C12 13.7909 10.2091 12 8 12C5.79086 12 4 13.7909 4 16Z" fill="#777B92"/>
</svg>
