<svg width="16" height="16" viewBox="0 0 16 16" fill="none" xmlns="http://www.w3.org/2000/svg">
<ellipse cx="8" cy="4" rx="7" ry="3" stroke="#777B92" stroke-linecap="round" stroke-linejoin="round"/>
<path d="M14.5 8C14.5 8.27614 14.7239 8.5 15 8.5C15.2761 8.5 15.5 8.27614 15.5 8H14.5ZM8 11.5C8.27614 11.5 8.5 11.2761 8.5 11C8.5 10.7239 8.27614 10.5 8 10.5V11.5ZM8 10.5C6.1181 10.5 4.43808 10.1721 3.24721 9.66175C2.65089 9.40618 2.20026 9.11471 1.90597 8.81652C1.6138 8.52048 1.5 8.24513 1.5 8H0.5C0.5 8.5833 0.77795 9.09716 1.19422 9.51895C1.60837 9.93859 2.18286 10.2936 2.85329 10.5809C4.19593 11.1563 6.01591 11.5 8 11.5V10.5ZM12.8419 6.47434C13.544 6.70836 13.9581 6.97961 14.1937 7.23694C14.4187 7.48287 14.5 7.73618 14.5 8H15.5C15.5 7.49547 15.3313 6.99878 14.9313 6.5618C14.5419 6.13622 13.956 5.79164 13.1581 5.52566L12.8419 6.47434ZM1.5 8C1.5 7.73618 1.58127 7.48287 1.80635 7.23694C2.04185 6.97961 2.45605 6.70836 3.15811 6.47434L2.84189 5.52566C2.04395 5.79164 1.45815 6.13622 1.06865 6.5618C0.668731 6.99878 0.5 7.49547 0.5 8H1.5Z" fill="#777B92"/>
<path d="M8 15.5C8.27614 15.5 8.5 15.2761 8.5 15C8.5 14.7239 8.27614 14.5 8 14.5V15.5ZM8 14.5C6.1181 14.5 4.43808 14.1721 3.24721 13.6617C2.65089 13.4062 2.20026 13.1147 1.90597 12.8165C1.6138 12.5205 1.5 12.2451 1.5 12H0.5C0.5 12.5833 0.77795 13.0972 1.19422 13.519C1.60837 13.9386 2.18286 14.2936 2.85329 14.5809C4.19593 15.1563 6.01591 15.5 8 15.5V14.5ZM1.5 12C1.5 11.7362 1.58127 11.4829 1.80635 11.2369C2.04185 10.9796 2.45605 10.7084 3.15811 10.4743L2.84189 9.52566C2.04395 9.79164 1.45815 10.1362 1.06865 10.5618C0.668731 10.9988 0.5 11.4955 0.5 12H1.5Z" fill="#777B92"/>
<path d="M11 11L15 15" stroke="#777B92" stroke-linecap="round" stroke-linejoin="round"/>
<path d="M15.3536 11.3536C15.5488 11.1583 15.5488 10.8417 15.3536 10.6464C15.1583 10.4512 14.8417 10.4512 14.6464 10.6464L15.3536 11.3536ZM10.6464 14.6464C10.4512 14.8417 10.4512 15.1583 10.6464 15.3536C10.8417 15.5488 11.1583 15.5488 11.3536 15.3536L10.6464 14.6464ZM14.6464 10.6464L10.6464 14.6464L11.3536 15.3536L15.3536 11.3536L14.6464 10.6464Z" fill="#777B92"/>
</svg>
