<svg width="16" height="16" viewBox="0 0 16 16" fill="none" xmlns="http://www.w3.org/2000/svg">
<path d="M8 7V15M8 15L10 13M8 15L6 13" stroke="#777B92" stroke-linecap="round" stroke-linejoin="round"/>
<path d="M11 4C11 2.34315 9.65685 1 8 1C6.34315 1 5 2.34315 5 4" stroke="#777B92" stroke-linecap="round" stroke-linejoin="round"/>
<path d="M4 10C2.34315 10 1 8.65685 1 7C1 5.34315 2.34315 4 4 4C4.35064 4 4.68722 4.06015 5 4.17071" stroke="#777B92" stroke-linecap="round" stroke-linejoin="round"/>
<path d="M12 10C13.6569 10 15 8.65685 15 7C15 5.34315 13.6569 4 12 4C11.6494 4 11.3128 4.06015 11 4.17071" stroke="#777B92" stroke-linecap="round" stroke-linejoin="round"/>
</svg>
