<svg width="16" height="16" viewBox="0 0 16 16" fill="none" xmlns="http://www.w3.org/2000/svg">
<path fill-rule="evenodd" clip-rule="evenodd" d="M4.5 2C4.5 1.17157 5.17157 0.5 6 0.5H10C10.8284 0.5 11.5 1.17157 11.5 2V4C11.5 4.82843 10.8284 5.5 10 5.5H8.5V7.5H12C12.2761 7.5 12.5 7.72386 12.5 8V10.5H14C14.8284 10.5 15.5 11.1716 15.5 12V14C15.5 14.8284 14.8284 15.5 14 15.5H10C9.17157 15.5 8.5 14.8284 8.5 14V12C8.5 11.1716 9.17157 10.5 10 10.5H11.5V8.5H4.5V10.5H6C6.82843 10.5 7.5 11.1716 7.5 12V14C7.5 14.8284 6.82843 15.5 6 15.5H2C1.17157 15.5 0.5 14.8284 0.5 14V12C0.5 11.1716 1.17157 10.5 2 10.5H3.5V8C3.5 7.72386 3.72386 7.5 4 7.5H7.5V5.5H6C5.17157 5.5 4.5 4.82843 4.5 4V2ZM10 4.5C10.2761 4.5 10.5 4.27614 10.5 4V2C10.5 1.72386 10.2761 1.5 10 1.5H6C5.72386 1.5 5.5 1.72386 5.5 2V4C5.5 4.27614 5.72386 4.5 6 4.5H10ZM2 11.5C1.72386 11.5 1.5 11.7239 1.5 12V14C1.5 14.2761 1.72386 14.5 2 14.5H6C6.27614 14.5 6.5 14.2761 6.5 14V12C6.5 11.7239 6.27614 11.5 6 11.5H2ZM10 11.5C9.72386 11.5 9.5 11.7239 9.5 12V14C9.5 14.2761 9.72386 14.5 10 14.5H14C14.2761 14.5 14.5 14.2761 14.5 14V12C14.5 11.7239 14.2761 11.5 14 11.5H10Z" fill="#777B92"/>
</svg>
