<svg width="16" height="16" viewBox="0 0 16 16" fill="none" xmlns="http://www.w3.org/2000/svg">
<path fill-rule="evenodd" clip-rule="evenodd" d="M12 13C11.4477 13 11 12.5523 11 12C11 11.4477 11.4477 11 12 11C12.5523 11 13 11.4477 13 12C13 12.5523 12.5523 13 12 13Z" fill="#777B92"/>
<path fill-rule="evenodd" clip-rule="evenodd" d="M9 12C9 12.5523 8.55228 13 8 13C7.44772 13 7 12.5523 7 12C7 11.4477 7.44772 11 8 11C8.55228 11 9 11.4477 9 12Z" fill="#777B92"/>
<path fill-rule="evenodd" clip-rule="evenodd" d="M4 13C3.44772 13 3 12.5523 3 12C3 11.4477 3.44772 11 4 11C4.55228 11 5 11.4477 5 12C5 12.5523 4.55228 13 4 13Z" fill="#777B92"/>
<path fill-rule="evenodd" clip-rule="evenodd" d="M4.625 0.5H11.375C12.2034 0.5 12.875 1.17157 12.875 2V4H14C14.8284 4 15.5 4.67157 15.5 5.5V14C15.5 14.8284 14.8284 15.5 14 15.5H2C1.17157 15.5 0.5 14.8284 0.5 14V5.5C0.5 4.67157 1.17157 4 2 4H3.125V2C3.125 1.17157 3.79657 0.5 4.625 0.5ZM4.125 2V4.5C4.125 4.77614 3.90114 5 3.625 5H2C1.72386 5 1.5 5.22386 1.5 5.5V14C1.5 14.2761 1.72386 14.5 2 14.5H14C14.2761 14.5 14.5 14.2761 14.5 14V5.5C14.5 5.22386 14.2761 5 14 5H12.375C12.0989 5 11.875 4.77614 11.875 4.5V2C11.875 1.72386 11.6511 1.5 11.375 1.5H4.625C4.34886 1.5 4.125 1.72386 4.125 2Z" fill="#777B92"/>
</svg>
