<svg width="16" height="16" viewBox="0 0 16 16" fill="none" xmlns="http://www.w3.org/2000/svg">
<path fill-rule="evenodd" clip-rule="evenodd" d="M3.5 1C3.5 0.723858 3.72386 0.5 4 0.5H14C14.8284 0.5 15.5 1.17157 15.5 2V4C15.5 4.38418 15.3556 4.73462 15.1181 5C15.3556 5.26538 15.5 5.61582 15.5 6V8C15.5 8.82843 14.8284 9.5 14 9.5H10.2071L15.3536 14.6464C15.5488 14.8417 15.5488 15.1583 15.3536 15.3536C15.1583 15.5488 14.8417 15.5488 14.6464 15.3536L8.79289 9.5H2C1.17157 9.5 0.5 8.82843 0.5 8V6C0.5 5.61582 0.644427 5.26538 0.881947 5C0.644427 4.73462 0.5 4.38418 0.5 4V3C0.5 2.72386 0.723858 2.5 1 2.5C1.27614 2.5 1.5 2.72386 1.5 3V4C1.5 4.27614 1.72386 4.5 2 4.5H3C3.27614 4.5 3.5 4.72386 3.5 5C3.5 5.27614 3.27614 5.5 3 5.5H2C1.72386 5.5 1.5 5.72386 1.5 6V8C1.5 8.27614 1.72386 8.5 2 8.5H7.79289L0.646447 1.35355C0.451184 1.15829 0.451184 0.841709 0.646447 0.646447C0.841709 0.451184 1.15829 0.451184 1.35355 0.646447L9.20711 8.5H14C14.2761 8.5 14.5 8.27614 14.5 8V6C14.5 5.72386 14.2761 5.5 14 5.5H7C6.72386 5.5 6.5 5.27614 6.5 5C6.5 4.72386 6.72386 4.5 7 4.5H14C14.2761 4.5 14.5 4.27614 14.5 4V2C14.5 1.72386 14.2761 1.5 14 1.5H4C3.72386 1.5 3.5 1.27614 3.5 1Z" fill="#777B92"/>
<path fill-rule="evenodd" clip-rule="evenodd" d="M5 7C5 7.55228 4.55228 8 4 8C3.44772 8 3 7.55228 3 7C3 6.44772 3.44772 6 4 6C4.55228 6 5 6.44772 5 7Z" fill="#777B92"/>
<path fill-rule="evenodd" clip-rule="evenodd" d="M8 13C7.44772 13 7 12.5523 7 12C7 11.4477 7.44772 11 8 11C8.55228 11 9 11.4477 9 12C9 12.5523 8.55228 13 8 13Z" fill="#777B92"/>
<path fill-rule="evenodd" clip-rule="evenodd" d="M1 14.5H12C12.2761 14.5 12.5 14.7239 12.5 15C12.5 15.2761 12.2761 15.5 12 15.5H1C0.723858 15.5 0.5 15.2761 0.5 15C0.5 14.7239 0.723858 14.5 1 14.5Z" fill="#777B92"/>
</svg>
