<svg width="16" height="16" viewBox="0 0 16 16" fill="none" xmlns="http://www.w3.org/2000/svg">
<path fill-rule="evenodd" clip-rule="evenodd" d="M5 0.5H14C14.8284 0.5 15.5 1.17157 15.5 2V11C15.5 11.8284 14.8284 12.5 14 12.5H12.4793C12.4928 12.5453 12.5 12.5932 12.5 12.6429V14C12.5 14.8284 11.8284 15.5 11 15.5H2C1.17157 15.5 0.5 14.8284 0.5 14V5C0.5 4.17157 1.17157 3.5 2 3.5H3.35714C3.40678 3.5 3.45474 3.50723 3.5 3.52071V2C3.5 1.17157 4.17157 0.5 5 0.5ZM11.5207 12.5H5C4.17157 12.5 3.5 11.8284 3.5 11V4.47929C3.45474 4.49277 3.40678 4.5 3.35714 4.5H2C1.72386 4.5 1.5 4.72386 1.5 5V14C1.5 14.2761 1.72386 14.5 2 14.5H11C11.2761 14.5 11.5 14.2761 11.5 14V12.6429C11.5 12.5932 11.5072 12.5453 11.5207 12.5ZM4.5 2V11C4.5 11.2761 4.72386 11.5 5 11.5H14C14.2761 11.5 14.5 11.2761 14.5 11V2C14.5 1.72386 14.2761 1.5 14 1.5H5C4.72386 1.5 4.5 1.72386 4.5 2Z" fill="#777B92"/>
</svg>
