<svg width="16" height="16" viewBox="0 0 16 16" fill="none" xmlns="http://www.w3.org/2000/svg">
<path fill-rule="evenodd" clip-rule="evenodd" d="M2 0.5H7C7.82843 0.5 8.5 1.17157 8.5 2V5C8.5 5.82843 7.82843 6.5 7 6.5H2C1.17157 6.5 0.5 5.82843 0.5 5V2C0.5 1.17157 1.17157 0.5 2 0.5ZM1.5 2V5C1.5 5.27614 1.72386 5.5 2 5.5H7C7.27614 5.5 7.5 5.27614 7.5 5V2C7.5 1.72386 7.27614 1.5 7 1.5H2C1.72386 1.5 1.5 1.72386 1.5 2Z" fill="#777B92"/>
<path fill-rule="evenodd" clip-rule="evenodd" d="M9 9.5H14C14.8284 9.5 15.5 10.1716 15.5 11V14C15.5 14.8284 14.8284 15.5 14 15.5H9C8.17157 15.5 7.5 14.8284 7.5 14V11C7.5 10.1716 8.17157 9.5 9 9.5ZM8.5 11V14C8.5 14.2761 8.72386 14.5 9 14.5H14C14.2761 14.5 14.5 14.2761 14.5 14V11C14.5 10.7239 14.2761 10.5 14 10.5H9C8.72386 10.5 8.5 10.7239 8.5 11Z" fill="#777B92"/>
<path fill-rule="evenodd" clip-rule="evenodd" d="M0.646447 9.64645C0.841709 9.45118 1.15829 9.45118 1.35355 9.64645L2.5 10.7929L3.64645 9.64645C3.84171 9.45118 4.15829 9.45118 4.35355 9.64645C4.54882 9.84171 4.54882 10.1583 4.35355 10.3536L3.20711 11.5L4.35355 12.6464C4.54882 12.8417 4.54882 13.1583 4.35355 13.3536C4.15829 13.5488 3.84171 13.5488 3.64645 13.3536L2.5 12.2071L1.35355 13.3536C1.15829 13.5488 0.841709 13.5488 0.646447 13.3536C0.451184 13.1583 0.451184 12.8417 0.646447 12.6464L1.79289 11.5L0.646447 10.3536C0.451184 10.1583 0.451184 9.84171 0.646447 9.64645Z" fill="#777B92"/>
</svg>
