<svg width="16" height="16" viewBox="0 0 16 16" fill="none" xmlns="http://www.w3.org/2000/svg">
<path fill-rule="evenodd" clip-rule="evenodd" d="M6 0.5H10C10.8284 0.5 11.5 1.17157 11.5 2V4C11.5 4.82843 10.8284 5.5 10 5.5H6C5.17157 5.5 4.5 4.82843 4.5 4V2C4.5 1.17157 5.17157 0.5 6 0.5ZM5.5 2V4C5.5 4.27614 5.72386 4.5 6 4.5H10C10.2761 4.5 10.5 4.27614 10.5 4V2C10.5 1.72386 10.2761 1.5 10 1.5H6C5.72386 1.5 5.5 1.72386 5.5 2Z" fill="#777B92"/>
<path fill-rule="evenodd" clip-rule="evenodd" d="M11 10.5H14C14.8284 10.5 15.5 11.1716 15.5 12V14C15.5 14.8284 14.8284 15.5 14 15.5H11C10.1716 15.5 9.5 14.8284 9.5 14V12C9.5 11.1716 10.1716 10.5 11 10.5ZM10.5 12V14C10.5 14.2761 10.7239 14.5 11 14.5H14C14.2761 14.5 14.5 14.2761 14.5 14V12C14.5 11.7239 14.2761 11.5 14 11.5H11C10.7239 11.5 10.5 11.7239 10.5 12Z" fill="#777B92"/>
<path fill-rule="evenodd" clip-rule="evenodd" d="M0.5 12C0.5 11.1716 1.17157 10.5 2 10.5H5C5.82843 10.5 6.5 11.1716 6.5 12V14C6.5 14.8284 5.82843 15.5 5 15.5H2C1.17157 15.5 0.5 14.8284 0.5 14V12ZM2 11.5C1.72386 11.5 1.5 11.7239 1.5 12V14C1.5 14.2761 1.72386 14.5 2 14.5H5C5.27614 14.5 5.5 14.2761 5.5 14V12C5.5 11.7239 5.27614 11.5 5 11.5H2Z" fill="#777B92"/>
<path fill-rule="evenodd" clip-rule="evenodd" d="M1 7.5H15C15.2761 7.5 15.5 7.72386 15.5 8C15.5 8.27614 15.2761 8.5 15 8.5H1C0.723858 8.5 0.5 8.27614 0.5 8C0.5 7.72386 0.723858 7.5 1 7.5Z" fill="#777B92"/>
</svg>
