<svg width="16" height="16" viewBox="0 0 16 16" fill="none" xmlns="http://www.w3.org/2000/svg">
<path fill-rule="evenodd" clip-rule="evenodd" d="M2 0.5H5C5.82843 0.5 6.5 1.17157 6.5 2V2.5H9.5V2C9.5 1.17157 10.1716 0.5 11 0.5H14C14.8284 0.5 15.5 1.17157 15.5 2V5C15.5 5.82843 14.8284 6.5 14 6.5H13.5V9.5H14C14.8284 9.5 15.5 10.1716 15.5 11V14C15.5 14.8284 14.8284 15.5 14 15.5H11C10.1716 15.5 9.5 14.8284 9.5 14V13.5H6.5V14C6.5 14.8284 5.82843 15.5 5 15.5H2C1.17157 15.5 0.5 14.8284 0.5 14V11C0.5 10.1716 1.17157 9.5 2 9.5H2.5V6.5H2C1.17157 6.5 0.5 5.82843 0.5 5V2C0.5 1.17157 1.17157 0.5 2 0.5ZM9.5 12.5V11C9.5 10.1716 10.1716 9.5 11 9.5H12.5V6.5H11C10.1716 6.5 9.5 5.82843 9.5 5V3.5H6.5V5C6.5 5.82843 5.82843 6.5 5 6.5H3.5V9.5H5C5.82843 9.5 6.5 10.1716 6.5 11V12.5H9.5ZM10.5 14C10.5 14.2761 10.7239 14.5 11 14.5H14C14.2761 14.5 14.5 14.2761 14.5 14V11C14.5 10.7239 14.2761 10.5 14 10.5H11C10.7239 10.5 10.5 10.7239 10.5 11V14ZM5.5 11C5.5 10.7239 5.27614 10.5 5 10.5H2C1.72386 10.5 1.5 10.7239 1.5 11V14C1.5 14.2761 1.72386 14.5 2 14.5H5C5.27614 14.5 5.5 14.2761 5.5 14V11ZM5.5 2C5.5 1.72386 5.27614 1.5 5 1.5H2C1.72386 1.5 1.5 1.72386 1.5 2V5C1.5 5.27614 1.72386 5.5 2 5.5H5C5.27614 5.5 5.5 5.27614 5.5 5V2ZM10.5 5C10.5 5.27614 10.7239 5.5 11 5.5H14C14.2761 5.5 14.5 5.27614 14.5 5V2C14.5 1.72386 14.2761 1.5 14 1.5H11C10.7239 1.5 10.5 1.72386 10.5 2V5Z" fill="#777B92"/>
</svg>
