<svg width="16" height="16" viewBox="0 0 16 16" fill="none" xmlns="http://www.w3.org/2000/svg">
<path fill-rule="evenodd" clip-rule="evenodd" d="M1.5 4C1.5 4.24513 1.6138 4.52048 1.90597 4.81652C2.20026 5.11471 2.65089 5.40618 3.24721 5.66175C4.43808 6.17212 6.1181 6.5 8 6.5C8.27614 6.5 8.5 6.72386 8.5 7C8.5 7.27614 8.27614 7.5 8 7.5C6.01843 7.5 4.20056 7.15718 2.85842 6.58309C2.33463 6.79022 2.00617 7.01858 1.80635 7.23691C1.58127 7.48284 1.5 7.73615 1.5 7.99998C1.5 8.24511 1.6138 8.52045 1.90597 8.81649C2.20026 9.11469 2.65089 9.40616 3.24721 9.66172C4.43808 10.1721 6.1181 10.5 8 10.5C8.27614 10.5 8.5 10.7238 8.5 11C8.5 11.2761 8.27614 11.5 8 11.5C6.01845 11.5 4.20059 11.1572 2.85845 10.5831C2.33464 10.7902 2.00617 11.0186 1.80635 11.2369C1.58127 11.4828 1.5 11.7362 1.5 12C1.5 12.2451 1.6138 12.5205 1.90597 12.8165C2.20026 13.1147 2.65089 13.4062 3.24721 13.6617C4.43808 14.1721 6.1181 14.5 8 14.5C8.27614 14.5 8.5 14.7238 8.5 15C8.5 15.2761 8.27614 15.5 8 15.5C6.01591 15.5 4.19593 15.1563 2.85329 14.5809C2.18286 14.2935 1.60837 13.9386 1.19422 13.5189C0.777951 13.0971 0.5 12.5833 0.5 12C0.5 11.4954 0.668731 10.9988 1.06865 10.5618C1.25758 10.3553 1.4927 10.168 1.77582 9.99937C1.55825 9.85009 1.36293 9.68988 1.19422 9.51893C0.777951 9.09714 0.5 8.58327 0.5 7.99998C0.5 7.49545 0.668731 6.99875 1.06865 6.56178C1.25758 6.35534 1.49269 6.16797 1.7758 5.99938C1.55824 5.8501 1.36293 5.68989 1.19422 5.51895C0.777951 5.09716 0.5 4.5833 0.5 4C0.5 3.4167 0.777951 2.90284 1.19422 2.48105C1.60837 2.06141 2.18286 1.70643 2.85329 1.41911C4.19593 0.843691 6.01591 0.5 8 0.5C8.27614 0.5 8.5 0.723858 8.5 1C8.5 1.27614 8.27614 1.5 8 1.5C6.1181 1.5 4.43808 1.82788 3.24721 2.33825C2.65089 2.59382 2.20026 2.88529 1.90597 3.18348C1.6138 3.47952 1.5 3.75487 1.5 4Z" fill="#777B92"/>
<path fill-rule="evenodd" clip-rule="evenodd" d="M10.3642 5.00854V4.23972L13.3667 4.23972V2.68077H14.0005V5.00854H10.3642Z" fill="#777B92"/>
<path fill-rule="evenodd" clip-rule="evenodd" d="M12.1824 5.57806C12.5067 5.57806 12.792 5.62955 13.0382 5.73253C13.2844 5.83552 13.4868 5.97579 13.6454 6.15334L14.2988 5.6331V6.35043L13.9384 6.6434C14.013 6.84108 14.0502 7.05356 14.0502 7.28083C14.0502 7.60398 13.9769 7.89399 13.8301 8.15086C13.6833 8.40772 13.4708 8.61073 13.1926 8.75988C12.9133 8.90902 12.5765 8.9836 12.1824 8.9836C11.7858 8.9836 11.4484 8.90902 11.1703 8.75988C10.8921 8.61073 10.6802 8.40772 10.5346 8.15086C10.3878 7.89399 10.3145 7.60398 10.3145 7.28083C10.3145 6.95886 10.3878 6.66944 10.5346 6.41258C10.6802 6.15571 10.8921 5.9527 11.1703 5.80356C11.4484 5.65322 11.7858 5.57806 12.1824 5.57806ZM12.7363 7.54716V6.89375L13.0826 6.62387C12.9819 6.53982 12.8565 6.47472 12.7061 6.42856C12.5558 6.38121 12.3812 6.35753 12.1824 6.35753C11.7965 6.35753 11.5023 6.44158 11.2999 6.60966C11.0963 6.77775 10.9945 7.00147 10.9945 7.28083C10.9945 7.56018 11.0963 7.78391 11.2999 7.95199C11.5023 8.12008 11.7965 8.20412 12.1824 8.20412C12.5671 8.20412 12.8612 8.12008 13.0648 7.95199C13.2684 7.78391 13.3702 7.56018 13.3702 7.28083C13.3702 7.21099 13.3637 7.1447 13.3507 7.08196L12.7363 7.54716Z" fill="#777B92"/>
<path fill-rule="evenodd" clip-rule="evenodd" d="M11.41 10.2234C11.2667 10.2376 11.1555 10.2991 11.0762 10.408C10.9969 10.5158 10.9572 10.6614 10.9572 10.8448C10.9572 11.033 10.9957 11.1775 11.0726 11.2781C11.1496 11.3787 11.2466 11.429 11.3638 11.429C11.494 11.4314 11.5929 11.3757 11.6603 11.2621C11.7266 11.1473 11.7781 11.0111 11.8148 10.8537L11.8929 10.527C11.9403 10.3163 12.0089 10.1293 12.0989 9.96593C12.1889 9.8014 12.3049 9.67237 12.4469 9.57886C12.5878 9.48416 12.7594 9.43681 12.9618 9.43681C13.2944 9.43799 13.5596 9.56288 13.7573 9.81146C13.9538 10.0589 14.052 10.4045 14.052 10.8484C14.052 11.2899 13.9514 11.6421 13.7502 11.9049C13.5489 12.1676 13.2518 12.3038 12.8588 12.3132L12.8588 11.5693C13.0411 11.5562 13.1784 11.4846 13.2708 11.3544C13.3619 11.223 13.4075 11.0573 13.4075 10.8573C13.4075 10.662 13.3661 10.5063 13.2832 10.3903C13.2003 10.2731 13.0926 10.2139 12.96 10.2127C12.8369 10.2139 12.7422 10.2678 12.676 10.3743C12.6097 10.4808 12.5529 10.633 12.5055 10.8306L12.4061 11.2266C12.3327 11.5332 12.2161 11.7752 12.0563 11.9528C11.8965 12.1303 11.6828 12.2185 11.4153 12.2174C11.1951 12.2185 11.0028 12.1599 10.8382 12.0416C10.6725 11.922 10.5441 11.7581 10.4529 11.5497C10.3606 11.3414 10.3145 11.1047 10.3145 10.8395C10.3145 10.5696 10.3606 10.3341 10.4529 10.1328C10.5453 9.93042 10.6737 9.77299 10.8382 9.66053C11.0028 9.54808 11.1934 9.49008 11.41 9.48653V10.2234Z" fill="#777B92"/>
</svg>
