<svg width="24" height="24" viewBox="0 0 24 24" fill="none" xmlns="http://www.w3.org/2000/svg">
<path fill-rule="evenodd" clip-rule="evenodd" d="M9.29974 4.37511L11.2191 1.97589C11.6194 1.47548 12.3805 1.47548 12.7809 1.97589L14.7002 4.37511C14.8012 4.50136 14.8654 4.63933 14.8972 4.7798C15.1687 5.37226 14.9114 6.00876 14.0188 5.99891H13.9633C13.9488 5.9995 13.9341 5.9998 13.9194 5.9998H10.0806C10.0659 5.9998 10.0512 5.9995 10.0367 5.99891H9.98123C9.08869 6.00875 8.83141 5.3724 9.10269 4.78C9.13449 4.63946 9.1987 4.50142 9.29974 4.37511Z" fill="#777B92"/>
<path fill-rule="evenodd" clip-rule="evenodd" d="M9.98123 18.0001H14.0188C14.911 17.9903 15.1684 18.6261 14.8977 19.2183C14.866 19.3594 14.8017 19.4981 14.7002 19.6249L12.7809 22.0241C12.3805 22.5245 11.6194 22.5245 11.2191 22.0241L9.29974 19.6249C9.19823 19.498 9.1339 19.3593 9.10226 19.2181C8.83168 18.6259 9.08916 17.9903 9.98123 18.0001Z" fill="#777B92"/>
</svg>
