<svg width="16" height="16" viewBox="0 0 16 16" fill="none" xmlns="http://www.w3.org/2000/svg">
<path fill-rule="evenodd" clip-rule="evenodd" d="M2.5 3C2.5 1.61929 3.61929 0.5 5 0.5C6.38071 0.5 7.5 1.61929 7.5 3C7.5 4.38071 6.38071 5.5 5 5.5C3.61929 5.5 2.5 4.38071 2.5 3ZM5 1.5C4.17157 1.5 3.5 2.17157 3.5 3C3.5 3.82843 4.17157 4.5 5 4.5C5.82843 4.5 6.5 3.82843 6.5 3C6.5 2.17157 5.82843 1.5 5 1.5Z" fill="#777B92"/>
<path fill-rule="evenodd" clip-rule="evenodd" d="M5 7.5C3.067 7.5 1.5 9.067 1.5 11C1.5 11.2761 1.27614 11.5 1 11.5C0.723858 11.5 0.5 11.2761 0.5 11C0.5 8.51472 2.51472 6.5 5 6.5C6.26581 6.5 7.40954 7.02263 8.2272 7.86389C8.86679 7.03492 9.87056 6.5 10.9999 6.5C12.9329 6.5 14.4999 8.067 14.4999 10C14.4999 10.2761 14.276 10.5 13.9999 10.5C13.7237 10.5 13.4999 10.2761 13.4999 10C13.4999 8.61929 12.3806 7.5 10.9999 7.5C10.0976 7.5 9.30627 7.97784 8.86631 8.69611C9.26875 9.37004 9.5 10.158 9.5 11C9.5 11.2761 9.27614 11.5 9 11.5C8.72386 11.5 8.5 11.2761 8.5 11C8.5 9.067 6.933 7.5 5 7.5Z" fill="#777B92"/>
<path fill-rule="evenodd" clip-rule="evenodd" d="M11 1.5C12.1046 1.5 13 2.39543 13 3.5C13 4.60457 12.1046 5.5 11 5.5C9.89543 5.5 9 4.60457 9 3.5C9 2.39543 9.89543 1.5 11 1.5ZM10 3.5C10 4.05228 10.4477 4.5 11 4.5C11.5523 4.5 12 4.05228 12 3.5C12 2.94772 11.5523 2.5 11 2.5C10.4477 2.5 10 2.94772 10 3.5Z" fill="#777B92"/>
<path fill-rule="evenodd" clip-rule="evenodd" d="M14.3536 12.6464C14.5488 12.8417 14.5488 13.1583 14.3536 13.3536L12.3536 15.3536C12.1583 15.5488 11.8417 15.5488 11.6464 15.3536C11.4512 15.1583 11.4512 14.8417 11.6464 14.6464L12.7929 13.5H1C0.723858 13.5 0.5 13.2761 0.5 13C0.5 12.7239 0.723858 12.5 1 12.5H12.7929L11.6464 11.3536C11.4512 11.1583 11.4512 10.8417 11.6464 10.6464C11.8417 10.4512 12.1583 10.4512 12.3536 10.6464L14.3536 12.6464Z" fill="#777B92"/>
</svg>
