<svg width="24" height="24" viewBox="0 0 24 24" fill="none" xmlns="http://www.w3.org/2000/svg">
<path fill-rule="evenodd" clip-rule="evenodd" d="M7.5 3H16.5C19.5376 3 22 5.46243 22 8.5C22 10.2208 21.2097 11.757 19.9724 12.7655C19.9904 12.8407 20 12.9192 20 13V15H21C21.5523 15 22 15.4477 22 16C22 16.5523 21.5523 17 21 17H20.8293C20.9398 17.3128 21 17.6494 21 18C21 19.6569 19.6569 21 18 21C16.3431 21 15 19.6569 15 18C15 17.6494 15.0602 17.3128 15.1707 17H8.82929C8.93985 17.3128 9 17.6494 9 18C9 19.6569 7.65685 21 6 21C4.34315 21 3 19.6569 3 18C3 17.6494 3.06015 17.3128 3.17071 17H3C2.44772 17 2 16.5523 2 16C2 15.4477 2.44772 15 3 15H4V13C4 12.9192 4.00958 12.8407 4.02765 12.7655C2.79026 11.757 2 10.2208 2 8.5C2 5.46243 4.46243 3 7.5 3ZM6 15H18V13.793C17.5232 13.9278 17.02 14 16.5 14H7.5C6.97999 14 6.47683 13.9278 6 13.793V15ZM4 8.5C4 10.433 5.567 12 7.5 12H16.5C18.433 12 20 10.433 20 8.5C20 6.567 18.433 5 16.5 5H7.5C5.567 5 4 6.567 4 8.5ZM5 18C5 18.5523 5.44772 19 6 19C6.55228 19 7 18.5523 7 18C7 17.4477 6.55228 17 6 17C5.44772 17 5 17.4477 5 18ZM18 17C17.4477 17 17 17.4477 17 18C17 18.5523 17.4477 19 18 19C18.5523 19 19 18.5523 19 18C19 17.4477 18.5523 17 18 17Z" fill="#777B92"/>
</svg>
