<svg width="24" height="24" viewBox="0 0 24 24" fill="none" xmlns="http://www.w3.org/2000/svg">
<path fill-rule="evenodd" clip-rule="evenodd" d="M4 6H7C7.55228 6 8 6.44772 8 7C8 7.55228 7.55228 8 7 8L4 8V16H7C7.55228 16 8 16.4477 8 17C8 17.5523 7.55228 18 7 18H4C2.89543 18 2 17.1046 2 16V8C2 6.89543 2.89543 6 4 6Z" fill="#777B92"/>
<path fill-rule="evenodd" clip-rule="evenodd" d="M15 6H17C18.1046 6 19 6.89543 19 8V16C19 17.1046 18.1046 18 17 18H15C14.4477 18 14 17.5523 14 17C14 16.4477 14.4477 16 15 16H17V8H15C14.4477 8 14 7.55228 14 7C14 6.44772 14.4477 6 15 6Z" fill="#777B92"/>
<path fill-rule="evenodd" clip-rule="evenodd" d="M12 7V13C12 13.5523 11.5523 14 11 14C10.4477 14 10 13.5523 10 13V7C10 6.44772 10.4477 6 11 6C11.5523 6 12 6.44772 12 7Z" fill="#777B92"/>
<path fill-rule="evenodd" clip-rule="evenodd" d="M22 9C22.5523 9 23 9.44772 23 10V14C23 14.5523 22.5523 15 22 15C21.4477 15 21 14.5523 21 14V10C21 9.44772 21.4477 9 22 9Z" fill="#777B92"/>
<path fill-rule="evenodd" clip-rule="evenodd" d="M11 18C10.4477 18 10 17.5523 10 17C10 16.4477 10.4477 16 11 16C11.5523 16 12 16.4477 12 17C12 17.5523 11.5523 18 11 18Z" fill="#777B92"/>
</svg>
