<svg width="24" height="24" viewBox="0 0 24 24" fill="none" xmlns="http://www.w3.org/2000/svg">
<path fill-rule="evenodd" clip-rule="evenodd" d="M2 6C2 4.89543 2.89543 4 4 4H20C21.1046 4 22 4.89543 22 6V14C22 14.5523 21.5523 15 21 15C20.4477 15 20 14.5523 20 14V7.2501L13.2001 12.3501C12.4889 12.8834 11.5112 12.8834 10.8001 12.3501L4 7.25001V18H14C14.5523 18 15 18.4477 15 19C15 19.5523 14.5523 20 14 20H4C2.89543 20 2 19.1046 2 18V6ZM12.0001 10.7501L18.3335 6L5.66665 6L12.0001 10.7501Z" fill="#777B92"/>
<path fill-rule="evenodd" clip-rule="evenodd" d="M17.9812 17.0001H22.0188C23.1428 16.9877 23.2593 18.0001 22.5816 18.6589L20.781 20.6573C20.5071 20.9914 20.025 20.9992 20.0009 20.9994H19.9991C19.975 20.9992 19.493 20.9914 19.219 20.6573L17.4185 18.6589C16.7407 18.0001 16.8572 16.9877 17.9812 17.0001Z" fill="#777B92"/>
</svg>
