<svg width="24" height="24" viewBox="0 0 24 24" fill="none" xmlns="http://www.w3.org/2000/svg">
<path fill-rule="evenodd" clip-rule="evenodd" d="M13 15C13 15.5523 12.5523 16 12 16C11.4477 16 11 15.5523 11 15C11 14.4477 11.4477 14 12 14C12.5523 14 13 14.4477 13 15Z" fill="#777B92"/>
<path fill-rule="evenodd" clip-rule="evenodd" d="M11 9C11 9.55228 10.5523 10 10 10C9.44772 10 9 9.55228 9 9C9 7.34315 10.3431 6 12 6C13.6569 6 15 7.34315 15 9C15 10.137 14.3671 11.1247 13.4391 11.6327C13.265 11.7281 13.1336 11.8316 13.0569 11.9211C13.0171 11.9676 13.0038 11.9953 13 12.0061V13C13 13.5523 12.5523 14 12 14C11.4477 14 11 13.5523 11 13V12C11 11.4196 11.2528 10.9526 11.5387 10.6191C11.8204 10.2907 12.1685 10.0482 12.4788 9.87836C12.7915 9.70715 13 9.3772 13 9C13 8.44772 12.5523 8 12 8C11.4477 8 11 8.44772 11 9Z" fill="#777B92"/>
<path fill-rule="evenodd" clip-rule="evenodd" d="M2 5C2 3.89543 2.89543 3 4 3H20C21.1046 3 22 3.89543 22 5V17C22 18.1046 21.1046 19 20 19H8.27698L3.5145 21.8575C3.20556 22.0429 2.82081 22.0477 2.5073 21.8702C2.19379 21.6927 2 21.3603 2 21V5ZM20 5H4V19.2338L7.24799 17.285C7.55882 17.0985 7.9145 17 8.27698 17H20V5Z" fill="#777B92"/>
</svg>
