<svg width="24" height="22" viewBox="0 0 24 22" fill="none" xmlns="http://www.w3.org/2000/svg">
<path d="M11.5 0C10.9477 0 10.5 0.447715 10.5 1C10.5 1.55228 10.9477 2 11.5 2H15.0858L9.79289 7.29289C9.40237 7.68342 9.40237 8.31658 9.79289 8.70711C10.1834 9.09763 10.8166 9.09763 11.2071 8.70711L16.5 3.41421V7C16.5 7.55228 16.9477 8 17.5 8C18.0523 8 18.5 7.55228 18.5 7V1C18.5 0.447715 18.0523 0 17.5 0H11.5Z" fill="#7887A5"/>
<path fill-rule="evenodd" clip-rule="evenodd" d="M1.33086 21.9808C0.87199 21.9808 0.5 21.6029 0.5 21.1367V14.4491C0.5 14.2908 0.534367 14.1775 0.6031 14.1091C0.671833 14.0364 0.780997 14 0.930593 14H3.19879C3.86995 14 4.46429 14.1732 4.98181 14.5196C5.49933 14.8661 5.75809 15.5247 5.75809 16.4956C5.75809 17.1628 5.60849 17.6824 5.3093 18.0545C5.01011 18.4223 4.67251 18.6704 4.2965 18.7987C3.92453 18.927 3.59299 18.9912 3.30189 18.9912H2.16173V21.1367C2.16173 21.6029 1.78974 21.9808 1.33086 21.9808ZM3.11995 17.4836C3.37871 17.4836 3.59906 17.4109 3.781 17.2654C3.96698 17.12 4.05997 16.8634 4.05997 16.4956C4.05997 16.1235 3.96698 15.8626 3.781 15.7129C3.59501 15.5632 3.37466 15.4884 3.11995 15.4884H2.16173V17.4836H3.11995Z" fill="#7887A5"/>
<path fill-rule="evenodd" clip-rule="evenodd" d="M7.08019 21.9808C6.93059 21.9808 6.82143 21.9444 6.7527 21.8717C6.68396 21.799 6.6496 21.6835 6.6496 21.5253V14.4491C6.6496 14.2908 6.68396 14.1775 6.7527 14.1091C6.82143 14.0364 6.93059 14 7.08019 14H9.49394C10.2338 14 10.8605 14.154 11.374 14.4619C11.8915 14.7656 12.2817 15.2146 12.5445 15.8091C12.8113 16.4036 12.9447 17.1286 12.9447 17.984C12.9447 18.8436 12.8113 19.5707 12.5445 20.1652C12.2817 20.7597 11.8915 21.2109 11.374 21.5188C10.8605 21.8268 10.2338 21.9808 9.49394 21.9808H7.08019ZM9.49394 20.486C10.0681 20.486 10.5027 20.2743 10.7978 19.8508C11.093 19.4231 11.2406 18.8009 11.2406 17.984C11.2406 17.1713 11.093 16.5533 10.7978 16.1299C10.5027 15.7022 10.0681 15.4884 9.49394 15.4884H8.32345V20.486H9.49394Z" fill="#7887A5"/>
<path d="M14.1456 21.1559C14.1456 21.6221 14.5175 22 14.9764 22C15.4353 22 15.8073 21.6221 15.8073 21.1559V18.6512H17.7643C18.1706 18.6512 18.5 18.3165 18.5 17.9038C18.5 17.491 18.1706 17.1564 17.7643 17.1564H15.8073V15.4884H17.7674C18.172 15.4884 18.5 15.1552 18.5 14.7442C18.5 14.3332 18.173 14 17.7685 14H14.5761C14.4265 14 14.3174 14.0364 14.2487 14.1091C14.1799 14.1775 14.1456 14.2908 14.1456 14.4491V21.1559Z" fill="#7887A5"/>
</svg>
