<svg width="16" height="16" viewBox="0 0 16 16" fill="none" xmlns="http://www.w3.org/2000/svg">
<path fill-rule="evenodd" clip-rule="evenodd" d="M5 0.5C6.20948 0.5 7.21836 1.35888 7.44999 2.5L15 2.5C15.2761 2.5 15.5 2.72386 15.5 3C15.5 3.27614 15.2761 3.5 15 3.5L7.44999 3.5C7.21836 4.64112 6.20948 5.5 5 5.5C3.79052 5.5 2.78164 4.64112 2.55001 3.5L1 3.5C0.723858 3.5 0.5 3.27614 0.5 3C0.5 2.72386 0.723858 2.5 1 2.5L2.55001 2.5C2.78164 1.35888 3.79052 0.5 5 0.5ZM5 1.5C4.17157 1.5 3.5 2.17157 3.5 3C3.5 3.82843 4.17157 4.5 5 4.5C5.82843 4.5 6.5 3.82843 6.5 3C6.5 2.17157 5.82843 1.5 5 1.5Z" fill="#777B92"/>
<path fill-rule="evenodd" clip-rule="evenodd" d="M10.55 8.5L1 8.5C0.723858 8.5 0.5 8.27614 0.5 8C0.5 7.72386 0.723858 7.5 1 7.5L10.55 7.5C10.7816 6.35888 11.7905 5.5 13 5.5C14.3807 5.5 15.5 6.61929 15.5 8C15.5 9.38071 14.3807 10.5 13 10.5C11.7905 10.5 10.7816 9.64112 10.55 8.5ZM11.5 8C11.5 8.82843 12.1716 9.5 13 9.5C13.8284 9.5 14.5 8.82843 14.5 8C14.5 7.17157 13.8284 6.5 13 6.5C12.1716 6.5 11.5 7.17157 11.5 8Z" fill="#777B92"/>
<path fill-rule="evenodd" clip-rule="evenodd" d="M7 15.5C5.79052 15.5 4.78164 14.6411 4.55001 13.5H1C0.723858 13.5 0.5 13.2761 0.5 13C0.5 12.7239 0.723858 12.5 1 12.5H4.55001C4.78164 11.3589 5.79052 10.5 7 10.5C8.20948 10.5 9.21836 11.3589 9.44999 12.5H15C15.2761 12.5 15.5 12.7239 15.5 13C15.5 13.2761 15.2761 13.5 15 13.5H9.44999C9.21836 14.6411 8.20948 15.5 7 15.5ZM5.5 13C5.5 13.8284 6.17157 14.5 7 14.5C7.82843 14.5 8.5 13.8284 8.5 13C8.5 12.1716 7.82843 11.5 7 11.5C6.17157 11.5 5.5 12.1716 5.5 13Z" fill="#777B92"/>
</svg>
