<svg fill="none" xmlns="http://www.w3.org/2000/svg" viewBox="0 0 16 12"><g clip-path="url(#AG - Antigua and Barbuda__a)"><mask id="AG - Antigua and Barbuda__b" style="mask-type:alpha" maskUnits="userSpaceOnUse" x="0" y="0" width="16" height="12"><path fill="#fff" d="M0 0h16v12H0z"/></mask><g mask="url(#AG - Antigua and Barbuda__b)"><path fill-rule="evenodd" clip-rule="evenodd" d="M0 0h16v12H0V0Z" fill="#1B1B1B"/><path fill-rule="evenodd" clip-rule="evenodd" d="M8 7 6.887 8.9l.028-2.098-2.032 1.325 1.162-1.88-2.55.489 2.068-1.291L3 5l2.563-.445-2.068-1.29 2.55.488-1.162-1.88 2.032 1.325L6.887 1.1 8 3l1.113-1.9-.028 2.098 2.032-1.325-1.162 1.88 2.55-.489-2.068 1.291L13 5l-2.563.445 2.068 1.29-2.55-.488 1.162 1.88-2.032-1.325.028 2.098L8 7Z" fill="#F9D313"/><path fill="#F1F9FF" d="M3 7h10v5H3z"/><path fill="#4A80E8" d="M1 5h14v2H1z"/><path fill-rule="evenodd" clip-rule="evenodd" d="m0 3 8 9 8-9v9H0V3Z" fill="#E31D1C"/></g><path fill="url(#AG - Antigua and Barbuda__c)" style="mix-blend-mode:overlay" d="M0 0h16v12H0z"/></g><defs><linearGradient id="AG - Antigua and Barbuda__c" x1="8" y1="0" x2="8" y2="12" gradientUnits="userSpaceOnUse"><stop stop-color="#fff" stop-opacity=".7"/><stop offset="1" stop-opacity=".3"/></linearGradient><clipPath id="AG - Antigua and Barbuda__a"><rect width="16" height="12" rx="1" fill="#fff"/></clipPath></defs></svg>