<svg fill="none" xmlns="http://www.w3.org/2000/svg" viewBox="0 0 16 12"><g clip-path="url(#BQ-SA - Saba__a)"><mask id="BQ-SA - Saba__b" style="mask-type:alpha" maskUnits="userSpaceOnUse" x="0" y="0" width="16" height="12"><path fill="#fff" d="M0 0h16v12H0z"/></mask><g mask="url(#BQ-SA - Saba__b)" fill-rule="evenodd" clip-rule="evenodd"><path d="M0 0h16v12H0V0Z" fill="#fff"/><path d="M0 5.832V0h8L0 5.832Zm16 0V0H8l8 5.832Z" fill="#F00000"/><path d="M0 5.832V12h8L0 5.832Zm16 0v6.336L8 12l8-6.168Z" fill="#00268D"/><path d="M7.857 7.128 6.098 8.382l.646-2.071L5 5.043h2.172L7.857 3l.726 2.043h2.113L8.967 6.311l.657 2.07-1.767-1.253Z" fill="#FEDA00"/></g><path fill="url(#BQ-SA - Saba__c)" style="mix-blend-mode:overlay" d="M0 0h16v12H0z"/></g><defs><linearGradient id="BQ-SA - Saba__c" x1="8" y1="0" x2="8" y2="12" gradientUnits="userSpaceOnUse"><stop stop-color="#fff" stop-opacity=".7"/><stop offset="1" stop-opacity=".3"/></linearGradient><clipPath id="BQ-SA - Saba__a"><rect width="16" height="12" rx="1" fill="#fff"/></clipPath></defs></svg>