<svg fill="none" xmlns="http://www.w3.org/2000/svg" viewBox="0 0 16 12"><g clip-path="url(#CD - Democratic Republic of the Congo__a)"><mask id="CD - Democratic Republic of the Congo__b" style="mask-type:alpha" maskUnits="userSpaceOnUse" x="0" y="0" width="16" height="12"><path fill="#fff" d="M0 0h16v12H0z"/></mask><g mask="url(#CD - Democratic Republic of the Congo__b)"><path fill-rule="evenodd" clip-rule="evenodd" d="M0 0v12h16V0H0Z" fill="#3195F9"/><mask id="CD - Democratic Republic of the Congo__c" style="mask-type:alpha" maskUnits="userSpaceOnUse" x="0" y="0" width="16" height="12"><path fill-rule="evenodd" clip-rule="evenodd" d="M0 0v12h16V0H0Z" fill="#fff"/></mask><g mask="url(#CD - Democratic Republic of the Congo__c)"><path d="m-.91 12.72.346.52.52-.348L18.086.791l.52-.347-.347-.52-1.11-1.664-.347-.52-.52.348-18.13 12.101-.52.347.347.52 1.11 1.664Z" fill="#E31D1C" stroke="#FECA00" stroke-width="1.25"/><path fill-rule="evenodd" clip-rule="evenodd" d="M2.465 4.303.723 5.512l.556-2.07L0 2.119l1.732-.072L2.465 0l.733 2.047h1.73L3.65 3.442l.64 1.948-1.826-1.087Z" fill="#FECA00"/></g></g><path fill="url(#CD - Democratic Republic of the Congo__d)" style="mix-blend-mode:overlay" d="M0 0h16v12H0z"/></g><defs><linearGradient id="CD - Democratic Republic of the Congo__d" x1="8" y1="0" x2="8" y2="12" gradientUnits="userSpaceOnUse"><stop stop-color="#fff" stop-opacity=".7"/><stop offset="1" stop-opacity=".3"/></linearGradient><clipPath id="CD - Democratic Republic of the Congo__a"><rect width="16" height="12" rx="1" fill="#fff"/></clipPath></defs></svg>