<svg fill="none" xmlns="http://www.w3.org/2000/svg" viewBox="0 0 16 12"><g clip-path="url(#DZ - Algeria__a)"><mask id="DZ - Algeria__b" style="mask-type:alpha" maskUnits="userSpaceOnUse" x="0" y="0" width="16" height="12"><path fill="#fff" d="M0 0h16v12H0z"/></mask><g mask="url(#DZ - Algeria__b)" fill-rule="evenodd" clip-rule="evenodd"><path d="M8 0h8v12H8V0Z" fill="#F7FCFF"/><path d="M0 0h8v12H0V0Z" fill="#36A400"/><path d="M8 7.999c-1.23-.231-1.506-1.3-1.506-2.095 0-.795.456-1.77 1.506-1.953 1.05-.184 2.502.552 2.502.552S9.163 3.01 7.762 3.01C6.36 3.009 5.02 4.06 5.02 5.904s.96 3.055 2.74 3.055c1.78 0 2.66-1.879 2.66-1.879S9.23 8.23 8 8Zm.468-2.72-.9-.007.876.624-.306 1.007.912-.55 1.03.576-.543-1.025.831-.632-.851-.001-.502-.885-.547.892Z" fill="red"/></g><path fill="url(#DZ - Algeria__c)" style="mix-blend-mode:overlay" d="M0 0h16v12H0z"/></g><defs><linearGradient id="DZ - Algeria__c" x1="8" y1="0" x2="8" y2="12" gradientUnits="userSpaceOnUse"><stop stop-color="#fff" stop-opacity=".7"/><stop offset="1" stop-opacity=".3"/></linearGradient><clipPath id="DZ - Algeria__a"><rect width="16" height="12" rx="1" fill="#fff"/></clipPath></defs></svg>