<svg fill="none" xmlns="http://www.w3.org/2000/svg" viewBox="0 0 16 12"><g clip-path="url(#FM - Federated States of Micronesia__a)"><mask id="FM - Federated States of Micronesia__b" style="mask-type:alpha" maskUnits="userSpaceOnUse" x="0" y="0" width="16" height="12"><path fill="#fff" d="M0 0h16v12H0z"/></mask><g mask="url(#FM - Federated States of Micronesia__b)"><path fill-rule="evenodd" clip-rule="evenodd" d="M0 0v12h16V0H0Z" fill="#63B3E1"/><mask id="FM - Federated States of Micronesia__c" style="mask-type:alpha" maskUnits="userSpaceOnUse" x="0" y="0" width="16" height="12"><path fill-rule="evenodd" clip-rule="evenodd" d="M0 0v12h16V0H0Z" fill="#fff"/></mask><g mask="url(#FM - Federated States of Micronesia__c)" fill-rule="evenodd" clip-rule="evenodd" fill="#F7FCFF"><path d="m8 3.65-.882.464.169-.982-.714-.696.986-.143L8 1.4l.44.893.987.143-.714.696.169.982L8 3.65Zm0 6-.882.463.169-.981-.714-.696.986-.143L8 7.4l.44.893.987.143-.714.696.169.982L8 9.65Zm-3.1-2.9-.882.464.169-.982-.714-.696.986-.143L4.9 4.5l.44.893.987.143-.714.696.169.982L4.9 6.75Zm6.1 0-.882.464.169-.982-.714-.696.986-.143L11 4.5l.44.893.987.143-.714.696.169.982L11 6.75Z"/></g></g><path fill="url(#FM - Federated States of Micronesia__d)" style="mix-blend-mode:overlay" d="M0 0h16v12H0z"/></g><defs><linearGradient id="FM - Federated States of Micronesia__d" x1="8" y1="0" x2="8" y2="12" gradientUnits="userSpaceOnUse"><stop stop-color="#fff" stop-opacity=".7"/><stop offset="1" stop-opacity=".3"/></linearGradient><clipPath id="FM - Federated States of Micronesia__a"><rect width="16" height="12" rx="1" fill="#fff"/></clipPath></defs></svg>