<svg fill="none" xmlns="http://www.w3.org/2000/svg" viewBox="0 0 16 12"><g clip-path="url(#GB-UKM - United Kingdom__a)"><mask id="GB-UKM - United Kingdom__b" style="mask-type:alpha" maskUnits="userSpaceOnUse" x="0" y="0" width="16" height="12"><path fill="#fff" d="M0 0h16v12H0z"/></mask><g mask="url(#GB-UKM - United Kingdom__b)"><path fill-rule="evenodd" clip-rule="evenodd" d="M0 0v12h16V0H0Z" fill="#2E42A5"/><mask id="GB-UKM - United Kingdom__c" style="mask-type:alpha" maskUnits="userSpaceOnUse" x="0" y="0" width="16" height="12"><path fill-rule="evenodd" clip-rule="evenodd" d="M0 0v12h16V0H0Z" fill="#fff"/></mask><g mask="url(#GB-UKM - United Kingdom__c)"><mask id="GB-UKM - United Kingdom__d" style="mask-type:alpha" maskUnits="userSpaceOnUse" x="0" y="0" width="16" height="12"><path fill="#fff" d="M0 0h16v12H0z"/></mask><g mask="url(#GB-UKM - United Kingdom__d)"><path d="m-1.782 11.143 3.521 1.489L16.08 1.619l1.858-2.213-3.765-.497-5.85 4.745-4.707 3.198-5.397 4.29Z" fill="#fff"/><path d="m-1.3 12.186 1.794.864L17.27-.8h-2.518L-1.3 12.187Z" fill="#F50100"/><path d="m17.782 11.143-3.521 1.489L-.08 1.619-1.938-.594l3.765-.497 5.85 4.745 4.707 3.198 5.397 4.29Z" fill="#fff"/><path d="m17.661 11.891-1.793.865-7.144-5.93-2.118-.663-8.722-6.75H.403l8.717 6.59 2.316.795 6.225 5.093Z" fill="#F50100"/><mask id="GB-UKM - United Kingdom__e" fill="#fff"><path fill-rule="evenodd" clip-rule="evenodd" d="M9.889-1H6.11v5H-.986v4H6.11v5h3.78V8h7.125V4H9.889v-5Z"/></mask><path fill-rule="evenodd" clip-rule="evenodd" d="M9.889-1H6.11v5H-.986v4H6.11v5h3.78V8h7.125V4H9.889v-5Z" fill="#F50100"/><path d="M6.111-1v-1h-1v1h1ZM9.89-1h1v-1h-1v1ZM6.11 4v1h1V4h-1ZM-.986 4V3h-1v1h1Zm0 4h-1v1h1V8ZM6.11 8h1V7h-1v1Zm0 5h-1v1h1v-1Zm3.778 0v1h1v-1h-1Zm0-5V7h-1v1h1Zm7.125 0v1h1V8h-1Zm0-4h1V3h-1v1ZM9.889 4h-1v1h1V4ZM6.11 0h3.78v-2H6.11v2Zm1 4v-5h-2v5h2ZM-.986 5H6.11V3H-.986v2Zm1 3V4h-2v4h2ZM6.11 7H-.986v2H6.11V7Zm1 6V8h-2v5h2Zm2.778-1H6.11v2h3.78v-2Zm-1-4v5h2V8h-2Zm8.125-1H9.889v2h7.125V7Zm-1-3v4h2V4h-2ZM9.889 5h7.125V3H9.889v2Zm-1-6v5h2v-5h-2Z" fill="#fff" mask="url(#GB-UKM - United Kingdom__e)"/></g></g></g><path fill="url(#GB-UKM - United Kingdom__f)" style="mix-blend-mode:overlay" d="M0 0h16v12H0z"/></g><defs><linearGradient id="GB-UKM - United Kingdom__f" x1="8" y1="0" x2="8" y2="12" gradientUnits="userSpaceOnUse"><stop stop-color="#fff" stop-opacity=".7"/><stop offset="1" stop-opacity=".3"/></linearGradient><clipPath id="GB-UKM - United Kingdom__a"><rect width="16" height="12" rx="1" fill="#fff"/></clipPath></defs></svg>