<svg fill="none" xmlns="http://www.w3.org/2000/svg" viewBox="0 0 16 12"><g clip-path="url(#GL - Greenland__a)"><mask id="GL - Greenland__b" style="mask-type:alpha" maskUnits="userSpaceOnUse" x="0" y="0" width="16" height="12"><path fill="#fff" d="M0 0h16v12H0z"/></mask><g mask="url(#GL - Greenland__b)"><path fill-rule="evenodd" clip-rule="evenodd" d="M0 6h16v6H0V6Z" fill="#C51918"/><mask id="GL - Greenland__c" style="mask-type:alpha" maskUnits="userSpaceOnUse" x="0" y="6" width="16" height="6"><path fill-rule="evenodd" clip-rule="evenodd" d="M0 6h16v6H0V6Z" fill="#fff"/></mask><g mask="url(#GL - Greenland__c)"><path fill-rule="evenodd" clip-rule="evenodd" d="M6 10a4 4 0 1 0 0-8 4 4 0 0 0 0 8Z" fill="#F7FCFF"/></g><path fill-rule="evenodd" clip-rule="evenodd" d="M0 0h16v6H0V0Z" fill="#F7FCFF"/><mask id="GL - Greenland__d" style="mask-type:alpha" maskUnits="userSpaceOnUse" x="0" y="0" width="16" height="6"><path fill-rule="evenodd" clip-rule="evenodd" d="M0 0h16v6H0V0Z" fill="#fff"/></mask><g mask="url(#GL - Greenland__d)"><path fill-rule="evenodd" clip-rule="evenodd" d="M6 10a4 4 0 1 0 0-8 4 4 0 0 0 0 8Z" fill="#C51918"/></g></g><path fill="url(#GL - Greenland__e)" style="mix-blend-mode:overlay" d="M0 0h16v12H0z"/></g><defs><linearGradient id="GL - Greenland__e" x1="8" y1="0" x2="8" y2="12" gradientUnits="userSpaceOnUse"><stop stop-color="#fff" stop-opacity=".7"/><stop offset="1" stop-opacity=".3"/></linearGradient><clipPath id="GL - Greenland__a"><rect width="16" height="12" rx="1" fill="#fff"/></clipPath></defs></svg>