<svg fill="none" xmlns="http://www.w3.org/2000/svg" viewBox="0 0 16 12"><g clip-path="url(#KN - Kenia__a)"><mask id="KN - Kenia__b" style="mask-type:alpha" maskUnits="userSpaceOnUse" x="0" y="0" width="16" height="12"><path fill="#fff" d="M0 0h16v12H0z"/></mask><g mask="url(#KN - Kenia__b)"><path fill-rule="evenodd" clip-rule="evenodd" d="M0 0h16v12H0V0Z" fill="#0067C3"/><path fill-rule="evenodd" clip-rule="evenodd" d="M0 0v4h16V0H0Z" fill="#272727"/><path fill-rule="evenodd" clip-rule="evenodd" d="M0 8v4h16V8H0Z" fill="#4E8B1D"/><path d="M0 3.5h-.5v5h17v-5H0Z" fill="#E31D1C" stroke="#F7FCFF"/></g><path d="M9.812 2.015c.114-.205.42-.43.92-.673a.068.068 0 0 1 .056 0c.03.012.043.044.028.07l-5.179 9.314-.27-.116L9.932 2.4c-.206-.03-.247-.158-.12-.385Z" fill="#fff"/><path d="M6.183 2.015c.126.227.086.356-.12.385l4.564 8.21-.27.116L5.18 1.412c-.015-.026-.003-.058.027-.07a.068.068 0 0 1 .056 0c.5.244.807.468.92.673Z" fill="#fff"/><path fill-rule="evenodd" clip-rule="evenodd" d="M8 10.474c.598 0 3-1.885 3-4.21 0-2.326-2.402-4.211-3-4.211-.598 0-3 1.885-3 4.21 0 2.326 2.402 4.21 3 4.21Z" fill="#E31D1C"/><mask id="KN - Kenia__c" style="mask-type:alpha" maskUnits="userSpaceOnUse" x="5" y="2" width="6" height="9"><path fill-rule="evenodd" clip-rule="evenodd" d="M8 10.474c.598 0 3-1.885 3-4.21 0-2.326-2.402-4.211-3-4.211-.598 0-3 1.885-3 4.21 0 2.326 2.402 4.21 3 4.21Z" fill="#fff"/></mask><g mask="url(#KN - Kenia__c)"><path d="M2.5 9.947c2.32 0 4.2-1.65 4.2-3.684 0-2.035-1.88-3.684-4.2-3.684-2.32 0-4.2 1.65-4.2 3.684 0 2.035 1.88 3.684 4.2 3.684Zm11 0c2.32 0 4.2-1.65 4.2-3.684 0-2.035-1.88-3.684-4.2-3.684-2.32 0-4.2 1.65-4.2 3.684 0 2.035 1.88 3.684 4.2 3.684Z" fill="#272727"/><path fill-rule="evenodd" clip-rule="evenodd" d="M8.12 5.7c.274-.17.48-.914.48-1.805 0-.891-.206-1.635-.48-1.806V5.7Zm-.3-.047c-.243-.235-.42-.933-.42-1.758s.177-1.523.42-1.758v3.516Zm0 1.22v3.516c-.243-.234-.42-.933-.42-1.757 0-.825.177-1.523.42-1.758Zm.3 3.564v-3.61c.274.17.48.913.48 1.805 0 .89-.206 1.634-.48 1.805Z" fill="#F7FCFF"/><path d="M8 5.737c.331 0 .6.235.6.526 0 .29-.269.526-.6.526-.331 0-.6-.235-.6-.526 0-.29.269-.526.6-.526Z" fill="#F7FCFF"/></g><path fill="url(#KN - Kenia__d)" style="mix-blend-mode:overlay" d="M0 0h16v12H0z"/></g><defs><linearGradient id="KN - Kenia__d" x1="8" y1="0" x2="8" y2="12" gradientUnits="userSpaceOnUse"><stop stop-color="#fff" stop-opacity=".7"/><stop offset="1" stop-opacity=".3"/></linearGradient><clipPath id="KN - Kenia__a"><rect width="16" height="12" rx="1" fill="#fff"/></clipPath></defs></svg>