<svg fill="none" xmlns="http://www.w3.org/2000/svg" viewBox="0 0 16 12"><g clip-path="url(#KR - Korea (South)__KR - Korea (South)__KR - Korea (South)__KR - Korea (South)__a)"><g mask="url(#KR - Korea (South)__KR - Korea (South)__KR - Korea (South)__KR - Korea (South)__b)"><path fill-rule="evenodd" clip-rule="evenodd" d="M0 0v12h16V0H0Z" fill="#F7FCFF"/><g mask="url(#KR - Korea (South)__KR - Korea (South)__KR - Korea (South)__KR - Korea (South)__c)"><path fill-rule="evenodd" clip-rule="evenodd" d="M7.893 9.286c1.708 0 3.093-1.418 3.093-3.168 0-1.749-1.385-3.167-3.093-3.167S4.8 4.37 4.8 6.118c0 1.75 1.385 3.168 3.093 3.168Z" fill="#3D58DB"/><g mask="url(#KR - Korea (South)__KR - Korea (South)__KR - Korea (South)__KR - Korea (South)__d)"><path fill-rule="evenodd" clip-rule="evenodd" d="M11.094 6.361s-.173-1.493-1.459-1.574c-1.286-.082-1.632 1.095-1.707 1.406-.074.312-.261 1.143-1.615 1.143S4.837 5.222 4.837 5.222V2.73h6.257v3.63Z" fill="#E31D1C"/></g><path fill-rule="evenodd" clip-rule="evenodd" d="m3.65 1.026.457.414-2.12 2.476-.457-.414 2.12-2.476Zm.754.67.458.413-2.044 2.44-.458-.413 2.044-2.44Zm1.209 1.091-.458-.414-2.05 2.46.458.413 2.05-2.459Z" fill="#272727"/><path d="m4.107 1.44.057.049.048-.056-.055-.049-.05.056Zm-.457-.414L3.7.97 3.643.92l-.05.058.057.05Zm-1.663 2.89-.05.055.057.052.05-.058-.057-.05Zm-.457-.414-.057-.049-.048.056.054.049.05-.056Zm3.332-1.393.057.049.047-.056-.054-.048-.05.055Zm-.458-.413.05-.056-.057-.052-.05.06.057.048ZM2.818 4.55l-.05.055.057.052.05-.06-.057-.047Zm-.458-.414-.057-.048-.047.055.054.048.05-.055Zm2.795-1.763.05-.055-.057-.053-.05.06.057.048Zm.458.414.057.048.046-.055-.053-.048-.05.055ZM3.105 4.832l-.057-.048-.046.055.053.049.05-.056Zm.458.414-.05.055.057.053.05-.06-.057-.048Zm.594-3.862L3.7.97l-.1.112.457.413.1-.11Zm-2.113 2.58 2.12-2.475-.114-.098-2.12 2.476.114.098Zm-.565-.406.458.413.1-.11-.457-.415-.1.112ZM3.593.978l-2.12 2.475.114.098 2.12-2.476-.114-.098Zm1.319 1.076-.458-.414-.1.111.457.414.101-.111ZM2.875 4.598l2.044-2.44-.115-.097-2.044 2.44.115.097ZM2.31 4.19l.457.414.1-.111-.457-.414-.1.111Zm2.037-2.543-2.044 2.44.115.096 2.044-2.44-.115-.097Zm.758.781.457.414.101-.111-.457-.414-.101.111ZM3.163 4.88l2.05-2.458-.115-.097-2.05 2.46.115.095Zm.45.31-.457-.414-.1.112.457.413.1-.11Zm1.942-2.45-2.05 2.458.115.096 2.05-2.459-.115-.096Z" fill="#272727"/><path fill-rule="evenodd" clip-rule="evenodd" d="m12.293 1.026-.458.414 2.12 2.476.458-.414-2.12-2.476Zm-.755.67-.457.413 2.044 2.44.457-.413-2.044-2.44ZM10.33 2.787l.458-.414 2.05 2.46-.458.413-2.05-2.459Z" fill="#272727"/><path d="m11.835 1.44-.057.049-.047-.056.054-.049.05.056Zm.458-.414-.05-.056.056-.051.05.058-.056.05Zm1.662 2.89.05.055-.057.052-.05-.058.057-.05Zm.458-.414.057-.049.047.056-.054.049-.05-.056ZM11.08 2.109l-.058.049-.046-.056.053-.048.05.055Zm.457-.413-.05-.056.058-.052.05.06-.058.048Zm1.587 2.854.05.055-.058.052-.05-.06.058-.047Zm.457-.414.058-.048.046.055-.053.048-.05-.055Zm-2.795-1.763-.05-.055.058-.053.05.06-.058.048Zm-.458.414-.057.048-.046-.055.053-.048.05.055Zm2.508 2.045.057-.048.047.055-.054.049-.05-.056Zm-.458.414.05.055-.057.053-.05-.06.057-.048Zm-.594-3.862.457-.414.1.112-.457.413-.1-.11Zm2.113 2.58-2.12-2.475.114-.098 2.12 2.476-.114.098Zm.565-.406-.457.413-.101-.11.457-.415.101.112ZM12.35.978l2.12 2.475-.114.098-2.12-2.476.114-.098Zm-1.32 1.076.458-.414.1.111-.457.414-.1-.111Zm2.037 2.544-2.044-2.44.115-.097 2.044 2.44-.115.097Zm.566-.407-.458.414-.1-.111.457-.414.1.111Zm-2.037-2.543 2.044 2.44-.115.096-2.044-2.44.115-.097Zm-.759.781-.457.414-.1-.111.457-.414.1.111ZM12.78 4.88l-2.05-2.458.116-.097 2.05 2.46-.116.095Zm-.45.31.457-.414.101.112-.457.413-.1-.11Zm-1.942-2.45 2.05 2.458-.115.096-2.05-2.459.115-.096Z" fill="#272727"/><path fill-rule="evenodd" clip-rule="evenodd" d="m3.65 11.246.457-.414-2.12-2.476-.457.414 2.12 2.476Zm.754-.67.458-.414-2.044-2.44-.458.414 2.044 2.44Zm1.209-1.091-.458.413-2.05-2.458.458-.414 2.05 2.459Z" fill="#272727"/><path d="m4.107 10.832.057-.049.048.056-.055.049-.05-.056Zm-.457.414.05.056-.057.051-.05-.058.057-.05Zm-1.663-2.89-.05-.055.057-.052.05.058-.057.05Zm-.457.414-.057.049-.048-.056.054-.049.05.056Zm3.332 1.393.057-.049.047.056-.054.048-.05-.056Zm-.458.413.05.056-.057.052-.05-.06.057-.048ZM2.818 7.722l-.05-.055.057-.052.05.06-.057.047Zm-.458.414-.057.048-.047-.055.054-.048.05.055Zm2.795 1.762.05.056-.057.053-.05-.06.057-.049Zm.458-.413.057-.048.046.055-.053.048-.05-.055ZM3.105 7.44l-.057.048-.046-.055.053-.049.05.056Zm.458-.414-.05-.056.057-.052.05.06-.057.048Zm.594 3.862-.457.414-.1-.112.457-.413.1.11Zm-2.113-2.58 2.12 2.475-.114.098-2.12-2.476.114-.098Zm-.565.406.458-.413.1.11-.457.415-.1-.112Zm2.114 2.58L1.473 8.82l.114-.098 2.12 2.476-.114.098Zm1.319-1.076-.458.414-.1-.111.457-.414.101.111ZM2.875 7.674l2.044 2.44-.115.097L2.76 7.77l.115-.097Zm-.565.407.457-.414.1.111-.457.414-.1-.111Zm2.037 2.543-2.044-2.44.115-.096 2.044 2.44-.115.096Zm.758-.781.457-.414.101.111-.457.414-.101-.111ZM3.163 7.392l2.05 2.458-.115.096-2.05-2.458.115-.096Zm.45-.31-.457.413-.1-.11.457-.415.1.112Zm1.942 2.45-2.05-2.458.115-.096 2.05 2.459-.115.096Z" fill="#272727"/><path fill-rule="evenodd" clip-rule="evenodd" d="m12.293 11.246-.458-.414 2.12-2.476.458.414-2.12 2.476Zm-.755-.67-.457-.414 2.044-2.44.457.414-2.044 2.44ZM10.33 9.485l.458.413 2.05-2.458-.458-.414-2.05 2.459Z" fill="#272727"/><path d="m11.835 10.832-.057-.049-.047.056.054.049.05-.056Zm.458.414-.05.056.056.051.05-.058-.056-.05Zm1.662-2.89.05-.055-.057-.052-.05.058.057.05Zm.458.414.057.049.047-.056-.054-.049-.05.056Zm-3.332 1.393-.058-.049-.046.056.053.048.05-.056Zm.457.413-.05.056.058.052.05-.06-.058-.048Zm1.587-2.854.05-.055-.058-.052-.05.06.058.047Zm.457.414.058.048.046-.055-.053-.048-.05.055Zm-2.795 1.762-.05.056.058.053.05-.06-.058-.049Zm-.458-.413-.057-.048-.046.055.053.048.05-.055Zm2.508-2.045.057.048.047-.055-.054-.049-.05.056Zm-.458-.414.05-.056-.057-.052-.05.06.057.048Zm-.594 3.862.457.414.1-.112-.457-.413-.1.11Zm2.113-2.58-2.12 2.475.114.098 2.12-2.476-.114-.098Zm.565.406-.457-.413-.101.11.457.415.101-.112Zm-2.113 2.58 2.12-2.475-.114-.098-2.12 2.476.114.098Zm-1.32-1.076.458.414.1-.111-.457-.414-.1.111Zm2.037-2.544-2.044 2.44.115.097 2.044-2.44-.115-.097Zm.566.407-.458-.414-.1.111.457.414.1-.111Zm-2.037 2.543 2.044-2.44-.115-.096-2.044 2.44.115.096Zm-.759-.781-.457-.414-.1.111.457.414.1-.111Zm1.942-2.451L10.73 9.85l.116.096 2.05-2.458-.116-.096Zm-.45-.31.457.413.101-.11-.457-.415-.1.112Zm-1.942 2.45 2.05-2.458-.115-.096-2.05 2.459.115.096Z" fill="#272727"/></g></g><path fill="url(#KR - Korea (South)__KR - Korea (South)__KR - Korea (South)__KR - Korea (South)__e)" style="mix-blend-mode:overlay" d="M0 0h16v12H0z"/></g></svg>