<svg fill="none" xmlns="http://www.w3.org/2000/svg" viewBox="0 0 16 12"><g clip-path="url(#LR - Liberia__a)"><mask id="LR - Liberia__b" style="mask-type:alpha" maskUnits="userSpaceOnUse" x="0" y="0" width="16" height="12"><path fill="#fff" d="M0 0h16v12H0z"/></mask><g mask="url(#LR - Liberia__b)"><path fill-rule="evenodd" clip-rule="evenodd" d="M0 0h16v12H0V0Z" fill="#F7FCFF"/><path fill="#E31D1C" d="M.014 2.75h16v1.5h-16z"/><path fill-rule="evenodd" clip-rule="evenodd" d="M0 0h16v1.5H0V0Z" fill="#E31D1C"/><path fill="#E31D1C" d="M-.029 5.5h16V7h-16zm.085 2.7h16v1.5h-16zm-.005 2.55h16v1.5h-16z"/><path fill-rule="evenodd" clip-rule="evenodd" d="M0 0h8v7H0V0Z" fill="#3D58DB"/><path fill-rule="evenodd" clip-rule="evenodd" d="M4.066 4.607 2.606 5.62l.466-1.736L2 2.776l1.452-.06L4.066 1l.615 1.716H6.13L5.06 3.884l.536 1.633-1.53-.91Z" fill="#F7FCFF"/></g><path fill="url(#LR - Liberia__c)" style="mix-blend-mode:overlay" d="M0 0h16v12H0z"/></g><defs><linearGradient id="LR - Liberia__c" x1="8" y1="0" x2="8" y2="12" gradientUnits="userSpaceOnUse"><stop stop-color="#fff" stop-opacity=".7"/><stop offset="1" stop-opacity=".3"/></linearGradient><clipPath id="LR - Liberia__a"><rect width="16" height="12" rx="1" fill="#fff"/></clipPath></defs></svg>