<svg fill="none" xmlns="http://www.w3.org/2000/svg" viewBox="0 0 16 12"><g clip-path="url(#SM - San Marino__a)"><mask id="SM - San Marino__b" style="mask-type:alpha" maskUnits="userSpaceOnUse" x="0" y="0" width="16" height="12"><path fill="#fff" d="M0 0h16v12H0z"/></mask><g mask="url(#SM - San Marino__b)"><path fill-rule="evenodd" clip-rule="evenodd" d="M0 0v12h16V0H0Z" fill="#F7FCFF"/><mask id="SM - San Marino__c" style="mask-type:alpha" maskUnits="userSpaceOnUse" x="0" y="0" width="16" height="12"><path fill-rule="evenodd" clip-rule="evenodd" d="M0 0v12h16V0H0Z" fill="#fff"/></mask><g mask="url(#SM - San Marino__c)"><path fill-rule="evenodd" clip-rule="evenodd" d="M0 6v6h16V6H0Z" fill="#56C6F5"/><path fill-rule="evenodd" clip-rule="evenodd" d="M5.127 4.514a.28.28 0 0 0-.028-.107c-.128-.24-.087-.539-.087-.539s-.153.35-.243.681a1.099 1.099 0 0 1-.128-.308s-.06.969.126 1.199c.187.23.312.33.312.33s.014-.402-.04-.717c.038-.131.073-.275.085-.399.025-.018.09-.067.17-.133-.033.189-.035.291-.035.291s.705-.512.723-.783c.018-.271.212-.503.212-.503s-.16.11-.344.257c.049-.228.199-.407.199-.407s-.801.548-.867.837a3.274 3.274 0 0 0-.055.301Zm.034 1.665c-.076-.145-.41-.753-.644-.805-.265-.06-.464-.288-.464-.288s.417.877.692.987c.22.088.366.123.414.134-.008.118-.009.2-.009.2s.13-.095.329-.314c.199-.22.188-1.19.188-1.19s-.078.292-.29.462c-.142.114-.196.544-.216.814Zm-.625-.091c.302-.002.768.74.768.74s-.18.01-.496-.04c-.315-.05-.806-.895-.806-.895s.231.196.534.195ZM6.01 7.816s.18-.946-.09-1.166c-.27-.22-.317-.55-.317-.55s-.24 1.049 0 1.32c.24.272.407.396.407.396Zm-1.088-.255c.176.209.737 0 .737 0s.124.112-.321-.295c-.445-.406-1.35-.15-1.107-.15.244 0 .515.236.69.445Zm.416 1.11c.326.276 1.032-.38 1.032-.38s-.182-.22-.519-.383c-.336-.162-1.578 0-1.578 0l.553.246s-.615.24-.452.227c.163-.013.637.013.964.29Z" fill="#006923"/><path fill-rule="evenodd" clip-rule="evenodd" d="M9.607 8.098s-.281-.471 0-.7c.28-.227.391-.076.391-.338s.029-.184.167-.314.04-.446.225-.288c.184.158.219-.145.219.485v-.925c0-.353-.22-.27-.22-.506 0-.237-.218-.591 0-.591.22 0 .349.263.349.263s.215.367.215 0-.383-.258-.563-.663c-.18-.405-.152.045-.392-.476-.24-.522-.525-.688-.262-.688h.429c.225 0 .573-.187.573 0v.394c0 .294.215.294.215.294s.117-.587.264-.294c.147.294.047.77.155.77.107 0 .018-.492.254-.115.235.377 0 .633 0 .778 0 .146-.254.502-.254.502s.05.174.254 0c.204-.174.397-.349.397-.174 0 .174.398.228 0 .506-.397.279-.144.557-.397.557-.254 0-.553.368-.673.368s-.568.28-.344.28c.224 0 .454-.562.608-.28.155.28.153-.046.28.117.129.164.256 1.05.129.695-.128-.356-.329-.356-.673-.356-.344 0-1.013.025-.788.19.225.166.477-.165.573 0 .095.166.067.33.215.166.148-.166.293 0 .419 0s-.126.185 0 .343c.126.159.406.37.126.37s-.425-.224-.545 0c-.12.224-.125.614-.344.307-.22-.307-.61-.151-.61-.307 0-.155.085-.18-.154-.18-.238 0-.238-.19-.238-.19Z" fill="#093"/><path fill-rule="evenodd" clip-rule="evenodd" d="M10.758 4.725a.123.123 0 0 1-.12.125.123.123 0 0 1-.122-.125c0-.069.054-.125.121-.125s.121.056.121.125ZM5.17 5a.123.123 0 0 0 .121-.125.123.123 0 0 0-.12-.125.123.123 0 0 0-.122.125c0 .069.055.125.121.125Zm.121.525a.123.123 0 0 1-.12.125.123.123 0 0 1-.122-.125c0-.069.055-.125.121-.125.067 0 .121.056.121.125ZM5.363 6.8a.123.123 0 0 0 .12-.125.123.123 0 0 0-.12-.125.123.123 0 0 0-.121.125c0 .069.054.125.12.125Zm.968 1.25a.123.123 0 0 0 .12-.125.123.123 0 0 0-.12-.125.123.123 0 0 0-.121.125c0 .069.054.125.12.125Zm4.645-1.9a.123.123 0 0 0 .12-.125.123.123 0 0 0-.12-.125.123.123 0 0 0-.121.125c0 .069.054.125.12.125Zm-.266.875a.123.123 0 0 1-.121.125.123.123 0 0 1-.121-.125c0-.069.054-.125.12-.125.068 0 .122.056.122.125ZM9.573 8.25a.123.123 0 0 0 .12-.125.123.123 0 0 0-.12-.125.123.123 0 0 0-.121.125c0 .069.054.125.12.125ZM6.5 8.275a.123.123 0 0 1-.12.125.123.123 0 0 1-.122-.125c0-.069.054-.125.121-.125s.121.056.121.125Z" fill="#C51918"/><path fill-rule="evenodd" clip-rule="evenodd" d="M9.019 9.91c0-.103-1.55-1.17-1.966-1.407C6.636 8.268 4.605 6.971 5.158 5h-.084S4.7 7.428 7.28 8.938c1.174.788 1.233.972 1.233.972s.506.102.506 0Z" fill="#FECA00"/><path fill-rule="evenodd" clip-rule="evenodd" d="M6.962 9.91c0-.103 1.55-1.17 1.966-1.407.417-.235 2.448-1.532 1.895-3.503h.084S11.28 7.428 8.7 8.938c-1.174.788-1.233.972-1.233.972s-.506.102-.506 0Z" fill="#FECA00"/><path fill-rule="evenodd" clip-rule="evenodd" d="M8.024 8.443c1.082 0 1.96-1.401 1.96-2.768 0-1.367-.878-2.075-1.96-2.075-1.082 0-1.96.708-1.96 2.075 0 1.367.878 2.768 1.96 2.768Z" fill="#56C6F5"/><path fill-rule="evenodd" clip-rule="evenodd" d="M7.157 4.77s.301-.267.15-.267a.708.708 0 0 1-.103-.012c-.16-.025-.367-.059-.367.278v.581h-.045a.05.05 0 0 0 0 .1h.039l-.03.564-.057.005a.054.054 0 0 0-.05.058l.004.042c.003.03.03.052.059.05l.036-.004c-.014.257-.025.482-.025.51 0 .067.46.04.46.04s-.015-.27-.03-.585l.03-.003a.054.054 0 0 0 .049-.058l-.004-.043a.054.054 0 0 0-.058-.049l-.025.003c-.01-.19-.018-.38-.025-.53h.06a.05.05 0 1 0 0-.1H7.16a5.224 5.224 0 0 1-.004-.159v-.422Z" fill="#fff"/><path fill-rule="evenodd" clip-rule="evenodd" d="M6.935 5.5h.162v.215h-.162V5.5Zm-.048.75h.269v.5h-.269v-.5Z" fill="#000"/><path fill-rule="evenodd" clip-rule="evenodd" d="M8.173 4.77s.302-.267.15-.267a.708.708 0 0 1-.103-.012c-.16-.025-.367-.059-.367.278v.581h-.045a.05.05 0 1 0 0 .1h.04c-.007.124-.02.344-.03.564l-.058.005a.054.054 0 0 0-.049.058l.004.042c.002.03.028.052.058.05l.036-.004c-.013.257-.025.482-.025.51 0 .067.46.04.46.04s-.015-.27-.03-.585l.03-.003a.054.054 0 0 0 .05-.058l-.005-.043a.054.054 0 0 0-.058-.049l-.025.003c-.01-.19-.018-.38-.025-.53h.06a.05.05 0 1 0 0-.1h-.064a5.224 5.224 0 0 1-.004-.159v-.422Zm.967 0s.302-.267.151-.267a.708.708 0 0 1-.103-.012c-.16-.025-.368-.059-.368.278v.581h-.044a.05.05 0 0 0 0 .1h.039l-.03.564-.057.005a.054.054 0 0 0-.05.058l.004.042c.003.03.029.052.059.05l.036-.004c-.014.257-.025.482-.025.51 0 .067.46.04.46.04s-.015-.27-.03-.585l.03-.003a.054.054 0 0 0 .049-.058l-.004-.043a.054.054 0 0 0-.058-.049l-.025.003c-.01-.19-.019-.38-.025-.53h.06a.05.05 0 1 0 0-.1h-.064a5.224 5.224 0 0 1-.005-.159v-.422Z" fill="#fff"/><path fill-rule="evenodd" clip-rule="evenodd" d="M8.92 5.5h.16v.215h-.16V5.5Zm-.049.75h.269v.5h-.27v-.5Z" fill="#000"/><path fill-rule="evenodd" clip-rule="evenodd" d="M9.258 3.2H6.694v.383l-.018.001s-1.256.977-.907 2.44C6.117 7.485 7.502 8.57 7.502 8.57l.07-.253s-1.32-1.794-1.32-2.512c0-.717.25-1.39.513-1.494.159-.063.186-.05.23-.03.028.013.063.03.149.03.214 0 .428-.154.428-.154s.15.154.288.154c.138 0 .14-.154.14-.154V3.65h.015v.508s.002.154.14.154c.14 0 .288-.154.288-.154s.214.154.429.154c.085 0 .12-.017.15-.03.042-.02.07-.033.228.03.264.104.513.777.513 1.494 0 .718-1.32 2.512-1.32 2.512l.07.253s1.385-1.085 1.734-2.548c.348-1.462-.908-2.439-.908-2.439l-.08-.007V3.2Z" fill="#E8AA00"/><path d="M6.694 3.2v-.25h-.25v.25h.25Zm2.564 0h.25v-.25h-.25v.25Zm-2.564.383.022.249.228-.02v-.23h-.25Zm-.018.001-.022-.249-.073.007-.058.045.153.197Zm-.907 2.44-.244.057.244-.058ZM7.502 8.57l-.154.196.295.232.1-.362-.24-.066Zm.07-.253.241.067.033-.117-.072-.098-.202.148Zm-.807-4.006-.092-.233.092.233Zm.23-.03-.107.226.106-.226Zm.577-.124.18-.174-.15-.154-.175.125.145.203Zm.428 0 .25.004v-.004H8Zm0-.508V3.4h-.25v.25H8Zm.015 0h.25V3.4h-.25v.25Zm0 .508h-.25v.004l.25-.004Zm.428 0 .146-.203-.175-.125-.15.154.18.174Zm.578.124.106.226-.106-.226Zm.23.03-.093.232.092-.232Zm-.808 4.006-.201-.148-.072.098.032.117.241-.067Zm.07.253-.241.066.1.362.295-.232-.154-.196Zm.826-4.987.153-.197-.058-.045-.073-.007-.022.25Zm-.08-.007h-.25v.229l.227.02.022-.249ZM6.693 3.45h2.564v-.5H6.694v.5Zm.25.133V3.2h-.5v.383h.5Zm-.245.25.017-.001-.045-.498-.017.001.045.498Zm-.687 2.132c-.154-.645.044-1.186.29-1.576a2.78 2.78 0 0 1 .528-.607l-.154-.198-.153-.197-.002.002-.004.003a1.352 1.352 0 0 0-.059.05 3.28 3.28 0 0 0-.578.68c-.293.463-.55 1.142-.355 1.96l.487-.117Zm1.49 2.606a60.782 60.782 0 0 1 .155-.197.205.205 0 0 1-.013-.01 4.75 4.75 0 0 1-.194-.17 6.14 6.14 0 0 1-.494-.511c-.378-.44-.783-1.041-.944-1.718l-.487.116c.188.787.65 1.46 1.052 1.927a6.64 6.64 0 0 0 .77.758l.001.001.154-.196Zm-.17-.32-.07.253.481.133.07-.252-.482-.133Zm-1.33-2.445c0 .239.105.528.23.8.129.282.3.583.467.856a15.993 15.993 0 0 0 .656.983l.012.015c0 .002.002.004.003.005v.001a78.486 78.486 0 0 0 .404-.296l-.001-.001-.003-.004-.01-.014a9.941 9.941 0 0 1-.188-.266 15.51 15.51 0 0 1-.447-.684 8.007 8.007 0 0 1-.44-.804c-.122-.266-.183-.47-.183-.59h-.5Zm.67-1.727a.7.7 0 0 0-.305.27c-.076.11-.14.248-.193.398a3.284 3.284 0 0 0-.172 1.06h.5c0-.332.058-.652.144-.895a1.23 1.23 0 0 1 .135-.283c.048-.071.078-.086.076-.085l-.184-.465Zm.428-.024c-.03-.014-.096-.045-.194-.039a.798.798 0 0 0-.233.063l.184.465a.833.833 0 0 1 .074-.026c.015-.004.016-.004.009-.003a.118.118 0 0 1-.044-.005.12.12 0 0 1-.013-.005l.005.003.212-.453Zm.044.007a.25.25 0 0 1-.028-.002H7.11l-.01-.005-.212.453c.017.008.05.024.099.036a.638.638 0 0 0 .157.018v-.5Zm.428.096a52.978 52.978 0 0 1-.145-.203.258.258 0 0 1-.022.014.814.814 0 0 1-.074.04.47.47 0 0 1-.187.053v.5a.959.959 0 0 0 .402-.101 1.316 1.316 0 0 0 .17-.099h.001l-.145-.204Zm.288-.096c.01 0 .009.002-.005-.004a.498.498 0 0 1-.104-.074 53.71 53.71 0 0 1-.358.349.087.087 0 0 0 .004.004.737.737 0 0 0 .034.032.997.997 0 0 0 .09.07.61.61 0 0 0 .339.123v-.5Zm.14.096-.25-.003v-.006a.102.102 0 0 1 0-.007l.005-.012a.117.117 0 0 1 .037-.044.12.12 0 0 1 .068-.024v.5a.382.382 0 0 0 .384-.34.454.454 0 0 0 .006-.059v-.001L8 4.158Zm-.25-.508v.508h.5V3.65h-.5Zm.265-.25H8v.5h.015v-.5Zm-.25.25v.508h.5V3.65h-.5Zm.25.508-.25.004v.004a.323.323 0 0 0 .006.057.455.455 0 0 0 .036.117.382.382 0 0 0 .349.221v-.5a.12.12 0 0 1 .067.025.117.117 0 0 1 .037.044l.005.012a.045.045 0 0 1 0 .007.084.084 0 0 1 0 .005v.001l-.25.003Zm.14.404a.61.61 0 0 0 .34-.122.999.999 0 0 0 .126-.106l.001-.001-.179-.175-.179-.174-.001.001a.422.422 0 0 1-.103.073c-.014.006-.014.004-.004.004v.5Zm.288-.404-.145.204.002.001.003.003a.764.764 0 0 0 .046.03c.03.017.07.041.12.065a.959.959 0 0 0 .403.1v-.5a.47.47 0 0 1-.187-.052.815.815 0 0 1-.097-.054l-.145.203Zm.429.404c.059 0 .11-.006.157-.018a.5.5 0 0 0 .098-.036l-.212-.453a.192.192 0 0 1-.01.005h.001H8.9a.25.25 0 0 1-.027.002v.5Zm.255-.054.006-.003a.12.12 0 0 1-.038.01h-.02c-.007 0-.006-.001.01.003a.833.833 0 0 1 .073.026l.185-.465a.798.798 0 0 0-.234-.063.367.367 0 0 0-.194.04l.212.452Zm.031.036c-.001 0 .028.014.077.085.045.066.092.162.135.283.085.243.143.563.143.894h.5c0-.385-.067-.76-.172-1.06a1.749 1.749 0 0 0-.193-.398.7.7 0 0 0-.305-.269l-.185.465Zm.355 1.262c0 .121-.06.325-.183.591a8.007 8.007 0 0 1-.44.804 15.51 15.51 0 0 1-.634.95l-.01.014-.004.004v.001a217.345 217.345 0 0 1 .403.296v-.001l.004-.005.011-.015a10.606 10.606 0 0 0 .195-.277 16 16 0 0 0 .461-.706 8.43 8.43 0 0 0 .468-.856c.125-.272.229-.561.229-.8h-.5Zm-1.31 2.579.069.252.482-.133-.07-.252-.482.133Zm.31.186.154.196.002-.001a.603.603 0 0 0 .017-.014 5.25 5.25 0 0 0 .218-.19c.141-.13.332-.318.535-.554.402-.468.864-1.14 1.05-1.927l-.485-.116c-.162.677-.567 1.278-.945 1.718a6.14 6.14 0 0 1-.7.69l.154.198Zm1.977-2.49c.195-.817-.061-1.496-.355-1.96a3.277 3.277 0 0 0-.636-.73l-.004-.002a.18.18 0 0 1-.002-.002l-.154.197a32.07 32.07 0 0 1-.152.198l.007.007.033.028a2.78 2.78 0 0 1 .485.572c.248.39.446.93.292 1.576l.486.116ZM9.36 3.335l-.08-.007-.045.498.08.007.045-.498ZM9.008 3.2v.377h.5V3.2h-.5Z" fill="#FFD018"/><path fill-rule="evenodd" clip-rule="evenodd" d="M6.552 6.892s.157-.422.432-.281c.275.14.25.63.501.456.25-.175.108-.456.48-.456.37 0 .315.456.538.456.222 0 .241-.456.49-.456.248 0 .5.281.5.281l-1.47 2.002-1.471-2.002Z" fill="#8FC753"/><path fill-rule="evenodd" clip-rule="evenodd" d="M7.947 1.015h.1v.107h.123v.1h-.123v.182a.297.297 0 0 1 .243.296c0 .166-.13.3-.29.3a.295.295 0 0 1-.29-.3c0-.147.102-.27.237-.295v-.183h-.113v-.1h.113v-.107Z" fill="#FFD018"/><path fill-rule="evenodd" clip-rule="evenodd" d="M6.873 2.583c-.14 0-.435.182-.435.182l.23.62 1.384-.063 1.384.064.23-.62s-.295-.183-.435-.183c-.062 0-.07-.044-.078-.093-.011-.064-.024-.135-.152-.135a.697.697 0 0 0-.207.033c-.079.022-.13.037-.202-.033l-.01-.01c-.117-.113-.24-.231-.439-.231-.04 0-.069.046-.09.12-.023-.074-.053-.12-.092-.12-.199 0-.321.118-.44.232l-.009.009c-.073.07-.123.055-.202.033a.691.691 0 0 0-.207-.033c-.128 0-.14.071-.152.135-.008.049-.016.093-.078.093Z" fill="#E31D1C"/><path fill-rule="evenodd" clip-rule="evenodd" d="M7.5 2s.333-.241.5-.241c.167 0 .5.241.5.241v2h-1V2Z" fill="#FFD018"/><path fill-rule="evenodd" clip-rule="evenodd" d="m7.804 1.784-.097.034c-.257.089-.48.118-.667.09-.387-.06-.891.141-.828.436.027.129.108.373.192.58.117.286.199.43.294.43l.186.01.013.001c.141.007.265.011.384.01.345-.001.558-.035.634-.138l.023-.03-.01-.037c-.091-.312-.133-.738-.126-1.28l.002-.106Zm-1.45.527c-.032-.144.363-.302.664-.255.188.029.4.007.638-.065 0 .482.038.873.119 1.174-.069.036-.25.06-.495.06a6.319 6.319 0 0 1-.375-.01l-.192-.01a2.412 2.412 0 0 1-.175-.34 4.336 4.336 0 0 1-.185-.554Zm1.873-.527.097.034c.257.089.48.118.667.09.387-.06.892.141.829.436a4.32 4.32 0 0 1-.193.58c-.117.286-.199.43-.294.43l-.185.01-.014.001c-.14.007-.265.011-.384.01-.344-.001-.558-.035-.634-.138l-.023-.03.011-.037c.09-.312.132-.738.125-1.28l-.002-.106Zm1.45.527c.032-.144-.363-.302-.664-.255-.188.029-.4.007-.638-.065.001.482-.038.873-.119 1.174.07.036.25.06.495.06.116.001.238-.003.376-.01l.191-.01a2.412 2.412 0 0 0 .175-.34 4.04 4.04 0 0 0 .185-.554Z" fill="#FFD018"/><path d="m3.979 10.16-.37-.929c1.53-.61 2.994-.917 4.391-.917 1.38 0 2.682.19 3.905.567l-.295.956A12.152 12.152 0 0 0 8 9.314c-1.264 0-2.604.281-4.021.846Z" fill="#fff"/><path d="m6.887 8.943.03-.249c.538.066.896.099 1.077.1.273.011.598-.008.974-.06l.035.247a5.68 5.68 0 0 1-1.014.062c-.19 0-.555-.033-1.102-.1Z" fill="#272727"/><path fill-rule="evenodd" clip-rule="evenodd" d="M5.162 4S3.77 5.255 4.045 6.483C4.357 8.352 6.23 9.004 6.23 9.004l.992-.351s-1.9-1.09-1.9-2.17C5.32 5.402 5.606 4 5.606 4h-.444Z" fill="#006923"/><path fill-rule="evenodd" clip-rule="evenodd" d="M11.06 4s1.39 1.255 1.116 2.483c-.312 1.869-2.184 2.521-2.184 2.521L9 8.653s1.9-1.09 1.9-2.17C10.9 5.402 10.616 4 10.616 4h.443Z" fill="#093"/></g></g><path fill="url(#SM - San Marino__d)" style="mix-blend-mode:overlay" d="M0 0h16v12H0z"/></g><defs><linearGradient id="SM - San Marino__d" x1="8" y1="0" x2="8" y2="12" gradientUnits="userSpaceOnUse"><stop stop-color="#fff" stop-opacity=".7"/><stop offset="1" stop-opacity=".3"/></linearGradient><clipPath id="SM - San Marino__a"><rect width="16" height="12" rx="1" fill="#fff"/></clipPath></defs></svg>