<svg fill="none" xmlns="http://www.w3.org/2000/svg" viewBox="0 0 16 12"><g clip-path="url(#SS - South Sudan__a)"><mask id="SS - South Sudan__b" style="mask-type:alpha" maskUnits="userSpaceOnUse" x="0" y="0" width="16" height="12"><rect width="16" height="12" rx="-1" fill="#fff"/></mask><g mask="url(#SS - South Sudan__b)"><path fill-rule="evenodd" clip-rule="evenodd" d="M0 0h16v12H0V0Z" fill="#F7FCFF"/><path fill-rule="evenodd" clip-rule="evenodd" d="M0 0v4h16V0H0Z" fill="#272727"/><path fill-rule="evenodd" clip-rule="evenodd" d="M0 8v4h16V8H0Z" fill="#4E8B1D"/><path d="M0 3.5h-.5v5h17v-5H0Z" fill="#E31D1C" stroke="#F7FCFF"/><path fill-rule="evenodd" clip-rule="evenodd" d="m0 0 10 6-10 6V0Z" fill="#3D58DB"/><path fill-rule="evenodd" clip-rule="evenodd" d="m3.324 7.204-1.01 1.05-.105-1.492L.92 5.968l1.343-.421.22-1.48.93 1.172 1.355-.363-.7 1.387.681 1.339-1.426-.398Z" fill="#FECA00"/></g><path fill="url(#SS - South Sudan__c)" style="mix-blend-mode:overlay" d="M0 0h16v12H0z"/></g><defs><linearGradient id="SS - South Sudan__c" x1="8" y1="0" x2="8" y2="12" gradientUnits="userSpaceOnUse"><stop stop-color="#fff" stop-opacity=".7"/><stop offset="1" stop-opacity=".3"/></linearGradient><clipPath id="SS - South Sudan__a"><rect width="16" height="12" rx="1" fill="#fff"/></clipPath></defs></svg>