<svg fill="none" xmlns="http://www.w3.org/2000/svg" viewBox="0 0 16 12"><g clip-path="url(#ST - Sao Tome and Principe__a)"><mask id="ST - Sao Tome and Principe__b" style="mask-type:alpha" maskUnits="userSpaceOnUse" x="0" y="0" width="16" height="12"><path fill="#fff" d="M0 0h16v12H0z"/></mask><g mask="url(#ST - Sao Tome and Principe__b)" fill-rule="evenodd" clip-rule="evenodd"><path d="M0 0v12h16V0H0Z" fill="#FBCD17"/><path d="M0 0v4h16V0H0Zm0 8v4h16V8H0Z" fill="#73BE4A"/><path d="M0 0v12l5-6-5-6Z" fill="#C51918"/><path d="m8.5 6.935-.934.565.213-1.102L7 5.573l1.055-.044L8.5 4.5l.446 1.029H10l-.777.87.234 1.101-.956-.565Zm4 0-.934.565.213-1.102L11 5.573l1.055-.044L12.5 4.5l.446 1.029H14l-.777.87.234 1.101-.956-.565Z" fill="#272727"/></g><path fill="url(#ST - Sao Tome and Principe__c)" style="mix-blend-mode:overlay" d="M0 0h16v12H0z"/></g><defs><linearGradient id="ST - Sao Tome and Principe__c" x1="8" y1="0" x2="8" y2="12" gradientUnits="userSpaceOnUse"><stop stop-color="#fff" stop-opacity=".7"/><stop offset="1" stop-opacity=".3"/></linearGradient><clipPath id="ST - Sao Tome and Principe__a"><rect width="16" height="12" rx="1" fill="#fff"/></clipPath></defs></svg>