<svg fill="none" xmlns="http://www.w3.org/2000/svg" viewBox="0 0 16 12"><g clip-path="url(#VC - Saint Vincent and the Grenadines__a)"><mask id="VC - Saint Vincent and the Grenadines__b" style="mask-type:alpha" maskUnits="userSpaceOnUse" x="0" y="0" width="16" height="12"><path fill="#fff" d="M0 0h16v12H0z"/></mask><g mask="url(#VC - Saint Vincent and the Grenadines__b)" fill-rule="evenodd" clip-rule="evenodd"><path d="M4 0h8v12H4V0Z" fill="#FFDC17"/><path d="M12 0h4v12h-4V0Z" fill="#5FBF2B"/><path d="M0 0h4v12H0V0Z" fill="#2E42A5"/><path d="m9.863 2.5-1.52 2.231 1.52 2.153 1.52-2.153L9.863 2.5Zm-3.724.04L4.5 4.73l1.52 2.114L7.54 4.73l-1.4-2.19Zm.283 4.654L8.06 5.002l1.402 2.192L8.06 9.451 6.422 7.194Z" fill="#5FBF2B"/></g><path fill="url(#VC - Saint Vincent and the Grenadines__c)" style="mix-blend-mode:overlay" d="M0 0h16v12H0z"/></g><defs><linearGradient id="VC - Saint Vincent and the Grenadines__c" x1="8" y1="0" x2="8" y2="12" gradientUnits="userSpaceOnUse"><stop stop-color="#fff" stop-opacity=".7"/><stop offset="1" stop-opacity=".3"/></linearGradient><clipPath id="VC - Saint Vincent and the Grenadines__a"><rect width="16" height="12" rx="1" fill="#fff"/></clipPath></defs></svg>