<svg width="16" height="16" viewBox="0 0 16 16" fill="none" xmlns="http://www.w3.org/2000/svg">
<path fill-rule="evenodd" clip-rule="evenodd" d="M8 3.5H10C10.2761 3.5 10.5 3.72386 10.5 4C10.5 4.27614 10.2761 4.5 10 4.5H8.5V7C8.5 7.18939 8.393 7.36252 8.22361 7.44721L7.11803 8L8.22361 8.55279C8.393 8.63748 8.5 8.81061 8.5 9V11.5H10C10.2761 11.5 10.5 11.7239 10.5 12C10.5 12.2761 10.2761 12.5 10 12.5H8C7.72386 12.5 7.5 12.2761 7.5 12V9.30902L5.77639 8.44721C5.607 8.36252 5.5 8.18939 5.5 8C5.5 7.81061 5.607 7.63748 5.77639 7.55279L7.5 6.69098V4C7.5 3.72386 7.72386 3.5 8 3.5Z" fill="#777B92"/>
<path fill-rule="evenodd" clip-rule="evenodd" d="M2 0.5H14C14.8284 0.5 15.5 1.17157 15.5 2V14C15.5 14.8284 14.8284 15.5 14 15.5H2C1.17157 15.5 0.5 14.8284 0.5 14V2C0.5 1.17157 1.17157 0.5 2 0.5ZM1.5 2V14C1.5 14.2761 1.72386 14.5 2 14.5H14C14.2761 14.5 14.5 14.2761 14.5 14V2C14.5 1.72386 14.2761 1.5 14 1.5H2C1.72386 1.5 1.5 1.72386 1.5 2Z" fill="#777B92"/>
</svg>
