<svg width="16" height="16" viewBox="0 0 16 16" fill="none" xmlns="http://www.w3.org/2000/svg">
<path fill-rule="evenodd" clip-rule="evenodd" d="M1.5 8C1.5 9.933 3.067 11.5 5 11.5H6C6.27614 11.5 6.5 11.7239 6.5 12C6.5 12.2761 6.27614 12.5 6 12.5H5C2.51472 12.5 0.5 10.4853 0.5 8C0.5 5.51472 2.51472 3.5 5 3.5H6C6.27614 3.5 6.5 3.72386 6.5 4C6.5 4.27614 6.27614 4.5 6 4.5H5C3.067 4.5 1.5 6.067 1.5 8Z" fill="#777B92"/>
<path fill-rule="evenodd" clip-rule="evenodd" d="M9.5 4C9.5 3.72386 9.72386 3.5 10 3.5H11C13.4853 3.5 15.5 5.51472 15.5 8C15.5 10.4853 13.4853 12.5 11 12.5H10C9.72386 12.5 9.5 12.2761 9.5 12C9.5 11.7239 9.72386 11.5 10 11.5H11C12.933 11.5 14.5 9.933 14.5 8C14.5 6.067 12.933 4.5 11 4.5H10C9.72386 4.5 9.5 4.27614 9.5 4Z" fill="#777B92"/>
<path fill-rule="evenodd" clip-rule="evenodd" d="M5.5 8C5.5 7.72386 5.72386 7.5 6 7.5H10C10.2761 7.5 10.5 7.72386 10.5 8C10.5 8.27614 10.2761 8.5 10 8.5H6C5.72386 8.5 5.5 8.27614 5.5 8Z" fill="#777B92"/>
</svg>
