<svg width="16" height="16" viewBox="0 0 16 16" fill="none" xmlns="http://www.w3.org/2000/svg">
<path fill-rule="evenodd" clip-rule="evenodd" d="M2 0.5H14C14.8284 0.5 15.5 1.17157 15.5 2V7C15.5 7.27614 15.2761 7.5 15 7.5C14.7239 7.5 14.5 7.27614 14.5 7V5.5H11.5V6C11.5 6.27614 11.2761 6.5 11 6.5C10.7239 6.5 10.5 6.27614 10.5 6V5.5H5.5V14.5H7C7.27614 14.5 7.5 14.7239 7.5 15C7.5 15.2761 7.27614 15.5 7 15.5H2C1.17157 15.5 0.5 14.8284 0.5 14V2C0.5 1.17157 1.17157 0.5 2 0.5ZM14.5 4.5V2C14.5 1.72386 14.2761 1.5 14 1.5H2C1.72386 1.5 1.5 1.72386 1.5 2V4.5H14.5ZM4.5 5.5H1.5V14C1.5 14.2761 1.72386 14.5 2 14.5H4.5V5.5Z" fill="#777B92"/>
<path fill-rule="evenodd" clip-rule="evenodd" d="M7.5 11C7.5 9.067 9.067 7.5 11 7.5C12.933 7.5 14.5 9.067 14.5 11C14.5 11.788 14.2396 12.5151 13.8002 13.1001C13.8188 13.1141 13.8366 13.1295 13.8536 13.1464L15.3536 14.6464C15.5488 14.8417 15.5488 15.1583 15.3536 15.3536C15.1583 15.5488 14.8417 15.5488 14.6464 15.3536L13.1464 13.8536C13.1295 13.8366 13.1141 13.8188 13.1001 13.8002C12.5151 14.2396 11.788 14.5 11 14.5C9.067 14.5 7.5 12.933 7.5 11ZM11 8.5C9.61929 8.5 8.5 9.61929 8.5 11C8.5 12.3807 9.61929 13.5 11 13.5C12.3807 13.5 13.5 12.3807 13.5 11C13.5 9.61929 12.3807 8.5 11 8.5Z" fill="#777B92"/>
</svg>
