<svg width="16" height="16" viewBox="0 0 16 16" fill="none" xmlns="http://www.w3.org/2000/svg">
<path fill-rule="evenodd" clip-rule="evenodd" d="M10.1375 0.519245C10.403 0.595107 10.5568 0.87185 10.4809 1.13737L6.48089 15.1374C6.40503 15.4029 6.12829 15.5566 5.86277 15.4808C5.59725 15.4049 5.4435 15.1282 5.51937 14.8626L9.51937 0.862646C9.59523 0.597129 9.87197 0.443383 10.1375 0.519245Z" fill="#777B92"/>
<path fill-rule="evenodd" clip-rule="evenodd" d="M3.22361 3.55277C3.4706 3.67627 3.57071 3.9766 3.44721 4.22359L1.55902 7.99999L3.44721 11.7764C3.57071 12.0234 3.4706 12.3237 3.22361 12.4472C2.97662 12.5707 2.67628 12.4706 2.55279 12.2236L0.552786 8.22359C0.482405 8.08283 0.482405 7.91714 0.552786 7.77638L2.55279 3.77638C2.67628 3.52939 2.97662 3.42928 3.22361 3.55277Z" fill="#777B92"/>
<path fill-rule="evenodd" clip-rule="evenodd" d="M13.4473 3.77638L15.4473 7.77638C15.5177 7.91714 15.5177 8.08283 15.4473 8.22359L13.4473 12.2236C13.3238 12.4706 13.0235 12.5707 12.7765 12.4472C12.5295 12.3237 12.4294 12.0234 12.5529 11.7764L14.4411 7.99999L12.5529 4.22359C12.4294 3.9766 12.5295 3.67627 12.7765 3.55277C13.0235 3.42928 13.3238 3.52939 13.4473 3.77638Z" fill="#777B92"/>
</svg>
