<svg width="16" height="16" viewBox="0 0 16 16" fill="none" xmlns="http://www.w3.org/2000/svg">
<path fill-rule="evenodd" clip-rule="evenodd" d="M2 4C1.44772 4 1 3.55228 1 3C1 2.44772 1.44772 2 2 2C2.55228 2 3 2.44772 3 3C3 3.55228 2.55228 4 2 4Z" fill="#777B92"/>
<path fill-rule="evenodd" clip-rule="evenodd" d="M5 2.5H15C15.2761 2.5 15.5 2.72386 15.5 3C15.5 3.27614 15.2761 3.5 15 3.5H5C4.72386 3.5 4.5 3.27614 4.5 3C4.5 2.72386 4.72386 2.5 5 2.5Z" fill="#777B92"/>
<path fill-rule="evenodd" clip-rule="evenodd" d="M5 7.5H15C15.2761 7.5 15.5 7.72386 15.5 8C15.5 8.27614 15.2761 8.5 15 8.5H5C4.72386 8.5 4.5 8.27614 4.5 8C4.5 7.72386 4.72386 7.5 5 7.5Z" fill="#777B92"/>
<path fill-rule="evenodd" clip-rule="evenodd" d="M4.5 13C4.5 12.7239 4.72386 12.5 5 12.5H15C15.2761 12.5 15.5 12.7239 15.5 13C15.5 13.2761 15.2761 13.5 15 13.5H5C4.72386 13.5 4.5 13.2761 4.5 13Z" fill="#777B92"/>
<path fill-rule="evenodd" clip-rule="evenodd" d="M3 8C3 8.55228 2.55228 9 2 9C1.44772 9 1 8.55228 1 8C1 7.44772 1.44772 7 2 7C2.55228 7 3 7.44772 3 8Z" fill="#777B92"/>
<path fill-rule="evenodd" clip-rule="evenodd" d="M2 14C1.44772 14 1 13.5523 1 13C1 12.4477 1.44772 12 2 12C2.55228 12 3 12.4477 3 13C3 13.5523 2.55228 14 2 14Z" fill="#777B92"/>
</svg>
