<svg width="16" height="16" viewBox="0 0 16 16" fill="none" xmlns="http://www.w3.org/2000/svg">
<path fill-rule="evenodd" clip-rule="evenodd" d="M1.5 2V13C1.5 13.2761 1.27614 13.5 1 13.5C0.723858 13.5 0.5 13.2761 0.5 13L0.5 2C0.5 1.17157 1.17157 0.5 2 0.5L13 0.5C13.2761 0.5 13.5 0.723857 13.5 1C13.5 1.27614 13.2761 1.5 13 1.5L2 1.5C1.72386 1.5 1.5 1.72386 1.5 2Z" fill="#777B92"/>
<path fill-rule="evenodd" clip-rule="evenodd" d="M5 15C4.44772 15 4 14.5523 4 14C4 13.4477 4.44772 13 5 13C5.55229 13 6 13.4477 6 14C6 14.5523 5.55229 15 5 15Z" fill="#777B92"/>
<path fill-rule="evenodd" clip-rule="evenodd" d="M8 15C7.44772 15 7 14.5523 7 14C7 13.4477 7.44772 13 8 13C8.55228 13 9 13.4477 9 14C9 14.5523 8.55228 15 8 15Z" fill="#777B92"/>
<path fill-rule="evenodd" clip-rule="evenodd" d="M12 14C12 14.5523 11.5523 15 11 15C10.4477 15 10 14.5523 10 14C10 13.4477 10.4477 13 11 13C11.5523 13 12 13.4477 12 14Z" fill="#777B92"/>
<path fill-rule="evenodd" clip-rule="evenodd" d="M15 5C15 5.55229 14.5523 6 14 6C13.4477 6 13 5.55228 13 5C13 4.44772 13.4477 4 14 4C14.5523 4 15 4.44772 15 5Z" fill="#777B92"/>
<path fill-rule="evenodd" clip-rule="evenodd" d="M14 9C13.4477 9 13 8.55229 13 8C13 7.44772 13.4477 7 14 7C14.5523 7 15 7.44772 15 8C15 8.55229 14.5523 9 14 9Z" fill="#777B92"/>
<path fill-rule="evenodd" clip-rule="evenodd" d="M15 11C15 11.5523 14.5523 12 14 12C13.4477 12 13 11.5523 13 11C13 10.4477 13.4477 10 14 10C14.5523 10 15 10.4477 15 11Z" fill="#777B92"/>
<path fill-rule="evenodd" clip-rule="evenodd" d="M14 15C13.4477 15 13 14.5523 13 14C13 13.4477 13.4477 13 14 13C14.5523 13 15 13.4477 15 14C15 14.5523 14.5523 15 14 15Z" fill="#777B92"/>
</svg>
