<svg width="16" height="16" viewBox="0 0 16 16" fill="none" xmlns="http://www.w3.org/2000/svg">
<path fill-rule="evenodd" clip-rule="evenodd" d="M1 1.5H2C2.27614 1.5 2.5 1.72386 2.5 2V6C2.5 6.27614 2.27614 6.5 2 6.5C1.72386 6.5 1.5 6.27614 1.5 6V2.5H1C0.723858 2.5 0.5 2.27614 0.5 2C0.5 1.72386 0.723858 1.5 1 1.5Z" fill="#777B92"/>
<path fill-rule="evenodd" clip-rule="evenodd" d="M1.00001 9.5H3.00001C3.27616 9.5 3.50001 9.72386 3.50001 10C3.50001 11.1503 2.93264 12.2524 2.41604 13.0274C2.30211 13.1982 2.18832 13.3566 2.07992 13.5H3.00001C3.27616 13.5 3.50001 13.7239 3.50001 14C3.50001 14.2761 3.27616 14.5 3.00001 14.5H1.00001C0.797783 14.5 0.615465 14.3782 0.538075 14.1913C0.460742 14.0046 0.503399 13.7898 0.646143 13.6468L0.649381 13.6435L0.663174 13.6293C0.675834 13.6163 0.695238 13.596 0.720424 13.569C0.770828 13.515 0.844202 13.4343 0.932886 13.3309C1.1107 13.1234 1.34771 12.8271 1.58399 12.4727C1.9733 11.8887 2.32968 11.1927 2.45366 10.5H1.00001C0.723872 10.5 0.500015 10.2761 0.500015 10C0.500015 9.72386 0.723872 9.5 1.00001 9.5Z" fill="#777B92"/>
<path fill-rule="evenodd" clip-rule="evenodd" d="M4.5 4C4.5 3.72386 4.72386 3.5 5 3.5H15C15.2761 3.5 15.5 3.72386 15.5 4C15.5 4.27614 15.2761 4.5 15 4.5H5C4.72386 4.5 4.5 4.27614 4.5 4Z" fill="#777B92"/>
<path fill-rule="evenodd" clip-rule="evenodd" d="M5 11.5H15C15.2761 11.5 15.5 11.7239 15.5 12C15.5 12.2761 15.2761 12.5 15 12.5H5C4.72386 12.5 4.5 12.2761 4.5 12C4.5 11.7239 4.72386 11.5 5 11.5Z" fill="#777B92"/>
</svg>
