<svg width="16" height="16" viewBox="0 0 16 16" fill="none" xmlns="http://www.w3.org/2000/svg">
<path fill-rule="evenodd" clip-rule="evenodd" d="M12.5001 2C12.5001 2.27614 12.2763 2.5 12.0001 2.5C11.724 2.5 11.5001 2.27614 11.5001 2C11.5001 1.17157 12.1717 0.5 13.0001 0.5C13.8285 0.5 14.5001 1.17157 14.5001 2C14.5001 2.94751 13.8854 3.81921 13.3738 4.39468C13.342 4.43054 13.3101 4.46566 13.2784 4.5H14.0001C14.2763 4.5 14.5001 4.72386 14.5001 5C14.5001 5.27614 14.2763 5.5 14.0001 5.5H12.0001C11.7849 5.5 11.5938 5.36228 11.5258 5.15811C11.4578 4.95407 11.5282 4.72917 11.7001 4.6C11.7002 4.59994 11.7001 4.6 12.0001 5L11.7001 4.6L11.7028 4.59797L11.7163 4.58758C11.7288 4.57792 11.7479 4.5629 11.7729 4.54286C11.8228 4.50276 11.8955 4.4428 11.9834 4.3659C12.1599 4.21148 12.3939 3.99189 12.6264 3.73032C13.1149 3.18079 13.5001 2.55249 13.5001 2C13.5001 1.72386 13.2763 1.5 13.0001 1.5C12.724 1.5 12.5001 1.72386 12.5001 2Z" fill="#777B92"/>
<path fill-rule="evenodd" clip-rule="evenodd" d="M7.45531 3.7931L12.4553 14.7931C12.5696 15.0445 12.4584 15.3409 12.207 15.4552C11.9556 15.5695 11.6592 15.4583 11.5449 15.2069L10.2766 12.4166C10.1974 12.4693 10.1024 12.5 10.0001 12.5H4.00012C3.89788 12.5 3.8028 12.4693 3.7236 12.4166L2.45531 15.2069C2.34104 15.4583 2.04461 15.5695 1.79322 15.4552C1.54183 15.3409 1.43067 15.0445 1.54494 14.7931L6.54494 3.7931C6.62607 3.6146 6.80405 3.5 7.00012 3.5C7.19619 3.5 7.37417 3.6146 7.45531 3.7931ZM9.85998 11.5L7.00012 5.2083L4.14026 11.5H9.85998Z" fill="#777B92"/>
</svg>
