<svg width="16" height="16" viewBox="0 0 16 16" fill="none" xmlns="http://www.w3.org/2000/svg">
<path fill-rule="evenodd" clip-rule="evenodd" d="M0.5 2C0.5 1.72386 0.723858 1.5 1 1.5H15C15.2761 1.5 15.5 1.72386 15.5 2C15.5 2.27614 15.2761 2.5 15 2.5H1C0.723858 2.5 0.5 2.27614 0.5 2Z" fill="#777B92"/>
<path fill-rule="evenodd" clip-rule="evenodd" d="M3.35355 5.64645C3.54882 5.84171 3.54882 6.15829 3.35355 6.35355L2.20711 7.5H6C6.27614 7.5 6.5 7.72386 6.5 8C6.5 8.27614 6.27614 8.5 6 8.5H2.20711L3.35355 9.64645C3.54882 9.84171 3.54882 10.1583 3.35355 10.3536C3.15829 10.5488 2.84171 10.5488 2.64645 10.3536L0.646447 8.35355C0.552678 8.25979 0.5 8.13261 0.5 8C0.5 7.86739 0.552678 7.74022 0.646447 7.64645L2.64645 5.64645C2.84171 5.45118 3.15829 5.45118 3.35355 5.64645Z" fill="#777B92"/>
<path fill-rule="evenodd" clip-rule="evenodd" d="M1 13.5H15C15.2761 13.5 15.5 13.7239 15.5 14C15.5 14.2761 15.2761 14.5 15 14.5H1C0.723858 14.5 0.5 14.2761 0.5 14C0.5 13.7239 0.723858 13.5 1 13.5Z" fill="#777B92"/>
<path fill-rule="evenodd" clip-rule="evenodd" d="M8.5 10C8.5 9.72386 8.72386 9.5 9 9.5H15C15.2761 9.5 15.5 9.72386 15.5 10C15.5 10.2761 15.2761 10.5 15 10.5H9C8.72386 10.5 8.5 10.2761 8.5 10Z" fill="#777B92"/>
<path fill-rule="evenodd" clip-rule="evenodd" d="M9 5.5H15C15.2761 5.5 15.5 5.72386 15.5 6C15.5 6.27614 15.2761 6.5 15 6.5H9C8.72386 6.5 8.5 6.27614 8.5 6C8.5 5.72386 8.72386 5.5 9 5.5Z" fill="#777B92"/>
</svg>
