<svg width="16" height="16" viewBox="0 0 16 16" fill="none" xmlns="http://www.w3.org/2000/svg">
<path fill-rule="evenodd" clip-rule="evenodd" d="M0.5 2C0.5 1.72386 0.723858 1.5 1 1.5H15C15.2761 1.5 15.5 1.72386 15.5 2C15.5 2.27614 15.2761 2.5 15 2.5H1C0.723858 2.5 0.5 2.27614 0.5 2Z" fill="#777B92"/>
<path fill-rule="evenodd" clip-rule="evenodd" d="M4.01324 5.6159C4.22538 5.43912 4.54066 5.46778 4.71744 5.67992L6.38411 7.67992C6.53863 7.86534 6.53863 8.13468 6.38411 8.32011L4.71744 10.3201C4.54066 10.5322 4.22538 10.5609 4.01324 10.3841C3.8011 10.2073 3.77244 9.89206 3.94922 9.67992L4.93248 8.50001H1C0.723858 8.50001 0.5 8.27616 0.5 8.00001C0.5 7.72387 0.723858 7.50001 1 7.50001H4.93248L3.94922 6.3201C3.77244 6.10797 3.8011 5.79268 4.01324 5.6159Z" fill="#777B92"/>
<path fill-rule="evenodd" clip-rule="evenodd" d="M1 13.5H15C15.2761 13.5 15.5 13.7239 15.5 14C15.5 14.2761 15.2761 14.5 15 14.5H1C0.723858 14.5 0.5 14.2761 0.5 14C0.5 13.7239 0.723858 13.5 1 13.5Z" fill="#777B92"/>
<path fill-rule="evenodd" clip-rule="evenodd" d="M8.5 10C8.5 9.72386 8.72386 9.5 9 9.5H15C15.2761 9.5 15.5 9.72386 15.5 10C15.5 10.2761 15.2761 10.5 15 10.5H9C8.72386 10.5 8.5 10.2761 8.5 10Z" fill="#777B92"/>
<path fill-rule="evenodd" clip-rule="evenodd" d="M9 5.5H15C15.2761 5.5 15.5 5.72386 15.5 6C15.5 6.27614 15.2761 6.5 15 6.5H9C8.72386 6.5 8.5 6.27614 8.5 6C8.5 5.72386 8.72386 5.5 9 5.5Z" fill="#777B92"/>
</svg>
