<svg width="16" height="16" viewBox="0 0 16 16" fill="none" xmlns="http://www.w3.org/2000/svg">
<path fill-rule="evenodd" clip-rule="evenodd" d="M8.35356 2.35407L7.3536 3.35431C7.15837 3.5496 6.84179 3.54964 6.6465 3.35441C6.45121 3.15918 6.45116 2.84259 6.6464 2.6473L7.6464 1.64702C8.51139 0.782014 9.77576 0.375535 11 0.375488C12.2242 0.375441 13.4885 0.78177 14.3535 1.64645C15.2184 2.51168 15.625 3.77619 15.625 5.00052C15.625 6.22484 15.2185 7.4892 14.3536 8.35432L13.3536 9.35436C13.1583 9.54962 12.8417 9.54962 12.6464 9.35436C12.4512 9.15909 12.4512 8.84251 12.6464 8.64725L13.6464 7.64729C14.2814 7.01211 14.625 6.02634 14.625 5.00052C14.625 3.97468 14.2815 2.98886 13.6464 2.35356C13.0114 1.71886 12.0257 1.37545 11 1.37549C9.97426 1.37553 8.98857 1.71908 8.35356 2.35407Z" fill="#777B92"/>
<path fill-rule="evenodd" clip-rule="evenodd" d="M10.3536 5.64645C10.5488 5.84171 10.5488 6.15829 10.3536 6.35355L6.35355 10.3536C6.15829 10.5488 5.84171 10.5488 5.64645 10.3536C5.45118 10.1583 5.45118 9.84171 5.64645 9.64645L9.64645 5.64645C9.84171 5.45118 10.1583 5.45118 10.3536 5.64645Z" fill="#777B92"/>
<path fill-rule="evenodd" clip-rule="evenodd" d="M3.35345 7.35415L2.35353 8.35415C1.71851 8.98915 1.37498 9.97484 1.375 11.0006C1.37502 12.0264 1.71857 13.0121 2.35354 13.6471C2.9885 14.2821 3.97413 14.6256 4.99988 14.6256C6.02562 14.6256 7.0113 14.2821 7.64631 13.6471L8.64632 12.6471C8.84159 12.4518 9.15817 12.4518 9.35343 12.6471C9.54869 12.8423 9.54869 13.1589 9.35343 13.3542L8.35342 14.3542C7.48843 15.2191 6.22411 15.6256 4.99988 15.6256C3.77566 15.6256 2.51135 15.2192 1.64641 14.3542C0.78149 13.4892 0.375021 12.2249 0.375 11.0006C0.374979 9.77639 0.781399 8.51206 1.64639 7.64707L2.64631 6.64707C2.84156 6.4518 3.15815 6.45179 3.35342 6.64704C3.54869 6.8423 3.5487 7.15888 3.35345 7.35415Z" fill="#777B92"/>
</svg>
