<svg width="16" height="16" viewBox="0 0 16 16" fill="none" xmlns="http://www.w3.org/2000/svg">
<path fill-rule="evenodd" clip-rule="evenodd" d="M8.35356 2.35358L7.3536 3.35382C7.15837 3.54911 6.84179 3.54916 6.6465 3.35392C6.45121 3.15869 6.45116 2.8421 6.6464 2.64681L7.6464 1.64653C8.51139 0.781525 9.77576 0.375047 11 0.375C12.2242 0.374953 13.4885 0.781282 14.3535 1.64596C15.2184 2.51119 15.625 3.77571 15.625 5.00003C15.625 6.22435 15.2185 7.48871 14.3536 8.35384L13.3536 9.35387C13.1583 9.54913 12.8417 9.54913 12.6464 9.35387C12.4512 9.15861 12.4512 8.84202 12.6464 8.64676L13.6464 7.6468C14.2814 7.01162 14.625 6.02585 14.625 5.00003C14.625 3.9742 14.2815 2.98837 13.6464 2.35307C13.0114 1.71837 12.0257 1.37496 11 1.375C9.97426 1.37504 8.98857 1.7186 8.35356 2.35358Z" fill="#777B92"/>
<path fill-rule="evenodd" clip-rule="evenodd" d="M5.5 8C5.5 7.72386 5.72386 7.5 6 7.5H10C10.2761 7.5 10.5 7.72386 10.5 8C10.5 8.27614 10.2761 8.5 10 8.5H6C5.72386 8.5 5.5 8.27614 5.5 8Z" fill="#777B92"/>
<path fill-rule="evenodd" clip-rule="evenodd" d="M3.35345 7.35354L2.35353 8.35354C1.71851 8.98854 1.37498 9.97423 1.375 11C1.37502 12.0258 1.71857 13.0114 2.35354 13.6465C2.9885 14.2815 3.97413 14.625 4.99988 14.625C6.02562 14.625 7.0113 14.2815 7.64631 13.6464L8.64632 12.6464C8.84159 12.4512 9.15817 12.4512 9.35343 12.6464C9.54869 12.8417 9.54869 13.1583 9.35343 13.3536L8.35342 14.3536C7.48843 15.2185 6.22411 15.625 4.99988 15.625C3.77566 15.625 2.51135 15.2185 1.64641 14.3535C0.78149 13.4886 0.375021 12.2242 0.375 11C0.374979 9.77578 0.781399 8.51145 1.64639 7.64646L2.64631 6.64646C2.84156 6.45119 3.15815 6.45118 3.35342 6.64643C3.54869 6.84169 3.5487 7.15827 3.35345 7.35354Z" fill="#777B92"/>
</svg>
