<svg width="16" height="16" viewBox="0 0 16 16" fill="none" xmlns="http://www.w3.org/2000/svg">
<path fill-rule="evenodd" clip-rule="evenodd" d="M8.00011 0.5C8.1895 0.5 8.36263 0.607001 8.44732 0.776393L12.446 8.7737C12.447 8.77569 12.448 8.77769 12.449 8.77969L13.4473 10.7764C13.5708 11.0234 13.4707 11.3237 13.2237 11.4472C12.9767 11.5707 12.6764 11.4706 12.5529 11.2236L11.6911 9.5L4.30913 9.5L3.44732 11.2236C3.32383 11.4706 3.02349 11.5707 2.7765 11.4472C2.52951 11.3237 2.4294 11.0234 2.5529 10.7764L3.54627 8.78964C3.55032 8.78093 3.55461 8.77236 3.55913 8.76393L7.5529 0.776393C7.63759 0.607001 7.81072 0.5 8.00011 0.5ZM4.80913 8.5L11.1911 8.5L8.00011 2.11803L4.80913 8.5Z" fill="#777B92"/>
<path fill-rule="evenodd" clip-rule="evenodd" d="M1.5 15C1.5 14.7239 1.72386 14.5 2 14.5H14C14.2761 14.5 14.5 14.7239 14.5 15C14.5 15.2761 14.2761 15.5 14 15.5H2C1.72386 15.5 1.5 15.2761 1.5 15Z" fill="#777B92"/>
</svg>
