<svg width="16" height="16" viewBox="0 0 16 16" fill="none" xmlns="http://www.w3.org/2000/svg">
<path fill-rule="evenodd" clip-rule="evenodd" d="M10.9394 1.35352C11.5251 0.767738 12.4749 0.767738 13.0607 1.35352L14.6465 2.93931C15.2322 3.5251 15.2322 4.47484 14.6465 5.06063L12.3562 7.35091L12.3536 7.35355L12.3509 7.35618L7.54942 12.1577C7.35718 12.3499 7.11631 12.4863 6.85256 12.5522L3.12128 13.485C2.95089 13.5276 2.77065 13.4777 2.64646 13.3535C2.52227 13.2293 2.47234 13.0491 2.51494 12.8787L3.44776 9.14742C3.5137 8.88367 3.65008 8.6428 3.84231 8.45056L10.9394 1.35352ZM12.3536 2.06063C12.1583 1.86537 11.8417 1.86537 11.6465 2.06063L9.7071 3.99999L12 6.29288L13.9394 4.35352C14.1346 4.15826 14.1346 3.84168 13.9394 3.64642L12.3536 2.06063ZM6.84231 11.4506L11.2929 6.99999L8.99999 4.7071L4.54942 9.15767C4.48534 9.22175 4.43988 9.30204 4.4179 9.38995L3.68719 12.3128L6.61003 11.5821C6.69795 11.5601 6.77823 11.5146 6.84231 11.4506Z" fill="#777B92"/>
<path fill-rule="evenodd" clip-rule="evenodd" d="M1 14.5H15C15.2761 14.5 15.5 14.7239 15.5 15C15.5 15.2761 15.2761 15.5 15 15.5H1C0.723858 15.5 0.5 15.2761 0.5 15C0.5 14.7239 0.723858 14.5 1 14.5Z" fill="#777B92"/>
</svg>
