<svg width="16" height="16" viewBox="0 0 16 16" fill="none" xmlns="http://www.w3.org/2000/svg">
<path fill-rule="evenodd" clip-rule="evenodd" d="M2 0.5H14C14.8284 0.5 15.5 1.17157 15.5 2V5.5C15.5 5.77614 15.2761 6 15 6C14.7239 6 14.5 5.77614 14.5 5.5V4.5H1.5V14C1.5 14.2761 1.72386 14.5 2 14.5H3.625C3.90114 14.5 4.125 14.7239 4.125 15C4.125 15.2761 3.90114 15.5 3.625 15.5H2C1.17157 15.5 0.5 14.8284 0.5 14V2C0.5 1.17157 1.17157 0.5 2 0.5ZM14.5 3.5V2C14.5 1.72386 14.2761 1.5 14 1.5H2C1.72386 1.5 1.5 1.72386 1.5 2V3.5H14.5Z" fill="#777B92"/>
<path fill-rule="evenodd" clip-rule="evenodd" d="M5 7C5 7.55228 4.55228 8 4 8C3.44772 8 3 7.55228 3 7C3 6.44772 3.44772 6 4 6C4.55228 6 5 6.44772 5 7Z" fill="#777B92"/>
<path fill-rule="evenodd" clip-rule="evenodd" d="M8 8C7.44772 8 7 7.55228 7 7C7 6.44772 7.44772 6 8 6C8.55228 6 9 6.44772 9 7C9 7.55228 8.55228 8 8 8Z" fill="#777B92"/>
<path fill-rule="evenodd" clip-rule="evenodd" d="M5 11C5 11.5523 4.55228 12 4 12C3.44772 12 3 11.5523 3 11C3 10.4477 3.44772 10 4 10C4.55228 10 5 10.4477 5 11Z" fill="#777B92"/>
<path fill-rule="evenodd" clip-rule="evenodd" d="M9.22283 10.584C9.4526 10.4308 9.76304 10.4929 9.9162 10.7227C10.0694 10.9524 10.0073 11.2629 9.7775 11.416L8.27739 12.416C8.10944 12.528 7.89065 12.528 7.7227 12.416L6.2227 11.416C5.99294 11.2628 5.93085 10.9524 6.08403 10.7226C6.2372 10.4929 6.54764 10.4308 6.7774 10.584L7.52181 11.0802C7.73161 9.0684 9.43267 7.5 11.5001 7.5C13.7092 7.5 15.5001 9.29086 15.5001 11.5C15.5001 13.7091 13.7092 15.5 11.5001 15.5C11.2239 15.5 11.0001 15.2761 11.0001 15C11.0001 14.7239 11.2239 14.5 11.5001 14.5C13.1569 14.5 14.5001 13.1569 14.5001 11.5C14.5001 9.84315 13.1569 8.5 11.5001 8.5C9.99868 8.5 8.7549 9.60289 8.53469 11.0427L9.22283 10.584Z" fill="#777B92"/>
</svg>
