<svg width="16" height="16" viewBox="0 0 16 16" fill="none" xmlns="http://www.w3.org/2000/svg">
<path fill-rule="evenodd" clip-rule="evenodd" d="M0.5 3C0.5 2.17157 1.17157 1.5 2 1.5H12C12.8284 1.5 13.5 2.17157 13.5 3V8C13.5 8.27614 13.2761 8.5 13 8.5C12.7239 8.5 12.5 8.27614 12.5 8V5.5H1.5V11C1.5 11.2761 1.72386 11.5 2 11.5H9C9.27614 11.5 9.5 11.7239 9.5 12C9.5 12.2761 9.27614 12.5 9 12.5H2C1.17157 12.5 0.5 11.8284 0.5 11V3ZM1.5 4.5H12.5V3C12.5 2.72386 12.2761 2.5 12 2.5H2C1.72386 2.5 1.5 2.72386 1.5 3V4.5Z" fill="#777B92"/>
<path fill-rule="evenodd" clip-rule="evenodd" d="M13.5 10V11.5H15C15.2761 11.5 15.5 11.7239 15.5 12C15.5 12.2761 15.2761 12.5 15 12.5H13.5V14C13.5 14.2761 13.2761 14.5 13 14.5C12.7239 14.5 12.5 14.2761 12.5 14V12.5H11C10.7239 12.5 10.5 12.2761 10.5 12C10.5 11.7239 10.7239 11.5 11 11.5H12.5V10C12.5 9.72386 12.7239 9.5 13 9.5C13.2761 9.5 13.5 9.72386 13.5 10Z" fill="#777B92"/>
<path fill-rule="evenodd" clip-rule="evenodd" d="M3.5 9C3.5 8.72386 3.72386 8.5 4 8.5H7C7.27614 8.5 7.5 8.72386 7.5 9C7.5 9.27614 7.27614 9.5 7 9.5H4C3.72386 9.5 3.5 9.27614 3.5 9Z" fill="#777B92"/>
<path fill-rule="evenodd" clip-rule="evenodd" d="M10 8.5H11C11.2761 8.5 11.5 8.72386 11.5 9C11.5 9.27614 11.2761 9.5 11 9.5H10C9.72386 9.5 9.5 9.27614 9.5 9C9.5 8.72386 9.72386 8.5 10 8.5Z" fill="#777B92"/>
</svg>
