<svg width="16" height="16" viewBox="0 0 16 16" fill="none" xmlns="http://www.w3.org/2000/svg">
<g clip-path="url(#clip0_13649_20412)">
<path fill-rule="evenodd" clip-rule="evenodd" d="M3.35355 0.646447C3.54882 0.841709 3.54882 1.15829 3.35355 1.35355L2.20711 2.5L14 2.5C14.8284 2.5 15.5 3.17157 15.5 4V6C15.5 6.27614 15.2761 6.5 15 6.5C14.7239 6.5 14.5 6.27614 14.5 6V4C14.5 3.72386 14.2761 3.5 14 3.5H2.20711L3.35355 4.64645C3.54882 4.84171 3.54882 5.15829 3.35355 5.35355C3.15829 5.54882 2.84171 5.54882 2.64645 5.35355L0.646447 3.35355C0.552679 3.25979 0.5 3.13261 0.5 3C0.5 2.86739 0.552679 2.74021 0.646447 2.64645L2.64645 0.646447C2.84171 0.451184 3.15829 0.451184 3.35355 0.646447Z" fill="#777B92"/>
<path fill-rule="evenodd" clip-rule="evenodd" d="M15.3536 12.6464C15.5488 12.8417 15.5488 13.1583 15.3536 13.3536L13.3536 15.3536C13.1583 15.5488 12.8417 15.5488 12.6464 15.3536C12.4512 15.1583 12.4512 14.8417 12.6464 14.6464L13.7929 13.5H2C1.17157 13.5 0.500001 12.8284 0.500001 12L0.500001 10C0.500001 9.72386 0.723858 9.5 1 9.5C1.27614 9.5 1.5 9.72386 1.5 10L1.5 12C1.5 12.2761 1.72386 12.5 2 12.5H13.7929L12.6464 11.3536C12.4512 11.1583 12.4512 10.8417 12.6464 10.6464C12.8417 10.4512 13.1583 10.4512 13.3536 10.6464L15.3536 12.6464Z" fill="#777B92"/>
<path fill-rule="evenodd" clip-rule="evenodd" d="M8 12C7.44772 12 7 11.5523 7 11C7 10.4477 7.44772 10 8 10C8.55228 10 9 10.4477 9 11C9 11.5523 8.55229 12 8 12Z" fill="#777B92"/>
<path fill-rule="evenodd" clip-rule="evenodd" d="M9 8C9 8.55228 8.55229 9 8 9C7.44772 9 7 8.55228 7 8C7 7.44771 7.44772 7 8 7C8.55229 7 9 7.44771 9 8Z" fill="#777B92"/>
<path fill-rule="evenodd" clip-rule="evenodd" d="M11 9C10.4477 9 10 8.55228 10 8C10 7.44772 10.4477 7 11 7C11.5523 7 12 7.44771 12 8C12 8.55228 11.5523 9 11 9Z" fill="#777B92"/>
<path fill-rule="evenodd" clip-rule="evenodd" d="M6 8C6 8.55228 5.55229 9 5 9C4.44772 9 4 8.55228 4 8C4 7.44772 4.44772 7 5 7C5.55229 7 6 7.44771 6 8Z" fill="#777B92"/>
<path fill-rule="evenodd" clip-rule="evenodd" d="M8 6C7.44772 6 7 5.55228 7 5C7 4.44772 7.44772 4 8 4C8.55229 4 9 4.44772 9 5C9 5.55228 8.55229 6 8 6Z" fill="#777B92"/>
</g>
<defs>
<clipPath id="clip0_13649_20412">
<rect width="16" height="16" fill="white"/>
</clipPath>
</defs>
</svg>
