<svg width="16" height="16" viewBox="0 0 16 16" fill="none" xmlns="http://www.w3.org/2000/svg">
<path fill-rule="evenodd" clip-rule="evenodd" d="M8 0.5C8.27614 0.5 8.5 0.723858 8.5 1V1.52123C9.50747 1.6073 10.4249 1.951 11.1284 2.47868C11.947 3.09261 12.5 3.97891 12.5 5C12.5 5.27614 12.2761 5.5 12 5.5C11.7239 5.5 11.5 5.27614 11.5 5C11.5 4.36424 11.1576 3.75054 10.5284 3.27868C10.0055 2.88648 9.30096 2.6084 8.5 2.5256V7.52123C9.50747 7.6073 10.4249 7.951 11.1284 8.47868C11.947 9.09261 12.5 9.97891 12.5 11C12.5 12.0211 11.947 12.9074 11.1284 13.5213C10.4249 14.049 9.50747 14.3927 8.5 14.4788V15C8.5 15.2761 8.27614 15.5 8 15.5C7.72386 15.5 7.5 15.2761 7.5 15V14.4788C6.49253 14.3927 5.57515 14.049 4.87157 13.5213C4.053 12.9074 3.5 12.0211 3.5 11C3.5 10.7239 3.72386 10.5 4 10.5C4.27614 10.5 4.5 10.7239 4.5 11C4.5 11.6358 4.84243 12.2495 5.47157 12.7213C5.99451 13.1135 6.69904 13.3916 7.5 13.4744V8.47877C6.49253 8.3927 5.57515 8.049 4.87157 7.52132C4.053 6.90739 3.5 6.02109 3.5 5C3.5 3.97891 4.053 3.09261 4.87157 2.47868C5.57515 1.951 6.49253 1.6073 7.5 1.52123V1C7.5 0.723858 7.72386 0.5 8 0.5ZM8.5 13.4744C9.30096 13.3916 10.0055 13.1135 10.5284 12.7213C11.1576 12.2495 11.5 11.6358 11.5 11C11.5 10.3642 11.1576 9.75054 10.5284 9.27868C10.0055 8.88648 9.30096 8.6084 8.5 8.5256V13.4744ZM5.47157 3.27868C4.84243 3.75054 4.5 4.36424 4.5 5C4.5 5.63576 4.84243 6.24946 5.47157 6.72132C5.99451 7.11352 6.69904 7.3916 7.5 7.4744V2.5256C6.69904 2.6084 5.99451 2.88648 5.47157 3.27868Z" fill="#777B92"/>
</svg>
