<svg width="16" height="16" viewBox="0 0 16 16" fill="none" xmlns="http://www.w3.org/2000/svg">
<path fill-rule="evenodd" clip-rule="evenodd" d="M5.5 1V1.5H7.5V1C7.5 0.723858 7.72386 0.5 8 0.5C8.27614 0.5 8.5 0.723858 8.5 1V1.5C10.1569 1.5 11.5 2.84315 11.5 4.5C11.5 5.49109 11.0194 6.36992 10.2786 6.91617C11.5952 7.57086 12.5 8.92977 12.5 10.5C12.5 12.7091 10.7091 14.5 8.5 14.5V15C8.5 15.2761 8.27614 15.5 8 15.5C7.72386 15.5 7.5 15.2761 7.5 15V14.5H5.5V15C5.5 15.2761 5.27614 15.5 5 15.5C4.72386 15.5 4.5 15.2761 4.5 15V14.5H4C3.72386 14.5 3.5 14.2761 3.5 14V2C3.5 1.72386 3.72386 1.5 4 1.5H4.5V1C4.5 0.723858 4.72386 0.5 5 0.5C5.27614 0.5 5.5 0.723858 5.5 1ZM8.5 2.5H4.5V6.5H8.5C9.60457 6.5 10.5 5.60457 10.5 4.5C10.5 3.39543 9.60457 2.5 8.5 2.5ZM8.5 7.5H4.5V13.5H8.5C10.1569 13.5 11.5 12.1569 11.5 10.5C11.5 8.84315 10.1569 7.5 8.5 7.5Z" fill="#777B92"/>
</svg>
