<svg width="16" height="16" viewBox="0 0 16 16" fill="none" xmlns="http://www.w3.org/2000/svg">
<g clip-path="url(#clip0_13649_20322)">
<path fill-rule="evenodd" clip-rule="evenodd" d="M2 0.500001L14 0.5C14.8282 0.5 15.5 1.17107 15.5 1.99969V5.82353C15.5 6.09967 15.2761 6.32353 15 6.32353C14.7239 6.32353 14.5 6.09967 14.5 5.82353V1.99969C14.5 1.72375 14.2763 1.5 14 1.5L2 1.5C1.72386 1.5 1.5 1.72386 1.5 2V12C1.5 12.2761 1.72386 12.5 2 12.5H13.7929L12.6464 11.3536C12.4512 11.1583 12.4512 10.8417 12.6464 10.6464C12.8417 10.4512 13.1583 10.4512 13.3536 10.6464L15.3536 12.6464C15.5488 12.8417 15.5488 13.1583 15.3536 13.3536L13.3536 15.3536C13.1583 15.5488 12.8417 15.5488 12.6464 15.3536C12.4512 15.1583 12.4512 14.8417 12.6464 14.6464L13.7929 13.5H2C1.17157 13.5 0.500001 12.8284 0.500001 12L0.5 2C0.5 1.17157 1.17157 0.500001 2 0.500001Z" fill="#777B92"/>
<path fill-rule="evenodd" clip-rule="evenodd" d="M9 4C9 4.55229 8.55229 5 8 5C7.44772 5 7 4.55229 7 4C7 3.44772 7.44772 3 8 3C8.55229 3 9 3.44772 9 4Z" fill="#777B92"/>
<path fill-rule="evenodd" clip-rule="evenodd" d="M5 8C4.44772 8 4 7.55229 4 7C4 6.44772 4.44772 6 5 6C5.55229 6 6 6.44772 6 7C6 7.55229 5.55229 8 5 8Z" fill="#777B92"/>
<path fill-rule="evenodd" clip-rule="evenodd" d="M8 8C7.44772 8 7 7.55229 7 7C7 6.44772 7.44772 6 8 6C8.55229 6 9 6.44772 9 7C9 7.55229 8.55229 8 8 8Z" fill="#777B92"/>
<path fill-rule="evenodd" clip-rule="evenodd" d="M8 11C7.44772 11 7 10.5523 7 10C7 9.44772 7.44772 9 8 9C8.55228 9 9 9.44772 9 10C9 10.5523 8.55229 11 8 11Z" fill="#777B92"/>
<path fill-rule="evenodd" clip-rule="evenodd" d="M12 7C12 7.55229 11.5523 8 11 8C10.4477 8 10 7.55229 10 7C10 6.44772 10.4477 6 11 6C11.5523 6 12 6.44772 12 7Z" fill="#777B92"/>
</g>
<defs>
<clipPath id="clip0_13649_20322">
<rect width="16" height="16" fill="white"/>
</clipPath>
</defs>
</svg>
