<svg width="16" height="16" viewBox="0 0 16 16" fill="none" xmlns="http://www.w3.org/2000/svg">
<path fill-rule="evenodd" clip-rule="evenodd" d="M5.5 3V6.93249L10.6799 2.6159C10.8289 2.49169 11.0364 2.46492 11.2121 2.54721C11.3878 2.6295 11.5 2.806 11.5 3.00001V13C11.5 13.194 11.3878 13.3705 11.2121 13.4528C11.0364 13.5351 10.8289 13.5083 10.6799 13.3841L5.5 9.06753V13C5.5 13.2761 5.27614 13.5 5 13.5C4.72386 13.5 4.5 13.2761 4.5 13V3C4.5 2.72386 4.72386 2.5 5 2.5C5.27614 2.5 5.5 2.72386 5.5 3ZM10.5 11.9325V4.06753L5.78102 8.00001L10.5 11.9325Z" fill="#777B92"/>
</svg>
