<svg width="16" height="16" viewBox="0 0 16 16" fill="none" xmlns="http://www.w3.org/2000/svg">
<path fill-rule="evenodd" clip-rule="evenodd" d="M4 5.5C2.61929 5.5 1.5 6.61929 1.5 8C1.5 9.38071 2.61929 10.5 4 10.5C5.69302 10.5 6.5537 9.26806 7.58397 7.72265L7.632 7.65059C8.59152 6.21034 9.73099 4.5 12 4.5C13.933 4.5 15.5 6.067 15.5 8C15.5 9.933 13.933 11.5 12 11.5C11.1039 11.5 10.2854 11.1626 9.66655 10.6087C9.46078 10.4245 9.44327 10.1084 9.62744 9.90265C9.8116 9.69689 10.1277 9.67938 10.3335 9.86354C10.7761 10.2597 11.3594 10.5 12 10.5C13.3807 10.5 14.5 9.38071 14.5 8C14.5 6.61929 13.3807 5.5 12 5.5C10.307 5.5 9.4463 6.73194 8.41603 8.27735L8.368 8.34941C7.40848 9.78966 6.26901 11.5 4 11.5C2.067 11.5 0.5 9.933 0.5 8C0.5 6.067 2.067 4.5 4 4.5C4.89609 4.5 5.71457 4.83741 6.33346 5.39133C6.53922 5.57549 6.55673 5.89159 6.37257 6.09735C6.1884 6.30311 5.87231 6.32062 5.66654 6.13646C5.22391 5.7403 4.64062 5.5 4 5.5Z" fill="#777B92"/>
</svg>
