<svg width="24" height="24" viewBox="0 0 24 24" fill="none" xmlns="http://www.w3.org/2000/svg">
<path fill-rule="evenodd" clip-rule="evenodd" d="M17 3C17 1.89543 17.8954 1 19 1H21C22.1046 1 23 1.89543 23 3V5C23 6.10457 22.1046 7 21 7H20.7209L18.3758 14.0352C19.3007 14.2111 20 15.0239 20 16V18C20 19.1046 19.1046 20 18 20H16C14.8954 20 14 19.1046 14 18V16C14 15.8208 14.0236 15.6472 14.0677 15.482L8.51804 9.93226C8.35282 9.97644 8.17916 10 8 10H7.72085L5.37577 17.0352C6.30071 17.2111 7 18.0239 7 19V21C7 22.1046 6.10457 23 5 23H3C1.89543 23 1 22.1046 1 21V19C1 17.8954 1.89543 17 3 17H3.27933L5.6244 9.96479C4.69938 9.78902 4 8.97619 4 8V6C4 4.89543 4.89543 4 6 4H8C9.10457 4 10 4.89543 10 6V8C10 8.17916 9.97644 8.35282 9.93226 8.51804L15.482 14.0677C15.6472 14.0236 15.8208 14 16 14H16.2793L18.6244 6.96479C17.6994 6.78902 17 5.97619 17 5V3ZM17.0329 16C17.0112 16.0007 16.9893 16.0007 16.9673 16H16V18H18V16H17.0329ZM21 5V3H19V5H21ZM3.96732 19H3V21H5V19H4.03296C4.01116 19.0007 3.98927 19.0007 3.96732 19ZM8 8V6H6V8H8Z" fill="#777B92"/>
</svg>
