<svg width="24" height="24" viewBox="0 0 24 24" fill="none" xmlns="http://www.w3.org/2000/svg">
<path fill-rule="evenodd" clip-rule="evenodd" d="M12 13C10.3431 13 9 14.3431 9 16C9 16.5301 8.58751 16.9639 8.06599 16.9979C8.04839 16.999 8.03066 16.9997 8.01282 16.9999L7.99989 17H3.99989C2.92855 17 1.92662 16.1066 2.06068 14.8919C2.6127 9.89004 6.85144 6 12 6C12 6 12 6 12 6C17.1485 6.00005 21.3871 9.89008 21.9391 14.8919C22.0732 16.1066 21.0712 17 19.9999 17H15.9999C15.4476 17 14.9999 16.5523 14.9999 16L15 15.9872C14.9931 14.3362 13.6526 13 12 13ZM4.06168 15H7.10002C7.4977 13.0409 9.04087 11.4977 11 11.1V8.06189C7.38131 8.51317 4.51235 11.3817 4.06168 15ZM13 8.06192V11.1C14.9591 11.4977 16.5023 13.0409 16.9 15H19.9381C19.4874 11.3817 16.6186 8.51329 13 8.06192Z" fill="#777B92"/>
</svg>
