<svg width="24" height="24" viewBox="0 0 24 24" fill="none" xmlns="http://www.w3.org/2000/svg">
<path fill-rule="evenodd" clip-rule="evenodd" d="M12 2C17.5228 2 22 6.47715 22 12C22 17.5228 17.5228 22 12 22C6.47715 22 2 17.5228 2 12C2 6.47715 6.47715 2 12 2ZM13 4.06189V9.86496L17.3598 6.23178C17.3931 6.204 17.4277 6.17876 17.4634 6.15603C16.2627 5.03308 14.7157 4.27583 13 4.06189ZM18.734 7.67927C18.705 7.71049 18.6738 7.74023 18.6402 7.76822L13.8148 11.7894L19.5485 14.6562C19.8409 13.8251 20 12.9311 20 12C20 10.4084 19.5352 8.92541 18.734 7.67927ZM18.6528 16.4445L12 13.118L5.34715 16.4444C6.78229 18.5884 9.2263 20 12 20C14.7737 20 17.2177 18.5884 18.6528 16.4445ZM4.45152 14.6562L11 11.382V4.0619C7.05368 4.55401 4 7.92039 4 12C4 12.9311 4.15907 13.8251 4.45152 14.6562Z" fill="#777B92"/>
</svg>
