<svg width="24" height="24" viewBox="0 0 24 24" fill="none" xmlns="http://www.w3.org/2000/svg">
<path fill-rule="evenodd" clip-rule="evenodd" d="M17 13V16C17 16.5523 16.5523 17 16 17C15.4477 17 15 16.5523 15 16V13C15 12.4477 15.4477 12 16 12C16.5523 12 17 12.4477 17 13Z" fill="#777B92"/>
<path fill-rule="evenodd" clip-rule="evenodd" d="M12 7C12.5523 7 13 7.44772 13 8V16C13 16.5523 12.5523 17 12 17C11.4477 17 11 16.5523 11 16V8C11 7.44772 11.4477 7 12 7Z" fill="#777B92"/>
<path fill-rule="evenodd" clip-rule="evenodd" d="M9 11L9 16C9 16.5523 8.55229 17 8 17C7.44772 17 7 16.5523 7 16L7 11C7 10.4477 7.44772 10 8 10C8.55228 10 9 10.4477 9 11Z" fill="#777B92"/>
<path fill-rule="evenodd" clip-rule="evenodd" d="M4 2C2.89543 2 2 2.89543 2 4V20C2 21.1046 2.89543 22 4 22H20C21.1046 22 22 21.1046 22 20V4C22 2.89543 21.1046 2 20 2H4ZM4 4L20 4V20H4V4Z" fill="#777B92"/>
</svg>
