<svg width="16" height="16" viewBox="0 0 16 16" fill="none" xmlns="http://www.w3.org/2000/svg">
<path fill-rule="evenodd" clip-rule="evenodd" d="M8.35355 0.646447L10.8536 3.14645C11.0488 3.34171 11.0488 3.65829 10.8536 3.85355L8.35355 6.35355C8.15829 6.54882 7.84171 6.54882 7.64645 6.35355L5.14645 3.85355C4.95118 3.65829 4.95118 3.34171 5.14645 3.14645L7.64645 0.646447C7.84171 0.451184 8.15829 0.451184 8.35355 0.646447ZM8 5.29289L9.79289 3.5L8 1.70711L6.20711 3.5L8 5.29289Z" fill="#777B92"/>
<path fill-rule="evenodd" clip-rule="evenodd" d="M10.8536 12.1464C11.0488 12.3417 11.0488 12.6583 10.8536 12.8536L8.35355 15.3536C8.15829 15.5488 7.84171 15.5488 7.64645 15.3536L5.14645 12.8536C4.95118 12.6583 4.95118 12.3417 5.14645 12.1464L7.64645 9.64645C7.84171 9.45118 8.15829 9.45118 8.35355 9.64645L10.8536 12.1464ZM8 14.2929L9.79289 12.5L8 10.7071L6.20711 12.5L8 14.2929Z" fill="#777B92"/>
<path fill-rule="evenodd" clip-rule="evenodd" d="M12.1464 5.14645C12.3417 4.95118 12.6583 4.95118 12.8536 5.14645L15.3536 7.64645C15.5488 7.84171 15.5488 8.15829 15.3536 8.35355L12.8536 10.8536C12.6583 11.0488 12.3417 11.0488 12.1464 10.8536L9.64645 8.35355C9.45118 8.15829 9.45118 7.84171 9.64645 7.64645L12.1464 5.14645ZM10.7071 8L12.5 9.79289L14.2929 8L12.5 6.20711L10.7071 8Z" fill="#777B92"/>
<path fill-rule="evenodd" clip-rule="evenodd" d="M3.85355 5.14645L6.35355 7.64645C6.54882 7.84171 6.54882 8.15829 6.35355 8.35355L3.85355 10.8536C3.65829 11.0488 3.34171 11.0488 3.14645 10.8536L0.646447 8.35355C0.451184 8.15829 0.451184 7.84171 0.646447 7.64645L3.14645 5.14645C3.34171 4.95118 3.65829 4.95118 3.85355 5.14645ZM3.5 9.79289L5.29289 8L3.5 6.20711L1.70711 8L3.5 9.79289Z" fill="#777B92"/>
</svg>
