<svg width="16" height="16" viewBox="0 0 16 16" fill="none" xmlns="http://www.w3.org/2000/svg">
<path fill-rule="evenodd" clip-rule="evenodd" d="M4 0.5C4.27614 0.5 4.5 0.723858 4.5 1V15C4.5 15.2761 4.27614 15.5 4 15.5C3.72386 15.5 3.5 15.2761 3.5 15V1C3.5 0.723858 3.72386 0.5 4 0.5Z" fill="#777B92"/>
<path fill-rule="evenodd" clip-rule="evenodd" d="M12 0.5C12.2761 0.5 12.5 0.723858 12.5 1V15C12.5 15.2761 12.2761 15.5 12 15.5C11.7239 15.5 11.5 15.2761 11.5 15V1C11.5 0.723858 11.7239 0.5 12 0.5Z" fill="#777B92"/>
<path fill-rule="evenodd" clip-rule="evenodd" d="M8.35355 0.646447L10.3536 2.64645C10.5488 2.84171 10.5488 3.15829 10.3536 3.35355C10.1583 3.54882 9.84171 3.54882 9.64645 3.35355L8.5 2.20711V15C8.5 15.2761 8.27614 15.5 8 15.5C7.72386 15.5 7.5 15.2761 7.5 15V2.20711L6.35355 3.35355C6.15829 3.54882 5.84171 3.54882 5.64645 3.35355C5.45118 3.15829 5.45118 2.84171 5.64645 2.64645L7.64645 0.646447C7.84171 0.451184 8.15829 0.451184 8.35355 0.646447Z" fill="#777B92"/>
</svg>
