<svg width="16" height="16" viewBox="0 0 16 16" fill="none" xmlns="http://www.w3.org/2000/svg">
<path fill-rule="evenodd" clip-rule="evenodd" d="M1.5 2C1.5 1.17157 2.17157 0.5 3 0.5H13C13.8284 0.5 14.5 1.17157 14.5 2V5C14.5 5.27614 14.2761 5.5 14 5.5C13.7239 5.5 13.5 5.27614 13.5 5V2C13.5 1.72386 13.2761 1.5 13 1.5H3C2.72386 1.5 2.5 1.72386 2.5 2V10C2.5 10.2767 2.72355 10.5 2.99911 10.5H7C7.27614 10.5 7.5 10.7239 7.5 11C7.5 11.2761 7.27614 11.5 7 11.5H2.99911C2.17011 11.5 1.5 10.8279 1.5 10V2Z" fill="#777B92"/>
<path fill-rule="evenodd" clip-rule="evenodd" d="M9.5 9C9.5 8.17157 10.1716 7.5 11 7.5H14C14.8284 7.5 15.5 8.17157 15.5 9V14C15.5 14.8284 14.8284 15.5 14 15.5H11C10.1716 15.5 9.5 14.8284 9.5 14V9ZM11 8.5C10.7239 8.5 10.5 8.72386 10.5 9V14C10.5 14.2761 10.7239 14.5 11 14.5H14C14.2761 14.5 14.5 14.2761 14.5 14V9C14.5 8.72386 14.2761 8.5 14 8.5H11Z" fill="#777B92"/>
<path fill-rule="evenodd" clip-rule="evenodd" d="M1 14.5H7C7.27614 14.5 7.5 14.7239 7.5 15C7.5 15.2761 7.27614 15.5 7 15.5H1C0.723858 15.5 0.5 15.2761 0.5 15C0.5 14.7239 0.723858 14.5 1 14.5Z" fill="#777B92"/>
</svg>
