<svg width="16" height="16" viewBox="0 0 16 16" fill="none" xmlns="http://www.w3.org/2000/svg">
<path fill-rule="evenodd" clip-rule="evenodd" d="M4 0.5H13C13.8284 0.5 14.5 1.17157 14.5 2V5C14.5 5.27614 14.2761 5.5 14 5.5C13.7239 5.5 13.5 5.27614 13.5 5V2C13.5 1.72386 13.2761 1.5 13 1.5H4C3.72386 1.5 3.5 1.27614 3.5 1C3.5 0.723858 3.72386 0.5 4 0.5Z" fill="#777B92"/>
<path fill-rule="evenodd" clip-rule="evenodd" d="M2.5 5V10C2.5 10.2767 2.72355 10.5 2.99911 10.5H7C7.27614 10.5 7.5 10.7239 7.5 11C7.5 11.2761 7.27614 11.5 7 11.5H2.99911C2.17011 11.5 1.5 10.8279 1.5 10V5C1.5 4.72386 1.72386 4.5 2 4.5C2.27614 4.5 2.5 4.72386 2.5 5Z" fill="#777B92"/>
<path fill-rule="evenodd" clip-rule="evenodd" d="M11 7.5H14C14.8284 7.5 15.5 8.17157 15.5 9V12C15.5 12.2761 15.2761 12.5 15 12.5C14.7239 12.5 14.5 12.2761 14.5 12V9C14.5 8.72386 14.2761 8.5 14 8.5H11C10.7239 8.5 10.5 8.27614 10.5 8C10.5 7.72386 10.7239 7.5 11 7.5Z" fill="#777B92"/>
<path fill-rule="evenodd" clip-rule="evenodd" d="M10.5 13V14C10.5 14.2761 10.7239 14.5 11 14.5H12C12.2761 14.5 12.5 14.7239 12.5 15C12.5 15.2761 12.2761 15.5 12 15.5H11C10.1716 15.5 9.5 14.8284 9.5 14V13C9.5 12.7239 9.72386 12.5 10 12.5C10.2761 12.5 10.5 12.7239 10.5 13Z" fill="#777B92"/>
<path fill-rule="evenodd" clip-rule="evenodd" d="M0.5 15C0.5 14.7239 0.723858 14.5 1 14.5H7C7.27614 14.5 7.5 14.7239 7.5 15C7.5 15.2761 7.27614 15.5 7 15.5H1C0.723858 15.5 0.5 15.2761 0.5 15Z" fill="#777B92"/>
<path fill-rule="evenodd" clip-rule="evenodd" d="M1.35355 0.646447L15.3536 14.6464C15.5488 14.8417 15.5488 15.1583 15.3536 15.3536C15.1583 15.5488 14.8417 15.5488 14.6464 15.3536L0.646447 1.35355C0.451184 1.15829 0.451184 0.841709 0.646447 0.646447C0.841709 0.451184 1.15829 0.451184 1.35355 0.646447Z" fill="#777B92"/>
</svg>
