<svg width="16" height="16" viewBox="0 0 16 16" fill="none" xmlns="http://www.w3.org/2000/svg">
<path fill-rule="evenodd" clip-rule="evenodd" d="M10 12.5C10 12.7761 9.77614 13 9.5 13C9.22386 13 9 12.7761 9 12.5C9 12.2239 9.22386 12 9.5 12C9.77614 12 10 12.2239 10 12.5Z" fill="#777B92"/>
<path fill-rule="evenodd" clip-rule="evenodd" d="M6.5 13C6.22386 13 6 12.7761 6 12.5C6 12.2239 6.22386 12 6.5 12C6.77614 12 7 12.2239 7 12.5C7 12.7761 6.77614 13 6.5 13Z" fill="#777B92"/>
<path fill-rule="evenodd" clip-rule="evenodd" d="M6 0.5C6.27614 0.5 6.5 0.723858 6.5 1V3.5H11C11.8284 3.5 12.5 4.17157 12.5 5V14C12.5 14.8284 11.8284 15.5 11 15.5H5C4.17157 15.5 3.5 14.8284 3.5 14V5C3.5 4.17157 4.17157 3.5 5 3.5H5.5V1C5.5 0.723858 5.72386 0.5 6 0.5ZM4.5 10.5V14C4.5 14.2761 4.72386 14.5 5 14.5H11C11.2761 14.5 11.5 14.2761 11.5 14V10.5L4.5 10.5ZM11.5 9.5V5C11.5 4.72386 11.2761 4.5 11 4.5H5C4.72386 4.5 4.5 4.72386 4.5 5V9.5L11.5 9.5Z" fill="#777B92"/>
</svg>
