<svg width="16" height="16" viewBox="0 0 16 16" fill="none" xmlns="http://www.w3.org/2000/svg">
<path fill-rule="evenodd" clip-rule="evenodd" d="M4 11.5H5C5.27614 11.5 5.5 11.7239 5.5 12C5.5 12.2761 5.27614 12.5 5 12.5H4C3.72386 12.5 3.5 12.2761 3.5 12C3.5 11.7239 3.72386 11.5 4 11.5Z" fill="#777B92"/>
<path fill-rule="evenodd" clip-rule="evenodd" d="M8 11.5H12C12.2761 11.5 12.5 11.7239 12.5 12C12.5 12.2761 12.2761 12.5 12 12.5H8C7.72386 12.5 7.5 12.2761 7.5 12C7.5 11.7239 7.72386 11.5 8 11.5Z" fill="#777B92"/>
<path fill-rule="evenodd" clip-rule="evenodd" d="M15.5 14C15.5 14.8284 14.8284 15.5 14 15.5H2C1.17157 15.5 0.5 14.8284 0.5 14V9C0.5 8.90125 0.52863 8.80918 0.578044 8.73164C0.592094 8.6898 0.60801 8.64853 0.625764 8.60795L3.77978 1.39877C4.01865 0.852791 4.55807 0.5 5.15402 0.5H10.846C11.4419 0.5 11.9814 0.852791 12.2202 1.39877L15.3742 8.60795C15.392 8.64853 15.4079 8.6898 15.422 8.73164C15.4714 8.80918 15.5 8.90125 15.5 9V14ZM4.69594 1.79959L1.76451 8.5H14.2355L11.3041 1.79959C11.2244 1.6176 11.0446 1.5 10.846 1.5H5.15402C4.95537 1.5 4.77556 1.6176 4.69594 1.79959ZM1.5 9.5V14C1.5 14.2761 1.72386 14.5 2 14.5H14C14.2761 14.5 14.5 14.2761 14.5 14V9.5H1.5Z" fill="#777B92"/>
</svg>
