<svg width="16" height="16" viewBox="0 0 16 16" fill="none" xmlns="http://www.w3.org/2000/svg">
<path fill-rule="evenodd" clip-rule="evenodd" d="M8 5.5C8.27614 5.5 8.5 5.72386 8.5 6V7.5H10C10.2761 7.5 10.5 7.72386 10.5 8C10.5 8.27614 10.2761 8.5 10 8.5H8C7.72386 8.5 7.5 8.27614 7.5 8V6C7.5 5.72386 7.72386 5.5 8 5.5Z" fill="#777B92"/>
<path fill-rule="evenodd" clip-rule="evenodd" d="M11.3091 13.5L10.7237 14.6708C10.4696 15.179 9.95023 15.5 9.38208 15.5H6.61814C6.04999 15.5 5.53059 15.179 5.2765 14.6708L4.69109 13.5H4C3.17157 13.5 2.5 12.8284 2.5 12V4C2.5 3.17157 3.17157 2.5 4 2.5H4.69109L5.2765 1.32918C5.53059 0.821003 6.04999 0.5 6.61814 0.5H9.38208C9.95023 0.5 10.4696 0.821004 10.7237 1.32918L11.3091 2.5H12C12.8284 2.5 13.5 3.17157 13.5 4V7C13.7761 7 14 7.44772 14 8C14 8.55228 13.7761 9 13.5 9V12C13.5 12.8284 12.8284 13.5 12 13.5H11.3091ZM6.61814 1.5C6.42876 1.5 6.25563 1.607 6.17093 1.77639L5.80913 2.5H10.1911L9.82929 1.77639C9.74459 1.607 9.57146 1.5 9.38208 1.5H6.61814ZM5.01017 3.5C5.00322 3.50015 4.99625 3.50015 4.98927 3.5H4C3.72386 3.5 3.5 3.72386 3.5 4V12C3.5 12.2761 3.72386 12.5 4 12.5H4.98926C4.99625 12.4999 5.00322 12.4999 5.01018 12.5H10.99C10.997 12.4999 11.004 12.4999 11.011 12.5H12C12.2761 12.5 12.5 12.2761 12.5 12V4C12.5 3.72386 12.2761 3.5 12 3.5H11.0109C11.004 3.50015 10.997 3.50015 10.99 3.5H5.01017ZM10.1911 13.5H5.80913L6.17093 14.2236C6.25563 14.393 6.42876 14.5 6.61814 14.5H9.38208C9.57146 14.5 9.74459 14.393 9.82929 14.2236L10.1911 13.5Z" fill="#777B92"/>
</svg>
