<svg width="16" height="16" viewBox="0 0 16 16" fill="none" xmlns="http://www.w3.org/2000/svg">
<path fill-rule="evenodd" clip-rule="evenodd" d="M0.5 2C0.5 1.17157 1.17157 0.5 2 0.5H4C4.82843 0.5 5.5 1.17157 5.5 2V8.5H9.5V5C9.5 4.17157 10.1716 3.5 11 3.5H13C13.8284 3.5 14.5 4.17157 14.5 5V14.5H15C15.2761 14.5 15.5 14.7239 15.5 15C15.5 15.2761 15.2761 15.5 15 15.5H1C0.723858 15.5 0.5 15.2761 0.5 15V2ZM9.5 9.5H5.5V14.5H9.5V9.5ZM4.5 2C4.5 1.72386 4.27614 1.5 4 1.5H2C1.72386 1.5 1.5 1.72386 1.5 2V14.5H4.5V2ZM13.5 14.5V5C13.5 4.72386 13.2761 4.5 13 4.5H11C10.7239 4.5 10.5 4.72386 10.5 5V14.5H13.5Z" fill="#777B92"/>
</svg>
