<svg width="16" height="16" viewBox="0 0 16 16" fill="none" xmlns="http://www.w3.org/2000/svg">
<path fill-rule="evenodd" clip-rule="evenodd" d="M0.646447 12.3536C0.451184 12.1583 0.451184 11.8417 0.646447 11.6464L5.64645 6.64645C5.84171 6.45118 6.15829 6.45118 6.35355 6.64645L9 9.29289L13.7929 4.5H11C10.7239 4.5 10.5 4.27614 10.5 4C10.5 3.72386 10.7239 3.5 11 3.5H15C15.2761 3.5 15.5 3.72386 15.5 4V8C15.5 8.27614 15.2761 8.5 15 8.5C14.7239 8.5 14.5 8.27614 14.5 8V5.20711L9.35355 10.3536C9.15829 10.5488 8.84171 10.5488 8.64645 10.3536L6 7.70711L1.35355 12.3536C1.15829 12.5488 0.841709 12.5488 0.646447 12.3536Z" fill="#777B92"/>
</svg>
