<svg width="16" height="16" viewBox="0 0 16 16" fill="none" xmlns="http://www.w3.org/2000/svg">
<path fill-rule="evenodd" clip-rule="evenodd" d="M1.5 8C1.5 11.5899 4.41015 14.5 8 14.5C10.3639 14.5 12.4335 13.2385 13.5717 11.3495C13.7143 11.113 14.0215 11.0368 14.2581 11.1793C14.4946 11.3218 14.5708 11.6291 14.4283 11.8656C13.1167 14.0424 10.7288 15.5 8 15.5C3.85786 15.5 0.5 12.1421 0.5 8C0.5 3.85786 3.85786 0.5 8 0.5C8.27614 0.5 8.5 0.723858 8.5 1C8.5 1.27614 8.27614 1.5 8 1.5C4.41015 1.5 1.5 4.41015 1.5 8Z" fill="#777B92"/>
<path fill-rule="evenodd" clip-rule="evenodd" d="M11.8656 1.57174C13.4485 2.5255 14.6508 4.04766 15.1893 5.85738C15.2681 6.12204 15.1174 6.40046 14.8527 6.47923C14.5881 6.558 14.3097 6.40729 14.2309 6.14262C13.7647 4.57603 12.7227 3.25567 11.3495 2.42826C11.113 2.28574 11.0368 1.97847 11.1793 1.74195C11.3218 1.50542 11.6291 1.42922 11.8656 1.57174Z" fill="#777B92"/>
<path fill-rule="evenodd" clip-rule="evenodd" d="M5.37397 5.68504C5.19124 5.89208 4.87527 5.91178 4.66824 5.72904C4.4612 5.54631 4.4415 5.23034 4.62423 5.02331C5.44806 4.08991 6.655 3.5 7.9991 3.5C10.4844 3.5 12.4991 5.51472 12.4991 8C12.4991 8.81882 12.28 9.58796 11.8968 10.2504C11.7585 10.4894 11.4526 10.5711 11.2136 10.4328C10.9746 10.2945 10.8929 9.98867 11.0312 9.74964C11.3287 9.23534 11.4991 8.63833 11.4991 8C11.4991 6.067 9.9321 4.5 7.9991 4.5C6.95382 4.5 6.01603 4.9576 5.37397 5.68504Z" fill="#777B92"/>
<path fill-rule="evenodd" clip-rule="evenodd" d="M4.60934 8.87537C4.92571 10.1046 5.89454 11.0734 7.12373 11.3898C7.39116 11.4586 7.55215 11.7312 7.48332 11.9986C7.41449 12.266 7.1419 12.427 6.87447 12.3582C5.29245 11.951 4.04809 10.7067 3.6409 9.12463C3.57207 8.8572 3.73307 8.58461 4.00049 8.51578C4.26792 8.44695 4.54051 8.60794 4.60934 8.87537Z" fill="#777B92"/>
</svg>
