<svg width="16" height="16" viewBox="0 0 16 16" fill="none" xmlns="http://www.w3.org/2000/svg">
<path fill-rule="evenodd" clip-rule="evenodd" d="M1 0.5C1.27614 0.5 1.5 0.723858 1.5 1V9.79289L3.64645 7.64645C3.84171 7.45118 4.15829 7.45118 4.35355 7.64645L8 11.2929L12.6464 6.64645C12.8417 6.45118 13.1583 6.45118 13.3536 6.64645C13.5488 6.84171 13.5488 7.15829 13.3536 7.35355L8.35355 12.3536C8.15829 12.5488 7.84171 12.5488 7.64645 12.3536L4 8.70711L1.5 11.2071V14.5H15C15.2761 14.5 15.5 14.7239 15.5 15C15.5 15.2761 15.2761 15.5 15 15.5H1C0.723858 15.5 0.5 15.2761 0.5 15V11.0001C0.5 11.0001 0.5 11 0.5 11.0001V1C0.5 0.723858 0.723858 0.5 1 0.5Z" fill="#777B92"/>
<path fill-rule="evenodd" clip-rule="evenodd" d="M8 0.5C8.27614 0.5 8.5 0.723858 8.5 1V5.79289L9.64645 4.64645C9.84171 4.45118 10.1583 4.45118 10.3536 4.64645C10.5488 4.84171 10.5488 5.15829 10.3536 5.35355L8.35355 7.35355C8.15829 7.54882 7.84171 7.54882 7.64645 7.35355L5.64645 5.35355C5.45118 5.15829 5.45118 4.84171 5.64645 4.64645C5.84171 4.45118 6.15829 4.45118 6.35355 4.64645L7.5 5.79289V1C7.5 0.723858 7.72386 0.5 8 0.5Z" fill="#777B92"/>
</svg>
