<svg width="16" height="16" viewBox="0 0 16 16" fill="none" xmlns="http://www.w3.org/2000/svg">
<path fill-rule="evenodd" clip-rule="evenodd" d="M7.33205 1.95383L9.33205 3.28716C9.3915 3.32679 9.44756 3.37028 9.5 3.41718C9.55244 3.37028 9.6085 3.32679 9.66795 3.28716L11.6679 1.95383C12.1718 1.61793 12.8282 1.61793 13.3321 1.95383L15.3321 3.28716C15.7493 3.56536 16 4.03371 16 4.53524V6.46487C16 6.9664 15.7493 7.43475 15.3321 7.71295L13.3321 9.04628C13.2172 9.12285 13.0944 9.18197 12.9673 9.22363C12.9888 9.32504 13 9.4294 13 9.53524V11.4649C13 11.9664 12.7493 12.4347 12.3321 12.7129L10.3321 14.0463C9.8282 14.3822 9.1718 14.3822 8.66795 14.0463L6.66795 12.7129C6.6085 12.6733 6.55244 12.6298 6.5 12.5829C6.44756 12.6298 6.3915 12.6733 6.33205 12.7129L4.33205 14.0463C3.8282 14.3822 3.1718 14.3822 2.66795 14.0463L0.66795 12.7129C0.250652 12.4347 0 11.9664 0 11.4649V9.53524C0 9.03371 0.250652 8.56536 0.66795 8.28716L2.66795 6.95383C2.78281 6.87726 2.9056 6.81814 3.0327 6.77648C3.01116 6.67507 3 6.57071 3 6.46487V4.53524C3 4.03371 3.25065 3.56536 3.66795 3.28716L5.66795 1.95383C6.1718 1.61793 6.8282 1.61793 7.33205 1.95383ZM9.77735 7.78588C9.77745 7.78595 9.77725 7.78581 9.77735 7.78588C9.60944 7.67412 9.3905 7.67398 9.22265 7.78588L7.33205 9.04628C7.33228 9.04612 7.33182 9.04643 7.33205 9.04628L7.22265 9.11921C7.08355 9.21195 7 9.36806 7 9.53524V11.4649C7 11.632 7.08355 11.7882 7.22265 11.8809L9.22265 13.2142C9.3906 13.3262 9.6094 13.3262 9.77735 13.2142L11.7773 11.8809C11.9164 11.7882 12 11.632 12 11.4649V9.53524C12 9.36806 11.9164 9.21195 11.7773 9.11921L9.77735 7.78588ZM12.223 8.21444C12.3909 8.3262 12.6095 8.32613 12.7773 8.21423L14.7773 6.8809C14.9164 6.78816 15 6.63205 15 6.46487V4.53524C15 4.36806 14.9164 4.21195 14.7773 4.11921L12.7774 2.78588C12.6094 2.67391 12.3906 2.67391 12.2227 2.78588L10.2226 4.11921C10.0836 4.21195 10 4.36806 10 4.53524V6.46487C10 6.63205 10.0836 6.78816 10.2226 6.8809L10.3315 6.95347C10.3313 6.95335 10.3317 6.95359 10.3315 6.95347L12.223 8.21444C12.2231 8.21451 12.2229 8.21437 12.223 8.21444ZM6 11.4649V9.53524C6 9.36806 5.91645 9.21195 5.77735 9.11921L3.77735 7.78588C3.60941 7.67396 3.39058 7.67393 3.22265 7.78588L1.22265 9.11921C1.08355 9.21195 1 9.36806 1 9.53524V11.4649C1 11.632 1.08355 11.7882 1.22265 11.8809L3.22265 13.2142C3.3906 13.3262 3.6094 13.3262 3.77735 13.2142L5.77735 11.8809C5.91645 11.7882 6 11.632 6 11.4649ZM6.77735 8.21423L8.77735 6.8809C8.91645 6.78816 9 6.63205 9 6.46487V4.53524C9 4.36806 8.91645 4.21195 8.77735 4.11921L6.77735 2.78588C6.6094 2.67391 6.3906 2.67391 6.22265 2.78588L4.22265 4.11921C4.08355 4.21195 4 4.36806 4 4.53524V6.46487C4 6.63205 4.08355 6.78816 4.22265 6.8809L6.22265 8.21423C6.39056 8.32599 6.6095 8.32613 6.77735 8.21423Z" fill="#777B92"/>
</svg>
