<svg width="16" height="16" viewBox="0 0 16 16" fill="none" xmlns="http://www.w3.org/2000/svg">
<path fill-rule="evenodd" clip-rule="evenodd" d="M1 0.5C1.27614 0.5 1.5 0.723858 1.5 1V14.5H4.5V11C4.5 10.7239 4.72386 10.5 5 10.5C5.27614 10.5 5.5 10.7239 5.5 11V14.5H13.5V10C13.5 9.72386 13.7239 9.5 14 9.5C14.2761 9.5 14.5 9.72386 14.5 10V14.5H15C15.2761 14.5 15.5 14.7239 15.5 15C15.5 15.2761 15.2761 15.5 15 15.5H1C0.723858 15.5 0.5 15.2761 0.5 15V1C0.5 0.723858 0.723858 0.5 1 0.5Z" fill="#777B92"/>
<path fill-rule="evenodd" clip-rule="evenodd" d="M14 3.5C14.2761 3.5 14.5 3.72386 14.5 4V6C14.5 6.27614 14.2761 6.5 14 6.5C13.7239 6.5 13.5 6.27614 13.5 6V4C13.5 3.72386 13.7239 3.5 14 3.5Z" fill="#777B92"/>
<path fill-rule="evenodd" clip-rule="evenodd" d="M10.5 3V4C10.5 4.27614 10.2761 4.5 10 4.5C9.72386 4.5 9.5 4.27614 9.5 4V3C9.5 2.72386 9.72386 2.5 10 2.5C10.2761 2.5 10.5 2.72386 10.5 3Z" fill="#777B92"/>
<path fill-rule="evenodd" clip-rule="evenodd" d="M5 5.5C5.27614 5.5 5.5 5.72386 5.5 6V8C5.5 8.27614 5.27614 8.5 5 8.5C4.72386 8.5 4.5 8.27614 4.5 8V6C4.5 5.72386 4.72386 5.5 5 5.5Z" fill="#777B92"/>
<path fill-rule="evenodd" clip-rule="evenodd" d="M10 7.5C10.2761 7.5 10.5 7.72386 10.5 8V11C10.5 11.2761 10.2761 11.5 10 11.5C9.72386 11.5 9.5 11.2761 9.5 11V8C9.5 7.72386 9.72386 7.5 10 7.5Z" fill="#777B92"/>
</svg>
