<svg width="16" height="16" viewBox="0 0 16 16" fill="none" xmlns="http://www.w3.org/2000/svg">
<path fill-rule="evenodd" clip-rule="evenodd" d="M10.5529 0.776396C10.6764 0.529407 10.9767 0.429294 11.2237 0.552789L13.2237 1.55279C13.4707 1.67628 13.5708 1.97662 13.4473 2.22361C13.3238 2.4706 13.0235 2.57071 12.7765 2.44722L10.7765 1.44722C10.5295 1.32372 10.4294 1.02339 10.5529 0.776396Z" fill="#777B92"/>
<path fill-rule="evenodd" clip-rule="evenodd" d="M8 6.5C8.27614 6.5 8.5 6.72386 8.5 7V8.5H10C10.2761 8.5 10.5 8.72386 10.5 9C10.5 9.27614 10.2761 9.5 10 9.5H8.5V11C8.5 11.2761 8.27614 11.5 8 11.5C7.72386 11.5 7.5 11.2761 7.5 11V9.5H6C5.72386 9.5 5.5 9.27614 5.5 9C5.5 8.72386 5.72386 8.5 6 8.5H7.5V7C7.5 6.72386 7.72386 6.5 8 6.5Z" fill="#777B92"/>
<path fill-rule="evenodd" clip-rule="evenodd" d="M1.5 9C1.5 5.41015 4.41015 2.5 8 2.5C11.5899 2.5 14.5 5.41015 14.5 9C14.5 12.5899 11.5899 15.5 8 15.5C4.41015 15.5 1.5 12.5899 1.5 9ZM8 3.5C4.96243 3.5 2.5 5.96243 2.5 9C2.5 12.0376 4.96243 14.5 8 14.5C11.0376 14.5 13.5 12.0376 13.5 9C13.5 5.96243 11.0376 3.5 8 3.5Z" fill="#777B92"/>
<path fill-rule="evenodd" clip-rule="evenodd" d="M5.22372 1.44722L3.22372 2.44722C2.97673 2.57071 2.67639 2.4706 2.5529 2.22361C2.4294 1.97662 2.52951 1.67628 2.7765 1.55279L4.7765 0.552789C5.02349 0.429294 5.32383 0.529407 5.44732 0.776396C5.57082 1.02339 5.47071 1.32372 5.22372 1.44722Z" fill="#777B92"/>
</svg>
