<svg width="16" height="16" viewBox="0 0 16 16" fill="none" xmlns="http://www.w3.org/2000/svg">
<path fill-rule="evenodd" clip-rule="evenodd" d="M9.5 5V6.5H11C11.2761 6.5 11.5 6.72386 11.5 7C11.5 7.27614 11.2761 7.5 11 7.5H9.5V9C9.5 9.27614 9.27614 9.5 9 9.5C8.72386 9.5 8.5 9.27614 8.5 9V7.5H7C6.72386 7.5 6.5 7.27614 6.5 7C6.5 6.72386 6.72386 6.5 7 6.5H8.5V5C8.5 4.72386 8.72386 4.5 9 4.5C9.27614 4.5 9.5 4.72386 9.5 5Z" fill="#777B92"/>
<path fill-rule="evenodd" clip-rule="evenodd" d="M2.5 2C2.5 1.17157 3.17157 0.5 4 0.5H14C14.8284 0.5 15.5 1.17157 15.5 2V12C15.5 12.8284 14.8284 13.5 14 13.5H13.5V14C13.5 14.8284 12.8284 15.5 12 15.5H2C1.17157 15.5 0.5 14.8284 0.5 14V4C0.5 3.17157 1.17157 2.5 2 2.5H2.5V2ZM2.5 3.5H2C1.72386 3.5 1.5 3.72386 1.5 4V14C1.5 14.2761 1.72386 14.5 2 14.5H12C12.2761 14.5 12.5 14.2761 12.5 14V13.5H4C3.17157 13.5 2.5 12.8284 2.5 12V3.5ZM4 12.5H14C14.2761 12.5 14.5 12.2761 14.5 12V2C14.5 1.72386 14.2761 1.5 14 1.5H4C3.72386 1.5 3.5 1.72386 3.5 2V12C3.5 12.2761 3.72386 12.5 4 12.5Z" fill="#777B92"/>
</svg>
