<svg width="16" height="16" viewBox="0 0 16 16" fill="none" xmlns="http://www.w3.org/2000/svg">
<path fill-rule="evenodd" clip-rule="evenodd" d="M2.5 7C2.5 8.91347 3.45879 10.5367 4.63203 11.8052C5.80354 13.0717 7.1478 13.9386 7.81627 14.3279C7.93276 14.3957 8.06723 14.3957 8.18375 14.3278C8.79633 13.9712 9.98015 13.2112 11.0774 12.108C12.1776 11.0018 13.1551 9.58657 13.4257 7.91988C13.4699 7.64731 13.7268 7.46221 13.9994 7.50646C14.2719 7.55071 14.457 7.80755 14.4128 8.08012C14.0958 10.0325 12.9646 11.6286 11.7864 12.8132C10.6051 14.0009 9.34074 14.8114 8.68692 15.192C8.25942 15.4409 7.74063 15.441 7.31311 15.192C6.60192 14.778 5.16384 13.8528 3.89791 12.4842C2.63372 11.1174 1.5 9.26237 1.5 7C1.5 3.41015 4.41015 0.5 8 0.5C8.75882 0.5 9.48829 0.630236 10.1666 0.869991C10.427 0.962015 10.5634 1.24768 10.4714 1.50803C10.3794 1.76839 10.0937 1.90485 9.83338 1.81283C9.26059 1.61038 8.64373 1.5 8 1.5C4.96243 1.5 2.5 3.96243 2.5 7Z" fill="#777B92"/>
<path fill-rule="evenodd" clip-rule="evenodd" d="M13.5 2V3.5H15C15.2761 3.5 15.5 3.72386 15.5 4C15.5 4.27614 15.2761 4.5 15 4.5H13.5V6C13.5 6.27614 13.2761 6.5 13 6.5C12.7239 6.5 12.5 6.27614 12.5 6V4.5H11C10.7239 4.5 10.5 4.27614 10.5 4C10.5 3.72386 10.7239 3.5 11 3.5H12.5V2C12.5 1.72386 12.7239 1.5 13 1.5C13.2761 1.5 13.5 1.72386 13.5 2Z" fill="#777B92"/>
<path fill-rule="evenodd" clip-rule="evenodd" d="M5.5 6C5.5 4.61929 6.61929 3.5 8 3.5C9.38071 3.5 10.5 4.61929 10.5 6C10.5 7.38071 9.38071 8.5 8 8.5C6.61929 8.5 5.5 7.38071 5.5 6ZM8 4.5C7.17157 4.5 6.5 5.17157 6.5 6C6.5 6.82843 7.17157 7.5 8 7.5C8.82843 7.5 9.5 6.82843 9.5 6C9.5 5.17157 8.82843 4.5 8 4.5Z" fill="#777B92"/>
</svg>
