<svg width="24" height="24" viewBox="0 0 24 24" fill="none" xmlns="http://www.w3.org/2000/svg">
<path fill-rule="evenodd" clip-rule="evenodd" d="M11.7071 8.29289L14.7071 11.2929C15.0976 11.6834 15.0976 12.3166 14.7071 12.7071L11.7071 15.7071C11.3166 16.0976 10.6834 16.0976 10.2929 15.7071C9.90237 15.3166 9.90237 14.6834 10.2929 14.2929L12.5858 12L10.2929 9.70711C9.90237 9.31658 9.90237 8.68342 10.2929 8.29289C10.6834 7.90237 11.3166 7.90237 11.7071 8.29289Z" fill="#777B92"/>
<path fill-rule="evenodd" clip-rule="evenodd" d="M12 3C16.9706 3 21 7.02944 21 12C21 16.9706 16.9706 21 12 21C7.02944 21 3 16.9706 3 12C3 7.02944 7.02944 3 12 3ZM5 12C5 15.866 8.13401 19 12 19C15.866 19 19 15.866 19 12C19 8.13401 15.866 5 12 5C8.13401 5 5 8.13401 5 12Z" fill="#777B92"/>
</svg>
