<svg width="24" height="24" viewBox="0 0 24 24" fill="none" xmlns="http://www.w3.org/2000/svg">
<path fill-rule="evenodd" clip-rule="evenodd" d="M19.7071 8.70711L16.4142 12L19.7071 15.2929C20.0976 15.6834 20.0976 16.3166 19.7071 16.7071C19.3166 17.0976 18.6834 17.0976 18.2929 16.7071L14.2929 12.7071C13.9024 12.3166 13.9024 11.6834 14.2929 11.2929L18.2929 7.29289C18.6834 6.90237 19.3166 6.90237 19.7071 7.29289C20.0976 7.68342 20.0976 8.31658 19.7071 8.70711Z" fill="#777B92"/>
<path fill-rule="evenodd" clip-rule="evenodd" d="M5.70711 7.29289L9.70711 11.2929C10.0976 11.6834 10.0976 12.3166 9.70711 12.7071L5.70711 16.7071C5.31658 17.0976 4.68342 17.0976 4.29289 16.7071C3.90237 16.3166 3.90237 15.6834 4.29289 15.2929L7.58579 12L4.29289 8.70711C3.90237 8.31658 3.90237 7.68342 4.29289 7.29289C4.68342 6.90237 5.31658 6.90237 5.70711 7.29289Z" fill="#777B92"/>
</svg>
