<svg width="24" height="24" viewBox="0 0 24 24" fill="none" xmlns="http://www.w3.org/2000/svg">
<path fill-rule="evenodd" clip-rule="evenodd" d="M9.70711 8.70711L6.41421 12L9.70711 15.2929C10.0976 15.6834 10.0976 16.3166 9.70711 16.7071C9.31658 17.0976 8.68342 17.0976 8.29289 16.7071L4.29289 12.7071C3.90237 12.3166 3.90237 11.6834 4.29289 11.2929L8.29289 7.29289C8.68342 6.90237 9.31658 6.90237 9.70711 7.29289C10.0976 7.68342 10.0976 8.31658 9.70711 8.70711Z" fill="#777B92"/>
<path fill-rule="evenodd" clip-rule="evenodd" d="M15.7071 7.29289L19.7071 11.2929C20.0976 11.6834 20.0976 12.3166 19.7071 12.7071L15.7071 16.7071C15.3166 17.0976 14.6834 17.0976 14.2929 16.7071C13.9024 16.3166 13.9024 15.6834 14.2929 15.2929L17.5858 12L14.2929 8.70711C13.9024 8.31658 13.9024 7.68342 14.2929 7.29289C14.6834 6.90237 15.3166 6.90237 15.7071 7.29289Z" fill="#777B92"/>
</svg>
