<svg width="24" height="24" viewBox="0 0 24 24" fill="none" xmlns="http://www.w3.org/2000/svg">
<path fill-rule="evenodd" clip-rule="evenodd" d="M2 4C2 3.44772 2.44772 3 3 3H4.2362C5.13811 3 5.92843 3.60364 6.16573 4.47377L6.58198 6H19.557C20.9534 6 21.92 7.39474 21.4297 8.70225L19.1797 14.7022C18.8869 15.4829 18.1407 16 17.307 16H8.7638C7.86189 16 7.07158 15.3964 6.83427 14.5262L4.2362 5H3C2.44772 5 2 4.55228 2 4ZM7.12743 8L8.7638 14L17.307 14L19.557 8H7.12743Z" fill="#777B92"/>
<path fill-rule="evenodd" clip-rule="evenodd" d="M18 19.5C18 20.3284 17.3284 21 16.5 21C15.6716 21 15 20.3284 15 19.5C15 18.6716 15.6716 18 16.5 18C17.3284 18 18 18.6716 18 19.5Z" fill="#777B92"/>
<path fill-rule="evenodd" clip-rule="evenodd" d="M8.5 21C7.67157 21 7 20.3284 7 19.5C7 18.6716 7.67157 18 8.5 18C9.32843 18 10 18.6716 10 19.5C10 20.3284 9.32843 21 8.5 21Z" fill="#777B92"/>
</svg>
