<svg width="24" height="24" viewBox="0 0 24 24" fill="none" xmlns="http://www.w3.org/2000/svg">
<path fill-rule="evenodd" clip-rule="evenodd" d="M8 3H16C17.1046 3 18 3.89543 18 5V7H20C21.1046 7 22 7.89543 22 9V17C22 18.1046 21.1046 19 20 19H18C18 20.1046 17.1046 21 16 21H8C6.89543 21 6 20.1046 6 19H4C2.89543 19 2 18.1046 2 17V9C2 7.89543 2.89543 7 4 7H6V5C6 3.89543 6.89543 3 8 3ZM8 19H16V15H8V19ZM6 17V15C6 13.8954 6.89543 13 8 13H16C17.1046 13 18 13.8954 18 15V17H20V9H17C16.8535 9 16.7143 8.96849 16.5889 8.91188C16.4028 8.96916 16.205 9 16 9H8C7.79502 9 7.59725 8.96916 7.41106 8.91188C7.28567 8.96849 7.14652 9 7 9H4V17H6ZM8 5V7H16V5H8Z" fill="#777B92"/>
</svg>
