<svg width="24" height="24" viewBox="0 0 24 24" fill="none" xmlns="http://www.w3.org/2000/svg">
<path fill-rule="evenodd" clip-rule="evenodd" d="M12 17C11.4477 17 11 16.5523 11 16C11 15.4477 11.4477 15 12 15C12.5523 15 13 15.4477 13 16C13 16.5523 12.5523 17 12 17Z" fill="#777B92"/>
<path fill-rule="evenodd" clip-rule="evenodd" d="M6 6C6 4.89543 6.89543 4 8 4H16C17.1046 4 18 4.89543 18 6V18C18 19.1046 17.1046 20 16 20H8C6.89543 20 6 19.1046 6 18V6ZM16 6L8 6V12H16V6ZM16 14H8V18H16V14Z" fill="#777B92"/>
</svg>
