<svg width="22" height="22" viewBox="0 0 22 22" fill="none" xmlns="http://www.w3.org/2000/svg">
<path fill-rule="evenodd" clip-rule="evenodd" d="M14 3C14 4.30622 13.1652 5.41746 12 5.82929V8.17071C12.862 8.4754 13.5433 9.1629 13.8394 10.029C15.6226 10.1559 17.12 10.7058 18.2071 11.7929C19.2941 12.88 19.844 14.3774 19.971 16.1606C21.1513 16.5642 22 17.683 22 19C22 20.6569 20.6569 22 19 22C17.3431 22 16 20.6569 16 19C16 17.7061 16.8191 16.6036 17.967 16.1826C17.8492 14.7906 17.4227 13.837 16.7929 13.2071C16.163 12.5772 15.2094 12.1507 13.8174 12.033C13.5105 12.8698 12.8414 13.5319 12 13.8293V16.1707C13.1652 16.5825 14 17.6938 14 19C14 20.6569 12.6569 22 11 22C9.34315 22 8 20.6569 8 19C8 17.6938 8.83481 16.5825 10 16.1707V13.8293C9.15861 13.5319 8.48949 12.8698 8.18258 12.033C6.79061 12.1507 5.83704 12.5772 5.20715 13.2071C4.57729 13.837 4.15079 14.7906 4.03298 16.1826C5.18091 16.6036 6 17.7061 6 19C6 20.6569 4.65685 22 3 22C1.34315 22 0 20.6569 0 19C0 17.683 0.848668 16.5642 2.02897 16.1606C2.15598 14.3774 2.70586 12.88 3.7929 11.7929C4.88002 10.7058 6.37739 10.1559 8.16064 10.029C8.45675 9.1629 9.13795 8.4754 10 8.17071V5.82929C8.83481 5.41746 8 4.30622 8 3C8 1.34315 9.34315 0 11 0C12.6569 0 14 1.34315 14 3ZM11 2C10.4477 2 10 2.44772 10 3C10 3.55228 10.4477 4 11 4C11.5523 4 12 3.55228 12 3C12 2.44772 11.5523 2 11 2ZM2.97869 18.0002C2.43625 18.0116 2 18.4548 2 19C2 19.5523 2.44772 20 3 20C3.55228 20 4 19.5523 4 19C4 18.4548 3.56373 18.0115 3.02126 18.0002C3.01416 18.0004 3.00705 18.0004 2.99992 18.0004C2.99283 18.0004 2.98575 18.0004 2.97869 18.0002ZM10 11C10 11.5523 10.4477 12 11 12C11.5523 12 12 11.5523 12 11C12 10.4477 11.5523 10 11 10C10.4477 10 10 10.4477 10 11ZM19.0001 18.0004L18.9787 18.0002C18.4363 18.0115 18 18.4548 18 19C18 19.5523 18.4477 20 19 20C19.5523 20 20 19.5523 20 19C20 18.4548 19.5638 18.0116 19.0213 18.0002L19.0001 18.0004ZM11 18C10.4477 18 10 18.4477 10 19C10 19.5523 10.4477 20 11 20C11.5523 20 12 19.5523 12 19C12 18.4477 11.5523 18 11 18Z" fill="#7887A5"/>
</svg>
