<svg width="22" height="22" viewBox="0 0 22 22" fill="none" xmlns="http://www.w3.org/2000/svg">
<path fill-rule="evenodd" clip-rule="evenodd" d="M14 3C14 4.30622 13.1652 5.41746 12 5.82929V8.17071C12.8524 8.47199 13.528 9.14759 13.8293 10H16.1707C16.5825 8.83481 17.6938 8 19 8C20.6569 8 22 9.34315 22 11C22 12.6569 20.6569 14 19 14C17.6938 14 16.5825 13.1652 16.1707 12H13.8293C13.528 12.8524 12.8524 13.528 12 13.8293V16.1707C13.1652 16.5825 14 17.6938 14 19C14 20.6569 12.6569 22 11 22C9.34315 22 8 20.6569 8 19C8 17.6938 8.83481 16.5825 10 16.1707V13.8293C9.14759 13.528 8.47199 12.8524 8.17071 12H5.82929C5.41746 13.1652 4.30622 14 3 14C1.34315 14 0 12.6569 0 11C0 9.34315 1.34315 8 3 8C4.30622 8 5.41746 8.83481 5.82929 10H8.17071C8.47199 9.14759 9.14759 8.47199 10 8.17071V5.82929C8.83481 5.41746 8 4.30622 8 3C8 1.34315 9.34315 0 11 0C12.6569 0 14 1.34315 14 3ZM11 2C10.4477 2 10 2.44772 10 3C10 3.55228 10.4477 4 11 4C11.5523 4 12 3.55228 12 3C12 2.44772 11.5523 2 11 2ZM10 11C10 11.5523 10.4477 12 11 12C11.5523 12 12 11.5523 12 11C12 10.4477 11.5523 10 11 10C10.4477 10 10 10.4477 10 11ZM4 11C4 10.4477 3.55228 10 3 10C2.44772 10 2 10.4477 2 11C2 11.5523 2.44772 12 3 12C3.55228 12 4 11.5523 4 11ZM19 12C18.4477 12 18 11.5523 18 11C18 10.4477 18.4477 10 19 10C19.5523 10 20 10.4477 20 11C20 11.5523 19.5523 12 19 12ZM11 18C10.4477 18 10 18.4477 10 19C10 19.5523 10.4477 20 11 20C11.5523 20 12 19.5523 12 19C12 18.4477 11.5523 18 11 18Z" fill="#7887A5"/>
</svg>
