<svg width="18" height="18" viewBox="0 0 18 18" fill="none" xmlns="http://www.w3.org/2000/svg">
<path d="M8.99999 0C9.55228 0 9.99999 0.447715 9.99999 1V8.55721L16.649 6.06391C17.1662 5.87 17.7426 6.13201 17.9365 6.64913C18.1304 7.16626 17.8684 7.74267 17.3513 7.93658L10.6895 10.4346L15.7592 16.3492C16.1186 16.7685 16.07 17.3998 15.6507 17.7592C15.2314 18.1186 14.6001 18.0701 14.2407 17.6508L9.0426 11.5864L4.41849 17.6087C4.08214 18.0467 3.45437 18.1292 3.01632 17.7928C2.57827 17.4565 2.49583 16.8287 2.83218 16.3906L7.38419 10.4623L0.648683 7.93668C0.131558 7.74277 -0.130462 7.16637 0.0634447 6.64924C0.257352 6.13212 0.833757 5.8701 1.35088 6.06401L7.99999 8.55723V1C7.99999 0.447715 8.44771 0 8.99999 0Z" fill="#7887A5"/>
</svg>
