<svg width="20" height="22" viewBox="0 0 20 22" fill="none" xmlns="http://www.w3.org/2000/svg">
<path d="M2 5C2 2.23858 4.23858 0 7 0C9.76142 0 12 2.23858 12 5V17C12 19.7614 9.76142 22 7 22C4.23858 22 2 19.7614 2 17V15C2 14.4477 2.44772 14 3 14C3.55228 14 4 14.4477 4 15V17C4 18.6569 5.34315 20 7 20C8.65685 20 10 18.6569 10 17V5C10 3.34315 8.65685 2 7 2C5.34315 2 4 3.34315 4 5V7C4 7.55228 3.55228 8 3 8C2.44772 8 2 7.55228 2 7V5Z" fill="#7887A5"/>
<path d="M16.4453 7.16806C16.9048 6.8617 17.5257 6.98588 17.8321 7.44541L19.8321 10.4454C20.056 10.7813 20.056 11.2189 19.8321 11.5548L17.8321 14.5548C17.5257 15.0143 16.9048 15.1385 16.4453 14.8322C15.9858 14.5258 15.8616 13.9049 16.1679 13.4454L17.1315 12.0001H14C13.4477 12.0001 13 11.5524 13 11.0001C13 10.4478 13.4477 10.0001 14 10.0001H17.1315L16.1679 8.55481C15.8616 8.09528 15.9858 7.47441 16.4453 7.16806Z" fill="#7887A5"/>
<path d="M1 10C0.447715 10 0 10.4477 0 11C0 11.5523 0.447715 12 1 12H7C7.55228 12 8 11.5523 8 11C8 10.4477 7.55228 10 7 10H1Z" fill="#7887A5"/>
</svg>
