<svg width="20" height="22" viewBox="0 0 20 22" fill="none" xmlns="http://www.w3.org/2000/svg">
<path d="M5.00001 9C5.55229 9 6.00001 8.55228 6.00001 8C6.00001 7.44772 5.55229 7 5.00001 7C4.44772 7 4.00001 7.44772 4.00001 8C4.00001 8.55228 4.44772 9 5.00001 9Z" fill="#7887A5"/>
<path d="M16 8C16 8.55228 15.5523 9 15 9C14.4477 9 14 8.55228 14 8C14 7.44772 14.4477 7 15 7C15.5523 7 16 7.44772 16 8Z" fill="#7887A5"/>
<path fill-rule="evenodd" clip-rule="evenodd" d="M1.00001 0C0.65483 0 0.3505 0.174888 0.170793 0.440888C0.0629679 0.600489 7.31161e-06 0.79289 6.63201e-06 0.999997L0 3C0 3.55228 0.447712 4 0.999997 4C1.55228 4 2 3.55229 2 3L2 2H4L4 3C4 3.03342 4.00164 3.06646 4.00484 3.09904C1.72019 3.56044 6.67573e-06 5.57933 6.67573e-06 8C6.67573e-06 9.12582 0.372096 10.1647 1.00001 11.0005V13C1.00001 17.9706 5.02944 22 10 22C14.9706 22 19 17.9706 19 13V11.0005C19.6279 10.1647 20 9.12582 20 8C20 5.57933 18.2798 3.56043 15.9952 3.09904C15.9984 3.06646 16 3.03342 16 3L16 2H18C18.5523 2 19 1.55228 19 0.999998C19 0.447715 18.5523 0 18 0H1.00001ZM14 2H6L6 3C6 3.03342 5.99836 3.06646 5.99516 3.09904C8.27981 3.56043 10 5.57933 10 8C10 5.57933 11.7202 3.56044 14.0048 3.09904C14.0016 3.06646 14 3.03342 14 3L14 2ZM2.00001 8C2.00001 6.34315 3.34315 5 5.00001 5C6.65686 5 8.00001 6.34315 8.00001 8C8.00001 9.65685 6.65686 11 5.00001 11C3.34315 11 2.00001 9.65685 2.00001 8ZM17 12.584C16.3994 12.8464 15.7374 12.9942 15.0414 12.9998C15.0922 13.3716 15.1943 13.786 15.3725 14.1919C15.6038 14.7187 15.9575 15.222 16.4965 15.6117C16.8213 14.8047 17 13.9232 17 13V12.584ZM11.8031 11.8446C12.1636 12.1447 12.5669 12.395 13.0026 12.5851C13.0233 13.2895 13.1702 14.151 13.5413 14.996C13.9195 15.8574 14.5372 16.7117 15.4876 17.3462C14.2054 18.963 12.2238 20 10 20C7.77621 20 5.79461 18.963 4.51238 17.3462C5.46283 16.7117 6.08048 15.8574 6.4587 14.996C6.82979 14.151 6.97674 13.2895 6.99741 12.5851C7.43309 12.395 7.83644 12.1447 8.19692 11.8446L9.13176 13.4806C9.51566 14.1524 10.4844 14.1524 10.8682 13.4806L11.8031 11.8446ZM4.95861 12.9998C4.26265 12.9942 3.60057 12.8464 3.00001 12.584V13C3.00001 13.9232 3.17874 14.8047 3.50348 15.6117C4.04249 15.222 4.39617 14.7187 4.62747 14.1919C4.80572 13.786 4.90781 13.3716 4.95861 12.9998ZM12 8C12 6.34315 13.3432 5 15 5C16.6569 5 18 6.34315 18 8C18 9.65685 16.6569 11 15 11C13.3432 11 12 9.65685 12 8Z" fill="#7887A5"/>
</svg>
