<svg width="20" height="20" viewBox="0 0 20 20" fill="none" xmlns="http://www.w3.org/2000/svg">
<path d="M5 16C5.55228 16 6 15.5523 6 15C6 14.4477 5.55228 14 5 14C4.44772 14 4 14.4477 4 15C4 15.5523 4.44772 16 5 16Z" fill="#7887A5"/>
<path fill-rule="evenodd" clip-rule="evenodd" d="M19 0C19.5523 0 20 0.447715 20 1V3C20 3.26522 19.8946 3.51957 19.7071 3.70711L18.9142 4.5L19.7071 5.29289C20.0976 5.68342 20.0976 6.31658 19.7071 6.70711C19.3166 7.09763 18.6834 7.09763 18.2929 6.70711L17.5 5.91421L16.4142 7L17.7071 8.29289C18.0976 8.68342 18.0976 9.31658 17.7071 9.70711C17.3166 10.0976 16.6834 10.0976 16.2929 9.70711L15 8.41421L11.7071 11.7071C11.6694 11.7448 11.6294 11.7789 11.5875 11.8094C11.8538 12.488 12 13.2269 12 14C12 17.3137 9.31371 20 6 20C2.68629 20 0 17.3137 0 14C0 10.6863 2.68629 8 6 8C6.48828 8 6.96294 8.05833 7.41739 8.16839L15.2929 0.292893C15.4804 0.105357 15.7348 0 16 0H19ZM18 2.58579V2H16.4142L9.37542 9.03879C9.8013 9.32911 10.1879 9.67283 10.5255 10.0603L18 2.58579ZM2 14C2 11.7909 3.79086 10 6 10C8.20914 10 10 11.7909 10 14C10 16.2091 8.20914 18 6 18C3.79086 18 2 16.2091 2 14Z" fill="#7887A5"/>
</svg>
