<svg width="24" height="24" viewBox="0 0 24 24" fill="none" xmlns="http://www.w3.org/2000/svg">
<path fill-rule="evenodd" clip-rule="evenodd" d="M7.55468 2.83216L4.55468 4.83216C4.09516 5.13851 3.47429 5.01434 3.16793 4.55481C2.86158 4.09528 2.98576 3.47441 3.44528 3.16806L6.44528 1.16806C6.90481 0.861704 7.52568 0.985877 7.83203 1.44541C8.13839 1.90493 8.01421 2.5258 7.55468 2.83216Z" fill="#777B92"/>
<path fill-rule="evenodd" clip-rule="evenodd" d="M16.1679 1.44541C16.4743 0.985877 17.0952 0.861704 17.5547 1.16806L20.5547 3.16806C21.0142 3.47441 21.1384 4.09528 20.832 4.55481C20.5257 5.01434 19.9048 5.13851 19.4453 4.83216L16.4453 2.83216C15.9858 2.5258 15.8616 1.90493 16.1679 1.44541Z" fill="#777B92"/>
<path fill-rule="evenodd" clip-rule="evenodd" d="M12 3C15.866 3 19 6.13401 19 10V14.6972L19.7956 15.8906C20.6817 17.2197 19.7289 19 18.1315 19H16C16 21.2091 14.2091 23 12 23C9.79086 23 8 21.2091 8 19H5.86854C4.27115 19 3.31836 17.2197 4.20444 15.8906L5.00002 14.6972V10C5.00002 6.13401 8.13403 3 12 3ZM10 19C10 20.1046 10.8954 21 12 21C13.1046 21 14 20.1046 14 19H10ZM7.00002 10V14.6972C7.00002 15.0921 6.88314 15.4781 6.66412 15.8066L5.86854 17H18.1315L17.3359 15.8066C17.1169 15.4781 17 15.0921 17 14.6972V10C17 7.23858 14.7614 5 12 5C9.2386 5 7.00002 7.23858 7.00002 10Z" fill="#777B92"/>
</svg>
