<svg width="24" height="24" viewBox="0 0 24 24" fill="none" xmlns="http://www.w3.org/2000/svg">
<path fill-rule="evenodd" clip-rule="evenodd" d="M12 2C12.5523 2 13 2.44772 13 3V9.13148L14.4453 8.16795C14.9048 7.8616 15.5257 7.98577 15.832 8.4453C16.1384 8.90483 16.0142 9.5257 15.5547 9.83205L12.5547 11.8321C12.2188 12.056 11.7812 12.056 11.4453 11.8321L8.44528 9.83205C7.98576 9.5257 7.86158 8.90483 8.16793 8.4453C8.47429 7.98577 9.09516 7.8616 9.55468 8.16795L11 9.13148V3C11 2.44772 11.4477 2 12 2Z" fill="#777B92"/>
<path fill-rule="evenodd" clip-rule="evenodd" d="M6.83205 8.44541C7.1384 8.90493 7.01423 9.5258 6.5547 9.83216L4.90099 10.9346L9.99228 13.8439C10.6154 14.2 11 14.8627 11 15.5804V19.2769C11 20.8126 9.34104 21.7753 8.00772 21.0134L3.00772 18.1563C2.38457 17.8002 2 17.1375 2 16.4198V11.0001C2 10.6658 2.1671 10.3535 2.4453 10.1681L5.4453 8.16806C5.90483 7.8617 6.5257 7.98588 6.83205 8.44541ZM4 12.7233V16.4198L9 19.2769V15.5804L4 12.7233Z" fill="#777B92"/>
<path fill-rule="evenodd" clip-rule="evenodd" d="M18.5547 8.16806L21.5547 10.1681C21.8329 10.3535 22 10.6658 22 11.0001V16.4198C22 17.1375 21.6154 17.8002 20.9923 18.1563L15.9923 21.0134C14.659 21.7753 13 20.8126 13 19.2769V15.5804C13 14.8627 13.3846 14.2 14.0077 13.8439L19.099 10.9346L17.4453 9.83216C16.9858 9.5258 16.8616 8.90493 17.1679 8.44541C17.4743 7.98588 18.0952 7.8617 18.5547 8.16806ZM15 15.5804V19.2769L20 16.4198V12.7233L15 15.5804Z" fill="#777B92"/>
</svg>
