<svg width="24" height="24" viewBox="0 0 24 24" fill="none" xmlns="http://www.w3.org/2000/svg">
<path fill-rule="evenodd" clip-rule="evenodd" d="M7.70711 2.70711L4.70711 5.70711C4.31658 6.09763 3.68342 6.09763 3.29289 5.70711C2.90237 5.31658 2.90237 4.68342 3.29289 4.29289L6.29289 1.29289C6.68342 0.902369 7.31658 0.902369 7.70711 1.29289C8.09763 1.68342 8.09763 2.31658 7.70711 2.70711Z" fill="#777B92"/>
<path fill-rule="evenodd" clip-rule="evenodd" d="M16.2929 1.29289C16.6834 0.902369 17.3166 0.902369 17.7071 1.29289L20.7071 4.29289C21.0976 4.68342 21.0976 5.31658 20.7071 5.70711C20.3166 6.09763 19.6834 6.09763 19.2929 5.70711L16.2929 2.70711C15.9024 2.31658 15.9024 1.68342 16.2929 1.29289Z" fill="#777B92"/>
<path fill-rule="evenodd" clip-rule="evenodd" d="M5.00002 10C5.00002 6.13401 8.13403 3 12 3C15.866 3 19 6.13401 19 10V14.6972L19.7956 15.8906C20.6817 17.2197 19.7289 19 18.1315 19H16C16 21.2091 14.2091 23 12 23C9.79086 23 8 21.2091 8 19H5.86854C4.27115 19 3.31836 17.2197 4.20444 15.8906L5.00002 14.6972V10ZM10 19C10 20.1046 10.8954 21 12 21C13.1046 21 14 20.1046 14 19H10Z" fill="#777B92"/>
</svg>
