<svg width="24" height="24" viewBox="0 0 24 24" fill="none" xmlns="http://www.w3.org/2000/svg">
<path fill-rule="evenodd" clip-rule="evenodd" d="M4.70711 20.7071C4.31658 21.0976 3.68342 21.0976 3.29289 20.7071C2.90237 20.3166 2.90237 19.6834 3.29289 19.2929L19.2929 3.29289C19.6834 2.90237 20.3166 2.90237 20.7071 3.29289C21.0976 3.68342 21.0976 4.31658 20.7071 4.70711L4.70711 20.7071Z" fill="#777B92"/>
<path fill-rule="evenodd" clip-rule="evenodd" d="M5 3H14C14.5523 3 15 3.44772 15 4C15 4.55228 14.5523 5 14 5L10 5V9C10 9.55228 9.55228 10 9 10C8.44772 10 8 9.55228 8 9V5L5 5V15C5 15.5523 4.55228 16 4 16C3.44772 16 3 15.5523 3 15V5C3 3.89543 3.89543 3 5 3Z" fill="#777B92"/>
<path fill-rule="evenodd" clip-rule="evenodd" d="M21 19C21 20.1046 20.1046 21 19 21H9C8.44772 21 8 20.5523 8 20C8 19.4477 8.44772 19 9 19H14V17H13C12.4477 17 12 16.5523 12 16C12 15.4477 12.4477 15 13 15H14C15.1046 15 16 15.8954 16 17V19H19V10C19 9.44772 19.4477 9 20 9C20.5523 9 21 9.44772 21 10V19Z" fill="#777B92"/>
</svg>
