<svg width="24" height="24" viewBox="0 0 24 24" fill="none" xmlns="http://www.w3.org/2000/svg">
<path fill-rule="evenodd" clip-rule="evenodd" d="M12 9C13.6569 9 15 10.3431 15 12C15 13.6569 13.6569 15 12 15C10.3431 15 9 13.6569 9 12C9 10.3431 10.3431 9 12 9ZM11 12C11 12.5523 11.4477 13 12 13C12.5523 13 13 12.5523 13 12C13 11.4477 12.5523 11 12 11C11.4477 11 11 11.4477 11 12Z" fill="#777B92"/>
<path fill-rule="evenodd" clip-rule="evenodd" d="M11.9999 5C15.5667 5 19.4293 7.06239 21.6427 11.0739C21.9606 11.6502 21.9606 12.3498 21.6427 12.9261C19.4293 16.9376 15.5667 19 11.9999 19C8.4331 19 4.57049 16.9376 2.35713 12.9261C2.03916 12.3498 2.03916 11.6502 2.35712 11.0739C4.57043 7.06239 8.43311 5 11.9999 5ZM11.9999 17C14.8001 17 17.9915 15.3706 19.8693 12C17.9915 8.62935 14.8001 7 11.9999 7C9.1997 7 6.00823 8.62936 4.13049 12C6.00829 15.3706 9.19971 17 11.9999 17Z" fill="#777B92"/>
</svg>
