<svg width="24" height="24" viewBox="0 0 24 24" fill="none" xmlns="http://www.w3.org/2000/svg">
<path fill-rule="evenodd" clip-rule="evenodd" d="M8.70711 4.29289L10.7071 6.29289C11.0976 6.68342 11.0976 7.31658 10.7071 7.70711C10.3166 8.09763 9.68342 8.09763 9.29289 7.70711L9 7.41421V19C9 19.5523 8.55228 20 8 20C7.44772 20 7 19.5523 7 19V7.41421L6.70711 7.70711C6.31658 8.09763 5.68342 8.09763 5.29289 7.70711C4.90237 7.31658 4.90237 6.68342 5.29289 6.29289L7.29289 4.29289C7.68342 3.90237 8.31658 3.90237 8.70711 4.29289Z" fill="#777B92"/>
<path fill-rule="evenodd" clip-rule="evenodd" d="M11.5154 9.72754H17.4884V10.9953H15.2618V17.0003H13.7419V10.9953H11.5154V9.72754Z" fill="#777B92"/>
</svg>
