<svg width="24" height="24" viewBox="0 0 24 24" fill="none" xmlns="http://www.w3.org/2000/svg">
<path fill-rule="evenodd" clip-rule="evenodd" d="M12 9C12.5523 9 13 9.44772 13 10V11H14C14.5523 11 15 11.4477 15 12C15 12.5523 14.5523 13 14 13H13V14C13 14.5523 12.5523 15 12 15C11.4477 15 11 14.5523 11 14V13H10C9.44771 13 9 12.5523 9 12C9 11.4477 9.44771 11 10 11H11V10C11 9.44772 11.4477 9 12 9Z" fill="#777B92"/>
<path fill-rule="evenodd" clip-rule="evenodd" d="M2 3H22C23.1046 3 24 3.89543 24 5V19C24 20.1046 23.1046 21 22 21H2C0.895432 21 0 20.1046 0 19V5C0 3.89543 0.895431 3 2 3ZM2 5V19H22V5H2Z" fill="#777B92"/>
</svg>
