<svg width="24" height="24" viewBox="0 0 24 24" fill="none" xmlns="http://www.w3.org/2000/svg">
<path fill-rule="evenodd" clip-rule="evenodd" d="M15 10V11H16C16.5523 11 17 11.4477 17 12C17 12.5523 16.5523 13 16 13H15V14C15 14.5523 14.5523 15 14 15C13.4477 15 13 14.5523 13 14V13H12C11.4477 13 11 12.5523 11 12C11 11.4477 11.4477 11 12 11H13V10C13 9.44772 13.4477 9 14 9C14.5523 9 15 9.44772 15 10Z" fill="#777B92"/>
<path fill-rule="evenodd" clip-rule="evenodd" d="M5 12C5 7.02944 9.02944 3 14 3C18.9706 3 23 7.02944 23 12C23 16.9706 18.9706 21 14 21C9.02944 21 5 16.9706 5 12ZM14 5C10.134 5 7 8.13401 7 12C7 15.866 10.134 19 14 19C17.866 19 21 15.866 21 12C21 8.13401 17.866 5 14 5Z" fill="#777B92"/>
<path fill-rule="evenodd" clip-rule="evenodd" d="M5.68086 5.73242C4.04282 7.25517 3 9.49281 3 12C3 14.5072 4.04282 16.7448 5.68086 18.2676C6.08536 18.6436 6.10844 19.2764 5.73241 19.6809C5.35638 20.0854 4.72364 20.1084 4.31914 19.7324C2.27781 17.8348 1 15.068 1 12C1 8.93196 2.27781 6.16525 4.31914 4.26759C4.72364 3.89156 5.35638 3.91464 5.73241 4.31914C6.10844 4.72364 6.08536 5.35639 5.68086 5.73242Z" fill="#777B92"/>
</svg>
