<svg width="24" height="24" viewBox="0 0 24 24" fill="none" xmlns="http://www.w3.org/2000/svg">
<path fill-rule="evenodd" clip-rule="evenodd" d="M9 10C9 9.44771 9.44772 9 10 9H11V8C11 7.44772 11.4477 7 12 7C12.5523 7 13 7.44772 13 8V9H14C14.5523 9 15 9.44772 15 10C15 10.5523 14.5523 11 14 11H13V12C13 12.5523 12.5523 13 12 13C11.4477 13 11 12.5523 11 12V11H10C9.44772 11 9 10.5523 9 10Z" fill="#777B92"/>
<path fill-rule="evenodd" clip-rule="evenodd" d="M18 2C19.1046 2 20 2.89543 20 4L20 13.5858C20 14.1162 19.7893 14.6249 19.4142 15L13.4142 21C12.6332 21.781 11.3668 21.781 10.5858 21L4.58579 15C4.21071 14.6249 4 14.1162 4 13.5858L4 4C4 2.89543 4.89543 2 6 2L18 2ZM6 13.5858L12 19.5858L18 13.5858V4L6 4L6 13.5858Z" fill="#777B92"/>
</svg>
