<svg width="24" height="24" viewBox="0 0 24 24" fill="none" xmlns="http://www.w3.org/2000/svg">
<path fill-rule="evenodd" clip-rule="evenodd" d="M20 2C20.5523 2 21 2.44772 21 3V4H22C22.5523 4 23 4.44772 23 5C23 5.55228 22.5523 6 22 6H21V7C21 7.55228 20.5523 8 20 8C19.4477 8 19 7.55228 19 7V6H18C17.4477 6 17 5.55228 17 5C17 4.44772 17.4477 4 18 4H19V3C19 2.44772 19.4477 2 20 2Z" fill="#777B92"/>
<path fill-rule="evenodd" clip-rule="evenodd" d="M2 4H3.2362C4.13811 4 4.92843 4.60364 5.16573 5.47377L5.85745 8.01008C5.90401 8.00344 5.9516 8 6 8H17.4835C18.9193 8 19.8874 9.4681 19.3218 10.7878L17.1789 15.7878C16.8637 16.5232 16.1407 17 15.3406 17H7.7638C6.8619 17 6.07158 16.3964 5.83427 15.5262L3.2362 6H2C1.44772 6 1 5.55228 1 5C1 4.44772 1.44772 4 2 4ZM7.7638 15L15.3406 15L17.4835 10L6.40016 10L7.7638 15Z" fill="#777B92"/>
<path fill-rule="evenodd" clip-rule="evenodd" d="M18 20.5C18 21.3284 17.3284 22 16.5 22C15.6716 22 15 21.3284 15 20.5C15 19.6716 15.6716 19 16.5 19C17.3284 19 18 19.6716 18 20.5Z" fill="#777B92"/>
<path fill-rule="evenodd" clip-rule="evenodd" d="M6.5 22C7.32843 22 8 21.3284 8 20.5C8 19.6716 7.32843 19 6.5 19C5.67157 19 5 19.6716 5 20.5C5 21.3284 5.67157 22 6.5 22Z" fill="#777B92"/>
</svg>
