<svg width="16" height="16" viewBox="0 0 16 16" fill="none" xmlns="http://www.w3.org/2000/svg">
<path fill-rule="evenodd" clip-rule="evenodd" d="M8.5 1V4C8.5 4.27614 8.27614 4.5 8 4.5C7.72386 4.5 7.5 4.27614 7.5 4V1C7.5 0.723858 7.72386 0.5 8 0.5C8.27614 0.5 8.5 0.723858 8.5 1Z" fill="#777B92"/>
<path fill-rule="evenodd" clip-rule="evenodd" d="M3.40381 2.40385C0.865398 4.94225 0.865398 9.05783 3.40381 11.5962C3.59907 11.7915 3.59907 12.1081 3.40381 12.3033C3.20854 12.4986 2.89196 12.4986 2.6967 12.3033C-0.232233 9.37441 -0.232233 4.62567 2.6967 1.69674C2.89196 1.50148 3.20854 1.50148 3.40381 1.69674C3.59907 1.892 3.59907 2.20858 3.40381 2.40385Z" fill="#777B92"/>
<path fill-rule="evenodd" clip-rule="evenodd" d="M13.3033 1.69674C16.2322 4.62567 16.2322 9.37441 13.3033 12.3033C13.108 12.4986 12.7915 12.4986 12.5962 12.3033C12.4009 12.1081 12.4009 11.7915 12.5962 11.5962C15.1346 9.05783 15.1346 4.94225 12.5962 2.40385C12.4009 2.20858 12.4009 1.892 12.5962 1.69674C12.7915 1.50148 13.108 1.50148 13.3033 1.69674Z" fill="#777B92"/>
<path fill-rule="evenodd" clip-rule="evenodd" d="M5.52513 3.81808C5.72039 4.01334 5.72039 4.32992 5.52513 4.52518C4.15829 5.89202 4.15829 8.1081 5.52513 9.47493C5.72039 9.67019 5.72039 9.98678 5.52513 10.182C5.32986 10.3773 5.01328 10.3773 4.81802 10.182C3.06066 8.42468 3.06066 5.57544 4.81802 3.81808C5.01328 3.62282 5.32986 3.62282 5.52513 3.81808Z" fill="#777B92"/>
<path fill-rule="evenodd" clip-rule="evenodd" d="M10.4749 3.81808C10.6701 3.62282 10.9867 3.62282 11.182 3.81808C12.9393 5.57544 12.9393 8.42468 11.182 10.182C10.9867 10.3773 10.6701 10.3773 10.4749 10.182C10.2796 9.98678 10.2796 9.67019 10.4749 9.47493C11.8417 8.1081 11.8417 5.89202 10.4749 4.52518C10.2796 4.32992 10.2796 4.01334 10.4749 3.81808Z" fill="#777B92"/>
<path fill-rule="evenodd" clip-rule="evenodd" d="M9 7C9 7.55228 8.55228 8 8 8C7.44772 8 7 7.55228 7 7C7 6.44772 7.44772 6 8 6C8.55228 6 9 6.44772 9 7Z" fill="#777B92"/>
<path fill-rule="evenodd" clip-rule="evenodd" d="M8 9.5C8.27614 9.5 8.5 9.72386 8.5 10V15C8.5 15.2761 8.27614 15.5 8 15.5C7.72386 15.5 7.5 15.2761 7.5 15L7.5 10C7.5 9.72386 7.72386 9.5 8 9.5Z" fill="#777B92"/>
</svg>
