<svg width="16" height="16" viewBox="0 0 16 16" fill="none" xmlns="http://www.w3.org/2000/svg">
<path fill-rule="evenodd" clip-rule="evenodd" d="M8.00009 1.5C7.00654 1.5 6.0407 1.61582 5.11506 1.83447C4.84631 1.89795 4.57699 1.73155 4.5135 1.4628C4.45002 1.19406 4.61642 0.924731 4.88517 0.861249C5.88559 0.624934 6.92857 0.5 8.00009 0.5C10.6455 0.5 13.1146 1.26141 15.1984 2.57723C15.4319 2.72467 15.5017 3.03347 15.3542 3.26696C15.2068 3.50045 14.898 3.57021 14.6645 3.42277C12.7358 2.20488 10.451 1.5 8.00009 1.5Z" fill="#777B92"/>
<path fill-rule="evenodd" clip-rule="evenodd" d="M9 14C9 14.5523 8.55228 15 8 15C7.44772 15 7 14.5523 7 14C7 13.4477 7.44772 13 8 13C8.55228 13 9 13.4477 9 14Z" fill="#777B92"/>
<path fill-rule="evenodd" clip-rule="evenodd" d="M5.68536 11.3749C5.47833 11.5576 5.16236 11.5379 4.97963 11.3309C4.7969 11.1238 4.8166 10.8079 5.02363 10.6251C5.8166 9.92524 6.85941 9.5 8.00032 9.5C8.27646 9.5 8.50032 9.72386 8.50032 10C8.50032 10.2761 8.27646 10.5 8.00032 10.5C7.11234 10.5 6.30266 10.83 5.68536 11.3749Z" fill="#777B92"/>
<path fill-rule="evenodd" clip-rule="evenodd" d="M1.64645 1.64645C1.84171 1.45118 2.15829 1.45118 2.35355 1.64645L14.3536 13.6464C14.5488 13.8417 14.5488 14.1583 14.3536 14.3536C14.1583 14.5488 13.8417 14.5488 13.6464 14.3536L1.64645 2.35355C1.45118 2.15829 1.45118 1.84171 1.64645 1.64645Z" fill="#777B92"/>
<path fill-rule="evenodd" clip-rule="evenodd" d="M8.00005 5.5C9.77225 5.5 11.4192 6.0429 12.7816 6.97152C13.0098 7.12704 13.0687 7.43809 12.9132 7.66628C12.7577 7.89446 12.4466 7.95336 12.2185 7.79784C11.0167 6.97879 9.56505 6.5 8.00005 6.5C7.72391 6.5 7.50005 6.27614 7.50005 6C7.50005 5.72386 7.72391 5.5 8.00005 5.5Z" fill="#777B92"/>
<path fill-rule="evenodd" clip-rule="evenodd" d="M4.36664 7.4372C4.16584 7.54863 3.97066 7.66902 3.78164 7.79784C3.55346 7.95336 3.24241 7.89446 3.08688 7.66628C2.93136 7.43809 2.99027 7.12704 3.21845 6.97152C3.43261 6.82556 3.65381 6.68911 3.88144 6.5628C4.1229 6.42881 4.42726 6.51594 4.56124 6.7574C4.69523 6.99886 4.6081 7.30322 4.36664 7.4372Z" fill="#777B92"/>
</svg>
