<svg width="24" height="24" viewBox="0 0 24 24" fill="none" xmlns="http://www.w3.org/2000/svg">
<path fill-rule="evenodd" clip-rule="evenodd" d="M16.7071 9.29289C17.0976 9.68342 17.0976 10.3166 16.7071 10.7071L15.4142 12L16.7071 13.2929C17.0976 13.6834 17.0976 14.3166 16.7071 14.7071C16.3166 15.0976 15.6834 15.0976 15.2929 14.7071L14 13.4142L12.7071 14.7071C12.3166 15.0976 11.6834 15.0976 11.2929 14.7071C10.9024 14.3166 10.9024 13.6834 11.2929 13.2929L12.5858 12L11.2929 10.7071C10.9024 10.3166 10.9024 9.68342 11.2929 9.29289C11.6834 8.90237 12.3166 8.90237 12.7071 9.29289L14 10.5858L15.2929 9.29289C15.6834 8.90237 16.3166 8.90237 16.7071 9.29289Z" fill="#777B92"/>
<path fill-rule="evenodd" clip-rule="evenodd" d="M8.99985 4.58579C9.37492 4.21071 9.88363 4 10.4141 4H19.9998C21.1044 4 21.9998 4.89543 21.9998 6V18C21.9998 19.1046 21.1044 20 19.9998 20H10.4141C9.88363 20 9.37492 19.7893 8.99985 19.4142L2.99985 13.4142C2.2188 12.6332 2.2188 11.3668 2.99985 10.5858L8.99985 4.58579ZM19.9998 6L10.4141 6L4.41406 12L10.4141 18H19.9998V6Z" fill="#777B92"/>
</svg>
