<svg width="24" height="24" viewBox="0 0 24 24" fill="none" xmlns="http://www.w3.org/2000/svg">
<path fill-rule="evenodd" clip-rule="evenodd" d="M13 2V2.2795L14.0684 2.63565C14.2141 2.26354 14.5763 2 15 2C15.5523 2 16 2.44772 16 3V4.71065L16 4.72103V6C16.5523 6.00001 17 6.44772 17 7C17 7.55228 16.5523 8 16 8H15.0236L15 8.00027L14.9765 8H9.02353L9 8.00027L8.97647 8H8C7.44772 8 7 7.55228 7 7C7 6.44772 7.44772 6 8 6V3C8 2.44772 8.44772 2 9 2C9.42373 2 9.78591 2.26354 9.93155 2.63566L11 2.27951V2C11 1.44772 11.4477 1 12 1C12.5523 1 13 1.44772 13 2ZM10 6H14V5.00739L14 5V4.72102L12.9314 4.36481C12.7856 4.73668 12.4236 5 12 5C11.5765 5 11.2144 4.73668 11.0686 4.36482L10 4.72103V6Z" fill="#777B92"/>
<path fill-rule="evenodd" clip-rule="evenodd" d="M10.1135 9.66703C10.3886 10.4452 11.1307 11.0003 12 11.0003C12.8692 11.0003 13.6114 10.4452 13.8864 9.66703C14.0705 9.14631 14.6418 8.87339 15.1625 9.05743C15.6832 9.24148 15.9562 9.8128 15.7721 10.3335C15.2235 11.8858 13.7432 13.0003 12 13.0003C10.2568 13.0003 8.77648 11.8858 8.22784 10.3335C8.0438 9.8128 8.31672 9.24148 8.83744 9.05743C9.35815 8.87339 9.92948 9.14631 10.1135 9.66703Z" fill="#777B92"/>
<path fill-rule="evenodd" clip-rule="evenodd" d="M7 22C7 22.5523 6.55228 23 6 23C5.44772 23 5 22.5523 5 22C5 18.134 8.13401 15 12 15C15.866 15 19 18.134 19 22C19 22.5523 18.5523 23 18 23C17.4477 23 17 22.5523 17 22C17 19.2386 14.7614 17 12 17C9.23858 17 7 19.2386 7 22Z" fill="#777B92"/>
</svg>
