<svg width="24" height="24" viewBox="0 0 24 24" fill="none" xmlns="http://www.w3.org/2000/svg">
<path fill-rule="evenodd" clip-rule="evenodd" d="M17 4H18C19.1046 4 20 4.89543 20 6V18C20 19.1046 19.1046 20 18 20H17C16.4477 20 16 19.5523 16 19C16 18.4477 16.4477 18 17 18H18V6H17C16.4477 6 16 5.55228 16 5C16 4.44772 16.4477 4 17 4Z" fill="#777B92"/>
<path fill-rule="evenodd" clip-rule="evenodd" d="M8.8 8.60006L7 11.0001H15C15.5523 11.0001 16 11.4478 16 12.0001C16 12.5523 15.5523 13.0001 15 13.0001H7L8.8 15.4001C9.13137 15.8419 9.04183 16.4687 8.6 16.8001C8.15817 17.1314 7.53137 17.0419 7.2 16.6001L4.2 12.6001C3.93333 12.2445 3.93333 11.7556 4.2 11.4001L7.2 7.40006C7.53137 6.95823 8.15817 6.86869 8.6 7.20006C9.04183 7.53143 9.13137 8.15823 8.8 8.60006Z" fill="#777B92"/>
</svg>
