<svg width="24" height="24" viewBox="0 0 24 24" fill="none" xmlns="http://www.w3.org/2000/svg">
<path fill-rule="evenodd" clip-rule="evenodd" d="M11.1056 2.32931C11.6687 2.04778 12.3314 2.04778 12.8945 2.32931L19.8945 5.82931C20.5664 6.16525 21.0191 6.86877 20.9865 7.66129C20.6683 15.3947 14.8703 20.1677 13.1019 21.4546C12.442 21.9349 11.5581 21.9349 10.8982 21.4546C9.12976 20.1677 3.33182 15.3947 3.01362 7.66129C2.98101 6.86877 3.43374 6.16525 4.10562 5.82931L11.1056 2.32931ZM18.9868 7.61154L12 4.11816L5.0133 7.61154C5.3023 14.2574 10.262 18.5006 12 19.7826C13.7381 18.5006 18.6978 14.2574 18.9868 7.61154ZM19 7.61816C19.0001 7.61821 19.0001 7.61821 19 7.61815L19 7.61816ZM5.00005 7.61816L5.00007 7.61815L5.00005 7.61816Z" fill="#777B92"/>
</svg>
