<svg width="16" height="16" viewBox="0 0 16 16" fill="none" xmlns="http://www.w3.org/2000/svg">
<path fill-rule="evenodd" clip-rule="evenodd" d="M5.35355 0.646447L8 3.29289L10.6464 0.646447C10.8417 0.451184 11.1583 0.451184 11.3536 0.646447C11.5488 0.841709 11.5488 1.15829 11.3536 1.35355L9.20711 3.5H13C13.8284 3.5 14.5 4.17157 14.5 5V14C14.5 14.8284 13.8284 15.5 13 15.5H3C2.17157 15.5 1.5 14.8284 1.5 14V5C1.5 4.17157 2.17157 3.5 3 3.5H6.79289L4.64645 1.35355C4.45118 1.15829 4.45118 0.841709 4.64645 0.646447C4.84171 0.451184 5.15829 0.451184 5.35355 0.646447ZM8.00035 4.5C8.00058 4.5 8.00012 4.5 8.00035 4.5H3C2.72386 4.5 2.5 4.72386 2.5 5V14C2.5 14.2761 2.72386 14.5 3 14.5H13C13.2761 14.5 13.5 14.2761 13.5 14V5C13.5 4.72386 13.2761 4.5 13 4.5H8.00035Z" fill="#777B92"/>
</svg>
