<svg width="16" height="16" viewBox="0 0 16 16" fill="none" xmlns="http://www.w3.org/2000/svg">
<path fill-rule="evenodd" clip-rule="evenodd" d="M3 0.5H13C13.8284 0.5 14.5 1.17157 14.5 2V10C14.5 10.8284 13.8284 11.5 13 11.5H3C2.17157 11.5 1.5 10.8284 1.5 10V2C1.5 1.17157 2.17157 0.5 3 0.5ZM2.5 2V10C2.5 10.2761 2.72386 10.5 3 10.5H13C13.2761 10.5 13.5 10.2761 13.5 10V2C13.5 1.72386 13.2761 1.5 13 1.5H3C2.72386 1.5 2.5 1.72386 2.5 2Z" fill="#777B92"/>
<path fill-rule="evenodd" clip-rule="evenodd" d="M1 14.5H15C15.2761 14.5 15.5 14.7239 15.5 15C15.5 15.2761 15.2761 15.5 15 15.5H1C0.723858 15.5 0.5 15.2761 0.5 15C0.5 14.7239 0.723858 14.5 1 14.5Z" fill="#777B92"/>
</svg>
