<svg width="16" height="16" viewBox="0 0 16 16" fill="none" xmlns="http://www.w3.org/2000/svg">
<path fill-rule="evenodd" clip-rule="evenodd" d="M2 2.5H14C14.8284 2.5 15.5 3.17157 15.5 4V9C15.5 9.82843 14.8284 10.5 14 10.5H2C1.17157 10.5 0.5 9.82843 0.5 9V4C0.5 3.17157 1.17157 2.5 2 2.5ZM1.5 4V9C1.5 9.27614 1.72386 9.5 2 9.5H14C14.2761 9.5 14.5 9.27614 14.5 9V4C14.5 3.72386 14.2761 3.5 14 3.5H2C1.72386 3.5 1.5 3.72386 1.5 4Z" fill="#777B92"/>
<path fill-rule="evenodd" clip-rule="evenodd" d="M3 12.5H7C7.27614 12.5 7.5 12.7239 7.5 13C7.5 13.2761 7.27614 13.5 7 13.5H3C2.72386 13.5 2.5 13.2761 2.5 13C2.5 12.7239 2.72386 12.5 3 12.5Z" fill="#777B92"/>
<path fill-rule="evenodd" clip-rule="evenodd" d="M11.5 13C11.5 12.7239 11.7239 12.5 12 12.5H13C13.2761 12.5 13.5 12.7239 13.5 13C13.5 13.2761 13.2761 13.5 13 13.5H12C11.7239 13.5 11.5 13.2761 11.5 13Z" fill="#777B92"/>
<path fill-rule="evenodd" clip-rule="evenodd" d="M9 12.5H10C10.2761 12.5 10.5 12.7239 10.5 13C10.5 13.2761 10.2761 13.5 10 13.5H9C8.72386 13.5 8.5 13.2761 8.5 13C8.5 12.7239 8.72386 12.5 9 12.5Z" fill="#777B92"/>
</svg>
