<svg width="16" height="16" viewBox="0 0 16 16" fill="none" xmlns="http://www.w3.org/2000/svg">
<path fill-rule="evenodd" clip-rule="evenodd" d="M8 3.5C9.38071 3.5 10.5 4.61929 10.5 6C10.5 7.38071 9.38071 8.5 8 8.5C6.61929 8.5 5.5 7.38071 5.5 6C5.5 4.61929 6.61929 3.5 8 3.5ZM6.5 6C6.5 6.82843 7.17157 7.5 8 7.5C8.82843 7.5 9.5 6.82843 9.5 6C9.5 5.17157 8.82843 4.5 8 4.5C7.17157 4.5 6.5 5.17157 6.5 6Z" fill="#777B92"/>
<path fill-rule="evenodd" clip-rule="evenodd" d="M3 0.5H13C13.8284 0.5 14.5 1.17157 14.5 2V10C14.5 10.8284 13.8284 11.5 13 11.5H3C2.17157 11.5 1.5 10.8284 1.5 10V2C1.5 1.17157 2.17157 0.5 3 0.5ZM2.5 2V10C2.5 10.2761 2.72386 10.5 3 10.5H13C13.2761 10.5 13.5 10.2761 13.5 10V2C13.5 1.72386 13.2761 1.5 13 1.5H3C2.72386 1.5 2.5 1.72386 2.5 2Z" fill="#777B92"/>
<path fill-rule="evenodd" clip-rule="evenodd" d="M10 13.5H14C14.2761 13.5 14.5 13.7239 14.5 14C14.5 14.2761 14.2761 14.5 14 14.5H10C9.72386 14.5 9.5 14.2761 9.5 14C9.5 13.7239 9.72386 13.5 10 13.5Z" fill="#777B92"/>
<path fill-rule="evenodd" clip-rule="evenodd" d="M5.64645 12.6464C5.84171 12.4512 6.15829 12.4512 6.35355 12.6464L7.35355 13.6464C7.54882 13.8417 7.54882 14.1583 7.35355 14.3536L6.35355 15.3536C6.15829 15.5488 5.84171 15.5488 5.64645 15.3536C5.45118 15.1583 5.45118 14.8417 5.64645 14.6464L5.79289 14.5H2C1.72386 14.5 1.5 14.2761 1.5 14C1.5 13.7239 1.72386 13.5 2 13.5H5.79289L5.64645 13.3536C5.45118 13.1583 5.45118 12.8417 5.64645 12.6464Z" fill="#777B92"/>
</svg>
