<svg width="22" height="22" viewBox="0 0 22 22" fill="none" xmlns="http://www.w3.org/2000/svg">
<path fill-rule="evenodd" clip-rule="evenodd" d="M13.6899 2C13.8616 2 14.0301 2.04617 14.1788 2.13387C14.3294 2.22274 14.4541 2.35108 14.5401 2.50565C14.626 2.66022 14.67 2.83543 14.6676 3.01319V19.0008C14.6676 19.2658 14.5646 19.5199 14.3812 19.7073C14.1979 19.8947 13.9492 20 13.6899 20C13.4921 19.9989 13.2988 19.94 13.1327 19.8301L6.86592 15.4335H1.97765C1.71836 15.4335 1.46969 15.3283 1.28635 15.1409C1.103 14.9535 1 14.6993 1 14.4343V7.57964C1 7.31463 1.103 7.06047 1.28635 6.87308C1.46969 6.68569 1.71836 6.58042 1.97765 6.58042H6.86592L13.2011 2.13387C13.3497 2.04617 13.5183 2 13.6899 2ZM7.72626 13.605L12.7416 17.1222L12.7123 4.91171L7.72626 8.409C7.56166 8.52208 7.36731 8.58132 7.16899 8.57887H2.93575V13.4351H7.16899C7.36731 13.4326 7.56166 13.4919 7.72626 13.605Z" fill="#97A3BA"/>
<path d="M18.7151 4.2423C18.6162 4.15832 18.5021 4.09506 18.3793 4.05614C18.2566 4.01722 18.1275 4.00339 17.9995 4.01546C17.8715 4.02752 17.7471 4.06523 17.6333 4.12644C17.5196 4.18765 17.4187 4.27116 17.3366 4.3722C17.2544 4.47324 17.1925 4.58983 17.1544 4.71532C17.1163 4.8408 17.1028 4.97273 17.1146 5.10356C17.1264 5.23438 17.1633 5.36156 17.2232 5.47781C17.2831 5.59407 17.3648 5.69712 17.4637 5.78111C18.2478 6.4005 18.8865 7.19122 19.333 8.09542C19.7796 8.99962 20.0228 9.99443 20.0447 11.007C20.0228 12.0197 19.7796 13.0145 19.333 13.9187C18.8865 14.8229 18.2478 15.6136 17.4637 16.233C17.3647 16.3169 17.2828 16.4199 17.2229 16.5362C17.1629 16.6524 17.1259 16.7796 17.1141 16.9105C17.1023 17.0414 17.1159 17.1733 17.1541 17.2988C17.1922 17.4243 17.2542 17.5409 17.3366 17.6419C17.4285 17.7547 17.5436 17.8454 17.6737 17.9076C17.8038 17.9697 17.9457 18.0019 18.0894 18.0016C18.3178 18.0021 18.5392 17.9208 18.7151 17.7718C19.7225 16.9668 20.5405 15.9413 21.109 14.7706C21.6775 13.5999 21.9819 12.3139 22 11.007C21.9819 9.70023 21.6775 8.41418 21.109 7.24348C20.5405 6.07279 19.7225 5.04725 18.7151 4.2423Z" fill="#97A3BA"/>
<path d="M17.3854 7.37968C17.2221 7.17298 16.985 7.04106 16.7265 7.01295C16.468 6.98484 16.2092 7.06284 16.0069 7.2298C15.8047 7.39676 15.6756 7.63899 15.6481 7.90321C15.6206 8.16743 15.6969 8.432 15.8603 8.63871C16.3542 9.32509 16.6206 10.1548 16.6206 11.0069C16.6206 11.8589 16.3542 12.6887 15.8603 13.375C15.7437 13.5219 15.6703 13.6995 15.6486 13.8873C15.6269 14.0751 15.6578 14.2653 15.7376 14.4359C15.8175 14.6064 15.943 14.7503 16.0997 14.8509C16.2564 14.9514 16.4378 15.0044 16.6228 15.0038C16.7689 15.0043 16.9132 14.9713 17.0452 14.9073C17.1771 14.8434 17.2934 14.75 17.3854 14.6341C18.1609 13.5909 18.5807 12.3169 18.5807 11.0069C18.5807 9.6968 18.1609 8.42279 17.3854 7.37968Z" fill="#97A3BA"/>
</svg>
