<svg width="22" height="22" viewBox="0 0 22 22" fill="none" xmlns="http://www.w3.org/2000/svg">
<path d="M16 20C15.7977 19.9989 15.5999 19.94 15.43 19.8302L9 15.4358H4C3.73478 15.4358 3.48043 15.3306 3.29289 15.1433C3.10536 14.956 3 14.7019 3 14.437V7.58572C3 7.32083 3.10536 7.0668 3.29289 6.8795C3.48043 6.6922 3.73478 6.58698 4 6.58698H9L15.41 2.19254C15.5606 2.08253 15.7391 2.01681 15.9252 2.00282C16.1113 1.98883 16.2976 2.02712 16.463 2.11337C16.6285 2.19962 16.7664 2.33038 16.8613 2.49087C16.9562 2.65136 17.0043 2.83516 17 3.02149V19.0013C17 19.2661 16.8946 19.5202 16.7071 19.7075C16.5196 19.8948 16.2652 20 16 20ZM5 13.4383H9.33C9.53284 13.4359 9.73164 13.4951 9.9 13.6081L15 17.1037V4.91909L9.9 8.41467C9.73164 8.52769 9.53284 8.58691 9.33 8.58445H5V13.4383Z" fill="#97A3BA"/>
</svg>
