<svg width="22" height="22" viewBox="0 0 22 22" fill="none" xmlns="http://www.w3.org/2000/svg">
<path d="M12.721 9.67233V4.90609L9.95681 6.84456L8.55029 5.40569L13.141 2.17824C13.2881 2.07384 13.4604 2.01281 13.6391 2.00181C13.8178 1.9908 13.996 2.03025 14.1543 2.11585C14.3125 2.20144 14.4448 2.32989 14.5365 2.48715C14.6283 2.64442 14.676 2.82445 14.6745 3.00759V11.6708L12.721 9.67233Z" fill="#97A3BA"/>
<path d="M4.13541 2.29825C4.04434 2.20509 3.93622 2.13119 3.81724 2.08077C3.69825 2.03035 3.57072 2.00439 3.44192 2.00439C3.31313 2.00439 3.1856 2.03035 3.06661 2.08077C2.94762 2.13119 2.8395 2.20509 2.74843 2.29825C2.56451 2.48641 2.46118 2.7416 2.46118 3.0077C2.46118 3.27379 2.56451 3.52898 2.74843 3.71714L18.3763 19.7045C18.4671 19.7982 18.5752 19.8725 18.6942 19.9233C18.8132 19.974 18.9409 20.0001 19.0698 20.0001C19.1988 20.0001 19.3264 19.974 19.4455 19.9233C19.5645 19.8725 19.6725 19.7982 19.7633 19.7045C19.8549 19.6116 19.9275 19.5011 19.9771 19.3794C20.0267 19.2576 20.0522 19.127 20.0522 18.9951C20.0522 18.8632 20.0267 18.7326 19.9771 18.6108C19.9275 18.4891 19.8549 18.3785 19.7633 18.2857L4.13541 2.29825Z" fill="#97A3BA"/>
<path d="M16.0516 13.0798L17.4581 14.5187C18.1976 13.478 18.5902 12.2215 18.5779 10.9349C18.5656 9.64839 18.149 8.40002 17.3898 7.37431C17.2266 7.1676 16.9898 7.03569 16.7315 7.00758C16.4732 6.97947 16.2146 7.05747 16.0125 7.22443C15.8105 7.39138 15.6815 7.63361 15.6541 7.89783C15.6266 8.16205 15.7028 8.42661 15.866 8.63332C16.3244 9.27216 16.5867 10.036 16.6198 10.8277C16.6528 11.6194 16.4551 12.4033 16.0516 13.0798Z" fill="#97A3BA"/>
<path d="M18.3078 15.3876C19.4053 14.2007 20.026 12.6348 20.0464 11.0011C20.0246 9.9885 19.7816 8.9937 19.3355 8.08951C18.8893 7.18532 18.2512 6.39461 17.4678 5.77522C17.3691 5.69125 17.2874 5.58819 17.2276 5.47193C17.1678 5.35568 17.1309 5.22851 17.1191 5.09768C17.1073 4.96686 17.1208 4.83493 17.1589 4.70945C17.1969 4.58396 17.2588 4.46737 17.3409 4.36634C17.423 4.2653 17.5237 4.18179 17.6373 4.12058C17.751 4.05937 17.8753 4.02166 18.0032 4.0096C18.1311 3.99753 18.26 4.01136 18.3827 4.05028C18.5053 4.0892 18.6193 4.15246 18.7181 4.23644C19.7246 5.04138 20.5418 6.06691 21.1098 7.23759C21.6777 8.40826 21.9819 9.6943 21.9999 11.0011C21.98 13.1655 21.1559 15.241 19.6948 16.8065L18.3078 15.3876Z" fill="#97A3BA"/>
<path d="M12.7209 17.0964L7.73953 13.5992C7.57509 13.4861 7.38092 13.4268 7.18279 13.4293H2.95349V8.57313H6.11814L4.16465 6.57471H1.97674C1.7177 6.57471 1.46926 6.67998 1.28608 6.86737C1.10291 7.05476 1 7.30891 1 7.57392V14.4285C1 14.6935 1.10291 14.9477 1.28608 15.1351C1.46926 15.3225 1.7177 15.4277 1.97674 15.4277H6.86047L13.1214 19.8243C13.2873 19.9341 13.4805 19.993 13.6781 19.9941C13.9372 19.9941 14.1856 19.8889 14.3688 19.7015C14.552 19.5141 14.6549 19.2599 14.6549 18.9949V17.3262L12.7014 15.3278L12.7209 17.0964Z" fill="#97A3BA"/>
</svg>
