<svg width="22" height="22" viewBox="0 0 22 22" fill="none" xmlns="http://www.w3.org/2000/svg">
<path fill-rule="evenodd" clip-rule="evenodd" d="M12.97 2C13.1455 2 13.318 2.04617 13.47 2.13387C13.6297 2.21883 13.7633 2.34548 13.8566 2.50033C13.95 2.65517 13.9995 2.83242 14 3.01318V19.0007C14 19.2657 13.8946 19.5199 13.7071 19.7072C13.5196 19.8946 13.2652 19.9999 13 19.9999C12.7909 20.0027 12.5856 19.9436 12.41 19.83L6 15.4335H1C0.734783 15.4335 0.48043 15.3282 0.292893 15.1408C0.105357 14.9534 0 14.6993 0 14.4343V7.57961C0 7.3146 0.105357 7.06045 0.292893 6.87306C0.48043 6.68567 0.734783 6.58039 1 6.58039H6L12.47 2.13387C12.622 2.04617 12.7945 2 12.97 2ZM6.9 13.6049L12 17.1022V4.9117L6.9 8.40897C6.73164 8.52205 6.53285 8.58129 6.33 8.57883H2V13.435H6.33C6.53285 13.4326 6.73164 13.4918 6.9 13.6049ZM17 10H21C21.2652 10 21.5196 10.1054 21.7071 10.2929C21.8946 10.4804 22 10.7348 22 11C22 11.2652 21.8946 11.5196 21.7071 11.7071C21.5196 11.8946 21.2652 12 21 12H17C16.7348 12 16.4804 11.8946 16.2929 11.7071C16.1054 11.5196 16 11.2652 16 11C16 10.7348 16.1054 10.4804 16.2929 10.2929C16.4804 10.1054 16.7348 10 17 10Z" fill="#97A3BA"/>
</svg>
