<svg width="24" height="24" viewBox="0 0 24 24" fill="none" xmlns="http://www.w3.org/2000/svg">
<path fill-rule="evenodd" clip-rule="evenodd" d="M11.8375 4.31551C13.1613 3.36999 15 4.31623 15 5.94298V18.2766C15 19.8123 13.341 20.775 12.0077 20.0131L6.73444 16.9998H3C1.89543 16.9998 1 16.1044 1 14.9998V9.99979C1 8.89522 1.89543 7.99979 3 7.99979H6.67953L11.8375 4.31551ZM13 5.94298L7.84201 9.62726C7.50281 9.86954 7.09638 9.99979 6.67953 9.99979H3V14.9998H6.73444C7.08249 14.9998 7.42452 15.0906 7.72671 15.2633L13 18.2766V5.94298Z" fill="#777B92"/>
<path fill-rule="evenodd" clip-rule="evenodd" d="M20 9C20.5523 9 21 9.44772 21 10V11H22C22.5523 11 23 11.4477 23 12C23 12.5523 22.5523 13 22 13H21V14C21 14.5523 20.5523 15 20 15C19.4477 15 19 14.5523 19 14V13H18C17.4477 13 17 12.5523 17 12C17 11.4477 17.4477 11 18 11H19V10C19 9.44772 19.4477 9 20 9Z" fill="#777B92"/>
</svg>
