<svg width="22" height="22" viewBox="0 0 22 22" fill="none" xmlns="http://www.w3.org/2000/svg">
<path d="M8.93939 5.06415C8.93939 4.51911 9.15224 3.9964 9.5311 3.611C9.90996 3.2256 10.4238 3.00909 10.9596 3.00909C11.4954 3.00909 12.0092 3.2256 12.3881 3.611C12.767 3.9964 12.9798 4.51911 12.9798 5.06415V10.2018C12.9841 10.2565 12.9841 10.3115 12.9798 10.3662L14.596 12C14.8628 11.4395 15.001 10.8246 15 10.2018V5.06415C14.9888 4.04915 14.6088 3.07426 13.9332 2.32726C13.2576 1.58026 12.3342 1.11401 11.3408 1.01831C10.3474 0.922619 9.35429 1.20425 8.55284 1.80896C7.75139 2.41367 7.19826 3.29868 7 4.2935L8.93939 6.26637V5.06415Z" fill="#97A3BA"/>
<path d="M18.0001 10C18.0001 9.73478 17.8947 9.48043 17.7072 9.29289C17.5196 9.10536 17.2653 9 17.0001 9C16.7348 9 16.4805 9.10536 16.293 9.29289C16.1054 9.48043 16.0001 9.73478 16.0001 10C15.9972 10.8737 15.7588 11.7304 15.3101 12.48L16.7801 14C17.5848 12.8221 18.0105 11.4265 18.0001 10Z" fill="#97A3BA"/>
<path d="M11.16 14.0001H11C9.93913 14.0001 8.92172 13.5787 8.17157 12.8285C7.42143 12.0784 7 11.0609 7 10.0001V9.83008L11.16 14.0001Z" fill="#97A3BA"/>
<path d="M19.7044 18.2851L3.71315 2.29393C3.61996 2.20074 3.50933 2.12682 3.38758 2.07639C3.26582 2.02596 3.13533 2 3.00354 2C2.87175 2 2.74126 2.02596 2.6195 2.07639C2.49775 2.12682 2.38712 2.20074 2.29393 2.29393C2.10573 2.48213 2 2.73739 2 3.00354C2 3.2697 2.10573 3.52495 2.29393 3.71315L18.2851 19.7044C18.3781 19.798 18.4886 19.8724 18.6104 19.9231C18.7322 19.9739 18.8628 20 18.9948 20C19.1267 20 19.2573 19.9739 19.3791 19.9231C19.5009 19.8724 19.6115 19.798 19.7044 19.7044C19.798 19.6115 19.8724 19.5009 19.9231 19.3791C19.9739 19.2573 20 19.1267 20 18.9948C20 18.8628 19.9739 18.7322 19.9231 18.6104C19.8724 18.4886 19.798 18.3781 19.7044 18.2851Z" fill="#97A3BA"/>
<path d="M12 19H14C14.2652 19 14.5196 19.1054 14.7071 19.2929C14.8946 19.4804 15 19.7348 15 20C15 20.2652 14.8946 20.5196 14.7071 20.7071C14.5196 20.8946 14.2652 21 14 21H8C7.73478 21 7.48043 20.8946 7.29289 20.7071C7.10536 20.5196 7 20.2652 7 20C7 19.7348 7.10536 19.4804 7.29289 19.2929C7.48043 19.1054 7.73478 19 8 19H10V16.92C8.3354 16.6797 6.81295 15.8482 5.71118 14.5775C4.60941 13.3068 4.00197 11.6818 4 10C4 9.73478 4.10536 9.48043 4.29289 9.29289C4.48043 9.10536 4.73478 9 5 9C5.26522 9 5.51957 9.10536 5.70711 9.29289C5.89464 9.48043 6 9.73478 6 10C6 11.3261 6.52678 12.5979 7.46447 13.5355C8.40215 14.4732 9.67392 15 11 15C11.3535 15.0007 11.7058 14.9605 12.05 14.88L13.65 16.48C13.12 16.6935 12.5659 16.8412 12 16.92V19Z" fill="#97A3BA"/>
</svg>
