<svg width="24" height="24" viewBox="0 0 24 24" fill="none" xmlns="http://www.w3.org/2000/svg">
<path fill-rule="evenodd" clip-rule="evenodd" d="M16.9487 7.68404C17.1233 8.20799 16.8402 8.77431 16.3162 8.94895L14 9.72103V14L14 14.0035C13.9981 15.6587 12.6557 17 11 17C9.34315 17 8 15.6569 8 14C8 12.3431 9.34315 11 11 11C11.3506 11 11.6872 11.0602 12 11.1707V9.72103C12 8.86017 12.5509 8.09589 13.3675 7.82366L15.6838 7.05159C16.2077 6.87694 16.774 7.1601 16.9487 7.68404ZM11 13C10.4477 13 10 13.4477 10 14C10 14.5523 10.4477 15 11 15C11.5523 15 12 14.5523 12 14C12 13.4477 11.5523 13 11 13Z" fill="#777B92"/>
<path fill-rule="evenodd" clip-rule="evenodd" d="M12 2C17.5228 2 22 6.47715 22 12C22 17.5228 17.5228 22 12 22C6.47715 22 2 17.5228 2 12C2 6.47715 6.47715 2 12 2ZM4 12C4 16.4183 7.58172 20 12 20C16.4183 20 20 16.4183 20 12C20 7.58172 16.4183 4 12 4C7.58172 4 4 7.58172 4 12Z" fill="#777B92"/>
</svg>
