<svg width="22" height="22" viewBox="0 0 22 22" fill="none" xmlns="http://www.w3.org/2000/svg">
<path fill-rule="evenodd" clip-rule="evenodd" d="M13.97 2C14.1455 2 14.318 2.04617 14.47 2.13387C14.6297 2.21883 14.7633 2.34548 14.8566 2.50033C14.95 2.65517 14.9995 2.83242 15 3.01318V19.0007C15 19.2657 14.8946 19.5199 14.7071 19.7072C14.5196 19.8946 14.2652 19.9999 14 19.9999C13.7909 20.0027 13.5856 19.9436 13.41 19.83L7 15.4335H2C1.73478 15.4335 1.48043 15.3282 1.29289 15.1408C1.10536 14.9534 1 14.6993 1 14.4343V7.57961C1 7.3146 1.10536 7.06045 1.29289 6.87306C1.48043 6.68567 1.73478 6.58039 2 6.58039H7L13.47 2.13387C13.622 2.04617 13.7945 2 13.97 2ZM7.9 13.6049L13 17.1022V4.9117L7.9 8.40897C7.73164 8.52205 7.53285 8.58129 7.33 8.57883H3V13.435H7.33C7.53285 13.4326 7.73164 13.4918 7.9 13.6049Z" fill="#97A3BA"/>
<path d="M21.3583 9.07945C21.4841 9.13189 21.5984 9.20875 21.6944 9.30557C21.7913 9.4016 21.8681 9.51586 21.9206 9.64174C21.973 9.76763 22 9.90265 22 10.039C22 10.1754 21.973 10.3104 21.9206 10.4363C21.8681 10.5622 21.7913 10.6764 21.6944 10.7725L20.9566 11.5L21.6944 12.2274C21.7912 12.3235 21.8681 12.4377 21.9205 12.5636C21.973 12.6895 22 12.8245 22 12.9609C22 13.0973 21.973 13.2323 21.9205 13.3582C21.8681 13.4841 21.7912 13.5983 21.6944 13.6944C21.5984 13.7912 21.4841 13.868 21.3582 13.9205C21.2324 13.9729 21.0973 13.9999 20.961 13.9999C20.8246 13.9999 20.6896 13.9729 20.5637 13.9205C20.4378 13.868 20.3235 13.7912 20.2275 13.6944L19.5 12.9566L18.7725 13.6944C18.6765 13.7912 18.5622 13.8681 18.4363 13.9205C18.3105 13.973 18.1754 14 18.0391 14C17.9027 14 17.7677 13.973 17.6418 13.9205C17.5159 13.8681 17.4016 13.7912 17.3056 13.6944C17.2088 13.5984 17.1319 13.4841 17.0795 13.3582C17.027 13.2323 17 13.0973 17 12.9609C17 12.8246 17.027 12.6895 17.0795 12.5637C17.1319 12.4378 17.2088 12.3235 17.3056 12.2275L18.0434 11.5L17.3055 10.7726C17.111 10.5781 17.0017 10.3142 17.0017 10.0392C17.0017 9.76405 17.111 9.50022 17.3055 9.30569C17.5 9.11117 17.7639 9.00189 18.039 9.00189C18.3141 9.00189 18.5779 9.11117 18.7724 9.30569L19.5 10.0434L20.2275 9.30557C20.3236 9.20875 20.4378 9.13189 20.5637 9.07945C20.6896 9.027 20.8246 9 20.961 9C21.0973 9 21.2324 9.027 21.3583 9.07945Z" fill="#97A3BA"/>
</svg>
