<svg width="22" height="22" viewBox="0 0 22 22" fill="none" xmlns="http://www.w3.org/2000/svg">
<path fill-rule="evenodd" clip-rule="evenodd" d="M10 10C10.3506 10 10.6872 10.0602 11 10.1707V7.8198C11 7.34312 11.3365 6.93271 11.8039 6.83922L14.8271 6.23458C15.4339 6.11322 16 6.57732 16 7.19612C16 7.66354 15.6701 8.06599 15.2117 8.15765L13 8.6V13C13 14.6569 11.6569 16 10 16C8.34315 16 7 14.6569 7 13C7 11.3431 8.34315 10 10 10ZM9 13C9 12.4477 9.44772 12 10 12C10.5523 12 11 12.4477 11 13C11 13.5523 10.5523 14 10 14C9.44772 14 9 13.5523 9 13Z" fill="#97A3BA"/>
<path fill-rule="evenodd" clip-rule="evenodd" d="M4 1C2.34315 1 1 2.34315 1 4V18C1 19.6569 2.34315 21 4 21H18C19.6569 21 21 19.6569 21 18V4C21 2.34315 19.6569 1 18 1H4ZM3 4C3 3.44772 3.44772 3 4 3H18C18.5523 3 19 3.44772 19 4V18C19 18.5523 18.5523 19 18 19H4C3.44772 19 3 18.5523 3 18V4Z" fill="#97A3BA"/>
</svg>
