<svg width="22" height="22" viewBox="0 0 22 22" fill="none" xmlns="http://www.w3.org/2000/svg">
<path d="M17.9919 14.7339C17.9969 14.6596 17.9996 14.5849 17.9999 14.5101C18.0094 14.3402 18.0094 14.17 17.9999 14.0001V3.00009C17.9992 2.84988 17.9647 2.70176 17.8989 2.56673C17.8332 2.4317 17.7378 2.31322 17.6199 2.22009C17.5038 2.12611 17.368 2.05936 17.2226 2.02475C17.0773 1.99014 16.926 1.98855 16.7799 2.02009L7.77994 4.02009C7.65404 4.04848 7.53578 4.10074 7.43111 4.17313L9.04754 5.78955L15.9999 4.25009V11.3401C15.4589 11.0847 14.8639 10.9737 14.2721 11.0142L17.9919 14.7339Z" fill="#97A3BA"/>
<path d="M11.0263 14.2853L14.7207 17.9797C14.2286 18.0095 13.7327 17.9348 13.2666 17.757C12.5608 17.4879 11.9614 16.9971 11.5583 16.3583C11.168 15.7396 10.9822 15.0143 11.0263 14.2853Z" fill="#97A3BA"/>
<path fill-rule="evenodd" clip-rule="evenodd" d="M8.99994 12.2589L6.99994 10.2589V13.3401C6.31727 13.0178 5.54851 12.9256 4.80897 13.0772C4.06944 13.2289 3.39902 13.6162 2.89828 14.1811C2.39754 14.7461 2.09348 15.4582 2.03172 16.2106C1.96996 16.9629 2.15383 17.7151 2.55574 18.3541C2.95765 18.9932 3.55594 19.4846 4.26084 19.7549C4.96574 20.0251 5.73926 20.0594 6.46534 19.8528C7.19143 19.6461 7.83094 19.2096 8.28792 18.6087C8.74491 18.0079 8.99475 17.275 8.99994 16.5201C9.01029 16.3469 9.01029 16.1733 8.99994 16.0001V12.2589ZM4.74393 17.7693C4.9821 17.92 5.25812 18 5.53994 18.0001C5.92989 17.9922 6.30122 17.8318 6.57419 17.5532C6.84716 17.2746 7.00002 16.9001 6.99994 16.5101C7.00977 16.4103 7.00977 16.3098 6.99994 16.2101C6.9432 15.934 6.80933 15.6797 6.61388 15.4767C6.41842 15.2737 6.16939 15.1303 5.8957 15.0631C5.62201 14.9959 5.33487 15.0077 5.06761 15.0971C4.80036 15.1865 4.56395 15.3499 4.38582 15.5683C4.20769 15.7867 4.09516 16.0511 4.06127 16.3309C4.02738 16.6107 4.07353 16.8943 4.19436 17.1489C4.3152 17.4035 4.50576 17.6187 4.74393 17.7693Z" fill="#97A3BA"/>
<path d="M19.7044 18.2851L3.71315 2.29393C3.61996 2.20074 3.50933 2.12682 3.38758 2.07639C3.26582 2.02596 3.13533 2 3.00354 2C2.87175 2 2.74126 2.02596 2.6195 2.07639C2.49775 2.12682 2.38712 2.20074 2.29393 2.29393C2.10573 2.48213 2 2.73738 2 3.00354C2 3.2697 2.10573 3.52495 2.29393 3.71315L18.2851 19.7044C18.3781 19.798 18.4886 19.8724 18.6104 19.9231C18.7322 19.9739 18.8628 20 18.9948 20C19.1267 20 19.2573 19.9739 19.3791 19.9231C19.5009 19.8724 19.6115 19.798 19.7044 19.7044C19.798 19.6115 19.8724 19.5009 19.9231 19.3791C19.9739 19.2573 20 19.1267 20 18.9948C20 18.8628 19.9739 18.7322 19.9231 18.6104C19.8724 18.4886 19.798 18.3781 19.7044 18.2851V18.2851Z" fill="#97A3BA"/>
</svg>
