<svg width="22" height="22" viewBox="0 0 22 22" fill="none" xmlns="http://www.w3.org/2000/svg">
<path fill-rule="evenodd" clip-rule="evenodd" d="M10 10C10.3506 10 10.6872 10.0602 11 10.1707V7.8198C11 7.34312 11.3365 6.93271 11.8039 6.83922L14.8271 6.23458C15.4339 6.11322 16 6.57732 16 7.19612C16 7.66354 15.6701 8.06599 15.2117 8.15765L13 8.6V13C13 14.6569 11.6569 16 10 16C8.34315 16 7 14.6569 7 13C7 11.3431 8.34315 10 10 10ZM9 13C9 12.4477 9.44772 12 10 12C10.5523 12 11 12.4477 11 13C11 13.5523 10.5523 14 10 14C9.44772 14 9 13.5523 9 13Z" fill="#97A3BA"/>
<path fill-rule="evenodd" clip-rule="evenodd" d="M6 1C4.34315 1 3 2.34315 3 4V18C3 19.6569 4.34315 21 6 21H16C17.6569 21 19 19.6569 19 18V4C19 2.34315 17.6569 1 16 1H6ZM5 4C5 3.44772 5.44772 3 6 3H16C16.5523 3 17 3.44772 17 4V18C17 18.5523 16.5523 19 16 19H6C5.44772 19 5 18.5523 5 18V4Z" fill="#97A3BA"/>
</svg>
