<svg width="24" height="24" viewBox="0 0 24 24" fill="none" xmlns="http://www.w3.org/2000/svg">
<path fill-rule="evenodd" clip-rule="evenodd" d="M4.70711 3.29289L20.7071 19.2929C21.0976 19.6834 21.0976 20.3166 20.7071 20.7071C20.3166 21.0976 19.6834 21.0976 19.2929 20.7071L3.29289 4.70711C2.90237 4.31658 2.90237 3.68342 3.29289 3.29289C3.68342 2.90237 4.31658 2.90237 4.70711 3.29289Z" fill="#777B92"/>
<path fill-rule="evenodd" clip-rule="evenodd" d="M16 9.99979C16 10.5521 15.5523 10.9998 15 10.9998C14.4477 10.9998 14 10.5521 14 9.99979V5.94298L11.5812 7.67067C11.1318 7.99168 10.5073 7.88758 10.1863 7.43817C9.86526 6.98876 9.96935 6.36421 10.4188 6.0432L12.8375 4.31551C14.1613 3.36999 16 4.31623 16 5.94298V9.99979Z" fill="#777B92"/>
<path fill-rule="evenodd" clip-rule="evenodd" d="M4 7.99979H5C5.55228 7.99979 6 8.4475 6 8.99979C6 9.55207 5.55228 9.99979 5 9.99979H4V14.9998H7.73444C8.08249 14.9998 8.42452 15.0906 8.72671 15.2633L14 18.2766V17.9998C14 17.4475 14.4477 16.9998 15 16.9998C15.5523 16.9998 16 17.4475 16 17.9998V18.2766C16 19.8123 14.341 20.775 13.0077 20.0131L7.73444 16.9998H4C2.89543 16.9998 2 16.1044 2 14.9998V9.99979C2 8.89522 2.89543 7.99979 4 7.99979Z" fill="#777B92"/>
<path fill-rule="evenodd" clip-rule="evenodd" d="M18.2179 5.37686C18.5621 4.94493 19.1912 4.87379 19.6232 5.21796C21.6734 6.85162 23 9.27261 23 12C23 13.5173 22.5882 14.9458 21.8658 16.1958C21.5894 16.674 20.9778 16.8376 20.4996 16.5612C20.0214 16.2849 19.8578 15.6732 20.1342 15.195C20.6894 14.2343 21 13.149 21 12C21 9.94869 20.0059 8.08023 18.3768 6.78212C17.9449 6.43795 17.8737 5.8088 18.2179 5.37686Z" fill="#777B92"/>
<path fill-rule="evenodd" clip-rule="evenodd" d="M18.7891 8.38579C19.5506 9.36407 20 10.6313 20 12C20 12.8547 19.8248 13.6691 19.5084 14.3982C19.2885 14.9048 18.6996 15.1373 18.1929 14.9174C17.6863 14.6975 17.4539 14.1085 17.6737 13.6019C17.881 13.1244 18 12.581 18 12C18 11.0683 17.6941 10.2351 17.2109 9.6143C16.8716 9.17849 16.9499 8.55018 17.3857 8.21094C17.8215 7.87169 18.4498 7.94998 18.7891 8.38579Z" fill="#777B92"/>
</svg>
