<svg width="24" height="24" viewBox="0 0 24 24" fill="none" xmlns="http://www.w3.org/2000/svg">
<path fill-rule="evenodd" clip-rule="evenodd" d="M8.22784 4.66675C8.77648 3.11451 10.2568 2 12 2C14.2091 2 16 3.79086 16 6V11C16 11.5523 15.5523 12 15 12C14.4477 12 14 11.5523 14 11V6C14 4.89543 13.1045 4 12 4C11.1307 4 10.3886 4.5551 10.1135 5.33325C9.92948 5.85396 9.35815 6.12689 8.83744 5.94284C8.31672 5.75879 8.0438 5.18747 8.22784 4.66675Z" fill="#777B92"/>
<path fill-rule="evenodd" clip-rule="evenodd" d="M12.8345 15.9308C13.3792 15.8394 13.8948 16.2069 13.9862 16.7516C14.0776 17.2963 13.7101 17.8119 13.1655 17.9033C13.1105 17.9125 13.0554 17.9211 13 17.929V20H15C15.5523 20 16 20.4477 16 21C16 21.5523 15.5523 22 15 22H9C8.44772 22 8 21.5523 8 21C8 20.4477 8.44772 20 9 20H11V17.9291C7.60771 17.4439 5 14.5265 5 11C5 10.4477 5.44772 10 6 10C6.55228 10 7 10.4477 7 11C7 13.7614 9.23858 16 12 16C12.285 16 12.5638 15.9762 12.8345 15.9308Z" fill="#777B92"/>
<path fill-rule="evenodd" clip-rule="evenodd" d="M18 10C18.5523 10 19 10.4477 19 11C19 11.8164 18.8598 12.6021 18.6014 13.3332C18.4174 13.854 17.8461 14.1269 17.3253 13.9428C16.8046 13.7588 16.5317 13.1875 16.7157 12.6668C16.8995 12.1467 17 11.5862 17 11C17 10.4477 17.4477 10 18 10Z" fill="#777B92"/>
<path fill-rule="evenodd" clip-rule="evenodd" d="M4.70711 3.29289L20.7071 19.2929C21.0976 19.6834 21.0976 20.3166 20.7071 20.7071C20.3166 21.0976 19.6834 21.0976 19.2929 20.7071L3.29289 4.70711C2.90237 4.31658 2.90237 3.68342 3.29289 3.29289C3.68342 2.90237 4.31658 2.90237 4.70711 3.29289Z" fill="#777B92"/>
</svg>
