<svg width="22" height="22" viewBox="0 0 22 22" fill="none" xmlns="http://www.w3.org/2000/svg">
<path fill-rule="evenodd" clip-rule="evenodd" d="M9 10C9.79113 10 10.5645 9.76541 11.2223 9.32588C11.8801 8.88635 12.3928 8.26164 12.6955 7.53074C12.9983 6.79983 13.0775 5.99556 12.9231 5.21964C12.7688 4.44372 12.3878 3.73098 11.8284 3.17157C11.269 2.61216 10.5563 2.2312 9.78036 2.07686C9.00444 1.92252 8.20017 2.00173 7.46927 2.30448C6.73836 2.60723 6.11365 3.11992 5.67412 3.77772C5.2346 4.43552 5 5.20888 5 6C5 7.06087 5.42143 8.07828 6.17157 8.82843C6.92172 9.57857 7.93913 10 9 10ZM9 4C9.39556 4 9.78224 4.1173 10.1111 4.33706C10.44 4.55683 10.6964 4.86918 10.8478 5.23463C10.9991 5.60009 11.0387 6.00222 10.9616 6.39018C10.8844 6.77814 10.6939 7.13451 10.4142 7.41422C10.1345 7.69392 9.77814 7.8844 9.39018 7.96157C9.00222 8.03874 8.60009 7.99914 8.23463 7.84776C7.86918 7.69639 7.55682 7.44004 7.33706 7.11114C7.1173 6.78224 7 6.39556 7 6C7 5.46957 7.21071 4.96086 7.58579 4.58579C7.96086 4.21072 8.46957 4 9 4Z" fill="#97A3BA"/>
<path d="M4.05025 14.0503C5.36301 12.7375 7.14348 12 9 12C9.94298 12 10.8663 12.1903 11.7188 12.5495C11.0086 12.9143 10.3971 13.444 9.9349 14.0882C9.62888 14.0299 9.31598 14 9 14C7.67392 14 6.40215 14.5268 5.46447 15.4645C4.52678 16.4021 4 17.6739 4 19C4 19.2652 3.89464 19.5196 3.70711 19.7071C3.51957 19.8946 3.26522 20 3 20C2.73478 20 2.48043 19.8946 2.29289 19.7071C2.10536 19.5196 2 19.2652 2 19C2 17.1435 2.7375 15.363 4.05025 14.0503Z" fill="#97A3BA"/>
<path fill-rule="evenodd" clip-rule="evenodd" d="M14 14C14.3506 14 14.6872 14.0602 15 14.1707V11.8198C15 11.3431 15.3365 10.9327 15.8039 10.8392L18.8271 10.2346C19.4339 10.1132 20 10.5773 20 11.1961C20 11.6635 19.6701 12.066 19.2117 12.1577L17 12.6V17C17 18.6569 15.6569 20 14 20C12.3431 20 11 18.6569 11 17C11 15.3431 12.3431 14 14 14ZM13 17C13 16.4477 13.4477 16 14 16C14.5523 16 15 16.4477 15 17C15 17.5523 14.5523 18 14 18C13.4477 18 13 17.5523 13 17Z" fill="#97A3BA"/>
</svg>
