<svg width="22" height="22" viewBox="0 0 22 22" fill="none" xmlns="http://www.w3.org/2000/svg">
<path fill-rule="evenodd" clip-rule="evenodd" d="M11 6.8198C11 6.34312 11.3365 5.93271 11.8039 5.83922L14.8271 5.23458C15.4339 5.11322 16 5.57732 16 6.19612C16 6.66354 15.6701 7.06599 15.2117 7.15765L13 7.6V12C13 13.6569 11.6569 15 10 15C8.34315 15 7 13.6569 7 12C7 10.3431 8.34315 9 10 9C10.3506 9 10.6872 9.06015 11 9.17071V6.8198ZM11 12C11 11.4477 10.5523 11 10 11C9.44772 11 9 11.4477 9 12C9 12.5523 9.44772 13 10 13C10.5523 13 11 12.5523 11 12Z" fill="#97A3BA"/>
<path fill-rule="evenodd" clip-rule="evenodd" d="M6 1C4.34315 1 3 2.34175 3 3.99688V19.0004C3 20.382 4.37019 21.3466 5.67267 20.8819L11 18.9813L16.3273 20.8819C17.6298 21.3466 19 20.382 19 19.0004V3.99688C19 2.34175 17.6569 1 16 1H6ZM5 3.99688C5 3.44517 5.44772 2.99792 6 2.99792H16C16.5523 2.99792 17 3.44517 17 3.99688V19.0004L11.6727 17.0998C11.2377 16.9446 10.7623 16.9446 10.3273 17.0998L5 19.0004V3.99688Z" fill="#97A3BA"/>
</svg>
