<svg width="22" height="22" viewBox="0 0 22 22" fill="none" xmlns="http://www.w3.org/2000/svg">
<path d="M18.9929 14.0094V3.00087C18.9922 2.85054 18.9576 2.70231 18.8918 2.56717C18.826 2.43203 18.7305 2.31346 18.6126 2.22026C18.4963 2.12621 18.3604 2.05941 18.2149 2.02477C18.0695 1.99014 17.9181 1.98854 17.7719 2.02011L8.76459 4.02166C8.54223 4.0718 8.34365 4.19634 8.2017 4.37468C8.05975 4.55303 7.98293 4.77448 7.98396 5.00241V13.3489C7.30074 13.0263 6.53135 12.934 5.79122 13.0858C5.05109 13.2375 4.38012 13.6252 3.87897 14.1906C3.37783 14.756 3.07352 15.4686 3.01171 16.2216C2.9499 16.9745 3.13392 17.7272 3.53615 18.3668C3.93839 19.0063 4.53716 19.4982 5.24264 19.7686C5.94811 20.039 6.72225 20.0734 7.44893 19.8666C8.1756 19.6598 8.81563 19.223 9.27299 18.6216C9.73035 18.0202 9.98038 17.2868 9.98558 16.5313C9.99593 16.358 9.99593 16.1842 9.98558 16.0109V5.80303L16.9913 4.25183V11.3473C16.3076 11.0246 15.5378 10.9324 14.7973 11.0845C14.0568 11.2366 13.3856 11.6248 12.8846 12.1908C12.3836 12.7569 12.0797 13.4702 12.0187 14.2237C11.9576 14.9771 12.1427 15.7301 12.546 16.3694C12.9494 17.0087 13.5493 17.4999 14.2557 17.7692C14.962 18.0386 15.7367 18.0715 16.4634 17.863C17.19 17.6545 17.8294 17.2159 18.2855 16.6131C18.7416 16.0102 18.9898 15.2757 18.9929 14.5198C19.0024 14.3498 19.0024 14.1794 18.9929 14.0094V14.0094ZM6.52277 18.0125C6.24072 18.0124 5.96449 17.9323 5.72612 17.7815C5.48775 17.6308 5.29704 17.4155 5.17611 17.1607C5.05517 16.9059 5.00898 16.622 5.0429 16.342C5.07682 16.062 5.18945 15.7974 5.36772 15.5788C5.54599 15.3603 5.78259 15.1967 6.05007 15.1072C6.31754 15.0177 6.60491 15.0059 6.87882 15.0732C7.15274 15.1404 7.40197 15.284 7.59758 15.4871C7.79319 15.6903 7.92717 15.9448 7.98396 16.2211C7.99379 16.3209 7.99379 16.4215 7.98396 16.5213C7.98404 16.9117 7.83106 17.2865 7.55786 17.5653C7.28467 17.8441 6.91304 18.0046 6.52277 18.0125V18.0125ZM15.5301 16.0109C15.2451 16.0131 14.9654 15.9342 14.7236 15.7833C14.4818 15.6325 14.288 15.4159 14.1648 15.159C14.0415 14.902 13.994 14.6153 14.0277 14.3323C14.0614 14.0494 14.1749 13.7818 14.355 13.561C14.5352 13.3402 14.7744 13.1752 15.0449 13.0853C15.3153 12.9954 15.6057 12.9843 15.8822 13.0534C16.1587 13.1225 16.4098 13.2688 16.6062 13.4753C16.8026 13.6818 16.9361 13.9399 16.9913 14.2195C17.0011 14.3194 17.0011 14.4199 16.9913 14.5198C16.9886 14.9144 16.8307 15.2922 16.5516 15.5713C16.2725 15.8504 15.8947 16.0083 15.5 16.0109H15.5301Z" fill="#97A3BA"/>
</svg>
