<svg width="22" height="22" viewBox="0 0 22 22" fill="none" xmlns="http://www.w3.org/2000/svg">
<path fill-rule="evenodd" clip-rule="evenodd" d="M13.8284 12.8284C13.0783 13.5786 12.0609 14 11 14C9.93913 14 8.92172 13.5786 8.17157 12.8284C7.42143 12.0783 7 11.0609 7 10V5C7 3.93913 7.42143 2.92172 8.17157 2.17157C8.92172 1.42143 9.93913 1 11 1C12.0609 1 13.0783 1.42143 13.8284 2.17157C14.5786 2.92172 15 3.93913 15 5V10C15 11.0609 14.5786 12.0783 13.8284 12.8284ZM9.58579 3.58579C9.21071 3.96086 9 4.46957 9 5V10C9 10.5304 9.21071 11.0391 9.58579 11.4142C9.96086 11.7893 10.4696 12 11 12C11.5304 12 12.0391 11.7893 12.4142 11.4142C12.7893 11.0391 13 10.5304 13 10V5C13 4.46957 12.7893 3.96086 12.4142 3.58579C12.0391 3.21071 11.5304 3 11 3C10.4696 3 9.96086 3.21071 9.58579 3.58579Z" fill="#97A3BA"/>
<path d="M17.7071 9.29289C17.8946 9.48043 18 9.73478 18 10C17.998 11.6818 17.3906 13.3068 16.2888 14.5775C15.187 15.8482 13.6646 16.6797 12 16.92V19H14.11C14.346 19 14.5724 19.0938 14.7393 19.2607C14.9062 19.4276 15 19.654 15 19.89V20.11C15 20.346 14.9062 20.5724 14.7393 20.7393C14.5724 20.9062 14.346 21 14.11 21H7.89C7.65396 21 7.42758 20.9062 7.26068 20.7393C7.09377 20.5724 7 20.346 7 20.11V19.89C7 19.654 7.09377 19.4276 7.26068 19.2607C7.42758 19.0938 7.65396 19 7.89 19H10V16.92C8.3354 16.6797 6.81295 15.8482 5.71118 14.5775C4.60941 13.3068 4.00197 11.6818 4 10C4 9.73478 4.10536 9.48043 4.29289 9.29289C4.48043 9.10536 4.73478 9 5 9C5.26522 9 5.51957 9.10536 5.70711 9.29289C5.89464 9.48043 6 9.73478 6 10C6 11.3261 6.52678 12.5979 7.46447 13.5355C8.40215 14.4732 9.67392 15 11 15C12.3261 15 13.5979 14.4732 14.5355 13.5355C15.4732 12.5979 16 11.3261 16 10C16 9.73478 16.1054 9.48043 16.2929 9.29289C16.4804 9.10536 16.7348 9 17 9C17.2652 9 17.5196 9.10536 17.7071 9.29289Z" fill="#97A3BA"/>
</svg>
