<svg width="24" height="24" viewBox="0 0 24 24" fill="none" xmlns="http://www.w3.org/2000/svg">
<path fill-rule="evenodd" clip-rule="evenodd" d="M20 5.24691V15.0003C20 15.0595 19.9949 15.1174 19.985 15.1738C19.9949 15.2812 20 15.39 20 15.5C20 17.433 18.433 19 16.5 19C14.567 19 13 17.433 13 15.5C13 13.567 14.567 12 16.5 12C17.0368 12 17.5454 12.1208 18 12.3368V5.24691L11 6.80246V18.0003C11 18.1979 10.9427 18.3822 10.8437 18.5373C10.4017 19.9638 9.07185 21 7.5 21C5.567 21 4 19.433 4 17.5C4 15.567 5.567 14 7.5 14C8.0368 14 8.54537 14.1208 9 14.3368V6.80246C9 5.86506 9.65106 5.05344 10.5661 4.85009L17.5661 3.29453C18.8152 3.01697 20 3.96741 20 5.24691ZM9 17.5C9 16.6716 8.32843 16 7.5 16C6.67157 16 6 16.6716 6 17.5C6 18.3284 6.67157 19 7.5 19C8.32843 19 9 18.3284 9 17.5ZM16.5 14C15.6716 14 15 14.6716 15 15.5C15 16.3284 15.6716 17 16.5 17C17.3284 17 18 16.3284 18 15.5C18 14.6716 17.3284 14 16.5 14Z" fill="#777B92"/>
</svg>
