<svg width="24" height="24" viewBox="0 0 24 24" fill="none" xmlns="http://www.w3.org/2000/svg">
<path fill-rule="evenodd" clip-rule="evenodd" d="M12.8375 4.31551C14.1613 3.36999 16 4.31623 16 5.94298V18.2766C16 19.8123 14.341 20.775 13.0077 20.0131L7.73444 16.9998H4C2.89543 16.9998 2 16.1044 2 14.9998V9.99979C2 8.89522 2.89543 7.99979 4 7.99979H7.67953L12.8375 4.31551ZM14 5.94298L8.84201 9.62726C8.50281 9.86954 8.09638 9.99979 7.67953 9.99979H4V14.9998H7.73444C8.08249 14.9998 8.42452 15.0906 8.72671 15.2633L14 18.2766V5.94298Z" fill="#777B92"/>
<path fill-rule="evenodd" clip-rule="evenodd" d="M18.2929 10.2929C18.6834 9.90237 19.3166 9.90237 19.7071 10.2929L20.5 11.0858L21.2929 10.2929C21.6834 9.90237 22.3166 9.90237 22.7071 10.2929C23.0976 10.6834 23.0976 11.3166 22.7071 11.7071L21.9142 12.5L22.7071 13.2929C23.0976 13.6834 23.0976 14.3166 22.7071 14.7071C22.3166 15.0976 21.6834 15.0976 21.2929 14.7071L20.5 13.9142L19.7071 14.7071C19.3166 15.0976 18.6834 15.0976 18.2929 14.7071C17.9024 14.3166 17.9024 13.6834 18.2929 13.2929L19.0858 12.5L18.2929 11.7071C17.9024 11.3166 17.9024 10.6834 18.2929 10.2929Z" fill="#777B92"/>
</svg>
