<svg width="24" height="24" viewBox="0 0 24 24" fill="none" xmlns="http://www.w3.org/2000/svg">
<path fill-rule="evenodd" clip-rule="evenodd" d="M17 5.94298V18.2766C17 19.8123 15.341 20.775 14.0077 20.0131L8.73444 16.9998H5C3.89543 16.9998 3 16.1044 3 14.9998V9.99979C3 8.89522 3.89543 7.99979 5 7.99979H8.67953L13.8375 4.31551C15.1613 3.36999 17 4.31623 17 5.94298ZM9.84201 9.62726C9.50281 9.86954 9.09638 9.99979 8.67953 9.99979H5V14.9998H8.73444C9.08249 14.9998 9.42452 15.0906 9.72671 15.2633L15 18.2766V5.94298L9.84201 9.62726Z" fill="#777B92"/>
<path fill-rule="evenodd" clip-rule="evenodd" d="M20.7071 8.29289L20 9C20.7071 8.29289 20.7068 8.29254 20.7071 8.29289L20.7085 8.29432L20.7101 8.29585L20.7134 8.29922L20.7211 8.30713L20.7408 8.32778C20.7557 8.34368 20.7741 8.36387 20.7955 8.38837C20.8384 8.43735 20.8934 8.5037 20.9562 8.5875C21.0818 8.75496 21.2397 8.99328 21.3944 9.30279C21.7056 9.92507 22 10.8272 22 12C22 13.1728 21.7056 14.0749 21.3944 14.6972C21.2397 15.0067 21.0818 15.245 20.9562 15.4125C20.8934 15.4963 20.8384 15.5627 20.7955 15.6116C20.7741 15.6361 20.7557 15.6563 20.7408 15.6722L20.7211 15.6929L20.7134 15.7008L20.7101 15.7041L20.7085 15.7057L20.7071 15.7071C20.7068 15.7075 20.7071 15.7071 20 15L20.7071 15.7071C20.3166 16.0976 19.6834 16.0976 19.2929 15.7071C18.9057 15.3199 18.9024 14.6943 19.2829 14.303L19.2904 14.2946C19.3022 14.2811 19.3253 14.2537 19.3563 14.2125C19.4182 14.13 19.5103 13.9933 19.6056 13.8028C19.7944 13.4251 20 12.8272 20 12C20 11.1728 19.7944 10.5749 19.6056 10.1972C19.5103 10.0067 19.4182 9.87004 19.3563 9.7875C19.3253 9.7463 19.3022 9.7189 19.2904 9.70538L19.2829 9.697C18.9024 9.30573 18.9057 8.68007 19.2929 8.29289C19.6834 7.90237 20.3166 7.90237 20.7071 8.29289Z" fill="#777B92"/>
</svg>
