<svg width="24" height="24" viewBox="0 0 24 24" fill="none" xmlns="http://www.w3.org/2000/svg">
<path fill-rule="evenodd" clip-rule="evenodd" d="M12 11.1707V9.72103C12 8.86017 12.5509 8.09589 13.3675 7.82366L15.6838 7.05159C16.2077 6.87694 16.774 7.1601 16.9487 7.68404C17.1233 8.20799 16.8402 8.77431 16.3162 8.94895L14 9.72103V14.0003C14 14.0013 14 14.0024 14 14.0035C13.9981 15.6587 12.6557 17 11 17C9.34315 17 8 15.6569 8 14C8 12.3431 9.34315 11 11 11C11.3506 11 11.6872 11.0602 12 11.1707ZM11 13C10.4477 13 10 13.4477 10 14C10 14.5523 10.4477 15 11 15C11.5523 15 12 14.5523 12 14C12 13.4477 11.5523 13 11 13Z" fill="#777B92"/>
<path fill-rule="evenodd" clip-rule="evenodd" d="M4 4C4 2.89543 4.89543 2 6 2H18C19.1046 2 20 2.89543 20 4V20C20 21.1046 19.1046 22 18 22H6C4.89543 22 4 21.1046 4 20V4ZM18 4L6 4V20H18V4Z" fill="#777B92"/>
</svg>
