<svg width="24" height="24" viewBox="0 0 24 24" fill="none" xmlns="http://www.w3.org/2000/svg">
<path fill-rule="evenodd" clip-rule="evenodd" d="M12 10.1707V8.72103C12 7.86017 12.5509 7.09589 13.3675 6.82366L15.6838 6.05159C16.2077 5.87694 16.774 6.1601 16.9487 6.68404C17.1233 7.20799 16.8402 7.77431 16.3162 7.94895L14 8.72103V13.0003C14 13.0013 14 13.0024 14 13.0035C13.9981 14.6587 12.6557 16 11 16C9.34315 16 8 14.6569 8 13C8 11.3431 9.34315 10 11 10C11.3506 10 11.6872 10.0602 12 10.1707ZM11 12C10.4477 12 10 12.4477 10 13C10 13.5523 10.4477 14 11 14C11.5523 14 12 13.5523 12 13C12 12.4477 11.5523 12 11 12Z" fill="#777B92"/>
<path fill-rule="evenodd" clip-rule="evenodd" d="M4 4C4 2.89543 4.89543 2 6 2H18C19.1046 2 20 2.89543 20 4V19.6743C20 21.003 18.7282 21.9624 17.4506 21.5973L12 20.04L6.54944 21.5973C5.27181 21.9624 4 21.003 4 19.6743V4ZM18 4L6 4V19.6743L11.4506 18.117C11.8097 18.0144 12.1903 18.0144 12.5494 18.117L18 19.6743V4Z" fill="#777B92"/>
</svg>
