<svg width="22" height="22" viewBox="0 0 22 22" fill="none" xmlns="http://www.w3.org/2000/svg">
<path fill-rule="evenodd" clip-rule="evenodd" d="M14.97 2C15.1455 2 15.318 2.04617 15.47 2.13387C15.6297 2.21883 15.7633 2.34548 15.8566 2.50033C15.95 2.65517 15.9995 2.83242 16 3.01318V19.0007C16 19.2657 15.8946 19.5199 15.7071 19.7072C15.5196 19.8946 15.2652 19.9999 15 19.9999C14.7909 20.0027 14.5856 19.9436 14.41 19.83L8 15.4335H3C2.73478 15.4335 2.48043 15.3282 2.29289 15.1408C2.10536 14.9534 2 14.6993 2 14.4343V7.57961C2 7.3146 2.10536 7.06045 2.29289 6.87306C2.48043 6.68567 2.73478 6.58039 3 6.58039H8L14.47 2.13387C14.622 2.04617 14.7945 2 14.97 2ZM8.9 13.6049L14 17.1022V4.9117L8.9 8.40897C8.73164 8.52205 8.53285 8.58129 8.33 8.57883H4V13.435H8.33C8.53285 13.4326 8.73164 13.4918 8.9 13.6049Z" fill="#97A3BA"/>
<path d="M19.1061 7.00319C19.3705 7.03132 19.6129 7.16334 19.78 7.37021C20.5732 8.41413 21.0026 9.68912 21.0026 11.0002C21.0026 12.3113 20.5732 13.5863 19.78 14.6302C19.6859 14.7462 19.567 14.8397 19.432 14.9037C19.297 14.9677 19.1494 15.0007 19 15.0002C18.8108 15.0009 18.6252 14.9478 18.4649 14.8472C18.3047 14.7466 18.1762 14.6026 18.0945 14.4319C18.0129 14.2612 17.9813 14.0708 18.0035 13.8829C18.0257 13.6949 18.1008 13.5172 18.22 13.3702C18.7252 12.6833 18.9977 11.8529 18.9977 11.0002C18.9977 10.1475 18.7252 9.31712 18.22 8.63021C18.0529 8.42334 17.9748 8.15857 18.003 7.89414C18.0311 7.62972 18.1631 7.3873 18.37 7.22021C18.5769 7.05312 18.8416 6.97506 19.1061 7.00319Z" fill="#97A3BA"/>
</svg>
