<svg width="24" height="24" viewBox="0 0 24 24" fill="none" xmlns="http://www.w3.org/2000/svg">
<path fill-rule="evenodd" clip-rule="evenodd" d="M7.61803 2H16C17.1046 2 18 2.89543 18 4V6H20C21.1046 6 22 6.89543 22 8V14C22 15.1046 21.1046 16 20 16H18V18C18 18.205 17.9692 18.4028 17.9119 18.5889C17.9685 18.7143 18 18.8535 18 19V21C18 21.5523 17.5523 22 17 22C16.4477 22 16 21.5523 16 21V20H13V21C13 21.5523 12.5523 22 12 22C11.4477 22 11 21.5523 11 21V20H8V21C8 21.5523 7.55228 22 7 22C6.44772 22 6 21.5523 6 21V19C6 18.8535 6.03151 18.7143 6.08812 18.5889C6.03084 18.4028 6 18.205 6 18V16H4C2.89543 16 2 15.1046 2 14V11.2361C2 10.9256 2.07229 10.6194 2.21115 10.3416L5.82918 3.10557C5.88414 2.99565 5.94842 2.89229 6.02077 2.79626C6.11486 2.34168 6.51753 2 7 2C7.08842 2 7.17415 2.01147 7.2558 2.03302C7.37401 2.01126 7.49517 2 7.61803 2ZM8 4V6H16V4H8ZM4 11.2361V14H6V7.23607L4 11.2361ZM8 15C8 15.1465 7.96849 15.2857 7.91188 15.4111C7.96916 15.5972 8 15.795 8 16V18H16V8H8V15ZM18 14H20V8H18V14Z" fill="#777B92"/>
</svg>
