<svg width="24" height="24" viewBox="0 0 24 24" fill="none" xmlns="http://www.w3.org/2000/svg">
<path fill-rule="evenodd" clip-rule="evenodd" d="M17 4C17 2.89543 17.8954 2 19 2H21C22.1046 2 23 2.89543 23 4V21C23 21.5523 22.5523 22 22 22H2C1.44772 22 1 21.5523 1 21C1 20.4477 1.44772 20 2 20H5V18H3C1.89543 18 1 17.1046 1 16V6C1 4.89543 1.89543 4 3 4H12C13.1046 4 14 4.89543 14 6V8H17V4ZM7 18V20H8V18H7ZM12 16V14H3V16H12ZM17 20V14H14V16C14 17.1046 13.1046 18 12 18H10V20H17ZM12 12V10H3V12H12ZM14 12H17V10H14V12ZM19 20H21V4L19 4V20ZM12 6L3 6V8H12V6Z" fill="#777B92"/>
</svg>
