<svg width="24" height="24" viewBox="0 0 24 24" fill="none" xmlns="http://www.w3.org/2000/svg">
<path fill-rule="evenodd" clip-rule="evenodd" d="M5 11C5 10.4477 5.44772 10 6 10H18C18.5523 10 19 10.4477 19 11C19 11.5523 18.5523 12 18 12H6C5.44772 12 5 11.5523 5 11Z" fill="#777B92"/>
<path fill-rule="evenodd" clip-rule="evenodd" d="M21 4V6C22.1046 6 23 6.89543 23 8V16C23 17.1046 22.1046 18 21 18H3C1.89543 18 1 17.1046 1 16V4C1 2.89543 1.89543 2 3 2H7C8.10457 2 9 2.89543 9 4V6H11V5C11 4.44772 11.4477 4 12 4C12.5523 4 13 4.44772 13 5V6H15V5C15 4.44772 15.4477 4 16 4C16.5523 4 17 4.44772 17 5V6H19V4H18C17.4477 4 17 3.55228 17 3C17 2.44772 17.4477 2 18 2H22C22.5523 2 23 2.44772 23 3C23 3.55228 22.5523 4 22 4H21ZM3 6H7V4H3V6ZM3 8V16H21V8H3Z" fill="#777B92"/>
<path fill-rule="evenodd" clip-rule="evenodd" d="M2 20H22C22.5523 20 23 20.4477 23 21C23 21.5523 22.5523 22 22 22H2C1.44772 22 1 21.5523 1 21C1 20.4477 1.44772 20 2 20Z" fill="#777B92"/>
</svg>
