<svg width="24" height="24" viewBox="0 0 24 24" fill="none" xmlns="http://www.w3.org/2000/svg">
<path fill-rule="evenodd" clip-rule="evenodd" d="M19 2H21C22.1046 2 23 2.89543 23 4V15C23 15.5523 22.5523 16 22 16C21.4477 16 21 15.5523 21 15V4L19 4V15C19 15.5523 18.5523 16 18 16C17.4477 16 17 15.5523 17 15V14H14V16C14 17.1046 13.1046 18 12 18H10V20H15C15.5523 20 16 20.4477 16 21C16 21.5523 15.5523 22 15 22H2C1.44772 22 1 21.5523 1 21C1 20.4477 1.44772 20 2 20H5V18H3C1.89543 18 1 17.1046 1 16V6C1 4.89543 1.89543 4 3 4H12C13.1046 4 14 4.89543 14 6V8H17V4C17 2.89543 17.8954 2 19 2ZM7 20H8V18H7V20ZM3 16H12V14H3V16ZM3 12H12V10H3V12ZM17 12V10H14V12H17ZM12 8V6L3 6V8H12Z" fill="#777B92"/>
<path fill-rule="evenodd" clip-rule="evenodd" d="M18.0806 18H21.9194C22.7579 18 23.2241 18.9699 22.7002 19.6247L20.7809 22.0239C20.3805 22.5243 19.6195 22.5243 19.2191 22.0239L17.2998 19.6247C16.7759 18.9699 17.2421 18 18.0806 18Z" fill="#777B92"/>
</svg>
