<svg width="24" height="24" viewBox="0 0 24 24" fill="none" xmlns="http://www.w3.org/2000/svg">
<path fill-rule="evenodd" clip-rule="evenodd" d="M13 11C13 11.5523 12.5523 12 12 12C11.4477 12 11 11.5523 11 11C11 10.4477 11.4477 10 12 10C12.5523 10 13 10.4477 13 11Z" fill="#777B92"/>
<path fill-rule="evenodd" clip-rule="evenodd" d="M12 16C11.4477 16 11 15.5523 11 15C11 14.4477 11.4477 14 12 14C12.5523 14 13 14.4477 13 15C13 15.5523 12.5523 16 12 16Z" fill="#777B92"/>
<path fill-rule="evenodd" clip-rule="evenodd" d="M15 13C15 13.5523 14.5523 14 14 14C13.4477 14 13 13.5523 13 13C13 12.4477 13.4477 12 14 12C14.5523 12 15 12.4477 15 13Z" fill="#777B92"/>
<path fill-rule="evenodd" clip-rule="evenodd" d="M10 14C9.44772 14 9 13.5523 9 13C9 12.4477 9.44772 12 10 12C10.5523 12 11 12.4477 11 13C11 13.5523 10.5523 14 10 14Z" fill="#777B92"/>
<path fill-rule="evenodd" clip-rule="evenodd" d="M12.0575 19.9997C12.0383 19.9999 12.0192 20 12 20L11.9581 19.9999C10.9031 20.0051 10.0483 20.2065 9.03493 20.4453L8.91653 20.4732C7.83857 20.7268 6.6207 20.9998 4.99999 20.9998C4.00414 20.9998 3.20548 20.6592 2.60126 20.1222C2.01768 19.6034 1.6608 18.9432 1.43867 18.3509C1.21498 17.7544 1.10751 17.1721 1.0546 16.7488C1.02781 16.5345 1.01422 16.3545 1.00729 16.2251C1.00382 16.1603 1.002 16.1078 1.00104 16.0697C1.00057 16.0506 1.00031 16.035 1.00016 16.0233L1.00003 16.0086L1.00001 16.0034L1 16.0005C1 16.0001 1 15.9997 2 15.9997C1 15.9997 1 15.9985 1 15.9981L1.00001 15.9956L1.00003 15.9876L1.00023 15.9604C1.00044 15.9374 1.00085 15.9047 1.00165 15.8629C1.00324 15.7793 1.00638 15.6595 1.01256 15.5086C1.0249 15.2072 1.04945 14.7806 1.09833 14.2714C1.19558 13.2584 1.39141 11.8942 1.79026 10.5314C2.18509 9.18248 2.80319 7.74919 3.79644 6.67315C4.81459 5.57014 6.21367 4.86397 8.0283 4.99889C8.57307 4.48463 9.14969 4.05246 9.71812 3.72372C10.449 3.30104 11.2523 3 12 3C12.7477 3 13.551 3.30104 14.2819 3.72372C14.8503 4.05246 15.427 4.48465 15.9717 4.99892C17.8657 4.86585 19.3252 5.50255 20.39 6.57693C21.4272 7.62356 22.0354 9.02753 22.4017 10.3594C22.7712 11.7028 22.9182 13.0611 22.9751 14.1011C23.0037 14.6242 23.0098 15.0736 23.0088 15.4088C23.0083 15.5765 23.006 15.7154 23.0038 15.8199L23.001 15.9477L23.0002 15.9866C23.0001 15.9916 23 15.995 23 15.9971C23 15.9991 23 15.9999 23 15.9997L23 16.0089C23.0001 16.2859 23.0003 17.4414 22.5535 18.5585C22.3229 19.135 21.9538 19.7522 21.3573 20.2272C20.746 20.714 19.9599 20.9995 19 20.9995C17.3793 20.9995 16.1614 20.7266 15.0835 20.473L14.9651 20.4451C13.9567 20.2074 13.1054 20.0068 12.0575 19.9997ZM8.98557 6.87415C7.85076 8.10631 7 9.7506 7 11.5C7 15.2916 9.41224 17.9745 11.9635 17.9998L11.977 17.9998C11.9847 17.9996 11.9923 17.9995 12 17.9995C12.0167 17.9995 12.0334 17.9996 12.0501 17.9997C14.5963 17.9649 17 15.2848 17 11.5C17 9.7506 16.1492 8.10631 15.0144 6.87415C14.4517 6.26317 13.8421 5.77974 13.2806 5.45505C12.699 5.11869 12.2523 5 12 5C11.7477 5 11.301 5.11869 10.7194 5.45505C10.1579 5.77974 9.54828 6.26317 8.98557 6.87415ZM17.7397 7.18945C18.4872 8.43137 19 9.90165 19 11.5C19 14.3637 17.797 17.0433 15.8659 18.6016C16.8055 18.817 17.7632 18.9995 19 18.9995C19.5401 18.9995 19.8791 18.8477 20.1115 18.6626C20.3587 18.4657 20.5521 18.1767 20.6965 17.8157C20.9944 17.071 21 16.2406 21 15.9995C21 15.9736 21.0009 15.9315 21.0021 15.8745C21.0146 15.2738 21.0613 13.0278 20.4733 10.8897C20.1521 9.7216 19.6665 8.68815 18.9694 7.9848C18.631 7.64333 18.2298 7.36547 17.7397 7.18945ZM5 11.5C5 9.95264 5.48062 8.52531 6.18946 7.309C5.84431 7.4874 5.54015 7.73276 5.26606 8.0297C4.57181 8.78181 4.06491 9.87975 3.70974 11.0933C3.35859 12.293 3.17942 13.5224 3.08917 14.4625C3.0443 14.9299 3.02197 15.3197 3.01088 15.5905C3.00534 15.7258 3.00262 15.831 3.00128 15.901C3.00062 15.936 3.00029 15.9622 3.00014 15.9789L2.99999 15.9967L3.00001 15.9977L3.00002 15.9991L3.00042 16.0197C3.00093 16.0401 3.00204 16.0736 3.00443 16.1181C3.00922 16.2075 3.01906 16.34 3.03915 16.5007C3.07999 16.8274 3.16002 17.2451 3.31133 17.6486C3.46419 18.0563 3.66982 18.3961 3.92999 18.6273C4.16951 18.8403 4.49585 18.9998 4.99999 18.9998C6.23694 18.9998 7.19467 18.8171 8.13435 18.6018C6.20311 17.0435 5 14.3638 5 11.5Z" fill="#777B92"/>
</svg>
