<svg width="24" height="24" viewBox="0 0 24 24" fill="none" xmlns="http://www.w3.org/2000/svg">
<path fill-rule="evenodd" clip-rule="evenodd" d="M10.0748 9.4927C9.61892 9.74362 9.05269 9.60153 8.76604 9.17952C8.73065 9.14119 8.69781 9.09959 8.66795 9.05481L6.66795 6.05481C6.60259 5.95676 6.55682 5.85138 6.52973 5.74327C6.26944 5.27272 6.42834 4.67722 6.89379 4.40032C8.38918 3.51068 10.1365 3 12 3C13.8691 3 15.6212 3.51373 17.1196 4.40827C17.5938 4.69138 17.7487 5.30531 17.4656 5.77951L17.4555 5.79601C17.4277 5.88561 17.3867 5.97278 17.3321 6.05481L15.332 9.05481C15.3022 9.09959 15.2694 9.14119 15.234 9.17951C14.9473 9.60153 14.3811 9.74362 13.9252 9.4927C13.355 9.1789 12.6999 9 12 9C11.3001 9 10.645 9.1789 10.0748 9.4927ZM9.94319 7.36211C10.5855 7.12775 11.2785 7 12 7C12.7215 7 13.4145 7.12775 14.0568 7.36211L15.1907 5.66132C14.2139 5.23598 13.1354 5 12 5C10.8646 5 9.78607 5.23598 8.80932 5.66132L9.94319 7.36211Z" fill="#777B92"/>
<path fill-rule="evenodd" clip-rule="evenodd" d="M3 12H7C7.55228 12 8 12.4477 8 13C8 14.3012 8.62027 15.4573 9.58544 16.1894C9.90104 16.417 10.0463 16.7978 9.98716 17.1613C9.96401 17.3041 9.90948 17.4438 9.82207 17.5698L7.83205 20.5548C7.74065 20.6919 7.62125 20.7992 7.48649 20.874C7.15733 21.3065 6.54098 21.3975 6.10046 21.0751C3.6165 19.2576 2 16.3175 2 13C2 12.4477 2.44772 12 3 12ZM6.55651 18.8626L7.68535 17.1693C6.86217 16.3174 6.28807 15.2213 6.08303 14H4.06185C4.30013 15.9119 5.21287 17.6145 6.55651 18.8626Z" fill="#777B92"/>
<path fill-rule="evenodd" clip-rule="evenodd" d="M22 13C22 16.3161 20.3849 19.255 17.9028 21.0727C17.4645 21.3937 16.8519 21.3054 16.5214 20.8784C16.3834 20.8033 16.2611 20.6946 16.1679 20.5548L14.1779 17.5697C14.0905 17.4437 14.036 17.3041 14.0128 17.1613C13.9537 16.7978 14.099 16.417 14.4146 16.1894C15.3797 15.4573 16 14.3012 16 13C16 12.4477 16.4477 12 17 12H21C21.5523 12 22 12.4477 22 13ZM17.4435 18.8626C18.7871 17.6145 19.6999 15.9119 19.9381 14H17.917C17.7119 15.2213 17.1378 16.3174 16.3146 17.1693L17.4435 18.8626Z" fill="#777B92"/>
<path fill-rule="evenodd" clip-rule="evenodd" d="M14 13C14 14.1046 13.1046 15 12 15C10.8954 15 10 14.1046 10 13C10 11.8954 10.8954 11 12 11C13.1046 11 14 11.8954 14 13Z" fill="#777B92"/>
</svg>
