<svg width="24" height="24" viewBox="0 0 24 24" fill="none" xmlns="http://www.w3.org/2000/svg">
<path fill-rule="evenodd" clip-rule="evenodd" d="M1.70347 10.001C1.26813 9.42283 1 8.75427 1 8C1 6.3126 2.34191 5.05416 3.89593 4.27715C5.50977 3.47023 7.66928 3 10 3C12.3307 3 14.4902 3.47023 16.1041 4.27715C17.6581 5.05416 19 6.3126 19 8C19 9.6874 17.6581 10.9458 16.1041 11.7229C14.4902 12.5298 12.3307 13 10 13C7.66928 13 5.50977 12.5298 3.89593 11.7229C3.66091 11.6053 3.43073 11.4768 3.20932 11.3375C3.05857 11.5804 3 11.804 3 12C3 12.3379 3.18831 12.768 3.68541 13.2114C3.71158 13.2318 3.73693 13.2538 3.76134 13.2771C4.02247 13.497 4.36061 13.7191 4.79036 13.934C6.07196 14.5748 7.91244 15 10 15C10.5523 15 11 15.4477 11 16C11 16.5523 10.5523 17 10 17C7.66928 17 5.50977 16.5298 3.89593 15.7229C3.6609 15.6054 3.43073 15.4768 3.20931 15.3375C3.05856 15.5804 3 15.804 3 16C3 16.5218 3.44895 17.2633 4.79036 17.934C6.07196 18.5748 7.91244 19 10 19C10.5523 19 11 19.4477 11 20C11 20.5523 10.5523 21 10 21C7.66928 21 5.50977 20.5298 3.89593 19.7229C2.34191 18.9459 1 17.6874 1 16C1 15.2477 1.27354 14.5758 1.70347 14.001C1.26812 13.4228 1 12.7543 1 12C1 11.2477 1.27354 10.5758 1.70347 10.001ZM3 8C3 8.33795 3.18836 8.76811 3.6856 9.21152C3.71165 9.2319 3.73689 9.25373 3.76119 9.277C4.02234 9.4969 4.36054 9.71909 4.79036 9.934C6.07196 10.5748 7.91244 11 10 11C12.0876 11 13.928 10.5748 15.2096 9.934C16.5511 9.26329 17 8.52174 17 8C17 7.47826 16.5511 6.73671 15.2096 6.066C13.928 5.4252 12.0876 5 10 5C7.91244 5 6.07196 5.4252 4.79036 6.066C3.44895 6.73671 3 7.47826 3 8Z" fill="#777B92"/>
<path fill-rule="evenodd" clip-rule="evenodd" d="M19.7071 15.7071L15.7071 19.7071C15.3166 20.0976 14.6834 20.0976 14.2929 19.7071L12.2929 17.7071C11.9024 17.3166 11.9024 16.6834 12.2929 16.2929C12.6834 15.9024 13.3166 15.9024 13.7071 16.2929L15 17.5858L18.2929 14.2929C18.6834 13.9024 19.3166 13.9024 19.7071 14.2929C20.0976 14.6834 20.0976 15.3166 19.7071 15.7071Z" fill="#777B92"/>
</svg>
