<svg width="24" height="24" viewBox="0 0 24 24" fill="none" xmlns="http://www.w3.org/2000/svg">
<path fill-rule="evenodd" clip-rule="evenodd" d="M19.9648 2.73689L22.9648 13.7369C23.0754 14.1424 22.9205 14.5738 22.5773 14.8165L12.6773 21.8165C12.4753 21.9593 12.2342 22.0185 12 21.995C11.7658 22.0185 11.5247 21.9593 11.3227 21.8165L1.42267 14.8165C1.07945 14.5738 0.924634 14.1424 1.03524 13.7369L4.03524 2.73689C4.14903 2.31964 4.51816 2.02283 4.95012 2.00125C5.38207 1.97968 5.77894 2.23824 5.93375 2.64207L8.37095 9H15.629L18.0662 2.64207C18.2211 2.23824 18.6179 1.97968 19.0499 2.00125C19.4818 2.02283 19.851 2.31964 19.9648 2.73689ZM12 18.4671L14.8624 11H9.13762L12 18.4671ZM17.0043 11L14.2132 18.2811L20.851 13.5877L20.1425 10.9899C20.096 10.9966 20.0484 11 20 11H17.0043ZM19.5998 9L18.8396 6.21233L17.771 9H19.5998ZM5.16043 6.21233L4.40016 9H6.22904L5.16043 6.21233ZM3.14897 13.5877L9.7868 18.2811L6.99571 11H4C3.95161 11 3.90401 10.9966 3.85746 10.9899L3.14897 13.5877Z" fill="#777B92"/>
</svg>
