<svg width="24" height="24" viewBox="0 0 24 24" fill="none" xmlns="http://www.w3.org/2000/svg">
<path fill-rule="evenodd" clip-rule="evenodd" d="M12 14C11.4477 14 11 13.5523 11 13C11 12.4477 11.4477 12 12 12C12.5523 12 13 12.4477 13 13C13 13.5523 12.5523 14 12 14Z" fill="#777B92"/>
<path fill-rule="evenodd" clip-rule="evenodd" d="M12 18C11.4477 18 11 17.5523 11 17C11 16.4477 11.4477 16 12 16C12.5523 16 13 16.4477 13 17C13 17.5523 12.5523 18 12 18Z" fill="#777B92"/>
<path fill-rule="evenodd" clip-rule="evenodd" d="M15 15C15 15.5523 14.5523 16 14 16C13.4477 16 13 15.5523 13 15C13 14.4477 13.4477 14 14 14C14.5523 14 15 14.4477 15 15Z" fill="#777B92"/>
<path fill-rule="evenodd" clip-rule="evenodd" d="M10 16C9.44772 16 9 15.5523 9 15C9 14.4477 9.44772 14 10 14C10.5523 14 11 14.4477 11 15C11 15.5523 10.5523 16 10 16Z" fill="#777B92"/>
<path fill-rule="evenodd" clip-rule="evenodd" d="M5.00117 14.8708C3.21075 13.5583 2 11.6777 2 9.5C2 7.30323 3.23476 5.40453 5.05055 4.09313C6.86766 2.78077 9.32788 2 12 2C14.6721 2 17.1323 2.78077 18.9495 4.09313C20.7652 5.40453 22 7.30323 22 9.5C22 11.6777 20.7892 13.5583 18.9988 14.8708C18.9996 14.9138 19 14.9568 19 15C19 16.0736 18.7583 17.0907 18.3264 18H21C21.5523 18 22 18.4477 22 19C22 19.5523 21.5523 20 21 20H17C16.9675 20 16.9354 19.9984 16.9037 19.9954C15.6407 21.2353 13.9097 22 12 22C10.0903 22 8.35929 21.2353 7.09634 19.9954C7.06464 19.9984 7.0325 20 7 20H3C2.44772 20 2 19.5523 2 19C2 18.4477 2.44772 18 3 18H5.67363C5.24169 17.0907 5 16.0736 5 15C5 14.9568 5.00039 14.9138 5.00117 14.8708ZM4 9.5C4 10.6063 4.49362 11.6892 5.41915 12.6086C6.39632 9.92017 8.97392 8 12 8C15.0261 8 17.6037 9.92017 18.5809 12.6086C19.5064 11.6892 20 10.6063 20 9.5C20 8.10692 19.22 6.75562 17.7785 5.71449C16.3382 4.67431 14.2984 4 12 4C9.70156 4 7.66178 4.67431 6.22153 5.71449C4.77996 6.75562 4 8.10692 4 9.5ZM12 10C9.23858 10 7 12.2386 7 15C7 17.7614 9.23858 20 12 20C14.7614 20 17 17.7614 17 15C17 12.2386 14.7614 10 12 10Z" fill="#777B92"/>
</svg>
