<svg width="24" height="24" viewBox="0 0 24 24" fill="none" xmlns="http://www.w3.org/2000/svg">
<path fill-rule="evenodd" clip-rule="evenodd" d="M7 10C6.44772 10 6 9.55228 6 9C6 8.44772 6.44772 8 7 8C7.55228 8 8 8.44772 8 9C8 9.55228 7.55228 10 7 10Z" fill="#777B92"/>
<path fill-rule="evenodd" clip-rule="evenodd" d="M18 9C18 9.55228 17.5523 10 17 10C16.4477 10 16 9.55228 16 9C16 8.44772 16.4477 8 17 8C17.5523 8 18 8.44772 18 9Z" fill="#777B92"/>
<path fill-rule="evenodd" clip-rule="evenodd" d="M3 1H20C20.5523 1 21 1.44772 21 2C21 2.55228 20.5523 3 20 3H18V4.10002C20.2822 4.56329 22 6.58104 22 9C22 10.1258 21.6279 11.1647 21 12.0005V14C21 18.9706 16.9706 23 12 23C7.02944 23 3 18.9706 3 14V12.0005C2.37209 11.1647 2 10.1258 2 9C2 6.58104 3.71776 4.56329 6 4.10002V3H4V4C4 4.55228 3.55228 5 3 5C2.44772 5 2 4.55228 2 4V2C2 1.44772 2.44772 1 3 1ZM8 4.10002C10.2822 4.56329 12 6.58104 12 9C12 6.58104 13.7178 4.56329 16 4.10002V3H8V4.10002ZM13.6459 12.7082L12 16L10.3541 12.7082C9.95186 13.0722 9.49015 13.3717 8.98526 13.5904C8.93987 14.4559 8.78117 15.2987 8.39443 16.0722C7.96971 16.9216 7.30694 17.615 6.37256 18.1639C7.64788 19.8846 9.69369 21 12 21C14.3063 21 16.3521 19.8846 17.6274 18.1639C16.6931 17.615 16.0303 16.9216 15.6056 16.0722C15.2188 15.2987 15.0601 14.4559 15.0147 13.5904C14.5099 13.3717 14.0481 13.0722 13.6459 12.7082ZM7 6C5.34315 6 4 7.34315 4 9C4 10.6569 5.34315 12 7 12C8.65685 12 10 10.6569 10 9C10 7.34315 8.65685 6 7 6ZM17.3944 15.1778C17.6162 15.6212 17.9707 16.0327 18.5771 16.4017C18.8507 15.6526 19 14.8438 19 14V13.584C18.4043 13.8442 17.748 13.9918 17.0582 13.9997C17.1186 14.4582 17.2278 14.8446 17.3944 15.1778ZM5 13.584V14C5 14.8438 5.14928 15.6526 5.42288 16.4017C6.02926 16.0327 6.38385 15.6212 6.60557 15.1778C6.77217 14.8446 6.88143 14.4582 6.94183 13.9997C6.252 13.9918 5.59574 13.8442 5 13.584ZM17 6C15.3431 6 14 7.34315 14 9C14 10.6569 15.3431 12 17 12C18.6569 12 20 10.6569 20 9C20 7.34315 18.6569 6 17 6Z" fill="#777B92"/>
</svg>
