<svg width="24" height="24" viewBox="0 0 24 24" fill="none" xmlns="http://www.w3.org/2000/svg">
<path fill-rule="evenodd" clip-rule="evenodd" d="M8 2H13C14.1046 2 15 2.89543 15 4V10H17C18.1046 10 19 10.8954 19 12H21C22.1046 12 23 12.8954 23 14V16C23 17.1046 22.1046 18 21 18H19V20C19 21.1046 18.1046 22 17 22H3C1.89543 22 1 21.1046 1 20V18C1 16.8954 1.89543 16 3 16H5V14H4C3.44772 14 3 13.5523 3 13C3 12.4477 3.44772 12 4 12H5C5 10.8954 5.89543 10 7 10V9C7 8.44772 7.44772 8 8 8C8.55228 8 9 8.44772 9 9V10H13V4H8C7.44772 4 7 3.55228 7 3C7 2.44772 7.44772 2 8 2ZM7 12V16H17V12H7ZM21 16V14H19V16H21ZM7 18V20H17V18H7ZM5 20V18H3V20H5Z" fill="#777B92"/>
<path fill-rule="evenodd" clip-rule="evenodd" d="M18 6C17.4477 6 17 5.55228 17 5C17 4.44772 17.4477 4 18 4C18.5523 4 19 4.44772 19 5C19 5.55228 18.5523 6 18 6Z" fill="#777B92"/>
</svg>
