<svg width="24" height="24" viewBox="0 0 24 24" fill="none" xmlns="http://www.w3.org/2000/svg">
<path fill-rule="evenodd" clip-rule="evenodd" d="M11.0936 4.97653C10.9785 5.28543 10.7186 5.51779 10.3988 5.59769C10.079 5.67758 9.74042 5.59474 9.49361 5.37625C9.22836 5.14142 8.88191 5 8.5 5C7.67158 5 7 5.67157 7 6.5C7 7.32843 7.67158 8 8.5 8C9.14272 8 9.69344 7.5953 9.90642 7.02347C10.0215 6.71457 10.2814 6.48221 10.6012 6.40232C10.921 6.32242 11.2596 6.40526 11.5064 6.62375C11.7716 6.85858 12.1181 7 12.5 7C12.6124 7 12.7208 6.98781 12.8243 6.96506C13.3637 6.84655 13.8971 7.18776 14.0156 7.72718C14.1341 8.2666 13.7929 8.79996 13.2535 8.91847C13.0099 8.97199 12.7576 9 12.5 9C12.0355 9 11.5915 8.90915 11.1854 8.74446C10.5439 9.51138 9.57967 10 8.5 10C6.56701 10 5 8.433 5 6.5C5 4.567 6.56701 3 8.5 3C8.96453 3 9.40849 3.09085 9.81456 3.25554C10.4561 2.48862 11.4203 2 12.5 2C13.8982 2 15.1038 2.81924 15.6647 4.00381C17.5212 4.0898 19 5.62221 19 7.5C19 8.05228 18.5523 8.5 18 8.5C17.4477 8.5 17 8.05228 17 7.5C17 6.67157 16.3284 6 15.5 6C15.3876 6 15.2792 6.01219 15.1757 6.03494C14.9099 6.09333 14.6318 6.04089 14.4055 5.88971C14.1793 5.73853 14.0244 5.50166 13.9766 5.23376C13.8516 4.53243 13.2369 4 12.5 4C11.8573 4 11.3066 4.4047 11.0936 4.97653Z" fill="#777B92"/>
<path fill-rule="evenodd" clip-rule="evenodd" d="M5 12C5 11.4477 5.44772 11 6 11H7C7.55229 11 8 11.4477 8 12C8 12.5523 7.55229 13 7 13V14C7 14.1354 6.9725 14.2694 6.91915 14.3939L4.51654 20H6.34061L9 13.7947V12C9 11.4477 9.44772 11 10 11H12C12.5523 11 13 11.4477 13 12C13 12.5523 12.5523 13 12 13H11V14C11 14.1354 10.9725 14.2694 10.9191 14.3939L8.51654 20H11.3406L14 13.7947V12C14 11.4477 14.4477 11 15 11H18C18.5523 11 19 11.4477 19 12V13.7947L21.9104 20.5857C21.9416 20.654 21.9652 20.7264 21.9804 20.8019C22.0338 21.0649 21.9776 21.3337 21.835 21.5505C21.6908 21.7687 21.4635 21.9271 21.1981 21.9804C21.1247 21.9953 21.0509 22.0017 20.9779 22H12.0221C12.0071 22.0003 11.992 22.0003 11.977 22H7.02208C7.00708 22.0003 6.99205 22.0003 6.97699 22H3C2.66386 22 2.35021 21.8311 2.16516 21.5505C1.98012 21.2699 1.94845 20.915 2.08086 20.6061L5 13.7947V12ZM19.4835 20L17.0809 14.3939C17.0275 14.2694 17 14.1354 17 14V13H16V14C16 14.1354 15.9725 14.2694 15.9191 14.3939L13.5165 20H19.4835Z" fill="#777B92"/>
</svg>
