<svg width="24" height="24" viewBox="0 0 24 24" fill="none" xmlns="http://www.w3.org/2000/svg">
<path fill-rule="evenodd" clip-rule="evenodd" d="M5 1C7.55536 1 9.60844 1.49664 11.0114 2.84849C11.0844 2.3681 11.4992 2 12 2C12.5523 2 13 2.44772 13 3V8.83753C14.4027 7.49396 16.4516 7 19 7C19.2652 7 19.5196 7.10536 19.7071 7.29289C19.8946 7.48043 20 7.73478 20 8C20 10.5986 19.4864 12.6778 18.0821 14.0821C16.8629 15.3013 15.1349 15.8492 13 15.9724V20H17C17.5523 20 18 20.4477 18 21C18 21.5523 17.5523 22 17 22H7C6.44772 22 6 21.5523 6 21C6 20.4477 6.44772 20 7 20H11V18.9724C8.86506 18.8492 7.13711 18.3013 5.91789 17.0821C4.5136 15.6778 4 13.5986 4 11C4 10.4477 4.44772 10 5 10C7.54845 10 9.59732 10.494 11 11.8375V9.97237C8.86506 9.84915 7.13711 9.30133 5.91789 8.08211C4.5136 6.67781 4 4.59863 4 2C4 1.44772 4.44772 1 5 1ZM7.33211 6.66789C8.04858 7.38437 9.17783 7.84296 10.9664 7.96638C10.843 6.17783 10.3844 5.04858 9.66789 4.33211C8.95142 3.61563 7.82217 3.15704 6.03362 3.03362C6.15704 4.82217 6.61563 5.95142 7.33211 6.66789ZM13.0336 13.9664C14.8222 13.843 15.9514 13.3844 16.6679 12.6679C17.3844 11.9514 17.843 10.8222 17.9664 9.03362C16.1778 9.15704 15.0486 9.61563 14.3321 10.3321C13.6156 11.0486 13.157 12.1778 13.0336 13.9664ZM6.03362 12.0336C6.15704 13.8222 6.61563 14.9514 7.33211 15.6679C8.04858 16.3844 9.17783 16.843 10.9664 16.9664C10.843 15.1778 10.3844 14.0486 9.66789 13.3321C8.95142 12.6156 7.82217 12.157 6.03362 12.0336Z" fill="#777B92"/>
</svg>
