<svg width="24" height="24" viewBox="0 0 24 24" fill="none" xmlns="http://www.w3.org/2000/svg">
<path fill-rule="evenodd" clip-rule="evenodd" d="M13 2H17C17.5523 2 18 2.44772 18 3C18 3.55228 17.5523 4 17 4H16V6H16.0689C17.1182 6 17.989 6.8109 18.0638 7.85751L18.2168 10H21C22.1046 10 23 10.8954 23 12V18C23 19.1046 22.1046 20 21 20H18.9261C18.9275 21.0949 18.0388 22 16.926 22H13.074C11.9612 22 11.0725 21.0949 11.0739 20H9C7.89543 20 7 19.1046 7 18V16H3C1.89543 16 1 15.1046 1 14V11C1 10.4477 1.44772 10 2 10C2.55228 10 3 10.4477 3 11V14H7V12C7 10.8954 7.89543 10 9 10H11.7832L11.9362 7.8575C12.011 6.81089 12.8818 6 13.9311 6H14V4H13C12.4477 4 12 3.55228 12 3C12 2.44772 12.4477 2 13 2ZM18.3597 12L18.7883 18H21V12H18.3597ZM9 12V14H11.4974L11.6403 12H9ZM9 18H11.2117L11.3546 16H9V18ZM13.9311 8L13.074 20H16.926L16.0689 8L13.9311 8Z" fill="#777B92"/>
<path fill-rule="evenodd" clip-rule="evenodd" d="M11 5C11 5.55228 10.5523 6 10 6C9.44772 6 9 5.55228 9 5C9 4.44772 9.44772 4 10 4C10.5523 4 11 4.44772 11 5Z" fill="#777B92"/>
<path fill-rule="evenodd" clip-rule="evenodd" d="M6 10C5.44772 10 5 9.55228 5 9C5 8.44772 5.44772 8 6 8C6.55228 8 7 8.44772 7 9C7 9.55228 6.55228 10 6 10Z" fill="#777B92"/>
</svg>
