<svg width="24" height="24" viewBox="0 0 24 24" fill="none" xmlns="http://www.w3.org/2000/svg">
<path fill-rule="evenodd" clip-rule="evenodd" d="M4 2H10C11.1046 2 12 2.89543 12 4V5H16C17.1046 5 18 5.89543 18 7V14H20C21.1046 14 22 14.8954 22 16V20C22 21.1046 21.1046 22 20 22H14C12.8954 22 12 21.1046 12 20V19H8C6.89543 19 6 18.1046 6 17V10H4C2.89543 10 2 9.10457 2 8V4C2 2.89543 2.89543 2 4 2ZM12 17V16C12 14.8954 12.8954 14 14 14H16V7H12V8C12 9.10457 11.1046 10 10 10H8V17H12ZM14 20H20V16H14V20ZM10 8V4H4V8H10Z" fill="#777B92"/>
</svg>
