<svg width="24" height="24" viewBox="0 0 24 24" fill="none" xmlns="http://www.w3.org/2000/svg">
<path fill-rule="evenodd" clip-rule="evenodd" d="M4 3H8.58579C9.11622 3 9.62493 3.21071 10 3.58579L12.4142 6H20C21.1046 6 22 6.89543 22 8V18C22 19.1046 21.1046 20 20 20H12C11.4477 20 11 19.5523 11 19C11 18.4477 11.4477 18 12 18H20V8H12.4142C11.8838 8 11.3751 7.78929 11 7.41421L8.58579 5H4V10C4 10.5523 3.55228 11 3 11C2.44772 11 2 10.5523 2 10V5C2 3.89543 2.89543 3 4 3Z" fill="#777B92"/>
<path fill-rule="evenodd" clip-rule="evenodd" d="M4 14V16.5858L7.29289 13.2929C7.68342 12.9024 8.31658 12.9024 8.70711 13.2929C9.09763 13.6834 9.09763 14.3166 8.70711 14.7071L5.41421 18H8C8.55228 18 9 18.4477 9 19C9 19.5523 8.55228 20 8 20H3C2.44772 20 2 19.5523 2 19V14C2 13.4477 2.44772 13 3 13C3.55228 13 4 13.4477 4 14Z" fill="#777B92"/>
</svg>
