<svg width="24" height="24" viewBox="0 0 24 24" fill="none" xmlns="http://www.w3.org/2000/svg">
<path fill-rule="evenodd" clip-rule="evenodd" d="M9.44541 8.16806C9.90493 7.8617 10.5258 7.98588 10.8322 8.44541L12.0001 10.1973L13.1681 8.44541C13.4744 7.98588 14.0953 7.8617 14.5548 8.16806C15.0143 8.47441 15.1385 9.09528 14.8322 9.55481L13.202 12.0001L14.8322 14.4454C15.1385 14.9049 15.0143 15.5258 14.5548 15.8322C14.0953 16.1385 13.4744 16.0143 13.1681 15.5548L12.0001 13.8029L10.8322 15.5548C10.5258 16.0143 9.90493 16.1385 9.44541 15.8322C8.98588 15.5258 8.8617 14.9049 9.16806 14.4454L10.7983 12.0001L9.16806 9.55481C8.8617 9.09528 8.98588 8.47441 9.44541 8.16806Z" fill="#777B92"/>
<path fill-rule="evenodd" clip-rule="evenodd" d="M2 4C2 2.89543 2.89543 2 4 2H20C21.1046 2 22 2.89543 22 4V20C22 21.1046 21.1046 22 20 22H4C2.89543 22 2 21.1046 2 20V4ZM20 4L4 4V20H20V4Z" fill="#777B92"/>
</svg>
