<svg width="24" height="24" viewBox="0 0 24 24" fill="none" xmlns="http://www.w3.org/2000/svg">
<path fill-rule="evenodd" clip-rule="evenodd" d="M4 4C4 2.89543 4.89543 2 6 2H12.5858C12.6672 2 12.7481 2.00496 12.8281 2.01472C12.8839 2.00504 12.9414 2 13 2C13.3381 2 13.6371 2.16782 13.818 2.4247C13.8816 2.4744 13.9424 2.52815 14 2.58579L19.4142 8C19.4718 8.05763 19.5256 8.11842 19.5753 8.18196C19.8322 8.36295 20 8.66187 20 9C20 9.05862 19.995 9.11607 19.9853 9.17192C19.995 9.25191 20 9.3328 20 9.41421V14C20 14.5523 19.5523 15 19 15C18.4477 15 18 14.5523 18 14V10H14C12.8954 10 12 9.10457 12 8V4L6 4V14C6 14.5523 5.55228 15 5 15C4.44772 15 4 14.5523 4 14V4ZM14 5.41421V8H16.5858L14 5.41421Z" fill="#777B92"/>
<path fill-rule="evenodd" clip-rule="evenodd" d="M4.82575 21.8561C4.74042 21.7547 4.69775 21.6374 4.69775 21.5041V16.6561C4.69775 16.5227 4.74042 16.4081 4.82575 16.3121C4.91109 16.2107 5.01775 16.1547 5.14575 16.1441C5.56175 16.1014 5.97242 16.0801 6.37775 16.0801C7.33242 16.0801 8.06842 16.3334 8.58575 16.8401C9.10309 17.3467 9.36175 18.0667 9.36175 19.0001C9.36175 20.0134 9.10309 20.7814 8.58575 21.3041C8.06842 21.8214 7.33242 22.0801 6.37775 22.0801C5.97242 22.0801 5.56175 22.0587 5.14575 22.0161C5.01775 22.0054 4.91109 21.9521 4.82575 21.8561ZM6.02575 20.8961V17.2641C6.02575 17.2161 6.04975 17.1867 6.09775 17.1761C6.20442 17.1547 6.33242 17.1441 6.48175 17.1441C7.01509 17.1441 7.41242 17.2934 7.67375 17.5921C7.93509 17.8907 8.06575 18.3601 8.06575 19.0001C8.06575 19.7147 7.93509 20.2294 7.67375 20.5441C7.41775 20.8587 7.02042 21.0161 6.48175 21.0161C6.33242 21.0161 6.20442 21.0054 6.09775 20.9841C6.04975 20.9734 6.02575 20.9441 6.02575 20.8961Z" fill="#777B92"/>
<path fill-rule="evenodd" clip-rule="evenodd" d="M12.6753 22.0801C11.8327 22.0801 11.166 21.8161 10.6753 21.2881C10.1846 20.7547 9.93932 20.0187 9.93932 19.0801C9.93932 18.1414 10.1846 17.4081 10.6753 16.8801C11.166 16.3467 11.8327 16.0801 12.6753 16.0801C13.518 16.0801 14.1847 16.3467 14.6753 16.8801C15.166 17.4081 15.4113 18.1414 15.4113 19.0801C15.4113 20.0187 15.166 20.7547 14.6753 21.2881C14.1847 21.8161 13.518 22.0801 12.6753 22.0801ZM12.6753 17.2001C13.5713 17.2001 14.0193 17.8267 14.0193 19.0801C14.0193 20.3334 13.5713 20.9601 12.6753 20.9601C11.7793 20.9601 11.3313 20.3334 11.3313 19.0801C11.3313 17.8267 11.7793 17.2001 12.6753 17.2001Z" fill="#777B92"/>
<path fill-rule="evenodd" clip-rule="evenodd" d="M18.8022 22.0801C17.9275 22.0801 17.2395 21.8214 16.7382 21.3041C16.2369 20.7867 15.9862 20.0454 15.9862 19.0801C15.9862 18.1307 16.2289 17.3947 16.7142 16.8721C17.1995 16.3441 17.8769 16.0801 18.7462 16.0801C19.1622 16.0801 19.5249 16.1094 19.8342 16.1681C19.9622 16.1894 20.0662 16.2534 20.1462 16.3601C20.2262 16.4667 20.2662 16.5867 20.2662 16.7201V16.9761C20.2662 17.0881 20.2209 17.1761 20.1302 17.2401C20.0395 17.3041 19.9409 17.3227 19.8342 17.2961C19.5302 17.2161 19.2209 17.1761 18.9062 17.1761C18.4262 17.1761 18.0502 17.3387 17.7782 17.6641C17.5115 17.9894 17.3782 18.4614 17.3782 19.0801C17.3782 19.6881 17.5222 20.1601 17.8102 20.4961C18.0982 20.8321 18.4822 21.0001 18.9622 21.0001C19.2822 21.0001 19.5942 20.9601 19.8982 20.8801C20.0049 20.8534 20.1035 20.8721 20.1942 20.9361C20.2902 21.0001 20.3382 21.0881 20.3382 21.2001V21.4401C20.3382 21.5734 20.2955 21.6934 20.2102 21.8001C20.1302 21.9067 20.0262 21.9707 19.8982 21.9921C19.5835 22.0507 19.2182 22.0801 18.8022 22.0801Z" fill="#777B92"/>
</svg>
