<svg width="24" height="24" viewBox="0 0 24 24" fill="none" xmlns="http://www.w3.org/2000/svg">
<path fill-rule="evenodd" clip-rule="evenodd" d="M14.9999 2H19.9999C20.5522 2 20.9999 2.44772 20.9999 3V8C20.9999 8.55228 20.5522 9 19.9999 9C19.4476 9 18.9999 8.55228 18.9999 8V5.41421L13.707 10.7071C13.3165 11.0976 12.6834 11.0976 12.2928 10.7071C11.9023 10.3166 11.9023 9.68342 12.2928 9.29289L17.5857 4H14.9999C14.4476 4 13.9999 3.55228 13.9999 3C13.9999 2.44772 14.4476 2 14.9999 2Z" fill="#777B92"/>
<path fill-rule="evenodd" clip-rule="evenodd" d="M7.72969 17.321C7.55734 17.1941 7.32439 17.1307 7.03083 17.1307C6.72969 17.1307 6.49863 17.1922 6.33765 17.3153C6.17666 17.4384 6.09617 17.5938 6.09617 17.7812C6.09238 17.9896 6.1814 18.1477 6.36321 18.2557C6.54693 18.3617 6.76473 18.4441 7.01662 18.5028L7.53935 18.6278C7.87647 18.7036 8.17571 18.8134 8.43708 18.9574C8.70034 19.1013 8.90678 19.2869 9.0564 19.5142C9.20791 19.7396 9.28367 20.0142 9.28367 20.3381C9.28178 20.8703 9.08196 21.2945 8.68424 21.6108C8.2884 21.9252 7.73537 22.0824 7.02515 22.0824C6.31871 22.0824 5.75526 21.9214 5.33481 21.5994C4.91435 21.2775 4.69655 20.8021 4.6814 20.1733H5.87174C5.89257 20.465 6.00715 20.6847 6.21549 20.8324C6.42571 20.9782 6.69087 21.0511 7.01094 21.0511C7.32344 21.0511 7.57249 20.9848 7.7581 20.8523C7.9456 20.7197 8.0403 20.5473 8.04219 20.3352C8.0403 20.1383 7.95412 19.9867 7.78367 19.8807C7.61321 19.7746 7.36984 19.6837 7.05356 19.608L6.42003 19.4489C5.9295 19.3314 5.54219 19.1449 5.2581 18.8892C4.97401 18.6335 4.83291 18.2917 4.83481 17.8636C4.83291 17.5114 4.92666 17.2036 5.11606 16.9403C5.30734 16.6752 5.56965 16.4697 5.90299 16.3239C6.23632 16.1761 6.61511 16.1023 7.03935 16.1023C7.47117 16.1023 7.84806 16.1761 8.17003 16.3239C8.4939 16.4716 8.74579 16.6771 8.92571 16.9403C9.10564 17.2036 9.19844 17.5085 9.20412 17.8551H8.02515C8.00242 17.6259 7.90393 17.4479 7.72969 17.321Z" fill="#777B92"/>
<path fill-rule="evenodd" clip-rule="evenodd" d="M9.66293 22L11.6715 16.1818H13.2567L15.2624 22H13.9442L13.5124 20.6733H11.4129L10.9811 22H9.66293ZM13.2027 19.7131L12.4868 17.5114H12.4413L11.7254 19.7131H13.2027Z" fill="#777B92"/>
<path fill-rule="evenodd" clip-rule="evenodd" d="M15.9626 16.1818H18.2581C18.6994 16.1818 19.0753 16.2661 19.3859 16.4347C19.6965 16.6013 19.9333 16.8333 20.0962 17.1307C20.2609 17.4261 20.3433 17.767 20.3433 18.1534C20.3433 18.5398 20.26 18.8807 20.0933 19.1761C19.9267 19.4697 19.6852 19.6998 19.3689 19.8665C19.0545 20.0312 18.6738 20.1136 18.2269 20.1136H17.1928V22H15.9626V16.1818ZM18.028 19.1278C18.3803 19.1278 18.6426 19.0379 18.8149 18.858C18.9892 18.6761 19.0763 18.4413 19.0763 18.1534C19.0763 17.8636 18.9892 17.6307 18.8149 17.4545C18.6426 17.2765 18.3784 17.1875 18.0223 17.1875H17.1928V19.1278H18.028Z" fill="#777B92"/>
</svg>
