<svg width="24" height="24" viewBox="0 0 24 24" fill="none" xmlns="http://www.w3.org/2000/svg">
<path fill-rule="evenodd" clip-rule="evenodd" d="M15 1H20C20.5523 1 21 1.44772 21 2V7C21 7.55228 20.5523 8 20 8C19.4477 8 19 7.55228 19 7V4.41421L14.7071 8.70711C14.3166 9.09763 13.6834 9.09763 13.2929 8.70711C12.9024 8.31658 12.9024 7.68342 13.2929 7.29289L17.5858 3H15C14.4477 3 14 2.55228 14 2C14 1.44772 14.4477 1 15 1Z" fill="#777B92"/>
<path fill-rule="evenodd" clip-rule="evenodd" d="M6.51821 23C5.3154 23 4.42733 22.6735 3.85399 22.0204C3.28466 21.3673 3 20.3522 3 18.9749C3 16.325 4.19078 15 6.57234 15C6.89709 15 7.23388 15.0335 7.58269 15.1005C7.93151 15.1675 8.22219 15.2616 8.45473 15.383C8.69128 15.5003 8.80956 15.6321 8.80956 15.7787C8.80956 15.8833 8.76946 16.0215 8.68928 16.1931C8.60909 16.3605 8.51286 16.5092 8.4006 16.6389C8.29235 16.7687 8.19612 16.8336 8.11193 16.8336C8.09188 16.8336 8.03776 16.8127 7.94955 16.7708C7.7571 16.6871 7.55463 16.618 7.34213 16.5636C7.13365 16.505 6.86702 16.4757 6.54227 16.4757C5.9128 16.4757 5.44571 16.685 5.141 17.1036C4.84029 17.5181 4.68994 18.146 4.68994 18.9874C4.68994 19.8289 4.8423 20.4631 5.14701 20.8901C5.45172 21.3171 5.90879 21.5306 6.51821 21.5306C6.83495 21.5306 7.10959 21.4971 7.34213 21.4301C7.57868 21.3632 7.80922 21.2773 8.03375 21.1727C8.04577 21.1685 8.08186 21.1538 8.142 21.1287C8.20214 21.0994 8.24624 21.0848 8.27431 21.0848C8.37855 21.0848 8.47878 21.1497 8.57501 21.2794C8.67123 21.405 8.74942 21.5494 8.80956 21.7127C8.8697 21.8718 8.89977 21.9869 8.89977 22.0581C8.89977 22.2632 8.76746 22.4369 8.50284 22.5793C8.24223 22.7216 7.92549 22.8284 7.55262 22.8995C7.18376 22.9665 6.83896 23 6.51821 23Z" fill="#777B92"/>
<path fill-rule="evenodd" clip-rule="evenodd" d="M11.8948 23C11.3896 23 10.9445 22.9477 10.5596 22.843C10.1788 22.7342 9.88607 22.6023 9.68159 22.4474C9.48112 22.2925 9.38089 22.146 9.38089 22.0078C9.38089 21.899 9.41898 21.765 9.49516 21.606C9.57534 21.4469 9.66956 21.3108 9.77781 21.1978C9.88607 21.0806 9.97628 21.022 10.0484 21.022C10.0925 21.022 10.1868 21.0617 10.3311 21.1413C10.5476 21.2585 10.7521 21.3527 10.9445 21.4239C11.141 21.495 11.3655 21.5306 11.6181 21.5306C11.8988 21.5306 12.1353 21.4741 12.3278 21.3611C12.5242 21.2439 12.6225 21.0408 12.6225 20.752C12.6225 20.5845 12.5723 20.4401 12.4721 20.3187C12.3719 20.1973 12.2436 20.0947 12.0872 20.011C11.9308 19.9273 11.7183 19.8289 11.4497 19.7159L10.9746 19.5024C10.6859 19.3558 10.4374 19.1947 10.2289 19.0188C10.0244 18.843 9.856 18.6107 9.72369 18.3218C9.59539 18.033 9.53124 17.6792 9.53124 17.2606C9.53124 16.7499 9.65152 16.325 9.89208 15.9859C10.1326 15.6468 10.4454 15.3977 10.8303 15.2386C11.2152 15.0795 11.6281 15 12.0692 15C12.43 15 12.7568 15.0398 13.0494 15.1193C13.3421 15.1947 13.5707 15.293 13.735 15.4144C13.9034 15.5358 13.9876 15.6572 13.9876 15.7787C13.9876 15.8791 13.9556 16.0089 13.8914 16.168C13.8313 16.3229 13.7551 16.4589 13.6629 16.5761C13.5707 16.6934 13.4845 16.752 13.4043 16.752C13.3682 16.752 13.304 16.731 13.2118 16.6892C13.0635 16.6264 12.9131 16.5761 12.7608 16.5385C12.6124 16.4966 12.43 16.4757 12.2135 16.4757C11.8406 16.4757 11.582 16.5385 11.4377 16.6641C11.2934 16.7855 11.2212 16.9299 11.2212 17.0973C11.2212 17.2899 11.2693 17.4511 11.3655 17.5808C11.4658 17.7106 11.59 17.8174 11.7384 17.9011C11.8907 17.9848 12.1012 18.0811 12.3699 18.19C12.7748 18.37 13.1056 18.5416 13.3622 18.7049C13.6188 18.8639 13.8393 19.0942 14.0237 19.3956C14.2122 19.697 14.3064 20.0822 14.3064 20.551C14.3064 21.1245 14.1901 21.5955 13.9576 21.9639C13.729 22.3281 13.4323 22.5918 13.0675 22.7551C12.7066 22.9184 12.3157 23 11.8948 23Z" fill="#777B92"/>
<path fill-rule="evenodd" clip-rule="evenodd" d="M17.5058 22.9246C17.3334 22.9246 17.1971 22.9079 17.0969 22.8744C16.9967 22.8367 16.9345 22.776 16.9105 22.6923L14.6011 15.5149C14.569 15.4144 14.553 15.3475 14.553 15.314C14.553 15.1465 14.7715 15.0628 15.2085 15.0628H15.5573C15.9141 15.0628 16.1246 15.1737 16.1888 15.3956L17.6321 20.2245L17.7524 20.6138H17.7945L17.9148 20.2245L19.3943 15.3956C19.4664 15.1737 19.6789 15.0628 20.0317 15.0628H20.3565C20.7855 15.0628 21 15.1465 21 15.314C21 15.3893 20.988 15.4563 20.9639 15.5149L18.6545 22.6923C18.6305 22.776 18.5663 22.8367 18.4621 22.8744C18.3618 22.9079 18.2275 22.9246 18.0591 22.9246H17.5058Z" fill="#777B92"/>
</svg>
